%TF.GenerationSoftware,KiCad,Pcbnew,8.0.8*%
%TF.CreationDate,2025-02-20T19:12:18+01:00*%
%TF.ProjectId,lakypad,6c616b79-7061-4642-9e6b-696361645f70,rev?*%
%TF.SameCoordinates,Original*%
%TF.FileFunction,Copper,L2,Bot*%
%TF.FilePolarity,Positive*%
%FSLAX46Y46*%
G04 Gerber Fmt 4.6, Leading zero omitted, Abs format (unit mm)*
G04 Created by KiCad (PCBNEW 8.0.8) date 2025-02-20 19:12:18*
%MOMM*%
%LPD*%
G01*
G04 APERTURE LIST*
%TA.AperFunction,ComponentPad*%
%ADD10R,2.000000X2.000000*%
%TD*%
%TA.AperFunction,ComponentPad*%
%ADD11C,2.000000*%
%TD*%
%TA.AperFunction,ComponentPad*%
%ADD12C,3.200000*%
%TD*%
%TA.AperFunction,ComponentPad*%
%ADD13C,2.200000*%
%TD*%
%TA.AperFunction,ComponentPad*%
%ADD14R,1.600000X1.600000*%
%TD*%
%TA.AperFunction,ComponentPad*%
%ADD15O,1.600000X1.600000*%
%TD*%
%TA.AperFunction,ComponentPad*%
%ADD16O,1.600000X2.000000*%
%TD*%
%TA.AperFunction,ComponentPad*%
%ADD17C,1.524000*%
%TD*%
%TA.AperFunction,Conductor*%
%ADD18C,0.200000*%
%TD*%
G04 APERTURE END LIST*
D10*
%TO.P,SW13,A,A*%
%TO.N,Net-(U1-GPIO2{slash}SCK)*%
X167000000Y-32000000D03*
D11*
%TO.P,SW13,B,B*%
%TO.N,Net-(U1-GPIO1{slash}RX)*%
X167000000Y-37000000D03*
%TO.P,SW13,C,C*%
%TO.N,GND*%
X167000000Y-34500000D03*
D12*
%TO.P,SW13,MP*%
%TO.N,N/C*%
X174500000Y-28900000D03*
X174500000Y-40100000D03*
D11*
%TO.P,SW13,S1,S1*%
%TO.N,/Col 3*%
X181500000Y-37000000D03*
%TO.P,SW13,S2,S2*%
%TO.N,GND*%
X181500000Y-32000000D03*
%TD*%
D13*
%TO.P,SW12,1,1*%
%TO.N,/Col 3*%
X156540000Y-98020000D03*
%TO.P,SW12,2,2*%
%TO.N,Net-(D12-A)*%
X150190000Y-100560000D03*
%TD*%
%TO.P,SW11,1,1*%
%TO.N,/Col 3*%
X175540000Y-97920000D03*
%TO.P,SW11,2,2*%
%TO.N,Net-(D11-A)*%
X169190000Y-100460000D03*
%TD*%
%TO.P,SW10,1,1*%
%TO.N,Net-(U1-GPIO4{slash}MISO)*%
X156540000Y-78920000D03*
%TO.P,SW10,2,2*%
%TO.N,Net-(D10-A)*%
X150190000Y-81460000D03*
%TD*%
%TO.P,SW9,1,1*%
%TO.N,Net-(U1-GPIO4{slash}MISO)*%
X175540000Y-78920000D03*
%TO.P,SW9,2,2*%
%TO.N,Net-(D9-A)*%
X169190000Y-81460000D03*
%TD*%
%TO.P,SW8,1,1*%
%TO.N,/Col 1*%
X156540000Y-59920000D03*
%TO.P,SW8,2,2*%
%TO.N,Net-(D8-A)*%
X150190000Y-62460000D03*
%TD*%
%TO.P,SW7,1,1*%
%TO.N,/Col 1*%
X175540000Y-59920000D03*
%TO.P,SW7,2,2*%
%TO.N,Net-(D7-A)*%
X169190000Y-62460000D03*
%TD*%
%TO.P,SW6,1,1*%
%TO.N,/Col 3*%
X137460000Y-98020000D03*
%TO.P,SW6,2,2*%
%TO.N,Net-(D6-A)*%
X131110000Y-100560000D03*
%TD*%
%TO.P,SW5,1,1*%
%TO.N,Net-(U1-GPIO4{slash}MISO)*%
X137460000Y-78920000D03*
%TO.P,SW5,2,2*%
%TO.N,Net-(D5-A)*%
X131110000Y-81460000D03*
%TD*%
%TO.P,SW4,1,1*%
%TO.N,/Col 1*%
X137440000Y-59920000D03*
%TO.P,SW4,2,2*%
%TO.N,Net-(D4-A)*%
X131090000Y-62460000D03*
%TD*%
%TO.P,SW3,1,1*%
%TO.N,/Col 3*%
X118390000Y-98020000D03*
%TO.P,SW3,2,2*%
%TO.N,Net-(D3-A)*%
X112040000Y-100560000D03*
%TD*%
%TO.P,SW2,1,1*%
%TO.N,Net-(U1-GPIO4{slash}MISO)*%
X118390000Y-78920000D03*
%TO.P,SW2,2,2*%
%TO.N,Net-(D2-A)*%
X112040000Y-81460000D03*
%TD*%
%TO.P,SW1,1,1*%
%TO.N,/Col 1*%
X118410000Y-59920000D03*
%TO.P,SW1,2,2*%
%TO.N,Net-(D1-A)*%
X112060000Y-62460000D03*
%TD*%
D14*
%TO.P,D7,1,K*%
%TO.N,Net-(D11-K)*%
X182000000Y-61000000D03*
D15*
%TO.P,D7,2,A*%
%TO.N,Net-(D7-A)*%
X182000000Y-68620000D03*
%TD*%
D14*
%TO.P,D11,1,K*%
%TO.N,Net-(D11-K)*%
X182000000Y-99000000D03*
D15*
%TO.P,D11,2,A*%
%TO.N,Net-(D11-A)*%
X182000000Y-106620000D03*
%TD*%
D14*
%TO.P,D4,1,K*%
%TO.N,/Row 2*%
X144000000Y-61190000D03*
D15*
%TO.P,D4,2,A*%
%TO.N,Net-(D4-A)*%
X144000000Y-68810000D03*
%TD*%
D14*
%TO.P,D8,1,K*%
%TO.N,/Row 3*%
X163000000Y-61000000D03*
D15*
%TO.P,D8,2,A*%
%TO.N,Net-(D8-A)*%
X163000000Y-68620000D03*
%TD*%
D14*
%TO.P,D5,1,K*%
%TO.N,/Row 2*%
X144000000Y-80000000D03*
D15*
%TO.P,D5,2,A*%
%TO.N,Net-(D5-A)*%
X144000000Y-87620000D03*
%TD*%
D14*
%TO.P,D6,1,K*%
%TO.N,/Row 2*%
X144000000Y-99000000D03*
D15*
%TO.P,D6,2,A*%
%TO.N,Net-(D6-A)*%
X144000000Y-106620000D03*
%TD*%
D14*
%TO.P,D1,1,K*%
%TO.N,/Row 1*%
X125282500Y-61231250D03*
D15*
%TO.P,D1,2,A*%
%TO.N,Net-(D1-A)*%
X125282500Y-68851250D03*
%TD*%
D14*
%TO.P,D12,1,K*%
%TO.N,/Row 3*%
X163000000Y-99231250D03*
D15*
%TO.P,D12,2,A*%
%TO.N,Net-(D12-A)*%
X163000000Y-106851250D03*
%TD*%
D14*
%TO.P,D3,1,K*%
%TO.N,/Row 1*%
X125000000Y-99000000D03*
D15*
%TO.P,D3,2,A*%
%TO.N,Net-(D3-A)*%
X125000000Y-106620000D03*
%TD*%
D14*
%TO.P,D2,1,K*%
%TO.N,/Row 1*%
X125000000Y-80000000D03*
D15*
%TO.P,D2,2,A*%
%TO.N,Net-(D2-A)*%
X125000000Y-87620000D03*
%TD*%
D14*
%TO.P,D10,1,K*%
%TO.N,/Row 3*%
X163000000Y-80000000D03*
D15*
%TO.P,D10,2,A*%
%TO.N,Net-(D10-A)*%
X163000000Y-87620000D03*
%TD*%
D14*
%TO.P,D9,1,K*%
%TO.N,Net-(D11-K)*%
X182000000Y-80000000D03*
D15*
%TO.P,D9,2,A*%
%TO.N,Net-(D9-A)*%
X182000000Y-87620000D03*
%TD*%
D16*
%TO.P,Brd1,4,SDA*%
%TO.N,Net-(Brd1-SDA)*%
X148540000Y-25000000D03*
%TO.P,Brd1,3,SCL*%
%TO.N,Net-(Brd1-SCL)*%
X146000000Y-25000000D03*
%TO.P,Brd1,2,VCC*%
%TO.N,+3.3V*%
X143460000Y-25000000D03*
%TO.P,Brd1,1,GND*%
%TO.N,GND*%
X140920000Y-25000000D03*
%TD*%
D17*
%TO.P,U1,1,GPIO26/ADC0/A0*%
%TO.N,/Row 1*%
X107635000Y-23000000D03*
%TO.P,U1,2,GPIO27/ADC1/A1*%
%TO.N,/Row 2*%
X107635000Y-25540000D03*
%TO.P,U1,3,GPIO28/ADC2/A2*%
%TO.N,/Row 3*%
X107635000Y-28080000D03*
%TO.P,U1,4,GPIO29/ADC3/A3*%
%TO.N,Net-(D11-K)*%
X107635000Y-30620000D03*
%TO.P,U1,5,GPIO6/SDA*%
%TO.N,Net-(Brd1-SDA)*%
X107635000Y-33160000D03*
%TO.P,U1,6,GPIO7/SCL*%
%TO.N,Net-(Brd1-SCL)*%
X107635000Y-35700000D03*
%TO.P,U1,7,GPIO0/TX*%
%TO.N,/Col 3*%
X107635000Y-38240000D03*
%TO.P,U1,8,GPIO1/RX*%
%TO.N,Net-(U1-GPIO1{slash}RX)*%
X122875000Y-38240000D03*
%TO.P,U1,9,GPIO2/SCK*%
%TO.N,Net-(U1-GPIO2{slash}SCK)*%
X122875000Y-35700000D03*
%TO.P,U1,10,GPIO4/MISO*%
%TO.N,Net-(U1-GPIO4{slash}MISO)*%
X122875000Y-33160000D03*
%TO.P,U1,11,GPIO3/MOSI*%
%TO.N,/Col 1*%
X122875000Y-30620000D03*
%TO.P,U1,12,3V3*%
%TO.N,+3.3V*%
X122875000Y-28080000D03*
%TO.P,U1,13,GND*%
%TO.N,GND*%
X122875000Y-25540000D03*
%TO.P,U1,14,VBUS*%
%TO.N,+5V*%
X122875000Y-23000000D03*
%TD*%
D18*
%TO.N,/Row 1*%
X124182500Y-79182500D02*
X125000000Y-80000000D01*
X125000000Y-80000000D02*
X123900000Y-81100000D01*
X123900000Y-97900000D02*
X125000000Y-99000000D01*
X125282500Y-61231250D02*
X124182500Y-62331250D01*
X124182500Y-62331250D02*
X124182500Y-79182500D01*
X123900000Y-81100000D02*
X123900000Y-97900000D01*
%TO.N,/Row 2*%
X145100000Y-62290000D02*
X145100000Y-78900000D01*
X145100000Y-78900000D02*
X144000000Y-80000000D01*
X144000000Y-80000000D02*
X145100000Y-81100000D01*
X145100000Y-97900000D02*
X144000000Y-99000000D01*
X145100000Y-81100000D02*
X145100000Y-97900000D01*
X144000000Y-61190000D02*
X145100000Y-62290000D01*
%TO.N,Net-(D11-K)*%
X182000000Y-80000000D02*
X183100000Y-81100000D01*
X111255000Y-27000000D02*
X107635000Y-30620000D01*
X179000000Y-27000000D02*
X111255000Y-27000000D01*
X183100000Y-97900000D02*
X182000000Y-99000000D01*
X182000000Y-61000000D02*
X184400000Y-58600000D01*
X183100000Y-81100000D02*
X183100000Y-97900000D01*
X182000000Y-61000000D02*
X183100000Y-62100000D01*
X183100000Y-62100000D02*
X183100000Y-78900000D01*
X183100000Y-78900000D02*
X182000000Y-80000000D01*
X184400000Y-58600000D02*
X184400000Y-32400000D01*
X184400000Y-32400000D02*
X179000000Y-27000000D01*
%TO.N,/Row 3*%
X163000000Y-104400000D02*
X151400000Y-116000000D01*
X164100000Y-78900000D02*
X163000000Y-80000000D01*
X104000000Y-31715000D02*
X107635000Y-28080000D01*
X161900000Y-81100000D02*
X161900000Y-98131250D01*
X164100000Y-62100000D02*
X164100000Y-78900000D01*
X163000000Y-80000000D02*
X161900000Y-81100000D01*
X163000000Y-61000000D02*
X164100000Y-62100000D01*
X163000000Y-99231250D02*
X163000000Y-104400000D01*
X161900000Y-98131250D02*
X163000000Y-99231250D01*
X104000000Y-116000000D02*
X104000000Y-31715000D01*
%TO.N,Net-(U1-GPIO4{slash}MISO)*%
X118390000Y-61879899D02*
X106573000Y-50062899D01*
X106573000Y-37800105D02*
X107373105Y-37000000D01*
X106573000Y-50062899D02*
X106573000Y-37800105D01*
X118390000Y-78920000D02*
X118390000Y-61879899D01*
X107373105Y-37000000D02*
X119035000Y-37000000D01*
X119035000Y-37000000D02*
X122875000Y-33160000D01*
%TO.N,/Col 3*%
X107635000Y-38240000D02*
X114395000Y-45000000D01*
X184000000Y-45000000D02*
X184000000Y-39500000D01*
X184000000Y-39500000D02*
X181500000Y-37000000D01*
X114395000Y-45000000D02*
X184000000Y-45000000D01*
%TO.N,Net-(U1-GPIO1{slash}RX)*%
X124115000Y-37000000D02*
X122875000Y-38240000D01*
X167000000Y-37000000D02*
X124115000Y-37000000D01*
%TO.N,Net-(U1-GPIO2{slash}SCK)*%
X167000000Y-32000000D02*
X126575000Y-32000000D01*
X126575000Y-32000000D02*
X122875000Y-35700000D01*
%TO.N,/Row 3*%
X151400000Y-116000000D02*
X104000000Y-116000000D01*
%TD*%
M02*
