%TF.GenerationSoftware,KiCad,Pcbnew,8.0.8*%
%TF.CreationDate,2025-02-20T19:12:18+01:00*%
%TF.ProjectId,lakypad,6c616b79-7061-4642-9e6b-696361645f70,rev?*%
%TF.SameCoordinates,Original*%
%TF.FileFunction,Soldermask,Top*%
%TF.FilePolarity,Negative*%
%FSLAX46Y46*%
G04 Gerber Fmt 4.6, Leading zero omitted, Abs format (unit mm)*
G04 Created by KiCad (PCBNEW 8.0.8) date 2025-02-20 19:12:18*
%MOMM*%
%LPD*%
G01*
G04 APERTURE LIST*
G04 Aperture macros list*
%AMRoundRect*
0 Rectangle with rounded corners*
0 $1 Rounding radius*
0 $2 $3 $4 $5 $6 $7 $8 $9 X,Y pos of 4 corners*
0 Add a 4 corners polygon primitive as box body*
4,1,4,$2,$3,$4,$5,$6,$7,$8,$9,$2,$3,0*
0 Add four circle primitives for the rounded corners*
1,1,$1+$1,$2,$3*
1,1,$1+$1,$4,$5*
1,1,$1+$1,$6,$7*
1,1,$1+$1,$8,$9*
0 Add four rect primitives between the rounded corners*
20,1,$1+$1,$2,$3,$4,$5,0*
20,1,$1+$1,$4,$5,$6,$7,0*
20,1,$1+$1,$6,$7,$8,$9,0*
20,1,$1+$1,$8,$9,$2,$3,0*%
G04 Aperture macros list end*
%ADD10R,2.000000X2.000000*%
%ADD11C,2.000000*%
%ADD12C,3.200000*%
%ADD13C,1.700000*%
%ADD14C,4.000000*%
%ADD15C,2.200000*%
%ADD16R,1.600000X1.600000*%
%ADD17O,1.600000X1.600000*%
%ADD18O,1.600000X2.000000*%
%ADD19RoundRect,0.152400X1.063600X0.609600X-1.063600X0.609600X-1.063600X-0.609600X1.063600X-0.609600X0*%
%ADD20C,1.524000*%
%ADD21RoundRect,0.152400X-1.063600X-0.609600X1.063600X-0.609600X1.063600X0.609600X-1.063600X0.609600X0*%
G04 APERTURE END LIST*
D10*
%TO.C,SW13*%
X167000000Y-32000000D03*
D11*
X167000000Y-37000000D03*
X167000000Y-34500000D03*
D12*
X174500000Y-28900000D03*
X174500000Y-40100000D03*
D11*
X181500000Y-37000000D03*
X181500000Y-32000000D03*
%TD*%
D13*
%TO.C,SW12*%
X148920000Y-103100000D03*
D14*
X154000000Y-103100000D03*
D13*
X159080000Y-103100000D03*
D15*
X156540000Y-98020000D03*
X150190000Y-100560000D03*
%TD*%
D13*
%TO.C,SW11*%
X167920000Y-103000000D03*
D14*
X173000000Y-103000000D03*
D13*
X178080000Y-103000000D03*
D15*
X175540000Y-97920000D03*
X169190000Y-100460000D03*
%TD*%
D13*
%TO.C,SW10*%
X148920000Y-84000000D03*
D14*
X154000000Y-84000000D03*
D13*
X159080000Y-84000000D03*
D15*
X156540000Y-78920000D03*
X150190000Y-81460000D03*
%TD*%
D13*
%TO.C,SW9*%
X167920000Y-84000000D03*
D14*
X173000000Y-84000000D03*
D13*
X178080000Y-84000000D03*
D15*
X175540000Y-78920000D03*
X169190000Y-81460000D03*
%TD*%
D13*
%TO.C,SW8*%
X148920000Y-65000000D03*
D14*
X154000000Y-65000000D03*
D13*
X159080000Y-65000000D03*
D15*
X156540000Y-59920000D03*
X150190000Y-62460000D03*
%TD*%
D13*
%TO.C,SW7*%
X167920000Y-65000000D03*
D14*
X173000000Y-65000000D03*
D13*
X178080000Y-65000000D03*
D15*
X175540000Y-59920000D03*
X169190000Y-62460000D03*
%TD*%
D13*
%TO.C,SW6*%
X129840000Y-103100000D03*
D14*
X134920000Y-103100000D03*
D13*
X140000000Y-103100000D03*
D15*
X137460000Y-98020000D03*
X131110000Y-100560000D03*
%TD*%
D13*
%TO.C,SW5*%
X129840000Y-84000000D03*
D14*
X134920000Y-84000000D03*
D13*
X140000000Y-84000000D03*
D15*
X137460000Y-78920000D03*
X131110000Y-81460000D03*
%TD*%
D13*
%TO.C,SW4*%
X129820000Y-65000000D03*
D14*
X134900000Y-65000000D03*
D13*
X139980000Y-65000000D03*
D15*
X137440000Y-59920000D03*
X131090000Y-62460000D03*
%TD*%
D13*
%TO.C,SW3*%
X110770000Y-103100000D03*
D14*
X115850000Y-103100000D03*
D13*
X120930000Y-103100000D03*
D15*
X118390000Y-98020000D03*
X112040000Y-100560000D03*
%TD*%
D13*
%TO.C,SW2*%
X110770000Y-84000000D03*
D14*
X115850000Y-84000000D03*
D13*
X120930000Y-84000000D03*
D15*
X118390000Y-78920000D03*
X112040000Y-81460000D03*
%TD*%
D13*
%TO.C,SW1*%
X110790000Y-65000000D03*
D14*
X115870000Y-65000000D03*
D13*
X120950000Y-65000000D03*
D15*
X118410000Y-59920000D03*
X112060000Y-62460000D03*
%TD*%
D16*
%TO.C,D7*%
X182000000Y-61000000D03*
D17*
X182000000Y-68620000D03*
%TD*%
D16*
%TO.C,D11*%
X182000000Y-99000000D03*
D17*
X182000000Y-106620000D03*
%TD*%
D16*
%TO.C,D4*%
X144000000Y-61190000D03*
D17*
X144000000Y-68810000D03*
%TD*%
D16*
%TO.C,D8*%
X163000000Y-61000000D03*
D17*
X163000000Y-68620000D03*
%TD*%
D16*
%TO.C,D5*%
X144000000Y-80000000D03*
D17*
X144000000Y-87620000D03*
%TD*%
D16*
%TO.C,D6*%
X144000000Y-99000000D03*
D17*
X144000000Y-106620000D03*
%TD*%
D16*
%TO.C,D1*%
X125282500Y-61231250D03*
D17*
X125282500Y-68851250D03*
%TD*%
D16*
%TO.C,D12*%
X163000000Y-99231250D03*
D17*
X163000000Y-106851250D03*
%TD*%
D16*
%TO.C,D3*%
X125000000Y-99000000D03*
D17*
X125000000Y-106620000D03*
%TD*%
D16*
%TO.C,D2*%
X125000000Y-80000000D03*
D17*
X125000000Y-87620000D03*
%TD*%
D16*
%TO.C,D10*%
X163000000Y-80000000D03*
D17*
X163000000Y-87620000D03*
%TD*%
D16*
%TO.C,D9*%
X182000000Y-80000000D03*
D17*
X182000000Y-87620000D03*
%TD*%
D18*
%TO.C,Brd1*%
X148540000Y-25000000D03*
X146000000Y-25000000D03*
X143460000Y-25000000D03*
X140920000Y-25000000D03*
%TD*%
D19*
%TO.C,U1*%
X106800000Y-23000000D03*
D20*
X107635000Y-23000000D03*
D19*
X106800000Y-25540000D03*
D20*
X107635000Y-25540000D03*
D19*
X106800000Y-28080000D03*
D20*
X107635000Y-28080000D03*
D19*
X106800000Y-30620000D03*
D20*
X107635000Y-30620000D03*
D19*
X106800000Y-33160000D03*
D20*
X107635000Y-33160000D03*
D19*
X106800000Y-35700000D03*
D20*
X107635000Y-35700000D03*
D19*
X106800000Y-38240000D03*
D20*
X107635000Y-38240000D03*
X122875000Y-38240000D03*
D21*
X123710000Y-38240000D03*
D20*
X122875000Y-35700000D03*
D21*
X123710000Y-35700000D03*
D20*
X122875000Y-33160000D03*
D21*
X123710000Y-33160000D03*
D20*
X122875000Y-30620000D03*
D21*
X123710000Y-30620000D03*
D20*
X122875000Y-28080000D03*
D21*
X123710000Y-28080000D03*
D20*
X122875000Y-25540000D03*
D21*
X123710000Y-25540000D03*
D20*
X122875000Y-23000000D03*
D21*
X123710000Y-23000000D03*
%TD*%
M02*
