M48
; DRILL file {KiCad 8.0.6} date 2024-10-21T23:06:45+0100
; FORMAT={-:-/ absolute / metric / decimal}
; #@! TF.CreationDate,2024-10-21T23:06:45+01:00
; #@! TF.GenerationSoftware,Kicad,Pcbnew,8.0.6
; #@! TF.FileFunction,Plated,1,2,PTH
FMAT,2
METRIC
; #@! TA.AperFunction,Plated,PTH,ViaDrill
T1C0.300
; #@! TA.AperFunction,Plated,PTH,ComponentDrill
T2C0.800
; #@! TA.AperFunction,Plated,PTH,ComponentDrill
T3C1.000
; #@! TA.AperFunction,Plated,PTH,ComponentDrill
T4C1.500
; #@! TA.AperFunction,Plated,PTH,ComponentDrill
T5C1.524
%
G90
G05
T1
X47.244Y-41.656
X49.276Y-33.528
X50.292Y-75.692
X52.324Y-40.386
X53.848Y-61.722
X53.971Y-54.479
X54.065Y-51.599
X54.356Y-47.752
X56.665Y-77.193
X57.434Y-93.634
X57.434Y-94.834
X57.707Y-51.308
X61.722Y-33.274
X63.754Y-77.216
X64.008Y-40.132
X64.008Y-51.308
X76.454Y-84.074
X86.106Y-31.75
T2
X56.007Y-48.514
X56.007Y-56.134
X56.007Y-67.564
X56.007Y-75.184
X56.134Y-86.487
X56.134Y-94.107
X56.134Y-105.664
X56.134Y-113.284
X75.184Y-48.514
X75.184Y-56.134
X75.184Y-67.564
X75.184Y-75.184
X75.184Y-86.614
X75.184Y-94.234
X75.184Y-105.664
X75.184Y-113.284
X77.724Y-56.134
X85.344Y-56.134
X94.234Y-67.564
X94.234Y-75.184
X94.234Y-86.614
X94.234Y-94.234
X94.234Y-105.41
X94.234Y-113.03
T3
X39.991Y-27.432
X39.991Y-29.972
X39.991Y-32.512
X39.991Y-35.052
X39.991Y-37.592
X39.991Y-40.132
X39.991Y-42.672
X55.241Y-27.432
X55.241Y-29.972
X55.241Y-32.512
X55.241Y-35.052
X55.241Y-37.592
X55.241Y-40.132
X55.241Y-42.672
X78.475Y-45.125
X78.475Y-47.625
X78.475Y-50.125
X92.975Y-45.125
X92.975Y-50.125
X93.345Y-26.67
X93.345Y-29.21
X93.345Y-31.75
X93.345Y-34.29
T5
X43.815Y-45.085
X43.815Y-64.135
X43.815Y-83.185
X43.815Y-102.235
X50.165Y-42.545
X50.165Y-61.595
X50.165Y-80.645
X50.165Y-99.695
X62.865Y-45.085
X62.865Y-64.135
X62.865Y-83.185
X62.865Y-102.235
X69.215Y-42.545
X69.215Y-61.595
X69.215Y-80.645
X69.215Y-99.695
X81.915Y-64.135
X81.915Y-83.185
X81.915Y-102.235
X88.265Y-61.595
X88.265Y-80.645
X88.265Y-99.695
T4
X85.325Y-42.025G85X86.625Y-42.025
G05
X85.325Y-53.225G85X86.625Y-53.225
G05
M30
