%TF.GenerationSoftware,KiCad,Pcbnew,9.0.0*%
%TF.CreationDate,2025-04-11T15:20:30-07:00*%
%TF.ProjectId,hackpad,6861636b-7061-4642-9e6b-696361645f70,rev?*%
%TF.SameCoordinates,Original*%
%TF.FileFunction,Copper,L2,Bot*%
%TF.FilePolarity,Positive*%
%FSLAX46Y46*%
G04 Gerber Fmt 4.6, Leading zero omitted, Abs format (unit mm)*
G04 Created by KiCad (PCBNEW 9.0.0) date 2025-04-11 15:20:30*
%MOMM*%
%LPD*%
G01*
G04 APERTURE LIST*
%TA.AperFunction,ComponentPad*%
%ADD10C,2.200000*%
%TD*%
%TA.AperFunction,ComponentPad*%
%ADD11C,1.400000*%
%TD*%
%TA.AperFunction,ComponentPad*%
%ADD12O,1.400000X1.400000*%
%TD*%
%TA.AperFunction,ComponentPad*%
%ADD13C,1.524000*%
%TD*%
%TA.AperFunction,ComponentPad*%
%ADD14R,2.000000X2.000000*%
%TD*%
%TA.AperFunction,ComponentPad*%
%ADD15C,2.000000*%
%TD*%
%TA.AperFunction,ComponentPad*%
%ADD16C,3.200000*%
%TD*%
%TA.AperFunction,ViaPad*%
%ADD17C,0.600000*%
%TD*%
%TA.AperFunction,Conductor*%
%ADD18C,0.200000*%
%TD*%
G04 APERTURE END LIST*
D10*
%TO.P,SW5,1,1*%
%TO.N,GND*%
X107315000Y-75882500D03*
%TO.P,SW5,2,2*%
%TO.N,Net-(U1-GPIO4{slash}MISO)*%
X100965000Y-78422500D03*
%TD*%
%TO.P,SW7,1,1*%
%TO.N,GND*%
X126365000Y-94932500D03*
%TO.P,SW7,2,2*%
%TO.N,Net-(U2-GPA6)*%
X120015000Y-97472500D03*
%TD*%
%TO.P,SW14,1,1*%
%TO.N,GND*%
X164465000Y-113982500D03*
%TO.P,SW14,2,2*%
%TO.N,Net-(U2-GPB5)*%
X158115000Y-116522500D03*
%TD*%
%TO.P,SW1,1,1*%
%TO.N,GND*%
X107315000Y-94932500D03*
%TO.P,SW1,2,2*%
%TO.N,Net-(U2-GPA5)*%
X100965000Y-97472500D03*
%TD*%
%TO.P,SW12,1,1*%
%TO.N,GND*%
X126365000Y-113982500D03*
%TO.P,SW12,2,2*%
%TO.N,Net-(U2-GPB7)*%
X120015000Y-116522500D03*
%TD*%
%TO.P,SW16,1,1*%
%TO.N,GND*%
X135890000Y-133032500D03*
%TO.P,SW16,2,2*%
%TO.N,Net-(U2-GPB3)*%
X129540000Y-135572500D03*
%TD*%
%TO.P,SW15,1,1*%
%TO.N,GND*%
X116840000Y-133032500D03*
%TO.P,SW15,2,2*%
%TO.N,Net-(U2-GPB4)*%
X110490000Y-135572500D03*
%TD*%
%TO.P,SW10,1,1*%
%TO.N,GND*%
X88265000Y-113982500D03*
%TO.P,SW10,2,2*%
%TO.N,Net-(U2-GPA2)*%
X81915000Y-116522500D03*
%TD*%
%TO.P,SW11,1,1*%
%TO.N,GND*%
X164465000Y-94932500D03*
%TO.P,SW11,2,2*%
%TO.N,Net-(U2-GPA3)*%
X158115000Y-97472500D03*
%TD*%
%TO.P,SW2,1,1*%
%TO.N,GND*%
X88265000Y-94932500D03*
%TO.P,SW2,2,2*%
%TO.N,Net-(U2-GPA4)*%
X81915000Y-97472500D03*
%TD*%
D11*
%TO.P,R1,1*%
%TO.N,+3.3V*%
X147637500Y-139500000D03*
D12*
%TO.P,R1,2*%
%TO.N,Net-(U1-GPIO0{slash}TX)*%
X147637500Y-131880000D03*
%TD*%
D11*
%TO.P,R2,1*%
%TO.N,+3.3V*%
X145256250Y-139541250D03*
D12*
%TO.P,R2,2*%
%TO.N,Net-(U1-GPIO7{slash}SCL)*%
X145256250Y-131921250D03*
%TD*%
D10*
%TO.P,SW13,1,1*%
%TO.N,GND*%
X145415000Y-113982500D03*
%TO.P,SW13,2,2*%
%TO.N,Net-(U2-GPB6)*%
X139065000Y-116522500D03*
%TD*%
%TO.P,SW9,1,1*%
%TO.N,GND*%
X107315000Y-113982500D03*
%TO.P,SW9,2,2*%
%TO.N,Net-(U2-GPA1)*%
X100965000Y-116522500D03*
%TD*%
%TO.P,SW8,1,1*%
%TO.N,GND*%
X145415000Y-94932500D03*
%TO.P,SW8,2,2*%
%TO.N,Net-(U2-GPA7)*%
X139065000Y-97472500D03*
%TD*%
%TO.P,SW3,1,1*%
%TO.N,GND*%
X126365000Y-75882500D03*
%TO.P,SW3,2,2*%
%TO.N,Net-(U1-GPIO1{slash}RX)*%
X120015000Y-78422500D03*
%TD*%
%TO.P,SW4,1,1*%
%TO.N,GND*%
X88265000Y-75882500D03*
%TO.P,SW4,2,2*%
%TO.N,Net-(U1-GPIO2{slash}SCK)*%
X81915000Y-78422500D03*
%TD*%
D13*
%TO.P,U1,1,GPIO26/ADC0/A0*%
%TO.N,unconnected-(U1-GPIO26{slash}ADC0{slash}A0-Pad1)*%
X78105000Y-145732500D03*
%TO.P,U1,2,GPIO27/ADC1/A1*%
%TO.N,unconnected-(U1-GPIO27{slash}ADC1{slash}A1-Pad2)*%
X80645000Y-145732500D03*
%TO.P,U1,3,GPIO28/ADC2/A2*%
%TO.N,ENC-A*%
X83185000Y-145732500D03*
%TO.P,U1,4,GPIO29/ADC3/A3*%
%TO.N,ENC-B*%
X85725000Y-145732500D03*
%TO.P,U1,5,GPIO6/SDA*%
%TO.N,Net-(D1-DIN)*%
X88265000Y-145732500D03*
%TO.P,U1,6,GPIO7/SCL*%
%TO.N,Net-(U1-GPIO7{slash}SCL)*%
X90805000Y-145732500D03*
%TO.P,U1,7,GPIO0/TX*%
%TO.N,Net-(U1-GPIO0{slash}TX)*%
X93345000Y-145732500D03*
%TO.P,U1,8,GPIO1/RX*%
%TO.N,Net-(U1-GPIO1{slash}RX)*%
X93345000Y-130492500D03*
%TO.P,U1,9,GPIO2/SCK*%
%TO.N,Net-(U1-GPIO2{slash}SCK)*%
X90805000Y-130492500D03*
%TO.P,U1,10,GPIO4/MISO*%
%TO.N,Net-(U1-GPIO4{slash}MISO)*%
X88265000Y-130492500D03*
%TO.P,U1,11,GPIO3/MOSI*%
%TO.N,Net-(U1-GPIO3{slash}MOSI)*%
X85725000Y-130492500D03*
%TO.P,U1,12,3V3*%
%TO.N,+3.3V*%
X83185000Y-130492500D03*
%TO.P,U1,13,GND*%
%TO.N,GND*%
X80645000Y-130492500D03*
%TO.P,U1,14,VBUS*%
%TO.N,+5V*%
X78105000Y-130492500D03*
%TD*%
D14*
%TO.P,SW6,A,A*%
%TO.N,ENC-A*%
X152293750Y-76081250D03*
D15*
%TO.P,SW6,B,B*%
%TO.N,ENC-B*%
X152293750Y-81081250D03*
%TO.P,SW6,C,C*%
%TO.N,GND*%
X152293750Y-78581250D03*
D16*
%TO.P,SW6,MP,MP*%
%TO.N,unconnected-(SW6-PadMP)*%
X159793750Y-72981250D03*
X159793750Y-84181250D03*
D15*
%TO.P,SW6,S1,S1*%
%TO.N,GND*%
X166793750Y-81081250D03*
%TO.P,SW6,S2,S2*%
%TO.N,Net-(U1-GPIO3{slash}MOSI)*%
X166793750Y-76081250D03*
%TD*%
D17*
%TO.N,Net-(U2-GPA5)*%
X107915000Y-93394059D03*
X153978725Y-129954194D03*
%TO.N,GND*%
X116681250Y-130354194D03*
%TO.N,Net-(U1-GPIO1{slash}RX)*%
X93379567Y-128131283D03*
X102425000Y-114582500D03*
%TO.N,Net-(U1-GPIO2{slash}SCK)*%
X97631250Y-114582500D03*
X89128066Y-89128065D03*
X88589767Y-123341483D03*
%TO.N,Net-(U1-GPIO4{slash}MISO)*%
X100965000Y-83943750D03*
X92868750Y-114582500D03*
X87602206Y-122412500D03*
%TO.N,Net-(U2-GPA6)*%
X152723749Y-130968750D03*
%TO.N,Net-(U2-GPA7)*%
X149286027Y-130554194D03*
X132206186Y-124968814D03*
%TO.N,Net-(U1-GPIO3{slash}MOSI)*%
X90911765Y-123400735D03*
%TO.N,Net-(U2-GPB6)*%
X160061402Y-141395750D03*
%TO.N,Net-(U2-GPB7)*%
X145256250Y-133350000D03*
%TO.N,Net-(U2-GPB5)*%
X158743750Y-139542750D03*
X161925000Y-133350000D03*
%TO.N,Net-(U2-GPB4)*%
X156486098Y-141395751D03*
%TO.N,Net-(U2-GPB3)*%
X155263750Y-139632640D03*
%TD*%
D18*
%TO.N,Net-(U1-GPIO7{slash}SCL)*%
X157087098Y-141644694D02*
X154062292Y-144669500D01*
X91868000Y-144669500D02*
X90805000Y-145732500D01*
X145413950Y-132657757D02*
X145857250Y-133101057D01*
X157087098Y-140606045D02*
X157087098Y-141644694D01*
X149582110Y-133101057D02*
X157087098Y-140606045D01*
X154062292Y-144669500D02*
X91868000Y-144669500D01*
X145857250Y-133101057D02*
X149582110Y-133101057D01*
%TO.N,Net-(U2-GPA5)*%
X139040096Y-130954194D02*
X126944899Y-118858997D01*
X153978725Y-129954194D02*
X141742279Y-129954194D01*
X126944899Y-118858997D02*
X126944899Y-115382500D01*
X127765000Y-114562399D02*
X127765000Y-113244059D01*
X127765000Y-113244059D02*
X107915000Y-93394059D01*
X126944899Y-115382500D02*
X127765000Y-114562399D01*
X140742279Y-130954194D02*
X139040096Y-130954194D01*
X141742279Y-129954194D02*
X140742279Y-130954194D01*
%TO.N,GND*%
X86709366Y-113982500D02*
X83343750Y-117348116D01*
X107315000Y-113982500D02*
X107315000Y-75882500D01*
X126365000Y-94932500D02*
X145415000Y-94932500D01*
X88265000Y-75882500D02*
X88265000Y-94932500D01*
X83343750Y-120067153D02*
X80645000Y-122765903D01*
X166793750Y-81081250D02*
X166793750Y-92603750D01*
X83343750Y-117348116D02*
X83343750Y-120067153D01*
X107315000Y-113982500D02*
X126365000Y-113982500D01*
X164465000Y-113982500D02*
X145415000Y-113982500D01*
X145415000Y-94932500D02*
X145415000Y-85460000D01*
X164465000Y-94932500D02*
X164465000Y-113982500D01*
X145415000Y-85460000D02*
X152293750Y-78581250D01*
X120573686Y-113982500D02*
X126365000Y-113982500D01*
X116681250Y-130354194D02*
X116681250Y-117874936D01*
X88265000Y-94932500D02*
X88265000Y-113982500D01*
X164293750Y-78581250D02*
X166793750Y-81081250D01*
X107315000Y-75882500D02*
X126365000Y-75882500D01*
X88265000Y-113982500D02*
X107315000Y-113982500D01*
X152293750Y-78581250D02*
X164293750Y-78581250D01*
X88265000Y-113982500D02*
X86709366Y-113982500D01*
X116681250Y-117874936D02*
X120573686Y-113982500D01*
X166793750Y-92603750D02*
X164465000Y-94932500D01*
X80645000Y-122765903D02*
X80645000Y-130492500D01*
X126365000Y-75882500D02*
X126365000Y-94932500D01*
%TO.N,Net-(U1-GPIO1{slash}RX)*%
X102425000Y-119085850D02*
X102425000Y-114582500D01*
X93379567Y-128131283D02*
X102425000Y-119085850D01*
%TO.N,Net-(U1-GPIO2{slash}SCK)*%
X89665000Y-76462399D02*
X89665000Y-75302601D01*
X89665000Y-75302601D02*
X88844899Y-74482500D01*
X88665000Y-88664999D02*
X88665000Y-77462399D01*
X88844899Y-74482500D02*
X85855000Y-74482500D01*
X89128066Y-89128065D02*
X88665000Y-88664999D01*
X85855000Y-74482500D02*
X81915000Y-78422500D01*
X97348750Y-114582500D02*
X97631250Y-114582500D01*
X88665000Y-77462399D02*
X89665000Y-76462399D01*
X88589767Y-123341483D02*
X97348750Y-114582500D01*
%TO.N,Net-(U1-GPIO4{slash}MISO)*%
X100965000Y-78422500D02*
X100965000Y-83943750D01*
X88075000Y-121475000D02*
X88075000Y-119376250D01*
X87602206Y-122412500D02*
X87602206Y-121947794D01*
X88075000Y-119376250D02*
X92868750Y-114582500D01*
X87602206Y-121947794D02*
X88075000Y-121475000D01*
%TO.N,Net-(U2-GPA6)*%
X120015000Y-100965000D02*
X120015000Y-97472500D01*
X146288060Y-121415000D02*
X140465000Y-121415000D01*
X153812698Y-130968750D02*
X154578725Y-130202723D01*
X152723749Y-130968750D02*
X153812698Y-130968750D01*
X139644899Y-115122500D02*
X134172500Y-115122500D01*
X134172500Y-115122500D02*
X120015000Y-100965000D01*
X140465000Y-121415000D02*
X140465000Y-115942601D01*
X140465000Y-115942601D02*
X139644899Y-115122500D01*
X154578725Y-129705665D02*
X146288060Y-121415000D01*
X154578725Y-130202723D02*
X154578725Y-129705665D01*
%TO.N,Net-(U2-GPA7)*%
X138591566Y-131354194D02*
X132206186Y-124968814D01*
X141707965Y-130554194D02*
X140907965Y-131354194D01*
X140907965Y-131354194D02*
X138591566Y-131354194D01*
X149286027Y-130554194D02*
X141707965Y-130554194D01*
%TO.N,Net-(U1-GPIO3{slash}MOSI)*%
X85725000Y-128587500D02*
X85725000Y-130492500D01*
X90911765Y-123400735D02*
X85725000Y-128587500D01*
%TO.N,Net-(U2-GPB6)*%
X133556530Y-116522500D02*
X139065000Y-116522500D01*
X160061402Y-132924086D02*
X123208816Y-96071500D01*
X117544000Y-100509970D02*
X133556530Y-116522500D01*
X160061402Y-141395750D02*
X160061402Y-132924086D01*
X123208816Y-96071500D02*
X119434686Y-96071500D01*
X119434686Y-96071500D02*
X117544000Y-97962186D01*
X117544000Y-97962186D02*
X117544000Y-100509970D01*
%TO.N,Net-(U2-GPB7)*%
X144172750Y-134433500D02*
X135309686Y-134433500D01*
X135309686Y-134433500D02*
X120015000Y-119138814D01*
X120015000Y-119138814D02*
X120015000Y-116522500D01*
X145256250Y-133350000D02*
X144172750Y-134433500D01*
%TO.N,Net-(U2-GPB5)*%
X159812459Y-141996750D02*
X160310345Y-141996750D01*
X158743750Y-140928041D02*
X159812459Y-141996750D01*
X160310345Y-141996750D02*
X161925000Y-140382095D01*
X158743750Y-139542750D02*
X158743750Y-140928041D01*
X161925000Y-140382095D02*
X161925000Y-133350000D01*
%TO.N,Net-(U2-GPB4)*%
X129489501Y-141395751D02*
X123666250Y-135572500D01*
X123666250Y-135572500D02*
X110490000Y-135572500D01*
X156486098Y-141395751D02*
X129489501Y-141395751D01*
%TO.N,Net-(U2-GPB3)*%
X155263750Y-139632640D02*
X151203610Y-135572500D01*
X151203610Y-135572500D02*
X129540000Y-135572500D01*
%TD*%
M02*
