%TF.GenerationSoftware,KiCad,Pcbnew,9.0.2*%
%TF.CreationDate,2025-06-27T15:31:56-05:00*%
%TF.ProjectId,hackpad,6861636b-7061-4642-9e6b-696361645f70,rev?*%
%TF.SameCoordinates,Original*%
%TF.FileFunction,Drillmap*%
%TF.FilePolarity,Positive*%
%FSLAX45Y45*%
G04 Gerber Fmt 4.5, Leading zero omitted, Abs format (unit mm)*
G04 Created by KiCad (PCBNEW 9.0.2) date 2025-06-27 15:31:56*
%MOMM*%
%LPD*%
G01*
G04 APERTURE LIST*
%ADD10C,0.050000*%
%ADD11C,0.200000*%
%ADD12C,0.100000*%
%ADD13C,0.150000*%
G04 APERTURE END LIST*
D10*
X15000000Y-7750000D02*
X21200000Y-7750000D01*
X21200000Y-14050000D01*
X15000000Y-14050000D01*
X15000000Y-7750000D01*
D11*
D12*
X17293550Y-7993550D02*
X17382450Y-8082450D01*
X17382450Y-7993550D02*
X17293550Y-8082450D01*
X17293550Y-8247550D02*
X17382450Y-8336450D01*
X17382450Y-8247550D02*
X17293550Y-8336450D01*
X17293550Y-8501550D02*
X17382450Y-8590450D01*
X17382450Y-8501550D02*
X17293550Y-8590450D01*
X17293550Y-8755550D02*
X17382450Y-8844450D01*
X17382450Y-8755550D02*
X17293550Y-8844450D01*
X17293550Y-9009550D02*
X17382450Y-9098450D01*
X17382450Y-9009550D02*
X17293550Y-9098450D01*
X17293550Y-9263550D02*
X17382450Y-9352450D01*
X17382450Y-9263550D02*
X17293550Y-9352450D01*
X17293550Y-9517550D02*
X17382450Y-9606450D01*
X17382450Y-9517550D02*
X17293550Y-9606450D01*
X18817550Y-7993550D02*
X18906450Y-8082450D01*
X18906450Y-7993550D02*
X18817550Y-8082450D01*
X18817550Y-8247550D02*
X18906450Y-8336450D01*
X18906450Y-8247550D02*
X18817550Y-8336450D01*
X18817550Y-8501550D02*
X18906450Y-8590450D01*
X18906450Y-8501550D02*
X18817550Y-8590450D01*
X18817550Y-8755550D02*
X18906450Y-8844450D01*
X18906450Y-8755550D02*
X18817550Y-8844450D01*
X18817550Y-9009550D02*
X18906450Y-9098450D01*
X18906450Y-9009550D02*
X18817550Y-9098450D01*
X18817550Y-9263550D02*
X18906450Y-9352450D01*
X18906450Y-9263550D02*
X18817550Y-9352450D01*
X18817550Y-9517550D02*
X18906450Y-9606450D01*
X18906450Y-9517550D02*
X18817550Y-9606450D01*
D13*
X15889000Y-12646000D02*
G75*
G02*
X15739000Y-12646000I-75000J0D01*
G01*
X15739000Y-12646000D02*
G75*
G02*
X15889000Y-12646000I75000J0D01*
G01*
X16524000Y-12392000D02*
G75*
G02*
X16374000Y-12392000I-75000J0D01*
G01*
X16374000Y-12392000D02*
G75*
G02*
X16524000Y-12392000I75000J0D01*
G01*
X17794000Y-10741500D02*
G75*
G02*
X17644000Y-10741500I-75000J0D01*
G01*
X17644000Y-10741500D02*
G75*
G02*
X17794000Y-10741500I75000J0D01*
G01*
X17794000Y-12646000D02*
G75*
G02*
X17644000Y-12646000I-75000J0D01*
G01*
X17644000Y-12646000D02*
G75*
G02*
X17794000Y-12646000I75000J0D01*
G01*
X18429000Y-10487500D02*
G75*
G02*
X18279000Y-10487500I-75000J0D01*
G01*
X18279000Y-10487500D02*
G75*
G02*
X18429000Y-10487500I75000J0D01*
G01*
X18429000Y-12392000D02*
G75*
G02*
X18279000Y-12392000I-75000J0D01*
G01*
X18279000Y-12392000D02*
G75*
G02*
X18429000Y-12392000I75000J0D01*
G01*
X19699000Y-12646000D02*
G75*
G02*
X19549000Y-12646000I-75000J0D01*
G01*
X19549000Y-12646000D02*
G75*
G02*
X19699000Y-12646000I75000J0D01*
G01*
X20334000Y-12392000D02*
G75*
G02*
X20184000Y-12392000I-75000J0D01*
G01*
X20184000Y-12392000D02*
G75*
G02*
X20334000Y-12392000I75000J0D01*
G01*
D11*
X15258277Y-14363984D02*
X15258277Y-14163984D01*
X15258277Y-14163984D02*
X15305896Y-14163984D01*
X15305896Y-14163984D02*
X15334467Y-14173508D01*
X15334467Y-14173508D02*
X15353515Y-14192555D01*
X15353515Y-14192555D02*
X15363039Y-14211603D01*
X15363039Y-14211603D02*
X15372562Y-14249698D01*
X15372562Y-14249698D02*
X15372562Y-14278269D01*
X15372562Y-14278269D02*
X15363039Y-14316365D01*
X15363039Y-14316365D02*
X15353515Y-14335412D01*
X15353515Y-14335412D02*
X15334467Y-14354460D01*
X15334467Y-14354460D02*
X15305896Y-14363984D01*
X15305896Y-14363984D02*
X15258277Y-14363984D01*
X15458277Y-14363984D02*
X15458277Y-14230650D01*
X15458277Y-14268746D02*
X15467801Y-14249698D01*
X15467801Y-14249698D02*
X15477324Y-14240174D01*
X15477324Y-14240174D02*
X15496372Y-14230650D01*
X15496372Y-14230650D02*
X15515420Y-14230650D01*
X15582086Y-14363984D02*
X15582086Y-14230650D01*
X15582086Y-14163984D02*
X15572562Y-14173508D01*
X15572562Y-14173508D02*
X15582086Y-14183031D01*
X15582086Y-14183031D02*
X15591610Y-14173508D01*
X15591610Y-14173508D02*
X15582086Y-14163984D01*
X15582086Y-14163984D02*
X15582086Y-14183031D01*
X15705896Y-14363984D02*
X15686848Y-14354460D01*
X15686848Y-14354460D02*
X15677324Y-14335412D01*
X15677324Y-14335412D02*
X15677324Y-14163984D01*
X15810658Y-14363984D02*
X15791610Y-14354460D01*
X15791610Y-14354460D02*
X15782086Y-14335412D01*
X15782086Y-14335412D02*
X15782086Y-14163984D01*
X16039229Y-14363984D02*
X16039229Y-14163984D01*
X16039229Y-14163984D02*
X16105896Y-14306841D01*
X16105896Y-14306841D02*
X16172562Y-14163984D01*
X16172562Y-14163984D02*
X16172562Y-14363984D01*
X16353515Y-14363984D02*
X16353515Y-14259222D01*
X16353515Y-14259222D02*
X16343991Y-14240174D01*
X16343991Y-14240174D02*
X16324943Y-14230650D01*
X16324943Y-14230650D02*
X16286848Y-14230650D01*
X16286848Y-14230650D02*
X16267801Y-14240174D01*
X16353515Y-14354460D02*
X16334467Y-14363984D01*
X16334467Y-14363984D02*
X16286848Y-14363984D01*
X16286848Y-14363984D02*
X16267801Y-14354460D01*
X16267801Y-14354460D02*
X16258277Y-14335412D01*
X16258277Y-14335412D02*
X16258277Y-14316365D01*
X16258277Y-14316365D02*
X16267801Y-14297317D01*
X16267801Y-14297317D02*
X16286848Y-14287793D01*
X16286848Y-14287793D02*
X16334467Y-14287793D01*
X16334467Y-14287793D02*
X16353515Y-14278269D01*
X16448753Y-14230650D02*
X16448753Y-14430650D01*
X16448753Y-14240174D02*
X16467801Y-14230650D01*
X16467801Y-14230650D02*
X16505896Y-14230650D01*
X16505896Y-14230650D02*
X16524943Y-14240174D01*
X16524943Y-14240174D02*
X16534467Y-14249698D01*
X16534467Y-14249698D02*
X16543991Y-14268746D01*
X16543991Y-14268746D02*
X16543991Y-14325888D01*
X16543991Y-14325888D02*
X16534467Y-14344936D01*
X16534467Y-14344936D02*
X16524943Y-14354460D01*
X16524943Y-14354460D02*
X16505896Y-14363984D01*
X16505896Y-14363984D02*
X16467801Y-14363984D01*
X16467801Y-14363984D02*
X16448753Y-14354460D01*
X16629705Y-14344936D02*
X16639229Y-14354460D01*
X16639229Y-14354460D02*
X16629705Y-14363984D01*
X16629705Y-14363984D02*
X16620182Y-14354460D01*
X16620182Y-14354460D02*
X16629705Y-14344936D01*
X16629705Y-14344936D02*
X16629705Y-14363984D01*
X16629705Y-14240174D02*
X16639229Y-14249698D01*
X16639229Y-14249698D02*
X16629705Y-14259222D01*
X16629705Y-14259222D02*
X16620182Y-14249698D01*
X16620182Y-14249698D02*
X16629705Y-14240174D01*
X16629705Y-14240174D02*
X16629705Y-14259222D01*
D12*
X14908600Y-14648050D02*
X14997500Y-14736950D01*
X14997500Y-14648050D02*
X14908600Y-14736950D01*
D11*
X15296372Y-14583984D02*
X15315420Y-14583984D01*
X15315420Y-14583984D02*
X15334467Y-14593508D01*
X15334467Y-14593508D02*
X15343991Y-14603031D01*
X15343991Y-14603031D02*
X15353515Y-14622079D01*
X15353515Y-14622079D02*
X15363039Y-14660174D01*
X15363039Y-14660174D02*
X15363039Y-14707793D01*
X15363039Y-14707793D02*
X15353515Y-14745888D01*
X15353515Y-14745888D02*
X15343991Y-14764936D01*
X15343991Y-14764936D02*
X15334467Y-14774460D01*
X15334467Y-14774460D02*
X15315420Y-14783984D01*
X15315420Y-14783984D02*
X15296372Y-14783984D01*
X15296372Y-14783984D02*
X15277324Y-14774460D01*
X15277324Y-14774460D02*
X15267801Y-14764936D01*
X15267801Y-14764936D02*
X15258277Y-14745888D01*
X15258277Y-14745888D02*
X15248753Y-14707793D01*
X15248753Y-14707793D02*
X15248753Y-14660174D01*
X15248753Y-14660174D02*
X15258277Y-14622079D01*
X15258277Y-14622079D02*
X15267801Y-14603031D01*
X15267801Y-14603031D02*
X15277324Y-14593508D01*
X15277324Y-14593508D02*
X15296372Y-14583984D01*
X15448753Y-14764936D02*
X15458277Y-14774460D01*
X15458277Y-14774460D02*
X15448753Y-14783984D01*
X15448753Y-14783984D02*
X15439229Y-14774460D01*
X15439229Y-14774460D02*
X15448753Y-14764936D01*
X15448753Y-14764936D02*
X15448753Y-14783984D01*
X15572562Y-14669698D02*
X15553515Y-14660174D01*
X15553515Y-14660174D02*
X15543991Y-14650650D01*
X15543991Y-14650650D02*
X15534467Y-14631603D01*
X15534467Y-14631603D02*
X15534467Y-14622079D01*
X15534467Y-14622079D02*
X15543991Y-14603031D01*
X15543991Y-14603031D02*
X15553515Y-14593508D01*
X15553515Y-14593508D02*
X15572562Y-14583984D01*
X15572562Y-14583984D02*
X15610658Y-14583984D01*
X15610658Y-14583984D02*
X15629705Y-14593508D01*
X15629705Y-14593508D02*
X15639229Y-14603031D01*
X15639229Y-14603031D02*
X15648753Y-14622079D01*
X15648753Y-14622079D02*
X15648753Y-14631603D01*
X15648753Y-14631603D02*
X15639229Y-14650650D01*
X15639229Y-14650650D02*
X15629705Y-14660174D01*
X15629705Y-14660174D02*
X15610658Y-14669698D01*
X15610658Y-14669698D02*
X15572562Y-14669698D01*
X15572562Y-14669698D02*
X15553515Y-14679222D01*
X15553515Y-14679222D02*
X15543991Y-14688746D01*
X15543991Y-14688746D02*
X15534467Y-14707793D01*
X15534467Y-14707793D02*
X15534467Y-14745888D01*
X15534467Y-14745888D02*
X15543991Y-14764936D01*
X15543991Y-14764936D02*
X15553515Y-14774460D01*
X15553515Y-14774460D02*
X15572562Y-14783984D01*
X15572562Y-14783984D02*
X15610658Y-14783984D01*
X15610658Y-14783984D02*
X15629705Y-14774460D01*
X15629705Y-14774460D02*
X15639229Y-14764936D01*
X15639229Y-14764936D02*
X15648753Y-14745888D01*
X15648753Y-14745888D02*
X15648753Y-14707793D01*
X15648753Y-14707793D02*
X15639229Y-14688746D01*
X15639229Y-14688746D02*
X15629705Y-14679222D01*
X15629705Y-14679222D02*
X15610658Y-14669698D01*
X15763039Y-14669698D02*
X15743991Y-14660174D01*
X15743991Y-14660174D02*
X15734467Y-14650650D01*
X15734467Y-14650650D02*
X15724943Y-14631603D01*
X15724943Y-14631603D02*
X15724943Y-14622079D01*
X15724943Y-14622079D02*
X15734467Y-14603031D01*
X15734467Y-14603031D02*
X15743991Y-14593508D01*
X15743991Y-14593508D02*
X15763039Y-14583984D01*
X15763039Y-14583984D02*
X15801134Y-14583984D01*
X15801134Y-14583984D02*
X15820182Y-14593508D01*
X15820182Y-14593508D02*
X15829705Y-14603031D01*
X15829705Y-14603031D02*
X15839229Y-14622079D01*
X15839229Y-14622079D02*
X15839229Y-14631603D01*
X15839229Y-14631603D02*
X15829705Y-14650650D01*
X15829705Y-14650650D02*
X15820182Y-14660174D01*
X15820182Y-14660174D02*
X15801134Y-14669698D01*
X15801134Y-14669698D02*
X15763039Y-14669698D01*
X15763039Y-14669698D02*
X15743991Y-14679222D01*
X15743991Y-14679222D02*
X15734467Y-14688746D01*
X15734467Y-14688746D02*
X15724943Y-14707793D01*
X15724943Y-14707793D02*
X15724943Y-14745888D01*
X15724943Y-14745888D02*
X15734467Y-14764936D01*
X15734467Y-14764936D02*
X15743991Y-14774460D01*
X15743991Y-14774460D02*
X15763039Y-14783984D01*
X15763039Y-14783984D02*
X15801134Y-14783984D01*
X15801134Y-14783984D02*
X15820182Y-14774460D01*
X15820182Y-14774460D02*
X15829705Y-14764936D01*
X15829705Y-14764936D02*
X15839229Y-14745888D01*
X15839229Y-14745888D02*
X15839229Y-14707793D01*
X15839229Y-14707793D02*
X15829705Y-14688746D01*
X15829705Y-14688746D02*
X15820182Y-14679222D01*
X15820182Y-14679222D02*
X15801134Y-14669698D01*
X15934467Y-14783984D02*
X15972562Y-14783984D01*
X15972562Y-14783984D02*
X15991610Y-14774460D01*
X15991610Y-14774460D02*
X16001134Y-14764936D01*
X16001134Y-14764936D02*
X16020182Y-14736365D01*
X16020182Y-14736365D02*
X16029705Y-14698269D01*
X16029705Y-14698269D02*
X16029705Y-14622079D01*
X16029705Y-14622079D02*
X16020182Y-14603031D01*
X16020182Y-14603031D02*
X16010658Y-14593508D01*
X16010658Y-14593508D02*
X15991610Y-14583984D01*
X15991610Y-14583984D02*
X15953515Y-14583984D01*
X15953515Y-14583984D02*
X15934467Y-14593508D01*
X15934467Y-14593508D02*
X15924943Y-14603031D01*
X15924943Y-14603031D02*
X15915420Y-14622079D01*
X15915420Y-14622079D02*
X15915420Y-14669698D01*
X15915420Y-14669698D02*
X15924943Y-14688746D01*
X15924943Y-14688746D02*
X15934467Y-14698269D01*
X15934467Y-14698269D02*
X15953515Y-14707793D01*
X15953515Y-14707793D02*
X15991610Y-14707793D01*
X15991610Y-14707793D02*
X16010658Y-14698269D01*
X16010658Y-14698269D02*
X16020182Y-14688746D01*
X16020182Y-14688746D02*
X16029705Y-14669698D01*
X16115420Y-14783984D02*
X16115420Y-14650650D01*
X16115420Y-14669698D02*
X16124943Y-14660174D01*
X16124943Y-14660174D02*
X16143991Y-14650650D01*
X16143991Y-14650650D02*
X16172563Y-14650650D01*
X16172563Y-14650650D02*
X16191610Y-14660174D01*
X16191610Y-14660174D02*
X16201134Y-14679222D01*
X16201134Y-14679222D02*
X16201134Y-14783984D01*
X16201134Y-14679222D02*
X16210658Y-14660174D01*
X16210658Y-14660174D02*
X16229705Y-14650650D01*
X16229705Y-14650650D02*
X16258277Y-14650650D01*
X16258277Y-14650650D02*
X16277324Y-14660174D01*
X16277324Y-14660174D02*
X16286848Y-14679222D01*
X16286848Y-14679222D02*
X16286848Y-14783984D01*
X16382086Y-14783984D02*
X16382086Y-14650650D01*
X16382086Y-14669698D02*
X16391610Y-14660174D01*
X16391610Y-14660174D02*
X16410658Y-14650650D01*
X16410658Y-14650650D02*
X16439229Y-14650650D01*
X16439229Y-14650650D02*
X16458277Y-14660174D01*
X16458277Y-14660174D02*
X16467801Y-14679222D01*
X16467801Y-14679222D02*
X16467801Y-14783984D01*
X16467801Y-14679222D02*
X16477324Y-14660174D01*
X16477324Y-14660174D02*
X16496372Y-14650650D01*
X16496372Y-14650650D02*
X16524943Y-14650650D01*
X16524943Y-14650650D02*
X16543991Y-14660174D01*
X16543991Y-14660174D02*
X16553515Y-14679222D01*
X16553515Y-14679222D02*
X16553515Y-14783984D01*
X16943991Y-14574460D02*
X16772563Y-14831603D01*
X17201134Y-14583984D02*
X17220182Y-14583984D01*
X17220182Y-14583984D02*
X17239229Y-14593508D01*
X17239229Y-14593508D02*
X17248753Y-14603031D01*
X17248753Y-14603031D02*
X17258277Y-14622079D01*
X17258277Y-14622079D02*
X17267801Y-14660174D01*
X17267801Y-14660174D02*
X17267801Y-14707793D01*
X17267801Y-14707793D02*
X17258277Y-14745888D01*
X17258277Y-14745888D02*
X17248753Y-14764936D01*
X17248753Y-14764936D02*
X17239229Y-14774460D01*
X17239229Y-14774460D02*
X17220182Y-14783984D01*
X17220182Y-14783984D02*
X17201134Y-14783984D01*
X17201134Y-14783984D02*
X17182087Y-14774460D01*
X17182087Y-14774460D02*
X17172563Y-14764936D01*
X17172563Y-14764936D02*
X17163039Y-14745888D01*
X17163039Y-14745888D02*
X17153515Y-14707793D01*
X17153515Y-14707793D02*
X17153515Y-14660174D01*
X17153515Y-14660174D02*
X17163039Y-14622079D01*
X17163039Y-14622079D02*
X17172563Y-14603031D01*
X17172563Y-14603031D02*
X17182087Y-14593508D01*
X17182087Y-14593508D02*
X17201134Y-14583984D01*
X17353515Y-14764936D02*
X17363039Y-14774460D01*
X17363039Y-14774460D02*
X17353515Y-14783984D01*
X17353515Y-14783984D02*
X17343991Y-14774460D01*
X17343991Y-14774460D02*
X17353515Y-14764936D01*
X17353515Y-14764936D02*
X17353515Y-14783984D01*
X17486848Y-14583984D02*
X17505896Y-14583984D01*
X17505896Y-14583984D02*
X17524944Y-14593508D01*
X17524944Y-14593508D02*
X17534468Y-14603031D01*
X17534468Y-14603031D02*
X17543991Y-14622079D01*
X17543991Y-14622079D02*
X17553515Y-14660174D01*
X17553515Y-14660174D02*
X17553515Y-14707793D01*
X17553515Y-14707793D02*
X17543991Y-14745888D01*
X17543991Y-14745888D02*
X17534468Y-14764936D01*
X17534468Y-14764936D02*
X17524944Y-14774460D01*
X17524944Y-14774460D02*
X17505896Y-14783984D01*
X17505896Y-14783984D02*
X17486848Y-14783984D01*
X17486848Y-14783984D02*
X17467801Y-14774460D01*
X17467801Y-14774460D02*
X17458277Y-14764936D01*
X17458277Y-14764936D02*
X17448753Y-14745888D01*
X17448753Y-14745888D02*
X17439229Y-14707793D01*
X17439229Y-14707793D02*
X17439229Y-14660174D01*
X17439229Y-14660174D02*
X17448753Y-14622079D01*
X17448753Y-14622079D02*
X17458277Y-14603031D01*
X17458277Y-14603031D02*
X17467801Y-14593508D01*
X17467801Y-14593508D02*
X17486848Y-14583984D01*
X17620182Y-14583984D02*
X17743991Y-14583984D01*
X17743991Y-14583984D02*
X17677325Y-14660174D01*
X17677325Y-14660174D02*
X17705896Y-14660174D01*
X17705896Y-14660174D02*
X17724944Y-14669698D01*
X17724944Y-14669698D02*
X17734468Y-14679222D01*
X17734468Y-14679222D02*
X17743991Y-14698269D01*
X17743991Y-14698269D02*
X17743991Y-14745888D01*
X17743991Y-14745888D02*
X17734468Y-14764936D01*
X17734468Y-14764936D02*
X17724944Y-14774460D01*
X17724944Y-14774460D02*
X17705896Y-14783984D01*
X17705896Y-14783984D02*
X17648753Y-14783984D01*
X17648753Y-14783984D02*
X17629706Y-14774460D01*
X17629706Y-14774460D02*
X17620182Y-14764936D01*
X17924944Y-14583984D02*
X17829706Y-14583984D01*
X17829706Y-14583984D02*
X17820182Y-14679222D01*
X17820182Y-14679222D02*
X17829706Y-14669698D01*
X17829706Y-14669698D02*
X17848753Y-14660174D01*
X17848753Y-14660174D02*
X17896372Y-14660174D01*
X17896372Y-14660174D02*
X17915420Y-14669698D01*
X17915420Y-14669698D02*
X17924944Y-14679222D01*
X17924944Y-14679222D02*
X17934468Y-14698269D01*
X17934468Y-14698269D02*
X17934468Y-14745888D01*
X17934468Y-14745888D02*
X17924944Y-14764936D01*
X17924944Y-14764936D02*
X17915420Y-14774460D01*
X17915420Y-14774460D02*
X17896372Y-14783984D01*
X17896372Y-14783984D02*
X17848753Y-14783984D01*
X17848753Y-14783984D02*
X17829706Y-14774460D01*
X17829706Y-14774460D02*
X17820182Y-14764936D01*
X18058277Y-14583984D02*
X18077325Y-14583984D01*
X18077325Y-14583984D02*
X18096372Y-14593508D01*
X18096372Y-14593508D02*
X18105896Y-14603031D01*
X18105896Y-14603031D02*
X18115420Y-14622079D01*
X18115420Y-14622079D02*
X18124944Y-14660174D01*
X18124944Y-14660174D02*
X18124944Y-14707793D01*
X18124944Y-14707793D02*
X18115420Y-14745888D01*
X18115420Y-14745888D02*
X18105896Y-14764936D01*
X18105896Y-14764936D02*
X18096372Y-14774460D01*
X18096372Y-14774460D02*
X18077325Y-14783984D01*
X18077325Y-14783984D02*
X18058277Y-14783984D01*
X18058277Y-14783984D02*
X18039229Y-14774460D01*
X18039229Y-14774460D02*
X18029706Y-14764936D01*
X18029706Y-14764936D02*
X18020182Y-14745888D01*
X18020182Y-14745888D02*
X18010658Y-14707793D01*
X18010658Y-14707793D02*
X18010658Y-14660174D01*
X18010658Y-14660174D02*
X18020182Y-14622079D01*
X18020182Y-14622079D02*
X18029706Y-14603031D01*
X18029706Y-14603031D02*
X18039229Y-14593508D01*
X18039229Y-14593508D02*
X18058277Y-14583984D01*
X18201134Y-14583984D02*
X18201134Y-14622079D01*
X18277325Y-14583984D02*
X18277325Y-14622079D01*
X18572563Y-14860174D02*
X18563039Y-14850650D01*
X18563039Y-14850650D02*
X18543991Y-14822079D01*
X18543991Y-14822079D02*
X18534468Y-14803031D01*
X18534468Y-14803031D02*
X18524944Y-14774460D01*
X18524944Y-14774460D02*
X18515420Y-14726841D01*
X18515420Y-14726841D02*
X18515420Y-14688746D01*
X18515420Y-14688746D02*
X18524944Y-14641127D01*
X18524944Y-14641127D02*
X18534468Y-14612555D01*
X18534468Y-14612555D02*
X18543991Y-14593508D01*
X18543991Y-14593508D02*
X18563039Y-14564936D01*
X18563039Y-14564936D02*
X18572563Y-14555412D01*
X18753515Y-14783984D02*
X18639230Y-14783984D01*
X18696372Y-14783984D02*
X18696372Y-14583984D01*
X18696372Y-14583984D02*
X18677325Y-14612555D01*
X18677325Y-14612555D02*
X18658277Y-14631603D01*
X18658277Y-14631603D02*
X18639230Y-14641127D01*
X18924944Y-14650650D02*
X18924944Y-14783984D01*
X18877325Y-14574460D02*
X18829706Y-14717317D01*
X18829706Y-14717317D02*
X18953515Y-14717317D01*
X19182087Y-14783984D02*
X19182087Y-14583984D01*
X19267801Y-14783984D02*
X19267801Y-14679222D01*
X19267801Y-14679222D02*
X19258277Y-14660174D01*
X19258277Y-14660174D02*
X19239230Y-14650650D01*
X19239230Y-14650650D02*
X19210658Y-14650650D01*
X19210658Y-14650650D02*
X19191611Y-14660174D01*
X19191611Y-14660174D02*
X19182087Y-14669698D01*
X19391611Y-14783984D02*
X19372563Y-14774460D01*
X19372563Y-14774460D02*
X19363039Y-14764936D01*
X19363039Y-14764936D02*
X19353515Y-14745888D01*
X19353515Y-14745888D02*
X19353515Y-14688746D01*
X19353515Y-14688746D02*
X19363039Y-14669698D01*
X19363039Y-14669698D02*
X19372563Y-14660174D01*
X19372563Y-14660174D02*
X19391611Y-14650650D01*
X19391611Y-14650650D02*
X19420182Y-14650650D01*
X19420182Y-14650650D02*
X19439230Y-14660174D01*
X19439230Y-14660174D02*
X19448753Y-14669698D01*
X19448753Y-14669698D02*
X19458277Y-14688746D01*
X19458277Y-14688746D02*
X19458277Y-14745888D01*
X19458277Y-14745888D02*
X19448753Y-14764936D01*
X19448753Y-14764936D02*
X19439230Y-14774460D01*
X19439230Y-14774460D02*
X19420182Y-14783984D01*
X19420182Y-14783984D02*
X19391611Y-14783984D01*
X19572563Y-14783984D02*
X19553515Y-14774460D01*
X19553515Y-14774460D02*
X19543992Y-14755412D01*
X19543992Y-14755412D02*
X19543992Y-14583984D01*
X19724944Y-14774460D02*
X19705896Y-14783984D01*
X19705896Y-14783984D02*
X19667801Y-14783984D01*
X19667801Y-14783984D02*
X19648753Y-14774460D01*
X19648753Y-14774460D02*
X19639230Y-14755412D01*
X19639230Y-14755412D02*
X19639230Y-14679222D01*
X19639230Y-14679222D02*
X19648753Y-14660174D01*
X19648753Y-14660174D02*
X19667801Y-14650650D01*
X19667801Y-14650650D02*
X19705896Y-14650650D01*
X19705896Y-14650650D02*
X19724944Y-14660174D01*
X19724944Y-14660174D02*
X19734468Y-14679222D01*
X19734468Y-14679222D02*
X19734468Y-14698269D01*
X19734468Y-14698269D02*
X19639230Y-14717317D01*
X19810658Y-14774460D02*
X19829706Y-14783984D01*
X19829706Y-14783984D02*
X19867801Y-14783984D01*
X19867801Y-14783984D02*
X19886849Y-14774460D01*
X19886849Y-14774460D02*
X19896373Y-14755412D01*
X19896373Y-14755412D02*
X19896373Y-14745888D01*
X19896373Y-14745888D02*
X19886849Y-14726841D01*
X19886849Y-14726841D02*
X19867801Y-14717317D01*
X19867801Y-14717317D02*
X19839230Y-14717317D01*
X19839230Y-14717317D02*
X19820182Y-14707793D01*
X19820182Y-14707793D02*
X19810658Y-14688746D01*
X19810658Y-14688746D02*
X19810658Y-14679222D01*
X19810658Y-14679222D02*
X19820182Y-14660174D01*
X19820182Y-14660174D02*
X19839230Y-14650650D01*
X19839230Y-14650650D02*
X19867801Y-14650650D01*
X19867801Y-14650650D02*
X19886849Y-14660174D01*
X19963039Y-14860174D02*
X19972563Y-14850650D01*
X19972563Y-14850650D02*
X19991611Y-14822079D01*
X19991611Y-14822079D02*
X20001134Y-14803031D01*
X20001134Y-14803031D02*
X20010658Y-14774460D01*
X20010658Y-14774460D02*
X20020182Y-14726841D01*
X20020182Y-14726841D02*
X20020182Y-14688746D01*
X20020182Y-14688746D02*
X20010658Y-14641127D01*
X20010658Y-14641127D02*
X20001134Y-14612555D01*
X20001134Y-14612555D02*
X19991611Y-14593508D01*
X19991611Y-14593508D02*
X19972563Y-14564936D01*
X19972563Y-14564936D02*
X19963039Y-14555412D01*
D13*
X14997500Y-14956500D02*
G75*
G02*
X14847500Y-14956500I-75000J0D01*
G01*
X14847500Y-14956500D02*
G75*
G02*
X14997500Y-14956500I75000J0D01*
G01*
D11*
X15363039Y-15047984D02*
X15248753Y-15047984D01*
X15305896Y-15047984D02*
X15305896Y-14847984D01*
X15305896Y-14847984D02*
X15286848Y-14876555D01*
X15286848Y-14876555D02*
X15267801Y-14895603D01*
X15267801Y-14895603D02*
X15248753Y-14905127D01*
X15448753Y-15028936D02*
X15458277Y-15038460D01*
X15458277Y-15038460D02*
X15448753Y-15047984D01*
X15448753Y-15047984D02*
X15439229Y-15038460D01*
X15439229Y-15038460D02*
X15448753Y-15028936D01*
X15448753Y-15028936D02*
X15448753Y-15047984D01*
X15639229Y-14847984D02*
X15543991Y-14847984D01*
X15543991Y-14847984D02*
X15534467Y-14943222D01*
X15534467Y-14943222D02*
X15543991Y-14933698D01*
X15543991Y-14933698D02*
X15563039Y-14924174D01*
X15563039Y-14924174D02*
X15610658Y-14924174D01*
X15610658Y-14924174D02*
X15629705Y-14933698D01*
X15629705Y-14933698D02*
X15639229Y-14943222D01*
X15639229Y-14943222D02*
X15648753Y-14962269D01*
X15648753Y-14962269D02*
X15648753Y-15009888D01*
X15648753Y-15009888D02*
X15639229Y-15028936D01*
X15639229Y-15028936D02*
X15629705Y-15038460D01*
X15629705Y-15038460D02*
X15610658Y-15047984D01*
X15610658Y-15047984D02*
X15563039Y-15047984D01*
X15563039Y-15047984D02*
X15543991Y-15038460D01*
X15543991Y-15038460D02*
X15534467Y-15028936D01*
X15772562Y-14847984D02*
X15791610Y-14847984D01*
X15791610Y-14847984D02*
X15810658Y-14857508D01*
X15810658Y-14857508D02*
X15820182Y-14867031D01*
X15820182Y-14867031D02*
X15829705Y-14886079D01*
X15829705Y-14886079D02*
X15839229Y-14924174D01*
X15839229Y-14924174D02*
X15839229Y-14971793D01*
X15839229Y-14971793D02*
X15829705Y-15009888D01*
X15829705Y-15009888D02*
X15820182Y-15028936D01*
X15820182Y-15028936D02*
X15810658Y-15038460D01*
X15810658Y-15038460D02*
X15791610Y-15047984D01*
X15791610Y-15047984D02*
X15772562Y-15047984D01*
X15772562Y-15047984D02*
X15753515Y-15038460D01*
X15753515Y-15038460D02*
X15743991Y-15028936D01*
X15743991Y-15028936D02*
X15734467Y-15009888D01*
X15734467Y-15009888D02*
X15724943Y-14971793D01*
X15724943Y-14971793D02*
X15724943Y-14924174D01*
X15724943Y-14924174D02*
X15734467Y-14886079D01*
X15734467Y-14886079D02*
X15743991Y-14867031D01*
X15743991Y-14867031D02*
X15753515Y-14857508D01*
X15753515Y-14857508D02*
X15772562Y-14847984D01*
X15963039Y-14847984D02*
X15982086Y-14847984D01*
X15982086Y-14847984D02*
X16001134Y-14857508D01*
X16001134Y-14857508D02*
X16010658Y-14867031D01*
X16010658Y-14867031D02*
X16020182Y-14886079D01*
X16020182Y-14886079D02*
X16029705Y-14924174D01*
X16029705Y-14924174D02*
X16029705Y-14971793D01*
X16029705Y-14971793D02*
X16020182Y-15009888D01*
X16020182Y-15009888D02*
X16010658Y-15028936D01*
X16010658Y-15028936D02*
X16001134Y-15038460D01*
X16001134Y-15038460D02*
X15982086Y-15047984D01*
X15982086Y-15047984D02*
X15963039Y-15047984D01*
X15963039Y-15047984D02*
X15943991Y-15038460D01*
X15943991Y-15038460D02*
X15934467Y-15028936D01*
X15934467Y-15028936D02*
X15924943Y-15009888D01*
X15924943Y-15009888D02*
X15915420Y-14971793D01*
X15915420Y-14971793D02*
X15915420Y-14924174D01*
X15915420Y-14924174D02*
X15924943Y-14886079D01*
X15924943Y-14886079D02*
X15934467Y-14867031D01*
X15934467Y-14867031D02*
X15943991Y-14857508D01*
X15943991Y-14857508D02*
X15963039Y-14847984D01*
X16115420Y-15047984D02*
X16115420Y-14914650D01*
X16115420Y-14933698D02*
X16124943Y-14924174D01*
X16124943Y-14924174D02*
X16143991Y-14914650D01*
X16143991Y-14914650D02*
X16172563Y-14914650D01*
X16172563Y-14914650D02*
X16191610Y-14924174D01*
X16191610Y-14924174D02*
X16201134Y-14943222D01*
X16201134Y-14943222D02*
X16201134Y-15047984D01*
X16201134Y-14943222D02*
X16210658Y-14924174D01*
X16210658Y-14924174D02*
X16229705Y-14914650D01*
X16229705Y-14914650D02*
X16258277Y-14914650D01*
X16258277Y-14914650D02*
X16277324Y-14924174D01*
X16277324Y-14924174D02*
X16286848Y-14943222D01*
X16286848Y-14943222D02*
X16286848Y-15047984D01*
X16382086Y-15047984D02*
X16382086Y-14914650D01*
X16382086Y-14933698D02*
X16391610Y-14924174D01*
X16391610Y-14924174D02*
X16410658Y-14914650D01*
X16410658Y-14914650D02*
X16439229Y-14914650D01*
X16439229Y-14914650D02*
X16458277Y-14924174D01*
X16458277Y-14924174D02*
X16467801Y-14943222D01*
X16467801Y-14943222D02*
X16467801Y-15047984D01*
X16467801Y-14943222D02*
X16477324Y-14924174D01*
X16477324Y-14924174D02*
X16496372Y-14914650D01*
X16496372Y-14914650D02*
X16524943Y-14914650D01*
X16524943Y-14914650D02*
X16543991Y-14924174D01*
X16543991Y-14924174D02*
X16553515Y-14943222D01*
X16553515Y-14943222D02*
X16553515Y-15047984D01*
X16943991Y-14838460D02*
X16772563Y-15095603D01*
X17201134Y-14847984D02*
X17220182Y-14847984D01*
X17220182Y-14847984D02*
X17239229Y-14857508D01*
X17239229Y-14857508D02*
X17248753Y-14867031D01*
X17248753Y-14867031D02*
X17258277Y-14886079D01*
X17258277Y-14886079D02*
X17267801Y-14924174D01*
X17267801Y-14924174D02*
X17267801Y-14971793D01*
X17267801Y-14971793D02*
X17258277Y-15009888D01*
X17258277Y-15009888D02*
X17248753Y-15028936D01*
X17248753Y-15028936D02*
X17239229Y-15038460D01*
X17239229Y-15038460D02*
X17220182Y-15047984D01*
X17220182Y-15047984D02*
X17201134Y-15047984D01*
X17201134Y-15047984D02*
X17182087Y-15038460D01*
X17182087Y-15038460D02*
X17172563Y-15028936D01*
X17172563Y-15028936D02*
X17163039Y-15009888D01*
X17163039Y-15009888D02*
X17153515Y-14971793D01*
X17153515Y-14971793D02*
X17153515Y-14924174D01*
X17153515Y-14924174D02*
X17163039Y-14886079D01*
X17163039Y-14886079D02*
X17172563Y-14867031D01*
X17172563Y-14867031D02*
X17182087Y-14857508D01*
X17182087Y-14857508D02*
X17201134Y-14847984D01*
X17353515Y-15028936D02*
X17363039Y-15038460D01*
X17363039Y-15038460D02*
X17353515Y-15047984D01*
X17353515Y-15047984D02*
X17343991Y-15038460D01*
X17343991Y-15038460D02*
X17353515Y-15028936D01*
X17353515Y-15028936D02*
X17353515Y-15047984D01*
X17486848Y-14847984D02*
X17505896Y-14847984D01*
X17505896Y-14847984D02*
X17524944Y-14857508D01*
X17524944Y-14857508D02*
X17534468Y-14867031D01*
X17534468Y-14867031D02*
X17543991Y-14886079D01*
X17543991Y-14886079D02*
X17553515Y-14924174D01*
X17553515Y-14924174D02*
X17553515Y-14971793D01*
X17553515Y-14971793D02*
X17543991Y-15009888D01*
X17543991Y-15009888D02*
X17534468Y-15028936D01*
X17534468Y-15028936D02*
X17524944Y-15038460D01*
X17524944Y-15038460D02*
X17505896Y-15047984D01*
X17505896Y-15047984D02*
X17486848Y-15047984D01*
X17486848Y-15047984D02*
X17467801Y-15038460D01*
X17467801Y-15038460D02*
X17458277Y-15028936D01*
X17458277Y-15028936D02*
X17448753Y-15009888D01*
X17448753Y-15009888D02*
X17439229Y-14971793D01*
X17439229Y-14971793D02*
X17439229Y-14924174D01*
X17439229Y-14924174D02*
X17448753Y-14886079D01*
X17448753Y-14886079D02*
X17458277Y-14867031D01*
X17458277Y-14867031D02*
X17467801Y-14857508D01*
X17467801Y-14857508D02*
X17486848Y-14847984D01*
X17734468Y-14847984D02*
X17639229Y-14847984D01*
X17639229Y-14847984D02*
X17629706Y-14943222D01*
X17629706Y-14943222D02*
X17639229Y-14933698D01*
X17639229Y-14933698D02*
X17658277Y-14924174D01*
X17658277Y-14924174D02*
X17705896Y-14924174D01*
X17705896Y-14924174D02*
X17724944Y-14933698D01*
X17724944Y-14933698D02*
X17734468Y-14943222D01*
X17734468Y-14943222D02*
X17743991Y-14962269D01*
X17743991Y-14962269D02*
X17743991Y-15009888D01*
X17743991Y-15009888D02*
X17734468Y-15028936D01*
X17734468Y-15028936D02*
X17724944Y-15038460D01*
X17724944Y-15038460D02*
X17705896Y-15047984D01*
X17705896Y-15047984D02*
X17658277Y-15047984D01*
X17658277Y-15047984D02*
X17639229Y-15038460D01*
X17639229Y-15038460D02*
X17629706Y-15028936D01*
X17839229Y-15047984D02*
X17877325Y-15047984D01*
X17877325Y-15047984D02*
X17896372Y-15038460D01*
X17896372Y-15038460D02*
X17905896Y-15028936D01*
X17905896Y-15028936D02*
X17924944Y-15000365D01*
X17924944Y-15000365D02*
X17934468Y-14962269D01*
X17934468Y-14962269D02*
X17934468Y-14886079D01*
X17934468Y-14886079D02*
X17924944Y-14867031D01*
X17924944Y-14867031D02*
X17915420Y-14857508D01*
X17915420Y-14857508D02*
X17896372Y-14847984D01*
X17896372Y-14847984D02*
X17858277Y-14847984D01*
X17858277Y-14847984D02*
X17839229Y-14857508D01*
X17839229Y-14857508D02*
X17829706Y-14867031D01*
X17829706Y-14867031D02*
X17820182Y-14886079D01*
X17820182Y-14886079D02*
X17820182Y-14933698D01*
X17820182Y-14933698D02*
X17829706Y-14952746D01*
X17829706Y-14952746D02*
X17839229Y-14962269D01*
X17839229Y-14962269D02*
X17858277Y-14971793D01*
X17858277Y-14971793D02*
X17896372Y-14971793D01*
X17896372Y-14971793D02*
X17915420Y-14962269D01*
X17915420Y-14962269D02*
X17924944Y-14952746D01*
X17924944Y-14952746D02*
X17934468Y-14933698D01*
X18124944Y-15047984D02*
X18010658Y-15047984D01*
X18067801Y-15047984D02*
X18067801Y-14847984D01*
X18067801Y-14847984D02*
X18048753Y-14876555D01*
X18048753Y-14876555D02*
X18029706Y-14895603D01*
X18029706Y-14895603D02*
X18010658Y-14905127D01*
X18201134Y-14847984D02*
X18201134Y-14886079D01*
X18277325Y-14847984D02*
X18277325Y-14886079D01*
X18572563Y-15124174D02*
X18563039Y-15114650D01*
X18563039Y-15114650D02*
X18543991Y-15086079D01*
X18543991Y-15086079D02*
X18534468Y-15067031D01*
X18534468Y-15067031D02*
X18524944Y-15038460D01*
X18524944Y-15038460D02*
X18515420Y-14990841D01*
X18515420Y-14990841D02*
X18515420Y-14952746D01*
X18515420Y-14952746D02*
X18524944Y-14905127D01*
X18524944Y-14905127D02*
X18534468Y-14876555D01*
X18534468Y-14876555D02*
X18543991Y-14857508D01*
X18543991Y-14857508D02*
X18563039Y-14828936D01*
X18563039Y-14828936D02*
X18572563Y-14819412D01*
X18677325Y-14933698D02*
X18658277Y-14924174D01*
X18658277Y-14924174D02*
X18648753Y-14914650D01*
X18648753Y-14914650D02*
X18639230Y-14895603D01*
X18639230Y-14895603D02*
X18639230Y-14886079D01*
X18639230Y-14886079D02*
X18648753Y-14867031D01*
X18648753Y-14867031D02*
X18658277Y-14857508D01*
X18658277Y-14857508D02*
X18677325Y-14847984D01*
X18677325Y-14847984D02*
X18715420Y-14847984D01*
X18715420Y-14847984D02*
X18734468Y-14857508D01*
X18734468Y-14857508D02*
X18743991Y-14867031D01*
X18743991Y-14867031D02*
X18753515Y-14886079D01*
X18753515Y-14886079D02*
X18753515Y-14895603D01*
X18753515Y-14895603D02*
X18743991Y-14914650D01*
X18743991Y-14914650D02*
X18734468Y-14924174D01*
X18734468Y-14924174D02*
X18715420Y-14933698D01*
X18715420Y-14933698D02*
X18677325Y-14933698D01*
X18677325Y-14933698D02*
X18658277Y-14943222D01*
X18658277Y-14943222D02*
X18648753Y-14952746D01*
X18648753Y-14952746D02*
X18639230Y-14971793D01*
X18639230Y-14971793D02*
X18639230Y-15009888D01*
X18639230Y-15009888D02*
X18648753Y-15028936D01*
X18648753Y-15028936D02*
X18658277Y-15038460D01*
X18658277Y-15038460D02*
X18677325Y-15047984D01*
X18677325Y-15047984D02*
X18715420Y-15047984D01*
X18715420Y-15047984D02*
X18734468Y-15038460D01*
X18734468Y-15038460D02*
X18743991Y-15028936D01*
X18743991Y-15028936D02*
X18753515Y-15009888D01*
X18753515Y-15009888D02*
X18753515Y-14971793D01*
X18753515Y-14971793D02*
X18743991Y-14952746D01*
X18743991Y-14952746D02*
X18734468Y-14943222D01*
X18734468Y-14943222D02*
X18715420Y-14933698D01*
X18991611Y-15047984D02*
X18991611Y-14847984D01*
X19077325Y-15047984D02*
X19077325Y-14943222D01*
X19077325Y-14943222D02*
X19067801Y-14924174D01*
X19067801Y-14924174D02*
X19048753Y-14914650D01*
X19048753Y-14914650D02*
X19020182Y-14914650D01*
X19020182Y-14914650D02*
X19001134Y-14924174D01*
X19001134Y-14924174D02*
X18991611Y-14933698D01*
X19201134Y-15047984D02*
X19182087Y-15038460D01*
X19182087Y-15038460D02*
X19172563Y-15028936D01*
X19172563Y-15028936D02*
X19163039Y-15009888D01*
X19163039Y-15009888D02*
X19163039Y-14952746D01*
X19163039Y-14952746D02*
X19172563Y-14933698D01*
X19172563Y-14933698D02*
X19182087Y-14924174D01*
X19182087Y-14924174D02*
X19201134Y-14914650D01*
X19201134Y-14914650D02*
X19229706Y-14914650D01*
X19229706Y-14914650D02*
X19248753Y-14924174D01*
X19248753Y-14924174D02*
X19258277Y-14933698D01*
X19258277Y-14933698D02*
X19267801Y-14952746D01*
X19267801Y-14952746D02*
X19267801Y-15009888D01*
X19267801Y-15009888D02*
X19258277Y-15028936D01*
X19258277Y-15028936D02*
X19248753Y-15038460D01*
X19248753Y-15038460D02*
X19229706Y-15047984D01*
X19229706Y-15047984D02*
X19201134Y-15047984D01*
X19382087Y-15047984D02*
X19363039Y-15038460D01*
X19363039Y-15038460D02*
X19353515Y-15019412D01*
X19353515Y-15019412D02*
X19353515Y-14847984D01*
X19534468Y-15038460D02*
X19515420Y-15047984D01*
X19515420Y-15047984D02*
X19477325Y-15047984D01*
X19477325Y-15047984D02*
X19458277Y-15038460D01*
X19458277Y-15038460D02*
X19448753Y-15019412D01*
X19448753Y-15019412D02*
X19448753Y-14943222D01*
X19448753Y-14943222D02*
X19458277Y-14924174D01*
X19458277Y-14924174D02*
X19477325Y-14914650D01*
X19477325Y-14914650D02*
X19515420Y-14914650D01*
X19515420Y-14914650D02*
X19534468Y-14924174D01*
X19534468Y-14924174D02*
X19543992Y-14943222D01*
X19543992Y-14943222D02*
X19543992Y-14962269D01*
X19543992Y-14962269D02*
X19448753Y-14981317D01*
X19620182Y-15038460D02*
X19639230Y-15047984D01*
X19639230Y-15047984D02*
X19677325Y-15047984D01*
X19677325Y-15047984D02*
X19696373Y-15038460D01*
X19696373Y-15038460D02*
X19705896Y-15019412D01*
X19705896Y-15019412D02*
X19705896Y-15009888D01*
X19705896Y-15009888D02*
X19696373Y-14990841D01*
X19696373Y-14990841D02*
X19677325Y-14981317D01*
X19677325Y-14981317D02*
X19648753Y-14981317D01*
X19648753Y-14981317D02*
X19629706Y-14971793D01*
X19629706Y-14971793D02*
X19620182Y-14952746D01*
X19620182Y-14952746D02*
X19620182Y-14943222D01*
X19620182Y-14943222D02*
X19629706Y-14924174D01*
X19629706Y-14924174D02*
X19648753Y-14914650D01*
X19648753Y-14914650D02*
X19677325Y-14914650D01*
X19677325Y-14914650D02*
X19696373Y-14924174D01*
X19772563Y-15124174D02*
X19782087Y-15114650D01*
X19782087Y-15114650D02*
X19801134Y-15086079D01*
X19801134Y-15086079D02*
X19810658Y-15067031D01*
X19810658Y-15067031D02*
X19820182Y-15038460D01*
X19820182Y-15038460D02*
X19829706Y-14990841D01*
X19829706Y-14990841D02*
X19829706Y-14952746D01*
X19829706Y-14952746D02*
X19820182Y-14905127D01*
X19820182Y-14905127D02*
X19810658Y-14876555D01*
X19810658Y-14876555D02*
X19801134Y-14857508D01*
X19801134Y-14857508D02*
X19782087Y-14828936D01*
X19782087Y-14828936D02*
X19772563Y-14819412D01*
M02*
