M48
; DRILL file {KiCad 9.0.2} date 2025-06-27T15:31:56-0500
; FORMAT={-:-/ absolute / metric / decimal}
; #@! TF.CreationDate,2025-06-27T15:31:56-05:00
; #@! TF.GenerationSoftware,Kicad,Pcbnew,9.0.2
; #@! TF.FileFunction,Plated,1,2,PTH
FMAT,2
METRIC
; #@! TA.AperFunction,Plated,PTH,ComponentDrill
T1C0.889
; #@! TA.AperFunction,Plated,PTH,ComponentDrill
T2C1.500
%
G90
G05
T1
X173.38Y-80.38
X173.38Y-82.92
X173.38Y-85.46
X173.38Y-88.0
X173.38Y-90.54
X173.38Y-93.08
X173.38Y-95.62
X188.62Y-80.38
X188.62Y-82.92
X188.62Y-85.46
X188.62Y-88.0
X188.62Y-90.54
X188.62Y-93.08
X188.62Y-95.62
T2
X158.14Y-126.46
X164.49Y-123.92
X177.19Y-107.415
X177.19Y-126.46
X183.54Y-104.875
X183.54Y-123.92
X196.24Y-126.46
X202.59Y-123.92
M30
