M48
; DRILL file {KiCad 9.0.2} date 2025-06-28T17:49:50-0500
; FORMAT={-:-/ absolute / metric / decimal}
; #@! TF.CreationDate,2025-06-28T17:49:50-05:00
; #@! TF.GenerationSoftware,Kicad,Pcbnew,9.0.2
; #@! TF.FileFunction,Plated,1,2,PTH
FMAT,2
METRIC
; #@! TA.AperFunction,Plated,PTH,ComponentDrill
T1C0.889
; #@! TA.AperFunction,Plated,PTH,ComponentDrill
T2C1.000
; #@! TA.AperFunction,Plated,PTH,ComponentDrill
T3C1.500
%
G90
G05
T1
X173.38Y-80.38
X173.38Y-82.92
X173.38Y-85.46
X173.38Y-88.0
X173.38Y-90.54
X173.38Y-93.08
X173.38Y-95.62
X188.62Y-80.38
X188.62Y-82.92
X188.62Y-85.46
X188.62Y-88.0
X188.62Y-90.54
X188.62Y-93.08
X188.62Y-95.62
T2
X193.5Y-84.0
X193.5Y-86.5
X193.5Y-89.0
X208.0Y-84.0
X208.0Y-89.0
T3
X158.14Y-126.46
X164.49Y-123.92
X177.19Y-107.415
X177.19Y-126.46
X183.54Y-104.875
X183.54Y-123.92
X196.24Y-126.46
X202.59Y-123.92
T3
X200.35Y-80.9G85X201.65Y-80.9
G05
X200.35Y-92.1G85X201.65Y-92.1
G05
M30
