M48
; DRILL file {KiCad 8.0.5} date 2024-10-21T20:43:03-0400
; FORMAT={-:-/ absolute / inch / decimal}
; #@! TF.CreationDate,2024-10-21T20:43:03-04:00
; #@! TF.GenerationSoftware,Kicad,Pcbnew,8.0.5
; #@! TF.FileFunction,Plated,1,2,PTH
FMAT,2
INCH
; #@! TA.AperFunction,Plated,PTH,ComponentDrill
T1C0.0315
; #@! TA.AperFunction,Plated,PTH,ComponentDrill
T2C0.0394
; #@! TA.AperFunction,Plated,PTH,ComponentDrill
T3C0.0591
; #@! TA.AperFunction,Plated,PTH,ComponentDrill
T4C0.0787
%
G90
G05
T1
X4.786Y-2.5817
X4.786Y-2.8817
X4.7868Y-3.336
X4.7868Y-3.636
X5.5301Y-2.5825
X5.5301Y-2.8825
X5.536Y-3.3309
X5.536Y-3.6309
X6.2537Y-3.3309
X6.2537Y-3.6309
X6.2707Y-2.5813
X6.2707Y-2.8813
T2
X7.2073Y-3.21
X7.2073Y-3.8104
X7.3073Y-3.21
X7.3073Y-3.8104
X7.3778Y-2.5384
X7.3778Y-3.1093
X7.4073Y-3.21
X7.4073Y-3.8104
X7.4762Y-3.1093
X7.5073Y-3.21
X7.5073Y-3.8104
X7.5746Y-2.5384
X7.5746Y-3.1093
X7.6073Y-3.21
X7.6073Y-3.8104
X7.7073Y-3.21
X7.7073Y-3.8104
X7.8073Y-3.21
X7.8073Y-3.8104
T3
X4.9953Y-2.6819
X4.9953Y-3.4319
X5.2453Y-2.5819
X5.2453Y-3.3319
X5.7453Y-2.6819
X5.7453Y-3.4319
X5.9953Y-2.5819
X5.9953Y-3.3319
X6.4953Y-2.6819
X6.4953Y-3.4319
X6.7453Y-2.5819
X6.7453Y-3.3319
T4
G00X7.2518Y-2.7667
M15
G01X7.2518Y-2.8612
M16
G05
G00X7.7006Y-2.7667
M15
G01X7.7006Y-2.8612
M16
G05
M30
