M48
; DRILL file {KiCad 8.0.5} date 2024-10-21T20:43:03-0400
; FORMAT={-:-/ absolute / inch / decimal}
; #@! TF.CreationDate,2024-10-21T20:43:03-04:00
; #@! TF.GenerationSoftware,Kicad,Pcbnew,8.0.5
; #@! TF.FileFunction,NonPlated,1,2,NPTH
FMAT,2
INCH
; #@! TA.AperFunction,NonPlated,NPTH,ComponentDrill
T1C0.0669
; #@! TA.AperFunction,NonPlated,NPTH,ComponentDrill
T2C0.0866
; #@! TA.AperFunction,NonPlated,NPTH,ComponentDrill
T3C0.1575
%
G90
G05
T1
X4.9453Y-2.7819
X4.9453Y-3.5319
X5.3453Y-2.7819
X5.3453Y-3.5319
X5.6953Y-2.7819
X5.6953Y-3.5319
X6.0953Y-2.7819
X6.0953Y-3.5319
X6.4453Y-2.7819
X6.4453Y-3.5319
X6.8453Y-2.7819
X6.8453Y-3.5319
T2
X4.7703Y-2.4305
X4.7703Y-3.9187
X7.8963Y-2.4305
X7.8963Y-3.9187
T3
X5.1453Y-2.7819
X5.1453Y-3.5319
X5.8953Y-2.7819
X5.8953Y-3.5319
X6.6453Y-2.7819
X6.6453Y-3.5319
M30
