0
SECTION
2
HEADER
9
$INSUNITS
70
4
0
ENDSEC
0
SECTION
2
TABLES
0
TABLE
2
LTYPE
0
LTYPE
72
65
70
64
2
CONTINUOUS
3
______
73
0
40
0
0
ENDTAB
0
TABLE
2
LAYER
0
ENDTAB
0
ENDSEC
0
SECTION
2
ENTITIES
0
LINE
8
0
10
4
20
-22.575
11
15
21
-22.575
0
LINE
8
0
10
4
20
-34.575
11
15
21
-34.575
0
LINE
8
0
10
3.5
20
-23.075
11
3.5
21
-34.075
0
LINE
8
0
10
15.5
20
-23.075
11
15.5
21
-34.075
0
ARC
8
0
10
4
20
-23.075
40
0.5
50
90
51
180
0
ARC
8
0
10
15
20
-23.075
40
0.5
50
0
51
90
0
ARC
8
0
10
4
20
-34.075
40
0.5
50
180
51
270
0
ARC
8
0
10
15
20
-34.075
40
0.5
50
270
51
0
0
LINE
8
0
10
23
20
-22.575
11
34
21
-22.575
0
LINE
8
0
10
23
20
-34.575
11
34
21
-34.575
0
LINE
8
0
10
22.5
20
-23.075
11
22.5
21
-34.075
0
LINE
8
0
10
34.5
20
-23.075
11
34.5
21
-34.075
0
ARC
8
0
10
23
20
-23.075
40
0.5
50
90
51
180
0
ARC
8
0
10
34
20
-23.075
40
0.5
50
0
51
90
0
ARC
8
0
10
23
20
-34.075
40
0.5
50
180
51
270
0
ARC
8
0
10
34
20
-34.075
40
0.5
50
270
51
0
0
LINE
8
0
10
42
20
-22.575
11
53
21
-22.575
0
LINE
8
0
10
42
20
-34.575
11
53
21
-34.575
0
LINE
8
0
10
41.5
20
-23.075
11
41.5
21
-34.075
0
LINE
8
0
10
53.5
20
-23.075
11
53.5
21
-34.075
0
ARC
8
0
10
42
20
-23.075
40
0.5
50
90
51
180
0
ARC
8
0
10
53
20
-23.075
40
0.5
50
0
51
90
0
ARC
8
0
10
42
20
-34.075
40
0.5
50
180
51
270
0
ARC
8
0
10
53
20
-34.075
40
0.5
50
270
51
0
0
LINE
8
0
10
4
20
-41.625
11
15
21
-41.625
0
LINE
8
0
10
4
20
-53.625
11
15
21
-53.625
0
LINE
8
0
10
3.5
20
-42.125
11
3.5
21
-53.125
0
LINE
8
0
10
15.5
20
-42.125
11
15.5
21
-53.125
0
ARC
8
0
10
4
20
-42.125
40
0.5
50
90
51
180
0
ARC
8
0
10
15
20
-42.125
40
0.5
50
0
51
90
0
ARC
8
0
10
4
20
-53.125
40
0.5
50
180
51
270
0
ARC
8
0
10
15
20
-53.125
40
0.5
50
270
51
0
0
LINE
8
0
10
23
20
-41.625
11
34
21
-41.625
0
LINE
8
0
10
23
20
-53.625
11
34
21
-53.625
0
LINE
8
0
10
22.5
20
-42.125
11
22.5
21
-53.125
0
LINE
8
0
10
34.5
20
-42.125
11
34.5
21
-53.125
0
ARC
8
0
10
23
20
-42.125
40
0.5
50
90
51
180
0
ARC
8
0
10
34
20
-42.125
40
0.5
50
0
51
90
0
ARC
8
0
10
23
20
-53.125
40
0.5
50
180
51
270
0
ARC
8
0
10
34
20
-53.125
40
0.5
50
270
51
0
0
LINE
8
0
10
42
20
-41.625
11
53
21
-41.625
0
LINE
8
0
10
42
20
-53.625
11
53
21
-53.625
0
LINE
8
0
10
41.5
20
-42.125
11
41.5
21
-53.125
0
LINE
8
0
10
53.5
20
-42.125
11
53.5
21
-53.125
0
ARC
8
0
10
42
20
-42.125
40
0.5
50
90
51
180
0
ARC
8
0
10
53
20
-42.125
40
0.5
50
0
51
90
0
ARC
8
0
10
42
20
-53.125
40
0.5
50
180
51
270
0
ARC
8
0
10
53
20
-53.125
40
0.5
50
270
51
0
0
LINE
8
0
10
0
20
-57.15
11
57
21
-57.15
0
LINE
8
0
10
0
20
-19.05
11
57
21
-19.05
0
LINE
8
0
10
0
20
-57.15
11
0
21
-19.05
0
LINE
8
0
10
57
20
-57.15
11
57
21
-19.05
0
ENDSEC
0
EOF