%TF.GenerationSoftware,KiCad,Pcbnew,8.0.9*%
%TF.CreationDate,2025-02-20T23:26:22+01:00*%
%TF.ProjectId,untitled,756e7469-746c-4656-942e-6b696361645f,rev?*%
%TF.SameCoordinates,Original*%
%TF.FileFunction,Legend,Top*%
%TF.FilePolarity,Positive*%
%FSLAX46Y46*%
G04 Gerber Fmt 4.6, Leading zero omitted, Abs format (unit mm)*
G04 Created by KiCad (PCBNEW 8.0.9) date 2025-02-20 23:26:22*
%MOMM*%
%LPD*%
G01*
G04 APERTURE LIST*
%ADD10C,0.100000*%
%ADD11C,0.120000*%
%ADD12C,0.127000*%
%ADD13C,0.504000*%
G04 APERTURE END LIST*
D10*
X146708646Y-58872419D02*
X147375312Y-59872419D01*
X147375312Y-58872419D02*
X146708646Y-59872419D01*
X147756265Y-59872419D02*
X147756265Y-58872419D01*
X148184836Y-59586704D02*
X148661026Y-59586704D01*
X148089598Y-59872419D02*
X148422931Y-58872419D01*
X148422931Y-58872419D02*
X148756264Y-59872419D01*
X149280074Y-58872419D02*
X149470550Y-58872419D01*
X149470550Y-58872419D02*
X149565788Y-58920038D01*
X149565788Y-58920038D02*
X149661026Y-59015276D01*
X149661026Y-59015276D02*
X149708645Y-59205752D01*
X149708645Y-59205752D02*
X149708645Y-59539085D01*
X149708645Y-59539085D02*
X149661026Y-59729561D01*
X149661026Y-59729561D02*
X149565788Y-59824800D01*
X149565788Y-59824800D02*
X149470550Y-59872419D01*
X149470550Y-59872419D02*
X149280074Y-59872419D01*
X149280074Y-59872419D02*
X149184836Y-59824800D01*
X149184836Y-59824800D02*
X149089598Y-59729561D01*
X149089598Y-59729561D02*
X149041979Y-59539085D01*
X149041979Y-59539085D02*
X149041979Y-59205752D01*
X149041979Y-59205752D02*
X149089598Y-59015276D01*
X149089598Y-59015276D02*
X149184836Y-58920038D01*
X149184836Y-58920038D02*
X149280074Y-58872419D01*
X150899122Y-59872419D02*
X150899122Y-58872419D01*
X150899122Y-59348609D02*
X151470550Y-59348609D01*
X151470550Y-59872419D02*
X151470550Y-58872419D01*
X151946741Y-59348609D02*
X152280074Y-59348609D01*
X152422931Y-59872419D02*
X151946741Y-59872419D01*
X151946741Y-59872419D02*
X151946741Y-58872419D01*
X151946741Y-58872419D02*
X152422931Y-58872419D01*
X153422931Y-59872419D02*
X153089598Y-59396228D01*
X152851503Y-59872419D02*
X152851503Y-58872419D01*
X152851503Y-58872419D02*
X153232455Y-58872419D01*
X153232455Y-58872419D02*
X153327693Y-58920038D01*
X153327693Y-58920038D02*
X153375312Y-58967657D01*
X153375312Y-58967657D02*
X153422931Y-59062895D01*
X153422931Y-59062895D02*
X153422931Y-59205752D01*
X153422931Y-59205752D02*
X153375312Y-59300990D01*
X153375312Y-59300990D02*
X153327693Y-59348609D01*
X153327693Y-59348609D02*
X153232455Y-59396228D01*
X153232455Y-59396228D02*
X152851503Y-59396228D01*
X153851503Y-59348609D02*
X154184836Y-59348609D01*
X154327693Y-59872419D02*
X153851503Y-59872419D01*
X153851503Y-59872419D02*
X153851503Y-58872419D01*
X153851503Y-58872419D02*
X154327693Y-58872419D01*
D11*
%TO.C,REF\u002A\u002A*%
X163475000Y-94095000D02*
X177445000Y-94095000D01*
X163475000Y-108065000D02*
X163475000Y-94095000D01*
X177445000Y-94095000D02*
X177445000Y-108065000D01*
X177445000Y-108065000D02*
X163475000Y-108065000D01*
X142975000Y-94095000D02*
X156945000Y-94095000D01*
X142975000Y-108065000D02*
X142975000Y-94095000D01*
X156945000Y-94095000D02*
X156945000Y-108065000D01*
X156945000Y-108065000D02*
X142975000Y-108065000D01*
X163475000Y-74095000D02*
X177445000Y-74095000D01*
X163475000Y-88065000D02*
X163475000Y-74095000D01*
X177445000Y-74095000D02*
X177445000Y-88065000D01*
X177445000Y-88065000D02*
X163475000Y-88065000D01*
X164190000Y-53690000D02*
X168800000Y-53690000D01*
X164190000Y-56450000D02*
X164190000Y-53690000D01*
X164190000Y-58550000D02*
X164190000Y-59150000D01*
X164190000Y-60850000D02*
X164190000Y-61650000D01*
X164190000Y-63350000D02*
X164190000Y-66310000D01*
X168800000Y-66310000D02*
X164190000Y-66310000D01*
X173200000Y-53700000D02*
X177810000Y-53700000D01*
X177810000Y-53700000D02*
X177810000Y-66310000D01*
X177810000Y-66310000D02*
X173200000Y-66310000D01*
D12*
X141110000Y-68009000D02*
X141110000Y-50864000D01*
X143015000Y-69914000D02*
X156985000Y-69914000D01*
X145505000Y-48959000D02*
X145508728Y-48048728D01*
X146008728Y-47549000D02*
X154004000Y-47549000D01*
X154504000Y-48049000D02*
X154504000Y-48959000D01*
D10*
X156985000Y-48959000D02*
X143015000Y-48959000D01*
D12*
X156985000Y-48959000D02*
X143015000Y-48959000D01*
X158890000Y-68009000D02*
X158890000Y-50864000D01*
X141110000Y-50864000D02*
G75*
G02*
X143015000Y-48959000I1905001J-1D01*
G01*
X143015000Y-69914000D02*
G75*
G02*
X141110000Y-68009000I1J1905001D01*
G01*
X145508728Y-48048728D02*
G75*
G02*
X146008728Y-47549001I500018J-291D01*
G01*
X154004000Y-47549000D02*
G75*
G02*
X154504000Y-48049000I0J-500000D01*
G01*
X156985000Y-48959000D02*
G75*
G02*
X158890000Y-50864000I0J-1905000D01*
G01*
X158890000Y-68009000D02*
G75*
G02*
X156985000Y-69914000I-1905000J0D01*
G01*
D13*
X141302000Y-49200000D02*
G75*
G02*
X140798000Y-49200000I-252000J0D01*
G01*
X140798000Y-49200000D02*
G75*
G02*
X141302000Y-49200000I252000J0D01*
G01*
X142445000Y-50080000D02*
G75*
G02*
X141941000Y-50080000I-252000J0D01*
G01*
X141941000Y-50080000D02*
G75*
G02*
X142445000Y-50080000I252000J0D01*
G01*
D11*
X142975000Y-74095000D02*
X156945000Y-74095000D01*
X142975000Y-88065000D02*
X142975000Y-74095000D01*
X156945000Y-74095000D02*
X156945000Y-88065000D01*
X156945000Y-88065000D02*
X142975000Y-88065000D01*
%TD*%
M02*
