%TF.GenerationSoftware,KiCad,Pcbnew,8.0.9*%
%TF.CreationDate,2025-02-20T23:25:53+01:00*%
%TF.ProjectId,untitled,756e7469-746c-4656-942e-6b696361645f,rev?*%
%TF.SameCoordinates,Original*%
%TF.FileFunction,Drillmap*%
%TF.FilePolarity,Positive*%
%FSLAX45Y45*%
G04 Gerber Fmt 4.5, Leading zero omitted, Abs format (unit mm)*
G04 Created by KiCad (PCBNEW 8.0.9) date 2025-02-20 23:25:53*
%MOMM*%
%LPD*%
G01*
G04 APERTURE LIST*
%ADD10C,0.050000*%
%ADD11C,0.200000*%
%ADD12C,0.170000*%
%ADD13C,0.400000*%
G04 APERTURE END LIST*
D10*
X13950000Y-4850000D02*
X18050000Y-4850000D01*
X18050000Y-11200000D01*
X13950000Y-11200000D01*
X13950000Y-4850000D01*
D11*
D12*
X14403000Y-8023000D02*
X14573000Y-8193000D01*
X14573000Y-8023000D02*
X14403000Y-8193000D01*
X14403000Y-10023000D02*
X14573000Y-10193000D01*
X14573000Y-10023000D02*
X14403000Y-10193000D01*
X15419000Y-8023000D02*
X15589000Y-8193000D01*
X15589000Y-8023000D02*
X15419000Y-8193000D01*
X15419000Y-10023000D02*
X15589000Y-10193000D01*
X15589000Y-10023000D02*
X15419000Y-10193000D01*
X16453000Y-8023000D02*
X16623000Y-8193000D01*
X16623000Y-8023000D02*
X16453000Y-8193000D01*
X16453000Y-10023000D02*
X16623000Y-10193000D01*
X16623000Y-10023000D02*
X16453000Y-10193000D01*
X17469000Y-8023000D02*
X17639000Y-8193000D01*
X17639000Y-8023000D02*
X17469000Y-8193000D01*
X17469000Y-10023000D02*
X17639000Y-10193000D01*
X17639000Y-10023000D02*
X17469000Y-10193000D01*
D13*
X15196000Y-8108000D02*
G75*
G02*
X14796000Y-8108000I-200000J0D01*
G01*
X14796000Y-8108000D02*
G75*
G02*
X15196000Y-8108000I200000J0D01*
G01*
X15196000Y-10108000D02*
G75*
G02*
X14796000Y-10108000I-200000J0D01*
G01*
X14796000Y-10108000D02*
G75*
G02*
X15196000Y-10108000I200000J0D01*
G01*
X17246000Y-8108000D02*
G75*
G02*
X16846000Y-8108000I-200000J0D01*
G01*
X16846000Y-8108000D02*
G75*
G02*
X17246000Y-8108000I200000J0D01*
G01*
X17246000Y-10108000D02*
G75*
G02*
X16846000Y-10108000I-200000J0D01*
G01*
X16846000Y-10108000D02*
G75*
G02*
X17246000Y-10108000I200000J0D01*
G01*
D11*
X14208277Y-11513984D02*
X14208277Y-11313984D01*
X14208277Y-11313984D02*
X14255896Y-11313984D01*
X14255896Y-11313984D02*
X14284467Y-11323508D01*
X14284467Y-11323508D02*
X14303515Y-11342555D01*
X14303515Y-11342555D02*
X14313039Y-11361603D01*
X14313039Y-11361603D02*
X14322562Y-11399698D01*
X14322562Y-11399698D02*
X14322562Y-11428269D01*
X14322562Y-11428269D02*
X14313039Y-11466365D01*
X14313039Y-11466365D02*
X14303515Y-11485412D01*
X14303515Y-11485412D02*
X14284467Y-11504460D01*
X14284467Y-11504460D02*
X14255896Y-11513984D01*
X14255896Y-11513984D02*
X14208277Y-11513984D01*
X14408277Y-11513984D02*
X14408277Y-11380650D01*
X14408277Y-11418746D02*
X14417801Y-11399698D01*
X14417801Y-11399698D02*
X14427324Y-11390174D01*
X14427324Y-11390174D02*
X14446372Y-11380650D01*
X14446372Y-11380650D02*
X14465420Y-11380650D01*
X14532086Y-11513984D02*
X14532086Y-11380650D01*
X14532086Y-11313984D02*
X14522562Y-11323508D01*
X14522562Y-11323508D02*
X14532086Y-11333031D01*
X14532086Y-11333031D02*
X14541610Y-11323508D01*
X14541610Y-11323508D02*
X14532086Y-11313984D01*
X14532086Y-11313984D02*
X14532086Y-11333031D01*
X14655896Y-11513984D02*
X14636848Y-11504460D01*
X14636848Y-11504460D02*
X14627324Y-11485412D01*
X14627324Y-11485412D02*
X14627324Y-11313984D01*
X14760658Y-11513984D02*
X14741610Y-11504460D01*
X14741610Y-11504460D02*
X14732086Y-11485412D01*
X14732086Y-11485412D02*
X14732086Y-11313984D01*
X14989229Y-11513984D02*
X14989229Y-11313984D01*
X14989229Y-11313984D02*
X15055896Y-11456841D01*
X15055896Y-11456841D02*
X15122562Y-11313984D01*
X15122562Y-11313984D02*
X15122562Y-11513984D01*
X15303515Y-11513984D02*
X15303515Y-11409222D01*
X15303515Y-11409222D02*
X15293991Y-11390174D01*
X15293991Y-11390174D02*
X15274943Y-11380650D01*
X15274943Y-11380650D02*
X15236848Y-11380650D01*
X15236848Y-11380650D02*
X15217801Y-11390174D01*
X15303515Y-11504460D02*
X15284467Y-11513984D01*
X15284467Y-11513984D02*
X15236848Y-11513984D01*
X15236848Y-11513984D02*
X15217801Y-11504460D01*
X15217801Y-11504460D02*
X15208277Y-11485412D01*
X15208277Y-11485412D02*
X15208277Y-11466365D01*
X15208277Y-11466365D02*
X15217801Y-11447317D01*
X15217801Y-11447317D02*
X15236848Y-11437793D01*
X15236848Y-11437793D02*
X15284467Y-11437793D01*
X15284467Y-11437793D02*
X15303515Y-11428269D01*
X15398753Y-11380650D02*
X15398753Y-11580650D01*
X15398753Y-11390174D02*
X15417801Y-11380650D01*
X15417801Y-11380650D02*
X15455896Y-11380650D01*
X15455896Y-11380650D02*
X15474943Y-11390174D01*
X15474943Y-11390174D02*
X15484467Y-11399698D01*
X15484467Y-11399698D02*
X15493991Y-11418746D01*
X15493991Y-11418746D02*
X15493991Y-11475888D01*
X15493991Y-11475888D02*
X15484467Y-11494936D01*
X15484467Y-11494936D02*
X15474943Y-11504460D01*
X15474943Y-11504460D02*
X15455896Y-11513984D01*
X15455896Y-11513984D02*
X15417801Y-11513984D01*
X15417801Y-11513984D02*
X15398753Y-11504460D01*
X15579705Y-11494936D02*
X15589229Y-11504460D01*
X15589229Y-11504460D02*
X15579705Y-11513984D01*
X15579705Y-11513984D02*
X15570182Y-11504460D01*
X15570182Y-11504460D02*
X15579705Y-11494936D01*
X15579705Y-11494936D02*
X15579705Y-11513984D01*
X15579705Y-11390174D02*
X15589229Y-11399698D01*
X15589229Y-11399698D02*
X15579705Y-11409222D01*
X15579705Y-11409222D02*
X15570182Y-11399698D01*
X15570182Y-11399698D02*
X15579705Y-11390174D01*
X15579705Y-11390174D02*
X15579705Y-11409222D01*
D12*
X13777500Y-11757500D02*
X13947500Y-11927500D01*
X13947500Y-11757500D02*
X13777500Y-11927500D01*
D11*
X14313039Y-11933984D02*
X14198753Y-11933984D01*
X14255896Y-11933984D02*
X14255896Y-11733984D01*
X14255896Y-11733984D02*
X14236848Y-11762555D01*
X14236848Y-11762555D02*
X14217801Y-11781603D01*
X14217801Y-11781603D02*
X14198753Y-11791127D01*
X14398753Y-11914936D02*
X14408277Y-11924460D01*
X14408277Y-11924460D02*
X14398753Y-11933984D01*
X14398753Y-11933984D02*
X14389229Y-11924460D01*
X14389229Y-11924460D02*
X14398753Y-11914936D01*
X14398753Y-11914936D02*
X14398753Y-11933984D01*
X14474943Y-11733984D02*
X14608277Y-11733984D01*
X14608277Y-11733984D02*
X14522562Y-11933984D01*
X14722562Y-11733984D02*
X14741610Y-11733984D01*
X14741610Y-11733984D02*
X14760658Y-11743508D01*
X14760658Y-11743508D02*
X14770182Y-11753031D01*
X14770182Y-11753031D02*
X14779705Y-11772079D01*
X14779705Y-11772079D02*
X14789229Y-11810174D01*
X14789229Y-11810174D02*
X14789229Y-11857793D01*
X14789229Y-11857793D02*
X14779705Y-11895888D01*
X14779705Y-11895888D02*
X14770182Y-11914936D01*
X14770182Y-11914936D02*
X14760658Y-11924460D01*
X14760658Y-11924460D02*
X14741610Y-11933984D01*
X14741610Y-11933984D02*
X14722562Y-11933984D01*
X14722562Y-11933984D02*
X14703515Y-11924460D01*
X14703515Y-11924460D02*
X14693991Y-11914936D01*
X14693991Y-11914936D02*
X14684467Y-11895888D01*
X14684467Y-11895888D02*
X14674943Y-11857793D01*
X14674943Y-11857793D02*
X14674943Y-11810174D01*
X14674943Y-11810174D02*
X14684467Y-11772079D01*
X14684467Y-11772079D02*
X14693991Y-11753031D01*
X14693991Y-11753031D02*
X14703515Y-11743508D01*
X14703515Y-11743508D02*
X14722562Y-11733984D01*
X14913039Y-11733984D02*
X14932086Y-11733984D01*
X14932086Y-11733984D02*
X14951134Y-11743508D01*
X14951134Y-11743508D02*
X14960658Y-11753031D01*
X14960658Y-11753031D02*
X14970182Y-11772079D01*
X14970182Y-11772079D02*
X14979705Y-11810174D01*
X14979705Y-11810174D02*
X14979705Y-11857793D01*
X14979705Y-11857793D02*
X14970182Y-11895888D01*
X14970182Y-11895888D02*
X14960658Y-11914936D01*
X14960658Y-11914936D02*
X14951134Y-11924460D01*
X14951134Y-11924460D02*
X14932086Y-11933984D01*
X14932086Y-11933984D02*
X14913039Y-11933984D01*
X14913039Y-11933984D02*
X14893991Y-11924460D01*
X14893991Y-11924460D02*
X14884467Y-11914936D01*
X14884467Y-11914936D02*
X14874943Y-11895888D01*
X14874943Y-11895888D02*
X14865420Y-11857793D01*
X14865420Y-11857793D02*
X14865420Y-11810174D01*
X14865420Y-11810174D02*
X14874943Y-11772079D01*
X14874943Y-11772079D02*
X14884467Y-11753031D01*
X14884467Y-11753031D02*
X14893991Y-11743508D01*
X14893991Y-11743508D02*
X14913039Y-11733984D01*
X15065420Y-11933984D02*
X15065420Y-11800650D01*
X15065420Y-11819698D02*
X15074943Y-11810174D01*
X15074943Y-11810174D02*
X15093991Y-11800650D01*
X15093991Y-11800650D02*
X15122563Y-11800650D01*
X15122563Y-11800650D02*
X15141610Y-11810174D01*
X15141610Y-11810174D02*
X15151134Y-11829222D01*
X15151134Y-11829222D02*
X15151134Y-11933984D01*
X15151134Y-11829222D02*
X15160658Y-11810174D01*
X15160658Y-11810174D02*
X15179705Y-11800650D01*
X15179705Y-11800650D02*
X15208277Y-11800650D01*
X15208277Y-11800650D02*
X15227324Y-11810174D01*
X15227324Y-11810174D02*
X15236848Y-11829222D01*
X15236848Y-11829222D02*
X15236848Y-11933984D01*
X15332086Y-11933984D02*
X15332086Y-11800650D01*
X15332086Y-11819698D02*
X15341610Y-11810174D01*
X15341610Y-11810174D02*
X15360658Y-11800650D01*
X15360658Y-11800650D02*
X15389229Y-11800650D01*
X15389229Y-11800650D02*
X15408277Y-11810174D01*
X15408277Y-11810174D02*
X15417801Y-11829222D01*
X15417801Y-11829222D02*
X15417801Y-11933984D01*
X15417801Y-11829222D02*
X15427324Y-11810174D01*
X15427324Y-11810174D02*
X15446372Y-11800650D01*
X15446372Y-11800650D02*
X15474943Y-11800650D01*
X15474943Y-11800650D02*
X15493991Y-11810174D01*
X15493991Y-11810174D02*
X15503515Y-11829222D01*
X15503515Y-11829222D02*
X15503515Y-11933984D01*
X15893991Y-11724460D02*
X15722563Y-11981603D01*
X16151134Y-11733984D02*
X16170182Y-11733984D01*
X16170182Y-11733984D02*
X16189229Y-11743508D01*
X16189229Y-11743508D02*
X16198753Y-11753031D01*
X16198753Y-11753031D02*
X16208277Y-11772079D01*
X16208277Y-11772079D02*
X16217801Y-11810174D01*
X16217801Y-11810174D02*
X16217801Y-11857793D01*
X16217801Y-11857793D02*
X16208277Y-11895888D01*
X16208277Y-11895888D02*
X16198753Y-11914936D01*
X16198753Y-11914936D02*
X16189229Y-11924460D01*
X16189229Y-11924460D02*
X16170182Y-11933984D01*
X16170182Y-11933984D02*
X16151134Y-11933984D01*
X16151134Y-11933984D02*
X16132086Y-11924460D01*
X16132086Y-11924460D02*
X16122563Y-11914936D01*
X16122563Y-11914936D02*
X16113039Y-11895888D01*
X16113039Y-11895888D02*
X16103515Y-11857793D01*
X16103515Y-11857793D02*
X16103515Y-11810174D01*
X16103515Y-11810174D02*
X16113039Y-11772079D01*
X16113039Y-11772079D02*
X16122563Y-11753031D01*
X16122563Y-11753031D02*
X16132086Y-11743508D01*
X16132086Y-11743508D02*
X16151134Y-11733984D01*
X16303515Y-11914936D02*
X16313039Y-11924460D01*
X16313039Y-11924460D02*
X16303515Y-11933984D01*
X16303515Y-11933984D02*
X16293991Y-11924460D01*
X16293991Y-11924460D02*
X16303515Y-11914936D01*
X16303515Y-11914936D02*
X16303515Y-11933984D01*
X16436848Y-11733984D02*
X16455896Y-11733984D01*
X16455896Y-11733984D02*
X16474944Y-11743508D01*
X16474944Y-11743508D02*
X16484467Y-11753031D01*
X16484467Y-11753031D02*
X16493991Y-11772079D01*
X16493991Y-11772079D02*
X16503515Y-11810174D01*
X16503515Y-11810174D02*
X16503515Y-11857793D01*
X16503515Y-11857793D02*
X16493991Y-11895888D01*
X16493991Y-11895888D02*
X16484467Y-11914936D01*
X16484467Y-11914936D02*
X16474944Y-11924460D01*
X16474944Y-11924460D02*
X16455896Y-11933984D01*
X16455896Y-11933984D02*
X16436848Y-11933984D01*
X16436848Y-11933984D02*
X16417801Y-11924460D01*
X16417801Y-11924460D02*
X16408277Y-11914936D01*
X16408277Y-11914936D02*
X16398753Y-11895888D01*
X16398753Y-11895888D02*
X16389229Y-11857793D01*
X16389229Y-11857793D02*
X16389229Y-11810174D01*
X16389229Y-11810174D02*
X16398753Y-11772079D01*
X16398753Y-11772079D02*
X16408277Y-11753031D01*
X16408277Y-11753031D02*
X16417801Y-11743508D01*
X16417801Y-11743508D02*
X16436848Y-11733984D01*
X16674944Y-11733984D02*
X16636848Y-11733984D01*
X16636848Y-11733984D02*
X16617801Y-11743508D01*
X16617801Y-11743508D02*
X16608277Y-11753031D01*
X16608277Y-11753031D02*
X16589229Y-11781603D01*
X16589229Y-11781603D02*
X16579706Y-11819698D01*
X16579706Y-11819698D02*
X16579706Y-11895888D01*
X16579706Y-11895888D02*
X16589229Y-11914936D01*
X16589229Y-11914936D02*
X16598753Y-11924460D01*
X16598753Y-11924460D02*
X16617801Y-11933984D01*
X16617801Y-11933984D02*
X16655896Y-11933984D01*
X16655896Y-11933984D02*
X16674944Y-11924460D01*
X16674944Y-11924460D02*
X16684467Y-11914936D01*
X16684467Y-11914936D02*
X16693991Y-11895888D01*
X16693991Y-11895888D02*
X16693991Y-11848269D01*
X16693991Y-11848269D02*
X16684467Y-11829222D01*
X16684467Y-11829222D02*
X16674944Y-11819698D01*
X16674944Y-11819698D02*
X16655896Y-11810174D01*
X16655896Y-11810174D02*
X16617801Y-11810174D01*
X16617801Y-11810174D02*
X16598753Y-11819698D01*
X16598753Y-11819698D02*
X16589229Y-11829222D01*
X16589229Y-11829222D02*
X16579706Y-11848269D01*
X16865420Y-11733984D02*
X16827325Y-11733984D01*
X16827325Y-11733984D02*
X16808277Y-11743508D01*
X16808277Y-11743508D02*
X16798753Y-11753031D01*
X16798753Y-11753031D02*
X16779706Y-11781603D01*
X16779706Y-11781603D02*
X16770182Y-11819698D01*
X16770182Y-11819698D02*
X16770182Y-11895888D01*
X16770182Y-11895888D02*
X16779706Y-11914936D01*
X16779706Y-11914936D02*
X16789229Y-11924460D01*
X16789229Y-11924460D02*
X16808277Y-11933984D01*
X16808277Y-11933984D02*
X16846372Y-11933984D01*
X16846372Y-11933984D02*
X16865420Y-11924460D01*
X16865420Y-11924460D02*
X16874944Y-11914936D01*
X16874944Y-11914936D02*
X16884468Y-11895888D01*
X16884468Y-11895888D02*
X16884468Y-11848269D01*
X16884468Y-11848269D02*
X16874944Y-11829222D01*
X16874944Y-11829222D02*
X16865420Y-11819698D01*
X16865420Y-11819698D02*
X16846372Y-11810174D01*
X16846372Y-11810174D02*
X16808277Y-11810174D01*
X16808277Y-11810174D02*
X16789229Y-11819698D01*
X16789229Y-11819698D02*
X16779706Y-11829222D01*
X16779706Y-11829222D02*
X16770182Y-11848269D01*
X16979706Y-11933984D02*
X17017801Y-11933984D01*
X17017801Y-11933984D02*
X17036849Y-11924460D01*
X17036849Y-11924460D02*
X17046372Y-11914936D01*
X17046372Y-11914936D02*
X17065420Y-11886365D01*
X17065420Y-11886365D02*
X17074944Y-11848269D01*
X17074944Y-11848269D02*
X17074944Y-11772079D01*
X17074944Y-11772079D02*
X17065420Y-11753031D01*
X17065420Y-11753031D02*
X17055896Y-11743508D01*
X17055896Y-11743508D02*
X17036849Y-11733984D01*
X17036849Y-11733984D02*
X16998753Y-11733984D01*
X16998753Y-11733984D02*
X16979706Y-11743508D01*
X16979706Y-11743508D02*
X16970182Y-11753031D01*
X16970182Y-11753031D02*
X16960658Y-11772079D01*
X16960658Y-11772079D02*
X16960658Y-11819698D01*
X16960658Y-11819698D02*
X16970182Y-11838746D01*
X16970182Y-11838746D02*
X16979706Y-11848269D01*
X16979706Y-11848269D02*
X16998753Y-11857793D01*
X16998753Y-11857793D02*
X17036849Y-11857793D01*
X17036849Y-11857793D02*
X17055896Y-11848269D01*
X17055896Y-11848269D02*
X17065420Y-11838746D01*
X17065420Y-11838746D02*
X17074944Y-11819698D01*
X17151134Y-11733984D02*
X17151134Y-11772079D01*
X17227325Y-11733984D02*
X17227325Y-11772079D01*
X17522563Y-12010174D02*
X17513039Y-12000650D01*
X17513039Y-12000650D02*
X17493991Y-11972079D01*
X17493991Y-11972079D02*
X17484468Y-11953031D01*
X17484468Y-11953031D02*
X17474944Y-11924460D01*
X17474944Y-11924460D02*
X17465420Y-11876841D01*
X17465420Y-11876841D02*
X17465420Y-11838746D01*
X17465420Y-11838746D02*
X17474944Y-11791127D01*
X17474944Y-11791127D02*
X17484468Y-11762555D01*
X17484468Y-11762555D02*
X17493991Y-11743508D01*
X17493991Y-11743508D02*
X17513039Y-11714936D01*
X17513039Y-11714936D02*
X17522563Y-11705412D01*
X17627325Y-11819698D02*
X17608277Y-11810174D01*
X17608277Y-11810174D02*
X17598753Y-11800650D01*
X17598753Y-11800650D02*
X17589230Y-11781603D01*
X17589230Y-11781603D02*
X17589230Y-11772079D01*
X17589230Y-11772079D02*
X17598753Y-11753031D01*
X17598753Y-11753031D02*
X17608277Y-11743508D01*
X17608277Y-11743508D02*
X17627325Y-11733984D01*
X17627325Y-11733984D02*
X17665420Y-11733984D01*
X17665420Y-11733984D02*
X17684468Y-11743508D01*
X17684468Y-11743508D02*
X17693991Y-11753031D01*
X17693991Y-11753031D02*
X17703515Y-11772079D01*
X17703515Y-11772079D02*
X17703515Y-11781603D01*
X17703515Y-11781603D02*
X17693991Y-11800650D01*
X17693991Y-11800650D02*
X17684468Y-11810174D01*
X17684468Y-11810174D02*
X17665420Y-11819698D01*
X17665420Y-11819698D02*
X17627325Y-11819698D01*
X17627325Y-11819698D02*
X17608277Y-11829222D01*
X17608277Y-11829222D02*
X17598753Y-11838746D01*
X17598753Y-11838746D02*
X17589230Y-11857793D01*
X17589230Y-11857793D02*
X17589230Y-11895888D01*
X17589230Y-11895888D02*
X17598753Y-11914936D01*
X17598753Y-11914936D02*
X17608277Y-11924460D01*
X17608277Y-11924460D02*
X17627325Y-11933984D01*
X17627325Y-11933984D02*
X17665420Y-11933984D01*
X17665420Y-11933984D02*
X17684468Y-11924460D01*
X17684468Y-11924460D02*
X17693991Y-11914936D01*
X17693991Y-11914936D02*
X17703515Y-11895888D01*
X17703515Y-11895888D02*
X17703515Y-11857793D01*
X17703515Y-11857793D02*
X17693991Y-11838746D01*
X17693991Y-11838746D02*
X17684468Y-11829222D01*
X17684468Y-11829222D02*
X17665420Y-11819698D01*
X17941611Y-11933984D02*
X17941611Y-11733984D01*
X18027325Y-11933984D02*
X18027325Y-11829222D01*
X18027325Y-11829222D02*
X18017801Y-11810174D01*
X18017801Y-11810174D02*
X17998753Y-11800650D01*
X17998753Y-11800650D02*
X17970182Y-11800650D01*
X17970182Y-11800650D02*
X17951134Y-11810174D01*
X17951134Y-11810174D02*
X17941611Y-11819698D01*
X18151134Y-11933984D02*
X18132087Y-11924460D01*
X18132087Y-11924460D02*
X18122563Y-11914936D01*
X18122563Y-11914936D02*
X18113039Y-11895888D01*
X18113039Y-11895888D02*
X18113039Y-11838746D01*
X18113039Y-11838746D02*
X18122563Y-11819698D01*
X18122563Y-11819698D02*
X18132087Y-11810174D01*
X18132087Y-11810174D02*
X18151134Y-11800650D01*
X18151134Y-11800650D02*
X18179706Y-11800650D01*
X18179706Y-11800650D02*
X18198753Y-11810174D01*
X18198753Y-11810174D02*
X18208277Y-11819698D01*
X18208277Y-11819698D02*
X18217801Y-11838746D01*
X18217801Y-11838746D02*
X18217801Y-11895888D01*
X18217801Y-11895888D02*
X18208277Y-11914936D01*
X18208277Y-11914936D02*
X18198753Y-11924460D01*
X18198753Y-11924460D02*
X18179706Y-11933984D01*
X18179706Y-11933984D02*
X18151134Y-11933984D01*
X18332087Y-11933984D02*
X18313039Y-11924460D01*
X18313039Y-11924460D02*
X18303515Y-11905412D01*
X18303515Y-11905412D02*
X18303515Y-11733984D01*
X18484468Y-11924460D02*
X18465420Y-11933984D01*
X18465420Y-11933984D02*
X18427325Y-11933984D01*
X18427325Y-11933984D02*
X18408277Y-11924460D01*
X18408277Y-11924460D02*
X18398753Y-11905412D01*
X18398753Y-11905412D02*
X18398753Y-11829222D01*
X18398753Y-11829222D02*
X18408277Y-11810174D01*
X18408277Y-11810174D02*
X18427325Y-11800650D01*
X18427325Y-11800650D02*
X18465420Y-11800650D01*
X18465420Y-11800650D02*
X18484468Y-11810174D01*
X18484468Y-11810174D02*
X18493992Y-11829222D01*
X18493992Y-11829222D02*
X18493992Y-11848269D01*
X18493992Y-11848269D02*
X18398753Y-11867317D01*
X18570182Y-11924460D02*
X18589230Y-11933984D01*
X18589230Y-11933984D02*
X18627325Y-11933984D01*
X18627325Y-11933984D02*
X18646373Y-11924460D01*
X18646373Y-11924460D02*
X18655896Y-11905412D01*
X18655896Y-11905412D02*
X18655896Y-11895888D01*
X18655896Y-11895888D02*
X18646373Y-11876841D01*
X18646373Y-11876841D02*
X18627325Y-11867317D01*
X18627325Y-11867317D02*
X18598753Y-11867317D01*
X18598753Y-11867317D02*
X18579706Y-11857793D01*
X18579706Y-11857793D02*
X18570182Y-11838746D01*
X18570182Y-11838746D02*
X18570182Y-11829222D01*
X18570182Y-11829222D02*
X18579706Y-11810174D01*
X18579706Y-11810174D02*
X18598753Y-11800650D01*
X18598753Y-11800650D02*
X18627325Y-11800650D01*
X18627325Y-11800650D02*
X18646373Y-11810174D01*
X18722563Y-12010174D02*
X18732087Y-12000650D01*
X18732087Y-12000650D02*
X18751134Y-11972079D01*
X18751134Y-11972079D02*
X18760658Y-11953031D01*
X18760658Y-11953031D02*
X18770182Y-11924460D01*
X18770182Y-11924460D02*
X18779706Y-11876841D01*
X18779706Y-11876841D02*
X18779706Y-11838746D01*
X18779706Y-11838746D02*
X18770182Y-11791127D01*
X18770182Y-11791127D02*
X18760658Y-11762555D01*
X18760658Y-11762555D02*
X18751134Y-11743508D01*
X18751134Y-11743508D02*
X18732087Y-11714936D01*
X18732087Y-11714936D02*
X18722563Y-11705412D01*
X19084468Y-12010174D02*
X19074944Y-12000650D01*
X19074944Y-12000650D02*
X19055896Y-11972079D01*
X19055896Y-11972079D02*
X19046373Y-11953031D01*
X19046373Y-11953031D02*
X19036849Y-11924460D01*
X19036849Y-11924460D02*
X19027325Y-11876841D01*
X19027325Y-11876841D02*
X19027325Y-11838746D01*
X19027325Y-11838746D02*
X19036849Y-11791127D01*
X19036849Y-11791127D02*
X19046373Y-11762555D01*
X19046373Y-11762555D02*
X19055896Y-11743508D01*
X19055896Y-11743508D02*
X19074944Y-11714936D01*
X19074944Y-11714936D02*
X19084468Y-11705412D01*
X19160658Y-11800650D02*
X19160658Y-11933984D01*
X19160658Y-11819698D02*
X19170182Y-11810174D01*
X19170182Y-11810174D02*
X19189230Y-11800650D01*
X19189230Y-11800650D02*
X19217801Y-11800650D01*
X19217801Y-11800650D02*
X19236849Y-11810174D01*
X19236849Y-11810174D02*
X19246373Y-11829222D01*
X19246373Y-11829222D02*
X19246373Y-11933984D01*
X19370182Y-11933984D02*
X19351134Y-11924460D01*
X19351134Y-11924460D02*
X19341611Y-11914936D01*
X19341611Y-11914936D02*
X19332087Y-11895888D01*
X19332087Y-11895888D02*
X19332087Y-11838746D01*
X19332087Y-11838746D02*
X19341611Y-11819698D01*
X19341611Y-11819698D02*
X19351134Y-11810174D01*
X19351134Y-11810174D02*
X19370182Y-11800650D01*
X19370182Y-11800650D02*
X19398754Y-11800650D01*
X19398754Y-11800650D02*
X19417801Y-11810174D01*
X19417801Y-11810174D02*
X19427325Y-11819698D01*
X19427325Y-11819698D02*
X19436849Y-11838746D01*
X19436849Y-11838746D02*
X19436849Y-11895888D01*
X19436849Y-11895888D02*
X19427325Y-11914936D01*
X19427325Y-11914936D02*
X19417801Y-11924460D01*
X19417801Y-11924460D02*
X19398754Y-11933984D01*
X19398754Y-11933984D02*
X19370182Y-11933984D01*
X19493992Y-11800650D02*
X19570182Y-11800650D01*
X19522563Y-11733984D02*
X19522563Y-11905412D01*
X19522563Y-11905412D02*
X19532087Y-11924460D01*
X19532087Y-11924460D02*
X19551134Y-11933984D01*
X19551134Y-11933984D02*
X19570182Y-11933984D01*
X19789230Y-11800650D02*
X19789230Y-12000650D01*
X19789230Y-11810174D02*
X19808277Y-11800650D01*
X19808277Y-11800650D02*
X19846373Y-11800650D01*
X19846373Y-11800650D02*
X19865420Y-11810174D01*
X19865420Y-11810174D02*
X19874944Y-11819698D01*
X19874944Y-11819698D02*
X19884468Y-11838746D01*
X19884468Y-11838746D02*
X19884468Y-11895888D01*
X19884468Y-11895888D02*
X19874944Y-11914936D01*
X19874944Y-11914936D02*
X19865420Y-11924460D01*
X19865420Y-11924460D02*
X19846373Y-11933984D01*
X19846373Y-11933984D02*
X19808277Y-11933984D01*
X19808277Y-11933984D02*
X19789230Y-11924460D01*
X19998754Y-11933984D02*
X19979706Y-11924460D01*
X19979706Y-11924460D02*
X19970182Y-11905412D01*
X19970182Y-11905412D02*
X19970182Y-11733984D01*
X20160658Y-11933984D02*
X20160658Y-11829222D01*
X20160658Y-11829222D02*
X20151135Y-11810174D01*
X20151135Y-11810174D02*
X20132087Y-11800650D01*
X20132087Y-11800650D02*
X20093992Y-11800650D01*
X20093992Y-11800650D02*
X20074944Y-11810174D01*
X20160658Y-11924460D02*
X20141611Y-11933984D01*
X20141611Y-11933984D02*
X20093992Y-11933984D01*
X20093992Y-11933984D02*
X20074944Y-11924460D01*
X20074944Y-11924460D02*
X20065420Y-11905412D01*
X20065420Y-11905412D02*
X20065420Y-11886365D01*
X20065420Y-11886365D02*
X20074944Y-11867317D01*
X20074944Y-11867317D02*
X20093992Y-11857793D01*
X20093992Y-11857793D02*
X20141611Y-11857793D01*
X20141611Y-11857793D02*
X20160658Y-11848269D01*
X20227325Y-11800650D02*
X20303515Y-11800650D01*
X20255896Y-11733984D02*
X20255896Y-11905412D01*
X20255896Y-11905412D02*
X20265420Y-11924460D01*
X20265420Y-11924460D02*
X20284468Y-11933984D01*
X20284468Y-11933984D02*
X20303515Y-11933984D01*
X20446373Y-11924460D02*
X20427325Y-11933984D01*
X20427325Y-11933984D02*
X20389230Y-11933984D01*
X20389230Y-11933984D02*
X20370182Y-11924460D01*
X20370182Y-11924460D02*
X20360658Y-11905412D01*
X20360658Y-11905412D02*
X20360658Y-11829222D01*
X20360658Y-11829222D02*
X20370182Y-11810174D01*
X20370182Y-11810174D02*
X20389230Y-11800650D01*
X20389230Y-11800650D02*
X20427325Y-11800650D01*
X20427325Y-11800650D02*
X20446373Y-11810174D01*
X20446373Y-11810174D02*
X20455896Y-11829222D01*
X20455896Y-11829222D02*
X20455896Y-11848269D01*
X20455896Y-11848269D02*
X20360658Y-11867317D01*
X20627325Y-11933984D02*
X20627325Y-11733984D01*
X20627325Y-11924460D02*
X20608277Y-11933984D01*
X20608277Y-11933984D02*
X20570182Y-11933984D01*
X20570182Y-11933984D02*
X20551135Y-11924460D01*
X20551135Y-11924460D02*
X20541611Y-11914936D01*
X20541611Y-11914936D02*
X20532087Y-11895888D01*
X20532087Y-11895888D02*
X20532087Y-11838746D01*
X20532087Y-11838746D02*
X20541611Y-11819698D01*
X20541611Y-11819698D02*
X20551135Y-11810174D01*
X20551135Y-11810174D02*
X20570182Y-11800650D01*
X20570182Y-11800650D02*
X20608277Y-11800650D01*
X20608277Y-11800650D02*
X20627325Y-11810174D01*
X20703516Y-12010174D02*
X20713039Y-12000650D01*
X20713039Y-12000650D02*
X20732087Y-11972079D01*
X20732087Y-11972079D02*
X20741611Y-11953031D01*
X20741611Y-11953031D02*
X20751135Y-11924460D01*
X20751135Y-11924460D02*
X20760658Y-11876841D01*
X20760658Y-11876841D02*
X20760658Y-11838746D01*
X20760658Y-11838746D02*
X20751135Y-11791127D01*
X20751135Y-11791127D02*
X20741611Y-11762555D01*
X20741611Y-11762555D02*
X20732087Y-11743508D01*
X20732087Y-11743508D02*
X20713039Y-11714936D01*
X20713039Y-11714936D02*
X20703516Y-11705412D01*
X13947500Y-12132500D02*
G75*
G02*
X13747500Y-12132500I-100000J0D01*
G01*
X13747500Y-12132500D02*
G75*
G02*
X13947500Y-12132500I100000J0D01*
G01*
X14293991Y-12090650D02*
X14293991Y-12223984D01*
X14246372Y-12014460D02*
X14198753Y-12157317D01*
X14198753Y-12157317D02*
X14322562Y-12157317D01*
X14398753Y-12204936D02*
X14408277Y-12214460D01*
X14408277Y-12214460D02*
X14398753Y-12223984D01*
X14398753Y-12223984D02*
X14389229Y-12214460D01*
X14389229Y-12214460D02*
X14398753Y-12204936D01*
X14398753Y-12204936D02*
X14398753Y-12223984D01*
X14532086Y-12023984D02*
X14551134Y-12023984D01*
X14551134Y-12023984D02*
X14570182Y-12033508D01*
X14570182Y-12033508D02*
X14579705Y-12043031D01*
X14579705Y-12043031D02*
X14589229Y-12062079D01*
X14589229Y-12062079D02*
X14598753Y-12100174D01*
X14598753Y-12100174D02*
X14598753Y-12147793D01*
X14598753Y-12147793D02*
X14589229Y-12185888D01*
X14589229Y-12185888D02*
X14579705Y-12204936D01*
X14579705Y-12204936D02*
X14570182Y-12214460D01*
X14570182Y-12214460D02*
X14551134Y-12223984D01*
X14551134Y-12223984D02*
X14532086Y-12223984D01*
X14532086Y-12223984D02*
X14513039Y-12214460D01*
X14513039Y-12214460D02*
X14503515Y-12204936D01*
X14503515Y-12204936D02*
X14493991Y-12185888D01*
X14493991Y-12185888D02*
X14484467Y-12147793D01*
X14484467Y-12147793D02*
X14484467Y-12100174D01*
X14484467Y-12100174D02*
X14493991Y-12062079D01*
X14493991Y-12062079D02*
X14503515Y-12043031D01*
X14503515Y-12043031D02*
X14513039Y-12033508D01*
X14513039Y-12033508D02*
X14532086Y-12023984D01*
X14722562Y-12023984D02*
X14741610Y-12023984D01*
X14741610Y-12023984D02*
X14760658Y-12033508D01*
X14760658Y-12033508D02*
X14770182Y-12043031D01*
X14770182Y-12043031D02*
X14779705Y-12062079D01*
X14779705Y-12062079D02*
X14789229Y-12100174D01*
X14789229Y-12100174D02*
X14789229Y-12147793D01*
X14789229Y-12147793D02*
X14779705Y-12185888D01*
X14779705Y-12185888D02*
X14770182Y-12204936D01*
X14770182Y-12204936D02*
X14760658Y-12214460D01*
X14760658Y-12214460D02*
X14741610Y-12223984D01*
X14741610Y-12223984D02*
X14722562Y-12223984D01*
X14722562Y-12223984D02*
X14703515Y-12214460D01*
X14703515Y-12214460D02*
X14693991Y-12204936D01*
X14693991Y-12204936D02*
X14684467Y-12185888D01*
X14684467Y-12185888D02*
X14674943Y-12147793D01*
X14674943Y-12147793D02*
X14674943Y-12100174D01*
X14674943Y-12100174D02*
X14684467Y-12062079D01*
X14684467Y-12062079D02*
X14693991Y-12043031D01*
X14693991Y-12043031D02*
X14703515Y-12033508D01*
X14703515Y-12033508D02*
X14722562Y-12023984D01*
X14913039Y-12023984D02*
X14932086Y-12023984D01*
X14932086Y-12023984D02*
X14951134Y-12033508D01*
X14951134Y-12033508D02*
X14960658Y-12043031D01*
X14960658Y-12043031D02*
X14970182Y-12062079D01*
X14970182Y-12062079D02*
X14979705Y-12100174D01*
X14979705Y-12100174D02*
X14979705Y-12147793D01*
X14979705Y-12147793D02*
X14970182Y-12185888D01*
X14970182Y-12185888D02*
X14960658Y-12204936D01*
X14960658Y-12204936D02*
X14951134Y-12214460D01*
X14951134Y-12214460D02*
X14932086Y-12223984D01*
X14932086Y-12223984D02*
X14913039Y-12223984D01*
X14913039Y-12223984D02*
X14893991Y-12214460D01*
X14893991Y-12214460D02*
X14884467Y-12204936D01*
X14884467Y-12204936D02*
X14874943Y-12185888D01*
X14874943Y-12185888D02*
X14865420Y-12147793D01*
X14865420Y-12147793D02*
X14865420Y-12100174D01*
X14865420Y-12100174D02*
X14874943Y-12062079D01*
X14874943Y-12062079D02*
X14884467Y-12043031D01*
X14884467Y-12043031D02*
X14893991Y-12033508D01*
X14893991Y-12033508D02*
X14913039Y-12023984D01*
X15065420Y-12223984D02*
X15065420Y-12090650D01*
X15065420Y-12109698D02*
X15074943Y-12100174D01*
X15074943Y-12100174D02*
X15093991Y-12090650D01*
X15093991Y-12090650D02*
X15122563Y-12090650D01*
X15122563Y-12090650D02*
X15141610Y-12100174D01*
X15141610Y-12100174D02*
X15151134Y-12119222D01*
X15151134Y-12119222D02*
X15151134Y-12223984D01*
X15151134Y-12119222D02*
X15160658Y-12100174D01*
X15160658Y-12100174D02*
X15179705Y-12090650D01*
X15179705Y-12090650D02*
X15208277Y-12090650D01*
X15208277Y-12090650D02*
X15227324Y-12100174D01*
X15227324Y-12100174D02*
X15236848Y-12119222D01*
X15236848Y-12119222D02*
X15236848Y-12223984D01*
X15332086Y-12223984D02*
X15332086Y-12090650D01*
X15332086Y-12109698D02*
X15341610Y-12100174D01*
X15341610Y-12100174D02*
X15360658Y-12090650D01*
X15360658Y-12090650D02*
X15389229Y-12090650D01*
X15389229Y-12090650D02*
X15408277Y-12100174D01*
X15408277Y-12100174D02*
X15417801Y-12119222D01*
X15417801Y-12119222D02*
X15417801Y-12223984D01*
X15417801Y-12119222D02*
X15427324Y-12100174D01*
X15427324Y-12100174D02*
X15446372Y-12090650D01*
X15446372Y-12090650D02*
X15474943Y-12090650D01*
X15474943Y-12090650D02*
X15493991Y-12100174D01*
X15493991Y-12100174D02*
X15503515Y-12119222D01*
X15503515Y-12119222D02*
X15503515Y-12223984D01*
X15893991Y-12014460D02*
X15722563Y-12271603D01*
X16151134Y-12023984D02*
X16170182Y-12023984D01*
X16170182Y-12023984D02*
X16189229Y-12033508D01*
X16189229Y-12033508D02*
X16198753Y-12043031D01*
X16198753Y-12043031D02*
X16208277Y-12062079D01*
X16208277Y-12062079D02*
X16217801Y-12100174D01*
X16217801Y-12100174D02*
X16217801Y-12147793D01*
X16217801Y-12147793D02*
X16208277Y-12185888D01*
X16208277Y-12185888D02*
X16198753Y-12204936D01*
X16198753Y-12204936D02*
X16189229Y-12214460D01*
X16189229Y-12214460D02*
X16170182Y-12223984D01*
X16170182Y-12223984D02*
X16151134Y-12223984D01*
X16151134Y-12223984D02*
X16132086Y-12214460D01*
X16132086Y-12214460D02*
X16122563Y-12204936D01*
X16122563Y-12204936D02*
X16113039Y-12185888D01*
X16113039Y-12185888D02*
X16103515Y-12147793D01*
X16103515Y-12147793D02*
X16103515Y-12100174D01*
X16103515Y-12100174D02*
X16113039Y-12062079D01*
X16113039Y-12062079D02*
X16122563Y-12043031D01*
X16122563Y-12043031D02*
X16132086Y-12033508D01*
X16132086Y-12033508D02*
X16151134Y-12023984D01*
X16303515Y-12204936D02*
X16313039Y-12214460D01*
X16313039Y-12214460D02*
X16303515Y-12223984D01*
X16303515Y-12223984D02*
X16293991Y-12214460D01*
X16293991Y-12214460D02*
X16303515Y-12204936D01*
X16303515Y-12204936D02*
X16303515Y-12223984D01*
X16503515Y-12223984D02*
X16389229Y-12223984D01*
X16446372Y-12223984D02*
X16446372Y-12023984D01*
X16446372Y-12023984D02*
X16427325Y-12052555D01*
X16427325Y-12052555D02*
X16408277Y-12071603D01*
X16408277Y-12071603D02*
X16389229Y-12081127D01*
X16684467Y-12023984D02*
X16589229Y-12023984D01*
X16589229Y-12023984D02*
X16579706Y-12119222D01*
X16579706Y-12119222D02*
X16589229Y-12109698D01*
X16589229Y-12109698D02*
X16608277Y-12100174D01*
X16608277Y-12100174D02*
X16655896Y-12100174D01*
X16655896Y-12100174D02*
X16674944Y-12109698D01*
X16674944Y-12109698D02*
X16684467Y-12119222D01*
X16684467Y-12119222D02*
X16693991Y-12138269D01*
X16693991Y-12138269D02*
X16693991Y-12185888D01*
X16693991Y-12185888D02*
X16684467Y-12204936D01*
X16684467Y-12204936D02*
X16674944Y-12214460D01*
X16674944Y-12214460D02*
X16655896Y-12223984D01*
X16655896Y-12223984D02*
X16608277Y-12223984D01*
X16608277Y-12223984D02*
X16589229Y-12214460D01*
X16589229Y-12214460D02*
X16579706Y-12204936D01*
X16760658Y-12023984D02*
X16893991Y-12023984D01*
X16893991Y-12023984D02*
X16808277Y-12223984D01*
X17065420Y-12023984D02*
X16970182Y-12023984D01*
X16970182Y-12023984D02*
X16960658Y-12119222D01*
X16960658Y-12119222D02*
X16970182Y-12109698D01*
X16970182Y-12109698D02*
X16989229Y-12100174D01*
X16989229Y-12100174D02*
X17036849Y-12100174D01*
X17036849Y-12100174D02*
X17055896Y-12109698D01*
X17055896Y-12109698D02*
X17065420Y-12119222D01*
X17065420Y-12119222D02*
X17074944Y-12138269D01*
X17074944Y-12138269D02*
X17074944Y-12185888D01*
X17074944Y-12185888D02*
X17065420Y-12204936D01*
X17065420Y-12204936D02*
X17055896Y-12214460D01*
X17055896Y-12214460D02*
X17036849Y-12223984D01*
X17036849Y-12223984D02*
X16989229Y-12223984D01*
X16989229Y-12223984D02*
X16970182Y-12214460D01*
X16970182Y-12214460D02*
X16960658Y-12204936D01*
X17151134Y-12023984D02*
X17151134Y-12062079D01*
X17227325Y-12023984D02*
X17227325Y-12062079D01*
X17522563Y-12300174D02*
X17513039Y-12290650D01*
X17513039Y-12290650D02*
X17493991Y-12262079D01*
X17493991Y-12262079D02*
X17484468Y-12243031D01*
X17484468Y-12243031D02*
X17474944Y-12214460D01*
X17474944Y-12214460D02*
X17465420Y-12166841D01*
X17465420Y-12166841D02*
X17465420Y-12128746D01*
X17465420Y-12128746D02*
X17474944Y-12081127D01*
X17474944Y-12081127D02*
X17484468Y-12052555D01*
X17484468Y-12052555D02*
X17493991Y-12033508D01*
X17493991Y-12033508D02*
X17513039Y-12004936D01*
X17513039Y-12004936D02*
X17522563Y-11995412D01*
X17684468Y-12090650D02*
X17684468Y-12223984D01*
X17636849Y-12014460D02*
X17589230Y-12157317D01*
X17589230Y-12157317D02*
X17713039Y-12157317D01*
X17941611Y-12223984D02*
X17941611Y-12023984D01*
X18027325Y-12223984D02*
X18027325Y-12119222D01*
X18027325Y-12119222D02*
X18017801Y-12100174D01*
X18017801Y-12100174D02*
X17998753Y-12090650D01*
X17998753Y-12090650D02*
X17970182Y-12090650D01*
X17970182Y-12090650D02*
X17951134Y-12100174D01*
X17951134Y-12100174D02*
X17941611Y-12109698D01*
X18151134Y-12223984D02*
X18132087Y-12214460D01*
X18132087Y-12214460D02*
X18122563Y-12204936D01*
X18122563Y-12204936D02*
X18113039Y-12185888D01*
X18113039Y-12185888D02*
X18113039Y-12128746D01*
X18113039Y-12128746D02*
X18122563Y-12109698D01*
X18122563Y-12109698D02*
X18132087Y-12100174D01*
X18132087Y-12100174D02*
X18151134Y-12090650D01*
X18151134Y-12090650D02*
X18179706Y-12090650D01*
X18179706Y-12090650D02*
X18198753Y-12100174D01*
X18198753Y-12100174D02*
X18208277Y-12109698D01*
X18208277Y-12109698D02*
X18217801Y-12128746D01*
X18217801Y-12128746D02*
X18217801Y-12185888D01*
X18217801Y-12185888D02*
X18208277Y-12204936D01*
X18208277Y-12204936D02*
X18198753Y-12214460D01*
X18198753Y-12214460D02*
X18179706Y-12223984D01*
X18179706Y-12223984D02*
X18151134Y-12223984D01*
X18332087Y-12223984D02*
X18313039Y-12214460D01*
X18313039Y-12214460D02*
X18303515Y-12195412D01*
X18303515Y-12195412D02*
X18303515Y-12023984D01*
X18484468Y-12214460D02*
X18465420Y-12223984D01*
X18465420Y-12223984D02*
X18427325Y-12223984D01*
X18427325Y-12223984D02*
X18408277Y-12214460D01*
X18408277Y-12214460D02*
X18398753Y-12195412D01*
X18398753Y-12195412D02*
X18398753Y-12119222D01*
X18398753Y-12119222D02*
X18408277Y-12100174D01*
X18408277Y-12100174D02*
X18427325Y-12090650D01*
X18427325Y-12090650D02*
X18465420Y-12090650D01*
X18465420Y-12090650D02*
X18484468Y-12100174D01*
X18484468Y-12100174D02*
X18493992Y-12119222D01*
X18493992Y-12119222D02*
X18493992Y-12138269D01*
X18493992Y-12138269D02*
X18398753Y-12157317D01*
X18570182Y-12214460D02*
X18589230Y-12223984D01*
X18589230Y-12223984D02*
X18627325Y-12223984D01*
X18627325Y-12223984D02*
X18646373Y-12214460D01*
X18646373Y-12214460D02*
X18655896Y-12195412D01*
X18655896Y-12195412D02*
X18655896Y-12185888D01*
X18655896Y-12185888D02*
X18646373Y-12166841D01*
X18646373Y-12166841D02*
X18627325Y-12157317D01*
X18627325Y-12157317D02*
X18598753Y-12157317D01*
X18598753Y-12157317D02*
X18579706Y-12147793D01*
X18579706Y-12147793D02*
X18570182Y-12128746D01*
X18570182Y-12128746D02*
X18570182Y-12119222D01*
X18570182Y-12119222D02*
X18579706Y-12100174D01*
X18579706Y-12100174D02*
X18598753Y-12090650D01*
X18598753Y-12090650D02*
X18627325Y-12090650D01*
X18627325Y-12090650D02*
X18646373Y-12100174D01*
X18722563Y-12300174D02*
X18732087Y-12290650D01*
X18732087Y-12290650D02*
X18751134Y-12262079D01*
X18751134Y-12262079D02*
X18760658Y-12243031D01*
X18760658Y-12243031D02*
X18770182Y-12214460D01*
X18770182Y-12214460D02*
X18779706Y-12166841D01*
X18779706Y-12166841D02*
X18779706Y-12128746D01*
X18779706Y-12128746D02*
X18770182Y-12081127D01*
X18770182Y-12081127D02*
X18760658Y-12052555D01*
X18760658Y-12052555D02*
X18751134Y-12033508D01*
X18751134Y-12033508D02*
X18732087Y-12004936D01*
X18732087Y-12004936D02*
X18722563Y-11995412D01*
X19084468Y-12300174D02*
X19074944Y-12290650D01*
X19074944Y-12290650D02*
X19055896Y-12262079D01*
X19055896Y-12262079D02*
X19046373Y-12243031D01*
X19046373Y-12243031D02*
X19036849Y-12214460D01*
X19036849Y-12214460D02*
X19027325Y-12166841D01*
X19027325Y-12166841D02*
X19027325Y-12128746D01*
X19027325Y-12128746D02*
X19036849Y-12081127D01*
X19036849Y-12081127D02*
X19046373Y-12052555D01*
X19046373Y-12052555D02*
X19055896Y-12033508D01*
X19055896Y-12033508D02*
X19074944Y-12004936D01*
X19074944Y-12004936D02*
X19084468Y-11995412D01*
X19160658Y-12090650D02*
X19160658Y-12223984D01*
X19160658Y-12109698D02*
X19170182Y-12100174D01*
X19170182Y-12100174D02*
X19189230Y-12090650D01*
X19189230Y-12090650D02*
X19217801Y-12090650D01*
X19217801Y-12090650D02*
X19236849Y-12100174D01*
X19236849Y-12100174D02*
X19246373Y-12119222D01*
X19246373Y-12119222D02*
X19246373Y-12223984D01*
X19370182Y-12223984D02*
X19351134Y-12214460D01*
X19351134Y-12214460D02*
X19341611Y-12204936D01*
X19341611Y-12204936D02*
X19332087Y-12185888D01*
X19332087Y-12185888D02*
X19332087Y-12128746D01*
X19332087Y-12128746D02*
X19341611Y-12109698D01*
X19341611Y-12109698D02*
X19351134Y-12100174D01*
X19351134Y-12100174D02*
X19370182Y-12090650D01*
X19370182Y-12090650D02*
X19398754Y-12090650D01*
X19398754Y-12090650D02*
X19417801Y-12100174D01*
X19417801Y-12100174D02*
X19427325Y-12109698D01*
X19427325Y-12109698D02*
X19436849Y-12128746D01*
X19436849Y-12128746D02*
X19436849Y-12185888D01*
X19436849Y-12185888D02*
X19427325Y-12204936D01*
X19427325Y-12204936D02*
X19417801Y-12214460D01*
X19417801Y-12214460D02*
X19398754Y-12223984D01*
X19398754Y-12223984D02*
X19370182Y-12223984D01*
X19493992Y-12090650D02*
X19570182Y-12090650D01*
X19522563Y-12023984D02*
X19522563Y-12195412D01*
X19522563Y-12195412D02*
X19532087Y-12214460D01*
X19532087Y-12214460D02*
X19551134Y-12223984D01*
X19551134Y-12223984D02*
X19570182Y-12223984D01*
X19789230Y-12090650D02*
X19789230Y-12290650D01*
X19789230Y-12100174D02*
X19808277Y-12090650D01*
X19808277Y-12090650D02*
X19846373Y-12090650D01*
X19846373Y-12090650D02*
X19865420Y-12100174D01*
X19865420Y-12100174D02*
X19874944Y-12109698D01*
X19874944Y-12109698D02*
X19884468Y-12128746D01*
X19884468Y-12128746D02*
X19884468Y-12185888D01*
X19884468Y-12185888D02*
X19874944Y-12204936D01*
X19874944Y-12204936D02*
X19865420Y-12214460D01*
X19865420Y-12214460D02*
X19846373Y-12223984D01*
X19846373Y-12223984D02*
X19808277Y-12223984D01*
X19808277Y-12223984D02*
X19789230Y-12214460D01*
X19998754Y-12223984D02*
X19979706Y-12214460D01*
X19979706Y-12214460D02*
X19970182Y-12195412D01*
X19970182Y-12195412D02*
X19970182Y-12023984D01*
X20160658Y-12223984D02*
X20160658Y-12119222D01*
X20160658Y-12119222D02*
X20151135Y-12100174D01*
X20151135Y-12100174D02*
X20132087Y-12090650D01*
X20132087Y-12090650D02*
X20093992Y-12090650D01*
X20093992Y-12090650D02*
X20074944Y-12100174D01*
X20160658Y-12214460D02*
X20141611Y-12223984D01*
X20141611Y-12223984D02*
X20093992Y-12223984D01*
X20093992Y-12223984D02*
X20074944Y-12214460D01*
X20074944Y-12214460D02*
X20065420Y-12195412D01*
X20065420Y-12195412D02*
X20065420Y-12176365D01*
X20065420Y-12176365D02*
X20074944Y-12157317D01*
X20074944Y-12157317D02*
X20093992Y-12147793D01*
X20093992Y-12147793D02*
X20141611Y-12147793D01*
X20141611Y-12147793D02*
X20160658Y-12138269D01*
X20227325Y-12090650D02*
X20303515Y-12090650D01*
X20255896Y-12023984D02*
X20255896Y-12195412D01*
X20255896Y-12195412D02*
X20265420Y-12214460D01*
X20265420Y-12214460D02*
X20284468Y-12223984D01*
X20284468Y-12223984D02*
X20303515Y-12223984D01*
X20446373Y-12214460D02*
X20427325Y-12223984D01*
X20427325Y-12223984D02*
X20389230Y-12223984D01*
X20389230Y-12223984D02*
X20370182Y-12214460D01*
X20370182Y-12214460D02*
X20360658Y-12195412D01*
X20360658Y-12195412D02*
X20360658Y-12119222D01*
X20360658Y-12119222D02*
X20370182Y-12100174D01*
X20370182Y-12100174D02*
X20389230Y-12090650D01*
X20389230Y-12090650D02*
X20427325Y-12090650D01*
X20427325Y-12090650D02*
X20446373Y-12100174D01*
X20446373Y-12100174D02*
X20455896Y-12119222D01*
X20455896Y-12119222D02*
X20455896Y-12138269D01*
X20455896Y-12138269D02*
X20360658Y-12157317D01*
X20627325Y-12223984D02*
X20627325Y-12023984D01*
X20627325Y-12214460D02*
X20608277Y-12223984D01*
X20608277Y-12223984D02*
X20570182Y-12223984D01*
X20570182Y-12223984D02*
X20551135Y-12214460D01*
X20551135Y-12214460D02*
X20541611Y-12204936D01*
X20541611Y-12204936D02*
X20532087Y-12185888D01*
X20532087Y-12185888D02*
X20532087Y-12128746D01*
X20532087Y-12128746D02*
X20541611Y-12109698D01*
X20541611Y-12109698D02*
X20551135Y-12100174D01*
X20551135Y-12100174D02*
X20570182Y-12090650D01*
X20570182Y-12090650D02*
X20608277Y-12090650D01*
X20608277Y-12090650D02*
X20627325Y-12100174D01*
X20703516Y-12300174D02*
X20713039Y-12290650D01*
X20713039Y-12290650D02*
X20732087Y-12262079D01*
X20732087Y-12262079D02*
X20741611Y-12243031D01*
X20741611Y-12243031D02*
X20751135Y-12214460D01*
X20751135Y-12214460D02*
X20760658Y-12166841D01*
X20760658Y-12166841D02*
X20760658Y-12128746D01*
X20760658Y-12128746D02*
X20751135Y-12081127D01*
X20751135Y-12081127D02*
X20741611Y-12052555D01*
X20741611Y-12052555D02*
X20732087Y-12033508D01*
X20732087Y-12033508D02*
X20713039Y-12004936D01*
X20713039Y-12004936D02*
X20703516Y-11995412D01*
M02*
