0
SECTION
2
HEADER
9
$INSUNITS
70
4
9
$ACADVER
1
AC1014
9
$HANDSEED
5
FFFF
0
ENDSEC
0
SECTION
2
TABLES
0
TABLE
2
VPORT
5
8
100
AcDbSymbolTable
0
ENDTAB
0
TABLE
2
LTYPE
5
5
100
AcDbSymbolTable
70
2
0
LTYPE
5
14
100
AcDbSymbolTableRecord
100
AcDbLinetypeTableRecord
2
BYBLOCK
70
0
0
LTYPE
5
15
100
AcDbSymbolTableRecord
100
AcDbLinetypeTableRecord
2
BYLAYER
70
0
0
ENDTAB
0
TABLE
2
LAYER
5
2
100
AcDbSymbolTable
70
3
0
LAYER
5
50
100
AcDbSymbolTableRecord
100
AcDbLayerTableRecord
2
0
70
0
6
CONTINUOUS
0
LAYER
5
51
100
AcDbSymbolTableRecord
100
AcDbLayerTableRecord
2
CUTOUTS
70
0
62
1
6
CONTINUOUS
0
LAYER
5
52
100
AcDbSymbolTableRecord
100
AcDbLayerTableRecord
2
PERIMETER
70
0
62
5
6
CONTINUOUS
0
ENDTAB
0
TABLE
2
STYLE
5
3
100
AcDbSymbolTable
70
1
0
STYLE
5
11
100
AcDbSymbolTableRecord
100
AcDbTextStyleTableRecord
2
STANDARD
70
0
0
ENDTAB
0
TABLE
2
VIEW
5
6
100
AcDbSymbolTable
0
ENDTAB
0
TABLE
2
UCS
5
7
100
AcDbSymbolTable
0
ENDTAB
0
TABLE
2
APPID
5
9
100
AcDbSymbolTable
70
1
0
APPID
5
12
100
AcDbSymbolTableRecord
100
AcDbRegAppTableRecord
2
ACAD
70
0
0
ENDTAB
0
TABLE
2
DIMSTYLE
5
A
100
AcDbSymbolTable
0
ENDTAB
0
TABLE
2
BLOCK_RECORD
5
1
100
AcDbSymbolTable
70
2
0
BLOCK_RECORD
5
1F
100
AcDbSymbolTableRecord
100
AcDbBlockTableRecord
2
*MODEL_SPACE
0
BLOCK_RECORD
5
1B
100
AcDbSymbolTableRecord
100
AcDbBlockTableRecord
2
*PAPER_SPACE
0
ENDTAB
0
ENDSEC
0
SECTION
2
BLOCKS
0
BLOCK
5
20
100
AcDbEntity
100
AcDbBlockBegin
2
*MODEL_SPACE
0
ENDBLK
5
21
100
AcDbEntity
100
AcDbBlockEnd
0
BLOCK
5
1C
100
AcDbEntity
100
AcDbBlockBegin
2
*PAPER_SPACE
0
ENDBLK
5
1D
100
AcDbEntity
100
AcDbBlockEnd
0
ENDSEC
0
SECTION
2
ENTITIES
0
CIRCLE
5
100
100
AcDbEntity
8
CUTOUTS
100
AcDbCircle
10
10.261482850412735
20
-0.060536364017179448
30
-5.1070259132757201e-14
40
2.4250000000000038
210
0
220
0
230
1
0
CIRCLE
5
101
100
AcDbEntity
8
CUTOUTS
100
AcDbCircle
10
65.000000968575478
20
109.00000162422657
30
-1.1102230246251565e-15
40
2.4249999999999972
210
0
220
0
230
1
0
LWPOLYLINE
5
102
100
AcDbEntity
8
CUTOUTS
100
AcDbPolyline
90
8
70
1
43
0.0
10
30.074999575316909
20
46.799998372793198
10
30.074999575316909
20
60.799998372793205
42
-0.41421356237309082
10
30.999999575316906
20
61.724998372793181
10
44.999999575316913
20
61.724998372793188
42
-0.4142135623730922
10
45.924999575316903
20
60.799998372793183
10
45.924999575316903
20
46.799998372793191
42
-0.41421356237309792
10
44.999999575316906
20
45.8749983727932
10
30.999999575316906
20
45.874998372793208
42
-0.41421356237309503
0
LWPOLYLINE
5
103
100
AcDbEntity
8
CUTOUTS
100
AcDbPolyline
90
8
70
1
43
0.0
10
30.074999575316905
20
65.799998372793169
42
0.41421356237309503
10
30.999999575316906
20
64.874998372793172
10
44.999999575316906
20
64.874998372793172
42
0.4142135623731007
10
45.924999575316903
20
65.799998372793169
10
45.924999575316903
20
79.799998372793198
42
0.4142135623731007
10
44.999999575316913
20
80.724998372793209
10
30.999999575316906
20
80.724998372793209
42
0.41421356237308099
10
30.074999575316905
20
79.799998372793183
0
LWPOLYLINE
5
104
100
AcDbEntity
8
CUTOUTS
100
AcDbPolyline
90
4
70
1
43
0.0
10
18.575000275671485
20
96.925001445412633
10
57.367166758293813
20
96.925001445412633
10
57.367166758293813
20
84.446705829059781
10
18.575000275671485
20
84.446705829059738
0
LWPOLYLINE
5
105
100
AcDbEntity
8
CUTOUTS
100
AcDbPolyline
90
8
70
1
43
0.0
10
30.999999575316906
20
23.724998372793202
10
44.999999575316906
20
23.724998372793202
42
-0.41421356237309082
10
45.924999575316903
20
22.799998372793201
10
45.924999575316903
20
8.7999983727931976
42
-0.41421356237309681
10
44.999999575316906
20
7.8749983727931907
10
30.999999575316906
20
7.8749983727931925
42
-0.41421356237309293
10
30.074999575316905
20
8.7999983727931976
10
30.074999575316909
20
22.799998372793201
42
-0.41421356237309792
0
LWPOLYLINE
5
106
100
AcDbEntity
8
CUTOUTS
100
AcDbPolyline
90
8
70
1
43
0.0
10
49.074999575316909
20
8.7999983727931976
10
49.074999575316909
20
22.799998372793201
42
-0.41421356237309648
10
49.999999575316906
20
23.724998372793202
10
63.999999575316906
20
23.724998372793202
42
-0.41421356237309648
10
64.924999575316903
20
22.799998372793201
10
64.924999575316903
20
8.7999983727931976
42
-0.41421356237309681
10
63.999999575316906
20
7.8749983727931907
10
49.999999575316906
20
7.8749983727932014
42
-0.41421356237309576
0
LWPOLYLINE
5
107
100
AcDbEntity
8
CUTOUTS
100
AcDbPolyline
90
8
70
1
43
0.0
10
49.999999575316906
20
61.724998372793181
10
63.999999575316913
20
61.724998372793181
42
-0.4142135623730922
10
64.924999575316903
20
60.799998372793183
10
64.924999575316903
20
46.799998372793191
42
-0.41421356237309792
10
63.999999575316906
20
45.8749983727932
10
49.999999575316906
20
45.874998372793208
42
-0.41421356237309503
10
49.074999575316909
20
46.799998372793198
10
49.074999575316909
20
60.799998372793205
42
-0.41421356237308943
0
LWPOLYLINE
5
108
100
AcDbEntity
8
CUTOUTS
100
AcDbPolyline
90
8
70
1
43
0.0
10
26.92499957531691
20
79.799998372793198
10
26.92499957531691
20
65.799998372793183
42
-0.41421356237309792
10
25.999999575316906
20
64.874998372793172
10
11.99999957531691
20
64.874998372793172
42
-0.41421356237309503
10
11.074999575316909
20
65.799998372793169
10
11.074999575316905
20
79.799998372793183
42
-0.41421356237308449
10
11.999999575316911
20
80.724998372793209
10
25.999999575316906
20
80.724998372793209
42
-0.41421356237310203
0
LWPOLYLINE
5
109
100
AcDbEntity
8
CUTOUTS
100
AcDbPolyline
90
8
70
1
43
0.0
10
49.999999575316906
20
42.724998372793195
10
63.999999575316913
20
42.724998372793195
42
-0.4142135623730922
10
64.924999575316903
20
41.799998372793198
10
64.924999575316903
20
27.799998372793191
42
-0.41421356237309648
10
63.999999575316906
20
26.874998372793186
10
49.999999575316906
20
26.87499837279319
42
-0.41421356237309648
10
49.074999575316909
20
27.799998372793191
10
49.074999575316909
20
41.799998372793198
42
-0.41421356237309503
0
LWPOLYLINE
5
10A
100
AcDbEntity
8
CUTOUTS
100
AcDbPolyline
90
8
70
1
43
0.0
10
45.924999575316903
20
41.799998372793198
42
0.41421356237308943
10
44.999999575316913
20
42.724998372793209
10
30.999999575316906
20
42.724998372793195
42
0.41421356237309648
10
30.074999575316909
20
41.799998372793198
10
30.074999575316905
20
27.799998372793191
42
0.41421356237309082
10
30.999999575316906
20
26.874998372793183
10
44.999999575316906
20
26.874998372793186
42
0.41421356237309503
10
45.924999575316903
20
27.799998372793183
0
LWPOLYLINE
5
10B
100
AcDbEntity
8
CUTOUTS
100
AcDbPolyline
90
8
70
1
43
0.0
10
11.99999957531691
20
23.724998372793202
10
25.999999575316906
20
23.724998372793209
42
-0.41421356237309082
10
26.92499957531691
20
22.799998372793201
10
26.92499957531691
20
8.7999983727931976
42
-0.41421356237309293
10
25.999999575316906
20
7.8749983727931925
10
11.99999957531691
20
7.8749983727931969
42
-0.41421356237309503
10
11.074999575316909
20
8.7999983727931976
10
11.074999575316911
20
22.799998372793201
42
-0.41421356237309792
0
LWPOLYLINE
5
10C
100
AcDbEntity
8
CUTOUTS
100
AcDbPolyline
90
8
70
1
43
0.0
10
49.999999575316906
20
80.724998372793209
10
63.999999575316913
20
80.724998372793209
42
-0.41421356237308377
10
64.924999575316903
20
79.799998372793198
10
64.924999575316903
20
65.799998372793183
42
-0.41421356237310347
10
63.999999575316906
20
64.874998372793172
10
49.999999575316906
20
64.874998372793172
42
-0.41421356237309503
10
49.074999575316909
20
65.799998372793169
10
49.074999575316895
20
79.799998372793169
42
-0.41421356237308377
0
LWPOLYLINE
5
10D
100
AcDbEntity
8
CUTOUTS
100
AcDbPolyline
90
8
70
1
43
0.0
10
25.999999575316906
20
45.8749983727932
42
0.41421356237309503
10
26.92499957531691
20
46.799998372793198
10
26.924999575316907
20
60.799998372793183
42
0.4142135623730922
10
25.999999575316906
20
61.724998372793195
10
11.99999957531691
20
61.724998372793181
42
0.41421356237309648
10
11.074999575316911
20
60.799998372793183
10
11.074999575316909
20
46.799998372793198
42
0.41421356237309503
10
11.99999957531691
20
45.8749983727932
0
LWPOLYLINE
5
10E
100
AcDbEntity
8
CUTOUTS
100
AcDbPolyline
90
8
70
1
43
0.0
10
25.999999575316906
20
26.874998372793183
42
0.4142135623730922
10
26.92499957531691
20
27.799998372793183
10
26.92499957531691
20
41.799998372793198
42
0.41421356237309503
10
25.999999575316906
20
42.724998372793202
10
11.99999957531691
20
42.724998372793195
42
0.41421356237309648
10
11.074999575316911
20
41.799998372793198
10
11.074999575316905
20
27.799998372793191
42
0.41421356237309154
10
11.99999957531691
20
26.874998372793186
0
SPLINE
5
10F
100
AcDbEntity
8
PERIMETER
100
AcDbSpline
70
0
71
3
72
8
73
4
74
0
42
0.000000001
43
0.0000000001
44
0.0000000001
40
-0.99922214834911238
40
-0.99922214834911238
40
-0.99922214834911238
40
-0.99922214834911238
40
-0.60892102882403076
40
-0.60892102882403076
40
-0.60892102882403076
40
-0.60892102882403076
10
71.802482043721312
20
112.0118976742681
30
-2.2204460492503131e-15
10
69.994565010275991
20
112.67880463994219
30
0
10
68.145892380594731
20
112.9824299988495
30
0
10
66.285620147195417
20
113.04190806410099
30
-2.2204460492503131e-15
0
LINE
5
110
100
AcDbEntity
8
PERIMETER
100
AcDbLine
10
66.285620147195417
20
113.04190806410099
30
-2.2204460492503131e-15
11
66.284880451592429
21
113.04193170166371
31
-2.2204463139481091e-15
0
SPLINE
5
111
100
AcDbEntity
8
PERIMETER
100
AcDbSpline
70
0
71
3
72
11
73
7
74
0
42
0.000000001
43
0.0000000001
44
0.0000000001
40
-0.60886931679308687
40
-0.60886931679308687
40
-0.60886931679308687
40
-0.60886931679308687
40
-0.60886373190636056
40
-0.60886373190636056
40
-0.60886373190636056
40
0
40
0
40
0
40
0
10
66.284880451592429
20
113.0419317016637
30
-1.1102230246251565e-15
10
66.284853925156341
20
113.04193254877819
30
-1.1102230246251565e-15
10
66.28482739871869
20
113.04193339589274
30
-1.1102230246251565e-15
10
66.284800872282588
20
113.0419342430072
30
-1.1102230246251565e-15
10
63.382799660408651
20
113.13460885884474
30
0
10
60.462405486771161
20
112.7024830102249
30
1.1102230246251565e-15
10
57.639287157729655
20
111.78898364086992
30
-1.1102230246251565e-15
0
ARC
5
112
100
AcDbEntity
8
PERIMETER
100
AcDbCircle
10
65.883589218409327
20
86.310432655012704
30
0
40
26.779191115615358
210
-1.2763483338902919e-17
220
3.9444826088840296e-17
230
1
100
AcDbArc
50
107.93044694704913
51
129.15874167055472
0
LINE
5
113
100
AcDbEntity
8
PERIMETER
100
AcDbLine
10
48.973303781224089
20
107.07500159442425
30
-3.4641861455634435e-16
11
-2.0750000303933547
21
107.07500159442421
31
-2.2204460492503131e-15
0
LINE
5
114
100
AcDbEntity
8
PERIMETER
100
AcDbLine
10
-2.0750000303933547
20
107.07500159442421
30
-2.2204460492503131e-15
11
-2.0749992100994072
21
2.9823578333757794
31
-1.1102230246251565e-15
0
SPLINE
5
115
100
AcDbEntity
8
PERIMETER
100
AcDbSpline
70
0
71
3
72
14
73
10
74
0
42
0.000000001
43
0.0000000001
44
0.0000000001
40
-0.0020854973017731598
40
-0.0020854973017731598
40
-0.0020854973017731598
40
-0.0020854973017731598
40
0
40
0
40
0
40
0.58263509276089531
40
0.58263509276089531
40
0.58263509276089531
40
1
40
1
40
1
40
1
10
-2.074999210099401
20
2.9823578333757803
30
0
10
-2.0723771840349459
20
2.9770934074520357
30
0
10
-2.0697551579704903
20
2.9718289815282879
30
-1.1102230246251565e-15
10
-2.0671331319060342
20
2.966564555604541
30
-1.1102230246251565e-15
10
-1.3326191882998795
20
1.4918293123159754
30
0
10
-0.51827722437934343
20
0.091310265175060593
30
-1.1102230246251565e-15
10
0.55403579884390064
20
-1.0818906101835588
30
-1.1102230246251565e-15
10
1.3221766661371779
20
-1.9223014961749951
30
0
10
2.2478709369034582
20
-2.6247021456800961
30
0
10
3.4481929482053468
20
-3.0684409062776168
30
-1.1102230246251565e-15
0
SPLINE
5
116
100
AcDbEntity
8
PERIMETER
100
AcDbSpline
70
0
71
3
72
11
73
7
74
0
42
0.000000001
43
0.0000000001
44
0.0000000001
40
-1
40
-1
40
-1
40
-1
40
-0.34350144710816766
40
-0.34350144710816766
40
-0.34350144710816766
40
0
40
0
40
0
40
0
10
3.4481929482053464
20
-3.0684409062776168
30
-1.1102230246251565e-15
10
6.4846471088888089
20
-4.1909666895142905
30
-1.1102230246251565e-15
10
9.6321204293597447
20
-4.212621300670218
30
-1.1102230246251565e-15
10
12.738162691889336
20
-3.765849625483197
30
0
10
14.363345271893948
20
-3.5320841186474676
30
-1.1102230246251565e-15
10
15.974868215057485
20
-3.1600370165150427
30
0
10
17.557018157030424
20
-2.6480878858854364
30
-1.1102230246251565e-15
0
ARC
5
117
100
AcDbEntity
8
PERIMETER
100
AcDbCircle
10
9.3778946005788928
20
22.629032605196684
30
0
40
26.567477909511549
210
9.5642549080856956e-18
220
-4.0827269165038718e-17
230
1
100
AcDbArc
50
287.93044694704906
51
308.80348151470139
0
LINE
5
118
100
AcDbEntity
8
PERIMETER
100
AcDbLine
10
26.026435605405496
20
1.9250000298023107
30
3.7734261870595549e-16
11
77.075001147389415
21
1.9250000298023195
31
-1.1102230246251565e-15
0
LINE
5
119
100
AcDbEntity
8
PERIMETER
100
AcDbLine
10
77.075001147389415
20
1.9250000298023195
30
-1.1102230246251565e-15
11
77.075001147389415
21
106.00000157952309
31
0
0
SPLINE
5
11A
100
AcDbEntity
8
PERIMETER
100
AcDbSpline
70
0
71
3
72
11
73
7
74
0
42
0.000000001
43
0.0000000001
44
0.0000000001
40
0
40
0
40
0
40
0
40
0.6494228374595975
40
0.6494228374595975
40
0.6494228374595975
40
1
40
1
40
1
40
1
10
77.075001147389415
20
106.00000157952307
30
-2.2204460492503131e-15
10
77.075001147389415
20
108.06854048768825
30
2.2204460492503131e-15
10
75.955583209556934
20
109.4971365588608
30
-2.2204460492503131e-15
10
74.487026535913813
20
110.58064384640286
30
-2.2204460492503131e-15
10
73.694257323039295
20
111.16555230441803
30
0
10
72.795111611151015
20
111.6449436328021
30
0
10
71.813290870782851
20
112.007906166487
30
-2.2204460492503131e-15
0
LINE
5
11B
100
AcDbEntity
8
PERIMETER
100
AcDbLine
10
71.813290870782865
20
112.00790616648698
30
-2.2204460492503123e-15
11
71.802499036175959
21
112.01188988884225
31
-2.2203782866145327e-15
0
LINE
5
11C
100
AcDbEntity
8
PERIMETER
100
AcDbLine
10
71.802499036175959
20
112.01188988884225
30
-2.2203782866145327e-15
11
71.802482043721312
21
112.0118976742681
31
-2.2204460492503131e-15
0
ENDSEC
0
SECTION
2
OBJECTS
0
DICTIONARY
5
C
100
AcDbDictionary
3
ACAD_GROUP
350
D
3
ACAD_MLINESTYLE
350
17
0
DICTIONARY
5
D
100
AcDbDictionary
0
DICTIONARY
5
1A
330
C
100
AcDbDictionary
0
DICTIONARY
5
17
100
AcDbDictionary
0
ENDSEC
0
EOF
