M48
; DRILL file {KiCad 8.0.5} date 2024-10-09T00:41:18-0500
; FORMAT={-:-/ absolute / metric / decimal}
; #@! TF.CreationDate,2024-10-09T00:41:18-05:00
; #@! TF.GenerationSoftware,Kicad,Pcbnew,8.0.5
; #@! TF.FileFunction,NonPlated,1,2,NPTH
FMAT,2
METRIC
; #@! TA.AperFunction,NonPlated,NPTH,ComponentDrill
T1C1.700
; #@! TA.AperFunction,NonPlated,NPTH,ComponentDrill
T2C4.000
%
G90
G05
T1
X137.795Y-66.675
X137.795Y-85.725
X137.795Y-104.775
X147.955Y-66.675
X147.955Y-85.725
X147.955Y-104.775
X156.845Y-66.675
X156.845Y-85.725
X156.845Y-104.775
X167.005Y-66.675
X167.005Y-85.725
X167.005Y-104.775
X175.895Y-66.675
X175.895Y-85.725
X175.895Y-104.775
X186.055Y-66.675
X186.055Y-85.725
X186.055Y-104.775
T2
X142.875Y-66.675
X142.875Y-85.725
X142.875Y-104.775
X161.925Y-66.675
X161.925Y-85.725
X161.925Y-104.775
X180.975Y-66.675
X180.975Y-85.725
X180.975Y-104.775
M30
