%TF.GenerationSoftware,KiCad,Pcbnew,8.0.5*%
%TF.CreationDate,2024-10-10T18:30:33-04:00*%
%TF.ProjectId,Hackpad-Kicad,4861636b-7061-4642-9d4b-696361642e6b,rev?*%
%TF.SameCoordinates,Original*%
%TF.FileFunction,Legend,Top*%
%TF.FilePolarity,Positive*%
%FSLAX46Y46*%
G04 Gerber Fmt 4.6, Leading zero omitted, Abs format (unit mm)*
G04 Created by KiCad (PCBNEW 8.0.5) date 2024-10-10 18:30:33*
%MOMM*%
%LPD*%
G01*
G04 APERTURE LIST*
%ADD10C,0.150000*%
%ADD11C,0.101600*%
%ADD12C,0.120000*%
%ADD13C,0.127000*%
%ADD14C,0.254000*%
%ADD15C,0.025400*%
G04 APERTURE END LIST*
D10*
X118916667Y-72903200D02*
X119059524Y-72950819D01*
X119059524Y-72950819D02*
X119297619Y-72950819D01*
X119297619Y-72950819D02*
X119392857Y-72903200D01*
X119392857Y-72903200D02*
X119440476Y-72855580D01*
X119440476Y-72855580D02*
X119488095Y-72760342D01*
X119488095Y-72760342D02*
X119488095Y-72665104D01*
X119488095Y-72665104D02*
X119440476Y-72569866D01*
X119440476Y-72569866D02*
X119392857Y-72522247D01*
X119392857Y-72522247D02*
X119297619Y-72474628D01*
X119297619Y-72474628D02*
X119107143Y-72427009D01*
X119107143Y-72427009D02*
X119011905Y-72379390D01*
X119011905Y-72379390D02*
X118964286Y-72331771D01*
X118964286Y-72331771D02*
X118916667Y-72236533D01*
X118916667Y-72236533D02*
X118916667Y-72141295D01*
X118916667Y-72141295D02*
X118964286Y-72046057D01*
X118964286Y-72046057D02*
X119011905Y-71998438D01*
X119011905Y-71998438D02*
X119107143Y-71950819D01*
X119107143Y-71950819D02*
X119345238Y-71950819D01*
X119345238Y-71950819D02*
X119488095Y-71998438D01*
X119821429Y-71950819D02*
X120059524Y-72950819D01*
X120059524Y-72950819D02*
X120250000Y-72236533D01*
X120250000Y-72236533D02*
X120440476Y-72950819D01*
X120440476Y-72950819D02*
X120678572Y-71950819D01*
X121583333Y-72950819D02*
X121011905Y-72950819D01*
X121297619Y-72950819D02*
X121297619Y-71950819D01*
X121297619Y-71950819D02*
X121202381Y-72093676D01*
X121202381Y-72093676D02*
X121107143Y-72188914D01*
X121107143Y-72188914D02*
X121011905Y-72236533D01*
X149096667Y-103083200D02*
X149239524Y-103130819D01*
X149239524Y-103130819D02*
X149477619Y-103130819D01*
X149477619Y-103130819D02*
X149572857Y-103083200D01*
X149572857Y-103083200D02*
X149620476Y-103035580D01*
X149620476Y-103035580D02*
X149668095Y-102940342D01*
X149668095Y-102940342D02*
X149668095Y-102845104D01*
X149668095Y-102845104D02*
X149620476Y-102749866D01*
X149620476Y-102749866D02*
X149572857Y-102702247D01*
X149572857Y-102702247D02*
X149477619Y-102654628D01*
X149477619Y-102654628D02*
X149287143Y-102607009D01*
X149287143Y-102607009D02*
X149191905Y-102559390D01*
X149191905Y-102559390D02*
X149144286Y-102511771D01*
X149144286Y-102511771D02*
X149096667Y-102416533D01*
X149096667Y-102416533D02*
X149096667Y-102321295D01*
X149096667Y-102321295D02*
X149144286Y-102226057D01*
X149144286Y-102226057D02*
X149191905Y-102178438D01*
X149191905Y-102178438D02*
X149287143Y-102130819D01*
X149287143Y-102130819D02*
X149525238Y-102130819D01*
X149525238Y-102130819D02*
X149668095Y-102178438D01*
X150001429Y-102130819D02*
X150239524Y-103130819D01*
X150239524Y-103130819D02*
X150430000Y-102416533D01*
X150430000Y-102416533D02*
X150620476Y-103130819D01*
X150620476Y-103130819D02*
X150858572Y-102130819D01*
X151287143Y-103130819D02*
X151477619Y-103130819D01*
X151477619Y-103130819D02*
X151572857Y-103083200D01*
X151572857Y-103083200D02*
X151620476Y-103035580D01*
X151620476Y-103035580D02*
X151715714Y-102892723D01*
X151715714Y-102892723D02*
X151763333Y-102702247D01*
X151763333Y-102702247D02*
X151763333Y-102321295D01*
X151763333Y-102321295D02*
X151715714Y-102226057D01*
X151715714Y-102226057D02*
X151668095Y-102178438D01*
X151668095Y-102178438D02*
X151572857Y-102130819D01*
X151572857Y-102130819D02*
X151382381Y-102130819D01*
X151382381Y-102130819D02*
X151287143Y-102178438D01*
X151287143Y-102178438D02*
X151239524Y-102226057D01*
X151239524Y-102226057D02*
X151191905Y-102321295D01*
X151191905Y-102321295D02*
X151191905Y-102559390D01*
X151191905Y-102559390D02*
X151239524Y-102654628D01*
X151239524Y-102654628D02*
X151287143Y-102702247D01*
X151287143Y-102702247D02*
X151382381Y-102749866D01*
X151382381Y-102749866D02*
X151572857Y-102749866D01*
X151572857Y-102749866D02*
X151668095Y-102702247D01*
X151668095Y-102702247D02*
X151715714Y-102654628D01*
X151715714Y-102654628D02*
X151763333Y-102559390D01*
X134006667Y-72903200D02*
X134149524Y-72950819D01*
X134149524Y-72950819D02*
X134387619Y-72950819D01*
X134387619Y-72950819D02*
X134482857Y-72903200D01*
X134482857Y-72903200D02*
X134530476Y-72855580D01*
X134530476Y-72855580D02*
X134578095Y-72760342D01*
X134578095Y-72760342D02*
X134578095Y-72665104D01*
X134578095Y-72665104D02*
X134530476Y-72569866D01*
X134530476Y-72569866D02*
X134482857Y-72522247D01*
X134482857Y-72522247D02*
X134387619Y-72474628D01*
X134387619Y-72474628D02*
X134197143Y-72427009D01*
X134197143Y-72427009D02*
X134101905Y-72379390D01*
X134101905Y-72379390D02*
X134054286Y-72331771D01*
X134054286Y-72331771D02*
X134006667Y-72236533D01*
X134006667Y-72236533D02*
X134006667Y-72141295D01*
X134006667Y-72141295D02*
X134054286Y-72046057D01*
X134054286Y-72046057D02*
X134101905Y-71998438D01*
X134101905Y-71998438D02*
X134197143Y-71950819D01*
X134197143Y-71950819D02*
X134435238Y-71950819D01*
X134435238Y-71950819D02*
X134578095Y-71998438D01*
X134911429Y-71950819D02*
X135149524Y-72950819D01*
X135149524Y-72950819D02*
X135340000Y-72236533D01*
X135340000Y-72236533D02*
X135530476Y-72950819D01*
X135530476Y-72950819D02*
X135768572Y-71950819D01*
X136578095Y-72284152D02*
X136578095Y-72950819D01*
X136340000Y-71903200D02*
X136101905Y-72617485D01*
X136101905Y-72617485D02*
X136720952Y-72617485D01*
X134006667Y-87993200D02*
X134149524Y-88040819D01*
X134149524Y-88040819D02*
X134387619Y-88040819D01*
X134387619Y-88040819D02*
X134482857Y-87993200D01*
X134482857Y-87993200D02*
X134530476Y-87945580D01*
X134530476Y-87945580D02*
X134578095Y-87850342D01*
X134578095Y-87850342D02*
X134578095Y-87755104D01*
X134578095Y-87755104D02*
X134530476Y-87659866D01*
X134530476Y-87659866D02*
X134482857Y-87612247D01*
X134482857Y-87612247D02*
X134387619Y-87564628D01*
X134387619Y-87564628D02*
X134197143Y-87517009D01*
X134197143Y-87517009D02*
X134101905Y-87469390D01*
X134101905Y-87469390D02*
X134054286Y-87421771D01*
X134054286Y-87421771D02*
X134006667Y-87326533D01*
X134006667Y-87326533D02*
X134006667Y-87231295D01*
X134006667Y-87231295D02*
X134054286Y-87136057D01*
X134054286Y-87136057D02*
X134101905Y-87088438D01*
X134101905Y-87088438D02*
X134197143Y-87040819D01*
X134197143Y-87040819D02*
X134435238Y-87040819D01*
X134435238Y-87040819D02*
X134578095Y-87088438D01*
X134911429Y-87040819D02*
X135149524Y-88040819D01*
X135149524Y-88040819D02*
X135340000Y-87326533D01*
X135340000Y-87326533D02*
X135530476Y-88040819D01*
X135530476Y-88040819D02*
X135768572Y-87040819D01*
X136625714Y-87040819D02*
X136149524Y-87040819D01*
X136149524Y-87040819D02*
X136101905Y-87517009D01*
X136101905Y-87517009D02*
X136149524Y-87469390D01*
X136149524Y-87469390D02*
X136244762Y-87421771D01*
X136244762Y-87421771D02*
X136482857Y-87421771D01*
X136482857Y-87421771D02*
X136578095Y-87469390D01*
X136578095Y-87469390D02*
X136625714Y-87517009D01*
X136625714Y-87517009D02*
X136673333Y-87612247D01*
X136673333Y-87612247D02*
X136673333Y-87850342D01*
X136673333Y-87850342D02*
X136625714Y-87945580D01*
X136625714Y-87945580D02*
X136578095Y-87993200D01*
X136578095Y-87993200D02*
X136482857Y-88040819D01*
X136482857Y-88040819D02*
X136244762Y-88040819D01*
X136244762Y-88040819D02*
X136149524Y-87993200D01*
X136149524Y-87993200D02*
X136101905Y-87945580D01*
D11*
X118947666Y-64176985D02*
X118947666Y-64896652D01*
X118947666Y-64896652D02*
X118990000Y-64981318D01*
X118990000Y-64981318D02*
X119032333Y-65023652D01*
X119032333Y-65023652D02*
X119117000Y-65065985D01*
X119117000Y-65065985D02*
X119286333Y-65065985D01*
X119286333Y-65065985D02*
X119371000Y-65023652D01*
X119371000Y-65023652D02*
X119413333Y-64981318D01*
X119413333Y-64981318D02*
X119455666Y-64896652D01*
X119455666Y-64896652D02*
X119455666Y-64176985D01*
X120344666Y-65065985D02*
X119836666Y-65065985D01*
X120090666Y-65065985D02*
X120090666Y-64176985D01*
X120090666Y-64176985D02*
X120005999Y-64303985D01*
X120005999Y-64303985D02*
X119921333Y-64388652D01*
X119921333Y-64388652D02*
X119836666Y-64430985D01*
D10*
X114863095Y-61027200D02*
X115005952Y-61074819D01*
X115005952Y-61074819D02*
X115244047Y-61074819D01*
X115244047Y-61074819D02*
X115339285Y-61027200D01*
X115339285Y-61027200D02*
X115386904Y-60979580D01*
X115386904Y-60979580D02*
X115434523Y-60884342D01*
X115434523Y-60884342D02*
X115434523Y-60789104D01*
X115434523Y-60789104D02*
X115386904Y-60693866D01*
X115386904Y-60693866D02*
X115339285Y-60646247D01*
X115339285Y-60646247D02*
X115244047Y-60598628D01*
X115244047Y-60598628D02*
X115053571Y-60551009D01*
X115053571Y-60551009D02*
X114958333Y-60503390D01*
X114958333Y-60503390D02*
X114910714Y-60455771D01*
X114910714Y-60455771D02*
X114863095Y-60360533D01*
X114863095Y-60360533D02*
X114863095Y-60265295D01*
X114863095Y-60265295D02*
X114910714Y-60170057D01*
X114910714Y-60170057D02*
X114958333Y-60122438D01*
X114958333Y-60122438D02*
X115053571Y-60074819D01*
X115053571Y-60074819D02*
X115291666Y-60074819D01*
X115291666Y-60074819D02*
X115434523Y-60122438D01*
X116244047Y-61027200D02*
X116148809Y-61074819D01*
X116148809Y-61074819D02*
X115958333Y-61074819D01*
X115958333Y-61074819D02*
X115863095Y-61027200D01*
X115863095Y-61027200D02*
X115815476Y-60931961D01*
X115815476Y-60931961D02*
X115815476Y-60551009D01*
X115815476Y-60551009D02*
X115863095Y-60455771D01*
X115863095Y-60455771D02*
X115958333Y-60408152D01*
X115958333Y-60408152D02*
X116148809Y-60408152D01*
X116148809Y-60408152D02*
X116244047Y-60455771D01*
X116244047Y-60455771D02*
X116291666Y-60551009D01*
X116291666Y-60551009D02*
X116291666Y-60646247D01*
X116291666Y-60646247D02*
X115815476Y-60741485D01*
X117101190Y-61027200D02*
X117005952Y-61074819D01*
X117005952Y-61074819D02*
X116815476Y-61074819D01*
X116815476Y-61074819D02*
X116720238Y-61027200D01*
X116720238Y-61027200D02*
X116672619Y-60931961D01*
X116672619Y-60931961D02*
X116672619Y-60551009D01*
X116672619Y-60551009D02*
X116720238Y-60455771D01*
X116720238Y-60455771D02*
X116815476Y-60408152D01*
X116815476Y-60408152D02*
X117005952Y-60408152D01*
X117005952Y-60408152D02*
X117101190Y-60455771D01*
X117101190Y-60455771D02*
X117148809Y-60551009D01*
X117148809Y-60551009D02*
X117148809Y-60646247D01*
X117148809Y-60646247D02*
X116672619Y-60741485D01*
X117958333Y-61027200D02*
X117863095Y-61074819D01*
X117863095Y-61074819D02*
X117672619Y-61074819D01*
X117672619Y-61074819D02*
X117577381Y-61027200D01*
X117577381Y-61027200D02*
X117529762Y-60931961D01*
X117529762Y-60931961D02*
X117529762Y-60551009D01*
X117529762Y-60551009D02*
X117577381Y-60455771D01*
X117577381Y-60455771D02*
X117672619Y-60408152D01*
X117672619Y-60408152D02*
X117863095Y-60408152D01*
X117863095Y-60408152D02*
X117958333Y-60455771D01*
X117958333Y-60455771D02*
X118005952Y-60551009D01*
X118005952Y-60551009D02*
X118005952Y-60646247D01*
X118005952Y-60646247D02*
X117529762Y-60741485D01*
X118863095Y-61074819D02*
X118863095Y-60074819D01*
X118863095Y-61027200D02*
X118767857Y-61074819D01*
X118767857Y-61074819D02*
X118577381Y-61074819D01*
X118577381Y-61074819D02*
X118482143Y-61027200D01*
X118482143Y-61027200D02*
X118434524Y-60979580D01*
X118434524Y-60979580D02*
X118386905Y-60884342D01*
X118386905Y-60884342D02*
X118386905Y-60598628D01*
X118386905Y-60598628D02*
X118434524Y-60503390D01*
X118434524Y-60503390D02*
X118482143Y-60455771D01*
X118482143Y-60455771D02*
X118577381Y-60408152D01*
X118577381Y-60408152D02*
X118767857Y-60408152D01*
X118767857Y-60408152D02*
X118863095Y-60455771D01*
X120053572Y-61027200D02*
X120196429Y-61074819D01*
X120196429Y-61074819D02*
X120434524Y-61074819D01*
X120434524Y-61074819D02*
X120529762Y-61027200D01*
X120529762Y-61027200D02*
X120577381Y-60979580D01*
X120577381Y-60979580D02*
X120625000Y-60884342D01*
X120625000Y-60884342D02*
X120625000Y-60789104D01*
X120625000Y-60789104D02*
X120577381Y-60693866D01*
X120577381Y-60693866D02*
X120529762Y-60646247D01*
X120529762Y-60646247D02*
X120434524Y-60598628D01*
X120434524Y-60598628D02*
X120244048Y-60551009D01*
X120244048Y-60551009D02*
X120148810Y-60503390D01*
X120148810Y-60503390D02*
X120101191Y-60455771D01*
X120101191Y-60455771D02*
X120053572Y-60360533D01*
X120053572Y-60360533D02*
X120053572Y-60265295D01*
X120053572Y-60265295D02*
X120101191Y-60170057D01*
X120101191Y-60170057D02*
X120148810Y-60122438D01*
X120148810Y-60122438D02*
X120244048Y-60074819D01*
X120244048Y-60074819D02*
X120482143Y-60074819D01*
X120482143Y-60074819D02*
X120625000Y-60122438D01*
X120910715Y-60408152D02*
X121291667Y-60408152D01*
X121053572Y-60074819D02*
X121053572Y-60931961D01*
X121053572Y-60931961D02*
X121101191Y-61027200D01*
X121101191Y-61027200D02*
X121196429Y-61074819D01*
X121196429Y-61074819D02*
X121291667Y-61074819D01*
X122053572Y-60408152D02*
X122053572Y-61074819D01*
X121625001Y-60408152D02*
X121625001Y-60931961D01*
X121625001Y-60931961D02*
X121672620Y-61027200D01*
X121672620Y-61027200D02*
X121767858Y-61074819D01*
X121767858Y-61074819D02*
X121910715Y-61074819D01*
X121910715Y-61074819D02*
X122005953Y-61027200D01*
X122005953Y-61027200D02*
X122053572Y-60979580D01*
X122958334Y-61074819D02*
X122958334Y-60074819D01*
X122958334Y-61027200D02*
X122863096Y-61074819D01*
X122863096Y-61074819D02*
X122672620Y-61074819D01*
X122672620Y-61074819D02*
X122577382Y-61027200D01*
X122577382Y-61027200D02*
X122529763Y-60979580D01*
X122529763Y-60979580D02*
X122482144Y-60884342D01*
X122482144Y-60884342D02*
X122482144Y-60598628D01*
X122482144Y-60598628D02*
X122529763Y-60503390D01*
X122529763Y-60503390D02*
X122577382Y-60455771D01*
X122577382Y-60455771D02*
X122672620Y-60408152D01*
X122672620Y-60408152D02*
X122863096Y-60408152D01*
X122863096Y-60408152D02*
X122958334Y-60455771D01*
X123434525Y-61074819D02*
X123434525Y-60408152D01*
X123434525Y-60074819D02*
X123386906Y-60122438D01*
X123386906Y-60122438D02*
X123434525Y-60170057D01*
X123434525Y-60170057D02*
X123482144Y-60122438D01*
X123482144Y-60122438D02*
X123434525Y-60074819D01*
X123434525Y-60074819D02*
X123434525Y-60170057D01*
X124053572Y-61074819D02*
X123958334Y-61027200D01*
X123958334Y-61027200D02*
X123910715Y-60979580D01*
X123910715Y-60979580D02*
X123863096Y-60884342D01*
X123863096Y-60884342D02*
X123863096Y-60598628D01*
X123863096Y-60598628D02*
X123910715Y-60503390D01*
X123910715Y-60503390D02*
X123958334Y-60455771D01*
X123958334Y-60455771D02*
X124053572Y-60408152D01*
X124053572Y-60408152D02*
X124196429Y-60408152D01*
X124196429Y-60408152D02*
X124291667Y-60455771D01*
X124291667Y-60455771D02*
X124339286Y-60503390D01*
X124339286Y-60503390D02*
X124386905Y-60598628D01*
X124386905Y-60598628D02*
X124386905Y-60884342D01*
X124386905Y-60884342D02*
X124339286Y-60979580D01*
X124339286Y-60979580D02*
X124291667Y-61027200D01*
X124291667Y-61027200D02*
X124196429Y-61074819D01*
X124196429Y-61074819D02*
X124053572Y-61074819D01*
X118101191Y-62074819D02*
X118767857Y-63074819D01*
X118767857Y-62074819D02*
X118101191Y-63074819D01*
X119148810Y-63074819D02*
X119148810Y-62074819D01*
X119577381Y-62789104D02*
X120053571Y-62789104D01*
X119482143Y-63074819D02*
X119815476Y-62074819D01*
X119815476Y-62074819D02*
X120148809Y-63074819D01*
X120672619Y-62074819D02*
X120863095Y-62074819D01*
X120863095Y-62074819D02*
X120958333Y-62122438D01*
X120958333Y-62122438D02*
X121053571Y-62217676D01*
X121053571Y-62217676D02*
X121101190Y-62408152D01*
X121101190Y-62408152D02*
X121101190Y-62741485D01*
X121101190Y-62741485D02*
X121053571Y-62931961D01*
X121053571Y-62931961D02*
X120958333Y-63027200D01*
X120958333Y-63027200D02*
X120863095Y-63074819D01*
X120863095Y-63074819D02*
X120672619Y-63074819D01*
X120672619Y-63074819D02*
X120577381Y-63027200D01*
X120577381Y-63027200D02*
X120482143Y-62931961D01*
X120482143Y-62931961D02*
X120434524Y-62741485D01*
X120434524Y-62741485D02*
X120434524Y-62408152D01*
X120434524Y-62408152D02*
X120482143Y-62217676D01*
X120482143Y-62217676D02*
X120577381Y-62122438D01*
X120577381Y-62122438D02*
X120672619Y-62074819D01*
X153666666Y-114254819D02*
X153333333Y-113778628D01*
X153095238Y-114254819D02*
X153095238Y-113254819D01*
X153095238Y-113254819D02*
X153476190Y-113254819D01*
X153476190Y-113254819D02*
X153571428Y-113302438D01*
X153571428Y-113302438D02*
X153619047Y-113350057D01*
X153619047Y-113350057D02*
X153666666Y-113445295D01*
X153666666Y-113445295D02*
X153666666Y-113588152D01*
X153666666Y-113588152D02*
X153619047Y-113683390D01*
X153619047Y-113683390D02*
X153571428Y-113731009D01*
X153571428Y-113731009D02*
X153476190Y-113778628D01*
X153476190Y-113778628D02*
X153095238Y-113778628D01*
X154095238Y-113731009D02*
X154428571Y-113731009D01*
X154571428Y-114254819D02*
X154095238Y-114254819D01*
X154095238Y-114254819D02*
X154095238Y-113254819D01*
X154095238Y-113254819D02*
X154571428Y-113254819D01*
X155333333Y-113731009D02*
X155000000Y-113731009D01*
X155000000Y-114254819D02*
X155000000Y-113254819D01*
X155000000Y-113254819D02*
X155476190Y-113254819D01*
X156000000Y-113254819D02*
X156000000Y-113492914D01*
X155761905Y-113397676D02*
X156000000Y-113492914D01*
X156000000Y-113492914D02*
X156238095Y-113397676D01*
X155857143Y-113683390D02*
X156000000Y-113492914D01*
X156000000Y-113492914D02*
X156142857Y-113683390D01*
X156761905Y-113254819D02*
X156761905Y-113492914D01*
X156523810Y-113397676D02*
X156761905Y-113492914D01*
X156761905Y-113492914D02*
X157000000Y-113397676D01*
X156619048Y-113683390D02*
X156761905Y-113492914D01*
X156761905Y-113492914D02*
X156904762Y-113683390D01*
X134006667Y-103083200D02*
X134149524Y-103130819D01*
X134149524Y-103130819D02*
X134387619Y-103130819D01*
X134387619Y-103130819D02*
X134482857Y-103083200D01*
X134482857Y-103083200D02*
X134530476Y-103035580D01*
X134530476Y-103035580D02*
X134578095Y-102940342D01*
X134578095Y-102940342D02*
X134578095Y-102845104D01*
X134578095Y-102845104D02*
X134530476Y-102749866D01*
X134530476Y-102749866D02*
X134482857Y-102702247D01*
X134482857Y-102702247D02*
X134387619Y-102654628D01*
X134387619Y-102654628D02*
X134197143Y-102607009D01*
X134197143Y-102607009D02*
X134101905Y-102559390D01*
X134101905Y-102559390D02*
X134054286Y-102511771D01*
X134054286Y-102511771D02*
X134006667Y-102416533D01*
X134006667Y-102416533D02*
X134006667Y-102321295D01*
X134006667Y-102321295D02*
X134054286Y-102226057D01*
X134054286Y-102226057D02*
X134101905Y-102178438D01*
X134101905Y-102178438D02*
X134197143Y-102130819D01*
X134197143Y-102130819D02*
X134435238Y-102130819D01*
X134435238Y-102130819D02*
X134578095Y-102178438D01*
X134911429Y-102130819D02*
X135149524Y-103130819D01*
X135149524Y-103130819D02*
X135340000Y-102416533D01*
X135340000Y-102416533D02*
X135530476Y-103130819D01*
X135530476Y-103130819D02*
X135768572Y-102130819D01*
X136578095Y-102130819D02*
X136387619Y-102130819D01*
X136387619Y-102130819D02*
X136292381Y-102178438D01*
X136292381Y-102178438D02*
X136244762Y-102226057D01*
X136244762Y-102226057D02*
X136149524Y-102368914D01*
X136149524Y-102368914D02*
X136101905Y-102559390D01*
X136101905Y-102559390D02*
X136101905Y-102940342D01*
X136101905Y-102940342D02*
X136149524Y-103035580D01*
X136149524Y-103035580D02*
X136197143Y-103083200D01*
X136197143Y-103083200D02*
X136292381Y-103130819D01*
X136292381Y-103130819D02*
X136482857Y-103130819D01*
X136482857Y-103130819D02*
X136578095Y-103083200D01*
X136578095Y-103083200D02*
X136625714Y-103035580D01*
X136625714Y-103035580D02*
X136673333Y-102940342D01*
X136673333Y-102940342D02*
X136673333Y-102702247D01*
X136673333Y-102702247D02*
X136625714Y-102607009D01*
X136625714Y-102607009D02*
X136578095Y-102559390D01*
X136578095Y-102559390D02*
X136482857Y-102511771D01*
X136482857Y-102511771D02*
X136292381Y-102511771D01*
X136292381Y-102511771D02*
X136197143Y-102559390D01*
X136197143Y-102559390D02*
X136149524Y-102607009D01*
X136149524Y-102607009D02*
X136101905Y-102702247D01*
X154666666Y-59254819D02*
X154333333Y-58778628D01*
X154095238Y-59254819D02*
X154095238Y-58254819D01*
X154095238Y-58254819D02*
X154476190Y-58254819D01*
X154476190Y-58254819D02*
X154571428Y-58302438D01*
X154571428Y-58302438D02*
X154619047Y-58350057D01*
X154619047Y-58350057D02*
X154666666Y-58445295D01*
X154666666Y-58445295D02*
X154666666Y-58588152D01*
X154666666Y-58588152D02*
X154619047Y-58683390D01*
X154619047Y-58683390D02*
X154571428Y-58731009D01*
X154571428Y-58731009D02*
X154476190Y-58778628D01*
X154476190Y-58778628D02*
X154095238Y-58778628D01*
X155095238Y-58731009D02*
X155428571Y-58731009D01*
X155571428Y-59254819D02*
X155095238Y-59254819D01*
X155095238Y-59254819D02*
X155095238Y-58254819D01*
X155095238Y-58254819D02*
X155571428Y-58254819D01*
X156333333Y-58731009D02*
X156000000Y-58731009D01*
X156000000Y-59254819D02*
X156000000Y-58254819D01*
X156000000Y-58254819D02*
X156476190Y-58254819D01*
X157000000Y-58254819D02*
X157000000Y-58492914D01*
X156761905Y-58397676D02*
X157000000Y-58492914D01*
X157000000Y-58492914D02*
X157238095Y-58397676D01*
X156857143Y-58683390D02*
X157000000Y-58492914D01*
X157000000Y-58492914D02*
X157142857Y-58683390D01*
X157761905Y-58254819D02*
X157761905Y-58492914D01*
X157523810Y-58397676D02*
X157761905Y-58492914D01*
X157761905Y-58492914D02*
X158000000Y-58397676D01*
X157619048Y-58683390D02*
X157761905Y-58492914D01*
X157761905Y-58492914D02*
X157904762Y-58683390D01*
X118916667Y-103083200D02*
X119059524Y-103130819D01*
X119059524Y-103130819D02*
X119297619Y-103130819D01*
X119297619Y-103130819D02*
X119392857Y-103083200D01*
X119392857Y-103083200D02*
X119440476Y-103035580D01*
X119440476Y-103035580D02*
X119488095Y-102940342D01*
X119488095Y-102940342D02*
X119488095Y-102845104D01*
X119488095Y-102845104D02*
X119440476Y-102749866D01*
X119440476Y-102749866D02*
X119392857Y-102702247D01*
X119392857Y-102702247D02*
X119297619Y-102654628D01*
X119297619Y-102654628D02*
X119107143Y-102607009D01*
X119107143Y-102607009D02*
X119011905Y-102559390D01*
X119011905Y-102559390D02*
X118964286Y-102511771D01*
X118964286Y-102511771D02*
X118916667Y-102416533D01*
X118916667Y-102416533D02*
X118916667Y-102321295D01*
X118916667Y-102321295D02*
X118964286Y-102226057D01*
X118964286Y-102226057D02*
X119011905Y-102178438D01*
X119011905Y-102178438D02*
X119107143Y-102130819D01*
X119107143Y-102130819D02*
X119345238Y-102130819D01*
X119345238Y-102130819D02*
X119488095Y-102178438D01*
X119821429Y-102130819D02*
X120059524Y-103130819D01*
X120059524Y-103130819D02*
X120250000Y-102416533D01*
X120250000Y-102416533D02*
X120440476Y-103130819D01*
X120440476Y-103130819D02*
X120678572Y-102130819D01*
X120964286Y-102130819D02*
X121583333Y-102130819D01*
X121583333Y-102130819D02*
X121250000Y-102511771D01*
X121250000Y-102511771D02*
X121392857Y-102511771D01*
X121392857Y-102511771D02*
X121488095Y-102559390D01*
X121488095Y-102559390D02*
X121535714Y-102607009D01*
X121535714Y-102607009D02*
X121583333Y-102702247D01*
X121583333Y-102702247D02*
X121583333Y-102940342D01*
X121583333Y-102940342D02*
X121535714Y-103035580D01*
X121535714Y-103035580D02*
X121488095Y-103083200D01*
X121488095Y-103083200D02*
X121392857Y-103130819D01*
X121392857Y-103130819D02*
X121107143Y-103130819D01*
X121107143Y-103130819D02*
X121011905Y-103083200D01*
X121011905Y-103083200D02*
X120964286Y-103035580D01*
X118916667Y-87993200D02*
X119059524Y-88040819D01*
X119059524Y-88040819D02*
X119297619Y-88040819D01*
X119297619Y-88040819D02*
X119392857Y-87993200D01*
X119392857Y-87993200D02*
X119440476Y-87945580D01*
X119440476Y-87945580D02*
X119488095Y-87850342D01*
X119488095Y-87850342D02*
X119488095Y-87755104D01*
X119488095Y-87755104D02*
X119440476Y-87659866D01*
X119440476Y-87659866D02*
X119392857Y-87612247D01*
X119392857Y-87612247D02*
X119297619Y-87564628D01*
X119297619Y-87564628D02*
X119107143Y-87517009D01*
X119107143Y-87517009D02*
X119011905Y-87469390D01*
X119011905Y-87469390D02*
X118964286Y-87421771D01*
X118964286Y-87421771D02*
X118916667Y-87326533D01*
X118916667Y-87326533D02*
X118916667Y-87231295D01*
X118916667Y-87231295D02*
X118964286Y-87136057D01*
X118964286Y-87136057D02*
X119011905Y-87088438D01*
X119011905Y-87088438D02*
X119107143Y-87040819D01*
X119107143Y-87040819D02*
X119345238Y-87040819D01*
X119345238Y-87040819D02*
X119488095Y-87088438D01*
X119821429Y-87040819D02*
X120059524Y-88040819D01*
X120059524Y-88040819D02*
X120250000Y-87326533D01*
X120250000Y-87326533D02*
X120440476Y-88040819D01*
X120440476Y-88040819D02*
X120678572Y-87040819D01*
X121011905Y-87136057D02*
X121059524Y-87088438D01*
X121059524Y-87088438D02*
X121154762Y-87040819D01*
X121154762Y-87040819D02*
X121392857Y-87040819D01*
X121392857Y-87040819D02*
X121488095Y-87088438D01*
X121488095Y-87088438D02*
X121535714Y-87136057D01*
X121535714Y-87136057D02*
X121583333Y-87231295D01*
X121583333Y-87231295D02*
X121583333Y-87326533D01*
X121583333Y-87326533D02*
X121535714Y-87469390D01*
X121535714Y-87469390D02*
X120964286Y-88040819D01*
X120964286Y-88040819D02*
X121583333Y-88040819D01*
X149096667Y-87993200D02*
X149239524Y-88040819D01*
X149239524Y-88040819D02*
X149477619Y-88040819D01*
X149477619Y-88040819D02*
X149572857Y-87993200D01*
X149572857Y-87993200D02*
X149620476Y-87945580D01*
X149620476Y-87945580D02*
X149668095Y-87850342D01*
X149668095Y-87850342D02*
X149668095Y-87755104D01*
X149668095Y-87755104D02*
X149620476Y-87659866D01*
X149620476Y-87659866D02*
X149572857Y-87612247D01*
X149572857Y-87612247D02*
X149477619Y-87564628D01*
X149477619Y-87564628D02*
X149287143Y-87517009D01*
X149287143Y-87517009D02*
X149191905Y-87469390D01*
X149191905Y-87469390D02*
X149144286Y-87421771D01*
X149144286Y-87421771D02*
X149096667Y-87326533D01*
X149096667Y-87326533D02*
X149096667Y-87231295D01*
X149096667Y-87231295D02*
X149144286Y-87136057D01*
X149144286Y-87136057D02*
X149191905Y-87088438D01*
X149191905Y-87088438D02*
X149287143Y-87040819D01*
X149287143Y-87040819D02*
X149525238Y-87040819D01*
X149525238Y-87040819D02*
X149668095Y-87088438D01*
X150001429Y-87040819D02*
X150239524Y-88040819D01*
X150239524Y-88040819D02*
X150430000Y-87326533D01*
X150430000Y-87326533D02*
X150620476Y-88040819D01*
X150620476Y-88040819D02*
X150858572Y-87040819D01*
X151382381Y-87469390D02*
X151287143Y-87421771D01*
X151287143Y-87421771D02*
X151239524Y-87374152D01*
X151239524Y-87374152D02*
X151191905Y-87278914D01*
X151191905Y-87278914D02*
X151191905Y-87231295D01*
X151191905Y-87231295D02*
X151239524Y-87136057D01*
X151239524Y-87136057D02*
X151287143Y-87088438D01*
X151287143Y-87088438D02*
X151382381Y-87040819D01*
X151382381Y-87040819D02*
X151572857Y-87040819D01*
X151572857Y-87040819D02*
X151668095Y-87088438D01*
X151668095Y-87088438D02*
X151715714Y-87136057D01*
X151715714Y-87136057D02*
X151763333Y-87231295D01*
X151763333Y-87231295D02*
X151763333Y-87278914D01*
X151763333Y-87278914D02*
X151715714Y-87374152D01*
X151715714Y-87374152D02*
X151668095Y-87421771D01*
X151668095Y-87421771D02*
X151572857Y-87469390D01*
X151572857Y-87469390D02*
X151382381Y-87469390D01*
X151382381Y-87469390D02*
X151287143Y-87517009D01*
X151287143Y-87517009D02*
X151239524Y-87564628D01*
X151239524Y-87564628D02*
X151191905Y-87659866D01*
X151191905Y-87659866D02*
X151191905Y-87850342D01*
X151191905Y-87850342D02*
X151239524Y-87945580D01*
X151239524Y-87945580D02*
X151287143Y-87993200D01*
X151287143Y-87993200D02*
X151382381Y-88040819D01*
X151382381Y-88040819D02*
X151572857Y-88040819D01*
X151572857Y-88040819D02*
X151668095Y-87993200D01*
X151668095Y-87993200D02*
X151715714Y-87945580D01*
X151715714Y-87945580D02*
X151763333Y-87850342D01*
X151763333Y-87850342D02*
X151763333Y-87659866D01*
X151763333Y-87659866D02*
X151715714Y-87564628D01*
X151715714Y-87564628D02*
X151668095Y-87517009D01*
X151668095Y-87517009D02*
X151572857Y-87469390D01*
X149096667Y-72903200D02*
X149239524Y-72950819D01*
X149239524Y-72950819D02*
X149477619Y-72950819D01*
X149477619Y-72950819D02*
X149572857Y-72903200D01*
X149572857Y-72903200D02*
X149620476Y-72855580D01*
X149620476Y-72855580D02*
X149668095Y-72760342D01*
X149668095Y-72760342D02*
X149668095Y-72665104D01*
X149668095Y-72665104D02*
X149620476Y-72569866D01*
X149620476Y-72569866D02*
X149572857Y-72522247D01*
X149572857Y-72522247D02*
X149477619Y-72474628D01*
X149477619Y-72474628D02*
X149287143Y-72427009D01*
X149287143Y-72427009D02*
X149191905Y-72379390D01*
X149191905Y-72379390D02*
X149144286Y-72331771D01*
X149144286Y-72331771D02*
X149096667Y-72236533D01*
X149096667Y-72236533D02*
X149096667Y-72141295D01*
X149096667Y-72141295D02*
X149144286Y-72046057D01*
X149144286Y-72046057D02*
X149191905Y-71998438D01*
X149191905Y-71998438D02*
X149287143Y-71950819D01*
X149287143Y-71950819D02*
X149525238Y-71950819D01*
X149525238Y-71950819D02*
X149668095Y-71998438D01*
X150001429Y-71950819D02*
X150239524Y-72950819D01*
X150239524Y-72950819D02*
X150430000Y-72236533D01*
X150430000Y-72236533D02*
X150620476Y-72950819D01*
X150620476Y-72950819D02*
X150858572Y-71950819D01*
X151144286Y-71950819D02*
X151810952Y-71950819D01*
X151810952Y-71950819D02*
X151382381Y-72950819D01*
X115666666Y-99254819D02*
X115333333Y-98778628D01*
X115095238Y-99254819D02*
X115095238Y-98254819D01*
X115095238Y-98254819D02*
X115476190Y-98254819D01*
X115476190Y-98254819D02*
X115571428Y-98302438D01*
X115571428Y-98302438D02*
X115619047Y-98350057D01*
X115619047Y-98350057D02*
X115666666Y-98445295D01*
X115666666Y-98445295D02*
X115666666Y-98588152D01*
X115666666Y-98588152D02*
X115619047Y-98683390D01*
X115619047Y-98683390D02*
X115571428Y-98731009D01*
X115571428Y-98731009D02*
X115476190Y-98778628D01*
X115476190Y-98778628D02*
X115095238Y-98778628D01*
X116095238Y-98731009D02*
X116428571Y-98731009D01*
X116571428Y-99254819D02*
X116095238Y-99254819D01*
X116095238Y-99254819D02*
X116095238Y-98254819D01*
X116095238Y-98254819D02*
X116571428Y-98254819D01*
X117333333Y-98731009D02*
X117000000Y-98731009D01*
X117000000Y-99254819D02*
X117000000Y-98254819D01*
X117000000Y-98254819D02*
X117476190Y-98254819D01*
X118000000Y-98254819D02*
X118000000Y-98492914D01*
X117761905Y-98397676D02*
X118000000Y-98492914D01*
X118000000Y-98492914D02*
X118238095Y-98397676D01*
X117857143Y-98683390D02*
X118000000Y-98492914D01*
X118000000Y-98492914D02*
X118142857Y-98683390D01*
X118761905Y-98254819D02*
X118761905Y-98492914D01*
X118523810Y-98397676D02*
X118761905Y-98492914D01*
X118761905Y-98492914D02*
X119000000Y-98397676D01*
X118619048Y-98683390D02*
X118761905Y-98492914D01*
X118761905Y-98492914D02*
X118904762Y-98683390D01*
D12*
%TO.C,SW1*%
X113265000Y-73385000D02*
X127235000Y-73385000D01*
X113265000Y-87355000D02*
X113265000Y-73385000D01*
X127235000Y-73385000D02*
X127235000Y-87355000D01*
X127235000Y-87355000D02*
X113265000Y-87355000D01*
%TO.C,SW9*%
X143445000Y-103565000D02*
X157415000Y-103565000D01*
X143445000Y-117535000D02*
X143445000Y-103565000D01*
X157415000Y-103565000D02*
X157415000Y-117535000D01*
X157415000Y-117535000D02*
X143445000Y-117535000D01*
%TO.C,SW4*%
X128355000Y-73385000D02*
X142325000Y-73385000D01*
X128355000Y-87355000D02*
X128355000Y-73385000D01*
X142325000Y-73385000D02*
X142325000Y-87355000D01*
X142325000Y-87355000D02*
X128355000Y-87355000D01*
%TO.C,SW5*%
X128355000Y-88475000D02*
X142325000Y-88475000D01*
X128355000Y-102445000D02*
X128355000Y-88475000D01*
X142325000Y-88475000D02*
X142325000Y-102445000D01*
X142325000Y-102445000D02*
X128355000Y-102445000D01*
D13*
%TO.C,U1*%
X110725000Y-53620000D02*
X110725000Y-70620000D01*
X112725000Y-72620000D02*
X126525000Y-72620000D01*
X115125000Y-50195970D02*
X124125000Y-50195970D01*
X115125000Y-57549270D02*
X115125000Y-50195970D01*
X124125000Y-50195970D02*
X124125000Y-57549270D01*
X124125000Y-57549270D02*
X115125000Y-57549270D01*
X126525000Y-51620910D02*
X112725000Y-51620910D01*
X128525000Y-70620000D02*
X128525000Y-53620000D01*
D12*
X110725000Y-53620000D02*
G75*
G02*
X112725000Y-51620000I2044612J-44612D01*
G01*
X112725000Y-72620000D02*
G75*
G02*
X110725000Y-70620000I44857J2044857D01*
G01*
X126525000Y-51620000D02*
G75*
G02*
X128525000Y-53620000I-44600J-2044600D01*
G01*
X128525000Y-70620000D02*
G75*
G02*
X126525000Y-72620000I-2000000J0D01*
G01*
D14*
X108752000Y-53320000D02*
G75*
G02*
X108498000Y-53320000I-127000J0D01*
G01*
X108498000Y-53320000D02*
G75*
G02*
X108752000Y-53320000I127000J0D01*
G01*
D15*
X110737285Y-53558295D02*
X110740333Y-53509527D01*
X110744397Y-53460506D01*
X110737285Y-53558295D01*
X128512713Y-70690850D02*
X128509665Y-70739618D01*
X128505601Y-70788639D01*
X128500268Y-70837407D01*
X128493664Y-70886175D01*
X128486044Y-70934690D01*
X128477153Y-70982950D01*
X128467248Y-71030955D01*
X128514492Y-70641574D01*
X128512713Y-70690850D01*
D12*
%TO.C,SW10*%
X136200000Y-57000000D02*
X136800000Y-57000000D01*
X136500000Y-57300000D02*
X136200000Y-57000000D01*
X136800000Y-57000000D02*
X136500000Y-57300000D01*
X137900000Y-55200000D02*
X137900000Y-67000000D01*
X142000000Y-55200000D02*
X137900000Y-55200000D01*
X142000000Y-67000000D02*
X137900000Y-67000000D01*
X143500000Y-61100000D02*
X144500000Y-61100000D01*
X144000000Y-60600000D02*
X144000000Y-61600000D01*
X146000000Y-55200000D02*
X150100000Y-55200000D01*
X150100000Y-55200000D02*
X150100000Y-57600000D01*
X150100000Y-59800000D02*
X150100000Y-62400000D01*
X150100000Y-64600000D02*
X150100000Y-67000000D01*
X150100000Y-67000000D02*
X146000000Y-67000000D01*
X147000000Y-61100000D02*
G75*
G02*
X141000000Y-61100000I-3000000J0D01*
G01*
X141000000Y-61100000D02*
G75*
G02*
X147000000Y-61100000I3000000J0D01*
G01*
%TO.C,SW6*%
X128355000Y-103565000D02*
X142325000Y-103565000D01*
X128355000Y-117535000D02*
X128355000Y-103565000D01*
X142325000Y-103565000D02*
X142325000Y-117535000D01*
X142325000Y-117535000D02*
X128355000Y-117535000D01*
%TO.C,SW3*%
X113265000Y-103565000D02*
X127235000Y-103565000D01*
X113265000Y-117535000D02*
X113265000Y-103565000D01*
X127235000Y-103565000D02*
X127235000Y-117535000D01*
X127235000Y-117535000D02*
X113265000Y-117535000D01*
%TO.C,SW2*%
X113265000Y-88475000D02*
X127235000Y-88475000D01*
X113265000Y-102445000D02*
X113265000Y-88475000D01*
X127235000Y-88475000D02*
X127235000Y-102445000D01*
X127235000Y-102445000D02*
X113265000Y-102445000D01*
%TO.C,SW8*%
X143445000Y-88475000D02*
X157415000Y-88475000D01*
X143445000Y-102445000D02*
X143445000Y-88475000D01*
X157415000Y-88475000D02*
X157415000Y-102445000D01*
X157415000Y-102445000D02*
X143445000Y-102445000D01*
%TO.C,SW7*%
X143445000Y-73385000D02*
X157415000Y-73385000D01*
X143445000Y-87355000D02*
X143445000Y-73385000D01*
X157415000Y-73385000D02*
X157415000Y-87355000D01*
X157415000Y-87355000D02*
X143445000Y-87355000D01*
%TD*%
M02*
