0
SECTION
2
HEADER
9
$INSUNITS
70
4
9
$ACADVER
1
AC1014
9
$HANDSEED
5
FFFF
0
ENDSEC
0
SECTION
2
TABLES
0
TABLE
2
VPORT
5
8
100
AcDbSymbolTable
0
ENDTAB
0
TABLE
2
LTYPE
5
5
100
AcDbSymbolTable
0
LTYPE
5
14
100
AcDbSymbolTableRecord
100
AcDbLinetypeTableRecord
2
BYBLOCK
70
0
0
LTYPE
5
15
100
AcDbSymbolTableRecord
100
AcDbLinetypeTableRecord
2
BYLAYER
70
0
0
ENDTAB
0
TABLE
2
LAYER
5
2
100
AcDbSymbolTable
70
2
0
LAYER
5
50
100
AcDbSymbolTableRecord
100
AcDbLayerTableRecord
2
0
70
0
6
CONTINUOUS
0
ENDTAB
0
TABLE
2
STYLE
5
3
100
AcDbSymbolTable
70
1
0
STYLE
5
11
100
AcDbSymbolTableRecord
100
AcDbTextStyleTableRecord
2
STANDARD
70
0
0
ENDTAB
0
TABLE
2
VIEW
5
6
100
AcDbSymbolTable
70
0
0
ENDTAB
0
TABLE
2
UCS
5
7
100
AcDbSymbolTable
70
0
0
ENDTAB
0
TABLE
2
APPID
5
9
100
AcDbSymbolTable
70
2
0
APPID
5
12
100
AcDbSymbolTableRecord
100
AcDbRegAppTableRecord
2
ACAD
70
0
0
ENDTAB
0
TABLE
2
DIMSTYLE
5
A
100
AcDbSymbolTable
70
1
0
ENDTAB
0
TABLE
2
BLOCK_RECORD
5
1
100
AcDbSymbolTable
70
1
0
BLOCK_RECORD
5
1F
100
AcDbSymbolTableRecord
100
AcDbBlockTableRecord
2
*MODEL_SPACE
0
BLOCK_RECORD
5
1B
100
AcDbSymbolTableRecord
100
AcDbBlockTableRecord
2
*PAPER_SPACE
0
ENDTAB
0
ENDSEC
0
SECTION
2
BLOCKS
0
BLOCK
5
20
100
AcDbEntity
100
AcDbBlockBegin
2
*MODEL_SPACE
0
ENDBLK
5
21
100
AcDbEntity
100
AcDbBlockEnd
0
BLOCK
5
1C
100
AcDbEntity
100
AcDbBlockBegin
2
*PAPER_SPACE
0
ENDBLK
5
1D
100
AcDbEntity
100
AcDbBlockEnd
0
ENDSEC
0
SECTION
2
ENTITIES
0
LWPOLYLINE
5
100
100
AcDbEntity
8
0
100
AcDbPolyline
90
8
70
1
43
0.0
10
-182.92840000000001
20
-99.724999999999994
10
-176.92840000000001
20
-99.72499999999998
42
-0.41421356237307422
10
-176.42840000000004
20
-100.22499999999999
10
-176.42840000000004
20
-114.22499999999999
42
-0.41421356237307422
10
-176.92840000000001
20
-114.72499999999999
10
-182.92840000000001
20
-114.72499999999999
42
-0.41421356237309503
10
-183.42840000000001
20
-114.22499999999999
10
-183.42840000000001
20
-100.22499999999999
42
-0.41421356237309503
0
LWPOLYLINE
5
101
100
AcDbEntity
8
0
100
AcDbPolyline
90
8
70
1
43
0.0
10
-184.01540000000006
20
-60.625
10
-171.01540000000003
20
-60.624999999999993
42
-0.41421356237309503
10
-170.51540000000003
20
-61.125
10
-170.51540000000003
20
-74.125
42
-0.41421356237309503
10
-171.01540000000003
20
-74.625
10
-184.01540000000006
20
-74.624999999999972
42
-0.41421356237309503
10
-184.5154
20
-74.125
10
-184.51540000000006
20
-61.125
42
-0.41421356237309503
0
LWPOLYLINE
5
102
100
AcDbEntity
8
0
100
AcDbPolyline
90
8
70
1
43
0.0
10
-164.96540000000005
20
-22.524999999999999
10
-151.96540000000002
20
-22.524999999999995
42
-0.41421356237309503
10
-151.46540000000002
20
-23.025000000000002
10
-151.46540000000002
20
-36.024999999999999
42
-0.41421356237309503
10
-151.96540000000002
20
-36.524999999999999
10
-164.96540000000005
20
-36.525000000000006
42
-0.41421356237309503
10
-165.46540000000005
20
-36.024999999999999
10
-165.46540000000005
20
-23.025000000000002
42
-0.41421356237309503
0
LWPOLYLINE
5
103
100
AcDbEntity
8
0
100
AcDbPolyline
90
8
70
1
43
0.0
10
-145.91540000000003
20
-79.674999999999997
10
-132.91540000000001
20
-79.675000000000011
42
-0.41421356237309503
10
-132.41540000000003
20
-80.174999999999997
10
-132.41540000000001
20
-93.174999999999983
42
-0.41421356237309503
10
-132.91540000000001
20
-93.674999999999997
10
-145.91540000000003
20
-93.674999999999997
42
-0.41421356237309503
10
-146.41540000000003
20
-93.174999999999983
10
-146.41540000000003
20
-80.174999999999997
42
-0.41421356237309503
0
LWPOLYLINE
5
104
100
AcDbEntity
8
0
100
AcDbPolyline
90
8
70
1
43
0.0
10
-114.36540000000002
20
-81.262
10
-114.36540000000002
20
-87.262
42
-0.41421356237309503
10
-114.86540000000002
20
-87.762
10
-128.86540000000002
20
-87.762
42
-0.41421356237310542
10
-129.36540000000002
20
-87.262
10
-129.36540000000005
20
-81.262
42
-0.41421356237310542
10
-128.86540000000002
20
-80.762
10
-114.86540000000002
20
-80.762000000000015
42
-0.41421356237309503
0
LWPOLYLINE
5
105
100
AcDbEntity
8
0
100
AcDbPolyline
90
8
70
1
43
0.0
10
-126.86540000000002
20
-22.524999999999999
10
-113.86540000000004
20
-22.524999999999995
42
-0.41421356237309503
10
-113.36540000000002
20
-23.025000000000002
10
-113.36540000000002
20
-36.024999999999999
42
-0.41421356237309503
10
-113.86540000000004
20
-36.524999999999999
10
-126.86540000000002
20
-36.524999999999991
42
-0.41421356237309503
10
-127.36540000000002
20
-36.024999999999999
10
-127.36540000000004
20
-23.025000000000002
42
-0.41421356237309503
0
LWPOLYLINE
5
106
100
AcDbEntity
8
0
100
AcDbPolyline
90
8
70
1
43
0.0
10
-114.36540000000002
20
-43.162000000000006
10
-114.36540000000001
20
-49.161999999999999
42
-0.41421356237309503
10
-114.86540000000002
20
-49.662000000000006
10
-128.86540000000002
20
-49.661999999999992
42
-0.41421356237310542
10
-129.36540000000002
20
-49.161999999999999
10
-129.36540000000005
20
-43.162000000000006
42
-0.41421356237310542
10
-128.86540000000002
20
-42.661999999999992
10
-114.86540000000002
20
-42.662000000000013
42
-0.41421356237309503
0
LWPOLYLINE
5
107
100
AcDbEntity
8
0
100
AcDbPolyline
90
8
70
1
43
0.0
10
-113.36540000000002
20
-89.700000000000003
10
-113.36540000000005
20
-102.70000000000002
42
-0.41421356237309503
10
-113.86540000000004
20
-103.2
10
-126.86540000000005
20
-103.2
42
-0.4142135623730846
10
-127.36540000000002
20
-102.70000000000002
10
-127.36540000000002
20
-89.700000000000003
42
-0.4142135623730846
10
-126.86540000000005
20
-89.200000000000017
10
-113.86540000000004
20
-89.200000000000003
42
-0.41421356237309503
0
LWPOLYLINE
5
108
100
AcDbEntity
8
0
100
AcDbPolyline
90
8
70
1
43
0.0
10
-145.91540000000003
20
-60.625
10
-132.91540000000001
20
-60.625000000000007
42
-0.41421356237309503
10
-132.41540000000003
20
-61.125
10
-132.41540000000001
20
-74.125
42
-0.41421356237309503
10
-132.91540000000001
20
-74.625
10
-145.91540000000003
20
-74.625000000000014
42
-0.41421356237309503
10
-146.41540000000003
20
-74.125
10
-146.41540000000003
20
-61.125
42
-0.41421356237309503
0
LWPOLYLINE
5
109
100
AcDbEntity
8
0
100
AcDbPolyline
90
8
70
1
43
0.0
10
-164.96540000000005
20
-41.575000000000003
10
-151.96540000000002
20
-41.574999999999989
42
-0.41421356237309503
10
-151.46540000000002
20
-42.074999999999996
10
-151.46540000000002
20
-55.075000000000003
42
-0.41421356237309503
10
-151.96540000000002
20
-55.57500000000001
10
-164.96540000000005
20
-55.57500000000001
42
-0.41421356237309503
10
-165.46540000000005
20
-55.075000000000003
10
-165.46539999999999
20
-42.074999999999996
42
-0.41421356237309503
0
LWPOLYLINE
5
110
100
AcDbEntity
8
0
100
AcDbPolyline
90
8
70
1
43
0.0
10
-164.96540000000005
20
-60.625
10
-151.96540000000002
20
-60.624999999999993
42
-0.41421356237309503
10
-151.46540000000002
20
-61.125
10
-151.46540000000002
20
-74.125
42
-0.41421356237309503
10
-151.96540000000002
20
-74.625
10
-164.96540000000005
20
-74.625000000000014
42
-0.41421356237309503
10
-165.46540000000005
20
-74.125
10
-165.46540000000005
20
-61.125
42
-0.41421356237309503
0
LWPOLYLINE
5
111
100
AcDbEntity
8
0
100
AcDbPolyline
90
8
70
1
43
0.0
10
-174.49040000000002
20
-98.724999999999994
10
-161.49040000000002
20
-98.724999999999994
42
-0.41421356237309503
10
-160.99040000000002
20
-99.224999999999994
10
-160.99040000000002
20
-112.22499999999999
42
-0.41421356237309503
10
-161.49040000000002
20
-112.72499999999999
10
-174.49040000000002
20
-112.72499999999997
42
-0.41421356237309503
10
-174.99040000000002
20
-112.22499999999999
10
-174.99040000000005
20
-99.224999999999994
42
-0.41421356237309503
0
LWPOLYLINE
5
112
100
AcDbEntity
8
0
100
AcDbPolyline
90
8
70
1
43
0.0
10
-184.01540000000006
20
-79.674999999999997
10
-171.01540000000003
20
-79.674999999999997
42
-0.41421356237309503
10
-170.51540000000003
20
-80.174999999999997
10
-170.51540000000003
20
-93.174999999999983
42
-0.41421356237309503
10
-171.01540000000003
20
-93.674999999999997
10
-184.01540000000006
20
-93.674999999999955
42
-0.41421356237309503
10
-184.5154
20
-93.174999999999983
10
-184.51540000000006
20
-80.174999999999997
42
-0.41421356237309503
0
LWPOLYLINE
5
113
100
AcDbEntity
8
0
100
AcDbPolyline
90
8
70
1
43
0.0
10
-184.01540000000006
20
-22.524999999999999
10
-171.01540000000003
20
-22.524999999999995
42
-0.41421356237309503
10
-170.51540000000003
20
-23.025000000000002
10
-170.51540000000003
20
-36.024999999999999
42
-0.41421356237309503
10
-171.01540000000003
20
-36.524999999999999
10
-184.01540000000006
20
-36.52499999999997
42
-0.41421356237309503
10
-184.5154
20
-36.024999999999999
10
-184.51540000000006
20
-23.025000000000002
42
-0.41421356237309503
0
LWPOLYLINE
5
114
100
AcDbEntity
8
0
100
AcDbPolyline
90
8
70
1
43
0.0
10
-145.91540000000003
20
-22.524999999999999
10
-132.91540000000001
20
-22.525000000000013
42
-0.41421356237309503
10
-132.41540000000003
20
-23.025000000000002
10
-132.41540000000001
20
-36.024999999999999
42
-0.41421356237309503
10
-132.91540000000001
20
-36.524999999999999
10
-145.91540000000003
20
-36.525000000000006
42
-0.41421356237309503
10
-146.41540000000003
20
-36.024999999999999
10
-146.41540000000003
20
-23.025000000000002
42
-0.41421356237309503
0
LWPOLYLINE
5
115
100
AcDbEntity
8
0
100
AcDbPolyline
90
8
70
1
43
0.0
10
-145.91540000000003
20
-98.724999999999994
10
-132.91540000000001
20
-98.725000000000009
42
-0.41421356237309503
10
-132.41540000000003
20
-99.224999999999994
10
-132.41540000000003
20
-112.22499999999999
42
-0.41421356237309503
10
-132.91540000000001
20
-112.72499999999999
10
-145.91540000000003
20
-112.72500000000001
42
-0.41421356237309503
10
-146.41540000000003
20
-112.22499999999999
10
-146.41540000000003
20
-99.224999999999994
42
-0.41421356237309503
0
LWPOLYLINE
5
116
100
AcDbEntity
8
0
100
AcDbPolyline
90
8
70
1
43
0.0
10
-114.36540000000002
20
-67.037999999999997
10
-114.36540000000001
20
-73.038000000000011
42
-0.41421356237309503
10
-114.86540000000002
20
-73.538000000000011
10
-128.86540000000002
20
-73.537999999999997
42
-0.41421356237310542
10
-129.36540000000002
20
-73.038000000000011
10
-129.36540000000005
20
-67.037999999999997
42
-0.41421356237310542
10
-128.86540000000002
20
-66.538000000000011
10
-114.86540000000002
20
-66.538000000000011
42
-0.41421356237309503
0
LWPOLYLINE
5
117
100
AcDbEntity
8
0
100
AcDbPolyline
90
4
70
1
43
0.0
10
-125.24700000000001
20
-16.538
10
-125.24700000000001
20
-4.5379999999999949
10
-112.84700000000001
20
-4.5379999999999958
10
-112.84700000000001
20
-16.538
0
LWPOLYLINE
5
118
100
AcDbEntity
8
0
100
AcDbPolyline
90
8
70
1
43
0.0
10
-113.36540000000002
20
-51.600000000000001
10
-113.36540000000002
20
-64.599999999999994
42
-0.41421356237309503
10
-113.86540000000004
20
-65.100000000000009
10
-126.86540000000005
20
-65.099999999999994
42
-0.4142135623730846
10
-127.36540000000002
20
-64.599999999999994
10
-127.36540000000002
20
-51.600000000000001
42
-0.4142135623730846
10
-126.86540000000005
20
-51.100000000000001
10
-113.86540000000004
20
-51.099999999999994
42
-0.41421356237309503
0
LWPOLYLINE
5
119
100
AcDbEntity
8
0
100
AcDbPolyline
90
8
70
1
43
0.0
10
-114.36540000000002
20
-105.13800000000001
10
-114.36540000000001
20
-111.13799999999999
42
-0.41421356237309503
10
-114.86540000000002
20
-111.63800000000001
10
-128.86540000000002
20
-111.63799999999998
42
-0.41421356237310542
10
-129.36540000000002
20
-111.13799999999999
10
-129.36540000000005
20
-105.13800000000001
42
-0.41421356237310542
10
-128.86540000000002
20
-104.63799999999999
10
-114.86540000000002
20
-104.63800000000001
42
-0.41421356237309503
0
LWPOLYLINE
5
120
100
AcDbEntity
8
0
100
AcDbPolyline
90
8
70
1
43
0.0
10
-145.91540000000003
20
-41.575000000000003
10
-132.91540000000001
20
-41.575000000000003
42
-0.41421356237309503
10
-132.41540000000003
20
-42.074999999999996
10
-132.41540000000001
20
-55.075000000000003
42
-0.41421356237309503
10
-132.91540000000001
20
-55.57500000000001
10
-145.91540000000003
20
-55.57500000000001
42
-0.41421356237309503
10
-146.41540000000003
20
-55.075000000000003
10
-146.41540000000001
20
-42.074999999999996
42
-0.41421356237309503
0
LWPOLYLINE
5
121
100
AcDbEntity
8
0
100
AcDbPolyline
90
8
70
1
43
0.0
10
-184.01540000000006
20
-41.575000000000003
10
-171.01540000000003
20
-41.574999999999989
42
-0.41421356237309503
10
-170.51540000000003
20
-42.074999999999996
10
-170.51540000000003
20
-55.075000000000003
42
-0.41421356237309503
10
-171.01540000000003
20
-55.57500000000001
10
-184.01540000000006
20
-55.574999999999974
42
-0.41421356237309503
10
-184.5154
20
-55.075000000000003
10
-184.5154
20
-42.074999999999996
42
-0.41421356237309503
0
LWPOLYLINE
5
122
100
AcDbEntity
8
0
100
AcDbPolyline
90
8
70
1
43
0.0
10
-164.96540000000005
20
-79.674999999999997
10
-151.96540000000002
20
-79.674999999999997
42
-0.41421356237309503
10
-151.46540000000002
20
-80.174999999999997
10
-151.46540000000002
20
-93.174999999999983
42
-0.41421356237309503
10
-151.96540000000002
20
-93.674999999999997
10
-164.96540000000005
20
-93.674999999999997
42
-0.41421356237309503
10
-165.46540000000005
20
-93.174999999999983
10
-165.46540000000005
20
-80.174999999999997
42
-0.41421356237309503
0
LWPOLYLINE
5
123
100
AcDbEntity
8
0
100
AcDbPolyline
90
8
70
1
43
0.0
10
-159.05240000000003
20
-99.724999999999994
10
-153.05240000000003
20
-99.72499999999998
42
-0.41421356237309503
10
-152.55240000000003
20
-100.22499999999999
10
-152.55240000000003
20
-114.22499999999999
42
-0.41421356237309503
10
-153.05240000000003
20
-114.72499999999999
10
-159.05240000000003
20
-114.72499999999998
42
-0.41421356237309503
10
-159.55240000000001
20
-114.22499999999999
10
-159.55240000000001
20
-100.22499999999999
42
-0.41421356237309503
0
LWPOLYLINE
5
124
100
AcDbEntity
8
0
100
AcDbPolyline
90
8
70
1
43
0.0
10
-110.39749999999999
20
-141.00700000000001
42
0.41421356237309503
10
-100
20
-130.60950000000003
10
-100
20
-5.3974999999999973
42
0.41421356237309503
10
-110.39749999999998
20
5.0000000000000044
10
-187.63249999999999
20
5
42
0.41421356237309503
10
-198.03
20
-5.3975000000000017
10
-198.03
20
-130.60950000000003
42
0.41421356237309503
10
-187.63249999999999
20
-141.00700000000001
0
CIRCLE
5
125
100
AcDbEntity
8
0
100
AcDbCircle
10
-189.08199999999999
20
2.5
30
0
40
1.9500000000000028
210
0
220
0
230
1
0
CIRCLE
5
126
100
AcDbEntity
8
0
100
AcDbCircle
10
-108.94800000000001
20
2.5
30
0
40
1.9500000000000028
210
0
220
0
230
1
0
CIRCLE
5
127
100
AcDbEntity
8
0
100
AcDbCircle
10
-108.94800000000001
20
-138.50700000000001
30
0
40
1.9500000000000028
210
0
220
0
230
1
0
CIRCLE
5
128
100
AcDbEntity
8
0
100
AcDbCircle
10
-189.08199999999999
20
-138.50700000000001
30
0
40
1.9500000000000028
210
0
220
0
230
1
0
ENDSEC
0
SECTION
2
OBJECTS
0
DICTIONARY
5
C
100
AcDbDictionary
3
ACAD_GROUP
350
D
3
ACAD_MLINESTYLE
350
17
0
DICTIONARY
5
D
100
AcDbDictionary
0
DICTIONARY
5
1A
330
C
100
AcDbDictionary
0
DICTIONARY
5
17
100
AcDbDictionary
0
ENDSEC
0
EOF
