solid OpenSCAD_Model
  facet normal -0.357406 -0.357406 -0.862857
    outer loop
      vertex -59 -59.7071 -7.70711
      vertex -59.7071 -59 -7.70711
      vertex -59 -59 -8
    endloop
  endfacet
  facet normal 0.923875 -0.382694 0
    outer loop
      vertex 59.7071 -59.7071 5
      vertex 60 -59 -7
      vertex 60 -59 5
    endloop
  endfacet
  facet normal 0.923875 -0.382694 0
    outer loop
      vertex 60 -59 -7
      vertex 59.7071 -59.7071 5
      vertex 59.7071 -59.7071 -7
    endloop
  endfacet
  facet normal -0.923875 -0.382694 0
    outer loop
      vertex -59.7071 -59.7071 -7
      vertex -60 -59 5
      vertex -60 -59 -7
    endloop
  endfacet
  facet normal -0.923875 -0.382694 0
    outer loop
      vertex -60 -59 5
      vertex -59.7071 -59.7071 -7
      vertex -59.7071 -59.7071 5
    endloop
  endfacet
  facet normal -0.577353 -0.577353 -0.577345
    outer loop
      vertex -59 -59.7071 -7.70711
      vertex -59.7071 -59.7071 -7
      vertex -59.7071 -59 -7.70711
    endloop
  endfacet
  facet normal 0.382683 0 -0.92388
    outer loop
      vertex 59 -59 -8
      vertex 59.7071 59 -7.70711
      vertex 59.7071 -59 -7.70711
    endloop
  endfacet
  facet normal 0.382683 0 -0.92388
    outer loop
      vertex 59.7071 59 -7.70711
      vertex 59 -59 -8
      vertex 59 59 -8
    endloop
  endfacet
  facet normal -0.923877 0 -0.38269
    outer loop
      vertex -59.7071 -59 -7.70711
      vertex -60 59 -7
      vertex -59.7071 59 -7.70711
    endloop
  endfacet
  facet normal -0.923877 -0 -0.38269
    outer loop
      vertex -60 59 -7
      vertex -59.7071 -59 -7.70711
      vertex -60 -59 -7
    endloop
  endfacet
  facet normal 0 0.923877 -0.38269
    outer loop
      vertex 59 59.7071 -7.70711
      vertex -59 60 -7
      vertex 59 60 -7
    endloop
  endfacet
  facet normal 0 0.923877 -0.38269
    outer loop
      vertex -59 60 -7
      vertex 59 59.7071 -7.70711
      vertex -59 59.7071 -7.70711
    endloop
  endfacet
  facet normal -0.862851 -0.357416 -0.357411
    outer loop
      vertex -59.7071 -59.7071 -7
      vertex -60 -59 -7
      vertex -59.7071 -59 -7.70711
    endloop
  endfacet
  facet normal 0.382694 -0.923875 0
    outer loop
      vertex 59 -60 -7
      vertex 59.7071 -59.7071 5
      vertex 59 -60 5
    endloop
  endfacet
  facet normal 0.382694 -0.923875 0
    outer loop
      vertex 59.7071 -59.7071 5
      vertex 59 -60 -7
      vertex 59.7071 -59.7071 -7
    endloop
  endfacet
  facet normal 0 0 -1
    outer loop
      vertex -52.1397 53.1618 -8
      vertex 52.7735 52.4305 -8
      vertex -52.1397 -53.1618 -8
    endloop
  endfacet
  facet normal 0 0 -1
    outer loop
      vertex 52.7735 52.4305 -8
      vertex -52.1397 53.1618 -8
      vertex -51.6 55 -8
    endloop
  endfacet
  facet normal 0 0 -1
    outer loop
      vertex -53.5876 -51.9072 -8
      vertex -52.1397 53.1618 -8
      vertex -52.1397 -53.1618 -8
    endloop
  endfacet
  facet normal 0 0 -1
    outer loop
      vertex -53.5876 -51.9072 -8
      vertex -53.5876 51.9072 -8
      vertex -52.1397 53.1618 -8
    endloop
  endfacet
  facet normal 0 0 -1
    outer loop
      vertex -55.4839 -51.6346 -8
      vertex -53.5876 51.9072 -8
      vertex -53.5876 -51.9072 -8
    endloop
  endfacet
  facet normal 0 0 -1
    outer loop
      vertex -55.4839 -51.6346 -8
      vertex -55.4839 51.6346 -8
      vertex -53.5876 51.9072 -8
    endloop
  endfacet
  facet normal 0 0 -1
    outer loop
      vertex -57.2265 -52.4305 -8
      vertex -55.4839 51.6346 -8
      vertex -55.4839 -51.6346 -8
    endloop
  endfacet
  facet normal 0 0 -1
    outer loop
      vertex -57.2265 -52.4305 -8
      vertex -57.2265 52.4305 -8
      vertex -55.4839 51.6346 -8
    endloop
  endfacet
  facet normal 0 0 -1
    outer loop
      vertex -58.2623 -54.0421 -8
      vertex -57.2265 52.4305 -8
      vertex -57.2265 -52.4305 -8
    endloop
  endfacet
  facet normal -0 0 -1
    outer loop
      vertex -57.2265 52.4305 -8
      vertex -58.2623 -54.0421 -8
      vertex -58.2623 54.0421 -8
    endloop
  endfacet
  facet normal 0 0 -1
    outer loop
      vertex 57.8603 -53.1618 -8
      vertex 58.4 55 -8
      vertex 58.4 -55 -8
    endloop
  endfacet
  facet normal 0 0 -1
    outer loop
      vertex 57.8603 -53.1618 -8
      vertex 57.8603 53.1618 -8
      vertex 58.4 55 -8
    endloop
  endfacet
  facet normal 0 0 -1
    outer loop
      vertex 56.4124 -51.9072 -8
      vertex 57.8603 53.1618 -8
      vertex 57.8603 -53.1618 -8
    endloop
  endfacet
  facet normal 0 0 -1
    outer loop
      vertex 56.4124 -51.9072 -8
      vertex 56.4124 51.9072 -8
      vertex 57.8603 53.1618 -8
    endloop
  endfacet
  facet normal 0 0 -1
    outer loop
      vertex 54.5161 -51.6346 -8
      vertex 56.4124 51.9072 -8
      vertex 56.4124 -51.9072 -8
    endloop
  endfacet
  facet normal 0 0 -1
    outer loop
      vertex 54.5161 -51.6346 -8
      vertex 54.5161 51.6346 -8
      vertex 56.4124 51.9072 -8
    endloop
  endfacet
  facet normal 0 0 -1
    outer loop
      vertex 52.7735 -52.4305 -8
      vertex 54.5161 51.6346 -8
      vertex 54.5161 -51.6346 -8
    endloop
  endfacet
  facet normal 0 0 -1
    outer loop
      vertex 52.7735 -52.4305 -8
      vertex 52.7735 52.4305 -8
      vertex 54.5161 51.6346 -8
    endloop
  endfacet
  facet normal 0 0 -1
    outer loop
      vertex -52.1397 -53.1618 -8
      vertex 51.7377 -54.0421 -8
      vertex -51.6 -55 -8
    endloop
  endfacet
  facet normal 0 0 -1
    outer loop
      vertex 51.7377 -54.0421 -8
      vertex -52.1397 -53.1618 -8
      vertex 52.7735 -52.4305 -8
    endloop
  endfacet
  facet normal 0 0 -1
    outer loop
      vertex 59 -59 -8
      vertex 58.4 -55 -8
      vertex 59 59 -8
    endloop
  endfacet
  facet normal 0 0 -1
    outer loop
      vertex 59 -59 -8
      vertex 57.8603 -56.8382 -8
      vertex 58.4 -55 -8
    endloop
  endfacet
  facet normal 0 0 -1
    outer loop
      vertex 59 -59 -8
      vertex 56.4124 -58.0928 -8
      vertex 57.8603 -56.8382 -8
    endloop
  endfacet
  facet normal 0 0 -1
    outer loop
      vertex 59 -59 -8
      vertex 54.5161 -58.3654 -8
      vertex 56.4124 -58.0928 -8
    endloop
  endfacet
  facet normal 0 0 -1
    outer loop
      vertex -51.6 -55 -8
      vertex 51.7377 -54.0421 -8
      vertex 51.7377 -55.9579 -8
    endloop
  endfacet
  facet normal -0 0 -1
    outer loop
      vertex 52.7735 -52.4305 -8
      vertex -52.1397 -53.1618 -8
      vertex 52.7735 52.4305 -8
    endloop
  endfacet
  facet normal 0 0 -1
    outer loop
      vertex 52.7735 52.4305 -8
      vertex -51.6 55 -8
      vertex 51.7377 54.0421 -8
    endloop
  endfacet
  facet normal 0 0 -1
    outer loop
      vertex -52.1397 -56.8382 -8
      vertex 51.7377 -55.9579 -8
      vertex 52.7735 -57.5695 -8
    endloop
  endfacet
  facet normal 0 0 -1
    outer loop
      vertex -53.5876 -58.0928 -8
      vertex 52.7735 -57.5695 -8
      vertex 54.5161 -58.3654 -8
    endloop
  endfacet
  facet normal 0 0 -1
    outer loop
      vertex -59 -59 -8
      vertex 54.5161 -58.3654 -8
      vertex 59 -59 -8
    endloop
  endfacet
  facet normal -0 0 -1
    outer loop
      vertex 51.7377 -55.9579 -8
      vertex -52.1397 -56.8382 -8
      vertex -51.6 -55 -8
    endloop
  endfacet
  facet normal -0 0 -1
    outer loop
      vertex 52.7735 -57.5695 -8
      vertex -53.5876 -58.0928 -8
      vertex -52.1397 -56.8382 -8
    endloop
  endfacet
  facet normal -0 0 -1
    outer loop
      vertex 54.5161 -58.3654 -8
      vertex -59 -59 -8
      vertex -53.5876 -58.0928 -8
    endloop
  endfacet
  facet normal 0 0 -1
    outer loop
      vertex -59 -59 -8
      vertex -58.2623 -54.0421 -8
      vertex -58.2623 -55.9579 -8
    endloop
  endfacet
  facet normal -0 0 -1
    outer loop
      vertex -58.2623 -54.0421 -8
      vertex -59 -59 -8
      vertex -58.2623 54.0421 -8
    endloop
  endfacet
  facet normal 0 0 -1
    outer loop
      vertex -59 59 -8
      vertex -58.2623 54.0421 -8
      vertex -59 -59 -8
    endloop
  endfacet
  facet normal -0 0 -1
    outer loop
      vertex -57.2265 -57.5695 -8
      vertex -59 -59 -8
      vertex -58.2623 -55.9579 -8
    endloop
  endfacet
  facet normal -0 0 -1
    outer loop
      vertex -55.4839 -58.3654 -8
      vertex -59 -59 -8
      vertex -57.2265 -57.5695 -8
    endloop
  endfacet
  facet normal 0 0 -1
    outer loop
      vertex -53.5876 -58.0928 -8
      vertex -59 -59 -8
      vertex -55.4839 -58.3654 -8
    endloop
  endfacet
  facet normal 0 0 -1
    outer loop
      vertex 58.4 55 -8
      vertex 59 59 -8
      vertex 58.4 -55 -8
    endloop
  endfacet
  facet normal 0 0 -1
    outer loop
      vertex 57.8603 56.8382 -8
      vertex 59 59 -8
      vertex 58.4 55 -8
    endloop
  endfacet
  facet normal 0 0 -1
    outer loop
      vertex 56.4124 58.0928 -8
      vertex 59 59 -8
      vertex 57.8603 56.8382 -8
    endloop
  endfacet
  facet normal 0 0 -1
    outer loop
      vertex 54.5161 58.3654 -8
      vertex 59 59 -8
      vertex 56.4124 58.0928 -8
    endloop
  endfacet
  facet normal 0 0 -1
    outer loop
      vertex 51.7377 54.0421 -8
      vertex -51.6 55 -8
      vertex 51.7377 55.9579 -8
    endloop
  endfacet
  facet normal 0 0 -1
    outer loop
      vertex -52.1397 56.8382 -8
      vertex 51.7377 55.9579 -8
      vertex -51.6 55 -8
    endloop
  endfacet
  facet normal 0 0 -1
    outer loop
      vertex 51.7377 55.9579 -8
      vertex -52.1397 56.8382 -8
      vertex 52.7735 57.5695 -8
    endloop
  endfacet
  facet normal 0 0 -1
    outer loop
      vertex -53.5876 58.0928 -8
      vertex 52.7735 57.5695 -8
      vertex -52.1397 56.8382 -8
    endloop
  endfacet
  facet normal 0 0 -1
    outer loop
      vertex 52.7735 57.5695 -8
      vertex -53.5876 58.0928 -8
      vertex 54.5161 58.3654 -8
    endloop
  endfacet
  facet normal 0 0 -1
    outer loop
      vertex -59 59 -8
      vertex 54.5161 58.3654 -8
      vertex -53.5876 58.0928 -8
    endloop
  endfacet
  facet normal 0 0 -1
    outer loop
      vertex -59 59 -8
      vertex -53.5876 58.0928 -8
      vertex -55.4839 58.3654 -8
    endloop
  endfacet
  facet normal 0 0 -1
    outer loop
      vertex 54.5161 58.3654 -8
      vertex -59 59 -8
      vertex 59 59 -8
    endloop
  endfacet
  facet normal 0 0 -1
    outer loop
      vertex -57.2265 57.5695 -8
      vertex -59 59 -8
      vertex -55.4839 58.3654 -8
    endloop
  endfacet
  facet normal 0 0 -1
    outer loop
      vertex -58.2623 55.9579 -8
      vertex -59 59 -8
      vertex -57.2265 57.5695 -8
    endloop
  endfacet
  facet normal 0 0 -1
    outer loop
      vertex -58.2623 54.0421 -8
      vertex -59 59 -8
      vertex -58.2623 55.9579 -8
    endloop
  endfacet
  facet normal 0.923877 0 -0.38269
    outer loop
      vertex 60 -59 -7
      vertex 59.7071 59 -7.70711
      vertex 60 59 -7
    endloop
  endfacet
  facet normal 0.923877 0 -0.38269
    outer loop
      vertex 59.7071 59 -7.70711
      vertex 60 -59 -7
      vertex 59.7071 -59 -7.70711
    endloop
  endfacet
  facet normal 0.357406 0.357406 -0.862857
    outer loop
      vertex 59.7071 59 -7.70711
      vertex 59 59 -8
      vertex 59 59.7071 -7.70711
    endloop
  endfacet
  facet normal -0.862851 0.357416 -0.357411
    outer loop
      vertex -59.7071 59 -7.70711
      vertex -60 59 -7
      vertex -59.7071 59.7071 -7
    endloop
  endfacet
  facet normal 0.357416 0.862851 -0.357411
    outer loop
      vertex 59.7071 59.7071 -7
      vertex 59 59.7071 -7.70711
      vertex 59 60 -7
    endloop
  endfacet
  facet normal 0.923875 0.382694 0
    outer loop
      vertex 60 59 5
      vertex 59.7071 59.7071 -7
      vertex 59.7071 59.7071 5
    endloop
  endfacet
  facet normal 0.923875 0.382694 0
    outer loop
      vertex 59.7071 59.7071 -7
      vertex 60 59 5
      vertex 60 59 -7
    endloop
  endfacet
  facet normal 0.862851 0.357416 -0.357411
    outer loop
      vertex 60 59 -7
      vertex 59.7071 59 -7.70711
      vertex 59.7071 59.7071 -7
    endloop
  endfacet
  facet normal 0.357406 -0.357406 -0.862857
    outer loop
      vertex 59.7071 -59 -7.70711
      vertex 59 -59.7071 -7.70711
      vertex 59 -59 -8
    endloop
  endfacet
  facet normal -0 0 1
    outer loop
      vertex -55.4839 51.6346 5
      vertex -50.5 50.5 5
      vertex -53.5876 51.9072 5
    endloop
  endfacet
  facet normal 0 0 1
    outer loop
      vertex -50.5 -50.5 5
      vertex -52.1397 -53.1618 5
      vertex -51.6 -55 5
    endloop
  endfacet
  facet normal 0 0 1
    outer loop
      vertex -50.5 50.5 5
      vertex -55.4839 51.6346 5
      vertex -50.5 -50.5 5
    endloop
  endfacet
  facet normal 0 0 1
    outer loop
      vertex -50.5 -50.5 5
      vertex -53.5876 -51.9072 5
      vertex -52.1397 -53.1618 5
    endloop
  endfacet
  facet normal 0 0 1
    outer loop
      vertex -55.4839 -51.6346 5
      vertex -50.5 -50.5 5
      vertex -55.4839 51.6346 5
    endloop
  endfacet
  facet normal 0 0 1
    outer loop
      vertex -50.5 -50.5 5
      vertex -55.4839 -51.6346 5
      vertex -53.5876 -51.9072 5
    endloop
  endfacet
  facet normal 0 0 1
    outer loop
      vertex -57.2265 52.4305 5
      vertex -55.4839 -51.6346 5
      vertex -55.4839 51.6346 5
    endloop
  endfacet
  facet normal 0 0 1
    outer loop
      vertex -57.2265 52.4305 5
      vertex -57.2265 -52.4305 5
      vertex -55.4839 -51.6346 5
    endloop
  endfacet
  facet normal 0 0 1
    outer loop
      vertex -58.2623 54.0421 5
      vertex -57.2265 -52.4305 5
      vertex -57.2265 52.4305 5
    endloop
  endfacet
  facet normal 0 0 1
    outer loop
      vertex -57.2265 -52.4305 5
      vertex -58.2623 54.0421 5
      vertex -58.2623 -54.0421 5
    endloop
  endfacet
  facet normal -0 0 1
    outer loop
      vertex 57.8603 -53.1618 5
      vertex 60 -59 5
      vertex 57.8603 53.1618 5
    endloop
  endfacet
  facet normal 0 0 1
    outer loop
      vertex 60 -59 5
      vertex 57.8603 -53.1618 5
      vertex 58.4 -55 5
    endloop
  endfacet
  facet normal -0 0 1
    outer loop
      vertex 56.4124 51.9072 5
      vertex 57.8603 -53.1618 5
      vertex 57.8603 53.1618 5
    endloop
  endfacet
  facet normal 0 0 1
    outer loop
      vertex 56.4124 51.9072 5
      vertex 56.4124 -51.9072 5
      vertex 57.8603 -53.1618 5
    endloop
  endfacet
  facet normal 0 0 1
    outer loop
      vertex 50.5 50.5 5
      vertex 56.4124 51.9072 5
      vertex 54.5161 51.6346 5
    endloop
  endfacet
  facet normal 0 0 1
    outer loop
      vertex 56.4124 51.9072 5
      vertex 50.5 50.5 5
      vertex 56.4124 -51.9072 5
    endloop
  endfacet
  facet normal 0 0 1
    outer loop
      vertex 50.5 50.5 5
      vertex 54.5161 51.6346 5
      vertex 52.7735 52.4305 5
    endloop
  endfacet
  facet normal -0 0 1
    outer loop
      vertex 50.5 -50.5 5
      vertex 56.4124 -51.9072 5
      vertex 50.5 50.5 5
    endloop
  endfacet
  facet normal 0 0 1
    outer loop
      vertex 50.5 50.5 5
      vertex 52.7735 52.4305 5
      vertex 51.7377 54.0421 5
    endloop
  endfacet
  facet normal 0 0 1
    outer loop
      vertex 56.4124 -51.9072 5
      vertex 50.5 -50.5 5
      vertex 54.5161 -51.6346 5
    endloop
  endfacet
  facet normal 0 0 1
    outer loop
      vertex 59 60 5
      vertex 60 59 5
      vertex 59.7071 59.7071 5
    endloop
  endfacet
  facet normal 0 0 1
    outer loop
      vertex 57.8603 53.1618 5
      vertex 60 59 5
      vertex 58.4 55 5
    endloop
  endfacet
  facet normal 0 0 1
    outer loop
      vertex 60 59 5
      vertex 59 60 5
      vertex 57.8603 56.8382 5
    endloop
  endfacet
  facet normal 0 0 1
    outer loop
      vertex 60 59 5
      vertex 57.8603 53.1618 5
      vertex 60 -59 5
    endloop
  endfacet
  facet normal -0 0 1
    outer loop
      vertex 57.8603 -56.8382 5
      vertex 60 -59 5
      vertex 58.4 -55 5
    endloop
  endfacet
  facet normal 0 0 1
    outer loop
      vertex 60 59 5
      vertex 57.8603 56.8382 5
      vertex 58.4 55 5
    endloop
  endfacet
  facet normal 0 0 1
    outer loop
      vertex 59 60 5
      vertex 56.4124 58.0928 5
      vertex 57.8603 56.8382 5
    endloop
  endfacet
  facet normal 0 0 1
    outer loop
      vertex 59 60 5
      vertex 54.5161 58.3654 5
      vertex 56.4124 58.0928 5
    endloop
  endfacet
  facet normal 0 0 1
    outer loop
      vertex 50.5 50.5 5
      vertex 51.7377 54.0421 5
      vertex 51.7377 55.9579 5
    endloop
  endfacet
  facet normal 0 0 1
    outer loop
      vertex 54.5161 -51.6346 5
      vertex 50.5 -50.5 5
      vertex 52.7735 -52.4305 5
    endloop
  endfacet
  facet normal 0 0 1
    outer loop
      vertex 52.7735 -52.4305 5
      vertex 50.5 -50.5 5
      vertex 51.7377 -54.0421 5
    endloop
  endfacet
  facet normal 0 0 1
    outer loop
      vertex 51.7377 55.9579 5
      vertex -50.5 50.5 5
      vertex 50.5 50.5 5
    endloop
  endfacet
  facet normal -0 0 1
    outer loop
      vertex -52.1397 56.8382 5
      vertex 51.7377 55.9579 5
      vertex 52.7735 57.5695 5
    endloop
  endfacet
  facet normal -0 0 1
    outer loop
      vertex -53.5876 58.0928 5
      vertex 52.7735 57.5695 5
      vertex 54.5161 58.3654 5
    endloop
  endfacet
  facet normal 0 0 1
    outer loop
      vertex -53.5876 58.0928 5
      vertex 54.5161 58.3654 5
      vertex 59 60 5
    endloop
  endfacet
  facet normal -0 0 1
    outer loop
      vertex -52.1397 53.1618 5
      vertex -50.5 50.5 5
      vertex -51.6 55 5
    endloop
  endfacet
  facet normal 0 0 1
    outer loop
      vertex 51.7377 55.9579 5
      vertex -51.6 55 5
      vertex -50.5 50.5 5
    endloop
  endfacet
  facet normal 0 0 1
    outer loop
      vertex 51.7377 55.9579 5
      vertex -52.1397 56.8382 5
      vertex -51.6 55 5
    endloop
  endfacet
  facet normal 0 0 1
    outer loop
      vertex 52.7735 57.5695 5
      vertex -53.5876 58.0928 5
      vertex -52.1397 56.8382 5
    endloop
  endfacet
  facet normal -0 0 1
    outer loop
      vertex -59 60 5
      vertex -53.5876 58.0928 5
      vertex 59 60 5
    endloop
  endfacet
  facet normal 0 0 1
    outer loop
      vertex -60 59 5
      vertex -58.2623 54.0421 5
      vertex -58.2623 55.9579 5
    endloop
  endfacet
  facet normal 0 0 1
    outer loop
      vertex -58.2623 54.0421 5
      vertex -60 59 5
      vertex -58.2623 -54.0421 5
    endloop
  endfacet
  facet normal 0 0 1
    outer loop
      vertex -57.2265 57.5695 5
      vertex -60 59 5
      vertex -58.2623 55.9579 5
    endloop
  endfacet
  facet normal -0 0 1
    outer loop
      vertex -60 59 5
      vertex -57.2265 57.5695 5
      vertex -59 60 5
    endloop
  endfacet
  facet normal 0 0 1
    outer loop
      vertex -55.4839 58.3654 5
      vertex -59 60 5
      vertex -57.2265 57.5695 5
    endloop
  endfacet
  facet normal 0 0 1
    outer loop
      vertex -53.5876 58.0928 5
      vertex -59 60 5
      vertex -55.4839 58.3654 5
    endloop
  endfacet
  facet normal 0 -0 1
    outer loop
      vertex 59 -60 5
      vertex 60 -59 5
      vertex 57.8603 -56.8382 5
    endloop
  endfacet
  facet normal 0 0 1
    outer loop
      vertex 60 -59 5
      vertex 59 -60 5
      vertex 59.7071 -59.7071 5
    endloop
  endfacet
  facet normal -0 0 1
    outer loop
      vertex 56.4124 -58.0928 5
      vertex 59 -60 5
      vertex 57.8603 -56.8382 5
    endloop
  endfacet
  facet normal -0 0 1
    outer loop
      vertex 54.5161 -58.3654 5
      vertex 59 -60 5
      vertex 56.4124 -58.0928 5
    endloop
  endfacet
  facet normal 0 0 1
    outer loop
      vertex 51.7377 -54.0421 5
      vertex 50.5 -50.5 5
      vertex 51.7377 -55.9579 5
    endloop
  endfacet
  facet normal -0 0 1
    outer loop
      vertex -50.5 -50.5 5
      vertex 51.7377 -55.9579 5
      vertex 50.5 -50.5 5
    endloop
  endfacet
  facet normal -0 0 1
    outer loop
      vertex -51.6 -55 5
      vertex 51.7377 -55.9579 5
      vertex -50.5 -50.5 5
    endloop
  endfacet
  facet normal 0 0 1
    outer loop
      vertex -52.1397 -56.8382 5
      vertex 51.7377 -55.9579 5
      vertex -51.6 -55 5
    endloop
  endfacet
  facet normal 0 0 1
    outer loop
      vertex 51.7377 -55.9579 5
      vertex -52.1397 -56.8382 5
      vertex 52.7735 -57.5695 5
    endloop
  endfacet
  facet normal -0 0 1
    outer loop
      vertex -53.5876 51.9072 5
      vertex -50.5 50.5 5
      vertex -52.1397 53.1618 5
    endloop
  endfacet
  facet normal 0 0 1
    outer loop
      vertex -53.5876 -58.0928 5
      vertex 52.7735 -57.5695 5
      vertex -52.1397 -56.8382 5
    endloop
  endfacet
  facet normal 0 0 1
    outer loop
      vertex 52.7735 -57.5695 5
      vertex -53.5876 -58.0928 5
      vertex 54.5161 -58.3654 5
    endloop
  endfacet
  facet normal 0 0 1
    outer loop
      vertex 54.5161 -58.3654 5
      vertex -53.5876 -58.0928 5
      vertex 59 -60 5
    endloop
  endfacet
  facet normal 0 0 1
    outer loop
      vertex -59 -60 5
      vertex -53.5876 -58.0928 5
      vertex -55.4839 -58.3654 5
    endloop
  endfacet
  facet normal 0 0 1
    outer loop
      vertex -53.5876 -58.0928 5
      vertex -59 -60 5
      vertex 59 -60 5
    endloop
  endfacet
  facet normal 0 0 1
    outer loop
      vertex -57.2265 -57.5695 5
      vertex -59 -60 5
      vertex -55.4839 -58.3654 5
    endloop
  endfacet
  facet normal 0 0 1
    outer loop
      vertex -60 -59 5
      vertex -57.2265 -57.5695 5
      vertex -58.2623 -55.9579 5
    endloop
  endfacet
  facet normal 0 0 1
    outer loop
      vertex -60 -59 5
      vertex -58.2623 -54.0421 5
      vertex -60 59 5
    endloop
  endfacet
  facet normal 0 0 1
    outer loop
      vertex -60 59 5
      vertex -59 60 5
      vertex -59.7071 59.7071 5
    endloop
  endfacet
  facet normal 0 0 1
    outer loop
      vertex -58.2623 -54.0421 5
      vertex -60 -59 5
      vertex -58.2623 -55.9579 5
    endloop
  endfacet
  facet normal 0 0 1
    outer loop
      vertex -57.2265 -57.5695 5
      vertex -60 -59 5
      vertex -59 -60 5
    endloop
  endfacet
  facet normal 0 0 1
    outer loop
      vertex -59 -60 5
      vertex -60 -59 5
      vertex -59.7071 -59.7071 5
    endloop
  endfacet
  facet normal 0 -1 0
    outer loop
      vertex -59 -60 -7
      vertex 59 -60 5
      vertex -59 -60 5
    endloop
  endfacet
  facet normal 0 -1 -0
    outer loop
      vertex 59 -60 5
      vertex -59 -60 -7
      vertex 59 -60 -7
    endloop
  endfacet
  facet normal -0.357406 0.357406 -0.862857
    outer loop
      vertex -59 59 -8
      vertex -59.7071 59 -7.70711
      vertex -59 59.7071 -7.70711
    endloop
  endfacet
  facet normal -0.382683 0 -0.92388
    outer loop
      vertex -59.7071 -59 -7.70711
      vertex -59 59 -8
      vertex -59 -59 -8
    endloop
  endfacet
  facet normal -0.382683 0 -0.92388
    outer loop
      vertex -59 59 -8
      vertex -59.7071 -59 -7.70711
      vertex -59.7071 59 -7.70711
    endloop
  endfacet
  facet normal -0.577353 0.577353 -0.577345
    outer loop
      vertex -59 59.7071 -7.70711
      vertex -59.7071 59 -7.70711
      vertex -59.7071 59.7071 -7
    endloop
  endfacet
  facet normal 0 1 0
    outer loop
      vertex 59 60 5
      vertex 4 60 -1
      vertex -59 60 5
    endloop
  endfacet
  facet normal 0 1 0
    outer loop
      vertex 59 60 5
      vertex 4.70711 60 -1.29289
      vertex 4 60 -1
    endloop
  endfacet
  facet normal 0 1 0
    outer loop
      vertex 59 60 5
      vertex 5 60 -2
      vertex 4.70711 60 -1.29289
    endloop
  endfacet
  facet normal 0 1 -0
    outer loop
      vertex 59 60 -7
      vertex 5 60 -2
      vertex 59 60 5
    endloop
  endfacet
  facet normal 0 1 0
    outer loop
      vertex 5 60 -2
      vertex 59 60 -7
      vertex 5 60 -4
    endloop
  endfacet
  facet normal 0 1 0
    outer loop
      vertex 5 60 -4
      vertex 59 60 -7
      vertex 4.70711 60 -4.70711
    endloop
  endfacet
  facet normal 0 1 0
    outer loop
      vertex 4 60 -5
      vertex 59 60 -7
      vertex -4 60 -5
    endloop
  endfacet
  facet normal 0 1 0
    outer loop
      vertex 4.70711 60 -4.70711
      vertex 59 60 -7
      vertex 4 60 -5
    endloop
  endfacet
  facet normal 0 1 -0
    outer loop
      vertex -4 60 -1
      vertex -59 60 5
      vertex 4 60 -1
    endloop
  endfacet
  facet normal 0 1 -0
    outer loop
      vertex -4.70711 60 -1.29289
      vertex -59 60 5
      vertex -4 60 -1
    endloop
  endfacet
  facet normal 0 1 -0
    outer loop
      vertex -5 60 -2
      vertex -59 60 5
      vertex -4.70711 60 -1.29289
    endloop
  endfacet
  facet normal 0 1 0
    outer loop
      vertex -59 60 -7
      vertex -5 60 -2
      vertex -5 60 -4
    endloop
  endfacet
  facet normal 0 1 0
    outer loop
      vertex -59 60 -7
      vertex -5 60 -4
      vertex -4.70711 60 -4.70711
    endloop
  endfacet
  facet normal 0 1 0
    outer loop
      vertex -59 60 -7
      vertex -4.70711 60 -4.70711
      vertex -4 60 -5
    endloop
  endfacet
  facet normal 0 1 0
    outer loop
      vertex -5 60 -2
      vertex -59 60 -7
      vertex -59 60 5
    endloop
  endfacet
  facet normal 0 1 0
    outer loop
      vertex -59 60 -7
      vertex -4 60 -5
      vertex 59 60 -7
    endloop
  endfacet
  facet normal 1 -0 0
    outer loop
      vertex 60 -59 5
      vertex 60 59 -7
      vertex 60 59 5
    endloop
  endfacet
  facet normal 1 0 0
    outer loop
      vertex 60 59 -7
      vertex 60 -59 5
      vertex 60 -59 -7
    endloop
  endfacet
  facet normal 0.577353 0.577353 -0.577345
    outer loop
      vertex 59.7071 59 -7.70711
      vertex 59 59.7071 -7.70711
      vertex 59.7071 59.7071 -7
    endloop
  endfacet
  facet normal 0 0.382683 -0.92388
    outer loop
      vertex -59 59 -8
      vertex 59 59.7071 -7.70711
      vertex 59 59 -8
    endloop
  endfacet
  facet normal 0 0.382683 -0.92388
    outer loop
      vertex 59 59.7071 -7.70711
      vertex -59 59 -8
      vertex -59 59.7071 -7.70711
    endloop
  endfacet
  facet normal 0 -0.923877 -0.38269
    outer loop
      vertex -59 -59.7071 -7.70711
      vertex 59 -60 -7
      vertex -59 -60 -7
    endloop
  endfacet
  facet normal 0 -0.923877 -0.38269
    outer loop
      vertex 59 -60 -7
      vertex -59 -59.7071 -7.70711
      vertex 59 -59.7071 -7.70711
    endloop
  endfacet
  facet normal 0 -0.382683 -0.92388
    outer loop
      vertex -59 -59.7071 -7.70711
      vertex 59 -59 -8
      vertex 59 -59.7071 -7.70711
    endloop
  endfacet
  facet normal -0 -0.382683 -0.92388
    outer loop
      vertex 59 -59 -8
      vertex -59 -59.7071 -7.70711
      vertex -59 -59 -8
    endloop
  endfacet
  facet normal 0.357416 -0.862851 -0.357411
    outer loop
      vertex 59.7071 -59.7071 -7
      vertex 59 -60 -7
      vertex 59 -59.7071 -7.70711
    endloop
  endfacet
  facet normal 0.577353 -0.577353 -0.577345
    outer loop
      vertex 59.7071 -59.7071 -7
      vertex 59 -59.7071 -7.70711
      vertex 59.7071 -59 -7.70711
    endloop
  endfacet
  facet normal -0.382694 -0.923875 0
    outer loop
      vertex -59.7071 -59.7071 -7
      vertex -59 -60 5
      vertex -59.7071 -59.7071 5
    endloop
  endfacet
  facet normal -0.382694 -0.923875 -0
    outer loop
      vertex -59 -60 5
      vertex -59.7071 -59.7071 -7
      vertex -59 -60 -7
    endloop
  endfacet
  facet normal -0.357416 -0.862851 -0.357411
    outer loop
      vertex -59 -60 -7
      vertex -59.7071 -59.7071 -7
      vertex -59 -59.7071 -7.70711
    endloop
  endfacet
  facet normal -0.923875 0.382694 0
    outer loop
      vertex -60 59 -7
      vertex -59.7071 59.7071 5
      vertex -59.7071 59.7071 -7
    endloop
  endfacet
  facet normal -0.923875 0.382694 0
    outer loop
      vertex -59.7071 59.7071 5
      vertex -60 59 -7
      vertex -60 59 5
    endloop
  endfacet
  facet normal 0.382694 0.923875 -0
    outer loop
      vertex 59.7071 59.7071 -7
      vertex 59 60 5
      vertex 59.7071 59.7071 5
    endloop
  endfacet
  facet normal 0.382694 0.923875 0
    outer loop
      vertex 59 60 5
      vertex 59.7071 59.7071 -7
      vertex 59 60 -7
    endloop
  endfacet
  facet normal -1 0 0
    outer loop
      vertex -60 -59 -7
      vertex -60 59 5
      vertex -60 59 -7
    endloop
  endfacet
  facet normal -1 -0 0
    outer loop
      vertex -60 59 5
      vertex -60 -59 -7
      vertex -60 -59 5
    endloop
  endfacet
  facet normal 0.862851 -0.357416 -0.357411
    outer loop
      vertex 60 -59 -7
      vertex 59.7071 -59.7071 -7
      vertex 59.7071 -59 -7.70711
    endloop
  endfacet
  facet normal -0.382694 0.923875 0
    outer loop
      vertex -59 60 -7
      vertex -59.7071 59.7071 5
      vertex -59 60 5
    endloop
  endfacet
  facet normal -0.382694 0.923875 0
    outer loop
      vertex -59.7071 59.7071 5
      vertex -59 60 -7
      vertex -59.7071 59.7071 -7
    endloop
  endfacet
  facet normal -0.357416 0.862851 -0.357411
    outer loop
      vertex -59 59.7071 -7.70711
      vertex -59.7071 59.7071 -7
      vertex -59 60 -7
    endloop
  endfacet
  facet normal -1 0 0
    outer loop
      vertex 50.5 -50.5 -3.55
      vertex 50.5 50.5 5
      vertex 50.5 50.5 -3.55
    endloop
  endfacet
  facet normal -1 -0 0
    outer loop
      vertex 50.5 50.5 5
      vertex 50.5 -50.5 -3.55
      vertex 50.5 -50.5 5
    endloop
  endfacet
  facet normal 0 0 1
    outer loop
      vertex -5 50.5 -3.55
      vertex -50.5 50.5 -3.55
      vertex -5 49.95 -3.55
    endloop
  endfacet
  facet normal 0 0 1
    outer loop
      vertex 5 49.95 -3.55
      vertex 50.5 50.5 -3.55
      vertex 5 50.5 -3.55
    endloop
  endfacet
  facet normal 0 0 1
    outer loop
      vertex 50.5 50.5 -3.55
      vertex 5 49.95 -3.55
      vertex 50.5 -50.5 -3.55
    endloop
  endfacet
  facet normal -0 0 1
    outer loop
      vertex -5 49.95 -3.55
      vertex 50.5 -50.5 -3.55
      vertex 5 49.95 -3.55
    endloop
  endfacet
  facet normal 0 0 1
    outer loop
      vertex -50.5 -50.5 -3.55
      vertex -5 49.95 -3.55
      vertex -50.5 50.5 -3.55
    endloop
  endfacet
  facet normal 0 0 1
    outer loop
      vertex -5 49.95 -3.55
      vertex -50.5 -50.5 -3.55
      vertex 50.5 -50.5 -3.55
    endloop
  endfacet
  facet normal 1 -0 0
    outer loop
      vertex -50.5 -50.5 5
      vertex -50.5 50.5 -3.55
      vertex -50.5 50.5 5
    endloop
  endfacet
  facet normal 1 0 0
    outer loop
      vertex -50.5 50.5 -3.55
      vertex -50.5 -50.5 5
      vertex -50.5 -50.5 -3.55
    endloop
  endfacet
  facet normal 0 -1 0
    outer loop
      vertex -50.5 50.5 5
      vertex -4 50.5 -1
      vertex 50.5 50.5 5
    endloop
  endfacet
  facet normal 0 -1 0
    outer loop
      vertex -50.5 50.5 5
      vertex -4.70711 50.5 -1.29289
      vertex -4 50.5 -1
    endloop
  endfacet
  facet normal 0 -1 0
    outer loop
      vertex -50.5 50.5 5
      vertex -5 50.5 -2
      vertex -4.70711 50.5 -1.29289
    endloop
  endfacet
  facet normal 0 -1 0
    outer loop
      vertex -50.5 50.5 -3.55
      vertex -5 50.5 -2
      vertex -50.5 50.5 5
    endloop
  endfacet
  facet normal 0 -1 -0
    outer loop
      vertex -5 50.5 -2
      vertex -50.5 50.5 -3.55
      vertex -5 50.5 -3.55
    endloop
  endfacet
  facet normal 0 -1 0
    outer loop
      vertex 4 50.5 -1
      vertex 50.5 50.5 5
      vertex -4 50.5 -1
    endloop
  endfacet
  facet normal 0 -1 0
    outer loop
      vertex 4.70711 50.5 -1.29289
      vertex 50.5 50.5 5
      vertex 4 50.5 -1
    endloop
  endfacet
  facet normal 0 -1 0
    outer loop
      vertex 5 50.5 -2
      vertex 50.5 50.5 5
      vertex 4.70711 50.5 -1.29289
    endloop
  endfacet
  facet normal 0 -1 0
    outer loop
      vertex 50.5 50.5 -3.55
      vertex 5 50.5 -2
      vertex 5 50.5 -3.55
    endloop
  endfacet
  facet normal 0 -1 0
    outer loop
      vertex 5 50.5 -2
      vertex 50.5 50.5 -3.55
      vertex 50.5 50.5 5
    endloop
  endfacet
  facet normal 0 1 -0
    outer loop
      vertex 50.5 -50.5 -3.55
      vertex -50.5 -50.5 5
      vertex 50.5 -50.5 5
    endloop
  endfacet
  facet normal 0 1 0
    outer loop
      vertex -50.5 -50.5 5
      vertex 50.5 -50.5 -3.55
      vertex -50.5 -50.5 -3.55
    endloop
  endfacet
  facet normal 0.841233 0.540673 0
    outer loop
      vertex 52.7735 -57.5695 5
      vertex 51.7377 -55.9579 -8
      vertex 51.7377 -55.9579 5
    endloop
  endfacet
  facet normal 0.841233 0.540673 0
    outer loop
      vertex 51.7377 -55.9579 -8
      vertex 52.7735 -57.5695 5
      vertex 52.7735 -57.5695 -8
    endloop
  endfacet
  facet normal -0.654857 -0.755753 0
    outer loop
      vertex 56.4124 -51.9072 -8
      vertex 57.8603 -53.1618 5
      vertex 56.4124 -51.9072 5
    endloop
  endfacet
  facet normal -0.654857 -0.755753 -0
    outer loop
      vertex 57.8603 -53.1618 5
      vertex 56.4124 -51.9072 -8
      vertex 57.8603 -53.1618 -8
    endloop
  endfacet
  facet normal -0.959499 -0.281711 0
    outer loop
      vertex 58.4 -55 -8
      vertex 57.8603 -53.1618 5
      vertex 57.8603 -53.1618 -8
    endloop
  endfacet
  facet normal -0.959499 -0.281711 0
    outer loop
      vertex 57.8603 -53.1618 5
      vertex 58.4 -55 -8
      vertex 58.4 -55 5
    endloop
  endfacet
  facet normal -0.142291 -0.989825 0
    outer loop
      vertex 54.5161 -51.6346 -8
      vertex 56.4124 -51.9072 5
      vertex 54.5161 -51.6346 5
    endloop
  endfacet
  facet normal -0.142291 -0.989825 -0
    outer loop
      vertex 56.4124 -51.9072 5
      vertex 54.5161 -51.6346 -8
      vertex 56.4124 -51.9072 -8
    endloop
  endfacet
  facet normal 0.41545 -0.909616 0
    outer loop
      vertex 52.7735 -52.4305 -8
      vertex 54.5161 -51.6346 5
      vertex 52.7735 -52.4305 5
    endloop
  endfacet
  facet normal 0.41545 -0.909616 0
    outer loop
      vertex 54.5161 -51.6346 5
      vertex 52.7735 -52.4305 -8
      vertex 54.5161 -51.6346 -8
    endloop
  endfacet
  facet normal -0.654857 0.755753 0
    outer loop
      vertex 57.8603 -56.8382 -8
      vertex 56.4124 -58.0928 5
      vertex 57.8603 -56.8382 5
    endloop
  endfacet
  facet normal -0.654857 0.755753 0
    outer loop
      vertex 56.4124 -58.0928 5
      vertex 57.8603 -56.8382 -8
      vertex 56.4124 -58.0928 -8
    endloop
  endfacet
  facet normal 0.41545 0.909616 -0
    outer loop
      vertex 54.5161 -58.3654 -8
      vertex 52.7735 -57.5695 5
      vertex 54.5161 -58.3654 5
    endloop
  endfacet
  facet normal 0.41545 0.909616 0
    outer loop
      vertex 52.7735 -57.5695 5
      vertex 54.5161 -58.3654 -8
      vertex 52.7735 -57.5695 -8
    endloop
  endfacet
  facet normal -0.142291 0.989825 0
    outer loop
      vertex 56.4124 -58.0928 -8
      vertex 54.5161 -58.3654 5
      vertex 56.4124 -58.0928 5
    endloop
  endfacet
  facet normal -0.142291 0.989825 0
    outer loop
      vertex 54.5161 -58.3654 5
      vertex 56.4124 -58.0928 -8
      vertex 54.5161 -58.3654 -8
    endloop
  endfacet
  facet normal 0.841233 -0.540673 0
    outer loop
      vertex 51.7377 -54.0421 5
      vertex 52.7735 -52.4305 -8
      vertex 52.7735 -52.4305 5
    endloop
  endfacet
  facet normal 0.841233 -0.540673 0
    outer loop
      vertex 52.7735 -52.4305 -8
      vertex 51.7377 -54.0421 5
      vertex 51.7377 -54.0421 -8
    endloop
  endfacet
  facet normal -0.959499 0.281711 0
    outer loop
      vertex 57.8603 -56.8382 -8
      vertex 58.4 -55 5
      vertex 58.4 -55 -8
    endloop
  endfacet
  facet normal -0.959499 0.281711 0
    outer loop
      vertex 58.4 -55 5
      vertex 57.8603 -56.8382 -8
      vertex 57.8603 -56.8382 5
    endloop
  endfacet
  facet normal 1 -0 0
    outer loop
      vertex 51.7377 -55.9579 5
      vertex 51.7377 -54.0421 -8
      vertex 51.7377 -54.0421 5
    endloop
  endfacet
  facet normal 1 0 0
    outer loop
      vertex 51.7377 -54.0421 -8
      vertex 51.7377 -55.9579 5
      vertex 51.7377 -55.9579 -8
    endloop
  endfacet
  facet normal 0.841233 0.540673 0
    outer loop
      vertex -57.2265 -57.5695 5
      vertex -58.2623 -55.9579 -8
      vertex -58.2623 -55.9579 5
    endloop
  endfacet
  facet normal 0.841233 0.540673 0
    outer loop
      vertex -58.2623 -55.9579 -8
      vertex -57.2265 -57.5695 5
      vertex -57.2265 -57.5695 -8
    endloop
  endfacet
  facet normal -0.654857 -0.755753 0
    outer loop
      vertex -53.5876 -51.9072 -8
      vertex -52.1397 -53.1618 5
      vertex -53.5876 -51.9072 5
    endloop
  endfacet
  facet normal -0.654857 -0.755753 -0
    outer loop
      vertex -52.1397 -53.1618 5
      vertex -53.5876 -51.9072 -8
      vertex -52.1397 -53.1618 -8
    endloop
  endfacet
  facet normal -0.959499 -0.281711 0
    outer loop
      vertex -51.6 -55 -8
      vertex -52.1397 -53.1618 5
      vertex -52.1397 -53.1618 -8
    endloop
  endfacet
  facet normal -0.959499 -0.281711 0
    outer loop
      vertex -52.1397 -53.1618 5
      vertex -51.6 -55 -8
      vertex -51.6 -55 5
    endloop
  endfacet
  facet normal -0.142291 -0.989825 0
    outer loop
      vertex -55.4839 -51.6346 -8
      vertex -53.5876 -51.9072 5
      vertex -55.4839 -51.6346 5
    endloop
  endfacet
  facet normal -0.142291 -0.989825 -0
    outer loop
      vertex -53.5876 -51.9072 5
      vertex -55.4839 -51.6346 -8
      vertex -53.5876 -51.9072 -8
    endloop
  endfacet
  facet normal 0.41545 -0.909616 0
    outer loop
      vertex -57.2265 -52.4305 -8
      vertex -55.4839 -51.6346 5
      vertex -57.2265 -52.4305 5
    endloop
  endfacet
  facet normal 0.41545 -0.909616 0
    outer loop
      vertex -55.4839 -51.6346 5
      vertex -57.2265 -52.4305 -8
      vertex -55.4839 -51.6346 -8
    endloop
  endfacet
  facet normal -0.654857 0.755753 0
    outer loop
      vertex -52.1397 -56.8382 -8
      vertex -53.5876 -58.0928 5
      vertex -52.1397 -56.8382 5
    endloop
  endfacet
  facet normal -0.654857 0.755753 0
    outer loop
      vertex -53.5876 -58.0928 5
      vertex -52.1397 -56.8382 -8
      vertex -53.5876 -58.0928 -8
    endloop
  endfacet
  facet normal 0.41545 0.909616 -0
    outer loop
      vertex -55.4839 -58.3654 -8
      vertex -57.2265 -57.5695 5
      vertex -55.4839 -58.3654 5
    endloop
  endfacet
  facet normal 0.41545 0.909616 0
    outer loop
      vertex -57.2265 -57.5695 5
      vertex -55.4839 -58.3654 -8
      vertex -57.2265 -57.5695 -8
    endloop
  endfacet
  facet normal -0.142291 0.989825 0
    outer loop
      vertex -53.5876 -58.0928 -8
      vertex -55.4839 -58.3654 5
      vertex -53.5876 -58.0928 5
    endloop
  endfacet
  facet normal -0.142291 0.989825 0
    outer loop
      vertex -55.4839 -58.3654 5
      vertex -53.5876 -58.0928 -8
      vertex -55.4839 -58.3654 -8
    endloop
  endfacet
  facet normal 0.841233 -0.540673 0
    outer loop
      vertex -58.2623 -54.0421 5
      vertex -57.2265 -52.4305 -8
      vertex -57.2265 -52.4305 5
    endloop
  endfacet
  facet normal 0.841233 -0.540673 0
    outer loop
      vertex -57.2265 -52.4305 -8
      vertex -58.2623 -54.0421 5
      vertex -58.2623 -54.0421 -8
    endloop
  endfacet
  facet normal -0.959499 0.281711 0
    outer loop
      vertex -52.1397 -56.8382 -8
      vertex -51.6 -55 5
      vertex -51.6 -55 -8
    endloop
  endfacet
  facet normal -0.959499 0.281711 0
    outer loop
      vertex -51.6 -55 5
      vertex -52.1397 -56.8382 -8
      vertex -52.1397 -56.8382 5
    endloop
  endfacet
  facet normal 1 -0 0
    outer loop
      vertex -58.2623 -55.9579 5
      vertex -58.2623 -54.0421 -8
      vertex -58.2623 -54.0421 5
    endloop
  endfacet
  facet normal 1 0 0
    outer loop
      vertex -58.2623 -54.0421 -8
      vertex -58.2623 -55.9579 5
      vertex -58.2623 -55.9579 -8
    endloop
  endfacet
  facet normal 0.41545 0.909616 -0
    outer loop
      vertex -55.4839 51.6346 -8
      vertex -57.2265 52.4305 5
      vertex -55.4839 51.6346 5
    endloop
  endfacet
  facet normal 0.41545 0.909616 0
    outer loop
      vertex -57.2265 52.4305 5
      vertex -55.4839 51.6346 -8
      vertex -57.2265 52.4305 -8
    endloop
  endfacet
  facet normal -0.654857 -0.755753 0
    outer loop
      vertex -53.5876 58.0928 -8
      vertex -52.1397 56.8382 5
      vertex -53.5876 58.0928 5
    endloop
  endfacet
  facet normal -0.654857 -0.755753 -0
    outer loop
      vertex -52.1397 56.8382 5
      vertex -53.5876 58.0928 -8
      vertex -52.1397 56.8382 -8
    endloop
  endfacet
  facet normal -0.959499 -0.281711 0
    outer loop
      vertex -51.6 55 -8
      vertex -52.1397 56.8382 5
      vertex -52.1397 56.8382 -8
    endloop
  endfacet
  facet normal -0.959499 -0.281711 0
    outer loop
      vertex -52.1397 56.8382 5
      vertex -51.6 55 -8
      vertex -51.6 55 5
    endloop
  endfacet
  facet normal -0.142291 -0.989825 0
    outer loop
      vertex -55.4839 58.3654 -8
      vertex -53.5876 58.0928 5
      vertex -55.4839 58.3654 5
    endloop
  endfacet
  facet normal -0.142291 -0.989825 -0
    outer loop
      vertex -53.5876 58.0928 5
      vertex -55.4839 58.3654 -8
      vertex -53.5876 58.0928 -8
    endloop
  endfacet
  facet normal -0.142291 0.989825 0
    outer loop
      vertex -53.5876 51.9072 -8
      vertex -55.4839 51.6346 5
      vertex -53.5876 51.9072 5
    endloop
  endfacet
  facet normal -0.142291 0.989825 0
    outer loop
      vertex -55.4839 51.6346 5
      vertex -53.5876 51.9072 -8
      vertex -55.4839 51.6346 -8
    endloop
  endfacet
  facet normal 0.41545 -0.909616 0
    outer loop
      vertex -57.2265 57.5695 -8
      vertex -55.4839 58.3654 5
      vertex -57.2265 57.5695 5
    endloop
  endfacet
  facet normal 0.41545 -0.909616 0
    outer loop
      vertex -55.4839 58.3654 5
      vertex -57.2265 57.5695 -8
      vertex -55.4839 58.3654 -8
    endloop
  endfacet
  facet normal -0.654857 0.755753 0
    outer loop
      vertex -52.1397 53.1618 -8
      vertex -53.5876 51.9072 5
      vertex -52.1397 53.1618 5
    endloop
  endfacet
  facet normal -0.654857 0.755753 0
    outer loop
      vertex -53.5876 51.9072 5
      vertex -52.1397 53.1618 -8
      vertex -53.5876 51.9072 -8
    endloop
  endfacet
  facet normal -0.959499 0.281711 0
    outer loop
      vertex -52.1397 53.1618 -8
      vertex -51.6 55 5
      vertex -51.6 55 -8
    endloop
  endfacet
  facet normal -0.959499 0.281711 0
    outer loop
      vertex -51.6 55 5
      vertex -52.1397 53.1618 -8
      vertex -52.1397 53.1618 5
    endloop
  endfacet
  facet normal 1 -0 0
    outer loop
      vertex -58.2623 54.0421 5
      vertex -58.2623 55.9579 -8
      vertex -58.2623 55.9579 5
    endloop
  endfacet
  facet normal 1 0 0
    outer loop
      vertex -58.2623 55.9579 -8
      vertex -58.2623 54.0421 5
      vertex -58.2623 54.0421 -8
    endloop
  endfacet
  facet normal 0.841233 0.540673 0
    outer loop
      vertex -57.2265 52.4305 5
      vertex -58.2623 54.0421 -8
      vertex -58.2623 54.0421 5
    endloop
  endfacet
  facet normal 0.841233 0.540673 0
    outer loop
      vertex -58.2623 54.0421 -8
      vertex -57.2265 52.4305 5
      vertex -57.2265 52.4305 -8
    endloop
  endfacet
  facet normal 0.841233 -0.540673 0
    outer loop
      vertex -58.2623 55.9579 5
      vertex -57.2265 57.5695 -8
      vertex -57.2265 57.5695 5
    endloop
  endfacet
  facet normal 0.841233 -0.540673 0
    outer loop
      vertex -57.2265 57.5695 -8
      vertex -58.2623 55.9579 5
      vertex -58.2623 55.9579 -8
    endloop
  endfacet
  facet normal 0.41545 0.909616 -0
    outer loop
      vertex 54.5161 51.6346 -8
      vertex 52.7735 52.4305 5
      vertex 54.5161 51.6346 5
    endloop
  endfacet
  facet normal 0.41545 0.909616 0
    outer loop
      vertex 52.7735 52.4305 5
      vertex 54.5161 51.6346 -8
      vertex 52.7735 52.4305 -8
    endloop
  endfacet
  facet normal -0.654857 -0.755753 0
    outer loop
      vertex 56.4124 58.0928 -8
      vertex 57.8603 56.8382 5
      vertex 56.4124 58.0928 5
    endloop
  endfacet
  facet normal -0.654857 -0.755753 -0
    outer loop
      vertex 57.8603 56.8382 5
      vertex 56.4124 58.0928 -8
      vertex 57.8603 56.8382 -8
    endloop
  endfacet
  facet normal -0.959499 -0.281711 0
    outer loop
      vertex 58.4 55 -8
      vertex 57.8603 56.8382 5
      vertex 57.8603 56.8382 -8
    endloop
  endfacet
  facet normal -0.959499 -0.281711 0
    outer loop
      vertex 57.8603 56.8382 5
      vertex 58.4 55 -8
      vertex 58.4 55 5
    endloop
  endfacet
  facet normal -0.142291 -0.989825 0
    outer loop
      vertex 54.5161 58.3654 -8
      vertex 56.4124 58.0928 5
      vertex 54.5161 58.3654 5
    endloop
  endfacet
  facet normal -0.142291 -0.989825 -0
    outer loop
      vertex 56.4124 58.0928 5
      vertex 54.5161 58.3654 -8
      vertex 56.4124 58.0928 -8
    endloop
  endfacet
  facet normal -0.142291 0.989825 0
    outer loop
      vertex 56.4124 51.9072 -8
      vertex 54.5161 51.6346 5
      vertex 56.4124 51.9072 5
    endloop
  endfacet
  facet normal -0.142291 0.989825 0
    outer loop
      vertex 54.5161 51.6346 5
      vertex 56.4124 51.9072 -8
      vertex 54.5161 51.6346 -8
    endloop
  endfacet
  facet normal 0.41545 -0.909616 0
    outer loop
      vertex 52.7735 57.5695 -8
      vertex 54.5161 58.3654 5
      vertex 52.7735 57.5695 5
    endloop
  endfacet
  facet normal 0.41545 -0.909616 0
    outer loop
      vertex 54.5161 58.3654 5
      vertex 52.7735 57.5695 -8
      vertex 54.5161 58.3654 -8
    endloop
  endfacet
  facet normal -0.654857 0.755753 0
    outer loop
      vertex 57.8603 53.1618 -8
      vertex 56.4124 51.9072 5
      vertex 57.8603 53.1618 5
    endloop
  endfacet
  facet normal -0.654857 0.755753 0
    outer loop
      vertex 56.4124 51.9072 5
      vertex 57.8603 53.1618 -8
      vertex 56.4124 51.9072 -8
    endloop
  endfacet
  facet normal -0.959499 0.281711 0
    outer loop
      vertex 57.8603 53.1618 -8
      vertex 58.4 55 5
      vertex 58.4 55 -8
    endloop
  endfacet
  facet normal -0.959499 0.281711 0
    outer loop
      vertex 58.4 55 5
      vertex 57.8603 53.1618 -8
      vertex 57.8603 53.1618 5
    endloop
  endfacet
  facet normal 1 -0 0
    outer loop
      vertex 51.7377 54.0421 5
      vertex 51.7377 55.9579 -8
      vertex 51.7377 55.9579 5
    endloop
  endfacet
  facet normal 1 0 0
    outer loop
      vertex 51.7377 55.9579 -8
      vertex 51.7377 54.0421 5
      vertex 51.7377 54.0421 -8
    endloop
  endfacet
  facet normal 0.841233 0.540673 0
    outer loop
      vertex 52.7735 52.4305 5
      vertex 51.7377 54.0421 -8
      vertex 51.7377 54.0421 5
    endloop
  endfacet
  facet normal 0.841233 0.540673 0
    outer loop
      vertex 51.7377 54.0421 -8
      vertex 52.7735 52.4305 5
      vertex 52.7735 52.4305 -8
    endloop
  endfacet
  facet normal 0.841233 -0.540673 0
    outer loop
      vertex 51.7377 55.9579 5
      vertex 52.7735 57.5695 -8
      vertex 52.7735 57.5695 5
    endloop
  endfacet
  facet normal 0.841233 -0.540673 0
    outer loop
      vertex 52.7735 57.5695 -8
      vertex 51.7377 55.9579 5
      vertex 51.7377 55.9579 -8
    endloop
  endfacet
  facet normal 0.382678 0 0.923882
    outer loop
      vertex -4.70711 60 -4.70711
      vertex -4 49.95 -5
      vertex -4 60 -5
    endloop
  endfacet
  facet normal 0.382678 0 0.923882
    outer loop
      vertex -4 49.95 -5
      vertex -4.70711 60 -4.70711
      vertex -4.70711 49.95 -4.70711
    endloop
  endfacet
  facet normal -0.923882 0 0.382678
    outer loop
      vertex 4.70711 49.95 -4.70711
      vertex 5 60 -4
      vertex 4.70711 60 -4.70711
    endloop
  endfacet
  facet normal -0.923882 0 0.382678
    outer loop
      vertex 5 60 -4
      vertex 4.70711 49.95 -4.70711
      vertex 5 49.95 -4
    endloop
  endfacet
  facet normal -1 0 0
    outer loop
      vertex 5 60 -4
      vertex 5 50.5 -3.55
      vertex 5 60 -2
    endloop
  endfacet
  facet normal -1 0 0
    outer loop
      vertex 5 49.95 -4
      vertex 5 50.5 -3.55
      vertex 5 60 -4
    endloop
  endfacet
  facet normal -1 -0 0
    outer loop
      vertex 5 50.5 -3.55
      vertex 5 49.95 -4
      vertex 5 49.95 -3.55
    endloop
  endfacet
  facet normal -1 -0 0
    outer loop
      vertex 5 60 -2
      vertex 5 50.5 -3.55
      vertex 5 50.5 -2
    endloop
  endfacet
  facet normal -0 0 1
    outer loop
      vertex -4 60 -5
      vertex 4 49.95 -5
      vertex 4 60 -5
    endloop
  endfacet
  facet normal 0 0 1
    outer loop
      vertex 4 49.95 -5
      vertex -4 60 -5
      vertex -4 49.95 -5
    endloop
  endfacet
  facet normal 0.382678 0 -0.923882
    outer loop
      vertex -4.70711 50.5 -1.29289
      vertex -4 60 -1
      vertex -4 50.5 -1
    endloop
  endfacet
  facet normal 0.382678 0 -0.923882
    outer loop
      vertex -4 60 -1
      vertex -4.70711 50.5 -1.29289
      vertex -4.70711 60 -1.29289
    endloop
  endfacet
  facet normal 1 0 0
    outer loop
      vertex -5 50.5 -3.55
      vertex -5 60 -2
      vertex -5 50.5 -2
    endloop
  endfacet
  facet normal 1 0 0
    outer loop
      vertex -5 60 -2
      vertex -5 50.5 -3.55
      vertex -5 60 -4
    endloop
  endfacet
  facet normal 1 0 0
    outer loop
      vertex -5 49.95 -4
      vertex -5 50.5 -3.55
      vertex -5 49.95 -3.55
    endloop
  endfacet
  facet normal 1 0 0
    outer loop
      vertex -5 50.5 -3.55
      vertex -5 49.95 -4
      vertex -5 60 -4
    endloop
  endfacet
  facet normal -0.923882 0 -0.382678
    outer loop
      vertex 5 50.5 -2
      vertex 4.70711 60 -1.29289
      vertex 5 60 -2
    endloop
  endfacet
  facet normal -0.923882 -0 -0.382678
    outer loop
      vertex 4.70711 60 -1.29289
      vertex 5 50.5 -2
      vertex 4.70711 50.5 -1.29289
    endloop
  endfacet
  facet normal 0 1 0
    outer loop
      vertex 4 49.95 -5
      vertex 5 49.95 -3.55
      vertex 5 49.95 -4
    endloop
  endfacet
  facet normal 0 1 0
    outer loop
      vertex 5 49.95 -3.55
      vertex 4 49.95 -5
      vertex -5 49.95 -3.55
    endloop
  endfacet
  facet normal 0 1 0
    outer loop
      vertex 4 49.95 -5
      vertex 5 49.95 -4
      vertex 4.70711 49.95 -4.70711
    endloop
  endfacet
  facet normal 0 1 -0
    outer loop
      vertex -4 49.95 -5
      vertex -5 49.95 -3.55
      vertex 4 49.95 -5
    endloop
  endfacet
  facet normal 0 1 0
    outer loop
      vertex -5 49.95 -3.55
      vertex -4 49.95 -5
      vertex -5 49.95 -4
    endloop
  endfacet
  facet normal 0 1 0
    outer loop
      vertex -5 49.95 -4
      vertex -4 49.95 -5
      vertex -4.70711 49.95 -4.70711
    endloop
  endfacet
  facet normal -0.382678 0 0.923882
    outer loop
      vertex 4 60 -5
      vertex 4.70711 49.95 -4.70711
      vertex 4.70711 60 -4.70711
    endloop
  endfacet
  facet normal -0.382678 0 0.923882
    outer loop
      vertex 4.70711 49.95 -4.70711
      vertex 4 60 -5
      vertex 4 49.95 -5
    endloop
  endfacet
  facet normal -0.382678 0 -0.923882
    outer loop
      vertex 4 50.5 -1
      vertex 4.70711 60 -1.29289
      vertex 4.70711 50.5 -1.29289
    endloop
  endfacet
  facet normal -0.382678 0 -0.923882
    outer loop
      vertex 4.70711 60 -1.29289
      vertex 4 50.5 -1
      vertex 4 60 -1
    endloop
  endfacet
  facet normal 0.923882 0 -0.382678
    outer loop
      vertex -4.70711 50.5 -1.29289
      vertex -5 60 -2
      vertex -4.70711 60 -1.29289
    endloop
  endfacet
  facet normal 0.923882 0 -0.382678
    outer loop
      vertex -5 60 -2
      vertex -4.70711 50.5 -1.29289
      vertex -5 50.5 -2
    endloop
  endfacet
  facet normal 0.923882 -0 0.382678
    outer loop
      vertex -5 49.95 -4
      vertex -4.70711 60 -4.70711
      vertex -5 60 -4
    endloop
  endfacet
  facet normal 0.923882 0 0.382678
    outer loop
      vertex -4.70711 60 -4.70711
      vertex -5 49.95 -4
      vertex -4.70711 49.95 -4.70711
    endloop
  endfacet
  facet normal 0 0 -1
    outer loop
      vertex -4 50.5 -1
      vertex 4 60 -1
      vertex 4 50.5 -1
    endloop
  endfacet
  facet normal -0 0 -1
    outer loop
      vertex 4 60 -1
      vertex -4 50.5 -1
      vertex -4 60 -1
    endloop
  endfacet
endsolid OpenSCAD_Model
