solid OpenSCAD_Model
  facet normal -0.357406 -0.357406 -0.862857
    outer loop
      vertex -59 -59.7071 -7.70711
      vertex -59.7071 -59 -7.70711
      vertex -59 -59 -8
    endloop
  endfacet
  facet normal 0.923875 -0.382694 0
    outer loop
      vertex 59.7071 -59.7071 5
      vertex 60 -59 -7
      vertex 60 -59 5
    endloop
  endfacet
  facet normal 0.923875 -0.382694 0
    outer loop
      vertex 60 -59 -7
      vertex 59.7071 -59.7071 5
      vertex 59.7071 -59.7071 -7
    endloop
  endfacet
  facet normal -0.923875 -0.382694 0
    outer loop
      vertex -59.7071 -59.7071 -7
      vertex -60 -59 5
      vertex -60 -59 -7
    endloop
  endfacet
  facet normal -0.923875 -0.382694 0
    outer loop
      vertex -60 -59 5
      vertex -59.7071 -59.7071 -7
      vertex -59.7071 -59.7071 5
    endloop
  endfacet
  facet normal -0.577353 -0.577353 -0.577345
    outer loop
      vertex -59 -59.7071 -7.70711
      vertex -59.7071 -59.7071 -7
      vertex -59.7071 -59 -7.70711
    endloop
  endfacet
  facet normal 0.382683 0 -0.92388
    outer loop
      vertex 59 -59 -8
      vertex 59.7071 59 -7.70711
      vertex 59.7071 -59 -7.70711
    endloop
  endfacet
  facet normal 0.382683 0 -0.92388
    outer loop
      vertex 59.7071 59 -7.70711
      vertex 59 -59 -8
      vertex 59 59 -8
    endloop
  endfacet
  facet normal -0.923877 0 -0.38269
    outer loop
      vertex -59.7071 -59 -7.70711
      vertex -60 59 -7
      vertex -59.7071 59 -7.70711
    endloop
  endfacet
  facet normal -0.923877 -0 -0.38269
    outer loop
      vertex -60 59 -7
      vertex -59.7071 -59 -7.70711
      vertex -60 -59 -7
    endloop
  endfacet
  facet normal 0 0.923877 -0.38269
    outer loop
      vertex 59 59.7071 -7.70711
      vertex -59 60 -7
      vertex 59 60 -7
    endloop
  endfacet
  facet normal 0 0.923877 -0.38269
    outer loop
      vertex -59 60 -7
      vertex 59 59.7071 -7.70711
      vertex -59 59.7071 -7.70711
    endloop
  endfacet
  facet normal -0.862851 -0.357416 -0.357411
    outer loop
      vertex -59.7071 -59.7071 -7
      vertex -60 -59 -7
      vertex -59.7071 -59 -7.70711
    endloop
  endfacet
  facet normal 0.382694 -0.923875 0
    outer loop
      vertex 59 -60 -7
      vertex 59.7071 -59.7071 5
      vertex 59 -60 5
    endloop
  endfacet
  facet normal 0.382694 -0.923875 0
    outer loop
      vertex 59.7071 -59.7071 5
      vertex 59 -60 -7
      vertex 59.7071 -59.7071 -7
    endloop
  endfacet
  facet normal 0 0 -1
    outer loop
      vertex -54.15 53.5278 -8
      vertex 54.15 53.5278 -8
      vertex -54.15 -53.5278 -8
    endloop
  endfacet
  facet normal 0 0 -1
    outer loop
      vertex 54.15 53.5278 -8
      vertex -54.15 53.5278 -8
      vertex -53.3 55 -8
    endloop
  endfacet
  facet normal 0 0 -1
    outer loop
      vertex -55.85 -53.5278 -8
      vertex -54.15 53.5278 -8
      vertex -54.15 -53.5278 -8
    endloop
  endfacet
  facet normal 0 0 -1
    outer loop
      vertex -55.85 -53.5278 -8
      vertex -55.85 53.5278 -8
      vertex -54.15 53.5278 -8
    endloop
  endfacet
  facet normal 0 0 -1
    outer loop
      vertex -56.7 -55 -8
      vertex -55.85 53.5278 -8
      vertex -55.85 -53.5278 -8
    endloop
  endfacet
  facet normal -0 0 -1
    outer loop
      vertex -55.85 53.5278 -8
      vertex -56.7 -55 -8
      vertex -56.7 55 -8
    endloop
  endfacet
  facet normal 0 0 -1
    outer loop
      vertex 55.85 -53.5278 -8
      vertex 56.7 55 -8
      vertex 56.7 -55 -8
    endloop
  endfacet
  facet normal 0 0 -1
    outer loop
      vertex 55.85 -53.5278 -8
      vertex 55.85 53.5278 -8
      vertex 56.7 55 -8
    endloop
  endfacet
  facet normal 0 0 -1
    outer loop
      vertex 54.15 -53.5278 -8
      vertex 55.85 53.5278 -8
      vertex 55.85 -53.5278 -8
    endloop
  endfacet
  facet normal 0 0 -1
    outer loop
      vertex 54.15 -53.5278 -8
      vertex 54.15 53.5278 -8
      vertex 55.85 53.5278 -8
    endloop
  endfacet
  facet normal 0 0 -1
    outer loop
      vertex -53.3 -55 -8
      vertex 54.15 -53.5278 -8
      vertex 53.3 -55 -8
    endloop
  endfacet
  facet normal 0 0 -1
    outer loop
      vertex -54.15 -53.5278 -8
      vertex 54.15 -53.5278 -8
      vertex -53.3 -55 -8
    endloop
  endfacet
  facet normal 0 0 -1
    outer loop
      vertex 59 -59 -8
      vertex 56.7 -55 -8
      vertex 59 59 -8
    endloop
  endfacet
  facet normal 0 0 -1
    outer loop
      vertex 59 -59 -8
      vertex 55.85 -56.4722 -8
      vertex 56.7 -55 -8
    endloop
  endfacet
  facet normal 0 0 -1
    outer loop
      vertex 59 -59 -8
      vertex 54.15 -56.4722 -8
      vertex 55.85 -56.4722 -8
    endloop
  endfacet
  facet normal 0 0 -1
    outer loop
      vertex 54.15 -53.5278 -8
      vertex -54.15 -53.5278 -8
      vertex 54.15 53.5278 -8
    endloop
  endfacet
  facet normal 0 0 -1
    outer loop
      vertex 54.15 -56.4722 -8
      vertex -53.3 -55 -8
      vertex 53.3 -55 -8
    endloop
  endfacet
  facet normal 0 0 -1
    outer loop
      vertex -54.15 -56.4722 -8
      vertex 54.15 -56.4722 -8
      vertex 59 -59 -8
    endloop
  endfacet
  facet normal 0 0 -1
    outer loop
      vertex 54.15 -56.4722 -8
      vertex -54.15 -56.4722 -8
      vertex -53.3 -55 -8
    endloop
  endfacet
  facet normal 0 0 -1
    outer loop
      vertex -59 -59 -8
      vertex -54.15 -56.4722 -8
      vertex 59 -59 -8
    endloop
  endfacet
  facet normal -0 0 -1
    outer loop
      vertex -56.7 -55 -8
      vertex -59 -59 -8
      vertex -56.7 55 -8
    endloop
  endfacet
  facet normal -0 0 -1
    outer loop
      vertex -55.85 -56.4722 -8
      vertex -59 -59 -8
      vertex -56.7 -55 -8
    endloop
  endfacet
  facet normal -0 0 -1
    outer loop
      vertex -54.15 -56.4722 -8
      vertex -59 -59 -8
      vertex -55.85 -56.4722 -8
    endloop
  endfacet
  facet normal 0 0 -1
    outer loop
      vertex 56.7 55 -8
      vertex 59 59 -8
      vertex 56.7 -55 -8
    endloop
  endfacet
  facet normal 0 0 -1
    outer loop
      vertex 55.85 56.4722 -8
      vertex 59 59 -8
      vertex 56.7 55 -8
    endloop
  endfacet
  facet normal 0 0 -1
    outer loop
      vertex 54.15 56.4722 -8
      vertex 59 59 -8
      vertex 55.85 56.4722 -8
    endloop
  endfacet
  facet normal 0 0 -1
    outer loop
      vertex 54.15 53.5278 -8
      vertex -53.3 55 -8
      vertex 53.3 55 -8
    endloop
  endfacet
  facet normal 0 0 -1
    outer loop
      vertex 53.3 55 -8
      vertex -53.3 55 -8
      vertex 54.15 56.4722 -8
    endloop
  endfacet
  facet normal 0 0 -1
    outer loop
      vertex -54.15 56.4722 -8
      vertex 54.15 56.4722 -8
      vertex -53.3 55 -8
    endloop
  endfacet
  facet normal 0 0 -1
    outer loop
      vertex 54.15 56.4722 -8
      vertex -54.15 56.4722 -8
      vertex 59 59 -8
    endloop
  endfacet
  facet normal 0 0 -1
    outer loop
      vertex -59 59 -8
      vertex -54.15 56.4722 -8
      vertex -55.85 56.4722 -8
    endloop
  endfacet
  facet normal 0 0 -1
    outer loop
      vertex -54.15 56.4722 -8
      vertex -59 59 -8
      vertex 59 59 -8
    endloop
  endfacet
  facet normal 0 0 -1
    outer loop
      vertex -56.7 55 -8
      vertex -59 59 -8
      vertex -55.85 56.4722 -8
    endloop
  endfacet
  facet normal 0 0 -1
    outer loop
      vertex -59 59 -8
      vertex -56.7 55 -8
      vertex -59 -59 -8
    endloop
  endfacet
  facet normal 0.923877 0 -0.38269
    outer loop
      vertex 60 -59 -7
      vertex 59.7071 59 -7.70711
      vertex 60 59 -7
    endloop
  endfacet
  facet normal 0.923877 0 -0.38269
    outer loop
      vertex 59.7071 59 -7.70711
      vertex 60 -59 -7
      vertex 59.7071 -59 -7.70711
    endloop
  endfacet
  facet normal 0.357406 0.357406 -0.862857
    outer loop
      vertex 59.7071 59 -7.70711
      vertex 59 59 -8
      vertex 59 59.7071 -7.70711
    endloop
  endfacet
  facet normal -0.862851 0.357416 -0.357411
    outer loop
      vertex -59.7071 59 -7.70711
      vertex -60 59 -7
      vertex -59.7071 59.7071 -7
    endloop
  endfacet
  facet normal 0.357416 0.862851 -0.357411
    outer loop
      vertex 59.7071 59.7071 -7
      vertex 59 59.7071 -7.70711
      vertex 59 60 -7
    endloop
  endfacet
  facet normal 0.923875 0.382694 0
    outer loop
      vertex 60 59 5
      vertex 59.7071 59.7071 -7
      vertex 59.7071 59.7071 5
    endloop
  endfacet
  facet normal 0.923875 0.382694 0
    outer loop
      vertex 59.7071 59.7071 -7
      vertex 60 59 5
      vertex 60 59 -7
    endloop
  endfacet
  facet normal 0.862851 0.357416 -0.357411
    outer loop
      vertex 60 59 -7
      vertex 59.7071 59 -7.70711
      vertex 59.7071 59.7071 -7
    endloop
  endfacet
  facet normal 0.357406 -0.357406 -0.862857
    outer loop
      vertex 59.7071 -59 -7.70711
      vertex 59 -59.7071 -7.70711
      vertex 59 -59 -8
    endloop
  endfacet
  facet normal 0 0 1
    outer loop
      vertex -50.5 50.5 5
      vertex -55.85 53.5278 5
      vertex -50.5 -50.5 5
    endloop
  endfacet
  facet normal 0 0 1
    outer loop
      vertex -50.5 -50.5 5
      vertex -54.15 -53.5278 5
      vertex -53.3 -55 5
    endloop
  endfacet
  facet normal 0 0 1
    outer loop
      vertex -55.85 -53.5278 5
      vertex -50.5 -50.5 5
      vertex -55.85 53.5278 5
    endloop
  endfacet
  facet normal 0 0 1
    outer loop
      vertex -50.5 -50.5 5
      vertex -55.85 -53.5278 5
      vertex -54.15 -53.5278 5
    endloop
  endfacet
  facet normal 0 0 1
    outer loop
      vertex -60 59 5
      vertex -55.85 53.5278 5
      vertex -56.7 55 5
    endloop
  endfacet
  facet normal 0 0 1
    outer loop
      vertex -55.85 53.5278 5
      vertex -60 59 5
      vertex -55.85 -53.5278 5
    endloop
  endfacet
  facet normal -0 0 1
    outer loop
      vertex 55.85 -53.5278 5
      vertex 60 -59 5
      vertex 55.85 53.5278 5
    endloop
  endfacet
  facet normal 0 0 1
    outer loop
      vertex 60 -59 5
      vertex 55.85 -53.5278 5
      vertex 56.7 -55 5
    endloop
  endfacet
  facet normal 0 0 1
    outer loop
      vertex 50.5 50.5 5
      vertex 55.85 53.5278 5
      vertex 54.15 53.5278 5
    endloop
  endfacet
  facet normal 0 0 1
    outer loop
      vertex 55.85 53.5278 5
      vertex 50.5 50.5 5
      vertex 55.85 -53.5278 5
    endloop
  endfacet
  facet normal 0 0 1
    outer loop
      vertex 50.5 50.5 5
      vertex 54.15 53.5278 5
      vertex 53.3 55 5
    endloop
  endfacet
  facet normal -0 0 1
    outer loop
      vertex 50.5 -50.5 5
      vertex 55.85 -53.5278 5
      vertex 50.5 50.5 5
    endloop
  endfacet
  facet normal 0 0 1
    outer loop
      vertex 59 60 5
      vertex 60 59 5
      vertex 59.7071 59.7071 5
    endloop
  endfacet
  facet normal 0 0 1
    outer loop
      vertex 55.85 53.5278 5
      vertex 60 59 5
      vertex 56.7 55 5
    endloop
  endfacet
  facet normal 0 0 1
    outer loop
      vertex 60 59 5
      vertex 59 60 5
      vertex 55.85 56.4722 5
    endloop
  endfacet
  facet normal 0 0 1
    outer loop
      vertex 60 59 5
      vertex 55.85 53.5278 5
      vertex 60 -59 5
    endloop
  endfacet
  facet normal -0 0 1
    outer loop
      vertex 55.85 -56.4722 5
      vertex 60 -59 5
      vertex 56.7 -55 5
    endloop
  endfacet
  facet normal 0 0 1
    outer loop
      vertex 60 59 5
      vertex 55.85 56.4722 5
      vertex 56.7 55 5
    endloop
  endfacet
  facet normal 0 0 1
    outer loop
      vertex 59 60 5
      vertex 54.15 56.4722 5
      vertex 55.85 56.4722 5
    endloop
  endfacet
  facet normal 0 0 1
    outer loop
      vertex 55.85 -53.5278 5
      vertex 50.5 -50.5 5
      vertex 54.15 -53.5278 5
    endloop
  endfacet
  facet normal 0 0 1
    outer loop
      vertex -53.3 55 5
      vertex 53.3 55 5
      vertex 54.15 56.4722 5
    endloop
  endfacet
  facet normal 0 0 1
    outer loop
      vertex 53.3 55 5
      vertex -50.5 50.5 5
      vertex 50.5 50.5 5
    endloop
  endfacet
  facet normal 0 0 1
    outer loop
      vertex -54.15 56.4722 5
      vertex 54.15 56.4722 5
      vertex 59 60 5
    endloop
  endfacet
  facet normal -0 0 1
    outer loop
      vertex -54.15 53.5278 5
      vertex -50.5 50.5 5
      vertex -53.3 55 5
    endloop
  endfacet
  facet normal 0 0 1
    outer loop
      vertex 53.3 55 5
      vertex -53.3 55 5
      vertex -50.5 50.5 5
    endloop
  endfacet
  facet normal 0 0 1
    outer loop
      vertex 54.15 56.4722 5
      vertex -54.15 56.4722 5
      vertex -53.3 55 5
    endloop
  endfacet
  facet normal -0 0 1
    outer loop
      vertex -59 60 5
      vertex -54.15 56.4722 5
      vertex 59 60 5
    endloop
  endfacet
  facet normal 0 0 1
    outer loop
      vertex -55.85 56.4722 5
      vertex -60 59 5
      vertex -56.7 55 5
    endloop
  endfacet
  facet normal -0 0 1
    outer loop
      vertex -60 59 5
      vertex -55.85 56.4722 5
      vertex -59 60 5
    endloop
  endfacet
  facet normal 0 0 1
    outer loop
      vertex -54.15 56.4722 5
      vertex -59 60 5
      vertex -55.85 56.4722 5
    endloop
  endfacet
  facet normal 0 -0 1
    outer loop
      vertex 59 -60 5
      vertex 60 -59 5
      vertex 55.85 -56.4722 5
    endloop
  endfacet
  facet normal 0 0 1
    outer loop
      vertex 60 -59 5
      vertex 59 -60 5
      vertex 59.7071 -59.7071 5
    endloop
  endfacet
  facet normal -0 0 1
    outer loop
      vertex 54.15 -56.4722 5
      vertex 59 -60 5
      vertex 55.85 -56.4722 5
    endloop
  endfacet
  facet normal 0 0 1
    outer loop
      vertex 54.15 -53.5278 5
      vertex 50.5 -50.5 5
      vertex 53.3 -55 5
    endloop
  endfacet
  facet normal -0 0 1
    outer loop
      vertex -50.5 -50.5 5
      vertex 53.3 -55 5
      vertex 50.5 -50.5 5
    endloop
  endfacet
  facet normal 0 0 1
    outer loop
      vertex -53.3 -55 5
      vertex 53.3 -55 5
      vertex -50.5 -50.5 5
    endloop
  endfacet
  facet normal 0 0 1
    outer loop
      vertex 53.3 -55 5
      vertex -53.3 -55 5
      vertex 54.15 -56.4722 5
    endloop
  endfacet
  facet normal -0 0 1
    outer loop
      vertex -55.85 53.5278 5
      vertex -50.5 50.5 5
      vertex -54.15 53.5278 5
    endloop
  endfacet
  facet normal 0 0 1
    outer loop
      vertex -54.15 -56.4722 5
      vertex 54.15 -56.4722 5
      vertex -53.3 -55 5
    endloop
  endfacet
  facet normal 0 0 1
    outer loop
      vertex 54.15 -56.4722 5
      vertex -54.15 -56.4722 5
      vertex 59 -60 5
    endloop
  endfacet
  facet normal 0 0 1
    outer loop
      vertex -59 -60 5
      vertex -54.15 -56.4722 5
      vertex -55.85 -56.4722 5
    endloop
  endfacet
  facet normal 0 0 1
    outer loop
      vertex -54.15 -56.4722 5
      vertex -59 -60 5
      vertex 59 -60 5
    endloop
  endfacet
  facet normal 0 0 1
    outer loop
      vertex -60 -59 5
      vertex -55.85 -56.4722 5
      vertex -56.7 -55 5
    endloop
  endfacet
  facet normal 0 0 1
    outer loop
      vertex -60 -59 5
      vertex -55.85 -53.5278 5
      vertex -60 59 5
    endloop
  endfacet
  facet normal 0 0 1
    outer loop
      vertex -60 59 5
      vertex -59 60 5
      vertex -59.7071 59.7071 5
    endloop
  endfacet
  facet normal 0 0 1
    outer loop
      vertex -55.85 -53.5278 5
      vertex -60 -59 5
      vertex -56.7 -55 5
    endloop
  endfacet
  facet normal 0 0 1
    outer loop
      vertex -55.85 -56.4722 5
      vertex -60 -59 5
      vertex -59 -60 5
    endloop
  endfacet
  facet normal 0 0 1
    outer loop
      vertex -59 -60 5
      vertex -60 -59 5
      vertex -59.7071 -59.7071 5
    endloop
  endfacet
  facet normal 0 -1 0
    outer loop
      vertex -59 -60 -7
      vertex 59 -60 5
      vertex -59 -60 5
    endloop
  endfacet
  facet normal 0 -1 -0
    outer loop
      vertex 59 -60 5
      vertex -59 -60 -7
      vertex 59 -60 -7
    endloop
  endfacet
  facet normal -0.357406 0.357406 -0.862857
    outer loop
      vertex -59 59 -8
      vertex -59.7071 59 -7.70711
      vertex -59 59.7071 -7.70711
    endloop
  endfacet
  facet normal -0.382683 0 -0.92388
    outer loop
      vertex -59.7071 -59 -7.70711
      vertex -59 59 -8
      vertex -59 -59 -8
    endloop
  endfacet
  facet normal -0.382683 0 -0.92388
    outer loop
      vertex -59 59 -8
      vertex -59.7071 -59 -7.70711
      vertex -59.7071 59 -7.70711
    endloop
  endfacet
  facet normal -0.577353 0.577353 -0.577345
    outer loop
      vertex -59 59.7071 -7.70711
      vertex -59.7071 59 -7.70711
      vertex -59.7071 59.7071 -7
    endloop
  endfacet
  facet normal 0 1 0
    outer loop
      vertex 59 60 5
      vertex 4 60 -1
      vertex -59 60 5
    endloop
  endfacet
  facet normal 0 1 0
    outer loop
      vertex 59 60 5
      vertex 4.70711 60 -1.29289
      vertex 4 60 -1
    endloop
  endfacet
  facet normal 0 1 0
    outer loop
      vertex 59 60 5
      vertex 5 60 -2
      vertex 4.70711 60 -1.29289
    endloop
  endfacet
  facet normal 0 1 -0
    outer loop
      vertex 59 60 -7
      vertex 5 60 -2
      vertex 59 60 5
    endloop
  endfacet
  facet normal 0 1 0
    outer loop
      vertex 5 60 -2
      vertex 59 60 -7
      vertex 5 60 -4
    endloop
  endfacet
  facet normal 0 1 0
    outer loop
      vertex 5 60 -4
      vertex 59 60 -7
      vertex 4.70711 60 -4.70711
    endloop
  endfacet
  facet normal 0 1 0
    outer loop
      vertex 4 60 -5
      vertex 59 60 -7
      vertex -4 60 -5
    endloop
  endfacet
  facet normal 0 1 0
    outer loop
      vertex 4.70711 60 -4.70711
      vertex 59 60 -7
      vertex 4 60 -5
    endloop
  endfacet
  facet normal 0 1 -0
    outer loop
      vertex -4 60 -1
      vertex -59 60 5
      vertex 4 60 -1
    endloop
  endfacet
  facet normal 0 1 -0
    outer loop
      vertex -4.70711 60 -1.29289
      vertex -59 60 5
      vertex -4 60 -1
    endloop
  endfacet
  facet normal 0 1 -0
    outer loop
      vertex -5 60 -2
      vertex -59 60 5
      vertex -4.70711 60 -1.29289
    endloop
  endfacet
  facet normal 0 1 0
    outer loop
      vertex -59 60 -7
      vertex -5 60 -2
      vertex -5 60 -4
    endloop
  endfacet
  facet normal 0 1 0
    outer loop
      vertex -59 60 -7
      vertex -5 60 -4
      vertex -4.70711 60 -4.70711
    endloop
  endfacet
  facet normal 0 1 0
    outer loop
      vertex -59 60 -7
      vertex -4.70711 60 -4.70711
      vertex -4 60 -5
    endloop
  endfacet
  facet normal 0 1 0
    outer loop
      vertex -5 60 -2
      vertex -59 60 -7
      vertex -59 60 5
    endloop
  endfacet
  facet normal 0 1 0
    outer loop
      vertex -59 60 -7
      vertex -4 60 -5
      vertex 59 60 -7
    endloop
  endfacet
  facet normal 1 -0 0
    outer loop
      vertex 60 -59 5
      vertex 60 59 -7
      vertex 60 59 5
    endloop
  endfacet
  facet normal 1 0 0
    outer loop
      vertex 60 59 -7
      vertex 60 -59 5
      vertex 60 -59 -7
    endloop
  endfacet
  facet normal 0.577353 0.577353 -0.577345
    outer loop
      vertex 59.7071 59 -7.70711
      vertex 59 59.7071 -7.70711
      vertex 59.7071 59.7071 -7
    endloop
  endfacet
  facet normal 0 0.382683 -0.92388
    outer loop
      vertex -59 59 -8
      vertex 59 59.7071 -7.70711
      vertex 59 59 -8
    endloop
  endfacet
  facet normal 0 0.382683 -0.92388
    outer loop
      vertex 59 59.7071 -7.70711
      vertex -59 59 -8
      vertex -59 59.7071 -7.70711
    endloop
  endfacet
  facet normal 0 -0.923877 -0.38269
    outer loop
      vertex -59 -59.7071 -7.70711
      vertex 59 -60 -7
      vertex -59 -60 -7
    endloop
  endfacet
  facet normal 0 -0.923877 -0.38269
    outer loop
      vertex 59 -60 -7
      vertex -59 -59.7071 -7.70711
      vertex 59 -59.7071 -7.70711
    endloop
  endfacet
  facet normal 0 -0.382683 -0.92388
    outer loop
      vertex -59 -59.7071 -7.70711
      vertex 59 -59 -8
      vertex 59 -59.7071 -7.70711
    endloop
  endfacet
  facet normal -0 -0.382683 -0.92388
    outer loop
      vertex 59 -59 -8
      vertex -59 -59.7071 -7.70711
      vertex -59 -59 -8
    endloop
  endfacet
  facet normal 0.357416 -0.862851 -0.357411
    outer loop
      vertex 59.7071 -59.7071 -7
      vertex 59 -60 -7
      vertex 59 -59.7071 -7.70711
    endloop
  endfacet
  facet normal 0.577353 -0.577353 -0.577345
    outer loop
      vertex 59.7071 -59.7071 -7
      vertex 59 -59.7071 -7.70711
      vertex 59.7071 -59 -7.70711
    endloop
  endfacet
  facet normal -0.382694 -0.923875 0
    outer loop
      vertex -59.7071 -59.7071 -7
      vertex -59 -60 5
      vertex -59.7071 -59.7071 5
    endloop
  endfacet
  facet normal -0.382694 -0.923875 -0
    outer loop
      vertex -59 -60 5
      vertex -59.7071 -59.7071 -7
      vertex -59 -60 -7
    endloop
  endfacet
  facet normal -0.357416 -0.862851 -0.357411
    outer loop
      vertex -59 -60 -7
      vertex -59.7071 -59.7071 -7
      vertex -59 -59.7071 -7.70711
    endloop
  endfacet
  facet normal -0.923875 0.382694 0
    outer loop
      vertex -60 59 -7
      vertex -59.7071 59.7071 5
      vertex -59.7071 59.7071 -7
    endloop
  endfacet
  facet normal -0.923875 0.382694 0
    outer loop
      vertex -59.7071 59.7071 5
      vertex -60 59 -7
      vertex -60 59 5
    endloop
  endfacet
  facet normal 0.382694 0.923875 -0
    outer loop
      vertex 59.7071 59.7071 -7
      vertex 59 60 5
      vertex 59.7071 59.7071 5
    endloop
  endfacet
  facet normal 0.382694 0.923875 0
    outer loop
      vertex 59 60 5
      vertex 59.7071 59.7071 -7
      vertex 59 60 -7
    endloop
  endfacet
  facet normal -1 0 0
    outer loop
      vertex -60 -59 -7
      vertex -60 59 5
      vertex -60 59 -7
    endloop
  endfacet
  facet normal -1 -0 0
    outer loop
      vertex -60 59 5
      vertex -60 -59 -7
      vertex -60 -59 5
    endloop
  endfacet
  facet normal 0.862851 -0.357416 -0.357411
    outer loop
      vertex 60 -59 -7
      vertex 59.7071 -59.7071 -7
      vertex 59.7071 -59 -7.70711
    endloop
  endfacet
  facet normal -0.382694 0.923875 0
    outer loop
      vertex -59 60 -7
      vertex -59.7071 59.7071 5
      vertex -59 60 5
    endloop
  endfacet
  facet normal -0.382694 0.923875 0
    outer loop
      vertex -59.7071 59.7071 5
      vertex -59 60 -7
      vertex -59.7071 59.7071 -7
    endloop
  endfacet
  facet normal -0.357416 0.862851 -0.357411
    outer loop
      vertex -59 59.7071 -7.70711
      vertex -59.7071 59.7071 -7
      vertex -59 60 -7
    endloop
  endfacet
  facet normal -1 0 0
    outer loop
      vertex 50.5 -50.5 -3.55
      vertex 50.5 50.5 5
      vertex 50.5 50.5 -3.55
    endloop
  endfacet
  facet normal -1 -0 0
    outer loop
      vertex 50.5 50.5 5
      vertex 50.5 -50.5 -3.55
      vertex 50.5 -50.5 5
    endloop
  endfacet
  facet normal 0 0 1
    outer loop
      vertex -5 50.5 -3.55
      vertex -50.5 50.5 -3.55
      vertex -5 49.95 -3.55
    endloop
  endfacet
  facet normal 0 0 1
    outer loop
      vertex 5 49.95 -3.55
      vertex 50.5 50.5 -3.55
      vertex 5 50.5 -3.55
    endloop
  endfacet
  facet normal 0 0 1
    outer loop
      vertex 50.5 50.5 -3.55
      vertex 5 49.95 -3.55
      vertex 50.5 -50.5 -3.55
    endloop
  endfacet
  facet normal -0 0 1
    outer loop
      vertex -5 49.95 -3.55
      vertex 50.5 -50.5 -3.55
      vertex 5 49.95 -3.55
    endloop
  endfacet
  facet normal 0 0 1
    outer loop
      vertex -50.5 -50.5 -3.55
      vertex -5 49.95 -3.55
      vertex -50.5 50.5 -3.55
    endloop
  endfacet
  facet normal 0 0 1
    outer loop
      vertex -5 49.95 -3.55
      vertex -50.5 -50.5 -3.55
      vertex 50.5 -50.5 -3.55
    endloop
  endfacet
  facet normal 1 -0 0
    outer loop
      vertex -50.5 -50.5 5
      vertex -50.5 50.5 -3.55
      vertex -50.5 50.5 5
    endloop
  endfacet
  facet normal 1 0 0
    outer loop
      vertex -50.5 50.5 -3.55
      vertex -50.5 -50.5 5
      vertex -50.5 -50.5 -3.55
    endloop
  endfacet
  facet normal 0 -1 0
    outer loop
      vertex -50.5 50.5 5
      vertex -4 50.5 -1
      vertex 50.5 50.5 5
    endloop
  endfacet
  facet normal 0 -1 0
    outer loop
      vertex -50.5 50.5 5
      vertex -4.70711 50.5 -1.29289
      vertex -4 50.5 -1
    endloop
  endfacet
  facet normal 0 -1 0
    outer loop
      vertex -50.5 50.5 5
      vertex -5 50.5 -2
      vertex -4.70711 50.5 -1.29289
    endloop
  endfacet
  facet normal 0 -1 0
    outer loop
      vertex -50.5 50.5 -3.55
      vertex -5 50.5 -2
      vertex -50.5 50.5 5
    endloop
  endfacet
  facet normal 0 -1 -0
    outer loop
      vertex -5 50.5 -2
      vertex -50.5 50.5 -3.55
      vertex -5 50.5 -3.55
    endloop
  endfacet
  facet normal 0 -1 0
    outer loop
      vertex 4 50.5 -1
      vertex 50.5 50.5 5
      vertex -4 50.5 -1
    endloop
  endfacet
  facet normal 0 -1 0
    outer loop
      vertex 4.70711 50.5 -1.29289
      vertex 50.5 50.5 5
      vertex 4 50.5 -1
    endloop
  endfacet
  facet normal 0 -1 0
    outer loop
      vertex 5 50.5 -2
      vertex 50.5 50.5 5
      vertex 4.70711 50.5 -1.29289
    endloop
  endfacet
  facet normal 0 -1 0
    outer loop
      vertex 50.5 50.5 -3.55
      vertex 5 50.5 -2
      vertex 5 50.5 -3.55
    endloop
  endfacet
  facet normal 0 -1 0
    outer loop
      vertex 5 50.5 -2
      vertex 50.5 50.5 -3.55
      vertex 50.5 50.5 5
    endloop
  endfacet
  facet normal 0 1 -0
    outer loop
      vertex 50.5 -50.5 -3.55
      vertex -50.5 -50.5 5
      vertex 50.5 -50.5 5
    endloop
  endfacet
  facet normal 0 1 0
    outer loop
      vertex -50.5 -50.5 5
      vertex 50.5 -50.5 -3.55
      vertex -50.5 -50.5 -3.55
    endloop
  endfacet
  facet normal 0 1 -0
    outer loop
      vertex 55.85 -56.4722 -8
      vertex 54.15 -56.4722 5
      vertex 55.85 -56.4722 5
    endloop
  endfacet
  facet normal 0 1 0
    outer loop
      vertex 54.15 -56.4722 5
      vertex 55.85 -56.4722 -8
      vertex 54.15 -56.4722 -8
    endloop
  endfacet
  facet normal -0.866019 0.500011 0
    outer loop
      vertex 55.85 -56.4722 -8
      vertex 56.7 -55 5
      vertex 56.7 -55 -8
    endloop
  endfacet
  facet normal -0.866019 0.500011 0
    outer loop
      vertex 56.7 -55 5
      vertex 55.85 -56.4722 -8
      vertex 55.85 -56.4722 5
    endloop
  endfacet
  facet normal 0 -1 0
    outer loop
      vertex 54.15 -53.5278 -8
      vertex 55.85 -53.5278 5
      vertex 54.15 -53.5278 5
    endloop
  endfacet
  facet normal 0 -1 -0
    outer loop
      vertex 55.85 -53.5278 5
      vertex 54.15 -53.5278 -8
      vertex 55.85 -53.5278 -8
    endloop
  endfacet
  facet normal -0.866019 -0.500011 0
    outer loop
      vertex 56.7 -55 -8
      vertex 55.85 -53.5278 5
      vertex 55.85 -53.5278 -8
    endloop
  endfacet
  facet normal -0.866019 -0.500011 0
    outer loop
      vertex 55.85 -53.5278 5
      vertex 56.7 -55 -8
      vertex 56.7 -55 5
    endloop
  endfacet
  facet normal 0.866019 -0.500011 0
    outer loop
      vertex 53.3 -55 5
      vertex 54.15 -53.5278 -8
      vertex 54.15 -53.5278 5
    endloop
  endfacet
  facet normal 0.866019 -0.500011 0
    outer loop
      vertex 54.15 -53.5278 -8
      vertex 53.3 -55 5
      vertex 53.3 -55 -8
    endloop
  endfacet
  facet normal 0.866019 0.500011 0
    outer loop
      vertex 54.15 -56.4722 5
      vertex 53.3 -55 -8
      vertex 53.3 -55 5
    endloop
  endfacet
  facet normal 0.866019 0.500011 0
    outer loop
      vertex 53.3 -55 -8
      vertex 54.15 -56.4722 5
      vertex 54.15 -56.4722 -8
    endloop
  endfacet
  facet normal 0 1 -0
    outer loop
      vertex -54.15 -56.4722 -8
      vertex -55.85 -56.4722 5
      vertex -54.15 -56.4722 5
    endloop
  endfacet
  facet normal 0 1 0
    outer loop
      vertex -55.85 -56.4722 5
      vertex -54.15 -56.4722 -8
      vertex -55.85 -56.4722 -8
    endloop
  endfacet
  facet normal -0.866019 0.500011 0
    outer loop
      vertex -54.15 -56.4722 -8
      vertex -53.3 -55 5
      vertex -53.3 -55 -8
    endloop
  endfacet
  facet normal -0.866019 0.500011 0
    outer loop
      vertex -53.3 -55 5
      vertex -54.15 -56.4722 -8
      vertex -54.15 -56.4722 5
    endloop
  endfacet
  facet normal 0 -1 0
    outer loop
      vertex -55.85 -53.5278 -8
      vertex -54.15 -53.5278 5
      vertex -55.85 -53.5278 5
    endloop
  endfacet
  facet normal 0 -1 -0
    outer loop
      vertex -54.15 -53.5278 5
      vertex -55.85 -53.5278 -8
      vertex -54.15 -53.5278 -8
    endloop
  endfacet
  facet normal -0.866019 -0.500011 0
    outer loop
      vertex -53.3 -55 -8
      vertex -54.15 -53.5278 5
      vertex -54.15 -53.5278 -8
    endloop
  endfacet
  facet normal -0.866019 -0.500011 0
    outer loop
      vertex -54.15 -53.5278 5
      vertex -53.3 -55 -8
      vertex -53.3 -55 5
    endloop
  endfacet
  facet normal 0.866019 -0.500011 0
    outer loop
      vertex -56.7 -55 5
      vertex -55.85 -53.5278 -8
      vertex -55.85 -53.5278 5
    endloop
  endfacet
  facet normal 0.866019 -0.500011 0
    outer loop
      vertex -55.85 -53.5278 -8
      vertex -56.7 -55 5
      vertex -56.7 -55 -8
    endloop
  endfacet
  facet normal 0.866019 0.500011 0
    outer loop
      vertex -55.85 -56.4722 5
      vertex -56.7 -55 -8
      vertex -56.7 -55 5
    endloop
  endfacet
  facet normal 0.866019 0.500011 0
    outer loop
      vertex -56.7 -55 -8
      vertex -55.85 -56.4722 5
      vertex -55.85 -56.4722 -8
    endloop
  endfacet
  facet normal 0 -1 0
    outer loop
      vertex -55.85 56.4722 -8
      vertex -54.15 56.4722 5
      vertex -55.85 56.4722 5
    endloop
  endfacet
  facet normal 0 -1 -0
    outer loop
      vertex -54.15 56.4722 5
      vertex -55.85 56.4722 -8
      vertex -54.15 56.4722 -8
    endloop
  endfacet
  facet normal -0.866019 -0.500011 0
    outer loop
      vertex -53.3 55 -8
      vertex -54.15 56.4722 5
      vertex -54.15 56.4722 -8
    endloop
  endfacet
  facet normal -0.866019 -0.500011 0
    outer loop
      vertex -54.15 56.4722 5
      vertex -53.3 55 -8
      vertex -53.3 55 5
    endloop
  endfacet
  facet normal 0.866019 -0.500011 0
    outer loop
      vertex -56.7 55 5
      vertex -55.85 56.4722 -8
      vertex -55.85 56.4722 5
    endloop
  endfacet
  facet normal 0.866019 -0.500011 0
    outer loop
      vertex -55.85 56.4722 -8
      vertex -56.7 55 5
      vertex -56.7 55 -8
    endloop
  endfacet
  facet normal 0.866019 0.500011 0
    outer loop
      vertex -55.85 53.5278 5
      vertex -56.7 55 -8
      vertex -56.7 55 5
    endloop
  endfacet
  facet normal 0.866019 0.500011 0
    outer loop
      vertex -56.7 55 -8
      vertex -55.85 53.5278 5
      vertex -55.85 53.5278 -8
    endloop
  endfacet
  facet normal -0.866019 0.500011 0
    outer loop
      vertex -54.15 53.5278 -8
      vertex -53.3 55 5
      vertex -53.3 55 -8
    endloop
  endfacet
  facet normal -0.866019 0.500011 0
    outer loop
      vertex -53.3 55 5
      vertex -54.15 53.5278 -8
      vertex -54.15 53.5278 5
    endloop
  endfacet
  facet normal 0 1 -0
    outer loop
      vertex -54.15 53.5278 -8
      vertex -55.85 53.5278 5
      vertex -54.15 53.5278 5
    endloop
  endfacet
  facet normal 0 1 0
    outer loop
      vertex -55.85 53.5278 5
      vertex -54.15 53.5278 -8
      vertex -55.85 53.5278 -8
    endloop
  endfacet
  facet normal 0 -1 0
    outer loop
      vertex 54.15 56.4722 -8
      vertex 55.85 56.4722 5
      vertex 54.15 56.4722 5
    endloop
  endfacet
  facet normal 0 -1 -0
    outer loop
      vertex 55.85 56.4722 5
      vertex 54.15 56.4722 -8
      vertex 55.85 56.4722 -8
    endloop
  endfacet
  facet normal -0.866019 -0.500011 0
    outer loop
      vertex 56.7 55 -8
      vertex 55.85 56.4722 5
      vertex 55.85 56.4722 -8
    endloop
  endfacet
  facet normal -0.866019 -0.500011 0
    outer loop
      vertex 55.85 56.4722 5
      vertex 56.7 55 -8
      vertex 56.7 55 5
    endloop
  endfacet
  facet normal 0.866019 -0.500011 0
    outer loop
      vertex 53.3 55 5
      vertex 54.15 56.4722 -8
      vertex 54.15 56.4722 5
    endloop
  endfacet
  facet normal 0.866019 -0.500011 0
    outer loop
      vertex 54.15 56.4722 -8
      vertex 53.3 55 5
      vertex 53.3 55 -8
    endloop
  endfacet
  facet normal 0.866019 0.500011 0
    outer loop
      vertex 54.15 53.5278 5
      vertex 53.3 55 -8
      vertex 53.3 55 5
    endloop
  endfacet
  facet normal 0.866019 0.500011 0
    outer loop
      vertex 53.3 55 -8
      vertex 54.15 53.5278 5
      vertex 54.15 53.5278 -8
    endloop
  endfacet
  facet normal -0.866019 0.500011 0
    outer loop
      vertex 55.85 53.5278 -8
      vertex 56.7 55 5
      vertex 56.7 55 -8
    endloop
  endfacet
  facet normal -0.866019 0.500011 0
    outer loop
      vertex 56.7 55 5
      vertex 55.85 53.5278 -8
      vertex 55.85 53.5278 5
    endloop
  endfacet
  facet normal 0 1 -0
    outer loop
      vertex 55.85 53.5278 -8
      vertex 54.15 53.5278 5
      vertex 55.85 53.5278 5
    endloop
  endfacet
  facet normal 0 1 0
    outer loop
      vertex 54.15 53.5278 5
      vertex 55.85 53.5278 -8
      vertex 54.15 53.5278 -8
    endloop
  endfacet
  facet normal 0.382678 0 0.923882
    outer loop
      vertex -4.70711 60 -4.70711
      vertex -4 49.95 -5
      vertex -4 60 -5
    endloop
  endfacet
  facet normal 0.382678 0 0.923882
    outer loop
      vertex -4 49.95 -5
      vertex -4.70711 60 -4.70711
      vertex -4.70711 49.95 -4.70711
    endloop
  endfacet
  facet normal -0.923882 0 0.382678
    outer loop
      vertex 4.70711 49.95 -4.70711
      vertex 5 60 -4
      vertex 4.70711 60 -4.70711
    endloop
  endfacet
  facet normal -0.923882 0 0.382678
    outer loop
      vertex 5 60 -4
      vertex 4.70711 49.95 -4.70711
      vertex 5 49.95 -4
    endloop
  endfacet
  facet normal -0 0 1
    outer loop
      vertex -4 60 -5
      vertex 4 49.95 -5
      vertex 4 60 -5
    endloop
  endfacet
  facet normal 0 0 1
    outer loop
      vertex 4 49.95 -5
      vertex -4 60 -5
      vertex -4 49.95 -5
    endloop
  endfacet
  facet normal 0.382678 0 -0.923882
    outer loop
      vertex -4.70711 50.5 -1.29289
      vertex -4 60 -1
      vertex -4 50.5 -1
    endloop
  endfacet
  facet normal 0.382678 0 -0.923882
    outer loop
      vertex -4 60 -1
      vertex -4.70711 50.5 -1.29289
      vertex -4.70711 60 -1.29289
    endloop
  endfacet
  facet normal 1 0 0
    outer loop
      vertex -5 50.5 -3.55
      vertex -5 60 -2
      vertex -5 50.5 -2
    endloop
  endfacet
  facet normal 1 0 0
    outer loop
      vertex -5 60 -2
      vertex -5 50.5 -3.55
      vertex -5 60 -4
    endloop
  endfacet
  facet normal 1 0 0
    outer loop
      vertex -5 49.95 -4
      vertex -5 50.5 -3.55
      vertex -5 49.95 -3.55
    endloop
  endfacet
  facet normal 1 0 0
    outer loop
      vertex -5 50.5 -3.55
      vertex -5 49.95 -4
      vertex -5 60 -4
    endloop
  endfacet
  facet normal -0.923882 0 -0.382678
    outer loop
      vertex 5 50.5 -2
      vertex 4.70711 60 -1.29289
      vertex 5 60 -2
    endloop
  endfacet
  facet normal -0.923882 -0 -0.382678
    outer loop
      vertex 4.70711 60 -1.29289
      vertex 5 50.5 -2
      vertex 4.70711 50.5 -1.29289
    endloop
  endfacet
  facet normal -1 0 0
    outer loop
      vertex 5 60 -4
      vertex 5 50.5 -3.55
      vertex 5 60 -2
    endloop
  endfacet
  facet normal -1 0 0
    outer loop
      vertex 5 49.95 -4
      vertex 5 50.5 -3.55
      vertex 5 60 -4
    endloop
  endfacet
  facet normal -1 -0 0
    outer loop
      vertex 5 50.5 -3.55
      vertex 5 49.95 -4
      vertex 5 49.95 -3.55
    endloop
  endfacet
  facet normal -1 -0 0
    outer loop
      vertex 5 60 -2
      vertex 5 50.5 -3.55
      vertex 5 50.5 -2
    endloop
  endfacet
  facet normal 0 1 0
    outer loop
      vertex 4 49.95 -5
      vertex 5 49.95 -3.55
      vertex 5 49.95 -4
    endloop
  endfacet
  facet normal 0 1 0
    outer loop
      vertex 5 49.95 -3.55
      vertex 4 49.95 -5
      vertex -5 49.95 -3.55
    endloop
  endfacet
  facet normal 0 1 0
    outer loop
      vertex 4 49.95 -5
      vertex 5 49.95 -4
      vertex 4.70711 49.95 -4.70711
    endloop
  endfacet
  facet normal 0 1 -0
    outer loop
      vertex -4 49.95 -5
      vertex -5 49.95 -3.55
      vertex 4 49.95 -5
    endloop
  endfacet
  facet normal 0 1 0
    outer loop
      vertex -5 49.95 -3.55
      vertex -4 49.95 -5
      vertex -5 49.95 -4
    endloop
  endfacet
  facet normal 0 1 0
    outer loop
      vertex -5 49.95 -4
      vertex -4 49.95 -5
      vertex -4.70711 49.95 -4.70711
    endloop
  endfacet
  facet normal -0.382678 0 0.923882
    outer loop
      vertex 4 60 -5
      vertex 4.70711 49.95 -4.70711
      vertex 4.70711 60 -4.70711
    endloop
  endfacet
  facet normal -0.382678 0 0.923882
    outer loop
      vertex 4.70711 49.95 -4.70711
      vertex 4 60 -5
      vertex 4 49.95 -5
    endloop
  endfacet
  facet normal -0.382678 0 -0.923882
    outer loop
      vertex 4 50.5 -1
      vertex 4.70711 60 -1.29289
      vertex 4.70711 50.5 -1.29289
    endloop
  endfacet
  facet normal -0.382678 0 -0.923882
    outer loop
      vertex 4.70711 60 -1.29289
      vertex 4 50.5 -1
      vertex 4 60 -1
    endloop
  endfacet
  facet normal 0.923882 0 -0.382678
    outer loop
      vertex -4.70711 50.5 -1.29289
      vertex -5 60 -2
      vertex -4.70711 60 -1.29289
    endloop
  endfacet
  facet normal 0.923882 0 -0.382678
    outer loop
      vertex -5 60 -2
      vertex -4.70711 50.5 -1.29289
      vertex -5 50.5 -2
    endloop
  endfacet
  facet normal 0.923882 -0 0.382678
    outer loop
      vertex -5 49.95 -4
      vertex -4.70711 60 -4.70711
      vertex -5 60 -4
    endloop
  endfacet
  facet normal 0.923882 0 0.382678
    outer loop
      vertex -4.70711 60 -4.70711
      vertex -5 49.95 -4
      vertex -4.70711 49.95 -4.70711
    endloop
  endfacet
  facet normal 0 0 -1
    outer loop
      vertex -4 50.5 -1
      vertex 4 60 -1
      vertex 4 50.5 -1
    endloop
  endfacet
  facet normal -0 0 -1
    outer loop
      vertex 4 60 -1
      vertex -4 50.5 -1
      vertex -4 60 -1
    endloop
  endfacet
endsolid OpenSCAD_Model
