  0
SECTION
  2
HEADER
  9
$ACADVER
  1
AC1009
  9
$FILLMODE
 70
 0
  9
$SPLFRAME
 70
 1
  9
$EXTMIN
 10
0
 20
0
 30
0.0
  9
$EXTMAX
 10
1058.33
 20
1058.33
 30
0.0
  0
ENDSEC
  0
SECTION
  2
TABLES
  0
TABLE
  2
LAYER
 70
1
  0
LAYER
  2
0
 70
     0
 62
     7
  6
CONTINUOUS
  0
ENDTAB
  0
ENDSEC
  0
SECTION
  2
ENTITIES
  0
LINE
  8
0
 62
     0
 10
0.0950846
 20
95.5075
 30
0.0
 11
314.42
 21
95.5075
 31
0.0
  0
LINE
  8
0
 62
     0
 10
314.42
 20
95.5075
 30
0.0
 11
314.42
 21
0.257693
 31
0.0
  0
LINE
  8
0
 62
     0
 10
314.42
 20
0.257693
 30
0.0
 11
0.0950846
 21
0.257693
 31
0.0
  0
LINE
  8
0
 62
     0
 10
0.0950846
 20
0.257693
 30
0.0
 11
0.0950846
 21
95.5075
 31
0.0
  0
LINE
  8
0
 62
     0
 10
14.5259
 20
16.7831
 30
0.0
 11
14.5259
 21
16.1837
 31
0.0
  0
LINE
  8
0
 62
     0
 10
14.5259
 20
16.1837
 30
0.0
 11
13.7253
 21
16.1837
 31
0.0
  0
LINE
  8
0
 62
     0
 10
13.7253
 20
16.1837
 30
0.0
 11
13.7253
 21
12.0826
 31
0.0
  0
LINE
  8
0
 62
     0
 10
13.7253
 20
12.0826
 30
0.0
 11
13.0004
 21
12.0826
 31
0.0
  0
LINE
  8
0
 62
     0
 10
13.0004
 20
12.0826
 30
0.0
 11
13.0004
 21
15.3128
 31
0.0
  0
LINE
  8
0
 62
     0
 10
13.0004
 20
15.3128
 30
0.0
 11
6.2508
 21
15.3128
 31
0.0
  0
LINE
  8
0
 62
     0
 10
6.2508
 20
15.3128
 30
0.0
 11
6.2508
 21
12.0826
 31
0.0
  0
LINE
  8
0
 62
     0
 10
6.2508
 20
12.0826
 30
0.0
 11
5.42533
 21
12.0826
 31
0.0
  0
LINE
  8
0
 62
     0
 10
5.42533
 20
12.0826
 30
0.0
 11
5.42533
 21
9.28384
 31
0.0
  0
LINE
  8
0
 62
     0
 10
5.42533
 20
9.28384
 30
0.0
 11
6.2508
 21
9.28384
 31
0.0
  0
LINE
  8
0
 62
     0
 10
6.2508
 20
9.28384
 30
0.0
 11
6.2508
 21
3.01377
 31
0.0
  0
LINE
  8
0
 62
     0
 10
6.2508
 20
3.01377
 30
0.0
 11
7.97609
 21
3.01377
 31
0.0
  0
LINE
  8
0
 62
     0
 10
7.97609
 20
3.01377
 30
0.0
 11
7.97609
 21
1.8135
 31
0.0
  0
LINE
  8
0
 62
     0
 10
7.97609
 20
1.8135
 30
0.0
 11
11.2751
 21
1.8135
 31
0.0
  0
LINE
  8
0
 62
     0
 10
11.2751
 20
1.8135
 30
0.0
 11
11.2751
 21
3.01377
 31
0.0
  0
LINE
  8
0
 62
     0
 10
11.2751
 20
3.01377
 30
0.0
 11
13.0004
 21
3.01377
 31
0.0
  0
LINE
  8
0
 62
     0
 10
13.0004
 20
3.01377
 30
0.0
 11
13.0004
 21
7.48411
 31
0.0
  0
LINE
  8
0
 62
     0
 10
13.0004
 20
7.48411
 30
0.0
 11
13.7253
 21
7.48411
 31
0.0
  0
LINE
  8
0
 62
     0
 10
13.7253
 20
7.48411
 30
0.0
 11
13.7253
 21
3.38308
 31
0.0
  0
LINE
  8
0
 62
     0
 10
13.7253
 20
3.38308
 30
0.0
 11
14.5259
 21
3.38308
 31
0.0
  0
LINE
  8
0
 62
     0
 10
14.5259
 20
3.38308
 30
0.0
 11
14.5259
 21
2.78364
 31
0.0
  0
LINE
  8
0
 62
     0
 10
14.5259
 20
2.78364
 30
0.0
 11
28.5254
 21
2.78364
 31
0.0
  0
LINE
  8
0
 62
     0
 10
28.5254
 20
2.78364
 30
0.0
 11
28.5254
 21
3.38308
 31
0.0
  0
LINE
  8
0
 62
     0
 10
28.5254
 20
3.38308
 30
0.0
 11
29.326
 21
3.38308
 31
0.0
  0
LINE
  8
0
 62
     0
 10
29.326
 20
3.38308
 30
0.0
 11
29.326
 21
7.48411
 31
0.0
  0
LINE
  8
0
 62
     0
 10
29.326
 20
7.48411
 30
0.0
 11
30.0509
 21
7.48411
 31
0.0
  0
LINE
  8
0
 62
     0
 10
30.0509
 20
7.48411
 30
0.0
 11
30.0509
 21
3.01377
 31
0.0
  0
LINE
  8
0
 62
     0
 10
30.0509
 20
3.01377
 30
0.0
 11
31.7748
 21
3.01377
 31
0.0
  0
LINE
  8
0
 62
     0
 10
31.7748
 20
3.01377
 30
0.0
 11
31.7748
 21
1.8135
 31
0.0
  0
LINE
  8
0
 62
     0
 10
31.7748
 20
1.8135
 30
0.0
 11
35.0752
 21
1.8135
 31
0.0
  0
LINE
  8
0
 62
     0
 10
35.0752
 20
1.8135
 30
0.0
 11
35.0752
 21
3.01377
 31
0.0
  0
LINE
  8
0
 62
     0
 10
35.0752
 20
3.01377
 30
0.0
 11
36.8004
 21
3.01377
 31
0.0
  0
LINE
  8
0
 62
     0
 10
36.8004
 20
3.01377
 30
0.0
 11
36.8004
 21
9.28384
 31
0.0
  0
LINE
  8
0
 62
     0
 10
36.8004
 20
9.28384
 30
0.0
 11
37.6259
 21
9.28384
 31
0.0
  0
LINE
  8
0
 62
     0
 10
37.6259
 20
9.28384
 30
0.0
 11
37.6259
 21
12.0826
 31
0.0
  0
LINE
  8
0
 62
     0
 10
37.6259
 20
12.0826
 30
0.0
 11
36.8004
 21
12.0826
 31
0.0
  0
LINE
  8
0
 62
     0
 10
36.8004
 20
12.0826
 30
0.0
 11
36.8004
 21
15.3128
 31
0.0
  0
LINE
  8
0
 62
     0
 10
36.8004
 20
15.3128
 30
0.0
 11
30.0509
 21
15.3128
 31
0.0
  0
LINE
  8
0
 62
     0
 10
30.0509
 20
15.3128
 30
0.0
 11
30.0509
 21
12.0826
 31
0.0
  0
LINE
  8
0
 62
     0
 10
30.0509
 20
12.0826
 30
0.0
 11
29.326
 21
12.0826
 31
0.0
  0
LINE
  8
0
 62
     0
 10
29.326
 20
12.0826
 30
0.0
 11
29.326
 21
16.1837
 31
0.0
  0
LINE
  8
0
 62
     0
 10
29.326
 20
16.1837
 30
0.0
 11
28.5254
 21
16.1837
 31
0.0
  0
LINE
  8
0
 62
     0
 10
28.5254
 20
16.1837
 30
0.0
 11
28.5254
 21
16.7831
 31
0.0
  0
LINE
  8
0
 62
     0
 10
28.5254
 20
16.7831
 30
0.0
 11
14.5259
 21
16.7831
 31
0.0
  0
LINE
  8
0
 62
     0
 10
114.537
 20
16.7831
 30
0.0
 11
114.537
 21
16.1837
 31
0.0
  0
LINE
  8
0
 62
     0
 10
114.537
 20
16.1837
 30
0.0
 11
113.738
 21
16.1837
 31
0.0
  0
LINE
  8
0
 62
     0
 10
113.738
 20
16.1837
 30
0.0
 11
113.738
 21
12.0826
 31
0.0
  0
LINE
  8
0
 62
     0
 10
113.738
 20
12.0826
 30
0.0
 11
113.013
 21
12.0826
 31
0.0
  0
LINE
  8
0
 62
     0
 10
113.013
 20
12.0826
 30
0.0
 11
113.013
 21
15.3128
 31
0.0
  0
LINE
  8
0
 62
     0
 10
113.013
 20
15.3128
 30
0.0
 11
106.262
 21
15.3128
 31
0.0
  0
LINE
  8
0
 62
     0
 10
106.262
 20
15.3128
 30
0.0
 11
106.262
 21
12.0826
 31
0.0
  0
LINE
  8
0
 62
     0
 10
106.262
 20
12.0826
 30
0.0
 11
105.438
 21
12.0826
 31
0.0
  0
LINE
  8
0
 62
     0
 10
105.438
 20
12.0826
 30
0.0
 11
105.438
 21
9.28384
 31
0.0
  0
LINE
  8
0
 62
     0
 10
105.438
 20
9.28384
 30
0.0
 11
106.262
 21
9.28384
 31
0.0
  0
LINE
  8
0
 62
     0
 10
106.262
 20
9.28384
 30
0.0
 11
106.262
 21
3.01377
 31
0.0
  0
LINE
  8
0
 62
     0
 10
106.262
 20
3.01377
 30
0.0
 11
107.987
 21
3.01377
 31
0.0
  0
LINE
  8
0
 62
     0
 10
107.987
 20
3.01377
 30
0.0
 11
107.987
 21
1.8135
 31
0.0
  0
LINE
  8
0
 62
     0
 10
107.987
 20
1.8135
 30
0.0
 11
111.288
 21
1.8135
 31
0.0
  0
LINE
  8
0
 62
     0
 10
111.288
 20
1.8135
 30
0.0
 11
111.288
 21
3.01377
 31
0.0
  0
LINE
  8
0
 62
     0
 10
111.288
 20
3.01377
 30
0.0
 11
113.013
 21
3.01377
 31
0.0
  0
LINE
  8
0
 62
     0
 10
113.013
 20
3.01377
 30
0.0
 11
113.013
 21
7.48411
 31
0.0
  0
LINE
  8
0
 62
     0
 10
113.013
 20
7.48411
 30
0.0
 11
113.738
 21
7.48411
 31
0.0
  0
LINE
  8
0
 62
     0
 10
113.738
 20
7.48411
 30
0.0
 11
113.738
 21
3.38308
 31
0.0
  0
LINE
  8
0
 62
     0
 10
113.738
 20
3.38308
 30
0.0
 11
114.537
 21
3.38308
 31
0.0
  0
LINE
  8
0
 62
     0
 10
114.537
 20
3.38308
 30
0.0
 11
114.537
 21
2.78364
 31
0.0
  0
LINE
  8
0
 62
     0
 10
114.537
 20
2.78364
 30
0.0
 11
128.538
 21
2.78364
 31
0.0
  0
LINE
  8
0
 62
     0
 10
128.538
 20
2.78364
 30
0.0
 11
128.538
 21
3.38308
 31
0.0
  0
LINE
  8
0
 62
     0
 10
128.538
 20
3.38308
 30
0.0
 11
129.337
 21
3.38308
 31
0.0
  0
LINE
  8
0
 62
     0
 10
129.337
 20
3.38308
 30
0.0
 11
129.337
 21
7.48411
 31
0.0
  0
LINE
  8
0
 62
     0
 10
129.337
 20
7.48411
 30
0.0
 11
130.062
 21
7.48411
 31
0.0
  0
LINE
  8
0
 62
     0
 10
130.062
 20
7.48411
 30
0.0
 11
130.062
 21
3.01377
 31
0.0
  0
LINE
  8
0
 62
     0
 10
130.062
 20
3.01377
 30
0.0
 11
131.787
 21
3.01377
 31
0.0
  0
LINE
  8
0
 62
     0
 10
131.787
 20
3.01377
 30
0.0
 11
131.787
 21
1.8135
 31
0.0
  0
LINE
  8
0
 62
     0
 10
131.787
 20
1.8135
 30
0.0
 11
135.088
 21
1.8135
 31
0.0
  0
LINE
  8
0
 62
     0
 10
135.088
 20
1.8135
 30
0.0
 11
135.088
 21
3.01377
 31
0.0
  0
LINE
  8
0
 62
     0
 10
135.088
 20
3.01377
 30
0.0
 11
136.813
 21
3.01377
 31
0.0
  0
LINE
  8
0
 62
     0
 10
136.813
 20
3.01377
 30
0.0
 11
136.813
 21
9.28384
 31
0.0
  0
LINE
  8
0
 62
     0
 10
136.813
 20
9.28384
 30
0.0
 11
137.637
 21
9.28384
 31
0.0
  0
LINE
  8
0
 62
     0
 10
137.637
 20
9.28384
 30
0.0
 11
137.637
 21
12.0826
 31
0.0
  0
LINE
  8
0
 62
     0
 10
137.637
 20
12.0826
 30
0.0
 11
136.813
 21
12.0826
 31
0.0
  0
LINE
  8
0
 62
     0
 10
136.813
 20
12.0826
 30
0.0
 11
136.813
 21
15.3128
 31
0.0
  0
LINE
  8
0
 62
     0
 10
136.813
 20
15.3128
 30
0.0
 11
130.062
 21
15.3128
 31
0.0
  0
LINE
  8
0
 62
     0
 10
130.062
 20
15.3128
 30
0.0
 11
130.062
 21
12.0826
 31
0.0
  0
LINE
  8
0
 62
     0
 10
130.062
 20
12.0826
 30
0.0
 11
129.337
 21
12.0826
 31
0.0
  0
LINE
  8
0
 62
     0
 10
129.337
 20
12.0826
 30
0.0
 11
129.337
 21
16.1837
 31
0.0
  0
LINE
  8
0
 62
     0
 10
129.337
 20
16.1837
 30
0.0
 11
128.538
 21
16.1837
 31
0.0
  0
LINE
  8
0
 62
     0
 10
128.538
 20
16.1837
 30
0.0
 11
128.538
 21
16.7831
 31
0.0
  0
LINE
  8
0
 62
     0
 10
128.538
 20
16.7831
 30
0.0
 11
114.537
 21
16.7831
 31
0.0
  0
LINE
  8
0
 62
     0
 10
185.976
 20
16.7831
 30
0.0
 11
185.976
 21
16.1837
 31
0.0
  0
LINE
  8
0
 62
     0
 10
185.976
 20
16.1837
 30
0.0
 11
185.175
 21
16.1837
 31
0.0
  0
LINE
  8
0
 62
     0
 10
185.175
 20
16.1837
 30
0.0
 11
185.175
 21
12.0826
 31
0.0
  0
LINE
  8
0
 62
     0
 10
185.175
 20
12.0826
 30
0.0
 11
184.451
 21
12.0826
 31
0.0
  0
LINE
  8
0
 62
     0
 10
184.451
 20
12.0826
 30
0.0
 11
184.451
 21
15.3128
 31
0.0
  0
LINE
  8
0
 62
     0
 10
184.451
 20
15.3128
 30
0.0
 11
177.701
 21
15.3128
 31
0.0
  0
LINE
  8
0
 62
     0
 10
177.701
 20
15.3128
 30
0.0
 11
177.701
 21
12.0826
 31
0.0
  0
LINE
  8
0
 62
     0
 10
177.701
 20
12.0826
 30
0.0
 11
176.875
 21
12.0826
 31
0.0
  0
LINE
  8
0
 62
     0
 10
176.875
 20
12.0826
 30
0.0
 11
176.875
 21
9.28384
 31
0.0
  0
LINE
  8
0
 62
     0
 10
176.875
 20
9.28384
 30
0.0
 11
177.701
 21
9.28384
 31
0.0
  0
LINE
  8
0
 62
     0
 10
177.701
 20
9.28384
 30
0.0
 11
177.701
 21
3.01377
 31
0.0
  0
LINE
  8
0
 62
     0
 10
177.701
 20
3.01377
 30
0.0
 11
179.426
 21
3.01377
 31
0.0
  0
LINE
  8
0
 62
     0
 10
179.426
 20
3.01377
 30
0.0
 11
179.426
 21
1.8135
 31
0.0
  0
LINE
  8
0
 62
     0
 10
179.426
 20
1.8135
 30
0.0
 11
182.725
 21
1.8135
 31
0.0
  0
LINE
  8
0
 62
     0
 10
182.725
 20
1.8135
 30
0.0
 11
182.725
 21
3.01377
 31
0.0
  0
LINE
  8
0
 62
     0
 10
182.725
 20
3.01377
 30
0.0
 11
184.451
 21
3.01377
 31
0.0
  0
LINE
  8
0
 62
     0
 10
184.451
 20
3.01377
 30
0.0
 11
184.451
 21
7.48411
 31
0.0
  0
LINE
  8
0
 62
     0
 10
184.451
 20
7.48411
 30
0.0
 11
185.175
 21
7.48411
 31
0.0
  0
LINE
  8
0
 62
     0
 10
185.175
 20
7.48411
 30
0.0
 11
185.175
 21
3.38308
 31
0.0
  0
LINE
  8
0
 62
     0
 10
185.175
 20
3.38308
 30
0.0
 11
185.976
 21
3.38308
 31
0.0
  0
LINE
  8
0
 62
     0
 10
185.976
 20
3.38308
 30
0.0
 11
185.976
 21
2.78364
 31
0.0
  0
LINE
  8
0
 62
     0
 10
185.976
 20
2.78364
 30
0.0
 11
199.975
 21
2.78364
 31
0.0
  0
LINE
  8
0
 62
     0
 10
199.975
 20
2.78364
 30
0.0
 11
199.975
 21
3.38308
 31
0.0
  0
LINE
  8
0
 62
     0
 10
199.975
 20
3.38308
 30
0.0
 11
200.776
 21
3.38308
 31
0.0
  0
LINE
  8
0
 62
     0
 10
200.776
 20
3.38308
 30
0.0
 11
200.776
 21
7.48411
 31
0.0
  0
LINE
  8
0
 62
     0
 10
200.776
 20
7.48411
 30
0.0
 11
201.501
 21
7.48411
 31
0.0
  0
LINE
  8
0
 62
     0
 10
201.501
 20
7.48411
 30
0.0
 11
201.501
 21
3.01377
 31
0.0
  0
LINE
  8
0
 62
     0
 10
201.501
 20
3.01377
 30
0.0
 11
203.225
 21
3.01377
 31
0.0
  0
LINE
  8
0
 62
     0
 10
203.225
 20
3.01377
 30
0.0
 11
203.225
 21
1.8135
 31
0.0
  0
LINE
  8
0
 62
     0
 10
203.225
 20
1.8135
 30
0.0
 11
206.525
 21
1.8135
 31
0.0
  0
LINE
  8
0
 62
     0
 10
206.525
 20
1.8135
 30
0.0
 11
206.525
 21
3.01377
 31
0.0
  0
LINE
  8
0
 62
     0
 10
206.525
 20
3.01377
 30
0.0
 11
208.25
 21
3.01377
 31
0.0
  0
LINE
  8
0
 62
     0
 10
208.25
 20
3.01377
 30
0.0
 11
208.25
 21
9.28384
 31
0.0
  0
LINE
  8
0
 62
     0
 10
208.25
 20
9.28384
 30
0.0
 11
209.076
 21
9.28384
 31
0.0
  0
LINE
  8
0
 62
     0
 10
209.076
 20
9.28384
 30
0.0
 11
209.076
 21
12.0826
 31
0.0
  0
LINE
  8
0
 62
     0
 10
209.076
 20
12.0826
 30
0.0
 11
208.25
 21
12.0826
 31
0.0
  0
LINE
  8
0
 62
     0
 10
208.25
 20
12.0826
 30
0.0
 11
208.25
 21
15.3128
 31
0.0
  0
LINE
  8
0
 62
     0
 10
208.25
 20
15.3128
 30
0.0
 11
201.501
 21
15.3128
 31
0.0
  0
LINE
  8
0
 62
     0
 10
201.501
 20
15.3128
 30
0.0
 11
201.501
 21
12.0826
 31
0.0
  0
LINE
  8
0
 62
     0
 10
201.501
 20
12.0826
 30
0.0
 11
200.776
 21
12.0826
 31
0.0
  0
LINE
  8
0
 62
     0
 10
200.776
 20
12.0826
 30
0.0
 11
200.776
 21
16.1837
 31
0.0
  0
LINE
  8
0
 62
     0
 10
200.776
 20
16.1837
 30
0.0
 11
199.975
 21
16.1837
 31
0.0
  0
LINE
  8
0
 62
     0
 10
199.975
 20
16.1837
 30
0.0
 11
199.975
 21
16.7831
 31
0.0
  0
LINE
  8
0
 62
     0
 10
199.975
 20
16.7831
 30
0.0
 11
185.976
 21
16.7831
 31
0.0
  0
LINE
  8
0
 62
     0
 10
285.987
 20
16.7831
 30
0.0
 11
285.987
 21
16.1837
 31
0.0
  0
LINE
  8
0
 62
     0
 10
285.987
 20
16.1837
 30
0.0
 11
285.188
 21
16.1837
 31
0.0
  0
LINE
  8
0
 62
     0
 10
285.188
 20
16.1837
 30
0.0
 11
285.188
 21
12.0826
 31
0.0
  0
LINE
  8
0
 62
     0
 10
285.188
 20
12.0826
 30
0.0
 11
284.463
 21
12.0826
 31
0.0
  0
LINE
  8
0
 62
     0
 10
284.463
 20
12.0826
 30
0.0
 11
284.463
 21
15.3128
 31
0.0
  0
LINE
  8
0
 62
     0
 10
284.463
 20
15.3128
 30
0.0
 11
277.712
 21
15.3128
 31
0.0
  0
LINE
  8
0
 62
     0
 10
277.712
 20
15.3128
 30
0.0
 11
277.712
 21
12.0826
 31
0.0
  0
LINE
  8
0
 62
     0
 10
277.712
 20
12.0826
 30
0.0
 11
276.888
 21
12.0826
 31
0.0
  0
LINE
  8
0
 62
     0
 10
276.888
 20
12.0826
 30
0.0
 11
276.888
 21
9.28384
 31
0.0
  0
LINE
  8
0
 62
     0
 10
276.888
 20
9.28384
 30
0.0
 11
277.712
 21
9.28384
 31
0.0
  0
LINE
  8
0
 62
     0
 10
277.712
 20
9.28384
 30
0.0
 11
277.712
 21
3.01377
 31
0.0
  0
LINE
  8
0
 62
     0
 10
277.712
 20
3.01377
 30
0.0
 11
279.437
 21
3.01377
 31
0.0
  0
LINE
  8
0
 62
     0
 10
279.437
 20
3.01377
 30
0.0
 11
279.437
 21
1.8135
 31
0.0
  0
LINE
  8
0
 62
     0
 10
279.437
 20
1.8135
 30
0.0
 11
282.738
 21
1.8135
 31
0.0
  0
LINE
  8
0
 62
     0
 10
282.738
 20
1.8135
 30
0.0
 11
282.738
 21
3.01377
 31
0.0
  0
LINE
  8
0
 62
     0
 10
282.738
 20
3.01377
 30
0.0
 11
284.463
 21
3.01377
 31
0.0
  0
LINE
  8
0
 62
     0
 10
284.463
 20
3.01377
 30
0.0
 11
284.463
 21
7.48411
 31
0.0
  0
LINE
  8
0
 62
     0
 10
284.463
 20
7.48411
 30
0.0
 11
285.188
 21
7.48411
 31
0.0
  0
LINE
  8
0
 62
     0
 10
285.188
 20
7.48411
 30
0.0
 11
285.188
 21
3.38308
 31
0.0
  0
LINE
  8
0
 62
     0
 10
285.188
 20
3.38308
 30
0.0
 11
285.987
 21
3.38308
 31
0.0
  0
LINE
  8
0
 62
     0
 10
285.987
 20
3.38308
 30
0.0
 11
285.987
 21
2.78364
 31
0.0
  0
LINE
  8
0
 62
     0
 10
285.987
 20
2.78364
 30
0.0
 11
299.988
 21
2.78364
 31
0.0
  0
LINE
  8
0
 62
     0
 10
299.988
 20
2.78364
 30
0.0
 11
299.988
 21
3.38308
 31
0.0
  0
LINE
  8
0
 62
     0
 10
299.988
 20
3.38308
 30
0.0
 11
300.787
 21
3.38308
 31
0.0
  0
LINE
  8
0
 62
     0
 10
300.787
 20
3.38308
 30
0.0
 11
300.787
 21
7.48411
 31
0.0
  0
LINE
  8
0
 62
     0
 10
300.787
 20
7.48411
 30
0.0
 11
301.512
 21
7.48411
 31
0.0
  0
LINE
  8
0
 62
     0
 10
301.512
 20
7.48411
 30
0.0
 11
301.512
 21
3.01377
 31
0.0
  0
LINE
  8
0
 62
     0
 10
301.512
 20
3.01377
 30
0.0
 11
303.237
 21
3.01377
 31
0.0
  0
LINE
  8
0
 62
     0
 10
303.237
 20
3.01377
 30
0.0
 11
303.237
 21
1.8135
 31
0.0
  0
LINE
  8
0
 62
     0
 10
303.237
 20
1.8135
 30
0.0
 11
306.538
 21
1.8135
 31
0.0
  0
LINE
  8
0
 62
     0
 10
306.538
 20
1.8135
 30
0.0
 11
306.538
 21
3.01377
 31
0.0
  0
LINE
  8
0
 62
     0
 10
306.538
 20
3.01377
 30
0.0
 11
308.263
 21
3.01377
 31
0.0
  0
LINE
  8
0
 62
     0
 10
308.263
 20
3.01377
 30
0.0
 11
308.263
 21
9.28384
 31
0.0
  0
LINE
  8
0
 62
     0
 10
308.263
 20
9.28384
 30
0.0
 11
309.087
 21
9.28384
 31
0.0
  0
LINE
  8
0
 62
     0
 10
309.087
 20
9.28384
 30
0.0
 11
309.087
 21
12.0826
 31
0.0
  0
LINE
  8
0
 62
     0
 10
309.087
 20
12.0826
 30
0.0
 11
308.263
 21
12.0826
 31
0.0
  0
LINE
  8
0
 62
     0
 10
308.263
 20
12.0826
 30
0.0
 11
308.263
 21
15.3128
 31
0.0
  0
LINE
  8
0
 62
     0
 10
308.263
 20
15.3128
 30
0.0
 11
301.512
 21
15.3128
 31
0.0
  0
LINE
  8
0
 62
     0
 10
301.512
 20
15.3128
 30
0.0
 11
301.512
 21
12.0826
 31
0.0
  0
LINE
  8
0
 62
     0
 10
301.512
 20
12.0826
 30
0.0
 11
300.787
 21
12.0826
 31
0.0
  0
LINE
  8
0
 62
     0
 10
300.787
 20
12.0826
 30
0.0
 11
300.787
 21
16.1837
 31
0.0
  0
LINE
  8
0
 62
     0
 10
300.787
 20
16.1837
 30
0.0
 11
299.988
 21
16.1837
 31
0.0
  0
LINE
  8
0
 62
     0
 10
299.988
 20
16.1837
 30
0.0
 11
299.988
 21
16.7831
 31
0.0
  0
LINE
  8
0
 62
     0
 10
299.988
 20
16.7831
 30
0.0
 11
285.987
 21
16.7831
 31
0.0
  0
LINE
  8
0
 62
     0
 10
50.2447
 20
16.7831
 30
0.0
 11
50.2447
 21
16.1837
 31
0.0
  0
LINE
  8
0
 62
     0
 10
50.2447
 20
16.1837
 30
0.0
 11
49.4439
 21
16.1837
 31
0.0
  0
LINE
  8
0
 62
     0
 10
49.4439
 20
16.1837
 30
0.0
 11
49.4439
 21
3.38308
 31
0.0
  0
LINE
  8
0
 62
     0
 10
49.4439
 20
3.38308
 30
0.0
 11
50.2447
 21
3.38308
 31
0.0
  0
LINE
  8
0
 62
     0
 10
50.2447
 20
3.38308
 30
0.0
 11
50.2447
 21
2.78364
 31
0.0
  0
LINE
  8
0
 62
     0
 10
50.2447
 20
2.78364
 30
0.0
 11
64.244
 21
2.78364
 31
0.0
  0
LINE
  8
0
 62
     0
 10
64.244
 20
2.78364
 30
0.0
 11
64.244
 21
3.38308
 31
0.0
  0
LINE
  8
0
 62
     0
 10
64.244
 20
3.38308
 30
0.0
 11
65.0448
 21
3.38308
 31
0.0
  0
LINE
  8
0
 62
     0
 10
65.0448
 20
3.38308
 30
0.0
 11
65.0448
 21
16.1837
 31
0.0
  0
LINE
  8
0
 62
     0
 10
65.0448
 20
16.1837
 30
0.0
 11
64.244
 21
16.1837
 31
0.0
  0
LINE
  8
0
 62
     0
 10
64.244
 20
16.1837
 30
0.0
 11
64.244
 21
16.7831
 31
0.0
  0
LINE
  8
0
 62
     0
 10
64.244
 20
16.7831
 30
0.0
 11
50.2447
 21
16.7831
 31
0.0
  0
LINE
  8
0
 62
     0
 10
76.4371
 20
16.7831
 30
0.0
 11
76.4371
 21
16.1837
 31
0.0
  0
LINE
  8
0
 62
     0
 10
76.4371
 20
16.1837
 30
0.0
 11
75.6377
 21
16.1837
 31
0.0
  0
LINE
  8
0
 62
     0
 10
75.6377
 20
16.1837
 30
0.0
 11
75.6377
 21
3.38308
 31
0.0
  0
LINE
  8
0
 62
     0
 10
75.6377
 20
3.38308
 30
0.0
 11
76.4371
 21
3.38308
 31
0.0
  0
LINE
  8
0
 62
     0
 10
76.4371
 20
3.38308
 30
0.0
 11
76.4371
 21
2.78364
 31
0.0
  0
LINE
  8
0
 62
     0
 10
76.4371
 20
2.78364
 30
0.0
 11
90.4378
 21
2.78364
 31
0.0
  0
LINE
  8
0
 62
     0
 10
90.4378
 20
2.78364
 30
0.0
 11
90.4378
 21
3.38308
 31
0.0
  0
LINE
  8
0
 62
     0
 10
90.4378
 20
3.38308
 30
0.0
 11
91.2372
 21
3.38308
 31
0.0
  0
LINE
  8
0
 62
     0
 10
91.2372
 20
3.38308
 30
0.0
 11
91.2372
 21
16.1837
 31
0.0
  0
LINE
  8
0
 62
     0
 10
91.2372
 20
16.1837
 30
0.0
 11
90.4378
 21
16.1837
 31
0.0
  0
LINE
  8
0
 62
     0
 10
90.4378
 20
16.1837
 30
0.0
 11
90.4378
 21
16.7831
 31
0.0
  0
LINE
  8
0
 62
     0
 10
90.4378
 20
16.7831
 30
0.0
 11
76.4371
 21
16.7831
 31
0.0
  0
LINE
  8
0
 62
     0
 10
224.076
 20
16.7831
 30
0.0
 11
224.076
 21
16.1837
 31
0.0
  0
LINE
  8
0
 62
     0
 10
224.076
 20
16.1837
 30
0.0
 11
223.275
 21
16.1837
 31
0.0
  0
LINE
  8
0
 62
     0
 10
223.275
 20
16.1837
 30
0.0
 11
223.275
 21
3.38308
 31
0.0
  0
LINE
  8
0
 62
     0
 10
223.275
 20
3.38308
 30
0.0
 11
224.076
 21
3.38308
 31
0.0
  0
LINE
  8
0
 62
     0
 10
224.076
 20
3.38308
 30
0.0
 11
224.076
 21
2.78364
 31
0.0
  0
LINE
  8
0
 62
     0
 10
224.076
 20
2.78364
 30
0.0
 11
238.075
 21
2.78364
 31
0.0
  0
LINE
  8
0
 62
     0
 10
238.075
 20
2.78364
 30
0.0
 11
238.075
 21
3.38308
 31
0.0
  0
LINE
  8
0
 62
     0
 10
238.075
 20
3.38308
 30
0.0
 11
238.876
 21
3.38308
 31
0.0
  0
LINE
  8
0
 62
     0
 10
238.876
 20
3.38308
 30
0.0
 11
238.876
 21
16.1837
 31
0.0
  0
LINE
  8
0
 62
     0
 10
238.876
 20
16.1837
 30
0.0
 11
238.075
 21
16.1837
 31
0.0
  0
LINE
  8
0
 62
     0
 10
238.075
 20
16.1837
 30
0.0
 11
238.075
 21
16.7831
 31
0.0
  0
LINE
  8
0
 62
     0
 10
238.075
 20
16.7831
 30
0.0
 11
224.076
 21
16.7831
 31
0.0
  0
LINE
  8
0
 62
     0
 10
250.27
 20
16.7831
 30
0.0
 11
250.27
 21
16.1837
 31
0.0
  0
LINE
  8
0
 62
     0
 10
250.27
 20
16.1837
 30
0.0
 11
249.469
 21
16.1837
 31
0.0
  0
LINE
  8
0
 62
     0
 10
249.469
 20
16.1837
 30
0.0
 11
249.469
 21
3.38308
 31
0.0
  0
LINE
  8
0
 62
     0
 10
249.469
 20
3.38308
 30
0.0
 11
250.27
 21
3.38308
 31
0.0
  0
LINE
  8
0
 62
     0
 10
250.27
 20
3.38308
 30
0.0
 11
250.27
 21
2.78364
 31
0.0
  0
LINE
  8
0
 62
     0
 10
250.27
 20
2.78364
 30
0.0
 11
264.269
 21
2.78364
 31
0.0
  0
LINE
  8
0
 62
     0
 10
264.269
 20
2.78364
 30
0.0
 11
264.269
 21
3.38308
 31
0.0
  0
LINE
  8
0
 62
     0
 10
264.269
 20
3.38308
 30
0.0
 11
265.07
 21
3.38308
 31
0.0
  0
LINE
  8
0
 62
     0
 10
265.07
 20
3.38308
 30
0.0
 11
265.07
 21
16.1837
 31
0.0
  0
LINE
  8
0
 62
     0
 10
265.07
 20
16.1837
 30
0.0
 11
264.269
 21
16.1837
 31
0.0
  0
LINE
  8
0
 62
     0
 10
264.269
 20
16.1837
 30
0.0
 11
264.269
 21
16.7831
 31
0.0
  0
LINE
  8
0
 62
     0
 10
264.269
 20
16.7831
 30
0.0
 11
250.27
 21
16.7831
 31
0.0
  0
LINE
  8
0
 62
     0
 10
16.9072
 20
35.833
 30
0.0
 11
16.9072
 21
35.2337
 31
0.0
  0
LINE
  8
0
 62
     0
 10
16.9072
 20
35.2337
 30
0.0
 11
16.1065
 21
35.2337
 31
0.0
  0
LINE
  8
0
 62
     0
 10
16.1065
 20
35.2337
 30
0.0
 11
16.1065
 21
22.4331
 31
0.0
  0
LINE
  8
0
 62
     0
 10
16.1065
 20
22.4331
 30
0.0
 11
16.9072
 21
22.4331
 31
0.0
  0
LINE
  8
0
 62
     0
 10
16.9072
 20
22.4331
 30
0.0
 11
16.9072
 21
21.8336
 31
0.0
  0
LINE
  8
0
 62
     0
 10
16.9072
 20
21.8336
 30
0.0
 11
30.9066
 21
21.8336
 31
0.0
  0
LINE
  8
0
 62
     0
 10
30.9066
 20
21.8336
 30
0.0
 11
30.9066
 21
22.4331
 31
0.0
  0
LINE
  8
0
 62
     0
 10
30.9066
 20
22.4331
 30
0.0
 11
31.7059
 21
22.4331
 31
0.0
  0
LINE
  8
0
 62
     0
 10
31.7059
 20
22.4331
 30
0.0
 11
31.7059
 21
35.2337
 31
0.0
  0
LINE
  8
0
 62
     0
 10
31.7059
 20
35.2337
 30
0.0
 11
30.9066
 21
35.2337
 31
0.0
  0
LINE
  8
0
 62
     0
 10
30.9066
 20
35.2337
 30
0.0
 11
30.9066
 21
35.833
 31
0.0
  0
LINE
  8
0
 62
     0
 10
30.9066
 20
35.833
 30
0.0
 11
16.9072
 21
35.833
 31
0.0
  0
LINE
  8
0
 62
     0
 10
50.2447
 20
35.833
 30
0.0
 11
50.2447
 21
35.2337
 31
0.0
  0
LINE
  8
0
 62
     0
 10
50.2447
 20
35.2337
 30
0.0
 11
49.4439
 21
35.2337
 31
0.0
  0
LINE
  8
0
 62
     0
 10
49.4439
 20
35.2337
 30
0.0
 11
49.4439
 21
22.4331
 31
0.0
  0
LINE
  8
0
 62
     0
 10
49.4439
 20
22.4331
 30
0.0
 11
50.2447
 21
22.4331
 31
0.0
  0
LINE
  8
0
 62
     0
 10
50.2447
 20
22.4331
 30
0.0
 11
50.2447
 21
21.8336
 31
0.0
  0
LINE
  8
0
 62
     0
 10
50.2447
 20
21.8336
 30
0.0
 11
64.244
 21
21.8336
 31
0.0
  0
LINE
  8
0
 62
     0
 10
64.244
 20
21.8336
 30
0.0
 11
64.244
 21
22.4331
 31
0.0
  0
LINE
  8
0
 62
     0
 10
64.244
 20
22.4331
 30
0.0
 11
65.0448
 21
22.4331
 31
0.0
  0
LINE
  8
0
 62
     0
 10
65.0448
 20
22.4331
 30
0.0
 11
65.0448
 21
35.2337
 31
0.0
  0
LINE
  8
0
 62
     0
 10
65.0448
 20
35.2337
 30
0.0
 11
64.244
 21
35.2337
 31
0.0
  0
LINE
  8
0
 62
     0
 10
64.244
 20
35.2337
 30
0.0
 11
64.244
 21
35.833
 31
0.0
  0
LINE
  8
0
 62
     0
 10
64.244
 20
35.833
 30
0.0
 11
50.2447
 21
35.833
 31
0.0
  0
LINE
  8
0
 62
     0
 10
69.2947
 20
35.833
 30
0.0
 11
69.2947
 21
35.2337
 31
0.0
  0
LINE
  8
0
 62
     0
 10
69.2947
 20
35.2337
 30
0.0
 11
68.4939
 21
35.2337
 31
0.0
  0
LINE
  8
0
 62
     0
 10
68.4939
 20
35.2337
 30
0.0
 11
68.4939
 21
22.4331
 31
0.0
  0
LINE
  8
0
 62
     0
 10
68.4939
 20
22.4331
 30
0.0
 11
69.2947
 21
22.4331
 31
0.0
  0
LINE
  8
0
 62
     0
 10
69.2947
 20
22.4331
 30
0.0
 11
69.2947
 21
21.8336
 31
0.0
  0
LINE
  8
0
 62
     0
 10
69.2947
 20
21.8336
 30
0.0
 11
83.294
 21
21.8336
 31
0.0
  0
LINE
  8
0
 62
     0
 10
83.294
 20
21.8336
 30
0.0
 11
83.294
 21
22.4331
 31
0.0
  0
LINE
  8
0
 62
     0
 10
83.294
 20
22.4331
 30
0.0
 11
84.0948
 21
22.4331
 31
0.0
  0
LINE
  8
0
 62
     0
 10
84.0948
 20
22.4331
 30
0.0
 11
84.0948
 21
35.2337
 31
0.0
  0
LINE
  8
0
 62
     0
 10
84.0948
 20
35.2337
 30
0.0
 11
83.294
 21
35.2337
 31
0.0
  0
LINE
  8
0
 62
     0
 10
83.294
 20
35.2337
 30
0.0
 11
83.294
 21
35.833
 31
0.0
  0
LINE
  8
0
 62
     0
 10
83.294
 20
35.833
 30
0.0
 11
69.2947
 21
35.833
 31
0.0
  0
LINE
  8
0
 62
     0
 10
88.3447
 20
35.833
 30
0.0
 11
88.3447
 21
35.2337
 31
0.0
  0
LINE
  8
0
 62
     0
 10
88.3447
 20
35.2337
 30
0.0
 11
87.5439
 21
35.2337
 31
0.0
  0
LINE
  8
0
 62
     0
 10
87.5439
 20
35.2337
 30
0.0
 11
87.5439
 21
22.4331
 31
0.0
  0
LINE
  8
0
 62
     0
 10
87.5439
 20
22.4331
 30
0.0
 11
88.3447
 21
22.4331
 31
0.0
  0
LINE
  8
0
 62
     0
 10
88.3447
 20
22.4331
 30
0.0
 11
88.3447
 21
21.8336
 31
0.0
  0
LINE
  8
0
 62
     0
 10
88.3447
 20
21.8336
 30
0.0
 11
102.344
 21
21.8336
 31
0.0
  0
LINE
  8
0
 62
     0
 10
102.344
 20
21.8336
 30
0.0
 11
102.344
 21
22.4331
 31
0.0
  0
LINE
  8
0
 62
     0
 10
102.344
 20
22.4331
 30
0.0
 11
103.145
 21
22.4331
 31
0.0
  0
LINE
  8
0
 62
     0
 10
103.145
 20
22.4331
 30
0.0
 11
103.145
 21
35.2337
 31
0.0
  0
LINE
  8
0
 62
     0
 10
103.145
 20
35.2337
 30
0.0
 11
102.344
 21
35.2337
 31
0.0
  0
LINE
  8
0
 62
     0
 10
102.344
 20
35.2337
 30
0.0
 11
102.344
 21
35.833
 31
0.0
  0
LINE
  8
0
 62
     0
 10
102.344
 20
35.833
 30
0.0
 11
88.3447
 21
35.833
 31
0.0
  0
LINE
  8
0
 62
     0
 10
107.395
 20
35.833
 30
0.0
 11
107.395
 21
35.2337
 31
0.0
  0
LINE
  8
0
 62
     0
 10
107.395
 20
35.2337
 30
0.0
 11
106.594
 21
35.2337
 31
0.0
  0
LINE
  8
0
 62
     0
 10
106.594
 20
35.2337
 30
0.0
 11
106.594
 21
22.4331
 31
0.0
  0
LINE
  8
0
 62
     0
 10
106.594
 20
22.4331
 30
0.0
 11
107.395
 21
22.4331
 31
0.0
  0
LINE
  8
0
 62
     0
 10
107.395
 20
22.4331
 30
0.0
 11
107.395
 21
21.8336
 31
0.0
  0
LINE
  8
0
 62
     0
 10
107.395
 20
21.8336
 30
0.0
 11
121.394
 21
21.8336
 31
0.0
  0
LINE
  8
0
 62
     0
 10
121.394
 20
21.8336
 30
0.0
 11
121.394
 21
22.4331
 31
0.0
  0
LINE
  8
0
 62
     0
 10
121.394
 20
22.4331
 30
0.0
 11
122.195
 21
22.4331
 31
0.0
  0
LINE
  8
0
 62
     0
 10
122.195
 20
22.4331
 30
0.0
 11
122.195
 21
35.2337
 31
0.0
  0
LINE
  8
0
 62
     0
 10
122.195
 20
35.2337
 30
0.0
 11
121.394
 21
35.2337
 31
0.0
  0
LINE
  8
0
 62
     0
 10
121.394
 20
35.2337
 30
0.0
 11
121.394
 21
35.833
 31
0.0
  0
LINE
  8
0
 62
     0
 10
121.394
 20
35.833
 30
0.0
 11
107.395
 21
35.833
 31
0.0
  0
LINE
  8
0
 62
     0
 10
126.445
 20
35.833
 30
0.0
 11
126.445
 21
35.2337
 31
0.0
  0
LINE
  8
0
 62
     0
 10
126.445
 20
35.2337
 30
0.0
 11
125.644
 21
35.2337
 31
0.0
  0
LINE
  8
0
 62
     0
 10
125.644
 20
35.2337
 30
0.0
 11
125.644
 21
22.4331
 31
0.0
  0
LINE
  8
0
 62
     0
 10
125.644
 20
22.4331
 30
0.0
 11
126.445
 21
22.4331
 31
0.0
  0
LINE
  8
0
 62
     0
 10
126.445
 20
22.4331
 30
0.0
 11
126.445
 21
21.8336
 31
0.0
  0
LINE
  8
0
 62
     0
 10
126.445
 20
21.8336
 30
0.0
 11
140.444
 21
21.8336
 31
0.0
  0
LINE
  8
0
 62
     0
 10
140.444
 20
21.8336
 30
0.0
 11
140.444
 21
22.4331
 31
0.0
  0
LINE
  8
0
 62
     0
 10
140.444
 20
22.4331
 30
0.0
 11
141.245
 21
22.4331
 31
0.0
  0
LINE
  8
0
 62
     0
 10
141.245
 20
22.4331
 30
0.0
 11
141.245
 21
35.2337
 31
0.0
  0
LINE
  8
0
 62
     0
 10
141.245
 20
35.2337
 30
0.0
 11
140.444
 21
35.2337
 31
0.0
  0
LINE
  8
0
 62
     0
 10
140.444
 20
35.2337
 30
0.0
 11
140.444
 21
35.833
 31
0.0
  0
LINE
  8
0
 62
     0
 10
140.444
 20
35.833
 30
0.0
 11
126.445
 21
35.833
 31
0.0
  0
LINE
  8
0
 62
     0
 10
174.07
 20
35.833
 30
0.0
 11
174.07
 21
35.2337
 31
0.0
  0
LINE
  8
0
 62
     0
 10
174.07
 20
35.2337
 30
0.0
 11
173.269
 21
35.2337
 31
0.0
  0
LINE
  8
0
 62
     0
 10
173.269
 20
35.2337
 30
0.0
 11
173.269
 21
22.4331
 31
0.0
  0
LINE
  8
0
 62
     0
 10
173.269
 20
22.4331
 30
0.0
 11
174.07
 21
22.4331
 31
0.0
  0
LINE
  8
0
 62
     0
 10
174.07
 20
22.4331
 30
0.0
 11
174.07
 21
21.8336
 31
0.0
  0
LINE
  8
0
 62
     0
 10
174.07
 20
21.8336
 30
0.0
 11
188.069
 21
21.8336
 31
0.0
  0
LINE
  8
0
 62
     0
 10
188.069
 20
21.8336
 30
0.0
 11
188.069
 21
22.4331
 31
0.0
  0
LINE
  8
0
 62
     0
 10
188.069
 20
22.4331
 30
0.0
 11
188.87
 21
22.4331
 31
0.0
  0
LINE
  8
0
 62
     0
 10
188.87
 20
22.4331
 30
0.0
 11
188.87
 21
35.2337
 31
0.0
  0
LINE
  8
0
 62
     0
 10
188.87
 20
35.2337
 30
0.0
 11
188.069
 21
35.2337
 31
0.0
  0
LINE
  8
0
 62
     0
 10
188.069
 20
35.2337
 30
0.0
 11
188.069
 21
35.833
 31
0.0
  0
LINE
  8
0
 62
     0
 10
188.069
 20
35.833
 30
0.0
 11
174.07
 21
35.833
 31
0.0
  0
LINE
  8
0
 62
     0
 10
193.12
 20
35.833
 30
0.0
 11
193.12
 21
35.2337
 31
0.0
  0
LINE
  8
0
 62
     0
 10
193.12
 20
35.2337
 30
0.0
 11
192.319
 21
35.2337
 31
0.0
  0
LINE
  8
0
 62
     0
 10
192.319
 20
35.2337
 30
0.0
 11
192.319
 21
22.4331
 31
0.0
  0
LINE
  8
0
 62
     0
 10
192.319
 20
22.4331
 30
0.0
 11
193.12
 21
22.4331
 31
0.0
  0
LINE
  8
0
 62
     0
 10
193.12
 20
22.4331
 30
0.0
 11
193.12
 21
21.8336
 31
0.0
  0
LINE
  8
0
 62
     0
 10
193.12
 20
21.8336
 30
0.0
 11
207.119
 21
21.8336
 31
0.0
  0
LINE
  8
0
 62
     0
 10
207.119
 20
21.8336
 30
0.0
 11
207.119
 21
22.4331
 31
0.0
  0
LINE
  8
0
 62
     0
 10
207.119
 20
22.4331
 30
0.0
 11
207.92
 21
22.4331
 31
0.0
  0
LINE
  8
0
 62
     0
 10
207.92
 20
22.4331
 30
0.0
 11
207.92
 21
35.2337
 31
0.0
  0
LINE
  8
0
 62
     0
 10
207.92
 20
35.2337
 30
0.0
 11
207.119
 21
35.2337
 31
0.0
  0
LINE
  8
0
 62
     0
 10
207.119
 20
35.2337
 30
0.0
 11
207.119
 21
35.833
 31
0.0
  0
LINE
  8
0
 62
     0
 10
207.119
 20
35.833
 30
0.0
 11
193.12
 21
35.833
 31
0.0
  0
LINE
  8
0
 62
     0
 10
212.17
 20
35.833
 30
0.0
 11
212.17
 21
35.2337
 31
0.0
  0
LINE
  8
0
 62
     0
 10
212.17
 20
35.2337
 30
0.0
 11
211.369
 21
35.2337
 31
0.0
  0
LINE
  8
0
 62
     0
 10
211.369
 20
35.2337
 30
0.0
 11
211.369
 21
22.4331
 31
0.0
  0
LINE
  8
0
 62
     0
 10
211.369
 20
22.4331
 30
0.0
 11
212.17
 21
22.4331
 31
0.0
  0
LINE
  8
0
 62
     0
 10
212.17
 20
22.4331
 30
0.0
 11
212.17
 21
21.8336
 31
0.0
  0
LINE
  8
0
 62
     0
 10
212.17
 20
21.8336
 30
0.0
 11
226.169
 21
21.8336
 31
0.0
  0
LINE
  8
0
 62
     0
 10
226.169
 20
21.8336
 30
0.0
 11
226.169
 21
22.4331
 31
0.0
  0
LINE
  8
0
 62
     0
 10
226.169
 20
22.4331
 30
0.0
 11
226.97
 21
22.4331
 31
0.0
  0
LINE
  8
0
 62
     0
 10
226.97
 20
22.4331
 30
0.0
 11
226.97
 21
35.2337
 31
0.0
  0
LINE
  8
0
 62
     0
 10
226.97
 20
35.2337
 30
0.0
 11
226.169
 21
35.2337
 31
0.0
  0
LINE
  8
0
 62
     0
 10
226.169
 20
35.2337
 30
0.0
 11
226.169
 21
35.833
 31
0.0
  0
LINE
  8
0
 62
     0
 10
226.169
 20
35.833
 30
0.0
 11
212.17
 21
35.833
 31
0.0
  0
LINE
  8
0
 62
     0
 10
231.22
 20
35.833
 30
0.0
 11
231.22
 21
35.2337
 31
0.0
  0
LINE
  8
0
 62
     0
 10
231.22
 20
35.2337
 30
0.0
 11
230.419
 21
35.2337
 31
0.0
  0
LINE
  8
0
 62
     0
 10
230.419
 20
35.2337
 30
0.0
 11
230.419
 21
22.4331
 31
0.0
  0
LINE
  8
0
 62
     0
 10
230.419
 20
22.4331
 30
0.0
 11
231.22
 21
22.4331
 31
0.0
  0
LINE
  8
0
 62
     0
 10
231.22
 20
22.4331
 30
0.0
 11
231.22
 21
21.8336
 31
0.0
  0
LINE
  8
0
 62
     0
 10
231.22
 20
21.8336
 30
0.0
 11
245.219
 21
21.8336
 31
0.0
  0
LINE
  8
0
 62
     0
 10
245.219
 20
21.8336
 30
0.0
 11
245.219
 21
22.4331
 31
0.0
  0
LINE
  8
0
 62
     0
 10
245.219
 20
22.4331
 30
0.0
 11
246.02
 21
22.4331
 31
0.0
  0
LINE
  8
0
 62
     0
 10
246.02
 20
22.4331
 30
0.0
 11
246.02
 21
35.2337
 31
0.0
  0
LINE
  8
0
 62
     0
 10
246.02
 20
35.2337
 30
0.0
 11
245.219
 21
35.2337
 31
0.0
  0
LINE
  8
0
 62
     0
 10
245.219
 20
35.2337
 30
0.0
 11
245.219
 21
35.833
 31
0.0
  0
LINE
  8
0
 62
     0
 10
245.219
 20
35.833
 30
0.0
 11
231.22
 21
35.833
 31
0.0
  0
LINE
  8
0
 62
     0
 10
250.27
 20
35.833
 30
0.0
 11
250.27
 21
35.2337
 31
0.0
  0
LINE
  8
0
 62
     0
 10
250.27
 20
35.2337
 30
0.0
 11
249.469
 21
35.2337
 31
0.0
  0
LINE
  8
0
 62
     0
 10
249.469
 20
35.2337
 30
0.0
 11
249.469
 21
22.4331
 31
0.0
  0
LINE
  8
0
 62
     0
 10
249.469
 20
22.4331
 30
0.0
 11
250.27
 21
22.4331
 31
0.0
  0
LINE
  8
0
 62
     0
 10
250.27
 20
22.4331
 30
0.0
 11
250.27
 21
21.8336
 31
0.0
  0
LINE
  8
0
 62
     0
 10
250.27
 20
21.8336
 30
0.0
 11
264.269
 21
21.8336
 31
0.0
  0
LINE
  8
0
 62
     0
 10
264.269
 20
21.8336
 30
0.0
 11
264.269
 21
22.4331
 31
0.0
  0
LINE
  8
0
 62
     0
 10
264.269
 20
22.4331
 30
0.0
 11
265.07
 21
22.4331
 31
0.0
  0
LINE
  8
0
 62
     0
 10
265.07
 20
22.4331
 30
0.0
 11
265.07
 21
35.2337
 31
0.0
  0
LINE
  8
0
 62
     0
 10
265.07
 20
35.2337
 30
0.0
 11
264.269
 21
35.2337
 31
0.0
  0
LINE
  8
0
 62
     0
 10
264.269
 20
35.2337
 30
0.0
 11
264.269
 21
35.833
 31
0.0
  0
LINE
  8
0
 62
     0
 10
264.269
 20
35.833
 30
0.0
 11
250.27
 21
35.833
 31
0.0
  0
LINE
  8
0
 62
     0
 10
283.607
 20
35.833
 30
0.0
 11
283.607
 21
35.2337
 31
0.0
  0
LINE
  8
0
 62
     0
 10
283.607
 20
35.2337
 30
0.0
 11
282.806
 21
35.2337
 31
0.0
  0
LINE
  8
0
 62
     0
 10
282.806
 20
35.2337
 30
0.0
 11
282.806
 21
22.4331
 31
0.0
  0
LINE
  8
0
 62
     0
 10
282.806
 20
22.4331
 30
0.0
 11
283.607
 21
22.4331
 31
0.0
  0
LINE
  8
0
 62
     0
 10
283.607
 20
22.4331
 30
0.0
 11
283.607
 21
21.8336
 31
0.0
  0
LINE
  8
0
 62
     0
 10
283.607
 20
21.8336
 30
0.0
 11
297.607
 21
21.8336
 31
0.0
  0
LINE
  8
0
 62
     0
 10
297.607
 20
21.8336
 30
0.0
 11
297.607
 21
22.4331
 31
0.0
  0
LINE
  8
0
 62
     0
 10
297.607
 20
22.4331
 30
0.0
 11
298.406
 21
22.4331
 31
0.0
  0
LINE
  8
0
 62
     0
 10
298.406
 20
22.4331
 30
0.0
 11
298.406
 21
35.2337
 31
0.0
  0
LINE
  8
0
 62
     0
 10
298.406
 20
35.2337
 30
0.0
 11
297.607
 21
35.2337
 31
0.0
  0
LINE
  8
0
 62
     0
 10
297.607
 20
35.2337
 30
0.0
 11
297.607
 21
35.833
 31
0.0
  0
LINE
  8
0
 62
     0
 10
297.607
 20
35.833
 30
0.0
 11
283.607
 21
35.833
 31
0.0
  0
LINE
  8
0
 62
     0
 10
2.61965
 20
54.8831
 30
0.0
 11
2.61965
 21
54.2837
 31
0.0
  0
LINE
  8
0
 62
     0
 10
2.61965
 20
54.2837
 30
0.0
 11
1.81901
 21
54.2837
 31
0.0
  0
LINE
  8
0
 62
     0
 10
1.81901
 20
54.2837
 30
0.0
 11
1.81901
 21
41.4831
 31
0.0
  0
LINE
  8
0
 62
     0
 10
1.81901
 20
41.4831
 30
0.0
 11
2.61965
 21
41.4831
 31
0.0
  0
LINE
  8
0
 62
     0
 10
2.61965
 20
41.4831
 30
0.0
 11
2.61965
 21
40.8838
 31
0.0
  0
LINE
  8
0
 62
     0
 10
2.61965
 20
40.8838
 30
0.0
 11
16.6192
 21
40.8838
 31
0.0
  0
LINE
  8
0
 62
     0
 10
16.6192
 20
40.8838
 30
0.0
 11
16.6192
 21
41.4831
 31
0.0
  0
LINE
  8
0
 62
     0
 10
16.6192
 20
41.4831
 30
0.0
 11
17.4198
 21
41.4831
 31
0.0
  0
LINE
  8
0
 62
     0
 10
17.4198
 20
41.4831
 30
0.0
 11
17.4198
 21
54.2837
 31
0.0
  0
LINE
  8
0
 62
     0
 10
17.4198
 20
54.2837
 30
0.0
 11
16.6192
 21
54.2837
 31
0.0
  0
LINE
  8
0
 62
     0
 10
16.6192
 20
54.2837
 30
0.0
 11
16.6192
 21
54.8831
 31
0.0
  0
LINE
  8
0
 62
     0
 10
16.6192
 20
54.8831
 30
0.0
 11
2.61965
 21
54.8831
 31
0.0
  0
LINE
  8
0
 62
     0
 10
21.6697
 20
54.8831
 30
0.0
 11
21.6697
 21
54.2837
 31
0.0
  0
LINE
  8
0
 62
     0
 10
21.6697
 20
54.2837
 30
0.0
 11
20.869
 21
54.2837
 31
0.0
  0
LINE
  8
0
 62
     0
 10
20.869
 20
54.2837
 30
0.0
 11
20.869
 21
41.4831
 31
0.0
  0
LINE
  8
0
 62
     0
 10
20.869
 20
41.4831
 30
0.0
 11
21.6697
 21
41.4831
 31
0.0
  0
LINE
  8
0
 62
     0
 10
21.6697
 20
41.4831
 30
0.0
 11
21.6697
 21
40.8838
 31
0.0
  0
LINE
  8
0
 62
     0
 10
21.6697
 20
40.8838
 30
0.0
 11
35.669
 21
40.8838
 31
0.0
  0
LINE
  8
0
 62
     0
 10
35.669
 20
40.8838
 30
0.0
 11
35.669
 21
41.4831
 31
0.0
  0
LINE
  8
0
 62
     0
 10
35.669
 20
41.4831
 30
0.0
 11
36.4698
 21
41.4831
 31
0.0
  0
LINE
  8
0
 62
     0
 10
36.4698
 20
41.4831
 30
0.0
 11
36.4698
 21
54.2837
 31
0.0
  0
LINE
  8
0
 62
     0
 10
36.4698
 20
54.2837
 30
0.0
 11
35.669
 21
54.2837
 31
0.0
  0
LINE
  8
0
 62
     0
 10
35.669
 20
54.2837
 30
0.0
 11
35.669
 21
54.8831
 31
0.0
  0
LINE
  8
0
 62
     0
 10
35.669
 20
54.8831
 30
0.0
 11
21.6697
 21
54.8831
 31
0.0
  0
LINE
  8
0
 62
     0
 10
40.7197
 20
54.8831
 30
0.0
 11
40.7197
 21
54.2837
 31
0.0
  0
LINE
  8
0
 62
     0
 10
40.7197
 20
54.2837
 30
0.0
 11
39.9189
 21
54.2837
 31
0.0
  0
LINE
  8
0
 62
     0
 10
39.9189
 20
54.2837
 30
0.0
 11
39.9189
 21
41.4831
 31
0.0
  0
LINE
  8
0
 62
     0
 10
39.9189
 20
41.4831
 30
0.0
 11
40.7197
 21
41.4831
 31
0.0
  0
LINE
  8
0
 62
     0
 10
40.7197
 20
41.4831
 30
0.0
 11
40.7197
 21
40.8838
 31
0.0
  0
LINE
  8
0
 62
     0
 10
40.7197
 20
40.8838
 30
0.0
 11
54.719
 21
40.8838
 31
0.0
  0
LINE
  8
0
 62
     0
 10
54.719
 20
40.8838
 30
0.0
 11
54.719
 21
41.4831
 31
0.0
  0
LINE
  8
0
 62
     0
 10
54.719
 20
41.4831
 30
0.0
 11
55.5198
 21
41.4831
 31
0.0
  0
LINE
  8
0
 62
     0
 10
55.5198
 20
41.4831
 30
0.0
 11
55.5198
 21
54.2837
 31
0.0
  0
LINE
  8
0
 62
     0
 10
55.5198
 20
54.2837
 30
0.0
 11
54.719
 21
54.2837
 31
0.0
  0
LINE
  8
0
 62
     0
 10
54.719
 20
54.2837
 30
0.0
 11
54.719
 21
54.8831
 31
0.0
  0
LINE
  8
0
 62
     0
 10
54.719
 20
54.8831
 30
0.0
 11
40.7197
 21
54.8831
 31
0.0
  0
LINE
  8
0
 62
     0
 10
59.7697
 20
54.8831
 30
0.0
 11
59.7697
 21
54.2837
 31
0.0
  0
LINE
  8
0
 62
     0
 10
59.7697
 20
54.2837
 30
0.0
 11
58.9689
 21
54.2837
 31
0.0
  0
LINE
  8
0
 62
     0
 10
58.9689
 20
54.2837
 30
0.0
 11
58.9689
 21
41.4831
 31
0.0
  0
LINE
  8
0
 62
     0
 10
58.9689
 20
41.4831
 30
0.0
 11
59.7697
 21
41.4831
 31
0.0
  0
LINE
  8
0
 62
     0
 10
59.7697
 20
41.4831
 30
0.0
 11
59.7697
 21
40.8838
 31
0.0
  0
LINE
  8
0
 62
     0
 10
59.7697
 20
40.8838
 30
0.0
 11
73.769
 21
40.8838
 31
0.0
  0
LINE
  8
0
 62
     0
 10
73.769
 20
40.8838
 30
0.0
 11
73.769
 21
41.4831
 31
0.0
  0
LINE
  8
0
 62
     0
 10
73.769
 20
41.4831
 30
0.0
 11
74.5698
 21
41.4831
 31
0.0
  0
LINE
  8
0
 62
     0
 10
74.5698
 20
41.4831
 30
0.0
 11
74.5698
 21
54.2837
 31
0.0
  0
LINE
  8
0
 62
     0
 10
74.5698
 20
54.2837
 30
0.0
 11
73.769
 21
54.2837
 31
0.0
  0
LINE
  8
0
 62
     0
 10
73.769
 20
54.2837
 30
0.0
 11
73.769
 21
54.8831
 31
0.0
  0
LINE
  8
0
 62
     0
 10
73.769
 20
54.8831
 30
0.0
 11
59.7697
 21
54.8831
 31
0.0
  0
LINE
  8
0
 62
     0
 10
78.8197
 20
54.8831
 30
0.0
 11
78.8197
 21
54.2837
 31
0.0
  0
LINE
  8
0
 62
     0
 10
78.8197
 20
54.2837
 30
0.0
 11
78.0189
 21
54.2837
 31
0.0
  0
LINE
  8
0
 62
     0
 10
78.0189
 20
54.2837
 30
0.0
 11
78.0189
 21
41.4831
 31
0.0
  0
LINE
  8
0
 62
     0
 10
78.0189
 20
41.4831
 30
0.0
 11
78.8197
 21
41.4831
 31
0.0
  0
LINE
  8
0
 62
     0
 10
78.8197
 20
41.4831
 30
0.0
 11
78.8197
 21
40.8838
 31
0.0
  0
LINE
  8
0
 62
     0
 10
78.8197
 20
40.8838
 30
0.0
 11
92.819
 21
40.8838
 31
0.0
  0
LINE
  8
0
 62
     0
 10
92.819
 20
40.8838
 30
0.0
 11
92.819
 21
41.4831
 31
0.0
  0
LINE
  8
0
 62
     0
 10
92.819
 20
41.4831
 30
0.0
 11
93.6184
 21
41.4831
 31
0.0
  0
LINE
  8
0
 62
     0
 10
93.6184
 20
41.4831
 30
0.0
 11
93.6184
 21
54.2837
 31
0.0
  0
LINE
  8
0
 62
     0
 10
93.6184
 20
54.2837
 30
0.0
 11
92.819
 21
54.2837
 31
0.0
  0
LINE
  8
0
 62
     0
 10
92.819
 20
54.2837
 30
0.0
 11
92.819
 21
54.8831
 31
0.0
  0
LINE
  8
0
 62
     0
 10
92.819
 20
54.8831
 30
0.0
 11
78.8197
 21
54.8831
 31
0.0
  0
LINE
  8
0
 62
     0
 10
97.8683
 20
54.8831
 30
0.0
 11
97.8683
 21
54.2837
 31
0.0
  0
LINE
  8
0
 62
     0
 10
97.8683
 20
54.2837
 30
0.0
 11
97.0689
 21
54.2837
 31
0.0
  0
LINE
  8
0
 62
     0
 10
97.0689
 20
54.2837
 30
0.0
 11
97.0689
 21
41.4831
 31
0.0
  0
LINE
  8
0
 62
     0
 10
97.0689
 20
41.4831
 30
0.0
 11
97.8683
 21
41.4831
 31
0.0
  0
LINE
  8
0
 62
     0
 10
97.8683
 20
41.4831
 30
0.0
 11
97.8683
 21
40.8838
 31
0.0
  0
LINE
  8
0
 62
     0
 10
97.8683
 20
40.8838
 30
0.0
 11
111.869
 21
40.8838
 31
0.0
  0
LINE
  8
0
 62
     0
 10
111.869
 20
40.8838
 30
0.0
 11
111.869
 21
41.4831
 31
0.0
  0
LINE
  8
0
 62
     0
 10
111.869
 20
41.4831
 30
0.0
 11
112.668
 21
41.4831
 31
0.0
  0
LINE
  8
0
 62
     0
 10
112.668
 20
41.4831
 30
0.0
 11
112.668
 21
54.2837
 31
0.0
  0
LINE
  8
0
 62
     0
 10
112.668
 20
54.2837
 30
0.0
 11
111.869
 21
54.2837
 31
0.0
  0
LINE
  8
0
 62
     0
 10
111.869
 20
54.2837
 30
0.0
 11
111.869
 21
54.8831
 31
0.0
  0
LINE
  8
0
 62
     0
 10
111.869
 20
54.8831
 30
0.0
 11
97.8683
 21
54.8831
 31
0.0
  0
LINE
  8
0
 62
     0
 10
116.918
 20
54.8831
 30
0.0
 11
116.918
 21
54.2837
 31
0.0
  0
LINE
  8
0
 62
     0
 10
116.918
 20
54.2837
 30
0.0
 11
116.119
 21
54.2837
 31
0.0
  0
LINE
  8
0
 62
     0
 10
116.119
 20
54.2837
 30
0.0
 11
116.119
 21
41.4831
 31
0.0
  0
LINE
  8
0
 62
     0
 10
116.119
 20
41.4831
 30
0.0
 11
116.918
 21
41.4831
 31
0.0
  0
LINE
  8
0
 62
     0
 10
116.918
 20
41.4831
 30
0.0
 11
116.918
 21
40.8838
 31
0.0
  0
LINE
  8
0
 62
     0
 10
116.918
 20
40.8838
 30
0.0
 11
130.919
 21
40.8838
 31
0.0
  0
LINE
  8
0
 62
     0
 10
130.919
 20
40.8838
 30
0.0
 11
130.919
 21
41.4831
 31
0.0
  0
LINE
  8
0
 62
     0
 10
130.919
 20
41.4831
 30
0.0
 11
131.72
 21
41.4831
 31
0.0
  0
LINE
  8
0
 62
     0
 10
131.72
 20
41.4831
 30
0.0
 11
131.72
 21
54.2837
 31
0.0
  0
LINE
  8
0
 62
     0
 10
131.72
 20
54.2837
 30
0.0
 11
130.919
 21
54.2837
 31
0.0
  0
LINE
  8
0
 62
     0
 10
130.919
 20
54.2837
 30
0.0
 11
130.919
 21
54.8831
 31
0.0
  0
LINE
  8
0
 62
     0
 10
130.919
 20
54.8831
 30
0.0
 11
116.918
 21
54.8831
 31
0.0
  0
LINE
  8
0
 62
     0
 10
181.689
 20
54.8831
 30
0.0
 11
181.689
 21
54.2837
 31
0.0
  0
LINE
  8
0
 62
     0
 10
181.689
 20
54.2837
 30
0.0
 11
180.888
 21
54.2837
 31
0.0
  0
LINE
  8
0
 62
     0
 10
180.888
 20
54.2837
 30
0.0
 11
180.888
 21
41.4831
 31
0.0
  0
LINE
  8
0
 62
     0
 10
180.888
 20
41.4831
 30
0.0
 11
181.689
 21
41.4831
 31
0.0
  0
LINE
  8
0
 62
     0
 10
181.689
 20
41.4831
 30
0.0
 11
181.689
 21
40.8838
 31
0.0
  0
LINE
  8
0
 62
     0
 10
181.689
 20
40.8838
 30
0.0
 11
195.688
 21
40.8838
 31
0.0
  0
LINE
  8
0
 62
     0
 10
195.688
 20
40.8838
 30
0.0
 11
195.688
 21
41.4831
 31
0.0
  0
LINE
  8
0
 62
     0
 10
195.688
 20
41.4831
 30
0.0
 11
196.489
 21
41.4831
 31
0.0
  0
LINE
  8
0
 62
     0
 10
196.489
 20
41.4831
 30
0.0
 11
196.489
 21
54.2837
 31
0.0
  0
LINE
  8
0
 62
     0
 10
196.489
 20
54.2837
 30
0.0
 11
195.688
 21
54.2837
 31
0.0
  0
LINE
  8
0
 62
     0
 10
195.688
 20
54.2837
 30
0.0
 11
195.688
 21
54.8831
 31
0.0
  0
LINE
  8
0
 62
     0
 10
195.688
 20
54.8831
 30
0.0
 11
181.689
 21
54.8831
 31
0.0
  0
LINE
  8
0
 62
     0
 10
200.739
 20
54.8831
 30
0.0
 11
200.739
 21
54.2837
 31
0.0
  0
LINE
  8
0
 62
     0
 10
200.739
 20
54.2837
 30
0.0
 11
199.938
 21
54.2837
 31
0.0
  0
LINE
  8
0
 62
     0
 10
199.938
 20
54.2837
 30
0.0
 11
199.938
 21
41.4831
 31
0.0
  0
LINE
  8
0
 62
     0
 10
199.938
 20
41.4831
 30
0.0
 11
200.739
 21
41.4831
 31
0.0
  0
LINE
  8
0
 62
     0
 10
200.739
 20
41.4831
 30
0.0
 11
200.739
 21
40.8838
 31
0.0
  0
LINE
  8
0
 62
     0
 10
200.739
 20
40.8838
 30
0.0
 11
214.738
 21
40.8838
 31
0.0
  0
LINE
  8
0
 62
     0
 10
214.738
 20
40.8838
 30
0.0
 11
214.738
 21
41.4831
 31
0.0
  0
LINE
  8
0
 62
     0
 10
214.738
 20
41.4831
 30
0.0
 11
215.539
 21
41.4831
 31
0.0
  0
LINE
  8
0
 62
     0
 10
215.539
 20
41.4831
 30
0.0
 11
215.539
 21
54.2837
 31
0.0
  0
LINE
  8
0
 62
     0
 10
215.539
 20
54.2837
 30
0.0
 11
214.738
 21
54.2837
 31
0.0
  0
LINE
  8
0
 62
     0
 10
214.738
 20
54.2837
 30
0.0
 11
214.738
 21
54.8831
 31
0.0
  0
LINE
  8
0
 62
     0
 10
214.738
 20
54.8831
 30
0.0
 11
200.739
 21
54.8831
 31
0.0
  0
LINE
  8
0
 62
     0
 10
219.789
 20
54.8831
 30
0.0
 11
219.789
 21
54.2837
 31
0.0
  0
LINE
  8
0
 62
     0
 10
219.789
 20
54.2837
 30
0.0
 11
218.988
 21
54.2837
 31
0.0
  0
LINE
  8
0
 62
     0
 10
218.988
 20
54.2837
 30
0.0
 11
218.988
 21
41.4831
 31
0.0
  0
LINE
  8
0
 62
     0
 10
218.988
 20
41.4831
 30
0.0
 11
219.789
 21
41.4831
 31
0.0
  0
LINE
  8
0
 62
     0
 10
219.789
 20
41.4831
 30
0.0
 11
219.789
 21
40.8838
 31
0.0
  0
LINE
  8
0
 62
     0
 10
219.789
 20
40.8838
 30
0.0
 11
233.79
 21
40.8838
 31
0.0
  0
LINE
  8
0
 62
     0
 10
233.79
 20
40.8838
 30
0.0
 11
233.79
 21
41.4831
 31
0.0
  0
LINE
  8
0
 62
     0
 10
233.79
 20
41.4831
 30
0.0
 11
234.589
 21
41.4831
 31
0.0
  0
LINE
  8
0
 62
     0
 10
234.589
 20
41.4831
 30
0.0
 11
234.589
 21
54.2837
 31
0.0
  0
LINE
  8
0
 62
     0
 10
234.589
 20
54.2837
 30
0.0
 11
233.79
 21
54.2837
 31
0.0
  0
LINE
  8
0
 62
     0
 10
233.79
 20
54.2837
 30
0.0
 11
233.79
 21
54.8831
 31
0.0
  0
LINE
  8
0
 62
     0
 10
233.79
 20
54.8831
 30
0.0
 11
219.789
 21
54.8831
 31
0.0
  0
LINE
  8
0
 62
     0
 10
238.839
 20
54.8831
 30
0.0
 11
238.839
 21
54.2837
 31
0.0
  0
LINE
  8
0
 62
     0
 10
238.839
 20
54.2837
 30
0.0
 11
238.04
 21
54.2837
 31
0.0
  0
LINE
  8
0
 62
     0
 10
238.04
 20
54.2837
 30
0.0
 11
238.04
 21
41.4831
 31
0.0
  0
LINE
  8
0
 62
     0
 10
238.04
 20
41.4831
 30
0.0
 11
238.839
 21
41.4831
 31
0.0
  0
LINE
  8
0
 62
     0
 10
238.839
 20
41.4831
 30
0.0
 11
238.839
 21
40.8838
 31
0.0
  0
LINE
  8
0
 62
     0
 10
238.839
 20
40.8838
 30
0.0
 11
252.84
 21
40.8838
 31
0.0
  0
LINE
  8
0
 62
     0
 10
252.84
 20
40.8838
 30
0.0
 11
252.84
 21
41.4831
 31
0.0
  0
LINE
  8
0
 62
     0
 10
252.84
 20
41.4831
 30
0.0
 11
253.639
 21
41.4831
 31
0.0
  0
LINE
  8
0
 62
     0
 10
253.639
 20
41.4831
 30
0.0
 11
253.639
 21
54.2837
 31
0.0
  0
LINE
  8
0
 62
     0
 10
253.639
 20
54.2837
 30
0.0
 11
252.84
 21
54.2837
 31
0.0
  0
LINE
  8
0
 62
     0
 10
252.84
 20
54.2837
 30
0.0
 11
252.84
 21
54.8831
 31
0.0
  0
LINE
  8
0
 62
     0
 10
252.84
 20
54.8831
 30
0.0
 11
238.839
 21
54.8831
 31
0.0
  0
LINE
  8
0
 62
     0
 10
257.889
 20
54.8831
 30
0.0
 11
257.889
 21
54.2837
 31
0.0
  0
LINE
  8
0
 62
     0
 10
257.889
 20
54.2837
 30
0.0
 11
257.09
 21
54.2837
 31
0.0
  0
LINE
  8
0
 62
     0
 10
257.09
 20
54.2837
 30
0.0
 11
257.09
 21
41.4831
 31
0.0
  0
LINE
  8
0
 62
     0
 10
257.09
 20
41.4831
 30
0.0
 11
257.889
 21
41.4831
 31
0.0
  0
LINE
  8
0
 62
     0
 10
257.889
 20
41.4831
 30
0.0
 11
257.889
 21
40.8838
 31
0.0
  0
LINE
  8
0
 62
     0
 10
257.889
 20
40.8838
 30
0.0
 11
271.89
 21
40.8838
 31
0.0
  0
LINE
  8
0
 62
     0
 10
271.89
 20
40.8838
 30
0.0
 11
271.89
 21
41.4831
 31
0.0
  0
LINE
  8
0
 62
     0
 10
271.89
 20
41.4831
 30
0.0
 11
272.689
 21
41.4831
 31
0.0
  0
LINE
  8
0
 62
     0
 10
272.689
 20
41.4831
 30
0.0
 11
272.689
 21
54.2837
 31
0.0
  0
LINE
  8
0
 62
     0
 10
272.689
 20
54.2837
 30
0.0
 11
271.89
 21
54.2837
 31
0.0
  0
LINE
  8
0
 62
     0
 10
271.89
 20
54.2837
 30
0.0
 11
271.89
 21
54.8831
 31
0.0
  0
LINE
  8
0
 62
     0
 10
271.89
 20
54.8831
 30
0.0
 11
257.889
 21
54.8831
 31
0.0
  0
LINE
  8
0
 62
     0
 10
276.939
 20
54.8831
 30
0.0
 11
276.939
 21
54.2837
 31
0.0
  0
LINE
  8
0
 62
     0
 10
276.939
 20
54.2837
 30
0.0
 11
276.14
 21
54.2837
 31
0.0
  0
LINE
  8
0
 62
     0
 10
276.14
 20
54.2837
 30
0.0
 11
276.14
 21
41.4831
 31
0.0
  0
LINE
  8
0
 62
     0
 10
276.14
 20
41.4831
 30
0.0
 11
276.939
 21
41.4831
 31
0.0
  0
LINE
  8
0
 62
     0
 10
276.939
 20
41.4831
 30
0.0
 11
276.939
 21
40.8838
 31
0.0
  0
LINE
  8
0
 62
     0
 10
276.939
 20
40.8838
 30
0.0
 11
290.94
 21
40.8838
 31
0.0
  0
LINE
  8
0
 62
     0
 10
290.94
 20
40.8838
 30
0.0
 11
290.94
 21
41.4831
 31
0.0
  0
LINE
  8
0
 62
     0
 10
290.94
 20
41.4831
 30
0.0
 11
291.739
 21
41.4831
 31
0.0
  0
LINE
  8
0
 62
     0
 10
291.739
 20
41.4831
 30
0.0
 11
291.739
 21
54.2837
 31
0.0
  0
LINE
  8
0
 62
     0
 10
291.739
 20
54.2837
 30
0.0
 11
290.94
 21
54.2837
 31
0.0
  0
LINE
  8
0
 62
     0
 10
290.94
 20
54.2837
 30
0.0
 11
290.94
 21
54.8831
 31
0.0
  0
LINE
  8
0
 62
     0
 10
290.94
 20
54.8831
 30
0.0
 11
276.939
 21
54.8831
 31
0.0
  0
LINE
  8
0
 62
     0
 10
295.989
 20
54.8831
 30
0.0
 11
295.989
 21
54.2837
 31
0.0
  0
LINE
  8
0
 62
     0
 10
295.989
 20
54.2837
 30
0.0
 11
295.19
 21
54.2837
 31
0.0
  0
LINE
  8
0
 62
     0
 10
295.19
 20
54.2837
 30
0.0
 11
295.19
 21
41.4831
 31
0.0
  0
LINE
  8
0
 62
     0
 10
295.19
 20
41.4831
 30
0.0
 11
295.989
 21
41.4831
 31
0.0
  0
LINE
  8
0
 62
     0
 10
295.989
 20
41.4831
 30
0.0
 11
295.989
 21
40.8838
 31
0.0
  0
LINE
  8
0
 62
     0
 10
295.989
 20
40.8838
 30
0.0
 11
309.99
 21
40.8838
 31
0.0
  0
LINE
  8
0
 62
     0
 10
309.99
 20
40.8838
 30
0.0
 11
309.99
 21
41.4831
 31
0.0
  0
LINE
  8
0
 62
     0
 10
309.99
 20
41.4831
 30
0.0
 11
310.789
 21
41.4831
 31
0.0
  0
LINE
  8
0
 62
     0
 10
310.789
 20
41.4831
 30
0.0
 11
310.789
 21
54.2837
 31
0.0
  0
LINE
  8
0
 62
     0
 10
310.789
 20
54.2837
 30
0.0
 11
309.99
 21
54.2837
 31
0.0
  0
LINE
  8
0
 62
     0
 10
309.99
 20
54.2837
 30
0.0
 11
309.99
 21
54.8831
 31
0.0
  0
LINE
  8
0
 62
     0
 10
309.99
 20
54.8831
 30
0.0
 11
295.989
 21
54.8831
 31
0.0
  0
LINE
  8
0
 62
     0
 10
7.38216
 20
73.9331
 30
0.0
 11
7.38216
 21
73.3337
 31
0.0
  0
LINE
  8
0
 62
     0
 10
7.38216
 20
73.3337
 30
0.0
 11
6.58153
 21
73.3337
 31
0.0
  0
LINE
  8
0
 62
     0
 10
6.58153
 20
73.3337
 30
0.0
 11
6.58153
 21
60.5331
 31
0.0
  0
LINE
  8
0
 62
     0
 10
6.58153
 20
60.5331
 30
0.0
 11
7.38216
 21
60.5331
 31
0.0
  0
LINE
  8
0
 62
     0
 10
7.38216
 20
60.5331
 30
0.0
 11
7.38216
 21
59.9338
 31
0.0
  0
LINE
  8
0
 62
     0
 10
7.38216
 20
59.9338
 30
0.0
 11
21.3817
 21
59.9338
 31
0.0
  0
LINE
  8
0
 62
     0
 10
21.3817
 20
59.9338
 30
0.0
 11
21.3817
 21
60.5331
 31
0.0
  0
LINE
  8
0
 62
     0
 10
21.3817
 20
60.5331
 30
0.0
 11
22.1809
 21
60.5331
 31
0.0
  0
LINE
  8
0
 62
     0
 10
22.1809
 20
60.5331
 30
0.0
 11
22.1809
 21
73.3337
 31
0.0
  0
LINE
  8
0
 62
     0
 10
22.1809
 20
73.3337
 30
0.0
 11
21.3817
 21
73.3337
 31
0.0
  0
LINE
  8
0
 62
     0
 10
21.3817
 20
73.3337
 30
0.0
 11
21.3817
 21
73.9331
 31
0.0
  0
LINE
  8
0
 62
     0
 10
21.3817
 20
73.9331
 30
0.0
 11
7.38216
 21
73.9331
 31
0.0
  0
LINE
  8
0
 62
     0
 10
26.4322
 20
73.9331
 30
0.0
 11
26.4322
 21
73.3337
 31
0.0
  0
LINE
  8
0
 62
     0
 10
26.4322
 20
73.3337
 30
0.0
 11
25.6315
 21
73.3337
 31
0.0
  0
LINE
  8
0
 62
     0
 10
25.6315
 20
73.3337
 30
0.0
 11
25.6315
 21
60.5331
 31
0.0
  0
LINE
  8
0
 62
     0
 10
25.6315
 20
60.5331
 30
0.0
 11
26.4322
 21
60.5331
 31
0.0
  0
LINE
  8
0
 62
     0
 10
26.4322
 20
60.5331
 30
0.0
 11
26.4322
 21
59.9338
 31
0.0
  0
LINE
  8
0
 62
     0
 10
26.4322
 20
59.9338
 30
0.0
 11
40.4315
 21
59.9338
 31
0.0
  0
LINE
  8
0
 62
     0
 10
40.4315
 20
59.9338
 30
0.0
 11
40.4315
 21
60.5331
 31
0.0
  0
LINE
  8
0
 62
     0
 10
40.4315
 20
60.5331
 30
0.0
 11
41.2309
 21
60.5331
 31
0.0
  0
LINE
  8
0
 62
     0
 10
41.2309
 20
60.5331
 30
0.0
 11
41.2309
 21
73.3337
 31
0.0
  0
LINE
  8
0
 62
     0
 10
41.2309
 20
73.3337
 30
0.0
 11
40.4315
 21
73.3337
 31
0.0
  0
LINE
  8
0
 62
     0
 10
40.4315
 20
73.3337
 30
0.0
 11
40.4315
 21
73.9331
 31
0.0
  0
LINE
  8
0
 62
     0
 10
40.4315
 20
73.9331
 30
0.0
 11
26.4322
 21
73.9331
 31
0.0
  0
LINE
  8
0
 62
     0
 10
45.4822
 20
73.9331
 30
0.0
 11
45.4822
 21
73.3337
 31
0.0
  0
LINE
  8
0
 62
     0
 10
45.4822
 20
73.3337
 30
0.0
 11
44.6814
 21
73.3337
 31
0.0
  0
LINE
  8
0
 62
     0
 10
44.6814
 20
73.3337
 30
0.0
 11
44.6814
 21
60.5331
 31
0.0
  0
LINE
  8
0
 62
     0
 10
44.6814
 20
60.5331
 30
0.0
 11
45.4822
 21
60.5331
 31
0.0
  0
LINE
  8
0
 62
     0
 10
45.4822
 20
60.5331
 30
0.0
 11
45.4822
 21
59.9338
 31
0.0
  0
LINE
  8
0
 62
     0
 10
45.4822
 20
59.9338
 30
0.0
 11
59.4815
 21
59.9338
 31
0.0
  0
LINE
  8
0
 62
     0
 10
59.4815
 20
59.9338
 30
0.0
 11
59.4815
 21
60.5331
 31
0.0
  0
LINE
  8
0
 62
     0
 10
59.4815
 20
60.5331
 30
0.0
 11
60.2809
 21
60.5331
 31
0.0
  0
LINE
  8
0
 62
     0
 10
60.2809
 20
60.5331
 30
0.0
 11
60.2809
 21
73.3337
 31
0.0
  0
LINE
  8
0
 62
     0
 10
60.2809
 20
73.3337
 30
0.0
 11
59.4815
 21
73.3337
 31
0.0
  0
LINE
  8
0
 62
     0
 10
59.4815
 20
73.3337
 30
0.0
 11
59.4815
 21
73.9331
 31
0.0
  0
LINE
  8
0
 62
     0
 10
59.4815
 20
73.9331
 30
0.0
 11
45.4822
 21
73.9331
 31
0.0
  0
LINE
  8
0
 62
     0
 10
64.5322
 20
73.9331
 30
0.0
 11
64.5322
 21
73.3337
 31
0.0
  0
LINE
  8
0
 62
     0
 10
64.5322
 20
73.3337
 30
0.0
 11
63.7314
 21
73.3337
 31
0.0
  0
LINE
  8
0
 62
     0
 10
63.7314
 20
73.3337
 30
0.0
 11
63.7314
 21
60.5331
 31
0.0
  0
LINE
  8
0
 62
     0
 10
63.7314
 20
60.5331
 30
0.0
 11
64.5322
 21
60.5331
 31
0.0
  0
LINE
  8
0
 62
     0
 10
64.5322
 20
60.5331
 30
0.0
 11
64.5322
 21
59.9338
 31
0.0
  0
LINE
  8
0
 62
     0
 10
64.5322
 20
59.9338
 30
0.0
 11
78.5315
 21
59.9338
 31
0.0
  0
LINE
  8
0
 62
     0
 10
78.5315
 20
59.9338
 30
0.0
 11
78.5315
 21
60.5331
 31
0.0
  0
LINE
  8
0
 62
     0
 10
78.5315
 20
60.5331
 30
0.0
 11
79.3309
 21
60.5331
 31
0.0
  0
LINE
  8
0
 62
     0
 10
79.3309
 20
60.5331
 30
0.0
 11
79.3309
 21
73.3337
 31
0.0
  0
LINE
  8
0
 62
     0
 10
79.3309
 20
73.3337
 30
0.0
 11
78.5315
 21
73.3337
 31
0.0
  0
LINE
  8
0
 62
     0
 10
78.5315
 20
73.3337
 30
0.0
 11
78.5315
 21
73.9331
 31
0.0
  0
LINE
  8
0
 62
     0
 10
78.5315
 20
73.9331
 30
0.0
 11
64.5322
 21
73.9331
 31
0.0
  0
LINE
  8
0
 62
     0
 10
83.5822
 20
73.9331
 30
0.0
 11
83.5822
 21
73.3337
 31
0.0
  0
LINE
  8
0
 62
     0
 10
83.5822
 20
73.3337
 30
0.0
 11
82.7814
 21
73.3337
 31
0.0
  0
LINE
  8
0
 62
     0
 10
82.7814
 20
73.3337
 30
0.0
 11
82.7814
 21
60.5331
 31
0.0
  0
LINE
  8
0
 62
     0
 10
82.7814
 20
60.5331
 30
0.0
 11
83.5822
 21
60.5331
 31
0.0
  0
LINE
  8
0
 62
     0
 10
83.5822
 20
60.5331
 30
0.0
 11
83.5822
 21
59.9338
 31
0.0
  0
LINE
  8
0
 62
     0
 10
83.5822
 20
59.9338
 30
0.0
 11
97.5815
 21
59.9338
 31
0.0
  0
LINE
  8
0
 62
     0
 10
97.5815
 20
59.9338
 30
0.0
 11
97.5815
 21
60.5331
 31
0.0
  0
LINE
  8
0
 62
     0
 10
97.5815
 20
60.5331
 30
0.0
 11
98.3809
 21
60.5331
 31
0.0
  0
LINE
  8
0
 62
     0
 10
98.3809
 20
60.5331
 30
0.0
 11
98.3809
 21
73.3337
 31
0.0
  0
LINE
  8
0
 62
     0
 10
98.3809
 20
73.3337
 30
0.0
 11
97.5815
 21
73.3337
 31
0.0
  0
LINE
  8
0
 62
     0
 10
97.5815
 20
73.3337
 30
0.0
 11
97.5815
 21
73.9331
 31
0.0
  0
LINE
  8
0
 62
     0
 10
97.5815
 20
73.9331
 30
0.0
 11
83.5822
 21
73.9331
 31
0.0
  0
LINE
  8
0
 62
     0
 10
102.632
 20
73.9331
 30
0.0
 11
102.632
 21
73.3337
 31
0.0
  0
LINE
  8
0
 62
     0
 10
102.632
 20
73.3337
 30
0.0
 11
101.831
 21
73.3337
 31
0.0
  0
LINE
  8
0
 62
     0
 10
101.831
 20
73.3337
 30
0.0
 11
101.831
 21
60.5331
 31
0.0
  0
LINE
  8
0
 62
     0
 10
101.831
 20
60.5331
 30
0.0
 11
102.632
 21
60.5331
 31
0.0
  0
LINE
  8
0
 62
     0
 10
102.632
 20
60.5331
 30
0.0
 11
102.632
 21
59.9338
 31
0.0
  0
LINE
  8
0
 62
     0
 10
102.632
 20
59.9338
 30
0.0
 11
116.632
 21
59.9338
 31
0.0
  0
LINE
  8
0
 62
     0
 10
116.632
 20
59.9338
 30
0.0
 11
116.632
 21
60.5331
 31
0.0
  0
LINE
  8
0
 62
     0
 10
116.632
 20
60.5331
 30
0.0
 11
117.431
 21
60.5331
 31
0.0
  0
LINE
  8
0
 62
     0
 10
117.431
 20
60.5331
 30
0.0
 11
117.431
 21
73.3337
 31
0.0
  0
LINE
  8
0
 62
     0
 10
117.431
 20
73.3337
 30
0.0
 11
116.632
 21
73.3337
 31
0.0
  0
LINE
  8
0
 62
     0
 10
116.632
 20
73.3337
 30
0.0
 11
116.632
 21
73.9331
 31
0.0
  0
LINE
  8
0
 62
     0
 10
116.632
 20
73.9331
 30
0.0
 11
102.632
 21
73.9331
 31
0.0
  0
LINE
  8
0
 62
     0
 10
121.682
 20
73.9331
 30
0.0
 11
121.682
 21
73.3337
 31
0.0
  0
LINE
  8
0
 62
     0
 10
121.682
 20
73.3337
 30
0.0
 11
120.881
 21
73.3337
 31
0.0
  0
LINE
  8
0
 62
     0
 10
120.881
 20
73.3337
 30
0.0
 11
120.881
 21
60.5331
 31
0.0
  0
LINE
  8
0
 62
     0
 10
120.881
 20
60.5331
 30
0.0
 11
121.682
 21
60.5331
 31
0.0
  0
LINE
  8
0
 62
     0
 10
121.682
 20
60.5331
 30
0.0
 11
121.682
 21
59.9338
 31
0.0
  0
LINE
  8
0
 62
     0
 10
121.682
 20
59.9338
 30
0.0
 11
135.682
 21
59.9338
 31
0.0
  0
LINE
  8
0
 62
     0
 10
135.682
 20
59.9338
 30
0.0
 11
135.682
 21
60.5331
 31
0.0
  0
LINE
  8
0
 62
     0
 10
135.682
 20
60.5331
 30
0.0
 11
136.481
 21
60.5331
 31
0.0
  0
LINE
  8
0
 62
     0
 10
136.481
 20
60.5331
 30
0.0
 11
136.481
 21
73.3337
 31
0.0
  0
LINE
  8
0
 62
     0
 10
136.481
 20
73.3337
 30
0.0
 11
135.682
 21
73.3337
 31
0.0
  0
LINE
  8
0
 62
     0
 10
135.682
 20
73.3337
 30
0.0
 11
135.682
 21
73.9331
 31
0.0
  0
LINE
  8
0
 62
     0
 10
135.682
 20
73.9331
 30
0.0
 11
121.682
 21
73.9331
 31
0.0
  0
LINE
  8
0
 62
     0
 10
178.832
 20
73.9331
 30
0.0
 11
178.832
 21
73.3337
 31
0.0
  0
LINE
  8
0
 62
     0
 10
178.832
 20
73.3337
 30
0.0
 11
178.031
 21
73.3337
 31
0.0
  0
LINE
  8
0
 62
     0
 10
178.031
 20
73.3337
 30
0.0
 11
178.031
 21
60.5331
 31
0.0
  0
LINE
  8
0
 62
     0
 10
178.031
 20
60.5331
 30
0.0
 11
178.832
 21
60.5331
 31
0.0
  0
LINE
  8
0
 62
     0
 10
178.832
 20
60.5331
 30
0.0
 11
178.832
 21
59.9338
 31
0.0
  0
LINE
  8
0
 62
     0
 10
178.832
 20
59.9338
 30
0.0
 11
192.832
 21
59.9338
 31
0.0
  0
LINE
  8
0
 62
     0
 10
192.832
 20
59.9338
 30
0.0
 11
192.832
 21
60.5331
 31
0.0
  0
LINE
  8
0
 62
     0
 10
192.832
 20
60.5331
 30
0.0
 11
193.631
 21
60.5331
 31
0.0
  0
LINE
  8
0
 62
     0
 10
193.631
 20
60.5331
 30
0.0
 11
193.631
 21
73.3337
 31
0.0
  0
LINE
  8
0
 62
     0
 10
193.631
 20
73.3337
 30
0.0
 11
192.832
 21
73.3337
 31
0.0
  0
LINE
  8
0
 62
     0
 10
192.832
 20
73.3337
 30
0.0
 11
192.832
 21
73.9331
 31
0.0
  0
LINE
  8
0
 62
     0
 10
192.832
 20
73.9331
 30
0.0
 11
178.832
 21
73.9331
 31
0.0
  0
LINE
  8
0
 62
     0
 10
197.882
 20
73.9331
 30
0.0
 11
197.882
 21
73.3337
 31
0.0
  0
LINE
  8
0
 62
     0
 10
197.882
 20
73.3337
 30
0.0
 11
197.081
 21
73.3337
 31
0.0
  0
LINE
  8
0
 62
     0
 10
197.081
 20
73.3337
 30
0.0
 11
197.081
 21
60.5331
 31
0.0
  0
LINE
  8
0
 62
     0
 10
197.081
 20
60.5331
 30
0.0
 11
197.882
 21
60.5331
 31
0.0
  0
LINE
  8
0
 62
     0
 10
197.882
 20
60.5331
 30
0.0
 11
197.882
 21
59.9338
 31
0.0
  0
LINE
  8
0
 62
     0
 10
197.882
 20
59.9338
 30
0.0
 11
211.882
 21
59.9338
 31
0.0
  0
LINE
  8
0
 62
     0
 10
211.882
 20
59.9338
 30
0.0
 11
211.882
 21
60.5331
 31
0.0
  0
LINE
  8
0
 62
     0
 10
211.882
 20
60.5331
 30
0.0
 11
212.681
 21
60.5331
 31
0.0
  0
LINE
  8
0
 62
     0
 10
212.681
 20
60.5331
 30
0.0
 11
212.681
 21
73.3337
 31
0.0
  0
LINE
  8
0
 62
     0
 10
212.681
 20
73.3337
 30
0.0
 11
211.882
 21
73.3337
 31
0.0
  0
LINE
  8
0
 62
     0
 10
211.882
 20
73.3337
 30
0.0
 11
211.882
 21
73.9331
 31
0.0
  0
LINE
  8
0
 62
     0
 10
211.882
 20
73.9331
 30
0.0
 11
197.882
 21
73.9331
 31
0.0
  0
LINE
  8
0
 62
     0
 10
216.932
 20
73.9331
 30
0.0
 11
216.932
 21
73.3337
 31
0.0
  0
LINE
  8
0
 62
     0
 10
216.932
 20
73.3337
 30
0.0
 11
216.131
 21
73.3337
 31
0.0
  0
LINE
  8
0
 62
     0
 10
216.131
 20
73.3337
 30
0.0
 11
216.131
 21
60.5331
 31
0.0
  0
LINE
  8
0
 62
     0
 10
216.131
 20
60.5331
 30
0.0
 11
216.932
 21
60.5331
 31
0.0
  0
LINE
  8
0
 62
     0
 10
216.932
 20
60.5331
 30
0.0
 11
216.932
 21
59.9338
 31
0.0
  0
LINE
  8
0
 62
     0
 10
216.932
 20
59.9338
 30
0.0
 11
230.932
 21
59.9338
 31
0.0
  0
LINE
  8
0
 62
     0
 10
230.932
 20
59.9338
 30
0.0
 11
230.932
 21
60.5331
 31
0.0
  0
LINE
  8
0
 62
     0
 10
230.932
 20
60.5331
 30
0.0
 11
231.731
 21
60.5331
 31
0.0
  0
LINE
  8
0
 62
     0
 10
231.731
 20
60.5331
 30
0.0
 11
231.731
 21
73.3337
 31
0.0
  0
LINE
  8
0
 62
     0
 10
231.731
 20
73.3337
 30
0.0
 11
230.932
 21
73.3337
 31
0.0
  0
LINE
  8
0
 62
     0
 10
230.932
 20
73.3337
 30
0.0
 11
230.932
 21
73.9331
 31
0.0
  0
LINE
  8
0
 62
     0
 10
230.932
 20
73.9331
 30
0.0
 11
216.932
 21
73.9331
 31
0.0
  0
LINE
  8
0
 62
     0
 10
235.982
 20
73.9331
 30
0.0
 11
235.982
 21
73.3337
 31
0.0
  0
LINE
  8
0
 62
     0
 10
235.982
 20
73.3337
 30
0.0
 11
235.181
 21
73.3337
 31
0.0
  0
LINE
  8
0
 62
     0
 10
235.181
 20
73.3337
 30
0.0
 11
235.181
 21
60.5331
 31
0.0
  0
LINE
  8
0
 62
     0
 10
235.181
 20
60.5331
 30
0.0
 11
235.982
 21
60.5331
 31
0.0
  0
LINE
  8
0
 62
     0
 10
235.982
 20
60.5331
 30
0.0
 11
235.982
 21
59.9338
 31
0.0
  0
LINE
  8
0
 62
     0
 10
235.982
 20
59.9338
 30
0.0
 11
249.982
 21
59.9338
 31
0.0
  0
LINE
  8
0
 62
     0
 10
249.982
 20
59.9338
 30
0.0
 11
249.982
 21
60.5331
 31
0.0
  0
LINE
  8
0
 62
     0
 10
249.982
 20
60.5331
 30
0.0
 11
250.781
 21
60.5331
 31
0.0
  0
LINE
  8
0
 62
     0
 10
250.781
 20
60.5331
 30
0.0
 11
250.781
 21
73.3337
 31
0.0
  0
LINE
  8
0
 62
     0
 10
250.781
 20
73.3337
 30
0.0
 11
249.982
 21
73.3337
 31
0.0
  0
LINE
  8
0
 62
     0
 10
249.982
 20
73.3337
 30
0.0
 11
249.982
 21
73.9331
 31
0.0
  0
LINE
  8
0
 62
     0
 10
249.982
 20
73.9331
 30
0.0
 11
235.982
 21
73.9331
 31
0.0
  0
LINE
  8
0
 62
     0
 10
255.032
 20
73.9331
 30
0.0
 11
255.032
 21
73.3337
 31
0.0
  0
LINE
  8
0
 62
     0
 10
255.032
 20
73.3337
 30
0.0
 11
254.231
 21
73.3337
 31
0.0
  0
LINE
  8
0
 62
     0
 10
254.231
 20
73.3337
 30
0.0
 11
254.231
 21
60.5331
 31
0.0
  0
LINE
  8
0
 62
     0
 10
254.231
 20
60.5331
 30
0.0
 11
255.032
 21
60.5331
 31
0.0
  0
LINE
  8
0
 62
     0
 10
255.032
 20
60.5331
 30
0.0
 11
255.032
 21
59.9338
 31
0.0
  0
LINE
  8
0
 62
     0
 10
255.032
 20
59.9338
 30
0.0
 11
269.032
 21
59.9338
 31
0.0
  0
LINE
  8
0
 62
     0
 10
269.032
 20
59.9338
 30
0.0
 11
269.032
 21
60.5331
 31
0.0
  0
LINE
  8
0
 62
     0
 10
269.032
 20
60.5331
 30
0.0
 11
269.831
 21
60.5331
 31
0.0
  0
LINE
  8
0
 62
     0
 10
269.831
 20
60.5331
 30
0.0
 11
269.831
 21
73.3337
 31
0.0
  0
LINE
  8
0
 62
     0
 10
269.831
 20
73.3337
 30
0.0
 11
269.032
 21
73.3337
 31
0.0
  0
LINE
  8
0
 62
     0
 10
269.032
 20
73.3337
 30
0.0
 11
269.032
 21
73.9331
 31
0.0
  0
LINE
  8
0
 62
     0
 10
269.032
 20
73.9331
 30
0.0
 11
255.032
 21
73.9331
 31
0.0
  0
LINE
  8
0
 62
     0
 10
274.082
 20
73.9331
 30
0.0
 11
274.082
 21
73.3337
 31
0.0
  0
LINE
  8
0
 62
     0
 10
274.082
 20
73.3337
 30
0.0
 11
273.281
 21
73.3337
 31
0.0
  0
LINE
  8
0
 62
     0
 10
273.281
 20
73.3337
 30
0.0
 11
273.281
 21
60.5331
 31
0.0
  0
LINE
  8
0
 62
     0
 10
273.281
 20
60.5331
 30
0.0
 11
274.082
 21
60.5331
 31
0.0
  0
LINE
  8
0
 62
     0
 10
274.082
 20
60.5331
 30
0.0
 11
274.082
 21
59.9338
 31
0.0
  0
LINE
  8
0
 62
     0
 10
274.082
 20
59.9338
 30
0.0
 11
288.082
 21
59.9338
 31
0.0
  0
LINE
  8
0
 62
     0
 10
288.082
 20
59.9338
 30
0.0
 11
288.082
 21
60.5331
 31
0.0
  0
LINE
  8
0
 62
     0
 10
288.082
 20
60.5331
 30
0.0
 11
288.881
 21
60.5331
 31
0.0
  0
LINE
  8
0
 62
     0
 10
288.881
 20
60.5331
 30
0.0
 11
288.881
 21
73.3337
 31
0.0
  0
LINE
  8
0
 62
     0
 10
288.881
 20
73.3337
 30
0.0
 11
288.082
 21
73.3337
 31
0.0
  0
LINE
  8
0
 62
     0
 10
288.082
 20
73.3337
 30
0.0
 11
288.082
 21
73.9331
 31
0.0
  0
LINE
  8
0
 62
     0
 10
288.082
 20
73.9331
 30
0.0
 11
274.082
 21
73.9331
 31
0.0
  0
LINE
  8
0
 62
     0
 10
293.132
 20
73.9331
 30
0.0
 11
293.132
 21
73.3337
 31
0.0
  0
LINE
  8
0
 62
     0
 10
293.132
 20
73.3337
 30
0.0
 11
292.331
 21
73.3337
 31
0.0
  0
LINE
  8
0
 62
     0
 10
292.331
 20
73.3337
 30
0.0
 11
292.331
 21
60.5331
 31
0.0
  0
LINE
  8
0
 62
     0
 10
292.331
 20
60.5331
 30
0.0
 11
293.132
 21
60.5331
 31
0.0
  0
LINE
  8
0
 62
     0
 10
293.132
 20
60.5331
 30
0.0
 11
293.132
 21
59.9338
 31
0.0
  0
LINE
  8
0
 62
     0
 10
293.132
 20
59.9338
 30
0.0
 11
307.132
 21
59.9338
 31
0.0
  0
LINE
  8
0
 62
     0
 10
307.132
 20
59.9338
 30
0.0
 11
307.132
 21
60.5331
 31
0.0
  0
LINE
  8
0
 62
     0
 10
307.132
 20
60.5331
 30
0.0
 11
307.931
 21
60.5331
 31
0.0
  0
LINE
  8
0
 62
     0
 10
307.931
 20
60.5331
 30
0.0
 11
307.931
 21
73.3337
 31
0.0
  0
LINE
  8
0
 62
     0
 10
307.931
 20
73.3337
 30
0.0
 11
307.132
 21
73.3337
 31
0.0
  0
LINE
  8
0
 62
     0
 10
307.132
 20
73.3337
 30
0.0
 11
307.132
 21
73.9331
 31
0.0
  0
LINE
  8
0
 62
     0
 10
307.132
 20
73.9331
 30
0.0
 11
293.132
 21
73.9331
 31
0.0
  0
LINE
  8
0
 62
     0
 10
278.845
 20
92.9831
 30
0.0
 11
278.845
 21
92.3837
 31
0.0
  0
LINE
  8
0
 62
     0
 10
278.845
 20
92.3837
 30
0.0
 11
278.044
 21
92.3837
 31
0.0
  0
LINE
  8
0
 62
     0
 10
278.044
 20
92.3837
 30
0.0
 11
278.044
 21
88.2826
 31
0.0
  0
LINE
  8
0
 62
     0
 10
278.044
 20
88.2826
 30
0.0
 11
277.319
 21
88.2826
 31
0.0
  0
LINE
  8
0
 62
     0
 10
277.319
 20
88.2826
 30
0.0
 11
277.319
 21
91.5127
 31
0.0
  0
LINE
  8
0
 62
     0
 10
277.319
 20
91.5127
 30
0.0
 11
270.57
 21
91.5127
 31
0.0
  0
LINE
  8
0
 62
     0
 10
270.57
 20
91.5127
 30
0.0
 11
270.57
 21
88.2826
 31
0.0
  0
LINE
  8
0
 62
     0
 10
270.57
 20
88.2826
 30
0.0
 11
269.744
 21
88.2826
 31
0.0
  0
LINE
  8
0
 62
     0
 10
269.744
 20
88.2826
 30
0.0
 11
269.744
 21
85.4837
 31
0.0
  0
LINE
  8
0
 62
     0
 10
269.744
 20
85.4837
 30
0.0
 11
270.57
 21
85.4837
 31
0.0
  0
LINE
  8
0
 62
     0
 10
270.57
 20
85.4837
 30
0.0
 11
270.57
 21
79.2138
 31
0.0
  0
LINE
  8
0
 62
     0
 10
270.57
 20
79.2138
 30
0.0
 11
272.295
 21
79.2138
 31
0.0
  0
LINE
  8
0
 62
     0
 10
272.295
 20
79.2138
 30
0.0
 11
272.295
 21
78.0136
 31
0.0
  0
LINE
  8
0
 62
     0
 10
272.295
 20
78.0136
 30
0.0
 11
275.594
 21
78.0136
 31
0.0
  0
LINE
  8
0
 62
     0
 10
275.594
 20
78.0136
 30
0.0
 11
275.594
 21
79.2138
 31
0.0
  0
LINE
  8
0
 62
     0
 10
275.594
 20
79.2138
 30
0.0
 11
277.319
 21
79.2138
 31
0.0
  0
LINE
  8
0
 62
     0
 10
277.319
 20
79.2138
 30
0.0
 11
277.319
 21
83.6828
 31
0.0
  0
LINE
  8
0
 62
     0
 10
277.319
 20
83.6828
 30
0.0
 11
278.044
 21
83.6828
 31
0.0
  0
LINE
  8
0
 62
     0
 10
278.044
 20
83.6828
 30
0.0
 11
278.044
 21
79.5831
 31
0.0
  0
LINE
  8
0
 62
     0
 10
278.044
 20
79.5831
 30
0.0
 11
278.845
 21
79.5831
 31
0.0
  0
LINE
  8
0
 62
     0
 10
278.845
 20
79.5831
 30
0.0
 11
278.845
 21
78.9838
 31
0.0
  0
LINE
  8
0
 62
     0
 10
278.845
 20
78.9838
 30
0.0
 11
292.844
 21
78.9838
 31
0.0
  0
LINE
  8
0
 62
     0
 10
292.844
 20
78.9838
 30
0.0
 11
292.844
 21
79.5831
 31
0.0
  0
LINE
  8
0
 62
     0
 10
292.844
 20
79.5831
 30
0.0
 11
293.645
 21
79.5831
 31
0.0
  0
LINE
  8
0
 62
     0
 10
293.645
 20
79.5831
 30
0.0
 11
293.645
 21
83.6828
 31
0.0
  0
LINE
  8
0
 62
     0
 10
293.645
 20
83.6828
 30
0.0
 11
294.37
 21
83.6828
 31
0.0
  0
LINE
  8
0
 62
     0
 10
294.37
 20
83.6828
 30
0.0
 11
294.37
 21
79.2138
 31
0.0
  0
LINE
  8
0
 62
     0
 10
294.37
 20
79.2138
 30
0.0
 11
296.095
 21
79.2138
 31
0.0
  0
LINE
  8
0
 62
     0
 10
296.095
 20
79.2138
 30
0.0
 11
296.095
 21
78.0136
 31
0.0
  0
LINE
  8
0
 62
     0
 10
296.095
 20
78.0136
 30
0.0
 11
299.394
 21
78.0136
 31
0.0
  0
LINE
  8
0
 62
     0
 10
299.394
 20
78.0136
 30
0.0
 11
299.394
 21
79.2138
 31
0.0
  0
LINE
  8
0
 62
     0
 10
299.394
 20
79.2138
 30
0.0
 11
301.119
 21
79.2138
 31
0.0
  0
LINE
  8
0
 62
     0
 10
301.119
 20
79.2138
 30
0.0
 11
301.119
 21
85.4837
 31
0.0
  0
LINE
  8
0
 62
     0
 10
301.119
 20
85.4837
 30
0.0
 11
301.945
 21
85.4837
 31
0.0
  0
LINE
  8
0
 62
     0
 10
301.945
 20
85.4837
 30
0.0
 11
301.945
 21
88.2826
 31
0.0
  0
LINE
  8
0
 62
     0
 10
301.945
 20
88.2826
 30
0.0
 11
301.119
 21
88.2826
 31
0.0
  0
LINE
  8
0
 62
     0
 10
301.119
 20
88.2826
 30
0.0
 11
301.119
 21
91.5127
 31
0.0
  0
LINE
  8
0
 62
     0
 10
301.119
 20
91.5127
 30
0.0
 11
294.37
 21
91.5127
 31
0.0
  0
LINE
  8
0
 62
     0
 10
294.37
 20
91.5127
 30
0.0
 11
294.37
 21
88.2826
 31
0.0
  0
LINE
  8
0
 62
     0
 10
294.37
 20
88.2826
 30
0.0
 11
293.645
 21
88.2826
 31
0.0
  0
LINE
  8
0
 62
     0
 10
293.645
 20
88.2826
 30
0.0
 11
293.645
 21
92.3837
 31
0.0
  0
LINE
  8
0
 62
     0
 10
293.645
 20
92.3837
 30
0.0
 11
292.844
 21
92.3837
 31
0.0
  0
LINE
  8
0
 62
     0
 10
292.844
 20
92.3837
 30
0.0
 11
292.844
 21
92.9831
 31
0.0
  0
LINE
  8
0
 62
     0
 10
292.844
 20
92.9831
 30
0.0
 11
278.845
 21
92.9831
 31
0.0
  0
LINE
  8
0
 62
     0
 10
12.1447
 20
92.9831
 30
0.0
 11
12.1447
 21
92.3837
 31
0.0
  0
LINE
  8
0
 62
     0
 10
12.1447
 20
92.3837
 30
0.0
 11
11.344
 21
92.3837
 31
0.0
  0
LINE
  8
0
 62
     0
 10
11.344
 20
92.3837
 30
0.0
 11
11.344
 21
79.5831
 31
0.0
  0
LINE
  8
0
 62
     0
 10
11.344
 20
79.5831
 30
0.0
 11
12.1447
 21
79.5831
 31
0.0
  0
LINE
  8
0
 62
     0
 10
12.1447
 20
79.5831
 30
0.0
 11
12.1447
 21
78.9838
 31
0.0
  0
LINE
  8
0
 62
     0
 10
12.1447
 20
78.9838
 30
0.0
 11
26.1441
 21
78.9838
 31
0.0
  0
LINE
  8
0
 62
     0
 10
26.1441
 20
78.9838
 30
0.0
 11
26.1441
 21
79.5831
 31
0.0
  0
LINE
  8
0
 62
     0
 10
26.1441
 20
79.5831
 30
0.0
 11
26.9448
 21
79.5831
 31
0.0
  0
LINE
  8
0
 62
     0
 10
26.9448
 20
79.5831
 30
0.0
 11
26.9448
 21
92.3837
 31
0.0
  0
LINE
  8
0
 62
     0
 10
26.9448
 20
92.3837
 30
0.0
 11
26.1441
 21
92.3837
 31
0.0
  0
LINE
  8
0
 62
     0
 10
26.1441
 20
92.3837
 30
0.0
 11
26.1441
 21
92.9831
 31
0.0
  0
LINE
  8
0
 62
     0
 10
26.1441
 20
92.9831
 30
0.0
 11
12.1447
 21
92.9831
 31
0.0
  0
LINE
  8
0
 62
     0
 10
31.1947
 20
92.9831
 30
0.0
 11
31.1947
 21
92.3837
 31
0.0
  0
LINE
  8
0
 62
     0
 10
31.1947
 20
92.3837
 30
0.0
 11
30.394
 21
92.3837
 31
0.0
  0
LINE
  8
0
 62
     0
 10
30.394
 20
92.3837
 30
0.0
 11
30.394
 21
79.5831
 31
0.0
  0
LINE
  8
0
 62
     0
 10
30.394
 20
79.5831
 30
0.0
 11
31.1947
 21
79.5831
 31
0.0
  0
LINE
  8
0
 62
     0
 10
31.1947
 20
79.5831
 30
0.0
 11
31.1947
 21
78.9838
 31
0.0
  0
LINE
  8
0
 62
     0
 10
31.1947
 20
78.9838
 30
0.0
 11
45.194
 21
78.9838
 31
0.0
  0
LINE
  8
0
 62
     0
 10
45.194
 20
78.9838
 30
0.0
 11
45.194
 21
79.5831
 31
0.0
  0
LINE
  8
0
 62
     0
 10
45.194
 20
79.5831
 30
0.0
 11
45.9948
 21
79.5831
 31
0.0
  0
LINE
  8
0
 62
     0
 10
45.9948
 20
79.5831
 30
0.0
 11
45.9948
 21
92.3837
 31
0.0
  0
LINE
  8
0
 62
     0
 10
45.9948
 20
92.3837
 30
0.0
 11
45.194
 21
92.3837
 31
0.0
  0
LINE
  8
0
 62
     0
 10
45.194
 20
92.3837
 30
0.0
 11
45.194
 21
92.9831
 31
0.0
  0
LINE
  8
0
 62
     0
 10
45.194
 20
92.9831
 30
0.0
 11
31.1947
 21
92.9831
 31
0.0
  0
LINE
  8
0
 62
     0
 10
50.2447
 20
92.9831
 30
0.0
 11
50.2447
 21
92.3837
 31
0.0
  0
LINE
  8
0
 62
     0
 10
50.2447
 20
92.3837
 30
0.0
 11
49.4439
 21
92.3837
 31
0.0
  0
LINE
  8
0
 62
     0
 10
49.4439
 20
92.3837
 30
0.0
 11
49.4439
 21
79.5831
 31
0.0
  0
LINE
  8
0
 62
     0
 10
49.4439
 20
79.5831
 30
0.0
 11
50.2447
 21
79.5831
 31
0.0
  0
LINE
  8
0
 62
     0
 10
50.2447
 20
79.5831
 30
0.0
 11
50.2447
 21
78.9838
 31
0.0
  0
LINE
  8
0
 62
     0
 10
50.2447
 20
78.9838
 30
0.0
 11
64.244
 21
78.9838
 31
0.0
  0
LINE
  8
0
 62
     0
 10
64.244
 20
78.9838
 30
0.0
 11
64.244
 21
79.5831
 31
0.0
  0
LINE
  8
0
 62
     0
 10
64.244
 20
79.5831
 30
0.0
 11
65.0448
 21
79.5831
 31
0.0
  0
LINE
  8
0
 62
     0
 10
65.0448
 20
79.5831
 30
0.0
 11
65.0448
 21
92.3837
 31
0.0
  0
LINE
  8
0
 62
     0
 10
65.0448
 20
92.3837
 30
0.0
 11
64.244
 21
92.3837
 31
0.0
  0
LINE
  8
0
 62
     0
 10
64.244
 20
92.3837
 30
0.0
 11
64.244
 21
92.9831
 31
0.0
  0
LINE
  8
0
 62
     0
 10
64.244
 20
92.9831
 30
0.0
 11
50.2447
 21
92.9831
 31
0.0
  0
LINE
  8
0
 62
     0
 10
69.2947
 20
92.9831
 30
0.0
 11
69.2947
 21
92.3837
 31
0.0
  0
LINE
  8
0
 62
     0
 10
69.2947
 20
92.3837
 30
0.0
 11
68.4939
 21
92.3837
 31
0.0
  0
LINE
  8
0
 62
     0
 10
68.4939
 20
92.3837
 30
0.0
 11
68.4939
 21
79.5831
 31
0.0
  0
LINE
  8
0
 62
     0
 10
68.4939
 20
79.5831
 30
0.0
 11
69.2947
 21
79.5831
 31
0.0
  0
LINE
  8
0
 62
     0
 10
69.2947
 20
79.5831
 30
0.0
 11
69.2947
 21
78.9838
 31
0.0
  0
LINE
  8
0
 62
     0
 10
69.2947
 20
78.9838
 30
0.0
 11
83.294
 21
78.9838
 31
0.0
  0
LINE
  8
0
 62
     0
 10
83.294
 20
78.9838
 30
0.0
 11
83.294
 21
79.5831
 31
0.0
  0
LINE
  8
0
 62
     0
 10
83.294
 20
79.5831
 30
0.0
 11
84.0948
 21
79.5831
 31
0.0
  0
LINE
  8
0
 62
     0
 10
84.0948
 20
79.5831
 30
0.0
 11
84.0948
 21
92.3837
 31
0.0
  0
LINE
  8
0
 62
     0
 10
84.0948
 20
92.3837
 30
0.0
 11
83.294
 21
92.3837
 31
0.0
  0
LINE
  8
0
 62
     0
 10
83.294
 20
92.3837
 30
0.0
 11
83.294
 21
92.9831
 31
0.0
  0
LINE
  8
0
 62
     0
 10
83.294
 20
92.9831
 30
0.0
 11
69.2947
 21
92.9831
 31
0.0
  0
LINE
  8
0
 62
     0
 10
88.3447
 20
92.9831
 30
0.0
 11
88.3447
 21
92.3837
 31
0.0
  0
LINE
  8
0
 62
     0
 10
88.3447
 20
92.3837
 30
0.0
 11
87.5439
 21
92.3837
 31
0.0
  0
LINE
  8
0
 62
     0
 10
87.5439
 20
92.3837
 30
0.0
 11
87.5439
 21
79.5831
 31
0.0
  0
LINE
  8
0
 62
     0
 10
87.5439
 20
79.5831
 30
0.0
 11
88.3447
 21
79.5831
 31
0.0
  0
LINE
  8
0
 62
     0
 10
88.3447
 20
79.5831
 30
0.0
 11
88.3447
 21
78.9838
 31
0.0
  0
LINE
  8
0
 62
     0
 10
88.3447
 20
78.9838
 30
0.0
 11
102.344
 21
78.9838
 31
0.0
  0
LINE
  8
0
 62
     0
 10
102.344
 20
78.9838
 30
0.0
 11
102.344
 21
79.5831
 31
0.0
  0
LINE
  8
0
 62
     0
 10
102.344
 20
79.5831
 30
0.0
 11
103.145
 21
79.5831
 31
0.0
  0
LINE
  8
0
 62
     0
 10
103.145
 20
79.5831
 30
0.0
 11
103.145
 21
92.3837
 31
0.0
  0
LINE
  8
0
 62
     0
 10
103.145
 20
92.3837
 30
0.0
 11
102.344
 21
92.3837
 31
0.0
  0
LINE
  8
0
 62
     0
 10
102.344
 20
92.3837
 30
0.0
 11
102.344
 21
92.9831
 31
0.0
  0
LINE
  8
0
 62
     0
 10
102.344
 20
92.9831
 30
0.0
 11
88.3447
 21
92.9831
 31
0.0
  0
LINE
  8
0
 62
     0
 10
107.395
 20
92.9831
 30
0.0
 11
107.395
 21
92.3837
 31
0.0
  0
LINE
  8
0
 62
     0
 10
107.395
 20
92.3837
 30
0.0
 11
106.594
 21
92.3837
 31
0.0
  0
LINE
  8
0
 62
     0
 10
106.594
 20
92.3837
 30
0.0
 11
106.594
 21
79.5831
 31
0.0
  0
LINE
  8
0
 62
     0
 10
106.594
 20
79.5831
 30
0.0
 11
107.395
 21
79.5831
 31
0.0
  0
LINE
  8
0
 62
     0
 10
107.395
 20
79.5831
 30
0.0
 11
107.395
 21
78.9838
 31
0.0
  0
LINE
  8
0
 62
     0
 10
107.395
 20
78.9838
 30
0.0
 11
121.394
 21
78.9838
 31
0.0
  0
LINE
  8
0
 62
     0
 10
121.394
 20
78.9838
 30
0.0
 11
121.394
 21
79.5831
 31
0.0
  0
LINE
  8
0
 62
     0
 10
121.394
 20
79.5831
 30
0.0
 11
122.195
 21
79.5831
 31
0.0
  0
LINE
  8
0
 62
     0
 10
122.195
 20
79.5831
 30
0.0
 11
122.195
 21
92.3837
 31
0.0
  0
LINE
  8
0
 62
     0
 10
122.195
 20
92.3837
 30
0.0
 11
121.394
 21
92.3837
 31
0.0
  0
LINE
  8
0
 62
     0
 10
121.394
 20
92.3837
 30
0.0
 11
121.394
 21
92.9831
 31
0.0
  0
LINE
  8
0
 62
     0
 10
121.394
 20
92.9831
 30
0.0
 11
107.395
 21
92.9831
 31
0.0
  0
LINE
  8
0
 62
     0
 10
126.445
 20
92.9831
 30
0.0
 11
126.445
 21
92.3837
 31
0.0
  0
LINE
  8
0
 62
     0
 10
126.445
 20
92.3837
 30
0.0
 11
125.644
 21
92.3837
 31
0.0
  0
LINE
  8
0
 62
     0
 10
125.644
 20
92.3837
 30
0.0
 11
125.644
 21
79.5831
 31
0.0
  0
LINE
  8
0
 62
     0
 10
125.644
 20
79.5831
 30
0.0
 11
126.445
 21
79.5831
 31
0.0
  0
LINE
  8
0
 62
     0
 10
126.445
 20
79.5831
 30
0.0
 11
126.445
 21
78.9838
 31
0.0
  0
LINE
  8
0
 62
     0
 10
126.445
 20
78.9838
 30
0.0
 11
140.444
 21
78.9838
 31
0.0
  0
LINE
  8
0
 62
     0
 10
140.444
 20
78.9838
 30
0.0
 11
140.444
 21
79.5831
 31
0.0
  0
LINE
  8
0
 62
     0
 10
140.444
 20
79.5831
 30
0.0
 11
141.245
 21
79.5831
 31
0.0
  0
LINE
  8
0
 62
     0
 10
141.245
 20
79.5831
 30
0.0
 11
141.245
 21
92.3837
 31
0.0
  0
LINE
  8
0
 62
     0
 10
141.245
 20
92.3837
 30
0.0
 11
140.444
 21
92.3837
 31
0.0
  0
LINE
  8
0
 62
     0
 10
140.444
 20
92.3837
 30
0.0
 11
140.444
 21
92.9831
 31
0.0
  0
LINE
  8
0
 62
     0
 10
140.444
 20
92.9831
 30
0.0
 11
126.445
 21
92.9831
 31
0.0
  0
LINE
  8
0
 62
     0
 10
174.07
 20
92.9831
 30
0.0
 11
174.07
 21
92.3837
 31
0.0
  0
LINE
  8
0
 62
     0
 10
174.07
 20
92.3837
 30
0.0
 11
173.269
 21
92.3837
 31
0.0
  0
LINE
  8
0
 62
     0
 10
173.269
 20
92.3837
 30
0.0
 11
173.269
 21
79.5831
 31
0.0
  0
LINE
  8
0
 62
     0
 10
173.269
 20
79.5831
 30
0.0
 11
174.07
 21
79.5831
 31
0.0
  0
LINE
  8
0
 62
     0
 10
174.07
 20
79.5831
 30
0.0
 11
174.07
 21
78.9838
 31
0.0
  0
LINE
  8
0
 62
     0
 10
174.07
 20
78.9838
 30
0.0
 11
188.069
 21
78.9838
 31
0.0
  0
LINE
  8
0
 62
     0
 10
188.069
 20
78.9838
 30
0.0
 11
188.069
 21
79.5831
 31
0.0
  0
LINE
  8
0
 62
     0
 10
188.069
 20
79.5831
 30
0.0
 11
188.87
 21
79.5831
 31
0.0
  0
LINE
  8
0
 62
     0
 10
188.87
 20
79.5831
 30
0.0
 11
188.87
 21
92.3837
 31
0.0
  0
LINE
  8
0
 62
     0
 10
188.87
 20
92.3837
 30
0.0
 11
188.069
 21
92.3837
 31
0.0
  0
LINE
  8
0
 62
     0
 10
188.069
 20
92.3837
 30
0.0
 11
188.069
 21
92.9831
 31
0.0
  0
LINE
  8
0
 62
     0
 10
188.069
 20
92.9831
 30
0.0
 11
174.07
 21
92.9831
 31
0.0
  0
LINE
  8
0
 62
     0
 10
193.12
 20
92.9831
 30
0.0
 11
193.12
 21
92.3837
 31
0.0
  0
LINE
  8
0
 62
     0
 10
193.12
 20
92.3837
 30
0.0
 11
192.319
 21
92.3837
 31
0.0
  0
LINE
  8
0
 62
     0
 10
192.319
 20
92.3837
 30
0.0
 11
192.319
 21
79.5831
 31
0.0
  0
LINE
  8
0
 62
     0
 10
192.319
 20
79.5831
 30
0.0
 11
193.12
 21
79.5831
 31
0.0
  0
LINE
  8
0
 62
     0
 10
193.12
 20
79.5831
 30
0.0
 11
193.12
 21
78.9838
 31
0.0
  0
LINE
  8
0
 62
     0
 10
193.12
 20
78.9838
 30
0.0
 11
207.119
 21
78.9838
 31
0.0
  0
LINE
  8
0
 62
     0
 10
207.119
 20
78.9838
 30
0.0
 11
207.119
 21
79.5831
 31
0.0
  0
LINE
  8
0
 62
     0
 10
207.119
 20
79.5831
 30
0.0
 11
207.92
 21
79.5831
 31
0.0
  0
LINE
  8
0
 62
     0
 10
207.92
 20
79.5831
 30
0.0
 11
207.92
 21
92.3837
 31
0.0
  0
LINE
  8
0
 62
     0
 10
207.92
 20
92.3837
 30
0.0
 11
207.119
 21
92.3837
 31
0.0
  0
LINE
  8
0
 62
     0
 10
207.119
 20
92.3837
 30
0.0
 11
207.119
 21
92.9831
 31
0.0
  0
LINE
  8
0
 62
     0
 10
207.119
 20
92.9831
 30
0.0
 11
193.12
 21
92.9831
 31
0.0
  0
LINE
  8
0
 62
     0
 10
212.17
 20
92.9831
 30
0.0
 11
212.17
 21
92.3837
 31
0.0
  0
LINE
  8
0
 62
     0
 10
212.17
 20
92.3837
 30
0.0
 11
211.369
 21
92.3837
 31
0.0
  0
LINE
  8
0
 62
     0
 10
211.369
 20
92.3837
 30
0.0
 11
211.369
 21
79.5831
 31
0.0
  0
LINE
  8
0
 62
     0
 10
211.369
 20
79.5831
 30
0.0
 11
212.17
 21
79.5831
 31
0.0
  0
LINE
  8
0
 62
     0
 10
212.17
 20
79.5831
 30
0.0
 11
212.17
 21
78.9838
 31
0.0
  0
LINE
  8
0
 62
     0
 10
212.17
 20
78.9838
 30
0.0
 11
226.169
 21
78.9838
 31
0.0
  0
LINE
  8
0
 62
     0
 10
226.169
 20
78.9838
 30
0.0
 11
226.169
 21
79.5831
 31
0.0
  0
LINE
  8
0
 62
     0
 10
226.169
 20
79.5831
 30
0.0
 11
226.97
 21
79.5831
 31
0.0
  0
LINE
  8
0
 62
     0
 10
226.97
 20
79.5831
 30
0.0
 11
226.97
 21
92.3837
 31
0.0
  0
LINE
  8
0
 62
     0
 10
226.97
 20
92.3837
 30
0.0
 11
226.169
 21
92.3837
 31
0.0
  0
LINE
  8
0
 62
     0
 10
226.169
 20
92.3837
 30
0.0
 11
226.169
 21
92.9831
 31
0.0
  0
LINE
  8
0
 62
     0
 10
226.169
 20
92.9831
 30
0.0
 11
212.17
 21
92.9831
 31
0.0
  0
LINE
  8
0
 62
     0
 10
231.22
 20
92.9831
 30
0.0
 11
231.22
 21
92.3837
 31
0.0
  0
LINE
  8
0
 62
     0
 10
231.22
 20
92.3837
 30
0.0
 11
230.419
 21
92.3837
 31
0.0
  0
LINE
  8
0
 62
     0
 10
230.419
 20
92.3837
 30
0.0
 11
230.419
 21
79.5831
 31
0.0
  0
LINE
  8
0
 62
     0
 10
230.419
 20
79.5831
 30
0.0
 11
231.22
 21
79.5831
 31
0.0
  0
LINE
  8
0
 62
     0
 10
231.22
 20
79.5831
 30
0.0
 11
231.22
 21
78.9838
 31
0.0
  0
LINE
  8
0
 62
     0
 10
231.22
 20
78.9838
 30
0.0
 11
245.219
 21
78.9838
 31
0.0
  0
LINE
  8
0
 62
     0
 10
245.219
 20
78.9838
 30
0.0
 11
245.219
 21
79.5831
 31
0.0
  0
LINE
  8
0
 62
     0
 10
245.219
 20
79.5831
 30
0.0
 11
246.02
 21
79.5831
 31
0.0
  0
LINE
  8
0
 62
     0
 10
246.02
 20
79.5831
 30
0.0
 11
246.02
 21
92.3837
 31
0.0
  0
LINE
  8
0
 62
     0
 10
246.02
 20
92.3837
 30
0.0
 11
245.219
 21
92.3837
 31
0.0
  0
LINE
  8
0
 62
     0
 10
245.219
 20
92.3837
 30
0.0
 11
245.219
 21
92.9831
 31
0.0
  0
LINE
  8
0
 62
     0
 10
245.219
 20
92.9831
 30
0.0
 11
231.22
 21
92.9831
 31
0.0
  0
LINE
  8
0
 62
     0
 10
250.27
 20
92.9831
 30
0.0
 11
250.27
 21
92.3837
 31
0.0
  0
LINE
  8
0
 62
     0
 10
250.27
 20
92.3837
 30
0.0
 11
249.469
 21
92.3837
 31
0.0
  0
LINE
  8
0
 62
     0
 10
249.469
 20
92.3837
 30
0.0
 11
249.469
 21
79.5831
 31
0.0
  0
LINE
  8
0
 62
     0
 10
249.469
 20
79.5831
 30
0.0
 11
250.27
 21
79.5831
 31
0.0
  0
LINE
  8
0
 62
     0
 10
250.27
 20
79.5831
 30
0.0
 11
250.27
 21
78.9838
 31
0.0
  0
LINE
  8
0
 62
     0
 10
250.27
 20
78.9838
 30
0.0
 11
264.269
 21
78.9838
 31
0.0
  0
LINE
  8
0
 62
     0
 10
264.269
 20
78.9838
 30
0.0
 11
264.269
 21
79.5831
 31
0.0
  0
LINE
  8
0
 62
     0
 10
264.269
 20
79.5831
 30
0.0
 11
265.07
 21
79.5831
 31
0.0
  0
LINE
  8
0
 62
     0
 10
265.07
 20
79.5831
 30
0.0
 11
265.07
 21
92.3837
 31
0.0
  0
LINE
  8
0
 62
     0
 10
265.07
 20
92.3837
 30
0.0
 11
264.269
 21
92.3837
 31
0.0
  0
LINE
  8
0
 62
     0
 10
264.269
 20
92.3837
 30
0.0
 11
264.269
 21
92.9831
 31
0.0
  0
LINE
  8
0
 62
     0
 10
264.269
 20
92.9831
 30
0.0
 11
250.27
 21
92.9831
 31
0.0
  0
ENDSEC
  0
EOF
