G04 #@! TF.GenerationSoftware,KiCad,Pcbnew,8.0.6-8.0.6-0~ubuntu22.04.1*
G04 #@! TF.CreationDate,2024-10-20T22:38:44+08:00*
G04 #@! TF.ProjectId,MacroPad,4d616372-6f50-4616-942e-6b696361645f,rev?*
G04 #@! TF.SameCoordinates,Original*
G04 #@! TF.FileFunction,Legend,Bot*
G04 #@! TF.FilePolarity,Positive*
%FSLAX46Y46*%
G04 Gerber Fmt 4.6, Leading zero omitted, Abs format (unit mm)*
G04 Created by KiCad (PCBNEW 8.0.6-8.0.6-0~ubuntu22.04.1) date 2024-10-20 22:38:44*
%MOMM*%
%LPD*%
G01*
G04 APERTURE LIST*
G04 Aperture macros list*
%AMRoundRect*
0 Rectangle with rounded corners*
0 $1 Rounding radius*
0 $2 $3 $4 $5 $6 $7 $8 $9 X,Y pos of 4 corners*
0 Add a 4 corners polygon primitive as box body*
4,1,4,$2,$3,$4,$5,$6,$7,$8,$9,$2,$3,0*
0 Add four circle primitives for the rounded corners*
1,1,$1+$1,$2,$3*
1,1,$1+$1,$4,$5*
1,1,$1+$1,$6,$7*
1,1,$1+$1,$8,$9*
0 Add four rect primitives between the rounded corners*
20,1,$1+$1,$2,$3,$4,$5,0*
20,1,$1+$1,$4,$5,$6,$7,0*
20,1,$1+$1,$6,$7,$8,$9,0*
20,1,$1+$1,$8,$9,$2,$3,0*%
%AMRotRect*
0 Rectangle, with rotation*
0 The origin of the aperture is its center*
0 $1 length*
0 $2 width*
0 $3 Rotation angle, in degrees counterclockwise*
0 Add horizontal line*
21,1,$1,$2,0,0,$3*%
G04 Aperture macros list end*
%ADD10C,0.000000*%
%ADD11C,0.300000*%
%ADD12C,0.150000*%
%ADD13C,0.100000*%
%ADD14C,0.120000*%
%ADD15C,1.750000*%
%ADD16C,4.000000*%
%ADD17C,2.500000*%
%ADD18RoundRect,0.082000X-0.718000X0.328000X-0.718000X-0.328000X0.718000X-0.328000X0.718000X0.328000X0*%
%ADD19R,2.000000X2.000000*%
%ADD20C,2.000000*%
%ADD21R,3.200000X2.000000*%
%ADD22R,1.524000X1.524000*%
%ADD23C,1.524000*%
%ADD24C,6.400000*%
%ADD25R,1.295400X1.295400*%
%ADD26C,1.295400*%
%ADD27RotRect,1.800000X1.800000X45.000000*%
%ADD28C,1.800000*%
%ADD29O,1.600000X2.000000*%
%ADD30R,1.600000X1.600000*%
%ADD31O,1.600000X1.600000*%
%ADD32C,1.400000*%
%ADD33O,1.400000X1.400000*%
%ADD34RoundRect,0.500000X0.875000X0.500000X-0.875000X0.500000X-0.875000X-0.500000X0.875000X-0.500000X0*%
%ADD35C,1.600000*%
%ADD36R,1.700000X1.700000*%
%ADD37O,1.700000X1.700000*%
G04 APERTURE END LIST*
D10*
G36*
X65051998Y-30319089D02*
G01*
X65053802Y-30319297D01*
X65055585Y-30319641D01*
X65057341Y-30320118D01*
X65059061Y-30320723D01*
X65060739Y-30321454D01*
X65062367Y-30322305D01*
X65063940Y-30323274D01*
X65065450Y-30324357D01*
X65066890Y-30325549D01*
X65068252Y-30326847D01*
X65069530Y-30328247D01*
X65070717Y-30329746D01*
X65071806Y-30331340D01*
X65072789Y-30333024D01*
X65073660Y-30334795D01*
X65074412Y-30336650D01*
X65075037Y-30338584D01*
X65075530Y-30340594D01*
X65075881Y-30342675D01*
X65076085Y-30344825D01*
X65076135Y-30347039D01*
X65072662Y-30763571D01*
X65072647Y-31128271D01*
X65076445Y-31587480D01*
X65076530Y-31589293D01*
X65076730Y-31591062D01*
X65077042Y-31592782D01*
X65077460Y-31594452D01*
X65077981Y-31596069D01*
X65078600Y-31597631D01*
X65079313Y-31599135D01*
X65080115Y-31600577D01*
X65081003Y-31601957D01*
X65081971Y-31603271D01*
X65083016Y-31604517D01*
X65084132Y-31605692D01*
X65085317Y-31606793D01*
X65086565Y-31607818D01*
X65087871Y-31608765D01*
X65089233Y-31609631D01*
X65090644Y-31610413D01*
X65092102Y-31611109D01*
X65093601Y-31611716D01*
X65095138Y-31612232D01*
X65096707Y-31612654D01*
X65098305Y-31612980D01*
X65099927Y-31613207D01*
X65101569Y-31613332D01*
X65103226Y-31613353D01*
X65104894Y-31613267D01*
X65106569Y-31613073D01*
X65108246Y-31612766D01*
X65109922Y-31612345D01*
X65111591Y-31611808D01*
X65113249Y-31611151D01*
X65114893Y-31610372D01*
X66221285Y-31041983D01*
X66223151Y-31041160D01*
X66225068Y-31040571D01*
X66227025Y-31040204D01*
X66229014Y-31040050D01*
X66231025Y-31040100D01*
X66233049Y-31040343D01*
X66235076Y-31040770D01*
X66237097Y-31041370D01*
X66239102Y-31042133D01*
X66241081Y-31043051D01*
X66243026Y-31044112D01*
X66244927Y-31045307D01*
X66246775Y-31046626D01*
X66248559Y-31048060D01*
X66250270Y-31049597D01*
X66251900Y-31051229D01*
X66253439Y-31052945D01*
X66254876Y-31054736D01*
X66256203Y-31056591D01*
X66257410Y-31058501D01*
X66258489Y-31060456D01*
X66259428Y-31062446D01*
X66260219Y-31064461D01*
X66260853Y-31066491D01*
X66261319Y-31068525D01*
X66261609Y-31070556D01*
X66261713Y-31072571D01*
X66261622Y-31074562D01*
X66261325Y-31076519D01*
X66260814Y-31078431D01*
X66260080Y-31080289D01*
X66259112Y-31082083D01*
X66071216Y-31410062D01*
X65945035Y-31655260D01*
X65806445Y-31949505D01*
X65662255Y-32288976D01*
X65519277Y-32669853D01*
X65384318Y-33088318D01*
X65264190Y-33540549D01*
X65211815Y-33778133D01*
X65165702Y-34022727D01*
X65126701Y-34273852D01*
X65095664Y-34531032D01*
X65073442Y-34793788D01*
X65060886Y-35061644D01*
X65058848Y-35334122D01*
X65068178Y-35610744D01*
X65089728Y-35891033D01*
X65124349Y-36174511D01*
X65172893Y-36460701D01*
X65236210Y-36749126D01*
X65315152Y-37039308D01*
X65410570Y-37330769D01*
X65523315Y-37623032D01*
X65654239Y-37915620D01*
X65778744Y-38182388D01*
X65892603Y-38440666D01*
X65996220Y-38690527D01*
X66089996Y-38932049D01*
X66174332Y-39165304D01*
X66249632Y-39390368D01*
X66316296Y-39607317D01*
X66374726Y-39816224D01*
X66425324Y-40017165D01*
X66468493Y-40210215D01*
X66504633Y-40395449D01*
X66534147Y-40572941D01*
X66574903Y-40905001D01*
X66593975Y-41206995D01*
X66596281Y-41385535D01*
X66591808Y-41552056D01*
X66581409Y-41706717D01*
X66565938Y-41849677D01*
X66546249Y-41981095D01*
X66523196Y-42101131D01*
X66497632Y-42209943D01*
X66470411Y-42307691D01*
X66442386Y-42394534D01*
X66414413Y-42470631D01*
X66362032Y-42591226D01*
X66320098Y-42670747D01*
X66295440Y-42710469D01*
X66294939Y-42711178D01*
X66294421Y-42711856D01*
X66293884Y-42712503D01*
X66293328Y-42713122D01*
X66292755Y-42713712D01*
X66292162Y-42714275D01*
X66291550Y-42714813D01*
X66290920Y-42715326D01*
X66290270Y-42715816D01*
X66289600Y-42716284D01*
X66288910Y-42716730D01*
X66288201Y-42717157D01*
X66287471Y-42717564D01*
X66286720Y-42717954D01*
X66285949Y-42718328D01*
X66285157Y-42718686D01*
X64747008Y-43390531D01*
X64387548Y-43492893D01*
X63533335Y-43736143D01*
X63531580Y-43736581D01*
X63529833Y-43736896D01*
X63528099Y-43737091D01*
X63526381Y-43737170D01*
X63524684Y-43737136D01*
X63523010Y-43736992D01*
X63521363Y-43736742D01*
X63519747Y-43736390D01*
X63518166Y-43735938D01*
X63516624Y-43735390D01*
X63515123Y-43734749D01*
X63513669Y-43734019D01*
X63512264Y-43733204D01*
X63510912Y-43732306D01*
X63509617Y-43731330D01*
X63508383Y-43730278D01*
X63507213Y-43729154D01*
X63506111Y-43727961D01*
X63505081Y-43726703D01*
X63504127Y-43725383D01*
X63503251Y-43724005D01*
X63502458Y-43722571D01*
X63501752Y-43721087D01*
X63501136Y-43719554D01*
X63500614Y-43717976D01*
X63500190Y-43716357D01*
X63499867Y-43714699D01*
X63499649Y-43713008D01*
X63499539Y-43711285D01*
X63499543Y-43709534D01*
X63499662Y-43707760D01*
X63499901Y-43705964D01*
X63524374Y-43540585D01*
X63542228Y-43378284D01*
X63553484Y-43217672D01*
X63558167Y-43057363D01*
X63556298Y-42895968D01*
X63547900Y-42732099D01*
X63532997Y-42564369D01*
X63511612Y-42391391D01*
X63483766Y-42211777D01*
X63449484Y-42024138D01*
X63408788Y-41827088D01*
X63361701Y-41619238D01*
X63264072Y-41228183D01*
X63910920Y-41228183D01*
X63912269Y-41246523D01*
X63915908Y-41263956D01*
X63921875Y-41280325D01*
X63930212Y-41295474D01*
X63940959Y-41309247D01*
X63954156Y-41321486D01*
X63969845Y-41332035D01*
X63988066Y-41340739D01*
X64008858Y-41347440D01*
X64032263Y-41351981D01*
X64058322Y-41354207D01*
X64087074Y-41353961D01*
X64118560Y-41351087D01*
X64152822Y-41345427D01*
X64189898Y-41336826D01*
X64229830Y-41325127D01*
X64360325Y-41297955D01*
X64481528Y-41274419D01*
X64605621Y-41251592D01*
X64778737Y-41703192D01*
X64670956Y-41757716D01*
X64562795Y-41813192D01*
X64442065Y-41876205D01*
X64415190Y-41890710D01*
X64389472Y-41907104D01*
X64365029Y-41925177D01*
X64341979Y-41944716D01*
X64320439Y-41965510D01*
X64300527Y-41987347D01*
X64282359Y-42010016D01*
X64266054Y-42033304D01*
X64251729Y-42057001D01*
X64239500Y-42080894D01*
X64229486Y-42104773D01*
X64221804Y-42128425D01*
X64216571Y-42151638D01*
X64213905Y-42174202D01*
X64213922Y-42195904D01*
X64216741Y-42216533D01*
X64222479Y-42235878D01*
X64231253Y-42253726D01*
X64243181Y-42269866D01*
X64258380Y-42284086D01*
X64276967Y-42296175D01*
X64299060Y-42305922D01*
X64324776Y-42313113D01*
X64354233Y-42317539D01*
X64387548Y-42318987D01*
X64424838Y-42317245D01*
X64466221Y-42312102D01*
X64511814Y-42303347D01*
X64561735Y-42290767D01*
X64616101Y-42274152D01*
X64675029Y-42253288D01*
X64738636Y-42227966D01*
X64899368Y-42178173D01*
X65050241Y-42134858D01*
X65190753Y-42097527D01*
X65320401Y-42065689D01*
X65438681Y-42038853D01*
X65545090Y-42016526D01*
X65720282Y-41983433D01*
X65731126Y-41981311D01*
X65741722Y-41978829D01*
X65752063Y-41975996D01*
X65762140Y-41972825D01*
X65771948Y-41969325D01*
X65781478Y-41965507D01*
X65790724Y-41961381D01*
X65799678Y-41956959D01*
X65808333Y-41952249D01*
X65816682Y-41947263D01*
X65824717Y-41942012D01*
X65832432Y-41936506D01*
X65839819Y-41930755D01*
X65846871Y-41924769D01*
X65853581Y-41918561D01*
X65859941Y-41912139D01*
X65865944Y-41905514D01*
X65871584Y-41898698D01*
X65876852Y-41891699D01*
X65881742Y-41884530D01*
X65886246Y-41877200D01*
X65890358Y-41869720D01*
X65894070Y-41862100D01*
X65897374Y-41854352D01*
X65900264Y-41846484D01*
X65902732Y-41838509D01*
X65904771Y-41830436D01*
X65906374Y-41822276D01*
X65907534Y-41814039D01*
X65908243Y-41805737D01*
X65908494Y-41797378D01*
X65908281Y-41788975D01*
X65907311Y-41778122D01*
X65905545Y-41767234D01*
X65902968Y-41756334D01*
X65899564Y-41745444D01*
X65895318Y-41734587D01*
X65890215Y-41723786D01*
X65884238Y-41713061D01*
X65877374Y-41702436D01*
X65869606Y-41691934D01*
X65860920Y-41681576D01*
X65851299Y-41671384D01*
X65840729Y-41661382D01*
X65829195Y-41651592D01*
X65816680Y-41642035D01*
X65803170Y-41632734D01*
X65788649Y-41623713D01*
X65773102Y-41614992D01*
X65756514Y-41606594D01*
X65738869Y-41598543D01*
X65720152Y-41590859D01*
X65700347Y-41583566D01*
X65679440Y-41576685D01*
X65657415Y-41570240D01*
X65634257Y-41564252D01*
X65609949Y-41558744D01*
X65584478Y-41553738D01*
X65557828Y-41549257D01*
X65529982Y-41545323D01*
X65500927Y-41541958D01*
X65470646Y-41539184D01*
X65439125Y-41537025D01*
X65406347Y-41535502D01*
X65389118Y-41536365D01*
X65371838Y-41538100D01*
X65354604Y-41540553D01*
X65337513Y-41543573D01*
X65304150Y-41550704D01*
X65272524Y-41558276D01*
X65243412Y-41565072D01*
X65230041Y-41567798D01*
X65217589Y-41569874D01*
X65206155Y-41571147D01*
X65195833Y-41571465D01*
X65186723Y-41570675D01*
X65182652Y-41569818D01*
X65178920Y-41568627D01*
X65177167Y-41567154D01*
X65174742Y-41563659D01*
X65168069Y-41551145D01*
X65148762Y-41507819D01*
X65124051Y-41447333D01*
X65096989Y-41378370D01*
X65026267Y-41191441D01*
X65076691Y-41169446D01*
X65198191Y-41114934D01*
X65271640Y-41080862D01*
X65346113Y-41045113D01*
X65416027Y-41009839D01*
X65447530Y-40993052D01*
X65475801Y-40977190D01*
X65509950Y-40962348D01*
X65540694Y-40946536D01*
X65568141Y-40929868D01*
X65592395Y-40912459D01*
X65613562Y-40894421D01*
X65631749Y-40875869D01*
X65647061Y-40856916D01*
X65659605Y-40837676D01*
X65669486Y-40818263D01*
X65676810Y-40798790D01*
X65681683Y-40779371D01*
X65684211Y-40760120D01*
X65684499Y-40741151D01*
X65682655Y-40722576D01*
X65678783Y-40704511D01*
X65672990Y-40687069D01*
X65665381Y-40670363D01*
X65656063Y-40654507D01*
X65645141Y-40639615D01*
X65632721Y-40625801D01*
X65618910Y-40613178D01*
X65603813Y-40601860D01*
X65587535Y-40591962D01*
X65570184Y-40583595D01*
X65551865Y-40576875D01*
X65532683Y-40571915D01*
X65512745Y-40568829D01*
X65492156Y-40567730D01*
X65471024Y-40568732D01*
X65449452Y-40571949D01*
X65427548Y-40577495D01*
X65405417Y-40585483D01*
X65252818Y-40617373D01*
X65079398Y-40661173D01*
X64895262Y-40712686D01*
X64710514Y-40767715D01*
X64167508Y-40939053D01*
X64137751Y-40950626D01*
X64109634Y-40963796D01*
X64083198Y-40978406D01*
X64058484Y-40994300D01*
X64035531Y-41011321D01*
X64014381Y-41029312D01*
X63995073Y-41048118D01*
X63977649Y-41067581D01*
X63962149Y-41087545D01*
X63948613Y-41107854D01*
X63937082Y-41128352D01*
X63927596Y-41148880D01*
X63920197Y-41169285D01*
X63915912Y-41185639D01*
X63914924Y-41189407D01*
X63911818Y-41209092D01*
X63910920Y-41228183D01*
X63264072Y-41228183D01*
X63248445Y-41165591D01*
X63165157Y-40856898D01*
X63109898Y-40652093D01*
X62951548Y-40104585D01*
X62889191Y-39897272D01*
X63531216Y-39897272D01*
X63531607Y-39912477D01*
X63533560Y-39927005D01*
X63537060Y-39940766D01*
X63542095Y-39953668D01*
X63548649Y-39965620D01*
X63556710Y-39976530D01*
X63566263Y-39986306D01*
X63577295Y-39994858D01*
X63589791Y-40002094D01*
X63603738Y-40007922D01*
X63619122Y-40012252D01*
X63635929Y-40014991D01*
X63654145Y-40016048D01*
X63673756Y-40015332D01*
X63694749Y-40012752D01*
X63717110Y-40008216D01*
X63740825Y-40001632D01*
X63765879Y-39992909D01*
X63885904Y-39956417D01*
X63987463Y-39923859D01*
X64084051Y-39891520D01*
X64123945Y-40248604D01*
X64075085Y-40274815D01*
X64030615Y-40300793D01*
X63990396Y-40326469D01*
X63954287Y-40351776D01*
X63922149Y-40376647D01*
X63893840Y-40401014D01*
X63869221Y-40424810D01*
X63848151Y-40447965D01*
X63830490Y-40470414D01*
X63816098Y-40492089D01*
X63804834Y-40512921D01*
X63796559Y-40532843D01*
X63791131Y-40551788D01*
X63788411Y-40569687D01*
X63788259Y-40586474D01*
X63790533Y-40602081D01*
X63795095Y-40616440D01*
X63801803Y-40629483D01*
X63810517Y-40641142D01*
X63821098Y-40651351D01*
X63833404Y-40660042D01*
X63847296Y-40667146D01*
X63862632Y-40672596D01*
X63879274Y-40676325D01*
X63897081Y-40678266D01*
X63915912Y-40678349D01*
X63935627Y-40676508D01*
X63956086Y-40672676D01*
X63977148Y-40666784D01*
X63998674Y-40658764D01*
X64020523Y-40648550D01*
X64042555Y-40636074D01*
X64301162Y-40491964D01*
X64623971Y-40314895D01*
X64952152Y-40137830D01*
X65226875Y-39993736D01*
X65265163Y-39973367D01*
X65282890Y-39963070D01*
X65299700Y-39952708D01*
X65315614Y-39942289D01*
X65330655Y-39931820D01*
X65344844Y-39921310D01*
X65358201Y-39910765D01*
X65370749Y-39900194D01*
X65382508Y-39889605D01*
X65393501Y-39879004D01*
X65403747Y-39868400D01*
X65413270Y-39857800D01*
X65422089Y-39847212D01*
X65437705Y-39826104D01*
X65450766Y-39805136D01*
X65461442Y-39784369D01*
X65469905Y-39763866D01*
X65476325Y-39743687D01*
X65480874Y-39723895D01*
X65483722Y-39704551D01*
X65485040Y-39685715D01*
X65484999Y-39667451D01*
X65484773Y-39662689D01*
X65484458Y-39657977D01*
X65484064Y-39653313D01*
X65483604Y-39648692D01*
X65483036Y-39644680D01*
X65482000Y-39640583D01*
X65480512Y-39636408D01*
X65478587Y-39632160D01*
X65476242Y-39627843D01*
X65473491Y-39623463D01*
X65470351Y-39619026D01*
X65466837Y-39614537D01*
X65462965Y-39610000D01*
X65458751Y-39605422D01*
X65449360Y-39596161D01*
X65438788Y-39586795D01*
X65427162Y-39577368D01*
X65414608Y-39567921D01*
X65401252Y-39558496D01*
X65387219Y-39549135D01*
X65372636Y-39539881D01*
X65357628Y-39530776D01*
X65342321Y-39521862D01*
X65326841Y-39513180D01*
X65311315Y-39504774D01*
X65204163Y-39482312D01*
X65088336Y-39468383D01*
X64965872Y-39462084D01*
X64838810Y-39462515D01*
X64709188Y-39468774D01*
X64579045Y-39479960D01*
X64450419Y-39495173D01*
X64325350Y-39513512D01*
X64094035Y-39555960D01*
X63901409Y-39600098D01*
X63896768Y-39601401D01*
X63763781Y-39638717D01*
X63720688Y-39653704D01*
X63697460Y-39664609D01*
X63674535Y-39679680D01*
X63653365Y-39695355D01*
X63633937Y-39711542D01*
X63616237Y-39728151D01*
X63600250Y-39745089D01*
X63585964Y-39762264D01*
X63573364Y-39779587D01*
X63562437Y-39796965D01*
X63553168Y-39814306D01*
X63545543Y-39831520D01*
X63539550Y-39848515D01*
X63535173Y-39865200D01*
X63532400Y-39881483D01*
X63531216Y-39897272D01*
X62889191Y-39897272D01*
X62788719Y-39563237D01*
X62629299Y-39012943D01*
X62553332Y-38729720D01*
X62551413Y-38721979D01*
X63213458Y-38721979D01*
X63216318Y-38752550D01*
X63221873Y-38799902D01*
X63226681Y-38828424D01*
X63233388Y-38859407D01*
X63242399Y-38892270D01*
X63254125Y-38926437D01*
X63261133Y-38943828D01*
X63268972Y-38961327D01*
X63277694Y-38978863D01*
X63287349Y-38996364D01*
X63297989Y-39013756D01*
X63309664Y-39030968D01*
X63322425Y-39047926D01*
X63336324Y-39064560D01*
X63351411Y-39080796D01*
X63367737Y-39096563D01*
X63385354Y-39111788D01*
X63404312Y-39126398D01*
X63424662Y-39140321D01*
X63446456Y-39153486D01*
X63469744Y-39165819D01*
X63494578Y-39177249D01*
X63549147Y-39198964D01*
X63606018Y-39216183D01*
X63664386Y-39229333D01*
X63723448Y-39238841D01*
X63782401Y-39245135D01*
X63840443Y-39248641D01*
X63896768Y-39249786D01*
X63950575Y-39248998D01*
X64047420Y-39243328D01*
X64124551Y-39235049D01*
X64193967Y-39224326D01*
X64230875Y-39216083D01*
X64328208Y-39190173D01*
X64393258Y-39170041D01*
X64465881Y-39144828D01*
X64543567Y-39114314D01*
X64623805Y-39078277D01*
X64704084Y-39036497D01*
X64743455Y-39013384D01*
X64781894Y-38988751D01*
X64819089Y-38962573D01*
X64854724Y-38934820D01*
X64888487Y-38905465D01*
X64920063Y-38874481D01*
X64949139Y-38841839D01*
X64975400Y-38807513D01*
X64998533Y-38771474D01*
X65018224Y-38733695D01*
X65034160Y-38694148D01*
X65046025Y-38652806D01*
X65053507Y-38609641D01*
X65056292Y-38564625D01*
X65057390Y-38556739D01*
X65058364Y-38548943D01*
X65059216Y-38541236D01*
X65059947Y-38533618D01*
X65060556Y-38526087D01*
X65061045Y-38518642D01*
X65061415Y-38511283D01*
X65061666Y-38504008D01*
X65061591Y-38477489D01*
X65059974Y-38452168D01*
X65056892Y-38428029D01*
X65052423Y-38405058D01*
X65046644Y-38383241D01*
X65039632Y-38362561D01*
X65031465Y-38343005D01*
X65022219Y-38324558D01*
X65011972Y-38307204D01*
X65000801Y-38290930D01*
X64988784Y-38275720D01*
X64975997Y-38261560D01*
X64962518Y-38248434D01*
X64948424Y-38236328D01*
X64933793Y-38225227D01*
X64918701Y-38215117D01*
X64903226Y-38205982D01*
X64887445Y-38197808D01*
X64871436Y-38190580D01*
X64855275Y-38184283D01*
X64839040Y-38178902D01*
X64822808Y-38174423D01*
X64806657Y-38170831D01*
X64790663Y-38168111D01*
X64774904Y-38166248D01*
X64759458Y-38165227D01*
X64744400Y-38165034D01*
X64729810Y-38165654D01*
X64715763Y-38167072D01*
X64702337Y-38169273D01*
X64689610Y-38172243D01*
X64677658Y-38175966D01*
X64670851Y-38178521D01*
X64664036Y-38181500D01*
X64657262Y-38184898D01*
X64650580Y-38188707D01*
X64644038Y-38192923D01*
X64637688Y-38197540D01*
X64631577Y-38202552D01*
X64625757Y-38207953D01*
X64620276Y-38213738D01*
X64615184Y-38219900D01*
X64610531Y-38226435D01*
X64606366Y-38233335D01*
X64602740Y-38240596D01*
X64599701Y-38248212D01*
X64597300Y-38256176D01*
X64595585Y-38264483D01*
X64594608Y-38273128D01*
X64594416Y-38282105D01*
X64595061Y-38291407D01*
X64596591Y-38301029D01*
X64599057Y-38310966D01*
X64602507Y-38321211D01*
X64606992Y-38331758D01*
X64612561Y-38342603D01*
X64619264Y-38353739D01*
X64627150Y-38365161D01*
X64636270Y-38376862D01*
X64646672Y-38388837D01*
X64658407Y-38401080D01*
X64671523Y-38413585D01*
X64686071Y-38426348D01*
X64702101Y-38439361D01*
X64711350Y-38460996D01*
X64717265Y-38482122D01*
X64719998Y-38502742D01*
X64719702Y-38522855D01*
X64716528Y-38542463D01*
X64710631Y-38561568D01*
X64702161Y-38580170D01*
X64691271Y-38598272D01*
X64678114Y-38615874D01*
X64662843Y-38632977D01*
X64645609Y-38649584D01*
X64626564Y-38665695D01*
X64605862Y-38681312D01*
X64583655Y-38696436D01*
X64560095Y-38711068D01*
X64535335Y-38725210D01*
X64482822Y-38752027D01*
X64427337Y-38776898D01*
X64370098Y-38799834D01*
X64312325Y-38820844D01*
X64255238Y-38839940D01*
X64200054Y-38857132D01*
X64100277Y-38885845D01*
X64041386Y-38895914D01*
X64008656Y-38900228D01*
X63974292Y-38903771D01*
X63938710Y-38906327D01*
X63902328Y-38907679D01*
X63865562Y-38907610D01*
X63828827Y-38905901D01*
X63792542Y-38902337D01*
X63757122Y-38896701D01*
X63722983Y-38888774D01*
X63690543Y-38878340D01*
X63675090Y-38872116D01*
X63660218Y-38865183D01*
X63645978Y-38857514D01*
X63632424Y-38849083D01*
X63619607Y-38839863D01*
X63607578Y-38829826D01*
X63596391Y-38818945D01*
X63586097Y-38807193D01*
X63580445Y-38799948D01*
X63575210Y-38792603D01*
X63570377Y-38785168D01*
X63565929Y-38777649D01*
X63561849Y-38770055D01*
X63558121Y-38762393D01*
X63551658Y-38746900D01*
X63546408Y-38731232D01*
X63542241Y-38715452D01*
X63539027Y-38699624D01*
X63536634Y-38683812D01*
X63534933Y-38668078D01*
X63533793Y-38652486D01*
X63532673Y-38621979D01*
X63532232Y-38592799D01*
X63531423Y-38565451D01*
X63530178Y-38560148D01*
X63527777Y-38554610D01*
X63524280Y-38548927D01*
X63519746Y-38543189D01*
X63514234Y-38537484D01*
X63507805Y-38531902D01*
X63500517Y-38526532D01*
X63492431Y-38521463D01*
X63483605Y-38516784D01*
X63474100Y-38512584D01*
X63463974Y-38508953D01*
X63453288Y-38505980D01*
X63442100Y-38503754D01*
X63430471Y-38502363D01*
X63418460Y-38501898D01*
X63406126Y-38502448D01*
X63393528Y-38504101D01*
X63380727Y-38506947D01*
X63367782Y-38511075D01*
X63354753Y-38516574D01*
X63341698Y-38523534D01*
X63328677Y-38532043D01*
X63315751Y-38542191D01*
X63302978Y-38554067D01*
X63290418Y-38567760D01*
X63278130Y-38583359D01*
X63266174Y-38600953D01*
X63254610Y-38620633D01*
X63243497Y-38642486D01*
X63232894Y-38666602D01*
X63222862Y-38693070D01*
X63213458Y-38721979D01*
X62551413Y-38721979D01*
X62481175Y-38438596D01*
X62413815Y-38137682D01*
X62352237Y-37825090D01*
X62297427Y-37498932D01*
X62268173Y-37286553D01*
X62843440Y-37286553D01*
X62844987Y-37302593D01*
X62848066Y-37318578D01*
X62852606Y-37334393D01*
X62858535Y-37349924D01*
X62865783Y-37365057D01*
X62874278Y-37379678D01*
X62883950Y-37393672D01*
X62894728Y-37406925D01*
X62906540Y-37419322D01*
X62919316Y-37430750D01*
X62932984Y-37441093D01*
X62947474Y-37450238D01*
X62962715Y-37458070D01*
X62978635Y-37464475D01*
X62995164Y-37469338D01*
X63012230Y-37472546D01*
X63094581Y-37484618D01*
X63192641Y-37501910D01*
X63402983Y-37543732D01*
X63650227Y-37597396D01*
X63637153Y-37713565D01*
X63599599Y-37725712D01*
X63559198Y-37739527D01*
X63510197Y-37757286D01*
X63456957Y-37778078D01*
X63430110Y-37789326D01*
X63403839Y-37800990D01*
X63378689Y-37812956D01*
X63355205Y-37825110D01*
X63333932Y-37837338D01*
X63315415Y-37849526D01*
X63279904Y-37874476D01*
X63247410Y-37899221D01*
X63217853Y-37923698D01*
X63191152Y-37947845D01*
X63167229Y-37971602D01*
X63146003Y-37994905D01*
X63127396Y-38017694D01*
X63111326Y-38039907D01*
X63097714Y-38061482D01*
X63086481Y-38082356D01*
X63077547Y-38102470D01*
X63070832Y-38121760D01*
X63066256Y-38140164D01*
X63063740Y-38157622D01*
X63063203Y-38174072D01*
X63064566Y-38189451D01*
X63067750Y-38203698D01*
X63072674Y-38216752D01*
X63079259Y-38228550D01*
X63087425Y-38239030D01*
X63097093Y-38248132D01*
X63108181Y-38255793D01*
X63120612Y-38261952D01*
X63134304Y-38266546D01*
X63149179Y-38269514D01*
X63165157Y-38270795D01*
X63182157Y-38270326D01*
X63200100Y-38268046D01*
X63218906Y-38263893D01*
X63238496Y-38257805D01*
X63258789Y-38249721D01*
X63279707Y-38239579D01*
X63435081Y-38157082D01*
X63493162Y-38126743D01*
X63552034Y-38096871D01*
X63608244Y-38069645D01*
X63634272Y-38057704D01*
X63658340Y-38047240D01*
X63749707Y-38010498D01*
X63836135Y-37980582D01*
X63917933Y-37956731D01*
X63995407Y-37938188D01*
X64068865Y-37924195D01*
X64138614Y-37913992D01*
X64204961Y-37906822D01*
X64268214Y-37901926D01*
X64496431Y-37889913D01*
X64548822Y-37885010D01*
X64599963Y-37877831D01*
X64650161Y-37867616D01*
X64699724Y-37853608D01*
X64711946Y-37849015D01*
X64723283Y-37843988D01*
X64733750Y-37838548D01*
X64743361Y-37832720D01*
X64752132Y-37826524D01*
X64756206Y-37823295D01*
X64760075Y-37819982D01*
X64763742Y-37816589D01*
X64767207Y-37813118D01*
X64770472Y-37809572D01*
X64773541Y-37805954D01*
X64776413Y-37802266D01*
X64779091Y-37798511D01*
X64781577Y-37794692D01*
X64783873Y-37790812D01*
X64787901Y-37782880D01*
X64791190Y-37774735D01*
X64793753Y-37766402D01*
X64795605Y-37757902D01*
X64796762Y-37749256D01*
X64797237Y-37740489D01*
X64797238Y-37740489D01*
X64796991Y-37730729D01*
X64795957Y-37720878D01*
X64794156Y-37710966D01*
X64791607Y-37701021D01*
X64788330Y-37691074D01*
X64784344Y-37681154D01*
X64779669Y-37671290D01*
X64774324Y-37661513D01*
X64768328Y-37651852D01*
X64761702Y-37642337D01*
X64754464Y-37632997D01*
X64746634Y-37623862D01*
X64742906Y-37619913D01*
X64738232Y-37614962D01*
X64729276Y-37606326D01*
X64719787Y-37597984D01*
X64709784Y-37589965D01*
X64699286Y-37582300D01*
X64688313Y-37575017D01*
X64676885Y-37568147D01*
X64665020Y-37561719D01*
X64652738Y-37555763D01*
X64640060Y-37550308D01*
X64627003Y-37545384D01*
X64613588Y-37541021D01*
X64599834Y-37537248D01*
X64585761Y-37534095D01*
X64571388Y-37531591D01*
X64556734Y-37529767D01*
X64541820Y-37528652D01*
X64526664Y-37528275D01*
X64511286Y-37528666D01*
X64495706Y-37529856D01*
X64451829Y-37529425D01*
X64435301Y-37529833D01*
X64406781Y-37530535D01*
X64361111Y-37532977D01*
X64315374Y-37536542D01*
X64225905Y-37546205D01*
X64142792Y-37557856D01*
X64070457Y-37569824D01*
X64013317Y-37580440D01*
X63962301Y-37590937D01*
X63966085Y-37588956D01*
X63971004Y-37585998D01*
X63978111Y-37581301D01*
X63987532Y-37574544D01*
X63999394Y-37565406D01*
X64013824Y-37553566D01*
X64030948Y-37538703D01*
X64040561Y-37530037D01*
X64050894Y-37520496D01*
X64061965Y-37510038D01*
X64073788Y-37498624D01*
X64086380Y-37486213D01*
X64099757Y-37472766D01*
X64113934Y-37458242D01*
X64128928Y-37442601D01*
X64144753Y-37425803D01*
X64161427Y-37407808D01*
X64178964Y-37388576D01*
X64197381Y-37368067D01*
X64216694Y-37346241D01*
X64236918Y-37323056D01*
X64258069Y-37298475D01*
X64280163Y-37272455D01*
X64301735Y-37246339D01*
X64321349Y-37221483D01*
X64339061Y-37197868D01*
X64354925Y-37175472D01*
X64368996Y-37154274D01*
X64381329Y-37134252D01*
X64391978Y-37115385D01*
X64400997Y-37097651D01*
X64408442Y-37081031D01*
X64414367Y-37065502D01*
X64418827Y-37051043D01*
X64421876Y-37037634D01*
X64423569Y-37025252D01*
X64423960Y-37013876D01*
X64423105Y-37003486D01*
X64421058Y-36994060D01*
X64417873Y-36985576D01*
X64413605Y-36978014D01*
X64408310Y-36971353D01*
X64402040Y-36965571D01*
X64394852Y-36960646D01*
X64386799Y-36956558D01*
X64377937Y-36953286D01*
X64368320Y-36950807D01*
X64358002Y-36949102D01*
X64347039Y-36948148D01*
X64323393Y-36948411D01*
X64297821Y-36951426D01*
X64270758Y-36957022D01*
X64256919Y-36961230D01*
X64241886Y-36967246D01*
X64208667Y-36984189D01*
X64171957Y-37006835D01*
X64132613Y-37034164D01*
X64091492Y-37065159D01*
X64049451Y-37098801D01*
X63966037Y-37169954D01*
X63889226Y-37239476D01*
X63825873Y-37299220D01*
X63766964Y-37356791D01*
X63764673Y-37351963D01*
X63761638Y-37347135D01*
X63757913Y-37342316D01*
X63753553Y-37337518D01*
X63748610Y-37332749D01*
X63743138Y-37328020D01*
X63730821Y-37318722D01*
X63717030Y-37309705D01*
X63702192Y-37301050D01*
X63686737Y-37292836D01*
X63671091Y-37285145D01*
X63640941Y-37271652D01*
X63615166Y-37261217D01*
X63611703Y-37259939D01*
X63590438Y-37252095D01*
X63512562Y-37223332D01*
X63438922Y-37198070D01*
X63369499Y-37176234D01*
X63304272Y-37157744D01*
X63243222Y-37142525D01*
X63186329Y-37130499D01*
X63133575Y-37121590D01*
X63084939Y-37115721D01*
X63052321Y-37117092D01*
X63022372Y-37120238D01*
X62995019Y-37125044D01*
X62970193Y-37131396D01*
X62947821Y-37139179D01*
X62927833Y-37148278D01*
X62910157Y-37158581D01*
X62894724Y-37169971D01*
X62881461Y-37182336D01*
X62870298Y-37195560D01*
X62861164Y-37209529D01*
X62853988Y-37224130D01*
X62848698Y-37239247D01*
X62845225Y-37254766D01*
X62843495Y-37270573D01*
X62843440Y-37286553D01*
X62268173Y-37286553D01*
X62250372Y-37157318D01*
X62212057Y-36798362D01*
X62183468Y-36420175D01*
X62165592Y-36020867D01*
X62161051Y-35710470D01*
X62789626Y-35710470D01*
X62791226Y-35741456D01*
X62794803Y-35771525D01*
X62800335Y-35800668D01*
X62807794Y-35828878D01*
X62817158Y-35856146D01*
X62828400Y-35882463D01*
X62841496Y-35907822D01*
X62856422Y-35932214D01*
X62873152Y-35955631D01*
X62891662Y-35978065D01*
X62911926Y-35999507D01*
X62933920Y-36019948D01*
X62957619Y-36039382D01*
X62982999Y-36057798D01*
X63010033Y-36075190D01*
X63038699Y-36091549D01*
X63068970Y-36106866D01*
X63100822Y-36121134D01*
X63134230Y-36134343D01*
X63169169Y-36146486D01*
X63205614Y-36157555D01*
X63243541Y-36167541D01*
X63282924Y-36176435D01*
X63323740Y-36184230D01*
X63365962Y-36190917D01*
X63409567Y-36196488D01*
X63454529Y-36200935D01*
X63500823Y-36204249D01*
X63548425Y-36206422D01*
X63611703Y-36207040D01*
X63672256Y-36205711D01*
X63730099Y-36202492D01*
X63785248Y-36197442D01*
X63837718Y-36190621D01*
X63887523Y-36182087D01*
X63934680Y-36171900D01*
X63979204Y-36160118D01*
X64021110Y-36146801D01*
X64060414Y-36132007D01*
X64097130Y-36115794D01*
X64131274Y-36098223D01*
X64162862Y-36079352D01*
X64191909Y-36059240D01*
X64218429Y-36037946D01*
X64242439Y-36015529D01*
X64255579Y-35998810D01*
X64267810Y-35982220D01*
X64279140Y-35965761D01*
X64289576Y-35949436D01*
X64299124Y-35933246D01*
X64307790Y-35917193D01*
X64315582Y-35901278D01*
X64322505Y-35885504D01*
X64328568Y-35869872D01*
X64333775Y-35854385D01*
X64338135Y-35839043D01*
X64341653Y-35823849D01*
X64344337Y-35808805D01*
X64346192Y-35793912D01*
X64347226Y-35779173D01*
X64347446Y-35764588D01*
X64346542Y-35746068D01*
X64344317Y-35727811D01*
X64340787Y-35709822D01*
X64335964Y-35692105D01*
X64329864Y-35674663D01*
X64322500Y-35657501D01*
X64313888Y-35640623D01*
X64304042Y-35624032D01*
X64292975Y-35607732D01*
X64280702Y-35591728D01*
X64267238Y-35576023D01*
X64252596Y-35560621D01*
X64236792Y-35545526D01*
X64234687Y-35543691D01*
X64219840Y-35530743D01*
X64201753Y-35516274D01*
X64182546Y-35502124D01*
X64169943Y-35496130D01*
X64157296Y-35490754D01*
X64144661Y-35486004D01*
X64132095Y-35481890D01*
X64119653Y-35478420D01*
X64107391Y-35475602D01*
X64095363Y-35473446D01*
X64083626Y-35471960D01*
X64072236Y-35471152D01*
X64061247Y-35471032D01*
X64050716Y-35471607D01*
X64040699Y-35472887D01*
X64031250Y-35474880D01*
X64022425Y-35477594D01*
X64014281Y-35481040D01*
X64006872Y-35485224D01*
X64000254Y-35490156D01*
X63994484Y-35495844D01*
X63989616Y-35502297D01*
X63985706Y-35509524D01*
X63982810Y-35517534D01*
X63980983Y-35526334D01*
X63980282Y-35535933D01*
X63980761Y-35546341D01*
X63982476Y-35557566D01*
X63985483Y-35569616D01*
X63989838Y-35582501D01*
X63995595Y-35596228D01*
X64002812Y-35610806D01*
X64011543Y-35626245D01*
X64021844Y-35642552D01*
X64033770Y-35659737D01*
X64036024Y-35662598D01*
X64038804Y-35666709D01*
X64041951Y-35671984D01*
X64045303Y-35678337D01*
X64048699Y-35685682D01*
X64051978Y-35693933D01*
X64054978Y-35703005D01*
X64056324Y-35707821D01*
X64057539Y-35712810D01*
X64058604Y-35717961D01*
X64059499Y-35723264D01*
X64060203Y-35728707D01*
X64060697Y-35734280D01*
X64060960Y-35739973D01*
X64060973Y-35745773D01*
X64060714Y-35751671D01*
X64060164Y-35757656D01*
X64059302Y-35763718D01*
X64058110Y-35769844D01*
X64056565Y-35776026D01*
X64054649Y-35782251D01*
X64052341Y-35788509D01*
X64049621Y-35794790D01*
X64046469Y-35801083D01*
X64042865Y-35807376D01*
X64034036Y-35822574D01*
X64031271Y-35827109D01*
X64028187Y-35831900D01*
X64024738Y-35836926D01*
X64020874Y-35842169D01*
X64016548Y-35847608D01*
X64011713Y-35853224D01*
X64006321Y-35858998D01*
X64000324Y-35864909D01*
X63993674Y-35870939D01*
X63990089Y-35873992D01*
X63986323Y-35877067D01*
X63982370Y-35880162D01*
X63978224Y-35883275D01*
X63973879Y-35886402D01*
X63969329Y-35889542D01*
X63953226Y-35899647D01*
X63936397Y-35908919D01*
X63918893Y-35917377D01*
X63900765Y-35925045D01*
X63862843Y-35938094D01*
X63823036Y-35948236D01*
X63781754Y-35955645D01*
X63739403Y-35960493D01*
X63696391Y-35962952D01*
X63653125Y-35963193D01*
X63610014Y-35961390D01*
X63567464Y-35957714D01*
X63525883Y-35952338D01*
X63485680Y-35945433D01*
X63447260Y-35937172D01*
X63411033Y-35927728D01*
X63377405Y-35917271D01*
X63346784Y-35905976D01*
X63305854Y-35888111D01*
X63268681Y-35869790D01*
X63235204Y-35850985D01*
X63219833Y-35841393D01*
X63205363Y-35831671D01*
X63191787Y-35821813D01*
X63179097Y-35811818D01*
X63167286Y-35801682D01*
X63156347Y-35791400D01*
X63146271Y-35780971D01*
X63137051Y-35770390D01*
X63128680Y-35759654D01*
X63121151Y-35748760D01*
X63114454Y-35737704D01*
X63108584Y-35726483D01*
X63103532Y-35715093D01*
X63099292Y-35703532D01*
X63095854Y-35691795D01*
X63093213Y-35679879D01*
X63091360Y-35667780D01*
X63090288Y-35655496D01*
X63089989Y-35643023D01*
X63090456Y-35630358D01*
X63091681Y-35617497D01*
X63093657Y-35604436D01*
X63096376Y-35591172D01*
X63099831Y-35577703D01*
X63104014Y-35564024D01*
X63108917Y-35550131D01*
X63118452Y-35523773D01*
X63126110Y-35500517D01*
X63132055Y-35480125D01*
X63136448Y-35462360D01*
X63139452Y-35446983D01*
X63141229Y-35433756D01*
X63141942Y-35422440D01*
X63141753Y-35412797D01*
X63140825Y-35404589D01*
X63139319Y-35397578D01*
X63137399Y-35391526D01*
X63135226Y-35386193D01*
X63130774Y-35376736D01*
X63128819Y-35372134D01*
X63127262Y-35367300D01*
X63125716Y-35364017D01*
X63122765Y-35360521D01*
X63118493Y-35356902D01*
X63112985Y-35353254D01*
X63106324Y-35349667D01*
X63098593Y-35346235D01*
X63089877Y-35343048D01*
X63080260Y-35340198D01*
X63069825Y-35337779D01*
X63058656Y-35335880D01*
X63046837Y-35334596D01*
X63034452Y-35334016D01*
X63021584Y-35334234D01*
X63008318Y-35335341D01*
X62994737Y-35337429D01*
X62980926Y-35340590D01*
X62966967Y-35344916D01*
X62952945Y-35350498D01*
X62938944Y-35357430D01*
X62925047Y-35365802D01*
X62911338Y-35375706D01*
X62897902Y-35387235D01*
X62884821Y-35400481D01*
X62872181Y-35415534D01*
X62860064Y-35432488D01*
X62848554Y-35451434D01*
X62837735Y-35472464D01*
X62827692Y-35495670D01*
X62818508Y-35521144D01*
X62810266Y-35548977D01*
X62803051Y-35579263D01*
X62796946Y-35612091D01*
X62792462Y-35645779D01*
X62790030Y-35678575D01*
X62789626Y-35710470D01*
X62161051Y-35710470D01*
X62159414Y-35598552D01*
X62166619Y-35395540D01*
X62187664Y-35189621D01*
X62221700Y-34981333D01*
X62233242Y-34928810D01*
X62987113Y-34928810D01*
X62987681Y-34954115D01*
X62989590Y-34977188D01*
X62992943Y-34997779D01*
X62997839Y-35015636D01*
X63004379Y-35030508D01*
X63012662Y-35042145D01*
X63022791Y-35050296D01*
X63034864Y-35054709D01*
X63084147Y-35063496D01*
X63129281Y-35070556D01*
X63173183Y-35076468D01*
X63218768Y-35081812D01*
X63476233Y-35109073D01*
X63569040Y-35120575D01*
X63667524Y-35134451D01*
X63871311Y-35164622D01*
X63971509Y-35178562D01*
X64067173Y-35190169D01*
X64155750Y-35198267D01*
X64196583Y-35200631D01*
X64234687Y-35201677D01*
X64253978Y-35201193D01*
X64272854Y-35199437D01*
X64291195Y-35196482D01*
X64308882Y-35192401D01*
X64325797Y-35187268D01*
X64341820Y-35181157D01*
X64356831Y-35174140D01*
X64370712Y-35166291D01*
X64383344Y-35157684D01*
X64394607Y-35148391D01*
X64404382Y-35138487D01*
X64408675Y-35133328D01*
X64412551Y-35128044D01*
X64415995Y-35122644D01*
X64418992Y-35117136D01*
X64421529Y-35111531D01*
X64423589Y-35105837D01*
X64425158Y-35100063D01*
X64426221Y-35094219D01*
X64426763Y-35088314D01*
X64426769Y-35082357D01*
X64426318Y-35077064D01*
X64425427Y-35071745D01*
X64424087Y-35066404D01*
X64422287Y-35061049D01*
X64420018Y-35055686D01*
X64417268Y-35050321D01*
X64414029Y-35044961D01*
X64410289Y-35039611D01*
X64406038Y-35034278D01*
X64401266Y-35028969D01*
X64395963Y-35023689D01*
X64390118Y-35018445D01*
X64383722Y-35013244D01*
X64376765Y-35008091D01*
X64369235Y-35002993D01*
X64361122Y-34997956D01*
X64352418Y-34992987D01*
X64343110Y-34988092D01*
X64333190Y-34983276D01*
X64322646Y-34978548D01*
X64311469Y-34973911D01*
X64299648Y-34969374D01*
X64287173Y-34964943D01*
X64274035Y-34960623D01*
X64260221Y-34956421D01*
X64245724Y-34952343D01*
X64230531Y-34948396D01*
X64214634Y-34944586D01*
X64198021Y-34940919D01*
X64180683Y-34937402D01*
X64162609Y-34934041D01*
X64143789Y-34930841D01*
X64087963Y-34915665D01*
X64027073Y-34902809D01*
X63962230Y-34892016D01*
X63894545Y-34883033D01*
X63755096Y-34869474D01*
X63617618Y-34860090D01*
X63384139Y-34845690D01*
X63340893Y-34841512D01*
X63305920Y-34836592D01*
X63280331Y-34830676D01*
X63265238Y-34823509D01*
X63260850Y-34818792D01*
X63257141Y-34812580D01*
X63254082Y-34804964D01*
X63251643Y-34796036D01*
X63249793Y-34785888D01*
X63248504Y-34774609D01*
X63247485Y-34749028D01*
X63248348Y-34720025D01*
X63250853Y-34688329D01*
X63254763Y-34654672D01*
X63259837Y-34619785D01*
X63265838Y-34584397D01*
X63272526Y-34549239D01*
X63287008Y-34482539D01*
X63301374Y-34425528D01*
X63313711Y-34384053D01*
X63318286Y-34367405D01*
X63321343Y-34349469D01*
X63322910Y-34330629D01*
X63323014Y-34311270D01*
X63321681Y-34291777D01*
X63318939Y-34272535D01*
X63314815Y-34253929D01*
X63309335Y-34236344D01*
X63302528Y-34220164D01*
X63298635Y-34212721D01*
X63294420Y-34205774D01*
X63289887Y-34199371D01*
X63285038Y-34193560D01*
X63279878Y-34188388D01*
X63274409Y-34183905D01*
X63268636Y-34180159D01*
X63262561Y-34177196D01*
X63256188Y-34175066D01*
X63249520Y-34173817D01*
X63242561Y-34173496D01*
X63235314Y-34174152D01*
X63227782Y-34175833D01*
X63219969Y-34178587D01*
X63212083Y-34181413D01*
X63204641Y-34184523D01*
X63197628Y-34187897D01*
X63191031Y-34191512D01*
X63184833Y-34195349D01*
X63179022Y-34199385D01*
X63173581Y-34203599D01*
X63168496Y-34207970D01*
X63163752Y-34212477D01*
X63159336Y-34217098D01*
X63155231Y-34221812D01*
X63151424Y-34226599D01*
X63147899Y-34231436D01*
X63144642Y-34236302D01*
X63138873Y-34246038D01*
X63134000Y-34255636D01*
X63129904Y-34264926D01*
X63126467Y-34273738D01*
X63123573Y-34281903D01*
X63118941Y-34295607D01*
X63116968Y-34300807D01*
X63115066Y-34304678D01*
X63102988Y-34340660D01*
X63078640Y-34425278D01*
X63048451Y-34542466D01*
X63018847Y-34676161D01*
X63006274Y-34744178D01*
X62996259Y-34810297D01*
X62989604Y-34872511D01*
X62987113Y-34928810D01*
X62233242Y-34928810D01*
X62267875Y-34771213D01*
X62325337Y-34559799D01*
X62393236Y-34347628D01*
X62556936Y-33923168D01*
X62662372Y-33695781D01*
X63344737Y-33695781D01*
X63345818Y-33731067D01*
X63349635Y-33769950D01*
X63356944Y-33811575D01*
X63362144Y-33833149D01*
X63368502Y-33855088D01*
X63376111Y-33877287D01*
X63385067Y-33899637D01*
X63395463Y-33922033D01*
X63407395Y-33944368D01*
X63420957Y-33966534D01*
X63436244Y-33988427D01*
X63453351Y-34009937D01*
X63472371Y-34030960D01*
X63493400Y-34051388D01*
X63516533Y-34071114D01*
X63541863Y-34090033D01*
X63569486Y-34108036D01*
X63599497Y-34125018D01*
X63631989Y-34140872D01*
X63667058Y-34155491D01*
X63704798Y-34168769D01*
X63979634Y-34249982D01*
X64168269Y-34303965D01*
X64239837Y-34322592D01*
X64301347Y-34336626D01*
X64356627Y-34346807D01*
X64409509Y-34353874D01*
X64422583Y-34354852D01*
X64435301Y-34354937D01*
X64447631Y-34354168D01*
X64459538Y-34352586D01*
X64470990Y-34350230D01*
X64481952Y-34347141D01*
X64492391Y-34343357D01*
X64502274Y-34338921D01*
X64511568Y-34333870D01*
X64520238Y-34328247D01*
X64528251Y-34322089D01*
X64535573Y-34315439D01*
X64542172Y-34308334D01*
X64548013Y-34300816D01*
X64553064Y-34292925D01*
X64557290Y-34284700D01*
X64560657Y-34276182D01*
X64563134Y-34267410D01*
X64564685Y-34258425D01*
X64565278Y-34249266D01*
X64564878Y-34239974D01*
X64563453Y-34230589D01*
X64560969Y-34221150D01*
X64557393Y-34211698D01*
X64552690Y-34202272D01*
X64546827Y-34192913D01*
X64539772Y-34183661D01*
X64531489Y-34174555D01*
X64521946Y-34165636D01*
X64511110Y-34156943D01*
X64498946Y-34148518D01*
X64485422Y-34140399D01*
X64458944Y-34128192D01*
X64424265Y-34115711D01*
X64382394Y-34102927D01*
X64334339Y-34089812D01*
X64223715Y-34062468D01*
X64100467Y-34033447D01*
X63972667Y-34002515D01*
X63848388Y-33969438D01*
X63790092Y-33952022D01*
X63735702Y-33933983D01*
X63686230Y-33915291D01*
X63642683Y-33895917D01*
X63634744Y-33890335D01*
X63627227Y-33884418D01*
X63620136Y-33878189D01*
X63613476Y-33871671D01*
X63607251Y-33864886D01*
X63601466Y-33857858D01*
X63596125Y-33850608D01*
X63591232Y-33843159D01*
X63586792Y-33835534D01*
X63582809Y-33827756D01*
X63579288Y-33819848D01*
X63576234Y-33811831D01*
X63573649Y-33803728D01*
X63571540Y-33795563D01*
X63569910Y-33787358D01*
X63568764Y-33779136D01*
X63568106Y-33770918D01*
X63567941Y-33762729D01*
X63568273Y-33754590D01*
X63569107Y-33746524D01*
X63570447Y-33738554D01*
X63572297Y-33730702D01*
X63574661Y-33722991D01*
X63577545Y-33715445D01*
X63580953Y-33708084D01*
X63584889Y-33700933D01*
X63589357Y-33694013D01*
X63594363Y-33687348D01*
X63599909Y-33680960D01*
X63606002Y-33674871D01*
X63612644Y-33669105D01*
X63619842Y-33663684D01*
X63631667Y-33657824D01*
X63644507Y-33652608D01*
X63673053Y-33644021D01*
X63705130Y-33637744D01*
X63740384Y-33633601D01*
X63778464Y-33631416D01*
X63819019Y-33631012D01*
X63861696Y-33632213D01*
X63906144Y-33634842D01*
X63952012Y-33638723D01*
X63998946Y-33643679D01*
X64094609Y-33656111D01*
X64190320Y-33670726D01*
X64283264Y-33686111D01*
X64325400Y-33697075D01*
X64365019Y-33707989D01*
X64436869Y-33727827D01*
X64469179Y-33735828D01*
X64499134Y-33741935D01*
X64513240Y-33744134D01*
X64526773Y-33745687D01*
X64539736Y-33746537D01*
X64552136Y-33746624D01*
X64569388Y-33744220D01*
X64585444Y-33741176D01*
X64600317Y-33737522D01*
X64614019Y-33733287D01*
X64626561Y-33728503D01*
X64637955Y-33723197D01*
X64648214Y-33717401D01*
X64657349Y-33711143D01*
X64665371Y-33704453D01*
X64672295Y-33697361D01*
X64678130Y-33689896D01*
X64682889Y-33682089D01*
X64686584Y-33673969D01*
X64689227Y-33665565D01*
X64690830Y-33656907D01*
X64691404Y-33648025D01*
X64691236Y-33642211D01*
X64690651Y-33636324D01*
X64689653Y-33630373D01*
X64688244Y-33624366D01*
X64686428Y-33618310D01*
X64684208Y-33612213D01*
X64681587Y-33606083D01*
X64678568Y-33599929D01*
X64675155Y-33593757D01*
X64671351Y-33587577D01*
X64667159Y-33581395D01*
X64662582Y-33575220D01*
X64657623Y-33569059D01*
X64652286Y-33562921D01*
X64646573Y-33556813D01*
X64640489Y-33550744D01*
X64634035Y-33544721D01*
X64627216Y-33538752D01*
X64620034Y-33532845D01*
X64612493Y-33527008D01*
X64604596Y-33521249D01*
X64596346Y-33515575D01*
X64578800Y-33504518D01*
X64559880Y-33493898D01*
X64539613Y-33483779D01*
X64518023Y-33474224D01*
X64495137Y-33465297D01*
X64395560Y-33439918D01*
X64286466Y-33415549D01*
X64172680Y-33393471D01*
X64059029Y-33374960D01*
X63950336Y-33361294D01*
X63899358Y-33356678D01*
X63851428Y-33353752D01*
X63807151Y-33352677D01*
X63767130Y-33353612D01*
X63731967Y-33356717D01*
X63702265Y-33362152D01*
X63649934Y-33375182D01*
X63596188Y-33389998D01*
X63569391Y-33398586D01*
X63542968Y-33408231D01*
X63517160Y-33419137D01*
X63492212Y-33431509D01*
X63468364Y-33445549D01*
X63445860Y-33461462D01*
X63435188Y-33470184D01*
X63424942Y-33479451D01*
X63415153Y-33489288D01*
X63405852Y-33499720D01*
X63397068Y-33510773D01*
X63388833Y-33522472D01*
X63381175Y-33534843D01*
X63374126Y-33547911D01*
X63367716Y-33561702D01*
X63361976Y-33576241D01*
X63356934Y-33591554D01*
X63352623Y-33607666D01*
X63347752Y-33639410D01*
X63345634Y-33664944D01*
X63344737Y-33695781D01*
X62662372Y-33695781D01*
X62752165Y-33502132D01*
X62972112Y-33088823D01*
X63075903Y-32913719D01*
X63715195Y-32913719D01*
X63715956Y-32929030D01*
X63717518Y-32942975D01*
X63719889Y-32955385D01*
X63723080Y-32966089D01*
X63727100Y-32974920D01*
X63729423Y-32978580D01*
X63731958Y-32981709D01*
X63734704Y-32984284D01*
X63737664Y-32986284D01*
X63740837Y-32987690D01*
X63744227Y-32988479D01*
X63766826Y-32992114D01*
X63805645Y-33001216D01*
X63922182Y-33032673D01*
X64242560Y-33126572D01*
X64686185Y-33262106D01*
X64706182Y-33265840D01*
X64716420Y-33267719D01*
X64726850Y-33269236D01*
X64737495Y-33270114D01*
X64742906Y-33270227D01*
X64748380Y-33270076D01*
X64753920Y-33269626D01*
X64759530Y-33268844D01*
X64765211Y-33267694D01*
X64770967Y-33266142D01*
X64776801Y-33264153D01*
X64782717Y-33261693D01*
X64788716Y-33258726D01*
X64794803Y-33255219D01*
X64800980Y-33251136D01*
X64807249Y-33246443D01*
X64813615Y-33241106D01*
X64820081Y-33235089D01*
X64826648Y-33228358D01*
X64833320Y-33220878D01*
X64840101Y-33212615D01*
X64846993Y-33203534D01*
X64854000Y-33193601D01*
X64861123Y-33182780D01*
X64868367Y-33171038D01*
X64875734Y-33158339D01*
X64895050Y-33125754D01*
X64913136Y-33093930D01*
X64929989Y-33062853D01*
X64945605Y-33032511D01*
X64959981Y-33002892D01*
X64973114Y-32973983D01*
X64985001Y-32945771D01*
X64995639Y-32918245D01*
X65005023Y-32891392D01*
X65013152Y-32865199D01*
X65020021Y-32839654D01*
X65025627Y-32814744D01*
X65029968Y-32790457D01*
X65033040Y-32766780D01*
X65034839Y-32743702D01*
X65035362Y-32721208D01*
X65035002Y-32706532D01*
X65034074Y-32692106D01*
X65032576Y-32677927D01*
X65030507Y-32663992D01*
X65027866Y-32650298D01*
X65026331Y-32643540D01*
X65024652Y-32636840D01*
X65022830Y-32630199D01*
X65020864Y-32623616D01*
X65018754Y-32617090D01*
X65016500Y-32610621D01*
X65011618Y-32603165D01*
X65006248Y-32595884D01*
X65000410Y-32588786D01*
X64994125Y-32581880D01*
X64987410Y-32575173D01*
X64980285Y-32568674D01*
X64972770Y-32562392D01*
X64964884Y-32556334D01*
X64956645Y-32550509D01*
X64948074Y-32544925D01*
X64930011Y-32534514D01*
X64910848Y-32525168D01*
X64890740Y-32516951D01*
X64869841Y-32509932D01*
X64848305Y-32504176D01*
X64826286Y-32499749D01*
X64803939Y-32496718D01*
X64792690Y-32495747D01*
X64781417Y-32495149D01*
X64770139Y-32494934D01*
X64758876Y-32495109D01*
X64747645Y-32495682D01*
X64736468Y-32496663D01*
X64725363Y-32498059D01*
X64714349Y-32499878D01*
X64695522Y-32504758D01*
X64677228Y-32509945D01*
X64642612Y-32520897D01*
X64611253Y-32532047D01*
X64583907Y-32542709D01*
X64561325Y-32552196D01*
X64544263Y-32559823D01*
X64529709Y-32566748D01*
X64528031Y-32553821D01*
X64525638Y-32541119D01*
X64522544Y-32528650D01*
X64518764Y-32516419D01*
X64514313Y-32504436D01*
X64509206Y-32492705D01*
X64503458Y-32481234D01*
X64497083Y-32470031D01*
X64490098Y-32459102D01*
X64482517Y-32448454D01*
X64474354Y-32438094D01*
X64465626Y-32428029D01*
X64456346Y-32418266D01*
X64446530Y-32408812D01*
X64436193Y-32399674D01*
X64425350Y-32390859D01*
X64414016Y-32382374D01*
X64402206Y-32374226D01*
X64389934Y-32366421D01*
X64377217Y-32358968D01*
X64364068Y-32351872D01*
X64350503Y-32345141D01*
X64336537Y-32338781D01*
X64322184Y-32332801D01*
X64307460Y-32327206D01*
X64292380Y-32322003D01*
X64276959Y-32317201D01*
X64261212Y-32312805D01*
X64228798Y-32305260D01*
X64195259Y-32299426D01*
X64178260Y-32297523D01*
X64161335Y-32296768D01*
X64144492Y-32297153D01*
X64127742Y-32298667D01*
X64111094Y-32301303D01*
X64094558Y-32305050D01*
X64078145Y-32309899D01*
X64061865Y-32315842D01*
X64045727Y-32322868D01*
X64029741Y-32330969D01*
X64013918Y-32340135D01*
X63998267Y-32350357D01*
X63982798Y-32361626D01*
X63967521Y-32373933D01*
X63952447Y-32387268D01*
X63937585Y-32401622D01*
X63922945Y-32416986D01*
X63908537Y-32433351D01*
X63894372Y-32450707D01*
X63880458Y-32469045D01*
X63866806Y-32488356D01*
X63853427Y-32508631D01*
X63840329Y-32529860D01*
X63827524Y-32552034D01*
X63815020Y-32575144D01*
X63802828Y-32599181D01*
X63779420Y-32649997D01*
X63757379Y-32704409D01*
X63736785Y-32762343D01*
X63731484Y-32782495D01*
X63726908Y-32802633D01*
X63723065Y-32822589D01*
X63719966Y-32842195D01*
X63717620Y-32861279D01*
X63716037Y-32879674D01*
X63715225Y-32897211D01*
X63715195Y-32913719D01*
X63075903Y-32913719D01*
X63209967Y-32687541D01*
X63458920Y-32302587D01*
X63712159Y-31938262D01*
X63962874Y-31598868D01*
X64429492Y-31012072D01*
X64804288Y-30576609D01*
X65032779Y-30326885D01*
X65034350Y-30325343D01*
X65035977Y-30323979D01*
X65037654Y-30322789D01*
X65039373Y-30321770D01*
X65041127Y-30320917D01*
X65042909Y-30320228D01*
X65044713Y-30319697D01*
X65046531Y-30319322D01*
X65048355Y-30319098D01*
X65050180Y-30319022D01*
X65051998Y-30319089D01*
G37*
D11*
X115767989Y-160458329D02*
X115767989Y-158958329D01*
X115767989Y-158958329D02*
X115410846Y-158958329D01*
X115410846Y-158958329D02*
X115196560Y-159029758D01*
X115196560Y-159029758D02*
X115053703Y-159172615D01*
X115053703Y-159172615D02*
X114982274Y-159315472D01*
X114982274Y-159315472D02*
X114910846Y-159601186D01*
X114910846Y-159601186D02*
X114910846Y-159815472D01*
X114910846Y-159815472D02*
X114982274Y-160101186D01*
X114982274Y-160101186D02*
X115053703Y-160244043D01*
X115053703Y-160244043D02*
X115196560Y-160386901D01*
X115196560Y-160386901D02*
X115410846Y-160458329D01*
X115410846Y-160458329D02*
X115767989Y-160458329D01*
X113696560Y-160386901D02*
X113839417Y-160458329D01*
X113839417Y-160458329D02*
X114125132Y-160458329D01*
X114125132Y-160458329D02*
X114267989Y-160386901D01*
X114267989Y-160386901D02*
X114339417Y-160244043D01*
X114339417Y-160244043D02*
X114339417Y-159672615D01*
X114339417Y-159672615D02*
X114267989Y-159529758D01*
X114267989Y-159529758D02*
X114125132Y-159458329D01*
X114125132Y-159458329D02*
X113839417Y-159458329D01*
X113839417Y-159458329D02*
X113696560Y-159529758D01*
X113696560Y-159529758D02*
X113625132Y-159672615D01*
X113625132Y-159672615D02*
X113625132Y-159815472D01*
X113625132Y-159815472D02*
X114339417Y-159958329D01*
X113053703Y-160386901D02*
X112910846Y-160458329D01*
X112910846Y-160458329D02*
X112625132Y-160458329D01*
X112625132Y-160458329D02*
X112482275Y-160386901D01*
X112482275Y-160386901D02*
X112410846Y-160244043D01*
X112410846Y-160244043D02*
X112410846Y-160172615D01*
X112410846Y-160172615D02*
X112482275Y-160029758D01*
X112482275Y-160029758D02*
X112625132Y-159958329D01*
X112625132Y-159958329D02*
X112839418Y-159958329D01*
X112839418Y-159958329D02*
X112982275Y-159886901D01*
X112982275Y-159886901D02*
X113053703Y-159744043D01*
X113053703Y-159744043D02*
X113053703Y-159672615D01*
X113053703Y-159672615D02*
X112982275Y-159529758D01*
X112982275Y-159529758D02*
X112839418Y-159458329D01*
X112839418Y-159458329D02*
X112625132Y-159458329D01*
X112625132Y-159458329D02*
X112482275Y-159529758D01*
X111767989Y-160458329D02*
X111767989Y-159458329D01*
X111767989Y-158958329D02*
X111839417Y-159029758D01*
X111839417Y-159029758D02*
X111767989Y-159101186D01*
X111767989Y-159101186D02*
X111696560Y-159029758D01*
X111696560Y-159029758D02*
X111767989Y-158958329D01*
X111767989Y-158958329D02*
X111767989Y-159101186D01*
X110410846Y-159458329D02*
X110410846Y-160672615D01*
X110410846Y-160672615D02*
X110482274Y-160815472D01*
X110482274Y-160815472D02*
X110553703Y-160886901D01*
X110553703Y-160886901D02*
X110696560Y-160958329D01*
X110696560Y-160958329D02*
X110910846Y-160958329D01*
X110910846Y-160958329D02*
X111053703Y-160886901D01*
X110410846Y-160386901D02*
X110553703Y-160458329D01*
X110553703Y-160458329D02*
X110839417Y-160458329D01*
X110839417Y-160458329D02*
X110982274Y-160386901D01*
X110982274Y-160386901D02*
X111053703Y-160315472D01*
X111053703Y-160315472D02*
X111125131Y-160172615D01*
X111125131Y-160172615D02*
X111125131Y-159744043D01*
X111125131Y-159744043D02*
X111053703Y-159601186D01*
X111053703Y-159601186D02*
X110982274Y-159529758D01*
X110982274Y-159529758D02*
X110839417Y-159458329D01*
X110839417Y-159458329D02*
X110553703Y-159458329D01*
X110553703Y-159458329D02*
X110410846Y-159529758D01*
X109696560Y-159458329D02*
X109696560Y-160458329D01*
X109696560Y-159601186D02*
X109625131Y-159529758D01*
X109625131Y-159529758D02*
X109482274Y-159458329D01*
X109482274Y-159458329D02*
X109267988Y-159458329D01*
X109267988Y-159458329D02*
X109125131Y-159529758D01*
X109125131Y-159529758D02*
X109053703Y-159672615D01*
X109053703Y-159672615D02*
X109053703Y-160458329D01*
X107767988Y-160386901D02*
X107910845Y-160458329D01*
X107910845Y-160458329D02*
X108196560Y-160458329D01*
X108196560Y-160458329D02*
X108339417Y-160386901D01*
X108339417Y-160386901D02*
X108410845Y-160244043D01*
X108410845Y-160244043D02*
X108410845Y-159672615D01*
X108410845Y-159672615D02*
X108339417Y-159529758D01*
X108339417Y-159529758D02*
X108196560Y-159458329D01*
X108196560Y-159458329D02*
X107910845Y-159458329D01*
X107910845Y-159458329D02*
X107767988Y-159529758D01*
X107767988Y-159529758D02*
X107696560Y-159672615D01*
X107696560Y-159672615D02*
X107696560Y-159815472D01*
X107696560Y-159815472D02*
X108410845Y-159958329D01*
X106410846Y-160458329D02*
X106410846Y-158958329D01*
X106410846Y-160386901D02*
X106553703Y-160458329D01*
X106553703Y-160458329D02*
X106839417Y-160458329D01*
X106839417Y-160458329D02*
X106982274Y-160386901D01*
X106982274Y-160386901D02*
X107053703Y-160315472D01*
X107053703Y-160315472D02*
X107125131Y-160172615D01*
X107125131Y-160172615D02*
X107125131Y-159744043D01*
X107125131Y-159744043D02*
X107053703Y-159601186D01*
X107053703Y-159601186D02*
X106982274Y-159529758D01*
X106982274Y-159529758D02*
X106839417Y-159458329D01*
X106839417Y-159458329D02*
X106553703Y-159458329D01*
X106553703Y-159458329D02*
X106410846Y-159529758D01*
X104553703Y-160458329D02*
X104553703Y-158958329D01*
X104553703Y-159529758D02*
X104410846Y-159458329D01*
X104410846Y-159458329D02*
X104125131Y-159458329D01*
X104125131Y-159458329D02*
X103982274Y-159529758D01*
X103982274Y-159529758D02*
X103910846Y-159601186D01*
X103910846Y-159601186D02*
X103839417Y-159744043D01*
X103839417Y-159744043D02*
X103839417Y-160172615D01*
X103839417Y-160172615D02*
X103910846Y-160315472D01*
X103910846Y-160315472D02*
X103982274Y-160386901D01*
X103982274Y-160386901D02*
X104125131Y-160458329D01*
X104125131Y-160458329D02*
X104410846Y-160458329D01*
X104410846Y-160458329D02*
X104553703Y-160386901D01*
X103339417Y-159458329D02*
X102982274Y-160458329D01*
X102625131Y-159458329D02*
X102982274Y-160458329D01*
X102982274Y-160458329D02*
X103125131Y-160815472D01*
X103125131Y-160815472D02*
X103196560Y-160886901D01*
X103196560Y-160886901D02*
X103339417Y-160958329D01*
X100910846Y-160458329D02*
X100910846Y-158958329D01*
X100910846Y-158958329D02*
X100410846Y-160029758D01*
X100410846Y-160029758D02*
X99910846Y-158958329D01*
X99910846Y-158958329D02*
X99910846Y-160458329D01*
X99196560Y-160458329D02*
X99196560Y-159458329D01*
X99196560Y-158958329D02*
X99267988Y-159029758D01*
X99267988Y-159029758D02*
X99196560Y-159101186D01*
X99196560Y-159101186D02*
X99125131Y-159029758D01*
X99125131Y-159029758D02*
X99196560Y-158958329D01*
X99196560Y-158958329D02*
X99196560Y-159101186D01*
X97839417Y-160386901D02*
X97982274Y-160458329D01*
X97982274Y-160458329D02*
X98267988Y-160458329D01*
X98267988Y-160458329D02*
X98410845Y-160386901D01*
X98410845Y-160386901D02*
X98482274Y-160315472D01*
X98482274Y-160315472D02*
X98553702Y-160172615D01*
X98553702Y-160172615D02*
X98553702Y-159744043D01*
X98553702Y-159744043D02*
X98482274Y-159601186D01*
X98482274Y-159601186D02*
X98410845Y-159529758D01*
X98410845Y-159529758D02*
X98267988Y-159458329D01*
X98267988Y-159458329D02*
X97982274Y-159458329D01*
X97982274Y-159458329D02*
X97839417Y-159529758D01*
X97196560Y-160458329D02*
X97196560Y-158958329D01*
X96553703Y-160458329D02*
X96553703Y-159672615D01*
X96553703Y-159672615D02*
X96625131Y-159529758D01*
X96625131Y-159529758D02*
X96767988Y-159458329D01*
X96767988Y-159458329D02*
X96982274Y-159458329D01*
X96982274Y-159458329D02*
X97125131Y-159529758D01*
X97125131Y-159529758D02*
X97196560Y-159601186D01*
X95196560Y-160458329D02*
X95196560Y-159672615D01*
X95196560Y-159672615D02*
X95267988Y-159529758D01*
X95267988Y-159529758D02*
X95410845Y-159458329D01*
X95410845Y-159458329D02*
X95696560Y-159458329D01*
X95696560Y-159458329D02*
X95839417Y-159529758D01*
X95196560Y-160386901D02*
X95339417Y-160458329D01*
X95339417Y-160458329D02*
X95696560Y-160458329D01*
X95696560Y-160458329D02*
X95839417Y-160386901D01*
X95839417Y-160386901D02*
X95910845Y-160244043D01*
X95910845Y-160244043D02*
X95910845Y-160101186D01*
X95910845Y-160101186D02*
X95839417Y-159958329D01*
X95839417Y-159958329D02*
X95696560Y-159886901D01*
X95696560Y-159886901D02*
X95339417Y-159886901D01*
X95339417Y-159886901D02*
X95196560Y-159815472D01*
X93910845Y-160386901D02*
X94053702Y-160458329D01*
X94053702Y-160458329D02*
X94339417Y-160458329D01*
X94339417Y-160458329D02*
X94482274Y-160386901D01*
X94482274Y-160386901D02*
X94553702Y-160244043D01*
X94553702Y-160244043D02*
X94553702Y-159672615D01*
X94553702Y-159672615D02*
X94482274Y-159529758D01*
X94482274Y-159529758D02*
X94339417Y-159458329D01*
X94339417Y-159458329D02*
X94053702Y-159458329D01*
X94053702Y-159458329D02*
X93910845Y-159529758D01*
X93910845Y-159529758D02*
X93839417Y-159672615D01*
X93839417Y-159672615D02*
X93839417Y-159815472D01*
X93839417Y-159815472D02*
X94553702Y-159958329D01*
X92982274Y-160458329D02*
X93125131Y-160386901D01*
X93125131Y-160386901D02*
X93196560Y-160244043D01*
X93196560Y-160244043D02*
X93196560Y-158958329D01*
X91267989Y-160458329D02*
X91267989Y-158958329D01*
X90410846Y-160458329D02*
X91053703Y-159601186D01*
X90410846Y-158958329D02*
X91267989Y-159815472D01*
X89910846Y-159458329D02*
X89625132Y-160458329D01*
X89625132Y-160458329D02*
X89339417Y-159744043D01*
X89339417Y-159744043D02*
X89053703Y-160458329D01*
X89053703Y-160458329D02*
X88767989Y-159458329D01*
X88196560Y-160458329D02*
X88196560Y-159458329D01*
X88196560Y-158958329D02*
X88267988Y-159029758D01*
X88267988Y-159029758D02*
X88196560Y-159101186D01*
X88196560Y-159101186D02*
X88125131Y-159029758D01*
X88125131Y-159029758D02*
X88196560Y-158958329D01*
X88196560Y-158958329D02*
X88196560Y-159101186D01*
X86910845Y-160386901D02*
X87053702Y-160458329D01*
X87053702Y-160458329D02*
X87339417Y-160458329D01*
X87339417Y-160458329D02*
X87482274Y-160386901D01*
X87482274Y-160386901D02*
X87553702Y-160244043D01*
X87553702Y-160244043D02*
X87553702Y-159672615D01*
X87553702Y-159672615D02*
X87482274Y-159529758D01*
X87482274Y-159529758D02*
X87339417Y-159458329D01*
X87339417Y-159458329D02*
X87053702Y-159458329D01*
X87053702Y-159458329D02*
X86910845Y-159529758D01*
X86910845Y-159529758D02*
X86839417Y-159672615D01*
X86839417Y-159672615D02*
X86839417Y-159815472D01*
X86839417Y-159815472D02*
X87553702Y-159958329D01*
X85553703Y-160386901D02*
X85696560Y-160458329D01*
X85696560Y-160458329D02*
X85982274Y-160458329D01*
X85982274Y-160458329D02*
X86125131Y-160386901D01*
X86125131Y-160386901D02*
X86196560Y-160315472D01*
X86196560Y-160315472D02*
X86267988Y-160172615D01*
X86267988Y-160172615D02*
X86267988Y-159744043D01*
X86267988Y-159744043D02*
X86196560Y-159601186D01*
X86196560Y-159601186D02*
X86125131Y-159529758D01*
X86125131Y-159529758D02*
X85982274Y-159458329D01*
X85982274Y-159458329D02*
X85696560Y-159458329D01*
X85696560Y-159458329D02*
X85553703Y-159529758D01*
X84910846Y-160458329D02*
X84910846Y-159458329D01*
X84910846Y-158958329D02*
X84982274Y-159029758D01*
X84982274Y-159029758D02*
X84910846Y-159101186D01*
X84910846Y-159101186D02*
X84839417Y-159029758D01*
X84839417Y-159029758D02*
X84910846Y-158958329D01*
X84910846Y-158958329D02*
X84910846Y-159101186D01*
X83625131Y-160386901D02*
X83767988Y-160458329D01*
X83767988Y-160458329D02*
X84053703Y-160458329D01*
X84053703Y-160458329D02*
X84196560Y-160386901D01*
X84196560Y-160386901D02*
X84267988Y-160244043D01*
X84267988Y-160244043D02*
X84267988Y-159672615D01*
X84267988Y-159672615D02*
X84196560Y-159529758D01*
X84196560Y-159529758D02*
X84053703Y-159458329D01*
X84053703Y-159458329D02*
X83767988Y-159458329D01*
X83767988Y-159458329D02*
X83625131Y-159529758D01*
X83625131Y-159529758D02*
X83553703Y-159672615D01*
X83553703Y-159672615D02*
X83553703Y-159815472D01*
X83553703Y-159815472D02*
X84267988Y-159958329D01*
X82910846Y-159458329D02*
X82910846Y-160458329D01*
X82910846Y-159601186D02*
X82839417Y-159529758D01*
X82839417Y-159529758D02*
X82696560Y-159458329D01*
X82696560Y-159458329D02*
X82482274Y-159458329D01*
X82482274Y-159458329D02*
X82339417Y-159529758D01*
X82339417Y-159529758D02*
X82267989Y-159672615D01*
X82267989Y-159672615D02*
X82267989Y-160458329D01*
X81553703Y-159886901D02*
X80410846Y-159886901D01*
X79196560Y-159672615D02*
X79696560Y-159672615D01*
X79696560Y-160458329D02*
X79696560Y-158958329D01*
X79696560Y-158958329D02*
X78982274Y-158958329D01*
X78410846Y-160458329D02*
X78410846Y-159458329D01*
X78410846Y-158958329D02*
X78482274Y-159029758D01*
X78482274Y-159029758D02*
X78410846Y-159101186D01*
X78410846Y-159101186D02*
X78339417Y-159029758D01*
X78339417Y-159029758D02*
X78410846Y-158958329D01*
X78410846Y-158958329D02*
X78410846Y-159101186D01*
X77767988Y-160386901D02*
X77625131Y-160458329D01*
X77625131Y-160458329D02*
X77339417Y-160458329D01*
X77339417Y-160458329D02*
X77196560Y-160386901D01*
X77196560Y-160386901D02*
X77125131Y-160244043D01*
X77125131Y-160244043D02*
X77125131Y-160172615D01*
X77125131Y-160172615D02*
X77196560Y-160029758D01*
X77196560Y-160029758D02*
X77339417Y-159958329D01*
X77339417Y-159958329D02*
X77553703Y-159958329D01*
X77553703Y-159958329D02*
X77696560Y-159886901D01*
X77696560Y-159886901D02*
X77767988Y-159744043D01*
X77767988Y-159744043D02*
X77767988Y-159672615D01*
X77767988Y-159672615D02*
X77696560Y-159529758D01*
X77696560Y-159529758D02*
X77553703Y-159458329D01*
X77553703Y-159458329D02*
X77339417Y-159458329D01*
X77339417Y-159458329D02*
X77196560Y-159529758D01*
X76482274Y-160458329D02*
X76482274Y-158958329D01*
X75839417Y-160458329D02*
X75839417Y-159672615D01*
X75839417Y-159672615D02*
X75910845Y-159529758D01*
X75910845Y-159529758D02*
X76053702Y-159458329D01*
X76053702Y-159458329D02*
X76267988Y-159458329D01*
X76267988Y-159458329D02*
X76410845Y-159529758D01*
X76410845Y-159529758D02*
X76482274Y-159601186D01*
X74553702Y-160386901D02*
X74696559Y-160458329D01*
X74696559Y-160458329D02*
X74982274Y-160458329D01*
X74982274Y-160458329D02*
X75125131Y-160386901D01*
X75125131Y-160386901D02*
X75196559Y-160244043D01*
X75196559Y-160244043D02*
X75196559Y-159672615D01*
X75196559Y-159672615D02*
X75125131Y-159529758D01*
X75125131Y-159529758D02*
X74982274Y-159458329D01*
X74982274Y-159458329D02*
X74696559Y-159458329D01*
X74696559Y-159458329D02*
X74553702Y-159529758D01*
X74553702Y-159529758D02*
X74482274Y-159672615D01*
X74482274Y-159672615D02*
X74482274Y-159815472D01*
X74482274Y-159815472D02*
X75196559Y-159958329D01*
X73839417Y-160458329D02*
X73839417Y-159458329D01*
X73839417Y-159744043D02*
X73767988Y-159601186D01*
X73767988Y-159601186D02*
X73696560Y-159529758D01*
X73696560Y-159529758D02*
X73553702Y-159458329D01*
X73553702Y-159458329D02*
X73410845Y-159458329D01*
X54448439Y-92955515D02*
X54591297Y-92884086D01*
X54591297Y-92884086D02*
X54805582Y-92884086D01*
X54805582Y-92884086D02*
X55019868Y-92955515D01*
X55019868Y-92955515D02*
X55162725Y-93098372D01*
X55162725Y-93098372D02*
X55234154Y-93241229D01*
X55234154Y-93241229D02*
X55305582Y-93526943D01*
X55305582Y-93526943D02*
X55305582Y-93741229D01*
X55305582Y-93741229D02*
X55234154Y-94026943D01*
X55234154Y-94026943D02*
X55162725Y-94169800D01*
X55162725Y-94169800D02*
X55019868Y-94312658D01*
X55019868Y-94312658D02*
X54805582Y-94384086D01*
X54805582Y-94384086D02*
X54662725Y-94384086D01*
X54662725Y-94384086D02*
X54448439Y-94312658D01*
X54448439Y-94312658D02*
X54377011Y-94241229D01*
X54377011Y-94241229D02*
X54377011Y-93741229D01*
X54377011Y-93741229D02*
X54662725Y-93741229D01*
X53734154Y-94384086D02*
X53734154Y-92884086D01*
X53734154Y-92884086D02*
X52877011Y-94384086D01*
X52877011Y-94384086D02*
X52877011Y-92884086D01*
X52162725Y-94384086D02*
X52162725Y-92884086D01*
X52162725Y-92884086D02*
X51805582Y-92884086D01*
X51805582Y-92884086D02*
X51591296Y-92955515D01*
X51591296Y-92955515D02*
X51448439Y-93098372D01*
X51448439Y-93098372D02*
X51377010Y-93241229D01*
X51377010Y-93241229D02*
X51305582Y-93526943D01*
X51305582Y-93526943D02*
X51305582Y-93741229D01*
X51305582Y-93741229D02*
X51377010Y-94026943D01*
X51377010Y-94026943D02*
X51448439Y-94169800D01*
X51448439Y-94169800D02*
X51591296Y-94312658D01*
X51591296Y-94312658D02*
X51805582Y-94384086D01*
X51805582Y-94384086D02*
X52162725Y-94384086D01*
X54948438Y-95299002D02*
X54019866Y-95299002D01*
X54019866Y-95299002D02*
X54519866Y-95870431D01*
X54519866Y-95870431D02*
X54305581Y-95870431D01*
X54305581Y-95870431D02*
X54162724Y-95941859D01*
X54162724Y-95941859D02*
X54091295Y-96013288D01*
X54091295Y-96013288D02*
X54019866Y-96156145D01*
X54019866Y-96156145D02*
X54019866Y-96513288D01*
X54019866Y-96513288D02*
X54091295Y-96656145D01*
X54091295Y-96656145D02*
X54162724Y-96727574D01*
X54162724Y-96727574D02*
X54305581Y-96799002D01*
X54305581Y-96799002D02*
X54734152Y-96799002D01*
X54734152Y-96799002D02*
X54877009Y-96727574D01*
X54877009Y-96727574D02*
X54948438Y-96656145D01*
X53591295Y-95299002D02*
X53091295Y-96799002D01*
X53091295Y-96799002D02*
X52591295Y-95299002D01*
X52234153Y-95299002D02*
X51305581Y-95299002D01*
X51305581Y-95299002D02*
X51805581Y-95870431D01*
X51805581Y-95870431D02*
X51591296Y-95870431D01*
X51591296Y-95870431D02*
X51448439Y-95941859D01*
X51448439Y-95941859D02*
X51377010Y-96013288D01*
X51377010Y-96013288D02*
X51305581Y-96156145D01*
X51305581Y-96156145D02*
X51305581Y-96513288D01*
X51305581Y-96513288D02*
X51377010Y-96656145D01*
X51377010Y-96656145D02*
X51448439Y-96727574D01*
X51448439Y-96727574D02*
X51591296Y-96799002D01*
X51591296Y-96799002D02*
X52019867Y-96799002D01*
X52019867Y-96799002D02*
X52162724Y-96727574D01*
X52162724Y-96727574D02*
X52234153Y-96656145D01*
X52662724Y-97713918D02*
X53377010Y-97713918D01*
X53377010Y-97713918D02*
X53448438Y-98428204D01*
X53448438Y-98428204D02*
X53377010Y-98356775D01*
X53377010Y-98356775D02*
X53234153Y-98285347D01*
X53234153Y-98285347D02*
X52877010Y-98285347D01*
X52877010Y-98285347D02*
X52734153Y-98356775D01*
X52734153Y-98356775D02*
X52662724Y-98428204D01*
X52662724Y-98428204D02*
X52591295Y-98571061D01*
X52591295Y-98571061D02*
X52591295Y-98928204D01*
X52591295Y-98928204D02*
X52662724Y-99071061D01*
X52662724Y-99071061D02*
X52734153Y-99142490D01*
X52734153Y-99142490D02*
X52877010Y-99213918D01*
X52877010Y-99213918D02*
X53234153Y-99213918D01*
X53234153Y-99213918D02*
X53377010Y-99142490D01*
X53377010Y-99142490D02*
X53448438Y-99071061D01*
X52162724Y-97713918D02*
X51662724Y-99213918D01*
X51662724Y-99213918D02*
X51162724Y-97713918D01*
X54877010Y-101557406D02*
X54662725Y-101628834D01*
X54662725Y-101628834D02*
X54305582Y-101628834D01*
X54305582Y-101628834D02*
X54162725Y-101557406D01*
X54162725Y-101557406D02*
X54091296Y-101485977D01*
X54091296Y-101485977D02*
X54019867Y-101343120D01*
X54019867Y-101343120D02*
X54019867Y-101200263D01*
X54019867Y-101200263D02*
X54091296Y-101057406D01*
X54091296Y-101057406D02*
X54162725Y-100985977D01*
X54162725Y-100985977D02*
X54305582Y-100914548D01*
X54305582Y-100914548D02*
X54591296Y-100843120D01*
X54591296Y-100843120D02*
X54734153Y-100771691D01*
X54734153Y-100771691D02*
X54805582Y-100700263D01*
X54805582Y-100700263D02*
X54877010Y-100557406D01*
X54877010Y-100557406D02*
X54877010Y-100414548D01*
X54877010Y-100414548D02*
X54805582Y-100271691D01*
X54805582Y-100271691D02*
X54734153Y-100200263D01*
X54734153Y-100200263D02*
X54591296Y-100128834D01*
X54591296Y-100128834D02*
X54234153Y-100128834D01*
X54234153Y-100128834D02*
X54019867Y-100200263D01*
X52519868Y-101485977D02*
X52591296Y-101557406D01*
X52591296Y-101557406D02*
X52805582Y-101628834D01*
X52805582Y-101628834D02*
X52948439Y-101628834D01*
X52948439Y-101628834D02*
X53162725Y-101557406D01*
X53162725Y-101557406D02*
X53305582Y-101414548D01*
X53305582Y-101414548D02*
X53377011Y-101271691D01*
X53377011Y-101271691D02*
X53448439Y-100985977D01*
X53448439Y-100985977D02*
X53448439Y-100771691D01*
X53448439Y-100771691D02*
X53377011Y-100485977D01*
X53377011Y-100485977D02*
X53305582Y-100343120D01*
X53305582Y-100343120D02*
X53162725Y-100200263D01*
X53162725Y-100200263D02*
X52948439Y-100128834D01*
X52948439Y-100128834D02*
X52805582Y-100128834D01*
X52805582Y-100128834D02*
X52591296Y-100200263D01*
X52591296Y-100200263D02*
X52519868Y-100271691D01*
X51162725Y-101628834D02*
X51877011Y-101628834D01*
X51877011Y-101628834D02*
X51877011Y-100128834D01*
X54948438Y-103972322D02*
X54734153Y-104043750D01*
X54734153Y-104043750D02*
X54377010Y-104043750D01*
X54377010Y-104043750D02*
X54234153Y-103972322D01*
X54234153Y-103972322D02*
X54162724Y-103900893D01*
X54162724Y-103900893D02*
X54091295Y-103758036D01*
X54091295Y-103758036D02*
X54091295Y-103615179D01*
X54091295Y-103615179D02*
X54162724Y-103472322D01*
X54162724Y-103472322D02*
X54234153Y-103400893D01*
X54234153Y-103400893D02*
X54377010Y-103329464D01*
X54377010Y-103329464D02*
X54662724Y-103258036D01*
X54662724Y-103258036D02*
X54805581Y-103186607D01*
X54805581Y-103186607D02*
X54877010Y-103115179D01*
X54877010Y-103115179D02*
X54948438Y-102972322D01*
X54948438Y-102972322D02*
X54948438Y-102829464D01*
X54948438Y-102829464D02*
X54877010Y-102686607D01*
X54877010Y-102686607D02*
X54805581Y-102615179D01*
X54805581Y-102615179D02*
X54662724Y-102543750D01*
X54662724Y-102543750D02*
X54305581Y-102543750D01*
X54305581Y-102543750D02*
X54091295Y-102615179D01*
X53448439Y-104043750D02*
X53448439Y-102543750D01*
X53448439Y-102543750D02*
X53091296Y-102543750D01*
X53091296Y-102543750D02*
X52877010Y-102615179D01*
X52877010Y-102615179D02*
X52734153Y-102758036D01*
X52734153Y-102758036D02*
X52662724Y-102900893D01*
X52662724Y-102900893D02*
X52591296Y-103186607D01*
X52591296Y-103186607D02*
X52591296Y-103400893D01*
X52591296Y-103400893D02*
X52662724Y-103686607D01*
X52662724Y-103686607D02*
X52734153Y-103829464D01*
X52734153Y-103829464D02*
X52877010Y-103972322D01*
X52877010Y-103972322D02*
X53091296Y-104043750D01*
X53091296Y-104043750D02*
X53448439Y-104043750D01*
X52019867Y-103615179D02*
X51305582Y-103615179D01*
X52162724Y-104043750D02*
X51662724Y-102543750D01*
X51662724Y-102543750D02*
X51162724Y-104043750D01*
X54877010Y-106458666D02*
X54877010Y-104958666D01*
X54877010Y-104958666D02*
X54305581Y-104958666D01*
X54305581Y-104958666D02*
X54162724Y-105030095D01*
X54162724Y-105030095D02*
X54091295Y-105101523D01*
X54091295Y-105101523D02*
X54019867Y-105244380D01*
X54019867Y-105244380D02*
X54019867Y-105458666D01*
X54019867Y-105458666D02*
X54091295Y-105601523D01*
X54091295Y-105601523D02*
X54162724Y-105672952D01*
X54162724Y-105672952D02*
X54305581Y-105744380D01*
X54305581Y-105744380D02*
X54877010Y-105744380D01*
X53448438Y-106030095D02*
X52734153Y-106030095D01*
X53591295Y-106458666D02*
X53091295Y-104958666D01*
X53091295Y-104958666D02*
X52591295Y-106458666D01*
X51377010Y-104958666D02*
X52091296Y-104958666D01*
X52091296Y-104958666D02*
X52162724Y-105672952D01*
X52162724Y-105672952D02*
X52091296Y-105601523D01*
X52091296Y-105601523D02*
X51948439Y-105530095D01*
X51948439Y-105530095D02*
X51591296Y-105530095D01*
X51591296Y-105530095D02*
X51448439Y-105601523D01*
X51448439Y-105601523D02*
X51377010Y-105672952D01*
X51377010Y-105672952D02*
X51305581Y-105815809D01*
X51305581Y-105815809D02*
X51305581Y-106172952D01*
X51305581Y-106172952D02*
X51377010Y-106315809D01*
X51377010Y-106315809D02*
X51448439Y-106387238D01*
X51448439Y-106387238D02*
X51591296Y-106458666D01*
X51591296Y-106458666D02*
X51948439Y-106458666D01*
X51948439Y-106458666D02*
X52091296Y-106387238D01*
X52091296Y-106387238D02*
X52162724Y-106315809D01*
X56305581Y-108873582D02*
X56305581Y-107373582D01*
X56305581Y-107373582D02*
X55734152Y-107373582D01*
X55734152Y-107373582D02*
X55591295Y-107445011D01*
X55591295Y-107445011D02*
X55519866Y-107516439D01*
X55519866Y-107516439D02*
X55448438Y-107659296D01*
X55448438Y-107659296D02*
X55448438Y-107873582D01*
X55448438Y-107873582D02*
X55519866Y-108016439D01*
X55519866Y-108016439D02*
X55591295Y-108087868D01*
X55591295Y-108087868D02*
X55734152Y-108159296D01*
X55734152Y-108159296D02*
X56305581Y-108159296D01*
X54877009Y-108445011D02*
X54162724Y-108445011D01*
X55019866Y-108873582D02*
X54519866Y-107373582D01*
X54519866Y-107373582D02*
X54019866Y-108873582D01*
X52734152Y-108873582D02*
X53591295Y-108873582D01*
X53162724Y-108873582D02*
X53162724Y-107373582D01*
X53162724Y-107373582D02*
X53305581Y-107587868D01*
X53305581Y-107587868D02*
X53448438Y-107730725D01*
X53448438Y-107730725D02*
X53591295Y-107802154D01*
X51305581Y-108873582D02*
X52162724Y-108873582D01*
X51734153Y-108873582D02*
X51734153Y-107373582D01*
X51734153Y-107373582D02*
X51877010Y-107587868D01*
X51877010Y-107587868D02*
X52019867Y-107730725D01*
X52019867Y-107730725D02*
X52162724Y-107802154D01*
X58019868Y-111288498D02*
X58519868Y-110574212D01*
X58877011Y-111288498D02*
X58877011Y-109788498D01*
X58877011Y-109788498D02*
X58305582Y-109788498D01*
X58305582Y-109788498D02*
X58162725Y-109859927D01*
X58162725Y-109859927D02*
X58091296Y-109931355D01*
X58091296Y-109931355D02*
X58019868Y-110074212D01*
X58019868Y-110074212D02*
X58019868Y-110288498D01*
X58019868Y-110288498D02*
X58091296Y-110431355D01*
X58091296Y-110431355D02*
X58162725Y-110502784D01*
X58162725Y-110502784D02*
X58305582Y-110574212D01*
X58305582Y-110574212D02*
X58877011Y-110574212D01*
X56805582Y-111217070D02*
X56948439Y-111288498D01*
X56948439Y-111288498D02*
X57234154Y-111288498D01*
X57234154Y-111288498D02*
X57377011Y-111217070D01*
X57377011Y-111217070D02*
X57448439Y-111074212D01*
X57448439Y-111074212D02*
X57448439Y-110502784D01*
X57448439Y-110502784D02*
X57377011Y-110359927D01*
X57377011Y-110359927D02*
X57234154Y-110288498D01*
X57234154Y-110288498D02*
X56948439Y-110288498D01*
X56948439Y-110288498D02*
X56805582Y-110359927D01*
X56805582Y-110359927D02*
X56734154Y-110502784D01*
X56734154Y-110502784D02*
X56734154Y-110645641D01*
X56734154Y-110645641D02*
X57448439Y-110788498D01*
X55448440Y-111288498D02*
X55448440Y-109788498D01*
X55448440Y-111217070D02*
X55591297Y-111288498D01*
X55591297Y-111288498D02*
X55877011Y-111288498D01*
X55877011Y-111288498D02*
X56019868Y-111217070D01*
X56019868Y-111217070D02*
X56091297Y-111145641D01*
X56091297Y-111145641D02*
X56162725Y-111002784D01*
X56162725Y-111002784D02*
X56162725Y-110574212D01*
X56162725Y-110574212D02*
X56091297Y-110431355D01*
X56091297Y-110431355D02*
X56019868Y-110359927D01*
X56019868Y-110359927D02*
X55877011Y-110288498D01*
X55877011Y-110288498D02*
X55591297Y-110288498D01*
X55591297Y-110288498D02*
X55448440Y-110359927D01*
X54019868Y-111288498D02*
X54734154Y-111288498D01*
X54734154Y-111288498D02*
X54734154Y-109788498D01*
X53519868Y-110502784D02*
X53019868Y-110502784D01*
X52805582Y-111288498D02*
X53519868Y-111288498D01*
X53519868Y-111288498D02*
X53519868Y-109788498D01*
X53519868Y-109788498D02*
X52805582Y-109788498D01*
X52162725Y-111288498D02*
X52162725Y-109788498D01*
X52162725Y-109788498D02*
X51805582Y-109788498D01*
X51805582Y-109788498D02*
X51591296Y-109859927D01*
X51591296Y-109859927D02*
X51448439Y-110002784D01*
X51448439Y-110002784D02*
X51377010Y-110145641D01*
X51377010Y-110145641D02*
X51305582Y-110431355D01*
X51305582Y-110431355D02*
X51305582Y-110645641D01*
X51305582Y-110645641D02*
X51377010Y-110931355D01*
X51377010Y-110931355D02*
X51448439Y-111074212D01*
X51448439Y-111074212D02*
X51591296Y-111217070D01*
X51591296Y-111217070D02*
X51805582Y-111288498D01*
X51805582Y-111288498D02*
X52162725Y-111288498D01*
X65519869Y-113703414D02*
X65519869Y-112203414D01*
X65519869Y-112203414D02*
X64662726Y-113703414D01*
X64662726Y-113703414D02*
X64662726Y-112203414D01*
X63377011Y-113631986D02*
X63519868Y-113703414D01*
X63519868Y-113703414D02*
X63805583Y-113703414D01*
X63805583Y-113703414D02*
X63948440Y-113631986D01*
X63948440Y-113631986D02*
X64019868Y-113489128D01*
X64019868Y-113489128D02*
X64019868Y-112917700D01*
X64019868Y-112917700D02*
X63948440Y-112774843D01*
X63948440Y-112774843D02*
X63805583Y-112703414D01*
X63805583Y-112703414D02*
X63519868Y-112703414D01*
X63519868Y-112703414D02*
X63377011Y-112774843D01*
X63377011Y-112774843D02*
X63305583Y-112917700D01*
X63305583Y-112917700D02*
X63305583Y-113060557D01*
X63305583Y-113060557D02*
X64019868Y-113203414D01*
X62448440Y-113703414D02*
X62591297Y-113631986D01*
X62591297Y-113631986D02*
X62662726Y-113560557D01*
X62662726Y-113560557D02*
X62734154Y-113417700D01*
X62734154Y-113417700D02*
X62734154Y-112989128D01*
X62734154Y-112989128D02*
X62662726Y-112846271D01*
X62662726Y-112846271D02*
X62591297Y-112774843D01*
X62591297Y-112774843D02*
X62448440Y-112703414D01*
X62448440Y-112703414D02*
X62234154Y-112703414D01*
X62234154Y-112703414D02*
X62091297Y-112774843D01*
X62091297Y-112774843D02*
X62019869Y-112846271D01*
X62019869Y-112846271D02*
X61948440Y-112989128D01*
X61948440Y-112989128D02*
X61948440Y-113417700D01*
X61948440Y-113417700D02*
X62019869Y-113560557D01*
X62019869Y-113560557D02*
X62091297Y-113631986D01*
X62091297Y-113631986D02*
X62234154Y-113703414D01*
X62234154Y-113703414D02*
X62448440Y-113703414D01*
X61305583Y-112703414D02*
X61305583Y-114203414D01*
X61305583Y-112774843D02*
X61162726Y-112703414D01*
X61162726Y-112703414D02*
X60877011Y-112703414D01*
X60877011Y-112703414D02*
X60734154Y-112774843D01*
X60734154Y-112774843D02*
X60662726Y-112846271D01*
X60662726Y-112846271D02*
X60591297Y-112989128D01*
X60591297Y-112989128D02*
X60591297Y-113417700D01*
X60591297Y-113417700D02*
X60662726Y-113560557D01*
X60662726Y-113560557D02*
X60734154Y-113631986D01*
X60734154Y-113631986D02*
X60877011Y-113703414D01*
X60877011Y-113703414D02*
X61162726Y-113703414D01*
X61162726Y-113703414D02*
X61305583Y-113631986D01*
X59948440Y-113703414D02*
X59948440Y-112703414D01*
X59948440Y-112203414D02*
X60019868Y-112274843D01*
X60019868Y-112274843D02*
X59948440Y-112346271D01*
X59948440Y-112346271D02*
X59877011Y-112274843D01*
X59877011Y-112274843D02*
X59948440Y-112203414D01*
X59948440Y-112203414D02*
X59948440Y-112346271D01*
X59377011Y-113703414D02*
X58591297Y-112703414D01*
X59377011Y-112703414D02*
X58591297Y-113703414D01*
X57448439Y-113631986D02*
X57591296Y-113703414D01*
X57591296Y-113703414D02*
X57877011Y-113703414D01*
X57877011Y-113703414D02*
X58019868Y-113631986D01*
X58019868Y-113631986D02*
X58091296Y-113489128D01*
X58091296Y-113489128D02*
X58091296Y-112917700D01*
X58091296Y-112917700D02*
X58019868Y-112774843D01*
X58019868Y-112774843D02*
X57877011Y-112703414D01*
X57877011Y-112703414D02*
X57591296Y-112703414D01*
X57591296Y-112703414D02*
X57448439Y-112774843D01*
X57448439Y-112774843D02*
X57377011Y-112917700D01*
X57377011Y-112917700D02*
X57377011Y-113060557D01*
X57377011Y-113060557D02*
X58091296Y-113203414D01*
X56519868Y-113703414D02*
X56662725Y-113631986D01*
X56662725Y-113631986D02*
X56734154Y-113489128D01*
X56734154Y-113489128D02*
X56734154Y-112203414D01*
X56019868Y-113631986D02*
X55877011Y-113703414D01*
X55877011Y-113703414D02*
X55591297Y-113703414D01*
X55591297Y-113703414D02*
X55448440Y-113631986D01*
X55448440Y-113631986D02*
X55377011Y-113489128D01*
X55377011Y-113489128D02*
X55377011Y-113417700D01*
X55377011Y-113417700D02*
X55448440Y-113274843D01*
X55448440Y-113274843D02*
X55591297Y-113203414D01*
X55591297Y-113203414D02*
X55805583Y-113203414D01*
X55805583Y-113203414D02*
X55948440Y-113131986D01*
X55948440Y-113131986D02*
X56019868Y-112989128D01*
X56019868Y-112989128D02*
X56019868Y-112917700D01*
X56019868Y-112917700D02*
X55948440Y-112774843D01*
X55948440Y-112774843D02*
X55805583Y-112703414D01*
X55805583Y-112703414D02*
X55591297Y-112703414D01*
X55591297Y-112703414D02*
X55448440Y-112774843D01*
X54734154Y-112917700D02*
X54234154Y-112917700D01*
X54019868Y-113703414D02*
X54734154Y-113703414D01*
X54734154Y-113703414D02*
X54734154Y-112203414D01*
X54734154Y-112203414D02*
X54019868Y-112203414D01*
X53377011Y-112703414D02*
X53377011Y-113703414D01*
X53377011Y-112846271D02*
X53305582Y-112774843D01*
X53305582Y-112774843D02*
X53162725Y-112703414D01*
X53162725Y-112703414D02*
X52948439Y-112703414D01*
X52948439Y-112703414D02*
X52805582Y-112774843D01*
X52805582Y-112774843D02*
X52734154Y-112917700D01*
X52734154Y-112917700D02*
X52734154Y-113703414D01*
X51377011Y-113703414D02*
X51377011Y-112203414D01*
X51377011Y-113631986D02*
X51519868Y-113703414D01*
X51519868Y-113703414D02*
X51805582Y-113703414D01*
X51805582Y-113703414D02*
X51948439Y-113631986D01*
X51948439Y-113631986D02*
X52019868Y-113560557D01*
X52019868Y-113560557D02*
X52091296Y-113417700D01*
X52091296Y-113417700D02*
X52091296Y-112989128D01*
X52091296Y-112989128D02*
X52019868Y-112846271D01*
X52019868Y-112846271D02*
X51948439Y-112774843D01*
X51948439Y-112774843D02*
X51805582Y-112703414D01*
X51805582Y-112703414D02*
X51519868Y-112703414D01*
X51519868Y-112703414D02*
X51377011Y-112774843D01*
X57662725Y-115332616D02*
X57448439Y-115404044D01*
X57448439Y-115404044D02*
X57377010Y-115475473D01*
X57377010Y-115475473D02*
X57305582Y-115618330D01*
X57305582Y-115618330D02*
X57305582Y-115832616D01*
X57305582Y-115832616D02*
X57377010Y-115975473D01*
X57377010Y-115975473D02*
X57448439Y-116046902D01*
X57448439Y-116046902D02*
X57591296Y-116118330D01*
X57591296Y-116118330D02*
X58162725Y-116118330D01*
X58162725Y-116118330D02*
X58162725Y-114618330D01*
X58162725Y-114618330D02*
X57662725Y-114618330D01*
X57662725Y-114618330D02*
X57519868Y-114689759D01*
X57519868Y-114689759D02*
X57448439Y-114761187D01*
X57448439Y-114761187D02*
X57377010Y-114904044D01*
X57377010Y-114904044D02*
X57377010Y-115046902D01*
X57377010Y-115046902D02*
X57448439Y-115189759D01*
X57448439Y-115189759D02*
X57519868Y-115261187D01*
X57519868Y-115261187D02*
X57662725Y-115332616D01*
X57662725Y-115332616D02*
X58162725Y-115332616D01*
X56019868Y-115118330D02*
X56019868Y-116118330D01*
X56662725Y-115118330D02*
X56662725Y-115904044D01*
X56662725Y-115904044D02*
X56591296Y-116046902D01*
X56591296Y-116046902D02*
X56448439Y-116118330D01*
X56448439Y-116118330D02*
X56234153Y-116118330D01*
X56234153Y-116118330D02*
X56091296Y-116046902D01*
X56091296Y-116046902D02*
X56019868Y-115975473D01*
X55448439Y-115118330D02*
X54662725Y-115118330D01*
X54662725Y-115118330D02*
X55448439Y-116118330D01*
X55448439Y-116118330D02*
X54662725Y-116118330D01*
X54234153Y-115118330D02*
X53448439Y-115118330D01*
X53448439Y-115118330D02*
X54234153Y-116118330D01*
X54234153Y-116118330D02*
X53448439Y-116118330D01*
X52305581Y-116046902D02*
X52448438Y-116118330D01*
X52448438Y-116118330D02*
X52734153Y-116118330D01*
X52734153Y-116118330D02*
X52877010Y-116046902D01*
X52877010Y-116046902D02*
X52948438Y-115904044D01*
X52948438Y-115904044D02*
X52948438Y-115332616D01*
X52948438Y-115332616D02*
X52877010Y-115189759D01*
X52877010Y-115189759D02*
X52734153Y-115118330D01*
X52734153Y-115118330D02*
X52448438Y-115118330D01*
X52448438Y-115118330D02*
X52305581Y-115189759D01*
X52305581Y-115189759D02*
X52234153Y-115332616D01*
X52234153Y-115332616D02*
X52234153Y-115475473D01*
X52234153Y-115475473D02*
X52948438Y-115618330D01*
X51591296Y-116118330D02*
X51591296Y-115118330D01*
X51591296Y-115404044D02*
X51519867Y-115261187D01*
X51519867Y-115261187D02*
X51448439Y-115189759D01*
X51448439Y-115189759D02*
X51305581Y-115118330D01*
X51305581Y-115118330D02*
X51162724Y-115118330D01*
D12*
X94537319Y-70935595D02*
X93537319Y-70935595D01*
X94537319Y-71507023D02*
X93965890Y-71078452D01*
X93537319Y-71507023D02*
X94108747Y-70935595D01*
X103837319Y-70935595D02*
X102837319Y-70935595D01*
X103837319Y-71507023D02*
X103265890Y-71078452D01*
X102837319Y-71507023D02*
X103408747Y-70935595D01*
X100737319Y-70935595D02*
X99737319Y-70935595D01*
X100737319Y-71507023D02*
X100165890Y-71078452D01*
X99737319Y-71507023D02*
X100308747Y-70935595D01*
X75937319Y-70935595D02*
X74937319Y-70935595D01*
X75937319Y-71507023D02*
X75365890Y-71078452D01*
X74937319Y-71507023D02*
X75508747Y-70935595D01*
X125537319Y-70935595D02*
X124537319Y-70935595D01*
X125537319Y-71507023D02*
X124965890Y-71078452D01*
X124537319Y-71507023D02*
X125108747Y-70935595D01*
X79037319Y-70935595D02*
X78037319Y-70935595D01*
X79037319Y-71507023D02*
X78465890Y-71078452D01*
X78037319Y-71507023D02*
X78608747Y-70935595D01*
X82137319Y-70935595D02*
X81137319Y-70935595D01*
X82137319Y-71507023D02*
X81565890Y-71078452D01*
X81137319Y-71507023D02*
X81708747Y-70935595D01*
X110037319Y-70935595D02*
X109037319Y-70935595D01*
X110037319Y-71507023D02*
X109465890Y-71078452D01*
X109037319Y-71507023D02*
X109608747Y-70935595D01*
X91437319Y-70935595D02*
X90437319Y-70935595D01*
X91437319Y-71507023D02*
X90865890Y-71078452D01*
X90437319Y-71507023D02*
X91008747Y-70935595D01*
X88337319Y-70935595D02*
X87337319Y-70935595D01*
X88337319Y-71507023D02*
X87765890Y-71078452D01*
X87337319Y-71507023D02*
X87908747Y-70935595D01*
X106937319Y-70935595D02*
X105937319Y-70935595D01*
X106937319Y-71507023D02*
X106365890Y-71078452D01*
X105937319Y-71507023D02*
X106508747Y-70935595D01*
X122437319Y-70935595D02*
X121437319Y-70935595D01*
X122437319Y-71507023D02*
X121865890Y-71078452D01*
X121437319Y-71507023D02*
X122008747Y-70935595D01*
X116237319Y-70935595D02*
X115237319Y-70935595D01*
X116237319Y-71507023D02*
X115665890Y-71078452D01*
X115237319Y-71507023D02*
X115808747Y-70935595D01*
X119337319Y-70935595D02*
X118337319Y-70935595D01*
X119337319Y-71507023D02*
X118765890Y-71078452D01*
X118337319Y-71507023D02*
X118908747Y-70935595D01*
X97637319Y-70935595D02*
X96637319Y-70935595D01*
X97637319Y-71507023D02*
X97065890Y-71078452D01*
X96637319Y-71507023D02*
X97208747Y-70935595D01*
X85237319Y-70935595D02*
X84237319Y-70935595D01*
X85237319Y-71507023D02*
X84665890Y-71078452D01*
X84237319Y-71507023D02*
X84808747Y-70935595D01*
X113137319Y-70935595D02*
X112137319Y-70935595D01*
X113137319Y-71507023D02*
X112565890Y-71078452D01*
X112137319Y-71507023D02*
X112708747Y-70935595D01*
D13*
G04 #@! TO.C,D29*
X128097500Y-90792499D02*
X127197500Y-90792499D01*
X128097500Y-89892499D01*
X128097500Y-90792499D01*
G36*
X128097500Y-90792499D02*
G01*
X127197500Y-90792499D01*
X128097500Y-89892499D01*
X128097500Y-90792499D01*
G37*
G04 #@! TO.C,D22*
X89997500Y-109842499D02*
X89097500Y-109842499D01*
X89997500Y-108942499D01*
X89997500Y-109842499D01*
G36*
X89997500Y-109842499D02*
G01*
X89097500Y-109842499D01*
X89997500Y-108942499D01*
X89997500Y-109842499D01*
G37*
G04 #@! TO.C,D30*
X128097500Y-109842499D02*
X127197500Y-109842499D01*
X128097500Y-108942499D01*
X128097500Y-109842499D01*
G36*
X128097500Y-109842499D02*
G01*
X127197500Y-109842499D01*
X128097500Y-108942499D01*
X128097500Y-109842499D01*
G37*
G04 #@! TO.C,D26*
X109047500Y-109842499D02*
X108147500Y-109842499D01*
X109047500Y-108942499D01*
X109047500Y-109842499D01*
G36*
X109047500Y-109842499D02*
G01*
X108147500Y-109842499D01*
X109047500Y-108942499D01*
X109047500Y-109842499D01*
G37*
G04 #@! TO.C,D28*
X109047500Y-147942499D02*
X108147500Y-147942499D01*
X109047500Y-147042499D01*
X109047500Y-147942499D01*
G36*
X109047500Y-147942499D02*
G01*
X108147500Y-147942499D01*
X109047500Y-147042499D01*
X109047500Y-147942499D01*
G37*
G04 #@! TO.C,D18*
X70947500Y-109842499D02*
X70047500Y-109842499D01*
X70947500Y-108942499D01*
X70947500Y-109842499D01*
G36*
X70947500Y-109842499D02*
G01*
X70047500Y-109842499D01*
X70947500Y-108942499D01*
X70947500Y-109842499D01*
G37*
G04 #@! TO.C,D19*
X70947500Y-128892499D02*
X70047500Y-128892499D01*
X70947500Y-127992499D01*
X70947500Y-128892499D01*
G36*
X70947500Y-128892499D02*
G01*
X70047500Y-128892499D01*
X70947500Y-127992499D01*
X70947500Y-128892499D01*
G37*
G04 #@! TO.C,D31*
X128097500Y-128892499D02*
X127197500Y-128892499D01*
X128097500Y-127992499D01*
X128097500Y-128892499D01*
G36*
X128097500Y-128892499D02*
G01*
X127197500Y-128892499D01*
X128097500Y-127992499D01*
X128097500Y-128892499D01*
G37*
G04 #@! TO.C,D24*
X89997500Y-147942499D02*
X89097500Y-147942499D01*
X89997500Y-147042499D01*
X89997500Y-147942499D01*
G36*
X89997500Y-147942499D02*
G01*
X89097500Y-147942499D01*
X89997500Y-147042499D01*
X89997500Y-147942499D01*
G37*
G04 #@! TO.C,D32*
X128097500Y-147942499D02*
X127197500Y-147942499D01*
X128097500Y-147042499D01*
X128097500Y-147942499D01*
G36*
X128097500Y-147942499D02*
G01*
X127197500Y-147942499D01*
X128097500Y-147042499D01*
X128097500Y-147942499D01*
G37*
G04 #@! TO.C,D23*
X89997500Y-128892499D02*
X89097500Y-128892499D01*
X89997500Y-127992499D01*
X89997500Y-128892499D01*
G36*
X89997500Y-128892499D02*
G01*
X89097500Y-128892499D01*
X89997500Y-127992499D01*
X89997500Y-128892499D01*
G37*
G04 #@! TO.C,D25*
X109047500Y-90792499D02*
X108147500Y-90792499D01*
X109047500Y-89892499D01*
X109047500Y-90792499D01*
G36*
X109047500Y-90792499D02*
G01*
X108147500Y-90792499D01*
X109047500Y-89892499D01*
X109047500Y-90792499D01*
G37*
G04 #@! TO.C,D21*
X89997500Y-90792499D02*
X89097500Y-90792499D01*
X89997500Y-89892499D01*
X89997500Y-90792499D01*
G36*
X89997500Y-90792499D02*
G01*
X89097500Y-90792499D01*
X89997500Y-89892499D01*
X89997500Y-90792499D01*
G37*
G04 #@! TO.C,D27*
X109047500Y-128892499D02*
X108147500Y-128892499D01*
X109047500Y-127992499D01*
X109047500Y-128892499D01*
G36*
X109047500Y-128892499D02*
G01*
X108147500Y-128892499D01*
X109047500Y-127992499D01*
X109047500Y-128892499D01*
G37*
G04 #@! TO.C,D17*
X70947500Y-90792499D02*
X70047500Y-90792499D01*
X70947500Y-89892499D01*
X70947500Y-90792499D01*
G36*
X70947500Y-90792499D02*
G01*
X70047500Y-90792499D01*
X70947500Y-89892499D01*
X70947500Y-90792499D01*
G37*
G04 #@! TO.C,D20*
X70947500Y-147942499D02*
X70047500Y-147942499D01*
X70947500Y-147042499D01*
X70947500Y-147942499D01*
G36*
X70947500Y-147942499D02*
G01*
X70047500Y-147942499D01*
X70947500Y-147042499D01*
X70947500Y-147942499D01*
G37*
D14*
G04 #@! TO.C,D10*
X91162500Y-65267500D02*
X91162500Y-69507500D01*
X91162500Y-68667500D02*
X93402500Y-68667500D01*
X91162500Y-68787500D02*
X93402500Y-68787500D01*
X91162500Y-68907500D02*
X93402500Y-68907500D01*
X91162500Y-69507500D02*
X93402500Y-69507500D01*
X92282500Y-65267500D02*
X92282500Y-64617500D01*
X92282500Y-69507500D02*
X92282500Y-70157500D01*
X93402500Y-65267500D02*
X91162500Y-65267500D01*
X93402500Y-69507500D02*
X93402500Y-65267500D01*
G04 #@! TO.C,D7*
X100462500Y-65267500D02*
X100462500Y-69507500D01*
X100462500Y-68667500D02*
X102702500Y-68667500D01*
X100462500Y-68787500D02*
X102702500Y-68787500D01*
X100462500Y-68907500D02*
X102702500Y-68907500D01*
X100462500Y-69507500D02*
X102702500Y-69507500D01*
X101582500Y-65267500D02*
X101582500Y-64617500D01*
X101582500Y-69507500D02*
X101582500Y-70157500D01*
X102702500Y-65267500D02*
X100462500Y-65267500D01*
X102702500Y-69507500D02*
X102702500Y-65267500D01*
G04 #@! TO.C,R2*
X66562500Y-65467500D02*
X66562500Y-69307500D01*
X66562500Y-69307500D02*
X68402500Y-69307500D01*
X67482500Y-65467500D02*
X67482500Y-64517500D01*
X67482500Y-69307500D02*
X67482500Y-70257500D01*
X68402500Y-65467500D02*
X66562500Y-65467500D01*
X68402500Y-69307500D02*
X68402500Y-65467500D01*
G04 #@! TO.C,R1*
X69662500Y-65467500D02*
X69662500Y-69307500D01*
X69662500Y-69307500D02*
X71502500Y-69307500D01*
X70582500Y-65467500D02*
X70582500Y-64517500D01*
X70582500Y-69307500D02*
X70582500Y-70257500D01*
X71502500Y-65467500D02*
X69662500Y-65467500D01*
X71502500Y-69307500D02*
X71502500Y-65467500D01*
G04 #@! TO.C,D8*
X97362500Y-65267500D02*
X97362500Y-69507500D01*
X97362500Y-68667500D02*
X99602500Y-68667500D01*
X97362500Y-68787500D02*
X99602500Y-68787500D01*
X97362500Y-68907500D02*
X99602500Y-68907500D01*
X97362500Y-69507500D02*
X99602500Y-69507500D01*
X98482500Y-65267500D02*
X98482500Y-64617500D01*
X98482500Y-69507500D02*
X98482500Y-70157500D01*
X99602500Y-65267500D02*
X97362500Y-65267500D01*
X99602500Y-69507500D02*
X99602500Y-65267500D01*
G04 #@! TO.C,D16*
X72562500Y-65267500D02*
X72562500Y-69507500D01*
X72562500Y-68667500D02*
X74802500Y-68667500D01*
X72562500Y-68787500D02*
X74802500Y-68787500D01*
X72562500Y-68907500D02*
X74802500Y-68907500D01*
X72562500Y-69507500D02*
X74802500Y-69507500D01*
X73682500Y-65267500D02*
X73682500Y-64617500D01*
X73682500Y-69507500D02*
X73682500Y-70157500D01*
X74802500Y-65267500D02*
X72562500Y-65267500D01*
X74802500Y-69507500D02*
X74802500Y-65267500D01*
G04 #@! TO.C,D34*
X122162500Y-65267500D02*
X122162500Y-69507500D01*
X122162500Y-68667500D02*
X124402500Y-68667500D01*
X122162500Y-68787500D02*
X124402500Y-68787500D01*
X122162500Y-68907500D02*
X124402500Y-68907500D01*
X122162500Y-69507500D02*
X124402500Y-69507500D01*
X123282500Y-65267500D02*
X123282500Y-64617500D01*
X123282500Y-69507500D02*
X123282500Y-70157500D01*
X124402500Y-65267500D02*
X122162500Y-65267500D01*
X124402500Y-69507500D02*
X124402500Y-65267500D01*
G04 #@! TO.C,D15*
X75662500Y-65267500D02*
X75662500Y-69507500D01*
X75662500Y-68667500D02*
X77902500Y-68667500D01*
X75662500Y-68787500D02*
X77902500Y-68787500D01*
X75662500Y-68907500D02*
X77902500Y-68907500D01*
X75662500Y-69507500D02*
X77902500Y-69507500D01*
X76782500Y-65267500D02*
X76782500Y-64617500D01*
X76782500Y-69507500D02*
X76782500Y-70157500D01*
X77902500Y-65267500D02*
X75662500Y-65267500D01*
X77902500Y-69507500D02*
X77902500Y-65267500D01*
G04 #@! TO.C,D14*
X78762500Y-65267500D02*
X78762500Y-69507500D01*
X78762500Y-68667500D02*
X81002500Y-68667500D01*
X78762500Y-68787500D02*
X81002500Y-68787500D01*
X78762500Y-68907500D02*
X81002500Y-68907500D01*
X78762500Y-69507500D02*
X81002500Y-69507500D01*
X79882500Y-65267500D02*
X79882500Y-64617500D01*
X79882500Y-69507500D02*
X79882500Y-70157500D01*
X81002500Y-65267500D02*
X78762500Y-65267500D01*
X81002500Y-69507500D02*
X81002500Y-65267500D01*
G04 #@! TO.C,D5*
X106662500Y-65267500D02*
X106662500Y-69507500D01*
X106662500Y-68667500D02*
X108902500Y-68667500D01*
X106662500Y-68787500D02*
X108902500Y-68787500D01*
X106662500Y-68907500D02*
X108902500Y-68907500D01*
X106662500Y-69507500D02*
X108902500Y-69507500D01*
X107782500Y-65267500D02*
X107782500Y-64617500D01*
X107782500Y-69507500D02*
X107782500Y-70157500D01*
X108902500Y-65267500D02*
X106662500Y-65267500D01*
X108902500Y-69507500D02*
X108902500Y-65267500D01*
G04 #@! TO.C,D11*
X88062500Y-65267500D02*
X88062500Y-69507500D01*
X88062500Y-68667500D02*
X90302500Y-68667500D01*
X88062500Y-68787500D02*
X90302500Y-68787500D01*
X88062500Y-68907500D02*
X90302500Y-68907500D01*
X88062500Y-69507500D02*
X90302500Y-69507500D01*
X89182500Y-65267500D02*
X89182500Y-64617500D01*
X89182500Y-69507500D02*
X89182500Y-70157500D01*
X90302500Y-65267500D02*
X88062500Y-65267500D01*
X90302500Y-69507500D02*
X90302500Y-65267500D01*
G04 #@! TO.C,D12*
X84962500Y-65267500D02*
X84962500Y-69507500D01*
X84962500Y-68667500D02*
X87202500Y-68667500D01*
X84962500Y-68787500D02*
X87202500Y-68787500D01*
X84962500Y-68907500D02*
X87202500Y-68907500D01*
X84962500Y-69507500D02*
X87202500Y-69507500D01*
X86082500Y-65267500D02*
X86082500Y-64617500D01*
X86082500Y-69507500D02*
X86082500Y-70157500D01*
X87202500Y-65267500D02*
X84962500Y-65267500D01*
X87202500Y-69507500D02*
X87202500Y-65267500D01*
G04 #@! TO.C,D6*
X103562500Y-65267500D02*
X103562500Y-69507500D01*
X103562500Y-68667500D02*
X105802500Y-68667500D01*
X103562500Y-68787500D02*
X105802500Y-68787500D01*
X103562500Y-68907500D02*
X105802500Y-68907500D01*
X103562500Y-69507500D02*
X105802500Y-69507500D01*
X104682500Y-65267500D02*
X104682500Y-64617500D01*
X104682500Y-69507500D02*
X104682500Y-70157500D01*
X105802500Y-65267500D02*
X103562500Y-65267500D01*
X105802500Y-69507500D02*
X105802500Y-65267500D01*
G04 #@! TO.C,D1*
X119062500Y-65267500D02*
X119062500Y-69507500D01*
X119062500Y-68667500D02*
X121302500Y-68667500D01*
X119062500Y-68787500D02*
X121302500Y-68787500D01*
X119062500Y-68907500D02*
X121302500Y-68907500D01*
X119062500Y-69507500D02*
X121302500Y-69507500D01*
X120182500Y-65267500D02*
X120182500Y-64617500D01*
X120182500Y-69507500D02*
X120182500Y-70157500D01*
X121302500Y-65267500D02*
X119062500Y-65267500D01*
X121302500Y-69507500D02*
X121302500Y-65267500D01*
G04 #@! TO.C,D3*
X112862500Y-65267500D02*
X112862500Y-69507500D01*
X112862500Y-68667500D02*
X115102500Y-68667500D01*
X112862500Y-68787500D02*
X115102500Y-68787500D01*
X112862500Y-68907500D02*
X115102500Y-68907500D01*
X112862500Y-69507500D02*
X115102500Y-69507500D01*
X113982500Y-65267500D02*
X113982500Y-64617500D01*
X113982500Y-69507500D02*
X113982500Y-70157500D01*
X115102500Y-65267500D02*
X112862500Y-65267500D01*
X115102500Y-69507500D02*
X115102500Y-65267500D01*
G04 #@! TO.C,D2*
X115962500Y-65267500D02*
X115962500Y-69507500D01*
X115962500Y-68667500D02*
X118202500Y-68667500D01*
X115962500Y-68787500D02*
X118202500Y-68787500D01*
X115962500Y-68907500D02*
X118202500Y-68907500D01*
X115962500Y-69507500D02*
X118202500Y-69507500D01*
X117082500Y-65267500D02*
X117082500Y-64617500D01*
X117082500Y-69507500D02*
X117082500Y-70157500D01*
X118202500Y-65267500D02*
X115962500Y-65267500D01*
X118202500Y-69507500D02*
X118202500Y-65267500D01*
G04 #@! TO.C,R3*
X66562500Y-65467500D02*
X66562500Y-69307500D01*
X66562500Y-69307500D02*
X68402500Y-69307500D01*
X67482500Y-65467500D02*
X67482500Y-64517500D01*
X67482500Y-69307500D02*
X67482500Y-70257500D01*
X68402500Y-65467500D02*
X66562500Y-65467500D01*
X68402500Y-69307500D02*
X68402500Y-65467500D01*
G04 #@! TO.C,J1*
X47492500Y-94227500D02*
X50152500Y-94227500D01*
X47492500Y-117147500D02*
X47492500Y-94227500D01*
X47492500Y-117147500D02*
X50152500Y-117147500D01*
X48822500Y-91627500D02*
X50152500Y-91627500D01*
X50152500Y-91627500D02*
X50152500Y-92957500D01*
X50152500Y-117147500D02*
X50152500Y-94227500D01*
G04 #@! TO.C,D9*
X94262500Y-65267500D02*
X94262500Y-69507500D01*
X94262500Y-68667500D02*
X96502500Y-68667500D01*
X94262500Y-68787500D02*
X96502500Y-68787500D01*
X94262500Y-68907500D02*
X96502500Y-68907500D01*
X94262500Y-69507500D02*
X96502500Y-69507500D01*
X95382500Y-65267500D02*
X95382500Y-64617500D01*
X95382500Y-69507500D02*
X95382500Y-70157500D01*
X96502500Y-65267500D02*
X94262500Y-65267500D01*
X96502500Y-69507500D02*
X96502500Y-65267500D01*
G04 #@! TO.C,D13*
X81862500Y-65267500D02*
X81862500Y-69507500D01*
X81862500Y-68667500D02*
X84102500Y-68667500D01*
X81862500Y-68787500D02*
X84102500Y-68787500D01*
X81862500Y-68907500D02*
X84102500Y-68907500D01*
X81862500Y-69507500D02*
X84102500Y-69507500D01*
X82982500Y-65267500D02*
X82982500Y-64617500D01*
X82982500Y-69507500D02*
X82982500Y-70157500D01*
X84102500Y-65267500D02*
X81862500Y-65267500D01*
X84102500Y-69507500D02*
X84102500Y-65267500D01*
G04 #@! TO.C,D4*
X109762500Y-65267500D02*
X109762500Y-69507500D01*
X109762500Y-68667500D02*
X112002500Y-68667500D01*
X109762500Y-68787500D02*
X112002500Y-68787500D01*
X109762500Y-68907500D02*
X112002500Y-68907500D01*
X109762500Y-69507500D02*
X112002500Y-69507500D01*
X110882500Y-65267500D02*
X110882500Y-64617500D01*
X110882500Y-69507500D02*
X110882500Y-70157500D01*
X112002500Y-65267500D02*
X109762500Y-65267500D01*
X112002500Y-69507500D02*
X112002500Y-65267500D01*
G04 #@! TD*
%LPC*%
D15*
G04 #@! TO.C,SW12*
X99767500Y-121912500D03*
D16*
X104847500Y-121912500D03*
D15*
X109927500Y-121912500D03*
D17*
X101037500Y-119372500D03*
X107387500Y-116832500D03*
G04 #@! TD*
D15*
G04 #@! TO.C,SW14*
X118817500Y-83812500D03*
D16*
X123897500Y-83812500D03*
D15*
X128977500Y-83812500D03*
D17*
X120087500Y-81272500D03*
X126437500Y-78732500D03*
G04 #@! TD*
D15*
G04 #@! TO.C,SW5*
X61667500Y-140962500D03*
D16*
X66747500Y-140962500D03*
D15*
X71827500Y-140962500D03*
D17*
X62937500Y-138422500D03*
X69287500Y-135882500D03*
G04 #@! TD*
D15*
G04 #@! TO.C,SW13*
X99767500Y-140962500D03*
D16*
X104847500Y-140962500D03*
D15*
X109927500Y-140962500D03*
D17*
X101037500Y-138422500D03*
X107387500Y-135882500D03*
G04 #@! TD*
D15*
G04 #@! TO.C,SW8*
X80717500Y-121912500D03*
D16*
X85797500Y-121912500D03*
D15*
X90877500Y-121912500D03*
D17*
X81987500Y-119372500D03*
X88337500Y-116832500D03*
G04 #@! TD*
D15*
G04 #@! TO.C,SW7*
X80717500Y-102862500D03*
D16*
X85797500Y-102862500D03*
D15*
X90877500Y-102862500D03*
D17*
X81987500Y-100322500D03*
X88337500Y-97782500D03*
G04 #@! TD*
D18*
G04 #@! TO.C,D29*
X121297500Y-88142499D03*
X121297500Y-89642499D03*
X126497500Y-89642499D03*
X126497500Y-88142499D03*
G04 #@! TD*
D15*
G04 #@! TO.C,SW15*
X118817500Y-102862500D03*
D16*
X123897500Y-102862500D03*
D15*
X128977500Y-102862500D03*
D17*
X120087500Y-100322500D03*
X126437500Y-97782500D03*
G04 #@! TD*
D15*
G04 #@! TO.C,SW11*
X99767500Y-102862500D03*
D16*
X104847500Y-102862500D03*
D15*
X109927500Y-102862500D03*
D17*
X101037500Y-100322500D03*
X107387500Y-97782500D03*
G04 #@! TD*
D19*
G04 #@! TO.C,SW1*
X119072500Y-38157500D03*
D20*
X119072500Y-43157500D03*
X119072500Y-40657500D03*
D21*
X126572500Y-35057500D03*
X126572500Y-46257500D03*
D20*
X133572500Y-43157500D03*
X133572500Y-38157500D03*
G04 #@! TD*
D22*
G04 #@! TO.C,U3*
X53989300Y-61157500D03*
D23*
X58989300Y-61157500D03*
G04 #@! TD*
D18*
G04 #@! TO.C,D22*
X83197500Y-107192499D03*
X83197500Y-108692499D03*
X88397500Y-108692499D03*
X88397500Y-107192499D03*
G04 #@! TD*
G04 #@! TO.C,D30*
X121297500Y-107192499D03*
X121297500Y-108692499D03*
X126497500Y-108692499D03*
X126497500Y-107192499D03*
G04 #@! TD*
D24*
G04 #@! TO.C,H2*
X43822500Y-32407500D03*
G04 #@! TD*
D18*
G04 #@! TO.C,D26*
X102247500Y-107192499D03*
X102247500Y-108692499D03*
X107447500Y-108692499D03*
X107447500Y-107192499D03*
G04 #@! TD*
G04 #@! TO.C,D28*
X102247500Y-145292499D03*
X102247500Y-146792499D03*
X107447500Y-146792499D03*
X107447500Y-145292499D03*
G04 #@! TD*
D25*
G04 #@! TO.C,U2*
X146902500Y-55657500D03*
D26*
X144362500Y-55657500D03*
X141822500Y-55657500D03*
X139282500Y-55657500D03*
X136742500Y-55657500D03*
X134202500Y-55657500D03*
X131662500Y-55657500D03*
X129122500Y-55657500D03*
X129122500Y-63277500D03*
X131662500Y-63277500D03*
X134202500Y-63277500D03*
X136742500Y-63277500D03*
X139282500Y-63277500D03*
X141822500Y-63277500D03*
X144362500Y-63277500D03*
X146902500Y-63277500D03*
G04 #@! TD*
D15*
G04 #@! TO.C,SW9*
X80717500Y-140962500D03*
D16*
X85797500Y-140962500D03*
D15*
X90877500Y-140962500D03*
D17*
X81987500Y-138422500D03*
X88337500Y-135882500D03*
G04 #@! TD*
D15*
G04 #@! TO.C,SW10*
X99767500Y-83812500D03*
D16*
X104847500Y-83812500D03*
D15*
X109927500Y-83812500D03*
D17*
X101037500Y-81272500D03*
X107387500Y-78732500D03*
G04 #@! TD*
D24*
G04 #@! TO.C,H3*
X146822500Y-168907500D03*
G04 #@! TD*
G04 #@! TO.C,H4*
X43822500Y-168907500D03*
G04 #@! TD*
D18*
G04 #@! TO.C,D18*
X64147500Y-107192499D03*
X64147500Y-108692499D03*
X69347500Y-108692499D03*
X69347500Y-107192499D03*
G04 #@! TD*
G04 #@! TO.C,D19*
X64147500Y-126242499D03*
X64147500Y-127742499D03*
X69347500Y-127742499D03*
X69347500Y-126242499D03*
G04 #@! TD*
D15*
G04 #@! TO.C,SW17*
X118817500Y-140962500D03*
D16*
X123897500Y-140962500D03*
D15*
X128977500Y-140962500D03*
D17*
X120087500Y-138422500D03*
X126437500Y-135882500D03*
G04 #@! TD*
D18*
G04 #@! TO.C,D31*
X121297500Y-126242499D03*
X121297500Y-127742499D03*
X126497500Y-127742499D03*
X126497500Y-126242499D03*
G04 #@! TD*
D15*
G04 #@! TO.C,SW4*
X61667500Y-121912500D03*
D16*
X66747500Y-121912500D03*
D15*
X71827500Y-121912500D03*
D17*
X62937500Y-119372500D03*
X69287500Y-116832500D03*
G04 #@! TD*
D27*
G04 #@! TO.C,D33*
X132420900Y-157059100D03*
D28*
X134216951Y-155263049D03*
G04 #@! TD*
D18*
G04 #@! TO.C,D24*
X83197500Y-145292499D03*
X83197500Y-146792499D03*
X88397500Y-146792499D03*
X88397500Y-145292499D03*
G04 #@! TD*
G04 #@! TO.C,D32*
X121297500Y-145292499D03*
X121297500Y-146792499D03*
X126497500Y-146792499D03*
X126497500Y-145292499D03*
G04 #@! TD*
D15*
G04 #@! TO.C,SW16*
X118817500Y-121912500D03*
D16*
X123897500Y-121912500D03*
D15*
X128977500Y-121912500D03*
D17*
X120087500Y-119372500D03*
X126437500Y-116832500D03*
G04 #@! TD*
D15*
G04 #@! TO.C,SW3*
X61667500Y-102862500D03*
D16*
X66747500Y-102862500D03*
D15*
X71827500Y-102862500D03*
D17*
X62937500Y-100322500D03*
X69287500Y-97782500D03*
G04 #@! TD*
D18*
G04 #@! TO.C,D23*
X83197500Y-126242499D03*
X83197500Y-127742499D03*
X88397500Y-127742499D03*
X88397500Y-126242499D03*
G04 #@! TD*
D29*
G04 #@! TO.C,Brd1*
X91702500Y-30057500D03*
X94242500Y-30057500D03*
X96782500Y-30057500D03*
X99322500Y-30057500D03*
G04 #@! TD*
D24*
G04 #@! TO.C,H1*
X146822500Y-32407500D03*
G04 #@! TD*
D18*
G04 #@! TO.C,D25*
X102247500Y-88142499D03*
X102247500Y-89642499D03*
X107447500Y-89642499D03*
X107447500Y-88142499D03*
G04 #@! TD*
G04 #@! TO.C,D21*
X83197500Y-88142499D03*
X83197500Y-89642499D03*
X88397500Y-89642499D03*
X88397500Y-88142499D03*
G04 #@! TD*
D15*
G04 #@! TO.C,SW6*
X80717500Y-83812500D03*
D16*
X85797500Y-83812500D03*
D15*
X90877500Y-83812500D03*
D17*
X81987500Y-81272500D03*
X88337500Y-78732500D03*
G04 #@! TD*
D18*
G04 #@! TO.C,D27*
X102247500Y-126242499D03*
X102247500Y-127742499D03*
X107447500Y-127742499D03*
X107447500Y-126242499D03*
G04 #@! TD*
D15*
G04 #@! TO.C,SW2*
X61667500Y-83812500D03*
D16*
X66747500Y-83812500D03*
D15*
X71827500Y-83812500D03*
D17*
X62937500Y-81272500D03*
X69287500Y-78732500D03*
G04 #@! TD*
D18*
G04 #@! TO.C,D17*
X64147500Y-88142499D03*
X64147500Y-89642499D03*
X69347500Y-89642499D03*
X69347500Y-88142499D03*
G04 #@! TD*
G04 #@! TO.C,D20*
X64147500Y-145292499D03*
X64147500Y-146792499D03*
X69347500Y-146792499D03*
X69347500Y-145292499D03*
G04 #@! TD*
D30*
G04 #@! TO.C,D10*
X92282500Y-71197500D03*
D31*
X92282500Y-63577500D03*
G04 #@! TD*
D30*
G04 #@! TO.C,D7*
X101582500Y-71197500D03*
D31*
X101582500Y-63577500D03*
G04 #@! TD*
D32*
G04 #@! TO.C,R2*
X67482500Y-71197500D03*
D33*
X67482500Y-63577500D03*
G04 #@! TD*
D32*
G04 #@! TO.C,R1*
X70582500Y-71197500D03*
D33*
X70582500Y-63577500D03*
G04 #@! TD*
D30*
G04 #@! TO.C,D8*
X98482500Y-71197500D03*
D31*
X98482500Y-63577500D03*
G04 #@! TD*
D30*
G04 #@! TO.C,D16*
X73682500Y-71197500D03*
D31*
X73682500Y-63577500D03*
G04 #@! TD*
D30*
G04 #@! TO.C,D34*
X123282500Y-71197500D03*
D31*
X123282500Y-63577500D03*
G04 #@! TD*
D34*
G04 #@! TO.C,U1*
X72887500Y-30287500D03*
D30*
X72442500Y-30287500D03*
D34*
X72887500Y-32827500D03*
D35*
X72442500Y-32827500D03*
D34*
X72887500Y-35367500D03*
D35*
X72442500Y-35367500D03*
D34*
X72887500Y-37907500D03*
D35*
X72442500Y-37907500D03*
D34*
X72887500Y-40447500D03*
D35*
X72442500Y-40447500D03*
D34*
X72887500Y-42987500D03*
D35*
X72442500Y-42987500D03*
D34*
X72887500Y-45527500D03*
D35*
X72442500Y-45527500D03*
X57202500Y-45527500D03*
D34*
X56722500Y-45527500D03*
D35*
X57202500Y-42987500D03*
D34*
X56722500Y-42987500D03*
D35*
X57202500Y-40447500D03*
D34*
X56722500Y-40447500D03*
D35*
X57202500Y-37907500D03*
D34*
X56722500Y-37907500D03*
D35*
X57202500Y-35367500D03*
D34*
X56722500Y-35367500D03*
D35*
X57202500Y-32827500D03*
D34*
X56722500Y-32827500D03*
D35*
X57202500Y-30287500D03*
D34*
X56722500Y-30287500D03*
G04 #@! TD*
D30*
G04 #@! TO.C,D15*
X76782500Y-71197500D03*
D31*
X76782500Y-63577500D03*
G04 #@! TD*
D30*
G04 #@! TO.C,D14*
X79882500Y-71197500D03*
D31*
X79882500Y-63577500D03*
G04 #@! TD*
D30*
G04 #@! TO.C,D5*
X107782500Y-71197500D03*
D31*
X107782500Y-63577500D03*
G04 #@! TD*
D30*
G04 #@! TO.C,D11*
X89182500Y-71197500D03*
D31*
X89182500Y-63577500D03*
G04 #@! TD*
D30*
G04 #@! TO.C,D12*
X86082500Y-71197500D03*
D31*
X86082500Y-63577500D03*
G04 #@! TD*
D30*
G04 #@! TO.C,D6*
X104682500Y-71197500D03*
D31*
X104682500Y-63577500D03*
G04 #@! TD*
D30*
G04 #@! TO.C,D1*
X120182500Y-71197500D03*
D31*
X120182500Y-63577500D03*
G04 #@! TD*
D30*
G04 #@! TO.C,D3*
X113982500Y-71197500D03*
D31*
X113982500Y-63577500D03*
G04 #@! TD*
D30*
G04 #@! TO.C,D2*
X117082500Y-71197500D03*
D31*
X117082500Y-63577500D03*
G04 #@! TD*
D32*
G04 #@! TO.C,R3*
X67482500Y-71197500D03*
D33*
X67482500Y-63577500D03*
G04 #@! TD*
D36*
G04 #@! TO.C,J1*
X48822500Y-92957500D03*
D37*
X48822500Y-95497500D03*
X48822500Y-98037500D03*
X48822500Y-100577500D03*
X48822500Y-103117500D03*
X48822500Y-105657500D03*
X48822500Y-108197500D03*
X48822500Y-110737500D03*
X48822500Y-113277500D03*
X48822500Y-115817500D03*
G04 #@! TD*
D30*
G04 #@! TO.C,D9*
X95382500Y-71197500D03*
D31*
X95382500Y-63577500D03*
G04 #@! TD*
D30*
G04 #@! TO.C,D13*
X82982500Y-71197500D03*
D31*
X82982500Y-63577500D03*
G04 #@! TD*
D30*
G04 #@! TO.C,D4*
X110882500Y-71197500D03*
D31*
X110882500Y-63577500D03*
G04 #@! TD*
%LPD*%
M02*
