%TF.GenerationSoftware,KiCad,Pcbnew,8.0.6-8.0.6-0~ubuntu22.04.1*%
%TF.CreationDate,2024-10-20T22:38:48+08:00*%
%TF.ProjectId,MacroPad,4d616372-6f50-4616-942e-6b696361645f,rev?*%
%TF.SameCoordinates,Original*%
%TF.FileFunction,Drillmap*%
%TF.FilePolarity,Positive*%
%FSLAX45Y45*%
G04 Gerber Fmt 4.5, Leading zero omitted, Abs format (unit mm)*
G04 Created by KiCad (PCBNEW 8.0.6-8.0.6-0~ubuntu22.04.1) date 2024-10-20 22:38:48*
%MOMM*%
%LPD*%
G01*
G04 APERTURE LIST*
%ADD10C,0.050000*%
%ADD11C,0.100000*%
%ADD12C,0.200000*%
%ADD13C,0.101600*%
%ADD14C,0.150000*%
%ADD15C,0.320000*%
G04 APERTURE END LIST*
D10*
X3882250Y-16890750D02*
X3882250Y-3240750D01*
X14682250Y-2740750D02*
G75*
G02*
X15182250Y-3240750I0J-500000D01*
G01*
X3882250Y-3240750D02*
G75*
G02*
X4382250Y-2740750I500000J0D01*
G01*
X4382250Y-17390750D02*
G75*
G02*
X3882250Y-16890750I0J500000D01*
G01*
X15182250Y-16890750D02*
G75*
G02*
X14682250Y-17390750I-500000J0D01*
G01*
X14682250Y-17390750D02*
X4382250Y-17390750D01*
X4382250Y-2740750D02*
X14682250Y-2740750D01*
X15182250Y-3240750D02*
X15182250Y-16890750D01*
D11*
X12219750Y-8959534D02*
X12219750Y-8818966D01*
X12310305Y-8739250D02*
X12469195Y-8739250D01*
X12469195Y-9039250D02*
X12310305Y-9039250D01*
X12559750Y-8818966D02*
X12559750Y-8959534D01*
X12214802Y-8797278D02*
G75*
G02*
X12219750Y-8818966I-45051J-21688D01*
G01*
X12214802Y-8797278D02*
G75*
G02*
X12285079Y-8732420I45052J21688D01*
G01*
X12219750Y-8959534D02*
G75*
G02*
X12214802Y-8981222I-49999J0D01*
G01*
X12285079Y-9046080D02*
G75*
G02*
X12214802Y-8981222I-25226J43170D01*
G01*
X12285079Y-9046080D02*
G75*
G02*
X12310305Y-9039250I25226J-43171D01*
G01*
X12310305Y-8739250D02*
G75*
G02*
X12285079Y-8732420I0J50001D01*
G01*
X12469195Y-9039250D02*
G75*
G02*
X12494421Y-9046080I0J-50001D01*
G01*
X12494421Y-8732420D02*
G75*
G02*
X12469195Y-8739250I-25226J43171D01*
G01*
X12494421Y-8732420D02*
G75*
G02*
X12564698Y-8797278I25226J-43170D01*
G01*
X12559750Y-8818966D02*
G75*
G02*
X12564698Y-8797278I49994J2D01*
G01*
X12564698Y-8981222D02*
G75*
G02*
X12494421Y-9046080I-45051J-21688D01*
G01*
X12564698Y-8981222D02*
G75*
G02*
X12559751Y-8959534I44992J21672D01*
G01*
X8409750Y-10864534D02*
X8409750Y-10723966D01*
X8500305Y-10644250D02*
X8659195Y-10644250D01*
X8659195Y-10944250D02*
X8500305Y-10944250D01*
X8749750Y-10723966D02*
X8749750Y-10864534D01*
X8404802Y-10702278D02*
G75*
G02*
X8409750Y-10723966I-45051J-21688D01*
G01*
X8404802Y-10702278D02*
G75*
G02*
X8475079Y-10637420I45052J21688D01*
G01*
X8409750Y-10864534D02*
G75*
G02*
X8404802Y-10886222I-49999J0D01*
G01*
X8475079Y-10951080D02*
G75*
G02*
X8404802Y-10886222I-25226J43170D01*
G01*
X8475079Y-10951080D02*
G75*
G02*
X8500305Y-10944250I25226J-43171D01*
G01*
X8500305Y-10644250D02*
G75*
G02*
X8475079Y-10637420I0J50001D01*
G01*
X8659195Y-10944250D02*
G75*
G02*
X8684421Y-10951080I0J-50001D01*
G01*
X8684421Y-10637420D02*
G75*
G02*
X8659195Y-10644250I-25226J43171D01*
G01*
X8684421Y-10637420D02*
G75*
G02*
X8754698Y-10702278I25226J-43170D01*
G01*
X8749750Y-10723966D02*
G75*
G02*
X8754698Y-10702278I49994J2D01*
G01*
X8754698Y-10886222D02*
G75*
G02*
X8684421Y-10951080I-45051J-21688D01*
G01*
X8754698Y-10886222D02*
G75*
G02*
X8749751Y-10864534I44992J21672D01*
G01*
X12219750Y-10864534D02*
X12219750Y-10723966D01*
X12310305Y-10644250D02*
X12469195Y-10644250D01*
X12469195Y-10944250D02*
X12310305Y-10944250D01*
X12559750Y-10723966D02*
X12559750Y-10864534D01*
X12214802Y-10702278D02*
G75*
G02*
X12219750Y-10723966I-45051J-21688D01*
G01*
X12214802Y-10702278D02*
G75*
G02*
X12285079Y-10637420I45052J21688D01*
G01*
X12219750Y-10864534D02*
G75*
G02*
X12214802Y-10886222I-49999J0D01*
G01*
X12285079Y-10951080D02*
G75*
G02*
X12214802Y-10886222I-25226J43170D01*
G01*
X12285079Y-10951080D02*
G75*
G02*
X12310305Y-10944250I25226J-43171D01*
G01*
X12310305Y-10644250D02*
G75*
G02*
X12285079Y-10637420I0J50001D01*
G01*
X12469195Y-10944250D02*
G75*
G02*
X12494421Y-10951080I0J-50001D01*
G01*
X12494421Y-10637420D02*
G75*
G02*
X12469195Y-10644250I-25226J43171D01*
G01*
X12494421Y-10637420D02*
G75*
G02*
X12564698Y-10702278I25226J-43170D01*
G01*
X12559750Y-10723966D02*
G75*
G02*
X12564698Y-10702278I49994J2D01*
G01*
X12564698Y-10886222D02*
G75*
G02*
X12494421Y-10951080I-45051J-21688D01*
G01*
X12564698Y-10886222D02*
G75*
G02*
X12559751Y-10864534I44992J21672D01*
G01*
X10314750Y-10864534D02*
X10314750Y-10723966D01*
X10405305Y-10644250D02*
X10564195Y-10644250D01*
X10564195Y-10944250D02*
X10405305Y-10944250D01*
X10654750Y-10723966D02*
X10654750Y-10864534D01*
X10309802Y-10702278D02*
G75*
G02*
X10314750Y-10723966I-45051J-21688D01*
G01*
X10309802Y-10702278D02*
G75*
G02*
X10380079Y-10637420I45052J21688D01*
G01*
X10314750Y-10864534D02*
G75*
G02*
X10309802Y-10886222I-49999J0D01*
G01*
X10380079Y-10951080D02*
G75*
G02*
X10309802Y-10886222I-25226J43170D01*
G01*
X10380079Y-10951080D02*
G75*
G02*
X10405305Y-10944250I25226J-43171D01*
G01*
X10405305Y-10644250D02*
G75*
G02*
X10380079Y-10637420I0J50001D01*
G01*
X10564195Y-10944250D02*
G75*
G02*
X10589421Y-10951080I0J-50001D01*
G01*
X10589421Y-10637420D02*
G75*
G02*
X10564195Y-10644250I-25226J43171D01*
G01*
X10589421Y-10637420D02*
G75*
G02*
X10659698Y-10702278I25226J-43170D01*
G01*
X10654750Y-10723966D02*
G75*
G02*
X10659698Y-10702278I49994J2D01*
G01*
X10659698Y-10886222D02*
G75*
G02*
X10589421Y-10951080I-45051J-21688D01*
G01*
X10659698Y-10886222D02*
G75*
G02*
X10654751Y-10864534I44992J21672D01*
G01*
X10314750Y-14674534D02*
X10314750Y-14533966D01*
X10405305Y-14454250D02*
X10564195Y-14454250D01*
X10564195Y-14754250D02*
X10405305Y-14754250D01*
X10654750Y-14533966D02*
X10654750Y-14674534D01*
X10309802Y-14512278D02*
G75*
G02*
X10314750Y-14533966I-45051J-21688D01*
G01*
X10309802Y-14512278D02*
G75*
G02*
X10380079Y-14447420I45052J21688D01*
G01*
X10314750Y-14674534D02*
G75*
G02*
X10309802Y-14696222I-49999J0D01*
G01*
X10380079Y-14761080D02*
G75*
G02*
X10309802Y-14696222I-25226J43170D01*
G01*
X10380079Y-14761080D02*
G75*
G02*
X10405305Y-14754250I25226J-43171D01*
G01*
X10405305Y-14454250D02*
G75*
G02*
X10380079Y-14447420I0J50001D01*
G01*
X10564195Y-14754250D02*
G75*
G02*
X10589421Y-14761080I0J-50001D01*
G01*
X10589421Y-14447420D02*
G75*
G02*
X10564195Y-14454250I-25226J43171D01*
G01*
X10589421Y-14447420D02*
G75*
G02*
X10659698Y-14512278I25226J-43170D01*
G01*
X10654750Y-14533966D02*
G75*
G02*
X10659698Y-14512278I49994J2D01*
G01*
X10659698Y-14696222D02*
G75*
G02*
X10589421Y-14761080I-45051J-21688D01*
G01*
X10659698Y-14696222D02*
G75*
G02*
X10654751Y-14674534I44992J21672D01*
G01*
X6504750Y-10864534D02*
X6504750Y-10723966D01*
X6595305Y-10644250D02*
X6754195Y-10644250D01*
X6754195Y-10944250D02*
X6595305Y-10944250D01*
X6844750Y-10723966D02*
X6844750Y-10864534D01*
X6499802Y-10702278D02*
G75*
G02*
X6504750Y-10723966I-45051J-21688D01*
G01*
X6499802Y-10702278D02*
G75*
G02*
X6570079Y-10637420I45052J21688D01*
G01*
X6504750Y-10864534D02*
G75*
G02*
X6499802Y-10886222I-49999J0D01*
G01*
X6570079Y-10951080D02*
G75*
G02*
X6499802Y-10886222I-25226J43170D01*
G01*
X6570079Y-10951080D02*
G75*
G02*
X6595305Y-10944250I25226J-43171D01*
G01*
X6595305Y-10644250D02*
G75*
G02*
X6570079Y-10637420I0J50001D01*
G01*
X6754195Y-10944250D02*
G75*
G02*
X6779421Y-10951080I0J-50001D01*
G01*
X6779421Y-10637420D02*
G75*
G02*
X6754195Y-10644250I-25226J43171D01*
G01*
X6779421Y-10637420D02*
G75*
G02*
X6849698Y-10702278I25226J-43170D01*
G01*
X6844750Y-10723966D02*
G75*
G02*
X6849698Y-10702278I49994J2D01*
G01*
X6849698Y-10886222D02*
G75*
G02*
X6779421Y-10951080I-45051J-21688D01*
G01*
X6849698Y-10886222D02*
G75*
G02*
X6844751Y-10864534I44992J21672D01*
G01*
X6504750Y-12769534D02*
X6504750Y-12628966D01*
X6595305Y-12549250D02*
X6754195Y-12549250D01*
X6754195Y-12849250D02*
X6595305Y-12849250D01*
X6844750Y-12628966D02*
X6844750Y-12769534D01*
X6499802Y-12607278D02*
G75*
G02*
X6504750Y-12628966I-45051J-21688D01*
G01*
X6499802Y-12607278D02*
G75*
G02*
X6570079Y-12542420I45052J21688D01*
G01*
X6504750Y-12769534D02*
G75*
G02*
X6499802Y-12791222I-49999J0D01*
G01*
X6570079Y-12856080D02*
G75*
G02*
X6499802Y-12791222I-25226J43170D01*
G01*
X6570079Y-12856080D02*
G75*
G02*
X6595305Y-12849250I25226J-43171D01*
G01*
X6595305Y-12549250D02*
G75*
G02*
X6570079Y-12542420I0J50001D01*
G01*
X6754195Y-12849250D02*
G75*
G02*
X6779421Y-12856080I0J-50001D01*
G01*
X6779421Y-12542420D02*
G75*
G02*
X6754195Y-12549250I-25226J43171D01*
G01*
X6779421Y-12542420D02*
G75*
G02*
X6849698Y-12607278I25226J-43170D01*
G01*
X6844750Y-12628966D02*
G75*
G02*
X6849698Y-12607278I49994J2D01*
G01*
X6849698Y-12791222D02*
G75*
G02*
X6779421Y-12856080I-45051J-21688D01*
G01*
X6849698Y-12791222D02*
G75*
G02*
X6844751Y-12769534I44992J21672D01*
G01*
X12219750Y-12769534D02*
X12219750Y-12628966D01*
X12310305Y-12549250D02*
X12469195Y-12549250D01*
X12469195Y-12849250D02*
X12310305Y-12849250D01*
X12559750Y-12628966D02*
X12559750Y-12769534D01*
X12214802Y-12607278D02*
G75*
G02*
X12219750Y-12628966I-45051J-21688D01*
G01*
X12214802Y-12607278D02*
G75*
G02*
X12285079Y-12542420I45052J21688D01*
G01*
X12219750Y-12769534D02*
G75*
G02*
X12214802Y-12791222I-49999J0D01*
G01*
X12285079Y-12856080D02*
G75*
G02*
X12214802Y-12791222I-25226J43170D01*
G01*
X12285079Y-12856080D02*
G75*
G02*
X12310305Y-12849250I25226J-43171D01*
G01*
X12310305Y-12549250D02*
G75*
G02*
X12285079Y-12542420I0J50001D01*
G01*
X12469195Y-12849250D02*
G75*
G02*
X12494421Y-12856080I0J-50001D01*
G01*
X12494421Y-12542420D02*
G75*
G02*
X12469195Y-12549250I-25226J43171D01*
G01*
X12494421Y-12542420D02*
G75*
G02*
X12564698Y-12607278I25226J-43170D01*
G01*
X12559750Y-12628966D02*
G75*
G02*
X12564698Y-12607278I49994J2D01*
G01*
X12564698Y-12791222D02*
G75*
G02*
X12494421Y-12856080I-45051J-21688D01*
G01*
X12564698Y-12791222D02*
G75*
G02*
X12559751Y-12769534I44992J21672D01*
G01*
X8409750Y-14674534D02*
X8409750Y-14533966D01*
X8500305Y-14454250D02*
X8659195Y-14454250D01*
X8659195Y-14754250D02*
X8500305Y-14754250D01*
X8749750Y-14533966D02*
X8749750Y-14674534D01*
X8404802Y-14512278D02*
G75*
G02*
X8409750Y-14533966I-45051J-21688D01*
G01*
X8404802Y-14512278D02*
G75*
G02*
X8475079Y-14447420I45052J21688D01*
G01*
X8409750Y-14674534D02*
G75*
G02*
X8404802Y-14696222I-49999J0D01*
G01*
X8475079Y-14761080D02*
G75*
G02*
X8404802Y-14696222I-25226J43170D01*
G01*
X8475079Y-14761080D02*
G75*
G02*
X8500305Y-14754250I25226J-43171D01*
G01*
X8500305Y-14454250D02*
G75*
G02*
X8475079Y-14447420I0J50001D01*
G01*
X8659195Y-14754250D02*
G75*
G02*
X8684421Y-14761080I0J-50001D01*
G01*
X8684421Y-14447420D02*
G75*
G02*
X8659195Y-14454250I-25226J43171D01*
G01*
X8684421Y-14447420D02*
G75*
G02*
X8754698Y-14512278I25226J-43170D01*
G01*
X8749750Y-14533966D02*
G75*
G02*
X8754698Y-14512278I49994J2D01*
G01*
X8754698Y-14696222D02*
G75*
G02*
X8684421Y-14761080I-45051J-21688D01*
G01*
X8754698Y-14696222D02*
G75*
G02*
X8749751Y-14674534I44992J21672D01*
G01*
X12219750Y-14674534D02*
X12219750Y-14533966D01*
X12310305Y-14454250D02*
X12469195Y-14454250D01*
X12469195Y-14754250D02*
X12310305Y-14754250D01*
X12559750Y-14533966D02*
X12559750Y-14674534D01*
X12214802Y-14512278D02*
G75*
G02*
X12219750Y-14533966I-45051J-21688D01*
G01*
X12214802Y-14512278D02*
G75*
G02*
X12285079Y-14447420I45052J21688D01*
G01*
X12219750Y-14674534D02*
G75*
G02*
X12214802Y-14696222I-49999J0D01*
G01*
X12285079Y-14761080D02*
G75*
G02*
X12214802Y-14696222I-25226J43170D01*
G01*
X12285079Y-14761080D02*
G75*
G02*
X12310305Y-14754250I25226J-43171D01*
G01*
X12310305Y-14454250D02*
G75*
G02*
X12285079Y-14447420I0J50001D01*
G01*
X12469195Y-14754250D02*
G75*
G02*
X12494421Y-14761080I0J-50001D01*
G01*
X12494421Y-14447420D02*
G75*
G02*
X12469195Y-14454250I-25226J43171D01*
G01*
X12494421Y-14447420D02*
G75*
G02*
X12564698Y-14512278I25226J-43170D01*
G01*
X12559750Y-14533966D02*
G75*
G02*
X12564698Y-14512278I49994J2D01*
G01*
X12564698Y-14696222D02*
G75*
G02*
X12494421Y-14761080I-45051J-21688D01*
G01*
X12564698Y-14696222D02*
G75*
G02*
X12559751Y-14674534I44992J21672D01*
G01*
X8409750Y-12769534D02*
X8409750Y-12628966D01*
X8500305Y-12549250D02*
X8659195Y-12549250D01*
X8659195Y-12849250D02*
X8500305Y-12849250D01*
X8749750Y-12628966D02*
X8749750Y-12769534D01*
X8404802Y-12607278D02*
G75*
G02*
X8409750Y-12628966I-45051J-21688D01*
G01*
X8404802Y-12607278D02*
G75*
G02*
X8475079Y-12542420I45052J21688D01*
G01*
X8409750Y-12769534D02*
G75*
G02*
X8404802Y-12791222I-49999J0D01*
G01*
X8475079Y-12856080D02*
G75*
G02*
X8404802Y-12791222I-25226J43170D01*
G01*
X8475079Y-12856080D02*
G75*
G02*
X8500305Y-12849250I25226J-43171D01*
G01*
X8500305Y-12549250D02*
G75*
G02*
X8475079Y-12542420I0J50001D01*
G01*
X8659195Y-12849250D02*
G75*
G02*
X8684421Y-12856080I0J-50001D01*
G01*
X8684421Y-12542420D02*
G75*
G02*
X8659195Y-12549250I-25226J43171D01*
G01*
X8684421Y-12542420D02*
G75*
G02*
X8754698Y-12607278I25226J-43170D01*
G01*
X8749750Y-12628966D02*
G75*
G02*
X8754698Y-12607278I49994J2D01*
G01*
X8754698Y-12791222D02*
G75*
G02*
X8684421Y-12856080I-45051J-21688D01*
G01*
X8754698Y-12791222D02*
G75*
G02*
X8749751Y-12769534I44992J21672D01*
G01*
X10314750Y-8959534D02*
X10314750Y-8818966D01*
X10405305Y-8739250D02*
X10564195Y-8739250D01*
X10564195Y-9039250D02*
X10405305Y-9039250D01*
X10654750Y-8818966D02*
X10654750Y-8959534D01*
X10309802Y-8797278D02*
G75*
G02*
X10314750Y-8818966I-45051J-21688D01*
G01*
X10309802Y-8797278D02*
G75*
G02*
X10380079Y-8732420I45052J21688D01*
G01*
X10314750Y-8959534D02*
G75*
G02*
X10309802Y-8981222I-49999J0D01*
G01*
X10380079Y-9046080D02*
G75*
G02*
X10309802Y-8981222I-25226J43170D01*
G01*
X10380079Y-9046080D02*
G75*
G02*
X10405305Y-9039250I25226J-43171D01*
G01*
X10405305Y-8739250D02*
G75*
G02*
X10380079Y-8732420I0J50001D01*
G01*
X10564195Y-9039250D02*
G75*
G02*
X10589421Y-9046080I0J-50001D01*
G01*
X10589421Y-8732420D02*
G75*
G02*
X10564195Y-8739250I-25226J43171D01*
G01*
X10589421Y-8732420D02*
G75*
G02*
X10659698Y-8797278I25226J-43170D01*
G01*
X10654750Y-8818966D02*
G75*
G02*
X10659698Y-8797278I49994J2D01*
G01*
X10659698Y-8981222D02*
G75*
G02*
X10589421Y-9046080I-45051J-21688D01*
G01*
X10659698Y-8981222D02*
G75*
G02*
X10654751Y-8959534I44992J21672D01*
G01*
X8409750Y-8959534D02*
X8409750Y-8818966D01*
X8500305Y-8739250D02*
X8659195Y-8739250D01*
X8659195Y-9039250D02*
X8500305Y-9039250D01*
X8749750Y-8818966D02*
X8749750Y-8959534D01*
X8404802Y-8797278D02*
G75*
G02*
X8409750Y-8818966I-45051J-21688D01*
G01*
X8404802Y-8797278D02*
G75*
G02*
X8475079Y-8732420I45052J21688D01*
G01*
X8409750Y-8959534D02*
G75*
G02*
X8404802Y-8981222I-49999J0D01*
G01*
X8475079Y-9046080D02*
G75*
G02*
X8404802Y-8981222I-25226J43170D01*
G01*
X8475079Y-9046080D02*
G75*
G02*
X8500305Y-9039250I25226J-43171D01*
G01*
X8500305Y-8739250D02*
G75*
G02*
X8475079Y-8732420I0J50001D01*
G01*
X8659195Y-9039250D02*
G75*
G02*
X8684421Y-9046080I0J-50001D01*
G01*
X8684421Y-8732420D02*
G75*
G02*
X8659195Y-8739250I-25226J43171D01*
G01*
X8684421Y-8732420D02*
G75*
G02*
X8754698Y-8797278I25226J-43170D01*
G01*
X8749750Y-8818966D02*
G75*
G02*
X8754698Y-8797278I49994J2D01*
G01*
X8754698Y-8981222D02*
G75*
G02*
X8684421Y-9046080I-45051J-21688D01*
G01*
X8754698Y-8981222D02*
G75*
G02*
X8749751Y-8959534I44992J21672D01*
G01*
X10314750Y-12769534D02*
X10314750Y-12628966D01*
X10405305Y-12549250D02*
X10564195Y-12549250D01*
X10564195Y-12849250D02*
X10405305Y-12849250D01*
X10654750Y-12628966D02*
X10654750Y-12769534D01*
X10309802Y-12607278D02*
G75*
G02*
X10314750Y-12628966I-45051J-21688D01*
G01*
X10309802Y-12607278D02*
G75*
G02*
X10380079Y-12542420I45052J21688D01*
G01*
X10314750Y-12769534D02*
G75*
G02*
X10309802Y-12791222I-49999J0D01*
G01*
X10380079Y-12856080D02*
G75*
G02*
X10309802Y-12791222I-25226J43170D01*
G01*
X10380079Y-12856080D02*
G75*
G02*
X10405305Y-12849250I25226J-43171D01*
G01*
X10405305Y-12549250D02*
G75*
G02*
X10380079Y-12542420I0J50001D01*
G01*
X10564195Y-12849250D02*
G75*
G02*
X10589421Y-12856080I0J-50001D01*
G01*
X10589421Y-12542420D02*
G75*
G02*
X10564195Y-12549250I-25226J43171D01*
G01*
X10589421Y-12542420D02*
G75*
G02*
X10659698Y-12607278I25226J-43170D01*
G01*
X10654750Y-12628966D02*
G75*
G02*
X10659698Y-12607278I49994J2D01*
G01*
X10659698Y-12791222D02*
G75*
G02*
X10589421Y-12856080I-45051J-21688D01*
G01*
X10659698Y-12791222D02*
G75*
G02*
X10654751Y-12769534I44992J21672D01*
G01*
X6504750Y-8959534D02*
X6504750Y-8818966D01*
X6595305Y-8739250D02*
X6754195Y-8739250D01*
X6754195Y-9039250D02*
X6595305Y-9039250D01*
X6844750Y-8818966D02*
X6844750Y-8959534D01*
X6499802Y-8797278D02*
G75*
G02*
X6504750Y-8818966I-45051J-21688D01*
G01*
X6499802Y-8797278D02*
G75*
G02*
X6570079Y-8732420I45052J21688D01*
G01*
X6504750Y-8959534D02*
G75*
G02*
X6499802Y-8981222I-49999J0D01*
G01*
X6570079Y-9046080D02*
G75*
G02*
X6499802Y-8981222I-25226J43170D01*
G01*
X6570079Y-9046080D02*
G75*
G02*
X6595305Y-9039250I25226J-43171D01*
G01*
X6595305Y-8739250D02*
G75*
G02*
X6570079Y-8732420I0J50001D01*
G01*
X6754195Y-9039250D02*
G75*
G02*
X6779421Y-9046080I0J-50001D01*
G01*
X6779421Y-8732420D02*
G75*
G02*
X6754195Y-8739250I-25226J43171D01*
G01*
X6779421Y-8732420D02*
G75*
G02*
X6849698Y-8797278I25226J-43170D01*
G01*
X6844750Y-8818966D02*
G75*
G02*
X6849698Y-8797278I49994J2D01*
G01*
X6849698Y-8981222D02*
G75*
G02*
X6779421Y-9046080I-45051J-21688D01*
G01*
X6849698Y-8981222D02*
G75*
G02*
X6844751Y-8959534I44992J21672D01*
G01*
X6504750Y-14674534D02*
X6504750Y-14533966D01*
X6595305Y-14454250D02*
X6754195Y-14454250D01*
X6754195Y-14754250D02*
X6595305Y-14754250D01*
X6844750Y-14533966D02*
X6844750Y-14674534D01*
X6499802Y-14512278D02*
G75*
G02*
X6504750Y-14533966I-45051J-21688D01*
G01*
X6499802Y-14512278D02*
G75*
G02*
X6570079Y-14447420I45052J21688D01*
G01*
X6504750Y-14674534D02*
G75*
G02*
X6499802Y-14696222I-49999J0D01*
G01*
X6570079Y-14761080D02*
G75*
G02*
X6499802Y-14696222I-25226J43170D01*
G01*
X6570079Y-14761080D02*
G75*
G02*
X6595305Y-14754250I25226J-43171D01*
G01*
X6595305Y-14454250D02*
G75*
G02*
X6570079Y-14447420I0J50001D01*
G01*
X6754195Y-14754250D02*
G75*
G02*
X6779421Y-14761080I0J-50001D01*
G01*
X6779421Y-14447420D02*
G75*
G02*
X6754195Y-14454250I-25226J43171D01*
G01*
X6779421Y-14447420D02*
G75*
G02*
X6849698Y-14512278I25226J-43170D01*
G01*
X6844750Y-14533966D02*
G75*
G02*
X6849698Y-14512278I49994J2D01*
G01*
X6849698Y-14696222D02*
G75*
G02*
X6779421Y-14761080I-45051J-21688D01*
G01*
X6849698Y-14696222D02*
G75*
G02*
X6844751Y-14674534I44992J21672D01*
G01*
D12*
D11*
X4867250Y-5374340D02*
X4897250Y-5404340D01*
X4897250Y-5374340D02*
X4867250Y-5404340D01*
X5197800Y-10296800D02*
X5227800Y-10326800D01*
X5227800Y-10296800D02*
X5197800Y-10326800D01*
X5486080Y-10302100D02*
X5516080Y-10332100D01*
X5516080Y-10302100D02*
X5486080Y-10332100D01*
X5635400Y-7622110D02*
X5665400Y-7652110D01*
X5665400Y-7622110D02*
X5635400Y-7652110D01*
X5966740Y-7551950D02*
X5996740Y-7581950D01*
X5996740Y-7551950D02*
X5966740Y-7581950D01*
X6399520Y-14422900D02*
X6429520Y-14452900D01*
X6429520Y-14422900D02*
X6399520Y-14452900D01*
X6423870Y-14904700D02*
X6453870Y-14934700D01*
X6453870Y-14904700D02*
X6423870Y-14934700D01*
X6661700Y-8043160D02*
X6691700Y-8073160D01*
X6691700Y-8043160D02*
X6661700Y-8073160D01*
X6838180Y-4611600D02*
X6868180Y-4641600D01*
X6868180Y-4611600D02*
X6838180Y-4641600D01*
X6978520Y-8676250D02*
X7008520Y-8706250D01*
X7008520Y-8676250D02*
X6978520Y-8706250D01*
X7052760Y-10868200D02*
X7082760Y-10898200D01*
X7082760Y-10868200D02*
X7052760Y-10898200D01*
X7229250Y-6055020D02*
X7259250Y-6085020D01*
X7259250Y-6055020D02*
X7229250Y-6085020D01*
X7463420Y-8949250D02*
X7493420Y-8979250D01*
X7493420Y-8949250D02*
X7463420Y-8979250D01*
X7581000Y-9232380D02*
X7611000Y-9262380D01*
X7611000Y-9232380D02*
X7581000Y-9262380D01*
X7581000Y-10975600D02*
X7611000Y-11005600D01*
X7611000Y-10975600D02*
X7581000Y-11005600D01*
X7768760Y-9190690D02*
X7798760Y-9220690D01*
X7798760Y-9190690D02*
X7768760Y-9220690D01*
X7777410Y-6786840D02*
X7807410Y-6816840D01*
X7807410Y-6786840D02*
X7777410Y-6816840D01*
X7905410Y-6789870D02*
X7935410Y-6819870D01*
X7935410Y-6789870D02*
X7905410Y-6819870D01*
X8174350Y-8799250D02*
X8204350Y-8829250D01*
X8204350Y-8799250D02*
X8174350Y-8829250D01*
X8176800Y-12545300D02*
X8206800Y-12575300D01*
X8206800Y-12545300D02*
X8176800Y-12575300D01*
X8192440Y-14439200D02*
X8222440Y-14469200D01*
X8222440Y-14439200D02*
X8192440Y-14469200D01*
X8403700Y-13471600D02*
X8433700Y-13501600D01*
X8433700Y-13471600D02*
X8403700Y-13501600D01*
X8456280Y-8016380D02*
X8486280Y-8046380D01*
X8486280Y-8016380D02*
X8456280Y-8046380D01*
X8764940Y-9536200D02*
X8794940Y-9566200D01*
X8794940Y-9536200D02*
X8764940Y-9566200D01*
X8801510Y-10946100D02*
X8831510Y-10976100D01*
X8831510Y-10946100D02*
X8801510Y-10976100D01*
X8919330Y-11289000D02*
X8949330Y-11319000D01*
X8949330Y-11289000D02*
X8919330Y-11319000D01*
X9368400Y-11349200D02*
X9398400Y-11379200D01*
X9398400Y-11349200D02*
X9368400Y-11379200D01*
X9480920Y-6201860D02*
X9510920Y-6231860D01*
X9510920Y-6201860D02*
X9480920Y-6231860D01*
X9553080Y-4090620D02*
X9583080Y-4120620D01*
X9583080Y-4090620D02*
X9553080Y-4120620D01*
X9633420Y-8112250D02*
X9663420Y-8142250D01*
X9663420Y-8112250D02*
X9633420Y-8142250D01*
X9729340Y-6852540D02*
X9759340Y-6882540D01*
X9759340Y-6852540D02*
X9729340Y-6882540D01*
X10089400Y-9016810D02*
X10119400Y-9046810D01*
X10119400Y-9016810D02*
X10089400Y-9046810D01*
X10143200Y-7323500D02*
X10173200Y-7353500D01*
X10173200Y-7323500D02*
X10143200Y-7353500D01*
X10175800Y-12885300D02*
X10205800Y-12915300D01*
X10205800Y-12885300D02*
X10175800Y-12915300D01*
X10208100Y-9475950D02*
X10238100Y-9505950D01*
X10238100Y-9475950D02*
X10208100Y-9505950D01*
X10584200Y-7490020D02*
X10614200Y-7520020D01*
X10614200Y-7490020D02*
X10584200Y-7520020D01*
X10690100Y-10946200D02*
X10720100Y-10976200D01*
X10720100Y-10946200D02*
X10690100Y-10976200D01*
X10763200Y-7664400D02*
X10793200Y-7694400D01*
X10793200Y-7664400D02*
X10763200Y-7694400D01*
X10801300Y-10546800D02*
X10831300Y-10576800D01*
X10831300Y-10546800D02*
X10801300Y-10576800D01*
X10860300Y-12724600D02*
X10890300Y-12754600D01*
X10890300Y-12724600D02*
X10860300Y-12754600D01*
X10862400Y-14687900D02*
X10892400Y-14717900D01*
X10892400Y-14687900D02*
X10862400Y-14717900D01*
X10958500Y-7421350D02*
X10988500Y-7451350D01*
X10988500Y-7421350D02*
X10958500Y-7451350D01*
X11155800Y-8949250D02*
X11185800Y-8979250D01*
X11185800Y-8949250D02*
X11155800Y-8979250D01*
X11155800Y-11349200D02*
X11185800Y-11379200D01*
X11185800Y-11349200D02*
X11155800Y-11379200D01*
X11453700Y-14514200D02*
X11483700Y-14544200D01*
X11483700Y-14514200D02*
X11453700Y-14544200D01*
X11453700Y-14894000D02*
X11483700Y-14924000D01*
X11483700Y-14894000D02*
X11453700Y-14924000D01*
X11493400Y-9413730D02*
X11523400Y-9443730D01*
X11523400Y-9413730D02*
X11493400Y-9443730D01*
X11553400Y-10140400D02*
X11583400Y-10170400D01*
X11583400Y-10140400D02*
X11553400Y-10170400D01*
X11553400Y-13151200D02*
X11583400Y-13181200D01*
X11583400Y-13151200D02*
X11553400Y-13181200D01*
X11751600Y-6166760D02*
X11781600Y-6196760D01*
X11781600Y-6166760D02*
X11751600Y-6196760D01*
X11751600Y-6725380D02*
X11781600Y-6755380D01*
X11781600Y-6725380D02*
X11751600Y-6755380D01*
X11791700Y-10536800D02*
X11821700Y-10566800D01*
X11821700Y-10536800D02*
X11791700Y-10566800D01*
X12849500Y-6447830D02*
X12879500Y-6477830D01*
X12879500Y-6447830D02*
X12849500Y-6477830D01*
X13007400Y-6078260D02*
X13037400Y-6108260D01*
X13037400Y-6078260D02*
X13007400Y-6108260D01*
X13264000Y-6203700D02*
X13294000Y-6233700D01*
X13294000Y-6203700D02*
X13264000Y-6233700D01*
X6783250Y-6357750D02*
G75*
G02*
X6713250Y-6357750I-35000J0D01*
G01*
X6713250Y-6357750D02*
G75*
G02*
X6783250Y-6357750I35000J0D01*
G01*
X6783250Y-6357750D02*
G75*
G02*
X6713250Y-6357750I-35000J0D01*
G01*
X6713250Y-6357750D02*
G75*
G02*
X6783250Y-6357750I35000J0D01*
G01*
X6783250Y-7119750D02*
G75*
G02*
X6713250Y-7119750I-35000J0D01*
G01*
X6713250Y-7119750D02*
G75*
G02*
X6783250Y-7119750I35000J0D01*
G01*
X6783250Y-7119750D02*
G75*
G02*
X6713250Y-7119750I-35000J0D01*
G01*
X6713250Y-7119750D02*
G75*
G02*
X6783250Y-7119750I35000J0D01*
G01*
X7093250Y-6357750D02*
G75*
G02*
X7023250Y-6357750I-35000J0D01*
G01*
X7023250Y-6357750D02*
G75*
G02*
X7093250Y-6357750I35000J0D01*
G01*
X7093250Y-7119750D02*
G75*
G02*
X7023250Y-7119750I-35000J0D01*
G01*
X7023250Y-7119750D02*
G75*
G02*
X7093250Y-7119750I35000J0D01*
G01*
X12912250Y-5526380D02*
X12912250Y-5605120D01*
X12872880Y-5565750D02*
X12951620Y-5565750D01*
X12912250Y-6288380D02*
X12912250Y-6367120D01*
X12872880Y-6327750D02*
X12951620Y-6327750D01*
X13166250Y-5526380D02*
X13166250Y-5605120D01*
X13126880Y-5565750D02*
X13205620Y-5565750D01*
X13166250Y-6288380D02*
X13166250Y-6367120D01*
X13126880Y-6327750D02*
X13205620Y-6327750D01*
X13420250Y-5526380D02*
X13420250Y-5605120D01*
X13380880Y-5565750D02*
X13459620Y-5565750D01*
X13420250Y-6288380D02*
X13420250Y-6367120D01*
X13380880Y-6327750D02*
X13459620Y-6327750D01*
X13674250Y-5526380D02*
X13674250Y-5605120D01*
X13634880Y-5565750D02*
X13713620Y-5565750D01*
X13674250Y-6288380D02*
X13674250Y-6367120D01*
X13634880Y-6327750D02*
X13713620Y-6327750D01*
X13928250Y-5526380D02*
X13928250Y-5605120D01*
X13888880Y-5565750D02*
X13967620Y-5565750D01*
X13928250Y-6288380D02*
X13928250Y-6367120D01*
X13888880Y-6327750D02*
X13967620Y-6327750D01*
X14182250Y-5526380D02*
X14182250Y-5605120D01*
X14142880Y-5565750D02*
X14221620Y-5565750D01*
X14182250Y-6288380D02*
X14182250Y-6367120D01*
X14142880Y-6327750D02*
X14221620Y-6327750D01*
X14436250Y-5526380D02*
X14436250Y-5605120D01*
X14396880Y-5565750D02*
X14475620Y-5565750D01*
X14436250Y-6288380D02*
X14436250Y-6367120D01*
X14396880Y-6327750D02*
X14475620Y-6327750D01*
X14690250Y-5526380D02*
X14690250Y-5605120D01*
X14650880Y-5565750D02*
X14729620Y-5565750D01*
X14690250Y-6288380D02*
X14690250Y-6367120D01*
X14650880Y-6327750D02*
X14729620Y-6327750D01*
X7396534Y-6386034D02*
X7396534Y-6329465D01*
X7339965Y-6329465D01*
X7339965Y-6386034D01*
X7396534Y-6386034D01*
X7396534Y-7148034D02*
X7396534Y-7091465D01*
X7339965Y-7091465D01*
X7339965Y-7148034D01*
X7396534Y-7148034D01*
X7706534Y-6386034D02*
X7706534Y-6329465D01*
X7649965Y-6329465D01*
X7649965Y-6386034D01*
X7706534Y-6386034D01*
X7706534Y-7148034D02*
X7706534Y-7091465D01*
X7649965Y-7091465D01*
X7649965Y-7148034D01*
X7706534Y-7148034D01*
X8016534Y-6386034D02*
X8016534Y-6329465D01*
X7959965Y-6329465D01*
X7959965Y-6386034D01*
X8016534Y-6386034D01*
X8016534Y-7148034D02*
X8016534Y-7091465D01*
X7959965Y-7091465D01*
X7959965Y-7148034D01*
X8016534Y-7148034D01*
X8326534Y-6386034D02*
X8326534Y-6329465D01*
X8269965Y-6329465D01*
X8269965Y-6386034D01*
X8326534Y-6386034D01*
X8326534Y-7148034D02*
X8326534Y-7091465D01*
X8269965Y-7091465D01*
X8269965Y-7148034D01*
X8326534Y-7148034D01*
X8636535Y-6386034D02*
X8636535Y-6329465D01*
X8579966Y-6329465D01*
X8579966Y-6386034D01*
X8636535Y-6386034D01*
X8636535Y-7148034D02*
X8636535Y-7091465D01*
X8579966Y-7091465D01*
X8579966Y-7148034D01*
X8636535Y-7148034D01*
X8946535Y-6386034D02*
X8946535Y-6329465D01*
X8889966Y-6329465D01*
X8889966Y-6386034D01*
X8946535Y-6386034D01*
X8946535Y-7148034D02*
X8946535Y-7091465D01*
X8889966Y-7091465D01*
X8889966Y-7148034D01*
X8946535Y-7148034D01*
X9256535Y-6386034D02*
X9256535Y-6329465D01*
X9199966Y-6329465D01*
X9199966Y-6386034D01*
X9256535Y-6386034D01*
X9256535Y-7148034D02*
X9256535Y-7091465D01*
X9199966Y-7091465D01*
X9199966Y-7148034D01*
X9256535Y-7148034D01*
X9566535Y-6386034D02*
X9566535Y-6329465D01*
X9509966Y-6329465D01*
X9509966Y-6386034D01*
X9566535Y-6386034D01*
X9566535Y-7148034D02*
X9566535Y-7091465D01*
X9509966Y-7091465D01*
X9509966Y-7148034D01*
X9566535Y-7148034D01*
X9876535Y-6386034D02*
X9876535Y-6329465D01*
X9819966Y-6329465D01*
X9819966Y-6386034D01*
X9876535Y-6386034D01*
X9876535Y-7148034D02*
X9876535Y-7091465D01*
X9819966Y-7091465D01*
X9819966Y-7148034D01*
X9876535Y-7148034D01*
X10186535Y-6386034D02*
X10186535Y-6329465D01*
X10129966Y-6329465D01*
X10129966Y-6386034D01*
X10186535Y-6386034D01*
X10186535Y-7148034D02*
X10186535Y-7091465D01*
X10129966Y-7091465D01*
X10129966Y-7148034D01*
X10186535Y-7148034D01*
X10496535Y-6386034D02*
X10496535Y-6329465D01*
X10439966Y-6329465D01*
X10439966Y-6386034D01*
X10496535Y-6386034D01*
X10496535Y-7148034D02*
X10496535Y-7091465D01*
X10439966Y-7091465D01*
X10439966Y-7148034D01*
X10496535Y-7148034D01*
X10806535Y-6386034D02*
X10806535Y-6329465D01*
X10749966Y-6329465D01*
X10749966Y-6386034D01*
X10806535Y-6386034D01*
X10806535Y-7148034D02*
X10806535Y-7091465D01*
X10749966Y-7091465D01*
X10749966Y-7148034D01*
X10806535Y-7148034D01*
X11116535Y-6386034D02*
X11116535Y-6329465D01*
X11059966Y-6329465D01*
X11059966Y-6386034D01*
X11116535Y-6386034D01*
X11116535Y-7148034D02*
X11116535Y-7091465D01*
X11059966Y-7091465D01*
X11059966Y-7148034D01*
X11116535Y-7148034D01*
X11426534Y-6386034D02*
X11426534Y-6329465D01*
X11369965Y-6329465D01*
X11369965Y-6386034D01*
X11426534Y-6386034D01*
X11426534Y-7148034D02*
X11426534Y-7091465D01*
X11369965Y-7091465D01*
X11369965Y-7148034D01*
X11426534Y-7148034D01*
X11736534Y-6386034D02*
X11736534Y-6329465D01*
X11679965Y-6329465D01*
X11679965Y-6386034D01*
X11736534Y-6386034D01*
X11736534Y-7148034D02*
X11736534Y-7091465D01*
X11679965Y-7091465D01*
X11679965Y-7148034D01*
X11736534Y-7148034D01*
X12046534Y-6386034D02*
X12046534Y-6329465D01*
X11989965Y-6329465D01*
X11989965Y-6386034D01*
X12046534Y-6386034D01*
X12046534Y-7148034D02*
X12046534Y-7091465D01*
X11989965Y-7091465D01*
X11989965Y-7148034D01*
X12046534Y-7148034D01*
X12356534Y-6386034D02*
X12356534Y-6329465D01*
X12299965Y-6329465D01*
X12299965Y-6386034D01*
X12356534Y-6386034D01*
X12356534Y-7148034D02*
X12356534Y-7091465D01*
X12299965Y-7091465D01*
X12299965Y-7148034D01*
X12356534Y-7148034D01*
X13242090Y-15750910D02*
X13287090Y-15705910D01*
X13242090Y-15660910D01*
X13197090Y-15705910D01*
X13242090Y-15750910D01*
X13421695Y-15571305D02*
X13466695Y-15526305D01*
X13421695Y-15481305D01*
X13376695Y-15526305D01*
X13421695Y-15571305D01*
X4832250Y-9245750D02*
X4932250Y-9345750D01*
X4932250Y-9245750D02*
X4832250Y-9345750D01*
X4932250Y-9295750D02*
G75*
G02*
X4832250Y-9295750I-50000J0D01*
G01*
X4832250Y-9295750D02*
G75*
G02*
X4932250Y-9295750I50000J0D01*
G01*
X4832250Y-9499750D02*
X4932250Y-9599750D01*
X4932250Y-9499750D02*
X4832250Y-9599750D01*
X4932250Y-9549750D02*
G75*
G02*
X4832250Y-9549750I-50000J0D01*
G01*
X4832250Y-9549750D02*
G75*
G02*
X4932250Y-9549750I50000J0D01*
G01*
X4832250Y-9753750D02*
X4932250Y-9853750D01*
X4932250Y-9753750D02*
X4832250Y-9853750D01*
X4932250Y-9803750D02*
G75*
G02*
X4832250Y-9803750I-50000J0D01*
G01*
X4832250Y-9803750D02*
G75*
G02*
X4932250Y-9803750I50000J0D01*
G01*
X4832250Y-10007750D02*
X4932250Y-10107750D01*
X4932250Y-10007750D02*
X4832250Y-10107750D01*
X4932250Y-10057750D02*
G75*
G02*
X4832250Y-10057750I-50000J0D01*
G01*
X4832250Y-10057750D02*
G75*
G02*
X4932250Y-10057750I50000J0D01*
G01*
X4832250Y-10261750D02*
X4932250Y-10361750D01*
X4932250Y-10261750D02*
X4832250Y-10361750D01*
X4932250Y-10311750D02*
G75*
G02*
X4832250Y-10311750I-50000J0D01*
G01*
X4832250Y-10311750D02*
G75*
G02*
X4932250Y-10311750I50000J0D01*
G01*
X4832250Y-10515750D02*
X4932250Y-10615750D01*
X4932250Y-10515750D02*
X4832250Y-10615750D01*
X4932250Y-10565750D02*
G75*
G02*
X4832250Y-10565750I-50000J0D01*
G01*
X4832250Y-10565750D02*
G75*
G02*
X4932250Y-10565750I50000J0D01*
G01*
X4832250Y-10769750D02*
X4932250Y-10869750D01*
X4932250Y-10769750D02*
X4832250Y-10869750D01*
X4932250Y-10819750D02*
G75*
G02*
X4832250Y-10819750I-50000J0D01*
G01*
X4832250Y-10819750D02*
G75*
G02*
X4932250Y-10819750I50000J0D01*
G01*
X4832250Y-11023750D02*
X4932250Y-11123750D01*
X4932250Y-11023750D02*
X4832250Y-11123750D01*
X4932250Y-11073750D02*
G75*
G02*
X4832250Y-11073750I-50000J0D01*
G01*
X4832250Y-11073750D02*
G75*
G02*
X4932250Y-11073750I50000J0D01*
G01*
X4832250Y-11277750D02*
X4932250Y-11377750D01*
X4932250Y-11277750D02*
X4832250Y-11377750D01*
X4932250Y-11327750D02*
G75*
G02*
X4832250Y-11327750I-50000J0D01*
G01*
X4832250Y-11327750D02*
G75*
G02*
X4932250Y-11327750I50000J0D01*
G01*
X4832250Y-11531750D02*
X4932250Y-11631750D01*
X4932250Y-11531750D02*
X4832250Y-11631750D01*
X4932250Y-11581750D02*
G75*
G02*
X4832250Y-11581750I-50000J0D01*
G01*
X4832250Y-11581750D02*
G75*
G02*
X4932250Y-11581750I50000J0D01*
G01*
X5670250Y-2978750D02*
X5770250Y-3078750D01*
X5770250Y-2978750D02*
X5670250Y-3078750D01*
X5770250Y-3028750D02*
G75*
G02*
X5670250Y-3028750I-50000J0D01*
G01*
X5670250Y-3028750D02*
G75*
G02*
X5770250Y-3028750I50000J0D01*
G01*
X5670250Y-3232750D02*
X5770250Y-3332750D01*
X5770250Y-3232750D02*
X5670250Y-3332750D01*
X5770250Y-3282750D02*
G75*
G02*
X5670250Y-3282750I-50000J0D01*
G01*
X5670250Y-3282750D02*
G75*
G02*
X5770250Y-3282750I50000J0D01*
G01*
X5670250Y-3486750D02*
X5770250Y-3586750D01*
X5770250Y-3486750D02*
X5670250Y-3586750D01*
X5770250Y-3536750D02*
G75*
G02*
X5670250Y-3536750I-50000J0D01*
G01*
X5670250Y-3536750D02*
G75*
G02*
X5770250Y-3536750I50000J0D01*
G01*
X5670250Y-3740750D02*
X5770250Y-3840750D01*
X5770250Y-3740750D02*
X5670250Y-3840750D01*
X5770250Y-3790750D02*
G75*
G02*
X5670250Y-3790750I-50000J0D01*
G01*
X5670250Y-3790750D02*
G75*
G02*
X5770250Y-3790750I50000J0D01*
G01*
X5670250Y-3994750D02*
X5770250Y-4094750D01*
X5770250Y-3994750D02*
X5670250Y-4094750D01*
X5770250Y-4044750D02*
G75*
G02*
X5670250Y-4044750I-50000J0D01*
G01*
X5670250Y-4044750D02*
G75*
G02*
X5770250Y-4044750I50000J0D01*
G01*
X5670250Y-4248750D02*
X5770250Y-4348750D01*
X5770250Y-4248750D02*
X5670250Y-4348750D01*
X5770250Y-4298750D02*
G75*
G02*
X5670250Y-4298750I-50000J0D01*
G01*
X5670250Y-4298750D02*
G75*
G02*
X5770250Y-4298750I50000J0D01*
G01*
X5670250Y-4502750D02*
X5770250Y-4602750D01*
X5770250Y-4502750D02*
X5670250Y-4602750D01*
X5770250Y-4552750D02*
G75*
G02*
X5670250Y-4552750I-50000J0D01*
G01*
X5670250Y-4552750D02*
G75*
G02*
X5770250Y-4552750I50000J0D01*
G01*
X7194250Y-2978750D02*
X7294250Y-3078750D01*
X7294250Y-2978750D02*
X7194250Y-3078750D01*
X7294250Y-3028750D02*
G75*
G02*
X7194250Y-3028750I-50000J0D01*
G01*
X7194250Y-3028750D02*
G75*
G02*
X7294250Y-3028750I50000J0D01*
G01*
X7194250Y-3232750D02*
X7294250Y-3332750D01*
X7294250Y-3232750D02*
X7194250Y-3332750D01*
X7294250Y-3282750D02*
G75*
G02*
X7194250Y-3282750I-50000J0D01*
G01*
X7194250Y-3282750D02*
G75*
G02*
X7294250Y-3282750I50000J0D01*
G01*
X7194250Y-3486750D02*
X7294250Y-3586750D01*
X7294250Y-3486750D02*
X7194250Y-3586750D01*
X7294250Y-3536750D02*
G75*
G02*
X7194250Y-3536750I-50000J0D01*
G01*
X7194250Y-3536750D02*
G75*
G02*
X7294250Y-3536750I50000J0D01*
G01*
X7194250Y-3740750D02*
X7294250Y-3840750D01*
X7294250Y-3740750D02*
X7194250Y-3840750D01*
X7294250Y-3790750D02*
G75*
G02*
X7194250Y-3790750I-50000J0D01*
G01*
X7194250Y-3790750D02*
G75*
G02*
X7294250Y-3790750I50000J0D01*
G01*
X7194250Y-3994750D02*
X7294250Y-4094750D01*
X7294250Y-3994750D02*
X7194250Y-4094750D01*
X7294250Y-4044750D02*
G75*
G02*
X7194250Y-4044750I-50000J0D01*
G01*
X7194250Y-4044750D02*
G75*
G02*
X7294250Y-4044750I50000J0D01*
G01*
X7194250Y-4248750D02*
X7294250Y-4348750D01*
X7294250Y-4248750D02*
X7194250Y-4348750D01*
X7294250Y-4298750D02*
G75*
G02*
X7194250Y-4298750I-50000J0D01*
G01*
X7194250Y-4298750D02*
G75*
G02*
X7294250Y-4298750I50000J0D01*
G01*
X7194250Y-4502750D02*
X7294250Y-4602750D01*
X7294250Y-4502750D02*
X7194250Y-4602750D01*
X7294250Y-4552750D02*
G75*
G02*
X7194250Y-4552750I-50000J0D01*
G01*
X7194250Y-4552750D02*
G75*
G02*
X7294250Y-4552750I50000J0D01*
G01*
X9120250Y-2955750D02*
X9220250Y-3055750D01*
X9220250Y-2955750D02*
X9120250Y-3055750D01*
X9220250Y-3005750D02*
G75*
G02*
X9120250Y-3005750I-50000J0D01*
G01*
X9120250Y-3005750D02*
G75*
G02*
X9220250Y-3005750I50000J0D01*
G01*
X9374250Y-2955750D02*
X9474250Y-3055750D01*
X9474250Y-2955750D02*
X9374250Y-3055750D01*
X9474250Y-3005750D02*
G75*
G02*
X9374250Y-3005750I-50000J0D01*
G01*
X9374250Y-3005750D02*
G75*
G02*
X9474250Y-3005750I50000J0D01*
G01*
X9628250Y-2955750D02*
X9728250Y-3055750D01*
X9728250Y-2955750D02*
X9628250Y-3055750D01*
X9728250Y-3005750D02*
G75*
G02*
X9628250Y-3005750I-50000J0D01*
G01*
X9628250Y-3005750D02*
G75*
G02*
X9728250Y-3005750I50000J0D01*
G01*
X9882250Y-2955750D02*
X9982250Y-3055750D01*
X9982250Y-2955750D02*
X9882250Y-3055750D01*
X9982250Y-3005750D02*
G75*
G02*
X9882250Y-3005750I-50000J0D01*
G01*
X9882250Y-3005750D02*
G75*
G02*
X9982250Y-3005750I50000J0D01*
G01*
X11857250Y-3765750D02*
X11957250Y-3865750D01*
X11957250Y-3765750D02*
X11857250Y-3865750D01*
X11957250Y-3815750D02*
G75*
G02*
X11857250Y-3815750I-50000J0D01*
G01*
X11857250Y-3815750D02*
G75*
G02*
X11957250Y-3815750I50000J0D01*
G01*
X11857250Y-4015750D02*
X11957250Y-4115750D01*
X11957250Y-4015750D02*
X11857250Y-4115750D01*
X11957250Y-4065750D02*
G75*
G02*
X11857250Y-4065750I-50000J0D01*
G01*
X11857250Y-4065750D02*
G75*
G02*
X11957250Y-4065750I50000J0D01*
G01*
X11857250Y-4265750D02*
X11957250Y-4365750D01*
X11957250Y-4265750D02*
X11857250Y-4365750D01*
X11957250Y-4315750D02*
G75*
G02*
X11857250Y-4315750I-50000J0D01*
G01*
X11857250Y-4315750D02*
G75*
G02*
X11957250Y-4315750I50000J0D01*
G01*
X13307250Y-3765750D02*
X13407250Y-3865750D01*
X13407250Y-3765750D02*
X13307250Y-3865750D01*
X13407250Y-3815750D02*
G75*
G02*
X13307250Y-3815750I-50000J0D01*
G01*
X13307250Y-3815750D02*
G75*
G02*
X13407250Y-3815750I50000J0D01*
G01*
X13307250Y-4265750D02*
X13407250Y-4365750D01*
X13407250Y-4265750D02*
X13307250Y-4365750D01*
X13407250Y-4315750D02*
G75*
G02*
X13307250Y-4315750I-50000J0D01*
G01*
X13307250Y-4315750D02*
G75*
G02*
X13407250Y-4315750I50000J0D01*
G01*
D13*
X5348130Y-6064950D02*
X5449730Y-6166550D01*
X5449730Y-6064950D02*
X5348130Y-6166550D01*
X5398930Y-6064950D02*
X5398930Y-6166550D01*
X5348130Y-6115750D02*
X5449730Y-6115750D01*
X5848130Y-6064950D02*
X5949730Y-6166550D01*
X5949730Y-6064950D02*
X5848130Y-6166550D01*
X5898930Y-6064950D02*
X5898930Y-6166550D01*
X5848130Y-6115750D02*
X5949730Y-6115750D01*
D14*
X6218750Y-8052250D02*
X6368750Y-8202250D01*
X6368750Y-8052250D02*
X6218750Y-8202250D01*
X6346783Y-8180283D02*
X6346783Y-8074216D01*
X6240716Y-8074216D01*
X6240716Y-8180283D01*
X6346783Y-8180283D01*
X6218750Y-9957250D02*
X6368750Y-10107250D01*
X6368750Y-9957250D02*
X6218750Y-10107250D01*
X6346783Y-10085284D02*
X6346783Y-9979217D01*
X6240716Y-9979217D01*
X6240716Y-10085284D01*
X6346783Y-10085284D01*
X6218750Y-11862250D02*
X6368750Y-12012250D01*
X6368750Y-11862250D02*
X6218750Y-12012250D01*
X6346783Y-11990283D02*
X6346783Y-11884216D01*
X6240716Y-11884216D01*
X6240716Y-11990283D01*
X6346783Y-11990283D01*
X6218750Y-13767250D02*
X6368750Y-13917250D01*
X6368750Y-13767250D02*
X6218750Y-13917250D01*
X6346783Y-13895283D02*
X6346783Y-13789216D01*
X6240716Y-13789216D01*
X6240716Y-13895283D01*
X6346783Y-13895283D01*
X6853750Y-7798250D02*
X7003750Y-7948250D01*
X7003750Y-7798250D02*
X6853750Y-7948250D01*
X6981783Y-7926283D02*
X6981783Y-7820216D01*
X6875716Y-7820216D01*
X6875716Y-7926283D01*
X6981783Y-7926283D01*
X6853750Y-9703250D02*
X7003750Y-9853250D01*
X7003750Y-9703250D02*
X6853750Y-9853250D01*
X6981783Y-9831284D02*
X6981783Y-9725217D01*
X6875716Y-9725217D01*
X6875716Y-9831284D01*
X6981783Y-9831284D01*
X6853750Y-11608250D02*
X7003750Y-11758250D01*
X7003750Y-11608250D02*
X6853750Y-11758250D01*
X6981783Y-11736283D02*
X6981783Y-11630216D01*
X6875716Y-11630216D01*
X6875716Y-11736283D01*
X6981783Y-11736283D01*
X6853750Y-13513250D02*
X7003750Y-13663250D01*
X7003750Y-13513250D02*
X6853750Y-13663250D01*
X6981783Y-13641283D02*
X6981783Y-13535216D01*
X6875716Y-13535216D01*
X6875716Y-13641283D01*
X6981783Y-13641283D01*
X8123750Y-8052250D02*
X8273750Y-8202250D01*
X8273750Y-8052250D02*
X8123750Y-8202250D01*
X8251783Y-8180283D02*
X8251783Y-8074216D01*
X8145716Y-8074216D01*
X8145716Y-8180283D01*
X8251783Y-8180283D01*
X8123750Y-9957250D02*
X8273750Y-10107250D01*
X8273750Y-9957250D02*
X8123750Y-10107250D01*
X8251783Y-10085284D02*
X8251783Y-9979217D01*
X8145716Y-9979217D01*
X8145716Y-10085284D01*
X8251783Y-10085284D01*
X8123750Y-11862250D02*
X8273750Y-12012250D01*
X8273750Y-11862250D02*
X8123750Y-12012250D01*
X8251783Y-11990283D02*
X8251783Y-11884216D01*
X8145716Y-11884216D01*
X8145716Y-11990283D01*
X8251783Y-11990283D01*
X8123750Y-13767250D02*
X8273750Y-13917250D01*
X8273750Y-13767250D02*
X8123750Y-13917250D01*
X8251783Y-13895283D02*
X8251783Y-13789216D01*
X8145716Y-13789216D01*
X8145716Y-13895283D01*
X8251783Y-13895283D01*
X8758750Y-7798250D02*
X8908750Y-7948250D01*
X8908750Y-7798250D02*
X8758750Y-7948250D01*
X8886784Y-7926283D02*
X8886784Y-7820216D01*
X8780717Y-7820216D01*
X8780717Y-7926283D01*
X8886784Y-7926283D01*
X8758750Y-9703250D02*
X8908750Y-9853250D01*
X8908750Y-9703250D02*
X8758750Y-9853250D01*
X8886784Y-9831284D02*
X8886784Y-9725217D01*
X8780717Y-9725217D01*
X8780717Y-9831284D01*
X8886784Y-9831284D01*
X8758750Y-11608250D02*
X8908750Y-11758250D01*
X8908750Y-11608250D02*
X8758750Y-11758250D01*
X8886784Y-11736283D02*
X8886784Y-11630216D01*
X8780717Y-11630216D01*
X8780717Y-11736283D01*
X8886784Y-11736283D01*
X8758750Y-13513250D02*
X8908750Y-13663250D01*
X8908750Y-13513250D02*
X8758750Y-13663250D01*
X8886784Y-13641283D02*
X8886784Y-13535216D01*
X8780717Y-13535216D01*
X8780717Y-13641283D01*
X8886784Y-13641283D01*
X10028750Y-8052250D02*
X10178750Y-8202250D01*
X10178750Y-8052250D02*
X10028750Y-8202250D01*
X10156784Y-8180283D02*
X10156784Y-8074216D01*
X10050717Y-8074216D01*
X10050717Y-8180283D01*
X10156784Y-8180283D01*
X10028750Y-9957250D02*
X10178750Y-10107250D01*
X10178750Y-9957250D02*
X10028750Y-10107250D01*
X10156784Y-10085284D02*
X10156784Y-9979217D01*
X10050717Y-9979217D01*
X10050717Y-10085284D01*
X10156784Y-10085284D01*
X10028750Y-11862250D02*
X10178750Y-12012250D01*
X10178750Y-11862250D02*
X10028750Y-12012250D01*
X10156784Y-11990283D02*
X10156784Y-11884216D01*
X10050717Y-11884216D01*
X10050717Y-11990283D01*
X10156784Y-11990283D01*
X10028750Y-13767250D02*
X10178750Y-13917250D01*
X10178750Y-13767250D02*
X10028750Y-13917250D01*
X10156784Y-13895283D02*
X10156784Y-13789216D01*
X10050717Y-13789216D01*
X10050717Y-13895283D01*
X10156784Y-13895283D01*
X10663750Y-7798250D02*
X10813750Y-7948250D01*
X10813750Y-7798250D02*
X10663750Y-7948250D01*
X10791784Y-7926283D02*
X10791784Y-7820216D01*
X10685717Y-7820216D01*
X10685717Y-7926283D01*
X10791784Y-7926283D01*
X10663750Y-9703250D02*
X10813750Y-9853250D01*
X10813750Y-9703250D02*
X10663750Y-9853250D01*
X10791784Y-9831284D02*
X10791784Y-9725217D01*
X10685717Y-9725217D01*
X10685717Y-9831284D01*
X10791784Y-9831284D01*
X10663750Y-11608250D02*
X10813750Y-11758250D01*
X10813750Y-11608250D02*
X10663750Y-11758250D01*
X10791784Y-11736283D02*
X10791784Y-11630216D01*
X10685717Y-11630216D01*
X10685717Y-11736283D01*
X10791784Y-11736283D01*
X10663750Y-13513250D02*
X10813750Y-13663250D01*
X10813750Y-13513250D02*
X10663750Y-13663250D01*
X10791784Y-13641283D02*
X10791784Y-13535216D01*
X10685717Y-13535216D01*
X10685717Y-13641283D01*
X10791784Y-13641283D01*
X11933750Y-8052250D02*
X12083750Y-8202250D01*
X12083750Y-8052250D02*
X11933750Y-8202250D01*
X12061783Y-8180283D02*
X12061783Y-8074216D01*
X11955716Y-8074216D01*
X11955716Y-8180283D01*
X12061783Y-8180283D01*
X11933750Y-9957250D02*
X12083750Y-10107250D01*
X12083750Y-9957250D02*
X11933750Y-10107250D01*
X12061783Y-10085284D02*
X12061783Y-9979217D01*
X11955716Y-9979217D01*
X11955716Y-10085284D01*
X12061783Y-10085284D01*
X11933750Y-11862250D02*
X12083750Y-12012250D01*
X12083750Y-11862250D02*
X11933750Y-12012250D01*
X12061783Y-11990283D02*
X12061783Y-11884216D01*
X11955716Y-11884216D01*
X11955716Y-11990283D01*
X12061783Y-11990283D01*
X11933750Y-13767250D02*
X12083750Y-13917250D01*
X12083750Y-13767250D02*
X11933750Y-13917250D01*
X12061783Y-13895283D02*
X12061783Y-13789216D01*
X11955716Y-13789216D01*
X11955716Y-13895283D01*
X12061783Y-13895283D01*
X12568750Y-7798250D02*
X12718750Y-7948250D01*
X12718750Y-7798250D02*
X12568750Y-7948250D01*
X12696783Y-7926283D02*
X12696783Y-7820216D01*
X12590716Y-7820216D01*
X12590716Y-7926283D01*
X12696783Y-7926283D01*
X12568750Y-9703250D02*
X12718750Y-9853250D01*
X12718750Y-9703250D02*
X12568750Y-9853250D01*
X12696783Y-9831284D02*
X12696783Y-9725217D01*
X12590716Y-9725217D01*
X12590716Y-9831284D01*
X12696783Y-9831284D01*
X12568750Y-11608250D02*
X12718750Y-11758250D01*
X12718750Y-11608250D02*
X12568750Y-11758250D01*
X12696783Y-11736283D02*
X12696783Y-11630216D01*
X12590716Y-11630216D01*
X12590716Y-11736283D01*
X12696783Y-11736283D01*
X12568750Y-13513250D02*
X12718750Y-13663250D01*
X12718750Y-13513250D02*
X12568750Y-13663250D01*
X12696783Y-13641283D02*
X12696783Y-13535216D01*
X12590716Y-13535216D01*
X12590716Y-13641283D01*
X12696783Y-13641283D01*
X12582250Y-3430750D02*
X12732250Y-3580750D01*
X12732250Y-3430750D02*
X12582250Y-3580750D01*
X12710283Y-3558783D02*
X12710283Y-3452716D01*
X12604216Y-3452716D01*
X12604216Y-3558783D01*
X12710283Y-3558783D01*
D11*
X12592250Y-3580750D02*
X12722250Y-3580750D01*
X12722250Y-3430750D02*
G75*
G02*
X12722250Y-3580750I0J-75000D01*
G01*
X12722250Y-3430750D02*
X12592250Y-3430750D01*
X12592250Y-3430750D02*
G75*
G03*
X12592250Y-3580750I0J-75000D01*
G01*
D14*
X12582250Y-4550750D02*
X12732250Y-4700750D01*
X12732250Y-4550750D02*
X12582250Y-4700750D01*
X12710283Y-4678784D02*
X12710283Y-4572717D01*
X12604216Y-4572717D01*
X12604216Y-4678784D01*
X12710283Y-4678784D01*
D11*
X12592250Y-4700750D02*
X12722250Y-4700750D01*
X12722250Y-4550750D02*
G75*
G02*
X12722250Y-4700750I0J-75000D01*
G01*
X12722250Y-4550750D02*
X12592250Y-4550750D01*
X12592250Y-4550750D02*
G75*
G03*
X12592250Y-4700750I0J-75000D01*
G01*
D15*
X4222250Y-3080750D02*
X4542250Y-3400750D01*
X4542250Y-3080750D02*
X4222250Y-3400750D01*
X4382250Y-3400750D02*
X4542250Y-3240750D01*
X4382250Y-3080750D01*
X4222250Y-3240750D01*
X4382250Y-3400750D01*
X4222250Y-16730750D02*
X4542250Y-17050750D01*
X4542250Y-16730750D02*
X4222250Y-17050750D01*
X4382250Y-17050750D02*
X4542250Y-16890750D01*
X4382250Y-16730750D01*
X4222250Y-16890750D01*
X4382250Y-17050750D01*
X14522250Y-3080750D02*
X14842250Y-3400750D01*
X14842250Y-3080750D02*
X14522250Y-3400750D01*
X14682250Y-3400750D02*
X14842250Y-3240750D01*
X14682250Y-3080750D01*
X14522250Y-3240750D01*
X14682250Y-3400750D01*
X14522250Y-16730750D02*
X14842250Y-17050750D01*
X14842250Y-16730750D02*
X14522250Y-17050750D01*
X14682250Y-17050750D02*
X14842250Y-16890750D01*
X14682250Y-16730750D01*
X14522250Y-16890750D01*
X14682250Y-17050750D01*
D12*
X4140527Y-17704734D02*
X4140527Y-17504734D01*
X4140527Y-17504734D02*
X4188146Y-17504734D01*
X4188146Y-17504734D02*
X4216717Y-17514258D01*
X4216717Y-17514258D02*
X4235765Y-17533305D01*
X4235765Y-17533305D02*
X4245289Y-17552353D01*
X4245289Y-17552353D02*
X4254813Y-17590448D01*
X4254813Y-17590448D02*
X4254813Y-17619020D01*
X4254813Y-17619020D02*
X4245289Y-17657115D01*
X4245289Y-17657115D02*
X4235765Y-17676162D01*
X4235765Y-17676162D02*
X4216717Y-17695210D01*
X4216717Y-17695210D02*
X4188146Y-17704734D01*
X4188146Y-17704734D02*
X4140527Y-17704734D01*
X4340527Y-17704734D02*
X4340527Y-17571401D01*
X4340527Y-17609496D02*
X4350051Y-17590448D01*
X4350051Y-17590448D02*
X4359574Y-17580924D01*
X4359574Y-17580924D02*
X4378622Y-17571401D01*
X4378622Y-17571401D02*
X4397670Y-17571401D01*
X4464336Y-17704734D02*
X4464336Y-17571401D01*
X4464336Y-17504734D02*
X4454813Y-17514258D01*
X4454813Y-17514258D02*
X4464336Y-17523782D01*
X4464336Y-17523782D02*
X4473860Y-17514258D01*
X4473860Y-17514258D02*
X4464336Y-17504734D01*
X4464336Y-17504734D02*
X4464336Y-17523782D01*
X4588146Y-17704734D02*
X4569098Y-17695210D01*
X4569098Y-17695210D02*
X4559574Y-17676162D01*
X4559574Y-17676162D02*
X4559574Y-17504734D01*
X4692908Y-17704734D02*
X4673860Y-17695210D01*
X4673860Y-17695210D02*
X4664336Y-17676162D01*
X4664336Y-17676162D02*
X4664336Y-17504734D01*
X4921479Y-17704734D02*
X4921479Y-17504734D01*
X4921479Y-17504734D02*
X4988146Y-17647591D01*
X4988146Y-17647591D02*
X5054813Y-17504734D01*
X5054813Y-17504734D02*
X5054813Y-17704734D01*
X5235765Y-17704734D02*
X5235765Y-17599972D01*
X5235765Y-17599972D02*
X5226241Y-17580924D01*
X5226241Y-17580924D02*
X5207194Y-17571401D01*
X5207194Y-17571401D02*
X5169098Y-17571401D01*
X5169098Y-17571401D02*
X5150051Y-17580924D01*
X5235765Y-17695210D02*
X5216717Y-17704734D01*
X5216717Y-17704734D02*
X5169098Y-17704734D01*
X5169098Y-17704734D02*
X5150051Y-17695210D01*
X5150051Y-17695210D02*
X5140527Y-17676162D01*
X5140527Y-17676162D02*
X5140527Y-17657115D01*
X5140527Y-17657115D02*
X5150051Y-17638067D01*
X5150051Y-17638067D02*
X5169098Y-17628543D01*
X5169098Y-17628543D02*
X5216717Y-17628543D01*
X5216717Y-17628543D02*
X5235765Y-17619020D01*
X5331003Y-17571401D02*
X5331003Y-17771401D01*
X5331003Y-17580924D02*
X5350051Y-17571401D01*
X5350051Y-17571401D02*
X5388146Y-17571401D01*
X5388146Y-17571401D02*
X5407194Y-17580924D01*
X5407194Y-17580924D02*
X5416717Y-17590448D01*
X5416717Y-17590448D02*
X5426241Y-17609496D01*
X5426241Y-17609496D02*
X5426241Y-17666639D01*
X5426241Y-17666639D02*
X5416717Y-17685686D01*
X5416717Y-17685686D02*
X5407194Y-17695210D01*
X5407194Y-17695210D02*
X5388146Y-17704734D01*
X5388146Y-17704734D02*
X5350051Y-17704734D01*
X5350051Y-17704734D02*
X5331003Y-17695210D01*
X5511955Y-17685686D02*
X5521479Y-17695210D01*
X5521479Y-17695210D02*
X5511955Y-17704734D01*
X5511955Y-17704734D02*
X5502432Y-17695210D01*
X5502432Y-17695210D02*
X5511955Y-17685686D01*
X5511955Y-17685686D02*
X5511955Y-17704734D01*
X5511955Y-17580924D02*
X5521479Y-17590448D01*
X5521479Y-17590448D02*
X5511955Y-17599972D01*
X5511955Y-17599972D02*
X5502432Y-17590448D01*
X5502432Y-17590448D02*
X5511955Y-17580924D01*
X5511955Y-17580924D02*
X5511955Y-17599972D01*
D11*
X3849750Y-18018250D02*
X3879750Y-18048250D01*
X3879750Y-18018250D02*
X3849750Y-18048250D01*
D12*
X4178622Y-17924734D02*
X4197670Y-17924734D01*
X4197670Y-17924734D02*
X4216717Y-17934258D01*
X4216717Y-17934258D02*
X4226241Y-17943782D01*
X4226241Y-17943782D02*
X4235765Y-17962829D01*
X4235765Y-17962829D02*
X4245289Y-18000924D01*
X4245289Y-18000924D02*
X4245289Y-18048543D01*
X4245289Y-18048543D02*
X4235765Y-18086639D01*
X4235765Y-18086639D02*
X4226241Y-18105686D01*
X4226241Y-18105686D02*
X4216717Y-18115210D01*
X4216717Y-18115210D02*
X4197670Y-18124734D01*
X4197670Y-18124734D02*
X4178622Y-18124734D01*
X4178622Y-18124734D02*
X4159574Y-18115210D01*
X4159574Y-18115210D02*
X4150051Y-18105686D01*
X4150051Y-18105686D02*
X4140527Y-18086639D01*
X4140527Y-18086639D02*
X4131003Y-18048543D01*
X4131003Y-18048543D02*
X4131003Y-18000924D01*
X4131003Y-18000924D02*
X4140527Y-17962829D01*
X4140527Y-17962829D02*
X4150051Y-17943782D01*
X4150051Y-17943782D02*
X4159574Y-17934258D01*
X4159574Y-17934258D02*
X4178622Y-17924734D01*
X4331003Y-18105686D02*
X4340527Y-18115210D01*
X4340527Y-18115210D02*
X4331003Y-18124734D01*
X4331003Y-18124734D02*
X4321479Y-18115210D01*
X4321479Y-18115210D02*
X4331003Y-18105686D01*
X4331003Y-18105686D02*
X4331003Y-18124734D01*
X4407194Y-17924734D02*
X4531003Y-17924734D01*
X4531003Y-17924734D02*
X4464336Y-18000924D01*
X4464336Y-18000924D02*
X4492908Y-18000924D01*
X4492908Y-18000924D02*
X4511955Y-18010448D01*
X4511955Y-18010448D02*
X4521479Y-18019972D01*
X4521479Y-18019972D02*
X4531003Y-18039020D01*
X4531003Y-18039020D02*
X4531003Y-18086639D01*
X4531003Y-18086639D02*
X4521479Y-18105686D01*
X4521479Y-18105686D02*
X4511955Y-18115210D01*
X4511955Y-18115210D02*
X4492908Y-18124734D01*
X4492908Y-18124734D02*
X4435765Y-18124734D01*
X4435765Y-18124734D02*
X4416717Y-18115210D01*
X4416717Y-18115210D02*
X4407194Y-18105686D01*
X4654813Y-17924734D02*
X4673860Y-17924734D01*
X4673860Y-17924734D02*
X4692908Y-17934258D01*
X4692908Y-17934258D02*
X4702432Y-17943782D01*
X4702432Y-17943782D02*
X4711955Y-17962829D01*
X4711955Y-17962829D02*
X4721479Y-18000924D01*
X4721479Y-18000924D02*
X4721479Y-18048543D01*
X4721479Y-18048543D02*
X4711955Y-18086639D01*
X4711955Y-18086639D02*
X4702432Y-18105686D01*
X4702432Y-18105686D02*
X4692908Y-18115210D01*
X4692908Y-18115210D02*
X4673860Y-18124734D01*
X4673860Y-18124734D02*
X4654813Y-18124734D01*
X4654813Y-18124734D02*
X4635765Y-18115210D01*
X4635765Y-18115210D02*
X4626241Y-18105686D01*
X4626241Y-18105686D02*
X4616717Y-18086639D01*
X4616717Y-18086639D02*
X4607194Y-18048543D01*
X4607194Y-18048543D02*
X4607194Y-18000924D01*
X4607194Y-18000924D02*
X4616717Y-17962829D01*
X4616717Y-17962829D02*
X4626241Y-17943782D01*
X4626241Y-17943782D02*
X4635765Y-17934258D01*
X4635765Y-17934258D02*
X4654813Y-17924734D01*
X4845289Y-17924734D02*
X4864336Y-17924734D01*
X4864336Y-17924734D02*
X4883384Y-17934258D01*
X4883384Y-17934258D02*
X4892908Y-17943782D01*
X4892908Y-17943782D02*
X4902432Y-17962829D01*
X4902432Y-17962829D02*
X4911955Y-18000924D01*
X4911955Y-18000924D02*
X4911955Y-18048543D01*
X4911955Y-18048543D02*
X4902432Y-18086639D01*
X4902432Y-18086639D02*
X4892908Y-18105686D01*
X4892908Y-18105686D02*
X4883384Y-18115210D01*
X4883384Y-18115210D02*
X4864336Y-18124734D01*
X4864336Y-18124734D02*
X4845289Y-18124734D01*
X4845289Y-18124734D02*
X4826241Y-18115210D01*
X4826241Y-18115210D02*
X4816717Y-18105686D01*
X4816717Y-18105686D02*
X4807194Y-18086639D01*
X4807194Y-18086639D02*
X4797670Y-18048543D01*
X4797670Y-18048543D02*
X4797670Y-18000924D01*
X4797670Y-18000924D02*
X4807194Y-17962829D01*
X4807194Y-17962829D02*
X4816717Y-17943782D01*
X4816717Y-17943782D02*
X4826241Y-17934258D01*
X4826241Y-17934258D02*
X4845289Y-17924734D01*
X4997670Y-18124734D02*
X4997670Y-17991401D01*
X4997670Y-18010448D02*
X5007194Y-18000924D01*
X5007194Y-18000924D02*
X5026241Y-17991401D01*
X5026241Y-17991401D02*
X5054813Y-17991401D01*
X5054813Y-17991401D02*
X5073860Y-18000924D01*
X5073860Y-18000924D02*
X5083384Y-18019972D01*
X5083384Y-18019972D02*
X5083384Y-18124734D01*
X5083384Y-18019972D02*
X5092908Y-18000924D01*
X5092908Y-18000924D02*
X5111955Y-17991401D01*
X5111955Y-17991401D02*
X5140527Y-17991401D01*
X5140527Y-17991401D02*
X5159575Y-18000924D01*
X5159575Y-18000924D02*
X5169098Y-18019972D01*
X5169098Y-18019972D02*
X5169098Y-18124734D01*
X5264336Y-18124734D02*
X5264336Y-17991401D01*
X5264336Y-18010448D02*
X5273860Y-18000924D01*
X5273860Y-18000924D02*
X5292908Y-17991401D01*
X5292908Y-17991401D02*
X5321479Y-17991401D01*
X5321479Y-17991401D02*
X5340527Y-18000924D01*
X5340527Y-18000924D02*
X5350051Y-18019972D01*
X5350051Y-18019972D02*
X5350051Y-18124734D01*
X5350051Y-18019972D02*
X5359575Y-18000924D01*
X5359575Y-18000924D02*
X5378622Y-17991401D01*
X5378622Y-17991401D02*
X5407194Y-17991401D01*
X5407194Y-17991401D02*
X5426241Y-18000924D01*
X5426241Y-18000924D02*
X5435765Y-18019972D01*
X5435765Y-18019972D02*
X5435765Y-18124734D01*
X5826241Y-17915210D02*
X5654813Y-18172353D01*
X6083384Y-17924734D02*
X6102432Y-17924734D01*
X6102432Y-17924734D02*
X6121479Y-17934258D01*
X6121479Y-17934258D02*
X6131003Y-17943782D01*
X6131003Y-17943782D02*
X6140527Y-17962829D01*
X6140527Y-17962829D02*
X6150051Y-18000924D01*
X6150051Y-18000924D02*
X6150051Y-18048543D01*
X6150051Y-18048543D02*
X6140527Y-18086639D01*
X6140527Y-18086639D02*
X6131003Y-18105686D01*
X6131003Y-18105686D02*
X6121479Y-18115210D01*
X6121479Y-18115210D02*
X6102432Y-18124734D01*
X6102432Y-18124734D02*
X6083384Y-18124734D01*
X6083384Y-18124734D02*
X6064336Y-18115210D01*
X6064336Y-18115210D02*
X6054813Y-18105686D01*
X6054813Y-18105686D02*
X6045289Y-18086639D01*
X6045289Y-18086639D02*
X6035765Y-18048543D01*
X6035765Y-18048543D02*
X6035765Y-18000924D01*
X6035765Y-18000924D02*
X6045289Y-17962829D01*
X6045289Y-17962829D02*
X6054813Y-17943782D01*
X6054813Y-17943782D02*
X6064336Y-17934258D01*
X6064336Y-17934258D02*
X6083384Y-17924734D01*
X6235765Y-18105686D02*
X6245289Y-18115210D01*
X6245289Y-18115210D02*
X6235765Y-18124734D01*
X6235765Y-18124734D02*
X6226241Y-18115210D01*
X6226241Y-18115210D02*
X6235765Y-18105686D01*
X6235765Y-18105686D02*
X6235765Y-18124734D01*
X6369098Y-17924734D02*
X6388146Y-17924734D01*
X6388146Y-17924734D02*
X6407194Y-17934258D01*
X6407194Y-17934258D02*
X6416717Y-17943782D01*
X6416717Y-17943782D02*
X6426241Y-17962829D01*
X6426241Y-17962829D02*
X6435765Y-18000924D01*
X6435765Y-18000924D02*
X6435765Y-18048543D01*
X6435765Y-18048543D02*
X6426241Y-18086639D01*
X6426241Y-18086639D02*
X6416717Y-18105686D01*
X6416717Y-18105686D02*
X6407194Y-18115210D01*
X6407194Y-18115210D02*
X6388146Y-18124734D01*
X6388146Y-18124734D02*
X6369098Y-18124734D01*
X6369098Y-18124734D02*
X6350051Y-18115210D01*
X6350051Y-18115210D02*
X6340527Y-18105686D01*
X6340527Y-18105686D02*
X6331003Y-18086639D01*
X6331003Y-18086639D02*
X6321479Y-18048543D01*
X6321479Y-18048543D02*
X6321479Y-18000924D01*
X6321479Y-18000924D02*
X6331003Y-17962829D01*
X6331003Y-17962829D02*
X6340527Y-17943782D01*
X6340527Y-17943782D02*
X6350051Y-17934258D01*
X6350051Y-17934258D02*
X6369098Y-17924734D01*
X6626241Y-18124734D02*
X6511956Y-18124734D01*
X6569098Y-18124734D02*
X6569098Y-17924734D01*
X6569098Y-17924734D02*
X6550051Y-17953305D01*
X6550051Y-17953305D02*
X6531003Y-17972353D01*
X6531003Y-17972353D02*
X6511956Y-17981877D01*
X6816717Y-18124734D02*
X6702432Y-18124734D01*
X6759575Y-18124734D02*
X6759575Y-17924734D01*
X6759575Y-17924734D02*
X6740527Y-17953305D01*
X6740527Y-17953305D02*
X6721479Y-17972353D01*
X6721479Y-17972353D02*
X6702432Y-17981877D01*
X6931003Y-18010448D02*
X6911956Y-18000924D01*
X6911956Y-18000924D02*
X6902432Y-17991401D01*
X6902432Y-17991401D02*
X6892908Y-17972353D01*
X6892908Y-17972353D02*
X6892908Y-17962829D01*
X6892908Y-17962829D02*
X6902432Y-17943782D01*
X6902432Y-17943782D02*
X6911956Y-17934258D01*
X6911956Y-17934258D02*
X6931003Y-17924734D01*
X6931003Y-17924734D02*
X6969098Y-17924734D01*
X6969098Y-17924734D02*
X6988146Y-17934258D01*
X6988146Y-17934258D02*
X6997670Y-17943782D01*
X6997670Y-17943782D02*
X7007194Y-17962829D01*
X7007194Y-17962829D02*
X7007194Y-17972353D01*
X7007194Y-17972353D02*
X6997670Y-17991401D01*
X6997670Y-17991401D02*
X6988146Y-18000924D01*
X6988146Y-18000924D02*
X6969098Y-18010448D01*
X6969098Y-18010448D02*
X6931003Y-18010448D01*
X6931003Y-18010448D02*
X6911956Y-18019972D01*
X6911956Y-18019972D02*
X6902432Y-18029496D01*
X6902432Y-18029496D02*
X6892908Y-18048543D01*
X6892908Y-18048543D02*
X6892908Y-18086639D01*
X6892908Y-18086639D02*
X6902432Y-18105686D01*
X6902432Y-18105686D02*
X6911956Y-18115210D01*
X6911956Y-18115210D02*
X6931003Y-18124734D01*
X6931003Y-18124734D02*
X6969098Y-18124734D01*
X6969098Y-18124734D02*
X6988146Y-18115210D01*
X6988146Y-18115210D02*
X6997670Y-18105686D01*
X6997670Y-18105686D02*
X7007194Y-18086639D01*
X7007194Y-18086639D02*
X7007194Y-18048543D01*
X7007194Y-18048543D02*
X6997670Y-18029496D01*
X6997670Y-18029496D02*
X6988146Y-18019972D01*
X6988146Y-18019972D02*
X6969098Y-18010448D01*
X7083384Y-17924734D02*
X7083384Y-17962829D01*
X7159575Y-17924734D02*
X7159575Y-17962829D01*
X7454813Y-18200924D02*
X7445289Y-18191401D01*
X7445289Y-18191401D02*
X7426241Y-18162829D01*
X7426241Y-18162829D02*
X7416718Y-18143782D01*
X7416718Y-18143782D02*
X7407194Y-18115210D01*
X7407194Y-18115210D02*
X7397670Y-18067591D01*
X7397670Y-18067591D02*
X7397670Y-18029496D01*
X7397670Y-18029496D02*
X7407194Y-17981877D01*
X7407194Y-17981877D02*
X7416718Y-17953305D01*
X7416718Y-17953305D02*
X7426241Y-17934258D01*
X7426241Y-17934258D02*
X7445289Y-17905686D01*
X7445289Y-17905686D02*
X7454813Y-17896162D01*
X7626241Y-17924734D02*
X7531003Y-17924734D01*
X7531003Y-17924734D02*
X7521479Y-18019972D01*
X7521479Y-18019972D02*
X7531003Y-18010448D01*
X7531003Y-18010448D02*
X7550051Y-18000924D01*
X7550051Y-18000924D02*
X7597670Y-18000924D01*
X7597670Y-18000924D02*
X7616718Y-18010448D01*
X7616718Y-18010448D02*
X7626241Y-18019972D01*
X7626241Y-18019972D02*
X7635765Y-18039020D01*
X7635765Y-18039020D02*
X7635765Y-18086639D01*
X7635765Y-18086639D02*
X7626241Y-18105686D01*
X7626241Y-18105686D02*
X7616718Y-18115210D01*
X7616718Y-18115210D02*
X7597670Y-18124734D01*
X7597670Y-18124734D02*
X7550051Y-18124734D01*
X7550051Y-18124734D02*
X7531003Y-18115210D01*
X7531003Y-18115210D02*
X7521479Y-18105686D01*
X7816718Y-17924734D02*
X7721479Y-17924734D01*
X7721479Y-17924734D02*
X7711956Y-18019972D01*
X7711956Y-18019972D02*
X7721479Y-18010448D01*
X7721479Y-18010448D02*
X7740527Y-18000924D01*
X7740527Y-18000924D02*
X7788146Y-18000924D01*
X7788146Y-18000924D02*
X7807194Y-18010448D01*
X7807194Y-18010448D02*
X7816718Y-18019972D01*
X7816718Y-18019972D02*
X7826241Y-18039020D01*
X7826241Y-18039020D02*
X7826241Y-18086639D01*
X7826241Y-18086639D02*
X7816718Y-18105686D01*
X7816718Y-18105686D02*
X7807194Y-18115210D01*
X7807194Y-18115210D02*
X7788146Y-18124734D01*
X7788146Y-18124734D02*
X7740527Y-18124734D01*
X7740527Y-18124734D02*
X7721479Y-18115210D01*
X7721479Y-18115210D02*
X7711956Y-18105686D01*
X8064337Y-18124734D02*
X8064337Y-17924734D01*
X8150051Y-18124734D02*
X8150051Y-18019972D01*
X8150051Y-18019972D02*
X8140527Y-18000924D01*
X8140527Y-18000924D02*
X8121480Y-17991401D01*
X8121480Y-17991401D02*
X8092908Y-17991401D01*
X8092908Y-17991401D02*
X8073860Y-18000924D01*
X8073860Y-18000924D02*
X8064337Y-18010448D01*
X8273860Y-18124734D02*
X8254813Y-18115210D01*
X8254813Y-18115210D02*
X8245289Y-18105686D01*
X8245289Y-18105686D02*
X8235765Y-18086639D01*
X8235765Y-18086639D02*
X8235765Y-18029496D01*
X8235765Y-18029496D02*
X8245289Y-18010448D01*
X8245289Y-18010448D02*
X8254813Y-18000924D01*
X8254813Y-18000924D02*
X8273860Y-17991401D01*
X8273860Y-17991401D02*
X8302432Y-17991401D01*
X8302432Y-17991401D02*
X8321480Y-18000924D01*
X8321480Y-18000924D02*
X8331003Y-18010448D01*
X8331003Y-18010448D02*
X8340527Y-18029496D01*
X8340527Y-18029496D02*
X8340527Y-18086639D01*
X8340527Y-18086639D02*
X8331003Y-18105686D01*
X8331003Y-18105686D02*
X8321480Y-18115210D01*
X8321480Y-18115210D02*
X8302432Y-18124734D01*
X8302432Y-18124734D02*
X8273860Y-18124734D01*
X8454813Y-18124734D02*
X8435765Y-18115210D01*
X8435765Y-18115210D02*
X8426242Y-18096162D01*
X8426242Y-18096162D02*
X8426242Y-17924734D01*
X8607194Y-18115210D02*
X8588146Y-18124734D01*
X8588146Y-18124734D02*
X8550051Y-18124734D01*
X8550051Y-18124734D02*
X8531003Y-18115210D01*
X8531003Y-18115210D02*
X8521480Y-18096162D01*
X8521480Y-18096162D02*
X8521480Y-18019972D01*
X8521480Y-18019972D02*
X8531003Y-18000924D01*
X8531003Y-18000924D02*
X8550051Y-17991401D01*
X8550051Y-17991401D02*
X8588146Y-17991401D01*
X8588146Y-17991401D02*
X8607194Y-18000924D01*
X8607194Y-18000924D02*
X8616718Y-18019972D01*
X8616718Y-18019972D02*
X8616718Y-18039020D01*
X8616718Y-18039020D02*
X8521480Y-18058067D01*
X8692908Y-18115210D02*
X8711956Y-18124734D01*
X8711956Y-18124734D02*
X8750051Y-18124734D01*
X8750051Y-18124734D02*
X8769099Y-18115210D01*
X8769099Y-18115210D02*
X8778623Y-18096162D01*
X8778623Y-18096162D02*
X8778623Y-18086639D01*
X8778623Y-18086639D02*
X8769099Y-18067591D01*
X8769099Y-18067591D02*
X8750051Y-18058067D01*
X8750051Y-18058067D02*
X8721480Y-18058067D01*
X8721480Y-18058067D02*
X8702432Y-18048543D01*
X8702432Y-18048543D02*
X8692908Y-18029496D01*
X8692908Y-18029496D02*
X8692908Y-18019972D01*
X8692908Y-18019972D02*
X8702432Y-18000924D01*
X8702432Y-18000924D02*
X8721480Y-17991401D01*
X8721480Y-17991401D02*
X8750051Y-17991401D01*
X8750051Y-17991401D02*
X8769099Y-18000924D01*
X8845289Y-18200924D02*
X8854813Y-18191401D01*
X8854813Y-18191401D02*
X8873861Y-18162829D01*
X8873861Y-18162829D02*
X8883384Y-18143782D01*
X8883384Y-18143782D02*
X8892908Y-18115210D01*
X8892908Y-18115210D02*
X8902432Y-18067591D01*
X8902432Y-18067591D02*
X8902432Y-18029496D01*
X8902432Y-18029496D02*
X8892908Y-17981877D01*
X8892908Y-17981877D02*
X8883384Y-17953305D01*
X8883384Y-17953305D02*
X8873861Y-17934258D01*
X8873861Y-17934258D02*
X8854813Y-17905686D01*
X8854813Y-17905686D02*
X8845289Y-17896162D01*
D11*
X3879750Y-18297250D02*
G75*
G02*
X3809750Y-18297250I-35000J0D01*
G01*
X3809750Y-18297250D02*
G75*
G02*
X3879750Y-18297250I35000J0D01*
G01*
D12*
X4178622Y-18188734D02*
X4197670Y-18188734D01*
X4197670Y-18188734D02*
X4216717Y-18198258D01*
X4216717Y-18198258D02*
X4226241Y-18207782D01*
X4226241Y-18207782D02*
X4235765Y-18226829D01*
X4235765Y-18226829D02*
X4245289Y-18264924D01*
X4245289Y-18264924D02*
X4245289Y-18312543D01*
X4245289Y-18312543D02*
X4235765Y-18350639D01*
X4235765Y-18350639D02*
X4226241Y-18369686D01*
X4226241Y-18369686D02*
X4216717Y-18379210D01*
X4216717Y-18379210D02*
X4197670Y-18388734D01*
X4197670Y-18388734D02*
X4178622Y-18388734D01*
X4178622Y-18388734D02*
X4159574Y-18379210D01*
X4159574Y-18379210D02*
X4150051Y-18369686D01*
X4150051Y-18369686D02*
X4140527Y-18350639D01*
X4140527Y-18350639D02*
X4131003Y-18312543D01*
X4131003Y-18312543D02*
X4131003Y-18264924D01*
X4131003Y-18264924D02*
X4140527Y-18226829D01*
X4140527Y-18226829D02*
X4150051Y-18207782D01*
X4150051Y-18207782D02*
X4159574Y-18198258D01*
X4159574Y-18198258D02*
X4178622Y-18188734D01*
X4331003Y-18369686D02*
X4340527Y-18379210D01*
X4340527Y-18379210D02*
X4331003Y-18388734D01*
X4331003Y-18388734D02*
X4321479Y-18379210D01*
X4321479Y-18379210D02*
X4331003Y-18369686D01*
X4331003Y-18369686D02*
X4331003Y-18388734D01*
X4407194Y-18188734D02*
X4540527Y-18188734D01*
X4540527Y-18188734D02*
X4454813Y-18388734D01*
X4654813Y-18188734D02*
X4673860Y-18188734D01*
X4673860Y-18188734D02*
X4692908Y-18198258D01*
X4692908Y-18198258D02*
X4702432Y-18207782D01*
X4702432Y-18207782D02*
X4711955Y-18226829D01*
X4711955Y-18226829D02*
X4721479Y-18264924D01*
X4721479Y-18264924D02*
X4721479Y-18312543D01*
X4721479Y-18312543D02*
X4711955Y-18350639D01*
X4711955Y-18350639D02*
X4702432Y-18369686D01*
X4702432Y-18369686D02*
X4692908Y-18379210D01*
X4692908Y-18379210D02*
X4673860Y-18388734D01*
X4673860Y-18388734D02*
X4654813Y-18388734D01*
X4654813Y-18388734D02*
X4635765Y-18379210D01*
X4635765Y-18379210D02*
X4626241Y-18369686D01*
X4626241Y-18369686D02*
X4616717Y-18350639D01*
X4616717Y-18350639D02*
X4607194Y-18312543D01*
X4607194Y-18312543D02*
X4607194Y-18264924D01*
X4607194Y-18264924D02*
X4616717Y-18226829D01*
X4616717Y-18226829D02*
X4626241Y-18207782D01*
X4626241Y-18207782D02*
X4635765Y-18198258D01*
X4635765Y-18198258D02*
X4654813Y-18188734D01*
X4845289Y-18188734D02*
X4864336Y-18188734D01*
X4864336Y-18188734D02*
X4883384Y-18198258D01*
X4883384Y-18198258D02*
X4892908Y-18207782D01*
X4892908Y-18207782D02*
X4902432Y-18226829D01*
X4902432Y-18226829D02*
X4911955Y-18264924D01*
X4911955Y-18264924D02*
X4911955Y-18312543D01*
X4911955Y-18312543D02*
X4902432Y-18350639D01*
X4902432Y-18350639D02*
X4892908Y-18369686D01*
X4892908Y-18369686D02*
X4883384Y-18379210D01*
X4883384Y-18379210D02*
X4864336Y-18388734D01*
X4864336Y-18388734D02*
X4845289Y-18388734D01*
X4845289Y-18388734D02*
X4826241Y-18379210D01*
X4826241Y-18379210D02*
X4816717Y-18369686D01*
X4816717Y-18369686D02*
X4807194Y-18350639D01*
X4807194Y-18350639D02*
X4797670Y-18312543D01*
X4797670Y-18312543D02*
X4797670Y-18264924D01*
X4797670Y-18264924D02*
X4807194Y-18226829D01*
X4807194Y-18226829D02*
X4816717Y-18207782D01*
X4816717Y-18207782D02*
X4826241Y-18198258D01*
X4826241Y-18198258D02*
X4845289Y-18188734D01*
X4997670Y-18388734D02*
X4997670Y-18255401D01*
X4997670Y-18274448D02*
X5007194Y-18264924D01*
X5007194Y-18264924D02*
X5026241Y-18255401D01*
X5026241Y-18255401D02*
X5054813Y-18255401D01*
X5054813Y-18255401D02*
X5073860Y-18264924D01*
X5073860Y-18264924D02*
X5083384Y-18283972D01*
X5083384Y-18283972D02*
X5083384Y-18388734D01*
X5083384Y-18283972D02*
X5092908Y-18264924D01*
X5092908Y-18264924D02*
X5111955Y-18255401D01*
X5111955Y-18255401D02*
X5140527Y-18255401D01*
X5140527Y-18255401D02*
X5159575Y-18264924D01*
X5159575Y-18264924D02*
X5169098Y-18283972D01*
X5169098Y-18283972D02*
X5169098Y-18388734D01*
X5264336Y-18388734D02*
X5264336Y-18255401D01*
X5264336Y-18274448D02*
X5273860Y-18264924D01*
X5273860Y-18264924D02*
X5292908Y-18255401D01*
X5292908Y-18255401D02*
X5321479Y-18255401D01*
X5321479Y-18255401D02*
X5340527Y-18264924D01*
X5340527Y-18264924D02*
X5350051Y-18283972D01*
X5350051Y-18283972D02*
X5350051Y-18388734D01*
X5350051Y-18283972D02*
X5359575Y-18264924D01*
X5359575Y-18264924D02*
X5378622Y-18255401D01*
X5378622Y-18255401D02*
X5407194Y-18255401D01*
X5407194Y-18255401D02*
X5426241Y-18264924D01*
X5426241Y-18264924D02*
X5435765Y-18283972D01*
X5435765Y-18283972D02*
X5435765Y-18388734D01*
X5826241Y-18179210D02*
X5654813Y-18436353D01*
X6083384Y-18188734D02*
X6102432Y-18188734D01*
X6102432Y-18188734D02*
X6121479Y-18198258D01*
X6121479Y-18198258D02*
X6131003Y-18207782D01*
X6131003Y-18207782D02*
X6140527Y-18226829D01*
X6140527Y-18226829D02*
X6150051Y-18264924D01*
X6150051Y-18264924D02*
X6150051Y-18312543D01*
X6150051Y-18312543D02*
X6140527Y-18350639D01*
X6140527Y-18350639D02*
X6131003Y-18369686D01*
X6131003Y-18369686D02*
X6121479Y-18379210D01*
X6121479Y-18379210D02*
X6102432Y-18388734D01*
X6102432Y-18388734D02*
X6083384Y-18388734D01*
X6083384Y-18388734D02*
X6064336Y-18379210D01*
X6064336Y-18379210D02*
X6054813Y-18369686D01*
X6054813Y-18369686D02*
X6045289Y-18350639D01*
X6045289Y-18350639D02*
X6035765Y-18312543D01*
X6035765Y-18312543D02*
X6035765Y-18264924D01*
X6035765Y-18264924D02*
X6045289Y-18226829D01*
X6045289Y-18226829D02*
X6054813Y-18207782D01*
X6054813Y-18207782D02*
X6064336Y-18198258D01*
X6064336Y-18198258D02*
X6083384Y-18188734D01*
X6235765Y-18369686D02*
X6245289Y-18379210D01*
X6245289Y-18379210D02*
X6235765Y-18388734D01*
X6235765Y-18388734D02*
X6226241Y-18379210D01*
X6226241Y-18379210D02*
X6235765Y-18369686D01*
X6235765Y-18369686D02*
X6235765Y-18388734D01*
X6369098Y-18188734D02*
X6388146Y-18188734D01*
X6388146Y-18188734D02*
X6407194Y-18198258D01*
X6407194Y-18198258D02*
X6416717Y-18207782D01*
X6416717Y-18207782D02*
X6426241Y-18226829D01*
X6426241Y-18226829D02*
X6435765Y-18264924D01*
X6435765Y-18264924D02*
X6435765Y-18312543D01*
X6435765Y-18312543D02*
X6426241Y-18350639D01*
X6426241Y-18350639D02*
X6416717Y-18369686D01*
X6416717Y-18369686D02*
X6407194Y-18379210D01*
X6407194Y-18379210D02*
X6388146Y-18388734D01*
X6388146Y-18388734D02*
X6369098Y-18388734D01*
X6369098Y-18388734D02*
X6350051Y-18379210D01*
X6350051Y-18379210D02*
X6340527Y-18369686D01*
X6340527Y-18369686D02*
X6331003Y-18350639D01*
X6331003Y-18350639D02*
X6321479Y-18312543D01*
X6321479Y-18312543D02*
X6321479Y-18264924D01*
X6321479Y-18264924D02*
X6331003Y-18226829D01*
X6331003Y-18226829D02*
X6340527Y-18207782D01*
X6340527Y-18207782D02*
X6350051Y-18198258D01*
X6350051Y-18198258D02*
X6369098Y-18188734D01*
X6511956Y-18207782D02*
X6521479Y-18198258D01*
X6521479Y-18198258D02*
X6540527Y-18188734D01*
X6540527Y-18188734D02*
X6588146Y-18188734D01*
X6588146Y-18188734D02*
X6607194Y-18198258D01*
X6607194Y-18198258D02*
X6616717Y-18207782D01*
X6616717Y-18207782D02*
X6626241Y-18226829D01*
X6626241Y-18226829D02*
X6626241Y-18245877D01*
X6626241Y-18245877D02*
X6616717Y-18274448D01*
X6616717Y-18274448D02*
X6502432Y-18388734D01*
X6502432Y-18388734D02*
X6626241Y-18388734D01*
X6692908Y-18188734D02*
X6826241Y-18188734D01*
X6826241Y-18188734D02*
X6740527Y-18388734D01*
X6988146Y-18188734D02*
X6950051Y-18188734D01*
X6950051Y-18188734D02*
X6931003Y-18198258D01*
X6931003Y-18198258D02*
X6921479Y-18207782D01*
X6921479Y-18207782D02*
X6902432Y-18236353D01*
X6902432Y-18236353D02*
X6892908Y-18274448D01*
X6892908Y-18274448D02*
X6892908Y-18350639D01*
X6892908Y-18350639D02*
X6902432Y-18369686D01*
X6902432Y-18369686D02*
X6911956Y-18379210D01*
X6911956Y-18379210D02*
X6931003Y-18388734D01*
X6931003Y-18388734D02*
X6969098Y-18388734D01*
X6969098Y-18388734D02*
X6988146Y-18379210D01*
X6988146Y-18379210D02*
X6997670Y-18369686D01*
X6997670Y-18369686D02*
X7007194Y-18350639D01*
X7007194Y-18350639D02*
X7007194Y-18303020D01*
X7007194Y-18303020D02*
X6997670Y-18283972D01*
X6997670Y-18283972D02*
X6988146Y-18274448D01*
X6988146Y-18274448D02*
X6969098Y-18264924D01*
X6969098Y-18264924D02*
X6931003Y-18264924D01*
X6931003Y-18264924D02*
X6911956Y-18274448D01*
X6911956Y-18274448D02*
X6902432Y-18283972D01*
X6902432Y-18283972D02*
X6892908Y-18303020D01*
X7083384Y-18188734D02*
X7083384Y-18226829D01*
X7159575Y-18188734D02*
X7159575Y-18226829D01*
X7454813Y-18464924D02*
X7445289Y-18455401D01*
X7445289Y-18455401D02*
X7426241Y-18426829D01*
X7426241Y-18426829D02*
X7416718Y-18407782D01*
X7416718Y-18407782D02*
X7407194Y-18379210D01*
X7407194Y-18379210D02*
X7397670Y-18331591D01*
X7397670Y-18331591D02*
X7397670Y-18293496D01*
X7397670Y-18293496D02*
X7407194Y-18245877D01*
X7407194Y-18245877D02*
X7416718Y-18217305D01*
X7416718Y-18217305D02*
X7426241Y-18198258D01*
X7426241Y-18198258D02*
X7445289Y-18169686D01*
X7445289Y-18169686D02*
X7454813Y-18160162D01*
X7616718Y-18188734D02*
X7578622Y-18188734D01*
X7578622Y-18188734D02*
X7559575Y-18198258D01*
X7559575Y-18198258D02*
X7550051Y-18207782D01*
X7550051Y-18207782D02*
X7531003Y-18236353D01*
X7531003Y-18236353D02*
X7521479Y-18274448D01*
X7521479Y-18274448D02*
X7521479Y-18350639D01*
X7521479Y-18350639D02*
X7531003Y-18369686D01*
X7531003Y-18369686D02*
X7540527Y-18379210D01*
X7540527Y-18379210D02*
X7559575Y-18388734D01*
X7559575Y-18388734D02*
X7597670Y-18388734D01*
X7597670Y-18388734D02*
X7616718Y-18379210D01*
X7616718Y-18379210D02*
X7626241Y-18369686D01*
X7626241Y-18369686D02*
X7635765Y-18350639D01*
X7635765Y-18350639D02*
X7635765Y-18303020D01*
X7635765Y-18303020D02*
X7626241Y-18283972D01*
X7626241Y-18283972D02*
X7616718Y-18274448D01*
X7616718Y-18274448D02*
X7597670Y-18264924D01*
X7597670Y-18264924D02*
X7559575Y-18264924D01*
X7559575Y-18264924D02*
X7540527Y-18274448D01*
X7540527Y-18274448D02*
X7531003Y-18283972D01*
X7531003Y-18283972D02*
X7521479Y-18303020D01*
X7873860Y-18388734D02*
X7873860Y-18188734D01*
X7959575Y-18388734D02*
X7959575Y-18283972D01*
X7959575Y-18283972D02*
X7950051Y-18264924D01*
X7950051Y-18264924D02*
X7931003Y-18255401D01*
X7931003Y-18255401D02*
X7902432Y-18255401D01*
X7902432Y-18255401D02*
X7883384Y-18264924D01*
X7883384Y-18264924D02*
X7873860Y-18274448D01*
X8083384Y-18388734D02*
X8064337Y-18379210D01*
X8064337Y-18379210D02*
X8054813Y-18369686D01*
X8054813Y-18369686D02*
X8045289Y-18350639D01*
X8045289Y-18350639D02*
X8045289Y-18293496D01*
X8045289Y-18293496D02*
X8054813Y-18274448D01*
X8054813Y-18274448D02*
X8064337Y-18264924D01*
X8064337Y-18264924D02*
X8083384Y-18255401D01*
X8083384Y-18255401D02*
X8111956Y-18255401D01*
X8111956Y-18255401D02*
X8131003Y-18264924D01*
X8131003Y-18264924D02*
X8140527Y-18274448D01*
X8140527Y-18274448D02*
X8150051Y-18293496D01*
X8150051Y-18293496D02*
X8150051Y-18350639D01*
X8150051Y-18350639D02*
X8140527Y-18369686D01*
X8140527Y-18369686D02*
X8131003Y-18379210D01*
X8131003Y-18379210D02*
X8111956Y-18388734D01*
X8111956Y-18388734D02*
X8083384Y-18388734D01*
X8264337Y-18388734D02*
X8245289Y-18379210D01*
X8245289Y-18379210D02*
X8235765Y-18360162D01*
X8235765Y-18360162D02*
X8235765Y-18188734D01*
X8416718Y-18379210D02*
X8397670Y-18388734D01*
X8397670Y-18388734D02*
X8359575Y-18388734D01*
X8359575Y-18388734D02*
X8340527Y-18379210D01*
X8340527Y-18379210D02*
X8331003Y-18360162D01*
X8331003Y-18360162D02*
X8331003Y-18283972D01*
X8331003Y-18283972D02*
X8340527Y-18264924D01*
X8340527Y-18264924D02*
X8359575Y-18255401D01*
X8359575Y-18255401D02*
X8397670Y-18255401D01*
X8397670Y-18255401D02*
X8416718Y-18264924D01*
X8416718Y-18264924D02*
X8426242Y-18283972D01*
X8426242Y-18283972D02*
X8426242Y-18303020D01*
X8426242Y-18303020D02*
X8331003Y-18322067D01*
X8502432Y-18379210D02*
X8521480Y-18388734D01*
X8521480Y-18388734D02*
X8559575Y-18388734D01*
X8559575Y-18388734D02*
X8578623Y-18379210D01*
X8578623Y-18379210D02*
X8588146Y-18360162D01*
X8588146Y-18360162D02*
X8588146Y-18350639D01*
X8588146Y-18350639D02*
X8578623Y-18331591D01*
X8578623Y-18331591D02*
X8559575Y-18322067D01*
X8559575Y-18322067D02*
X8531003Y-18322067D01*
X8531003Y-18322067D02*
X8511956Y-18312543D01*
X8511956Y-18312543D02*
X8502432Y-18293496D01*
X8502432Y-18293496D02*
X8502432Y-18283972D01*
X8502432Y-18283972D02*
X8511956Y-18264924D01*
X8511956Y-18264924D02*
X8531003Y-18255401D01*
X8531003Y-18255401D02*
X8559575Y-18255401D01*
X8559575Y-18255401D02*
X8578623Y-18264924D01*
X8654813Y-18464924D02*
X8664337Y-18455401D01*
X8664337Y-18455401D02*
X8683384Y-18426829D01*
X8683384Y-18426829D02*
X8692908Y-18407782D01*
X8692908Y-18407782D02*
X8702432Y-18379210D01*
X8702432Y-18379210D02*
X8711956Y-18331591D01*
X8711956Y-18331591D02*
X8711956Y-18293496D01*
X8711956Y-18293496D02*
X8702432Y-18245877D01*
X8702432Y-18245877D02*
X8692908Y-18217305D01*
X8692908Y-18217305D02*
X8683384Y-18198258D01*
X8683384Y-18198258D02*
X8664337Y-18169686D01*
X8664337Y-18169686D02*
X8654813Y-18160162D01*
D11*
X3840380Y-18521880D02*
X3840380Y-18600620D01*
X3801010Y-18561250D02*
X3879750Y-18561250D01*
D12*
X4178622Y-18452734D02*
X4197670Y-18452734D01*
X4197670Y-18452734D02*
X4216717Y-18462258D01*
X4216717Y-18462258D02*
X4226241Y-18471782D01*
X4226241Y-18471782D02*
X4235765Y-18490829D01*
X4235765Y-18490829D02*
X4245289Y-18528924D01*
X4245289Y-18528924D02*
X4245289Y-18576543D01*
X4245289Y-18576543D02*
X4235765Y-18614639D01*
X4235765Y-18614639D02*
X4226241Y-18633686D01*
X4226241Y-18633686D02*
X4216717Y-18643210D01*
X4216717Y-18643210D02*
X4197670Y-18652734D01*
X4197670Y-18652734D02*
X4178622Y-18652734D01*
X4178622Y-18652734D02*
X4159574Y-18643210D01*
X4159574Y-18643210D02*
X4150051Y-18633686D01*
X4150051Y-18633686D02*
X4140527Y-18614639D01*
X4140527Y-18614639D02*
X4131003Y-18576543D01*
X4131003Y-18576543D02*
X4131003Y-18528924D01*
X4131003Y-18528924D02*
X4140527Y-18490829D01*
X4140527Y-18490829D02*
X4150051Y-18471782D01*
X4150051Y-18471782D02*
X4159574Y-18462258D01*
X4159574Y-18462258D02*
X4178622Y-18452734D01*
X4331003Y-18633686D02*
X4340527Y-18643210D01*
X4340527Y-18643210D02*
X4331003Y-18652734D01*
X4331003Y-18652734D02*
X4321479Y-18643210D01*
X4321479Y-18643210D02*
X4331003Y-18633686D01*
X4331003Y-18633686D02*
X4331003Y-18652734D01*
X4407194Y-18452734D02*
X4540527Y-18452734D01*
X4540527Y-18452734D02*
X4454813Y-18652734D01*
X4645289Y-18538448D02*
X4626241Y-18528924D01*
X4626241Y-18528924D02*
X4616717Y-18519401D01*
X4616717Y-18519401D02*
X4607194Y-18500353D01*
X4607194Y-18500353D02*
X4607194Y-18490829D01*
X4607194Y-18490829D02*
X4616717Y-18471782D01*
X4616717Y-18471782D02*
X4626241Y-18462258D01*
X4626241Y-18462258D02*
X4645289Y-18452734D01*
X4645289Y-18452734D02*
X4683384Y-18452734D01*
X4683384Y-18452734D02*
X4702432Y-18462258D01*
X4702432Y-18462258D02*
X4711955Y-18471782D01*
X4711955Y-18471782D02*
X4721479Y-18490829D01*
X4721479Y-18490829D02*
X4721479Y-18500353D01*
X4721479Y-18500353D02*
X4711955Y-18519401D01*
X4711955Y-18519401D02*
X4702432Y-18528924D01*
X4702432Y-18528924D02*
X4683384Y-18538448D01*
X4683384Y-18538448D02*
X4645289Y-18538448D01*
X4645289Y-18538448D02*
X4626241Y-18547972D01*
X4626241Y-18547972D02*
X4616717Y-18557496D01*
X4616717Y-18557496D02*
X4607194Y-18576543D01*
X4607194Y-18576543D02*
X4607194Y-18614639D01*
X4607194Y-18614639D02*
X4616717Y-18633686D01*
X4616717Y-18633686D02*
X4626241Y-18643210D01*
X4626241Y-18643210D02*
X4645289Y-18652734D01*
X4645289Y-18652734D02*
X4683384Y-18652734D01*
X4683384Y-18652734D02*
X4702432Y-18643210D01*
X4702432Y-18643210D02*
X4711955Y-18633686D01*
X4711955Y-18633686D02*
X4721479Y-18614639D01*
X4721479Y-18614639D02*
X4721479Y-18576543D01*
X4721479Y-18576543D02*
X4711955Y-18557496D01*
X4711955Y-18557496D02*
X4702432Y-18547972D01*
X4702432Y-18547972D02*
X4683384Y-18538448D01*
X4788146Y-18452734D02*
X4921479Y-18452734D01*
X4921479Y-18452734D02*
X4835765Y-18652734D01*
X4997670Y-18652734D02*
X4997670Y-18519401D01*
X4997670Y-18538448D02*
X5007194Y-18528924D01*
X5007194Y-18528924D02*
X5026241Y-18519401D01*
X5026241Y-18519401D02*
X5054813Y-18519401D01*
X5054813Y-18519401D02*
X5073860Y-18528924D01*
X5073860Y-18528924D02*
X5083384Y-18547972D01*
X5083384Y-18547972D02*
X5083384Y-18652734D01*
X5083384Y-18547972D02*
X5092908Y-18528924D01*
X5092908Y-18528924D02*
X5111955Y-18519401D01*
X5111955Y-18519401D02*
X5140527Y-18519401D01*
X5140527Y-18519401D02*
X5159575Y-18528924D01*
X5159575Y-18528924D02*
X5169098Y-18547972D01*
X5169098Y-18547972D02*
X5169098Y-18652734D01*
X5264336Y-18652734D02*
X5264336Y-18519401D01*
X5264336Y-18538448D02*
X5273860Y-18528924D01*
X5273860Y-18528924D02*
X5292908Y-18519401D01*
X5292908Y-18519401D02*
X5321479Y-18519401D01*
X5321479Y-18519401D02*
X5340527Y-18528924D01*
X5340527Y-18528924D02*
X5350051Y-18547972D01*
X5350051Y-18547972D02*
X5350051Y-18652734D01*
X5350051Y-18547972D02*
X5359575Y-18528924D01*
X5359575Y-18528924D02*
X5378622Y-18519401D01*
X5378622Y-18519401D02*
X5407194Y-18519401D01*
X5407194Y-18519401D02*
X5426241Y-18528924D01*
X5426241Y-18528924D02*
X5435765Y-18547972D01*
X5435765Y-18547972D02*
X5435765Y-18652734D01*
X5826241Y-18443210D02*
X5654813Y-18700353D01*
X6083384Y-18452734D02*
X6102432Y-18452734D01*
X6102432Y-18452734D02*
X6121479Y-18462258D01*
X6121479Y-18462258D02*
X6131003Y-18471782D01*
X6131003Y-18471782D02*
X6140527Y-18490829D01*
X6140527Y-18490829D02*
X6150051Y-18528924D01*
X6150051Y-18528924D02*
X6150051Y-18576543D01*
X6150051Y-18576543D02*
X6140527Y-18614639D01*
X6140527Y-18614639D02*
X6131003Y-18633686D01*
X6131003Y-18633686D02*
X6121479Y-18643210D01*
X6121479Y-18643210D02*
X6102432Y-18652734D01*
X6102432Y-18652734D02*
X6083384Y-18652734D01*
X6083384Y-18652734D02*
X6064336Y-18643210D01*
X6064336Y-18643210D02*
X6054813Y-18633686D01*
X6054813Y-18633686D02*
X6045289Y-18614639D01*
X6045289Y-18614639D02*
X6035765Y-18576543D01*
X6035765Y-18576543D02*
X6035765Y-18528924D01*
X6035765Y-18528924D02*
X6045289Y-18490829D01*
X6045289Y-18490829D02*
X6054813Y-18471782D01*
X6054813Y-18471782D02*
X6064336Y-18462258D01*
X6064336Y-18462258D02*
X6083384Y-18452734D01*
X6235765Y-18633686D02*
X6245289Y-18643210D01*
X6245289Y-18643210D02*
X6235765Y-18652734D01*
X6235765Y-18652734D02*
X6226241Y-18643210D01*
X6226241Y-18643210D02*
X6235765Y-18633686D01*
X6235765Y-18633686D02*
X6235765Y-18652734D01*
X6369098Y-18452734D02*
X6388146Y-18452734D01*
X6388146Y-18452734D02*
X6407194Y-18462258D01*
X6407194Y-18462258D02*
X6416717Y-18471782D01*
X6416717Y-18471782D02*
X6426241Y-18490829D01*
X6426241Y-18490829D02*
X6435765Y-18528924D01*
X6435765Y-18528924D02*
X6435765Y-18576543D01*
X6435765Y-18576543D02*
X6426241Y-18614639D01*
X6426241Y-18614639D02*
X6416717Y-18633686D01*
X6416717Y-18633686D02*
X6407194Y-18643210D01*
X6407194Y-18643210D02*
X6388146Y-18652734D01*
X6388146Y-18652734D02*
X6369098Y-18652734D01*
X6369098Y-18652734D02*
X6350051Y-18643210D01*
X6350051Y-18643210D02*
X6340527Y-18633686D01*
X6340527Y-18633686D02*
X6331003Y-18614639D01*
X6331003Y-18614639D02*
X6321479Y-18576543D01*
X6321479Y-18576543D02*
X6321479Y-18528924D01*
X6321479Y-18528924D02*
X6331003Y-18490829D01*
X6331003Y-18490829D02*
X6340527Y-18471782D01*
X6340527Y-18471782D02*
X6350051Y-18462258D01*
X6350051Y-18462258D02*
X6369098Y-18452734D01*
X6502432Y-18452734D02*
X6626241Y-18452734D01*
X6626241Y-18452734D02*
X6559575Y-18528924D01*
X6559575Y-18528924D02*
X6588146Y-18528924D01*
X6588146Y-18528924D02*
X6607194Y-18538448D01*
X6607194Y-18538448D02*
X6616717Y-18547972D01*
X6616717Y-18547972D02*
X6626241Y-18567020D01*
X6626241Y-18567020D02*
X6626241Y-18614639D01*
X6626241Y-18614639D02*
X6616717Y-18633686D01*
X6616717Y-18633686D02*
X6607194Y-18643210D01*
X6607194Y-18643210D02*
X6588146Y-18652734D01*
X6588146Y-18652734D02*
X6531003Y-18652734D01*
X6531003Y-18652734D02*
X6511956Y-18643210D01*
X6511956Y-18643210D02*
X6502432Y-18633686D01*
X6816717Y-18652734D02*
X6702432Y-18652734D01*
X6759575Y-18652734D02*
X6759575Y-18452734D01*
X6759575Y-18452734D02*
X6740527Y-18481305D01*
X6740527Y-18481305D02*
X6721479Y-18500353D01*
X6721479Y-18500353D02*
X6702432Y-18509877D01*
X6940527Y-18452734D02*
X6959575Y-18452734D01*
X6959575Y-18452734D02*
X6978622Y-18462258D01*
X6978622Y-18462258D02*
X6988146Y-18471782D01*
X6988146Y-18471782D02*
X6997670Y-18490829D01*
X6997670Y-18490829D02*
X7007194Y-18528924D01*
X7007194Y-18528924D02*
X7007194Y-18576543D01*
X7007194Y-18576543D02*
X6997670Y-18614639D01*
X6997670Y-18614639D02*
X6988146Y-18633686D01*
X6988146Y-18633686D02*
X6978622Y-18643210D01*
X6978622Y-18643210D02*
X6959575Y-18652734D01*
X6959575Y-18652734D02*
X6940527Y-18652734D01*
X6940527Y-18652734D02*
X6921479Y-18643210D01*
X6921479Y-18643210D02*
X6911956Y-18633686D01*
X6911956Y-18633686D02*
X6902432Y-18614639D01*
X6902432Y-18614639D02*
X6892908Y-18576543D01*
X6892908Y-18576543D02*
X6892908Y-18528924D01*
X6892908Y-18528924D02*
X6902432Y-18490829D01*
X6902432Y-18490829D02*
X6911956Y-18471782D01*
X6911956Y-18471782D02*
X6921479Y-18462258D01*
X6921479Y-18462258D02*
X6940527Y-18452734D01*
X7083384Y-18452734D02*
X7083384Y-18490829D01*
X7159575Y-18452734D02*
X7159575Y-18490829D01*
X7454813Y-18728924D02*
X7445289Y-18719401D01*
X7445289Y-18719401D02*
X7426241Y-18690829D01*
X7426241Y-18690829D02*
X7416718Y-18671782D01*
X7416718Y-18671782D02*
X7407194Y-18643210D01*
X7407194Y-18643210D02*
X7397670Y-18595591D01*
X7397670Y-18595591D02*
X7397670Y-18557496D01*
X7397670Y-18557496D02*
X7407194Y-18509877D01*
X7407194Y-18509877D02*
X7416718Y-18481305D01*
X7416718Y-18481305D02*
X7426241Y-18462258D01*
X7426241Y-18462258D02*
X7445289Y-18433686D01*
X7445289Y-18433686D02*
X7454813Y-18424162D01*
X7635765Y-18652734D02*
X7521479Y-18652734D01*
X7578622Y-18652734D02*
X7578622Y-18452734D01*
X7578622Y-18452734D02*
X7559575Y-18481305D01*
X7559575Y-18481305D02*
X7540527Y-18500353D01*
X7540527Y-18500353D02*
X7521479Y-18509877D01*
X7807194Y-18452734D02*
X7769098Y-18452734D01*
X7769098Y-18452734D02*
X7750051Y-18462258D01*
X7750051Y-18462258D02*
X7740527Y-18471782D01*
X7740527Y-18471782D02*
X7721479Y-18500353D01*
X7721479Y-18500353D02*
X7711956Y-18538448D01*
X7711956Y-18538448D02*
X7711956Y-18614639D01*
X7711956Y-18614639D02*
X7721479Y-18633686D01*
X7721479Y-18633686D02*
X7731003Y-18643210D01*
X7731003Y-18643210D02*
X7750051Y-18652734D01*
X7750051Y-18652734D02*
X7788146Y-18652734D01*
X7788146Y-18652734D02*
X7807194Y-18643210D01*
X7807194Y-18643210D02*
X7816718Y-18633686D01*
X7816718Y-18633686D02*
X7826241Y-18614639D01*
X7826241Y-18614639D02*
X7826241Y-18567020D01*
X7826241Y-18567020D02*
X7816718Y-18547972D01*
X7816718Y-18547972D02*
X7807194Y-18538448D01*
X7807194Y-18538448D02*
X7788146Y-18528924D01*
X7788146Y-18528924D02*
X7750051Y-18528924D01*
X7750051Y-18528924D02*
X7731003Y-18538448D01*
X7731003Y-18538448D02*
X7721479Y-18547972D01*
X7721479Y-18547972D02*
X7711956Y-18567020D01*
X8064337Y-18652734D02*
X8064337Y-18452734D01*
X8150051Y-18652734D02*
X8150051Y-18547972D01*
X8150051Y-18547972D02*
X8140527Y-18528924D01*
X8140527Y-18528924D02*
X8121480Y-18519401D01*
X8121480Y-18519401D02*
X8092908Y-18519401D01*
X8092908Y-18519401D02*
X8073860Y-18528924D01*
X8073860Y-18528924D02*
X8064337Y-18538448D01*
X8273860Y-18652734D02*
X8254813Y-18643210D01*
X8254813Y-18643210D02*
X8245289Y-18633686D01*
X8245289Y-18633686D02*
X8235765Y-18614639D01*
X8235765Y-18614639D02*
X8235765Y-18557496D01*
X8235765Y-18557496D02*
X8245289Y-18538448D01*
X8245289Y-18538448D02*
X8254813Y-18528924D01*
X8254813Y-18528924D02*
X8273860Y-18519401D01*
X8273860Y-18519401D02*
X8302432Y-18519401D01*
X8302432Y-18519401D02*
X8321480Y-18528924D01*
X8321480Y-18528924D02*
X8331003Y-18538448D01*
X8331003Y-18538448D02*
X8340527Y-18557496D01*
X8340527Y-18557496D02*
X8340527Y-18614639D01*
X8340527Y-18614639D02*
X8331003Y-18633686D01*
X8331003Y-18633686D02*
X8321480Y-18643210D01*
X8321480Y-18643210D02*
X8302432Y-18652734D01*
X8302432Y-18652734D02*
X8273860Y-18652734D01*
X8454813Y-18652734D02*
X8435765Y-18643210D01*
X8435765Y-18643210D02*
X8426242Y-18624162D01*
X8426242Y-18624162D02*
X8426242Y-18452734D01*
X8607194Y-18643210D02*
X8588146Y-18652734D01*
X8588146Y-18652734D02*
X8550051Y-18652734D01*
X8550051Y-18652734D02*
X8531003Y-18643210D01*
X8531003Y-18643210D02*
X8521480Y-18624162D01*
X8521480Y-18624162D02*
X8521480Y-18547972D01*
X8521480Y-18547972D02*
X8531003Y-18528924D01*
X8531003Y-18528924D02*
X8550051Y-18519401D01*
X8550051Y-18519401D02*
X8588146Y-18519401D01*
X8588146Y-18519401D02*
X8607194Y-18528924D01*
X8607194Y-18528924D02*
X8616718Y-18547972D01*
X8616718Y-18547972D02*
X8616718Y-18567020D01*
X8616718Y-18567020D02*
X8521480Y-18586067D01*
X8692908Y-18643210D02*
X8711956Y-18652734D01*
X8711956Y-18652734D02*
X8750051Y-18652734D01*
X8750051Y-18652734D02*
X8769099Y-18643210D01*
X8769099Y-18643210D02*
X8778623Y-18624162D01*
X8778623Y-18624162D02*
X8778623Y-18614639D01*
X8778623Y-18614639D02*
X8769099Y-18595591D01*
X8769099Y-18595591D02*
X8750051Y-18586067D01*
X8750051Y-18586067D02*
X8721480Y-18586067D01*
X8721480Y-18586067D02*
X8702432Y-18576543D01*
X8702432Y-18576543D02*
X8692908Y-18557496D01*
X8692908Y-18557496D02*
X8692908Y-18547972D01*
X8692908Y-18547972D02*
X8702432Y-18528924D01*
X8702432Y-18528924D02*
X8721480Y-18519401D01*
X8721480Y-18519401D02*
X8750051Y-18519401D01*
X8750051Y-18519401D02*
X8769099Y-18528924D01*
X8845289Y-18728924D02*
X8854813Y-18719401D01*
X8854813Y-18719401D02*
X8873861Y-18690829D01*
X8873861Y-18690829D02*
X8883384Y-18671782D01*
X8883384Y-18671782D02*
X8892908Y-18643210D01*
X8892908Y-18643210D02*
X8902432Y-18595591D01*
X8902432Y-18595591D02*
X8902432Y-18557496D01*
X8902432Y-18557496D02*
X8892908Y-18509877D01*
X8892908Y-18509877D02*
X8883384Y-18481305D01*
X8883384Y-18481305D02*
X8873861Y-18462258D01*
X8873861Y-18462258D02*
X8854813Y-18433686D01*
X8854813Y-18433686D02*
X8845289Y-18424162D01*
D11*
X3868034Y-18853535D02*
X3868034Y-18796966D01*
X3811465Y-18796966D01*
X3811465Y-18853535D01*
X3868034Y-18853535D01*
D12*
X4178622Y-18716734D02*
X4197670Y-18716734D01*
X4197670Y-18716734D02*
X4216717Y-18726258D01*
X4216717Y-18726258D02*
X4226241Y-18735782D01*
X4226241Y-18735782D02*
X4235765Y-18754829D01*
X4235765Y-18754829D02*
X4245289Y-18792924D01*
X4245289Y-18792924D02*
X4245289Y-18840543D01*
X4245289Y-18840543D02*
X4235765Y-18878639D01*
X4235765Y-18878639D02*
X4226241Y-18897686D01*
X4226241Y-18897686D02*
X4216717Y-18907210D01*
X4216717Y-18907210D02*
X4197670Y-18916734D01*
X4197670Y-18916734D02*
X4178622Y-18916734D01*
X4178622Y-18916734D02*
X4159574Y-18907210D01*
X4159574Y-18907210D02*
X4150051Y-18897686D01*
X4150051Y-18897686D02*
X4140527Y-18878639D01*
X4140527Y-18878639D02*
X4131003Y-18840543D01*
X4131003Y-18840543D02*
X4131003Y-18792924D01*
X4131003Y-18792924D02*
X4140527Y-18754829D01*
X4140527Y-18754829D02*
X4150051Y-18735782D01*
X4150051Y-18735782D02*
X4159574Y-18726258D01*
X4159574Y-18726258D02*
X4178622Y-18716734D01*
X4331003Y-18897686D02*
X4340527Y-18907210D01*
X4340527Y-18907210D02*
X4331003Y-18916734D01*
X4331003Y-18916734D02*
X4321479Y-18907210D01*
X4321479Y-18907210D02*
X4331003Y-18897686D01*
X4331003Y-18897686D02*
X4331003Y-18916734D01*
X4454813Y-18802448D02*
X4435765Y-18792924D01*
X4435765Y-18792924D02*
X4426241Y-18783401D01*
X4426241Y-18783401D02*
X4416717Y-18764353D01*
X4416717Y-18764353D02*
X4416717Y-18754829D01*
X4416717Y-18754829D02*
X4426241Y-18735782D01*
X4426241Y-18735782D02*
X4435765Y-18726258D01*
X4435765Y-18726258D02*
X4454813Y-18716734D01*
X4454813Y-18716734D02*
X4492908Y-18716734D01*
X4492908Y-18716734D02*
X4511955Y-18726258D01*
X4511955Y-18726258D02*
X4521479Y-18735782D01*
X4521479Y-18735782D02*
X4531003Y-18754829D01*
X4531003Y-18754829D02*
X4531003Y-18764353D01*
X4531003Y-18764353D02*
X4521479Y-18783401D01*
X4521479Y-18783401D02*
X4511955Y-18792924D01*
X4511955Y-18792924D02*
X4492908Y-18802448D01*
X4492908Y-18802448D02*
X4454813Y-18802448D01*
X4454813Y-18802448D02*
X4435765Y-18811972D01*
X4435765Y-18811972D02*
X4426241Y-18821496D01*
X4426241Y-18821496D02*
X4416717Y-18840543D01*
X4416717Y-18840543D02*
X4416717Y-18878639D01*
X4416717Y-18878639D02*
X4426241Y-18897686D01*
X4426241Y-18897686D02*
X4435765Y-18907210D01*
X4435765Y-18907210D02*
X4454813Y-18916734D01*
X4454813Y-18916734D02*
X4492908Y-18916734D01*
X4492908Y-18916734D02*
X4511955Y-18907210D01*
X4511955Y-18907210D02*
X4521479Y-18897686D01*
X4521479Y-18897686D02*
X4531003Y-18878639D01*
X4531003Y-18878639D02*
X4531003Y-18840543D01*
X4531003Y-18840543D02*
X4521479Y-18821496D01*
X4521479Y-18821496D02*
X4511955Y-18811972D01*
X4511955Y-18811972D02*
X4492908Y-18802448D01*
X4654813Y-18716734D02*
X4673860Y-18716734D01*
X4673860Y-18716734D02*
X4692908Y-18726258D01*
X4692908Y-18726258D02*
X4702432Y-18735782D01*
X4702432Y-18735782D02*
X4711955Y-18754829D01*
X4711955Y-18754829D02*
X4721479Y-18792924D01*
X4721479Y-18792924D02*
X4721479Y-18840543D01*
X4721479Y-18840543D02*
X4711955Y-18878639D01*
X4711955Y-18878639D02*
X4702432Y-18897686D01*
X4702432Y-18897686D02*
X4692908Y-18907210D01*
X4692908Y-18907210D02*
X4673860Y-18916734D01*
X4673860Y-18916734D02*
X4654813Y-18916734D01*
X4654813Y-18916734D02*
X4635765Y-18907210D01*
X4635765Y-18907210D02*
X4626241Y-18897686D01*
X4626241Y-18897686D02*
X4616717Y-18878639D01*
X4616717Y-18878639D02*
X4607194Y-18840543D01*
X4607194Y-18840543D02*
X4607194Y-18792924D01*
X4607194Y-18792924D02*
X4616717Y-18754829D01*
X4616717Y-18754829D02*
X4626241Y-18735782D01*
X4626241Y-18735782D02*
X4635765Y-18726258D01*
X4635765Y-18726258D02*
X4654813Y-18716734D01*
X4845289Y-18716734D02*
X4864336Y-18716734D01*
X4864336Y-18716734D02*
X4883384Y-18726258D01*
X4883384Y-18726258D02*
X4892908Y-18735782D01*
X4892908Y-18735782D02*
X4902432Y-18754829D01*
X4902432Y-18754829D02*
X4911955Y-18792924D01*
X4911955Y-18792924D02*
X4911955Y-18840543D01*
X4911955Y-18840543D02*
X4902432Y-18878639D01*
X4902432Y-18878639D02*
X4892908Y-18897686D01*
X4892908Y-18897686D02*
X4883384Y-18907210D01*
X4883384Y-18907210D02*
X4864336Y-18916734D01*
X4864336Y-18916734D02*
X4845289Y-18916734D01*
X4845289Y-18916734D02*
X4826241Y-18907210D01*
X4826241Y-18907210D02*
X4816717Y-18897686D01*
X4816717Y-18897686D02*
X4807194Y-18878639D01*
X4807194Y-18878639D02*
X4797670Y-18840543D01*
X4797670Y-18840543D02*
X4797670Y-18792924D01*
X4797670Y-18792924D02*
X4807194Y-18754829D01*
X4807194Y-18754829D02*
X4816717Y-18735782D01*
X4816717Y-18735782D02*
X4826241Y-18726258D01*
X4826241Y-18726258D02*
X4845289Y-18716734D01*
X4997670Y-18916734D02*
X4997670Y-18783401D01*
X4997670Y-18802448D02*
X5007194Y-18792924D01*
X5007194Y-18792924D02*
X5026241Y-18783401D01*
X5026241Y-18783401D02*
X5054813Y-18783401D01*
X5054813Y-18783401D02*
X5073860Y-18792924D01*
X5073860Y-18792924D02*
X5083384Y-18811972D01*
X5083384Y-18811972D02*
X5083384Y-18916734D01*
X5083384Y-18811972D02*
X5092908Y-18792924D01*
X5092908Y-18792924D02*
X5111955Y-18783401D01*
X5111955Y-18783401D02*
X5140527Y-18783401D01*
X5140527Y-18783401D02*
X5159575Y-18792924D01*
X5159575Y-18792924D02*
X5169098Y-18811972D01*
X5169098Y-18811972D02*
X5169098Y-18916734D01*
X5264336Y-18916734D02*
X5264336Y-18783401D01*
X5264336Y-18802448D02*
X5273860Y-18792924D01*
X5273860Y-18792924D02*
X5292908Y-18783401D01*
X5292908Y-18783401D02*
X5321479Y-18783401D01*
X5321479Y-18783401D02*
X5340527Y-18792924D01*
X5340527Y-18792924D02*
X5350051Y-18811972D01*
X5350051Y-18811972D02*
X5350051Y-18916734D01*
X5350051Y-18811972D02*
X5359575Y-18792924D01*
X5359575Y-18792924D02*
X5378622Y-18783401D01*
X5378622Y-18783401D02*
X5407194Y-18783401D01*
X5407194Y-18783401D02*
X5426241Y-18792924D01*
X5426241Y-18792924D02*
X5435765Y-18811972D01*
X5435765Y-18811972D02*
X5435765Y-18916734D01*
X5826241Y-18707210D02*
X5654813Y-18964353D01*
X6083384Y-18716734D02*
X6102432Y-18716734D01*
X6102432Y-18716734D02*
X6121479Y-18726258D01*
X6121479Y-18726258D02*
X6131003Y-18735782D01*
X6131003Y-18735782D02*
X6140527Y-18754829D01*
X6140527Y-18754829D02*
X6150051Y-18792924D01*
X6150051Y-18792924D02*
X6150051Y-18840543D01*
X6150051Y-18840543D02*
X6140527Y-18878639D01*
X6140527Y-18878639D02*
X6131003Y-18897686D01*
X6131003Y-18897686D02*
X6121479Y-18907210D01*
X6121479Y-18907210D02*
X6102432Y-18916734D01*
X6102432Y-18916734D02*
X6083384Y-18916734D01*
X6083384Y-18916734D02*
X6064336Y-18907210D01*
X6064336Y-18907210D02*
X6054813Y-18897686D01*
X6054813Y-18897686D02*
X6045289Y-18878639D01*
X6045289Y-18878639D02*
X6035765Y-18840543D01*
X6035765Y-18840543D02*
X6035765Y-18792924D01*
X6035765Y-18792924D02*
X6045289Y-18754829D01*
X6045289Y-18754829D02*
X6054813Y-18735782D01*
X6054813Y-18735782D02*
X6064336Y-18726258D01*
X6064336Y-18726258D02*
X6083384Y-18716734D01*
X6235765Y-18897686D02*
X6245289Y-18907210D01*
X6245289Y-18907210D02*
X6235765Y-18916734D01*
X6235765Y-18916734D02*
X6226241Y-18907210D01*
X6226241Y-18907210D02*
X6235765Y-18897686D01*
X6235765Y-18897686D02*
X6235765Y-18916734D01*
X6369098Y-18716734D02*
X6388146Y-18716734D01*
X6388146Y-18716734D02*
X6407194Y-18726258D01*
X6407194Y-18726258D02*
X6416717Y-18735782D01*
X6416717Y-18735782D02*
X6426241Y-18754829D01*
X6426241Y-18754829D02*
X6435765Y-18792924D01*
X6435765Y-18792924D02*
X6435765Y-18840543D01*
X6435765Y-18840543D02*
X6426241Y-18878639D01*
X6426241Y-18878639D02*
X6416717Y-18897686D01*
X6416717Y-18897686D02*
X6407194Y-18907210D01*
X6407194Y-18907210D02*
X6388146Y-18916734D01*
X6388146Y-18916734D02*
X6369098Y-18916734D01*
X6369098Y-18916734D02*
X6350051Y-18907210D01*
X6350051Y-18907210D02*
X6340527Y-18897686D01*
X6340527Y-18897686D02*
X6331003Y-18878639D01*
X6331003Y-18878639D02*
X6321479Y-18840543D01*
X6321479Y-18840543D02*
X6321479Y-18792924D01*
X6321479Y-18792924D02*
X6331003Y-18754829D01*
X6331003Y-18754829D02*
X6340527Y-18735782D01*
X6340527Y-18735782D02*
X6350051Y-18726258D01*
X6350051Y-18726258D02*
X6369098Y-18716734D01*
X6502432Y-18716734D02*
X6626241Y-18716734D01*
X6626241Y-18716734D02*
X6559575Y-18792924D01*
X6559575Y-18792924D02*
X6588146Y-18792924D01*
X6588146Y-18792924D02*
X6607194Y-18802448D01*
X6607194Y-18802448D02*
X6616717Y-18811972D01*
X6616717Y-18811972D02*
X6626241Y-18831020D01*
X6626241Y-18831020D02*
X6626241Y-18878639D01*
X6626241Y-18878639D02*
X6616717Y-18897686D01*
X6616717Y-18897686D02*
X6607194Y-18907210D01*
X6607194Y-18907210D02*
X6588146Y-18916734D01*
X6588146Y-18916734D02*
X6531003Y-18916734D01*
X6531003Y-18916734D02*
X6511956Y-18907210D01*
X6511956Y-18907210D02*
X6502432Y-18897686D01*
X6816717Y-18916734D02*
X6702432Y-18916734D01*
X6759575Y-18916734D02*
X6759575Y-18716734D01*
X6759575Y-18716734D02*
X6740527Y-18745305D01*
X6740527Y-18745305D02*
X6721479Y-18764353D01*
X6721479Y-18764353D02*
X6702432Y-18773877D01*
X6997670Y-18716734D02*
X6902432Y-18716734D01*
X6902432Y-18716734D02*
X6892908Y-18811972D01*
X6892908Y-18811972D02*
X6902432Y-18802448D01*
X6902432Y-18802448D02*
X6921479Y-18792924D01*
X6921479Y-18792924D02*
X6969098Y-18792924D01*
X6969098Y-18792924D02*
X6988146Y-18802448D01*
X6988146Y-18802448D02*
X6997670Y-18811972D01*
X6997670Y-18811972D02*
X7007194Y-18831020D01*
X7007194Y-18831020D02*
X7007194Y-18878639D01*
X7007194Y-18878639D02*
X6997670Y-18897686D01*
X6997670Y-18897686D02*
X6988146Y-18907210D01*
X6988146Y-18907210D02*
X6969098Y-18916734D01*
X6969098Y-18916734D02*
X6921479Y-18916734D01*
X6921479Y-18916734D02*
X6902432Y-18907210D01*
X6902432Y-18907210D02*
X6892908Y-18897686D01*
X7083384Y-18716734D02*
X7083384Y-18754829D01*
X7159575Y-18716734D02*
X7159575Y-18754829D01*
X7454813Y-18992924D02*
X7445289Y-18983401D01*
X7445289Y-18983401D02*
X7426241Y-18954829D01*
X7426241Y-18954829D02*
X7416718Y-18935782D01*
X7416718Y-18935782D02*
X7407194Y-18907210D01*
X7407194Y-18907210D02*
X7397670Y-18859591D01*
X7397670Y-18859591D02*
X7397670Y-18821496D01*
X7397670Y-18821496D02*
X7407194Y-18773877D01*
X7407194Y-18773877D02*
X7416718Y-18745305D01*
X7416718Y-18745305D02*
X7426241Y-18726258D01*
X7426241Y-18726258D02*
X7445289Y-18697686D01*
X7445289Y-18697686D02*
X7454813Y-18688162D01*
X7511956Y-18716734D02*
X7635765Y-18716734D01*
X7635765Y-18716734D02*
X7569098Y-18792924D01*
X7569098Y-18792924D02*
X7597670Y-18792924D01*
X7597670Y-18792924D02*
X7616718Y-18802448D01*
X7616718Y-18802448D02*
X7626241Y-18811972D01*
X7626241Y-18811972D02*
X7635765Y-18831020D01*
X7635765Y-18831020D02*
X7635765Y-18878639D01*
X7635765Y-18878639D02*
X7626241Y-18897686D01*
X7626241Y-18897686D02*
X7616718Y-18907210D01*
X7616718Y-18907210D02*
X7597670Y-18916734D01*
X7597670Y-18916734D02*
X7540527Y-18916734D01*
X7540527Y-18916734D02*
X7521479Y-18907210D01*
X7521479Y-18907210D02*
X7511956Y-18897686D01*
X7807194Y-18783401D02*
X7807194Y-18916734D01*
X7759575Y-18707210D02*
X7711956Y-18850067D01*
X7711956Y-18850067D02*
X7835765Y-18850067D01*
X8064337Y-18916734D02*
X8064337Y-18716734D01*
X8150051Y-18916734D02*
X8150051Y-18811972D01*
X8150051Y-18811972D02*
X8140527Y-18792924D01*
X8140527Y-18792924D02*
X8121480Y-18783401D01*
X8121480Y-18783401D02*
X8092908Y-18783401D01*
X8092908Y-18783401D02*
X8073860Y-18792924D01*
X8073860Y-18792924D02*
X8064337Y-18802448D01*
X8273860Y-18916734D02*
X8254813Y-18907210D01*
X8254813Y-18907210D02*
X8245289Y-18897686D01*
X8245289Y-18897686D02*
X8235765Y-18878639D01*
X8235765Y-18878639D02*
X8235765Y-18821496D01*
X8235765Y-18821496D02*
X8245289Y-18802448D01*
X8245289Y-18802448D02*
X8254813Y-18792924D01*
X8254813Y-18792924D02*
X8273860Y-18783401D01*
X8273860Y-18783401D02*
X8302432Y-18783401D01*
X8302432Y-18783401D02*
X8321480Y-18792924D01*
X8321480Y-18792924D02*
X8331003Y-18802448D01*
X8331003Y-18802448D02*
X8340527Y-18821496D01*
X8340527Y-18821496D02*
X8340527Y-18878639D01*
X8340527Y-18878639D02*
X8331003Y-18897686D01*
X8331003Y-18897686D02*
X8321480Y-18907210D01*
X8321480Y-18907210D02*
X8302432Y-18916734D01*
X8302432Y-18916734D02*
X8273860Y-18916734D01*
X8454813Y-18916734D02*
X8435765Y-18907210D01*
X8435765Y-18907210D02*
X8426242Y-18888162D01*
X8426242Y-18888162D02*
X8426242Y-18716734D01*
X8607194Y-18907210D02*
X8588146Y-18916734D01*
X8588146Y-18916734D02*
X8550051Y-18916734D01*
X8550051Y-18916734D02*
X8531003Y-18907210D01*
X8531003Y-18907210D02*
X8521480Y-18888162D01*
X8521480Y-18888162D02*
X8521480Y-18811972D01*
X8521480Y-18811972D02*
X8531003Y-18792924D01*
X8531003Y-18792924D02*
X8550051Y-18783401D01*
X8550051Y-18783401D02*
X8588146Y-18783401D01*
X8588146Y-18783401D02*
X8607194Y-18792924D01*
X8607194Y-18792924D02*
X8616718Y-18811972D01*
X8616718Y-18811972D02*
X8616718Y-18831020D01*
X8616718Y-18831020D02*
X8521480Y-18850067D01*
X8692908Y-18907210D02*
X8711956Y-18916734D01*
X8711956Y-18916734D02*
X8750051Y-18916734D01*
X8750051Y-18916734D02*
X8769099Y-18907210D01*
X8769099Y-18907210D02*
X8778623Y-18888162D01*
X8778623Y-18888162D02*
X8778623Y-18878639D01*
X8778623Y-18878639D02*
X8769099Y-18859591D01*
X8769099Y-18859591D02*
X8750051Y-18850067D01*
X8750051Y-18850067D02*
X8721480Y-18850067D01*
X8721480Y-18850067D02*
X8702432Y-18840543D01*
X8702432Y-18840543D02*
X8692908Y-18821496D01*
X8692908Y-18821496D02*
X8692908Y-18811972D01*
X8692908Y-18811972D02*
X8702432Y-18792924D01*
X8702432Y-18792924D02*
X8721480Y-18783401D01*
X8721480Y-18783401D02*
X8750051Y-18783401D01*
X8750051Y-18783401D02*
X8769099Y-18792924D01*
X8845289Y-18992924D02*
X8854813Y-18983401D01*
X8854813Y-18983401D02*
X8873861Y-18954829D01*
X8873861Y-18954829D02*
X8883384Y-18935782D01*
X8883384Y-18935782D02*
X8892908Y-18907210D01*
X8892908Y-18907210D02*
X8902432Y-18859591D01*
X8902432Y-18859591D02*
X8902432Y-18821496D01*
X8902432Y-18821496D02*
X8892908Y-18773877D01*
X8892908Y-18773877D02*
X8883384Y-18745305D01*
X8883384Y-18745305D02*
X8873861Y-18726258D01*
X8873861Y-18726258D02*
X8854813Y-18697686D01*
X8854813Y-18697686D02*
X8845289Y-18688162D01*
D11*
X3834750Y-19134250D02*
X3879750Y-19089250D01*
X3834750Y-19044250D01*
X3789750Y-19089250D01*
X3834750Y-19134250D01*
D12*
X4178622Y-18980734D02*
X4197670Y-18980734D01*
X4197670Y-18980734D02*
X4216717Y-18990258D01*
X4216717Y-18990258D02*
X4226241Y-18999782D01*
X4226241Y-18999782D02*
X4235765Y-19018829D01*
X4235765Y-19018829D02*
X4245289Y-19056924D01*
X4245289Y-19056924D02*
X4245289Y-19104543D01*
X4245289Y-19104543D02*
X4235765Y-19142639D01*
X4235765Y-19142639D02*
X4226241Y-19161686D01*
X4226241Y-19161686D02*
X4216717Y-19171210D01*
X4216717Y-19171210D02*
X4197670Y-19180734D01*
X4197670Y-19180734D02*
X4178622Y-19180734D01*
X4178622Y-19180734D02*
X4159574Y-19171210D01*
X4159574Y-19171210D02*
X4150051Y-19161686D01*
X4150051Y-19161686D02*
X4140527Y-19142639D01*
X4140527Y-19142639D02*
X4131003Y-19104543D01*
X4131003Y-19104543D02*
X4131003Y-19056924D01*
X4131003Y-19056924D02*
X4140527Y-19018829D01*
X4140527Y-19018829D02*
X4150051Y-18999782D01*
X4150051Y-18999782D02*
X4159574Y-18990258D01*
X4159574Y-18990258D02*
X4178622Y-18980734D01*
X4331003Y-19161686D02*
X4340527Y-19171210D01*
X4340527Y-19171210D02*
X4331003Y-19180734D01*
X4331003Y-19180734D02*
X4321479Y-19171210D01*
X4321479Y-19171210D02*
X4331003Y-19161686D01*
X4331003Y-19161686D02*
X4331003Y-19180734D01*
X4435765Y-19180734D02*
X4473860Y-19180734D01*
X4473860Y-19180734D02*
X4492908Y-19171210D01*
X4492908Y-19171210D02*
X4502432Y-19161686D01*
X4502432Y-19161686D02*
X4521479Y-19133115D01*
X4521479Y-19133115D02*
X4531003Y-19095020D01*
X4531003Y-19095020D02*
X4531003Y-19018829D01*
X4531003Y-19018829D02*
X4521479Y-18999782D01*
X4521479Y-18999782D02*
X4511955Y-18990258D01*
X4511955Y-18990258D02*
X4492908Y-18980734D01*
X4492908Y-18980734D02*
X4454813Y-18980734D01*
X4454813Y-18980734D02*
X4435765Y-18990258D01*
X4435765Y-18990258D02*
X4426241Y-18999782D01*
X4426241Y-18999782D02*
X4416717Y-19018829D01*
X4416717Y-19018829D02*
X4416717Y-19066448D01*
X4416717Y-19066448D02*
X4426241Y-19085496D01*
X4426241Y-19085496D02*
X4435765Y-19095020D01*
X4435765Y-19095020D02*
X4454813Y-19104543D01*
X4454813Y-19104543D02*
X4492908Y-19104543D01*
X4492908Y-19104543D02*
X4511955Y-19095020D01*
X4511955Y-19095020D02*
X4521479Y-19085496D01*
X4521479Y-19085496D02*
X4531003Y-19066448D01*
X4654813Y-18980734D02*
X4673860Y-18980734D01*
X4673860Y-18980734D02*
X4692908Y-18990258D01*
X4692908Y-18990258D02*
X4702432Y-18999782D01*
X4702432Y-18999782D02*
X4711955Y-19018829D01*
X4711955Y-19018829D02*
X4721479Y-19056924D01*
X4721479Y-19056924D02*
X4721479Y-19104543D01*
X4721479Y-19104543D02*
X4711955Y-19142639D01*
X4711955Y-19142639D02*
X4702432Y-19161686D01*
X4702432Y-19161686D02*
X4692908Y-19171210D01*
X4692908Y-19171210D02*
X4673860Y-19180734D01*
X4673860Y-19180734D02*
X4654813Y-19180734D01*
X4654813Y-19180734D02*
X4635765Y-19171210D01*
X4635765Y-19171210D02*
X4626241Y-19161686D01*
X4626241Y-19161686D02*
X4616717Y-19142639D01*
X4616717Y-19142639D02*
X4607194Y-19104543D01*
X4607194Y-19104543D02*
X4607194Y-19056924D01*
X4607194Y-19056924D02*
X4616717Y-19018829D01*
X4616717Y-19018829D02*
X4626241Y-18999782D01*
X4626241Y-18999782D02*
X4635765Y-18990258D01*
X4635765Y-18990258D02*
X4654813Y-18980734D01*
X4845289Y-18980734D02*
X4864336Y-18980734D01*
X4864336Y-18980734D02*
X4883384Y-18990258D01*
X4883384Y-18990258D02*
X4892908Y-18999782D01*
X4892908Y-18999782D02*
X4902432Y-19018829D01*
X4902432Y-19018829D02*
X4911955Y-19056924D01*
X4911955Y-19056924D02*
X4911955Y-19104543D01*
X4911955Y-19104543D02*
X4902432Y-19142639D01*
X4902432Y-19142639D02*
X4892908Y-19161686D01*
X4892908Y-19161686D02*
X4883384Y-19171210D01*
X4883384Y-19171210D02*
X4864336Y-19180734D01*
X4864336Y-19180734D02*
X4845289Y-19180734D01*
X4845289Y-19180734D02*
X4826241Y-19171210D01*
X4826241Y-19171210D02*
X4816717Y-19161686D01*
X4816717Y-19161686D02*
X4807194Y-19142639D01*
X4807194Y-19142639D02*
X4797670Y-19104543D01*
X4797670Y-19104543D02*
X4797670Y-19056924D01*
X4797670Y-19056924D02*
X4807194Y-19018829D01*
X4807194Y-19018829D02*
X4816717Y-18999782D01*
X4816717Y-18999782D02*
X4826241Y-18990258D01*
X4826241Y-18990258D02*
X4845289Y-18980734D01*
X4997670Y-19180734D02*
X4997670Y-19047401D01*
X4997670Y-19066448D02*
X5007194Y-19056924D01*
X5007194Y-19056924D02*
X5026241Y-19047401D01*
X5026241Y-19047401D02*
X5054813Y-19047401D01*
X5054813Y-19047401D02*
X5073860Y-19056924D01*
X5073860Y-19056924D02*
X5083384Y-19075972D01*
X5083384Y-19075972D02*
X5083384Y-19180734D01*
X5083384Y-19075972D02*
X5092908Y-19056924D01*
X5092908Y-19056924D02*
X5111955Y-19047401D01*
X5111955Y-19047401D02*
X5140527Y-19047401D01*
X5140527Y-19047401D02*
X5159575Y-19056924D01*
X5159575Y-19056924D02*
X5169098Y-19075972D01*
X5169098Y-19075972D02*
X5169098Y-19180734D01*
X5264336Y-19180734D02*
X5264336Y-19047401D01*
X5264336Y-19066448D02*
X5273860Y-19056924D01*
X5273860Y-19056924D02*
X5292908Y-19047401D01*
X5292908Y-19047401D02*
X5321479Y-19047401D01*
X5321479Y-19047401D02*
X5340527Y-19056924D01*
X5340527Y-19056924D02*
X5350051Y-19075972D01*
X5350051Y-19075972D02*
X5350051Y-19180734D01*
X5350051Y-19075972D02*
X5359575Y-19056924D01*
X5359575Y-19056924D02*
X5378622Y-19047401D01*
X5378622Y-19047401D02*
X5407194Y-19047401D01*
X5407194Y-19047401D02*
X5426241Y-19056924D01*
X5426241Y-19056924D02*
X5435765Y-19075972D01*
X5435765Y-19075972D02*
X5435765Y-19180734D01*
X5826241Y-18971210D02*
X5654813Y-19228353D01*
X6083384Y-18980734D02*
X6102432Y-18980734D01*
X6102432Y-18980734D02*
X6121479Y-18990258D01*
X6121479Y-18990258D02*
X6131003Y-18999782D01*
X6131003Y-18999782D02*
X6140527Y-19018829D01*
X6140527Y-19018829D02*
X6150051Y-19056924D01*
X6150051Y-19056924D02*
X6150051Y-19104543D01*
X6150051Y-19104543D02*
X6140527Y-19142639D01*
X6140527Y-19142639D02*
X6131003Y-19161686D01*
X6131003Y-19161686D02*
X6121479Y-19171210D01*
X6121479Y-19171210D02*
X6102432Y-19180734D01*
X6102432Y-19180734D02*
X6083384Y-19180734D01*
X6083384Y-19180734D02*
X6064336Y-19171210D01*
X6064336Y-19171210D02*
X6054813Y-19161686D01*
X6054813Y-19161686D02*
X6045289Y-19142639D01*
X6045289Y-19142639D02*
X6035765Y-19104543D01*
X6035765Y-19104543D02*
X6035765Y-19056924D01*
X6035765Y-19056924D02*
X6045289Y-19018829D01*
X6045289Y-19018829D02*
X6054813Y-18999782D01*
X6054813Y-18999782D02*
X6064336Y-18990258D01*
X6064336Y-18990258D02*
X6083384Y-18980734D01*
X6235765Y-19161686D02*
X6245289Y-19171210D01*
X6245289Y-19171210D02*
X6235765Y-19180734D01*
X6235765Y-19180734D02*
X6226241Y-19171210D01*
X6226241Y-19171210D02*
X6235765Y-19161686D01*
X6235765Y-19161686D02*
X6235765Y-19180734D01*
X6369098Y-18980734D02*
X6388146Y-18980734D01*
X6388146Y-18980734D02*
X6407194Y-18990258D01*
X6407194Y-18990258D02*
X6416717Y-18999782D01*
X6416717Y-18999782D02*
X6426241Y-19018829D01*
X6426241Y-19018829D02*
X6435765Y-19056924D01*
X6435765Y-19056924D02*
X6435765Y-19104543D01*
X6435765Y-19104543D02*
X6426241Y-19142639D01*
X6426241Y-19142639D02*
X6416717Y-19161686D01*
X6416717Y-19161686D02*
X6407194Y-19171210D01*
X6407194Y-19171210D02*
X6388146Y-19180734D01*
X6388146Y-19180734D02*
X6369098Y-19180734D01*
X6369098Y-19180734D02*
X6350051Y-19171210D01*
X6350051Y-19171210D02*
X6340527Y-19161686D01*
X6340527Y-19161686D02*
X6331003Y-19142639D01*
X6331003Y-19142639D02*
X6321479Y-19104543D01*
X6321479Y-19104543D02*
X6321479Y-19056924D01*
X6321479Y-19056924D02*
X6331003Y-19018829D01*
X6331003Y-19018829D02*
X6340527Y-18999782D01*
X6340527Y-18999782D02*
X6350051Y-18990258D01*
X6350051Y-18990258D02*
X6369098Y-18980734D01*
X6502432Y-18980734D02*
X6626241Y-18980734D01*
X6626241Y-18980734D02*
X6559575Y-19056924D01*
X6559575Y-19056924D02*
X6588146Y-19056924D01*
X6588146Y-19056924D02*
X6607194Y-19066448D01*
X6607194Y-19066448D02*
X6616717Y-19075972D01*
X6616717Y-19075972D02*
X6626241Y-19095020D01*
X6626241Y-19095020D02*
X6626241Y-19142639D01*
X6626241Y-19142639D02*
X6616717Y-19161686D01*
X6616717Y-19161686D02*
X6607194Y-19171210D01*
X6607194Y-19171210D02*
X6588146Y-19180734D01*
X6588146Y-19180734D02*
X6531003Y-19180734D01*
X6531003Y-19180734D02*
X6511956Y-19171210D01*
X6511956Y-19171210D02*
X6502432Y-19161686D01*
X6807194Y-18980734D02*
X6711956Y-18980734D01*
X6711956Y-18980734D02*
X6702432Y-19075972D01*
X6702432Y-19075972D02*
X6711956Y-19066448D01*
X6711956Y-19066448D02*
X6731003Y-19056924D01*
X6731003Y-19056924D02*
X6778622Y-19056924D01*
X6778622Y-19056924D02*
X6797670Y-19066448D01*
X6797670Y-19066448D02*
X6807194Y-19075972D01*
X6807194Y-19075972D02*
X6816717Y-19095020D01*
X6816717Y-19095020D02*
X6816717Y-19142639D01*
X6816717Y-19142639D02*
X6807194Y-19161686D01*
X6807194Y-19161686D02*
X6797670Y-19171210D01*
X6797670Y-19171210D02*
X6778622Y-19180734D01*
X6778622Y-19180734D02*
X6731003Y-19180734D01*
X6731003Y-19180734D02*
X6711956Y-19171210D01*
X6711956Y-19171210D02*
X6702432Y-19161686D01*
X6988146Y-19047401D02*
X6988146Y-19180734D01*
X6940527Y-18971210D02*
X6892908Y-19114067D01*
X6892908Y-19114067D02*
X7016717Y-19114067D01*
X7083384Y-18980734D02*
X7083384Y-19018829D01*
X7159575Y-18980734D02*
X7159575Y-19018829D01*
X7454813Y-19256924D02*
X7445289Y-19247401D01*
X7445289Y-19247401D02*
X7426241Y-19218829D01*
X7426241Y-19218829D02*
X7416718Y-19199782D01*
X7416718Y-19199782D02*
X7407194Y-19171210D01*
X7407194Y-19171210D02*
X7397670Y-19123591D01*
X7397670Y-19123591D02*
X7397670Y-19085496D01*
X7397670Y-19085496D02*
X7407194Y-19037877D01*
X7407194Y-19037877D02*
X7416718Y-19009305D01*
X7416718Y-19009305D02*
X7426241Y-18990258D01*
X7426241Y-18990258D02*
X7445289Y-18961686D01*
X7445289Y-18961686D02*
X7454813Y-18952162D01*
X7521479Y-18999782D02*
X7531003Y-18990258D01*
X7531003Y-18990258D02*
X7550051Y-18980734D01*
X7550051Y-18980734D02*
X7597670Y-18980734D01*
X7597670Y-18980734D02*
X7616718Y-18990258D01*
X7616718Y-18990258D02*
X7626241Y-18999782D01*
X7626241Y-18999782D02*
X7635765Y-19018829D01*
X7635765Y-19018829D02*
X7635765Y-19037877D01*
X7635765Y-19037877D02*
X7626241Y-19066448D01*
X7626241Y-19066448D02*
X7511956Y-19180734D01*
X7511956Y-19180734D02*
X7635765Y-19180734D01*
X7873860Y-19180734D02*
X7873860Y-18980734D01*
X7959575Y-19180734D02*
X7959575Y-19075972D01*
X7959575Y-19075972D02*
X7950051Y-19056924D01*
X7950051Y-19056924D02*
X7931003Y-19047401D01*
X7931003Y-19047401D02*
X7902432Y-19047401D01*
X7902432Y-19047401D02*
X7883384Y-19056924D01*
X7883384Y-19056924D02*
X7873860Y-19066448D01*
X8083384Y-19180734D02*
X8064337Y-19171210D01*
X8064337Y-19171210D02*
X8054813Y-19161686D01*
X8054813Y-19161686D02*
X8045289Y-19142639D01*
X8045289Y-19142639D02*
X8045289Y-19085496D01*
X8045289Y-19085496D02*
X8054813Y-19066448D01*
X8054813Y-19066448D02*
X8064337Y-19056924D01*
X8064337Y-19056924D02*
X8083384Y-19047401D01*
X8083384Y-19047401D02*
X8111956Y-19047401D01*
X8111956Y-19047401D02*
X8131003Y-19056924D01*
X8131003Y-19056924D02*
X8140527Y-19066448D01*
X8140527Y-19066448D02*
X8150051Y-19085496D01*
X8150051Y-19085496D02*
X8150051Y-19142639D01*
X8150051Y-19142639D02*
X8140527Y-19161686D01*
X8140527Y-19161686D02*
X8131003Y-19171210D01*
X8131003Y-19171210D02*
X8111956Y-19180734D01*
X8111956Y-19180734D02*
X8083384Y-19180734D01*
X8264337Y-19180734D02*
X8245289Y-19171210D01*
X8245289Y-19171210D02*
X8235765Y-19152162D01*
X8235765Y-19152162D02*
X8235765Y-18980734D01*
X8416718Y-19171210D02*
X8397670Y-19180734D01*
X8397670Y-19180734D02*
X8359575Y-19180734D01*
X8359575Y-19180734D02*
X8340527Y-19171210D01*
X8340527Y-19171210D02*
X8331003Y-19152162D01*
X8331003Y-19152162D02*
X8331003Y-19075972D01*
X8331003Y-19075972D02*
X8340527Y-19056924D01*
X8340527Y-19056924D02*
X8359575Y-19047401D01*
X8359575Y-19047401D02*
X8397670Y-19047401D01*
X8397670Y-19047401D02*
X8416718Y-19056924D01*
X8416718Y-19056924D02*
X8426242Y-19075972D01*
X8426242Y-19075972D02*
X8426242Y-19095020D01*
X8426242Y-19095020D02*
X8331003Y-19114067D01*
X8502432Y-19171210D02*
X8521480Y-19180734D01*
X8521480Y-19180734D02*
X8559575Y-19180734D01*
X8559575Y-19180734D02*
X8578623Y-19171210D01*
X8578623Y-19171210D02*
X8588146Y-19152162D01*
X8588146Y-19152162D02*
X8588146Y-19142639D01*
X8588146Y-19142639D02*
X8578623Y-19123591D01*
X8578623Y-19123591D02*
X8559575Y-19114067D01*
X8559575Y-19114067D02*
X8531003Y-19114067D01*
X8531003Y-19114067D02*
X8511956Y-19104543D01*
X8511956Y-19104543D02*
X8502432Y-19085496D01*
X8502432Y-19085496D02*
X8502432Y-19075972D01*
X8502432Y-19075972D02*
X8511956Y-19056924D01*
X8511956Y-19056924D02*
X8531003Y-19047401D01*
X8531003Y-19047401D02*
X8559575Y-19047401D01*
X8559575Y-19047401D02*
X8578623Y-19056924D01*
X8654813Y-19256924D02*
X8664337Y-19247401D01*
X8664337Y-19247401D02*
X8683384Y-19218829D01*
X8683384Y-19218829D02*
X8692908Y-19199782D01*
X8692908Y-19199782D02*
X8702432Y-19171210D01*
X8702432Y-19171210D02*
X8711956Y-19123591D01*
X8711956Y-19123591D02*
X8711956Y-19085496D01*
X8711956Y-19085496D02*
X8702432Y-19037877D01*
X8702432Y-19037877D02*
X8692908Y-19009305D01*
X8692908Y-19009305D02*
X8683384Y-18990258D01*
X8683384Y-18990258D02*
X8664337Y-18961686D01*
X8664337Y-18961686D02*
X8654813Y-18952162D01*
D11*
X3779750Y-19303250D02*
X3879750Y-19403250D01*
X3879750Y-19303250D02*
X3779750Y-19403250D01*
X3879750Y-19353250D02*
G75*
G02*
X3779750Y-19353250I-50000J0D01*
G01*
X3779750Y-19353250D02*
G75*
G02*
X3879750Y-19353250I50000J0D01*
G01*
D12*
X4245289Y-19444734D02*
X4131003Y-19444734D01*
X4188146Y-19444734D02*
X4188146Y-19244734D01*
X4188146Y-19244734D02*
X4169098Y-19273305D01*
X4169098Y-19273305D02*
X4150051Y-19292353D01*
X4150051Y-19292353D02*
X4131003Y-19301877D01*
X4331003Y-19425686D02*
X4340527Y-19435210D01*
X4340527Y-19435210D02*
X4331003Y-19444734D01*
X4331003Y-19444734D02*
X4321479Y-19435210D01*
X4321479Y-19435210D02*
X4331003Y-19425686D01*
X4331003Y-19425686D02*
X4331003Y-19444734D01*
X4464336Y-19244734D02*
X4483384Y-19244734D01*
X4483384Y-19244734D02*
X4502432Y-19254258D01*
X4502432Y-19254258D02*
X4511955Y-19263782D01*
X4511955Y-19263782D02*
X4521479Y-19282829D01*
X4521479Y-19282829D02*
X4531003Y-19320924D01*
X4531003Y-19320924D02*
X4531003Y-19368543D01*
X4531003Y-19368543D02*
X4521479Y-19406639D01*
X4521479Y-19406639D02*
X4511955Y-19425686D01*
X4511955Y-19425686D02*
X4502432Y-19435210D01*
X4502432Y-19435210D02*
X4483384Y-19444734D01*
X4483384Y-19444734D02*
X4464336Y-19444734D01*
X4464336Y-19444734D02*
X4445289Y-19435210D01*
X4445289Y-19435210D02*
X4435765Y-19425686D01*
X4435765Y-19425686D02*
X4426241Y-19406639D01*
X4426241Y-19406639D02*
X4416717Y-19368543D01*
X4416717Y-19368543D02*
X4416717Y-19320924D01*
X4416717Y-19320924D02*
X4426241Y-19282829D01*
X4426241Y-19282829D02*
X4435765Y-19263782D01*
X4435765Y-19263782D02*
X4445289Y-19254258D01*
X4445289Y-19254258D02*
X4464336Y-19244734D01*
X4654813Y-19244734D02*
X4673860Y-19244734D01*
X4673860Y-19244734D02*
X4692908Y-19254258D01*
X4692908Y-19254258D02*
X4702432Y-19263782D01*
X4702432Y-19263782D02*
X4711955Y-19282829D01*
X4711955Y-19282829D02*
X4721479Y-19320924D01*
X4721479Y-19320924D02*
X4721479Y-19368543D01*
X4721479Y-19368543D02*
X4711955Y-19406639D01*
X4711955Y-19406639D02*
X4702432Y-19425686D01*
X4702432Y-19425686D02*
X4692908Y-19435210D01*
X4692908Y-19435210D02*
X4673860Y-19444734D01*
X4673860Y-19444734D02*
X4654813Y-19444734D01*
X4654813Y-19444734D02*
X4635765Y-19435210D01*
X4635765Y-19435210D02*
X4626241Y-19425686D01*
X4626241Y-19425686D02*
X4616717Y-19406639D01*
X4616717Y-19406639D02*
X4607194Y-19368543D01*
X4607194Y-19368543D02*
X4607194Y-19320924D01*
X4607194Y-19320924D02*
X4616717Y-19282829D01*
X4616717Y-19282829D02*
X4626241Y-19263782D01*
X4626241Y-19263782D02*
X4635765Y-19254258D01*
X4635765Y-19254258D02*
X4654813Y-19244734D01*
X4845289Y-19244734D02*
X4864336Y-19244734D01*
X4864336Y-19244734D02*
X4883384Y-19254258D01*
X4883384Y-19254258D02*
X4892908Y-19263782D01*
X4892908Y-19263782D02*
X4902432Y-19282829D01*
X4902432Y-19282829D02*
X4911955Y-19320924D01*
X4911955Y-19320924D02*
X4911955Y-19368543D01*
X4911955Y-19368543D02*
X4902432Y-19406639D01*
X4902432Y-19406639D02*
X4892908Y-19425686D01*
X4892908Y-19425686D02*
X4883384Y-19435210D01*
X4883384Y-19435210D02*
X4864336Y-19444734D01*
X4864336Y-19444734D02*
X4845289Y-19444734D01*
X4845289Y-19444734D02*
X4826241Y-19435210D01*
X4826241Y-19435210D02*
X4816717Y-19425686D01*
X4816717Y-19425686D02*
X4807194Y-19406639D01*
X4807194Y-19406639D02*
X4797670Y-19368543D01*
X4797670Y-19368543D02*
X4797670Y-19320924D01*
X4797670Y-19320924D02*
X4807194Y-19282829D01*
X4807194Y-19282829D02*
X4816717Y-19263782D01*
X4816717Y-19263782D02*
X4826241Y-19254258D01*
X4826241Y-19254258D02*
X4845289Y-19244734D01*
X4997670Y-19444734D02*
X4997670Y-19311401D01*
X4997670Y-19330448D02*
X5007194Y-19320924D01*
X5007194Y-19320924D02*
X5026241Y-19311401D01*
X5026241Y-19311401D02*
X5054813Y-19311401D01*
X5054813Y-19311401D02*
X5073860Y-19320924D01*
X5073860Y-19320924D02*
X5083384Y-19339972D01*
X5083384Y-19339972D02*
X5083384Y-19444734D01*
X5083384Y-19339972D02*
X5092908Y-19320924D01*
X5092908Y-19320924D02*
X5111955Y-19311401D01*
X5111955Y-19311401D02*
X5140527Y-19311401D01*
X5140527Y-19311401D02*
X5159575Y-19320924D01*
X5159575Y-19320924D02*
X5169098Y-19339972D01*
X5169098Y-19339972D02*
X5169098Y-19444734D01*
X5264336Y-19444734D02*
X5264336Y-19311401D01*
X5264336Y-19330448D02*
X5273860Y-19320924D01*
X5273860Y-19320924D02*
X5292908Y-19311401D01*
X5292908Y-19311401D02*
X5321479Y-19311401D01*
X5321479Y-19311401D02*
X5340527Y-19320924D01*
X5340527Y-19320924D02*
X5350051Y-19339972D01*
X5350051Y-19339972D02*
X5350051Y-19444734D01*
X5350051Y-19339972D02*
X5359575Y-19320924D01*
X5359575Y-19320924D02*
X5378622Y-19311401D01*
X5378622Y-19311401D02*
X5407194Y-19311401D01*
X5407194Y-19311401D02*
X5426241Y-19320924D01*
X5426241Y-19320924D02*
X5435765Y-19339972D01*
X5435765Y-19339972D02*
X5435765Y-19444734D01*
X5826241Y-19235210D02*
X5654813Y-19492353D01*
X6083384Y-19244734D02*
X6102432Y-19244734D01*
X6102432Y-19244734D02*
X6121479Y-19254258D01*
X6121479Y-19254258D02*
X6131003Y-19263782D01*
X6131003Y-19263782D02*
X6140527Y-19282829D01*
X6140527Y-19282829D02*
X6150051Y-19320924D01*
X6150051Y-19320924D02*
X6150051Y-19368543D01*
X6150051Y-19368543D02*
X6140527Y-19406639D01*
X6140527Y-19406639D02*
X6131003Y-19425686D01*
X6131003Y-19425686D02*
X6121479Y-19435210D01*
X6121479Y-19435210D02*
X6102432Y-19444734D01*
X6102432Y-19444734D02*
X6083384Y-19444734D01*
X6083384Y-19444734D02*
X6064336Y-19435210D01*
X6064336Y-19435210D02*
X6054813Y-19425686D01*
X6054813Y-19425686D02*
X6045289Y-19406639D01*
X6045289Y-19406639D02*
X6035765Y-19368543D01*
X6035765Y-19368543D02*
X6035765Y-19320924D01*
X6035765Y-19320924D02*
X6045289Y-19282829D01*
X6045289Y-19282829D02*
X6054813Y-19263782D01*
X6054813Y-19263782D02*
X6064336Y-19254258D01*
X6064336Y-19254258D02*
X6083384Y-19244734D01*
X6235765Y-19425686D02*
X6245289Y-19435210D01*
X6245289Y-19435210D02*
X6235765Y-19444734D01*
X6235765Y-19444734D02*
X6226241Y-19435210D01*
X6226241Y-19435210D02*
X6235765Y-19425686D01*
X6235765Y-19425686D02*
X6235765Y-19444734D01*
X6369098Y-19244734D02*
X6388146Y-19244734D01*
X6388146Y-19244734D02*
X6407194Y-19254258D01*
X6407194Y-19254258D02*
X6416717Y-19263782D01*
X6416717Y-19263782D02*
X6426241Y-19282829D01*
X6426241Y-19282829D02*
X6435765Y-19320924D01*
X6435765Y-19320924D02*
X6435765Y-19368543D01*
X6435765Y-19368543D02*
X6426241Y-19406639D01*
X6426241Y-19406639D02*
X6416717Y-19425686D01*
X6416717Y-19425686D02*
X6407194Y-19435210D01*
X6407194Y-19435210D02*
X6388146Y-19444734D01*
X6388146Y-19444734D02*
X6369098Y-19444734D01*
X6369098Y-19444734D02*
X6350051Y-19435210D01*
X6350051Y-19435210D02*
X6340527Y-19425686D01*
X6340527Y-19425686D02*
X6331003Y-19406639D01*
X6331003Y-19406639D02*
X6321479Y-19368543D01*
X6321479Y-19368543D02*
X6321479Y-19320924D01*
X6321479Y-19320924D02*
X6331003Y-19282829D01*
X6331003Y-19282829D02*
X6340527Y-19263782D01*
X6340527Y-19263782D02*
X6350051Y-19254258D01*
X6350051Y-19254258D02*
X6369098Y-19244734D01*
X6502432Y-19244734D02*
X6626241Y-19244734D01*
X6626241Y-19244734D02*
X6559575Y-19320924D01*
X6559575Y-19320924D02*
X6588146Y-19320924D01*
X6588146Y-19320924D02*
X6607194Y-19330448D01*
X6607194Y-19330448D02*
X6616717Y-19339972D01*
X6616717Y-19339972D02*
X6626241Y-19359020D01*
X6626241Y-19359020D02*
X6626241Y-19406639D01*
X6626241Y-19406639D02*
X6616717Y-19425686D01*
X6616717Y-19425686D02*
X6607194Y-19435210D01*
X6607194Y-19435210D02*
X6588146Y-19444734D01*
X6588146Y-19444734D02*
X6531003Y-19444734D01*
X6531003Y-19444734D02*
X6511956Y-19435210D01*
X6511956Y-19435210D02*
X6502432Y-19425686D01*
X6721479Y-19444734D02*
X6759575Y-19444734D01*
X6759575Y-19444734D02*
X6778622Y-19435210D01*
X6778622Y-19435210D02*
X6788146Y-19425686D01*
X6788146Y-19425686D02*
X6807194Y-19397115D01*
X6807194Y-19397115D02*
X6816717Y-19359020D01*
X6816717Y-19359020D02*
X6816717Y-19282829D01*
X6816717Y-19282829D02*
X6807194Y-19263782D01*
X6807194Y-19263782D02*
X6797670Y-19254258D01*
X6797670Y-19254258D02*
X6778622Y-19244734D01*
X6778622Y-19244734D02*
X6740527Y-19244734D01*
X6740527Y-19244734D02*
X6721479Y-19254258D01*
X6721479Y-19254258D02*
X6711956Y-19263782D01*
X6711956Y-19263782D02*
X6702432Y-19282829D01*
X6702432Y-19282829D02*
X6702432Y-19330448D01*
X6702432Y-19330448D02*
X6711956Y-19349496D01*
X6711956Y-19349496D02*
X6721479Y-19359020D01*
X6721479Y-19359020D02*
X6740527Y-19368543D01*
X6740527Y-19368543D02*
X6778622Y-19368543D01*
X6778622Y-19368543D02*
X6797670Y-19359020D01*
X6797670Y-19359020D02*
X6807194Y-19349496D01*
X6807194Y-19349496D02*
X6816717Y-19330448D01*
X6988146Y-19311401D02*
X6988146Y-19444734D01*
X6940527Y-19235210D02*
X6892908Y-19378067D01*
X6892908Y-19378067D02*
X7016717Y-19378067D01*
X7083384Y-19244734D02*
X7083384Y-19282829D01*
X7159575Y-19244734D02*
X7159575Y-19282829D01*
X7454813Y-19520924D02*
X7445289Y-19511401D01*
X7445289Y-19511401D02*
X7426241Y-19482829D01*
X7426241Y-19482829D02*
X7416718Y-19463782D01*
X7416718Y-19463782D02*
X7407194Y-19435210D01*
X7407194Y-19435210D02*
X7397670Y-19387591D01*
X7397670Y-19387591D02*
X7397670Y-19349496D01*
X7397670Y-19349496D02*
X7407194Y-19301877D01*
X7407194Y-19301877D02*
X7416718Y-19273305D01*
X7416718Y-19273305D02*
X7426241Y-19254258D01*
X7426241Y-19254258D02*
X7445289Y-19225686D01*
X7445289Y-19225686D02*
X7454813Y-19216162D01*
X7511956Y-19244734D02*
X7635765Y-19244734D01*
X7635765Y-19244734D02*
X7569098Y-19320924D01*
X7569098Y-19320924D02*
X7597670Y-19320924D01*
X7597670Y-19320924D02*
X7616718Y-19330448D01*
X7616718Y-19330448D02*
X7626241Y-19339972D01*
X7626241Y-19339972D02*
X7635765Y-19359020D01*
X7635765Y-19359020D02*
X7635765Y-19406639D01*
X7635765Y-19406639D02*
X7626241Y-19425686D01*
X7626241Y-19425686D02*
X7616718Y-19435210D01*
X7616718Y-19435210D02*
X7597670Y-19444734D01*
X7597670Y-19444734D02*
X7540527Y-19444734D01*
X7540527Y-19444734D02*
X7521479Y-19435210D01*
X7521479Y-19435210D02*
X7511956Y-19425686D01*
X7702432Y-19244734D02*
X7826241Y-19244734D01*
X7826241Y-19244734D02*
X7759575Y-19320924D01*
X7759575Y-19320924D02*
X7788146Y-19320924D01*
X7788146Y-19320924D02*
X7807194Y-19330448D01*
X7807194Y-19330448D02*
X7816718Y-19339972D01*
X7816718Y-19339972D02*
X7826241Y-19359020D01*
X7826241Y-19359020D02*
X7826241Y-19406639D01*
X7826241Y-19406639D02*
X7816718Y-19425686D01*
X7816718Y-19425686D02*
X7807194Y-19435210D01*
X7807194Y-19435210D02*
X7788146Y-19444734D01*
X7788146Y-19444734D02*
X7731003Y-19444734D01*
X7731003Y-19444734D02*
X7711956Y-19435210D01*
X7711956Y-19435210D02*
X7702432Y-19425686D01*
X8064337Y-19444734D02*
X8064337Y-19244734D01*
X8150051Y-19444734D02*
X8150051Y-19339972D01*
X8150051Y-19339972D02*
X8140527Y-19320924D01*
X8140527Y-19320924D02*
X8121480Y-19311401D01*
X8121480Y-19311401D02*
X8092908Y-19311401D01*
X8092908Y-19311401D02*
X8073860Y-19320924D01*
X8073860Y-19320924D02*
X8064337Y-19330448D01*
X8273860Y-19444734D02*
X8254813Y-19435210D01*
X8254813Y-19435210D02*
X8245289Y-19425686D01*
X8245289Y-19425686D02*
X8235765Y-19406639D01*
X8235765Y-19406639D02*
X8235765Y-19349496D01*
X8235765Y-19349496D02*
X8245289Y-19330448D01*
X8245289Y-19330448D02*
X8254813Y-19320924D01*
X8254813Y-19320924D02*
X8273860Y-19311401D01*
X8273860Y-19311401D02*
X8302432Y-19311401D01*
X8302432Y-19311401D02*
X8321480Y-19320924D01*
X8321480Y-19320924D02*
X8331003Y-19330448D01*
X8331003Y-19330448D02*
X8340527Y-19349496D01*
X8340527Y-19349496D02*
X8340527Y-19406639D01*
X8340527Y-19406639D02*
X8331003Y-19425686D01*
X8331003Y-19425686D02*
X8321480Y-19435210D01*
X8321480Y-19435210D02*
X8302432Y-19444734D01*
X8302432Y-19444734D02*
X8273860Y-19444734D01*
X8454813Y-19444734D02*
X8435765Y-19435210D01*
X8435765Y-19435210D02*
X8426242Y-19416162D01*
X8426242Y-19416162D02*
X8426242Y-19244734D01*
X8607194Y-19435210D02*
X8588146Y-19444734D01*
X8588146Y-19444734D02*
X8550051Y-19444734D01*
X8550051Y-19444734D02*
X8531003Y-19435210D01*
X8531003Y-19435210D02*
X8521480Y-19416162D01*
X8521480Y-19416162D02*
X8521480Y-19339972D01*
X8521480Y-19339972D02*
X8531003Y-19320924D01*
X8531003Y-19320924D02*
X8550051Y-19311401D01*
X8550051Y-19311401D02*
X8588146Y-19311401D01*
X8588146Y-19311401D02*
X8607194Y-19320924D01*
X8607194Y-19320924D02*
X8616718Y-19339972D01*
X8616718Y-19339972D02*
X8616718Y-19359020D01*
X8616718Y-19359020D02*
X8521480Y-19378067D01*
X8692908Y-19435210D02*
X8711956Y-19444734D01*
X8711956Y-19444734D02*
X8750051Y-19444734D01*
X8750051Y-19444734D02*
X8769099Y-19435210D01*
X8769099Y-19435210D02*
X8778623Y-19416162D01*
X8778623Y-19416162D02*
X8778623Y-19406639D01*
X8778623Y-19406639D02*
X8769099Y-19387591D01*
X8769099Y-19387591D02*
X8750051Y-19378067D01*
X8750051Y-19378067D02*
X8721480Y-19378067D01*
X8721480Y-19378067D02*
X8702432Y-19368543D01*
X8702432Y-19368543D02*
X8692908Y-19349496D01*
X8692908Y-19349496D02*
X8692908Y-19339972D01*
X8692908Y-19339972D02*
X8702432Y-19320924D01*
X8702432Y-19320924D02*
X8721480Y-19311401D01*
X8721480Y-19311401D02*
X8750051Y-19311401D01*
X8750051Y-19311401D02*
X8769099Y-19320924D01*
X8845289Y-19520924D02*
X8854813Y-19511401D01*
X8854813Y-19511401D02*
X8873861Y-19482829D01*
X8873861Y-19482829D02*
X8883384Y-19463782D01*
X8883384Y-19463782D02*
X8892908Y-19435210D01*
X8892908Y-19435210D02*
X8902432Y-19387591D01*
X8902432Y-19387591D02*
X8902432Y-19349496D01*
X8902432Y-19349496D02*
X8892908Y-19301877D01*
X8892908Y-19301877D02*
X8883384Y-19273305D01*
X8883384Y-19273305D02*
X8873861Y-19254258D01*
X8873861Y-19254258D02*
X8854813Y-19225686D01*
X8854813Y-19225686D02*
X8845289Y-19216162D01*
D13*
X3778150Y-19566450D02*
X3879750Y-19668050D01*
X3879750Y-19566450D02*
X3778150Y-19668050D01*
X3828950Y-19566450D02*
X3828950Y-19668050D01*
X3778150Y-19617250D02*
X3879750Y-19617250D01*
D12*
X4245289Y-19708734D02*
X4131003Y-19708734D01*
X4188146Y-19708734D02*
X4188146Y-19508734D01*
X4188146Y-19508734D02*
X4169098Y-19537305D01*
X4169098Y-19537305D02*
X4150051Y-19556353D01*
X4150051Y-19556353D02*
X4131003Y-19565877D01*
X4331003Y-19689686D02*
X4340527Y-19699210D01*
X4340527Y-19699210D02*
X4331003Y-19708734D01*
X4331003Y-19708734D02*
X4321479Y-19699210D01*
X4321479Y-19699210D02*
X4331003Y-19689686D01*
X4331003Y-19689686D02*
X4331003Y-19708734D01*
X4464336Y-19508734D02*
X4483384Y-19508734D01*
X4483384Y-19508734D02*
X4502432Y-19518258D01*
X4502432Y-19518258D02*
X4511955Y-19527782D01*
X4511955Y-19527782D02*
X4521479Y-19546829D01*
X4521479Y-19546829D02*
X4531003Y-19584924D01*
X4531003Y-19584924D02*
X4531003Y-19632543D01*
X4531003Y-19632543D02*
X4521479Y-19670639D01*
X4521479Y-19670639D02*
X4511955Y-19689686D01*
X4511955Y-19689686D02*
X4502432Y-19699210D01*
X4502432Y-19699210D02*
X4483384Y-19708734D01*
X4483384Y-19708734D02*
X4464336Y-19708734D01*
X4464336Y-19708734D02*
X4445289Y-19699210D01*
X4445289Y-19699210D02*
X4435765Y-19689686D01*
X4435765Y-19689686D02*
X4426241Y-19670639D01*
X4426241Y-19670639D02*
X4416717Y-19632543D01*
X4416717Y-19632543D02*
X4416717Y-19584924D01*
X4416717Y-19584924D02*
X4426241Y-19546829D01*
X4426241Y-19546829D02*
X4435765Y-19527782D01*
X4435765Y-19527782D02*
X4445289Y-19518258D01*
X4445289Y-19518258D02*
X4464336Y-19508734D01*
X4721479Y-19708734D02*
X4607194Y-19708734D01*
X4664336Y-19708734D02*
X4664336Y-19508734D01*
X4664336Y-19508734D02*
X4645289Y-19537305D01*
X4645289Y-19537305D02*
X4626241Y-19556353D01*
X4626241Y-19556353D02*
X4607194Y-19565877D01*
X4892908Y-19508734D02*
X4854813Y-19508734D01*
X4854813Y-19508734D02*
X4835765Y-19518258D01*
X4835765Y-19518258D02*
X4826241Y-19527782D01*
X4826241Y-19527782D02*
X4807194Y-19556353D01*
X4807194Y-19556353D02*
X4797670Y-19594448D01*
X4797670Y-19594448D02*
X4797670Y-19670639D01*
X4797670Y-19670639D02*
X4807194Y-19689686D01*
X4807194Y-19689686D02*
X4816717Y-19699210D01*
X4816717Y-19699210D02*
X4835765Y-19708734D01*
X4835765Y-19708734D02*
X4873860Y-19708734D01*
X4873860Y-19708734D02*
X4892908Y-19699210D01*
X4892908Y-19699210D02*
X4902432Y-19689686D01*
X4902432Y-19689686D02*
X4911955Y-19670639D01*
X4911955Y-19670639D02*
X4911955Y-19623020D01*
X4911955Y-19623020D02*
X4902432Y-19603972D01*
X4902432Y-19603972D02*
X4892908Y-19594448D01*
X4892908Y-19594448D02*
X4873860Y-19584924D01*
X4873860Y-19584924D02*
X4835765Y-19584924D01*
X4835765Y-19584924D02*
X4816717Y-19594448D01*
X4816717Y-19594448D02*
X4807194Y-19603972D01*
X4807194Y-19603972D02*
X4797670Y-19623020D01*
X4997670Y-19708734D02*
X4997670Y-19575401D01*
X4997670Y-19594448D02*
X5007194Y-19584924D01*
X5007194Y-19584924D02*
X5026241Y-19575401D01*
X5026241Y-19575401D02*
X5054813Y-19575401D01*
X5054813Y-19575401D02*
X5073860Y-19584924D01*
X5073860Y-19584924D02*
X5083384Y-19603972D01*
X5083384Y-19603972D02*
X5083384Y-19708734D01*
X5083384Y-19603972D02*
X5092908Y-19584924D01*
X5092908Y-19584924D02*
X5111955Y-19575401D01*
X5111955Y-19575401D02*
X5140527Y-19575401D01*
X5140527Y-19575401D02*
X5159575Y-19584924D01*
X5159575Y-19584924D02*
X5169098Y-19603972D01*
X5169098Y-19603972D02*
X5169098Y-19708734D01*
X5264336Y-19708734D02*
X5264336Y-19575401D01*
X5264336Y-19594448D02*
X5273860Y-19584924D01*
X5273860Y-19584924D02*
X5292908Y-19575401D01*
X5292908Y-19575401D02*
X5321479Y-19575401D01*
X5321479Y-19575401D02*
X5340527Y-19584924D01*
X5340527Y-19584924D02*
X5350051Y-19603972D01*
X5350051Y-19603972D02*
X5350051Y-19708734D01*
X5350051Y-19603972D02*
X5359575Y-19584924D01*
X5359575Y-19584924D02*
X5378622Y-19575401D01*
X5378622Y-19575401D02*
X5407194Y-19575401D01*
X5407194Y-19575401D02*
X5426241Y-19584924D01*
X5426241Y-19584924D02*
X5435765Y-19603972D01*
X5435765Y-19603972D02*
X5435765Y-19708734D01*
X5826241Y-19499210D02*
X5654813Y-19756353D01*
X6083384Y-19508734D02*
X6102432Y-19508734D01*
X6102432Y-19508734D02*
X6121479Y-19518258D01*
X6121479Y-19518258D02*
X6131003Y-19527782D01*
X6131003Y-19527782D02*
X6140527Y-19546829D01*
X6140527Y-19546829D02*
X6150051Y-19584924D01*
X6150051Y-19584924D02*
X6150051Y-19632543D01*
X6150051Y-19632543D02*
X6140527Y-19670639D01*
X6140527Y-19670639D02*
X6131003Y-19689686D01*
X6131003Y-19689686D02*
X6121479Y-19699210D01*
X6121479Y-19699210D02*
X6102432Y-19708734D01*
X6102432Y-19708734D02*
X6083384Y-19708734D01*
X6083384Y-19708734D02*
X6064336Y-19699210D01*
X6064336Y-19699210D02*
X6054813Y-19689686D01*
X6054813Y-19689686D02*
X6045289Y-19670639D01*
X6045289Y-19670639D02*
X6035765Y-19632543D01*
X6035765Y-19632543D02*
X6035765Y-19584924D01*
X6035765Y-19584924D02*
X6045289Y-19546829D01*
X6045289Y-19546829D02*
X6054813Y-19527782D01*
X6054813Y-19527782D02*
X6064336Y-19518258D01*
X6064336Y-19518258D02*
X6083384Y-19508734D01*
X6235765Y-19689686D02*
X6245289Y-19699210D01*
X6245289Y-19699210D02*
X6235765Y-19708734D01*
X6235765Y-19708734D02*
X6226241Y-19699210D01*
X6226241Y-19699210D02*
X6235765Y-19689686D01*
X6235765Y-19689686D02*
X6235765Y-19708734D01*
X6369098Y-19508734D02*
X6388146Y-19508734D01*
X6388146Y-19508734D02*
X6407194Y-19518258D01*
X6407194Y-19518258D02*
X6416717Y-19527782D01*
X6416717Y-19527782D02*
X6426241Y-19546829D01*
X6426241Y-19546829D02*
X6435765Y-19584924D01*
X6435765Y-19584924D02*
X6435765Y-19632543D01*
X6435765Y-19632543D02*
X6426241Y-19670639D01*
X6426241Y-19670639D02*
X6416717Y-19689686D01*
X6416717Y-19689686D02*
X6407194Y-19699210D01*
X6407194Y-19699210D02*
X6388146Y-19708734D01*
X6388146Y-19708734D02*
X6369098Y-19708734D01*
X6369098Y-19708734D02*
X6350051Y-19699210D01*
X6350051Y-19699210D02*
X6340527Y-19689686D01*
X6340527Y-19689686D02*
X6331003Y-19670639D01*
X6331003Y-19670639D02*
X6321479Y-19632543D01*
X6321479Y-19632543D02*
X6321479Y-19584924D01*
X6321479Y-19584924D02*
X6331003Y-19546829D01*
X6331003Y-19546829D02*
X6340527Y-19527782D01*
X6340527Y-19527782D02*
X6350051Y-19518258D01*
X6350051Y-19518258D02*
X6369098Y-19508734D01*
X6607194Y-19575401D02*
X6607194Y-19708734D01*
X6559575Y-19499210D02*
X6511956Y-19642067D01*
X6511956Y-19642067D02*
X6635765Y-19642067D01*
X6750051Y-19508734D02*
X6769098Y-19508734D01*
X6769098Y-19508734D02*
X6788146Y-19518258D01*
X6788146Y-19518258D02*
X6797670Y-19527782D01*
X6797670Y-19527782D02*
X6807194Y-19546829D01*
X6807194Y-19546829D02*
X6816717Y-19584924D01*
X6816717Y-19584924D02*
X6816717Y-19632543D01*
X6816717Y-19632543D02*
X6807194Y-19670639D01*
X6807194Y-19670639D02*
X6797670Y-19689686D01*
X6797670Y-19689686D02*
X6788146Y-19699210D01*
X6788146Y-19699210D02*
X6769098Y-19708734D01*
X6769098Y-19708734D02*
X6750051Y-19708734D01*
X6750051Y-19708734D02*
X6731003Y-19699210D01*
X6731003Y-19699210D02*
X6721479Y-19689686D01*
X6721479Y-19689686D02*
X6711956Y-19670639D01*
X6711956Y-19670639D02*
X6702432Y-19632543D01*
X6702432Y-19632543D02*
X6702432Y-19584924D01*
X6702432Y-19584924D02*
X6711956Y-19546829D01*
X6711956Y-19546829D02*
X6721479Y-19527782D01*
X6721479Y-19527782D02*
X6731003Y-19518258D01*
X6731003Y-19518258D02*
X6750051Y-19508734D01*
X6940527Y-19508734D02*
X6959575Y-19508734D01*
X6959575Y-19508734D02*
X6978622Y-19518258D01*
X6978622Y-19518258D02*
X6988146Y-19527782D01*
X6988146Y-19527782D02*
X6997670Y-19546829D01*
X6997670Y-19546829D02*
X7007194Y-19584924D01*
X7007194Y-19584924D02*
X7007194Y-19632543D01*
X7007194Y-19632543D02*
X6997670Y-19670639D01*
X6997670Y-19670639D02*
X6988146Y-19689686D01*
X6988146Y-19689686D02*
X6978622Y-19699210D01*
X6978622Y-19699210D02*
X6959575Y-19708734D01*
X6959575Y-19708734D02*
X6940527Y-19708734D01*
X6940527Y-19708734D02*
X6921479Y-19699210D01*
X6921479Y-19699210D02*
X6911956Y-19689686D01*
X6911956Y-19689686D02*
X6902432Y-19670639D01*
X6902432Y-19670639D02*
X6892908Y-19632543D01*
X6892908Y-19632543D02*
X6892908Y-19584924D01*
X6892908Y-19584924D02*
X6902432Y-19546829D01*
X6902432Y-19546829D02*
X6911956Y-19527782D01*
X6911956Y-19527782D02*
X6921479Y-19518258D01*
X6921479Y-19518258D02*
X6940527Y-19508734D01*
X7083384Y-19508734D02*
X7083384Y-19546829D01*
X7159575Y-19508734D02*
X7159575Y-19546829D01*
X7454813Y-19784924D02*
X7445289Y-19775401D01*
X7445289Y-19775401D02*
X7426241Y-19746829D01*
X7426241Y-19746829D02*
X7416718Y-19727782D01*
X7416718Y-19727782D02*
X7407194Y-19699210D01*
X7407194Y-19699210D02*
X7397670Y-19651591D01*
X7397670Y-19651591D02*
X7397670Y-19613496D01*
X7397670Y-19613496D02*
X7407194Y-19565877D01*
X7407194Y-19565877D02*
X7416718Y-19537305D01*
X7416718Y-19537305D02*
X7426241Y-19518258D01*
X7426241Y-19518258D02*
X7445289Y-19489686D01*
X7445289Y-19489686D02*
X7454813Y-19480162D01*
X7521479Y-19527782D02*
X7531003Y-19518258D01*
X7531003Y-19518258D02*
X7550051Y-19508734D01*
X7550051Y-19508734D02*
X7597670Y-19508734D01*
X7597670Y-19508734D02*
X7616718Y-19518258D01*
X7616718Y-19518258D02*
X7626241Y-19527782D01*
X7626241Y-19527782D02*
X7635765Y-19546829D01*
X7635765Y-19546829D02*
X7635765Y-19565877D01*
X7635765Y-19565877D02*
X7626241Y-19594448D01*
X7626241Y-19594448D02*
X7511956Y-19708734D01*
X7511956Y-19708734D02*
X7635765Y-19708734D01*
X7873860Y-19708734D02*
X7873860Y-19508734D01*
X7959575Y-19708734D02*
X7959575Y-19603972D01*
X7959575Y-19603972D02*
X7950051Y-19584924D01*
X7950051Y-19584924D02*
X7931003Y-19575401D01*
X7931003Y-19575401D02*
X7902432Y-19575401D01*
X7902432Y-19575401D02*
X7883384Y-19584924D01*
X7883384Y-19584924D02*
X7873860Y-19594448D01*
X8083384Y-19708734D02*
X8064337Y-19699210D01*
X8064337Y-19699210D02*
X8054813Y-19689686D01*
X8054813Y-19689686D02*
X8045289Y-19670639D01*
X8045289Y-19670639D02*
X8045289Y-19613496D01*
X8045289Y-19613496D02*
X8054813Y-19594448D01*
X8054813Y-19594448D02*
X8064337Y-19584924D01*
X8064337Y-19584924D02*
X8083384Y-19575401D01*
X8083384Y-19575401D02*
X8111956Y-19575401D01*
X8111956Y-19575401D02*
X8131003Y-19584924D01*
X8131003Y-19584924D02*
X8140527Y-19594448D01*
X8140527Y-19594448D02*
X8150051Y-19613496D01*
X8150051Y-19613496D02*
X8150051Y-19670639D01*
X8150051Y-19670639D02*
X8140527Y-19689686D01*
X8140527Y-19689686D02*
X8131003Y-19699210D01*
X8131003Y-19699210D02*
X8111956Y-19708734D01*
X8111956Y-19708734D02*
X8083384Y-19708734D01*
X8264337Y-19708734D02*
X8245289Y-19699210D01*
X8245289Y-19699210D02*
X8235765Y-19680162D01*
X8235765Y-19680162D02*
X8235765Y-19508734D01*
X8416718Y-19699210D02*
X8397670Y-19708734D01*
X8397670Y-19708734D02*
X8359575Y-19708734D01*
X8359575Y-19708734D02*
X8340527Y-19699210D01*
X8340527Y-19699210D02*
X8331003Y-19680162D01*
X8331003Y-19680162D02*
X8331003Y-19603972D01*
X8331003Y-19603972D02*
X8340527Y-19584924D01*
X8340527Y-19584924D02*
X8359575Y-19575401D01*
X8359575Y-19575401D02*
X8397670Y-19575401D01*
X8397670Y-19575401D02*
X8416718Y-19584924D01*
X8416718Y-19584924D02*
X8426242Y-19603972D01*
X8426242Y-19603972D02*
X8426242Y-19623020D01*
X8426242Y-19623020D02*
X8331003Y-19642067D01*
X8502432Y-19699210D02*
X8521480Y-19708734D01*
X8521480Y-19708734D02*
X8559575Y-19708734D01*
X8559575Y-19708734D02*
X8578623Y-19699210D01*
X8578623Y-19699210D02*
X8588146Y-19680162D01*
X8588146Y-19680162D02*
X8588146Y-19670639D01*
X8588146Y-19670639D02*
X8578623Y-19651591D01*
X8578623Y-19651591D02*
X8559575Y-19642067D01*
X8559575Y-19642067D02*
X8531003Y-19642067D01*
X8531003Y-19642067D02*
X8511956Y-19632543D01*
X8511956Y-19632543D02*
X8502432Y-19613496D01*
X8502432Y-19613496D02*
X8502432Y-19603972D01*
X8502432Y-19603972D02*
X8511956Y-19584924D01*
X8511956Y-19584924D02*
X8531003Y-19575401D01*
X8531003Y-19575401D02*
X8559575Y-19575401D01*
X8559575Y-19575401D02*
X8578623Y-19584924D01*
X8654813Y-19784924D02*
X8664337Y-19775401D01*
X8664337Y-19775401D02*
X8683384Y-19746829D01*
X8683384Y-19746829D02*
X8692908Y-19727782D01*
X8692908Y-19727782D02*
X8702432Y-19699210D01*
X8702432Y-19699210D02*
X8711956Y-19651591D01*
X8711956Y-19651591D02*
X8711956Y-19613496D01*
X8711956Y-19613496D02*
X8702432Y-19565877D01*
X8702432Y-19565877D02*
X8692908Y-19537305D01*
X8692908Y-19537305D02*
X8683384Y-19518258D01*
X8683384Y-19518258D02*
X8664337Y-19489686D01*
X8664337Y-19489686D02*
X8654813Y-19480162D01*
D14*
X3729750Y-19806250D02*
X3879750Y-19956250D01*
X3879750Y-19806250D02*
X3729750Y-19956250D01*
X3857783Y-19934284D02*
X3857783Y-19828217D01*
X3751716Y-19828217D01*
X3751716Y-19934284D01*
X3857783Y-19934284D01*
D12*
X4245289Y-19972734D02*
X4131003Y-19972734D01*
X4188146Y-19972734D02*
X4188146Y-19772734D01*
X4188146Y-19772734D02*
X4169098Y-19801305D01*
X4169098Y-19801305D02*
X4150051Y-19820353D01*
X4150051Y-19820353D02*
X4131003Y-19829877D01*
X4331003Y-19953686D02*
X4340527Y-19963210D01*
X4340527Y-19963210D02*
X4331003Y-19972734D01*
X4331003Y-19972734D02*
X4321479Y-19963210D01*
X4321479Y-19963210D02*
X4331003Y-19953686D01*
X4331003Y-19953686D02*
X4331003Y-19972734D01*
X4521479Y-19772734D02*
X4426241Y-19772734D01*
X4426241Y-19772734D02*
X4416717Y-19867972D01*
X4416717Y-19867972D02*
X4426241Y-19858448D01*
X4426241Y-19858448D02*
X4445289Y-19848924D01*
X4445289Y-19848924D02*
X4492908Y-19848924D01*
X4492908Y-19848924D02*
X4511955Y-19858448D01*
X4511955Y-19858448D02*
X4521479Y-19867972D01*
X4521479Y-19867972D02*
X4531003Y-19887020D01*
X4531003Y-19887020D02*
X4531003Y-19934639D01*
X4531003Y-19934639D02*
X4521479Y-19953686D01*
X4521479Y-19953686D02*
X4511955Y-19963210D01*
X4511955Y-19963210D02*
X4492908Y-19972734D01*
X4492908Y-19972734D02*
X4445289Y-19972734D01*
X4445289Y-19972734D02*
X4426241Y-19963210D01*
X4426241Y-19963210D02*
X4416717Y-19953686D01*
X4654813Y-19772734D02*
X4673860Y-19772734D01*
X4673860Y-19772734D02*
X4692908Y-19782258D01*
X4692908Y-19782258D02*
X4702432Y-19791782D01*
X4702432Y-19791782D02*
X4711955Y-19810829D01*
X4711955Y-19810829D02*
X4721479Y-19848924D01*
X4721479Y-19848924D02*
X4721479Y-19896543D01*
X4721479Y-19896543D02*
X4711955Y-19934639D01*
X4711955Y-19934639D02*
X4702432Y-19953686D01*
X4702432Y-19953686D02*
X4692908Y-19963210D01*
X4692908Y-19963210D02*
X4673860Y-19972734D01*
X4673860Y-19972734D02*
X4654813Y-19972734D01*
X4654813Y-19972734D02*
X4635765Y-19963210D01*
X4635765Y-19963210D02*
X4626241Y-19953686D01*
X4626241Y-19953686D02*
X4616717Y-19934639D01*
X4616717Y-19934639D02*
X4607194Y-19896543D01*
X4607194Y-19896543D02*
X4607194Y-19848924D01*
X4607194Y-19848924D02*
X4616717Y-19810829D01*
X4616717Y-19810829D02*
X4626241Y-19791782D01*
X4626241Y-19791782D02*
X4635765Y-19782258D01*
X4635765Y-19782258D02*
X4654813Y-19772734D01*
X4845289Y-19772734D02*
X4864336Y-19772734D01*
X4864336Y-19772734D02*
X4883384Y-19782258D01*
X4883384Y-19782258D02*
X4892908Y-19791782D01*
X4892908Y-19791782D02*
X4902432Y-19810829D01*
X4902432Y-19810829D02*
X4911955Y-19848924D01*
X4911955Y-19848924D02*
X4911955Y-19896543D01*
X4911955Y-19896543D02*
X4902432Y-19934639D01*
X4902432Y-19934639D02*
X4892908Y-19953686D01*
X4892908Y-19953686D02*
X4883384Y-19963210D01*
X4883384Y-19963210D02*
X4864336Y-19972734D01*
X4864336Y-19972734D02*
X4845289Y-19972734D01*
X4845289Y-19972734D02*
X4826241Y-19963210D01*
X4826241Y-19963210D02*
X4816717Y-19953686D01*
X4816717Y-19953686D02*
X4807194Y-19934639D01*
X4807194Y-19934639D02*
X4797670Y-19896543D01*
X4797670Y-19896543D02*
X4797670Y-19848924D01*
X4797670Y-19848924D02*
X4807194Y-19810829D01*
X4807194Y-19810829D02*
X4816717Y-19791782D01*
X4816717Y-19791782D02*
X4826241Y-19782258D01*
X4826241Y-19782258D02*
X4845289Y-19772734D01*
X4997670Y-19972734D02*
X4997670Y-19839401D01*
X4997670Y-19858448D02*
X5007194Y-19848924D01*
X5007194Y-19848924D02*
X5026241Y-19839401D01*
X5026241Y-19839401D02*
X5054813Y-19839401D01*
X5054813Y-19839401D02*
X5073860Y-19848924D01*
X5073860Y-19848924D02*
X5083384Y-19867972D01*
X5083384Y-19867972D02*
X5083384Y-19972734D01*
X5083384Y-19867972D02*
X5092908Y-19848924D01*
X5092908Y-19848924D02*
X5111955Y-19839401D01*
X5111955Y-19839401D02*
X5140527Y-19839401D01*
X5140527Y-19839401D02*
X5159575Y-19848924D01*
X5159575Y-19848924D02*
X5169098Y-19867972D01*
X5169098Y-19867972D02*
X5169098Y-19972734D01*
X5264336Y-19972734D02*
X5264336Y-19839401D01*
X5264336Y-19858448D02*
X5273860Y-19848924D01*
X5273860Y-19848924D02*
X5292908Y-19839401D01*
X5292908Y-19839401D02*
X5321479Y-19839401D01*
X5321479Y-19839401D02*
X5340527Y-19848924D01*
X5340527Y-19848924D02*
X5350051Y-19867972D01*
X5350051Y-19867972D02*
X5350051Y-19972734D01*
X5350051Y-19867972D02*
X5359575Y-19848924D01*
X5359575Y-19848924D02*
X5378622Y-19839401D01*
X5378622Y-19839401D02*
X5407194Y-19839401D01*
X5407194Y-19839401D02*
X5426241Y-19848924D01*
X5426241Y-19848924D02*
X5435765Y-19867972D01*
X5435765Y-19867972D02*
X5435765Y-19972734D01*
X5826241Y-19763210D02*
X5654813Y-20020353D01*
X6083384Y-19772734D02*
X6102432Y-19772734D01*
X6102432Y-19772734D02*
X6121479Y-19782258D01*
X6121479Y-19782258D02*
X6131003Y-19791782D01*
X6131003Y-19791782D02*
X6140527Y-19810829D01*
X6140527Y-19810829D02*
X6150051Y-19848924D01*
X6150051Y-19848924D02*
X6150051Y-19896543D01*
X6150051Y-19896543D02*
X6140527Y-19934639D01*
X6140527Y-19934639D02*
X6131003Y-19953686D01*
X6131003Y-19953686D02*
X6121479Y-19963210D01*
X6121479Y-19963210D02*
X6102432Y-19972734D01*
X6102432Y-19972734D02*
X6083384Y-19972734D01*
X6083384Y-19972734D02*
X6064336Y-19963210D01*
X6064336Y-19963210D02*
X6054813Y-19953686D01*
X6054813Y-19953686D02*
X6045289Y-19934639D01*
X6045289Y-19934639D02*
X6035765Y-19896543D01*
X6035765Y-19896543D02*
X6035765Y-19848924D01*
X6035765Y-19848924D02*
X6045289Y-19810829D01*
X6045289Y-19810829D02*
X6054813Y-19791782D01*
X6054813Y-19791782D02*
X6064336Y-19782258D01*
X6064336Y-19782258D02*
X6083384Y-19772734D01*
X6235765Y-19953686D02*
X6245289Y-19963210D01*
X6245289Y-19963210D02*
X6235765Y-19972734D01*
X6235765Y-19972734D02*
X6226241Y-19963210D01*
X6226241Y-19963210D02*
X6235765Y-19953686D01*
X6235765Y-19953686D02*
X6235765Y-19972734D01*
X6369098Y-19772734D02*
X6388146Y-19772734D01*
X6388146Y-19772734D02*
X6407194Y-19782258D01*
X6407194Y-19782258D02*
X6416717Y-19791782D01*
X6416717Y-19791782D02*
X6426241Y-19810829D01*
X6426241Y-19810829D02*
X6435765Y-19848924D01*
X6435765Y-19848924D02*
X6435765Y-19896543D01*
X6435765Y-19896543D02*
X6426241Y-19934639D01*
X6426241Y-19934639D02*
X6416717Y-19953686D01*
X6416717Y-19953686D02*
X6407194Y-19963210D01*
X6407194Y-19963210D02*
X6388146Y-19972734D01*
X6388146Y-19972734D02*
X6369098Y-19972734D01*
X6369098Y-19972734D02*
X6350051Y-19963210D01*
X6350051Y-19963210D02*
X6340527Y-19953686D01*
X6340527Y-19953686D02*
X6331003Y-19934639D01*
X6331003Y-19934639D02*
X6321479Y-19896543D01*
X6321479Y-19896543D02*
X6321479Y-19848924D01*
X6321479Y-19848924D02*
X6331003Y-19810829D01*
X6331003Y-19810829D02*
X6340527Y-19791782D01*
X6340527Y-19791782D02*
X6350051Y-19782258D01*
X6350051Y-19782258D02*
X6369098Y-19772734D01*
X6616717Y-19772734D02*
X6521479Y-19772734D01*
X6521479Y-19772734D02*
X6511956Y-19867972D01*
X6511956Y-19867972D02*
X6521479Y-19858448D01*
X6521479Y-19858448D02*
X6540527Y-19848924D01*
X6540527Y-19848924D02*
X6588146Y-19848924D01*
X6588146Y-19848924D02*
X6607194Y-19858448D01*
X6607194Y-19858448D02*
X6616717Y-19867972D01*
X6616717Y-19867972D02*
X6626241Y-19887020D01*
X6626241Y-19887020D02*
X6626241Y-19934639D01*
X6626241Y-19934639D02*
X6616717Y-19953686D01*
X6616717Y-19953686D02*
X6607194Y-19963210D01*
X6607194Y-19963210D02*
X6588146Y-19972734D01*
X6588146Y-19972734D02*
X6540527Y-19972734D01*
X6540527Y-19972734D02*
X6521479Y-19963210D01*
X6521479Y-19963210D02*
X6511956Y-19953686D01*
X6721479Y-19972734D02*
X6759575Y-19972734D01*
X6759575Y-19972734D02*
X6778622Y-19963210D01*
X6778622Y-19963210D02*
X6788146Y-19953686D01*
X6788146Y-19953686D02*
X6807194Y-19925115D01*
X6807194Y-19925115D02*
X6816717Y-19887020D01*
X6816717Y-19887020D02*
X6816717Y-19810829D01*
X6816717Y-19810829D02*
X6807194Y-19791782D01*
X6807194Y-19791782D02*
X6797670Y-19782258D01*
X6797670Y-19782258D02*
X6778622Y-19772734D01*
X6778622Y-19772734D02*
X6740527Y-19772734D01*
X6740527Y-19772734D02*
X6721479Y-19782258D01*
X6721479Y-19782258D02*
X6711956Y-19791782D01*
X6711956Y-19791782D02*
X6702432Y-19810829D01*
X6702432Y-19810829D02*
X6702432Y-19858448D01*
X6702432Y-19858448D02*
X6711956Y-19877496D01*
X6711956Y-19877496D02*
X6721479Y-19887020D01*
X6721479Y-19887020D02*
X6740527Y-19896543D01*
X6740527Y-19896543D02*
X6778622Y-19896543D01*
X6778622Y-19896543D02*
X6797670Y-19887020D01*
X6797670Y-19887020D02*
X6807194Y-19877496D01*
X6807194Y-19877496D02*
X6816717Y-19858448D01*
X7007194Y-19972734D02*
X6892908Y-19972734D01*
X6950051Y-19972734D02*
X6950051Y-19772734D01*
X6950051Y-19772734D02*
X6931003Y-19801305D01*
X6931003Y-19801305D02*
X6911956Y-19820353D01*
X6911956Y-19820353D02*
X6892908Y-19829877D01*
X7083384Y-19772734D02*
X7083384Y-19810829D01*
X7159575Y-19772734D02*
X7159575Y-19810829D01*
X7454813Y-20048924D02*
X7445289Y-20039401D01*
X7445289Y-20039401D02*
X7426241Y-20010829D01*
X7426241Y-20010829D02*
X7416718Y-19991782D01*
X7416718Y-19991782D02*
X7407194Y-19963210D01*
X7407194Y-19963210D02*
X7397670Y-19915591D01*
X7397670Y-19915591D02*
X7397670Y-19877496D01*
X7397670Y-19877496D02*
X7407194Y-19829877D01*
X7407194Y-19829877D02*
X7416718Y-19801305D01*
X7416718Y-19801305D02*
X7426241Y-19782258D01*
X7426241Y-19782258D02*
X7445289Y-19753686D01*
X7445289Y-19753686D02*
X7454813Y-19744162D01*
X7511956Y-19772734D02*
X7635765Y-19772734D01*
X7635765Y-19772734D02*
X7569098Y-19848924D01*
X7569098Y-19848924D02*
X7597670Y-19848924D01*
X7597670Y-19848924D02*
X7616718Y-19858448D01*
X7616718Y-19858448D02*
X7626241Y-19867972D01*
X7626241Y-19867972D02*
X7635765Y-19887020D01*
X7635765Y-19887020D02*
X7635765Y-19934639D01*
X7635765Y-19934639D02*
X7626241Y-19953686D01*
X7626241Y-19953686D02*
X7616718Y-19963210D01*
X7616718Y-19963210D02*
X7597670Y-19972734D01*
X7597670Y-19972734D02*
X7540527Y-19972734D01*
X7540527Y-19972734D02*
X7521479Y-19963210D01*
X7521479Y-19963210D02*
X7511956Y-19953686D01*
X7711956Y-19791782D02*
X7721479Y-19782258D01*
X7721479Y-19782258D02*
X7740527Y-19772734D01*
X7740527Y-19772734D02*
X7788146Y-19772734D01*
X7788146Y-19772734D02*
X7807194Y-19782258D01*
X7807194Y-19782258D02*
X7816718Y-19791782D01*
X7816718Y-19791782D02*
X7826241Y-19810829D01*
X7826241Y-19810829D02*
X7826241Y-19829877D01*
X7826241Y-19829877D02*
X7816718Y-19858448D01*
X7816718Y-19858448D02*
X7702432Y-19972734D01*
X7702432Y-19972734D02*
X7826241Y-19972734D01*
X8064337Y-19972734D02*
X8064337Y-19772734D01*
X8150051Y-19972734D02*
X8150051Y-19867972D01*
X8150051Y-19867972D02*
X8140527Y-19848924D01*
X8140527Y-19848924D02*
X8121480Y-19839401D01*
X8121480Y-19839401D02*
X8092908Y-19839401D01*
X8092908Y-19839401D02*
X8073860Y-19848924D01*
X8073860Y-19848924D02*
X8064337Y-19858448D01*
X8273860Y-19972734D02*
X8254813Y-19963210D01*
X8254813Y-19963210D02*
X8245289Y-19953686D01*
X8245289Y-19953686D02*
X8235765Y-19934639D01*
X8235765Y-19934639D02*
X8235765Y-19877496D01*
X8235765Y-19877496D02*
X8245289Y-19858448D01*
X8245289Y-19858448D02*
X8254813Y-19848924D01*
X8254813Y-19848924D02*
X8273860Y-19839401D01*
X8273860Y-19839401D02*
X8302432Y-19839401D01*
X8302432Y-19839401D02*
X8321480Y-19848924D01*
X8321480Y-19848924D02*
X8331003Y-19858448D01*
X8331003Y-19858448D02*
X8340527Y-19877496D01*
X8340527Y-19877496D02*
X8340527Y-19934639D01*
X8340527Y-19934639D02*
X8331003Y-19953686D01*
X8331003Y-19953686D02*
X8321480Y-19963210D01*
X8321480Y-19963210D02*
X8302432Y-19972734D01*
X8302432Y-19972734D02*
X8273860Y-19972734D01*
X8454813Y-19972734D02*
X8435765Y-19963210D01*
X8435765Y-19963210D02*
X8426242Y-19944162D01*
X8426242Y-19944162D02*
X8426242Y-19772734D01*
X8607194Y-19963210D02*
X8588146Y-19972734D01*
X8588146Y-19972734D02*
X8550051Y-19972734D01*
X8550051Y-19972734D02*
X8531003Y-19963210D01*
X8531003Y-19963210D02*
X8521480Y-19944162D01*
X8521480Y-19944162D02*
X8521480Y-19867972D01*
X8521480Y-19867972D02*
X8531003Y-19848924D01*
X8531003Y-19848924D02*
X8550051Y-19839401D01*
X8550051Y-19839401D02*
X8588146Y-19839401D01*
X8588146Y-19839401D02*
X8607194Y-19848924D01*
X8607194Y-19848924D02*
X8616718Y-19867972D01*
X8616718Y-19867972D02*
X8616718Y-19887020D01*
X8616718Y-19887020D02*
X8521480Y-19906067D01*
X8692908Y-19963210D02*
X8711956Y-19972734D01*
X8711956Y-19972734D02*
X8750051Y-19972734D01*
X8750051Y-19972734D02*
X8769099Y-19963210D01*
X8769099Y-19963210D02*
X8778623Y-19944162D01*
X8778623Y-19944162D02*
X8778623Y-19934639D01*
X8778623Y-19934639D02*
X8769099Y-19915591D01*
X8769099Y-19915591D02*
X8750051Y-19906067D01*
X8750051Y-19906067D02*
X8721480Y-19906067D01*
X8721480Y-19906067D02*
X8702432Y-19896543D01*
X8702432Y-19896543D02*
X8692908Y-19877496D01*
X8692908Y-19877496D02*
X8692908Y-19867972D01*
X8692908Y-19867972D02*
X8702432Y-19848924D01*
X8702432Y-19848924D02*
X8721480Y-19839401D01*
X8721480Y-19839401D02*
X8750051Y-19839401D01*
X8750051Y-19839401D02*
X8769099Y-19848924D01*
X9016718Y-19896543D02*
X9169099Y-19896543D01*
X9092908Y-19972734D02*
X9092908Y-19820353D01*
X9407194Y-19791782D02*
X9416718Y-19782258D01*
X9416718Y-19782258D02*
X9435765Y-19772734D01*
X9435765Y-19772734D02*
X9483385Y-19772734D01*
X9483385Y-19772734D02*
X9502432Y-19782258D01*
X9502432Y-19782258D02*
X9511956Y-19791782D01*
X9511956Y-19791782D02*
X9521480Y-19810829D01*
X9521480Y-19810829D02*
X9521480Y-19829877D01*
X9521480Y-19829877D02*
X9511956Y-19858448D01*
X9511956Y-19858448D02*
X9397670Y-19972734D01*
X9397670Y-19972734D02*
X9521480Y-19972734D01*
X9750051Y-19963210D02*
X9769099Y-19972734D01*
X9769099Y-19972734D02*
X9807194Y-19972734D01*
X9807194Y-19972734D02*
X9826242Y-19963210D01*
X9826242Y-19963210D02*
X9835766Y-19944162D01*
X9835766Y-19944162D02*
X9835766Y-19934639D01*
X9835766Y-19934639D02*
X9826242Y-19915591D01*
X9826242Y-19915591D02*
X9807194Y-19906067D01*
X9807194Y-19906067D02*
X9778623Y-19906067D01*
X9778623Y-19906067D02*
X9759575Y-19896543D01*
X9759575Y-19896543D02*
X9750051Y-19877496D01*
X9750051Y-19877496D02*
X9750051Y-19867972D01*
X9750051Y-19867972D02*
X9759575Y-19848924D01*
X9759575Y-19848924D02*
X9778623Y-19839401D01*
X9778623Y-19839401D02*
X9807194Y-19839401D01*
X9807194Y-19839401D02*
X9826242Y-19848924D01*
X9950051Y-19972734D02*
X9931004Y-19963210D01*
X9931004Y-19963210D02*
X9921480Y-19944162D01*
X9921480Y-19944162D02*
X9921480Y-19772734D01*
X10054813Y-19972734D02*
X10035766Y-19963210D01*
X10035766Y-19963210D02*
X10026242Y-19953686D01*
X10026242Y-19953686D02*
X10016718Y-19934639D01*
X10016718Y-19934639D02*
X10016718Y-19877496D01*
X10016718Y-19877496D02*
X10026242Y-19858448D01*
X10026242Y-19858448D02*
X10035766Y-19848924D01*
X10035766Y-19848924D02*
X10054813Y-19839401D01*
X10054813Y-19839401D02*
X10083385Y-19839401D01*
X10083385Y-19839401D02*
X10102432Y-19848924D01*
X10102432Y-19848924D02*
X10111956Y-19858448D01*
X10111956Y-19858448D02*
X10121480Y-19877496D01*
X10121480Y-19877496D02*
X10121480Y-19934639D01*
X10121480Y-19934639D02*
X10111956Y-19953686D01*
X10111956Y-19953686D02*
X10102432Y-19963210D01*
X10102432Y-19963210D02*
X10083385Y-19972734D01*
X10083385Y-19972734D02*
X10054813Y-19972734D01*
X10178623Y-19839401D02*
X10254813Y-19839401D01*
X10207194Y-19772734D02*
X10207194Y-19944162D01*
X10207194Y-19944162D02*
X10216718Y-19963210D01*
X10216718Y-19963210D02*
X10235766Y-19972734D01*
X10235766Y-19972734D02*
X10254813Y-19972734D01*
X10311956Y-19963210D02*
X10331004Y-19972734D01*
X10331004Y-19972734D02*
X10369099Y-19972734D01*
X10369099Y-19972734D02*
X10388147Y-19963210D01*
X10388147Y-19963210D02*
X10397670Y-19944162D01*
X10397670Y-19944162D02*
X10397670Y-19934639D01*
X10397670Y-19934639D02*
X10388147Y-19915591D01*
X10388147Y-19915591D02*
X10369099Y-19906067D01*
X10369099Y-19906067D02*
X10340527Y-19906067D01*
X10340527Y-19906067D02*
X10321480Y-19896543D01*
X10321480Y-19896543D02*
X10311956Y-19877496D01*
X10311956Y-19877496D02*
X10311956Y-19867972D01*
X10311956Y-19867972D02*
X10321480Y-19848924D01*
X10321480Y-19848924D02*
X10340527Y-19839401D01*
X10340527Y-19839401D02*
X10369099Y-19839401D01*
X10369099Y-19839401D02*
X10388147Y-19848924D01*
X10464337Y-20048924D02*
X10473861Y-20039401D01*
X10473861Y-20039401D02*
X10492908Y-20010829D01*
X10492908Y-20010829D02*
X10502432Y-19991782D01*
X10502432Y-19991782D02*
X10511956Y-19963210D01*
X10511956Y-19963210D02*
X10521480Y-19915591D01*
X10521480Y-19915591D02*
X10521480Y-19877496D01*
X10521480Y-19877496D02*
X10511956Y-19829877D01*
X10511956Y-19829877D02*
X10502432Y-19801305D01*
X10502432Y-19801305D02*
X10492908Y-19782258D01*
X10492908Y-19782258D02*
X10473861Y-19753686D01*
X10473861Y-19753686D02*
X10464337Y-19744162D01*
X3679750Y-20051250D02*
X3879750Y-20251250D01*
X3879750Y-20051250D02*
X3679750Y-20251250D01*
X3779750Y-20251250D02*
X3879750Y-20151250D01*
X3779750Y-20051250D01*
X3679750Y-20151250D01*
X3779750Y-20251250D01*
X4121479Y-20042734D02*
X4245289Y-20042734D01*
X4245289Y-20042734D02*
X4178622Y-20118924D01*
X4178622Y-20118924D02*
X4207194Y-20118924D01*
X4207194Y-20118924D02*
X4226241Y-20128448D01*
X4226241Y-20128448D02*
X4235765Y-20137972D01*
X4235765Y-20137972D02*
X4245289Y-20157020D01*
X4245289Y-20157020D02*
X4245289Y-20204639D01*
X4245289Y-20204639D02*
X4235765Y-20223686D01*
X4235765Y-20223686D02*
X4226241Y-20233210D01*
X4226241Y-20233210D02*
X4207194Y-20242734D01*
X4207194Y-20242734D02*
X4150051Y-20242734D01*
X4150051Y-20242734D02*
X4131003Y-20233210D01*
X4131003Y-20233210D02*
X4121479Y-20223686D01*
X4331003Y-20223686D02*
X4340527Y-20233210D01*
X4340527Y-20233210D02*
X4331003Y-20242734D01*
X4331003Y-20242734D02*
X4321479Y-20233210D01*
X4321479Y-20233210D02*
X4331003Y-20223686D01*
X4331003Y-20223686D02*
X4331003Y-20242734D01*
X4416717Y-20061782D02*
X4426241Y-20052258D01*
X4426241Y-20052258D02*
X4445289Y-20042734D01*
X4445289Y-20042734D02*
X4492908Y-20042734D01*
X4492908Y-20042734D02*
X4511955Y-20052258D01*
X4511955Y-20052258D02*
X4521479Y-20061782D01*
X4521479Y-20061782D02*
X4531003Y-20080829D01*
X4531003Y-20080829D02*
X4531003Y-20099877D01*
X4531003Y-20099877D02*
X4521479Y-20128448D01*
X4521479Y-20128448D02*
X4407194Y-20242734D01*
X4407194Y-20242734D02*
X4531003Y-20242734D01*
X4654813Y-20042734D02*
X4673860Y-20042734D01*
X4673860Y-20042734D02*
X4692908Y-20052258D01*
X4692908Y-20052258D02*
X4702432Y-20061782D01*
X4702432Y-20061782D02*
X4711955Y-20080829D01*
X4711955Y-20080829D02*
X4721479Y-20118924D01*
X4721479Y-20118924D02*
X4721479Y-20166543D01*
X4721479Y-20166543D02*
X4711955Y-20204639D01*
X4711955Y-20204639D02*
X4702432Y-20223686D01*
X4702432Y-20223686D02*
X4692908Y-20233210D01*
X4692908Y-20233210D02*
X4673860Y-20242734D01*
X4673860Y-20242734D02*
X4654813Y-20242734D01*
X4654813Y-20242734D02*
X4635765Y-20233210D01*
X4635765Y-20233210D02*
X4626241Y-20223686D01*
X4626241Y-20223686D02*
X4616717Y-20204639D01*
X4616717Y-20204639D02*
X4607194Y-20166543D01*
X4607194Y-20166543D02*
X4607194Y-20118924D01*
X4607194Y-20118924D02*
X4616717Y-20080829D01*
X4616717Y-20080829D02*
X4626241Y-20061782D01*
X4626241Y-20061782D02*
X4635765Y-20052258D01*
X4635765Y-20052258D02*
X4654813Y-20042734D01*
X4845289Y-20042734D02*
X4864336Y-20042734D01*
X4864336Y-20042734D02*
X4883384Y-20052258D01*
X4883384Y-20052258D02*
X4892908Y-20061782D01*
X4892908Y-20061782D02*
X4902432Y-20080829D01*
X4902432Y-20080829D02*
X4911955Y-20118924D01*
X4911955Y-20118924D02*
X4911955Y-20166543D01*
X4911955Y-20166543D02*
X4902432Y-20204639D01*
X4902432Y-20204639D02*
X4892908Y-20223686D01*
X4892908Y-20223686D02*
X4883384Y-20233210D01*
X4883384Y-20233210D02*
X4864336Y-20242734D01*
X4864336Y-20242734D02*
X4845289Y-20242734D01*
X4845289Y-20242734D02*
X4826241Y-20233210D01*
X4826241Y-20233210D02*
X4816717Y-20223686D01*
X4816717Y-20223686D02*
X4807194Y-20204639D01*
X4807194Y-20204639D02*
X4797670Y-20166543D01*
X4797670Y-20166543D02*
X4797670Y-20118924D01*
X4797670Y-20118924D02*
X4807194Y-20080829D01*
X4807194Y-20080829D02*
X4816717Y-20061782D01*
X4816717Y-20061782D02*
X4826241Y-20052258D01*
X4826241Y-20052258D02*
X4845289Y-20042734D01*
X4997670Y-20242734D02*
X4997670Y-20109401D01*
X4997670Y-20128448D02*
X5007194Y-20118924D01*
X5007194Y-20118924D02*
X5026241Y-20109401D01*
X5026241Y-20109401D02*
X5054813Y-20109401D01*
X5054813Y-20109401D02*
X5073860Y-20118924D01*
X5073860Y-20118924D02*
X5083384Y-20137972D01*
X5083384Y-20137972D02*
X5083384Y-20242734D01*
X5083384Y-20137972D02*
X5092908Y-20118924D01*
X5092908Y-20118924D02*
X5111955Y-20109401D01*
X5111955Y-20109401D02*
X5140527Y-20109401D01*
X5140527Y-20109401D02*
X5159575Y-20118924D01*
X5159575Y-20118924D02*
X5169098Y-20137972D01*
X5169098Y-20137972D02*
X5169098Y-20242734D01*
X5264336Y-20242734D02*
X5264336Y-20109401D01*
X5264336Y-20128448D02*
X5273860Y-20118924D01*
X5273860Y-20118924D02*
X5292908Y-20109401D01*
X5292908Y-20109401D02*
X5321479Y-20109401D01*
X5321479Y-20109401D02*
X5340527Y-20118924D01*
X5340527Y-20118924D02*
X5350051Y-20137972D01*
X5350051Y-20137972D02*
X5350051Y-20242734D01*
X5350051Y-20137972D02*
X5359575Y-20118924D01*
X5359575Y-20118924D02*
X5378622Y-20109401D01*
X5378622Y-20109401D02*
X5407194Y-20109401D01*
X5407194Y-20109401D02*
X5426241Y-20118924D01*
X5426241Y-20118924D02*
X5435765Y-20137972D01*
X5435765Y-20137972D02*
X5435765Y-20242734D01*
X5826241Y-20033210D02*
X5654813Y-20290353D01*
X6083384Y-20042734D02*
X6102432Y-20042734D01*
X6102432Y-20042734D02*
X6121479Y-20052258D01*
X6121479Y-20052258D02*
X6131003Y-20061782D01*
X6131003Y-20061782D02*
X6140527Y-20080829D01*
X6140527Y-20080829D02*
X6150051Y-20118924D01*
X6150051Y-20118924D02*
X6150051Y-20166543D01*
X6150051Y-20166543D02*
X6140527Y-20204639D01*
X6140527Y-20204639D02*
X6131003Y-20223686D01*
X6131003Y-20223686D02*
X6121479Y-20233210D01*
X6121479Y-20233210D02*
X6102432Y-20242734D01*
X6102432Y-20242734D02*
X6083384Y-20242734D01*
X6083384Y-20242734D02*
X6064336Y-20233210D01*
X6064336Y-20233210D02*
X6054813Y-20223686D01*
X6054813Y-20223686D02*
X6045289Y-20204639D01*
X6045289Y-20204639D02*
X6035765Y-20166543D01*
X6035765Y-20166543D02*
X6035765Y-20118924D01*
X6035765Y-20118924D02*
X6045289Y-20080829D01*
X6045289Y-20080829D02*
X6054813Y-20061782D01*
X6054813Y-20061782D02*
X6064336Y-20052258D01*
X6064336Y-20052258D02*
X6083384Y-20042734D01*
X6235765Y-20223686D02*
X6245289Y-20233210D01*
X6245289Y-20233210D02*
X6235765Y-20242734D01*
X6235765Y-20242734D02*
X6226241Y-20233210D01*
X6226241Y-20233210D02*
X6235765Y-20223686D01*
X6235765Y-20223686D02*
X6235765Y-20242734D01*
X6435765Y-20242734D02*
X6321479Y-20242734D01*
X6378622Y-20242734D02*
X6378622Y-20042734D01*
X6378622Y-20042734D02*
X6359575Y-20071305D01*
X6359575Y-20071305D02*
X6340527Y-20090353D01*
X6340527Y-20090353D02*
X6321479Y-20099877D01*
X6511956Y-20061782D02*
X6521479Y-20052258D01*
X6521479Y-20052258D02*
X6540527Y-20042734D01*
X6540527Y-20042734D02*
X6588146Y-20042734D01*
X6588146Y-20042734D02*
X6607194Y-20052258D01*
X6607194Y-20052258D02*
X6616717Y-20061782D01*
X6616717Y-20061782D02*
X6626241Y-20080829D01*
X6626241Y-20080829D02*
X6626241Y-20099877D01*
X6626241Y-20099877D02*
X6616717Y-20128448D01*
X6616717Y-20128448D02*
X6502432Y-20242734D01*
X6502432Y-20242734D02*
X6626241Y-20242734D01*
X6797670Y-20042734D02*
X6759575Y-20042734D01*
X6759575Y-20042734D02*
X6740527Y-20052258D01*
X6740527Y-20052258D02*
X6731003Y-20061782D01*
X6731003Y-20061782D02*
X6711956Y-20090353D01*
X6711956Y-20090353D02*
X6702432Y-20128448D01*
X6702432Y-20128448D02*
X6702432Y-20204639D01*
X6702432Y-20204639D02*
X6711956Y-20223686D01*
X6711956Y-20223686D02*
X6721479Y-20233210D01*
X6721479Y-20233210D02*
X6740527Y-20242734D01*
X6740527Y-20242734D02*
X6778622Y-20242734D01*
X6778622Y-20242734D02*
X6797670Y-20233210D01*
X6797670Y-20233210D02*
X6807194Y-20223686D01*
X6807194Y-20223686D02*
X6816717Y-20204639D01*
X6816717Y-20204639D02*
X6816717Y-20157020D01*
X6816717Y-20157020D02*
X6807194Y-20137972D01*
X6807194Y-20137972D02*
X6797670Y-20128448D01*
X6797670Y-20128448D02*
X6778622Y-20118924D01*
X6778622Y-20118924D02*
X6740527Y-20118924D01*
X6740527Y-20118924D02*
X6721479Y-20128448D01*
X6721479Y-20128448D02*
X6711956Y-20137972D01*
X6711956Y-20137972D02*
X6702432Y-20157020D01*
X6940527Y-20042734D02*
X6959575Y-20042734D01*
X6959575Y-20042734D02*
X6978622Y-20052258D01*
X6978622Y-20052258D02*
X6988146Y-20061782D01*
X6988146Y-20061782D02*
X6997670Y-20080829D01*
X6997670Y-20080829D02*
X7007194Y-20118924D01*
X7007194Y-20118924D02*
X7007194Y-20166543D01*
X7007194Y-20166543D02*
X6997670Y-20204639D01*
X6997670Y-20204639D02*
X6988146Y-20223686D01*
X6988146Y-20223686D02*
X6978622Y-20233210D01*
X6978622Y-20233210D02*
X6959575Y-20242734D01*
X6959575Y-20242734D02*
X6940527Y-20242734D01*
X6940527Y-20242734D02*
X6921479Y-20233210D01*
X6921479Y-20233210D02*
X6911956Y-20223686D01*
X6911956Y-20223686D02*
X6902432Y-20204639D01*
X6902432Y-20204639D02*
X6892908Y-20166543D01*
X6892908Y-20166543D02*
X6892908Y-20118924D01*
X6892908Y-20118924D02*
X6902432Y-20080829D01*
X6902432Y-20080829D02*
X6911956Y-20061782D01*
X6911956Y-20061782D02*
X6921479Y-20052258D01*
X6921479Y-20052258D02*
X6940527Y-20042734D01*
X7083384Y-20042734D02*
X7083384Y-20080829D01*
X7159575Y-20042734D02*
X7159575Y-20080829D01*
X7454813Y-20318924D02*
X7445289Y-20309401D01*
X7445289Y-20309401D02*
X7426241Y-20280829D01*
X7426241Y-20280829D02*
X7416718Y-20261782D01*
X7416718Y-20261782D02*
X7407194Y-20233210D01*
X7407194Y-20233210D02*
X7397670Y-20185591D01*
X7397670Y-20185591D02*
X7397670Y-20147496D01*
X7397670Y-20147496D02*
X7407194Y-20099877D01*
X7407194Y-20099877D02*
X7416718Y-20071305D01*
X7416718Y-20071305D02*
X7426241Y-20052258D01*
X7426241Y-20052258D02*
X7445289Y-20023686D01*
X7445289Y-20023686D02*
X7454813Y-20014162D01*
X7616718Y-20109401D02*
X7616718Y-20242734D01*
X7569098Y-20033210D02*
X7521479Y-20176067D01*
X7521479Y-20176067D02*
X7645289Y-20176067D01*
X7873860Y-20242734D02*
X7873860Y-20042734D01*
X7959575Y-20242734D02*
X7959575Y-20137972D01*
X7959575Y-20137972D02*
X7950051Y-20118924D01*
X7950051Y-20118924D02*
X7931003Y-20109401D01*
X7931003Y-20109401D02*
X7902432Y-20109401D01*
X7902432Y-20109401D02*
X7883384Y-20118924D01*
X7883384Y-20118924D02*
X7873860Y-20128448D01*
X8083384Y-20242734D02*
X8064337Y-20233210D01*
X8064337Y-20233210D02*
X8054813Y-20223686D01*
X8054813Y-20223686D02*
X8045289Y-20204639D01*
X8045289Y-20204639D02*
X8045289Y-20147496D01*
X8045289Y-20147496D02*
X8054813Y-20128448D01*
X8054813Y-20128448D02*
X8064337Y-20118924D01*
X8064337Y-20118924D02*
X8083384Y-20109401D01*
X8083384Y-20109401D02*
X8111956Y-20109401D01*
X8111956Y-20109401D02*
X8131003Y-20118924D01*
X8131003Y-20118924D02*
X8140527Y-20128448D01*
X8140527Y-20128448D02*
X8150051Y-20147496D01*
X8150051Y-20147496D02*
X8150051Y-20204639D01*
X8150051Y-20204639D02*
X8140527Y-20223686D01*
X8140527Y-20223686D02*
X8131003Y-20233210D01*
X8131003Y-20233210D02*
X8111956Y-20242734D01*
X8111956Y-20242734D02*
X8083384Y-20242734D01*
X8264337Y-20242734D02*
X8245289Y-20233210D01*
X8245289Y-20233210D02*
X8235765Y-20214162D01*
X8235765Y-20214162D02*
X8235765Y-20042734D01*
X8416718Y-20233210D02*
X8397670Y-20242734D01*
X8397670Y-20242734D02*
X8359575Y-20242734D01*
X8359575Y-20242734D02*
X8340527Y-20233210D01*
X8340527Y-20233210D02*
X8331003Y-20214162D01*
X8331003Y-20214162D02*
X8331003Y-20137972D01*
X8331003Y-20137972D02*
X8340527Y-20118924D01*
X8340527Y-20118924D02*
X8359575Y-20109401D01*
X8359575Y-20109401D02*
X8397670Y-20109401D01*
X8397670Y-20109401D02*
X8416718Y-20118924D01*
X8416718Y-20118924D02*
X8426242Y-20137972D01*
X8426242Y-20137972D02*
X8426242Y-20157020D01*
X8426242Y-20157020D02*
X8331003Y-20176067D01*
X8502432Y-20233210D02*
X8521480Y-20242734D01*
X8521480Y-20242734D02*
X8559575Y-20242734D01*
X8559575Y-20242734D02*
X8578623Y-20233210D01*
X8578623Y-20233210D02*
X8588146Y-20214162D01*
X8588146Y-20214162D02*
X8588146Y-20204639D01*
X8588146Y-20204639D02*
X8578623Y-20185591D01*
X8578623Y-20185591D02*
X8559575Y-20176067D01*
X8559575Y-20176067D02*
X8531003Y-20176067D01*
X8531003Y-20176067D02*
X8511956Y-20166543D01*
X8511956Y-20166543D02*
X8502432Y-20147496D01*
X8502432Y-20147496D02*
X8502432Y-20137972D01*
X8502432Y-20137972D02*
X8511956Y-20118924D01*
X8511956Y-20118924D02*
X8531003Y-20109401D01*
X8531003Y-20109401D02*
X8559575Y-20109401D01*
X8559575Y-20109401D02*
X8578623Y-20118924D01*
X8654813Y-20318924D02*
X8664337Y-20309401D01*
X8664337Y-20309401D02*
X8683384Y-20280829D01*
X8683384Y-20280829D02*
X8692908Y-20261782D01*
X8692908Y-20261782D02*
X8702432Y-20233210D01*
X8702432Y-20233210D02*
X8711956Y-20185591D01*
X8711956Y-20185591D02*
X8711956Y-20147496D01*
X8711956Y-20147496D02*
X8702432Y-20099877D01*
X8702432Y-20099877D02*
X8692908Y-20071305D01*
X8692908Y-20071305D02*
X8683384Y-20052258D01*
X8683384Y-20052258D02*
X8664337Y-20023686D01*
X8664337Y-20023686D02*
X8654813Y-20014162D01*
M02*
