%TF.GenerationSoftware,KiCad,Pcbnew,8.0.6*%
%TF.CreationDate,2024-10-22T00:24:14-04:00*%
%TF.ProjectId,Hackpad,4861636b-7061-4642-9e6b-696361645f70,rev?*%
%TF.SameCoordinates,Original*%
%TF.FileFunction,Copper,L1,Top*%
%TF.FilePolarity,Positive*%
%FSLAX46Y46*%
G04 Gerber Fmt 4.6, Leading zero omitted, Abs format (unit mm)*
G04 Created by KiCad (PCBNEW 8.0.6) date 2024-10-22 00:24:14*
%MOMM*%
%LPD*%
G01*
G04 APERTURE LIST*
%TA.AperFunction,ComponentPad*%
%ADD10O,3.700000X1.700000*%
%TD*%
%TA.AperFunction,ComponentPad*%
%ADD11O,3.600000X1.700000*%
%TD*%
%TA.AperFunction,ComponentPad*%
%ADD12R,3.500000X1.700000*%
%TD*%
%TA.AperFunction,ComponentPad*%
%ADD13C,2.200000*%
%TD*%
%TA.AperFunction,ComponentPad*%
%ADD14O,1.600000X1.600000*%
%TD*%
%TA.AperFunction,ComponentPad*%
%ADD15C,1.600000*%
%TD*%
%TA.AperFunction,ComponentPad*%
%ADD16R,1.600000X1.600000*%
%TD*%
%TA.AperFunction,Conductor*%
%ADD17C,0.200000*%
%TD*%
G04 APERTURE END LIST*
D10*
%TO.P,U1,14,5V*%
%TO.N,unconnected-(U1-5V-Pad14)*%
X107750000Y-68000000D03*
%TO.P,U1,13,GND*%
%TO.N,GND*%
X107750000Y-70540000D03*
%TO.P,U1,12,3V3*%
%TO.N,unconnected-(U1-3V3-Pad12)*%
X107750000Y-73080000D03*
%TO.P,U1,11,PA6_A10_D10_MOSI*%
%TO.N,Net-(U1-PA6_A10_D10_MOSI)*%
X107750000Y-75620000D03*
D11*
%TO.P,U1,10,PA5_A9_D9_MISO*%
%TO.N,Net-(U1-PA5_A9_D9_MISO)*%
X107750000Y-78160000D03*
%TO.P,U1,9,PA7_A8_D8_SCK*%
%TO.N,Net-(U1-PA7_A8_D8_SCK)*%
X107750000Y-80700000D03*
%TO.P,U1,8,PB09_A7_D7_RX*%
%TO.N,unconnected-(U1-PB09_A7_D7_RX-Pad8)*%
X107750000Y-83240000D03*
%TO.P,U1,7,PB08_A6_D6_TX*%
%TO.N,unconnected-(U1-PB08_A6_D6_TX-Pad7)*%
X90500000Y-83240000D03*
%TO.P,U1,6,PA9_A5_D5_SCL*%
%TO.N,unconnected-(U1-PA9_A5_D5_SCL-Pad6)*%
X90500000Y-80700000D03*
%TO.P,U1,5,PA8_A4_D4_SDA*%
%TO.N,unconnected-(U1-PA8_A4_D4_SDA-Pad5)*%
X90500000Y-78160000D03*
%TO.P,U1,4,PA11_A3_D3*%
%TO.N,unconnected-(U1-PA11_A3_D3-Pad4)*%
X90500000Y-75620000D03*
%TO.P,U1,3,PA10_A2_D2*%
%TO.N,unconnected-(U1-PA10_A2_D2-Pad3)*%
X90500000Y-73080000D03*
%TO.P,U1,2,PA4_A1_D1*%
%TO.N,unconnected-(U1-PA4_A1_D1-Pad2)*%
X90500000Y-70540000D03*
D12*
%TO.P,U1,1,PA02_A0_D0*%
%TO.N,unconnected-(U1-PA02_A0_D0-Pad1)*%
X90500000Y-68000000D03*
%TD*%
D13*
%TO.P,SW3,2,2*%
%TO.N,Net-(D4-A)*%
X95266000Y-103817470D03*
%TO.P,SW3,1,1*%
%TO.N,Net-(R2-Pad2)*%
X101616000Y-101277470D03*
%TD*%
%TO.P,SW2,2,2*%
%TO.N,Net-(D5-A)*%
X95266000Y-88727470D03*
%TO.P,SW2,1,1*%
%TO.N,Net-(R3-Pad2)*%
X101616000Y-86187470D03*
%TD*%
%TO.P,SW1,2,2*%
%TO.N,Net-(D1-A)*%
X95266000Y-73637470D03*
%TO.P,SW1,1,1*%
%TO.N,Net-(R1-Pad1)*%
X101616000Y-71097470D03*
%TD*%
D14*
%TO.P,R3,2*%
%TO.N,Net-(R3-Pad2)*%
X111750000Y-95310000D03*
D15*
%TO.P,R3,1*%
%TO.N,Net-(U1-PA5_A9_D9_MISO)*%
X111750000Y-87690000D03*
%TD*%
%TO.P,R2,1*%
%TO.N,Net-(U1-PA7_A8_D8_SCK)*%
X111750000Y-102880000D03*
D14*
%TO.P,R2,2*%
%TO.N,Net-(R2-Pad2)*%
X111750000Y-110500000D03*
%TD*%
D15*
%TO.P,R1,1*%
%TO.N,Net-(R1-Pad1)*%
X111750000Y-71440000D03*
D14*
%TO.P,R1,2*%
%TO.N,Net-(U1-PA6_A10_D10_MOSI)*%
X111750000Y-79060000D03*
%TD*%
D16*
%TO.P,D5,1,K*%
%TO.N,GND*%
X114750000Y-84800000D03*
D14*
%TO.P,D5,2,A*%
%TO.N,Net-(D5-A)*%
X114750000Y-97500000D03*
%TD*%
D16*
%TO.P,D4,1,K*%
%TO.N,GND*%
X114750000Y-100150000D03*
D14*
%TO.P,D4,2,A*%
%TO.N,Net-(D4-A)*%
X114750000Y-112850000D03*
%TD*%
D16*
%TO.P,D1,1,K*%
%TO.N,GND*%
X114750000Y-68650000D03*
D14*
%TO.P,D1,2,A*%
%TO.N,Net-(D1-A)*%
X114750000Y-81350000D03*
%TD*%
D17*
%TO.N,GND*%
X116000000Y-98900000D02*
X116000000Y-86050000D01*
X114750000Y-100150000D02*
X116000000Y-98900000D01*
X116000000Y-86050000D02*
X114750000Y-84800000D01*
X113650000Y-83700000D02*
X114750000Y-84800000D01*
X107836346Y-70540000D02*
X113650000Y-76353654D01*
X113650000Y-76353654D02*
X113650000Y-83700000D01*
X106750000Y-70540000D02*
X107836346Y-70540000D01*
X115850000Y-83700000D02*
X114750000Y-84800000D01*
X115850000Y-69750000D02*
X115850000Y-83700000D01*
X114750000Y-68650000D02*
X115850000Y-69750000D01*
X112984365Y-68650000D02*
X114750000Y-68650000D01*
X111094365Y-70540000D02*
X112984365Y-68650000D01*
X106750000Y-70540000D02*
X111094365Y-70540000D01*
%TD*%
M02*
