%TF.GenerationSoftware,KiCad,Pcbnew,8.0.6*%
%TF.CreationDate,2024-10-22T00:24:15-04:00*%
%TF.ProjectId,Hackpad,4861636b-7061-4642-9e6b-696361645f70,rev?*%
%TF.SameCoordinates,Original*%
%TF.FileFunction,Soldermask,Bot*%
%TF.FilePolarity,Negative*%
%FSLAX46Y46*%
G04 Gerber Fmt 4.6, Leading zero omitted, Abs format (unit mm)*
G04 Created by KiCad (PCBNEW 8.0.6) date 2024-10-22 00:24:15*
%MOMM*%
%LPD*%
G01*
G04 APERTURE LIST*
%ADD10O,3.700000X1.700000*%
%ADD11O,3.600000X1.700000*%
%ADD12R,3.500000X1.700000*%
%ADD13C,2.200000*%
%ADD14C,1.700000*%
%ADD15C,4.000000*%
%ADD16O,1.600000X1.600000*%
%ADD17C,1.600000*%
%ADD18R,1.600000X1.600000*%
G04 APERTURE END LIST*
D10*
%TO.C,U1*%
X107750000Y-68000000D03*
X107750000Y-70540000D03*
X107750000Y-73080000D03*
X107750000Y-75620000D03*
D11*
X107750000Y-78160000D03*
X107750000Y-80700000D03*
X107750000Y-83240000D03*
X90500000Y-83240000D03*
X90500000Y-80700000D03*
X90500000Y-78160000D03*
X90500000Y-75620000D03*
X90500000Y-73080000D03*
X90500000Y-70540000D03*
D12*
X90500000Y-68000000D03*
%TD*%
D13*
%TO.C,SW3*%
X95266000Y-103817470D03*
X101616000Y-101277470D03*
D14*
X104156000Y-106357470D03*
D15*
X99076000Y-106357470D03*
D14*
X93996000Y-106357470D03*
%TD*%
D13*
%TO.C,SW2*%
X95266000Y-88727470D03*
X101616000Y-86187470D03*
D14*
X104156000Y-91267470D03*
D15*
X99076000Y-91267470D03*
D14*
X93996000Y-91267470D03*
%TD*%
D13*
%TO.C,SW1*%
X95266000Y-73637470D03*
X101616000Y-71097470D03*
D14*
X104156000Y-76177470D03*
D15*
X99076000Y-76177470D03*
D14*
X93996000Y-76177470D03*
%TD*%
D16*
%TO.C,R3*%
X111750000Y-95310000D03*
D17*
X111750000Y-87690000D03*
%TD*%
%TO.C,R2*%
X111750000Y-102880000D03*
D16*
X111750000Y-110500000D03*
%TD*%
D17*
%TO.C,R1*%
X111750000Y-71440000D03*
D16*
X111750000Y-79060000D03*
%TD*%
D18*
%TO.C,D5*%
X114750000Y-84800000D03*
D16*
X114750000Y-97500000D03*
%TD*%
D18*
%TO.C,D4*%
X114750000Y-100150000D03*
D16*
X114750000Y-112850000D03*
%TD*%
D18*
%TO.C,D1*%
X114750000Y-68650000D03*
D16*
X114750000Y-81350000D03*
%TD*%
M02*
