  0
SECTION
  2
HEADER
  9
$ANGBASE
  50
0.0
  9
$ANGDIR
  70
1
  9
$MEASUREMENT
  70
0
  0
ENDSEC
  0
SECTION
  2
TABLES
  0
TABLE
  2
LTYPE
  70
4
  0
LTYPE
  5
40F
  2
CONTINUOUS
  70
0
  3
Solid line
  72
65
  73
0
  40
0.0
  0
LTYPE
  5
410
  2
DASHDOT
 70
0
  3
Dash Dot ____ _ ____ _
 72
65
 73
4
 40
2.0
 49
1.25
 49
-0.25
 49
0.25
 49
-0.25
  0
LTYPE
  5
411
  2
DASHED
 70
0
  3
Dashed __ __ __ __ __
 72
65
 73
2
 40
0.75
 49
0.5
 49
-0.25
  0
LTYPE
  5
43B
  2
DOTTED
 70
0
  3
Dotted .  .  .  .
 72
65
 73
2
 40
0.2
 49
0.0
 49
-0.2
  0
ENDTAB
  0
TABLE
  2
STYLE
  70
4
  0
STYLE
  2
KICAD
  70
0
  40
0
  41
1
  42
1
  50
0
  71
0
  3
isocp.shx
  0
STYLE
  2
KICADB
  70
0
  40
0
  41
1
  42
1
  50
0
  71
0
  3
isocp.shx
  0
STYLE
  2
KICADI
  70
0
  40
0
  41
1
  42
1
  50
15
  71
0
  3
isocp.shx
  0
STYLE
  2
KICADBI
  70
0
  40
0
  41
1
  42
1
  50
15
  71
0
  3
isocp.shx
  0
ENDTAB
  0
TABLE
  2
LAYER
  70
1
  0
LAYER
  2
BLACK
  70
0
  62
7
  6
CONTINUOUS
  0
ENDTAB
  0
ENDSEC
  0
SECTION
  2
ENTITIES
0
LINE
8
BLACK
6
CONTINUOUS
10
11.8484251968503926
20
-1.9651574803149605
11
11.8588313385826769
21
-1.965839527559055
0
LINE
8
BLACK
6
CONTINUOUS
10
11.8588313385826769
20
-1.965839527559055
11
11.869059409448818
21
-1.9678740157480314
0
LINE
8
BLACK
6
CONTINUOUS
10
11.869059409448818
20
-1.9678740157480314
11
11.878934409448819
21
-1.9712261417322834
0
LINE
8
BLACK
6
CONTINUOUS
10
11.878934409448819
20
-1.9712261417322834
11
11.8882874015748037
21
-1.9758385433070866
0
LINE
8
BLACK
6
CONTINUOUS
10
11.8882874015748037
20
-1.9758385433070866
11
11.8969583464566924
21
-1.9816322440944882
0
LINE
8
BLACK
6
CONTINUOUS
10
11.8969583464566924
20
-1.9816322440944882
11
11.904798858267716
21
-1.9885082283464566
0
LINE
8
BLACK
6
CONTINUOUS
10
11.904798858267716
20
-1.9885082283464566
11
11.9116748425196839
21
-1.9963487401574802
0
LINE
8
BLACK
6
CONTINUOUS
10
11.9116748425196839
20
-1.9963487401574802
11
11.9174685433070859
21
-2.00501968503937
0
LINE
8
BLACK
6
CONTINUOUS
10
11.9174685433070859
20
-2.00501968503937
11
11.9220809448818894
21
-2.0143726771653543
0
LINE
8
BLACK
6
CONTINUOUS
10
11.9220809448818894
20
-2.0143726771653543
11
11.9254330708661413
21
-2.0242476771653544
0
LINE
8
BLACK
6
CONTINUOUS
10
11.9254330708661413
20
-2.0242476771653544
11
11.9274675590551187
21
-2.0344757480314959
0
LINE
8
BLACK
6
CONTINUOUS
10
11.9274675590551187
20
-2.0344757480314959
11
11.9280850787401569
21
-2.0438976377952756
0
LINE
8
BLACK
6
CONTINUOUS
10
11.9280850787401569
20
-2.0438976377952756
11
12.5590551181102352
21
-2.0438976377952756
0
LINE
8
BLACK
6
CONTINUOUS
10
12.5590551181102352
20
-2.0438976377952756
11
12.5694612598425195
21
-2.0445796850393698
0
LINE
8
BLACK
6
CONTINUOUS
10
12.5694612598425195
20
-2.0445796850393698
11
12.5796893307086606
21
-2.0466141732283463
0
LINE
8
BLACK
6
CONTINUOUS
10
12.5796893307086606
20
-2.0466141732283463
11
12.5895643307086615
21
-2.0499662992125982
0
LINE
8
BLACK
6
CONTINUOUS
10
12.5895643307086615
20
-2.0499662992125982
11
12.5989173228346463
21
-2.0545787007874017
0
LINE
8
BLACK
6
CONTINUOUS
10
12.5989173228346463
20
-2.0545787007874017
11
12.607588267716535
21
-2.0603724015748033
0
LINE
8
BLACK
6
CONTINUOUS
10
12.607588267716535
20
-2.0603724015748033
11
12.6154287795275586
21
-2.0672483858267716
0
LINE
8
BLACK
6
CONTINUOUS
10
12.6154287795275586
20
-2.0672483858267716
11
12.6223047637795265
21
-2.0750888976377952
0
LINE
8
BLACK
6
CONTINUOUS
10
12.6223047637795265
20
-2.0750888976377952
11
12.6280984645669285
21
-2.0837598425196848
0
LINE
8
BLACK
6
CONTINUOUS
10
12.6280984645669285
20
-2.0837598425196848
11
12.632710866141732
21
-2.0931128346456691
0
LINE
8
BLACK
6
CONTINUOUS
10
12.632710866141732
20
-2.0931128346456691
11
12.6360629921259839
21
-2.1029878346456692
0
LINE
8
BLACK
6
CONTINUOUS
10
12.6360629921259839
20
-2.1029878346456692
11
12.6380974803149595
21
-2.1132159055118112
0
LINE
8
BLACK
6
CONTINUOUS
10
12.6380974803149595
20
-2.1132159055118112
11
12.6387795275590555
21
-2.1236220472440945
0
LINE
8
BLACK
6
CONTINUOUS
10
12.6387795275590555
20
-2.1236220472440945
11
12.6387795275590555
21
-2.1620078740157478
0
LINE
8
BLACK
6
CONTINUOUS
10
12.6387795275590555
20
-2.1620078740157478
11
14.0972440944881878
21
-2.1620078740157478
0
LINE
8
BLACK
6
CONTINUOUS
10
14.0972440944881878
20
-2.1620078740157478
11
14.1076502362204721
21
-2.1626899212598425
0
LINE
8
BLACK
6
CONTINUOUS
10
14.1076502362204721
20
-2.1626899212598425
11
14.1178783070866132
21
-2.1647244094488189
0
LINE
8
BLACK
6
CONTINUOUS
10
14.1178783070866132
20
-2.1647244094488189
11
14.1277533070866141
21
-2.1680765354330709
0
LINE
8
BLACK
6
CONTINUOUS
10
14.1277533070866141
20
-2.1680765354330709
11
14.1371062992125989
21
-2.1726889370078739
0
LINE
8
BLACK
6
CONTINUOUS
10
14.1371062992125989
20
-2.1726889370078739
11
14.1457772440944876
21
-2.1784826377952755
0
LINE
8
BLACK
6
CONTINUOUS
10
14.1457772440944876
20
-2.1784826377952755
11
14.1536177559055112
21
-2.1853586220472438
0
LINE
8
BLACK
6
CONTINUOUS
10
14.1536177559055112
20
-2.1853586220472438
11
14.1604937401574809
21
-2.1931991338582675
0
LINE
8
BLACK
6
CONTINUOUS
10
14.1604937401574809
20
-2.1931991338582675
11
14.1662874409448811
21
-2.2018700787401575
0
LINE
8
BLACK
6
CONTINUOUS
10
14.1662874409448811
20
-2.2018700787401575
11
14.1708998425196846
21
-2.2112230708661418
0
LINE
8
BLACK
6
CONTINUOUS
10
14.1708998425196846
20
-2.2112230708661418
11
14.1742519685039365
21
-2.2210980708661419
0
LINE
8
BLACK
6
CONTINUOUS
10
14.1742519685039365
20
-2.2210980708661419
11
14.1762864566929139
21
-2.2313261417322834
0
LINE
8
BLACK
6
CONTINUOUS
10
14.1762864566929139
20
-2.2313261417322834
11
14.1769685039370081
21
-2.2417322834645668
0
LINE
8
BLACK
6
CONTINUOUS
10
14.1769685039370081
20
-2.2417322834645668
11
14.1769685039370081
21
-4.1744094488188974
0
LINE
8
BLACK
6
CONTINUOUS
10
14.1769685039370081
20
-4.1744094488188974
11
14.1762864566929139
21
-4.1848155905511808
0
LINE
8
BLACK
6
CONTINUOUS
10
14.1762864566929139
20
-4.1848155905511808
11
14.1742519685039365
21
-4.1950436614173228
0
LINE
8
BLACK
6
CONTINUOUS
10
14.1742519685039365
20
-4.1950436614173228
11
14.1708998425196846
21
-4.2049186614173228
0
LINE
8
BLACK
6
CONTINUOUS
10
14.1708998425196846
20
-4.2049186614173228
11
14.1662874409448811
21
-4.2142716535433067
0
LINE
8
BLACK
6
CONTINUOUS
10
14.1662874409448811
20
-4.2142716535433067
11
14.1604937401574809
21
-4.2229425984251971
0
LINE
8
BLACK
6
CONTINUOUS
10
14.1604937401574809
20
-4.2229425984251971
11
14.1536177559055112
21
-4.2307831102362208
0
LINE
8
BLACK
6
CONTINUOUS
10
14.1536177559055112
20
-4.2307831102362208
11
14.1457772440944876
21
-4.2376590944881887
0
LINE
8
BLACK
6
CONTINUOUS
10
14.1457772440944876
20
-4.2376590944881887
11
14.1371062992125989
21
-4.2434527952755907
0
LINE
8
BLACK
6
CONTINUOUS
10
14.1371062992125989
20
-4.2434527952755907
11
14.1277533070866141
21
-4.2480651968503933
0
LINE
8
BLACK
6
CONTINUOUS
10
14.1277533070866141
20
-4.2480651968503933
11
14.1178783070866132
21
-4.2514173228346452
0
LINE
8
BLACK
6
CONTINUOUS
10
14.1178783070866132
20
-4.2514173228346452
11
14.1076502362204721
21
-4.2534518110236217
0
LINE
8
BLACK
6
CONTINUOUS
10
14.1076502362204721
20
-4.2534518110236217
11
14.0972440944881878
21
-4.2541338582677168
0
LINE
8
BLACK
6
CONTINUOUS
10
14.0972440944881878
20
-4.2541338582677168
11
11.7196850393700789
21
-4.2541338582677168
0
LINE
8
BLACK
6
CONTINUOUS
10
11.7196850393700789
20
-4.2541338582677168
11
11.7145886614173218
21
-4.2541338582677168
0
LINE
8
BLACK
6
CONTINUOUS
10
11.7145886614173218
20
-4.2541338582677168
11
11.7044830708661411
21
-4.2554642913385825
0
LINE
8
BLACK
6
CONTINUOUS
10
11.7044830708661411
20
-4.2554642913385825
11
11.6946375984251958
21
-4.258102362204724
0
LINE
8
BLACK
6
CONTINUOUS
10
11.6946375984251958
20
-4.258102362204724
11
11.6852206692913381
21
-4.2620029527559051
0
LINE
8
BLACK
6
CONTINUOUS
10
11.6852206692913381
20
-4.2620029527559051
11
11.6763934645669281
21
-4.2670993700787401
0
LINE
8
BLACK
6
CONTINUOUS
10
11.6763934645669281
20
-4.2670993700787401
11
11.6683070078740148
21
-4.2733043307086609
0
LINE
8
BLACK
6
CONTINUOUS
10
11.6683070078740148
20
-4.2733043307086609
11
11.6610996062992118
21
-4.2805117322834647
0
LINE
8
BLACK
6
CONTINUOUS
10
11.6610996062992118
20
-4.2805117322834647
11
11.654894645669291
21
-4.288598188976378
0
LINE
8
BLACK
6
CONTINUOUS
10
11.654894645669291
20
-4.288598188976378
11
11.649798228346457
21
-4.2974253937007871
0
LINE
8
BLACK
6
CONTINUOUS
10
11.649798228346457
20
-4.2974253937007871
11
11.6458976377952759
21
-4.3068423228346457
0
LINE
8
BLACK
6
CONTINUOUS
10
11.6458976377952759
20
-4.3068423228346457
11
11.6432595669291334
21
-4.3166877952755902
0
LINE
8
BLACK
6
CONTINUOUS
10
11.6432595669291334
20
-4.3166877952755902
11
11.6419291338582678
21
-4.3267933858267718
0
LINE
8
BLACK
6
CONTINUOUS
10
11.6419291338582678
20
-4.3267933858267718
11
11.6419291338582678
21
-4.3318897637795271
0
LINE
8
BLACK
6
CONTINUOUS
10
11.6419291338582678
20
-4.3318897637795271
11
11.6419291338582678
21
-4.8665354330708661
0
LINE
8
BLACK
6
CONTINUOUS
10
11.6419291338582678
20
-4.8665354330708661
11
11.6412470866141735
21
-4.8769415748031495
0
LINE
8
BLACK
6
CONTINUOUS
10
11.6412470866141735
20
-4.8769415748031495
11
11.6392125984251962
21
-4.8871696456692915
0
LINE
8
BLACK
6
CONTINUOUS
10
11.6392125984251962
20
-4.8871696456692915
11
11.6358604724409442
21
-4.8970446456692915
0
LINE
8
BLACK
6
CONTINUOUS
10
11.6358604724409442
20
-4.8970446456692915
11
11.6312480708661408
21
-4.9063976377952754
0
LINE
8
BLACK
6
CONTINUOUS
10
11.6312480708661408
20
-4.9063976377952754
11
11.6254543700787405
21
-4.915068582677165
0
LINE
8
BLACK
6
CONTINUOUS
10
11.6254543700787405
20
-4.915068582677165
11
11.6185783858267708
21
-4.9229090944881886
0
LINE
8
BLACK
6
CONTINUOUS
10
11.6185783858267708
20
-4.9229090944881886
11
11.6107378740157472
21
-4.9297850787401574
0
LINE
8
BLACK
6
CONTINUOUS
10
11.6107378740157472
20
-4.9297850787401574
11
11.6020669291338585
21
-4.9355787795275585
0
LINE
8
BLACK
6
CONTINUOUS
10
11.6020669291338585
20
-4.9355787795275585
11
11.5927139370078738
21
-4.940191181102362
0
LINE
8
BLACK
6
CONTINUOUS
10
11.5927139370078738
20
-4.940191181102362
11
11.5828389370078746
21
-4.9435433070866139
0
LINE
8
BLACK
6
CONTINUOUS
10
11.5828389370078746
20
-4.9435433070866139
11
11.5726108661417317
21
-4.9455777952755904
0
LINE
8
BLACK
6
CONTINUOUS
10
11.5726108661417317
20
-4.9455777952755904
11
11.5622047244094492
21
-4.9462598425196846
0
LINE
8
BLACK
6
CONTINUOUS
10
11.5622047244094492
20
-4.9462598425196846
11
10.939087322834645
21
-4.9462598425196846
0
LINE
8
BLACK
6
CONTINUOUS
10
10.939087322834645
20
-4.9462598425196846
11
10.9390872834645663
21
-4.9462598425196846
0
LINE
8
BLACK
6
CONTINUOUS
10
10.9390872834645663
20
-4.9462598425196846
11
10.9390850787401579
21
-4.9462593700787396
0
LINE
8
BLACK
6
CONTINUOUS
10
10.9390850787401579
20
-4.9462593700787396
11
10.9356986220472443
21
-4.9462592519685042
0
LINE
8
BLACK
6
CONTINUOUS
10
10.9356986220472443
20
-4.9462592519685042
11
10.9289469685039364
21
-4.9468490551181103
0
LINE
8
BLACK
6
CONTINUOUS
10
10.9289469685039364
20
-4.9468490551181103
11
10.9222722047244094
21
-4.9480238976377953
0
LINE
8
BLACK
6
CONTINUOUS
10
10.9222722047244094
20
-4.9480238976377953
11
10.9189986220472441
21
-4.9488996850393701
0
LINE
8
BLACK
6
CONTINUOUS
10
10.9189986220472441
20
-4.9488996850393701
11
10.9189986220472441
21
-4.9488996456692913
0
LINE
8
BLACK
6
CONTINUOUS
10
10.9189986220472441
20
-4.9488996456692913
11
10.2559701968503934
21
-5.1262167716535432
0
LINE
8
BLACK
6
CONTINUOUS
10
10.2559701968503934
20
-5.1262167716535432
11
10.2559702362204721
21
-5.1262169291338582
0
LINE
8
BLACK
6
CONTINUOUS
10
10.2559702362204721
20
-5.1262169291338582
11
10.2526802755905511
21
-5.1270972440944877
0
LINE
8
BLACK
6
CONTINUOUS
10
10.2526802755905511
20
-5.1270972440944877
11
10.2462792125984254
21
-5.1294255118110232
0
LINE
8
BLACK
6
CONTINUOUS
10
10.2462792125984254
20
-5.1294255118110232
11
10.2401062204724411
21
-5.1323045669291334
0
LINE
8
BLACK
6
CONTINUOUS
10
10.2401062204724411
20
-5.1323045669291334
11
10.237157165354331
21
-5.1340080314960632
0
LINE
8
BLACK
6
CONTINUOUS
10
10.237157165354331
20
-5.1340080314960632
11
10.2371571259842522
21
-5.1340079921259845
0
LINE
8
BLACK
6
CONTINUOUS
10
10.2371571259842522
20
-5.1340079921259845
11
10.2371570472440947
21
-5.1340079921259845
0
LINE
8
BLACK
6
CONTINUOUS
10
10.2371570472440947
20
-5.1340079921259845
11
10.2371568503937009
21
-5.1340081889763782
0
LINE
8
BLACK
6
CONTINUOUS
10
10.2371568503937009
20
-5.1340081889763782
11
9.6097276771653544
21
-5.4962546062992121
0
LINE
8
BLACK
6
CONTINUOUS
10
9.6097276771653544
20
-5.4962546062992121
11
9.6097274015748031
21
-5.4962546850393696
0
LINE
8
BLACK
6
CONTINUOUS
10
9.6097274015748031
20
-5.4962546850393696
11
9.6009877165354336
21
-5.5006100393700788
0
LINE
8
BLACK
6
CONTINUOUS
10
9.6009877165354336
20
-5.5006100393700788
11
9.5917808267716538
21
-5.5038642913385827
0
LINE
8
BLACK
6
CONTINUOUS
10
9.5917808267716538
20
-5.5038642913385827
11
9.5822451574803154
21
-5.5059685433070866
0
LINE
8
BLACK
6
CONTINUOUS
10
9.5822451574803154
20
-5.5059685433070866
11
9.5725237401574805
21
-5.506891181102362
0
LINE
8
BLACK
6
CONTINUOUS
10
9.5725237401574805
20
-5.506891181102362
11
9.5627624803149605
21
-5.5066183464566931
0
LINE
8
BLACK
6
CONTINUOUS
10
9.5627624803149605
20
-5.5066183464566931
11
9.5531077952755901
21
-5.5051542125984252
0
LINE
8
BLACK
6
CONTINUOUS
10
9.5531077952755901
20
-5.5051542125984252
11
9.5437045275590542
21
-5.5025206692913384
0
LINE
8
BLACK
6
CONTINUOUS
10
9.5437045275590542
20
-5.5025206692913384
11
9.5346937795275597
21
-5.4987572834645668
0
LINE
8
BLACK
6
CONTINUOUS
10
9.5346937795275597
20
-5.4987572834645668
11
9.5262107086614165
21
-5.4939204724409452
0
LINE
8
BLACK
6
CONTINUOUS
10
9.5262107086614165
20
-5.4939204724409452
11
9.5183826377952752
21
-5.4880828346456694
0
LINE
8
BLACK
6
CONTINUOUS
10
9.5183826377952752
20
-5.4880828346456694
11
9.5113326771653544
21
-5.4813374015748026
0
LINE
8
BLACK
6
CONTINUOUS
10
9.5113326771653544
20
-5.4813374015748026
11
9.5113261811023619
21
-5.4813326771653541
0
LINE
8
BLACK
6
CONTINUOUS
10
9.5113261811023619
20
-5.4813326771653541
11
8.7784876771653533
21
-4.6886746456692912
0
LINE
8
BLACK
6
CONTINUOUS
10
8.7784876771653533
20
-4.6886746456692912
11
8.7784875590551188
21
-4.6886744488188974
0
LINE
8
BLACK
6
CONTINUOUS
10
8.7784875590551188
20
-4.6886744488188974
11
8.7722218503937004
21
-4.6809880708661415
0
LINE
8
BLACK
6
CONTINUOUS
10
8.7722218503937004
20
-4.6809880708661415
11
8.7669586614173234
21
-4.6725831496062993
0
LINE
8
BLACK
6
CONTINUOUS
10
8.7669586614173234
20
-4.6725831496062993
11
8.7627795275590543
21
-4.6635899212598426
0
LINE
8
BLACK
6
CONTINUOUS
10
8.7627795275590543
20
-4.6635899212598426
11
8.7597491338582678
21
-4.6541474409448815
0
LINE
8
BLACK
6
CONTINUOUS
10
8.7597491338582678
20
-4.6541474409448815
11
8.7579143307086618
21
-4.6444018110236218
0
LINE
8
BLACK
6
CONTINUOUS
10
8.7579143307086618
20
-4.6444018110236218
11
8.7573038582677167
21
-4.634510433070866
0
LINE
8
BLACK
6
CONTINUOUS
10
8.7573038582677167
20
-4.634510433070866
11
8.7573025590551179
21
-4.6345038188976373
0
LINE
8
BLACK
6
CONTINUOUS
10
8.7573025590551179
20
-4.6345038188976373
11
8.7588095275590554
21
-2.2023127952755903
0
LINE
8
BLACK
6
CONTINUOUS
10
8.7588095275590554
20
-2.2023127952755903
11
8.7588095275590554
21
-2.2023127559055116
0
LINE
8
BLACK
6
CONTINUOUS
10
8.7588095275590554
20
-2.2023127559055116
11
8.7594975196850395
21
-2.1919112992125984
0
LINE
8
BLACK
6
CONTINUOUS
10
8.7594975196850395
20
-2.1919112992125984
11
8.7615367716535424
21
-2.181688503937008
0
LINE
8
BLACK
6
CONTINUOUS
10
8.7615367716535424
20
-2.181688503937008
11
8.7648924015748033
21
-2.1718191338582677
0
LINE
8
BLACK
6
CONTINUOUS
10
8.7648924015748033
20
-2.1718191338582677
11
8.7695071259842514
21
-2.1624720078740158
0
LINE
8
BLACK
6
CONTINUOUS
10
8.7695071259842514
20
-2.1624720078740158
11
8.7753019685039373
21
-2.1538068897637794
0
LINE
8
BLACK
6
CONTINUOUS
10
8.7753019685039373
20
-2.1538068897637794
11
8.7821778740157477
21
-2.1459719291338581
0
LINE
8
BLACK
6
CONTINUOUS
10
8.7821778740157477
20
-2.1459719291338581
11
8.7900172834645662
21
-2.1391011417322834
0
LINE
8
BLACK
6
CONTINUOUS
10
8.7900172834645662
20
-2.1391011417322834
11
8.7986861811023616
21
-2.1333119291338583
0
LINE
8
BLACK
6
CONTINUOUS
10
8.7986861811023616
20
-2.1333119291338583
11
8.8080362992125973
21
-2.1287033070866141
0
LINE
8
BLACK
6
CONTINUOUS
10
8.8080362992125973
20
-2.1287033070866141
11
8.8179078346456699
21
-2.1253540551181103
0
LINE
8
BLACK
6
CONTINUOUS
10
8.8179078346456699
20
-2.1253540551181103
11
8.8281319685039374
21
-2.1233214566929135
0
LINE
8
BLACK
6
CONTINUOUS
10
8.8281319685039374
20
-2.1233214566929135
11
8.8385155511811018
21
-2.1226414173228347
0
LINE
8
BLACK
6
CONTINUOUS
10
8.8385155511811018
20
-2.1226414173228347
11
8.8385338976377952
21
-2.1226377952755904
0
LINE
8
BLACK
6
CONTINUOUS
10
8.8385338976377952
20
-2.1226377952755904
11
10.5506550787401565
21
-2.1226377952755904
0
LINE
8
BLACK
6
CONTINUOUS
10
10.5506550787401565
20
-2.1226377952755904
11
10.5512725984251965
21
-2.1132159055118112
0
LINE
8
BLACK
6
CONTINUOUS
10
10.5512725984251965
20
-2.1132159055118112
11
10.5533070866141738
21
-2.1029878346456692
0
LINE
8
BLACK
6
CONTINUOUS
10
10.5533070866141738
20
-2.1029878346456692
11
10.5566592125984258
21
-2.0931128346456691
0
LINE
8
BLACK
6
CONTINUOUS
10
10.5566592125984258
20
-2.0931128346456691
11
10.5612716141732275
21
-2.0837598425196848
0
LINE
8
BLACK
6
CONTINUOUS
10
10.5612716141732275
20
-2.0837598425196848
11
10.5670653149606295
21
-2.0750888976377952
0
LINE
8
BLACK
6
CONTINUOUS
10
10.5670653149606295
20
-2.0750888976377952
11
10.5739412992125974
21
-2.0672483858267716
0
LINE
8
BLACK
6
CONTINUOUS
10
10.5739412992125974
20
-2.0672483858267716
11
10.581781811023621
21
-2.0603724015748033
0
LINE
8
BLACK
6
CONTINUOUS
10
10.581781811023621
20
-2.0603724015748033
11
10.5904527559055115
21
-2.0545787007874017
0
LINE
8
BLACK
6
CONTINUOUS
10
10.5904527559055115
20
-2.0545787007874017
11
10.5998057480314962
21
-2.0499662992125982
0
LINE
8
BLACK
6
CONTINUOUS
10
10.5998057480314962
20
-2.0499662992125982
11
10.6096807480314954
21
-2.0466141732283463
0
LINE
8
BLACK
6
CONTINUOUS
10
10.6096807480314954
20
-2.0466141732283463
11
10.6199088188976383
21
-2.0445796850393698
0
LINE
8
BLACK
6
CONTINUOUS
10
10.6199088188976383
20
-2.0445796850393698
11
10.6303149606299208
21
-2.0438976377952756
0
LINE
8
BLACK
6
CONTINUOUS
10
10.6303149606299208
20
-2.0438976377952756
11
11.269946417322835
21
-2.0438976377952756
0
LINE
8
BLACK
6
CONTINUOUS
10
11.269946417322835
20
-2.0438976377952756
11
11.2705639370078732
21
-2.0344757480314959
0
LINE
8
BLACK
6
CONTINUOUS
10
11.2705639370078732
20
-2.0344757480314959
11
11.2725984251968505
21
-2.0242476771653544
0
LINE
8
BLACK
6
CONTINUOUS
10
11.2725984251968505
20
-2.0242476771653544
11
11.2759505511811025
21
-2.0143726771653543
0
LINE
8
BLACK
6
CONTINUOUS
10
11.2759505511811025
20
-2.0143726771653543
11
11.2805629527559059
21
-2.00501968503937
0
LINE
8
BLACK
6
CONTINUOUS
10
11.2805629527559059
20
-2.00501968503937
11
11.2863566535433062
21
-1.9963487401574802
0
LINE
8
BLACK
6
CONTINUOUS
10
11.2863566535433062
20
-1.9963487401574802
11
11.2932326377952759
21
-1.9885082283464566
0
LINE
8
BLACK
6
CONTINUOUS
10
11.2932326377952759
20
-1.9885082283464566
11
11.3010731496062995
21
-1.9816322440944882
0
LINE
8
BLACK
6
CONTINUOUS
10
11.3010731496062995
20
-1.9816322440944882
11
11.3097440944881882
21
-1.9758385433070866
0
LINE
8
BLACK
6
CONTINUOUS
10
11.3097440944881882
20
-1.9758385433070866
11
11.3190970866141729
21
-1.9712261417322834
0
LINE
8
BLACK
6
CONTINUOUS
10
11.3190970866141729
20
-1.9712261417322834
11
11.3289720866141721
21
-1.9678740157480314
0
LINE
8
BLACK
6
CONTINUOUS
10
11.3289720866141721
20
-1.9678740157480314
11
11.339200157480315
21
-1.965839527559055
0
LINE
8
BLACK
6
CONTINUOUS
10
11.339200157480315
20
-1.965839527559055
11
11.3496062992125974
21
-1.9651574803149605
0
LINE
8
BLACK
6
CONTINUOUS
10
11.3496062992125974
20
-1.9651574803149605
11
11.8484251968503926
21
-1.9651574803149605
0
LINE
8
BLACK
6
CONTINUOUS
10
11.3496062992125974
20
-1.9671259842519684
11
11.3445099212598421
21
-1.9671259842519684
0
LINE
8
BLACK
6
CONTINUOUS
10
11.3445099212598421
20
-1.9671259842519684
11
11.3344043307086615
21
-1.9684564173228345
0
LINE
8
BLACK
6
CONTINUOUS
10
11.3344043307086615
20
-1.9684564173228345
11
11.3245588582677161
21
-1.9710944881889763
0
LINE
8
BLACK
6
CONTINUOUS
10
11.3245588582677161
20
-1.9710944881889763
11
11.3151419291338584
21
-1.9749950787401573
0
LINE
8
BLACK
6
CONTINUOUS
10
11.3151419291338584
20
-1.9749950787401573
11
11.3063147244094484
21
-1.9800914960629921
0
LINE
8
BLACK
6
CONTINUOUS
10
11.3063147244094484
20
-1.9800914960629921
11
11.2982282677165351
21
-1.9862964566929133
0
LINE
8
BLACK
6
CONTINUOUS
10
11.2982282677165351
20
-1.9862964566929133
11
11.2910208661417322
21
-1.9935038582677165
0
LINE
8
BLACK
6
CONTINUOUS
10
11.2910208661417322
20
-1.9935038582677165
11
11.2848159055118114
21
-2.0015903149606298
0
LINE
8
BLACK
6
CONTINUOUS
10
11.2848159055118114
20
-2.0015903149606298
11
11.2797194881889755
21
-2.0104175196850393
0
LINE
8
BLACK
6
CONTINUOUS
10
11.2797194881889755
20
-2.0104175196850393
11
11.2758188976377944
21
-2.0198344488188975
0
LINE
8
BLACK
6
CONTINUOUS
10
11.2758188976377944
20
-2.0198344488188975
11
11.2731808267716538
21
-2.0296799212598424
0
LINE
8
BLACK
6
CONTINUOUS
10
11.2731808267716538
20
-2.0296799212598424
11
11.2718503937007863
21
-2.0397855118110235
0
LINE
8
BLACK
6
CONTINUOUS
10
11.2718503937007863
20
-2.0397855118110235
11
11.2718503937007863
21
-2.0448818897637793
0
LINE
8
BLACK
6
CONTINUOUS
10
11.2718503937007863
20
-2.0448818897637793
11
11.2717754724409449
21
-2.045112440944882
0
LINE
8
BLACK
6
CONTINUOUS
10
11.2717754724409449
20
-2.045112440944882
11
11.2717754724409449
21
-2.0452585433070865
0
LINE
8
BLACK
6
CONTINUOUS
10
11.2717754724409449
20
-2.0452585433070865
11
11.2717051181102352
21
-2.0453288582677165
0
LINE
8
BLACK
6
CONTINUOUS
10
11.2717051181102352
20
-2.0453288582677165
11
11.2716624015748028
21
-2.0454604330708661
0
LINE
8
BLACK
6
CONTINUOUS
10
11.2716624015748028
20
-2.0454604330708661
11
11.2713376377952752
21
-2.045696338582677
0
LINE
8
BLACK
6
CONTINUOUS
10
11.2713376377952752
20
-2.045696338582677
11
11.2712427952755903
21
-2.0457912204724411
0
LINE
8
BLACK
6
CONTINUOUS
10
11.2712427952755903
20
-2.0457912204724411
11
11.2711935826771654
21
-2.0458009842519687
0
LINE
8
BLACK
6
CONTINUOUS
10
11.2711935826771654
20
-2.0458009842519687
11
11.271170275590551
21
-2.0458179527559053
0
LINE
8
BLACK
6
CONTINUOUS
10
11.271170275590551
20
-2.0458179527559053
11
11.2711083858267713
21
-2.0458179527559053
0
LINE
8
BLACK
6
CONTINUOUS
10
11.2711083858267713
20
-2.0458179527559053
11
11.2708661417322826
21
-2.0458661417322834
0
LINE
8
BLACK
6
CONTINUOUS
10
11.2708661417322826
20
-2.0458661417322834
11
10.6303149606299208
21
-2.0458661417322834
0
LINE
8
BLACK
6
CONTINUOUS
10
10.6303149606299208
20
-2.0458661417322834
11
10.6252185826771655
21
-2.0458661417322834
0
LINE
8
BLACK
6
CONTINUOUS
10
10.6252185826771655
20
-2.0458661417322834
11
10.6151129921259848
21
-2.0471965748031495
0
LINE
8
BLACK
6
CONTINUOUS
10
10.6151129921259848
20
-2.0471965748031495
11
10.6052675196850394
21
-2.0498346456692911
0
LINE
8
BLACK
6
CONTINUOUS
10
10.6052675196850394
20
-2.0498346456692911
11
10.5958505905511817
21
-2.0537352362204726
0
LINE
8
BLACK
6
CONTINUOUS
10
10.5958505905511817
20
-2.0537352362204726
11
10.5870233858267717
21
-2.0588316535433071
0
LINE
8
BLACK
6
CONTINUOUS
10
10.5870233858267717
20
-2.0588316535433071
11
10.5789369291338584
21
-2.0650366141732284
0
LINE
8
BLACK
6
CONTINUOUS
10
10.5789369291338584
20
-2.0650366141732284
11
10.5717295275590555
21
-2.0722440157480313
0
LINE
8
BLACK
6
CONTINUOUS
10
10.5717295275590555
20
-2.0722440157480313
11
10.5655245669291329
21
-2.080330472440945
0
LINE
8
BLACK
6
CONTINUOUS
10
10.5655245669291329
20
-2.080330472440945
11
10.5604281496062988
21
-2.0891576771653542
0
LINE
8
BLACK
6
CONTINUOUS
10
10.5604281496062988
20
-2.0891576771653542
11
10.5565275590551177
21
-2.0985746062992123
0
LINE
8
BLACK
6
CONTINUOUS
10
10.5565275590551177
20
-2.0985746062992123
11
10.5538894881889753
21
-2.1084200787401572
0
LINE
8
BLACK
6
CONTINUOUS
10
10.5538894881889753
20
-2.1084200787401572
11
10.5525590551181097
21
-2.1185256692913383
0
LINE
8
BLACK
6
CONTINUOUS
10
10.5525590551181097
20
-2.1185256692913383
11
10.5525590551181097
21
-2.1236220472440945
0
LINE
8
BLACK
6
CONTINUOUS
10
10.5525590551181097
20
-2.1236220472440945
11
10.5524841338582682
21
-2.1238525984251968
0
LINE
8
BLACK
6
CONTINUOUS
10
10.5524841338582682
20
-2.1238525984251968
11
10.5524841338582682
21
-2.1239987007874017
0
LINE
8
BLACK
6
CONTINUOUS
10
10.5524841338582682
20
-2.1239987007874017
11
10.5524137795275585
21
-2.1240690157480313
0
LINE
8
BLACK
6
CONTINUOUS
10
10.5524137795275585
20
-2.1240690157480313
11
10.5523710629921261
21
-2.1242005905511809
0
LINE
8
BLACK
6
CONTINUOUS
10
10.5523710629921261
20
-2.1242005905511809
11
10.5520462992125985
21
-2.1244364960629922
0
LINE
8
BLACK
6
CONTINUOUS
10
10.5520462992125985
20
-2.1244364960629922
11
10.5519514566929136
21
-2.1245313779527559
0
LINE
8
BLACK
6
CONTINUOUS
10
10.5519514566929136
20
-2.1245313779527559
11
10.5519022440944887
21
-2.1245411417322835
0
LINE
8
BLACK
6
CONTINUOUS
10
10.5519022440944887
20
-2.1245411417322835
11
10.5518789370078743
21
-2.1245581102362205
0
LINE
8
BLACK
6
CONTINUOUS
10
10.5518789370078743
20
-2.1245581102362205
11
10.5518170472440946
21
-2.1245581102362205
0
LINE
8
BLACK
6
CONTINUOUS
10
10.5518170472440946
20
-2.1245581102362205
11
10.5515748031496059
21
-2.1246062992125982
0
LINE
8
BLACK
6
CONTINUOUS
10
10.5515748031496059
20
-2.1246062992125982
11
8.8385338976377952
21
-2.1246062992125982
0
LINE
8
BLACK
6
CONTINUOUS
10
8.8385338976377952
20
-2.1246062992125982
11
8.8385338582677164
21
-2.1246062598425195
0
LINE
8
BLACK
6
CONTINUOUS
10
8.8385338582677164
20
-2.1246062598425195
11
8.8385338582677164
21
-2.1246062992125982
0
LINE
8
BLACK
6
CONTINUOUS
10
8.8385338582677164
20
-2.1246062992125982
11
8.8385338582677164
21
-2.1246087401574805
0
LINE
8
BLACK
6
CONTINUOUS
10
8.8385338582677164
20
-2.1246087401574805
11
8.8334395275590545
21
-2.1246084251968504
0
LINE
8
BLACK
6
CONTINUOUS
10
8.8334395275590545
20
-2.1246084251968504
11
8.8233379527559048
21
-2.1259375196850394
0
LINE
8
BLACK
6
CONTINUOUS
10
8.8233379527559048
20
-2.1259375196850394
11
8.8134961417322835
21
-2.1285732677165354
0
LINE
8
BLACK
6
CONTINUOUS
10
8.8134961417322835
20
-2.1285732677165354
11
8.8040823622047242
21
-2.1324706299212597
0
LINE
8
BLACK
6
CONTINUOUS
10
8.8040823622047242
20
-2.1324706299212597
11
8.7952575590551181
21
-2.1375629527559052
0
LINE
8
BLACK
6
CONTINUOUS
10
8.7952575590551181
20
-2.1375629527559052
11
8.7871726771653549
21
-2.143763188976378
0
LINE
8
BLACK
6
CONTINUOUS
10
8.7871726771653549
20
-2.143763188976378
11
8.7799658661417315
21
-2.1509653149606298
0
LINE
8
BLACK
6
CONTINUOUS
10
8.7799658661417315
20
-2.1509653149606298
11
8.7737603937007869
21
-2.159046181102362
0
LINE
8
BLACK
6
CONTINUOUS
10
8.7737603937007869
20
-2.159046181102362
11
8.7686623228346452
21
-2.1678676377952755
0
LINE
8
BLACK
6
CONTINUOUS
10
8.7686623228346452
20
-2.1678676377952755
11
8.7647588582677169
21
-2.177278897637795
0
LINE
8
BLACK
6
CONTINUOUS
10
8.7647588582677169
20
-2.177278897637795
11
8.762116692913386
21
-2.1871189763779526
0
LINE
8
BLACK
6
CONTINUOUS
10
8.762116692913386
20
-2.1871189763779526
11
8.760781062992125
21
-2.1972197244094489
0
LINE
8
BLACK
6
CONTINUOUS
10
8.760781062992125
20
-2.1972197244094489
11
8.7607780314960628
21
-2.2023140157480317
0
LINE
8
BLACK
6
CONTINUOUS
10
8.7607780314960628
20
-2.2023140157480317
11
8.7592710629921253
21
-4.6345049999999999
0
LINE
8
BLACK
6
CONTINUOUS
10
8.7592710629921253
20
-4.6345049999999999
11
8.7592719685039366
21
-4.6345049999999999
0
LINE
8
BLACK
6
CONTINUOUS
10
8.7592719685039366
20
-4.6345049999999999
11
8.7592661811023618
21
-4.639350551181102
0
LINE
8
BLACK
6
CONTINUOUS
10
8.7592661811023618
20
-4.639350551181102
11
8.7604635039370073
21
-4.6489674409448813
0
LINE
8
BLACK
6
CONTINUOUS
10
8.7604635039370073
20
-4.6489674409448813
11
8.7628453543307092
21
-4.6583612598425193
0
LINE
8
BLACK
6
CONTINUOUS
10
8.7628453543307092
20
-4.6583612598425193
11
8.7663748818897638
21
-4.6673868110236221
0
LINE
8
BLACK
6
CONTINUOUS
10
8.7663748818897638
20
-4.6673868110236221
11
8.7709975196850394
21
-4.6759043700787402
0
LINE
8
BLACK
6
CONTINUOUS
10
8.7709975196850394
20
-4.6759043700787402
11
8.7766417716535425
21
-4.6837822047244098
0
LINE
8
BLACK
6
CONTINUOUS
10
8.7766417716535425
20
-4.6837822047244098
11
8.7799331496062987
21
-4.6873383464566931
0
LINE
8
BLACK
6
CONTINUOUS
10
8.7799331496062987
20
-4.6873383464566931
11
8.7799331496062987
21
-4.6873383858267719
0
LINE
8
BLACK
6
CONTINUOUS
10
8.7799331496062987
20
-4.6873383858267719
11
9.5127716141732286
21
-5.4799963385826773
0
LINE
8
BLACK
6
CONTINUOUS
10
9.5127716141732286
20
-5.4799963385826773
11
9.5127724015748036
21
-5.4799956299212598
0
LINE
8
BLACK
6
CONTINUOUS
10
9.5127724015748036
20
-5.4799956299212598
11
9.5163379921259832
21
-5.4838480314960627
0
LINE
8
BLACK
6
CONTINUOUS
10
9.5163379921259832
20
-5.4838480314960627
11
9.5244362992125975
21
-5.4905289370078743
0
LINE
8
BLACK
6
CONTINUOUS
10
9.5244362992125975
20
-5.4905289370078743
11
9.5333590944881887
21
-5.4960607480314962
0
LINE
8
BLACK
6
CONTINUOUS
10
9.5333590944881887
20
-5.4960607480314962
11
9.542944448818897
21
-5.5003429921259839
0
LINE
8
BLACK
6
CONTINUOUS
10
9.542944448818897
20
-5.5003429921259839
11
9.55301842519685
21
-5.5032979921259839
0
LINE
8
BLACK
6
CONTINUOUS
10
9.55301842519685
20
-5.5032979921259839
11
9.5633981889763771
21
-5.5048720866141734
0
LINE
8
BLACK
6
CONTINUOUS
10
9.5633981889763771
20
-5.5048720866141734
11
9.5738953149606303
21
-5.5050367716535433
0
LINE
8
BLACK
6
CONTINUOUS
10
9.5738953149606303
20
-5.5050367716535433
11
9.5843193307086612
21
-5.5037889763779528
0
LINE
8
BLACK
6
CONTINUOUS
10
9.5843193307086612
20
-5.5037889763779528
11
9.5944810236220466
21
-5.5011513779527554
0
LINE
8
BLACK
6
CONTINUOUS
10
9.5944810236220466
20
-5.5011513779527554
11
9.6041959842519677
21
-5.497171850393701
0
LINE
8
BLACK
6
CONTINUOUS
10
9.6041959842519677
20
-5.497171850393701
11
9.6087434251968507
21
-5.4945498031496065
0
LINE
8
BLACK
6
CONTINUOUS
10
9.6087434251968507
20
-5.4945498031496065
11
10.2361725984251972
21
-5.1323034251968505
0
LINE
8
BLACK
6
CONTINUOUS
10
10.2361725984251972
20
-5.1323034251968505
11
10.236172637795276
21
-5.1323033858267717
0
LINE
8
BLACK
6
CONTINUOUS
10
10.236172637795276
20
-5.1323033858267717
11
10.2423604724409447
21
-5.1290806299212601
0
LINE
8
BLACK
6
CONTINUOUS
10
10.2423604724409447
20
-5.1290806299212601
11
10.2488066929133854
21
-5.1264110236220475
0
LINE
8
BLACK
6
CONTINUOUS
10
10.2488066929133854
20
-5.1264110236220475
11
10.2554606299212594
21
-5.1243155511811018
0
LINE
8
BLACK
6
CONTINUOUS
10
10.2554606299212594
20
-5.1243155511811018
11
10.2554616141732282
21
-5.1243151181102364
0
LINE
8
BLACK
6
CONTINUOUS
10
10.2554616141732282
20
-5.1243151181102364
11
10.918490039370079
21
-4.9469979921259846
0
LINE
8
BLACK
6
CONTINUOUS
10
10.918490039370079
20
-4.9469979921259846
11
10.9252683858267723
21
-4.945498070866142
0
LINE
8
BLACK
6
CONTINUOUS
10
10.9252683858267723
20
-4.945498070866142
11
10.9321515354330714
21
-4.9445934251968504
0
LINE
8
BLACK
6
CONTINUOUS
10
10.9321515354330714
20
-4.9445934251968504
11
10.9390872440944875
21
-4.9442909055118109
0
LINE
8
BLACK
6
CONTINUOUS
10
10.9390872440944875
20
-4.9442909055118109
11
10.9390872440944875
21
-4.9442913385826772
0
LINE
8
BLACK
6
CONTINUOUS
10
10.9390872440944875
20
-4.9442913385826772
11
10.9390872834645663
21
-4.9442913385826772
0
LINE
8
BLACK
6
CONTINUOUS
10
10.9390872834645663
20
-4.9442913385826772
11
11.5622047244094492
21
-4.9442913385826772
0
LINE
8
BLACK
6
CONTINUOUS
10
11.5622047244094492
20
-4.9442913385826772
11
11.5673011023622045
21
-4.9442913385826772
0
LINE
8
BLACK
6
CONTINUOUS
10
11.5673011023622045
20
-4.9442913385826772
11
11.5774066929133852
21
-4.9429609055118107
0
LINE
8
BLACK
6
CONTINUOUS
10
11.5774066929133852
20
-4.9429609055118107
11
11.5872521653543306
21
-4.9403228346456691
0
LINE
8
BLACK
6
CONTINUOUS
10
11.5872521653543306
20
-4.9403228346456691
11
11.5966690944881883
21
-4.936422244094488
0
LINE
8
BLACK
6
CONTINUOUS
10
11.5966690944881883
20
-4.936422244094488
11
11.6054962992125983
21
-4.9313258267716531
0
LINE
8
BLACK
6
CONTINUOUS
10
11.6054962992125983
20
-4.9313258267716531
11
11.6135827559055116
21
-4.9251208661417323
0
LINE
8
BLACK
6
CONTINUOUS
10
11.6135827559055116
20
-4.9251208661417323
11
11.6207901574803145
21
-4.9179134645669293
0
LINE
8
BLACK
6
CONTINUOUS
10
11.6207901574803145
20
-4.9179134645669293
11
11.6269951181102353
21
-4.909827007874016
0
LINE
8
BLACK
6
CONTINUOUS
10
11.6269951181102353
20
-4.909827007874016
11
11.6320915354330712
21
-4.900999803149606
0
LINE
8
BLACK
6
CONTINUOUS
10
11.6320915354330712
20
-4.900999803149606
11
11.6359921259842523
21
-4.8915828740157483
0
LINE
8
BLACK
6
CONTINUOUS
10
11.6359921259842523
20
-4.8915828740157483
11
11.6386301968503929
21
-4.881737401574803
0
LINE
8
BLACK
6
CONTINUOUS
10
11.6386301968503929
20
-4.881737401574803
11
11.6399606299212603
21
-4.8716318110236223
0
LINE
8
BLACK
6
CONTINUOUS
10
11.6399606299212603
20
-4.8716318110236223
11
11.6399606299212603
21
-4.8665354330708661
0
LINE
8
BLACK
6
CONTINUOUS
10
11.6399606299212603
20
-4.8665354330708661
11
11.6399606299212603
21
-4.3318897637795271
0
LINE
8
BLACK
6
CONTINUOUS
10
11.6399606299212603
20
-4.3318897637795271
11
11.6406426771653546
21
-4.3214836220472437
0
LINE
8
BLACK
6
CONTINUOUS
10
11.6406426771653546
20
-4.3214836220472437
11
11.6426771653543302
21
-4.3112555511811026
0
LINE
8
BLACK
6
CONTINUOUS
10
11.6426771653543302
20
-4.3112555511811026
11
11.6460292913385821
21
-4.3013805511811025
0
LINE
8
BLACK
6
CONTINUOUS
10
11.6460292913385821
20
-4.3013805511811025
11
11.6506416929133856
21
-4.2920275590551178
0
LINE
8
BLACK
6
CONTINUOUS
10
11.6506416929133856
20
-4.2920275590551178
11
11.6564353937007876
21
-4.2833566141732282
0
LINE
8
BLACK
6
CONTINUOUS
10
11.6564353937007876
20
-4.2833566141732282
11
11.6633113779527555
21
-4.2755161023622046
0
LINE
8
BLACK
6
CONTINUOUS
10
11.6633113779527555
20
-4.2755161023622046
11
11.6711518897637792
21
-4.2686401181102358
0
LINE
8
BLACK
6
CONTINUOUS
10
11.6711518897637792
20
-4.2686401181102358
11
11.6798228346456696
21
-4.2628464173228346
0
LINE
8
BLACK
6
CONTINUOUS
10
11.6798228346456696
20
-4.2628464173228346
11
11.6891758267716526
21
-4.2582340157480312
0
LINE
8
BLACK
6
CONTINUOUS
10
11.6891758267716526
20
-4.2582340157480312
11
11.6990508267716535
21
-4.2548818897637792
0
LINE
8
BLACK
6
CONTINUOUS
10
11.6990508267716535
20
-4.2548818897637792
11
11.7092788976377946
21
-4.2528474015748028
0
LINE
8
BLACK
6
CONTINUOUS
10
11.7092788976377946
20
-4.2528474015748028
11
11.7196850393700789
21
-4.2521653543307085
0
LINE
8
BLACK
6
CONTINUOUS
10
11.7196850393700789
20
-4.2521653543307085
11
14.0972440944881878
21
-4.2521653543307085
0
LINE
8
BLACK
6
CONTINUOUS
10
14.0972440944881878
20
-4.2521653543307085
11
14.1023404724409449
21
-4.2521653543307085
0
LINE
8
BLACK
6
CONTINUOUS
10
14.1023404724409449
20
-4.2521653543307085
11
14.1124460629921256
21
-4.2508349212598429
0
LINE
8
BLACK
6
CONTINUOUS
10
14.1124460629921256
20
-4.2508349212598429
11
14.1222915354330709
21
-4.2481968503937004
0
LINE
8
BLACK
6
CONTINUOUS
10
14.1222915354330709
20
-4.2481968503937004
11
14.1317084645669286
21
-4.2442962598425193
0
LINE
8
BLACK
6
CONTINUOUS
10
14.1317084645669286
20
-4.2442962598425193
11
14.1405356692913386
21
-4.2391998425196853
0
LINE
8
BLACK
6
CONTINUOUS
10
14.1405356692913386
20
-4.2391998425196853
11
14.148622125984252
21
-4.2329948818897636
0
LINE
8
BLACK
6
CONTINUOUS
10
14.148622125984252
20
-4.2329948818897636
11
14.1558295275590549
21
-4.2257874803149607
0
LINE
8
BLACK
6
CONTINUOUS
10
14.1558295275590549
20
-4.2257874803149607
11
14.1620344881889757
21
-4.2177010236220474
0
LINE
8
BLACK
6
CONTINUOUS
10
14.1620344881889757
20
-4.2177010236220474
11
14.1671309055118115
21
-4.2088738188976373
0
LINE
8
BLACK
6
CONTINUOUS
10
14.1671309055118115
20
-4.2088738188976373
11
14.1710314960629926
21
-4.1994568897637796
0
LINE
8
BLACK
6
CONTINUOUS
10
14.1710314960629926
20
-4.1994568897637796
11
14.1736695669291333
21
-4.1896114173228343
0
LINE
8
BLACK
6
CONTINUOUS
10
14.1736695669291333
20
-4.1896114173228343
11
14.1749999999999989
21
-4.1795058267716536
0
LINE
8
BLACK
6
CONTINUOUS
10
14.1749999999999989
20
-4.1795058267716536
11
14.1749999999999989
21
-4.1744094488188974
0
LINE
8
BLACK
6
CONTINUOUS
10
14.1749999999999989
20
-4.1744094488188974
11
14.1749999999999989
21
-2.2417322834645668
0
LINE
8
BLACK
6
CONTINUOUS
10
14.1749999999999989
20
-2.2417322834645668
11
14.1749999999999989
21
-2.236635905511811
0
LINE
8
BLACK
6
CONTINUOUS
10
14.1749999999999989
20
-2.236635905511811
11
14.1736695669291333
21
-2.2265303149606299
0
LINE
8
BLACK
6
CONTINUOUS
10
14.1736695669291333
20
-2.2265303149606299
11
14.1710314960629926
21
-2.216684842519685
0
LINE
8
BLACK
6
CONTINUOUS
10
14.1710314960629926
20
-2.216684842519685
11
14.1671309055118115
21
-2.2072679133858268
0
LINE
8
BLACK
6
CONTINUOUS
10
14.1671309055118115
20
-2.2072679133858268
11
14.1620344881889757
21
-2.1984407086614173
0
LINE
8
BLACK
6
CONTINUOUS
10
14.1620344881889757
20
-2.1984407086614173
11
14.1558295275590549
21
-2.190354251968504
0
LINE
8
BLACK
6
CONTINUOUS
10
14.1558295275590549
20
-2.190354251968504
11
14.148622125984252
21
-2.1831468503937006
0
LINE
8
BLACK
6
CONTINUOUS
10
14.148622125984252
20
-2.1831468503937006
11
14.1405356692913386
21
-2.1769418897637793
0
LINE
8
BLACK
6
CONTINUOUS
10
14.1405356692913386
20
-2.1769418897637793
11
14.1317084645669286
21
-2.1718454724409448
0
LINE
8
BLACK
6
CONTINUOUS
10
14.1317084645669286
20
-2.1718454724409448
11
14.1222915354330709
21
-2.1679448818897638
0
LINE
8
BLACK
6
CONTINUOUS
10
14.1222915354330709
20
-2.1679448818897638
11
14.1124460629921256
21
-2.1653068110236222
0
LINE
8
BLACK
6
CONTINUOUS
10
14.1124460629921256
20
-2.1653068110236222
11
14.1023404724409449
21
-2.1639763779527557
0
LINE
8
BLACK
6
CONTINUOUS
10
14.1023404724409449
20
-2.1639763779527557
11
14.0972440944881878
21
-2.1639763779527557
0
LINE
8
BLACK
6
CONTINUOUS
10
14.0972440944881878
20
-2.1639763779527557
11
12.63779527559055
21
-2.1639763779527557
0
LINE
8
BLACK
6
CONTINUOUS
10
12.63779527559055
20
-2.1639763779527557
11
12.6374186220472442
21
-2.1639014566929133
0
LINE
8
BLACK
6
CONTINUOUS
10
12.6374186220472442
20
-2.1639014566929133
11
12.6368859448818895
21
-2.1633687795275591
0
LINE
8
BLACK
6
CONTINUOUS
10
12.6368859448818895
20
-2.1633687795275591
11
12.6368110236220463
21
-2.1629921259842519
0
LINE
8
BLACK
6
CONTINUOUS
10
12.6368110236220463
20
-2.1629921259842519
11
12.6368110236220463
21
-2.1236220472440945
0
LINE
8
BLACK
6
CONTINUOUS
10
12.6368110236220463
20
-2.1236220472440945
11
12.6368110236220463
21
-2.1185256692913383
0
LINE
8
BLACK
6
CONTINUOUS
10
12.6368110236220463
20
-2.1185256692913383
11
12.6354805905511807
21
-2.1084200787401572
0
LINE
8
BLACK
6
CONTINUOUS
10
12.6354805905511807
20
-2.1084200787401572
11
12.6328425196850382
21
-2.0985746062992123
0
LINE
8
BLACK
6
CONTINUOUS
10
12.6328425196850382
20
-2.0985746062992123
11
12.6289419291338572
21
-2.0891576771653542
0
LINE
8
BLACK
6
CONTINUOUS
10
12.6289419291338572
20
-2.0891576771653542
11
12.6238455118110231
21
-2.080330472440945
0
LINE
8
BLACK
6
CONTINUOUS
10
12.6238455118110231
20
-2.080330472440945
11
12.6176405511811023
21
-2.0722440157480313
0
LINE
8
BLACK
6
CONTINUOUS
10
12.6176405511811023
20
-2.0722440157480313
11
12.6104331496062994
21
-2.0650366141732284
0
LINE
8
BLACK
6
CONTINUOUS
10
12.6104331496062994
20
-2.0650366141732284
11
12.6023466929133861
21
-2.0588316535433071
0
LINE
8
BLACK
6
CONTINUOUS
10
12.6023466929133861
20
-2.0588316535433071
11
12.593519488188976
21
-2.0537352362204726
0
LINE
8
BLACK
6
CONTINUOUS
10
12.593519488188976
20
-2.0537352362204726
11
12.5841025590551183
21
-2.0498346456692911
0
LINE
8
BLACK
6
CONTINUOUS
10
12.5841025590551183
20
-2.0498346456692911
11
12.574257086614173
21
-2.0471965748031495
0
LINE
8
BLACK
6
CONTINUOUS
10
12.574257086614173
20
-2.0471965748031495
11
12.5641514960629923
21
-2.0458661417322834
0
LINE
8
BLACK
6
CONTINUOUS
10
12.5641514960629923
20
-2.0458661417322834
11
12.5590551181102352
21
-2.0458661417322834
0
LINE
8
BLACK
6
CONTINUOUS
10
12.5590551181102352
20
-2.0458661417322834
11
11.9271653543307092
21
-2.0458661417322834
0
LINE
8
BLACK
6
CONTINUOUS
10
11.9271653543307092
20
-2.0458661417322834
11
11.9269231102362205
21
-2.0458179527559053
0
LINE
8
BLACK
6
CONTINUOUS
10
11.9269231102362205
20
-2.0458179527559053
11
11.9268612204724409
21
-2.0458179527559053
0
LINE
8
BLACK
6
CONTINUOUS
10
11.9268612204724409
20
-2.0458179527559053
11
11.9268378740157477
21
-2.0458009842519687
0
LINE
8
BLACK
6
CONTINUOUS
10
11.9268378740157477
20
-2.0458009842519687
11
11.9267887007874016
21
-2.0457912204724411
0
LINE
8
BLACK
6
CONTINUOUS
10
11.9267887007874016
20
-2.0457912204724411
11
11.9266938188976379
21
-2.045696338582677
0
LINE
8
BLACK
6
CONTINUOUS
10
11.9266938188976379
20
-2.045696338582677
11
11.926369094488189
21
-2.0454604330708661
0
LINE
8
BLACK
6
CONTINUOUS
10
11.926369094488189
20
-2.0454604330708661
11
11.9263263385826761
21
-2.0453288582677165
0
LINE
8
BLACK
6
CONTINUOUS
10
11.9263263385826761
20
-2.0453288582677165
11
11.926256023622047
21
-2.0452585433070865
0
LINE
8
BLACK
6
CONTINUOUS
10
11.926256023622047
20
-2.0452585433070865
11
11.926256023622047
21
-2.045112440944882
0
LINE
8
BLACK
6
CONTINUOUS
10
11.926256023622047
20
-2.045112440944882
11
11.9261811023622037
21
-2.0448818897637793
0
LINE
8
BLACK
6
CONTINUOUS
10
11.9261811023622037
20
-2.0448818897637793
11
11.9261811023622037
21
-2.0397855118110235
0
LINE
8
BLACK
6
CONTINUOUS
10
11.9261811023622037
20
-2.0397855118110235
11
11.9248506692913381
21
-2.0296799212598424
0
LINE
8
BLACK
6
CONTINUOUS
10
11.9248506692913381
20
-2.0296799212598424
11
11.9222125984251974
21
-2.0198344488188975
0
LINE
8
BLACK
6
CONTINUOUS
10
11.9222125984251974
20
-2.0198344488188975
11
11.9183120078740163
21
-2.0104175196850393
0
LINE
8
BLACK
6
CONTINUOUS
10
11.9183120078740163
20
-2.0104175196850393
11
11.9132155905511805
21
-2.0015903149606298
0
LINE
8
BLACK
6
CONTINUOUS
10
11.9132155905511805
20
-2.0015903149606298
11
11.9070106299212597
21
-1.9935038582677165
0
LINE
8
BLACK
6
CONTINUOUS
10
11.9070106299212597
20
-1.9935038582677165
11
11.8998032283464568
21
-1.9862964566929133
0
LINE
8
BLACK
6
CONTINUOUS
10
11.8998032283464568
20
-1.9862964566929133
11
11.8917167716535435
21
-1.9800914960629921
0
LINE
8
BLACK
6
CONTINUOUS
10
11.8917167716535435
20
-1.9800914960629921
11
11.8828895669291335
21
-1.9749950787401573
0
LINE
8
BLACK
6
CONTINUOUS
10
11.8828895669291335
20
-1.9749950787401573
11
11.8734726377952757
21
-1.9710944881889763
0
LINE
8
BLACK
6
CONTINUOUS
10
11.8734726377952757
20
-1.9710944881889763
11
11.8636271653543304
21
-1.9684564173228345
0
LINE
8
BLACK
6
CONTINUOUS
10
11.8636271653543304
20
-1.9684564173228345
11
11.8535215748031497
21
-1.9671259842519684
0
LINE
8
BLACK
6
CONTINUOUS
10
11.8535215748031497
20
-1.9671259842519684
11
11.8484251968503926
21
-1.9671259842519684
0
LINE
8
BLACK
6
CONTINUOUS
10
11.8484251968503926
20
-1.9671259842519684
11
11.3496062992125974
21
-1.9671259842519684
0
LINE
8
BLACK
6
CONTINUOUS
10
4.9842710236220471
20
-1.9534547244094487
11
5.4830899212598423
21
-1.9534547244094487
0
LINE
8
BLACK
6
CONTINUOUS
10
5.4830899212598423
20
-1.9534547244094487
11
5.4934959842519682
21
-1.9541366929133859
0
LINE
8
BLACK
6
CONTINUOUS
10
5.4934959842519682
20
-1.9541366929133859
11
5.5037240551181101
21
-1.9561711417322833
0
LINE
8
BLACK
6
CONTINUOUS
10
5.5037240551181101
20
-1.9561711417322833
11
5.5135990157480315
21
-1.9595232283464568
0
LINE
8
BLACK
6
CONTINUOUS
10
5.5135990157480315
20
-1.9595232283464568
11
5.5229519685039365
21
-1.9641356299212598
0
LINE
8
BLACK
6
CONTINUOUS
10
5.5229519685039365
20
-1.9641356299212598
11
5.5316228740157483
21
-1.9699293700787401
0
LINE
8
BLACK
6
CONTINUOUS
10
5.5316228740157483
20
-1.9699293700787401
11
5.5394633070866144
21
-1.9768053543307087
0
LINE
8
BLACK
6
CONTINUOUS
10
5.5394633070866144
20
-1.9768053543307087
11
5.546339173228346
21
-1.9846459448818896
0
LINE
8
BLACK
6
CONTINUOUS
10
5.546339173228346
20
-1.9846459448818896
11
5.5521327559055118
21
-1.9933169291338582
0
LINE
8
BLACK
6
CONTINUOUS
10
5.5521327559055118
20
-1.9933169291338582
11
5.5567450000000003
21
-2.0026699606299214
0
LINE
8
BLACK
6
CONTINUOUS
10
5.5567450000000003
20
-2.0026699606299214
11
5.5600969291338584
21
-2.0125449999999998
0
LINE
8
BLACK
6
CONTINUOUS
10
5.5600969291338584
20
-2.0125449999999998
11
5.5621311811023624
21
-2.0227730708661418
0
LINE
8
BLACK
6
CONTINUOUS
10
5.5621311811023624
20
-2.0227730708661418
11
5.5627485039370077
21
-2.0321948818897639
0
LINE
8
BLACK
6
CONTINUOUS
10
5.5627485039370077
20
-2.0321948818897639
11
6.2023812598425199
21
-2.0321948818897639
0
LINE
8
BLACK
6
CONTINUOUS
10
6.2023812598425199
20
-2.0321948818897639
11
6.2127873228346457
21
-2.0328768503937007
0
LINE
8
BLACK
6
CONTINUOUS
10
6.2127873228346457
20
-2.0328768503937007
11
6.2230153937007868
21
-2.0349112992125984
0
LINE
8
BLACK
6
CONTINUOUS
10
6.2230153937007868
20
-2.0349112992125984
11
6.2328903543307081
21
-2.0382633858267716
0
LINE
8
BLACK
6
CONTINUOUS
10
6.2328903543307081
20
-2.0382633858267716
11
6.2422433070866141
21
-2.0428757874015746
0
LINE
8
BLACK
6
CONTINUOUS
10
6.2422433070866141
20
-2.0428757874015746
11
6.2509142125984249
21
-2.048669527559055
0
LINE
8
BLACK
6
CONTINUOUS
10
6.2509142125984249
20
-2.048669527559055
11
6.2587546456692911
21
-2.0555455118110237
0
LINE
8
BLACK
6
CONTINUOUS
10
6.2587546456692911
20
-2.0555455118110237
11
6.2656305118110236
21
-2.0633861023622049
0
LINE
8
BLACK
6
CONTINUOUS
10
6.2656305118110236
20
-2.0633861023622049
11
6.2714240944881885
21
-2.0720570866141732
0
LINE
8
BLACK
6
CONTINUOUS
10
6.2714240944881885
20
-2.0720570866141732
11
6.276036338582677
21
-2.0814101181102362
0
LINE
8
BLACK
6
CONTINUOUS
10
6.276036338582677
20
-2.0814101181102362
11
6.2793882677165351
21
-2.0912851574803151
0
LINE
8
BLACK
6
CONTINUOUS
10
6.2793882677165351
20
-2.0912851574803151
11
6.2814225196850391
21
-2.1015132283464566
0
LINE
8
BLACK
6
CONTINUOUS
10
6.2814225196850391
20
-2.1015132283464566
11
6.2820398425196853
21
-2.1109350393700788
0
LINE
8
BLACK
6
CONTINUOUS
10
6.2820398425196853
20
-2.1109350393700788
11
7.9941623228346455
21
-2.1109350393700788
0
LINE
8
BLACK
6
CONTINUOUS
10
7.9941623228346455
20
-2.1109350393700788
11
8.0045643700787394
21
-2.1116166535433072
0
LINE
8
BLACK
6
CONTINUOUS
10
8.0045643700787394
20
-2.1116166535433072
11
8.0147885826771645
21
-2.1136496456692915
0
LINE
8
BLACK
6
CONTINUOUS
10
8.0147885826771645
20
-2.1136496456692915
11
8.024660157480314
21
-2.1169992125984249
0
LINE
8
BLACK
6
CONTINUOUS
10
8.024660157480314
20
-2.1169992125984249
11
8.0340103149606303
21
-2.1216081102362203
0
LINE
8
BLACK
6
CONTINUOUS
10
8.0340103149606303
20
-2.1216081102362203
11
8.0426792125984257
21
-2.1273975196850392
0
LINE
8
BLACK
6
CONTINUOUS
10
8.0426792125984257
20
-2.1273975196850392
11
8.0505186220472442
21
-2.1342685039370077
0
LINE
8
BLACK
6
CONTINUOUS
10
8.0505186220472442
20
-2.1342685039370077
11
8.0573946062992121
21
-2.1421035826771653
0
LINE
8
BLACK
6
CONTINUOUS
10
8.0573946062992121
20
-2.1421035826771653
11
8.0631894881889767
21
-2.1507688188976379
0
LINE
8
BLACK
6
CONTINUOUS
10
8.0631894881889767
20
-2.1507688188976379
11
8.0678043307086611
21
-2.1601160629921261
0
LINE
8
BLACK
6
CONTINUOUS
10
8.0678043307086611
20
-2.1601160629921261
11
8.0711601181102353
21
-2.1699855118110234
0
LINE
8
BLACK
6
CONTINUOUS
10
8.0711601181102353
20
-2.1699855118110234
11
8.0731995669291337
21
-2.1802084251968505
0
LINE
8
BLACK
6
CONTINUOUS
10
8.0731995669291337
20
-2.1802084251968505
11
8.0738877952755903
21
-2.1906100393700787
0
LINE
8
BLACK
6
CONTINUOUS
10
8.0738877952755903
20
-2.1906100393700787
11
8.0738866929133852
21
-2.1906100393700787
0
LINE
8
BLACK
6
CONTINUOUS
10
8.0738866929133852
20
-2.1906100393700787
11
8.0738866929133852
21
-2.1906100787401575
0
LINE
8
BLACK
6
CONTINUOUS
10
8.0738866929133852
20
-2.1906100787401575
11
8.0753936614173227
21
-4.6228010629921261
0
LINE
8
BLACK
6
CONTINUOUS
10
8.0753936614173227
20
-4.6228010629921261
11
8.0747829921259839
21
-4.632699173228346
0
LINE
8
BLACK
6
CONTINUOUS
10
8.0747829921259839
20
-4.632699173228346
11
8.0729481889763779
21
-4.642444921259842
0
LINE
8
BLACK
6
CONTINUOUS
10
8.0729481889763779
20
-4.642444921259842
11
8.0699176771653534
21
-4.6518874803149606
0
LINE
8
BLACK
6
CONTINUOUS
10
8.0699176771653534
20
-4.6518874803149606
11
8.0657383070866135
21
-4.660880748031496
0
LINE
8
BLACK
6
CONTINUOUS
10
8.0657383070866135
20
-4.660880748031496
11
8.0604747637795278
21
-4.669285551181102
0
LINE
8
BLACK
6
CONTINUOUS
10
8.0604747637795278
20
-4.669285551181102
11
8.0542087401574793
21
-4.6769715748031491
0
LINE
8
BLACK
6
CONTINUOUS
10
8.0542087401574793
20
-4.6769715748031491
11
8.0542085433070856
21
-4.6769719291338578
0
LINE
8
BLACK
6
CONTINUOUS
10
8.0542085433070856
20
-4.6769719291338578
11
7.3213700393700787
21
-5.469629921259842
0
LINE
8
BLACK
6
CONTINUOUS
10
7.3213700393700787
20
-5.469629921259842
11
7.3213698818897637
21
-5.4696299999999995
0
LINE
8
BLACK
6
CONTINUOUS
10
7.3213698818897637
20
-5.4696299999999995
11
7.3143140157480317
21
-5.4763803937007873
0
LINE
8
BLACK
6
CONTINUOUS
10
7.3143140157480317
20
-5.4763803937007873
11
7.306485708661417
21
-5.4822175984251968
0
LINE
8
BLACK
6
CONTINUOUS
10
7.306485708661417
20
-5.4822175984251968
11
7.2980025590551181
21
-5.487054015748031
0
LINE
8
BLACK
6
CONTINUOUS
10
7.2980025590551181
20
-5.487054015748031
11
7.2889917716535431
21
-5.4908170866141734
0
LINE
8
BLACK
6
CONTINUOUS
10
7.2889917716535431
20
-5.4908170866141734
11
7.2795885433070868
21
-5.4934503543307089
0
LINE
8
BLACK
6
CONTINUOUS
10
7.2795885433070868
20
-5.4934503543307089
11
7.2699338976377952
21
-5.4949143700787397
0
LINE
8
BLACK
6
CONTINUOUS
10
7.2699338976377952
20
-5.4949143700787397
11
7.2601727165354326
21
-5.4951870866141732
0
LINE
8
BLACK
6
CONTINUOUS
10
7.2601727165354326
20
-5.4951870866141732
11
7.250451417322834
21
-5.4942644881889766
0
LINE
8
BLACK
6
CONTINUOUS
10
7.250451417322834
20
-5.4942644881889766
11
7.2409158267716531
21
-5.4921603543307089
0
LINE
8
BLACK
6
CONTINUOUS
10
7.2409158267716531
20
-5.4921603543307089
11
7.231708976377953
21
-5.4889062992125979
0
LINE
8
BLACK
6
CONTINUOUS
10
7.231708976377953
20
-5.4889062992125979
11
7.2229740944881886
21
-5.4845537007874015
0
LINE
8
BLACK
6
CONTINUOUS
10
7.2229740944881886
20
-5.4845537007874015
11
7.222968582677165
21
-5.4845518110236222
0
LINE
8
BLACK
6
CONTINUOUS
10
7.222968582677165
20
-5.4845518110236222
11
7.222968582677165
21
-5.484551850393701
0
LINE
8
BLACK
6
CONTINUOUS
10
7.222968582677165
20
-5.484551850393701
11
7.2229685433070863
21
-5.4845518110236222
0
LINE
8
BLACK
6
CONTINUOUS
10
7.2229685433070863
20
-5.4845518110236222
11
6.5955393700787397
21
-5.1223054330708662
0
LINE
8
BLACK
6
CONTINUOUS
10
6.5955393700787397
20
-5.1223054330708662
11
6.5955391732283459
21
-5.1223052362204724
0
LINE
8
BLACK
6
CONTINUOUS
10
6.5955391732283459
20
-5.1223052362204724
11
6.5955390551181097
21
-5.1223052362204724
0
LINE
8
BLACK
6
CONTINUOUS
10
6.5955390551181097
20
-5.1223052362204724
11
6.595538818897638
21
-5.1223056692913387
0
LINE
8
BLACK
6
CONTINUOUS
10
6.595538818897638
20
-5.1223056692913387
11
6.5925898031496057
21
-5.1206021259842522
0
LINE
8
BLACK
6
CONTINUOUS
10
6.5925898031496057
20
-5.1206021259842522
11
6.5864168897637798
21
-5.1177229527559058
0
LINE
8
BLACK
6
CONTINUOUS
10
6.5864168897637798
20
-5.1177229527559058
11
6.5800159055118108
21
-5.1153944488188978
0
LINE
8
BLACK
6
CONTINUOUS
10
6.5800159055118108
20
-5.1153944488188978
11
6.5767259842519685
21
-5.1145140551181099
0
LINE
8
BLACK
6
CONTINUOUS
10
6.5767259842519685
20
-5.1145140551181099
11
6.5767259842519685
21
-5.1145140157480311
0
LINE
8
BLACK
6
CONTINUOUS
10
6.5767259842519685
20
-5.1145140157480311
11
6.5767259448818898
21
-5.1145139763779524
0
LINE
8
BLACK
6
CONTINUOUS
10
6.5767259448818898
20
-5.1145139763779524
11
5.9136977165354327
21
-4.9371968897637792
0
LINE
8
BLACK
6
CONTINUOUS
10
5.9136977165354327
20
-4.9371968897637792
11
5.913697677165354
21
-4.937196929133858
0
LINE
8
BLACK
6
CONTINUOUS
10
5.913697677165354
20
-4.937196929133858
11
5.913697677165354
21
-4.9371968897637792
0
LINE
8
BLACK
6
CONTINUOUS
10
5.913697677165354
20
-4.9371968897637792
11
5.9136975984251965
21
-4.9371968897637792
0
LINE
8
BLACK
6
CONTINUOUS
10
5.9136975984251965
20
-4.9371968897637792
11
5.9136961811023623
21
-4.9371961811023617
0
LINE
8
BLACK
6
CONTINUOUS
10
5.9136961811023623
20
-4.9371961811023617
11
5.9104241338582675
21
-4.9363210236220469
0
LINE
8
BLACK
6
CONTINUOUS
10
5.9104241338582675
20
-4.9363210236220469
11
5.9037492913385829
21
-4.935146496062992
0
LINE
8
BLACK
6
CONTINUOUS
10
5.9037492913385829
20
-4.935146496062992
11
5.8969975984251963
21
-4.9345568897637797
0
LINE
8
BLACK
6
CONTINUOUS
10
5.8969975984251963
20
-4.9345568897637797
11
5.8936089370078735
21
-4.9345570472440947
0
LINE
8
BLACK
6
CONTINUOUS
10
5.8936089370078735
20
-4.9345570472440947
11
5.8936089370078735
21
-4.9345570866141735
0
LINE
8
BLACK
6
CONTINUOUS
10
5.8936089370078735
20
-4.9345570866141735
11
5.8936088976377947
21
-4.9345570866141735
0
LINE
8
BLACK
6
CONTINUOUS
10
5.8936088976377947
20
-4.9345570866141735
11
5.2704914960629923
21
-4.9345570866141735
0
LINE
8
BLACK
6
CONTINUOUS
10
5.2704914960629923
20
-4.9345570866141735
11
5.2600853149606301
21
-4.9338749606299208
0
LINE
8
BLACK
6
CONTINUOUS
10
5.2600853149606301
20
-4.9338749606299208
11
5.2498572440944882
21
-4.9318404330708656
0
LINE
8
BLACK
6
CONTINUOUS
10
5.2498572440944882
20
-4.9318404330708656
11
5.2399821653543306
21
-4.9284882677165349
0
LINE
8
BLACK
6
CONTINUOUS
10
5.2399821653543306
20
-4.9284882677165349
11
5.230629133858268
21
-4.9238759055118111
0
LINE
8
BLACK
6
CONTINUOUS
10
5.230629133858268
20
-4.9238759055118111
11
5.2219581496062988
21
-4.9180821653543303
0
LINE
8
BLACK
6
CONTINUOUS
10
5.2219581496062988
20
-4.9180821653543303
11
5.2141175590551176
21
-4.9112062598425199
0
LINE
8
BLACK
6
CONTINUOUS
10
5.2141175590551176
20
-4.9112062598425199
11
5.2072414960629922
21
-4.9033657480314963
0
LINE
8
BLACK
6
CONTINUOUS
10
5.2072414960629922
20
-4.9033657480314963
11
5.2014475984251964
21
-4.8946948818897633
0
LINE
8
BLACK
6
CONTINUOUS
10
5.2014475984251964
20
-4.8946948818897633
11
5.1968350787401576
21
-4.8853418897637795
0
LINE
8
BLACK
6
CONTINUOUS
10
5.1968350787401576
20
-4.8853418897637795
11
5.1934827559055119
21
-4.8754669291338582
0
LINE
8
BLACK
6
CONTINUOUS
10
5.1934827559055119
20
-4.8754669291338582
11
5.1914480314960629
21
-4.8652388582677162
0
LINE
8
BLACK
6
CONTINUOUS
10
5.1914480314960629
20
-4.8652388582677162
11
5.1907657480314962
21
-4.8548327165354328
0
LINE
8
BLACK
6
CONTINUOUS
10
5.1907657480314962
20
-4.8548327165354328
11
5.1907670866141729
21
-4.8548327165354328
0
LINE
8
BLACK
6
CONTINUOUS
10
5.1907670866141729
20
-4.8548327165354328
11
5.1907670866141729
21
-4.854832677165354
0
LINE
8
BLACK
6
CONTINUOUS
10
5.1907670866141729
20
-4.854832677165354
11
5.1907670866141729
21
-4.3201870078740159
0
LINE
8
BLACK
6
CONTINUOUS
10
5.1907670866141729
20
-4.3201870078740159
11
5.1907670866141729
21
-4.3201869685039371
0
LINE
8
BLACK
6
CONTINUOUS
10
5.1907670866141729
20
-4.3201869685039371
11
5.1907657480314962
21
-4.3201869685039371
0
LINE
8
BLACK
6
CONTINUOUS
10
5.1907657480314962
20
-4.3201869685039371
11
5.1907658661417324
21
-4.3150906299212597
0
LINE
8
BLACK
6
CONTINUOUS
10
5.1907658661417324
20
-4.3150906299212597
11
5.1894357086614171
21
-4.304985039370079
0
LINE
8
BLACK
6
CONTINUOUS
10
5.1894357086614171
20
-4.304985039370079
11
5.1867977952755906
21
-4.2951395669291337
0
LINE
8
BLACK
6
CONTINUOUS
10
5.1867977952755906
20
-4.2951395669291337
11
5.1828973622047245
21
-4.2857226377952751
0
LINE
8
BLACK
6
CONTINUOUS
10
5.1828973622047245
20
-4.2857226377952751
11
5.1778011417322833
21
-4.2768953937007872
0
LINE
8
BLACK
6
CONTINUOUS
10
5.1778011417322833
20
-4.2768953937007872
11
5.1715962598425191
21
-4.2688088582677164
0
LINE
8
BLACK
6
CONTINUOUS
10
5.1715962598425191
20
-4.2688088582677164
11
5.1643889763779525
21
-4.2616014566929135
0
LINE
8
BLACK
6
CONTINUOUS
10
5.1643889763779525
20
-4.2616014566929135
11
5.1563025590551179
21
-4.255396456692913
0
LINE
8
BLACK
6
CONTINUOUS
10
5.1563025590551179
20
-4.255396456692913
11
5.1474753937007875
21
-4.2503000787401577
0
LINE
8
BLACK
6
CONTINUOUS
10
5.1474753937007875
20
-4.2503000787401577
11
5.1380585433070864
21
-4.2463994881889766
0
LINE
8
BLACK
6
CONTINUOUS
10
5.1380585433070864
20
-4.2463994881889766
11
5.1282131102362207
21
-4.2437614173228342
0
LINE
8
BLACK
6
CONTINUOUS
10
5.1282131102362207
20
-4.2437614173228342
11
5.1181075590551179
21
-4.242431062992126
0
LINE
8
BLACK
6
CONTINUOUS
10
5.1181075590551179
20
-4.242431062992126
11
5.1130111811023617
21
-4.2424311023622048
0
LINE
8
BLACK
6
CONTINUOUS
10
5.1130111811023617
20
-4.2424311023622048
11
2.7354521259842519
21
-4.2424311023622048
0
LINE
8
BLACK
6
CONTINUOUS
10
2.7354521259842519
20
-4.2424311023622048
11
2.7250459448818898
21
-4.241748976377953
0
LINE
8
BLACK
6
CONTINUOUS
10
2.7250459448818898
20
-4.241748976377953
11
2.7148178740157478
21
-4.2397144488188978
0
LINE
8
BLACK
6
CONTINUOUS
10
2.7148178740157478
20
-4.2397144488188978
11
2.7049427952755907
21
-4.2363622834645671
0
LINE
8
BLACK
6
CONTINUOUS
10
2.7049427952755907
20
-4.2363622834645671
11
2.6955897637795276
21
-4.2317499212598424
0
LINE
8
BLACK
6
CONTINUOUS
10
2.6955897637795276
20
-4.2317499212598424
11
2.6869187795275589
21
-4.2259561811023625
0
LINE
8
BLACK
6
CONTINUOUS
10
2.6869187795275589
20
-4.2259561811023625
11
2.6790781889763777
21
-4.2190802755905512
0
LINE
8
BLACK
6
CONTINUOUS
10
2.6790781889763777
20
-4.2190802755905512
11
2.6722021259842519
21
-4.2112397637795276
0
LINE
8
BLACK
6
CONTINUOUS
10
2.6722021259842519
20
-4.2112397637795276
11
2.6664082283464565
21
-4.2025688976377955
0
LINE
8
BLACK
6
CONTINUOUS
10
2.6664082283464565
20
-4.2025688976377955
11
2.6617957086614172
21
-4.1932159055118108
0
LINE
8
BLACK
6
CONTINUOUS
10
2.6617957086614172
20
-4.1932159055118108
11
2.6584433858267715
21
-4.1833409448818895
0
LINE
8
BLACK
6
CONTINUOUS
10
2.6584433858267715
20
-4.1833409448818895
11
2.6564086614173226
21
-4.1731128740157484
0
LINE
8
BLACK
6
CONTINUOUS
10
2.6564086614173226
20
-4.1731128740157484
11
2.6557263779527558
21
-4.1627067322834641
0
LINE
8
BLACK
6
CONTINUOUS
10
2.6557263779527558
20
-4.1627067322834641
11
2.6557277165354329
21
-4.1627067322834641
0
LINE
8
BLACK
6
CONTINUOUS
10
2.6557277165354329
20
-4.1627067322834641
11
2.6557277165354329
21
-4.1627066929133854
0
LINE
8
BLACK
6
CONTINUOUS
10
2.6557277165354329
20
-4.1627066929133854
11
2.6557094094488187
21
-2.230030275590551
0
LINE
8
BLACK
6
CONTINUOUS
10
2.6557094094488187
20
-2.230030275590551
11
2.6563916141732284
21
-2.2196242913385826
0
LINE
8
BLACK
6
CONTINUOUS
10
2.6563916141732284
20
-2.2196242913385826
11
2.6584262204724407
21
-2.2093963779527557
0
LINE
8
BLACK
6
CONTINUOUS
10
2.6584262204724407
20
-2.2093963779527557
11
2.6617784251968502
21
-2.1995215354330706
0
LINE
8
BLACK
6
CONTINUOUS
10
2.6617784251968502
20
-2.1995215354330706
11
2.6663909055118111
21
-2.1901687401574801
0
LINE
8
BLACK
6
CONTINUOUS
10
2.6663909055118111
20
-2.1901687401574801
11
2.6721846850393702
21
-2.1814979921259843
0
LINE
8
BLACK
6
CONTINUOUS
10
2.6721846850393702
20
-2.1814979921259843
11
2.6790606299212598
21
-2.1736576377952757
0
LINE
8
BLACK
6
CONTINUOUS
10
2.6790606299212598
20
-2.1736576377952757
11
2.6869011417322834
21
-2.1667818897637794
0
LINE
8
BLACK
6
CONTINUOUS
10
2.6869011417322834
20
-2.1667818897637794
11
2.6955720472440943
21
-2.160988307086614
0
LINE
8
BLACK
6
CONTINUOUS
10
2.6955720472440943
20
-2.160988307086614
11
2.704924960629921
21
-2.1563761023622048
0
LINE
8
BLACK
6
CONTINUOUS
10
2.704924960629921
20
-2.1563761023622048
11
2.7147998818897636
21
-2.1530241338582679
0
LINE
8
BLACK
6
CONTINUOUS
10
2.7147998818897636
20
-2.1530241338582679
11
2.7250278346456693
21
-2.1509897637795277
0
LINE
8
BLACK
6
CONTINUOUS
10
2.7250278346456693
20
-2.1509897637795277
11
2.7354134251968505
21
-2.1503091338582676
0
LINE
8
BLACK
6
CONTINUOUS
10
2.7354134251968505
20
-2.1503091338582676
11
2.7354338188976377
21
-2.1503051181102362
0
LINE
8
BLACK
6
CONTINUOUS
10
2.7354338188976377
20
-2.1503051181102362
11
4.193916692913386
21
-2.1503051181102362
0
LINE
8
BLACK
6
CONTINUOUS
10
4.193916692913386
20
-2.1503051181102362
11
4.193916692913386
21
-2.1119192913385825
0
LINE
8
BLACK
6
CONTINUOUS
10
4.193916692913386
20
-2.1119192913385825
11
4.193916692913386
21
-2.1119192519685037
0
LINE
8
BLACK
6
CONTINUOUS
10
4.193916692913386
20
-2.1119192519685037
11
4.1945985039370077
21
-2.1015129921259841
0
LINE
8
BLACK
6
CONTINUOUS
10
4.1945985039370077
20
-2.1015129921259841
11
4.1966327952755904
21
-2.09128468503937
0
LINE
8
BLACK
6
CONTINUOUS
10
4.1966327952755904
20
-2.09128468503937
11
4.1999847637795273
21
-2.0814094094488187
0
LINE
8
BLACK
6
CONTINUOUS
10
4.1999847637795273
20
-2.0814094094488187
11
4.2045970472440946
21
-2.0720561417322836
0
LINE
8
BLACK
6
CONTINUOUS
10
4.2045970472440946
20
-2.0720561417322836
11
4.2103907480314957
21
-2.0633849212598423
0
LINE
8
BLACK
6
CONTINUOUS
10
4.2103907480314957
20
-2.0633849212598423
11
4.2172666929133857
21
-2.0555441338582678
0
LINE
8
BLACK
6
CONTINUOUS
10
4.2172666929133857
20
-2.0555441338582678
11
4.2251072440944881
21
-2.0486679133858265
0
LINE
8
BLACK
6
CONTINUOUS
10
4.2251072440944881
20
-2.0486679133858265
11
4.2337782677165352
21
-2.0428739763779529
0
LINE
8
BLACK
6
CONTINUOUS
10
4.2337782677165352
20
-2.0428739763779529
11
4.2431313779527562
21
-2.0382613779527556
0
LINE
8
BLACK
6
CONTINUOUS
10
4.2431313779527562
20
-2.0382613779527556
11
4.2530065354330704
21
-2.0349090551181104
0
LINE
8
BLACK
6
CONTINUOUS
10
4.2530065354330704
20
-2.0349090551181104
11
4.2632347637795274
21
-2.0328744488188977
0
LINE
8
BLACK
6
CONTINUOUS
10
4.2632347637795274
20
-2.0328744488188977
11
4.2736411023622045
21
-2.0321922834645667
0
LINE
8
BLACK
6
CONTINUOUS
10
4.2736411023622045
20
-2.0321922834645667
11
4.2736411023622045
21
-2.0321948818897639
0
LINE
8
BLACK
6
CONTINUOUS
10
4.2736411023622045
20
-2.0321948818897639
11
4.904611102362205
21
-2.0321948818897639
0
LINE
8
BLACK
6
CONTINUOUS
10
4.904611102362205
20
-2.0321948818897639
11
4.9052284251968503
21
-2.0227728346456693
0
LINE
8
BLACK
6
CONTINUOUS
10
4.9052284251968503
20
-2.0227728346456693
11
4.907262716535433
21
-2.0125445275590552
0
LINE
8
BLACK
6
CONTINUOUS
10
4.907262716535433
20
-2.0125445275590552
11
4.9106146850393699
21
-2.0026692519685039
0
LINE
8
BLACK
6
CONTINUOUS
10
4.9106146850393699
20
-2.0026692519685039
11
4.9152269685039371
21
-1.9933159842519685
0
LINE
8
BLACK
6
CONTINUOUS
10
4.9152269685039371
20
-1.9933159842519685
11
4.9210206692913383
21
-1.9846447637795275
0
LINE
8
BLACK
6
CONTINUOUS
10
4.9210206692913383
20
-1.9846447637795275
11
4.9278966141732283
21
-1.9768039763779528
0
LINE
8
BLACK
6
CONTINUOUS
10
4.9278966141732283
20
-1.9768039763779528
11
4.9357371653543307
21
-1.9699277559055117
0
LINE
8
BLACK
6
CONTINUOUS
10
4.9357371653543307
20
-1.9699277559055117
11
4.9444081889763778
21
-1.9641338188976378
0
LINE
8
BLACK
6
CONTINUOUS
10
4.9444081889763778
20
-1.9641338188976378
11
4.9537612992125979
21
-1.9595212204724408
0
LINE
8
BLACK
6
CONTINUOUS
10
4.9537612992125979
20
-1.9595212204724408
11
4.963636456692913
21
-1.9561688976377953
0
LINE
8
BLACK
6
CONTINUOUS
10
4.963636456692913
20
-1.9561688976377953
11
4.97386468503937
21
-1.9541342913385826
0
LINE
8
BLACK
6
CONTINUOUS
10
4.97386468503937
20
-1.9541342913385826
11
4.9842710236220471
21
-1.9534521259842519
0
LINE
8
BLACK
6
CONTINUOUS
10
4.9842710236220471
20
-1.9534521259842519
11
4.9842710236220471
21
-1.9534547244094487
0
LINE
8
BLACK
6
CONTINUOUS
10
4.9791745275590547
20
-1.9554206692913385
11
4.969068779527559
21
-1.9567512204724409
0
LINE
8
BLACK
6
CONTINUOUS
10
4.969068779527559
20
-1.9567512204724409
11
4.9592231496062995
21
-1.9593894488188976
0
LINE
8
BLACK
6
CONTINUOUS
10
4.9592231496062995
20
-1.9593894488188976
11
4.9498061023622046
21
-1.9632902362204725
0
LINE
8
BLACK
6
CONTINUOUS
10
4.9498061023622046
20
-1.9632902362204725
11
4.940978818897638
21
-1.9683868503937008
0
LINE
8
BLACK
6
CONTINUOUS
10
4.940978818897638
20
-1.9683868503937008
11
4.9328922834645672
21
-1.9745920866141733
0
LINE
8
BLACK
6
CONTINUOUS
10
4.9328922834645672
20
-1.9745920866141733
11
4.9256848818897634
21
-1.9817997244094487
0
LINE
8
BLACK
6
CONTINUOUS
10
4.9256848818897634
20
-1.9817997244094487
11
4.9194799212598426
21
-1.9898864566929133
0
LINE
8
BLACK
6
CONTINUOUS
10
4.9194799212598426
20
-1.9898864566929133
11
4.9143835826771651
21
-1.9987139370078739
0
LINE
8
BLACK
6
CONTINUOUS
10
4.9143835826771651
20
-1.9987139370078739
11
4.9104831102362203
21
-2.0081311023622046
0
LINE
8
BLACK
6
CONTINUOUS
10
4.9104831102362203
20
-2.0081311023622046
11
4.9078451968503938
21
-2.017976811023622
0
LINE
8
BLACK
6
CONTINUOUS
10
4.9078451968503938
20
-2.017976811023622
11
4.9065149999999997
21
-2.0280826377952756
0
LINE
8
BLACK
6
CONTINUOUS
10
4.9065149999999997
20
-2.0280826377952756
11
4.906515118110236
21
-2.0331790944881889
0
LINE
8
BLACK
6
CONTINUOUS
10
4.906515118110236
20
-2.0331790944881889
11
4.9064401968503937
21
-2.0334096850393699
0
LINE
8
BLACK
6
CONTINUOUS
10
4.9064401968503937
20
-2.0334096850393699
11
4.9064401968503937
21
-2.0335557874015748
0
LINE
8
BLACK
6
CONTINUOUS
10
4.9064401968503937
20
-2.0335557874015748
11
4.9063698818897636
21
-2.0336260629921261
0
LINE
8
BLACK
6
CONTINUOUS
10
4.9063698818897636
20
-2.0336260629921261
11
4.9063271653543303
21
-2.0337576377952757
0
LINE
8
BLACK
6
CONTINUOUS
10
4.9063271653543303
20
-2.0337576377952757
11
4.9060023228346452
21
-2.0339936220472441
0
LINE
8
BLACK
6
CONTINUOUS
10
4.9060023228346452
20
-2.0339936220472441
11
4.905907519685039
21
-2.034088464566929
0
LINE
8
BLACK
6
CONTINUOUS
10
4.905907519685039
20
-2.034088464566929
11
4.9058583464566929
21
-2.0340982283464566
0
LINE
8
BLACK
6
CONTINUOUS
10
4.9058583464566929
20
-2.0340982283464566
11
4.9058350393700785
21
-2.0341151968503937
0
LINE
8
BLACK
6
CONTINUOUS
10
4.9058350393700785
20
-2.0341151968503937
11
4.9057730708661413
21
-2.0341151968503937
0
LINE
8
BLACK
6
CONTINUOUS
10
4.9057730708661413
20
-2.0341151968503937
11
4.9055308661417323
21
-2.0341633858267718
0
LINE
8
BLACK
6
CONTINUOUS
10
4.9055308661417323
20
-2.0341633858267718
11
4.2736411023622045
21
-2.0341633858267718
0
LINE
8
BLACK
6
CONTINUOUS
10
4.2736411023622045
20
-2.0341633858267718
11
4.2736280314960631
21
-2.0341607874015746
0
LINE
8
BLACK
6
CONTINUOUS
10
4.2736280314960631
20
-2.0341607874015746
11
4.2685446062992121
21
-2.0341608267716533
0
LINE
8
BLACK
6
CONTINUOUS
10
4.2685446062992121
20
-2.0341608267716533
11
4.2584388582677164
21
-2.0354913779527557
0
LINE
8
BLACK
6
CONTINUOUS
10
4.2584388582677164
20
-2.0354913779527557
11
4.2485932283464569
21
-2.0381296062992127
0
LINE
8
BLACK
6
CONTINUOUS
10
4.2485932283464569
20
-2.0381296062992127
11
4.2391761811023621
21
-2.0420303937007875
0
LINE
8
BLACK
6
CONTINUOUS
10
4.2391761811023621
20
-2.0420303937007875
11
4.2303488976377954
21
-2.0471270078740158
0
LINE
8
BLACK
6
CONTINUOUS
10
4.2303488976377954
20
-2.0471270078740158
11
4.2222623622047246
21
-2.0533322440944883
0
LINE
8
BLACK
6
CONTINUOUS
10
4.2222623622047246
20
-2.0533322440944883
11
4.2150549606299208
21
-2.0605398818897638
0
LINE
8
BLACK
6
CONTINUOUS
10
4.2150549606299208
20
-2.0605398818897638
11
4.20885
21
-2.0686266141732284
0
LINE
8
BLACK
6
CONTINUOUS
10
4.20885
20
-2.0686266141732284
11
4.2037536614173225
21
-2.0774540944881887
0
LINE
8
BLACK
6
CONTINUOUS
10
4.2037536614173225
20
-2.0774540944881887
11
4.1998531889763777
21
-2.0868712598425194
0
LINE
8
BLACK
6
CONTINUOUS
10
4.1998531889763777
20
-2.0868712598425194
11
4.1972152755905512
21
-2.0967169685039369
0
LINE
8
BLACK
6
CONTINUOUS
10
4.1972152755905512
20
-2.0967169685039369
11
4.1958850787401571
21
-2.1068227952755905
0
LINE
8
BLACK
6
CONTINUOUS
10
4.1958850787401571
20
-2.1068227952755905
11
4.1958851968503934
21
-2.1119192519685037
0
LINE
8
BLACK
6
CONTINUOUS
10
4.1958851968503934
20
-2.1119192519685037
11
4.1958851968503934
21
-2.1119192913385825
0
LINE
8
BLACK
6
CONTINUOUS
10
4.1958851968503934
20
-2.1119192913385825
11
4.1958851968503934
21
-2.1512893700787403
0
LINE
8
BLACK
6
CONTINUOUS
10
4.1958851968503934
20
-2.1512893700787403
11
4.1958102755905511
21
-2.1516660236220471
0
LINE
8
BLACK
6
CONTINUOUS
10
4.1958102755905511
20
-2.1516660236220471
11
4.1952775984251964
21
-2.1521987007874017
0
LINE
8
BLACK
6
CONTINUOUS
10
4.1952775984251964
20
-2.1521987007874017
11
4.1949009448818897
21
-2.152273622047244
0
LINE
8
BLACK
6
CONTINUOUS
10
4.1949009448818897
20
-2.152273622047244
11
2.7354338188976377
21
-2.152273622047244
0
LINE
8
BLACK
6
CONTINUOUS
10
2.7354338188976377
20
-2.152273622047244
11
2.7354338188976377
21
-2.1522763385826771
0
LINE
8
BLACK
6
CONTINUOUS
10
2.7354338188976377
20
-2.1522763385826771
11
2.7303374803149607
21
-2.1522762598425196
0
LINE
8
BLACK
6
CONTINUOUS
10
2.7303374803149607
20
-2.1522762598425196
11
2.7202320078740159
21
-2.1536065748031494
0
LINE
8
BLACK
6
CONTINUOUS
10
2.7202320078740159
20
-2.1536065748031494
11
2.7103866535433072
21
-2.1562445275590552
0
LINE
8
BLACK
6
CONTINUOUS
10
2.7103866535433072
20
-2.1562445275590552
11
2.7009698425196849
21
-2.160145
0
LINE
8
BLACK
6
CONTINUOUS
10
2.7009698425196849
20
-2.160145
11
2.692142677165354
21
-2.1652412204724407
0
LINE
8
BLACK
6
CONTINUOUS
10
2.692142677165354
20
-2.1652412204724407
11
2.6840562204724407
21
-2.1714459842519687
0
LINE
8
BLACK
6
CONTINUOUS
10
2.6840562204724407
20
-2.1714459842519687
11
2.6768488582677166
21
-2.1786531889763778
0
LINE
8
BLACK
6
CONTINUOUS
10
2.6768488582677166
20
-2.1786531889763778
11
2.6706438582677166
21
-2.1867394881889761
0
LINE
8
BLACK
6
CONTINUOUS
10
2.6706438582677166
20
-2.1867394881889761
11
2.6655474015748033
21
-2.1955664960629919
0
LINE
8
BLACK
6
CONTINUOUS
10
2.6655474015748033
20
-2.1955664960629919
11
2.6616467322834647
21
-2.2049832283464568
0
LINE
8
BLACK
6
CONTINUOUS
10
2.6616467322834647
20
-2.2049832283464568
11
2.6590085433070865
21
-2.2148285433070867
0
LINE
8
BLACK
6
CONTINUOUS
10
2.6590085433070865
20
-2.2148285433070867
11
2.6576779921259841
21
-2.2249339763779528
0
LINE
8
BLACK
6
CONTINUOUS
10
2.6576779921259841
20
-2.2249339763779528
11
2.6576779133858266
21
-2.230030275590551
0
LINE
8
BLACK
6
CONTINUOUS
10
2.6576779133858266
20
-2.230030275590551
11
2.6576962204724408
21
-4.1627066929133854
0
LINE
8
BLACK
6
CONTINUOUS
10
2.6576962204724408
20
-4.1627066929133854
11
2.6576948818897637
21
-4.1627133858267715
0
LINE
8
BLACK
6
CONTINUOUS
10
2.6576948818897637
20
-4.1627133858267715
11
2.6576949999999999
21
-4.1678030708661415
0
LINE
8
BLACK
6
CONTINUOUS
10
2.6576949999999999
20
-4.1678030708661415
11
2.6590256692913385
21
-4.1779086614173231
0
LINE
8
BLACK
6
CONTINUOUS
10
2.6590256692913385
20
-4.1779086614173231
11
2.6616639370078738
21
-4.1877541338582676
0
LINE
8
BLACK
6
CONTINUOUS
10
2.6616639370078738
20
-4.1877541338582676
11
2.6655647244094487
21
-4.1971710236220474
0
LINE
8
BLACK
6
CONTINUOUS
10
2.6655647244094487
20
-4.1971710236220474
11
2.6706612598425195
21
-4.2059981889763778
0
LINE
8
BLACK
6
CONTINUOUS
10
2.6706612598425195
20
-4.2059981889763778
11
2.676866338582677
21
-4.2140846456692911
0
LINE
8
BLACK
6
CONTINUOUS
10
2.676866338582677
20
-4.2140846456692911
11
2.6840738188976379
21
-4.2212920078740153
0
LINE
8
BLACK
6
CONTINUOUS
10
2.6840738188976379
20
-4.2212920078740153
11
2.6921603937007874
21
-4.227496968503937
0
LINE
8
BLACK
6
CONTINUOUS
10
2.6921603937007874
20
-4.227496968503937
11
2.7009876377952757
21
-4.2325933464566932
0
LINE
8
BLACK
6
CONTINUOUS
10
2.7009876377952757
20
-4.2325933464566932
11
2.7104046062992126
21
-4.236493976377953
0
LINE
8
BLACK
6
CONTINUOUS
10
2.7104046062992126
20
-4.236493976377953
11
2.7202501181102363
21
-4.2391320866141733
0
LINE
8
BLACK
6
CONTINUOUS
10
2.7202501181102363
20
-4.2391320866141733
11
2.7303557086614174
21
-4.2404625590551177
0
LINE
8
BLACK
6
CONTINUOUS
10
2.7303557086614174
20
-4.2404625590551177
11
2.7354521259842519
21
-4.2404625984251965
0
LINE
8
BLACK
6
CONTINUOUS
10
2.7354521259842519
20
-4.2404625984251965
11
5.1130111811023617
21
-4.2404625984251965
0
LINE
8
BLACK
6
CONTINUOUS
10
5.1130111811023617
20
-4.2404625984251965
11
5.1234172440944885
21
-4.2411445669291341
0
LINE
8
BLACK
6
CONTINUOUS
10
5.1234172440944885
20
-4.2411445669291341
11
5.1336453149606296
21
-4.2431790157480318
0
LINE
8
BLACK
6
CONTINUOUS
10
5.1336453149606296
20
-4.2431790157480318
11
5.1435202755905509
21
-4.246531102362205
0
LINE
8
BLACK
6
CONTINUOUS
10
5.1435202755905509
20
-4.246531102362205
11
5.1528732283464569
21
-4.2511435039370076
0
LINE
8
BLACK
6
CONTINUOUS
10
5.1528732283464569
20
-4.2511435039370076
11
5.1615441338582677
21
-4.2569372440944884
0
LINE
8
BLACK
6
CONTINUOUS
10
5.1615441338582677
20
-4.2569372440944884
11
5.1693845669291338
21
-4.2638132283464563
0
LINE
8
BLACK
6
CONTINUOUS
10
5.1693845669291338
20
-4.2638132283464563
11
5.1762604330708664
21
-4.2716538188976374
0
LINE
8
BLACK
6
CONTINUOUS
10
5.1762604330708664
20
-4.2716538188976374
11
5.1820540157480313
21
-4.2803248031496066
0
LINE
8
BLACK
6
CONTINUOUS
10
5.1820540157480313
20
-4.2803248031496066
11
5.1866662598425197
21
-4.2896778346456692
0
LINE
8
BLACK
6
CONTINUOUS
10
5.1866662598425197
20
-4.2896778346456692
11
5.1900181889763779
21
-4.299552874015748
0
LINE
8
BLACK
6
CONTINUOUS
10
5.1900181889763779
20
-4.299552874015748
11
5.1920524409448818
21
-4.30978094488189
0
LINE
8
BLACK
6
CONTINUOUS
10
5.1920524409448818
20
-4.30978094488189
11
5.1927335826771657
21
-4.3201769291338579
0
LINE
8
BLACK
6
CONTINUOUS
10
5.1927335826771657
20
-4.3201769291338579
11
5.1927355905511812
21
-4.3201870078740159
0
LINE
8
BLACK
6
CONTINUOUS
10
5.1927355905511812
20
-4.3201870078740159
11
5.1927355905511812
21
-4.854832677165354
0
LINE
8
BLACK
6
CONTINUOUS
10
5.1927355905511812
20
-4.854832677165354
11
5.1927342519685036
21
-4.8548393700787402
0
LINE
8
BLACK
6
CONTINUOUS
10
5.1927342519685036
20
-4.8548393700787402
11
5.1927343700787398
21
-4.8599290551181102
0
LINE
8
BLACK
6
CONTINUOUS
10
5.1927343700787398
20
-4.8599290551181102
11
5.1940650393700789
21
-4.8700346456692909
0
LINE
8
BLACK
6
CONTINUOUS
10
5.1940650393700789
20
-4.8700346456692909
11
5.1967033070866142
21
-4.8798801181102363
0
LINE
8
BLACK
6
CONTINUOUS
10
5.1967033070866142
20
-4.8798801181102363
11
5.2006040944881891
21
-4.8892970078740152
0
LINE
8
BLACK
6
CONTINUOUS
10
5.2006040944881891
20
-4.8892970078740152
11
5.2057006299212594
21
-4.8981241732283465
0
LINE
8
BLACK
6
CONTINUOUS
10
5.2057006299212594
20
-4.8981241732283465
11
5.2119057086614173
21
-4.9062106299212598
0
LINE
8
BLACK
6
CONTINUOUS
10
5.2119057086614173
20
-4.9062106299212598
11
5.2191131889763778
21
-4.913417992125984
0
LINE
8
BLACK
6
CONTINUOUS
10
5.2191131889763778
20
-4.913417992125984
11
5.2271997637795273
21
-4.9196229527559057
0
LINE
8
BLACK
6
CONTINUOUS
10
5.2271997637795273
20
-4.9196229527559057
11
5.2360270078740152
21
-4.924719330708661
0
LINE
8
BLACK
6
CONTINUOUS
10
5.2360270078740152
20
-4.924719330708661
11
5.2454439763779526
21
-4.9286199606299208
0
LINE
8
BLACK
6
CONTINUOUS
10
5.2454439763779526
20
-4.9286199606299208
11
5.2552894881889767
21
-4.931258070866142
0
LINE
8
BLACK
6
CONTINUOUS
10
5.2552894881889767
20
-4.931258070866142
11
5.2653950787401573
21
-4.9325885433070864
0
LINE
8
BLACK
6
CONTINUOUS
10
5.2653950787401573
20
-4.9325885433070864
11
5.2704914960629923
21
-4.9325885826771652
0
LINE
8
BLACK
6
CONTINUOUS
10
5.2704914960629923
20
-4.9325885826771652
11
5.8936089370078735
21
-4.9325885826771652
0
LINE
8
BLACK
6
CONTINUOUS
10
5.8936089370078735
20
-4.9325885826771652
11
5.8936089763779522
21
-4.9325885826771652
0
LINE
8
BLACK
6
CONTINUOUS
10
5.8936089763779522
20
-4.9325885826771652
11
5.9005446850393701
21
-4.9328909842519684
0
LINE
8
BLACK
6
CONTINUOUS
10
5.9005446850393701
20
-4.9328909842519684
11
5.9074277952755905
21
-4.9337953543307087
0
LINE
8
BLACK
6
CONTINUOUS
10
5.9074277952755905
20
-4.9337953543307087
11
5.9142061811023625
21
-4.9352949212598425
0
LINE
8
BLACK
6
CONTINUOUS
10
5.9142061811023625
20
-4.9352949212598425
11
5.914206102362205
21
-4.9352951968503938
0
LINE
8
BLACK
6
CONTINUOUS
10
5.914206102362205
20
-4.9352951968503938
11
5.9142061417322838
21
-4.9352951968503938
0
LINE
8
BLACK
6
CONTINUOUS
10
5.9142061417322838
20
-4.9352951968503938
11
5.9142061811023625
21
-4.9352952362204725
0
LINE
8
BLACK
6
CONTINUOUS
10
5.9142061811023625
20
-4.9352952362204725
11
6.5772346062992124
21
-5.1126123622047244
0
LINE
8
BLACK
6
CONTINUOUS
10
6.5772346062992124
20
-5.1126123622047244
11
6.5772348031496062
21
-5.1126124409448819
0
LINE
8
BLACK
6
CONTINUOUS
10
6.5772348031496062
20
-5.1126124409448819
11
6.5838894881889765
21
-5.1147083858267717
0
LINE
8
BLACK
6
CONTINUOUS
10
6.5838894881889765
20
-5.1147083858267717
11
6.5903356299212597
21
-5.1173781496062993
0
LINE
8
BLACK
6
CONTINUOUS
10
6.5903356299212597
20
-5.1173781496062993
11
6.5965203543307087
21
-5.1205995275590546
0
LINE
8
BLACK
6
CONTINUOUS
10
6.5965203543307087
20
-5.1205995275590546
11
6.5965236220472443
21
-5.1206006299212596
0
LINE
8
BLACK
6
CONTINUOUS
10
6.5965236220472443
20
-5.1206006299212596
11
7.2239527559055112
21
-5.4828470078740157
0
LINE
8
BLACK
6
CONTINUOUS
10
7.2239527559055112
20
-5.4828470078740157
11
7.2239531889763775
21
-5.4828463385826769
0
LINE
8
BLACK
6
CONTINUOUS
10
7.2239531889763775
20
-5.4828463385826769
11
7.2285006692913383
21
-5.4854681889763777
0
LINE
8
BLACK
6
CONTINUOUS
10
7.2285006692913383
20
-5.4854681889763777
11
7.2382156299212594
21
-5.4894474803149604
0
LINE
8
BLACK
6
CONTINUOUS
10
7.2382156299212594
20
-5.4894474803149604
11
7.248377283464567
21
-5.4920849212598428
0
LINE
8
BLACK
6
CONTINUOUS
10
7.248377283464567
20
-5.4920849212598428
11
7.2588011811023616
21
-5.4933326771653546
0
LINE
8
BLACK
6
CONTINUOUS
10
7.2588011811023616
20
-5.4933326771653546
11
7.2692982677165352
21
-5.49316811023622
0
LINE
8
BLACK
6
CONTINUOUS
10
7.2692982677165352
20
-5.49316811023622
11
7.2796779527559057
21
-5.4915941732283464
0
LINE
8
BLACK
6
CONTINUOUS
10
7.2796779527559057
20
-5.4915941732283464
11
7.289751889763779
21
-5.4886394488188976
0
LINE
8
BLACK
6
CONTINUOUS
10
7.289751889763779
20
-5.4886394488188976
11
7.2993373228346456
21
-5.4843575196850392
0
LINE
8
BLACK
6
CONTINUOUS
10
7.2993373228346456
20
-5.4843575196850392
11
7.308260275590551
21
-5.4788261811023622
0
LINE
8
BLACK
6
CONTINUOUS
10
7.308260275590551
20
-5.4788261811023622
11
7.3163588582677166
21
-5.4721457086614169
0
LINE
8
BLACK
6
CONTINUOUS
10
7.3163588582677166
20
-5.4721457086614169
11
7.319924606299212
21
-5.4682935433070865
0
LINE
8
BLACK
6
CONTINUOUS
10
7.319924606299212
20
-5.4682935433070865
11
7.3199246456692908
21
-5.4682935826771653
0
LINE
8
BLACK
6
CONTINUOUS
10
7.3199246456692908
20
-5.4682935826771653
11
8.0527631102362207
21
-4.6756355905511811
0
LINE
8
BLACK
6
CONTINUOUS
10
8.0527631102362207
20
-4.6756355905511811
11
8.0527631102362207
21
-4.6756355511811023
0
LINE
8
BLACK
6
CONTINUOUS
10
8.0527631102362207
20
-4.6756355511811023
11
8.0560546850393706
21
-4.6720795275590552
0
LINE
8
BLACK
6
CONTINUOUS
10
8.0560546850393706
20
-4.6720795275590552
11
8.0616992913385825
21
-4.6642018503937006
0
LINE
8
BLACK
6
CONTINUOUS
10
8.0616992913385825
20
-4.6642018503937006
11
8.0663222440944882
21
-4.6556843307086613
0
LINE
8
BLACK
6
CONTINUOUS
10
8.0663222440944882
20
-4.6556843307086613
11
8.0698519685039365
21
-4.6466587795275593
0
LINE
8
BLACK
6
CONTINUOUS
10
8.0698519685039365
20
-4.6466587795275593
11
8.0722338582677171
21
-4.6372648425196852
0
LINE
8
BLACK
6
CONTINUOUS
10
8.0722338582677171
20
-4.6372648425196852
11
8.0734310629921264
21
-4.6276478740157483
0
LINE
8
BLACK
6
CONTINUOUS
10
8.0734310629921264
20
-4.6276478740157483
11
8.0734251574803153
21
-4.6228022440944878
0
LINE
8
BLACK
6
CONTINUOUS
10
8.0734251574803153
20
-4.6228022440944878
11
8.0719181889763778
21
-2.1906112598425196
0
LINE
8
BLACK
6
CONTINUOUS
10
8.0719181889763778
20
-2.1906112598425196
11
8.0719192519685041
21
-2.1906057086614172
0
LINE
8
BLACK
6
CONTINUOUS
10
8.0719192519685041
20
-2.1906057086614172
11
8.0719161417322827
21
-2.1855168897637793
0
LINE
8
BLACK
6
CONTINUOUS
10
8.0719161417322827
20
-2.1855168897637793
11
8.0705802755905509
21
-2.175416062992126
0
LINE
8
BLACK
6
CONTINUOUS
10
8.0705802755905509
20
-2.175416062992126
11
8.067937952755905
21
-2.1655758661417321
0
LINE
8
BLACK
6
CONTINUOUS
10
8.067937952755905
20
-2.1655758661417321
11
8.0640343700787405
21
-2.1561645275590551
0
LINE
8
BLACK
6
CONTINUOUS
10
8.0640343700787405
20
-2.1561645275590551
11
8.0589361811023625
21
-2.1473429527559054
0
LINE
8
BLACK
6
CONTINUOUS
10
8.0589361811023625
20
-2.1473429527559054
11
8.0527306692913392
21
-2.1392619291338582
0
LINE
8
BLACK
6
CONTINUOUS
10
8.0527306692913392
20
-2.1392619291338582
11
8.045523818897637
21
-2.1320596456692913
0
LINE
8
BLACK
6
CONTINUOUS
10
8.045523818897637
20
-2.1320596456692913
11
8.0374388976377951
21
-2.1258592125984253
0
LINE
8
BLACK
6
CONTINUOUS
10
8.0374388976377951
20
-2.1258592125984253
11
8.0286140551181102
21
-2.1207666535433072
0
LINE
8
BLACK
6
CONTINUOUS
10
8.0286140551181102
20
-2.1207666535433072
11
8.0192002755905509
21
-2.1168690157480317
0
LINE
8
BLACK
6
CONTINUOUS
10
8.0192002755905509
20
-2.1168690157480317
11
8.0093583858267721
21
-2.1142329133858269
0
LINE
8
BLACK
6
CONTINUOUS
10
8.0093583858267721
20
-2.1142329133858269
11
7.9992566929133853
21
-2.1129034645669291
0
LINE
8
BLACK
6
CONTINUOUS
10
7.9992566929133853
20
-2.1129034645669291
11
7.9941623228346455
21
-2.1129035433070866
0
LINE
8
BLACK
6
CONTINUOUS
10
7.9941623228346455
20
-2.1129035433070866
11
6.2811214173228347
21
-2.1129035433070866
0
LINE
8
BLACK
6
CONTINUOUS
10
6.2811214173228347
20
-2.1129035433070866
11
6.280879173228346
21
-2.1128553543307085
0
LINE
8
BLACK
6
CONTINUOUS
10
6.280879173228346
20
-2.1128553543307085
11
6.2808172440944876
21
-2.1128553543307085
0
LINE
8
BLACK
6
CONTINUOUS
10
6.2808172440944876
20
-2.1128553543307085
11
6.2807938976377953
21
-2.1128383858267714
0
LINE
8
BLACK
6
CONTINUOUS
10
6.2807938976377953
20
-2.1128383858267714
11
6.2807447637795271
21
-2.1128286220472439
0
LINE
8
BLACK
6
CONTINUOUS
10
6.2807447637795271
20
-2.1128286220472439
11
6.2806499212598421
21
-2.1127337795275589
0
LINE
8
BLACK
6
CONTINUOUS
10
6.2806499212598421
20
-2.1127337795275589
11
6.2803251181102357
21
-2.1124977952755906
0
LINE
8
BLACK
6
CONTINUOUS
10
6.2803251181102357
20
-2.1124977952755906
11
6.2802823622047246
21
-2.1123662204724409
0
LINE
8
BLACK
6
CONTINUOUS
10
6.2802823622047246
20
-2.1123662204724409
11
6.2802120866141733
21
-2.1122959448818897
0
LINE
8
BLACK
6
CONTINUOUS
10
6.2802120866141733
20
-2.1122959448818897
11
6.2802120866141733
21
-2.1121498425196852
0
LINE
8
BLACK
6
CONTINUOUS
10
6.2802120866141733
20
-2.1121498425196852
11
6.280137165354331
21
-2.1119192519685037
0
LINE
8
BLACK
6
CONTINUOUS
10
6.280137165354331
20
-2.1119192519685037
11
6.2801358267716534
21
-2.1119192519685037
0
LINE
8
BLACK
6
CONTINUOUS
10
6.2801358267716534
20
-2.1119192519685037
11
6.2801359448818896
21
-2.1068229133858267
0
LINE
8
BLACK
6
CONTINUOUS
10
6.2801359448818896
20
-2.1068229133858267
11
6.2788057874015744
21
-2.0967173228346456
0
LINE
8
BLACK
6
CONTINUOUS
10
6.2788057874015744
20
-2.0967173228346456
11
6.2761678740157478
21
-2.0868718503937007
0
LINE
8
BLACK
6
CONTINUOUS
10
6.2761678740157478
20
-2.0868718503937007
11
6.2722674409448818
21
-2.0774549212598425
0
LINE
8
BLACK
6
CONTINUOUS
10
6.2722674409448818
20
-2.0774549212598425
11
6.2671712204724406
21
-2.0686276771653542
0
LINE
8
BLACK
6
CONTINUOUS
10
6.2671712204724406
20
-2.0686276771653542
11
6.2609663385826773
21
-2.0605411417322834
0
LINE
8
BLACK
6
CONTINUOUS
10
6.2609663385826773
20
-2.0605411417322834
11
6.2537590551181097
21
-2.05333374015748
0
LINE
8
BLACK
6
CONTINUOUS
10
6.2537590551181097
20
-2.05333374015748
11
6.2456726377952752
21
-2.0471287401574805
0
LINE
8
BLACK
6
CONTINUOUS
10
6.2456726377952752
20
-2.0471287401574805
11
6.2368454724409448
21
-2.0420323622047243
0
LINE
8
BLACK
6
CONTINUOUS
10
6.2368454724409448
20
-2.0420323622047243
11
6.2274286220472437
21
-2.0381317716535432
0
LINE
8
BLACK
6
CONTINUOUS
10
6.2274286220472437
20
-2.0381317716535432
11
6.217583188976378
21
-2.0354937007874017
0
LINE
8
BLACK
6
CONTINUOUS
10
6.217583188976378
20
-2.0354937007874017
11
6.2074776377952752
21
-2.0341633464566931
0
LINE
8
BLACK
6
CONTINUOUS
10
6.2074776377952752
20
-2.0341633464566931
11
6.2023812598425199
21
-2.0341633858267718
0
LINE
8
BLACK
6
CONTINUOUS
10
6.2023812598425199
20
-2.0341633858267718
11
5.5618300787401571
21
-2.0341633858267718
0
LINE
8
BLACK
6
CONTINUOUS
10
5.5618300787401571
20
-2.0341633858267718
11
5.5615878346456693
21
-2.0341151968503937
0
LINE
8
BLACK
6
CONTINUOUS
10
5.5615878346456693
20
-2.0341151968503937
11
5.5615259055118109
21
-2.0341151968503937
0
LINE
8
BLACK
6
CONTINUOUS
10
5.5615259055118109
20
-2.0341151968503937
11
5.5615025590551177
21
-2.0340982283464566
0
LINE
8
BLACK
6
CONTINUOUS
10
5.5615025590551177
20
-2.0340982283464566
11
5.5614534251968504
21
-2.034088464566929
0
LINE
8
BLACK
6
CONTINUOUS
10
5.5614534251968504
20
-2.034088464566929
11
5.5613585826771654
21
-2.0339936220472441
0
LINE
8
BLACK
6
CONTINUOUS
10
5.5613585826771654
20
-2.0339936220472441
11
5.5610337795275591
21
-2.0337576377952757
0
LINE
8
BLACK
6
CONTINUOUS
10
5.5610337795275591
20
-2.0337576377952757
11
5.560991023622047
21
-2.0336260629921261
0
LINE
8
BLACK
6
CONTINUOUS
10
5.560991023622047
20
-2.0336260629921261
11
5.5609207480314957
21
-2.0335557874015748
0
LINE
8
BLACK
6
CONTINUOUS
10
5.5609207480314957
20
-2.0335557874015748
11
5.5609207480314957
21
-2.0334096850393699
0
LINE
8
BLACK
6
CONTINUOUS
10
5.5609207480314957
20
-2.0334096850393699
11
5.5608458267716534
21
-2.0331790944881889
0
LINE
8
BLACK
6
CONTINUOUS
10
5.5608458267716534
20
-2.0331790944881889
11
5.5608444881889758
21
-2.0331790944881889
0
LINE
8
BLACK
6
CONTINUOUS
10
5.5608444881889758
20
-2.0331790944881889
11
5.5608446062992121
21
-2.0280827559055119
0
LINE
8
BLACK
6
CONTINUOUS
10
5.5608446062992121
20
-2.0280827559055119
11
5.5595144488188977
21
-2.0179771653543308
0
LINE
8
BLACK
6
CONTINUOUS
10
5.5595144488188977
20
-2.0179771653543308
11
5.5568765354330711
21
-2.0081316929133859
0
LINE
8
BLACK
6
CONTINUOUS
10
5.5568765354330711
20
-2.0081316929133859
11
5.5529761023622042
21
-1.9987147637795275
0
LINE
8
BLACK
6
CONTINUOUS
10
5.5529761023622042
20
-1.9987147637795275
11
5.5478798818897639
21
-1.9898875196850394
0
LINE
8
BLACK
6
CONTINUOUS
10
5.5478798818897639
20
-1.9898875196850394
11
5.5416749999999997
21
-1.9818009842519684
0
LINE
8
BLACK
6
CONTINUOUS
10
5.5416749999999997
20
-1.9818009842519684
11
5.534467716535433
21
-1.9745935826771652
0
LINE
8
BLACK
6
CONTINUOUS
10
5.534467716535433
20
-1.9745935826771652
11
5.5263812992125985
21
-1.9683885826771652
0
LINE
8
BLACK
6
CONTINUOUS
10
5.5263812992125985
20
-1.9683885826771652
11
5.5175541338582672
21
-1.9632922047244095
0
LINE
8
BLACK
6
CONTINUOUS
10
5.5175541338582672
20
-1.9632922047244095
11
5.508137283464567
21
-1.9593916141732284
0
LINE
8
BLACK
6
CONTINUOUS
10
5.508137283464567
20
-1.9593916141732284
11
5.4982918503937004
21
-1.9567535433070866
0
LINE
8
BLACK
6
CONTINUOUS
10
5.4982918503937004
20
-1.9567535433070866
11
5.4881862992125985
21
-1.955423188976378
0
LINE
8
BLACK
6
CONTINUOUS
10
5.4881862992125985
20
-1.955423188976378
11
5.4830899212598423
21
-1.9554232283464565
0
LINE
8
BLACK
6
CONTINUOUS
10
5.4830899212598423
20
-1.9554232283464565
11
4.9842710236220471
21
-1.9554232283464565
0
LINE
8
BLACK
6
CONTINUOUS
10
4.9842710236220471
20
-1.9554232283464565
11
4.9842579527559057
21
-1.9554206299212598
0
LINE
8
BLACK
6
CONTINUOUS
10
4.9842579527559057
20
-1.9554206299212598
11
4.9791745275590547
21
-1.9554206692913385
  0
ENDSEC
  0
EOF
