  0
SECTION
  2
HEADER
  9
$ANGBASE
  50
0.0
  9
$ANGDIR
  70
1
  9
$MEASUREMENT
  70
0
  0
ENDSEC
  0
SECTION
  2
TABLES
  0
TABLE
  2
LTYPE
  70
4
  0
LTYPE
  5
40F
  2
CONTINUOUS
  70
0
  3
Solid line
  72
65
  73
0
  40
0.0
  0
LTYPE
  5
410
  2
DASHDOT
 70
0
  3
Dash Dot ____ _ ____ _
 72
65
 73
4
 40
2.0
 49
1.25
 49
-0.25
 49
0.25
 49
-0.25
  0
LTYPE
  5
411
  2
DASHED
 70
0
  3
Dashed __ __ __ __ __
 72
65
 73
2
 40
0.75
 49
0.5
 49
-0.25
  0
LTYPE
  5
43B
  2
DOTTED
 70
0
  3
Dotted .  .  .  .
 72
65
 73
2
 40
0.2
 49
0.0
 49
-0.2
  0
ENDTAB
  0
TABLE
  2
STYLE
  70
4
  0
STYLE
  2
KICAD
  70
0
  40
0
  41
1
  42
1
  50
0
  71
0
  3
isocp.shx
  0
STYLE
  2
KICADB
  70
0
  40
0
  41
1
  42
1
  50
0
  71
0
  3
isocp.shx
  0
STYLE
  2
KICADI
  70
0
  40
0
  41
1
  42
1
  50
15
  71
0
  3
isocp.shx
  0
STYLE
  2
KICADBI
  70
0
  40
0
  41
1
  42
1
  50
15
  71
0
  3
isocp.shx
  0
ENDTAB
  0
TABLE
  2
LAYER
  70
1
  0
LAYER
  2
BLACK
  70
0
  62
7
  6
CONTINUOUS
  0
ENDTAB
  0
ENDSEC
  0
SECTION
  2
ENTITIES
0
LINE
8
BLACK
6
CONTINUOUS
10
9.8645373622047234
20
-4.400929803149606
11
9.865043779527559
21
-4.401507283464567
0
LINE
8
BLACK
6
CONTINUOUS
10
9.865043779527559
20
-4.401507283464567
11
10.1504768503936997
21
-4.895891850393701
0
LINE
8
BLACK
6
CONTINUOUS
10
10.1504768503936997
20
-4.895891850393701
11
10.1507237007874007
21
-4.8966190551181104
0
LINE
8
BLACK
6
CONTINUOUS
10
10.1507237007874007
20
-4.8966190551181104
11
10.1507237401574795
21
-4.8966191338582679
0
LINE
8
BLACK
6
CONTINUOUS
10
10.1507237401574795
20
-4.8966191338582679
11
10.1503338188976375
21
-4.8980744488188979
0
LINE
8
BLACK
6
CONTINUOUS
10
10.1503338188976375
20
-4.8980744488188979
11
10.1497563385826766
21
-4.8985808661417325
0
LINE
8
BLACK
6
CONTINUOUS
10
10.1497563385826766
20
-4.8985808661417325
11
9.6553717716535434
21
-5.1840139370078742
0
LINE
8
BLACK
6
CONTINUOUS
10
9.6553717716535434
20
-5.1840139370078742
11
9.6546445275590553
21
-5.1842607874015743
0
LINE
8
BLACK
6
CONTINUOUS
10
9.6546445275590553
20
-5.1842607874015743
11
9.6546444881889766
21
-5.184260826771653
0
LINE
8
BLACK
6
CONTINUOUS
10
9.6546444881889766
20
-5.184260826771653
11
9.6546444488188978
21
-5.1842607874015743
0
LINE
8
BLACK
6
CONTINUOUS
10
9.6546444488188978
20
-5.1842607874015743
11
9.6546444488188978
21
-5.184260826771653
0
LINE
8
BLACK
6
CONTINUOUS
10
9.6546444488188978
20
-5.184260826771653
11
9.6531891732283466
21
-5.1838709055118111
0
LINE
8
BLACK
6
CONTINUOUS
10
9.6531891732283466
20
-5.1838709055118111
11
9.6526827559055111
21
-5.1832934251968501
0
LINE
8
BLACK
6
CONTINUOUS
10
9.6526827559055111
20
-5.1832934251968501
11
9.3672496850393703
21
-4.6889088582677161
0
LINE
8
BLACK
6
CONTINUOUS
10
9.3672496850393703
20
-4.6889088582677161
11
9.3670027952755905
21
-4.6881815354330705
0
LINE
8
BLACK
6
CONTINUOUS
10
9.3670027952755905
20
-4.6881815354330705
11
9.3673927165354325
21
-4.6867262598425192
0
LINE
8
BLACK
6
CONTINUOUS
10
9.3673927165354325
20
-4.6867262598425192
11
9.3679701968503934
21
-4.6862198425196846
0
LINE
8
BLACK
6
CONTINUOUS
10
9.3679701968503934
20
-4.6862198425196846
11
9.8623547637795266
21
-4.4007867716535429
0
LINE
8
BLACK
6
CONTINUOUS
10
9.8623547637795266
20
-4.4007867716535429
11
9.8630820866141722
21
-4.4005398818897641
0
LINE
8
BLACK
6
CONTINUOUS
10
9.8630820866141722
20
-4.4005398818897641
11
9.8645373622047234
21
-4.400929803149606
0
LINE
8
BLACK
6
CONTINUOUS
10
9.3716434251968508
20
-4.6886451181102364
11
9.6551080314960629
21
-5.1796201574803149
0
LINE
8
BLACK
6
CONTINUOUS
10
9.6551080314960629
20
-5.1796201574803149
11
10.1460830708661423
21
-4.8961555511811019
0
LINE
8
BLACK
6
CONTINUOUS
10
10.1460830708661423
20
-4.8961555511811019
11
9.8626184645669284
21
-4.4051805118110234
0
LINE
8
BLACK
6
CONTINUOUS
10
9.8626184645669284
20
-4.4051805118110234
11
9.3716434251968508
21
-4.6886451181102364
0
LINE
8
BLACK
6
CONTINUOUS
10
7.0131501968503933
20
-4.388837125984252
11
7.0138774409448814
21
-4.3890840157480318
0
LINE
8
BLACK
6
CONTINUOUS
10
7.0138774409448814
20
-4.3890840157480318
11
7.5082620078740154
21
-4.6745170866141734
0
LINE
8
BLACK
6
CONTINUOUS
10
7.5082620078740154
20
-4.6745170866141734
11
7.5088394881889764
21
-4.6750235039370081
0
LINE
8
BLACK
6
CONTINUOUS
10
7.5088394881889764
20
-4.6750235039370081
11
7.5092294094488183
21
-4.6764787795275593
0
LINE
8
BLACK
6
CONTINUOUS
10
7.5092294094488183
20
-4.6764787795275593
11
7.5089825196850395
21
-4.6772061023622049
0
LINE
8
BLACK
6
CONTINUOUS
10
7.5089825196850395
20
-4.6772061023622049
11
7.2235494488188978
21
-5.171590669291338
0
LINE
8
BLACK
6
CONTINUOUS
10
7.2235494488188978
20
-5.171590669291338
11
7.2230430314960632
21
-5.172168149606299
0
LINE
8
BLACK
6
CONTINUOUS
10
7.2230430314960632
20
-5.172168149606299
11
7.2215877559055119
21
-5.1725580708661418
0
LINE
8
BLACK
6
CONTINUOUS
10
7.2215877559055119
20
-5.1725580708661418
11
7.2208604330708663
21
-5.1723111811023621
0
LINE
8
BLACK
6
CONTINUOUS
10
7.2208604330708663
20
-5.1723111811023621
11
6.7264758661417323
21
-4.8868781102362204
0
LINE
8
BLACK
6
CONTINUOUS
10
6.7264758661417323
20
-4.8868781102362204
11
6.7258983858267714
21
-4.8863716929133858
0
LINE
8
BLACK
6
CONTINUOUS
10
6.7258983858267714
20
-4.8863716929133858
11
6.7255084645669294
21
-4.8849164173228345
0
LINE
8
BLACK
6
CONTINUOUS
10
6.7255084645669294
20
-4.8849164173228345
11
6.7257553543307083
21
-4.8841890944881889
0
LINE
8
BLACK
6
CONTINUOUS
10
6.7257553543307083
20
-4.8841890944881889
11
7.0111884251968499
21
-4.3898045275590549
0
LINE
8
BLACK
6
CONTINUOUS
10
7.0111884251968499
20
-4.3898045275590549
11
7.0116948425196846
21
-4.389227047244094
0
LINE
8
BLACK
6
CONTINUOUS
10
7.0116948425196846
20
-4.389227047244094
11
7.0131501181102358
21
-4.388837125984252
0
LINE
8
BLACK
6
CONTINUOUS
10
7.0131501181102358
20
-4.388837125984252
11
7.0131501574803146
21
-4.388837125984252
0
LINE
8
BLACK
6
CONTINUOUS
10
7.0131501574803146
20
-4.388837125984252
11
7.0131501968503933
21
-4.388837125984252
0
LINE
8
BLACK
6
CONTINUOUS
10
6.7301490944881888
20
-4.8844527952755907
11
7.2211241338582672
21
-5.1679174015748028
0
LINE
8
BLACK
6
CONTINUOUS
10
7.2211241338582672
20
-5.1679174015748028
11
7.5045887401574802
21
-4.6769423622047244
0
LINE
8
BLACK
6
CONTINUOUS
10
7.5045887401574802
20
-4.6769423622047244
11
7.0136137007874018
21
-4.3934777559055114
0
LINE
8
BLACK
6
CONTINUOUS
10
7.0136137007874018
20
-4.3934777559055114
11
6.7301490944881888
21
-4.8844527952755907
0
LINE
8
BLACK
6
CONTINUOUS
10
10.7002437795275593
20
-4.1447701574803153
11
10.7005834645669289
21
-4.1454590157480311
0
LINE
8
BLACK
6
CONTINUOUS
10
10.7005834645669289
20
-4.1454590157480311
11
10.8483344881889767
21
-4.6968733464566927
0
LINE
8
BLACK
6
CONTINUOUS
10
10.8483344881889767
20
-4.6968733464566927
11
10.8483847244094491
21
-4.6976397637795273
0
LINE
8
BLACK
6
CONTINUOUS
10
10.8483847244094491
20
-4.6976397637795273
11
10.8476313779527551
21
-4.6989445669291339
0
LINE
8
BLACK
6
CONTINUOUS
10
10.8476313779527551
20
-4.6989445669291339
11
10.8469425196850384
21
-4.6992842519685034
0
LINE
8
BLACK
6
CONTINUOUS
10
10.8469425196850384
20
-4.6992842519685034
11
10.2955282283464573
21
-4.8470352755905513
0
LINE
8
BLACK
6
CONTINUOUS
10
10.2955282283464573
20
-4.8470352755905513
11
10.294761811023621
21
-4.8470855118110237
0
LINE
8
BLACK
6
CONTINUOUS
10
10.294761811023621
20
-4.8470855118110237
11
10.2934570078740162
21
-4.8463322047244093
0
LINE
8
BLACK
6
CONTINUOUS
10
10.2934570078740162
20
-4.8463322047244093
11
10.2934569685039374
21
-4.846332086614173
0
LINE
8
BLACK
6
CONTINUOUS
10
10.2934569685039374
20
-4.846332086614173
11
10.2931173228346449
21
-4.8456433070866138
0
LINE
8
BLACK
6
CONTINUOUS
10
10.2931173228346449
20
-4.8456433070866138
11
10.1453662992125988
21
-4.2942290157480318
0
LINE
8
BLACK
6
CONTINUOUS
10
10.1453662992125988
20
-4.2942290157480318
11
10.1453160629921264
21
-4.2934625984251964
0
LINE
8
BLACK
6
CONTINUOUS
10
10.1453160629921264
20
-4.2934625984251964
11
10.1460693700787399
21
-4.2921577952755907
0
LINE
8
BLACK
6
CONTINUOUS
10
10.1460693700787399
20
-4.2921577952755907
11
10.1467582283464566
21
-4.2918181102362203
0
LINE
8
BLACK
6
CONTINUOUS
10
10.1467582283464566
20
-4.2918181102362203
11
10.6981725590551182
21
-4.1440670866141733
0
LINE
8
BLACK
6
CONTINUOUS
10
10.6981725590551182
20
-4.1440670866141733
11
10.6989389763779528
21
-4.1440168503937009
0
LINE
8
BLACK
6
CONTINUOUS
10
10.6989389763779528
20
-4.1440168503937009
11
10.7002437795275593
21
-4.1447701574803153
0
LINE
8
BLACK
6
CONTINUOUS
10
10.1496785826771649
20
-4.2951114566929132
11
10.2964106692913386
21
-4.8427229527559055
0
LINE
8
BLACK
6
CONTINUOUS
10
10.2964106692913386
20
-4.8427229527559055
11
10.8440221653543301
21
-4.6959908661417318
0
LINE
8
BLACK
6
CONTINUOUS
10
10.8440221653543301
20
-4.6959908661417318
11
10.6972900787401564
21
-4.1483793700787404
0
LINE
8
BLACK
6
CONTINUOUS
10
10.6972900787401564
20
-4.1483793700787404
11
10.1496785826771649
21
-4.2951114566929132
0
LINE
8
BLACK
6
CONTINUOUS
10
6.1993404724409444
20
-4.1323140944881889
11
6.200106889763779
21
-4.1323643307086613
0
LINE
8
BLACK
6
CONTINUOUS
10
6.200106889763779
20
-4.1323643307086613
11
6.7515211811023619
21
-4.2801153543307082
0
LINE
8
BLACK
6
CONTINUOUS
10
6.7515211811023619
20
-4.2801153543307082
11
6.7522100393700786
21
-4.2804550393700787
0
LINE
8
BLACK
6
CONTINUOUS
10
6.7522100393700786
20
-4.2804550393700787
11
6.7522100787401573
21
-4.2804550787401574
0
LINE
8
BLACK
6
CONTINUOUS
10
6.7522100787401573
20
-4.2804550787401574
11
6.7529633858267717
21
-4.2817598425196852
0
LINE
8
BLACK
6
CONTINUOUS
10
6.7529633858267717
20
-4.2817598425196852
11
6.7529131496062993
21
-4.2825262598425198
0
LINE
8
BLACK
6
CONTINUOUS
10
6.7529131496062993
20
-4.2825262598425198
11
6.6051621259842515
21
-4.8339405905511814
0
LINE
8
BLACK
6
CONTINUOUS
10
6.6051621259842515
20
-4.8339405905511814
11
6.6048224409448819
21
-4.8346294488188972
0
LINE
8
BLACK
6
CONTINUOUS
10
6.6048224409448819
20
-4.8346294488188972
11
6.6035176377952753
21
-4.8353827559055116
0
LINE
8
BLACK
6
CONTINUOUS
10
6.6035176377952753
20
-4.8353827559055116
11
6.6027512204724408
21
-4.8353325196850392
0
LINE
8
BLACK
6
CONTINUOUS
10
6.6027512204724408
20
-4.8353325196850392
11
6.0513368897637791
21
-4.6875814960629922
0
LINE
8
BLACK
6
CONTINUOUS
10
6.0513368897637791
20
-4.6875814960629922
11
6.0506480314960625
21
-4.6872418110236218
0
LINE
8
BLACK
6
CONTINUOUS
10
6.0506480314960625
20
-4.6872418110236218
11
6.049894724409449
21
-4.6859370078740152
0
LINE
8
BLACK
6
CONTINUOUS
10
6.049894724409449
20
-4.6859370078740152
11
6.0499449606299214
21
-4.6851705905511807
0
LINE
8
BLACK
6
CONTINUOUS
10
6.0499449606299214
20
-4.6851705905511807
11
6.1976959842519683
21
-4.1337562992125987
0
LINE
8
BLACK
6
CONTINUOUS
10
6.1976959842519683
20
-4.1337562992125987
11
6.1980356692913388
21
-4.133067440944882
0
LINE
8
BLACK
6
CONTINUOUS
10
6.1980356692913388
20
-4.133067440944882
11
6.1980356692913388
21
-4.1330674015748032
0
LINE
8
BLACK
6
CONTINUOUS
10
6.1980356692913388
20
-4.1330674015748032
11
6.1993404724409444
21
-4.1323140944881889
0
LINE
8
BLACK
6
CONTINUOUS
10
6.0542572440944884
20
-4.6842881102362206
11
6.6018687401574798
21
-4.8310201968503934
0
LINE
8
BLACK
6
CONTINUOUS
10
6.6018687401574798
20
-4.8310201968503934
11
6.7486008267716535
21
-4.2834087007874011
0
LINE
8
BLACK
6
CONTINUOUS
10
6.7486008267716535
20
-4.2834087007874011
11
6.2009893307086612
21
-4.1366766141732283
0
LINE
8
BLACK
6
CONTINUOUS
10
6.2009893307086612
20
-4.1366766141732283
11
6.0542572440944884
21
-4.6842881102362206
0
LINE
8
BLACK
6
CONTINUOUS
10
11.4916981889763772
20
-4.1197167716535432
11
11.4927635433070865
21
-4.1207821259842516
0
LINE
8
BLACK
6
CONTINUOUS
10
11.4927635433070865
20
-4.1207821259842516
11
11.4929133858267711
21
-4.121535433070866
0
LINE
8
BLACK
6
CONTINUOUS
10
11.4929133858267711
20
-4.121535433070866
11
11.4929133858267711
21
-4.6924015748031493
0
LINE
8
BLACK
6
CONTINUOUS
10
11.4929133858267711
20
-4.6924015748031493
11
11.4927635433070865
21
-4.6931548818897637
0
LINE
8
BLACK
6
CONTINUOUS
10
11.4927635433070865
20
-4.6931548818897637
11
11.4916981889763772
21
-4.6942202362204721
0
LINE
8
BLACK
6
CONTINUOUS
10
11.4916981889763772
20
-4.6942202362204721
11
11.4909448818897637
21
-4.6943700787401577
0
LINE
8
BLACK
6
CONTINUOUS
10
11.4909448818897637
20
-4.6943700787401577
11
10.9200787401574804
21
-4.6943700787401577
0
LINE
8
BLACK
6
CONTINUOUS
10
10.9200787401574804
20
-4.6943700787401577
11
10.9193254330708651
21
-4.6942202362204721
0
LINE
8
BLACK
6
CONTINUOUS
10
10.9193254330708651
20
-4.6942202362204721
11
10.9182600787401576
21
-4.6931548818897637
0
LINE
8
BLACK
6
CONTINUOUS
10
10.9182600787401576
20
-4.6931548818897637
11
10.9181102362204729
21
-4.6924015748031493
0
LINE
8
BLACK
6
CONTINUOUS
10
10.9181102362204729
20
-4.6924015748031493
11
10.9181102362204729
21
-4.121535433070866
0
LINE
8
BLACK
6
CONTINUOUS
10
10.9181102362204729
20
-4.121535433070866
11
10.9182600787401576
21
-4.1207821259842516
0
LINE
8
BLACK
6
CONTINUOUS
10
10.9182600787401576
20
-4.1207821259842516
11
10.9193254330708651
21
-4.1197167716535432
0
LINE
8
BLACK
6
CONTINUOUS
10
10.9193254330708651
20
-4.1197167716535432
11
10.9200787401574804
21
-4.1195669291338586
0
LINE
8
BLACK
6
CONTINUOUS
10
10.9200787401574804
20
-4.1195669291338586
11
11.4909448818897637
21
-4.1195669291338586
0
LINE
8
BLACK
6
CONTINUOUS
10
11.4909448818897637
20
-4.1195669291338586
11
11.4916981889763772
21
-4.1197167716535432
0
LINE
8
BLACK
6
CONTINUOUS
10
10.9220472440944878
20
-4.1235039370078743
11
10.9220472440944878
21
-4.6904330708661419
0
LINE
8
BLACK
6
CONTINUOUS
10
10.9220472440944878
20
-4.6904330708661419
11
11.4889763779527563
21
-4.6904330708661419
0
LINE
8
BLACK
6
CONTINUOUS
10
11.4889763779527563
20
-4.6904330708661419
11
11.4889763779527563
21
-4.1235039370078743
0
LINE
8
BLACK
6
CONTINUOUS
10
11.4889763779527563
20
-4.1235039370078743
11
10.9220472440944878
21
-4.1235039370078743
0
LINE
8
BLACK
6
CONTINUOUS
10
5.9789540157480312
20
-4.1080140157480312
11
5.9800193700787396
21
-4.1090793700787405
0
LINE
8
BLACK
6
CONTINUOUS
10
5.9800193700787396
20
-4.1090793700787405
11
5.9801692125984252
21
-4.1098326771653539
0
LINE
8
BLACK
6
CONTINUOUS
10
5.9801692125984252
20
-4.1098326771653539
11
5.9801692125984252
21
-4.6806988188976373
0
LINE
8
BLACK
6
CONTINUOUS
10
5.9801692125984252
20
-4.6806988188976373
11
5.9800193700787396
21
-4.6814521259842516
0
LINE
8
BLACK
6
CONTINUOUS
10
5.9800193700787396
20
-4.6814521259842516
11
5.9789540157480312
21
-4.682517480314961
0
LINE
8
BLACK
6
CONTINUOUS
10
5.9789540157480312
20
-4.682517480314961
11
5.9782007086614168
21
-4.6826673228346456
0
LINE
8
BLACK
6
CONTINUOUS
10
5.9782007086614168
20
-4.6826673228346456
11
5.4073345669291335
21
-4.6826673228346456
0
LINE
8
BLACK
6
CONTINUOUS
10
5.4073345669291335
20
-4.6826673228346456
11
5.4065812598425191
21
-4.682517480314961
0
LINE
8
BLACK
6
CONTINUOUS
10
5.4065812598425191
20
-4.682517480314961
11
5.4055159055118107
21
-4.6814521259842516
0
LINE
8
BLACK
6
CONTINUOUS
10
5.4055159055118107
20
-4.6814521259842516
11
5.4053660629921261
21
-4.6806988188976373
0
LINE
8
BLACK
6
CONTINUOUS
10
5.4053660629921261
20
-4.6806988188976373
11
5.4053660629921261
21
-4.1098326771653539
0
LINE
8
BLACK
6
CONTINUOUS
10
5.4053660629921261
20
-4.1098326771653539
11
5.4055159055118107
21
-4.1090793700787405
0
LINE
8
BLACK
6
CONTINUOUS
10
5.4055159055118107
20
-4.1090793700787405
11
5.4065812598425191
21
-4.1080140157480312
0
LINE
8
BLACK
6
CONTINUOUS
10
5.4065812598425191
20
-4.1080140157480312
11
5.4073345669291335
21
-4.1078641732283465
0
LINE
8
BLACK
6
CONTINUOUS
10
5.4073345669291335
20
-4.1078641732283465
11
5.9782007086614168
21
-4.1078641732283465
0
LINE
8
BLACK
6
CONTINUOUS
10
5.9782007086614168
20
-4.1078641732283465
11
5.9789540157480312
21
-4.1080140157480312
0
LINE
8
BLACK
6
CONTINUOUS
10
5.4093030708661418
20
-4.1118011811023623
11
5.4093030708661418
21
-4.6787303149606299
0
LINE
8
BLACK
6
CONTINUOUS
10
5.4093030708661418
20
-4.6787303149606299
11
5.9762322047244094
21
-4.6787303149606299
0
LINE
8
BLACK
6
CONTINUOUS
10
5.9762322047244094
20
-4.6787303149606299
11
5.9762322047244094
21
-4.1118011811023623
0
LINE
8
BLACK
6
CONTINUOUS
10
5.9762322047244094
20
-4.1118011811023623
11
5.4093030708661418
21
-4.1118011811023623
0
LINE
8
BLACK
6
CONTINUOUS
10
13.3027218110236216
20
-3.6098742519685039
11
13.3037871653543309
21
-3.6109396062992127
0
LINE
8
BLACK
6
CONTINUOUS
10
13.3037871653543309
20
-3.6109396062992127
11
13.3039370078740156
21
-3.6116929133858267
0
LINE
8
BLACK
6
CONTINUOUS
10
13.3039370078740156
20
-3.6116929133858267
11
13.3039370078740156
21
-4.1825590551181104
0
LINE
8
BLACK
6
CONTINUOUS
10
13.3039370078740156
20
-4.1825590551181104
11
13.3037871653543309
21
-4.1833123622047239
0
LINE
8
BLACK
6
CONTINUOUS
10
13.3037871653543309
20
-4.1833123622047239
11
13.3027218110236216
21
-4.1843777165354332
0
LINE
8
BLACK
6
CONTINUOUS
10
13.3027218110236216
20
-4.1843777165354332
11
13.3019685039370081
21
-4.1845275590551179
0
LINE
8
BLACK
6
CONTINUOUS
10
13.3019685039370081
20
-4.1845275590551179
11
12.7311023622047248
21
-4.1845275590551179
0
LINE
8
BLACK
6
CONTINUOUS
10
12.7311023622047248
20
-4.1845275590551179
11
12.7303490551181095
21
-4.1843777165354332
0
LINE
8
BLACK
6
CONTINUOUS
10
12.7303490551181095
20
-4.1843777165354332
11
12.729283700787402
21
-4.1833123622047239
0
LINE
8
BLACK
6
CONTINUOUS
10
12.729283700787402
20
-4.1833123622047239
11
12.7291338582677156
21
-4.1825590551181104
0
LINE
8
BLACK
6
CONTINUOUS
10
12.7291338582677156
20
-4.1825590551181104
11
12.7291338582677156
21
-3.6116929133858267
0
LINE
8
BLACK
6
CONTINUOUS
10
12.7291338582677156
20
-3.6116929133858267
11
12.729283700787402
21
-3.6109396062992127
0
LINE
8
BLACK
6
CONTINUOUS
10
12.729283700787402
20
-3.6109396062992127
11
12.7303490551181095
21
-3.6098742519685039
0
LINE
8
BLACK
6
CONTINUOUS
10
12.7303490551181095
20
-3.6098742519685039
11
12.7311023622047248
21
-3.6097244094488188
0
LINE
8
BLACK
6
CONTINUOUS
10
12.7311023622047248
20
-3.6097244094488188
11
13.3019685039370081
21
-3.6097244094488188
0
LINE
8
BLACK
6
CONTINUOUS
10
13.3019685039370081
20
-3.6097244094488188
11
13.3027218110236216
21
-3.6098742519685039
0
LINE
8
BLACK
6
CONTINUOUS
10
12.7330708661417322
20
-3.6136614173228345
11
12.7330708661417322
21
-4.1805905511811021
0
LINE
8
BLACK
6
CONTINUOUS
10
12.7330708661417322
20
-4.1805905511811021
11
13.2999999999999989
21
-4.1805905511811021
0
LINE
8
BLACK
6
CONTINUOUS
10
13.2999999999999989
20
-4.1805905511811021
11
13.2999999999999989
21
-3.6136614173228345
0
LINE
8
BLACK
6
CONTINUOUS
10
13.2999999999999989
20
-3.6136614173228345
11
12.7330708661417322
21
-3.6136614173228345
0
LINE
8
BLACK
6
CONTINUOUS
10
14.0113832283464568
20
-3.6098742519685039
11
14.0124485826771643
21
-3.6109396062992127
0
LINE
8
BLACK
6
CONTINUOUS
10
14.0124485826771643
20
-3.6109396062992127
11
14.0125984251968507
21
-3.6116929133858267
0
LINE
8
BLACK
6
CONTINUOUS
10
14.0125984251968507
20
-3.6116929133858267
11
14.0125984251968507
21
-4.1825590551181104
0
LINE
8
BLACK
6
CONTINUOUS
10
14.0125984251968507
20
-4.1825590551181104
11
14.0124485826771643
21
-4.1833123622047239
0
LINE
8
BLACK
6
CONTINUOUS
10
14.0124485826771643
20
-4.1833123622047239
11
14.0113832283464568
21
-4.1843777165354332
0
LINE
8
BLACK
6
CONTINUOUS
10
14.0113832283464568
20
-4.1843777165354332
11
14.0106299212598415
21
-4.1845275590551179
0
LINE
8
BLACK
6
CONTINUOUS
10
14.0106299212598415
20
-4.1845275590551179
11
13.4397637795275582
21
-4.1845275590551179
0
LINE
8
BLACK
6
CONTINUOUS
10
13.4397637795275582
20
-4.1845275590551179
11
13.4390104724409447
21
-4.1843777165354332
0
LINE
8
BLACK
6
CONTINUOUS
10
13.4390104724409447
20
-4.1843777165354332
11
13.4379451181102354
21
-4.1833123622047239
0
LINE
8
BLACK
6
CONTINUOUS
10
13.4379451181102354
20
-4.1833123622047239
11
13.4377952755905508
21
-4.1825590551181104
0
LINE
8
BLACK
6
CONTINUOUS
10
13.4377952755905508
20
-4.1825590551181104
11
13.4377952755905508
21
-3.6116929133858267
0
LINE
8
BLACK
6
CONTINUOUS
10
13.4377952755905508
20
-3.6116929133858267
11
13.4379451181102354
21
-3.6109396062992127
0
LINE
8
BLACK
6
CONTINUOUS
10
13.4379451181102354
20
-3.6109396062992127
11
13.4390104724409447
21
-3.6098742519685039
0
LINE
8
BLACK
6
CONTINUOUS
10
13.4390104724409447
20
-3.6098742519685039
11
13.4397637795275582
21
-3.6097244094488188
0
LINE
8
BLACK
6
CONTINUOUS
10
13.4397637795275582
20
-3.6097244094488188
11
14.0106299212598415
21
-3.6097244094488188
0
LINE
8
BLACK
6
CONTINUOUS
10
14.0106299212598415
20
-3.6097244094488188
11
14.0113832283464568
21
-3.6098742519685039
0
LINE
8
BLACK
6
CONTINUOUS
10
13.4417322834645674
20
-3.6136614173228345
11
13.4417322834645674
21
-4.1805905511811021
0
LINE
8
BLACK
6
CONTINUOUS
10
13.4417322834645674
20
-4.1805905511811021
11
14.0086614173228341
21
-4.1805905511811021
0
LINE
8
BLACK
6
CONTINUOUS
10
14.0086614173228341
20
-4.1805905511811021
11
14.0086614173228341
21
-3.6136614173228345
0
LINE
8
BLACK
6
CONTINUOUS
10
14.0086614173228341
20
-3.6136614173228345
11
13.4417322834645674
21
-3.6136614173228345
0
LINE
8
BLACK
6
CONTINUOUS
10
3.3936666929133859
20
-3.5981813385826773
11
3.3947320472440943
21
-3.5992466929133857
0
LINE
8
BLACK
6
CONTINUOUS
10
3.3947320472440943
20
-3.5992466929133857
11
3.3948818897637794
21
-3.6000000000000001
0
LINE
8
BLACK
6
CONTINUOUS
10
3.3948818897637794
20
-3.6000000000000001
11
3.3948818897637794
21
-4.170866141732283
0
LINE
8
BLACK
6
CONTINUOUS
10
3.3948818897637794
20
-4.170866141732283
11
3.3947320472440943
21
-4.1716194488188973
0
LINE
8
BLACK
6
CONTINUOUS
10
3.3947320472440943
20
-4.1716194488188973
11
3.3936666929133859
21
-4.1726848031496058
0
LINE
8
BLACK
6
CONTINUOUS
10
3.3936666929133859
20
-4.1726848031496058
11
3.3929133858267715
21
-4.1728346456692913
0
LINE
8
BLACK
6
CONTINUOUS
10
3.3929133858267715
20
-4.1728346456692913
11
2.8220472440944881
21
-4.1728346456692913
0
LINE
8
BLACK
6
CONTINUOUS
10
2.8220472440944881
20
-4.1728346456692913
11
2.8212939370078738
21
-4.1726848031496058
0
LINE
8
BLACK
6
CONTINUOUS
10
2.8212939370078738
20
-4.1726848031496058
11
2.8202285826771654
21
-4.1716194488188973
0
LINE
8
BLACK
6
CONTINUOUS
10
2.8202285826771654
20
-4.1716194488188973
11
2.8200787401574803
21
-4.170866141732283
0
LINE
8
BLACK
6
CONTINUOUS
10
2.8200787401574803
20
-4.170866141732283
11
2.8200787401574803
21
-3.6000000000000001
0
LINE
8
BLACK
6
CONTINUOUS
10
2.8200787401574803
20
-3.6000000000000001
11
2.8202285826771654
21
-3.5992466929133857
0
LINE
8
BLACK
6
CONTINUOUS
10
2.8202285826771654
20
-3.5992466929133857
11
2.8212939370078738
21
-3.5981813385826773
0
LINE
8
BLACK
6
CONTINUOUS
10
2.8212939370078738
20
-3.5981813385826773
11
2.8220472440944881
21
-3.5980314960629922
0
LINE
8
BLACK
6
CONTINUOUS
10
2.8220472440944881
20
-3.5980314960629922
11
3.3929133858267715
21
-3.5980314960629922
0
LINE
8
BLACK
6
CONTINUOUS
10
3.3929133858267715
20
-3.5980314960629922
11
3.3936666929133859
21
-3.5981813385826773
0
LINE
8
BLACK
6
CONTINUOUS
10
2.824015748031496
20
-3.601968503937008
11
2.824015748031496
21
-4.1688976377952756
0
LINE
8
BLACK
6
CONTINUOUS
10
2.824015748031496
20
-4.1688976377952756
11
3.3909448818897636
21
-4.1688976377952756
0
LINE
8
BLACK
6
CONTINUOUS
10
3.3909448818897636
20
-4.1688976377952756
11
3.3909448818897636
21
-3.601968503937008
0
LINE
8
BLACK
6
CONTINUOUS
10
3.3909448818897636
20
-3.601968503937008
11
2.824015748031496
21
-3.601968503937008
0
LINE
8
BLACK
6
CONTINUOUS
10
4.1023281102362201
20
-3.5981813385826773
11
4.1033934645669294
21
-3.5992466929133857
0
LINE
8
BLACK
6
CONTINUOUS
10
4.1033934645669294
20
-3.5992466929133857
11
4.1035433070866141
21
-3.6000000000000001
0
LINE
8
BLACK
6
CONTINUOUS
10
4.1035433070866141
20
-3.6000000000000001
11
4.1035433070866141
21
-4.170866141732283
0
LINE
8
BLACK
6
CONTINUOUS
10
4.1035433070866141
20
-4.170866141732283
11
4.1033934645669294
21
-4.1716194488188973
0
LINE
8
BLACK
6
CONTINUOUS
10
4.1033934645669294
20
-4.1716194488188973
11
4.1023281102362201
21
-4.1726848031496058
0
LINE
8
BLACK
6
CONTINUOUS
10
4.1023281102362201
20
-4.1726848031496058
11
4.1015748031496058
21
-4.1728346456692913
0
LINE
8
BLACK
6
CONTINUOUS
10
4.1015748031496058
20
-4.1728346456692913
11
3.5307086614173229
21
-4.1728346456692913
0
LINE
8
BLACK
6
CONTINUOUS
10
3.5307086614173229
20
-4.1728346456692913
11
3.5299553543307085
21
-4.1726848031496058
0
LINE
8
BLACK
6
CONTINUOUS
10
3.5299553543307085
20
-4.1726848031496058
11
3.5288900000000001
21
-4.1716194488188973
0
LINE
8
BLACK
6
CONTINUOUS
10
3.5288900000000001
20
-4.1716194488188973
11
3.528740157480315
21
-4.170866141732283
0
LINE
8
BLACK
6
CONTINUOUS
10
3.528740157480315
20
-4.170866141732283
11
3.528740157480315
21
-3.6000000000000001
0
LINE
8
BLACK
6
CONTINUOUS
10
3.528740157480315
20
-3.6000000000000001
11
3.5288900000000001
21
-3.5992466929133857
0
LINE
8
BLACK
6
CONTINUOUS
10
3.5288900000000001
20
-3.5992466929133857
11
3.5299553543307085
21
-3.5981813385826773
0
LINE
8
BLACK
6
CONTINUOUS
10
3.5299553543307085
20
-3.5981813385826773
11
3.5307086614173229
21
-3.5980314960629922
0
LINE
8
BLACK
6
CONTINUOUS
10
3.5307086614173229
20
-3.5980314960629922
11
4.1015748031496058
21
-3.5980314960629922
0
LINE
8
BLACK
6
CONTINUOUS
10
4.1015748031496058
20
-3.5980314960629922
11
4.1023281102362201
21
-3.5981813385826773
0
LINE
8
BLACK
6
CONTINUOUS
10
3.5326771653543307
20
-3.601968503937008
11
3.5326771653543307
21
-4.1688976377952756
0
LINE
8
BLACK
6
CONTINUOUS
10
3.5326771653543307
20
-4.1688976377952756
11
4.0996062992125983
21
-4.1688976377952756
0
LINE
8
BLACK
6
CONTINUOUS
10
4.0996062992125983
20
-4.1688976377952756
11
4.0996062992125983
21
-3.601968503937008
0
LINE
8
BLACK
6
CONTINUOUS
10
4.0996062992125983
20
-3.601968503937008
11
3.5326771653543307
21
-3.601968503937008
0
LINE
8
BLACK
6
CONTINUOUS
10
10.4680761417322827
20
-3.5350711023622048
11
10.469141496062992
21
-3.5361364566929132
0
LINE
8
BLACK
6
CONTINUOUS
10
10.469141496062992
20
-3.5361364566929132
11
10.4692913385826767
21
-3.5368897637795276
0
LINE
8
BLACK
6
CONTINUOUS
10
10.4692913385826767
20
-3.5368897637795276
11
10.4692913385826767
21
-4.1077559055118114
0
LINE
8
BLACK
6
CONTINUOUS
10
10.4692913385826767
20
-4.1077559055118114
11
10.469141496062992
21
-4.1085092125984248
0
LINE
8
BLACK
6
CONTINUOUS
10
10.469141496062992
20
-4.1085092125984248
11
10.4680761417322827
21
-4.1095745669291341
0
LINE
8
BLACK
6
CONTINUOUS
10
10.4680761417322827
20
-4.1095745669291341
11
10.4673228346456693
21
-4.1097244094488188
0
LINE
8
BLACK
6
CONTINUOUS
10
10.4673228346456693
20
-4.1097244094488188
11
9.8964566929133859
21
-4.1097244094488188
0
LINE
8
BLACK
6
CONTINUOUS
10
9.8964566929133859
20
-4.1097244094488188
11
9.8957033858267707
21
-4.1095745669291341
0
LINE
8
BLACK
6
CONTINUOUS
10
9.8957033858267707
20
-4.1095745669291341
11
9.8946380314960631
21
-4.1085092125984248
0
LINE
8
BLACK
6
CONTINUOUS
10
9.8946380314960631
20
-4.1085092125984248
11
9.8944881889763785
21
-4.1077559055118114
0
LINE
8
BLACK
6
CONTINUOUS
10
9.8944881889763785
20
-4.1077559055118114
11
9.8944881889763785
21
-3.5368897637795276
0
LINE
8
BLACK
6
CONTINUOUS
10
9.8944881889763785
20
-3.5368897637795276
11
9.8946380314960631
21
-3.5361364566929132
0
LINE
8
BLACK
6
CONTINUOUS
10
9.8946380314960631
20
-3.5361364566929132
11
9.8957033858267707
21
-3.5350711023622048
0
LINE
8
BLACK
6
CONTINUOUS
10
9.8957033858267707
20
-3.5350711023622048
11
9.8964566929133859
21
-3.5349212598425197
0
LINE
8
BLACK
6
CONTINUOUS
10
9.8964566929133859
20
-3.5349212598425197
11
10.4673228346456693
21
-3.5349212598425197
0
LINE
8
BLACK
6
CONTINUOUS
10
10.4673228346456693
20
-3.5349212598425197
11
10.4680761417322827
21
-3.5350711023622048
0
LINE
8
BLACK
6
CONTINUOUS
10
9.8984251968503933
20
-3.5388582677165354
11
9.8984251968503933
21
-4.105787401574803
0
LINE
8
BLACK
6
CONTINUOUS
10
9.8984251968503933
20
-4.105787401574803
11
10.4653543307086618
21
-4.105787401574803
0
LINE
8
BLACK
6
CONTINUOUS
10
10.4653543307086618
20
-4.105787401574803
11
10.4653543307086618
21
-3.5388582677165354
0
LINE
8
BLACK
6
CONTINUOUS
10
10.4653543307086618
20
-3.5388582677165354
11
9.8984251968503933
21
-3.5388582677165354
0
LINE
8
BLACK
6
CONTINUOUS
10
6.936973779527559
20
-3.5233781889763778
11
6.9380391338582674
21
-3.5244435433070866
0
LINE
8
BLACK
6
CONTINUOUS
10
6.9380391338582674
20
-3.5244435433070866
11
6.938188976377953
21
-3.5251968503937006
0
LINE
8
BLACK
6
CONTINUOUS
10
6.938188976377953
20
-3.5251968503937006
11
6.938188976377953
21
-4.0960629921259839
0
LINE
8
BLACK
6
CONTINUOUS
10
6.938188976377953
20
-4.0960629921259839
11
6.9380391338582674
21
-4.0968162992125983
0
LINE
8
BLACK
6
CONTINUOUS
10
6.9380391338582674
20
-4.0968162992125983
11
6.936973779527559
21
-4.0978816535433067
0
LINE
8
BLACK
6
CONTINUOUS
10
6.936973779527559
20
-4.0978816535433067
11
6.9362204724409446
21
-4.0980314960629922
0
LINE
8
BLACK
6
CONTINUOUS
10
6.9362204724409446
20
-4.0980314960629922
11
6.3653543307086613
21
-4.0980314960629922
0
LINE
8
BLACK
6
CONTINUOUS
10
6.3653543307086613
20
-4.0980314960629922
11
6.3646010236220469
21
-4.0978816535433067
0
LINE
8
BLACK
6
CONTINUOUS
10
6.3646010236220469
20
-4.0978816535433067
11
6.3635356692913385
21
-4.0968162992125983
0
LINE
8
BLACK
6
CONTINUOUS
10
6.3635356692913385
20
-4.0968162992125983
11
6.363385826771653
21
-4.0960629921259839
0
LINE
8
BLACK
6
CONTINUOUS
10
6.363385826771653
20
-4.0960629921259839
11
6.363385826771653
21
-3.5251968503937006
0
LINE
8
BLACK
6
CONTINUOUS
10
6.363385826771653
20
-3.5251968503937006
11
6.3635356692913385
21
-3.5244435433070866
0
LINE
8
BLACK
6
CONTINUOUS
10
6.3635356692913385
20
-3.5244435433070866
11
6.3646010236220469
21
-3.5233781889763778
0
LINE
8
BLACK
6
CONTINUOUS
10
6.3646010236220469
20
-3.5233781889763778
11
6.3653543307086613
21
-3.5232283464566927
0
LINE
8
BLACK
6
CONTINUOUS
10
6.3653543307086613
20
-3.5232283464566927
11
6.9362204724409446
21
-3.5232283464566927
0
LINE
8
BLACK
6
CONTINUOUS
10
6.9362204724409446
20
-3.5232283464566927
11
6.936973779527559
21
-3.5233781889763778
0
LINE
8
BLACK
6
CONTINUOUS
10
6.3673228346456687
20
-3.5271653543307084
11
6.3673228346456687
21
-4.0940944881889765
0
LINE
8
BLACK
6
CONTINUOUS
10
6.3673228346456687
20
-4.0940944881889765
11
6.9342519685039372
21
-4.0940944881889765
0
LINE
8
BLACK
6
CONTINUOUS
10
6.9342519685039372
20
-4.0940944881889765
11
6.9342519685039372
21
-3.5271653543307084
0
LINE
8
BLACK
6
CONTINUOUS
10
6.9342519685039372
20
-3.5271653543307084
11
6.3673228346456687
21
-3.5271653543307084
0
LINE
8
BLACK
6
CONTINUOUS
10
11.1767375590551179
20
-3.4602679527559053
11
11.1778029133858272
21
-3.4613333070866141
0
LINE
8
BLACK
6
CONTINUOUS
10
11.1778029133858272
20
-3.4613333070866141
11
11.1779527559055119
21
-3.462086614173228
0
LINE
8
BLACK
6
CONTINUOUS
10
11.1779527559055119
20
-3.462086614173228
11
11.1779527559055119
21
-4.0329527559055114
0
LINE
8
BLACK
6
CONTINUOUS
10
11.1779527559055119
20
-4.0329527559055114
11
11.1778029133858272
21
-4.0337060629921258
0
LINE
8
BLACK
6
CONTINUOUS
10
11.1778029133858272
20
-4.0337060629921258
11
11.1767375590551179
21
-4.0347714173228342
0
LINE
8
BLACK
6
CONTINUOUS
10
11.1767375590551179
20
-4.0347714173228342
11
11.1759842519685044
21
-4.0349212598425197
0
LINE
8
BLACK
6
CONTINUOUS
10
11.1759842519685044
20
-4.0349212598425197
11
10.6051181102362211
21
-4.0349212598425197
0
LINE
8
BLACK
6
CONTINUOUS
10
10.6051181102362211
20
-4.0349212598425197
11
10.6043648031496058
21
-4.0347714173228342
0
LINE
8
BLACK
6
CONTINUOUS
10
10.6043648031496058
20
-4.0347714173228342
11
10.6032994488188965
21
-4.0337060629921258
0
LINE
8
BLACK
6
CONTINUOUS
10
10.6032994488188965
20
-4.0337060629921258
11
10.6031496062992119
21
-4.0329527559055114
0
LINE
8
BLACK
6
CONTINUOUS
10
10.6031496062992119
20
-4.0329527559055114
11
10.6031496062992119
21
-3.462086614173228
0
LINE
8
BLACK
6
CONTINUOUS
10
10.6031496062992119
20
-3.462086614173228
11
10.6032994488188965
21
-3.4613333070866141
0
LINE
8
BLACK
6
CONTINUOUS
10
10.6032994488188965
20
-3.4613333070866141
11
10.6043648031496058
21
-3.4602679527559053
0
LINE
8
BLACK
6
CONTINUOUS
10
10.6043648031496058
20
-3.4602679527559053
11
10.6051181102362211
21
-3.4601181102362202
0
LINE
8
BLACK
6
CONTINUOUS
10
10.6051181102362211
20
-3.4601181102362202
11
11.1759842519685044
21
-3.4601181102362202
0
LINE
8
BLACK
6
CONTINUOUS
10
11.1759842519685044
20
-3.4601181102362202
11
11.1767375590551179
21
-3.4602679527559053
0
LINE
8
BLACK
6
CONTINUOUS
10
10.6070866141732285
20
-3.4640551181102359
11
10.6070866141732285
21
-4.030984251968504
0
LINE
8
BLACK
6
CONTINUOUS
10
10.6070866141732285
20
-4.030984251968504
11
11.1740157480314952
21
-4.030984251968504
0
LINE
8
BLACK
6
CONTINUOUS
10
11.1740157480314952
20
-4.030984251968504
11
11.1740157480314952
21
-3.4640551181102359
0
LINE
8
BLACK
6
CONTINUOUS
10
11.1740157480314952
20
-3.4640551181102359
11
10.6070866141732285
21
-3.4640551181102359
0
LINE
8
BLACK
6
CONTINUOUS
10
12.5940603937007864
20
-3.4602679527559053
11
12.5951257480314958
21
-3.4613333070866141
0
LINE
8
BLACK
6
CONTINUOUS
10
12.5951257480314958
20
-3.4613333070866141
11
12.5952755905511804
21
-3.462086614173228
0
LINE
8
BLACK
6
CONTINUOUS
10
12.5952755905511804
20
-3.462086614173228
11
12.5952755905511804
21
-4.0329527559055114
0
LINE
8
BLACK
6
CONTINUOUS
10
12.5952755905511804
20
-4.0329527559055114
11
12.5951257480314958
21
-4.0337060629921258
0
LINE
8
BLACK
6
CONTINUOUS
10
12.5951257480314958
20
-4.0337060629921258
11
12.5940603937007864
21
-4.0347714173228342
0
LINE
8
BLACK
6
CONTINUOUS
10
12.5940603937007864
20
-4.0347714173228342
11
12.593307086614173
21
-4.0349212598425197
0
LINE
8
BLACK
6
CONTINUOUS
10
12.593307086614173
20
-4.0349212598425197
11
12.0224409448818896
21
-4.0349212598425197
0
LINE
8
BLACK
6
CONTINUOUS
10
12.0224409448818896
20
-4.0349212598425197
11
12.0216876377952762
21
-4.0347714173228342
0
LINE
8
BLACK
6
CONTINUOUS
10
12.0216876377952762
20
-4.0347714173228342
11
12.0206222834645668
21
-4.0337060629921258
0
LINE
8
BLACK
6
CONTINUOUS
10
12.0206222834645668
20
-4.0337060629921258
11
12.0204724409448822
21
-4.0329527559055114
0
LINE
8
BLACK
6
CONTINUOUS
10
12.0204724409448822
20
-4.0329527559055114
11
12.0204724409448822
21
-3.462086614173228
0
LINE
8
BLACK
6
CONTINUOUS
10
12.0204724409448822
20
-3.462086614173228
11
12.0206222834645668
21
-3.4613333070866141
0
LINE
8
BLACK
6
CONTINUOUS
10
12.0206222834645668
20
-3.4613333070866141
11
12.0216876377952762
21
-3.4602679527559053
0
LINE
8
BLACK
6
CONTINUOUS
10
12.0216876377952762
20
-3.4602679527559053
11
12.0224409448818896
21
-3.4601181102362202
0
LINE
8
BLACK
6
CONTINUOUS
10
12.0224409448818896
20
-3.4601181102362202
11
12.593307086614173
21
-3.4601181102362202
0
LINE
8
BLACK
6
CONTINUOUS
10
12.593307086614173
20
-3.4601181102362202
11
12.5940603937007864
21
-3.4602679527559053
0
LINE
8
BLACK
6
CONTINUOUS
10
12.0244094488188971
20
-3.4640551181102359
11
12.0244094488188971
21
-4.030984251968504
0
LINE
8
BLACK
6
CONTINUOUS
10
12.0244094488188971
20
-4.030984251968504
11
12.5913385826771655
21
-4.030984251968504
0
LINE
8
BLACK
6
CONTINUOUS
10
12.5913385826771655
20
-4.030984251968504
11
12.5913385826771655
21
-3.4640551181102359
0
LINE
8
BLACK
6
CONTINUOUS
10
12.5913385826771655
20
-3.4640551181102359
11
12.0244094488188971
21
-3.4640551181102359
0
LINE
8
BLACK
6
CONTINUOUS
10
4.8109895275590553
20
-3.4485750393700787
11
4.8120548818897637
21
-3.4496403937007871
0
LINE
8
BLACK
6
CONTINUOUS
10
4.8120548818897637
20
-3.4496403937007871
11
4.8122047244094484
21
-3.4503937007874015
0
LINE
8
BLACK
6
CONTINUOUS
10
4.8122047244094484
20
-3.4503937007874015
11
4.8122047244094484
21
-4.0212598425196848
0
LINE
8
BLACK
6
CONTINUOUS
10
4.8122047244094484
20
-4.0212598425196848
11
4.8120548818897637
21
-4.0220131496062992
0
LINE
8
BLACK
6
CONTINUOUS
10
4.8120548818897637
20
-4.0220131496062992
11
4.8109895275590553
21
-4.0230785039370076
0
LINE
8
BLACK
6
CONTINUOUS
10
4.8109895275590553
20
-4.0230785039370076
11
4.8102362204724409
21
-4.0232283464566931
0
LINE
8
BLACK
6
CONTINUOUS
10
4.8102362204724409
20
-4.0232283464566931
11
4.2393700787401576
21
-4.0232283464566931
0
LINE
8
BLACK
6
CONTINUOUS
10
4.2393700787401576
20
-4.0232283464566931
11
4.2386167716535432
21
-4.0230785039370076
0
LINE
8
BLACK
6
CONTINUOUS
10
4.2386167716535432
20
-4.0230785039370076
11
4.2375514173228348
21
-4.0220131496062992
0
LINE
8
BLACK
6
CONTINUOUS
10
4.2375514173228348
20
-4.0220131496062992
11
4.2374015748031493
21
-4.0212598425196848
0
LINE
8
BLACK
6
CONTINUOUS
10
4.2374015748031493
20
-4.0212598425196848
11
4.2374015748031493
21
-3.4503937007874015
0
LINE
8
BLACK
6
CONTINUOUS
10
4.2374015748031493
20
-3.4503937007874015
11
4.2375514173228348
21
-3.4496403937007871
0
LINE
8
BLACK
6
CONTINUOUS
10
4.2375514173228348
20
-3.4496403937007871
11
4.2386167716535432
21
-3.4485750393700787
0
LINE
8
BLACK
6
CONTINUOUS
10
4.2386167716535432
20
-3.4485750393700787
11
4.2393700787401576
21
-3.4484251968503936
0
LINE
8
BLACK
6
CONTINUOUS
10
4.2393700787401576
20
-3.4484251968503936
11
4.8102362204724409
21
-3.4484251968503936
0
LINE
8
BLACK
6
CONTINUOUS
10
4.8102362204724409
20
-3.4484251968503936
11
4.8109895275590553
21
-3.4485750393700787
0
LINE
8
BLACK
6
CONTINUOUS
10
4.241338582677165
20
-3.4523622047244094
11
4.241338582677165
21
-4.0192913385826774
0
LINE
8
BLACK
6
CONTINUOUS
10
4.241338582677165
20
-4.0192913385826774
11
4.8082677165354326
21
-4.0192913385826774
0
LINE
8
BLACK
6
CONTINUOUS
10
4.8082677165354326
20
-4.0192913385826774
11
4.8082677165354326
21
-3.4523622047244094
0
LINE
8
BLACK
6
CONTINUOUS
10
4.8082677165354326
20
-3.4523622047244094
11
4.241338582677165
21
-3.4523622047244094
0
LINE
8
BLACK
6
CONTINUOUS
10
6.2283123622047238
20
-3.4485750393700787
11
6.2293777165354332
21
-3.4496403937007871
0
LINE
8
BLACK
6
CONTINUOUS
10
6.2293777165354332
20
-3.4496403937007871
11
6.2295275590551178
21
-3.4503937007874015
0
LINE
8
BLACK
6
CONTINUOUS
10
6.2295275590551178
20
-3.4503937007874015
11
6.2295275590551178
21
-4.0212598425196848
0
LINE
8
BLACK
6
CONTINUOUS
10
6.2295275590551178
20
-4.0212598425196848
11
6.2293777165354332
21
-4.0220131496062992
0
LINE
8
BLACK
6
CONTINUOUS
10
6.2293777165354332
20
-4.0220131496062992
11
6.2283123622047238
21
-4.0230785039370076
0
LINE
8
BLACK
6
CONTINUOUS
10
6.2283123622047238
20
-4.0230785039370076
11
6.2275590551181104
21
-4.0232283464566931
0
LINE
8
BLACK
6
CONTINUOUS
10
6.2275590551181104
20
-4.0232283464566931
11
5.656692913385827
21
-4.0232283464566931
0
LINE
8
BLACK
6
CONTINUOUS
10
5.656692913385827
20
-4.0232283464566931
11
5.6559396062992127
21
-4.0230785039370076
0
LINE
8
BLACK
6
CONTINUOUS
10
5.6559396062992127
20
-4.0230785039370076
11
5.6548742519685042
21
-4.0220131496062992
0
LINE
8
BLACK
6
CONTINUOUS
10
5.6548742519685042
20
-4.0220131496062992
11
5.6547244094488187
21
-4.0212598425196848
0
LINE
8
BLACK
6
CONTINUOUS
10
5.6547244094488187
20
-4.0212598425196848
11
5.6547244094488187
21
-3.4503937007874015
0
LINE
8
BLACK
6
CONTINUOUS
10
5.6547244094488187
20
-3.4503937007874015
11
5.6548742519685042
21
-3.4496403937007871
0
LINE
8
BLACK
6
CONTINUOUS
10
5.6548742519685042
20
-3.4496403937007871
11
5.6559396062992127
21
-3.4485750393700787
0
LINE
8
BLACK
6
CONTINUOUS
10
5.6559396062992127
20
-3.4485750393700787
11
5.656692913385827
21
-3.4484251968503936
0
LINE
8
BLACK
6
CONTINUOUS
10
5.656692913385827
20
-3.4484251968503936
11
6.2275590551181104
21
-3.4484251968503936
0
LINE
8
BLACK
6
CONTINUOUS
10
6.2275590551181104
20
-3.4484251968503936
11
6.2283123622047238
21
-3.4485750393700787
0
LINE
8
BLACK
6
CONTINUOUS
10
5.6586614173228345
20
-3.4523622047244094
11
5.6586614173228345
21
-4.0192913385826774
0
LINE
8
BLACK
6
CONTINUOUS
10
5.6586614173228345
20
-4.0192913385826774
11
6.2255905511811021
21
-4.0192913385826774
0
LINE
8
BLACK
6
CONTINUOUS
10
6.2255905511811021
20
-4.0192913385826774
11
6.2255905511811021
21
-3.4523622047244094
0
LINE
8
BLACK
6
CONTINUOUS
10
6.2255905511811021
20
-3.4523622047244094
11
5.6586614173228345
21
-3.4523622047244094
0
LINE
8
BLACK
6
CONTINUOUS
10
11.8853989763779531
20
-3.3815277952755904
11
11.8864643307086606
21
-3.3825931496062993
0
LINE
8
BLACK
6
CONTINUOUS
10
11.8864643307086606
20
-3.3825931496062993
11
11.886614173228347
21
-3.3833464566929132
0
LINE
8
BLACK
6
CONTINUOUS
10
11.886614173228347
20
-3.3833464566929132
11
11.886614173228347
21
-3.9542125984251966
0
LINE
8
BLACK
6
CONTINUOUS
10
11.886614173228347
20
-3.9542125984251966
11
11.8864643307086606
21
-3.9549659055118109
0
LINE
8
BLACK
6
CONTINUOUS
10
11.8864643307086606
20
-3.9549659055118109
11
11.8853989763779531
21
-3.9560312598425198
0
LINE
8
BLACK
6
CONTINUOUS
10
11.8853989763779531
20
-3.9560312598425198
11
11.8846456692913378
21
-3.9561811023622044
0
LINE
8
BLACK
6
CONTINUOUS
10
11.8846456692913378
20
-3.9561811023622044
11
11.3137795275590545
21
-3.9561811023622044
0
LINE
8
BLACK
6
CONTINUOUS
10
11.3137795275590545
20
-3.9561811023622044
11
11.313026220472441
21
-3.9560312598425198
0
LINE
8
BLACK
6
CONTINUOUS
10
11.313026220472441
20
-3.9560312598425198
11
11.3119608661417317
21
-3.9549659055118109
0
LINE
8
BLACK
6
CONTINUOUS
10
11.3119608661417317
20
-3.9549659055118109
11
11.311811023622047
21
-3.9542125984251966
0
LINE
8
BLACK
6
CONTINUOUS
10
11.311811023622047
20
-3.9542125984251966
11
11.311811023622047
21
-3.3833464566929132
0
LINE
8
BLACK
6
CONTINUOUS
10
11.311811023622047
20
-3.3833464566929132
11
11.3119608661417317
21
-3.3825931496062993
0
LINE
8
BLACK
6
CONTINUOUS
10
11.3119608661417317
20
-3.3825931496062993
11
11.313026220472441
21
-3.3815277952755904
0
LINE
8
BLACK
6
CONTINUOUS
10
11.313026220472441
20
-3.3815277952755904
11
11.3137795275590545
21
-3.3813779527559054
0
LINE
8
BLACK
6
CONTINUOUS
10
11.3137795275590545
20
-3.3813779527559054
11
11.8846456692913378
21
-3.3813779527559054
0
LINE
8
BLACK
6
CONTINUOUS
10
11.8846456692913378
20
-3.3813779527559054
11
11.8853989763779531
21
-3.3815277952755904
0
LINE
8
BLACK
6
CONTINUOUS
10
11.3157480314960619
20
-3.3853149606299211
11
11.3157480314960619
21
-3.9522440944881887
0
LINE
8
BLACK
6
CONTINUOUS
10
11.3157480314960619
20
-3.9522440944881887
11
11.8826771653543304
21
-3.9522440944881887
0
LINE
8
BLACK
6
CONTINUOUS
10
11.8826771653543304
20
-3.9522440944881887
11
11.8826771653543304
21
-3.3853149606299211
0
LINE
8
BLACK
6
CONTINUOUS
10
11.8826771653543304
20
-3.3853149606299211
11
11.3157480314960619
21
-3.3853149606299211
0
LINE
8
BLACK
6
CONTINUOUS
10
5.5196509448818896
20
-3.3698348818897639
11
5.520716299212598
21
-3.3709002362204723
0
LINE
8
BLACK
6
CONTINUOUS
10
5.520716299212598
20
-3.3709002362204723
11
5.5208661417322835
21
-3.3716535433070867
0
LINE
8
BLACK
6
CONTINUOUS
10
5.5208661417322835
20
-3.3716535433070867
11
5.5208661417322835
21
-3.94251968503937
0
LINE
8
BLACK
6
CONTINUOUS
10
5.5208661417322835
20
-3.94251968503937
11
5.520716299212598
21
-3.9432729921259844
0
LINE
8
BLACK
6
CONTINUOUS
10
5.520716299212598
20
-3.9432729921259844
11
5.5196509448818896
21
-3.9443383464566928
0
LINE
8
BLACK
6
CONTINUOUS
10
5.5196509448818896
20
-3.9443383464566928
11
5.5188976377952752
21
-3.9444881889763779
0
LINE
8
BLACK
6
CONTINUOUS
10
5.5188976377952752
20
-3.9444881889763779
11
4.9480314960629919
21
-3.9444881889763779
0
LINE
8
BLACK
6
CONTINUOUS
10
4.9480314960629919
20
-3.9444881889763779
11
4.9472781889763775
21
-3.9443383464566928
0
LINE
8
BLACK
6
CONTINUOUS
10
4.9472781889763775
20
-3.9443383464566928
11
4.9462128346456691
21
-3.9432729921259844
0
LINE
8
BLACK
6
CONTINUOUS
10
4.9462128346456691
20
-3.9432729921259844
11
4.9460629921259844
21
-3.94251968503937
0
LINE
8
BLACK
6
CONTINUOUS
10
4.9460629921259844
20
-3.94251968503937
11
4.9460629921259844
21
-3.3716535433070867
0
LINE
8
BLACK
6
CONTINUOUS
10
4.9460629921259844
20
-3.3716535433070867
11
4.9462128346456691
21
-3.3709002362204723
0
LINE
8
BLACK
6
CONTINUOUS
10
4.9462128346456691
20
-3.3709002362204723
11
4.9472781889763775
21
-3.3698348818897639
0
LINE
8
BLACK
6
CONTINUOUS
10
4.9472781889763775
20
-3.3698348818897639
11
4.9480314960629919
21
-3.3696850393700788
0
LINE
8
BLACK
6
CONTINUOUS
10
4.9480314960629919
20
-3.3696850393700788
11
5.5188976377952752
21
-3.3696850393700788
0
LINE
8
BLACK
6
CONTINUOUS
10
5.5188976377952752
20
-3.3696850393700788
11
5.5196509448818896
21
-3.3698348818897639
0
LINE
8
BLACK
6
CONTINUOUS
10
4.9500000000000002
20
-3.3736220472440945
11
4.9500000000000002
21
-3.9405511811023621
0
LINE
8
BLACK
6
CONTINUOUS
10
4.9500000000000002
20
-3.9405511811023621
11
5.5169291338582678
21
-3.9405511811023621
0
LINE
8
BLACK
6
CONTINUOUS
10
5.5169291338582678
20
-3.9405511811023621
11
5.5169291338582678
21
-3.3736220472440945
0
LINE
8
BLACK
6
CONTINUOUS
10
5.5169291338582678
20
-3.3736220472440945
11
4.9500000000000002
21
-3.3736220472440945
0
LINE
8
BLACK
6
CONTINUOUS
10
13.3027218110236216
20
-2.9405829133858266
11
13.3037871653543309
21
-2.9416482677165354
0
LINE
8
BLACK
6
CONTINUOUS
10
13.3037871653543309
20
-2.9416482677165354
11
13.3039370078740156
21
-2.9424015748031493
0
LINE
8
BLACK
6
CONTINUOUS
10
13.3039370078740156
20
-2.9424015748031493
11
13.3039370078740156
21
-3.5132677165354331
0
LINE
8
BLACK
6
CONTINUOUS
10
13.3039370078740156
20
-3.5132677165354331
11
13.3037871653543309
21
-3.514021023622047
0
LINE
8
BLACK
6
CONTINUOUS
10
13.3037871653543309
20
-3.514021023622047
11
13.3027218110236216
21
-3.5150863779527559
0
LINE
8
BLACK
6
CONTINUOUS
10
13.3027218110236216
20
-3.5150863779527559
11
13.3019685039370081
21
-3.515236220472441
0
LINE
8
BLACK
6
CONTINUOUS
10
13.3019685039370081
20
-3.515236220472441
11
12.7311023622047248
21
-3.515236220472441
0
LINE
8
BLACK
6
CONTINUOUS
10
12.7311023622047248
20
-3.515236220472441
11
12.7303490551181095
21
-3.5150863779527559
0
LINE
8
BLACK
6
CONTINUOUS
10
12.7303490551181095
20
-3.5150863779527559
11
12.729283700787402
21
-3.514021023622047
0
LINE
8
BLACK
6
CONTINUOUS
10
12.729283700787402
20
-3.514021023622047
11
12.7291338582677156
21
-3.5132677165354331
0
LINE
8
BLACK
6
CONTINUOUS
10
12.7291338582677156
20
-3.5132677165354331
11
12.7291338582677156
21
-2.9424015748031493
0
LINE
8
BLACK
6
CONTINUOUS
10
12.7291338582677156
20
-2.9424015748031493
11
12.729283700787402
21
-2.9416482677165354
0
LINE
8
BLACK
6
CONTINUOUS
10
12.729283700787402
20
-2.9416482677165354
11
12.7303490551181095
21
-2.9405829133858266
0
LINE
8
BLACK
6
CONTINUOUS
10
12.7303490551181095
20
-2.9405829133858266
11
12.7311023622047248
21
-2.9404330708661415
0
LINE
8
BLACK
6
CONTINUOUS
10
12.7311023622047248
20
-2.9404330708661415
11
13.3019685039370081
21
-2.9404330708661415
0
LINE
8
BLACK
6
CONTINUOUS
10
13.3019685039370081
20
-2.9404330708661415
11
13.3027218110236216
21
-2.9405829133858266
0
LINE
8
BLACK
6
CONTINUOUS
10
12.7330708661417322
20
-2.9443700787401572
11
12.7330708661417322
21
-3.5112992125984253
0
LINE
8
BLACK
6
CONTINUOUS
10
12.7330708661417322
20
-3.5112992125984253
11
13.2999999999999989
21
-3.5112992125984253
0
LINE
8
BLACK
6
CONTINUOUS
10
13.2999999999999989
20
-3.5112992125984253
11
13.2999999999999989
21
-2.9443700787401572
0
LINE
8
BLACK
6
CONTINUOUS
10
13.2999999999999989
20
-2.9443700787401572
11
12.7330708661417322
21
-2.9443700787401572
0
LINE
8
BLACK
6
CONTINUOUS
10
14.0113832283464568
20
-2.9405829133858266
11
14.0124485826771643
21
-2.9416482677165354
0
LINE
8
BLACK
6
CONTINUOUS
10
14.0124485826771643
20
-2.9416482677165354
11
14.0125984251968507
21
-2.9424015748031493
0
LINE
8
BLACK
6
CONTINUOUS
10
14.0125984251968507
20
-2.9424015748031493
11
14.0125984251968507
21
-3.5132677165354331
0
LINE
8
BLACK
6
CONTINUOUS
10
14.0125984251968507
20
-3.5132677165354331
11
14.0124485826771643
21
-3.514021023622047
0
LINE
8
BLACK
6
CONTINUOUS
10
14.0124485826771643
20
-3.514021023622047
11
14.0113832283464568
21
-3.5150863779527559
0
LINE
8
BLACK
6
CONTINUOUS
10
14.0113832283464568
20
-3.5150863779527559
11
14.0106299212598415
21
-3.515236220472441
0
LINE
8
BLACK
6
CONTINUOUS
10
14.0106299212598415
20
-3.515236220472441
11
13.4397637795275582
21
-3.515236220472441
0
LINE
8
BLACK
6
CONTINUOUS
10
13.4397637795275582
20
-3.515236220472441
11
13.4390104724409447
21
-3.5150863779527559
0
LINE
8
BLACK
6
CONTINUOUS
10
13.4390104724409447
20
-3.5150863779527559
11
13.4379451181102354
21
-3.514021023622047
0
LINE
8
BLACK
6
CONTINUOUS
10
13.4379451181102354
20
-3.514021023622047
11
13.4377952755905508
21
-3.5132677165354331
0
LINE
8
BLACK
6
CONTINUOUS
10
13.4377952755905508
20
-3.5132677165354331
11
13.4377952755905508
21
-2.9424015748031493
0
LINE
8
BLACK
6
CONTINUOUS
10
13.4377952755905508
20
-2.9424015748031493
11
13.4379451181102354
21
-2.9416482677165354
0
LINE
8
BLACK
6
CONTINUOUS
10
13.4379451181102354
20
-2.9416482677165354
11
13.4390104724409447
21
-2.9405829133858266
0
LINE
8
BLACK
6
CONTINUOUS
10
13.4390104724409447
20
-2.9405829133858266
11
13.4397637795275582
21
-2.9404330708661415
0
LINE
8
BLACK
6
CONTINUOUS
10
13.4397637795275582
20
-2.9404330708661415
11
14.0106299212598415
21
-2.9404330708661415
0
LINE
8
BLACK
6
CONTINUOUS
10
14.0106299212598415
20
-2.9404330708661415
11
14.0113832283464568
21
-2.9405829133858266
0
LINE
8
BLACK
6
CONTINUOUS
10
13.4417322834645674
20
-2.9443700787401572
11
13.4417322834645674
21
-3.5112992125984253
0
LINE
8
BLACK
6
CONTINUOUS
10
13.4417322834645674
20
-3.5112992125984253
11
14.0086614173228341
21
-3.5112992125984253
0
LINE
8
BLACK
6
CONTINUOUS
10
14.0086614173228341
20
-3.5112992125984253
11
14.0086614173228341
21
-2.9443700787401572
0
LINE
8
BLACK
6
CONTINUOUS
10
14.0086614173228341
20
-2.9443700787401572
11
13.4417322834645674
21
-2.9443700787401572
0
LINE
8
BLACK
6
CONTINUOUS
10
3.3936666929133859
20
-2.92889
11
3.3947320472440943
21
-2.9299553543307084
0
LINE
8
BLACK
6
CONTINUOUS
10
3.3947320472440943
20
-2.9299553543307084
11
3.3948818897637794
21
-2.9307086614173228
0
LINE
8
BLACK
6
CONTINUOUS
10
3.3948818897637794
20
-2.9307086614173228
11
3.3948818897637794
21
-3.5015748031496061
0
LINE
8
BLACK
6
CONTINUOUS
10
3.3948818897637794
20
-3.5015748031496061
11
3.3947320472440943
21
-3.5023281102362205
0
LINE
8
BLACK
6
CONTINUOUS
10
3.3947320472440943
20
-3.5023281102362205
11
3.3936666929133859
21
-3.5033934645669289
0
LINE
8
BLACK
6
CONTINUOUS
10
3.3936666929133859
20
-3.5033934645669289
11
3.3929133858267715
21
-3.503543307086614
0
LINE
8
BLACK
6
CONTINUOUS
10
3.3929133858267715
20
-3.503543307086614
11
2.8220472440944881
21
-3.503543307086614
0
LINE
8
BLACK
6
CONTINUOUS
10
2.8220472440944881
20
-3.503543307086614
11
2.8212939370078738
21
-3.5033934645669289
0
LINE
8
BLACK
6
CONTINUOUS
10
2.8212939370078738
20
-3.5033934645669289
11
2.8202285826771654
21
-3.5023281102362205
0
LINE
8
BLACK
6
CONTINUOUS
10
2.8202285826771654
20
-3.5023281102362205
11
2.8200787401574803
21
-3.5015748031496061
0
LINE
8
BLACK
6
CONTINUOUS
10
2.8200787401574803
20
-3.5015748031496061
11
2.8200787401574803
21
-2.9307086614173228
0
LINE
8
BLACK
6
CONTINUOUS
10
2.8200787401574803
20
-2.9307086614173228
11
2.8202285826771654
21
-2.9299553543307084
0
LINE
8
BLACK
6
CONTINUOUS
10
2.8202285826771654
20
-2.9299553543307084
11
2.8212939370078738
21
-2.92889
0
LINE
8
BLACK
6
CONTINUOUS
10
2.8212939370078738
20
-2.92889
11
2.8220472440944881
21
-2.9287401574803149
0
LINE
8
BLACK
6
CONTINUOUS
10
2.8220472440944881
20
-2.9287401574803149
11
3.3929133858267715
21
-2.9287401574803149
0
LINE
8
BLACK
6
CONTINUOUS
10
3.3929133858267715
20
-2.9287401574803149
11
3.3936666929133859
21
-2.92889
0
LINE
8
BLACK
6
CONTINUOUS
10
2.824015748031496
20
-2.9326771653543307
11
2.824015748031496
21
-3.4996062992125982
0
LINE
8
BLACK
6
CONTINUOUS
10
2.824015748031496
20
-3.4996062992125982
11
3.3909448818897636
21
-3.4996062992125982
0
LINE
8
BLACK
6
CONTINUOUS
10
3.3909448818897636
20
-3.4996062992125982
11
3.3909448818897636
21
-2.9326771653543307
0
LINE
8
BLACK
6
CONTINUOUS
10
3.3909448818897636
20
-2.9326771653543307
11
2.824015748031496
21
-2.9326771653543307
0
LINE
8
BLACK
6
CONTINUOUS
10
4.1023281102362201
20
-2.92889
11
4.1033934645669294
21
-2.9299553543307084
0
LINE
8
BLACK
6
CONTINUOUS
10
4.1033934645669294
20
-2.9299553543307084
11
4.1035433070866141
21
-2.9307086614173228
0
LINE
8
BLACK
6
CONTINUOUS
10
4.1035433070866141
20
-2.9307086614173228
11
4.1035433070866141
21
-3.5015748031496061
0
LINE
8
BLACK
6
CONTINUOUS
10
4.1035433070866141
20
-3.5015748031496061
11
4.1033934645669294
21
-3.5023281102362205
0
LINE
8
BLACK
6
CONTINUOUS
10
4.1033934645669294
20
-3.5023281102362205
11
4.1023281102362201
21
-3.5033934645669289
0
LINE
8
BLACK
6
CONTINUOUS
10
4.1023281102362201
20
-3.5033934645669289
11
4.1015748031496058
21
-3.503543307086614
0
LINE
8
BLACK
6
CONTINUOUS
10
4.1015748031496058
20
-3.503543307086614
11
3.5307086614173229
21
-3.503543307086614
0
LINE
8
BLACK
6
CONTINUOUS
10
3.5307086614173229
20
-3.503543307086614
11
3.5299553543307085
21
-3.5033934645669289
0
LINE
8
BLACK
6
CONTINUOUS
10
3.5299553543307085
20
-3.5033934645669289
11
3.5288900000000001
21
-3.5023281102362205
0
LINE
8
BLACK
6
CONTINUOUS
10
3.5288900000000001
20
-3.5023281102362205
11
3.528740157480315
21
-3.5015748031496061
0
LINE
8
BLACK
6
CONTINUOUS
10
3.528740157480315
20
-3.5015748031496061
11
3.528740157480315
21
-2.9307086614173228
0
LINE
8
BLACK
6
CONTINUOUS
10
3.528740157480315
20
-2.9307086614173228
11
3.5288900000000001
21
-2.9299553543307084
0
LINE
8
BLACK
6
CONTINUOUS
10
3.5288900000000001
20
-2.9299553543307084
11
3.5299553543307085
21
-2.92889
0
LINE
8
BLACK
6
CONTINUOUS
10
3.5299553543307085
20
-2.92889
11
3.5307086614173229
21
-2.9287401574803149
0
LINE
8
BLACK
6
CONTINUOUS
10
3.5307086614173229
20
-2.9287401574803149
11
4.1015748031496058
21
-2.9287401574803149
0
LINE
8
BLACK
6
CONTINUOUS
10
4.1015748031496058
20
-2.9287401574803149
11
4.1023281102362201
21
-2.92889
0
LINE
8
BLACK
6
CONTINUOUS
10
3.5326771653543307
20
-2.9326771653543307
11
3.5326771653543307
21
-3.4996062992125982
0
LINE
8
BLACK
6
CONTINUOUS
10
3.5326771653543307
20
-3.4996062992125982
11
4.0996062992125983
21
-3.4996062992125982
0
LINE
8
BLACK
6
CONTINUOUS
10
4.0996062992125983
20
-3.4996062992125982
11
4.0996062992125983
21
-2.9326771653543307
0
LINE
8
BLACK
6
CONTINUOUS
10
4.0996062992125983
20
-2.9326771653543307
11
3.5326771653543307
21
-2.9326771653543307
0
LINE
8
BLACK
6
CONTINUOUS
10
10.4680761417322827
20
-2.8657797637795275
11
10.469141496062992
21
-2.8668451181102363
0
LINE
8
BLACK
6
CONTINUOUS
10
10.469141496062992
20
-2.8668451181102363
11
10.4692913385826767
21
-2.8675984251968503
0
LINE
8
BLACK
6
CONTINUOUS
10
10.4692913385826767
20
-2.8675984251968503
11
10.4692913385826767
21
-3.4384645669291336
0
LINE
8
BLACK
6
CONTINUOUS
10
10.4692913385826767
20
-3.4384645669291336
11
10.469141496062992
21
-3.439217874015748
0
LINE
8
BLACK
6
CONTINUOUS
10
10.469141496062992
20
-3.439217874015748
11
10.4680761417322827
21
-3.4402832283464568
0
LINE
8
BLACK
6
CONTINUOUS
10
10.4680761417322827
20
-3.4402832283464568
11
10.4673228346456693
21
-3.4404330708661415
0
LINE
8
BLACK
6
CONTINUOUS
10
10.4673228346456693
20
-3.4404330708661415
11
9.8964566929133859
21
-3.4404330708661415
0
LINE
8
BLACK
6
CONTINUOUS
10
9.8964566929133859
20
-3.4404330708661415
11
9.8957033858267707
21
-3.4402832283464568
0
LINE
8
BLACK
6
CONTINUOUS
10
9.8957033858267707
20
-3.4402832283464568
11
9.8946380314960631
21
-3.439217874015748
0
LINE
8
BLACK
6
CONTINUOUS
10
9.8946380314960631
20
-3.439217874015748
11
9.8944881889763785
21
-3.4384645669291336
0
LINE
8
BLACK
6
CONTINUOUS
10
9.8944881889763785
20
-3.4384645669291336
11
9.8944881889763785
21
-2.8675984251968503
0
LINE
8
BLACK
6
CONTINUOUS
10
9.8944881889763785
20
-2.8675984251968503
11
9.8946380314960631
21
-2.8668451181102363
0
LINE
8
BLACK
6
CONTINUOUS
10
9.8946380314960631
20
-2.8668451181102363
11
9.8957033858267707
21
-2.8657797637795275
0
LINE
8
BLACK
6
CONTINUOUS
10
9.8957033858267707
20
-2.8657797637795275
11
9.8964566929133859
21
-2.8656299212598424
0
LINE
8
BLACK
6
CONTINUOUS
10
9.8964566929133859
20
-2.8656299212598424
11
10.4673228346456693
21
-2.8656299212598424
0
LINE
8
BLACK
6
CONTINUOUS
10
10.4673228346456693
20
-2.8656299212598424
11
10.4680761417322827
21
-2.8657797637795275
0
LINE
8
BLACK
6
CONTINUOUS
10
9.8984251968503933
20
-2.8695669291338581
11
9.8984251968503933
21
-3.4364960629921257
0
LINE
8
BLACK
6
CONTINUOUS
10
9.8984251968503933
20
-3.4364960629921257
11
10.4653543307086618
21
-3.4364960629921257
0
LINE
8
BLACK
6
CONTINUOUS
10
10.4653543307086618
20
-3.4364960629921257
11
10.4653543307086618
21
-2.8695669291338581
0
LINE
8
BLACK
6
CONTINUOUS
10
10.4653543307086618
20
-2.8695669291338581
11
9.8984251968503933
21
-2.8695669291338581
0
LINE
8
BLACK
6
CONTINUOUS
10
6.936973779527559
20
-2.8540868503937009
11
6.9380391338582674
21
-2.8551522047244093
0
LINE
8
BLACK
6
CONTINUOUS
10
6.9380391338582674
20
-2.8551522047244093
11
6.938188976377953
21
-2.8559055118110237
0
LINE
8
BLACK
6
CONTINUOUS
10
6.938188976377953
20
-2.8559055118110237
11
6.938188976377953
21
-3.426771653543307
0
LINE
8
BLACK
6
CONTINUOUS
10
6.938188976377953
20
-3.426771653543307
11
6.9380391338582674
21
-3.4275249606299214
0
LINE
8
BLACK
6
CONTINUOUS
10
6.9380391338582674
20
-3.4275249606299214
11
6.936973779527559
21
-3.4285903149606298
0
LINE
8
BLACK
6
CONTINUOUS
10
6.936973779527559
20
-3.4285903149606298
11
6.9362204724409446
21
-3.4287401574803149
0
LINE
8
BLACK
6
CONTINUOUS
10
6.9362204724409446
20
-3.4287401574803149
11
6.3653543307086613
21
-3.4287401574803149
0
LINE
8
BLACK
6
CONTINUOUS
10
6.3653543307086613
20
-3.4287401574803149
11
6.3646010236220469
21
-3.4285903149606298
0
LINE
8
BLACK
6
CONTINUOUS
10
6.3646010236220469
20
-3.4285903149606298
11
6.3635356692913385
21
-3.4275249606299214
0
LINE
8
BLACK
6
CONTINUOUS
10
6.3635356692913385
20
-3.4275249606299214
11
6.363385826771653
21
-3.426771653543307
0
LINE
8
BLACK
6
CONTINUOUS
10
6.363385826771653
20
-3.426771653543307
11
6.363385826771653
21
-2.8559055118110237
0
LINE
8
BLACK
6
CONTINUOUS
10
6.363385826771653
20
-2.8559055118110237
11
6.3635356692913385
21
-2.8551522047244093
0
LINE
8
BLACK
6
CONTINUOUS
10
6.3635356692913385
20
-2.8551522047244093
11
6.3646010236220469
21
-2.8540868503937009
0
LINE
8
BLACK
6
CONTINUOUS
10
6.3646010236220469
20
-2.8540868503937009
11
6.3653543307086613
21
-2.8539370078740158
0
LINE
8
BLACK
6
CONTINUOUS
10
6.3653543307086613
20
-2.8539370078740158
11
6.9362204724409446
21
-2.8539370078740158
0
LINE
8
BLACK
6
CONTINUOUS
10
6.9362204724409446
20
-2.8539370078740158
11
6.936973779527559
21
-2.8540868503937009
0
LINE
8
BLACK
6
CONTINUOUS
10
6.3673228346456687
20
-2.8578740157480316
11
6.3673228346456687
21
-3.4248031496062992
0
LINE
8
BLACK
6
CONTINUOUS
10
6.3673228346456687
20
-3.4248031496062992
11
6.9342519685039372
21
-3.4248031496062992
0
LINE
8
BLACK
6
CONTINUOUS
10
6.9342519685039372
20
-3.4248031496062992
11
6.9342519685039372
21
-2.8578740157480316
0
LINE
8
BLACK
6
CONTINUOUS
10
6.9342519685039372
20
-2.8578740157480316
11
6.3673228346456687
21
-2.8578740157480316
0
LINE
8
BLACK
6
CONTINUOUS
10
11.1767375590551179
20
-2.7909766141732284
11
11.1778029133858272
21
-2.7920419685039368
0
LINE
8
BLACK
6
CONTINUOUS
10
11.1778029133858272
20
-2.7920419685039368
11
11.1779527559055119
21
-2.7927952755905512
0
LINE
8
BLACK
6
CONTINUOUS
10
11.1779527559055119
20
-2.7927952755905512
11
11.1779527559055119
21
-3.3636614173228345
0
LINE
8
BLACK
6
CONTINUOUS
10
11.1779527559055119
20
-3.3636614173228345
11
11.1778029133858272
21
-3.3644147244094489
0
LINE
8
BLACK
6
CONTINUOUS
10
11.1778029133858272
20
-3.3644147244094489
11
11.1767375590551179
21
-3.3654800787401573
0
LINE
8
BLACK
6
CONTINUOUS
10
11.1767375590551179
20
-3.3654800787401573
11
11.1759842519685044
21
-3.3656299212598424
0
LINE
8
BLACK
6
CONTINUOUS
10
11.1759842519685044
20
-3.3656299212598424
11
10.6051181102362211
21
-3.3656299212598424
0
LINE
8
BLACK
6
CONTINUOUS
10
10.6051181102362211
20
-3.3656299212598424
11
10.6043648031496058
21
-3.3654800787401573
0
LINE
8
BLACK
6
CONTINUOUS
10
10.6043648031496058
20
-3.3654800787401573
11
10.6032994488188965
21
-3.3644147244094489
0
LINE
8
BLACK
6
CONTINUOUS
10
10.6032994488188965
20
-3.3644147244094489
11
10.6031496062992119
21
-3.3636614173228345
0
LINE
8
BLACK
6
CONTINUOUS
10
10.6031496062992119
20
-3.3636614173228345
11
10.6031496062992119
21
-2.7927952755905512
0
LINE
8
BLACK
6
CONTINUOUS
10
10.6031496062992119
20
-2.7927952755905512
11
10.6032994488188965
21
-2.7920419685039368
0
LINE
8
BLACK
6
CONTINUOUS
10
10.6032994488188965
20
-2.7920419685039368
11
10.6043648031496058
21
-2.7909766141732284
0
LINE
8
BLACK
6
CONTINUOUS
10
10.6043648031496058
20
-2.7909766141732284
11
10.6051181102362211
21
-2.7908267716535433
0
LINE
8
BLACK
6
CONTINUOUS
10
10.6051181102362211
20
-2.7908267716535433
11
11.1759842519685044
21
-2.7908267716535433
0
LINE
8
BLACK
6
CONTINUOUS
10
11.1759842519685044
20
-2.7908267716535433
11
11.1767375590551179
21
-2.7909766141732284
0
LINE
8
BLACK
6
CONTINUOUS
10
10.6070866141732285
20
-2.7947637795275591
11
10.6070866141732285
21
-3.3616929133858267
0
LINE
8
BLACK
6
CONTINUOUS
10
10.6070866141732285
20
-3.3616929133858267
11
11.1740157480314952
21
-3.3616929133858267
0
LINE
8
BLACK
6
CONTINUOUS
10
11.1740157480314952
20
-3.3616929133858267
11
11.1740157480314952
21
-2.7947637795275591
0
LINE
8
BLACK
6
CONTINUOUS
10
11.1740157480314952
20
-2.7947637795275591
11
10.6070866141732285
21
-2.7947637795275591
0
LINE
8
BLACK
6
CONTINUOUS
10
12.5940603937007864
20
-2.7909766141732284
11
12.5951257480314958
21
-2.7920419685039368
0
LINE
8
BLACK
6
CONTINUOUS
10
12.5951257480314958
20
-2.7920419685039368
11
12.5952755905511804
21
-2.7927952755905512
0
LINE
8
BLACK
6
CONTINUOUS
10
12.5952755905511804
20
-2.7927952755905512
11
12.5952755905511804
21
-3.3636614173228345
0
LINE
8
BLACK
6
CONTINUOUS
10
12.5952755905511804
20
-3.3636614173228345
11
12.5951257480314958
21
-3.3644147244094489
0
LINE
8
BLACK
6
CONTINUOUS
10
12.5951257480314958
20
-3.3644147244094489
11
12.5940603937007864
21
-3.3654800787401573
0
LINE
8
BLACK
6
CONTINUOUS
10
12.5940603937007864
20
-3.3654800787401573
11
12.593307086614173
21
-3.3656299212598424
0
LINE
8
BLACK
6
CONTINUOUS
10
12.593307086614173
20
-3.3656299212598424
11
12.0224409448818896
21
-3.3656299212598424
0
LINE
8
BLACK
6
CONTINUOUS
10
12.0224409448818896
20
-3.3656299212598424
11
12.0216876377952762
21
-3.3654800787401573
0
LINE
8
BLACK
6
CONTINUOUS
10
12.0216876377952762
20
-3.3654800787401573
11
12.0206222834645668
21
-3.3644147244094489
0
LINE
8
BLACK
6
CONTINUOUS
10
12.0206222834645668
20
-3.3644147244094489
11
12.0204724409448822
21
-3.3636614173228345
0
LINE
8
BLACK
6
CONTINUOUS
10
12.0204724409448822
20
-3.3636614173228345
11
12.0204724409448822
21
-2.7927952755905512
0
LINE
8
BLACK
6
CONTINUOUS
10
12.0204724409448822
20
-2.7927952755905512
11
12.0206222834645668
21
-2.7920419685039368
0
LINE
8
BLACK
6
CONTINUOUS
10
12.0206222834645668
20
-2.7920419685039368
11
12.0216876377952762
21
-2.7909766141732284
0
LINE
8
BLACK
6
CONTINUOUS
10
12.0216876377952762
20
-2.7909766141732284
11
12.0224409448818896
21
-2.7908267716535433
0
LINE
8
BLACK
6
CONTINUOUS
10
12.0224409448818896
20
-2.7908267716535433
11
12.593307086614173
21
-2.7908267716535433
0
LINE
8
BLACK
6
CONTINUOUS
10
12.593307086614173
20
-2.7908267716535433
11
12.5940603937007864
21
-2.7909766141732284
0
LINE
8
BLACK
6
CONTINUOUS
10
12.0244094488188971
20
-2.7947637795275591
11
12.0244094488188971
21
-3.3616929133858267
0
LINE
8
BLACK
6
CONTINUOUS
10
12.0244094488188971
20
-3.3616929133858267
11
12.5913385826771655
21
-3.3616929133858267
0
LINE
8
BLACK
6
CONTINUOUS
10
12.5913385826771655
20
-3.3616929133858267
11
12.5913385826771655
21
-2.7947637795275591
0
LINE
8
BLACK
6
CONTINUOUS
10
12.5913385826771655
20
-2.7947637795275591
11
12.0244094488188971
21
-2.7947637795275591
0
LINE
8
BLACK
6
CONTINUOUS
10
4.8109895275590553
20
-2.7792837007874014
11
4.8120548818897637
21
-2.7803490551181103
0
LINE
8
BLACK
6
CONTINUOUS
10
4.8120548818897637
20
-2.7803490551181103
11
4.8122047244094484
21
-2.7811023622047242
0
LINE
8
BLACK
6
CONTINUOUS
10
4.8122047244094484
20
-2.7811023622047242
11
4.8122047244094484
21
-3.351968503937008
0
LINE
8
BLACK
6
CONTINUOUS
10
4.8122047244094484
20
-3.351968503937008
11
4.8120548818897637
21
-3.3527218110236219
0
LINE
8
BLACK
6
CONTINUOUS
10
4.8120548818897637
20
-3.3527218110236219
11
4.8109895275590553
21
-3.3537871653543307
0
LINE
8
BLACK
6
CONTINUOUS
10
4.8109895275590553
20
-3.3537871653543307
11
4.8102362204724409
21
-3.3539370078740158
0
LINE
8
BLACK
6
CONTINUOUS
10
4.8102362204724409
20
-3.3539370078740158
11
4.2393700787401576
21
-3.3539370078740158
0
LINE
8
BLACK
6
CONTINUOUS
10
4.2393700787401576
20
-3.3539370078740158
11
4.2386167716535432
21
-3.3537871653543307
0
LINE
8
BLACK
6
CONTINUOUS
10
4.2386167716535432
20
-3.3537871653543307
11
4.2375514173228348
21
-3.3527218110236219
0
LINE
8
BLACK
6
CONTINUOUS
10
4.2375514173228348
20
-3.3527218110236219
11
4.2374015748031493
21
-3.351968503937008
0
LINE
8
BLACK
6
CONTINUOUS
10
4.2374015748031493
20
-3.351968503937008
11
4.2374015748031493
21
-2.7811023622047242
0
LINE
8
BLACK
6
CONTINUOUS
10
4.2374015748031493
20
-2.7811023622047242
11
4.2375514173228348
21
-2.7803490551181103
0
LINE
8
BLACK
6
CONTINUOUS
10
4.2375514173228348
20
-2.7803490551181103
11
4.2386167716535432
21
-2.7792837007874014
0
LINE
8
BLACK
6
CONTINUOUS
10
4.2386167716535432
20
-2.7792837007874014
11
4.2393700787401576
21
-2.7791338582677163
0
LINE
8
BLACK
6
CONTINUOUS
10
4.2393700787401576
20
-2.7791338582677163
11
4.8102362204724409
21
-2.7791338582677163
0
LINE
8
BLACK
6
CONTINUOUS
10
4.8102362204724409
20
-2.7791338582677163
11
4.8109895275590553
21
-2.7792837007874014
0
LINE
8
BLACK
6
CONTINUOUS
10
4.241338582677165
20
-2.783070866141732
11
4.241338582677165
21
-3.3500000000000001
0
LINE
8
BLACK
6
CONTINUOUS
10
4.241338582677165
20
-3.3500000000000001
11
4.8082677165354326
21
-3.3500000000000001
0
LINE
8
BLACK
6
CONTINUOUS
10
4.8082677165354326
20
-3.3500000000000001
11
4.8082677165354326
21
-2.783070866141732
0
LINE
8
BLACK
6
CONTINUOUS
10
4.8082677165354326
20
-2.783070866141732
11
4.241338582677165
21
-2.783070866141732
0
LINE
8
BLACK
6
CONTINUOUS
10
6.2283123622047238
20
-2.7792837007874014
11
6.2293777165354332
21
-2.7803490551181103
0
LINE
8
BLACK
6
CONTINUOUS
10
6.2293777165354332
20
-2.7803490551181103
11
6.2295275590551178
21
-2.7811023622047242
0
LINE
8
BLACK
6
CONTINUOUS
10
6.2295275590551178
20
-2.7811023622047242
11
6.2295275590551178
21
-3.351968503937008
0
LINE
8
BLACK
6
CONTINUOUS
10
6.2295275590551178
20
-3.351968503937008
11
6.2293777165354332
21
-3.3527218110236219
0
LINE
8
BLACK
6
CONTINUOUS
10
6.2293777165354332
20
-3.3527218110236219
11
6.2283123622047238
21
-3.3537871653543307
0
LINE
8
BLACK
6
CONTINUOUS
10
6.2283123622047238
20
-3.3537871653543307
11
6.2275590551181104
21
-3.3539370078740158
0
LINE
8
BLACK
6
CONTINUOUS
10
6.2275590551181104
20
-3.3539370078740158
11
5.656692913385827
21
-3.3539370078740158
0
LINE
8
BLACK
6
CONTINUOUS
10
5.656692913385827
20
-3.3539370078740158
11
5.6559396062992127
21
-3.3537871653543307
0
LINE
8
BLACK
6
CONTINUOUS
10
5.6559396062992127
20
-3.3537871653543307
11
5.6548742519685042
21
-3.3527218110236219
0
LINE
8
BLACK
6
CONTINUOUS
10
5.6548742519685042
20
-3.3527218110236219
11
5.6547244094488187
21
-3.351968503937008
0
LINE
8
BLACK
6
CONTINUOUS
10
5.6547244094488187
20
-3.351968503937008
11
5.6547244094488187
21
-2.7811023622047242
0
LINE
8
BLACK
6
CONTINUOUS
10
5.6547244094488187
20
-2.7811023622047242
11
5.6548742519685042
21
-2.7803490551181103
0
LINE
8
BLACK
6
CONTINUOUS
10
5.6548742519685042
20
-2.7803490551181103
11
5.6559396062992127
21
-2.7792837007874014
0
LINE
8
BLACK
6
CONTINUOUS
10
5.6559396062992127
20
-2.7792837007874014
11
5.656692913385827
21
-2.7791338582677163
0
LINE
8
BLACK
6
CONTINUOUS
10
5.656692913385827
20
-2.7791338582677163
11
6.2275590551181104
21
-2.7791338582677163
0
LINE
8
BLACK
6
CONTINUOUS
10
6.2275590551181104
20
-2.7791338582677163
11
6.2283123622047238
21
-2.7792837007874014
0
LINE
8
BLACK
6
CONTINUOUS
10
5.6586614173228345
20
-2.783070866141732
11
5.6586614173228345
21
-3.3500000000000001
0
LINE
8
BLACK
6
CONTINUOUS
10
5.6586614173228345
20
-3.3500000000000001
11
6.2255905511811021
21
-3.3500000000000001
0
LINE
8
BLACK
6
CONTINUOUS
10
6.2255905511811021
20
-3.3500000000000001
11
6.2255905511811021
21
-2.783070866141732
0
LINE
8
BLACK
6
CONTINUOUS
10
6.2255905511811021
20
-2.783070866141732
11
5.6586614173228345
21
-2.783070866141732
0
LINE
8
BLACK
6
CONTINUOUS
10
11.8853989763779531
20
-2.7122364566929131
11
11.8864643307086606
21
-2.713301811023622
0
LINE
8
BLACK
6
CONTINUOUS
10
11.8864643307086606
20
-2.713301811023622
11
11.886614173228347
21
-2.7140551181102364
0
LINE
8
BLACK
6
CONTINUOUS
10
11.886614173228347
20
-2.7140551181102364
11
11.886614173228347
21
-3.2849212598425197
0
LINE
8
BLACK
6
CONTINUOUS
10
11.886614173228347
20
-3.2849212598425197
11
11.8864643307086606
21
-3.2856745669291336
0
LINE
8
BLACK
6
CONTINUOUS
10
11.8864643307086606
20
-3.2856745669291336
11
11.8853989763779531
21
-3.2867399212598425
0
LINE
8
BLACK
6
CONTINUOUS
10
11.8853989763779531
20
-3.2867399212598425
11
11.8846456692913378
21
-3.2868897637795276
0
LINE
8
BLACK
6
CONTINUOUS
10
11.8846456692913378
20
-3.2868897637795276
11
11.3137795275590545
21
-3.2868897637795276
0
LINE
8
BLACK
6
CONTINUOUS
10
11.3137795275590545
20
-3.2868897637795276
11
11.313026220472441
21
-3.2867399212598425
0
LINE
8
BLACK
6
CONTINUOUS
10
11.313026220472441
20
-3.2867399212598425
11
11.3119608661417317
21
-3.2856745669291336
0
LINE
8
BLACK
6
CONTINUOUS
10
11.3119608661417317
20
-3.2856745669291336
11
11.311811023622047
21
-3.2849212598425197
0
LINE
8
BLACK
6
CONTINUOUS
10
11.311811023622047
20
-3.2849212598425197
11
11.311811023622047
21
-2.7140551181102364
0
LINE
8
BLACK
6
CONTINUOUS
10
11.311811023622047
20
-2.7140551181102364
11
11.3119608661417317
21
-2.713301811023622
0
LINE
8
BLACK
6
CONTINUOUS
10
11.3119608661417317
20
-2.713301811023622
11
11.313026220472441
21
-2.7122364566929131
0
LINE
8
BLACK
6
CONTINUOUS
10
11.313026220472441
20
-2.7122364566929131
11
11.3137795275590545
21
-2.7120866141732285
0
LINE
8
BLACK
6
CONTINUOUS
10
11.3137795275590545
20
-2.7120866141732285
11
11.8846456692913378
21
-2.7120866141732285
0
LINE
8
BLACK
6
CONTINUOUS
10
11.8846456692913378
20
-2.7120866141732285
11
11.8853989763779531
21
-2.7122364566929131
0
LINE
8
BLACK
6
CONTINUOUS
10
11.3157480314960619
20
-2.7160236220472442
11
11.3157480314960619
21
-3.2829527559055118
0
LINE
8
BLACK
6
CONTINUOUS
10
11.3157480314960619
20
-3.2829527559055118
11
11.8826771653543304
21
-3.2829527559055118
0
LINE
8
BLACK
6
CONTINUOUS
10
11.8826771653543304
20
-3.2829527559055118
11
11.8826771653543304
21
-2.7160236220472442
0
LINE
8
BLACK
6
CONTINUOUS
10
11.8826771653543304
20
-2.7160236220472442
11
11.3157480314960619
21
-2.7160236220472442
0
LINE
8
BLACK
6
CONTINUOUS
10
5.5196509448818896
20
-2.7005435433070866
11
5.520716299212598
21
-2.701608897637795
0
LINE
8
BLACK
6
CONTINUOUS
10
5.520716299212598
20
-2.701608897637795
11
5.5208661417322835
21
-2.7023622047244094
0
LINE
8
BLACK
6
CONTINUOUS
10
5.5208661417322835
20
-2.7023622047244094
11
5.5208661417322835
21
-3.2732283464566927
0
LINE
8
BLACK
6
CONTINUOUS
10
5.5208661417322835
20
-3.2732283464566927
11
5.520716299212598
21
-3.2739816535433071
0
LINE
8
BLACK
6
CONTINUOUS
10
5.520716299212598
20
-3.2739816535433071
11
5.5196509448818896
21
-3.2750470078740155
0
LINE
8
BLACK
6
CONTINUOUS
10
5.5196509448818896
20
-3.2750470078740155
11
5.5188976377952752
21
-3.2751968503937006
0
LINE
8
BLACK
6
CONTINUOUS
10
5.5188976377952752
20
-3.2751968503937006
11
4.9480314960629919
21
-3.2751968503937006
0
LINE
8
BLACK
6
CONTINUOUS
10
4.9480314960629919
20
-3.2751968503937006
11
4.9472781889763775
21
-3.2750470078740155
0
LINE
8
BLACK
6
CONTINUOUS
10
4.9472781889763775
20
-3.2750470078740155
11
4.9462128346456691
21
-3.2739816535433071
0
LINE
8
BLACK
6
CONTINUOUS
10
4.9462128346456691
20
-3.2739816535433071
11
4.9460629921259844
21
-3.2732283464566927
0
LINE
8
BLACK
6
CONTINUOUS
10
4.9460629921259844
20
-3.2732283464566927
11
4.9460629921259844
21
-2.7023622047244094
0
LINE
8
BLACK
6
CONTINUOUS
10
4.9460629921259844
20
-2.7023622047244094
11
4.9462128346456691
21
-2.701608897637795
0
LINE
8
BLACK
6
CONTINUOUS
10
4.9462128346456691
20
-2.701608897637795
11
4.9472781889763775
21
-2.7005435433070866
0
LINE
8
BLACK
6
CONTINUOUS
10
4.9472781889763775
20
-2.7005435433070866
11
4.9480314960629919
21
-2.7003937007874015
0
LINE
8
BLACK
6
CONTINUOUS
10
4.9480314960629919
20
-2.7003937007874015
11
5.5188976377952752
21
-2.7003937007874015
0
LINE
8
BLACK
6
CONTINUOUS
10
5.5188976377952752
20
-2.7003937007874015
11
5.5196509448818896
21
-2.7005435433070866
0
LINE
8
BLACK
6
CONTINUOUS
10
4.9500000000000002
20
-2.7043307086614172
11
4.9500000000000002
21
-3.2712598425196848
0
LINE
8
BLACK
6
CONTINUOUS
10
4.9500000000000002
20
-3.2712598425196848
11
5.5169291338582678
21
-3.2712598425196848
0
LINE
8
BLACK
6
CONTINUOUS
10
5.5169291338582678
20
-3.2712598425196848
11
5.5169291338582678
21
-2.7043307086614172
0
LINE
8
BLACK
6
CONTINUOUS
10
5.5169291338582678
20
-2.7043307086614172
11
4.9500000000000002
21
-2.7043307086614172
0
LINE
8
BLACK
6
CONTINUOUS
10
13.3027218110236216
20
-2.2712915748031497
11
13.3037871653543309
21
-2.2723569291338581
0
LINE
8
BLACK
6
CONTINUOUS
10
13.3037871653543309
20
-2.2723569291338581
11
13.3039370078740156
21
-2.2731102362204725
0
LINE
8
BLACK
6
CONTINUOUS
10
13.3039370078740156
20
-2.2731102362204725
11
13.3039370078740156
21
-2.8439763779527558
0
LINE
8
BLACK
6
CONTINUOUS
10
13.3039370078740156
20
-2.8439763779527558
11
13.3037871653543309
21
-2.8447296850393702
0
LINE
8
BLACK
6
CONTINUOUS
10
13.3037871653543309
20
-2.8447296850393702
11
13.3027218110236216
21
-2.8457950393700786
0
LINE
8
BLACK
6
CONTINUOUS
10
13.3027218110236216
20
-2.8457950393700786
11
13.3019685039370081
21
-2.8459448818897637
0
LINE
8
BLACK
6
CONTINUOUS
10
13.3019685039370081
20
-2.8459448818897637
11
12.7311023622047248
21
-2.8459448818897637
0
LINE
8
BLACK
6
CONTINUOUS
10
12.7311023622047248
20
-2.8459448818897637
11
12.7303490551181095
21
-2.8457950393700786
0
LINE
8
BLACK
6
CONTINUOUS
10
12.7303490551181095
20
-2.8457950393700786
11
12.729283700787402
21
-2.8447296850393702
0
LINE
8
BLACK
6
CONTINUOUS
10
12.729283700787402
20
-2.8447296850393702
11
12.7291338582677156
21
-2.8439763779527558
0
LINE
8
BLACK
6
CONTINUOUS
10
12.7291338582677156
20
-2.8439763779527558
11
12.7291338582677156
21
-2.2731102362204725
0
LINE
8
BLACK
6
CONTINUOUS
10
12.7291338582677156
20
-2.2731102362204725
11
12.729283700787402
21
-2.2723569291338581
0
LINE
8
BLACK
6
CONTINUOUS
10
12.729283700787402
20
-2.2723569291338581
11
12.7303490551181095
21
-2.2712915748031497
0
LINE
8
BLACK
6
CONTINUOUS
10
12.7303490551181095
20
-2.2712915748031497
11
12.7311023622047248
21
-2.2711417322834646
0
LINE
8
BLACK
6
CONTINUOUS
10
12.7311023622047248
20
-2.2711417322834646
11
13.3019685039370081
21
-2.2711417322834646
0
LINE
8
BLACK
6
CONTINUOUS
10
13.3019685039370081
20
-2.2711417322834646
11
13.3027218110236216
21
-2.2712915748031497
0
LINE
8
BLACK
6
CONTINUOUS
10
12.7330708661417322
20
-2.2750787401574804
11
12.7330708661417322
21
-2.8420078740157479
0
LINE
8
BLACK
6
CONTINUOUS
10
12.7330708661417322
20
-2.8420078740157479
11
13.2999999999999989
21
-2.8420078740157479
0
LINE
8
BLACK
6
CONTINUOUS
10
13.2999999999999989
20
-2.8420078740157479
11
13.2999999999999989
21
-2.2750787401574804
0
LINE
8
BLACK
6
CONTINUOUS
10
13.2999999999999989
20
-2.2750787401574804
11
12.7330708661417322
21
-2.2750787401574804
0
LINE
8
BLACK
6
CONTINUOUS
10
14.0113832283464568
20
-2.2712915748031497
11
14.0124485826771643
21
-2.2723569291338581
0
LINE
8
BLACK
6
CONTINUOUS
10
14.0124485826771643
20
-2.2723569291338581
11
14.0125984251968507
21
-2.2731102362204725
0
LINE
8
BLACK
6
CONTINUOUS
10
14.0125984251968507
20
-2.2731102362204725
11
14.0125984251968507
21
-2.8439763779527558
0
LINE
8
BLACK
6
CONTINUOUS
10
14.0125984251968507
20
-2.8439763779527558
11
14.0124485826771643
21
-2.8447296850393702
0
LINE
8
BLACK
6
CONTINUOUS
10
14.0124485826771643
20
-2.8447296850393702
11
14.0113832283464568
21
-2.8457950393700786
0
LINE
8
BLACK
6
CONTINUOUS
10
14.0113832283464568
20
-2.8457950393700786
11
14.0106299212598415
21
-2.8459448818897637
0
LINE
8
BLACK
6
CONTINUOUS
10
14.0106299212598415
20
-2.8459448818897637
11
13.4397637795275582
21
-2.8459448818897637
0
LINE
8
BLACK
6
CONTINUOUS
10
13.4397637795275582
20
-2.8459448818897637
11
13.4390104724409447
21
-2.8457950393700786
0
LINE
8
BLACK
6
CONTINUOUS
10
13.4390104724409447
20
-2.8457950393700786
11
13.4379451181102354
21
-2.8447296850393702
0
LINE
8
BLACK
6
CONTINUOUS
10
13.4379451181102354
20
-2.8447296850393702
11
13.4377952755905508
21
-2.8439763779527558
0
LINE
8
BLACK
6
CONTINUOUS
10
13.4377952755905508
20
-2.8439763779527558
11
13.4377952755905508
21
-2.2731102362204725
0
LINE
8
BLACK
6
CONTINUOUS
10
13.4377952755905508
20
-2.2731102362204725
11
13.4379451181102354
21
-2.2723569291338581
0
LINE
8
BLACK
6
CONTINUOUS
10
13.4379451181102354
20
-2.2723569291338581
11
13.4390104724409447
21
-2.2712915748031497
0
LINE
8
BLACK
6
CONTINUOUS
10
13.4390104724409447
20
-2.2712915748031497
11
13.4397637795275582
21
-2.2711417322834646
0
LINE
8
BLACK
6
CONTINUOUS
10
13.4397637795275582
20
-2.2711417322834646
11
14.0106299212598415
21
-2.2711417322834646
0
LINE
8
BLACK
6
CONTINUOUS
10
14.0106299212598415
20
-2.2711417322834646
11
14.0113832283464568
21
-2.2712915748031497
0
LINE
8
BLACK
6
CONTINUOUS
10
13.4417322834645674
20
-2.2750787401574804
11
13.4417322834645674
21
-2.8420078740157479
0
LINE
8
BLACK
6
CONTINUOUS
10
13.4417322834645674
20
-2.8420078740157479
11
14.0086614173228341
21
-2.8420078740157479
0
LINE
8
BLACK
6
CONTINUOUS
10
14.0086614173228341
20
-2.8420078740157479
11
14.0086614173228341
21
-2.2750787401574804
0
LINE
8
BLACK
6
CONTINUOUS
10
14.0086614173228341
20
-2.2750787401574804
11
13.4417322834645674
21
-2.2750787401574804
0
LINE
8
BLACK
6
CONTINUOUS
10
3.3936666929133859
20
-2.2595986614173227
11
3.3947320472440943
21
-2.2606640157480316
0
LINE
8
BLACK
6
CONTINUOUS
10
3.3947320472440943
20
-2.2606640157480316
11
3.3948818897637794
21
-2.2614173228346455
0
LINE
8
BLACK
6
CONTINUOUS
10
3.3948818897637794
20
-2.2614173228346455
11
3.3948818897637794
21
-2.8322834645669293
0
LINE
8
BLACK
6
CONTINUOUS
10
3.3948818897637794
20
-2.8322834645669293
11
3.3947320472440943
21
-2.8330367716535432
0
LINE
8
BLACK
6
CONTINUOUS
10
3.3947320472440943
20
-2.8330367716535432
11
3.3936666929133859
21
-2.834102125984252
0
LINE
8
BLACK
6
CONTINUOUS
10
3.3936666929133859
20
-2.834102125984252
11
3.3929133858267715
21
-2.8342519685039371
0
LINE
8
BLACK
6
CONTINUOUS
10
3.3929133858267715
20
-2.8342519685039371
11
2.8220472440944881
21
-2.8342519685039371
0
LINE
8
BLACK
6
CONTINUOUS
10
2.8220472440944881
20
-2.8342519685039371
11
2.8212939370078738
21
-2.834102125984252
0
LINE
8
BLACK
6
CONTINUOUS
10
2.8212939370078738
20
-2.834102125984252
11
2.8202285826771654
21
-2.8330367716535432
0
LINE
8
BLACK
6
CONTINUOUS
10
2.8202285826771654
20
-2.8330367716535432
11
2.8200787401574803
21
-2.8322834645669293
0
LINE
8
BLACK
6
CONTINUOUS
10
2.8200787401574803
20
-2.8322834645669293
11
2.8200787401574803
21
-2.2614173228346455
0
LINE
8
BLACK
6
CONTINUOUS
10
2.8200787401574803
20
-2.2614173228346455
11
2.8202285826771654
21
-2.2606640157480316
0
LINE
8
BLACK
6
CONTINUOUS
10
2.8202285826771654
20
-2.2606640157480316
11
2.8212939370078738
21
-2.2595986614173227
0
LINE
8
BLACK
6
CONTINUOUS
10
2.8212939370078738
20
-2.2595986614173227
11
2.8220472440944881
21
-2.2594488188976376
0
LINE
8
BLACK
6
CONTINUOUS
10
2.8220472440944881
20
-2.2594488188976376
11
3.3929133858267715
21
-2.2594488188976376
0
LINE
8
BLACK
6
CONTINUOUS
10
3.3929133858267715
20
-2.2594488188976376
11
3.3936666929133859
21
-2.2595986614173227
0
LINE
8
BLACK
6
CONTINUOUS
10
2.824015748031496
20
-2.2633858267716533
11
2.824015748031496
21
-2.8303149606299214
0
LINE
8
BLACK
6
CONTINUOUS
10
2.824015748031496
20
-2.8303149606299214
11
3.3909448818897636
21
-2.8303149606299214
0
LINE
8
BLACK
6
CONTINUOUS
10
3.3909448818897636
20
-2.8303149606299214
11
3.3909448818897636
21
-2.2633858267716533
0
LINE
8
BLACK
6
CONTINUOUS
10
3.3909448818897636
20
-2.2633858267716533
11
2.824015748031496
21
-2.2633858267716533
0
LINE
8
BLACK
6
CONTINUOUS
10
4.1023281102362201
20
-2.2595986614173227
11
4.1033934645669294
21
-2.2606640157480316
0
LINE
8
BLACK
6
CONTINUOUS
10
4.1033934645669294
20
-2.2606640157480316
11
4.1035433070866141
21
-2.2614173228346455
0
LINE
8
BLACK
6
CONTINUOUS
10
4.1035433070866141
20
-2.2614173228346455
11
4.1035433070866141
21
-2.8322834645669293
0
LINE
8
BLACK
6
CONTINUOUS
10
4.1035433070866141
20
-2.8322834645669293
11
4.1033934645669294
21
-2.8330367716535432
0
LINE
8
BLACK
6
CONTINUOUS
10
4.1033934645669294
20
-2.8330367716535432
11
4.1023281102362201
21
-2.834102125984252
0
LINE
8
BLACK
6
CONTINUOUS
10
4.1023281102362201
20
-2.834102125984252
11
4.1015748031496058
21
-2.8342519685039371
0
LINE
8
BLACK
6
CONTINUOUS
10
4.1015748031496058
20
-2.8342519685039371
11
3.5307086614173229
21
-2.8342519685039371
0
LINE
8
BLACK
6
CONTINUOUS
10
3.5307086614173229
20
-2.8342519685039371
11
3.5299553543307085
21
-2.834102125984252
0
LINE
8
BLACK
6
CONTINUOUS
10
3.5299553543307085
20
-2.834102125984252
11
3.5288900000000001
21
-2.8330367716535432
0
LINE
8
BLACK
6
CONTINUOUS
10
3.5288900000000001
20
-2.8330367716535432
11
3.528740157480315
21
-2.8322834645669293
0
LINE
8
BLACK
6
CONTINUOUS
10
3.528740157480315
20
-2.8322834645669293
11
3.528740157480315
21
-2.2614173228346455
0
LINE
8
BLACK
6
CONTINUOUS
10
3.528740157480315
20
-2.2614173228346455
11
3.5288900000000001
21
-2.2606640157480316
0
LINE
8
BLACK
6
CONTINUOUS
10
3.5288900000000001
20
-2.2606640157480316
11
3.5299553543307085
21
-2.2595986614173227
0
LINE
8
BLACK
6
CONTINUOUS
10
3.5299553543307085
20
-2.2595986614173227
11
3.5307086614173229
21
-2.2594488188976376
0
LINE
8
BLACK
6
CONTINUOUS
10
3.5307086614173229
20
-2.2594488188976376
11
4.1015748031496058
21
-2.2594488188976376
0
LINE
8
BLACK
6
CONTINUOUS
10
4.1015748031496058
20
-2.2594488188976376
11
4.1023281102362201
21
-2.2595986614173227
0
LINE
8
BLACK
6
CONTINUOUS
10
3.5326771653543307
20
-2.2633858267716533
11
3.5326771653543307
21
-2.8303149606299214
0
LINE
8
BLACK
6
CONTINUOUS
10
3.5326771653543307
20
-2.8303149606299214
11
4.0996062992125983
21
-2.8303149606299214
0
LINE
8
BLACK
6
CONTINUOUS
10
4.0996062992125983
20
-2.8303149606299214
11
4.0996062992125983
21
-2.2633858267716533
0
LINE
8
BLACK
6
CONTINUOUS
10
4.0996062992125983
20
-2.2633858267716533
11
3.5326771653543307
21
-2.2633858267716533
0
LINE
8
BLACK
6
CONTINUOUS
10
10.4680761417322827
20
-2.1964884251968502
11
10.469141496062992
21
-2.197553779527559
0
LINE
8
BLACK
6
CONTINUOUS
10
10.469141496062992
20
-2.197553779527559
11
10.4692913385826767
21
-2.1983070866141734
0
LINE
8
BLACK
6
CONTINUOUS
10
10.4692913385826767
20
-2.1983070866141734
11
10.4692913385826767
21
-2.7691732283464567
0
LINE
8
BLACK
6
CONTINUOUS
10
10.4692913385826767
20
-2.7691732283464567
11
10.469141496062992
21
-2.7699265354330707
0
LINE
8
BLACK
6
CONTINUOUS
10
10.469141496062992
20
-2.7699265354330707
11
10.4680761417322827
21
-2.7709918897637795
0
LINE
8
BLACK
6
CONTINUOUS
10
10.4680761417322827
20
-2.7709918897637795
11
10.4673228346456693
21
-2.7711417322834646
0
LINE
8
BLACK
6
CONTINUOUS
10
10.4673228346456693
20
-2.7711417322834646
11
9.8964566929133859
21
-2.7711417322834646
0
LINE
8
BLACK
6
CONTINUOUS
10
9.8964566929133859
20
-2.7711417322834646
11
9.8957033858267707
21
-2.7709918897637795
0
LINE
8
BLACK
6
CONTINUOUS
10
9.8957033858267707
20
-2.7709918897637795
11
9.8946380314960631
21
-2.7699265354330707
0
LINE
8
BLACK
6
CONTINUOUS
10
9.8946380314960631
20
-2.7699265354330707
11
9.8944881889763785
21
-2.7691732283464567
0
LINE
8
BLACK
6
CONTINUOUS
10
9.8944881889763785
20
-2.7691732283464567
11
9.8944881889763785
21
-2.1983070866141734
0
LINE
8
BLACK
6
CONTINUOUS
10
9.8944881889763785
20
-2.1983070866141734
11
9.8946380314960631
21
-2.197553779527559
0
LINE
8
BLACK
6
CONTINUOUS
10
9.8946380314960631
20
-2.197553779527559
11
9.8957033858267707
21
-2.1964884251968502
0
LINE
8
BLACK
6
CONTINUOUS
10
9.8957033858267707
20
-2.1964884251968502
11
9.8964566929133859
21
-2.1963385826771651
0
LINE
8
BLACK
6
CONTINUOUS
10
9.8964566929133859
20
-2.1963385826771651
11
10.4673228346456693
21
-2.1963385826771651
0
LINE
8
BLACK
6
CONTINUOUS
10
10.4673228346456693
20
-2.1963385826771651
11
10.4680761417322827
21
-2.1964884251968502
0
LINE
8
BLACK
6
CONTINUOUS
10
9.8984251968503933
20
-2.2002755905511813
11
9.8984251968503933
21
-2.7672047244094489
0
LINE
8
BLACK
6
CONTINUOUS
10
9.8984251968503933
20
-2.7672047244094489
11
10.4653543307086618
21
-2.7672047244094489
0
LINE
8
BLACK
6
CONTINUOUS
10
10.4653543307086618
20
-2.7672047244094489
11
10.4653543307086618
21
-2.2002755905511813
0
LINE
8
BLACK
6
CONTINUOUS
10
10.4653543307086618
20
-2.2002755905511813
11
9.8984251968503933
21
-2.2002755905511813
0
LINE
8
BLACK
6
CONTINUOUS
10
6.936973779527559
20
-2.1847955118110236
11
6.9380391338582674
21
-2.185860866141732
0
LINE
8
BLACK
6
CONTINUOUS
10
6.9380391338582674
20
-2.185860866141732
11
6.938188976377953
21
-2.1866141732283464
0
LINE
8
BLACK
6
CONTINUOUS
10
6.938188976377953
20
-2.1866141732283464
11
6.938188976377953
21
-2.7574803149606297
0
LINE
8
BLACK
6
CONTINUOUS
10
6.938188976377953
20
-2.7574803149606297
11
6.9380391338582674
21
-2.7582336220472441
0
LINE
8
BLACK
6
CONTINUOUS
10
6.9380391338582674
20
-2.7582336220472441
11
6.936973779527559
21
-2.7592989763779525
0
LINE
8
BLACK
6
CONTINUOUS
10
6.936973779527559
20
-2.7592989763779525
11
6.9362204724409446
21
-2.7594488188976376
0
LINE
8
BLACK
6
CONTINUOUS
10
6.9362204724409446
20
-2.7594488188976376
11
6.3653543307086613
21
-2.7594488188976376
0
LINE
8
BLACK
6
CONTINUOUS
10
6.3653543307086613
20
-2.7594488188976376
11
6.3646010236220469
21
-2.7592989763779525
0
LINE
8
BLACK
6
CONTINUOUS
10
6.3646010236220469
20
-2.7592989763779525
11
6.3635356692913385
21
-2.7582336220472441
0
LINE
8
BLACK
6
CONTINUOUS
10
6.3635356692913385
20
-2.7582336220472441
11
6.363385826771653
21
-2.7574803149606297
0
LINE
8
BLACK
6
CONTINUOUS
10
6.363385826771653
20
-2.7574803149606297
11
6.363385826771653
21
-2.1866141732283464
0
LINE
8
BLACK
6
CONTINUOUS
10
6.363385826771653
20
-2.1866141732283464
11
6.3635356692913385
21
-2.185860866141732
0
LINE
8
BLACK
6
CONTINUOUS
10
6.3635356692913385
20
-2.185860866141732
11
6.3646010236220469
21
-2.1847955118110236
0
LINE
8
BLACK
6
CONTINUOUS
10
6.3646010236220469
20
-2.1847955118110236
11
6.3653543307086613
21
-2.1846456692913385
0
LINE
8
BLACK
6
CONTINUOUS
10
6.3653543307086613
20
-2.1846456692913385
11
6.9362204724409446
21
-2.1846456692913385
0
LINE
8
BLACK
6
CONTINUOUS
10
6.9362204724409446
20
-2.1846456692913385
11
6.936973779527559
21
-2.1847955118110236
0
LINE
8
BLACK
6
CONTINUOUS
10
6.3673228346456687
20
-2.1885826771653543
11
6.3673228346456687
21
-2.7555118110236219
0
LINE
8
BLACK
6
CONTINUOUS
10
6.3673228346456687
20
-2.7555118110236219
11
6.9342519685039372
21
-2.7555118110236219
0
LINE
8
BLACK
6
CONTINUOUS
10
6.9342519685039372
20
-2.7555118110236219
11
6.9342519685039372
21
-2.1885826771653543
0
LINE
8
BLACK
6
CONTINUOUS
10
6.9342519685039372
20
-2.1885826771653543
11
6.3673228346456687
21
-2.1885826771653543
0
LINE
8
BLACK
6
CONTINUOUS
10
11.1767375590551179
20
-2.1216852755905511
11
11.1778029133858272
21
-2.12275062992126
0
LINE
8
BLACK
6
CONTINUOUS
10
11.1778029133858272
20
-2.12275062992126
11
11.1779527559055119
21
-2.1235039370078739
0
LINE
8
BLACK
6
CONTINUOUS
10
11.1779527559055119
20
-2.1235039370078739
11
11.1779527559055119
21
-2.6943700787401572
0
LINE
8
BLACK
6
CONTINUOUS
10
11.1779527559055119
20
-2.6943700787401572
11
11.1778029133858272
21
-2.6951233858267716
0
LINE
8
BLACK
6
CONTINUOUS
10
11.1778029133858272
20
-2.6951233858267716
11
11.1767375590551179
21
-2.6961887401574804
0
LINE
8
BLACK
6
CONTINUOUS
10
11.1767375590551179
20
-2.6961887401574804
11
11.1759842519685044
21
-2.6963385826771651
0
LINE
8
BLACK
6
CONTINUOUS
10
11.1759842519685044
20
-2.6963385826771651
11
10.6051181102362211
21
-2.6963385826771651
0
LINE
8
BLACK
6
CONTINUOUS
10
10.6051181102362211
20
-2.6963385826771651
11
10.6043648031496058
21
-2.6961887401574804
0
LINE
8
BLACK
6
CONTINUOUS
10
10.6043648031496058
20
-2.6961887401574804
11
10.6032994488188965
21
-2.6951233858267716
0
LINE
8
BLACK
6
CONTINUOUS
10
10.6032994488188965
20
-2.6951233858267716
11
10.6031496062992119
21
-2.6943700787401572
0
LINE
8
BLACK
6
CONTINUOUS
10
10.6031496062992119
20
-2.6943700787401572
11
10.6031496062992119
21
-2.1235039370078739
0
LINE
8
BLACK
6
CONTINUOUS
10
10.6031496062992119
20
-2.1235039370078739
11
10.6032994488188965
21
-2.12275062992126
0
LINE
8
BLACK
6
CONTINUOUS
10
10.6032994488188965
20
-2.12275062992126
11
10.6043648031496058
21
-2.1216852755905511
0
LINE
8
BLACK
6
CONTINUOUS
10
10.6043648031496058
20
-2.1216852755905511
11
10.6051181102362211
21
-2.121535433070866
0
LINE
8
BLACK
6
CONTINUOUS
10
10.6051181102362211
20
-2.121535433070866
11
11.1759842519685044
21
-2.121535433070866
0
LINE
8
BLACK
6
CONTINUOUS
10
11.1759842519685044
20
-2.121535433070866
11
11.1767375590551179
21
-2.1216852755905511
0
LINE
8
BLACK
6
CONTINUOUS
10
10.6070866141732285
20
-2.1254724409448817
11
10.6070866141732285
21
-2.6924015748031493
0
LINE
8
BLACK
6
CONTINUOUS
10
10.6070866141732285
20
-2.6924015748031493
11
11.1740157480314952
21
-2.6924015748031493
0
LINE
8
BLACK
6
CONTINUOUS
10
11.1740157480314952
20
-2.6924015748031493
11
11.1740157480314952
21
-2.1254724409448817
0
LINE
8
BLACK
6
CONTINUOUS
10
11.1740157480314952
20
-2.1254724409448817
11
10.6070866141732285
21
-2.1254724409448817
0
LINE
8
BLACK
6
CONTINUOUS
10
12.5940603937007864
20
-2.1216852755905511
11
12.5951257480314958
21
-2.12275062992126
0
LINE
8
BLACK
6
CONTINUOUS
10
12.5951257480314958
20
-2.12275062992126
11
12.5952755905511804
21
-2.1235039370078739
0
LINE
8
BLACK
6
CONTINUOUS
10
12.5952755905511804
20
-2.1235039370078739
11
12.5952755905511804
21
-2.6943700787401572
0
LINE
8
BLACK
6
CONTINUOUS
10
12.5952755905511804
20
-2.6943700787401572
11
12.5951257480314958
21
-2.6951233858267716
0
LINE
8
BLACK
6
CONTINUOUS
10
12.5951257480314958
20
-2.6951233858267716
11
12.5940603937007864
21
-2.6961887401574804
0
LINE
8
BLACK
6
CONTINUOUS
10
12.5940603937007864
20
-2.6961887401574804
11
12.593307086614173
21
-2.6963385826771651
0
LINE
8
BLACK
6
CONTINUOUS
10
12.593307086614173
20
-2.6963385826771651
11
12.0224409448818896
21
-2.6963385826771651
0
LINE
8
BLACK
6
CONTINUOUS
10
12.0224409448818896
20
-2.6963385826771651
11
12.0216876377952762
21
-2.6961887401574804
0
LINE
8
BLACK
6
CONTINUOUS
10
12.0216876377952762
20
-2.6961887401574804
11
12.0206222834645668
21
-2.6951233858267716
0
LINE
8
BLACK
6
CONTINUOUS
10
12.0206222834645668
20
-2.6951233858267716
11
12.0204724409448822
21
-2.6943700787401572
0
LINE
8
BLACK
6
CONTINUOUS
10
12.0204724409448822
20
-2.6943700787401572
11
12.0204724409448822
21
-2.1235039370078739
0
LINE
8
BLACK
6
CONTINUOUS
10
12.0204724409448822
20
-2.1235039370078739
11
12.0206222834645668
21
-2.12275062992126
0
LINE
8
BLACK
6
CONTINUOUS
10
12.0206222834645668
20
-2.12275062992126
11
12.0216876377952762
21
-2.1216852755905511
0
LINE
8
BLACK
6
CONTINUOUS
10
12.0216876377952762
20
-2.1216852755905511
11
12.0224409448818896
21
-2.121535433070866
0
LINE
8
BLACK
6
CONTINUOUS
10
12.0224409448818896
20
-2.121535433070866
11
12.593307086614173
21
-2.121535433070866
0
LINE
8
BLACK
6
CONTINUOUS
10
12.593307086614173
20
-2.121535433070866
11
12.5940603937007864
21
-2.1216852755905511
0
LINE
8
BLACK
6
CONTINUOUS
10
12.0244094488188971
20
-2.1254724409448817
11
12.0244094488188971
21
-2.6924015748031493
0
LINE
8
BLACK
6
CONTINUOUS
10
12.0244094488188971
20
-2.6924015748031493
11
12.5913385826771655
21
-2.6924015748031493
0
LINE
8
BLACK
6
CONTINUOUS
10
12.5913385826771655
20
-2.6924015748031493
11
12.5913385826771655
21
-2.1254724409448817
0
LINE
8
BLACK
6
CONTINUOUS
10
12.5913385826771655
20
-2.1254724409448817
11
12.0244094488188971
21
-2.1254724409448817
0
LINE
8
BLACK
6
CONTINUOUS
10
4.8109895275590553
20
-2.1099923622047245
11
4.8120548818897637
21
-2.1110577165354329
0
LINE
8
BLACK
6
CONTINUOUS
10
4.8120548818897637
20
-2.1110577165354329
11
4.8122047244094484
21
-2.1118110236220473
0
LINE
8
BLACK
6
CONTINUOUS
10
4.8122047244094484
20
-2.1118110236220473
11
4.8122047244094484
21
-2.6826771653543307
0
LINE
8
BLACK
6
CONTINUOUS
10
4.8122047244094484
20
-2.6826771653543307
11
4.8120548818897637
21
-2.683430472440945
0
LINE
8
BLACK
6
CONTINUOUS
10
4.8120548818897637
20
-2.683430472440945
11
4.8109895275590553
21
-2.6844958267716534
0
LINE
8
BLACK
6
CONTINUOUS
10
4.8109895275590553
20
-2.6844958267716534
11
4.8102362204724409
21
-2.6846456692913385
0
LINE
8
BLACK
6
CONTINUOUS
10
4.8102362204724409
20
-2.6846456692913385
11
4.2393700787401576
21
-2.6846456692913385
0
LINE
8
BLACK
6
CONTINUOUS
10
4.2393700787401576
20
-2.6846456692913385
11
4.2386167716535432
21
-2.6844958267716534
0
LINE
8
BLACK
6
CONTINUOUS
10
4.2386167716535432
20
-2.6844958267716534
11
4.2375514173228348
21
-2.683430472440945
0
LINE
8
BLACK
6
CONTINUOUS
10
4.2375514173228348
20
-2.683430472440945
11
4.2374015748031493
21
-2.6826771653543307
0
LINE
8
BLACK
6
CONTINUOUS
10
4.2374015748031493
20
-2.6826771653543307
11
4.2374015748031493
21
-2.1118110236220473
0
LINE
8
BLACK
6
CONTINUOUS
10
4.2374015748031493
20
-2.1118110236220473
11
4.2375514173228348
21
-2.1110577165354329
0
LINE
8
BLACK
6
CONTINUOUS
10
4.2375514173228348
20
-2.1110577165354329
11
4.2386167716535432
21
-2.1099923622047245
0
LINE
8
BLACK
6
CONTINUOUS
10
4.2386167716535432
20
-2.1099923622047245
11
4.2393700787401576
21
-2.1098425196850394
0
LINE
8
BLACK
6
CONTINUOUS
10
4.2393700787401576
20
-2.1098425196850394
11
4.8102362204724409
21
-2.1098425196850394
0
LINE
8
BLACK
6
CONTINUOUS
10
4.8102362204724409
20
-2.1098425196850394
11
4.8109895275590553
21
-2.1099923622047245
0
LINE
8
BLACK
6
CONTINUOUS
10
4.241338582677165
20
-2.1137795275590552
11
4.241338582677165
21
-2.6807086614173228
0
LINE
8
BLACK
6
CONTINUOUS
10
4.241338582677165
20
-2.6807086614173228
11
4.8082677165354326
21
-2.6807086614173228
0
LINE
8
BLACK
6
CONTINUOUS
10
4.8082677165354326
20
-2.6807086614173228
11
4.8082677165354326
21
-2.1137795275590552
0
LINE
8
BLACK
6
CONTINUOUS
10
4.8082677165354326
20
-2.1137795275590552
11
4.241338582677165
21
-2.1137795275590552
0
LINE
8
BLACK
6
CONTINUOUS
10
6.2283123622047238
20
-2.1099923622047245
11
6.2293777165354332
21
-2.1110577165354329
0
LINE
8
BLACK
6
CONTINUOUS
10
6.2293777165354332
20
-2.1110577165354329
11
6.2295275590551178
21
-2.1118110236220473
0
LINE
8
BLACK
6
CONTINUOUS
10
6.2295275590551178
20
-2.1118110236220473
11
6.2295275590551178
21
-2.6826771653543307
0
LINE
8
BLACK
6
CONTINUOUS
10
6.2295275590551178
20
-2.6826771653543307
11
6.2293777165354332
21
-2.683430472440945
0
LINE
8
BLACK
6
CONTINUOUS
10
6.2293777165354332
20
-2.683430472440945
11
6.2283123622047238
21
-2.6844958267716534
0
LINE
8
BLACK
6
CONTINUOUS
10
6.2283123622047238
20
-2.6844958267716534
11
6.2275590551181104
21
-2.6846456692913385
0
LINE
8
BLACK
6
CONTINUOUS
10
6.2275590551181104
20
-2.6846456692913385
11
5.656692913385827
21
-2.6846456692913385
0
LINE
8
BLACK
6
CONTINUOUS
10
5.656692913385827
20
-2.6846456692913385
11
5.6559396062992127
21
-2.6844958267716534
0
LINE
8
BLACK
6
CONTINUOUS
10
5.6559396062992127
20
-2.6844958267716534
11
5.6548742519685042
21
-2.683430472440945
0
LINE
8
BLACK
6
CONTINUOUS
10
5.6548742519685042
20
-2.683430472440945
11
5.6547244094488187
21
-2.6826771653543307
0
LINE
8
BLACK
6
CONTINUOUS
10
5.6547244094488187
20
-2.6826771653543307
11
5.6547244094488187
21
-2.1118110236220473
0
LINE
8
BLACK
6
CONTINUOUS
10
5.6547244094488187
20
-2.1118110236220473
11
5.6548742519685042
21
-2.1110577165354329
0
LINE
8
BLACK
6
CONTINUOUS
10
5.6548742519685042
20
-2.1110577165354329
11
5.6559396062992127
21
-2.1099923622047245
0
LINE
8
BLACK
6
CONTINUOUS
10
5.6559396062992127
20
-2.1099923622047245
11
5.656692913385827
21
-2.1098425196850394
0
LINE
8
BLACK
6
CONTINUOUS
10
5.656692913385827
20
-2.1098425196850394
11
6.2275590551181104
21
-2.1098425196850394
0
LINE
8
BLACK
6
CONTINUOUS
10
6.2275590551181104
20
-2.1098425196850394
11
6.2283123622047238
21
-2.1099923622047245
0
LINE
8
BLACK
6
CONTINUOUS
10
5.6586614173228345
20
-2.1137795275590552
11
5.6586614173228345
21
-2.6807086614173228
0
LINE
8
BLACK
6
CONTINUOUS
10
5.6586614173228345
20
-2.6807086614173228
11
6.2255905511811021
21
-2.6807086614173228
0
LINE
8
BLACK
6
CONTINUOUS
10
6.2255905511811021
20
-2.6807086614173228
11
6.2255905511811021
21
-2.1137795275590552
0
LINE
8
BLACK
6
CONTINUOUS
10
6.2255905511811021
20
-2.1137795275590552
11
5.6586614173228345
21
-2.1137795275590552
0
LINE
8
BLACK
6
CONTINUOUS
10
11.8853989763779531
20
-2.0429451181102363
11
11.8864643307086606
21
-2.0440104724409447
0
LINE
8
BLACK
6
CONTINUOUS
10
11.8864643307086606
20
-2.0440104724409447
11
11.886614173228347
21
-2.0447637795275591
0
LINE
8
BLACK
6
CONTINUOUS
10
11.886614173228347
20
-2.0447637795275591
11
11.886614173228347
21
-2.6156299212598424
0
LINE
8
BLACK
6
CONTINUOUS
10
11.886614173228347
20
-2.6156299212598424
11
11.8864643307086606
21
-2.6163832283464568
0
LINE
8
BLACK
6
CONTINUOUS
10
11.8864643307086606
20
-2.6163832283464568
11
11.8853989763779531
21
-2.6174485826771652
0
LINE
8
BLACK
6
CONTINUOUS
10
11.8853989763779531
20
-2.6174485826771652
11
11.8846456692913378
21
-2.6175984251968503
0
LINE
8
BLACK
6
CONTINUOUS
10
11.8846456692913378
20
-2.6175984251968503
11
11.3137795275590545
21
-2.6175984251968503
0
LINE
8
BLACK
6
CONTINUOUS
10
11.3137795275590545
20
-2.6175984251968503
11
11.313026220472441
21
-2.6174485826771652
0
LINE
8
BLACK
6
CONTINUOUS
10
11.313026220472441
20
-2.6174485826771652
11
11.3119608661417317
21
-2.6163832283464568
0
LINE
8
BLACK
6
CONTINUOUS
10
11.3119608661417317
20
-2.6163832283464568
11
11.311811023622047
21
-2.6156299212598424
0
LINE
8
BLACK
6
CONTINUOUS
10
11.311811023622047
20
-2.6156299212598424
11
11.311811023622047
21
-2.0447637795275591
0
LINE
8
BLACK
6
CONTINUOUS
10
11.311811023622047
20
-2.0447637795275591
11
11.3119608661417317
21
-2.0440104724409447
0
LINE
8
BLACK
6
CONTINUOUS
10
11.3119608661417317
20
-2.0440104724409447
11
11.313026220472441
21
-2.0429451181102363
0
LINE
8
BLACK
6
CONTINUOUS
10
11.313026220472441
20
-2.0429451181102363
11
11.3137795275590545
21
-2.0427952755905512
0
LINE
8
BLACK
6
CONTINUOUS
10
11.3137795275590545
20
-2.0427952755905512
11
11.8846456692913378
21
-2.0427952755905512
0
LINE
8
BLACK
6
CONTINUOUS
10
11.8846456692913378
20
-2.0427952755905512
11
11.8853989763779531
21
-2.0429451181102363
0
LINE
8
BLACK
6
CONTINUOUS
10
11.3157480314960619
20
-2.0467322834645669
11
11.3157480314960619
21
-2.6136614173228345
0
LINE
8
BLACK
6
CONTINUOUS
10
11.3157480314960619
20
-2.6136614173228345
11
11.8826771653543304
21
-2.6136614173228345
0
LINE
8
BLACK
6
CONTINUOUS
10
11.8826771653543304
20
-2.6136614173228345
11
11.8826771653543304
21
-2.0467322834645669
0
LINE
8
BLACK
6
CONTINUOUS
10
11.8826771653543304
20
-2.0467322834645669
11
11.3157480314960619
21
-2.0467322834645669
0
LINE
8
BLACK
6
CONTINUOUS
10
5.5196509448818896
20
-2.0312522047244093
11
5.520716299212598
21
-2.0323175590551181
0
LINE
8
BLACK
6
CONTINUOUS
10
5.520716299212598
20
-2.0323175590551181
11
5.5208661417322835
21
-2.033070866141732
0
LINE
8
BLACK
6
CONTINUOUS
10
5.5208661417322835
20
-2.033070866141732
11
5.5208661417322835
21
-2.6039370078740158
0
LINE
8
BLACK
6
CONTINUOUS
10
5.5208661417322835
20
-2.6039370078740158
11
5.520716299212598
21
-2.6046903149606297
0
LINE
8
BLACK
6
CONTINUOUS
10
5.520716299212598
20
-2.6046903149606297
11
5.5196509448818896
21
-2.6057556692913386
0
LINE
8
BLACK
6
CONTINUOUS
10
5.5196509448818896
20
-2.6057556692913386
11
5.5188976377952752
21
-2.6059055118110237
0
LINE
8
BLACK
6
CONTINUOUS
10
5.5188976377952752
20
-2.6059055118110237
11
4.9480314960629919
21
-2.6059055118110237
0
LINE
8
BLACK
6
CONTINUOUS
10
4.9480314960629919
20
-2.6059055118110237
11
4.9472781889763775
21
-2.6057556692913386
0
LINE
8
BLACK
6
CONTINUOUS
10
4.9472781889763775
20
-2.6057556692913386
11
4.9462128346456691
21
-2.6046903149606297
0
LINE
8
BLACK
6
CONTINUOUS
10
4.9462128346456691
20
-2.6046903149606297
11
4.9460629921259844
21
-2.6039370078740158
0
LINE
8
BLACK
6
CONTINUOUS
10
4.9460629921259844
20
-2.6039370078740158
11
4.9460629921259844
21
-2.033070866141732
0
LINE
8
BLACK
6
CONTINUOUS
10
4.9460629921259844
20
-2.033070866141732
11
4.9462128346456691
21
-2.0323175590551181
0
LINE
8
BLACK
6
CONTINUOUS
10
4.9462128346456691
20
-2.0323175590551181
11
4.9472781889763775
21
-2.0312522047244093
0
LINE
8
BLACK
6
CONTINUOUS
10
4.9472781889763775
20
-2.0312522047244093
11
4.9480314960629919
21
-2.0311023622047242
0
LINE
8
BLACK
6
CONTINUOUS
10
4.9480314960629919
20
-2.0311023622047242
11
5.5188976377952752
21
-2.0311023622047242
0
LINE
8
BLACK
6
CONTINUOUS
10
5.5188976377952752
20
-2.0311023622047242
11
5.5196509448818896
21
-2.0312522047244093
0
LINE
8
BLACK
6
CONTINUOUS
10
4.9500000000000002
20
-2.0350393700787399
11
4.9500000000000002
21
-2.601968503937008
0
LINE
8
BLACK
6
CONTINUOUS
10
4.9500000000000002
20
-2.601968503937008
11
5.5169291338582678
21
-2.601968503937008
0
LINE
8
BLACK
6
CONTINUOUS
10
5.5169291338582678
20
-2.601968503937008
11
5.5169291338582678
21
-2.0350393700787399
0
LINE
8
BLACK
6
CONTINUOUS
10
5.5169291338582678
20
-2.0350393700787399
11
4.9500000000000002
21
-2.0350393700787399
  0
ENDSEC
  0
EOF
