%TF.GenerationSoftware,KiCad,Pcbnew,8.0.8*%
%TF.CreationDate,2025-02-19T23:36:16+01:00*%
%TF.ProjectId,Hackpad2.0,4861636b-7061-4643-922e-302e6b696361,rev?*%
%TF.SameCoordinates,Original*%
%TF.FileFunction,Legend,Top*%
%TF.FilePolarity,Positive*%
%FSLAX46Y46*%
G04 Gerber Fmt 4.6, Leading zero omitted, Abs format (unit mm)*
G04 Created by KiCad (PCBNEW 8.0.8) date 2025-02-19 23:36:16*
%MOMM*%
%LPD*%
G01*
G04 APERTURE LIST*
%ADD10C,0.150000*%
%ADD11C,0.101600*%
%ADD12C,0.120000*%
%ADD13C,0.040000*%
%ADD14C,0.127000*%
%ADD15C,0.100000*%
%ADD16C,0.504000*%
G04 APERTURE END LIST*
D10*
X135985476Y-52064450D02*
X136128333Y-52112069D01*
X136128333Y-52112069D02*
X136366428Y-52112069D01*
X136366428Y-52112069D02*
X136461666Y-52064450D01*
X136461666Y-52064450D02*
X136509285Y-52016830D01*
X136509285Y-52016830D02*
X136556904Y-51921592D01*
X136556904Y-51921592D02*
X136556904Y-51826354D01*
X136556904Y-51826354D02*
X136509285Y-51731116D01*
X136509285Y-51731116D02*
X136461666Y-51683497D01*
X136461666Y-51683497D02*
X136366428Y-51635878D01*
X136366428Y-51635878D02*
X136175952Y-51588259D01*
X136175952Y-51588259D02*
X136080714Y-51540640D01*
X136080714Y-51540640D02*
X136033095Y-51493021D01*
X136033095Y-51493021D02*
X135985476Y-51397783D01*
X135985476Y-51397783D02*
X135985476Y-51302545D01*
X135985476Y-51302545D02*
X136033095Y-51207307D01*
X136033095Y-51207307D02*
X136080714Y-51159688D01*
X136080714Y-51159688D02*
X136175952Y-51112069D01*
X136175952Y-51112069D02*
X136414047Y-51112069D01*
X136414047Y-51112069D02*
X136556904Y-51159688D01*
X136890238Y-51112069D02*
X137128333Y-52112069D01*
X137128333Y-52112069D02*
X137318809Y-51397783D01*
X137318809Y-51397783D02*
X137509285Y-52112069D01*
X137509285Y-52112069D02*
X137747381Y-51112069D01*
X138652142Y-52112069D02*
X138080714Y-52112069D01*
X138366428Y-52112069D02*
X138366428Y-51112069D01*
X138366428Y-51112069D02*
X138271190Y-51254926D01*
X138271190Y-51254926D02*
X138175952Y-51350164D01*
X138175952Y-51350164D02*
X138080714Y-51397783D01*
X139033095Y-51207307D02*
X139080714Y-51159688D01*
X139080714Y-51159688D02*
X139175952Y-51112069D01*
X139175952Y-51112069D02*
X139414047Y-51112069D01*
X139414047Y-51112069D02*
X139509285Y-51159688D01*
X139509285Y-51159688D02*
X139556904Y-51207307D01*
X139556904Y-51207307D02*
X139604523Y-51302545D01*
X139604523Y-51302545D02*
X139604523Y-51397783D01*
X139604523Y-51397783D02*
X139556904Y-51540640D01*
X139556904Y-51540640D02*
X138985476Y-52112069D01*
X138985476Y-52112069D02*
X139604523Y-52112069D01*
X155511667Y-71114450D02*
X155654524Y-71162069D01*
X155654524Y-71162069D02*
X155892619Y-71162069D01*
X155892619Y-71162069D02*
X155987857Y-71114450D01*
X155987857Y-71114450D02*
X156035476Y-71066830D01*
X156035476Y-71066830D02*
X156083095Y-70971592D01*
X156083095Y-70971592D02*
X156083095Y-70876354D01*
X156083095Y-70876354D02*
X156035476Y-70781116D01*
X156035476Y-70781116D02*
X155987857Y-70733497D01*
X155987857Y-70733497D02*
X155892619Y-70685878D01*
X155892619Y-70685878D02*
X155702143Y-70638259D01*
X155702143Y-70638259D02*
X155606905Y-70590640D01*
X155606905Y-70590640D02*
X155559286Y-70543021D01*
X155559286Y-70543021D02*
X155511667Y-70447783D01*
X155511667Y-70447783D02*
X155511667Y-70352545D01*
X155511667Y-70352545D02*
X155559286Y-70257307D01*
X155559286Y-70257307D02*
X155606905Y-70209688D01*
X155606905Y-70209688D02*
X155702143Y-70162069D01*
X155702143Y-70162069D02*
X155940238Y-70162069D01*
X155940238Y-70162069D02*
X156083095Y-70209688D01*
X156416429Y-70162069D02*
X156654524Y-71162069D01*
X156654524Y-71162069D02*
X156845000Y-70447783D01*
X156845000Y-70447783D02*
X157035476Y-71162069D01*
X157035476Y-71162069D02*
X157273572Y-70162069D01*
X157559286Y-70162069D02*
X158178333Y-70162069D01*
X158178333Y-70162069D02*
X157845000Y-70543021D01*
X157845000Y-70543021D02*
X157987857Y-70543021D01*
X157987857Y-70543021D02*
X158083095Y-70590640D01*
X158083095Y-70590640D02*
X158130714Y-70638259D01*
X158130714Y-70638259D02*
X158178333Y-70733497D01*
X158178333Y-70733497D02*
X158178333Y-70971592D01*
X158178333Y-70971592D02*
X158130714Y-71066830D01*
X158130714Y-71066830D02*
X158083095Y-71114450D01*
X158083095Y-71114450D02*
X157987857Y-71162069D01*
X157987857Y-71162069D02*
X157702143Y-71162069D01*
X157702143Y-71162069D02*
X157606905Y-71114450D01*
X157606905Y-71114450D02*
X157559286Y-71066830D01*
X174747319Y-63031666D02*
X174271128Y-63364999D01*
X174747319Y-63603094D02*
X173747319Y-63603094D01*
X173747319Y-63603094D02*
X173747319Y-63222142D01*
X173747319Y-63222142D02*
X173794938Y-63126904D01*
X173794938Y-63126904D02*
X173842557Y-63079285D01*
X173842557Y-63079285D02*
X173937795Y-63031666D01*
X173937795Y-63031666D02*
X174080652Y-63031666D01*
X174080652Y-63031666D02*
X174175890Y-63079285D01*
X174175890Y-63079285D02*
X174223509Y-63126904D01*
X174223509Y-63126904D02*
X174271128Y-63222142D01*
X174271128Y-63222142D02*
X174271128Y-63603094D01*
X174747319Y-62079285D02*
X174747319Y-62650713D01*
X174747319Y-62364999D02*
X173747319Y-62364999D01*
X173747319Y-62364999D02*
X173890176Y-62460237D01*
X173890176Y-62460237D02*
X173985414Y-62555475D01*
X173985414Y-62555475D02*
X174033033Y-62650713D01*
X117411667Y-71114450D02*
X117554524Y-71162069D01*
X117554524Y-71162069D02*
X117792619Y-71162069D01*
X117792619Y-71162069D02*
X117887857Y-71114450D01*
X117887857Y-71114450D02*
X117935476Y-71066830D01*
X117935476Y-71066830D02*
X117983095Y-70971592D01*
X117983095Y-70971592D02*
X117983095Y-70876354D01*
X117983095Y-70876354D02*
X117935476Y-70781116D01*
X117935476Y-70781116D02*
X117887857Y-70733497D01*
X117887857Y-70733497D02*
X117792619Y-70685878D01*
X117792619Y-70685878D02*
X117602143Y-70638259D01*
X117602143Y-70638259D02*
X117506905Y-70590640D01*
X117506905Y-70590640D02*
X117459286Y-70543021D01*
X117459286Y-70543021D02*
X117411667Y-70447783D01*
X117411667Y-70447783D02*
X117411667Y-70352545D01*
X117411667Y-70352545D02*
X117459286Y-70257307D01*
X117459286Y-70257307D02*
X117506905Y-70209688D01*
X117506905Y-70209688D02*
X117602143Y-70162069D01*
X117602143Y-70162069D02*
X117840238Y-70162069D01*
X117840238Y-70162069D02*
X117983095Y-70209688D01*
X118316429Y-70162069D02*
X118554524Y-71162069D01*
X118554524Y-71162069D02*
X118745000Y-70447783D01*
X118745000Y-70447783D02*
X118935476Y-71162069D01*
X118935476Y-71162069D02*
X119173572Y-70162069D01*
X119459286Y-70162069D02*
X120125952Y-70162069D01*
X120125952Y-70162069D02*
X119697381Y-71162069D01*
X155511667Y-52064450D02*
X155654524Y-52112069D01*
X155654524Y-52112069D02*
X155892619Y-52112069D01*
X155892619Y-52112069D02*
X155987857Y-52064450D01*
X155987857Y-52064450D02*
X156035476Y-52016830D01*
X156035476Y-52016830D02*
X156083095Y-51921592D01*
X156083095Y-51921592D02*
X156083095Y-51826354D01*
X156083095Y-51826354D02*
X156035476Y-51731116D01*
X156035476Y-51731116D02*
X155987857Y-51683497D01*
X155987857Y-51683497D02*
X155892619Y-51635878D01*
X155892619Y-51635878D02*
X155702143Y-51588259D01*
X155702143Y-51588259D02*
X155606905Y-51540640D01*
X155606905Y-51540640D02*
X155559286Y-51493021D01*
X155559286Y-51493021D02*
X155511667Y-51397783D01*
X155511667Y-51397783D02*
X155511667Y-51302545D01*
X155511667Y-51302545D02*
X155559286Y-51207307D01*
X155559286Y-51207307D02*
X155606905Y-51159688D01*
X155606905Y-51159688D02*
X155702143Y-51112069D01*
X155702143Y-51112069D02*
X155940238Y-51112069D01*
X155940238Y-51112069D02*
X156083095Y-51159688D01*
X156416429Y-51112069D02*
X156654524Y-52112069D01*
X156654524Y-52112069D02*
X156845000Y-51397783D01*
X156845000Y-51397783D02*
X157035476Y-52112069D01*
X157035476Y-52112069D02*
X157273572Y-51112069D01*
X158083095Y-51112069D02*
X157892619Y-51112069D01*
X157892619Y-51112069D02*
X157797381Y-51159688D01*
X157797381Y-51159688D02*
X157749762Y-51207307D01*
X157749762Y-51207307D02*
X157654524Y-51350164D01*
X157654524Y-51350164D02*
X157606905Y-51540640D01*
X157606905Y-51540640D02*
X157606905Y-51921592D01*
X157606905Y-51921592D02*
X157654524Y-52016830D01*
X157654524Y-52016830D02*
X157702143Y-52064450D01*
X157702143Y-52064450D02*
X157797381Y-52112069D01*
X157797381Y-52112069D02*
X157987857Y-52112069D01*
X157987857Y-52112069D02*
X158083095Y-52064450D01*
X158083095Y-52064450D02*
X158130714Y-52016830D01*
X158130714Y-52016830D02*
X158178333Y-51921592D01*
X158178333Y-51921592D02*
X158178333Y-51683497D01*
X158178333Y-51683497D02*
X158130714Y-51588259D01*
X158130714Y-51588259D02*
X158083095Y-51540640D01*
X158083095Y-51540640D02*
X157987857Y-51493021D01*
X157987857Y-51493021D02*
X157797381Y-51493021D01*
X157797381Y-51493021D02*
X157702143Y-51540640D01*
X157702143Y-51540640D02*
X157654524Y-51588259D01*
X157654524Y-51588259D02*
X157606905Y-51683497D01*
X136461667Y-109214450D02*
X136604524Y-109262069D01*
X136604524Y-109262069D02*
X136842619Y-109262069D01*
X136842619Y-109262069D02*
X136937857Y-109214450D01*
X136937857Y-109214450D02*
X136985476Y-109166830D01*
X136985476Y-109166830D02*
X137033095Y-109071592D01*
X137033095Y-109071592D02*
X137033095Y-108976354D01*
X137033095Y-108976354D02*
X136985476Y-108881116D01*
X136985476Y-108881116D02*
X136937857Y-108833497D01*
X136937857Y-108833497D02*
X136842619Y-108785878D01*
X136842619Y-108785878D02*
X136652143Y-108738259D01*
X136652143Y-108738259D02*
X136556905Y-108690640D01*
X136556905Y-108690640D02*
X136509286Y-108643021D01*
X136509286Y-108643021D02*
X136461667Y-108547783D01*
X136461667Y-108547783D02*
X136461667Y-108452545D01*
X136461667Y-108452545D02*
X136509286Y-108357307D01*
X136509286Y-108357307D02*
X136556905Y-108309688D01*
X136556905Y-108309688D02*
X136652143Y-108262069D01*
X136652143Y-108262069D02*
X136890238Y-108262069D01*
X136890238Y-108262069D02*
X137033095Y-108309688D01*
X137366429Y-108262069D02*
X137604524Y-109262069D01*
X137604524Y-109262069D02*
X137795000Y-108547783D01*
X137795000Y-108547783D02*
X137985476Y-109262069D01*
X137985476Y-109262069D02*
X138223572Y-108262069D01*
X139128333Y-109262069D02*
X138556905Y-109262069D01*
X138842619Y-109262069D02*
X138842619Y-108262069D01*
X138842619Y-108262069D02*
X138747381Y-108404926D01*
X138747381Y-108404926D02*
X138652143Y-108500164D01*
X138652143Y-108500164D02*
X138556905Y-108547783D01*
X117411667Y-52064450D02*
X117554524Y-52112069D01*
X117554524Y-52112069D02*
X117792619Y-52112069D01*
X117792619Y-52112069D02*
X117887857Y-52064450D01*
X117887857Y-52064450D02*
X117935476Y-52016830D01*
X117935476Y-52016830D02*
X117983095Y-51921592D01*
X117983095Y-51921592D02*
X117983095Y-51826354D01*
X117983095Y-51826354D02*
X117935476Y-51731116D01*
X117935476Y-51731116D02*
X117887857Y-51683497D01*
X117887857Y-51683497D02*
X117792619Y-51635878D01*
X117792619Y-51635878D02*
X117602143Y-51588259D01*
X117602143Y-51588259D02*
X117506905Y-51540640D01*
X117506905Y-51540640D02*
X117459286Y-51493021D01*
X117459286Y-51493021D02*
X117411667Y-51397783D01*
X117411667Y-51397783D02*
X117411667Y-51302545D01*
X117411667Y-51302545D02*
X117459286Y-51207307D01*
X117459286Y-51207307D02*
X117506905Y-51159688D01*
X117506905Y-51159688D02*
X117602143Y-51112069D01*
X117602143Y-51112069D02*
X117840238Y-51112069D01*
X117840238Y-51112069D02*
X117983095Y-51159688D01*
X118316429Y-51112069D02*
X118554524Y-52112069D01*
X118554524Y-52112069D02*
X118745000Y-51397783D01*
X118745000Y-51397783D02*
X118935476Y-52112069D01*
X118935476Y-52112069D02*
X119173572Y-51112069D01*
X119602143Y-52112069D02*
X119792619Y-52112069D01*
X119792619Y-52112069D02*
X119887857Y-52064450D01*
X119887857Y-52064450D02*
X119935476Y-52016830D01*
X119935476Y-52016830D02*
X120030714Y-51873973D01*
X120030714Y-51873973D02*
X120078333Y-51683497D01*
X120078333Y-51683497D02*
X120078333Y-51302545D01*
X120078333Y-51302545D02*
X120030714Y-51207307D01*
X120030714Y-51207307D02*
X119983095Y-51159688D01*
X119983095Y-51159688D02*
X119887857Y-51112069D01*
X119887857Y-51112069D02*
X119697381Y-51112069D01*
X119697381Y-51112069D02*
X119602143Y-51159688D01*
X119602143Y-51159688D02*
X119554524Y-51207307D01*
X119554524Y-51207307D02*
X119506905Y-51302545D01*
X119506905Y-51302545D02*
X119506905Y-51540640D01*
X119506905Y-51540640D02*
X119554524Y-51635878D01*
X119554524Y-51635878D02*
X119602143Y-51683497D01*
X119602143Y-51683497D02*
X119697381Y-51731116D01*
X119697381Y-51731116D02*
X119887857Y-51731116D01*
X119887857Y-51731116D02*
X119983095Y-51683497D01*
X119983095Y-51683497D02*
X120030714Y-51635878D01*
X120030714Y-51635878D02*
X120078333Y-51540640D01*
X155511667Y-90164450D02*
X155654524Y-90212069D01*
X155654524Y-90212069D02*
X155892619Y-90212069D01*
X155892619Y-90212069D02*
X155987857Y-90164450D01*
X155987857Y-90164450D02*
X156035476Y-90116830D01*
X156035476Y-90116830D02*
X156083095Y-90021592D01*
X156083095Y-90021592D02*
X156083095Y-89926354D01*
X156083095Y-89926354D02*
X156035476Y-89831116D01*
X156035476Y-89831116D02*
X155987857Y-89783497D01*
X155987857Y-89783497D02*
X155892619Y-89735878D01*
X155892619Y-89735878D02*
X155702143Y-89688259D01*
X155702143Y-89688259D02*
X155606905Y-89640640D01*
X155606905Y-89640640D02*
X155559286Y-89593021D01*
X155559286Y-89593021D02*
X155511667Y-89497783D01*
X155511667Y-89497783D02*
X155511667Y-89402545D01*
X155511667Y-89402545D02*
X155559286Y-89307307D01*
X155559286Y-89307307D02*
X155606905Y-89259688D01*
X155606905Y-89259688D02*
X155702143Y-89212069D01*
X155702143Y-89212069D02*
X155940238Y-89212069D01*
X155940238Y-89212069D02*
X156083095Y-89259688D01*
X156416429Y-89212069D02*
X156654524Y-90212069D01*
X156654524Y-90212069D02*
X156845000Y-89497783D01*
X156845000Y-89497783D02*
X157035476Y-90212069D01*
X157035476Y-90212069D02*
X157273572Y-89212069D01*
X158130714Y-89212069D02*
X157654524Y-89212069D01*
X157654524Y-89212069D02*
X157606905Y-89688259D01*
X157606905Y-89688259D02*
X157654524Y-89640640D01*
X157654524Y-89640640D02*
X157749762Y-89593021D01*
X157749762Y-89593021D02*
X157987857Y-89593021D01*
X157987857Y-89593021D02*
X158083095Y-89640640D01*
X158083095Y-89640640D02*
X158130714Y-89688259D01*
X158130714Y-89688259D02*
X158178333Y-89783497D01*
X158178333Y-89783497D02*
X158178333Y-90021592D01*
X158178333Y-90021592D02*
X158130714Y-90116830D01*
X158130714Y-90116830D02*
X158083095Y-90164450D01*
X158083095Y-90164450D02*
X157987857Y-90212069D01*
X157987857Y-90212069D02*
X157749762Y-90212069D01*
X157749762Y-90212069D02*
X157654524Y-90164450D01*
X157654524Y-90164450D02*
X157606905Y-90116830D01*
X184272319Y-63031666D02*
X183796128Y-63364999D01*
X184272319Y-63603094D02*
X183272319Y-63603094D01*
X183272319Y-63603094D02*
X183272319Y-63222142D01*
X183272319Y-63222142D02*
X183319938Y-63126904D01*
X183319938Y-63126904D02*
X183367557Y-63079285D01*
X183367557Y-63079285D02*
X183462795Y-63031666D01*
X183462795Y-63031666D02*
X183605652Y-63031666D01*
X183605652Y-63031666D02*
X183700890Y-63079285D01*
X183700890Y-63079285D02*
X183748509Y-63126904D01*
X183748509Y-63126904D02*
X183796128Y-63222142D01*
X183796128Y-63222142D02*
X183796128Y-63603094D01*
X183367557Y-62650713D02*
X183319938Y-62603094D01*
X183319938Y-62603094D02*
X183272319Y-62507856D01*
X183272319Y-62507856D02*
X183272319Y-62269761D01*
X183272319Y-62269761D02*
X183319938Y-62174523D01*
X183319938Y-62174523D02*
X183367557Y-62126904D01*
X183367557Y-62126904D02*
X183462795Y-62079285D01*
X183462795Y-62079285D02*
X183558033Y-62079285D01*
X183558033Y-62079285D02*
X183700890Y-62126904D01*
X183700890Y-62126904D02*
X184272319Y-62698332D01*
X184272319Y-62698332D02*
X184272319Y-62079285D01*
X135985476Y-71114450D02*
X136128333Y-71162069D01*
X136128333Y-71162069D02*
X136366428Y-71162069D01*
X136366428Y-71162069D02*
X136461666Y-71114450D01*
X136461666Y-71114450D02*
X136509285Y-71066830D01*
X136509285Y-71066830D02*
X136556904Y-70971592D01*
X136556904Y-70971592D02*
X136556904Y-70876354D01*
X136556904Y-70876354D02*
X136509285Y-70781116D01*
X136509285Y-70781116D02*
X136461666Y-70733497D01*
X136461666Y-70733497D02*
X136366428Y-70685878D01*
X136366428Y-70685878D02*
X136175952Y-70638259D01*
X136175952Y-70638259D02*
X136080714Y-70590640D01*
X136080714Y-70590640D02*
X136033095Y-70543021D01*
X136033095Y-70543021D02*
X135985476Y-70447783D01*
X135985476Y-70447783D02*
X135985476Y-70352545D01*
X135985476Y-70352545D02*
X136033095Y-70257307D01*
X136033095Y-70257307D02*
X136080714Y-70209688D01*
X136080714Y-70209688D02*
X136175952Y-70162069D01*
X136175952Y-70162069D02*
X136414047Y-70162069D01*
X136414047Y-70162069D02*
X136556904Y-70209688D01*
X136890238Y-70162069D02*
X137128333Y-71162069D01*
X137128333Y-71162069D02*
X137318809Y-70447783D01*
X137318809Y-70447783D02*
X137509285Y-71162069D01*
X137509285Y-71162069D02*
X137747381Y-70162069D01*
X138652142Y-71162069D02*
X138080714Y-71162069D01*
X138366428Y-71162069D02*
X138366428Y-70162069D01*
X138366428Y-70162069D02*
X138271190Y-70304926D01*
X138271190Y-70304926D02*
X138175952Y-70400164D01*
X138175952Y-70400164D02*
X138080714Y-70447783D01*
X139271190Y-70162069D02*
X139366428Y-70162069D01*
X139366428Y-70162069D02*
X139461666Y-70209688D01*
X139461666Y-70209688D02*
X139509285Y-70257307D01*
X139509285Y-70257307D02*
X139556904Y-70352545D01*
X139556904Y-70352545D02*
X139604523Y-70543021D01*
X139604523Y-70543021D02*
X139604523Y-70781116D01*
X139604523Y-70781116D02*
X139556904Y-70971592D01*
X139556904Y-70971592D02*
X139509285Y-71066830D01*
X139509285Y-71066830D02*
X139461666Y-71114450D01*
X139461666Y-71114450D02*
X139366428Y-71162069D01*
X139366428Y-71162069D02*
X139271190Y-71162069D01*
X139271190Y-71162069D02*
X139175952Y-71114450D01*
X139175952Y-71114450D02*
X139128333Y-71066830D01*
X139128333Y-71066830D02*
X139080714Y-70971592D01*
X139080714Y-70971592D02*
X139033095Y-70781116D01*
X139033095Y-70781116D02*
X139033095Y-70543021D01*
X139033095Y-70543021D02*
X139080714Y-70352545D01*
X139080714Y-70352545D02*
X139128333Y-70257307D01*
X139128333Y-70257307D02*
X139175952Y-70209688D01*
X139175952Y-70209688D02*
X139271190Y-70162069D01*
X135985476Y-90164450D02*
X136128333Y-90212069D01*
X136128333Y-90212069D02*
X136366428Y-90212069D01*
X136366428Y-90212069D02*
X136461666Y-90164450D01*
X136461666Y-90164450D02*
X136509285Y-90116830D01*
X136509285Y-90116830D02*
X136556904Y-90021592D01*
X136556904Y-90021592D02*
X136556904Y-89926354D01*
X136556904Y-89926354D02*
X136509285Y-89831116D01*
X136509285Y-89831116D02*
X136461666Y-89783497D01*
X136461666Y-89783497D02*
X136366428Y-89735878D01*
X136366428Y-89735878D02*
X136175952Y-89688259D01*
X136175952Y-89688259D02*
X136080714Y-89640640D01*
X136080714Y-89640640D02*
X136033095Y-89593021D01*
X136033095Y-89593021D02*
X135985476Y-89497783D01*
X135985476Y-89497783D02*
X135985476Y-89402545D01*
X135985476Y-89402545D02*
X136033095Y-89307307D01*
X136033095Y-89307307D02*
X136080714Y-89259688D01*
X136080714Y-89259688D02*
X136175952Y-89212069D01*
X136175952Y-89212069D02*
X136414047Y-89212069D01*
X136414047Y-89212069D02*
X136556904Y-89259688D01*
X136890238Y-89212069D02*
X137128333Y-90212069D01*
X137128333Y-90212069D02*
X137318809Y-89497783D01*
X137318809Y-89497783D02*
X137509285Y-90212069D01*
X137509285Y-90212069D02*
X137747381Y-89212069D01*
X138652142Y-90212069D02*
X138080714Y-90212069D01*
X138366428Y-90212069D02*
X138366428Y-89212069D01*
X138366428Y-89212069D02*
X138271190Y-89354926D01*
X138271190Y-89354926D02*
X138175952Y-89450164D01*
X138175952Y-89450164D02*
X138080714Y-89497783D01*
X139604523Y-90212069D02*
X139033095Y-90212069D01*
X139318809Y-90212069D02*
X139318809Y-89212069D01*
X139318809Y-89212069D02*
X139223571Y-89354926D01*
X139223571Y-89354926D02*
X139128333Y-89450164D01*
X139128333Y-89450164D02*
X139033095Y-89497783D01*
X155511667Y-109214450D02*
X155654524Y-109262069D01*
X155654524Y-109262069D02*
X155892619Y-109262069D01*
X155892619Y-109262069D02*
X155987857Y-109214450D01*
X155987857Y-109214450D02*
X156035476Y-109166830D01*
X156035476Y-109166830D02*
X156083095Y-109071592D01*
X156083095Y-109071592D02*
X156083095Y-108976354D01*
X156083095Y-108976354D02*
X156035476Y-108881116D01*
X156035476Y-108881116D02*
X155987857Y-108833497D01*
X155987857Y-108833497D02*
X155892619Y-108785878D01*
X155892619Y-108785878D02*
X155702143Y-108738259D01*
X155702143Y-108738259D02*
X155606905Y-108690640D01*
X155606905Y-108690640D02*
X155559286Y-108643021D01*
X155559286Y-108643021D02*
X155511667Y-108547783D01*
X155511667Y-108547783D02*
X155511667Y-108452545D01*
X155511667Y-108452545D02*
X155559286Y-108357307D01*
X155559286Y-108357307D02*
X155606905Y-108309688D01*
X155606905Y-108309688D02*
X155702143Y-108262069D01*
X155702143Y-108262069D02*
X155940238Y-108262069D01*
X155940238Y-108262069D02*
X156083095Y-108309688D01*
X156416429Y-108262069D02*
X156654524Y-109262069D01*
X156654524Y-109262069D02*
X156845000Y-108547783D01*
X156845000Y-108547783D02*
X157035476Y-109262069D01*
X157035476Y-109262069D02*
X157273572Y-108262069D01*
X157606905Y-108357307D02*
X157654524Y-108309688D01*
X157654524Y-108309688D02*
X157749762Y-108262069D01*
X157749762Y-108262069D02*
X157987857Y-108262069D01*
X157987857Y-108262069D02*
X158083095Y-108309688D01*
X158083095Y-108309688D02*
X158130714Y-108357307D01*
X158130714Y-108357307D02*
X158178333Y-108452545D01*
X158178333Y-108452545D02*
X158178333Y-108547783D01*
X158178333Y-108547783D02*
X158130714Y-108690640D01*
X158130714Y-108690640D02*
X157559286Y-109262069D01*
X157559286Y-109262069D02*
X158178333Y-109262069D01*
X120854819Y-42663333D02*
X121569104Y-42663333D01*
X121569104Y-42663333D02*
X121711961Y-42710952D01*
X121711961Y-42710952D02*
X121807200Y-42806190D01*
X121807200Y-42806190D02*
X121854819Y-42949047D01*
X121854819Y-42949047D02*
X121854819Y-43044285D01*
X121854819Y-41663333D02*
X121854819Y-42234761D01*
X121854819Y-41949047D02*
X120854819Y-41949047D01*
X120854819Y-41949047D02*
X120997676Y-42044285D01*
X120997676Y-42044285D02*
X121092914Y-42139523D01*
X121092914Y-42139523D02*
X121140533Y-42234761D01*
X154303450Y-47140713D02*
X154339164Y-47033571D01*
X154339164Y-47033571D02*
X154339164Y-46854999D01*
X154339164Y-46854999D02*
X154303450Y-46783571D01*
X154303450Y-46783571D02*
X154267735Y-46747856D01*
X154267735Y-46747856D02*
X154196307Y-46712142D01*
X154196307Y-46712142D02*
X154124878Y-46712142D01*
X154124878Y-46712142D02*
X154053450Y-46747856D01*
X154053450Y-46747856D02*
X154017735Y-46783571D01*
X154017735Y-46783571D02*
X153982021Y-46854999D01*
X153982021Y-46854999D02*
X153946307Y-46997856D01*
X153946307Y-46997856D02*
X153910592Y-47069285D01*
X153910592Y-47069285D02*
X153874878Y-47104999D01*
X153874878Y-47104999D02*
X153803450Y-47140713D01*
X153803450Y-47140713D02*
X153732021Y-47140713D01*
X153732021Y-47140713D02*
X153660592Y-47104999D01*
X153660592Y-47104999D02*
X153624878Y-47069285D01*
X153624878Y-47069285D02*
X153589164Y-46997856D01*
X153589164Y-46997856D02*
X153589164Y-46819285D01*
X153589164Y-46819285D02*
X153624878Y-46712142D01*
X154339164Y-46390713D02*
X153589164Y-46390713D01*
X153589164Y-46390713D02*
X153589164Y-46212142D01*
X153589164Y-46212142D02*
X153624878Y-46104999D01*
X153624878Y-46104999D02*
X153696307Y-46033570D01*
X153696307Y-46033570D02*
X153767735Y-45997856D01*
X153767735Y-45997856D02*
X153910592Y-45962142D01*
X153910592Y-45962142D02*
X154017735Y-45962142D01*
X154017735Y-45962142D02*
X154160592Y-45997856D01*
X154160592Y-45997856D02*
X154232021Y-46033570D01*
X154232021Y-46033570D02*
X154303450Y-46104999D01*
X154303450Y-46104999D02*
X154339164Y-46212142D01*
X154339164Y-46212142D02*
X154339164Y-46390713D01*
X154124878Y-45676427D02*
X154124878Y-45319285D01*
X154339164Y-45747856D02*
X153589164Y-45497856D01*
X153589164Y-45497856D02*
X154339164Y-45247856D01*
X154303450Y-44582856D02*
X154339164Y-44475714D01*
X154339164Y-44475714D02*
X154339164Y-44297142D01*
X154339164Y-44297142D02*
X154303450Y-44225714D01*
X154303450Y-44225714D02*
X154267735Y-44189999D01*
X154267735Y-44189999D02*
X154196307Y-44154285D01*
X154196307Y-44154285D02*
X154124878Y-44154285D01*
X154124878Y-44154285D02*
X154053450Y-44189999D01*
X154053450Y-44189999D02*
X154017735Y-44225714D01*
X154017735Y-44225714D02*
X153982021Y-44297142D01*
X153982021Y-44297142D02*
X153946307Y-44439999D01*
X153946307Y-44439999D02*
X153910592Y-44511428D01*
X153910592Y-44511428D02*
X153874878Y-44547142D01*
X153874878Y-44547142D02*
X153803450Y-44582856D01*
X153803450Y-44582856D02*
X153732021Y-44582856D01*
X153732021Y-44582856D02*
X153660592Y-44547142D01*
X153660592Y-44547142D02*
X153624878Y-44511428D01*
X153624878Y-44511428D02*
X153589164Y-44439999D01*
X153589164Y-44439999D02*
X153589164Y-44261428D01*
X153589164Y-44261428D02*
X153624878Y-44154285D01*
X154267735Y-43404285D02*
X154303450Y-43439999D01*
X154303450Y-43439999D02*
X154339164Y-43547142D01*
X154339164Y-43547142D02*
X154339164Y-43618570D01*
X154339164Y-43618570D02*
X154303450Y-43725713D01*
X154303450Y-43725713D02*
X154232021Y-43797142D01*
X154232021Y-43797142D02*
X154160592Y-43832856D01*
X154160592Y-43832856D02*
X154017735Y-43868570D01*
X154017735Y-43868570D02*
X153910592Y-43868570D01*
X153910592Y-43868570D02*
X153767735Y-43832856D01*
X153767735Y-43832856D02*
X153696307Y-43797142D01*
X153696307Y-43797142D02*
X153624878Y-43725713D01*
X153624878Y-43725713D02*
X153589164Y-43618570D01*
X153589164Y-43618570D02*
X153589164Y-43547142D01*
X153589164Y-43547142D02*
X153624878Y-43439999D01*
X153624878Y-43439999D02*
X153660592Y-43404285D01*
X154339164Y-42725713D02*
X154339164Y-43082856D01*
X154339164Y-43082856D02*
X153589164Y-43082856D01*
X153589164Y-42149999D02*
X154339164Y-41899999D01*
X154339164Y-41899999D02*
X153589164Y-41649999D01*
X154267735Y-40971428D02*
X154303450Y-41007142D01*
X154303450Y-41007142D02*
X154339164Y-41114285D01*
X154339164Y-41114285D02*
X154339164Y-41185713D01*
X154339164Y-41185713D02*
X154303450Y-41292856D01*
X154303450Y-41292856D02*
X154232021Y-41364285D01*
X154232021Y-41364285D02*
X154160592Y-41399999D01*
X154160592Y-41399999D02*
X154017735Y-41435713D01*
X154017735Y-41435713D02*
X153910592Y-41435713D01*
X153910592Y-41435713D02*
X153767735Y-41399999D01*
X153767735Y-41399999D02*
X153696307Y-41364285D01*
X153696307Y-41364285D02*
X153624878Y-41292856D01*
X153624878Y-41292856D02*
X153589164Y-41185713D01*
X153589164Y-41185713D02*
X153589164Y-41114285D01*
X153589164Y-41114285D02*
X153624878Y-41007142D01*
X153624878Y-41007142D02*
X153660592Y-40971428D01*
X154267735Y-40221428D02*
X154303450Y-40257142D01*
X154303450Y-40257142D02*
X154339164Y-40364285D01*
X154339164Y-40364285D02*
X154339164Y-40435713D01*
X154339164Y-40435713D02*
X154303450Y-40542856D01*
X154303450Y-40542856D02*
X154232021Y-40614285D01*
X154232021Y-40614285D02*
X154160592Y-40649999D01*
X154160592Y-40649999D02*
X154017735Y-40685713D01*
X154017735Y-40685713D02*
X153910592Y-40685713D01*
X153910592Y-40685713D02*
X153767735Y-40649999D01*
X153767735Y-40649999D02*
X153696307Y-40614285D01*
X153696307Y-40614285D02*
X153624878Y-40542856D01*
X153624878Y-40542856D02*
X153589164Y-40435713D01*
X153589164Y-40435713D02*
X153589164Y-40364285D01*
X153589164Y-40364285D02*
X153624878Y-40257142D01*
X153624878Y-40257142D02*
X153660592Y-40221428D01*
X153624878Y-39181428D02*
X153589164Y-39252857D01*
X153589164Y-39252857D02*
X153589164Y-39359999D01*
X153589164Y-39359999D02*
X153624878Y-39467142D01*
X153624878Y-39467142D02*
X153696307Y-39538571D01*
X153696307Y-39538571D02*
X153767735Y-39574285D01*
X153767735Y-39574285D02*
X153910592Y-39609999D01*
X153910592Y-39609999D02*
X154017735Y-39609999D01*
X154017735Y-39609999D02*
X154160592Y-39574285D01*
X154160592Y-39574285D02*
X154232021Y-39538571D01*
X154232021Y-39538571D02*
X154303450Y-39467142D01*
X154303450Y-39467142D02*
X154339164Y-39359999D01*
X154339164Y-39359999D02*
X154339164Y-39288571D01*
X154339164Y-39288571D02*
X154303450Y-39181428D01*
X154303450Y-39181428D02*
X154267735Y-39145714D01*
X154267735Y-39145714D02*
X154017735Y-39145714D01*
X154017735Y-39145714D02*
X154017735Y-39288571D01*
X154339164Y-38824285D02*
X153589164Y-38824285D01*
X153589164Y-38824285D02*
X154339164Y-38395714D01*
X154339164Y-38395714D02*
X153589164Y-38395714D01*
X154339164Y-38038571D02*
X153589164Y-38038571D01*
X153589164Y-38038571D02*
X153589164Y-37860000D01*
X153589164Y-37860000D02*
X153624878Y-37752857D01*
X153624878Y-37752857D02*
X153696307Y-37681428D01*
X153696307Y-37681428D02*
X153767735Y-37645714D01*
X153767735Y-37645714D02*
X153910592Y-37610000D01*
X153910592Y-37610000D02*
X154017735Y-37610000D01*
X154017735Y-37610000D02*
X154160592Y-37645714D01*
X154160592Y-37645714D02*
X154232021Y-37681428D01*
X154232021Y-37681428D02*
X154303450Y-37752857D01*
X154303450Y-37752857D02*
X154339164Y-37860000D01*
X154339164Y-37860000D02*
X154339164Y-38038571D01*
X134571428Y-41874819D02*
X134761904Y-41874819D01*
X134761904Y-41874819D02*
X134857142Y-41922438D01*
X134857142Y-41922438D02*
X134952380Y-42017676D01*
X134952380Y-42017676D02*
X134999999Y-42208152D01*
X134999999Y-42208152D02*
X134999999Y-42541485D01*
X134999999Y-42541485D02*
X134952380Y-42731961D01*
X134952380Y-42731961D02*
X134857142Y-42827200D01*
X134857142Y-42827200D02*
X134761904Y-42874819D01*
X134761904Y-42874819D02*
X134571428Y-42874819D01*
X134571428Y-42874819D02*
X134476190Y-42827200D01*
X134476190Y-42827200D02*
X134380952Y-42731961D01*
X134380952Y-42731961D02*
X134333333Y-42541485D01*
X134333333Y-42541485D02*
X134333333Y-42208152D01*
X134333333Y-42208152D02*
X134380952Y-42017676D01*
X134380952Y-42017676D02*
X134476190Y-41922438D01*
X134476190Y-41922438D02*
X134571428Y-41874819D01*
X135904761Y-42874819D02*
X135428571Y-42874819D01*
X135428571Y-42874819D02*
X135428571Y-41874819D01*
X136238095Y-42351009D02*
X136571428Y-42351009D01*
X136714285Y-42874819D02*
X136238095Y-42874819D01*
X136238095Y-42874819D02*
X136238095Y-41874819D01*
X136238095Y-41874819D02*
X136714285Y-41874819D01*
X137142857Y-42874819D02*
X137142857Y-41874819D01*
X137142857Y-41874819D02*
X137380952Y-41874819D01*
X137380952Y-41874819D02*
X137523809Y-41922438D01*
X137523809Y-41922438D02*
X137619047Y-42017676D01*
X137619047Y-42017676D02*
X137666666Y-42112914D01*
X137666666Y-42112914D02*
X137714285Y-42303390D01*
X137714285Y-42303390D02*
X137714285Y-42446247D01*
X137714285Y-42446247D02*
X137666666Y-42636723D01*
X137666666Y-42636723D02*
X137619047Y-42731961D01*
X137619047Y-42731961D02*
X137523809Y-42827200D01*
X137523809Y-42827200D02*
X137380952Y-42874819D01*
X137380952Y-42874819D02*
X137142857Y-42874819D01*
X138904762Y-42874819D02*
X138904762Y-41874819D01*
X138904762Y-41874819D02*
X139285714Y-41874819D01*
X139285714Y-41874819D02*
X139380952Y-41922438D01*
X139380952Y-41922438D02*
X139428571Y-41970057D01*
X139428571Y-41970057D02*
X139476190Y-42065295D01*
X139476190Y-42065295D02*
X139476190Y-42208152D01*
X139476190Y-42208152D02*
X139428571Y-42303390D01*
X139428571Y-42303390D02*
X139380952Y-42351009D01*
X139380952Y-42351009D02*
X139285714Y-42398628D01*
X139285714Y-42398628D02*
X138904762Y-42398628D01*
X140333333Y-42874819D02*
X140333333Y-42351009D01*
X140333333Y-42351009D02*
X140285714Y-42255771D01*
X140285714Y-42255771D02*
X140190476Y-42208152D01*
X140190476Y-42208152D02*
X140000000Y-42208152D01*
X140000000Y-42208152D02*
X139904762Y-42255771D01*
X140333333Y-42827200D02*
X140238095Y-42874819D01*
X140238095Y-42874819D02*
X140000000Y-42874819D01*
X140000000Y-42874819D02*
X139904762Y-42827200D01*
X139904762Y-42827200D02*
X139857143Y-42731961D01*
X139857143Y-42731961D02*
X139857143Y-42636723D01*
X139857143Y-42636723D02*
X139904762Y-42541485D01*
X139904762Y-42541485D02*
X140000000Y-42493866D01*
X140000000Y-42493866D02*
X140238095Y-42493866D01*
X140238095Y-42493866D02*
X140333333Y-42446247D01*
X140809524Y-42208152D02*
X140809524Y-42874819D01*
X140809524Y-42303390D02*
X140857143Y-42255771D01*
X140857143Y-42255771D02*
X140952381Y-42208152D01*
X140952381Y-42208152D02*
X141095238Y-42208152D01*
X141095238Y-42208152D02*
X141190476Y-42255771D01*
X141190476Y-42255771D02*
X141238095Y-42351009D01*
X141238095Y-42351009D02*
X141238095Y-42874819D01*
X142095238Y-42827200D02*
X142000000Y-42874819D01*
X142000000Y-42874819D02*
X141809524Y-42874819D01*
X141809524Y-42874819D02*
X141714286Y-42827200D01*
X141714286Y-42827200D02*
X141666667Y-42731961D01*
X141666667Y-42731961D02*
X141666667Y-42351009D01*
X141666667Y-42351009D02*
X141714286Y-42255771D01*
X141714286Y-42255771D02*
X141809524Y-42208152D01*
X141809524Y-42208152D02*
X142000000Y-42208152D01*
X142000000Y-42208152D02*
X142095238Y-42255771D01*
X142095238Y-42255771D02*
X142142857Y-42351009D01*
X142142857Y-42351009D02*
X142142857Y-42446247D01*
X142142857Y-42446247D02*
X141666667Y-42541485D01*
X142714286Y-42874819D02*
X142619048Y-42827200D01*
X142619048Y-42827200D02*
X142571429Y-42731961D01*
X142571429Y-42731961D02*
X142571429Y-41874819D01*
X117411667Y-109214450D02*
X117554524Y-109262069D01*
X117554524Y-109262069D02*
X117792619Y-109262069D01*
X117792619Y-109262069D02*
X117887857Y-109214450D01*
X117887857Y-109214450D02*
X117935476Y-109166830D01*
X117935476Y-109166830D02*
X117983095Y-109071592D01*
X117983095Y-109071592D02*
X117983095Y-108976354D01*
X117983095Y-108976354D02*
X117935476Y-108881116D01*
X117935476Y-108881116D02*
X117887857Y-108833497D01*
X117887857Y-108833497D02*
X117792619Y-108785878D01*
X117792619Y-108785878D02*
X117602143Y-108738259D01*
X117602143Y-108738259D02*
X117506905Y-108690640D01*
X117506905Y-108690640D02*
X117459286Y-108643021D01*
X117459286Y-108643021D02*
X117411667Y-108547783D01*
X117411667Y-108547783D02*
X117411667Y-108452545D01*
X117411667Y-108452545D02*
X117459286Y-108357307D01*
X117459286Y-108357307D02*
X117506905Y-108309688D01*
X117506905Y-108309688D02*
X117602143Y-108262069D01*
X117602143Y-108262069D02*
X117840238Y-108262069D01*
X117840238Y-108262069D02*
X117983095Y-108309688D01*
X118316429Y-108262069D02*
X118554524Y-109262069D01*
X118554524Y-109262069D02*
X118745000Y-108547783D01*
X118745000Y-108547783D02*
X118935476Y-109262069D01*
X118935476Y-109262069D02*
X119173572Y-108262069D01*
X119983095Y-108595402D02*
X119983095Y-109262069D01*
X119745000Y-108214450D02*
X119506905Y-108928735D01*
X119506905Y-108928735D02*
X120125952Y-108928735D01*
X172334226Y-71788450D02*
X172477083Y-71836069D01*
X172477083Y-71836069D02*
X172715178Y-71836069D01*
X172715178Y-71836069D02*
X172810416Y-71788450D01*
X172810416Y-71788450D02*
X172858035Y-71740830D01*
X172858035Y-71740830D02*
X172905654Y-71645592D01*
X172905654Y-71645592D02*
X172905654Y-71550354D01*
X172905654Y-71550354D02*
X172858035Y-71455116D01*
X172858035Y-71455116D02*
X172810416Y-71407497D01*
X172810416Y-71407497D02*
X172715178Y-71359878D01*
X172715178Y-71359878D02*
X172524702Y-71312259D01*
X172524702Y-71312259D02*
X172429464Y-71264640D01*
X172429464Y-71264640D02*
X172381845Y-71217021D01*
X172381845Y-71217021D02*
X172334226Y-71121783D01*
X172334226Y-71121783D02*
X172334226Y-71026545D01*
X172334226Y-71026545D02*
X172381845Y-70931307D01*
X172381845Y-70931307D02*
X172429464Y-70883688D01*
X172429464Y-70883688D02*
X172524702Y-70836069D01*
X172524702Y-70836069D02*
X172762797Y-70836069D01*
X172762797Y-70836069D02*
X172905654Y-70883688D01*
X173238988Y-70836069D02*
X173477083Y-71836069D01*
X173477083Y-71836069D02*
X173667559Y-71121783D01*
X173667559Y-71121783D02*
X173858035Y-71836069D01*
X173858035Y-71836069D02*
X174096131Y-70836069D01*
X175000892Y-71836069D02*
X174429464Y-71836069D01*
X174715178Y-71836069D02*
X174715178Y-70836069D01*
X174715178Y-70836069D02*
X174619940Y-70978926D01*
X174619940Y-70978926D02*
X174524702Y-71074164D01*
X174524702Y-71074164D02*
X174429464Y-71121783D01*
X175858035Y-71169402D02*
X175858035Y-71836069D01*
X175619940Y-70788450D02*
X175381845Y-71502735D01*
X175381845Y-71502735D02*
X176000892Y-71502735D01*
X172334226Y-90838450D02*
X172477083Y-90886069D01*
X172477083Y-90886069D02*
X172715178Y-90886069D01*
X172715178Y-90886069D02*
X172810416Y-90838450D01*
X172810416Y-90838450D02*
X172858035Y-90790830D01*
X172858035Y-90790830D02*
X172905654Y-90695592D01*
X172905654Y-90695592D02*
X172905654Y-90600354D01*
X172905654Y-90600354D02*
X172858035Y-90505116D01*
X172858035Y-90505116D02*
X172810416Y-90457497D01*
X172810416Y-90457497D02*
X172715178Y-90409878D01*
X172715178Y-90409878D02*
X172524702Y-90362259D01*
X172524702Y-90362259D02*
X172429464Y-90314640D01*
X172429464Y-90314640D02*
X172381845Y-90267021D01*
X172381845Y-90267021D02*
X172334226Y-90171783D01*
X172334226Y-90171783D02*
X172334226Y-90076545D01*
X172334226Y-90076545D02*
X172381845Y-89981307D01*
X172381845Y-89981307D02*
X172429464Y-89933688D01*
X172429464Y-89933688D02*
X172524702Y-89886069D01*
X172524702Y-89886069D02*
X172762797Y-89886069D01*
X172762797Y-89886069D02*
X172905654Y-89933688D01*
X173238988Y-89886069D02*
X173477083Y-90886069D01*
X173477083Y-90886069D02*
X173667559Y-90171783D01*
X173667559Y-90171783D02*
X173858035Y-90886069D01*
X173858035Y-90886069D02*
X174096131Y-89886069D01*
X175000892Y-90886069D02*
X174429464Y-90886069D01*
X174715178Y-90886069D02*
X174715178Y-89886069D01*
X174715178Y-89886069D02*
X174619940Y-90028926D01*
X174619940Y-90028926D02*
X174524702Y-90124164D01*
X174524702Y-90124164D02*
X174429464Y-90171783D01*
X175334226Y-89886069D02*
X175953273Y-89886069D01*
X175953273Y-89886069D02*
X175619940Y-90267021D01*
X175619940Y-90267021D02*
X175762797Y-90267021D01*
X175762797Y-90267021D02*
X175858035Y-90314640D01*
X175858035Y-90314640D02*
X175905654Y-90362259D01*
X175905654Y-90362259D02*
X175953273Y-90457497D01*
X175953273Y-90457497D02*
X175953273Y-90695592D01*
X175953273Y-90695592D02*
X175905654Y-90790830D01*
X175905654Y-90790830D02*
X175858035Y-90838450D01*
X175858035Y-90838450D02*
X175762797Y-90886069D01*
X175762797Y-90886069D02*
X175477083Y-90886069D01*
X175477083Y-90886069D02*
X175381845Y-90838450D01*
X175381845Y-90838450D02*
X175334226Y-90790830D01*
D11*
X172946190Y-34603479D02*
X172946190Y-35117526D01*
X172946190Y-35117526D02*
X172976428Y-35178002D01*
X172976428Y-35178002D02*
X173006666Y-35208241D01*
X173006666Y-35208241D02*
X173067142Y-35238479D01*
X173067142Y-35238479D02*
X173188095Y-35238479D01*
X173188095Y-35238479D02*
X173248571Y-35208241D01*
X173248571Y-35208241D02*
X173278809Y-35178002D01*
X173278809Y-35178002D02*
X173309047Y-35117526D01*
X173309047Y-35117526D02*
X173309047Y-34603479D01*
X173944047Y-35238479D02*
X173581190Y-35238479D01*
X173762618Y-35238479D02*
X173762618Y-34603479D01*
X173762618Y-34603479D02*
X173702142Y-34694193D01*
X173702142Y-34694193D02*
X173641666Y-34754669D01*
X173641666Y-34754669D02*
X173581190Y-34784907D01*
D10*
X117411667Y-90164450D02*
X117554524Y-90212069D01*
X117554524Y-90212069D02*
X117792619Y-90212069D01*
X117792619Y-90212069D02*
X117887857Y-90164450D01*
X117887857Y-90164450D02*
X117935476Y-90116830D01*
X117935476Y-90116830D02*
X117983095Y-90021592D01*
X117983095Y-90021592D02*
X117983095Y-89926354D01*
X117983095Y-89926354D02*
X117935476Y-89831116D01*
X117935476Y-89831116D02*
X117887857Y-89783497D01*
X117887857Y-89783497D02*
X117792619Y-89735878D01*
X117792619Y-89735878D02*
X117602143Y-89688259D01*
X117602143Y-89688259D02*
X117506905Y-89640640D01*
X117506905Y-89640640D02*
X117459286Y-89593021D01*
X117459286Y-89593021D02*
X117411667Y-89497783D01*
X117411667Y-89497783D02*
X117411667Y-89402545D01*
X117411667Y-89402545D02*
X117459286Y-89307307D01*
X117459286Y-89307307D02*
X117506905Y-89259688D01*
X117506905Y-89259688D02*
X117602143Y-89212069D01*
X117602143Y-89212069D02*
X117840238Y-89212069D01*
X117840238Y-89212069D02*
X117983095Y-89259688D01*
X118316429Y-89212069D02*
X118554524Y-90212069D01*
X118554524Y-90212069D02*
X118745000Y-89497783D01*
X118745000Y-89497783D02*
X118935476Y-90212069D01*
X118935476Y-90212069D02*
X119173572Y-89212069D01*
X119697381Y-89640640D02*
X119602143Y-89593021D01*
X119602143Y-89593021D02*
X119554524Y-89545402D01*
X119554524Y-89545402D02*
X119506905Y-89450164D01*
X119506905Y-89450164D02*
X119506905Y-89402545D01*
X119506905Y-89402545D02*
X119554524Y-89307307D01*
X119554524Y-89307307D02*
X119602143Y-89259688D01*
X119602143Y-89259688D02*
X119697381Y-89212069D01*
X119697381Y-89212069D02*
X119887857Y-89212069D01*
X119887857Y-89212069D02*
X119983095Y-89259688D01*
X119983095Y-89259688D02*
X120030714Y-89307307D01*
X120030714Y-89307307D02*
X120078333Y-89402545D01*
X120078333Y-89402545D02*
X120078333Y-89450164D01*
X120078333Y-89450164D02*
X120030714Y-89545402D01*
X120030714Y-89545402D02*
X119983095Y-89593021D01*
X119983095Y-89593021D02*
X119887857Y-89640640D01*
X119887857Y-89640640D02*
X119697381Y-89640640D01*
X119697381Y-89640640D02*
X119602143Y-89688259D01*
X119602143Y-89688259D02*
X119554524Y-89735878D01*
X119554524Y-89735878D02*
X119506905Y-89831116D01*
X119506905Y-89831116D02*
X119506905Y-90021592D01*
X119506905Y-90021592D02*
X119554524Y-90116830D01*
X119554524Y-90116830D02*
X119602143Y-90164450D01*
X119602143Y-90164450D02*
X119697381Y-90212069D01*
X119697381Y-90212069D02*
X119887857Y-90212069D01*
X119887857Y-90212069D02*
X119983095Y-90164450D01*
X119983095Y-90164450D02*
X120030714Y-90116830D01*
X120030714Y-90116830D02*
X120078333Y-90021592D01*
X120078333Y-90021592D02*
X120078333Y-89831116D01*
X120078333Y-89831116D02*
X120030714Y-89735878D01*
X120030714Y-89735878D02*
X119983095Y-89688259D01*
X119983095Y-89688259D02*
X119887857Y-89640640D01*
D12*
%TO.C,SW12*%
X130810000Y-52546250D02*
X144780000Y-52546250D01*
X130810000Y-66516250D02*
X130810000Y-52546250D01*
X144780000Y-52546250D02*
X144780000Y-66516250D01*
X144780000Y-66516250D02*
X130810000Y-66516250D01*
%TO.C,SW3*%
X149860000Y-71596250D02*
X163830000Y-71596250D01*
X149860000Y-85566250D02*
X149860000Y-71596250D01*
X163830000Y-71596250D02*
X163830000Y-85566250D01*
X163830000Y-85566250D02*
X149860000Y-85566250D01*
%TO.C,R1*%
X175292500Y-60945000D02*
X175292500Y-64785000D01*
X175292500Y-64785000D02*
X177132500Y-64785000D01*
X176212500Y-59995000D02*
X176212500Y-60945000D01*
X176212500Y-65735000D02*
X176212500Y-64785000D01*
X177132500Y-60945000D02*
X175292500Y-60945000D01*
X177132500Y-64785000D02*
X177132500Y-60945000D01*
%TO.C,SW7*%
X111760000Y-71596250D02*
X125730000Y-71596250D01*
X111760000Y-85566250D02*
X111760000Y-71596250D01*
X125730000Y-71596250D02*
X125730000Y-85566250D01*
X125730000Y-85566250D02*
X111760000Y-85566250D01*
%TO.C,SW6*%
X149860000Y-52546250D02*
X163830000Y-52546250D01*
X149860000Y-66516250D02*
X149860000Y-52546250D01*
X163830000Y-52546250D02*
X163830000Y-66516250D01*
X163830000Y-66516250D02*
X149860000Y-66516250D01*
%TO.C,SW1*%
X130810000Y-109696250D02*
X144780000Y-109696250D01*
X130810000Y-123666250D02*
X130810000Y-109696250D01*
X144780000Y-109696250D02*
X144780000Y-123666250D01*
X144780000Y-123666250D02*
X130810000Y-123666250D01*
%TO.C,SW9*%
X111760000Y-52546250D02*
X125730000Y-52546250D01*
X111760000Y-66516250D02*
X111760000Y-52546250D01*
X125730000Y-52546250D02*
X125730000Y-66516250D01*
X125730000Y-66516250D02*
X111760000Y-66516250D01*
%TO.C,SW5*%
X149860000Y-90646250D02*
X163830000Y-90646250D01*
X149860000Y-104616250D02*
X149860000Y-90646250D01*
X163830000Y-90646250D02*
X163830000Y-104616250D01*
X163830000Y-104616250D02*
X149860000Y-104616250D01*
%TO.C,R2*%
X184817500Y-60945000D02*
X184817500Y-64785000D01*
X184817500Y-64785000D02*
X186657500Y-64785000D01*
X185737500Y-59995000D02*
X185737500Y-60945000D01*
X185737500Y-65735000D02*
X185737500Y-64785000D01*
X186657500Y-60945000D02*
X184817500Y-60945000D01*
X186657500Y-64785000D02*
X186657500Y-60945000D01*
%TO.C,SW10*%
X130810000Y-71596250D02*
X144780000Y-71596250D01*
X130810000Y-85566250D02*
X130810000Y-71596250D01*
X144780000Y-71596250D02*
X144780000Y-85566250D01*
X144780000Y-85566250D02*
X130810000Y-85566250D01*
%TO.C,SW11*%
X130810000Y-90646250D02*
X144780000Y-90646250D01*
X130810000Y-104616250D02*
X130810000Y-90646250D01*
X144780000Y-90646250D02*
X144780000Y-104616250D01*
X144780000Y-104616250D02*
X130810000Y-104616250D01*
%TO.C,SW2*%
X149860000Y-109696250D02*
X163830000Y-109696250D01*
X149860000Y-123666250D02*
X149860000Y-109696250D01*
X163830000Y-109696250D02*
X163830000Y-123666250D01*
X163830000Y-123666250D02*
X149860000Y-123666250D01*
D13*
%TO.C,J1*%
X119500000Y-36420000D02*
X119500000Y-48420000D01*
X119500000Y-48420000D02*
X157500000Y-48420000D01*
X123000000Y-36420000D02*
X123000000Y-48420000D01*
X152500000Y-36420000D02*
X152500000Y-48420000D01*
X157500000Y-36420000D02*
X119500000Y-36420000D01*
X157500000Y-48420000D02*
X157500000Y-36420000D01*
D12*
%TO.C,SW4*%
X111760000Y-109696250D02*
X125730000Y-109696250D01*
X111760000Y-123666250D02*
X111760000Y-109696250D01*
X125730000Y-109696250D02*
X125730000Y-123666250D01*
X125730000Y-123666250D02*
X111760000Y-123666250D01*
%TO.C,SW14*%
X171043750Y-74481250D02*
X171643750Y-74481250D01*
X171343750Y-74781250D02*
X171043750Y-74481250D01*
X171643750Y-74481250D02*
X171343750Y-74781250D01*
X172743750Y-72681250D02*
X172743750Y-84481250D01*
X176843750Y-72681250D02*
X172743750Y-72681250D01*
X176843750Y-84481250D02*
X172743750Y-84481250D01*
X178343750Y-78581250D02*
X179343750Y-78581250D01*
X178843750Y-78081250D02*
X178843750Y-79081250D01*
X180843750Y-72681250D02*
X184943750Y-72681250D01*
X184943750Y-72681250D02*
X184943750Y-75081250D01*
X184943750Y-77281250D02*
X184943750Y-79881250D01*
X184943750Y-82081250D02*
X184943750Y-84481250D01*
X184943750Y-84481250D02*
X180843750Y-84481250D01*
X181843750Y-78581250D02*
G75*
G02*
X175843750Y-78581250I-3000000J0D01*
G01*
X175843750Y-78581250D02*
G75*
G02*
X181843750Y-78581250I3000000J0D01*
G01*
%TO.C,SW13*%
X171043750Y-93531250D02*
X171643750Y-93531250D01*
X171343750Y-93831250D02*
X171043750Y-93531250D01*
X171643750Y-93531250D02*
X171343750Y-93831250D01*
X172743750Y-91731250D02*
X172743750Y-103531250D01*
X176843750Y-91731250D02*
X172743750Y-91731250D01*
X176843750Y-103531250D02*
X172743750Y-103531250D01*
X178343750Y-97631250D02*
X179343750Y-97631250D01*
X178843750Y-97131250D02*
X178843750Y-98131250D01*
X180843750Y-91731250D02*
X184943750Y-91731250D01*
X184943750Y-91731250D02*
X184943750Y-94131250D01*
X184943750Y-96331250D02*
X184943750Y-98931250D01*
X184943750Y-101131250D02*
X184943750Y-103531250D01*
X184943750Y-103531250D02*
X180843750Y-103531250D01*
X181843750Y-97631250D02*
G75*
G02*
X175843750Y-97631250I-3000000J0D01*
G01*
X175843750Y-97631250D02*
G75*
G02*
X181843750Y-97631250I3000000J0D01*
G01*
D14*
%TO.C,U1*%
X173040000Y-55459000D02*
X173040000Y-38314000D01*
X174945000Y-57364000D02*
X188915000Y-57364000D01*
X177435000Y-36409000D02*
X177438728Y-35498728D01*
X177938728Y-34999000D02*
X185934000Y-34999000D01*
X186434000Y-35499000D02*
X186434000Y-36409000D01*
D15*
X188915000Y-36409000D02*
X174945000Y-36409000D01*
D14*
X188915000Y-36409000D02*
X174945000Y-36409000D01*
X190820000Y-55459000D02*
X190820000Y-38314000D01*
X173040000Y-38314000D02*
G75*
G02*
X174945000Y-36409000I1905001J-1D01*
G01*
X174945000Y-57364000D02*
G75*
G02*
X173040000Y-55459000I1J1905001D01*
G01*
X177438728Y-35498728D02*
G75*
G02*
X177938728Y-34999001I500018J-291D01*
G01*
X185934000Y-34999000D02*
G75*
G02*
X186434000Y-35499000I0J-500000D01*
G01*
X188915000Y-36409000D02*
G75*
G02*
X190820000Y-38314000I0J-1905000D01*
G01*
X190820000Y-55459000D02*
G75*
G02*
X188915000Y-57364000I-1905000J0D01*
G01*
D16*
X173232000Y-36650000D02*
G75*
G02*
X172728000Y-36650000I-252000J0D01*
G01*
X172728000Y-36650000D02*
G75*
G02*
X173232000Y-36650000I252000J0D01*
G01*
X174375000Y-37530000D02*
G75*
G02*
X173871000Y-37530000I-252000J0D01*
G01*
X173871000Y-37530000D02*
G75*
G02*
X174375000Y-37530000I252000J0D01*
G01*
D12*
%TO.C,SW8*%
X111760000Y-90646250D02*
X125730000Y-90646250D01*
X111760000Y-104616250D02*
X111760000Y-90646250D01*
X125730000Y-90646250D02*
X125730000Y-104616250D01*
X125730000Y-104616250D02*
X111760000Y-104616250D01*
%TD*%
M02*
