0
SECTION
2
HEADER
9
$INSUNITS
70
4
9
$ACADVER
1
AC1014
9
$HANDSEED
5
FFFF
0
ENDSEC
0
SECTION
2
TABLES
0
TABLE
2
VPORT
5
8
100
AcDbSymbolTable
0
ENDTAB
0
TABLE
2
LTYPE
5
5
100
AcDbSymbolTable
70
2
0
LTYPE
5
14
100
AcDbSymbolTableRecord
100
AcDbLinetypeTableRecord
2
BYBLOCK
70
0
0
LTYPE
5
15
100
AcDbSymbolTableRecord
100
AcDbLinetypeTableRecord
2
BYLAYER
70
0
0
ENDTAB
0
TABLE
2
LAYER
5
2
100
AcDbSymbolTable
70
3
0
LAYER
5
50
100
AcDbSymbolTableRecord
100
AcDbLayerTableRecord
2
0
70
0
6
CONTINUOUS
0
LAYER
5
51
100
AcDbSymbolTableRecord
100
AcDbLayerTableRecord
2
CUTOUTS
70
0
62
1
6
CONTINUOUS
0
LAYER
5
52
100
AcDbSymbolTableRecord
100
AcDbLayerTableRecord
2
PERIMETER
70
0
62
5
6
CONTINUOUS
0
ENDTAB
0
TABLE
2
STYLE
5
3
100
AcDbSymbolTable
70
1
0
STYLE
5
11
100
AcDbSymbolTableRecord
100
AcDbTextStyleTableRecord
2
STANDARD
70
0
0
ENDTAB
0
TABLE
2
VIEW
5
6
100
AcDbSymbolTable
0
ENDTAB
0
TABLE
2
UCS
5
7
100
AcDbSymbolTable
0
ENDTAB
0
TABLE
2
APPID
5
9
100
AcDbSymbolTable
70
1
0
APPID
5
12
100
AcDbSymbolTableRecord
100
AcDbRegAppTableRecord
2
ACAD
70
0
0
ENDTAB
0
TABLE
2
DIMSTYLE
5
A
100
AcDbSymbolTable
0
ENDTAB
0
TABLE
2
BLOCK_RECORD
5
1
100
AcDbSymbolTable
70
2
0
BLOCK_RECORD
5
1F
100
AcDbSymbolTableRecord
100
AcDbBlockTableRecord
2
*MODEL_SPACE
0
BLOCK_RECORD
5
1B
100
AcDbSymbolTableRecord
100
AcDbBlockTableRecord
2
*PAPER_SPACE
0
ENDTAB
0
ENDSEC
0
SECTION
2
BLOCKS
0
BLOCK
5
20
100
AcDbEntity
100
AcDbBlockBegin
2
*MODEL_SPACE
0
ENDBLK
5
21
100
AcDbEntity
100
AcDbBlockEnd
0
BLOCK
5
1C
100
AcDbEntity
100
AcDbBlockBegin
2
*PAPER_SPACE
0
ENDBLK
5
1D
100
AcDbEntity
100
AcDbBlockEnd
0
ENDSEC
0
SECTION
2
ENTITIES
0
CIRCLE
5
100
100
AcDbEntity
8
CUTOUTS
100
AcDbCircle
10
98.000001460313797
20
97.000001445412636
30
0
40
2.4249999999999972
210
0
220
0
230
1
0
CIRCLE
5
101
100
AcDbEntity
8
CUTOUTS
100
AcDbCircle
10
5.8994811029851633
20
0.98354085628564047
30
2.2204460492503131e-15
40
2.4250000000000007
210
0
220
0
230
1
0
LWPOLYLINE
5
102
100
AcDbEntity
8
CUTOUTS
100
AcDbPolyline
90
8
70
1
43
0.0
10
73.624529894683974
20
24.10535189633725
42
0.41421356237309165
10
75.549529894683985
20
22.180351896337257
10
91.549529894683985
20
22.18035189633725
42
0.41421356237309503
10
93.474529894683968
20
24.10535189633725
10
93.474529894683968
20
40.10535189633724
42
0.41421356237309914
10
91.549529894683971
20
42.030351896337237
10
75.549529894683985
20
42.030351896337237
42
0.41421356237308965
10
73.624529894683974
20
40.10535189633724
0
LWPOLYLINE
5
103
100
AcDbEntity
8
CUTOUTS
100
AcDbPolyline
90
4
70
1
43
0.0
10
29.689170548071459
20
32.207865184354105
10
29.689170548071459
20
48.0578651843541
10
45.539170548071446
20
48.0578651843541
10
45.539170548071446
20
32.207865184354105
0
LWPOLYLINE
5
104
100
AcDbEntity
8
CUTOUTS
100
AcDbPolyline
90
4
70
1
43
0.0
10
48.689170548071459
20
67.107865184354097
10
64.539170548071453
20
67.107865184354097
10
64.539170548071453
20
51.25786518435411
10
48.689170548071459
20
51.25786518435411
0
LWPOLYLINE
5
105
100
AcDbEntity
8
CUTOUTS
100
AcDbPolyline
90
4
70
1
43
0.0
10
10.689170548071454
20
51.25786518435411
10
10.689170548071454
20
67.107865184354097
10
26.539170548071446
20
67.107865184354097
10
26.539170548071446
20
51.25786518435411
0
LWPOLYLINE
5
106
100
AcDbEntity
8
CUTOUTS
100
AcDbPolyline
90
4
70
1
43
0.0
10
29.689170548071459
20
29.007865184354095
10
45.539170548071446
20
29.007865184354095
10
45.539170548071446
20
13.157865184354103
10
29.689170548071459
20
13.157865184354103
0
LWPOLYLINE
5
107
100
AcDbEntity
8
CUTOUTS
100
AcDbPolyline
90
4
70
1
43
0.0
10
48.689170548071459
20
29.007865184354095
10
64.539170548071453
20
29.007865184354095
10
64.539170548071453
20
13.157865184354103
10
48.689170548071459
20
13.157865184354103
0
LWPOLYLINE
5
108
100
AcDbEntity
8
CUTOUTS
100
AcDbPolyline
90
4
70
1
43
0.0
10
10.689170548071449
20
48.0578651843541
10
26.53917054807145
20
48.0578651843541
10
26.53917054807145
20
32.207865184354098
10
10.689170548071449
20
32.207865184354098
0
LWPOLYLINE
5
109
100
AcDbEntity
8
CUTOUTS
100
AcDbPolyline
90
4
70
1
43
0.0
10
29.689170548071459
20
67.107865184354097
10
45.539170548071446
20
67.107865184354097
10
45.539170548071446
20
51.25786518435411
10
29.689170548071459
20
51.25786518435411
0
LWPOLYLINE
5
10A
100
AcDbEntity
8
CUTOUTS
100
AcDbPolyline
90
4
70
1
43
0.0
10
10.689170548071449
20
29.007865184354099
10
26.53917054807145
20
29.007865184354099
10
26.53917054807145
20
13.157865184354097
10
10.689170548071449
20
13.157865184354097
0
LWPOLYLINE
5
10B
100
AcDbEntity
8
CUTOUTS
100
AcDbPolyline
90
4
70
1
43
0.0
10
98.925001475214955
20
76.925001147389409
10
98.925001475214955
20
48.07500071525574
10
69.075001028180125
20
48.07500071525574
10
69.075001028180125
20
76.925001147389409
0
LWPOLYLINE
5
10C
100
AcDbEntity
8
CUTOUTS
100
AcDbPolyline
90
4
70
1
43
0.0
10
48.689170548071459
20
48.0578651843541
10
64.539170548071453
20
48.0578651843541
10
64.539170548071453
20
32.207865184354105
10
48.689170548071459
20
32.207865184354105
0
LWPOLYLINE
5
10D
100
AcDbEntity
8
PERIMETER
100
AcDbPolyline
90
8
70
1
43
0.0
10
102.07500151991844
20
97.000001445412636
42
0.41432634495260873
10
97.998432387864455
20
101.07500120293281
10
3.8283437230377437
20
97.151247508564921
42
0.40206866616616577
10
1.8397271033155074
20
95.078046381898304
10
1.8397271033169744
20
0.96242153923034479
42
0.42393668096807002
10
6.0548704533937947
20
-3.0732932188466329
10
100.07942222850548
20
0.52813926574932168
42
0.40304426301579294
10
102.07500151991844
20
2.6016187932700428
0
ENDSEC
0
SECTION
2
OBJECTS
0
DICTIONARY
5
C
100
AcDbDictionary
3
ACAD_GROUP
350
D
3
ACAD_MLINESTYLE
350
17
0
DICTIONARY
5
D
100
AcDbDictionary
0
DICTIONARY
5
1A
330
C
100
AcDbDictionary
0
DICTIONARY
5
17
100
AcDbDictionary
0
ENDSEC
0
EOF
