%TF.GenerationSoftware,KiCad,Pcbnew,8.0.5*%
%TF.CreationDate,2024-10-19T01:04:11-04:00*%
%TF.ProjectId,hackpad,6861636b-7061-4642-9e6b-696361645f70,rev?*%
%TF.SameCoordinates,Original*%
%TF.FileFunction,Copper,L2,Bot*%
%TF.FilePolarity,Positive*%
%FSLAX46Y46*%
G04 Gerber Fmt 4.6, Leading zero omitted, Abs format (unit mm)*
G04 Created by KiCad (PCBNEW 8.0.5) date 2024-10-19 01:04:11*
%MOMM*%
%LPD*%
G01*
G04 APERTURE LIST*
%TA.AperFunction,ComponentPad*%
%ADD10C,2.500000*%
%TD*%
%TA.AperFunction,ComponentPad*%
%ADD11R,1.600000X1.600000*%
%TD*%
%TA.AperFunction,ComponentPad*%
%ADD12C,1.600000*%
%TD*%
%TA.AperFunction,ComponentPad*%
%ADD13R,1.700000X1.700000*%
%TD*%
%TA.AperFunction,ComponentPad*%
%ADD14O,1.700000X1.700000*%
%TD*%
%TA.AperFunction,ComponentPad*%
%ADD15O,1.600000X1.600000*%
%TD*%
%TA.AperFunction,Conductor*%
%ADD16C,0.200000*%
%TD*%
G04 APERTURE END LIST*
D10*
%TO.P,SW5,1,1*%
%TO.N,col 1*%
X148590000Y-73660000D03*
%TO.P,SW5,2,2*%
%TO.N,Net-(D5-A)*%
X154940000Y-71120000D03*
%TD*%
D11*
%TO.P,U1,1,PA02_A0_D0*%
%TO.N,SCL*%
X214788750Y-28098750D03*
D12*
%TO.P,U1,2,PA4_A1_D1*%
%TO.N,SDA*%
X212248750Y-28098750D03*
%TO.P,U1,3,PA10_A2_D2*%
%TO.N,unconnected-(U1-PA10_A2_D2-Pad3)_1*%
X209708750Y-28098750D03*
%TO.P,U1,4,PA11_A3_D3*%
%TO.N,row 4*%
X207168750Y-28098750D03*
%TO.P,U1,5,PA8_A4_D4_SDA*%
%TO.N,row 3*%
X204628750Y-28098750D03*
%TO.P,U1,6,PA9_A5_D5_SCL*%
%TO.N,row 2*%
X202088750Y-28098750D03*
%TO.P,U1,7,PB08_A6_D6_TX*%
%TO.N,row 1*%
X199548750Y-28098750D03*
%TO.P,U1,8,PB09_A7_D7_RX*%
%TO.N,col 4*%
X199548750Y-43338750D03*
%TO.P,U1,9,PA7_A8_D8_SCK*%
%TO.N,col 3*%
X202088750Y-43338750D03*
%TO.P,U1,10,PA5_A9_D9_MISO*%
%TO.N,col 2*%
X204628750Y-43338750D03*
%TO.P,U1,11,PA6_A10_D10_MOSI*%
%TO.N,col 1*%
X207168750Y-43338750D03*
%TO.P,U1,12,3V3*%
%TO.N,vcc*%
X209708750Y-43338750D03*
%TO.P,U1,13,GND*%
%TO.N,gnd*%
X212248750Y-43338750D03*
%TO.P,U1,14,5V*%
%TO.N,unconnected-(U1-5V-Pad14)*%
X214788750Y-43338750D03*
%TD*%
D10*
%TO.P,SW12,1,1*%
%TO.N,col 4*%
X205740000Y-92710000D03*
%TO.P,SW12,2,2*%
%TO.N,Net-(D12-A)*%
X212090000Y-90170000D03*
%TD*%
%TO.P,SW9,1,1*%
%TO.N,col 1*%
X148590000Y-92710000D03*
%TO.P,SW9,2,2*%
%TO.N,Net-(D9-A)*%
X154940000Y-90170000D03*
%TD*%
%TO.P,SW10,1,1*%
%TO.N,col 2*%
X167640000Y-92710000D03*
%TO.P,SW10,2,2*%
%TO.N,Net-(D10-A)*%
X173990000Y-90170000D03*
%TD*%
%TO.P,SW1,1,1*%
%TO.N,col 1*%
X148590000Y-54610000D03*
%TO.P,SW1,2,2*%
%TO.N,Net-(D1-A)*%
X154940000Y-52070000D03*
%TD*%
%TO.P,SW4,1,1*%
%TO.N,col 4*%
X205740000Y-54610000D03*
%TO.P,SW4,2,2*%
%TO.N,Net-(D4-A)*%
X212090000Y-52070000D03*
%TD*%
%TO.P,SW6,1,1*%
%TO.N,col 2*%
X167640000Y-73660000D03*
%TO.P,SW6,2,2*%
%TO.N,Net-(D6-A)*%
X173990000Y-71120000D03*
%TD*%
%TO.P,SW16,1,1*%
%TO.N,col 4*%
X205740000Y-111760000D03*
%TO.P,SW16,2,2*%
%TO.N,Net-(D16-A)*%
X212090000Y-109220000D03*
%TD*%
%TO.P,SW2,1,1*%
%TO.N,col 2*%
X167640000Y-54610000D03*
%TO.P,SW2,2,2*%
%TO.N,Net-(D2-A)*%
X173990000Y-52070000D03*
%TD*%
%TO.P,SW13,1,1*%
%TO.N,col 1*%
X148590000Y-111760000D03*
%TO.P,SW13,2,2*%
%TO.N,Net-(D13-A)*%
X154940000Y-109220000D03*
%TD*%
%TO.P,SW14,1,1*%
%TO.N,col 2*%
X167640000Y-111760000D03*
%TO.P,SW14,2,2*%
%TO.N,Net-(D14-A)*%
X173990000Y-109220000D03*
%TD*%
D13*
%TO.P,J1,1,GND*%
%TO.N,gnd*%
X150018750Y-40481250D03*
D14*
%TO.P,J1,2,VCC*%
%TO.N,vcc*%
X150018750Y-37941250D03*
%TO.P,J1,3,SCL*%
%TO.N,SCL*%
X150018750Y-35401250D03*
%TO.P,J1,4,SDA*%
%TO.N,SDA*%
X150018750Y-32861250D03*
%TD*%
D10*
%TO.P,SW15,1,1*%
%TO.N,col 3*%
X186690000Y-111760000D03*
%TO.P,SW15,2,2*%
%TO.N,Net-(D15-A)*%
X193040000Y-109220000D03*
%TD*%
%TO.P,SW7,1,1*%
%TO.N,col 3*%
X186690000Y-73660000D03*
%TO.P,SW7,2,2*%
%TO.N,Net-(D7-A)*%
X193040000Y-71120000D03*
%TD*%
%TO.P,SW8,1,1*%
%TO.N,col 4*%
X205740000Y-73660000D03*
%TO.P,SW8,2,2*%
%TO.N,Net-(D8-A)*%
X212090000Y-71120000D03*
%TD*%
%TO.P,SW3,1,1*%
%TO.N,col 3*%
X186690000Y-54610000D03*
%TO.P,SW3,2,2*%
%TO.N,Net-(D3-A)*%
X193040000Y-52070000D03*
%TD*%
%TO.P,SW11,1,1*%
%TO.N,col 3*%
X186690000Y-92710000D03*
%TO.P,SW11,2,2*%
%TO.N,Net-(D11-A)*%
X193040000Y-90170000D03*
%TD*%
D11*
%TO.P,D8,1,K*%
%TO.N,row 2*%
X219075000Y-78581250D03*
D15*
%TO.P,D8,2,A*%
%TO.N,Net-(D8-A)*%
X219075000Y-70961250D03*
%TD*%
D11*
%TO.P,D9,1,K*%
%TO.N,row 3*%
X161925000Y-97631250D03*
D15*
%TO.P,D9,2,A*%
%TO.N,Net-(D9-A)*%
X161925000Y-90011250D03*
%TD*%
D11*
%TO.P,D3,1,K*%
%TO.N,row 1*%
X200025000Y-59531250D03*
D15*
%TO.P,D3,2,A*%
%TO.N,Net-(D3-A)*%
X200025000Y-51911250D03*
%TD*%
D11*
%TO.P,D1,1,K*%
%TO.N,row 1*%
X161925000Y-59531250D03*
D15*
%TO.P,D1,2,A*%
%TO.N,Net-(D1-A)*%
X161925000Y-51911250D03*
%TD*%
D11*
%TO.P,D11,1,K*%
%TO.N,row 3*%
X200025000Y-97631250D03*
D15*
%TO.P,D11,2,A*%
%TO.N,Net-(D11-A)*%
X200025000Y-90011250D03*
%TD*%
D11*
%TO.P,D6,1,K*%
%TO.N,row 2*%
X180975000Y-78581250D03*
D15*
%TO.P,D6,2,A*%
%TO.N,Net-(D6-A)*%
X180975000Y-70961250D03*
%TD*%
D11*
%TO.P,D13,1,K*%
%TO.N,row 4*%
X161925000Y-116681250D03*
D15*
%TO.P,D13,2,A*%
%TO.N,Net-(D13-A)*%
X161925000Y-109061250D03*
%TD*%
D11*
%TO.P,D15,1,K*%
%TO.N,row 4*%
X200025000Y-116681250D03*
D15*
%TO.P,D15,2,A*%
%TO.N,Net-(D15-A)*%
X200025000Y-109061250D03*
%TD*%
D11*
%TO.P,D5,1,K*%
%TO.N,row 2*%
X161925000Y-78581250D03*
D15*
%TO.P,D5,2,A*%
%TO.N,Net-(D5-A)*%
X161925000Y-70961250D03*
%TD*%
D11*
%TO.P,D7,1,K*%
%TO.N,row 2*%
X200025000Y-78581250D03*
D15*
%TO.P,D7,2,A*%
%TO.N,Net-(D7-A)*%
X200025000Y-70961250D03*
%TD*%
D11*
%TO.P,D10,1,K*%
%TO.N,row 3*%
X180975000Y-97631250D03*
D15*
%TO.P,D10,2,A*%
%TO.N,Net-(D10-A)*%
X180975000Y-90011250D03*
%TD*%
D11*
%TO.P,D16,1,K*%
%TO.N,row 4*%
X219075000Y-116681250D03*
D15*
%TO.P,D16,2,A*%
%TO.N,Net-(D16-A)*%
X219075000Y-109061250D03*
%TD*%
D11*
%TO.P,D4,1,K*%
%TO.N,row 1*%
X219075000Y-59531250D03*
D15*
%TO.P,D4,2,A*%
%TO.N,Net-(D4-A)*%
X219075000Y-51911250D03*
%TD*%
D11*
%TO.P,D12,1,K*%
%TO.N,row 3*%
X219075000Y-97631250D03*
D15*
%TO.P,D12,2,A*%
%TO.N,Net-(D12-A)*%
X219075000Y-90011250D03*
%TD*%
D11*
%TO.P,D2,1,K*%
%TO.N,row 1*%
X180975000Y-59531250D03*
D15*
%TO.P,D2,2,A*%
%TO.N,Net-(D2-A)*%
X180975000Y-51911250D03*
%TD*%
D11*
%TO.P,D14,1,K*%
%TO.N,row 4*%
X180975000Y-116681250D03*
D15*
%TO.P,D14,2,A*%
%TO.N,Net-(D14-A)*%
X180975000Y-109061250D03*
%TD*%
D16*
%TO.N,row 1*%
X220175000Y-46829365D02*
X202544385Y-29198750D01*
X219075000Y-59531250D02*
X220175000Y-58431250D01*
X202544385Y-29198750D02*
X200648750Y-29198750D01*
X219075000Y-59531250D02*
X200025000Y-59531250D01*
X200025000Y-59531250D02*
X180975000Y-59531250D01*
X220175000Y-58431250D02*
X220175000Y-46829365D01*
X180975000Y-59531250D02*
X161925000Y-59531250D01*
X200648750Y-29198750D02*
X199548750Y-28098750D01*
%TO.N,Net-(D1-A)*%
X161925000Y-51911250D02*
X155098750Y-51911250D01*
X155098750Y-51911250D02*
X154940000Y-52070000D01*
%TO.N,Net-(D2-A)*%
X174148750Y-51911250D02*
X173990000Y-52070000D01*
X180975000Y-51911250D02*
X174148750Y-51911250D01*
%TO.N,Net-(D3-A)*%
X193040000Y-52070000D02*
X199866250Y-52070000D01*
X199866250Y-52070000D02*
X200025000Y-51911250D01*
%TO.N,Net-(D4-A)*%
X212090000Y-52070000D02*
X218916250Y-52070000D01*
X218916250Y-52070000D02*
X219075000Y-51911250D01*
%TO.N,row 2*%
X180975000Y-78581250D02*
X200025000Y-78581250D01*
X219075000Y-78581250D02*
X220575000Y-77081250D01*
X200025000Y-78581250D02*
X219075000Y-78581250D01*
X220575000Y-77081250D02*
X220575000Y-46585000D01*
X220575000Y-46585000D02*
X202088750Y-28098750D01*
X161925000Y-78581250D02*
X180975000Y-78581250D01*
%TO.N,Net-(D5-A)*%
X161766250Y-71120000D02*
X161925000Y-70961250D01*
X154940000Y-71120000D02*
X161766250Y-71120000D01*
%TO.N,Net-(D6-A)*%
X180816250Y-71120000D02*
X180975000Y-70961250D01*
X173990000Y-71120000D02*
X180816250Y-71120000D01*
%TO.N,Net-(D7-A)*%
X194416428Y-71120000D02*
X194575178Y-70961250D01*
X194575178Y-70961250D02*
X200025000Y-70961250D01*
X193040000Y-71120000D02*
X194416428Y-71120000D01*
%TO.N,Net-(D8-A)*%
X218916250Y-71120000D02*
X219075000Y-70961250D01*
X212090000Y-71120000D02*
X218916250Y-71120000D01*
%TO.N,Net-(D9-A)*%
X154940000Y-90170000D02*
X161766250Y-90170000D01*
X161766250Y-90170000D02*
X161925000Y-90011250D01*
%TO.N,row 3*%
X219075000Y-97631250D02*
X200025000Y-97631250D01*
X180975000Y-97631250D02*
X161925000Y-97631250D01*
X200025000Y-97631250D02*
X180975000Y-97631250D01*
X220975000Y-95731250D02*
X220975000Y-44445000D01*
X219075000Y-97631250D02*
X220975000Y-95731250D01*
X220975000Y-44445000D02*
X204628750Y-28098750D01*
%TO.N,Net-(D10-A)*%
X173990000Y-90170000D02*
X180816250Y-90170000D01*
X180816250Y-90170000D02*
X180975000Y-90011250D01*
%TO.N,Net-(D11-A)*%
X193198750Y-90011250D02*
X193040000Y-90170000D01*
X200025000Y-90011250D02*
X193198750Y-90011250D01*
%TO.N,Net-(D12-A)*%
X212248750Y-90011250D02*
X212090000Y-90170000D01*
X219075000Y-90011250D02*
X212248750Y-90011250D01*
%TO.N,row 4*%
X221375000Y-114381250D02*
X221375000Y-42305000D01*
X219075000Y-116681250D02*
X200025000Y-116681250D01*
X161925000Y-116681250D02*
X180975000Y-116681250D01*
X221375000Y-42305000D02*
X207168750Y-28098750D01*
X180975000Y-116681250D02*
X200025000Y-116681250D01*
X219075000Y-116681250D02*
X221375000Y-114381250D01*
%TO.N,Net-(D13-A)*%
X155098750Y-109061250D02*
X154940000Y-109220000D01*
X161925000Y-109061250D02*
X155098750Y-109061250D01*
%TO.N,Net-(D14-A)*%
X180975000Y-109061250D02*
X174148750Y-109061250D01*
X174148750Y-109061250D02*
X173990000Y-109220000D01*
%TO.N,Net-(D15-A)*%
X200025000Y-109061250D02*
X193198750Y-109061250D01*
X193198750Y-109061250D02*
X193040000Y-109220000D01*
%TO.N,Net-(D16-A)*%
X212248750Y-109061250D02*
X212090000Y-109220000D01*
X219075000Y-109061250D02*
X212248750Y-109061250D01*
%TD*%
M02*
