%TF.GenerationSoftware,KiCad,Pcbnew,8.0.5*%
%TF.CreationDate,2024-10-19T01:04:11-04:00*%
%TF.ProjectId,hackpad,6861636b-7061-4642-9e6b-696361645f70,rev?*%
%TF.SameCoordinates,Original*%
%TF.FileFunction,Copper,L1,Top*%
%TF.FilePolarity,Positive*%
%FSLAX46Y46*%
G04 Gerber Fmt 4.6, Leading zero omitted, Abs format (unit mm)*
G04 Created by KiCad (PCBNEW 8.0.5) date 2024-10-19 01:04:11*
%MOMM*%
%LPD*%
G01*
G04 APERTURE LIST*
G04 Aperture macros list*
%AMRoundRect*
0 Rectangle with rounded corners*
0 $1 Rounding radius*
0 $2 $3 $4 $5 $6 $7 $8 $9 X,Y pos of 4 corners*
0 Add a 4 corners polygon primitive as box body*
4,1,4,$2,$3,$4,$5,$6,$7,$8,$9,$2,$3,0*
0 Add four circle primitives for the rounded corners*
1,1,$1+$1,$2,$3*
1,1,$1+$1,$4,$5*
1,1,$1+$1,$6,$7*
1,1,$1+$1,$8,$9*
0 Add four rect primitives between the rounded corners*
20,1,$1+$1,$2,$3,$4,$5,0*
20,1,$1+$1,$4,$5,$6,$7,0*
20,1,$1+$1,$6,$7,$8,$9,0*
20,1,$1+$1,$8,$9,$2,$3,0*%
G04 Aperture macros list end*
%TA.AperFunction,ComponentPad*%
%ADD10C,2.500000*%
%TD*%
%TA.AperFunction,SMDPad,CuDef*%
%ADD11RoundRect,0.500000X-0.500000X0.875000X-0.500000X-0.875000X0.500000X-0.875000X0.500000X0.875000X0*%
%TD*%
%TA.AperFunction,ComponentPad*%
%ADD12R,1.600000X1.600000*%
%TD*%
%TA.AperFunction,ComponentPad*%
%ADD13C,1.600000*%
%TD*%
%TA.AperFunction,ComponentPad*%
%ADD14R,1.700000X1.700000*%
%TD*%
%TA.AperFunction,ComponentPad*%
%ADD15O,1.700000X1.700000*%
%TD*%
%TA.AperFunction,ComponentPad*%
%ADD16O,1.600000X1.600000*%
%TD*%
%TA.AperFunction,Conductor*%
%ADD17C,0.200000*%
%TD*%
G04 APERTURE END LIST*
D10*
%TO.P,SW5,1,1*%
%TO.N,col 1*%
X148590000Y-73660000D03*
%TO.P,SW5,2,2*%
%TO.N,Net-(D5-A)*%
X154940000Y-71120000D03*
%TD*%
D11*
%TO.P,U1,1,PA02_A0_D0*%
%TO.N,SCL*%
X214788750Y-27653750D03*
D12*
X214788750Y-28098750D03*
D11*
%TO.P,U1,2,PA4_A1_D1*%
%TO.N,SDA*%
X212248750Y-27653750D03*
D13*
X212248750Y-28098750D03*
D11*
%TO.P,U1,3,PA10_A2_D2*%
%TO.N,unconnected-(U1-PA10_A2_D2-Pad3)_1*%
X209708750Y-27653750D03*
D13*
X209708750Y-28098750D03*
D11*
%TO.P,U1,4,PA11_A3_D3*%
%TO.N,row 4*%
X207168750Y-27653750D03*
D13*
X207168750Y-28098750D03*
D11*
%TO.P,U1,5,PA8_A4_D4_SDA*%
%TO.N,row 3*%
X204628750Y-27653750D03*
D13*
X204628750Y-28098750D03*
D11*
%TO.P,U1,6,PA9_A5_D5_SCL*%
%TO.N,row 2*%
X202088750Y-27653750D03*
D13*
X202088750Y-28098750D03*
D11*
%TO.P,U1,7,PB08_A6_D6_TX*%
%TO.N,row 1*%
X199548750Y-27653750D03*
D13*
X199548750Y-28098750D03*
%TO.P,U1,8,PB09_A7_D7_RX*%
%TO.N,col 4*%
X199548750Y-43338750D03*
D11*
X199548750Y-43818750D03*
D13*
%TO.P,U1,9,PA7_A8_D8_SCK*%
%TO.N,col 3*%
X202088750Y-43338750D03*
D11*
X202088750Y-43818750D03*
D13*
%TO.P,U1,10,PA5_A9_D9_MISO*%
%TO.N,col 2*%
X204628750Y-43338750D03*
D11*
X204628750Y-43818750D03*
D13*
%TO.P,U1,11,PA6_A10_D10_MOSI*%
%TO.N,col 1*%
X207168750Y-43338750D03*
D11*
X207168750Y-43818750D03*
D13*
%TO.P,U1,12,3V3*%
%TO.N,vcc*%
X209708750Y-43338750D03*
D11*
X209708750Y-43818750D03*
D13*
%TO.P,U1,13,GND*%
%TO.N,gnd*%
X212248750Y-43338750D03*
D11*
X212248750Y-43818750D03*
D13*
%TO.P,U1,14,5V*%
%TO.N,unconnected-(U1-5V-Pad14)*%
X214788750Y-43338750D03*
D11*
X214788750Y-43818750D03*
%TD*%
D10*
%TO.P,SW12,1,1*%
%TO.N,col 4*%
X205740000Y-92710000D03*
%TO.P,SW12,2,2*%
%TO.N,Net-(D12-A)*%
X212090000Y-90170000D03*
%TD*%
%TO.P,SW9,1,1*%
%TO.N,col 1*%
X148590000Y-92710000D03*
%TO.P,SW9,2,2*%
%TO.N,Net-(D9-A)*%
X154940000Y-90170000D03*
%TD*%
%TO.P,SW10,1,1*%
%TO.N,col 2*%
X167640000Y-92710000D03*
%TO.P,SW10,2,2*%
%TO.N,Net-(D10-A)*%
X173990000Y-90170000D03*
%TD*%
%TO.P,SW1,1,1*%
%TO.N,col 1*%
X148590000Y-54610000D03*
%TO.P,SW1,2,2*%
%TO.N,Net-(D1-A)*%
X154940000Y-52070000D03*
%TD*%
%TO.P,SW4,1,1*%
%TO.N,col 4*%
X205740000Y-54610000D03*
%TO.P,SW4,2,2*%
%TO.N,Net-(D4-A)*%
X212090000Y-52070000D03*
%TD*%
%TO.P,SW6,1,1*%
%TO.N,col 2*%
X167640000Y-73660000D03*
%TO.P,SW6,2,2*%
%TO.N,Net-(D6-A)*%
X173990000Y-71120000D03*
%TD*%
%TO.P,SW16,1,1*%
%TO.N,col 4*%
X205740000Y-111760000D03*
%TO.P,SW16,2,2*%
%TO.N,Net-(D16-A)*%
X212090000Y-109220000D03*
%TD*%
%TO.P,SW2,1,1*%
%TO.N,col 2*%
X167640000Y-54610000D03*
%TO.P,SW2,2,2*%
%TO.N,Net-(D2-A)*%
X173990000Y-52070000D03*
%TD*%
%TO.P,SW13,1,1*%
%TO.N,col 1*%
X148590000Y-111760000D03*
%TO.P,SW13,2,2*%
%TO.N,Net-(D13-A)*%
X154940000Y-109220000D03*
%TD*%
%TO.P,SW14,1,1*%
%TO.N,col 2*%
X167640000Y-111760000D03*
%TO.P,SW14,2,2*%
%TO.N,Net-(D14-A)*%
X173990000Y-109220000D03*
%TD*%
D14*
%TO.P,J1,1,GND*%
%TO.N,gnd*%
X150018750Y-40481250D03*
D15*
%TO.P,J1,2,VCC*%
%TO.N,vcc*%
X150018750Y-37941250D03*
%TO.P,J1,3,SCL*%
%TO.N,SCL*%
X150018750Y-35401250D03*
%TO.P,J1,4,SDA*%
%TO.N,SDA*%
X150018750Y-32861250D03*
%TD*%
D10*
%TO.P,SW15,1,1*%
%TO.N,col 3*%
X186690000Y-111760000D03*
%TO.P,SW15,2,2*%
%TO.N,Net-(D15-A)*%
X193040000Y-109220000D03*
%TD*%
%TO.P,SW7,1,1*%
%TO.N,col 3*%
X186690000Y-73660000D03*
%TO.P,SW7,2,2*%
%TO.N,Net-(D7-A)*%
X193040000Y-71120000D03*
%TD*%
%TO.P,SW8,1,1*%
%TO.N,col 4*%
X205740000Y-73660000D03*
%TO.P,SW8,2,2*%
%TO.N,Net-(D8-A)*%
X212090000Y-71120000D03*
%TD*%
%TO.P,SW3,1,1*%
%TO.N,col 3*%
X186690000Y-54610000D03*
%TO.P,SW3,2,2*%
%TO.N,Net-(D3-A)*%
X193040000Y-52070000D03*
%TD*%
%TO.P,SW11,1,1*%
%TO.N,col 3*%
X186690000Y-92710000D03*
%TO.P,SW11,2,2*%
%TO.N,Net-(D11-A)*%
X193040000Y-90170000D03*
%TD*%
D12*
%TO.P,D8,1,K*%
%TO.N,row 2*%
X219075000Y-78581250D03*
D16*
%TO.P,D8,2,A*%
%TO.N,Net-(D8-A)*%
X219075000Y-70961250D03*
%TD*%
D12*
%TO.P,D9,1,K*%
%TO.N,row 3*%
X161925000Y-97631250D03*
D16*
%TO.P,D9,2,A*%
%TO.N,Net-(D9-A)*%
X161925000Y-90011250D03*
%TD*%
D12*
%TO.P,D3,1,K*%
%TO.N,row 1*%
X200025000Y-59531250D03*
D16*
%TO.P,D3,2,A*%
%TO.N,Net-(D3-A)*%
X200025000Y-51911250D03*
%TD*%
D12*
%TO.P,D1,1,K*%
%TO.N,row 1*%
X161925000Y-59531250D03*
D16*
%TO.P,D1,2,A*%
%TO.N,Net-(D1-A)*%
X161925000Y-51911250D03*
%TD*%
D12*
%TO.P,D11,1,K*%
%TO.N,row 3*%
X200025000Y-97631250D03*
D16*
%TO.P,D11,2,A*%
%TO.N,Net-(D11-A)*%
X200025000Y-90011250D03*
%TD*%
D12*
%TO.P,D6,1,K*%
%TO.N,row 2*%
X180975000Y-78581250D03*
D16*
%TO.P,D6,2,A*%
%TO.N,Net-(D6-A)*%
X180975000Y-70961250D03*
%TD*%
D12*
%TO.P,D13,1,K*%
%TO.N,row 4*%
X161925000Y-116681250D03*
D16*
%TO.P,D13,2,A*%
%TO.N,Net-(D13-A)*%
X161925000Y-109061250D03*
%TD*%
D12*
%TO.P,D15,1,K*%
%TO.N,row 4*%
X200025000Y-116681250D03*
D16*
%TO.P,D15,2,A*%
%TO.N,Net-(D15-A)*%
X200025000Y-109061250D03*
%TD*%
D12*
%TO.P,D5,1,K*%
%TO.N,row 2*%
X161925000Y-78581250D03*
D16*
%TO.P,D5,2,A*%
%TO.N,Net-(D5-A)*%
X161925000Y-70961250D03*
%TD*%
D12*
%TO.P,D7,1,K*%
%TO.N,row 2*%
X200025000Y-78581250D03*
D16*
%TO.P,D7,2,A*%
%TO.N,Net-(D7-A)*%
X200025000Y-70961250D03*
%TD*%
D12*
%TO.P,D10,1,K*%
%TO.N,row 3*%
X180975000Y-97631250D03*
D16*
%TO.P,D10,2,A*%
%TO.N,Net-(D10-A)*%
X180975000Y-90011250D03*
%TD*%
D12*
%TO.P,D16,1,K*%
%TO.N,row 4*%
X219075000Y-116681250D03*
D16*
%TO.P,D16,2,A*%
%TO.N,Net-(D16-A)*%
X219075000Y-109061250D03*
%TD*%
D12*
%TO.P,D4,1,K*%
%TO.N,row 1*%
X219075000Y-59531250D03*
D16*
%TO.P,D4,2,A*%
%TO.N,Net-(D4-A)*%
X219075000Y-51911250D03*
%TD*%
D12*
%TO.P,D12,1,K*%
%TO.N,row 3*%
X219075000Y-97631250D03*
D16*
%TO.P,D12,2,A*%
%TO.N,Net-(D12-A)*%
X219075000Y-90011250D03*
%TD*%
D12*
%TO.P,D2,1,K*%
%TO.N,row 1*%
X180975000Y-59531250D03*
D16*
%TO.P,D2,2,A*%
%TO.N,Net-(D2-A)*%
X180975000Y-51911250D03*
%TD*%
D12*
%TO.P,D14,1,K*%
%TO.N,row 4*%
X180975000Y-116681250D03*
D16*
%TO.P,D14,2,A*%
%TO.N,Net-(D14-A)*%
X180975000Y-109061250D03*
%TD*%
D17*
%TO.N,SCL*%
X214788750Y-28098750D02*
X214788750Y-27653750D01*
X150018750Y-35401250D02*
X207486250Y-35401250D01*
X207486250Y-35401250D02*
X214788750Y-28098750D01*
%TO.N,SDA*%
X207486250Y-32861250D02*
X150018750Y-32861250D01*
X212248750Y-28098750D02*
X207486250Y-32861250D01*
%TO.N,col 4*%
X205740000Y-92710000D02*
X205740000Y-73660000D01*
X205740000Y-54610000D02*
X205740000Y-73660000D01*
X205740000Y-111760000D02*
X205740000Y-92710000D01*
X205740000Y-50010000D02*
X199548750Y-43818750D01*
X205740000Y-54610000D02*
X205740000Y-50010000D01*
%TO.N,col 3*%
X186690000Y-111760000D02*
X186690000Y-92710000D01*
X186690000Y-52842234D02*
X197388484Y-42143750D01*
X197388484Y-42143750D02*
X200893750Y-42143750D01*
X186690000Y-54610000D02*
X186690000Y-73660000D01*
X186690000Y-73660000D02*
X186690000Y-92710000D01*
X186690000Y-54610000D02*
X186690000Y-52842234D01*
X200893750Y-42143750D02*
X202088750Y-43338750D01*
%TO.N,col 2*%
X167640000Y-92710000D02*
X167640000Y-73660000D01*
X202553750Y-41743750D02*
X204628750Y-43818750D01*
X167640000Y-73660000D02*
X167640000Y-54610000D01*
X180506250Y-41743750D02*
X202553750Y-41743750D01*
X167640000Y-111760000D02*
X167640000Y-92710000D01*
X167640000Y-54610000D02*
X180506250Y-41743750D01*
%TO.N,col 1*%
X148590000Y-54790000D02*
X148600000Y-54800000D01*
X148590000Y-73660000D02*
X148590000Y-92710000D01*
X161856250Y-41343750D02*
X205173750Y-41343750D01*
X148590000Y-54810000D02*
X148590000Y-73660000D01*
X148590000Y-92710000D02*
X148590000Y-111760000D01*
X148590000Y-54610000D02*
X148590000Y-54790000D01*
X148590000Y-54610000D02*
X161856250Y-41343750D01*
X205173750Y-41343750D02*
X207168750Y-43338750D01*
X148600000Y-54800000D02*
X148590000Y-54810000D01*
%TO.N,gnd*%
X212248750Y-43338750D02*
X209391250Y-40481250D01*
X209391250Y-40481250D02*
X150018750Y-40481250D01*
%TO.N,vcc*%
X216088750Y-45032392D02*
X215627392Y-45493750D01*
X211424892Y-37941250D02*
X216088750Y-42605108D01*
X150018750Y-37941250D02*
X211424892Y-37941250D01*
X210732380Y-45493750D02*
X209708750Y-44470120D01*
X215627392Y-45493750D02*
X210732380Y-45493750D01*
X216088750Y-42605108D02*
X216088750Y-45032392D01*
X209708750Y-44470120D02*
X209708750Y-43338750D01*
%TD*%
M02*
