M48
; DRILL file {KiCad 8.0.3} date 2024-10-21T20:57:23+0200
; FORMAT={-:-/ absolute / inch / decimal}
; #@! TF.CreationDate,2024-10-21T20:57:23+02:00
; #@! TF.GenerationSoftware,Kicad,Pcbnew,8.0.3
; #@! TF.FileFunction,NonPlated,1,2,NPTH
FMAT,2
INCH
; #@! TA.AperFunction,NonPlated,NPTH,ComponentDrill
T1C0.0591
; #@! TA.AperFunction,NonPlated,NPTH,ComponentDrill
T2C0.0689
; #@! TA.AperFunction,NonPlated,NPTH,ComponentDrill
T3C0.1570
%
G90
G05
T2
X3.8312Y-4.6875
X4.2313Y-4.6875
X4.5812Y-4.6875
X4.9813Y-4.6875
X5.3312Y-4.6875
X5.7313Y-4.6875
X6.0812Y-4.6875
X6.4813Y-4.6875
T3
X4.0312Y-4.6875
X4.7812Y-4.6875
X5.5312Y-4.6875
X6.2812Y-4.6875
T1
G00X3.811Y-3.3012
M15
G01X3.811Y-3.3524
M16
G05
G00X4.252Y-3.3012
M15
G01X4.252Y-3.3524
M16
G05
G00X6.061Y-3.3012
M15
G01X6.061Y-3.3524
M16
G05
G00X6.502Y-3.3012
M15
G01X6.502Y-3.3524
M16
G05
M30
