%TF.GenerationSoftware,KiCad,Pcbnew,8.0.3*%
%TF.CreationDate,2024-10-21T20:57:23+02:00*%
%TF.ProjectId,trains_macropad,74726169-6e73-45f6-9d61-63726f706164,rev?*%
%TF.SameCoordinates,Original*%
%TF.FileFunction,Legend,Bot*%
%TF.FilePolarity,Positive*%
%FSLAX46Y46*%
G04 Gerber Fmt 4.6, Leading zero omitted, Abs format (unit mm)*
G04 Created by KiCad (PCBNEW 8.0.3) date 2024-10-21 20:57:23*
%MOMM*%
%LPD*%
G01*
G04 APERTURE LIST*
G04 Aperture macros list*
%AMRoundRect*
0 Rectangle with rounded corners*
0 $1 Rounding radius*
0 $2 $3 $4 $5 $6 $7 $8 $9 X,Y pos of 4 corners*
0 Add a 4 corners polygon primitive as box body*
4,1,4,$2,$3,$4,$5,$6,$7,$8,$9,$2,$3,0*
0 Add four circle primitives for the rounded corners*
1,1,$1+$1,$2,$3*
1,1,$1+$1,$4,$5*
1,1,$1+$1,$6,$7*
1,1,$1+$1,$8,$9*
0 Add four rect primitives between the rounded corners*
20,1,$1+$1,$2,$3,$4,$5,0*
20,1,$1+$1,$4,$5,$6,$7,0*
20,1,$1+$1,$6,$7,$8,$9,0*
20,1,$1+$1,$8,$9,$2,$3,0*%
G04 Aperture macros list end*
%ADD10C,0.010000*%
%ADD11C,0.000000*%
%ADD12C,0.100000*%
%ADD13C,0.800000*%
%ADD14C,6.400000*%
%ADD15C,1.524000*%
%ADD16R,1.600000X1.600000*%
%ADD17O,1.600000X1.600000*%
%ADD18O,2.000000X3.200000*%
%ADD19R,2.000000X2.000000*%
%ADD20C,2.000000*%
%ADD21R,2.550000X2.500000*%
%ADD22C,1.750000*%
%ADD23C,3.987800*%
%ADD24C,1.600000*%
%ADD25R,1.700000X1.700000*%
%ADD26O,1.700000X1.700000*%
%ADD27R,1.700000X0.820000*%
%ADD28RoundRect,0.205000X0.645000X0.205000X-0.645000X0.205000X-0.645000X-0.205000X0.645000X-0.205000X0*%
G04 APERTURE END LIST*
D10*
%TO.C,REF\u002A\u002A*%
X126955406Y-87974949D02*
X126981127Y-87990647D01*
X127007778Y-88012227D01*
X127007778Y-88659684D01*
X126981127Y-88681264D01*
X126949767Y-88698739D01*
X126913966Y-88699575D01*
X126882528Y-88679082D01*
X126878652Y-88674416D01*
X126873186Y-88664949D01*
X126868979Y-88651267D01*
X126865867Y-88630748D01*
X126863687Y-88600768D01*
X126862276Y-88558704D01*
X126861471Y-88501932D01*
X126861107Y-88427830D01*
X126861022Y-88333773D01*
X126861022Y-88012227D01*
X126887673Y-87990647D01*
X126911386Y-87975877D01*
X126934400Y-87969067D01*
X126955406Y-87974949D01*
G36*
X126955406Y-87974949D02*
G01*
X126981127Y-87990647D01*
X127007778Y-88012227D01*
X127007778Y-88659684D01*
X126981127Y-88681264D01*
X126949767Y-88698739D01*
X126913966Y-88699575D01*
X126882528Y-88679082D01*
X126878652Y-88674416D01*
X126873186Y-88664949D01*
X126868979Y-88651267D01*
X126865867Y-88630748D01*
X126863687Y-88600768D01*
X126862276Y-88558704D01*
X126861471Y-88501932D01*
X126861107Y-88427830D01*
X126861022Y-88333773D01*
X126861022Y-88012227D01*
X126887673Y-87990647D01*
X126911386Y-87975877D01*
X126934400Y-87969067D01*
X126955406Y-87974949D01*
G37*
X134086137Y-87973463D02*
X134120291Y-87996776D01*
X134148000Y-88024485D01*
X134148000Y-88337537D01*
X134147959Y-88421567D01*
X134147701Y-88495789D01*
X134147030Y-88552541D01*
X134145752Y-88594512D01*
X134143673Y-88624389D01*
X134140599Y-88644861D01*
X134136334Y-88658614D01*
X134130684Y-88668337D01*
X134123455Y-88676717D01*
X134091991Y-88698181D01*
X134056826Y-88699947D01*
X134023822Y-88680267D01*
X134018516Y-88674398D01*
X134013066Y-88665314D01*
X134008900Y-88651973D01*
X134005846Y-88631757D01*
X134003732Y-88602049D01*
X134002386Y-88560232D01*
X134001638Y-88503689D01*
X134001314Y-88429802D01*
X134001245Y-88335956D01*
X134001284Y-88260294D01*
X134001539Y-88182385D01*
X134002183Y-88122375D01*
X134003387Y-88077648D01*
X134005324Y-88045585D01*
X134008164Y-88023571D01*
X134012079Y-88008987D01*
X134017242Y-87999218D01*
X134023822Y-87991645D01*
X134053006Y-87972623D01*
X134086137Y-87973463D01*
G36*
X134086137Y-87973463D02*
G01*
X134120291Y-87996776D01*
X134148000Y-88024485D01*
X134148000Y-88337537D01*
X134147959Y-88421567D01*
X134147701Y-88495789D01*
X134147030Y-88552541D01*
X134145752Y-88594512D01*
X134143673Y-88624389D01*
X134140599Y-88644861D01*
X134136334Y-88658614D01*
X134130684Y-88668337D01*
X134123455Y-88676717D01*
X134091991Y-88698181D01*
X134056826Y-88699947D01*
X134023822Y-88680267D01*
X134018516Y-88674398D01*
X134013066Y-88665314D01*
X134008900Y-88651973D01*
X134005846Y-88631757D01*
X134003732Y-88602049D01*
X134002386Y-88560232D01*
X134001638Y-88503689D01*
X134001314Y-88429802D01*
X134001245Y-88335956D01*
X134001284Y-88260294D01*
X134001539Y-88182385D01*
X134002183Y-88122375D01*
X134003387Y-88077648D01*
X134005324Y-88045585D01*
X134008164Y-88023571D01*
X134012079Y-88008987D01*
X134017242Y-87999218D01*
X134023822Y-87991645D01*
X134053006Y-87972623D01*
X134086137Y-87973463D01*
G37*
X133554562Y-82732850D02*
X133637313Y-82760053D01*
X133712406Y-82805484D01*
X133784298Y-82871302D01*
X133822846Y-82915567D01*
X133862256Y-82973961D01*
X133887446Y-83034586D01*
X133900861Y-83103865D01*
X133904948Y-83188222D01*
X133904669Y-83234307D01*
X133902460Y-83275450D01*
X133896894Y-83307582D01*
X133886586Y-83338122D01*
X133870148Y-83374489D01*
X133856200Y-83401728D01*
X133797665Y-83487429D01*
X133725619Y-83556617D01*
X133641947Y-83607741D01*
X133548531Y-83639250D01*
X133515434Y-83646225D01*
X133474960Y-83653094D01*
X133441999Y-83654919D01*
X133407698Y-83651947D01*
X133363200Y-83644426D01*
X133311934Y-83632002D01*
X133221434Y-83594112D01*
X133142345Y-83539836D01*
X133076528Y-83471770D01*
X133025840Y-83392511D01*
X132992140Y-83304654D01*
X132977286Y-83210795D01*
X132983136Y-83113530D01*
X133009399Y-83017220D01*
X133054418Y-82928494D01*
X133115373Y-82853419D01*
X133190184Y-82793641D01*
X133276768Y-82750809D01*
X133373043Y-82726571D01*
X133476928Y-82722576D01*
X133554562Y-82732850D01*
G36*
X133554562Y-82732850D02*
G01*
X133637313Y-82760053D01*
X133712406Y-82805484D01*
X133784298Y-82871302D01*
X133822846Y-82915567D01*
X133862256Y-82973961D01*
X133887446Y-83034586D01*
X133900861Y-83103865D01*
X133904948Y-83188222D01*
X133904669Y-83234307D01*
X133902460Y-83275450D01*
X133896894Y-83307582D01*
X133886586Y-83338122D01*
X133870148Y-83374489D01*
X133856200Y-83401728D01*
X133797665Y-83487429D01*
X133725619Y-83556617D01*
X133641947Y-83607741D01*
X133548531Y-83639250D01*
X133515434Y-83646225D01*
X133474960Y-83653094D01*
X133441999Y-83654919D01*
X133407698Y-83651947D01*
X133363200Y-83644426D01*
X133311934Y-83632002D01*
X133221434Y-83594112D01*
X133142345Y-83539836D01*
X133076528Y-83471770D01*
X133025840Y-83392511D01*
X132992140Y-83304654D01*
X132977286Y-83210795D01*
X132983136Y-83113530D01*
X133009399Y-83017220D01*
X133054418Y-82928494D01*
X133115373Y-82853419D01*
X133190184Y-82793641D01*
X133276768Y-82750809D01*
X133373043Y-82726571D01*
X133476928Y-82722576D01*
X133554562Y-82732850D01*
G37*
X126255767Y-87969068D02*
X126349890Y-87969158D01*
X126424405Y-87969498D01*
X126481811Y-87970239D01*
X126524611Y-87971535D01*
X126555304Y-87973537D01*
X126576391Y-87976396D01*
X126590373Y-87980266D01*
X126599750Y-87985298D01*
X126607022Y-87991645D01*
X126625828Y-88024362D01*
X126627275Y-88061939D01*
X126610917Y-88095178D01*
X126609557Y-88096631D01*
X126598354Y-88104992D01*
X126581252Y-88110547D01*
X126554082Y-88113840D01*
X126512678Y-88115418D01*
X126452873Y-88115822D01*
X126313511Y-88115822D01*
X126313511Y-88379589D01*
X126313436Y-88455417D01*
X126313028Y-88522083D01*
X126312046Y-88571867D01*
X126310250Y-88607784D01*
X126307399Y-88632850D01*
X126303253Y-88650081D01*
X126297571Y-88662492D01*
X126290114Y-88673100D01*
X126287824Y-88675906D01*
X126256646Y-88698548D01*
X126222266Y-88700112D01*
X126189334Y-88680267D01*
X126182355Y-88672191D01*
X126176883Y-88661593D01*
X126172863Y-88645749D01*
X126170072Y-88621773D01*
X126168288Y-88586774D01*
X126167289Y-88537864D01*
X126166852Y-88472154D01*
X126166756Y-88386756D01*
X126166756Y-88115822D01*
X126020820Y-88115822D01*
X126009720Y-88115821D01*
X125953202Y-88115596D01*
X125914358Y-88114457D01*
X125888965Y-88111657D01*
X125872804Y-88106450D01*
X125861652Y-88098089D01*
X125851289Y-88085826D01*
X125835441Y-88055138D01*
X125838543Y-88021358D01*
X125864187Y-87988822D01*
X125869129Y-87985105D01*
X125879338Y-87980269D01*
X125894764Y-87976506D01*
X125917886Y-87973683D01*
X125951183Y-87971670D01*
X125997137Y-87970333D01*
X126058228Y-87969542D01*
X126136935Y-87969163D01*
X126235740Y-87969067D01*
X126255767Y-87969068D01*
G36*
X126255767Y-87969068D02*
G01*
X126349890Y-87969158D01*
X126424405Y-87969498D01*
X126481811Y-87970239D01*
X126524611Y-87971535D01*
X126555304Y-87973537D01*
X126576391Y-87976396D01*
X126590373Y-87980266D01*
X126599750Y-87985298D01*
X126607022Y-87991645D01*
X126625828Y-88024362D01*
X126627275Y-88061939D01*
X126610917Y-88095178D01*
X126609557Y-88096631D01*
X126598354Y-88104992D01*
X126581252Y-88110547D01*
X126554082Y-88113840D01*
X126512678Y-88115418D01*
X126452873Y-88115822D01*
X126313511Y-88115822D01*
X126313511Y-88379589D01*
X126313436Y-88455417D01*
X126313028Y-88522083D01*
X126312046Y-88571867D01*
X126310250Y-88607784D01*
X126307399Y-88632850D01*
X126303253Y-88650081D01*
X126297571Y-88662492D01*
X126290114Y-88673100D01*
X126287824Y-88675906D01*
X126256646Y-88698548D01*
X126222266Y-88700112D01*
X126189334Y-88680267D01*
X126182355Y-88672191D01*
X126176883Y-88661593D01*
X126172863Y-88645749D01*
X126170072Y-88621773D01*
X126168288Y-88586774D01*
X126167289Y-88537864D01*
X126166852Y-88472154D01*
X126166756Y-88386756D01*
X126166756Y-88115822D01*
X126020820Y-88115822D01*
X126009720Y-88115821D01*
X125953202Y-88115596D01*
X125914358Y-88114457D01*
X125888965Y-88111657D01*
X125872804Y-88106450D01*
X125861652Y-88098089D01*
X125851289Y-88085826D01*
X125835441Y-88055138D01*
X125838543Y-88021358D01*
X125864187Y-87988822D01*
X125869129Y-87985105D01*
X125879338Y-87980269D01*
X125894764Y-87976506D01*
X125917886Y-87973683D01*
X125951183Y-87971670D01*
X125997137Y-87970333D01*
X126058228Y-87969542D01*
X126136935Y-87969163D01*
X126235740Y-87969067D01*
X126255767Y-87969068D01*
G37*
X125579734Y-87991645D02*
X125585366Y-87997835D01*
X125590456Y-88006041D01*
X125594543Y-88017817D01*
X125597721Y-88035276D01*
X125600087Y-88060530D01*
X125601738Y-88095690D01*
X125602769Y-88142869D01*
X125603277Y-88204177D01*
X125603359Y-88281727D01*
X125603109Y-88377631D01*
X125602625Y-88494000D01*
X125602557Y-88508175D01*
X125601971Y-88569937D01*
X125600648Y-88613620D01*
X125598103Y-88643001D01*
X125593848Y-88661855D01*
X125587396Y-88673959D01*
X125578262Y-88683089D01*
X125544804Y-88700506D01*
X125509856Y-88697604D01*
X125478953Y-88673100D01*
X125469944Y-88659897D01*
X125462492Y-88641361D01*
X125458124Y-88615333D01*
X125456069Y-88576787D01*
X125455556Y-88520700D01*
X125455556Y-88398045D01*
X124958845Y-88398045D01*
X124958845Y-88532871D01*
X124958772Y-88568662D01*
X124958009Y-88614992D01*
X124955833Y-88645526D01*
X124951536Y-88664557D01*
X124944412Y-88676374D01*
X124933755Y-88685271D01*
X124901504Y-88700341D01*
X124866217Y-88697673D01*
X124835486Y-88673100D01*
X124830831Y-88666845D01*
X124824895Y-88656321D01*
X124820364Y-88642391D01*
X124817048Y-88622317D01*
X124814759Y-88593360D01*
X124813308Y-88552780D01*
X124812505Y-88497840D01*
X124812162Y-88425799D01*
X124812089Y-88333920D01*
X124812089Y-88024485D01*
X124839798Y-87996776D01*
X124871177Y-87974533D01*
X124904406Y-87971844D01*
X124936267Y-87991645D01*
X124944553Y-88001415D01*
X124951965Y-88017307D01*
X124956302Y-88041275D01*
X124958338Y-88078148D01*
X124958845Y-88132756D01*
X124958845Y-88251289D01*
X125455556Y-88251289D01*
X125455556Y-88135776D01*
X125455994Y-88084078D01*
X125457958Y-88049554D01*
X125462474Y-88026978D01*
X125470567Y-88011126D01*
X125483265Y-87996776D01*
X125514643Y-87974533D01*
X125547872Y-87971844D01*
X125579734Y-87991645D01*
G36*
X125579734Y-87991645D02*
G01*
X125585366Y-87997835D01*
X125590456Y-88006041D01*
X125594543Y-88017817D01*
X125597721Y-88035276D01*
X125600087Y-88060530D01*
X125601738Y-88095690D01*
X125602769Y-88142869D01*
X125603277Y-88204177D01*
X125603359Y-88281727D01*
X125603109Y-88377631D01*
X125602625Y-88494000D01*
X125602557Y-88508175D01*
X125601971Y-88569937D01*
X125600648Y-88613620D01*
X125598103Y-88643001D01*
X125593848Y-88661855D01*
X125587396Y-88673959D01*
X125578262Y-88683089D01*
X125544804Y-88700506D01*
X125509856Y-88697604D01*
X125478953Y-88673100D01*
X125469944Y-88659897D01*
X125462492Y-88641361D01*
X125458124Y-88615333D01*
X125456069Y-88576787D01*
X125455556Y-88520700D01*
X125455556Y-88398045D01*
X124958845Y-88398045D01*
X124958845Y-88532871D01*
X124958772Y-88568662D01*
X124958009Y-88614992D01*
X124955833Y-88645526D01*
X124951536Y-88664557D01*
X124944412Y-88676374D01*
X124933755Y-88685271D01*
X124901504Y-88700341D01*
X124866217Y-88697673D01*
X124835486Y-88673100D01*
X124830831Y-88666845D01*
X124824895Y-88656321D01*
X124820364Y-88642391D01*
X124817048Y-88622317D01*
X124814759Y-88593360D01*
X124813308Y-88552780D01*
X124812505Y-88497840D01*
X124812162Y-88425799D01*
X124812089Y-88333920D01*
X124812089Y-88024485D01*
X124839798Y-87996776D01*
X124871177Y-87974533D01*
X124904406Y-87971844D01*
X124936267Y-87991645D01*
X124944553Y-88001415D01*
X124951965Y-88017307D01*
X124956302Y-88041275D01*
X124958338Y-88078148D01*
X124958845Y-88132756D01*
X124958845Y-88251289D01*
X125455556Y-88251289D01*
X125455556Y-88135776D01*
X125455994Y-88084078D01*
X125457958Y-88049554D01*
X125462474Y-88026978D01*
X125470567Y-88011126D01*
X125483265Y-87996776D01*
X125514643Y-87974533D01*
X125547872Y-87971844D01*
X125579734Y-87991645D01*
G37*
X130285133Y-88580396D02*
X130283163Y-88613175D01*
X130280235Y-88636095D01*
X130276158Y-88651897D01*
X130270743Y-88663319D01*
X130263803Y-88673100D01*
X130240406Y-88702845D01*
X130074714Y-88702251D01*
X130039918Y-88701953D01*
X129941435Y-88698522D01*
X129860473Y-88690839D01*
X129793379Y-88678282D01*
X129736496Y-88660227D01*
X129686169Y-88636052D01*
X129682810Y-88634135D01*
X129624998Y-88597417D01*
X129582644Y-88560451D01*
X129549828Y-88516966D01*
X129520628Y-88460689D01*
X129516346Y-88451073D01*
X129493769Y-88387887D01*
X129488034Y-88342333D01*
X129637279Y-88342333D01*
X129642892Y-88367061D01*
X129648618Y-88382939D01*
X129681548Y-88442847D01*
X129728886Y-88488600D01*
X129792652Y-88521736D01*
X129874861Y-88543790D01*
X129877655Y-88544292D01*
X129923940Y-88550255D01*
X129980336Y-88554483D01*
X130035274Y-88556089D01*
X130129156Y-88556089D01*
X130129156Y-88115822D01*
X130041667Y-88116270D01*
X129974747Y-88118746D01*
X129882349Y-88129998D01*
X129803034Y-88149537D01*
X129741060Y-88176511D01*
X129710120Y-88197240D01*
X129682000Y-88227006D01*
X129658660Y-88269434D01*
X129651533Y-88285400D01*
X129639709Y-88317902D01*
X129637279Y-88342333D01*
X129488034Y-88342333D01*
X129486797Y-88332509D01*
X129495399Y-88277483D01*
X129519541Y-88215351D01*
X129520337Y-88213658D01*
X129560788Y-88144236D01*
X129611473Y-88087638D01*
X129674198Y-88043070D01*
X129750774Y-88009741D01*
X129843009Y-87986861D01*
X129952712Y-87973636D01*
X130081691Y-87969275D01*
X130085263Y-87969270D01*
X130145283Y-87969410D01*
X130187214Y-87970446D01*
X130215328Y-87973040D01*
X130233897Y-87977853D01*
X130247194Y-87985544D01*
X130259491Y-87996776D01*
X130287200Y-88024485D01*
X130287200Y-88333920D01*
X130287175Y-88395526D01*
X130286950Y-88474311D01*
X130286332Y-88535021D01*
X130285775Y-88556089D01*
X130285133Y-88580396D01*
G36*
X130285133Y-88580396D02*
G01*
X130283163Y-88613175D01*
X130280235Y-88636095D01*
X130276158Y-88651897D01*
X130270743Y-88663319D01*
X130263803Y-88673100D01*
X130240406Y-88702845D01*
X130074714Y-88702251D01*
X130039918Y-88701953D01*
X129941435Y-88698522D01*
X129860473Y-88690839D01*
X129793379Y-88678282D01*
X129736496Y-88660227D01*
X129686169Y-88636052D01*
X129682810Y-88634135D01*
X129624998Y-88597417D01*
X129582644Y-88560451D01*
X129549828Y-88516966D01*
X129520628Y-88460689D01*
X129516346Y-88451073D01*
X129493769Y-88387887D01*
X129488034Y-88342333D01*
X129637279Y-88342333D01*
X129642892Y-88367061D01*
X129648618Y-88382939D01*
X129681548Y-88442847D01*
X129728886Y-88488600D01*
X129792652Y-88521736D01*
X129874861Y-88543790D01*
X129877655Y-88544292D01*
X129923940Y-88550255D01*
X129980336Y-88554483D01*
X130035274Y-88556089D01*
X130129156Y-88556089D01*
X130129156Y-88115822D01*
X130041667Y-88116270D01*
X129974747Y-88118746D01*
X129882349Y-88129998D01*
X129803034Y-88149537D01*
X129741060Y-88176511D01*
X129710120Y-88197240D01*
X129682000Y-88227006D01*
X129658660Y-88269434D01*
X129651533Y-88285400D01*
X129639709Y-88317902D01*
X129637279Y-88342333D01*
X129488034Y-88342333D01*
X129486797Y-88332509D01*
X129495399Y-88277483D01*
X129519541Y-88215351D01*
X129520337Y-88213658D01*
X129560788Y-88144236D01*
X129611473Y-88087638D01*
X129674198Y-88043070D01*
X129750774Y-88009741D01*
X129843009Y-87986861D01*
X129952712Y-87973636D01*
X130081691Y-87969275D01*
X130085263Y-87969270D01*
X130145283Y-87969410D01*
X130187214Y-87970446D01*
X130215328Y-87973040D01*
X130233897Y-87977853D01*
X130247194Y-87985544D01*
X130259491Y-87996776D01*
X130287200Y-88024485D01*
X130287200Y-88333920D01*
X130287175Y-88395526D01*
X130286950Y-88474311D01*
X130286332Y-88535021D01*
X130285775Y-88556089D01*
X130285133Y-88580396D01*
G37*
X137376817Y-88154427D02*
X137376870Y-88235041D01*
X137376622Y-88335956D01*
X137376583Y-88411617D01*
X137376328Y-88489526D01*
X137375684Y-88549536D01*
X137374480Y-88594264D01*
X137372543Y-88626326D01*
X137369703Y-88648340D01*
X137365788Y-88662924D01*
X137360626Y-88672694D01*
X137354045Y-88680267D01*
X137347077Y-88686501D01*
X137334079Y-88693801D01*
X137314931Y-88698554D01*
X137285528Y-88701292D01*
X137241762Y-88702545D01*
X137179528Y-88702845D01*
X137130582Y-88702469D01*
X137023722Y-88698041D01*
X136934494Y-88687953D01*
X136859696Y-88671365D01*
X136796125Y-88647435D01*
X136740579Y-88615321D01*
X136689854Y-88574182D01*
X136683866Y-88568330D01*
X136646999Y-88519821D01*
X136615899Y-88459013D01*
X136594417Y-88394769D01*
X136589136Y-88356026D01*
X136736353Y-88356026D01*
X136754635Y-88406961D01*
X136784305Y-88452878D01*
X136831002Y-88495287D01*
X136892392Y-88525090D01*
X136971538Y-88544226D01*
X136973028Y-88544464D01*
X137021999Y-88550256D01*
X137080693Y-88554396D01*
X137136734Y-88556004D01*
X137229867Y-88556089D01*
X137229867Y-88115822D01*
X137153667Y-88115808D01*
X137150639Y-88115817D01*
X137099519Y-88117782D01*
X137039416Y-88122507D01*
X136982708Y-88129035D01*
X136932750Y-88138331D01*
X136857998Y-88164600D01*
X136800489Y-88203899D01*
X136758988Y-88256933D01*
X136737771Y-88308200D01*
X136736353Y-88356026D01*
X136589136Y-88356026D01*
X136586400Y-88335956D01*
X136587679Y-88314739D01*
X136599991Y-88257323D01*
X136622520Y-88197413D01*
X136651750Y-88143363D01*
X136684167Y-88103532D01*
X136703708Y-88086510D01*
X136758420Y-88047322D01*
X136818723Y-88017193D01*
X136887919Y-87995232D01*
X136969311Y-87980550D01*
X137066200Y-87972259D01*
X137181889Y-87969467D01*
X137221371Y-87969066D01*
X137267082Y-87968653D01*
X137302883Y-87970457D01*
X137329974Y-87976739D01*
X137349556Y-87989759D01*
X137362830Y-88011778D01*
X137370998Y-88045055D01*
X137375260Y-88091851D01*
X137375857Y-88115822D01*
X137376817Y-88154427D01*
G36*
X137376817Y-88154427D02*
G01*
X137376870Y-88235041D01*
X137376622Y-88335956D01*
X137376583Y-88411617D01*
X137376328Y-88489526D01*
X137375684Y-88549536D01*
X137374480Y-88594264D01*
X137372543Y-88626326D01*
X137369703Y-88648340D01*
X137365788Y-88662924D01*
X137360626Y-88672694D01*
X137354045Y-88680267D01*
X137347077Y-88686501D01*
X137334079Y-88693801D01*
X137314931Y-88698554D01*
X137285528Y-88701292D01*
X137241762Y-88702545D01*
X137179528Y-88702845D01*
X137130582Y-88702469D01*
X137023722Y-88698041D01*
X136934494Y-88687953D01*
X136859696Y-88671365D01*
X136796125Y-88647435D01*
X136740579Y-88615321D01*
X136689854Y-88574182D01*
X136683866Y-88568330D01*
X136646999Y-88519821D01*
X136615899Y-88459013D01*
X136594417Y-88394769D01*
X136589136Y-88356026D01*
X136736353Y-88356026D01*
X136754635Y-88406961D01*
X136784305Y-88452878D01*
X136831002Y-88495287D01*
X136892392Y-88525090D01*
X136971538Y-88544226D01*
X136973028Y-88544464D01*
X137021999Y-88550256D01*
X137080693Y-88554396D01*
X137136734Y-88556004D01*
X137229867Y-88556089D01*
X137229867Y-88115822D01*
X137153667Y-88115808D01*
X137150639Y-88115817D01*
X137099519Y-88117782D01*
X137039416Y-88122507D01*
X136982708Y-88129035D01*
X136932750Y-88138331D01*
X136857998Y-88164600D01*
X136800489Y-88203899D01*
X136758988Y-88256933D01*
X136737771Y-88308200D01*
X136736353Y-88356026D01*
X136589136Y-88356026D01*
X136586400Y-88335956D01*
X136587679Y-88314739D01*
X136599991Y-88257323D01*
X136622520Y-88197413D01*
X136651750Y-88143363D01*
X136684167Y-88103532D01*
X136703708Y-88086510D01*
X136758420Y-88047322D01*
X136818723Y-88017193D01*
X136887919Y-87995232D01*
X136969311Y-87980550D01*
X137066200Y-87972259D01*
X137181889Y-87969467D01*
X137221371Y-87969066D01*
X137267082Y-87968653D01*
X137302883Y-87970457D01*
X137329974Y-87976739D01*
X137349556Y-87989759D01*
X137362830Y-88011778D01*
X137370998Y-88045055D01*
X137375260Y-88091851D01*
X137375857Y-88115822D01*
X137376817Y-88154427D01*
G37*
X132431893Y-87967892D02*
X132443301Y-87974029D01*
X132453850Y-87984691D01*
X132465136Y-87998811D01*
X132469589Y-88004772D01*
X132475588Y-88015268D01*
X132480167Y-88029093D01*
X132483519Y-88048998D01*
X132485833Y-88077732D01*
X132487301Y-88118045D01*
X132488113Y-88172687D01*
X132488460Y-88244407D01*
X132488534Y-88335956D01*
X132488511Y-88394486D01*
X132488292Y-88473573D01*
X132487683Y-88534516D01*
X132486492Y-88580062D01*
X132484529Y-88612963D01*
X132481603Y-88635968D01*
X132477523Y-88651826D01*
X132472097Y-88663286D01*
X132465136Y-88673100D01*
X132434708Y-88697493D01*
X132399765Y-88700372D01*
X132362784Y-88681282D01*
X132358600Y-88677807D01*
X132350424Y-88669279D01*
X132344364Y-88657728D01*
X132339981Y-88639896D01*
X132336839Y-88612524D01*
X132334502Y-88572354D01*
X132332531Y-88516128D01*
X132330489Y-88440589D01*
X132324845Y-88221458D01*
X132059556Y-88462099D01*
X131985722Y-88528875D01*
X131920542Y-88586991D01*
X131868348Y-88631949D01*
X131827273Y-88664871D01*
X131795455Y-88686879D01*
X131771026Y-88699094D01*
X131752124Y-88702639D01*
X131736883Y-88698636D01*
X131723439Y-88688207D01*
X131709927Y-88672474D01*
X131703682Y-88663991D01*
X131698050Y-88653413D01*
X131693839Y-88639255D01*
X131690887Y-88618803D01*
X131689032Y-88589342D01*
X131688113Y-88548161D01*
X131687968Y-88492544D01*
X131688435Y-88419779D01*
X131689352Y-88327151D01*
X131692667Y-88012199D01*
X131719318Y-87990633D01*
X131745383Y-87974441D01*
X131778241Y-87971670D01*
X131812772Y-87990623D01*
X131817084Y-87994208D01*
X131825216Y-88002737D01*
X131831245Y-88014329D01*
X131835606Y-88032235D01*
X131838734Y-88059706D01*
X131841063Y-88099994D01*
X131843029Y-88156351D01*
X131845067Y-88232029D01*
X131850711Y-88451878D01*
X132031334Y-88288084D01*
X132118072Y-88209451D01*
X132193843Y-88141058D01*
X132255980Y-88085708D01*
X132306078Y-88042338D01*
X132345735Y-88009881D01*
X132376548Y-87987273D01*
X132400114Y-87973448D01*
X132418030Y-87967343D01*
X132431893Y-87967892D01*
G36*
X132431893Y-87967892D02*
G01*
X132443301Y-87974029D01*
X132453850Y-87984691D01*
X132465136Y-87998811D01*
X132469589Y-88004772D01*
X132475588Y-88015268D01*
X132480167Y-88029093D01*
X132483519Y-88048998D01*
X132485833Y-88077732D01*
X132487301Y-88118045D01*
X132488113Y-88172687D01*
X132488460Y-88244407D01*
X132488534Y-88335956D01*
X132488511Y-88394486D01*
X132488292Y-88473573D01*
X132487683Y-88534516D01*
X132486492Y-88580062D01*
X132484529Y-88612963D01*
X132481603Y-88635968D01*
X132477523Y-88651826D01*
X132472097Y-88663286D01*
X132465136Y-88673100D01*
X132434708Y-88697493D01*
X132399765Y-88700372D01*
X132362784Y-88681282D01*
X132358600Y-88677807D01*
X132350424Y-88669279D01*
X132344364Y-88657728D01*
X132339981Y-88639896D01*
X132336839Y-88612524D01*
X132334502Y-88572354D01*
X132332531Y-88516128D01*
X132330489Y-88440589D01*
X132324845Y-88221458D01*
X132059556Y-88462099D01*
X131985722Y-88528875D01*
X131920542Y-88586991D01*
X131868348Y-88631949D01*
X131827273Y-88664871D01*
X131795455Y-88686879D01*
X131771026Y-88699094D01*
X131752124Y-88702639D01*
X131736883Y-88698636D01*
X131723439Y-88688207D01*
X131709927Y-88672474D01*
X131703682Y-88663991D01*
X131698050Y-88653413D01*
X131693839Y-88639255D01*
X131690887Y-88618803D01*
X131689032Y-88589342D01*
X131688113Y-88548161D01*
X131687968Y-88492544D01*
X131688435Y-88419779D01*
X131689352Y-88327151D01*
X131692667Y-88012199D01*
X131719318Y-87990633D01*
X131745383Y-87974441D01*
X131778241Y-87971670D01*
X131812772Y-87990623D01*
X131817084Y-87994208D01*
X131825216Y-88002737D01*
X131831245Y-88014329D01*
X131835606Y-88032235D01*
X131838734Y-88059706D01*
X131841063Y-88099994D01*
X131843029Y-88156351D01*
X131845067Y-88232029D01*
X131850711Y-88451878D01*
X132031334Y-88288084D01*
X132118072Y-88209451D01*
X132193843Y-88141058D01*
X132255980Y-88085708D01*
X132306078Y-88042338D01*
X132345735Y-88009881D01*
X132376548Y-87987273D01*
X132400114Y-87973448D01*
X132418030Y-87967343D01*
X132431893Y-87967892D01*
G37*
X133229150Y-87974179D02*
X133335157Y-87990494D01*
X133428969Y-88018545D01*
X133507765Y-88057452D01*
X133568719Y-88106334D01*
X133594789Y-88139195D01*
X133624297Y-88188394D01*
X133649568Y-88242252D01*
X133667218Y-88293419D01*
X133673858Y-88334544D01*
X133672298Y-88354259D01*
X133659357Y-88405592D01*
X133636194Y-88462118D01*
X133606302Y-88516035D01*
X133573173Y-88559539D01*
X133562977Y-88569887D01*
X133495892Y-88621662D01*
X133415766Y-88661554D01*
X133329556Y-88685956D01*
X133274592Y-88694068D01*
X133181139Y-88700673D01*
X133091358Y-88698586D01*
X133008869Y-88688340D01*
X132937286Y-88670470D01*
X132880228Y-88645508D01*
X132841311Y-88613988D01*
X132839936Y-88612012D01*
X132832848Y-88586786D01*
X132828609Y-88539535D01*
X132827200Y-88470071D01*
X132828060Y-88407838D01*
X132832780Y-88360456D01*
X132844470Y-88328353D01*
X132866239Y-88308800D01*
X132901198Y-88299070D01*
X132952456Y-88296433D01*
X133023123Y-88298161D01*
X133071743Y-88301173D01*
X133121939Y-88309366D01*
X133154433Y-88323419D01*
X133171892Y-88344654D01*
X133176983Y-88374394D01*
X133176877Y-88378936D01*
X133168175Y-88413730D01*
X133144165Y-88437147D01*
X133102900Y-88450347D01*
X133042431Y-88454489D01*
X132973956Y-88454489D01*
X132973956Y-88492841D01*
X132974006Y-88501976D01*
X132976227Y-88519227D01*
X132985494Y-88529521D01*
X133006875Y-88536459D01*
X133045436Y-88543641D01*
X133050910Y-88544575D01*
X133147860Y-88554478D01*
X133237852Y-88551559D01*
X133318760Y-88536829D01*
X133388459Y-88511299D01*
X133444824Y-88475978D01*
X133485729Y-88431879D01*
X133509051Y-88380012D01*
X133512663Y-88321388D01*
X133507145Y-88292494D01*
X133480461Y-88236604D01*
X133434273Y-88190945D01*
X133369291Y-88156108D01*
X133286229Y-88132690D01*
X133261555Y-88128241D01*
X133172226Y-88117742D01*
X133092419Y-88118971D01*
X133014326Y-88131906D01*
X132979183Y-88138696D01*
X132933745Y-88139713D01*
X132902430Y-88127182D01*
X132882277Y-88100395D01*
X132875893Y-88072148D01*
X132885379Y-88040924D01*
X132894708Y-88027499D01*
X132928943Y-88003967D01*
X132981565Y-87986095D01*
X133050081Y-87974599D01*
X133132000Y-87970192D01*
X133229150Y-87974179D01*
G36*
X133229150Y-87974179D02*
G01*
X133335157Y-87990494D01*
X133428969Y-88018545D01*
X133507765Y-88057452D01*
X133568719Y-88106334D01*
X133594789Y-88139195D01*
X133624297Y-88188394D01*
X133649568Y-88242252D01*
X133667218Y-88293419D01*
X133673858Y-88334544D01*
X133672298Y-88354259D01*
X133659357Y-88405592D01*
X133636194Y-88462118D01*
X133606302Y-88516035D01*
X133573173Y-88559539D01*
X133562977Y-88569887D01*
X133495892Y-88621662D01*
X133415766Y-88661554D01*
X133329556Y-88685956D01*
X133274592Y-88694068D01*
X133181139Y-88700673D01*
X133091358Y-88698586D01*
X133008869Y-88688340D01*
X132937286Y-88670470D01*
X132880228Y-88645508D01*
X132841311Y-88613988D01*
X132839936Y-88612012D01*
X132832848Y-88586786D01*
X132828609Y-88539535D01*
X132827200Y-88470071D01*
X132828060Y-88407838D01*
X132832780Y-88360456D01*
X132844470Y-88328353D01*
X132866239Y-88308800D01*
X132901198Y-88299070D01*
X132952456Y-88296433D01*
X133023123Y-88298161D01*
X133071743Y-88301173D01*
X133121939Y-88309366D01*
X133154433Y-88323419D01*
X133171892Y-88344654D01*
X133176983Y-88374394D01*
X133176877Y-88378936D01*
X133168175Y-88413730D01*
X133144165Y-88437147D01*
X133102900Y-88450347D01*
X133042431Y-88454489D01*
X132973956Y-88454489D01*
X132973956Y-88492841D01*
X132974006Y-88501976D01*
X132976227Y-88519227D01*
X132985494Y-88529521D01*
X133006875Y-88536459D01*
X133045436Y-88543641D01*
X133050910Y-88544575D01*
X133147860Y-88554478D01*
X133237852Y-88551559D01*
X133318760Y-88536829D01*
X133388459Y-88511299D01*
X133444824Y-88475978D01*
X133485729Y-88431879D01*
X133509051Y-88380012D01*
X133512663Y-88321388D01*
X133507145Y-88292494D01*
X133480461Y-88236604D01*
X133434273Y-88190945D01*
X133369291Y-88156108D01*
X133286229Y-88132690D01*
X133261555Y-88128241D01*
X133172226Y-88117742D01*
X133092419Y-88118971D01*
X133014326Y-88131906D01*
X132979183Y-88138696D01*
X132933745Y-88139713D01*
X132902430Y-88127182D01*
X132882277Y-88100395D01*
X132875893Y-88072148D01*
X132885379Y-88040924D01*
X132894708Y-88027499D01*
X132928943Y-88003967D01*
X132981565Y-87986095D01*
X133050081Y-87974599D01*
X133132000Y-87970192D01*
X133229150Y-87974179D01*
G37*
X131279803Y-87998811D02*
X131284752Y-88005495D01*
X131290596Y-88016066D01*
X131295057Y-88030153D01*
X131298321Y-88050478D01*
X131300574Y-88079765D01*
X131302002Y-88120737D01*
X131302792Y-88176117D01*
X131303129Y-88248628D01*
X131303200Y-88340994D01*
X131303171Y-88406911D01*
X131302939Y-88485228D01*
X131302319Y-88545496D01*
X131301126Y-88590393D01*
X131299179Y-88622602D01*
X131296294Y-88644800D01*
X131292288Y-88659669D01*
X131286979Y-88669889D01*
X131280183Y-88678138D01*
X131275668Y-88682795D01*
X131267438Y-88689282D01*
X131256078Y-88694194D01*
X131238810Y-88697749D01*
X131212855Y-88700167D01*
X131175436Y-88701667D01*
X131123773Y-88702467D01*
X131055089Y-88702787D01*
X130966606Y-88702845D01*
X130946931Y-88702838D01*
X130859906Y-88702572D01*
X130792254Y-88701806D01*
X130741299Y-88700392D01*
X130704367Y-88698180D01*
X130678783Y-88695022D01*
X130661871Y-88690769D01*
X130650957Y-88685271D01*
X130640464Y-88675285D01*
X130627203Y-88644168D01*
X130628386Y-88608280D01*
X130644550Y-88576733D01*
X130646739Y-88574457D01*
X130655427Y-88568189D01*
X130668769Y-88563523D01*
X130689752Y-88560227D01*
X130721363Y-88558068D01*
X130766590Y-88556814D01*
X130828420Y-88556231D01*
X130909839Y-88556089D01*
X131156445Y-88556089D01*
X131156445Y-88398045D01*
X130994006Y-88398045D01*
X130958338Y-88397964D01*
X130902568Y-88397167D01*
X130863430Y-88395162D01*
X130836976Y-88391521D01*
X130819259Y-88385812D01*
X130806329Y-88377607D01*
X130802686Y-88374423D01*
X130784278Y-88343448D01*
X130783644Y-88307112D01*
X130801183Y-88273493D01*
X130801245Y-88273424D01*
X130810916Y-88264798D01*
X130824209Y-88258742D01*
X130844917Y-88254811D01*
X130876828Y-88252556D01*
X130923734Y-88251531D01*
X130989424Y-88251289D01*
X131157571Y-88251289D01*
X131154186Y-88186378D01*
X131150800Y-88121467D01*
X130908723Y-88118414D01*
X130883707Y-88118086D01*
X130802087Y-88116606D01*
X130739768Y-88114222D01*
X130694154Y-88110227D01*
X130662652Y-88103913D01*
X130642667Y-88094574D01*
X130631604Y-88081503D01*
X130626869Y-88063992D01*
X130625867Y-88041335D01*
X130625873Y-88038970D01*
X130627027Y-88018939D01*
X130631824Y-88003146D01*
X130642632Y-87991090D01*
X130661817Y-87982267D01*
X130691745Y-87976175D01*
X130734783Y-87972311D01*
X130793299Y-87970174D01*
X130869657Y-87969260D01*
X130966226Y-87969067D01*
X131256406Y-87969067D01*
X131279803Y-87998811D01*
G36*
X131279803Y-87998811D02*
G01*
X131284752Y-88005495D01*
X131290596Y-88016066D01*
X131295057Y-88030153D01*
X131298321Y-88050478D01*
X131300574Y-88079765D01*
X131302002Y-88120737D01*
X131302792Y-88176117D01*
X131303129Y-88248628D01*
X131303200Y-88340994D01*
X131303171Y-88406911D01*
X131302939Y-88485228D01*
X131302319Y-88545496D01*
X131301126Y-88590393D01*
X131299179Y-88622602D01*
X131296294Y-88644800D01*
X131292288Y-88659669D01*
X131286979Y-88669889D01*
X131280183Y-88678138D01*
X131275668Y-88682795D01*
X131267438Y-88689282D01*
X131256078Y-88694194D01*
X131238810Y-88697749D01*
X131212855Y-88700167D01*
X131175436Y-88701667D01*
X131123773Y-88702467D01*
X131055089Y-88702787D01*
X130966606Y-88702845D01*
X130946931Y-88702838D01*
X130859906Y-88702572D01*
X130792254Y-88701806D01*
X130741299Y-88700392D01*
X130704367Y-88698180D01*
X130678783Y-88695022D01*
X130661871Y-88690769D01*
X130650957Y-88685271D01*
X130640464Y-88675285D01*
X130627203Y-88644168D01*
X130628386Y-88608280D01*
X130644550Y-88576733D01*
X130646739Y-88574457D01*
X130655427Y-88568189D01*
X130668769Y-88563523D01*
X130689752Y-88560227D01*
X130721363Y-88558068D01*
X130766590Y-88556814D01*
X130828420Y-88556231D01*
X130909839Y-88556089D01*
X131156445Y-88556089D01*
X131156445Y-88398045D01*
X130994006Y-88398045D01*
X130958338Y-88397964D01*
X130902568Y-88397167D01*
X130863430Y-88395162D01*
X130836976Y-88391521D01*
X130819259Y-88385812D01*
X130806329Y-88377607D01*
X130802686Y-88374423D01*
X130784278Y-88343448D01*
X130783644Y-88307112D01*
X130801183Y-88273493D01*
X130801245Y-88273424D01*
X130810916Y-88264798D01*
X130824209Y-88258742D01*
X130844917Y-88254811D01*
X130876828Y-88252556D01*
X130923734Y-88251531D01*
X130989424Y-88251289D01*
X131157571Y-88251289D01*
X131154186Y-88186378D01*
X131150800Y-88121467D01*
X130908723Y-88118414D01*
X130883707Y-88118086D01*
X130802087Y-88116606D01*
X130739768Y-88114222D01*
X130694154Y-88110227D01*
X130662652Y-88103913D01*
X130642667Y-88094574D01*
X130631604Y-88081503D01*
X130626869Y-88063992D01*
X130625867Y-88041335D01*
X130625873Y-88038970D01*
X130627027Y-88018939D01*
X130631824Y-88003146D01*
X130642632Y-87991090D01*
X130661817Y-87982267D01*
X130691745Y-87976175D01*
X130734783Y-87972311D01*
X130793299Y-87970174D01*
X130869657Y-87969260D01*
X130966226Y-87969067D01*
X131256406Y-87969067D01*
X131279803Y-87998811D01*
G37*
X135956734Y-87969083D02*
X136033831Y-87969275D01*
X136092777Y-87969860D01*
X136136364Y-87971051D01*
X136167383Y-87973064D01*
X136188625Y-87976112D01*
X136202882Y-87980409D01*
X136212945Y-87986172D01*
X136221606Y-87993612D01*
X136223391Y-87995293D01*
X136230635Y-88002832D01*
X136236277Y-88011850D01*
X136240517Y-88024984D01*
X136243556Y-88044872D01*
X136245594Y-88074151D01*
X136246830Y-88115458D01*
X136247465Y-88171431D01*
X136247700Y-88244707D01*
X136247734Y-88337923D01*
X136247697Y-88410713D01*
X136247448Y-88488889D01*
X136246812Y-88549103D01*
X136245615Y-88593982D01*
X136243684Y-88626152D01*
X136240846Y-88648239D01*
X136236927Y-88662870D01*
X136231755Y-88672670D01*
X136225156Y-88680267D01*
X136221822Y-88683444D01*
X136213300Y-88689554D01*
X136201298Y-88694229D01*
X136183087Y-88697659D01*
X136155940Y-88700036D01*
X136117129Y-88701552D01*
X136063924Y-88702398D01*
X135993598Y-88702765D01*
X135903422Y-88702845D01*
X135861314Y-88702833D01*
X135780167Y-88702651D01*
X135717675Y-88702098D01*
X135671109Y-88700982D01*
X135637741Y-88699113D01*
X135614844Y-88696298D01*
X135599688Y-88692346D01*
X135589546Y-88687066D01*
X135581689Y-88680267D01*
X135566963Y-88658667D01*
X135559111Y-88629467D01*
X135564610Y-88605560D01*
X135581689Y-88578667D01*
X135586668Y-88574059D01*
X135596443Y-88567772D01*
X135610559Y-88563146D01*
X135632054Y-88559930D01*
X135663968Y-88557870D01*
X135709342Y-88556712D01*
X135771213Y-88556202D01*
X135852622Y-88556089D01*
X136100978Y-88556089D01*
X136100978Y-88398045D01*
X135939801Y-88398045D01*
X135903983Y-88397899D01*
X135838359Y-88396176D01*
X135791118Y-88391741D01*
X135759383Y-88383637D01*
X135740277Y-88370906D01*
X135730923Y-88352592D01*
X135728445Y-88327738D01*
X135729242Y-88307482D01*
X135734494Y-88285656D01*
X135747288Y-88270304D01*
X135770628Y-88260309D01*
X135807517Y-88254553D01*
X135860959Y-88251919D01*
X135933958Y-88251289D01*
X136102105Y-88251289D01*
X136098719Y-88186378D01*
X136095334Y-88121467D01*
X135847617Y-88118418D01*
X135785026Y-88117539D01*
X135716565Y-88116095D01*
X135665661Y-88114164D01*
X135629408Y-88111514D01*
X135604901Y-88107910D01*
X135589235Y-88103121D01*
X135579506Y-88096913D01*
X135573491Y-88090510D01*
X135560482Y-88058828D01*
X135564043Y-88023142D01*
X135583818Y-87992084D01*
X135587069Y-87989161D01*
X135596049Y-87982810D01*
X135608153Y-87977957D01*
X135626159Y-87974403D01*
X135652847Y-87971946D01*
X135690997Y-87970385D01*
X135743386Y-87969518D01*
X135812794Y-87969146D01*
X135902001Y-87969067D01*
X135956734Y-87969083D01*
G36*
X135956734Y-87969083D02*
G01*
X136033831Y-87969275D01*
X136092777Y-87969860D01*
X136136364Y-87971051D01*
X136167383Y-87973064D01*
X136188625Y-87976112D01*
X136202882Y-87980409D01*
X136212945Y-87986172D01*
X136221606Y-87993612D01*
X136223391Y-87995293D01*
X136230635Y-88002832D01*
X136236277Y-88011850D01*
X136240517Y-88024984D01*
X136243556Y-88044872D01*
X136245594Y-88074151D01*
X136246830Y-88115458D01*
X136247465Y-88171431D01*
X136247700Y-88244707D01*
X136247734Y-88337923D01*
X136247697Y-88410713D01*
X136247448Y-88488889D01*
X136246812Y-88549103D01*
X136245615Y-88593982D01*
X136243684Y-88626152D01*
X136240846Y-88648239D01*
X136236927Y-88662870D01*
X136231755Y-88672670D01*
X136225156Y-88680267D01*
X136221822Y-88683444D01*
X136213300Y-88689554D01*
X136201298Y-88694229D01*
X136183087Y-88697659D01*
X136155940Y-88700036D01*
X136117129Y-88701552D01*
X136063924Y-88702398D01*
X135993598Y-88702765D01*
X135903422Y-88702845D01*
X135861314Y-88702833D01*
X135780167Y-88702651D01*
X135717675Y-88702098D01*
X135671109Y-88700982D01*
X135637741Y-88699113D01*
X135614844Y-88696298D01*
X135599688Y-88692346D01*
X135589546Y-88687066D01*
X135581689Y-88680267D01*
X135566963Y-88658667D01*
X135559111Y-88629467D01*
X135564610Y-88605560D01*
X135581689Y-88578667D01*
X135586668Y-88574059D01*
X135596443Y-88567772D01*
X135610559Y-88563146D01*
X135632054Y-88559930D01*
X135663968Y-88557870D01*
X135709342Y-88556712D01*
X135771213Y-88556202D01*
X135852622Y-88556089D01*
X136100978Y-88556089D01*
X136100978Y-88398045D01*
X135939801Y-88398045D01*
X135903983Y-88397899D01*
X135838359Y-88396176D01*
X135791118Y-88391741D01*
X135759383Y-88383637D01*
X135740277Y-88370906D01*
X135730923Y-88352592D01*
X135728445Y-88327738D01*
X135729242Y-88307482D01*
X135734494Y-88285656D01*
X135747288Y-88270304D01*
X135770628Y-88260309D01*
X135807517Y-88254553D01*
X135860959Y-88251919D01*
X135933958Y-88251289D01*
X136102105Y-88251289D01*
X136098719Y-88186378D01*
X136095334Y-88121467D01*
X135847617Y-88118418D01*
X135785026Y-88117539D01*
X135716565Y-88116095D01*
X135665661Y-88114164D01*
X135629408Y-88111514D01*
X135604901Y-88107910D01*
X135589235Y-88103121D01*
X135579506Y-88096913D01*
X135573491Y-88090510D01*
X135560482Y-88058828D01*
X135564043Y-88023142D01*
X135583818Y-87992084D01*
X135587069Y-87989161D01*
X135596049Y-87982810D01*
X135608153Y-87977957D01*
X135626159Y-87974403D01*
X135652847Y-87971946D01*
X135690997Y-87970385D01*
X135743386Y-87969518D01*
X135812794Y-87969146D01*
X135902001Y-87969067D01*
X135956734Y-87969083D01*
G37*
X127389702Y-87978478D02*
X127407663Y-87996989D01*
X127428263Y-88028071D01*
X127453095Y-88073756D01*
X127483750Y-88136078D01*
X127521820Y-88217071D01*
X127536454Y-88248454D01*
X127566203Y-88311638D01*
X127592297Y-88366244D01*
X127613292Y-88409290D01*
X127627739Y-88437793D01*
X127634191Y-88448770D01*
X127635550Y-88448189D01*
X127645542Y-88434242D01*
X127662833Y-88404704D01*
X127685430Y-88363087D01*
X127711338Y-88312903D01*
X127727311Y-88281414D01*
X127756261Y-88226061D01*
X127778749Y-88187044D01*
X127796965Y-88161566D01*
X127813096Y-88146831D01*
X127829330Y-88140042D01*
X127847857Y-88138400D01*
X127858360Y-88138875D01*
X127874476Y-88143082D01*
X127889790Y-88153946D01*
X127906388Y-88174219D01*
X127926357Y-88206654D01*
X127951783Y-88254004D01*
X127984752Y-88319022D01*
X127994485Y-88338277D01*
X128018943Y-88384946D01*
X128039178Y-88421109D01*
X128053311Y-88443497D01*
X128059460Y-88448845D01*
X128060827Y-88445573D01*
X128070202Y-88424664D01*
X128087062Y-88387725D01*
X128109979Y-88337874D01*
X128137520Y-88278226D01*
X128168255Y-88211898D01*
X128194970Y-88154677D01*
X128224593Y-88092688D01*
X128247664Y-88046949D01*
X128265643Y-88014908D01*
X128279990Y-87994014D01*
X128292166Y-87981718D01*
X128303632Y-87975466D01*
X128313042Y-87972574D01*
X128338147Y-87972425D01*
X128365290Y-87987768D01*
X128366590Y-87988753D01*
X128388674Y-88011388D01*
X128399723Y-88033613D01*
X128399769Y-88034253D01*
X128395228Y-88051915D01*
X128382364Y-88086481D01*
X128362605Y-88134826D01*
X128337381Y-88193825D01*
X128308119Y-88260355D01*
X128276250Y-88331291D01*
X128243201Y-88403507D01*
X128210401Y-88473880D01*
X128179280Y-88539285D01*
X128151265Y-88596597D01*
X128127786Y-88642692D01*
X128110272Y-88674446D01*
X128100151Y-88688733D01*
X128065743Y-88702102D01*
X128024046Y-88695741D01*
X128018681Y-88691044D01*
X128002852Y-88668893D01*
X127980650Y-88632132D01*
X127954233Y-88584415D01*
X127925760Y-88529393D01*
X127845986Y-88370150D01*
X127772799Y-88516742D01*
X127763103Y-88536032D01*
X127736125Y-88588380D01*
X127712096Y-88633170D01*
X127693332Y-88666154D01*
X127682146Y-88683089D01*
X127681000Y-88684332D01*
X127652879Y-88699619D01*
X127617817Y-88701302D01*
X127586776Y-88688733D01*
X127584350Y-88685884D01*
X127572090Y-88665259D01*
X127552352Y-88627708D01*
X127526448Y-88575880D01*
X127495685Y-88512423D01*
X127461375Y-88439985D01*
X127424825Y-88361216D01*
X127404585Y-88317093D01*
X127367812Y-88236365D01*
X127339355Y-88172687D01*
X127318331Y-88123752D01*
X127303854Y-88087257D01*
X127295039Y-88060895D01*
X127291004Y-88042361D01*
X127290862Y-88029352D01*
X127293730Y-88019561D01*
X127308387Y-87998678D01*
X127334990Y-87978377D01*
X127335745Y-87978035D01*
X127355335Y-87971034D01*
X127372790Y-87970504D01*
X127389702Y-87978478D01*
G36*
X127389702Y-87978478D02*
G01*
X127407663Y-87996989D01*
X127428263Y-88028071D01*
X127453095Y-88073756D01*
X127483750Y-88136078D01*
X127521820Y-88217071D01*
X127536454Y-88248454D01*
X127566203Y-88311638D01*
X127592297Y-88366244D01*
X127613292Y-88409290D01*
X127627739Y-88437793D01*
X127634191Y-88448770D01*
X127635550Y-88448189D01*
X127645542Y-88434242D01*
X127662833Y-88404704D01*
X127685430Y-88363087D01*
X127711338Y-88312903D01*
X127727311Y-88281414D01*
X127756261Y-88226061D01*
X127778749Y-88187044D01*
X127796965Y-88161566D01*
X127813096Y-88146831D01*
X127829330Y-88140042D01*
X127847857Y-88138400D01*
X127858360Y-88138875D01*
X127874476Y-88143082D01*
X127889790Y-88153946D01*
X127906388Y-88174219D01*
X127926357Y-88206654D01*
X127951783Y-88254004D01*
X127984752Y-88319022D01*
X127994485Y-88338277D01*
X128018943Y-88384946D01*
X128039178Y-88421109D01*
X128053311Y-88443497D01*
X128059460Y-88448845D01*
X128060827Y-88445573D01*
X128070202Y-88424664D01*
X128087062Y-88387725D01*
X128109979Y-88337874D01*
X128137520Y-88278226D01*
X128168255Y-88211898D01*
X128194970Y-88154677D01*
X128224593Y-88092688D01*
X128247664Y-88046949D01*
X128265643Y-88014908D01*
X128279990Y-87994014D01*
X128292166Y-87981718D01*
X128303632Y-87975466D01*
X128313042Y-87972574D01*
X128338147Y-87972425D01*
X128365290Y-87987768D01*
X128366590Y-87988753D01*
X128388674Y-88011388D01*
X128399723Y-88033613D01*
X128399769Y-88034253D01*
X128395228Y-88051915D01*
X128382364Y-88086481D01*
X128362605Y-88134826D01*
X128337381Y-88193825D01*
X128308119Y-88260355D01*
X128276250Y-88331291D01*
X128243201Y-88403507D01*
X128210401Y-88473880D01*
X128179280Y-88539285D01*
X128151265Y-88596597D01*
X128127786Y-88642692D01*
X128110272Y-88674446D01*
X128100151Y-88688733D01*
X128065743Y-88702102D01*
X128024046Y-88695741D01*
X128018681Y-88691044D01*
X128002852Y-88668893D01*
X127980650Y-88632132D01*
X127954233Y-88584415D01*
X127925760Y-88529393D01*
X127845986Y-88370150D01*
X127772799Y-88516742D01*
X127763103Y-88536032D01*
X127736125Y-88588380D01*
X127712096Y-88633170D01*
X127693332Y-88666154D01*
X127682146Y-88683089D01*
X127681000Y-88684332D01*
X127652879Y-88699619D01*
X127617817Y-88701302D01*
X127586776Y-88688733D01*
X127584350Y-88685884D01*
X127572090Y-88665259D01*
X127552352Y-88627708D01*
X127526448Y-88575880D01*
X127495685Y-88512423D01*
X127461375Y-88439985D01*
X127424825Y-88361216D01*
X127404585Y-88317093D01*
X127367812Y-88236365D01*
X127339355Y-88172687D01*
X127318331Y-88123752D01*
X127303854Y-88087257D01*
X127295039Y-88060895D01*
X127291004Y-88042361D01*
X127290862Y-88029352D01*
X127293730Y-88019561D01*
X127308387Y-87998678D01*
X127334990Y-87978377D01*
X127335745Y-87978035D01*
X127355335Y-87971034D01*
X127372790Y-87970504D01*
X127389702Y-87978478D01*
G37*
X134940853Y-87969936D02*
X135007100Y-87975366D01*
X135062400Y-87984964D01*
X135113283Y-87999825D01*
X135184595Y-88032958D01*
X135235752Y-88075640D01*
X135266575Y-88127705D01*
X135276889Y-88188983D01*
X135275952Y-88220232D01*
X135270160Y-88245029D01*
X135255353Y-88266699D01*
X135227380Y-88294049D01*
X135219402Y-88301378D01*
X135195692Y-88322281D01*
X135173298Y-88339251D01*
X135149265Y-88353205D01*
X135120637Y-88365056D01*
X135084460Y-88375720D01*
X135037780Y-88386111D01*
X134977641Y-88397146D01*
X134901090Y-88409738D01*
X134805171Y-88424804D01*
X134786808Y-88427838D01*
X134724478Y-88441458D01*
X134679260Y-88457192D01*
X134652976Y-88474263D01*
X134647447Y-88491897D01*
X134650068Y-88496168D01*
X134668000Y-88511233D01*
X134696126Y-88527867D01*
X134708926Y-88533857D01*
X134730224Y-88541050D01*
X134756610Y-88545827D01*
X134792454Y-88548646D01*
X134842128Y-88549964D01*
X134910000Y-88550237D01*
X134927785Y-88550164D01*
X134995406Y-88549053D01*
X135060345Y-88546828D01*
X135115970Y-88543762D01*
X135155651Y-88540127D01*
X135191162Y-88536059D01*
X135220415Y-88535276D01*
X135239315Y-88539876D01*
X135254429Y-88550551D01*
X135258085Y-88554144D01*
X135274427Y-88585918D01*
X135273107Y-88621572D01*
X135254150Y-88652190D01*
X135233780Y-88663796D01*
X135197796Y-88676491D01*
X135155372Y-88686541D01*
X135151922Y-88687140D01*
X135109252Y-88692356D01*
X135051866Y-88696730D01*
X134986849Y-88699818D01*
X134921289Y-88701177D01*
X134905057Y-88701218D01*
X134806744Y-88698741D01*
X134726692Y-88690735D01*
X134661513Y-88676203D01*
X134607817Y-88654149D01*
X134562216Y-88623576D01*
X134521323Y-88583486D01*
X134501202Y-88557259D01*
X134489576Y-88527712D01*
X134486667Y-88487995D01*
X134486808Y-88476026D01*
X134490681Y-88443345D01*
X134503065Y-88416819D01*
X134528230Y-88385971D01*
X134549442Y-88363831D01*
X134575838Y-88341285D01*
X134605555Y-88322917D01*
X134641785Y-88307661D01*
X134687717Y-88294449D01*
X134746544Y-88282214D01*
X134821456Y-88269889D01*
X134915645Y-88256406D01*
X134960957Y-88249396D01*
X135028911Y-88234837D01*
X135078047Y-88218337D01*
X135107614Y-88200439D01*
X135116864Y-88181685D01*
X135105048Y-88162615D01*
X135071416Y-88143771D01*
X135068370Y-88142557D01*
X135022011Y-88130479D01*
X134959361Y-88122279D01*
X134885927Y-88118119D01*
X134807217Y-88118161D01*
X134728739Y-88122569D01*
X134656000Y-88131505D01*
X134652073Y-88132154D01*
X134603257Y-88139861D01*
X134571005Y-88143473D01*
X134550008Y-88142876D01*
X134534954Y-88137954D01*
X134520534Y-88128596D01*
X134519364Y-88127725D01*
X134494847Y-88097351D01*
X134490054Y-88061850D01*
X134505860Y-88027269D01*
X134510406Y-88022813D01*
X134540020Y-88007673D01*
X134587002Y-87994550D01*
X134647306Y-87983750D01*
X134716888Y-87975581D01*
X134791703Y-87970351D01*
X134867706Y-87968367D01*
X134940853Y-87969936D01*
G36*
X134940853Y-87969936D02*
G01*
X135007100Y-87975366D01*
X135062400Y-87984964D01*
X135113283Y-87999825D01*
X135184595Y-88032958D01*
X135235752Y-88075640D01*
X135266575Y-88127705D01*
X135276889Y-88188983D01*
X135275952Y-88220232D01*
X135270160Y-88245029D01*
X135255353Y-88266699D01*
X135227380Y-88294049D01*
X135219402Y-88301378D01*
X135195692Y-88322281D01*
X135173298Y-88339251D01*
X135149265Y-88353205D01*
X135120637Y-88365056D01*
X135084460Y-88375720D01*
X135037780Y-88386111D01*
X134977641Y-88397146D01*
X134901090Y-88409738D01*
X134805171Y-88424804D01*
X134786808Y-88427838D01*
X134724478Y-88441458D01*
X134679260Y-88457192D01*
X134652976Y-88474263D01*
X134647447Y-88491897D01*
X134650068Y-88496168D01*
X134668000Y-88511233D01*
X134696126Y-88527867D01*
X134708926Y-88533857D01*
X134730224Y-88541050D01*
X134756610Y-88545827D01*
X134792454Y-88548646D01*
X134842128Y-88549964D01*
X134910000Y-88550237D01*
X134927785Y-88550164D01*
X134995406Y-88549053D01*
X135060345Y-88546828D01*
X135115970Y-88543762D01*
X135155651Y-88540127D01*
X135191162Y-88536059D01*
X135220415Y-88535276D01*
X135239315Y-88539876D01*
X135254429Y-88550551D01*
X135258085Y-88554144D01*
X135274427Y-88585918D01*
X135273107Y-88621572D01*
X135254150Y-88652190D01*
X135233780Y-88663796D01*
X135197796Y-88676491D01*
X135155372Y-88686541D01*
X135151922Y-88687140D01*
X135109252Y-88692356D01*
X135051866Y-88696730D01*
X134986849Y-88699818D01*
X134921289Y-88701177D01*
X134905057Y-88701218D01*
X134806744Y-88698741D01*
X134726692Y-88690735D01*
X134661513Y-88676203D01*
X134607817Y-88654149D01*
X134562216Y-88623576D01*
X134521323Y-88583486D01*
X134501202Y-88557259D01*
X134489576Y-88527712D01*
X134486667Y-88487995D01*
X134486808Y-88476026D01*
X134490681Y-88443345D01*
X134503065Y-88416819D01*
X134528230Y-88385971D01*
X134549442Y-88363831D01*
X134575838Y-88341285D01*
X134605555Y-88322917D01*
X134641785Y-88307661D01*
X134687717Y-88294449D01*
X134746544Y-88282214D01*
X134821456Y-88269889D01*
X134915645Y-88256406D01*
X134960957Y-88249396D01*
X135028911Y-88234837D01*
X135078047Y-88218337D01*
X135107614Y-88200439D01*
X135116864Y-88181685D01*
X135105048Y-88162615D01*
X135071416Y-88143771D01*
X135068370Y-88142557D01*
X135022011Y-88130479D01*
X134959361Y-88122279D01*
X134885927Y-88118119D01*
X134807217Y-88118161D01*
X134728739Y-88122569D01*
X134656000Y-88131505D01*
X134652073Y-88132154D01*
X134603257Y-88139861D01*
X134571005Y-88143473D01*
X134550008Y-88142876D01*
X134534954Y-88137954D01*
X134520534Y-88128596D01*
X134519364Y-88127725D01*
X134494847Y-88097351D01*
X134490054Y-88061850D01*
X134505860Y-88027269D01*
X134510406Y-88022813D01*
X134540020Y-88007673D01*
X134587002Y-87994550D01*
X134647306Y-87983750D01*
X134716888Y-87975581D01*
X134791703Y-87970351D01*
X134867706Y-87968367D01*
X134940853Y-87969936D01*
G37*
X131088711Y-83662033D02*
X131184268Y-83679523D01*
X131348558Y-83724564D01*
X131502589Y-83787656D01*
X131648509Y-83869915D01*
X131788466Y-83972457D01*
X131924608Y-84096399D01*
X131968473Y-84141661D01*
X132080758Y-84273865D01*
X132173972Y-84411832D01*
X132250719Y-84559750D01*
X132313603Y-84721803D01*
X132317420Y-84733391D01*
X132367507Y-84919392D01*
X132400899Y-85115521D01*
X132417584Y-85317568D01*
X132417551Y-85521325D01*
X132400791Y-85722581D01*
X132367292Y-85917128D01*
X132317044Y-86100756D01*
X132273190Y-86218053D01*
X132195348Y-86380951D01*
X132101828Y-86534866D01*
X131994822Y-86676671D01*
X131876519Y-86803239D01*
X131749111Y-86911441D01*
X131671606Y-86964120D01*
X131544725Y-87033750D01*
X131407243Y-87092468D01*
X131265716Y-87137587D01*
X131126702Y-87166422D01*
X131112597Y-87168106D01*
X131069153Y-87171434D01*
X131011723Y-87174275D01*
X130946122Y-87176373D01*
X130878167Y-87177468D01*
X130751378Y-87175140D01*
X130603673Y-87162136D01*
X130465779Y-87137133D01*
X130332014Y-87099318D01*
X130308562Y-87090889D01*
X130260612Y-87071408D01*
X130204140Y-87046473D01*
X130142379Y-87017722D01*
X130078563Y-86986790D01*
X130015926Y-86955315D01*
X129957703Y-86924934D01*
X129907127Y-86897283D01*
X129867433Y-86873999D01*
X129841854Y-86856718D01*
X129833625Y-86847079D01*
X129835076Y-86843984D01*
X129846250Y-86824079D01*
X129867134Y-86788420D01*
X129896265Y-86739459D01*
X129932181Y-86679646D01*
X129973420Y-86611433D01*
X130018517Y-86537271D01*
X130199785Y-86240008D01*
X130246315Y-86284539D01*
X130337723Y-86362865D01*
X130451334Y-86437439D01*
X130569122Y-86491474D01*
X130689559Y-86524290D01*
X130811117Y-86535211D01*
X130852585Y-86533868D01*
X130970080Y-86515612D01*
X131080089Y-86476617D01*
X131181430Y-86417670D01*
X131272921Y-86339557D01*
X131353380Y-86243064D01*
X131421627Y-86128978D01*
X131437908Y-86094724D01*
X131483982Y-85971240D01*
X131519106Y-85832918D01*
X131543197Y-85683561D01*
X131556173Y-85526973D01*
X131557949Y-85366956D01*
X131548443Y-85207314D01*
X131527572Y-85051850D01*
X131495252Y-84904366D01*
X131451399Y-84768667D01*
X131413982Y-84682076D01*
X131349185Y-84568688D01*
X131273772Y-84475070D01*
X131187418Y-84400959D01*
X131089795Y-84346094D01*
X130980577Y-84310212D01*
X130859439Y-84293051D01*
X130790038Y-84291880D01*
X130667168Y-84306141D01*
X130551664Y-84341241D01*
X130444953Y-84396682D01*
X130348464Y-84471964D01*
X130332720Y-84486440D01*
X130302150Y-84512962D01*
X130279809Y-84530138D01*
X130269691Y-84534787D01*
X130267706Y-84532597D01*
X130253241Y-84513721D01*
X130229400Y-84480397D01*
X130198029Y-84435380D01*
X130160974Y-84381425D01*
X130120083Y-84321285D01*
X130077202Y-84257718D01*
X130034178Y-84193476D01*
X129992857Y-84131315D01*
X129955086Y-84073991D01*
X129922712Y-84024257D01*
X129897582Y-83984868D01*
X129881542Y-83958580D01*
X129876439Y-83948147D01*
X129881050Y-83943941D01*
X129900267Y-83938933D01*
X129909838Y-83936386D01*
X129937809Y-83925249D01*
X129979448Y-83906802D01*
X130030995Y-83882725D01*
X130088690Y-83854699D01*
X130099957Y-83849154D01*
X130277687Y-83769889D01*
X130447490Y-83710385D01*
X130611430Y-83670245D01*
X130771571Y-83649071D01*
X130929977Y-83646466D01*
X131088711Y-83662033D01*
G36*
X131088711Y-83662033D02*
G01*
X131184268Y-83679523D01*
X131348558Y-83724564D01*
X131502589Y-83787656D01*
X131648509Y-83869915D01*
X131788466Y-83972457D01*
X131924608Y-84096399D01*
X131968473Y-84141661D01*
X132080758Y-84273865D01*
X132173972Y-84411832D01*
X132250719Y-84559750D01*
X132313603Y-84721803D01*
X132317420Y-84733391D01*
X132367507Y-84919392D01*
X132400899Y-85115521D01*
X132417584Y-85317568D01*
X132417551Y-85521325D01*
X132400791Y-85722581D01*
X132367292Y-85917128D01*
X132317044Y-86100756D01*
X132273190Y-86218053D01*
X132195348Y-86380951D01*
X132101828Y-86534866D01*
X131994822Y-86676671D01*
X131876519Y-86803239D01*
X131749111Y-86911441D01*
X131671606Y-86964120D01*
X131544725Y-87033750D01*
X131407243Y-87092468D01*
X131265716Y-87137587D01*
X131126702Y-87166422D01*
X131112597Y-87168106D01*
X131069153Y-87171434D01*
X131011723Y-87174275D01*
X130946122Y-87176373D01*
X130878167Y-87177468D01*
X130751378Y-87175140D01*
X130603673Y-87162136D01*
X130465779Y-87137133D01*
X130332014Y-87099318D01*
X130308562Y-87090889D01*
X130260612Y-87071408D01*
X130204140Y-87046473D01*
X130142379Y-87017722D01*
X130078563Y-86986790D01*
X130015926Y-86955315D01*
X129957703Y-86924934D01*
X129907127Y-86897283D01*
X129867433Y-86873999D01*
X129841854Y-86856718D01*
X129833625Y-86847079D01*
X129835076Y-86843984D01*
X129846250Y-86824079D01*
X129867134Y-86788420D01*
X129896265Y-86739459D01*
X129932181Y-86679646D01*
X129973420Y-86611433D01*
X130018517Y-86537271D01*
X130199785Y-86240008D01*
X130246315Y-86284539D01*
X130337723Y-86362865D01*
X130451334Y-86437439D01*
X130569122Y-86491474D01*
X130689559Y-86524290D01*
X130811117Y-86535211D01*
X130852585Y-86533868D01*
X130970080Y-86515612D01*
X131080089Y-86476617D01*
X131181430Y-86417670D01*
X131272921Y-86339557D01*
X131353380Y-86243064D01*
X131421627Y-86128978D01*
X131437908Y-86094724D01*
X131483982Y-85971240D01*
X131519106Y-85832918D01*
X131543197Y-85683561D01*
X131556173Y-85526973D01*
X131557949Y-85366956D01*
X131548443Y-85207314D01*
X131527572Y-85051850D01*
X131495252Y-84904366D01*
X131451399Y-84768667D01*
X131413982Y-84682076D01*
X131349185Y-84568688D01*
X131273772Y-84475070D01*
X131187418Y-84400959D01*
X131089795Y-84346094D01*
X130980577Y-84310212D01*
X130859439Y-84293051D01*
X130790038Y-84291880D01*
X130667168Y-84306141D01*
X130551664Y-84341241D01*
X130444953Y-84396682D01*
X130348464Y-84471964D01*
X130332720Y-84486440D01*
X130302150Y-84512962D01*
X130279809Y-84530138D01*
X130269691Y-84534787D01*
X130267706Y-84532597D01*
X130253241Y-84513721D01*
X130229400Y-84480397D01*
X130198029Y-84435380D01*
X130160974Y-84381425D01*
X130120083Y-84321285D01*
X130077202Y-84257718D01*
X130034178Y-84193476D01*
X129992857Y-84131315D01*
X129955086Y-84073991D01*
X129922712Y-84024257D01*
X129897582Y-83984868D01*
X129881542Y-83958580D01*
X129876439Y-83948147D01*
X129881050Y-83943941D01*
X129900267Y-83938933D01*
X129909838Y-83936386D01*
X129937809Y-83925249D01*
X129979448Y-83906802D01*
X130030995Y-83882725D01*
X130088690Y-83854699D01*
X130099957Y-83849154D01*
X130277687Y-83769889D01*
X130447490Y-83710385D01*
X130611430Y-83670245D01*
X130771571Y-83649071D01*
X130929977Y-83646466D01*
X131088711Y-83662033D01*
G37*
X127285994Y-85942711D02*
X127285268Y-86020158D01*
X127276689Y-86171594D01*
X127257833Y-86308283D01*
X127227837Y-86434276D01*
X127185836Y-86553625D01*
X127130969Y-86670381D01*
X127064167Y-86781179D01*
X126973363Y-86894739D01*
X126869708Y-86990211D01*
X126753887Y-87067073D01*
X126626586Y-87124797D01*
X126488489Y-87162858D01*
X126450793Y-87168666D01*
X126371752Y-87174396D01*
X126283629Y-87174583D01*
X126194236Y-87169539D01*
X126111384Y-87159578D01*
X126042887Y-87145012D01*
X126012035Y-87135364D01*
X125934730Y-87105123D01*
X125857679Y-87067617D01*
X125788200Y-87026614D01*
X125733615Y-86985879D01*
X125710916Y-86966505D01*
X125688201Y-86948662D01*
X125676779Y-86941778D01*
X125675537Y-86943424D01*
X125672728Y-86961205D01*
X125670776Y-86994370D01*
X125670045Y-87037733D01*
X125670045Y-87133689D01*
X124811896Y-87133689D01*
X124846161Y-87072974D01*
X124851355Y-87063868D01*
X124859715Y-87049249D01*
X124867288Y-87035173D01*
X124874112Y-87020540D01*
X124880227Y-87004249D01*
X124885673Y-86985198D01*
X124890487Y-86962286D01*
X124894708Y-86934413D01*
X124898377Y-86900478D01*
X124901531Y-86859379D01*
X124904211Y-86810015D01*
X124906454Y-86751286D01*
X124908299Y-86682090D01*
X124909787Y-86601326D01*
X124910955Y-86507894D01*
X124911844Y-86400692D01*
X124912491Y-86278620D01*
X124912936Y-86140576D01*
X124913218Y-85985459D01*
X124913375Y-85812168D01*
X124913448Y-85619603D01*
X124913474Y-85406662D01*
X124913485Y-85270530D01*
X125715200Y-85270530D01*
X125715200Y-86420721D01*
X125785756Y-86467089D01*
X125826417Y-86490791D01*
X125880546Y-86516639D01*
X125929689Y-86534829D01*
X125993165Y-86550551D01*
X126089331Y-86561541D01*
X126173900Y-86553365D01*
X126247219Y-86525805D01*
X126309637Y-86478642D01*
X126361502Y-86411658D01*
X126403160Y-86324633D01*
X126434962Y-86217350D01*
X126437545Y-86205009D01*
X126446000Y-86143772D01*
X126451663Y-86066692D01*
X126454576Y-85979002D01*
X126454783Y-85885934D01*
X126452330Y-85792720D01*
X126447261Y-85704594D01*
X126439619Y-85626788D01*
X126429448Y-85564533D01*
X126428167Y-85558666D01*
X126399126Y-85448121D01*
X126364610Y-85357575D01*
X126323456Y-85284953D01*
X126274499Y-85228181D01*
X126216574Y-85185184D01*
X126184620Y-85169615D01*
X126111784Y-85150722D01*
X126030443Y-85147465D01*
X125945319Y-85159389D01*
X125861133Y-85186040D01*
X125782608Y-85226962D01*
X125715200Y-85270530D01*
X124913485Y-85270530D01*
X124913493Y-85172245D01*
X124913689Y-83487378D01*
X125819017Y-83487378D01*
X125794585Y-83524067D01*
X125788318Y-83533647D01*
X125762208Y-83579981D01*
X125744469Y-83627102D01*
X125732908Y-83682251D01*
X125725331Y-83752667D01*
X125724839Y-83759650D01*
X125723062Y-83797641D01*
X125721444Y-83851576D01*
X125719999Y-83918703D01*
X125718740Y-83996271D01*
X125717680Y-84081528D01*
X125716829Y-84171724D01*
X125716203Y-84264107D01*
X125715812Y-84355925D01*
X125715670Y-84444427D01*
X125715790Y-84526862D01*
X125716183Y-84600479D01*
X125716862Y-84662526D01*
X125717841Y-84710251D01*
X125719132Y-84740904D01*
X125720747Y-84751733D01*
X125728957Y-84747333D01*
X125750647Y-84732362D01*
X125780014Y-84710448D01*
X125828879Y-84676236D01*
X125917125Y-84629714D01*
X126015916Y-84596046D01*
X126128510Y-84574231D01*
X126258164Y-84563265D01*
X126350670Y-84562219D01*
X126472011Y-84572014D01*
X126582099Y-84596174D01*
X126685389Y-84635785D01*
X126786338Y-84691932D01*
X126831503Y-84722883D01*
X126936911Y-84814115D01*
X127028538Y-84923106D01*
X127106332Y-85049726D01*
X127170241Y-85193845D01*
X127220214Y-85355332D01*
X127256198Y-85534059D01*
X127278143Y-85729895D01*
X127283900Y-85885934D01*
X127285994Y-85942711D01*
G36*
X127285994Y-85942711D02*
G01*
X127285268Y-86020158D01*
X127276689Y-86171594D01*
X127257833Y-86308283D01*
X127227837Y-86434276D01*
X127185836Y-86553625D01*
X127130969Y-86670381D01*
X127064167Y-86781179D01*
X126973363Y-86894739D01*
X126869708Y-86990211D01*
X126753887Y-87067073D01*
X126626586Y-87124797D01*
X126488489Y-87162858D01*
X126450793Y-87168666D01*
X126371752Y-87174396D01*
X126283629Y-87174583D01*
X126194236Y-87169539D01*
X126111384Y-87159578D01*
X126042887Y-87145012D01*
X126012035Y-87135364D01*
X125934730Y-87105123D01*
X125857679Y-87067617D01*
X125788200Y-87026614D01*
X125733615Y-86985879D01*
X125710916Y-86966505D01*
X125688201Y-86948662D01*
X125676779Y-86941778D01*
X125675537Y-86943424D01*
X125672728Y-86961205D01*
X125670776Y-86994370D01*
X125670045Y-87037733D01*
X125670045Y-87133689D01*
X124811896Y-87133689D01*
X124846161Y-87072974D01*
X124851355Y-87063868D01*
X124859715Y-87049249D01*
X124867288Y-87035173D01*
X124874112Y-87020540D01*
X124880227Y-87004249D01*
X124885673Y-86985198D01*
X124890487Y-86962286D01*
X124894708Y-86934413D01*
X124898377Y-86900478D01*
X124901531Y-86859379D01*
X124904211Y-86810015D01*
X124906454Y-86751286D01*
X124908299Y-86682090D01*
X124909787Y-86601326D01*
X124910955Y-86507894D01*
X124911844Y-86400692D01*
X124912491Y-86278620D01*
X124912936Y-86140576D01*
X124913218Y-85985459D01*
X124913375Y-85812168D01*
X124913448Y-85619603D01*
X124913474Y-85406662D01*
X124913485Y-85270530D01*
X125715200Y-85270530D01*
X125715200Y-86420721D01*
X125785756Y-86467089D01*
X125826417Y-86490791D01*
X125880546Y-86516639D01*
X125929689Y-86534829D01*
X125993165Y-86550551D01*
X126089331Y-86561541D01*
X126173900Y-86553365D01*
X126247219Y-86525805D01*
X126309637Y-86478642D01*
X126361502Y-86411658D01*
X126403160Y-86324633D01*
X126434962Y-86217350D01*
X126437545Y-86205009D01*
X126446000Y-86143772D01*
X126451663Y-86066692D01*
X126454576Y-85979002D01*
X126454783Y-85885934D01*
X126452330Y-85792720D01*
X126447261Y-85704594D01*
X126439619Y-85626788D01*
X126429448Y-85564533D01*
X126428167Y-85558666D01*
X126399126Y-85448121D01*
X126364610Y-85357575D01*
X126323456Y-85284953D01*
X126274499Y-85228181D01*
X126216574Y-85185184D01*
X126184620Y-85169615D01*
X126111784Y-85150722D01*
X126030443Y-85147465D01*
X125945319Y-85159389D01*
X125861133Y-85186040D01*
X125782608Y-85226962D01*
X125715200Y-85270530D01*
X124913485Y-85270530D01*
X124913493Y-85172245D01*
X124913689Y-83487378D01*
X125819017Y-83487378D01*
X125794585Y-83524067D01*
X125788318Y-83533647D01*
X125762208Y-83579981D01*
X125744469Y-83627102D01*
X125732908Y-83682251D01*
X125725331Y-83752667D01*
X125724839Y-83759650D01*
X125723062Y-83797641D01*
X125721444Y-83851576D01*
X125719999Y-83918703D01*
X125718740Y-83996271D01*
X125717680Y-84081528D01*
X125716829Y-84171724D01*
X125716203Y-84264107D01*
X125715812Y-84355925D01*
X125715670Y-84444427D01*
X125715790Y-84526862D01*
X125716183Y-84600479D01*
X125716862Y-84662526D01*
X125717841Y-84710251D01*
X125719132Y-84740904D01*
X125720747Y-84751733D01*
X125728957Y-84747333D01*
X125750647Y-84732362D01*
X125780014Y-84710448D01*
X125828879Y-84676236D01*
X125917125Y-84629714D01*
X126015916Y-84596046D01*
X126128510Y-84574231D01*
X126258164Y-84563265D01*
X126350670Y-84562219D01*
X126472011Y-84572014D01*
X126582099Y-84596174D01*
X126685389Y-84635785D01*
X126786338Y-84691932D01*
X126831503Y-84722883D01*
X126936911Y-84814115D01*
X127028538Y-84923106D01*
X127106332Y-85049726D01*
X127170241Y-85193845D01*
X127220214Y-85355332D01*
X127256198Y-85534059D01*
X127278143Y-85729895D01*
X127283900Y-85885934D01*
X127285994Y-85942711D01*
G37*
X129827755Y-86343467D02*
X129827261Y-86377363D01*
X129823632Y-86452202D01*
X129816022Y-86514401D01*
X129803688Y-86570984D01*
X129759313Y-86697076D01*
X129696400Y-86811679D01*
X129616238Y-86912568D01*
X129519740Y-86998924D01*
X129407822Y-87069932D01*
X129281397Y-87124776D01*
X129141378Y-87162638D01*
X129105149Y-87168351D01*
X129026155Y-87174313D01*
X128937841Y-87174646D01*
X128848075Y-87169659D01*
X128764722Y-87159666D01*
X128695651Y-87144978D01*
X128609187Y-87114749D01*
X128499286Y-87060057D01*
X128401956Y-86992543D01*
X128339867Y-86941556D01*
X128336605Y-87037622D01*
X128333343Y-87133689D01*
X127910450Y-87133689D01*
X127899543Y-87133686D01*
X127805056Y-87133380D01*
X127718331Y-87132616D01*
X127641837Y-87131451D01*
X127578043Y-87129942D01*
X127529418Y-87128147D01*
X127498433Y-87126121D01*
X127487556Y-87123922D01*
X127487578Y-87123463D01*
X127494614Y-87107910D01*
X127510434Y-87085071D01*
X127514734Y-87079638D01*
X127525777Y-87065606D01*
X127535311Y-87052186D01*
X127543461Y-87037722D01*
X127550352Y-87020556D01*
X127556111Y-86999034D01*
X127560862Y-86971498D01*
X127564731Y-86936292D01*
X127567844Y-86891760D01*
X127570325Y-86836246D01*
X127572300Y-86768093D01*
X127573894Y-86685645D01*
X127575234Y-86587246D01*
X127576444Y-86471239D01*
X127577649Y-86335968D01*
X127578595Y-86224586D01*
X128379378Y-86224586D01*
X128379378Y-86420462D01*
X128424048Y-86476973D01*
X128436785Y-86492212D01*
X128483604Y-86534844D01*
X128544255Y-86570672D01*
X128554897Y-86575850D01*
X128593676Y-86592745D01*
X128628692Y-86602909D01*
X128668722Y-86608325D01*
X128722541Y-86610978D01*
X128740648Y-86611383D01*
X128816011Y-86608540D01*
X128876743Y-86596620D01*
X128928452Y-86574037D01*
X128976746Y-86539211D01*
X128981803Y-86534798D01*
X129030272Y-86479160D01*
X129058459Y-86415333D01*
X129067752Y-86340282D01*
X129060520Y-86268693D01*
X129035796Y-86205645D01*
X128991249Y-86147758D01*
X128936319Y-86100808D01*
X128863894Y-86060961D01*
X128777340Y-86033263D01*
X128674670Y-86017096D01*
X128553894Y-86011842D01*
X128545007Y-86011857D01*
X128489660Y-86012655D01*
X128442736Y-86014488D01*
X128408953Y-86017111D01*
X128393028Y-86020274D01*
X128388943Y-86026741D01*
X128384572Y-86048875D01*
X128381604Y-86087988D01*
X128379914Y-86145939D01*
X128379378Y-86224586D01*
X127578595Y-86224586D01*
X127578975Y-86179778D01*
X127580228Y-86037012D01*
X127581651Y-85891942D01*
X127583176Y-85766027D01*
X127584933Y-85657436D01*
X127587051Y-85564334D01*
X127589660Y-85484891D01*
X127592890Y-85417273D01*
X127596869Y-85359649D01*
X127601728Y-85310185D01*
X127607597Y-85267050D01*
X127614604Y-85228410D01*
X127622880Y-85192434D01*
X127632554Y-85157289D01*
X127643756Y-85121142D01*
X127656616Y-85082161D01*
X127672090Y-85039091D01*
X127714994Y-84946871D01*
X127768735Y-84867099D01*
X127837576Y-84792965D01*
X127915185Y-84729405D01*
X128019761Y-84667725D01*
X128139244Y-84620202D01*
X128274508Y-84586567D01*
X128426426Y-84566552D01*
X128595872Y-84559889D01*
X128653890Y-84560287D01*
X128719398Y-84562335D01*
X128780693Y-84566704D01*
X128842097Y-84574035D01*
X128907932Y-84584969D01*
X128982520Y-84600147D01*
X129070184Y-84620209D01*
X129175245Y-84645797D01*
X129203806Y-84652820D01*
X129279054Y-84670776D01*
X129349388Y-84686820D01*
X129410567Y-84700028D01*
X129458354Y-84709474D01*
X129488511Y-84714231D01*
X129516783Y-84717910D01*
X129543060Y-84723187D01*
X129553059Y-84727942D01*
X129549952Y-84736781D01*
X129539194Y-84764072D01*
X129521864Y-84806906D01*
X129499126Y-84862425D01*
X129472147Y-84927772D01*
X129442090Y-85000089D01*
X129435493Y-85015879D01*
X129396907Y-85106484D01*
X129365768Y-85176217D01*
X129341917Y-85225405D01*
X129325198Y-85254374D01*
X129315454Y-85263452D01*
X129307766Y-85261405D01*
X129281415Y-85251760D01*
X129242982Y-85236190D01*
X129197822Y-85216815D01*
X129103293Y-85178814D01*
X128966480Y-85137780D01*
X128825289Y-85112612D01*
X128787314Y-85108611D01*
X128684059Y-85106447D01*
X128596952Y-85119622D01*
X128525129Y-85148756D01*
X128467731Y-85194466D01*
X128423896Y-85257372D01*
X128392762Y-85338092D01*
X128373470Y-85437245D01*
X128366050Y-85496224D01*
X128527936Y-85489445D01*
X128654495Y-85487813D01*
X128805951Y-85494194D01*
X128954396Y-85508777D01*
X129090578Y-85530882D01*
X129155245Y-85545821D01*
X129287490Y-85588741D01*
X129409762Y-85645340D01*
X129519685Y-85714017D01*
X129614883Y-85793170D01*
X129692980Y-85881196D01*
X129751599Y-85976493D01*
X129775595Y-86028864D01*
X129801232Y-86099590D01*
X129817478Y-86170812D01*
X129825822Y-86249712D01*
X129827690Y-86340282D01*
X129827755Y-86343467D01*
G36*
X129827755Y-86343467D02*
G01*
X129827261Y-86377363D01*
X129823632Y-86452202D01*
X129816022Y-86514401D01*
X129803688Y-86570984D01*
X129759313Y-86697076D01*
X129696400Y-86811679D01*
X129616238Y-86912568D01*
X129519740Y-86998924D01*
X129407822Y-87069932D01*
X129281397Y-87124776D01*
X129141378Y-87162638D01*
X129105149Y-87168351D01*
X129026155Y-87174313D01*
X128937841Y-87174646D01*
X128848075Y-87169659D01*
X128764722Y-87159666D01*
X128695651Y-87144978D01*
X128609187Y-87114749D01*
X128499286Y-87060057D01*
X128401956Y-86992543D01*
X128339867Y-86941556D01*
X128336605Y-87037622D01*
X128333343Y-87133689D01*
X127910450Y-87133689D01*
X127899543Y-87133686D01*
X127805056Y-87133380D01*
X127718331Y-87132616D01*
X127641837Y-87131451D01*
X127578043Y-87129942D01*
X127529418Y-87128147D01*
X127498433Y-87126121D01*
X127487556Y-87123922D01*
X127487578Y-87123463D01*
X127494614Y-87107910D01*
X127510434Y-87085071D01*
X127514734Y-87079638D01*
X127525777Y-87065606D01*
X127535311Y-87052186D01*
X127543461Y-87037722D01*
X127550352Y-87020556D01*
X127556111Y-86999034D01*
X127560862Y-86971498D01*
X127564731Y-86936292D01*
X127567844Y-86891760D01*
X127570325Y-86836246D01*
X127572300Y-86768093D01*
X127573894Y-86685645D01*
X127575234Y-86587246D01*
X127576444Y-86471239D01*
X127577649Y-86335968D01*
X127578595Y-86224586D01*
X128379378Y-86224586D01*
X128379378Y-86420462D01*
X128424048Y-86476973D01*
X128436785Y-86492212D01*
X128483604Y-86534844D01*
X128544255Y-86570672D01*
X128554897Y-86575850D01*
X128593676Y-86592745D01*
X128628692Y-86602909D01*
X128668722Y-86608325D01*
X128722541Y-86610978D01*
X128740648Y-86611383D01*
X128816011Y-86608540D01*
X128876743Y-86596620D01*
X128928452Y-86574037D01*
X128976746Y-86539211D01*
X128981803Y-86534798D01*
X129030272Y-86479160D01*
X129058459Y-86415333D01*
X129067752Y-86340282D01*
X129060520Y-86268693D01*
X129035796Y-86205645D01*
X128991249Y-86147758D01*
X128936319Y-86100808D01*
X128863894Y-86060961D01*
X128777340Y-86033263D01*
X128674670Y-86017096D01*
X128553894Y-86011842D01*
X128545007Y-86011857D01*
X128489660Y-86012655D01*
X128442736Y-86014488D01*
X128408953Y-86017111D01*
X128393028Y-86020274D01*
X128388943Y-86026741D01*
X128384572Y-86048875D01*
X128381604Y-86087988D01*
X128379914Y-86145939D01*
X128379378Y-86224586D01*
X127578595Y-86224586D01*
X127578975Y-86179778D01*
X127580228Y-86037012D01*
X127581651Y-85891942D01*
X127583176Y-85766027D01*
X127584933Y-85657436D01*
X127587051Y-85564334D01*
X127589660Y-85484891D01*
X127592890Y-85417273D01*
X127596869Y-85359649D01*
X127601728Y-85310185D01*
X127607597Y-85267050D01*
X127614604Y-85228410D01*
X127622880Y-85192434D01*
X127632554Y-85157289D01*
X127643756Y-85121142D01*
X127656616Y-85082161D01*
X127672090Y-85039091D01*
X127714994Y-84946871D01*
X127768735Y-84867099D01*
X127837576Y-84792965D01*
X127915185Y-84729405D01*
X128019761Y-84667725D01*
X128139244Y-84620202D01*
X128274508Y-84586567D01*
X128426426Y-84566552D01*
X128595872Y-84559889D01*
X128653890Y-84560287D01*
X128719398Y-84562335D01*
X128780693Y-84566704D01*
X128842097Y-84574035D01*
X128907932Y-84584969D01*
X128982520Y-84600147D01*
X129070184Y-84620209D01*
X129175245Y-84645797D01*
X129203806Y-84652820D01*
X129279054Y-84670776D01*
X129349388Y-84686820D01*
X129410567Y-84700028D01*
X129458354Y-84709474D01*
X129488511Y-84714231D01*
X129516783Y-84717910D01*
X129543060Y-84723187D01*
X129553059Y-84727942D01*
X129549952Y-84736781D01*
X129539194Y-84764072D01*
X129521864Y-84806906D01*
X129499126Y-84862425D01*
X129472147Y-84927772D01*
X129442090Y-85000089D01*
X129435493Y-85015879D01*
X129396907Y-85106484D01*
X129365768Y-85176217D01*
X129341917Y-85225405D01*
X129325198Y-85254374D01*
X129315454Y-85263452D01*
X129307766Y-85261405D01*
X129281415Y-85251760D01*
X129242982Y-85236190D01*
X129197822Y-85216815D01*
X129103293Y-85178814D01*
X128966480Y-85137780D01*
X128825289Y-85112612D01*
X128787314Y-85108611D01*
X128684059Y-85106447D01*
X128596952Y-85119622D01*
X128525129Y-85148756D01*
X128467731Y-85194466D01*
X128423896Y-85257372D01*
X128392762Y-85338092D01*
X128373470Y-85437245D01*
X128366050Y-85496224D01*
X128527936Y-85489445D01*
X128654495Y-85487813D01*
X128805951Y-85494194D01*
X128954396Y-85508777D01*
X129090578Y-85530882D01*
X129155245Y-85545821D01*
X129287490Y-85588741D01*
X129409762Y-85645340D01*
X129519685Y-85714017D01*
X129614883Y-85793170D01*
X129692980Y-85881196D01*
X129751599Y-85976493D01*
X129775595Y-86028864D01*
X129801232Y-86099590D01*
X129817478Y-86170812D01*
X129825822Y-86249712D01*
X129827690Y-86340282D01*
X129827755Y-86343467D01*
G37*
X137375614Y-83811792D02*
X137376059Y-83943011D01*
X137376362Y-84090216D01*
X137376548Y-84254349D01*
X137376642Y-84436352D01*
X137376671Y-84637165D01*
X137376661Y-84857732D01*
X137376636Y-85098992D01*
X137376622Y-85361889D01*
X137376622Y-85404040D01*
X137376646Y-85664668D01*
X137376685Y-85903796D01*
X137376708Y-86122360D01*
X137376687Y-86321295D01*
X137376593Y-86501535D01*
X137376395Y-86664015D01*
X137376063Y-86809670D01*
X137375569Y-86939434D01*
X137374883Y-87054243D01*
X137373976Y-87155030D01*
X137372817Y-87242730D01*
X137371378Y-87318279D01*
X137369629Y-87382611D01*
X137367540Y-87436661D01*
X137365083Y-87481363D01*
X137362227Y-87517652D01*
X137358943Y-87546463D01*
X137355202Y-87568731D01*
X137350974Y-87585390D01*
X137346229Y-87597375D01*
X137340939Y-87605621D01*
X137335073Y-87611062D01*
X137328602Y-87614634D01*
X137321497Y-87617270D01*
X137313728Y-87619906D01*
X137305266Y-87623477D01*
X137300908Y-87625145D01*
X137292395Y-87627111D01*
X137279694Y-87628911D01*
X137261885Y-87630555D01*
X137238049Y-87632047D01*
X137207266Y-87633397D01*
X137168617Y-87634611D01*
X137121182Y-87635697D01*
X137064043Y-87636661D01*
X136996279Y-87637511D01*
X136916971Y-87638253D01*
X136825199Y-87638897D01*
X136720044Y-87639447D01*
X136600587Y-87639913D01*
X136465908Y-87640300D01*
X136315088Y-87640616D01*
X136147206Y-87640869D01*
X135961345Y-87641066D01*
X135756583Y-87641213D01*
X135532002Y-87641318D01*
X135286682Y-87641389D01*
X135019704Y-87641432D01*
X134981321Y-87641437D01*
X134715922Y-87641480D01*
X134472050Y-87641525D01*
X134248783Y-87641548D01*
X134045196Y-87641524D01*
X133860367Y-87641430D01*
X133693373Y-87641243D01*
X133543290Y-87640939D01*
X133409196Y-87640494D01*
X133290166Y-87639885D01*
X133185279Y-87639089D01*
X133093610Y-87638080D01*
X133014237Y-87636837D01*
X132946237Y-87635335D01*
X132888686Y-87633551D01*
X132840662Y-87631461D01*
X132801240Y-87629042D01*
X132769499Y-87626270D01*
X132744514Y-87623121D01*
X132725364Y-87619572D01*
X132711123Y-87615598D01*
X132700871Y-87611178D01*
X132693682Y-87606286D01*
X132688635Y-87600900D01*
X132684805Y-87594996D01*
X132681271Y-87588549D01*
X132677108Y-87581537D01*
X132676025Y-87579687D01*
X132673813Y-87574180D01*
X132671786Y-87565868D01*
X132669938Y-87553809D01*
X132668261Y-87537063D01*
X132666745Y-87514687D01*
X132665383Y-87485740D01*
X132664167Y-87449280D01*
X132663089Y-87404367D01*
X132662140Y-87350057D01*
X132661312Y-87285410D01*
X132660597Y-87209484D01*
X132659987Y-87121338D01*
X132659942Y-87112493D01*
X132951378Y-87112493D01*
X132955260Y-87113765D01*
X132978520Y-87115791D01*
X133020874Y-87117626D01*
X133080132Y-87119227D01*
X133154107Y-87120549D01*
X133240610Y-87121548D01*
X133337452Y-87122180D01*
X133442445Y-87122400D01*
X134140651Y-87122400D01*
X135295090Y-87122400D01*
X135294456Y-87046200D01*
X135295574Y-87004160D01*
X135301304Y-86968334D01*
X135313890Y-86930772D01*
X135335568Y-86882577D01*
X135338789Y-86875897D01*
X135364188Y-86826359D01*
X135390996Y-86778369D01*
X135413917Y-86741466D01*
X135418485Y-86734834D01*
X135440516Y-86703593D01*
X135472693Y-86658654D01*
X135513457Y-86602147D01*
X135561245Y-86536204D01*
X135614498Y-86462957D01*
X135671655Y-86384536D01*
X135731155Y-86303072D01*
X135791437Y-86220698D01*
X135850940Y-86139544D01*
X135908105Y-86061742D01*
X135961370Y-85989423D01*
X136009174Y-85924718D01*
X136049957Y-85869759D01*
X136082158Y-85826676D01*
X136104216Y-85797602D01*
X136114571Y-85784667D01*
X136119044Y-85780351D01*
X136123236Y-85778312D01*
X136126643Y-85780926D01*
X136129325Y-85789986D01*
X136131341Y-85807285D01*
X136132748Y-85834614D01*
X136133605Y-85873765D01*
X136133970Y-85926533D01*
X136133903Y-85994707D01*
X136133460Y-86080082D01*
X136132702Y-86184449D01*
X136131685Y-86309600D01*
X136131308Y-86354300D01*
X136130169Y-86475395D01*
X136128972Y-86576688D01*
X136127636Y-86660262D01*
X136126077Y-86728204D01*
X136124215Y-86782599D01*
X136121966Y-86825532D01*
X136119248Y-86859089D01*
X136115979Y-86885355D01*
X136112078Y-86906416D01*
X136107461Y-86924357D01*
X136099192Y-86950770D01*
X136075583Y-87012772D01*
X136049685Y-87065573D01*
X136024535Y-87102645D01*
X136023339Y-87104075D01*
X136021168Y-87108424D01*
X136023328Y-87112026D01*
X136031644Y-87114951D01*
X136047940Y-87117269D01*
X136074041Y-87119051D01*
X136111771Y-87120367D01*
X136162956Y-87121286D01*
X136229420Y-87121878D01*
X136312987Y-87122215D01*
X136415483Y-87122365D01*
X136538732Y-87122400D01*
X137070296Y-87122400D01*
X137031523Y-87064783D01*
X137025432Y-87055893D01*
X137014976Y-87041069D01*
X137005579Y-87027422D01*
X136997183Y-87013765D01*
X136989733Y-86998911D01*
X136983173Y-86981670D01*
X136977446Y-86960855D01*
X136972495Y-86935280D01*
X136968266Y-86903755D01*
X136964701Y-86865093D01*
X136961744Y-86818107D01*
X136959340Y-86761608D01*
X136957431Y-86694409D01*
X136955962Y-86615322D01*
X136954876Y-86523160D01*
X136954118Y-86416734D01*
X136953630Y-86294857D01*
X136953358Y-86156341D01*
X136953243Y-85999999D01*
X136953231Y-85824642D01*
X136953265Y-85629082D01*
X136953289Y-85412133D01*
X136953280Y-85289513D01*
X136953243Y-85084447D01*
X136953227Y-84900116D01*
X136953288Y-84735334D01*
X136953484Y-84588916D01*
X136953870Y-84459674D01*
X136954505Y-84346422D01*
X136955444Y-84247975D01*
X136956745Y-84163144D01*
X136958464Y-84090744D01*
X136960659Y-84029589D01*
X136963385Y-83978492D01*
X136966701Y-83936267D01*
X136970662Y-83901727D01*
X136975325Y-83873686D01*
X136980747Y-83850958D01*
X136986986Y-83832356D01*
X136994097Y-83816693D01*
X137002138Y-83802784D01*
X137011166Y-83789441D01*
X137021236Y-83775479D01*
X137032407Y-83759711D01*
X137072197Y-83701867D01*
X136012314Y-83701867D01*
X136050311Y-83764966D01*
X136064993Y-83790005D01*
X136079531Y-83817586D01*
X136091627Y-83845700D01*
X136101532Y-83876551D01*
X136109494Y-83912344D01*
X136115761Y-83955283D01*
X136120582Y-84007574D01*
X136124206Y-84071419D01*
X136126881Y-84149025D01*
X136128857Y-84242594D01*
X136130382Y-84354333D01*
X136131704Y-84486445D01*
X136132613Y-84606434D01*
X136133020Y-84723063D01*
X136132767Y-84818531D01*
X136131857Y-84892556D01*
X136130293Y-84944855D01*
X136128079Y-84975149D01*
X136125220Y-84983156D01*
X136122161Y-84979858D01*
X136104006Y-84958408D01*
X136074275Y-84921889D01*
X136034639Y-84872442D01*
X135986771Y-84812207D01*
X135932343Y-84743327D01*
X135873027Y-84667943D01*
X135810495Y-84588196D01*
X135746421Y-84506228D01*
X135682475Y-84424180D01*
X135620331Y-84344194D01*
X135561661Y-84268411D01*
X135508137Y-84198973D01*
X135461430Y-84138021D01*
X135423214Y-84087696D01*
X135395161Y-84050140D01*
X135378943Y-84027495D01*
X135333635Y-83955212D01*
X135293661Y-83875463D01*
X135272130Y-83807188D01*
X135268827Y-83749844D01*
X135274116Y-83701867D01*
X134142356Y-83702117D01*
X134181867Y-83732722D01*
X134191248Y-83740089D01*
X134254183Y-83794438D01*
X134322997Y-83862259D01*
X134399596Y-83945516D01*
X134485888Y-84046178D01*
X134503052Y-84066847D01*
X134543833Y-84116409D01*
X134593588Y-84177326D01*
X134650955Y-84247898D01*
X134714569Y-84326424D01*
X134783069Y-84411204D01*
X134855090Y-84500537D01*
X134929270Y-84592722D01*
X134944517Y-84611702D01*
X135004246Y-84686060D01*
X135078653Y-84778848D01*
X135151131Y-84869388D01*
X135220314Y-84955978D01*
X135284841Y-85036918D01*
X135343347Y-85110506D01*
X135394470Y-85175044D01*
X135436847Y-85228829D01*
X135469115Y-85270162D01*
X135489910Y-85297342D01*
X135497869Y-85308668D01*
X135496111Y-85312771D01*
X135483230Y-85333334D01*
X135458885Y-85369561D01*
X135424247Y-85419824D01*
X135380486Y-85482492D01*
X135328775Y-85555936D01*
X135270284Y-85638527D01*
X135206184Y-85728636D01*
X135137646Y-85824631D01*
X135065843Y-85924885D01*
X134991944Y-86027768D01*
X134917121Y-86131650D01*
X134842545Y-86234901D01*
X134769387Y-86335892D01*
X134698819Y-86432994D01*
X134632011Y-86524577D01*
X134570135Y-86609011D01*
X134514361Y-86684667D01*
X134465862Y-86749916D01*
X134425807Y-86803128D01*
X134395369Y-86842673D01*
X134374944Y-86868026D01*
X134328899Y-86922295D01*
X134278612Y-86978775D01*
X134231815Y-87028669D01*
X134140651Y-87122400D01*
X133442445Y-87122400D01*
X133511356Y-87122349D01*
X133609607Y-87122091D01*
X133699030Y-87121637D01*
X133777333Y-87121010D01*
X133842223Y-87120235D01*
X133891411Y-87119335D01*
X133922604Y-87118334D01*
X133933511Y-87117257D01*
X133932322Y-87114037D01*
X133922176Y-87096452D01*
X133905040Y-87070158D01*
X133896540Y-87057691D01*
X133887329Y-87043622D01*
X133879233Y-87029351D01*
X133872185Y-87013479D01*
X133866117Y-86994609D01*
X133860961Y-86971341D01*
X133856651Y-86942278D01*
X133853119Y-86906021D01*
X133850297Y-86861170D01*
X133848118Y-86806328D01*
X133846514Y-86740097D01*
X133845419Y-86661077D01*
X133844765Y-86567871D01*
X133844484Y-86459079D01*
X133844509Y-86333303D01*
X133844772Y-86189145D01*
X133845206Y-86025207D01*
X133845745Y-85840089D01*
X133846279Y-85661232D01*
X133846805Y-85502374D01*
X133847350Y-85363316D01*
X133847945Y-85242665D01*
X133848619Y-85139028D01*
X133849403Y-85051011D01*
X133850326Y-84977223D01*
X133851419Y-84916269D01*
X133852712Y-84866757D01*
X133854235Y-84827293D01*
X133856019Y-84796484D01*
X133858092Y-84772938D01*
X133860486Y-84755260D01*
X133863230Y-84742059D01*
X133866356Y-84731940D01*
X133869892Y-84723511D01*
X133873791Y-84715375D01*
X133893438Y-84678544D01*
X133912225Y-84648391D01*
X133913272Y-84646908D01*
X133927602Y-84624659D01*
X133933511Y-84611702D01*
X133932504Y-84611249D01*
X133915305Y-84609803D01*
X133878656Y-84608480D01*
X133824962Y-84607316D01*
X133756630Y-84606347D01*
X133676064Y-84605611D01*
X133585670Y-84605142D01*
X133487853Y-84604978D01*
X133042195Y-84604978D01*
X133039120Y-85781845D01*
X133036045Y-86958711D01*
X133009407Y-87017622D01*
X132997485Y-87042183D01*
X132980246Y-87072434D01*
X132967074Y-87089560D01*
X132959076Y-87097591D01*
X132951378Y-87112493D01*
X132659942Y-87112493D01*
X132659474Y-87020029D01*
X132659050Y-86904617D01*
X132658706Y-86774160D01*
X132658434Y-86627716D01*
X132658227Y-86464344D01*
X132658076Y-86283101D01*
X132657972Y-86083048D01*
X132657908Y-85863241D01*
X132657876Y-85622739D01*
X132657867Y-85360602D01*
X132657867Y-83169031D01*
X132696249Y-83130649D01*
X132723355Y-83106911D01*
X132750253Y-83095111D01*
X132786560Y-83092267D01*
X132838489Y-83092267D01*
X132838489Y-83180206D01*
X132840427Y-83230102D01*
X132859199Y-83340523D01*
X132896217Y-83441987D01*
X132949369Y-83533152D01*
X133016546Y-83612673D01*
X133095638Y-83679205D01*
X133184534Y-83731406D01*
X133281125Y-83767930D01*
X133383300Y-83787434D01*
X133488950Y-83788573D01*
X133595964Y-83770005D01*
X133702232Y-83730384D01*
X133799219Y-83672516D01*
X133884293Y-83597684D01*
X133953015Y-83509615D01*
X134003918Y-83410616D01*
X134035535Y-83302993D01*
X134046400Y-83189054D01*
X134046400Y-83092267D01*
X135666753Y-83092267D01*
X135877897Y-83092280D01*
X136082020Y-83092330D01*
X136265686Y-83092430D01*
X136429991Y-83092592D01*
X136576029Y-83092829D01*
X136704894Y-83093153D01*
X136817683Y-83093575D01*
X136915488Y-83094109D01*
X136999404Y-83094767D01*
X137070527Y-83095561D01*
X137129950Y-83096504D01*
X137178768Y-83097608D01*
X137218077Y-83098884D01*
X137248969Y-83100347D01*
X137272541Y-83102007D01*
X137289886Y-83103878D01*
X137302099Y-83105972D01*
X137310275Y-83108300D01*
X137315508Y-83110876D01*
X137321504Y-83114445D01*
X137328279Y-83117978D01*
X137334478Y-83121488D01*
X137340126Y-83125918D01*
X137345247Y-83132208D01*
X137349869Y-83141301D01*
X137354015Y-83154139D01*
X137357713Y-83171662D01*
X137360987Y-83194813D01*
X137363863Y-83224534D01*
X137366367Y-83261765D01*
X137368524Y-83307449D01*
X137370360Y-83362527D01*
X137371900Y-83427941D01*
X137373170Y-83504633D01*
X137374195Y-83593544D01*
X137375001Y-83695617D01*
X137375034Y-83701867D01*
X137375614Y-83811792D01*
G36*
X137375614Y-83811792D02*
G01*
X137376059Y-83943011D01*
X137376362Y-84090216D01*
X137376548Y-84254349D01*
X137376642Y-84436352D01*
X137376671Y-84637165D01*
X137376661Y-84857732D01*
X137376636Y-85098992D01*
X137376622Y-85361889D01*
X137376622Y-85404040D01*
X137376646Y-85664668D01*
X137376685Y-85903796D01*
X137376708Y-86122360D01*
X137376687Y-86321295D01*
X137376593Y-86501535D01*
X137376395Y-86664015D01*
X137376063Y-86809670D01*
X137375569Y-86939434D01*
X137374883Y-87054243D01*
X137373976Y-87155030D01*
X137372817Y-87242730D01*
X137371378Y-87318279D01*
X137369629Y-87382611D01*
X137367540Y-87436661D01*
X137365083Y-87481363D01*
X137362227Y-87517652D01*
X137358943Y-87546463D01*
X137355202Y-87568731D01*
X137350974Y-87585390D01*
X137346229Y-87597375D01*
X137340939Y-87605621D01*
X137335073Y-87611062D01*
X137328602Y-87614634D01*
X137321497Y-87617270D01*
X137313728Y-87619906D01*
X137305266Y-87623477D01*
X137300908Y-87625145D01*
X137292395Y-87627111D01*
X137279694Y-87628911D01*
X137261885Y-87630555D01*
X137238049Y-87632047D01*
X137207266Y-87633397D01*
X137168617Y-87634611D01*
X137121182Y-87635697D01*
X137064043Y-87636661D01*
X136996279Y-87637511D01*
X136916971Y-87638253D01*
X136825199Y-87638897D01*
X136720044Y-87639447D01*
X136600587Y-87639913D01*
X136465908Y-87640300D01*
X136315088Y-87640616D01*
X136147206Y-87640869D01*
X135961345Y-87641066D01*
X135756583Y-87641213D01*
X135532002Y-87641318D01*
X135286682Y-87641389D01*
X135019704Y-87641432D01*
X134981321Y-87641437D01*
X134715922Y-87641480D01*
X134472050Y-87641525D01*
X134248783Y-87641548D01*
X134045196Y-87641524D01*
X133860367Y-87641430D01*
X133693373Y-87641243D01*
X133543290Y-87640939D01*
X133409196Y-87640494D01*
X133290166Y-87639885D01*
X133185279Y-87639089D01*
X133093610Y-87638080D01*
X133014237Y-87636837D01*
X132946237Y-87635335D01*
X132888686Y-87633551D01*
X132840662Y-87631461D01*
X132801240Y-87629042D01*
X132769499Y-87626270D01*
X132744514Y-87623121D01*
X132725364Y-87619572D01*
X132711123Y-87615598D01*
X132700871Y-87611178D01*
X132693682Y-87606286D01*
X132688635Y-87600900D01*
X132684805Y-87594996D01*
X132681271Y-87588549D01*
X132677108Y-87581537D01*
X132676025Y-87579687D01*
X132673813Y-87574180D01*
X132671786Y-87565868D01*
X132669938Y-87553809D01*
X132668261Y-87537063D01*
X132666745Y-87514687D01*
X132665383Y-87485740D01*
X132664167Y-87449280D01*
X132663089Y-87404367D01*
X132662140Y-87350057D01*
X132661312Y-87285410D01*
X132660597Y-87209484D01*
X132659987Y-87121338D01*
X132659942Y-87112493D01*
X132951378Y-87112493D01*
X132955260Y-87113765D01*
X132978520Y-87115791D01*
X133020874Y-87117626D01*
X133080132Y-87119227D01*
X133154107Y-87120549D01*
X133240610Y-87121548D01*
X133337452Y-87122180D01*
X133442445Y-87122400D01*
X134140651Y-87122400D01*
X135295090Y-87122400D01*
X135294456Y-87046200D01*
X135295574Y-87004160D01*
X135301304Y-86968334D01*
X135313890Y-86930772D01*
X135335568Y-86882577D01*
X135338789Y-86875897D01*
X135364188Y-86826359D01*
X135390996Y-86778369D01*
X135413917Y-86741466D01*
X135418485Y-86734834D01*
X135440516Y-86703593D01*
X135472693Y-86658654D01*
X135513457Y-86602147D01*
X135561245Y-86536204D01*
X135614498Y-86462957D01*
X135671655Y-86384536D01*
X135731155Y-86303072D01*
X135791437Y-86220698D01*
X135850940Y-86139544D01*
X135908105Y-86061742D01*
X135961370Y-85989423D01*
X136009174Y-85924718D01*
X136049957Y-85869759D01*
X136082158Y-85826676D01*
X136104216Y-85797602D01*
X136114571Y-85784667D01*
X136119044Y-85780351D01*
X136123236Y-85778312D01*
X136126643Y-85780926D01*
X136129325Y-85789986D01*
X136131341Y-85807285D01*
X136132748Y-85834614D01*
X136133605Y-85873765D01*
X136133970Y-85926533D01*
X136133903Y-85994707D01*
X136133460Y-86080082D01*
X136132702Y-86184449D01*
X136131685Y-86309600D01*
X136131308Y-86354300D01*
X136130169Y-86475395D01*
X136128972Y-86576688D01*
X136127636Y-86660262D01*
X136126077Y-86728204D01*
X136124215Y-86782599D01*
X136121966Y-86825532D01*
X136119248Y-86859089D01*
X136115979Y-86885355D01*
X136112078Y-86906416D01*
X136107461Y-86924357D01*
X136099192Y-86950770D01*
X136075583Y-87012772D01*
X136049685Y-87065573D01*
X136024535Y-87102645D01*
X136023339Y-87104075D01*
X136021168Y-87108424D01*
X136023328Y-87112026D01*
X136031644Y-87114951D01*
X136047940Y-87117269D01*
X136074041Y-87119051D01*
X136111771Y-87120367D01*
X136162956Y-87121286D01*
X136229420Y-87121878D01*
X136312987Y-87122215D01*
X136415483Y-87122365D01*
X136538732Y-87122400D01*
X137070296Y-87122400D01*
X137031523Y-87064783D01*
X137025432Y-87055893D01*
X137014976Y-87041069D01*
X137005579Y-87027422D01*
X136997183Y-87013765D01*
X136989733Y-86998911D01*
X136983173Y-86981670D01*
X136977446Y-86960855D01*
X136972495Y-86935280D01*
X136968266Y-86903755D01*
X136964701Y-86865093D01*
X136961744Y-86818107D01*
X136959340Y-86761608D01*
X136957431Y-86694409D01*
X136955962Y-86615322D01*
X136954876Y-86523160D01*
X136954118Y-86416734D01*
X136953630Y-86294857D01*
X136953358Y-86156341D01*
X136953243Y-85999999D01*
X136953231Y-85824642D01*
X136953265Y-85629082D01*
X136953289Y-85412133D01*
X136953280Y-85289513D01*
X136953243Y-85084447D01*
X136953227Y-84900116D01*
X136953288Y-84735334D01*
X136953484Y-84588916D01*
X136953870Y-84459674D01*
X136954505Y-84346422D01*
X136955444Y-84247975D01*
X136956745Y-84163144D01*
X136958464Y-84090744D01*
X136960659Y-84029589D01*
X136963385Y-83978492D01*
X136966701Y-83936267D01*
X136970662Y-83901727D01*
X136975325Y-83873686D01*
X136980747Y-83850958D01*
X136986986Y-83832356D01*
X136994097Y-83816693D01*
X137002138Y-83802784D01*
X137011166Y-83789441D01*
X137021236Y-83775479D01*
X137032407Y-83759711D01*
X137072197Y-83701867D01*
X136012314Y-83701867D01*
X136050311Y-83764966D01*
X136064993Y-83790005D01*
X136079531Y-83817586D01*
X136091627Y-83845700D01*
X136101532Y-83876551D01*
X136109494Y-83912344D01*
X136115761Y-83955283D01*
X136120582Y-84007574D01*
X136124206Y-84071419D01*
X136126881Y-84149025D01*
X136128857Y-84242594D01*
X136130382Y-84354333D01*
X136131704Y-84486445D01*
X136132613Y-84606434D01*
X136133020Y-84723063D01*
X136132767Y-84818531D01*
X136131857Y-84892556D01*
X136130293Y-84944855D01*
X136128079Y-84975149D01*
X136125220Y-84983156D01*
X136122161Y-84979858D01*
X136104006Y-84958408D01*
X136074275Y-84921889D01*
X136034639Y-84872442D01*
X135986771Y-84812207D01*
X135932343Y-84743327D01*
X135873027Y-84667943D01*
X135810495Y-84588196D01*
X135746421Y-84506228D01*
X135682475Y-84424180D01*
X135620331Y-84344194D01*
X135561661Y-84268411D01*
X135508137Y-84198973D01*
X135461430Y-84138021D01*
X135423214Y-84087696D01*
X135395161Y-84050140D01*
X135378943Y-84027495D01*
X135333635Y-83955212D01*
X135293661Y-83875463D01*
X135272130Y-83807188D01*
X135268827Y-83749844D01*
X135274116Y-83701867D01*
X134142356Y-83702117D01*
X134181867Y-83732722D01*
X134191248Y-83740089D01*
X134254183Y-83794438D01*
X134322997Y-83862259D01*
X134399596Y-83945516D01*
X134485888Y-84046178D01*
X134503052Y-84066847D01*
X134543833Y-84116409D01*
X134593588Y-84177326D01*
X134650955Y-84247898D01*
X134714569Y-84326424D01*
X134783069Y-84411204D01*
X134855090Y-84500537D01*
X134929270Y-84592722D01*
X134944517Y-84611702D01*
X135004246Y-84686060D01*
X135078653Y-84778848D01*
X135151131Y-84869388D01*
X135220314Y-84955978D01*
X135284841Y-85036918D01*
X135343347Y-85110506D01*
X135394470Y-85175044D01*
X135436847Y-85228829D01*
X135469115Y-85270162D01*
X135489910Y-85297342D01*
X135497869Y-85308668D01*
X135496111Y-85312771D01*
X135483230Y-85333334D01*
X135458885Y-85369561D01*
X135424247Y-85419824D01*
X135380486Y-85482492D01*
X135328775Y-85555936D01*
X135270284Y-85638527D01*
X135206184Y-85728636D01*
X135137646Y-85824631D01*
X135065843Y-85924885D01*
X134991944Y-86027768D01*
X134917121Y-86131650D01*
X134842545Y-86234901D01*
X134769387Y-86335892D01*
X134698819Y-86432994D01*
X134632011Y-86524577D01*
X134570135Y-86609011D01*
X134514361Y-86684667D01*
X134465862Y-86749916D01*
X134425807Y-86803128D01*
X134395369Y-86842673D01*
X134374944Y-86868026D01*
X134328899Y-86922295D01*
X134278612Y-86978775D01*
X134231815Y-87028669D01*
X134140651Y-87122400D01*
X133442445Y-87122400D01*
X133511356Y-87122349D01*
X133609607Y-87122091D01*
X133699030Y-87121637D01*
X133777333Y-87121010D01*
X133842223Y-87120235D01*
X133891411Y-87119335D01*
X133922604Y-87118334D01*
X133933511Y-87117257D01*
X133932322Y-87114037D01*
X133922176Y-87096452D01*
X133905040Y-87070158D01*
X133896540Y-87057691D01*
X133887329Y-87043622D01*
X133879233Y-87029351D01*
X133872185Y-87013479D01*
X133866117Y-86994609D01*
X133860961Y-86971341D01*
X133856651Y-86942278D01*
X133853119Y-86906021D01*
X133850297Y-86861170D01*
X133848118Y-86806328D01*
X133846514Y-86740097D01*
X133845419Y-86661077D01*
X133844765Y-86567871D01*
X133844484Y-86459079D01*
X133844509Y-86333303D01*
X133844772Y-86189145D01*
X133845206Y-86025207D01*
X133845745Y-85840089D01*
X133846279Y-85661232D01*
X133846805Y-85502374D01*
X133847350Y-85363316D01*
X133847945Y-85242665D01*
X133848619Y-85139028D01*
X133849403Y-85051011D01*
X133850326Y-84977223D01*
X133851419Y-84916269D01*
X133852712Y-84866757D01*
X133854235Y-84827293D01*
X133856019Y-84796484D01*
X133858092Y-84772938D01*
X133860486Y-84755260D01*
X133863230Y-84742059D01*
X133866356Y-84731940D01*
X133869892Y-84723511D01*
X133873791Y-84715375D01*
X133893438Y-84678544D01*
X133912225Y-84648391D01*
X133913272Y-84646908D01*
X133927602Y-84624659D01*
X133933511Y-84611702D01*
X133932504Y-84611249D01*
X133915305Y-84609803D01*
X133878656Y-84608480D01*
X133824962Y-84607316D01*
X133756630Y-84606347D01*
X133676064Y-84605611D01*
X133585670Y-84605142D01*
X133487853Y-84604978D01*
X133042195Y-84604978D01*
X133039120Y-85781845D01*
X133036045Y-86958711D01*
X133009407Y-87017622D01*
X132997485Y-87042183D01*
X132980246Y-87072434D01*
X132967074Y-87089560D01*
X132959076Y-87097591D01*
X132951378Y-87112493D01*
X132659942Y-87112493D01*
X132659474Y-87020029D01*
X132659050Y-86904617D01*
X132658706Y-86774160D01*
X132658434Y-86627716D01*
X132658227Y-86464344D01*
X132658076Y-86283101D01*
X132657972Y-86083048D01*
X132657908Y-85863241D01*
X132657876Y-85622739D01*
X132657867Y-85360602D01*
X132657867Y-83169031D01*
X132696249Y-83130649D01*
X132723355Y-83106911D01*
X132750253Y-83095111D01*
X132786560Y-83092267D01*
X132838489Y-83092267D01*
X132838489Y-83180206D01*
X132840427Y-83230102D01*
X132859199Y-83340523D01*
X132896217Y-83441987D01*
X132949369Y-83533152D01*
X133016546Y-83612673D01*
X133095638Y-83679205D01*
X133184534Y-83731406D01*
X133281125Y-83767930D01*
X133383300Y-83787434D01*
X133488950Y-83788573D01*
X133595964Y-83770005D01*
X133702232Y-83730384D01*
X133799219Y-83672516D01*
X133884293Y-83597684D01*
X133953015Y-83509615D01*
X134003918Y-83410616D01*
X134035535Y-83302993D01*
X134046400Y-83189054D01*
X134046400Y-83092267D01*
X135666753Y-83092267D01*
X135877897Y-83092280D01*
X136082020Y-83092330D01*
X136265686Y-83092430D01*
X136429991Y-83092592D01*
X136576029Y-83092829D01*
X136704894Y-83093153D01*
X136817683Y-83093575D01*
X136915488Y-83094109D01*
X136999404Y-83094767D01*
X137070527Y-83095561D01*
X137129950Y-83096504D01*
X137178768Y-83097608D01*
X137218077Y-83098884D01*
X137248969Y-83100347D01*
X137272541Y-83102007D01*
X137289886Y-83103878D01*
X137302099Y-83105972D01*
X137310275Y-83108300D01*
X137315508Y-83110876D01*
X137321504Y-83114445D01*
X137328279Y-83117978D01*
X137334478Y-83121488D01*
X137340126Y-83125918D01*
X137345247Y-83132208D01*
X137349869Y-83141301D01*
X137354015Y-83154139D01*
X137357713Y-83171662D01*
X137360987Y-83194813D01*
X137363863Y-83224534D01*
X137366367Y-83261765D01*
X137368524Y-83307449D01*
X137370360Y-83362527D01*
X137371900Y-83427941D01*
X137373170Y-83504633D01*
X137374195Y-83593544D01*
X137375001Y-83695617D01*
X137375034Y-83701867D01*
X137375614Y-83811792D01*
G37*
D11*
%TO.C,G\u002A\u002A\u002A*%
G36*
X103972662Y-83366102D02*
G01*
X104038987Y-83371020D01*
X104117271Y-83382197D01*
X104194572Y-83399183D01*
X104271062Y-83422023D01*
X104346912Y-83450764D01*
X104422295Y-83485451D01*
X104429058Y-83488864D01*
X104504113Y-83530269D01*
X104575144Y-83576117D01*
X104642103Y-83626362D01*
X104704944Y-83680957D01*
X104763621Y-83739856D01*
X104818086Y-83803013D01*
X104868293Y-83870380D01*
X104914196Y-83941911D01*
X104955747Y-84017560D01*
X104967011Y-84040276D01*
X104993130Y-84097702D01*
X105015251Y-84154319D01*
X105033767Y-84211416D01*
X105049070Y-84270285D01*
X105061554Y-84332217D01*
X105071609Y-84398500D01*
X105071614Y-84398538D01*
X105072038Y-84401969D01*
X105072439Y-84405681D01*
X105072818Y-84409837D01*
X105073177Y-84414602D01*
X105073514Y-84420138D01*
X105073832Y-84426609D01*
X105074130Y-84434178D01*
X105074409Y-84443008D01*
X105074671Y-84453264D01*
X105074914Y-84465108D01*
X105075141Y-84478703D01*
X105075351Y-84494213D01*
X105075546Y-84511802D01*
X105075725Y-84531633D01*
X105075890Y-84553868D01*
X105076041Y-84578672D01*
X105076179Y-84606208D01*
X105076304Y-84636639D01*
X105076417Y-84670129D01*
X105076519Y-84706840D01*
X105076609Y-84746937D01*
X105076690Y-84790582D01*
X105076760Y-84837939D01*
X105076822Y-84889172D01*
X105076875Y-84944443D01*
X105076921Y-85003917D01*
X105076959Y-85067755D01*
X105076990Y-85136123D01*
X105077016Y-85209183D01*
X105077036Y-85287098D01*
X105077052Y-85370032D01*
X105077063Y-85458149D01*
X105077071Y-85551611D01*
X105077075Y-85650582D01*
X105077078Y-85755225D01*
X105077078Y-85865704D01*
X105077078Y-85937197D01*
X105077078Y-86043704D01*
X105077076Y-86144475D01*
X105077072Y-86239668D01*
X105077066Y-86329443D01*
X105077057Y-86413961D01*
X105077044Y-86493380D01*
X105077026Y-86567860D01*
X105077004Y-86637562D01*
X105076975Y-86702644D01*
X105076940Y-86763266D01*
X105076897Y-86819589D01*
X105076847Y-86871771D01*
X105076788Y-86919972D01*
X105076720Y-86964352D01*
X105076642Y-87005070D01*
X105076554Y-87042287D01*
X105076454Y-87076161D01*
X105076343Y-87106853D01*
X105076219Y-87134522D01*
X105076082Y-87159327D01*
X105075931Y-87181429D01*
X105075765Y-87200987D01*
X105075584Y-87218161D01*
X105075387Y-87233110D01*
X105075174Y-87245994D01*
X105074944Y-87256973D01*
X105074695Y-87266205D01*
X105074428Y-87273852D01*
X105074142Y-87280072D01*
X105073836Y-87285026D01*
X105073509Y-87288872D01*
X105073161Y-87291771D01*
X105072791Y-87293881D01*
X105072399Y-87295364D01*
X105071983Y-87296378D01*
X105071543Y-87297083D01*
X105071079Y-87297639D01*
X105064616Y-87303242D01*
X105056082Y-87308288D01*
X105046725Y-87310692D01*
X105036585Y-87310998D01*
X105031235Y-87310505D01*
X105020437Y-87309727D01*
X105006733Y-87308881D01*
X104991848Y-87308080D01*
X104965062Y-87306336D01*
X104893328Y-87297763D01*
X104821066Y-87283639D01*
X104748798Y-87264192D01*
X104677048Y-87239654D01*
X104606339Y-87210253D01*
X104537193Y-87176220D01*
X104470133Y-87137783D01*
X104405683Y-87095173D01*
X104344365Y-87048619D01*
X104286703Y-86998352D01*
X104237412Y-86949878D01*
X104182095Y-86888677D01*
X104131936Y-86824946D01*
X104086610Y-86758234D01*
X104045792Y-86688091D01*
X104009158Y-86614067D01*
X104004085Y-86602782D01*
X103975814Y-86533285D01*
X103952727Y-86463649D01*
X103934545Y-86392803D01*
X103920985Y-86319679D01*
X103911768Y-86243210D01*
X103911765Y-86243171D01*
X103911505Y-86237177D01*
X103911256Y-86225226D01*
X103911018Y-86207358D01*
X103910792Y-86183613D01*
X103910577Y-86154033D01*
X103910374Y-86118659D01*
X103910183Y-86077531D01*
X103910003Y-86030689D01*
X103909835Y-85978176D01*
X103909679Y-85920031D01*
X103909535Y-85856296D01*
X103909403Y-85787010D01*
X103909283Y-85712216D01*
X103909175Y-85631953D01*
X103909080Y-85546263D01*
X103908997Y-85455186D01*
X103908927Y-85358763D01*
X103908869Y-85257035D01*
X103908824Y-85150043D01*
X103908791Y-85037827D01*
X103908772Y-84920428D01*
X103908765Y-84797887D01*
X103908762Y-83385560D01*
X103919421Y-83374901D01*
X103930079Y-83364243D01*
X103972662Y-83366102D01*
G37*
G36*
X99789013Y-81487892D02*
G01*
X99827959Y-81490458D01*
X99870258Y-81495168D01*
X99914579Y-81501812D01*
X99959590Y-81510180D01*
X100003956Y-81520063D01*
X100046346Y-81531250D01*
X100071509Y-81538898D01*
X100130754Y-81559947D01*
X100191070Y-81585356D01*
X100251203Y-81614495D01*
X100309896Y-81646732D01*
X100365896Y-81681437D01*
X100417945Y-81717979D01*
X100444577Y-81738519D01*
X100509576Y-81793820D01*
X100570060Y-81853052D01*
X100625968Y-81916142D01*
X100677238Y-81983019D01*
X100723809Y-82053611D01*
X100765621Y-82127845D01*
X100774464Y-82145197D01*
X100802264Y-82204462D01*
X100825980Y-82263387D01*
X100845979Y-82323153D01*
X100862627Y-82384940D01*
X100876293Y-82449927D01*
X100887342Y-82519296D01*
X100887730Y-82522378D01*
X100888109Y-82526033D01*
X100888469Y-82530336D01*
X100888809Y-82535448D01*
X100889130Y-82541530D01*
X100889434Y-82548747D01*
X100889720Y-82557258D01*
X100889989Y-82567228D01*
X100890242Y-82578817D01*
X100890480Y-82592188D01*
X100890703Y-82607504D01*
X100890912Y-82624926D01*
X100891108Y-82644617D01*
X100891291Y-82666739D01*
X100891463Y-82691454D01*
X100891622Y-82718924D01*
X100891772Y-82749312D01*
X100891911Y-82782779D01*
X100892041Y-82819488D01*
X100892162Y-82859601D01*
X100892276Y-82903280D01*
X100892382Y-82950687D01*
X100892481Y-83001986D01*
X100892575Y-83057337D01*
X100892663Y-83116902D01*
X100892747Y-83180845D01*
X100892827Y-83249328D01*
X100892903Y-83322512D01*
X100892977Y-83400559D01*
X100893050Y-83483633D01*
X100893120Y-83571895D01*
X100893191Y-83665507D01*
X100893261Y-83764631D01*
X100893333Y-83869430D01*
X100893405Y-83980066D01*
X100893455Y-84058717D01*
X100893520Y-84171979D01*
X100893573Y-84279432D01*
X100893615Y-84381189D01*
X100893644Y-84477365D01*
X100893662Y-84568074D01*
X100893667Y-84653429D01*
X100893660Y-84733544D01*
X100893640Y-84808533D01*
X100893607Y-84878510D01*
X100893561Y-84943589D01*
X100893502Y-85003885D01*
X100893429Y-85059510D01*
X100893343Y-85110579D01*
X100893242Y-85157205D01*
X100893128Y-85199504D01*
X100892999Y-85237588D01*
X100892855Y-85271571D01*
X100892697Y-85301567D01*
X100892524Y-85327691D01*
X100892336Y-85350057D01*
X100892132Y-85368777D01*
X100891913Y-85383966D01*
X100891678Y-85395739D01*
X100891428Y-85404208D01*
X100891161Y-85409488D01*
X100890878Y-85411692D01*
X100886615Y-85418825D01*
X100879929Y-85425940D01*
X100878328Y-85427112D01*
X100873521Y-85429513D01*
X100866923Y-85430953D01*
X100857135Y-85431653D01*
X100842755Y-85431838D01*
X100833821Y-85431743D01*
X100801215Y-85430141D01*
X100764763Y-85426713D01*
X100725828Y-85421649D01*
X100685776Y-85415145D01*
X100645973Y-85407392D01*
X100607782Y-85398584D01*
X100537393Y-85378145D01*
X100465548Y-85351670D01*
X100394479Y-85319899D01*
X100324839Y-85283177D01*
X100257279Y-85241849D01*
X100192452Y-85196258D01*
X100131010Y-85146749D01*
X100107358Y-85125586D01*
X100071241Y-85090652D01*
X100035067Y-85052781D01*
X100000164Y-85013433D01*
X99967857Y-84974067D01*
X99939476Y-84936142D01*
X99939119Y-84935638D01*
X99898364Y-84873837D01*
X99861164Y-84809035D01*
X99827872Y-84742060D01*
X99798840Y-84673741D01*
X99774420Y-84604904D01*
X99754964Y-84536378D01*
X99740824Y-84468989D01*
X99739854Y-84463441D01*
X99738777Y-84457519D01*
X99737757Y-84452041D01*
X99736794Y-84446844D01*
X99735885Y-84441761D01*
X99735029Y-84436627D01*
X99734224Y-84431278D01*
X99733468Y-84425547D01*
X99732761Y-84419271D01*
X99732099Y-84412283D01*
X99731482Y-84404418D01*
X99730907Y-84395511D01*
X99730374Y-84385397D01*
X99729880Y-84373910D01*
X99729423Y-84360886D01*
X99729002Y-84346159D01*
X99728616Y-84329563D01*
X99728263Y-84310934D01*
X99727940Y-84290107D01*
X99727646Y-84266916D01*
X99727380Y-84241195D01*
X99727140Y-84212781D01*
X99726925Y-84181506D01*
X99726731Y-84147207D01*
X99726559Y-84109718D01*
X99726405Y-84068874D01*
X99726270Y-84024509D01*
X99726149Y-83976458D01*
X99726043Y-83924557D01*
X99725950Y-83868639D01*
X99725867Y-83808539D01*
X99725793Y-83744093D01*
X99725727Y-83675135D01*
X99725666Y-83601500D01*
X99725609Y-83523022D01*
X99725554Y-83439537D01*
X99725501Y-83350879D01*
X99725446Y-83256883D01*
X99725388Y-83157384D01*
X99725326Y-83052215D01*
X99725257Y-82941214D01*
X99724354Y-81507923D01*
X99734586Y-81497691D01*
X99738360Y-81494023D01*
X99743198Y-81490329D01*
X99748605Y-81488371D01*
X99756390Y-81487600D01*
X99768364Y-81487469D01*
X99789013Y-81487892D01*
G37*
G36*
X101924263Y-83344198D02*
G01*
X101959184Y-83344200D01*
X102042031Y-83344202D01*
X102119191Y-83344205D01*
X102190887Y-83344214D01*
X102257340Y-83344231D01*
X102318773Y-83344260D01*
X102375409Y-83344305D01*
X102427471Y-83344370D01*
X102475179Y-83344457D01*
X102518758Y-83344570D01*
X102558430Y-83344714D01*
X102594417Y-83344890D01*
X102626941Y-83345104D01*
X102656225Y-83345358D01*
X102682492Y-83345657D01*
X102705964Y-83346002D01*
X102726863Y-83346399D01*
X102745412Y-83346851D01*
X102761834Y-83347360D01*
X102776350Y-83347932D01*
X102789184Y-83348568D01*
X102800558Y-83349274D01*
X102810694Y-83350052D01*
X102819815Y-83350905D01*
X102828143Y-83351838D01*
X102835902Y-83352854D01*
X102843312Y-83353957D01*
X102850597Y-83355149D01*
X102857979Y-83356435D01*
X102865681Y-83357818D01*
X102873925Y-83359302D01*
X102901057Y-83364554D01*
X102974019Y-83382661D01*
X103045939Y-83406236D01*
X103116267Y-83434994D01*
X103184449Y-83468647D01*
X103249935Y-83506906D01*
X103312173Y-83549484D01*
X103370611Y-83596094D01*
X103424697Y-83646447D01*
X103463365Y-83687133D01*
X103509885Y-83741708D01*
X103551436Y-83797646D01*
X103588603Y-83855750D01*
X103621974Y-83916826D01*
X103628336Y-83929627D01*
X103651824Y-83980786D01*
X103671865Y-84031609D01*
X103688830Y-84083320D01*
X103703091Y-84137143D01*
X103715019Y-84194303D01*
X103724987Y-84256023D01*
X103725628Y-84260850D01*
X103726218Y-84266070D01*
X103726756Y-84271936D01*
X103727245Y-84278714D01*
X103727686Y-84286671D01*
X103728084Y-84296077D01*
X103728439Y-84307198D01*
X103728754Y-84320303D01*
X103729032Y-84335658D01*
X103729274Y-84353532D01*
X103729484Y-84374192D01*
X103729663Y-84397907D01*
X103729814Y-84424943D01*
X103729939Y-84455569D01*
X103730040Y-84490052D01*
X103730121Y-84528661D01*
X103730182Y-84571661D01*
X103730228Y-84619323D01*
X103730259Y-84671912D01*
X103730278Y-84729698D01*
X103730288Y-84792947D01*
X103730290Y-84861927D01*
X103730290Y-84911372D01*
X103730284Y-84975930D01*
X103730272Y-85034925D01*
X103730250Y-85088610D01*
X103730217Y-85137240D01*
X103730169Y-85181070D01*
X103730105Y-85220354D01*
X103730023Y-85255347D01*
X103729918Y-85286302D01*
X103729791Y-85313476D01*
X103729637Y-85337121D01*
X103729455Y-85357492D01*
X103729242Y-85374844D01*
X103728996Y-85389431D01*
X103728714Y-85401508D01*
X103728395Y-85411329D01*
X103728035Y-85419148D01*
X103727632Y-85425221D01*
X103727184Y-85429801D01*
X103726689Y-85433142D01*
X103726144Y-85435500D01*
X103725547Y-85437129D01*
X103724896Y-85438282D01*
X103724875Y-85438313D01*
X103718246Y-85445314D01*
X103709898Y-85451010D01*
X103709801Y-85451057D01*
X103708398Y-85451536D01*
X103706174Y-85451981D01*
X103702922Y-85452393D01*
X103698434Y-85452772D01*
X103692503Y-85453120D01*
X103684923Y-85453438D01*
X103675486Y-85453726D01*
X103663985Y-85453985D01*
X103650213Y-85454216D01*
X103633963Y-85454421D01*
X103615027Y-85454600D01*
X103593199Y-85454754D01*
X103568272Y-85454884D01*
X103540038Y-85454991D01*
X103508290Y-85455077D01*
X103472822Y-85455141D01*
X103433425Y-85455184D01*
X103389894Y-85455209D01*
X103342020Y-85455215D01*
X103289597Y-85455204D01*
X103232418Y-85455177D01*
X103170275Y-85455134D01*
X103102961Y-85455076D01*
X103030270Y-85455005D01*
X102951994Y-85454921D01*
X102867926Y-85454826D01*
X102860974Y-85454817D01*
X102771551Y-85454706D01*
X102687962Y-85454587D01*
X102610055Y-85454460D01*
X102537678Y-85454324D01*
X102470677Y-85454178D01*
X102408901Y-85454022D01*
X102352196Y-85453855D01*
X102300410Y-85453675D01*
X102253390Y-85453483D01*
X102210984Y-85453276D01*
X102173038Y-85453056D01*
X102139400Y-85452820D01*
X102109917Y-85452568D01*
X102084437Y-85452299D01*
X102062807Y-85452012D01*
X102044874Y-85451706D01*
X102030486Y-85451382D01*
X102019490Y-85451037D01*
X102011733Y-85450671D01*
X102007062Y-85450283D01*
X101947132Y-85441555D01*
X101884452Y-85429392D01*
X101825265Y-85414419D01*
X101768485Y-85396360D01*
X101713028Y-85374934D01*
X101690130Y-85365022D01*
X101620344Y-85331012D01*
X101554732Y-85292950D01*
X101492858Y-85250546D01*
X101434286Y-85203509D01*
X101378582Y-85151547D01*
X101372957Y-85145875D01*
X101317979Y-85086215D01*
X101268610Y-85024467D01*
X101224797Y-84960521D01*
X101186486Y-84894266D01*
X101153623Y-84825591D01*
X101126156Y-84754386D01*
X101104030Y-84680539D01*
X101087192Y-84603941D01*
X101075589Y-84524480D01*
X101075499Y-84523655D01*
X101074926Y-84517754D01*
X101074402Y-84510950D01*
X101073926Y-84502975D01*
X101073496Y-84493560D01*
X101073108Y-84482438D01*
X101072763Y-84469340D01*
X101072456Y-84453997D01*
X101072187Y-84436143D01*
X101071953Y-84415508D01*
X101071753Y-84391824D01*
X101071584Y-84364823D01*
X101071444Y-84334237D01*
X101071332Y-84299798D01*
X101071246Y-84261238D01*
X101071182Y-84218287D01*
X101071140Y-84170679D01*
X101071118Y-84118144D01*
X101071113Y-84060415D01*
X101071123Y-83997223D01*
X101071147Y-83928301D01*
X101071158Y-83904744D01*
X101071212Y-83835443D01*
X101071296Y-83770334D01*
X101071407Y-83709554D01*
X101071546Y-83653243D01*
X101071711Y-83601540D01*
X101071901Y-83554584D01*
X101072117Y-83512514D01*
X101072357Y-83475470D01*
X101072620Y-83443590D01*
X101072906Y-83417013D01*
X101073214Y-83395879D01*
X101073543Y-83380327D01*
X101073893Y-83370496D01*
X101074261Y-83366524D01*
X101074368Y-83366252D01*
X101078767Y-83358820D01*
X101085115Y-83351550D01*
X101093082Y-83344166D01*
X101924263Y-83344198D01*
G37*
D12*
%TO.C,D1*%
X100193750Y-122662500D02*
X99593750Y-122662500D01*
X100193750Y-122062500D01*
X100193750Y-122662500D01*
G36*
X100193750Y-122662500D02*
G01*
X99593750Y-122662500D01*
X100193750Y-122062500D01*
X100193750Y-122662500D01*
G37*
%TO.C,D8*%
X119243750Y-122662500D02*
X118643750Y-122662500D01*
X119243750Y-122062500D01*
X119243750Y-122662500D01*
G36*
X119243750Y-122662500D02*
G01*
X118643750Y-122662500D01*
X119243750Y-122062500D01*
X119243750Y-122662500D01*
G37*
%TO.C,D9*%
X138293750Y-122662500D02*
X137693750Y-122662500D01*
X138293750Y-122062500D01*
X138293750Y-122662500D01*
G36*
X138293750Y-122662500D02*
G01*
X137693750Y-122662500D01*
X138293750Y-122062500D01*
X138293750Y-122662500D01*
G37*
%TO.C,D10*%
X157343750Y-122662500D02*
X156743750Y-122662500D01*
X157343750Y-122062500D01*
X157343750Y-122662500D01*
G36*
X157343750Y-122662500D02*
G01*
X156743750Y-122662500D01*
X157343750Y-122062500D01*
X157343750Y-122662500D01*
G37*
%TD*%
%LPC*%
D13*
%TO.C,REF\u002A\u002A*%
X157200000Y-104400000D03*
X157902944Y-102702944D03*
X157902944Y-106097056D03*
X159600000Y-102000000D03*
D14*
X159600000Y-104400000D03*
D13*
X159600000Y-106800000D03*
X161297056Y-102702944D03*
X161297056Y-106097056D03*
X162000000Y-104400000D03*
%TD*%
%TO.C,REF\u002A\u002A*%
X100000000Y-104400000D03*
X100702944Y-102702944D03*
X100702944Y-106097056D03*
X102400000Y-102000000D03*
D14*
X102400000Y-104400000D03*
D13*
X102400000Y-106800000D03*
X104097056Y-102702944D03*
X104097056Y-106097056D03*
X104800000Y-104400000D03*
%TD*%
D15*
%TO.C,U1*%
X123355000Y-78098500D03*
X123355000Y-80638500D03*
X123355000Y-83178500D03*
X123355000Y-85718500D03*
X123355000Y-88258500D03*
X123355000Y-90798500D03*
X123355000Y-93338500D03*
X138595000Y-93338500D03*
X138595000Y-90798500D03*
X138595000Y-88258500D03*
X138595000Y-85718500D03*
X138595000Y-83178500D03*
X138595000Y-80638500D03*
X138595000Y-78098500D03*
%TD*%
D16*
%TO.C,D7*%
X157390000Y-99200000D03*
D17*
X165010000Y-99200000D03*
%TD*%
D18*
%TO.C,SW6*%
X165150000Y-84500000D03*
X153950000Y-84500000D03*
D19*
X162050000Y-77000000D03*
D20*
X157050000Y-77000000D03*
X159550000Y-77000000D03*
X157050000Y-91500000D03*
X162050000Y-91500000D03*
%TD*%
D21*
%TO.C,SW4*%
X152458750Y-116522500D03*
D22*
X154463750Y-119062500D03*
D23*
X159543750Y-119062500D03*
D22*
X164623750Y-119062500D03*
D21*
X165358750Y-113982500D03*
%TD*%
D16*
%TO.C,U2*%
X142480000Y-76400000D03*
D17*
X142480000Y-78940000D03*
X142480000Y-81480000D03*
X142480000Y-84020000D03*
X142480000Y-86560000D03*
X142480000Y-89100000D03*
X142480000Y-91640000D03*
X142480000Y-94180000D03*
X150100000Y-94180000D03*
X150100000Y-91640000D03*
X150100000Y-89100000D03*
X150100000Y-86560000D03*
X150100000Y-84020000D03*
X150100000Y-81480000D03*
X150100000Y-78940000D03*
X150100000Y-76400000D03*
%TD*%
D24*
%TO.C,R1*%
X154320000Y-95300000D03*
D17*
X164480000Y-95300000D03*
%TD*%
D16*
%TO.C,D5*%
X167700000Y-100790000D03*
D17*
X167700000Y-108410000D03*
%TD*%
D16*
%TO.C,D6*%
X106210000Y-96800000D03*
D17*
X98590000Y-96800000D03*
%TD*%
D16*
%TO.C,D3*%
X129600000Y-100790000D03*
D17*
X129600000Y-108410000D03*
%TD*%
D18*
%TO.C,SW5*%
X108000000Y-84500000D03*
X96800000Y-84500000D03*
D19*
X104900000Y-77000000D03*
D20*
X99900000Y-77000000D03*
X102400000Y-77000000D03*
X99900000Y-91500000D03*
X104900000Y-91500000D03*
%TD*%
D21*
%TO.C,SW2*%
X114358750Y-116522500D03*
D22*
X116363750Y-119062500D03*
D23*
X121443750Y-119062500D03*
D22*
X126523750Y-119062500D03*
D21*
X127258750Y-113982500D03*
%TD*%
%TO.C,SW1*%
X95308750Y-116522500D03*
D22*
X97313750Y-119062500D03*
D23*
X102393750Y-119062500D03*
D22*
X107473750Y-119062500D03*
D21*
X108208750Y-113982500D03*
%TD*%
D16*
%TO.C,D4*%
X148700000Y-100790000D03*
D17*
X148700000Y-108410000D03*
%TD*%
D25*
%TO.C,J1*%
X115125000Y-80700000D03*
D26*
X115125000Y-83240000D03*
X115125000Y-85780000D03*
X115125000Y-88320000D03*
%TD*%
D21*
%TO.C,SW3*%
X133408750Y-116522500D03*
D22*
X135413750Y-119062500D03*
D23*
X140493750Y-119062500D03*
D22*
X145573750Y-119062500D03*
D21*
X146308750Y-113982500D03*
%TD*%
D16*
%TO.C,D2*%
X110600000Y-100790000D03*
D17*
X110600000Y-108410000D03*
%TD*%
D27*
%TO.C,D1*%
X104943750Y-124812500D03*
X104943750Y-123312500D03*
D28*
X99843750Y-123312500D03*
D27*
X99843750Y-124812500D03*
%TD*%
%TO.C,D8*%
X123993750Y-124812500D03*
X123993750Y-123312500D03*
D28*
X118893750Y-123312500D03*
D27*
X118893750Y-124812500D03*
%TD*%
%TO.C,D9*%
X143043750Y-124812500D03*
X143043750Y-123312500D03*
D28*
X137943750Y-123312500D03*
D27*
X137943750Y-124812500D03*
%TD*%
%TO.C,D10*%
X162093750Y-124812500D03*
X162093750Y-123312500D03*
D28*
X156993750Y-123312500D03*
D27*
X156993750Y-124812500D03*
%TD*%
%LPD*%
M02*
