%TF.GenerationSoftware,KiCad,Pcbnew,8.0.3*%
%TF.CreationDate,2024-10-21T20:57:23+02:00*%
%TF.ProjectId,trains_macropad,74726169-6e73-45f6-9d61-63726f706164,rev?*%
%TF.SameCoordinates,Original*%
%TF.FileFunction,Soldermask,Bot*%
%TF.FilePolarity,Negative*%
%FSLAX46Y46*%
G04 Gerber Fmt 4.6, Leading zero omitted, Abs format (unit mm)*
G04 Created by KiCad (PCBNEW 8.0.3) date 2024-10-21 20:57:23*
%MOMM*%
%LPD*%
G01*
G04 APERTURE LIST*
G04 Aperture macros list*
%AMRoundRect*
0 Rectangle with rounded corners*
0 $1 Rounding radius*
0 $2 $3 $4 $5 $6 $7 $8 $9 X,Y pos of 4 corners*
0 Add a 4 corners polygon primitive as box body*
4,1,4,$2,$3,$4,$5,$6,$7,$8,$9,$2,$3,0*
0 Add four circle primitives for the rounded corners*
1,1,$1+$1,$2,$3*
1,1,$1+$1,$4,$5*
1,1,$1+$1,$6,$7*
1,1,$1+$1,$8,$9*
0 Add four rect primitives between the rounded corners*
20,1,$1+$1,$2,$3,$4,$5,0*
20,1,$1+$1,$4,$5,$6,$7,0*
20,1,$1+$1,$6,$7,$8,$9,0*
20,1,$1+$1,$8,$9,$2,$3,0*%
G04 Aperture macros list end*
%ADD10C,0.800000*%
%ADD11C,6.400000*%
%ADD12C,1.524000*%
%ADD13R,1.600000X1.600000*%
%ADD14O,1.600000X1.600000*%
%ADD15O,2.000000X3.200000*%
%ADD16R,2.000000X2.000000*%
%ADD17C,2.000000*%
%ADD18R,2.550000X2.500000*%
%ADD19C,1.750000*%
%ADD20C,3.987800*%
%ADD21C,1.600000*%
%ADD22R,1.700000X1.700000*%
%ADD23O,1.700000X1.700000*%
%ADD24R,1.700000X0.820000*%
%ADD25RoundRect,0.205000X0.645000X0.205000X-0.645000X0.205000X-0.645000X-0.205000X0.645000X-0.205000X0*%
G04 APERTURE END LIST*
D10*
%TO.C,REF\u002A\u002A*%
X157200000Y-104400000D03*
X157902944Y-102702944D03*
X157902944Y-106097056D03*
X159600000Y-102000000D03*
D11*
X159600000Y-104400000D03*
D10*
X159600000Y-106800000D03*
X161297056Y-102702944D03*
X161297056Y-106097056D03*
X162000000Y-104400000D03*
%TD*%
%TO.C,REF\u002A\u002A*%
X100000000Y-104400000D03*
X100702944Y-102702944D03*
X100702944Y-106097056D03*
X102400000Y-102000000D03*
D11*
X102400000Y-104400000D03*
D10*
X102400000Y-106800000D03*
X104097056Y-102702944D03*
X104097056Y-106097056D03*
X104800000Y-104400000D03*
%TD*%
D12*
%TO.C,U1*%
X123355000Y-78098500D03*
X123355000Y-80638500D03*
X123355000Y-83178500D03*
X123355000Y-85718500D03*
X123355000Y-88258500D03*
X123355000Y-90798500D03*
X123355000Y-93338500D03*
X138595000Y-93338500D03*
X138595000Y-90798500D03*
X138595000Y-88258500D03*
X138595000Y-85718500D03*
X138595000Y-83178500D03*
X138595000Y-80638500D03*
X138595000Y-78098500D03*
%TD*%
D13*
%TO.C,D7*%
X157390000Y-99200000D03*
D14*
X165010000Y-99200000D03*
%TD*%
D15*
%TO.C,SW6*%
X165150000Y-84500000D03*
X153950000Y-84500000D03*
D16*
X162050000Y-77000000D03*
D17*
X157050000Y-77000000D03*
X159550000Y-77000000D03*
X157050000Y-91500000D03*
X162050000Y-91500000D03*
%TD*%
D18*
%TO.C,SW4*%
X152458750Y-116522500D03*
D19*
X154463750Y-119062500D03*
D20*
X159543750Y-119062500D03*
D19*
X164623750Y-119062500D03*
D18*
X165358750Y-113982500D03*
%TD*%
D13*
%TO.C,U2*%
X142480000Y-76400000D03*
D14*
X142480000Y-78940000D03*
X142480000Y-81480000D03*
X142480000Y-84020000D03*
X142480000Y-86560000D03*
X142480000Y-89100000D03*
X142480000Y-91640000D03*
X142480000Y-94180000D03*
X150100000Y-94180000D03*
X150100000Y-91640000D03*
X150100000Y-89100000D03*
X150100000Y-86560000D03*
X150100000Y-84020000D03*
X150100000Y-81480000D03*
X150100000Y-78940000D03*
X150100000Y-76400000D03*
%TD*%
D21*
%TO.C,R1*%
X154320000Y-95300000D03*
D14*
X164480000Y-95300000D03*
%TD*%
D13*
%TO.C,D5*%
X167700000Y-100790000D03*
D14*
X167700000Y-108410000D03*
%TD*%
D13*
%TO.C,D6*%
X106210000Y-96800000D03*
D14*
X98590000Y-96800000D03*
%TD*%
D13*
%TO.C,D3*%
X129600000Y-100790000D03*
D14*
X129600000Y-108410000D03*
%TD*%
D15*
%TO.C,SW5*%
X108000000Y-84500000D03*
X96800000Y-84500000D03*
D16*
X104900000Y-77000000D03*
D17*
X99900000Y-77000000D03*
X102400000Y-77000000D03*
X99900000Y-91500000D03*
X104900000Y-91500000D03*
%TD*%
D18*
%TO.C,SW2*%
X114358750Y-116522500D03*
D19*
X116363750Y-119062500D03*
D20*
X121443750Y-119062500D03*
D19*
X126523750Y-119062500D03*
D18*
X127258750Y-113982500D03*
%TD*%
%TO.C,SW1*%
X95308750Y-116522500D03*
D19*
X97313750Y-119062500D03*
D20*
X102393750Y-119062500D03*
D19*
X107473750Y-119062500D03*
D18*
X108208750Y-113982500D03*
%TD*%
D13*
%TO.C,D4*%
X148700000Y-100790000D03*
D14*
X148700000Y-108410000D03*
%TD*%
D22*
%TO.C,J1*%
X115125000Y-80700000D03*
D23*
X115125000Y-83240000D03*
X115125000Y-85780000D03*
X115125000Y-88320000D03*
%TD*%
D18*
%TO.C,SW3*%
X133408750Y-116522500D03*
D19*
X135413750Y-119062500D03*
D20*
X140493750Y-119062500D03*
D19*
X145573750Y-119062500D03*
D18*
X146308750Y-113982500D03*
%TD*%
D13*
%TO.C,D2*%
X110600000Y-100790000D03*
D14*
X110600000Y-108410000D03*
%TD*%
D24*
%TO.C,D1*%
X104943750Y-124812500D03*
X104943750Y-123312500D03*
D25*
X99843750Y-123312500D03*
D24*
X99843750Y-124812500D03*
%TD*%
%TO.C,D8*%
X123993750Y-124812500D03*
X123993750Y-123312500D03*
D25*
X118893750Y-123312500D03*
D24*
X118893750Y-124812500D03*
%TD*%
%TO.C,D9*%
X143043750Y-124812500D03*
X143043750Y-123312500D03*
D25*
X137943750Y-123312500D03*
D24*
X137943750Y-124812500D03*
%TD*%
%TO.C,D10*%
X162093750Y-124812500D03*
X162093750Y-123312500D03*
D25*
X156993750Y-123312500D03*
D24*
X156993750Y-124812500D03*
%TD*%
M02*
