0
SECTION
2
HEADER
9
$INSUNITS
70
4
9
$ACADVER
1
AC1014
9
$HANDSEED
5
FFFF
0
ENDSEC
0
SECTION
2
TABLES
0
TABLE
2
VPORT
5
8
100
AcDbSymbolTable
0
ENDTAB
0
TABLE
2
LTYPE
5
5
100
AcDbSymbolTable
0
LTYPE
5
14
100
AcDbSymbolTableRecord
100
AcDbLinetypeTableRecord
2
BYBLOCK
70
0
0
LTYPE
5
15
100
AcDbSymbolTableRecord
100
AcDbLinetypeTableRecord
2
BYLAYER
70
0
0
ENDTAB
0
TABLE
2
LAYER
5
2
100
AcDbSymbolTable
70
2
0
LAYER
5
50
100
AcDbSymbolTableRecord
100
AcDbLayerTableRecord
2
0
70
0
6
CONTINUOUS
0
ENDTAB
0
TABLE
2
STYLE
5
3
100
AcDbSymbolTable
70
1
0
STYLE
5
11
100
AcDbSymbolTableRecord
100
AcDbTextStyleTableRecord
2
STANDARD
70
0
0
ENDTAB
0
TABLE
2
VIEW
5
6
100
AcDbSymbolTable
70
0
0
ENDTAB
0
TABLE
2
UCS
5
7
100
AcDbSymbolTable
70
0
0
ENDTAB
0
TABLE
2
APPID
5
9
100
AcDbSymbolTable
70
2
0
APPID
5
12
100
AcDbSymbolTableRecord
100
AcDbRegAppTableRecord
2
ACAD
70
0
0
ENDTAB
0
TABLE
2
DIMSTYLE
5
A
100
AcDbSymbolTable
70
1
0
ENDTAB
0
TABLE
2
BLOCK_RECORD
5
1
100
AcDbSymbolTable
70
1
0
BLOCK_RECORD
5
1F
100
AcDbSymbolTableRecord
100
AcDbBlockTableRecord
2
*MODEL_SPACE
0
BLOCK_RECORD
5
1B
100
AcDbSymbolTableRecord
100
AcDbBlockTableRecord
2
*PAPER_SPACE
0
ENDTAB
0
ENDSEC
0
SECTION
2
BLOCKS
0
BLOCK
5
20
100
AcDbEntity
100
AcDbBlockBegin
2
*MODEL_SPACE
0
ENDBLK
5
21
100
AcDbEntity
100
AcDbBlockEnd
0
BLOCK
5
1C
100
AcDbEntity
100
AcDbBlockBegin
2
*PAPER_SPACE
0
ENDBLK
5
1D
100
AcDbEntity
100
AcDbBlockEnd
0
ENDSEC
0
SECTION
2
ENTITIES
0
CIRCLE
5
100
100
AcDbEntity
8
0
100
AcDbCircle
10
45.514150429449252
20
25.774144912745186
30
-4.4408920985006262e-15
40
1.4999999999999958
210
-1.0947644252537641e-47
220
2.7755575615628895e-17
230
1
0
CIRCLE
5
101
100
AcDbEntity
8
0
100
AcDbCircle
10
-45.514150429449607
20
25.774144912744916
30
0
40
1.5000000000000047
210
0
220
2.7755575615628895e-17
230
1
0
CIRCLE
5
102
100
AcDbEntity
8
0
100
AcDbCircle
10
45.514150429449352
20
-22.391655946154021
30
-4.4408920985006262e-15
40
1.5000000000000047
210
0
220
2.7755575615628895e-17
230
1
0
CIRCLE
5
103
100
AcDbEntity
8
0
100
AcDbCircle
10
-45.514150429449515
20
-22.391655946154291
30
-2.2204460492503131e-15
40
1.5000000000000047
210
0
220
2.7755575615628895e-17
230
1
0
LWPOLYLINE
5
104
100
AcDbEntity
8
0
100
AcDbPolyline
90
8
70
1
43
0.0
10
-5.4050000000000509
20
-14.874999994178342
42
0.41421356237309759
10
-4.9050000000000544
20
-14.374999994178342
10
-4.9050000000000864
20
-1.3749999941783344
42
0.41421356237309714
10
-5.4050000000000864
20
-0.87499999417833041
10
-18.405000000000072
20
-0.87499999417836871
42
0.41421356237309825
10
-18.905000000000065
20
-1.3749999941783742
10
-18.90500000000004
20
-14.374999994178381
42
0.4142135623730937
10
-18.405000000000033
20
-14.874999994178379
0
LWPOLYLINE
5
105
100
AcDbEntity
8
0
100
AcDbPolyline
90
8
70
1
43
0.0
10
-24.455000000000027
20
-14.874999994178392
42
0.4142135623731002
10
-23.955000000000027
20
-14.374999994178392
10
-23.955000000000059
20
-1.3749999941783861
42
0.41421356237309309
10
-24.455000000000059
20
-0.87499999417838203
10
-37.455000000000048
20
-0.87499999417842034
42
0.4142135623730947
10
-37.955000000000041
20
-1.3749999941784252
10
-37.955000000000013
20
-14.374999994178433
42
0.41421356237309637
10
-37.455000000000013
20
-14.874999994178426
0
LWPOLYLINE
5
106
100
AcDbEntity
8
0
100
AcDbPolyline
90
8
70
1
43
0.0
10
-24.455000000000076
20
4.1750000058216195
42
0.41421356237309048
10
-23.955000000000073
20
4.675000005821623
10
-23.955000000000108
20
17.675000005821634
42
0.41421356237308854
10
-24.455000000000101
20
18.175000005821623
10
-37.455000000000098
20
18.175000005821598
42
0.41421356237309637
10
-37.955000000000098
20
17.675000005821598
10
-37.955000000000062
20
4.6750000058215848
42
0.41421356237309925
10
-37.455000000000055
20
4.175000005821591
0
LWPOLYLINE
5
107
100
AcDbEntity
8
0
100
AcDbPolyline
90
8
70
1
43
0.0
10
-5.4050000000000988
20
4.175000005821671
42
0.41421356237309731
10
-4.9050000000000997
20
4.6750000058216745
10
-4.9050000000001344
20
17.675000005821687
42
0.41421356237309176
10
-5.4050000000001326
20
18.175000005821676
10
-18.405000000000118
20
18.175000005821648
42
0.4142135623730937
10
-18.905000000000122
20
17.675000005821644
10
-18.905000000000086
20
4.6750000058216354
42
0.41421356237309409
10
-18.405000000000079
20
4.1750000058216372
0
LWPOLYLINE
5
108
100
AcDbEntity
8
0
100
AcDbPolyline
90
8
70
1
43
0.0
10
13.644999999999879
20
4.1750000058217225
42
0.41421356237309276
10
14.144999999999877
20
4.675000005821726
10
14.144999999999845
20
17.675000005821737
42
0.41421356237309109
10
13.644999999999843
20
18.175000005821733
10
0.64499999999985969
20
18.175000005821701
42
0.41421356237309687
10
0.14499999999985663
20
17.675000005821698
10
0.14499999999989543
20
4.6750000058216878
42
0.41421356237309276
10
0.64499999999989344
20
4.1750000058216932
0
LWPOLYLINE
5
109
100
AcDbEntity
8
0
100
AcDbPolyline
90
8
70
1
43
0.0
10
13.644999999999925
20
-14.874999994178291
42
0.41421356237309759
10
14.144999999999921
20
-14.374999994178291
10
14.144999999999889
20
-1.3749999941782822
42
0.41421356237309437
10
13.644999999999889
20
-0.87499999417827667
10
0.64499999999990698
20
-0.87499999417831709
42
0.41421356237309759
10
0.14499999999991037
20
-1.3749999941783186
10
0.14499999999994245
20
-14.37499999417833
42
0.41421356237309276
10
0.64499999999994229
20
-14.874999994178324
0
LWPOLYLINE
5
110
100
AcDbEntity
8
0
100
AcDbPolyline
90
16
70
1
43
0.0
10
36.837851717797989
20
33.003744573871423
10
36.837851717798053
20
6.5037444753898166
10
37.837851717798053
20
6.5037444753898193
10
37.837851717798088
20
-8.4962555246101896
10
23.837851717798095
20
-8.4962555246102252
10
23.83785171779806
20
6.5037444753897846
10
24.83785171779806
20
6.5037444753897846
10
24.837851717797999
20
33.003744573871387
10
-43.587851717798358
20
33.003744483295392
10
-52.743750000000105
20
23.847846201093539
10
-52.743749999999991
20
-20.46535723450296
10
-44.11683267520786
20
-29.092274559295088
10
44.116832675207782
20
-29.09227455929484
10
52.743749999999864
20
-20.465357234502633
10
52.743749999999764
20
23.847846201093851
10
43.587851717797975
20
33.003744483295627
0
ENDSEC
0
SECTION
2
OBJECTS
0
DICTIONARY
5
C
100
AcDbDictionary
3
ACAD_GROUP
350
D
3
ACAD_MLINESTYLE
350
17
0
DICTIONARY
5
D
100
AcDbDictionary
0
DICTIONARY
5
1A
330
C
100
AcDbDictionary
0
DICTIONARY
5
17
100
AcDbDictionary
0
ENDSEC
0
EOF
