<svg width="1290" height="482" viewBox="0 0 1290 482" fill="none" xmlns="http://www.w3.org/2000/svg">
<path d="M78.817 2.53388L77.4221 2.23228L77.0515 3.61041L2.55148 280.61L2.17159 282.023L3.57401 282.438L173.341 332.721L198.586 404.001L198.776 404.538L199.275 404.813L333.275 478.813L334.245 479.349L335.043 478.578L424.341 392.256L528.437 434.39L529.83 434.954L530.391 433.56L616.391 220.06L616.772 219.115L616.033 218.413L546.27 152.113L553.893 133.057L554.373 131.857L553.257 131.205L375.257 27.2049L375.054 27.0862L374.824 27.0354L266.324 3.0354L265.262 2.8006L264.709 3.73629L244.26 38.3053L78.817 2.53388Z" stroke="black" stroke-width="3"/>
<path d="M1211.18 2.53388L1212.58 2.23228L1212.95 3.61041L1287.45 280.61L1287.83 282.023L1286.43 282.438L1116.66 332.721L1091.41 404.001L1091.22 404.538L1090.73 404.813L956.725 478.813L955.755 479.349L954.957 478.578L865.659 392.256L761.563 434.39L760.17 434.954L759.609 433.56L673.609 220.06L673.228 219.115L673.967 218.413L743.73 152.113L736.107 133.057L735.627 131.857L736.743 131.205L914.743 27.2049L914.946 27.0862L915.176 27.0354L1023.68 3.0354L1024.74 2.8006L1025.29 3.73629L1045.74 38.3053L1211.18 2.53388Z" stroke="black" stroke-width="3"/>
</svg>
