<svg width="1298" height="489" viewBox="0 0 1298 489" fill="none" xmlns="http://www.w3.org/2000/svg">
<path d="M83.134 5.06776L80.3443 4.46457L79.603 7.22083L5.10295 284.221L4.34319 287.046L7.14802 287.876L176.182 337.942L201.172 408.502L201.552 409.575L202.55 410.126L336.55 484.126L338.491 485.198L340.085 483.657L428.683 398.013L531.874 439.781L534.66 440.908L535.783 438.121L621.783 224.621L622.544 222.73L621.067 221.325L552.041 155.726L559.285 137.614L560.246 135.214L558.013 133.91L380.013 29.9097L379.607 29.6724L379.148 29.5708L270.648 5.57081L268.525 5.10121L267.418 6.97259L247.519 40.6105L83.134 5.06776Z" stroke="black" stroke-width="6"/>
<path d="M1214.87 5.06776L1217.66 4.46457L1218.4 7.22083L1292.9 284.221L1293.66 287.046L1290.85 287.876L1121.82 337.942L1096.83 408.502L1096.45 409.575L1095.45 410.126L961.45 484.126L959.509 485.198L957.915 483.657L869.317 398.013L766.126 439.781L763.34 440.908L762.217 438.121L676.217 224.621L675.456 222.73L676.933 221.325L745.959 155.726L738.715 137.614L737.754 135.214L739.987 133.91L917.987 29.9097L918.393 29.6724L918.852 29.5708L1027.35 5.57081L1029.48 5.10121L1030.58 6.97259L1050.48 40.6105L1214.87 5.06776Z" stroke="black" stroke-width="6"/>
</svg>
