%TF.GenerationSoftware,KiCad,Pcbnew,8.0.6*%
%TF.CreationDate,2024-10-30T00:35:20-04:00*%
%TF.ProjectId,MyHackpad,4d794861-636b-4706-9164-2e6b69636164,rev?*%
%TF.SameCoordinates,Original*%
%TF.FileFunction,Copper,L1,Top*%
%TF.FilePolarity,Positive*%
%FSLAX46Y46*%
G04 Gerber Fmt 4.6, Leading zero omitted, Abs format (unit mm)*
G04 Created by KiCad (PCBNEW 8.0.6) date 2024-10-30 00:35:20*
%MOMM*%
%LPD*%
G01*
G04 APERTURE LIST*
%TA.AperFunction,ComponentPad*%
%ADD10C,3.600000*%
%TD*%
%TA.AperFunction,ComponentPad*%
%ADD11R,1.600000X1.600000*%
%TD*%
%TA.AperFunction,ComponentPad*%
%ADD12O,1.600000X1.600000*%
%TD*%
%TA.AperFunction,ComponentPad*%
%ADD13R,2.000000X2.000000*%
%TD*%
%TA.AperFunction,ComponentPad*%
%ADD14C,2.000000*%
%TD*%
%TA.AperFunction,ComponentPad*%
%ADD15R,3.200000X2.000000*%
%TD*%
%TA.AperFunction,ComponentPad*%
%ADD16R,1.700000X1.700000*%
%TD*%
%TA.AperFunction,ComponentPad*%
%ADD17O,1.700000X1.700000*%
%TD*%
%TA.AperFunction,ComponentPad*%
%ADD18C,1.600000*%
%TD*%
%TA.AperFunction,ViaPad*%
%ADD19C,0.600000*%
%TD*%
%TA.AperFunction,Conductor*%
%ADD20C,0.500000*%
%TD*%
G04 APERTURE END LIST*
D10*
%TO.P,K6,1,1*%
%TO.N,COL3*%
X48190000Y-75460000D03*
%TO.P,K6,2,2*%
%TO.N,Net-(D6-A)*%
X54540000Y-72920000D03*
%TD*%
D11*
%TO.P,D1,1,K*%
%TO.N,ROW1*%
X43000000Y-43810000D03*
D12*
%TO.P,D1,2,A*%
%TO.N,Net-(D1-A)*%
X43000000Y-36190000D03*
%TD*%
D11*
%TO.P,D6,1,K*%
%TO.N,ROW2*%
X61500000Y-81310000D03*
D12*
%TO.P,D6,2,A*%
%TO.N,Net-(D6-A)*%
X61500000Y-73690000D03*
%TD*%
D10*
%TO.P,K5,1,1*%
%TO.N,COL3*%
X67190000Y-75460000D03*
%TO.P,K5,2,2*%
%TO.N,Net-(D5-A)*%
X73540000Y-72920000D03*
%TD*%
D13*
%TO.P,SW1,A,A*%
%TO.N,ROTA1*%
X44500000Y-56500000D03*
D14*
%TO.P,SW1,B,B*%
%TO.N,ROTB1*%
X44500000Y-61500000D03*
%TO.P,SW1,C,C*%
%TO.N,GND*%
X44500000Y-59000000D03*
D15*
%TO.P,SW1,MP*%
%TO.N,N/C*%
X52000000Y-53400000D03*
X52000000Y-64600000D03*
D14*
%TO.P,SW1,S1,S1*%
%TO.N,ROTSW1*%
X59000000Y-61500000D03*
%TO.P,SW1,S2,S2*%
%TO.N,GND*%
X59000000Y-56500000D03*
%TD*%
D11*
%TO.P,D4,1,K*%
%TO.N,ROW2*%
X80500000Y-62310000D03*
D12*
%TO.P,D4,2,A*%
%TO.N,Net-(D4-A)*%
X80500000Y-54690000D03*
%TD*%
D10*
%TO.P,K7,1,1*%
%TO.N,COL4*%
X29190000Y-75460000D03*
%TO.P,K7,2,2*%
%TO.N,Net-(D7-A)*%
X35540000Y-72920000D03*
%TD*%
D11*
%TO.P,D3,1,K*%
%TO.N,ROW1*%
X80500000Y-44500000D03*
D12*
%TO.P,D3,2,A*%
%TO.N,Net-(D3-A)*%
X80500000Y-36880000D03*
%TD*%
D16*
%TO.P,J1,1,GND*%
%TO.N,GND*%
X16500000Y-25120000D03*
D17*
%TO.P,J1,2,VCC*%
%TO.N,+3V3R*%
X16500000Y-22580000D03*
%TO.P,J1,3,SCL*%
%TO.N,SCL*%
X16500000Y-20040000D03*
%TO.P,J1,4,SDA*%
%TO.N,SDA*%
X16500000Y-17500000D03*
%TD*%
D11*
%TO.P,D8,1,K*%
%TO.N,ROW2*%
X42500000Y-62810000D03*
D12*
%TO.P,D8,2,A*%
%TO.N,Net-(D8-A)*%
X42500000Y-55190000D03*
%TD*%
D10*
%TO.P,K4,1,1*%
%TO.N,COL2*%
X67190000Y-56460000D03*
%TO.P,K4,2,2*%
%TO.N,Net-(D4-A)*%
X73540000Y-53920000D03*
%TD*%
%TO.P,K1,1,1*%
%TO.N,COL1*%
X29270000Y-37460000D03*
%TO.P,K1,2,2*%
%TO.N,Net-(D1-A)*%
X35620000Y-34920000D03*
%TD*%
D11*
%TO.P,D5,1,K*%
%TO.N,ROW1*%
X80500000Y-82310000D03*
D12*
%TO.P,D5,2,A*%
%TO.N,Net-(D5-A)*%
X80500000Y-74690000D03*
%TD*%
D11*
%TO.P,D2,1,K*%
%TO.N,ROW2*%
X61500000Y-44310000D03*
D12*
%TO.P,D2,2,A*%
%TO.N,unconnected-(D2-A-Pad2)*%
X61500000Y-36690000D03*
%TD*%
D10*
%TO.P,K8,1,1*%
%TO.N,COL4*%
X29190000Y-56460000D03*
%TO.P,K8,2,2*%
%TO.N,Net-(D8-A)*%
X35540000Y-53920000D03*
%TD*%
D11*
%TO.P,D7,1,K*%
%TO.N,ROW1*%
X42500000Y-81810000D03*
D12*
%TO.P,D7,2,A*%
%TO.N,Net-(D7-A)*%
X42500000Y-74190000D03*
%TD*%
D10*
%TO.P,K2,1,1*%
%TO.N,unconnected-(K2-Pad1)*%
X48270000Y-37460000D03*
%TO.P,K2,2,2*%
%TO.N,unconnected-(K2-Pad2)*%
X54620000Y-34920000D03*
%TD*%
%TO.P,K3,1,1*%
%TO.N,COL2*%
X67190000Y-37460000D03*
%TO.P,K3,2,2*%
%TO.N,Net-(D3-A)*%
X73540000Y-34920000D03*
%TD*%
D11*
%TO.P,U2,1,PA02_A0_D0*%
%TO.N,ROTSW1*%
X85240000Y-14880000D03*
D18*
%TO.P,U2,2,PA4_A1_D1*%
%TO.N,ROTA1*%
X85240000Y-17420000D03*
%TO.P,U2,3,PA10_A2_D2*%
%TO.N,ROTB1*%
X85240000Y-19960000D03*
%TO.P,U2,4,PA11_A3_D3*%
%TO.N,ROW1*%
X85240000Y-22500000D03*
%TO.P,U2,5,PA8_A4_D4_SDA*%
%TO.N,SDA*%
X85240000Y-25040000D03*
%TO.P,U2,6,PA9_A5_D5_SCL*%
%TO.N,SCL*%
X85240000Y-27580000D03*
%TO.P,U2,7,PB08_A6_D6_TX*%
%TO.N,ROW2*%
X85240000Y-30120000D03*
%TO.P,U2,8,PB09_A7_D7_RX*%
%TO.N,COL1*%
X70000000Y-30120000D03*
%TO.P,U2,9,PA7_A8_D8_SCK*%
%TO.N,COL2*%
X70000000Y-27580000D03*
%TO.P,U2,10,PA5_A9_D9_MISO*%
%TO.N,COL3*%
X70000000Y-25040000D03*
%TO.P,U2,11,PA6_A10_D10_MOSI*%
%TO.N,COL4*%
X70000000Y-22500000D03*
%TO.P,U2,12,3V3*%
%TO.N,unconnected-(U2-3V3-Pad12)*%
X70000000Y-19960000D03*
%TO.P,U2,13,GND*%
%TO.N,GND*%
X70000000Y-17420000D03*
%TO.P,U2,14,5V*%
%TO.N,VCC*%
X70000000Y-14880000D03*
%TD*%
D19*
%TO.N,ROW1*%
X83000000Y-30820000D03*
%TO.N,ROTA1*%
X28000000Y-62000000D03*
X38000000Y-62000000D03*
X90500000Y-85500000D03*
X22500000Y-69500000D03*
%TO.N,ROTB1*%
X16500000Y-58000000D03*
X32000000Y-67500000D03*
X20000000Y-64500000D03*
%TO.N,ROW2*%
X45500000Y-44500000D03*
X23000000Y-48000000D03*
X73000000Y-44500000D03*
X38500000Y-64000000D03*
%TD*%
D20*
%TO.N,*%
X52000000Y-53400000D02*
X52000000Y-64600000D01*
%TO.N,ROW1*%
X44750000Y-45560000D02*
X43000000Y-43810000D01*
X80500000Y-82310000D02*
X81750000Y-81060000D01*
X43000000Y-48000000D02*
X43000000Y-43810000D01*
X44500000Y-71500000D02*
X44500000Y-79810000D01*
X81750000Y-71250000D02*
X80500000Y-70000000D01*
X57500000Y-67000000D02*
X57500000Y-50000000D01*
X83000000Y-42000000D02*
X80500000Y-44500000D01*
X80500000Y-70000000D02*
X46000000Y-70000000D01*
X41310000Y-81810000D02*
X40500000Y-81000000D01*
X83000000Y-30820000D02*
X83000000Y-42000000D01*
X42500000Y-81810000D02*
X41310000Y-81810000D01*
X40500000Y-81000000D02*
X40500000Y-72000000D01*
X43500000Y-69000000D02*
X55500000Y-69000000D01*
X55500000Y-69000000D02*
X57500000Y-67000000D01*
X81750000Y-81060000D02*
X81750000Y-71250000D01*
X57500000Y-50000000D02*
X56500000Y-49000000D01*
X80500000Y-44500000D02*
X79440000Y-45560000D01*
X46000000Y-70000000D02*
X44500000Y-71500000D01*
X40500000Y-72000000D02*
X43500000Y-69000000D01*
X44500000Y-79810000D02*
X42500000Y-81810000D01*
X56500000Y-49000000D02*
X44000000Y-49000000D01*
X44000000Y-49000000D02*
X43000000Y-48000000D01*
X79440000Y-45560000D02*
X44750000Y-45560000D01*
%TO.N,GND*%
X38000000Y-66000000D02*
X40000000Y-64000000D01*
X40000000Y-61000000D02*
X42000000Y-59000000D01*
X20500000Y-63500000D02*
X23000000Y-66000000D01*
X40000000Y-64000000D02*
X40000000Y-61000000D01*
X14380000Y-25120000D02*
X13500000Y-26000000D01*
X13500000Y-26000000D02*
X13500000Y-61500000D01*
X23000000Y-66000000D02*
X38000000Y-66000000D01*
X16500000Y-25120000D02*
X14380000Y-25120000D01*
X15500000Y-63500000D02*
X20500000Y-63500000D01*
X13500000Y-61500000D02*
X15500000Y-63500000D01*
X42000000Y-59000000D02*
X44500000Y-59000000D01*
%TO.N,ROTA1*%
X25000000Y-88500000D02*
X22500000Y-86000000D01*
X22500000Y-86000000D02*
X22500000Y-69500000D01*
X90500000Y-85500000D02*
X87500000Y-88500000D01*
X28000000Y-62000000D02*
X38000000Y-62000000D01*
X87000000Y-88500000D02*
X25000000Y-88500000D01*
X87500000Y-88500000D02*
X87000000Y-88500000D01*
%TO.N,ROTB1*%
X72500000Y-31000000D02*
X72500000Y-20000000D01*
X32000000Y-67500000D02*
X23000000Y-67500000D01*
X65500000Y-32000000D02*
X71500000Y-32000000D01*
X18000000Y-28000000D02*
X61500000Y-28000000D01*
X83500000Y-20000000D02*
X83540000Y-19960000D01*
X82500000Y-20000000D02*
X83500000Y-20000000D01*
X74000000Y-18500000D02*
X81000000Y-18500000D01*
X61500000Y-28000000D02*
X65500000Y-32000000D01*
X83540000Y-19960000D02*
X85240000Y-19960000D01*
X16500000Y-29500000D02*
X18000000Y-28000000D01*
X72500000Y-20000000D02*
X74000000Y-18500000D01*
X23000000Y-67500000D02*
X20000000Y-64500000D01*
X16500000Y-58000000D02*
X16500000Y-29500000D01*
X81000000Y-18500000D02*
X82500000Y-20000000D01*
X71500000Y-32000000D02*
X72500000Y-31000000D01*
%TO.N,ROTSW1*%
X88500000Y-68500000D02*
X89500000Y-67500000D01*
X88380000Y-14880000D02*
X85240000Y-14880000D01*
X60500000Y-68500000D02*
X88500000Y-68500000D01*
X59000000Y-67000000D02*
X60500000Y-68500000D01*
X59000000Y-61500000D02*
X59000000Y-67000000D01*
X89500000Y-16000000D02*
X88380000Y-14880000D01*
X89500000Y-67500000D02*
X89500000Y-16000000D01*
%TO.N,ROW2*%
X61500000Y-44310000D02*
X61500000Y-42500000D01*
X72500000Y-44000000D02*
X73000000Y-44500000D01*
X23000000Y-48000000D02*
X22500000Y-48500000D01*
X49000000Y-43500000D02*
X46500000Y-43500000D01*
X23500000Y-64000000D02*
X38500000Y-64000000D01*
X46500000Y-43500000D02*
X45500000Y-44500000D01*
X85240000Y-57570000D02*
X85240000Y-30120000D01*
X49500000Y-44000000D02*
X49000000Y-43500000D01*
X61500000Y-44500000D02*
X61140000Y-44860000D01*
X58500000Y-85500000D02*
X58500000Y-82000000D01*
X63000000Y-42000000D02*
X63500000Y-42500000D01*
X50360000Y-44860000D02*
X49500000Y-44000000D01*
X41000000Y-68500000D02*
X25000000Y-68500000D01*
X23500000Y-70000000D02*
X23500000Y-85500000D01*
X61500000Y-44310000D02*
X61500000Y-44500000D01*
X58500000Y-82000000D02*
X59190000Y-81310000D01*
X25500000Y-87500000D02*
X56500000Y-87500000D01*
X63500000Y-43500000D02*
X64000000Y-44000000D01*
X22500000Y-48500000D02*
X22500000Y-63000000D01*
X63500000Y-42500000D02*
X63500000Y-43500000D01*
X22500000Y-63000000D02*
X23500000Y-64000000D01*
X59190000Y-81310000D02*
X61500000Y-81310000D01*
X42500000Y-67000000D02*
X41000000Y-68500000D01*
X64000000Y-44000000D02*
X72500000Y-44000000D01*
X61500000Y-42500000D02*
X62000000Y-42000000D01*
X25000000Y-68500000D02*
X23500000Y-70000000D01*
X80500000Y-62310000D02*
X85240000Y-57570000D01*
X56500000Y-87500000D02*
X58500000Y-85500000D01*
X23500000Y-85500000D02*
X25500000Y-87500000D01*
X62000000Y-42000000D02*
X63000000Y-42000000D01*
X42500000Y-62810000D02*
X42500000Y-67000000D01*
X61140000Y-44860000D02*
X50360000Y-44860000D01*
%TD*%
M02*
