%TF.GenerationSoftware,KiCad,Pcbnew,9.0.0*%
%TF.CreationDate,2025-03-01T22:53:14+02:00*%
%TF.ProjectId,hackpad,6861636b-7061-4642-9e6b-696361645f70,rev?*%
%TF.SameCoordinates,Original*%
%TF.FileFunction,Soldermask,Top*%
%TF.FilePolarity,Negative*%
%FSLAX46Y46*%
G04 Gerber Fmt 4.6, Leading zero omitted, Abs format (unit mm)*
G04 Created by KiCad (PCBNEW 9.0.0) date 2025-03-01 22:53:14*
%MOMM*%
%LPD*%
G01*
G04 APERTURE LIST*
%ADD10R,2.000000X2.000000*%
%ADD11C,2.000000*%
%ADD12C,3.200000*%
%ADD13C,1.700000*%
%ADD14C,4.000000*%
%ADD15C,2.200000*%
%ADD16O,1.600000X2.000000*%
%ADD17R,1.600000X1.600000*%
%ADD18O,1.600000X1.600000*%
%ADD19C,1.400000*%
%ADD20O,1.400000X1.400000*%
%ADD21C,1.524000*%
G04 APERTURE END LIST*
D10*
X237750000Y-103200000D03*
D11*
X237750000Y-108200000D03*
X237750000Y-105700000D03*
D12*
X245250000Y-100100000D03*
X245250000Y-111300000D03*
D11*
X252250000Y-108200000D03*
X252250000Y-103200000D03*
D13*
X183038750Y-90487500D03*
D14*
X188118750Y-90487500D03*
D13*
X193198750Y-90487500D03*
D15*
X190658750Y-85407500D03*
X184308750Y-87947500D03*
D13*
X202088750Y-90487500D03*
D14*
X207168750Y-90487500D03*
D13*
X212248750Y-90487500D03*
D15*
X209708750Y-85407500D03*
X203358750Y-87947500D03*
D13*
X183038750Y-109537500D03*
D14*
X188118750Y-109537500D03*
D13*
X193198750Y-109537500D03*
D15*
X190658750Y-104457500D03*
X184308750Y-106997500D03*
D16*
X241080000Y-64350000D03*
X243620000Y-64350000D03*
X246160000Y-64350000D03*
X248700000Y-64350000D03*
D13*
X202088750Y-71437500D03*
D14*
X207168750Y-71437500D03*
D13*
X212248750Y-71437500D03*
D15*
X209708750Y-66357500D03*
X203358750Y-68897500D03*
D13*
X163988750Y-109537500D03*
D14*
X169068750Y-109537500D03*
D13*
X174148750Y-109537500D03*
D15*
X171608750Y-104457500D03*
X165258750Y-106997500D03*
D13*
X202088750Y-109537500D03*
D14*
X207168750Y-109537500D03*
D13*
X212248750Y-109537500D03*
D15*
X209708750Y-104457500D03*
X203358750Y-106997500D03*
D13*
X163988750Y-90487500D03*
D14*
X169068750Y-90487500D03*
D13*
X174148750Y-90487500D03*
D15*
X171608750Y-85407500D03*
X165258750Y-87947500D03*
D13*
X183038750Y-71437500D03*
D14*
X188118750Y-71437500D03*
D13*
X193198750Y-71437500D03*
D15*
X190658750Y-66357500D03*
X184308750Y-68897500D03*
D13*
X163988750Y-71437500D03*
D14*
X169068750Y-71437500D03*
D13*
X174148750Y-71437500D03*
D15*
X171608750Y-66357500D03*
X165258750Y-68897500D03*
D17*
X178593750Y-94378750D03*
D18*
X178593750Y-86758750D03*
D17*
X178593750Y-75247500D03*
D18*
X178593750Y-67627500D03*
D17*
X197643750Y-113610000D03*
D18*
X197643750Y-105990000D03*
D17*
X197643750Y-94428750D03*
D18*
X197643750Y-86808750D03*
D17*
X216693750Y-113347500D03*
D18*
X216693750Y-105727500D03*
D19*
X257310000Y-69400000D03*
D20*
X249690000Y-69400000D03*
D17*
X197643750Y-75247500D03*
D18*
X197643750Y-67627500D03*
D17*
X216693750Y-94297500D03*
D18*
X216693750Y-86677500D03*
D17*
X178593750Y-113510000D03*
D18*
X178593750Y-105890000D03*
D19*
X257210000Y-66800000D03*
D20*
X249590000Y-66800000D03*
D17*
X216693750Y-75247500D03*
D18*
X216693750Y-67627500D03*
D21*
X236540000Y-62500000D03*
X236540000Y-65040000D03*
X236540000Y-67580000D03*
X236540000Y-70120000D03*
X236540000Y-72660000D03*
X236540000Y-75200000D03*
X236540000Y-77740000D03*
X221300000Y-77740000D03*
X221300000Y-75200000D03*
X221300000Y-72660000D03*
X221300000Y-70120000D03*
X221300000Y-67580000D03*
X221300000Y-65040000D03*
X221300000Y-62500000D03*
M02*
