<?xml version="1.0" standalone="no"?>
 <!DOCTYPE svg PUBLIC "-//W3C//DTD SVG 1.1//EN" 
 "http://www.w3.org/Graphics/SVG/1.1/DTD/svg11.dtd"> 
<svg
  xmlns:svg="http://www.w3.org/2000/svg"
  xmlns="http://www.w3.org/2000/svg"
  xmlns:xlink="http://www.w3.org/1999/xlink"
  version="1.1"
  width="94.2594mm" height="61.9506mm" viewBox="0.0000 0.0000 94.2594 61.9506">
<title>SVG Image created as hackpad-align-brd.svg date 2024/10/12 14:47:10 </title>
  <desc>Image generated by PCBNEW </desc>
<g style="fill:#000000; fill-opacity:1.0000;stroke:#000000; stroke-opacity:1.0000;
stroke-linecap:round; stroke-linejoin:round;"
 transform="translate(0 0) scale(1 1)">
<path style="fill:none; 
stroke:#000000; stroke-width:0.0254; stroke-opacity:1; 
stroke-linecap:round; stroke-linejoin:round;fill:none"
d="M 82.6655,45.2847
82.6167,45.2877
82.7145,45.2806
Z" /> 
<path style="fill:none; 
stroke:#000000; stroke-width:0.0254; stroke-opacity:1; 
stroke-linecap:round; stroke-linejoin:round;fill:none"
d="M 65.1440,27.5578
65.1920,27.5478
65.2403,27.5390
65.2888,27.5313
65.3376,27.5247
65.3864,27.5194
65.4354,27.5153
65.4841,27.5123
65.5334,27.5105
Z" /> 
</g>
<g style="fill:#000000; fill-opacity:1.0000; stroke:none;">
<circle cx="82.8550" cy="47.4000" r="0.2540" /> 
</g>
<g style="fill:none; 
stroke:#000000; stroke-width:0.1200; stroke-opacity:1; 
stroke-linecap:round; stroke-linejoin:round;">
<path d="M82.5550 45.3000 A2.0451 2.0451 0.0 0 0 84.5550 43.3000" />
<path d="M63.5550 43.3000 A2.0453 2.0453 0.0 0 0 65.5550 45.3000" />
<path d="M84.5550 29.5000 A2.0451 2.0451 0.0 0 0 82.5550 27.5000" />
<path d="M65.5550 27.5000 A2.0000 2.0000 0.0 0 0 63.5550 29.5000" />
</g>
<g style="fill:none; 
stroke:#000000; stroke-width:0.1270; stroke-opacity:1; 
stroke-linecap:round; stroke-linejoin:round;">
<path d="M63.5550 29.5000
L63.5550 43.3000
" />
<path d="M85.9790 40.9000
L78.6257 40.9000
" />
<path d="M84.5541 43.3000
L84.5541 29.5000
" />
<path d="M85.9790 31.9000
L85.9790 40.9000
" />
<path d="M65.5550 45.3000
L82.5550 45.3000
" />
<path d="M78.6257 31.9000
L85.9790 31.9000
" />
<path d="M78.6257 40.9000
L78.6257 31.9000
" />
<path d="M82.5550 27.5000
L65.5550 27.5000
" />
</g>
<g style="fill:none; 
stroke:#000000; stroke-width:0.1200; stroke-opacity:1; 
stroke-linecap:round; stroke-linejoin:round;">
<path d="M40.7150 2.6150
L54.6850 2.6150
" />
<path d="M40.7150 16.5850
L40.7150 2.6150
" />
<path d="M54.6850 2.6150
L54.6850 16.5850
" />
<path d="M54.6850 16.5850
L40.7150 16.5850
" />
<path d="M35.6350 16.5850
L21.6650 16.5850
" />
<path d="M35.6350 2.6150
L35.6350 16.5850
" />
<path d="M21.6650 16.5850
L21.6650 2.6150
" />
<path d="M21.6650 2.6150
L35.6350 2.6150
" />
<path d="M2.6150 2.6150
L16.5850 2.6150
" />
<path d="M2.6150 16.5850
L2.6150 2.6150
" />
<path d="M16.5850 2.6150
L16.5850 16.5850
" />
<path d="M16.5850 16.5850
L2.6150 16.5850
" />
<path d="M40.7150 21.6650
L54.6850 21.6650
" />
<path d="M40.7150 35.6350
L40.7150 21.6650
" />
<path d="M54.6850 21.6650
L54.6850 35.6350
" />
<path d="M54.6850 35.6350
L40.7150 35.6350
" />
<path d="M35.6350 35.6350
L21.6650 35.6350
" />
<path d="M35.6350 21.6650
L35.6350 35.6350
" />
<path d="M21.6650 35.6350
L21.6650 21.6650
" />
<path d="M21.6650 21.6650
L35.6350 21.6650
" />
<path d="M2.6150 21.6650
L16.5850 21.6650
" />
<path d="M2.6150 35.6350
L2.6150 21.6650
" />
<path d="M16.5850 21.6650
L16.5850 35.6350
" />
<path d="M16.5850 35.6350
L2.6150 35.6350
" />
<path d="M40.7150 40.7150
L54.6850 40.7150
" />
<path d="M40.7150 54.6850
L40.7150 40.7150
" />
<path d="M54.6850 40.7150
L54.6850 54.6850
" />
<path d="M54.6850 54.6850
L40.7150 54.6850
" />
<path d="M35.6350 54.6850
L21.6650 54.6850
" />
<path d="M35.6350 40.7150
L35.6350 54.6850
" />
<path d="M21.6650 54.6850
L21.6650 40.7150
" />
<path d="M21.6650 40.7150
L35.6350 40.7150
" />
<path d="M16.5850 54.6850
L2.6150 54.6850
" />
<path d="M16.5850 40.7150
L16.5850 54.6850
" />
<path d="M2.6150 54.6850
L2.6150 40.7150
" />
<path d="M2.6150 40.7150
L16.5850 40.7150
" />
<path d="M57.2250 0.0750
L84.6250 0.0750
" />
<path d="M84.6250 0.0750
L84.6250 27.3750
" />
<path d="M84.6250 27.3750
L57.2250 27.3750
" />
<path d="M57.2250 27.3750
L57.2250 0.0750
" />
<path d="M80.7470 19.9700
L57.6470 19.9700
" />
<path d="M57.6470 19.9700
L57.6470 3.3700
" />
<path d="M57.6470 3.3700
L80.7470 3.3700
" />
<path d="M65.9260 0.5640
L75.7050 0.5640
" />
<path d="M75.7050 0.5640
L75.7050 2.9770
" />
<path d="M75.7050 2.9770
L65.9260 2.9770
" />
<path d="M65.9260 0.5640
L65.9260 2.9770
" />
<path d="M80.7470 3.3700
L83.8330 3.3700
" />
<path d="M80.7470 19.9700
L84.0870 19.9950
" />
<path d="M84.0870 19.9950
L84.0870 3.3580
" />
<path d="M84.0870 3.3580
L83.8330 3.3700
" />
</g>
<g style="fill:none; 
stroke:#000000; stroke-width:0.1500; stroke-opacity:1; 
stroke-linecap:round; stroke-linejoin:round;">
<path d="M38.1750 0.0750
L57.2250 0.0750
" />
<path d="M38.1750 19.1250
L38.1750 0.0750
" />
<path d="M57.2250 0.0750
L57.2250 19.1250
" />
<path d="M57.2250 19.1250
L38.1750 19.1250
" />
<path d="M38.1750 19.1250
L19.1250 19.1250
" />
<path d="M38.1750 0.0750
L38.1750 19.1250
" />
<path d="M19.1250 19.1250
L19.1250 0.0750
" />
<path d="M19.1250 0.0750
L38.1750 0.0750
" />
<path d="M0.0750 0.0750
L19.1250 0.0750
" />
<path d="M0.0750 19.1250
L0.0750 0.0750
" />
<path d="M19.1250 0.0750
L19.1250 19.1250
" />
<path d="M19.1250 19.1250
L0.0750 19.1250
" />
<path d="M38.1750 19.1250
L57.2250 19.1250
" />
<path d="M38.1750 38.1750
L38.1750 19.1250
" />
<path d="M57.2250 19.1250
L57.2250 38.1750
" />
<path d="M57.2250 38.1750
L38.1750 38.1750
" />
<path d="M38.1750 38.1750
L19.1250 38.1750
" />
<path d="M38.1750 19.1250
L38.1750 38.1750
" />
<path d="M19.1250 38.1750
L19.1250 19.1250
" />
<path d="M19.1250 19.1250
L38.1750 19.1250
" />
<path d="M0.0750 19.1250
L19.1250 19.1250
" />
<path d="M0.0750 38.1750
L0.0750 19.1250
" />
<path d="M19.1250 19.1250
L19.1250 38.1750
" />
<path d="M19.1250 38.1750
L0.0750 38.1750
" />
<path d="M38.1750 38.1750
L57.2250 38.1750
" />
<path d="M38.1750 57.2250
L38.1750 38.1750
" />
<path d="M57.2250 38.1750
L57.2250 57.2250
" />
<path d="M57.2250 57.2250
L38.1750 57.2250
" />
<path d="M38.1750 57.2250
L19.1250 57.2250
" />
<path d="M38.1750 38.1750
L38.1750 57.2250
" />
<path d="M19.1250 57.2250
L19.1250 38.1750
" />
<path d="M19.1250 38.1750
L38.1750 38.1750
" />
<path d="M19.1250 57.2250
L0.0750 57.2250
" />
<path d="M19.1250 38.1750
L19.1250 57.2250
" />
<path d="M0.0750 57.2250
L0.0750 38.1750
" />
<path d="M0.0750 38.1750
L19.1250 38.1750
" />
<path style="fill:none; 
stroke:#000000; stroke-width:0.0500; stroke-opacity:1; 
stroke-linecap:round; stroke-linejoin:round;fill:none"
d="M 0.0750,0.0750
84.6250,0.0750
84.6250,57.2250
0.0750,57.2250
Z" /> 
</g> 
</svg>
