<?xml version="1.0" encoding="utf-8"?>
<!-- Generator: Fusion 360, Shaper Origin Export Add-In, Version 1.8.0  -->
<svg xmlns="http://www.w3.org/2000/svg" xmlns:xlink="http://www.w3.org/1999/xlink" xmlns:shaper="http://www.shapertools.com/namespaces/shaper" shaper:fusionaddin="version:1.8.0" width="9.9006945cm" height="9.7654503cm" version="1.1" x="0cm" y="0cm" viewBox="0 0 9.9006945 9.7654503" enable-background="new 0 0 9.9006945 9.7654503" xml:space="preserve"><g id="Body_Body1"><path d="M-6.8310882,3.9942336 L-6.7024867,4.0289163 -3.5650879,4.0289163 -3.5653118,1.7475943 -1.3346549,1.7475943 -1.3346549,4.0310002 1.7121431,4.0325639 1.8896603,3.9962774 2.0589406,3.948265 2.1818945,3.8737793 2.2864203,3.771656 2.3833324,3.6607669 2.4768325,3.4365584 2.4870665,3.3618351 2.5005505,3.2552768 2.5005505,-4.9554329 2.4768128,-5.1352904 2.4153873,-5.2585833 2.3592647,-5.3907145 2.2744179,-5.4653973 2.05744,-5.6483481 1.929728,-5.6951906 1.8037836,-5.7270081 -6.615167,-5.7328864 -6.6638607,-5.7283835 -6.7721357,-5.7140757 -6.9705109,-5.6476929 -7.041792,-5.5954888 -7.1825515,-5.4841332 -7.3283307,-5.2752546 -7.3667862,-5.1302793 -7.4001441,-4.9501466 -7.4001441,3.2546632 -7.3858889,3.3615547 -7.3702459,3.4612243 -7.3149102,3.5934153 -7.2524012,3.7014518 -7.1753996,3.765571 -6.9590339,3.9478277 -6.8310882,3.9942336z" transform="matrix(1,0,0,-1,7.4001441,4.0325639)" fill="rgb(0,0,0)" shaper:cutDepth="0.5cm" stroke-linecap="round" stroke-linejoin="round" /><path d="M0.6308851,0.0542982 L0.6308851,1.4555138 2.0599801,1.4555138 2.0599801,0.0542982 0.6308851,0.0542982z" transform="matrix(1,0,0,-1,7.4001441,4.0325639)" fill="rgb(255,255,255)" stroke="rgb(0,0,0)" stroke-width="0.0010cm" stroke-linecap="round" stroke-linejoin="round" shaper:cutDepth="0.5cm" /><path d="M-0.4450822,0.0325367 L-1.8838314,0.0325367 -1.8838314,1.4555138 -0.4450822,1.4555138 -0.4450822,0.0325367z" transform="matrix(1,0,0,-1,7.4001441,4.0325639)" fill="rgb(255,255,255)" stroke="rgb(0,0,0)" stroke-width="0.0010cm" stroke-linecap="round" stroke-linejoin="round" shaper:cutDepth="0.5cm" /><path d="M-2.9672226,0.0336675 L-4.3946448,0.0336675 -4.3946448,1.4555138 -2.9672226,1.4555138 -2.9672226,0.0336675z" transform="matrix(1,0,0,-1,7.4001441,4.0325639)" fill="rgb(255,255,255)" stroke="rgb(0,0,0)" stroke-width="0.0010cm" stroke-linecap="round" stroke-linejoin="round" shaper:cutDepth="0.5cm" /><path d="M-5.4853185,-2.4393233 L-6.9046759,-2.4393233 -6.9046759,-1.0236053 -5.4853185,-1.0236053 -5.4853185,-2.4393233z" transform="matrix(1,0,0,-1,7.4001441,4.0325639)" fill="rgb(255,255,255)" stroke="rgb(0,0,0)" stroke-width="0.0010cm" stroke-linecap="round" stroke-linejoin="round" shaper:cutDepth="0.5cm" /><path d="M-5.4707873,0.0448192 L-6.9037854,0.0448192 -6.9037854,1.4555138 -5.4707873,1.4555138 -5.4707873,0.0448192z" transform="matrix(1,0,0,-1,7.4001441,4.0325639)" fill="rgb(255,255,255)" stroke="rgb(0,0,0)" stroke-width="0.0010cm" stroke-linecap="round" stroke-linejoin="round" shaper:cutDepth="0.5cm" /><path d="M-2.9770593,-2.4342282 L-4.3935052,-2.4342282 -4.3935052,-1.0236053 -2.9770593,-1.0236053 -2.9770593,-2.4342282z" transform="matrix(1,0,0,-1,7.4001441,4.0325639)" fill="rgb(255,255,255)" stroke="rgb(0,0,0)" stroke-width="0.0010cm" stroke-linecap="round" stroke-linejoin="round" shaper:cutDepth="0.5cm" /><path d="M-6.6796809,3.160613 a0.1573677,0.1573677 0 1,1 0.3147353,0 a0.1573677,0.1573677 0 1,1 -0.3147353,0z" transform="matrix(1,0,0,-1,7.4001441,4.0325639)" fill="rgb(255,255,255)" stroke="rgb(0,0,0)" stroke-width="0.0010cm" stroke-linecap="round" stroke-linejoin="round" shaper:cutDepth="0.5cm" /><path d="M-0.0811364,0.8204638 a0.1597611,0.1597611 0 1,1 0.3195222,0 a0.1597611,0.1597611 0 1,1 -0.3195222,0z" transform="matrix(1,0,0,-1,7.4001441,4.0325639)" fill="rgb(255,255,255)" stroke="rgb(0,0,0)" stroke-width="0.0010cm" stroke-linecap="round" stroke-linejoin="round" shaper:cutDepth="0.5cm" /><path d="M-2.5965459,-0.849076 a0.1554552,0.1554552 0 1,1 0.3109103,0 a0.1554552,0.1554552 0 1,1 -0.3109103,0z" transform="matrix(1,0,0,-1,7.4001441,4.0325639)" fill="rgb(255,255,255)" stroke="rgb(0,0,0)" stroke-width="0.0010cm" stroke-linecap="round" stroke-linejoin="round" shaper:cutDepth="0.5cm" /><path d="M-0.4685499,-4.8969629 L-1.8850005,-4.8969629 -1.8850005,-3.4835389 -0.4685499,-3.4835389 -0.4685499,-4.8969629z" transform="matrix(1,0,0,-1,7.4001441,4.0325639)" fill="rgb(255,255,255)" stroke="rgb(0,0,0)" stroke-width="0.0010cm" stroke-linecap="round" stroke-linejoin="round" shaper:cutDepth="0.5cm" /><path d="M-5.0880025,-2.9981654 a0.1560386,0.1560386 0 1,1 0.3120772,0 a0.1560386,0.1560386 0 1,1 -0.3120772,0z" transform="matrix(1,0,0,-1,7.4001441,4.0325639)" fill="rgb(255,255,255)" stroke="rgb(0,0,0)" stroke-width="0.0010cm" stroke-linecap="round" stroke-linejoin="round" shaper:cutDepth="0.5cm" /><path d="M2.0405046,-4.8999895 L0.6210274,-4.8999895 0.6210274,-3.4835389 2.0405046,-3.4835389 2.0405046,-4.8999895z" transform="matrix(1,0,0,-1,7.4001441,4.0325639)" fill="rgb(255,255,255)" stroke="rgb(0,0,0)" stroke-width="0.0010cm" stroke-linecap="round" stroke-linejoin="round" shaper:cutDepth="0.5cm" /><path d="M-0.0587541,-2.9981654 a0.1587064,0.1587064 0 1,1 0.3174127,0 a0.1587064,0.1587064 0 1,1 -0.3174127,0z" transform="matrix(1,0,0,-1,7.4001441,4.0325639)" fill="rgb(255,255,255)" stroke="rgb(0,0,0)" stroke-width="0.0010cm" stroke-linecap="round" stroke-linejoin="round" shaper:cutDepth="0.5cm" /><path d="M-5.0922871,0.771866 a0.1568696,0.1568696 0 1,1 0.3137393,0 a0.1568696,0.1568696 0 1,1 -0.3137393,0z" transform="matrix(1,0,0,-1,7.4001441,4.0325639)" fill="rgb(255,255,255)" stroke="rgb(0,0,0)" stroke-width="0.0010cm" stroke-linecap="round" stroke-linejoin="round" shaper:cutDepth="0.5cm" /><path d="M1.4799119,3.160613 a0.1547906,0.1547906 0 1,1 0.3095813,0 a0.1547906,0.1547906 0 1,1 -0.3095813,0z" transform="matrix(1,0,0,-1,7.4001441,4.0325639)" fill="rgb(255,255,255)" stroke="rgb(0,0,0)" stroke-width="0.0010cm" stroke-linecap="round" stroke-linejoin="round" shaper:cutDepth="0.5cm" /><path d="M-5.0187145,-5.1306487 a0.156792,0.156792 0 1,1 0.313584,0 a0.156792,0.156792 0 1,1 -0.313584,0z" transform="matrix(1,0,0,-1,7.4001441,4.0325639)" fill="rgb(255,255,255)" stroke="rgb(0,0,0)" stroke-width="0.0010cm" stroke-linecap="round" stroke-linejoin="round" shaper:cutDepth="0.5cm" /><path d="M-0.4553343,-2.4342282 L-1.8746917,-2.4342282 -1.8746917,-1.0236053 -0.4553343,-1.0236053 -0.4553343,-2.4342282z" transform="matrix(1,0,0,-1,7.4001441,4.0325639)" fill="rgb(255,255,255)" stroke="rgb(0,0,0)" stroke-width="0.0010cm" stroke-linecap="round" stroke-linejoin="round" shaper:cutDepth="0.5cm" /><path d="M-0.0550578,-5.1306487 a0.1571305,0.1571305 0 1,1 0.314261,0 a0.1571305,0.1571305 0 1,1 -0.314261,0z" transform="matrix(1,0,0,-1,7.4001441,4.0325639)" fill="rgb(255,255,255)" stroke="rgb(0,0,0)" stroke-width="0.0010cm" stroke-linecap="round" stroke-linejoin="round" shaper:cutDepth="0.5cm" /><path d="M2.0285411,-2.4484218 L0.6139149,-2.4484218 0.6139149,-1.0236053 2.0285411,-1.0236053 2.0285411,-2.4484218z" transform="matrix(1,0,0,-1,7.4001441,4.0325639)" fill="rgb(255,255,255)" stroke="rgb(0,0,0)" stroke-width="0.0010cm" stroke-linecap="round" stroke-linejoin="round" shaper:cutDepth="0.5cm" /><path d="M-2.9624714,-4.9030161 L-4.394055,-4.9030161 -4.394055,-3.4835389 -2.9624714,-3.4835389 -2.9624714,-4.9030161z" transform="matrix(1,0,0,-1,7.4001441,4.0325639)" fill="rgb(255,255,255)" stroke="rgb(0,0,0)" stroke-width="0.0010cm" stroke-linecap="round" stroke-linejoin="round" shaper:cutDepth="0.5cm" /><path d="M-5.4745525,-4.9030161 L-6.8879765,-4.9030161 -6.8879765,-3.4835389 -5.4745525,-3.4835389 -5.4745525,-4.9030161z" transform="matrix(1,0,0,-1,7.4001441,4.0325639)" fill="rgb(255,255,255)" stroke="rgb(0,0,0)" stroke-width="0.0010cm" stroke-linecap="round" stroke-linejoin="round" shaper:cutDepth="0.5cm" /></g></svg>