G04 EAGLE Gerber RS-274X export*
G75*
%MOMM*%
%FSLAX34Y34*%
%LPD*%
%INTop Copper*%
%IPPOS*%
%AMOC8*
5,1,8,0,0,1.08239X$1,22.5*%
G01*
G04 Define Apertures*
%ADD10C,2.540000*%
%ADD11C,2.571600*%
%ADD12R,1.700000X1.700000*%
%ADD13C,1.700000*%
%ADD14C,0.152400*%
D10*
X266700Y482600D03*
X330200Y508000D03*
D11*
X254000Y457200D03*
X355600Y457200D03*
D10*
X444500Y673100D03*
X508000Y698500D03*
D11*
X431800Y647700D03*
X533400Y647700D03*
D10*
X266700Y673100D03*
X330200Y698500D03*
D11*
X254000Y647700D03*
X355600Y647700D03*
D10*
X444500Y482600D03*
X508000Y508000D03*
D11*
X431800Y457200D03*
X533400Y457200D03*
D10*
X88900Y482600D03*
X152400Y508000D03*
D11*
X76200Y457200D03*
X177800Y457200D03*
D10*
X622300Y304800D03*
X685800Y330200D03*
D11*
X609600Y279400D03*
X711200Y279400D03*
D10*
X444500Y304800D03*
X508000Y330200D03*
D11*
X431800Y279400D03*
X533400Y279400D03*
D10*
X266700Y304800D03*
X330200Y330200D03*
D11*
X254000Y279400D03*
X355600Y279400D03*
D10*
X88900Y304800D03*
X152400Y330200D03*
D11*
X76200Y279400D03*
X177800Y279400D03*
D10*
X622300Y482600D03*
X685800Y508000D03*
D11*
X609600Y457200D03*
X711200Y457200D03*
D10*
X622300Y673100D03*
X685800Y698500D03*
D11*
X609600Y647700D03*
X711200Y647700D03*
D12*
X38100Y749300D03*
D13*
X38100Y723900D03*
X38100Y698500D03*
X38100Y673100D03*
X38100Y647700D03*
X38100Y622300D03*
X38100Y596900D03*
X190500Y596900D03*
X190500Y622300D03*
X190500Y647700D03*
X190500Y673100D03*
X190500Y698500D03*
X190500Y723900D03*
X190500Y749300D03*
D14*
X124968Y748284D02*
X38100Y748284D01*
X124968Y748284D02*
X188976Y684276D01*
X195072Y684276D01*
X313944Y565404D01*
X313944Y492252D01*
X339852Y466344D01*
X339852Y408432D01*
X443484Y304800D01*
X38100Y748284D02*
X38100Y749300D01*
X443484Y304800D02*
X444500Y304800D01*
X97536Y723900D02*
X38100Y723900D01*
X97536Y723900D02*
X187452Y633984D01*
X195072Y633984D01*
X237744Y591312D01*
X237744Y333756D01*
X266700Y304800D01*
X38100Y688848D02*
X38100Y698500D01*
X38100Y688848D02*
X60960Y665988D01*
X60960Y332232D01*
X88392Y304800D01*
X88900Y304800D01*
X190500Y664464D02*
X190500Y673100D01*
X190500Y664464D02*
X266700Y588264D01*
X266700Y482600D01*
X190500Y612648D02*
X190500Y622300D01*
X190500Y612648D02*
X89916Y512064D01*
X89916Y483108D01*
X88900Y482600D01*
X190500Y723900D02*
X304800Y723900D01*
X330200Y698500D01*
X594360Y699516D02*
X685800Y699516D01*
X594360Y699516D02*
X509016Y699516D01*
X508000Y698500D01*
X685800Y698500D02*
X685800Y699516D01*
X507492Y699516D02*
X330708Y699516D01*
X330200Y698500D01*
X507492Y699516D02*
X508000Y698500D01*
X507492Y509016D02*
X330708Y509016D01*
X330200Y508000D01*
X507492Y509016D02*
X508000Y508000D01*
X509016Y509016D02*
X594360Y509016D01*
X685800Y509016D01*
X685800Y508000D01*
X509016Y509016D02*
X508000Y508000D01*
X594360Y330708D02*
X685800Y330708D01*
X594360Y330708D02*
X509016Y330708D01*
X508000Y330200D01*
X685800Y330708D02*
X685800Y330200D01*
X594360Y330708D02*
X594360Y509016D01*
X594360Y699516D01*
M02*
