G04 EAGLE Gerber RS-274X export*
G75*
%MOMM*%
%FSLAX34Y34*%
%LPD*%
%INSilkscreen Top*%
%IPPOS*%
%AMOC8*
5,1,8,0,0,1.08239X$1,22.5*%
G01*
G04 Define Apertures*
%ADD10C,0.127000*%
%ADD11C,0.508000*%
%ADD12C,0.076200*%
G36*
X101004Y657737D02*
X100743Y657743D01*
X100490Y657762D01*
X100010Y657834D01*
X99564Y657955D01*
X99152Y658124D01*
X98778Y658339D01*
X98449Y658598D01*
X98165Y658900D01*
X97925Y659246D01*
X97823Y659435D01*
X97734Y659632D01*
X97659Y659838D01*
X97598Y660053D01*
X97550Y660277D01*
X97516Y660509D01*
X97496Y660750D01*
X97489Y661001D01*
X97489Y666503D01*
X98661Y666503D01*
X98661Y661099D01*
X98670Y660812D01*
X98698Y660542D01*
X98745Y660291D01*
X98811Y660058D01*
X98896Y659842D01*
X98999Y659644D01*
X99121Y659464D01*
X99262Y659301D01*
X99421Y659158D01*
X99596Y659033D01*
X99788Y658928D01*
X99996Y658841D01*
X100222Y658774D01*
X100464Y658726D01*
X100722Y658698D01*
X100998Y658688D01*
X101281Y658698D01*
X101548Y658728D01*
X101799Y658777D01*
X102034Y658847D01*
X102252Y658936D01*
X102454Y659045D01*
X102641Y659174D01*
X102810Y659323D01*
X102962Y659491D01*
X103094Y659677D01*
X103205Y659881D01*
X103296Y660104D01*
X103367Y660345D01*
X103417Y660605D01*
X103447Y660882D01*
X103458Y661179D01*
X103458Y666503D01*
X104623Y666503D01*
X104623Y661111D01*
X104616Y660853D01*
X104595Y660605D01*
X104561Y660365D01*
X104512Y660134D01*
X104449Y659913D01*
X104373Y659700D01*
X104283Y659496D01*
X104178Y659301D01*
X103933Y658944D01*
X103642Y658631D01*
X103304Y658362D01*
X102921Y658139D01*
X102496Y657963D01*
X102270Y657894D01*
X102035Y657838D01*
X101791Y657794D01*
X101538Y657762D01*
X101275Y657744D01*
X101004Y657737D01*
G37*
G36*
X111956Y657860D02*
X106539Y657860D01*
X106539Y658799D01*
X108742Y658799D01*
X108742Y665448D01*
X106791Y664055D01*
X106791Y665098D01*
X108834Y666503D01*
X109852Y666503D01*
X109852Y658799D01*
X111956Y658799D01*
X111956Y657860D01*
G37*
D10*
X228600Y533400D02*
X381000Y533400D01*
X381000Y381000D01*
X228600Y381000D01*
X228600Y533400D01*
X406400Y723900D02*
X558800Y723900D01*
X558800Y571500D01*
X406400Y571500D01*
X406400Y723900D01*
X381000Y723900D02*
X228600Y723900D01*
X381000Y723900D02*
X381000Y571500D01*
X228600Y571500D01*
X228600Y723900D01*
X406400Y533400D02*
X558800Y533400D01*
X558800Y381000D01*
X406400Y381000D01*
X406400Y533400D01*
X203200Y533400D02*
X50800Y533400D01*
X203200Y533400D02*
X203200Y381000D01*
X50800Y381000D01*
X50800Y533400D01*
X584200Y355600D02*
X736600Y355600D01*
X736600Y203200D01*
X584200Y203200D01*
X584200Y355600D01*
X558800Y355600D02*
X406400Y355600D01*
X558800Y355600D02*
X558800Y203200D01*
X406400Y203200D01*
X406400Y355600D01*
X381000Y355600D02*
X228600Y355600D01*
X381000Y355600D02*
X381000Y203200D01*
X228600Y203200D01*
X228600Y355600D01*
X203200Y355600D02*
X50800Y355600D01*
X203200Y355600D02*
X203200Y203200D01*
X50800Y203200D01*
X50800Y355600D01*
X584200Y533400D02*
X736600Y533400D01*
X736600Y381000D01*
X584200Y381000D01*
X584200Y533400D01*
X584200Y723900D02*
X736600Y723900D01*
X736600Y571500D01*
X584200Y571500D01*
X584200Y723900D01*
X202300Y568100D02*
X26300Y568100D01*
X202300Y568100D02*
X202300Y778100D01*
X26300Y778100D01*
X26300Y568100D01*
X66300Y792300D02*
X162300Y792300D01*
X162300Y718780D01*
X66300Y718780D01*
X66300Y792300D01*
D11*
X8110Y759710D03*
D12*
X75770Y695981D02*
X75860Y695983D01*
X75949Y695989D01*
X76038Y695999D01*
X76126Y696012D01*
X76214Y696030D01*
X76301Y696051D01*
X76387Y696076D01*
X76472Y696105D01*
X76556Y696137D01*
X76638Y696173D01*
X76718Y696213D01*
X76797Y696256D01*
X76873Y696303D01*
X76948Y696352D01*
X77020Y696405D01*
X77090Y696461D01*
X77157Y696520D01*
X77222Y696582D01*
X77284Y696647D01*
X77343Y696714D01*
X77399Y696784D01*
X77452Y696856D01*
X77501Y696931D01*
X77548Y697008D01*
X77591Y697086D01*
X77631Y697166D01*
X77667Y697248D01*
X77699Y697332D01*
X77728Y697417D01*
X77753Y697503D01*
X77774Y697590D01*
X77792Y697678D01*
X77805Y697766D01*
X77815Y697855D01*
X77821Y697944D01*
X77823Y698034D01*
X75770Y695981D02*
X75643Y695983D01*
X75516Y695988D01*
X75390Y695998D01*
X75264Y696011D01*
X75138Y696027D01*
X75013Y696048D01*
X74888Y696072D01*
X74765Y696099D01*
X74642Y696130D01*
X74520Y696165D01*
X74399Y696203D01*
X74279Y696245D01*
X74161Y696291D01*
X74044Y696339D01*
X73928Y696392D01*
X73814Y696447D01*
X73702Y696506D01*
X73591Y696568D01*
X73482Y696633D01*
X73376Y696702D01*
X73271Y696773D01*
X73168Y696848D01*
X73068Y696926D01*
X72970Y697006D01*
X72874Y697089D01*
X72781Y697175D01*
X72690Y697264D01*
X72947Y703166D02*
X72949Y703256D01*
X72955Y703345D01*
X72965Y703434D01*
X72978Y703523D01*
X72996Y703610D01*
X73017Y703697D01*
X73042Y703783D01*
X73071Y703868D01*
X73103Y703952D01*
X73139Y704034D01*
X73179Y704114D01*
X73222Y704193D01*
X73269Y704269D01*
X73318Y704344D01*
X73371Y704416D01*
X73427Y704486D01*
X73486Y704553D01*
X73548Y704618D01*
X73613Y704680D01*
X73680Y704739D01*
X73750Y704795D01*
X73822Y704848D01*
X73897Y704897D01*
X73974Y704944D01*
X74052Y704987D01*
X74132Y705027D01*
X74214Y705063D01*
X74298Y705095D01*
X74383Y705124D01*
X74469Y705149D01*
X74556Y705170D01*
X74644Y705188D01*
X74732Y705201D01*
X74821Y705211D01*
X74910Y705217D01*
X75000Y705219D01*
X75124Y705217D01*
X75248Y705211D01*
X75371Y705201D01*
X75494Y705187D01*
X75617Y705169D01*
X75738Y705147D01*
X75860Y705122D01*
X75980Y705092D01*
X76099Y705059D01*
X76217Y705021D01*
X76334Y704980D01*
X76449Y704936D01*
X76563Y704887D01*
X76676Y704835D01*
X76786Y704779D01*
X76895Y704720D01*
X77002Y704657D01*
X77107Y704591D01*
X77209Y704522D01*
X77309Y704449D01*
X73973Y701370D02*
X73897Y701417D01*
X73822Y701468D01*
X73750Y701522D01*
X73680Y701579D01*
X73613Y701639D01*
X73548Y701702D01*
X73486Y701767D01*
X73427Y701835D01*
X73371Y701906D01*
X73318Y701979D01*
X73268Y702054D01*
X73222Y702132D01*
X73179Y702211D01*
X73139Y702292D01*
X73103Y702375D01*
X73071Y702459D01*
X73042Y702544D01*
X73017Y702631D01*
X72996Y702719D01*
X72978Y702807D01*
X72965Y702896D01*
X72955Y702986D01*
X72949Y703076D01*
X72947Y703166D01*
X76796Y699830D02*
X76873Y699783D01*
X76948Y699732D01*
X77020Y699678D01*
X77090Y699621D01*
X77157Y699561D01*
X77222Y699498D01*
X77284Y699433D01*
X77343Y699365D01*
X77399Y699294D01*
X77452Y699221D01*
X77502Y699146D01*
X77548Y699068D01*
X77591Y698989D01*
X77631Y698908D01*
X77667Y698825D01*
X77699Y698741D01*
X77728Y698656D01*
X77753Y698569D01*
X77774Y698482D01*
X77792Y698393D01*
X77805Y698304D01*
X77815Y698214D01*
X77821Y698124D01*
X77823Y698034D01*
X76796Y699830D02*
X73974Y701370D01*
X82843Y695981D02*
X85410Y695981D01*
X82843Y695981D02*
X82767Y695983D01*
X82692Y695988D01*
X82617Y695998D01*
X82543Y696011D01*
X82469Y696027D01*
X82396Y696047D01*
X82324Y696071D01*
X82254Y696098D01*
X82185Y696129D01*
X82117Y696163D01*
X82051Y696200D01*
X81987Y696241D01*
X81926Y696284D01*
X81866Y696331D01*
X81809Y696380D01*
X81754Y696432D01*
X81702Y696487D01*
X81653Y696544D01*
X81606Y696604D01*
X81563Y696665D01*
X81522Y696729D01*
X81485Y696795D01*
X81451Y696863D01*
X81420Y696932D01*
X81393Y697002D01*
X81369Y697074D01*
X81349Y697147D01*
X81333Y697221D01*
X81320Y697295D01*
X81310Y697370D01*
X81305Y697445D01*
X81303Y697521D01*
X81304Y697521D02*
X81304Y700087D01*
X81306Y700177D01*
X81312Y700266D01*
X81322Y700355D01*
X81335Y700443D01*
X81353Y700531D01*
X81374Y700618D01*
X81399Y700704D01*
X81428Y700789D01*
X81460Y700873D01*
X81496Y700955D01*
X81536Y701035D01*
X81579Y701114D01*
X81626Y701190D01*
X81675Y701265D01*
X81728Y701337D01*
X81784Y701407D01*
X81843Y701474D01*
X81905Y701539D01*
X81970Y701601D01*
X82037Y701660D01*
X82107Y701716D01*
X82179Y701769D01*
X82254Y701818D01*
X82331Y701865D01*
X82409Y701908D01*
X82489Y701948D01*
X82571Y701984D01*
X82655Y702016D01*
X82740Y702045D01*
X82826Y702070D01*
X82913Y702091D01*
X83001Y702109D01*
X83089Y702122D01*
X83178Y702132D01*
X83267Y702138D01*
X83357Y702140D01*
X83447Y702138D01*
X83536Y702132D01*
X83625Y702122D01*
X83713Y702109D01*
X83801Y702091D01*
X83888Y702070D01*
X83974Y702045D01*
X84059Y702016D01*
X84143Y701984D01*
X84225Y701948D01*
X84305Y701908D01*
X84384Y701865D01*
X84460Y701818D01*
X84535Y701769D01*
X84607Y701716D01*
X84677Y701660D01*
X84744Y701601D01*
X84809Y701539D01*
X84871Y701474D01*
X84930Y701407D01*
X84986Y701337D01*
X85039Y701265D01*
X85088Y701190D01*
X85135Y701114D01*
X85178Y701035D01*
X85218Y700955D01*
X85254Y700873D01*
X85286Y700789D01*
X85315Y700704D01*
X85340Y700618D01*
X85361Y700531D01*
X85379Y700443D01*
X85392Y700355D01*
X85402Y700266D01*
X85408Y700177D01*
X85410Y700087D01*
X85410Y699060D01*
X81304Y699060D01*
X90643Y695981D02*
X93210Y695981D01*
X90643Y695981D02*
X90567Y695983D01*
X90492Y695988D01*
X90417Y695998D01*
X90343Y696011D01*
X90269Y696027D01*
X90196Y696047D01*
X90124Y696071D01*
X90054Y696098D01*
X89985Y696129D01*
X89917Y696163D01*
X89851Y696200D01*
X89787Y696241D01*
X89726Y696284D01*
X89666Y696331D01*
X89609Y696380D01*
X89554Y696432D01*
X89502Y696487D01*
X89453Y696544D01*
X89406Y696604D01*
X89363Y696665D01*
X89322Y696729D01*
X89285Y696795D01*
X89251Y696863D01*
X89220Y696932D01*
X89193Y697002D01*
X89169Y697074D01*
X89149Y697147D01*
X89133Y697221D01*
X89120Y697295D01*
X89110Y697370D01*
X89105Y697445D01*
X89103Y697521D01*
X89104Y697521D02*
X89104Y700087D01*
X89106Y700177D01*
X89112Y700266D01*
X89122Y700355D01*
X89135Y700443D01*
X89153Y700531D01*
X89174Y700618D01*
X89199Y700704D01*
X89228Y700789D01*
X89260Y700873D01*
X89296Y700955D01*
X89336Y701035D01*
X89379Y701114D01*
X89426Y701190D01*
X89475Y701265D01*
X89528Y701337D01*
X89584Y701407D01*
X89643Y701474D01*
X89705Y701539D01*
X89770Y701601D01*
X89837Y701660D01*
X89907Y701716D01*
X89979Y701769D01*
X90054Y701818D01*
X90131Y701865D01*
X90209Y701908D01*
X90289Y701948D01*
X90371Y701984D01*
X90455Y702016D01*
X90540Y702045D01*
X90626Y702070D01*
X90713Y702091D01*
X90801Y702109D01*
X90889Y702122D01*
X90978Y702132D01*
X91067Y702138D01*
X91157Y702140D01*
X91247Y702138D01*
X91336Y702132D01*
X91425Y702122D01*
X91513Y702109D01*
X91601Y702091D01*
X91688Y702070D01*
X91774Y702045D01*
X91859Y702016D01*
X91943Y701984D01*
X92025Y701948D01*
X92105Y701908D01*
X92184Y701865D01*
X92260Y701818D01*
X92335Y701769D01*
X92407Y701716D01*
X92477Y701660D01*
X92544Y701601D01*
X92609Y701539D01*
X92671Y701474D01*
X92730Y701407D01*
X92786Y701337D01*
X92839Y701265D01*
X92888Y701190D01*
X92935Y701114D01*
X92978Y701035D01*
X93018Y700955D01*
X93054Y700873D01*
X93086Y700789D01*
X93115Y700704D01*
X93140Y700618D01*
X93161Y700531D01*
X93179Y700443D01*
X93192Y700355D01*
X93202Y700266D01*
X93208Y700177D01*
X93210Y700087D01*
X93210Y699060D01*
X89104Y699060D01*
X98443Y695981D02*
X101010Y695981D01*
X98443Y695981D02*
X98367Y695983D01*
X98292Y695988D01*
X98217Y695998D01*
X98143Y696011D01*
X98069Y696027D01*
X97996Y696047D01*
X97924Y696071D01*
X97854Y696098D01*
X97785Y696129D01*
X97717Y696163D01*
X97651Y696200D01*
X97587Y696241D01*
X97526Y696284D01*
X97466Y696331D01*
X97409Y696380D01*
X97354Y696432D01*
X97302Y696487D01*
X97253Y696544D01*
X97206Y696604D01*
X97163Y696665D01*
X97122Y696729D01*
X97085Y696795D01*
X97051Y696863D01*
X97020Y696932D01*
X96993Y697002D01*
X96969Y697074D01*
X96949Y697147D01*
X96933Y697221D01*
X96920Y697295D01*
X96910Y697370D01*
X96905Y697445D01*
X96903Y697521D01*
X96904Y697521D02*
X96904Y700087D01*
X96906Y700177D01*
X96912Y700266D01*
X96922Y700355D01*
X96935Y700443D01*
X96953Y700531D01*
X96974Y700618D01*
X96999Y700704D01*
X97028Y700789D01*
X97060Y700873D01*
X97096Y700955D01*
X97136Y701035D01*
X97179Y701114D01*
X97226Y701190D01*
X97275Y701265D01*
X97328Y701337D01*
X97384Y701407D01*
X97443Y701474D01*
X97505Y701539D01*
X97570Y701601D01*
X97637Y701660D01*
X97707Y701716D01*
X97779Y701769D01*
X97854Y701818D01*
X97931Y701865D01*
X98009Y701908D01*
X98089Y701948D01*
X98171Y701984D01*
X98255Y702016D01*
X98340Y702045D01*
X98426Y702070D01*
X98513Y702091D01*
X98601Y702109D01*
X98689Y702122D01*
X98778Y702132D01*
X98867Y702138D01*
X98957Y702140D01*
X99047Y702138D01*
X99136Y702132D01*
X99225Y702122D01*
X99313Y702109D01*
X99401Y702091D01*
X99488Y702070D01*
X99574Y702045D01*
X99659Y702016D01*
X99743Y701984D01*
X99825Y701948D01*
X99905Y701908D01*
X99984Y701865D01*
X100060Y701818D01*
X100135Y701769D01*
X100207Y701716D01*
X100277Y701660D01*
X100344Y701601D01*
X100409Y701539D01*
X100471Y701474D01*
X100530Y701407D01*
X100586Y701337D01*
X100639Y701265D01*
X100688Y701190D01*
X100735Y701114D01*
X100778Y701035D01*
X100818Y700955D01*
X100854Y700873D01*
X100886Y700789D01*
X100915Y700704D01*
X100940Y700618D01*
X100961Y700531D01*
X100979Y700443D01*
X100992Y700355D01*
X101002Y700266D01*
X101008Y700177D01*
X101010Y700087D01*
X101010Y699060D01*
X96904Y699060D01*
X108764Y695981D02*
X108764Y705219D01*
X108764Y695981D02*
X106198Y695981D01*
X106122Y695983D01*
X106047Y695988D01*
X105972Y695998D01*
X105898Y696011D01*
X105824Y696027D01*
X105751Y696047D01*
X105679Y696071D01*
X105609Y696098D01*
X105540Y696129D01*
X105472Y696163D01*
X105406Y696200D01*
X105342Y696241D01*
X105281Y696284D01*
X105221Y696331D01*
X105164Y696380D01*
X105109Y696432D01*
X105057Y696487D01*
X105008Y696544D01*
X104961Y696604D01*
X104918Y696665D01*
X104877Y696729D01*
X104840Y696795D01*
X104806Y696863D01*
X104775Y696932D01*
X104748Y697002D01*
X104724Y697074D01*
X104704Y697147D01*
X104688Y697221D01*
X104675Y697295D01*
X104665Y697370D01*
X104660Y697445D01*
X104658Y697521D01*
X104659Y697521D02*
X104659Y700600D01*
X104658Y700600D02*
X104660Y700676D01*
X104665Y700751D01*
X104675Y700826D01*
X104688Y700900D01*
X104704Y700974D01*
X104724Y701047D01*
X104748Y701119D01*
X104775Y701189D01*
X104806Y701258D01*
X104840Y701326D01*
X104877Y701392D01*
X104918Y701456D01*
X104961Y701517D01*
X105008Y701577D01*
X105057Y701634D01*
X105109Y701689D01*
X105164Y701741D01*
X105221Y701790D01*
X105281Y701837D01*
X105342Y701880D01*
X105406Y701921D01*
X105472Y701958D01*
X105540Y701992D01*
X105609Y702023D01*
X105679Y702050D01*
X105751Y702074D01*
X105824Y702094D01*
X105898Y702110D01*
X105972Y702123D01*
X106047Y702133D01*
X106122Y702138D01*
X106198Y702140D01*
X108764Y702140D01*
X120470Y695981D02*
X120560Y695983D01*
X120649Y695989D01*
X120738Y695999D01*
X120826Y696012D01*
X120914Y696030D01*
X121001Y696051D01*
X121087Y696076D01*
X121172Y696105D01*
X121256Y696137D01*
X121338Y696173D01*
X121418Y696213D01*
X121497Y696256D01*
X121573Y696303D01*
X121648Y696352D01*
X121720Y696405D01*
X121790Y696461D01*
X121857Y696520D01*
X121922Y696582D01*
X121984Y696647D01*
X122043Y696714D01*
X122099Y696784D01*
X122152Y696856D01*
X122201Y696931D01*
X122248Y697008D01*
X122291Y697086D01*
X122331Y697166D01*
X122367Y697248D01*
X122399Y697332D01*
X122428Y697417D01*
X122453Y697503D01*
X122474Y697590D01*
X122492Y697678D01*
X122505Y697766D01*
X122515Y697855D01*
X122521Y697944D01*
X122523Y698034D01*
X120470Y695981D02*
X120343Y695983D01*
X120216Y695988D01*
X120090Y695998D01*
X119964Y696011D01*
X119838Y696027D01*
X119713Y696048D01*
X119588Y696072D01*
X119465Y696099D01*
X119342Y696130D01*
X119220Y696165D01*
X119099Y696203D01*
X118979Y696245D01*
X118861Y696291D01*
X118744Y696339D01*
X118628Y696392D01*
X118514Y696447D01*
X118402Y696506D01*
X118291Y696568D01*
X118182Y696633D01*
X118076Y696702D01*
X117971Y696773D01*
X117868Y696848D01*
X117768Y696926D01*
X117670Y697006D01*
X117574Y697089D01*
X117481Y697175D01*
X117390Y697264D01*
X117647Y703166D02*
X117649Y703256D01*
X117655Y703345D01*
X117665Y703434D01*
X117678Y703523D01*
X117696Y703610D01*
X117717Y703697D01*
X117742Y703783D01*
X117771Y703868D01*
X117803Y703952D01*
X117839Y704034D01*
X117879Y704114D01*
X117922Y704193D01*
X117969Y704269D01*
X118018Y704344D01*
X118071Y704416D01*
X118127Y704486D01*
X118186Y704553D01*
X118248Y704618D01*
X118313Y704680D01*
X118380Y704739D01*
X118450Y704795D01*
X118522Y704848D01*
X118597Y704897D01*
X118674Y704944D01*
X118752Y704987D01*
X118832Y705027D01*
X118914Y705063D01*
X118998Y705095D01*
X119083Y705124D01*
X119169Y705149D01*
X119256Y705170D01*
X119344Y705188D01*
X119432Y705201D01*
X119521Y705211D01*
X119610Y705217D01*
X119700Y705219D01*
X119824Y705217D01*
X119948Y705211D01*
X120071Y705201D01*
X120194Y705187D01*
X120317Y705169D01*
X120438Y705147D01*
X120560Y705122D01*
X120680Y705092D01*
X120799Y705059D01*
X120917Y705021D01*
X121034Y704980D01*
X121149Y704936D01*
X121263Y704887D01*
X121376Y704835D01*
X121486Y704779D01*
X121595Y704720D01*
X121702Y704657D01*
X121807Y704591D01*
X121909Y704522D01*
X122009Y704449D01*
X118673Y701370D02*
X118597Y701417D01*
X118522Y701468D01*
X118450Y701522D01*
X118380Y701579D01*
X118313Y701639D01*
X118248Y701702D01*
X118186Y701767D01*
X118127Y701835D01*
X118071Y701906D01*
X118018Y701979D01*
X117968Y702054D01*
X117922Y702132D01*
X117879Y702211D01*
X117839Y702292D01*
X117803Y702375D01*
X117771Y702459D01*
X117742Y702544D01*
X117717Y702631D01*
X117696Y702719D01*
X117678Y702807D01*
X117665Y702896D01*
X117655Y702986D01*
X117649Y703076D01*
X117647Y703166D01*
X121496Y699830D02*
X121573Y699783D01*
X121648Y699732D01*
X121720Y699678D01*
X121790Y699621D01*
X121857Y699561D01*
X121922Y699498D01*
X121984Y699433D01*
X122043Y699365D01*
X122099Y699294D01*
X122152Y699221D01*
X122202Y699146D01*
X122248Y699068D01*
X122291Y698989D01*
X122331Y698908D01*
X122367Y698825D01*
X122399Y698741D01*
X122428Y698656D01*
X122453Y698569D01*
X122474Y698482D01*
X122492Y698393D01*
X122505Y698304D01*
X122515Y698214D01*
X122521Y698124D01*
X122523Y698034D01*
X121496Y699830D02*
X118674Y701370D01*
X125246Y702140D02*
X128325Y702140D01*
X126272Y705219D02*
X126272Y697521D01*
X126274Y697445D01*
X126279Y697370D01*
X126289Y697295D01*
X126302Y697221D01*
X126318Y697147D01*
X126338Y697074D01*
X126362Y697002D01*
X126389Y696932D01*
X126420Y696863D01*
X126454Y696795D01*
X126491Y696729D01*
X126532Y696665D01*
X126575Y696604D01*
X126622Y696544D01*
X126671Y696487D01*
X126723Y696432D01*
X126778Y696380D01*
X126835Y696331D01*
X126895Y696284D01*
X126956Y696241D01*
X127020Y696200D01*
X127086Y696163D01*
X127154Y696129D01*
X127223Y696098D01*
X127293Y696071D01*
X127365Y696047D01*
X127438Y696027D01*
X127512Y696011D01*
X127586Y695998D01*
X127661Y695988D01*
X127736Y695983D01*
X127812Y695981D01*
X128325Y695981D01*
X132004Y697521D02*
X132004Y702140D01*
X132003Y697521D02*
X132005Y697445D01*
X132010Y697370D01*
X132020Y697295D01*
X132033Y697221D01*
X132049Y697147D01*
X132069Y697074D01*
X132093Y697002D01*
X132120Y696932D01*
X132151Y696863D01*
X132185Y696795D01*
X132222Y696729D01*
X132263Y696665D01*
X132306Y696604D01*
X132353Y696544D01*
X132402Y696487D01*
X132454Y696432D01*
X132509Y696380D01*
X132566Y696331D01*
X132626Y696284D01*
X132687Y696241D01*
X132751Y696200D01*
X132817Y696163D01*
X132885Y696129D01*
X132954Y696098D01*
X133024Y696071D01*
X133096Y696047D01*
X133169Y696027D01*
X133243Y696011D01*
X133317Y695998D01*
X133392Y695988D01*
X133467Y695983D01*
X133543Y695981D01*
X136109Y695981D01*
X136109Y702140D01*
X144164Y705219D02*
X144164Y695981D01*
X141598Y695981D01*
X141522Y695983D01*
X141447Y695988D01*
X141372Y695998D01*
X141298Y696011D01*
X141224Y696027D01*
X141151Y696047D01*
X141079Y696071D01*
X141009Y696098D01*
X140940Y696129D01*
X140872Y696163D01*
X140806Y696200D01*
X140742Y696241D01*
X140681Y696284D01*
X140621Y696331D01*
X140564Y696380D01*
X140509Y696432D01*
X140457Y696487D01*
X140408Y696544D01*
X140361Y696604D01*
X140318Y696665D01*
X140277Y696729D01*
X140240Y696795D01*
X140206Y696863D01*
X140175Y696932D01*
X140148Y697002D01*
X140124Y697074D01*
X140104Y697147D01*
X140088Y697221D01*
X140075Y697295D01*
X140065Y697370D01*
X140060Y697445D01*
X140058Y697521D01*
X140058Y700600D01*
X140060Y700676D01*
X140065Y700751D01*
X140075Y700826D01*
X140088Y700900D01*
X140104Y700974D01*
X140124Y701047D01*
X140148Y701119D01*
X140175Y701189D01*
X140206Y701258D01*
X140240Y701326D01*
X140277Y701392D01*
X140318Y701456D01*
X140361Y701517D01*
X140408Y701577D01*
X140457Y701634D01*
X140509Y701689D01*
X140564Y701741D01*
X140621Y701790D01*
X140681Y701837D01*
X140742Y701880D01*
X140806Y701921D01*
X140872Y701958D01*
X140940Y701992D01*
X141009Y702023D01*
X141079Y702050D01*
X141151Y702074D01*
X141224Y702094D01*
X141298Y702110D01*
X141372Y702123D01*
X141447Y702133D01*
X141522Y702138D01*
X141598Y702140D01*
X144164Y702140D01*
X148157Y702140D02*
X148157Y695981D01*
X147900Y704706D02*
X147900Y705219D01*
X148413Y705219D01*
X148413Y704706D01*
X147900Y704706D01*
X151804Y700087D02*
X151804Y698034D01*
X151804Y700087D02*
X151806Y700177D01*
X151812Y700266D01*
X151822Y700355D01*
X151835Y700443D01*
X151853Y700531D01*
X151874Y700618D01*
X151899Y700704D01*
X151928Y700789D01*
X151960Y700873D01*
X151996Y700955D01*
X152036Y701035D01*
X152079Y701114D01*
X152126Y701190D01*
X152175Y701265D01*
X152228Y701337D01*
X152284Y701407D01*
X152343Y701474D01*
X152405Y701539D01*
X152470Y701601D01*
X152537Y701660D01*
X152607Y701716D01*
X152679Y701769D01*
X152754Y701818D01*
X152831Y701865D01*
X152909Y701908D01*
X152989Y701948D01*
X153071Y701984D01*
X153155Y702016D01*
X153240Y702045D01*
X153326Y702070D01*
X153413Y702091D01*
X153501Y702109D01*
X153589Y702122D01*
X153678Y702132D01*
X153767Y702138D01*
X153857Y702140D01*
X153947Y702138D01*
X154036Y702132D01*
X154125Y702122D01*
X154213Y702109D01*
X154301Y702091D01*
X154388Y702070D01*
X154474Y702045D01*
X154559Y702016D01*
X154643Y701984D01*
X154725Y701948D01*
X154805Y701908D01*
X154884Y701865D01*
X154960Y701818D01*
X155035Y701769D01*
X155107Y701716D01*
X155177Y701660D01*
X155244Y701601D01*
X155309Y701539D01*
X155371Y701474D01*
X155430Y701407D01*
X155486Y701337D01*
X155539Y701265D01*
X155588Y701190D01*
X155635Y701114D01*
X155678Y701035D01*
X155718Y700955D01*
X155754Y700873D01*
X155786Y700789D01*
X155815Y700704D01*
X155840Y700618D01*
X155861Y700531D01*
X155879Y700443D01*
X155892Y700355D01*
X155902Y700266D01*
X155908Y700177D01*
X155910Y700087D01*
X155909Y700087D02*
X155909Y698034D01*
X155910Y698034D02*
X155908Y697944D01*
X155902Y697855D01*
X155892Y697766D01*
X155879Y697678D01*
X155861Y697590D01*
X155840Y697503D01*
X155815Y697417D01*
X155786Y697332D01*
X155754Y697248D01*
X155718Y697166D01*
X155678Y697086D01*
X155635Y697008D01*
X155588Y696931D01*
X155539Y696856D01*
X155486Y696784D01*
X155430Y696714D01*
X155371Y696647D01*
X155309Y696582D01*
X155244Y696520D01*
X155177Y696461D01*
X155107Y696405D01*
X155035Y696352D01*
X154960Y696303D01*
X154884Y696256D01*
X154805Y696213D01*
X154725Y696173D01*
X154643Y696137D01*
X154559Y696105D01*
X154474Y696076D01*
X154388Y696051D01*
X154301Y696030D01*
X154213Y696012D01*
X154125Y695999D01*
X154036Y695989D01*
X153947Y695983D01*
X153857Y695981D01*
X153767Y695983D01*
X153678Y695989D01*
X153589Y695999D01*
X153501Y696012D01*
X153413Y696030D01*
X153326Y696051D01*
X153240Y696076D01*
X153155Y696105D01*
X153071Y696137D01*
X152989Y696173D01*
X152909Y696213D01*
X152831Y696256D01*
X152754Y696303D01*
X152679Y696352D01*
X152607Y696405D01*
X152537Y696461D01*
X152470Y696520D01*
X152405Y696582D01*
X152343Y696647D01*
X152284Y696714D01*
X152228Y696784D01*
X152175Y696856D01*
X152126Y696931D01*
X152079Y697008D01*
X152036Y697086D01*
X151996Y697166D01*
X151960Y697248D01*
X151928Y697332D01*
X151899Y697417D01*
X151874Y697503D01*
X151853Y697590D01*
X151835Y697678D01*
X151822Y697766D01*
X151812Y697855D01*
X151806Y697944D01*
X151804Y698034D01*
X105936Y690219D02*
X99777Y680981D01*
X105936Y680981D02*
X99777Y690219D01*
X110057Y690219D02*
X110057Y680981D01*
X111083Y680981D02*
X109030Y680981D01*
X109030Y690219D02*
X111083Y690219D01*
X117257Y690219D02*
X114177Y680981D01*
X120336Y680981D02*
X117257Y690219D01*
X119566Y683291D02*
X114947Y683291D01*
X123690Y683547D02*
X123690Y687653D01*
X123691Y687653D02*
X123693Y687752D01*
X123699Y687852D01*
X123708Y687951D01*
X123722Y688049D01*
X123739Y688147D01*
X123760Y688245D01*
X123785Y688341D01*
X123814Y688436D01*
X123846Y688531D01*
X123882Y688623D01*
X123921Y688715D01*
X123964Y688805D01*
X124010Y688893D01*
X124060Y688979D01*
X124113Y689063D01*
X124169Y689145D01*
X124229Y689225D01*
X124291Y689302D01*
X124357Y689377D01*
X124425Y689450D01*
X124496Y689519D01*
X124570Y689586D01*
X124646Y689650D01*
X124725Y689711D01*
X124806Y689769D01*
X124889Y689824D01*
X124974Y689875D01*
X125061Y689923D01*
X125150Y689968D01*
X125241Y690009D01*
X125333Y690047D01*
X125426Y690081D01*
X125521Y690111D01*
X125617Y690138D01*
X125714Y690161D01*
X125811Y690180D01*
X125910Y690195D01*
X126009Y690207D01*
X126108Y690215D01*
X126207Y690219D01*
X126307Y690219D01*
X126406Y690215D01*
X126505Y690207D01*
X126604Y690195D01*
X126703Y690180D01*
X126800Y690161D01*
X126897Y690138D01*
X126993Y690111D01*
X127088Y690081D01*
X127181Y690047D01*
X127273Y690009D01*
X127364Y689968D01*
X127453Y689923D01*
X127540Y689875D01*
X127625Y689824D01*
X127708Y689769D01*
X127789Y689711D01*
X127868Y689650D01*
X127944Y689586D01*
X128018Y689519D01*
X128089Y689450D01*
X128157Y689377D01*
X128223Y689302D01*
X128285Y689225D01*
X128345Y689145D01*
X128401Y689063D01*
X128454Y688979D01*
X128504Y688893D01*
X128550Y688805D01*
X128593Y688715D01*
X128632Y688623D01*
X128668Y688531D01*
X128700Y688436D01*
X128729Y688341D01*
X128754Y688245D01*
X128775Y688147D01*
X128792Y688049D01*
X128806Y687951D01*
X128815Y687852D01*
X128821Y687752D01*
X128823Y687653D01*
X128823Y683547D01*
X128821Y683448D01*
X128815Y683348D01*
X128806Y683249D01*
X128792Y683151D01*
X128775Y683053D01*
X128754Y682955D01*
X128729Y682859D01*
X128700Y682764D01*
X128668Y682669D01*
X128632Y682577D01*
X128593Y682485D01*
X128550Y682395D01*
X128504Y682307D01*
X128454Y682221D01*
X128401Y682137D01*
X128345Y682055D01*
X128285Y681975D01*
X128223Y681898D01*
X128157Y681823D01*
X128089Y681750D01*
X128018Y681681D01*
X127944Y681614D01*
X127868Y681550D01*
X127789Y681489D01*
X127708Y681431D01*
X127625Y681376D01*
X127540Y681325D01*
X127453Y681277D01*
X127364Y681232D01*
X127273Y681191D01*
X127181Y681153D01*
X127088Y681119D01*
X126993Y681089D01*
X126897Y681062D01*
X126800Y681039D01*
X126703Y681020D01*
X126604Y681005D01*
X126505Y680993D01*
X126406Y680985D01*
X126307Y680981D01*
X126207Y680981D01*
X126108Y680985D01*
X126009Y680993D01*
X125910Y681005D01*
X125811Y681020D01*
X125714Y681039D01*
X125617Y681062D01*
X125521Y681089D01*
X125426Y681119D01*
X125333Y681153D01*
X125241Y681191D01*
X125150Y681232D01*
X125061Y681277D01*
X124974Y681325D01*
X124889Y681376D01*
X124806Y681431D01*
X124725Y681489D01*
X124646Y681550D01*
X124570Y681614D01*
X124496Y681681D01*
X124425Y681750D01*
X124357Y681823D01*
X124291Y681898D01*
X124229Y681975D01*
X124169Y682055D01*
X124113Y682137D01*
X124060Y682221D01*
X124010Y682307D01*
X123964Y682395D01*
X123921Y682485D01*
X123882Y682577D01*
X123846Y682669D01*
X123814Y682764D01*
X123785Y682859D01*
X123760Y682955D01*
X123739Y683053D01*
X123722Y683151D01*
X123708Y683249D01*
X123699Y683348D01*
X123693Y683448D01*
X123691Y683547D01*
M02*
