solid ASCII
  facet normal 0.000000e+00 0.000000e+00 1.000000e+00
    outer loop
      vertex   4.550000e+02 -1.950000e+02 0.000000e+00
      vertex   3.000000e+01 -1.950000e+02 0.000000e+00
      vertex   4.550000e+02 -3.350000e+02 0.000000e+00
    endloop
  endfacet
  facet normal 0.000000e+00 0.000000e+00 1.000000e+00
    outer loop
      vertex   4.550000e+02 -3.350000e+02 0.000000e+00
      vertex   3.000000e+01 -1.950000e+02 0.000000e+00
      vertex   3.000000e+01 -3.350000e+02 0.000000e+00
    endloop
  endfacet
  facet normal 0.000000e+00 0.000000e+00 -1.000000e+00
    outer loop
      vertex   2.500000e+01 -1.900000e+02 -5.000000e+00
      vertex   4.600000e+02 -1.900000e+02 -5.000000e+00
      vertex   2.500000e+01 -3.400000e+02 -5.000000e+00
    endloop
  endfacet
  facet normal 0.000000e+00 0.000000e+00 -1.000000e+00
    outer loop
      vertex   2.500000e+01 -3.400000e+02 -5.000000e+00
      vertex   4.600000e+02 -1.900000e+02 -5.000000e+00
      vertex   4.600000e+02 -3.400000e+02 -5.000000e+00
    endloop
  endfacet
  facet normal -1.000000e+00 0.000000e+00 0.000000e+00
    outer loop
      vertex   4.550000e+02 -1.950000e+02 0.000000e+00
      vertex   4.550000e+02 -3.350000e+02 0.000000e+00
      vertex   4.550000e+02 -1.950000e+02 5.000000e+00
    endloop
  endfacet
  facet normal -1.000000e+00 -0.000000e+00 0.000000e+00
    outer loop
      vertex   4.550000e+02 -1.950000e+02 5.000000e+00
      vertex   4.550000e+02 -3.350000e+02 0.000000e+00
      vertex   4.550000e+02 -3.350000e+02 5.000000e+00
    endloop
  endfacet
  facet normal 0.000000e+00 -1.000000e+00 0.000000e+00
    outer loop
      vertex   3.000000e+01 -1.950000e+02 0.000000e+00
      vertex   4.550000e+02 -1.950000e+02 0.000000e+00
      vertex   3.000000e+01 -1.950000e+02 5.000000e+00
    endloop
  endfacet
  facet normal 0.000000e+00 -1.000000e+00 0.000000e+00
    outer loop
      vertex   3.000000e+01 -1.950000e+02 5.000000e+00
      vertex   4.550000e+02 -1.950000e+02 0.000000e+00
      vertex   4.550000e+02 -1.950000e+02 5.000000e+00
    endloop
  endfacet
  facet normal 1.000000e+00 0.000000e+00 0.000000e+00
    outer loop
      vertex   3.000000e+01 -3.350000e+02 0.000000e+00
      vertex   3.000000e+01 -1.950000e+02 0.000000e+00
      vertex   3.000000e+01 -3.350000e+02 5.000000e+00
    endloop
  endfacet
  facet normal 1.000000e+00 -0.000000e+00 0.000000e+00
    outer loop
      vertex   3.000000e+01 -3.350000e+02 5.000000e+00
      vertex   3.000000e+01 -1.950000e+02 0.000000e+00
      vertex   3.000000e+01 -1.950000e+02 5.000000e+00
    endloop
  endfacet
  facet normal 0.000000e+00 1.000000e+00 -0.000000e+00
    outer loop
      vertex   4.550000e+02 -3.350000e+02 0.000000e+00
      vertex   3.000000e+01 -3.350000e+02 0.000000e+00
      vertex   4.550000e+02 -3.350000e+02 5.000000e+00
    endloop
  endfacet
  facet normal 0.000000e+00 1.000000e+00 0.000000e+00
    outer loop
      vertex   4.550000e+02 -3.350000e+02 5.000000e+00
      vertex   3.000000e+01 -3.350000e+02 0.000000e+00
      vertex   3.000000e+01 -3.350000e+02 5.000000e+00
    endloop
  endfacet
  facet normal 1.000000e+00 0.000000e+00 0.000000e+00
    outer loop
      vertex   4.600000e+02 -1.900000e+02 5.000000e+00
      vertex   4.600000e+02 -3.400000e+02 5.000000e+00
      vertex   4.600000e+02 -1.900000e+02 -5.000000e+00
    endloop
  endfacet
  facet normal 1.000000e+00 0.000000e+00 0.000000e+00
    outer loop
      vertex   4.600000e+02 -1.900000e+02 -5.000000e+00
      vertex   4.600000e+02 -3.400000e+02 5.000000e+00
      vertex   4.600000e+02 -3.400000e+02 -5.000000e+00
    endloop
  endfacet
  facet normal -0.000000e+00 -1.000000e+00 -0.000000e+00
    outer loop
      vertex   4.600000e+02 -3.400000e+02 5.000000e+00
      vertex   2.500000e+01 -3.400000e+02 5.000000e+00
      vertex   4.600000e+02 -3.400000e+02 -5.000000e+00
    endloop
  endfacet
  facet normal 0.000000e+00 -1.000000e+00 0.000000e+00
    outer loop
      vertex   4.600000e+02 -3.400000e+02 -5.000000e+00
      vertex   2.500000e+01 -3.400000e+02 5.000000e+00
      vertex   2.500000e+01 -3.400000e+02 -5.000000e+00
    endloop
  endfacet
  facet normal -1.000000e+00 0.000000e+00 0.000000e+00
    outer loop
      vertex   2.500000e+01 -3.400000e+02 5.000000e+00
      vertex   2.500000e+01 -1.900000e+02 5.000000e+00
      vertex   2.500000e+01 -3.400000e+02 -5.000000e+00
    endloop
  endfacet
  facet normal -1.000000e+00 0.000000e+00 0.000000e+00
    outer loop
      vertex   2.500000e+01 -3.400000e+02 -5.000000e+00
      vertex   2.500000e+01 -1.900000e+02 5.000000e+00
      vertex   2.500000e+01 -1.900000e+02 -5.000000e+00
    endloop
  endfacet
  facet normal -0.000000e+00 1.000000e+00 0.000000e+00
    outer loop
      vertex   2.500000e+01 -1.900000e+02 5.000000e+00
      vertex   4.600000e+02 -1.900000e+02 5.000000e+00
      vertex   2.500000e+01 -1.900000e+02 -5.000000e+00
    endloop
  endfacet
  facet normal 0.000000e+00 1.000000e+00 0.000000e+00
    outer loop
      vertex   2.500000e+01 -1.900000e+02 -5.000000e+00
      vertex   4.600000e+02 -1.900000e+02 5.000000e+00
      vertex   4.600000e+02 -1.900000e+02 -5.000000e+00
    endloop
  endfacet
  facet normal 0.000000e+00 0.000000e+00 1.000000e+00
    outer loop
      vertex   4.550000e+02 -1.950000e+02 5.000000e+00
      vertex   4.550000e+02 -3.350000e+02 5.000000e+00
      vertex   4.600000e+02 -3.400000e+02 5.000000e+00
    endloop
  endfacet
  facet normal 0.000000e+00 0.000000e+00 1.000000e+00
    outer loop
      vertex   4.600000e+02 -3.400000e+02 5.000000e+00
      vertex   4.550000e+02 -3.350000e+02 5.000000e+00
      vertex   3.000000e+01 -3.350000e+02 5.000000e+00
    endloop
  endfacet
  facet normal 0.000000e+00 0.000000e+00 1.000000e+00
    outer loop
      vertex   4.600000e+02 -3.400000e+02 5.000000e+00
      vertex   3.000000e+01 -3.350000e+02 5.000000e+00
      vertex   2.500000e+01 -3.400000e+02 5.000000e+00
    endloop
  endfacet
  facet normal 0.000000e+00 0.000000e+00 1.000000e+00
    outer loop
      vertex   2.500000e+01 -3.400000e+02 5.000000e+00
      vertex   3.000000e+01 -3.350000e+02 5.000000e+00
      vertex   3.000000e+01 -1.950000e+02 5.000000e+00
    endloop
  endfacet
  facet normal 0.000000e+00 0.000000e+00 1.000000e+00
    outer loop
      vertex   2.500000e+01 -3.400000e+02 5.000000e+00
      vertex   3.000000e+01 -1.950000e+02 5.000000e+00
      vertex   2.500000e+01 -1.900000e+02 5.000000e+00
    endloop
  endfacet
  facet normal -0.000000e+00 0.000000e+00 1.000000e+00
    outer loop
      vertex   2.500000e+01 -1.900000e+02 5.000000e+00
      vertex   3.000000e+01 -1.950000e+02 5.000000e+00
      vertex   4.600000e+02 -1.900000e+02 5.000000e+00
    endloop
  endfacet
  facet normal 0.000000e+00 0.000000e+00 1.000000e+00
    outer loop
      vertex   4.600000e+02 -1.900000e+02 5.000000e+00
      vertex   3.000000e+01 -1.950000e+02 5.000000e+00
      vertex   4.550000e+02 -1.950000e+02 5.000000e+00
    endloop
  endfacet
  facet normal 0.000000e+00 0.000000e+00 1.000000e+00
    outer loop
      vertex   4.600000e+02 -1.900000e+02 5.000000e+00
      vertex   4.550000e+02 -1.950000e+02 5.000000e+00
      vertex   4.600000e+02 -3.400000e+02 5.000000e+00
    endloop
  endfacet
endsolid
