M48
METRIC,LZ,000.000
;FILE_FORMAT=3:3
;TYPE=PLATED
;Layer: PTH_Through_Via
;EasyEDA v6.5.46, 2024-10-06 11:37:13
;ab947d6f174c44c6bcda00e1859507e9,10
;Gerber Generator version 0.2
;Holesize 1 = 0.306 mm
T01C0.306
%
G05
G90
T01
X039800Y110213
X060445Y038131
X043746Y058680
X016495Y120693
X030244Y047674
X027298Y110458
X022560Y113503
X022746Y091341
X027248Y125307
X033302Y099564
X056631Y125763
X011549Y122640
X011549Y063530
X023515Y046498
X020481Y107906
X021055Y062989
X021641Y070641
X070003Y053394
X063721Y049964
X062738Y048768
M30
