G04 Layer: TopSolderMaskLayer*
G04 EasyEDA v6.5.46, 2024-10-06 11:37:13*
G04 ab947d6f174c44c6bcda00e1859507e9,10*
G04 Gerber Generator version 0.2*
G04 Scale: 100 percent, Rotated: No, Reflected: No *
G04 Dimensions in millimeters *
G04 leading zeros omitted , absolute positions ,4 integer and 5 decimal *
%FSLAX45Y45*%
%MOMM*%

%AMMACRO1*4,1,8,-1.112,-0.6566,-1.1417,-0.6268,-1.1417,0.6268,-1.112,0.6566,1.112,0.6566,1.1417,0.6268,1.1417,-0.6268,1.112,-0.6566,-1.112,-0.6566,0*%
%AMMACRO2*4,1,8,-0.9311,-0.9906,-0.9906,-0.9311,-0.9906,0.9311,-0.9311,0.9906,0.9311,0.9906,0.9906,0.9311,0.9906,-0.9311,0.9311,-0.9906,-0.9311,-0.9906,0*%
%ADD10O,2.601595X1.6015970000000002*%
%ADD11O,1.6015970000000002X2.601595*%
%ADD12C,1.7016*%
%ADD13C,1.6256*%
%ADD14C,1.6015*%
%ADD15O,1.8015966X2.5015952*%
%ADD16O,2.7015948X4.101592*%
%ADD17MACRO1*%
%ADD18C,1.9812*%
%ADD19MACRO2*%
%ADD20C,2.4892*%
%ADD21C,0.0188*%

%LPD*%
G36*
X723900Y12649200D02*
G01*
X723900Y12446000D01*
X952500Y12446000D01*
X1003300Y12471400D01*
X1028700Y12522200D01*
X1028700Y12573000D01*
X1003300Y12623800D01*
X952500Y12649200D01*
G37*
G36*
X723900Y12395200D02*
G01*
X723900Y12192000D01*
X952500Y12192000D01*
X1003300Y12217400D01*
X1028700Y12268200D01*
X1028700Y12319000D01*
X1003300Y12369800D01*
X952500Y12395200D01*
G37*
G36*
X723900Y12141200D02*
G01*
X723900Y11938000D01*
X952500Y11938000D01*
X1003300Y11963400D01*
X1028700Y12014200D01*
X1028700Y12065000D01*
X1003300Y12115800D01*
X952500Y12141200D01*
G37*
G36*
X723900Y11887200D02*
G01*
X723900Y11684000D01*
X952500Y11684000D01*
X1003300Y11709400D01*
X1028700Y11760200D01*
X1028700Y11811000D01*
X1003300Y11861800D01*
X952500Y11887200D01*
G37*
G36*
X723900Y11633200D02*
G01*
X723900Y11430000D01*
X952500Y11430000D01*
X1003300Y11455400D01*
X1028700Y11506200D01*
X1028700Y11557000D01*
X1003300Y11607800D01*
X952500Y11633200D01*
G37*
G36*
X723900Y11379200D02*
G01*
X723900Y11176000D01*
X952500Y11176000D01*
X1003300Y11201400D01*
X1028700Y11252200D01*
X1028700Y11303000D01*
X1003300Y11353800D01*
X952500Y11379200D01*
G37*
G36*
X723900Y11125200D02*
G01*
X723900Y10922000D01*
X952500Y10922000D01*
X1003300Y10947400D01*
X1028700Y10998200D01*
X1028700Y11049000D01*
X1003300Y11099800D01*
X952500Y11125200D01*
G37*
D10*
G01*
X2984500Y3860800D03*
G01*
X2984500Y3660800D03*
G01*
X2984500Y3460800D03*
G01*
X3384499Y3860800D03*
G01*
X3384499Y3660800D03*
G01*
X3384499Y3460800D03*
G01*
X2501900Y3873500D03*
G01*
X2501900Y3673500D03*
G01*
X2501900Y3473500D03*
G01*
X2101900Y3873500D03*
G01*
X2101900Y3673500D03*
G01*
X2101900Y3473500D03*
G01*
X6248400Y3695700D03*
G01*
X6248400Y3495700D03*
G01*
X6248400Y3295700D03*
G01*
X5848400Y3695700D03*
G01*
X5848400Y3495700D03*
G01*
X5848400Y3295700D03*
G01*
X8204200Y3670300D03*
G01*
X8204200Y3470300D03*
G01*
X8204200Y3270300D03*
G01*
X7804200Y3670300D03*
G01*
X7804200Y3470300D03*
G01*
X7804200Y3270300D03*
G01*
X9817100Y4889500D03*
G01*
X9817100Y4689500D03*
G01*
X9817100Y4489500D03*
G01*
X9417100Y4889500D03*
G01*
X9417100Y4689500D03*
G01*
X9417100Y4489500D03*
G01*
X9804400Y6743700D03*
G01*
X9804400Y6543700D03*
G01*
X9804400Y6343700D03*
G01*
X9404400Y6743700D03*
G01*
X9404400Y6543700D03*
G01*
X9404400Y6343700D03*
G01*
X9817100Y8686800D03*
G01*
X9817100Y8486800D03*
G01*
X9817100Y8286800D03*
G01*
X9417100Y8686800D03*
G01*
X9417100Y8486800D03*
G01*
X9417100Y8286800D03*
G01*
X9867900Y10604500D03*
G01*
X9867900Y10404500D03*
G01*
X9867900Y10204500D03*
G01*
X9467900Y10604500D03*
G01*
X9467900Y10404500D03*
G01*
X9467900Y10204500D03*
G01*
X8229600Y12420600D03*
G01*
X8229600Y12220600D03*
G01*
X8229600Y12020600D03*
G01*
X7829600Y12420600D03*
G01*
X7829600Y12220600D03*
G01*
X7829600Y12020600D03*
G01*
X3873500Y3454400D03*
G01*
X3873500Y3654399D03*
G01*
X3873500Y3854399D03*
G01*
X4273499Y3454400D03*
G01*
X4273499Y3654399D03*
G01*
X4273499Y3854399D03*
G01*
X1473200Y3962400D03*
G01*
X1473200Y3762400D03*
G01*
X1473200Y3562400D03*
G01*
X1073200Y3962400D03*
G01*
X1073200Y3762400D03*
G01*
X1073200Y3562400D03*
D11*
G01*
X1409700Y7581900D03*
G01*
X1609699Y7581900D03*
G01*
X1809699Y7581900D03*
G01*
X1409700Y7181900D03*
G01*
X1609699Y7181900D03*
G01*
X1809699Y7181900D03*
D10*
G01*
X1879600Y11950700D03*
G01*
X1879600Y11750700D03*
G01*
X1879600Y11550700D03*
G01*
X1479600Y11950700D03*
G01*
X1479600Y11750700D03*
G01*
X1479600Y11550700D03*
G01*
X6273800Y12420600D03*
G01*
X6273800Y12220600D03*
G01*
X6273800Y12020600D03*
G01*
X5873800Y12420600D03*
G01*
X5873800Y12220600D03*
G01*
X5873800Y12020600D03*
D11*
G01*
X4076700Y7226300D03*
G01*
X3876700Y7226300D03*
G01*
X3676700Y7226300D03*
G01*
X4076700Y6826300D03*
G01*
X3876700Y6826300D03*
G01*
X3676700Y6826300D03*
D12*
G01*
X3505200Y8830792D03*
G01*
X3505200Y7780781D03*
G01*
X3759200Y8830792D03*
G01*
X3759200Y7780781D03*
D13*
G01*
X4914900Y3213100D03*
G01*
X5422900Y3213100D03*
G01*
X6832600Y3187700D03*
G01*
X7340600Y3187700D03*
G01*
X8661400Y3276600D03*
G01*
X9169400Y3276600D03*
G01*
X8648700Y5143500D03*
G01*
X9156700Y5143500D03*
G01*
X6794500Y5118100D03*
G01*
X7302500Y5118100D03*
G01*
X4927600Y5105400D03*
G01*
X5435600Y5105400D03*
G01*
X4914900Y7035800D03*
G01*
X5422900Y7035800D03*
G01*
X6731000Y6997700D03*
G01*
X7239000Y6997700D03*
G01*
X8712200Y6997700D03*
G01*
X9220200Y6997700D03*
G01*
X9194800Y8902700D03*
G01*
X8686800Y8902700D03*
G01*
X6781800Y8928100D03*
G01*
X7289800Y8928100D03*
G01*
X4902200Y8940800D03*
G01*
X5410200Y8940800D03*
G01*
X4914900Y10845800D03*
G01*
X5422900Y10845800D03*
G01*
X6807200Y10820400D03*
G01*
X7315200Y10820400D03*
G01*
X8724900Y10744200D03*
G01*
X9232900Y10744200D03*
G36*
X1574500Y12561577D02*
G01*
X1567616Y12561984D01*
X1566999Y12562060D01*
X1560217Y12563304D01*
X1559623Y12563452D01*
X1553019Y12565509D01*
X1552440Y12565727D01*
X1546141Y12568572D01*
X1545607Y12568854D01*
X1539714Y12572410D01*
X1539201Y12572763D01*
X1533766Y12577030D01*
X1533311Y12577434D01*
X1528434Y12582311D01*
X1528030Y12582766D01*
X1523763Y12588201D01*
X1523410Y12588714D01*
X1519854Y12594607D01*
X1519572Y12595141D01*
X1516727Y12601440D01*
X1516509Y12602019D01*
X1514452Y12608623D01*
X1514304Y12609217D01*
X1513060Y12615999D01*
X1512984Y12616616D01*
X1512577Y12623500D01*
X1512577Y12624099D01*
X1512984Y12630983D01*
X1513060Y12631597D01*
X1514304Y12638404D01*
X1514452Y12639006D01*
X1516509Y12645585D01*
X1516727Y12646159D01*
X1519572Y12652458D01*
X1519854Y12652992D01*
X1523410Y12658885D01*
X1523763Y12659398D01*
X1528030Y12664833D01*
X1528434Y12665288D01*
X1533311Y12670165D01*
X1533766Y12670569D01*
X1539201Y12674836D01*
X1539714Y12675189D01*
X1545607Y12678745D01*
X1546141Y12679027D01*
X1552440Y12681872D01*
X1553019Y12682090D01*
X1559623Y12684147D01*
X1560217Y12684295D01*
X1566999Y12685539D01*
X1567616Y12685615D01*
X1574500Y12686022D01*
X1575099Y12686022D01*
X1581983Y12685615D01*
X1582600Y12685539D01*
X1589382Y12684295D01*
X1589976Y12684147D01*
X1596580Y12682090D01*
X1597159Y12681872D01*
X1603458Y12679027D01*
X1603992Y12678745D01*
X1609885Y12675189D01*
X1610398Y12674836D01*
X1615833Y12670569D01*
X1616288Y12670165D01*
X1621165Y12665288D01*
X1621569Y12664833D01*
X1625836Y12659398D01*
X1626189Y12658885D01*
X1629745Y12652992D01*
X1630027Y12652458D01*
X1632872Y12646159D01*
X1633090Y12645585D01*
X1635147Y12639006D01*
X1635295Y12638404D01*
X1636539Y12631597D01*
X1636615Y12630983D01*
X1637022Y12624099D01*
X1637022Y12623500D01*
X1636615Y12616616D01*
X1636539Y12615999D01*
X1635295Y12609217D01*
X1635147Y12608623D01*
X1633090Y12602019D01*
X1632872Y12601440D01*
X1630027Y12595141D01*
X1629745Y12594607D01*
X1626189Y12588714D01*
X1625836Y12588201D01*
X1621569Y12582766D01*
X1621165Y12582311D01*
X1616288Y12577434D01*
X1615833Y12577030D01*
X1610398Y12572763D01*
X1609885Y12572410D01*
X1603992Y12568854D01*
X1603458Y12568572D01*
X1597159Y12565727D01*
X1596580Y12565509D01*
X1589976Y12563452D01*
X1589382Y12563304D01*
X1582600Y12562060D01*
X1581983Y12561984D01*
X1575099Y12561577D01*
G37*
G36*
X1574500Y12307577D02*
G01*
X1567616Y12307984D01*
X1566999Y12308060D01*
X1560217Y12309304D01*
X1559623Y12309452D01*
X1553019Y12311509D01*
X1552440Y12311727D01*
X1546141Y12314572D01*
X1545607Y12314854D01*
X1539714Y12318410D01*
X1539201Y12318763D01*
X1533766Y12323030D01*
X1533311Y12323434D01*
X1528434Y12328311D01*
X1528030Y12328766D01*
X1523763Y12334201D01*
X1523410Y12334714D01*
X1519854Y12340607D01*
X1519572Y12341141D01*
X1516727Y12347440D01*
X1516509Y12348019D01*
X1514452Y12354623D01*
X1514304Y12355217D01*
X1513060Y12361999D01*
X1512984Y12362616D01*
X1512577Y12369500D01*
X1512577Y12370099D01*
X1512984Y12376983D01*
X1513060Y12377597D01*
X1514304Y12384404D01*
X1514452Y12385006D01*
X1516509Y12391585D01*
X1516727Y12392159D01*
X1519572Y12398458D01*
X1519854Y12398992D01*
X1523410Y12404885D01*
X1523763Y12405398D01*
X1528030Y12410833D01*
X1528434Y12411288D01*
X1533311Y12416165D01*
X1533766Y12416569D01*
X1539201Y12420836D01*
X1539714Y12421189D01*
X1545607Y12424745D01*
X1546141Y12425027D01*
X1552440Y12427872D01*
X1553019Y12428090D01*
X1559623Y12430147D01*
X1560217Y12430295D01*
X1566999Y12431539D01*
X1567616Y12431615D01*
X1574500Y12432022D01*
X1575099Y12432022D01*
X1581983Y12431615D01*
X1582600Y12431539D01*
X1589382Y12430295D01*
X1589976Y12430147D01*
X1596580Y12428090D01*
X1597159Y12427872D01*
X1603458Y12425027D01*
X1603992Y12424745D01*
X1609885Y12421189D01*
X1610398Y12420836D01*
X1615833Y12416569D01*
X1616288Y12416165D01*
X1621165Y12411288D01*
X1621569Y12410833D01*
X1625836Y12405398D01*
X1626189Y12404885D01*
X1629745Y12398992D01*
X1630027Y12398458D01*
X1632872Y12392159D01*
X1633090Y12391585D01*
X1635147Y12385006D01*
X1635295Y12384404D01*
X1636539Y12377597D01*
X1636615Y12376983D01*
X1637022Y12370099D01*
X1637022Y12369500D01*
X1636615Y12362616D01*
X1636539Y12361999D01*
X1635295Y12355217D01*
X1635147Y12354623D01*
X1633090Y12348019D01*
X1632872Y12347440D01*
X1630027Y12341141D01*
X1629745Y12340607D01*
X1626189Y12334714D01*
X1625836Y12334201D01*
X1621569Y12328766D01*
X1621165Y12328311D01*
X1616288Y12323434D01*
X1615833Y12323030D01*
X1610398Y12318763D01*
X1609885Y12318410D01*
X1603992Y12314854D01*
X1603458Y12314572D01*
X1597159Y12311727D01*
X1596580Y12311509D01*
X1589976Y12309452D01*
X1589382Y12309304D01*
X1582600Y12308060D01*
X1581983Y12307984D01*
X1575099Y12307577D01*
G37*
G36*
X1828500Y12307577D02*
G01*
X1821616Y12307984D01*
X1820999Y12308060D01*
X1814217Y12309304D01*
X1813623Y12309452D01*
X1807019Y12311509D01*
X1806440Y12311727D01*
X1800141Y12314572D01*
X1799607Y12314854D01*
X1793714Y12318410D01*
X1793201Y12318763D01*
X1787766Y12323030D01*
X1787311Y12323434D01*
X1782434Y12328311D01*
X1782030Y12328766D01*
X1777763Y12334201D01*
X1777410Y12334714D01*
X1773854Y12340607D01*
X1773572Y12341141D01*
X1770727Y12347440D01*
X1770509Y12348019D01*
X1768452Y12354623D01*
X1768304Y12355217D01*
X1767060Y12361999D01*
X1766984Y12362616D01*
X1766577Y12369500D01*
X1766577Y12370099D01*
X1766984Y12376983D01*
X1767060Y12377597D01*
X1768304Y12384404D01*
X1768452Y12385006D01*
X1770509Y12391585D01*
X1770727Y12392159D01*
X1773572Y12398458D01*
X1773854Y12398992D01*
X1777410Y12404885D01*
X1777763Y12405398D01*
X1782030Y12410833D01*
X1782434Y12411288D01*
X1787311Y12416165D01*
X1787766Y12416569D01*
X1793201Y12420836D01*
X1793714Y12421189D01*
X1799607Y12424745D01*
X1800141Y12425027D01*
X1806440Y12427872D01*
X1807019Y12428090D01*
X1813623Y12430147D01*
X1814217Y12430295D01*
X1820999Y12431539D01*
X1821616Y12431615D01*
X1828500Y12432022D01*
X1829099Y12432022D01*
X1835983Y12431615D01*
X1836600Y12431539D01*
X1843382Y12430295D01*
X1843976Y12430147D01*
X1850580Y12428090D01*
X1851159Y12427872D01*
X1857458Y12425027D01*
X1857992Y12424745D01*
X1863885Y12421189D01*
X1864398Y12420836D01*
X1869833Y12416569D01*
X1870288Y12416165D01*
X1875165Y12411288D01*
X1875569Y12410833D01*
X1879836Y12405398D01*
X1880189Y12404885D01*
X1883745Y12398992D01*
X1884027Y12398458D01*
X1886872Y12392159D01*
X1887090Y12391585D01*
X1889147Y12385006D01*
X1889295Y12384404D01*
X1890539Y12377597D01*
X1890615Y12376983D01*
X1891022Y12370099D01*
X1891022Y12369500D01*
X1890615Y12362616D01*
X1890539Y12361999D01*
X1889295Y12355217D01*
X1889147Y12354623D01*
X1887090Y12348019D01*
X1886872Y12347440D01*
X1884027Y12341141D01*
X1883745Y12340607D01*
X1880189Y12334714D01*
X1879836Y12334201D01*
X1875569Y12328766D01*
X1875165Y12328311D01*
X1870288Y12323434D01*
X1869833Y12323030D01*
X1864398Y12318763D01*
X1863885Y12318410D01*
X1857992Y12314854D01*
X1857458Y12314572D01*
X1851159Y12311727D01*
X1850580Y12311509D01*
X1843976Y12309452D01*
X1843382Y12309304D01*
X1836600Y12308060D01*
X1835983Y12307984D01*
X1829099Y12307577D01*
G37*
G36*
X1828500Y12561577D02*
G01*
X1821616Y12561984D01*
X1820999Y12562060D01*
X1814217Y12563304D01*
X1813623Y12563452D01*
X1807019Y12565509D01*
X1806440Y12565727D01*
X1800141Y12568572D01*
X1799607Y12568854D01*
X1793714Y12572410D01*
X1793201Y12572763D01*
X1787766Y12577030D01*
X1787311Y12577434D01*
X1782434Y12582311D01*
X1782030Y12582766D01*
X1777763Y12588201D01*
X1777410Y12588714D01*
X1773854Y12594607D01*
X1773572Y12595141D01*
X1770727Y12601440D01*
X1770509Y12602019D01*
X1768452Y12608623D01*
X1768304Y12609217D01*
X1767060Y12615999D01*
X1766984Y12616616D01*
X1766577Y12623500D01*
X1766577Y12624099D01*
X1766984Y12630983D01*
X1767060Y12631597D01*
X1768304Y12638404D01*
X1768452Y12639006D01*
X1770509Y12645585D01*
X1770727Y12646159D01*
X1773572Y12652458D01*
X1773854Y12652992D01*
X1777410Y12658885D01*
X1777763Y12659398D01*
X1782030Y12664833D01*
X1782434Y12665288D01*
X1787311Y12670165D01*
X1787766Y12670569D01*
X1793201Y12674836D01*
X1793714Y12675189D01*
X1799607Y12678745D01*
X1800141Y12679027D01*
X1806440Y12681872D01*
X1807019Y12682090D01*
X1813623Y12684147D01*
X1814217Y12684295D01*
X1820999Y12685539D01*
X1821616Y12685615D01*
X1828500Y12686022D01*
X1829099Y12686022D01*
X1835983Y12685615D01*
X1836600Y12685539D01*
X1843382Y12684295D01*
X1843976Y12684147D01*
X1850580Y12682090D01*
X1851159Y12681872D01*
X1857458Y12679027D01*
X1857992Y12678745D01*
X1863885Y12675189D01*
X1864398Y12674836D01*
X1869833Y12670569D01*
X1870288Y12670165D01*
X1875165Y12665288D01*
X1875569Y12664833D01*
X1879836Y12659398D01*
X1880189Y12658885D01*
X1883745Y12652992D01*
X1884027Y12652458D01*
X1886872Y12646159D01*
X1887090Y12645585D01*
X1889147Y12639006D01*
X1889295Y12638404D01*
X1890539Y12631597D01*
X1890615Y12630983D01*
X1891022Y12624099D01*
X1891022Y12623500D01*
X1890615Y12616616D01*
X1890539Y12615999D01*
X1889295Y12609217D01*
X1889147Y12608623D01*
X1887090Y12602019D01*
X1886872Y12601440D01*
X1884027Y12595141D01*
X1883745Y12594607D01*
X1880189Y12588714D01*
X1879836Y12588201D01*
X1875569Y12582766D01*
X1875165Y12582311D01*
X1870288Y12577434D01*
X1869833Y12577030D01*
X1864398Y12572763D01*
X1863885Y12572410D01*
X1857992Y12568854D01*
X1857458Y12568572D01*
X1851159Y12565727D01*
X1850580Y12565509D01*
X1843976Y12563452D01*
X1843382Y12563304D01*
X1836600Y12562060D01*
X1835983Y12561984D01*
X1829099Y12561577D01*
G37*
G36*
X1797050Y10820400D02*
G01*
X1796755Y10820407D01*
X1793681Y10820585D01*
X1793044Y10820664D01*
X1790047Y10821222D01*
X1789473Y10821365D01*
X1786526Y10822279D01*
X1785929Y10822505D01*
X1783135Y10823775D01*
X1782620Y10824047D01*
X1780004Y10825622D01*
X1779475Y10825987D01*
X1777062Y10827893D01*
X1776638Y10828268D01*
X1774454Y10830427D01*
X1774017Y10830918D01*
X1772137Y10833331D01*
X1771792Y10833834D01*
X1770217Y10836450D01*
X1769945Y10836965D01*
X1768675Y10839759D01*
X1768449Y10840356D01*
X1767535Y10843303D01*
X1767390Y10843884D01*
X1766831Y10846907D01*
X1766755Y10847537D01*
X1766577Y10850585D01*
X1766570Y10850879D01*
X1766570Y11003279D01*
X1766577Y11003574D01*
X1766755Y11006648D01*
X1766834Y11007285D01*
X1767392Y11010282D01*
X1767535Y11010856D01*
X1768449Y11013803D01*
X1768675Y11014400D01*
X1769945Y11017194D01*
X1770217Y11017709D01*
X1771792Y11020325D01*
X1772137Y11020828D01*
X1774017Y11023241D01*
X1774433Y11023711D01*
X1776618Y11025896D01*
X1777088Y11026312D01*
X1779501Y11028192D01*
X1779971Y11028517D01*
X1782587Y11030117D01*
X1783171Y11030424D01*
X1785965Y11031669D01*
X1786526Y11031880D01*
X1789473Y11032794D01*
X1790047Y11032937D01*
X1793044Y11033495D01*
X1793681Y11033574D01*
X1796755Y11033752D01*
X1797050Y11033760D01*
X1847850Y11033760D01*
X1848144Y11033752D01*
X1851218Y11033574D01*
X1851855Y11033495D01*
X1854852Y11032937D01*
X1855426Y11032794D01*
X1858373Y11031880D01*
X1858934Y11031669D01*
X1861728Y11030424D01*
X1862312Y11030117D01*
X1864928Y11028517D01*
X1865398Y11028192D01*
X1867811Y11026312D01*
X1868302Y11025875D01*
X1870461Y11023691D01*
X1870837Y11023267D01*
X1872742Y11020854D01*
X1873107Y11020325D01*
X1874682Y11017709D01*
X1874954Y11017194D01*
X1876224Y11014400D01*
X1876450Y11013803D01*
X1877364Y11010856D01*
X1877507Y11010282D01*
X1878065Y11007285D01*
X1878144Y11006648D01*
X1878322Y11003574D01*
X1878329Y11003279D01*
X1878329Y10850879D01*
X1878322Y10850585D01*
X1878144Y10847537D01*
X1878068Y10846907D01*
X1877509Y10843884D01*
X1877364Y10843303D01*
X1876450Y10840356D01*
X1876224Y10839759D01*
X1874954Y10836965D01*
X1874682Y10836450D01*
X1873107Y10833834D01*
X1872742Y10833305D01*
X1870837Y10830892D01*
X1870440Y10830448D01*
X1868281Y10828289D01*
X1867837Y10827893D01*
X1865424Y10825987D01*
X1864895Y10825622D01*
X1862279Y10824047D01*
X1861764Y10823775D01*
X1858970Y10822505D01*
X1858373Y10822279D01*
X1855426Y10821365D01*
X1854852Y10821222D01*
X1851855Y10820664D01*
X1851218Y10820585D01*
X1848144Y10820407D01*
X1847850Y10820400D01*
G37*
G36*
X1543050Y10820400D02*
G01*
X1542755Y10820407D01*
X1539681Y10820585D01*
X1539044Y10820664D01*
X1536047Y10821222D01*
X1535473Y10821365D01*
X1532526Y10822279D01*
X1531929Y10822505D01*
X1529135Y10823775D01*
X1528620Y10824047D01*
X1526004Y10825622D01*
X1525475Y10825987D01*
X1523062Y10827893D01*
X1522618Y10828289D01*
X1520459Y10830448D01*
X1520062Y10830892D01*
X1518157Y10833305D01*
X1517792Y10833834D01*
X1516217Y10836450D01*
X1515945Y10836965D01*
X1514675Y10839759D01*
X1514449Y10840356D01*
X1513535Y10843303D01*
X1513390Y10843884D01*
X1512831Y10846907D01*
X1512755Y10847537D01*
X1512577Y10850585D01*
X1512570Y10850879D01*
X1512570Y11003279D01*
X1512577Y11003574D01*
X1512755Y11006648D01*
X1512834Y11007285D01*
X1513392Y11010282D01*
X1513535Y11010856D01*
X1514449Y11013803D01*
X1514675Y11014400D01*
X1515945Y11017194D01*
X1516217Y11017709D01*
X1517792Y11020325D01*
X1518157Y11020854D01*
X1520062Y11023267D01*
X1520438Y11023691D01*
X1522597Y11025875D01*
X1523088Y11026312D01*
X1525501Y11028192D01*
X1525971Y11028517D01*
X1528587Y11030117D01*
X1529171Y11030424D01*
X1531965Y11031669D01*
X1532526Y11031880D01*
X1535473Y11032794D01*
X1536047Y11032937D01*
X1539044Y11033495D01*
X1539681Y11033574D01*
X1542755Y11033752D01*
X1543050Y11033760D01*
X1593850Y11033760D01*
X1594144Y11033752D01*
X1597218Y11033574D01*
X1597855Y11033495D01*
X1600852Y11032937D01*
X1601426Y11032794D01*
X1604373Y11031880D01*
X1604934Y11031669D01*
X1607728Y11030424D01*
X1608312Y11030117D01*
X1610928Y11028517D01*
X1611398Y11028192D01*
X1613811Y11026312D01*
X1614281Y11025896D01*
X1616466Y11023711D01*
X1616882Y11023241D01*
X1618762Y11020828D01*
X1619107Y11020325D01*
X1620682Y11017709D01*
X1620954Y11017194D01*
X1622224Y11014400D01*
X1622450Y11013803D01*
X1623364Y11010856D01*
X1623507Y11010282D01*
X1624065Y11007285D01*
X1624144Y11006648D01*
X1624322Y11003574D01*
X1624329Y11003279D01*
X1624329Y10850879D01*
X1624322Y10850585D01*
X1624144Y10847537D01*
X1624068Y10846907D01*
X1623509Y10843884D01*
X1623364Y10843303D01*
X1622450Y10840356D01*
X1622224Y10839759D01*
X1620954Y10836965D01*
X1620682Y10836450D01*
X1619107Y10833834D01*
X1618762Y10833331D01*
X1616882Y10830918D01*
X1616445Y10830427D01*
X1614261Y10828268D01*
X1613837Y10827893D01*
X1611424Y10825987D01*
X1610895Y10825622D01*
X1608279Y10824047D01*
X1607764Y10823775D01*
X1604970Y10822505D01*
X1604373Y10822279D01*
X1601426Y10821365D01*
X1600852Y10821222D01*
X1597855Y10820664D01*
X1597218Y10820585D01*
X1594144Y10820407D01*
X1593850Y10820400D01*
G37*
D14*
G01*
X927100Y12547600D03*
G01*
X2451100Y11277600D03*
G01*
X2451100Y11531600D03*
G01*
X2451100Y11785600D03*
G01*
X2451100Y12039600D03*
G01*
X2451100Y12293600D03*
G01*
X2451100Y12547600D03*
G01*
X2451100Y11023600D03*
G01*
X927100Y12293600D03*
G01*
X927100Y12039600D03*
G01*
X927100Y11785600D03*
G01*
X927100Y11531600D03*
G01*
X927100Y11277600D03*
G01*
X927100Y11023600D03*
D15*
G01*
X3128213Y5957392D03*
G01*
X3628212Y5957392D03*
G01*
X3128213Y4507407D03*
G01*
X3378200Y4507407D03*
G01*
X3628212Y4507407D03*
D16*
G01*
X2808198Y5257393D03*
G01*
X3948201Y5257393D03*
D15*
G01*
X1235913Y5970092D03*
G01*
X1735912Y5970092D03*
G01*
X1235913Y4520107D03*
G01*
X1485900Y4520107D03*
G01*
X1735912Y4520107D03*
D16*
G01*
X915898Y5270093D03*
G01*
X2055901Y5270093D03*
D17*
G01*
X3060700Y12382500D03*
G01*
X3060700Y12128500D03*
G01*
X3060700Y11874500D03*
G01*
X3060700Y11620500D03*
G01*
X3060700Y11366500D03*
G01*
X3060700Y11112500D03*
G01*
X3060700Y10858500D03*
G01*
X3060700Y10604500D03*
G01*
X3060700Y10350500D03*
G01*
X3060700Y10096500D03*
G01*
X3060700Y9842500D03*
G01*
X3060700Y9588500D03*
G01*
X3060700Y9334500D03*
G01*
X3060700Y9080500D03*
G01*
X3822700Y9080500D03*
G01*
X3822700Y9334500D03*
G01*
X3822700Y9588500D03*
G01*
X3822700Y9842500D03*
G01*
X3822700Y10096500D03*
G01*
X3822700Y10350500D03*
G01*
X3822700Y10604500D03*
G01*
X3822700Y10858500D03*
G01*
X3822700Y11112500D03*
G01*
X3822700Y11366500D03*
G01*
X3822700Y11620500D03*
G01*
X3822700Y11874500D03*
G01*
X3822700Y12128500D03*
G01*
X3822700Y12382500D03*
D15*
G01*
X2226513Y8764092D03*
G01*
X2726512Y8764092D03*
G01*
X2226513Y7314107D03*
G01*
X2476500Y7314107D03*
G01*
X2726512Y7314107D03*
D16*
G01*
X1906498Y8064093D03*
G01*
X3046501Y8064093D03*
D18*
G01*
X5232400Y12230100D03*
D19*
G01*
X4978400Y12230100D03*
D20*
G01*
X5486400Y11468100D03*
G01*
X4851400Y11214100D03*
D18*
G01*
X7150100Y12217400D03*
D19*
G01*
X6896100Y12217400D03*
D20*
G01*
X7404100Y11455400D03*
G01*
X6769100Y11201400D03*
D18*
G01*
X9055100Y10312400D03*
D19*
G01*
X8801100Y10312400D03*
D20*
G01*
X9309100Y9550400D03*
G01*
X8674100Y9296400D03*
D18*
G01*
X9055100Y12217400D03*
D19*
G01*
X8801100Y12217400D03*
D20*
G01*
X9309100Y11455400D03*
G01*
X8674100Y11201400D03*
D18*
G01*
X7150100Y10312400D03*
D19*
G01*
X6896100Y10312400D03*
D20*
G01*
X7404100Y9550400D03*
G01*
X6769100Y9296400D03*
D18*
G01*
X5232400Y10312400D03*
D19*
G01*
X4978400Y10312400D03*
D20*
G01*
X5486400Y9550400D03*
G01*
X4851400Y9296400D03*
D18*
G01*
X9055100Y8407400D03*
D19*
G01*
X8801100Y8407400D03*
D20*
G01*
X9309100Y7645400D03*
G01*
X8674100Y7391400D03*
D18*
G01*
X7150100Y8407400D03*
D19*
G01*
X6896100Y8407400D03*
D20*
G01*
X7404100Y7645400D03*
G01*
X6769100Y7391400D03*
D18*
G01*
X5232400Y8407400D03*
D19*
G01*
X4978400Y8407400D03*
D20*
G01*
X5486400Y7645400D03*
G01*
X4851400Y7391400D03*
D18*
G01*
X9055100Y6502400D03*
D19*
G01*
X8801100Y6502400D03*
D20*
G01*
X9309100Y5740400D03*
G01*
X8674100Y5486400D03*
D18*
G01*
X7150100Y6502400D03*
D19*
G01*
X6896100Y6502400D03*
D20*
G01*
X7404100Y5740400D03*
G01*
X6769100Y5486400D03*
D18*
G01*
X5245100Y6502400D03*
D19*
G01*
X4991100Y6502400D03*
D20*
G01*
X5499100Y5740400D03*
G01*
X4864100Y5486400D03*
D18*
G01*
X5245100Y4597400D03*
D19*
G01*
X4991100Y4597400D03*
D20*
G01*
X5499100Y3835400D03*
G01*
X4864100Y3581400D03*
D18*
G01*
X7150100Y4597400D03*
D19*
G01*
X6896100Y4597400D03*
D20*
G01*
X7404100Y3835400D03*
G01*
X6769100Y3581400D03*
D18*
G01*
X9055100Y4597400D03*
D19*
G01*
X8801100Y4597400D03*
D20*
G01*
X9309100Y3835400D03*
G01*
X8674100Y3581400D03*
M02*
