G04 Layer: BottomSilkscreenLayer*
G04 EasyEDA v6.5.46, 2024-10-06 11:37:13*
G04 ab947d6f174c44c6bcda00e1859507e9,10*
G04 Gerber Generator version 0.2*
G04 Scale: 100 percent, Rotated: No, Reflected: No *
G04 Dimensions in millimeters *
G04 leading zeros omitted , absolute positions ,4 integer and 5 decimal *
%FSLAX45Y45*%
%MOMM*%

%ADD10C,0.2032*%
%ADD11C,0.1524*%
%ADD12C,0.2540*%
%ADD13C,0.1270*%

%LPD*%
G36*
X9078468Y10766044D02*
G01*
X9075420Y10760710D01*
X9084259Y10755071D01*
X9090355Y10748721D01*
X9094063Y10742371D01*
X9095740Y10736580D01*
X9088628Y10734141D01*
X9082938Y10730687D01*
X9079077Y10725912D01*
X9077706Y10719308D01*
X9078722Y10714380D01*
X9081516Y10710418D01*
X9085834Y10707827D01*
X9091422Y10706862D01*
X9097619Y10708081D01*
X9102344Y10711637D01*
X9105341Y10717479D01*
X9106408Y10725404D01*
X9106103Y10730636D01*
X9105036Y10736173D01*
X9103207Y10741812D01*
X9100413Y10747451D01*
X9096705Y10752836D01*
X9091828Y10757814D01*
X9085783Y10762284D01*
G37*
G36*
X9035796Y10766044D02*
G01*
X9032240Y10760710D01*
X9041180Y10755071D01*
X9047378Y10748721D01*
X9051137Y10742371D01*
X9052814Y10736580D01*
X9045803Y10734141D01*
X9040063Y10730687D01*
X9036202Y10725912D01*
X9034780Y10719308D01*
X9035745Y10714380D01*
X9038488Y10710418D01*
X9042806Y10707827D01*
X9048496Y10706862D01*
X9054693Y10708081D01*
X9059418Y10711637D01*
X9062415Y10717479D01*
X9063482Y10725404D01*
X9063177Y10730636D01*
X9062110Y10736173D01*
X9060281Y10741812D01*
X9057538Y10747451D01*
X9053830Y10752836D01*
X9049004Y10757814D01*
X9043060Y10762284D01*
G37*
G36*
X4022851Y10766044D02*
G01*
X4016603Y10764824D01*
X4011777Y10761268D01*
X4008729Y10755426D01*
X4007612Y10747502D01*
X4007967Y10742269D01*
X4009034Y10736681D01*
X4010914Y10730992D01*
X4013657Y10725353D01*
X4017467Y10719968D01*
X4022293Y10714939D01*
X4028287Y10710519D01*
X4035551Y10706862D01*
X4038854Y10712196D01*
X4029913Y10717885D01*
X4023715Y10724286D01*
X4020058Y10730738D01*
X4018534Y10736580D01*
X4025493Y10738866D01*
X4031132Y10742218D01*
X4034942Y10746994D01*
X4036314Y10753598D01*
X4035348Y10758525D01*
X4032605Y10762488D01*
X4028389Y10765078D01*
G37*
G36*
X4065524Y10766044D02*
G01*
X4059326Y10764824D01*
X4054601Y10761268D01*
X4051604Y10755426D01*
X4050537Y10747502D01*
X4050893Y10742269D01*
X4051960Y10736681D01*
X4053840Y10730992D01*
X4056583Y10725353D01*
X4060393Y10719968D01*
X4065219Y10714939D01*
X4071213Y10710519D01*
X4078478Y10706862D01*
X4081779Y10712196D01*
X4072839Y10717885D01*
X4066743Y10724286D01*
X4063085Y10730738D01*
X4061460Y10736580D01*
X4068419Y10738866D01*
X4074058Y10742218D01*
X4077868Y10746994D01*
X4079240Y10753598D01*
X4078274Y10758525D01*
X4075531Y10762488D01*
X4071213Y10765078D01*
G37*
G36*
X4700524Y10758678D02*
G01*
X4693259Y10757966D01*
X4687011Y10755833D01*
X4682286Y10752124D01*
X4679442Y10746740D01*
X4680559Y10742980D01*
X4683150Y10739932D01*
X4687011Y10737850D01*
X4692142Y10737088D01*
X4696358Y10737545D01*
X4700320Y10738967D01*
X4704130Y10741253D01*
X4713986Y10749788D01*
X4716373Y10748060D01*
X4718507Y10746079D01*
X4720437Y10743844D01*
X4722114Y10741406D01*
X4723841Y10738053D01*
X4725466Y10734192D01*
X4726838Y10729772D01*
X4728006Y10724743D01*
X4728921Y10719054D01*
X4729530Y10712602D01*
X4729835Y10705338D01*
X4729734Y10697210D01*
X4698746Y10697210D01*
X4698746Y10687558D01*
X4729226Y10687558D01*
X4728972Y10601452D01*
X4708652Y10598658D01*
X4708652Y10591800D01*
X4766056Y10591800D01*
X4766056Y10598658D01*
X4748276Y10601198D01*
X4747717Y10619790D01*
X4747514Y10638536D01*
X4747514Y10687558D01*
X4766310Y10687558D01*
X4766310Y10695432D01*
X4747514Y10697972D01*
X4746650Y10706354D01*
X4745532Y10713872D01*
X4744110Y10720628D01*
X4742383Y10726623D01*
X4740300Y10731957D01*
X4737811Y10736783D01*
X4734864Y10741050D01*
X4731512Y10744962D01*
X4724044Y10751515D01*
X4716221Y10755731D01*
X4708296Y10758017D01*
G37*
G36*
X8842756Y10756392D02*
G01*
X8839962Y10754868D01*
X8840724Y10723118D01*
X8840724Y10679430D01*
X8836355Y10683900D01*
X8831681Y10687913D01*
X8826703Y10691469D01*
X8821572Y10694517D01*
X8816238Y10696956D01*
X8810853Y10698734D01*
X8805468Y10699851D01*
X8800084Y10700258D01*
X8793378Y10699699D01*
X8787587Y10698022D01*
X8782608Y10695076D01*
X8778595Y10690910D01*
X8775446Y10685322D01*
X8773210Y10678312D01*
X8771839Y10669727D01*
X8771382Y10659618D01*
X8771331Y10629747D01*
X8770874Y10601198D01*
X8755380Y10598658D01*
X8755380Y10591800D01*
X8806688Y10591800D01*
X8806688Y10598658D01*
X8789924Y10601198D01*
X8789670Y10659364D01*
X8789974Y10666374D01*
X8790838Y10672165D01*
X8792260Y10676788D01*
X8794292Y10680446D01*
X8796883Y10683138D01*
X8800084Y10684916D01*
X8803843Y10685983D01*
X8808212Y10686288D01*
X8815781Y10685576D01*
X8823452Y10683138D01*
X8831478Y10678566D01*
X8840216Y10671556D01*
X8840165Y10629900D01*
X8839708Y10601198D01*
X8824468Y10598658D01*
X8824468Y10591800D01*
X8875522Y10591800D01*
X8875522Y10598658D01*
X8859012Y10601198D01*
X8858504Y10638536D01*
X8858504Y10738612D01*
X8876538Y10740390D01*
X8876538Y10746994D01*
G37*
G36*
X7795514Y10756392D02*
G01*
X7792720Y10754868D01*
X7793228Y10723118D01*
X7793228Y10679430D01*
X7788859Y10683900D01*
X7784185Y10687913D01*
X7779258Y10691469D01*
X7774127Y10694517D01*
X7768844Y10696956D01*
X7763459Y10698734D01*
X7758023Y10699851D01*
X7752588Y10700258D01*
X7745984Y10699699D01*
X7740192Y10698022D01*
X7735316Y10695076D01*
X7731302Y10690910D01*
X7728203Y10685322D01*
X7725918Y10678312D01*
X7724597Y10669727D01*
X7724140Y10659618D01*
X7724089Y10629747D01*
X7723631Y10601198D01*
X7708138Y10598658D01*
X7708138Y10591800D01*
X7759446Y10591800D01*
X7759446Y10598658D01*
X7742681Y10601198D01*
X7742428Y10659364D01*
X7742732Y10666374D01*
X7743596Y10672165D01*
X7745018Y10676788D01*
X7747050Y10680446D01*
X7749641Y10683138D01*
X7752842Y10684916D01*
X7756601Y10685983D01*
X7760970Y10686288D01*
X7768539Y10685576D01*
X7776209Y10683138D01*
X7784236Y10678566D01*
X7792974Y10671556D01*
X7792923Y10629900D01*
X7792466Y10601198D01*
X7776972Y10598658D01*
X7776972Y10591800D01*
X7828280Y10591800D01*
X7828280Y10598658D01*
X7811516Y10601198D01*
X7811262Y10638536D01*
X7811262Y10738612D01*
X7829296Y10740390D01*
X7829296Y10746994D01*
G37*
G36*
X7291831Y10756392D02*
G01*
X7288784Y10754868D01*
X7289800Y10723118D01*
X7289749Y10629290D01*
X7289292Y10601198D01*
X7271512Y10598658D01*
X7271512Y10591800D01*
X7326122Y10591800D01*
X7326122Y10598658D01*
X7308596Y10601198D01*
X7308088Y10638536D01*
X7308088Y10738612D01*
X7326122Y10740390D01*
X7326122Y10746994D01*
G37*
G36*
X7158228Y10756392D02*
G01*
X7155180Y10754868D01*
X7156196Y10723118D01*
X7156196Y10644886D01*
X7115809Y10686288D01*
X7133336Y10689844D01*
X7133336Y10697210D01*
X7082028Y10697210D01*
X7082028Y10689844D01*
X7102856Y10687050D01*
X7128509Y10661396D01*
X7090918Y10600690D01*
X7076440Y10598658D01*
X7076440Y10591800D01*
X7106666Y10591800D01*
X7141209Y10648442D01*
X7156196Y10633456D01*
X7155688Y10601198D01*
X7138162Y10598658D01*
X7138162Y10591800D01*
X7192264Y10591800D01*
X7192264Y10598658D01*
X7174738Y10601198D01*
X7174484Y10629392D01*
X7174484Y10738612D01*
X7192518Y10740390D01*
X7192518Y10746994D01*
G37*
G36*
X6647688Y10756392D02*
G01*
X6644894Y10754868D01*
X6645402Y10723118D01*
X6645402Y10612882D01*
X6663690Y10612882D01*
X6663690Y10677398D01*
X6670751Y10682986D01*
X6677202Y10686592D01*
X6683197Y10688523D01*
X6688836Y10689082D01*
X6693103Y10688828D01*
X6697167Y10687964D01*
X6701078Y10686542D01*
X6704736Y10684560D01*
X6708140Y10681919D01*
X6711188Y10678617D01*
X6713880Y10674654D01*
X6716217Y10669981D01*
X6718046Y10664647D01*
X6719417Y10658551D01*
X6720281Y10651744D01*
X6720586Y10644124D01*
X6720331Y10636808D01*
X6719519Y10630204D01*
X6718198Y10624312D01*
X6716420Y10619130D01*
X6714236Y10614609D01*
X6711594Y10610748D01*
X6708597Y10607548D01*
X6705295Y10604957D01*
X6701637Y10602925D01*
X6697675Y10601553D01*
X6693509Y10600690D01*
X6689090Y10600436D01*
X6682282Y10601045D01*
X6676034Y10603128D01*
X6669938Y10606989D01*
X6663690Y10612882D01*
X6645402Y10612882D01*
X6645402Y10600690D01*
X6627368Y10598658D01*
X6627368Y10591800D01*
X6661912Y10589514D01*
X6663181Y10604754D01*
X6669481Y10598099D01*
X6676593Y10593171D01*
X6684873Y10590072D01*
X6694424Y10589006D01*
X6701028Y10589463D01*
X6707225Y10590784D01*
X6713016Y10592968D01*
X6718350Y10595914D01*
X6723176Y10599674D01*
X6727494Y10604093D01*
X6731203Y10609224D01*
X6734352Y10615015D01*
X6736842Y10621365D01*
X6738620Y10628274D01*
X6739788Y10635691D01*
X6740144Y10643616D01*
X6739890Y10649966D01*
X6739229Y10655960D01*
X6738112Y10661650D01*
X6736588Y10667034D01*
X6734657Y10672064D01*
X6732371Y10676737D01*
X6729679Y10681004D01*
X6726681Y10684865D01*
X6723380Y10688370D01*
X6719722Y10691469D01*
X6715810Y10694060D01*
X6711645Y10696244D01*
X6707225Y10697972D01*
X6702552Y10699242D01*
X6697675Y10700004D01*
X6692646Y10700258D01*
X6684975Y10699546D01*
X6677558Y10697210D01*
X6670395Y10692739D01*
X6663436Y10685780D01*
X6663436Y10738612D01*
X6681978Y10740390D01*
X6681978Y10746994D01*
G37*
G36*
X5033010Y10756392D02*
G01*
X5030216Y10754868D01*
X5030724Y10723118D01*
X5030724Y10679430D01*
X5026355Y10683900D01*
X5021681Y10687913D01*
X5016754Y10691469D01*
X5011623Y10694517D01*
X5006340Y10696956D01*
X5000955Y10698734D01*
X4995519Y10699851D01*
X4990084Y10700258D01*
X4983480Y10699699D01*
X4977688Y10698022D01*
X4972812Y10695076D01*
X4968798Y10690910D01*
X4965700Y10685322D01*
X4963414Y10678312D01*
X4962093Y10669727D01*
X4961636Y10659618D01*
X4961585Y10629747D01*
X4961128Y10601198D01*
X4945634Y10598658D01*
X4945634Y10591800D01*
X4996942Y10591800D01*
X4996942Y10598658D01*
X4980178Y10601198D01*
X4979924Y10659364D01*
X4980228Y10666374D01*
X4981092Y10672165D01*
X4982514Y10676788D01*
X4984546Y10680446D01*
X4987137Y10683138D01*
X4990338Y10684916D01*
X4994097Y10685983D01*
X4998466Y10686288D01*
X5006035Y10685576D01*
X5013706Y10683138D01*
X5021732Y10678566D01*
X5030470Y10671556D01*
X5030419Y10629900D01*
X5029962Y10601198D01*
X5014468Y10598658D01*
X5014468Y10591800D01*
X5065776Y10591800D01*
X5065776Y10598658D01*
X5049012Y10601198D01*
X5048758Y10638536D01*
X5048758Y10738612D01*
X5066792Y10740390D01*
X5066792Y10746994D01*
G37*
G36*
X8344916Y10753090D02*
G01*
X8339480Y10752124D01*
X8334959Y10749381D01*
X8331860Y10745165D01*
X8330692Y10739628D01*
X8331860Y10734040D01*
X8334959Y10729620D01*
X8339480Y10726674D01*
X8344916Y10725658D01*
X8350605Y10726674D01*
X8355177Y10729569D01*
X8358276Y10734040D01*
X8359394Y10739628D01*
X8358276Y10745165D01*
X8355177Y10749381D01*
X8350605Y10752124D01*
G37*
G36*
X7667244Y10753090D02*
G01*
X7661706Y10752124D01*
X7657185Y10749381D01*
X7654137Y10745165D01*
X7653020Y10739628D01*
X7654137Y10734040D01*
X7657185Y10729620D01*
X7661706Y10726674D01*
X7667244Y10725658D01*
X7672882Y10726674D01*
X7677403Y10729569D01*
X7680401Y10734040D01*
X7681468Y10739628D01*
X7680401Y10745165D01*
X7677403Y10749381D01*
X7672882Y10752124D01*
G37*
G36*
X7231380Y10753090D02*
G01*
X7225842Y10752124D01*
X7221321Y10749381D01*
X7218273Y10745165D01*
X7217156Y10739628D01*
X7218273Y10734040D01*
X7221321Y10729620D01*
X7225842Y10726674D01*
X7231380Y10725658D01*
X7237018Y10726674D01*
X7241540Y10729569D01*
X7244537Y10734040D01*
X7245603Y10739628D01*
X7244537Y10745165D01*
X7241540Y10749381D01*
X7237018Y10752124D01*
G37*
G36*
X8888476Y10740644D02*
G01*
X8887206Y10701020D01*
X8897874Y10701020D01*
X8904224Y10730992D01*
X8939276Y10730992D01*
X8939530Y10694009D01*
X8939276Y10601960D01*
X8916162Y10599420D01*
X8916162Y10591800D01*
X8983218Y10591800D01*
X8983218Y10599420D01*
X8960358Y10601960D01*
X8959951Y10623804D01*
X8959850Y10686542D01*
X8960053Y10716260D01*
X8960358Y10730992D01*
X8995156Y10730992D01*
X9001252Y10701020D01*
X9012428Y10701020D01*
X9010650Y10740644D01*
G37*
G36*
X7867396Y10727944D02*
G01*
X7868666Y10697210D01*
X7838948Y10697210D01*
X7838948Y10687558D01*
X7868920Y10687558D01*
X7868920Y10615676D01*
X7868056Y10608157D01*
X7865516Y10603026D01*
X7861503Y10600080D01*
X7856220Y10599166D01*
X7852409Y10599572D01*
X7848803Y10600740D01*
X7845094Y10602722D01*
X7840980Y10605516D01*
X7836408Y10600436D01*
X7841183Y10595660D01*
X7847177Y10592054D01*
X7854238Y10589768D01*
X7862316Y10589006D01*
X7867903Y10589412D01*
X7872882Y10590530D01*
X7877200Y10592511D01*
X7880807Y10595305D01*
X7883652Y10598912D01*
X7885734Y10603382D01*
X7887004Y10608716D01*
X7887462Y10614914D01*
X7887208Y10633456D01*
X7887208Y10687558D01*
X7906003Y10687558D01*
X7906003Y10695432D01*
X7886192Y10697972D01*
X7880350Y10727944D01*
G37*
G36*
X6014974Y10727944D02*
G01*
X6016244Y10697210D01*
X5986272Y10697210D01*
X5986272Y10687558D01*
X6016244Y10687558D01*
X6016244Y10615676D01*
X6015380Y10608157D01*
X6012840Y10603026D01*
X6008827Y10600080D01*
X6003544Y10599166D01*
X5999734Y10599572D01*
X5996127Y10600740D01*
X5992418Y10602722D01*
X5988304Y10605516D01*
X5983732Y10600436D01*
X5988659Y10595660D01*
X5994603Y10592054D01*
X6001613Y10589768D01*
X6009640Y10589006D01*
X6015228Y10589412D01*
X6020206Y10590530D01*
X6024524Y10592511D01*
X6028131Y10595305D01*
X6030976Y10598912D01*
X6033058Y10603382D01*
X6034328Y10608716D01*
X6034786Y10614914D01*
X6034532Y10633456D01*
X6034532Y10687558D01*
X6053582Y10687558D01*
X6053582Y10695432D01*
X6033516Y10697972D01*
X6027674Y10727944D01*
G37*
G36*
X5342890Y10727944D02*
G01*
X5344160Y10697210D01*
X5314188Y10697210D01*
X5314188Y10687558D01*
X5344414Y10687558D01*
X5344414Y10615676D01*
X5343550Y10608157D01*
X5340959Y10603026D01*
X5336895Y10600080D01*
X5331460Y10599166D01*
X5327802Y10599572D01*
X5324195Y10600740D01*
X5320436Y10602722D01*
X5316220Y10605516D01*
X5311902Y10600436D01*
X5316677Y10595660D01*
X5322620Y10592054D01*
X5329631Y10589768D01*
X5337556Y10589006D01*
X5343245Y10589412D01*
X5348274Y10590530D01*
X5352643Y10592511D01*
X5356250Y10595305D01*
X5359146Y10598912D01*
X5361228Y10603382D01*
X5362498Y10608716D01*
X5362956Y10614914D01*
X5362702Y10633456D01*
X5362702Y10687558D01*
X5381498Y10687558D01*
X5381498Y10695432D01*
X5361686Y10697972D01*
X5355844Y10727944D01*
G37*
G36*
X5104892Y10727944D02*
G01*
X5106162Y10697210D01*
X5076444Y10697210D01*
X5076444Y10687558D01*
X5106416Y10687558D01*
X5106416Y10615676D01*
X5105552Y10608157D01*
X5103012Y10603026D01*
X5098999Y10600080D01*
X5093716Y10599166D01*
X5089906Y10599572D01*
X5086299Y10600740D01*
X5082590Y10602722D01*
X5078476Y10605516D01*
X5073904Y10600436D01*
X5078679Y10595660D01*
X5084673Y10592054D01*
X5091734Y10589768D01*
X5099812Y10589006D01*
X5105400Y10589412D01*
X5110378Y10590530D01*
X5114696Y10592511D01*
X5118303Y10595305D01*
X5121148Y10598912D01*
X5123230Y10603382D01*
X5124500Y10608716D01*
X5124958Y10614914D01*
X5124704Y10633456D01*
X5124704Y10687558D01*
X5143500Y10687558D01*
X5143500Y10695432D01*
X5123688Y10697972D01*
X5117846Y10727944D01*
G37*
G36*
X4525264Y10727944D02*
G01*
X4526534Y10697210D01*
X4496562Y10697210D01*
X4496562Y10687558D01*
X4526788Y10687558D01*
X4526788Y10615676D01*
X4525873Y10608157D01*
X4523282Y10603026D01*
X4519168Y10600080D01*
X4513834Y10599166D01*
X4510024Y10599572D01*
X4506417Y10600740D01*
X4502708Y10602722D01*
X4498594Y10605516D01*
X4494276Y10600436D01*
X4499051Y10595660D01*
X4504893Y10592054D01*
X4511903Y10589768D01*
X4519930Y10589006D01*
X4525619Y10589412D01*
X4530598Y10590530D01*
X4534916Y10592511D01*
X4538522Y10595305D01*
X4541316Y10598912D01*
X4543399Y10603382D01*
X4544669Y10608716D01*
X4545076Y10614914D01*
X4545076Y10687558D01*
X4563872Y10687558D01*
X4563872Y10695432D01*
X4544060Y10697972D01*
X4537964Y10727944D01*
G37*
G36*
X8687562Y10700258D02*
G01*
X8681720Y10699902D01*
X8676182Y10698937D01*
X8671001Y10697311D01*
X8666175Y10695076D01*
X8661755Y10692231D01*
X8657793Y10688878D01*
X8654338Y10684916D01*
X8651392Y10680446D01*
X8649055Y10675518D01*
X8647328Y10670082D01*
X8646583Y10665968D01*
X8663940Y10665968D01*
X8664397Y10670997D01*
X8665768Y10675823D01*
X8667902Y10680192D01*
X8670848Y10684052D01*
X8674404Y10687304D01*
X8678621Y10689742D01*
X8683345Y10691317D01*
X8688578Y10691876D01*
X8693708Y10691317D01*
X8698788Y10689691D01*
X8703614Y10686846D01*
X8708085Y10682833D01*
X8711946Y10677601D01*
X8715146Y10671098D01*
X8717483Y10663224D01*
X8718804Y10654030D01*
X8676132Y10653522D01*
X8670036Y10654436D01*
X8666327Y10656976D01*
X8664448Y10660938D01*
X8663940Y10665968D01*
X8646583Y10665968D01*
X8646261Y10664190D01*
X8645906Y10657840D01*
X8646414Y10650829D01*
X8647684Y10645394D01*
X8719058Y10645648D01*
X8718702Y10638586D01*
X8717737Y10632135D01*
X8716213Y10626293D01*
X8714181Y10621111D01*
X8711641Y10616488D01*
X8708644Y10612526D01*
X8705189Y10609122D01*
X8701328Y10606379D01*
X8697061Y10604195D01*
X8692438Y10602671D01*
X8687460Y10601756D01*
X8682228Y10601452D01*
X8672220Y10602620D01*
X8663990Y10605820D01*
X8657031Y10610900D01*
X8650732Y10617454D01*
X8646414Y10614406D01*
X8649766Y10608818D01*
X8653627Y10603788D01*
X8658098Y10599470D01*
X8663076Y10595813D01*
X8668613Y10592866D01*
X8674658Y10590784D01*
X8681262Y10589463D01*
X8688324Y10589006D01*
X8693810Y10589260D01*
X8699093Y10589920D01*
X8704072Y10591088D01*
X8708847Y10592663D01*
X8713266Y10594746D01*
X8717432Y10597184D01*
X8721242Y10600080D01*
X8724696Y10603382D01*
X8727846Y10607090D01*
X8730589Y10611205D01*
X8732977Y10615726D01*
X8734958Y10620603D01*
X8736533Y10625886D01*
X8737701Y10631525D01*
X8738362Y10637520D01*
X8738616Y10643870D01*
X8738362Y10650169D01*
X8737549Y10656112D01*
X8736279Y10661802D01*
X8734501Y10667136D01*
X8732316Y10672165D01*
X8729675Y10676788D01*
X8726728Y10681055D01*
X8723376Y10684916D01*
X8719718Y10688421D01*
X8715756Y10691469D01*
X8711539Y10694111D01*
X8707120Y10696244D01*
X8702446Y10697972D01*
X8697620Y10699242D01*
X8692642Y10700004D01*
G37*
G36*
X8559038Y10700258D02*
G01*
X8554008Y10699699D01*
X8549436Y10698073D01*
X8545626Y10695432D01*
X8543036Y10691876D01*
X8543747Y10685627D01*
X8545931Y10680801D01*
X8549792Y10677753D01*
X8555482Y10676636D01*
X8559292Y10677093D01*
X8562848Y10678363D01*
X8566200Y10680395D01*
X8569452Y10682986D01*
X8571992Y10685526D01*
X8578240Y10679938D01*
X8583472Y10673283D01*
X8587740Y10665358D01*
X8591296Y10656062D01*
X8590788Y10601452D01*
X8572500Y10598658D01*
X8572500Y10591800D01*
X8626348Y10591800D01*
X8626348Y10598658D01*
X8610092Y10601198D01*
X8609888Y10658805D01*
X8610346Y10679430D01*
X8628126Y10681208D01*
X8628126Y10687812D01*
X8596884Y10700004D01*
X8593836Y10697972D01*
X8591550Y10671302D01*
X8588552Y10677804D01*
X8585098Y10683544D01*
X8581288Y10688523D01*
X8577224Y10692638D01*
X8572855Y10695940D01*
X8568334Y10698327D01*
X8563711Y10699750D01*
G37*
G36*
X8483092Y10700258D02*
G01*
X8477250Y10699902D01*
X8471712Y10698937D01*
X8466531Y10697311D01*
X8461705Y10695076D01*
X8457285Y10692231D01*
X8453323Y10688878D01*
X8449868Y10684916D01*
X8446922Y10680446D01*
X8444585Y10675518D01*
X8442858Y10670082D01*
X8442113Y10665968D01*
X8459724Y10665968D01*
X8460181Y10670997D01*
X8461552Y10675823D01*
X8463686Y10680192D01*
X8466582Y10684052D01*
X8470138Y10687304D01*
X8474303Y10689742D01*
X8478977Y10691317D01*
X8484108Y10691876D01*
X8489238Y10691317D01*
X8494318Y10689691D01*
X8499195Y10686846D01*
X8503615Y10682833D01*
X8507577Y10677601D01*
X8510778Y10671098D01*
X8513165Y10663224D01*
X8514588Y10654030D01*
X8471662Y10653522D01*
X8465616Y10654436D01*
X8461959Y10656976D01*
X8460181Y10660938D01*
X8459724Y10665968D01*
X8442113Y10665968D01*
X8441791Y10664190D01*
X8441436Y10657840D01*
X8441944Y10650829D01*
X8443214Y10645394D01*
X8514588Y10645648D01*
X8514232Y10638586D01*
X8513267Y10632135D01*
X8511743Y10626293D01*
X8509711Y10621111D01*
X8507171Y10616488D01*
X8504174Y10612526D01*
X8500719Y10609122D01*
X8496858Y10606379D01*
X8492591Y10604195D01*
X8487968Y10602671D01*
X8482990Y10601756D01*
X8477758Y10601452D01*
X8467750Y10602620D01*
X8459571Y10605820D01*
X8452662Y10610900D01*
X8446516Y10617454D01*
X8441944Y10614406D01*
X8445296Y10608818D01*
X8449157Y10603788D01*
X8453628Y10599470D01*
X8458657Y10595813D01*
X8464194Y10592866D01*
X8470290Y10590784D01*
X8476945Y10589463D01*
X8484108Y10589006D01*
X8489543Y10589260D01*
X8494776Y10589920D01*
X8499754Y10591088D01*
X8504478Y10592663D01*
X8508898Y10594746D01*
X8513013Y10597184D01*
X8516823Y10600080D01*
X8520277Y10603382D01*
X8523376Y10607090D01*
X8526170Y10611205D01*
X8528507Y10615726D01*
X8530488Y10620603D01*
X8532063Y10625886D01*
X8533231Y10631525D01*
X8533892Y10637520D01*
X8534146Y10643870D01*
X8533892Y10650169D01*
X8533079Y10656112D01*
X8531809Y10661802D01*
X8530031Y10667136D01*
X8527846Y10672165D01*
X8525205Y10676788D01*
X8522258Y10681055D01*
X8518906Y10684916D01*
X8515248Y10688421D01*
X8511286Y10691469D01*
X8507069Y10694111D01*
X8502650Y10696244D01*
X8497976Y10697972D01*
X8493150Y10699242D01*
X8488172Y10700004D01*
G37*
G36*
X8261603Y10700258D02*
G01*
X8252968Y10699648D01*
X8245144Y10697870D01*
X8237728Y10695025D01*
X8230362Y10691114D01*
X8231124Y10668508D01*
X8241284Y10668508D01*
X8245348Y10687558D01*
X8249361Y10689285D01*
X8253374Y10690555D01*
X8257438Y10691368D01*
X8261603Y10691622D01*
X8271002Y10690453D01*
X8277707Y10687100D01*
X8281822Y10681970D01*
X8283194Y10675366D01*
X8282076Y10668863D01*
X8278520Y10663834D01*
X8272170Y10659618D01*
X8262620Y10655554D01*
X8254746Y10652760D01*
X8247176Y10649762D01*
X8240775Y10646511D01*
X8235492Y10642955D01*
X8231327Y10639145D01*
X8228126Y10635030D01*
X8225942Y10630560D01*
X8224672Y10625836D01*
X8224266Y10620756D01*
X8224570Y10616488D01*
X8225485Y10612424D01*
X8227059Y10608513D01*
X8229193Y10604855D01*
X8231936Y10601452D01*
X8235289Y10598404D01*
X8239201Y10595711D01*
X8243722Y10593374D01*
X8248802Y10591546D01*
X8254441Y10590174D01*
X8260689Y10589310D01*
X8267446Y10589006D01*
X8276488Y10589514D01*
X8284870Y10591088D01*
X8292896Y10593730D01*
X8300974Y10597388D01*
X8301228Y10621772D01*
X8290814Y10621772D01*
X8285988Y10601198D01*
X8281873Y10599521D01*
X8277504Y10598353D01*
X8272830Y10597642D01*
X8267700Y10597388D01*
X8261553Y10597743D01*
X8256320Y10598708D01*
X8251901Y10600283D01*
X8248294Y10602417D01*
X8245551Y10605008D01*
X8243570Y10608106D01*
X8242452Y10611561D01*
X8242046Y10615422D01*
X8243214Y10621873D01*
X8246922Y10627106D01*
X8253272Y10631576D01*
X8262620Y10635742D01*
X8273034Y10639044D01*
X8278926Y10641482D01*
X8284260Y10644174D01*
X8288883Y10647273D01*
X8292795Y10650728D01*
X8295944Y10654639D01*
X8298281Y10658957D01*
X8299703Y10663834D01*
X8300212Y10669270D01*
X8299551Y10675366D01*
X8297672Y10681055D01*
X8294573Y10686338D01*
X8290255Y10690961D01*
X8284768Y10694822D01*
X8278114Y10697718D01*
X8270392Y10699597D01*
G37*
G36*
X8079994Y10700258D02*
G01*
X8073390Y10699699D01*
X8067598Y10697972D01*
X8062722Y10695025D01*
X8058708Y10690809D01*
X8055609Y10685272D01*
X8053324Y10678312D01*
X8052003Y10669828D01*
X8051546Y10659872D01*
X8051292Y10601198D01*
X8035544Y10598658D01*
X8035544Y10591800D01*
X8086852Y10591800D01*
X8086852Y10598658D01*
X8070342Y10601198D01*
X8069834Y10638536D01*
X8069834Y10659364D01*
X8070088Y10666272D01*
X8070900Y10672013D01*
X8072272Y10676686D01*
X8074253Y10680344D01*
X8076793Y10683036D01*
X8079994Y10684916D01*
X8083854Y10685932D01*
X8088375Y10686288D01*
X8095792Y10685475D01*
X8103311Y10682833D01*
X8111083Y10678261D01*
X8119364Y10671556D01*
X8119313Y10620248D01*
X8119109Y10601198D01*
X8103616Y10598658D01*
X8103616Y10591800D01*
X8154924Y10591800D01*
X8154924Y10598658D01*
X8138414Y10601198D01*
X8137906Y10638536D01*
X8137956Y10658805D01*
X8138312Y10672876D01*
X8138668Y10679430D01*
X8156194Y10681208D01*
X8156194Y10687812D01*
X8124952Y10700004D01*
X8121903Y10697972D01*
X8120125Y10679684D01*
X8115706Y10684205D01*
X8110981Y10688269D01*
X8106105Y10691774D01*
X8101025Y10694720D01*
X8095792Y10697108D01*
X8090560Y10698835D01*
X8085277Y10699902D01*
G37*
G36*
X7967980Y10700258D02*
G01*
X7963153Y10700054D01*
X7958328Y10699343D01*
X7953603Y10698276D01*
X7949031Y10696702D01*
X7944612Y10694720D01*
X7940344Y10692282D01*
X7936331Y10689386D01*
X7932623Y10686084D01*
X7929168Y10682376D01*
X7926070Y10678160D01*
X7923377Y10673588D01*
X7921040Y10668558D01*
X7919212Y10663072D01*
X7917789Y10657179D01*
X7916976Y10650880D01*
X7916672Y10644124D01*
X7937246Y10644124D01*
X7937500Y10651591D01*
X7938160Y10658398D01*
X7939328Y10664647D01*
X7940903Y10670286D01*
X7942935Y10675264D01*
X7945374Y10679633D01*
X7948218Y10683341D01*
X7951419Y10686389D01*
X7955025Y10688777D01*
X7958988Y10690504D01*
X7963306Y10691520D01*
X7967980Y10691876D01*
X7972653Y10691520D01*
X7976920Y10690504D01*
X7980883Y10688777D01*
X7984439Y10686389D01*
X7987639Y10683341D01*
X7990484Y10679633D01*
X7992872Y10675264D01*
X7994853Y10670286D01*
X7996428Y10664647D01*
X7997545Y10658398D01*
X7998206Y10651591D01*
X7998459Y10644124D01*
X7998206Y10636808D01*
X7997545Y10630103D01*
X7996428Y10623956D01*
X7994853Y10618470D01*
X7992872Y10613593D01*
X7990484Y10609326D01*
X7987639Y10605719D01*
X7984439Y10602722D01*
X7980883Y10600385D01*
X7976920Y10598708D01*
X7972653Y10597743D01*
X7967980Y10597388D01*
X7963306Y10597743D01*
X7958988Y10598708D01*
X7955025Y10600385D01*
X7951419Y10602722D01*
X7948218Y10605719D01*
X7945374Y10609326D01*
X7942935Y10613593D01*
X7940903Y10618470D01*
X7939328Y10623956D01*
X7938160Y10630103D01*
X7937500Y10636808D01*
X7937246Y10644124D01*
X7916672Y10644124D01*
X7916976Y10637469D01*
X7917789Y10631271D01*
X7919161Y10625480D01*
X7920990Y10620095D01*
X7923326Y10615117D01*
X7926019Y10610596D01*
X7929067Y10606532D01*
X7932521Y10602823D01*
X7936230Y10599623D01*
X7940243Y10596778D01*
X7944510Y10594441D01*
X7948930Y10592460D01*
X7953552Y10590936D01*
X7958277Y10589869D01*
X7963103Y10589209D01*
X7967980Y10589006D01*
X7972856Y10589209D01*
X7977682Y10589869D01*
X7982407Y10590936D01*
X7986979Y10592460D01*
X7991348Y10594441D01*
X7995564Y10596778D01*
X7999526Y10599623D01*
X8003184Y10602823D01*
X8006588Y10606532D01*
X8009585Y10610596D01*
X8012277Y10615117D01*
X8014512Y10620095D01*
X8016341Y10625480D01*
X8017662Y10631271D01*
X8018475Y10637469D01*
X8018780Y10644124D01*
X8018475Y10650829D01*
X8017662Y10657128D01*
X8016290Y10662970D01*
X8014462Y10668457D01*
X8012226Y10673486D01*
X8009534Y10678058D01*
X8006486Y10682274D01*
X8003082Y10685983D01*
X7999425Y10689336D01*
X7995462Y10692231D01*
X7991246Y10694670D01*
X7986826Y10696651D01*
X7982305Y10698226D01*
X7977581Y10699343D01*
X7972806Y10700054D01*
G37*
G36*
X7550658Y10700258D02*
G01*
X7544053Y10699699D01*
X7538262Y10697972D01*
X7533386Y10695025D01*
X7529372Y10690809D01*
X7526274Y10685272D01*
X7523988Y10678312D01*
X7522667Y10669828D01*
X7522209Y10659872D01*
X7521956Y10601198D01*
X7506208Y10598658D01*
X7506208Y10591800D01*
X7557516Y10591800D01*
X7557516Y10598658D01*
X7541006Y10601198D01*
X7540498Y10638536D01*
X7540498Y10659364D01*
X7540752Y10666272D01*
X7541564Y10672013D01*
X7542936Y10676686D01*
X7544917Y10680344D01*
X7547457Y10683036D01*
X7550658Y10684916D01*
X7554518Y10685932D01*
X7559040Y10686288D01*
X7566456Y10685475D01*
X7573975Y10682833D01*
X7581747Y10678261D01*
X7590028Y10671556D01*
X7589977Y10620248D01*
X7589774Y10601198D01*
X7574280Y10598658D01*
X7574280Y10591800D01*
X7625588Y10591800D01*
X7625588Y10598658D01*
X7609078Y10601198D01*
X7608570Y10638536D01*
X7608620Y10658805D01*
X7608976Y10672876D01*
X7609331Y10679430D01*
X7626858Y10681208D01*
X7626858Y10687812D01*
X7595616Y10700004D01*
X7592568Y10697972D01*
X7590790Y10679684D01*
X7586370Y10684205D01*
X7581646Y10688269D01*
X7576769Y10691774D01*
X7571689Y10694720D01*
X7566456Y10697108D01*
X7561224Y10698835D01*
X7555941Y10699902D01*
G37*
G36*
X7446009Y10700258D02*
G01*
X7437780Y10699750D01*
X7430312Y10698124D01*
X7423708Y10695432D01*
X7418070Y10691622D01*
X7392670Y10700004D01*
X7389368Y10697972D01*
X7389368Y10684764D01*
X7411974Y10685272D01*
X7409434Y10680801D01*
X7407605Y10675772D01*
X7406487Y10670133D01*
X7406161Y10664444D01*
X7423658Y10664444D01*
X7424013Y10670387D01*
X7425131Y10675823D01*
X7426959Y10680598D01*
X7429449Y10684713D01*
X7432649Y10688066D01*
X7436408Y10690555D01*
X7440777Y10692079D01*
X7445756Y10692638D01*
X7450836Y10692079D01*
X7455357Y10690504D01*
X7459319Y10687964D01*
X7462672Y10684560D01*
X7465314Y10680344D01*
X7467244Y10675366D01*
X7468463Y10669828D01*
X7468870Y10663682D01*
X7468463Y10657382D01*
X7467346Y10651744D01*
X7465517Y10646816D01*
X7462977Y10642650D01*
X7459776Y10639247D01*
X7456017Y10636808D01*
X7451648Y10635234D01*
X7446772Y10634726D01*
X7441641Y10635284D01*
X7437069Y10636961D01*
X7433106Y10639552D01*
X7429804Y10643108D01*
X7427163Y10647426D01*
X7425232Y10652506D01*
X7424064Y10658195D01*
X7423658Y10664444D01*
X7406161Y10664444D01*
X7406487Y10658297D01*
X7407503Y10653115D01*
X7409129Y10648340D01*
X7411313Y10644022D01*
X7414107Y10640161D01*
X7417409Y10636758D01*
X7421168Y10633862D01*
X7425385Y10631474D01*
X7430008Y10629595D01*
X7435037Y10628223D01*
X7440371Y10627360D01*
X7446009Y10627106D01*
X7450836Y10627309D01*
X7455357Y10627817D01*
X7459675Y10628731D01*
X7463790Y10629900D01*
X7466431Y10626242D01*
X7468362Y10622737D01*
X7469479Y10619232D01*
X7469886Y10615422D01*
X7469225Y10611002D01*
X7466990Y10607751D01*
X7462621Y10605719D01*
X7455662Y10605008D01*
X7426198Y10605008D01*
X7417663Y10604500D01*
X7410297Y10603077D01*
X7404150Y10600690D01*
X7399172Y10597489D01*
X7395311Y10593425D01*
X7392568Y10588599D01*
X7390942Y10583062D01*
X7390384Y10576814D01*
X7390790Y10571988D01*
X7391030Y10570972D01*
X7406640Y10570972D01*
X7407808Y10577931D01*
X7411567Y10583570D01*
X7418324Y10587380D01*
X7428484Y10588752D01*
X7457338Y10588802D01*
X7465059Y10589260D01*
X7469276Y10584383D01*
X7472121Y10579557D01*
X7473696Y10574528D01*
X7474203Y10568940D01*
X7473696Y10563809D01*
X7472121Y10559389D01*
X7469682Y10555732D01*
X7466279Y10552734D01*
X7462113Y10550448D01*
X7457186Y10548874D01*
X7451547Y10547908D01*
X7445248Y10547604D01*
X7436307Y10548061D01*
X7428484Y10549382D01*
X7421880Y10551515D01*
X7416444Y10554360D01*
X7412177Y10557764D01*
X7409078Y10561726D01*
X7407249Y10566196D01*
X7406640Y10570972D01*
X7391030Y10570972D01*
X7391908Y10567263D01*
X7393838Y10562691D01*
X7396530Y10558272D01*
X7399985Y10554157D01*
X7404201Y10550398D01*
X7409180Y10547045D01*
X7414869Y10544098D01*
X7421372Y10541762D01*
X7428585Y10539984D01*
X7436561Y10538866D01*
X7445248Y10538460D01*
X7452918Y10538714D01*
X7459878Y10539374D01*
X7466075Y10540492D01*
X7471562Y10542016D01*
X7476337Y10543895D01*
X7480452Y10546181D01*
X7483906Y10548772D01*
X7486650Y10551668D01*
X7488783Y10554868D01*
X7490307Y10558322D01*
X7491171Y10561980D01*
X7491475Y10565892D01*
X7490307Y10572800D01*
X7486599Y10579049D01*
X7479995Y10584942D01*
X7470140Y10590530D01*
X7476236Y10593171D01*
X7480706Y10596981D01*
X7483449Y10601858D01*
X7484364Y10607802D01*
X7483551Y10613186D01*
X7480909Y10618876D01*
X7476236Y10625175D01*
X7469124Y10632440D01*
X7472934Y10634878D01*
X7476337Y10637723D01*
X7479284Y10641025D01*
X7481773Y10644784D01*
X7483754Y10648950D01*
X7485176Y10653522D01*
X7486091Y10658500D01*
X7486396Y10663936D01*
X7486040Y10669524D01*
X7485024Y10674654D01*
X7483348Y10679379D01*
X7481112Y10683646D01*
X7478318Y10687405D01*
X7474966Y10690758D01*
X7471156Y10693603D01*
X7466888Y10695990D01*
X7462164Y10697819D01*
X7457135Y10699191D01*
X7451699Y10700004D01*
G37*
G36*
X7019544Y10700258D02*
G01*
X7013702Y10699902D01*
X7008164Y10698937D01*
X7002983Y10697311D01*
X6998157Y10695076D01*
X6993737Y10692231D01*
X6989775Y10688878D01*
X6986320Y10684916D01*
X6983374Y10680446D01*
X6981037Y10675518D01*
X6979310Y10670082D01*
X6978565Y10665968D01*
X6995922Y10665968D01*
X6996379Y10670997D01*
X6997750Y10675823D01*
X6999884Y10680192D01*
X7002830Y10684052D01*
X7006386Y10687304D01*
X7010603Y10689742D01*
X7015327Y10691317D01*
X7020559Y10691876D01*
X7025690Y10691317D01*
X7030770Y10689691D01*
X7035546Y10686846D01*
X7039965Y10682833D01*
X7043826Y10677601D01*
X7047026Y10671098D01*
X7049414Y10663224D01*
X7050786Y10654030D01*
X7007859Y10653522D01*
X7001916Y10654436D01*
X6998258Y10656976D01*
X6996430Y10660938D01*
X6995922Y10665968D01*
X6978565Y10665968D01*
X6978243Y10664190D01*
X6977888Y10657840D01*
X6978243Y10650829D01*
X6979412Y10645394D01*
X7051040Y10645648D01*
X7050633Y10638586D01*
X7049617Y10632135D01*
X7048093Y10626293D01*
X7046061Y10621111D01*
X7043521Y10616488D01*
X7040473Y10612526D01*
X7037019Y10609122D01*
X7033158Y10606379D01*
X7028891Y10604195D01*
X7024268Y10602671D01*
X7019290Y10601756D01*
X7013956Y10601452D01*
X7004050Y10602620D01*
X6995871Y10605820D01*
X6988860Y10610900D01*
X6982714Y10617454D01*
X6978396Y10614406D01*
X6981748Y10608818D01*
X6985609Y10603788D01*
X6990080Y10599470D01*
X6995058Y10595813D01*
X7000595Y10592866D01*
X7006640Y10590784D01*
X7013244Y10589463D01*
X7020306Y10589006D01*
X7025792Y10589260D01*
X7031075Y10589920D01*
X7036053Y10591088D01*
X7040829Y10592663D01*
X7045248Y10594746D01*
X7049414Y10597184D01*
X7053224Y10600080D01*
X7056678Y10603382D01*
X7059828Y10607090D01*
X7062571Y10611205D01*
X7064959Y10615726D01*
X7066940Y10620603D01*
X7068515Y10625886D01*
X7069683Y10631525D01*
X7070344Y10637520D01*
X7070598Y10643870D01*
X7070344Y10650169D01*
X7069531Y10656112D01*
X7068261Y10661802D01*
X7066483Y10667136D01*
X7064298Y10672165D01*
X7061657Y10676788D01*
X7058710Y10681055D01*
X7055358Y10684916D01*
X7051700Y10688421D01*
X7047738Y10691469D01*
X7043521Y10694111D01*
X7039102Y10696244D01*
X7034428Y10697972D01*
X7029602Y10699242D01*
X7024624Y10700004D01*
G37*
G36*
X6859270Y10700258D02*
G01*
X6853681Y10700054D01*
X6848602Y10699343D01*
X6844030Y10698175D01*
X6839915Y10696549D01*
X6836359Y10694314D01*
X6833209Y10691571D01*
X6830618Y10688269D01*
X6828485Y10684357D01*
X6826859Y10679785D01*
X6825640Y10674604D01*
X6824980Y10668711D01*
X6824725Y10662158D01*
X6824725Y10650220D01*
X6843014Y10650220D01*
X6854342Y10646816D01*
X6863588Y10643616D01*
X6870090Y10640720D01*
X6875322Y10637723D01*
X6879285Y10634675D01*
X6882231Y10631627D01*
X6884314Y10628528D01*
X6885584Y10625378D01*
X6886244Y10622280D01*
X6886448Y10619232D01*
X6885076Y10611510D01*
X6881317Y10606125D01*
X6875627Y10602976D01*
X6868414Y10601960D01*
X6862876Y10602620D01*
X6857441Y10604804D01*
X6851142Y10608818D01*
X6843014Y10614914D01*
X6843014Y10650220D01*
X6824725Y10650220D01*
X6824725Y10613644D01*
X6824167Y10607040D01*
X6822541Y10602620D01*
X6820001Y10600182D01*
X6816598Y10599420D01*
X6814007Y10599775D01*
X6811772Y10600893D01*
X6809740Y10602620D01*
X6807708Y10605008D01*
X6803644Y10600690D01*
X6807657Y10595356D01*
X6812127Y10591850D01*
X6817106Y10589869D01*
X6822694Y10589260D01*
X6830161Y10590479D01*
X6836003Y10594035D01*
X6840220Y10599572D01*
X6842506Y10606786D01*
X6846874Y10602569D01*
X6850989Y10598962D01*
X6854901Y10595914D01*
X6858762Y10593425D01*
X6862673Y10591495D01*
X6866737Y10590123D01*
X6871055Y10589260D01*
X6875780Y10589006D01*
X6881723Y10589463D01*
X6887260Y10590733D01*
X6892239Y10592917D01*
X6896608Y10595914D01*
X6900214Y10599775D01*
X6902907Y10604449D01*
X6904634Y10609935D01*
X6905244Y10616184D01*
X6904837Y10621162D01*
X6903618Y10625785D01*
X6901281Y10630154D01*
X6897827Y10634319D01*
X6892950Y10638332D01*
X6886600Y10642244D01*
X6878574Y10646105D01*
X6868668Y10649966D01*
X6856526Y10653826D01*
X6843014Y10657332D01*
X6843014Y10664190D01*
X6843318Y10671657D01*
X6844233Y10677753D01*
X6845808Y10682528D01*
X6848043Y10686237D01*
X6850989Y10688878D01*
X6854698Y10690606D01*
X6859117Y10691571D01*
X6864350Y10691876D01*
X6870293Y10691317D01*
X6876796Y10689844D01*
X6881114Y10674604D01*
X6882841Y10670133D01*
X6885279Y10666933D01*
X6888429Y10665053D01*
X6892290Y10664444D01*
X6896353Y10665002D01*
X6899351Y10666628D01*
X6901281Y10669270D01*
X6902196Y10672826D01*
X6900214Y10678871D01*
X6897116Y10684306D01*
X6892950Y10688980D01*
X6887870Y10692942D01*
X6881875Y10696041D01*
X6875068Y10698378D01*
X6867499Y10699800D01*
G37*
G36*
X6546850Y10700258D02*
G01*
X6541820Y10699699D01*
X6537248Y10698073D01*
X6533438Y10695432D01*
X6530848Y10691876D01*
X6531559Y10685627D01*
X6533794Y10680801D01*
X6537706Y10677753D01*
X6543548Y10676636D01*
X6547205Y10677093D01*
X6550710Y10678363D01*
X6554012Y10680395D01*
X6557264Y10682986D01*
X6559803Y10685526D01*
X6566103Y10679938D01*
X6571386Y10673283D01*
X6575653Y10665358D01*
X6579108Y10656062D01*
X6578853Y10601452D01*
X6560312Y10598658D01*
X6560312Y10591800D01*
X6614414Y10591800D01*
X6614414Y10598658D01*
X6598158Y10601198D01*
X6597650Y10638536D01*
X6597700Y10658805D01*
X6598056Y10672876D01*
X6598412Y10679430D01*
X6615938Y10681208D01*
X6615938Y10687812D01*
X6584696Y10700004D01*
X6581648Y10697972D01*
X6579362Y10671302D01*
X6576364Y10677804D01*
X6572910Y10683544D01*
X6569100Y10688523D01*
X6565036Y10692638D01*
X6560667Y10695940D01*
X6556146Y10698327D01*
X6551523Y10699750D01*
G37*
G36*
X6471158Y10700258D02*
G01*
X6465265Y10699902D01*
X6459677Y10698937D01*
X6454444Y10697311D01*
X6449618Y10695076D01*
X6445250Y10692231D01*
X6441287Y10688878D01*
X6437833Y10684916D01*
X6434937Y10680446D01*
X6432600Y10675518D01*
X6430924Y10670082D01*
X6430179Y10665968D01*
X6447536Y10665968D01*
X6447993Y10670997D01*
X6449364Y10675823D01*
X6451498Y10680192D01*
X6454444Y10684052D01*
X6458000Y10687304D01*
X6462217Y10689742D01*
X6466941Y10691317D01*
X6472174Y10691876D01*
X6477254Y10691317D01*
X6482232Y10689691D01*
X6487058Y10686846D01*
X6491478Y10682833D01*
X6495389Y10677601D01*
X6498590Y10671098D01*
X6500977Y10663224D01*
X6502400Y10654030D01*
X6459474Y10653522D01*
X6453530Y10654436D01*
X6449872Y10656976D01*
X6448044Y10660938D01*
X6447536Y10665968D01*
X6430179Y10665968D01*
X6429857Y10664190D01*
X6429502Y10657840D01*
X6429857Y10650829D01*
X6431026Y10645394D01*
X6502654Y10645648D01*
X6502247Y10638586D01*
X6501231Y10632135D01*
X6499707Y10626293D01*
X6497675Y10621111D01*
X6495135Y10616488D01*
X6492138Y10612526D01*
X6488633Y10609122D01*
X6484772Y10606379D01*
X6480505Y10604195D01*
X6475882Y10602671D01*
X6470904Y10601756D01*
X6465570Y10601452D01*
X6455664Y10602620D01*
X6447485Y10605820D01*
X6440474Y10610900D01*
X6434328Y10617454D01*
X6429756Y10614406D01*
X6433108Y10608818D01*
X6436969Y10603788D01*
X6441440Y10599470D01*
X6446469Y10595813D01*
X6452006Y10592866D01*
X6458102Y10590784D01*
X6464757Y10589463D01*
X6471920Y10589006D01*
X6477406Y10589260D01*
X6482689Y10589920D01*
X6487668Y10591088D01*
X6492443Y10592663D01*
X6496862Y10594746D01*
X6501028Y10597184D01*
X6504838Y10600080D01*
X6508292Y10603382D01*
X6511442Y10607090D01*
X6514185Y10611205D01*
X6516573Y10615726D01*
X6518554Y10620603D01*
X6520129Y10625886D01*
X6521297Y10631525D01*
X6521957Y10637520D01*
X6522212Y10643870D01*
X6521957Y10650169D01*
X6521145Y10656112D01*
X6519875Y10661802D01*
X6518097Y10667136D01*
X6515912Y10672165D01*
X6513271Y10676788D01*
X6510324Y10681055D01*
X6506972Y10684916D01*
X6503314Y10688421D01*
X6499352Y10691469D01*
X6495135Y10694111D01*
X6490716Y10696244D01*
X6486042Y10697972D01*
X6481216Y10699242D01*
X6476238Y10700004D01*
G37*
G36*
X6364478Y10700258D02*
G01*
X6358890Y10700054D01*
X6353810Y10699343D01*
X6349238Y10698175D01*
X6345123Y10696549D01*
X6341567Y10694314D01*
X6338468Y10691571D01*
X6335826Y10688269D01*
X6333693Y10684357D01*
X6332067Y10679785D01*
X6330848Y10674604D01*
X6330188Y10668711D01*
X6329934Y10662158D01*
X6329934Y10650220D01*
X6348222Y10650220D01*
X6359550Y10646816D01*
X6368796Y10643616D01*
X6375298Y10640720D01*
X6380530Y10637723D01*
X6384493Y10634675D01*
X6387490Y10631627D01*
X6389522Y10628528D01*
X6390792Y10625378D01*
X6391452Y10622280D01*
X6391656Y10619232D01*
X6390284Y10611510D01*
X6386525Y10606125D01*
X6380835Y10602976D01*
X6373622Y10601960D01*
X6368084Y10602620D01*
X6362649Y10604804D01*
X6356350Y10608818D01*
X6348222Y10614914D01*
X6348222Y10650220D01*
X6329934Y10650220D01*
X6329934Y10613644D01*
X6329375Y10607040D01*
X6327800Y10602620D01*
X6325209Y10600182D01*
X6321806Y10599420D01*
X6319215Y10599775D01*
X6316980Y10600893D01*
X6314948Y10602620D01*
X6312916Y10605008D01*
X6308852Y10600690D01*
X6312865Y10595356D01*
X6317335Y10591850D01*
X6322314Y10589869D01*
X6327902Y10589260D01*
X6335369Y10590479D01*
X6341211Y10594035D01*
X6345428Y10599572D01*
X6347714Y10606786D01*
X6352082Y10602569D01*
X6356197Y10598962D01*
X6360109Y10595914D01*
X6363970Y10593425D01*
X6367881Y10591495D01*
X6371945Y10590123D01*
X6376263Y10589260D01*
X6380988Y10589006D01*
X6386931Y10589463D01*
X6392468Y10590733D01*
X6397447Y10592917D01*
X6401816Y10595914D01*
X6405422Y10599775D01*
X6408115Y10604449D01*
X6409842Y10609935D01*
X6410452Y10616184D01*
X6410045Y10621162D01*
X6408826Y10625785D01*
X6406489Y10630154D01*
X6403035Y10634319D01*
X6398158Y10638332D01*
X6391808Y10642244D01*
X6383782Y10646105D01*
X6373876Y10649966D01*
X6361734Y10653826D01*
X6348222Y10657332D01*
X6348222Y10664190D01*
X6348526Y10671657D01*
X6349441Y10677753D01*
X6351016Y10682528D01*
X6353251Y10686237D01*
X6356197Y10688878D01*
X6359906Y10690606D01*
X6364325Y10691571D01*
X6369558Y10691876D01*
X6375501Y10691317D01*
X6382004Y10689844D01*
X6386322Y10674604D01*
X6388049Y10670133D01*
X6390487Y10666933D01*
X6393637Y10665053D01*
X6397498Y10664444D01*
X6401562Y10665002D01*
X6404559Y10666628D01*
X6406489Y10669270D01*
X6407404Y10672826D01*
X6405422Y10678871D01*
X6402324Y10684306D01*
X6398158Y10688980D01*
X6393078Y10692942D01*
X6387084Y10696041D01*
X6380276Y10698378D01*
X6372707Y10699800D01*
G37*
G36*
X6158992Y10700258D02*
G01*
X6152591Y10699699D01*
X6146952Y10698073D01*
X6142075Y10695279D01*
X6138011Y10691215D01*
X6134811Y10685932D01*
X6132474Y10679277D01*
X6131052Y10671200D01*
X6130544Y10661650D01*
X6130493Y10629747D01*
X6130036Y10601198D01*
X6114542Y10598658D01*
X6114542Y10591800D01*
X6165596Y10591800D01*
X6165596Y10598658D01*
X6149086Y10601198D01*
X6148578Y10638536D01*
X6148578Y10659364D01*
X6148832Y10666476D01*
X6149695Y10672318D01*
X6151118Y10676940D01*
X6153099Y10680496D01*
X6155740Y10683087D01*
X6158992Y10684814D01*
X6162852Y10685729D01*
X6167374Y10686034D01*
X6174435Y10685221D01*
X6181648Y10682681D01*
X6189370Y10678109D01*
X6197854Y10671302D01*
X6197295Y10665866D01*
X6197092Y10659872D01*
X6197041Y10620044D01*
X6196584Y10601198D01*
X6181344Y10598658D01*
X6181344Y10591800D01*
X6232652Y10591800D01*
X6232652Y10598658D01*
X6215634Y10601198D01*
X6215380Y10659110D01*
X6215634Y10666120D01*
X6216446Y10671911D01*
X6217818Y10676534D01*
X6219748Y10680192D01*
X6222288Y10682884D01*
X6225438Y10684662D01*
X6229248Y10685729D01*
X6233668Y10686034D01*
X6241084Y10685221D01*
X6248298Y10682579D01*
X6255766Y10678109D01*
X6263894Y10671556D01*
X6263843Y10629900D01*
X6263386Y10601198D01*
X6247892Y10598658D01*
X6247892Y10591800D01*
X6299200Y10591800D01*
X6299200Y10598658D01*
X6282690Y10601198D01*
X6282436Y10658805D01*
X6282639Y10672876D01*
X6282944Y10679430D01*
X6300724Y10681208D01*
X6300724Y10687812D01*
X6269228Y10700004D01*
X6266180Y10697972D01*
X6264402Y10679938D01*
X6260134Y10684408D01*
X6255664Y10688370D01*
X6250940Y10691825D01*
X6246012Y10694771D01*
X6240983Y10697108D01*
X6235852Y10698835D01*
X6230721Y10699902D01*
X6225540Y10700258D01*
X6220612Y10699953D01*
X6216192Y10699038D01*
X6212230Y10697464D01*
X6208725Y10695279D01*
X6205626Y10692384D01*
X6203035Y10688777D01*
X6200851Y10684459D01*
X6199124Y10679430D01*
X6194653Y10684408D01*
X6189929Y10688675D01*
X6185052Y10692282D01*
X6180023Y10695178D01*
X6174841Y10697413D01*
X6169609Y10698988D01*
X6164326Y10699953D01*
G37*
G36*
X5921756Y10700258D02*
G01*
X5916930Y10700054D01*
X5912205Y10699343D01*
X5907532Y10698276D01*
X5902960Y10696702D01*
X5898540Y10694720D01*
X5894324Y10692282D01*
X5890361Y10689386D01*
X5886602Y10686084D01*
X5883198Y10682376D01*
X5880100Y10678160D01*
X5877356Y10673588D01*
X5875070Y10668558D01*
X5873191Y10663072D01*
X5871819Y10657179D01*
X5871006Y10650880D01*
X5870702Y10644124D01*
X5891276Y10644124D01*
X5891530Y10651591D01*
X5892190Y10658398D01*
X5893308Y10664647D01*
X5894882Y10670286D01*
X5896864Y10675264D01*
X5899302Y10679633D01*
X5902096Y10683341D01*
X5905296Y10686389D01*
X5908852Y10688777D01*
X5912815Y10690504D01*
X5917082Y10691520D01*
X5921756Y10691876D01*
X5926480Y10691520D01*
X5930798Y10690504D01*
X5934811Y10688777D01*
X5938418Y10686389D01*
X5941618Y10683341D01*
X5944463Y10679633D01*
X5946851Y10675264D01*
X5948883Y10670286D01*
X5950458Y10664647D01*
X5951575Y10658398D01*
X5952236Y10651591D01*
X5952490Y10644124D01*
X5952236Y10636808D01*
X5951575Y10630103D01*
X5950458Y10623956D01*
X5948883Y10618470D01*
X5946851Y10613593D01*
X5944463Y10609326D01*
X5941618Y10605719D01*
X5938418Y10602722D01*
X5934811Y10600385D01*
X5930798Y10598708D01*
X5926480Y10597743D01*
X5921756Y10597388D01*
X5917082Y10597743D01*
X5912815Y10598708D01*
X5908852Y10600385D01*
X5905296Y10602722D01*
X5902096Y10605719D01*
X5899302Y10609326D01*
X5896864Y10613593D01*
X5894882Y10618470D01*
X5893308Y10623956D01*
X5892190Y10630103D01*
X5891530Y10636808D01*
X5891276Y10644124D01*
X5870702Y10644124D01*
X5871006Y10637469D01*
X5871819Y10631271D01*
X5873191Y10625480D01*
X5875020Y10620095D01*
X5877306Y10615117D01*
X5880049Y10610596D01*
X5883097Y10606532D01*
X5886500Y10602823D01*
X5890209Y10599623D01*
X5894222Y10596778D01*
X5898438Y10594441D01*
X5902858Y10592460D01*
X5907430Y10590936D01*
X5912104Y10589869D01*
X5916930Y10589209D01*
X5921756Y10589006D01*
X5926683Y10589209D01*
X5931509Y10589869D01*
X5936284Y10590936D01*
X5940856Y10592460D01*
X5945327Y10594441D01*
X5949543Y10596778D01*
X5953506Y10599623D01*
X5957163Y10602823D01*
X5960567Y10606532D01*
X5963615Y10610596D01*
X5966307Y10615117D01*
X5968542Y10620095D01*
X5970371Y10625480D01*
X5971692Y10631271D01*
X5972505Y10637469D01*
X5972810Y10644124D01*
X5972505Y10650829D01*
X5971692Y10657128D01*
X5970320Y10662970D01*
X5968492Y10668457D01*
X5966256Y10673486D01*
X5963564Y10678058D01*
X5960516Y10682274D01*
X5957112Y10685983D01*
X5953404Y10689336D01*
X5949391Y10692231D01*
X5945174Y10694670D01*
X5940755Y10696651D01*
X5936183Y10698226D01*
X5931458Y10699343D01*
X5926632Y10700054D01*
G37*
G36*
X5747258Y10700258D02*
G01*
X5740095Y10699699D01*
X5733338Y10698124D01*
X5727192Y10695635D01*
X5721654Y10692231D01*
X5716879Y10688066D01*
X5713018Y10683240D01*
X5710123Y10677753D01*
X5708396Y10671810D01*
X5709564Y10668304D01*
X5711596Y10665764D01*
X5714441Y10664190D01*
X5718048Y10663682D01*
X5722721Y10664393D01*
X5726176Y10666526D01*
X5728462Y10669778D01*
X5734050Y10689844D01*
X5740400Y10691317D01*
X5745988Y10691876D01*
X5750915Y10691520D01*
X5755589Y10690504D01*
X5759907Y10688828D01*
X5763920Y10686440D01*
X5767527Y10683494D01*
X5770727Y10679887D01*
X5773572Y10675670D01*
X5775909Y10670895D01*
X5777788Y10665510D01*
X5779160Y10659618D01*
X5779973Y10653115D01*
X5780278Y10646156D01*
X5779973Y10639298D01*
X5779008Y10632948D01*
X5777534Y10627156D01*
X5775452Y10621924D01*
X5772912Y10617250D01*
X5769864Y10613136D01*
X5766358Y10609630D01*
X5762498Y10606735D01*
X5758180Y10604449D01*
X5753608Y10602772D01*
X5748629Y10601807D01*
X5743448Y10601452D01*
X5738774Y10601756D01*
X5734253Y10602569D01*
X5729935Y10603941D01*
X5725871Y10605820D01*
X5722061Y10608208D01*
X5718505Y10611104D01*
X5715304Y10614456D01*
X5712460Y10618216D01*
X5707888Y10616184D01*
X5710732Y10610037D01*
X5714187Y10604652D01*
X5718403Y10599978D01*
X5723229Y10596118D01*
X5728716Y10593070D01*
X5734862Y10590834D01*
X5741619Y10589463D01*
X5749036Y10589006D01*
X5754573Y10589260D01*
X5759856Y10589971D01*
X5764885Y10591190D01*
X5769660Y10592866D01*
X5774080Y10595000D01*
X5778246Y10597540D01*
X5782056Y10600537D01*
X5785510Y10603890D01*
X5788660Y10607700D01*
X5791403Y10611815D01*
X5793740Y10616387D01*
X5795721Y10621264D01*
X5797296Y10626496D01*
X5798413Y10632033D01*
X5799074Y10637926D01*
X5799328Y10644124D01*
X5799023Y10650575D01*
X5798210Y10656671D01*
X5796838Y10662412D01*
X5795010Y10667796D01*
X5792724Y10672775D01*
X5790031Y10677398D01*
X5786932Y10681614D01*
X5783478Y10685424D01*
X5779719Y10688828D01*
X5775655Y10691825D01*
X5771388Y10694365D01*
X5766866Y10696448D01*
X5762142Y10698124D01*
X5757316Y10699292D01*
X5752338Y10700004D01*
G37*
G36*
X5623306Y10700258D02*
G01*
X5618276Y10699699D01*
X5613704Y10698073D01*
X5609894Y10695432D01*
X5607304Y10691876D01*
X5608015Y10685627D01*
X5610250Y10680801D01*
X5614162Y10677753D01*
X5620004Y10676636D01*
X5623661Y10677093D01*
X5627166Y10678363D01*
X5630468Y10680395D01*
X5633720Y10682986D01*
X5636260Y10685526D01*
X5642559Y10679938D01*
X5647842Y10673283D01*
X5652109Y10665358D01*
X5655564Y10656062D01*
X5655310Y10601452D01*
X5636768Y10598658D01*
X5636768Y10591800D01*
X5690870Y10591800D01*
X5690870Y10598658D01*
X5674614Y10601198D01*
X5674106Y10638536D01*
X5674156Y10658805D01*
X5674512Y10672876D01*
X5674868Y10679430D01*
X5692394Y10681208D01*
X5692394Y10687812D01*
X5661152Y10700004D01*
X5658104Y10697972D01*
X5655818Y10671302D01*
X5652820Y10677804D01*
X5649366Y10683544D01*
X5645556Y10688523D01*
X5641441Y10692638D01*
X5637123Y10695940D01*
X5632602Y10698327D01*
X5627979Y10699750D01*
G37*
G36*
X5547614Y10700258D02*
G01*
X5541721Y10699902D01*
X5536133Y10698937D01*
X5530900Y10697311D01*
X5526074Y10695076D01*
X5521706Y10692231D01*
X5517743Y10688878D01*
X5514289Y10684916D01*
X5511393Y10680446D01*
X5509056Y10675518D01*
X5507380Y10670082D01*
X5506635Y10665968D01*
X5523992Y10665968D01*
X5524449Y10670997D01*
X5525820Y10675823D01*
X5527954Y10680192D01*
X5530900Y10684052D01*
X5534456Y10687304D01*
X5538673Y10689742D01*
X5543397Y10691317D01*
X5548630Y10691876D01*
X5553710Y10691317D01*
X5558688Y10689691D01*
X5563514Y10686846D01*
X5567934Y10682833D01*
X5571845Y10677601D01*
X5575046Y10671098D01*
X5577433Y10663224D01*
X5578856Y10654030D01*
X5535930Y10653522D01*
X5529986Y10654436D01*
X5526328Y10656976D01*
X5524500Y10660938D01*
X5523992Y10665968D01*
X5506635Y10665968D01*
X5506313Y10664190D01*
X5505958Y10657840D01*
X5506313Y10650829D01*
X5507482Y10645394D01*
X5579110Y10645648D01*
X5578703Y10638586D01*
X5577687Y10632135D01*
X5576163Y10626293D01*
X5574131Y10621111D01*
X5571591Y10616488D01*
X5568543Y10612526D01*
X5565089Y10609122D01*
X5561228Y10606379D01*
X5556961Y10604195D01*
X5552338Y10602671D01*
X5547360Y10601756D01*
X5542026Y10601452D01*
X5532120Y10602620D01*
X5523941Y10605820D01*
X5516930Y10610900D01*
X5510784Y10617454D01*
X5506212Y10614406D01*
X5509564Y10608818D01*
X5513425Y10603788D01*
X5517896Y10599470D01*
X5522925Y10595813D01*
X5528462Y10592866D01*
X5534558Y10590784D01*
X5541213Y10589463D01*
X5548376Y10589006D01*
X5553862Y10589260D01*
X5559145Y10589920D01*
X5564124Y10591088D01*
X5568899Y10592663D01*
X5573318Y10594746D01*
X5577484Y10597184D01*
X5581294Y10600080D01*
X5584748Y10603382D01*
X5587898Y10607090D01*
X5590641Y10611205D01*
X5593029Y10615726D01*
X5595010Y10620603D01*
X5596585Y10625886D01*
X5597753Y10631525D01*
X5598414Y10637520D01*
X5598668Y10643870D01*
X5598414Y10650169D01*
X5597601Y10656112D01*
X5596331Y10661802D01*
X5594553Y10667136D01*
X5592368Y10672165D01*
X5589727Y10676788D01*
X5586780Y10681055D01*
X5583428Y10684916D01*
X5579770Y10688421D01*
X5575808Y10691469D01*
X5571591Y10694111D01*
X5567172Y10696244D01*
X5562498Y10697972D01*
X5557672Y10699242D01*
X5552694Y10700004D01*
G37*
G36*
X5440934Y10700258D02*
G01*
X5435346Y10700054D01*
X5430266Y10699343D01*
X5425694Y10698175D01*
X5421579Y10696549D01*
X5418023Y10694314D01*
X5414924Y10691571D01*
X5412282Y10688269D01*
X5410149Y10684357D01*
X5408523Y10679785D01*
X5407304Y10674604D01*
X5406644Y10668711D01*
X5406390Y10662158D01*
X5406390Y10650220D01*
X5424678Y10650220D01*
X5436006Y10646816D01*
X5445252Y10643616D01*
X5451754Y10640720D01*
X5456986Y10637723D01*
X5460949Y10634675D01*
X5463895Y10631627D01*
X5465978Y10628528D01*
X5467248Y10625378D01*
X5467908Y10622280D01*
X5468112Y10619232D01*
X5466740Y10611510D01*
X5462981Y10606125D01*
X5457291Y10602976D01*
X5450078Y10601960D01*
X5444540Y10602620D01*
X5439105Y10604804D01*
X5432806Y10608818D01*
X5424678Y10614914D01*
X5424678Y10650220D01*
X5406390Y10650220D01*
X5406390Y10613644D01*
X5405831Y10607040D01*
X5404205Y10602620D01*
X5401665Y10600182D01*
X5398262Y10599420D01*
X5395671Y10599775D01*
X5393436Y10600893D01*
X5391404Y10602620D01*
X5389372Y10605008D01*
X5385308Y10600690D01*
X5389321Y10595356D01*
X5393791Y10591850D01*
X5398770Y10589869D01*
X5404358Y10589260D01*
X5411825Y10590479D01*
X5417718Y10594035D01*
X5421884Y10599572D01*
X5424170Y10606786D01*
X5428538Y10602569D01*
X5432653Y10598962D01*
X5436565Y10595914D01*
X5440426Y10593425D01*
X5444337Y10591495D01*
X5448401Y10590123D01*
X5452719Y10589260D01*
X5457444Y10589006D01*
X5463387Y10589463D01*
X5468924Y10590733D01*
X5473903Y10592917D01*
X5478272Y10595914D01*
X5481878Y10599775D01*
X5484571Y10604449D01*
X5486298Y10609935D01*
X5486908Y10616184D01*
X5486501Y10621162D01*
X5485282Y10625785D01*
X5482945Y10630154D01*
X5479491Y10634319D01*
X5474614Y10638332D01*
X5468264Y10642244D01*
X5460238Y10646105D01*
X5450332Y10649966D01*
X5438190Y10653826D01*
X5424678Y10657332D01*
X5424678Y10664190D01*
X5424982Y10671657D01*
X5425897Y10677753D01*
X5427472Y10682528D01*
X5429707Y10686237D01*
X5432653Y10688878D01*
X5436362Y10690606D01*
X5440781Y10691571D01*
X5446014Y10691876D01*
X5451957Y10691317D01*
X5458460Y10689844D01*
X5462778Y10674604D01*
X5464505Y10670133D01*
X5466943Y10666933D01*
X5470093Y10665053D01*
X5473954Y10664444D01*
X5478018Y10665002D01*
X5481015Y10666628D01*
X5482945Y10669270D01*
X5483860Y10672826D01*
X5481878Y10678871D01*
X5478780Y10684306D01*
X5474614Y10688980D01*
X5469534Y10692942D01*
X5463540Y10696041D01*
X5456732Y10698378D01*
X5449163Y10699800D01*
G37*
G36*
X5249926Y10700258D02*
G01*
X5244033Y10699902D01*
X5238445Y10698937D01*
X5233212Y10697311D01*
X5228386Y10695076D01*
X5224018Y10692231D01*
X5220055Y10688878D01*
X5216601Y10684916D01*
X5213705Y10680446D01*
X5211368Y10675518D01*
X5209692Y10670082D01*
X5208947Y10665968D01*
X5226304Y10665968D01*
X5226761Y10670997D01*
X5228132Y10675823D01*
X5230266Y10680192D01*
X5233212Y10684052D01*
X5236768Y10687304D01*
X5240985Y10689742D01*
X5245709Y10691317D01*
X5250942Y10691876D01*
X5256022Y10691317D01*
X5261000Y10689691D01*
X5265826Y10686846D01*
X5270246Y10682833D01*
X5274157Y10677601D01*
X5277358Y10671098D01*
X5279745Y10663224D01*
X5281168Y10654030D01*
X5238242Y10653522D01*
X5232298Y10654436D01*
X5228640Y10656976D01*
X5226812Y10660938D01*
X5226304Y10665968D01*
X5208947Y10665968D01*
X5208625Y10664190D01*
X5208270Y10657840D01*
X5208676Y10650829D01*
X5209133Y10647934D01*
X5209794Y10645394D01*
X5281422Y10645648D01*
X5281015Y10638586D01*
X5279999Y10632135D01*
X5278475Y10626293D01*
X5276443Y10621111D01*
X5273903Y10616488D01*
X5270855Y10612526D01*
X5267401Y10609122D01*
X5263540Y10606379D01*
X5259273Y10604195D01*
X5254650Y10602671D01*
X5249672Y10601756D01*
X5244338Y10601452D01*
X5234432Y10602620D01*
X5226253Y10605820D01*
X5219242Y10610900D01*
X5213096Y10617454D01*
X5208524Y10614406D01*
X5211876Y10608818D01*
X5215737Y10603788D01*
X5220208Y10599470D01*
X5225237Y10595813D01*
X5230774Y10592866D01*
X5236870Y10590784D01*
X5243525Y10589463D01*
X5250688Y10589006D01*
X5256174Y10589260D01*
X5261457Y10589920D01*
X5266436Y10591088D01*
X5271211Y10592663D01*
X5275630Y10594746D01*
X5279796Y10597184D01*
X5283606Y10600080D01*
X5287060Y10603382D01*
X5290210Y10607090D01*
X5292953Y10611205D01*
X5295341Y10615726D01*
X5297322Y10620603D01*
X5298897Y10625886D01*
X5300065Y10631525D01*
X5300726Y10637520D01*
X5300980Y10643870D01*
X5300726Y10650169D01*
X5299913Y10656112D01*
X5298643Y10661802D01*
X5296865Y10667136D01*
X5294680Y10672165D01*
X5292039Y10676788D01*
X5289092Y10681055D01*
X5285740Y10684916D01*
X5282082Y10688421D01*
X5278120Y10691469D01*
X5273903Y10694111D01*
X5269484Y10696244D01*
X5264810Y10697972D01*
X5259984Y10699242D01*
X5255006Y10700004D01*
G37*
G36*
X4877816Y10700258D02*
G01*
X4871974Y10699902D01*
X4866436Y10698937D01*
X4861255Y10697311D01*
X4856429Y10695076D01*
X4852009Y10692231D01*
X4848047Y10688878D01*
X4844592Y10684916D01*
X4841646Y10680446D01*
X4839309Y10675518D01*
X4837582Y10670082D01*
X4836837Y10665968D01*
X4854194Y10665968D01*
X4854651Y10670997D01*
X4856022Y10675823D01*
X4858156Y10680192D01*
X4861102Y10684052D01*
X4864658Y10687304D01*
X4868875Y10689742D01*
X4873599Y10691317D01*
X4878832Y10691876D01*
X4883962Y10691317D01*
X4889042Y10689691D01*
X4893818Y10686846D01*
X4898237Y10682833D01*
X4902098Y10677601D01*
X4905298Y10671098D01*
X4907686Y10663224D01*
X4909058Y10654030D01*
X4866132Y10653522D01*
X4860188Y10654436D01*
X4856530Y10656976D01*
X4854702Y10660938D01*
X4854194Y10665968D01*
X4836837Y10665968D01*
X4836515Y10664190D01*
X4836160Y10657840D01*
X4836515Y10650829D01*
X4837684Y10645394D01*
X4909312Y10645648D01*
X4908905Y10638586D01*
X4907889Y10632135D01*
X4906365Y10626293D01*
X4904333Y10621111D01*
X4901793Y10616488D01*
X4898745Y10612526D01*
X4895291Y10609122D01*
X4891430Y10606379D01*
X4887163Y10604195D01*
X4882540Y10602671D01*
X4877562Y10601756D01*
X4872228Y10601452D01*
X4862322Y10602620D01*
X4854143Y10605820D01*
X4847132Y10610900D01*
X4840986Y10617454D01*
X4836668Y10614406D01*
X4840020Y10608818D01*
X4843881Y10603788D01*
X4848352Y10599470D01*
X4853330Y10595813D01*
X4858867Y10592866D01*
X4864912Y10590784D01*
X4871516Y10589463D01*
X4878578Y10589006D01*
X4884064Y10589260D01*
X4889347Y10589920D01*
X4894326Y10591088D01*
X4899101Y10592663D01*
X4903520Y10594746D01*
X4907686Y10597184D01*
X4911496Y10600080D01*
X4914950Y10603382D01*
X4918100Y10607090D01*
X4920843Y10611205D01*
X4923231Y10615726D01*
X4925212Y10620603D01*
X4926787Y10625886D01*
X4927955Y10631525D01*
X4928616Y10637520D01*
X4928870Y10643870D01*
X4928616Y10650169D01*
X4927803Y10656112D01*
X4926533Y10661802D01*
X4924755Y10667136D01*
X4922570Y10672165D01*
X4919929Y10676788D01*
X4916982Y10681055D01*
X4913630Y10684916D01*
X4909972Y10688421D01*
X4906010Y10691469D01*
X4901793Y10694111D01*
X4897374Y10696244D01*
X4892700Y10697972D01*
X4887874Y10699242D01*
X4882896Y10700004D01*
G37*
G36*
X4285996Y10700258D02*
G01*
X4280865Y10699699D01*
X4276242Y10698073D01*
X4272483Y10695432D01*
X4269740Y10691876D01*
X4270451Y10685627D01*
X4272737Y10680801D01*
X4276699Y10677753D01*
X4282440Y10676636D01*
X4286250Y10677093D01*
X4289755Y10678363D01*
X4293057Y10680395D01*
X4298950Y10685526D01*
X4305198Y10679938D01*
X4310430Y10673283D01*
X4314698Y10665358D01*
X4318254Y10656062D01*
X4317746Y10601452D01*
X4299204Y10598658D01*
X4299204Y10591800D01*
X4353306Y10591800D01*
X4353306Y10598658D01*
X4337050Y10601198D01*
X4336796Y10658805D01*
X4336999Y10672876D01*
X4337304Y10679430D01*
X4355084Y10681208D01*
X4355084Y10687812D01*
X4323588Y10700004D01*
X4320540Y10697972D01*
X4318508Y10671302D01*
X4315510Y10677804D01*
X4312056Y10683544D01*
X4308195Y10688523D01*
X4304080Y10692638D01*
X4299712Y10695940D01*
X4295190Y10698327D01*
X4290568Y10699750D01*
G37*
G36*
X4210050Y10700258D02*
G01*
X4204208Y10699902D01*
X4198670Y10698937D01*
X4193489Y10697311D01*
X4188663Y10695076D01*
X4184243Y10692231D01*
X4180281Y10688878D01*
X4176826Y10684916D01*
X4173880Y10680446D01*
X4171543Y10675518D01*
X4169816Y10670082D01*
X4169071Y10665968D01*
X4186428Y10665968D01*
X4186885Y10670997D01*
X4188256Y10675823D01*
X4190390Y10680192D01*
X4193336Y10684052D01*
X4196892Y10687304D01*
X4201109Y10689742D01*
X4205833Y10691317D01*
X4211066Y10691876D01*
X4216196Y10691317D01*
X4221276Y10689691D01*
X4226102Y10686846D01*
X4230573Y10682833D01*
X4234434Y10677601D01*
X4237634Y10671098D01*
X4239971Y10663224D01*
X4241292Y10654030D01*
X4198620Y10653522D01*
X4192524Y10654436D01*
X4188815Y10656976D01*
X4186936Y10660938D01*
X4186428Y10665968D01*
X4169071Y10665968D01*
X4168749Y10664190D01*
X4168394Y10657840D01*
X4168901Y10650829D01*
X4170172Y10645394D01*
X4241546Y10645648D01*
X4241190Y10638586D01*
X4240225Y10632135D01*
X4238701Y10626293D01*
X4236669Y10621111D01*
X4234129Y10616488D01*
X4231132Y10612526D01*
X4227677Y10609122D01*
X4223816Y10606379D01*
X4219549Y10604195D01*
X4214926Y10602671D01*
X4209948Y10601756D01*
X4204716Y10601452D01*
X4194708Y10602620D01*
X4186478Y10605820D01*
X4179519Y10610900D01*
X4173220Y10617454D01*
X4168901Y10614406D01*
X4172254Y10608818D01*
X4176115Y10603788D01*
X4180586Y10599470D01*
X4185564Y10595813D01*
X4191101Y10592866D01*
X4197146Y10590784D01*
X4203750Y10589463D01*
X4210812Y10589006D01*
X4216298Y10589260D01*
X4221581Y10589920D01*
X4226560Y10591088D01*
X4231335Y10592663D01*
X4235754Y10594746D01*
X4239920Y10597184D01*
X4243730Y10600080D01*
X4247184Y10603382D01*
X4250334Y10607090D01*
X4253077Y10611205D01*
X4255465Y10615726D01*
X4257446Y10620603D01*
X4259021Y10625886D01*
X4260189Y10631525D01*
X4260850Y10637520D01*
X4261104Y10643870D01*
X4260850Y10650169D01*
X4260037Y10656112D01*
X4258767Y10661802D01*
X4256989Y10667136D01*
X4254804Y10672165D01*
X4252163Y10676788D01*
X4249216Y10681055D01*
X4245864Y10684916D01*
X4242206Y10688421D01*
X4238244Y10691469D01*
X4234027Y10694111D01*
X4229608Y10696244D01*
X4224934Y10697972D01*
X4220108Y10699242D01*
X4215130Y10700004D01*
G37*
G36*
X8338312Y10700004D02*
G01*
X8335264Y10697972D01*
X8335772Y10668508D01*
X8335721Y10629900D01*
X8335264Y10601198D01*
X8320024Y10598658D01*
X8320024Y10591800D01*
X8371331Y10591800D01*
X8371331Y10598658D01*
X8354059Y10601198D01*
X8353856Y10658703D01*
X8354314Y10679684D01*
X8372348Y10681462D01*
X8372348Y10688066D01*
G37*
G36*
X7660386Y10700004D02*
G01*
X7657338Y10697972D01*
X7657846Y10668508D01*
X7657795Y10629900D01*
X7657338Y10601198D01*
X7642098Y10598658D01*
X7642098Y10591800D01*
X7693406Y10591800D01*
X7693406Y10598658D01*
X7676388Y10601198D01*
X7675880Y10638536D01*
X7675930Y10658703D01*
X7676388Y10679684D01*
X7694675Y10681462D01*
X7694675Y10688066D01*
G37*
G36*
X7224522Y10700004D02*
G01*
X7221474Y10697972D01*
X7221981Y10668508D01*
X7221931Y10629900D01*
X7221474Y10601198D01*
X7206234Y10598658D01*
X7206234Y10591800D01*
X7257542Y10591800D01*
X7257542Y10598658D01*
X7240524Y10601198D01*
X7240016Y10638536D01*
X7240066Y10658703D01*
X7240524Y10679684D01*
X7258812Y10681462D01*
X7258812Y10688066D01*
G37*
G36*
X4590796Y10698988D02*
G01*
X4588764Y10696702D01*
X4589272Y10665206D01*
X4589272Y10600944D01*
X4574032Y10598404D01*
X4574032Y10591800D01*
X4605020Y10590022D01*
X4607052Y10610088D01*
X4611370Y10605160D01*
X4615942Y10600893D01*
X4620768Y10597286D01*
X4625695Y10594289D01*
X4630826Y10592003D01*
X4636058Y10590326D01*
X4641342Y10589361D01*
X4646676Y10589006D01*
X4653127Y10589514D01*
X4658868Y10591088D01*
X4663846Y10593882D01*
X4668012Y10597946D01*
X4671314Y10603382D01*
X4673752Y10610342D01*
X4675225Y10618876D01*
X4675632Y10629138D01*
X4675124Y10685780D01*
X4691126Y10689082D01*
X4691126Y10695686D01*
X4658360Y10698988D01*
X4656074Y10696702D01*
X4657090Y10665206D01*
X4657090Y10630154D01*
X4656785Y10623296D01*
X4655921Y10617606D01*
X4654448Y10613034D01*
X4652365Y10609376D01*
X4649774Y10606684D01*
X4646574Y10604855D01*
X4642866Y10603839D01*
X4638548Y10603484D01*
X4630572Y10604398D01*
X4622647Y10607090D01*
X4614976Y10611612D01*
X4607560Y10617962D01*
X4607052Y10685780D01*
X4622800Y10688828D01*
X4622800Y10695432D01*
G37*
G36*
X4387088Y10698988D02*
G01*
X4385056Y10696702D01*
X4385564Y10665206D01*
X4385564Y10600944D01*
X4370324Y10598404D01*
X4370324Y10591800D01*
X4401312Y10590022D01*
X4403344Y10610088D01*
X4407763Y10605160D01*
X4412386Y10600893D01*
X4417212Y10597286D01*
X4422190Y10594289D01*
X4427321Y10592003D01*
X4432503Y10590326D01*
X4437735Y10589361D01*
X4442968Y10589006D01*
X4449419Y10589514D01*
X4455160Y10591088D01*
X4460138Y10593882D01*
X4464304Y10597946D01*
X4467606Y10603382D01*
X4470044Y10610342D01*
X4471517Y10618876D01*
X4471924Y10629138D01*
X4471416Y10685780D01*
X4487418Y10689082D01*
X4487418Y10695686D01*
X4454652Y10698988D01*
X4452620Y10696702D01*
X4453636Y10665206D01*
X4453636Y10630154D01*
X4453331Y10623296D01*
X4452467Y10617606D01*
X4450994Y10613034D01*
X4448962Y10609376D01*
X4446320Y10606684D01*
X4443120Y10604855D01*
X4439412Y10603839D01*
X4435094Y10603484D01*
X4427016Y10604398D01*
X4419092Y10607090D01*
X4411370Y10611612D01*
X4403852Y10617962D01*
X4403344Y10685780D01*
X4419092Y10688828D01*
X4419092Y10695432D01*
G37*
G36*
X4130548Y10619232D02*
G01*
X4124655Y10618012D01*
X4119778Y10614710D01*
X4116527Y10609783D01*
X4115308Y10603738D01*
X4116527Y10598099D01*
X4119778Y10593425D01*
X4124655Y10590225D01*
X4130548Y10589006D01*
X4136440Y10590225D01*
X4141317Y10593425D01*
X4144568Y10598099D01*
X4145787Y10603738D01*
X4144568Y10609783D01*
X4141317Y10614710D01*
X4136440Y10618012D01*
G37*
G36*
X8788146Y10460990D02*
G01*
X8782608Y10460024D01*
X8778087Y10457281D01*
X8775039Y10453065D01*
X8773922Y10447528D01*
X8775039Y10441940D01*
X8778087Y10437520D01*
X8782608Y10434574D01*
X8788146Y10433558D01*
X8793835Y10434574D01*
X8798458Y10437469D01*
X8801506Y10441940D01*
X8802624Y10447528D01*
X8801506Y10453065D01*
X8798407Y10457281D01*
X8793835Y10460024D01*
G37*
G36*
X8817864Y10448544D02*
G01*
X8817864Y10441178D01*
X8837168Y10438384D01*
X8883904Y10298176D01*
X8893302Y10298176D01*
X8945372Y10439146D01*
X8962136Y10440924D01*
X8962136Y10448544D01*
X8901938Y10448544D01*
X8901938Y10440162D01*
X8923528Y10438384D01*
X8884666Y10326370D01*
X8848344Y10438130D01*
X8868918Y10440162D01*
X8868918Y10448544D01*
G37*
G36*
X8140192Y10448544D02*
G01*
X8140192Y10440924D01*
X8160766Y10438638D01*
X8161223Y10409326D01*
X8161172Y10331805D01*
X8160766Y10309606D01*
X8140192Y10307320D01*
X8140192Y10299700D01*
X8202422Y10299700D01*
X8202422Y10307320D01*
X8181848Y10309606D01*
X8181594Y10371582D01*
X8253984Y10371582D01*
X8253730Y10309606D01*
X8233156Y10307320D01*
X8233156Y10299700D01*
X8295640Y10299700D01*
X8295640Y10307320D01*
X8274812Y10309606D01*
X8274354Y10338968D01*
X8274354Y10401858D01*
X8274812Y10438638D01*
X8295640Y10440924D01*
X8295640Y10448544D01*
X8233156Y10448544D01*
X8233156Y10440924D01*
X8253730Y10438638D01*
X8253984Y10380472D01*
X8181594Y10380472D01*
X8181848Y10438638D01*
X8202422Y10440924D01*
X8202422Y10448544D01*
G37*
G36*
X8605774Y10435844D02*
G01*
X8607044Y10405110D01*
X8577072Y10405110D01*
X8577072Y10395458D01*
X8607298Y10395458D01*
X8607298Y10323576D01*
X8606434Y10316057D01*
X8603894Y10310926D01*
X8599779Y10307980D01*
X8594344Y10307066D01*
X8590686Y10307472D01*
X8587079Y10308640D01*
X8583320Y10310622D01*
X8579104Y10313416D01*
X8574786Y10308336D01*
X8579561Y10303560D01*
X8585504Y10299954D01*
X8592515Y10297668D01*
X8600440Y10296906D01*
X8606129Y10297312D01*
X8611158Y10298430D01*
X8615527Y10300411D01*
X8619134Y10303205D01*
X8622030Y10306812D01*
X8624112Y10311282D01*
X8625382Y10316616D01*
X8625840Y10322814D01*
X8625586Y10341356D01*
X8625586Y10395458D01*
X8644382Y10395458D01*
X8644382Y10403332D01*
X8624570Y10405872D01*
X8618728Y10435844D01*
G37*
G36*
X8693912Y10408158D02*
G01*
X8686749Y10407599D01*
X8679992Y10406024D01*
X8673846Y10403535D01*
X8668308Y10400131D01*
X8663533Y10395966D01*
X8659672Y10391140D01*
X8656777Y10385653D01*
X8655050Y10379710D01*
X8656320Y10376204D01*
X8658352Y10373664D01*
X8661146Y10372090D01*
X8664702Y10371582D01*
X8669375Y10372293D01*
X8672880Y10374426D01*
X8675217Y10377678D01*
X8676640Y10381996D01*
X8680704Y10397744D01*
X8687104Y10399217D01*
X8692896Y10399776D01*
X8697823Y10399420D01*
X8702497Y10398404D01*
X8706764Y10396728D01*
X8710726Y10394340D01*
X8714333Y10391394D01*
X8717534Y10387787D01*
X8720328Y10383570D01*
X8722614Y10378795D01*
X8724493Y10373410D01*
X8725814Y10367518D01*
X8726627Y10361015D01*
X8726932Y10354056D01*
X8726627Y10347198D01*
X8725662Y10340848D01*
X8724188Y10335056D01*
X8722106Y10329824D01*
X8719566Y10325150D01*
X8716518Y10321036D01*
X8713012Y10317530D01*
X8709152Y10314635D01*
X8704834Y10312349D01*
X8700262Y10310672D01*
X8695283Y10309707D01*
X8690102Y10309352D01*
X8685428Y10309656D01*
X8680907Y10310469D01*
X8676589Y10311841D01*
X8672525Y10313720D01*
X8668715Y10316108D01*
X8665159Y10319004D01*
X8661958Y10322356D01*
X8659114Y10326116D01*
X8654542Y10324084D01*
X8657386Y10317937D01*
X8660892Y10312552D01*
X8665057Y10307878D01*
X8669883Y10304018D01*
X8675420Y10300970D01*
X8681618Y10298734D01*
X8688476Y10297363D01*
X8695944Y10296906D01*
X8701430Y10297160D01*
X8706713Y10297871D01*
X8711692Y10299090D01*
X8716416Y10300766D01*
X8720836Y10302900D01*
X8724950Y10305440D01*
X8728760Y10308437D01*
X8732215Y10311790D01*
X8735314Y10315600D01*
X8738057Y10319715D01*
X8740394Y10324287D01*
X8742375Y10329164D01*
X8743950Y10334396D01*
X8745067Y10339933D01*
X8745728Y10345826D01*
X8745982Y10352024D01*
X8745677Y10358475D01*
X8744864Y10364571D01*
X8743492Y10370312D01*
X8741664Y10375696D01*
X8739378Y10380675D01*
X8736685Y10385298D01*
X8733586Y10389514D01*
X8730132Y10393324D01*
X8726373Y10396728D01*
X8722309Y10399725D01*
X8718042Y10402265D01*
X8713520Y10404348D01*
X8708796Y10406024D01*
X8703970Y10407192D01*
X8698992Y10407904D01*
G37*
G36*
X8512810Y10408158D02*
G01*
X8507984Y10407954D01*
X8503158Y10407243D01*
X8498433Y10406176D01*
X8493861Y10404602D01*
X8489442Y10402620D01*
X8485174Y10400182D01*
X8481161Y10397286D01*
X8477453Y10393984D01*
X8473998Y10390276D01*
X8470900Y10386060D01*
X8468207Y10381488D01*
X8465870Y10376458D01*
X8464042Y10370972D01*
X8462619Y10365079D01*
X8461806Y10358780D01*
X8461502Y10352024D01*
X8482076Y10352024D01*
X8482330Y10359491D01*
X8482990Y10366298D01*
X8484158Y10372547D01*
X8485733Y10378186D01*
X8487765Y10383164D01*
X8490204Y10387533D01*
X8493048Y10391241D01*
X8496249Y10394289D01*
X8499856Y10396677D01*
X8503818Y10398404D01*
X8508136Y10399420D01*
X8512810Y10399776D01*
X8517534Y10399420D01*
X8521852Y10398404D01*
X8525865Y10396677D01*
X8529472Y10394289D01*
X8532672Y10391241D01*
X8535517Y10387533D01*
X8537905Y10383164D01*
X8539937Y10378186D01*
X8541512Y10372547D01*
X8542629Y10366298D01*
X8543290Y10359491D01*
X8543544Y10352024D01*
X8543290Y10344708D01*
X8542629Y10338003D01*
X8541512Y10331856D01*
X8539937Y10326370D01*
X8537905Y10321493D01*
X8535517Y10317226D01*
X8532672Y10313619D01*
X8529472Y10310622D01*
X8525865Y10308285D01*
X8521852Y10306608D01*
X8517534Y10305643D01*
X8512810Y10305288D01*
X8508136Y10305643D01*
X8503818Y10306608D01*
X8499856Y10308285D01*
X8496249Y10310622D01*
X8493048Y10313619D01*
X8490204Y10317226D01*
X8487765Y10321493D01*
X8485733Y10326370D01*
X8484158Y10331856D01*
X8482990Y10338003D01*
X8482330Y10344708D01*
X8482076Y10352024D01*
X8461502Y10352024D01*
X8461806Y10345369D01*
X8462619Y10339171D01*
X8463991Y10333380D01*
X8465820Y10327995D01*
X8468156Y10323017D01*
X8470849Y10318496D01*
X8473897Y10314432D01*
X8477351Y10310723D01*
X8481060Y10307523D01*
X8485073Y10304678D01*
X8489340Y10302341D01*
X8493760Y10300360D01*
X8498382Y10298836D01*
X8503107Y10297769D01*
X8507933Y10297109D01*
X8512810Y10296906D01*
X8517686Y10297109D01*
X8522512Y10297769D01*
X8527237Y10298836D01*
X8531809Y10300360D01*
X8536228Y10302341D01*
X8540445Y10304678D01*
X8544458Y10307523D01*
X8548166Y10310723D01*
X8551570Y10314432D01*
X8554618Y10318496D01*
X8557310Y10323017D01*
X8559546Y10327995D01*
X8561374Y10333380D01*
X8562746Y10339171D01*
X8563559Y10345369D01*
X8563864Y10352024D01*
X8563559Y10358729D01*
X8562746Y10365028D01*
X8561374Y10370870D01*
X8559546Y10376357D01*
X8557260Y10381386D01*
X8554516Y10385958D01*
X8551468Y10390174D01*
X8548065Y10393883D01*
X8544356Y10397236D01*
X8540343Y10400131D01*
X8536127Y10402570D01*
X8531707Y10404551D01*
X8527135Y10406126D01*
X8522462Y10407243D01*
X8517636Y10407954D01*
G37*
G36*
X8374888Y10408158D02*
G01*
X8369909Y10407599D01*
X8365337Y10405973D01*
X8361578Y10403332D01*
X8358886Y10399776D01*
X8359597Y10393527D01*
X8361883Y10388701D01*
X8365845Y10385653D01*
X8371586Y10384536D01*
X8375396Y10384993D01*
X8378850Y10386263D01*
X8382101Y10388295D01*
X8388096Y10393426D01*
X8394344Y10387838D01*
X8399576Y10381183D01*
X8403844Y10373258D01*
X8407400Y10363962D01*
X8406892Y10309352D01*
X8388350Y10306558D01*
X8388350Y10299700D01*
X8442452Y10299700D01*
X8442452Y10306558D01*
X8426196Y10309098D01*
X8425688Y10346436D01*
X8425738Y10366705D01*
X8426094Y10380776D01*
X8426450Y10387330D01*
X8443976Y10389108D01*
X8443976Y10395712D01*
X8412734Y10407904D01*
X8409686Y10405872D01*
X8407400Y10379202D01*
X8404453Y10385704D01*
X8401050Y10391444D01*
X8397290Y10396423D01*
X8393125Y10400538D01*
X8388756Y10403840D01*
X8384235Y10406227D01*
X8379561Y10407650D01*
G37*
G36*
X7952994Y10408158D02*
G01*
X7944764Y10407650D01*
X7937296Y10406024D01*
X7930591Y10403332D01*
X7924800Y10399522D01*
X7899400Y10407904D01*
X7896352Y10405872D01*
X7896352Y10392664D01*
X7918703Y10393172D01*
X7916265Y10388701D01*
X7914436Y10383672D01*
X7913268Y10378033D01*
X7912895Y10372344D01*
X7930642Y10372344D01*
X7930997Y10378287D01*
X7932115Y10383723D01*
X7933944Y10388498D01*
X7936433Y10392613D01*
X7939633Y10395966D01*
X7943392Y10398455D01*
X7947761Y10399979D01*
X7952740Y10400538D01*
X7957820Y10399979D01*
X7962290Y10398404D01*
X7966202Y10395864D01*
X7969503Y10392460D01*
X7972094Y10388244D01*
X7974025Y10383266D01*
X7975193Y10377728D01*
X7975600Y10371582D01*
X7975244Y10365282D01*
X7974126Y10359644D01*
X7972298Y10354716D01*
X7969808Y10350550D01*
X7966608Y10347147D01*
X7962849Y10344708D01*
X7958480Y10343134D01*
X7953502Y10342626D01*
X7948371Y10343184D01*
X7943799Y10344861D01*
X7939887Y10347452D01*
X7936636Y10351008D01*
X7934045Y10355326D01*
X7932166Y10360406D01*
X7931048Y10366095D01*
X7930642Y10372344D01*
X7912895Y10372344D01*
X7913217Y10366197D01*
X7914233Y10361015D01*
X7915859Y10356240D01*
X7918145Y10351922D01*
X7920939Y10348061D01*
X7924241Y10344658D01*
X7928051Y10341762D01*
X7932318Y10339374D01*
X7936992Y10337495D01*
X7941970Y10336123D01*
X7947355Y10335260D01*
X7952994Y10335006D01*
X7957718Y10335209D01*
X7962239Y10335717D01*
X7966506Y10336631D01*
X7970520Y10337800D01*
X7973212Y10334142D01*
X7975092Y10330637D01*
X7976209Y10327132D01*
X7976616Y10323322D01*
X7975955Y10318902D01*
X7973669Y10315651D01*
X7969351Y10313619D01*
X7962392Y10312908D01*
X7932928Y10312908D01*
X7924393Y10312400D01*
X7917078Y10310977D01*
X7910982Y10308590D01*
X7906003Y10305389D01*
X7902194Y10301325D01*
X7899501Y10296499D01*
X7897875Y10290962D01*
X7897368Y10284714D01*
X7897774Y10279888D01*
X7898014Y10278872D01*
X7913624Y10278872D01*
X7914792Y10285831D01*
X7918551Y10291470D01*
X7925308Y10295280D01*
X7935468Y10296652D01*
X7964220Y10296702D01*
X7972044Y10297160D01*
X7976260Y10292283D01*
X7979105Y10287457D01*
X7980680Y10282428D01*
X7981188Y10276840D01*
X7980629Y10271709D01*
X7979105Y10267289D01*
X7976565Y10263632D01*
X7973161Y10260634D01*
X7968996Y10258348D01*
X7964017Y10256774D01*
X7958429Y10255808D01*
X7952231Y10255504D01*
X7943291Y10255961D01*
X7935468Y10257282D01*
X7928864Y10259415D01*
X7923428Y10262260D01*
X7919161Y10265664D01*
X7916062Y10269626D01*
X7914233Y10274096D01*
X7913624Y10278872D01*
X7898014Y10278872D01*
X7898892Y10275163D01*
X7900822Y10270591D01*
X7903464Y10266172D01*
X7906918Y10262057D01*
X7911084Y10258298D01*
X7916011Y10254945D01*
X7921752Y10251998D01*
X7928203Y10249662D01*
X7935468Y10247884D01*
X7943443Y10246766D01*
X7952231Y10246360D01*
X7959902Y10246614D01*
X7966862Y10247274D01*
X7973059Y10248392D01*
X7978546Y10249916D01*
X7983321Y10251795D01*
X7987436Y10254081D01*
X7990890Y10256672D01*
X7993634Y10259568D01*
X7995767Y10262768D01*
X7997291Y10266222D01*
X7998155Y10269880D01*
X7998459Y10273792D01*
X7997291Y10280700D01*
X7993583Y10286949D01*
X7986877Y10292842D01*
X7976870Y10298430D01*
X7982966Y10301071D01*
X7987538Y10304881D01*
X7990382Y10309758D01*
X7991348Y10315702D01*
X7990535Y10321086D01*
X7987944Y10326776D01*
X7983220Y10333075D01*
X7976108Y10340340D01*
X7979918Y10342778D01*
X7983270Y10345623D01*
X7986166Y10348925D01*
X7988604Y10352684D01*
X7990535Y10356850D01*
X7991957Y10361422D01*
X7992821Y10366400D01*
X7993125Y10371836D01*
X7992770Y10377424D01*
X7991754Y10382554D01*
X7990128Y10387279D01*
X7987893Y10391546D01*
X7985150Y10395305D01*
X7981797Y10398658D01*
X7978038Y10401503D01*
X7973771Y10403890D01*
X7969097Y10405719D01*
X7964068Y10407091D01*
X7958683Y10407904D01*
G37*
G36*
X7832344Y10408158D02*
G01*
X7827518Y10407954D01*
X7822692Y10407243D01*
X7817967Y10406176D01*
X7813395Y10404602D01*
X7808975Y10402620D01*
X7804708Y10400182D01*
X7800695Y10397286D01*
X7796987Y10393984D01*
X7793532Y10390276D01*
X7790434Y10386060D01*
X7787741Y10381488D01*
X7785404Y10376458D01*
X7783575Y10370972D01*
X7782153Y10365079D01*
X7781340Y10358780D01*
X7781036Y10352024D01*
X7801609Y10352024D01*
X7801864Y10359491D01*
X7802524Y10366298D01*
X7803692Y10372547D01*
X7805267Y10378186D01*
X7807299Y10383164D01*
X7809738Y10387533D01*
X7812582Y10391241D01*
X7815783Y10394289D01*
X7819390Y10396677D01*
X7823352Y10398404D01*
X7827670Y10399420D01*
X7832344Y10399776D01*
X7837017Y10399420D01*
X7841284Y10398404D01*
X7845247Y10396677D01*
X7848803Y10394289D01*
X7852003Y10391241D01*
X7854797Y10387533D01*
X7857236Y10383164D01*
X7859217Y10378186D01*
X7860792Y10372547D01*
X7861909Y10366298D01*
X7862570Y10359491D01*
X7862824Y10352024D01*
X7862570Y10344708D01*
X7861909Y10338003D01*
X7860792Y10331856D01*
X7859217Y10326370D01*
X7857236Y10321493D01*
X7854797Y10317226D01*
X7852003Y10313619D01*
X7848803Y10310622D01*
X7845247Y10308285D01*
X7841284Y10306608D01*
X7837017Y10305643D01*
X7832344Y10305288D01*
X7827670Y10305643D01*
X7823352Y10306608D01*
X7819390Y10308285D01*
X7815783Y10310622D01*
X7812582Y10313619D01*
X7809738Y10317226D01*
X7807299Y10321493D01*
X7805267Y10326370D01*
X7803692Y10331856D01*
X7802524Y10338003D01*
X7801864Y10344708D01*
X7801609Y10352024D01*
X7781036Y10352024D01*
X7781340Y10345369D01*
X7782153Y10339171D01*
X7783525Y10333380D01*
X7785353Y10327995D01*
X7787690Y10323017D01*
X7790383Y10318496D01*
X7793431Y10314432D01*
X7796885Y10310723D01*
X7800594Y10307523D01*
X7804607Y10304678D01*
X7808874Y10302341D01*
X7813294Y10300360D01*
X7817916Y10298836D01*
X7822641Y10297769D01*
X7827467Y10297109D01*
X7832344Y10296906D01*
X7837220Y10297109D01*
X7842046Y10297769D01*
X7846771Y10298836D01*
X7851343Y10300360D01*
X7855712Y10302341D01*
X7859928Y10304678D01*
X7863890Y10307523D01*
X7867548Y10310723D01*
X7870952Y10314432D01*
X7873949Y10318496D01*
X7876641Y10323017D01*
X7878876Y10327995D01*
X7880705Y10333380D01*
X7882026Y10339171D01*
X7882839Y10345369D01*
X7883144Y10352024D01*
X7882839Y10358729D01*
X7882026Y10365028D01*
X7880654Y10370870D01*
X7878825Y10376357D01*
X7876590Y10381386D01*
X7873898Y10385958D01*
X7870850Y10390174D01*
X7867446Y10393883D01*
X7863789Y10397236D01*
X7859826Y10400131D01*
X7855610Y10402570D01*
X7851190Y10404551D01*
X7846669Y10406126D01*
X7841945Y10407243D01*
X7837170Y10407954D01*
G37*
G36*
X8781288Y10407904D02*
G01*
X8778240Y10405872D01*
X8778748Y10376408D01*
X8778697Y10337800D01*
X8778240Y10309098D01*
X8763000Y10306558D01*
X8763000Y10299700D01*
X8814308Y10299700D01*
X8814308Y10306558D01*
X8797290Y10309098D01*
X8796782Y10346436D01*
X8796832Y10366603D01*
X8797544Y10387584D01*
X8815578Y10389362D01*
X8815578Y10395966D01*
G37*
G36*
X8029194Y10406888D02*
G01*
X8027162Y10404602D01*
X8027670Y10373106D01*
X8027670Y10308844D01*
X8012430Y10306304D01*
X8012430Y10299700D01*
X8043418Y10297922D01*
X8045450Y10317988D01*
X8049869Y10313060D01*
X8054492Y10308793D01*
X8059318Y10305186D01*
X8064296Y10302189D01*
X8069427Y10299903D01*
X8074609Y10298226D01*
X8079841Y10297261D01*
X8085074Y10296906D01*
X8091525Y10297414D01*
X8097266Y10298988D01*
X8102244Y10301782D01*
X8106409Y10305846D01*
X8109712Y10311282D01*
X8112150Y10318242D01*
X8113623Y10326776D01*
X8114030Y10337038D01*
X8113522Y10393680D01*
X8129524Y10396982D01*
X8129524Y10403586D01*
X8096758Y10406888D01*
X8094472Y10404602D01*
X8095488Y10373106D01*
X8095488Y10338054D01*
X8095183Y10331196D01*
X8094370Y10325506D01*
X8092897Y10320934D01*
X8090916Y10317276D01*
X8088325Y10314584D01*
X8085175Y10312755D01*
X8081467Y10311739D01*
X8077200Y10311384D01*
X8069122Y10312298D01*
X8061198Y10314990D01*
X8053476Y10319512D01*
X8045958Y10325862D01*
X8045450Y10393680D01*
X8061198Y10396728D01*
X8061198Y10403332D01*
G37*
G36*
X9026144Y10362184D02*
G01*
X9026144Y10348976D01*
X9122410Y10348976D01*
X9122410Y10362184D01*
G37*
D10*
X9867900Y5043746D02*
G01*
X9867900Y4849784D01*
X9867900Y5043746D02*
G01*
X9794008Y4849784D01*
X9720117Y5043746D02*
G01*
X9794008Y4849784D01*
X9720117Y5043746D02*
G01*
X9720117Y4849784D01*
X9548322Y4979093D02*
G01*
X9548322Y4849784D01*
X9548322Y4951384D02*
G01*
X9566795Y4969855D01*
X9585266Y4979093D01*
X9612975Y4979093D01*
X9631448Y4969855D01*
X9649922Y4951384D01*
X9659157Y4923675D01*
X9659157Y4905202D01*
X9649922Y4877493D01*
X9631448Y4859020D01*
X9612975Y4849784D01*
X9585266Y4849784D01*
X9566795Y4859020D01*
X9548322Y4877493D01*
X9376524Y5043746D02*
G01*
X9376524Y4849784D01*
X9376524Y4951384D02*
G01*
X9394997Y4969855D01*
X9413471Y4979093D01*
X9441179Y4979093D01*
X9459653Y4969855D01*
X9478124Y4951384D01*
X9487362Y4923675D01*
X9487362Y4905202D01*
X9478124Y4877493D01*
X9459653Y4859020D01*
X9441179Y4849784D01*
X9413471Y4849784D01*
X9394997Y4859020D01*
X9376524Y4877493D01*
X9315564Y4923675D02*
G01*
X9204728Y4923675D01*
X9204728Y4942146D01*
X9213964Y4960620D01*
X9223202Y4969855D01*
X9241675Y4979093D01*
X9269384Y4979093D01*
X9287855Y4969855D01*
X9306328Y4951384D01*
X9315564Y4923675D01*
X9315564Y4905202D01*
X9306328Y4877493D01*
X9287855Y4859020D01*
X9269384Y4849784D01*
X9241675Y4849784D01*
X9223202Y4859020D01*
X9204728Y4877493D01*
X9001528Y5043746D02*
G01*
X9001528Y4849784D01*
X9001528Y4951384D02*
G01*
X8983055Y4969855D01*
X8964584Y4979093D01*
X8936875Y4979093D01*
X8918402Y4969855D01*
X8899928Y4951384D01*
X8890693Y4923675D01*
X8890693Y4905202D01*
X8899928Y4877493D01*
X8918402Y4859020D01*
X8936875Y4849784D01*
X8964584Y4849784D01*
X8983055Y4859020D01*
X9001528Y4877493D01*
X8820495Y4979093D02*
G01*
X8765077Y4849784D01*
X8709659Y4979093D02*
G01*
X8765077Y4849784D01*
X8783551Y4812837D01*
X8802024Y4794364D01*
X8820495Y4785128D01*
X8829733Y4785128D01*
X8432568Y5043746D02*
G01*
X8506459Y4849784D01*
X8432568Y5043746D02*
G01*
X8358677Y4849784D01*
X8478751Y4914437D02*
G01*
X8386386Y4914437D01*
X8297717Y4979093D02*
G01*
X8242300Y4849784D01*
X8186882Y4979093D02*
G01*
X8242300Y4849784D01*
X8116684Y4979093D02*
G01*
X8061266Y4849784D01*
X8005848Y4979093D02*
G01*
X8061266Y4849784D01*
X8079740Y4812837D01*
X8098213Y4794364D01*
X8116684Y4785128D01*
X8125922Y4785128D01*
X7834053Y4979093D02*
G01*
X7834053Y4849784D01*
X7834053Y4951384D02*
G01*
X7852524Y4969855D01*
X7870997Y4979093D01*
X7898706Y4979093D01*
X7917179Y4969855D01*
X7935653Y4951384D01*
X7944888Y4923675D01*
X7944888Y4905202D01*
X7935653Y4877493D01*
X7917179Y4859020D01*
X7898706Y4849784D01*
X7870997Y4849784D01*
X7852524Y4859020D01*
X7834053Y4877493D01*
X7773093Y4979093D02*
G01*
X7773093Y4849784D01*
X7773093Y4942146D02*
G01*
X7745384Y4969855D01*
X7726911Y4979093D01*
X7699202Y4979093D01*
X7680728Y4969855D01*
X7671493Y4942146D01*
X7671493Y4849784D01*
X7468293Y5043746D02*
G01*
X7468293Y4849784D01*
X7468293Y5043746D02*
G01*
X7394402Y4849784D01*
X7320511Y5043746D02*
G01*
X7394402Y4849784D01*
X7320511Y5043746D02*
G01*
X7320511Y4849784D01*
X7259551Y4923675D02*
G01*
X7148715Y4923675D01*
X7148715Y4942146D01*
X7157951Y4960620D01*
X7167186Y4969855D01*
X7185659Y4979093D01*
X7213368Y4979093D01*
X7231842Y4969855D01*
X7250315Y4951384D01*
X7259551Y4923675D01*
X7259551Y4905202D01*
X7250315Y4877493D01*
X7231842Y4859020D01*
X7213368Y4849784D01*
X7185659Y4849784D01*
X7167186Y4859020D01*
X7148715Y4877493D01*
X7087755Y5043746D02*
G01*
X7087755Y4849784D01*
X7087755Y4942146D02*
G01*
X7060044Y4969855D01*
X7041573Y4979093D01*
X7013864Y4979093D01*
X6995391Y4969855D01*
X6986155Y4942146D01*
X6986155Y4849784D01*
X6925195Y4979093D02*
G01*
X6925195Y4849784D01*
X6925195Y4923675D02*
G01*
X6915957Y4951384D01*
X6897484Y4969855D01*
X6879013Y4979093D01*
X6851304Y4979093D01*
X6679506Y4979093D02*
G01*
X6679506Y4849784D01*
X6679506Y4951384D02*
G01*
X6697979Y4969855D01*
X6716453Y4979093D01*
X6744162Y4979093D01*
X6762635Y4969855D01*
X6781106Y4951384D01*
X6790344Y4923675D01*
X6790344Y4905202D01*
X6781106Y4877493D01*
X6762635Y4859020D01*
X6744162Y4849784D01*
X6716453Y4849784D01*
X6697979Y4859020D01*
X6679506Y4877493D01*
X9836726Y4688146D02*
G01*
X9735126Y4688146D01*
X9790544Y4614255D01*
X9762835Y4614255D01*
X9744364Y4605020D01*
X9735126Y4595784D01*
X9725891Y4568075D01*
X9725891Y4549602D01*
X9735126Y4521893D01*
X9753600Y4503420D01*
X9781308Y4494184D01*
X9809017Y4494184D01*
X9836726Y4503420D01*
X9845964Y4512655D01*
X9855200Y4531128D01*
X9467273Y4688146D02*
G01*
X9485744Y4678911D01*
X9504217Y4660437D01*
X9513455Y4641964D01*
X9522691Y4614255D01*
X9522691Y4568075D01*
X9513455Y4540364D01*
X9504217Y4521893D01*
X9485744Y4503420D01*
X9467273Y4494184D01*
X9430326Y4494184D01*
X9411855Y4503420D01*
X9393382Y4521893D01*
X9384144Y4540364D01*
X9374908Y4568075D01*
X9374908Y4614255D01*
X9384144Y4641964D01*
X9393382Y4660437D01*
X9411855Y4678911D01*
X9430326Y4688146D01*
X9467273Y4688146D01*
X9203113Y4595784D02*
G01*
X9221584Y4614255D01*
X9240057Y4623493D01*
X9267766Y4623493D01*
X9286240Y4614255D01*
X9304713Y4595784D01*
X9313948Y4568075D01*
X9313948Y4549602D01*
X9304713Y4521893D01*
X9286240Y4503420D01*
X9267766Y4494184D01*
X9240057Y4494184D01*
X9221584Y4503420D01*
X9203113Y4521893D01*
X9114444Y4688146D02*
G01*
X9114444Y4531128D01*
X9105206Y4503420D01*
X9086735Y4494184D01*
X9068262Y4494184D01*
X9142153Y4623493D02*
G01*
X9077497Y4623493D01*
X8961120Y4623493D02*
G01*
X8979593Y4614255D01*
X8998064Y4595784D01*
X9007302Y4568075D01*
X9007302Y4549602D01*
X8998064Y4521893D01*
X8979593Y4503420D01*
X8961120Y4494184D01*
X8933411Y4494184D01*
X8914937Y4503420D01*
X8896464Y4521893D01*
X8887228Y4549602D01*
X8887228Y4568075D01*
X8896464Y4595784D01*
X8914937Y4614255D01*
X8933411Y4623493D01*
X8961120Y4623493D01*
X8826268Y4688146D02*
G01*
X8826268Y4494184D01*
X8826268Y4595784D02*
G01*
X8807795Y4614255D01*
X8789324Y4623493D01*
X8761615Y4623493D01*
X8743142Y4614255D01*
X8724668Y4595784D01*
X8715433Y4568075D01*
X8715433Y4549602D01*
X8724668Y4521893D01*
X8743142Y4503420D01*
X8761615Y4494184D01*
X8789324Y4494184D01*
X8807795Y4503420D01*
X8826268Y4521893D01*
X8654473Y4568075D02*
G01*
X8543635Y4568075D01*
X8543635Y4586546D01*
X8552873Y4605020D01*
X8562108Y4614255D01*
X8580582Y4623493D01*
X8608291Y4623493D01*
X8626764Y4614255D01*
X8645235Y4595784D01*
X8654473Y4568075D01*
X8654473Y4549602D01*
X8645235Y4521893D01*
X8626764Y4503420D01*
X8608291Y4494184D01*
X8580582Y4494184D01*
X8562108Y4503420D01*
X8543635Y4521893D01*
X8482675Y4623493D02*
G01*
X8482675Y4494184D01*
X8482675Y4568075D02*
G01*
X8473440Y4595784D01*
X8454966Y4614255D01*
X8436495Y4623493D01*
X8408784Y4623493D01*
X8196348Y4641964D02*
G01*
X8196348Y4651202D01*
X8187113Y4669675D01*
X8177875Y4678911D01*
X8159404Y4688146D01*
X8122457Y4688146D01*
X8103984Y4678911D01*
X8094748Y4669675D01*
X8085513Y4651202D01*
X8085513Y4632728D01*
X8094748Y4614255D01*
X8113222Y4586546D01*
X8205584Y4494184D01*
X8076275Y4494184D01*
X7959897Y4688146D02*
G01*
X7987606Y4678911D01*
X8006079Y4651202D01*
X8015315Y4605020D01*
X8015315Y4577311D01*
X8006079Y4531128D01*
X7987606Y4503420D01*
X7959897Y4494184D01*
X7941424Y4494184D01*
X7913715Y4503420D01*
X7895244Y4531128D01*
X7886006Y4577311D01*
X7886006Y4605020D01*
X7895244Y4651202D01*
X7913715Y4678911D01*
X7941424Y4688146D01*
X7959897Y4688146D01*
X7815811Y4641964D02*
G01*
X7815811Y4651202D01*
X7806575Y4669675D01*
X7797337Y4678911D01*
X7778864Y4688146D01*
X7741920Y4688146D01*
X7723446Y4678911D01*
X7714211Y4669675D01*
X7704975Y4651202D01*
X7704975Y4632728D01*
X7714211Y4614255D01*
X7732684Y4586546D01*
X7825046Y4494184D01*
X7695737Y4494184D01*
X7542415Y4688146D02*
G01*
X7634777Y4558837D01*
X7496233Y4558837D01*
X7542415Y4688146D02*
G01*
X7542415Y4494184D01*
D11*
X2324100Y4306315D02*
G01*
X2324100Y4228337D01*
X2319020Y4212844D01*
X2308606Y4202429D01*
X2292858Y4197350D01*
X2282443Y4197350D01*
X2266950Y4202429D01*
X2256536Y4212844D01*
X2251456Y4228337D01*
X2251456Y4306315D01*
X2211831Y4280407D02*
G01*
X2211831Y4285487D01*
X2206752Y4295902D01*
X2201418Y4301236D01*
X2191004Y4306315D01*
X2170429Y4306315D01*
X2160015Y4301236D01*
X2154681Y4295902D01*
X2149602Y4285487D01*
X2149602Y4275073D01*
X2154681Y4264660D01*
X2165095Y4249165D01*
X2217165Y4197350D01*
X2144268Y4197350D01*
X2078990Y4306315D02*
G01*
X2094484Y4301236D01*
X2104897Y4285487D01*
X2109977Y4259579D01*
X2109977Y4244086D01*
X2104897Y4217923D01*
X2094484Y4202429D01*
X2078990Y4197350D01*
X2068575Y4197350D01*
X2052827Y4202429D01*
X2042413Y4217923D01*
X2037334Y4244086D01*
X2037334Y4259579D01*
X2042413Y4285487D01*
X2052827Y4301236D01*
X2068575Y4306315D01*
X2078990Y4306315D01*
X6070600Y4128515D02*
G01*
X6070600Y4050537D01*
X6065520Y4035044D01*
X6055106Y4024629D01*
X6039358Y4019550D01*
X6028943Y4019550D01*
X6013450Y4024629D01*
X6003036Y4035044D01*
X5997956Y4050537D01*
X5997956Y4128515D01*
X5958331Y4102607D02*
G01*
X5958331Y4107687D01*
X5953252Y4118102D01*
X5947918Y4123436D01*
X5937504Y4128515D01*
X5916929Y4128515D01*
X5906515Y4123436D01*
X5901181Y4118102D01*
X5896102Y4107687D01*
X5896102Y4097273D01*
X5901181Y4086860D01*
X5911595Y4071365D01*
X5963665Y4019550D01*
X5890768Y4019550D01*
X5856477Y4107687D02*
G01*
X5846063Y4113021D01*
X5830570Y4128515D01*
X5830570Y4019550D01*
X8026400Y4103115D02*
G01*
X8026400Y4025137D01*
X8021320Y4009644D01*
X8010906Y3999229D01*
X7995158Y3994150D01*
X7984743Y3994150D01*
X7969250Y3999229D01*
X7958836Y4009644D01*
X7953756Y4025137D01*
X7953756Y4103115D01*
X7914131Y4077207D02*
G01*
X7914131Y4082287D01*
X7909052Y4092702D01*
X7903718Y4098036D01*
X7893304Y4103115D01*
X7872729Y4103115D01*
X7862315Y4098036D01*
X7856981Y4092702D01*
X7851902Y4082287D01*
X7851902Y4071873D01*
X7856981Y4061460D01*
X7867395Y4045965D01*
X7919465Y3994150D01*
X7846568Y3994150D01*
X7807197Y4077207D02*
G01*
X7807197Y4082287D01*
X7801863Y4092702D01*
X7796784Y4098036D01*
X7786370Y4103115D01*
X7765541Y4103115D01*
X7755127Y4098036D01*
X7750047Y4092702D01*
X7744713Y4082287D01*
X7744713Y4071873D01*
X7750047Y4061460D01*
X7760461Y4045965D01*
X7812277Y3994150D01*
X7739634Y3994150D01*
X9639300Y5322315D02*
G01*
X9639300Y5244337D01*
X9634220Y5228844D01*
X9623806Y5218429D01*
X9608058Y5213350D01*
X9597643Y5213350D01*
X9582150Y5218429D01*
X9571736Y5228844D01*
X9566656Y5244337D01*
X9566656Y5322315D01*
X9527031Y5296407D02*
G01*
X9527031Y5301487D01*
X9521952Y5311902D01*
X9516618Y5317236D01*
X9506204Y5322315D01*
X9485629Y5322315D01*
X9475215Y5317236D01*
X9469881Y5311902D01*
X9464802Y5301487D01*
X9464802Y5291073D01*
X9469881Y5280660D01*
X9480295Y5265165D01*
X9532365Y5213350D01*
X9459468Y5213350D01*
X9414763Y5322315D02*
G01*
X9357613Y5322315D01*
X9388856Y5280660D01*
X9373361Y5280660D01*
X9362947Y5275579D01*
X9357613Y5270500D01*
X9352534Y5254752D01*
X9352534Y5244337D01*
X9357613Y5228844D01*
X9368027Y5218429D01*
X9383775Y5213350D01*
X9399270Y5213350D01*
X9414763Y5218429D01*
X9420097Y5223510D01*
X9425177Y5233923D01*
X9626600Y7176515D02*
G01*
X9626600Y7098537D01*
X9621520Y7083044D01*
X9611106Y7072629D01*
X9595358Y7067550D01*
X9584943Y7067550D01*
X9569450Y7072629D01*
X9559036Y7083044D01*
X9553956Y7098537D01*
X9553956Y7176515D01*
X9514331Y7150608D02*
G01*
X9514331Y7155687D01*
X9509252Y7166102D01*
X9503918Y7171436D01*
X9493504Y7176515D01*
X9472929Y7176515D01*
X9462515Y7171436D01*
X9457181Y7166102D01*
X9452102Y7155687D01*
X9452102Y7145273D01*
X9457181Y7134860D01*
X9467595Y7119365D01*
X9519665Y7067550D01*
X9446768Y7067550D01*
X9360661Y7176515D02*
G01*
X9412477Y7103871D01*
X9334500Y7103871D01*
X9360661Y7176515D02*
G01*
X9360661Y7067550D01*
X9639300Y9119615D02*
G01*
X9639300Y9041637D01*
X9634220Y9026144D01*
X9623806Y9015729D01*
X9608058Y9010650D01*
X9597643Y9010650D01*
X9582150Y9015729D01*
X9571736Y9026144D01*
X9566656Y9041637D01*
X9566656Y9119615D01*
X9527031Y9093708D02*
G01*
X9527031Y9098787D01*
X9521952Y9109202D01*
X9516618Y9114536D01*
X9506204Y9119615D01*
X9485629Y9119615D01*
X9475215Y9114536D01*
X9469881Y9109202D01*
X9464802Y9098787D01*
X9464802Y9088374D01*
X9469881Y9077960D01*
X9480295Y9062465D01*
X9532365Y9010650D01*
X9459468Y9010650D01*
X9352534Y9119615D02*
G01*
X9404350Y9010650D01*
X9425177Y9119615D02*
G01*
X9352534Y9119615D01*
X9690100Y11037315D02*
G01*
X9690100Y10959337D01*
X9685020Y10943844D01*
X9674606Y10933429D01*
X9658858Y10928350D01*
X9648443Y10928350D01*
X9632950Y10933429D01*
X9622536Y10943844D01*
X9617456Y10959337D01*
X9617456Y11037315D01*
X9577831Y11011408D02*
G01*
X9577831Y11016487D01*
X9572752Y11026902D01*
X9567418Y11032236D01*
X9557004Y11037315D01*
X9536429Y11037315D01*
X9526015Y11032236D01*
X9520681Y11026902D01*
X9515602Y11016487D01*
X9515602Y11006074D01*
X9520681Y10995660D01*
X9531095Y10980165D01*
X9583165Y10928350D01*
X9510268Y10928350D01*
X9450070Y11037315D02*
G01*
X9465563Y11032236D01*
X9470897Y11021821D01*
X9470897Y11011408D01*
X9465563Y11000994D01*
X9455150Y10995660D01*
X9434575Y10990579D01*
X9418827Y10985500D01*
X9408413Y10975086D01*
X9403334Y10964671D01*
X9403334Y10948924D01*
X9408413Y10938510D01*
X9413747Y10933429D01*
X9429241Y10928350D01*
X9450070Y10928350D01*
X9465563Y10933429D01*
X9470897Y10938510D01*
X9475977Y10948924D01*
X9475977Y10964671D01*
X9470897Y10975086D01*
X9460484Y10985500D01*
X9444990Y10990579D01*
X9424161Y10995660D01*
X9413747Y11000994D01*
X9408413Y11011408D01*
X9408413Y11021821D01*
X9413747Y11032236D01*
X9429241Y11037315D01*
X9450070Y11037315D01*
X8051800Y12853415D02*
G01*
X8051800Y12775437D01*
X8046720Y12759944D01*
X8036306Y12749529D01*
X8020558Y12744450D01*
X8010143Y12744450D01*
X7994650Y12749529D01*
X7984236Y12759944D01*
X7979156Y12775437D01*
X7979156Y12853415D01*
X7939531Y12827508D02*
G01*
X7939531Y12832587D01*
X7934452Y12843002D01*
X7929118Y12848336D01*
X7918704Y12853415D01*
X7898129Y12853415D01*
X7887715Y12848336D01*
X7882381Y12843002D01*
X7877302Y12832587D01*
X7877302Y12822174D01*
X7882381Y12811760D01*
X7892795Y12796265D01*
X7944865Y12744450D01*
X7871968Y12744450D01*
X7770113Y12817094D02*
G01*
X7775447Y12801600D01*
X7785861Y12791186D01*
X7801356Y12785852D01*
X7806690Y12785852D01*
X7822184Y12791186D01*
X7832597Y12801600D01*
X7837677Y12817094D01*
X7837677Y12822174D01*
X7832597Y12837921D01*
X7822184Y12848336D01*
X7806690Y12853415D01*
X7801356Y12853415D01*
X7785861Y12848336D01*
X7775447Y12837921D01*
X7770113Y12817094D01*
X7770113Y12791186D01*
X7775447Y12765024D01*
X7785861Y12749529D01*
X7801356Y12744450D01*
X7811770Y12744450D01*
X7827263Y12749529D01*
X7832597Y12759944D01*
X4051300Y3021584D02*
G01*
X4051300Y3099562D01*
X4056379Y3115055D01*
X4066793Y3125470D01*
X4082541Y3130550D01*
X4092956Y3130550D01*
X4108450Y3125470D01*
X4118863Y3115055D01*
X4123943Y3099562D01*
X4123943Y3021584D01*
X4168647Y3021584D02*
G01*
X4225797Y3021584D01*
X4194809Y3063239D01*
X4210304Y3063239D01*
X4220718Y3068320D01*
X4225797Y3073400D01*
X4231131Y3089147D01*
X4231131Y3099562D01*
X4225797Y3115055D01*
X4215384Y3125470D01*
X4199890Y3130550D01*
X4184395Y3130550D01*
X4168647Y3125470D01*
X4163568Y3120389D01*
X4158234Y3109976D01*
X4296409Y3021584D02*
G01*
X4280915Y3026663D01*
X4270502Y3042412D01*
X4265422Y3068320D01*
X4265422Y3083813D01*
X4270502Y3109976D01*
X4280915Y3125470D01*
X4296409Y3130550D01*
X4306824Y3130550D01*
X4322572Y3125470D01*
X4332986Y3109976D01*
X4338065Y3083813D01*
X4338065Y3068320D01*
X4332986Y3042412D01*
X4322572Y3026663D01*
X4306824Y3021584D01*
X4296409Y3021584D01*
X1295400Y4395215D02*
G01*
X1295400Y4317237D01*
X1290320Y4301744D01*
X1279905Y4291329D01*
X1264157Y4286250D01*
X1253744Y4286250D01*
X1238250Y4291329D01*
X1227836Y4301744D01*
X1222755Y4317237D01*
X1222755Y4395215D01*
X1178052Y4395215D02*
G01*
X1120902Y4395215D01*
X1151889Y4353560D01*
X1136395Y4353560D01*
X1125981Y4348479D01*
X1120902Y4343400D01*
X1115568Y4327652D01*
X1115568Y4317237D01*
X1120902Y4301744D01*
X1131315Y4291329D01*
X1146810Y4286250D01*
X1162304Y4286250D01*
X1178052Y4291329D01*
X1183131Y4296410D01*
X1188465Y4306823D01*
X1081278Y4374387D02*
G01*
X1070863Y4379721D01*
X1055370Y4395215D01*
X1055370Y4286250D01*
X976884Y7404100D02*
G01*
X1054862Y7404100D01*
X1070355Y7399020D01*
X1080770Y7388605D01*
X1085850Y7372858D01*
X1085850Y7362444D01*
X1080770Y7346950D01*
X1070355Y7336536D01*
X1054862Y7331455D01*
X976884Y7331455D01*
X976884Y7286752D02*
G01*
X976884Y7229602D01*
X1018539Y7260589D01*
X1018539Y7245095D01*
X1023620Y7234681D01*
X1028700Y7229602D01*
X1044447Y7224268D01*
X1054862Y7224268D01*
X1070355Y7229602D01*
X1080770Y7240015D01*
X1085850Y7255510D01*
X1085850Y7271004D01*
X1080770Y7286752D01*
X1075689Y7291831D01*
X1065276Y7297165D01*
X976884Y7127747D02*
G01*
X976884Y7179563D01*
X1023620Y7184897D01*
X1018539Y7179563D01*
X1013205Y7164070D01*
X1013205Y7148576D01*
X1018539Y7132828D01*
X1028700Y7122413D01*
X1044447Y7117334D01*
X1054862Y7117334D01*
X1070355Y7122413D01*
X1080770Y7132828D01*
X1085850Y7148576D01*
X1085850Y7164070D01*
X1080770Y7179563D01*
X1075689Y7184897D01*
X1065276Y7189978D01*
X1701800Y12383515D02*
G01*
X1701800Y12305537D01*
X1696720Y12290044D01*
X1686305Y12279629D01*
X1670557Y12274550D01*
X1660144Y12274550D01*
X1644650Y12279629D01*
X1634236Y12290044D01*
X1629155Y12305537D01*
X1629155Y12383515D01*
X1584452Y12383515D02*
G01*
X1527302Y12383515D01*
X1558289Y12341860D01*
X1542795Y12341860D01*
X1532381Y12336779D01*
X1527302Y12331700D01*
X1521968Y12315952D01*
X1521968Y12305537D01*
X1527302Y12290044D01*
X1537715Y12279629D01*
X1553210Y12274550D01*
X1568704Y12274550D01*
X1584452Y12279629D01*
X1589531Y12284710D01*
X1594865Y12295124D01*
X1425447Y12368021D02*
G01*
X1430528Y12378436D01*
X1446276Y12383515D01*
X1456689Y12383515D01*
X1472184Y12378436D01*
X1482597Y12362687D01*
X1487678Y12336779D01*
X1487678Y12310871D01*
X1482597Y12290044D01*
X1472184Y12279629D01*
X1456689Y12274550D01*
X1451355Y12274550D01*
X1435862Y12279629D01*
X1425447Y12290044D01*
X1420113Y12305537D01*
X1420113Y12310871D01*
X1425447Y12326365D01*
X1435862Y12336779D01*
X1451355Y12341860D01*
X1456689Y12341860D01*
X1472184Y12336779D01*
X1482597Y12326365D01*
X1487678Y12310871D01*
X6096000Y12853415D02*
G01*
X6096000Y12775437D01*
X6090920Y12759944D01*
X6080506Y12749529D01*
X6064758Y12744450D01*
X6054343Y12744450D01*
X6038850Y12749529D01*
X6028436Y12759944D01*
X6023356Y12775437D01*
X6023356Y12853415D01*
X5978652Y12853415D02*
G01*
X5921502Y12853415D01*
X5952490Y12811760D01*
X5936995Y12811760D01*
X5926581Y12806679D01*
X5921502Y12801600D01*
X5916168Y12785852D01*
X5916168Y12775437D01*
X5921502Y12759944D01*
X5931915Y12749529D01*
X5947409Y12744450D01*
X5962904Y12744450D01*
X5978652Y12749529D01*
X5983731Y12754610D01*
X5989065Y12765024D01*
X5809234Y12853415D02*
G01*
X5861050Y12744450D01*
X5881877Y12853415D02*
G01*
X5809234Y12853415D01*
D12*
X2551887Y3923487D02*
G01*
X2051888Y3923487D01*
X2051888Y3423488D01*
X2551887Y3423488D01*
X2551887Y3923487D01*
X6298387Y3745687D02*
G01*
X5798388Y3745687D01*
X5798388Y3245688D01*
X6298387Y3245688D01*
X6298387Y3745687D01*
X8254187Y3720287D02*
G01*
X7754188Y3720287D01*
X7754188Y3220288D01*
X8254187Y3220288D01*
X8254187Y3720287D01*
X9867087Y4939487D02*
G01*
X9367088Y4939487D01*
X9367088Y4439488D01*
X9867087Y4439488D01*
X9867087Y4939487D01*
X9854387Y6793687D02*
G01*
X9354388Y6793687D01*
X9354388Y6293688D01*
X9854387Y6293688D01*
X9854387Y6793687D01*
X9867087Y8736787D02*
G01*
X9367088Y8736787D01*
X9367088Y8236788D01*
X9867087Y8236788D01*
X9867087Y8736787D01*
X9917887Y10654487D02*
G01*
X9417888Y10654487D01*
X9417888Y10154488D01*
X9917887Y10154488D01*
X9917887Y10654487D01*
X8279587Y12470587D02*
G01*
X7779588Y12470587D01*
X7779588Y11970588D01*
X8279587Y11970588D01*
X8279587Y12470587D01*
X3823512Y3404412D02*
G01*
X4323511Y3404412D01*
X4323511Y3904411D01*
X3823512Y3904411D01*
X3823512Y3404412D01*
X1523187Y4012387D02*
G01*
X1023188Y4012387D01*
X1023188Y3512388D01*
X1523187Y3512388D01*
X1523187Y4012387D01*
X1359712Y7631887D02*
G01*
X1359712Y7131888D01*
X1859711Y7131888D01*
X1859711Y7631887D01*
X1359712Y7631887D01*
X1929587Y12000687D02*
G01*
X1429588Y12000687D01*
X1429588Y11500688D01*
X1929587Y11500688D01*
X1929587Y12000687D01*
X6323787Y12470587D02*
G01*
X5823788Y12470587D01*
X5823788Y11970588D01*
X6323787Y11970588D01*
X6323787Y12470587D01*
D13*
X800100Y12674600D02*
G01*
X1054100Y12674600D01*
X1054100Y10896600D01*
X800100Y10896600D01*
X800100Y12674600D01*
X2578100Y10896600D02*
G01*
X2324100Y10896600D01*
X2324100Y12674600D01*
X2578100Y12674600D01*
X2578100Y10896600D01*
D12*
X3505207Y5129390D02*
G01*
X3251207Y5129390D01*
X2753212Y4586391D02*
G01*
X2753212Y5041386D01*
X4003220Y4586391D02*
G01*
X4003220Y5041386D01*
X2753212Y5471393D02*
G01*
X2753212Y5926399D01*
X4003220Y5471393D02*
G01*
X4003220Y5926399D01*
X3748232Y5926399D02*
G01*
X4003243Y5926399D01*
X3718229Y4586391D02*
G01*
X4003215Y4586391D01*
X3470208Y4586391D02*
G01*
X3540201Y4586391D01*
X3218202Y4586391D02*
G01*
X3288205Y4586391D01*
X2753212Y4586391D02*
G01*
X3038208Y4586391D01*
X3250712Y5926399D02*
G01*
X3505700Y5926399D01*
X2753212Y5926399D02*
G01*
X3008205Y5926399D01*
X1612907Y5142090D02*
G01*
X1358907Y5142090D01*
X860912Y4599091D02*
G01*
X860912Y5054086D01*
X2110920Y4599091D02*
G01*
X2110920Y5054086D01*
X860912Y5484093D02*
G01*
X860912Y5939099D01*
X2110920Y5484093D02*
G01*
X2110920Y5939099D01*
X1855932Y5939099D02*
G01*
X2110943Y5939099D01*
X1825929Y4599091D02*
G01*
X2110915Y4599091D01*
X1577908Y4599091D02*
G01*
X1647901Y4599091D01*
X1325902Y4599091D02*
G01*
X1395905Y4599091D01*
X860912Y4599091D02*
G01*
X1145908Y4599091D01*
X1358412Y5939099D02*
G01*
X1613400Y5939099D01*
X860912Y5939099D02*
G01*
X1115905Y5939099D01*
X2603507Y7936090D02*
G01*
X2349507Y7936090D01*
X1851512Y7393091D02*
G01*
X1851512Y7848086D01*
X3101520Y7393091D02*
G01*
X3101520Y7848086D01*
X1851512Y8278093D02*
G01*
X1851512Y8733099D01*
X3101520Y8278093D02*
G01*
X3101520Y8733099D01*
X2846532Y8733099D02*
G01*
X3101543Y8733099D01*
X2816529Y7393091D02*
G01*
X3101515Y7393091D01*
X2568508Y7393091D02*
G01*
X2638501Y7393091D01*
X2316502Y7393091D02*
G01*
X2386505Y7393091D01*
X1851512Y7393091D02*
G01*
X2136508Y7393091D01*
X2349012Y8733099D02*
G01*
X2604000Y8733099D01*
X1851512Y8733099D02*
G01*
X2106505Y8733099D01*
G75*
G01*
X3505208Y5129390D02*
G03*
X3251208Y5129390I-127000J127001D01*
G75*
G01*
X1612908Y5142090D02*
G03*
X1358908Y5142090I-127000J127001D01*
G75*
G01*
X2603508Y7936090D02*
G03*
X2349508Y7936090I-127000J127001D01*
G75*
G01
X2501900Y3673500D02*
G03X2501900Y3673500I-200000J0D01*
G75*
G01
X2751912Y3673500D02*
G03X2751912Y3673500I-450012J0D01*
G75*
G01
X6248400Y3495700D02*
G03X6248400Y3495700I-200000J0D01*
G75*
G01
X6498412Y3495700D02*
G03X6498412Y3495700I-450012J0D01*
G75*
G01
X8204200Y3470300D02*
G03X8204200Y3470300I-200000J0D01*
G75*
G01
X8454212Y3470300D02*
G03X8454212Y3470300I-450012J0D01*
G75*
G01
X9817100Y4689500D02*
G03X9817100Y4689500I-200000J0D01*
G75*
G01
X10067112Y4689500D02*
G03X10067112Y4689500I-450012J0D01*
G75*
G01
X9804400Y6543700D02*
G03X9804400Y6543700I-200000J0D01*
G75*
G01
X10054412Y6543700D02*
G03X10054412Y6543700I-450012J0D01*
G75*
G01
X9817100Y8486800D02*
G03X9817100Y8486800I-200000J0D01*
G75*
G01
X10067112Y8486800D02*
G03X10067112Y8486800I-450012J0D01*
G75*
G01
X9867900Y10404500D02*
G03X9867900Y10404500I-200000J0D01*
G75*
G01
X10117912Y10404500D02*
G03X10117912Y10404500I-450012J0D01*
G75*
G01
X8229600Y12220600D02*
G03X8229600Y12220600I-200000J0D01*
G75*
G01
X8479612Y12220600D02*
G03X8479612Y12220600I-450012J0D01*
G75*
G01
X4273499Y3654400D02*
G03X4273499Y3654400I-200000J0D01*
G75*
G01
X4523511Y3654400D02*
G03X4523511Y3654400I-450012J0D01*
G75*
G01
X1473200Y3762400D02*
G03X1473200Y3762400I-200000J0D01*
G75*
G01
X1723212Y3762400D02*
G03X1723212Y3762400I-450012J0D01*
G75*
G01
X1809699Y7381900D02*
G03X1809699Y7381900I-200000J0D01*
G75*
G01
X2059711Y7381900D02*
G03X2059711Y7381900I-450012J0D01*
G75*
G01
X1879600Y11750700D02*
G03X1879600Y11750700I-200000J0D01*
G75*
G01
X2129612Y11750700D02*
G03X2129612Y11750700I-450012J0D01*
G75*
G01
X6273800Y12220600D02*
G03X6273800Y12220600I-200000J0D01*
G75*
G01
X6523812Y12220600D02*
G03X6523812Y12220600I-450012J0D01*
G75*
G01
X3678199Y5256403D02*
G03X3678199Y5256403I-299999J0D01*
G75*
G01
X1785899Y5269103D02*
G03X1785899Y5269103I-299999J0D01*
G75*
G01
X2776499Y8063103D02*
G03X2776499Y8063103I-299999J0D01*
M02*
