%TF.GenerationSoftware,KiCad,Pcbnew,8.0.5*%
%TF.CreationDate,2024-10-21T21:03:58+03:00*%
%TF.ProjectId,hackpad1,6861636b-7061-4643-912e-6b696361645f,rev?*%
%TF.SameCoordinates,Original*%
%TF.FileFunction,Legend,Top*%
%TF.FilePolarity,Positive*%
%FSLAX46Y46*%
G04 Gerber Fmt 4.6, Leading zero omitted, Abs format (unit mm)*
G04 Created by KiCad (PCBNEW 8.0.5) date 2024-10-21 21:03:58*
%MOMM*%
%LPD*%
G01*
G04 APERTURE LIST*
%ADD10C,0.150000*%
%ADD11C,0.120000*%
G04 APERTURE END LIST*
D10*
X122745595Y-70988450D02*
X122888452Y-71036069D01*
X122888452Y-71036069D02*
X123126547Y-71036069D01*
X123126547Y-71036069D02*
X123221785Y-70988450D01*
X123221785Y-70988450D02*
X123269404Y-70940830D01*
X123269404Y-70940830D02*
X123317023Y-70845592D01*
X123317023Y-70845592D02*
X123317023Y-70750354D01*
X123317023Y-70750354D02*
X123269404Y-70655116D01*
X123269404Y-70655116D02*
X123221785Y-70607497D01*
X123221785Y-70607497D02*
X123126547Y-70559878D01*
X123126547Y-70559878D02*
X122936071Y-70512259D01*
X122936071Y-70512259D02*
X122840833Y-70464640D01*
X122840833Y-70464640D02*
X122793214Y-70417021D01*
X122793214Y-70417021D02*
X122745595Y-70321783D01*
X122745595Y-70321783D02*
X122745595Y-70226545D01*
X122745595Y-70226545D02*
X122793214Y-70131307D01*
X122793214Y-70131307D02*
X122840833Y-70083688D01*
X122840833Y-70083688D02*
X122936071Y-70036069D01*
X122936071Y-70036069D02*
X123174166Y-70036069D01*
X123174166Y-70036069D02*
X123317023Y-70083688D01*
X123697976Y-70131307D02*
X123745595Y-70083688D01*
X123745595Y-70083688D02*
X123840833Y-70036069D01*
X123840833Y-70036069D02*
X124078928Y-70036069D01*
X124078928Y-70036069D02*
X124174166Y-70083688D01*
X124174166Y-70083688D02*
X124221785Y-70131307D01*
X124221785Y-70131307D02*
X124269404Y-70226545D01*
X124269404Y-70226545D02*
X124269404Y-70321783D01*
X124269404Y-70321783D02*
X124221785Y-70464640D01*
X124221785Y-70464640D02*
X123650357Y-71036069D01*
X123650357Y-71036069D02*
X124269404Y-71036069D01*
X141795595Y-70988450D02*
X141938452Y-71036069D01*
X141938452Y-71036069D02*
X142176547Y-71036069D01*
X142176547Y-71036069D02*
X142271785Y-70988450D01*
X142271785Y-70988450D02*
X142319404Y-70940830D01*
X142319404Y-70940830D02*
X142367023Y-70845592D01*
X142367023Y-70845592D02*
X142367023Y-70750354D01*
X142367023Y-70750354D02*
X142319404Y-70655116D01*
X142319404Y-70655116D02*
X142271785Y-70607497D01*
X142271785Y-70607497D02*
X142176547Y-70559878D01*
X142176547Y-70559878D02*
X141986071Y-70512259D01*
X141986071Y-70512259D02*
X141890833Y-70464640D01*
X141890833Y-70464640D02*
X141843214Y-70417021D01*
X141843214Y-70417021D02*
X141795595Y-70321783D01*
X141795595Y-70321783D02*
X141795595Y-70226545D01*
X141795595Y-70226545D02*
X141843214Y-70131307D01*
X141843214Y-70131307D02*
X141890833Y-70083688D01*
X141890833Y-70083688D02*
X141986071Y-70036069D01*
X141986071Y-70036069D02*
X142224166Y-70036069D01*
X142224166Y-70036069D02*
X142367023Y-70083688D01*
X142700357Y-70036069D02*
X143319404Y-70036069D01*
X143319404Y-70036069D02*
X142986071Y-70417021D01*
X142986071Y-70417021D02*
X143128928Y-70417021D01*
X143128928Y-70417021D02*
X143224166Y-70464640D01*
X143224166Y-70464640D02*
X143271785Y-70512259D01*
X143271785Y-70512259D02*
X143319404Y-70607497D01*
X143319404Y-70607497D02*
X143319404Y-70845592D01*
X143319404Y-70845592D02*
X143271785Y-70940830D01*
X143271785Y-70940830D02*
X143224166Y-70988450D01*
X143224166Y-70988450D02*
X143128928Y-71036069D01*
X143128928Y-71036069D02*
X142843214Y-71036069D01*
X142843214Y-71036069D02*
X142747976Y-70988450D01*
X142747976Y-70988450D02*
X142700357Y-70940830D01*
X160369405Y-90038450D02*
X160512262Y-90086069D01*
X160512262Y-90086069D02*
X160750357Y-90086069D01*
X160750357Y-90086069D02*
X160845595Y-90038450D01*
X160845595Y-90038450D02*
X160893214Y-89990830D01*
X160893214Y-89990830D02*
X160940833Y-89895592D01*
X160940833Y-89895592D02*
X160940833Y-89800354D01*
X160940833Y-89800354D02*
X160893214Y-89705116D01*
X160893214Y-89705116D02*
X160845595Y-89657497D01*
X160845595Y-89657497D02*
X160750357Y-89609878D01*
X160750357Y-89609878D02*
X160559881Y-89562259D01*
X160559881Y-89562259D02*
X160464643Y-89514640D01*
X160464643Y-89514640D02*
X160417024Y-89467021D01*
X160417024Y-89467021D02*
X160369405Y-89371783D01*
X160369405Y-89371783D02*
X160369405Y-89276545D01*
X160369405Y-89276545D02*
X160417024Y-89181307D01*
X160417024Y-89181307D02*
X160464643Y-89133688D01*
X160464643Y-89133688D02*
X160559881Y-89086069D01*
X160559881Y-89086069D02*
X160797976Y-89086069D01*
X160797976Y-89086069D02*
X160940833Y-89133688D01*
X161893214Y-90086069D02*
X161321786Y-90086069D01*
X161607500Y-90086069D02*
X161607500Y-89086069D01*
X161607500Y-89086069D02*
X161512262Y-89228926D01*
X161512262Y-89228926D02*
X161417024Y-89324164D01*
X161417024Y-89324164D02*
X161321786Y-89371783D01*
X162845595Y-90086069D02*
X162274167Y-90086069D01*
X162559881Y-90086069D02*
X162559881Y-89086069D01*
X162559881Y-89086069D02*
X162464643Y-89228926D01*
X162464643Y-89228926D02*
X162369405Y-89324164D01*
X162369405Y-89324164D02*
X162274167Y-89371783D01*
X160369405Y-109088450D02*
X160512262Y-109136069D01*
X160512262Y-109136069D02*
X160750357Y-109136069D01*
X160750357Y-109136069D02*
X160845595Y-109088450D01*
X160845595Y-109088450D02*
X160893214Y-109040830D01*
X160893214Y-109040830D02*
X160940833Y-108945592D01*
X160940833Y-108945592D02*
X160940833Y-108850354D01*
X160940833Y-108850354D02*
X160893214Y-108755116D01*
X160893214Y-108755116D02*
X160845595Y-108707497D01*
X160845595Y-108707497D02*
X160750357Y-108659878D01*
X160750357Y-108659878D02*
X160559881Y-108612259D01*
X160559881Y-108612259D02*
X160464643Y-108564640D01*
X160464643Y-108564640D02*
X160417024Y-108517021D01*
X160417024Y-108517021D02*
X160369405Y-108421783D01*
X160369405Y-108421783D02*
X160369405Y-108326545D01*
X160369405Y-108326545D02*
X160417024Y-108231307D01*
X160417024Y-108231307D02*
X160464643Y-108183688D01*
X160464643Y-108183688D02*
X160559881Y-108136069D01*
X160559881Y-108136069D02*
X160797976Y-108136069D01*
X160797976Y-108136069D02*
X160940833Y-108183688D01*
X161893214Y-109136069D02*
X161321786Y-109136069D01*
X161607500Y-109136069D02*
X161607500Y-108136069D01*
X161607500Y-108136069D02*
X161512262Y-108278926D01*
X161512262Y-108278926D02*
X161417024Y-108374164D01*
X161417024Y-108374164D02*
X161321786Y-108421783D01*
X162512262Y-108136069D02*
X162607500Y-108136069D01*
X162607500Y-108136069D02*
X162702738Y-108183688D01*
X162702738Y-108183688D02*
X162750357Y-108231307D01*
X162750357Y-108231307D02*
X162797976Y-108326545D01*
X162797976Y-108326545D02*
X162845595Y-108517021D01*
X162845595Y-108517021D02*
X162845595Y-108755116D01*
X162845595Y-108755116D02*
X162797976Y-108945592D01*
X162797976Y-108945592D02*
X162750357Y-109040830D01*
X162750357Y-109040830D02*
X162702738Y-109088450D01*
X162702738Y-109088450D02*
X162607500Y-109136069D01*
X162607500Y-109136069D02*
X162512262Y-109136069D01*
X162512262Y-109136069D02*
X162417024Y-109088450D01*
X162417024Y-109088450D02*
X162369405Y-109040830D01*
X162369405Y-109040830D02*
X162321786Y-108945592D01*
X162321786Y-108945592D02*
X162274167Y-108755116D01*
X162274167Y-108755116D02*
X162274167Y-108517021D01*
X162274167Y-108517021D02*
X162321786Y-108326545D01*
X162321786Y-108326545D02*
X162369405Y-108231307D01*
X162369405Y-108231307D02*
X162417024Y-108183688D01*
X162417024Y-108183688D02*
X162512262Y-108136069D01*
X103695595Y-70988450D02*
X103838452Y-71036069D01*
X103838452Y-71036069D02*
X104076547Y-71036069D01*
X104076547Y-71036069D02*
X104171785Y-70988450D01*
X104171785Y-70988450D02*
X104219404Y-70940830D01*
X104219404Y-70940830D02*
X104267023Y-70845592D01*
X104267023Y-70845592D02*
X104267023Y-70750354D01*
X104267023Y-70750354D02*
X104219404Y-70655116D01*
X104219404Y-70655116D02*
X104171785Y-70607497D01*
X104171785Y-70607497D02*
X104076547Y-70559878D01*
X104076547Y-70559878D02*
X103886071Y-70512259D01*
X103886071Y-70512259D02*
X103790833Y-70464640D01*
X103790833Y-70464640D02*
X103743214Y-70417021D01*
X103743214Y-70417021D02*
X103695595Y-70321783D01*
X103695595Y-70321783D02*
X103695595Y-70226545D01*
X103695595Y-70226545D02*
X103743214Y-70131307D01*
X103743214Y-70131307D02*
X103790833Y-70083688D01*
X103790833Y-70083688D02*
X103886071Y-70036069D01*
X103886071Y-70036069D02*
X104124166Y-70036069D01*
X104124166Y-70036069D02*
X104267023Y-70083688D01*
X105219404Y-71036069D02*
X104647976Y-71036069D01*
X104933690Y-71036069D02*
X104933690Y-70036069D01*
X104933690Y-70036069D02*
X104838452Y-70178926D01*
X104838452Y-70178926D02*
X104743214Y-70274164D01*
X104743214Y-70274164D02*
X104647976Y-70321783D01*
X141795595Y-90038450D02*
X141938452Y-90086069D01*
X141938452Y-90086069D02*
X142176547Y-90086069D01*
X142176547Y-90086069D02*
X142271785Y-90038450D01*
X142271785Y-90038450D02*
X142319404Y-89990830D01*
X142319404Y-89990830D02*
X142367023Y-89895592D01*
X142367023Y-89895592D02*
X142367023Y-89800354D01*
X142367023Y-89800354D02*
X142319404Y-89705116D01*
X142319404Y-89705116D02*
X142271785Y-89657497D01*
X142271785Y-89657497D02*
X142176547Y-89609878D01*
X142176547Y-89609878D02*
X141986071Y-89562259D01*
X141986071Y-89562259D02*
X141890833Y-89514640D01*
X141890833Y-89514640D02*
X141843214Y-89467021D01*
X141843214Y-89467021D02*
X141795595Y-89371783D01*
X141795595Y-89371783D02*
X141795595Y-89276545D01*
X141795595Y-89276545D02*
X141843214Y-89181307D01*
X141843214Y-89181307D02*
X141890833Y-89133688D01*
X141890833Y-89133688D02*
X141986071Y-89086069D01*
X141986071Y-89086069D02*
X142224166Y-89086069D01*
X142224166Y-89086069D02*
X142367023Y-89133688D01*
X143224166Y-89086069D02*
X143033690Y-89086069D01*
X143033690Y-89086069D02*
X142938452Y-89133688D01*
X142938452Y-89133688D02*
X142890833Y-89181307D01*
X142890833Y-89181307D02*
X142795595Y-89324164D01*
X142795595Y-89324164D02*
X142747976Y-89514640D01*
X142747976Y-89514640D02*
X142747976Y-89895592D01*
X142747976Y-89895592D02*
X142795595Y-89990830D01*
X142795595Y-89990830D02*
X142843214Y-90038450D01*
X142843214Y-90038450D02*
X142938452Y-90086069D01*
X142938452Y-90086069D02*
X143128928Y-90086069D01*
X143128928Y-90086069D02*
X143224166Y-90038450D01*
X143224166Y-90038450D02*
X143271785Y-89990830D01*
X143271785Y-89990830D02*
X143319404Y-89895592D01*
X143319404Y-89895592D02*
X143319404Y-89657497D01*
X143319404Y-89657497D02*
X143271785Y-89562259D01*
X143271785Y-89562259D02*
X143224166Y-89514640D01*
X143224166Y-89514640D02*
X143128928Y-89467021D01*
X143128928Y-89467021D02*
X142938452Y-89467021D01*
X142938452Y-89467021D02*
X142843214Y-89514640D01*
X142843214Y-89514640D02*
X142795595Y-89562259D01*
X142795595Y-89562259D02*
X142747976Y-89657497D01*
X103695595Y-109088450D02*
X103838452Y-109136069D01*
X103838452Y-109136069D02*
X104076547Y-109136069D01*
X104076547Y-109136069D02*
X104171785Y-109088450D01*
X104171785Y-109088450D02*
X104219404Y-109040830D01*
X104219404Y-109040830D02*
X104267023Y-108945592D01*
X104267023Y-108945592D02*
X104267023Y-108850354D01*
X104267023Y-108850354D02*
X104219404Y-108755116D01*
X104219404Y-108755116D02*
X104171785Y-108707497D01*
X104171785Y-108707497D02*
X104076547Y-108659878D01*
X104076547Y-108659878D02*
X103886071Y-108612259D01*
X103886071Y-108612259D02*
X103790833Y-108564640D01*
X103790833Y-108564640D02*
X103743214Y-108517021D01*
X103743214Y-108517021D02*
X103695595Y-108421783D01*
X103695595Y-108421783D02*
X103695595Y-108326545D01*
X103695595Y-108326545D02*
X103743214Y-108231307D01*
X103743214Y-108231307D02*
X103790833Y-108183688D01*
X103790833Y-108183688D02*
X103886071Y-108136069D01*
X103886071Y-108136069D02*
X104124166Y-108136069D01*
X104124166Y-108136069D02*
X104267023Y-108183688D01*
X104600357Y-108136069D02*
X105267023Y-108136069D01*
X105267023Y-108136069D02*
X104838452Y-109136069D01*
X122745595Y-90038450D02*
X122888452Y-90086069D01*
X122888452Y-90086069D02*
X123126547Y-90086069D01*
X123126547Y-90086069D02*
X123221785Y-90038450D01*
X123221785Y-90038450D02*
X123269404Y-89990830D01*
X123269404Y-89990830D02*
X123317023Y-89895592D01*
X123317023Y-89895592D02*
X123317023Y-89800354D01*
X123317023Y-89800354D02*
X123269404Y-89705116D01*
X123269404Y-89705116D02*
X123221785Y-89657497D01*
X123221785Y-89657497D02*
X123126547Y-89609878D01*
X123126547Y-89609878D02*
X122936071Y-89562259D01*
X122936071Y-89562259D02*
X122840833Y-89514640D01*
X122840833Y-89514640D02*
X122793214Y-89467021D01*
X122793214Y-89467021D02*
X122745595Y-89371783D01*
X122745595Y-89371783D02*
X122745595Y-89276545D01*
X122745595Y-89276545D02*
X122793214Y-89181307D01*
X122793214Y-89181307D02*
X122840833Y-89133688D01*
X122840833Y-89133688D02*
X122936071Y-89086069D01*
X122936071Y-89086069D02*
X123174166Y-89086069D01*
X123174166Y-89086069D02*
X123317023Y-89133688D01*
X124221785Y-89086069D02*
X123745595Y-89086069D01*
X123745595Y-89086069D02*
X123697976Y-89562259D01*
X123697976Y-89562259D02*
X123745595Y-89514640D01*
X123745595Y-89514640D02*
X123840833Y-89467021D01*
X123840833Y-89467021D02*
X124078928Y-89467021D01*
X124078928Y-89467021D02*
X124174166Y-89514640D01*
X124174166Y-89514640D02*
X124221785Y-89562259D01*
X124221785Y-89562259D02*
X124269404Y-89657497D01*
X124269404Y-89657497D02*
X124269404Y-89895592D01*
X124269404Y-89895592D02*
X124221785Y-89990830D01*
X124221785Y-89990830D02*
X124174166Y-90038450D01*
X124174166Y-90038450D02*
X124078928Y-90086069D01*
X124078928Y-90086069D02*
X123840833Y-90086069D01*
X123840833Y-90086069D02*
X123745595Y-90038450D01*
X123745595Y-90038450D02*
X123697976Y-89990830D01*
X141795595Y-109088450D02*
X141938452Y-109136069D01*
X141938452Y-109136069D02*
X142176547Y-109136069D01*
X142176547Y-109136069D02*
X142271785Y-109088450D01*
X142271785Y-109088450D02*
X142319404Y-109040830D01*
X142319404Y-109040830D02*
X142367023Y-108945592D01*
X142367023Y-108945592D02*
X142367023Y-108850354D01*
X142367023Y-108850354D02*
X142319404Y-108755116D01*
X142319404Y-108755116D02*
X142271785Y-108707497D01*
X142271785Y-108707497D02*
X142176547Y-108659878D01*
X142176547Y-108659878D02*
X141986071Y-108612259D01*
X141986071Y-108612259D02*
X141890833Y-108564640D01*
X141890833Y-108564640D02*
X141843214Y-108517021D01*
X141843214Y-108517021D02*
X141795595Y-108421783D01*
X141795595Y-108421783D02*
X141795595Y-108326545D01*
X141795595Y-108326545D02*
X141843214Y-108231307D01*
X141843214Y-108231307D02*
X141890833Y-108183688D01*
X141890833Y-108183688D02*
X141986071Y-108136069D01*
X141986071Y-108136069D02*
X142224166Y-108136069D01*
X142224166Y-108136069D02*
X142367023Y-108183688D01*
X142843214Y-109136069D02*
X143033690Y-109136069D01*
X143033690Y-109136069D02*
X143128928Y-109088450D01*
X143128928Y-109088450D02*
X143176547Y-109040830D01*
X143176547Y-109040830D02*
X143271785Y-108897973D01*
X143271785Y-108897973D02*
X143319404Y-108707497D01*
X143319404Y-108707497D02*
X143319404Y-108326545D01*
X143319404Y-108326545D02*
X143271785Y-108231307D01*
X143271785Y-108231307D02*
X143224166Y-108183688D01*
X143224166Y-108183688D02*
X143128928Y-108136069D01*
X143128928Y-108136069D02*
X142938452Y-108136069D01*
X142938452Y-108136069D02*
X142843214Y-108183688D01*
X142843214Y-108183688D02*
X142795595Y-108231307D01*
X142795595Y-108231307D02*
X142747976Y-108326545D01*
X142747976Y-108326545D02*
X142747976Y-108564640D01*
X142747976Y-108564640D02*
X142795595Y-108659878D01*
X142795595Y-108659878D02*
X142843214Y-108707497D01*
X142843214Y-108707497D02*
X142938452Y-108755116D01*
X142938452Y-108755116D02*
X143128928Y-108755116D01*
X143128928Y-108755116D02*
X143224166Y-108707497D01*
X143224166Y-108707497D02*
X143271785Y-108659878D01*
X143271785Y-108659878D02*
X143319404Y-108564640D01*
X103695595Y-90038450D02*
X103838452Y-90086069D01*
X103838452Y-90086069D02*
X104076547Y-90086069D01*
X104076547Y-90086069D02*
X104171785Y-90038450D01*
X104171785Y-90038450D02*
X104219404Y-89990830D01*
X104219404Y-89990830D02*
X104267023Y-89895592D01*
X104267023Y-89895592D02*
X104267023Y-89800354D01*
X104267023Y-89800354D02*
X104219404Y-89705116D01*
X104219404Y-89705116D02*
X104171785Y-89657497D01*
X104171785Y-89657497D02*
X104076547Y-89609878D01*
X104076547Y-89609878D02*
X103886071Y-89562259D01*
X103886071Y-89562259D02*
X103790833Y-89514640D01*
X103790833Y-89514640D02*
X103743214Y-89467021D01*
X103743214Y-89467021D02*
X103695595Y-89371783D01*
X103695595Y-89371783D02*
X103695595Y-89276545D01*
X103695595Y-89276545D02*
X103743214Y-89181307D01*
X103743214Y-89181307D02*
X103790833Y-89133688D01*
X103790833Y-89133688D02*
X103886071Y-89086069D01*
X103886071Y-89086069D02*
X104124166Y-89086069D01*
X104124166Y-89086069D02*
X104267023Y-89133688D01*
X105124166Y-89419402D02*
X105124166Y-90086069D01*
X104886071Y-89038450D02*
X104647976Y-89752735D01*
X104647976Y-89752735D02*
X105267023Y-89752735D01*
X122745595Y-109088450D02*
X122888452Y-109136069D01*
X122888452Y-109136069D02*
X123126547Y-109136069D01*
X123126547Y-109136069D02*
X123221785Y-109088450D01*
X123221785Y-109088450D02*
X123269404Y-109040830D01*
X123269404Y-109040830D02*
X123317023Y-108945592D01*
X123317023Y-108945592D02*
X123317023Y-108850354D01*
X123317023Y-108850354D02*
X123269404Y-108755116D01*
X123269404Y-108755116D02*
X123221785Y-108707497D01*
X123221785Y-108707497D02*
X123126547Y-108659878D01*
X123126547Y-108659878D02*
X122936071Y-108612259D01*
X122936071Y-108612259D02*
X122840833Y-108564640D01*
X122840833Y-108564640D02*
X122793214Y-108517021D01*
X122793214Y-108517021D02*
X122745595Y-108421783D01*
X122745595Y-108421783D02*
X122745595Y-108326545D01*
X122745595Y-108326545D02*
X122793214Y-108231307D01*
X122793214Y-108231307D02*
X122840833Y-108183688D01*
X122840833Y-108183688D02*
X122936071Y-108136069D01*
X122936071Y-108136069D02*
X123174166Y-108136069D01*
X123174166Y-108136069D02*
X123317023Y-108183688D01*
X123888452Y-108564640D02*
X123793214Y-108517021D01*
X123793214Y-108517021D02*
X123745595Y-108469402D01*
X123745595Y-108469402D02*
X123697976Y-108374164D01*
X123697976Y-108374164D02*
X123697976Y-108326545D01*
X123697976Y-108326545D02*
X123745595Y-108231307D01*
X123745595Y-108231307D02*
X123793214Y-108183688D01*
X123793214Y-108183688D02*
X123888452Y-108136069D01*
X123888452Y-108136069D02*
X124078928Y-108136069D01*
X124078928Y-108136069D02*
X124174166Y-108183688D01*
X124174166Y-108183688D02*
X124221785Y-108231307D01*
X124221785Y-108231307D02*
X124269404Y-108326545D01*
X124269404Y-108326545D02*
X124269404Y-108374164D01*
X124269404Y-108374164D02*
X124221785Y-108469402D01*
X124221785Y-108469402D02*
X124174166Y-108517021D01*
X124174166Y-108517021D02*
X124078928Y-108564640D01*
X124078928Y-108564640D02*
X123888452Y-108564640D01*
X123888452Y-108564640D02*
X123793214Y-108612259D01*
X123793214Y-108612259D02*
X123745595Y-108659878D01*
X123745595Y-108659878D02*
X123697976Y-108755116D01*
X123697976Y-108755116D02*
X123697976Y-108945592D01*
X123697976Y-108945592D02*
X123745595Y-109040830D01*
X123745595Y-109040830D02*
X123793214Y-109088450D01*
X123793214Y-109088450D02*
X123888452Y-109136069D01*
X123888452Y-109136069D02*
X124078928Y-109136069D01*
X124078928Y-109136069D02*
X124174166Y-109088450D01*
X124174166Y-109088450D02*
X124221785Y-109040830D01*
X124221785Y-109040830D02*
X124269404Y-108945592D01*
X124269404Y-108945592D02*
X124269404Y-108755116D01*
X124269404Y-108755116D02*
X124221785Y-108659878D01*
X124221785Y-108659878D02*
X124174166Y-108612259D01*
X124174166Y-108612259D02*
X124078928Y-108564640D01*
X160369405Y-70988450D02*
X160512262Y-71036069D01*
X160512262Y-71036069D02*
X160750357Y-71036069D01*
X160750357Y-71036069D02*
X160845595Y-70988450D01*
X160845595Y-70988450D02*
X160893214Y-70940830D01*
X160893214Y-70940830D02*
X160940833Y-70845592D01*
X160940833Y-70845592D02*
X160940833Y-70750354D01*
X160940833Y-70750354D02*
X160893214Y-70655116D01*
X160893214Y-70655116D02*
X160845595Y-70607497D01*
X160845595Y-70607497D02*
X160750357Y-70559878D01*
X160750357Y-70559878D02*
X160559881Y-70512259D01*
X160559881Y-70512259D02*
X160464643Y-70464640D01*
X160464643Y-70464640D02*
X160417024Y-70417021D01*
X160417024Y-70417021D02*
X160369405Y-70321783D01*
X160369405Y-70321783D02*
X160369405Y-70226545D01*
X160369405Y-70226545D02*
X160417024Y-70131307D01*
X160417024Y-70131307D02*
X160464643Y-70083688D01*
X160464643Y-70083688D02*
X160559881Y-70036069D01*
X160559881Y-70036069D02*
X160797976Y-70036069D01*
X160797976Y-70036069D02*
X160940833Y-70083688D01*
X161893214Y-71036069D02*
X161321786Y-71036069D01*
X161607500Y-71036069D02*
X161607500Y-70036069D01*
X161607500Y-70036069D02*
X161512262Y-70178926D01*
X161512262Y-70178926D02*
X161417024Y-70274164D01*
X161417024Y-70274164D02*
X161321786Y-70321783D01*
X162274167Y-70131307D02*
X162321786Y-70083688D01*
X162321786Y-70083688D02*
X162417024Y-70036069D01*
X162417024Y-70036069D02*
X162655119Y-70036069D01*
X162655119Y-70036069D02*
X162750357Y-70083688D01*
X162750357Y-70083688D02*
X162797976Y-70131307D01*
X162797976Y-70131307D02*
X162845595Y-70226545D01*
X162845595Y-70226545D02*
X162845595Y-70321783D01*
X162845595Y-70321783D02*
X162797976Y-70464640D01*
X162797976Y-70464640D02*
X162226548Y-71036069D01*
X162226548Y-71036069D02*
X162845595Y-71036069D01*
D11*
%TO.C,S2*%
X116407500Y-71481250D02*
X116407500Y-85681250D01*
X116407500Y-85681250D02*
X130607500Y-85681250D01*
X130607500Y-71481250D02*
X116407500Y-71481250D01*
X130607500Y-85681250D02*
X130607500Y-71481250D01*
%TO.C,S3*%
X135457500Y-71481250D02*
X135457500Y-85681250D01*
X135457500Y-85681250D02*
X149657500Y-85681250D01*
X149657500Y-71481250D02*
X135457500Y-71481250D01*
X149657500Y-85681250D02*
X149657500Y-71481250D01*
%TO.C,S11*%
X154507500Y-90531250D02*
X154507500Y-104731250D01*
X154507500Y-104731250D02*
X168707500Y-104731250D01*
X168707500Y-90531250D02*
X154507500Y-90531250D01*
X168707500Y-104731250D02*
X168707500Y-90531250D01*
%TO.C,S10*%
X154507500Y-109581250D02*
X154507500Y-123781250D01*
X154507500Y-123781250D02*
X168707500Y-123781250D01*
X168707500Y-109581250D02*
X154507500Y-109581250D01*
X168707500Y-123781250D02*
X168707500Y-109581250D01*
%TO.C,S1*%
X97357500Y-71481250D02*
X97357500Y-85681250D01*
X97357500Y-85681250D02*
X111557500Y-85681250D01*
X111557500Y-71481250D02*
X97357500Y-71481250D01*
X111557500Y-85681250D02*
X111557500Y-71481250D01*
%TO.C,S6*%
X135457500Y-90531250D02*
X135457500Y-104731250D01*
X135457500Y-104731250D02*
X149657500Y-104731250D01*
X149657500Y-90531250D02*
X135457500Y-90531250D01*
X149657500Y-104731250D02*
X149657500Y-90531250D01*
%TO.C,S7*%
X97357500Y-109581250D02*
X97357500Y-123781250D01*
X97357500Y-123781250D02*
X111557500Y-123781250D01*
X111557500Y-109581250D02*
X97357500Y-109581250D01*
X111557500Y-123781250D02*
X111557500Y-109581250D01*
%TO.C,S5*%
X116407500Y-90531250D02*
X116407500Y-104731250D01*
X116407500Y-104731250D02*
X130607500Y-104731250D01*
X130607500Y-90531250D02*
X116407500Y-90531250D01*
X130607500Y-104731250D02*
X130607500Y-90531250D01*
%TO.C,S9*%
X135457500Y-109581250D02*
X135457500Y-123781250D01*
X135457500Y-123781250D02*
X149657500Y-123781250D01*
X149657500Y-109581250D02*
X135457500Y-109581250D01*
X149657500Y-123781250D02*
X149657500Y-109581250D01*
%TO.C,S4*%
X97357500Y-90531250D02*
X97357500Y-104731250D01*
X97357500Y-104731250D02*
X111557500Y-104731250D01*
X111557500Y-90531250D02*
X97357500Y-90531250D01*
X111557500Y-104731250D02*
X111557500Y-90531250D01*
%TO.C,S8*%
X116407500Y-109581250D02*
X116407500Y-123781250D01*
X116407500Y-123781250D02*
X130607500Y-123781250D01*
X130607500Y-109581250D02*
X116407500Y-109581250D01*
X130607500Y-123781250D02*
X130607500Y-109581250D01*
%TO.C,S12*%
X154507500Y-71481250D02*
X154507500Y-85681250D01*
X154507500Y-85681250D02*
X168707500Y-85681250D01*
X168707500Y-71481250D02*
X154507500Y-71481250D01*
X168707500Y-85681250D02*
X168707500Y-71481250D01*
%TD*%
M02*
