%TF.GenerationSoftware,KiCad,Pcbnew,8.0.5*%
%TF.CreationDate,2024-10-21T21:03:58+03:00*%
%TF.ProjectId,hackpad1,6861636b-7061-4643-912e-6b696361645f,rev?*%
%TF.SameCoordinates,Original*%
%TF.FileFunction,Legend,Bot*%
%TF.FilePolarity,Positive*%
%FSLAX46Y46*%
G04 Gerber Fmt 4.6, Leading zero omitted, Abs format (unit mm)*
G04 Created by KiCad (PCBNEW 8.0.5) date 2024-10-21 21:03:58*
%MOMM*%
%LPD*%
G01*
G04 APERTURE LIST*
%ADD10C,0.100000*%
G04 APERTURE END LIST*
D10*
%TO.C,D10*%
X170900000Y-117031250D02*
X172000000Y-117031250D01*
X171050000Y-116431250D02*
X171850000Y-116431250D01*
X171450000Y-115931250D02*
X171450000Y-116431250D01*
X171450000Y-117031250D02*
X171050000Y-116431250D01*
X171450000Y-117031250D02*
X171450000Y-117431250D01*
X171850000Y-116431250D02*
X171450000Y-117031250D01*
%TO.C,D3*%
X151850000Y-78931250D02*
X152950000Y-78931250D01*
X152000000Y-78331250D02*
X152800000Y-78331250D01*
X152400000Y-77831250D02*
X152400000Y-78331250D01*
X152400000Y-78931250D02*
X152000000Y-78331250D01*
X152400000Y-78931250D02*
X152400000Y-79331250D01*
X152800000Y-78331250D02*
X152400000Y-78931250D01*
%TO.C,D7*%
X113750000Y-117031250D02*
X114850000Y-117031250D01*
X113900000Y-116431250D02*
X114700000Y-116431250D01*
X114300000Y-115931250D02*
X114300000Y-116431250D01*
X114300000Y-117031250D02*
X113900000Y-116431250D01*
X114300000Y-117031250D02*
X114300000Y-117431250D01*
X114700000Y-116431250D02*
X114300000Y-117031250D01*
%TO.C,D4*%
X113750000Y-97981250D02*
X114850000Y-97981250D01*
X113900000Y-97381250D02*
X114700000Y-97381250D01*
X114300000Y-96881250D02*
X114300000Y-97381250D01*
X114300000Y-97981250D02*
X113900000Y-97381250D01*
X114300000Y-97981250D02*
X114300000Y-98381250D01*
X114700000Y-97381250D02*
X114300000Y-97981250D01*
%TO.C,D11*%
X170900000Y-97981250D02*
X172000000Y-97981250D01*
X171050000Y-97381250D02*
X171850000Y-97381250D01*
X171450000Y-96881250D02*
X171450000Y-97381250D01*
X171450000Y-97981250D02*
X171050000Y-97381250D01*
X171450000Y-97981250D02*
X171450000Y-98381250D01*
X171850000Y-97381250D02*
X171450000Y-97981250D01*
%TO.C,D5*%
X132800000Y-97981250D02*
X133900000Y-97981250D01*
X132950000Y-97381250D02*
X133750000Y-97381250D01*
X133350000Y-96881250D02*
X133350000Y-97381250D01*
X133350000Y-97981250D02*
X132950000Y-97381250D01*
X133350000Y-97981250D02*
X133350000Y-98381250D01*
X133750000Y-97381250D02*
X133350000Y-97981250D01*
%TO.C,D6*%
X151850000Y-97981250D02*
X152950000Y-97981250D01*
X152000000Y-97381250D02*
X152800000Y-97381250D01*
X152400000Y-96881250D02*
X152400000Y-97381250D01*
X152400000Y-97981250D02*
X152000000Y-97381250D01*
X152400000Y-97981250D02*
X152400000Y-98381250D01*
X152800000Y-97381250D02*
X152400000Y-97981250D01*
%TO.C,D2*%
X132800000Y-78931250D02*
X133900000Y-78931250D01*
X132950000Y-78331250D02*
X133750000Y-78331250D01*
X133350000Y-77831250D02*
X133350000Y-78331250D01*
X133350000Y-78931250D02*
X132950000Y-78331250D01*
X133350000Y-78931250D02*
X133350000Y-79331250D01*
X133750000Y-78331250D02*
X133350000Y-78931250D01*
%TO.C,D12*%
X170900000Y-78931250D02*
X172000000Y-78931250D01*
X171050000Y-78331250D02*
X171850000Y-78331250D01*
X171450000Y-77831250D02*
X171450000Y-78331250D01*
X171450000Y-78931250D02*
X171050000Y-78331250D01*
X171450000Y-78931250D02*
X171450000Y-79331250D01*
X171850000Y-78331250D02*
X171450000Y-78931250D01*
%TO.C,D9*%
X151850000Y-117031250D02*
X152950000Y-117031250D01*
X152000000Y-116431250D02*
X152800000Y-116431250D01*
X152400000Y-115931250D02*
X152400000Y-116431250D01*
X152400000Y-117031250D02*
X152000000Y-116431250D01*
X152400000Y-117031250D02*
X152400000Y-117431250D01*
X152800000Y-116431250D02*
X152400000Y-117031250D01*
%TO.C,D1*%
X113750000Y-78931250D02*
X114850000Y-78931250D01*
X113900000Y-78331250D02*
X114700000Y-78331250D01*
X114300000Y-77831250D02*
X114300000Y-78331250D01*
X114300000Y-78931250D02*
X113900000Y-78331250D01*
X114300000Y-78931250D02*
X114300000Y-79331250D01*
X114700000Y-78331250D02*
X114300000Y-78931250D01*
%TO.C,D8*%
X132800000Y-117031250D02*
X133900000Y-117031250D01*
X132950000Y-116431250D02*
X133750000Y-116431250D01*
X133350000Y-115931250D02*
X133350000Y-116431250D01*
X133350000Y-117031250D02*
X132950000Y-116431250D01*
X133350000Y-117031250D02*
X133350000Y-117431250D01*
X133750000Y-116431250D02*
X133350000Y-117031250D01*
%TD*%
M02*
