M48
; DRILL file {KiCad 8.0.5} date 2024-10-21T21:04:12+0300
; FORMAT={-:-/ absolute / inch / decimal}
; #@! TF.CreationDate,2024-10-21T21:04:12+03:00
; #@! TF.GenerationSoftware,Kicad,Pcbnew,8.0.5
; #@! TF.FileFunction,NonPlated,1,2,NPTH
FMAT,2
INCH
; #@! TA.AperFunction,NonPlated,NPTH,ComponentDrill
T1C0.0689
; #@! TA.AperFunction,NonPlated,NPTH,ComponentDrill
T2C0.1575
%
G90
G05
T1
X3.9125Y-3.0938
X3.9125Y-3.8438
X3.9125Y-4.5938
X4.3125Y-3.0938
X4.3125Y-3.8438
X4.3125Y-4.5938
X4.6625Y-3.0938
X4.6625Y-3.8438
X4.6625Y-4.5938
X5.0625Y-3.0938
X5.0625Y-3.8438
X5.0625Y-4.5938
X5.4125Y-3.0938
X5.4125Y-3.8438
X5.4125Y-4.5938
X5.8125Y-3.0938
X5.8125Y-3.8438
X5.8125Y-4.5938
X6.1625Y-3.0938
X6.1625Y-3.8438
X6.1625Y-4.5938
X6.5625Y-3.0938
X6.5625Y-3.8438
X6.5625Y-4.5938
T2
X4.1125Y-3.0938
X4.1125Y-3.8438
X4.1125Y-4.5938
X4.8625Y-3.0938
X4.8625Y-3.8438
X4.8625Y-4.5938
X5.6125Y-3.0938
X5.6125Y-3.8438
X5.6125Y-4.5938
X6.3625Y-3.0938
X6.3625Y-3.8438
X6.3625Y-4.5938
M30
