G04 Layer: TopSilkscreenLayer*
G04 EasyEDA v6.5.47, 2024-10-16 20:22:33*
G04 9ae9750504c14924853e95ef229aeab1,24ffd69d1a984b0ba209c2ef933deaa4,10*
G04 Gerber Generator version 0.2*
G04 Scale: 100 percent, Rotated: No, Reflected: No *
G04 Dimensions in millimeters *
G04 leading zeros omitted , absolute positions ,4 integer and 5 decimal *
%FSLAX45Y45*%
%MOMM*%

%ADD10C,0.1524*%
%ADD11C,0.2032*%
%ADD12C,0.1500*%
%ADD13C,0.0907*%
%ADD14C,0.1270*%
%ADD15C,0.2540*%
%ADD16C,0.0115*%

%LPD*%
D10*
X3199993Y2181885D02*
G01*
X3210407Y2187219D01*
X3225901Y2202713D01*
X3225901Y2093747D01*
X5105069Y2176805D02*
G01*
X5105069Y2181885D01*
X5110403Y2192299D01*
X5115483Y2197633D01*
X5125897Y2202713D01*
X5146725Y2202713D01*
X5157139Y2197633D01*
X5162219Y2192299D01*
X5167553Y2181885D01*
X5167553Y2171471D01*
X5162219Y2161057D01*
X5152059Y2145563D01*
X5099989Y2093747D01*
X5172633Y2093747D01*
X7010400Y2202713D02*
G01*
X7067550Y2202713D01*
X7036308Y2161057D01*
X7052056Y2161057D01*
X7062215Y2155977D01*
X7067550Y2150897D01*
X7072629Y2135149D01*
X7072629Y2124735D01*
X7067550Y2109241D01*
X7057136Y2098827D01*
X7041641Y2093747D01*
X7025893Y2093747D01*
X7010400Y2098827D01*
X7005065Y2103907D01*
X6999986Y2114321D01*
X3252063Y302717D02*
G01*
X3199993Y230073D01*
X3277971Y230073D01*
X3252063Y302717D02*
G01*
X3252063Y193751D01*
X5162219Y302717D02*
G01*
X5110403Y302717D01*
X5105069Y255981D01*
X5110403Y261061D01*
X5125897Y266395D01*
X5141645Y266395D01*
X5157139Y261061D01*
X5167553Y250901D01*
X5172633Y235153D01*
X5172633Y224739D01*
X5167553Y209245D01*
X5157139Y198831D01*
X5141645Y193751D01*
X5125897Y193751D01*
X5110403Y198831D01*
X5105069Y203911D01*
X5099989Y214325D01*
X7062215Y287223D02*
G01*
X7057136Y297637D01*
X7041641Y302717D01*
X7031227Y302717D01*
X7015479Y297637D01*
X7005065Y281889D01*
X6999986Y255981D01*
X6999986Y230073D01*
X7005065Y209245D01*
X7015479Y198831D01*
X7031227Y193751D01*
X7036308Y193751D01*
X7052056Y198831D01*
X7062215Y209245D01*
X7067550Y224739D01*
X7067550Y230073D01*
X7062215Y245567D01*
X7052056Y255981D01*
X7036308Y261061D01*
X7031227Y261061D01*
X7015479Y255981D01*
X7005065Y245567D01*
X6999986Y230073D01*
X3272637Y-1597279D02*
G01*
X3220821Y-1706245D01*
X3199993Y-1597279D02*
G01*
X3272637Y-1597279D01*
X5125897Y-1597279D02*
G01*
X5110403Y-1602359D01*
X5105069Y-1612772D01*
X5105069Y-1623187D01*
X5110403Y-1633601D01*
X5120817Y-1638935D01*
X5141645Y-1644014D01*
X5157139Y-1649095D01*
X5167553Y-1659509D01*
X5172633Y-1669922D01*
X5172633Y-1685670D01*
X5167553Y-1696085D01*
X5162219Y-1701164D01*
X5146725Y-1706245D01*
X5125897Y-1706245D01*
X5110403Y-1701164D01*
X5105069Y-1696085D01*
X5099989Y-1685670D01*
X5099989Y-1669922D01*
X5105069Y-1659509D01*
X5115483Y-1649095D01*
X5131231Y-1644014D01*
X5152059Y-1638935D01*
X5162219Y-1633601D01*
X5167553Y-1623187D01*
X5167553Y-1612772D01*
X5162219Y-1602359D01*
X5146725Y-1597279D01*
X5125897Y-1597279D01*
X7067550Y-1633601D02*
G01*
X7062215Y-1649095D01*
X7052056Y-1659509D01*
X7036308Y-1664843D01*
X7031227Y-1664843D01*
X7015479Y-1659509D01*
X7005065Y-1649095D01*
X6999986Y-1633601D01*
X6999986Y-1628520D01*
X7005065Y-1612772D01*
X7015479Y-1602359D01*
X7031227Y-1597279D01*
X7036308Y-1597279D01*
X7052056Y-1602359D01*
X7062215Y-1612772D01*
X7067550Y-1633601D01*
X7067550Y-1659509D01*
X7062215Y-1685670D01*
X7052056Y-1701164D01*
X7036308Y-1706245D01*
X7025893Y-1706245D01*
X7010400Y-1701164D01*
X7005065Y-1690751D01*
X6603987Y2553710D02*
G01*
X6603987Y2444744D01*
X6603987Y2553710D02*
G01*
X6650723Y2553710D01*
X6666217Y2548630D01*
X6671551Y2543296D01*
X6676631Y2532882D01*
X6676631Y2522468D01*
X6671551Y2512054D01*
X6666217Y2506974D01*
X6650723Y2501894D01*
X6603987Y2501894D01*
X6640309Y2501894D02*
G01*
X6676631Y2444744D01*
X6710921Y2532882D02*
G01*
X6721335Y2538216D01*
X6737083Y2553710D01*
X6737083Y2444744D01*
D11*
X6495727Y2341107D02*
G01*
X6443911Y2268463D01*
X6521635Y2268463D01*
X6495727Y2341107D02*
G01*
X6495727Y2232141D01*
X6561005Y2258049D02*
G01*
X6555925Y2252969D01*
X6561005Y2247635D01*
X6566339Y2252969D01*
X6561005Y2258049D01*
X6673019Y2341107D02*
G01*
X6621203Y2232141D01*
X6600375Y2341107D02*
G01*
X6673019Y2341107D01*
X6707309Y2341107D02*
G01*
X6707309Y2232141D01*
X6759125Y2304785D02*
G01*
X6707309Y2252969D01*
X6727883Y2273543D02*
G01*
X6764205Y2232141D01*
D10*
X6603987Y3061710D02*
G01*
X6603987Y2952744D01*
X6603987Y3061710D02*
G01*
X6650723Y3061710D01*
X6666217Y3056630D01*
X6671551Y3051296D01*
X6676631Y3040882D01*
X6676631Y3030468D01*
X6671551Y3020054D01*
X6666217Y3014974D01*
X6650723Y3009894D01*
X6603987Y3009894D01*
X6640309Y3009894D02*
G01*
X6676631Y2952744D01*
X6716255Y3035802D02*
G01*
X6716255Y3040882D01*
X6721335Y3051296D01*
X6726669Y3056630D01*
X6737083Y3061710D01*
X6757657Y3061710D01*
X6768071Y3056630D01*
X6773405Y3051296D01*
X6778485Y3040882D01*
X6778485Y3030468D01*
X6773405Y3020054D01*
X6762991Y3004560D01*
X6710921Y2952744D01*
X6783819Y2952744D01*
D11*
X6495727Y2849107D02*
G01*
X6443911Y2776463D01*
X6521635Y2776463D01*
X6495727Y2849107D02*
G01*
X6495727Y2740141D01*
X6561005Y2766049D02*
G01*
X6555925Y2760969D01*
X6561005Y2755635D01*
X6566339Y2760969D01*
X6561005Y2766049D01*
X6673019Y2849107D02*
G01*
X6621203Y2740141D01*
X6600375Y2849107D02*
G01*
X6673019Y2849107D01*
X6707309Y2849107D02*
G01*
X6707309Y2740141D01*
X6759125Y2812785D02*
G01*
X6707309Y2760969D01*
X6727883Y2781543D02*
G01*
X6764205Y2740141D01*
D10*
X6522186Y5436107D02*
G01*
X6522186Y5358129D01*
X6527266Y5342636D01*
X6537680Y5332221D01*
X6553428Y5327142D01*
X6563842Y5327142D01*
X6579336Y5332221D01*
X6589750Y5342636D01*
X6594830Y5358129D01*
X6594830Y5436107D01*
X6639534Y5436107D02*
G01*
X6696684Y5436107D01*
X6665696Y5394452D01*
X6681190Y5394452D01*
X6691604Y5389371D01*
X6696684Y5384292D01*
X6702018Y5368544D01*
X6702018Y5358129D01*
X6696684Y5342636D01*
X6686270Y5332221D01*
X6670776Y5327142D01*
X6655282Y5327142D01*
X6639534Y5332221D01*
X6634454Y5337302D01*
X6629120Y5347715D01*
D12*
X6373842Y5021201D02*
G01*
X6373842Y4939416D01*
X6379430Y4923157D01*
X6390352Y4912235D01*
X6406608Y4906650D01*
X6417530Y4906650D01*
X6434040Y4912235D01*
X6444962Y4923157D01*
X6450296Y4939416D01*
X6450296Y5021201D01*
X6562564Y5004948D02*
G01*
X6551896Y5015867D01*
X6535386Y5021201D01*
X6513542Y5021201D01*
X6497286Y5015867D01*
X6486364Y5004948D01*
X6486364Y4994026D01*
X6491698Y4983101D01*
X6497286Y4977767D01*
X6508208Y4972182D01*
X6540974Y4961257D01*
X6551896Y4955926D01*
X6557230Y4950335D01*
X6562564Y4939416D01*
X6562564Y4923157D01*
X6551896Y4912235D01*
X6535386Y4906650D01*
X6513542Y4906650D01*
X6497286Y4912235D01*
X6486364Y4923157D01*
X6598632Y5021201D02*
G01*
X6598632Y4906650D01*
X6598632Y5021201D02*
G01*
X6647908Y5021201D01*
X6664164Y5015867D01*
X6669498Y5010282D01*
X6675086Y4999357D01*
X6675086Y4988435D01*
X6669498Y4977767D01*
X6664164Y4972182D01*
X6647908Y4966848D01*
X6598632Y4966848D02*
G01*
X6647908Y4966848D01*
X6664164Y4961257D01*
X6669498Y4955926D01*
X6675086Y4945001D01*
X6675086Y4928491D01*
X6669498Y4917569D01*
X6664164Y4912235D01*
X6647908Y4906650D01*
X6598632Y4906650D01*
D13*
X5547697Y4774201D02*
G01*
X5619826Y4774201D01*
X5547697Y4774201D02*
G01*
X5547697Y4798242D01*
X5551136Y4808550D01*
X5558005Y4815431D01*
X5564875Y4818857D01*
X5575178Y4822283D01*
X5592353Y4822283D01*
X5602655Y4818857D01*
X5609518Y4815431D01*
X5616394Y4808550D01*
X5619826Y4798242D01*
X5619826Y4774201D01*
X5547697Y4865563D02*
G01*
X5551136Y4855255D01*
X5561436Y4848397D01*
X5578614Y4844948D01*
X5588916Y4844948D01*
X5606087Y4848397D01*
X5616394Y4855255D01*
X5619826Y4865563D01*
X5619826Y4872438D01*
X5616394Y4882746D01*
X5606087Y4889604D01*
X5588916Y4893040D01*
X5578614Y4893040D01*
X5561436Y4889604D01*
X5551136Y4882746D01*
X5547697Y4872438D01*
X5547697Y4865563D01*
X5547697Y4507501D02*
G01*
X5619826Y4507501D01*
X5547697Y4507501D02*
G01*
X5547697Y4531542D01*
X5551136Y4541850D01*
X5558005Y4548731D01*
X5564875Y4552157D01*
X5575178Y4555583D01*
X5592353Y4555583D01*
X5602655Y4552157D01*
X5609518Y4548731D01*
X5616394Y4541850D01*
X5619826Y4531542D01*
X5619826Y4507501D01*
X5561436Y4578248D02*
G01*
X5558005Y4585124D01*
X5547697Y4595431D01*
X5619826Y4595431D01*
X5547697Y4266201D02*
G01*
X5619826Y4266201D01*
X5547697Y4266201D02*
G01*
X5547697Y4290242D01*
X5551136Y4300550D01*
X5558005Y4307431D01*
X5564875Y4310857D01*
X5575178Y4314283D01*
X5592353Y4314283D01*
X5602655Y4310857D01*
X5609518Y4307431D01*
X5616394Y4300550D01*
X5619826Y4290242D01*
X5619826Y4266201D01*
X5564875Y4340397D02*
G01*
X5561436Y4340397D01*
X5554568Y4343824D01*
X5551136Y4347255D01*
X5547697Y4354131D01*
X5547697Y4367870D01*
X5551136Y4374746D01*
X5554568Y4378177D01*
X5561436Y4381604D01*
X5568307Y4381604D01*
X5575178Y4378177D01*
X5585477Y4371296D01*
X5619826Y4336948D01*
X5619826Y4385040D01*
X5547697Y4012201D02*
G01*
X5619826Y4012201D01*
X5547697Y4012201D02*
G01*
X5547697Y4036242D01*
X5551136Y4046550D01*
X5558005Y4053431D01*
X5564875Y4056857D01*
X5575178Y4060283D01*
X5592353Y4060283D01*
X5602655Y4056857D01*
X5609518Y4053431D01*
X5616394Y4046550D01*
X5619826Y4036242D01*
X5619826Y4012201D01*
X5547697Y4089824D02*
G01*
X5547697Y4127604D01*
X5575178Y4106999D01*
X5575178Y4117296D01*
X5578614Y4124177D01*
X5582046Y4127604D01*
X5592353Y4131040D01*
X5599224Y4131040D01*
X5609518Y4127604D01*
X5616394Y4120746D01*
X5619826Y4110438D01*
X5619826Y4100131D01*
X5616394Y4089824D01*
X5612963Y4086397D01*
X5606087Y4082948D01*
X5547697Y3745501D02*
G01*
X5619826Y3745501D01*
X5547697Y3745501D02*
G01*
X5547697Y3769542D01*
X5551136Y3779850D01*
X5558005Y3786731D01*
X5564875Y3790157D01*
X5575178Y3793583D01*
X5592353Y3793583D01*
X5602655Y3790157D01*
X5609518Y3786731D01*
X5616394Y3779850D01*
X5619826Y3769542D01*
X5619826Y3745501D01*
X5547697Y3850596D02*
G01*
X5595780Y3816248D01*
X5595780Y3867772D01*
X5547697Y3850596D02*
G01*
X5619826Y3850596D01*
X5547697Y3504201D02*
G01*
X5619826Y3504201D01*
X5547697Y3504201D02*
G01*
X5547697Y3528242D01*
X5551136Y3538550D01*
X5558005Y3545431D01*
X5564875Y3548857D01*
X5575178Y3552283D01*
X5592353Y3552283D01*
X5602655Y3548857D01*
X5609518Y3545431D01*
X5616394Y3538550D01*
X5619826Y3528242D01*
X5619826Y3504201D01*
X5547697Y3616177D02*
G01*
X5547697Y3581824D01*
X5578614Y3578397D01*
X5575178Y3581824D01*
X5571738Y3592131D01*
X5571738Y3602438D01*
X5575178Y3612746D01*
X5582046Y3619604D01*
X5592353Y3623040D01*
X5599224Y3623040D01*
X5609518Y3619604D01*
X5616394Y3612746D01*
X5619826Y3602438D01*
X5619826Y3592131D01*
X5616394Y3581824D01*
X5612963Y3578397D01*
X5606087Y3574948D01*
X5547697Y3250201D02*
G01*
X5619826Y3250201D01*
X5547697Y3250201D02*
G01*
X5547697Y3274242D01*
X5551136Y3284550D01*
X5558005Y3291431D01*
X5564875Y3294857D01*
X5575178Y3298283D01*
X5592353Y3298283D01*
X5602655Y3294857D01*
X5609518Y3291431D01*
X5616394Y3284550D01*
X5619826Y3274242D01*
X5619826Y3250201D01*
X5558005Y3362177D02*
G01*
X5551136Y3358746D01*
X5547697Y3348438D01*
X5547697Y3341563D01*
X5551136Y3331255D01*
X5561436Y3324397D01*
X5578614Y3320948D01*
X5595780Y3320948D01*
X5609518Y3324397D01*
X5616394Y3331255D01*
X5619826Y3341563D01*
X5619826Y3344999D01*
X5616394Y3355296D01*
X5609518Y3362177D01*
X5599224Y3365604D01*
X5595780Y3365604D01*
X5585477Y3362177D01*
X5578614Y3355296D01*
X5575178Y3344999D01*
X5575178Y3341563D01*
X5578614Y3331255D01*
X5585477Y3324397D01*
X5595780Y3320948D01*
X7472692Y3250201D02*
G01*
X7544821Y3250201D01*
X7472692Y3250201D02*
G01*
X7472692Y3274242D01*
X7476121Y3284550D01*
X7483000Y3291408D01*
X7489858Y3294839D01*
X7500165Y3298289D01*
X7517348Y3298289D01*
X7527655Y3294839D01*
X7534513Y3291408D01*
X7541394Y3284550D01*
X7544821Y3274242D01*
X7544821Y3250201D01*
X7472692Y3369035D02*
G01*
X7544821Y3334705D01*
X7472692Y3320948D02*
G01*
X7472692Y3369035D01*
X7472692Y3516901D02*
G01*
X7544821Y3516901D01*
X7472692Y3516901D02*
G01*
X7472692Y3540942D01*
X7476121Y3551250D01*
X7483000Y3558108D01*
X7489858Y3561539D01*
X7500165Y3564989D01*
X7517348Y3564989D01*
X7527655Y3561539D01*
X7534513Y3558108D01*
X7541394Y3551250D01*
X7544821Y3540942D01*
X7544821Y3516901D01*
X7472692Y3604813D02*
G01*
X7476121Y3594511D01*
X7483000Y3591097D01*
X7489858Y3591097D01*
X7496736Y3594511D01*
X7500165Y3601405D01*
X7503591Y3615121D01*
X7507043Y3625428D01*
X7513899Y3632327D01*
X7520779Y3635735D01*
X7531087Y3635735D01*
X7537940Y3632327D01*
X7541394Y3628859D01*
X7544821Y3618570D01*
X7544821Y3604813D01*
X7541394Y3594511D01*
X7537940Y3591097D01*
X7531087Y3587648D01*
X7520779Y3587648D01*
X7513899Y3591097D01*
X7507043Y3597955D01*
X7503591Y3608263D01*
X7500165Y3622019D01*
X7496736Y3628859D01*
X7489858Y3632327D01*
X7483000Y3632327D01*
X7476121Y3628859D01*
X7472692Y3618570D01*
X7472692Y3604813D01*
X7472692Y3775196D02*
G01*
X7544821Y3775196D01*
X7472692Y3775196D02*
G01*
X7472692Y3799238D01*
X7476121Y3809545D01*
X7483000Y3816403D01*
X7489858Y3819834D01*
X7500165Y3823284D01*
X7517348Y3823284D01*
X7527655Y3819834D01*
X7534513Y3816403D01*
X7541394Y3809545D01*
X7544821Y3799238D01*
X7544821Y3775196D01*
X7496736Y3890622D02*
G01*
X7507043Y3887155D01*
X7513899Y3880314D01*
X7517348Y3870007D01*
X7517348Y3866558D01*
X7513899Y3856250D01*
X7507043Y3849392D01*
X7496736Y3845943D01*
X7493307Y3845943D01*
X7483000Y3849392D01*
X7476121Y3856250D01*
X7472692Y3866558D01*
X7472692Y3870007D01*
X7476121Y3880314D01*
X7483000Y3887155D01*
X7496736Y3890622D01*
X7513899Y3890622D01*
X7531087Y3887155D01*
X7541394Y3880314D01*
X7544821Y3870007D01*
X7544821Y3863108D01*
X7541394Y3852806D01*
X7534513Y3849392D01*
X7472692Y4000197D02*
G01*
X7544821Y4000197D01*
X7472692Y4000197D02*
G01*
X7472692Y4024238D01*
X7476121Y4034546D01*
X7483000Y4041404D01*
X7489858Y4044838D01*
X7500165Y4048287D01*
X7517348Y4048287D01*
X7527655Y4044838D01*
X7534513Y4041404D01*
X7541394Y4034546D01*
X7544821Y4024238D01*
X7544821Y4000197D01*
X7486429Y4070944D02*
G01*
X7483000Y4077809D01*
X7472692Y4088109D01*
X7544821Y4088109D01*
X7472692Y4131406D02*
G01*
X7476121Y4121099D01*
X7486429Y4114223D01*
X7503591Y4110814D01*
X7513899Y4110814D01*
X7531087Y4114223D01*
X7541394Y4121099D01*
X7544821Y4131406D01*
X7544821Y4138264D01*
X7541394Y4148571D01*
X7531087Y4155437D01*
X7513899Y4158879D01*
X7503591Y4158879D01*
X7486429Y4155437D01*
X7476121Y4148571D01*
X7472692Y4138264D01*
X7472692Y4131406D01*
X7472715Y4232054D02*
G01*
X7472715Y4269828D01*
X7500170Y4249237D01*
X7500170Y4259544D01*
X7503637Y4266402D01*
X7507046Y4269828D01*
X7517353Y4273283D01*
X7524229Y4273283D01*
X7534513Y4269828D01*
X7541394Y4262975D01*
X7544821Y4252668D01*
X7544821Y4242361D01*
X7541394Y4232054D01*
X7537968Y4228627D01*
X7531087Y4225196D01*
X7472715Y4295942D02*
G01*
X7544821Y4323415D01*
X7472715Y4350910D02*
G01*
X7544821Y4323415D01*
X7472715Y4380450D02*
G01*
X7472715Y4418225D01*
X7500170Y4397611D01*
X7500170Y4407918D01*
X7503637Y4414799D01*
X7507046Y4418225D01*
X7517353Y4421657D01*
X7524229Y4421657D01*
X7534513Y4418225D01*
X7541394Y4411350D01*
X7544821Y4401042D01*
X7544821Y4390758D01*
X7541394Y4380450D01*
X7537968Y4376996D01*
X7531087Y4373570D01*
X7489858Y4526711D02*
G01*
X7483000Y4523285D01*
X7476121Y4516404D01*
X7472692Y4509546D01*
X7472692Y4495789D01*
X7476121Y4488954D01*
X7483000Y4482056D01*
X7489858Y4478647D01*
X7500165Y4475198D01*
X7517348Y4475198D01*
X7527655Y4478647D01*
X7534513Y4482056D01*
X7541394Y4488954D01*
X7544821Y4495789D01*
X7544821Y4509546D01*
X7541394Y4516404D01*
X7534513Y4523285D01*
X7527655Y4526711D01*
X7517348Y4526711D01*
X7517348Y4509546D02*
G01*
X7517348Y4526711D01*
X7472692Y4549394D02*
G01*
X7544821Y4549394D01*
X7472692Y4549394D02*
G01*
X7544821Y4597458D01*
X7472692Y4597458D02*
G01*
X7544821Y4597458D01*
X7472692Y4620145D02*
G01*
X7544821Y4620145D01*
X7472692Y4620145D02*
G01*
X7472692Y4644186D01*
X7476121Y4654494D01*
X7483000Y4661352D01*
X7489858Y4664778D01*
X7500165Y4668227D01*
X7517348Y4668227D01*
X7527655Y4664778D01*
X7534513Y4661352D01*
X7541394Y4654494D01*
X7544821Y4644186D01*
X7544821Y4620145D01*
X7472626Y4816304D02*
G01*
X7472626Y4782014D01*
X7503614Y4778712D01*
X7500312Y4782014D01*
X7496756Y4792428D01*
X7496756Y4802588D01*
X7500312Y4813005D01*
X7507170Y4819863D01*
X7517330Y4823162D01*
X7524188Y4823162D01*
X7534602Y4819863D01*
X7541460Y4813005D01*
X7544762Y4802588D01*
X7544762Y4792428D01*
X7541460Y4782014D01*
X7537904Y4778712D01*
X7531046Y4775156D01*
X7472626Y4846022D02*
G01*
X7544762Y4873454D01*
X7472626Y4900886D02*
G01*
X7544762Y4873454D01*
D10*
X3799992Y5167706D02*
G01*
X3799992Y5089728D01*
X3805072Y5074234D01*
X3815486Y5063820D01*
X3831234Y5058740D01*
X3841648Y5058740D01*
X3857142Y5063820D01*
X3867556Y5074234D01*
X3872636Y5089728D01*
X3872636Y5167706D01*
X3958996Y5167706D02*
G01*
X3906926Y5095062D01*
X3984904Y5095062D01*
X3958996Y5167706D02*
G01*
X3958996Y5058740D01*
D14*
X2437993Y2061997D02*
G01*
X3961993Y2061997D01*
X3961993Y537997D01*
X2437993Y537997D01*
X2437993Y2061997D01*
X4337989Y2061997D02*
G01*
X5861989Y2061997D01*
X5861989Y537997D01*
X4337989Y537997D01*
X4337989Y2061997D01*
X6237986Y2061997D02*
G01*
X7761986Y2061997D01*
X7761986Y537997D01*
X6237986Y537997D01*
X6237986Y2061997D01*
X2437993Y162001D02*
G01*
X3961993Y162001D01*
X3961993Y-1361998D01*
X2437993Y-1361998D01*
X2437993Y162001D01*
X4337989Y162001D02*
G01*
X5861989Y162001D01*
X5861989Y-1361998D01*
X4337989Y-1361998D01*
X4337989Y162001D01*
X6237986Y162001D02*
G01*
X7761986Y162001D01*
X7761986Y-1361998D01*
X6237986Y-1361998D01*
X6237986Y162001D01*
X2437993Y-1737995D02*
G01*
X3961993Y-1737995D01*
X3961993Y-3261995D01*
X2437993Y-3261995D01*
X2437993Y-1737995D01*
X4337989Y-1737995D02*
G01*
X5861989Y-1737995D01*
X5861989Y-3261995D01*
X4337989Y-3261995D01*
X4337989Y-1737995D01*
X6237986Y-1737995D02*
G01*
X7761986Y-1737995D01*
X7761986Y-3261995D01*
X6237986Y-3261995D01*
X6237986Y-1737995D01*
D15*
X6095987Y2285994D02*
G01*
X6273787Y2285994D01*
X6934187Y2285994D02*
G01*
X7111987Y2285994D01*
X6845287Y2184394D02*
G01*
X6362687Y2184394D01*
X6845287Y2184394D02*
G01*
X6857987Y2171694D01*
X6896087Y2171694D02*
G01*
X6857987Y2171694D01*
X6286487Y2197094D02*
G01*
X6286487Y2374894D01*
X6311887Y2400294D02*
G01*
X6349987Y2400294D01*
X6362687Y2387594D02*
G01*
X6349987Y2400294D01*
X6311887Y2171694D02*
G01*
X6349987Y2171694D01*
X6362687Y2184394D02*
G01*
X6349987Y2171694D01*
X6845287Y2387594D02*
G01*
X6857987Y2400294D01*
X6845287Y2387594D02*
G01*
X6362687Y2387594D01*
X6896087Y2400294D02*
G01*
X6857987Y2400294D01*
X6921487Y2197094D02*
G01*
X6921487Y2374894D01*
X6095987Y2793994D02*
G01*
X6273787Y2793994D01*
X6934187Y2793994D02*
G01*
X7111987Y2793994D01*
X6845287Y2692394D02*
G01*
X6362687Y2692394D01*
X6845287Y2692394D02*
G01*
X6857987Y2679694D01*
X6896087Y2679694D02*
G01*
X6857987Y2679694D01*
X6286487Y2705094D02*
G01*
X6286487Y2882894D01*
X6311887Y2908294D02*
G01*
X6349987Y2908294D01*
X6362687Y2895594D02*
G01*
X6349987Y2908294D01*
X6311887Y2679694D02*
G01*
X6349987Y2679694D01*
X6362687Y2692394D02*
G01*
X6349987Y2679694D01*
X6845287Y2895594D02*
G01*
X6857987Y2908294D01*
X6845287Y2895594D02*
G01*
X6362687Y2895594D01*
X6896087Y2908294D02*
G01*
X6857987Y2908294D01*
X6921487Y2705094D02*
G01*
X6921487Y2882894D01*
D10*
X6096736Y5282692D02*
G01*
X6998436Y5282692D01*
X6998436Y4546092D01*
X6096736Y4546092D01*
X6096736Y5282692D01*
D15*
X7246086Y5130292D02*
G01*
X5849086Y5130292D01*
X7436586Y3225292D02*
G01*
X7436586Y4939792D01*
X7246086Y3034792D02*
G01*
X5849086Y3034792D01*
X5658586Y3225292D02*
G01*
X5658586Y4939792D01*
D14*
X5658586Y4965192D02*
G01*
X5912586Y4965192D01*
X5912586Y3187192D01*
X5658586Y3187192D01*
X5658586Y4965192D01*
X7182586Y3187192D02*
G01*
X7436586Y3187192D01*
X7436586Y4965192D01*
X7182586Y4965192D01*
X7182586Y3187192D01*
D15*
X2402992Y5026990D02*
G01*
X5196992Y5026990D01*
X5196992Y2232990D01*
X2402992Y2232990D01*
X2402992Y5026990D01*
G75*
G01*
X6286487Y2374895D02*
G02*
X6311887Y2400295I25400J0D01*
G75*
G01*
X6286487Y2197095D02*
G03*
X6311887Y2171695I25400J0D01*
G75*
G01*
X6896087Y2171695D02*
G03*
X6921487Y2197095I0J25400D01*
G75*
G01*
X6896087Y2400295D02*
G02*
X6921487Y2374895I0J-25400D01*
G75*
G01*
X6286487Y2882895D02*
G02*
X6311887Y2908295I25400J0D01*
G75*
G01*
X6286487Y2705095D02*
G03*
X6311887Y2679695I25400J0D01*
G75*
G01*
X6896087Y2679695D02*
G03*
X6921487Y2705095I0J25400D01*
G75*
G01*
X6896087Y2908295D02*
G02*
X6921487Y2882895I0J-25400D01*
G75*
G01*
X5849087Y5130292D02*
G03*
X5658587Y4939792I0J-190500D01*
G75*
G01*
X7436587Y4939792D02*
G03*
X7246087Y5130292I-190500J0D01*
G75*
G01*
X7246087Y3034792D02*
G03*
X7436587Y3225292I0J190500D01*
G75*
G01*
X5658587Y3225292D02*
G03*
X5849087Y3034792I190500J0D01*
M02*
