%TF.GenerationSoftware,KiCad,Pcbnew,9.0.0*%
%TF.CreationDate,2025-02-21T00:47:10+00:00*%
%TF.ProjectId,hackpadtrollface,6861636b-7061-4647-9472-6f6c6c666163,rev?*%
%TF.SameCoordinates,Original*%
%TF.FileFunction,Legend,Top*%
%TF.FilePolarity,Positive*%
%FSLAX46Y46*%
G04 Gerber Fmt 4.6, Leading zero omitted, Abs format (unit mm)*
G04 Created by KiCad (PCBNEW 9.0.0) date 2025-02-21 00:47:10*
%MOMM*%
%LPD*%
G01*
G04 APERTURE LIST*
%ADD10C,0.300000*%
%ADD11C,0.150000*%
%ADD12C,0.120000*%
%ADD13C,0.127000*%
%ADD14C,0.100000*%
%ADD15C,0.504000*%
G04 APERTURE END LIST*
D10*
X110611653Y-35900828D02*
X111611653Y-37400828D01*
X111611653Y-35900828D02*
X110611653Y-37400828D01*
X112183081Y-37400828D02*
X112183081Y-35900828D01*
X112825939Y-36972257D02*
X113540225Y-36972257D01*
X112683082Y-37400828D02*
X113183082Y-35900828D01*
X113183082Y-35900828D02*
X113683082Y-37400828D01*
X114468796Y-35900828D02*
X114754510Y-35900828D01*
X114754510Y-35900828D02*
X114897367Y-35972257D01*
X114897367Y-35972257D02*
X115040224Y-36115114D01*
X115040224Y-36115114D02*
X115111653Y-36400828D01*
X115111653Y-36400828D02*
X115111653Y-36900828D01*
X115111653Y-36900828D02*
X115040224Y-37186542D01*
X115040224Y-37186542D02*
X114897367Y-37329400D01*
X114897367Y-37329400D02*
X114754510Y-37400828D01*
X114754510Y-37400828D02*
X114468796Y-37400828D01*
X114468796Y-37400828D02*
X114325939Y-37329400D01*
X114325939Y-37329400D02*
X114183081Y-37186542D01*
X114183081Y-37186542D02*
X114111653Y-36900828D01*
X114111653Y-36900828D02*
X114111653Y-36400828D01*
X114111653Y-36400828D02*
X114183081Y-36115114D01*
X114183081Y-36115114D02*
X114325939Y-35972257D01*
X114325939Y-35972257D02*
X114468796Y-35900828D01*
X116897367Y-37400828D02*
X116897367Y-35900828D01*
X116897367Y-36615114D02*
X117754510Y-36615114D01*
X117754510Y-37400828D02*
X117754510Y-35900828D01*
X118468796Y-36615114D02*
X118968796Y-36615114D01*
X119183082Y-37400828D02*
X118468796Y-37400828D01*
X118468796Y-37400828D02*
X118468796Y-35900828D01*
X118468796Y-35900828D02*
X119183082Y-35900828D01*
X120683082Y-37400828D02*
X120183082Y-36686542D01*
X119825939Y-37400828D02*
X119825939Y-35900828D01*
X119825939Y-35900828D02*
X120397368Y-35900828D01*
X120397368Y-35900828D02*
X120540225Y-35972257D01*
X120540225Y-35972257D02*
X120611654Y-36043685D01*
X120611654Y-36043685D02*
X120683082Y-36186542D01*
X120683082Y-36186542D02*
X120683082Y-36400828D01*
X120683082Y-36400828D02*
X120611654Y-36543685D01*
X120611654Y-36543685D02*
X120540225Y-36615114D01*
X120540225Y-36615114D02*
X120397368Y-36686542D01*
X120397368Y-36686542D02*
X119825939Y-36686542D01*
X121325939Y-36615114D02*
X121825939Y-36615114D01*
X122040225Y-37400828D02*
X121325939Y-37400828D01*
X121325939Y-37400828D02*
X121325939Y-35900828D01*
X121325939Y-35900828D02*
X122040225Y-35900828D01*
D11*
X118791417Y-45952700D02*
X118934274Y-46000319D01*
X118934274Y-46000319D02*
X119172369Y-46000319D01*
X119172369Y-46000319D02*
X119267607Y-45952700D01*
X119267607Y-45952700D02*
X119315226Y-45905080D01*
X119315226Y-45905080D02*
X119362845Y-45809842D01*
X119362845Y-45809842D02*
X119362845Y-45714604D01*
X119362845Y-45714604D02*
X119315226Y-45619366D01*
X119315226Y-45619366D02*
X119267607Y-45571747D01*
X119267607Y-45571747D02*
X119172369Y-45524128D01*
X119172369Y-45524128D02*
X118981893Y-45476509D01*
X118981893Y-45476509D02*
X118886655Y-45428890D01*
X118886655Y-45428890D02*
X118839036Y-45381271D01*
X118839036Y-45381271D02*
X118791417Y-45286033D01*
X118791417Y-45286033D02*
X118791417Y-45190795D01*
X118791417Y-45190795D02*
X118839036Y-45095557D01*
X118839036Y-45095557D02*
X118886655Y-45047938D01*
X118886655Y-45047938D02*
X118981893Y-45000319D01*
X118981893Y-45000319D02*
X119219988Y-45000319D01*
X119219988Y-45000319D02*
X119362845Y-45047938D01*
X119696179Y-45000319D02*
X119934274Y-46000319D01*
X119934274Y-46000319D02*
X120124750Y-45286033D01*
X120124750Y-45286033D02*
X120315226Y-46000319D01*
X120315226Y-46000319D02*
X120553322Y-45000319D01*
X120886655Y-45095557D02*
X120934274Y-45047938D01*
X120934274Y-45047938D02*
X121029512Y-45000319D01*
X121029512Y-45000319D02*
X121267607Y-45000319D01*
X121267607Y-45000319D02*
X121362845Y-45047938D01*
X121362845Y-45047938D02*
X121410464Y-45095557D01*
X121410464Y-45095557D02*
X121458083Y-45190795D01*
X121458083Y-45190795D02*
X121458083Y-45286033D01*
X121458083Y-45286033D02*
X121410464Y-45428890D01*
X121410464Y-45428890D02*
X120839036Y-46000319D01*
X120839036Y-46000319D02*
X121458083Y-46000319D01*
X105822917Y-75876950D02*
X105965774Y-75924569D01*
X105965774Y-75924569D02*
X106203869Y-75924569D01*
X106203869Y-75924569D02*
X106299107Y-75876950D01*
X106299107Y-75876950D02*
X106346726Y-75829330D01*
X106346726Y-75829330D02*
X106394345Y-75734092D01*
X106394345Y-75734092D02*
X106394345Y-75638854D01*
X106394345Y-75638854D02*
X106346726Y-75543616D01*
X106346726Y-75543616D02*
X106299107Y-75495997D01*
X106299107Y-75495997D02*
X106203869Y-75448378D01*
X106203869Y-75448378D02*
X106013393Y-75400759D01*
X106013393Y-75400759D02*
X105918155Y-75353140D01*
X105918155Y-75353140D02*
X105870536Y-75305521D01*
X105870536Y-75305521D02*
X105822917Y-75210283D01*
X105822917Y-75210283D02*
X105822917Y-75115045D01*
X105822917Y-75115045D02*
X105870536Y-75019807D01*
X105870536Y-75019807D02*
X105918155Y-74972188D01*
X105918155Y-74972188D02*
X106013393Y-74924569D01*
X106013393Y-74924569D02*
X106251488Y-74924569D01*
X106251488Y-74924569D02*
X106394345Y-74972188D01*
X106727679Y-74924569D02*
X106965774Y-75924569D01*
X106965774Y-75924569D02*
X107156250Y-75210283D01*
X107156250Y-75210283D02*
X107346726Y-75924569D01*
X107346726Y-75924569D02*
X107584822Y-74924569D01*
X107870536Y-74924569D02*
X108489583Y-74924569D01*
X108489583Y-74924569D02*
X108156250Y-75305521D01*
X108156250Y-75305521D02*
X108299107Y-75305521D01*
X108299107Y-75305521D02*
X108394345Y-75353140D01*
X108394345Y-75353140D02*
X108441964Y-75400759D01*
X108441964Y-75400759D02*
X108489583Y-75495997D01*
X108489583Y-75495997D02*
X108489583Y-75734092D01*
X108489583Y-75734092D02*
X108441964Y-75829330D01*
X108441964Y-75829330D02*
X108394345Y-75876950D01*
X108394345Y-75876950D02*
X108299107Y-75924569D01*
X108299107Y-75924569D02*
X108013393Y-75924569D01*
X108013393Y-75924569D02*
X107918155Y-75876950D01*
X107918155Y-75876950D02*
X107870536Y-75829330D01*
X100811905Y-40779819D02*
X100811905Y-39779819D01*
X100811905Y-39779819D02*
X101050000Y-39779819D01*
X101050000Y-39779819D02*
X101192857Y-39827438D01*
X101192857Y-39827438D02*
X101288095Y-39922676D01*
X101288095Y-39922676D02*
X101335714Y-40017914D01*
X101335714Y-40017914D02*
X101383333Y-40208390D01*
X101383333Y-40208390D02*
X101383333Y-40351247D01*
X101383333Y-40351247D02*
X101335714Y-40541723D01*
X101335714Y-40541723D02*
X101288095Y-40636961D01*
X101288095Y-40636961D02*
X101192857Y-40732200D01*
X101192857Y-40732200D02*
X101050000Y-40779819D01*
X101050000Y-40779819D02*
X100811905Y-40779819D01*
X102335714Y-40779819D02*
X101764286Y-40779819D01*
X102050000Y-40779819D02*
X102050000Y-39779819D01*
X102050000Y-39779819D02*
X101954762Y-39922676D01*
X101954762Y-39922676D02*
X101859524Y-40017914D01*
X101859524Y-40017914D02*
X101764286Y-40065533D01*
X98578571Y-42562295D02*
X98121428Y-42562295D01*
X98350000Y-42562295D02*
X98350000Y-41762295D01*
X98350000Y-41762295D02*
X98273809Y-41876580D01*
X98273809Y-41876580D02*
X98197619Y-41952771D01*
X98197619Y-41952771D02*
X98121428Y-41990866D01*
X124872917Y-75876950D02*
X125015774Y-75924569D01*
X125015774Y-75924569D02*
X125253869Y-75924569D01*
X125253869Y-75924569D02*
X125349107Y-75876950D01*
X125349107Y-75876950D02*
X125396726Y-75829330D01*
X125396726Y-75829330D02*
X125444345Y-75734092D01*
X125444345Y-75734092D02*
X125444345Y-75638854D01*
X125444345Y-75638854D02*
X125396726Y-75543616D01*
X125396726Y-75543616D02*
X125349107Y-75495997D01*
X125349107Y-75495997D02*
X125253869Y-75448378D01*
X125253869Y-75448378D02*
X125063393Y-75400759D01*
X125063393Y-75400759D02*
X124968155Y-75353140D01*
X124968155Y-75353140D02*
X124920536Y-75305521D01*
X124920536Y-75305521D02*
X124872917Y-75210283D01*
X124872917Y-75210283D02*
X124872917Y-75115045D01*
X124872917Y-75115045D02*
X124920536Y-75019807D01*
X124920536Y-75019807D02*
X124968155Y-74972188D01*
X124968155Y-74972188D02*
X125063393Y-74924569D01*
X125063393Y-74924569D02*
X125301488Y-74924569D01*
X125301488Y-74924569D02*
X125444345Y-74972188D01*
X125777679Y-74924569D02*
X126015774Y-75924569D01*
X126015774Y-75924569D02*
X126206250Y-75210283D01*
X126206250Y-75210283D02*
X126396726Y-75924569D01*
X126396726Y-75924569D02*
X126634822Y-74924569D01*
X127444345Y-75257902D02*
X127444345Y-75924569D01*
X127206250Y-74876950D02*
X126968155Y-75591235D01*
X126968155Y-75591235D02*
X127587202Y-75591235D01*
X130761905Y-40804819D02*
X130761905Y-39804819D01*
X130761905Y-39804819D02*
X131000000Y-39804819D01*
X131000000Y-39804819D02*
X131142857Y-39852438D01*
X131142857Y-39852438D02*
X131238095Y-39947676D01*
X131238095Y-39947676D02*
X131285714Y-40042914D01*
X131285714Y-40042914D02*
X131333333Y-40233390D01*
X131333333Y-40233390D02*
X131333333Y-40376247D01*
X131333333Y-40376247D02*
X131285714Y-40566723D01*
X131285714Y-40566723D02*
X131238095Y-40661961D01*
X131238095Y-40661961D02*
X131142857Y-40757200D01*
X131142857Y-40757200D02*
X131000000Y-40804819D01*
X131000000Y-40804819D02*
X130761905Y-40804819D01*
X131714286Y-39900057D02*
X131761905Y-39852438D01*
X131761905Y-39852438D02*
X131857143Y-39804819D01*
X131857143Y-39804819D02*
X132095238Y-39804819D01*
X132095238Y-39804819D02*
X132190476Y-39852438D01*
X132190476Y-39852438D02*
X132238095Y-39900057D01*
X132238095Y-39900057D02*
X132285714Y-39995295D01*
X132285714Y-39995295D02*
X132285714Y-40090533D01*
X132285714Y-40090533D02*
X132238095Y-40233390D01*
X132238095Y-40233390D02*
X131666667Y-40804819D01*
X131666667Y-40804819D02*
X132285714Y-40804819D01*
X128528571Y-42587295D02*
X128071428Y-42587295D01*
X128300000Y-42587295D02*
X128300000Y-41787295D01*
X128300000Y-41787295D02*
X128223809Y-41901580D01*
X128223809Y-41901580D02*
X128147619Y-41977771D01*
X128147619Y-41977771D02*
X128071428Y-42015866D01*
X105822917Y-56826950D02*
X105965774Y-56874569D01*
X105965774Y-56874569D02*
X106203869Y-56874569D01*
X106203869Y-56874569D02*
X106299107Y-56826950D01*
X106299107Y-56826950D02*
X106346726Y-56779330D01*
X106346726Y-56779330D02*
X106394345Y-56684092D01*
X106394345Y-56684092D02*
X106394345Y-56588854D01*
X106394345Y-56588854D02*
X106346726Y-56493616D01*
X106346726Y-56493616D02*
X106299107Y-56445997D01*
X106299107Y-56445997D02*
X106203869Y-56398378D01*
X106203869Y-56398378D02*
X106013393Y-56350759D01*
X106013393Y-56350759D02*
X105918155Y-56303140D01*
X105918155Y-56303140D02*
X105870536Y-56255521D01*
X105870536Y-56255521D02*
X105822917Y-56160283D01*
X105822917Y-56160283D02*
X105822917Y-56065045D01*
X105822917Y-56065045D02*
X105870536Y-55969807D01*
X105870536Y-55969807D02*
X105918155Y-55922188D01*
X105918155Y-55922188D02*
X106013393Y-55874569D01*
X106013393Y-55874569D02*
X106251488Y-55874569D01*
X106251488Y-55874569D02*
X106394345Y-55922188D01*
X106727679Y-55874569D02*
X106965774Y-56874569D01*
X106965774Y-56874569D02*
X107156250Y-56160283D01*
X107156250Y-56160283D02*
X107346726Y-56874569D01*
X107346726Y-56874569D02*
X107584822Y-55874569D01*
X108489583Y-56874569D02*
X107918155Y-56874569D01*
X108203869Y-56874569D02*
X108203869Y-55874569D01*
X108203869Y-55874569D02*
X108108631Y-56017426D01*
X108108631Y-56017426D02*
X108013393Y-56112664D01*
X108013393Y-56112664D02*
X107918155Y-56160283D01*
D12*
%TO.C,SW2*%
X119221250Y-57467500D02*
X133191250Y-57467500D01*
X119221250Y-71437500D02*
X119221250Y-57467500D01*
X133191250Y-57467500D02*
X133191250Y-71437500D01*
X133191250Y-71437500D02*
X119221250Y-71437500D01*
%TO.C,SW3*%
X100171250Y-76358750D02*
X114141250Y-76358750D01*
X100171250Y-90328750D02*
X100171250Y-76358750D01*
X114141250Y-76358750D02*
X114141250Y-90328750D01*
X114141250Y-90328750D02*
X100171250Y-90328750D01*
%TO.C,D1*%
X98750000Y-41075000D02*
X98750000Y-45075000D01*
X98750000Y-41075000D02*
X104350000Y-41075000D01*
X98750000Y-45075000D02*
X103750000Y-45075000D01*
X104350000Y-44475000D02*
X103750000Y-45075000D01*
X104350000Y-44475000D02*
X104350000Y-41075000D01*
%TO.C,SW4*%
X119221250Y-76358750D02*
X133191250Y-76358750D01*
X119221250Y-90328750D02*
X119221250Y-76358750D01*
X133191250Y-76358750D02*
X133191250Y-90328750D01*
X133191250Y-90328750D02*
X119221250Y-90328750D01*
%TO.C,D2*%
X128700000Y-41100000D02*
X128700000Y-45100000D01*
X128700000Y-41100000D02*
X134300000Y-41100000D01*
X128700000Y-45100000D02*
X133700000Y-45100000D01*
X134300000Y-44500000D02*
X133700000Y-45100000D01*
X134300000Y-44500000D02*
X134300000Y-41100000D01*
D13*
%TO.C,U1*%
X107110000Y-51709000D02*
X107110000Y-34564000D01*
X109015000Y-53614000D02*
X122985000Y-53614000D01*
X111505000Y-32659000D02*
X111508728Y-31748728D01*
X112008728Y-31249000D02*
X120004000Y-31249000D01*
X120504000Y-31749000D02*
X120504000Y-32659000D01*
D14*
X122985000Y-32659000D02*
X109015000Y-32659000D01*
D13*
X122985000Y-32659000D02*
X109015000Y-32659000D01*
X124890000Y-51709000D02*
X124890000Y-34564000D01*
X107110000Y-34564000D02*
G75*
G02*
X109015000Y-32659000I1905001J-1D01*
G01*
X109015000Y-53614000D02*
G75*
G02*
X107110000Y-51709000I1J1905001D01*
G01*
X111508728Y-31748728D02*
G75*
G02*
X112008728Y-31249001I500018J-291D01*
G01*
X120004000Y-31249000D02*
G75*
G02*
X120504000Y-31749000I0J-500000D01*
G01*
X122985000Y-32659000D02*
G75*
G02*
X124890000Y-34564000I0J-1905000D01*
G01*
X124890000Y-51709000D02*
G75*
G02*
X122985000Y-53614000I-1905000J0D01*
G01*
D15*
X107302000Y-32900000D02*
G75*
G02*
X106798000Y-32900000I-252000J0D01*
G01*
X106798000Y-32900000D02*
G75*
G02*
X107302000Y-32900000I252000J0D01*
G01*
X108445000Y-33780000D02*
G75*
G02*
X107941000Y-33780000I-252000J0D01*
G01*
X107941000Y-33780000D02*
G75*
G02*
X108445000Y-33780000I252000J0D01*
G01*
D12*
%TO.C,SW1*%
X100171250Y-57308750D02*
X114141250Y-57308750D01*
X100171250Y-71278750D02*
X100171250Y-57308750D01*
X114141250Y-57308750D02*
X114141250Y-71278750D01*
X114141250Y-71278750D02*
X100171250Y-71278750D01*
%TD*%
M02*
