  0
SECTION
  2
HEADER
  9
$ACADVER
  1
AC1009
  9
$INSBASE
 10
0.0
 20
0.0
 30
0.0
  9
$EXTMIN
 10
0.0
 20
0.0
 30
0.0
  9
$EXTMAX
 10
0.0
 20
0.0
 30
0.0
  0
ENDSEC
  0
SECTION
  2
TABLES
  0
TABLE
  2
VPORT
 70
0
  0
ENDTAB
  0
TABLE
  2
LTYPE
 70
1
  0
LTYPE
  2
CONTINUOUS
 70
0
  3
Solid line
 72
65
 73
0
 40
0.0
  0
ENDTAB
  0
TABLE
  2
LAYER
 70
1
  0
LAYER
  2
0
 70
64
 62
7
  6
continuous
  0
ENDTAB
  0
TABLE
  2
STYLE
 70
1
  0
STYLE
  2
STANDARD
 70
0
 40
0
 41
1.0
 50
0.0
 71
0
 42
1
 3
ARIAL.TTF
 4

  0
ENDTAB
  0
TABLE
  2
VIEW
 70
0
  0
ENDTAB
  0
ENDSEC
  0
SECTION
  2
BLOCKS
  0
BLOCK
  8
0
  2
FACEFEAT
 70
0
 10
0.0
 20
0.0
 30
0.0
  3
FACEFEAT
  0
LINE
  8
0
 62
0
 10
30.099999999999998
 20
36.575
 30
0.0
 11
30.099999999999998
 21
20.575
 31
0.0
  0
LINE
  8
0
 62
0
 10
30.099999999999998
 20
36.575
 30
0.0
 11
46.1
 21
36.575
 31
0.0
  0
LINE
  8
0
 62
0
 10
46.1
 20
36.575
 30
0.0
 11
46.1
 21
20.575
 31
0.0
  0
LINE
  8
0
 62
0
 10
30.099999999999998
 20
20.575
 30
0.0
 11
46.1
 21
20.575
 31
0.0
  0
LINE
  8
0
 62
0
 10
67.325
 20
-51.1
 30
0.0
 11
67.325
 21
74.89999999999999
 31
0.0
  0
ARC
  8
0
 62
0
 10
65.32499999999999
 20
74.89999999999999
 30
0.0
 40
2.0
 50
-0.0
 51
90.0
  0
LINE
  8
0
 62
0
 10
-60.675
 20
76.89999999999999
 30
0.0
 11
65.32499999999999
 21
76.89999999999999
 31
0.0
  0
ARC
  8
0
 62
0
 10
-60.675
 20
74.89999999999999
 30
0.0
 40
2.0
 50
90.0
 51
-180.0
  0
LINE
  8
0
 62
0
 10
-62.675
 20
-51.1
 30
0.0
 11
-62.675
 21
74.89999999999999
 31
0.0
  0
ARC
  8
0
 62
0
 10
-60.675
 20
-51.1
 30
0.0
 40
2.0
 50
-180.0
 51
-90.0
  0
LINE
  8
0
 62
0
 10
-60.675
 20
-53.1
 30
0.0
 11
65.32499999999999
 21
-53.1
 31
0.0
  0
ARC
  8
0
 62
0
 10
65.32499999999999
 20
-51.1
 30
0.0
 40
2.0
 50
-90.0
 51
-0.0
  0
ARC
  8
0
 62
0
 10
31.6
 20
-22.075
 30
0.0
 40
0.5
 50
90.0
 51
-180.0
  0
LINE
  8
0
 62
0
 10
31.6
 20
-21.575
 30
0.0
 11
44.6
 21
-21.575
 31
0.0
  0
ARC
  8
0
 62
0
 10
44.6
 20
-22.075
 30
0.0
 40
0.5
 50
-0.0
 51
90.0
  0
LINE
  8
0
 62
0
 10
45.1
 20
-22.075
 30
0.0
 11
45.1
 21
-35.075
 31
0.0
  0
ARC
  8
0
 62
0
 10
44.6
 20
-35.075
 30
0.0
 40
0.5
 50
-90.0
 51
-0.0
  0
LINE
  8
0
 62
0
 10
31.6
 20
-35.575
 30
0.0
 11
44.6
 21
-35.575
 31
0.0
  0
ARC
  8
0
 62
0
 10
31.6
 20
-35.075
 30
0.0
 40
0.5
 50
-180.0
 51
-90.0
  0
LINE
  8
0
 62
0
 10
31.099999999999998
 20
-22.075
 30
0.0
 11
31.099999999999998
 21
-35.075
 31
0.0
  0
ARC
  8
0
 62
0
 10
12.55
 20
-22.075
 30
0.0
 40
0.5
 50
90.0
 51
-180.0
  0
LINE
  8
0
 62
0
 10
12.55
 20
-21.575
 30
0.0
 11
25.55
 21
-21.575
 31
0.0
  0
ARC
  8
0
 62
0
 10
25.55
 20
-22.075
 30
0.0
 40
0.5
 50
-0.0
 51
90.0
  0
LINE
  8
0
 62
0
 10
26.05
 20
-22.075
 30
0.0
 11
26.05
 21
-35.075
 31
0.0
  0
ARC
  8
0
 62
0
 10
25.55
 20
-35.075
 30
0.0
 40
0.5
 50
-90.0
 51
-0.0
  0
LINE
  8
0
 62
0
 10
12.55
 20
-35.575
 30
0.0
 11
25.55
 21
-35.575
 31
0.0
  0
ARC
  8
0
 62
0
 10
12.55
 20
-35.075
 30
0.0
 40
0.5
 50
-180.0
 51
-90.0
  0
LINE
  8
0
 62
0
 10
12.05
 20
-22.075
 30
0.0
 11
12.05
 21
-35.075
 31
0.0
  0
ARC
  8
0
 62
0
 10
-6.5
 20
-22.075
 30
0.0
 40
0.5
 50
90.0
 51
-180.0
  0
LINE
  8
0
 62
0
 10
-6.5
 20
-21.575
 30
0.0
 11
6.5
 21
-21.575
 31
0.0
  0
ARC
  8
0
 62
0
 10
6.5
 20
-22.075
 30
0.0
 40
0.5
 50
-0.0
 51
90.0
  0
LINE
  8
0
 62
0
 10
7.0
 20
-22.075
 30
0.0
 11
7.0
 21
-35.075
 31
0.0
  0
ARC
  8
0
 62
0
 10
6.5
 20
-35.075
 30
0.0
 40
0.5
 50
-90.0
 51
-0.0
  0
LINE
  8
0
 62
0
 10
-6.5
 20
-35.575
 30
0.0
 11
6.5
 21
-35.575
 31
0.0
  0
ARC
  8
0
 62
0
 10
-6.5
 20
-35.075
 30
0.0
 40
0.5
 50
-180.0
 51
-90.0
  0
LINE
  8
0
 62
0
 10
-7.0
 20
-22.075
 30
0.0
 11
-7.0
 21
-35.075
 31
0.0
  0
ARC
  8
0
 62
0
 10
-25.55
 20
-22.075
 30
0.0
 40
0.5
 50
90.0
 51
-180.0
  0
LINE
  8
0
 62
0
 10
-25.55
 20
-21.575
 30
0.0
 11
-12.55
 21
-21.575
 31
0.0
  0
ARC
  8
0
 62
0
 10
-12.55
 20
-22.075
 30
0.0
 40
0.5
 50
-0.0
 51
90.0
  0
LINE
  8
0
 62
0
 10
-12.05
 20
-22.075
 30
0.0
 11
-12.05
 21
-35.075
 31
0.0
  0
ARC
  8
0
 62
0
 10
-12.55
 20
-35.075
 30
0.0
 40
0.5
 50
-90.0
 51
-0.0
  0
LINE
  8
0
 62
0
 10
-25.55
 20
-35.575
 30
0.0
 11
-12.55
 21
-35.575
 31
0.0
  0
ARC
  8
0
 62
0
 10
-25.55
 20
-35.075
 30
0.0
 40
0.5
 50
-180.0
 51
-90.0
  0
LINE
  8
0
 62
0
 10
-26.05
 20
-22.075
 30
0.0
 11
-26.05
 21
-35.075
 31
0.0
  0
ARC
  8
0
 62
0
 10
-44.6
 20
-22.075
 30
0.0
 40
0.5
 50
90.0
 51
-180.0
  0
LINE
  8
0
 62
0
 10
-44.6
 20
-21.575
 30
0.0
 11
-31.6
 21
-21.575
 31
0.0
  0
ARC
  8
0
 62
0
 10
-31.6
 20
-22.075
 30
0.0
 40
0.5
 50
-0.0
 51
90.0
  0
LINE
  8
0
 62
0
 10
-31.099999999999998
 20
-22.075
 30
0.0
 11
-31.099999999999998
 21
-35.075
 31
0.0
  0
ARC
  8
0
 62
0
 10
-31.6
 20
-35.075
 30
0.0
 40
0.5
 50
-90.0
 51
-0.0
  0
LINE
  8
0
 62
0
 10
-44.6
 20
-35.575
 30
0.0
 11
-31.6
 21
-35.575
 31
0.0
  0
ARC
  8
0
 62
0
 10
-44.6
 20
-35.075
 30
0.0
 40
0.5
 50
-180.0
 51
-90.0
  0
LINE
  8
0
 62
0
 10
-45.1
 20
-22.075
 30
0.0
 11
-45.1
 21
-35.075
 31
0.0
  0
ARC
  8
0
 62
0
 10
31.6
 20
-3.025
 30
0.0
 40
0.5
 50
90.0
 51
-180.0
  0
LINE
  8
0
 62
0
 10
31.6
 20
-2.525
 30
0.0
 11
44.6
 21
-2.525
 31
0.0
  0
ARC
  8
0
 62
0
 10
44.6
 20
-3.025
 30
0.0
 40
0.5
 50
-0.0
 51
90.0
  0
LINE
  8
0
 62
0
 10
45.1
 20
-3.0250000000000004
 30
0.0
 11
45.1
 21
-16.025000000000002
 31
0.0
  0
ARC
  8
0
 62
0
 10
44.6
 20
-16.025000000000002
 30
0.0
 40
0.5
 50
-90.0
 51
-0.0
  0
LINE
  8
0
 62
0
 10
31.6
 20
-16.525000000000002
 30
0.0
 11
44.6
 21
-16.525000000000002
 31
0.0
  0
ARC
  8
0
 62
0
 10
31.6
 20
-16.025000000000002
 30
0.0
 40
0.5
 50
-180.0
 51
-90.0
  0
LINE
  8
0
 62
0
 10
31.099999999999998
 20
-3.0250000000000004
 30
0.0
 11
31.099999999999998
 21
-16.025000000000002
 31
0.0
  0
ARC
  8
0
 62
0
 10
12.55
 20
-3.025
 30
0.0
 40
0.5
 50
90.0
 51
-180.0
  0
LINE
  8
0
 62
0
 10
12.55
 20
-2.525
 30
0.0
 11
25.55
 21
-2.525
 31
0.0
  0
ARC
  8
0
 62
0
 10
25.55
 20
-3.025
 30
0.0
 40
0.5
 50
-0.0
 51
90.0
  0
LINE
  8
0
 62
0
 10
26.05
 20
-3.0250000000000004
 30
0.0
 11
26.05
 21
-16.025000000000002
 31
0.0
  0
ARC
  8
0
 62
0
 10
25.55
 20
-16.025000000000002
 30
0.0
 40
0.5
 50
-90.0
 51
-0.0
  0
LINE
  8
0
 62
0
 10
12.55
 20
-16.525000000000002
 30
0.0
 11
25.55
 21
-16.525000000000002
 31
0.0
  0
ARC
  8
0
 62
0
 10
12.55
 20
-16.025000000000002
 30
0.0
 40
0.5
 50
-180.0
 51
-90.0
  0
LINE
  8
0
 62
0
 10
12.05
 20
-3.0250000000000004
 30
0.0
 11
12.05
 21
-16.025000000000002
 31
0.0
  0
ARC
  8
0
 62
0
 10
-6.5
 20
-3.025
 30
0.0
 40
0.5
 50
90.0
 51
-180.0
  0
LINE
  8
0
 62
0
 10
-6.5
 20
-2.525
 30
0.0
 11
6.5
 21
-2.525
 31
0.0
  0
ARC
  8
0
 62
0
 10
6.5
 20
-3.025
 30
0.0
 40
0.5
 50
-0.0
 51
90.0
  0
LINE
  8
0
 62
0
 10
7.0
 20
-3.0250000000000004
 30
0.0
 11
7.0
 21
-16.025000000000002
 31
0.0
  0
ARC
  8
0
 62
0
 10
6.5
 20
-16.025000000000002
 30
0.0
 40
0.5
 50
-90.0
 51
-0.0
  0
LINE
  8
0
 62
0
 10
-6.5
 20
-16.525000000000002
 30
0.0
 11
6.5
 21
-16.525000000000002
 31
0.0
  0
ARC
  8
0
 62
0
 10
-6.5
 20
-16.025000000000002
 30
0.0
 40
0.5
 50
-180.0
 51
-90.0
  0
LINE
  8
0
 62
0
 10
-7.0
 20
-3.0250000000000004
 30
0.0
 11
-7.0
 21
-16.025000000000002
 31
0.0
  0
ARC
  8
0
 62
0
 10
-25.55
 20
-3.025
 30
0.0
 40
0.5
 50
90.0
 51
-180.0
  0
LINE
  8
0
 62
0
 10
-25.55
 20
-2.525
 30
0.0
 11
-12.55
 21
-2.525
 31
0.0
  0
ARC
  8
0
 62
0
 10
-12.55
 20
-3.025
 30
0.0
 40
0.5
 50
-0.0
 51
90.0
  0
LINE
  8
0
 62
0
 10
-12.05
 20
-3.0250000000000004
 30
0.0
 11
-12.05
 21
-16.025000000000002
 31
0.0
  0
ARC
  8
0
 62
0
 10
-12.55
 20
-16.025000000000002
 30
0.0
 40
0.5
 50
-90.0
 51
-0.0
  0
LINE
  8
0
 62
0
 10
-25.55
 20
-16.525000000000002
 30
0.0
 11
-12.55
 21
-16.525000000000002
 31
0.0
  0
ARC
  8
0
 62
0
 10
-25.55
 20
-16.025000000000002
 30
0.0
 40
0.5
 50
-180.0
 51
-90.0
  0
LINE
  8
0
 62
0
 10
-26.05
 20
-3.0250000000000004
 30
0.0
 11
-26.05
 21
-16.025000000000002
 31
0.0
  0
ARC
  8
0
 62
0
 10
-44.6
 20
-3.025
 30
0.0
 40
0.5
 50
90.0
 51
-180.0
  0
LINE
  8
0
 62
0
 10
-44.6
 20
-2.525
 30
0.0
 11
-31.6
 21
-2.525
 31
0.0
  0
ARC
  8
0
 62
0
 10
-31.6
 20
-3.025
 30
0.0
 40
0.5
 50
-0.0
 51
90.0
  0
LINE
  8
0
 62
0
 10
-31.099999999999998
 20
-3.0250000000000004
 30
0.0
 11
-31.099999999999998
 21
-16.025000000000002
 31
0.0
  0
ARC
  8
0
 62
0
 10
-31.6
 20
-16.025000000000002
 30
0.0
 40
0.5
 50
-90.0
 51
-0.0
  0
LINE
  8
0
 62
0
 10
-44.6
 20
-16.525000000000002
 30
0.0
 11
-31.6
 21
-16.525000000000002
 31
0.0
  0
ARC
  8
0
 62
0
 10
-44.6
 20
-16.025000000000002
 30
0.0
 40
0.5
 50
-180.0
 51
-90.0
  0
LINE
  8
0
 62
0
 10
-45.1
 20
-3.0250000000000004
 30
0.0
 11
-45.1
 21
-16.025000000000002
 31
0.0
  0
ARC
  8
0
 62
0
 10
12.55
 20
16.025000000000002
 30
0.0
 40
0.5
 50
90.0
 51
-180.0
  0
LINE
  8
0
 62
0
 10
12.55
 20
16.525000000000002
 30
0.0
 11
25.55
 21
16.525000000000002
 31
0.0
  0
ARC
  8
0
 62
0
 10
25.55
 20
16.025000000000002
 30
0.0
 40
0.5
 50
-0.0
 51
90.0
  0
LINE
  8
0
 62
0
 10
26.05
 20
16.025000000000002
 30
0.0
 11
26.05
 21
3.0250000000000004
 31
0.0
  0
ARC
  8
0
 62
0
 10
25.55
 20
3.025
 30
0.0
 40
0.5
 50
-90.0
 51
-0.0
  0
LINE
  8
0
 62
0
 10
12.55
 20
2.525
 30
0.0
 11
25.55
 21
2.525
 31
0.0
  0
ARC
  8
0
 62
0
 10
12.55
 20
3.025
 30
0.0
 40
0.5
 50
-180.0
 51
-90.0
  0
LINE
  8
0
 62
0
 10
12.05
 20
16.025000000000002
 30
0.0
 11
12.05
 21
3.0250000000000004
 31
0.0
  0
ARC
  8
0
 62
0
 10
-6.5
 20
16.025000000000002
 30
0.0
 40
0.5
 50
90.0
 51
-180.0
  0
LINE
  8
0
 62
0
 10
-6.5
 20
16.525000000000002
 30
0.0
 11
6.5
 21
16.525000000000002
 31
0.0
  0
ARC
  8
0
 62
0
 10
6.5
 20
16.025000000000002
 30
0.0
 40
0.5
 50
-0.0
 51
90.0
  0
LINE
  8
0
 62
0
 10
7.0
 20
16.025000000000002
 30
0.0
 11
7.0
 21
3.0250000000000004
 31
0.0
  0
ARC
  8
0
 62
0
 10
6.5
 20
3.025
 30
0.0
 40
0.5
 50
-90.0
 51
-0.0
  0
LINE
  8
0
 62
0
 10
-6.5
 20
2.525
 30
0.0
 11
6.5
 21
2.525
 31
0.0
  0
ARC
  8
0
 62
0
 10
-6.5
 20
3.025
 30
0.0
 40
0.5
 50
-180.0
 51
-90.0
  0
LINE
  8
0
 62
0
 10
-7.0
 20
16.025000000000002
 30
0.0
 11
-7.0
 21
3.0250000000000004
 31
0.0
  0
ARC
  8
0
 62
0
 10
-25.55
 20
16.025000000000002
 30
0.0
 40
0.5
 50
90.0
 51
-180.0
  0
LINE
  8
0
 62
0
 10
-25.55
 20
16.525000000000002
 30
0.0
 11
-12.55
 21
16.525000000000002
 31
0.0
  0
ARC
  8
0
 62
0
 10
-12.55
 20
16.025000000000002
 30
0.0
 40
0.5
 50
-0.0
 51
90.0
  0
LINE
  8
0
 62
0
 10
-12.05
 20
16.025000000000002
 30
0.0
 11
-12.05
 21
3.0250000000000004
 31
0.0
  0
ARC
  8
0
 62
0
 10
-12.55
 20
3.025
 30
0.0
 40
0.5
 50
-90.0
 51
-0.0
  0
LINE
  8
0
 62
0
 10
-25.55
 20
2.525
 30
0.0
 11
-12.55
 21
2.525
 31
0.0
  0
ARC
  8
0
 62
0
 10
-25.55
 20
3.025
 30
0.0
 40
0.5
 50
-180.0
 51
-90.0
  0
LINE
  8
0
 62
0
 10
-26.05
 20
16.025000000000002
 30
0.0
 11
-26.05
 21
3.0250000000000004
 31
0.0
  0
ARC
  8
0
 62
0
 10
-44.6
 20
16.025000000000002
 30
0.0
 40
0.5
 50
90.0
 51
-180.0
  0
LINE
  8
0
 62
0
 10
-44.6
 20
16.525000000000002
 30
0.0
 11
-31.6
 21
16.525000000000002
 31
0.0
  0
ARC
  8
0
 62
0
 10
-31.6
 20
16.025000000000002
 30
0.0
 40
0.5
 50
-0.0
 51
90.0
  0
LINE
  8
0
 62
0
 10
-31.099999999999998
 20
16.025000000000002
 30
0.0
 11
-31.099999999999998
 21
3.0250000000000004
 31
0.0
  0
ARC
  8
0
 62
0
 10
-31.6
 20
3.025
 30
0.0
 40
0.5
 50
-90.0
 51
-0.0
  0
LINE
  8
0
 62
0
 10
-44.6
 20
2.525
 30
0.0
 11
-31.6
 21
2.525
 31
0.0
  0
ARC
  8
0
 62
0
 10
-44.6
 20
3.025
 30
0.0
 40
0.5
 50
-180.0
 51
-90.0
  0
LINE
  8
0
 62
0
 10
-45.1
 20
16.025000000000002
 30
0.0
 11
-45.1
 21
3.0250000000000004
 31
0.0
  0
ARC
  8
0
 62
0
 10
12.55
 20
35.075
 30
0.0
 40
0.5
 50
90.0
 51
-180.0
  0
LINE
  8
0
 62
0
 10
12.55
 20
35.575
 30
0.0
 11
25.55
 21
35.575
 31
0.0
  0
ARC
  8
0
 62
0
 10
25.55
 20
35.075
 30
0.0
 40
0.5
 50
-0.0
 51
90.0
  0
LINE
  8
0
 62
0
 10
26.05
 20
35.075
 30
0.0
 11
26.05
 21
22.075
 31
0.0
  0
ARC
  8
0
 62
0
 10
25.55
 20
22.075
 30
0.0
 40
0.5
 50
-90.0
 51
-0.0
  0
LINE
  8
0
 62
0
 10
12.55
 20
21.575
 30
0.0
 11
25.55
 21
21.575
 31
0.0
  0
ARC
  8
0
 62
0
 10
12.55
 20
22.075
 30
0.0
 40
0.5
 50
-180.0
 51
-90.0
  0
LINE
  8
0
 62
0
 10
12.05
 20
35.075
 30
0.0
 11
12.05
 21
22.075
 31
0.0
  0
ARC
  8
0
 62
0
 10
-6.5
 20
35.075
 30
0.0
 40
0.5
 50
90.0
 51
-180.0
  0
LINE
  8
0
 62
0
 10
-6.5
 20
35.575
 30
0.0
 11
6.5
 21
35.575
 31
0.0
  0
ARC
  8
0
 62
0
 10
6.5
 20
35.075
 30
0.0
 40
0.5
 50
-0.0
 51
90.0
  0
LINE
  8
0
 62
0
 10
7.0
 20
35.075
 30
0.0
 11
7.0
 21
22.075
 31
0.0
  0
ARC
  8
0
 62
0
 10
6.5
 20
22.075
 30
0.0
 40
0.5
 50
-90.0
 51
-0.0
  0
LINE
  8
0
 62
0
 10
-6.5
 20
21.575
 30
0.0
 11
6.5
 21
21.575
 31
0.0
  0
ARC
  8
0
 62
0
 10
-6.5
 20
22.075
 30
0.0
 40
0.5
 50
-180.0
 51
-90.0
  0
LINE
  8
0
 62
0
 10
-7.0
 20
35.075
 30
0.0
 11
-7.0
 21
22.075
 31
0.0
  0
ARC
  8
0
 62
0
 10
-25.55
 20
35.075
 30
0.0
 40
0.5
 50
90.0
 51
-180.0
  0
LINE
  8
0
 62
0
 10
-25.55
 20
35.575
 30
0.0
 11
-12.55
 21
35.575
 31
0.0
  0
ARC
  8
0
 62
0
 10
-12.55
 20
35.075
 30
0.0
 40
0.5
 50
-0.0
 51
90.0
  0
LINE
  8
0
 62
0
 10
-12.05
 20
35.075
 30
0.0
 11
-12.05
 21
22.075
 31
0.0
  0
ARC
  8
0
 62
0
 10
-12.55
 20
22.075
 30
0.0
 40
0.5
 50
-90.0
 51
-0.0
  0
LINE
  8
0
 62
0
 10
-25.55
 20
21.575
 30
0.0
 11
-12.55
 21
21.575
 31
0.0
  0
ARC
  8
0
 62
0
 10
-25.55
 20
22.075
 30
0.0
 40
0.5
 50
-180.0
 51
-90.0
  0
LINE
  8
0
 62
0
 10
-26.05
 20
35.075
 30
0.0
 11
-26.05
 21
22.075
 31
0.0
  0
ARC
  8
0
 62
0
 10
-44.6
 20
35.075
 30
0.0
 40
0.5
 50
90.0
 51
-180.0
  0
LINE
  8
0
 62
0
 10
-44.6
 20
35.575
 30
0.0
 11
-31.6
 21
35.575
 31
0.0
  0
ARC
  8
0
 62
0
 10
-31.6
 20
35.075
 30
0.0
 40
0.5
 50
-0.0
 51
90.0
  0
LINE
  8
0
 62
0
 10
-31.099999999999998
 20
35.075
 30
0.0
 11
-31.099999999999998
 21
22.075
 31
0.0
  0
ARC
  8
0
 62
0
 10
-31.6
 20
22.075
 30
0.0
 40
0.5
 50
-90.0
 51
-0.0
  0
LINE
  8
0
 62
0
 10
-44.6
 20
21.575
 30
0.0
 11
-31.6
 21
21.575
 31
0.0
  0
ARC
  8
0
 62
0
 10
-44.6
 20
22.075
 30
0.0
 40
0.5
 50
-180.0
 51
-90.0
  0
LINE
  8
0
 62
0
 10
-45.1
 20
35.075
 30
0.0
 11
-45.1
 21
22.075
 31
0.0
  0
CIRCLE
  8
0
 62
0
 10
62.324999999999996
 20
71.9
 30
0.0
 40
1.7
  0
CIRCLE
  8
0
 62
0
 10
-57.675
 20
71.9
 30
0.0
 40
1.7
  0
CIRCLE
  8
0
 62
0
 10
-57.675
 20
-48.099999999999994
 30
0.0
 40
1.7
  0
CIRCLE
  8
0
 62
0
 10
62.324999999999996
 20
-48.099999999999994
 30
0.0
 40
1.7
  0
LINE
  8
0
 62
0
 10
30.099999999999998
 20
17.525
 30
0.0
 11
30.099999999999998
 21
1.5250000000000004
 31
0.0
  0
LINE
  8
0
 62
0
 10
30.099999999999998
 20
17.525
 30
0.0
 11
46.1
 21
17.525
 31
0.0
  0
LINE
  8
0
 62
0
 10
46.1
 20
17.525
 30
0.0
 11
46.1
 21
1.5250000000000004
 31
0.0
  0
LINE
  8
0
 62
0
 10
30.099999999999998
 20
1.5250000000000001
 30
0.0
 11
46.1
 21
1.5250000000000001
 31
0.0
  0
LINE
  8
0
 62
0
 10
29.725
 20
60.075
 30
0.0
 11
-47.775
 21
60.075
 31
0.0
  0
LINE
  8
0
 62
0
 10
29.725
 20
60.075
 30
0.0
 11
29.725
 21
45.574999999999996
 31
0.0
  0
LINE
  8
0
 62
0
 10
29.725
 20
45.57499999999999
 30
0.0
 11
-47.775
 21
45.575
 31
0.0
  0
LINE
  8
0
 62
0
 10
-47.775
 20
60.075
 30
0.0
 11
-47.775
 21
45.574999999999996
 31
0.0
  0
ENDBLK
  0
ENDSEC
  0
SECTION
  2
ENTITIES
  0
INSERT
  2
FACEFEAT
  8
0
 62
0
 10
0.0
 20
0.0
 30
0.0
  0
ENDSEC
  0
EOF
