0
SECTION
2
HEADER
9
$INSUNITS
70
4
9
$ACADVER
1
AC1014
9
$HANDSEED
5
FFFF
0
ENDSEC
0
SECTION
2
TABLES
0
TABLE
2
VPORT
5
8
100
AcDbSymbolTable
0
ENDTAB
0
TABLE
2
LTYPE
5
5
100
AcDbSymbolTable
0
LTYPE
5
14
100
AcDbSymbolTableRecord
100
AcDbLinetypeTableRecord
2
BYBLOCK
70
0
0
LTYPE
5
15
100
AcDbSymbolTableRecord
100
AcDbLinetypeTableRecord
2
BYLAYER
70
0
0
ENDTAB
0
TABLE
2
LAYER
5
2
100
AcDbSymbolTable
70
2
0
LAYER
5
50
100
AcDbSymbolTableRecord
100
AcDbLayerTableRecord
2
0
70
0
6
CONTINUOUS
0
ENDTAB
0
TABLE
2
STYLE
5
3
100
AcDbSymbolTable
70
1
0
STYLE
5
11
100
AcDbSymbolTableRecord
100
AcDbTextStyleTableRecord
2
STANDARD
70
0
0
ENDTAB
0
TABLE
2
VIEW
5
6
100
AcDbSymbolTable
70
0
0
ENDTAB
0
TABLE
2
UCS
5
7
100
AcDbSymbolTable
70
0
0
ENDTAB
0
TABLE
2
APPID
5
9
100
AcDbSymbolTable
70
2
0
APPID
5
12
100
AcDbSymbolTableRecord
100
AcDbRegAppTableRecord
2
ACAD
70
0
0
ENDTAB
0
TABLE
2
DIMSTYLE
5
A
100
AcDbSymbolTable
70
1
0
ENDTAB
0
TABLE
2
BLOCK_RECORD
5
1
100
AcDbSymbolTable
70
1
0
BLOCK_RECORD
5
1F
100
AcDbSymbolTableRecord
100
AcDbBlockTableRecord
2
*MODEL_SPACE
0
BLOCK_RECORD
5
1B
100
AcDbSymbolTableRecord
100
AcDbBlockTableRecord
2
*PAPER_SPACE
0
ENDTAB
0
ENDSEC
0
SECTION
2
BLOCKS
0
BLOCK
5
20
100
AcDbEntity
100
AcDbBlockBegin
2
*MODEL_SPACE
0
ENDBLK
5
21
100
AcDbEntity
100
AcDbBlockEnd
0
BLOCK
5
1C
100
AcDbEntity
100
AcDbBlockBegin
2
*PAPER_SPACE
0
ENDBLK
5
1D
100
AcDbEntity
100
AcDbBlockEnd
0
ENDSEC
0
SECTION
2
ENTITIES
0
LWPOLYLINE
5
100
100
AcDbEntity
8
0
100
AcDbPolyline
90
8
70
1
43
0.0
10
-59.395000000000024
20
64.944999999999993
42
0.41421356237311063
10
-58.895000000000017
20
64.444999999999993
10
-45.89500000000001
20
64.444999999999993
42
0.41421356237309503
10
-45.39500000000001
20
64.944999999999993
10
-45.395000000000024
20
77.945000000000007
42
0.4142135623730846
10
-45.89500000000001
20
78.444999999999993
10
-58.895000000000017
20
78.444999999999993
42
0.41421356237309503
10
-59.395000000000017
20
77.945000000000007
0
LWPOLYLINE
5
101
100
AcDbEntity
8
0
100
AcDbPolyline
90
8
70
1
43
0.0
10
-21.295000000000037
20
26.844999999999999
42
0.41421356237308982
10
-20.79500000000003
20
26.344999999999992
10
-7.795000000000023
20
26.344999999999995
42
0.4142135623730957
10
-7.2950000000000159
20
26.844999999999999
10
-7.2950000000000337
20
39.844999999999999
42
0.41421356237309825
10
-7.795000000000023
20
40.344999999999985
10
-20.79500000000003
20
40.344999999999999
42
0.41421356237309503
10
-21.29500000000003
20
39.844999999999999
0
LWPOLYLINE
5
102
100
AcDbEntity
8
0
100
AcDbPolyline
90
8
70
1
43
0.0
10
-21.295000000000037
20
45.894999999999996
42
0.41421356237310025
10
-20.79500000000003
20
45.394999999999975
10
-7.795000000000023
20
45.395000000000003
42
0.41421356237308526
10
-7.2950000000000337
20
45.894999999999996
10
-7.2950000000000337
20
58.894999999999996
42
0.41421356237308526
10
-7.795000000000023
20
59.394999999999989
10
-20.79500000000003
20
59.39500000000001
42
0.41421356237310025
10
-21.295000000000037
20
58.894999999999996
0
LWPOLYLINE
5
103
100
AcDbEntity
8
0
100
AcDbPolyline
90
8
70
1
43
0.0
10
-21.295000000000037
20
64.944999999999993
42
0.41421356237309503
10
-20.79500000000003
20
64.444999999999993
10
-7.795000000000023
20
64.444999999999993
42
0.41421356237309503
10
-7.2950000000000248
20
64.944999999999993
10
-7.2950000000000337
20
77.945000000000007
42
0.4142135623730957
10
-7.795000000000023
20
78.444999999999993
10
-20.79500000000003
20
78.444999999999993
42
0.41421356237309503
10
-21.29500000000003
20
77.945000000000007
0
LWPOLYLINE
5
104
100
AcDbEntity
8
0
100
AcDbPolyline
90
8
70
1
43
0.0
10
-59.395000000000024
20
45.894999999999996
42
0.41421356237311585
10
-58.895000000000017
20
45.394999999999982
10
-45.89500000000001
20
45.395000000000003
42
0.41421356237307422
10
-45.395000000000024
20
45.894999999999996
10
-45.395000000000024
20
58.894999999999996
42
0.41421356237307422
10
-45.89500000000001
20
59.394999999999989
10
-58.895000000000017
20
59.39500000000001
42
0.41421356237311585
10
-59.395000000000024
20
58.894999999999996
0
LWPOLYLINE
5
105
100
AcDbEntity
8
0
100
AcDbPolyline
90
8
70
1
43
0.0
10
-40.345000000000013
20
26.844999999999999
42
0.41421356237307944
10
-39.845000000000027
20
26.34500000000001
10
-26.845000000000034
20
26.344999999999995
42
0.41421356237310025
10
-26.345000000000031
20
26.844999999999999
10
-26.345000000000027
20
39.844999999999999
42
0.41421356237309503
10
-26.845000000000034
20
40.345000000000006
10
-39.845000000000027
20
40.344999999999999
42
0.41421356237309764
10
-40.34500000000002
20
39.844999999999999
0
LWPOLYLINE
5
106
100
AcDbEntity
8
0
100
AcDbPolyline
90
8
70
1
43
0.0
10
-97.495000000000005
20
83.995000000000005
42
0.41421356237312623
10
-96.995000000000019
20
83.49499999999999
10
-83.995000000000019
20
83.49499999999999
42
0.41421356237310542
10
-83.495000000000033
20
83.995000000000005
10
-83.495000000000033
20
96.995000000000005
42
0.41421356237310542
10
-83.995000000000019
20
97.495000000000005
10
-96.995000000000019
20
97.49499999999999
42
0.41421356237312623
10
-97.495000000000005
20
96.995000000000005
0
LWPOLYLINE
5
107
100
AcDbEntity
8
0
100
AcDbPolyline
90
8
70
1
43
0.0
10
-59.395000000000024
20
26.844999999999999
42
0.41421356237310025
10
-58.895000000000017
20
26.344999999999999
10
-45.89500000000001
20
26.344999999999995
42
0.41421356237308204
10
-45.395000000000003
20
26.844999999999999
10
-45.395000000000024
20
39.844999999999999
42
0.41421356237308721
10
-45.89500000000001
20
40.344999999999985
10
-58.895000000000017
20
40.344999999999999
42
0.41421356237309764
10
-59.395000000000017
20
39.844999999999999
0
LWPOLYLINE
5
108
100
AcDbEntity
8
0
100
AcDbPolyline
90
8
70
1
43
0.0
10
-40.345000000000013
20
83.995000000000005
42
0.41421356237310802
10
-39.845000000000027
20
83.49499999999999
10
-26.845000000000034
20
83.49499999999999
42
0.41421356237309243
10
-26.345000000000027
20
83.995000000000005
10
-26.345000000000027
20
96.995000000000005
42
0.41421356237309243
10
-26.845000000000034
20
97.495000000000005
10
-39.845000000000027
20
97.49499999999999
42
0.41421356237310802
10
-40.345000000000013
20
96.995000000000005
0
LWPOLYLINE
5
109
100
AcDbEntity
8
0
100
AcDbPolyline
90
8
70
1
43
0.0
10
-97.495000000000005
20
45.894999999999996
42
0.41421356237309503
10
-96.995000000000019
20
45.395000000000003
10
-83.995000000000019
20
45.395000000000003
42
0.4142135623730846
10
-83.495000000000047
20
45.894999999999996
10
-83.495000000000033
20
58.894999999999996
42
0.41421356237308982
10
-83.995000000000019
20
59.39500000000001
10
-96.995000000000019
20
59.39500000000001
42
0.41421356237307944
10
-97.495000000000033
20
58.894999999999996
0
LWPOLYLINE
5
110
100
AcDbEntity
8
0
100
AcDbPolyline
90
8
70
1
43
0.0
10
-78.445000000000022
20
64.944999999999993
42
0.4142135623730846
10
-77.945000000000022
20
64.445000000000007
10
-64.945000000000022
20
64.444999999999993
42
0.41421356237309503
10
-64.445000000000022
20
64.944999999999993
10
-64.445000000000022
20
77.945000000000007
42
0.41421356237311063
10
-64.945000000000022
20
78.445000000000007
10
-77.945000000000022
20
78.444999999999993
42
0.41421356237309503
10
-78.445000000000022
20
77.945000000000007
0
LWPOLYLINE
5
111
100
AcDbEntity
8
0
100
AcDbPolyline
90
8
70
1
43
0.0
10
-78.445000000000022
20
45.894999999999996
42
0.41421356237307422
10
-77.945000000000022
20
45.395000000000003
10
-64.945000000000022
20
45.395000000000003
42
0.41421356237307422
10
-64.445000000000036
20
45.894999999999996
10
-64.445000000000022
20
58.894999999999996
42
0.41421356237311585
10
-64.945000000000022
20
59.39500000000001
10
-77.945000000000022
20
59.39500000000001
42
0.41421356237311585
10
-78.445000000000036
20
58.894999999999996
0
LWPOLYLINE
5
112
100
AcDbEntity
8
0
100
AcDbPolyline
90
8
70
1
43
0.0
10
-97.495000000000005
20
64.944999999999993
42
0.41421356237308982
10
-96.995000000000033
20
64.444999999999993
10
-83.995000000000019
20
64.444999999999993
42
0.41421356237307944
10
-83.495000000000033
20
64.944999999999993
10
-83.495000000000033
20
77.945000000000007
42
0.41421356237308982
10
-83.995000000000019
20
78.445000000000007
10
-96.995000000000019
20
78.444999999999993
42
0.41421356237310025
10
-97.495000000000005
20
77.945000000000007
0
LWPOLYLINE
5
113
100
AcDbEntity
8
0
100
AcDbPolyline
90
8
70
1
43
0.0
10
-40.345000000000013
20
64.944999999999993
42
0.4142135623730846
10
-39.845000000000027
20
64.445000000000007
10
-26.845000000000034
20
64.444999999999993
42
0.41421356237309503
10
-26.345000000000034
20
64.944999999999993
10
-26.345000000000027
20
77.945000000000007
42
0.41421356237309503
10
-26.845000000000034
20
78.445000000000007
10
-39.845000000000027
20
78.444999999999993
42
0.41421356237309503
10
-40.34500000000002
20
77.945000000000007
0
LWPOLYLINE
5
114
100
AcDbEntity
8
0
100
AcDbPolyline
90
8
70
1
43
0.0
10
-40.345000000000013
20
45.894999999999996
42
0.41421356237307422
10
-39.845000000000027
20
45.395000000000003
10
-26.845000000000034
20
45.395000000000003
42
0.41421356237308204
10
-26.345000000000045
20
45.894999999999996
10
-26.345000000000027
20
58.894999999999996
42
0.41421356237310025
10
-26.845000000000034
20
59.39500000000001
10
-39.845000000000027
20
59.39500000000001
42
0.41421356237311324
10
-40.345000000000027
20
58.894999999999996
0
LWPOLYLINE
5
115
100
AcDbEntity
8
0
100
AcDbPolyline
90
8
70
1
43
0.0
10
-78.445000000000022
20
83.995000000000005
42
0.41421356237311063
10
-77.945000000000022
20
83.49499999999999
10
-64.945000000000022
20
83.49499999999999
42
0.41421356237310025
10
-64.445000000000022
20
83.995000000000005
10
-64.445000000000022
20
96.995000000000005
42
0.41421356237310025
10
-64.945000000000022
20
97.495000000000005
10
-77.945000000000022
20
97.49499999999999
42
0.41421356237311063
10
-78.445000000000022
20
96.995000000000005
0
LWPOLYLINE
5
116
100
AcDbEntity
8
0
100
AcDbPolyline
90
8
70
1
43
0.0
10
-21.295000000000037
20
83.995000000000005
42
0.41421356237309243
10
-20.79500000000003
20
83.49499999999999
10
-7.795000000000023
20
83.49499999999999
42
0.4142135623730937
10
-7.2950000000000159
20
83.995000000000005
10
-7.2950000000000337
20
96.995000000000005
42
0.41421356237311519
10
-7.795000000000023
20
97.49499999999999
10
-20.79500000000003
20
97.49499999999999
42
0.41421356237311324
10
-21.295000000000019
20
96.995000000000005
0
LWPOLYLINE
5
117
100
AcDbEntity
8
0
100
AcDbPolyline
90
8
70
1
43
0.0
10
-97.495000000000005
20
26.844999999999999
42
0.41421356237309764
10
-96.995000000000019
20
26.345000000000006
10
-83.995000000000019
20
26.344999999999995
42
0.41421356237306639
10
-83.495000000000033
20
26.844999999999999
10
-83.495000000000033
20
39.844999999999999
42
0.41421356237308721
10
-83.995000000000019
20
40.345000000000006
10
-96.995000000000019
20
40.344999999999999
42
0.41421356237310281
10
-97.495000000000005
20
39.844999999999999
0
LWPOLYLINE
5
118
100
AcDbEntity
8
0
100
AcDbPolyline
90
8
70
1
43
0.0
10
-78.445000000000022
20
26.844999999999999
42
0.41421356237308204
10
-77.945000000000022
20
26.345000000000013
10
-64.945000000000022
20
26.344999999999995
42
0.41421356237308204
10
-64.445000000000022
20
26.844999999999999
10
-64.445000000000022
20
39.844999999999999
42
0.41421356237310802
10
-64.945000000000022
20
40.345000000000006
10
-77.945000000000022
20
40.344999999999999
42
0.41421356237309764
10
-78.445000000000022
20
39.844999999999999
0
LWPOLYLINE
5
119
100
AcDbEntity
8
0
100
AcDbPolyline
90
8
70
1
43
0.0
10
-59.395000000000024
20
83.995000000000005
42
0.41421356237310025
10
-58.895000000000017
20
83.49499999999999
10
-45.89500000000001
20
83.49499999999999
42
0.41421356237310025
10
-45.395000000000003
20
83.995000000000005
10
-45.395000000000024
20
96.995000000000005
42
0.41421356237311063
10
-45.89500000000001
20
97.49499999999999
10
-58.895000000000017
20
97.49499999999999
42
0.41421356237311063
10
-59.39500000000001
20
96.995000000000005
0
CIRCLE
5
120
100
AcDbEntity
8
0
100
AcDbCircle
10
5.000000074505806
20
105.01999999999998
30
0
40
1.4600000000000013
210
0
220
-0
230
1
0
CIRCLE
5
121
100
AcDbEntity
8
0
100
AcDbCircle
10
-105.02000000000001
20
105.01999999999998
30
0
40
1.460000000000008
210
0
220
-0
230
1
0
CIRCLE
5
122
100
AcDbEntity
8
0
100
AcDbCircle
10
-105.02000000000001
20
-5
30
0
40
1.460000000000008
210
0
220
-0
230
1
0
CIRCLE
5
123
100
AcDbEntity
8
0
100
AcDbCircle
10
5
20
-5
30
0
40
1.4600000000000002
210
0
220
-0
230
1
0
LWPOLYLINE
5
124
100
AcDbEntity
8
0
100
AcDbPolyline
90
8
70
1
43
0.0
10
10.000000474974513
20
7.0437503345601726
10
-0.48750002315500751
20
7.0437503345601726
10
-0.48750002315500751
20
16.783750797185348
10
10.000000474974513
20
16.783750797185348
10
10
20
110.01999999999998
10
-110.02000000000001
20
110.01999999999998
10
-110.02000000000001
20
-10
10
10
20
-10
0
ENDSEC
0
SECTION
2
OBJECTS
0
DICTIONARY
5
C
100
AcDbDictionary
3
ACAD_GROUP
350
D
3
ACAD_MLINESTYLE
350
17
0
DICTIONARY
5
D
100
AcDbDictionary
0
DICTIONARY
5
1A
330
C
100
AcDbDictionary
0
DICTIONARY
5
17
100
AcDbDictionary
0
ENDSEC
0
EOF
