%TF.GenerationSoftware,KiCad,Pcbnew,8.0.6*%
%TF.CreationDate,2024-10-28T02:11:40-04:00*%
%TF.ProjectId,macropad_schematic,6d616372-6f70-4616-945f-736368656d61,rev?*%
%TF.SameCoordinates,Original*%
%TF.FileFunction,Soldermask,Top*%
%TF.FilePolarity,Negative*%
%FSLAX46Y46*%
G04 Gerber Fmt 4.6, Leading zero omitted, Abs format (unit mm)*
G04 Created by KiCad (PCBNEW 8.0.6) date 2024-10-28 02:11:40*
%MOMM*%
%LPD*%
G01*
G04 APERTURE LIST*
%ADD10C,1.700000*%
%ADD11C,4.000000*%
%ADD12C,2.200000*%
G04 APERTURE END LIST*
D10*
%TO.C,SW6*%
X108230000Y-111580000D03*
D11*
X113310000Y-111580000D03*
D10*
X118390000Y-111580000D03*
D12*
X115850000Y-106500000D03*
X109500000Y-109040000D03*
%TD*%
D10*
%TO.C,SW5*%
X108230000Y-92040000D03*
D11*
X113310000Y-92040000D03*
D10*
X118390000Y-92040000D03*
D12*
X115850000Y-86960000D03*
X109500000Y-89500000D03*
%TD*%
D10*
%TO.C,SW8*%
X127770000Y-92000000D03*
D11*
X132850000Y-92000000D03*
D10*
X137930000Y-92000000D03*
D12*
X135390000Y-86920000D03*
X129040000Y-89460000D03*
%TD*%
D10*
%TO.C,SW1*%
X88730000Y-72580000D03*
D11*
X93810000Y-72580000D03*
D10*
X98890000Y-72580000D03*
D12*
X96350000Y-67500000D03*
X90000000Y-70040000D03*
%TD*%
D10*
%TO.C,SW2*%
X88730000Y-92080000D03*
D11*
X93810000Y-92080000D03*
D10*
X98890000Y-92080000D03*
D12*
X96350000Y-87000000D03*
X90000000Y-89540000D03*
%TD*%
D10*
%TO.C,SW3*%
X88770000Y-111500000D03*
D11*
X93850000Y-111500000D03*
D10*
X98930000Y-111500000D03*
D12*
X96390000Y-106420000D03*
X90040000Y-108960000D03*
%TD*%
D10*
%TO.C,SW4*%
X108230000Y-72580000D03*
D11*
X113310000Y-72580000D03*
D10*
X118390000Y-72580000D03*
D12*
X115850000Y-67500000D03*
X109500000Y-70040000D03*
%TD*%
D10*
%TO.C,SW9*%
X127690000Y-111500000D03*
D11*
X132770000Y-111500000D03*
D10*
X137850000Y-111500000D03*
D12*
X135310000Y-106420000D03*
X128960000Y-108960000D03*
%TD*%
D10*
%TO.C,SW7*%
X127730000Y-72580000D03*
D11*
X132810000Y-72580000D03*
D10*
X137890000Y-72580000D03*
D12*
X135350000Y-67500000D03*
X129000000Y-70040000D03*
%TD*%
M02*
