%TF.GenerationSoftware,KiCad,Pcbnew,8.0.6*%
%TF.CreationDate,2024-10-28T02:11:40-04:00*%
%TF.ProjectId,macropad_schematic,6d616372-6f70-4616-945f-736368656d61,rev?*%
%TF.SameCoordinates,Original*%
%TF.FileFunction,Legend,Top*%
%TF.FilePolarity,Positive*%
%FSLAX46Y46*%
G04 Gerber Fmt 4.6, Leading zero omitted, Abs format (unit mm)*
G04 Created by KiCad (PCBNEW 8.0.6) date 2024-10-28 02:11:40*
%MOMM*%
%LPD*%
G01*
G04 APERTURE LIST*
%ADD10C,0.150000*%
%ADD11C,0.120000*%
G04 APERTURE END LIST*
D10*
X111976667Y-104113200D02*
X112119524Y-104160819D01*
X112119524Y-104160819D02*
X112357619Y-104160819D01*
X112357619Y-104160819D02*
X112452857Y-104113200D01*
X112452857Y-104113200D02*
X112500476Y-104065580D01*
X112500476Y-104065580D02*
X112548095Y-103970342D01*
X112548095Y-103970342D02*
X112548095Y-103875104D01*
X112548095Y-103875104D02*
X112500476Y-103779866D01*
X112500476Y-103779866D02*
X112452857Y-103732247D01*
X112452857Y-103732247D02*
X112357619Y-103684628D01*
X112357619Y-103684628D02*
X112167143Y-103637009D01*
X112167143Y-103637009D02*
X112071905Y-103589390D01*
X112071905Y-103589390D02*
X112024286Y-103541771D01*
X112024286Y-103541771D02*
X111976667Y-103446533D01*
X111976667Y-103446533D02*
X111976667Y-103351295D01*
X111976667Y-103351295D02*
X112024286Y-103256057D01*
X112024286Y-103256057D02*
X112071905Y-103208438D01*
X112071905Y-103208438D02*
X112167143Y-103160819D01*
X112167143Y-103160819D02*
X112405238Y-103160819D01*
X112405238Y-103160819D02*
X112548095Y-103208438D01*
X112881429Y-103160819D02*
X113119524Y-104160819D01*
X113119524Y-104160819D02*
X113310000Y-103446533D01*
X113310000Y-103446533D02*
X113500476Y-104160819D01*
X113500476Y-104160819D02*
X113738572Y-103160819D01*
X114548095Y-103160819D02*
X114357619Y-103160819D01*
X114357619Y-103160819D02*
X114262381Y-103208438D01*
X114262381Y-103208438D02*
X114214762Y-103256057D01*
X114214762Y-103256057D02*
X114119524Y-103398914D01*
X114119524Y-103398914D02*
X114071905Y-103589390D01*
X114071905Y-103589390D02*
X114071905Y-103970342D01*
X114071905Y-103970342D02*
X114119524Y-104065580D01*
X114119524Y-104065580D02*
X114167143Y-104113200D01*
X114167143Y-104113200D02*
X114262381Y-104160819D01*
X114262381Y-104160819D02*
X114452857Y-104160819D01*
X114452857Y-104160819D02*
X114548095Y-104113200D01*
X114548095Y-104113200D02*
X114595714Y-104065580D01*
X114595714Y-104065580D02*
X114643333Y-103970342D01*
X114643333Y-103970342D02*
X114643333Y-103732247D01*
X114643333Y-103732247D02*
X114595714Y-103637009D01*
X114595714Y-103637009D02*
X114548095Y-103589390D01*
X114548095Y-103589390D02*
X114452857Y-103541771D01*
X114452857Y-103541771D02*
X114262381Y-103541771D01*
X114262381Y-103541771D02*
X114167143Y-103589390D01*
X114167143Y-103589390D02*
X114119524Y-103637009D01*
X114119524Y-103637009D02*
X114071905Y-103732247D01*
X111976667Y-84573200D02*
X112119524Y-84620819D01*
X112119524Y-84620819D02*
X112357619Y-84620819D01*
X112357619Y-84620819D02*
X112452857Y-84573200D01*
X112452857Y-84573200D02*
X112500476Y-84525580D01*
X112500476Y-84525580D02*
X112548095Y-84430342D01*
X112548095Y-84430342D02*
X112548095Y-84335104D01*
X112548095Y-84335104D02*
X112500476Y-84239866D01*
X112500476Y-84239866D02*
X112452857Y-84192247D01*
X112452857Y-84192247D02*
X112357619Y-84144628D01*
X112357619Y-84144628D02*
X112167143Y-84097009D01*
X112167143Y-84097009D02*
X112071905Y-84049390D01*
X112071905Y-84049390D02*
X112024286Y-84001771D01*
X112024286Y-84001771D02*
X111976667Y-83906533D01*
X111976667Y-83906533D02*
X111976667Y-83811295D01*
X111976667Y-83811295D02*
X112024286Y-83716057D01*
X112024286Y-83716057D02*
X112071905Y-83668438D01*
X112071905Y-83668438D02*
X112167143Y-83620819D01*
X112167143Y-83620819D02*
X112405238Y-83620819D01*
X112405238Y-83620819D02*
X112548095Y-83668438D01*
X112881429Y-83620819D02*
X113119524Y-84620819D01*
X113119524Y-84620819D02*
X113310000Y-83906533D01*
X113310000Y-83906533D02*
X113500476Y-84620819D01*
X113500476Y-84620819D02*
X113738572Y-83620819D01*
X114595714Y-83620819D02*
X114119524Y-83620819D01*
X114119524Y-83620819D02*
X114071905Y-84097009D01*
X114071905Y-84097009D02*
X114119524Y-84049390D01*
X114119524Y-84049390D02*
X114214762Y-84001771D01*
X114214762Y-84001771D02*
X114452857Y-84001771D01*
X114452857Y-84001771D02*
X114548095Y-84049390D01*
X114548095Y-84049390D02*
X114595714Y-84097009D01*
X114595714Y-84097009D02*
X114643333Y-84192247D01*
X114643333Y-84192247D02*
X114643333Y-84430342D01*
X114643333Y-84430342D02*
X114595714Y-84525580D01*
X114595714Y-84525580D02*
X114548095Y-84573200D01*
X114548095Y-84573200D02*
X114452857Y-84620819D01*
X114452857Y-84620819D02*
X114214762Y-84620819D01*
X114214762Y-84620819D02*
X114119524Y-84573200D01*
X114119524Y-84573200D02*
X114071905Y-84525580D01*
X131516667Y-84533200D02*
X131659524Y-84580819D01*
X131659524Y-84580819D02*
X131897619Y-84580819D01*
X131897619Y-84580819D02*
X131992857Y-84533200D01*
X131992857Y-84533200D02*
X132040476Y-84485580D01*
X132040476Y-84485580D02*
X132088095Y-84390342D01*
X132088095Y-84390342D02*
X132088095Y-84295104D01*
X132088095Y-84295104D02*
X132040476Y-84199866D01*
X132040476Y-84199866D02*
X131992857Y-84152247D01*
X131992857Y-84152247D02*
X131897619Y-84104628D01*
X131897619Y-84104628D02*
X131707143Y-84057009D01*
X131707143Y-84057009D02*
X131611905Y-84009390D01*
X131611905Y-84009390D02*
X131564286Y-83961771D01*
X131564286Y-83961771D02*
X131516667Y-83866533D01*
X131516667Y-83866533D02*
X131516667Y-83771295D01*
X131516667Y-83771295D02*
X131564286Y-83676057D01*
X131564286Y-83676057D02*
X131611905Y-83628438D01*
X131611905Y-83628438D02*
X131707143Y-83580819D01*
X131707143Y-83580819D02*
X131945238Y-83580819D01*
X131945238Y-83580819D02*
X132088095Y-83628438D01*
X132421429Y-83580819D02*
X132659524Y-84580819D01*
X132659524Y-84580819D02*
X132850000Y-83866533D01*
X132850000Y-83866533D02*
X133040476Y-84580819D01*
X133040476Y-84580819D02*
X133278572Y-83580819D01*
X133802381Y-84009390D02*
X133707143Y-83961771D01*
X133707143Y-83961771D02*
X133659524Y-83914152D01*
X133659524Y-83914152D02*
X133611905Y-83818914D01*
X133611905Y-83818914D02*
X133611905Y-83771295D01*
X133611905Y-83771295D02*
X133659524Y-83676057D01*
X133659524Y-83676057D02*
X133707143Y-83628438D01*
X133707143Y-83628438D02*
X133802381Y-83580819D01*
X133802381Y-83580819D02*
X133992857Y-83580819D01*
X133992857Y-83580819D02*
X134088095Y-83628438D01*
X134088095Y-83628438D02*
X134135714Y-83676057D01*
X134135714Y-83676057D02*
X134183333Y-83771295D01*
X134183333Y-83771295D02*
X134183333Y-83818914D01*
X134183333Y-83818914D02*
X134135714Y-83914152D01*
X134135714Y-83914152D02*
X134088095Y-83961771D01*
X134088095Y-83961771D02*
X133992857Y-84009390D01*
X133992857Y-84009390D02*
X133802381Y-84009390D01*
X133802381Y-84009390D02*
X133707143Y-84057009D01*
X133707143Y-84057009D02*
X133659524Y-84104628D01*
X133659524Y-84104628D02*
X133611905Y-84199866D01*
X133611905Y-84199866D02*
X133611905Y-84390342D01*
X133611905Y-84390342D02*
X133659524Y-84485580D01*
X133659524Y-84485580D02*
X133707143Y-84533200D01*
X133707143Y-84533200D02*
X133802381Y-84580819D01*
X133802381Y-84580819D02*
X133992857Y-84580819D01*
X133992857Y-84580819D02*
X134088095Y-84533200D01*
X134088095Y-84533200D02*
X134135714Y-84485580D01*
X134135714Y-84485580D02*
X134183333Y-84390342D01*
X134183333Y-84390342D02*
X134183333Y-84199866D01*
X134183333Y-84199866D02*
X134135714Y-84104628D01*
X134135714Y-84104628D02*
X134088095Y-84057009D01*
X134088095Y-84057009D02*
X133992857Y-84009390D01*
X92476667Y-65113200D02*
X92619524Y-65160819D01*
X92619524Y-65160819D02*
X92857619Y-65160819D01*
X92857619Y-65160819D02*
X92952857Y-65113200D01*
X92952857Y-65113200D02*
X93000476Y-65065580D01*
X93000476Y-65065580D02*
X93048095Y-64970342D01*
X93048095Y-64970342D02*
X93048095Y-64875104D01*
X93048095Y-64875104D02*
X93000476Y-64779866D01*
X93000476Y-64779866D02*
X92952857Y-64732247D01*
X92952857Y-64732247D02*
X92857619Y-64684628D01*
X92857619Y-64684628D02*
X92667143Y-64637009D01*
X92667143Y-64637009D02*
X92571905Y-64589390D01*
X92571905Y-64589390D02*
X92524286Y-64541771D01*
X92524286Y-64541771D02*
X92476667Y-64446533D01*
X92476667Y-64446533D02*
X92476667Y-64351295D01*
X92476667Y-64351295D02*
X92524286Y-64256057D01*
X92524286Y-64256057D02*
X92571905Y-64208438D01*
X92571905Y-64208438D02*
X92667143Y-64160819D01*
X92667143Y-64160819D02*
X92905238Y-64160819D01*
X92905238Y-64160819D02*
X93048095Y-64208438D01*
X93381429Y-64160819D02*
X93619524Y-65160819D01*
X93619524Y-65160819D02*
X93810000Y-64446533D01*
X93810000Y-64446533D02*
X94000476Y-65160819D01*
X94000476Y-65160819D02*
X94238572Y-64160819D01*
X95143333Y-65160819D02*
X94571905Y-65160819D01*
X94857619Y-65160819D02*
X94857619Y-64160819D01*
X94857619Y-64160819D02*
X94762381Y-64303676D01*
X94762381Y-64303676D02*
X94667143Y-64398914D01*
X94667143Y-64398914D02*
X94571905Y-64446533D01*
X92476667Y-84613200D02*
X92619524Y-84660819D01*
X92619524Y-84660819D02*
X92857619Y-84660819D01*
X92857619Y-84660819D02*
X92952857Y-84613200D01*
X92952857Y-84613200D02*
X93000476Y-84565580D01*
X93000476Y-84565580D02*
X93048095Y-84470342D01*
X93048095Y-84470342D02*
X93048095Y-84375104D01*
X93048095Y-84375104D02*
X93000476Y-84279866D01*
X93000476Y-84279866D02*
X92952857Y-84232247D01*
X92952857Y-84232247D02*
X92857619Y-84184628D01*
X92857619Y-84184628D02*
X92667143Y-84137009D01*
X92667143Y-84137009D02*
X92571905Y-84089390D01*
X92571905Y-84089390D02*
X92524286Y-84041771D01*
X92524286Y-84041771D02*
X92476667Y-83946533D01*
X92476667Y-83946533D02*
X92476667Y-83851295D01*
X92476667Y-83851295D02*
X92524286Y-83756057D01*
X92524286Y-83756057D02*
X92571905Y-83708438D01*
X92571905Y-83708438D02*
X92667143Y-83660819D01*
X92667143Y-83660819D02*
X92905238Y-83660819D01*
X92905238Y-83660819D02*
X93048095Y-83708438D01*
X93381429Y-83660819D02*
X93619524Y-84660819D01*
X93619524Y-84660819D02*
X93810000Y-83946533D01*
X93810000Y-83946533D02*
X94000476Y-84660819D01*
X94000476Y-84660819D02*
X94238572Y-83660819D01*
X94571905Y-83756057D02*
X94619524Y-83708438D01*
X94619524Y-83708438D02*
X94714762Y-83660819D01*
X94714762Y-83660819D02*
X94952857Y-83660819D01*
X94952857Y-83660819D02*
X95048095Y-83708438D01*
X95048095Y-83708438D02*
X95095714Y-83756057D01*
X95095714Y-83756057D02*
X95143333Y-83851295D01*
X95143333Y-83851295D02*
X95143333Y-83946533D01*
X95143333Y-83946533D02*
X95095714Y-84089390D01*
X95095714Y-84089390D02*
X94524286Y-84660819D01*
X94524286Y-84660819D02*
X95143333Y-84660819D01*
X92516667Y-104033200D02*
X92659524Y-104080819D01*
X92659524Y-104080819D02*
X92897619Y-104080819D01*
X92897619Y-104080819D02*
X92992857Y-104033200D01*
X92992857Y-104033200D02*
X93040476Y-103985580D01*
X93040476Y-103985580D02*
X93088095Y-103890342D01*
X93088095Y-103890342D02*
X93088095Y-103795104D01*
X93088095Y-103795104D02*
X93040476Y-103699866D01*
X93040476Y-103699866D02*
X92992857Y-103652247D01*
X92992857Y-103652247D02*
X92897619Y-103604628D01*
X92897619Y-103604628D02*
X92707143Y-103557009D01*
X92707143Y-103557009D02*
X92611905Y-103509390D01*
X92611905Y-103509390D02*
X92564286Y-103461771D01*
X92564286Y-103461771D02*
X92516667Y-103366533D01*
X92516667Y-103366533D02*
X92516667Y-103271295D01*
X92516667Y-103271295D02*
X92564286Y-103176057D01*
X92564286Y-103176057D02*
X92611905Y-103128438D01*
X92611905Y-103128438D02*
X92707143Y-103080819D01*
X92707143Y-103080819D02*
X92945238Y-103080819D01*
X92945238Y-103080819D02*
X93088095Y-103128438D01*
X93421429Y-103080819D02*
X93659524Y-104080819D01*
X93659524Y-104080819D02*
X93850000Y-103366533D01*
X93850000Y-103366533D02*
X94040476Y-104080819D01*
X94040476Y-104080819D02*
X94278572Y-103080819D01*
X94564286Y-103080819D02*
X95183333Y-103080819D01*
X95183333Y-103080819D02*
X94850000Y-103461771D01*
X94850000Y-103461771D02*
X94992857Y-103461771D01*
X94992857Y-103461771D02*
X95088095Y-103509390D01*
X95088095Y-103509390D02*
X95135714Y-103557009D01*
X95135714Y-103557009D02*
X95183333Y-103652247D01*
X95183333Y-103652247D02*
X95183333Y-103890342D01*
X95183333Y-103890342D02*
X95135714Y-103985580D01*
X95135714Y-103985580D02*
X95088095Y-104033200D01*
X95088095Y-104033200D02*
X94992857Y-104080819D01*
X94992857Y-104080819D02*
X94707143Y-104080819D01*
X94707143Y-104080819D02*
X94611905Y-104033200D01*
X94611905Y-104033200D02*
X94564286Y-103985580D01*
X111976667Y-65113200D02*
X112119524Y-65160819D01*
X112119524Y-65160819D02*
X112357619Y-65160819D01*
X112357619Y-65160819D02*
X112452857Y-65113200D01*
X112452857Y-65113200D02*
X112500476Y-65065580D01*
X112500476Y-65065580D02*
X112548095Y-64970342D01*
X112548095Y-64970342D02*
X112548095Y-64875104D01*
X112548095Y-64875104D02*
X112500476Y-64779866D01*
X112500476Y-64779866D02*
X112452857Y-64732247D01*
X112452857Y-64732247D02*
X112357619Y-64684628D01*
X112357619Y-64684628D02*
X112167143Y-64637009D01*
X112167143Y-64637009D02*
X112071905Y-64589390D01*
X112071905Y-64589390D02*
X112024286Y-64541771D01*
X112024286Y-64541771D02*
X111976667Y-64446533D01*
X111976667Y-64446533D02*
X111976667Y-64351295D01*
X111976667Y-64351295D02*
X112024286Y-64256057D01*
X112024286Y-64256057D02*
X112071905Y-64208438D01*
X112071905Y-64208438D02*
X112167143Y-64160819D01*
X112167143Y-64160819D02*
X112405238Y-64160819D01*
X112405238Y-64160819D02*
X112548095Y-64208438D01*
X112881429Y-64160819D02*
X113119524Y-65160819D01*
X113119524Y-65160819D02*
X113310000Y-64446533D01*
X113310000Y-64446533D02*
X113500476Y-65160819D01*
X113500476Y-65160819D02*
X113738572Y-64160819D01*
X114548095Y-64494152D02*
X114548095Y-65160819D01*
X114310000Y-64113200D02*
X114071905Y-64827485D01*
X114071905Y-64827485D02*
X114690952Y-64827485D01*
X131436667Y-104033200D02*
X131579524Y-104080819D01*
X131579524Y-104080819D02*
X131817619Y-104080819D01*
X131817619Y-104080819D02*
X131912857Y-104033200D01*
X131912857Y-104033200D02*
X131960476Y-103985580D01*
X131960476Y-103985580D02*
X132008095Y-103890342D01*
X132008095Y-103890342D02*
X132008095Y-103795104D01*
X132008095Y-103795104D02*
X131960476Y-103699866D01*
X131960476Y-103699866D02*
X131912857Y-103652247D01*
X131912857Y-103652247D02*
X131817619Y-103604628D01*
X131817619Y-103604628D02*
X131627143Y-103557009D01*
X131627143Y-103557009D02*
X131531905Y-103509390D01*
X131531905Y-103509390D02*
X131484286Y-103461771D01*
X131484286Y-103461771D02*
X131436667Y-103366533D01*
X131436667Y-103366533D02*
X131436667Y-103271295D01*
X131436667Y-103271295D02*
X131484286Y-103176057D01*
X131484286Y-103176057D02*
X131531905Y-103128438D01*
X131531905Y-103128438D02*
X131627143Y-103080819D01*
X131627143Y-103080819D02*
X131865238Y-103080819D01*
X131865238Y-103080819D02*
X132008095Y-103128438D01*
X132341429Y-103080819D02*
X132579524Y-104080819D01*
X132579524Y-104080819D02*
X132770000Y-103366533D01*
X132770000Y-103366533D02*
X132960476Y-104080819D01*
X132960476Y-104080819D02*
X133198572Y-103080819D01*
X133627143Y-104080819D02*
X133817619Y-104080819D01*
X133817619Y-104080819D02*
X133912857Y-104033200D01*
X133912857Y-104033200D02*
X133960476Y-103985580D01*
X133960476Y-103985580D02*
X134055714Y-103842723D01*
X134055714Y-103842723D02*
X134103333Y-103652247D01*
X134103333Y-103652247D02*
X134103333Y-103271295D01*
X134103333Y-103271295D02*
X134055714Y-103176057D01*
X134055714Y-103176057D02*
X134008095Y-103128438D01*
X134008095Y-103128438D02*
X133912857Y-103080819D01*
X133912857Y-103080819D02*
X133722381Y-103080819D01*
X133722381Y-103080819D02*
X133627143Y-103128438D01*
X133627143Y-103128438D02*
X133579524Y-103176057D01*
X133579524Y-103176057D02*
X133531905Y-103271295D01*
X133531905Y-103271295D02*
X133531905Y-103509390D01*
X133531905Y-103509390D02*
X133579524Y-103604628D01*
X133579524Y-103604628D02*
X133627143Y-103652247D01*
X133627143Y-103652247D02*
X133722381Y-103699866D01*
X133722381Y-103699866D02*
X133912857Y-103699866D01*
X133912857Y-103699866D02*
X134008095Y-103652247D01*
X134008095Y-103652247D02*
X134055714Y-103604628D01*
X134055714Y-103604628D02*
X134103333Y-103509390D01*
X131476667Y-65113200D02*
X131619524Y-65160819D01*
X131619524Y-65160819D02*
X131857619Y-65160819D01*
X131857619Y-65160819D02*
X131952857Y-65113200D01*
X131952857Y-65113200D02*
X132000476Y-65065580D01*
X132000476Y-65065580D02*
X132048095Y-64970342D01*
X132048095Y-64970342D02*
X132048095Y-64875104D01*
X132048095Y-64875104D02*
X132000476Y-64779866D01*
X132000476Y-64779866D02*
X131952857Y-64732247D01*
X131952857Y-64732247D02*
X131857619Y-64684628D01*
X131857619Y-64684628D02*
X131667143Y-64637009D01*
X131667143Y-64637009D02*
X131571905Y-64589390D01*
X131571905Y-64589390D02*
X131524286Y-64541771D01*
X131524286Y-64541771D02*
X131476667Y-64446533D01*
X131476667Y-64446533D02*
X131476667Y-64351295D01*
X131476667Y-64351295D02*
X131524286Y-64256057D01*
X131524286Y-64256057D02*
X131571905Y-64208438D01*
X131571905Y-64208438D02*
X131667143Y-64160819D01*
X131667143Y-64160819D02*
X131905238Y-64160819D01*
X131905238Y-64160819D02*
X132048095Y-64208438D01*
X132381429Y-64160819D02*
X132619524Y-65160819D01*
X132619524Y-65160819D02*
X132810000Y-64446533D01*
X132810000Y-64446533D02*
X133000476Y-65160819D01*
X133000476Y-65160819D02*
X133238572Y-64160819D01*
X133524286Y-64160819D02*
X134190952Y-64160819D01*
X134190952Y-64160819D02*
X133762381Y-65160819D01*
D11*
%TO.C,SW6*%
X106325000Y-104595000D02*
X120295000Y-104595000D01*
X106325000Y-118565000D02*
X106325000Y-104595000D01*
X120295000Y-104595000D02*
X120295000Y-118565000D01*
X120295000Y-118565000D02*
X106325000Y-118565000D01*
%TO.C,SW5*%
X106325000Y-85055000D02*
X120295000Y-85055000D01*
X106325000Y-99025000D02*
X106325000Y-85055000D01*
X120295000Y-85055000D02*
X120295000Y-99025000D01*
X120295000Y-99025000D02*
X106325000Y-99025000D01*
%TO.C,SW8*%
X125865000Y-85015000D02*
X139835000Y-85015000D01*
X125865000Y-98985000D02*
X125865000Y-85015000D01*
X139835000Y-85015000D02*
X139835000Y-98985000D01*
X139835000Y-98985000D02*
X125865000Y-98985000D01*
%TO.C,SW1*%
X86825000Y-65595000D02*
X100795000Y-65595000D01*
X86825000Y-79565000D02*
X86825000Y-65595000D01*
X100795000Y-65595000D02*
X100795000Y-79565000D01*
X100795000Y-79565000D02*
X86825000Y-79565000D01*
%TO.C,SW2*%
X86825000Y-85095000D02*
X100795000Y-85095000D01*
X86825000Y-99065000D02*
X86825000Y-85095000D01*
X100795000Y-85095000D02*
X100795000Y-99065000D01*
X100795000Y-99065000D02*
X86825000Y-99065000D01*
%TO.C,SW3*%
X86865000Y-104515000D02*
X100835000Y-104515000D01*
X86865000Y-118485000D02*
X86865000Y-104515000D01*
X100835000Y-104515000D02*
X100835000Y-118485000D01*
X100835000Y-118485000D02*
X86865000Y-118485000D01*
%TO.C,SW4*%
X106325000Y-65595000D02*
X120295000Y-65595000D01*
X106325000Y-79565000D02*
X106325000Y-65595000D01*
X120295000Y-65595000D02*
X120295000Y-79565000D01*
X120295000Y-79565000D02*
X106325000Y-79565000D01*
%TO.C,SW9*%
X125785000Y-104515000D02*
X139755000Y-104515000D01*
X125785000Y-118485000D02*
X125785000Y-104515000D01*
X139755000Y-104515000D02*
X139755000Y-118485000D01*
X139755000Y-118485000D02*
X125785000Y-118485000D01*
%TO.C,SW7*%
X125825000Y-65595000D02*
X139795000Y-65595000D01*
X125825000Y-79565000D02*
X125825000Y-65595000D01*
X139795000Y-65595000D02*
X139795000Y-79565000D01*
X139795000Y-79565000D02*
X125825000Y-79565000D01*
%TD*%
M02*
