M48
; DRILL file {KiCad 8.0.5+1} date 2024-10-20T23:15:53-0600
; FORMAT={-:-/ absolute / inch / decimal}
; #@! TF.CreationDate,2024-10-20T23:15:53-06:00
; #@! TF.GenerationSoftware,Kicad,Pcbnew,8.0.5+1
; #@! TF.FileFunction,Plated,1,2,PTH
FMAT,2
INCH
; #@! TA.AperFunction,Plated,PTH,ComponentDrill
T1C0.0315
; #@! TA.AperFunction,Plated,PTH,ComponentDrill
T2C0.0394
; #@! TA.AperFunction,Plated,PTH,ComponentDrill
T3C0.0600
%
G90
G05
T1
X1.1961Y-2.2835
X1.1961Y-2.4016
X1.4567Y-0.6878
X1.4567Y-0.8138
X1.4567Y-0.9398
X1.4567Y-1.1957
X1.4567Y-1.3217
X1.4567Y-1.4476
X1.4567Y-1.6681
X1.4567Y-1.7941
X1.4567Y-1.9201
X1.4961Y-2.2835
X1.4961Y-2.4016
X1.7567Y-0.6878
X1.7567Y-0.8138
X1.7567Y-0.9398
X1.7567Y-1.1957
X1.7567Y-1.3217
X1.7567Y-1.4476
X1.7567Y-1.6681
X1.7567Y-1.7941
X1.7567Y-1.9201
T2
X0.6882Y-0.7128
X0.6882Y-0.8128
X0.6882Y-0.9128
X0.6882Y-1.0128
X0.6882Y-1.1128
X0.6882Y-1.2128
X0.6882Y-1.3128
X1.2882Y-0.7128
X1.2882Y-0.8128
X1.2882Y-0.9128
X1.2882Y-1.0128
X1.2882Y-1.1128
X1.2882Y-1.2128
X1.2882Y-1.3128
X1.661Y-2.1457
X1.661Y-2.2457
X1.661Y-2.3457
X1.661Y-2.4457
T3
X2.1295Y-0.8843
X2.1295Y-1.6343
X2.1295Y-2.3843
X2.3795Y-0.7843
X2.3795Y-1.5343
X2.3795Y-2.2843
X2.8795Y-0.8843
X2.8795Y-1.6343
X2.8795Y-2.3843
X3.1295Y-0.7843
X3.1295Y-1.5343
X3.1295Y-2.2843
X3.6295Y-0.8843
X3.6295Y-1.6343
X3.6295Y-2.3843
X3.8795Y-0.7843
X3.8795Y-1.5343
X3.8795Y-2.2843
M30
