%TF.GenerationSoftware,KiCad,Pcbnew,8.0.5+1*%
%TF.CreationDate,2024-10-20T23:15:56-06:00*%
%TF.ProjectId,Hackpad,4861636b-7061-4642-9e6b-696361645f70,rev?*%
%TF.SameCoordinates,Original*%
%TF.FileFunction,Drillmap*%
%TF.FilePolarity,Positive*%
%FSLAX45Y45*%
G04 Gerber Fmt 4.5, Leading zero omitted, Abs format (unit mm)*
G04 Created by KiCad (PCBNEW 8.0.5+1) date 2024-10-20 23:15:56*
%MOMM*%
%LPD*%
G01*
G04 APERTURE LIST*
%ADD10C,0.100000*%
%ADD11C,0.200000*%
%ADD12C,0.170180*%
%ADD13C,0.350000*%
%ADD14C,0.398780*%
G04 APERTURE END LIST*
D10*
X1600000Y-1500000D02*
X11300000Y-1500000D01*
X11300000Y-7300000D01*
X1600000Y-7300000D01*
X1600000Y-1500000D01*
D11*
D12*
X5196910Y-2414910D02*
X5367090Y-2585090D01*
X5367090Y-2414910D02*
X5196910Y-2585090D01*
X5196910Y-4319910D02*
X5367090Y-4490090D01*
X5367090Y-4319910D02*
X5196910Y-4490090D01*
X5196910Y-6224910D02*
X5367090Y-6395090D01*
X5367090Y-6224910D02*
X5196910Y-6395090D01*
X6212910Y-2414910D02*
X6383090Y-2585090D01*
X6383090Y-2414910D02*
X6212910Y-2585090D01*
X6212910Y-4319910D02*
X6383090Y-4490090D01*
X6383090Y-4319910D02*
X6212910Y-4490090D01*
X6212910Y-6224910D02*
X6383090Y-6395090D01*
X6383090Y-6224910D02*
X6212910Y-6395090D01*
X7101910Y-2414910D02*
X7272090Y-2585090D01*
X7272090Y-2414910D02*
X7101910Y-2585090D01*
X7101910Y-4319910D02*
X7272090Y-4490090D01*
X7272090Y-4319910D02*
X7101910Y-4490090D01*
X7101910Y-6224910D02*
X7272090Y-6395090D01*
X7272090Y-6224910D02*
X7101910Y-6395090D01*
X8117910Y-2414910D02*
X8288090Y-2585090D01*
X8288090Y-2414910D02*
X8117910Y-2585090D01*
X8117910Y-4319910D02*
X8288090Y-4490090D01*
X8288090Y-4319910D02*
X8117910Y-4490090D01*
X8117910Y-6224910D02*
X8288090Y-6395090D01*
X8288090Y-6224910D02*
X8117910Y-6395090D01*
X9006910Y-2414910D02*
X9177090Y-2585090D01*
X9177090Y-2414910D02*
X9006910Y-2585090D01*
X9006910Y-4319910D02*
X9177090Y-4490090D01*
X9177090Y-4319910D02*
X9006910Y-4490090D01*
X9006910Y-6224910D02*
X9177090Y-6395090D01*
X9177090Y-6224910D02*
X9006910Y-6395090D01*
X10022910Y-2414910D02*
X10193090Y-2585090D01*
X10193090Y-2414910D02*
X10022910Y-2585090D01*
X10022910Y-4319910D02*
X10193090Y-4490090D01*
X10193090Y-4319910D02*
X10022910Y-4490090D01*
X10022910Y-6224910D02*
X10193090Y-6395090D01*
X10193090Y-6224910D02*
X10022910Y-6395090D01*
D13*
X2175000Y-4000000D02*
G75*
G02*
X1825000Y-4000000I-175000J0D01*
G01*
X1825000Y-4000000D02*
G75*
G02*
X2175000Y-4000000I175000J0D01*
G01*
X11075000Y-4400000D02*
G75*
G02*
X10725000Y-4400000I-175000J0D01*
G01*
X10725000Y-4400000D02*
G75*
G02*
X11075000Y-4400000I175000J0D01*
G01*
D14*
X5790000Y-2300610D02*
X5790000Y-2699390D01*
X5590610Y-2500000D02*
X5989390Y-2500000D01*
X5790000Y-4205610D02*
X5790000Y-4604390D01*
X5590610Y-4405000D02*
X5989390Y-4405000D01*
X5790000Y-6110610D02*
X5790000Y-6509390D01*
X5590610Y-6310000D02*
X5989390Y-6310000D01*
X7695000Y-2300610D02*
X7695000Y-2699390D01*
X7495610Y-2500000D02*
X7894390Y-2500000D01*
X7695000Y-4205610D02*
X7695000Y-4604390D01*
X7495610Y-4405000D02*
X7894390Y-4405000D01*
X7695000Y-6110610D02*
X7695000Y-6509390D01*
X7495610Y-6310000D02*
X7894390Y-6310000D01*
X9600000Y-2300610D02*
X9600000Y-2699390D01*
X9400610Y-2500000D02*
X9799390Y-2500000D01*
X9600000Y-4205610D02*
X9600000Y-4604390D01*
X9400610Y-4405000D02*
X9799390Y-4405000D01*
X9600000Y-6110610D02*
X9600000Y-6509390D01*
X9400610Y-6310000D02*
X9799390Y-6310000D01*
D11*
X1855777Y-7616484D02*
X1855777Y-7416484D01*
X1855777Y-7416484D02*
X1903396Y-7416484D01*
X1903396Y-7416484D02*
X1931967Y-7426008D01*
X1931967Y-7426008D02*
X1951015Y-7445055D01*
X1951015Y-7445055D02*
X1960539Y-7464103D01*
X1960539Y-7464103D02*
X1970062Y-7502198D01*
X1970062Y-7502198D02*
X1970062Y-7530769D01*
X1970062Y-7530769D02*
X1960539Y-7568865D01*
X1960539Y-7568865D02*
X1951015Y-7587912D01*
X1951015Y-7587912D02*
X1931967Y-7606960D01*
X1931967Y-7606960D02*
X1903396Y-7616484D01*
X1903396Y-7616484D02*
X1855777Y-7616484D01*
X2055777Y-7616484D02*
X2055777Y-7483150D01*
X2055777Y-7521246D02*
X2065301Y-7502198D01*
X2065301Y-7502198D02*
X2074824Y-7492674D01*
X2074824Y-7492674D02*
X2093872Y-7483150D01*
X2093872Y-7483150D02*
X2112920Y-7483150D01*
X2179586Y-7616484D02*
X2179586Y-7483150D01*
X2179586Y-7416484D02*
X2170063Y-7426008D01*
X2170063Y-7426008D02*
X2179586Y-7435531D01*
X2179586Y-7435531D02*
X2189110Y-7426008D01*
X2189110Y-7426008D02*
X2179586Y-7416484D01*
X2179586Y-7416484D02*
X2179586Y-7435531D01*
X2303396Y-7616484D02*
X2284348Y-7606960D01*
X2284348Y-7606960D02*
X2274824Y-7587912D01*
X2274824Y-7587912D02*
X2274824Y-7416484D01*
X2408158Y-7616484D02*
X2389110Y-7606960D01*
X2389110Y-7606960D02*
X2379586Y-7587912D01*
X2379586Y-7587912D02*
X2379586Y-7416484D01*
X2636729Y-7616484D02*
X2636729Y-7416484D01*
X2636729Y-7416484D02*
X2703396Y-7559341D01*
X2703396Y-7559341D02*
X2770063Y-7416484D01*
X2770063Y-7416484D02*
X2770063Y-7616484D01*
X2951015Y-7616484D02*
X2951015Y-7511722D01*
X2951015Y-7511722D02*
X2941491Y-7492674D01*
X2941491Y-7492674D02*
X2922443Y-7483150D01*
X2922443Y-7483150D02*
X2884348Y-7483150D01*
X2884348Y-7483150D02*
X2865301Y-7492674D01*
X2951015Y-7606960D02*
X2931967Y-7616484D01*
X2931967Y-7616484D02*
X2884348Y-7616484D01*
X2884348Y-7616484D02*
X2865301Y-7606960D01*
X2865301Y-7606960D02*
X2855777Y-7587912D01*
X2855777Y-7587912D02*
X2855777Y-7568865D01*
X2855777Y-7568865D02*
X2865301Y-7549817D01*
X2865301Y-7549817D02*
X2884348Y-7540293D01*
X2884348Y-7540293D02*
X2931967Y-7540293D01*
X2931967Y-7540293D02*
X2951015Y-7530769D01*
X3046253Y-7483150D02*
X3046253Y-7683150D01*
X3046253Y-7492674D02*
X3065301Y-7483150D01*
X3065301Y-7483150D02*
X3103396Y-7483150D01*
X3103396Y-7483150D02*
X3122443Y-7492674D01*
X3122443Y-7492674D02*
X3131967Y-7502198D01*
X3131967Y-7502198D02*
X3141491Y-7521246D01*
X3141491Y-7521246D02*
X3141491Y-7578388D01*
X3141491Y-7578388D02*
X3131967Y-7597436D01*
X3131967Y-7597436D02*
X3122443Y-7606960D01*
X3122443Y-7606960D02*
X3103396Y-7616484D01*
X3103396Y-7616484D02*
X3065301Y-7616484D01*
X3065301Y-7616484D02*
X3046253Y-7606960D01*
X3227205Y-7597436D02*
X3236729Y-7606960D01*
X3236729Y-7606960D02*
X3227205Y-7616484D01*
X3227205Y-7616484D02*
X3217682Y-7606960D01*
X3217682Y-7606960D02*
X3227205Y-7597436D01*
X3227205Y-7597436D02*
X3227205Y-7616484D01*
X3227205Y-7492674D02*
X3236729Y-7502198D01*
X3236729Y-7502198D02*
X3227205Y-7511722D01*
X3227205Y-7511722D02*
X3217682Y-7502198D01*
X3217682Y-7502198D02*
X3227205Y-7492674D01*
X3227205Y-7492674D02*
X3227205Y-7511722D01*
D12*
X1424820Y-7859910D02*
X1595000Y-8030090D01*
X1595000Y-7859910D02*
X1424820Y-8030090D01*
D11*
X1960539Y-8036484D02*
X1846253Y-8036484D01*
X1903396Y-8036484D02*
X1903396Y-7836484D01*
X1903396Y-7836484D02*
X1884348Y-7865055D01*
X1884348Y-7865055D02*
X1865301Y-7884103D01*
X1865301Y-7884103D02*
X1846253Y-7893627D01*
X2046253Y-8017436D02*
X2055777Y-8026960D01*
X2055777Y-8026960D02*
X2046253Y-8036484D01*
X2046253Y-8036484D02*
X2036729Y-8026960D01*
X2036729Y-8026960D02*
X2046253Y-8017436D01*
X2046253Y-8017436D02*
X2046253Y-8036484D01*
X2122444Y-7836484D02*
X2255777Y-7836484D01*
X2255777Y-7836484D02*
X2170063Y-8036484D01*
X2370063Y-7836484D02*
X2389110Y-7836484D01*
X2389110Y-7836484D02*
X2408158Y-7846008D01*
X2408158Y-7846008D02*
X2417682Y-7855531D01*
X2417682Y-7855531D02*
X2427205Y-7874579D01*
X2427205Y-7874579D02*
X2436729Y-7912674D01*
X2436729Y-7912674D02*
X2436729Y-7960293D01*
X2436729Y-7960293D02*
X2427205Y-7998388D01*
X2427205Y-7998388D02*
X2417682Y-8017436D01*
X2417682Y-8017436D02*
X2408158Y-8026960D01*
X2408158Y-8026960D02*
X2389110Y-8036484D01*
X2389110Y-8036484D02*
X2370063Y-8036484D01*
X2370063Y-8036484D02*
X2351015Y-8026960D01*
X2351015Y-8026960D02*
X2341491Y-8017436D01*
X2341491Y-8017436D02*
X2331967Y-7998388D01*
X2331967Y-7998388D02*
X2322444Y-7960293D01*
X2322444Y-7960293D02*
X2322444Y-7912674D01*
X2322444Y-7912674D02*
X2331967Y-7874579D01*
X2331967Y-7874579D02*
X2341491Y-7855531D01*
X2341491Y-7855531D02*
X2351015Y-7846008D01*
X2351015Y-7846008D02*
X2370063Y-7836484D01*
X2512920Y-7855531D02*
X2522444Y-7846008D01*
X2522444Y-7846008D02*
X2541491Y-7836484D01*
X2541491Y-7836484D02*
X2589110Y-7836484D01*
X2589110Y-7836484D02*
X2608158Y-7846008D01*
X2608158Y-7846008D02*
X2617682Y-7855531D01*
X2617682Y-7855531D02*
X2627205Y-7874579D01*
X2627205Y-7874579D02*
X2627205Y-7893627D01*
X2627205Y-7893627D02*
X2617682Y-7922198D01*
X2617682Y-7922198D02*
X2503396Y-8036484D01*
X2503396Y-8036484D02*
X2627205Y-8036484D01*
X2712920Y-8036484D02*
X2712920Y-7903150D01*
X2712920Y-7922198D02*
X2722444Y-7912674D01*
X2722444Y-7912674D02*
X2741491Y-7903150D01*
X2741491Y-7903150D02*
X2770063Y-7903150D01*
X2770063Y-7903150D02*
X2789110Y-7912674D01*
X2789110Y-7912674D02*
X2798634Y-7931722D01*
X2798634Y-7931722D02*
X2798634Y-8036484D01*
X2798634Y-7931722D02*
X2808158Y-7912674D01*
X2808158Y-7912674D02*
X2827205Y-7903150D01*
X2827205Y-7903150D02*
X2855777Y-7903150D01*
X2855777Y-7903150D02*
X2874824Y-7912674D01*
X2874824Y-7912674D02*
X2884348Y-7931722D01*
X2884348Y-7931722D02*
X2884348Y-8036484D01*
X2979586Y-8036484D02*
X2979586Y-7903150D01*
X2979586Y-7922198D02*
X2989110Y-7912674D01*
X2989110Y-7912674D02*
X3008158Y-7903150D01*
X3008158Y-7903150D02*
X3036729Y-7903150D01*
X3036729Y-7903150D02*
X3055777Y-7912674D01*
X3055777Y-7912674D02*
X3065301Y-7931722D01*
X3065301Y-7931722D02*
X3065301Y-8036484D01*
X3065301Y-7931722D02*
X3074824Y-7912674D01*
X3074824Y-7912674D02*
X3093872Y-7903150D01*
X3093872Y-7903150D02*
X3122443Y-7903150D01*
X3122443Y-7903150D02*
X3141491Y-7912674D01*
X3141491Y-7912674D02*
X3151015Y-7931722D01*
X3151015Y-7931722D02*
X3151015Y-8036484D01*
X3541491Y-7826960D02*
X3370063Y-8084103D01*
X3798634Y-7836484D02*
X3817682Y-7836484D01*
X3817682Y-7836484D02*
X3836729Y-7846008D01*
X3836729Y-7846008D02*
X3846253Y-7855531D01*
X3846253Y-7855531D02*
X3855777Y-7874579D01*
X3855777Y-7874579D02*
X3865301Y-7912674D01*
X3865301Y-7912674D02*
X3865301Y-7960293D01*
X3865301Y-7960293D02*
X3855777Y-7998388D01*
X3855777Y-7998388D02*
X3846253Y-8017436D01*
X3846253Y-8017436D02*
X3836729Y-8026960D01*
X3836729Y-8026960D02*
X3817682Y-8036484D01*
X3817682Y-8036484D02*
X3798634Y-8036484D01*
X3798634Y-8036484D02*
X3779586Y-8026960D01*
X3779586Y-8026960D02*
X3770063Y-8017436D01*
X3770063Y-8017436D02*
X3760539Y-7998388D01*
X3760539Y-7998388D02*
X3751015Y-7960293D01*
X3751015Y-7960293D02*
X3751015Y-7912674D01*
X3751015Y-7912674D02*
X3760539Y-7874579D01*
X3760539Y-7874579D02*
X3770063Y-7855531D01*
X3770063Y-7855531D02*
X3779586Y-7846008D01*
X3779586Y-7846008D02*
X3798634Y-7836484D01*
X3951015Y-8017436D02*
X3960539Y-8026960D01*
X3960539Y-8026960D02*
X3951015Y-8036484D01*
X3951015Y-8036484D02*
X3941491Y-8026960D01*
X3941491Y-8026960D02*
X3951015Y-8017436D01*
X3951015Y-8017436D02*
X3951015Y-8036484D01*
X4084348Y-7836484D02*
X4103396Y-7836484D01*
X4103396Y-7836484D02*
X4122444Y-7846008D01*
X4122444Y-7846008D02*
X4131967Y-7855531D01*
X4131967Y-7855531D02*
X4141491Y-7874579D01*
X4141491Y-7874579D02*
X4151015Y-7912674D01*
X4151015Y-7912674D02*
X4151015Y-7960293D01*
X4151015Y-7960293D02*
X4141491Y-7998388D01*
X4141491Y-7998388D02*
X4131967Y-8017436D01*
X4131967Y-8017436D02*
X4122444Y-8026960D01*
X4122444Y-8026960D02*
X4103396Y-8036484D01*
X4103396Y-8036484D02*
X4084348Y-8036484D01*
X4084348Y-8036484D02*
X4065301Y-8026960D01*
X4065301Y-8026960D02*
X4055777Y-8017436D01*
X4055777Y-8017436D02*
X4046253Y-7998388D01*
X4046253Y-7998388D02*
X4036729Y-7960293D01*
X4036729Y-7960293D02*
X4036729Y-7912674D01*
X4036729Y-7912674D02*
X4046253Y-7874579D01*
X4046253Y-7874579D02*
X4055777Y-7855531D01*
X4055777Y-7855531D02*
X4065301Y-7846008D01*
X4065301Y-7846008D02*
X4084348Y-7836484D01*
X4322444Y-7836484D02*
X4284348Y-7836484D01*
X4284348Y-7836484D02*
X4265301Y-7846008D01*
X4265301Y-7846008D02*
X4255777Y-7855531D01*
X4255777Y-7855531D02*
X4236729Y-7884103D01*
X4236729Y-7884103D02*
X4227206Y-7922198D01*
X4227206Y-7922198D02*
X4227206Y-7998388D01*
X4227206Y-7998388D02*
X4236729Y-8017436D01*
X4236729Y-8017436D02*
X4246253Y-8026960D01*
X4246253Y-8026960D02*
X4265301Y-8036484D01*
X4265301Y-8036484D02*
X4303396Y-8036484D01*
X4303396Y-8036484D02*
X4322444Y-8026960D01*
X4322444Y-8026960D02*
X4331968Y-8017436D01*
X4331968Y-8017436D02*
X4341491Y-7998388D01*
X4341491Y-7998388D02*
X4341491Y-7950769D01*
X4341491Y-7950769D02*
X4331968Y-7931722D01*
X4331968Y-7931722D02*
X4322444Y-7922198D01*
X4322444Y-7922198D02*
X4303396Y-7912674D01*
X4303396Y-7912674D02*
X4265301Y-7912674D01*
X4265301Y-7912674D02*
X4246253Y-7922198D01*
X4246253Y-7922198D02*
X4236729Y-7931722D01*
X4236729Y-7931722D02*
X4227206Y-7950769D01*
X4408158Y-7836484D02*
X4541491Y-7836484D01*
X4541491Y-7836484D02*
X4455777Y-8036484D01*
X4655777Y-7836484D02*
X4674825Y-7836484D01*
X4674825Y-7836484D02*
X4693872Y-7846008D01*
X4693872Y-7846008D02*
X4703396Y-7855531D01*
X4703396Y-7855531D02*
X4712920Y-7874579D01*
X4712920Y-7874579D02*
X4722444Y-7912674D01*
X4722444Y-7912674D02*
X4722444Y-7960293D01*
X4722444Y-7960293D02*
X4712920Y-7998388D01*
X4712920Y-7998388D02*
X4703396Y-8017436D01*
X4703396Y-8017436D02*
X4693872Y-8026960D01*
X4693872Y-8026960D02*
X4674825Y-8036484D01*
X4674825Y-8036484D02*
X4655777Y-8036484D01*
X4655777Y-8036484D02*
X4636729Y-8026960D01*
X4636729Y-8026960D02*
X4627206Y-8017436D01*
X4627206Y-8017436D02*
X4617682Y-7998388D01*
X4617682Y-7998388D02*
X4608158Y-7960293D01*
X4608158Y-7960293D02*
X4608158Y-7912674D01*
X4608158Y-7912674D02*
X4617682Y-7874579D01*
X4617682Y-7874579D02*
X4627206Y-7855531D01*
X4627206Y-7855531D02*
X4636729Y-7846008D01*
X4636729Y-7846008D02*
X4655777Y-7836484D01*
X4798634Y-7836484D02*
X4798634Y-7874579D01*
X4874825Y-7836484D02*
X4874825Y-7874579D01*
X5170063Y-8112674D02*
X5160539Y-8103150D01*
X5160539Y-8103150D02*
X5141491Y-8074579D01*
X5141491Y-8074579D02*
X5131968Y-8055531D01*
X5131968Y-8055531D02*
X5122444Y-8026960D01*
X5122444Y-8026960D02*
X5112920Y-7979341D01*
X5112920Y-7979341D02*
X5112920Y-7941246D01*
X5112920Y-7941246D02*
X5122444Y-7893627D01*
X5122444Y-7893627D02*
X5131968Y-7865055D01*
X5131968Y-7865055D02*
X5141491Y-7846008D01*
X5141491Y-7846008D02*
X5160539Y-7817436D01*
X5160539Y-7817436D02*
X5170063Y-7807912D01*
X5351015Y-8036484D02*
X5236730Y-8036484D01*
X5293872Y-8036484D02*
X5293872Y-7836484D01*
X5293872Y-7836484D02*
X5274825Y-7865055D01*
X5274825Y-7865055D02*
X5255777Y-7884103D01*
X5255777Y-7884103D02*
X5236730Y-7893627D01*
X5465301Y-7922198D02*
X5446253Y-7912674D01*
X5446253Y-7912674D02*
X5436730Y-7903150D01*
X5436730Y-7903150D02*
X5427206Y-7884103D01*
X5427206Y-7884103D02*
X5427206Y-7874579D01*
X5427206Y-7874579D02*
X5436730Y-7855531D01*
X5436730Y-7855531D02*
X5446253Y-7846008D01*
X5446253Y-7846008D02*
X5465301Y-7836484D01*
X5465301Y-7836484D02*
X5503396Y-7836484D01*
X5503396Y-7836484D02*
X5522444Y-7846008D01*
X5522444Y-7846008D02*
X5531968Y-7855531D01*
X5531968Y-7855531D02*
X5541491Y-7874579D01*
X5541491Y-7874579D02*
X5541491Y-7884103D01*
X5541491Y-7884103D02*
X5531968Y-7903150D01*
X5531968Y-7903150D02*
X5522444Y-7912674D01*
X5522444Y-7912674D02*
X5503396Y-7922198D01*
X5503396Y-7922198D02*
X5465301Y-7922198D01*
X5465301Y-7922198D02*
X5446253Y-7931722D01*
X5446253Y-7931722D02*
X5436730Y-7941246D01*
X5436730Y-7941246D02*
X5427206Y-7960293D01*
X5427206Y-7960293D02*
X5427206Y-7998388D01*
X5427206Y-7998388D02*
X5436730Y-8017436D01*
X5436730Y-8017436D02*
X5446253Y-8026960D01*
X5446253Y-8026960D02*
X5465301Y-8036484D01*
X5465301Y-8036484D02*
X5503396Y-8036484D01*
X5503396Y-8036484D02*
X5522444Y-8026960D01*
X5522444Y-8026960D02*
X5531968Y-8017436D01*
X5531968Y-8017436D02*
X5541491Y-7998388D01*
X5541491Y-7998388D02*
X5541491Y-7960293D01*
X5541491Y-7960293D02*
X5531968Y-7941246D01*
X5531968Y-7941246D02*
X5522444Y-7931722D01*
X5522444Y-7931722D02*
X5503396Y-7922198D01*
X5779587Y-8036484D02*
X5779587Y-7836484D01*
X5865301Y-8036484D02*
X5865301Y-7931722D01*
X5865301Y-7931722D02*
X5855777Y-7912674D01*
X5855777Y-7912674D02*
X5836730Y-7903150D01*
X5836730Y-7903150D02*
X5808158Y-7903150D01*
X5808158Y-7903150D02*
X5789110Y-7912674D01*
X5789110Y-7912674D02*
X5779587Y-7922198D01*
X5989110Y-8036484D02*
X5970063Y-8026960D01*
X5970063Y-8026960D02*
X5960539Y-8017436D01*
X5960539Y-8017436D02*
X5951015Y-7998388D01*
X5951015Y-7998388D02*
X5951015Y-7941246D01*
X5951015Y-7941246D02*
X5960539Y-7922198D01*
X5960539Y-7922198D02*
X5970063Y-7912674D01*
X5970063Y-7912674D02*
X5989110Y-7903150D01*
X5989110Y-7903150D02*
X6017682Y-7903150D01*
X6017682Y-7903150D02*
X6036730Y-7912674D01*
X6036730Y-7912674D02*
X6046253Y-7922198D01*
X6046253Y-7922198D02*
X6055777Y-7941246D01*
X6055777Y-7941246D02*
X6055777Y-7998388D01*
X6055777Y-7998388D02*
X6046253Y-8017436D01*
X6046253Y-8017436D02*
X6036730Y-8026960D01*
X6036730Y-8026960D02*
X6017682Y-8036484D01*
X6017682Y-8036484D02*
X5989110Y-8036484D01*
X6170063Y-8036484D02*
X6151015Y-8026960D01*
X6151015Y-8026960D02*
X6141491Y-8007912D01*
X6141491Y-8007912D02*
X6141491Y-7836484D01*
X6322444Y-8026960D02*
X6303396Y-8036484D01*
X6303396Y-8036484D02*
X6265301Y-8036484D01*
X6265301Y-8036484D02*
X6246253Y-8026960D01*
X6246253Y-8026960D02*
X6236730Y-8007912D01*
X6236730Y-8007912D02*
X6236730Y-7931722D01*
X6236730Y-7931722D02*
X6246253Y-7912674D01*
X6246253Y-7912674D02*
X6265301Y-7903150D01*
X6265301Y-7903150D02*
X6303396Y-7903150D01*
X6303396Y-7903150D02*
X6322444Y-7912674D01*
X6322444Y-7912674D02*
X6331968Y-7931722D01*
X6331968Y-7931722D02*
X6331968Y-7950769D01*
X6331968Y-7950769D02*
X6236730Y-7969817D01*
X6408158Y-8026960D02*
X6427206Y-8036484D01*
X6427206Y-8036484D02*
X6465301Y-8036484D01*
X6465301Y-8036484D02*
X6484349Y-8026960D01*
X6484349Y-8026960D02*
X6493872Y-8007912D01*
X6493872Y-8007912D02*
X6493872Y-7998388D01*
X6493872Y-7998388D02*
X6484349Y-7979341D01*
X6484349Y-7979341D02*
X6465301Y-7969817D01*
X6465301Y-7969817D02*
X6436730Y-7969817D01*
X6436730Y-7969817D02*
X6417682Y-7960293D01*
X6417682Y-7960293D02*
X6408158Y-7941246D01*
X6408158Y-7941246D02*
X6408158Y-7931722D01*
X6408158Y-7931722D02*
X6417682Y-7912674D01*
X6417682Y-7912674D02*
X6436730Y-7903150D01*
X6436730Y-7903150D02*
X6465301Y-7903150D01*
X6465301Y-7903150D02*
X6484349Y-7912674D01*
X6560539Y-8112674D02*
X6570063Y-8103150D01*
X6570063Y-8103150D02*
X6589111Y-8074579D01*
X6589111Y-8074579D02*
X6598634Y-8055531D01*
X6598634Y-8055531D02*
X6608158Y-8026960D01*
X6608158Y-8026960D02*
X6617682Y-7979341D01*
X6617682Y-7979341D02*
X6617682Y-7941246D01*
X6617682Y-7941246D02*
X6608158Y-7893627D01*
X6608158Y-7893627D02*
X6598634Y-7865055D01*
X6598634Y-7865055D02*
X6589111Y-7846008D01*
X6589111Y-7846008D02*
X6570063Y-7817436D01*
X6570063Y-7817436D02*
X6560539Y-7807912D01*
X6922444Y-8112674D02*
X6912920Y-8103150D01*
X6912920Y-8103150D02*
X6893872Y-8074579D01*
X6893872Y-8074579D02*
X6884349Y-8055531D01*
X6884349Y-8055531D02*
X6874825Y-8026960D01*
X6874825Y-8026960D02*
X6865301Y-7979341D01*
X6865301Y-7979341D02*
X6865301Y-7941246D01*
X6865301Y-7941246D02*
X6874825Y-7893627D01*
X6874825Y-7893627D02*
X6884349Y-7865055D01*
X6884349Y-7865055D02*
X6893872Y-7846008D01*
X6893872Y-7846008D02*
X6912920Y-7817436D01*
X6912920Y-7817436D02*
X6922444Y-7807912D01*
X6998634Y-7903150D02*
X6998634Y-8036484D01*
X6998634Y-7922198D02*
X7008158Y-7912674D01*
X7008158Y-7912674D02*
X7027206Y-7903150D01*
X7027206Y-7903150D02*
X7055777Y-7903150D01*
X7055777Y-7903150D02*
X7074825Y-7912674D01*
X7074825Y-7912674D02*
X7084349Y-7931722D01*
X7084349Y-7931722D02*
X7084349Y-8036484D01*
X7208158Y-8036484D02*
X7189111Y-8026960D01*
X7189111Y-8026960D02*
X7179587Y-8017436D01*
X7179587Y-8017436D02*
X7170063Y-7998388D01*
X7170063Y-7998388D02*
X7170063Y-7941246D01*
X7170063Y-7941246D02*
X7179587Y-7922198D01*
X7179587Y-7922198D02*
X7189111Y-7912674D01*
X7189111Y-7912674D02*
X7208158Y-7903150D01*
X7208158Y-7903150D02*
X7236730Y-7903150D01*
X7236730Y-7903150D02*
X7255777Y-7912674D01*
X7255777Y-7912674D02*
X7265301Y-7922198D01*
X7265301Y-7922198D02*
X7274825Y-7941246D01*
X7274825Y-7941246D02*
X7274825Y-7998388D01*
X7274825Y-7998388D02*
X7265301Y-8017436D01*
X7265301Y-8017436D02*
X7255777Y-8026960D01*
X7255777Y-8026960D02*
X7236730Y-8036484D01*
X7236730Y-8036484D02*
X7208158Y-8036484D01*
X7331968Y-7903150D02*
X7408158Y-7903150D01*
X7360539Y-7836484D02*
X7360539Y-8007912D01*
X7360539Y-8007912D02*
X7370063Y-8026960D01*
X7370063Y-8026960D02*
X7389111Y-8036484D01*
X7389111Y-8036484D02*
X7408158Y-8036484D01*
X7627206Y-7903150D02*
X7627206Y-8103150D01*
X7627206Y-7912674D02*
X7646253Y-7903150D01*
X7646253Y-7903150D02*
X7684349Y-7903150D01*
X7684349Y-7903150D02*
X7703396Y-7912674D01*
X7703396Y-7912674D02*
X7712920Y-7922198D01*
X7712920Y-7922198D02*
X7722444Y-7941246D01*
X7722444Y-7941246D02*
X7722444Y-7998388D01*
X7722444Y-7998388D02*
X7712920Y-8017436D01*
X7712920Y-8017436D02*
X7703396Y-8026960D01*
X7703396Y-8026960D02*
X7684349Y-8036484D01*
X7684349Y-8036484D02*
X7646253Y-8036484D01*
X7646253Y-8036484D02*
X7627206Y-8026960D01*
X7836730Y-8036484D02*
X7817682Y-8026960D01*
X7817682Y-8026960D02*
X7808158Y-8007912D01*
X7808158Y-8007912D02*
X7808158Y-7836484D01*
X7998634Y-8036484D02*
X7998634Y-7931722D01*
X7998634Y-7931722D02*
X7989111Y-7912674D01*
X7989111Y-7912674D02*
X7970063Y-7903150D01*
X7970063Y-7903150D02*
X7931968Y-7903150D01*
X7931968Y-7903150D02*
X7912920Y-7912674D01*
X7998634Y-8026960D02*
X7979587Y-8036484D01*
X7979587Y-8036484D02*
X7931968Y-8036484D01*
X7931968Y-8036484D02*
X7912920Y-8026960D01*
X7912920Y-8026960D02*
X7903396Y-8007912D01*
X7903396Y-8007912D02*
X7903396Y-7988865D01*
X7903396Y-7988865D02*
X7912920Y-7969817D01*
X7912920Y-7969817D02*
X7931968Y-7960293D01*
X7931968Y-7960293D02*
X7979587Y-7960293D01*
X7979587Y-7960293D02*
X7998634Y-7950769D01*
X8065301Y-7903150D02*
X8141492Y-7903150D01*
X8093873Y-7836484D02*
X8093873Y-8007912D01*
X8093873Y-8007912D02*
X8103396Y-8026960D01*
X8103396Y-8026960D02*
X8122444Y-8036484D01*
X8122444Y-8036484D02*
X8141492Y-8036484D01*
X8284349Y-8026960D02*
X8265301Y-8036484D01*
X8265301Y-8036484D02*
X8227206Y-8036484D01*
X8227206Y-8036484D02*
X8208158Y-8026960D01*
X8208158Y-8026960D02*
X8198634Y-8007912D01*
X8198634Y-8007912D02*
X8198634Y-7931722D01*
X8198634Y-7931722D02*
X8208158Y-7912674D01*
X8208158Y-7912674D02*
X8227206Y-7903150D01*
X8227206Y-7903150D02*
X8265301Y-7903150D01*
X8265301Y-7903150D02*
X8284349Y-7912674D01*
X8284349Y-7912674D02*
X8293873Y-7931722D01*
X8293873Y-7931722D02*
X8293873Y-7950769D01*
X8293873Y-7950769D02*
X8198634Y-7969817D01*
X8465301Y-8036484D02*
X8465301Y-7836484D01*
X8465301Y-8026960D02*
X8446254Y-8036484D01*
X8446254Y-8036484D02*
X8408158Y-8036484D01*
X8408158Y-8036484D02*
X8389111Y-8026960D01*
X8389111Y-8026960D02*
X8379587Y-8017436D01*
X8379587Y-8017436D02*
X8370063Y-7998388D01*
X8370063Y-7998388D02*
X8370063Y-7941246D01*
X8370063Y-7941246D02*
X8379587Y-7922198D01*
X8379587Y-7922198D02*
X8389111Y-7912674D01*
X8389111Y-7912674D02*
X8408158Y-7903150D01*
X8408158Y-7903150D02*
X8446254Y-7903150D01*
X8446254Y-7903150D02*
X8465301Y-7912674D01*
X8541492Y-8112674D02*
X8551016Y-8103150D01*
X8551016Y-8103150D02*
X8570063Y-8074579D01*
X8570063Y-8074579D02*
X8579587Y-8055531D01*
X8579587Y-8055531D02*
X8589111Y-8026960D01*
X8589111Y-8026960D02*
X8598635Y-7979341D01*
X8598635Y-7979341D02*
X8598635Y-7941246D01*
X8598635Y-7941246D02*
X8589111Y-7893627D01*
X8589111Y-7893627D02*
X8579587Y-7865055D01*
X8579587Y-7865055D02*
X8570063Y-7846008D01*
X8570063Y-7846008D02*
X8551016Y-7817436D01*
X8551016Y-7817436D02*
X8541492Y-7807912D01*
X1595000Y-8235180D02*
G75*
G02*
X1395000Y-8235180I-100000J0D01*
G01*
X1395000Y-8235180D02*
G75*
G02*
X1595000Y-8235180I100000J0D01*
G01*
X1836729Y-8126664D02*
X1960539Y-8126664D01*
X1960539Y-8126664D02*
X1893872Y-8202854D01*
X1893872Y-8202854D02*
X1922443Y-8202854D01*
X1922443Y-8202854D02*
X1941491Y-8212378D01*
X1941491Y-8212378D02*
X1951015Y-8221902D01*
X1951015Y-8221902D02*
X1960539Y-8240949D01*
X1960539Y-8240949D02*
X1960539Y-8288568D01*
X1960539Y-8288568D02*
X1951015Y-8307616D01*
X1951015Y-8307616D02*
X1941491Y-8317140D01*
X1941491Y-8317140D02*
X1922443Y-8326664D01*
X1922443Y-8326664D02*
X1865301Y-8326664D01*
X1865301Y-8326664D02*
X1846253Y-8317140D01*
X1846253Y-8317140D02*
X1836729Y-8307616D01*
X2046253Y-8307616D02*
X2055777Y-8317140D01*
X2055777Y-8317140D02*
X2046253Y-8326664D01*
X2046253Y-8326664D02*
X2036729Y-8317140D01*
X2036729Y-8317140D02*
X2046253Y-8307616D01*
X2046253Y-8307616D02*
X2046253Y-8326664D01*
X2236729Y-8126664D02*
X2141491Y-8126664D01*
X2141491Y-8126664D02*
X2131967Y-8221902D01*
X2131967Y-8221902D02*
X2141491Y-8212378D01*
X2141491Y-8212378D02*
X2160539Y-8202854D01*
X2160539Y-8202854D02*
X2208158Y-8202854D01*
X2208158Y-8202854D02*
X2227205Y-8212378D01*
X2227205Y-8212378D02*
X2236729Y-8221902D01*
X2236729Y-8221902D02*
X2246253Y-8240949D01*
X2246253Y-8240949D02*
X2246253Y-8288568D01*
X2246253Y-8288568D02*
X2236729Y-8307616D01*
X2236729Y-8307616D02*
X2227205Y-8317140D01*
X2227205Y-8317140D02*
X2208158Y-8326664D01*
X2208158Y-8326664D02*
X2160539Y-8326664D01*
X2160539Y-8326664D02*
X2141491Y-8317140D01*
X2141491Y-8317140D02*
X2131967Y-8307616D01*
X2370063Y-8126664D02*
X2389110Y-8126664D01*
X2389110Y-8126664D02*
X2408158Y-8136188D01*
X2408158Y-8136188D02*
X2417682Y-8145711D01*
X2417682Y-8145711D02*
X2427205Y-8164759D01*
X2427205Y-8164759D02*
X2436729Y-8202854D01*
X2436729Y-8202854D02*
X2436729Y-8250473D01*
X2436729Y-8250473D02*
X2427205Y-8288568D01*
X2427205Y-8288568D02*
X2417682Y-8307616D01*
X2417682Y-8307616D02*
X2408158Y-8317140D01*
X2408158Y-8317140D02*
X2389110Y-8326664D01*
X2389110Y-8326664D02*
X2370063Y-8326664D01*
X2370063Y-8326664D02*
X2351015Y-8317140D01*
X2351015Y-8317140D02*
X2341491Y-8307616D01*
X2341491Y-8307616D02*
X2331967Y-8288568D01*
X2331967Y-8288568D02*
X2322444Y-8250473D01*
X2322444Y-8250473D02*
X2322444Y-8202854D01*
X2322444Y-8202854D02*
X2331967Y-8164759D01*
X2331967Y-8164759D02*
X2341491Y-8145711D01*
X2341491Y-8145711D02*
X2351015Y-8136188D01*
X2351015Y-8136188D02*
X2370063Y-8126664D01*
X2560539Y-8126664D02*
X2579586Y-8126664D01*
X2579586Y-8126664D02*
X2598634Y-8136188D01*
X2598634Y-8136188D02*
X2608158Y-8145711D01*
X2608158Y-8145711D02*
X2617682Y-8164759D01*
X2617682Y-8164759D02*
X2627205Y-8202854D01*
X2627205Y-8202854D02*
X2627205Y-8250473D01*
X2627205Y-8250473D02*
X2617682Y-8288568D01*
X2617682Y-8288568D02*
X2608158Y-8307616D01*
X2608158Y-8307616D02*
X2598634Y-8317140D01*
X2598634Y-8317140D02*
X2579586Y-8326664D01*
X2579586Y-8326664D02*
X2560539Y-8326664D01*
X2560539Y-8326664D02*
X2541491Y-8317140D01*
X2541491Y-8317140D02*
X2531967Y-8307616D01*
X2531967Y-8307616D02*
X2522444Y-8288568D01*
X2522444Y-8288568D02*
X2512920Y-8250473D01*
X2512920Y-8250473D02*
X2512920Y-8202854D01*
X2512920Y-8202854D02*
X2522444Y-8164759D01*
X2522444Y-8164759D02*
X2531967Y-8145711D01*
X2531967Y-8145711D02*
X2541491Y-8136188D01*
X2541491Y-8136188D02*
X2560539Y-8126664D01*
X2712920Y-8326664D02*
X2712920Y-8193330D01*
X2712920Y-8212378D02*
X2722444Y-8202854D01*
X2722444Y-8202854D02*
X2741491Y-8193330D01*
X2741491Y-8193330D02*
X2770063Y-8193330D01*
X2770063Y-8193330D02*
X2789110Y-8202854D01*
X2789110Y-8202854D02*
X2798634Y-8221902D01*
X2798634Y-8221902D02*
X2798634Y-8326664D01*
X2798634Y-8221902D02*
X2808158Y-8202854D01*
X2808158Y-8202854D02*
X2827205Y-8193330D01*
X2827205Y-8193330D02*
X2855777Y-8193330D01*
X2855777Y-8193330D02*
X2874824Y-8202854D01*
X2874824Y-8202854D02*
X2884348Y-8221902D01*
X2884348Y-8221902D02*
X2884348Y-8326664D01*
X2979586Y-8326664D02*
X2979586Y-8193330D01*
X2979586Y-8212378D02*
X2989110Y-8202854D01*
X2989110Y-8202854D02*
X3008158Y-8193330D01*
X3008158Y-8193330D02*
X3036729Y-8193330D01*
X3036729Y-8193330D02*
X3055777Y-8202854D01*
X3055777Y-8202854D02*
X3065301Y-8221902D01*
X3065301Y-8221902D02*
X3065301Y-8326664D01*
X3065301Y-8221902D02*
X3074824Y-8202854D01*
X3074824Y-8202854D02*
X3093872Y-8193330D01*
X3093872Y-8193330D02*
X3122443Y-8193330D01*
X3122443Y-8193330D02*
X3141491Y-8202854D01*
X3141491Y-8202854D02*
X3151015Y-8221902D01*
X3151015Y-8221902D02*
X3151015Y-8326664D01*
X3541491Y-8117140D02*
X3370063Y-8374283D01*
X3798634Y-8126664D02*
X3817682Y-8126664D01*
X3817682Y-8126664D02*
X3836729Y-8136188D01*
X3836729Y-8136188D02*
X3846253Y-8145711D01*
X3846253Y-8145711D02*
X3855777Y-8164759D01*
X3855777Y-8164759D02*
X3865301Y-8202854D01*
X3865301Y-8202854D02*
X3865301Y-8250473D01*
X3865301Y-8250473D02*
X3855777Y-8288568D01*
X3855777Y-8288568D02*
X3846253Y-8307616D01*
X3846253Y-8307616D02*
X3836729Y-8317140D01*
X3836729Y-8317140D02*
X3817682Y-8326664D01*
X3817682Y-8326664D02*
X3798634Y-8326664D01*
X3798634Y-8326664D02*
X3779586Y-8317140D01*
X3779586Y-8317140D02*
X3770063Y-8307616D01*
X3770063Y-8307616D02*
X3760539Y-8288568D01*
X3760539Y-8288568D02*
X3751015Y-8250473D01*
X3751015Y-8250473D02*
X3751015Y-8202854D01*
X3751015Y-8202854D02*
X3760539Y-8164759D01*
X3760539Y-8164759D02*
X3770063Y-8145711D01*
X3770063Y-8145711D02*
X3779586Y-8136188D01*
X3779586Y-8136188D02*
X3798634Y-8126664D01*
X3951015Y-8307616D02*
X3960539Y-8317140D01*
X3960539Y-8317140D02*
X3951015Y-8326664D01*
X3951015Y-8326664D02*
X3941491Y-8317140D01*
X3941491Y-8317140D02*
X3951015Y-8307616D01*
X3951015Y-8307616D02*
X3951015Y-8326664D01*
X4151015Y-8326664D02*
X4036729Y-8326664D01*
X4093872Y-8326664D02*
X4093872Y-8126664D01*
X4093872Y-8126664D02*
X4074825Y-8155235D01*
X4074825Y-8155235D02*
X4055777Y-8174283D01*
X4055777Y-8174283D02*
X4036729Y-8183807D01*
X4217682Y-8126664D02*
X4341491Y-8126664D01*
X4341491Y-8126664D02*
X4274825Y-8202854D01*
X4274825Y-8202854D02*
X4303396Y-8202854D01*
X4303396Y-8202854D02*
X4322444Y-8212378D01*
X4322444Y-8212378D02*
X4331968Y-8221902D01*
X4331968Y-8221902D02*
X4341491Y-8240949D01*
X4341491Y-8240949D02*
X4341491Y-8288568D01*
X4341491Y-8288568D02*
X4331968Y-8307616D01*
X4331968Y-8307616D02*
X4322444Y-8317140D01*
X4322444Y-8317140D02*
X4303396Y-8326664D01*
X4303396Y-8326664D02*
X4246253Y-8326664D01*
X4246253Y-8326664D02*
X4227206Y-8317140D01*
X4227206Y-8317140D02*
X4217682Y-8307616D01*
X4408158Y-8126664D02*
X4541491Y-8126664D01*
X4541491Y-8126664D02*
X4455777Y-8326664D01*
X4646253Y-8212378D02*
X4627206Y-8202854D01*
X4627206Y-8202854D02*
X4617682Y-8193330D01*
X4617682Y-8193330D02*
X4608158Y-8174283D01*
X4608158Y-8174283D02*
X4608158Y-8164759D01*
X4608158Y-8164759D02*
X4617682Y-8145711D01*
X4617682Y-8145711D02*
X4627206Y-8136188D01*
X4627206Y-8136188D02*
X4646253Y-8126664D01*
X4646253Y-8126664D02*
X4684349Y-8126664D01*
X4684349Y-8126664D02*
X4703396Y-8136188D01*
X4703396Y-8136188D02*
X4712920Y-8145711D01*
X4712920Y-8145711D02*
X4722444Y-8164759D01*
X4722444Y-8164759D02*
X4722444Y-8174283D01*
X4722444Y-8174283D02*
X4712920Y-8193330D01*
X4712920Y-8193330D02*
X4703396Y-8202854D01*
X4703396Y-8202854D02*
X4684349Y-8212378D01*
X4684349Y-8212378D02*
X4646253Y-8212378D01*
X4646253Y-8212378D02*
X4627206Y-8221902D01*
X4627206Y-8221902D02*
X4617682Y-8231426D01*
X4617682Y-8231426D02*
X4608158Y-8250473D01*
X4608158Y-8250473D02*
X4608158Y-8288568D01*
X4608158Y-8288568D02*
X4617682Y-8307616D01*
X4617682Y-8307616D02*
X4627206Y-8317140D01*
X4627206Y-8317140D02*
X4646253Y-8326664D01*
X4646253Y-8326664D02*
X4684349Y-8326664D01*
X4684349Y-8326664D02*
X4703396Y-8317140D01*
X4703396Y-8317140D02*
X4712920Y-8307616D01*
X4712920Y-8307616D02*
X4722444Y-8288568D01*
X4722444Y-8288568D02*
X4722444Y-8250473D01*
X4722444Y-8250473D02*
X4712920Y-8231426D01*
X4712920Y-8231426D02*
X4703396Y-8221902D01*
X4703396Y-8221902D02*
X4684349Y-8212378D01*
X4798634Y-8126664D02*
X4798634Y-8164759D01*
X4874825Y-8126664D02*
X4874825Y-8164759D01*
X5170063Y-8402854D02*
X5160539Y-8393330D01*
X5160539Y-8393330D02*
X5141491Y-8364759D01*
X5141491Y-8364759D02*
X5131968Y-8345711D01*
X5131968Y-8345711D02*
X5122444Y-8317140D01*
X5122444Y-8317140D02*
X5112920Y-8269521D01*
X5112920Y-8269521D02*
X5112920Y-8231426D01*
X5112920Y-8231426D02*
X5122444Y-8183807D01*
X5122444Y-8183807D02*
X5131968Y-8155235D01*
X5131968Y-8155235D02*
X5141491Y-8136188D01*
X5141491Y-8136188D02*
X5160539Y-8107616D01*
X5160539Y-8107616D02*
X5170063Y-8098092D01*
X5236730Y-8145711D02*
X5246253Y-8136188D01*
X5246253Y-8136188D02*
X5265301Y-8126664D01*
X5265301Y-8126664D02*
X5312920Y-8126664D01*
X5312920Y-8126664D02*
X5331968Y-8136188D01*
X5331968Y-8136188D02*
X5341491Y-8145711D01*
X5341491Y-8145711D02*
X5351015Y-8164759D01*
X5351015Y-8164759D02*
X5351015Y-8183807D01*
X5351015Y-8183807D02*
X5341491Y-8212378D01*
X5341491Y-8212378D02*
X5227206Y-8326664D01*
X5227206Y-8326664D02*
X5351015Y-8326664D01*
X5589111Y-8326664D02*
X5589111Y-8126664D01*
X5674825Y-8326664D02*
X5674825Y-8221902D01*
X5674825Y-8221902D02*
X5665301Y-8202854D01*
X5665301Y-8202854D02*
X5646253Y-8193330D01*
X5646253Y-8193330D02*
X5617682Y-8193330D01*
X5617682Y-8193330D02*
X5598634Y-8202854D01*
X5598634Y-8202854D02*
X5589111Y-8212378D01*
X5798634Y-8326664D02*
X5779587Y-8317140D01*
X5779587Y-8317140D02*
X5770063Y-8307616D01*
X5770063Y-8307616D02*
X5760539Y-8288568D01*
X5760539Y-8288568D02*
X5760539Y-8231426D01*
X5760539Y-8231426D02*
X5770063Y-8212378D01*
X5770063Y-8212378D02*
X5779587Y-8202854D01*
X5779587Y-8202854D02*
X5798634Y-8193330D01*
X5798634Y-8193330D02*
X5827206Y-8193330D01*
X5827206Y-8193330D02*
X5846253Y-8202854D01*
X5846253Y-8202854D02*
X5855777Y-8212378D01*
X5855777Y-8212378D02*
X5865301Y-8231426D01*
X5865301Y-8231426D02*
X5865301Y-8288568D01*
X5865301Y-8288568D02*
X5855777Y-8307616D01*
X5855777Y-8307616D02*
X5846253Y-8317140D01*
X5846253Y-8317140D02*
X5827206Y-8326664D01*
X5827206Y-8326664D02*
X5798634Y-8326664D01*
X5979587Y-8326664D02*
X5960539Y-8317140D01*
X5960539Y-8317140D02*
X5951015Y-8298092D01*
X5951015Y-8298092D02*
X5951015Y-8126664D01*
X6131968Y-8317140D02*
X6112920Y-8326664D01*
X6112920Y-8326664D02*
X6074825Y-8326664D01*
X6074825Y-8326664D02*
X6055777Y-8317140D01*
X6055777Y-8317140D02*
X6046253Y-8298092D01*
X6046253Y-8298092D02*
X6046253Y-8221902D01*
X6046253Y-8221902D02*
X6055777Y-8202854D01*
X6055777Y-8202854D02*
X6074825Y-8193330D01*
X6074825Y-8193330D02*
X6112920Y-8193330D01*
X6112920Y-8193330D02*
X6131968Y-8202854D01*
X6131968Y-8202854D02*
X6141491Y-8221902D01*
X6141491Y-8221902D02*
X6141491Y-8240949D01*
X6141491Y-8240949D02*
X6046253Y-8259997D01*
X6217682Y-8317140D02*
X6236730Y-8326664D01*
X6236730Y-8326664D02*
X6274825Y-8326664D01*
X6274825Y-8326664D02*
X6293872Y-8317140D01*
X6293872Y-8317140D02*
X6303396Y-8298092D01*
X6303396Y-8298092D02*
X6303396Y-8288568D01*
X6303396Y-8288568D02*
X6293872Y-8269521D01*
X6293872Y-8269521D02*
X6274825Y-8259997D01*
X6274825Y-8259997D02*
X6246253Y-8259997D01*
X6246253Y-8259997D02*
X6227206Y-8250473D01*
X6227206Y-8250473D02*
X6217682Y-8231426D01*
X6217682Y-8231426D02*
X6217682Y-8221902D01*
X6217682Y-8221902D02*
X6227206Y-8202854D01*
X6227206Y-8202854D02*
X6246253Y-8193330D01*
X6246253Y-8193330D02*
X6274825Y-8193330D01*
X6274825Y-8193330D02*
X6293872Y-8202854D01*
X6370063Y-8402854D02*
X6379587Y-8393330D01*
X6379587Y-8393330D02*
X6398634Y-8364759D01*
X6398634Y-8364759D02*
X6408158Y-8345711D01*
X6408158Y-8345711D02*
X6417682Y-8317140D01*
X6417682Y-8317140D02*
X6427206Y-8269521D01*
X6427206Y-8269521D02*
X6427206Y-8231426D01*
X6427206Y-8231426D02*
X6417682Y-8183807D01*
X6417682Y-8183807D02*
X6408158Y-8155235D01*
X6408158Y-8155235D02*
X6398634Y-8136188D01*
X6398634Y-8136188D02*
X6379587Y-8107616D01*
X6379587Y-8107616D02*
X6370063Y-8098092D01*
X6731968Y-8402854D02*
X6722444Y-8393330D01*
X6722444Y-8393330D02*
X6703396Y-8364759D01*
X6703396Y-8364759D02*
X6693872Y-8345711D01*
X6693872Y-8345711D02*
X6684349Y-8317140D01*
X6684349Y-8317140D02*
X6674825Y-8269521D01*
X6674825Y-8269521D02*
X6674825Y-8231426D01*
X6674825Y-8231426D02*
X6684349Y-8183807D01*
X6684349Y-8183807D02*
X6693872Y-8155235D01*
X6693872Y-8155235D02*
X6703396Y-8136188D01*
X6703396Y-8136188D02*
X6722444Y-8107616D01*
X6722444Y-8107616D02*
X6731968Y-8098092D01*
X6808158Y-8193330D02*
X6808158Y-8326664D01*
X6808158Y-8212378D02*
X6817682Y-8202854D01*
X6817682Y-8202854D02*
X6836730Y-8193330D01*
X6836730Y-8193330D02*
X6865301Y-8193330D01*
X6865301Y-8193330D02*
X6884349Y-8202854D01*
X6884349Y-8202854D02*
X6893872Y-8221902D01*
X6893872Y-8221902D02*
X6893872Y-8326664D01*
X7017682Y-8326664D02*
X6998634Y-8317140D01*
X6998634Y-8317140D02*
X6989111Y-8307616D01*
X6989111Y-8307616D02*
X6979587Y-8288568D01*
X6979587Y-8288568D02*
X6979587Y-8231426D01*
X6979587Y-8231426D02*
X6989111Y-8212378D01*
X6989111Y-8212378D02*
X6998634Y-8202854D01*
X6998634Y-8202854D02*
X7017682Y-8193330D01*
X7017682Y-8193330D02*
X7046253Y-8193330D01*
X7046253Y-8193330D02*
X7065301Y-8202854D01*
X7065301Y-8202854D02*
X7074825Y-8212378D01*
X7074825Y-8212378D02*
X7084349Y-8231426D01*
X7084349Y-8231426D02*
X7084349Y-8288568D01*
X7084349Y-8288568D02*
X7074825Y-8307616D01*
X7074825Y-8307616D02*
X7065301Y-8317140D01*
X7065301Y-8317140D02*
X7046253Y-8326664D01*
X7046253Y-8326664D02*
X7017682Y-8326664D01*
X7141492Y-8193330D02*
X7217682Y-8193330D01*
X7170063Y-8126664D02*
X7170063Y-8298092D01*
X7170063Y-8298092D02*
X7179587Y-8317140D01*
X7179587Y-8317140D02*
X7198634Y-8326664D01*
X7198634Y-8326664D02*
X7217682Y-8326664D01*
X7436730Y-8193330D02*
X7436730Y-8393330D01*
X7436730Y-8202854D02*
X7455777Y-8193330D01*
X7455777Y-8193330D02*
X7493873Y-8193330D01*
X7493873Y-8193330D02*
X7512920Y-8202854D01*
X7512920Y-8202854D02*
X7522444Y-8212378D01*
X7522444Y-8212378D02*
X7531968Y-8231426D01*
X7531968Y-8231426D02*
X7531968Y-8288568D01*
X7531968Y-8288568D02*
X7522444Y-8307616D01*
X7522444Y-8307616D02*
X7512920Y-8317140D01*
X7512920Y-8317140D02*
X7493873Y-8326664D01*
X7493873Y-8326664D02*
X7455777Y-8326664D01*
X7455777Y-8326664D02*
X7436730Y-8317140D01*
X7646253Y-8326664D02*
X7627206Y-8317140D01*
X7627206Y-8317140D02*
X7617682Y-8298092D01*
X7617682Y-8298092D02*
X7617682Y-8126664D01*
X7808158Y-8326664D02*
X7808158Y-8221902D01*
X7808158Y-8221902D02*
X7798634Y-8202854D01*
X7798634Y-8202854D02*
X7779587Y-8193330D01*
X7779587Y-8193330D02*
X7741492Y-8193330D01*
X7741492Y-8193330D02*
X7722444Y-8202854D01*
X7808158Y-8317140D02*
X7789111Y-8326664D01*
X7789111Y-8326664D02*
X7741492Y-8326664D01*
X7741492Y-8326664D02*
X7722444Y-8317140D01*
X7722444Y-8317140D02*
X7712920Y-8298092D01*
X7712920Y-8298092D02*
X7712920Y-8279045D01*
X7712920Y-8279045D02*
X7722444Y-8259997D01*
X7722444Y-8259997D02*
X7741492Y-8250473D01*
X7741492Y-8250473D02*
X7789111Y-8250473D01*
X7789111Y-8250473D02*
X7808158Y-8240949D01*
X7874825Y-8193330D02*
X7951015Y-8193330D01*
X7903396Y-8126664D02*
X7903396Y-8298092D01*
X7903396Y-8298092D02*
X7912920Y-8317140D01*
X7912920Y-8317140D02*
X7931968Y-8326664D01*
X7931968Y-8326664D02*
X7951015Y-8326664D01*
X8093873Y-8317140D02*
X8074825Y-8326664D01*
X8074825Y-8326664D02*
X8036730Y-8326664D01*
X8036730Y-8326664D02*
X8017682Y-8317140D01*
X8017682Y-8317140D02*
X8008158Y-8298092D01*
X8008158Y-8298092D02*
X8008158Y-8221902D01*
X8008158Y-8221902D02*
X8017682Y-8202854D01*
X8017682Y-8202854D02*
X8036730Y-8193330D01*
X8036730Y-8193330D02*
X8074825Y-8193330D01*
X8074825Y-8193330D02*
X8093873Y-8202854D01*
X8093873Y-8202854D02*
X8103396Y-8221902D01*
X8103396Y-8221902D02*
X8103396Y-8240949D01*
X8103396Y-8240949D02*
X8008158Y-8259997D01*
X8274825Y-8326664D02*
X8274825Y-8126664D01*
X8274825Y-8317140D02*
X8255777Y-8326664D01*
X8255777Y-8326664D02*
X8217682Y-8326664D01*
X8217682Y-8326664D02*
X8198634Y-8317140D01*
X8198634Y-8317140D02*
X8189111Y-8307616D01*
X8189111Y-8307616D02*
X8179587Y-8288568D01*
X8179587Y-8288568D02*
X8179587Y-8231426D01*
X8179587Y-8231426D02*
X8189111Y-8212378D01*
X8189111Y-8212378D02*
X8198634Y-8202854D01*
X8198634Y-8202854D02*
X8217682Y-8193330D01*
X8217682Y-8193330D02*
X8255777Y-8193330D01*
X8255777Y-8193330D02*
X8274825Y-8202854D01*
X8351015Y-8402854D02*
X8360539Y-8393330D01*
X8360539Y-8393330D02*
X8379587Y-8364759D01*
X8379587Y-8364759D02*
X8389111Y-8345711D01*
X8389111Y-8345711D02*
X8398635Y-8317140D01*
X8398635Y-8317140D02*
X8408158Y-8269521D01*
X8408158Y-8269521D02*
X8408158Y-8231426D01*
X8408158Y-8231426D02*
X8398635Y-8183807D01*
X8398635Y-8183807D02*
X8389111Y-8155235D01*
X8389111Y-8155235D02*
X8379587Y-8136188D01*
X8379587Y-8136188D02*
X8360539Y-8107616D01*
X8360539Y-8107616D02*
X8351015Y-8098092D01*
X1495000Y-8455180D02*
X1495000Y-8655180D01*
X1395000Y-8555180D02*
X1595000Y-8555180D01*
X1836729Y-8446664D02*
X1960539Y-8446664D01*
X1960539Y-8446664D02*
X1893872Y-8522854D01*
X1893872Y-8522854D02*
X1922443Y-8522854D01*
X1922443Y-8522854D02*
X1941491Y-8532378D01*
X1941491Y-8532378D02*
X1951015Y-8541902D01*
X1951015Y-8541902D02*
X1960539Y-8560950D01*
X1960539Y-8560950D02*
X1960539Y-8608569D01*
X1960539Y-8608569D02*
X1951015Y-8627616D01*
X1951015Y-8627616D02*
X1941491Y-8637140D01*
X1941491Y-8637140D02*
X1922443Y-8646664D01*
X1922443Y-8646664D02*
X1865301Y-8646664D01*
X1865301Y-8646664D02*
X1846253Y-8637140D01*
X1846253Y-8637140D02*
X1836729Y-8627616D01*
X2046253Y-8627616D02*
X2055777Y-8637140D01*
X2055777Y-8637140D02*
X2046253Y-8646664D01*
X2046253Y-8646664D02*
X2036729Y-8637140D01*
X2036729Y-8637140D02*
X2046253Y-8627616D01*
X2046253Y-8627616D02*
X2046253Y-8646664D01*
X2151015Y-8646664D02*
X2189110Y-8646664D01*
X2189110Y-8646664D02*
X2208158Y-8637140D01*
X2208158Y-8637140D02*
X2217682Y-8627616D01*
X2217682Y-8627616D02*
X2236729Y-8599045D01*
X2236729Y-8599045D02*
X2246253Y-8560950D01*
X2246253Y-8560950D02*
X2246253Y-8484759D01*
X2246253Y-8484759D02*
X2236729Y-8465711D01*
X2236729Y-8465711D02*
X2227205Y-8456188D01*
X2227205Y-8456188D02*
X2208158Y-8446664D01*
X2208158Y-8446664D02*
X2170063Y-8446664D01*
X2170063Y-8446664D02*
X2151015Y-8456188D01*
X2151015Y-8456188D02*
X2141491Y-8465711D01*
X2141491Y-8465711D02*
X2131967Y-8484759D01*
X2131967Y-8484759D02*
X2131967Y-8532378D01*
X2131967Y-8532378D02*
X2141491Y-8551426D01*
X2141491Y-8551426D02*
X2151015Y-8560950D01*
X2151015Y-8560950D02*
X2170063Y-8570473D01*
X2170063Y-8570473D02*
X2208158Y-8570473D01*
X2208158Y-8570473D02*
X2227205Y-8560950D01*
X2227205Y-8560950D02*
X2236729Y-8551426D01*
X2236729Y-8551426D02*
X2246253Y-8532378D01*
X2360539Y-8532378D02*
X2341491Y-8522854D01*
X2341491Y-8522854D02*
X2331967Y-8513330D01*
X2331967Y-8513330D02*
X2322444Y-8494283D01*
X2322444Y-8494283D02*
X2322444Y-8484759D01*
X2322444Y-8484759D02*
X2331967Y-8465711D01*
X2331967Y-8465711D02*
X2341491Y-8456188D01*
X2341491Y-8456188D02*
X2360539Y-8446664D01*
X2360539Y-8446664D02*
X2398634Y-8446664D01*
X2398634Y-8446664D02*
X2417682Y-8456188D01*
X2417682Y-8456188D02*
X2427205Y-8465711D01*
X2427205Y-8465711D02*
X2436729Y-8484759D01*
X2436729Y-8484759D02*
X2436729Y-8494283D01*
X2436729Y-8494283D02*
X2427205Y-8513330D01*
X2427205Y-8513330D02*
X2417682Y-8522854D01*
X2417682Y-8522854D02*
X2398634Y-8532378D01*
X2398634Y-8532378D02*
X2360539Y-8532378D01*
X2360539Y-8532378D02*
X2341491Y-8541902D01*
X2341491Y-8541902D02*
X2331967Y-8551426D01*
X2331967Y-8551426D02*
X2322444Y-8570473D01*
X2322444Y-8570473D02*
X2322444Y-8608569D01*
X2322444Y-8608569D02*
X2331967Y-8627616D01*
X2331967Y-8627616D02*
X2341491Y-8637140D01*
X2341491Y-8637140D02*
X2360539Y-8646664D01*
X2360539Y-8646664D02*
X2398634Y-8646664D01*
X2398634Y-8646664D02*
X2417682Y-8637140D01*
X2417682Y-8637140D02*
X2427205Y-8627616D01*
X2427205Y-8627616D02*
X2436729Y-8608569D01*
X2436729Y-8608569D02*
X2436729Y-8570473D01*
X2436729Y-8570473D02*
X2427205Y-8551426D01*
X2427205Y-8551426D02*
X2417682Y-8541902D01*
X2417682Y-8541902D02*
X2398634Y-8532378D01*
X2551015Y-8532378D02*
X2531967Y-8522854D01*
X2531967Y-8522854D02*
X2522444Y-8513330D01*
X2522444Y-8513330D02*
X2512920Y-8494283D01*
X2512920Y-8494283D02*
X2512920Y-8484759D01*
X2512920Y-8484759D02*
X2522444Y-8465711D01*
X2522444Y-8465711D02*
X2531967Y-8456188D01*
X2531967Y-8456188D02*
X2551015Y-8446664D01*
X2551015Y-8446664D02*
X2589110Y-8446664D01*
X2589110Y-8446664D02*
X2608158Y-8456188D01*
X2608158Y-8456188D02*
X2617682Y-8465711D01*
X2617682Y-8465711D02*
X2627205Y-8484759D01*
X2627205Y-8484759D02*
X2627205Y-8494283D01*
X2627205Y-8494283D02*
X2617682Y-8513330D01*
X2617682Y-8513330D02*
X2608158Y-8522854D01*
X2608158Y-8522854D02*
X2589110Y-8532378D01*
X2589110Y-8532378D02*
X2551015Y-8532378D01*
X2551015Y-8532378D02*
X2531967Y-8541902D01*
X2531967Y-8541902D02*
X2522444Y-8551426D01*
X2522444Y-8551426D02*
X2512920Y-8570473D01*
X2512920Y-8570473D02*
X2512920Y-8608569D01*
X2512920Y-8608569D02*
X2522444Y-8627616D01*
X2522444Y-8627616D02*
X2531967Y-8637140D01*
X2531967Y-8637140D02*
X2551015Y-8646664D01*
X2551015Y-8646664D02*
X2589110Y-8646664D01*
X2589110Y-8646664D02*
X2608158Y-8637140D01*
X2608158Y-8637140D02*
X2617682Y-8627616D01*
X2617682Y-8627616D02*
X2627205Y-8608569D01*
X2627205Y-8608569D02*
X2627205Y-8570473D01*
X2627205Y-8570473D02*
X2617682Y-8551426D01*
X2617682Y-8551426D02*
X2608158Y-8541902D01*
X2608158Y-8541902D02*
X2589110Y-8532378D01*
X2712920Y-8646664D02*
X2712920Y-8513330D01*
X2712920Y-8532378D02*
X2722444Y-8522854D01*
X2722444Y-8522854D02*
X2741491Y-8513330D01*
X2741491Y-8513330D02*
X2770063Y-8513330D01*
X2770063Y-8513330D02*
X2789110Y-8522854D01*
X2789110Y-8522854D02*
X2798634Y-8541902D01*
X2798634Y-8541902D02*
X2798634Y-8646664D01*
X2798634Y-8541902D02*
X2808158Y-8522854D01*
X2808158Y-8522854D02*
X2827205Y-8513330D01*
X2827205Y-8513330D02*
X2855777Y-8513330D01*
X2855777Y-8513330D02*
X2874824Y-8522854D01*
X2874824Y-8522854D02*
X2884348Y-8541902D01*
X2884348Y-8541902D02*
X2884348Y-8646664D01*
X2979586Y-8646664D02*
X2979586Y-8513330D01*
X2979586Y-8532378D02*
X2989110Y-8522854D01*
X2989110Y-8522854D02*
X3008158Y-8513330D01*
X3008158Y-8513330D02*
X3036729Y-8513330D01*
X3036729Y-8513330D02*
X3055777Y-8522854D01*
X3055777Y-8522854D02*
X3065301Y-8541902D01*
X3065301Y-8541902D02*
X3065301Y-8646664D01*
X3065301Y-8541902D02*
X3074824Y-8522854D01*
X3074824Y-8522854D02*
X3093872Y-8513330D01*
X3093872Y-8513330D02*
X3122443Y-8513330D01*
X3122443Y-8513330D02*
X3141491Y-8522854D01*
X3141491Y-8522854D02*
X3151015Y-8541902D01*
X3151015Y-8541902D02*
X3151015Y-8646664D01*
X3541491Y-8437140D02*
X3370063Y-8694283D01*
X3798634Y-8446664D02*
X3817682Y-8446664D01*
X3817682Y-8446664D02*
X3836729Y-8456188D01*
X3836729Y-8456188D02*
X3846253Y-8465711D01*
X3846253Y-8465711D02*
X3855777Y-8484759D01*
X3855777Y-8484759D02*
X3865301Y-8522854D01*
X3865301Y-8522854D02*
X3865301Y-8570473D01*
X3865301Y-8570473D02*
X3855777Y-8608569D01*
X3855777Y-8608569D02*
X3846253Y-8627616D01*
X3846253Y-8627616D02*
X3836729Y-8637140D01*
X3836729Y-8637140D02*
X3817682Y-8646664D01*
X3817682Y-8646664D02*
X3798634Y-8646664D01*
X3798634Y-8646664D02*
X3779586Y-8637140D01*
X3779586Y-8637140D02*
X3770063Y-8627616D01*
X3770063Y-8627616D02*
X3760539Y-8608569D01*
X3760539Y-8608569D02*
X3751015Y-8570473D01*
X3751015Y-8570473D02*
X3751015Y-8522854D01*
X3751015Y-8522854D02*
X3760539Y-8484759D01*
X3760539Y-8484759D02*
X3770063Y-8465711D01*
X3770063Y-8465711D02*
X3779586Y-8456188D01*
X3779586Y-8456188D02*
X3798634Y-8446664D01*
X3951015Y-8627616D02*
X3960539Y-8637140D01*
X3960539Y-8637140D02*
X3951015Y-8646664D01*
X3951015Y-8646664D02*
X3941491Y-8637140D01*
X3941491Y-8637140D02*
X3951015Y-8627616D01*
X3951015Y-8627616D02*
X3951015Y-8646664D01*
X4151015Y-8646664D02*
X4036729Y-8646664D01*
X4093872Y-8646664D02*
X4093872Y-8446664D01*
X4093872Y-8446664D02*
X4074825Y-8475235D01*
X4074825Y-8475235D02*
X4055777Y-8494283D01*
X4055777Y-8494283D02*
X4036729Y-8503807D01*
X4331968Y-8446664D02*
X4236729Y-8446664D01*
X4236729Y-8446664D02*
X4227206Y-8541902D01*
X4227206Y-8541902D02*
X4236729Y-8532378D01*
X4236729Y-8532378D02*
X4255777Y-8522854D01*
X4255777Y-8522854D02*
X4303396Y-8522854D01*
X4303396Y-8522854D02*
X4322444Y-8532378D01*
X4322444Y-8532378D02*
X4331968Y-8541902D01*
X4331968Y-8541902D02*
X4341491Y-8560950D01*
X4341491Y-8560950D02*
X4341491Y-8608569D01*
X4341491Y-8608569D02*
X4331968Y-8627616D01*
X4331968Y-8627616D02*
X4322444Y-8637140D01*
X4322444Y-8637140D02*
X4303396Y-8646664D01*
X4303396Y-8646664D02*
X4255777Y-8646664D01*
X4255777Y-8646664D02*
X4236729Y-8637140D01*
X4236729Y-8637140D02*
X4227206Y-8627616D01*
X4408158Y-8446664D02*
X4541491Y-8446664D01*
X4541491Y-8446664D02*
X4455777Y-8646664D01*
X4655777Y-8446664D02*
X4674825Y-8446664D01*
X4674825Y-8446664D02*
X4693872Y-8456188D01*
X4693872Y-8456188D02*
X4703396Y-8465711D01*
X4703396Y-8465711D02*
X4712920Y-8484759D01*
X4712920Y-8484759D02*
X4722444Y-8522854D01*
X4722444Y-8522854D02*
X4722444Y-8570473D01*
X4722444Y-8570473D02*
X4712920Y-8608569D01*
X4712920Y-8608569D02*
X4703396Y-8627616D01*
X4703396Y-8627616D02*
X4693872Y-8637140D01*
X4693872Y-8637140D02*
X4674825Y-8646664D01*
X4674825Y-8646664D02*
X4655777Y-8646664D01*
X4655777Y-8646664D02*
X4636729Y-8637140D01*
X4636729Y-8637140D02*
X4627206Y-8627616D01*
X4627206Y-8627616D02*
X4617682Y-8608569D01*
X4617682Y-8608569D02*
X4608158Y-8570473D01*
X4608158Y-8570473D02*
X4608158Y-8522854D01*
X4608158Y-8522854D02*
X4617682Y-8484759D01*
X4617682Y-8484759D02*
X4627206Y-8465711D01*
X4627206Y-8465711D02*
X4636729Y-8456188D01*
X4636729Y-8456188D02*
X4655777Y-8446664D01*
X4798634Y-8446664D02*
X4798634Y-8484759D01*
X4874825Y-8446664D02*
X4874825Y-8484759D01*
X5170063Y-8722854D02*
X5160539Y-8713330D01*
X5160539Y-8713330D02*
X5141491Y-8684759D01*
X5141491Y-8684759D02*
X5131968Y-8665711D01*
X5131968Y-8665711D02*
X5122444Y-8637140D01*
X5122444Y-8637140D02*
X5112920Y-8589521D01*
X5112920Y-8589521D02*
X5112920Y-8551426D01*
X5112920Y-8551426D02*
X5122444Y-8503807D01*
X5122444Y-8503807D02*
X5131968Y-8475235D01*
X5131968Y-8475235D02*
X5141491Y-8456188D01*
X5141491Y-8456188D02*
X5160539Y-8427616D01*
X5160539Y-8427616D02*
X5170063Y-8418092D01*
X5255777Y-8646664D02*
X5293872Y-8646664D01*
X5293872Y-8646664D02*
X5312920Y-8637140D01*
X5312920Y-8637140D02*
X5322444Y-8627616D01*
X5322444Y-8627616D02*
X5341491Y-8599045D01*
X5341491Y-8599045D02*
X5351015Y-8560950D01*
X5351015Y-8560950D02*
X5351015Y-8484759D01*
X5351015Y-8484759D02*
X5341491Y-8465711D01*
X5341491Y-8465711D02*
X5331968Y-8456188D01*
X5331968Y-8456188D02*
X5312920Y-8446664D01*
X5312920Y-8446664D02*
X5274825Y-8446664D01*
X5274825Y-8446664D02*
X5255777Y-8456188D01*
X5255777Y-8456188D02*
X5246253Y-8465711D01*
X5246253Y-8465711D02*
X5236730Y-8484759D01*
X5236730Y-8484759D02*
X5236730Y-8532378D01*
X5236730Y-8532378D02*
X5246253Y-8551426D01*
X5246253Y-8551426D02*
X5255777Y-8560950D01*
X5255777Y-8560950D02*
X5274825Y-8570473D01*
X5274825Y-8570473D02*
X5312920Y-8570473D01*
X5312920Y-8570473D02*
X5331968Y-8560950D01*
X5331968Y-8560950D02*
X5341491Y-8551426D01*
X5341491Y-8551426D02*
X5351015Y-8532378D01*
X5589111Y-8646664D02*
X5589111Y-8446664D01*
X5674825Y-8646664D02*
X5674825Y-8541902D01*
X5674825Y-8541902D02*
X5665301Y-8522854D01*
X5665301Y-8522854D02*
X5646253Y-8513330D01*
X5646253Y-8513330D02*
X5617682Y-8513330D01*
X5617682Y-8513330D02*
X5598634Y-8522854D01*
X5598634Y-8522854D02*
X5589111Y-8532378D01*
X5798634Y-8646664D02*
X5779587Y-8637140D01*
X5779587Y-8637140D02*
X5770063Y-8627616D01*
X5770063Y-8627616D02*
X5760539Y-8608569D01*
X5760539Y-8608569D02*
X5760539Y-8551426D01*
X5760539Y-8551426D02*
X5770063Y-8532378D01*
X5770063Y-8532378D02*
X5779587Y-8522854D01*
X5779587Y-8522854D02*
X5798634Y-8513330D01*
X5798634Y-8513330D02*
X5827206Y-8513330D01*
X5827206Y-8513330D02*
X5846253Y-8522854D01*
X5846253Y-8522854D02*
X5855777Y-8532378D01*
X5855777Y-8532378D02*
X5865301Y-8551426D01*
X5865301Y-8551426D02*
X5865301Y-8608569D01*
X5865301Y-8608569D02*
X5855777Y-8627616D01*
X5855777Y-8627616D02*
X5846253Y-8637140D01*
X5846253Y-8637140D02*
X5827206Y-8646664D01*
X5827206Y-8646664D02*
X5798634Y-8646664D01*
X5979587Y-8646664D02*
X5960539Y-8637140D01*
X5960539Y-8637140D02*
X5951015Y-8618092D01*
X5951015Y-8618092D02*
X5951015Y-8446664D01*
X6131968Y-8637140D02*
X6112920Y-8646664D01*
X6112920Y-8646664D02*
X6074825Y-8646664D01*
X6074825Y-8646664D02*
X6055777Y-8637140D01*
X6055777Y-8637140D02*
X6046253Y-8618092D01*
X6046253Y-8618092D02*
X6046253Y-8541902D01*
X6046253Y-8541902D02*
X6055777Y-8522854D01*
X6055777Y-8522854D02*
X6074825Y-8513330D01*
X6074825Y-8513330D02*
X6112920Y-8513330D01*
X6112920Y-8513330D02*
X6131968Y-8522854D01*
X6131968Y-8522854D02*
X6141491Y-8541902D01*
X6141491Y-8541902D02*
X6141491Y-8560950D01*
X6141491Y-8560950D02*
X6046253Y-8579997D01*
X6217682Y-8637140D02*
X6236730Y-8646664D01*
X6236730Y-8646664D02*
X6274825Y-8646664D01*
X6274825Y-8646664D02*
X6293872Y-8637140D01*
X6293872Y-8637140D02*
X6303396Y-8618092D01*
X6303396Y-8618092D02*
X6303396Y-8608569D01*
X6303396Y-8608569D02*
X6293872Y-8589521D01*
X6293872Y-8589521D02*
X6274825Y-8579997D01*
X6274825Y-8579997D02*
X6246253Y-8579997D01*
X6246253Y-8579997D02*
X6227206Y-8570473D01*
X6227206Y-8570473D02*
X6217682Y-8551426D01*
X6217682Y-8551426D02*
X6217682Y-8541902D01*
X6217682Y-8541902D02*
X6227206Y-8522854D01*
X6227206Y-8522854D02*
X6246253Y-8513330D01*
X6246253Y-8513330D02*
X6274825Y-8513330D01*
X6274825Y-8513330D02*
X6293872Y-8522854D01*
X6370063Y-8722854D02*
X6379587Y-8713330D01*
X6379587Y-8713330D02*
X6398634Y-8684759D01*
X6398634Y-8684759D02*
X6408158Y-8665711D01*
X6408158Y-8665711D02*
X6417682Y-8637140D01*
X6417682Y-8637140D02*
X6427206Y-8589521D01*
X6427206Y-8589521D02*
X6427206Y-8551426D01*
X6427206Y-8551426D02*
X6417682Y-8503807D01*
X6417682Y-8503807D02*
X6408158Y-8475235D01*
X6408158Y-8475235D02*
X6398634Y-8456188D01*
X6398634Y-8456188D02*
X6379587Y-8427616D01*
X6379587Y-8427616D02*
X6370063Y-8418092D01*
X6731968Y-8722854D02*
X6722444Y-8713330D01*
X6722444Y-8713330D02*
X6703396Y-8684759D01*
X6703396Y-8684759D02*
X6693872Y-8665711D01*
X6693872Y-8665711D02*
X6684349Y-8637140D01*
X6684349Y-8637140D02*
X6674825Y-8589521D01*
X6674825Y-8589521D02*
X6674825Y-8551426D01*
X6674825Y-8551426D02*
X6684349Y-8503807D01*
X6684349Y-8503807D02*
X6693872Y-8475235D01*
X6693872Y-8475235D02*
X6703396Y-8456188D01*
X6703396Y-8456188D02*
X6722444Y-8427616D01*
X6722444Y-8427616D02*
X6731968Y-8418092D01*
X6808158Y-8513330D02*
X6808158Y-8646664D01*
X6808158Y-8532378D02*
X6817682Y-8522854D01*
X6817682Y-8522854D02*
X6836730Y-8513330D01*
X6836730Y-8513330D02*
X6865301Y-8513330D01*
X6865301Y-8513330D02*
X6884349Y-8522854D01*
X6884349Y-8522854D02*
X6893872Y-8541902D01*
X6893872Y-8541902D02*
X6893872Y-8646664D01*
X7017682Y-8646664D02*
X6998634Y-8637140D01*
X6998634Y-8637140D02*
X6989111Y-8627616D01*
X6989111Y-8627616D02*
X6979587Y-8608569D01*
X6979587Y-8608569D02*
X6979587Y-8551426D01*
X6979587Y-8551426D02*
X6989111Y-8532378D01*
X6989111Y-8532378D02*
X6998634Y-8522854D01*
X6998634Y-8522854D02*
X7017682Y-8513330D01*
X7017682Y-8513330D02*
X7046253Y-8513330D01*
X7046253Y-8513330D02*
X7065301Y-8522854D01*
X7065301Y-8522854D02*
X7074825Y-8532378D01*
X7074825Y-8532378D02*
X7084349Y-8551426D01*
X7084349Y-8551426D02*
X7084349Y-8608569D01*
X7084349Y-8608569D02*
X7074825Y-8627616D01*
X7074825Y-8627616D02*
X7065301Y-8637140D01*
X7065301Y-8637140D02*
X7046253Y-8646664D01*
X7046253Y-8646664D02*
X7017682Y-8646664D01*
X7141492Y-8513330D02*
X7217682Y-8513330D01*
X7170063Y-8446664D02*
X7170063Y-8618092D01*
X7170063Y-8618092D02*
X7179587Y-8637140D01*
X7179587Y-8637140D02*
X7198634Y-8646664D01*
X7198634Y-8646664D02*
X7217682Y-8646664D01*
X7436730Y-8513330D02*
X7436730Y-8713330D01*
X7436730Y-8522854D02*
X7455777Y-8513330D01*
X7455777Y-8513330D02*
X7493873Y-8513330D01*
X7493873Y-8513330D02*
X7512920Y-8522854D01*
X7512920Y-8522854D02*
X7522444Y-8532378D01*
X7522444Y-8532378D02*
X7531968Y-8551426D01*
X7531968Y-8551426D02*
X7531968Y-8608569D01*
X7531968Y-8608569D02*
X7522444Y-8627616D01*
X7522444Y-8627616D02*
X7512920Y-8637140D01*
X7512920Y-8637140D02*
X7493873Y-8646664D01*
X7493873Y-8646664D02*
X7455777Y-8646664D01*
X7455777Y-8646664D02*
X7436730Y-8637140D01*
X7646253Y-8646664D02*
X7627206Y-8637140D01*
X7627206Y-8637140D02*
X7617682Y-8618092D01*
X7617682Y-8618092D02*
X7617682Y-8446664D01*
X7808158Y-8646664D02*
X7808158Y-8541902D01*
X7808158Y-8541902D02*
X7798634Y-8522854D01*
X7798634Y-8522854D02*
X7779587Y-8513330D01*
X7779587Y-8513330D02*
X7741492Y-8513330D01*
X7741492Y-8513330D02*
X7722444Y-8522854D01*
X7808158Y-8637140D02*
X7789111Y-8646664D01*
X7789111Y-8646664D02*
X7741492Y-8646664D01*
X7741492Y-8646664D02*
X7722444Y-8637140D01*
X7722444Y-8637140D02*
X7712920Y-8618092D01*
X7712920Y-8618092D02*
X7712920Y-8599045D01*
X7712920Y-8599045D02*
X7722444Y-8579997D01*
X7722444Y-8579997D02*
X7741492Y-8570473D01*
X7741492Y-8570473D02*
X7789111Y-8570473D01*
X7789111Y-8570473D02*
X7808158Y-8560950D01*
X7874825Y-8513330D02*
X7951015Y-8513330D01*
X7903396Y-8446664D02*
X7903396Y-8618092D01*
X7903396Y-8618092D02*
X7912920Y-8637140D01*
X7912920Y-8637140D02*
X7931968Y-8646664D01*
X7931968Y-8646664D02*
X7951015Y-8646664D01*
X8093873Y-8637140D02*
X8074825Y-8646664D01*
X8074825Y-8646664D02*
X8036730Y-8646664D01*
X8036730Y-8646664D02*
X8017682Y-8637140D01*
X8017682Y-8637140D02*
X8008158Y-8618092D01*
X8008158Y-8618092D02*
X8008158Y-8541902D01*
X8008158Y-8541902D02*
X8017682Y-8522854D01*
X8017682Y-8522854D02*
X8036730Y-8513330D01*
X8036730Y-8513330D02*
X8074825Y-8513330D01*
X8074825Y-8513330D02*
X8093873Y-8522854D01*
X8093873Y-8522854D02*
X8103396Y-8541902D01*
X8103396Y-8541902D02*
X8103396Y-8560950D01*
X8103396Y-8560950D02*
X8008158Y-8579997D01*
X8274825Y-8646664D02*
X8274825Y-8446664D01*
X8274825Y-8637140D02*
X8255777Y-8646664D01*
X8255777Y-8646664D02*
X8217682Y-8646664D01*
X8217682Y-8646664D02*
X8198634Y-8637140D01*
X8198634Y-8637140D02*
X8189111Y-8627616D01*
X8189111Y-8627616D02*
X8179587Y-8608569D01*
X8179587Y-8608569D02*
X8179587Y-8551426D01*
X8179587Y-8551426D02*
X8189111Y-8532378D01*
X8189111Y-8532378D02*
X8198634Y-8522854D01*
X8198634Y-8522854D02*
X8217682Y-8513330D01*
X8217682Y-8513330D02*
X8255777Y-8513330D01*
X8255777Y-8513330D02*
X8274825Y-8522854D01*
X8351015Y-8722854D02*
X8360539Y-8713330D01*
X8360539Y-8713330D02*
X8379587Y-8684759D01*
X8379587Y-8684759D02*
X8389111Y-8665711D01*
X8389111Y-8665711D02*
X8398635Y-8637140D01*
X8398635Y-8637140D02*
X8408158Y-8589521D01*
X8408158Y-8589521D02*
X8408158Y-8551426D01*
X8408158Y-8551426D02*
X8398635Y-8503807D01*
X8398635Y-8503807D02*
X8389111Y-8475235D01*
X8389111Y-8475235D02*
X8379587Y-8456188D01*
X8379587Y-8456188D02*
X8360539Y-8427616D01*
X8360539Y-8427616D02*
X8351015Y-8418092D01*
M02*
