0
SECTION
2
HEADER
9
$INSUNITS
70
4
9
$ACADVER
1
AC1014
9
$HANDSEED
5
FFFF
0
ENDSEC
0
SECTION
2
TABLES
0
TABLE
2
VPORT
5
8
100
AcDbSymbolTable
0
ENDTAB
0
TABLE
2
LTYPE
5
5
100
AcDbSymbolTable
0
LTYPE
5
14
100
AcDbSymbolTableRecord
100
AcDbLinetypeTableRecord
2
BYBLOCK
70
0
0
LTYPE
5
15
100
AcDbSymbolTableRecord
100
AcDbLinetypeTableRecord
2
BYLAYER
70
0
0
ENDTAB
0
TABLE
2
LAYER
5
2
100
AcDbSymbolTable
70
2
0
LAYER
5
50
100
AcDbSymbolTableRecord
100
AcDbLayerTableRecord
2
0
70
0
6
CONTINUOUS
0
ENDTAB
0
TABLE
2
STYLE
5
3
100
AcDbSymbolTable
70
1
0
STYLE
5
11
100
AcDbSymbolTableRecord
100
AcDbTextStyleTableRecord
2
STANDARD
70
0
0
ENDTAB
0
TABLE
2
VIEW
5
6
100
AcDbSymbolTable
70
0
0
ENDTAB
0
TABLE
2
UCS
5
7
100
AcDbSymbolTable
70
0
0
ENDTAB
0
TABLE
2
APPID
5
9
100
AcDbSymbolTable
70
2
0
APPID
5
12
100
AcDbSymbolTableRecord
100
AcDbRegAppTableRecord
2
ACAD
70
0
0
ENDTAB
0
TABLE
2
DIMSTYLE
5
A
100
AcDbSymbolTable
70
1
0
ENDTAB
0
TABLE
2
BLOCK_RECORD
5
1
100
AcDbSymbolTable
70
1
0
BLOCK_RECORD
5
1F
100
AcDbSymbolTableRecord
100
AcDbBlockTableRecord
2
*MODEL_SPACE
0
BLOCK_RECORD
5
1B
100
AcDbSymbolTableRecord
100
AcDbBlockTableRecord
2
*PAPER_SPACE
0
ENDTAB
0
ENDSEC
0
SECTION
2
BLOCKS
0
BLOCK
5
20
100
AcDbEntity
100
AcDbBlockBegin
2
*MODEL_SPACE
0
ENDBLK
5
21
100
AcDbEntity
100
AcDbBlockEnd
0
BLOCK
5
1C
100
AcDbEntity
100
AcDbBlockBegin
2
*PAPER_SPACE
0
ENDBLK
5
1D
100
AcDbEntity
100
AcDbBlockEnd
0
ENDSEC
0
SECTION
2
ENTITIES
0
CIRCLE
5
100
100
AcDbEntity
8
0
100
AcDbCircle
10
53.206863926943271
20
37.772971359501859
30
0
40
1.4499999999999957
210
0
220
-0
230
1
0
CIRCLE
5
101
100
AcDbEntity
8
0
100
AcDbCircle
10
-53.272970186516545
20
37.772971359501859
30
0
40
1.5000000000000036
210
0
220
-0
230
1
0
LWPOLYLINE
5
102
100
AcDbEntity
8
0
100
AcDbPolyline
90
10
70
1
43
0.0
10
-48.499999413507346
20
44.750000586492661
42
0.4142135623730957
10
-60.249999413507354
20
33.000000586492668
10
-60.249999413507354
20
15.000000223517414
10
-11.938202171334868
20
15.00000022351742
42
-0.41421356237309509
10
-9.9382021713348685
20
13.000000223517421
10
-9.9382021713348614
20
-3.2499994135073318
42
0.41421356237309509
10
-7.9382021713348649
20
-5.2499994135073313
10
60.1838931539341
20
-5.2499994135073313
10
60.1838931539341
20
33.000000586492668
42
0.4142135623730952
10
48.4338931539341
20
44.750000586492675
0
LWPOLYLINE
5
103
100
AcDbEntity
8
0
100
AcDbPolyline
90
8
70
1
43
0.0
10
-6.5250184504569484
20
11.415252328175328
10
6.4749815495430587
20
11.415252328175328
42
-0.41421356237310542
10
6.9749815495430569
20
10.915252328175312
10
6.9749815495430578
20
-2.0847476718246716
42
-0.41421356237309453
10
6.4749815495430587
20
-2.584747671824672
10
-6.5250184504569484
20
-2.5847476718246765
42
-0.41421356237309348
10
-7.0250184504569466
20
-2.0847476718246742
10
-7.025018450456944
20
10.915252328175328
42
-0.41421356237309309
0
LWPOLYLINE
5
104
100
AcDbEntity
8
0
100
AcDbPolyline
90
8
70
1
43
0.0
10
-46.500018450456963
20
31.415252328175328
42
0.41421356237308982
10
-47.000018450456949
20
30.915252328175331
10
-47.000018450456963
20
17.915252328175328
42
0.41421356237308982
10
-46.500018450456949
20
17.415252328175328
10
-33.500018450456949
20
17.415252328175328
42
0.41421356237309509
10
-33.000018450456949
20
17.915252328175328
10
-33.000018450456949
20
30.915252328175313
42
0.41421356237309509
10
-33.500018450456949
20
31.415252328175328
0
LWPOLYLINE
5
105
100
AcDbEntity
8
0
100
AcDbPolyline
90
8
70
1
43
0.0
10
13.474981549543052
20
31.415252328175328
10
26.47498154954306
20
31.415252328175328
42
-0.41421356237309509
10
26.97498154954306
20
30.915252328175313
10
26.97498154954306
20
17.915252328175328
42
-0.41421356237309509
10
26.47498154954306
20
17.415252328175328
10
13.474981549543052
20
17.415252328175324
42
-0.41421356237308982
10
12.974981549543054
20
17.915252328175328
10
12.974981549543056
20
30.915252328175331
42
-0.4142135623730937
0
LWPOLYLINE
5
106
100
AcDbEntity
8
0
100
AcDbPolyline
90
8
70
1
43
0.0
10
33.474981549543052
20
31.415252328175328
10
46.47498154954306
20
31.415252328175324
42
-0.41421356237311319
10
46.97498154954306
20
30.915252328175313
10
46.97498154954306
20
17.915252328175328
42
-0.41421356237309637
10
46.47498154954306
20
17.415252328175328
10
33.474981549543052
20
17.415252328175328
42
-0.41421356237309109
10
32.974981549543052
20
17.915252328175328
10
32.97498154954306
20
30.915252328175331
42
-0.41421356237309759
0
LWPOLYLINE
5
107
100
AcDbEntity
8
0
100
AcDbPolyline
90
8
70
1
43
0.0
10
32.974981549543052
20
-2.0847476718246742
10
32.974981549543052
20
10.915252328175329
42
-0.41421356237309109
10
33.474981549543052
20
11.415252328175328
10
46.47498154954306
20
11.415252328175328
42
-0.41421356237311585
10
46.97498154954306
20
10.915252328175312
10
46.97498154954306
20
-2.0847476718246716
42
-0.41421356237309731
10
46.47498154954306
20
-2.584747671824672
10
33.474981549543052
20
-2.5847476718246778
42
-0.41421356237309298
0
LWPOLYLINE
5
108
100
AcDbEntity
8
0
100
AcDbPolyline
90
8
70
1
43
0.0
10
-27.012518450456948
20
17.915252328175328
10
-27.012518450456945
20
30.915252328175331
42
-0.41421356237309759
10
-26.512518450456952
20
31.415252328175328
10
-13.512518450456943
20
31.415252328175328
42
-0.41421356237310542
10
-13.012518450456945
20
30.915252328175313
10
-13.012518450456943
20
17.915252328175328
42
-0.41421356237309243
10
-13.512518450456943
20
17.415252328175328
10
-26.512518450456952
20
17.415252328175328
42
-0.41421356237309109
0
LWPOLYLINE
5
109
100
AcDbEntity
8
0
100
AcDbPolyline
90
8
70
1
43
0.0
10
-6.5250184504569484
20
31.415252328175328
10
6.4749815495430587
20
31.415252328175328
42
-0.41421356237310092
10
6.9749815495430569
20
30.915252328175313
10
6.9749815495430587
20
17.915252328175328
42
-0.41421356237309509
10
6.4749815495430587
20
17.415252328175328
10
-6.5250184504569484
20
17.415252328175328
42
-0.41421356237309048
10
-7.0250184504569466
20
17.915252328175328
10
-7.0250184504569422
20
30.915252328175331
42
-0.41421356237309759
0
LWPOLYLINE
5
110
100
AcDbEntity
8
0
100
AcDbPolyline
90
8
70
1
43
0.0
10
13.474981549543052
20
11.415252328175328
10
26.47498154954306
20
11.415252328175329
42
-0.41421356237310153
10
26.97498154954306
20
10.915252328175312
10
26.97498154954306
20
-2.0847476718246716
42
-0.41421356237309598
10
26.47498154954306
20
-2.584747671824672
10
13.474981549543052
20
-2.5847476718246751
42
-0.4142135623730942
10
12.974981549543054
20
-2.0847476718246742
10
12.97498154954306
20
10.915252328175329
42
-0.41421356237308982
0
ENDSEC
0
SECTION
2
OBJECTS
0
DICTIONARY
5
C
100
AcDbDictionary
3
ACAD_GROUP
350
D
3
ACAD_MLINESTYLE
350
17
0
DICTIONARY
5
D
100
AcDbDictionary
0
DICTIONARY
5
1A
330
C
100
AcDbDictionary
0
DICTIONARY
5
17
100
AcDbDictionary
0
ENDSEC
0
EOF
