<svg width="517" height="354" viewBox="0 0 517 354" fill="none" xmlns="http://www.w3.org/2000/svg">
<path d="M75.4695 270.398C75.639 269.693 75.5968 269.047 75.343 268.459L75.9135 266.358C76.4549 264.47 76.8402 263.048 77.0694 262.094C78.1358 257.655 78.637 253.651 78.573 250.081C78.1118 249.444 77.7285 248.847 77.4233 248.291C76.992 247.529 76.5366 246.959 76.057 246.581C75.5775 246.202 74.6947 245.858 73.4086 245.549C72.4959 245.33 71.5691 245.261 70.6281 245.342C69.6971 245.382 68.4731 245.636 66.9562 246.106C66.3886 246.277 65.9471 246.653 65.6317 247.236C65.3262 247.777 65.0638 248.503 64.8446 249.416C64.3064 251.656 63.9194 253.45 63.6834 254.798C63.4575 256.104 63.4124 257.387 63.5482 258.649L61.6198 266.676C61.56 266.925 61.3434 267.005 60.97 266.915C59.7454 266.533 58.6244 266.176 57.6072 265.844C56.59 265.512 56.0191 265.331 55.8947 265.301L54.8917 264.27C54.8602 264.219 55.0562 263.037 55.4799 260.726C55.9451 258.424 56.3919 256.381 56.8204 254.597C57.229 252.896 57.675 251.314 58.1582 249.85C58.9022 247.484 59.5382 245.201 60.0664 243.003L61.3347 237.449C61.6749 237.312 62.0881 237.235 62.5744 237.22C63.1121 237.174 63.5261 237.186 63.8165 237.256C64.3974 237.395 64.8188 237.65 65.081 238.02C65.3431 238.39 65.5546 238.88 65.7154 239.489C65.9393 240.201 66.1965 240.592 66.4869 240.661C67.0262 240.791 67.5697 240.812 68.1173 240.724C68.675 240.595 69.4442 240.407 70.4251 240.159C71.6017 239.828 72.5311 239.612 73.2132 239.513C73.9468 239.382 74.6869 239.406 75.4337 239.585C76.7198 239.894 78.5716 240.954 80.9892 242.763L82.2237 243.652C84.4421 245.194 85.5527 247.787 85.5552 251.429C85.6092 255.04 85.1778 258.754 84.2609 262.571C84.0018 263.65 83.6091 264.828 83.0828 266.106C82.5381 267.642 82.1761 268.784 81.9967 269.531C81.8671 270.07 81.7932 270.469 81.7749 270.728C81.36 270.628 81.082 270.781 80.9409 271.186C80.7997 271.591 80.5541 271.883 80.2039 272.062C79.8437 272.283 79.0413 272.244 77.7967 271.945C77.9395 271.716 78.0358 271.497 78.0856 271.29C78.1056 271.207 78.0948 271.16 78.0533 271.15C77.9604 271.172 77.7695 271.236 77.4807 271.342C77.2234 271.5 76.9861 271.574 76.7687 271.566C76.3124 271.456 75.9432 271.258 75.6611 270.971L75.4695 270.398ZM72.5777 242.98C73.2 243.13 74.0306 243.417 75.0693 243.842C76.1181 244.226 76.8872 244.586 77.3767 244.923C77.5327 245.004 77.857 245.389 78.3498 246.078C78.4228 246.14 78.6061 246.381 78.8998 246.803C79.2349 247.234 79.5477 247.485 79.8381 247.555C80.17 247.634 80.3708 247.529 80.4406 247.239L80.2042 246.853C80.327 246.707 80.5743 246.591 80.9461 246.504C81.3593 246.428 81.5858 246.307 81.6257 246.141C81.7254 245.726 81.3188 245.409 80.4061 245.19C80.1157 245.12 79.8261 245.138 79.5374 245.245C79.3 245.319 79.0984 245.337 78.9325 245.297C78.7948 244.956 78.643 244.766 78.477 244.727L78.3376 244.759L78.8282 244.087C78.6075 243.727 78.2275 243.482 77.6882 243.352C77.4393 243.292 77.1182 243.259 76.7249 243.252C76.3415 243.204 76.0461 243.155 75.8387 243.105L76.1377 241.861C74.5612 241.482 73.5845 241.621 73.2077 242.276L73.3871 241.529C73.1912 241.614 72.9174 241.658 72.5656 241.661C72.2237 241.623 72.0063 241.614 71.9134 241.636C71.1782 241.591 70.599 241.627 70.1758 241.745C69.804 241.831 69.5634 242.103 69.4537 242.559C69.4438 242.6 69.491 242.678 69.5956 242.79C69.7001 242.903 69.7424 243.001 69.7225 243.084L70.7108 242.532C70.7108 242.532 70.8054 242.686 70.9945 242.995L71.1812 243.04C71.3156 243.028 71.5272 242.969 71.816 242.863C72.1048 242.757 72.2641 242.642 72.294 242.517L72.5777 242.98ZM57.7031 259.417C58.0765 259.506 58.8375 258.987 59.9862 257.859C61.1763 256.74 61.8411 255.891 61.9806 255.31C62.1102 254.771 62.1991 254.309 62.2473 253.926C62.3054 253.501 62.3487 253.139 62.3769 252.838C62.4502 251.803 62.5566 250.995 62.6961 250.414C62.7758 250.082 62.8613 249.817 62.9527 249.62L62.0689 249.737C62.459 249.391 62.7254 249.104 62.8682 248.875C63.0624 248.615 63.2558 248.266 63.4484 247.83L64.0112 246.583C64.408 245.845 64.8786 245.256 65.4231 244.816C66.009 244.386 66.6679 244.018 67.3998 243.711C68.1832 243.373 68.6097 243.058 68.6795 242.768C68.7094 242.643 68.7136 242.535 68.692 242.442C68.3817 242.455 67.8249 242.672 67.0216 243.094C66.9286 243.115 66.6813 243.231 66.2797 243.442C65.888 243.611 65.5884 243.671 65.381 243.621C65.0076 243.531 64.7579 243.384 64.6318 243.178C64.5157 242.93 64.4087 242.554 64.3109 242.048C64.2247 241.676 64.1185 241.387 63.9925 241.181C63.9178 240.944 63.7353 240.79 63.4449 240.721C63.279 240.681 63.1288 240.667 62.9944 240.678C63.0973 240.615 63.2101 240.511 63.333 240.365C63.4558 240.219 63.5322 240.083 63.5621 239.959C63.592 239.834 63.5082 239.727 63.3107 239.635C63.1647 239.512 63.0759 239.425 63.0444 239.374C63.0029 239.364 62.8593 239.505 62.6137 239.797C62.4095 240.099 62.2875 240.333 62.2476 240.499C62.0682 241.246 61.912 242.261 61.779 243.546C61.724 244.322 61.6418 244.939 61.5321 245.395L61.156 246.687C61.239 246.707 61.307 246.789 61.3601 246.933C61.4231 247.036 61.4496 247.109 61.4397 247.15C61.3599 247.482 61.1159 247.95 60.7075 248.554C60.2792 249.241 60.0252 249.75 59.9455 250.082L61.5012 250.456L60.0498 251.292L60.3185 251.817C59.731 252.071 59.3044 252.385 59.0388 252.76C58.7732 253.135 58.5557 253.676 58.3863 254.381C59.1745 254.57 59.7936 254.368 60.2434 253.774C60.2035 253.94 60.2251 254.033 60.3081 254.053C60.2981 254.094 59.9952 254.35 59.3993 254.822C58.8449 255.303 58.5528 255.606 58.5229 255.73L60.5142 256.208L58.3758 256.616L57.7031 259.417ZM80.6391 250.248C81.2382 250.129 81.6299 249.96 81.8141 249.741C82.0084 249.48 82.1703 249.08 82.2998 248.541L82.3596 248.292C82.4892 247.753 82.4137 247.427 82.1333 247.316C80.955 247.472 80.2612 247.985 80.0519 248.857L81.2965 249.156L80.3081 249.708L80.6391 250.248ZM82.6874 251.859C82.1697 251.823 81.6892 251.905 81.2461 252.105C80.8029 252.306 80.5266 252.635 80.4169 253.091C80.9563 253.221 81.5811 253.085 82.2915 252.686C83.0433 252.296 83.484 251.831 83.6136 251.292C83.6535 251.126 83.6046 250.873 83.4669 250.533C83.3292 250.192 83.1567 249.997 82.9492 249.948C82.4929 249.838 82.0282 249.946 81.5551 250.271C81.0921 250.555 80.8057 250.925 80.6961 251.381L82.6874 251.859ZM83.2548 252.785C82.6756 252.822 82.103 253.013 81.5371 253.36C80.9711 253.707 80.6283 254.129 80.5087 254.627C81.2555 254.806 81.872 254.889 82.3582 254.874C82.8959 254.827 83.2246 254.555 83.3442 254.057C83.394 253.85 83.4181 253.658 83.4165 253.482C83.4248 253.265 83.3709 253.033 83.2548 252.785ZM81.4147 255.24C80.8754 255.11 80.5459 255.294 80.4263 255.792L80.3989 256.18C80.5748 256.179 80.7706 256.094 80.9864 255.926C81.2121 255.717 81.3607 255.556 81.4321 255.441L81.4147 255.24ZM80.4284 257.701C80.2789 258.324 80.1328 258.749 79.99 258.978C80.6953 259.148 81.3716 258.981 82.0189 258.478C82.6663 257.976 83.0796 257.351 83.259 256.604L83.3438 255.703C82.6617 255.802 82.0576 255.942 81.5315 256.123C81.0154 256.263 80.7174 256.498 80.6377 256.83L80.4284 257.701ZM80.2504 263.648C79.5468 263.655 79.0953 264.073 78.896 264.902C79.5598 265.062 80.2776 264.905 81.0493 264.432C81.8626 263.97 82.344 263.427 82.4935 262.805C82.5333 262.639 82.5425 262.509 82.5209 262.416C82.85 259.95 82.9731 258.707 82.8901 258.688C82.8072 258.668 82.3483 258.843 81.5134 259.212C80.6886 259.541 80.2463 259.83 80.1865 260.078C80.1665 260.161 80.2038 260.28 80.2984 260.434C80.393 260.589 80.4817 260.676 80.5647 260.696C80.2328 260.616 79.954 260.681 79.7283 260.89C79.5025 261.099 79.3548 261.349 79.285 261.639C79.6999 261.739 80.206 261.641 80.8035 261.346C81.2981 261.113 81.7114 261.037 82.0433 261.117L81.9835 261.366C80.6209 261.741 79.6699 262.412 79.1303 263.379L80.2504 263.648ZM62.0599 257.172C61.645 257.072 61.026 257.275 60.2027 257.779C59.421 258.293 58.9803 258.758 58.8806 259.173L60.872 259.651C61.0379 259.691 61.2272 259.451 61.4397 258.932C61.7037 258.381 61.9104 257.794 62.0599 257.172ZM81.5945 264.629C80.275 265.19 79.4061 265.793 78.9878 266.438C78.5694 267.084 78.1709 268.195 77.7922 269.771L80.0947 270.324C80.4136 268.997 80.2661 268.15 79.6521 267.783C79.7866 267.771 80.0189 267.717 80.3492 267.621C80.7309 267.493 80.9317 267.388 80.9517 267.305L81.5945 264.629ZM59.5725 260.129C58.7427 259.93 58.0905 259.905 57.6159 260.054C57.1412 260.203 56.8092 260.672 56.6199 261.46L57.5533 261.684L59.9458 260.219L59.5725 260.129ZM58.5563 262.715C58.382 262.893 58.1347 263.009 57.8144 263.063C57.5356 263.128 57.314 263.228 57.1497 263.365C56.9953 263.459 56.8783 263.672 56.7986 264.004L60.0967 264.796C60.1897 264.775 60.2926 264.712 60.4054 264.607C60.5183 264.503 60.5847 264.409 60.6046 264.326C60.6445 264.16 60.6163 263.912 60.5202 263.582C60.4754 263.22 60.463 262.998 60.483 262.915C60.5029 262.832 60.6315 262.753 60.8689 262.678C61.1062 262.604 61.2871 262.581 61.4115 262.611C61.2655 262.488 61.1859 262.272 61.1727 261.961C61.201 261.661 61.1936 261.418 61.1505 261.232C61.1588 261.015 61.0592 260.881 60.8518 260.831C60.354 260.712 59.6627 260.94 58.7781 261.518C57.9449 262.064 57.4768 262.368 57.3739 262.431L58.5563 262.715ZM91.6192 259.929C92.1175 257.854 93.039 255.662 94.3837 253.353C95.7284 251.043 97.1543 249.125 98.6615 247.601L98.771 247.693C99.02 247.753 99.6033 247.608 100.521 247.258C101.387 246.939 101.924 246.805 102.132 246.855C102.442 246.841 103.234 246.834 104.507 246.833C105.821 246.841 107.017 246.975 108.096 247.234L107.962 247.794C108.592 247.726 109.141 247.726 109.607 247.795C110.115 247.873 110.618 247.972 111.115 248.091C112.402 248.4 113.616 248.824 114.76 249.361C115.944 249.909 116.462 250.494 116.313 251.117C117.35 251.366 118.069 251.934 118.47 252.82C118.923 253.675 119.291 254.794 119.572 256.178C119.67 256.684 119.778 257.149 119.896 257.572C120.055 258.005 120.223 258.309 120.401 258.484L119.115 263.835L117.801 264.375L118.022 264.823C116.693 265.425 114.141 265.273 110.365 264.366L107.129 263.589C105.055 263.091 103.691 262.741 103.037 262.54C102.425 262.349 101.22 261.884 99.4229 261.145C99.4412 260.886 99.3467 260.732 99.1392 260.682C99.0563 260.662 98.9476 260.658 98.8131 260.67C98.6787 260.681 98.5493 260.672 98.4248 260.642C98.1358 261.845 97.9621 263.208 97.9037 264.729C97.8868 266.261 98.1097 267.434 98.5726 268.247C98.8148 268.7 99.6178 269.376 100.982 270.274C101.669 270.702 102.122 271.008 102.341 271.193C102.958 271.911 103.536 272.335 104.076 272.465C105.03 272.694 106.097 272.819 107.277 272.839C108.457 272.859 109.135 272.869 109.31 272.867C111.431 272.806 113.093 272.92 114.297 273.209C114.836 273.339 115.129 273.672 115.175 274.21C115.273 274.716 115.232 275.343 115.053 276.089C114.863 276.878 114.681 277.36 114.507 277.538C114.333 277.715 114.07 277.806 113.718 277.809C113.376 277.771 113.067 277.872 112.789 278.113C112.521 278.136 109.994 277.968 105.21 277.608C103.467 277.19 101.921 276.774 100.572 276.363C99.2646 275.961 98.0749 275.434 97.0029 274.781C95.8165 274.057 94.7439 272.768 93.7851 270.915C92.8677 269.071 92.1977 267.111 91.7749 265.034C91.3522 262.958 91.3003 261.256 91.6192 259.929ZM114.139 252.767C114.059 253.099 114.313 253.686 114.9 254.529C115.488 255.373 115.906 255.824 116.155 255.884C116.404 255.944 116.755 255.94 117.21 255.874C117.665 255.808 117.917 255.671 117.967 255.463C118.027 255.215 118.029 254.842 117.972 254.346C117.926 253.808 117.913 253.498 117.933 253.415C117.903 253.539 117.774 253.618 117.547 253.651C117.371 253.653 117.221 253.639 117.096 253.609C116.774 253.488 116.42 253.227 116.033 252.827C115.688 252.437 115.561 252.055 115.65 251.682C114.447 251.393 113.915 250.958 114.055 250.377C113.972 250.357 113.771 250.462 113.452 250.693C113.134 250.924 112.642 250.959 111.979 250.8C111.771 250.75 111.584 250.617 111.416 250.401C111.249 250.186 110.999 250.038 110.667 249.958L109.843 249.826C109.916 249.887 110.038 250.202 110.209 250.769C110.421 251.347 110.626 251.681 110.823 251.773C110.906 251.793 111.067 251.765 111.304 251.691C111.593 251.585 111.82 251.551 111.986 251.591C112.142 251.673 112.423 251.872 112.83 252.189C113.246 252.465 113.683 252.657 114.139 252.767ZM94.3048 261.627C94.6782 261.717 95.0715 261.723 95.4847 261.647C95.9494 261.539 96.2216 261.32 96.3014 260.988C96.3213 260.905 96.289 260.765 96.2044 260.569C96.1297 260.332 96.1123 260.131 96.1522 259.965C96.3049 259.694 96.5349 259.376 96.8419 259.011C97.159 258.605 97.3723 258.173 97.482 257.717C97.5617 257.385 97.5335 257.137 97.3975 256.973C97.3129 256.777 97.1403 256.582 96.8798 256.388C96.6608 256.203 96.5712 256.028 96.6111 255.862C96.651 255.696 96.8651 255.353 97.2536 254.832C97.6935 254.279 97.9383 253.899 97.9881 253.692C98.0878 253.277 98.6464 252.687 99.6638 251.922C100.27 251.41 100.742 250.997 101.08 250.683C101.419 250.369 101.633 250.026 101.723 249.653C101.889 249.692 102.107 249.789 102.378 249.941C102.648 250.094 102.928 250.205 103.219 250.275C103.343 250.305 103.451 250.221 103.543 250.024C103.644 249.785 103.741 249.655 103.834 249.633C104.196 249.588 104.874 249.686 105.87 249.925C106.834 250.112 107.57 250.245 108.078 250.323C108.596 250.36 108.9 250.28 108.992 250.082C108.585 249.765 108.179 249.536 107.775 249.395C107.38 249.212 106.85 249.041 106.186 248.882C103.365 248.204 100.979 248.64 99.0269 250.19C97.1165 251.749 95.8124 253.981 95.1148 256.885L97.1062 257.363L97.0165 257.737L94.1609 259.486L93.8768 260.669L94.7282 260.412L93.6974 261.415L94.3048 261.627ZM99.6631 255.213C99.7709 255.678 100.904 256.257 103.063 256.951C105.274 257.614 107.125 258.125 108.619 258.484C109.366 258.663 110.381 258.819 111.666 258.952C112.867 259.065 113.841 259.212 114.588 259.391C114.638 259.183 114.592 258.734 114.452 258.042C114.321 257.308 114.172 256.921 114.006 256.882L113.867 256.914C113.786 255.973 113.027 255.023 111.59 254.063C110.194 253.114 108.957 252.509 107.878 252.25C106.219 251.852 104.672 251.897 103.238 252.386C101.804 252.875 100.613 253.818 99.6631 255.213ZM116.711 260.691C116.562 261.313 116.255 261.678 115.79 261.786C115.335 261.852 114.714 261.791 113.926 261.601C113.252 261.483 112.734 261.447 112.372 261.491C112.01 261.536 111.78 261.766 111.68 262.181C113.049 262.51 114.138 262.727 114.946 262.834C115.754 262.94 116.291 262.806 116.557 262.431C116.684 262.812 116.935 263.048 117.308 263.138C117.388 262.806 117.39 262.433 117.313 262.02C117.289 261.575 117.301 261.249 117.351 261.042C117.391 260.876 117.509 260.751 117.705 260.666C117.942 260.591 118.122 260.481 118.245 260.335C118.409 260.199 118.551 259.882 118.671 259.384C119.059 257.766 118.777 256.843 117.822 256.613C117.408 256.514 117.108 256.574 116.924 256.793C116.791 256.98 116.65 257.385 116.5 258.007C116.628 259.486 116.718 260.297 116.771 260.442L116.711 260.691ZM99.6677 257.386C99.2943 257.297 98.9275 257.362 98.5673 257.583C98.2487 257.813 98.0445 258.115 97.9548 258.489C98.4941 258.618 98.8717 258.599 99.0874 258.432C99.3447 258.274 99.5381 257.926 99.6677 257.386ZM100.715 258.23C100.633 258.211 100.339 258.337 99.8342 258.611C99.3711 258.895 98.9802 259.152 98.6616 259.383L100.028 259.448C100.111 259.468 100.391 259.491 100.867 259.517C101.395 259.513 102.04 259.382 102.804 259.127C102.689 259.056 102.076 258.777 100.964 258.29L100.715 258.23ZM102.624 259.874C103.384 260.364 104.076 260.683 104.698 260.833C105.071 260.922 105.412 260.873 105.721 260.683C106.071 260.504 106.291 260.228 106.381 259.855C104.306 259.356 103.054 259.363 102.624 259.874ZM108.626 260.921C108.045 260.781 107.444 260.724 106.824 260.751C106.254 260.746 105.925 260.93 105.835 261.303L105.853 261.505C105.936 261.525 106.672 261.658 108.061 261.904C109.501 262.118 110.395 261.96 110.742 261.429L108.999 261.01L108.626 260.921ZM95.6015 262.531C94.8133 262.342 94.2856 262.346 94.0183 262.546C93.7611 262.703 93.5328 263.197 93.3335 264.027C93.8313 264.146 94.291 264.059 94.7126 263.765C95.1856 263.44 95.4819 263.029 95.6015 262.531ZM95.6412 263.462C95.5283 263.566 95.2204 263.844 94.7175 264.293C94.266 264.711 93.9804 265.169 93.8608 265.667C95.064 265.956 95.8921 265.98 96.3452 265.737C96.2905 265.417 96.1628 265.035 95.962 264.592C95.7713 264.108 95.6643 263.731 95.6412 263.462ZM94.0573 266.767C94.2348 266.942 94.341 267.23 94.3757 267.634C94.4205 267.996 94.4386 268.285 94.4303 268.503C95.5041 268.234 96.1705 267.56 96.4296 266.482C95.268 266.203 94.4772 266.298 94.0573 266.767ZM96.3316 271C97.0088 270.373 97.3724 269.955 97.4222 269.748L97.4048 269.546L95.2393 268.697L94.7289 268.903L96.3316 271ZM96.9264 271.538C96.948 271.63 96.9903 271.728 97.0533 271.831C97.1263 271.893 97.1994 271.954 97.2724 272.016C97.6657 272.022 98.1254 271.935 98.6515 271.754C99.1776 271.574 99.4556 271.421 99.4855 271.297C99.5353 271.089 99.4922 270.903 99.3562 270.739C99.2716 270.543 99.1878 270.435 99.1048 270.415C98.7315 270.326 98.2925 270.418 97.7879 270.691C97.2933 270.924 97.0062 271.206 96.9264 271.538ZM98.2131 273.031C99.076 273.458 99.5597 273.728 99.6642 273.841C99.8218 274.098 99.9214 274.232 99.9628 274.242C100.585 274.391 101.169 274.334 101.715 274.07C102.313 273.775 102.681 273.337 102.821 272.756C101.244 272.377 100.411 272.375 100.322 272.748C100.352 272.624 100.308 272.438 100.192 272.19C100.118 271.953 100.039 271.824 99.9559 271.805C99.8729 271.785 99.5534 271.927 98.9974 272.232C98.4929 272.506 98.2256 272.705 98.1957 272.83L98.2131 273.031ZM102.34 274.484C102.498 274.741 102.597 274.874 102.639 274.884C103.344 275.054 104.194 275.17 105.188 275.233C106.182 275.297 106.808 275.337 107.067 275.356C108.889 275.442 110.07 275.551 110.609 275.68L111.281 276.171C111.779 276.29 112.26 276.296 112.725 276.188C113.19 276.081 113.477 275.799 113.587 275.342C112.757 275.143 111.597 275.04 110.107 275.033C109.889 275.024 109.517 275.023 108.989 275.028C108.461 275.032 107.964 275.001 107.498 274.933C106.668 274.733 105.766 274.561 104.792 274.414C103.869 274.237 103.211 274.144 102.818 274.138L102.34 274.484ZM122.369 267.316C122.868 265.241 123.789 263.049 125.134 260.739C126.479 258.43 127.905 256.512 129.412 254.988L129.521 255.08C129.77 255.139 130.354 254.994 131.271 254.644C132.138 254.326 132.675 254.192 132.882 254.241C133.192 254.228 133.984 254.221 135.257 254.22C136.571 254.228 137.768 254.362 138.846 254.621L138.712 255.181C139.342 255.113 139.891 255.113 140.357 255.181C140.865 255.26 141.368 255.358 141.866 255.478C143.152 255.787 144.366 256.21 145.51 256.748C146.695 257.296 147.212 257.881 147.063 258.504C148.1 258.753 148.819 259.321 149.221 260.207C149.673 261.062 150.041 262.181 150.323 263.565C150.42 264.071 150.528 264.536 150.646 264.959C150.805 265.392 150.974 265.696 151.151 265.87L149.865 271.222L148.551 271.762L148.772 272.21C147.443 272.812 144.891 272.66 141.115 271.753L137.88 270.976C135.805 270.477 134.441 270.128 133.787 269.927C133.175 269.736 131.97 269.271 130.173 268.532C130.191 268.273 130.097 268.119 129.889 268.069C129.806 268.049 129.698 268.045 129.563 268.056C129.429 268.068 129.299 268.059 129.175 268.029C128.886 269.232 128.712 270.595 128.654 272.116C128.637 273.648 128.86 274.821 129.323 275.634C129.565 276.087 130.368 276.763 131.732 277.661C132.419 278.089 132.872 278.395 133.091 278.58C133.708 279.298 134.286 279.722 134.826 279.852C135.78 280.081 136.847 280.206 138.027 280.226C139.207 280.246 139.885 280.255 140.061 280.254C142.182 280.193 143.844 280.307 145.047 280.596C145.586 280.725 145.879 281.059 145.925 281.597C146.023 282.103 145.982 282.729 145.803 283.476C145.614 284.264 145.432 284.747 145.257 284.925C145.083 285.102 144.82 285.193 144.468 285.196C144.126 285.158 143.817 285.259 143.54 285.499C143.271 285.523 140.744 285.355 135.96 284.995C134.217 284.576 132.672 284.161 131.322 283.749C130.015 283.348 128.825 282.82 127.753 282.168C126.567 281.444 125.494 280.155 124.535 278.301C123.618 276.457 122.948 274.497 122.525 272.421C122.102 270.345 122.05 268.643 122.369 267.316ZM144.889 260.154C144.809 260.485 145.063 261.073 145.651 261.916C146.238 262.759 146.656 263.211 146.905 263.271C147.154 263.33 147.506 263.327 147.96 263.261C148.415 263.195 148.667 263.058 148.717 262.85C148.777 262.601 148.779 262.229 148.722 261.733C148.676 261.195 148.663 260.885 148.683 260.802C148.653 260.926 148.524 261.005 148.297 261.038C148.121 261.04 147.971 261.026 147.846 260.996C147.524 260.874 147.17 260.614 146.784 260.214C146.438 259.824 146.311 259.442 146.4 259.069C145.197 258.78 144.666 258.345 144.805 257.764C144.722 257.744 144.521 257.849 144.203 258.08C143.884 258.31 143.393 258.346 142.729 258.187C142.521 258.137 142.334 258.004 142.166 257.788C141.999 257.572 141.749 257.425 141.417 257.345L140.593 257.213C140.666 257.274 140.788 257.589 140.959 258.156C141.171 258.734 141.376 259.068 141.574 259.16C141.657 259.18 141.817 259.152 142.054 259.078C142.343 258.971 142.57 258.938 142.736 258.978C142.892 259.06 143.173 259.259 143.58 259.576C143.996 259.851 144.433 260.044 144.889 260.154ZM125.055 269.014C125.428 269.104 125.822 269.11 126.235 269.034C126.7 268.926 126.972 268.706 127.052 268.375C127.071 268.292 127.039 268.152 126.955 267.956C126.88 267.719 126.863 267.517 126.902 267.351C127.055 267.081 127.285 266.763 127.592 266.398C127.909 265.992 128.123 265.56 128.232 265.104C128.312 264.772 128.284 264.524 128.148 264.36C128.063 264.164 127.891 263.969 127.63 263.774C127.411 263.59 127.321 263.415 127.361 263.249C127.401 263.083 127.615 262.74 128.004 262.219C128.444 261.666 128.689 261.286 128.738 261.079C128.838 260.664 129.397 260.074 130.414 259.309C131.02 258.797 131.492 258.383 131.831 258.07C132.169 257.756 132.383 257.413 132.473 257.039C132.639 257.079 132.857 257.176 133.128 257.328C133.398 257.481 133.679 257.592 133.969 257.662C134.094 257.692 134.201 257.608 134.293 257.411C134.394 257.172 134.491 257.041 134.584 257.02C134.946 256.975 135.625 257.072 136.62 257.312C137.584 257.499 138.32 257.632 138.828 257.71C139.346 257.747 139.651 257.667 139.742 257.469C139.335 257.152 138.93 256.923 138.525 256.782C138.13 256.599 137.6 256.428 136.937 256.269C134.116 255.591 131.729 256.027 129.777 257.576C127.867 259.136 126.563 261.368 125.865 264.272L127.856 264.75L127.767 265.124L124.911 266.873L124.627 268.055L125.478 267.799L124.448 268.802L125.055 269.014ZM130.413 262.6C130.521 263.065 131.654 263.644 133.813 264.338C136.024 265.001 137.876 265.512 139.369 265.87C140.116 266.05 141.132 266.206 142.416 266.339C143.617 266.452 144.592 266.598 145.338 266.778C145.388 266.57 145.343 266.121 145.202 265.429C145.071 264.695 144.922 264.308 144.756 264.268L144.617 264.301C144.536 263.36 143.777 262.41 142.34 261.45C140.944 260.5 139.707 259.896 138.629 259.637C136.969 259.238 135.423 259.284 133.989 259.773C132.555 260.262 131.363 261.205 130.413 262.6ZM147.461 268.078C147.312 268.7 147.005 269.065 146.54 269.173C146.085 269.239 145.464 269.177 144.676 268.988C144.002 268.87 143.484 268.834 143.122 268.878C142.761 268.923 142.53 269.153 142.43 269.568C143.799 269.897 144.888 270.114 145.696 270.221C146.504 270.327 147.041 270.193 147.307 269.818C147.434 270.199 147.685 270.435 148.058 270.525C148.138 270.193 148.14 269.82 148.064 269.407C148.039 268.962 148.051 268.636 148.101 268.429C148.141 268.263 148.259 268.138 148.455 268.053C148.692 267.978 148.872 267.868 148.995 267.722C149.159 267.586 149.301 267.269 149.421 266.771C149.81 265.153 149.527 264.23 148.573 264C148.158 263.901 147.858 263.96 147.674 264.179C147.541 264.367 147.4 264.772 147.25 265.394C147.378 266.873 147.468 267.684 147.521 267.829L147.461 268.078ZM130.418 264.773C130.044 264.684 129.678 264.749 129.318 264.97C128.999 265.2 128.795 265.502 128.705 265.876C129.244 266.005 129.622 265.986 129.838 265.819C130.095 265.661 130.288 265.313 130.418 264.773ZM131.466 265.617C131.383 265.597 131.089 265.724 130.584 265.998C130.121 266.282 129.73 266.539 129.412 266.769L130.778 266.834C130.861 266.854 131.141 266.878 131.617 266.904C132.145 266.899 132.791 266.769 133.554 266.514C133.44 266.443 132.826 266.164 131.715 265.677L131.466 265.617ZM133.375 267.261C134.135 267.75 134.826 268.07 135.448 268.219C135.821 268.309 136.162 268.259 136.471 268.07C136.821 267.891 137.041 267.615 137.131 267.242C135.057 266.743 133.805 266.75 133.375 267.261ZM139.376 268.307C138.795 268.168 138.195 268.111 137.574 268.138C137.005 268.133 136.675 268.317 136.586 268.69L136.603 268.892C136.686 268.912 137.422 269.045 138.811 269.291C140.251 269.505 141.145 269.347 141.492 268.816L139.75 268.397L139.376 268.307ZM126.352 269.918C125.563 269.728 125.036 269.733 124.769 269.932C124.511 270.09 124.283 270.584 124.084 271.413C124.581 271.533 125.041 271.446 125.463 271.152C125.936 270.827 126.232 270.416 126.352 269.918ZM126.391 270.849C126.278 270.953 125.971 271.23 125.468 271.68C125.016 272.098 124.731 272.556 124.611 273.054C125.814 273.343 126.642 273.366 127.095 273.124C127.041 272.804 126.913 272.422 126.712 271.979C126.522 271.494 126.415 271.118 126.391 270.849ZM124.807 274.154C124.985 274.329 125.091 274.617 125.126 275.021C125.171 275.382 125.189 275.672 125.181 275.889C126.254 275.621 126.921 274.947 127.18 273.868C126.018 273.589 125.227 273.685 124.807 274.154ZM127.082 278.387C127.759 277.759 128.123 277.342 128.172 277.135L128.155 276.933L125.989 276.084L125.479 276.29L127.082 278.387ZM127.677 278.924C127.698 279.017 127.741 279.115 127.804 279.218C127.877 279.28 127.95 279.341 128.023 279.402C128.416 279.409 128.876 279.322 129.402 279.141C129.928 278.961 130.206 278.808 130.236 278.683C130.286 278.476 130.242 278.29 130.106 278.126C130.022 277.93 129.938 277.822 129.855 277.802C129.482 277.712 129.043 277.804 128.538 278.078C128.044 278.31 127.756 278.592 127.677 278.924ZM128.963 280.418C129.826 280.845 130.31 281.115 130.414 281.228C130.572 281.485 130.672 281.618 130.713 281.628C131.335 281.778 131.92 281.721 132.466 281.457C133.063 281.162 133.432 280.724 133.571 280.143C131.995 279.764 131.162 279.762 131.072 280.135C131.102 280.01 131.059 279.825 130.942 279.577C130.868 279.34 130.789 279.211 130.706 279.191C130.623 279.171 130.304 279.314 129.748 279.619C129.243 279.893 128.976 280.092 128.946 280.217L128.963 280.418ZM133.09 281.87C133.248 282.128 133.347 282.261 133.389 282.271C134.094 282.441 134.944 282.557 135.938 282.62C136.932 282.684 137.558 282.724 137.817 282.743C139.639 282.829 140.82 282.937 141.36 283.067L142.032 283.558C142.529 283.677 143.011 283.683 143.475 283.575C143.94 283.467 144.227 283.185 144.337 282.729C143.507 282.53 142.347 282.427 140.857 282.42C140.639 282.411 140.267 282.41 139.739 282.414C139.211 282.419 138.714 282.388 138.248 282.32C137.418 282.12 136.516 281.947 135.542 281.801C134.62 281.623 133.962 281.531 133.568 281.524L133.09 281.87ZM183.94 272.167C183.512 273.951 182.652 276.619 181.36 280.17C181.209 280.616 180.846 281.67 180.271 283.331C179.697 284.992 179.23 286.57 178.871 288.063C178.712 288.727 178.556 289.742 178.403 291.11C178.23 292.56 178.068 293.597 177.919 294.219C177.789 294.758 177.643 295.096 177.478 295.232C177.314 295.368 176.962 295.371 176.423 295.242C175.012 294.903 174.062 294.565 173.573 294.228C173.083 293.891 172.512 293.161 171.86 292.039C171.487 291.95 170.51 292 168.928 292.191C168.121 292.26 167.273 292.32 166.384 292.369C165.536 292.429 164.842 292.394 164.303 292.264C164.012 292.195 163.83 292.041 163.755 291.804C163.413 291.766 162.869 291.657 162.122 291.477C159.633 290.879 157.599 289.667 156.019 287.839C154.481 286.022 153.463 283.868 152.964 281.379C152.465 278.889 152.514 276.4 153.112 273.911C153.381 272.791 153.86 271.436 154.549 269.846C155.28 268.266 155.957 267.003 156.579 266.055C156.898 265.825 157.273 265.542 157.704 265.207C158.146 264.83 158.459 264.532 158.643 264.313L158.688 264.127C159.827 263.04 160.995 262.377 162.193 262.138C163.392 261.9 164.959 261.859 166.896 262.017C167.154 262.036 167.398 262.028 167.625 261.995C167.852 261.962 168.054 261.945 168.23 261.943C168.963 261.812 169.496 261.786 169.828 261.866L169.723 262.302C170.042 262.071 170.471 262.021 171.01 262.15C171.633 262.3 172.214 262.527 172.755 262.833C173.296 263.138 173.962 263.561 174.754 264.103C175.316 264.501 175.905 264.884 176.519 265.25C177.184 265.586 177.807 265.823 178.388 265.963L180.187 259.023L180.802 256.735C181.52 253.748 181.763 251.547 181.533 250.131L187.631 251.596C187.674 251.782 187.678 252.134 187.641 252.652C187.614 253.128 187.572 253.579 187.514 254.004C187.462 254.035 187.427 254.092 187.407 254.175C187.377 254.3 187.394 254.501 187.459 254.78C187.523 255.059 187.562 255.266 187.573 255.4C187.543 255.525 187.452 255.722 187.299 255.992C187.198 256.231 187.055 256.46 186.871 256.679C186.462 258.38 185.964 261.003 185.376 264.548C184.827 267.927 184.349 270.466 183.94 272.167ZM184.549 252.37C183.927 252.22 183.518 252.188 183.322 252.273C183.126 252.357 182.959 252.69 182.819 253.271C182.55 254.391 182.664 255.011 183.162 255.13L183.565 255.096L183.075 255.768L184.195 256.037C183.76 256.02 183.363 256.122 183.003 256.343C182.684 256.573 182.48 256.875 182.39 257.249C183.012 257.398 183.606 257.211 184.17 256.689C184.786 256.135 185.173 255.526 185.333 254.862C185.512 254.115 185.58 253.561 185.535 253.199C185.5 252.796 185.172 252.519 184.549 252.37ZM182.654 258.892C183.774 259.161 184.488 258.652 184.797 257.366L184.299 257.246L182.654 258.892ZM181.969 260.373C181.919 260.58 181.87 260.875 181.822 261.259C181.825 261.611 181.858 261.838 181.921 261.941C182.819 261.674 183.378 261.084 183.597 260.171C183.223 260.082 182.856 260.059 182.494 260.104C182.184 260.117 182.009 260.207 181.969 260.373ZM182.289 264.794C182.229 265.043 182.148 265.199 182.045 265.262C181.983 265.335 181.839 265.388 181.612 265.421C181.426 265.464 181.22 265.59 180.994 265.799L181.325 266.339L182.729 265.426L183.507 262.19C183.175 262.11 182.752 262.316 182.24 262.807C181.768 263.308 181.488 263.745 181.398 264.119C181.318 264.451 181.424 264.652 181.714 264.721L182.289 264.794ZM180.593 269.389C180.087 269.486 179.274 269.489 178.156 269.396C177.431 269.309 176.825 269.273 176.339 269.288C175.852 269.303 175.362 269.426 174.867 269.659C174.963 269.989 175.158 270.365 175.452 270.786C175.756 271.167 176.063 271.438 176.375 271.601C178.189 270.808 179.939 270.285 181.623 270.031C181.56 269.928 181.502 269.804 181.449 269.66C181.406 269.474 181.399 269.319 181.429 269.195C181.479 268.987 181.703 268.602 182.102 268.04C182.541 267.487 182.801 267.045 182.881 266.713L182.072 266.519L179.605 268.296L179.483 268.53C179.453 268.654 179.568 268.813 179.829 269.008C180.089 269.202 180.344 269.329 180.593 269.389ZM164.744 264.397L163.798 264.499C164.027 264.641 164.277 264.789 164.548 264.942C164.818 265.095 165.052 265.217 165.249 265.308C165.83 265.447 166.564 265.316 167.45 264.915C167.543 264.893 167.76 264.814 168.1 264.676C168.482 264.548 168.838 264.524 169.17 264.604L173.34 265.606C173.069 265.453 172.684 265.229 172.185 264.933C171.685 264.638 171.238 264.399 170.843 264.216C170.387 264.107 169.895 264.054 169.367 264.059C168.839 264.064 168.38 264.151 167.988 264.32L168.078 263.947C166.109 263.737 164.738 263.693 163.963 263.814L164.744 264.397ZM174.28 266.622C173.866 266.522 173.607 266.592 173.506 266.831C173.539 267.058 173.631 267.409 173.78 267.884C173.971 268.368 174.19 268.64 174.439 268.7L176.735 268.462C176.361 268.372 176.122 268.271 176.018 268.158C175.913 268.045 175.803 267.865 175.687 267.618C175.612 267.38 175.481 267.195 175.293 267.062C175.157 266.898 174.82 266.751 174.28 266.622ZM162.698 264.695C161.993 264.526 161.182 264.704 160.266 265.23C159.35 265.756 158.523 266.457 157.786 267.333C157.101 268.177 156.668 268.973 156.489 269.72C156.479 269.761 156.521 269.859 156.616 270.013C156.762 270.136 156.897 270.213 157.021 270.242C157.519 270.362 158.396 270.09 159.653 269.426C160.919 268.721 161.649 268.151 161.841 267.714L162.471 267.01C162.615 266.957 162.889 266.913 163.293 266.878C163.737 266.853 164.078 266.804 164.316 266.729C164.563 266.613 164.717 266.43 164.776 266.182L164.759 265.98C164.077 266.079 163.134 265.985 161.931 265.695C162.263 265.775 162.506 265.768 162.661 265.673C162.815 265.579 162.922 265.407 162.982 265.158C163.022 264.992 163.026 264.883 162.994 264.832C162.963 264.78 162.864 264.735 162.698 264.695ZM159.772 280.711C160.125 281.98 160.465 282.939 160.792 283.588C161.129 284.196 161.677 284.744 162.437 285.234C163.239 285.734 164.407 286.168 165.942 286.537C167.228 286.846 168.516 286.782 169.805 286.346C171.095 285.91 172.211 285.191 173.154 284.188C174.097 283.186 174.728 282.021 175.047 280.694C175.366 279.366 175.54 278.092 175.57 276.87C175.642 275.659 175.382 274.456 174.792 273.261C174.138 271.963 173.288 270.662 172.241 269.357C171.246 268.021 170.292 267.243 169.379 267.024C168.674 266.854 167.796 267.038 166.745 267.576C165.694 268.113 165.097 268.409 164.953 268.462C163.356 269.263 162.216 270.174 161.532 271.194C160.899 272.183 160.364 273.59 159.925 275.416L159.165 278.853L159.772 280.711ZM179.188 271.947C180.101 272.167 180.81 272.227 181.317 272.129C181.823 272.032 182.171 271.589 182.36 270.8C181.696 270.641 181.08 270.647 180.513 270.817C179.955 270.947 179.249 271.238 178.394 271.691L179.188 271.947ZM178.11 274.519C178.774 274.678 179.426 274.703 180.066 274.594C180.758 274.453 181.184 274.05 181.344 273.387C180.804 273.257 180.241 273.319 179.653 273.573C179.076 273.785 178.561 274.1 178.11 274.519ZM176.345 273.371C177.341 273.61 178.199 273.509 178.919 273.067L178.484 272.963C178.193 272.893 177.784 272.861 177.256 272.865C176.78 272.839 176.516 272.841 176.465 272.873L176.345 273.371ZM177.432 280.082C178.344 280.301 178.985 280.192 179.353 279.754C179.722 279.316 180.021 278.62 180.25 277.665L180.696 275.535C180.085 275.52 179.471 275.701 178.854 276.079C178.288 276.426 177.935 276.89 177.796 277.471C177.696 277.886 177.693 278.17 177.788 278.325C177.892 278.437 178.214 278.559 178.754 278.688C177.982 279.161 177.541 279.626 177.432 280.082ZM159.603 270.731C158.814 270.542 157.956 270.643 157.029 271.034L157.947 271.321L158.196 271.38C158.611 271.48 158.911 271.508 159.097 271.465C159.334 271.39 159.503 271.146 159.603 270.731ZM155.936 272.022L155.666 273.142L158.363 272.605L155.936 272.022ZM158.559 273.705C157.978 273.566 157.3 273.557 156.525 273.678C155.802 273.767 155.385 274.04 155.275 274.496L155.293 274.698L157.645 275.592C157.769 275.622 157.923 275.439 158.106 275.045C158.288 274.65 158.439 274.203 158.559 273.705ZM155.736 275.594C155.279 275.485 154.964 275.519 154.79 275.696C154.625 275.832 154.483 276.149 154.364 276.647C154.737 276.737 155.114 276.63 155.494 276.326C155.926 275.991 156.193 275.792 156.296 275.729L155.736 275.594ZM176.976 281.157C177.142 281.197 177.55 281.142 178.201 280.991L177.827 280.901C177.62 280.851 177.449 280.832 177.314 280.844C177.18 280.855 177.067 280.96 176.976 281.157ZM157.436 276.463C155.474 276.957 154.384 277.661 154.164 278.574C155.16 278.813 155.916 278.863 156.432 278.723C156.99 278.594 157.373 278.094 157.582 277.223C157.682 276.808 157.633 276.555 157.436 276.463ZM176.801 282.432C177.299 282.551 177.667 282.574 177.904 282.499C178.151 282.383 178.34 282.055 178.469 281.516C178.117 281.519 177.771 281.59 177.431 281.727C177.091 281.865 176.881 282.1 176.801 282.432ZM175.255 284.759C175.389 284.747 175.689 284.688 176.154 284.58C176.618 284.472 177.031 284.308 177.391 284.087C177.751 283.867 177.971 283.59 178.051 283.258C177.262 283.069 176.647 283.075 176.204 283.276C175.77 283.435 175.454 283.929 175.255 284.759ZM154.577 279.594C154.288 280.797 154.642 281.519 155.637 281.758C156.384 281.937 157.088 281.931 157.748 281.738L157.492 280.887C156.81 280.986 156.397 281.15 156.255 281.379L156.237 281.178C156.309 281.063 156.442 280.876 156.636 280.615C156.881 280.323 157.107 280.114 157.313 279.988C157.29 279.719 157.05 279.53 156.594 279.42C155.349 279.121 154.677 279.179 154.577 279.594ZM176.457 285.508C177.121 285.668 177.523 285.457 177.662 284.876C177.206 284.767 176.643 284.917 175.974 285.327L176.457 285.508ZM154.933 282.773C155.027 282.928 155.158 283.113 155.326 283.328C155.493 283.544 155.634 283.688 155.749 283.759C156.081 283.839 156.443 283.794 156.834 283.625C157.277 283.424 157.596 283.194 157.79 282.933C157.716 282.696 157.575 282.552 157.367 282.502C157.201 282.463 156.819 282.502 156.22 282.622C155.672 282.709 155.243 282.76 154.933 282.773ZM174.881 287.96C175.213 288.04 175.529 288.094 175.829 288.122C176.171 288.16 176.528 288.136 176.9 288.05C176.979 287.718 176.967 287.496 176.862 287.383C176.809 287.239 176.638 287.132 176.347 287.062C175.725 286.912 174.992 287.131 174.149 287.719L174.881 287.96ZM167.345 290.56C167.853 290.638 168.587 290.507 169.546 290.167C170.515 289.786 171.401 289.296 172.202 288.699C173.004 288.102 173.47 287.533 173.599 286.994L173.597 286.73C173.288 286.919 172.557 287.314 171.403 287.915C169.136 288.95 167.783 289.831 167.345 290.56ZM156.192 284.655C156.225 284.883 156.278 285.027 156.351 285.089C156.466 285.16 156.647 285.226 156.896 285.285C157.145 285.345 157.435 285.327 157.765 285.231C158.095 285.135 158.373 284.982 158.599 284.773L158.288 284.698C157.583 284.529 156.884 284.514 156.192 284.655ZM157.416 286.134C157.532 286.382 157.705 286.577 157.934 286.719C157.975 286.729 158.286 286.716 158.865 286.68C159.444 286.643 159.913 286.427 160.271 286.03C160.009 285.66 159.671 285.425 159.256 285.326C158.966 285.256 158.722 285.263 158.527 285.348C158.331 285.432 158.12 285.579 157.894 285.788C157.678 285.956 157.519 286.071 157.416 286.134ZM173.939 290.235C174.23 290.305 174.529 290.245 174.838 290.056C175.198 289.835 175.413 289.58 175.483 289.29L174.238 288.991L173.939 290.235ZM175.281 290.952C175.862 291.092 176.227 290.85 176.376 290.228C176.128 290.168 175.9 290.202 175.694 290.328C175.489 290.454 175.351 290.662 175.281 290.952ZM159.469 288.273C159.843 288.363 160.117 288.319 160.291 288.141C160.475 287.922 160.679 287.532 160.901 286.971C160.85 287.003 160.529 287.058 159.94 287.136C159.393 287.223 158.991 287.434 158.735 287.768C158.727 287.985 158.972 288.153 159.469 288.273ZM163.945 288.822C163.323 288.672 162.921 288.883 162.74 289.454C163.041 289.482 163.289 289.454 163.484 289.369C163.732 289.253 163.885 289.071 163.945 288.822ZM163.215 290.489C164.087 290.699 164.796 290.759 165.344 290.671C165.891 290.584 166.385 290.263 166.825 289.711L165.969 289.439C165.471 289.32 164.918 289.34 164.308 289.501C163.699 289.662 163.335 289.991 163.215 290.489ZM161.157 289.468C161.406 289.528 161.633 289.495 161.839 289.369C162.086 289.253 162.24 289.07 162.3 288.821C162.009 288.752 161.75 288.733 161.523 288.766C161.296 288.799 161.058 288.874 160.811 288.99C160.791 289.073 160.813 289.166 160.876 289.269C160.939 289.372 161.033 289.438 161.157 289.468ZM175.719 292.966C175.705 292.656 175.471 292.446 175.014 292.336L174.315 292.234L174.225 292.608L175.719 292.966ZM225.591 301.787C225.508 301.767 225.415 301.789 225.313 301.852C225.22 301.874 225.163 301.926 225.143 302.009C225.113 302.133 225.108 302.703 225.128 303.717C225.148 304.73 225.093 305.507 224.963 306.046C224.854 306.503 224.41 306.704 223.634 306.649C222.899 306.604 222.075 306.472 221.162 306.252C220.281 306.084 219.835 306.021 219.825 306.063C219.752 306.001 219.611 305.858 219.402 305.632C219.193 305.406 219.104 305.231 219.133 305.107L222.093 292.785C222.552 290.877 222.908 289.12 223.162 287.513C223.417 285.907 223.424 284.504 223.186 283.306L223.123 283.291C222.916 283.241 222.311 282.745 221.309 281.802C220.358 280.828 219.861 280.248 219.818 280.062C219.808 280.103 219.089 280.084 217.66 280.004C216.283 279.893 214.897 279.999 213.503 280.322C212.16 280.614 211.251 281.295 210.774 282.365C210.581 282.802 210.359 283.362 210.107 284.048C209.854 284.733 209.673 285.304 209.564 285.76C209.241 286.736 209.011 287.514 208.871 288.095C207.825 291.354 207.097 293.834 206.689 295.535C206.44 296.572 206.276 297.345 206.198 297.853L205.735 298.136C205.788 298.281 205.916 298.663 206.118 299.282C206.372 299.869 206.444 300.391 206.334 300.847C206.274 301.096 206.152 301.33 205.968 301.549C205.784 301.768 205.547 301.843 205.256 301.773L200.713 300.682C200.649 300.403 200.476 300.208 200.196 300.097C199.957 299.996 199.821 299.831 199.788 299.604L200.951 294.486C201.619 291.706 202.828 287.587 204.578 282.127C204.779 281.474 205.282 279.839 206.085 277.224C206.889 274.608 207.565 272.16 208.113 269.878C208.332 268.966 208.566 267.903 208.813 266.69C209.071 265.435 209.259 264.471 209.376 263.797C209.868 261.019 210.279 258.946 210.608 257.577L215.212 258.683L215.932 259.251L215.154 262.486C213.47 269.498 212.753 273.033 213.001 273.093L213.181 273.992C214.659 273.864 216.34 273.807 218.224 273.821C220.149 273.845 221.63 273.981 222.667 274.23C224.534 274.679 226.091 275.689 227.337 277.261C228.634 278.801 229.499 280.588 229.932 282.623C230.406 284.668 230.429 286.582 230 288.366C229.751 289.403 229.389 290.545 228.914 291.791C228.439 293.037 228.136 293.842 228.005 294.205C226.932 296.844 226.227 298.868 225.888 300.279C225.728 300.943 225.63 301.446 225.591 301.787ZM213.345 259.88C213.055 259.81 212.703 259.813 212.29 259.889C211.877 259.966 211.655 260.066 211.625 260.191C211.476 260.813 211.429 261.921 211.485 263.514C211.498 264.921 211.46 265.811 211.37 266.185C211.34 266.309 211.264 266.444 211.141 266.59C211.018 266.736 210.905 266.841 210.802 266.904L209.322 273.065L209.606 273.528C209.44 273.488 209.245 273.661 209.021 274.046C208.838 274.44 208.692 274.866 208.582 275.322L209.578 275.562C208.846 275.868 208.435 276.209 208.346 276.582C208.595 276.642 208.972 276.623 209.478 276.525C210.036 276.396 210.413 276.289 210.609 276.204C210.688 275.872 210.715 275.396 210.689 274.775C210.662 274.155 210.571 273.804 210.415 273.722C210.476 273.649 210.578 273.498 210.721 273.269C210.864 273.04 210.981 272.827 211.072 272.63C211.202 272.09 211.303 271.303 211.377 270.267C211.388 269.305 211.494 268.409 211.693 267.579L211.507 267.534C211.804 267.21 212.008 266.908 212.119 266.628C212.24 266.306 212.371 265.855 212.51 265.274C212.68 264.569 212.691 264.155 212.545 264.032C212.451 263.877 212.413 263.759 212.433 263.676C212.483 263.468 212.615 263.193 212.829 262.849C213.095 262.474 213.293 262.017 213.422 261.478C213.562 260.897 213.615 260.493 213.582 260.266C213.59 260.048 213.511 259.92 213.345 259.88ZM219.729 278.79C220.102 278.88 221.718 278.456 224.576 277.519C224.262 277.18 223.753 276.926 223.048 276.757C222.384 276.597 222.01 276.508 221.927 276.488L219.43 278.389L219.729 278.79ZM213.946 277.927C217.73 277.52 219.842 277.04 220.282 276.487L219.998 276.024C216.656 276.055 215.047 276.086 215.172 276.115L214.377 275.859C214.192 275.902 213.806 276.138 213.22 276.568C212.84 276.872 212.5 277.097 212.202 277.245C211.954 277.361 211.685 277.384 211.395 277.314C211.229 277.275 211.099 277.178 211.004 277.023C210.961 276.837 210.924 276.719 210.892 276.667C209.951 276.748 209.213 276.9 208.677 277.122C208.151 277.303 207.813 277.705 207.663 278.327C207.544 278.825 207.733 279.133 208.231 279.253C209.359 279.305 210.13 279.292 210.543 279.216C210.966 279.098 211.275 278.909 211.469 278.649C211.705 278.398 211.937 278.256 212.164 278.223L213.946 277.927ZM223.903 280.319C224.277 280.409 224.721 280.384 225.237 280.245C225.754 280.106 226.155 279.895 226.442 279.613L225.828 278.609L223.482 280.152L223.903 280.319ZM217.673 278.033C218.005 278.112 218.264 278.131 218.45 278.088C218.645 278.003 218.788 277.774 218.878 277.401L217.128 277.836L217.673 278.033ZM221.663 279.781C221.787 279.811 222.081 279.684 222.544 279.4C223.049 279.127 223.486 278.859 223.856 278.597C223.805 278.628 223.469 278.657 222.848 278.684C222.269 278.72 221.623 278.85 220.911 279.074C220.974 279.177 221.095 279.315 221.272 279.49C221.46 279.623 221.59 279.72 221.663 279.781ZM224.978 284.066C225.102 284.096 225.299 284.099 225.568 284.076C225.847 284.011 226.048 283.994 226.173 284.024L225.543 284.728L226.339 285.249L225.274 285.848C225.688 285.948 226.288 285.917 227.073 285.754C227.91 285.56 228.398 285.173 228.537 284.592C228.597 284.343 228.564 284.116 228.438 283.91C228.312 283.704 228.124 283.571 227.875 283.511L227.549 283.499L228.087 282.904C228.187 282.489 228.173 282.091 228.045 281.709C227.917 281.327 227.688 281.097 227.356 281.017C226.941 280.917 226.465 280.979 225.929 281.201C225.435 281.433 225.013 281.727 224.664 282.082L225.337 282.572C225.245 282.77 225.107 282.978 224.923 283.197C224.78 283.426 224.678 283.577 224.617 283.65C224.597 283.733 224.618 283.826 224.682 283.929C224.796 284 224.895 284.046 224.978 284.066ZM206.827 288.657C207.043 287.393 207.296 286.159 207.585 284.956C208.093 282.84 208.668 281.179 209.308 279.973C209.215 279.994 209.076 280.027 208.89 280.07C208.714 280.071 208.58 280.083 208.487 280.104C207.702 280.267 207.176 280.448 206.909 280.647C206.693 280.814 206.51 281.209 206.361 281.832C206.321 281.997 206.322 282.085 206.363 282.095L207.005 282.71L206.094 283.216L204.898 288.194L205.54 288.809C205.188 288.812 204.853 288.929 204.534 289.16C204.226 289.349 204.031 289.609 203.952 289.941C204.242 290.011 204.591 290.204 204.997 290.521C205.455 290.807 205.721 291.068 205.796 291.306C206.186 290.961 206.456 290.477 206.605 289.855L205.734 289.645C206.071 289.156 206.436 288.827 206.827 288.657ZM224.275 288.636C225.353 288.895 226.315 288.819 227.16 288.408C228.005 287.996 228.557 287.251 228.816 286.173C227.82 285.933 226.874 286.035 225.978 286.478C225.082 286.921 224.514 287.64 224.275 288.636ZM223.881 291.372C224.586 291.541 225.376 291.358 226.251 290.822C227.177 290.255 227.73 289.598 227.909 288.851C227.453 288.741 226.822 288.809 226.017 289.055C225.212 289.3 224.755 289.651 224.645 290.107L225.517 290.317C225.342 290.494 225.116 290.615 224.837 290.68C224.61 290.713 224.398 290.772 224.202 290.857C224.058 290.91 223.951 291.081 223.881 291.372ZM224.838 295.88C224.918 295.548 225.204 295.09 225.695 294.506C225.756 294.433 225.956 294.152 226.293 293.662C226.671 293.183 226.95 292.57 227.129 291.823C227.159 291.699 227.148 291.564 227.095 291.42C227.093 291.244 227.03 291.141 226.905 291.111L224.244 292.051L224.214 292.176C224.115 292.591 224.21 292.833 224.5 292.903C224.15 293.082 223.811 293.308 223.482 293.58C223.163 293.81 222.984 294.009 222.944 294.175L223.781 293.981C223.729 294.012 223.694 294.069 223.674 294.152C223.644 294.277 223.655 294.411 223.708 294.556C223.803 294.71 223.908 294.823 224.022 294.894C223.919 294.957 223.796 295.015 223.651 295.068C223.548 295.131 223.467 295.287 223.407 295.536C223.429 295.629 223.471 295.727 223.534 295.83C223.607 295.891 223.68 295.953 223.753 296.014L223.228 296.283L221.254 304.497L221.752 304.617C222.209 304.727 222.576 304.749 222.855 304.684C223.134 304.62 223.318 304.401 223.408 304.027C223.567 303.364 223.681 302.798 223.749 302.332C223.827 301.824 223.885 301.4 223.924 301.058C224.077 299.69 224.253 298.592 224.452 297.762L224.141 297.687C224.913 297.214 225.373 296.667 225.523 296.045L224.838 295.88ZM205.617 292.052C205.492 292.023 205.27 292.035 204.95 292.09C204.629 292.144 204.428 292.162 204.345 292.142L204.897 291.485C204.607 291.415 204.322 291.412 204.044 291.477C203.765 291.542 203.605 291.657 203.566 291.823C203.506 292.072 203.549 292.258 203.695 292.381C203.892 292.472 204.136 292.553 204.427 292.622C204.759 292.702 205.012 292.741 205.188 292.739C205.406 292.748 205.643 292.673 205.9 292.516C205.92 292.433 205.878 292.335 205.773 292.222C205.71 292.119 205.658 292.062 205.617 292.052ZM203.059 299.139C203.474 299.239 203.82 299.168 204.097 298.928C204.384 298.646 204.577 298.297 204.677 297.882C204.737 297.633 204.776 297.379 204.794 297.121C204.822 296.82 204.758 296.541 204.6 296.284C204.466 296.296 204.259 296.334 203.98 296.398C203.701 296.463 203.479 296.476 203.313 296.436L205.243 295.254C205.276 294.384 205.168 293.919 204.919 293.86L204.718 293.877L205.348 293.173C204.125 292.967 203.237 293.192 202.684 293.849C202.674 293.891 202.7 293.963 202.764 294.066C202.868 294.179 202.962 294.245 203.045 294.265C203.169 294.295 203.304 294.283 203.448 294.23C203.634 294.187 203.773 294.155 203.866 294.133L202.85 295.074L203.134 295.537C202.907 295.57 202.757 295.644 202.686 295.758C202.625 295.831 202.569 295.972 202.519 296.179C202.521 296.355 202.539 296.645 202.574 297.048C202.618 297.41 202.621 297.674 202.581 297.84C202.53 297.871 202.432 297.913 202.287 297.966C202.143 298.019 202.046 298.15 201.996 298.357C201.976 298.44 202.096 298.579 202.357 298.773C202.617 298.967 202.851 299.089 203.059 299.139ZM237.166 294.892C237.664 292.818 238.586 290.626 239.931 288.316C241.275 286.006 242.701 284.089 244.208 282.564L244.318 282.656C244.567 282.716 245.15 282.571 246.068 282.221C246.934 281.903 247.471 281.768 247.679 281.818C247.989 281.805 248.781 281.798 250.054 281.796C251.368 281.805 252.564 281.939 253.643 282.198L253.508 282.758C254.139 282.69 254.688 282.69 255.154 282.758C255.662 282.836 256.165 282.935 256.662 283.055C257.948 283.364 259.163 283.787 260.306 284.325C261.491 284.873 262.009 285.458 261.859 286.08C262.897 286.329 263.616 286.897 264.017 287.783C264.47 288.638 264.838 289.758 265.119 291.142C265.217 291.648 265.325 292.113 265.443 292.536C265.602 292.969 265.77 293.273 265.948 293.447L264.662 298.799L263.348 299.339L263.569 299.787C262.24 300.389 259.687 300.237 255.912 299.33L252.676 298.552C250.602 298.054 249.238 297.704 248.584 297.503C247.972 297.312 246.767 296.848 244.97 296.109C244.988 295.85 244.894 295.695 244.686 295.646C244.603 295.626 244.494 295.621 244.36 295.633C244.226 295.645 244.096 295.636 243.972 295.606C243.683 296.809 243.509 298.171 243.451 299.693C243.434 301.225 243.657 302.397 244.119 303.21C244.362 303.664 245.165 304.339 246.529 305.237C247.216 305.666 247.669 305.972 247.888 306.156C248.505 306.875 249.083 307.299 249.622 307.429C250.577 307.658 251.644 307.782 252.824 307.803C254.004 307.823 254.681 307.832 254.857 307.83C256.978 307.769 258.64 307.883 259.843 308.172C260.383 308.302 260.676 308.636 260.722 309.173C260.82 309.68 260.779 310.306 260.6 311.053C260.41 311.841 260.228 312.324 260.054 312.501C259.88 312.679 259.617 312.769 259.265 312.773C258.923 312.734 258.614 312.836 258.336 313.076C258.068 313.099 255.541 312.931 250.757 312.572C249.014 312.153 247.468 311.738 246.119 311.326C244.812 310.924 243.622 310.397 242.55 309.745C241.363 309.021 240.291 307.732 239.332 305.878C238.415 304.034 237.745 302.074 237.322 299.998C236.899 297.922 236.847 296.22 237.166 294.892ZM259.686 287.73C259.606 288.062 259.86 288.65 260.447 289.493C261.035 290.336 261.453 290.787 261.702 290.847C261.951 290.907 262.302 290.904 262.757 290.838C263.212 290.771 263.464 290.634 263.514 290.427C263.574 290.178 263.575 289.805 263.519 289.309C263.473 288.772 263.46 288.461 263.479 288.378C263.45 288.503 263.321 288.582 263.094 288.615C262.918 288.616 262.767 288.602 262.643 288.572C262.321 288.451 261.967 288.19 261.58 287.79C261.235 287.4 261.107 287.019 261.197 286.645C259.994 286.356 259.462 285.921 259.602 285.34C259.519 285.321 259.318 285.426 258.999 285.656C258.681 285.887 258.189 285.923 257.526 285.763C257.318 285.713 257.131 285.581 256.963 285.365C256.796 285.149 256.546 285.001 256.214 284.922L255.39 284.789C255.463 284.851 255.585 285.165 255.756 285.733C255.968 286.311 256.173 286.645 256.37 286.736C256.453 286.756 256.613 286.729 256.851 286.654C257.14 286.548 257.367 286.515 257.533 286.555C257.689 286.636 257.97 286.835 258.377 287.152C258.793 287.428 259.23 287.621 259.686 287.73ZM239.852 296.591C240.225 296.68 240.618 296.687 241.032 296.611C241.496 296.503 241.769 296.283 241.848 295.951C241.868 295.868 241.836 295.729 241.751 295.533C241.677 295.296 241.659 295.094 241.699 294.928C241.852 294.658 242.082 294.34 242.389 293.975C242.706 293.568 242.919 293.137 243.029 292.68C243.109 292.349 243.08 292.1 242.944 291.936C242.86 291.74 242.687 291.545 242.427 291.351C242.208 291.167 242.118 290.992 242.158 290.826C242.198 290.66 242.412 290.316 242.8 289.795C243.24 289.243 243.485 288.863 243.535 288.655C243.635 288.24 244.193 287.651 245.211 286.886C245.817 286.373 246.289 285.96 246.627 285.646C246.966 285.333 247.18 284.989 247.27 284.616C247.436 284.656 247.654 284.752 247.924 284.905C248.195 285.058 248.475 285.169 248.766 285.239C248.89 285.269 248.998 285.185 249.089 284.987C249.191 284.748 249.288 284.618 249.381 284.597C249.743 284.552 250.421 284.649 251.417 284.888C252.381 285.076 253.117 285.209 253.625 285.287C254.143 285.324 254.447 285.243 254.539 285.046C254.132 284.729 253.726 284.5 253.321 284.358C252.927 284.176 252.397 284.005 251.733 283.845C248.912 283.168 246.526 283.604 244.574 285.153C242.663 286.713 241.359 288.944 240.662 291.849L242.653 292.327L242.563 292.7L239.708 294.45L239.424 295.632L240.275 295.376L239.244 296.379L239.852 296.591ZM245.21 290.177C245.318 290.641 246.451 291.221 248.61 291.915C250.82 292.578 252.672 293.088 254.166 293.447C254.913 293.626 255.928 293.783 257.213 293.916C258.414 294.029 259.388 294.175 260.135 294.354C260.185 294.147 260.139 293.697 259.998 293.005C259.867 292.272 259.719 291.885 259.553 291.845L259.414 291.877C259.333 290.936 258.574 289.986 257.137 289.027C255.741 288.077 254.504 287.473 253.425 287.214C251.766 286.815 250.219 286.86 248.785 287.35C247.351 287.839 246.16 288.781 245.21 290.177ZM262.258 295.654C262.109 296.277 261.802 296.642 261.337 296.749C260.882 296.816 260.261 296.754 259.472 296.565C258.799 296.447 258.281 296.41 257.919 296.455C257.557 296.5 257.327 296.729 257.227 297.144C258.596 297.473 259.685 297.691 260.493 297.797C261.301 297.904 261.838 297.769 262.103 297.394C262.231 297.776 262.482 298.012 262.855 298.101C262.935 297.769 262.937 297.397 262.86 296.984C262.836 296.539 262.848 296.213 262.898 296.005C262.938 295.839 263.056 295.714 263.251 295.63C263.489 295.555 263.669 295.445 263.792 295.299C263.956 295.163 264.098 294.846 264.218 294.348C264.606 292.73 264.323 291.806 263.369 291.577C262.954 291.477 262.655 291.537 262.471 291.756C262.338 291.944 262.197 292.348 262.047 292.971C262.175 294.449 262.265 295.261 262.318 295.405L262.258 295.654ZM245.215 292.35C244.841 292.26 244.474 292.326 244.114 292.546C243.796 292.777 243.591 293.079 243.502 293.452C244.041 293.582 244.419 293.563 244.634 293.395C244.892 293.238 245.085 292.889 245.215 292.35ZM246.262 293.194C246.179 293.174 245.886 293.301 245.381 293.575C244.918 293.858 244.527 294.115 244.208 294.346L245.575 294.411C245.658 294.431 245.938 294.454 246.414 294.481C246.942 294.476 247.587 294.346 248.351 294.091C248.236 294.019 247.623 293.74 246.511 293.254L246.262 293.194ZM248.171 294.837C248.931 295.327 249.622 295.647 250.245 295.796C250.618 295.886 250.959 295.836 251.268 295.647C251.618 295.468 251.838 295.192 251.928 294.818C249.853 294.32 248.601 294.326 248.171 294.837ZM254.173 295.884C253.592 295.745 252.991 295.688 252.371 295.714C251.801 295.709 251.472 295.893 251.382 296.267L251.4 296.468C251.483 296.488 252.219 296.621 253.608 296.867C255.048 297.082 255.942 296.923 256.289 296.392L254.546 295.974L254.173 295.884ZM241.148 297.494C240.36 297.305 239.832 297.31 239.565 297.509C239.308 297.667 239.08 298.16 238.88 298.99C239.378 299.11 239.838 299.023 240.259 298.729C240.733 298.404 241.029 297.992 241.148 297.494ZM241.188 298.425C241.075 298.53 240.767 298.807 240.264 299.257C239.813 299.675 239.527 300.133 239.408 300.631C240.611 300.92 241.439 300.943 241.892 300.701C241.837 300.38 241.71 299.999 241.509 299.556C241.318 299.071 241.211 298.694 241.188 298.425ZM239.604 301.731C239.782 301.905 239.888 302.194 239.923 302.597C239.967 302.959 239.986 303.249 239.977 303.466C241.051 303.197 241.717 302.524 241.977 301.445C240.815 301.166 240.024 301.261 239.604 301.731ZM241.879 305.963C242.556 305.336 242.919 304.919 242.969 304.711L242.952 304.51L240.786 303.66L240.276 303.867L241.879 305.963ZM242.473 306.501C242.495 306.594 242.537 306.692 242.6 306.795C242.673 306.856 242.746 306.918 242.819 306.979C243.213 306.986 243.672 306.899 244.198 306.718C244.725 306.537 245.003 306.385 245.032 306.26C245.082 306.053 245.039 305.867 244.903 305.702C244.818 305.507 244.735 305.399 244.652 305.379C244.278 305.289 243.839 305.381 243.335 305.655C242.84 305.887 242.553 306.169 242.473 306.501ZM243.76 307.995C244.623 308.422 245.107 308.691 245.211 308.804C245.369 309.061 245.468 309.195 245.51 309.205C246.132 309.355 246.716 309.297 247.262 309.034C247.86 308.738 248.228 308.3 248.368 307.72C246.791 307.341 245.958 307.338 245.869 307.712C245.898 307.587 245.855 307.401 245.739 307.154C245.665 306.917 245.586 306.788 245.503 306.768C245.42 306.748 245.1 306.891 244.544 307.196C244.04 307.47 243.773 307.669 243.743 307.793L243.76 307.995ZM247.887 309.447C248.045 309.704 248.144 309.838 248.186 309.848C248.891 310.017 249.741 310.134 250.735 310.197C251.729 310.26 252.355 310.301 252.614 310.319C254.436 310.406 255.617 310.514 256.156 310.644L256.828 311.134C257.326 311.254 257.807 311.26 258.272 311.152C258.737 311.044 259.024 310.762 259.134 310.306C258.304 310.106 257.144 310.003 255.654 309.996C255.436 309.988 255.064 309.986 254.536 309.991C254.008 309.996 253.511 309.964 253.045 309.896C252.215 309.697 251.313 309.524 250.339 309.378C249.416 309.2 248.758 309.108 248.365 309.101L247.887 309.447ZM277.488 315.044C278.247 315.534 278.598 315.903 278.538 316.152C278.478 316.401 277.922 317.254 276.869 318.713C276.317 319.37 276.025 319.761 275.995 319.885L275.112 320.002L275.231 319.504C274.733 319.385 274.272 319.296 273.847 319.238C273.422 319.179 273.023 319.105 272.65 319.016C272.069 318.876 271.643 318.642 271.371 318.313C271.13 318.036 271.094 317.545 271.264 316.84C270.185 316.581 269.471 315.992 269.121 315.074C268.771 314.157 268.495 312.84 268.293 311.124C268.899 307.32 269.609 303.454 270.421 299.524C271.285 295.563 272.355 290.927 273.63 285.617L274.587 281.634C275.454 278.025 276.327 275.031 277.205 272.653C278 272.449 278.952 272.415 280.06 272.549C280.236 272.548 280.625 272.575 281.225 272.632C281.836 272.647 282.4 272.585 282.916 272.445L283.117 272.428C283.491 272.518 283.623 272.791 283.513 273.247C282.716 276.566 281.385 281.556 279.522 288.217C278.569 291.454 277.642 294.764 276.742 298.146C276.523 299.059 276.141 300.284 275.596 301.82C275.475 302.142 275.329 302.568 275.158 303.097C274.986 303.626 274.811 304.265 274.632 305.011C273.984 307.708 273.798 309.945 274.073 311.722C274.358 313.458 275.496 314.565 277.488 315.044ZM280.764 274.825C279.686 274.566 278.916 274.666 278.454 275.125C278.003 275.544 277.633 276.354 277.344 277.557L278.215 277.767C278.195 277.849 278.201 277.917 278.232 277.968C278.264 278.02 278.274 278.066 278.264 278.108C278.245 278.191 278.116 278.269 277.879 278.344C277.693 278.387 277.538 278.394 277.413 278.364L276.86 280.666C277.024 280.53 277.353 280.258 277.846 279.85C278.39 279.41 278.73 279.185 278.864 279.173C278.793 279.288 278.645 279.537 278.421 279.922C278.207 280.266 277.935 280.574 277.607 280.846C277.648 280.856 277.726 280.896 277.841 280.968C277.965 280.998 278.11 281.032 278.276 281.072C278.899 281.222 279.24 281.172 279.299 280.923L280.764 274.825ZM273.795 293.423C273.87 293.661 274.239 293.859 274.903 294.019C274.739 294.155 274.538 294.26 274.301 294.335C274.073 294.368 273.882 294.432 273.728 294.526C273.574 294.621 273.467 294.792 273.407 295.041C273.327 295.373 273.33 295.725 273.416 296.097C273.503 296.469 273.491 296.883 273.381 297.339L274.813 297.683L275.291 295.691L274.544 295.512C275.202 294.968 275.675 294.094 275.964 292.891C276.024 292.642 276.041 292.295 276.016 291.851C275.991 291.406 276.009 291.059 276.069 290.81L276.816 289.344C277.335 288.46 277.71 287.54 277.939 286.586C277.927 286.452 277.895 286.312 277.842 286.168C277.799 285.982 277.746 285.838 277.683 285.735C277.543 286.316 277.225 286.546 276.727 286.427L276.321 286.197C276.641 286.143 276.873 286.001 277.016 285.772C277.158 285.543 277.275 285.242 277.364 284.868L278.298 285.093L278.851 282.79C278.532 283.021 278.095 283.289 277.539 283.594C277.034 283.868 276.741 283.994 276.658 283.975L276.486 283.867C277.483 283.186 278.186 282.543 278.595 281.939C278.138 281.829 277.626 281.772 277.056 281.767C276.497 281.72 276.173 281.883 276.083 282.257C275.854 283.211 275.819 283.905 275.978 284.338C276.137 284.771 276.212 285.008 276.202 285.05C276.182 285.133 275.978 285.435 275.589 285.956C275.211 286.435 274.987 286.82 274.917 287.111C275.01 287.089 275.129 287.052 275.273 286.999C275.469 286.914 275.629 286.887 275.753 286.917C275.836 286.937 275.904 287.019 275.957 287.163C276.02 287.266 276.047 287.338 276.037 287.38C275.883 287.474 275.688 287.647 275.452 287.897C275.216 288.148 275.058 288.351 274.976 288.507C274.917 288.756 274.98 288.947 275.168 289.08C275.407 289.181 275.542 289.257 275.574 289.309C275.087 289.324 274.717 289.586 274.463 290.095C274.251 290.615 274.065 291.206 273.905 291.87C274.237 291.95 274.527 291.932 274.774 291.815C275.031 291.658 275.201 291.589 275.284 291.609L275.456 291.716C275.252 292.018 274.955 292.342 274.565 292.687C274.216 293.042 273.96 293.287 273.795 293.423ZM274.71 298.382C274.13 298.243 273.675 298.309 273.346 298.581C273.018 298.853 272.774 299.321 272.614 299.985C272.717 299.922 272.959 299.827 273.341 299.699C273.764 299.581 274.068 299.413 274.252 299.194C274.478 298.985 274.631 298.714 274.71 298.382ZM270.657 313.337C270.865 313.387 271.218 313.011 271.718 312.21C272.218 311.408 272.507 310.842 272.587 310.51C272.687 310.095 272.689 309.81 272.595 309.656C272.542 309.512 272.349 309.399 272.017 309.32L273.527 303.035L273.243 302.571C273.575 302.651 273.936 301.882 274.324 300.264C273.909 300.164 273.46 300.298 272.977 300.665C272.504 300.99 272.213 301.381 272.103 301.837C272.093 301.878 272.136 301.976 272.23 302.131C272.376 302.253 272.444 302.336 272.434 302.377L271.971 302.661L271.328 305.337C271.599 305.489 271.679 305.794 271.57 306.25C271.5 306.541 271.328 306.982 271.054 307.575C270.789 307.95 270.596 308.386 270.476 308.884C270.367 309.34 270.47 309.826 270.785 310.34C271.1 310.855 271.223 311.257 271.153 311.547C271.123 311.672 270.944 311.87 270.615 312.142C270.296 312.373 270.071 312.582 269.938 312.769C269.979 312.779 270.089 312.872 270.266 313.046C270.444 313.22 270.574 313.317 270.657 313.337ZM274.993 317.209C275.044 317.177 275.147 317.114 275.301 317.02C275.497 316.935 275.615 316.81 275.655 316.644C275.675 316.561 275.393 316.274 274.809 315.783C274.225 315.291 273.803 314.948 273.542 314.754C273.418 314.724 273.19 314.757 272.86 314.854C272.54 314.908 272.214 314.896 271.882 314.816C272.016 314.805 272.191 314.715 272.407 314.547C272.664 314.39 272.819 314.295 272.87 314.264C272.94 313.973 272.927 313.663 272.83 313.333C272.776 313.012 272.639 312.76 272.42 312.576C272.295 312.546 272.028 312.745 271.618 313.173C271.26 313.57 271.009 313.882 270.866 314.111C270.657 314.983 271.011 315.792 271.929 316.539C272.846 317.286 273.741 317.764 274.612 317.973C274.861 318.033 275.108 317.917 275.354 317.625L274.993 317.209ZM281.315 334.459C283.823 334.798 285.181 334.532 285.391 333.661C285.1 333.591 284.821 333.568 284.552 333.591C284.283 333.614 284.102 333.636 284.009 333.658C283.544 333.766 283.105 333.77 282.69 333.67C282.15 333.541 281.921 333.31 282 332.978L285.394 318.852C285.493 318.437 285.541 317.966 285.536 317.438C285.583 316.879 285.621 316.537 285.651 316.412C285.8 315.79 286.077 314.913 286.48 313.781L287.247 311.135C287.526 309.974 287.698 308.984 287.763 308.166C288.087 306.269 288.374 304.802 288.623 303.765C289.141 301.608 289.471 300.326 289.612 299.922L289.251 299.506C289.424 299.152 289.617 298.716 289.829 298.196C290.042 297.677 290.213 297.236 290.345 296.872C290.365 296.789 290.404 295.987 290.462 294.465C290.711 293.428 291.052 292.83 291.486 292.671C291.919 292.511 292.737 292.576 293.94 292.865C294.687 293.045 295.18 293.185 295.419 293.286C295.658 293.388 295.851 293.588 295.998 293.886C296.146 294.185 296.295 294.572 296.444 295.046C297.982 294.67 299.558 294.412 301.171 294.273C302.836 294.103 304.27 294.162 305.473 294.451C309.663 295.457 312.646 297.469 314.423 300.484C316.241 303.51 316.672 307.014 315.715 310.997L315.057 313.735C314.41 316.432 313.697 318.301 312.92 319.343C312.461 319.979 311.588 320.778 310.304 321.742C309.06 322.716 307.79 323.53 306.492 324.183C305.194 324.837 304.172 325.074 303.425 324.895C304.681 324.231 305.315 323.879 305.325 323.837C305.335 323.796 305.319 323.77 305.277 323.76C305.194 323.74 304.601 323.927 303.497 324.32L301.409 325.069C301.244 325.205 301.1 325.258 300.975 325.228C300.851 325.198 300.622 325.055 300.289 324.799C299.945 324.585 299.649 324.448 299.4 324.389C298.778 324.239 298.117 324.431 297.418 324.966C297.138 324.854 296.041 324.306 294.128 323.32C294.062 322.865 293.737 322.48 293.155 322.164C292.582 321.807 292.089 321.579 291.674 321.479C291.466 321.43 291.14 321.417 290.695 321.442C290.302 321.435 290.095 321.473 290.076 321.556L287.116 333.878C287.205 334.601 287.155 335.357 286.966 336.145C286.906 336.394 286.524 336.522 285.821 336.529C285.107 336.577 284.045 336.431 282.634 336.092C281.929 335.923 281.395 335.773 281.031 335.641L281.315 334.459ZM294.424 299.893C294.53 300.181 294.77 300.371 295.143 300.46C296.014 300.67 296.872 300.569 297.717 300.157C298.614 299.714 299.606 299.053 300.695 298.174C301.394 297.64 301.923 297.262 302.283 297.042C302.695 296.789 303.051 296.677 303.351 296.706C303.341 296.747 303.249 296.857 303.075 297.034C302.901 297.212 302.804 297.342 302.784 297.425C302.764 297.508 302.77 297.663 302.803 297.891C302.888 298.086 302.946 298.21 302.978 298.261C303.494 298.122 303.933 298.03 304.294 297.985C305.174 297.977 305.901 297.691 306.475 297.127C306.193 296.84 305.912 296.641 305.632 296.529C305.403 296.387 305.06 296.26 304.604 296.151C303.193 295.812 302.002 295.745 301.031 295.951C300.061 296.157 299.015 296.673 297.895 297.501L298.004 297.593C298.129 297.623 298.289 297.596 298.485 297.511C298.722 297.437 298.954 297.383 299.182 297.35L299.199 297.551C299.129 297.842 298.842 298.124 298.337 298.397C297.843 298.63 297.147 298.879 296.249 299.146C295.197 299.508 294.588 299.757 294.424 299.893ZM308.516 297.946C308.35 297.907 308.165 297.95 307.959 298.076C307.794 298.212 307.687 298.384 307.637 298.591L308.944 298.905C308.994 298.698 308.977 298.496 308.892 298.3C308.849 298.114 308.724 297.996 308.516 297.946ZM291.928 295.212C291.92 295.43 291.949 295.766 292.015 296.22C292.091 296.634 292.187 296.876 292.301 296.947C292.6 296.8 292.909 296.611 293.227 296.38C293.587 296.159 293.783 295.987 293.812 295.862C293.872 295.613 293.715 295.356 293.34 295.091C293.016 294.793 292.751 294.62 292.543 294.57C292.45 294.592 292.322 294.67 292.157 294.807C292.034 294.953 291.958 295.088 291.928 295.212ZM293.887 297.197C293.348 297.067 292.759 297.233 292.122 297.694L293.678 298.068L293.887 297.197ZM293.183 308.349C292.586 311.014 292.857 313.448 293.995 315.652C295.184 317.825 297.127 319.235 299.824 319.883C301.193 320.212 302.385 320.366 303.399 320.347C304.413 320.327 305.268 319.962 305.965 319.252C305.851 319.181 305.788 319.078 305.776 318.943C305.775 318.767 305.794 318.596 305.834 318.43C305.883 318.223 305.97 318.046 306.093 317.9C306.267 317.723 306.458 317.659 306.665 317.709C306.755 317.335 307.035 316.898 307.507 316.397C307.568 316.324 307.691 316.178 307.875 315.959C308.07 315.698 308.197 315.444 308.256 315.195C308.306 314.987 308.314 314.682 308.279 314.279C308.254 313.834 308.267 313.508 308.316 313.301C308.346 313.176 308.448 313.025 308.623 312.848C308.839 312.68 308.972 312.58 309.024 312.549C309.054 312.424 308.9 312.058 308.563 311.451C308.227 310.844 308.078 310.457 308.118 310.291C308.158 310.125 308.27 309.932 308.454 309.713C308.69 309.463 308.818 309.296 308.838 309.213C308.785 309.069 308.709 308.743 308.611 308.237C308.513 307.731 308.48 307.416 308.509 307.291L308.764 306.233C308.853 305.86 308.856 305.575 308.771 305.38C308.697 305.142 308.549 304.844 308.328 304.483C307.879 303.98 307.724 303.439 307.863 302.858C307.49 302.768 307.011 302.478 306.427 301.986C305.853 301.453 305.461 301.074 305.252 300.848L302.798 300.654L302.902 300.218C302.654 300.158 302.338 300.192 301.957 300.32C301.616 300.458 301.271 300.616 300.921 300.795C300.015 301.28 299.354 301.472 298.939 301.372C298.773 301.332 298.654 301.282 298.581 301.22L297.072 302.569L296.699 302.48C296.408 302.41 295.784 303.181 294.826 304.794C293.92 306.376 293.372 307.56 293.183 308.349ZM313.143 303.073C312.853 303.003 312.609 303.011 312.414 303.095C312.218 303.18 312.018 303.373 311.813 303.675L312.545 303.917L312.732 303.962C313.313 304.101 313.685 304.015 313.847 303.703C313.773 303.466 313.678 303.311 313.564 303.24C313.491 303.178 313.35 303.123 313.143 303.073ZM292.571 302.673C292.573 302.849 292.663 303.112 292.842 303.462C293.073 303.781 293.261 304.001 293.407 304.124C293.738 304.028 294.056 303.71 294.361 303.169C294.718 302.596 294.979 302.242 295.143 302.106L293.587 301.732L294.05 301.448L293.878 301.341C293.63 301.282 293.352 301.434 293.044 301.799C292.789 302.133 292.631 302.424 292.571 302.673ZM310.991 307.098C310.932 307.347 311.151 307.531 311.648 307.65C313.183 308.019 314.031 307.872 314.19 307.208C314.21 307.125 314.203 306.97 314.17 306.742C314.179 306.525 314.13 306.36 314.026 306.247C313.437 306.325 312.791 306.455 312.089 306.637C311.387 306.82 311.021 306.973 310.991 307.098ZM289.716 302.777C289.749 303.004 289.845 303.246 290.002 303.504C290.211 303.729 290.378 303.857 290.502 303.887C290.585 303.907 290.714 303.828 290.888 303.651C291.063 303.473 291.17 303.302 291.21 303.136L289.716 302.777ZM310.992 313.943C311.014 314.036 311.207 314.236 311.572 314.543C311.947 314.809 312.187 314.998 312.292 315.111L312.478 315.156C312.686 315.206 312.945 314.764 313.258 313.829C313.621 312.864 313.873 312.09 314.012 311.509C314.092 311.178 314.094 310.805 314.018 310.392C313.983 309.988 313.841 309.757 313.592 309.697C312.975 310.075 312.459 310.303 312.046 310.379C311.684 310.424 311.431 310.472 311.287 310.526C311.142 310.579 311.04 310.73 310.981 310.979L313.034 311.472C313.024 311.513 313.02 311.622 313.022 311.798C313.033 311.932 313.014 312.103 312.964 312.311C312.894 312.601 312.623 312.909 312.15 313.234C311.718 313.569 311.333 313.806 310.992 313.943ZM290.912 307.935L291.286 308.025L291.465 307.278L290.912 307.935ZM289.702 311.33C289.144 311.459 288.748 311.649 288.512 311.9C288.328 312.119 288.176 312.477 288.056 312.975C288.624 312.804 289 312.609 289.184 312.39C289.41 312.181 289.582 311.828 289.702 311.33ZM310.618 318.79C311.247 318.546 311.656 318.03 311.846 317.242L311.918 316.667C311.649 316.69 311.277 316.776 310.803 316.925C310.338 317.033 309.972 317.187 309.705 317.386L310.618 318.79ZM289.149 313.633C290.684 314.001 291.516 313.916 291.646 313.377C291.675 313.252 291.679 313.056 291.656 312.787C291.674 312.528 291.6 312.378 291.434 312.339C291.31 312.309 291.17 312.341 291.016 312.436L289.149 313.633ZM289.051 314.86C288.678 314.77 288.331 314.753 288.011 314.807C287.701 314.82 287.525 314.91 287.486 315.076L287.503 315.278C287.596 315.256 287.839 315.249 288.232 315.255C288.677 315.231 289.012 315.114 289.238 314.905L289.051 314.86ZM291.929 317.131C292.053 317.161 292.177 317.102 292.299 316.956C292.422 316.81 292.494 316.696 292.514 316.613C292.5 316.303 292.384 316.055 292.165 315.871C291.956 315.645 291.748 315.508 291.541 315.458L291.929 317.131ZM309.858 320.582C309.724 320.594 309.642 320.662 309.612 320.786C309.562 320.994 309.559 321.19 309.602 321.376L310.528 320.809L309.858 320.582ZM288.506 317.954C287.762 318.126 287.213 318.675 286.86 319.599L287.903 319.915C288.525 320.065 288.891 319.911 289.001 319.455C289.05 319.248 289.022 318.999 288.916 318.711C288.82 318.38 288.683 318.128 288.506 317.954ZM301.332 323.47C301.755 323.353 302.002 323.149 302.071 322.858L300.764 322.544L301.332 323.47ZM299.39 323.333C299.201 323.024 298.965 322.726 298.683 322.439C298.401 322.152 298.115 321.974 297.825 321.904C297.244 321.764 296.812 322.012 296.528 322.645L299.39 323.333ZM294.994 321.356C294.082 321.136 293.539 321.203 293.366 321.557L294.86 321.916L294.994 321.356ZM286.501 321.092C286.679 321.267 286.8 321.493 286.864 321.772C286.96 322.102 287.056 322.345 287.15 322.499C287.235 322.695 287.418 322.848 287.698 322.96C288.11 322.708 288.385 322.291 288.525 321.71C287.819 321.541 287.444 321.275 287.4 320.913C287.358 320.903 287.059 320.963 286.501 321.092ZM284.288 331.948C284.32 331.999 284.367 332.077 284.43 332.179C284.493 332.282 284.561 332.364 284.634 332.426C285.422 332.615 285.871 332.482 285.981 332.025C286.101 331.528 286.189 330.978 286.245 330.378C286.343 329.787 286.427 329.346 286.497 329.056C286.65 327.688 286.806 326.673 286.965 326.009C287.195 325.055 286.853 324.468 285.94 324.249C285.774 324.209 285.573 324.226 285.335 324.301C285.13 324.427 284.98 324.501 284.887 324.522L286.007 324.791C285.75 324.949 285.509 325.132 285.283 325.341C285.099 325.56 284.992 325.732 284.962 325.857C284.965 326.209 285.058 326.735 285.24 327.437C285.413 328.181 285.515 328.578 285.546 328.63L285.036 328.836L284.288 331.948ZM328.149 320.698C329.841 317.857 331.028 315.29 331.711 312.996C332.134 312.879 333.067 311.918 334.509 310.114C334.703 309.854 335.016 309.468 335.445 308.957C335.885 308.405 336.275 307.971 336.613 307.658C336.675 307.585 337.219 307.145 338.246 306.339C339.203 305.647 339.947 305.014 340.48 304.44C341.023 303.824 341.414 303.019 341.653 302.023L341.742 301.65C341.822 301.318 341.82 301.054 341.735 300.858C341.702 300.631 341.529 300.436 341.217 300.273L341.758 299.942C341.675 299.922 341.534 299.779 341.335 299.511C341.177 299.254 341.108 299.084 341.128 299.001C340.567 297.682 339.506 296.527 337.945 295.538C336.435 294.517 335.203 293.892 334.249 293.662L329.359 295.384L328.807 296.041C328.626 295.515 328.259 295.032 327.707 294.592C327.32 294.192 327.037 293.817 326.858 293.467C326.72 293.127 326.726 292.645 326.876 292.023C327.115 291.027 327.942 290.326 329.356 289.92C330.77 289.514 332.305 289.334 333.961 289.381C335.669 289.396 336.979 289.513 337.891 289.733C341.335 290.56 343.988 292.119 345.851 294.409C347.766 296.668 348.32 299.478 347.512 302.838C347.184 304.207 346.34 305.892 344.982 307.891C343.676 309.859 342.64 310.883 341.875 310.962C340.642 311.895 338.789 313.578 336.318 316.012C335.385 316.973 334.446 317.866 333.502 318.692C333.545 318.878 333.532 319.116 333.462 319.407C333.352 319.863 333.116 320.114 332.755 320.158C333.027 320.487 333.149 320.89 333.123 321.366C333.138 321.852 333.145 322.095 333.145 322.095C332.986 322.759 331.91 322.852 329.919 322.373C329.338 322.234 328.897 322.062 328.595 321.858C328.303 321.612 328.154 321.225 328.149 320.698ZM328.524 292.287C328.404 292.785 328.558 293.239 328.986 293.649C329.079 293.627 329.152 293.601 329.203 293.569C329.306 293.506 329.383 293.459 329.435 293.427C330.162 292.593 331.244 292.107 332.681 291.969C334.118 291.832 335.625 291.953 337.201 292.331C337.865 292.491 338.317 292.621 338.556 292.722C339.248 292.581 339.676 292.443 339.84 292.307L337.194 291.54C336.24 291.31 335.339 291.226 334.491 291.285C333.694 291.313 332.66 291.416 331.389 291.593C330.563 291.746 329.632 291.873 328.598 291.976L328.524 292.287ZM340.574 292.812C339.726 292.872 339.228 293.213 339.078 293.835C339.908 294.035 340.397 293.823 340.547 293.201L340.574 292.812ZM342.068 293.171C341.611 293.062 341.173 293.242 340.753 293.711C340.333 294.181 340.059 294.685 339.929 295.224C340.966 295.474 342.378 295.352 344.163 294.859C343.845 293.993 343.146 293.43 342.068 293.171ZM338.691 309.144C338.652 309.31 338.669 309.512 338.744 309.749C338.86 309.997 339.048 310.217 339.309 310.412C339.64 310.491 340.166 310.223 340.884 309.605C341.603 308.988 342.177 308.424 342.607 307.913C343.867 306.504 344.691 305.452 345.077 304.755C345.464 304.058 345.792 303.149 346.061 302.029C346.31 300.992 346.385 300.132 346.286 299.45C346.228 298.778 346.029 297.962 345.689 297.003L345.241 295.579L345.346 295.143C344.828 295.107 344.23 295.314 343.551 295.765C342.914 296.227 342.54 296.685 342.43 297.142C342.371 297.391 342.45 297.607 342.669 297.792C342.888 297.976 343.164 298.108 343.496 298.187C343.911 298.287 344.382 298.335 344.91 298.33L343.458 299.166L343.413 299.352C343.383 299.477 343.442 299.689 343.59 299.987C343.737 300.286 343.894 300.455 344.06 300.495L344.386 300.508L344.177 301.379L345.076 301.2C344.911 301.336 344.2 302.196 342.942 303.781C342.758 304 342.594 304.224 342.451 304.453C342.309 304.682 342.186 304.828 342.083 304.891L342.414 305.431C341.725 305.924 340.914 306.651 339.981 307.611C339.048 308.572 338.618 309.083 338.691 309.144ZM342.525 295.651C342.235 295.581 341.945 295.599 341.657 295.705C341.409 295.821 341.251 296.025 341.181 296.315C341.679 296.435 342.21 296.233 342.774 295.71L342.525 295.651ZM337.78 311.295C337.116 311.136 336.614 311.125 336.274 311.262C335.975 311.41 335.672 311.666 335.365 312.031C335.068 312.355 334.781 312.637 334.504 312.878L335.111 313.089C335.733 313.239 336.4 313.202 337.112 312.978C337.876 312.722 338.337 312.263 338.497 311.599C338.606 311.142 338.504 310.745 338.191 310.406C337.919 310.078 337.534 309.854 337.036 309.734C336.956 310.066 336.964 310.397 337.061 310.727C337.208 311.026 337.448 311.215 337.78 311.295ZM335.985 313.562C335.137 313.622 334.547 313.7 334.217 313.796C333.928 313.902 333.672 314.148 333.448 314.533C333.275 314.886 333.074 315.54 332.845 316.494C332.928 316.514 333.38 316.184 334.202 315.504C335.033 314.782 335.593 314.28 335.88 313.998L335.985 313.562ZM325.28 327.709C325.35 327.419 326.484 327.538 328.683 328.066C329.803 328.335 330.473 328.65 330.694 329.01C330.915 329.37 330.997 329.851 330.94 330.451C330.884 331.052 330.841 331.503 330.813 331.803C330.763 332.01 330.737 332.487 330.733 333.232C330.73 333.977 330.668 334.598 330.548 335.096C330.051 334.977 329.407 334.734 328.617 334.369C327.817 334.045 327.256 333.823 326.934 333.702C325.749 333.154 325.053 332.855 324.846 332.805L324.264 331.941L325.28 327.709ZM329.297 332.36C329.407 331.904 329.345 331.428 329.113 330.934C328.932 330.408 328.634 330.095 328.22 329.995C328.012 329.945 327.702 329.959 327.289 330.035C326.917 330.121 326.606 330.134 326.358 330.074L326.103 331.132L327.286 331.416L327.181 331.852L329.297 332.36Z" fill="black"/>
<path d="M228 33C212.266 33 199.5 45.7656 199.5 61.5V156.5C199.5 172.234 212.266 185 228 185H313.5H323C328.255 185 332.5 180.755 332.5 175.5C332.5 170.245 328.255 166 323 166V147C328.255 147 332.5 142.755 332.5 137.5V42.5C332.5 37.2453 328.255 33 323 33H313.5H228ZM228 147H304V166H228C222.745 166 218.5 161.755 218.5 156.5C218.5 151.245 222.745 147 228 147ZM237.5 75.75C237.5 73.1375 239.637 71 242.25 71H299.25C301.863 71 304 73.1375 304 75.75C304 78.3625 301.863 80.5 299.25 80.5H242.25C239.637 80.5 237.5 78.3625 237.5 75.75ZM242.25 90H299.25C301.863 90 304 92.1375 304 94.75C304 97.3625 301.863 99.5 299.25 99.5H242.25C239.637 99.5 237.5 97.3625 237.5 94.75C237.5 92.1375 239.637 90 242.25 90Z" fill="black"/>
<path d="M373.246 304.02C376.671 309.199 386.138 308.395 390.484 308.657C406.155 309.6 424.925 307.208 439.446 296.162C453.609 285.389 452.533 252.697 453.689 233.452C454.589 218.475 454.129 194.954 444.889 185.422C439.49 179.853 434.407 178.508 427.833 178.069" stroke="black" stroke-width="7" stroke-linecap="round" stroke-dasharray="14 14"/>
<path d="M406.802 185.19C404.872 181.54 398.774 162.795 401.754 160.502C403.599 159.082 406.241 160.269 408.423 160.362C417.061 160.733 425.776 164.455 433.881 167.114" stroke="black" stroke-width="7" stroke-linecap="round"/>
<rect x="173" y="11" width="196" height="201" rx="25" stroke="black" stroke-width="8"/>
</svg>
