<svg width="1920" height="2723" viewBox="0 0 1920 2723" fill="none" xmlns="http://www.w3.org/2000/svg">
<g clip-path="url(#clip0_146_13)">
<rect width="1920" height="2723" fill="white"/>
<g clip-path="url(#clip1_146_13)">
<g clip-path="url(#clip2_146_13)">
<g opacity="0.1">
<path d="M0 0H1920V1H0V0Z" fill="black"/>
<path d="M0 100H1920V101H0V100Z" fill="black"/>
<path d="M0 200H1920V201H0V200Z" fill="black"/>
<path d="M0 300H1920V301H0V300Z" fill="black"/>
<path d="M0 400H1920V401H0V400Z" fill="black"/>
<path d="M0 500H1920V501H0V500Z" fill="black"/>
<path d="M0 600H1920V601H0V600Z" fill="black"/>
<path d="M0 700H1920V701H0V700Z" fill="black"/>
<path d="M0 800H1920V801H0V800Z" fill="black"/>
<path d="M0 900H1920V901H0V900Z" fill="black"/>
<path d="M0 1000H1920V1001H0V1000Z" fill="black"/>
<path d="M0 1100H1920V1101H0V1100Z" fill="black"/>
<path d="M0 1200H1920V1201H0V1200Z" fill="black"/>
<path d="M0 1300H1920V1301H0V1300Z" fill="black"/>
<path d="M0 1400H1920V1401H0V1400Z" fill="black"/>
<path d="M0 1500H1920V1501H0V1500Z" fill="black"/>
<path d="M0 1600H1920V1601H0V1600Z" fill="black"/>
<path d="M0 1700H1920V1701H0V1700Z" fill="black"/>
<path d="M0 1800H1920V1801H0V1800Z" fill="black"/>
<path d="M0 1900H1920V1901H0V1900Z" fill="black"/>
<path d="M0 2000H1920V2001H0V2000Z" fill="black"/>
<path d="M0 2100H1920V2101H0V2100Z" fill="black"/>
<path d="M0 2200H1920V2201H0V2200Z" fill="black"/>
<path d="M0 2300H1920V2301H0V2300Z" fill="black"/>
<path d="M0 2400H1920V2401H0V2400Z" fill="black"/>
<path d="M0 2500H1920V2501H0V2500Z" fill="black"/>
<path d="M0 2600H1920V2601H0V2600Z" fill="black"/>
<path d="M0 2700H1920V2701H0V2700Z" fill="black"/>
<path d="M0 0H1V2723H0V0Z" fill="black"/>
<path d="M100 0H101V2723H100V0Z" fill="black"/>
<path d="M200 0H201V2723H200V0Z" fill="black"/>
<path d="M300 0H301V2723H300V0Z" fill="black"/>
<path d="M400 0H401V2723H400V0Z" fill="black"/>
<path d="M500 0H501V2723H500V0Z" fill="black"/>
<path d="M600 0H601V2723H600V0Z" fill="black"/>
<path d="M700 0H701V2723H700V0Z" fill="black"/>
<path d="M800 0H801V2723H800V0Z" fill="black"/>
<path d="M900 0H901V2723H900V0Z" fill="black"/>
<path d="M1000 0H1001V2723H1000V0Z" fill="black"/>
<path d="M1100 0H1101V2723H1100V0Z" fill="black"/>
<path d="M1200 0H1201V2723H1200V0Z" fill="black"/>
<path d="M1300 0H1301V2723H1300V0Z" fill="black"/>
<path d="M1400 0H1401V2723H1400V0Z" fill="black"/>
<path d="M1500 0H1501V2723H1500V0Z" fill="black"/>
<path d="M1600 0H1601V2723H1600V0Z" fill="black"/>
<path d="M1700 0H1701V2723H1700V0Z" fill="black"/>
<path d="M1800 0H1801V2723H1800V0Z" fill="black"/>
<path d="M1900 0H1901V2723H1900V0Z" fill="black"/>
</g>
</g>
</g>
</g>
<defs>
<clipPath id="clip0_146_13">
<rect width="1920" height="2723" fill="white"/>
</clipPath>
<clipPath id="clip1_146_13">
<rect width="1920" height="2723" fill="white"/>
</clipPath>
<clipPath id="clip2_146_13">
<rect width="1920" height="2723" fill="white"/>
</clipPath>
</defs>
</svg>
