<?xml version="1.0" standalone="no"?>
 <!DOCTYPE svg PUBLIC "-//W3C//DTD SVG 1.1//EN" 
 "http://www.w3.org/Graphics/SVG/1.1/DTD/svg11.dtd"> 
<svg
  xmlns:svg="http://www.w3.org/2000/svg"
  xmlns="http://www.w3.org/2000/svg"
  xmlns:xlink="http://www.w3.org/1999/xlink"
  version="1.1"
  width="297.0022mm" height="210.0072mm" viewBox="0.0000 0.0000 297.0022 210.0072">
<title>SVG Image created as hackpack-brd.svg date 2025/02/01 22:47:01 </title>
  <desc>Image generated by PCBNEW </desc>
<g style="fill:#000000; fill-opacity:1.0000;stroke:#000000; stroke-opacity:1.0000;
stroke-linecap:round; stroke-linejoin:round;"
 transform="translate(0 0) scale(1 1)">
</g>
<g style="fill:none; 
stroke:#000000; stroke-width:0.1500; stroke-opacity:1; 
stroke-linecap:round; stroke-linejoin:round;">
<path d="M177.0022 166.0072
L285.0022 166.0072
L285.0022 198.0072
L177.0022 198.0072
L177.0022 166.0072
" />
</g>
<g style="fill:none; 
stroke:#000000; stroke-width:0.1500; stroke-opacity:1; 
stroke-linecap:round; stroke-linejoin:round;">
<path d="M10.0000 10.0000
L287.0022 10.0000
L287.0022 200.0072
L10.0000 200.0072
L10.0000 10.0000
" />
</g>
<g style="fill:none; 
stroke:#000000; stroke-width:0.1500; stroke-opacity:1; 
stroke-linecap:round; stroke-linejoin:round;">
<path d="M12.0000 12.0000
L285.0022 12.0000
L285.0022 198.0072
L12.0000 198.0072
L12.0000 12.0000
" />
</g>
<g style="fill:none; 
stroke:#000000; stroke-width:0.1500; stroke-opacity:1; 
stroke-linecap:round; stroke-linejoin:round;">
<path d="M60.0000 12.0000
L60.0000 10.0000
" />
</g>
<g style="fill:none; 
stroke:#000000; stroke-width:0.1500; stroke-opacity:1; 
stroke-linecap:round; stroke-linejoin:round;">
<path d="M110.0000 12.0000
L110.0000 10.0000
" />
</g>
<g style="fill:none; 
stroke:#000000; stroke-width:0.1500; stroke-opacity:1; 
stroke-linecap:round; stroke-linejoin:round;">
<path d="M160.0000 12.0000
L160.0000 10.0000
" />
</g>
<g style="fill:none; 
stroke:#000000; stroke-width:0.1500; stroke-opacity:1; 
stroke-linecap:round; stroke-linejoin:round;">
<path d="M210.0000 12.0000
L210.0000 10.0000
" />
</g>
<g style="fill:none; 
stroke:#000000; stroke-width:0.1500; stroke-opacity:1; 
stroke-linecap:round; stroke-linejoin:round;">
<path d="M260.0000 12.0000
L260.0000 10.0000
" />
</g>
<g style="fill:none; 
stroke:#000000; stroke-width:0.1500; stroke-opacity:1; 
stroke-linecap:round; stroke-linejoin:round;">
<text x="35.0000" y="11.6500"
textLength="1.4281" font-size="1.7333" lengthAdjust="spacingAndGlyphs"
text-anchor="start" opacity="0" stroke-opacity="0">1</text>
<g class="stroked-text"><desc>1</desc>
<path d="M36.0892 11.5936
L35.3463 11.5936
" />
<path d="M35.7177 11.5936
L35.7177 10.2936
" />
<path d="M35.7177 10.2936
L35.5939 10.4793
" />
<path d="M35.5939 10.4793
L35.4701 10.6031
" />
<path d="M35.4701 10.6031
L35.3463 10.6650
" />
</g></g>
<g style="fill:none; 
stroke:#000000; stroke-width:0.1500; stroke-opacity:1; 
stroke-linecap:round; stroke-linejoin:round;">
<text x="85.0000" y="11.6500"
textLength="1.4281" font-size="1.7333" lengthAdjust="spacingAndGlyphs"
text-anchor="start" opacity="0" stroke-opacity="0">2</text>
<g class="stroked-text"><desc>2</desc>
<path d="M85.3463 10.4174
L85.4082 10.3555
" />
<path d="M85.4082 10.3555
L85.5320 10.2936
" />
<path d="M85.5320 10.2936
L85.8415 10.2936
" />
<path d="M85.8415 10.2936
L85.9654 10.3555
" />
<path d="M85.9654 10.3555
L86.0273 10.4174
" />
<path d="M86.0273 10.4174
L86.0892 10.5412
" />
<path d="M86.0892 10.5412
L86.0892 10.6650
" />
<path d="M86.0892 10.6650
L86.0273 10.8507
" />
<path d="M86.0273 10.8507
L85.2844 11.5936
" />
<path d="M85.2844 11.5936
L86.0892 11.5936
" />
</g></g>
<g style="fill:none; 
stroke:#000000; stroke-width:0.1500; stroke-opacity:1; 
stroke-linecap:round; stroke-linejoin:round;">
<text x="135.0000" y="11.6500"
textLength="1.4281" font-size="1.7333" lengthAdjust="spacingAndGlyphs"
text-anchor="start" opacity="0" stroke-opacity="0">3</text>
<g class="stroked-text"><desc>3</desc>
<path d="M135.2844 10.2936
L136.0892 10.2936
" />
<path d="M136.0892 10.2936
L135.6558 10.7888
" />
<path d="M135.6558 10.7888
L135.8415 10.7888
" />
<path d="M135.8415 10.7888
L135.9654 10.8507
" />
<path d="M135.9654 10.8507
L136.0273 10.9127
" />
<path d="M136.0273 10.9127
L136.0892 11.0365
" />
<path d="M136.0892 11.0365
L136.0892 11.3460
" />
<path d="M136.0892 11.3460
L136.0273 11.4698
" />
<path d="M136.0273 11.4698
L135.9654 11.5317
" />
<path d="M135.9654 11.5317
L135.8415 11.5936
" />
<path d="M135.8415 11.5936
L135.4701 11.5936
" />
<path d="M135.4701 11.5936
L135.3463 11.5317
" />
<path d="M135.3463 11.5317
L135.2844 11.4698
" />
</g></g>
<g style="fill:none; 
stroke:#000000; stroke-width:0.1500; stroke-opacity:1; 
stroke-linecap:round; stroke-linejoin:round;">
<text x="185.0000" y="11.6500"
textLength="1.4281" font-size="1.7333" lengthAdjust="spacingAndGlyphs"
text-anchor="start" opacity="0" stroke-opacity="0">4</text>
<g class="stroked-text"><desc>4</desc>
<path d="M185.9654 10.7269
L185.9654 11.5936
" />
<path d="M185.6558 10.2317
L185.3463 11.1603
" />
<path d="M185.3463 11.1603
L186.1511 11.1603
" />
</g></g>
<g style="fill:none; 
stroke:#000000; stroke-width:0.1500; stroke-opacity:1; 
stroke-linecap:round; stroke-linejoin:round;">
<text x="235.0000" y="11.6500"
textLength="1.4281" font-size="1.7333" lengthAdjust="spacingAndGlyphs"
text-anchor="start" opacity="0" stroke-opacity="0">5</text>
<g class="stroked-text"><desc>5</desc>
<path d="M236.0273 10.2936
L235.4082 10.2936
" />
<path d="M235.4082 10.2936
L235.3463 10.9127
" />
<path d="M235.3463 10.9127
L235.4082 10.8507
" />
<path d="M235.4082 10.8507
L235.5320 10.7888
" />
<path d="M235.5320 10.7888
L235.8415 10.7888
" />
<path d="M235.8415 10.7888
L235.9654 10.8507
" />
<path d="M235.9654 10.8507
L236.0273 10.9127
" />
<path d="M236.0273 10.9127
L236.0892 11.0365
" />
<path d="M236.0892 11.0365
L236.0892 11.3460
" />
<path d="M236.0892 11.3460
L236.0273 11.4698
" />
<path d="M236.0273 11.4698
L235.9654 11.5317
" />
<path d="M235.9654 11.5317
L235.8415 11.5936
" />
<path d="M235.8415 11.5936
L235.5320 11.5936
" />
<path d="M235.5320 11.5936
L235.4082 11.5317
" />
<path d="M235.4082 11.5317
L235.3463 11.4698
" />
</g></g>
<g style="fill:none; 
stroke:#000000; stroke-width:0.1500; stroke-opacity:1; 
stroke-linecap:round; stroke-linejoin:round;">
<text x="285.0000" y="11.6500"
textLength="1.4281" font-size="1.7333" lengthAdjust="spacingAndGlyphs"
text-anchor="start" opacity="0" stroke-opacity="0">6</text>
<g class="stroked-text"><desc>6</desc>
<path d="M285.9654 10.2936
L285.7177 10.2936
" />
<path d="M285.7177 10.2936
L285.5939 10.3555
" />
<path d="M285.5939 10.3555
L285.5320 10.4174
" />
<path d="M285.5320 10.4174
L285.4082 10.6031
" />
<path d="M285.4082 10.6031
L285.3463 10.8507
" />
<path d="M285.3463 10.8507
L285.3463 11.3460
" />
<path d="M285.3463 11.3460
L285.4082 11.4698
" />
<path d="M285.4082 11.4698
L285.4701 11.5317
" />
<path d="M285.4701 11.5317
L285.5939 11.5936
" />
<path d="M285.5939 11.5936
L285.8415 11.5936
" />
<path d="M285.8415 11.5936
L285.9654 11.5317
" />
<path d="M285.9654 11.5317
L286.0273 11.4698
" />
<path d="M286.0273 11.4698
L286.0892 11.3460
" />
<path d="M286.0892 11.3460
L286.0892 11.0365
" />
<path d="M286.0892 11.0365
L286.0273 10.9127
" />
<path d="M286.0273 10.9127
L285.9654 10.8507
" />
<path d="M285.9654 10.8507
L285.8415 10.7888
" />
<path d="M285.8415 10.7888
L285.5939 10.7888
" />
<path d="M285.5939 10.7888
L285.4701 10.8507
" />
<path d="M285.4701 10.8507
L285.4082 10.9127
" />
<path d="M285.4082 10.9127
L285.3463 11.0365
" />
</g></g>
<g style="fill:none; 
stroke:#000000; stroke-width:0.1500; stroke-opacity:1; 
stroke-linecap:round; stroke-linejoin:round;">
<path d="M60.0000 198.0072
L60.0000 200.0072
" />
</g>
<g style="fill:none; 
stroke:#000000; stroke-width:0.1500; stroke-opacity:1; 
stroke-linecap:round; stroke-linejoin:round;">
<path d="M110.0000 198.0072
L110.0000 200.0072
" />
</g>
<g style="fill:none; 
stroke:#000000; stroke-width:0.1500; stroke-opacity:1; 
stroke-linecap:round; stroke-linejoin:round;">
<path d="M160.0000 198.0072
L160.0000 200.0072
" />
</g>
<g style="fill:none; 
stroke:#000000; stroke-width:0.1500; stroke-opacity:1; 
stroke-linecap:round; stroke-linejoin:round;">
<path d="M210.0000 198.0072
L210.0000 200.0072
" />
</g>
<g style="fill:none; 
stroke:#000000; stroke-width:0.1500; stroke-opacity:1; 
stroke-linecap:round; stroke-linejoin:round;">
<path d="M260.0000 198.0072
L260.0000 200.0072
" />
</g>
<g style="fill:none; 
stroke:#000000; stroke-width:0.1500; stroke-opacity:1; 
stroke-linecap:round; stroke-linejoin:round;">
<text x="35.0000" y="199.6572"
textLength="1.4281" font-size="1.7333" lengthAdjust="spacingAndGlyphs"
text-anchor="start" opacity="0" stroke-opacity="0">1</text>
<g class="stroked-text"><desc>1</desc>
<path d="M36.0892 199.6008
L35.3463 199.6008
" />
<path d="M35.7177 199.6008
L35.7177 198.3008
" />
<path d="M35.7177 198.3008
L35.5939 198.4865
" />
<path d="M35.5939 198.4865
L35.4701 198.6103
" />
<path d="M35.4701 198.6103
L35.3463 198.6722
" />
</g></g>
<g style="fill:none; 
stroke:#000000; stroke-width:0.1500; stroke-opacity:1; 
stroke-linecap:round; stroke-linejoin:round;">
<text x="85.0000" y="199.6572"
textLength="1.4281" font-size="1.7333" lengthAdjust="spacingAndGlyphs"
text-anchor="start" opacity="0" stroke-opacity="0">2</text>
<g class="stroked-text"><desc>2</desc>
<path d="M85.3463 198.4246
L85.4082 198.3627
" />
<path d="M85.4082 198.3627
L85.5320 198.3008
" />
<path d="M85.5320 198.3008
L85.8415 198.3008
" />
<path d="M85.8415 198.3008
L85.9654 198.3627
" />
<path d="M85.9654 198.3627
L86.0273 198.4246
" />
<path d="M86.0273 198.4246
L86.0892 198.5484
" />
<path d="M86.0892 198.5484
L86.0892 198.6722
" />
<path d="M86.0892 198.6722
L86.0273 198.8579
" />
<path d="M86.0273 198.8579
L85.2844 199.6008
" />
<path d="M85.2844 199.6008
L86.0892 199.6008
" />
</g></g>
<g style="fill:none; 
stroke:#000000; stroke-width:0.1500; stroke-opacity:1; 
stroke-linecap:round; stroke-linejoin:round;">
<text x="135.0000" y="199.6572"
textLength="1.4281" font-size="1.7333" lengthAdjust="spacingAndGlyphs"
text-anchor="start" opacity="0" stroke-opacity="0">3</text>
<g class="stroked-text"><desc>3</desc>
<path d="M135.2844 198.3008
L136.0892 198.3008
" />
<path d="M136.0892 198.3008
L135.6558 198.7960
" />
<path d="M135.6558 198.7960
L135.8415 198.7960
" />
<path d="M135.8415 198.7960
L135.9654 198.8579
" />
<path d="M135.9654 198.8579
L136.0273 198.9199
" />
<path d="M136.0273 198.9199
L136.0892 199.0437
" />
<path d="M136.0892 199.0437
L136.0892 199.3532
" />
<path d="M136.0892 199.3532
L136.0273 199.4770
" />
<path d="M136.0273 199.4770
L135.9654 199.5389
" />
<path d="M135.9654 199.5389
L135.8415 199.6008
" />
<path d="M135.8415 199.6008
L135.4701 199.6008
" />
<path d="M135.4701 199.6008
L135.3463 199.5389
" />
<path d="M135.3463 199.5389
L135.2844 199.4770
" />
</g></g>
<g style="fill:none; 
stroke:#000000; stroke-width:0.1500; stroke-opacity:1; 
stroke-linecap:round; stroke-linejoin:round;">
<text x="185.0000" y="199.6572"
textLength="1.4281" font-size="1.7333" lengthAdjust="spacingAndGlyphs"
text-anchor="start" opacity="0" stroke-opacity="0">4</text>
<g class="stroked-text"><desc>4</desc>
<path d="M185.9654 198.7341
L185.9654 199.6008
" />
<path d="M185.6558 198.2389
L185.3463 199.1675
" />
<path d="M185.3463 199.1675
L186.1511 199.1675
" />
</g></g>
<g style="fill:none; 
stroke:#000000; stroke-width:0.1500; stroke-opacity:1; 
stroke-linecap:round; stroke-linejoin:round;">
<text x="235.0000" y="199.6572"
textLength="1.4281" font-size="1.7333" lengthAdjust="spacingAndGlyphs"
text-anchor="start" opacity="0" stroke-opacity="0">5</text>
<g class="stroked-text"><desc>5</desc>
<path d="M236.0273 198.3008
L235.4082 198.3008
" />
<path d="M235.4082 198.3008
L235.3463 198.9199
" />
<path d="M235.3463 198.9199
L235.4082 198.8579
" />
<path d="M235.4082 198.8579
L235.5320 198.7960
" />
<path d="M235.5320 198.7960
L235.8415 198.7960
" />
<path d="M235.8415 198.7960
L235.9654 198.8579
" />
<path d="M235.9654 198.8579
L236.0273 198.9199
" />
<path d="M236.0273 198.9199
L236.0892 199.0437
" />
<path d="M236.0892 199.0437
L236.0892 199.3532
" />
<path d="M236.0892 199.3532
L236.0273 199.4770
" />
<path d="M236.0273 199.4770
L235.9654 199.5389
" />
<path d="M235.9654 199.5389
L235.8415 199.6008
" />
<path d="M235.8415 199.6008
L235.5320 199.6008
" />
<path d="M235.5320 199.6008
L235.4082 199.5389
" />
<path d="M235.4082 199.5389
L235.3463 199.4770
" />
</g></g>
<g style="fill:none; 
stroke:#000000; stroke-width:0.1500; stroke-opacity:1; 
stroke-linecap:round; stroke-linejoin:round;">
<text x="285.0000" y="199.6572"
textLength="1.4281" font-size="1.7333" lengthAdjust="spacingAndGlyphs"
text-anchor="start" opacity="0" stroke-opacity="0">6</text>
<g class="stroked-text"><desc>6</desc>
<path d="M285.9654 198.3008
L285.7177 198.3008
" />
<path d="M285.7177 198.3008
L285.5939 198.3627
" />
<path d="M285.5939 198.3627
L285.5320 198.4246
" />
<path d="M285.5320 198.4246
L285.4082 198.6103
" />
<path d="M285.4082 198.6103
L285.3463 198.8579
" />
<path d="M285.3463 198.8579
L285.3463 199.3532
" />
<path d="M285.3463 199.3532
L285.4082 199.4770
" />
<path d="M285.4082 199.4770
L285.4701 199.5389
" />
<path d="M285.4701 199.5389
L285.5939 199.6008
" />
<path d="M285.5939 199.6008
L285.8415 199.6008
" />
<path d="M285.8415 199.6008
L285.9654 199.5389
" />
<path d="M285.9654 199.5389
L286.0273 199.4770
" />
<path d="M286.0273 199.4770
L286.0892 199.3532
" />
<path d="M286.0892 199.3532
L286.0892 199.0437
" />
<path d="M286.0892 199.0437
L286.0273 198.9199
" />
<path d="M286.0273 198.9199
L285.9654 198.8579
" />
<path d="M285.9654 198.8579
L285.8415 198.7960
" />
<path d="M285.8415 198.7960
L285.5939 198.7960
" />
<path d="M285.5939 198.7960
L285.4701 198.8579
" />
<path d="M285.4701 198.8579
L285.4082 198.9199
" />
<path d="M285.4082 198.9199
L285.3463 199.0437
" />
</g></g>
<g style="fill:none; 
stroke:#000000; stroke-width:0.1500; stroke-opacity:1; 
stroke-linecap:round; stroke-linejoin:round;">
<path d="M10.0000 60.0000
L12.0000 60.0000
" />
</g>
<g style="fill:none; 
stroke:#000000; stroke-width:0.1500; stroke-opacity:1; 
stroke-linecap:round; stroke-linejoin:round;">
<path d="M10.0000 110.0000
L12.0000 110.0000
" />
</g>
<g style="fill:none; 
stroke:#000000; stroke-width:0.1500; stroke-opacity:1; 
stroke-linecap:round; stroke-linejoin:round;">
<path d="M10.0000 160.0000
L12.0000 160.0000
" />
</g>
<g style="fill:none; 
stroke:#000000; stroke-width:0.1500; stroke-opacity:1; 
stroke-linecap:round; stroke-linejoin:round;">
<text x="11.0000" y="35.6500"
textLength="1.3043" font-size="1.7333" lengthAdjust="spacingAndGlyphs"
text-anchor="middle" opacity="0" stroke-opacity="0">A</text>
<g class="stroked-text"><desc>A</desc>
<path d="M10.6905 35.2222
L11.3095 35.2222
" />
<path d="M10.5667 35.5936
L11.0000 34.2936
" />
<path d="M11.0000 34.2936
L11.4333 35.5936
" />
</g></g>
<g style="fill:none; 
stroke:#000000; stroke-width:0.1500; stroke-opacity:1; 
stroke-linecap:round; stroke-linejoin:round;">
<text x="11.0000" y="85.6500"
textLength="1.4900" font-size="1.7333" lengthAdjust="spacingAndGlyphs"
text-anchor="middle" opacity="0" stroke-opacity="0">B</text>
<g class="stroked-text"><desc>B</desc>
<path d="M11.0929 84.9127
L11.2786 84.9746
" />
<path d="M11.2786 84.9746
L11.3405 85.0365
" />
<path d="M11.3405 85.0365
L11.4024 85.1603
" />
<path d="M11.4024 85.1603
L11.4024 85.3460
" />
<path d="M11.4024 85.3460
L11.3405 85.4698
" />
<path d="M11.3405 85.4698
L11.2786 85.5317
" />
<path d="M11.2786 85.5317
L11.1548 85.5936
" />
<path d="M11.1548 85.5936
L10.6595 85.5936
" />
<path d="M10.6595 85.5936
L10.6595 84.2936
" />
<path d="M10.6595 84.2936
L11.0929 84.2936
" />
<path d="M11.0929 84.2936
L11.2167 84.3555
" />
<path d="M11.2167 84.3555
L11.2786 84.4174
" />
<path d="M11.2786 84.4174
L11.3405 84.5412
" />
<path d="M11.3405 84.5412
L11.3405 84.6650
" />
<path d="M11.3405 84.6650
L11.2786 84.7888
" />
<path d="M11.2786 84.7888
L11.2167 84.8507
" />
<path d="M11.2167 84.8507
L11.0929 84.9127
" />
<path d="M11.0929 84.9127
L10.6595 84.9127
" />
</g></g>
<g style="fill:none; 
stroke:#000000; stroke-width:0.1500; stroke-opacity:1; 
stroke-linecap:round; stroke-linejoin:round;">
<text x="11.0000" y="135.6500"
textLength="1.4900" font-size="1.7333" lengthAdjust="spacingAndGlyphs"
text-anchor="middle" opacity="0" stroke-opacity="0">C</text>
<g class="stroked-text"><desc>C</desc>
<path d="M11.4024 135.4698
L11.3405 135.5317
" />
<path d="M11.3405 135.5317
L11.1548 135.5936
" />
<path d="M11.1548 135.5936
L11.0310 135.5936
" />
<path d="M11.0310 135.5936
L10.8452 135.5317
" />
<path d="M10.8452 135.5317
L10.7214 135.4079
" />
<path d="M10.7214 135.4079
L10.6595 135.2841
" />
<path d="M10.6595 135.2841
L10.5976 135.0365
" />
<path d="M10.5976 135.0365
L10.5976 134.8507
" />
<path d="M10.5976 134.8507
L10.6595 134.6031
" />
<path d="M10.6595 134.6031
L10.7214 134.4793
" />
<path d="M10.7214 134.4793
L10.8452 134.3555
" />
<path d="M10.8452 134.3555
L11.0310 134.2936
" />
<path d="M11.0310 134.2936
L11.1548 134.2936
" />
<path d="M11.1548 134.2936
L11.3405 134.3555
" />
<path d="M11.3405 134.3555
L11.4024 134.4174
" />
</g></g>
<g style="fill:none; 
stroke:#000000; stroke-width:0.1500; stroke-opacity:1; 
stroke-linecap:round; stroke-linejoin:round;">
<text x="11.0000" y="185.6500"
textLength="1.4900" font-size="1.7333" lengthAdjust="spacingAndGlyphs"
text-anchor="middle" opacity="0" stroke-opacity="0">D</text>
<g class="stroked-text"><desc>D</desc>
<path d="M10.6595 185.5936
L10.6595 184.2936
" />
<path d="M10.6595 184.2936
L10.9690 184.2936
" />
<path d="M10.9690 184.2936
L11.1548 184.3555
" />
<path d="M11.1548 184.3555
L11.2786 184.4793
" />
<path d="M11.2786 184.4793
L11.3405 184.6031
" />
<path d="M11.3405 184.6031
L11.4024 184.8507
" />
<path d="M11.4024 184.8507
L11.4024 185.0365
" />
<path d="M11.4024 185.0365
L11.3405 185.2841
" />
<path d="M11.3405 185.2841
L11.2786 185.4079
" />
<path d="M11.2786 185.4079
L11.1548 185.5317
" />
<path d="M11.1548 185.5317
L10.9690 185.5936
" />
<path d="M10.9690 185.5936
L10.6595 185.5936
" />
</g></g>
<g style="fill:none; 
stroke:#000000; stroke-width:0.1500; stroke-opacity:1; 
stroke-linecap:round; stroke-linejoin:round;">
<path d="M287.0022 60.0000
L285.0022 60.0000
" />
</g>
<g style="fill:none; 
stroke:#000000; stroke-width:0.1500; stroke-opacity:1; 
stroke-linecap:round; stroke-linejoin:round;">
<path d="M287.0022 110.0000
L285.0022 110.0000
" />
</g>
<g style="fill:none; 
stroke:#000000; stroke-width:0.1500; stroke-opacity:1; 
stroke-linecap:round; stroke-linejoin:round;">
<path d="M287.0022 160.0000
L285.0022 160.0000
" />
</g>
<g style="fill:none; 
stroke:#000000; stroke-width:0.1500; stroke-opacity:1; 
stroke-linecap:round; stroke-linejoin:round;">
<text x="286.0022" y="35.6500"
textLength="1.3043" font-size="1.7333" lengthAdjust="spacingAndGlyphs"
text-anchor="middle" opacity="0" stroke-opacity="0">A</text>
<g class="stroked-text"><desc>A</desc>
<path d="M285.6927 35.2222
L286.3117 35.2222
" />
<path d="M285.5689 35.5936
L286.0022 34.2936
" />
<path d="M286.0022 34.2936
L286.4355 35.5936
" />
</g></g>
<g style="fill:none; 
stroke:#000000; stroke-width:0.1500; stroke-opacity:1; 
stroke-linecap:round; stroke-linejoin:round;">
<text x="286.0022" y="85.6500"
textLength="1.4900" font-size="1.7333" lengthAdjust="spacingAndGlyphs"
text-anchor="middle" opacity="0" stroke-opacity="0">B</text>
<g class="stroked-text"><desc>B</desc>
<path d="M286.0951 84.9127
L286.2808 84.9746
" />
<path d="M286.2808 84.9746
L286.3427 85.0365
" />
<path d="M286.3427 85.0365
L286.4046 85.1603
" />
<path d="M286.4046 85.1603
L286.4046 85.3460
" />
<path d="M286.4046 85.3460
L286.3427 85.4698
" />
<path d="M286.3427 85.4698
L286.2808 85.5317
" />
<path d="M286.2808 85.5317
L286.1570 85.5936
" />
<path d="M286.1570 85.5936
L285.6617 85.5936
" />
<path d="M285.6617 85.5936
L285.6617 84.2936
" />
<path d="M285.6617 84.2936
L286.0951 84.2936
" />
<path d="M286.0951 84.2936
L286.2189 84.3555
" />
<path d="M286.2189 84.3555
L286.2808 84.4174
" />
<path d="M286.2808 84.4174
L286.3427 84.5412
" />
<path d="M286.3427 84.5412
L286.3427 84.6650
" />
<path d="M286.3427 84.6650
L286.2808 84.7888
" />
<path d="M286.2808 84.7888
L286.2189 84.8507
" />
<path d="M286.2189 84.8507
L286.0951 84.9127
" />
<path d="M286.0951 84.9127
L285.6617 84.9127
" />
</g></g>
<g style="fill:none; 
stroke:#000000; stroke-width:0.1500; stroke-opacity:1; 
stroke-linecap:round; stroke-linejoin:round;">
<text x="286.0022" y="135.6500"
textLength="1.4900" font-size="1.7333" lengthAdjust="spacingAndGlyphs"
text-anchor="middle" opacity="0" stroke-opacity="0">C</text>
<g class="stroked-text"><desc>C</desc>
<path d="M286.4046 135.4698
L286.3427 135.5317
" />
<path d="M286.3427 135.5317
L286.1570 135.5936
" />
<path d="M286.1570 135.5936
L286.0332 135.5936
" />
<path d="M286.0332 135.5936
L285.8474 135.5317
" />
<path d="M285.8474 135.5317
L285.7236 135.4079
" />
<path d="M285.7236 135.4079
L285.6617 135.2841
" />
<path d="M285.6617 135.2841
L285.5998 135.0365
" />
<path d="M285.5998 135.0365
L285.5998 134.8507
" />
<path d="M285.5998 134.8507
L285.6617 134.6031
" />
<path d="M285.6617 134.6031
L285.7236 134.4793
" />
<path d="M285.7236 134.4793
L285.8474 134.3555
" />
<path d="M285.8474 134.3555
L286.0332 134.2936
" />
<path d="M286.0332 134.2936
L286.1570 134.2936
" />
<path d="M286.1570 134.2936
L286.3427 134.3555
" />
<path d="M286.3427 134.3555
L286.4046 134.4174
" />
</g></g>
<g style="fill:none; 
stroke:#000000; stroke-width:0.1500; stroke-opacity:1; 
stroke-linecap:round; stroke-linejoin:round;">
<text x="286.0022" y="185.6500"
textLength="1.4900" font-size="1.7333" lengthAdjust="spacingAndGlyphs"
text-anchor="middle" opacity="0" stroke-opacity="0">D</text>
<g class="stroked-text"><desc>D</desc>
<path d="M285.6617 185.5936
L285.6617 184.2936
" />
<path d="M285.6617 184.2936
L285.9712 184.2936
" />
<path d="M285.9712 184.2936
L286.1570 184.3555
" />
<path d="M286.1570 184.3555
L286.2808 184.4793
" />
<path d="M286.2808 184.4793
L286.3427 184.6031
" />
<path d="M286.3427 184.6031
L286.4046 184.8507
" />
<path d="M286.4046 184.8507
L286.4046 185.0365
" />
<path d="M286.4046 185.0365
L286.3427 185.2841
" />
<path d="M286.3427 185.2841
L286.2808 185.4079
" />
<path d="M286.2808 185.4079
L286.1570 185.5317
" />
<path d="M286.1570 185.5317
L285.9712 185.5936
" />
<path d="M285.9712 185.5936
L285.6617 185.5936
" />
</g></g>
<g style="fill:none; 
stroke:#000000; stroke-width:0.1500; stroke-opacity:1; 
stroke-linecap:round; stroke-linejoin:round;">
<text x="200.0022" y="193.8572"
textLength="7.0071" font-size="2.0000" lengthAdjust="spacingAndGlyphs"
text-anchor="start" opacity="0" stroke-opacity="0">Date: </text>
<g class="stroked-text"><desc>Date: </desc>
<path d="M200.4580 193.7933
L200.4580 192.2933
" />
<path d="M200.4580 192.2933
L200.8152 192.2933
" />
<path d="M200.8152 192.2933
L201.0295 192.3648
" />
<path d="M201.0295 192.3648
L201.1723 192.5076
" />
<path d="M201.1723 192.5076
L201.2437 192.6505
" />
<path d="M201.2437 192.6505
L201.3152 192.9362
" />
<path d="M201.3152 192.9362
L201.3152 193.1505
" />
<path d="M201.3152 193.1505
L201.2437 193.4362
" />
<path d="M201.2437 193.4362
L201.1723 193.5790
" />
<path d="M201.1723 193.5790
L201.0295 193.7219
" />
<path d="M201.0295 193.7219
L200.8152 193.7933
" />
<path d="M200.8152 193.7933
L200.4580 193.7933
" />
<path d="M202.6009 193.7933
L202.6009 193.0076
" />
<path d="M202.6009 193.0076
L202.5295 192.8648
" />
<path d="M202.5295 192.8648
L202.3866 192.7933
" />
<path d="M202.3866 192.7933
L202.1009 192.7933
" />
<path d="M202.1009 192.7933
L201.9580 192.8648
" />
<path d="M202.6009 193.7219
L202.4580 193.7933
" />
<path d="M202.4580 193.7933
L202.1009 193.7933
" />
<path d="M202.1009 193.7933
L201.9580 193.7219
" />
<path d="M201.9580 193.7219
L201.8866 193.5790
" />
<path d="M201.8866 193.5790
L201.8866 193.4362
" />
<path d="M201.8866 193.4362
L201.9580 193.2933
" />
<path d="M201.9580 193.2933
L202.1009 193.2219
" />
<path d="M202.1009 193.2219
L202.4580 193.2219
" />
<path d="M202.4580 193.2219
L202.6009 193.1505
" />
<path d="M203.1009 192.7933
L203.6723 192.7933
" />
<path d="M203.3152 192.2933
L203.3152 193.5790
" />
<path d="M203.3152 193.5790
L203.3866 193.7219
" />
<path d="M203.3866 193.7219
L203.5295 193.7933
" />
<path d="M203.5295 193.7933
L203.6723 193.7933
" />
<path d="M204.7437 193.7219
L204.6009 193.7933
" />
<path d="M204.6009 193.7933
L204.3152 193.7933
" />
<path d="M204.3152 193.7933
L204.1723 193.7219
" />
<path d="M204.1723 193.7219
L204.1009 193.5790
" />
<path d="M204.1009 193.5790
L204.1009 193.0076
" />
<path d="M204.1009 193.0076
L204.1723 192.8648
" />
<path d="M204.1723 192.8648
L204.3152 192.7933
" />
<path d="M204.3152 192.7933
L204.6009 192.7933
" />
<path d="M204.6009 192.7933
L204.7437 192.8648
" />
<path d="M204.7437 192.8648
L204.8152 193.0076
" />
<path d="M204.8152 193.0076
L204.8152 193.1505
" />
<path d="M204.8152 193.1505
L204.1009 193.2933
" />
<path d="M205.4580 193.6505
L205.5295 193.7219
" />
<path d="M205.5295 193.7219
L205.4580 193.7933
" />
<path d="M205.4580 193.7933
L205.3866 193.7219
" />
<path d="M205.3866 193.7219
L205.4580 193.6505
" />
<path d="M205.4580 193.6505
L205.4580 193.7933
" />
<path d="M205.4580 192.8648
L205.5295 192.9362
" />
<path d="M205.5295 192.9362
L205.4580 193.0076
" />
<path d="M205.4580 193.0076
L205.3866 192.9362
" />
<path d="M205.3866 192.9362
L205.4580 192.8648
" />
<path d="M205.4580 192.8648
L205.4580 193.0076
" />
</g></g>
<g style="fill:none; 
stroke:#000000; stroke-width:0.1500; stroke-opacity:1; 
stroke-linecap:round; stroke-linejoin:round;">
<path d="M177.0022 194.5072
L285.0022 194.5072
" />
</g>
<g style="fill:none; 
stroke:#000000; stroke-width:0.1500; stroke-opacity:1; 
stroke-linecap:round; stroke-linejoin:round;">
<text x="178.0022" y="196.6572"
textLength="20.8643" font-size="2.0000" lengthAdjust="spacingAndGlyphs"
text-anchor="start" opacity="0" stroke-opacity="0">KiCad E.D.A. 8.0.8</text>
<g class="stroked-text"><desc>KiCad E.D.A. 8.0.8</desc>
<path d="M178.4580 196.5933
L178.4580 195.0933
" />
<path d="M179.3152 196.5933
L178.6723 195.7362
" />
<path d="M179.3152 195.0933
L178.4580 195.9505
" />
<path d="M179.9580 196.5933
L179.9580 195.5933
" />
<path d="M179.9580 195.0933
L179.8866 195.1648
" />
<path d="M179.8866 195.1648
L179.9580 195.2362
" />
<path d="M179.9580 195.2362
L180.0295 195.1648
" />
<path d="M180.0295 195.1648
L179.9580 195.0933
" />
<path d="M179.9580 195.0933
L179.9580 195.2362
" />
<path d="M181.5295 196.4505
L181.4580 196.5219
" />
<path d="M181.4580 196.5219
L181.2437 196.5933
" />
<path d="M181.2437 196.5933
L181.1009 196.5933
" />
<path d="M181.1009 196.5933
L180.8866 196.5219
" />
<path d="M180.8866 196.5219
L180.7437 196.3790
" />
<path d="M180.7437 196.3790
L180.6723 196.2362
" />
<path d="M180.6723 196.2362
L180.6009 195.9505
" />
<path d="M180.6009 195.9505
L180.6009 195.7362
" />
<path d="M180.6009 195.7362
L180.6723 195.4505
" />
<path d="M180.6723 195.4505
L180.7437 195.3076
" />
<path d="M180.7437 195.3076
L180.8866 195.1648
" />
<path d="M180.8866 195.1648
L181.1009 195.0933
" />
<path d="M181.1009 195.0933
L181.2437 195.0933
" />
<path d="M181.2437 195.0933
L181.4580 195.1648
" />
<path d="M181.4580 195.1648
L181.5295 195.2362
" />
<path d="M182.8152 196.5933
L182.8152 195.8076
" />
<path d="M182.8152 195.8076
L182.7437 195.6648
" />
<path d="M182.7437 195.6648
L182.6009 195.5933
" />
<path d="M182.6009 195.5933
L182.3152 195.5933
" />
<path d="M182.3152 195.5933
L182.1723 195.6648
" />
<path d="M182.8152 196.5219
L182.6723 196.5933
" />
<path d="M182.6723 196.5933
L182.3152 196.5933
" />
<path d="M182.3152 196.5933
L182.1723 196.5219
" />
<path d="M182.1723 196.5219
L182.1009 196.3790
" />
<path d="M182.1009 196.3790
L182.1009 196.2362
" />
<path d="M182.1009 196.2362
L182.1723 196.0933
" />
<path d="M182.1723 196.0933
L182.3152 196.0219
" />
<path d="M182.3152 196.0219
L182.6723 196.0219
" />
<path d="M182.6723 196.0219
L182.8152 195.9505
" />
<path d="M184.1723 196.5933
L184.1723 195.0933
" />
<path d="M184.1723 196.5219
L184.0295 196.5933
" />
<path d="M184.0295 196.5933
L183.7437 196.5933
" />
<path d="M183.7437 196.5933
L183.6009 196.5219
" />
<path d="M183.6009 196.5219
L183.5295 196.4505
" />
<path d="M183.5295 196.4505
L183.4580 196.3076
" />
<path d="M183.4580 196.3076
L183.4580 195.8790
" />
<path d="M183.4580 195.8790
L183.5295 195.7362
" />
<path d="M183.5295 195.7362
L183.6009 195.6648
" />
<path d="M183.6009 195.6648
L183.7437 195.5933
" />
<path d="M183.7437 195.5933
L184.0295 195.5933
" />
<path d="M184.0295 195.5933
L184.1723 195.6648
" />
<path d="M186.0295 195.8076
L186.5295 195.8076
" />
<path d="M186.7437 196.5933
L186.0295 196.5933
" />
<path d="M186.0295 196.5933
L186.0295 195.0933
" />
<path d="M186.0295 195.0933
L186.7437 195.0933
" />
<path d="M187.3866 196.4505
L187.4580 196.5219
" />
<path d="M187.4580 196.5219
L187.3866 196.5933
" />
<path d="M187.3866 196.5933
L187.3152 196.5219
" />
<path d="M187.3152 196.5219
L187.3866 196.4505
" />
<path d="M187.3866 196.4505
L187.3866 196.5933
" />
<path d="M188.1009 196.5933
L188.1009 195.0933
" />
<path d="M188.1009 195.0933
L188.4580 195.0933
" />
<path d="M188.4580 195.0933
L188.6723 195.1648
" />
<path d="M188.6723 195.1648
L188.8152 195.3076
" />
<path d="M188.8152 195.3076
L188.8866 195.4505
" />
<path d="M188.8866 195.4505
L188.9580 195.7362
" />
<path d="M188.9580 195.7362
L188.9580 195.9505
" />
<path d="M188.9580 195.9505
L188.8866 196.2362
" />
<path d="M188.8866 196.2362
L188.8152 196.3790
" />
<path d="M188.8152 196.3790
L188.6723 196.5219
" />
<path d="M188.6723 196.5219
L188.4580 196.5933
" />
<path d="M188.4580 196.5933
L188.1009 196.5933
" />
<path d="M189.6009 196.4505
L189.6723 196.5219
" />
<path d="M189.6723 196.5219
L189.6009 196.5933
" />
<path d="M189.6009 196.5933
L189.5295 196.5219
" />
<path d="M189.5295 196.5219
L189.6009 196.4505
" />
<path d="M189.6009 196.4505
L189.6009 196.5933
" />
<path d="M190.2437 196.1648
L190.9580 196.1648
" />
<path d="M190.1009 196.5933
L190.6009 195.0933
" />
<path d="M190.6009 195.0933
L191.1009 196.5933
" />
<path d="M191.6009 196.4505
L191.6723 196.5219
" />
<path d="M191.6723 196.5219
L191.6009 196.5933
" />
<path d="M191.6009 196.5933
L191.5295 196.5219
" />
<path d="M191.5295 196.5219
L191.6009 196.4505
" />
<path d="M191.6009 196.4505
L191.6009 196.5933
" />
<path d="M193.6723 195.7362
L193.5295 195.6648
" />
<path d="M193.5295 195.6648
L193.4580 195.5933
" />
<path d="M193.4580 195.5933
L193.3866 195.4505
" />
<path d="M193.3866 195.4505
L193.3866 195.3790
" />
<path d="M193.3866 195.3790
L193.4580 195.2362
" />
<path d="M193.4580 195.2362
L193.5295 195.1648
" />
<path d="M193.5295 195.1648
L193.6723 195.0933
" />
<path d="M193.6723 195.0933
L193.9580 195.0933
" />
<path d="M193.9580 195.0933
L194.1009 195.1648
" />
<path d="M194.1009 195.1648
L194.1723 195.2362
" />
<path d="M194.1723 195.2362
L194.2437 195.3790
" />
<path d="M194.2437 195.3790
L194.2437 195.4505
" />
<path d="M194.2437 195.4505
L194.1723 195.5933
" />
<path d="M194.1723 195.5933
L194.1009 195.6648
" />
<path d="M194.1009 195.6648
L193.9580 195.7362
" />
<path d="M193.9580 195.7362
L193.6723 195.7362
" />
<path d="M193.6723 195.7362
L193.5295 195.8076
" />
<path d="M193.5295 195.8076
L193.4580 195.8790
" />
<path d="M193.4580 195.8790
L193.3866 196.0219
" />
<path d="M193.3866 196.0219
L193.3866 196.3076
" />
<path d="M193.3866 196.3076
L193.4580 196.4505
" />
<path d="M193.4580 196.4505
L193.5295 196.5219
" />
<path d="M193.5295 196.5219
L193.6723 196.5933
" />
<path d="M193.6723 196.5933
L193.9580 196.5933
" />
<path d="M193.9580 196.5933
L194.1009 196.5219
" />
<path d="M194.1009 196.5219
L194.1723 196.4505
" />
<path d="M194.1723 196.4505
L194.2437 196.3076
" />
<path d="M194.2437 196.3076
L194.2437 196.0219
" />
<path d="M194.2437 196.0219
L194.1723 195.8790
" />
<path d="M194.1723 195.8790
L194.1009 195.8076
" />
<path d="M194.1009 195.8076
L193.9580 195.7362
" />
<path d="M194.8866 196.4505
L194.9580 196.5219
" />
<path d="M194.9580 196.5219
L194.8866 196.5933
" />
<path d="M194.8866 196.5933
L194.8152 196.5219
" />
<path d="M194.8152 196.5219
L194.8866 196.4505
" />
<path d="M194.8866 196.4505
L194.8866 196.5933
" />
<path d="M195.8866 195.0933
L196.0295 195.0933
" />
<path d="M196.0295 195.0933
L196.1723 195.1648
" />
<path d="M196.1723 195.1648
L196.2437 195.2362
" />
<path d="M196.2437 195.2362
L196.3152 195.3790
" />
<path d="M196.3152 195.3790
L196.3866 195.6648
" />
<path d="M196.3866 195.6648
L196.3866 196.0219
" />
<path d="M196.3866 196.0219
L196.3152 196.3076
" />
<path d="M196.3152 196.3076
L196.2437 196.4505
" />
<path d="M196.2437 196.4505
L196.1723 196.5219
" />
<path d="M196.1723 196.5219
L196.0295 196.5933
" />
<path d="M196.0295 196.5933
L195.8866 196.5933
" />
<path d="M195.8866 196.5933
L195.7437 196.5219
" />
<path d="M195.7437 196.5219
L195.6723 196.4505
" />
<path d="M195.6723 196.4505
L195.6009 196.3076
" />
<path d="M195.6009 196.3076
L195.5295 196.0219
" />
<path d="M195.5295 196.0219
L195.5295 195.6648
" />
<path d="M195.5295 195.6648
L195.6009 195.3790
" />
<path d="M195.6009 195.3790
L195.6723 195.2362
" />
<path d="M195.6723 195.2362
L195.7437 195.1648
" />
<path d="M195.7437 195.1648
L195.8866 195.0933
" />
<path d="M197.0295 196.4505
L197.1009 196.5219
" />
<path d="M197.1009 196.5219
L197.0295 196.5933
" />
<path d="M197.0295 196.5933
L196.9580 196.5219
" />
<path d="M196.9580 196.5219
L197.0295 196.4505
" />
<path d="M197.0295 196.4505
L197.0295 196.5933
" />
<path d="M197.9580 195.7362
L197.8152 195.6648
" />
<path d="M197.8152 195.6648
L197.7437 195.5933
" />
<path d="M197.7437 195.5933
L197.6723 195.4505
" />
<path d="M197.6723 195.4505
L197.6723 195.3790
" />
<path d="M197.6723 195.3790
L197.7437 195.2362
" />
<path d="M197.7437 195.2362
L197.8152 195.1648
" />
<path d="M197.8152 195.1648
L197.9580 195.0933
" />
<path d="M197.9580 195.0933
L198.2437 195.0933
" />
<path d="M198.2437 195.0933
L198.3866 195.1648
" />
<path d="M198.3866 195.1648
L198.4580 195.2362
" />
<path d="M198.4580 195.2362
L198.5295 195.3790
" />
<path d="M198.5295 195.3790
L198.5295 195.4505
" />
<path d="M198.5295 195.4505
L198.4580 195.5933
" />
<path d="M198.4580 195.5933
L198.3866 195.6648
" />
<path d="M198.3866 195.6648
L198.2437 195.7362
" />
<path d="M198.2437 195.7362
L197.9580 195.7362
" />
<path d="M197.9580 195.7362
L197.8152 195.8076
" />
<path d="M197.8152 195.8076
L197.7437 195.8790
" />
<path d="M197.7437 195.8790
L197.6723 196.0219
" />
<path d="M197.6723 196.0219
L197.6723 196.3076
" />
<path d="M197.6723 196.3076
L197.7437 196.4505
" />
<path d="M197.7437 196.4505
L197.8152 196.5219
" />
<path d="M197.8152 196.5219
L197.9580 196.5933
" />
<path d="M197.9580 196.5933
L198.2437 196.5933
" />
<path d="M198.2437 196.5933
L198.3866 196.5219
" />
<path d="M198.3866 196.5219
L198.4580 196.4505
" />
<path d="M198.4580 196.4505
L198.5295 196.3076
" />
<path d="M198.5295 196.3076
L198.5295 196.0219
" />
<path d="M198.5295 196.0219
L198.4580 195.8790
" />
<path d="M198.4580 195.8790
L198.3866 195.8076
" />
<path d="M198.3866 195.8076
L198.2437 195.7362
" />
</g></g>
<g style="fill:none; 
stroke:#000000; stroke-width:0.1500; stroke-opacity:1; 
stroke-linecap:round; stroke-linejoin:round;">
<path d="M177.0022 191.5072
L285.0022 191.5072
" />
</g>
<g style="fill:none; 
stroke:#000000; stroke-width:0.3000; stroke-opacity:1; 
stroke-linecap:round; stroke-linejoin:round;">
<text x="263.0022" y="193.8572"
textLength="6.3857" font-size="2.0000" lengthAdjust="spacingAndGlyphs"
text-anchor="start" opacity="0" stroke-opacity="0">Rev: </text>
<g class="stroked-text"><desc>Rev: </desc>
<path d="M264.4139 193.7855
L263.9139 193.0712
" />
<path d="M263.5567 193.7855
L263.5567 192.2855
" />
<path d="M263.5567 192.2855
L264.1281 192.2855
" />
<path d="M264.1281 192.2855
L264.2710 192.3570
" />
<path d="M264.2710 192.3570
L264.3424 192.4284
" />
<path d="M264.3424 192.4284
L264.4139 192.5712
" />
<path d="M264.4139 192.5712
L264.4139 192.7855
" />
<path d="M264.4139 192.7855
L264.3424 192.9284
" />
<path d="M264.3424 192.9284
L264.2710 192.9998
" />
<path d="M264.2710 192.9998
L264.1281 193.0712
" />
<path d="M264.1281 193.0712
L263.5567 193.0712
" />
<path d="M265.6281 193.7141
L265.4853 193.7855
" />
<path d="M265.4853 193.7855
L265.1996 193.7855
" />
<path d="M265.1996 193.7855
L265.0567 193.7141
" />
<path d="M265.0567 193.7141
L264.9853 193.5712
" />
<path d="M264.9853 193.5712
L264.9853 192.9998
" />
<path d="M264.9853 192.9998
L265.0567 192.8570
" />
<path d="M265.0567 192.8570
L265.1996 192.7855
" />
<path d="M265.1996 192.7855
L265.4853 192.7855
" />
<path d="M265.4853 192.7855
L265.6281 192.8570
" />
<path d="M265.6281 192.8570
L265.6996 192.9998
" />
<path d="M265.6996 192.9998
L265.6996 193.1427
" />
<path d="M265.6996 193.1427
L264.9853 193.2855
" />
<path d="M266.1996 192.7855
L266.5567 193.7855
" />
<path d="M266.5567 193.7855
L266.9139 192.7855
" />
<path d="M267.4853 193.6427
L267.5567 193.7141
" />
<path d="M267.5567 193.7141
L267.4853 193.7855
" />
<path d="M267.4853 193.7855
L267.4139 193.7141
" />
<path d="M267.4139 193.7141
L267.4853 193.6427
" />
<path d="M267.4853 193.6427
L267.4853 193.7855
" />
<path d="M267.4853 192.8570
L267.5567 192.9284
" />
<path d="M267.5567 192.9284
L267.4853 192.9998
" />
<path d="M267.4853 192.9998
L267.4139 192.9284
" />
<path d="M267.4139 192.9284
L267.4853 192.8570
" />
<path d="M267.4853 192.8570
L267.4853 192.9998
" />
</g></g>
<g style="fill:none; 
stroke:#000000; stroke-width:0.1500; stroke-opacity:1; 
stroke-linecap:round; stroke-linejoin:round;">
<text x="178.0022" y="193.8572"
textLength="9.3643" font-size="2.0000" lengthAdjust="spacingAndGlyphs"
text-anchor="start" opacity="0" stroke-opacity="0">Size: A4</text>
<g class="stroked-text"><desc>Size: A4</desc>
<path d="M178.3866 193.7219
L178.6009 193.7933
" />
<path d="M178.6009 193.7933
L178.9580 193.7933
" />
<path d="M178.9580 193.7933
L179.1009 193.7219
" />
<path d="M179.1009 193.7219
L179.1723 193.6505
" />
<path d="M179.1723 193.6505
L179.2437 193.5076
" />
<path d="M179.2437 193.5076
L179.2437 193.3648
" />
<path d="M179.2437 193.3648
L179.1723 193.2219
" />
<path d="M179.1723 193.2219
L179.1009 193.1505
" />
<path d="M179.1009 193.1505
L178.9580 193.0790
" />
<path d="M178.9580 193.0790
L178.6723 193.0076
" />
<path d="M178.6723 193.0076
L178.5295 192.9362
" />
<path d="M178.5295 192.9362
L178.4580 192.8648
" />
<path d="M178.4580 192.8648
L178.3866 192.7219
" />
<path d="M178.3866 192.7219
L178.3866 192.5790
" />
<path d="M178.3866 192.5790
L178.4580 192.4362
" />
<path d="M178.4580 192.4362
L178.5295 192.3648
" />
<path d="M178.5295 192.3648
L178.6723 192.2933
" />
<path d="M178.6723 192.2933
L179.0295 192.2933
" />
<path d="M179.0295 192.2933
L179.2437 192.3648
" />
<path d="M179.8866 193.7933
L179.8866 192.7933
" />
<path d="M179.8866 192.2933
L179.8152 192.3648
" />
<path d="M179.8152 192.3648
L179.8866 192.4362
" />
<path d="M179.8866 192.4362
L179.9580 192.3648
" />
<path d="M179.9580 192.3648
L179.8866 192.2933
" />
<path d="M179.8866 192.2933
L179.8866 192.4362
" />
<path d="M180.4580 192.7933
L181.2437 192.7933
" />
<path d="M181.2437 192.7933
L180.4580 193.7933
" />
<path d="M180.4580 193.7933
L181.2437 193.7933
" />
<path d="M182.3866 193.7219
L182.2437 193.7933
" />
<path d="M182.2437 193.7933
L181.9580 193.7933
" />
<path d="M181.9580 193.7933
L181.8152 193.7219
" />
<path d="M181.8152 193.7219
L181.7437 193.5790
" />
<path d="M181.7437 193.5790
L181.7437 193.0076
" />
<path d="M181.7437 193.0076
L181.8152 192.8648
" />
<path d="M181.8152 192.8648
L181.9580 192.7933
" />
<path d="M181.9580 192.7933
L182.2437 192.7933
" />
<path d="M182.2437 192.7933
L182.3866 192.8648
" />
<path d="M182.3866 192.8648
L182.4580 193.0076
" />
<path d="M182.4580 193.0076
L182.4580 193.1505
" />
<path d="M182.4580 193.1505
L181.7437 193.2933
" />
<path d="M183.1009 193.6505
L183.1723 193.7219
" />
<path d="M183.1723 193.7219
L183.1009 193.7933
" />
<path d="M183.1009 193.7933
L183.0295 193.7219
" />
<path d="M183.0295 193.7219
L183.1009 193.6505
" />
<path d="M183.1009 193.6505
L183.1009 193.7933
" />
<path d="M183.1009 192.8648
L183.1723 192.9362
" />
<path d="M183.1723 192.9362
L183.1009 193.0076
" />
<path d="M183.1009 193.0076
L183.0295 192.9362
" />
<path d="M183.0295 192.9362
L183.1009 192.8648
" />
<path d="M183.1009 192.8648
L183.1009 193.0076
" />
<path d="M184.8866 193.3648
L185.6009 193.3648
" />
<path d="M184.7437 193.7933
L185.2437 192.2933
" />
<path d="M185.2437 192.2933
L185.7437 193.7933
" />
<path d="M186.8866 192.7933
L186.8866 193.7933
" />
<path d="M186.5295 192.2219
L186.1723 193.2933
" />
<path d="M186.1723 193.2933
L187.1009 193.2933
" />
</g></g>
<g style="fill:none; 
stroke:#000000; stroke-width:0.1500; stroke-opacity:1; 
stroke-linecap:round; stroke-linejoin:round;">
<text x="263.0022" y="196.6572"
textLength="8.5071" font-size="2.0000" lengthAdjust="spacingAndGlyphs"
text-anchor="start" opacity="0" stroke-opacity="0">Id: 1/1</text>
<g class="stroked-text"><desc>Id: 1/1</desc>
<path d="M263.4580 196.5933
L263.4580 195.0933
" />
<path d="M264.8152 196.5933
L264.8152 195.0933
" />
<path d="M264.8152 196.5219
L264.6723 196.5933
" />
<path d="M264.6723 196.5933
L264.3866 196.5933
" />
<path d="M264.3866 196.5933
L264.2437 196.5219
" />
<path d="M264.2437 196.5219
L264.1723 196.4505
" />
<path d="M264.1723 196.4505
L264.1009 196.3076
" />
<path d="M264.1009 196.3076
L264.1009 195.8790
" />
<path d="M264.1009 195.8790
L264.1723 195.7362
" />
<path d="M264.1723 195.7362
L264.2437 195.6648
" />
<path d="M264.2437 195.6648
L264.3866 195.5933
" />
<path d="M264.3866 195.5933
L264.6723 195.5933
" />
<path d="M264.6723 195.5933
L264.8152 195.6648
" />
<path d="M265.5295 196.4505
L265.6009 196.5219
" />
<path d="M265.6009 196.5219
L265.5295 196.5933
" />
<path d="M265.5295 196.5933
L265.4580 196.5219
" />
<path d="M265.4580 196.5219
L265.5295 196.4505
" />
<path d="M265.5295 196.4505
L265.5295 196.5933
" />
<path d="M265.5295 195.6648
L265.6009 195.7362
" />
<path d="M265.6009 195.7362
L265.5295 195.8076
" />
<path d="M265.5295 195.8076
L265.4580 195.7362
" />
<path d="M265.4580 195.7362
L265.5295 195.6648
" />
<path d="M265.5295 195.6648
L265.5295 195.8076
" />
<path d="M268.1723 196.5933
L267.3152 196.5933
" />
<path d="M267.7437 196.5933
L267.7437 195.0933
" />
<path d="M267.7437 195.0933
L267.6009 195.3076
" />
<path d="M267.6009 195.3076
L267.4580 195.4505
" />
<path d="M267.4580 195.4505
L267.3152 195.5219
" />
<path d="M269.8866 195.0219
L268.6009 196.9505
" />
<path d="M271.1723 196.5933
L270.3152 196.5933
" />
<path d="M270.7437 196.5933
L270.7437 195.0933
" />
<path d="M270.7437 195.0933
L270.6009 195.3076
" />
<path d="M270.6009 195.3076
L270.4580 195.4505
" />
<path d="M270.4580 195.4505
L270.3152 195.5219
" />
</g></g>
<g style="fill:none; 
stroke:#000000; stroke-width:0.1500; stroke-opacity:1; 
stroke-linecap:round; stroke-linejoin:round;">
<path d="M177.0022 187.5072
L285.0022 187.5072
" />
</g>
<g style="fill:none; 
stroke:#000000; stroke-width:0.4000; stroke-opacity:1; 
stroke-linecap:round; stroke-linejoin:round;">
<text x="178.0022" y="190.3072"
textLength="9.6571" font-size="2.6667" lengthAdjust="spacingAndGlyphs"
text-anchor="start" opacity="0" stroke-opacity="0">Title: </text>
<g class="stroked-text"><desc>Title: </desc>
<path d="M178.6939 188.2116
L179.8368 188.2116
" />
<path d="M179.0154 190.2116
L179.2654 188.2116
" />
<path d="M180.2535 190.2116
L180.4201 188.8783
" />
<path d="M180.5035 188.2116
L180.3963 188.3069
" />
<path d="M180.3963 188.3069
L180.4796 188.4021
" />
<path d="M180.4796 188.4021
L180.5868 188.3069
" />
<path d="M180.5868 188.3069
L180.5035 188.2116
" />
<path d="M180.5035 188.2116
L180.4796 188.4021
" />
<path d="M181.0868 188.8783
L181.8487 188.8783
" />
<path d="M181.4558 188.2116
L181.2415 189.9259
" />
<path d="M181.2415 189.9259
L181.3130 190.1164
" />
<path d="M181.3130 190.1164
L181.4915 190.2116
" />
<path d="M181.4915 190.2116
L181.6820 190.2116
" />
<path d="M182.6344 190.2116
L182.4558 190.1164
" />
<path d="M182.4558 190.1164
L182.3844 189.9259
" />
<path d="M182.3844 189.9259
L182.5987 188.2116
" />
<path d="M184.1701 190.1164
L183.9677 190.2116
" />
<path d="M183.9677 190.2116
L183.5868 190.2116
" />
<path d="M183.5868 190.2116
L183.4082 190.1164
" />
<path d="M183.4082 190.1164
L183.3368 189.9259
" />
<path d="M183.3368 189.9259
L183.4320 189.1640
" />
<path d="M183.4320 189.1640
L183.5511 188.9735
" />
<path d="M183.5511 188.9735
L183.7535 188.8783
" />
<path d="M183.7535 188.8783
L184.1344 188.8783
" />
<path d="M184.1344 188.8783
L184.3130 188.9735
" />
<path d="M184.3130 188.9735
L184.3844 189.1640
" />
<path d="M184.3844 189.1640
L184.3606 189.3545
" />
<path d="M184.3606 189.3545
L183.3844 189.5450
" />
<path d="M185.1344 190.0212
L185.2177 190.1164
" />
<path d="M185.2177 190.1164
L185.1106 190.2116
" />
<path d="M185.1106 190.2116
L185.0273 190.1164
" />
<path d="M185.0273 190.1164
L185.1344 190.0212
" />
<path d="M185.1344 190.0212
L185.1106 190.2116
" />
<path d="M185.2654 188.9735
L185.3487 189.0688
" />
<path d="M185.3487 189.0688
L185.2415 189.1640
" />
<path d="M185.2415 189.1640
L185.1582 189.0688
" />
<path d="M185.1582 189.0688
L185.2654 188.9735
" />
<path d="M185.2654 188.9735
L185.2415 189.1640
" />
</g></g>
<g style="fill:none; 
stroke:#000000; stroke-width:0.1500; stroke-opacity:1; 
stroke-linecap:round; stroke-linejoin:round;">
<text x="178.0022" y="186.4572"
textLength="28.2929" font-size="2.0000" lengthAdjust="spacingAndGlyphs"
text-anchor="start" opacity="0" stroke-opacity="0">File: hackpack.kicad_pcb</text>
<g class="stroked-text"><desc>File: hackpack.kicad_pcb</desc>
<path d="M178.9580 185.6076
L178.4580 185.6076
" />
<path d="M178.4580 186.3933
L178.4580 184.8933
" />
<path d="M178.4580 184.8933
L179.1723 184.8933
" />
<path d="M179.7437 186.3933
L179.7437 185.3933
" />
<path d="M179.7437 184.8933
L179.6723 184.9648
" />
<path d="M179.6723 184.9648
L179.7437 185.0362
" />
<path d="M179.7437 185.0362
L179.8152 184.9648
" />
<path d="M179.8152 184.9648
L179.7437 184.8933
" />
<path d="M179.7437 184.8933
L179.7437 185.0362
" />
<path d="M180.6723 186.3933
L180.5295 186.3219
" />
<path d="M180.5295 186.3219
L180.4580 186.1790
" />
<path d="M180.4580 186.1790
L180.4580 184.8933
" />
<path d="M181.8152 186.3219
L181.6723 186.3933
" />
<path d="M181.6723 186.3933
L181.3866 186.3933
" />
<path d="M181.3866 186.3933
L181.2437 186.3219
" />
<path d="M181.2437 186.3219
L181.1723 186.1790
" />
<path d="M181.1723 186.1790
L181.1723 185.6076
" />
<path d="M181.1723 185.6076
L181.2437 185.4648
" />
<path d="M181.2437 185.4648
L181.3866 185.3933
" />
<path d="M181.3866 185.3933
L181.6723 185.3933
" />
<path d="M181.6723 185.3933
L181.8152 185.4648
" />
<path d="M181.8152 185.4648
L181.8866 185.6076
" />
<path d="M181.8866 185.6076
L181.8866 185.7505
" />
<path d="M181.8866 185.7505
L181.1723 185.8933
" />
<path d="M182.5295 186.2505
L182.6009 186.3219
" />
<path d="M182.6009 186.3219
L182.5295 186.3933
" />
<path d="M182.5295 186.3933
L182.4580 186.3219
" />
<path d="M182.4580 186.3219
L182.5295 186.2505
" />
<path d="M182.5295 186.2505
L182.5295 186.3933
" />
<path d="M182.5295 185.4648
L182.6009 185.5362
" />
<path d="M182.6009 185.5362
L182.5295 185.6076
" />
<path d="M182.5295 185.6076
L182.4580 185.5362
" />
<path d="M182.4580 185.5362
L182.5295 185.4648
" />
<path d="M182.5295 185.4648
L182.5295 185.6076
" />
<path d="M184.3866 186.3933
L184.3866 184.8933
" />
<path d="M185.0295 186.3933
L185.0295 185.6076
" />
<path d="M185.0295 185.6076
L184.9580 185.4648
" />
<path d="M184.9580 185.4648
L184.8152 185.3933
" />
<path d="M184.8152 185.3933
L184.6009 185.3933
" />
<path d="M184.6009 185.3933
L184.4580 185.4648
" />
<path d="M184.4580 185.4648
L184.3866 185.5362
" />
<path d="M186.3866 186.3933
L186.3866 185.6076
" />
<path d="M186.3866 185.6076
L186.3152 185.4648
" />
<path d="M186.3152 185.4648
L186.1723 185.3933
" />
<path d="M186.1723 185.3933
L185.8866 185.3933
" />
<path d="M185.8866 185.3933
L185.7437 185.4648
" />
<path d="M186.3866 186.3219
L186.2437 186.3933
" />
<path d="M186.2437 186.3933
L185.8866 186.3933
" />
<path d="M185.8866 186.3933
L185.7437 186.3219
" />
<path d="M185.7437 186.3219
L185.6723 186.1790
" />
<path d="M185.6723 186.1790
L185.6723 186.0362
" />
<path d="M185.6723 186.0362
L185.7437 185.8933
" />
<path d="M185.7437 185.8933
L185.8866 185.8219
" />
<path d="M185.8866 185.8219
L186.2437 185.8219
" />
<path d="M186.2437 185.8219
L186.3866 185.7505
" />
<path d="M187.7437 186.3219
L187.6009 186.3933
" />
<path d="M187.6009 186.3933
L187.3152 186.3933
" />
<path d="M187.3152 186.3933
L187.1723 186.3219
" />
<path d="M187.1723 186.3219
L187.1009 186.2505
" />
<path d="M187.1009 186.2505
L187.0295 186.1076
" />
<path d="M187.0295 186.1076
L187.0295 185.6790
" />
<path d="M187.0295 185.6790
L187.1009 185.5362
" />
<path d="M187.1009 185.5362
L187.1723 185.4648
" />
<path d="M187.1723 185.4648
L187.3152 185.3933
" />
<path d="M187.3152 185.3933
L187.6009 185.3933
" />
<path d="M187.6009 185.3933
L187.7437 185.4648
" />
<path d="M188.3866 186.3933
L188.3866 184.8933
" />
<path d="M188.5295 185.8219
L188.9580 186.3933
" />
<path d="M188.9580 185.3933
L188.3866 185.9648
" />
<path d="M189.6009 185.3933
L189.6009 186.8933
" />
<path d="M189.6009 185.4648
L189.7437 185.3933
" />
<path d="M189.7437 185.3933
L190.0295 185.3933
" />
<path d="M190.0295 185.3933
L190.1723 185.4648
" />
<path d="M190.1723 185.4648
L190.2437 185.5362
" />
<path d="M190.2437 185.5362
L190.3152 185.6790
" />
<path d="M190.3152 185.6790
L190.3152 186.1076
" />
<path d="M190.3152 186.1076
L190.2437 186.2505
" />
<path d="M190.2437 186.2505
L190.1723 186.3219
" />
<path d="M190.1723 186.3219
L190.0295 186.3933
" />
<path d="M190.0295 186.3933
L189.7437 186.3933
" />
<path d="M189.7437 186.3933
L189.6009 186.3219
" />
<path d="M191.6009 186.3933
L191.6009 185.6076
" />
<path d="M191.6009 185.6076
L191.5295 185.4648
" />
<path d="M191.5295 185.4648
L191.3866 185.3933
" />
<path d="M191.3866 185.3933
L191.1009 185.3933
" />
<path d="M191.1009 185.3933
L190.9580 185.4648
" />
<path d="M191.6009 186.3219
L191.4580 186.3933
" />
<path d="M191.4580 186.3933
L191.1009 186.3933
" />
<path d="M191.1009 186.3933
L190.9580 186.3219
" />
<path d="M190.9580 186.3219
L190.8866 186.1790
" />
<path d="M190.8866 186.1790
L190.8866 186.0362
" />
<path d="M190.8866 186.0362
L190.9580 185.8933
" />
<path d="M190.9580 185.8933
L191.1009 185.8219
" />
<path d="M191.1009 185.8219
L191.4580 185.8219
" />
<path d="M191.4580 185.8219
L191.6009 185.7505
" />
<path d="M192.9580 186.3219
L192.8152 186.3933
" />
<path d="M192.8152 186.3933
L192.5295 186.3933
" />
<path d="M192.5295 186.3933
L192.3866 186.3219
" />
<path d="M192.3866 186.3219
L192.3152 186.2505
" />
<path d="M192.3152 186.2505
L192.2437 186.1076
" />
<path d="M192.2437 186.1076
L192.2437 185.6790
" />
<path d="M192.2437 185.6790
L192.3152 185.5362
" />
<path d="M192.3152 185.5362
L192.3866 185.4648
" />
<path d="M192.3866 185.4648
L192.5295 185.3933
" />
<path d="M192.5295 185.3933
L192.8152 185.3933
" />
<path d="M192.8152 185.3933
L192.9580 185.4648
" />
<path d="M193.6009 186.3933
L193.6009 184.8933
" />
<path d="M193.7437 185.8219
L194.1723 186.3933
" />
<path d="M194.1723 185.3933
L193.6009 185.9648
" />
<path d="M194.8152 186.2505
L194.8866 186.3219
" />
<path d="M194.8866 186.3219
L194.8152 186.3933
" />
<path d="M194.8152 186.3933
L194.7437 186.3219
" />
<path d="M194.7437 186.3219
L194.8152 186.2505
" />
<path d="M194.8152 186.2505
L194.8152 186.3933
" />
<path d="M195.5295 186.3933
L195.5295 184.8933
" />
<path d="M195.6723 185.8219
L196.1009 186.3933
" />
<path d="M196.1009 185.3933
L195.5295 185.9648
" />
<path d="M196.7437 186.3933
L196.7437 185.3933
" />
<path d="M196.7437 184.8933
L196.6723 184.9648
" />
<path d="M196.6723 184.9648
L196.7437 185.0362
" />
<path d="M196.7437 185.0362
L196.8152 184.9648
" />
<path d="M196.8152 184.9648
L196.7437 184.8933
" />
<path d="M196.7437 184.8933
L196.7437 185.0362
" />
<path d="M198.1009 186.3219
L197.9580 186.3933
" />
<path d="M197.9580 186.3933
L197.6723 186.3933
" />
<path d="M197.6723 186.3933
L197.5295 186.3219
" />
<path d="M197.5295 186.3219
L197.4580 186.2505
" />
<path d="M197.4580 186.2505
L197.3866 186.1076
" />
<path d="M197.3866 186.1076
L197.3866 185.6790
" />
<path d="M197.3866 185.6790
L197.4580 185.5362
" />
<path d="M197.4580 185.5362
L197.5295 185.4648
" />
<path d="M197.5295 185.4648
L197.6723 185.3933
" />
<path d="M197.6723 185.3933
L197.9580 185.3933
" />
<path d="M197.9580 185.3933
L198.1009 185.4648
" />
<path d="M199.3866 186.3933
L199.3866 185.6076
" />
<path d="M199.3866 185.6076
L199.3152 185.4648
" />
<path d="M199.3152 185.4648
L199.1723 185.3933
" />
<path d="M199.1723 185.3933
L198.8866 185.3933
" />
<path d="M198.8866 185.3933
L198.7437 185.4648
" />
<path d="M199.3866 186.3219
L199.2437 186.3933
" />
<path d="M199.2437 186.3933
L198.8866 186.3933
" />
<path d="M198.8866 186.3933
L198.7437 186.3219
" />
<path d="M198.7437 186.3219
L198.6723 186.1790
" />
<path d="M198.6723 186.1790
L198.6723 186.0362
" />
<path d="M198.6723 186.0362
L198.7437 185.8933
" />
<path d="M198.7437 185.8933
L198.8866 185.8219
" />
<path d="M198.8866 185.8219
L199.2437 185.8219
" />
<path d="M199.2437 185.8219
L199.3866 185.7505
" />
<path d="M200.7437 186.3933
L200.7437 184.8933
" />
<path d="M200.7437 186.3219
L200.6009 186.3933
" />
<path d="M200.6009 186.3933
L200.3152 186.3933
" />
<path d="M200.3152 186.3933
L200.1723 186.3219
" />
<path d="M200.1723 186.3219
L200.1009 186.2505
" />
<path d="M200.1009 186.2505
L200.0295 186.1076
" />
<path d="M200.0295 186.1076
L200.0295 185.6790
" />
<path d="M200.0295 185.6790
L200.1009 185.5362
" />
<path d="M200.1009 185.5362
L200.1723 185.4648
" />
<path d="M200.1723 185.4648
L200.3152 185.3933
" />
<path d="M200.3152 185.3933
L200.6009 185.3933
" />
<path d="M200.6009 185.3933
L200.7437 185.4648
" />
<path d="M201.1009 186.5362
L202.2437 186.5362
" />
<path d="M202.6009 185.3933
L202.6009 186.8933
" />
<path d="M202.6009 185.4648
L202.7437 185.3933
" />
<path d="M202.7437 185.3933
L203.0295 185.3933
" />
<path d="M203.0295 185.3933
L203.1723 185.4648
" />
<path d="M203.1723 185.4648
L203.2437 185.5362
" />
<path d="M203.2437 185.5362
L203.3152 185.6790
" />
<path d="M203.3152 185.6790
L203.3152 186.1076
" />
<path d="M203.3152 186.1076
L203.2437 186.2505
" />
<path d="M203.2437 186.2505
L203.1723 186.3219
" />
<path d="M203.1723 186.3219
L203.0295 186.3933
" />
<path d="M203.0295 186.3933
L202.7437 186.3933
" />
<path d="M202.7437 186.3933
L202.6009 186.3219
" />
<path d="M204.6009 186.3219
L204.4580 186.3933
" />
<path d="M204.4580 186.3933
L204.1723 186.3933
" />
<path d="M204.1723 186.3933
L204.0295 186.3219
" />
<path d="M204.0295 186.3219
L203.9580 186.2505
" />
<path d="M203.9580 186.2505
L203.8866 186.1076
" />
<path d="M203.8866 186.1076
L203.8866 185.6790
" />
<path d="M203.8866 185.6790
L203.9580 185.5362
" />
<path d="M203.9580 185.5362
L204.0295 185.4648
" />
<path d="M204.0295 185.4648
L204.1723 185.3933
" />
<path d="M204.1723 185.3933
L204.4580 185.3933
" />
<path d="M204.4580 185.3933
L204.6009 185.4648
" />
<path d="M205.2437 186.3933
L205.2437 184.8933
" />
<path d="M205.2437 185.4648
L205.3866 185.3933
" />
<path d="M205.3866 185.3933
L205.6723 185.3933
" />
<path d="M205.6723 185.3933
L205.8152 185.4648
" />
<path d="M205.8152 185.4648
L205.8866 185.5362
" />
<path d="M205.8866 185.5362
L205.9580 185.6790
" />
<path d="M205.9580 185.6790
L205.9580 186.1076
" />
<path d="M205.9580 186.1076
L205.8866 186.2505
" />
<path d="M205.8866 186.2505
L205.8152 186.3219
" />
<path d="M205.8152 186.3219
L205.6723 186.3933
" />
<path d="M205.6723 186.3933
L205.3866 186.3933
" />
<path d="M205.3866 186.3933
L205.2437 186.3219
" />
</g></g>
<g style="fill:none; 
stroke:#000000; stroke-width:0.1500; stroke-opacity:1; 
stroke-linecap:round; stroke-linejoin:round;">
<path d="M177.0022 181.5072
L285.0022 181.5072
" />
</g>
<g style="fill:none; 
stroke:#000000; stroke-width:0.1500; stroke-opacity:1; 
stroke-linecap:round; stroke-linejoin:round;">
<text x="178.0022" y="183.7572"
textLength="8.2214" font-size="2.0000" lengthAdjust="spacingAndGlyphs"
text-anchor="start" opacity="0" stroke-opacity="0">Sheet: </text>
<g class="stroked-text"><desc>Sheet: </desc>
<path d="M178.3866 183.6219
L178.6009 183.6933
" />
<path d="M178.6009 183.6933
L178.9580 183.6933
" />
<path d="M178.9580 183.6933
L179.1009 183.6219
" />
<path d="M179.1009 183.6219
L179.1723 183.5505
" />
<path d="M179.1723 183.5505
L179.2437 183.4076
" />
<path d="M179.2437 183.4076
L179.2437 183.2648
" />
<path d="M179.2437 183.2648
L179.1723 183.1219
" />
<path d="M179.1723 183.1219
L179.1009 183.0505
" />
<path d="M179.1009 183.0505
L178.9580 182.9790
" />
<path d="M178.9580 182.9790
L178.6723 182.9076
" />
<path d="M178.6723 182.9076
L178.5295 182.8362
" />
<path d="M178.5295 182.8362
L178.4580 182.7648
" />
<path d="M178.4580 182.7648
L178.3866 182.6219
" />
<path d="M178.3866 182.6219
L178.3866 182.4790
" />
<path d="M178.3866 182.4790
L178.4580 182.3362
" />
<path d="M178.4580 182.3362
L178.5295 182.2648
" />
<path d="M178.5295 182.2648
L178.6723 182.1933
" />
<path d="M178.6723 182.1933
L179.0295 182.1933
" />
<path d="M179.0295 182.1933
L179.2437 182.2648
" />
<path d="M179.8866 183.6933
L179.8866 182.1933
" />
<path d="M180.5295 183.6933
L180.5295 182.9076
" />
<path d="M180.5295 182.9076
L180.4580 182.7648
" />
<path d="M180.4580 182.7648
L180.3152 182.6933
" />
<path d="M180.3152 182.6933
L180.1009 182.6933
" />
<path d="M180.1009 182.6933
L179.9580 182.7648
" />
<path d="M179.9580 182.7648
L179.8866 182.8362
" />
<path d="M181.8152 183.6219
L181.6723 183.6933
" />
<path d="M181.6723 183.6933
L181.3866 183.6933
" />
<path d="M181.3866 183.6933
L181.2437 183.6219
" />
<path d="M181.2437 183.6219
L181.1723 183.4790
" />
<path d="M181.1723 183.4790
L181.1723 182.9076
" />
<path d="M181.1723 182.9076
L181.2437 182.7648
" />
<path d="M181.2437 182.7648
L181.3866 182.6933
" />
<path d="M181.3866 182.6933
L181.6723 182.6933
" />
<path d="M181.6723 182.6933
L181.8152 182.7648
" />
<path d="M181.8152 182.7648
L181.8866 182.9076
" />
<path d="M181.8866 182.9076
L181.8866 183.0505
" />
<path d="M181.8866 183.0505
L181.1723 183.1933
" />
<path d="M183.1009 183.6219
L182.9580 183.6933
" />
<path d="M182.9580 183.6933
L182.6723 183.6933
" />
<path d="M182.6723 183.6933
L182.5295 183.6219
" />
<path d="M182.5295 183.6219
L182.4580 183.4790
" />
<path d="M182.4580 183.4790
L182.4580 182.9076
" />
<path d="M182.4580 182.9076
L182.5295 182.7648
" />
<path d="M182.5295 182.7648
L182.6723 182.6933
" />
<path d="M182.6723 182.6933
L182.9580 182.6933
" />
<path d="M182.9580 182.6933
L183.1009 182.7648
" />
<path d="M183.1009 182.7648
L183.1723 182.9076
" />
<path d="M183.1723 182.9076
L183.1723 183.0505
" />
<path d="M183.1723 183.0505
L182.4580 183.1933
" />
<path d="M183.6009 182.6933
L184.1723 182.6933
" />
<path d="M183.8152 182.1933
L183.8152 183.4790
" />
<path d="M183.8152 183.4790
L183.8866 183.6219
" />
<path d="M183.8866 183.6219
L184.0295 183.6933
" />
<path d="M184.0295 183.6933
L184.1723 183.6933
" />
<path d="M184.6723 183.5505
L184.7437 183.6219
" />
<path d="M184.7437 183.6219
L184.6723 183.6933
" />
<path d="M184.6723 183.6933
L184.6009 183.6219
" />
<path d="M184.6009 183.6219
L184.6723 183.5505
" />
<path d="M184.6723 183.5505
L184.6723 183.6933
" />
<path d="M184.6723 182.7648
L184.7437 182.8362
" />
<path d="M184.7437 182.8362
L184.6723 182.9076
" />
<path d="M184.6723 182.9076
L184.6009 182.8362
" />
<path d="M184.6009 182.8362
L184.6723 182.7648
" />
<path d="M184.6723 182.7648
L184.6723 182.9076
" />
</g></g>
<g style="fill:none; 
stroke:#000000; stroke-width:0.3000; stroke-opacity:1; 
stroke-linecap:round; stroke-linejoin:round;">
<text x="178.0022" y="180.7572"
textLength="0.9000" font-size="2.0000" lengthAdjust="spacingAndGlyphs"
text-anchor="start" opacity="0" stroke-opacity="0"></text>
<g class="stroked-text"><desc></desc>
</g></g>
<g style="fill:none; 
stroke:#000000; stroke-width:0.1500; stroke-opacity:1; 
stroke-linecap:round; stroke-linejoin:round;">
<text x="178.0022" y="177.7572"
textLength="0.4500" font-size="2.0000" lengthAdjust="spacingAndGlyphs"
text-anchor="start" opacity="0" stroke-opacity="0"></text>
<g class="stroked-text"><desc></desc>
</g></g>
<g style="fill:none; 
stroke:#000000; stroke-width:0.1500; stroke-opacity:1; 
stroke-linecap:round; stroke-linejoin:round;">
<text x="178.0022" y="174.7572"
textLength="0.4500" font-size="2.0000" lengthAdjust="spacingAndGlyphs"
text-anchor="start" opacity="0" stroke-opacity="0"></text>
<g class="stroked-text"><desc></desc>
</g></g>
<g style="fill:none; 
stroke:#000000; stroke-width:0.1500; stroke-opacity:1; 
stroke-linecap:round; stroke-linejoin:round;">
<text x="178.0022" y="171.7572"
textLength="0.4500" font-size="2.0000" lengthAdjust="spacingAndGlyphs"
text-anchor="start" opacity="0" stroke-opacity="0"></text>
<g class="stroked-text"><desc></desc>
</g></g>
<g style="fill:none; 
stroke:#000000; stroke-width:0.1500; stroke-opacity:1; 
stroke-linecap:round; stroke-linejoin:round;">
<text x="178.0022" y="168.7572"
textLength="0.4500" font-size="2.0000" lengthAdjust="spacingAndGlyphs"
text-anchor="start" opacity="0" stroke-opacity="0"></text>
<g class="stroked-text"><desc></desc>
</g></g>
<g style="fill:none; 
stroke:#000000; stroke-width:0.1500; stroke-opacity:1; 
stroke-linecap:round; stroke-linejoin:round;">
<path d="M197.0022 191.5072
L197.0022 194.5072
" />
</g>
<g style="fill:none; 
stroke:#000000; stroke-width:0.1500; stroke-opacity:1; 
stroke-linecap:round; stroke-linejoin:round;">
<path d="M261.0022 191.5072
L261.0022 198.0072
" />
</g>
<g style="fill:none; 
stroke:#FF26E2; stroke-width:0.0500; stroke-opacity:1; 
stroke-linecap:round; stroke-linejoin:round;">
<path d="M84.7380 63.3270
L84.7380 77.8270
" />
<path d="M84.7380 77.8270
L99.2380 77.8270
" />
<path d="M99.2380 63.3270
L84.7380 63.3270
" />
<path d="M99.2380 77.8270
L99.2380 63.3270
" />
<path d="M105.6930 63.3270
L105.6930 77.8270
" />
<path d="M105.6930 77.8270
L120.1930 77.8270
" />
<path d="M120.1930 63.3270
L105.6930 63.3270
" />
<path d="M120.1930 77.8270
L120.1930 63.3270
" />
<path d="M78.2830 77.8270
L78.2830 63.3270
" />
<path d="M78.2830 63.3270
L63.7830 63.3270
" />
<path d="M63.7830 77.8270
L78.2830 77.8270
" />
<path d="M63.7830 63.3270
L63.7830 77.8270
" />
<path d="M84.7380 42.3720
L84.7380 56.8720
" />
<path d="M84.7380 56.8720
L99.2380 56.8720
" />
<path d="M99.2380 42.3720
L84.7380 42.3720
" />
<path d="M99.2380 56.8720
L99.2380 42.3720
" />
</g>
<g style="fill:none; 
stroke:#AFAFAF; stroke-width:0.1500; stroke-opacity:1; 
stroke-linecap:round; stroke-linejoin:round;">
<text x="91.9880" y="79.0770"
textLength="7.5357" font-size="1.3333" lengthAdjust="spacingAndGlyphs"
text-anchor="middle" opacity="0" stroke-opacity="0">Keyswitch</text>
<g class="stroked-text"><desc>Keyswitch</desc>
<path d="M88.5832 79.0318
L88.5832 78.0318
" />
<path d="M89.1547 79.0318
L88.7261 78.4604
" />
<path d="M89.1547 78.0318
L88.5832 78.6032
" />
<path d="M89.9642 78.9842
L89.8690 79.0318
" />
<path d="M89.8690 79.0318
L89.6785 79.0318
" />
<path d="M89.6785 79.0318
L89.5832 78.9842
" />
<path d="M89.5832 78.9842
L89.5356 78.8890
" />
<path d="M89.5356 78.8890
L89.5356 78.5080
" />
<path d="M89.5356 78.5080
L89.5832 78.4128
" />
<path d="M89.5832 78.4128
L89.6785 78.3652
" />
<path d="M89.6785 78.3652
L89.8690 78.3652
" />
<path d="M89.8690 78.3652
L89.9642 78.4128
" />
<path d="M89.9642 78.4128
L90.0118 78.5080
" />
<path d="M90.0118 78.5080
L90.0118 78.6032
" />
<path d="M90.0118 78.6032
L89.5356 78.6985
" />
<path d="M90.3451 78.3652
L90.5832 79.0318
" />
<path d="M90.8213 78.3652
L90.5832 79.0318
" />
<path d="M90.5832 79.0318
L90.4880 79.2699
" />
<path d="M90.4880 79.2699
L90.4404 79.3175
" />
<path d="M90.4404 79.3175
L90.3451 79.3652
" />
<path d="M91.1547 78.9842
L91.2499 79.0318
" />
<path d="M91.2499 79.0318
L91.4404 79.0318
" />
<path d="M91.4404 79.0318
L91.5356 78.9842
" />
<path d="M91.5356 78.9842
L91.5832 78.8890
" />
<path d="M91.5832 78.8890
L91.5832 78.8413
" />
<path d="M91.5832 78.8413
L91.5356 78.7461
" />
<path d="M91.5356 78.7461
L91.4404 78.6985
" />
<path d="M91.4404 78.6985
L91.2975 78.6985
" />
<path d="M91.2975 78.6985
L91.2023 78.6509
" />
<path d="M91.2023 78.6509
L91.1547 78.5556
" />
<path d="M91.1547 78.5556
L91.1547 78.5080
" />
<path d="M91.1547 78.5080
L91.2023 78.4128
" />
<path d="M91.2023 78.4128
L91.2975 78.3652
" />
<path d="M91.2975 78.3652
L91.4404 78.3652
" />
<path d="M91.4404 78.3652
L91.5356 78.4128
" />
<path d="M91.9166 78.3652
L92.1070 79.0318
" />
<path d="M92.1070 79.0318
L92.2975 78.5556
" />
<path d="M92.2975 78.5556
L92.4880 79.0318
" />
<path d="M92.4880 79.0318
L92.6785 78.3652
" />
<path d="M93.0594 79.0318
L93.0594 78.3652
" />
<path d="M93.0594 78.0318
L93.0118 78.0794
" />
<path d="M93.0118 78.0794
L93.0594 78.1271
" />
<path d="M93.0594 78.1271
L93.1070 78.0794
" />
<path d="M93.1070 78.0794
L93.0594 78.0318
" />
<path d="M93.0594 78.0318
L93.0594 78.1271
" />
<path d="M93.3928 78.3652
L93.7737 78.3652
" />
<path d="M93.5356 78.0318
L93.5356 78.8890
" />
<path d="M93.5356 78.8890
L93.5832 78.9842
" />
<path d="M93.5832 78.9842
L93.6785 79.0318
" />
<path d="M93.6785 79.0318
L93.7737 79.0318
" />
<path d="M94.5356 78.9842
L94.4404 79.0318
" />
<path d="M94.4404 79.0318
L94.2499 79.0318
" />
<path d="M94.2499 79.0318
L94.1547 78.9842
" />
<path d="M94.1547 78.9842
L94.1070 78.9366
" />
<path d="M94.1070 78.9366
L94.0594 78.8413
" />
<path d="M94.0594 78.8413
L94.0594 78.5556
" />
<path d="M94.0594 78.5556
L94.1070 78.4604
" />
<path d="M94.1070 78.4604
L94.1547 78.4128
" />
<path d="M94.1547 78.4128
L94.2499 78.3652
" />
<path d="M94.2499 78.3652
L94.4404 78.3652
" />
<path d="M94.4404 78.3652
L94.5356 78.4128
" />
<path d="M94.9642 79.0318
L94.9642 78.0318
" />
<path d="M95.3928 79.0318
L95.3928 78.5080
" />
<path d="M95.3928 78.5080
L95.3451 78.4128
" />
<path d="M95.3451 78.4128
L95.2499 78.3652
" />
<path d="M95.2499 78.3652
L95.1070 78.3652
" />
<path d="M95.1070 78.3652
L95.0118 78.4128
" />
<path d="M95.0118 78.4128
L94.9642 78.4604
" />
</g><text x="91.9880" y="71.0770"
textLength="2.1548" font-size="1.3333" lengthAdjust="spacingAndGlyphs"
text-anchor="middle" opacity="0" stroke-opacity="0">S2</text>
<g class="stroked-text"><desc>S2</desc>
<path d="M91.2261 70.9842
L91.3690 71.0318
" />
<path d="M91.3690 71.0318
L91.6070 71.0318
" />
<path d="M91.6070 71.0318
L91.7023 70.9842
" />
<path d="M91.7023 70.9842
L91.7499 70.9366
" />
<path d="M91.7499 70.9366
L91.7975 70.8413
" />
<path d="M91.7975 70.8413
L91.7975 70.7461
" />
<path d="M91.7975 70.7461
L91.7499 70.6509
" />
<path d="M91.7499 70.6509
L91.7023 70.6032
" />
<path d="M91.7023 70.6032
L91.6070 70.5556
" />
<path d="M91.6070 70.5556
L91.4166 70.5080
" />
<path d="M91.4166 70.5080
L91.3213 70.4604
" />
<path d="M91.3213 70.4604
L91.2737 70.4128
" />
<path d="M91.2737 70.4128
L91.2261 70.3175
" />
<path d="M91.2261 70.3175
L91.2261 70.2223
" />
<path d="M91.2261 70.2223
L91.2737 70.1271
" />
<path d="M91.2737 70.1271
L91.3213 70.0794
" />
<path d="M91.3213 70.0794
L91.4166 70.0318
" />
<path d="M91.4166 70.0318
L91.6547 70.0318
" />
<path d="M91.6547 70.0318
L91.7975 70.0794
" />
<path d="M92.1785 70.1271
L92.2261 70.0794
" />
<path d="M92.2261 70.0794
L92.3213 70.0318
" />
<path d="M92.3213 70.0318
L92.5594 70.0318
" />
<path d="M92.5594 70.0318
L92.6547 70.0794
" />
<path d="M92.6547 70.0794
L92.7023 70.1271
" />
<path d="M92.7023 70.1271
L92.7499 70.2223
" />
<path d="M92.7499 70.2223
L92.7499 70.3175
" />
<path d="M92.7499 70.3175
L92.7023 70.4604
" />
<path d="M92.7023 70.4604
L92.1309 71.0318
" />
<path d="M92.1309 71.0318
L92.7499 71.0318
" />
</g><text x="112.9430" y="79.0770"
textLength="7.5357" font-size="1.3333" lengthAdjust="spacingAndGlyphs"
text-anchor="middle" opacity="0" stroke-opacity="0">Keyswitch</text>
<g class="stroked-text"><desc>Keyswitch</desc>
<path d="M109.5382 79.0318
L109.5382 78.0318
" />
<path d="M110.1097 79.0318
L109.6811 78.4604
" />
<path d="M110.1097 78.0318
L109.5382 78.6032
" />
<path d="M110.9192 78.9842
L110.8240 79.0318
" />
<path d="M110.8240 79.0318
L110.6335 79.0318
" />
<path d="M110.6335 79.0318
L110.5382 78.9842
" />
<path d="M110.5382 78.9842
L110.4906 78.8890
" />
<path d="M110.4906 78.8890
L110.4906 78.5080
" />
<path d="M110.4906 78.5080
L110.5382 78.4128
" />
<path d="M110.5382 78.4128
L110.6335 78.3652
" />
<path d="M110.6335 78.3652
L110.8240 78.3652
" />
<path d="M110.8240 78.3652
L110.9192 78.4128
" />
<path d="M110.9192 78.4128
L110.9668 78.5080
" />
<path d="M110.9668 78.5080
L110.9668 78.6032
" />
<path d="M110.9668 78.6032
L110.4906 78.6985
" />
<path d="M111.3001 78.3652
L111.5382 79.0318
" />
<path d="M111.7763 78.3652
L111.5382 79.0318
" />
<path d="M111.5382 79.0318
L111.4430 79.2699
" />
<path d="M111.4430 79.2699
L111.3954 79.3175
" />
<path d="M111.3954 79.3175
L111.3001 79.3652
" />
<path d="M112.1097 78.9842
L112.2049 79.0318
" />
<path d="M112.2049 79.0318
L112.3954 79.0318
" />
<path d="M112.3954 79.0318
L112.4906 78.9842
" />
<path d="M112.4906 78.9842
L112.5382 78.8890
" />
<path d="M112.5382 78.8890
L112.5382 78.8413
" />
<path d="M112.5382 78.8413
L112.4906 78.7461
" />
<path d="M112.4906 78.7461
L112.3954 78.6985
" />
<path d="M112.3954 78.6985
L112.2525 78.6985
" />
<path d="M112.2525 78.6985
L112.1573 78.6509
" />
<path d="M112.1573 78.6509
L112.1097 78.5556
" />
<path d="M112.1097 78.5556
L112.1097 78.5080
" />
<path d="M112.1097 78.5080
L112.1573 78.4128
" />
<path d="M112.1573 78.4128
L112.2525 78.3652
" />
<path d="M112.2525 78.3652
L112.3954 78.3652
" />
<path d="M112.3954 78.3652
L112.4906 78.4128
" />
<path d="M112.8716 78.3652
L113.0620 79.0318
" />
<path d="M113.0620 79.0318
L113.2525 78.5556
" />
<path d="M113.2525 78.5556
L113.4430 79.0318
" />
<path d="M113.4430 79.0318
L113.6335 78.3652
" />
<path d="M114.0144 79.0318
L114.0144 78.3652
" />
<path d="M114.0144 78.0318
L113.9668 78.0794
" />
<path d="M113.9668 78.0794
L114.0144 78.1271
" />
<path d="M114.0144 78.1271
L114.0620 78.0794
" />
<path d="M114.0620 78.0794
L114.0144 78.0318
" />
<path d="M114.0144 78.0318
L114.0144 78.1271
" />
<path d="M114.3478 78.3652
L114.7287 78.3652
" />
<path d="M114.4906 78.0318
L114.4906 78.8890
" />
<path d="M114.4906 78.8890
L114.5382 78.9842
" />
<path d="M114.5382 78.9842
L114.6335 79.0318
" />
<path d="M114.6335 79.0318
L114.7287 79.0318
" />
<path d="M115.4906 78.9842
L115.3954 79.0318
" />
<path d="M115.3954 79.0318
L115.2049 79.0318
" />
<path d="M115.2049 79.0318
L115.1097 78.9842
" />
<path d="M115.1097 78.9842
L115.0620 78.9366
" />
<path d="M115.0620 78.9366
L115.0144 78.8413
" />
<path d="M115.0144 78.8413
L115.0144 78.5556
" />
<path d="M115.0144 78.5556
L115.0620 78.4604
" />
<path d="M115.0620 78.4604
L115.1097 78.4128
" />
<path d="M115.1097 78.4128
L115.2049 78.3652
" />
<path d="M115.2049 78.3652
L115.3954 78.3652
" />
<path d="M115.3954 78.3652
L115.4906 78.4128
" />
<path d="M115.9192 79.0318
L115.9192 78.0318
" />
<path d="M116.3478 79.0318
L116.3478 78.5080
" />
<path d="M116.3478 78.5080
L116.3001 78.4128
" />
<path d="M116.3001 78.4128
L116.2049 78.3652
" />
<path d="M116.2049 78.3652
L116.0620 78.3652
" />
<path d="M116.0620 78.3652
L115.9668 78.4128
" />
<path d="M115.9668 78.4128
L115.9192 78.4604
" />
</g><text x="112.9430" y="71.0770"
textLength="2.1548" font-size="1.3333" lengthAdjust="spacingAndGlyphs"
text-anchor="middle" opacity="0" stroke-opacity="0">S4</text>
<g class="stroked-text"><desc>S4</desc>
<path d="M112.1811 70.9842
L112.3240 71.0318
" />
<path d="M112.3240 71.0318
L112.5620 71.0318
" />
<path d="M112.5620 71.0318
L112.6573 70.9842
" />
<path d="M112.6573 70.9842
L112.7049 70.9366
" />
<path d="M112.7049 70.9366
L112.7525 70.8413
" />
<path d="M112.7525 70.8413
L112.7525 70.7461
" />
<path d="M112.7525 70.7461
L112.7049 70.6509
" />
<path d="M112.7049 70.6509
L112.6573 70.6032
" />
<path d="M112.6573 70.6032
L112.5620 70.5556
" />
<path d="M112.5620 70.5556
L112.3716 70.5080
" />
<path d="M112.3716 70.5080
L112.2763 70.4604
" />
<path d="M112.2763 70.4604
L112.2287 70.4128
" />
<path d="M112.2287 70.4128
L112.1811 70.3175
" />
<path d="M112.1811 70.3175
L112.1811 70.2223
" />
<path d="M112.1811 70.2223
L112.2287 70.1271
" />
<path d="M112.2287 70.1271
L112.2763 70.0794
" />
<path d="M112.2763 70.0794
L112.3716 70.0318
" />
<path d="M112.3716 70.0318
L112.6097 70.0318
" />
<path d="M112.6097 70.0318
L112.7525 70.0794
" />
<path d="M113.6097 70.3652
L113.6097 71.0318
" />
<path d="M113.3716 69.9842
L113.1335 70.6985
" />
<path d="M113.1335 70.6985
L113.7525 70.6985
" />
</g><text x="71.0330" y="79.0770"
textLength="7.5357" font-size="1.3333" lengthAdjust="spacingAndGlyphs"
text-anchor="middle" opacity="0" stroke-opacity="0">Keyswitch</text>
<g class="stroked-text"><desc>Keyswitch</desc>
<path d="M67.6282 79.0318
L67.6282 78.0318
" />
<path d="M68.1997 79.0318
L67.7711 78.4604
" />
<path d="M68.1997 78.0318
L67.6282 78.6032
" />
<path d="M69.0092 78.9842
L68.9140 79.0318
" />
<path d="M68.9140 79.0318
L68.7235 79.0318
" />
<path d="M68.7235 79.0318
L68.6282 78.9842
" />
<path d="M68.6282 78.9842
L68.5806 78.8890
" />
<path d="M68.5806 78.8890
L68.5806 78.5080
" />
<path d="M68.5806 78.5080
L68.6282 78.4128
" />
<path d="M68.6282 78.4128
L68.7235 78.3652
" />
<path d="M68.7235 78.3652
L68.9140 78.3652
" />
<path d="M68.9140 78.3652
L69.0092 78.4128
" />
<path d="M69.0092 78.4128
L69.0568 78.5080
" />
<path d="M69.0568 78.5080
L69.0568 78.6032
" />
<path d="M69.0568 78.6032
L68.5806 78.6985
" />
<path d="M69.3901 78.3652
L69.6282 79.0318
" />
<path d="M69.8663 78.3652
L69.6282 79.0318
" />
<path d="M69.6282 79.0318
L69.5330 79.2699
" />
<path d="M69.5330 79.2699
L69.4854 79.3175
" />
<path d="M69.4854 79.3175
L69.3901 79.3652
" />
<path d="M70.1997 78.9842
L70.2949 79.0318
" />
<path d="M70.2949 79.0318
L70.4854 79.0318
" />
<path d="M70.4854 79.0318
L70.5806 78.9842
" />
<path d="M70.5806 78.9842
L70.6282 78.8890
" />
<path d="M70.6282 78.8890
L70.6282 78.8413
" />
<path d="M70.6282 78.8413
L70.5806 78.7461
" />
<path d="M70.5806 78.7461
L70.4854 78.6985
" />
<path d="M70.4854 78.6985
L70.3425 78.6985
" />
<path d="M70.3425 78.6985
L70.2473 78.6509
" />
<path d="M70.2473 78.6509
L70.1997 78.5556
" />
<path d="M70.1997 78.5556
L70.1997 78.5080
" />
<path d="M70.1997 78.5080
L70.2473 78.4128
" />
<path d="M70.2473 78.4128
L70.3425 78.3652
" />
<path d="M70.3425 78.3652
L70.4854 78.3652
" />
<path d="M70.4854 78.3652
L70.5806 78.4128
" />
<path d="M70.9616 78.3652
L71.1520 79.0318
" />
<path d="M71.1520 79.0318
L71.3425 78.5556
" />
<path d="M71.3425 78.5556
L71.5330 79.0318
" />
<path d="M71.5330 79.0318
L71.7235 78.3652
" />
<path d="M72.1044 79.0318
L72.1044 78.3652
" />
<path d="M72.1044 78.0318
L72.0568 78.0794
" />
<path d="M72.0568 78.0794
L72.1044 78.1271
" />
<path d="M72.1044 78.1271
L72.1520 78.0794
" />
<path d="M72.1520 78.0794
L72.1044 78.0318
" />
<path d="M72.1044 78.0318
L72.1044 78.1271
" />
<path d="M72.4378 78.3652
L72.8187 78.3652
" />
<path d="M72.5806 78.0318
L72.5806 78.8890
" />
<path d="M72.5806 78.8890
L72.6282 78.9842
" />
<path d="M72.6282 78.9842
L72.7235 79.0318
" />
<path d="M72.7235 79.0318
L72.8187 79.0318
" />
<path d="M73.5806 78.9842
L73.4854 79.0318
" />
<path d="M73.4854 79.0318
L73.2949 79.0318
" />
<path d="M73.2949 79.0318
L73.1997 78.9842
" />
<path d="M73.1997 78.9842
L73.1520 78.9366
" />
<path d="M73.1520 78.9366
L73.1044 78.8413
" />
<path d="M73.1044 78.8413
L73.1044 78.5556
" />
<path d="M73.1044 78.5556
L73.1520 78.4604
" />
<path d="M73.1520 78.4604
L73.1997 78.4128
" />
<path d="M73.1997 78.4128
L73.2949 78.3652
" />
<path d="M73.2949 78.3652
L73.4854 78.3652
" />
<path d="M73.4854 78.3652
L73.5806 78.4128
" />
<path d="M74.0092 79.0318
L74.0092 78.0318
" />
<path d="M74.4378 79.0318
L74.4378 78.5080
" />
<path d="M74.4378 78.5080
L74.3901 78.4128
" />
<path d="M74.3901 78.4128
L74.2949 78.3652
" />
<path d="M74.2949 78.3652
L74.1520 78.3652
" />
<path d="M74.1520 78.3652
L74.0568 78.4128
" />
<path d="M74.0568 78.4128
L74.0092 78.4604
" />
</g><text x="71.0330" y="71.0770"
textLength="2.1548" font-size="1.3333" lengthAdjust="spacingAndGlyphs"
text-anchor="middle" opacity="0" stroke-opacity="0">S1</text>
<g class="stroked-text"><desc>S1</desc>
<path d="M70.2711 70.9842
L70.4140 71.0318
" />
<path d="M70.4140 71.0318
L70.6520 71.0318
" />
<path d="M70.6520 71.0318
L70.7473 70.9842
" />
<path d="M70.7473 70.9842
L70.7949 70.9366
" />
<path d="M70.7949 70.9366
L70.8425 70.8413
" />
<path d="M70.8425 70.8413
L70.8425 70.7461
" />
<path d="M70.8425 70.7461
L70.7949 70.6509
" />
<path d="M70.7949 70.6509
L70.7473 70.6032
" />
<path d="M70.7473 70.6032
L70.6520 70.5556
" />
<path d="M70.6520 70.5556
L70.4616 70.5080
" />
<path d="M70.4616 70.5080
L70.3663 70.4604
" />
<path d="M70.3663 70.4604
L70.3187 70.4128
" />
<path d="M70.3187 70.4128
L70.2711 70.3175
" />
<path d="M70.2711 70.3175
L70.2711 70.2223
" />
<path d="M70.2711 70.2223
L70.3187 70.1271
" />
<path d="M70.3187 70.1271
L70.3663 70.0794
" />
<path d="M70.3663 70.0794
L70.4616 70.0318
" />
<path d="M70.4616 70.0318
L70.6997 70.0318
" />
<path d="M70.6997 70.0318
L70.8425 70.0794
" />
<path d="M71.7949 71.0318
L71.2235 71.0318
" />
<path d="M71.5092 71.0318
L71.5092 70.0318
" />
<path d="M71.5092 70.0318
L71.4140 70.1747
" />
<path d="M71.4140 70.1747
L71.3187 70.2699
" />
<path d="M71.3187 70.2699
L71.2235 70.3175
" />
</g><text x="116.5430" y="53.9220"
textLength="3.2976" font-size="1.3333" lengthAdjust="spacingAndGlyphs"
text-anchor="middle" opacity="0" stroke-opacity="0">SW1</text>
<g class="stroked-text"><desc>SW1</desc>
<path d="M115.2097 53.8292
L115.3525 53.8768
" />
<path d="M115.3525 53.8768
L115.5906 53.8768
" />
<path d="M115.5906 53.8768
L115.6859 53.8292
" />
<path d="M115.6859 53.8292
L115.7335 53.7816
" />
<path d="M115.7335 53.7816
L115.7811 53.6863
" />
<path d="M115.7811 53.6863
L115.7811 53.5911
" />
<path d="M115.7811 53.5911
L115.7335 53.4959
" />
<path d="M115.7335 53.4959
L115.6859 53.4482
" />
<path d="M115.6859 53.4482
L115.5906 53.4006
" />
<path d="M115.5906 53.4006
L115.4001 53.3530
" />
<path d="M115.4001 53.3530
L115.3049 53.3054
" />
<path d="M115.3049 53.3054
L115.2573 53.2578
" />
<path d="M115.2573 53.2578
L115.2097 53.1625
" />
<path d="M115.2097 53.1625
L115.2097 53.0673
" />
<path d="M115.2097 53.0673
L115.2573 52.9721
" />
<path d="M115.2573 52.9721
L115.3049 52.9244
" />
<path d="M115.3049 52.9244
L115.4001 52.8768
" />
<path d="M115.4001 52.8768
L115.6382 52.8768
" />
<path d="M115.6382 52.8768
L115.7811 52.9244
" />
<path d="M116.1144 52.8768
L116.3525 53.8768
" />
<path d="M116.3525 53.8768
L116.5430 53.1625
" />
<path d="M116.5430 53.1625
L116.7335 53.8768
" />
<path d="M116.7335 53.8768
L116.9716 52.8768
" />
<path d="M117.8763 53.8768
L117.3049 53.8768
" />
<path d="M117.5906 53.8768
L117.5906 52.8768
" />
<path d="M117.5906 52.8768
L117.4954 53.0197
" />
<path d="M117.4954 53.0197
L117.4001 53.1149
" />
<path d="M117.4001 53.1149
L117.3049 53.1625
" />
</g><text x="67.8580" y="40.5970"
textLength="2.1548" font-size="1.3333" lengthAdjust="spacingAndGlyphs"
text-anchor="middle" opacity="0" stroke-opacity="0">S3</text>
<g class="stroked-text"><desc>S3</desc>
<path d="M67.0961 40.5042
L67.2390 40.5518
" />
<path d="M67.2390 40.5518
L67.4770 40.5518
" />
<path d="M67.4770 40.5518
L67.5723 40.5042
" />
<path d="M67.5723 40.5042
L67.6199 40.4566
" />
<path d="M67.6199 40.4566
L67.6675 40.3613
" />
<path d="M67.6675 40.3613
L67.6675 40.2661
" />
<path d="M67.6675 40.2661
L67.6199 40.1709
" />
<path d="M67.6199 40.1709
L67.5723 40.1232
" />
<path d="M67.5723 40.1232
L67.4770 40.0756
" />
<path d="M67.4770 40.0756
L67.2866 40.0280
" />
<path d="M67.2866 40.0280
L67.1913 39.9804
" />
<path d="M67.1913 39.9804
L67.1437 39.9328
" />
<path d="M67.1437 39.9328
L67.0961 39.8375
" />
<path d="M67.0961 39.8375
L67.0961 39.7423
" />
<path d="M67.0961 39.7423
L67.1437 39.6471
" />
<path d="M67.1437 39.6471
L67.1913 39.5994
" />
<path d="M67.1913 39.5994
L67.2866 39.5518
" />
<path d="M67.2866 39.5518
L67.5247 39.5518
" />
<path d="M67.5247 39.5518
L67.6675 39.5994
" />
<path d="M68.0009 39.5518
L68.6199 39.5518
" />
<path d="M68.6199 39.5518
L68.2866 39.9328
" />
<path d="M68.2866 39.9328
L68.4294 39.9328
" />
<path d="M68.4294 39.9328
L68.5247 39.9804
" />
<path d="M68.5247 39.9804
L68.5723 40.0280
" />
<path d="M68.5723 40.0280
L68.6199 40.1232
" />
<path d="M68.6199 40.1232
L68.6199 40.3613
" />
<path d="M68.6199 40.3613
L68.5723 40.4566
" />
<path d="M68.5723 40.4566
L68.5247 40.5042
" />
<path d="M68.5247 40.5042
L68.4294 40.5518
" />
<path d="M68.4294 40.5518
L68.1437 40.5518
" />
<path d="M68.1437 40.5518
L68.0485 40.5042
" />
<path d="M68.0485 40.5042
L68.0009 40.4566
" />
</g><text x="74.6330" y="53.9220"
textLength="3.2976" font-size="1.3333" lengthAdjust="spacingAndGlyphs"
text-anchor="middle" opacity="0" stroke-opacity="0">SW2</text>
<g class="stroked-text"><desc>SW2</desc>
<path d="M73.2997 53.8292
L73.4425 53.8768
" />
<path d="M73.4425 53.8768
L73.6806 53.8768
" />
<path d="M73.6806 53.8768
L73.7759 53.8292
" />
<path d="M73.7759 53.8292
L73.8235 53.7816
" />
<path d="M73.8235 53.7816
L73.8711 53.6863
" />
<path d="M73.8711 53.6863
L73.8711 53.5911
" />
<path d="M73.8711 53.5911
L73.8235 53.4959
" />
<path d="M73.8235 53.4959
L73.7759 53.4482
" />
<path d="M73.7759 53.4482
L73.6806 53.4006
" />
<path d="M73.6806 53.4006
L73.4901 53.3530
" />
<path d="M73.4901 53.3530
L73.3949 53.3054
" />
<path d="M73.3949 53.3054
L73.3473 53.2578
" />
<path d="M73.3473 53.2578
L73.2997 53.1625
" />
<path d="M73.2997 53.1625
L73.2997 53.0673
" />
<path d="M73.2997 53.0673
L73.3473 52.9721
" />
<path d="M73.3473 52.9721
L73.3949 52.9244
" />
<path d="M73.3949 52.9244
L73.4901 52.8768
" />
<path d="M73.4901 52.8768
L73.7282 52.8768
" />
<path d="M73.7282 52.8768
L73.8711 52.9244
" />
<path d="M74.2044 52.8768
L74.4425 53.8768
" />
<path d="M74.4425 53.8768
L74.6330 53.1625
" />
<path d="M74.6330 53.1625
L74.8235 53.8768
" />
<path d="M74.8235 53.8768
L75.0616 52.8768
" />
<path d="M75.3949 52.9721
L75.4425 52.9244
" />
<path d="M75.4425 52.9244
L75.5378 52.8768
" />
<path d="M75.5378 52.8768
L75.7759 52.8768
" />
<path d="M75.7759 52.8768
L75.8711 52.9244
" />
<path d="M75.8711 52.9244
L75.9187 52.9721
" />
<path d="M75.9187 52.9721
L75.9663 53.0673
" />
<path d="M75.9663 53.0673
L75.9663 53.1625
" />
<path d="M75.9663 53.1625
L75.9187 53.3054
" />
<path d="M75.9187 53.3054
L75.3473 53.8768
" />
<path d="M75.3473 53.8768
L75.9663 53.8768
" />
</g></g>
<g style="fill:none; 
stroke:#AFAFAF; stroke-width:0.1000; stroke-opacity:1; 
stroke-linecap:round; stroke-linejoin:round;">
<path d="M84.9880 63.5770
L84.9880 77.5770
" />
<path d="M84.9880 77.5770
L98.9880 77.5770
" />
<path d="M98.9880 63.5770
L84.9880 63.5770
" />
<path d="M98.9880 77.5770
L98.9880 63.5770
" />
<path d="M105.9430 63.5770
L105.9430 77.5770
" />
<path d="M105.9430 77.5770
L119.9430 77.5770
" />
<path d="M119.9430 63.5770
L105.9430 63.5770
" />
<path d="M119.9430 77.5770
L119.9430 63.5770
" />
<path d="M78.0330 77.5770
L78.0330 63.5770
" />
<path d="M78.0330 63.5770
L64.0330 63.5770
" />
<path d="M64.0330 77.5770
L78.0330 77.5770
" />
<path d="M64.0330 63.5770
L64.0330 77.5770
" />
</g>
<g style="fill:none; 
stroke:#AFAFAF; stroke-width:0.1200; stroke-opacity:1; 
stroke-linecap:round; stroke-linejoin:round;">
<circle cx="112.9430" cy="49.6220" r="3.0000" /> 
<path d="M118.9430 55.4220
L106.9430 55.4220
" />
<path d="M118.9430 43.8220
L118.9430 55.4220
" />
<path d="M112.9430 46.6220
L112.9430 52.6220
" />
<path d="M109.9430 49.6220
L115.9430 49.6220
" />
<path d="M107.9430 43.8220
L118.9430 43.8220
" />
<path d="M106.9430 55.4220
L106.9430 44.9220
" />
<path d="M106.9430 44.9220
L107.9430 43.8220
" />
</g>
<g style="fill:none; 
stroke:#AFAFAF; stroke-width:0.1000; stroke-opacity:1; 
stroke-linecap:round; stroke-linejoin:round;">
<path d="M84.9880 42.6220
L84.9880 56.6220
" />
<path d="M84.9880 56.6220
L98.9880 56.6220
" />
<path d="M98.9880 42.6220
L84.9880 42.6220
" />
<path d="M98.9880 56.6220
L98.9880 42.6220
" />
</g>
<g style="fill:none; 
stroke:#AFAFAF; stroke-width:0.1200; stroke-opacity:1; 
stroke-linecap:round; stroke-linejoin:round;">
<path d="M65.0330 44.9220
L66.0330 43.8220
" />
<path d="M65.0330 55.4220
L65.0330 44.9220
" />
<path d="M66.0330 43.8220
L77.0330 43.8220
" />
<path d="M68.0330 49.6220
L74.0330 49.6220
" />
<path d="M71.0330 46.6220
L71.0330 52.6220
" />
<path d="M77.0330 43.8220
L77.0330 55.4220
" />
<path d="M77.0330 55.4220
L65.0330 55.4220
" />
<circle cx="71.0330" cy="49.6220" r="3.0000" /> 
</g>
<g style="fill:none; 
stroke:#D0D2CD; stroke-width:0.0500; stroke-opacity:1; 
stroke-linecap:round; stroke-linejoin:round;">
<path d="M91.9880 36.2870
L80.5580 36.2870
" />
<path d="M59.6030 43.9070
L59.6030 76.2920
" />
<path d="M59.6030 76.2920 A3.8100 3.8100 0.0 0 0 63.4130 80.1020" />
<path d="M59.6030 43.9070
L59.6030 40.0970
" />
<path d="M124.3730 40.0970 A3.8100 3.8100 0.0 0 0 120.5630 36.2870" />
<path d="M63.4130 36.2870 A3.8100 3.8100 0.0 0 0 59.6030 40.0970" />
<path d="M120.5630 80.1020 A3.8100 3.8100 0.0 0 0 124.3730 76.2920" />
<path d="M124.3730 43.9070
L124.3730 40.0970
" />
<path d="M63.4130 80.1020
L120.5630 80.1020
" />
<path d="M120.5630 36.2870
L103.4180 36.2870
" />
<path d="M80.5580 36.2870
L63.4130 36.2870
" />
<path d="M91.9880 36.2870
L103.4180 36.2870
" />
<path d="M124.3730 43.9070
L124.3730 76.2920
" />
</g> 
</svg>
