%TF.GenerationSoftware,KiCad,Pcbnew,7.0.10*%
%TF.CreationDate,2025-03-16T20:16:46-04:00*%
%TF.ProjectId,Steno,5374656e-6f2e-46b6-9963-61645f706362,rev?*%
%TF.SameCoordinates,Original*%
%TF.FileFunction,Copper,L1,Top*%
%TF.FilePolarity,Positive*%
%FSLAX46Y46*%
G04 Gerber Fmt 4.6, Leading zero omitted, Abs format (unit mm)*
G04 Created by KiCad (PCBNEW 7.0.10) date 2025-03-16 20:16:46*
%MOMM*%
%LPD*%
G01*
G04 APERTURE LIST*
%TA.AperFunction,ComponentPad*%
%ADD10C,2.500000*%
%TD*%
%TA.AperFunction,ComponentPad*%
%ADD11O,1.700000X1.700000*%
%TD*%
%TA.AperFunction,SMDPad,CuDef*%
%ADD12R,3.500000X1.700000*%
%TD*%
%TA.AperFunction,ComponentPad*%
%ADD13R,1.700000X1.700000*%
%TD*%
%TA.AperFunction,SMDPad,CuDef*%
%ADD14R,1.700000X3.500000*%
%TD*%
%TA.AperFunction,ComponentPad*%
%ADD15R,1.238000X1.238000*%
%TD*%
%TA.AperFunction,ComponentPad*%
%ADD16C,1.238000*%
%TD*%
%TA.AperFunction,ComponentPad*%
%ADD17R,1.397000X1.397000*%
%TD*%
%TA.AperFunction,ComponentPad*%
%ADD18C,1.397000*%
%TD*%
%TA.AperFunction,ComponentPad*%
%ADD19O,2.000000X1.600000*%
%TD*%
%TA.AperFunction,ComponentPad*%
%ADD20R,2.000000X2.000000*%
%TD*%
%TA.AperFunction,ComponentPad*%
%ADD21C,2.000000*%
%TD*%
%TA.AperFunction,ComponentPad*%
%ADD22R,3.200000X2.000000*%
%TD*%
%TA.AperFunction,ViaPad*%
%ADD23C,0.800000*%
%TD*%
%TA.AperFunction,Conductor*%
%ADD24C,0.250000*%
%TD*%
G04 APERTURE END LIST*
D10*
%TO.P,SW22,1,1*%
%TO.N,COL5*%
X146000000Y-258950000D03*
%TO.P,SW22,2,2*%
%TO.N,Net-(D20-A)*%
X153000000Y-260000000D03*
%TD*%
%TO.P,SW59,1,1*%
%TO.N,COL9*%
X316000000Y-257700000D03*
%TO.P,SW59,2,2*%
%TO.N,Net-(D57-A)*%
X323000000Y-258750000D03*
%TD*%
D11*
%TO.P,U1,1,GPIO0*%
%TO.N,TX*%
X179000000Y-207900000D03*
D12*
X178100000Y-207900000D03*
D11*
%TO.P,U1,2,GPIO1*%
%TO.N,RX*%
X179000000Y-210440000D03*
D12*
X178100000Y-210440000D03*
D13*
%TO.P,U1,3,GND*%
%TO.N,GND*%
X179000000Y-212980000D03*
D12*
X178100000Y-212980000D03*
D11*
%TO.P,U1,4,GPIO2*%
%TO.N,unconnected-(U1-GPIO2-Pad4)*%
X179000000Y-215520000D03*
D12*
X178100000Y-215520000D03*
D11*
%TO.P,U1,5,GPIO3*%
%TO.N,unconnected-(U1-GPIO3-Pad5)*%
X179000000Y-218060000D03*
D12*
X178100000Y-218060000D03*
D11*
%TO.P,U1,6,GPIO4*%
%TO.N,SDA*%
X179000000Y-220600000D03*
D12*
X178100000Y-220600000D03*
D11*
%TO.P,U1,7,GPIO5*%
%TO.N,SCL*%
X179000000Y-223140000D03*
D12*
X178100000Y-223140000D03*
D13*
%TO.P,U1,8,GND*%
%TO.N,GND*%
X179000000Y-225680000D03*
D12*
X178100000Y-225680000D03*
D11*
%TO.P,U1,9,GPIO6*%
%TO.N,unconnected-(U1-GPIO6-Pad9)*%
X179000000Y-228220000D03*
D12*
X178100000Y-228220000D03*
D11*
%TO.P,U1,10,GPIO7*%
%TO.N,unconnected-(U1-GPIO7-Pad10)*%
X179000000Y-230760000D03*
D12*
X178100000Y-230760000D03*
D11*
%TO.P,U1,11,GPIO8*%
%TO.N,unconnected-(U1-GPIO8-Pad11)*%
X179000000Y-233300000D03*
D12*
X178100000Y-233300000D03*
D11*
%TO.P,U1,12,GPIO9*%
%TO.N,unconnected-(U1-GPIO9-Pad12)*%
X179000000Y-235840000D03*
D12*
X178100000Y-235840000D03*
D13*
%TO.P,U1,13,GND*%
%TO.N,GND*%
X179000000Y-238380000D03*
D12*
X178100000Y-238380000D03*
D11*
%TO.P,U1,14,GPIO10*%
%TO.N,ROW5*%
X179000000Y-240920000D03*
D12*
X178100000Y-240920000D03*
D11*
%TO.P,U1,15,GPIO11*%
%TO.N,2C*%
X179000000Y-243460000D03*
D12*
X178100000Y-243460000D03*
D11*
%TO.P,U1,16,GPIO12*%
%TO.N,2A*%
X179000000Y-246000000D03*
D12*
X178100000Y-246000000D03*
D11*
%TO.P,U1,17,GPIO13*%
%TO.N,2B*%
X179000000Y-248540000D03*
D12*
X178100000Y-248540000D03*
D13*
%TO.P,U1,18,GND*%
%TO.N,GND*%
X179000000Y-251080000D03*
D12*
X178100000Y-251080000D03*
D11*
%TO.P,U1,19,GPIO14*%
%TO.N,TRACKCL*%
X179000000Y-253620000D03*
D12*
X178100000Y-253620000D03*
D11*
%TO.P,U1,20,GPIO15*%
%TO.N,TRACKD*%
X179000000Y-256160000D03*
D12*
X178100000Y-256160000D03*
D11*
%TO.P,U1,21,GPIO16*%
%TO.N,ROW4*%
X196780000Y-256160000D03*
D12*
X197680000Y-256160000D03*
D11*
%TO.P,U1,22,GPIO17*%
%TO.N,ROW3*%
X196780000Y-253620000D03*
D12*
X197680000Y-253620000D03*
D13*
%TO.P,U1,23,GND*%
%TO.N,GND*%
X196780000Y-251080000D03*
D12*
X197680000Y-251080000D03*
D11*
%TO.P,U1,24,GPIO18*%
%TO.N,ROW2*%
X196780000Y-248540000D03*
D12*
X197680000Y-248540000D03*
D11*
%TO.P,U1,25,GPIO19*%
%TO.N,ROW1*%
X196780000Y-246000000D03*
D12*
X197680000Y-246000000D03*
D11*
%TO.P,U1,26,GPIO20*%
%TO.N,COL5*%
X196780000Y-243460000D03*
D12*
X197680000Y-243460000D03*
D11*
%TO.P,U1,27,GPIO21*%
%TO.N,COL4*%
X196780000Y-240920000D03*
D12*
X197680000Y-240920000D03*
D13*
%TO.P,U1,28,GND*%
%TO.N,GND*%
X196780000Y-238380000D03*
D12*
X197680000Y-238380000D03*
D11*
%TO.P,U1,29,GPIO22*%
%TO.N,COL3*%
X196780000Y-235840000D03*
D12*
X197680000Y-235840000D03*
D11*
%TO.P,U1,30,RUN*%
%TO.N,unconnected-(U1-RUN-Pad30)*%
X196780000Y-233300000D03*
D12*
X197680000Y-233300000D03*
D11*
%TO.P,U1,31,GPIO26_ADC0*%
%TO.N,COL2*%
X196780000Y-230760000D03*
D12*
X197680000Y-230760000D03*
D11*
%TO.P,U1,32,GPIO27_ADC1*%
%TO.N,COL1*%
X196780000Y-228220000D03*
D12*
X197680000Y-228220000D03*
D13*
%TO.P,U1,33,AGND*%
%TO.N,GND*%
X196780000Y-225680000D03*
D12*
X197680000Y-225680000D03*
D11*
%TO.P,U1,34,GPIO28_ADC2*%
%TO.N,COL0*%
X196780000Y-223140000D03*
D12*
X197680000Y-223140000D03*
D11*
%TO.P,U1,35,ADC_VREF*%
%TO.N,unconnected-(U1-ADC_VREF-Pad35)*%
X196780000Y-220600000D03*
D12*
X197680000Y-220600000D03*
D11*
%TO.P,U1,36,3V3*%
%TO.N,+3V3*%
X196780000Y-218060000D03*
D12*
X197680000Y-218060000D03*
D11*
%TO.P,U1,37,3V3_EN*%
%TO.N,unconnected-(U1-3V3_EN-Pad37)*%
X196780000Y-215520000D03*
D12*
X197680000Y-215520000D03*
D13*
%TO.P,U1,38,GND*%
%TO.N,GND*%
X196780000Y-212980000D03*
D12*
X197680000Y-212980000D03*
D11*
%TO.P,U1,39,VSYS*%
%TO.N,unconnected-(U1-VSYS-Pad39)*%
X196780000Y-210440000D03*
D12*
X197680000Y-210440000D03*
D11*
%TO.P,U1,40,VBUS*%
%TO.N,unconnected-(U1-VBUS-Pad40)*%
X196780000Y-207900000D03*
D12*
X197680000Y-207900000D03*
D11*
%TO.P,U1,41,SWCLK*%
%TO.N,unconnected-(U1-SWCLK-Pad41)*%
X185350000Y-255930000D03*
D14*
X185350000Y-256830000D03*
D13*
%TO.P,U1,42,GND*%
%TO.N,GND*%
X187890000Y-255930000D03*
D14*
X187890000Y-256830000D03*
D11*
%TO.P,U1,43,SWDIO*%
%TO.N,unconnected-(U1-SWDIO-Pad43)*%
X190430000Y-255930000D03*
D14*
X190430000Y-256830000D03*
%TD*%
D15*
%TO.P,D72,1,K*%
%TO.N,ROW11*%
X396731500Y-328000000D03*
D16*
%TO.P,D72,2,A*%
%TO.N,Net-(D72-A)*%
X404268500Y-328000000D03*
%TD*%
D15*
%TO.P,D62,1,K*%
%TO.N,ROW7*%
X343131500Y-241500000D03*
D16*
%TO.P,D62,2,A*%
%TO.N,Net-(D62-A)*%
X350668500Y-241500000D03*
%TD*%
D15*
%TO.P,D37,1,K*%
%TO.N,ROW6*%
X262263000Y-220250000D03*
D16*
%TO.P,D37,2,A*%
%TO.N,Net-(D37-A)*%
X269800000Y-220250000D03*
%TD*%
D10*
%TO.P,SW27,1,1*%
%TO.N,COL3*%
X114500000Y-280000000D03*
%TO.P,SW27,2,2*%
%TO.N,Net-(D25-A)*%
X121500000Y-281050000D03*
%TD*%
D15*
%TO.P,D81,1,K*%
%TO.N,ROW8*%
X393031500Y-263000000D03*
D16*
%TO.P,D81,2,A*%
%TO.N,Net-(D81-A)*%
X400568500Y-263000000D03*
%TD*%
D15*
%TO.P,D26,1,K*%
%TO.N,ROW3*%
X132931500Y-285200000D03*
D16*
%TO.P,D26,2,A*%
%TO.N,Net-(D26-A)*%
X140468500Y-285200000D03*
%TD*%
D15*
%TO.P,D58,1,K*%
%TO.N,ROW9*%
X325131500Y-284500000D03*
D16*
%TO.P,D58,2,A*%
%TO.N,Net-(D58-A)*%
X332668500Y-284500000D03*
%TD*%
D15*
%TO.P,D45,1,K*%
%TO.N,ROW8*%
X279900000Y-263000000D03*
D16*
%TO.P,D45,2,A*%
%TO.N,Net-(D45-A)*%
X287437000Y-263000000D03*
%TD*%
D15*
%TO.P,D34,1,K*%
%TO.N,ROW4*%
X158231500Y-306500000D03*
D16*
%TO.P,D34,2,A*%
%TO.N,Net-(D34-A)*%
X165768500Y-306500000D03*
%TD*%
D10*
%TO.P,SW3,1,1*%
%TO.N,COL0*%
X42500000Y-214000000D03*
%TO.P,SW3,2,2*%
%TO.N,Net-(D1-A)*%
X49500000Y-215050000D03*
%TD*%
D15*
%TO.P,D85,1,K*%
%TO.N,ROW6*%
X415031500Y-220250000D03*
D16*
%TO.P,D85,2,A*%
%TO.N,Net-(D85-A)*%
X422568500Y-220250000D03*
%TD*%
D15*
%TO.P,D84,1,K*%
%TO.N,ROW11*%
X434231500Y-328000000D03*
D16*
%TO.P,D84,2,A*%
%TO.N,Net-(D84-A)*%
X441768500Y-328000000D03*
%TD*%
D10*
%TO.P,SW90,1,1*%
%TO.N,COL14*%
X433500000Y-279450000D03*
%TO.P,SW90,2,2*%
%TO.N,Net-(D88-A)*%
X440500000Y-280500000D03*
%TD*%
D15*
%TO.P,D89,1,K*%
%TO.N,ROW10*%
X434531500Y-306000000D03*
D16*
%TO.P,D89,2,A*%
%TO.N,Net-(D89-A)*%
X442068500Y-306000000D03*
%TD*%
D15*
%TO.P,D22,1,K*%
%TO.N,ROW3*%
X51731500Y-285300000D03*
D16*
%TO.P,D22,2,A*%
%TO.N,Net-(D22-A)*%
X59268500Y-285300000D03*
%TD*%
D15*
%TO.P,D17,1,K*%
%TO.N,ROW2*%
X90731500Y-264800000D03*
D16*
%TO.P,D17,2,A*%
%TO.N,Net-(D17-A)*%
X98268500Y-264800000D03*
%TD*%
D15*
%TO.P,D21,1,K*%
%TO.N,ROW5*%
X76631500Y-327250000D03*
D16*
%TO.P,D21,2,A*%
%TO.N,Net-(D21-A)*%
X84168500Y-327250000D03*
%TD*%
D10*
%TO.P,SW8,1,1*%
%TO.N,COL5*%
X150600000Y-214200000D03*
%TO.P,SW8,2,2*%
%TO.N,Net-(D6-A)*%
X157600000Y-215250000D03*
%TD*%
%TO.P,SW91,1,1*%
%TO.N,COL14*%
X433900000Y-300700000D03*
%TO.P,SW91,2,2*%
%TO.N,Net-(D89-A)*%
X440900000Y-301750000D03*
%TD*%
%TO.P,SW57,1,1*%
%TO.N,COL9*%
X320900000Y-214950000D03*
%TO.P,SW57,2,2*%
%TO.N,Net-(D55-A)*%
X327900000Y-216000000D03*
%TD*%
D15*
%TO.P,D52,1,K*%
%TO.N,ROW9*%
X307131500Y-284500000D03*
D16*
%TO.P,D52,2,A*%
%TO.N,Net-(D52-A)*%
X314668500Y-284500000D03*
%TD*%
D17*
%TO.P,R1,1*%
%TO.N,+3V3*%
X184785000Y-295500000D03*
D18*
%TO.P,R1,2*%
%TO.N,2C*%
X196215000Y-295500000D03*
%TD*%
D10*
%TO.P,SW72,1,1*%
%TO.N,COL11*%
X360500000Y-279200000D03*
%TO.P,SW72,2,2*%
%TO.N,Net-(D70-A)*%
X367500000Y-280250000D03*
%TD*%
D17*
%TO.P,R2,1*%
%TO.N,+3V3*%
X227750000Y-295500000D03*
D18*
%TO.P,R2,2*%
%TO.N,1C*%
X239180000Y-295500000D03*
%TD*%
D10*
%TO.P,SW31,1,1*%
%TO.N,COL0*%
X55000000Y-300950000D03*
%TO.P,SW31,2,2*%
%TO.N,Net-(D29-A)*%
X62000000Y-302000000D03*
%TD*%
%TO.P,SW55,1,1*%
%TO.N,COL8*%
X314500000Y-301200000D03*
%TO.P,SW55,2,2*%
%TO.N,Net-(D53-A)*%
X321500000Y-302250000D03*
%TD*%
%TO.P,SW74,1,1*%
%TO.N,COL11*%
X396600000Y-322700000D03*
%TO.P,SW74,2,2*%
%TO.N,Net-(D72-A)*%
X403600000Y-323750000D03*
%TD*%
%TO.P,SW86,1,1*%
%TO.N,COL13*%
X434100000Y-322700000D03*
%TO.P,SW86,2,2*%
%TO.N,Net-(D84-A)*%
X441100000Y-323750000D03*
%TD*%
D15*
%TO.P,D3,1,K*%
%TO.N,ROW0*%
X88231500Y-219500000D03*
D16*
%TO.P,D3,2,A*%
%TO.N,Net-(D3-A)*%
X95768500Y-219500000D03*
%TD*%
D15*
%TO.P,D4,1,K*%
%TO.N,ROW0*%
X107000000Y-219500000D03*
D16*
%TO.P,D4,2,A*%
%TO.N,Net-(D4-A)*%
X114537000Y-219500000D03*
%TD*%
D10*
%TO.P,SW80,1,1*%
%TO.N,COL12*%
X414200000Y-322700000D03*
%TO.P,SW80,2,2*%
%TO.N,Net-(D78-A)*%
X421200000Y-323750000D03*
%TD*%
D15*
%TO.P,D44,1,K*%
%TO.N,ROW7*%
X288631500Y-241500000D03*
D16*
%TO.P,D44,2,A*%
%TO.N,Net-(D44-A)*%
X296168500Y-241500000D03*
%TD*%
D15*
%TO.P,D28,1,K*%
%TO.N,ROW5*%
X97563000Y-327250000D03*
D16*
%TO.P,D28,2,A*%
%TO.N,Net-(D28-A)*%
X105100000Y-327250000D03*
%TD*%
D10*
%TO.P,SW89,1,1*%
%TO.N,COL14*%
X414500000Y-257700000D03*
%TO.P,SW89,2,2*%
%TO.N,Net-(D87-A)*%
X421500000Y-258750000D03*
%TD*%
%TO.P,SW70,1,1*%
%TO.N,COL11*%
X360500000Y-236200000D03*
%TO.P,SW70,2,2*%
%TO.N,Net-(D68-A)*%
X367500000Y-237250000D03*
%TD*%
%TO.P,SW30,1,1*%
%TO.N,COL3*%
X96600000Y-321950000D03*
%TO.P,SW30,2,2*%
%TO.N,Net-(D28-A)*%
X103600000Y-323000000D03*
%TD*%
%TO.P,SW84,1,1*%
%TO.N,COL13*%
X414400000Y-279200000D03*
%TO.P,SW84,2,2*%
%TO.N,Net-(D82-A)*%
X421400000Y-280250000D03*
%TD*%
D15*
%TO.P,D12,1,K*%
%TO.N,ROW1*%
X136731500Y-241730000D03*
D16*
%TO.P,D12,2,A*%
%TO.N,Net-(D12-A)*%
X144268500Y-241730000D03*
%TD*%
D10*
%TO.P,SW37,1,1*%
%TO.N,COL4*%
X117100000Y-321700000D03*
%TO.P,SW37,2,2*%
%TO.N,Net-(D35-A)*%
X124100000Y-322750000D03*
%TD*%
%TO.P,SW64,1,1*%
%TO.N,COL10*%
X342500000Y-236200000D03*
%TO.P,SW64,2,2*%
%TO.N,Net-(D62-A)*%
X349500000Y-237250000D03*
%TD*%
%TO.P,SW75,1,1*%
%TO.N,COL12*%
X373400000Y-214950000D03*
%TO.P,SW75,2,2*%
%TO.N,Net-(D73-A)*%
X380400000Y-216000000D03*
%TD*%
%TO.P,SW15,1,1*%
%TO.N,COL5*%
X155000000Y-235950000D03*
%TO.P,SW15,2,2*%
%TO.N,Net-(D13-A)*%
X162000000Y-237000000D03*
%TD*%
%TO.P,SW53,1,1*%
%TO.N,COL8*%
X298000000Y-257700000D03*
%TO.P,SW53,2,2*%
%TO.N,Net-(D51-A)*%
X305000000Y-258750000D03*
%TD*%
D15*
%TO.P,D73,1,K*%
%TO.N,ROW6*%
X374531500Y-220250000D03*
D16*
%TO.P,D73,2,A*%
%TO.N,Net-(D73-A)*%
X382068500Y-220250000D03*
%TD*%
D15*
%TO.P,D50,1,K*%
%TO.N,ROW7*%
X307131500Y-241500000D03*
D16*
%TO.P,D50,2,A*%
%TO.N,Net-(D50-A)*%
X314668500Y-241500000D03*
%TD*%
D15*
%TO.P,D14,1,K*%
%TO.N,ROW5*%
X54831500Y-327350000D03*
D16*
%TO.P,D14,2,A*%
%TO.N,Net-(D14-A)*%
X62368500Y-327350000D03*
%TD*%
D15*
%TO.P,D47,1,K*%
%TO.N,ROW10*%
X295900000Y-306500000D03*
D16*
%TO.P,D47,2,A*%
%TO.N,Net-(D47-A)*%
X303437000Y-306500000D03*
%TD*%
D15*
%TO.P,D6,1,K*%
%TO.N,ROW0*%
X151231500Y-219500000D03*
D16*
%TO.P,D6,2,A*%
%TO.N,Net-(D6-A)*%
X158768500Y-219500000D03*
%TD*%
D15*
%TO.P,D65,1,K*%
%TO.N,ROW10*%
X351131500Y-306500000D03*
D16*
%TO.P,D65,2,A*%
%TO.N,Net-(D65-A)*%
X358668500Y-306500000D03*
%TD*%
D10*
%TO.P,SW65,1,1*%
%TO.N,COL10*%
X334000000Y-257700000D03*
%TO.P,SW65,2,2*%
%TO.N,Net-(D63-A)*%
X341000000Y-258750000D03*
%TD*%
D15*
%TO.P,D77,1,K*%
%TO.N,ROW10*%
X396631500Y-306500000D03*
D16*
%TO.P,D77,2,A*%
%TO.N,Net-(D77-A)*%
X404168500Y-306500000D03*
%TD*%
D15*
%TO.P,D51,1,K*%
%TO.N,ROW8*%
X298631500Y-263000000D03*
D16*
%TO.P,D51,2,A*%
%TO.N,Net-(D51-A)*%
X306168500Y-263000000D03*
%TD*%
D15*
%TO.P,D20,1,K*%
%TO.N,ROW2*%
X146500000Y-264170000D03*
D16*
%TO.P,D20,2,A*%
%TO.N,Net-(D20-A)*%
X154037000Y-264170000D03*
%TD*%
D15*
%TO.P,D10,1,K*%
%TO.N,ROW1*%
X99731500Y-242190000D03*
D16*
%TO.P,D10,2,A*%
%TO.N,Net-(D10-A)*%
X107268500Y-242190000D03*
%TD*%
D10*
%TO.P,SW40,1,1*%
%TO.N,COL6*%
X269500000Y-236200000D03*
%TO.P,SW40,2,2*%
%TO.N,Net-(D38-A)*%
X276500000Y-237250000D03*
%TD*%
D15*
%TO.P,D90,1,K*%
%TO.N,ROW11*%
X434231500Y-263000000D03*
D16*
%TO.P,D90,2,A*%
%TO.N,Net-(D90-A)*%
X441768500Y-263000000D03*
%TD*%
D10*
%TO.P,SW56,1,1*%
%TO.N,COL8*%
X314500000Y-322700000D03*
%TO.P,SW56,2,2*%
%TO.N,Net-(D54-A)*%
X321500000Y-323750000D03*
%TD*%
D15*
%TO.P,D16,1,K*%
%TO.N,ROW2*%
X71731500Y-264800000D03*
D16*
%TO.P,D16,2,A*%
%TO.N,Net-(D16-A)*%
X79268500Y-264800000D03*
%TD*%
D15*
%TO.P,D18,1,K*%
%TO.N,ROW2*%
X109231500Y-265030000D03*
D16*
%TO.P,D18,2,A*%
%TO.N,Net-(D18-A)*%
X116768500Y-265030000D03*
%TD*%
D10*
%TO.P,SW36,1,1*%
%TO.N,COL5*%
X157868500Y-300700000D03*
%TO.P,SW36,2,2*%
%TO.N,Net-(D34-A)*%
X164868500Y-301750000D03*
%TD*%
%TO.P,SW60,1,1*%
%TO.N,COL9*%
X324500000Y-279200000D03*
%TO.P,SW60,2,2*%
%TO.N,Net-(D58-A)*%
X331500000Y-280250000D03*
%TD*%
D15*
%TO.P,D8,1,K*%
%TO.N,ROW1*%
X62231500Y-242500000D03*
D16*
%TO.P,D8,2,A*%
%TO.N,Net-(D8-A)*%
X69768500Y-242500000D03*
%TD*%
D10*
%TO.P,SW82,1,1*%
%TO.N,COL13*%
X396500000Y-236200000D03*
%TO.P,SW82,2,2*%
%TO.N,Net-(D80-A)*%
X403500000Y-237250000D03*
%TD*%
D15*
%TO.P,D61,1,K*%
%TO.N,ROW6*%
X339531500Y-220250000D03*
D16*
%TO.P,D61,2,A*%
%TO.N,Net-(D61-A)*%
X347068500Y-220250000D03*
%TD*%
D15*
%TO.P,D41,1,K*%
%TO.N,ROW10*%
X278631500Y-306500000D03*
D16*
%TO.P,D41,2,A*%
%TO.N,Net-(D41-A)*%
X286168500Y-306500000D03*
%TD*%
D15*
%TO.P,D76,1,K*%
%TO.N,ROW9*%
X387363000Y-284500000D03*
D16*
%TO.P,D76,2,A*%
%TO.N,Net-(D76-A)*%
X394900000Y-284500000D03*
%TD*%
D15*
%TO.P,D35,1,K*%
%TO.N,ROW5*%
X117231500Y-327500000D03*
D16*
%TO.P,D35,2,A*%
%TO.N,Net-(D35-A)*%
X124768500Y-327500000D03*
%TD*%
D10*
%TO.P,SW79,1,1*%
%TO.N,COL12*%
X396500000Y-301200000D03*
%TO.P,SW79,2,2*%
%TO.N,Net-(D77-A)*%
X403500000Y-302250000D03*
%TD*%
%TO.P,SW87,1,1*%
%TO.N,COL14*%
X414400000Y-214950000D03*
%TO.P,SW87,2,2*%
%TO.N,Net-(D85-A)*%
X421400000Y-216000000D03*
%TD*%
%TO.P,SW19,1,1*%
%TO.N,COL2*%
X90100000Y-259200000D03*
%TO.P,SW19,2,2*%
%TO.N,Net-(D17-A)*%
X97100000Y-260250000D03*
%TD*%
%TO.P,SW9,1,1*%
%TO.N,COL0*%
X42500000Y-236450000D03*
%TO.P,SW9,2,2*%
%TO.N,Net-(D7-A)*%
X49500000Y-237500000D03*
%TD*%
D15*
%TO.P,D79,1,K*%
%TO.N,ROW6*%
X397531500Y-220250000D03*
D16*
%TO.P,D79,2,A*%
%TO.N,Net-(D79-A)*%
X405068500Y-220250000D03*
%TD*%
D10*
%TO.P,SW58,1,1*%
%TO.N,COL9*%
X324500000Y-236200000D03*
%TO.P,SW58,2,2*%
%TO.N,Net-(D56-A)*%
X331500000Y-237250000D03*
%TD*%
%TO.P,SW34,1,1*%
%TO.N,COL3*%
X120600000Y-300700000D03*
%TO.P,SW34,2,2*%
%TO.N,Net-(D32-A)*%
X127600000Y-301750000D03*
%TD*%
D15*
%TO.P,D59,1,K*%
%TO.N,ROW10*%
X332631500Y-306500000D03*
D16*
%TO.P,D59,2,A*%
%TO.N,Net-(D59-A)*%
X340168500Y-306500000D03*
%TD*%
D15*
%TO.P,D5,1,K*%
%TO.N,ROW0*%
X125463000Y-219500000D03*
D16*
%TO.P,D5,2,A*%
%TO.N,Net-(D5-A)*%
X133000000Y-219500000D03*
%TD*%
D15*
%TO.P,D71,1,K*%
%TO.N,ROW10*%
X374131500Y-306500000D03*
D16*
%TO.P,D71,2,A*%
%TO.N,Net-(D71-A)*%
X381668500Y-306500000D03*
%TD*%
D10*
%TO.P,SW52,1,1*%
%TO.N,COL8*%
X306500000Y-236200000D03*
%TO.P,SW52,2,2*%
%TO.N,Net-(D50-A)*%
X313500000Y-237250000D03*
%TD*%
%TO.P,SW66,1,1*%
%TO.N,COL10*%
X342500000Y-279200000D03*
%TO.P,SW66,2,2*%
%TO.N,Net-(D64-A)*%
X349500000Y-280250000D03*
%TD*%
D15*
%TO.P,D67,1,K*%
%TO.N,ROW6*%
X357031500Y-220250000D03*
D16*
%TO.P,D67,2,A*%
%TO.N,Net-(D67-A)*%
X364568500Y-220250000D03*
%TD*%
D10*
%TO.P,SW17,1,1*%
%TO.N,COL0*%
X46600000Y-259200000D03*
%TO.P,SW17,2,2*%
%TO.N,Net-(D15-A)*%
X53600000Y-260250000D03*
%TD*%
D15*
%TO.P,D70,1,K*%
%TO.N,ROW9*%
X360631500Y-284500000D03*
D16*
%TO.P,D70,2,A*%
%TO.N,Net-(D70-A)*%
X368168500Y-284500000D03*
%TD*%
D15*
%TO.P,D63,1,K*%
%TO.N,ROW8*%
X334631500Y-263000000D03*
D16*
%TO.P,D63,2,A*%
%TO.N,Net-(D63-A)*%
X342168500Y-263000000D03*
%TD*%
D15*
%TO.P,D46,1,K*%
%TO.N,ROW9*%
X288400000Y-284500000D03*
D16*
%TO.P,D46,2,A*%
%TO.N,Net-(D46-A)*%
X295937000Y-284500000D03*
%TD*%
D10*
%TO.P,SW21,1,1*%
%TO.N,COL4*%
X127100000Y-259200000D03*
%TO.P,SW21,2,2*%
%TO.N,Net-(D19-A)*%
X134100000Y-260250000D03*
%TD*%
%TO.P,SW73,1,1*%
%TO.N,COL11*%
X373500000Y-301200000D03*
%TO.P,SW73,2,2*%
%TO.N,Net-(D71-A)*%
X380500000Y-302250000D03*
%TD*%
%TO.P,SW11,1,1*%
%TO.N,COL1*%
X80500000Y-236200000D03*
%TO.P,SW11,2,2*%
%TO.N,Net-(D9-A)*%
X87500000Y-237250000D03*
%TD*%
%TO.P,SW45,1,1*%
%TO.N,COL7*%
X278900000Y-214940000D03*
%TO.P,SW45,2,2*%
%TO.N,Net-(D43-A)*%
X285900000Y-215990000D03*
%TD*%
%TO.P,SW42,1,1*%
%TO.N,COL6*%
X269500000Y-279200000D03*
%TO.P,SW42,2,2*%
%TO.N,Net-(D40-A)*%
X276500000Y-280250000D03*
%TD*%
%TO.P,SW51,1,1*%
%TO.N,COL8*%
X296400000Y-214950000D03*
%TO.P,SW51,2,2*%
%TO.N,Net-(D49-A)*%
X303400000Y-216000000D03*
%TD*%
%TO.P,SW41,1,1*%
%TO.N,COL6*%
X261000000Y-257700000D03*
%TO.P,SW41,2,2*%
%TO.N,Net-(D39-A)*%
X268000000Y-258750000D03*
%TD*%
D15*
%TO.P,D9,1,K*%
%TO.N,ROW1*%
X81731500Y-242000000D03*
D16*
%TO.P,D9,2,A*%
%TO.N,Net-(D9-A)*%
X89268500Y-242000000D03*
%TD*%
D10*
%TO.P,SW13,1,1*%
%TO.N,COL3*%
X118000000Y-235950000D03*
%TO.P,SW13,2,2*%
%TO.N,Net-(D11-A)*%
X125000000Y-237000000D03*
%TD*%
D15*
%TO.P,D48,1,K*%
%TO.N,ROW11*%
X287131500Y-327300000D03*
D16*
%TO.P,D48,2,A*%
%TO.N,Net-(D48-A)*%
X294668500Y-327300000D03*
%TD*%
D15*
%TO.P,D54,1,K*%
%TO.N,ROW11*%
X315231500Y-328000000D03*
D16*
%TO.P,D54,2,A*%
%TO.N,Net-(D54-A)*%
X322768500Y-328000000D03*
%TD*%
D10*
%TO.P,SW44,1,1*%
%TO.N,COL6*%
X269137000Y-322200000D03*
%TO.P,SW44,2,2*%
%TO.N,Net-(D42-A)*%
X276137000Y-323250000D03*
%TD*%
%TO.P,SW43,1,1*%
%TO.N,COL6*%
X277500000Y-301200000D03*
%TO.P,SW43,2,2*%
%TO.N,Net-(D41-A)*%
X284500000Y-302250000D03*
%TD*%
%TO.P,SW6,1,1*%
%TO.N,COL3*%
X106600000Y-214200000D03*
%TO.P,SW6,2,2*%
%TO.N,Net-(D4-A)*%
X113600000Y-215250000D03*
%TD*%
%TO.P,SW49,1,1*%
%TO.N,COL7*%
X296000000Y-301200000D03*
%TO.P,SW49,2,2*%
%TO.N,Net-(D47-A)*%
X303000000Y-302250000D03*
%TD*%
D13*
%TO.P,J1,1,Pin_1*%
%TO.N,GND*%
X186420000Y-326000000D03*
D11*
%TO.P,J1,2,Pin_2*%
%TO.N,+3V3*%
X188960000Y-326000000D03*
%TO.P,J1,3,Pin_3*%
%TO.N,TRACKCL*%
X191500000Y-326000000D03*
%TO.P,J1,4,Pin_4*%
%TO.N,TRACKD*%
X194040000Y-326000000D03*
%TD*%
D10*
%TO.P,SW12,1,1*%
%TO.N,COL2*%
X99500000Y-236000000D03*
%TO.P,SW12,2,2*%
%TO.N,Net-(D10-A)*%
X106500000Y-237050000D03*
%TD*%
%TO.P,SW62,1,1*%
%TO.N,COL9*%
X332500000Y-322500000D03*
%TO.P,SW62,2,2*%
%TO.N,Net-(D60-A)*%
X339500000Y-323550000D03*
%TD*%
%TO.P,SW29,1,1*%
%TO.N,COL5*%
X150900000Y-279580000D03*
%TO.P,SW29,2,2*%
%TO.N,Net-(D27-A)*%
X157900000Y-280630000D03*
%TD*%
D19*
%TO.P,Brd1,1,GND*%
%TO.N,GND*%
X199950000Y-272580000D03*
%TO.P,Brd1,2,VCC*%
%TO.N,+3V3*%
X199950000Y-275120000D03*
%TO.P,Brd1,3,SCL*%
%TO.N,SCL*%
X199950000Y-277660000D03*
%TO.P,Brd1,4,SDA*%
%TO.N,SDA*%
X199950000Y-280200000D03*
%TD*%
D15*
%TO.P,D42,1,K*%
%TO.N,ROW11*%
X269500000Y-327500000D03*
D16*
%TO.P,D42,2,A*%
%TO.N,Net-(D42-A)*%
X277037000Y-327500000D03*
%TD*%
D10*
%TO.P,SW83,1,1*%
%TO.N,COL13*%
X392400000Y-257700000D03*
%TO.P,SW83,2,2*%
%TO.N,Net-(D81-A)*%
X399400000Y-258750000D03*
%TD*%
D15*
%TO.P,D83,1,K*%
%TO.N,ROW10*%
X415131500Y-306500000D03*
D16*
%TO.P,D83,2,A*%
%TO.N,Net-(D83-A)*%
X422668500Y-306500000D03*
%TD*%
D10*
%TO.P,SW33,1,1*%
%TO.N,COL2*%
X101500000Y-300700000D03*
%TO.P,SW33,2,2*%
%TO.N,Net-(D31-A)*%
X108500000Y-301750000D03*
%TD*%
%TO.P,SW67,1,1*%
%TO.N,COL10*%
X350500000Y-301200000D03*
%TO.P,SW67,2,2*%
%TO.N,Net-(D65-A)*%
X357500000Y-302250000D03*
%TD*%
%TO.P,SW92,1,1*%
%TO.N,COL14*%
X433600000Y-257700000D03*
%TO.P,SW92,2,2*%
%TO.N,Net-(D90-A)*%
X440600000Y-258750000D03*
%TD*%
%TO.P,SW46,1,1*%
%TO.N,COL7*%
X288000000Y-236200000D03*
%TO.P,SW46,2,2*%
%TO.N,Net-(D44-A)*%
X295000000Y-237250000D03*
%TD*%
D15*
%TO.P,D53,1,K*%
%TO.N,ROW10*%
X314631500Y-306500000D03*
D16*
%TO.P,D53,2,A*%
%TO.N,Net-(D53-A)*%
X322168500Y-306500000D03*
%TD*%
D15*
%TO.P,D86,1,K*%
%TO.N,ROW7*%
X415131500Y-241500000D03*
D16*
%TO.P,D86,2,A*%
%TO.N,Net-(D86-A)*%
X422668500Y-241500000D03*
%TD*%
D15*
%TO.P,D69,1,K*%
%TO.N,ROW8*%
X352631500Y-263000000D03*
D16*
%TO.P,D69,2,A*%
%TO.N,Net-(D69-A)*%
X360168500Y-263000000D03*
%TD*%
D15*
%TO.P,D39,1,K*%
%TO.N,ROW8*%
X261631500Y-263000000D03*
D16*
%TO.P,D39,2,A*%
%TO.N,Net-(D39-A)*%
X269168500Y-263000000D03*
%TD*%
D10*
%TO.P,SW63,1,1*%
%TO.N,COL10*%
X338400000Y-214950000D03*
%TO.P,SW63,2,2*%
%TO.N,Net-(D61-A)*%
X345400000Y-216000000D03*
%TD*%
%TO.P,SW26,1,1*%
%TO.N,COL2*%
X95900000Y-280000000D03*
%TO.P,SW26,2,2*%
%TO.N,Net-(D24-A)*%
X102900000Y-281050000D03*
%TD*%
%TO.P,SW47,1,1*%
%TO.N,COL7*%
X279500000Y-257700000D03*
%TO.P,SW47,2,2*%
%TO.N,Net-(D45-A)*%
X286500000Y-258750000D03*
%TD*%
%TO.P,SW48,1,1*%
%TO.N,COL7*%
X288000000Y-279200000D03*
%TO.P,SW48,2,2*%
%TO.N,Net-(D46-A)*%
X295000000Y-280250000D03*
%TD*%
%TO.P,SW25,1,1*%
%TO.N,COL1*%
X77400000Y-280000000D03*
%TO.P,SW25,2,2*%
%TO.N,Net-(D23-A)*%
X84400000Y-281050000D03*
%TD*%
%TO.P,SW69,1,1*%
%TO.N,COL11*%
X355900000Y-214950000D03*
%TO.P,SW69,2,2*%
%TO.N,Net-(D67-A)*%
X362900000Y-216000000D03*
%TD*%
%TO.P,SW50,1,1*%
%TO.N,COL7*%
X286500000Y-322000000D03*
%TO.P,SW50,2,2*%
%TO.N,Net-(D48-A)*%
X293500000Y-323050000D03*
%TD*%
D15*
%TO.P,D43,1,K*%
%TO.N,ROW6*%
X279531500Y-220250000D03*
D16*
%TO.P,D43,2,A*%
%TO.N,Net-(D43-A)*%
X287068500Y-220250000D03*
%TD*%
D10*
%TO.P,SW24,1,1*%
%TO.N,COL0*%
X51200000Y-279800000D03*
%TO.P,SW24,2,2*%
%TO.N,Net-(D22-A)*%
X58200000Y-280850000D03*
%TD*%
D15*
%TO.P,D7,1,K*%
%TO.N,ROW5*%
X43331500Y-242500000D03*
D16*
%TO.P,D7,2,A*%
%TO.N,Net-(D7-A)*%
X50868500Y-242500000D03*
%TD*%
D15*
%TO.P,D80,1,K*%
%TO.N,ROW7*%
X397131500Y-241500000D03*
D16*
%TO.P,D80,2,A*%
%TO.N,Net-(D80-A)*%
X404668500Y-241500000D03*
%TD*%
D10*
%TO.P,SW54,1,1*%
%TO.N,COL8*%
X306500000Y-279200000D03*
%TO.P,SW54,2,2*%
%TO.N,Net-(D52-A)*%
X313500000Y-280250000D03*
%TD*%
D15*
%TO.P,D55,1,K*%
%TO.N,ROW6*%
X321531500Y-220250000D03*
D16*
%TO.P,D55,2,A*%
%TO.N,Net-(D55-A)*%
X329068500Y-220250000D03*
%TD*%
D20*
%TO.P,SW2,A,A*%
%TO.N,2A*%
X183500000Y-305400000D03*
D21*
%TO.P,SW2,B,B*%
%TO.N,2B*%
X183500000Y-310400000D03*
%TO.P,SW2,C,C*%
%TO.N,+3V3*%
X183500000Y-307900000D03*
D22*
%TO.P,SW2,MP*%
%TO.N,N/C*%
X191000000Y-302300000D03*
X191000000Y-313500000D03*
D21*
%TO.P,SW2,S1,S1*%
%TO.N,GND*%
X198000000Y-310400000D03*
%TO.P,SW2,S2,S2*%
%TO.N,2C*%
X198000000Y-305400000D03*
%TD*%
D13*
%TO.P,J3,1,Pin_1*%
%TO.N,GND*%
X218000000Y-318700000D03*
D11*
%TO.P,J3,2,Pin_2*%
%TO.N,RX*%
X218000000Y-321240000D03*
%TO.P,J3,3,Pin_3*%
%TO.N,TX*%
X218000000Y-323780000D03*
%TO.P,J3,4,Pin_4*%
%TO.N,+3V3*%
X218000000Y-326320000D03*
%TD*%
D15*
%TO.P,D49,1,K*%
%TO.N,ROW6*%
X296556500Y-220460000D03*
D16*
%TO.P,D49,2,A*%
%TO.N,Net-(D49-A)*%
X304093500Y-220460000D03*
%TD*%
D15*
%TO.P,D74,1,K*%
%TO.N,ROW7*%
X379131500Y-241500000D03*
D16*
%TO.P,D74,2,A*%
%TO.N,Net-(D74-A)*%
X386668500Y-241500000D03*
%TD*%
D15*
%TO.P,D19,1,K*%
%TO.N,ROW2*%
X127731500Y-264800000D03*
D16*
%TO.P,D19,2,A*%
%TO.N,Net-(D19-A)*%
X135268500Y-264800000D03*
%TD*%
D15*
%TO.P,D30,1,K*%
%TO.N,ROW4*%
X83363000Y-306000000D03*
D16*
%TO.P,D30,2,A*%
%TO.N,Net-(D30-A)*%
X90900000Y-306000000D03*
%TD*%
D10*
%TO.P,SW5,1,1*%
%TO.N,COL2*%
X87700000Y-214200000D03*
%TO.P,SW5,2,2*%
%TO.N,Net-(D3-A)*%
X94700000Y-215250000D03*
%TD*%
%TO.P,SW77,1,1*%
%TO.N,COL12*%
X370000000Y-257700000D03*
%TO.P,SW77,2,2*%
%TO.N,Net-(D75-A)*%
X377000000Y-258750000D03*
%TD*%
D15*
%TO.P,D27,1,K*%
%TO.N,ROW3*%
X151731500Y-285000000D03*
D16*
%TO.P,D27,2,A*%
%TO.N,Net-(D27-A)*%
X159268500Y-285000000D03*
%TD*%
D10*
%TO.P,SW81,1,1*%
%TO.N,COL13*%
X396900000Y-215100000D03*
%TO.P,SW81,2,2*%
%TO.N,Net-(D79-A)*%
X403900000Y-216150000D03*
%TD*%
D15*
%TO.P,D87,1,K*%
%TO.N,ROW8*%
X414863000Y-263000000D03*
D16*
%TO.P,D87,2,A*%
%TO.N,Net-(D87-A)*%
X422400000Y-263000000D03*
%TD*%
D10*
%TO.P,SW20,1,1*%
%TO.N,COL3*%
X108600000Y-259200000D03*
%TO.P,SW20,2,2*%
%TO.N,Net-(D18-A)*%
X115600000Y-260250000D03*
%TD*%
%TO.P,SW61,1,1*%
%TO.N,COL9*%
X332500000Y-301200000D03*
%TO.P,SW61,2,2*%
%TO.N,Net-(D59-A)*%
X339500000Y-302250000D03*
%TD*%
D20*
%TO.P,SW1,A,A*%
%TO.N,1A*%
X240750000Y-310500000D03*
D21*
%TO.P,SW1,B,B*%
%TO.N,1B*%
X240750000Y-305500000D03*
%TO.P,SW1,C,C*%
%TO.N,+3V3*%
X240750000Y-308000000D03*
D22*
%TO.P,SW1,MP*%
%TO.N,N/C*%
X233250000Y-313600000D03*
X233250000Y-302400000D03*
D21*
%TO.P,SW1,S1,S1*%
%TO.N,GND*%
X226250000Y-305500000D03*
%TO.P,SW1,S2,S2*%
%TO.N,1C*%
X226250000Y-310500000D03*
%TD*%
D10*
%TO.P,SW14,1,1*%
%TO.N,COL4*%
X136400000Y-236000000D03*
%TO.P,SW14,2,2*%
%TO.N,Net-(D12-A)*%
X143400000Y-237050000D03*
%TD*%
D15*
%TO.P,D68,1,K*%
%TO.N,ROW7*%
X361131500Y-241500000D03*
D16*
%TO.P,D68,2,A*%
%TO.N,Net-(D68-A)*%
X368668500Y-241500000D03*
%TD*%
D15*
%TO.P,D15,1,K*%
%TO.N,ROW2*%
X47463000Y-264800000D03*
D16*
%TO.P,D15,2,A*%
%TO.N,Net-(D15-A)*%
X55000000Y-264800000D03*
%TD*%
D15*
%TO.P,D2,1,K*%
%TO.N,ROW0*%
X69463000Y-219500000D03*
D16*
%TO.P,D2,2,A*%
%TO.N,Net-(D2-A)*%
X77000000Y-219500000D03*
%TD*%
D15*
%TO.P,D66,1,K*%
%TO.N,ROW11*%
X378731500Y-328000000D03*
D16*
%TO.P,D66,2,A*%
%TO.N,Net-(D66-A)*%
X386268500Y-328000000D03*
%TD*%
D10*
%TO.P,SW88,1,1*%
%TO.N,COL14*%
X414500000Y-236200000D03*
%TO.P,SW88,2,2*%
%TO.N,Net-(D86-A)*%
X421500000Y-237250000D03*
%TD*%
D15*
%TO.P,D32,1,K*%
%TO.N,ROW4*%
X121231500Y-306500000D03*
D16*
%TO.P,D32,2,A*%
%TO.N,Net-(D32-A)*%
X128768500Y-306500000D03*
%TD*%
D10*
%TO.P,SW68,1,1*%
%TO.N,COL10*%
X378600000Y-322700000D03*
%TO.P,SW68,2,2*%
%TO.N,Net-(D66-A)*%
X385600000Y-323750000D03*
%TD*%
%TO.P,SW18,1,1*%
%TO.N,COL1*%
X71100000Y-259200000D03*
%TO.P,SW18,2,2*%
%TO.N,Net-(D16-A)*%
X78100000Y-260250000D03*
%TD*%
D15*
%TO.P,D23,1,K*%
%TO.N,ROW3*%
X78431500Y-285300000D03*
D16*
%TO.P,D23,2,A*%
%TO.N,Net-(D23-A)*%
X85968500Y-285300000D03*
%TD*%
D10*
%TO.P,SW35,1,1*%
%TO.N,COL4*%
X139368500Y-300700000D03*
%TO.P,SW35,2,2*%
%TO.N,Net-(D33-A)*%
X146368500Y-301750000D03*
%TD*%
D15*
%TO.P,D1,1,K*%
%TO.N,ROW0*%
X43231500Y-219500000D03*
D16*
%TO.P,D1,2,A*%
%TO.N,Net-(D1-A)*%
X50768500Y-219500000D03*
%TD*%
D10*
%TO.P,SW7,1,1*%
%TO.N,COL4*%
X125100000Y-214200000D03*
%TO.P,SW7,2,2*%
%TO.N,Net-(D5-A)*%
X132100000Y-215250000D03*
%TD*%
%TO.P,SW32,1,1*%
%TO.N,COL1*%
X82900000Y-300700000D03*
%TO.P,SW32,2,2*%
%TO.N,Net-(D30-A)*%
X89900000Y-301750000D03*
%TD*%
%TO.P,SW71,1,1*%
%TO.N,COL11*%
X352000000Y-257700000D03*
%TO.P,SW71,2,2*%
%TO.N,Net-(D69-A)*%
X359000000Y-258750000D03*
%TD*%
%TO.P,SW23,1,1*%
%TO.N,COL2*%
X75500000Y-321950000D03*
%TO.P,SW23,2,2*%
%TO.N,Net-(D21-A)*%
X82500000Y-323000000D03*
%TD*%
D11*
%TO.P,U2,1,GPIO0*%
%TO.N,RX*%
X224610000Y-207740000D03*
D12*
X223710000Y-207740000D03*
D11*
%TO.P,U2,2,GPIO1*%
%TO.N,TX*%
X224610000Y-210280000D03*
D12*
X223710000Y-210280000D03*
D13*
%TO.P,U2,3,GND*%
%TO.N,GND*%
X224610000Y-212820000D03*
D12*
X223710000Y-212820000D03*
D11*
%TO.P,U2,4,GPIO2*%
%TO.N,unconnected-(U2-GPIO2-Pad4)*%
X224610000Y-215360000D03*
D12*
X223710000Y-215360000D03*
D11*
%TO.P,U2,5,GPIO3*%
%TO.N,unconnected-(U2-GPIO3-Pad5)*%
X224610000Y-217900000D03*
D12*
X223710000Y-217900000D03*
D11*
%TO.P,U2,6,GPIO4*%
%TO.N,unconnected-(U2-GPIO4-Pad6)*%
X224610000Y-220440000D03*
D12*
X223710000Y-220440000D03*
D11*
%TO.P,U2,7,GPIO5*%
%TO.N,unconnected-(U2-GPIO5-Pad7)*%
X224610000Y-222980000D03*
D12*
X223710000Y-222980000D03*
D13*
%TO.P,U2,8,GND*%
%TO.N,GND*%
X224610000Y-225520000D03*
D12*
X223710000Y-225520000D03*
D11*
%TO.P,U2,9,GPIO6*%
%TO.N,unconnected-(U2-GPIO6-Pad9)*%
X224610000Y-228060000D03*
D12*
X223710000Y-228060000D03*
D11*
%TO.P,U2,10,GPIO7*%
%TO.N,1A*%
X224610000Y-230600000D03*
D12*
X223710000Y-230600000D03*
D11*
%TO.P,U2,11,GPIO8*%
%TO.N,1B*%
X224610000Y-233140000D03*
D12*
X223710000Y-233140000D03*
D11*
%TO.P,U2,12,GPIO9*%
%TO.N,1C*%
X224610000Y-235680000D03*
D12*
X223710000Y-235680000D03*
D13*
%TO.P,U2,13,GND*%
%TO.N,GND*%
X224610000Y-238220000D03*
D12*
X223710000Y-238220000D03*
D11*
%TO.P,U2,14,GPIO10*%
%TO.N,unconnected-(U2-GPIO10-Pad14)*%
X224610000Y-240760000D03*
D12*
X223710000Y-240760000D03*
D11*
%TO.P,U2,15,GPIO11*%
%TO.N,ROW11*%
X224610000Y-243300000D03*
D12*
X223710000Y-243300000D03*
D11*
%TO.P,U2,16,GPIO12*%
%TO.N,ROW10*%
X224610000Y-245840000D03*
D12*
X223710000Y-245840000D03*
D11*
%TO.P,U2,17,GPIO13*%
%TO.N,ROW9*%
X224610000Y-248380000D03*
D12*
X223710000Y-248380000D03*
D13*
%TO.P,U2,18,GND*%
%TO.N,GND*%
X224610000Y-250920000D03*
D12*
X223710000Y-250920000D03*
D11*
%TO.P,U2,19,GPIO14*%
%TO.N,ROW8*%
X224610000Y-253460000D03*
D12*
X223710000Y-253460000D03*
D11*
%TO.P,U2,20,GPIO15*%
%TO.N,ROW7*%
X224610000Y-256000000D03*
D12*
X223710000Y-256000000D03*
D11*
%TO.P,U2,21,GPIO16*%
%TO.N,ROW6*%
X242390000Y-256000000D03*
D12*
X243290000Y-256000000D03*
D11*
%TO.P,U2,22,GPIO17*%
%TO.N,COL14*%
X242390000Y-253460000D03*
D12*
X243290000Y-253460000D03*
D13*
%TO.P,U2,23,GND*%
%TO.N,GND*%
X242390000Y-250920000D03*
D12*
X243290000Y-250920000D03*
D11*
%TO.P,U2,24,GPIO18*%
%TO.N,COL13*%
X242390000Y-248380000D03*
D12*
X243290000Y-248380000D03*
D11*
%TO.P,U2,25,GPIO19*%
%TO.N,COL12*%
X242390000Y-245840000D03*
D12*
X243290000Y-245840000D03*
D11*
%TO.P,U2,26,GPIO20*%
%TO.N,COL11*%
X242390000Y-243300000D03*
D12*
X243290000Y-243300000D03*
D11*
%TO.P,U2,27,GPIO21*%
%TO.N,COL10*%
X242390000Y-240760000D03*
D12*
X243290000Y-240760000D03*
D13*
%TO.P,U2,28,GND*%
%TO.N,GND*%
X242390000Y-238220000D03*
D12*
X243290000Y-238220000D03*
D11*
%TO.P,U2,29,GPIO22*%
%TO.N,COL9*%
X242390000Y-235680000D03*
D12*
X243290000Y-235680000D03*
D11*
%TO.P,U2,30,RUN*%
%TO.N,unconnected-(U2-RUN-Pad30)*%
X242390000Y-233140000D03*
D12*
X243290000Y-233140000D03*
D11*
%TO.P,U2,31,GPIO26_ADC0*%
%TO.N,COL8*%
X242390000Y-230600000D03*
D12*
X243290000Y-230600000D03*
D11*
%TO.P,U2,32,GPIO27_ADC1*%
%TO.N,COL7*%
X242390000Y-228060000D03*
D12*
X243290000Y-228060000D03*
D13*
%TO.P,U2,33,AGND*%
%TO.N,GND*%
X242390000Y-225520000D03*
D12*
X243290000Y-225520000D03*
D11*
%TO.P,U2,34,GPIO28_ADC2*%
%TO.N,COL6*%
X242390000Y-222980000D03*
D12*
X243290000Y-222980000D03*
D11*
%TO.P,U2,35,ADC_VREF*%
%TO.N,unconnected-(U2-ADC_VREF-Pad35)*%
X242390000Y-220440000D03*
D12*
X243290000Y-220440000D03*
D11*
%TO.P,U2,36,3V3*%
%TO.N,+3V3*%
X242390000Y-217900000D03*
D12*
X243290000Y-217900000D03*
D11*
%TO.P,U2,37,3V3_EN*%
%TO.N,unconnected-(U2-3V3_EN-Pad37)*%
X242390000Y-215360000D03*
D12*
X243290000Y-215360000D03*
D13*
%TO.P,U2,38,GND*%
%TO.N,GND*%
X242390000Y-212820000D03*
D12*
X243290000Y-212820000D03*
D11*
%TO.P,U2,39,VSYS*%
%TO.N,unconnected-(U2-VSYS-Pad39)*%
X242390000Y-210280000D03*
D12*
X243290000Y-210280000D03*
D11*
%TO.P,U2,40,VBUS*%
%TO.N,unconnected-(U2-VBUS-Pad40)*%
X242390000Y-207740000D03*
D12*
X243290000Y-207740000D03*
D11*
%TO.P,U2,41,SWCLK*%
%TO.N,unconnected-(U2-SWCLK-Pad41)*%
X230960000Y-255770000D03*
D14*
X230960000Y-256670000D03*
D13*
%TO.P,U2,42,GND*%
%TO.N,GND*%
X233500000Y-255770000D03*
D14*
X233500000Y-256670000D03*
D11*
%TO.P,U2,43,SWDIO*%
%TO.N,unconnected-(U2-SWDIO-Pad43)*%
X236040000Y-255770000D03*
D14*
X236040000Y-256670000D03*
%TD*%
D15*
%TO.P,D57,1,K*%
%TO.N,ROW8*%
X316631500Y-263000000D03*
D16*
%TO.P,D57,2,A*%
%TO.N,Net-(D57-A)*%
X324168500Y-263000000D03*
%TD*%
D15*
%TO.P,D31,1,K*%
%TO.N,ROW4*%
X102131500Y-306000000D03*
D16*
%TO.P,D31,2,A*%
%TO.N,Net-(D31-A)*%
X109668500Y-306000000D03*
%TD*%
D15*
%TO.P,D40,1,K*%
%TO.N,ROW9*%
X269631500Y-284500000D03*
D16*
%TO.P,D40,2,A*%
%TO.N,Net-(D40-A)*%
X277168500Y-284500000D03*
%TD*%
D15*
%TO.P,D11,1,K*%
%TO.N,ROW1*%
X118731500Y-241460000D03*
D16*
%TO.P,D11,2,A*%
%TO.N,Net-(D11-A)*%
X126268500Y-241460000D03*
%TD*%
D15*
%TO.P,D24,1,K*%
%TO.N,ROW3*%
X96431500Y-285300000D03*
D16*
%TO.P,D24,2,A*%
%TO.N,Net-(D24-A)*%
X103968500Y-285300000D03*
%TD*%
D15*
%TO.P,D36,1,K*%
%TO.N,ROW5*%
X147731500Y-327500000D03*
D16*
%TO.P,D36,2,A*%
%TO.N,Net-(D36-A)*%
X155268500Y-327500000D03*
%TD*%
D15*
%TO.P,D82,1,K*%
%TO.N,ROW9*%
X415031500Y-284500000D03*
D16*
%TO.P,D82,2,A*%
%TO.N,Net-(D82-A)*%
X422568500Y-284500000D03*
%TD*%
D10*
%TO.P,SW28,1,1*%
%TO.N,COL4*%
X132800000Y-279700000D03*
%TO.P,SW28,2,2*%
%TO.N,Net-(D26-A)*%
X139800000Y-280750000D03*
%TD*%
%TO.P,SW38,1,1*%
%TO.N,COL5*%
X146700000Y-321700000D03*
%TO.P,SW38,2,2*%
%TO.N,Net-(D36-A)*%
X153700000Y-322750000D03*
%TD*%
D15*
%TO.P,D64,1,K*%
%TO.N,ROW9*%
X343131500Y-284500000D03*
D16*
%TO.P,D64,2,A*%
%TO.N,Net-(D64-A)*%
X350668500Y-284500000D03*
%TD*%
D15*
%TO.P,D38,1,K*%
%TO.N,ROW7*%
X269631500Y-241500000D03*
D16*
%TO.P,D38,2,A*%
%TO.N,Net-(D38-A)*%
X277168500Y-241500000D03*
%TD*%
D13*
%TO.P,J2,1,Pin_1*%
%TO.N,+3V3*%
X203500000Y-326000000D03*
D11*
%TO.P,J2,2,Pin_2*%
%TO.N,TX*%
X203500000Y-323460000D03*
%TO.P,J2,3,Pin_3*%
%TO.N,RX*%
X203500000Y-320920000D03*
%TO.P,J2,4,Pin_4*%
%TO.N,GND*%
X203500000Y-318380000D03*
%TD*%
D15*
%TO.P,D13,1,K*%
%TO.N,ROW1*%
X155731500Y-241500000D03*
D16*
%TO.P,D13,2,A*%
%TO.N,Net-(D13-A)*%
X163268500Y-241500000D03*
%TD*%
D10*
%TO.P,SW16,1,1*%
%TO.N,COL1*%
X54200000Y-321900000D03*
%TO.P,SW16,2,2*%
%TO.N,Net-(D14-A)*%
X61200000Y-322950000D03*
%TD*%
%TO.P,SW4,1,1*%
%TO.N,COL1*%
X68600000Y-214000000D03*
%TO.P,SW4,2,2*%
%TO.N,Net-(D2-A)*%
X75600000Y-215050000D03*
%TD*%
%TO.P,SW85,1,1*%
%TO.N,COL13*%
X414500000Y-301200000D03*
%TO.P,SW85,2,2*%
%TO.N,Net-(D83-A)*%
X421500000Y-302250000D03*
%TD*%
D15*
%TO.P,D78,1,K*%
%TO.N,ROW11*%
X414831500Y-328000000D03*
D16*
%TO.P,D78,2,A*%
%TO.N,Net-(D78-A)*%
X422368500Y-328000000D03*
%TD*%
D15*
%TO.P,D56,1,K*%
%TO.N,ROW7*%
X325131500Y-241500000D03*
D16*
%TO.P,D56,2,A*%
%TO.N,Net-(D56-A)*%
X332668500Y-241500000D03*
%TD*%
D15*
%TO.P,D29,1,K*%
%TO.N,ROW4*%
X54963000Y-306250000D03*
D16*
%TO.P,D29,2,A*%
%TO.N,Net-(D29-A)*%
X62500000Y-306250000D03*
%TD*%
D15*
%TO.P,D60,1,K*%
%TO.N,ROW11*%
X332731500Y-328000000D03*
D16*
%TO.P,D60,2,A*%
%TO.N,Net-(D60-A)*%
X340268500Y-328000000D03*
%TD*%
D15*
%TO.P,D25,1,K*%
%TO.N,ROW3*%
X114931500Y-285300000D03*
D16*
%TO.P,D25,2,A*%
%TO.N,Net-(D25-A)*%
X122468500Y-285300000D03*
%TD*%
D15*
%TO.P,D75,1,K*%
%TO.N,ROW8*%
X370631500Y-263000000D03*
D16*
%TO.P,D75,2,A*%
%TO.N,Net-(D75-A)*%
X378168500Y-263000000D03*
%TD*%
D15*
%TO.P,D33,1,K*%
%TO.N,ROW4*%
X140231500Y-306500000D03*
D16*
%TO.P,D33,2,A*%
%TO.N,Net-(D33-A)*%
X147768500Y-306500000D03*
%TD*%
D10*
%TO.P,SW78,1,1*%
%TO.N,COL12*%
X386731500Y-279200000D03*
%TO.P,SW78,2,2*%
%TO.N,Net-(D76-A)*%
X393731500Y-280250000D03*
%TD*%
%TO.P,SW39,1,1*%
%TO.N,COL6*%
X261400000Y-214950000D03*
%TO.P,SW39,2,2*%
%TO.N,Net-(D37-A)*%
X268400000Y-216000000D03*
%TD*%
D15*
%TO.P,D88,1,K*%
%TO.N,ROW9*%
X434131500Y-284750000D03*
D16*
%TO.P,D88,2,A*%
%TO.N,Net-(D88-A)*%
X441668500Y-284750000D03*
%TD*%
D10*
%TO.P,SW10,1,1*%
%TO.N,COL0*%
X61500000Y-236700000D03*
%TO.P,SW10,2,2*%
%TO.N,Net-(D8-A)*%
X68500000Y-237750000D03*
%TD*%
%TO.P,SW76,1,1*%
%TO.N,COL12*%
X378500000Y-236200000D03*
%TO.P,SW76,2,2*%
%TO.N,Net-(D74-A)*%
X385500000Y-237250000D03*
%TD*%
D23*
%TO.N,ROW9*%
X244612400Y-258535000D03*
%TO.N,ROW11*%
X241385900Y-298293500D03*
%TO.N,COL2*%
X205500000Y-217500000D03*
%TO.N,COL3*%
X204500000Y-218000000D03*
%TO.N,COL4*%
X201500000Y-241000000D03*
X203500000Y-218500000D03*
%TO.N,COL14*%
X245059800Y-260354900D03*
%TO.N,TX*%
X208500000Y-208500000D03*
%TO.N,RX*%
X207500000Y-207500000D03*
%TD*%
D24*
%TO.N,+3V3*%
X203500000Y-326000000D02*
X202325000Y-327175000D01*
X199527400Y-276246900D02*
X184785000Y-290989300D01*
X202325000Y-327175000D02*
X190135000Y-327175000D01*
X227580000Y-326320000D02*
X242075000Y-311825000D01*
X242075000Y-309325000D02*
X240750000Y-308000000D01*
X199950000Y-276246900D02*
X199527400Y-276246900D01*
X190135000Y-327175000D02*
X188960000Y-326000000D01*
X218000000Y-326320000D02*
X227580000Y-326320000D01*
X199950000Y-275120000D02*
X199950000Y-276246900D01*
X184785000Y-290989300D02*
X184785000Y-295500000D01*
X242075000Y-311825000D02*
X242075000Y-309325000D01*
%TO.N,ROW0*%
X69463000Y-219500000D02*
X68517100Y-219500000D01*
X67571200Y-218554100D02*
X68517100Y-219500000D01*
X125463000Y-219500000D02*
X126408900Y-219500000D01*
X45123300Y-218554100D02*
X67571200Y-218554100D01*
X106054100Y-219500000D02*
X105108200Y-220445900D01*
X69463000Y-219500000D02*
X70408900Y-219500000D01*
X88231500Y-219500000D02*
X89177400Y-219500000D01*
X43231500Y-219500000D02*
X44177400Y-219500000D01*
X123571200Y-220445900D02*
X124517100Y-219500000D01*
X151231500Y-219500000D02*
X150285600Y-219500000D01*
X87285600Y-219500000D02*
X86339700Y-218554100D01*
X127354800Y-220445900D02*
X149339700Y-220445900D01*
X107473000Y-219500000D02*
X107000000Y-219500000D01*
X107945900Y-219500000D02*
X108891800Y-220445900D01*
X124990100Y-219500000D02*
X124517100Y-219500000D01*
X107000000Y-219500000D02*
X106054100Y-219500000D01*
X105108200Y-220445900D02*
X90123300Y-220445900D01*
X107473000Y-219500000D02*
X107945900Y-219500000D01*
X86339700Y-218554100D02*
X71354800Y-218554100D01*
X90123300Y-220445900D02*
X89177400Y-219500000D01*
X71354800Y-218554100D02*
X70408900Y-219500000D01*
X126408900Y-219500000D02*
X127354800Y-220445900D01*
X149339700Y-220445900D02*
X150285600Y-219500000D01*
X88231500Y-219500000D02*
X87285600Y-219500000D01*
X108891800Y-220445900D02*
X123571200Y-220445900D01*
X44177400Y-219500000D02*
X45123300Y-218554100D01*
X124990100Y-219500000D02*
X125463000Y-219500000D01*
%TO.N,ROW5*%
X145839700Y-328445900D02*
X119123300Y-328445900D01*
X99454800Y-326304100D02*
X98508900Y-327250000D01*
X74839700Y-326404100D02*
X56723300Y-326404100D01*
X117231500Y-327500000D02*
X116285600Y-327500000D01*
X77577400Y-327250000D02*
X78523300Y-328195900D01*
X115089700Y-326304100D02*
X99454800Y-326304100D01*
X119123300Y-328445900D02*
X118177400Y-327500000D01*
X146785600Y-327500000D02*
X145839700Y-328445900D01*
X76631500Y-327250000D02*
X75685600Y-327250000D01*
X97563000Y-327250000D02*
X96617100Y-327250000D01*
X54831500Y-327350000D02*
X55777400Y-327350000D01*
X77104500Y-327250000D02*
X77577400Y-327250000D01*
X77104500Y-327250000D02*
X76631500Y-327250000D01*
X116285600Y-327500000D02*
X115089700Y-326304100D01*
X78523300Y-328195900D02*
X95671200Y-328195900D01*
X147731500Y-327500000D02*
X146785600Y-327500000D01*
X56723300Y-326404100D02*
X55777400Y-327350000D01*
X97563000Y-327250000D02*
X98508900Y-327250000D01*
X117231500Y-327500000D02*
X118177400Y-327500000D01*
X75685600Y-327250000D02*
X74839700Y-326404100D01*
X95671200Y-328195900D02*
X96617100Y-327250000D01*
%TO.N,ROW1*%
X117785600Y-241460000D02*
X117569700Y-241244100D01*
X119204500Y-241460000D02*
X119677400Y-241460000D01*
X81731500Y-242000000D02*
X82677400Y-242000000D01*
X154064400Y-240778800D02*
X154785600Y-241500000D01*
X83627700Y-242950300D02*
X98025300Y-242950300D01*
X99731500Y-242190000D02*
X98785600Y-242190000D01*
X136258600Y-241730000D02*
X135785600Y-241730000D01*
X155731500Y-241500000D02*
X154785600Y-241500000D01*
X194426200Y-244823100D02*
X160000500Y-244823100D01*
X81731500Y-242000000D02*
X80785600Y-242000000D01*
X118731500Y-241460000D02*
X117785600Y-241460000D01*
X101623300Y-241244100D02*
X100677400Y-242190000D01*
X98025300Y-242950300D02*
X98785600Y-242190000D01*
X117569700Y-241244100D02*
X101623300Y-241244100D01*
X119204500Y-241460000D02*
X118731500Y-241460000D01*
X136731500Y-241730000D02*
X137677400Y-241730000D01*
X63177400Y-242500000D02*
X64166100Y-241511300D01*
X136258600Y-241730000D02*
X136731500Y-241730000D01*
X135109700Y-242405900D02*
X120623300Y-242405900D01*
X155731500Y-241500000D02*
X156677400Y-241500000D01*
X62231500Y-242500000D02*
X63177400Y-242500000D01*
X99731500Y-242190000D02*
X100677400Y-242190000D01*
X195603100Y-246000000D02*
X194426200Y-244823100D01*
X64166100Y-241511300D02*
X80296900Y-241511300D01*
X196780000Y-246000000D02*
X195603100Y-246000000D01*
X138628600Y-240778800D02*
X154064400Y-240778800D01*
X120623300Y-242405900D02*
X119677400Y-241460000D01*
X135785600Y-241730000D02*
X135109700Y-242405900D01*
X137677400Y-241730000D02*
X138628600Y-240778800D01*
X80296900Y-241511300D02*
X80785600Y-242000000D01*
X82677400Y-242000000D02*
X83627700Y-242950300D01*
X160000500Y-244823100D02*
X156677400Y-241500000D01*
%TO.N,ROW2*%
X145554100Y-264170000D02*
X145238200Y-263854100D01*
X196780000Y-248540000D02*
X195603100Y-248540000D01*
X108758600Y-265030000D02*
X109231500Y-265030000D01*
X146973000Y-264170000D02*
X147445900Y-264170000D01*
X110177400Y-265030000D02*
X111177400Y-264030000D01*
X49354800Y-263854100D02*
X48408900Y-264800000D01*
X88839700Y-263854100D02*
X89785600Y-264800000D01*
X126015600Y-264030000D02*
X126785600Y-264800000D01*
X127731500Y-264800000D02*
X128677400Y-264800000D01*
X195603100Y-248540000D02*
X194426200Y-249716900D01*
X91677400Y-264800000D02*
X92635000Y-265757600D01*
X107558000Y-265757600D02*
X108285600Y-265030000D01*
X146500000Y-264170000D02*
X145554100Y-264170000D01*
X47463000Y-264800000D02*
X48408900Y-264800000D01*
X146973000Y-264170000D02*
X146500000Y-264170000D01*
X69839700Y-263854100D02*
X49354800Y-263854100D01*
X90731500Y-264800000D02*
X89785600Y-264800000D01*
X145238200Y-263854100D02*
X129623300Y-263854100D01*
X90731500Y-264800000D02*
X91677400Y-264800000D01*
X111177400Y-264030000D02*
X126015600Y-264030000D01*
X72204500Y-264800000D02*
X71731500Y-264800000D01*
X92635000Y-265757600D02*
X107558000Y-265757600D01*
X129623300Y-263854100D02*
X128677400Y-264800000D01*
X70785600Y-264800000D02*
X69839700Y-263854100D01*
X72677400Y-264800000D02*
X73623300Y-263854100D01*
X127731500Y-264800000D02*
X126785600Y-264800000D01*
X160953100Y-249716900D02*
X147445900Y-263224100D01*
X73623300Y-263854100D02*
X88839700Y-263854100D01*
X194426200Y-249716900D02*
X160953100Y-249716900D01*
X72204500Y-264800000D02*
X72677400Y-264800000D01*
X108758600Y-265030000D02*
X108285600Y-265030000D01*
X147445900Y-263224100D02*
X147445900Y-264170000D01*
X109231500Y-265030000D02*
X110177400Y-265030000D01*
X71731500Y-264800000D02*
X70785600Y-264800000D01*
%TO.N,GND*%
X184215400Y-251080000D02*
X179000000Y-251080000D01*
X221633100Y-250920000D02*
X220682800Y-251870300D01*
X220682800Y-299932800D02*
X226250000Y-305500000D01*
X187890000Y-254754600D02*
X184215400Y-251080000D01*
X224610000Y-250920000D02*
X221633100Y-250920000D01*
X194040000Y-318380000D02*
X186420000Y-326000000D01*
X187890000Y-255930000D02*
X187890000Y-254866500D01*
X196780000Y-251080000D02*
X195603100Y-251080000D01*
X218000000Y-313750000D02*
X226250000Y-305500000D01*
X220682800Y-251870300D02*
X220682800Y-299932800D01*
X203500000Y-318380000D02*
X194040000Y-318380000D01*
X187890000Y-254866500D02*
X187890000Y-254754600D01*
X218000000Y-318700000D02*
X218000000Y-313750000D01*
X196780000Y-238380000D02*
X179000000Y-238380000D01*
X187890000Y-254753100D02*
X191930000Y-254753100D01*
X191930000Y-254753100D02*
X195603100Y-251080000D01*
X187890000Y-254754600D02*
X187890000Y-254753100D01*
%TO.N,ROW3*%
X53623300Y-284354100D02*
X76539700Y-284354100D01*
X76539700Y-284354100D02*
X77485600Y-285300000D01*
X113039700Y-286245900D02*
X113985600Y-285300000D01*
X116823600Y-284353800D02*
X131139400Y-284353800D01*
X96904500Y-285300000D02*
X97377400Y-285300000D01*
X132931500Y-285200000D02*
X133877400Y-285200000D01*
X114931500Y-285300000D02*
X115877400Y-285300000D01*
X166272300Y-284054100D02*
X153623300Y-284054100D01*
X151731500Y-285000000D02*
X150785600Y-285000000D01*
X153623300Y-284054100D02*
X152677400Y-285000000D01*
X52677400Y-285300000D02*
X53623300Y-284354100D01*
X133877400Y-285200000D02*
X134854600Y-284222800D01*
X195603100Y-254723300D02*
X166272300Y-284054100D01*
X78431500Y-285300000D02*
X77485600Y-285300000D01*
X150008400Y-284222800D02*
X150785600Y-285000000D01*
X80323300Y-286245900D02*
X79377400Y-285300000D01*
X78431500Y-285300000D02*
X79377400Y-285300000D01*
X94539700Y-286245900D02*
X80323300Y-286245900D01*
X98323300Y-286245900D02*
X113039700Y-286245900D01*
X96904500Y-285300000D02*
X96431500Y-285300000D01*
X132458600Y-285200000D02*
X132931500Y-285200000D01*
X114931500Y-285300000D02*
X113985600Y-285300000D01*
X97377400Y-285300000D02*
X98323300Y-286245900D01*
X132458600Y-285200000D02*
X131985600Y-285200000D01*
X195603100Y-253620000D02*
X195603100Y-254723300D01*
X151731500Y-285000000D02*
X152677400Y-285000000D01*
X134854600Y-284222800D02*
X150008400Y-284222800D01*
X196780000Y-253620000D02*
X195603100Y-253620000D01*
X131139400Y-284353800D02*
X131985600Y-285200000D01*
X51731500Y-285300000D02*
X52677400Y-285300000D01*
X115877400Y-285300000D02*
X116823600Y-284353800D01*
X96431500Y-285300000D02*
X95485600Y-285300000D01*
X95485600Y-285300000D02*
X94539700Y-286245900D01*
%TO.N,ROW4*%
X56893400Y-305265500D02*
X81682600Y-305265500D01*
X85254800Y-305054100D02*
X100239700Y-305054100D01*
X196780000Y-274153482D02*
X196780000Y-256160000D01*
X100239700Y-305054100D02*
X101185600Y-306000000D01*
X138339700Y-305554100D02*
X139285600Y-306500000D01*
X122177400Y-306500000D02*
X123123300Y-305554100D01*
X104023300Y-306945900D02*
X103077400Y-306000000D01*
X121258600Y-306945900D02*
X104023300Y-306945900D01*
X158231500Y-306500000D02*
X157285600Y-306500000D01*
X121704500Y-306500000D02*
X122177400Y-306500000D01*
X83363000Y-306000000D02*
X84308900Y-306000000D01*
X55908900Y-306250000D02*
X56893400Y-305265500D01*
X83363000Y-306000000D02*
X82417100Y-306000000D01*
X156339700Y-305554100D02*
X157285600Y-306500000D01*
X164433482Y-306500000D02*
X196780000Y-274153482D01*
X141177400Y-306500000D02*
X142123300Y-305554100D01*
X102131500Y-306000000D02*
X103077400Y-306000000D01*
X158231500Y-306500000D02*
X164433482Y-306500000D01*
X84308900Y-306000000D02*
X85254800Y-305054100D01*
X121231500Y-306500000D02*
X121704500Y-306500000D01*
X102131500Y-306000000D02*
X101185600Y-306000000D01*
X140231500Y-306500000D02*
X141177400Y-306500000D01*
X123123300Y-305554100D02*
X138339700Y-305554100D01*
X140231500Y-306500000D02*
X139285600Y-306500000D01*
X81682600Y-305265500D02*
X82417100Y-306000000D01*
X142123300Y-305554100D02*
X156339700Y-305554100D01*
X54963000Y-306250000D02*
X55908900Y-306250000D01*
X121704500Y-306500000D02*
X121258600Y-306945900D01*
%TO.N,ROW6*%
X372639700Y-219304100D02*
X373585600Y-220250000D01*
X319788600Y-219453000D02*
X320585600Y-220250000D01*
X339531500Y-220250000D02*
X340477400Y-220250000D01*
X399423300Y-219304100D02*
X413139700Y-219304100D01*
X376423300Y-219304100D02*
X395639700Y-219304100D01*
X264154800Y-219304100D02*
X277639700Y-219304100D01*
X341423300Y-219304100D02*
X340477400Y-220250000D01*
X357977400Y-220250000D02*
X358923300Y-219304100D01*
X356558600Y-220250000D02*
X356085600Y-220250000D01*
X395639700Y-219304100D02*
X396585600Y-220250000D01*
X374531500Y-220250000D02*
X375477400Y-220250000D01*
X413139700Y-219304100D02*
X414085600Y-220250000D01*
X321531500Y-220250000D02*
X320585600Y-220250000D01*
X398477400Y-220250000D02*
X399423300Y-219304100D01*
X279531500Y-220250000D02*
X278585600Y-220250000D01*
X321531500Y-220250000D02*
X322477400Y-220250000D01*
X298509400Y-219453000D02*
X319788600Y-219453000D01*
X339531500Y-220250000D02*
X338585600Y-220250000D01*
X415031500Y-220250000D02*
X414085600Y-220250000D01*
X356085600Y-220250000D02*
X355139700Y-219304100D01*
X358923300Y-219304100D02*
X372639700Y-219304100D01*
X375477400Y-220250000D02*
X376423300Y-219304100D01*
X277639700Y-219304100D02*
X278585600Y-220250000D01*
X323423300Y-221195900D02*
X337639700Y-221195900D01*
X322477400Y-220250000D02*
X323423300Y-221195900D01*
X262263000Y-220250000D02*
X263208900Y-220250000D01*
X296556500Y-220460000D02*
X297502400Y-220460000D01*
X337639700Y-221195900D02*
X338585600Y-220250000D01*
X397531500Y-220250000D02*
X398477400Y-220250000D01*
X297502400Y-220460000D02*
X298509400Y-219453000D01*
X374531500Y-220250000D02*
X373585600Y-220250000D01*
X397531500Y-220250000D02*
X396585600Y-220250000D01*
X357031500Y-220250000D02*
X357977400Y-220250000D01*
X263208900Y-220250000D02*
X264154800Y-219304100D01*
X356558600Y-220250000D02*
X357031500Y-220250000D01*
X355139700Y-219304100D02*
X341423300Y-219304100D01*
%TO.N,ROW7*%
X309023300Y-242445900D02*
X323239700Y-242445900D01*
X326077400Y-241500000D02*
X327023300Y-242445900D01*
X381023300Y-242445900D02*
X395239700Y-242445900D01*
X361131500Y-241500000D02*
X362077400Y-241500000D01*
X286739700Y-242445900D02*
X287685600Y-241500000D01*
X288631500Y-241500000D02*
X289577400Y-241500000D01*
X224610000Y-256000000D02*
X225786900Y-256000000D01*
X399023300Y-240554100D02*
X413239700Y-240554100D01*
X307131500Y-241500000D02*
X308077400Y-241500000D01*
X342658600Y-241500000D02*
X343131500Y-241500000D01*
X341239700Y-242445900D02*
X342185600Y-241500000D01*
X325131500Y-241500000D02*
X324185600Y-241500000D01*
X269631500Y-241500000D02*
X268685600Y-241500000D01*
X225786900Y-256000000D02*
X229048800Y-259261900D01*
X396658600Y-241500000D02*
X397131500Y-241500000D01*
X397131500Y-241500000D02*
X398077400Y-241500000D01*
X379131500Y-241500000D02*
X380077400Y-241500000D01*
X362077400Y-241500000D02*
X363023300Y-240554100D01*
X325131500Y-241500000D02*
X326077400Y-241500000D01*
X269631500Y-241500000D02*
X270577400Y-241500000D01*
X342658600Y-241500000D02*
X342185600Y-241500000D01*
X380077400Y-241500000D02*
X381023300Y-242445900D01*
X396658600Y-241500000D02*
X396185600Y-241500000D01*
X270577400Y-241500000D02*
X271523300Y-242445900D01*
X308077400Y-241500000D02*
X309023300Y-242445900D01*
X323239700Y-242445900D02*
X324185600Y-241500000D01*
X271523300Y-242445900D02*
X286739700Y-242445900D01*
X290523300Y-242445900D02*
X305239700Y-242445900D01*
X344077400Y-241500000D02*
X345023300Y-242445900D01*
X289577400Y-241500000D02*
X290523300Y-242445900D01*
X288631500Y-241500000D02*
X287685600Y-241500000D01*
X345023300Y-242445900D02*
X359239700Y-242445900D01*
X398077400Y-241500000D02*
X399023300Y-240554100D01*
X343131500Y-241500000D02*
X344077400Y-241500000D01*
X413239700Y-240554100D02*
X414185600Y-241500000D01*
X377239700Y-240554100D02*
X378185600Y-241500000D01*
X379131500Y-241500000D02*
X378185600Y-241500000D01*
X250923700Y-259261900D02*
X268685600Y-241500000D01*
X305239700Y-242445900D02*
X306185600Y-241500000D01*
X307131500Y-241500000D02*
X306185600Y-241500000D01*
X415131500Y-241500000D02*
X414185600Y-241500000D01*
X361131500Y-241500000D02*
X360185600Y-241500000D01*
X395239700Y-242445900D02*
X396185600Y-241500000D01*
X363023300Y-240554100D02*
X377239700Y-240554100D01*
X359239700Y-242445900D02*
X360185600Y-241500000D01*
X327023300Y-242445900D02*
X341239700Y-242445900D01*
X229048800Y-259261900D02*
X250923700Y-259261900D01*
%TO.N,ROW8*%
X278008200Y-263945900D02*
X278954100Y-263000000D01*
X370631500Y-263000000D02*
X371577400Y-263000000D01*
X279427100Y-263000000D02*
X278954100Y-263000000D01*
X413917100Y-263000000D02*
X412971200Y-263945900D01*
X263523300Y-263945900D02*
X278008200Y-263945900D01*
X354523300Y-262054100D02*
X353577400Y-263000000D01*
X336523300Y-262054100D02*
X350739700Y-262054100D01*
X298631500Y-263000000D02*
X297685600Y-263000000D01*
X298631500Y-263000000D02*
X299577400Y-263000000D01*
X300523300Y-262054100D02*
X299577400Y-263000000D01*
X227647700Y-263000000D02*
X261631500Y-263000000D01*
X296739700Y-262054100D02*
X297685600Y-263000000D01*
X261631500Y-263000000D02*
X262577400Y-263000000D01*
X280845900Y-263000000D02*
X281791800Y-262054100D01*
X414863000Y-263000000D02*
X413917100Y-263000000D01*
X393031500Y-263000000D02*
X393977400Y-263000000D01*
X221633100Y-256985400D02*
X227647700Y-263000000D01*
X368739700Y-262054100D02*
X354523300Y-262054100D01*
X334631500Y-263000000D02*
X333685600Y-263000000D01*
X332739700Y-262054100D02*
X333685600Y-263000000D01*
X372523300Y-262054100D02*
X391139700Y-262054100D01*
X279900000Y-263000000D02*
X280845900Y-263000000D01*
X281791800Y-262054100D02*
X296739700Y-262054100D01*
X394923300Y-263945900D02*
X393977400Y-263000000D01*
X262577400Y-263000000D02*
X263523300Y-263945900D01*
X370158600Y-263000000D02*
X369685600Y-263000000D01*
X279427100Y-263000000D02*
X279900000Y-263000000D01*
X316158600Y-263000000D02*
X316631500Y-263000000D01*
X317577400Y-263000000D02*
X318523300Y-262054100D01*
X371577400Y-263000000D02*
X372523300Y-262054100D01*
X314739700Y-262054100D02*
X300523300Y-262054100D01*
X335577400Y-263000000D02*
X336523300Y-262054100D01*
X370158600Y-263000000D02*
X370631500Y-263000000D01*
X391139700Y-262054100D02*
X392085600Y-263000000D01*
X412971200Y-263945900D02*
X394923300Y-263945900D01*
X221633100Y-253460000D02*
X221633100Y-256985400D01*
X352631500Y-263000000D02*
X351685600Y-263000000D01*
X224610000Y-253460000D02*
X221633100Y-253460000D01*
X315685600Y-263000000D02*
X314739700Y-262054100D01*
X318523300Y-262054100D02*
X332739700Y-262054100D01*
X352631500Y-263000000D02*
X353577400Y-263000000D01*
X316158600Y-263000000D02*
X315685600Y-263000000D01*
X393031500Y-263000000D02*
X392085600Y-263000000D01*
X316631500Y-263000000D02*
X317577400Y-263000000D01*
X369685600Y-263000000D02*
X368739700Y-262054100D01*
X350739700Y-262054100D02*
X351685600Y-263000000D01*
X334631500Y-263000000D02*
X335577400Y-263000000D01*
%TO.N,ROW9*%
X415977400Y-284500000D02*
X416965100Y-285487700D01*
X288400000Y-284500000D02*
X287454100Y-284500000D01*
X242762700Y-258535000D02*
X244612400Y-258535000D01*
X290291800Y-283554100D02*
X305239700Y-283554100D01*
X232607700Y-248380000D02*
X242762700Y-258535000D01*
X434131500Y-284750000D02*
X433185600Y-284750000D01*
X386417100Y-284500000D02*
X385471200Y-285445900D01*
X307131500Y-284500000D02*
X308077400Y-284500000D01*
X309023300Y-285445900D02*
X325131500Y-285445900D01*
X344077400Y-284500000D02*
X345023300Y-285445900D01*
X414085600Y-284500000D02*
X413139700Y-283554100D01*
X286508200Y-285445900D02*
X287454100Y-284500000D01*
X416965100Y-285487700D02*
X432447900Y-285487700D01*
X325131500Y-284500000D02*
X325131500Y-285332500D01*
X325133000Y-285445900D02*
X341239700Y-285445900D01*
X415031500Y-284500000D02*
X415977400Y-284500000D01*
X387363000Y-284500000D02*
X388308900Y-284500000D01*
X358739700Y-285445900D02*
X359685600Y-284500000D01*
X345023300Y-285445900D02*
X358739700Y-285445900D01*
X414558600Y-284500000D02*
X415031500Y-284500000D01*
X325131500Y-285444400D02*
X325133000Y-285445900D01*
X385471200Y-285445900D02*
X362523300Y-285445900D01*
X307131500Y-284500000D02*
X306185600Y-284500000D01*
X360631500Y-284500000D02*
X359685600Y-284500000D01*
X308077400Y-284500000D02*
X309023300Y-285445900D01*
X270577400Y-284500000D02*
X271523300Y-285445900D01*
X343131500Y-284500000D02*
X342185600Y-284500000D01*
X289345900Y-284500000D02*
X290291800Y-283554100D01*
X269631500Y-284500000D02*
X270577400Y-284500000D01*
X387363000Y-284500000D02*
X386417100Y-284500000D01*
X362523300Y-285445900D02*
X361577400Y-284500000D01*
X413139700Y-283554100D02*
X389254800Y-283554100D01*
X224610000Y-248380000D02*
X232607700Y-248380000D01*
X341239700Y-285445900D02*
X342185600Y-284500000D01*
X432447900Y-285487700D02*
X433185600Y-284750000D01*
X271523300Y-285445900D02*
X286508200Y-285445900D01*
X389254800Y-283554100D02*
X388308900Y-284500000D01*
X325131500Y-285332500D02*
X325131500Y-285444400D01*
X360631500Y-284500000D02*
X361577400Y-284500000D01*
X325131500Y-285444400D02*
X325131500Y-285445900D01*
X414558600Y-284500000D02*
X414085600Y-284500000D01*
X288400000Y-284500000D02*
X289345900Y-284500000D01*
X343131500Y-284500000D02*
X344077400Y-284500000D01*
X305239700Y-283554100D02*
X306185600Y-284500000D01*
%TO.N,ROW10*%
X313685600Y-306500000D02*
X312739700Y-305554100D01*
X295900000Y-306500000D02*
X296845900Y-306500000D01*
X221633100Y-245840000D02*
X221633100Y-249365400D01*
X277685600Y-305554100D02*
X277685600Y-306500000D01*
X415131500Y-306500000D02*
X414185600Y-306500000D01*
X434531500Y-306000000D02*
X433585600Y-306000000D01*
X332631500Y-306500000D02*
X331685600Y-306500000D01*
X225798700Y-251941100D02*
X225551300Y-252188500D01*
X351131500Y-306500000D02*
X352077400Y-306500000D01*
X221834200Y-252188500D02*
X221134700Y-252888000D01*
X316523300Y-307445900D02*
X330739700Y-307445900D01*
X353023300Y-305554100D02*
X372239700Y-305554100D01*
X295900000Y-306500000D02*
X294954100Y-306500000D01*
X312739700Y-305554100D02*
X297791800Y-305554100D01*
X297791800Y-305554100D02*
X296845900Y-306500000D01*
X417023300Y-305554100D02*
X416077400Y-306500000D01*
X396158600Y-306500000D02*
X396631500Y-306500000D01*
X294954100Y-306500000D02*
X294008200Y-305554100D01*
X375077400Y-306500000D02*
X376023300Y-305554100D01*
X352077400Y-306500000D02*
X353023300Y-305554100D01*
X374131500Y-306500000D02*
X375077400Y-306500000D01*
X294008200Y-305554100D02*
X277685600Y-305554100D01*
X413239700Y-307445900D02*
X414185600Y-306500000D01*
X415131500Y-306500000D02*
X416077400Y-306500000D01*
X221633100Y-249365400D02*
X221824600Y-249556900D01*
X221824600Y-249556900D02*
X225430400Y-249556900D01*
X398523300Y-307445900D02*
X413239700Y-307445900D01*
X269473300Y-305554100D02*
X277685600Y-305554100D01*
X221134700Y-257215500D02*
X269473300Y-305554100D01*
X225551300Y-252188500D02*
X221834200Y-252188500D01*
X372239700Y-305554100D02*
X373185600Y-306500000D01*
X314631500Y-306500000D02*
X315577400Y-306500000D01*
X394739700Y-305554100D02*
X395685600Y-306500000D01*
X225430400Y-249556900D02*
X225798700Y-249925200D01*
X221134700Y-252888000D02*
X221134700Y-257215500D01*
X314158600Y-306500000D02*
X314631500Y-306500000D01*
X278631500Y-306500000D02*
X277685600Y-306500000D01*
X433585600Y-306000000D02*
X433139700Y-305554100D01*
X396158600Y-306500000D02*
X395685600Y-306500000D01*
X397577400Y-306500000D02*
X398523300Y-307445900D01*
X315577400Y-306500000D02*
X316523300Y-307445900D01*
X376023300Y-305554100D02*
X394739700Y-305554100D01*
X433139700Y-305554100D02*
X417023300Y-305554100D01*
X374131500Y-306500000D02*
X373185600Y-306500000D01*
X225798700Y-249925200D02*
X225798700Y-251941100D01*
X330739700Y-307445900D02*
X331685600Y-306500000D01*
X224610000Y-245840000D02*
X221633100Y-245840000D01*
X396631500Y-306500000D02*
X397577400Y-306500000D01*
X314158600Y-306500000D02*
X313685600Y-306500000D01*
%TO.N,ROW11*%
X376839700Y-327054100D02*
X377785600Y-328000000D01*
X379677400Y-328000000D02*
X380623300Y-328945900D01*
X331785600Y-328000000D02*
X330839700Y-328945900D01*
X287131500Y-327300000D02*
X286185600Y-327300000D01*
X413885600Y-328000000D02*
X412939700Y-328945900D01*
X285367200Y-326481600D02*
X286185600Y-327300000D01*
X330839700Y-328945900D02*
X317123300Y-328945900D01*
X434231500Y-328000000D02*
X433285600Y-328000000D01*
X315231500Y-328000000D02*
X314285600Y-328000000D01*
X315231500Y-328000000D02*
X316177400Y-328000000D01*
X396731500Y-328000000D02*
X397677400Y-328000000D01*
X432339700Y-328945900D02*
X416723300Y-328945900D01*
X378731500Y-328000000D02*
X377785600Y-328000000D01*
X332258600Y-328000000D02*
X332731500Y-328000000D01*
X333677400Y-328000000D02*
X334623300Y-327054100D01*
X416723300Y-328945900D02*
X415777400Y-328000000D01*
X332258600Y-328000000D02*
X331785600Y-328000000D01*
X398623300Y-328945900D02*
X397677400Y-328000000D01*
X269574000Y-326481600D02*
X285367200Y-326481600D01*
X287131500Y-327300000D02*
X288077400Y-327300000D01*
X394839700Y-328945900D02*
X395785600Y-328000000D01*
X269500000Y-326555600D02*
X269574000Y-326481600D01*
X314000300Y-328285300D02*
X314285600Y-328000000D01*
X269574000Y-326481600D02*
X241385900Y-298293500D01*
X396731500Y-328000000D02*
X395785600Y-328000000D01*
X269500000Y-326667500D02*
X269500000Y-326555600D01*
X380623300Y-328945900D02*
X394839700Y-328945900D01*
X289062700Y-328285300D02*
X314000300Y-328285300D01*
X412939700Y-328945900D02*
X398623300Y-328945900D01*
X378731500Y-328000000D02*
X379677400Y-328000000D01*
X288077400Y-327300000D02*
X289062700Y-328285300D01*
X317123300Y-328945900D02*
X316177400Y-328000000D01*
X269500000Y-327500000D02*
X269500000Y-326667500D01*
X433285600Y-328000000D02*
X432339700Y-328945900D01*
X332731500Y-328000000D02*
X333677400Y-328000000D01*
X414831500Y-328000000D02*
X415777400Y-328000000D01*
X334623300Y-327054100D02*
X376839700Y-327054100D01*
X414831500Y-328000000D02*
X413885600Y-328000000D01*
%TO.N,1C*%
X239180000Y-295500000D02*
X239180000Y-299564400D01*
X228244400Y-310500000D02*
X226250000Y-310500000D01*
X239180000Y-299564400D02*
X228244400Y-310500000D01*
%TO.N,COL0*%
X66305300Y-236700000D02*
X61500000Y-236700000D01*
X78688400Y-224316900D02*
X66305300Y-236700000D01*
X195603100Y-223140000D02*
X194426200Y-224316900D01*
X196780000Y-223140000D02*
X195603100Y-223140000D01*
X60698400Y-235898400D02*
X43051600Y-235898400D01*
X61500000Y-236700000D02*
X60698400Y-235898400D01*
X43051600Y-235898400D02*
X42500000Y-236450000D01*
X194426200Y-224316900D02*
X78688400Y-224316900D01*
%TO.N,COL1*%
X75057359Y-203000000D02*
X68600000Y-209457359D01*
X198390000Y-228220000D02*
X206500000Y-220110000D01*
X68600000Y-209457359D02*
X68600000Y-214000000D01*
X196780000Y-228220000D02*
X198390000Y-228220000D01*
X202500000Y-203000000D02*
X75057359Y-203000000D01*
X206500000Y-207000000D02*
X202500000Y-203000000D01*
X206500000Y-220110000D02*
X206500000Y-207000000D01*
%TO.N,COL2*%
X87700000Y-209657359D02*
X93907359Y-203450000D01*
X93907359Y-203450000D02*
X202313604Y-203450000D01*
X202313604Y-203450000D02*
X205500000Y-206636396D01*
X87700000Y-214200000D02*
X87700000Y-209657359D01*
X205500000Y-206636396D02*
X205500000Y-217500000D01*
%TO.N,COL3*%
X106600000Y-209657359D02*
X112357359Y-203900000D01*
X204500000Y-206400000D02*
X204500000Y-218000000D01*
X202000000Y-203900000D02*
X204500000Y-206400000D01*
X112357359Y-203900000D02*
X202000000Y-203900000D01*
X106600000Y-214200000D02*
X106600000Y-209657359D01*
%TO.N,COL4*%
X128150000Y-204350000D02*
X201000000Y-204350000D01*
X125100000Y-207400000D02*
X128150000Y-204350000D01*
X201000000Y-204350000D02*
X203500000Y-206850000D01*
X203500000Y-206850000D02*
X203500000Y-218500000D01*
X196780000Y-240920000D02*
X201420000Y-240920000D01*
X201420000Y-240920000D02*
X201500000Y-241000000D01*
X125100000Y-214200000D02*
X125100000Y-207400000D01*
%TO.N,COL5*%
X191886200Y-239743100D02*
X158793100Y-239743100D01*
X196780000Y-243460000D02*
X195603100Y-243460000D01*
X158793100Y-239743100D02*
X155000000Y-235950000D01*
X195603100Y-243460000D02*
X191886200Y-239743100D01*
%TO.N,COL6*%
X242390000Y-222980000D02*
X253370000Y-222980000D01*
X253370000Y-222980000D02*
X261400000Y-214950000D01*
%TO.N,COL7*%
X250167800Y-228060000D02*
X242390000Y-228060000D01*
X275439700Y-218400300D02*
X259827500Y-218400300D01*
X278900000Y-214940000D02*
X275439700Y-218400300D01*
X259827500Y-218400300D02*
X250167800Y-228060000D01*
%TO.N,COL8*%
X296400000Y-214950000D02*
X292497800Y-218852200D01*
X292497800Y-218852200D02*
X261960500Y-218852200D01*
X261960500Y-218852200D02*
X250212700Y-230600000D01*
X250212700Y-230600000D02*
X242390000Y-230600000D01*
%TO.N,COL9*%
X269934300Y-238864300D02*
X266750000Y-235680000D01*
X266750000Y-235680000D02*
X242390000Y-235680000D01*
X324500000Y-236200000D02*
X321835700Y-238864300D01*
X321835700Y-238864300D02*
X269934300Y-238864300D01*
%TO.N,COL10*%
X339330500Y-239369500D02*
X246757400Y-239369500D01*
X246757400Y-239369500D02*
X245366900Y-240760000D01*
X342500000Y-236200000D02*
X339330500Y-239369500D01*
X242390000Y-240760000D02*
X245366900Y-240760000D01*
%TO.N,COL11*%
X360500000Y-236200000D02*
X360497800Y-236200000D01*
X248635300Y-240031600D02*
X245366900Y-243300000D01*
X360497800Y-236200000D02*
X356666200Y-240031600D01*
X356666200Y-240031600D02*
X248635300Y-240031600D01*
X242390000Y-243300000D02*
X245366900Y-243300000D01*
%TO.N,COL12*%
X263591200Y-245840000D02*
X268912300Y-240518900D01*
X357713100Y-239623800D02*
X375076200Y-239623800D01*
X375076200Y-239623800D02*
X378500000Y-236200000D01*
X268912300Y-240518900D02*
X356818000Y-240518900D01*
X242390000Y-245840000D02*
X263591200Y-245840000D01*
X356818000Y-240518900D02*
X357713100Y-239623800D01*
%TO.N,COL13*%
X241579000Y-234316900D02*
X241213100Y-234682800D01*
X393981200Y-218018800D02*
X295612100Y-218018800D01*
X260041200Y-221692800D02*
X247417100Y-234316900D01*
X295612100Y-218018800D02*
X291938100Y-221692800D01*
X291938100Y-221692800D02*
X260041200Y-221692800D01*
X241213100Y-234682800D02*
X241213100Y-248380000D01*
X396900000Y-215100000D02*
X393981200Y-218018800D01*
X242390000Y-248380000D02*
X241213100Y-248380000D01*
X247417100Y-234316900D02*
X241579000Y-234316900D01*
%TO.N,COL14*%
X414500000Y-257700000D02*
X411845100Y-260354900D01*
X411845100Y-260354900D02*
X245059800Y-260354900D01*
%TO.N,TX*%
X208500000Y-318460000D02*
X208500000Y-208500000D01*
X203500000Y-323460000D02*
X208500000Y-318460000D01*
%TO.N,RX*%
X218000000Y-321240000D02*
X216825000Y-320065000D01*
X203500000Y-320920000D02*
X207500000Y-316920000D01*
X216825000Y-213915000D02*
X223000000Y-207740000D01*
X207500000Y-316920000D02*
X207500000Y-207500000D01*
X223000000Y-207740000D02*
X224610000Y-207740000D01*
X216825000Y-320065000D02*
X216825000Y-213915000D01*
%TD*%
M02*
