%TF.GenerationSoftware,KiCad,Pcbnew,7.0.10*%
%TF.CreationDate,2025-02-10T10:38:22-05:00*%
%TF.ProjectId,Hackpad,4861636b-7061-4642-9e6b-696361645f70,rev?*%
%TF.SameCoordinates,Original*%
%TF.FileFunction,Soldermask,Top*%
%TF.FilePolarity,Negative*%
%FSLAX46Y46*%
G04 Gerber Fmt 4.6, Leading zero omitted, Abs format (unit mm)*
G04 Created by KiCad (PCBNEW 7.0.10) date 2025-02-10 10:38:22*
%MOMM*%
%LPD*%
G01*
G04 APERTURE LIST*
%ADD10R,1.700000X1.700000*%
%ADD11O,1.700000X1.700000*%
%ADD12R,1.397000X1.397000*%
%ADD13C,1.397000*%
%ADD14R,2.000000X3.000000*%
%ADD15C,1.500000*%
%ADD16R,2.300000X1.300000*%
%ADD17O,1.600000X2.000000*%
%ADD18C,1.700000*%
%ADD19C,4.000000*%
%ADD20C,2.200000*%
%ADD21R,2.000000X2.000000*%
%ADD22C,2.000000*%
%ADD23R,3.200000X2.000000*%
G04 APERTURE END LIST*
D10*
%TO.C,J1*%
X136080000Y-78120000D03*
D11*
X136080000Y-75580000D03*
X136080000Y-73040000D03*
X136080000Y-70500000D03*
X136080000Y-67960000D03*
X136080000Y-65420000D03*
%TD*%
D10*
%TO.C,J2*%
X148590000Y-67310000D03*
D11*
X146050000Y-67310000D03*
%TD*%
D12*
%TO.C,R2*%
X169715000Y-85570000D03*
D13*
X158285000Y-85570000D03*
%TD*%
D12*
%TO.C,R3*%
X176000000Y-102715000D03*
D13*
X176000000Y-91285000D03*
%TD*%
D14*
%TO.C,U1*%
X171230000Y-63230000D03*
X168690000Y-63230000D03*
X166150000Y-63230000D03*
X163610000Y-63230000D03*
X161070000Y-63230000D03*
X158530000Y-63230000D03*
X155990000Y-63230000D03*
X155990000Y-80230000D03*
X158530000Y-80230000D03*
X161070000Y-80230000D03*
X163610000Y-80230000D03*
X166150000Y-80230000D03*
X168690000Y-80230000D03*
X171230000Y-80230000D03*
D15*
X172000000Y-70460000D03*
X172000000Y-73000000D03*
X169460000Y-70460000D03*
X169460000Y-73000000D03*
D16*
X155010000Y-70460000D03*
X155010000Y-73000000D03*
%TD*%
D17*
%TO.C,Brd1*%
X122380000Y-84650000D03*
X124920000Y-84650000D03*
X127460000Y-84650000D03*
X130000000Y-84650000D03*
%TD*%
D18*
%TO.C,SW1*%
X136340000Y-126588700D03*
D19*
X136340000Y-121508700D03*
D18*
X136340000Y-116428700D03*
D20*
X131260000Y-118968700D03*
X133800000Y-125318700D03*
%TD*%
D18*
%TO.C,SW2*%
X156540000Y-126588700D03*
D19*
X156540000Y-121508700D03*
D18*
X156540000Y-116428700D03*
D20*
X151460000Y-118968700D03*
X154000000Y-125318700D03*
%TD*%
D21*
%TO.C,SW4*%
X171250000Y-99500000D03*
D22*
X171250000Y-94500000D03*
X171250000Y-97000000D03*
D23*
X163750000Y-102600000D03*
X163750000Y-91400000D03*
D22*
X156750000Y-94500000D03*
X156750000Y-99500000D03*
%TD*%
D12*
%TO.C,R1*%
X151300000Y-102715000D03*
D13*
X151300000Y-91285000D03*
%TD*%
M02*
