%TF.GenerationSoftware,KiCad,Pcbnew,8.0.0*%
%TF.CreationDate,2024-10-07T09:35:36-04:00*%
%TF.ProjectId,orpheuspad_pcb,6f727068-6575-4737-9061-645f7063622e,rev?*%
%TF.SameCoordinates,Original*%
%TF.FileFunction,Copper,L1,Top*%
%TF.FilePolarity,Positive*%
%FSLAX46Y46*%
G04 Gerber Fmt 4.6, Leading zero omitted, Abs format (unit mm)*
G04 Created by KiCad (PCBNEW 8.0.0) date 2024-10-07 09:35:36*
%MOMM*%
%LPD*%
G01*
G04 APERTURE LIST*
%TA.AperFunction,ComponentPad*%
%ADD10R,1.600000X1.600000*%
%TD*%
%TA.AperFunction,ComponentPad*%
%ADD11O,1.600000X1.600000*%
%TD*%
%TA.AperFunction,ComponentPad*%
%ADD12R,3.500000X1.700000*%
%TD*%
%TA.AperFunction,ComponentPad*%
%ADD13O,3.600000X1.700000*%
%TD*%
%TA.AperFunction,ComponentPad*%
%ADD14O,3.700000X1.700000*%
%TD*%
%TA.AperFunction,ComponentPad*%
%ADD15R,1.700000X1.700000*%
%TD*%
%TA.AperFunction,ComponentPad*%
%ADD16O,1.700000X1.700000*%
%TD*%
%TA.AperFunction,ComponentPad*%
%ADD17C,2.300000*%
%TD*%
%TA.AperFunction,SMDPad,CuDef*%
%ADD18R,1.500000X0.900000*%
%TD*%
%TA.AperFunction,ComponentPad*%
%ADD19R,2.000000X2.000000*%
%TD*%
%TA.AperFunction,ComponentPad*%
%ADD20C,2.000000*%
%TD*%
%TA.AperFunction,ComponentPad*%
%ADD21R,3.200000X2.000000*%
%TD*%
%TA.AperFunction,ViaPad*%
%ADD22C,0.600000*%
%TD*%
%TA.AperFunction,Conductor*%
%ADD23C,0.200000*%
%TD*%
G04 APERTURE END LIST*
D10*
%TO.P,D4,1,K*%
%TO.N,ROW1*%
X110331250Y-99695000D03*
D11*
%TO.P,D4,2,A*%
%TO.N,Net-(D4-A)*%
X110331250Y-107315000D03*
%TD*%
D12*
%TO.P,U1,1,PA02_A0_D0*%
%TO.N,COL1*%
X103511000Y-75565000D03*
D13*
%TO.P,U1,2,PA4_A1_D1*%
%TO.N,COL0*%
X103511000Y-78105000D03*
%TO.P,U1,3,PA10_A2_D2*%
%TO.N,ROW1*%
X103511000Y-80645000D03*
%TO.P,U1,4,PA11_A3_D3*%
%TO.N,ROW0*%
X103511000Y-83185000D03*
%TO.P,U1,5,PA8_A4_D4_SDA*%
%TO.N,SDA*%
X103511000Y-85725000D03*
%TO.P,U1,6,PA9_A5_D5_SCL*%
%TO.N,SCL*%
X103511000Y-88265000D03*
%TO.P,U1,7,PB08_A6_D6_TX*%
%TO.N,unconnected-(U1-PB08_A6_D6_TX-Pad7)*%
X103511000Y-90805000D03*
%TO.P,U1,8,PB09_A7_D7_RX*%
%TO.N,EC11B*%
X120761000Y-90805000D03*
%TO.P,U1,9,PA7_A8_D8_SCK*%
%TO.N,EC11A*%
X120761000Y-88265000D03*
%TO.P,U1,10,PA5_A9_D9_MISO*%
%TO.N,COL2*%
X120761000Y-85725000D03*
D14*
%TO.P,U1,11,PA6_A10_D10_MOSI*%
%TO.N,WS2812B*%
X120761000Y-83185000D03*
%TO.P,U1,12,3V3*%
%TO.N,unconnected-(U1-3V3-Pad12)*%
X120761000Y-80645000D03*
%TO.P,U1,13,GND*%
%TO.N,GND*%
X120761000Y-78105000D03*
%TO.P,U1,14,5V*%
%TO.N,VCC*%
X120761000Y-75565000D03*
%TD*%
D10*
%TO.P,D1,1,K*%
%TO.N,ROW0*%
X113506250Y-99695000D03*
D11*
%TO.P,D1,2,A*%
%TO.N,Net-(D1-A)*%
X113506250Y-107315000D03*
%TD*%
D15*
%TO.P,J1,1,Pin_1*%
%TO.N,SDA*%
X151511000Y-78232000D03*
D16*
%TO.P,J1,2,Pin_2*%
%TO.N,SCL*%
X151511000Y-80772000D03*
%TO.P,J1,3,Pin_3*%
%TO.N,VCC*%
X151511000Y-83312000D03*
%TO.P,J1,4,Pin_4*%
%TO.N,GND*%
X151511000Y-85852000D03*
%TD*%
D17*
%TO.P,SW4,1,1*%
%TO.N,COL1*%
X157928000Y-116935250D03*
%TO.P,SW4,2,2*%
%TO.N,Net-(D4-A)*%
X164278000Y-114395250D03*
%TD*%
%TO.P,SW5,1,1*%
%TO.N,COL1*%
X177105000Y-116935250D03*
%TO.P,SW5,2,2*%
%TO.N,Net-(D2-A)*%
X183455000Y-114395250D03*
%TD*%
D18*
%TO.P,D6,1,VDD*%
%TO.N,VCC*%
X144145000Y-98296000D03*
%TO.P,D6,2,DOUT*%
%TO.N,unconnected-(D6-DOUT-Pad2)*%
X144145000Y-94996000D03*
%TO.P,D6,3,VSS*%
%TO.N,GND*%
X139245000Y-94996000D03*
%TO.P,D6,4,DIN*%
%TO.N,Net-(D5-DOUT)*%
X139245000Y-98296000D03*
%TD*%
D10*
%TO.P,D2,1,K*%
%TO.N,ROW0*%
X107156250Y-99695000D03*
D11*
%TO.P,D2,2,A*%
%TO.N,Net-(D2-A)*%
X107156250Y-107315000D03*
%TD*%
D19*
%TO.P,ENCODER,A,A*%
%TO.N,EC11A*%
X173669000Y-97365750D03*
D20*
%TO.P,ENCODER,B,B*%
%TO.N,EC11B*%
X173669000Y-102365750D03*
%TO.P,ENCODER,C,C*%
%TO.N,GND*%
X173669000Y-99865750D03*
D21*
%TO.P,ENCODER,MP*%
%TO.N,N/C*%
X181169000Y-94265750D03*
X181169000Y-105465750D03*
D20*
%TO.P,ENCODER,S1,S1*%
%TO.N,COL2*%
X188169000Y-102365750D03*
%TO.P,ENCODER,S2,S2*%
%TO.N,EC11SWA*%
X188169000Y-97365750D03*
%TD*%
D10*
%TO.P,D3,1,K*%
%TO.N,ROW1*%
X116681250Y-99695000D03*
D11*
%TO.P,D3,2,A*%
%TO.N,Net-(D3-A)*%
X116681250Y-107315000D03*
%TD*%
D10*
%TO.P,D9,1,K*%
%TO.N,ROW0*%
X185547000Y-78105000D03*
D11*
%TO.P,D9,2,A*%
%TO.N,EC11SWA*%
X185547000Y-85725000D03*
%TD*%
D17*
%TO.P,SW3,1,1*%
%TO.N,COL0*%
X138878000Y-116980000D03*
%TO.P,SW3,2,2*%
%TO.N,Net-(D3-A)*%
X145228000Y-114440000D03*
%TD*%
%TO.P,SW2,1,1*%
%TO.N,COL0*%
X157988000Y-97790000D03*
%TO.P,SW2,2,2*%
%TO.N,Net-(D1-A)*%
X164338000Y-95250000D03*
%TD*%
D22*
%TO.N,GND*%
X138080750Y-92043250D03*
X159647125Y-85843875D03*
%TO.N,VCC*%
X146685000Y-99695000D03*
X131701000Y-100584000D03*
%TO.N,SDA*%
X125222000Y-84455000D03*
%TO.N,SCL*%
X125222000Y-86875000D03*
%TO.N,WS2812B*%
X117729000Y-88773000D03*
%TO.N,Net-(D5-DOUT)*%
X135731250Y-102393750D03*
%TD*%
D23*
%TO.N,EC11SWA*%
X188169000Y-97365750D02*
X188200000Y-97334750D01*
X188200000Y-97334750D02*
X188200000Y-88378000D01*
X188200000Y-88378000D02*
X185547000Y-85725000D01*
%TO.N,Net-(D1-A)*%
X161036000Y-116332000D02*
X161036000Y-113601500D01*
X164973000Y-109664500D02*
X164973000Y-95885000D01*
X112522000Y-108299250D02*
X112522000Y-118618000D01*
X117348000Y-123444000D02*
X156083000Y-123444000D01*
X161036000Y-113601500D02*
X164973000Y-109664500D01*
X158369000Y-118999000D02*
X161036000Y-116332000D01*
X158369000Y-121158000D02*
X158369000Y-118999000D01*
X164973000Y-95885000D02*
X164338000Y-95250000D01*
X156083000Y-123444000D02*
X158369000Y-121158000D01*
X112522000Y-118618000D02*
X117348000Y-123444000D01*
X113506250Y-107315000D02*
X112522000Y-108299250D01*
%TO.N,ROW0*%
X104511000Y-83185000D02*
X107156250Y-85830250D01*
X109696250Y-102235000D02*
X107156250Y-99695000D01*
X107156250Y-85830250D02*
X107156250Y-99695000D01*
X110966250Y-102235000D02*
X109696250Y-102235000D01*
X113506250Y-99695000D02*
X110966250Y-102235000D01*
%TO.N,Net-(D2-A)*%
X110363000Y-119253000D02*
X116522500Y-125412500D01*
X107156250Y-107315000D02*
X110363000Y-110521750D01*
X116522500Y-125412500D02*
X179354279Y-125412500D01*
X184277000Y-120489779D02*
X184277000Y-115217250D01*
X184277000Y-115217250D02*
X183455000Y-114395250D01*
X110363000Y-110521750D02*
X110363000Y-119253000D01*
X179354279Y-125412500D02*
X184277000Y-120489779D01*
%TO.N,ROW1*%
X110331250Y-99695000D02*
X109728000Y-99091750D01*
X114776250Y-97790000D02*
X112236250Y-97790000D01*
X112236250Y-97790000D02*
X110331250Y-99695000D01*
X109728000Y-85862000D02*
X104511000Y-80645000D01*
X109728000Y-99091750D02*
X109728000Y-85862000D01*
X116681250Y-99695000D02*
X114776250Y-97790000D01*
%TO.N,EC11A*%
X123571000Y-89281000D02*
X122555000Y-88265000D01*
X122555000Y-88265000D02*
X119761000Y-88265000D01*
X173669000Y-97365750D02*
X170390750Y-97365750D01*
X162306000Y-89281000D02*
X123571000Y-89281000D01*
X170390750Y-97365750D02*
X162306000Y-89281000D01*
%TO.N,GND*%
X138080750Y-92043250D02*
X138144250Y-92043250D01*
X158623000Y-85852000D02*
X151511000Y-85852000D01*
X139245000Y-93144000D02*
X139245000Y-94996000D01*
X138144250Y-92043250D02*
X139245000Y-93144000D01*
X158631125Y-85843875D02*
X158623000Y-85852000D01*
X159647125Y-85843875D02*
X158631125Y-85843875D01*
%TO.N,EC11B*%
X122682000Y-90805000D02*
X123444000Y-90043000D01*
X119761000Y-90805000D02*
X122682000Y-90805000D01*
X170434000Y-98679000D02*
X170434000Y-100457000D01*
X123444000Y-90043000D02*
X161798000Y-90043000D01*
X161798000Y-90043000D02*
X170434000Y-98679000D01*
X172342750Y-102365750D02*
X173669000Y-102365750D01*
X170434000Y-100457000D02*
X172342750Y-102365750D01*
%TO.N,COL0*%
X138878000Y-116980000D02*
X114206750Y-92308750D01*
X114206750Y-87800750D02*
X104511000Y-78105000D01*
X114206750Y-92308750D02*
X114206750Y-87800750D01*
%TO.N,COL1*%
X115951000Y-91694000D02*
X115951000Y-87005000D01*
X115951000Y-87005000D02*
X104511000Y-75565000D01*
X153982750Y-112990000D02*
X137247000Y-112990000D01*
X137247000Y-112990000D02*
X115951000Y-91694000D01*
X157928000Y-116935250D02*
X153982750Y-112990000D01*
%TO.N,Net-(D3-A)*%
X145923000Y-115135000D02*
X145923000Y-120777000D01*
X144399000Y-122301000D02*
X117729000Y-122301000D01*
X145923000Y-120777000D02*
X144399000Y-122301000D01*
X113665000Y-110331250D02*
X116681250Y-107315000D01*
X113665000Y-118237000D02*
X113665000Y-110331250D01*
X145228000Y-114440000D02*
X145923000Y-115135000D01*
X117729000Y-122301000D02*
X113665000Y-118237000D01*
%TO.N,VCC*%
X116840000Y-90043000D02*
X116840000Y-78486000D01*
X116840000Y-78486000D02*
X119761000Y-75565000D01*
X145286000Y-98296000D02*
X144145000Y-98296000D01*
X127381000Y-100584000D02*
X116840000Y-90043000D01*
X131701000Y-100584000D02*
X127381000Y-100584000D01*
X146685000Y-99695000D02*
X145286000Y-98296000D01*
%TO.N,Net-(D4-A)*%
X116967000Y-124460000D02*
X161417000Y-124460000D01*
X161417000Y-124460000D02*
X164719000Y-121158000D01*
X111379000Y-108362750D02*
X111379000Y-118872000D01*
X164719000Y-114836250D02*
X164278000Y-114395250D01*
X111379000Y-118872000D02*
X116967000Y-124460000D01*
X164719000Y-121158000D02*
X164719000Y-114836250D01*
X110331250Y-107315000D02*
X111379000Y-108362750D01*
%TO.N,SDA*%
X143764000Y-85344000D02*
X150876000Y-78232000D01*
X125222000Y-84455000D02*
X126111000Y-85344000D01*
X126111000Y-85344000D02*
X143764000Y-85344000D01*
X150876000Y-78232000D02*
X151511000Y-78232000D01*
%TO.N,SCL*%
X126118000Y-85979000D02*
X144145000Y-85979000D01*
X144145000Y-85979000D02*
X149352000Y-80772000D01*
X125222000Y-86875000D02*
X126118000Y-85979000D01*
X149352000Y-80772000D02*
X151511000Y-80772000D01*
%TO.N,WS2812B*%
X117729000Y-85217000D02*
X119761000Y-83185000D01*
X117729000Y-88773000D02*
X117729000Y-85217000D01*
%TO.N,Net-(D5-DOUT)*%
X139245000Y-98296000D02*
X139245000Y-98880000D01*
X139245000Y-98880000D02*
X135731250Y-102393750D01*
%TO.N,COL2*%
X122809000Y-85725000D02*
X125603000Y-88519000D01*
X185293000Y-92646500D02*
X185293000Y-99489750D01*
X125603000Y-88519000D02*
X181165500Y-88519000D01*
X185293000Y-99489750D02*
X188169000Y-102365750D01*
X181165500Y-88519000D02*
X185293000Y-92646500D01*
X119761000Y-85725000D02*
X122809000Y-85725000D01*
%TD*%
M02*
