%TF.GenerationSoftware,KiCad,Pcbnew,8.0.0*%
%TF.CreationDate,2024-10-07T09:35:36-04:00*%
%TF.ProjectId,orpheuspad_pcb,6f727068-6575-4737-9061-645f7063622e,rev?*%
%TF.SameCoordinates,Original*%
%TF.FileFunction,Legend,Top*%
%TF.FilePolarity,Positive*%
%FSLAX46Y46*%
G04 Gerber Fmt 4.6, Leading zero omitted, Abs format (unit mm)*
G04 Created by KiCad (PCBNEW 8.0.0) date 2024-10-07 09:35:36*
%MOMM*%
%LPD*%
G01*
G04 APERTURE LIST*
%ADD10C,0.100000*%
%ADD11C,0.150000*%
%ADD12C,0.101600*%
%ADD13C,0.120000*%
%ADD14C,0.127000*%
%ADD15C,0.254000*%
%ADD16C,0.025400*%
%ADD17C,0.000000*%
%ADD18R,1.600000X1.600000*%
%ADD19O,1.600000X1.600000*%
%ADD20R,3.500000X1.700000*%
%ADD21O,3.600000X1.700000*%
%ADD22O,3.700000X1.700000*%
%ADD23R,1.700000X1.700000*%
%ADD24O,1.700000X1.700000*%
%ADD25C,1.701800*%
%ADD26C,3.987800*%
%ADD27R,1.500000X0.900000*%
%ADD28R,2.000000X2.000000*%
%ADD29C,2.000000*%
%ADD30R,3.200000X2.000000*%
%ADD31C,3.200000*%
G04 APERTURE END LIST*
D10*
X149256750Y-75723750D02*
X188944250Y-75723750D01*
X188944250Y-88423750D01*
X149256750Y-88423750D01*
X149256750Y-75723750D01*
D11*
X112906069Y-104243094D02*
X111906069Y-104243094D01*
X111906069Y-104243094D02*
X111906069Y-104004999D01*
X111906069Y-104004999D02*
X111953688Y-103862142D01*
X111953688Y-103862142D02*
X112048926Y-103766904D01*
X112048926Y-103766904D02*
X112144164Y-103719285D01*
X112144164Y-103719285D02*
X112334640Y-103671666D01*
X112334640Y-103671666D02*
X112477497Y-103671666D01*
X112477497Y-103671666D02*
X112667973Y-103719285D01*
X112667973Y-103719285D02*
X112763211Y-103766904D01*
X112763211Y-103766904D02*
X112858450Y-103862142D01*
X112858450Y-103862142D02*
X112906069Y-104004999D01*
X112906069Y-104004999D02*
X112906069Y-104243094D01*
X112239402Y-102814523D02*
X112906069Y-102814523D01*
X111858450Y-103052618D02*
X112572735Y-103290713D01*
X112572735Y-103290713D02*
X112572735Y-102671666D01*
X112586069Y-99956904D02*
X111586069Y-99956904D01*
X112586069Y-99385476D02*
X112014640Y-99814047D01*
X111586069Y-99385476D02*
X112157497Y-99956904D01*
D12*
X111458666Y-85241985D02*
X111458666Y-85961652D01*
X111458666Y-85961652D02*
X111501000Y-86046318D01*
X111501000Y-86046318D02*
X111543333Y-86088652D01*
X111543333Y-86088652D02*
X111628000Y-86130985D01*
X111628000Y-86130985D02*
X111797333Y-86130985D01*
X111797333Y-86130985D02*
X111882000Y-86088652D01*
X111882000Y-86088652D02*
X111924333Y-86046318D01*
X111924333Y-86046318D02*
X111966666Y-85961652D01*
X111966666Y-85961652D02*
X111966666Y-85241985D01*
X112855666Y-86130985D02*
X112347666Y-86130985D01*
X112601666Y-86130985D02*
X112601666Y-85241985D01*
X112601666Y-85241985D02*
X112516999Y-85368985D01*
X112516999Y-85368985D02*
X112432333Y-85453652D01*
X112432333Y-85453652D02*
X112347666Y-85495985D01*
D11*
X110612191Y-83139819D02*
X111278857Y-84139819D01*
X111278857Y-83139819D02*
X110612191Y-84139819D01*
X111659810Y-84139819D02*
X111659810Y-83139819D01*
X112088381Y-83854104D02*
X112564571Y-83854104D01*
X111993143Y-84139819D02*
X112326476Y-83139819D01*
X112326476Y-83139819D02*
X112659809Y-84139819D01*
X113183619Y-83139819D02*
X113374095Y-83139819D01*
X113374095Y-83139819D02*
X113469333Y-83187438D01*
X113469333Y-83187438D02*
X113564571Y-83282676D01*
X113564571Y-83282676D02*
X113612190Y-83473152D01*
X113612190Y-83473152D02*
X113612190Y-83806485D01*
X113612190Y-83806485D02*
X113564571Y-83996961D01*
X113564571Y-83996961D02*
X113469333Y-84092200D01*
X113469333Y-84092200D02*
X113374095Y-84139819D01*
X113374095Y-84139819D02*
X113183619Y-84139819D01*
X113183619Y-84139819D02*
X113088381Y-84092200D01*
X113088381Y-84092200D02*
X112993143Y-83996961D01*
X112993143Y-83996961D02*
X112945524Y-83806485D01*
X112945524Y-83806485D02*
X112945524Y-83473152D01*
X112945524Y-83473152D02*
X112993143Y-83282676D01*
X112993143Y-83282676D02*
X113088381Y-83187438D01*
X113088381Y-83187438D02*
X113183619Y-83139819D01*
X107374095Y-82092200D02*
X107516952Y-82139819D01*
X107516952Y-82139819D02*
X107755047Y-82139819D01*
X107755047Y-82139819D02*
X107850285Y-82092200D01*
X107850285Y-82092200D02*
X107897904Y-82044580D01*
X107897904Y-82044580D02*
X107945523Y-81949342D01*
X107945523Y-81949342D02*
X107945523Y-81854104D01*
X107945523Y-81854104D02*
X107897904Y-81758866D01*
X107897904Y-81758866D02*
X107850285Y-81711247D01*
X107850285Y-81711247D02*
X107755047Y-81663628D01*
X107755047Y-81663628D02*
X107564571Y-81616009D01*
X107564571Y-81616009D02*
X107469333Y-81568390D01*
X107469333Y-81568390D02*
X107421714Y-81520771D01*
X107421714Y-81520771D02*
X107374095Y-81425533D01*
X107374095Y-81425533D02*
X107374095Y-81330295D01*
X107374095Y-81330295D02*
X107421714Y-81235057D01*
X107421714Y-81235057D02*
X107469333Y-81187438D01*
X107469333Y-81187438D02*
X107564571Y-81139819D01*
X107564571Y-81139819D02*
X107802666Y-81139819D01*
X107802666Y-81139819D02*
X107945523Y-81187438D01*
X108755047Y-82092200D02*
X108659809Y-82139819D01*
X108659809Y-82139819D02*
X108469333Y-82139819D01*
X108469333Y-82139819D02*
X108374095Y-82092200D01*
X108374095Y-82092200D02*
X108326476Y-81996961D01*
X108326476Y-81996961D02*
X108326476Y-81616009D01*
X108326476Y-81616009D02*
X108374095Y-81520771D01*
X108374095Y-81520771D02*
X108469333Y-81473152D01*
X108469333Y-81473152D02*
X108659809Y-81473152D01*
X108659809Y-81473152D02*
X108755047Y-81520771D01*
X108755047Y-81520771D02*
X108802666Y-81616009D01*
X108802666Y-81616009D02*
X108802666Y-81711247D01*
X108802666Y-81711247D02*
X108326476Y-81806485D01*
X109612190Y-82092200D02*
X109516952Y-82139819D01*
X109516952Y-82139819D02*
X109326476Y-82139819D01*
X109326476Y-82139819D02*
X109231238Y-82092200D01*
X109231238Y-82092200D02*
X109183619Y-81996961D01*
X109183619Y-81996961D02*
X109183619Y-81616009D01*
X109183619Y-81616009D02*
X109231238Y-81520771D01*
X109231238Y-81520771D02*
X109326476Y-81473152D01*
X109326476Y-81473152D02*
X109516952Y-81473152D01*
X109516952Y-81473152D02*
X109612190Y-81520771D01*
X109612190Y-81520771D02*
X109659809Y-81616009D01*
X109659809Y-81616009D02*
X109659809Y-81711247D01*
X109659809Y-81711247D02*
X109183619Y-81806485D01*
X110469333Y-82092200D02*
X110374095Y-82139819D01*
X110374095Y-82139819D02*
X110183619Y-82139819D01*
X110183619Y-82139819D02*
X110088381Y-82092200D01*
X110088381Y-82092200D02*
X110040762Y-81996961D01*
X110040762Y-81996961D02*
X110040762Y-81616009D01*
X110040762Y-81616009D02*
X110088381Y-81520771D01*
X110088381Y-81520771D02*
X110183619Y-81473152D01*
X110183619Y-81473152D02*
X110374095Y-81473152D01*
X110374095Y-81473152D02*
X110469333Y-81520771D01*
X110469333Y-81520771D02*
X110516952Y-81616009D01*
X110516952Y-81616009D02*
X110516952Y-81711247D01*
X110516952Y-81711247D02*
X110040762Y-81806485D01*
X111374095Y-82139819D02*
X111374095Y-81139819D01*
X111374095Y-82092200D02*
X111278857Y-82139819D01*
X111278857Y-82139819D02*
X111088381Y-82139819D01*
X111088381Y-82139819D02*
X110993143Y-82092200D01*
X110993143Y-82092200D02*
X110945524Y-82044580D01*
X110945524Y-82044580D02*
X110897905Y-81949342D01*
X110897905Y-81949342D02*
X110897905Y-81663628D01*
X110897905Y-81663628D02*
X110945524Y-81568390D01*
X110945524Y-81568390D02*
X110993143Y-81520771D01*
X110993143Y-81520771D02*
X111088381Y-81473152D01*
X111088381Y-81473152D02*
X111278857Y-81473152D01*
X111278857Y-81473152D02*
X111374095Y-81520771D01*
X112564572Y-82092200D02*
X112707429Y-82139819D01*
X112707429Y-82139819D02*
X112945524Y-82139819D01*
X112945524Y-82139819D02*
X113040762Y-82092200D01*
X113040762Y-82092200D02*
X113088381Y-82044580D01*
X113088381Y-82044580D02*
X113136000Y-81949342D01*
X113136000Y-81949342D02*
X113136000Y-81854104D01*
X113136000Y-81854104D02*
X113088381Y-81758866D01*
X113088381Y-81758866D02*
X113040762Y-81711247D01*
X113040762Y-81711247D02*
X112945524Y-81663628D01*
X112945524Y-81663628D02*
X112755048Y-81616009D01*
X112755048Y-81616009D02*
X112659810Y-81568390D01*
X112659810Y-81568390D02*
X112612191Y-81520771D01*
X112612191Y-81520771D02*
X112564572Y-81425533D01*
X112564572Y-81425533D02*
X112564572Y-81330295D01*
X112564572Y-81330295D02*
X112612191Y-81235057D01*
X112612191Y-81235057D02*
X112659810Y-81187438D01*
X112659810Y-81187438D02*
X112755048Y-81139819D01*
X112755048Y-81139819D02*
X112993143Y-81139819D01*
X112993143Y-81139819D02*
X113136000Y-81187438D01*
X113421715Y-81473152D02*
X113802667Y-81473152D01*
X113564572Y-81139819D02*
X113564572Y-81996961D01*
X113564572Y-81996961D02*
X113612191Y-82092200D01*
X113612191Y-82092200D02*
X113707429Y-82139819D01*
X113707429Y-82139819D02*
X113802667Y-82139819D01*
X114564572Y-81473152D02*
X114564572Y-82139819D01*
X114136001Y-81473152D02*
X114136001Y-81996961D01*
X114136001Y-81996961D02*
X114183620Y-82092200D01*
X114183620Y-82092200D02*
X114278858Y-82139819D01*
X114278858Y-82139819D02*
X114421715Y-82139819D01*
X114421715Y-82139819D02*
X114516953Y-82092200D01*
X114516953Y-82092200D02*
X114564572Y-82044580D01*
X115469334Y-82139819D02*
X115469334Y-81139819D01*
X115469334Y-82092200D02*
X115374096Y-82139819D01*
X115374096Y-82139819D02*
X115183620Y-82139819D01*
X115183620Y-82139819D02*
X115088382Y-82092200D01*
X115088382Y-82092200D02*
X115040763Y-82044580D01*
X115040763Y-82044580D02*
X114993144Y-81949342D01*
X114993144Y-81949342D02*
X114993144Y-81663628D01*
X114993144Y-81663628D02*
X115040763Y-81568390D01*
X115040763Y-81568390D02*
X115088382Y-81520771D01*
X115088382Y-81520771D02*
X115183620Y-81473152D01*
X115183620Y-81473152D02*
X115374096Y-81473152D01*
X115374096Y-81473152D02*
X115469334Y-81520771D01*
X115945525Y-82139819D02*
X115945525Y-81473152D01*
X115945525Y-81139819D02*
X115897906Y-81187438D01*
X115897906Y-81187438D02*
X115945525Y-81235057D01*
X115945525Y-81235057D02*
X115993144Y-81187438D01*
X115993144Y-81187438D02*
X115945525Y-81139819D01*
X115945525Y-81139819D02*
X115945525Y-81235057D01*
X116564572Y-82139819D02*
X116469334Y-82092200D01*
X116469334Y-82092200D02*
X116421715Y-82044580D01*
X116421715Y-82044580D02*
X116374096Y-81949342D01*
X116374096Y-81949342D02*
X116374096Y-81663628D01*
X116374096Y-81663628D02*
X116421715Y-81568390D01*
X116421715Y-81568390D02*
X116469334Y-81520771D01*
X116469334Y-81520771D02*
X116564572Y-81473152D01*
X116564572Y-81473152D02*
X116707429Y-81473152D01*
X116707429Y-81473152D02*
X116802667Y-81520771D01*
X116802667Y-81520771D02*
X116850286Y-81568390D01*
X116850286Y-81568390D02*
X116897905Y-81663628D01*
X116897905Y-81663628D02*
X116897905Y-81949342D01*
X116897905Y-81949342D02*
X116850286Y-82044580D01*
X116850286Y-82044580D02*
X116802667Y-82092200D01*
X116802667Y-82092200D02*
X116707429Y-82139819D01*
X116707429Y-82139819D02*
X116564572Y-82139819D01*
X116081069Y-104243094D02*
X115081069Y-104243094D01*
X115081069Y-104243094D02*
X115081069Y-104004999D01*
X115081069Y-104004999D02*
X115128688Y-103862142D01*
X115128688Y-103862142D02*
X115223926Y-103766904D01*
X115223926Y-103766904D02*
X115319164Y-103719285D01*
X115319164Y-103719285D02*
X115509640Y-103671666D01*
X115509640Y-103671666D02*
X115652497Y-103671666D01*
X115652497Y-103671666D02*
X115842973Y-103719285D01*
X115842973Y-103719285D02*
X115938211Y-103766904D01*
X115938211Y-103766904D02*
X116033450Y-103862142D01*
X116033450Y-103862142D02*
X116081069Y-104004999D01*
X116081069Y-104004999D02*
X116081069Y-104243094D01*
X116081069Y-102719285D02*
X116081069Y-103290713D01*
X116081069Y-103004999D02*
X115081069Y-103004999D01*
X115081069Y-103004999D02*
X115223926Y-103100237D01*
X115223926Y-103100237D02*
X115319164Y-103195475D01*
X115319164Y-103195475D02*
X115366783Y-103290713D01*
X115761069Y-99956904D02*
X114761069Y-99956904D01*
X115761069Y-99385476D02*
X115189640Y-99814047D01*
X114761069Y-99385476D02*
X115332497Y-99956904D01*
X151177666Y-75356819D02*
X151177666Y-76071104D01*
X151177666Y-76071104D02*
X151130047Y-76213961D01*
X151130047Y-76213961D02*
X151034809Y-76309200D01*
X151034809Y-76309200D02*
X150891952Y-76356819D01*
X150891952Y-76356819D02*
X150796714Y-76356819D01*
X152177666Y-76356819D02*
X151606238Y-76356819D01*
X151891952Y-76356819D02*
X151891952Y-75356819D01*
X151891952Y-75356819D02*
X151796714Y-75499676D01*
X151796714Y-75499676D02*
X151701476Y-75594914D01*
X151701476Y-75594914D02*
X151606238Y-75642533D01*
X140956905Y-93164819D02*
X140956905Y-92164819D01*
X140956905Y-92164819D02*
X141195000Y-92164819D01*
X141195000Y-92164819D02*
X141337857Y-92212438D01*
X141337857Y-92212438D02*
X141433095Y-92307676D01*
X141433095Y-92307676D02*
X141480714Y-92402914D01*
X141480714Y-92402914D02*
X141528333Y-92593390D01*
X141528333Y-92593390D02*
X141528333Y-92736247D01*
X141528333Y-92736247D02*
X141480714Y-92926723D01*
X141480714Y-92926723D02*
X141433095Y-93021961D01*
X141433095Y-93021961D02*
X141337857Y-93117200D01*
X141337857Y-93117200D02*
X141195000Y-93164819D01*
X141195000Y-93164819D02*
X140956905Y-93164819D01*
X142385476Y-92164819D02*
X142195000Y-92164819D01*
X142195000Y-92164819D02*
X142099762Y-92212438D01*
X142099762Y-92212438D02*
X142052143Y-92260057D01*
X142052143Y-92260057D02*
X141956905Y-92402914D01*
X141956905Y-92402914D02*
X141909286Y-92593390D01*
X141909286Y-92593390D02*
X141909286Y-92974342D01*
X141909286Y-92974342D02*
X141956905Y-93069580D01*
X141956905Y-93069580D02*
X142004524Y-93117200D01*
X142004524Y-93117200D02*
X142099762Y-93164819D01*
X142099762Y-93164819D02*
X142290238Y-93164819D01*
X142290238Y-93164819D02*
X142385476Y-93117200D01*
X142385476Y-93117200D02*
X142433095Y-93069580D01*
X142433095Y-93069580D02*
X142480714Y-92974342D01*
X142480714Y-92974342D02*
X142480714Y-92736247D01*
X142480714Y-92736247D02*
X142433095Y-92641009D01*
X142433095Y-92641009D02*
X142385476Y-92593390D01*
X142385476Y-92593390D02*
X142290238Y-92545771D01*
X142290238Y-92545771D02*
X142099762Y-92545771D01*
X142099762Y-92545771D02*
X142004524Y-92593390D01*
X142004524Y-92593390D02*
X141956905Y-92641009D01*
X141956905Y-92641009D02*
X141909286Y-92736247D01*
X146130714Y-98700819D02*
X145559286Y-98700819D01*
X145845000Y-98700819D02*
X145845000Y-97700819D01*
X145845000Y-97700819D02*
X145749762Y-97843676D01*
X145749762Y-97843676D02*
X145654524Y-97938914D01*
X145654524Y-97938914D02*
X145559286Y-97986533D01*
X109731069Y-104243094D02*
X108731069Y-104243094D01*
X108731069Y-104243094D02*
X108731069Y-104004999D01*
X108731069Y-104004999D02*
X108778688Y-103862142D01*
X108778688Y-103862142D02*
X108873926Y-103766904D01*
X108873926Y-103766904D02*
X108969164Y-103719285D01*
X108969164Y-103719285D02*
X109159640Y-103671666D01*
X109159640Y-103671666D02*
X109302497Y-103671666D01*
X109302497Y-103671666D02*
X109492973Y-103719285D01*
X109492973Y-103719285D02*
X109588211Y-103766904D01*
X109588211Y-103766904D02*
X109683450Y-103862142D01*
X109683450Y-103862142D02*
X109731069Y-104004999D01*
X109731069Y-104004999D02*
X109731069Y-104243094D01*
X108826307Y-103290713D02*
X108778688Y-103243094D01*
X108778688Y-103243094D02*
X108731069Y-103147856D01*
X108731069Y-103147856D02*
X108731069Y-102909761D01*
X108731069Y-102909761D02*
X108778688Y-102814523D01*
X108778688Y-102814523D02*
X108826307Y-102766904D01*
X108826307Y-102766904D02*
X108921545Y-102719285D01*
X108921545Y-102719285D02*
X109016783Y-102719285D01*
X109016783Y-102719285D02*
X109159640Y-102766904D01*
X109159640Y-102766904D02*
X109731069Y-103338332D01*
X109731069Y-103338332D02*
X109731069Y-102719285D01*
X109411069Y-99956904D02*
X108411069Y-99956904D01*
X109411069Y-99385476D02*
X108839640Y-99814047D01*
X108411069Y-99385476D02*
X108982497Y-99956904D01*
X177633714Y-91244009D02*
X177967047Y-91244009D01*
X178109904Y-91767819D02*
X177633714Y-91767819D01*
X177633714Y-91767819D02*
X177633714Y-90767819D01*
X177633714Y-90767819D02*
X178109904Y-90767819D01*
X178538476Y-91767819D02*
X178538476Y-90767819D01*
X178538476Y-90767819D02*
X179109904Y-91767819D01*
X179109904Y-91767819D02*
X179109904Y-90767819D01*
X180157523Y-91672580D02*
X180109904Y-91720200D01*
X180109904Y-91720200D02*
X179967047Y-91767819D01*
X179967047Y-91767819D02*
X179871809Y-91767819D01*
X179871809Y-91767819D02*
X179728952Y-91720200D01*
X179728952Y-91720200D02*
X179633714Y-91624961D01*
X179633714Y-91624961D02*
X179586095Y-91529723D01*
X179586095Y-91529723D02*
X179538476Y-91339247D01*
X179538476Y-91339247D02*
X179538476Y-91196390D01*
X179538476Y-91196390D02*
X179586095Y-91005914D01*
X179586095Y-91005914D02*
X179633714Y-90910676D01*
X179633714Y-90910676D02*
X179728952Y-90815438D01*
X179728952Y-90815438D02*
X179871809Y-90767819D01*
X179871809Y-90767819D02*
X179967047Y-90767819D01*
X179967047Y-90767819D02*
X180109904Y-90815438D01*
X180109904Y-90815438D02*
X180157523Y-90863057D01*
X180776571Y-90767819D02*
X180967047Y-90767819D01*
X180967047Y-90767819D02*
X181062285Y-90815438D01*
X181062285Y-90815438D02*
X181157523Y-90910676D01*
X181157523Y-90910676D02*
X181205142Y-91101152D01*
X181205142Y-91101152D02*
X181205142Y-91434485D01*
X181205142Y-91434485D02*
X181157523Y-91624961D01*
X181157523Y-91624961D02*
X181062285Y-91720200D01*
X181062285Y-91720200D02*
X180967047Y-91767819D01*
X180967047Y-91767819D02*
X180776571Y-91767819D01*
X180776571Y-91767819D02*
X180681333Y-91720200D01*
X180681333Y-91720200D02*
X180586095Y-91624961D01*
X180586095Y-91624961D02*
X180538476Y-91434485D01*
X180538476Y-91434485D02*
X180538476Y-91101152D01*
X180538476Y-91101152D02*
X180586095Y-90910676D01*
X180586095Y-90910676D02*
X180681333Y-90815438D01*
X180681333Y-90815438D02*
X180776571Y-90767819D01*
X181633714Y-91767819D02*
X181633714Y-90767819D01*
X181633714Y-90767819D02*
X181871809Y-90767819D01*
X181871809Y-90767819D02*
X182014666Y-90815438D01*
X182014666Y-90815438D02*
X182109904Y-90910676D01*
X182109904Y-90910676D02*
X182157523Y-91005914D01*
X182157523Y-91005914D02*
X182205142Y-91196390D01*
X182205142Y-91196390D02*
X182205142Y-91339247D01*
X182205142Y-91339247D02*
X182157523Y-91529723D01*
X182157523Y-91529723D02*
X182109904Y-91624961D01*
X182109904Y-91624961D02*
X182014666Y-91720200D01*
X182014666Y-91720200D02*
X181871809Y-91767819D01*
X181871809Y-91767819D02*
X181633714Y-91767819D01*
X182633714Y-91244009D02*
X182967047Y-91244009D01*
X183109904Y-91767819D02*
X182633714Y-91767819D01*
X182633714Y-91767819D02*
X182633714Y-90767819D01*
X182633714Y-90767819D02*
X183109904Y-90767819D01*
X184109904Y-91767819D02*
X183776571Y-91291628D01*
X183538476Y-91767819D02*
X183538476Y-90767819D01*
X183538476Y-90767819D02*
X183919428Y-90767819D01*
X183919428Y-90767819D02*
X184014666Y-90815438D01*
X184014666Y-90815438D02*
X184062285Y-90863057D01*
X184062285Y-90863057D02*
X184109904Y-90958295D01*
X184109904Y-90958295D02*
X184109904Y-91101152D01*
X184109904Y-91101152D02*
X184062285Y-91196390D01*
X184062285Y-91196390D02*
X184014666Y-91244009D01*
X184014666Y-91244009D02*
X183919428Y-91291628D01*
X183919428Y-91291628D02*
X183538476Y-91291628D01*
X119256069Y-104243094D02*
X118256069Y-104243094D01*
X118256069Y-104243094D02*
X118256069Y-104004999D01*
X118256069Y-104004999D02*
X118303688Y-103862142D01*
X118303688Y-103862142D02*
X118398926Y-103766904D01*
X118398926Y-103766904D02*
X118494164Y-103719285D01*
X118494164Y-103719285D02*
X118684640Y-103671666D01*
X118684640Y-103671666D02*
X118827497Y-103671666D01*
X118827497Y-103671666D02*
X119017973Y-103719285D01*
X119017973Y-103719285D02*
X119113211Y-103766904D01*
X119113211Y-103766904D02*
X119208450Y-103862142D01*
X119208450Y-103862142D02*
X119256069Y-104004999D01*
X119256069Y-104004999D02*
X119256069Y-104243094D01*
X118256069Y-103338332D02*
X118256069Y-102719285D01*
X118256069Y-102719285D02*
X118637021Y-103052618D01*
X118637021Y-103052618D02*
X118637021Y-102909761D01*
X118637021Y-102909761D02*
X118684640Y-102814523D01*
X118684640Y-102814523D02*
X118732259Y-102766904D01*
X118732259Y-102766904D02*
X118827497Y-102719285D01*
X118827497Y-102719285D02*
X119065592Y-102719285D01*
X119065592Y-102719285D02*
X119160830Y-102766904D01*
X119160830Y-102766904D02*
X119208450Y-102814523D01*
X119208450Y-102814523D02*
X119256069Y-102909761D01*
X119256069Y-102909761D02*
X119256069Y-103195475D01*
X119256069Y-103195475D02*
X119208450Y-103290713D01*
X119208450Y-103290713D02*
X119160830Y-103338332D01*
X118936069Y-99956904D02*
X117936069Y-99956904D01*
X118936069Y-99385476D02*
X118364640Y-99814047D01*
X117936069Y-99385476D02*
X118507497Y-99956904D01*
X188121819Y-82653094D02*
X187121819Y-82653094D01*
X187121819Y-82653094D02*
X187121819Y-82414999D01*
X187121819Y-82414999D02*
X187169438Y-82272142D01*
X187169438Y-82272142D02*
X187264676Y-82176904D01*
X187264676Y-82176904D02*
X187359914Y-82129285D01*
X187359914Y-82129285D02*
X187550390Y-82081666D01*
X187550390Y-82081666D02*
X187693247Y-82081666D01*
X187693247Y-82081666D02*
X187883723Y-82129285D01*
X187883723Y-82129285D02*
X187978961Y-82176904D01*
X187978961Y-82176904D02*
X188074200Y-82272142D01*
X188074200Y-82272142D02*
X188121819Y-82414999D01*
X188121819Y-82414999D02*
X188121819Y-82653094D01*
X188121819Y-81605475D02*
X188121819Y-81414999D01*
X188121819Y-81414999D02*
X188074200Y-81319761D01*
X188074200Y-81319761D02*
X188026580Y-81272142D01*
X188026580Y-81272142D02*
X187883723Y-81176904D01*
X187883723Y-81176904D02*
X187693247Y-81129285D01*
X187693247Y-81129285D02*
X187312295Y-81129285D01*
X187312295Y-81129285D02*
X187217057Y-81176904D01*
X187217057Y-81176904D02*
X187169438Y-81224523D01*
X187169438Y-81224523D02*
X187121819Y-81319761D01*
X187121819Y-81319761D02*
X187121819Y-81510237D01*
X187121819Y-81510237D02*
X187169438Y-81605475D01*
X187169438Y-81605475D02*
X187217057Y-81653094D01*
X187217057Y-81653094D02*
X187312295Y-81700713D01*
X187312295Y-81700713D02*
X187550390Y-81700713D01*
X187550390Y-81700713D02*
X187645628Y-81653094D01*
X187645628Y-81653094D02*
X187693247Y-81605475D01*
X187693247Y-81605475D02*
X187740866Y-81510237D01*
X187740866Y-81510237D02*
X187740866Y-81319761D01*
X187740866Y-81319761D02*
X187693247Y-81224523D01*
X187693247Y-81224523D02*
X187645628Y-81176904D01*
X187645628Y-81176904D02*
X187550390Y-81129285D01*
X187801819Y-78366904D02*
X186801819Y-78366904D01*
X187801819Y-77795476D02*
X187230390Y-78224047D01*
X186801819Y-77795476D02*
X187373247Y-78366904D01*
D13*
%TO.C,D4*%
X109211250Y-101385000D02*
X109211250Y-105625000D01*
X109211250Y-105625000D02*
X111451250Y-105625000D01*
X110331250Y-100735000D02*
X110331250Y-101385000D01*
X110331250Y-106275000D02*
X110331250Y-105625000D01*
X111451250Y-101385000D02*
X109211250Y-101385000D01*
X111451250Y-101985000D02*
X109211250Y-101985000D01*
X111451250Y-102105000D02*
X109211250Y-102105000D01*
X111451250Y-102225000D02*
X109211250Y-102225000D01*
X111451250Y-105625000D02*
X111451250Y-101385000D01*
D14*
%TO.C,U1*%
X103236000Y-74685000D02*
X103236000Y-91685000D01*
X105236000Y-93685000D02*
X119036000Y-93685000D01*
X107636000Y-71260970D02*
X116636000Y-71260970D01*
X107636000Y-78614270D02*
X107636000Y-71260970D01*
X116636000Y-71260970D02*
X116636000Y-78614270D01*
X116636000Y-78614270D02*
X107636000Y-78614270D01*
X119036000Y-72685910D02*
X105236000Y-72685910D01*
X121036000Y-91685000D02*
X121036000Y-74685000D01*
D13*
X103236001Y-74685000D02*
G75*
G02*
X105236000Y-72685001I2044611J-44612D01*
G01*
X105236000Y-93684999D02*
G75*
G02*
X103236001Y-91685000I44857J2044856D01*
G01*
X119036000Y-72685000D02*
G75*
G02*
X121036000Y-74685000I-44600J-2044600D01*
G01*
X121036000Y-91685000D02*
G75*
G02*
X119036000Y-93685000I-2000000J0D01*
G01*
D15*
X101263000Y-74385000D02*
G75*
G02*
X101009000Y-74385000I-127000J0D01*
G01*
X101009000Y-74385000D02*
G75*
G02*
X101263000Y-74385000I127000J0D01*
G01*
D16*
X103248285Y-74623295D02*
X103251333Y-74574527D01*
X103255397Y-74525506D01*
X103248285Y-74623295D01*
X121023713Y-91755850D02*
X121020665Y-91804618D01*
X121016601Y-91853639D01*
X121011268Y-91902407D01*
X121004664Y-91951175D01*
X120997044Y-91999690D01*
X120988153Y-92047950D01*
X120978248Y-92095955D01*
X121025492Y-91706574D01*
X121023713Y-91755850D01*
D13*
%TO.C,D1*%
X112386250Y-101385000D02*
X112386250Y-105625000D01*
X112386250Y-105625000D02*
X114626250Y-105625000D01*
X113506250Y-100735000D02*
X113506250Y-101385000D01*
X113506250Y-106275000D02*
X113506250Y-105625000D01*
X114626250Y-101385000D02*
X112386250Y-101385000D01*
X114626250Y-101985000D02*
X112386250Y-101985000D01*
X114626250Y-102105000D02*
X112386250Y-102105000D01*
X114626250Y-102225000D02*
X112386250Y-102225000D01*
X114626250Y-105625000D02*
X114626250Y-101385000D01*
%TO.C,J1*%
X150181000Y-76902000D02*
X151511000Y-76902000D01*
X150181000Y-78232000D02*
X150181000Y-76902000D01*
X150181000Y-79502000D02*
X150181000Y-87182000D01*
X150181000Y-79502000D02*
X152841000Y-79502000D01*
X150181000Y-87182000D02*
X152841000Y-87182000D01*
X152841000Y-79502000D02*
X152841000Y-87182000D01*
%TO.C,D6*%
X138045000Y-93896000D02*
X138045000Y-95046000D01*
X145345000Y-93896000D02*
X138045000Y-93896000D01*
X145345000Y-99396000D02*
X138045000Y-99396000D01*
%TO.C,D2*%
X106036250Y-101385000D02*
X106036250Y-105625000D01*
X106036250Y-105625000D02*
X108276250Y-105625000D01*
X107156250Y-100735000D02*
X107156250Y-101385000D01*
X107156250Y-106275000D02*
X107156250Y-105625000D01*
X108276250Y-101385000D02*
X106036250Y-101385000D01*
X108276250Y-101985000D02*
X106036250Y-101985000D01*
X108276250Y-102105000D02*
X106036250Y-102105000D01*
X108276250Y-102225000D02*
X106036250Y-102225000D01*
X108276250Y-105625000D02*
X108276250Y-101385000D01*
%TO.C,ENCODER*%
X173369000Y-95765750D02*
X173969000Y-95765750D01*
X173669000Y-96065750D02*
X173369000Y-95765750D01*
X173969000Y-95765750D02*
X173669000Y-96065750D01*
X175069000Y-93965750D02*
X175069000Y-105765750D01*
X179169000Y-93965750D02*
X175069000Y-93965750D01*
X179169000Y-105765750D02*
X175069000Y-105765750D01*
X180669000Y-99865750D02*
X181669000Y-99865750D01*
X181169000Y-99365750D02*
X181169000Y-100365750D01*
X183169000Y-93965750D02*
X187269000Y-93965750D01*
X187269000Y-93965750D02*
X187269000Y-96365750D01*
X187269000Y-98565750D02*
X187269000Y-101165750D01*
X187269000Y-103365750D02*
X187269000Y-105765750D01*
X187269000Y-105765750D02*
X183169000Y-105765750D01*
X184169000Y-99865750D02*
G75*
G02*
X178169000Y-99865750I-3000000J0D01*
G01*
X178169000Y-99865750D02*
G75*
G02*
X184169000Y-99865750I3000000J0D01*
G01*
D17*
%TO.C,G\u002A\u002A\u002A*%
G36*
X107959105Y-125514788D02*
G01*
X107695944Y-126152916D01*
X107563327Y-126152916D01*
X107430709Y-126152916D01*
X107543612Y-125883902D01*
X107595799Y-125759230D01*
X107659832Y-125605771D01*
X107728433Y-125440987D01*
X107794327Y-125282342D01*
X107809489Y-125245773D01*
X107962464Y-124876660D01*
X108092365Y-124876660D01*
X108222265Y-124876660D01*
X107959105Y-125514788D01*
G37*
G36*
X108935065Y-125514788D02*
G01*
X108671905Y-126152916D01*
X108539287Y-126152916D01*
X108406669Y-126152916D01*
X108519572Y-125883902D01*
X108571760Y-125759230D01*
X108635792Y-125605771D01*
X108704394Y-125440987D01*
X108770288Y-125282342D01*
X108785450Y-125245773D01*
X108938425Y-124876660D01*
X109068325Y-124876660D01*
X109198225Y-124876660D01*
X108935065Y-125514788D01*
G37*
G36*
X104689861Y-125807307D02*
G01*
X104754104Y-125839148D01*
X104793835Y-125897404D01*
X104800025Y-125937212D01*
X104779989Y-126018490D01*
X104728389Y-126070591D01*
X104657987Y-126087279D01*
X104581547Y-126062319D01*
X104566223Y-126051440D01*
X104512742Y-125985699D01*
X104503745Y-125914453D01*
X104540346Y-125848853D01*
X104545493Y-125843987D01*
X104615520Y-125807160D01*
X104689861Y-125807307D01*
G37*
G36*
X127593786Y-89724942D02*
G01*
X127642601Y-89760397D01*
X127688351Y-89806422D01*
X127748965Y-89884884D01*
X127771107Y-89945327D01*
X127757334Y-89982040D01*
X127710202Y-89989313D01*
X127632267Y-89961435D01*
X127621514Y-89955755D01*
X127555363Y-89903900D01*
X127515531Y-89841316D01*
X127508870Y-89781755D01*
X127521682Y-89755444D01*
X127556980Y-89724362D01*
X127593786Y-89724942D01*
G37*
G36*
X112537228Y-125812495D02*
G01*
X112581805Y-125850976D01*
X112606252Y-125939186D01*
X112586420Y-126017179D01*
X112526544Y-126074052D01*
X112489259Y-126089382D01*
X112433957Y-126088778D01*
X112375671Y-126048187D01*
X112370392Y-126042997D01*
X112320365Y-125980835D01*
X112311941Y-125926396D01*
X112342966Y-125863108D01*
X112346370Y-125858189D01*
X112399798Y-125816157D01*
X112469894Y-125800727D01*
X112537228Y-125812495D01*
G37*
G36*
X115473766Y-125812388D02*
G01*
X115505562Y-125832601D01*
X115530905Y-125887675D01*
X115532054Y-125960781D01*
X115509169Y-126026229D01*
X115504311Y-126032996D01*
X115439362Y-126084137D01*
X115367587Y-126086890D01*
X115298274Y-126042997D01*
X115248247Y-125980835D01*
X115239823Y-125926396D01*
X115270848Y-125863108D01*
X115274252Y-125858189D01*
X115328224Y-125817765D01*
X115402375Y-125801652D01*
X115473766Y-125812388D01*
G37*
G36*
X126610736Y-93212194D02*
G01*
X126645906Y-93257033D01*
X126679270Y-93321894D01*
X126682560Y-93368533D01*
X126672091Y-93394669D01*
X126627094Y-93438474D01*
X126566026Y-93436506D01*
X126492582Y-93388970D01*
X126487522Y-93384358D01*
X126436818Y-93328623D01*
X126424063Y-93281101D01*
X126444788Y-93223438D01*
X126447211Y-93218857D01*
X126492190Y-93175434D01*
X126550294Y-93173904D01*
X126610736Y-93212194D01*
G37*
G36*
X123680084Y-124398854D02*
G01*
X123750008Y-124457727D01*
X123789513Y-124539004D01*
X123793720Y-124576365D01*
X123771033Y-124662926D01*
X123712160Y-124732850D01*
X123630884Y-124772355D01*
X123593523Y-124776562D01*
X123505692Y-124753168D01*
X123454750Y-124715138D01*
X123406150Y-124636787D01*
X123398222Y-124551364D01*
X123425839Y-124471387D01*
X123483879Y-124409371D01*
X123567217Y-124377834D01*
X123593523Y-124376168D01*
X123680084Y-124398854D01*
G37*
G36*
X126756666Y-91343034D02*
G01*
X126783585Y-91368041D01*
X126835644Y-91411898D01*
X126875050Y-91432289D01*
X126912592Y-91465899D01*
X126919499Y-91521256D01*
X126895667Y-91580448D01*
X126876035Y-91602535D01*
X126821662Y-91639021D01*
X126773069Y-91633913D01*
X126740024Y-91612670D01*
X126693691Y-91553990D01*
X126659492Y-91468060D01*
X126646528Y-91379563D01*
X126662646Y-91331434D01*
X126703239Y-91318931D01*
X126756666Y-91343034D01*
G37*
G36*
X119489483Y-103305429D02*
G01*
X119489483Y-109661685D01*
X112032143Y-109661685D01*
X104574803Y-109661685D01*
X104574803Y-103305429D01*
X104574803Y-97349567D01*
X104975198Y-97349567D01*
X104975198Y-103305429D01*
X104975198Y-109261291D01*
X112032143Y-109261291D01*
X119089089Y-109261291D01*
X119089089Y-103305429D01*
X119089089Y-97349567D01*
X112032143Y-97349567D01*
X104975198Y-97349567D01*
X104574803Y-97349567D01*
X104574803Y-96949173D01*
X112032143Y-96949173D01*
X119489483Y-96949173D01*
X119489483Y-103305429D01*
G37*
G36*
X141329800Y-81086974D02*
G01*
X141398900Y-81140041D01*
X141433437Y-81220135D01*
X141436084Y-81254217D01*
X141420399Y-81334946D01*
X141370472Y-81408615D01*
X141281996Y-81479042D01*
X141150666Y-81550048D01*
X141055017Y-81592230D01*
X140961732Y-81631079D01*
X140934548Y-81526234D01*
X140910790Y-81435161D01*
X140887462Y-81346550D01*
X140884080Y-81333803D01*
X140864854Y-81245872D01*
X140869580Y-81189964D01*
X140904996Y-81151109D01*
X140977836Y-81114337D01*
X140984024Y-81111663D01*
X141115472Y-81070612D01*
X141233027Y-81063107D01*
X141329800Y-81086974D01*
G37*
G36*
X141076362Y-80430517D02*
G01*
X141110764Y-80457941D01*
X141151987Y-80515643D01*
X141155352Y-80578070D01*
X141124334Y-80656094D01*
X141086997Y-80702826D01*
X141024083Y-80759554D01*
X140950033Y-80815555D01*
X140879289Y-80860104D01*
X140826295Y-80882478D01*
X140818260Y-80883360D01*
X140796910Y-80862063D01*
X140763048Y-80805591D01*
X140723160Y-80725071D01*
X140713559Y-80703740D01*
X140672495Y-80607800D01*
X140655913Y-80546244D01*
X140668673Y-80507412D01*
X140715635Y-80479644D01*
X140801658Y-80451281D01*
X140821267Y-80445334D01*
X140935335Y-80416359D01*
X141016563Y-80411254D01*
X141076362Y-80430517D01*
G37*
G36*
X140847842Y-107371931D02*
G01*
X140859520Y-107460062D01*
X140871285Y-107537866D01*
X140875559Y-107562305D01*
X140879125Y-107602297D01*
X140862313Y-107624287D01*
X140813488Y-107637296D01*
X140770644Y-107643635D01*
X140692677Y-107650000D01*
X140579356Y-107653932D01*
X140445314Y-107655472D01*
X140305184Y-107654662D01*
X140173599Y-107651544D01*
X140065194Y-107646159D01*
X140014323Y-107641491D01*
X139958578Y-107630049D01*
X139940097Y-107605700D01*
X139944181Y-107564166D01*
X139954959Y-107498628D01*
X139967333Y-107410940D01*
X139972307Y-107371931D01*
X139987631Y-107246808D01*
X140410074Y-107246808D01*
X140832517Y-107246808D01*
X140847842Y-107371931D01*
G37*
G36*
X143978194Y-103603929D02*
G01*
X143991203Y-103652753D01*
X143997542Y-103695598D01*
X144006525Y-103797026D01*
X144011693Y-103930731D01*
X144013042Y-104079185D01*
X144010567Y-104224856D01*
X144004266Y-104350213D01*
X143997707Y-104415532D01*
X143982285Y-104490528D01*
X143957844Y-104523852D01*
X143916576Y-104523865D01*
X143901010Y-104519062D01*
X143863658Y-104511636D01*
X143794337Y-104501746D01*
X143738350Y-104494994D01*
X143600715Y-104479548D01*
X143600715Y-104056636D01*
X143600715Y-103633724D01*
X143725838Y-103618400D01*
X143813969Y-103606722D01*
X143891773Y-103594957D01*
X143916212Y-103590683D01*
X143956204Y-103587117D01*
X143978194Y-103603929D01*
G37*
G36*
X136903937Y-103590683D02*
G01*
X136968206Y-103601193D01*
X137055044Y-103613399D01*
X137094311Y-103618400D01*
X137219434Y-103633724D01*
X137219434Y-104056168D01*
X137219434Y-104478611D01*
X137094311Y-104493935D01*
X137006180Y-104505614D01*
X136928376Y-104517378D01*
X136903937Y-104521653D01*
X136863945Y-104525218D01*
X136841955Y-104508406D01*
X136828945Y-104459582D01*
X136822606Y-104416737D01*
X136815408Y-104338319D01*
X136809875Y-104228734D01*
X136806849Y-104106858D01*
X136806528Y-104056168D01*
X136808240Y-103934775D01*
X136812815Y-103817684D01*
X136819411Y-103723771D01*
X136822606Y-103695598D01*
X136834513Y-103625084D01*
X136850619Y-103592752D01*
X136879945Y-103586965D01*
X136903937Y-103590683D01*
G37*
G36*
X140531467Y-100454333D02*
G01*
X140648558Y-100458908D01*
X140742471Y-100465504D01*
X140770644Y-100468700D01*
X140841158Y-100480606D01*
X140873490Y-100496712D01*
X140879277Y-100526038D01*
X140875559Y-100550030D01*
X140865049Y-100614299D01*
X140852843Y-100701137D01*
X140847842Y-100740404D01*
X140832517Y-100865527D01*
X140410074Y-100865527D01*
X139987631Y-100865527D01*
X139972307Y-100740404D01*
X139960628Y-100652273D01*
X139948864Y-100574469D01*
X139944589Y-100550030D01*
X139941024Y-100510038D01*
X139957835Y-100488048D01*
X140006660Y-100475039D01*
X140049505Y-100468700D01*
X140127923Y-100461502D01*
X140237508Y-100455968D01*
X140359384Y-100452942D01*
X140410074Y-100452621D01*
X140531467Y-100454333D01*
G37*
G36*
X131326291Y-80149602D02*
G01*
X131335230Y-80233473D01*
X131337080Y-80349995D01*
X131331735Y-80490709D01*
X131319089Y-80647151D01*
X131317307Y-80664394D01*
X131307682Y-80753300D01*
X131295226Y-80812041D01*
X131271196Y-80844891D01*
X131226849Y-80856123D01*
X131153440Y-80850009D01*
X131042226Y-80830822D01*
X130994524Y-80822130D01*
X130908360Y-80805291D01*
X130843780Y-80790351D01*
X130814545Y-80780500D01*
X130814428Y-80780390D01*
X130824246Y-80757234D01*
X130858465Y-80700134D01*
X130912633Y-80616039D01*
X130982301Y-80511902D01*
X131042685Y-80423905D01*
X131137227Y-80289805D01*
X131208297Y-80194630D01*
X131258894Y-80134829D01*
X131292015Y-80106852D01*
X131310368Y-80106845D01*
X131326291Y-80149602D01*
G37*
G36*
X131025946Y-89989482D02*
G01*
X131093060Y-90048145D01*
X131157067Y-90131468D01*
X131209858Y-90227629D01*
X131243329Y-90324808D01*
X131250920Y-90385957D01*
X131229844Y-90480770D01*
X131171361Y-90583173D01*
X131083765Y-90680357D01*
X131033581Y-90721562D01*
X130906224Y-90799788D01*
X130796697Y-90833607D01*
X130706522Y-90822623D01*
X130686201Y-90812239D01*
X130640095Y-90775666D01*
X130579025Y-90716819D01*
X130542310Y-90677470D01*
X130474200Y-90579344D01*
X130450766Y-90481084D01*
X130470507Y-90371131D01*
X130494721Y-90311147D01*
X130536984Y-90251737D01*
X130608934Y-90181345D01*
X130698383Y-90108906D01*
X130793143Y-90043353D01*
X130881025Y-89993621D01*
X130949841Y-89968642D01*
X130963830Y-89967301D01*
X131025946Y-89989482D01*
G37*
G36*
X104018005Y-124945261D02*
G01*
X104099335Y-124957415D01*
X104099335Y-125442555D01*
X104099335Y-125927695D01*
X104199434Y-125927695D01*
X104263618Y-125930659D01*
X104292150Y-125946725D01*
X104299375Y-125986648D01*
X104299532Y-126002769D01*
X104299532Y-126077842D01*
X103986725Y-126077842D01*
X103673917Y-126077842D01*
X103673917Y-126002769D01*
X103679032Y-125951806D01*
X103704613Y-125931305D01*
X103758930Y-125927695D01*
X103843943Y-125927695D01*
X103856764Y-125621143D01*
X103863266Y-125494821D01*
X103871374Y-125380250D01*
X103880031Y-125290383D01*
X103887845Y-125239517D01*
X103895481Y-125201775D01*
X103889735Y-125191892D01*
X103864584Y-125212957D01*
X103814002Y-125268058D01*
X103798730Y-125285204D01*
X103691354Y-125405965D01*
X103627207Y-125341818D01*
X103563059Y-125277670D01*
X103662281Y-125175140D01*
X103770602Y-125068341D01*
X103856155Y-124997162D01*
X103926004Y-124957035D01*
X103987214Y-124943396D01*
X104018005Y-124945261D01*
G37*
G36*
X128593113Y-93052102D02*
G01*
X128649040Y-93075845D01*
X128716686Y-93129684D01*
X128720504Y-93133121D01*
X128802245Y-93224042D01*
X128873187Y-93333792D01*
X128924713Y-93446254D01*
X128948206Y-93545309D01*
X128948794Y-93560192D01*
X128935114Y-93659419D01*
X128899246Y-93751618D01*
X128848946Y-93820745D01*
X128810451Y-93846387D01*
X128764226Y-93875799D01*
X128748597Y-93904996D01*
X128732843Y-93956334D01*
X128685248Y-93969965D01*
X128605309Y-93945941D01*
X128561837Y-93924565D01*
X128453055Y-93849340D01*
X128372630Y-93758758D01*
X128328799Y-93663387D01*
X128323178Y-93618428D01*
X128317847Y-93551615D01*
X128304369Y-93463707D01*
X128296517Y-93423970D01*
X128283252Y-93351687D01*
X128285125Y-93300552D01*
X128306965Y-93250213D01*
X128353601Y-93180318D01*
X128354702Y-93178748D01*
X128409864Y-93107150D01*
X128456423Y-93068718D01*
X128509348Y-93052467D01*
X128529875Y-93050173D01*
X128593113Y-93052102D01*
G37*
G36*
X137445130Y-105287868D02*
G01*
X137458446Y-105311971D01*
X137488222Y-105369589D01*
X137528636Y-105449422D01*
X137539123Y-105470335D01*
X137599782Y-105583375D01*
X137673468Y-105709270D01*
X137742254Y-105817737D01*
X137795354Y-105898774D01*
X137835537Y-105963622D01*
X137856171Y-106001450D01*
X137857562Y-106006061D01*
X137838974Y-106028292D01*
X137791644Y-106069040D01*
X137728220Y-106118684D01*
X137661351Y-106167605D01*
X137603688Y-106206182D01*
X137571536Y-106223587D01*
X137537943Y-106211087D01*
X137486098Y-106159613D01*
X137435535Y-106094414D01*
X137379133Y-106009604D01*
X137317785Y-105907504D01*
X137256067Y-105797071D01*
X137198556Y-105687260D01*
X137149828Y-105587028D01*
X137114460Y-105505331D01*
X137097030Y-105451127D01*
X137098143Y-105434162D01*
X137130365Y-105415656D01*
X137191103Y-105386974D01*
X137266475Y-105353971D01*
X137342598Y-105322499D01*
X137405589Y-105298411D01*
X137441565Y-105287561D01*
X137445130Y-105287868D01*
G37*
G36*
X138490323Y-106622041D02*
G01*
X138547687Y-106657396D01*
X138622996Y-106707654D01*
X138638383Y-106718295D01*
X138743216Y-106786156D01*
X138866966Y-106858979D01*
X138982962Y-106921072D01*
X138983670Y-106921425D01*
X139069996Y-106964670D01*
X139136886Y-106998615D01*
X139173528Y-107017759D01*
X139177207Y-107019944D01*
X139172553Y-107044803D01*
X139151539Y-107100834D01*
X139120271Y-107174486D01*
X139084855Y-107252208D01*
X139051394Y-107320447D01*
X139025996Y-107365652D01*
X139016667Y-107376274D01*
X138986884Y-107367884D01*
X138923694Y-107340839D01*
X138837903Y-107299946D01*
X138783473Y-107272512D01*
X138644070Y-107197262D01*
X138515589Y-107121122D01*
X138404915Y-107048827D01*
X138318931Y-106985113D01*
X138264521Y-106934716D01*
X138248260Y-106904283D01*
X138263476Y-106867146D01*
X138299551Y-106807700D01*
X138347004Y-106739039D01*
X138396354Y-106674258D01*
X138438119Y-106626451D01*
X138462296Y-106608680D01*
X138490323Y-106622041D01*
G37*
G36*
X139032080Y-100744236D02*
G01*
X139050586Y-100776458D01*
X139079268Y-100837197D01*
X139112271Y-100912569D01*
X139143743Y-100988691D01*
X139167831Y-101051682D01*
X139178681Y-101087659D01*
X139178374Y-101091223D01*
X139154271Y-101104539D01*
X139096653Y-101134315D01*
X139016820Y-101174730D01*
X138995907Y-101185217D01*
X138882867Y-101245875D01*
X138756972Y-101319561D01*
X138648505Y-101388347D01*
X138567468Y-101441447D01*
X138502620Y-101481630D01*
X138464792Y-101502264D01*
X138460181Y-101503655D01*
X138437848Y-101485147D01*
X138395919Y-101436914D01*
X138349781Y-101377705D01*
X138298072Y-101305918D01*
X138258811Y-101246770D01*
X138242655Y-101217629D01*
X138255155Y-101184036D01*
X138306629Y-101132191D01*
X138371828Y-101081628D01*
X138456638Y-101025227D01*
X138558738Y-100963878D01*
X138669171Y-100902160D01*
X138778982Y-100844649D01*
X138879214Y-100795921D01*
X138960911Y-100760554D01*
X139015115Y-100743123D01*
X139032080Y-100744236D01*
G37*
G36*
X142382199Y-106627268D02*
G01*
X142422947Y-106674598D01*
X142472591Y-106738022D01*
X142521511Y-106804891D01*
X142560088Y-106862554D01*
X142577493Y-106894706D01*
X142565011Y-106928883D01*
X142512554Y-106980396D01*
X142425517Y-107045445D01*
X142309293Y-107120234D01*
X142169276Y-107200963D01*
X142060893Y-107258513D01*
X141960624Y-107309346D01*
X141877251Y-107350352D01*
X141820474Y-107376841D01*
X141800461Y-107384443D01*
X141780802Y-107364127D01*
X141763190Y-107328138D01*
X141740468Y-107272504D01*
X141707218Y-107193820D01*
X141688107Y-107149424D01*
X141659748Y-107080300D01*
X141643488Y-107033217D01*
X141641909Y-107020978D01*
X141665944Y-107007727D01*
X141723505Y-106978004D01*
X141803303Y-106937618D01*
X141824241Y-106927119D01*
X141937282Y-106866460D01*
X142063177Y-106792774D01*
X142171644Y-106723988D01*
X142252680Y-106670888D01*
X142317528Y-106630705D01*
X142355357Y-106610071D01*
X142359968Y-106608680D01*
X142382199Y-106627268D01*
G37*
G36*
X143397370Y-105294886D02*
G01*
X143452715Y-105315654D01*
X143526152Y-105345539D01*
X143603946Y-105378744D01*
X143672362Y-105409468D01*
X143717667Y-105431914D01*
X143727498Y-105438353D01*
X143725196Y-105468480D01*
X143700307Y-105531982D01*
X143657707Y-105620392D01*
X143602276Y-105725246D01*
X143538891Y-105838078D01*
X143472431Y-105950423D01*
X143407773Y-106053815D01*
X143349794Y-106139790D01*
X143303375Y-106199881D01*
X143273946Y-106225452D01*
X143242148Y-106215880D01*
X143183770Y-106182461D01*
X143111534Y-106132491D01*
X143041647Y-106078295D01*
X142989937Y-106034166D01*
X142967701Y-106009799D01*
X142977526Y-105980639D01*
X143010230Y-105922441D01*
X143059257Y-105846643D01*
X143071060Y-105829492D01*
X143139591Y-105723683D01*
X143212911Y-105599177D01*
X143275180Y-105482877D01*
X143275332Y-105482572D01*
X143318577Y-105396246D01*
X143352522Y-105329356D01*
X143371666Y-105292714D01*
X143373851Y-105289035D01*
X143397370Y-105294886D01*
G37*
G36*
X137598775Y-101909493D02*
G01*
X137658038Y-101945419D01*
X137726646Y-101992682D01*
X137791500Y-102041832D01*
X137839499Y-102083418D01*
X137857562Y-102107586D01*
X137844296Y-102135006D01*
X137808962Y-102192629D01*
X137758259Y-102269699D01*
X137738695Y-102298441D01*
X137666943Y-102410339D01*
X137593224Y-102537041D01*
X137533663Y-102650788D01*
X137491825Y-102734124D01*
X137457326Y-102796132D01*
X137436188Y-102826186D01*
X137433565Y-102827446D01*
X137405213Y-102816872D01*
X137344248Y-102791560D01*
X137263848Y-102756982D01*
X137263526Y-102756842D01*
X137182768Y-102720502D01*
X137121477Y-102690846D01*
X137093049Y-102674380D01*
X137096676Y-102645989D01*
X137121284Y-102583750D01*
X137162164Y-102496768D01*
X137214606Y-102394148D01*
X137273904Y-102284997D01*
X137335348Y-102178420D01*
X137394230Y-102083522D01*
X137413740Y-102054197D01*
X137470539Y-101977697D01*
X137521386Y-101921322D01*
X137556998Y-101895081D01*
X137561959Y-101894353D01*
X137598775Y-101909493D01*
G37*
G36*
X141820502Y-100742511D02*
G01*
X141882590Y-100767221D01*
X141969403Y-100808148D01*
X142071820Y-100860568D01*
X142180721Y-100919755D01*
X142286986Y-100980984D01*
X142381493Y-101039531D01*
X142412045Y-101059833D01*
X142488545Y-101116632D01*
X142544920Y-101167479D01*
X142571161Y-101203092D01*
X142571889Y-101208053D01*
X142555989Y-101248389D01*
X142518639Y-101309294D01*
X142469554Y-101377900D01*
X142418446Y-101441335D01*
X142375030Y-101486731D01*
X142350398Y-101501514D01*
X142318251Y-101486587D01*
X142259077Y-101449547D01*
X142186823Y-101399227D01*
X142096293Y-101338869D01*
X141982505Y-101270656D01*
X141867613Y-101207765D01*
X141848991Y-101198262D01*
X141759724Y-101153091D01*
X141689554Y-101117174D01*
X141648889Y-101095857D01*
X141642942Y-101092415D01*
X141648795Y-101068884D01*
X141669564Y-101013527D01*
X141699451Y-100940081D01*
X141732656Y-100862281D01*
X141763380Y-100793864D01*
X141785825Y-100748565D01*
X141792260Y-100738744D01*
X141820502Y-100742511D01*
G37*
G36*
X143282206Y-101901248D02*
G01*
X143334051Y-101952722D01*
X143384614Y-102017921D01*
X143441015Y-102102731D01*
X143502364Y-102204831D01*
X143564082Y-102315264D01*
X143621593Y-102425075D01*
X143670321Y-102525307D01*
X143705688Y-102607004D01*
X143723119Y-102661209D01*
X143722006Y-102678173D01*
X143693009Y-102694085D01*
X143633427Y-102722317D01*
X143557850Y-102756424D01*
X143480869Y-102789960D01*
X143417074Y-102816478D01*
X143381056Y-102829533D01*
X143378445Y-102829961D01*
X143365468Y-102809217D01*
X143337348Y-102754741D01*
X143300082Y-102678166D01*
X143298764Y-102675395D01*
X143249794Y-102581013D01*
X143184266Y-102466230D01*
X143114143Y-102351772D01*
X143093966Y-102320547D01*
X143037398Y-102232824D01*
X142993049Y-102161216D01*
X142966965Y-102115640D01*
X142962587Y-102105085D01*
X142981171Y-102083327D01*
X143028480Y-102043008D01*
X143091849Y-101993709D01*
X143158613Y-101945008D01*
X143216108Y-101906485D01*
X143248613Y-101888749D01*
X143282206Y-101901248D01*
G37*
G36*
X103343363Y-125238454D02*
G01*
X103339954Y-125264780D01*
X103322692Y-125328594D01*
X103294656Y-125420792D01*
X103258926Y-125532266D01*
X103218581Y-125653912D01*
X103176703Y-125776622D01*
X103136371Y-125891290D01*
X103100665Y-125988810D01*
X103072664Y-126060076D01*
X103055449Y-126095981D01*
X103052479Y-126098495D01*
X103019003Y-126093637D01*
X102955916Y-126086867D01*
X102933456Y-126084740D01*
X102831122Y-126075358D01*
X102702859Y-125671154D01*
X102660972Y-125537933D01*
X102625455Y-125422619D01*
X102598670Y-125333083D01*
X102582983Y-125277195D01*
X102579970Y-125262027D01*
X102605756Y-125257316D01*
X102664718Y-125251104D01*
X102697956Y-125248310D01*
X102810567Y-125239517D01*
X102856289Y-125377153D01*
X102888611Y-125484469D01*
X102920174Y-125605024D01*
X102933905Y-125664936D01*
X102965799Y-125815084D01*
X102984075Y-125714985D01*
X103001378Y-125639057D01*
X103028774Y-125538273D01*
X103058573Y-125440071D01*
X103114795Y-125265256D01*
X103223861Y-125246637D01*
X103292031Y-125237509D01*
X103336199Y-125236296D01*
X103343363Y-125238454D01*
G37*
G36*
X103323572Y-121239036D02*
G01*
X103323572Y-121849835D01*
X103767759Y-121843001D01*
X104211946Y-121836168D01*
X104218658Y-121256839D01*
X104225369Y-120677510D01*
X104393830Y-120663040D01*
X104514865Y-120654000D01*
X104650322Y-120645864D01*
X104737464Y-120641777D01*
X104912636Y-120634985D01*
X104919086Y-122155232D01*
X104925536Y-123675478D01*
X104574997Y-123675478D01*
X104224459Y-123675478D01*
X104224459Y-122987301D01*
X104224459Y-122299123D01*
X103774015Y-122299123D01*
X103323572Y-122299123D01*
X103323572Y-122987301D01*
X103323572Y-123675478D01*
X102974566Y-123675478D01*
X102625560Y-123675478D01*
X102614459Y-122267842D01*
X102612083Y-122004175D01*
X102609249Y-121753356D01*
X102606053Y-121520250D01*
X102602587Y-121309716D01*
X102598945Y-121126618D01*
X102595219Y-120975817D01*
X102591505Y-120862175D01*
X102587895Y-120790553D01*
X102585644Y-120768815D01*
X102567930Y-120677424D01*
X102776834Y-120663206D01*
X102903221Y-120654754D01*
X103037172Y-120646030D01*
X103150562Y-120638864D01*
X103154656Y-120638613D01*
X103323572Y-120628236D01*
X103323572Y-121239036D01*
G37*
G36*
X123681353Y-122797985D02*
G01*
X123732296Y-122836015D01*
X123753580Y-122858610D01*
X123769274Y-122882651D01*
X123780229Y-122915612D01*
X123787297Y-122964970D01*
X123791330Y-123038198D01*
X123793179Y-123142772D01*
X123793695Y-123286166D01*
X123793720Y-123375182D01*
X123793551Y-123540894D01*
X123792478Y-123664030D01*
X123789649Y-123752068D01*
X123784211Y-123812480D01*
X123775315Y-123852742D01*
X123762107Y-123880329D01*
X123743737Y-123902716D01*
X123732296Y-123914349D01*
X123651667Y-123965520D01*
X123593523Y-123975773D01*
X123505692Y-123952380D01*
X123454750Y-123914349D01*
X123433466Y-123891755D01*
X123417772Y-123867714D01*
X123406816Y-123834752D01*
X123399748Y-123785395D01*
X123395715Y-123712166D01*
X123393867Y-123607593D01*
X123393350Y-123464199D01*
X123393326Y-123375182D01*
X123393494Y-123209471D01*
X123394567Y-123086334D01*
X123397397Y-122998297D01*
X123402834Y-122937885D01*
X123411730Y-122897623D01*
X123424938Y-122870036D01*
X123443308Y-122847649D01*
X123454750Y-122836015D01*
X123535379Y-122784845D01*
X123593523Y-122774591D01*
X123681353Y-122797985D01*
G37*
G36*
X113784970Y-124952031D02*
G01*
X113880796Y-124997591D01*
X113962189Y-125071725D01*
X114017147Y-125160616D01*
X114034114Y-125238759D01*
X114030344Y-125303245D01*
X114015707Y-125362501D01*
X113985213Y-125425485D01*
X113933870Y-125501151D01*
X113856689Y-125598457D01*
X113788285Y-125679925D01*
X113588394Y-125915182D01*
X113823766Y-125922345D01*
X114059138Y-125929507D01*
X114059138Y-126003675D01*
X114059138Y-126077842D01*
X113683769Y-126077842D01*
X113308399Y-126077842D01*
X113308399Y-125992503D01*
X113322648Y-125924794D01*
X113367070Y-125839097D01*
X113444182Y-125731726D01*
X113556501Y-125598995D01*
X113637834Y-125509942D01*
X113727884Y-125404607D01*
X113779441Y-125320811D01*
X113795446Y-125252019D01*
X113780125Y-125194086D01*
X113724841Y-125123813D01*
X113659853Y-125102370D01*
X113587006Y-125129887D01*
X113533931Y-125176624D01*
X113484807Y-125223531D01*
X113445404Y-125238041D01*
X113394413Y-125227023D01*
X113386256Y-125224225D01*
X113330553Y-125202511D01*
X113312884Y-125179659D01*
X113328241Y-125139218D01*
X113349328Y-125102879D01*
X113427134Y-125017381D01*
X113535366Y-124960922D01*
X113660780Y-124938085D01*
X113784970Y-124952031D01*
G37*
G36*
X106025374Y-124976498D02*
G01*
X106130072Y-125055657D01*
X106212406Y-125173975D01*
X106270467Y-125325772D01*
X106295403Y-125478512D01*
X106290409Y-125626317D01*
X106258681Y-125763308D01*
X106203415Y-125883608D01*
X106127807Y-125981338D01*
X106035053Y-126050620D01*
X105928349Y-126085575D01*
X105810891Y-126080325D01*
X105733848Y-126054201D01*
X105626478Y-125980962D01*
X105545392Y-125876431D01*
X105490261Y-125749209D01*
X105460754Y-125607893D01*
X105457482Y-125493888D01*
X105706248Y-125493888D01*
X105710655Y-125609526D01*
X105724372Y-125694340D01*
X105764238Y-125807288D01*
X105814370Y-125876986D01*
X105871572Y-125901575D01*
X105932648Y-125879196D01*
X105972727Y-125838818D01*
X106014090Y-125753673D01*
X106036922Y-125637592D01*
X106041661Y-125505952D01*
X106028746Y-125374132D01*
X105998614Y-125257510D01*
X105953768Y-125173965D01*
X105895948Y-125135691D01*
X105829636Y-125139580D01*
X105769640Y-125183500D01*
X105756147Y-125202425D01*
X105730106Y-125273119D01*
X105713102Y-125376013D01*
X105706248Y-125493888D01*
X105457482Y-125493888D01*
X105456541Y-125461081D01*
X105477292Y-125317373D01*
X105522677Y-125185368D01*
X105592366Y-125073663D01*
X105686029Y-124990857D01*
X105776174Y-124951683D01*
X105905255Y-124940743D01*
X106025374Y-124976498D01*
G37*
G36*
X116755198Y-124966015D02*
G01*
X116849935Y-125023373D01*
X116920647Y-125107594D01*
X116958254Y-125215808D01*
X116961996Y-125266355D01*
X116958287Y-125318477D01*
X116944156Y-125369633D01*
X116915096Y-125427052D01*
X116866603Y-125497967D01*
X116794169Y-125589607D01*
X116693288Y-125709204D01*
X116666807Y-125740010D01*
X116515902Y-125915182D01*
X116751461Y-125922345D01*
X116987020Y-125929507D01*
X116987020Y-126003675D01*
X116987020Y-126077842D01*
X116611651Y-126077842D01*
X116236281Y-126077842D01*
X116236281Y-125991230D01*
X116253001Y-125919277D01*
X116304276Y-125825678D01*
X116391778Y-125708016D01*
X116517181Y-125563872D01*
X116574528Y-125502276D01*
X116658841Y-125406359D01*
X116708030Y-125331394D01*
X116726850Y-125268094D01*
X116721989Y-125214346D01*
X116684276Y-125141111D01*
X116624197Y-125107599D01*
X116551601Y-125115226D01*
X116476335Y-125165411D01*
X116464858Y-125177315D01*
X116416622Y-125224623D01*
X116377869Y-125239457D01*
X116327145Y-125228684D01*
X116316121Y-125224916D01*
X116262167Y-125200039D01*
X116236602Y-125176308D01*
X116236281Y-125174140D01*
X116251940Y-125143595D01*
X116291693Y-125092059D01*
X116317611Y-125062634D01*
X116417643Y-124983830D01*
X116529971Y-124943373D01*
X116645517Y-124938391D01*
X116755198Y-124966015D01*
G37*
G36*
X118707119Y-124966015D02*
G01*
X118801856Y-125023373D01*
X118872569Y-125107594D01*
X118910176Y-125215808D01*
X118913917Y-125266355D01*
X118910208Y-125318477D01*
X118896077Y-125369633D01*
X118867018Y-125427052D01*
X118818524Y-125497967D01*
X118746090Y-125589607D01*
X118645209Y-125709204D01*
X118618728Y-125740010D01*
X118467823Y-125915182D01*
X118703382Y-125922345D01*
X118938941Y-125929507D01*
X118938941Y-126003675D01*
X118938941Y-126077842D01*
X118563572Y-126077842D01*
X118188202Y-126077842D01*
X118188202Y-126001021D01*
X118202689Y-125930319D01*
X118247913Y-125842141D01*
X118326523Y-125732440D01*
X118441167Y-125597170D01*
X118481766Y-125552325D01*
X118574132Y-125448229D01*
X118634731Y-125370187D01*
X118668248Y-125309961D01*
X118679367Y-125259308D01*
X118673910Y-125214346D01*
X118636197Y-125141111D01*
X118576118Y-125107599D01*
X118503522Y-125115226D01*
X118428256Y-125165411D01*
X118416779Y-125177315D01*
X118368543Y-125224623D01*
X118329791Y-125239457D01*
X118279066Y-125228684D01*
X118268042Y-125224916D01*
X118214088Y-125200039D01*
X118188523Y-125176308D01*
X118188202Y-125174140D01*
X118203861Y-125143595D01*
X118243614Y-125092059D01*
X118269532Y-125062634D01*
X118369564Y-124983830D01*
X118481892Y-124943373D01*
X118597438Y-124938391D01*
X118707119Y-124966015D01*
G37*
G36*
X126238355Y-88501281D02*
G01*
X126302191Y-88526320D01*
X126338779Y-88544642D01*
X126437692Y-88612131D01*
X126536026Y-88707577D01*
X126564989Y-88742330D01*
X126647485Y-88851787D01*
X126703426Y-88939479D01*
X126740539Y-89020102D01*
X126766555Y-89108354D01*
X126773370Y-89138603D01*
X126793657Y-89215785D01*
X126822158Y-89271110D01*
X126869687Y-89316982D01*
X126947054Y-89365802D01*
X126994106Y-89391833D01*
X127067542Y-89438216D01*
X127102624Y-89480084D01*
X127109483Y-89514871D01*
X127099918Y-89567172D01*
X127068099Y-89581017D01*
X127009343Y-89557030D01*
X126971645Y-89533238D01*
X126896595Y-89483823D01*
X126825390Y-89438615D01*
X126815792Y-89432724D01*
X126725887Y-89353019D01*
X126666386Y-89239377D01*
X126643153Y-89149184D01*
X126586670Y-88981135D01*
X126484314Y-88829821D01*
X126357996Y-88713308D01*
X126259976Y-88648209D01*
X126184992Y-88623448D01*
X126124669Y-88640396D01*
X126070631Y-88700427D01*
X126033209Y-88766543D01*
X125989498Y-88845712D01*
X125956515Y-88882946D01*
X125926865Y-88882963D01*
X125896058Y-88854029D01*
X125876610Y-88795196D01*
X125893307Y-88722068D01*
X125938995Y-88645450D01*
X126006521Y-88576149D01*
X126088729Y-88524969D01*
X126122141Y-88512577D01*
X126185666Y-88497785D01*
X126238355Y-88501281D01*
G37*
G36*
X114751460Y-124943994D02*
G01*
X114813994Y-124954416D01*
X114850137Y-124961890D01*
X114853023Y-124962970D01*
X114846722Y-124986835D01*
X114822362Y-125045702D01*
X114784543Y-125129949D01*
X114737869Y-125229953D01*
X114686943Y-125336093D01*
X114636367Y-125438746D01*
X114590743Y-125528290D01*
X114554676Y-125595103D01*
X114536412Y-125624863D01*
X114481149Y-125702473D01*
X114595464Y-125702473D01*
X114709779Y-125702473D01*
X114709779Y-125589862D01*
X114709779Y-125477251D01*
X114822390Y-125477251D01*
X114935000Y-125477251D01*
X114935000Y-125589862D01*
X114937177Y-125659108D01*
X114949742Y-125691906D01*
X114981752Y-125701836D01*
X115010074Y-125702473D01*
X115063249Y-125708674D01*
X115082848Y-125737923D01*
X115085148Y-125777547D01*
X115078947Y-125830722D01*
X115049698Y-125850321D01*
X115010074Y-125852621D01*
X114963910Y-125855885D01*
X114942045Y-125874733D01*
X114935425Y-125922748D01*
X114935000Y-125965232D01*
X114935000Y-126077842D01*
X114822390Y-126077842D01*
X114709779Y-126077842D01*
X114709779Y-125965232D01*
X114709779Y-125852621D01*
X114497069Y-125852621D01*
X114284360Y-125852621D01*
X114284763Y-125771291D01*
X114296606Y-125715366D01*
X114330093Y-125621939D01*
X114382685Y-125497325D01*
X114451845Y-125347843D01*
X114470336Y-125309566D01*
X114655505Y-124929171D01*
X114751460Y-124943994D01*
G37*
G36*
X117750979Y-124982353D02*
G01*
X117849825Y-125059350D01*
X117928420Y-125169579D01*
X117982580Y-125307636D01*
X118008125Y-125468114D01*
X118006597Y-125592703D01*
X117976467Y-125758002D01*
X117917764Y-125894552D01*
X117835085Y-125998202D01*
X117733028Y-126064800D01*
X117616191Y-126090193D01*
X117489170Y-126070229D01*
X117481020Y-126067389D01*
X117402668Y-126034744D01*
X117347135Y-125995925D01*
X117301451Y-125938017D01*
X117252648Y-125848106D01*
X117244793Y-125832157D01*
X117203534Y-125734610D01*
X117182524Y-125642381D01*
X117176145Y-125529538D01*
X117176095Y-125515083D01*
X117181051Y-125459614D01*
X117421254Y-125459614D01*
X117427464Y-125590895D01*
X117436943Y-125650958D01*
X117458689Y-125739253D01*
X117485610Y-125815226D01*
X117500863Y-125844899D01*
X117556895Y-125893383D01*
X117623307Y-125899004D01*
X117685233Y-125862116D01*
X117702527Y-125840102D01*
X117731949Y-125766148D01*
X117751039Y-125659882D01*
X117758570Y-125538203D01*
X117753317Y-125418014D01*
X117739196Y-125334731D01*
X117699844Y-125222572D01*
X117652638Y-125155019D01*
X117601448Y-125128022D01*
X117550148Y-125137531D01*
X117502606Y-125179495D01*
X117462696Y-125249863D01*
X117434288Y-125344586D01*
X117421254Y-125459614D01*
X117181051Y-125459614D01*
X117192511Y-125331346D01*
X117240389Y-125178723D01*
X117317673Y-125060703D01*
X117422306Y-124980775D01*
X117509254Y-124949686D01*
X117636061Y-124943996D01*
X117750979Y-124982353D01*
G37*
G36*
X119631062Y-124943962D02*
G01*
X119693964Y-124954633D01*
X119730734Y-124962682D01*
X119733804Y-124963949D01*
X119727455Y-124987823D01*
X119703481Y-125046544D01*
X119666540Y-125130144D01*
X119621292Y-125228656D01*
X119572398Y-125332111D01*
X119524515Y-125430543D01*
X119482304Y-125513984D01*
X119450423Y-125572466D01*
X119445688Y-125580304D01*
X119410912Y-125639625D01*
X119391120Y-125679977D01*
X119389385Y-125686658D01*
X119411605Y-125696565D01*
X119467107Y-125702072D01*
X119489483Y-125702473D01*
X119589582Y-125702473D01*
X119589582Y-125589862D01*
X119589582Y-125477251D01*
X119702193Y-125477251D01*
X119814803Y-125477251D01*
X119814803Y-125589862D01*
X119816980Y-125659108D01*
X119829545Y-125691906D01*
X119861555Y-125701836D01*
X119889877Y-125702473D01*
X119943052Y-125708674D01*
X119962651Y-125737923D01*
X119964951Y-125777547D01*
X119958750Y-125830722D01*
X119929501Y-125850321D01*
X119889877Y-125852621D01*
X119843713Y-125855885D01*
X119821848Y-125874733D01*
X119815228Y-125922748D01*
X119814803Y-125965232D01*
X119814803Y-126077842D01*
X119702193Y-126077842D01*
X119589582Y-126077842D01*
X119589582Y-125965232D01*
X119589582Y-125852621D01*
X119376872Y-125852621D01*
X119164163Y-125852621D01*
X119164163Y-125778717D01*
X119174726Y-125732084D01*
X119203964Y-125649818D01*
X119248206Y-125541070D01*
X119303778Y-125414991D01*
X119349535Y-125316960D01*
X119534908Y-124929106D01*
X119631062Y-124943962D01*
G37*
G36*
X110921613Y-124985275D02*
G01*
X111026430Y-125068184D01*
X111103921Y-125184695D01*
X111158080Y-125344025D01*
X111175938Y-125513351D01*
X111158945Y-125680773D01*
X111108545Y-125834392D01*
X111026186Y-125962305D01*
X111006885Y-125982880D01*
X110943877Y-126036813D01*
X110886244Y-126071219D01*
X110860976Y-126077842D01*
X110801721Y-126083311D01*
X110776702Y-126089313D01*
X110733222Y-126088718D01*
X110666700Y-126072963D01*
X110647876Y-126066668D01*
X110549116Y-126020628D01*
X110477607Y-125956759D01*
X110418107Y-125860545D01*
X110406709Y-125837000D01*
X110356001Y-125687362D01*
X110337307Y-125531547D01*
X110340703Y-125483436D01*
X110584780Y-125483436D01*
X110594600Y-125629995D01*
X110626925Y-125760409D01*
X110656646Y-125822990D01*
X110713297Y-125885326D01*
X110775563Y-125900368D01*
X110838049Y-125866916D01*
X110841025Y-125864007D01*
X110885077Y-125791671D01*
X110912381Y-125688372D01*
X110923570Y-125566756D01*
X110919278Y-125439472D01*
X110900139Y-125319169D01*
X110866785Y-125218492D01*
X110819850Y-125150092D01*
X110804692Y-125138650D01*
X110748981Y-125130072D01*
X110687395Y-125155315D01*
X110639975Y-125205386D01*
X110635220Y-125214707D01*
X110598106Y-125338938D01*
X110584780Y-125483436D01*
X110340703Y-125483436D01*
X110348136Y-125378134D01*
X110386001Y-125235697D01*
X110448414Y-125112813D01*
X110532886Y-125018058D01*
X110636928Y-124960007D01*
X110663277Y-124952769D01*
X110798582Y-124945761D01*
X110921613Y-124985275D01*
G37*
G36*
X111237079Y-121105118D02*
G01*
X111243867Y-121582921D01*
X111627774Y-121127722D01*
X112011681Y-120672522D01*
X112385690Y-120672522D01*
X112759699Y-120672522D01*
X112252029Y-121277876D01*
X111744360Y-121883229D01*
X111537907Y-121969665D01*
X111446434Y-122009906D01*
X111375736Y-122044710D01*
X111336256Y-122068759D01*
X111331454Y-122074770D01*
X111353359Y-122091032D01*
X111411772Y-122118253D01*
X111495733Y-122151515D01*
X111530989Y-122164336D01*
X111730524Y-122235233D01*
X112239770Y-122924075D01*
X112360566Y-123087652D01*
X112472195Y-123239164D01*
X112571082Y-123373728D01*
X112653648Y-123486463D01*
X112716317Y-123572487D01*
X112755512Y-123626917D01*
X112767426Y-123644197D01*
X112764258Y-123656631D01*
X112734078Y-123665486D01*
X112671273Y-123671252D01*
X112570232Y-123674417D01*
X112425340Y-123675470D01*
X112408218Y-123675478D01*
X112030600Y-123675478D01*
X111637234Y-123145209D01*
X111243867Y-122614940D01*
X111237114Y-123145209D01*
X111230360Y-123675478D01*
X110880513Y-123675478D01*
X110530666Y-123675478D01*
X110530476Y-122405478D01*
X110530148Y-122102108D01*
X110529131Y-121843591D01*
X110527236Y-121624733D01*
X110524272Y-121440341D01*
X110520046Y-121285220D01*
X110514369Y-121154178D01*
X110507049Y-121042019D01*
X110497894Y-120943551D01*
X110486715Y-120853580D01*
X110473319Y-120766912D01*
X110469330Y-120743595D01*
X110457745Y-120677032D01*
X110700658Y-120661992D01*
X110826400Y-120654104D01*
X110952242Y-120646038D01*
X111057130Y-120639149D01*
X111086932Y-120637134D01*
X111230291Y-120627316D01*
X111237079Y-121105118D01*
G37*
G36*
X111903027Y-124969531D02*
G01*
X112009238Y-125039489D01*
X112089269Y-125144476D01*
X112138824Y-125280083D01*
X112153607Y-125441905D01*
X112151214Y-125487864D01*
X112114614Y-125669255D01*
X112037517Y-125821988D01*
X111922038Y-125943652D01*
X111770296Y-126031837D01*
X111636478Y-126073994D01*
X111571560Y-126085713D01*
X111539127Y-126079307D01*
X111523607Y-126050632D01*
X111521580Y-126043430D01*
X111509501Y-125977555D01*
X111525329Y-125939892D01*
X111578465Y-125914394D01*
X111601356Y-125907235D01*
X111692433Y-125863136D01*
X111782907Y-125792430D01*
X111855265Y-125710616D01*
X111885478Y-125655775D01*
X111900612Y-125601959D01*
X111887918Y-125587915D01*
X111844797Y-125612397D01*
X111825563Y-125627049D01*
X111758418Y-125666141D01*
X111686425Y-125674038D01*
X111594447Y-125651302D01*
X111556859Y-125637065D01*
X111448850Y-125571310D01*
X111377231Y-125481391D01*
X111341038Y-125376453D01*
X111339802Y-125297556D01*
X111587506Y-125297556D01*
X111596971Y-125379710D01*
X111608180Y-125405799D01*
X111663066Y-125478108D01*
X111727237Y-125501600D01*
X111803117Y-125476740D01*
X111841084Y-125450410D01*
X111886831Y-125400620D01*
X111906975Y-125351371D01*
X111907020Y-125349508D01*
X111893503Y-125272504D01*
X111859522Y-125194954D01*
X111814928Y-125135503D01*
X111782956Y-125114730D01*
X111713279Y-125114949D01*
X111652751Y-125153366D01*
X111608463Y-125218171D01*
X111587506Y-125297556D01*
X111339802Y-125297556D01*
X111339302Y-125265639D01*
X111371058Y-125158093D01*
X111435338Y-125062957D01*
X111531177Y-124989375D01*
X111629249Y-124952334D01*
X111774932Y-124939010D01*
X111903027Y-124969531D01*
G37*
G36*
X114057977Y-120653756D02*
G01*
X114276154Y-120664918D01*
X114456590Y-120685204D01*
X114611148Y-120717076D01*
X114751691Y-120762998D01*
X114890081Y-120825433D01*
X114893695Y-120827267D01*
X115059095Y-120937523D01*
X115186892Y-121078279D01*
X115274629Y-121244403D01*
X115319850Y-121430761D01*
X115320098Y-121632222D01*
X115310474Y-121697959D01*
X115253844Y-121897754D01*
X115161175Y-122067442D01*
X115031268Y-122207825D01*
X114862928Y-122319706D01*
X114654958Y-122403888D01*
X114406162Y-122461175D01*
X114127956Y-122491603D01*
X113883966Y-122506881D01*
X113883966Y-123091179D01*
X113883966Y-123675478D01*
X113546133Y-123675478D01*
X113208301Y-123675478D01*
X113208297Y-122392966D01*
X113208043Y-122090534D01*
X113207207Y-121833727D01*
X113205677Y-121618121D01*
X113203339Y-121439295D01*
X113200081Y-121292826D01*
X113195789Y-121174291D01*
X113191418Y-121097941D01*
X113851597Y-121097941D01*
X113867782Y-121289401D01*
X113874650Y-121397933D01*
X113880071Y-121535521D01*
X113883336Y-121681180D01*
X113883966Y-121767753D01*
X113883966Y-122054644D01*
X114027858Y-122037894D01*
X114140188Y-122020393D01*
X114259788Y-121995264D01*
X114308265Y-121982769D01*
X114450361Y-121921978D01*
X114558562Y-121831566D01*
X114627646Y-121716817D01*
X114648109Y-121638747D01*
X114649049Y-121489378D01*
X114606175Y-121360465D01*
X114522375Y-121254468D01*
X114400537Y-121173849D01*
X114243548Y-121121068D01*
X114054297Y-121098585D01*
X114013387Y-121097941D01*
X113851597Y-121097941D01*
X113191418Y-121097941D01*
X113190349Y-121079267D01*
X113183650Y-121003333D01*
X113175578Y-120942065D01*
X113170443Y-120912658D01*
X113153808Y-120819787D01*
X113143101Y-120748065D01*
X113140077Y-120709709D01*
X113140863Y-120706594D01*
X113175784Y-120695176D01*
X113251678Y-120684090D01*
X113359469Y-120673856D01*
X113490083Y-120665000D01*
X113634443Y-120658042D01*
X113783475Y-120653507D01*
X113928102Y-120651918D01*
X114057977Y-120653756D01*
G37*
G36*
X109457439Y-120664555D02*
G01*
X109681162Y-120715890D01*
X109883587Y-120804396D01*
X110025188Y-120895685D01*
X110132813Y-120974973D01*
X110028700Y-121105275D01*
X109967056Y-121182491D01*
X109911645Y-121252009D01*
X109879520Y-121292411D01*
X109834452Y-121349246D01*
X109663298Y-121260781D01*
X109476248Y-121180351D01*
X109305777Y-121142498D01*
X109144679Y-121145761D01*
X109118240Y-121150199D01*
X108962867Y-121201544D01*
X108835011Y-121292320D01*
X108733938Y-121423540D01*
X108658913Y-121596215D01*
X108609200Y-121811355D01*
X108602116Y-121860439D01*
X108584817Y-122108497D01*
X108597754Y-122345671D01*
X108638904Y-122565956D01*
X108706244Y-122763343D01*
X108797751Y-122931825D01*
X108911400Y-123065394D01*
X109037919Y-123154415D01*
X109168878Y-123194526D01*
X109325475Y-123196986D01*
X109501118Y-123162434D01*
X109689215Y-123091510D01*
X109690051Y-123091123D01*
X109779091Y-123050792D01*
X109848589Y-123021079D01*
X109887960Y-123006432D01*
X109892984Y-123005865D01*
X109906828Y-123028948D01*
X109939729Y-123085413D01*
X109985852Y-123165218D01*
X110011982Y-123210619D01*
X110125953Y-123408913D01*
X110071807Y-123451230D01*
X109978510Y-123511425D01*
X109855799Y-123573325D01*
X109723152Y-123627944D01*
X109612429Y-123663174D01*
X109477901Y-123686928D01*
X109316845Y-123698258D01*
X109146963Y-123697409D01*
X108985956Y-123684630D01*
X108851525Y-123660167D01*
X108823928Y-123652185D01*
X108603662Y-123556038D01*
X108406703Y-123417438D01*
X108235801Y-123239565D01*
X108093703Y-123025596D01*
X107983159Y-122778713D01*
X107935311Y-122624443D01*
X107911332Y-122495028D01*
X107896512Y-122332717D01*
X107890823Y-122152922D01*
X107894233Y-121971053D01*
X107906712Y-121802522D01*
X107928229Y-121662740D01*
X107937286Y-121625625D01*
X108029951Y-121366395D01*
X108153557Y-121146377D01*
X108307609Y-120965953D01*
X108491611Y-120825508D01*
X108705067Y-120725423D01*
X108947481Y-120666082D01*
X109203818Y-120647795D01*
X109457439Y-120664555D01*
G37*
G36*
X119690786Y-120736583D02*
G01*
X119921140Y-120836589D01*
X120111584Y-120956608D01*
X120258621Y-121094329D01*
X120289512Y-121133021D01*
X120400667Y-121299356D01*
X120480846Y-121463860D01*
X120533601Y-121638572D01*
X120562488Y-121835532D01*
X120571062Y-122066780D01*
X120570981Y-122086414D01*
X120549856Y-122394801D01*
X120491060Y-122672332D01*
X120395090Y-122918092D01*
X120262442Y-123131166D01*
X120093611Y-123310639D01*
X119889092Y-123455596D01*
X119805558Y-123499772D01*
X119675258Y-123557865D01*
X119547009Y-123602284D01*
X119411306Y-123634614D01*
X119258640Y-123656443D01*
X119079507Y-123669354D01*
X118864400Y-123674935D01*
X118752312Y-123675478D01*
X118288301Y-123675478D01*
X118288333Y-122392966D01*
X118287692Y-122046202D01*
X118285769Y-121741260D01*
X118282591Y-121479554D01*
X118278187Y-121262497D01*
X118273203Y-121110453D01*
X118976478Y-121110453D01*
X118984377Y-121185527D01*
X118986480Y-121226913D01*
X118989057Y-121312358D01*
X118991986Y-121435879D01*
X118995147Y-121591488D01*
X118998420Y-121773201D01*
X119001683Y-121975033D01*
X119004818Y-122190996D01*
X119005226Y-122220994D01*
X119018176Y-123181387D01*
X119156655Y-123165112D01*
X119264431Y-123144714D01*
X119376331Y-123112030D01*
X119418070Y-123095951D01*
X119541744Y-123020700D01*
X119657926Y-122910615D01*
X119753137Y-122780553D01*
X119806783Y-122667492D01*
X119829910Y-122568180D01*
X119845838Y-122432103D01*
X119854608Y-122272022D01*
X119856263Y-122100693D01*
X119850842Y-121930876D01*
X119838389Y-121775330D01*
X119818944Y-121646812D01*
X119803270Y-121585921D01*
X119725853Y-121420975D01*
X119613076Y-121291381D01*
X119465148Y-121197282D01*
X119282279Y-121138818D01*
X119114114Y-121117970D01*
X118976478Y-121110453D01*
X118273203Y-121110453D01*
X118272582Y-121091503D01*
X118265805Y-120967986D01*
X118259470Y-120903668D01*
X118248275Y-120806649D01*
X118243738Y-120729163D01*
X118246452Y-120684036D01*
X118249025Y-120678446D01*
X118278215Y-120673308D01*
X118350358Y-120668721D01*
X118458359Y-120664895D01*
X118595123Y-120662040D01*
X118753555Y-120660367D01*
X118872224Y-120660010D01*
X119476971Y-120660010D01*
X119690786Y-120736583D01*
G37*
G36*
X124526364Y-91733920D02*
G01*
X124660123Y-91773812D01*
X124782654Y-91831513D01*
X124875488Y-91899833D01*
X124882291Y-91906827D01*
X124967874Y-92016338D01*
X125056812Y-92161556D01*
X125142507Y-92329138D01*
X125218364Y-92505743D01*
X125277785Y-92678026D01*
X125295399Y-92742439D01*
X125318528Y-92805611D01*
X125346479Y-92845678D01*
X125349068Y-92847495D01*
X125388824Y-92860726D01*
X125468623Y-92878807D01*
X125578892Y-92899996D01*
X125710060Y-92922548D01*
X125852557Y-92944720D01*
X125983375Y-92963015D01*
X126066563Y-92975441D01*
X126112303Y-92989910D01*
X126132881Y-93014045D01*
X126140586Y-93055474D01*
X126141126Y-93060904D01*
X126138576Y-93120260D01*
X126111587Y-93148540D01*
X126053273Y-93148416D01*
X125970863Y-93127025D01*
X125879676Y-93105257D01*
X125746993Y-93082814D01*
X125581332Y-93060905D01*
X125391208Y-93040735D01*
X125311429Y-93033530D01*
X125244136Y-93023052D01*
X125199732Y-93007630D01*
X125195109Y-93004005D01*
X125176824Y-92971628D01*
X125146984Y-92905791D01*
X125111615Y-92819896D01*
X125106785Y-92807596D01*
X125019551Y-92594209D01*
X124939396Y-92421457D01*
X124861795Y-92281289D01*
X124782227Y-92165652D01*
X124696167Y-92066497D01*
X124682865Y-92052994D01*
X124566738Y-91948283D01*
X124467273Y-91887414D01*
X124378786Y-91871226D01*
X124295597Y-91900559D01*
X124212021Y-91976254D01*
X124122378Y-92099149D01*
X124096965Y-92139605D01*
X124043666Y-92228470D01*
X124013651Y-92287652D01*
X124003191Y-92329598D01*
X124008555Y-92366759D01*
X124019869Y-92396929D01*
X124038884Y-92452613D01*
X124032693Y-92482492D01*
X124009005Y-92499852D01*
X123975035Y-92545048D01*
X123969886Y-92590802D01*
X123971954Y-92667122D01*
X123962238Y-92705908D01*
X123936075Y-92719166D01*
X123919723Y-92720010D01*
X123868046Y-92697296D01*
X123829624Y-92635855D01*
X123806503Y-92545738D01*
X123800731Y-92436995D01*
X123814354Y-92319677D01*
X123827399Y-92266620D01*
X123891577Y-92107312D01*
X123982609Y-91966337D01*
X124093125Y-91850746D01*
X124215755Y-91767590D01*
X124343129Y-91723917D01*
X124399845Y-91719025D01*
X124526364Y-91733920D01*
G37*
G36*
X131061089Y-89146761D02*
G01*
X131247976Y-89171124D01*
X131407028Y-89225774D01*
X131550980Y-89316874D01*
X131692565Y-89450588D01*
X131695585Y-89453876D01*
X131838944Y-89630068D01*
X131935394Y-89794268D01*
X131984678Y-89945769D01*
X131986538Y-90083865D01*
X131958367Y-90174602D01*
X131928810Y-90221589D01*
X131871497Y-90298686D01*
X131792115Y-90398769D01*
X131696354Y-90514714D01*
X131589901Y-90639397D01*
X131558281Y-90675671D01*
X131434328Y-90819027D01*
X131304793Y-90972025D01*
X131179467Y-91122879D01*
X131068142Y-91259808D01*
X130981967Y-91369256D01*
X130875698Y-91503278D01*
X130793959Y-91596155D01*
X130735244Y-91649484D01*
X130704024Y-91664722D01*
X130661478Y-91662442D01*
X130653507Y-91630646D01*
X130654722Y-91621828D01*
X130675047Y-91577499D01*
X130724878Y-91500799D01*
X130800334Y-91396645D01*
X130897534Y-91269953D01*
X131012599Y-91125639D01*
X131141648Y-90968621D01*
X131280801Y-90803813D01*
X131426178Y-90636133D01*
X131486860Y-90567493D01*
X131632275Y-90400888D01*
X131742464Y-90267717D01*
X131817156Y-90168329D01*
X131856078Y-90103073D01*
X131861492Y-90087009D01*
X131861422Y-89970160D01*
X131822276Y-89840616D01*
X131750203Y-89707119D01*
X131651355Y-89578411D01*
X131531881Y-89463235D01*
X131397930Y-89370331D01*
X131334720Y-89338190D01*
X131159384Y-89285484D01*
X130969534Y-89274255D01*
X130774896Y-89302190D01*
X130585195Y-89366976D01*
X130410158Y-89466301D01*
X130264306Y-89592682D01*
X130130821Y-89770792D01*
X130038781Y-89971295D01*
X129989687Y-90186428D01*
X129985043Y-90408425D01*
X130026349Y-90629523D01*
X130050068Y-90700291D01*
X130128580Y-90861650D01*
X130241046Y-91028148D01*
X130375532Y-91184939D01*
X130520106Y-91317176D01*
X130582710Y-91362999D01*
X130646045Y-91417904D01*
X130668006Y-91465932D01*
X130647645Y-91500835D01*
X130605651Y-91514413D01*
X130566852Y-91507850D01*
X130513025Y-91475692D01*
X130437906Y-91413504D01*
X130358368Y-91339240D01*
X130162257Y-91128025D01*
X130014798Y-90917190D01*
X129914732Y-90703411D01*
X129860798Y-90483364D01*
X129851735Y-90253725D01*
X129875223Y-90064667D01*
X129941739Y-89840889D01*
X130048912Y-89641320D01*
X130191629Y-89469918D01*
X130364778Y-89330640D01*
X130563246Y-89227443D01*
X130781922Y-89164283D01*
X131015693Y-89145119D01*
X131061089Y-89146761D01*
G37*
G36*
X124297825Y-89687051D02*
G01*
X124314464Y-89690512D01*
X124404311Y-89716240D01*
X124517919Y-89757546D01*
X124634723Y-89806768D01*
X124667763Y-89822149D01*
X124793096Y-89888062D01*
X124898545Y-89959672D01*
X125003546Y-90051106D01*
X125061888Y-90108606D01*
X125179466Y-90236434D01*
X125268109Y-90356855D01*
X125338282Y-90487189D01*
X125400448Y-90644758D01*
X125419049Y-90699769D01*
X125439637Y-90762418D01*
X125458906Y-90810788D01*
X125483441Y-90849310D01*
X125519832Y-90882415D01*
X125574664Y-90914534D01*
X125654527Y-90950097D01*
X125766007Y-90993537D01*
X125915692Y-91049282D01*
X125966938Y-91068291D01*
X126092315Y-91116657D01*
X126200346Y-91161764D01*
X126282535Y-91199796D01*
X126330388Y-91226935D01*
X126338851Y-91235394D01*
X126335251Y-91276864D01*
X126309772Y-91320798D01*
X126277258Y-91342534D01*
X126274350Y-91342549D01*
X126244540Y-91331138D01*
X126187597Y-91303630D01*
X126158547Y-91288587D01*
X126095687Y-91259367D01*
X125998843Y-91219042D01*
X125881300Y-91172969D01*
X125758153Y-91127156D01*
X125613378Y-91072478D01*
X125507748Y-91024589D01*
X125432371Y-90976227D01*
X125378356Y-90920131D01*
X125336809Y-90849040D01*
X125298840Y-90755694D01*
X125296962Y-90750550D01*
X125259883Y-90648605D01*
X125222252Y-90545086D01*
X125203261Y-90492818D01*
X125155714Y-90405214D01*
X125075460Y-90302124D01*
X124972758Y-90193730D01*
X124857866Y-90090213D01*
X124741044Y-90001755D01*
X124657069Y-89950752D01*
X124524199Y-89888388D01*
X124393581Y-89840631D01*
X124277007Y-89810899D01*
X124186271Y-89802609D01*
X124158698Y-89806344D01*
X124100891Y-89837651D01*
X124045145Y-89892775D01*
X124038945Y-89901265D01*
X123995797Y-89957217D01*
X123930681Y-90034569D01*
X123856159Y-90118491D01*
X123840099Y-90135984D01*
X123740474Y-90257046D01*
X123678599Y-90362591D01*
X123665452Y-90398743D01*
X123643364Y-90468195D01*
X123623838Y-90516231D01*
X123618513Y-90524919D01*
X123583370Y-90536088D01*
X123543841Y-90515597D01*
X123519742Y-90475598D01*
X123518449Y-90463566D01*
X123533852Y-90391007D01*
X123574164Y-90297434D01*
X123630541Y-90198790D01*
X123694138Y-90111013D01*
X123741365Y-90061806D01*
X123810240Y-89993741D01*
X123885234Y-89907082D01*
X123927783Y-89851372D01*
X124010113Y-89751800D01*
X124090687Y-89694777D01*
X124182318Y-89674971D01*
X124297825Y-89687051D01*
G37*
G36*
X133324375Y-86875413D02*
G01*
X133661322Y-86904643D01*
X133976870Y-86957632D01*
X134261950Y-87033733D01*
X134412960Y-87089533D01*
X134653072Y-87210683D01*
X134903214Y-87377267D01*
X135160455Y-87586379D01*
X135421863Y-87835112D01*
X135684506Y-88120559D01*
X135945452Y-88439813D01*
X136201768Y-88789967D01*
X136349027Y-89008941D01*
X136456186Y-89178598D01*
X136573709Y-89373778D01*
X136697126Y-89586281D01*
X136821967Y-89807906D01*
X136943763Y-90030454D01*
X137058043Y-90245723D01*
X137160339Y-90445513D01*
X137246180Y-90621624D01*
X137311098Y-90765856D01*
X137324879Y-90799319D01*
X137348071Y-90884164D01*
X137341867Y-90942831D01*
X137307344Y-90967884D01*
X137300378Y-90968286D01*
X137279738Y-90946663D01*
X137241948Y-90886284D01*
X137190728Y-90793886D01*
X137129794Y-90676205D01*
X137062865Y-90539977D01*
X137055603Y-90524791D01*
X136844736Y-90103057D01*
X136621702Y-89695114D01*
X136389586Y-89305334D01*
X136151477Y-88938090D01*
X135910463Y-88597753D01*
X135669631Y-88288696D01*
X135432069Y-88015291D01*
X135200864Y-87781910D01*
X134992242Y-87603052D01*
X134760685Y-87434966D01*
X134541627Y-87302760D01*
X134321119Y-87199826D01*
X134085209Y-87119554D01*
X133848864Y-87061365D01*
X133740178Y-87040280D01*
X133636437Y-87025252D01*
X133525558Y-87015375D01*
X133395458Y-87009741D01*
X133234055Y-87007444D01*
X133127907Y-87007274D01*
X132906797Y-87010038D01*
X132709165Y-87018802D01*
X132522945Y-87035188D01*
X132336070Y-87060816D01*
X132136473Y-87097310D01*
X131912087Y-87146291D01*
X131682274Y-87201572D01*
X131255870Y-87312496D01*
X130872087Y-87424240D01*
X130523548Y-87539792D01*
X130202872Y-87662142D01*
X129902679Y-87794277D01*
X129615590Y-87939188D01*
X129334225Y-88099862D01*
X129098941Y-88247866D01*
X128980352Y-88324633D01*
X128876996Y-88390129D01*
X128795789Y-88440086D01*
X128743647Y-88470237D01*
X128727390Y-88477156D01*
X128732879Y-88452804D01*
X128757470Y-88402564D01*
X128764927Y-88389363D01*
X128818998Y-88323869D01*
X128912368Y-88241938D01*
X129038734Y-88147764D01*
X129191797Y-88045541D01*
X129365254Y-87939464D01*
X129552804Y-87833727D01*
X129748147Y-87732522D01*
X129762094Y-87725645D01*
X130051468Y-87594133D01*
X130379625Y-87463591D01*
X130735364Y-87337534D01*
X131107484Y-87219478D01*
X131484783Y-87112938D01*
X131856060Y-87021429D01*
X132210115Y-86948467D01*
X132275836Y-86936762D01*
X132622563Y-86890824D01*
X132975099Y-86870590D01*
X133324375Y-86875413D01*
G37*
G36*
X106673045Y-120643185D02*
G01*
X106708015Y-120646369D01*
X106709282Y-120647049D01*
X106718182Y-120672348D01*
X106739306Y-120740800D01*
X106771220Y-120847411D01*
X106812486Y-120987184D01*
X106861669Y-121155126D01*
X106917334Y-121346240D01*
X106978044Y-121555531D01*
X107042364Y-121778003D01*
X107108858Y-122008662D01*
X107176090Y-122242513D01*
X107242625Y-122474559D01*
X107307026Y-122699805D01*
X107367858Y-122913257D01*
X107423685Y-123109918D01*
X107473072Y-123284794D01*
X107514582Y-123432890D01*
X107546779Y-123549209D01*
X107568229Y-123628757D01*
X107577494Y-123666538D01*
X107577759Y-123668618D01*
X107554260Y-123671134D01*
X107489860Y-123673235D01*
X107393711Y-123674734D01*
X107274960Y-123675445D01*
X107242200Y-123675478D01*
X106906641Y-123675478D01*
X106827504Y-123343902D01*
X106796011Y-123212511D01*
X106766494Y-123090373D01*
X106741996Y-122990011D01*
X106725558Y-122923948D01*
X106723980Y-122917784D01*
X106699592Y-122823243D01*
X106357774Y-122830198D01*
X106015956Y-122837153D01*
X105916527Y-123256315D01*
X105817098Y-123675478D01*
X105494560Y-123675478D01*
X105362411Y-123674962D01*
X105272758Y-123672702D01*
X105218053Y-123667626D01*
X105190748Y-123658665D01*
X105183296Y-123644747D01*
X105185785Y-123631685D01*
X105212251Y-123543798D01*
X105248548Y-123417853D01*
X105293116Y-123259662D01*
X105344395Y-123075034D01*
X105400824Y-122869780D01*
X105460844Y-122649710D01*
X105522895Y-122420635D01*
X105542618Y-122347363D01*
X106151355Y-122347363D01*
X106175533Y-122361618D01*
X106245098Y-122370746D01*
X106355597Y-122374184D01*
X106364065Y-122374197D01*
X106460193Y-122372933D01*
X106533711Y-122369559D01*
X106573126Y-122364705D01*
X106576774Y-122362559D01*
X106571901Y-122335179D01*
X106558520Y-122267964D01*
X106538486Y-122170041D01*
X106513653Y-122050541D01*
X106504308Y-122005958D01*
X106473260Y-121846088D01*
X106443231Y-121670340D01*
X106417771Y-121500715D01*
X106401223Y-121366956D01*
X106388815Y-121252590D01*
X106377714Y-121158993D01*
X106369136Y-121095869D01*
X106364319Y-121072916D01*
X106359370Y-121096163D01*
X106350673Y-121159293D01*
X106339499Y-121252394D01*
X106328284Y-121354443D01*
X106310586Y-121493134D01*
X106284784Y-121659064D01*
X106254428Y-121830802D01*
X106224943Y-121978250D01*
X106198279Y-122104106D01*
X106175923Y-122213120D01*
X106159806Y-122295609D01*
X106151858Y-122341888D01*
X106151355Y-122347363D01*
X105542618Y-122347363D01*
X105585417Y-122188365D01*
X105646850Y-121958712D01*
X105705634Y-121737484D01*
X105760209Y-121530494D01*
X105809016Y-121343551D01*
X105850493Y-121182465D01*
X105883082Y-121053048D01*
X105905223Y-120961109D01*
X105914673Y-120916707D01*
X105932761Y-120815746D01*
X105948204Y-120735570D01*
X105958783Y-120687411D01*
X105961704Y-120678660D01*
X105990526Y-120672615D01*
X106058387Y-120666106D01*
X106154353Y-120659595D01*
X106267489Y-120653544D01*
X106386861Y-120648415D01*
X106501533Y-120644670D01*
X106600573Y-120642773D01*
X106673045Y-120643185D01*
G37*
G36*
X117123391Y-120641177D02*
G01*
X117144576Y-120660814D01*
X117147502Y-120668721D01*
X117161265Y-120716507D01*
X117186613Y-120805472D01*
X117222083Y-120930437D01*
X117266216Y-121086224D01*
X117317549Y-121267651D01*
X117374621Y-121469541D01*
X117435972Y-121686713D01*
X117500140Y-121913989D01*
X117565665Y-122146188D01*
X117631084Y-122378131D01*
X117694937Y-122604638D01*
X117755763Y-122820532D01*
X117812101Y-123020630D01*
X117862489Y-123199756D01*
X117905466Y-123352728D01*
X117939571Y-123474368D01*
X117963344Y-123559495D01*
X117975322Y-123602931D01*
X117976301Y-123606660D01*
X117993431Y-123675478D01*
X117657354Y-123675478D01*
X117321277Y-123675478D01*
X117221848Y-123256315D01*
X117122419Y-122837153D01*
X116781355Y-122830203D01*
X116643803Y-122827956D01*
X116548243Y-122828351D01*
X116486651Y-122832239D01*
X116451003Y-122840469D01*
X116433273Y-122853891D01*
X116426948Y-122867740D01*
X116419624Y-122894842D01*
X116406981Y-122945658D01*
X116387965Y-123024635D01*
X116361518Y-123136218D01*
X116326585Y-123284853D01*
X116282109Y-123474986D01*
X116248460Y-123619173D01*
X116241047Y-123642195D01*
X116225896Y-123657896D01*
X116194637Y-123667675D01*
X116138904Y-123672932D01*
X116050330Y-123675066D01*
X115920546Y-123675477D01*
X115911833Y-123675478D01*
X115588339Y-123675478D01*
X115623271Y-123556611D01*
X115669527Y-123396912D01*
X115722507Y-123210063D01*
X115780708Y-123001690D01*
X115842627Y-122777419D01*
X115906759Y-122542874D01*
X115955668Y-122362457D01*
X116561601Y-122362457D01*
X116584709Y-122367762D01*
X116646372Y-122371820D01*
X116735100Y-122373996D01*
X116774311Y-122374197D01*
X116875745Y-122371489D01*
X116949203Y-122364108D01*
X116985040Y-122353170D01*
X116987020Y-122349571D01*
X116982096Y-122316805D01*
X116968670Y-122245445D01*
X116948759Y-122145826D01*
X116924383Y-122028287D01*
X116922982Y-122021643D01*
X116892361Y-121863807D01*
X116861798Y-121684581D01*
X116835689Y-121510708D01*
X116823656Y-121417256D01*
X116809318Y-121300391D01*
X116796165Y-121203075D01*
X116785630Y-121135276D01*
X116779146Y-121106965D01*
X116779034Y-121106835D01*
X116772947Y-121126346D01*
X116763255Y-121186370D01*
X116751290Y-121277614D01*
X116738379Y-121390785D01*
X116738275Y-121391760D01*
X116719474Y-121538298D01*
X116692547Y-121710398D01*
X116661322Y-121885019D01*
X116634226Y-122018368D01*
X116607672Y-122140704D01*
X116585472Y-122244538D01*
X116569588Y-122320574D01*
X116561981Y-122359517D01*
X116561601Y-122362457D01*
X115955668Y-122362457D01*
X115971601Y-122303682D01*
X116035649Y-122065468D01*
X116097399Y-121833857D01*
X116155348Y-121614476D01*
X116207992Y-121412949D01*
X116253827Y-121234902D01*
X116291350Y-121085961D01*
X116319056Y-120971750D01*
X116335442Y-120897897D01*
X116338475Y-120881010D01*
X116369441Y-120676591D01*
X116609413Y-120661772D01*
X116734657Y-120653932D01*
X116860108Y-120645903D01*
X116964461Y-120639055D01*
X116992369Y-120637168D01*
X117076636Y-120634104D01*
X117123391Y-120641177D01*
G37*
G36*
X123746215Y-121576885D02*
G01*
X123873467Y-121624177D01*
X123992351Y-121711041D01*
X124002292Y-121720157D01*
X124031492Y-121756983D01*
X124083144Y-121832731D01*
X124154628Y-121943011D01*
X124243321Y-122083429D01*
X124346603Y-122249593D01*
X124461851Y-122437111D01*
X124586445Y-122641592D01*
X124717763Y-122858641D01*
X124853184Y-123083869D01*
X124990086Y-123312881D01*
X125125848Y-123541286D01*
X125257848Y-123764692D01*
X125383465Y-123978706D01*
X125500077Y-124178936D01*
X125605064Y-124360990D01*
X125695803Y-124520476D01*
X125769673Y-124653001D01*
X125824053Y-124754173D01*
X125856321Y-124819601D01*
X125863791Y-124839123D01*
X125881007Y-124999117D01*
X125852756Y-125156455D01*
X125783177Y-125301820D01*
X125676406Y-125425895D01*
X125569300Y-125502276D01*
X125457858Y-125564838D01*
X123618027Y-125571711D01*
X121778196Y-125578584D01*
X121641253Y-125509149D01*
X121499988Y-125412423D01*
X121394354Y-125287505D01*
X121328045Y-125142176D01*
X121304950Y-124985549D01*
X121708334Y-124985549D01*
X121732277Y-125068202D01*
X121776462Y-125118355D01*
X121844589Y-125176956D01*
X123593523Y-125176956D01*
X125342456Y-125176956D01*
X125410584Y-125118355D01*
X125467560Y-125043267D01*
X125478711Y-124985549D01*
X125469779Y-124954535D01*
X125442341Y-124894840D01*
X125395439Y-124804784D01*
X125328113Y-124682686D01*
X125239402Y-124526864D01*
X125128347Y-124335638D01*
X124993989Y-124107326D01*
X124835368Y-123840248D01*
X124651524Y-123532722D01*
X124605333Y-123455696D01*
X124428511Y-123161059D01*
X124275427Y-122906525D01*
X124144044Y-122689296D01*
X124032324Y-122506574D01*
X123938229Y-122355561D01*
X123859720Y-122233459D01*
X123794761Y-122137470D01*
X123741313Y-122064796D01*
X123697339Y-122012638D01*
X123660800Y-121978198D01*
X123629660Y-121958679D01*
X123601879Y-121951282D01*
X123575421Y-121953210D01*
X123548247Y-121961664D01*
X123524307Y-121971377D01*
X123505528Y-121984989D01*
X123478324Y-122015074D01*
X123440993Y-122064312D01*
X123391834Y-122135380D01*
X123329146Y-122230957D01*
X123251229Y-122353722D01*
X123156381Y-122506353D01*
X123042902Y-122691529D01*
X122909090Y-122911928D01*
X122753244Y-123170229D01*
X122581712Y-123455696D01*
X122391901Y-123772812D01*
X122227534Y-124049091D01*
X122087652Y-124286215D01*
X121971296Y-124485865D01*
X121877505Y-124649722D01*
X121805320Y-124779467D01*
X121753782Y-124876781D01*
X121721930Y-124943345D01*
X121708805Y-124980840D01*
X121708334Y-124985549D01*
X121304950Y-124985549D01*
X121304754Y-124984221D01*
X121323254Y-124839123D01*
X121341848Y-124795870D01*
X121384037Y-124714386D01*
X121447200Y-124599063D01*
X121528716Y-124454294D01*
X121625962Y-124284472D01*
X121736317Y-124093988D01*
X121857161Y-123887234D01*
X121985871Y-123668603D01*
X122119826Y-123442488D01*
X122256404Y-123213280D01*
X122392985Y-122985371D01*
X122526947Y-122763154D01*
X122655668Y-122551022D01*
X122776527Y-122353365D01*
X122886903Y-122174578D01*
X122984173Y-122019051D01*
X123065718Y-121891177D01*
X123128914Y-121795348D01*
X123171141Y-121735958D01*
X123184753Y-121720157D01*
X123303708Y-121629743D01*
X123429626Y-121579442D01*
X123579580Y-121562673D01*
X123593523Y-121562583D01*
X123746215Y-121576885D01*
G37*
G36*
X108556970Y-112357192D02*
G01*
X108620378Y-112399058D01*
X108640858Y-112416718D01*
X108657296Y-112434276D01*
X108669672Y-112456647D01*
X108677965Y-112488743D01*
X108682155Y-112535478D01*
X108682220Y-112601766D01*
X108678141Y-112692521D01*
X108669897Y-112812656D01*
X108657466Y-112967084D01*
X108640830Y-113160719D01*
X108619966Y-113398476D01*
X108616004Y-113443563D01*
X108599890Y-113628504D01*
X108585325Y-113798582D01*
X108572869Y-113947007D01*
X108563084Y-114066990D01*
X108556531Y-114151742D01*
X108553772Y-114194474D01*
X108553720Y-114196883D01*
X108556656Y-114210348D01*
X108569211Y-114220780D01*
X108597006Y-114228564D01*
X108645664Y-114234084D01*
X108720805Y-114237722D01*
X108828050Y-114239863D01*
X108973020Y-114240890D01*
X109161338Y-114241187D01*
X109202965Y-114241192D01*
X109399847Y-114241294D01*
X109552955Y-114241939D01*
X109668563Y-114243642D01*
X109752947Y-114246914D01*
X109812380Y-114252268D01*
X109853138Y-114260217D01*
X109881496Y-114271273D01*
X109903729Y-114285948D01*
X109920337Y-114299793D01*
X109977405Y-114375115D01*
X109988465Y-114431389D01*
X109976237Y-114465806D01*
X109941221Y-114539000D01*
X109885922Y-114646556D01*
X109812845Y-114784063D01*
X109724492Y-114947108D01*
X109623370Y-115131278D01*
X109511981Y-115332161D01*
X109392829Y-115545344D01*
X109268420Y-115766414D01*
X109141258Y-115990958D01*
X109013846Y-116214564D01*
X108888689Y-116432819D01*
X108768290Y-116641310D01*
X108655155Y-116835625D01*
X108551788Y-117011351D01*
X108460692Y-117164075D01*
X108384371Y-117289385D01*
X108325331Y-117382868D01*
X108286075Y-117440110D01*
X108271947Y-117456092D01*
X108186271Y-117491232D01*
X108100026Y-117476523D01*
X108036618Y-117434657D01*
X108016138Y-117416997D01*
X107999700Y-117399438D01*
X107987324Y-117377068D01*
X107979031Y-117344972D01*
X107974841Y-117298236D01*
X107974776Y-117231948D01*
X107978855Y-117141194D01*
X107987099Y-117021059D01*
X107999530Y-116866631D01*
X108016166Y-116672995D01*
X108037030Y-116435239D01*
X108040992Y-116390152D01*
X108057106Y-116205210D01*
X108071671Y-116035133D01*
X108084127Y-115886708D01*
X108093912Y-115766725D01*
X108100465Y-115681973D01*
X108103224Y-115639241D01*
X108103276Y-115636831D01*
X108100340Y-115623367D01*
X108087785Y-115612934D01*
X108059990Y-115605150D01*
X108011332Y-115599631D01*
X107936191Y-115595992D01*
X107828946Y-115593851D01*
X107683976Y-115592825D01*
X107495658Y-115592528D01*
X107454031Y-115592522D01*
X107257149Y-115592421D01*
X107104041Y-115591775D01*
X106988433Y-115590073D01*
X106904049Y-115586801D01*
X106844616Y-115581447D01*
X106803858Y-115573498D01*
X106775500Y-115562442D01*
X106753267Y-115547766D01*
X106736659Y-115533921D01*
X106679591Y-115458599D01*
X106668531Y-115402325D01*
X106680759Y-115367908D01*
X106715775Y-115294715D01*
X106771074Y-115187158D01*
X106786406Y-115158308D01*
X107235038Y-115158308D01*
X107238564Y-115169234D01*
X107262048Y-115177622D01*
X107310686Y-115183775D01*
X107389678Y-115187997D01*
X107504221Y-115190591D01*
X107659514Y-115191861D01*
X107813953Y-115192128D01*
X108405847Y-115192128D01*
X108467271Y-115253552D01*
X108491235Y-115278839D01*
X108508587Y-115304714D01*
X108519608Y-115338291D01*
X108524578Y-115386680D01*
X108523776Y-115456994D01*
X108517483Y-115556345D01*
X108505978Y-115691845D01*
X108490964Y-115855281D01*
X108478238Y-115996240D01*
X108467382Y-116123652D01*
X108459212Y-116227376D01*
X108454542Y-116297270D01*
X108453759Y-116318237D01*
X108465501Y-116314422D01*
X108500121Y-116268175D01*
X108556647Y-116181066D01*
X108634111Y-116054664D01*
X108731541Y-115890540D01*
X108847970Y-115690265D01*
X108931336Y-115545013D01*
X109038248Y-115357657D01*
X109137488Y-115183206D01*
X109226268Y-115026601D01*
X109301802Y-114892782D01*
X109361301Y-114786690D01*
X109401979Y-114713266D01*
X109421046Y-114677451D01*
X109421958Y-114675407D01*
X109418432Y-114664480D01*
X109394948Y-114656092D01*
X109346310Y-114649939D01*
X109267318Y-114645718D01*
X109152775Y-114643124D01*
X108997482Y-114641853D01*
X108843043Y-114641586D01*
X108251149Y-114641586D01*
X108189725Y-114580162D01*
X108165761Y-114554875D01*
X108148409Y-114529000D01*
X108137388Y-114495424D01*
X108132418Y-114447035D01*
X108133220Y-114376721D01*
X108139513Y-114277369D01*
X108151018Y-114141869D01*
X108166032Y-113978434D01*
X108178758Y-113837475D01*
X108189614Y-113710063D01*
X108197784Y-113606339D01*
X108202454Y-113536445D01*
X108203237Y-113515478D01*
X108191495Y-113519292D01*
X108156875Y-113565539D01*
X108100349Y-113652649D01*
X108022885Y-113779051D01*
X107925455Y-113943174D01*
X107809026Y-114143450D01*
X107725660Y-114288702D01*
X107618748Y-114476057D01*
X107519508Y-114650508D01*
X107430728Y-114807114D01*
X107355194Y-114940933D01*
X107295695Y-115047025D01*
X107255017Y-115120448D01*
X107235950Y-115156263D01*
X107235038Y-115158308D01*
X106786406Y-115158308D01*
X106844151Y-115049651D01*
X106932504Y-114886606D01*
X107033626Y-114702436D01*
X107145016Y-114501553D01*
X107264167Y-114288371D01*
X107388576Y-114067301D01*
X107515738Y-113842756D01*
X107643150Y-113619150D01*
X107768307Y-113400895D01*
X107888706Y-113192404D01*
X108001841Y-112998089D01*
X108105208Y-112822363D01*
X108196305Y-112669639D01*
X108272625Y-112544329D01*
X108331665Y-112450847D01*
X108370921Y-112393604D01*
X108385049Y-112377622D01*
X108470725Y-112342483D01*
X108556970Y-112357192D01*
G37*
G36*
X111960320Y-112357192D02*
G01*
X112023728Y-112399058D01*
X112044208Y-112416718D01*
X112060646Y-112434276D01*
X112073022Y-112456647D01*
X112081315Y-112488743D01*
X112085505Y-112535478D01*
X112085570Y-112601766D01*
X112081491Y-112692521D01*
X112073246Y-112812656D01*
X112060816Y-112967084D01*
X112044179Y-113160719D01*
X112023316Y-113398476D01*
X112019354Y-113443563D01*
X112003240Y-113628504D01*
X111988675Y-113798582D01*
X111976219Y-113947007D01*
X111966434Y-114066990D01*
X111959881Y-114151742D01*
X111957122Y-114194474D01*
X111957069Y-114196883D01*
X111960005Y-114210348D01*
X111972560Y-114220780D01*
X112000356Y-114228564D01*
X112049014Y-114234084D01*
X112124154Y-114237722D01*
X112231399Y-114239863D01*
X112376370Y-114240890D01*
X112564688Y-114241187D01*
X112606314Y-114241192D01*
X112803197Y-114241294D01*
X112956305Y-114241939D01*
X113071913Y-114243642D01*
X113156296Y-114246914D01*
X113215730Y-114252268D01*
X113256488Y-114260217D01*
X113284846Y-114271273D01*
X113307079Y-114285948D01*
X113323687Y-114299793D01*
X113380755Y-114375115D01*
X113391815Y-114431389D01*
X113379587Y-114465806D01*
X113344571Y-114539000D01*
X113289272Y-114646556D01*
X113216194Y-114784063D01*
X113127842Y-114947108D01*
X113026719Y-115131278D01*
X112915330Y-115332161D01*
X112796179Y-115545344D01*
X112671770Y-115766414D01*
X112544608Y-115990958D01*
X112417196Y-116214564D01*
X112292038Y-116432819D01*
X112171640Y-116641310D01*
X112058505Y-116835625D01*
X111955137Y-117011351D01*
X111864041Y-117164075D01*
X111787721Y-117289385D01*
X111728681Y-117382868D01*
X111689425Y-117440110D01*
X111675297Y-117456092D01*
X111589621Y-117491232D01*
X111503376Y-117476523D01*
X111439968Y-117434657D01*
X111419488Y-117416997D01*
X111403050Y-117399438D01*
X111390674Y-117377068D01*
X111382381Y-117344972D01*
X111378191Y-117298236D01*
X111378126Y-117231948D01*
X111382205Y-117141194D01*
X111390449Y-117021059D01*
X111402879Y-116866631D01*
X111419516Y-116672995D01*
X111440380Y-116435239D01*
X111444342Y-116390152D01*
X111460456Y-116205210D01*
X111475021Y-116035133D01*
X111487477Y-115886708D01*
X111497262Y-115766725D01*
X111503815Y-115681973D01*
X111506574Y-115639241D01*
X111506626Y-115636831D01*
X111503690Y-115623367D01*
X111491135Y-115612934D01*
X111463339Y-115605150D01*
X111414682Y-115599631D01*
X111339541Y-115595992D01*
X111232296Y-115593851D01*
X111087325Y-115592825D01*
X110899008Y-115592528D01*
X110857381Y-115592522D01*
X110660499Y-115592421D01*
X110507391Y-115591775D01*
X110391783Y-115590073D01*
X110307399Y-115586801D01*
X110247966Y-115581447D01*
X110207207Y-115573498D01*
X110178849Y-115562442D01*
X110156617Y-115547766D01*
X110140008Y-115533921D01*
X110082941Y-115458599D01*
X110071881Y-115402325D01*
X110084109Y-115367908D01*
X110119125Y-115294715D01*
X110174423Y-115187158D01*
X110189755Y-115158308D01*
X110638387Y-115158308D01*
X110641914Y-115169234D01*
X110665398Y-115177622D01*
X110714036Y-115183775D01*
X110793028Y-115187997D01*
X110907571Y-115190591D01*
X111062864Y-115191861D01*
X111217303Y-115192128D01*
X111809197Y-115192128D01*
X111870621Y-115253552D01*
X111894585Y-115278839D01*
X111911937Y-115304714D01*
X111922958Y-115338291D01*
X111927928Y-115386680D01*
X111927126Y-115456994D01*
X111920833Y-115556345D01*
X111909328Y-115691845D01*
X111894314Y-115855281D01*
X111881588Y-115996240D01*
X111870732Y-116123652D01*
X111862562Y-116227376D01*
X111857892Y-116297270D01*
X111857108Y-116318237D01*
X111868851Y-116314422D01*
X111903470Y-116268175D01*
X111959997Y-116181066D01*
X112037460Y-116054664D01*
X112134891Y-115890540D01*
X112251319Y-115690265D01*
X112334686Y-115545013D01*
X112441598Y-115357657D01*
X112540837Y-115183206D01*
X112629618Y-115026601D01*
X112705152Y-114892782D01*
X112764651Y-114786690D01*
X112805328Y-114713266D01*
X112824396Y-114677451D01*
X112825308Y-114675407D01*
X112821781Y-114664480D01*
X112798298Y-114656092D01*
X112749659Y-114649939D01*
X112670668Y-114645718D01*
X112556124Y-114643124D01*
X112400832Y-114641853D01*
X112246393Y-114641586D01*
X111654499Y-114641586D01*
X111593075Y-114580162D01*
X111569111Y-114554875D01*
X111551758Y-114529000D01*
X111540737Y-114495424D01*
X111535768Y-114447035D01*
X111536570Y-114376721D01*
X111542863Y-114277369D01*
X111554368Y-114141869D01*
X111569382Y-113978434D01*
X111582108Y-113837475D01*
X111592963Y-113710063D01*
X111601134Y-113606339D01*
X111605804Y-113536445D01*
X111606587Y-113515478D01*
X111594844Y-113519292D01*
X111560225Y-113565539D01*
X111503699Y-113652649D01*
X111426235Y-113779051D01*
X111328804Y-113943174D01*
X111212376Y-114143450D01*
X111129010Y-114288702D01*
X111022098Y-114476057D01*
X110922858Y-114650508D01*
X110834077Y-114807114D01*
X110758544Y-114940933D01*
X110699044Y-115047025D01*
X110658367Y-115120448D01*
X110639299Y-115156263D01*
X110638387Y-115158308D01*
X110189755Y-115158308D01*
X110247501Y-115049651D01*
X110335853Y-114886606D01*
X110436976Y-114702436D01*
X110548365Y-114501553D01*
X110667516Y-114288371D01*
X110791925Y-114067301D01*
X110919088Y-113842756D01*
X111046500Y-113619150D01*
X111171657Y-113400895D01*
X111292055Y-113192404D01*
X111405191Y-112998089D01*
X111508558Y-112822363D01*
X111599654Y-112669639D01*
X111675975Y-112544329D01*
X111735015Y-112450847D01*
X111774271Y-112393604D01*
X111788399Y-112377622D01*
X111874075Y-112342483D01*
X111960320Y-112357192D01*
G37*
G36*
X115263571Y-112357192D02*
G01*
X115326979Y-112399058D01*
X115347459Y-112416718D01*
X115363897Y-112434276D01*
X115376273Y-112456647D01*
X115384566Y-112488743D01*
X115388756Y-112535478D01*
X115388821Y-112601766D01*
X115384742Y-112692521D01*
X115376498Y-112812656D01*
X115364067Y-112967084D01*
X115347431Y-113160719D01*
X115326567Y-113398476D01*
X115322605Y-113443563D01*
X115306491Y-113628504D01*
X115291926Y-113798582D01*
X115279470Y-113947007D01*
X115269685Y-114066990D01*
X115263132Y-114151742D01*
X115260373Y-114194474D01*
X115260321Y-114196883D01*
X115263257Y-114210348D01*
X115275812Y-114220780D01*
X115303607Y-114228564D01*
X115352265Y-114234084D01*
X115427406Y-114237722D01*
X115534651Y-114239863D01*
X115679621Y-114240890D01*
X115867939Y-114241187D01*
X115909566Y-114241192D01*
X116106448Y-114241294D01*
X116259556Y-114241939D01*
X116375164Y-114243642D01*
X116459548Y-114246914D01*
X116518981Y-114252268D01*
X116559739Y-114260217D01*
X116588097Y-114271273D01*
X116610330Y-114285948D01*
X116626938Y-114299793D01*
X116684006Y-114375115D01*
X116695066Y-114431389D01*
X116682838Y-114465806D01*
X116647822Y-114539000D01*
X116592523Y-114646556D01*
X116519446Y-114784063D01*
X116431093Y-114947108D01*
X116329971Y-115131278D01*
X116218581Y-115332161D01*
X116099430Y-115545344D01*
X115975021Y-115766414D01*
X115847859Y-115990958D01*
X115720447Y-116214564D01*
X115595290Y-116432819D01*
X115474891Y-116641310D01*
X115361756Y-116835625D01*
X115258389Y-117011351D01*
X115167292Y-117164075D01*
X115090972Y-117289385D01*
X115031932Y-117382868D01*
X114992676Y-117440110D01*
X114978548Y-117456092D01*
X114892872Y-117491232D01*
X114806627Y-117476523D01*
X114743219Y-117434657D01*
X114722739Y-117416997D01*
X114706301Y-117399438D01*
X114693925Y-117377068D01*
X114685632Y-117344972D01*
X114681442Y-117298236D01*
X114681377Y-117231948D01*
X114685456Y-117141194D01*
X114693700Y-117021059D01*
X114706131Y-116866631D01*
X114722767Y-116672995D01*
X114743631Y-116435239D01*
X114747593Y-116390152D01*
X114763707Y-116205210D01*
X114778272Y-116035133D01*
X114790728Y-115886708D01*
X114800513Y-115766725D01*
X114807066Y-115681973D01*
X114809825Y-115639241D01*
X114809877Y-115636831D01*
X114806941Y-115623367D01*
X114794386Y-115612934D01*
X114766591Y-115605150D01*
X114717933Y-115599631D01*
X114642792Y-115595992D01*
X114535547Y-115593851D01*
X114390577Y-115592825D01*
X114202259Y-115592528D01*
X114160632Y-115592522D01*
X113963750Y-115592421D01*
X113810642Y-115591775D01*
X113695034Y-115590073D01*
X113610650Y-115586801D01*
X113551217Y-115581447D01*
X113510459Y-115573498D01*
X113482101Y-115562442D01*
X113459868Y-115547766D01*
X113443260Y-115533921D01*
X113386192Y-115458599D01*
X113375132Y-115402325D01*
X113387360Y-115367908D01*
X113422376Y-115294715D01*
X113477675Y-115187158D01*
X113493007Y-115158308D01*
X113941639Y-115158308D01*
X113945165Y-115169234D01*
X113968649Y-115177622D01*
X114017287Y-115183775D01*
X114096279Y-115187997D01*
X114210822Y-115190591D01*
X114366115Y-115191861D01*
X114520554Y-115192128D01*
X115112448Y-115192128D01*
X115173872Y-115253552D01*
X115197836Y-115278839D01*
X115215188Y-115304714D01*
X115226209Y-115338291D01*
X115231179Y-115386680D01*
X115230377Y-115456994D01*
X115224084Y-115556345D01*
X115212579Y-115691845D01*
X115197565Y-115855281D01*
X115184839Y-115996240D01*
X115173983Y-116123652D01*
X115165813Y-116227376D01*
X115161143Y-116297270D01*
X115160360Y-116318237D01*
X115172102Y-116314422D01*
X115206722Y-116268175D01*
X115263248Y-116181066D01*
X115340712Y-116054664D01*
X115438142Y-115890540D01*
X115554571Y-115690265D01*
X115637937Y-115545013D01*
X115744849Y-115357657D01*
X115844089Y-115183206D01*
X115932869Y-115026601D01*
X116008403Y-114892782D01*
X116067902Y-114786690D01*
X116108580Y-114713266D01*
X116127647Y-114677451D01*
X116128559Y-114675407D01*
X116125033Y-114664480D01*
X116101549Y-114656092D01*
X116052911Y-114649939D01*
X115973919Y-114645718D01*
X115859376Y-114643124D01*
X115704083Y-114641853D01*
X115549644Y-114641586D01*
X114957750Y-114641586D01*
X114896326Y-114580162D01*
X114872362Y-114554875D01*
X114855010Y-114529000D01*
X114843989Y-114495424D01*
X114839019Y-114447035D01*
X114839821Y-114376721D01*
X114846114Y-114277369D01*
X114857619Y-114141869D01*
X114872633Y-113978434D01*
X114885359Y-113837475D01*
X114896215Y-113710063D01*
X114904385Y-113606339D01*
X114909055Y-113536445D01*
X114909838Y-113515478D01*
X114898096Y-113519292D01*
X114863476Y-113565539D01*
X114806950Y-113652649D01*
X114729486Y-113779051D01*
X114632056Y-113943174D01*
X114515627Y-114143450D01*
X114432261Y-114288702D01*
X114325349Y-114476057D01*
X114226109Y-114650508D01*
X114137329Y-114807114D01*
X114061795Y-114940933D01*
X114002296Y-115047025D01*
X113961618Y-115120448D01*
X113942551Y-115156263D01*
X113941639Y-115158308D01*
X113493007Y-115158308D01*
X113550752Y-115049651D01*
X113639105Y-114886606D01*
X113740227Y-114702436D01*
X113851617Y-114501553D01*
X113970768Y-114288371D01*
X114095177Y-114067301D01*
X114222339Y-113842756D01*
X114349751Y-113619150D01*
X114474908Y-113400895D01*
X114595307Y-113192404D01*
X114708442Y-112998089D01*
X114811809Y-112822363D01*
X114902905Y-112669639D01*
X114979226Y-112544329D01*
X115038266Y-112450847D01*
X115077522Y-112393604D01*
X115091650Y-112377622D01*
X115177326Y-112342483D01*
X115263571Y-112357192D01*
G37*
G36*
X129104012Y-88636290D02*
G01*
X129114426Y-88645755D01*
X129126680Y-88665488D01*
X129121976Y-88691024D01*
X129095453Y-88729198D01*
X129042246Y-88786848D01*
X128957491Y-88870811D01*
X128947238Y-88880777D01*
X128749977Y-89084899D01*
X128570518Y-89298784D01*
X128402677Y-89531286D01*
X128240268Y-89791262D01*
X128077106Y-90087568D01*
X128003033Y-90232631D01*
X127807712Y-90652948D01*
X127653020Y-91054018D01*
X127536962Y-91442824D01*
X127457541Y-91826347D01*
X127412760Y-92211569D01*
X127406209Y-92319616D01*
X127401778Y-92553120D01*
X127408522Y-92818900D01*
X127425358Y-93100707D01*
X127451203Y-93382291D01*
X127484975Y-93647405D01*
X127501738Y-93752729D01*
X127556243Y-94072245D01*
X127622470Y-94008796D01*
X127666914Y-93949075D01*
X127710492Y-93863259D01*
X127733331Y-93801890D01*
X127767516Y-93707936D01*
X127816227Y-93593351D01*
X127869590Y-93481206D01*
X127875660Y-93469353D01*
X127917605Y-93391984D01*
X127958859Y-93328174D01*
X128007648Y-93268895D01*
X128072197Y-93205121D01*
X128160731Y-93127825D01*
X128267133Y-93039713D01*
X128459194Y-92882857D01*
X128616698Y-92755312D01*
X128743445Y-92654242D01*
X128843239Y-92576812D01*
X128919883Y-92520187D01*
X128977180Y-92481532D01*
X129018933Y-92458012D01*
X129048944Y-92446793D01*
X129065235Y-92444739D01*
X129123685Y-92457281D01*
X129208851Y-92490018D01*
X129305649Y-92535617D01*
X129398997Y-92586744D01*
X129473813Y-92636067D01*
X129495457Y-92653909D01*
X129580694Y-92761740D01*
X129621441Y-92885664D01*
X129624459Y-92931212D01*
X129616827Y-92989462D01*
X129588959Y-93047694D01*
X129533390Y-93119616D01*
X129503580Y-93153254D01*
X129383534Y-93294387D01*
X129292549Y-93424913D01*
X129220373Y-93562653D01*
X129156753Y-93725433D01*
X129132349Y-93798612D01*
X129091324Y-93922069D01*
X129056637Y-94011442D01*
X129020511Y-94080666D01*
X128975166Y-94143673D01*
X128912823Y-94214397D01*
X128881630Y-94247708D01*
X128711372Y-94409707D01*
X128542004Y-94529102D01*
X128361471Y-94611637D01*
X128157718Y-94663055D01*
X127960919Y-94686318D01*
X127858713Y-94694810D01*
X127778430Y-94703363D01*
X127730892Y-94710721D01*
X127722587Y-94713989D01*
X127731781Y-94748870D01*
X127756539Y-94819124D01*
X127792625Y-94914156D01*
X127835804Y-95023374D01*
X127881837Y-95136184D01*
X127926491Y-95241992D01*
X127965527Y-95330206D01*
X127987221Y-95375769D01*
X128056454Y-95497428D01*
X128130606Y-95600204D01*
X128202788Y-95676237D01*
X128266113Y-95717673D01*
X128291583Y-95722966D01*
X128337066Y-95737902D01*
X128404121Y-95776659D01*
X128463801Y-95819785D01*
X128572315Y-95895937D01*
X128700878Y-95970909D01*
X128837457Y-96039170D01*
X128970018Y-96095186D01*
X129086529Y-96133424D01*
X129174958Y-96148349D01*
X129178369Y-96148384D01*
X129272691Y-96157135D01*
X129363918Y-96178861D01*
X129382865Y-96185921D01*
X129531203Y-96220927D01*
X129696503Y-96209620D01*
X129877735Y-96152390D01*
X130073871Y-96049628D01*
X130283883Y-95901726D01*
X130412734Y-95794456D01*
X130522849Y-95701159D01*
X130645673Y-95602222D01*
X130760640Y-95514056D01*
X130800616Y-95484914D01*
X130893678Y-95414104D01*
X131007993Y-95320543D01*
X131129010Y-95216452D01*
X131241294Y-95114873D01*
X131349232Y-95016973D01*
X131459559Y-94921745D01*
X131559796Y-94839676D01*
X131637464Y-94781255D01*
X131641688Y-94778353D01*
X131771648Y-94675692D01*
X131917295Y-94536181D01*
X132071772Y-94367653D01*
X132228220Y-94177940D01*
X132379779Y-93974875D01*
X132497383Y-93801127D01*
X132630143Y-93555518D01*
X132736700Y-93274798D01*
X132814444Y-92967996D01*
X132860764Y-92644139D01*
X132869870Y-92512645D01*
X132885299Y-92192669D01*
X133009872Y-92093482D01*
X133077923Y-92041931D01*
X133131584Y-92006066D01*
X133156986Y-91994296D01*
X133187798Y-92012992D01*
X133193032Y-92057452D01*
X133172371Y-92110230D01*
X133159409Y-92126948D01*
X133105458Y-92191629D01*
X133066120Y-92255302D01*
X133037638Y-92329219D01*
X133016256Y-92424631D01*
X132998218Y-92552790D01*
X132988679Y-92638308D01*
X132947846Y-92938180D01*
X132891363Y-93201115D01*
X132815800Y-93438714D01*
X132717724Y-93662576D01*
X132646104Y-93796069D01*
X132543327Y-93961931D01*
X132418105Y-94142476D01*
X132281257Y-94323492D01*
X132143603Y-94490770D01*
X132015961Y-94630099D01*
X131995765Y-94650249D01*
X131922379Y-94725011D01*
X131865058Y-94788615D01*
X131831784Y-94831929D01*
X131826626Y-94843714D01*
X131847867Y-94869757D01*
X131888161Y-94886619D01*
X131957810Y-94916649D01*
X131990921Y-94957955D01*
X131981555Y-95002068D01*
X131974624Y-95009929D01*
X131946216Y-95028701D01*
X131908081Y-95026730D01*
X131844448Y-95002512D01*
X131830149Y-94996160D01*
X131757501Y-94966123D01*
X131697887Y-94951966D01*
X131642705Y-94957176D01*
X131583351Y-94985236D01*
X131511219Y-95039631D01*
X131417707Y-95123845D01*
X131345252Y-95192529D01*
X131232275Y-95297013D01*
X131111852Y-95402696D01*
X130998010Y-95497586D01*
X130904776Y-95569689D01*
X130900715Y-95572619D01*
X130790531Y-95654718D01*
X130665992Y-95752057D01*
X130550100Y-95846567D01*
X130525345Y-95867487D01*
X130334860Y-96020659D01*
X130154400Y-96147572D01*
X129991007Y-96243624D01*
X129862906Y-96300395D01*
X129751447Y-96330122D01*
X129628017Y-96342814D01*
X129482681Y-96338449D01*
X129305503Y-96317000D01*
X129195627Y-96298758D01*
X129074948Y-96273369D01*
X128971045Y-96244142D01*
X128898008Y-96215243D01*
X128882819Y-96206308D01*
X128811536Y-96164450D01*
X128726009Y-96123791D01*
X128708024Y-96116485D01*
X128624455Y-96078328D01*
X128529361Y-96027083D01*
X128486360Y-96001123D01*
X128405612Y-95955333D01*
X128329287Y-95920781D01*
X128295307Y-95910025D01*
X128237266Y-95879454D01*
X128162734Y-95814675D01*
X128079832Y-95725061D01*
X127996679Y-95619982D01*
X127921395Y-95508813D01*
X127872247Y-95421705D01*
X127724812Y-95101625D01*
X127600582Y-94769249D01*
X127498234Y-94418602D01*
X127490890Y-94384939D01*
X127681924Y-94384939D01*
X127687847Y-94460192D01*
X127718953Y-94529502D01*
X127724245Y-94536294D01*
X127761222Y-94549606D01*
X127834889Y-94555276D01*
X127932589Y-94553999D01*
X128041663Y-94546469D01*
X128149450Y-94533379D01*
X128243293Y-94515424D01*
X128277572Y-94505951D01*
X128406512Y-94450044D01*
X128548961Y-94363383D01*
X128689897Y-94256334D01*
X128814299Y-94139263D01*
X128823745Y-94129056D01*
X128890936Y-94049031D01*
X128939705Y-93971110D01*
X128979875Y-93876992D01*
X129012588Y-93777187D01*
X129084014Y-93570553D01*
X129164012Y-93398482D01*
X129260784Y-93245489D01*
X129359396Y-93122268D01*
X129447865Y-93009539D01*
X129493651Y-92918232D01*
X129495457Y-92841626D01*
X129451987Y-92773002D01*
X129361945Y-92705638D01*
X129269279Y-92655014D01*
X129171000Y-92608522D01*
X129104415Y-92585553D01*
X129058806Y-92583052D01*
X129038776Y-92589296D01*
X128989210Y-92619101D01*
X128909688Y-92675129D01*
X128808244Y-92751019D01*
X128692911Y-92840409D01*
X128571721Y-92936937D01*
X128452708Y-93034242D01*
X128343905Y-93125961D01*
X128253345Y-93205733D01*
X128213730Y-93242686D01*
X128061931Y-93416863D01*
X127940256Y-93620245D01*
X127845669Y-93858673D01*
X127793675Y-94050748D01*
X127766587Y-94157209D01*
X127738398Y-94248269D01*
X127713490Y-94310516D01*
X127703472Y-94326834D01*
X127681924Y-94384939D01*
X127490890Y-94384939D01*
X127416449Y-94043711D01*
X127353904Y-93638600D01*
X127309278Y-93197297D01*
X127283056Y-92757547D01*
X127287384Y-92275912D01*
X127341592Y-91793692D01*
X127445721Y-91310694D01*
X127599810Y-90826724D01*
X127759742Y-90437250D01*
X127861954Y-90223929D01*
X127984467Y-89988996D01*
X128117237Y-89750636D01*
X128250219Y-89527038D01*
X128342008Y-89383052D01*
X128417314Y-89280242D01*
X128518825Y-89156809D01*
X128635645Y-89024660D01*
X128756874Y-88895704D01*
X128871617Y-88781848D01*
X128968977Y-88695002D01*
X128979060Y-88686893D01*
X129039797Y-88641959D01*
X129076934Y-88626463D01*
X129104012Y-88636290D01*
G37*
G36*
X129542468Y-77951906D02*
G01*
X130019543Y-78000613D01*
X130513652Y-78079818D01*
X130825641Y-78143973D01*
X131150560Y-78221298D01*
X131475087Y-78308991D01*
X131804975Y-78409118D01*
X132145973Y-78523748D01*
X132503832Y-78654946D01*
X132884304Y-78804782D01*
X133293139Y-78975322D01*
X133736088Y-79168634D01*
X133979243Y-79277680D01*
X134552835Y-79514228D01*
X135128605Y-79705325D01*
X135712239Y-79852169D01*
X136309424Y-79955956D01*
X136925845Y-80017886D01*
X137567187Y-80039155D01*
X137594803Y-80039176D01*
X138199367Y-80021589D01*
X138797492Y-79968563D01*
X139397276Y-79878805D01*
X140006817Y-79751020D01*
X140634213Y-79583916D01*
X140848005Y-79519472D01*
X141186774Y-79407070D01*
X141546679Y-79274171D01*
X141915321Y-79126078D01*
X142280301Y-78968094D01*
X142629221Y-78805519D01*
X142949681Y-78643657D01*
X143141491Y-78538704D01*
X143246176Y-78481877D01*
X143336441Y-78437787D01*
X143402903Y-78410682D01*
X143436178Y-78404809D01*
X143436717Y-78405095D01*
X143434472Y-78431890D01*
X143408271Y-78500532D01*
X143357956Y-78611355D01*
X143283370Y-78764691D01*
X143184356Y-78960874D01*
X143063236Y-79195471D01*
X142969506Y-79377072D01*
X142884221Y-79545319D01*
X142809943Y-79694919D01*
X142749238Y-79820578D01*
X142704669Y-79917004D01*
X142678800Y-79978903D01*
X142673382Y-80000305D01*
X142686590Y-80009146D01*
X142721509Y-80016316D01*
X142782277Y-80021963D01*
X142873032Y-80026234D01*
X142997912Y-80029278D01*
X143161055Y-80031240D01*
X143366599Y-80032270D01*
X143576990Y-80032522D01*
X143820681Y-80032869D01*
X144018280Y-80034003D01*
X144173739Y-80036064D01*
X144291010Y-80039192D01*
X144374046Y-80043529D01*
X144426800Y-80049214D01*
X144453224Y-80056388D01*
X144457921Y-80063803D01*
X144434476Y-80093674D01*
X144377089Y-80150977D01*
X144290591Y-80231495D01*
X144179812Y-80331013D01*
X144049585Y-80445314D01*
X143904739Y-80570182D01*
X143750106Y-80701402D01*
X143590518Y-80834756D01*
X143430804Y-80966030D01*
X143337956Y-81041211D01*
X142718950Y-81523974D01*
X142112473Y-81966095D01*
X141519478Y-82367073D01*
X140940916Y-82726410D01*
X140377740Y-83043604D01*
X139830901Y-83318157D01*
X139301350Y-83549567D01*
X138790041Y-83737336D01*
X138297925Y-83880964D01*
X137825954Y-83979950D01*
X137707394Y-83998207D01*
X137522973Y-84017671D01*
X137296456Y-84030437D01*
X137035326Y-84036657D01*
X136747068Y-84036483D01*
X136439162Y-84030065D01*
X136119094Y-84017555D01*
X135794345Y-83999105D01*
X135472399Y-83974867D01*
X135179927Y-83947037D01*
X134894453Y-83915041D01*
X134620439Y-83880316D01*
X134353067Y-83841773D01*
X134087520Y-83798325D01*
X133818981Y-83748882D01*
X133542632Y-83692357D01*
X133253656Y-83627661D01*
X132947236Y-83553706D01*
X132618556Y-83469405D01*
X132262797Y-83373667D01*
X131875142Y-83265406D01*
X131450775Y-83143533D01*
X130984878Y-83006959D01*
X130875690Y-82974642D01*
X130303750Y-82808281D01*
X129774983Y-82661267D01*
X129713639Y-82645166D01*
X133382017Y-82645166D01*
X133383144Y-82717017D01*
X133412169Y-82761687D01*
X133468850Y-82782604D01*
X133509524Y-82785232D01*
X133596571Y-82770977D01*
X133684630Y-82724863D01*
X133781613Y-82641867D01*
X133850491Y-82568793D01*
X133911057Y-82490244D01*
X133974848Y-82390376D01*
X134035183Y-82281926D01*
X134085377Y-82177631D01*
X134118746Y-82090228D01*
X134128892Y-82038221D01*
X134150204Y-82013377D01*
X134199842Y-81997153D01*
X134256363Y-81992896D01*
X134298322Y-82003957D01*
X134304850Y-82010740D01*
X134315741Y-82044513D01*
X134334060Y-82119024D01*
X134357919Y-82225835D01*
X134385427Y-82356510D01*
X134412613Y-82491972D01*
X134445435Y-82655795D01*
X134471987Y-82778011D01*
X134494579Y-82866322D01*
X134515518Y-82928428D01*
X134537113Y-82972032D01*
X134561672Y-83004835D01*
X134568548Y-83012254D01*
X134656103Y-83075671D01*
X134749426Y-83096490D01*
X134837778Y-83074488D01*
X134903144Y-83019204D01*
X134949847Y-82933175D01*
X134968370Y-82825197D01*
X134959185Y-82687969D01*
X134933189Y-82556346D01*
X134897066Y-82418729D01*
X134853970Y-82277029D01*
X134807720Y-82141787D01*
X134779736Y-82069203D01*
X136259881Y-82069203D01*
X136260980Y-82225281D01*
X136269078Y-82360697D01*
X136280277Y-82441308D01*
X136339837Y-82664342D01*
X136422489Y-82848769D01*
X136526740Y-82992158D01*
X136651101Y-83092078D01*
X136692520Y-83113401D01*
X136807880Y-83146855D01*
X136947714Y-83159980D01*
X137090766Y-83152786D01*
X137215779Y-83125282D01*
X137246426Y-83113146D01*
X137355596Y-83044089D01*
X137427803Y-82956219D01*
X137456870Y-82857361D01*
X137457168Y-82846206D01*
X137441629Y-82767825D01*
X137401835Y-82709207D01*
X137348016Y-82685166D01*
X137345916Y-82685133D01*
X137303575Y-82693033D01*
X137235768Y-82712891D01*
X137206922Y-82722670D01*
X137074126Y-82756163D01*
X136966367Y-82751698D01*
X136875305Y-82708616D01*
X136858006Y-82695008D01*
X136765421Y-82594490D01*
X136692322Y-82469942D01*
X136638550Y-82328434D01*
X136603946Y-82177032D01*
X136588350Y-82022804D01*
X136591603Y-81872819D01*
X136613547Y-81734144D01*
X136654022Y-81613848D01*
X136712869Y-81518997D01*
X136789928Y-81456660D01*
X136885042Y-81433906D01*
X136886399Y-81433902D01*
X136951942Y-81445547D01*
X137031576Y-81474610D01*
X137055034Y-81485972D01*
X137147897Y-81523538D01*
X137212173Y-81522892D01*
X137251973Y-81483716D01*
X137257694Y-81470326D01*
X137261645Y-81403019D01*
X137239946Y-81316176D01*
X137208137Y-81248217D01*
X137660023Y-81248217D01*
X137668729Y-81397243D01*
X137688881Y-81585853D01*
X137717734Y-81800691D01*
X137740998Y-81967246D01*
X137764395Y-82141956D01*
X137785739Y-82308027D01*
X137802845Y-82448663D01*
X137808388Y-82497448D01*
X137824980Y-82642738D01*
X137840258Y-82746136D01*
X137858203Y-82815521D01*
X137882798Y-82858771D01*
X137918027Y-82883761D01*
X137967871Y-82898370D01*
X138015429Y-82906947D01*
X138048566Y-82905123D01*
X138116965Y-82897136D01*
X138206459Y-82884660D01*
X138215626Y-82883290D01*
X138339671Y-82861657D01*
X138478958Y-82832593D01*
X138621396Y-82799142D01*
X138754895Y-82764347D01*
X138867366Y-82731250D01*
X138946717Y-82702894D01*
X138963823Y-82694968D01*
X139030232Y-82644744D01*
X139069321Y-82583569D01*
X139074215Y-82525032D01*
X139061862Y-82501205D01*
X138999198Y-82461118D01*
X138899771Y-82449042D01*
X138761688Y-82464903D01*
X138667201Y-82485853D01*
X138520876Y-82515292D01*
X138384277Y-82529740D01*
X138316275Y-82530017D01*
X138171753Y-82522473D01*
X138154803Y-82422374D01*
X138147094Y-82362461D01*
X138137153Y-82264133D01*
X138126033Y-82138916D01*
X138114790Y-81998337D01*
X138109655Y-81928730D01*
X138090039Y-81718872D01*
X138062721Y-81518958D01*
X138029414Y-81337359D01*
X137991829Y-81182446D01*
X137951680Y-81062587D01*
X137919233Y-80998124D01*
X137861690Y-80946797D01*
X137791560Y-80934389D01*
X137742441Y-80952561D01*
X137703972Y-80990948D01*
X137677505Y-81049839D01*
X137662902Y-81134006D01*
X137660023Y-81248217D01*
X137208137Y-81248217D01*
X137199001Y-81228697D01*
X137155968Y-81170180D01*
X137045074Y-81083289D01*
X136923073Y-81040870D01*
X136796046Y-81040392D01*
X136670077Y-81079322D01*
X136551247Y-81155129D01*
X136445639Y-81265279D01*
X136359333Y-81407242D01*
X136314871Y-81520356D01*
X136293274Y-81618039D01*
X136276558Y-81751477D01*
X136265250Y-81906566D01*
X136259881Y-82069203D01*
X134779736Y-82069203D01*
X134762133Y-82023546D01*
X134721028Y-81932847D01*
X134688376Y-81880400D01*
X134670690Y-81860675D01*
X134661916Y-81842948D01*
X134666208Y-81820586D01*
X134687719Y-81786956D01*
X134730604Y-81735425D01*
X134799017Y-81659358D01*
X134887101Y-81563069D01*
X135021009Y-81408530D01*
X135116268Y-81279060D01*
X135175141Y-81170896D01*
X135199893Y-81080280D01*
X135200373Y-81042572D01*
X135190897Y-80978923D01*
X135168071Y-80949569D01*
X135119104Y-80938760D01*
X135115810Y-80938430D01*
X135038583Y-80951872D01*
X134934840Y-81002856D01*
X134808198Y-81088967D01*
X134662276Y-81207788D01*
X134526823Y-81331709D01*
X134323860Y-81525872D01*
X134339050Y-81436094D01*
X134347734Y-81374880D01*
X134359580Y-81278069D01*
X134372912Y-81159875D01*
X134383908Y-81055698D01*
X134396177Y-80926688D01*
X134396970Y-80913519D01*
X138838865Y-80913519D01*
X138842456Y-80992973D01*
X138854230Y-81055765D01*
X138878042Y-81155901D01*
X138910959Y-81282967D01*
X138950051Y-81426550D01*
X138992384Y-81576236D01*
X139035027Y-81721610D01*
X139075047Y-81852260D01*
X139109512Y-81957771D01*
X139130058Y-82014416D01*
X139174230Y-82090936D01*
X139245017Y-82178381D01*
X139327174Y-82260244D01*
X139405457Y-82320016D01*
X139419721Y-82328082D01*
X139577948Y-82387629D01*
X139738212Y-82405955D01*
X139889088Y-82382417D01*
X139950750Y-82358055D01*
X140047521Y-82284101D01*
X140127741Y-82165425D01*
X140189543Y-82005150D01*
X140210137Y-81923555D01*
X140219290Y-81830563D01*
X140216873Y-81700845D01*
X140204572Y-81545937D01*
X140184073Y-81377377D01*
X140157062Y-81206700D01*
X140125223Y-81045443D01*
X140090243Y-80905143D01*
X140053808Y-80797335D01*
X140041699Y-80770749D01*
X139975537Y-80665622D01*
X139903534Y-80595735D01*
X139831869Y-80564136D01*
X139766720Y-80573873D01*
X139723316Y-80613657D01*
X139692410Y-80686101D01*
X139688104Y-80782519D01*
X139710382Y-80910893D01*
X139722687Y-80958434D01*
X139760298Y-81117091D01*
X139790760Y-81287956D01*
X139813342Y-81461425D01*
X139827319Y-81627892D01*
X139831960Y-81777755D01*
X139826539Y-81901408D01*
X139810327Y-81989247D01*
X139802326Y-82009052D01*
X139744166Y-82075152D01*
X139663789Y-82101256D01*
X139573630Y-82083486D01*
X139569663Y-82081650D01*
X139527123Y-82053710D01*
X139488126Y-82009053D01*
X139450458Y-81942268D01*
X139411902Y-81847946D01*
X139370242Y-81720676D01*
X139323263Y-81555047D01*
X139269638Y-81349164D01*
X139218366Y-81154154D01*
X139173774Y-81003276D01*
X139133388Y-80891456D01*
X139094736Y-80813620D01*
X139055347Y-80764695D01*
X139012748Y-80739605D01*
X138969510Y-80733212D01*
X138901437Y-80755027D01*
X138857017Y-80816911D01*
X138838865Y-80913519D01*
X134396970Y-80913519D01*
X134401702Y-80834978D01*
X134400047Y-80768217D01*
X134390775Y-80714055D01*
X134373447Y-80660140D01*
X134369535Y-80649759D01*
X134321034Y-80557442D01*
X134267647Y-80492791D01*
X140351614Y-80492791D01*
X140359703Y-80542798D01*
X140378495Y-80616717D01*
X140409289Y-80722257D01*
X140453386Y-80867124D01*
X140458755Y-80884649D01*
X140508630Y-81049190D01*
X140560850Y-81224448D01*
X140610382Y-81393341D01*
X140652192Y-81538788D01*
X140666386Y-81589307D01*
X140703376Y-81717300D01*
X140732449Y-81804053D01*
X140756890Y-81857105D01*
X140779982Y-81883996D01*
X140797956Y-81891455D01*
X140889443Y-81893188D01*
X141009943Y-81873556D01*
X141085739Y-81853584D01*
X141233461Y-81796225D01*
X141376963Y-81716781D01*
X141504197Y-81623737D01*
X141603116Y-81525582D01*
X141650414Y-81455793D01*
X141678634Y-81359595D01*
X141683262Y-81240315D01*
X141664840Y-81118712D01*
X141639660Y-81045805D01*
X141595552Y-80972523D01*
X141533688Y-80898009D01*
X141466104Y-80834097D01*
X141404831Y-80792617D01*
X141372652Y-80783261D01*
X141348953Y-80782704D01*
X141339534Y-80773372D01*
X141344718Y-80743771D01*
X141364832Y-80682408D01*
X141376475Y-80648322D01*
X141404713Y-80513914D01*
X141403561Y-80376751D01*
X141374392Y-80253905D01*
X141339477Y-80187573D01*
X141266169Y-80120602D01*
X141164033Y-80088378D01*
X141028728Y-80089714D01*
X140997522Y-80093870D01*
X140916682Y-80115137D01*
X140812545Y-80155235D01*
X140697414Y-80207899D01*
X140583593Y-80266860D01*
X140483383Y-80325850D01*
X140409089Y-80378604D01*
X140378568Y-80409181D01*
X140362347Y-80433690D01*
X140352929Y-80458991D01*
X140351614Y-80492791D01*
X134267647Y-80492791D01*
X134255966Y-80478645D01*
X134185911Y-80425017D01*
X134129019Y-80407892D01*
X134060192Y-80417555D01*
X134007135Y-80450306D01*
X133967120Y-80511785D01*
X133937423Y-80607634D01*
X133915318Y-80743494D01*
X133901824Y-80878091D01*
X133880225Y-81115765D01*
X133857398Y-81313653D01*
X133830671Y-81481999D01*
X133797369Y-81631045D01*
X133754821Y-81771035D01*
X133700352Y-81912211D01*
X133631291Y-82064816D01*
X133548435Y-82232262D01*
X133464422Y-82406216D01*
X133409029Y-82542708D01*
X133382017Y-82645166D01*
X129713639Y-82645166D01*
X129286622Y-82533087D01*
X128835901Y-82423225D01*
X128420052Y-82331168D01*
X128036309Y-82256403D01*
X127681906Y-82198413D01*
X127354075Y-82156687D01*
X127050050Y-82130709D01*
X126767064Y-82119965D01*
X126502350Y-82123942D01*
X126348453Y-82133393D01*
X126214296Y-82144686D01*
X126094521Y-82155864D01*
X125999669Y-82165863D01*
X125940282Y-82173617D01*
X125929400Y-82175706D01*
X125901618Y-82189176D01*
X125880272Y-82220329D01*
X125861327Y-82278990D01*
X125840745Y-82374988D01*
X125834915Y-82405734D01*
X125790808Y-82668966D01*
X125750185Y-82963369D01*
X125714380Y-83275101D01*
X125684727Y-83590318D01*
X125662562Y-83895177D01*
X125649216Y-84175834D01*
X125645790Y-84368040D01*
X125645542Y-84637054D01*
X125366578Y-84637054D01*
X125087613Y-84637054D01*
X125104755Y-84393064D01*
X125147647Y-83944662D01*
X125214188Y-83467205D01*
X125301676Y-82974190D01*
X125407407Y-82479111D01*
X125528678Y-81995464D01*
X125624297Y-81668396D01*
X130007310Y-81668396D01*
X130037402Y-81722663D01*
X130056834Y-81743429D01*
X130129367Y-81786020D01*
X130212452Y-81780977D01*
X130304454Y-81729206D01*
X130403739Y-81631615D01*
X130505174Y-81494465D01*
X130559908Y-81412520D01*
X130598136Y-81364514D01*
X130630776Y-81342517D01*
X130668746Y-81338601D01*
X130713030Y-81343522D01*
X130797147Y-81354202D01*
X130900809Y-81366701D01*
X130957020Y-81373224D01*
X131034063Y-81382539D01*
X131086117Y-81389859D01*
X131100498Y-81392992D01*
X131093270Y-81416668D01*
X131073930Y-81478501D01*
X131045478Y-81568933D01*
X131013055Y-81671636D01*
X130978297Y-81785297D01*
X130950111Y-81884543D01*
X130931631Y-81957869D01*
X130925883Y-81991837D01*
X130943469Y-82039937D01*
X130985779Y-82095620D01*
X131036773Y-82141351D01*
X131079361Y-82159616D01*
X131119097Y-82149330D01*
X131183731Y-82123355D01*
X131215341Y-82108687D01*
X131303518Y-82052076D01*
X131375078Y-81972073D01*
X131434638Y-81861060D01*
X131486812Y-81711420D01*
X131507725Y-81633987D01*
X132007144Y-81633987D01*
X132018824Y-81859355D01*
X132059546Y-82068555D01*
X132118679Y-82228610D01*
X132203438Y-82360694D01*
X132320724Y-82461243D01*
X132476970Y-82535693D01*
X132485586Y-82538712D01*
X132613753Y-82574515D01*
X132717152Y-82581784D01*
X132811479Y-82561445D01*
X132819726Y-82558418D01*
X132923233Y-82500049D01*
X132995135Y-82419693D01*
X133026982Y-82327435D01*
X133027808Y-82310087D01*
X133015892Y-82224690D01*
X132975197Y-82177032D01*
X132898305Y-82159587D01*
X132878912Y-82159066D01*
X132763249Y-82140853D01*
X132654522Y-82093393D01*
X132569279Y-82025354D01*
X132537262Y-81980154D01*
X132499979Y-81868998D01*
X132482392Y-81724713D01*
X132484733Y-81560278D01*
X132507230Y-81388672D01*
X132525302Y-81307388D01*
X132570099Y-81159471D01*
X132628225Y-81008139D01*
X132694596Y-80863464D01*
X132764131Y-80735520D01*
X132831747Y-80634379D01*
X132892362Y-80570113D01*
X132900130Y-80564546D01*
X132973728Y-80523019D01*
X133034405Y-80512993D01*
X133097756Y-80536179D01*
X133179374Y-80594288D01*
X133180691Y-80595334D01*
X133276270Y-80658724D01*
X133354064Y-80679620D01*
X133421213Y-80658927D01*
X133456089Y-80630252D01*
X133487355Y-80589721D01*
X133500435Y-80539513D01*
X133499295Y-80461662D01*
X133497737Y-80441529D01*
X133470750Y-80309911D01*
X133409433Y-80205663D01*
X133306010Y-80115681D01*
X133303334Y-80113852D01*
X133208841Y-80073874D01*
X133084842Y-80055308D01*
X132947034Y-80058085D01*
X132811114Y-80082131D01*
X132714493Y-80116538D01*
X132567253Y-80210993D01*
X132432741Y-80347113D01*
X132312996Y-80517670D01*
X132210056Y-80715434D01*
X132125962Y-80933177D01*
X132062752Y-81163670D01*
X132022466Y-81399683D01*
X132007144Y-81633987D01*
X131507725Y-81633987D01*
X131511540Y-81619862D01*
X131579523Y-81320081D01*
X131632182Y-81025079D01*
X131669308Y-80740491D01*
X131690691Y-80471955D01*
X131696124Y-80225107D01*
X131685397Y-80005583D01*
X131658303Y-79819020D01*
X131614631Y-79671053D01*
X131585859Y-79612183D01*
X131518057Y-79519191D01*
X131445967Y-79471710D01*
X131360542Y-79465432D01*
X131304307Y-79478066D01*
X131218961Y-79518774D01*
X131133146Y-79591927D01*
X131043485Y-79701585D01*
X130946599Y-79851803D01*
X130853081Y-80020010D01*
X130796313Y-80126306D01*
X130720570Y-80266343D01*
X130631288Y-80430171D01*
X130533901Y-80607839D01*
X130433846Y-80789394D01*
X130359916Y-80922862D01*
X130271004Y-81084748D01*
X130189834Y-81235914D01*
X130119772Y-81369823D01*
X130064182Y-81479935D01*
X130026431Y-81559714D01*
X130009882Y-81602621D01*
X130009777Y-81603124D01*
X130007310Y-81668396D01*
X125624297Y-81668396D01*
X125662786Y-81536744D01*
X125700028Y-81421389D01*
X125824383Y-81064676D01*
X125857235Y-80978168D01*
X127726872Y-80978168D01*
X127739244Y-81075656D01*
X127771780Y-81139862D01*
X127842188Y-81195358D01*
X127931657Y-81206507D01*
X128042322Y-81173455D01*
X128070042Y-81160105D01*
X128151357Y-81108768D01*
X128226230Y-81038011D01*
X128300658Y-80940280D01*
X128380635Y-80808018D01*
X128444438Y-80688304D01*
X128574728Y-80434656D01*
X128768017Y-80506831D01*
X128877911Y-80547941D01*
X128987126Y-80588918D01*
X129073647Y-80621503D01*
X129080173Y-80623970D01*
X129148096Y-80655449D01*
X129191122Y-80686514D01*
X129199040Y-80700981D01*
X129194067Y-80736907D01*
X129180535Y-80810880D01*
X129160521Y-80912038D01*
X129136607Y-81027159D01*
X129102384Y-81197627D01*
X129081843Y-81327166D01*
X129075060Y-81423008D01*
X129082109Y-81492387D01*
X129103063Y-81542538D01*
X129137998Y-81580695D01*
X129142340Y-81584189D01*
X129225233Y-81622910D01*
X129317438Y-81614535D01*
X129421278Y-81558711D01*
X129449185Y-81537414D01*
X129519878Y-81467291D01*
X129582022Y-81384493D01*
X129591094Y-81369103D01*
X129624335Y-81296718D01*
X129666985Y-81184891D01*
X129716919Y-81040927D01*
X129772016Y-80872134D01*
X129830151Y-80685818D01*
X129889203Y-80489284D01*
X129947048Y-80289839D01*
X130001563Y-80094790D01*
X130050626Y-79911443D01*
X130092113Y-79747104D01*
X130123901Y-79609079D01*
X130143868Y-79504675D01*
X130149976Y-79445672D01*
X130128782Y-79346500D01*
X130072664Y-79266518D01*
X129992818Y-79213112D01*
X129900439Y-79193672D01*
X129806723Y-79215585D01*
X129803667Y-79217135D01*
X129758772Y-79243848D01*
X129718385Y-79278159D01*
X129677996Y-79326802D01*
X129633093Y-79396513D01*
X129579164Y-79494027D01*
X129511696Y-79626078D01*
X129460567Y-79729310D01*
X129399755Y-79849760D01*
X129344974Y-79952384D01*
X129300526Y-80029572D01*
X129270713Y-80073712D01*
X129261677Y-80081169D01*
X129229039Y-80071880D01*
X129161092Y-80047953D01*
X129068966Y-80013411D01*
X128998843Y-79986170D01*
X128891272Y-79942812D01*
X128822629Y-79911247D01*
X128784861Y-79886020D01*
X128769911Y-79861677D01*
X128769726Y-79832761D01*
X128769950Y-79831168D01*
X128774024Y-79780177D01*
X128777728Y-79693488D01*
X128780528Y-79585454D01*
X128781518Y-79519517D01*
X128780989Y-79393883D01*
X128774648Y-79302519D01*
X128760203Y-79229770D01*
X128735361Y-79159979D01*
X128725554Y-79137314D01*
X128653061Y-79009520D01*
X128570699Y-78925382D01*
X128482149Y-78886367D01*
X128391092Y-78893942D01*
X128301208Y-78949575D01*
X128287493Y-78962719D01*
X128245705Y-79011190D01*
X128215364Y-79066293D01*
X128190898Y-79141770D01*
X128166740Y-79251364D01*
X128163247Y-79269271D01*
X128116849Y-79488517D01*
X128058522Y-79732025D01*
X127992859Y-79982458D01*
X127924454Y-80222478D01*
X127857902Y-80434747D01*
X127841926Y-80481926D01*
X127777820Y-80685002D01*
X127739600Y-80849183D01*
X127726872Y-80978168D01*
X125857235Y-80978168D01*
X125971143Y-80678214D01*
X126135147Y-80274031D01*
X126311236Y-79864152D01*
X126494249Y-79460604D01*
X126679025Y-79075413D01*
X126852498Y-78735541D01*
X126948751Y-78555410D01*
X127026409Y-78415628D01*
X127088816Y-78311556D01*
X127139315Y-78238559D01*
X127181248Y-78191998D01*
X127217959Y-78167237D01*
X127252790Y-78159640D01*
X127267159Y-78160392D01*
X127319947Y-78179355D01*
X127332034Y-78207153D01*
X127338847Y-78222795D01*
X127367420Y-78223551D01*
X127425310Y-78207928D01*
X127520072Y-78174430D01*
X127545383Y-78164978D01*
X127880383Y-78061564D01*
X128251385Y-77988525D01*
X128654596Y-77945886D01*
X129086221Y-77933672D01*
X129542468Y-77951906D01*
G37*
D13*
%TO.C,D3*%
X115561250Y-101385000D02*
X115561250Y-105625000D01*
X115561250Y-105625000D02*
X117801250Y-105625000D01*
X116681250Y-100735000D02*
X116681250Y-101385000D01*
X116681250Y-106275000D02*
X116681250Y-105625000D01*
X117801250Y-101385000D02*
X115561250Y-101385000D01*
X117801250Y-101985000D02*
X115561250Y-101985000D01*
X117801250Y-102105000D02*
X115561250Y-102105000D01*
X117801250Y-102225000D02*
X115561250Y-102225000D01*
X117801250Y-105625000D02*
X117801250Y-101385000D01*
%TO.C,D9*%
X184427000Y-79795000D02*
X184427000Y-84035000D01*
X184427000Y-84035000D02*
X186667000Y-84035000D01*
X185547000Y-79145000D02*
X185547000Y-79795000D01*
X185547000Y-84685000D02*
X185547000Y-84035000D01*
X186667000Y-79795000D02*
X184427000Y-79795000D01*
X186667000Y-80395000D02*
X184427000Y-80395000D01*
X186667000Y-80515000D02*
X184427000Y-80515000D01*
X186667000Y-80635000D02*
X184427000Y-80635000D01*
X186667000Y-84035000D02*
X186667000Y-79795000D01*
%TD*%
%LPC*%
D18*
%TO.C,D4*%
X110331250Y-99695000D03*
D19*
X110331250Y-107315000D03*
%TD*%
D20*
%TO.C,U1*%
X103511000Y-75565000D03*
D21*
X103511000Y-78105000D03*
X103511000Y-80645000D03*
X103511000Y-83185000D03*
X103511000Y-85725000D03*
X103511000Y-88265000D03*
X103511000Y-90805000D03*
X120761000Y-90805000D03*
X120761000Y-88265000D03*
X120761000Y-85725000D03*
D22*
X120761000Y-83185000D03*
X120761000Y-80645000D03*
X120761000Y-78105000D03*
X120761000Y-75565000D03*
%TD*%
D18*
%TO.C,D1*%
X113506250Y-99695000D03*
D19*
X113506250Y-107315000D03*
%TD*%
D23*
%TO.C,J1*%
X151511000Y-78232000D03*
D24*
X151511000Y-80772000D03*
X151511000Y-83312000D03*
X151511000Y-85852000D03*
%TD*%
D25*
%TO.C,SW4*%
X156658000Y-119475250D03*
D26*
X161738000Y-119475250D03*
D25*
X166818000Y-119475250D03*
%TD*%
%TO.C,SW5*%
X175835000Y-119475250D03*
D26*
X180915000Y-119475250D03*
D25*
X185995000Y-119475250D03*
%TD*%
D27*
%TO.C,D6*%
X144145000Y-98296000D03*
X144145000Y-94996000D03*
X139245000Y-94996000D03*
X139245000Y-98296000D03*
%TD*%
D18*
%TO.C,D2*%
X107156250Y-99695000D03*
D19*
X107156250Y-107315000D03*
%TD*%
D28*
%TO.C,ENCODER*%
X173669000Y-97365750D03*
D29*
X173669000Y-102365750D03*
X173669000Y-99865750D03*
D30*
X181169000Y-94265750D03*
X181169000Y-105465750D03*
D29*
X188169000Y-102365750D03*
X188169000Y-97365750D03*
%TD*%
D31*
%TO.C,REF\u002A\u002A*%
X140397000Y-104072750D03*
%TD*%
D18*
%TO.C,D3*%
X116681250Y-99695000D03*
D19*
X116681250Y-107315000D03*
%TD*%
D18*
%TO.C,D9*%
X185547000Y-78105000D03*
D19*
X185547000Y-85725000D03*
%TD*%
D25*
%TO.C,SW3*%
X137608000Y-119520000D03*
D26*
X142688000Y-119520000D03*
D25*
X147768000Y-119520000D03*
%TD*%
%TO.C,SW2*%
X156718000Y-100330000D03*
D26*
X161798000Y-100330000D03*
D25*
X166878000Y-100330000D03*
%TD*%
%LPD*%
M02*
