M48
METRIC,TZ
T1C1.500
T2C5.100
%
G90
G05
T2
X41425Y-41425
X41425Y-60475
X41425Y-79525
X41425Y-98575
X60475Y-79525
X60475Y-98575
X79525Y-79525
X79525Y-98575
X98575Y-41425
X98575Y-60475
X98575Y-79525
X98575Y-98575
T1
G00X36425Y-46825
M15
G01X36425Y-46325
M16
G05
G00X36425Y-65875
M15
G01X36425Y-65375
M16
G05
G00X36425Y-84925
M15
G01X36425Y-84425
M16
G05
G00X36425Y-103975
M15
G01X36425Y-103475
M16
G05
G00X55475Y-84925
M15
G01X55475Y-84425
M16
G05
G00X55475Y-103975
M15
G01X55475Y-103475
M16
G05
G00X74525Y-84925
M15
G01X74525Y-84425
M16
G05
G00X74525Y-103975
M15
G01X74525Y-103475
M16
G05
G00X93575Y-46825
M15
G01X93575Y-46325
M16
G05
G00X93575Y-65875
M15
G01X93575Y-65375
M16
G05
G00X93575Y-84925
M15
G01X93575Y-84425
M16
G05
G00X93575Y-103975
M15
G01X93575Y-103475
M16
G05
M30
