%TF.GenerationSoftware,KiCad,Pcbnew,8.0.5-dirty*%
%TF.CreationDate,2024-10-05T14:38:15-04:00*%
%TF.ProjectId,cool-keyboard,636f6f6c-2d6b-4657-9962-6f6172642e6b,rev?*%
%TF.SameCoordinates,Original*%
%TF.FileFunction,Copper,L2,Bot*%
%TF.FilePolarity,Positive*%
%FSLAX46Y46*%
G04 Gerber Fmt 4.6, Leading zero omitted, Abs format (unit mm)*
G04 Created by KiCad (PCBNEW 8.0.5-dirty) date 2024-10-05 14:38:15*
%MOMM*%
%LPD*%
G01*
G04 APERTURE LIST*
%TA.AperFunction,ComponentPad*%
%ADD10C,2.300000*%
%TD*%
%TA.AperFunction,ComponentPad*%
%ADD11O,1.600000X2.000000*%
%TD*%
%TA.AperFunction,ComponentPad*%
%ADD12R,1.800000X1.800000*%
%TD*%
%TA.AperFunction,ComponentPad*%
%ADD13O,1.800000X1.800000*%
%TD*%
%TA.AperFunction,ComponentPad*%
%ADD14C,1.400000*%
%TD*%
%TA.AperFunction,ComponentPad*%
%ADD15O,1.400000X1.400000*%
%TD*%
%TA.AperFunction,ComponentPad*%
%ADD16R,1.600000X1.600000*%
%TD*%
%TA.AperFunction,ComponentPad*%
%ADD17C,1.600000*%
%TD*%
%TA.AperFunction,ViaPad*%
%ADD18C,0.600000*%
%TD*%
%TA.AperFunction,Conductor*%
%ADD19C,0.200000*%
%TD*%
G04 APERTURE END LIST*
D10*
%TO.P,SW7,1,1*%
%TO.N,COL2*%
X152114300Y-106267200D03*
%TO.P,SW7,2,2*%
%TO.N,Net-(D7-A)*%
X158464300Y-103727200D03*
%TD*%
%TO.P,SW3,1,1*%
%TO.N,COL2*%
X152114300Y-87217200D03*
%TO.P,SW3,2,2*%
%TO.N,Net-(D3-A)*%
X158464300Y-84677200D03*
%TD*%
D11*
%TO.P,Brd1,1,GND*%
%TO.N,GND*%
X168673000Y-53662000D03*
%TO.P,Brd1,2,VCC*%
%TO.N,SCR3V3*%
X171213000Y-53662000D03*
%TO.P,Brd1,3,SCL*%
%TO.N,Net-(Brd1-SCL)*%
X173753000Y-53662000D03*
%TO.P,Brd1,4,SDA*%
%TO.N,Net-(Brd1-SDA)*%
X176293000Y-53662000D03*
%TD*%
D10*
%TO.P,SW6,1,1*%
%TO.N,COL1*%
X133064300Y-106267200D03*
%TO.P,SW6,2,2*%
%TO.N,Net-(D6-A)*%
X139414300Y-103727200D03*
%TD*%
%TO.P,SW4,1,1*%
%TO.N,COL3*%
X171164300Y-87217200D03*
%TO.P,SW4,2,2*%
%TO.N,Net-(D4-A)*%
X177514300Y-84677200D03*
%TD*%
%TO.P,SW5,1,1*%
%TO.N,COL0*%
X114014300Y-106267200D03*
%TO.P,SW5,2,2*%
%TO.N,Net-(D5-A)*%
X120364300Y-103727200D03*
%TD*%
%TO.P,SW10,1,1*%
%TO.N,COL2*%
X152114300Y-125317200D03*
%TO.P,SW10,2,2*%
%TO.N,Net-(D10-A)*%
X158464300Y-122777200D03*
%TD*%
%TO.P,SW9,1,1*%
%TO.N,COL1*%
X133064300Y-125317200D03*
%TO.P,SW9,2,2*%
%TO.N,Net-(D9-A)*%
X139414300Y-122777200D03*
%TD*%
%TO.P,SW1,1,1*%
%TO.N,COL0*%
X114014300Y-87217200D03*
%TO.P,SW1,2,2*%
%TO.N,Net-(D1-A)*%
X120364300Y-84677200D03*
%TD*%
%TO.P,SW2,1,1*%
%TO.N,COL1*%
X133064300Y-87217200D03*
%TO.P,SW2,2,2*%
%TO.N,Net-(D2-A)*%
X139414300Y-84677200D03*
%TD*%
%TO.P,SW8,1,1*%
%TO.N,COL3*%
X171164300Y-106267200D03*
%TO.P,SW8,2,2*%
%TO.N,Net-(D8-A)*%
X177514300Y-103727200D03*
%TD*%
D12*
%TO.P,D9,1,K*%
%TO.N,ROW2*%
X152304700Y-77184200D03*
D13*
%TO.P,D9,2,A*%
%TO.N,Net-(D9-A)*%
X142144700Y-77184200D03*
%TD*%
D12*
%TO.P,D6,1,K*%
%TO.N,ROW1*%
X136588500Y-63373000D03*
D13*
%TO.P,D6,2,A*%
%TO.N,Net-(D6-A)*%
X136588500Y-73533000D03*
%TD*%
D12*
%TO.P,D10,1,K*%
%TO.N,ROW2*%
X138811000Y-77184200D03*
D13*
%TO.P,D10,2,A*%
%TO.N,Net-(D10-A)*%
X128651000Y-77184200D03*
%TD*%
D12*
%TO.P,D3,1,K*%
%TO.N,ROW0*%
X148494700Y-63373000D03*
D13*
%TO.P,D3,2,A*%
%TO.N,Net-(D3-A)*%
X148494700Y-73533000D03*
%TD*%
D14*
%TO.P,R1,1*%
%TO.N,Net-(Brd1-SCL)*%
X155067000Y-59182000D03*
D15*
%TO.P,R1,2*%
%TO.N,SCR3V3*%
X155067000Y-54102000D03*
%TD*%
D12*
%TO.P,D4,1,K*%
%TO.N,ROW0*%
X144526000Y-63373000D03*
D13*
%TO.P,D4,2,A*%
%TO.N,Net-(D4-A)*%
X144526000Y-73533000D03*
%TD*%
D12*
%TO.P,D1,1,K*%
%TO.N,ROW0*%
X156432200Y-63373000D03*
D13*
%TO.P,D1,2,A*%
%TO.N,Net-(D1-A)*%
X156432200Y-73533000D03*
%TD*%
D14*
%TO.P,R2,1*%
%TO.N,Net-(Brd1-SDA)*%
X151917000Y-59182000D03*
D15*
%TO.P,R2,2*%
%TO.N,SCR3V3*%
X151917000Y-54102000D03*
%TD*%
D12*
%TO.P,D2,1,K*%
%TO.N,ROW0*%
X152463500Y-63373000D03*
D13*
%TO.P,D2,2,A*%
%TO.N,Net-(D2-A)*%
X152463500Y-73533000D03*
%TD*%
D12*
%TO.P,D7,1,K*%
%TO.N,ROW1*%
X132619700Y-63373000D03*
D13*
%TO.P,D7,2,A*%
%TO.N,Net-(D7-A)*%
X132619700Y-73533000D03*
%TD*%
D16*
%TO.P,U2,1,PA02_A0_D0*%
%TO.N,COL0*%
X125222000Y-55183000D03*
D17*
%TO.P,U2,2,PA4_A1_D1*%
%TO.N,COL1*%
X125222000Y-57723000D03*
%TO.P,U2,3,PA10_A2_D2*%
%TO.N,COL2*%
X125222000Y-60263000D03*
%TO.P,U2,4,PA11_A3_D3*%
%TO.N,COL3*%
X125222000Y-62803000D03*
%TO.P,U2,5,PA8_A4_D4_SDA*%
%TO.N,Net-(Brd1-SDA)*%
X125222000Y-65343000D03*
%TO.P,U2,6,PA9_A5_D5_SCL*%
%TO.N,Net-(Brd1-SCL)*%
X125222000Y-67883000D03*
%TO.P,U2,7,PB08_A6_D6_TX*%
%TO.N,unconnected-(U2-PB08_A6_D6_TX-Pad7)*%
X125222000Y-70423000D03*
%TO.P,U2,8,PB09_A7_D7_RX*%
%TO.N,ROW0*%
X109982000Y-70423000D03*
%TO.P,U2,9,PA7_A8_D8_SCK*%
%TO.N,ROW1*%
X109982000Y-67883000D03*
%TO.P,U2,10,PA5_A9_D9_MISO*%
%TO.N,ROW2*%
X109982000Y-65343000D03*
%TO.P,U2,11,PA6_A10_D10_MOSI*%
%TO.N,unconnected-(U2-PA6_A10_D10_MOSI-Pad11)*%
X109982000Y-62803000D03*
%TO.P,U2,12,3V3*%
%TO.N,SCR3V3*%
X109982000Y-60263000D03*
%TO.P,U2,13,GND*%
%TO.N,GND*%
X109982000Y-57723000D03*
%TO.P,U2,14,5V*%
%TO.N,+5V*%
X109982000Y-55183000D03*
%TD*%
D12*
%TO.P,D5,1,K*%
%TO.N,ROW1*%
X140557200Y-63373000D03*
D13*
%TO.P,D5,2,A*%
%TO.N,Net-(D5-A)*%
X140557200Y-73533000D03*
%TD*%
D12*
%TO.P,D8,1,K*%
%TO.N,ROW1*%
X128651000Y-63373000D03*
D13*
%TO.P,D8,2,A*%
%TO.N,Net-(D8-A)*%
X128651000Y-73533000D03*
%TD*%
D18*
%TO.N,Net-(D1-A)*%
X154844700Y-76186300D03*
%TO.N,Net-(D5-A)*%
X139013700Y-81558500D03*
%TO.N,Net-(D7-A)*%
X136497900Y-79445500D03*
%TO.N,Net-(D8-A)*%
X135564300Y-78923000D03*
%TD*%
D19*
%TO.N,ROW0*%
X152463500Y-63373000D02*
X148494700Y-63373000D01*
X156432200Y-63373000D02*
X152463500Y-63373000D01*
%TO.N,Net-(D1-A)*%
X126566200Y-78475300D02*
X120364300Y-84677200D01*
X136347000Y-78398200D02*
X136270100Y-78321300D01*
X154844700Y-76873200D02*
X153319700Y-78398200D01*
X135315200Y-78321300D02*
X135161200Y-78475300D01*
X153319700Y-78398200D02*
X136347000Y-78398200D01*
X154844700Y-76186300D02*
X154844700Y-76873200D01*
X135161200Y-78475300D02*
X126566200Y-78475300D01*
X136270100Y-78321300D02*
X135315200Y-78321300D01*
%TO.N,Net-(D4-A)*%
X145727700Y-73533000D02*
X146929400Y-74734700D01*
X144526000Y-73533000D02*
X145727700Y-73533000D01*
X167571800Y-74734700D02*
X177514300Y-84677200D01*
X146929400Y-74734700D02*
X167571800Y-74734700D01*
%TO.N,Net-(D5-A)*%
X133526200Y-89237400D02*
X137793400Y-84970200D01*
X133526200Y-90565300D02*
X133526200Y-89237400D01*
X137793400Y-82778800D02*
X139013700Y-81558500D01*
X120364300Y-103727200D02*
X133526200Y-90565300D01*
X137793400Y-84970200D02*
X137793400Y-82778800D01*
%TO.N,ROW1*%
X140557200Y-63373000D02*
X136588500Y-63373000D01*
X132619700Y-63373000D02*
X136588500Y-63373000D01*
X111455000Y-64073000D02*
X113834300Y-61693700D01*
X113834300Y-61693700D02*
X125770000Y-61693700D01*
X128651000Y-63373000D02*
X127449300Y-63373000D01*
X132619700Y-63373000D02*
X128651000Y-63373000D01*
X125770000Y-61693700D02*
X127449300Y-63373000D01*
X109660800Y-64073000D02*
X111455000Y-64073000D01*
X108872600Y-66773600D02*
X108872600Y-64861200D01*
X108872600Y-64861200D02*
X109660800Y-64073000D01*
X109982000Y-67883000D02*
X108872600Y-66773600D01*
%TO.N,Net-(D7-A)*%
X137787400Y-79445500D02*
X158464300Y-100122400D01*
X158464300Y-100122400D02*
X158464300Y-103727200D01*
X136497900Y-79445500D02*
X137787400Y-79445500D01*
%TO.N,Net-(D8-A)*%
X135643500Y-78843800D02*
X135564300Y-78923000D01*
X177514300Y-103727200D02*
X162830700Y-103727200D01*
X137947300Y-78843800D02*
X135643500Y-78843800D01*
X162830700Y-103727200D02*
X137947300Y-78843800D01*
%TO.N,ROW2*%
X140012700Y-77184200D02*
X141214400Y-75982500D01*
X109982000Y-65343000D02*
X120621500Y-75982500D01*
X152304700Y-77184200D02*
X151103000Y-77184200D01*
X136407600Y-75982500D02*
X137609300Y-77184200D01*
X138811000Y-77184200D02*
X137609300Y-77184200D01*
X141214400Y-75982500D02*
X149901300Y-75982500D01*
X149901300Y-75982500D02*
X151103000Y-77184200D01*
X120621500Y-75982500D02*
X136407600Y-75982500D01*
X138811000Y-77184200D02*
X140012700Y-77184200D01*
%TO.N,COL2*%
X152283300Y-125148200D02*
X152283300Y-106436200D01*
X152283300Y-106436200D02*
X152114300Y-106267200D01*
X152114300Y-125317200D02*
X152283300Y-125148200D01*
%TO.N,COL3*%
X124905900Y-69153000D02*
X124115800Y-68362900D01*
X124115800Y-63909200D02*
X125222000Y-62803000D01*
X136083700Y-75294700D02*
X129942000Y-69153000D01*
X171164300Y-87217200D02*
X159241800Y-75294700D01*
X159241800Y-75294700D02*
X136083700Y-75294700D01*
X129942000Y-69153000D02*
X124905900Y-69153000D01*
X124115800Y-68362900D02*
X124115800Y-63909200D01*
%TO.N,Net-(Brd1-SCL)*%
X147293000Y-62848200D02*
X142258200Y-67883000D01*
X155067000Y-59182000D02*
X152930000Y-61319000D01*
X173753000Y-53662000D02*
X172651300Y-53662000D01*
X148310500Y-61319000D02*
X147293000Y-62336500D01*
X142258200Y-67883000D02*
X125222000Y-67883000D01*
X147293000Y-62336500D02*
X147293000Y-62848200D01*
X172651300Y-53990300D02*
X167459600Y-59182000D01*
X167459600Y-59182000D02*
X155067000Y-59182000D01*
X172651300Y-53662000D02*
X172651300Y-53990300D01*
X152930000Y-61319000D02*
X148310500Y-61319000D01*
%TO.N,GND*%
X111727900Y-56545000D02*
X164688300Y-56545000D01*
X110549900Y-57723000D02*
X111727900Y-56545000D01*
X164688300Y-56545000D02*
X167571300Y-53662000D01*
X109982000Y-57723000D02*
X110549900Y-57723000D01*
X168673000Y-53662000D02*
X167571300Y-53662000D01*
%TO.N,Net-(Brd1-SDA)*%
X146479100Y-59182000D02*
X151917000Y-59182000D01*
X141810600Y-64399000D02*
X141810600Y-63850500D01*
X140866600Y-65343000D02*
X141810600Y-64399000D01*
X141810600Y-63850500D02*
X146479100Y-59182000D01*
X125222000Y-65343000D02*
X140866600Y-65343000D01*
%TO.N,SCR3V3*%
X157819600Y-52351100D02*
X169128700Y-52351100D01*
X155067000Y-54102000D02*
X151917000Y-54102000D01*
X171213000Y-53662000D02*
X170111300Y-53662000D01*
X169128700Y-52351100D02*
X170111300Y-53333700D01*
X150894600Y-54081300D02*
X150915300Y-54102000D01*
X109488700Y-56621300D02*
X110947500Y-56621300D01*
X113487500Y-54081300D02*
X150894600Y-54081300D01*
X108877400Y-57232600D02*
X109488700Y-56621300D01*
X151917000Y-54102000D02*
X150915300Y-54102000D01*
X109982000Y-60263000D02*
X108877400Y-59158400D01*
X156068700Y-54102000D02*
X157819600Y-52351100D01*
X110947500Y-56621300D02*
X113487500Y-54081300D01*
X108877400Y-59158400D02*
X108877400Y-57232600D01*
X170111300Y-53333700D02*
X170111300Y-53662000D01*
X155067000Y-54102000D02*
X156068700Y-54102000D01*
%TD*%
%TA.AperFunction,Conductor*%
%TO.N,GND*%
G36*
X123864539Y-54701485D02*
G01*
X123910294Y-54754289D01*
X123921500Y-54805800D01*
X123921500Y-56030870D01*
X123921501Y-56030876D01*
X123927908Y-56090483D01*
X123978202Y-56225328D01*
X123978206Y-56225335D01*
X124064452Y-56340544D01*
X124064455Y-56340547D01*
X124179664Y-56426793D01*
X124179671Y-56426797D01*
X124224618Y-56443561D01*
X124314517Y-56477091D01*
X124349596Y-56480862D01*
X124414144Y-56507599D01*
X124453993Y-56564991D01*
X124456488Y-56634816D01*
X124420836Y-56694905D01*
X124407464Y-56705725D01*
X124382858Y-56722954D01*
X124221954Y-56883858D01*
X124091432Y-57070265D01*
X124091431Y-57070267D01*
X123995261Y-57276502D01*
X123995258Y-57276511D01*
X123936366Y-57496302D01*
X123936364Y-57496313D01*
X123916532Y-57722998D01*
X123916532Y-57723001D01*
X123936364Y-57949686D01*
X123936366Y-57949697D01*
X123995258Y-58169488D01*
X123995261Y-58169497D01*
X124091431Y-58375732D01*
X124091432Y-58375734D01*
X124221954Y-58562141D01*
X124382858Y-58723045D01*
X124382861Y-58723047D01*
X124569266Y-58853568D01*
X124626681Y-58880341D01*
X124627275Y-58880618D01*
X124679714Y-58926791D01*
X124698866Y-58993984D01*
X124678650Y-59060865D01*
X124627275Y-59105382D01*
X124569267Y-59132431D01*
X124569265Y-59132432D01*
X124382858Y-59262954D01*
X124221954Y-59423858D01*
X124091432Y-59610265D01*
X124091431Y-59610267D01*
X123995261Y-59816502D01*
X123995258Y-59816511D01*
X123936366Y-60036302D01*
X123936364Y-60036313D01*
X123916532Y-60262998D01*
X123916532Y-60263001D01*
X123936364Y-60489686D01*
X123936366Y-60489697D01*
X123995258Y-60709488D01*
X123995261Y-60709497D01*
X124091927Y-60916795D01*
X124102419Y-60985872D01*
X124073899Y-61049656D01*
X124015423Y-61087896D01*
X123979545Y-61093200D01*
X113755241Y-61093200D01*
X113721881Y-61102138D01*
X113721882Y-61102139D01*
X113602514Y-61134123D01*
X113602509Y-61134126D01*
X113465590Y-61213175D01*
X113465582Y-61213181D01*
X111455249Y-63223515D01*
X111393926Y-63257000D01*
X111324234Y-63252016D01*
X111268301Y-63210144D01*
X111243884Y-63144680D01*
X111247792Y-63103745D01*
X111267635Y-63029692D01*
X111287468Y-62803000D01*
X111267635Y-62576308D01*
X111208739Y-62356504D01*
X111112568Y-62150266D01*
X110984794Y-61967784D01*
X110982045Y-61963858D01*
X110821141Y-61802954D01*
X110634734Y-61672432D01*
X110634728Y-61672429D01*
X110576725Y-61645382D01*
X110524285Y-61599210D01*
X110505133Y-61532017D01*
X110525348Y-61465135D01*
X110576725Y-61420618D01*
X110634734Y-61393568D01*
X110821139Y-61263047D01*
X110982047Y-61102139D01*
X111112568Y-60915734D01*
X111208739Y-60709496D01*
X111267635Y-60489692D01*
X111287468Y-60263000D01*
X111287314Y-60261245D01*
X111277068Y-60144124D01*
X111267635Y-60036308D01*
X111208739Y-59816504D01*
X111112568Y-59610266D01*
X110982047Y-59423861D01*
X110982045Y-59423858D01*
X110821141Y-59262954D01*
X110634735Y-59132433D01*
X110634736Y-59132433D01*
X110634734Y-59132432D01*
X110576132Y-59105105D01*
X110523694Y-59058933D01*
X110504543Y-58991739D01*
X110524759Y-58924858D01*
X110576135Y-58880341D01*
X110634482Y-58853133D01*
X110707471Y-58802024D01*
X110111409Y-58205962D01*
X110174993Y-58188925D01*
X110289007Y-58123099D01*
X110382099Y-58030007D01*
X110447925Y-57915993D01*
X110464962Y-57852409D01*
X111061024Y-58448471D01*
X111112136Y-58375478D01*
X111208264Y-58169331D01*
X111208269Y-58169317D01*
X111267139Y-57949610D01*
X111267141Y-57949599D01*
X111286966Y-57723002D01*
X111286966Y-57722997D01*
X111267141Y-57496400D01*
X111267139Y-57496389D01*
X111206866Y-57271445D01*
X111209372Y-57270773D01*
X111205527Y-57211946D01*
X111239387Y-57150829D01*
X111264523Y-57131663D01*
X111316216Y-57101820D01*
X111428020Y-56990016D01*
X111428020Y-56990014D01*
X111438228Y-56979807D01*
X111438229Y-56979804D01*
X113699916Y-54718119D01*
X113761239Y-54684634D01*
X113787597Y-54681800D01*
X123797500Y-54681800D01*
X123864539Y-54701485D01*
G37*
%TD.AperFunction*%
%TA.AperFunction,Conductor*%
G36*
X167368305Y-52971285D02*
G01*
X167414060Y-53024089D01*
X167424004Y-53093247D01*
X167419197Y-53113918D01*
X167405010Y-53157578D01*
X167405010Y-53157581D01*
X167373000Y-53359682D01*
X167373000Y-53412000D01*
X168239988Y-53412000D01*
X168207075Y-53469007D01*
X168173000Y-53596174D01*
X168173000Y-53727826D01*
X168207075Y-53854993D01*
X168239988Y-53912000D01*
X167373000Y-53912000D01*
X167373000Y-53964317D01*
X167405009Y-54166417D01*
X167468244Y-54361031D01*
X167561140Y-54543349D01*
X167681417Y-54708894D01*
X167681417Y-54708895D01*
X167826104Y-54853582D01*
X167991650Y-54973859D01*
X168173968Y-55066754D01*
X168368578Y-55129988D01*
X168423000Y-55138607D01*
X168423000Y-54095012D01*
X168480007Y-54127925D01*
X168607174Y-54162000D01*
X168738826Y-54162000D01*
X168865993Y-54127925D01*
X168923000Y-54095012D01*
X168923000Y-55138606D01*
X168977421Y-55129988D01*
X169172031Y-55066754D01*
X169354349Y-54973859D01*
X169519894Y-54853582D01*
X169519895Y-54853582D01*
X169664582Y-54708895D01*
X169664582Y-54708894D01*
X169784861Y-54543347D01*
X169832234Y-54450371D01*
X169880208Y-54399575D01*
X169948028Y-54382779D01*
X170014164Y-54405316D01*
X170053203Y-54450369D01*
X170100713Y-54543611D01*
X170221028Y-54709213D01*
X170365786Y-54853971D01*
X170531385Y-54974284D01*
X170531387Y-54974285D01*
X170531390Y-54974287D01*
X170569239Y-54993572D01*
X170620034Y-55041544D01*
X170636830Y-55109364D01*
X170614294Y-55175500D01*
X170600625Y-55191737D01*
X167247184Y-58545181D01*
X167185861Y-58578666D01*
X167159503Y-58581500D01*
X156179621Y-58581500D01*
X156112582Y-58561815D01*
X156080667Y-58532227D01*
X155957979Y-58369761D01*
X155793562Y-58219876D01*
X155793560Y-58219874D01*
X155604404Y-58102754D01*
X155604398Y-58102752D01*
X155396940Y-58022382D01*
X155178243Y-57981500D01*
X154955757Y-57981500D01*
X154737060Y-58022382D01*
X154605864Y-58073207D01*
X154529601Y-58102752D01*
X154529595Y-58102754D01*
X154340439Y-58219874D01*
X154340437Y-58219876D01*
X154176020Y-58369761D01*
X154041943Y-58547308D01*
X154041938Y-58547316D01*
X153942775Y-58746461D01*
X153942769Y-58746476D01*
X153881885Y-58960462D01*
X153881884Y-58960464D01*
X153861357Y-59181999D01*
X153861357Y-59182000D01*
X153881885Y-59403537D01*
X153887270Y-59422463D01*
X153886683Y-59492330D01*
X153855685Y-59544078D01*
X152717584Y-60682181D01*
X152656261Y-60715666D01*
X152629903Y-60718500D01*
X148389557Y-60718500D01*
X148231442Y-60718500D01*
X148078715Y-60759423D01*
X148078714Y-60759423D01*
X148078712Y-60759424D01*
X148078709Y-60759425D01*
X148028596Y-60788359D01*
X148028595Y-60788360D01*
X147985189Y-60813420D01*
X147941785Y-60838479D01*
X147941782Y-60838481D01*
X146812481Y-61967782D01*
X146812479Y-61967785D01*
X146806057Y-61978909D01*
X146777020Y-62029204D01*
X146762361Y-62054594D01*
X146762359Y-62054596D01*
X146733425Y-62104709D01*
X146733424Y-62104710D01*
X146733423Y-62104715D01*
X146692499Y-62257443D01*
X146692499Y-62257445D01*
X146692499Y-62425546D01*
X146692500Y-62425559D01*
X146692500Y-62548102D01*
X146672815Y-62615141D01*
X146656181Y-62635783D01*
X146138180Y-63153784D01*
X146076857Y-63187269D01*
X146007165Y-63182285D01*
X145951232Y-63140413D01*
X145926815Y-63074949D01*
X145926499Y-63066103D01*
X145926499Y-62425129D01*
X145926498Y-62425123D01*
X145926497Y-62425116D01*
X145920091Y-62365517D01*
X145916729Y-62356504D01*
X145869797Y-62230671D01*
X145869793Y-62230664D01*
X145783547Y-62115455D01*
X145783544Y-62115452D01*
X145668335Y-62029206D01*
X145668328Y-62029202D01*
X145533482Y-61978908D01*
X145533483Y-61978908D01*
X145473883Y-61972501D01*
X145473881Y-61972500D01*
X145473873Y-61972500D01*
X145473865Y-61972500D01*
X144837196Y-61972500D01*
X144770157Y-61952815D01*
X144724402Y-61900011D01*
X144714458Y-61830853D01*
X144743483Y-61767297D01*
X144749515Y-61760819D01*
X145671854Y-60838481D01*
X146691516Y-59818819D01*
X146752839Y-59785334D01*
X146779197Y-59782500D01*
X150804379Y-59782500D01*
X150871418Y-59802185D01*
X150903333Y-59831773D01*
X151026020Y-59994238D01*
X151190437Y-60144123D01*
X151190439Y-60144125D01*
X151379595Y-60261245D01*
X151379596Y-60261245D01*
X151379599Y-60261247D01*
X151587060Y-60341618D01*
X151805757Y-60382500D01*
X151805759Y-60382500D01*
X152028241Y-60382500D01*
X152028243Y-60382500D01*
X152246940Y-60341618D01*
X152454401Y-60261247D01*
X152643562Y-60144124D01*
X152807981Y-59994236D01*
X152942058Y-59816689D01*
X153041229Y-59617528D01*
X153102115Y-59403536D01*
X153122643Y-59182000D01*
X153107787Y-59021681D01*
X153102115Y-58960464D01*
X153102114Y-58960462D01*
X153101280Y-58957532D01*
X153041229Y-58746472D01*
X153018826Y-58701480D01*
X152942061Y-58547316D01*
X152942056Y-58547308D01*
X152807979Y-58369761D01*
X152643562Y-58219876D01*
X152643560Y-58219874D01*
X152454404Y-58102754D01*
X152454398Y-58102752D01*
X152246940Y-58022382D01*
X152028243Y-57981500D01*
X151805757Y-57981500D01*
X151587060Y-58022382D01*
X151455864Y-58073207D01*
X151379601Y-58102752D01*
X151379595Y-58102754D01*
X151190439Y-58219874D01*
X151190437Y-58219876D01*
X151026020Y-58369761D01*
X150903333Y-58532227D01*
X150847224Y-58573863D01*
X150804379Y-58581500D01*
X146565769Y-58581500D01*
X146565753Y-58581499D01*
X146558157Y-58581499D01*
X146400043Y-58581499D01*
X146320110Y-58602917D01*
X146247316Y-58622422D01*
X146217150Y-58639839D01*
X146217149Y-58639838D01*
X146110387Y-58701477D01*
X146110382Y-58701481D01*
X142169380Y-62642484D01*
X142108057Y-62675969D01*
X142038365Y-62670985D01*
X141982432Y-62629113D01*
X141958015Y-62563649D01*
X141957699Y-62554803D01*
X141957699Y-62425129D01*
X141957698Y-62425123D01*
X141957697Y-62425116D01*
X141951291Y-62365517D01*
X141947929Y-62356504D01*
X141900997Y-62230671D01*
X141900993Y-62230664D01*
X141814747Y-62115455D01*
X141814744Y-62115452D01*
X141699535Y-62029206D01*
X141699528Y-62029202D01*
X141564682Y-61978908D01*
X141564683Y-61978908D01*
X141505083Y-61972501D01*
X141505081Y-61972500D01*
X141505073Y-61972500D01*
X141505064Y-61972500D01*
X139609329Y-61972500D01*
X139609323Y-61972501D01*
X139549716Y-61978908D01*
X139414871Y-62029202D01*
X139414864Y-62029206D01*
X139299655Y-62115452D01*
X139299652Y-62115455D01*
X139213406Y-62230664D01*
X139213402Y-62230671D01*
X139163108Y-62365517D01*
X139156701Y-62425116D01*
X139156701Y-62425123D01*
X139156700Y-62425135D01*
X139156700Y-62648500D01*
X139137015Y-62715539D01*
X139084211Y-62761294D01*
X139032700Y-62772500D01*
X138112999Y-62772500D01*
X138045960Y-62752815D01*
X138000205Y-62700011D01*
X137988999Y-62648500D01*
X137988999Y-62425129D01*
X137988998Y-62425123D01*
X137988997Y-62425116D01*
X137982591Y-62365517D01*
X137979229Y-62356504D01*
X137932297Y-62230671D01*
X137932293Y-62230664D01*
X137846047Y-62115455D01*
X137846044Y-62115452D01*
X137730835Y-62029206D01*
X137730828Y-62029202D01*
X137595982Y-61978908D01*
X137595983Y-61978908D01*
X137536383Y-61972501D01*
X137536381Y-61972500D01*
X137536373Y-61972500D01*
X137536364Y-61972500D01*
X135640629Y-61972500D01*
X135640623Y-61972501D01*
X135581016Y-61978908D01*
X135446171Y-62029202D01*
X135446164Y-62029206D01*
X135330955Y-62115452D01*
X135330952Y-62115455D01*
X135244706Y-62230664D01*
X135244702Y-62230671D01*
X135194408Y-62365517D01*
X135188001Y-62425116D01*
X135188001Y-62425123D01*
X135188000Y-62425135D01*
X135188000Y-62648500D01*
X135168315Y-62715539D01*
X135115511Y-62761294D01*
X135064000Y-62772500D01*
X134144199Y-62772500D01*
X134077160Y-62752815D01*
X134031405Y-62700011D01*
X134020199Y-62648500D01*
X134020199Y-62425129D01*
X134020198Y-62425123D01*
X134020197Y-62425116D01*
X134013791Y-62365517D01*
X134010429Y-62356504D01*
X133963497Y-62230671D01*
X133963493Y-62230664D01*
X133877247Y-62115455D01*
X133877244Y-62115452D01*
X133762035Y-62029206D01*
X133762028Y-62029202D01*
X133627182Y-61978908D01*
X133627183Y-61978908D01*
X133567583Y-61972501D01*
X133567581Y-61972500D01*
X133567573Y-61972500D01*
X133567564Y-61972500D01*
X131671829Y-61972500D01*
X131671823Y-61972501D01*
X131612216Y-61978908D01*
X131477371Y-62029202D01*
X131477364Y-62029206D01*
X131362155Y-62115452D01*
X131362152Y-62115455D01*
X131275906Y-62230664D01*
X131275902Y-62230671D01*
X131225608Y-62365517D01*
X131219201Y-62425116D01*
X131219201Y-62425123D01*
X131219200Y-62425135D01*
X131219200Y-62648500D01*
X131199515Y-62715539D01*
X131146711Y-62761294D01*
X131095200Y-62772500D01*
X130175499Y-62772500D01*
X130108460Y-62752815D01*
X130062705Y-62700011D01*
X130051499Y-62648500D01*
X130051499Y-62425129D01*
X130051498Y-62425123D01*
X130051497Y-62425116D01*
X130045091Y-62365517D01*
X130041729Y-62356504D01*
X129994797Y-62230671D01*
X129994793Y-62230664D01*
X129908547Y-62115455D01*
X129908544Y-62115452D01*
X129793335Y-62029206D01*
X129793328Y-62029202D01*
X129658482Y-61978908D01*
X129658483Y-61978908D01*
X129598883Y-61972501D01*
X129598881Y-61972500D01*
X129598873Y-61972500D01*
X129598864Y-61972500D01*
X127703129Y-61972500D01*
X127703123Y-61972501D01*
X127643516Y-61978908D01*
X127508671Y-62029202D01*
X127508664Y-62029206D01*
X127393455Y-62115452D01*
X127328316Y-62202465D01*
X127272381Y-62244336D01*
X127202690Y-62249319D01*
X127141369Y-62215834D01*
X126257590Y-61332055D01*
X126257588Y-61332052D01*
X126212542Y-61287006D01*
X126179057Y-61225683D01*
X126184041Y-61155991D01*
X126212542Y-61111644D01*
X126222047Y-61102139D01*
X126222048Y-61102138D01*
X126352568Y-60915734D01*
X126448739Y-60709496D01*
X126507635Y-60489692D01*
X126527468Y-60263000D01*
X126527314Y-60261245D01*
X126517068Y-60144124D01*
X126507635Y-60036308D01*
X126448739Y-59816504D01*
X126352568Y-59610266D01*
X126222047Y-59423861D01*
X126222045Y-59423858D01*
X126061141Y-59262954D01*
X125874734Y-59132432D01*
X125874728Y-59132429D01*
X125816725Y-59105382D01*
X125764285Y-59059210D01*
X125745133Y-58992017D01*
X125765348Y-58925135D01*
X125816725Y-58880618D01*
X125817319Y-58880341D01*
X125874734Y-58853568D01*
X126061139Y-58723047D01*
X126222047Y-58562139D01*
X126352568Y-58375734D01*
X126448739Y-58169496D01*
X126507635Y-57949692D01*
X126527468Y-57723000D01*
X126507635Y-57496308D01*
X126448739Y-57276504D01*
X126352568Y-57070266D01*
X126222047Y-56883861D01*
X126222045Y-56883858D01*
X126061143Y-56722956D01*
X126036536Y-56705726D01*
X125992912Y-56651149D01*
X125985719Y-56581650D01*
X126017241Y-56519296D01*
X126077471Y-56483882D01*
X126094404Y-56480861D01*
X126129483Y-56477091D01*
X126264331Y-56426796D01*
X126379546Y-56340546D01*
X126465796Y-56225331D01*
X126516091Y-56090483D01*
X126522500Y-56030873D01*
X126522499Y-54805799D01*
X126542184Y-54738761D01*
X126594987Y-54693006D01*
X126646499Y-54681800D01*
X150742663Y-54681800D01*
X150774754Y-54686025D01*
X150800810Y-54693006D01*
X150832528Y-54701505D01*
X150892188Y-54737867D01*
X150899390Y-54746552D01*
X151026020Y-54914238D01*
X151190437Y-55064123D01*
X151190439Y-55064125D01*
X151379595Y-55181245D01*
X151379596Y-55181245D01*
X151379599Y-55181247D01*
X151587060Y-55261618D01*
X151805757Y-55302500D01*
X151805759Y-55302500D01*
X152028241Y-55302500D01*
X152028243Y-55302500D01*
X152246940Y-55261618D01*
X152454401Y-55181247D01*
X152643562Y-55064124D01*
X152807981Y-54914236D01*
X152930667Y-54751772D01*
X152986776Y-54710137D01*
X153029621Y-54702500D01*
X153954379Y-54702500D01*
X154021418Y-54722185D01*
X154053333Y-54751773D01*
X154176020Y-54914238D01*
X154340437Y-55064123D01*
X154340439Y-55064125D01*
X154529595Y-55181245D01*
X154529596Y-55181245D01*
X154529599Y-55181247D01*
X154737060Y-55261618D01*
X154955757Y-55302500D01*
X154955759Y-55302500D01*
X155178241Y-55302500D01*
X155178243Y-55302500D01*
X155396940Y-55261618D01*
X155604401Y-55181247D01*
X155793562Y-55064124D01*
X155957981Y-54914236D01*
X156084608Y-54746553D01*
X156140716Y-54704917D01*
X156151441Y-54701513D01*
X156300485Y-54661577D01*
X156350604Y-54632639D01*
X156437416Y-54582520D01*
X156549220Y-54470716D01*
X156549220Y-54470714D01*
X156559428Y-54460507D01*
X156559429Y-54460504D01*
X158032017Y-52987919D01*
X158093340Y-52954434D01*
X158119698Y-52951600D01*
X167301266Y-52951600D01*
X167368305Y-52971285D01*
G37*
%TD.AperFunction*%
%TD*%
M02*
