M48
; DRILL file {KiCad 8.0.5-dirty} date 2024-10-05T14:38:11-0400
; FORMAT={-:-/ absolute / inch / decimal}
; #@! TF.CreationDate,2024-10-05T14:38:11-04:00
; #@! TF.GenerationSoftware,Kicad,Pcbnew,8.0.5-dirty
; #@! TF.FileFunction,Plated,1,2,PTH
FMAT,2
INCH
; #@! TA.AperFunction,Plated,PTH,ViaDrill
T1C0.0118
; #@! TA.AperFunction,Plated,PTH,ComponentDrill
T2C0.0276
; #@! TA.AperFunction,Plated,PTH,ComponentDrill
T3C0.0354
; #@! TA.AperFunction,Plated,PTH,ComponentDrill
T4C0.0394
; #@! TA.AperFunction,Plated,PTH,ComponentDrill
T5C0.0600
%
G90
G05
T1
X5.3372Y-3.1072
X5.3739Y-3.1278
X5.473Y-3.211
X6.0962Y-2.9995
T2
X5.981Y-2.13
X5.981Y-2.33
X6.105Y-2.13
X6.105Y-2.33
T3
X5.065Y-2.495
X5.065Y-2.895
X5.065Y-3.0387
X5.2212Y-2.495
X5.2212Y-2.895
X5.3775Y-2.495
X5.3775Y-2.895
X5.465Y-3.0387
X5.5337Y-2.495
X5.5337Y-2.895
X5.5962Y-3.0387
X5.69Y-2.495
X5.69Y-2.895
X5.8462Y-2.495
X5.8462Y-2.895
X5.9962Y-3.0387
X6.0025Y-2.495
X6.0025Y-2.895
X6.1587Y-2.495
X6.1587Y-2.895
T4
X4.33Y-2.1726
X4.33Y-2.2726
X4.33Y-2.3726
X4.33Y-2.4726
X4.33Y-2.5726
X4.33Y-2.6726
X4.33Y-2.7726
X4.93Y-2.1726
X4.93Y-2.2726
X4.93Y-2.3726
X4.93Y-2.4726
X4.93Y-2.5726
X4.93Y-2.6726
X4.93Y-2.7726
X6.6407Y-2.1127
X6.7407Y-2.1127
X6.8407Y-2.1127
X6.9407Y-2.1127
T5
X4.4888Y-3.4337
X4.4888Y-4.1837
X4.7388Y-3.3337
X4.7388Y-4.0837
X5.2388Y-3.4337
X5.2388Y-4.1837
X5.2388Y-4.9337
X5.4888Y-3.3337
X5.4888Y-4.0837
X5.4888Y-4.8337
X5.9888Y-3.4337
X5.9888Y-4.1837
X5.9888Y-4.9337
X6.2388Y-3.3337
X6.2388Y-4.0837
X6.2388Y-4.8337
X6.7388Y-3.4337
X6.7388Y-4.1837
X6.9888Y-3.3337
X6.9888Y-4.0837
M30
