M48
; DRILL file {KiCad 9.0.0} date 2025-03-16T11:42:57-0400
; FORMAT={-:-/ absolute / inch / decimal}
; #@! TF.CreationDate,2025-03-16T11:42:57-04:00
; #@! TF.GenerationSoftware,Kicad,Pcbnew,9.0.0
; #@! TF.FileFunction,NonPlated,1,2,NPTH
FMAT,2
INCH
; #@! TA.AperFunction,NonPlated,NPTH,ComponentDrill
T1C0.0591
; #@! TA.AperFunction,NonPlated,NPTH,ComponentDrill
T2C0.0670
; #@! TA.AperFunction,NonPlated,NPTH,ComponentDrill
T3C0.0709
; #@! TA.AperFunction,NonPlated,NPTH,ComponentDrill
T4C0.1200
; #@! TA.AperFunction,NonPlated,NPTH,ComponentDrill
T5C0.1570
%
G90
G05
T1
X1.6266Y-4.5236
X1.8175Y-4.5236
T2
X2.7Y-4.7
X2.7937Y-7.7
X2.8875Y-5.45
X2.9812Y-6.2
X3.1Y-4.7
X3.1687Y-6.95
X3.1938Y-7.7
X3.2875Y-5.45
X3.3813Y-6.2
X3.45Y-4.7
X3.5688Y-6.95
X3.6375Y-7.7
X3.825Y-5.45
X3.85Y-4.7
X4.0125Y-6.2
X4.0375Y-7.7
X4.2Y-4.7
X4.225Y-5.45
X4.3875Y-6.95
X4.4125Y-6.2
X4.4813Y-7.7
X4.575Y-5.45
X4.6Y-4.7
X4.7625Y-6.2
X4.7875Y-6.95
X4.8812Y-7.7
X4.95Y-4.7
X4.975Y-5.45
X5.1375Y-6.95
X5.1625Y-6.2
X5.325Y-5.45
X5.35Y-4.7
X5.5125Y-6.2
X5.5375Y-6.95
X5.7Y-4.7
X5.725Y-5.45
X5.8875Y-6.95
X5.9125Y-6.2
X6.075Y-5.45
X6.1Y-4.7
X6.2625Y-6.2
X6.2875Y-6.95
X6.45Y-4.7
X6.475Y-5.45
X6.6375Y-6.95
X6.6625Y-6.2
X6.825Y-5.45
X6.85Y-4.7
X7.0125Y-6.2
X7.0375Y-6.95
X7.2Y-4.7
X7.225Y-5.45
X7.2938Y-7.7
X7.3875Y-6.95
X7.4125Y-6.2
X7.575Y-5.45
X7.6Y-4.7
X7.6937Y-7.7
X7.7625Y-6.2
X7.7875Y-6.95
X7.95Y-4.7
X7.975Y-5.45
X8.1375Y-6.95
X8.1625Y-6.2
X8.325Y-5.45
X8.35Y-4.7
X8.5125Y-6.2
X8.5375Y-6.95
X8.7Y-4.7
X8.725Y-5.45
X8.8875Y-6.95
X8.9125Y-6.2
X9.075Y-5.45
X9.1Y-4.7
X9.2625Y-6.2
X9.2875Y-6.95
X9.45Y-4.7
X9.475Y-5.45
X9.6375Y-6.95
X9.6625Y-6.2
X9.825Y-5.45
X9.85Y-4.7
X10.0125Y-6.2
X10.0375Y-6.95
X10.1062Y-7.7
X10.2Y-4.7
X10.225Y-5.45
X10.3875Y-6.95
X10.4125Y-6.2
X10.5062Y-7.7
X10.575Y-5.45
X10.6Y-4.7
X10.7625Y-6.2
X10.7875Y-6.95
X10.95Y-4.7
X10.975Y-5.45
X11.0437Y-7.7
X11.1375Y-6.95
X11.1625Y-6.2
X11.325Y-5.45
X11.35Y-4.7
X11.4437Y-7.7
X11.5125Y-6.2
X11.5375Y-6.95
X11.7Y-4.7
X11.725Y-5.45
X11.9125Y-6.2
X11.9812Y-7.7
X12.075Y-5.45
X12.1Y-4.7
X12.3562Y-6.95
X12.3812Y-7.7
X12.475Y-5.45
X12.7312Y-6.2
X12.7562Y-6.95
X12.825Y-4.7
X12.825Y-7.7
X13.0125Y-5.45
X13.1312Y-6.2
X13.225Y-4.7
X13.225Y-7.7
X13.4125Y-5.45
X13.575Y-6.95
X13.575Y-7.7
X13.975Y-6.95
X13.975Y-7.7
X14.325Y-4.7
X14.325Y-5.45
X14.325Y-7.7
X14.725Y-4.7
X14.725Y-5.45
X14.725Y-7.7
T3
X1.6148Y-4.4043
X1.8293Y-4.4043
T4
X2.8987Y-6.675
X3.8388Y-6.675
X5.5252Y-7.425
X9.4623Y-7.425
X12.0862Y-6.675
X12.4612Y-5.925
X12.555Y-4.425
X13.0262Y-6.675
X13.4012Y-5.925
X13.495Y-4.425
T5
X2.8987Y-7.275
X2.9Y-4.7
X2.9937Y-7.7
X3.0875Y-5.45
X3.1812Y-6.2
X3.3687Y-6.95
X3.65Y-4.7
X3.8375Y-7.7
X3.8388Y-7.275
X4.025Y-5.45
X4.2125Y-6.2
X4.4Y-4.7
X4.5875Y-6.95
X4.6812Y-7.7
X4.775Y-5.45
X4.9625Y-6.2
X5.15Y-4.7
X5.3375Y-6.95
X5.525Y-5.45
X5.5252Y-8.025
X5.7125Y-6.2
X5.9Y-4.7
X6.0875Y-6.95
X6.275Y-5.45
X6.4625Y-6.2
X6.65Y-4.7
X6.8375Y-6.95
X7.025Y-5.45
X7.2125Y-6.2
X7.4Y-4.7
X7.4937Y-7.7
X7.5875Y-6.95
X7.775Y-5.45
X7.9625Y-6.2
X8.15Y-4.7
X8.3375Y-6.95
X8.525Y-5.45
X8.7125Y-6.2
X8.9Y-4.7
X9.0875Y-6.95
X9.275Y-5.45
X9.4623Y-8.025
X9.4625Y-6.2
X9.65Y-4.7
X9.8375Y-6.95
X10.025Y-5.45
X10.2125Y-6.2
X10.3063Y-7.7
X10.4Y-4.7
X10.5875Y-6.95
X10.775Y-5.45
X10.9625Y-6.2
X11.15Y-4.7
X11.2438Y-7.7
X11.3375Y-6.95
X11.525Y-5.45
X11.7125Y-6.2
X11.9Y-4.7
X12.0862Y-7.275
X12.1813Y-7.7
X12.275Y-5.45
X12.4612Y-6.525
X12.555Y-5.025
X12.5563Y-6.95
X12.9313Y-6.2
X13.025Y-4.7
X13.025Y-7.7
X13.0262Y-7.275
X13.2125Y-5.45
X13.4012Y-6.525
X13.495Y-5.025
X13.775Y-6.95
X13.775Y-7.7
X14.525Y-4.7
X14.525Y-5.45
X14.525Y-7.7
M30
