%TF.GenerationSoftware,KiCad,Pcbnew,9.0.0*%
%TF.CreationDate,2025-03-16T11:43:05-04:00*%
%TF.ProjectId,big-board,6269672d-626f-4617-9264-2e6b69636164,rev?*%
%TF.SameCoordinates,Original*%
%TF.FileFunction,Soldermask,Bot*%
%TF.FilePolarity,Negative*%
%FSLAX46Y46*%
G04 Gerber Fmt 4.6, Leading zero omitted, Abs format (unit mm)*
G04 Created by KiCad (PCBNEW 9.0.0) date 2025-03-16 11:43:05*
%MOMM*%
%LPD*%
G01*
G04 APERTURE LIST*
%ADD10C,1.701800*%
%ADD11C,3.987800*%
%ADD12C,2.300000*%
%ADD13C,3.048000*%
%ADD14O,1.800000X1.800000*%
%ADD15O,1.500000X1.500000*%
%ADD16O,1.700000X1.700000*%
%ADD17R,1.700000X1.700000*%
%ADD18R,1.600000X1.600000*%
%ADD19O,1.600000X1.600000*%
G04 APERTURE END LIST*
D10*
%TO.C,SW34*%
X140017500Y-157480000D03*
D11*
X145097500Y-157480000D03*
D10*
X150177500Y-157480000D03*
D12*
X141287500Y-154940000D03*
X147637500Y-152400000D03*
%TD*%
D13*
%TO.C,SW14*%
X318897000Y-112395000D03*
D11*
X318897000Y-127635000D03*
D10*
X325755000Y-119380000D03*
D11*
X330835000Y-119380000D03*
D10*
X335915000Y-119380000D03*
D13*
X342773000Y-112395000D03*
D11*
X342773000Y-127635000D03*
D12*
X327025000Y-116840000D03*
X333375000Y-114300000D03*
%TD*%
D10*
%TO.C,SW29*%
X330517500Y-138430000D03*
D11*
X335597500Y-138430000D03*
D10*
X340677500Y-138430000D03*
D12*
X331787500Y-135890000D03*
X338137500Y-133350000D03*
%TD*%
D10*
%TO.C,SW36*%
X178117500Y-157480000D03*
D11*
X183197500Y-157480000D03*
D10*
X188277500Y-157480000D03*
D12*
X179387500Y-154940000D03*
X185737500Y-152400000D03*
%TD*%
D13*
%TO.C,SW55*%
X306990750Y-169545000D03*
D11*
X306990750Y-184785000D03*
D10*
X313848750Y-176530000D03*
D11*
X318928750Y-176530000D03*
D10*
X324008750Y-176530000D03*
D13*
X330866750Y-169545000D03*
D11*
X330866750Y-184785000D03*
D12*
X315118750Y-173990000D03*
X321468750Y-171450000D03*
%TD*%
D10*
%TO.C,SW4*%
X125730000Y-119380000D03*
D11*
X130810000Y-119380000D03*
D10*
X135890000Y-119380000D03*
D12*
X127000000Y-116840000D03*
X133350000Y-114300000D03*
%TD*%
D10*
%TO.C,SW42*%
X292417500Y-157480000D03*
D11*
X297497500Y-157480000D03*
D10*
X302577500Y-157480000D03*
D12*
X293687500Y-154940000D03*
X300037500Y-152400000D03*
%TD*%
D10*
%TO.C,SW20*%
X154305000Y-138430000D03*
D11*
X159385000Y-138430000D03*
D10*
X164465000Y-138430000D03*
D12*
X155575000Y-135890000D03*
X161925000Y-133350000D03*
%TD*%
D10*
%TO.C,SW18*%
X116205000Y-138430000D03*
D11*
X121285000Y-138430000D03*
D10*
X126365000Y-138430000D03*
D12*
X117475000Y-135890000D03*
X123825000Y-133350000D03*
%TD*%
D10*
%TO.C,SW40*%
X254317500Y-157480000D03*
D11*
X259397500Y-157480000D03*
D10*
X264477500Y-157480000D03*
D12*
X255587500Y-154940000D03*
X261937500Y-152400000D03*
%TD*%
D10*
%TO.C,SW64*%
X325755000Y-195580000D03*
D11*
X330835000Y-195580000D03*
D10*
X335915000Y-195580000D03*
D12*
X327025000Y-193040000D03*
X333375000Y-190500000D03*
%TD*%
D10*
%TO.C,SW37*%
X197167500Y-157480000D03*
D11*
X202247500Y-157480000D03*
D10*
X207327500Y-157480000D03*
D12*
X198437500Y-154940000D03*
X204787500Y-152400000D03*
%TD*%
D10*
%TO.C,SW17*%
X97155000Y-138430000D03*
D11*
X102235000Y-138430000D03*
D10*
X107315000Y-138430000D03*
D12*
X98425000Y-135890000D03*
X104775000Y-133350000D03*
%TD*%
D10*
%TO.C,SW1*%
X68580000Y-119380000D03*
D11*
X73660000Y-119380000D03*
D10*
X78740000Y-119380000D03*
D12*
X69850000Y-116840000D03*
X76200000Y-114300000D03*
%TD*%
D10*
%TO.C,SW12*%
X278130000Y-119380000D03*
D11*
X283210000Y-119380000D03*
D10*
X288290000Y-119380000D03*
D12*
X279400000Y-116840000D03*
X285750000Y-114300000D03*
%TD*%
D10*
%TO.C,SW38*%
X216217500Y-157480000D03*
D11*
X221297500Y-157480000D03*
D10*
X226377500Y-157480000D03*
D12*
X217487500Y-154940000D03*
X223837500Y-152400000D03*
%TD*%
D13*
%TO.C,SW43*%
X316515750Y-150495000D03*
D11*
X316515750Y-165735000D03*
D10*
X323373750Y-157480000D03*
D11*
X328453750Y-157480000D03*
D10*
X333533750Y-157480000D03*
D13*
X340391750Y-150495000D03*
D11*
X340391750Y-165735000D03*
D12*
X324643750Y-154940000D03*
X330993750Y-152400000D03*
%TD*%
D10*
%TO.C,SW5*%
X144780000Y-119380000D03*
D11*
X149860000Y-119380000D03*
D10*
X154940000Y-119380000D03*
D12*
X146050000Y-116840000D03*
X152400000Y-114300000D03*
%TD*%
D10*
%TO.C,SW45*%
X111442500Y-176530000D03*
D11*
X116522500Y-176530000D03*
D10*
X121602500Y-176530000D03*
D12*
X112712500Y-173990000D03*
X119062500Y-171450000D03*
%TD*%
D10*
%TO.C,SW54*%
X282892500Y-176530000D03*
D11*
X287972500Y-176530000D03*
D10*
X293052500Y-176530000D03*
D12*
X284162500Y-173990000D03*
X290512500Y-171450000D03*
%TD*%
D10*
%TO.C,SW32*%
X101917500Y-157480000D03*
D11*
X106997500Y-157480000D03*
D10*
X112077500Y-157480000D03*
D12*
X103187500Y-154940000D03*
X109537500Y-152400000D03*
%TD*%
D10*
%TO.C,SW25*%
X249555000Y-138430000D03*
D11*
X254635000Y-138430000D03*
D10*
X259715000Y-138430000D03*
D12*
X250825000Y-135890000D03*
X257175000Y-133350000D03*
%TD*%
D10*
%TO.C,SW10*%
X240030000Y-119380000D03*
D11*
X245110000Y-119380000D03*
D10*
X250190000Y-119380000D03*
D12*
X241300000Y-116840000D03*
X247650000Y-114300000D03*
%TD*%
D10*
%TO.C,SW8*%
X201930000Y-119380000D03*
D11*
X207010000Y-119380000D03*
D10*
X212090000Y-119380000D03*
D12*
X203200000Y-116840000D03*
X209550000Y-114300000D03*
%TD*%
D10*
%TO.C,SW21*%
X173355000Y-138430000D03*
D11*
X178435000Y-138430000D03*
D10*
X183515000Y-138430000D03*
D12*
X174625000Y-135890000D03*
X180975000Y-133350000D03*
%TD*%
D10*
%TO.C,SW39*%
X235267500Y-157480000D03*
D11*
X240347500Y-157480000D03*
D10*
X245427500Y-157480000D03*
D12*
X236537500Y-154940000D03*
X242887500Y-152400000D03*
%TD*%
D10*
%TO.C,SW46*%
X130492500Y-176530000D03*
D11*
X135572500Y-176530000D03*
D10*
X140652500Y-176530000D03*
D12*
X131762500Y-173990000D03*
X138112500Y-171450000D03*
%TD*%
D10*
%TO.C,SW58*%
X92392500Y-195580000D03*
D11*
X97472500Y-195580000D03*
D10*
X102552500Y-195580000D03*
D12*
X93662500Y-193040000D03*
X100012500Y-190500000D03*
%TD*%
D10*
%TO.C,SW13*%
X297180000Y-119380000D03*
D11*
X302260000Y-119380000D03*
D10*
X307340000Y-119380000D03*
D12*
X298450000Y-116840000D03*
X304800000Y-114300000D03*
%TD*%
D10*
%TO.C,SW11*%
X259080000Y-119380000D03*
D11*
X264160000Y-119380000D03*
D10*
X269240000Y-119380000D03*
D12*
X260350000Y-116840000D03*
X266700000Y-114300000D03*
%TD*%
D10*
%TO.C,SW47*%
X149542500Y-176530000D03*
D11*
X154622500Y-176530000D03*
D10*
X159702500Y-176530000D03*
D12*
X150812500Y-173990000D03*
X157162500Y-171450000D03*
%TD*%
D10*
%TO.C,SW53*%
X263842500Y-176530000D03*
D11*
X268922500Y-176530000D03*
D10*
X274002500Y-176530000D03*
D12*
X265112500Y-173990000D03*
X271462500Y-171450000D03*
%TD*%
D10*
%TO.C,SW66*%
X363855000Y-195580000D03*
D11*
X368935000Y-195580000D03*
D10*
X374015000Y-195580000D03*
D12*
X365125000Y-193040000D03*
X371475000Y-190500000D03*
%TD*%
D10*
%TO.C,SW27*%
X287655000Y-138430000D03*
D11*
X292735000Y-138430000D03*
D10*
X297815000Y-138430000D03*
D12*
X288925000Y-135890000D03*
X295275000Y-133350000D03*
%TD*%
D10*
%TO.C,SW50*%
X206692500Y-176530000D03*
D11*
X211772500Y-176530000D03*
D10*
X216852500Y-176530000D03*
D12*
X207962500Y-173990000D03*
X214312500Y-171450000D03*
%TD*%
D10*
%TO.C,SW26*%
X268605000Y-138430000D03*
D11*
X273685000Y-138430000D03*
D10*
X278765000Y-138430000D03*
D12*
X269875000Y-135890000D03*
X276225000Y-133350000D03*
%TD*%
D10*
%TO.C,SW62*%
X280511250Y-195580000D03*
D11*
X285591250Y-195580000D03*
D10*
X290671250Y-195580000D03*
D12*
X281781250Y-193040000D03*
X288131250Y-190500000D03*
%TD*%
D10*
%TO.C,SW35*%
X159067500Y-157480000D03*
D11*
X164147500Y-157480000D03*
D10*
X169227500Y-157480000D03*
D12*
X160337500Y-154940000D03*
X166687500Y-152400000D03*
%TD*%
D10*
%TO.C,SW24*%
X230505000Y-138430000D03*
D11*
X235585000Y-138430000D03*
D10*
X240665000Y-138430000D03*
D12*
X231775000Y-135890000D03*
X238125000Y-133350000D03*
%TD*%
D10*
%TO.C,SW28*%
X306705000Y-138430000D03*
D11*
X311785000Y-138430000D03*
D10*
X316865000Y-138430000D03*
D12*
X307975000Y-135890000D03*
X314325000Y-133350000D03*
%TD*%
D10*
%TO.C,SW57*%
X70961250Y-195580000D03*
D11*
X76041250Y-195580000D03*
D10*
X81121250Y-195580000D03*
D12*
X72231250Y-193040000D03*
X78581250Y-190500000D03*
%TD*%
D10*
%TO.C,SW33*%
X120967500Y-157480000D03*
D11*
X126047500Y-157480000D03*
D10*
X131127500Y-157480000D03*
D12*
X122237500Y-154940000D03*
X128587500Y-152400000D03*
%TD*%
D10*
%TO.C,SW7*%
X182880000Y-119380000D03*
D11*
X187960000Y-119380000D03*
D10*
X193040000Y-119380000D03*
D12*
X184150000Y-116840000D03*
X190500000Y-114300000D03*
%TD*%
D10*
%TO.C,SW2*%
X87630000Y-119380000D03*
D11*
X92710000Y-119380000D03*
D10*
X97790000Y-119380000D03*
D12*
X88900000Y-116840000D03*
X95250000Y-114300000D03*
%TD*%
D10*
%TO.C,SW65*%
X344805000Y-195580000D03*
D11*
X349885000Y-195580000D03*
D10*
X354965000Y-195580000D03*
D12*
X346075000Y-193040000D03*
X352425000Y-190500000D03*
%TD*%
D10*
%TO.C,SW63*%
X304323750Y-195580000D03*
D11*
X309403750Y-195580000D03*
D10*
X314483750Y-195580000D03*
D12*
X305593750Y-193040000D03*
X311943750Y-190500000D03*
%TD*%
D13*
%TO.C,SW44*%
X73628250Y-169545000D03*
D11*
X73628250Y-184785000D03*
D10*
X80486250Y-176530000D03*
D11*
X85566250Y-176530000D03*
D10*
X90646250Y-176530000D03*
D13*
X97504250Y-169545000D03*
D11*
X97504250Y-184785000D03*
D12*
X81756250Y-173990000D03*
X88106250Y-171450000D03*
%TD*%
D10*
%TO.C,SW22*%
X192405000Y-138430000D03*
D11*
X197485000Y-138430000D03*
D10*
X202565000Y-138430000D03*
D12*
X193675000Y-135890000D03*
X200025000Y-133350000D03*
%TD*%
D10*
%TO.C,SW52*%
X244792500Y-176530000D03*
D11*
X249872500Y-176530000D03*
D10*
X254952500Y-176530000D03*
D12*
X246062500Y-173990000D03*
X252412500Y-171450000D03*
%TD*%
D10*
%TO.C,SW3*%
X106680000Y-119380000D03*
D11*
X111760000Y-119380000D03*
D10*
X116840000Y-119380000D03*
D12*
X107950000Y-116840000D03*
X114300000Y-114300000D03*
%TD*%
D10*
%TO.C,SW19*%
X135255000Y-138430000D03*
D11*
X140335000Y-138430000D03*
D10*
X145415000Y-138430000D03*
D12*
X136525000Y-135890000D03*
X142875000Y-133350000D03*
%TD*%
D10*
%TO.C,SW56*%
X344805000Y-176530000D03*
D11*
X349885000Y-176530000D03*
D10*
X354965000Y-176530000D03*
D12*
X346075000Y-173990000D03*
X352425000Y-171450000D03*
%TD*%
D10*
%TO.C,SW51*%
X225742500Y-176530000D03*
D11*
X230822500Y-176530000D03*
D10*
X235902500Y-176530000D03*
D12*
X227012500Y-173990000D03*
X233362500Y-171450000D03*
%TD*%
D10*
%TO.C,SW31*%
X75723750Y-157480000D03*
D11*
X80803750Y-157480000D03*
D10*
X85883750Y-157480000D03*
D12*
X76993750Y-154940000D03*
X83343750Y-152400000D03*
%TD*%
D10*
%TO.C,SW9*%
X220980000Y-119380000D03*
D11*
X226060000Y-119380000D03*
D10*
X231140000Y-119380000D03*
D12*
X222250000Y-116840000D03*
X228600000Y-114300000D03*
%TD*%
D10*
%TO.C,SW15*%
X363855000Y-119380000D03*
D11*
X368935000Y-119380000D03*
D10*
X374015000Y-119380000D03*
D12*
X365125000Y-116840000D03*
X371475000Y-114300000D03*
%TD*%
D10*
%TO.C,SW61*%
X256698750Y-195580000D03*
D11*
X261778750Y-195580000D03*
D10*
X266858750Y-195580000D03*
D12*
X257968750Y-193040000D03*
X264318750Y-190500000D03*
%TD*%
D10*
%TO.C,SW49*%
X187642500Y-176530000D03*
D11*
X192722500Y-176530000D03*
D10*
X197802500Y-176530000D03*
D12*
X188912500Y-173990000D03*
X195262500Y-171450000D03*
%TD*%
D13*
%TO.C,SW60*%
X140341250Y-188595000D03*
D11*
X140341250Y-203835000D03*
D10*
X185261250Y-195580000D03*
D11*
X190341250Y-195580000D03*
D10*
X195421250Y-195580000D03*
D13*
X240341250Y-188595000D03*
D11*
X240341250Y-203835000D03*
D12*
X186531250Y-193040000D03*
X192881250Y-190500000D03*
%TD*%
D14*
%TO.C,U1*%
X41015000Y-111870000D03*
D15*
X41315000Y-114900000D03*
X46165000Y-114900000D03*
D14*
X46465000Y-111870000D03*
D16*
X34850000Y-111740000D03*
X34850000Y-114280000D03*
D17*
X34850000Y-116820000D03*
D16*
X34850000Y-119360000D03*
X34850000Y-121900000D03*
X34850000Y-124440000D03*
X34850000Y-126980000D03*
D17*
X34850000Y-129520000D03*
D16*
X34850000Y-132060000D03*
X34850000Y-134600000D03*
X34850000Y-137140000D03*
X34850000Y-139680000D03*
D17*
X34850000Y-142220000D03*
D16*
X34850000Y-144760000D03*
X34850000Y-147300000D03*
X34850000Y-149840000D03*
X34850000Y-152380000D03*
D17*
X34850000Y-154920000D03*
D16*
X34850000Y-157460000D03*
X34850000Y-160000000D03*
X52630000Y-160000000D03*
X52630000Y-157460000D03*
D17*
X52630000Y-154920000D03*
D16*
X52630000Y-152380000D03*
X52630000Y-149840000D03*
X52630000Y-147300000D03*
X52630000Y-144760000D03*
D17*
X52630000Y-142220000D03*
D16*
X52630000Y-139680000D03*
X52630000Y-137140000D03*
X52630000Y-134600000D03*
X52630000Y-132060000D03*
D17*
X52630000Y-129520000D03*
D16*
X52630000Y-126980000D03*
X52630000Y-124440000D03*
X52630000Y-121900000D03*
X52630000Y-119360000D03*
D17*
X52630000Y-116820000D03*
D16*
X52630000Y-114280000D03*
X52630000Y-111740000D03*
X41200000Y-159770000D03*
D17*
X43740000Y-159770000D03*
D16*
X46280000Y-159770000D03*
%TD*%
D10*
%TO.C,SW59*%
X113823750Y-195580000D03*
D11*
X118903750Y-195580000D03*
D10*
X123983750Y-195580000D03*
D12*
X115093750Y-193040000D03*
X121443750Y-190500000D03*
%TD*%
D10*
%TO.C,SW48*%
X168592500Y-176530000D03*
D11*
X173672500Y-176530000D03*
D10*
X178752500Y-176530000D03*
D12*
X169862500Y-173990000D03*
X176212500Y-171450000D03*
%TD*%
D10*
%TO.C,SW30*%
X363855000Y-138430000D03*
D11*
X368935000Y-138430000D03*
D10*
X374015000Y-138430000D03*
D12*
X365125000Y-135890000D03*
X371475000Y-133350000D03*
%TD*%
D10*
%TO.C,SW6*%
X163830000Y-119380000D03*
D11*
X168910000Y-119380000D03*
D10*
X173990000Y-119380000D03*
D12*
X165100000Y-116840000D03*
X171450000Y-114300000D03*
%TD*%
D10*
%TO.C,SW41*%
X273367500Y-157480000D03*
D11*
X278447500Y-157480000D03*
D10*
X283527500Y-157480000D03*
D12*
X274637500Y-154940000D03*
X280987500Y-152400000D03*
%TD*%
D10*
%TO.C,SW16*%
X73342500Y-138430000D03*
D11*
X78422500Y-138430000D03*
D10*
X83502500Y-138430000D03*
D12*
X74612500Y-135890000D03*
X80962500Y-133350000D03*
%TD*%
D10*
%TO.C,SW23*%
X211455000Y-138430000D03*
D11*
X216535000Y-138430000D03*
D10*
X221615000Y-138430000D03*
D12*
X212725000Y-135890000D03*
X219075000Y-133350000D03*
%TD*%
D18*
%TO.C,D47*%
X163812500Y-179800000D03*
D19*
X163812500Y-172180000D03*
%TD*%
D18*
%TO.C,D27*%
X301925000Y-141700000D03*
D19*
X301925000Y-134080000D03*
%TD*%
D18*
%TO.C,D37*%
X211437500Y-160750000D03*
D19*
X211437500Y-153130000D03*
%TD*%
D18*
%TO.C,D2*%
X82850000Y-122650000D03*
D19*
X82850000Y-115030000D03*
%TD*%
D18*
%TO.C,D54*%
X297162500Y-179800000D03*
D19*
X297162500Y-172180000D03*
%TD*%
D18*
%TO.C,D1*%
X101900000Y-122650000D03*
D19*
X101900000Y-115030000D03*
%TD*%
D18*
%TO.C,D13*%
X311450000Y-122650000D03*
D19*
X311450000Y-115030000D03*
%TD*%
D18*
%TO.C,D12*%
X292400000Y-122650000D03*
D19*
X292400000Y-115030000D03*
%TD*%
D18*
%TO.C,D6*%
X178100000Y-122650000D03*
D19*
X178100000Y-115030000D03*
%TD*%
D18*
%TO.C,D55*%
X328118750Y-179800000D03*
D19*
X328118750Y-172180000D03*
%TD*%
D18*
%TO.C,D56*%
X359075000Y-179800000D03*
D19*
X359075000Y-172180000D03*
%TD*%
D18*
%TO.C,D16*%
X87612500Y-141700000D03*
D19*
X87612500Y-134080000D03*
%TD*%
D18*
%TO.C,D5*%
X159050000Y-122650000D03*
D19*
X159050000Y-115030000D03*
%TD*%
D18*
%TO.C,D19*%
X149525000Y-141700000D03*
D19*
X149525000Y-134080000D03*
%TD*%
D18*
%TO.C,D38*%
X230487500Y-160750000D03*
D19*
X230487500Y-153130000D03*
%TD*%
D18*
%TO.C,D49*%
X201912500Y-179800000D03*
D19*
X201912500Y-172180000D03*
%TD*%
D18*
%TO.C,D31*%
X89993750Y-160750000D03*
D19*
X89993750Y-153130000D03*
%TD*%
D18*
%TO.C,D9*%
X235250000Y-122650000D03*
D19*
X235250000Y-115030000D03*
%TD*%
D18*
%TO.C,D50*%
X220962500Y-179800000D03*
D19*
X220962500Y-172180000D03*
%TD*%
D18*
%TO.C,D24*%
X244775000Y-141700000D03*
D19*
X244775000Y-134080000D03*
%TD*%
D18*
%TO.C,D25*%
X263825000Y-141700000D03*
D19*
X263825000Y-134080000D03*
%TD*%
D18*
%TO.C,D21*%
X187625000Y-141700000D03*
D19*
X187625000Y-134080000D03*
%TD*%
D18*
%TO.C,D61*%
X270968750Y-198850000D03*
D19*
X270968750Y-191230000D03*
%TD*%
D18*
%TO.C,D51*%
X240012500Y-179800000D03*
D19*
X240012500Y-172180000D03*
%TD*%
D18*
%TO.C,D52*%
X259062500Y-179800000D03*
D19*
X259062500Y-172180000D03*
%TD*%
D18*
%TO.C,D3*%
X120950000Y-122650000D03*
D19*
X120950000Y-115030000D03*
%TD*%
D18*
%TO.C,D39*%
X249537500Y-160750000D03*
D19*
X249537500Y-153130000D03*
%TD*%
D18*
%TO.C,D63*%
X318593750Y-198850000D03*
D19*
X318593750Y-191230000D03*
%TD*%
D18*
%TO.C,D59*%
X128093750Y-198850000D03*
D19*
X128093750Y-191230000D03*
%TD*%
D18*
%TO.C,D17*%
X111425000Y-141700000D03*
D19*
X111425000Y-134080000D03*
%TD*%
D18*
%TO.C,D33*%
X135237500Y-160750000D03*
D19*
X135237500Y-153130000D03*
%TD*%
D18*
%TO.C,D58*%
X106662500Y-198850000D03*
D19*
X106662500Y-191230000D03*
%TD*%
D18*
%TO.C,D7*%
X197150000Y-122650000D03*
D19*
X197150000Y-115030000D03*
%TD*%
D18*
%TO.C,D26*%
X282875000Y-141700000D03*
D19*
X282875000Y-134080000D03*
%TD*%
D18*
%TO.C,D20*%
X168575000Y-141700000D03*
D19*
X168575000Y-134080000D03*
%TD*%
D18*
%TO.C,D15*%
X378125000Y-122650000D03*
D19*
X378125000Y-115030000D03*
%TD*%
D18*
%TO.C,D4*%
X140000000Y-122650000D03*
D19*
X140000000Y-115030000D03*
%TD*%
D18*
%TO.C,D65*%
X359075000Y-198850000D03*
D19*
X359075000Y-191230000D03*
%TD*%
D18*
%TO.C,D8*%
X216200000Y-122650000D03*
D19*
X216200000Y-115030000D03*
%TD*%
D18*
%TO.C,D14*%
X340025000Y-122650000D03*
D19*
X340025000Y-115030000D03*
%TD*%
D18*
%TO.C,D62*%
X294781250Y-198850000D03*
D19*
X294781250Y-191230000D03*
%TD*%
D18*
%TO.C,D30*%
X378125000Y-141700000D03*
D19*
X378125000Y-134080000D03*
%TD*%
D18*
%TO.C,D36*%
X192387500Y-160750000D03*
D19*
X192387500Y-153130000D03*
%TD*%
D18*
%TO.C,D35*%
X173337500Y-160750000D03*
D19*
X173337500Y-153130000D03*
%TD*%
D18*
%TO.C,D34*%
X154287500Y-160750000D03*
D19*
X154287500Y-153130000D03*
%TD*%
D18*
%TO.C,D43*%
X337643750Y-160750000D03*
D19*
X337643750Y-153130000D03*
%TD*%
D18*
%TO.C,D48*%
X182862500Y-179800000D03*
D19*
X182862500Y-172180000D03*
%TD*%
D18*
%TO.C,D57*%
X85231250Y-198850000D03*
D19*
X85231250Y-191230000D03*
%TD*%
D18*
%TO.C,D66*%
X378125000Y-198850000D03*
D19*
X378125000Y-191230000D03*
%TD*%
D18*
%TO.C,D40*%
X268587500Y-160750000D03*
D19*
X268587500Y-153130000D03*
%TD*%
D18*
%TO.C,D44*%
X94756250Y-179800000D03*
D19*
X94756250Y-172180000D03*
%TD*%
D18*
%TO.C,D41*%
X287637500Y-160750000D03*
D19*
X287637500Y-153130000D03*
%TD*%
D18*
%TO.C,D32*%
X116187500Y-160750000D03*
D19*
X116187500Y-153130000D03*
%TD*%
D18*
%TO.C,D11*%
X273350000Y-122650000D03*
D19*
X273350000Y-115030000D03*
%TD*%
D18*
%TO.C,D29*%
X344787500Y-141700000D03*
D19*
X344787500Y-134080000D03*
%TD*%
D18*
%TO.C,D22*%
X206675000Y-141700000D03*
D19*
X206675000Y-134080000D03*
%TD*%
D18*
%TO.C,D23*%
X225725000Y-141700000D03*
D19*
X225725000Y-134080000D03*
%TD*%
D18*
%TO.C,D42*%
X306687500Y-160750000D03*
D19*
X306687500Y-153130000D03*
%TD*%
D18*
%TO.C,D64*%
X340025000Y-198850000D03*
D19*
X340025000Y-191230000D03*
%TD*%
D18*
%TO.C,D10*%
X254300000Y-122650000D03*
D19*
X254300000Y-115030000D03*
%TD*%
D18*
%TO.C,D18*%
X130475000Y-141700000D03*
D19*
X130475000Y-134080000D03*
%TD*%
D18*
%TO.C,D53*%
X278112500Y-179800000D03*
D19*
X278112500Y-172180000D03*
%TD*%
D18*
%TO.C,D45*%
X125712500Y-179800000D03*
D19*
X125712500Y-172180000D03*
%TD*%
D18*
%TO.C,D46*%
X144762500Y-179800000D03*
D19*
X144762500Y-172180000D03*
%TD*%
D18*
%TO.C,D60*%
X199531250Y-198850000D03*
D19*
X199531250Y-191230000D03*
%TD*%
D18*
%TO.C,D28*%
X320975000Y-141700000D03*
D19*
X320975000Y-134080000D03*
%TD*%
M02*
