M48
; DRILL file {KiCad 8.0.8} date 2025-02-12T11:09:12-0500
; FORMAT={-:-/ absolute / metric / decimal}
; #@! TF.CreationDate,2025-02-12T11:09:12-05:00
; #@! TF.GenerationSoftware,Kicad,Pcbnew,8.0.8
; #@! TF.FileFunction,Plated,1,2,PTH
FMAT,2
METRIC
; #@! TA.AperFunction,Plated,PTH,ViaDrill
T1C0.300
; #@! TA.AperFunction,Plated,PTH,ComponentDrill
T2C0.800
; #@! TA.AperFunction,Plated,PTH,ComponentDrill
T3C0.889
; #@! TA.AperFunction,Plated,PTH,ComponentDrill
T4C1.000
; #@! TA.AperFunction,Plated,PTH,ComponentDrill
T5C1.500
%
G90
G05
T1
X47.0Y-55.5
X53.5Y-46.5
X58.5Y-55.0
X70.0Y-44.0
X85.5Y-60.5
X103.5Y-75.5
X109.127Y-53.872
X115.351Y-54.351
X117.601Y-54.601
X121.0Y-48.703
X122.0Y-50.203
T2
X74.0Y-38.0
X74.0Y-45.62
X76.731Y-36.0
X76.731Y-43.62
X79.731Y-38.0
X79.731Y-45.62
X82.731Y-40.0
X82.731Y-47.62
X85.731Y-38.0
X85.731Y-45.62
X88.731Y-36.0
X88.731Y-43.62
X91.731Y-38.0
X91.731Y-45.62
X94.731Y-40.0
X94.731Y-47.62
X97.731Y-38.0
X97.731Y-45.62
X100.731Y-36.0
X100.731Y-43.62
X103.731Y-38.0
X103.731Y-45.62
X106.731Y-40.0
X106.731Y-47.62
X109.731Y-38.0
X109.731Y-45.62
X112.731Y-36.0
X112.731Y-43.62
X115.731Y-38.0
X115.731Y-45.62
X118.731Y-40.0
X118.731Y-47.62
T3
X51.0Y-33.0
X51.0Y-35.54
X51.0Y-38.08
X51.0Y-40.62
X51.0Y-43.16
X51.0Y-45.7
X51.0Y-48.24
X66.24Y-33.0
X66.24Y-35.54
X66.24Y-38.08
X66.24Y-40.62
X66.24Y-43.16
X66.24Y-45.7
X66.24Y-48.24
T4
X111.229Y-55.974
X111.229Y-70.474
X113.729Y-55.974
X116.229Y-55.974
X116.229Y-70.474
T5
X52.65Y-60.79
X52.65Y-79.84
X52.65Y-98.89
X52.65Y-117.94
X59.0Y-58.25
X59.0Y-77.3
X59.0Y-96.35
X59.0Y-115.4
X71.7Y-60.79
X71.7Y-79.84
X71.7Y-98.89
X71.7Y-117.94
X78.05Y-58.25
X78.05Y-77.3
X78.05Y-96.35
X78.05Y-115.4
X90.75Y-60.79
X90.75Y-79.84
X90.75Y-98.89
X90.75Y-117.94
X97.1Y-58.25
X97.1Y-77.3
X97.1Y-96.35
X97.1Y-115.4
X109.8Y-79.84
X109.8Y-98.89
X109.8Y-117.94
X116.15Y-77.3
X116.15Y-96.35
X116.15Y-115.4
T5
G00X108.129Y-62.824
M15
G01X108.129Y-64.124
M16
G05
G00X119.329Y-62.824
M15
G01X119.329Y-64.124
M16
G05
M30
