G04 Layer: TopSolderMaskLayer*
G04 EasyEDA v6.5.46, 2024-09-20 13:26:03*
G04 2d8f00c50ae54bd9acad4b1cc035e29b,c0cefccd67054bf09917bfb35b18985a,10*
G04 Gerber Generator version 0.2*
G04 Scale: 100 percent, Rotated: No, Reflected: No *
G04 Dimensions in millimeters *
G04 leading zeros omitted , absolute positions ,4 integer and 5 decimal *
%FSLAX45Y45*%
%MOMM*%

%AMMACRO1*4,1,8,-0.4961,-0.6258,-0.5258,-0.596,-0.5258,0.5961,-0.4961,0.6258,0.496,0.6258,0.5258,0.5961,0.5258,-0.596,0.496,-0.6258,-0.4961,-0.6258,0*%
%ADD10C,1.5016*%
%ADD11MACRO1*%
%ADD12C,1.7016*%
%ADD13C,2.4032*%
%ADD14C,1.9016*%
%ADD15O,2.5015952X3.9015924*%

%LPD*%
D10*
G01*
X4421606Y4597400D03*
G01*
X3401593Y4597400D03*
G01*
X3354806Y2603500D03*
G01*
X2334793Y2603500D03*
G01*
X1945106Y6629400D03*
G01*
X925093Y6629400D03*
G01*
X2008606Y2616200D03*
G01*
X988593Y2616200D03*
D11*
G01*
X5300040Y4546600D03*
G01*
X4961559Y4546600D03*
G01*
X5020640Y635000D03*
G01*
X4682159Y635000D03*
G01*
X1667840Y4559300D03*
G01*
X1329359Y4559300D03*
G01*
X6443040Y4546600D03*
G01*
X6104559Y4546600D03*
G01*
X3852240Y635000D03*
G01*
X3513759Y635000D03*
G01*
X5007940Y2616200D03*
G01*
X4669459Y2616200D03*
G01*
X6544640Y2590800D03*
G01*
X6206159Y2590800D03*
G01*
X3014040Y647700D03*
G01*
X2675559Y647700D03*
G01*
X2975940Y4559300D03*
G01*
X2637459Y4559300D03*
D12*
G01*
X1041400Y7124700D03*
G01*
X1041400Y7378700D03*
G01*
X1041400Y7632700D03*
G01*
X1041400Y7886700D03*
D13*
G01*
X1447800Y5880100D03*
G01*
X2082800Y6134100D03*
G01*
X3467100Y3860800D03*
G01*
X4102100Y4114800D03*
G01*
X5473700Y3860800D03*
G01*
X6108700Y4114800D03*
G01*
X5473700Y5892800D03*
G01*
X6108700Y6146800D03*
G01*
X5448300Y1879600D03*
G01*
X6083300Y2133600D03*
G01*
X1447800Y1879600D03*
G01*
X2082800Y2133600D03*
G01*
X3467100Y1879600D03*
G01*
X4102100Y2133600D03*
G01*
X3492500Y5892800D03*
G01*
X4127500Y6146800D03*
G01*
X1422400Y3860800D03*
G01*
X2057400Y4114800D03*
D14*
G01*
X5731713Y8129092D03*
G01*
X6231712Y8129092D03*
G01*
X5731713Y6679107D03*
G01*
X5981700Y6679107D03*
G01*
X6231712Y6679107D03*
D15*
G01*
X5411698Y7429093D03*
G01*
X6551701Y7429093D03*
M02*
