G04 Layer: TopLayer*
G04 EasyEDA v6.5.46, 2024-09-20 13:26:03*
G04 2d8f00c50ae54bd9acad4b1cc035e29b,c0cefccd67054bf09917bfb35b18985a,10*
G04 Gerber Generator version 0.2*
G04 Scale: 100 percent, Rotated: No, Reflected: No *
G04 Dimensions in millimeters *
G04 leading zeros omitted , absolute positions ,4 integer and 5 decimal *
%FSLAX45Y45*%
%MOMM*%

%ADD10C,0.2540*%
%ADD11R,0.9500X1.1500*%
%ADD12C,1.4000*%
%ADD13C,1.6000*%
%ADD14C,2.2000*%
%ADD15C,1.8000*%
%ADD16O,2.3999952X3.7999924*%
%ADD17C,0.6096*%

%LPD*%
D10*
X2057405Y4114800D02*
G01*
X2454889Y3717315D01*
X2454889Y1131392D01*
X2938581Y647700D01*
X3014045Y647700D02*
G01*
X2938581Y647700D01*
X6108705Y4114800D02*
G01*
X6108705Y2951276D01*
X6469181Y2590800D01*
X6544645Y2590800D02*
G01*
X6469181Y2590800D01*
X4127505Y6146800D02*
G01*
X4127505Y5181041D01*
X4847544Y4461002D01*
X4847544Y3939006D01*
X5489097Y3297453D01*
X5489097Y2307361D01*
X5590265Y2206193D01*
X5590265Y1819884D01*
X5503448Y1733067D01*
X5399562Y1733067D01*
X5007945Y2124684D01*
X5007945Y2616200D01*
X6083305Y2133600D02*
G01*
X5996310Y2133600D01*
X5287878Y1425168D01*
X5287878Y755929D01*
X5081351Y549402D01*
X4013306Y549402D01*
X3927708Y635000D01*
X3852245Y635000D02*
G01*
X3927708Y635000D01*
X5731718Y8129092D02*
G01*
X5681299Y8179511D01*
X4716048Y8179511D01*
X4366315Y7829778D01*
X4366315Y7019797D01*
X5473705Y5892800D02*
G01*
X5473705Y3860800D01*
X3517117Y4706162D02*
G01*
X4469516Y4706162D01*
X4806751Y4368927D01*
X4806751Y3857066D01*
X5448305Y3215512D01*
X5448305Y1879600D01*
X3467105Y3860800D02*
G01*
X3517117Y3910812D01*
X3517117Y4706162D01*
X3517117Y4706162D02*
G01*
X3517117Y5868187D01*
X3492505Y5892800D01*
X1447805Y1879600D02*
G01*
X1568455Y2000250D01*
X1568455Y5759450D01*
X1447805Y5880100D01*
X2798424Y6442075D02*
G01*
X2798424Y6989292D01*
X3324230Y7515097D01*
X5981705Y6679107D02*
G01*
X5981705Y7879079D01*
X6231717Y8129092D01*
X3354811Y2603500D02*
G01*
X3354811Y3436061D01*
X3874622Y3955872D01*
X3874622Y4101058D01*
X4370964Y4597400D01*
X4421611Y4597400D01*
X2008611Y2616200D02*
G01*
X2040260Y2647848D01*
X2040260Y3710965D01*
X1918797Y3832428D01*
X1918797Y4239336D01*
X2063170Y4383709D01*
X2063170Y5732754D01*
X1930862Y5865063D01*
X1930862Y6615150D01*
X1945111Y6629400D01*
X1041405Y7886700D02*
G01*
X1561292Y7366812D01*
X1561292Y6886575D01*
X2334798Y2603500D02*
G01*
X2334798Y1782775D01*
X2975945Y4559300D02*
G01*
X3051408Y4559300D01*
X3051408Y4559300D02*
G01*
X3051408Y4824729D01*
X6443045Y4546600D02*
G01*
X6443045Y4271010D01*
X1329364Y4559300D02*
G01*
X1253901Y4559300D01*
X2659715Y647700D02*
G01*
X2600101Y647700D01*
X2659715Y647700D02*
G01*
X2664211Y647700D01*
X2675564Y647700D02*
G01*
X2664211Y647700D01*
X1198351Y4559300D02*
G01*
X1253901Y4559300D01*
X1198351Y4559300D02*
G01*
X1198351Y6034531D01*
X2932917Y7769097D01*
X3327455Y7769097D01*
X2600101Y647700D02*
G01*
X2465760Y647700D01*
X1173612Y1939848D01*
X1173612Y4534560D01*
X1198351Y4559300D01*
X4669464Y2418867D02*
G01*
X4669464Y2616200D01*
X3312876Y2418867D02*
G01*
X3312876Y1838274D01*
X3589355Y1561795D01*
X3589355Y556793D01*
X3581963Y549402D01*
X2849326Y549402D01*
X2751028Y647700D01*
X2675564Y647700D02*
G01*
X2751028Y647700D01*
X1929922Y4333290D02*
G01*
X1743308Y4519904D01*
X1743308Y4559300D01*
X1667845Y4559300D02*
G01*
X1743308Y4559300D01*
X4102105Y2133600D02*
G01*
X3682751Y2133600D01*
X3018871Y2797479D01*
X3018871Y4333290D01*
X3476045Y635000D02*
G01*
X3438301Y635000D01*
X3438301Y635000D02*
G01*
X2664261Y1409039D01*
X2664261Y4559300D01*
X2637464Y4559300D02*
G01*
X2664261Y4559300D01*
X2664261Y4559300D02*
G01*
X2664261Y6225082D01*
X4366315Y7927136D01*
X4366315Y7963280D01*
X4682164Y793114D02*
G01*
X4682164Y635000D01*
X3479652Y635000D02*
G01*
X3479652Y793114D01*
X3476045Y635000D02*
G01*
X3479652Y635000D01*
X3479652Y635000D02*
G01*
X3513764Y635000D01*
X5020645Y635000D02*
G01*
X4945181Y635000D01*
X4557882Y1916023D02*
G01*
X4557882Y1022299D01*
X4945181Y635000D01*
X6206164Y2590800D02*
G01*
X6130701Y2590800D01*
X6104564Y4546600D02*
G01*
X6029101Y4546600D01*
X6130701Y2590800D02*
G01*
X5624835Y3096666D01*
X5624835Y3722522D01*
X5624835Y3722522D02*
G01*
X5624835Y4142333D01*
X6029101Y4546600D01*
X5624835Y3722522D02*
G01*
X5416707Y3722522D01*
X4961564Y4177664D01*
X4961564Y4546600D01*
X4961564Y4546600D02*
G01*
X4886101Y4546600D01*
X4751354Y8114284D02*
G01*
X4751354Y4681346D01*
X4886101Y4546600D01*
X5224581Y4546600D02*
G01*
X5224581Y4556785D01*
X4822703Y4958664D01*
X5300045Y4546600D02*
G01*
X5224581Y4546600D01*
D11*
G01*
X5300040Y4546600D03*
G01*
X4961559Y4546600D03*
G01*
X5020640Y635000D03*
G01*
X4682159Y635000D03*
G01*
X1667840Y4559300D03*
G01*
X1329359Y4559300D03*
G01*
X6443040Y4546600D03*
G01*
X6104559Y4546600D03*
G01*
X3852240Y635000D03*
G01*
X3513759Y635000D03*
G01*
X5007940Y2616200D03*
G01*
X4669459Y2616200D03*
G01*
X6544640Y2590800D03*
G01*
X6206159Y2590800D03*
G01*
X3014040Y647700D03*
G01*
X2675559Y647700D03*
G01*
X2975940Y4559300D03*
G01*
X2637459Y4559300D03*
D12*
G01*
X4421606Y4597400D03*
G01*
X3401593Y4597400D03*
G01*
X3354806Y2603500D03*
G01*
X2334793Y2603500D03*
G01*
X1945106Y6629400D03*
G01*
X925093Y6629400D03*
G01*
X2008606Y2616200D03*
G01*
X988593Y2616200D03*
D13*
G01*
X1041400Y7124700D03*
G01*
X1041400Y7378700D03*
G01*
X1041400Y7632700D03*
G01*
X1041400Y7886700D03*
D14*
G01*
X1447800Y5880100D03*
G01*
X2082800Y6134100D03*
G01*
X3467100Y3860800D03*
G01*
X4102100Y4114800D03*
G01*
X5473700Y3860800D03*
G01*
X6108700Y4114800D03*
G01*
X5473700Y5892800D03*
G01*
X6108700Y6146800D03*
G01*
X5448300Y1879600D03*
G01*
X6083300Y2133600D03*
G01*
X1447800Y1879600D03*
G01*
X2082800Y2133600D03*
G01*
X3467100Y1879600D03*
G01*
X4102100Y2133600D03*
G01*
X3492500Y5892800D03*
G01*
X4127500Y6146800D03*
G01*
X1422400Y3860800D03*
G01*
X2057400Y4114800D03*
D15*
G01*
X5731713Y8129092D03*
G01*
X6231712Y8129092D03*
G01*
X5731713Y6679107D03*
G01*
X5981700Y6679107D03*
G01*
X6231712Y6679107D03*
D16*
G01*
X5411698Y7429093D03*
G01*
X6551701Y7429093D03*
D17*
G01*
X4822703Y4958664D03*
G01*
X4751354Y8114284D03*
G01*
X4557882Y1916023D03*
G01*
X4682164Y793114D03*
G01*
X3479652Y793114D03*
G01*
X4366315Y7963280D03*
G01*
X1929922Y4333290D03*
G01*
X3018871Y4333290D03*
G01*
X4669464Y2418867D03*
G01*
X3312876Y2418867D03*
G01*
X3327455Y7769097D03*
G01*
X6443045Y4271010D03*
G01*
X3051408Y4824729D03*
G01*
X2334798Y1782775D03*
G01*
X1561292Y6886575D03*
G01*
X2798424Y6442075D03*
G01*
X3324230Y7515097D03*
G01*
X4366315Y7019797D03*
M02*
