G04 Layer: BottomLayer*
G04 EasyEDA v6.5.46, 2024-09-20 13:26:03*
G04 2d8f00c50ae54bd9acad4b1cc035e29b,c0cefccd67054bf09917bfb35b18985a,10*
G04 Gerber Generator version 0.2*
G04 Scale: 100 percent, Rotated: No, Reflected: No *
G04 Dimensions in millimeters *
G04 leading zeros omitted , absolute positions ,4 integer and 5 decimal *
%FSLAX45Y45*%
%MOMM*%

%AMMACRO1*21,1,$1,$2,0,0,$3*%
%ADD10C,0.2540*%
%ADD11MACRO1,1.3X1.8X-90.0000*%
%ADD12MACRO1,1.3X1.8X90.0000*%
%ADD13O,3.4999930000000004X1.7500092*%
%ADD14C,1.4000*%
%ADD15C,1.6000*%
%ADD16C,2.2000*%
%ADD17C,1.8000*%
%ADD18O,2.3999952X3.7999924*%
%ADD19C,0.6096*%

%LPD*%
D10*
X5981705Y6679107D02*
G01*
X6508043Y6152769D01*
X6508043Y4250944D01*
X6204488Y3947388D01*
X5854324Y3947388D01*
X5380106Y3473170D01*
X5184526Y3473170D01*
X5144241Y3513480D01*
X5731718Y6679107D02*
G01*
X5731718Y6749338D01*
X5104363Y7376693D01*
X3217702Y7376693D01*
X3102107Y7261097D01*
X3102107Y7019797D02*
G01*
X4366315Y7019797D01*
X5473705Y5892800D02*
G01*
X3728013Y5892800D01*
X3581532Y5746318D01*
X3443762Y5746318D01*
X3102107Y6087973D01*
X3102107Y6753097D01*
X5473705Y3860800D02*
G01*
X4153082Y3860800D01*
X3800784Y4213097D01*
X3800784Y4341596D01*
X3439596Y4702784D01*
X2216612Y4702784D01*
X1422405Y3908577D01*
X1422405Y3860800D01*
X3492505Y5892800D02*
G01*
X4352803Y6753097D01*
X4969007Y6753097D01*
X3467105Y1879600D02*
G01*
X1447805Y1879600D01*
X2798424Y6442075D02*
G01*
X2009780Y6442075D01*
X1447805Y5880100D01*
X4969007Y7515097D02*
G01*
X3324230Y7515097D01*
X4969007Y7019797D02*
G01*
X4848357Y7140447D01*
X1533657Y7140447D01*
X1041405Y7632700D01*
X988598Y2616200D02*
G01*
X1470766Y3098368D01*
X4097609Y3098368D01*
X4620950Y3621709D01*
X4826005Y3621709D01*
X925098Y6629400D02*
G01*
X882401Y6586702D01*
X882401Y2249423D01*
X1851334Y1280490D01*
X4838705Y1280490D01*
X2844805Y3672509D02*
G01*
X2844805Y4040606D01*
X3401598Y4597400D01*
X1041405Y7124700D02*
G01*
X879835Y7286269D01*
X879835Y7950657D01*
X982273Y8053095D01*
X3084809Y8053095D01*
X3102107Y8035797D01*
X3102107Y8035797D02*
G01*
X3233171Y7904734D01*
X6007359Y7904734D01*
X6231717Y8129092D01*
X4838705Y1640509D02*
G01*
X4838705Y1733473D01*
X4838705Y3261690D02*
G01*
X4826005Y3261690D01*
X4838705Y1853692D02*
G01*
X3732204Y1853692D01*
X3611580Y1733067D01*
X3418362Y1733067D01*
X3383920Y1767509D01*
X2857505Y1767509D01*
X4838705Y3261690D02*
G01*
X4838705Y1853692D01*
X4838705Y1853692D02*
G01*
X4838705Y1733473D01*
X4838705Y3261690D02*
G01*
X4892451Y3261690D01*
X5144241Y3513480D01*
X5144241Y3513480D02*
G01*
X4934412Y3723284D01*
X4664842Y3723284D01*
X4254047Y3312490D01*
X2844805Y3312490D01*
X3102107Y7515097D02*
G01*
X3229107Y7642097D01*
X5096362Y7642097D01*
X5194152Y7544308D01*
X5194152Y7355001D01*
X5636798Y6912355D01*
X5998469Y6912355D01*
X6231717Y6679107D01*
X3102107Y8289797D02*
G01*
X2935483Y8123173D01*
X979073Y8123173D01*
X832718Y7976819D01*
X832718Y7175652D01*
X1378971Y6629400D01*
X1945111Y6629400D01*
X2008611Y2616200D02*
G01*
X2120244Y2504567D01*
X3255878Y2504567D01*
X3354811Y2603500D01*
X4969007Y7261097D02*
G01*
X4992375Y7261097D01*
X5178328Y7075144D01*
X5178328Y6972528D01*
X5092374Y6886575D01*
X1561292Y6886575D01*
X1041405Y7378700D02*
G01*
X930203Y7489901D01*
X930203Y7930311D01*
X1000663Y8000771D01*
X2870433Y8000771D01*
X3102107Y7769097D01*
X2857505Y1407490D02*
G01*
X2723977Y1407490D01*
X2348692Y1782775D01*
X2334798Y1782775D01*
X3051408Y4824729D02*
G01*
X4771598Y4824729D01*
X4881250Y4934381D01*
X4881250Y4987925D01*
X6040125Y6146800D01*
X6108705Y6146800D01*
X4102105Y4114800D02*
G01*
X4258315Y4271010D01*
X6443045Y4271010D01*
X4969007Y7769097D02*
G01*
X3327455Y7769097D01*
X4669464Y2418867D02*
G01*
X3312876Y2418867D01*
X1929922Y4333290D02*
G01*
X3018871Y4333290D01*
X4366315Y7963280D02*
G01*
X4896490Y7963280D01*
X4969007Y8035797D01*
X4682164Y793114D02*
G01*
X3479652Y793114D01*
X2082805Y2133600D02*
G01*
X3662685Y2133600D01*
X3880261Y1916023D01*
X4557882Y1916023D01*
X4969007Y8289797D02*
G01*
X4926868Y8289797D01*
X4751354Y8114284D01*
X4822703Y4958664D02*
G01*
X3258240Y4958664D01*
X2082805Y6134100D01*
D11*
G01*
X2844800Y3312490D03*
D12*
G01*
X2844800Y3672509D03*
G01*
X2857500Y1767509D03*
D11*
G01*
X2857500Y1407490D03*
D12*
G01*
X4838700Y1640509D03*
D11*
G01*
X4838700Y1280490D03*
G01*
X4826000Y3261690D03*
D12*
G01*
X4826000Y3621709D03*
D13*
G01*
X3102102Y8289797D03*
G01*
X3102102Y6753097D03*
G01*
X3102102Y8035797D03*
G01*
X3102102Y7769097D03*
G01*
X3102102Y7515097D03*
G01*
X3102102Y7261097D03*
G01*
X3102102Y7019797D03*
G01*
X4969002Y8289797D03*
G01*
X4969002Y8035797D03*
G01*
X4969002Y7769097D03*
G01*
X4969002Y7515097D03*
G01*
X4969002Y7261097D03*
G01*
X4969002Y7019797D03*
G01*
X4969002Y6753097D03*
D14*
G01*
X4421606Y4597400D03*
G01*
X3401593Y4597400D03*
G01*
X3354806Y2603500D03*
G01*
X2334793Y2603500D03*
G01*
X1945106Y6629400D03*
G01*
X925093Y6629400D03*
G01*
X2008606Y2616200D03*
G01*
X988593Y2616200D03*
D15*
G01*
X1041400Y7124700D03*
G01*
X1041400Y7378700D03*
G01*
X1041400Y7632700D03*
G01*
X1041400Y7886700D03*
D16*
G01*
X1447800Y5880100D03*
G01*
X2082800Y6134100D03*
G01*
X3467100Y3860800D03*
G01*
X4102100Y4114800D03*
G01*
X5473700Y3860800D03*
G01*
X6108700Y4114800D03*
G01*
X5473700Y5892800D03*
G01*
X6108700Y6146800D03*
G01*
X5448300Y1879600D03*
G01*
X6083300Y2133600D03*
G01*
X1447800Y1879600D03*
G01*
X2082800Y2133600D03*
G01*
X3467100Y1879600D03*
G01*
X4102100Y2133600D03*
G01*
X3492500Y5892800D03*
G01*
X4127500Y6146800D03*
G01*
X1422400Y3860800D03*
G01*
X2057400Y4114800D03*
D17*
G01*
X5731713Y8129092D03*
G01*
X6231712Y8129092D03*
G01*
X5731713Y6679107D03*
G01*
X5981700Y6679107D03*
G01*
X6231712Y6679107D03*
D18*
G01*
X5411698Y7429093D03*
G01*
X6551701Y7429093D03*
D19*
G01*
X4822703Y4958664D03*
G01*
X4751354Y8114284D03*
G01*
X4557882Y1916023D03*
G01*
X4682164Y793114D03*
G01*
X3479652Y793114D03*
G01*
X4366315Y7963280D03*
G01*
X1929922Y4333290D03*
G01*
X3018871Y4333290D03*
G01*
X4669464Y2418867D03*
G01*
X3312876Y2418867D03*
G01*
X3327455Y7769097D03*
G01*
X6443045Y4271010D03*
G01*
X3051408Y4824729D03*
G01*
X2334798Y1782775D03*
G01*
X1561292Y6886575D03*
G01*
X2798424Y6442075D03*
G01*
X3324230Y7515097D03*
G01*
X4366315Y7019797D03*
M02*
