<svg width="3840" height="4317" viewBox="0 0 3840 4317" fill="none" xmlns="http://www.w3.org/2000/svg">
<g clip-path="url(#clip0_146_13)">
<rect width="3840" height="4317" fill="white"/>
<g clip-path="url(#clip1_146_13)">
<g clip-path="url(#clip2_146_13)">
<g opacity="0.1">
<path d="M0 0H3840V1H0V0Z" fill="black"/>
<path d="M0 75H3840V76H0V75Z" fill="black"/>
<path d="M0 150H3840V151H0V150Z" fill="black"/>
<path d="M0 225H3840V226H0V225Z" fill="black"/>
<path d="M0 300H3840V301H0V300Z" fill="black"/>
<path d="M0 375H3840V376H0V375Z" fill="black"/>
<path d="M0 450H3840V451H0V450Z" fill="black"/>
<path d="M0 525H3840V526H0V525Z" fill="black"/>
<path d="M0 600H3840V601H0V600Z" fill="black"/>
<path d="M0 675H3840V676H0V675Z" fill="black"/>
<path d="M0 750H3840V751H0V750Z" fill="black"/>
<path d="M0 825H3840V826H0V825Z" fill="black"/>
<path d="M0 900H3840V901H0V900Z" fill="black"/>
<path d="M0 975H3840V976H0V975Z" fill="black"/>
<path d="M0 1050H3840V1051H0V1050Z" fill="black"/>
<path d="M0 1125H3840V1126H0V1125Z" fill="black"/>
<path d="M0 1200H3840V1201H0V1200Z" fill="black"/>
<path d="M0 1275H3840V1276H0V1275Z" fill="black"/>
<path d="M0 1350H3840V1351H0V1350Z" fill="black"/>
<path d="M0 1425H3840V1426H0V1425Z" fill="black"/>
<path d="M0 1500H3840V1501H0V1500Z" fill="black"/>
<path d="M0 1575H3840V1576H0V1575Z" fill="black"/>
<path d="M0 1650H3840V1651H0V1650Z" fill="black"/>
<path d="M0 1725H3840V1726H0V1725Z" fill="black"/>
<path d="M0 1800H3840V1801H0V1800Z" fill="black"/>
<path d="M0 1875H3840V1876H0V1875Z" fill="black"/>
<path d="M0 1950H3840V1951H0V1950Z" fill="black"/>
<path d="M0 2025H3840V2026H0V2025Z" fill="black"/>
<path d="M0 2100H3840V2101H0V2100Z" fill="black"/>
<path d="M0 2175H3840V2176H0V2175Z" fill="black"/>
<path d="M0 2250H3840V2251H0V2250Z" fill="black"/>
<path d="M0 2325H3840V2326H0V2325Z" fill="black"/>
<path d="M0 2400H3840V2401H0V2400Z" fill="black"/>
<path d="M0 2475H3840V2476H0V2475Z" fill="black"/>
<path d="M0 2550H3840V2551H0V2550Z" fill="black"/>
<path d="M0 2625H3840V2626H0V2625Z" fill="black"/>
<path d="M0 2700H3840V2701H0V2700Z" fill="black"/>
<path d="M0 2775H3840V2776H0V2775Z" fill="black"/>
<path d="M0 2850H3840V2851H0V2850Z" fill="black"/>
<path d="M0 2925H3840V2926H0V2925Z" fill="black"/>
<path d="M0 3000H3840V3001H0V3000Z" fill="black"/>
<path d="M0 3075H3840V3076H0V3075Z" fill="black"/>
<path d="M0 3150H3840V3151H0V3150Z" fill="black"/>
<path d="M0 3225H3840V3226H0V3225Z" fill="black"/>
<path d="M0 3300H3840V3301H0V3300Z" fill="black"/>
<path d="M0 3375H3840V3376H0V3375Z" fill="black"/>
<path d="M0 3450H3840V3451H0V3450Z" fill="black"/>
<path d="M0 3525H3840V3526H0V3525Z" fill="black"/>
<path d="M0 3600H3840V3601H0V3600Z" fill="black"/>
<path d="M0 3675H3840V3676H0V3675Z" fill="black"/>
<path d="M0 3750H3840V3751H0V3750Z" fill="black"/>
<path d="M0 3825H3840V3826H0V3825Z" fill="black"/>
<path d="M0 3900H3840V3901H0V3900Z" fill="black"/>
<path d="M0 3975H3840V3976H0V3975Z" fill="black"/>
<path d="M0 4050H3840V4051H0V4050Z" fill="black"/>
<path d="M0 4125H3840V4126H0V4125Z" fill="black"/>
<path d="M0 4200H3840V4201H0V4200Z" fill="black"/>
<path d="M0 4275H3840V4276H0V4275Z" fill="black"/>
<path d="M0 0H1V4317H0V0Z" fill="black"/>
<path d="M75 0H76V4317H75V0Z" fill="black"/>
<path d="M150 0H151V4317H150V0Z" fill="black"/>
<path d="M225 0H226V4317H225V0Z" fill="black"/>
<path d="M300 0H301V4317H300V0Z" fill="black"/>
<path d="M375 0H376V4317H375V0Z" fill="black"/>
<path d="M450 0H451V4317H450V0Z" fill="black"/>
<path d="M525 0H526V4317H525V0Z" fill="black"/>
<path d="M600 0H601V4317H600V0Z" fill="black"/>
<path d="M675 0H676V4317H675V0Z" fill="black"/>
<path d="M750 0H751V4317H750V0Z" fill="black"/>
<path d="M825 0H826V4317H825V0Z" fill="black"/>
<path d="M900 0H901V4317H900V0Z" fill="black"/>
<path d="M975 0H976V4317H975V0Z" fill="black"/>
<path d="M1050 0H1051V4317H1050V0Z" fill="black"/>
<path d="M1125 0H1126V4317H1125V0Z" fill="black"/>
<path d="M1200 0H1201V4317H1200V0Z" fill="black"/>
<path d="M1275 0H1276V4317H1275V0Z" fill="black"/>
<path d="M1350 0H1351V4317H1350V0Z" fill="black"/>
<path d="M1425 0H1426V4317H1425V0Z" fill="black"/>
<path d="M1500 0H1501V4317H1500V0Z" fill="black"/>
<path d="M1575 0H1576V4317H1575V0Z" fill="black"/>
<path d="M1650 0H1651V4317H1650V0Z" fill="black"/>
<path d="M1725 0H1726V4317H1725V0Z" fill="black"/>
<path d="M1800 0H1801V4317H1800V0Z" fill="black"/>
<path d="M1875 0H1876V4317H1875V0Z" fill="black"/>
<path d="M1950 0H1951V4317H1950V0Z" fill="black"/>
<path d="M2025 0H2026V4317H2025V0Z" fill="black"/>
<path d="M2100 0H2101V4317H2100V0Z" fill="black"/>
<path d="M2175 0H2176V4317H2175V0Z" fill="black"/>
<path d="M2250 0H2251V4317H2250V0Z" fill="black"/>
<path d="M2325 0H2326V4317H2325V0Z" fill="black"/>
<path d="M2400 0H2401V4317H2400V0Z" fill="black"/>
<path d="M2475 0H2476V4317H2475V0Z" fill="black"/>
<path d="M2550 0H2551V4317H2550V0Z" fill="black"/>
<path d="M2625 0H2626V4317H2625V0Z" fill="black"/>
<path d="M2700 0H2701V4317H2700V0Z" fill="black"/>
<path d="M2775 0H2776V4317H2775V0Z" fill="black"/>
<path d="M2850 0H2851V4317H2850V0Z" fill="black"/>
<path d="M2925 0H2926V4317H2925V0Z" fill="black"/>
<path d="M3000 0H3001V4317H3000V0Z" fill="black"/>
<path d="M3075 0H3076V4317H3075V0Z" fill="black"/>
<path d="M3150 0H3151V4317H3150V0Z" fill="black"/>
<path d="M3225 0H3226V4317H3225V0Z" fill="black"/>
<path d="M3300 0H3301V4317H3300V0Z" fill="black"/>
<path d="M3375 0H3376V4317H3375V0Z" fill="black"/>
<path d="M3450 0H3451V4317H3450V0Z" fill="black"/>
<path d="M3525 0H3526V4317H3525V0Z" fill="black"/>
<path d="M3600 0H3601V4317H3600V0Z" fill="black"/>
<path d="M3675 0H3676V4317H3675V0Z" fill="black"/>
<path d="M3750 0H3751V4317H3750V0Z" fill="black"/>
<path d="M3825 0H3826V4317H3825V0Z" fill="black"/>
</g>
</g>
</g>
</g>
<defs>
<clipPath id="clip0_146_13">
<rect width="3840" height="4317" fill="white"/>
</clipPath>
<clipPath id="clip1_146_13">
<rect width="3840" height="4317" fill="white"/>
</clipPath>
<clipPath id="clip2_146_13">
<rect width="3840" height="4317" fill="white"/>
</clipPath>
</defs>
</svg>
