<svg width="1920" height="2723" viewBox="0 0 1920 2723" fill="none" xmlns="http://www.w3.org/2000/svg">
<g clip-path="url(#clip0_146_13)">
<rect width="1920" height="2723" fill="white"/>
<g clip-path="url(#clip1_146_13)">
<g clip-path="url(#clip2_146_13)">
<g opacity="0.1">
<path d="M0 0H1920V1H0V0Z" fill="black"/>
<path d="M0 40H1920V41H0V40Z" fill="black"/>
<path d="M0 80H1920V81H0V80Z" fill="black"/>
<path d="M0 120H1920V121H0V120Z" fill="black"/>
<path d="M0 160H1920V161H0V160Z" fill="black"/>
<path d="M0 200H1920V201H0V200Z" fill="black"/>
<path d="M0 240H1920V241H0V240Z" fill="black"/>
<path d="M0 280H1920V281H0V280Z" fill="black"/>
<path d="M0 320H1920V321H0V320Z" fill="black"/>
<path d="M0 360H1920V361H0V360Z" fill="black"/>
<path d="M0 400H1920V401H0V400Z" fill="black"/>
<path d="M0 440H1920V441H0V440Z" fill="black"/>
<path d="M0 480H1920V481H0V480Z" fill="black"/>
<path d="M0 520H1920V521H0V520Z" fill="black"/>
<path d="M0 560H1920V561H0V560Z" fill="black"/>
<path d="M0 600H1920V601H0V600Z" fill="black"/>
<path d="M0 640H1920V641H0V640Z" fill="black"/>
<path d="M0 680H1920V681H0V680Z" fill="black"/>
<path d="M0 720H1920V721H0V720Z" fill="black"/>
<path d="M0 760H1920V761H0V760Z" fill="black"/>
<path d="M0 800H1920V801H0V800Z" fill="black"/>
<path d="M0 840H1920V841H0V840Z" fill="black"/>
<path d="M0 880H1920V881H0V880Z" fill="black"/>
<path d="M0 920H1920V921H0V920Z" fill="black"/>
<path d="M0 960H1920V961H0V960Z" fill="black"/>
<path d="M0 1000H1920V1001H0V1000Z" fill="black"/>
<path d="M0 1040H1920V1041H0V1040Z" fill="black"/>
<path d="M0 1080H1920V1081H0V1080Z" fill="black"/>
<path d="M0 1120H1920V1121H0V1120Z" fill="black"/>
<path d="M0 1160H1920V1161H0V1160Z" fill="black"/>
<path d="M0 1200H1920V1201H0V1200Z" fill="black"/>
<path d="M0 1240H1920V1241H0V1240Z" fill="black"/>
<path d="M0 1280H1920V1281H0V1280Z" fill="black"/>
<path d="M0 1320H1920V1321H0V1320Z" fill="black"/>
<path d="M0 1360H1920V1361H0V1360Z" fill="black"/>
<path d="M0 1400H1920V1401H0V1400Z" fill="black"/>
<path d="M0 1440H1920V1441H0V1440Z" fill="black"/>
<path d="M0 1480H1920V1481H0V1480Z" fill="black"/>
<path d="M0 1520H1920V1521H0V1520Z" fill="black"/>
<path d="M0 1560H1920V1561H0V1560Z" fill="black"/>
<path d="M0 1600H1920V1601H0V1600Z" fill="black"/>
<path d="M0 1640H1920V1641H0V1640Z" fill="black"/>
<path d="M0 1680H1920V1681H0V1680Z" fill="black"/>
<path d="M0 1720H1920V1721H0V1720Z" fill="black"/>
<path d="M0 1760H1920V1761H0V1760Z" fill="black"/>
<path d="M0 1800H1920V1801H0V1800Z" fill="black"/>
<path d="M0 1840H1920V1841H0V1840Z" fill="black"/>
<path d="M0 1880H1920V1881H0V1880Z" fill="black"/>
<path d="M0 1920H1920V1921H0V1920Z" fill="black"/>
<path d="M0 1960H1920V1961H0V1960Z" fill="black"/>
<path d="M0 2000H1920V2001H0V2000Z" fill="black"/>
<path d="M0 2040H1920V2041H0V2040Z" fill="black"/>
<path d="M0 2080H1920V2081H0V2080Z" fill="black"/>
<path d="M0 2120H1920V2121H0V2120Z" fill="black"/>
<path d="M0 2160H1920V2161H0V2160Z" fill="black"/>
<path d="M0 2200H1920V2201H0V2200Z" fill="black"/>
<path d="M0 2240H1920V2241H0V2240Z" fill="black"/>
<path d="M0 2280H1920V2281H0V2280Z" fill="black"/>
<path d="M0 2320H1920V2321H0V2320Z" fill="black"/>
<path d="M0 2360H1920V2361H0V2360Z" fill="black"/>
<path d="M0 2400H1920V2401H0V2400Z" fill="black"/>
<path d="M0 2440H1920V2441H0V2440Z" fill="black"/>
<path d="M0 2480H1920V2481H0V2480Z" fill="black"/>
<path d="M0 2520H1920V2521H0V2520Z" fill="black"/>
<path d="M0 2560H1920V2561H0V2560Z" fill="black"/>
<path d="M0 2600H1920V2601H0V2600Z" fill="black"/>
<path d="M0 2640H1920V2641H0V2640Z" fill="black"/>
<path d="M0 2680H1920V2681H0V2680Z" fill="black"/>
<path d="M0 2720H1920V2721H0V2720Z" fill="black"/>
<path d="M0 0H1V2723H0V0Z" fill="black"/>
<path d="M40 0H41V2723H40V0Z" fill="black"/>
<path d="M80 0H81V2723H80V0Z" fill="black"/>
<path d="M120 0H121V2723H120V0Z" fill="black"/>
<path d="M160 0H161V2723H160V0Z" fill="black"/>
<path d="M200 0H201V2723H200V0Z" fill="black"/>
<path d="M240 0H241V2723H240V0Z" fill="black"/>
<path d="M280 0H281V2723H280V0Z" fill="black"/>
<path d="M320 0H321V2723H320V0Z" fill="black"/>
<path d="M360 0H361V2723H360V0Z" fill="black"/>
<path d="M400 0H401V2723H400V0Z" fill="black"/>
<path d="M440 0H441V2723H440V0Z" fill="black"/>
<path d="M480 0H481V2723H480V0Z" fill="black"/>
<path d="M520 0H521V2723H520V0Z" fill="black"/>
<path d="M560 0H561V2723H560V0Z" fill="black"/>
<path d="M600 0H601V2723H600V0Z" fill="black"/>
<path d="M640 0H641V2723H640V0Z" fill="black"/>
<path d="M680 0H681V2723H680V0Z" fill="black"/>
<path d="M720 0H721V2723H720V0Z" fill="black"/>
<path d="M760 0H761V2723H760V0Z" fill="black"/>
<path d="M800 0H801V2723H800V0Z" fill="black"/>
<path d="M840 0H841V2723H840V0Z" fill="black"/>
<path d="M880 0H881V2723H880V0Z" fill="black"/>
<path d="M920 0H921V2723H920V0Z" fill="black"/>
<path d="M960 0H961V2723H960V0Z" fill="black"/>
<path d="M1000 0H1001V2723H1000V0Z" fill="black"/>
<path d="M1040 0H1041V2723H1040V0Z" fill="black"/>
<path d="M1080 0H1081V2723H1080V0Z" fill="black"/>
<path d="M1120 0H1121V2723H1120V0Z" fill="black"/>
<path d="M1160 0H1161V2723H1160V0Z" fill="black"/>
<path d="M1200 0H1201V2723H1200V0Z" fill="black"/>
<path d="M1240 0H1241V2723H1240V0Z" fill="black"/>
<path d="M1280 0H1281V2723H1280V0Z" fill="black"/>
<path d="M1320 0H1321V2723H1320V0Z" fill="black"/>
<path d="M1360 0H1361V2723H1360V0Z" fill="black"/>
<path d="M1400 0H1401V2723H1400V0Z" fill="black"/>
<path d="M1440 0H1441V2723H1440V0Z" fill="black"/>
<path d="M1480 0H1481V2723H1480V0Z" fill="black"/>
<path d="M1520 0H1521V2723H1520V0Z" fill="black"/>
<path d="M1560 0H1561V2723H1560V0Z" fill="black"/>
<path d="M1600 0H1601V2723H1600V0Z" fill="black"/>
<path d="M1640 0H1641V2723H1640V0Z" fill="black"/>
<path d="M1680 0H1681V2723H1680V0Z" fill="black"/>
<path d="M1720 0H1721V2723H1720V0Z" fill="black"/>
<path d="M1760 0H1761V2723H1760V0Z" fill="black"/>
<path d="M1800 0H1801V2723H1800V0Z" fill="black"/>
<path d="M1840 0H1841V2723H1840V0Z" fill="black"/>
<path d="M1880 0H1881V2723H1880V0Z" fill="black"/>
<path d="M1920 0H1921V2723H1920V0Z" fill="black"/>
</g>
</g>
</g>
<mask id="mask0_146_13" style="mask-type:luminance" maskUnits="userSpaceOnUse" x="62" y="0" width="257" height="145">
<path d="M62 0H319V144.541H62V0Z" fill="white"/>
</mask>
<g mask="url(#mask0_146_13)">
<path fill-rule="evenodd" clip-rule="evenodd" d="M67.0082 0C67.0082 0 66.7293 2.48197 66.3677 6.55504C65.0793 21.0657 62.7413 55.7704 68.2267 70.3885C75.2517 89.1098 86.4736 89.9358 86.4736 89.9358C86.4736 89.9358 142.127 52.3096 141.853 53.5026C141.579 54.6957 140.941 48.914 134.554 38.1768C128.168 27.4396 128.114 5.23096 128.114 0" fill="white"/>
<path d="M66.8834 0C66.8834 0 61.2468 51.6672 68.3142 70.3885C75.3816 89.1098 90.1251 91.3682 90.1251 91.3682C90.1251 91.3682 144.316 60.9741 143.361 55.6456C142.406 50.317 139.686 45.2771 133.261 34.5399C126.836 23.8027 128.609 5.23096 128.609 0" stroke="#17171D" stroke-width="3" stroke-linecap="round" stroke-linejoin="round"/>
<path fill-rule="evenodd" clip-rule="evenodd" d="M142.856 54.8486C140.094 51.6603 134.503 44.5702 107.61 60.3549C80.7175 76.1395 83.8382 87.978 86.9588 90.0887C90.0795 92.1998 97.1469 95.2283 124.682 84.0318C152.218 72.8358 145.617 58.037 142.856 54.8486Z" fill="white" stroke="#17171D" stroke-width="3" stroke-linecap="round" stroke-linejoin="round"/>
<mask id="mask1_146_13" style="mask-type:luminance" maskUnits="userSpaceOnUse" x="141" y="29" width="178" height="97">
<path fill-rule="evenodd" clip-rule="evenodd" d="M171.353 29.5228C172.917 29.2495 195.261 26.3146 227.575 64.6349C258.098 100.832 307.193 96.6682 316.214 95.4788C316.513 95.4385 316.738 95.9882 316.502 96.1754L303.195 106.781C302.986 106.949 303.023 107.277 303.266 107.39C305.098 108.246 311.495 111.216 318.737 114.363C319.037 114.492 319.053 114.909 318.744 115.016C311.854 117.4 263.637 133.305 236.843 121.239C207.94 108.222 195.329 94.4235 179.146 80.9954C163.21 67.773 153.821 61.0748 141.854 57.9087C141.854 57.9087 164.791 36.1747 170.163 30.7209C170.914 29.9588 171.345 29.5242 171.353 29.5228Z" fill="white"/>
</mask>
<g mask="url(#mask1_146_13)">
<path fill-rule="evenodd" clip-rule="evenodd" d="M171.353 29.5228C172.917 29.2495 195.261 26.3146 227.575 64.6349C258.098 100.832 307.193 96.6682 316.214 95.4788C316.513 95.4385 316.738 95.9882 316.502 96.1754L303.195 106.781C302.986 106.949 303.023 107.277 303.266 107.39C305.098 108.246 311.495 111.216 318.737 114.363C319.037 114.492 319.053 114.909 318.744 115.016C311.854 117.4 263.637 133.305 236.843 121.239C207.94 108.222 195.329 94.4235 179.146 80.9954C163.21 67.773 153.821 61.0748 141.854 57.9087C141.854 57.9087 164.791 36.1747 170.163 30.7209C170.914 29.9588 171.345 29.5242 171.353 29.5228Z" fill="#EC3750" stroke="#17171D" stroke-width="6"/>
</g>
<path fill-rule="evenodd" clip-rule="evenodd" d="M178.652 40.9475C177.096 43.2295 174.335 47.1098 170.085 51.8169C162.456 58.9402 169.369 60.3313 172.807 57.4922C174.778 55.9576 176.857 54.2649 176.857 54.2649L181.517 58.9609C181.517 58.9609 179.908 61.3216 178.489 63.2344C174.24 67.942 179.696 69.6045 182.955 66.1807C184.532 64.3758 191.424 56.9775 194.319 52.7281C196.88 50.3275 193.885 45.7336 189.829 49.6497C188.019 50.9485 184.632 54.0529 184.632 54.0529C184.632 54.0529 180.755 50.2409 180.784 50.0298C180.815 49.4744 181.936 48.5101 182.474 47.379C185.751 39.35 180.743 37.8787 178.652 40.9475Z" fill="white"/>
<path fill-rule="evenodd" clip-rule="evenodd" d="M200.226 58.6485C202.945 56.4402 204.807 56.7029 205.972 57.3843C206.482 57.666 206.716 59.0631 206.8 60.3421C205.537 67.9455 196.686 78.9891 195.738 79.572C192.351 81.8563 189.18 79.7073 192.028 76.8745C193.576 75.0706 195.08 73.4756 195.08 73.4756L190.85 70.9725C184.288 76.1948 182.424 71.931 185.56 69.811C189.049 67.2438 196.576 61.5727 200.226 58.6485ZM194.818 66.7234L198.871 69.4502C198.871 69.4502 203.573 62.2688 201.835 62.4669L194.818 66.7234Z" fill="white"/>
<path fill-rule="evenodd" clip-rule="evenodd" d="M220.653 74.3747C221.971 72.9989 222.431 68.7525 217.932 67.469C211.798 64.7597 204.857 74.5177 204.857 74.5177C204.857 74.5177 201.504 79.2477 201.515 83.5052C201.437 87.5706 204.967 89.1734 205.615 89.5692C210.171 90.1699 210.001 86.8776 209.353 86.4826C208.501 86.0444 207.251 85.6542 206.646 84.4427C205.611 82.4039 207.397 79.2149 208.554 77.5885C210.735 74.9593 215.248 69.8196 217.504 72.5903C218.246 75.6109 219.934 75.1373 220.653 74.3747Z" fill="white"/>
<path fill-rule="evenodd" clip-rule="evenodd" d="M224.66 75.9552C222.105 78.7534 221.895 82.8176 216.393 87.8559C215.063 89.0929 212.231 91.1844 211.866 91.4977C209.106 93.648 211.382 96.6719 216.932 93.2433C218.247 92.4797 220.436 89.9945 220.436 89.9945L221.958 90.4841C221.958 90.4841 220.715 96.6251 219.932 99.1424C219.205 101.585 222.695 104.733 224.79 100.24C225.342 98.6248 225.746 96.2873 225.93 93.1698C225.93 93.1698 226.144 90.9223 225.616 90.3802C225.616 90.3802 232.207 87.9034 233.432 86.3419C234.716 84.7066 234.463 83.054 229.55 84.4531C224.638 85.853 223.792 86.6279 223.792 86.6279C223.792 86.6279 226.344 83.2239 227.552 80.3188C229.227 77.4246 226.804 73.6773 224.66 75.9552Z" fill="white"/>
<path fill-rule="evenodd" clip-rule="evenodd" d="M245.045 92.0429C242.836 92.8688 240.595 95.2778 238.764 99.626C236.086 106.141 237.085 111.027 241.956 112.337C246.829 113.648 247.235 109.89 246.866 109.594C246.571 109.356 246.659 108.933 244.483 108.794C242.304 108.655 241.27 107.206 241.378 103.828C241.472 101.552 242.739 97.618 245.082 96.157C245.78 95.7257 246.252 95.7349 246.519 95.7018C247.587 95.5678 248.222 96.4498 248.312 96.6434C249.892 99.3966 251.198 97.7236 251.113 95.6743C250.511 92.5926 248.529 91.1252 245.045 92.0429Z" fill="white"/>
<path fill-rule="evenodd" clip-rule="evenodd" d="M255.084 97.2675C256.159 94.8208 259.521 94.0756 257.95 99.9224C257.458 103.936 254.113 110.617 254.353 111.483C254.594 112.349 258.892 113.228 260.109 113.347C261.324 113.468 263.06 114.811 262.145 115.671C261.302 116.59 260.248 116.239 259.982 116.271C259.715 116.303 249.72 114.945 250.175 113.057C250.632 111.17 250.972 110.36 251.977 107.248C252.983 104.135 254.008 99.7141 255.084 97.2675Z" fill="white"/>
<path fill-rule="evenodd" clip-rule="evenodd" d="M266.558 99.6508C267.159 97.8025 269.441 97.5355 269.648 99.9032C269.79 101.731 267.856 108.52 267.962 111.788C268.193 113.195 269.584 114.057 270.73 113.376C272.231 112.244 273.329 108.22 274.177 104.975C274.467 103.37 274.549 102.079 274.934 101.283C276.472 98.7101 278.359 100.335 278.122 103.574C277.573 107.056 276.199 112.461 274.955 114.043C273.769 115.548 272.362 117.49 269.928 117.024C269.3 116.893 264.237 115.437 264.908 109.481C265.756 103.298 265.956 101.498 266.558 99.6508Z" fill="white"/>
<path fill-rule="evenodd" clip-rule="evenodd" d="M283.782 101.128C287.503 100.679 289.969 101.06 291.405 102.451C292.13 103.518 292.016 105.505 291.089 106.841C290.204 107.969 289.216 108.767 289.216 108.767C290.874 109.724 291.364 112.027 290.673 114.442C289.982 116.856 286.886 118.026 282.323 117.559C280.816 117.333 279.397 116.689 279.543 116.195C279.911 115.266 281.422 102.911 281.422 102.911C281.613 102.207 281.582 101.327 283.782 101.128ZM284.126 103.603L284.046 107.693C284.046 107.693 288.24 107.865 288.68 105.773C289.118 103.679 286.371 103.808 284.126 103.603ZM283.357 110.564C283.357 110.564 282.465 115.229 282.509 115.02C282.612 114.735 288.279 116.042 288.39 112.831C288.501 109.622 283.357 110.564 283.357 110.564Z" fill="white"/>
<path d="M144.608 55.0633L106.058 92.1044L109.159 93.4855L146.902 56.8987L144.608 55.0633Z" fill="#17171D"/>
<path fill-rule="evenodd" clip-rule="evenodd" d="M130.84 66.6798C131.482 68.2398 137.724 74.5721 134.328 75.4898C130.932 76.4075 132.125 84.208 138.825 82.4644C145.525 80.7208 147.636 71.9107 141.211 68.2398C134.787 64.5691 130.84 66.6798 130.84 66.6798Z" fill="white" stroke="#252429" stroke-width="3" stroke-linecap="round" stroke-linejoin="round"/>
<path fill-rule="evenodd" clip-rule="evenodd" d="M118.907 74.9393C119.55 76.4993 125.791 82.8316 122.395 83.7493C118.999 84.667 120.192 92.4678 126.892 90.7239C133.593 88.9803 135.704 80.1702 129.279 76.4993C122.854 72.8285 118.907 74.9393 118.907 74.9393Z" fill="white" stroke="#252429" stroke-width="3" stroke-linecap="round" stroke-linejoin="round"/>
<path fill-rule="evenodd" clip-rule="evenodd" d="M106.976 83.1988C107.618 84.7588 113.859 91.0911 110.463 92.0089C107.067 92.9266 108.261 100.727 114.961 98.9836C121.661 97.2399 123.772 88.4297 117.347 84.7588C110.922 81.088 106.976 83.1988 106.976 83.1988Z" fill="white" stroke="#252429" stroke-width="3" stroke-linecap="round" stroke-linejoin="round"/>
</g>
</g>
<defs>
<clipPath id="clip0_146_13">
<rect width="1920" height="2723" fill="white"/>
</clipPath>
<clipPath id="clip1_146_13">
<rect width="1920" height="2723" fill="white"/>
</clipPath>
<clipPath id="clip2_146_13">
<rect width="1920" height="2723" fill="white"/>
</clipPath>
</defs>
</svg>
