<svg width="1920" height="2723" viewBox="0 0 1920 2723" fill="none" xmlns="http://www.w3.org/2000/svg">
<g clip-path="url(#clip0_146_13)">
<rect width="1920" height="2723" fill="white"/>
<g clip-path="url(#clip1_146_13)">
<g clip-path="url(#clip2_146_13)">
<g opacity="0.1">
<path d="M0 0H1920V1H0V0Z" fill="black"/>
<path d="M0 40H1920V41H0V40Z" fill="black"/>
<path d="M0 80H1920V81H0V80Z" fill="black"/>
<path d="M0 120H1920V121H0V120Z" fill="black"/>
<path d="M0 160H1920V161H0V160Z" fill="black"/>
<path d="M0 200H1920V201H0V200Z" fill="black"/>
<path d="M0 240H1920V241H0V240Z" fill="black"/>
<path d="M0 280H1920V281H0V280Z" fill="black"/>
<path d="M0 320H1920V321H0V320Z" fill="black"/>
<path d="M0 360H1920V361H0V360Z" fill="black"/>
<path d="M0 400H1920V401H0V400Z" fill="black"/>
<path d="M0 440H1920V441H0V440Z" fill="black"/>
<path d="M0 480H1920V481H0V480Z" fill="black"/>
<path d="M0 520H1920V521H0V520Z" fill="black"/>
<path d="M0 560H1920V561H0V560Z" fill="black"/>
<path d="M0 600H1920V601H0V600Z" fill="black"/>
<path d="M0 640H1920V641H0V640Z" fill="black"/>
<path d="M0 680H1920V681H0V680Z" fill="black"/>
<path d="M0 720H1920V721H0V720Z" fill="black"/>
<path d="M0 760H1920V761H0V760Z" fill="black"/>
<path d="M0 800H1920V801H0V800Z" fill="black"/>
<path d="M0 840H1920V841H0V840Z" fill="black"/>
<path d="M0 880H1920V881H0V880Z" fill="black"/>
<path d="M0 920H1920V921H0V920Z" fill="black"/>
<path d="M0 960H1920V961H0V960Z" fill="black"/>
<path d="M0 1000H1920V1001H0V1000Z" fill="black"/>
<path d="M0 1040H1920V1041H0V1040Z" fill="black"/>
<path d="M0 1080H1920V1081H0V1080Z" fill="black"/>
<path d="M0 1120H1920V1121H0V1120Z" fill="black"/>
<path d="M0 1160H1920V1161H0V1160Z" fill="black"/>
<path d="M0 1200H1920V1201H0V1200Z" fill="black"/>
<path d="M0 1240H1920V1241H0V1240Z" fill="black"/>
<path d="M0 1280H1920V1281H0V1280Z" fill="black"/>
<path d="M0 1320H1920V1321H0V1320Z" fill="black"/>
<path d="M0 1360H1920V1361H0V1360Z" fill="black"/>
<path d="M0 1400H1920V1401H0V1400Z" fill="black"/>
<path d="M0 1440H1920V1441H0V1440Z" fill="black"/>
<path d="M0 1480H1920V1481H0V1480Z" fill="black"/>
<path d="M0 1520H1920V1521H0V1520Z" fill="black"/>
<path d="M0 1560H1920V1561H0V1560Z" fill="black"/>
<path d="M0 1600H1920V1601H0V1600Z" fill="black"/>
<path d="M0 1640H1920V1641H0V1640Z" fill="black"/>
<path d="M0 1680H1920V1681H0V1680Z" fill="black"/>
<path d="M0 1720H1920V1721H0V1720Z" fill="black"/>
<path d="M0 1760H1920V1761H0V1760Z" fill="black"/>
<path d="M0 1800H1920V1801H0V1800Z" fill="black"/>
<path d="M0 1840H1920V1841H0V1840Z" fill="black"/>
<path d="M0 1880H1920V1881H0V1880Z" fill="black"/>
<path d="M0 1920H1920V1921H0V1920Z" fill="black"/>
<path d="M0 1960H1920V1961H0V1960Z" fill="black"/>
<path d="M0 2000H1920V2001H0V2000Z" fill="black"/>
<path d="M0 2040H1920V2041H0V2040Z" fill="black"/>
<path d="M0 2080H1920V2081H0V2080Z" fill="black"/>
<path d="M0 2120H1920V2121H0V2120Z" fill="black"/>
<path d="M0 2160H1920V2161H0V2160Z" fill="black"/>
<path d="M0 2200H1920V2201H0V2200Z" fill="black"/>
<path d="M0 2240H1920V2241H0V2240Z" fill="black"/>
<path d="M0 2280H1920V2281H0V2280Z" fill="black"/>
<path d="M0 2320H1920V2321H0V2320Z" fill="black"/>
<path d="M0 2360H1920V2361H0V2360Z" fill="black"/>
<path d="M0 2400H1920V2401H0V2400Z" fill="black"/>
<path d="M0 2440H1920V2441H0V2440Z" fill="black"/>
<path d="M0 2480H1920V2481H0V2480Z" fill="black"/>
<path d="M0 2520H1920V2521H0V2520Z" fill="black"/>
<path d="M0 2560H1920V2561H0V2560Z" fill="black"/>
<path d="M0 2600H1920V2601H0V2600Z" fill="black"/>
<path d="M0 2640H1920V2641H0V2640Z" fill="black"/>
<path d="M0 2680H1920V2681H0V2680Z" fill="black"/>
<path d="M0 2720H1920V2721H0V2720Z" fill="black"/>
<path d="M0 0H1V2723H0V0Z" fill="black"/>
<path d="M40 0H41V2723H40V0Z" fill="black"/>
<path d="M80 0H81V2723H80V0Z" fill="black"/>
<path d="M120 0H121V2723H120V0Z" fill="black"/>
<path d="M160 0H161V2723H160V0Z" fill="black"/>
<path d="M200 0H201V2723H200V0Z" fill="black"/>
<path d="M240 0H241V2723H240V0Z" fill="black"/>
<path d="M280 0H281V2723H280V0Z" fill="black"/>
<path d="M320 0H321V2723H320V0Z" fill="black"/>
<path d="M360 0H361V2723H360V0Z" fill="black"/>
<path d="M400 0H401V2723H400V0Z" fill="black"/>
<path d="M440 0H441V2723H440V0Z" fill="black"/>
<path d="M480 0H481V2723H480V0Z" fill="black"/>
<path d="M520 0H521V2723H520V0Z" fill="black"/>
<path d="M560 0H561V2723H560V0Z" fill="black"/>
<path d="M600 0H601V2723H600V0Z" fill="black"/>
<path d="M640 0H641V2723H640V0Z" fill="black"/>
<path d="M680 0H681V2723H680V0Z" fill="black"/>
<path d="M720 0H721V2723H720V0Z" fill="black"/>
<path d="M760 0H761V2723H760V0Z" fill="black"/>
<path d="M800 0H801V2723H800V0Z" fill="black"/>
<path d="M840 0H841V2723H840V0Z" fill="black"/>
<path d="M880 0H881V2723H880V0Z" fill="black"/>
<path d="M920 0H921V2723H920V0Z" fill="black"/>
<path d="M960 0H961V2723H960V0Z" fill="black"/>
<path d="M1000 0H1001V2723H1000V0Z" fill="black"/>
<path d="M1040 0H1041V2723H1040V0Z" fill="black"/>
<path d="M1080 0H1081V2723H1080V0Z" fill="black"/>
<path d="M1120 0H1121V2723H1120V0Z" fill="black"/>
<path d="M1160 0H1161V2723H1160V0Z" fill="black"/>
<path d="M1200 0H1201V2723H1200V0Z" fill="black"/>
<path d="M1240 0H1241V2723H1240V0Z" fill="black"/>
<path d="M1280 0H1281V2723H1280V0Z" fill="black"/>
<path d="M1320 0H1321V2723H1320V0Z" fill="black"/>
<path d="M1360 0H1361V2723H1360V0Z" fill="black"/>
<path d="M1400 0H1401V2723H1400V0Z" fill="black"/>
<path d="M1440 0H1441V2723H1440V0Z" fill="black"/>
<path d="M1480 0H1481V2723H1480V0Z" fill="black"/>
<path d="M1520 0H1521V2723H1520V0Z" fill="black"/>
<path d="M1560 0H1561V2723H1560V0Z" fill="black"/>
<path d="M1600 0H1601V2723H1600V0Z" fill="black"/>
<path d="M1640 0H1641V2723H1640V0Z" fill="black"/>
<path d="M1680 0H1681V2723H1680V0Z" fill="black"/>
<path d="M1720 0H1721V2723H1720V0Z" fill="black"/>
<path d="M1760 0H1761V2723H1760V0Z" fill="black"/>
<path d="M1800 0H1801V2723H1800V0Z" fill="black"/>
<path d="M1840 0H1841V2723H1840V0Z" fill="black"/>
<path d="M1880 0H1881V2723H1880V0Z" fill="black"/>
<path d="M1920 0H1921V2723H1920V0Z" fill="black"/>
</g>
</g>
</g>
</g>
<defs>
<clipPath id="clip0_146_13">
<rect width="1920" height="2723" fill="white"/>
</clipPath>
<clipPath id="clip1_146_13">
<rect width="1920" height="2723" fill="white"/>
</clipPath>
<clipPath id="clip2_146_13">
<rect width="1920" height="2723" fill="white"/>
</clipPath>
</defs>
</svg>
