%TF.GenerationSoftware,KiCad,Pcbnew,8.0.8*%
%TF.CreationDate,2025-02-16T23:16:45+05:30*%
%TF.ProjectId,RoyTyper,526f7954-7970-4657-922e-6b696361645f,rev?*%
%TF.SameCoordinates,Original*%
%TF.FileFunction,Copper,L1,Top*%
%TF.FilePolarity,Positive*%
%FSLAX46Y46*%
G04 Gerber Fmt 4.6, Leading zero omitted, Abs format (unit mm)*
G04 Created by KiCad (PCBNEW 8.0.8) date 2025-02-16 23:16:45*
%MOMM*%
%LPD*%
G01*
G04 APERTURE LIST*
G04 Aperture macros list*
%AMRoundRect*
0 Rectangle with rounded corners*
0 $1 Rounding radius*
0 $2 $3 $4 $5 $6 $7 $8 $9 X,Y pos of 4 corners*
0 Add a 4 corners polygon primitive as box body*
4,1,4,$2,$3,$4,$5,$6,$7,$8,$9,$2,$3,0*
0 Add four circle primitives for the rounded corners*
1,1,$1+$1,$2,$3*
1,1,$1+$1,$4,$5*
1,1,$1+$1,$6,$7*
1,1,$1+$1,$8,$9*
0 Add four rect primitives between the rounded corners*
20,1,$1+$1,$2,$3,$4,$5,0*
20,1,$1+$1,$4,$5,$6,$7,0*
20,1,$1+$1,$6,$7,$8,$9,0*
20,1,$1+$1,$8,$9,$2,$3,0*%
G04 Aperture macros list end*
%TA.AperFunction,SMDPad,CuDef*%
%ADD10R,1.600000X0.850000*%
%TD*%
%TA.AperFunction,ComponentPad*%
%ADD11C,2.200000*%
%TD*%
%TA.AperFunction,ComponentPad*%
%ADD12R,2.000000X2.000000*%
%TD*%
%TA.AperFunction,ComponentPad*%
%ADD13C,2.000000*%
%TD*%
%TA.AperFunction,ComponentPad*%
%ADD14C,2.800000*%
%TD*%
%TA.AperFunction,SMDPad,CuDef*%
%ADD15RoundRect,0.152400X1.063600X0.609600X-1.063600X0.609600X-1.063600X-0.609600X1.063600X-0.609600X0*%
%TD*%
%TA.AperFunction,ComponentPad*%
%ADD16C,1.524000*%
%TD*%
%TA.AperFunction,SMDPad,CuDef*%
%ADD17RoundRect,0.152400X-1.063600X-0.609600X1.063600X-0.609600X1.063600X0.609600X-1.063600X0.609600X0*%
%TD*%
%TA.AperFunction,ComponentPad*%
%ADD18R,1.600000X1.600000*%
%TD*%
%TA.AperFunction,ComponentPad*%
%ADD19O,1.600000X1.600000*%
%TD*%
%TA.AperFunction,ViaPad*%
%ADD20C,0.600000*%
%TD*%
%TA.AperFunction,Conductor*%
%ADD21C,0.200000*%
%TD*%
%ADD22C,0.150000*%
%TA.AperFunction,Profile*%
%ADD23C,0.050000*%
%TD*%
G04 APERTURE END LIST*
D10*
%TO.P,D12,1,DOUT*%
%TO.N,unconnected-(D12-DOUT-Pad1)*%
X56725000Y-78575000D03*
%TO.P,D12,2,VSS*%
%TO.N,GND*%
X56725000Y-80325000D03*
%TO.P,D12,3,DIN*%
%TO.N,Net-(D11-DOUT)*%
X60225000Y-80325000D03*
%TO.P,D12,4,VDD*%
%TO.N,+5V*%
X60225000Y-78575000D03*
%TD*%
D11*
%TO.P,SW3,1,1*%
%TO.N,Col3*%
X140390000Y-64770000D03*
%TO.P,SW3,2,2*%
%TO.N,Net-(D3-A)*%
X134040000Y-67310000D03*
%TD*%
%TO.P,SW6,1,1*%
%TO.N,Col3*%
X140390000Y-83820000D03*
%TO.P,SW6,2,2*%
%TO.N,Net-(D6-A)*%
X134040000Y-86360000D03*
%TD*%
%TO.P,SW1,1,1*%
%TO.N,Col1*%
X102290000Y-64770000D03*
%TO.P,SW1,2,2*%
%TO.N,Net-(D1-A)*%
X95940000Y-67310000D03*
%TD*%
%TO.P,SW4,1,1*%
%TO.N,Col1*%
X102290000Y-83820000D03*
%TO.P,SW4,2,2*%
%TO.N,Net-(D4-A)*%
X95940000Y-86360000D03*
%TD*%
%TO.P,SW5,1,1*%
%TO.N,Col2*%
X121340000Y-83820000D03*
%TO.P,SW5,2,2*%
%TO.N,Net-(D5-A)*%
X114990000Y-86360000D03*
%TD*%
%TO.P,SW2,1,1*%
%TO.N,Col2*%
X121340000Y-64770000D03*
%TO.P,SW2,2,2*%
%TO.N,Net-(D2-A)*%
X114990000Y-67310000D03*
%TD*%
D12*
%TO.P,SW11,A,A*%
%TO.N,Net-(U1-GPIO3{slash}MOSI)*%
X69975000Y-93325000D03*
D13*
%TO.P,SW11,B,B*%
%TO.N,Net-(U1-GPIO4{slash}MISO)*%
X69975000Y-98325000D03*
%TO.P,SW11,C,C*%
%TO.N,GND*%
X69975000Y-95825000D03*
D14*
%TO.P,SW11,MP*%
%TO.N,N/C*%
X77475000Y-90225000D03*
X77475000Y-101425000D03*
D13*
%TO.P,SW11,S1,S1*%
%TO.N,Net-(U1-GPIO1{slash}RX)*%
X84475000Y-93325000D03*
%TO.P,SW11,S2,S2*%
%TO.N,GND*%
X84475000Y-98325000D03*
%TD*%
D11*
%TO.P,SW9,1,1*%
%TO.N,Col3*%
X140390000Y-102870000D03*
%TO.P,SW9,2,2*%
%TO.N,Net-(D9-A)*%
X134040000Y-105410000D03*
%TD*%
%TO.P,SW7,1,1*%
%TO.N,Col1*%
X102290000Y-102870000D03*
%TO.P,SW7,2,2*%
%TO.N,Net-(D7-A)*%
X95940000Y-105410000D03*
%TD*%
D10*
%TO.P,D11,1,DOUT*%
%TO.N,Net-(D11-DOUT)*%
X56725000Y-72575000D03*
%TO.P,D11,2,VSS*%
%TO.N,GND*%
X56725000Y-74325000D03*
%TO.P,D11,3,DIN*%
%TO.N,Net-(D10-DOUT)*%
X60225000Y-74325000D03*
%TO.P,D11,4,VDD*%
%TO.N,+5V*%
X60225000Y-72575000D03*
%TD*%
D11*
%TO.P,SW8,1,1*%
%TO.N,Col2*%
X121340000Y-102870000D03*
%TO.P,SW8,2,2*%
%TO.N,Net-(D8-A)*%
X114990000Y-105410000D03*
%TD*%
D10*
%TO.P,D10,1,DOUT*%
%TO.N,Net-(D10-DOUT)*%
X56725000Y-66575000D03*
%TO.P,D10,2,VSS*%
%TO.N,GND*%
X56725000Y-68325000D03*
%TO.P,D10,3,DIN*%
%TO.N,Net-(D10-DIN)*%
X60225000Y-68325000D03*
%TO.P,D10,4,VDD*%
%TO.N,+5V*%
X60225000Y-66575000D03*
%TD*%
D15*
%TO.P,U1,1,GPIO26/ADC0/A0*%
%TO.N,Row1*%
X71390000Y-60325000D03*
D16*
X72225000Y-60325000D03*
D15*
%TO.P,U1,2,GPIO27/ADC1/A1*%
%TO.N,Row2*%
X71390000Y-62865000D03*
D16*
X72225000Y-62865000D03*
D15*
%TO.P,U1,3,GPIO28/ADC2/A2*%
%TO.N,Row3*%
X71390000Y-65405000D03*
D16*
X72225000Y-65405000D03*
D15*
%TO.P,U1,4,GPIO29/ADC3/A3*%
%TO.N,Col1*%
X71390000Y-67945000D03*
D16*
X72225000Y-67945000D03*
D15*
%TO.P,U1,5,GPIO6/SDA*%
%TO.N,Col2*%
X71390000Y-70485000D03*
D16*
X72225000Y-70485000D03*
D15*
%TO.P,U1,6,GPIO7/SCL*%
%TO.N,Col3*%
X71390000Y-73025000D03*
D16*
X72225000Y-73025000D03*
D15*
%TO.P,U1,7,GPIO0/TX*%
%TO.N,Net-(D10-DIN)*%
X71390000Y-75565000D03*
D16*
X72225000Y-75565000D03*
%TO.P,U1,8,GPIO1/RX*%
%TO.N,Net-(U1-GPIO1{slash}RX)*%
X87465000Y-75565000D03*
D17*
X88300000Y-75565000D03*
D16*
%TO.P,U1,9,GPIO2/SCK*%
%TO.N,unconnected-(U1-GPIO2{slash}SCK-Pad9)*%
X87465000Y-73025000D03*
D17*
X88300000Y-73025000D03*
D16*
%TO.P,U1,10,GPIO4/MISO*%
%TO.N,Net-(U1-GPIO4{slash}MISO)*%
X87465000Y-70485000D03*
D17*
X88300000Y-70485000D03*
D16*
%TO.P,U1,11,GPIO3/MOSI*%
%TO.N,Net-(U1-GPIO3{slash}MOSI)*%
X87465000Y-67945000D03*
D17*
X88300000Y-67945000D03*
D16*
%TO.P,U1,12,3V3*%
%TO.N,unconnected-(U1-3V3-Pad12)*%
X87465000Y-65405000D03*
D17*
X88300000Y-65405000D03*
D16*
%TO.P,U1,13,GND*%
%TO.N,GND*%
X87465000Y-62865000D03*
D17*
X88300000Y-62865000D03*
D16*
%TO.P,U1,14,VBUS*%
%TO.N,+5V*%
X87465000Y-60325000D03*
D17*
X88300000Y-60325000D03*
%TD*%
D18*
%TO.P,D8,1,K*%
%TO.N,Row3*%
X128325000Y-113188750D03*
D19*
%TO.P,D8,2,A*%
%TO.N,Net-(D8-A)*%
X128325000Y-105568750D03*
%TD*%
D18*
%TO.P,D7,1,K*%
%TO.N,Row3*%
X109275000Y-113188750D03*
D19*
%TO.P,D7,2,A*%
%TO.N,Net-(D7-A)*%
X109275000Y-105568750D03*
%TD*%
D18*
%TO.P,D3,1,K*%
%TO.N,Row1*%
X147375000Y-75088750D03*
D19*
%TO.P,D3,2,A*%
%TO.N,Net-(D3-A)*%
X147375000Y-67468750D03*
%TD*%
D18*
%TO.P,D9,1,K*%
%TO.N,Row3*%
X147375000Y-113188750D03*
D19*
%TO.P,D9,2,A*%
%TO.N,Net-(D9-A)*%
X147375000Y-105568750D03*
%TD*%
D18*
%TO.P,D6,1,K*%
%TO.N,Row2*%
X147375000Y-94138750D03*
D19*
%TO.P,D6,2,A*%
%TO.N,Net-(D6-A)*%
X147375000Y-86518750D03*
%TD*%
D18*
%TO.P,D2,1,K*%
%TO.N,Row1*%
X128325000Y-75088750D03*
D19*
%TO.P,D2,2,A*%
%TO.N,Net-(D2-A)*%
X128325000Y-67468750D03*
%TD*%
D18*
%TO.P,D5,1,K*%
%TO.N,Row2*%
X128325000Y-94138750D03*
D19*
%TO.P,D5,2,A*%
%TO.N,Net-(D5-A)*%
X128325000Y-86518750D03*
%TD*%
D18*
%TO.P,D1,1,K*%
%TO.N,Row1*%
X109275000Y-75088750D03*
D19*
%TO.P,D1,2,A*%
%TO.N,Net-(D1-A)*%
X109275000Y-67468750D03*
%TD*%
D18*
%TO.P,D4,1,K*%
%TO.N,Row2*%
X109275000Y-94138750D03*
D19*
%TO.P,D4,2,A*%
%TO.N,Net-(D4-A)*%
X109275000Y-86518750D03*
%TD*%
D20*
%TO.N,Row3*%
X82225000Y-80325000D03*
%TO.N,Net-(U1-GPIO3{slash}MOSI)*%
X80225000Y-72325000D03*
%TO.N,GND*%
X80225000Y-84325000D03*
%TO.N,Net-(U1-GPIO4{slash}MISO)*%
X78225000Y-73325000D03*
%TO.N,+5V*%
X61198235Y-72351765D03*
X61225000Y-66325000D03*
X67996865Y-65628040D03*
X61225000Y-78325000D03*
X64225000Y-66325000D03*
%TD*%
D21*
%TO.N,Row1*%
X76243000Y-64343000D02*
X72225000Y-60325000D01*
X109275000Y-75088750D02*
X101665348Y-75088750D01*
X101665348Y-75088750D02*
X90919598Y-64343000D01*
X90919598Y-64343000D02*
X76243000Y-64343000D01*
X109275000Y-75088750D02*
X147375000Y-75088750D01*
%TO.N,Net-(D1-A)*%
X109116250Y-67310000D02*
X109275000Y-67468750D01*
X95940000Y-67310000D02*
X109116250Y-67310000D01*
%TO.N,Net-(D2-A)*%
X128166250Y-67310000D02*
X128325000Y-67468750D01*
X114990000Y-67310000D02*
X128166250Y-67310000D01*
%TO.N,Net-(D3-A)*%
X147216250Y-67310000D02*
X147375000Y-67468750D01*
X134040000Y-67310000D02*
X147216250Y-67310000D01*
%TO.N,Row2*%
X109275000Y-94138750D02*
X147375000Y-94138750D01*
X73287000Y-63927000D02*
X73287000Y-70014500D01*
X73287000Y-70014500D02*
X97411250Y-94138750D01*
X97411250Y-94138750D02*
X109275000Y-94138750D01*
X72225000Y-62865000D02*
X73287000Y-63927000D01*
%TO.N,Net-(D4-A)*%
X95940000Y-86360000D02*
X109116250Y-86360000D01*
X109116250Y-86360000D02*
X109275000Y-86518750D01*
%TO.N,Net-(D5-A)*%
X128166250Y-86360000D02*
X128325000Y-86518750D01*
X114990000Y-86360000D02*
X128166250Y-86360000D01*
%TO.N,Net-(D6-A)*%
X134040000Y-86360000D02*
X147216250Y-86360000D01*
X147216250Y-86360000D02*
X147375000Y-86518750D01*
%TO.N,Net-(D7-A)*%
X95940000Y-105410000D02*
X109116250Y-105410000D01*
X109116250Y-105410000D02*
X109275000Y-105568750D01*
%TO.N,Row3*%
X109275000Y-113188750D02*
X147375000Y-113188750D01*
X110375000Y-112088750D02*
X109275000Y-113188750D01*
X102225000Y-99325000D02*
X104586885Y-99325000D01*
X101225000Y-98325000D02*
X102225000Y-99325000D01*
X82225000Y-80325000D02*
X100225000Y-98325000D01*
X110375000Y-105113115D02*
X110375000Y-112088750D01*
X100225000Y-98325000D02*
X101225000Y-98325000D01*
X104586885Y-99325000D02*
X110375000Y-105113115D01*
%TO.N,Net-(D8-A)*%
X114990000Y-105410000D02*
X128166250Y-105410000D01*
X128166250Y-105410000D02*
X128325000Y-105568750D01*
%TO.N,Net-(D9-A)*%
X147216250Y-105410000D02*
X147375000Y-105568750D01*
X134040000Y-105410000D02*
X147216250Y-105410000D01*
%TO.N,Net-(D10-DIN)*%
X60225000Y-70325000D02*
X60225000Y-70530000D01*
X65260000Y-75565000D02*
X72225000Y-75565000D01*
X60225000Y-68325000D02*
X60225000Y-70325000D01*
X60225000Y-70530000D02*
X65260000Y-75565000D01*
%TO.N,Net-(D10-DOUT)*%
X59125000Y-73225000D02*
X60225000Y-74325000D01*
X56725000Y-66575000D02*
X59125000Y-68975000D01*
X59125000Y-68975000D02*
X59125000Y-73225000D01*
%TO.N,Net-(U1-GPIO3{slash}MOSI)*%
X84605000Y-67945000D02*
X87465000Y-67945000D01*
X80225000Y-72325000D02*
X84605000Y-67945000D01*
%TO.N,GND*%
X54225000Y-74325000D02*
X54225000Y-68325000D01*
X56725000Y-82825000D02*
X56225000Y-82325000D01*
X56725000Y-80325000D02*
X56725000Y-82825000D01*
X58225000Y-84325000D02*
X80225000Y-84325000D01*
X56225000Y-82325000D02*
X54225000Y-82325000D01*
X54225000Y-82325000D02*
X54225000Y-74325000D01*
X54225000Y-68325000D02*
X56725000Y-68325000D01*
X56725000Y-74325000D02*
X54225000Y-74325000D01*
X56725000Y-82825000D02*
X58225000Y-84325000D01*
%TO.N,Net-(U1-GPIO4{slash}MISO)*%
X78225000Y-73325000D02*
X84625000Y-73325000D01*
X84625000Y-73325000D02*
X87465000Y-70485000D01*
%TO.N,+5V*%
X60475000Y-66325000D02*
X60225000Y-66575000D01*
X60448235Y-72351765D02*
X60225000Y-72575000D01*
X67996865Y-65628040D02*
X67299905Y-66325000D01*
X61225000Y-78325000D02*
X60475000Y-78325000D01*
X61225000Y-66325000D02*
X60475000Y-66325000D01*
X67299905Y-66325000D02*
X64225000Y-66325000D01*
X61198235Y-72351765D02*
X60448235Y-72351765D01*
X60475000Y-78325000D02*
X60225000Y-78575000D01*
%TO.N,Net-(D11-DOUT)*%
X59125000Y-75050000D02*
X59125000Y-79225000D01*
X56725000Y-72575000D02*
X56725000Y-72650000D01*
X56725000Y-72650000D02*
X59125000Y-75050000D01*
X59125000Y-79225000D02*
X60225000Y-80325000D01*
%TD*%
D22*
%TO.C,SW3*%
X128325000Y-60325000D02*
X147375000Y-60325000D01*
X128325000Y-79375000D02*
X128325000Y-60325000D01*
X147375000Y-60325000D02*
X147375000Y-79375000D01*
X147375000Y-79375000D02*
X128325000Y-79375000D01*
%TO.C,SW6*%
X128325000Y-79375000D02*
X147375000Y-79375000D01*
X128325000Y-98425000D02*
X128325000Y-79375000D01*
X147375000Y-79375000D02*
X147375000Y-98425000D01*
X147375000Y-98425000D02*
X128325000Y-98425000D01*
%TO.C,SW1*%
X90225000Y-60325000D02*
X109275000Y-60325000D01*
X90225000Y-79375000D02*
X90225000Y-60325000D01*
X109275000Y-60325000D02*
X109275000Y-79375000D01*
X109275000Y-79375000D02*
X90225000Y-79375000D01*
%TO.C,SW4*%
X90225000Y-79375000D02*
X109275000Y-79375000D01*
X90225000Y-98425000D02*
X90225000Y-79375000D01*
X109275000Y-79375000D02*
X109275000Y-98425000D01*
X109275000Y-98425000D02*
X90225000Y-98425000D01*
%TO.C,SW5*%
X109275000Y-79375000D02*
X128325000Y-79375000D01*
X109275000Y-98425000D02*
X109275000Y-79375000D01*
X128325000Y-79375000D02*
X128325000Y-98425000D01*
X128325000Y-98425000D02*
X109275000Y-98425000D01*
%TO.C,SW2*%
X109275000Y-60325000D02*
X128325000Y-60325000D01*
X109275000Y-79375000D02*
X109275000Y-60325000D01*
X128325000Y-60325000D02*
X128325000Y-79375000D01*
X128325000Y-79375000D02*
X109275000Y-79375000D01*
%TO.C,SW9*%
X128325000Y-98425000D02*
X147375000Y-98425000D01*
X128325000Y-117475000D02*
X128325000Y-98425000D01*
X147375000Y-98425000D02*
X147375000Y-117475000D01*
X147375000Y-117475000D02*
X128325000Y-117475000D01*
%TO.C,SW7*%
X90225000Y-98425000D02*
X109275000Y-98425000D01*
X90225000Y-117475000D02*
X90225000Y-98425000D01*
X109275000Y-98425000D02*
X109275000Y-117475000D01*
X109275000Y-117475000D02*
X90225000Y-117475000D01*
%TO.C,SW8*%
X109275000Y-98425000D02*
X128325000Y-98425000D01*
X109275000Y-117475000D02*
X109275000Y-98425000D01*
X128325000Y-98425000D02*
X128325000Y-117475000D01*
X128325000Y-117475000D02*
X109275000Y-117475000D01*
%TD*%
D23*
X53215000Y-57265000D02*
X152445000Y-57265000D01*
X152445000Y-121285000D01*
X53215000Y-121285000D01*
X53215000Y-57265000D01*
M02*
