M48
; DRILL file {KiCad 8.0.5} date 2024-10-24T23:33:20-0700
; FORMAT={-:-/ absolute / inch / decimal}
; #@! TF.CreationDate,2024-10-24T23:33:20-07:00
; #@! TF.GenerationSoftware,Kicad,Pcbnew,8.0.5
; #@! TF.FileFunction,Plated,1,2,PTH
FMAT,2
INCH
; #@! TA.AperFunction,Plated,PTH,ComponentDrill
T1C0.0276
; #@! TA.AperFunction,Plated,PTH,ComponentDrill
T2C0.0315
; #@! TA.AperFunction,Plated,PTH,ComponentDrill
T3C0.0394
; #@! TA.AperFunction,Plated,PTH,ComponentDrill
T4C0.0591
%
G90
G05
T1
X2.4394Y-2.3737
X2.6394Y-2.3737
X2.7346Y-2.3737
X2.9346Y-2.3737
T2
X1.8559Y-2.438
X2.1559Y-2.438
X2.3809Y-2.713
X2.3809Y-3.013
X2.3809Y-3.463
X2.3809Y-3.763
X2.3809Y-4.213
X2.3809Y-4.513
X3.1309Y-2.713
X3.1309Y-3.013
X3.1309Y-3.463
X3.1309Y-3.763
X3.1309Y-4.213
X3.1309Y-4.513
X3.3559Y-2.3737
X3.3559Y-3.188
X3.3559Y-3.938
X3.6559Y-2.3737
X3.6559Y-3.188
X3.6559Y-3.938
T3
X1.7205Y-1.9614
X1.7205Y-2.0598
X1.7205Y-2.1583
X2.2913Y-1.9614
X2.2913Y-2.1583
X2.4391Y-1.9098
X2.4391Y-2.0098
X2.4391Y-2.1098
X2.4391Y-2.2098
X3.198Y-1.8061
X3.198Y-1.9061
X3.198Y-2.0061
X3.198Y-2.1061
X3.198Y-2.2061
X3.198Y-2.3061
X3.198Y-2.4061
X3.7984Y-1.8061
X3.7984Y-1.9061
X3.7984Y-2.0061
X3.7984Y-2.1061
X3.7984Y-2.2061
X3.7984Y-2.3061
X3.7984Y-2.4061
T4
X1.8559Y-2.713
X1.8559Y-3.463
X1.8559Y-4.213
X2.1059Y-2.613
X2.1059Y-3.363
X2.1059Y-4.113
X2.6059Y-2.713
X2.6059Y-3.463
X2.6059Y-4.213
X2.8559Y-2.613
X2.8559Y-3.363
X2.8559Y-4.113
X3.3559Y-2.713
X3.3559Y-3.463
X3.3559Y-4.213
X3.6059Y-2.613
X3.6059Y-3.363
X3.6059Y-4.113
T4
G00X1.9902Y-1.8394
M15
G01X2.0413Y-1.8394
M16
G05
G00X1.9902Y-2.2803
M15
G01X2.0413Y-2.2803
M16
G05
M30
