M48
;GenerationSoftware,Autodesk,EAGLE,9.7.0*%
;CreationDate,2024-10-19T02:10:44Z*%
FMAT,2
ICI,OFF
METRIC,TZ,000.000
T4C1.000
T3C1.500
T2C1.714
T1C4.000
%
G90
M71
T1
X30480Y45720
X48260Y64770
X30480Y64770
X48260Y45720
X12700Y45720
X66040Y27940
X48260Y27940
X30480Y27940
X12700Y27940
X66040Y45720
X66040Y64770
T2
X60960Y27940
X71120Y27940
X25400Y45720
X35560Y45720
X43180Y27940
X53340Y27940
X43180Y64770
X53340Y64770
X25400Y27940
X35560Y27940
X25400Y64770
X35560Y64770
X7620Y27940
X17780Y27940
X43180Y45720
X53340Y45720
X60960Y45720
X71120Y45720
X7620Y45720
X17780Y45720
X60960Y64770
X71120Y64770
T3
X26670Y48260
X33020Y50800
X44450Y67310
X50800Y69850
X26670Y67310
X33020Y69850
X44450Y48260
X50800Y50800
X8890Y48260
X15240Y50800
X62230Y30480
X68580Y33020
X26670Y30480
X33020Y33020
X62230Y48260
X68580Y50800
X44450Y30480
X50800Y33020
X62230Y67310
X68580Y69850
X8890Y30480
X15240Y33020
T4
X3810Y74930
X3810Y72390
X3810Y69850
X3810Y67310
X3810Y64770
X3810Y62230
X3810Y59690
X19050Y59690
X19050Y62230
X19050Y64770
X19050Y67310
X19050Y69850
X19050Y72390
X19050Y74930
M30