%TF.GenerationSoftware,KiCad,Pcbnew,8.0.8*%
%TF.CreationDate,2025-02-16T16:29:03+01:00*%
%TF.ProjectId,Perihelion,50657269-6865-46c6-996f-6e2e6b696361,rev?*%
%TF.SameCoordinates,Original*%
%TF.FileFunction,Copper,L2,Bot*%
%TF.FilePolarity,Positive*%
%FSLAX46Y46*%
G04 Gerber Fmt 4.6, Leading zero omitted, Abs format (unit mm)*
G04 Created by KiCad (PCBNEW 8.0.8) date 2025-02-16 16:29:03*
%MOMM*%
%LPD*%
G01*
G04 APERTURE LIST*
%TA.AperFunction,ComponentPad*%
%ADD10C,2.200000*%
%TD*%
%TA.AperFunction,ComponentPad*%
%ADD11R,1.700000X1.700000*%
%TD*%
%TA.AperFunction,ComponentPad*%
%ADD12O,1.700000X1.700000*%
%TD*%
%TA.AperFunction,ComponentPad*%
%ADD13C,1.524000*%
%TD*%
%TA.AperFunction,ViaPad*%
%ADD14C,0.600000*%
%TD*%
%TA.AperFunction,Conductor*%
%ADD15C,0.200000*%
%TD*%
G04 APERTURE END LIST*
D10*
%TO.P,SW1,1,1*%
%TO.N,Net-(U1-GPIO1{slash}RX)*%
X150000000Y-55000000D03*
%TO.P,SW1,2,2*%
%TO.N,GND*%
X143650000Y-57540000D03*
%TD*%
D11*
%TO.P,U2,1,GND*%
%TO.N,GND*%
X204000000Y-33690000D03*
D12*
%TO.P,U2,2,VCC*%
%TO.N,+5V*%
X204000000Y-36230000D03*
%TO.P,U2,3,SCL*%
%TO.N,Net-(U1-GPIO7{slash}SCL)*%
X204000000Y-38770000D03*
%TO.P,U2,4,SDA*%
%TO.N,Net-(U1-GPIO6{slash}SDA)*%
X204000000Y-41310000D03*
%TD*%
D10*
%TO.P,SW3,1,1*%
%TO.N,Net-(U1-GPIO4{slash}MISO)*%
X190000000Y-55000000D03*
%TO.P,SW3,2,2*%
%TO.N,GND*%
X183650000Y-57540000D03*
%TD*%
D13*
%TO.P,U1,1,GPIO26/ADC0/A0*%
%TO.N,Net-(U1-GPIO26{slash}ADC0{slash}A0)*%
X139130000Y-30000000D03*
%TO.P,U1,2,GPIO27/ADC1/A1*%
%TO.N,Net-(D1-DIN)*%
X139130000Y-32540000D03*
%TO.P,U1,3,GPIO28/ADC2/A2*%
%TO.N,unconnected-(U1-GPIO28{slash}ADC2{slash}A2-Pad3)*%
X139130000Y-35080000D03*
%TO.P,U1,4,GPIO29/ADC3/A3*%
%TO.N,unconnected-(U1-GPIO29{slash}ADC3{slash}A3-Pad4)*%
X139130000Y-37620000D03*
%TO.P,U1,5,GPIO6/SDA*%
%TO.N,Net-(U1-GPIO6{slash}SDA)*%
X139130000Y-40160000D03*
%TO.P,U1,6,GPIO7/SCL*%
%TO.N,Net-(U1-GPIO7{slash}SCL)*%
X139130000Y-42700000D03*
%TO.P,U1,7,GPIO0/TX*%
%TO.N,Net-(U1-GPIO0{slash}TX)*%
X139130000Y-45240000D03*
%TO.P,U1,8,GPIO1/RX*%
%TO.N,Net-(U1-GPIO1{slash}RX)*%
X154370000Y-45240000D03*
%TO.P,U1,9,GPIO2/SCK*%
%TO.N,Net-(U1-GPIO2{slash}SCK)*%
X154370000Y-42700000D03*
%TO.P,U1,10,GPIO4/MISO*%
%TO.N,Net-(U1-GPIO4{slash}MISO)*%
X154370000Y-40160000D03*
%TO.P,U1,11,GPIO3/MOSI*%
%TO.N,Net-(U1-GPIO3{slash}MOSI)*%
X154370000Y-37620000D03*
%TO.P,U1,12,3V3*%
%TO.N,unconnected-(U1-3V3-Pad12)*%
X154370000Y-35080000D03*
%TO.P,U1,13,GND*%
%TO.N,GND*%
X154370000Y-32540000D03*
%TO.P,U1,14,VBUS*%
%TO.N,+5V*%
X154370000Y-30000000D03*
%TD*%
D10*
%TO.P,SW4,1,1*%
%TO.N,Net-(U1-GPIO3{slash}MOSI)*%
X210000000Y-55000000D03*
%TO.P,SW4,2,2*%
%TO.N,GND*%
X203650000Y-57540000D03*
%TD*%
%TO.P,SW2,1,1*%
%TO.N,Net-(U1-GPIO2{slash}SCK)*%
X170000000Y-55000000D03*
%TO.P,SW2,2,2*%
%TO.N,GND*%
X163650000Y-57540000D03*
%TD*%
D14*
%TO.N,GND*%
X203948800Y-72675400D03*
X157411300Y-72639200D03*
%TO.N,Net-(D1-DIN)*%
X147781300Y-73092300D03*
%TO.N,+5V*%
X231247500Y-71625000D03*
X231247500Y-59125000D03*
%TO.N,Net-(D3-DOUT)*%
X207944800Y-72965800D03*
X207944800Y-69654900D03*
%TO.N,Net-(D5-DOUT)*%
X220320300Y-47648300D03*
X220320300Y-71625000D03*
%TO.N,Net-(D6-DOUT)*%
X224648300Y-45780300D03*
X227505000Y-60872100D03*
%TO.N,Net-(U1-GPIO2{slash}SCK)*%
X170000000Y-42700000D03*
%TO.N,Net-(U1-GPIO4{slash}MISO)*%
X190000000Y-39810300D03*
%TO.N,Net-(U1-GPIO3{slash}MOSI)*%
X205612200Y-37324900D03*
%TO.N,Net-(U1-GPIO6{slash}SDA)*%
X141386600Y-41310000D03*
%TD*%
D15*
%TO.N,GND*%
X204000000Y-34841700D02*
X204287900Y-34841700D01*
X203948800Y-57838800D02*
X203948800Y-72675400D01*
X204287900Y-34841700D02*
X205161900Y-35715700D01*
X203650000Y-57540000D02*
X203948800Y-57838800D01*
X205161900Y-37725400D02*
X205161900Y-56028100D01*
X204000000Y-33690000D02*
X204000000Y-34841700D01*
X205161900Y-35715700D02*
X205161900Y-36924400D01*
X157411300Y-35581300D02*
X157411300Y-57540000D01*
X157411300Y-57540000D02*
X157411300Y-72639200D01*
X205161900Y-36924400D02*
X205010500Y-37075800D01*
X163650000Y-57540000D02*
X157411300Y-57540000D01*
X205010500Y-37075800D02*
X205010500Y-37574000D01*
X205161900Y-56028100D02*
X203650000Y-57540000D01*
X205010500Y-37574000D02*
X205161900Y-37725400D01*
X154370000Y-32540000D02*
X157411300Y-35581300D01*
%TO.N,Net-(D1-DIN)*%
X144895200Y-58719400D02*
X144895200Y-70206200D01*
X139130000Y-32540000D02*
X145051900Y-38461900D01*
X145051900Y-58562700D02*
X144895200Y-58719400D01*
X144895200Y-70206200D02*
X147781300Y-73092300D01*
X145051900Y-38461900D02*
X145051900Y-58562700D01*
%TO.N,+5V*%
X231247500Y-71625000D02*
X231247500Y-59125000D01*
%TO.N,Net-(D3-DOUT)*%
X207944800Y-72965800D02*
X207944800Y-69654900D01*
%TO.N,Net-(D5-DOUT)*%
X220320300Y-47648300D02*
X220320300Y-71625000D01*
%TO.N,Net-(D6-DOUT)*%
X227505000Y-48637000D02*
X224648300Y-45780300D01*
X227505000Y-60872100D02*
X227505000Y-48637000D01*
%TO.N,Net-(U1-GPIO1{slash}RX)*%
X150000000Y-49610000D02*
X150000000Y-55000000D01*
X154370000Y-45240000D02*
X150000000Y-49610000D01*
%TO.N,Net-(U1-GPIO2{slash}SCK)*%
X170000000Y-55000000D02*
X170000000Y-42700000D01*
%TO.N,Net-(U1-GPIO4{slash}MISO)*%
X190000000Y-55000000D02*
X190000000Y-39810300D01*
%TO.N,Net-(U1-GPIO3{slash}MOSI)*%
X210000000Y-55000000D02*
X205612200Y-50612200D01*
X205612200Y-50612200D02*
X205612200Y-37324900D01*
%TO.N,Net-(U1-GPIO6{slash}SDA)*%
X140280000Y-41310000D02*
X141386600Y-41310000D01*
X139130000Y-40160000D02*
X140280000Y-41310000D01*
%TD*%
M02*
