0
SECTION
2
HEADER
9
$INSUNITS
70
4
9
$ACADVER
1
AC1014
9
$HANDSEED
5
FFFF
0
ENDSEC
0
SECTION
2
TABLES
0
TABLE
2
VPORT
5
8
100
AcDbSymbolTable
0
ENDTAB
0
TABLE
2
LTYPE
5
5
100
AcDbSymbolTable
0
LTYPE
5
14
100
AcDbSymbolTableRecord
100
AcDbLinetypeTableRecord
2
BYBLOCK
70
0
0
LTYPE
5
15
100
AcDbSymbolTableRecord
100
AcDbLinetypeTableRecord
2
BYLAYER
70
0
0
ENDTAB
0
TABLE
2
LAYER
5
2
100
AcDbSymbolTable
70
2
0
LAYER
5
50
100
AcDbSymbolTableRecord
100
AcDbLayerTableRecord
2
0
70
0
6
CONTINUOUS
0
ENDTAB
0
TABLE
2
STYLE
5
3
100
AcDbSymbolTable
70
1
0
STYLE
5
11
100
AcDbSymbolTableRecord
100
AcDbTextStyleTableRecord
2
STANDARD
70
0
0
ENDTAB
0
TABLE
2
VIEW
5
6
100
AcDbSymbolTable
70
0
0
ENDTAB
0
TABLE
2
UCS
5
7
100
AcDbSymbolTable
70
0
0
ENDTAB
0
TABLE
2
APPID
5
9
100
AcDbSymbolTable
70
2
0
APPID
5
12
100
AcDbSymbolTableRecord
100
AcDbRegAppTableRecord
2
ACAD
70
0
0
ENDTAB
0
TABLE
2
DIMSTYLE
5
A
100
AcDbSymbolTable
70
1
0
ENDTAB
0
TABLE
2
BLOCK_RECORD
5
1
100
AcDbSymbolTable
70
1
0
BLOCK_RECORD
5
1F
100
AcDbSymbolTableRecord
100
AcDbBlockTableRecord
2
*MODEL_SPACE
0
BLOCK_RECORD
5
1B
100
AcDbSymbolTableRecord
100
AcDbBlockTableRecord
2
*PAPER_SPACE
0
ENDTAB
0
ENDSEC
0
SECTION
2
BLOCKS
0
BLOCK
5
20
100
AcDbEntity
100
AcDbBlockBegin
2
*MODEL_SPACE
0
ENDBLK
5
21
100
AcDbEntity
100
AcDbBlockEnd
0
BLOCK
5
1C
100
AcDbEntity
100
AcDbBlockBegin
2
*PAPER_SPACE
0
ENDBLK
5
1D
100
AcDbEntity
100
AcDbBlockEnd
0
ENDSEC
0
SECTION
2
ENTITIES
0
LWPOLYLINE
5
100
100
AcDbEntity
8
0
100
AcDbPolyline
90
22
70
1
43
0.0
10
-111.50000000000817
20
80.799998193979263
42
1.0000045150620345
10
-111.90000000000001
20
80.799999999999997
10
-112.10000000000817
20
80.799998193979263
42
1.0000090301413813
10
-112.49999999999184
20
80.799998193979263
10
-115.61
20
80.799999999990021
42
-0.41421333333363536
10
-118.61000000000001
20
83.800000000000011
10
-118.61000000001002
20
128.80000000000001
42
-0.41421333333168081
10
-115.61
20
131.80000000000001
10
-21.609999999999999
20
131.79999999998699
42
-0.41421333333197263
10
-18.610000000000007
20
128.80000000000001
10
-18.610000000006984
20
83.800000000000011
42
-0.41421333333392668
10
-21.609999999999996
20
80.799999999999997
10
-108.50000000000817
20
80.799998193979263
42
1.0000090301413813
10
-108.89999999999185
20
80.799998193979263
10
-109.10000000000815
20
80.799998193979263
42
1.0000090301413813
10
-109.49999999999184
20
80.799998193979263
10
-109.70000000000817
20
80.799998193979263
42
1.0000090301413813
10
-110.09999999999187
20
80.799998193979263
10
-110.30000000000817
20
80.799998193979263
42
1.0000090301413813
10
-110.69999999999185
20
80.799998193979263
10
-110.90000000000815
20
80.799998193979263
42
1.0000090301413813
10
-111.29999999999184
20
80.799998193979263
0
LWPOLYLINE
5
101
100
AcDbEntity
8
0
100
AcDbPolyline
90
4
70
1
43
0.0
10
-42
20
84.599999999999994
10
-42
20
98.599999999999994
10
-28.000000000000007
20
98.599999999999994
10
-28.000000000000007
20
84.599999999999994
0
LWPOLYLINE
5
102
100
AcDbEntity
8
0
100
AcDbPolyline
90
4
70
1
43
0.0
10
-61.400000000000006
20
84.599999999999994
10
-61.400000000000006
20
98.599999999999994
10
-47.400000000000006
20
98.599999999999994
10
-47.400000000000006
20
84.599999999999994
0
LWPOLYLINE
5
103
100
AcDbEntity
8
0
100
AcDbPolyline
90
4
70
1
43
0.0
10
-93.200000000000003
20
114.20000000000002
10
-93.200000000000003
20
128.19999999999999
10
-79.200000000000003
20
128.19999999999999
10
-79.200000000000003
20
114.20000000000002
0
LWPOLYLINE
5
104
100
AcDbEntity
8
0
100
AcDbPolyline
90
4
70
1
43
0.0
10
-80.799999999999997
20
84.599999999999994
10
-80.799999999999997
20
98.599999999999994
10
-66.799999999999997
20
98.599999999999994
10
-66.799999999999997
20
84.599999999999994
0
LWPOLYLINE
5
105
100
AcDbEntity
8
0
100
AcDbPolyline
90
4
70
1
43
0.0
10
-100.60000000000001
20
92.799999999999997
10
-100.60000000000001
20
106.8
10
-86.599999999999994
20
106.8
10
-86.599999999999994
20
92.799999999999997
0
CIRCLE
5
106
100
AcDbEntity
8
0
100
AcDbCircle
10
-22
20
128.40000000000001
30
0
40
1.0499999999999998
210
0
220
0
230
1
0
CIRCLE
5
107
100
AcDbEntity
8
0
100
AcDbCircle
10
-22
20
84.200000000000003
30
0
40
1.0499999999999998
210
0
220
0
230
1
0
CIRCLE
5
108
100
AcDbEntity
8
0
100
AcDbCircle
10
-115.20000000000002
20
128.40000000000001
30
0
40
1.0500000000000043
210
0
220
0
230
1
0
CIRCLE
5
109
100
AcDbEntity
8
0
100
AcDbCircle
10
-115.20000000000002
20
84.200000000000003
30
0
40
1.0500000000000043
210
0
220
0
230
1
0
ENDSEC
0
SECTION
2
OBJECTS
0
DICTIONARY
5
C
100
AcDbDictionary
3
ACAD_GROUP
350
D
3
ACAD_MLINESTYLE
350
17
0
DICTIONARY
5
D
100
AcDbDictionary
0
DICTIONARY
5
1A
330
C
100
AcDbDictionary
0
DICTIONARY
5
17
100
AcDbDictionary
0
ENDSEC
0
EOF
