  0
SECTION
  2
BLOCKS
  0
ENDSEC
  0
SECTION
  2
ENTITIES
  0
LINE
  8
0
 10
120
 20
120
 11
-20
 21
120
  0
LINE
  8
0
 10
-20
 20
120
 11
-20
 21
-20
  0
LINE
  8
0
 10
-20
 20
-20
 11
120
 21
-20
  0
LINE
  8
0
 10
120
 20
-20
 11
120
 21
120
  0
LINE
  8
0
 10
-12.6516
 20
111.058
 11
-12.9481
 21
111.121
  0
LINE
  8
0
 10
-12.9481
 20
111.121
 11
-13.225
 21
111.244
  0
LINE
  8
0
 10
-13.225
 20
111.244
 11
-13.4702
 21
111.422
  0
LINE
  8
0
 10
-13.4702
 20
111.422
 11
-13.6731
 21
111.648
  0
LINE
  8
0
 10
-13.6731
 20
111.648
 11
-13.8246
 21
111.91
  0
LINE
  8
0
 10
-13.8246
 20
111.91
 11
-13.9183
 21
112.199
  0
LINE
  8
0
 10
-13.9183
 20
112.199
 11
-13.95
 21
112.5
  0
LINE
  8
0
 10
-13.95
 20
112.5
 11
-13.9183
 21
112.801
  0
LINE
  8
0
 10
-13.9183
 20
112.801
 11
-13.8246
 21
113.09
  0
LINE
  8
0
 10
-13.8246
 20
113.09
 11
-13.6731
 21
113.352
  0
LINE
  8
0
 10
-13.6731
 20
113.352
 11
-13.4702
 21
113.578
  0
LINE
  8
0
 10
-13.4702
 20
113.578
 11
-13.225
 21
113.756
  0
LINE
  8
0
 10
-13.225
 20
113.756
 11
-12.9481
 21
113.879
  0
LINE
  8
0
 10
-12.9481
 20
113.879
 11
-12.6516
 21
113.942
  0
LINE
  8
0
 10
-12.6516
 20
113.942
 11
-12.3484
 21
113.942
  0
LINE
  8
0
 10
-12.3484
 20
113.942
 11
-12.0519
 21
113.879
  0
LINE
  8
0
 10
-12.0519
 20
113.879
 11
-11.775
 21
113.756
  0
LINE
  8
0
 10
-11.775
 20
113.756
 11
-11.5298
 21
113.578
  0
LINE
  8
0
 10
-11.5298
 20
113.578
 11
-11.3269
 21
113.352
  0
LINE
  8
0
 10
-11.3269
 20
113.352
 11
-11.1754
 21
113.09
  0
LINE
  8
0
 10
-11.1754
 20
113.09
 11
-11.0817
 21
112.801
  0
LINE
  8
0
 10
-11.0817
 20
112.801
 11
-11.05
 21
112.5
  0
LINE
  8
0
 10
-11.05
 20
112.5
 11
-11.0817
 21
112.199
  0
LINE
  8
0
 10
-11.0817
 20
112.199
 11
-11.1754
 21
111.91
  0
LINE
  8
0
 10
-11.1754
 20
111.91
 11
-11.3269
 21
111.648
  0
LINE
  8
0
 10
-11.3269
 20
111.648
 11
-11.5298
 21
111.422
  0
LINE
  8
0
 10
-11.5298
 20
111.422
 11
-11.775
 21
111.244
  0
LINE
  8
0
 10
-11.775
 20
111.244
 11
-12.0519
 21
111.121
  0
LINE
  8
0
 10
-12.0519
 20
111.121
 11
-12.3484
 21
111.058
  0
LINE
  8
0
 10
-12.3484
 20
111.058
 11
-12.6516
 21
111.058
  0
LINE
  8
0
 10
112.348
 20
111.058
 11
112.052
 21
111.121
  0
LINE
  8
0
 10
112.052
 20
111.121
 11
111.775
 21
111.244
  0
LINE
  8
0
 10
111.775
 20
111.244
 11
111.53
 21
111.422
  0
LINE
  8
0
 10
111.53
 20
111.422
 11
111.327
 21
111.648
  0
LINE
  8
0
 10
111.327
 20
111.648
 11
111.175
 21
111.91
  0
LINE
  8
0
 10
111.175
 20
111.91
 11
111.082
 21
112.199
  0
LINE
  8
0
 10
111.082
 20
112.199
 11
111.05
 21
112.5
  0
LINE
  8
0
 10
111.05
 20
112.5
 11
111.082
 21
112.801
  0
LINE
  8
0
 10
111.082
 20
112.801
 11
111.175
 21
113.09
  0
LINE
  8
0
 10
111.175
 20
113.09
 11
111.327
 21
113.352
  0
LINE
  8
0
 10
111.327
 20
113.352
 11
111.53
 21
113.578
  0
LINE
  8
0
 10
111.53
 20
113.578
 11
111.775
 21
113.756
  0
LINE
  8
0
 10
111.775
 20
113.756
 11
112.052
 21
113.879
  0
LINE
  8
0
 10
112.052
 20
113.879
 11
112.348
 21
113.942
  0
LINE
  8
0
 10
112.348
 20
113.942
 11
112.652
 21
113.942
  0
LINE
  8
0
 10
112.652
 20
113.942
 11
112.948
 21
113.879
  0
LINE
  8
0
 10
112.948
 20
113.879
 11
113.225
 21
113.756
  0
LINE
  8
0
 10
113.225
 20
113.756
 11
113.47
 21
113.578
  0
LINE
  8
0
 10
113.47
 20
113.578
 11
113.673
 21
113.352
  0
LINE
  8
0
 10
113.673
 20
113.352
 11
113.825
 21
113.09
  0
LINE
  8
0
 10
113.825
 20
113.09
 11
113.918
 21
112.801
  0
LINE
  8
0
 10
113.918
 20
112.801
 11
113.95
 21
112.5
  0
LINE
  8
0
 10
113.95
 20
112.5
 11
113.918
 21
112.199
  0
LINE
  8
0
 10
113.918
 20
112.199
 11
113.825
 21
111.91
  0
LINE
  8
0
 10
113.825
 20
111.91
 11
113.673
 21
111.648
  0
LINE
  8
0
 10
113.673
 20
111.648
 11
113.47
 21
111.422
  0
LINE
  8
0
 10
113.47
 20
111.422
 11
113.225
 21
111.244
  0
LINE
  8
0
 10
113.225
 20
111.244
 11
112.948
 21
111.121
  0
LINE
  8
0
 10
112.948
 20
111.121
 11
112.652
 21
111.058
  0
LINE
  8
0
 10
112.652
 20
111.058
 11
112.348
 21
111.058
  0
LINE
  8
0
 10
-5
 20
19.5
 11
-5
 21
105
  0
LINE
  8
0
 10
-5
 20
105
 11
63
 21
105
  0
LINE
  8
0
 10
63
 20
105
 11
63
 21
19.5
  0
LINE
  8
0
 10
63
 20
19.5
 11
-5
 21
19.5
  0
LINE
  8
0
 10
112.348
 20
-13.942
 11
112.052
 21
-13.879
  0
LINE
  8
0
 10
112.052
 20
-13.879
 11
111.775
 21
-13.7557
  0
LINE
  8
0
 10
111.775
 20
-13.7557
 11
111.53
 21
-13.5775
  0
LINE
  8
0
 10
111.53
 20
-13.5775
 11
111.327
 21
-13.3523
  0
LINE
  8
0
 10
111.327
 20
-13.3523
 11
111.175
 21
-13.0898
  0
LINE
  8
0
 10
111.175
 20
-13.0898
 11
111.082
 21
-12.8015
  0
LINE
  8
0
 10
111.082
 20
-12.8015
 11
111.05
 21
-12.5
  0
LINE
  8
0
 10
111.05
 20
-12.5
 11
111.082
 21
-12.1985
  0
LINE
  8
0
 10
111.082
 20
-12.1985
 11
111.175
 21
-11.9102
  0
LINE
  8
0
 10
111.175
 20
-11.9102
 11
111.327
 21
-11.6477
  0
LINE
  8
0
 10
111.327
 20
-11.6477
 11
111.53
 21
-11.4224
  0
LINE
  8
0
 10
111.53
 20
-11.4224
 11
111.775
 21
-11.2443
  0
LINE
  8
0
 10
111.775
 20
-11.2443
 11
112.052
 21
-11.121
  0
LINE
  8
0
 10
112.052
 20
-11.121
 11
112.348
 21
-11.0579
  0
LINE
  8
0
 10
112.348
 20
-11.0579
 11
112.652
 21
-11.0579
  0
LINE
  8
0
 10
112.652
 20
-11.0579
 11
112.948
 21
-11.121
  0
LINE
  8
0
 10
112.948
 20
-11.121
 11
113.225
 21
-11.2443
  0
LINE
  8
0
 10
113.225
 20
-11.2443
 11
113.47
 21
-11.4224
  0
LINE
  8
0
 10
113.47
 20
-11.4224
 11
113.673
 21
-11.6477
  0
LINE
  8
0
 10
113.673
 20
-11.6477
 11
113.825
 21
-11.9102
  0
LINE
  8
0
 10
113.825
 20
-11.9102
 11
113.918
 21
-12.1985
  0
LINE
  8
0
 10
113.918
 20
-12.1985
 11
113.95
 21
-12.5
  0
LINE
  8
0
 10
113.95
 20
-12.5
 11
113.918
 21
-12.8015
  0
LINE
  8
0
 10
113.918
 20
-12.8015
 11
113.825
 21
-13.0898
  0
LINE
  8
0
 10
113.825
 20
-13.0898
 11
113.673
 21
-13.3523
  0
LINE
  8
0
 10
113.673
 20
-13.3523
 11
113.47
 21
-13.5775
  0
LINE
  8
0
 10
113.47
 20
-13.5775
 11
113.225
 21
-13.7557
  0
LINE
  8
0
 10
113.225
 20
-13.7557
 11
112.948
 21
-13.879
  0
LINE
  8
0
 10
112.948
 20
-13.879
 11
112.652
 21
-13.942
  0
LINE
  8
0
 10
112.652
 20
-13.942
 11
112.348
 21
-13.942
  0
LINE
  8
0
 10
-12.6516
 20
-13.942
 11
-12.9481
 21
-13.879
  0
LINE
  8
0
 10
-12.9481
 20
-13.879
 11
-13.225
 21
-13.7557
  0
LINE
  8
0
 10
-13.225
 20
-13.7557
 11
-13.4702
 21
-13.5775
  0
LINE
  8
0
 10
-13.4702
 20
-13.5775
 11
-13.6731
 21
-13.3523
  0
LINE
  8
0
 10
-13.6731
 20
-13.3523
 11
-13.8246
 21
-13.0898
  0
LINE
  8
0
 10
-13.8246
 20
-13.0898
 11
-13.9183
 21
-12.8015
  0
LINE
  8
0
 10
-13.9183
 20
-12.8015
 11
-13.95
 21
-12.5
  0
LINE
  8
0
 10
-13.95
 20
-12.5
 11
-13.9183
 21
-12.1985
  0
LINE
  8
0
 10
-13.9183
 20
-12.1985
 11
-13.8246
 21
-11.9102
  0
LINE
  8
0
 10
-13.8246
 20
-11.9102
 11
-13.6731
 21
-11.6477
  0
LINE
  8
0
 10
-13.6731
 20
-11.6477
 11
-13.4702
 21
-11.4224
  0
LINE
  8
0
 10
-13.4702
 20
-11.4224
 11
-13.225
 21
-11.2443
  0
LINE
  8
0
 10
-13.225
 20
-11.2443
 11
-12.9481
 21
-11.121
  0
LINE
  8
0
 10
-12.9481
 20
-11.121
 11
-12.6516
 21
-11.0579
  0
LINE
  8
0
 10
-12.6516
 20
-11.0579
 11
-12.3484
 21
-11.0579
  0
LINE
  8
0
 10
-12.3484
 20
-11.0579
 11
-12.0519
 21
-11.121
  0
LINE
  8
0
 10
-12.0519
 20
-11.121
 11
-11.775
 21
-11.2443
  0
LINE
  8
0
 10
-11.775
 20
-11.2443
 11
-11.5298
 21
-11.4224
  0
LINE
  8
0
 10
-11.5298
 20
-11.4224
 11
-11.3269
 21
-11.6477
  0
LINE
  8
0
 10
-11.3269
 20
-11.6477
 11
-11.1754
 21
-11.9102
  0
LINE
  8
0
 10
-11.1754
 20
-11.9102
 11
-11.0817
 21
-12.1985
  0
LINE
  8
0
 10
-11.0817
 20
-12.1985
 11
-11.05
 21
-12.5
  0
LINE
  8
0
 10
-11.05
 20
-12.5
 11
-11.0817
 21
-12.8015
  0
LINE
  8
0
 10
-11.0817
 20
-12.8015
 11
-11.1754
 21
-13.0898
  0
LINE
  8
0
 10
-11.1754
 20
-13.0898
 11
-11.3269
 21
-13.3523
  0
LINE
  8
0
 10
-11.3269
 20
-13.3523
 11
-11.5298
 21
-13.5775
  0
LINE
  8
0
 10
-11.5298
 20
-13.5775
 11
-11.775
 21
-13.7557
  0
LINE
  8
0
 10
-11.775
 20
-13.7557
 11
-12.0519
 21
-13.879
  0
LINE
  8
0
 10
-12.0519
 20
-13.879
 11
-12.3484
 21
-13.942
  0
LINE
  8
0
 10
-12.3484
 20
-13.942
 11
-12.6516
 21
-13.942
  0
ENDSEC
  0
SECTION
  2
OBJECTS
  0
DICTIONARY
  0
ENDSEC
  0
EOF
