P3
16 16 255
255 255 255 255 255 255 255 255 255 255 255 255 255 255 255 109 0 255 255 255 255 255 255 255 255 255 255 255 255 255 255 255 255 255 255 255 255 255 255 255 255 255 255 255 255 255 255 255 255 255 255 255 255 255 255 255 255 109 0 255 109 0 255 168 121 251 109 0 255 109 0 255 109 0 255 255 255 255 255 255 255 255 255 255 255 255 255 255 255 255 255 255 255 255 255 255 255 255 255 255 255 255 109 0 255 168 121 251 168 121 251 168 121 251 168 121 251 168 121 251 109 0 255 109 0 255 255 255 255 255 255 255 255 255 255 255 255 255 255 255 255 255 255 255 255 255 255 109 0 255 109 0 255 168 121 251 214 0 255 214 0 255 214 0 255 168 121 251 168 121 251 109 0 255 109 0 255 109 0 255 109 0 255 109 0 255 255 255 255 255 255 255 255 255 255 109 0 255 168 121 251 168 121 251 214 0 255 214 0 255 214 0 255 214 0 255 168 121 251 168 121 251 168 121 251 168 121 251 168 121 251 109 0 255 109 0 255 255 255 255 255 255 255 109 0 255 214 0 255 214 0 255 214 0 255 214 0 255 214 0 255 214 0 255 214 0 255 214 0 255 214 0 255 214 0 255 214 0 255 109 0 255 109 0 255 255 255 255 255 255 255 109 0 255 230 121 251 230 121 251 230 121 251 230 121 251 230 121 251 214 0 255 230 121 251 230 121 251 230 121 251 230 121 251 230 121 251 109 0 255 255 255 255 255 255 255 255 255 255 255 255 255 109 0 255 109 0 255 109 0 255 109 0 255 230 121 251 230 121 251 230 121 251 109 0 255 109 0 255 109 0 255 109 0 255 255 255 255 255 255 255 121 149 251 255 255 255 255 255 255 255 255 255 255 255 255 255 255 255 255 255 255 109 0 255 109 0 255 109 0 255 109 0 255 255 255 255 255 255 255 255 255 255 121 149 251 255 255 255 121 149 251 255 255 255 255 255 255 255 255 255 121 149 251 255 255 255 255 255 255 255 255 255 255 255 255 255 255 255 255 255 255 255 255 255 255 255 255 255 255 255 121 149 251 255 255 255 255 255 255 255 255 255 255 255 255 255 255 255 121 149 251 255 255 255 255 255 255 255 255 255 121 149 251 255 255 255 255 255 255 121 149 251 255 255 255 255 255 255 121 149 251 255 255 255 255 255 255 255 255 255 255 255 255 255 255 255 255 255 255 255 255 255 121 149 251 255 255 255 121 149 251 255 255 255 255 255 255 121 149 251 255 255 255 255 255 255 121 149 251 255 255 255 255 255 255 255 255 255 255 255 255 255 255 255 121 149 251 255 255 255 121 149 251 255 255 255 255 255 255 255 255 255 255 255 255 255 255 255 255 255 255 255 255 255 255 255 255 255 255 255 255 255 255 255 255 255 255 255 255 255 255 255 121 149 251 255 255 255 121 149 251 255 255 255 255 255 255 255 255 255 255 255 255 121 149 251 255 255 255 255 255 255 255 255 255 255 255 255 255 255 255 255 255 255 255 255 255 255 255 255 255 255 255 255 255 255 121 149 251 255 255 255 255 255 255 255 255 255 255 255 255 255 255 255 255 255 255 255 255 255 255 255 255 255 255 255 255 255 255 255 255 255 255 255 255 255 255 255 255 255 255 255 255 255 255 255 255 255 255 255 255 255 255 255 255 255 255 255 255 255 255 255 255 255 255 255 255 255 255 255 255 255 255 255 255 255 255
