P2
8 8 255
0 255 0 203 128 0 128 0
128 0 84 0 0 84 0 255
0 84 0 255 62 0 84 0
128 0 62 0 0 255 0 203
203 0 255 0 0 62 0 128
0 84 0 62 255 0 84 0
255 0 84 0 0 84 0 128
0 128 0 128 203 0 255 0
