solid ASCII
  facet normal 0.000000e+00 -1.000000e+00 0.000000e+00
    outer loop
      vertex   -5.379645e+01 2.200000e+01 1.300000e+01
      vertex   -5.379645e+01 2.200000e+01 6.000000e+00
      vertex   -4.679645e+01 2.200000e+01 1.300000e+01
    endloop
  endfacet
  facet normal 0.000000e+00 -1.000000e+00 -0.000000e+00
    outer loop
      vertex   -4.679645e+01 2.200000e+01 1.300000e+01
      vertex   -5.379645e+01 2.200000e+01 6.000000e+00
      vertex   -4.679645e+01 2.200000e+01 6.000000e+00
    endloop
  endfacet
  facet normal -0.000000e+00 0.000000e+00 1.000000e+00
    outer loop
      vertex   -5.379645e+01 2.200000e+01 6.000000e+00
      vertex   -5.379645e+01 9.500000e+00 6.000000e+00
      vertex   -4.679645e+01 2.200000e+01 6.000000e+00
    endloop
  endfacet
  facet normal 0.000000e+00 0.000000e+00 1.000000e+00
    outer loop
      vertex   -4.679645e+01 2.200000e+01 6.000000e+00
      vertex   -5.379645e+01 9.500000e+00 6.000000e+00
      vertex   -4.679645e+01 9.500000e+00 6.000000e+00
    endloop
  endfacet
  facet normal 0.000000e+00 1.000000e+00 0.000000e+00
    outer loop
      vertex   -5.379645e+01 9.500000e+00 6.000000e+00
      vertex   -5.379645e+01 9.500000e+00 1.300000e+01
      vertex   -4.679645e+01 9.500000e+00 6.000000e+00
    endloop
  endfacet
  facet normal 0.000000e+00 1.000000e+00 -0.000000e+00
    outer loop
      vertex   -4.679645e+01 9.500000e+00 6.000000e+00
      vertex   -5.379645e+01 9.500000e+00 1.300000e+01
      vertex   -4.679645e+01 9.500000e+00 1.300000e+01
    endloop
  endfacet
  facet normal 0.000000e+00 0.000000e+00 -1.000000e+00
    outer loop
      vertex   -5.379645e+01 9.500000e+00 1.300000e+01
      vertex   -5.379645e+01 2.200000e+01 1.300000e+01
      vertex   -4.679645e+01 9.500000e+00 1.300000e+01
    endloop
  endfacet
  facet normal 0.000000e+00 0.000000e+00 -1.000000e+00
    outer loop
      vertex   -4.679645e+01 9.500000e+00 1.300000e+01
      vertex   -5.379645e+01 2.200000e+01 1.300000e+01
      vertex   -4.679645e+01 2.200000e+01 1.300000e+01
    endloop
  endfacet
  facet normal 0.000000e+00 0.000000e+00 -1.000000e+00
    outer loop
      vertex   -4.779266e+01 -4.258765e+01 0.000000e+00
      vertex   -4.876858e+01 -4.237535e+01 0.000000e+00
      vertex   -4.679645e+01 -4.265890e+01 0.000000e+00
    endloop
  endfacet
  facet normal 0.000000e+00 0.000000e+00 -1.000000e+00
    outer loop
      vertex   -4.679645e+01 -4.265890e+01 0.000000e+00
      vertex   -4.876858e+01 -4.237535e+01 0.000000e+00
      vertex   -4.970436e+01 -4.202632e+01 0.000000e+00
    endloop
  endfacet
  facet normal 0.000000e+00 0.000000e+00 -1.000000e+00
    outer loop
      vertex   -4.679645e+01 -4.265890e+01 0.000000e+00
      vertex   -4.970436e+01 -4.202632e+01 0.000000e+00
      vertex   -5.058094e+01 -4.154767e+01 0.000000e+00
    endloop
  endfacet
  facet normal 0.000000e+00 0.000000e+00 -1.000000e+00
    outer loop
      vertex   -5.058094e+01 -4.154767e+01 0.000000e+00
      vertex   -5.138048e+01 -4.094915e+01 0.000000e+00
      vertex   -4.679645e+01 -4.265890e+01 0.000000e+00
    endloop
  endfacet
  facet normal 0.000000e+00 0.000000e+00 -1.000000e+00
    outer loop
      vertex   -4.679645e+01 -4.265890e+01 0.000000e+00
      vertex   -5.138048e+01 -4.094915e+01 0.000000e+00
      vertex   -5.208670e+01 -4.024292e+01 0.000000e+00
    endloop
  endfacet
  facet normal 0.000000e+00 0.000000e+00 -1.000000e+00
    outer loop
      vertex   -4.679645e+01 -4.265890e+01 0.000000e+00
      vertex   -5.208670e+01 -4.024292e+01 0.000000e+00
      vertex   -5.268523e+01 -3.944338e+01 0.000000e+00
    endloop
  endfacet
  facet normal 0.000000e+00 0.000000e+00 -1.000000e+00
    outer loop
      vertex   -5.268523e+01 -3.944338e+01 0.000000e+00
      vertex   -5.316388e+01 -3.856680e+01 0.000000e+00
      vertex   -4.679645e+01 -4.265890e+01 0.000000e+00
    endloop
  endfacet
  facet normal 0.000000e+00 0.000000e+00 -1.000000e+00
    outer loop
      vertex   -4.679645e+01 -4.265890e+01 0.000000e+00
      vertex   -5.316388e+01 -3.856680e+01 0.000000e+00
      vertex   -5.351291e+01 -3.763103e+01 0.000000e+00
    endloop
  endfacet
  facet normal 0.000000e+00 0.000000e+00 -1.000000e+00
    outer loop
      vertex   -4.679645e+01 -4.265890e+01 0.000000e+00
      vertex   -5.351291e+01 -3.763103e+01 0.000000e+00
      vertex   -5.372520e+01 -3.665510e+01 0.000000e+00
    endloop
  endfacet
  facet normal 0.000000e+00 0.000000e+00 -1.000000e+00
    outer loop
      vertex   -5.372520e+01 -3.665510e+01 0.000000e+00
      vertex   -5.379645e+01 -3.565890e+01 0.000000e+00
      vertex   -4.679645e+01 -4.265890e+01 0.000000e+00
    endloop
  endfacet
  facet normal 0.000000e+00 0.000000e+00 -1.000000e+00
    outer loop
      vertex   -4.679645e+01 -4.265890e+01 0.000000e+00
      vertex   -5.379645e+01 -3.565890e+01 0.000000e+00
      vertex   4.312686e+01 -3.565890e+01 0.000000e+00
    endloop
  endfacet
  facet normal 0.000000e+00 0.000000e+00 -1.000000e+00
    outer loop
      vertex   -4.679645e+01 -4.265890e+01 0.000000e+00
      vertex   4.312686e+01 -3.565890e+01 0.000000e+00
      vertex   3.612686e+01 -4.265890e+01 0.000000e+00
    endloop
  endfacet
  facet normal 0.000000e+00 0.000000e+00 -1.000000e+00
    outer loop
      vertex   3.612686e+01 -4.265890e+01 0.000000e+00
      vertex   4.312686e+01 -3.565890e+01 0.000000e+00
      vertex   4.305561e+01 -3.665510e+01 0.000000e+00
    endloop
  endfacet
  facet normal 0.000000e+00 0.000000e+00 -1.000000e+00
    outer loop
      vertex   3.612686e+01 -4.265890e+01 0.000000e+00
      vertex   4.305561e+01 -3.665510e+01 0.000000e+00
      vertex   4.284331e+01 -3.763103e+01 0.000000e+00
    endloop
  endfacet
  facet normal 0.000000e+00 0.000000e+00 -1.000000e+00
    outer loop
      vertex   4.312686e+01 -3.565890e+01 0.000000e+00
      vertex   -5.379645e+01 -3.565890e+01 0.000000e+00
      vertex   4.312686e+01 3.640764e+01 0.000000e+00
    endloop
  endfacet
  facet normal -0.000000e+00 0.000000e+00 -1.000000e+00
    outer loop
      vertex   4.312686e+01 3.640764e+01 0.000000e+00
      vertex   -5.379645e+01 -3.565890e+01 0.000000e+00
      vertex   -5.379645e+01 3.640764e+01 0.000000e+00
    endloop
  endfacet
  facet normal 0.000000e+00 0.000000e+00 -1.000000e+00
    outer loop
      vertex   4.312686e+01 3.640764e+01 0.000000e+00
      vertex   -5.379645e+01 3.640764e+01 0.000000e+00
      vertex   3.612686e+01 4.340764e+01 0.000000e+00
    endloop
  endfacet
  facet normal -0.000000e+00 0.000000e+00 -1.000000e+00
    outer loop
      vertex   3.612686e+01 4.340764e+01 0.000000e+00
      vertex   -5.379645e+01 3.640764e+01 0.000000e+00
      vertex   -4.679645e+01 4.340764e+01 0.000000e+00
    endloop
  endfacet
  facet normal 0.000000e+00 0.000000e+00 -1.000000e+00
    outer loop
      vertex   -4.679645e+01 4.340764e+01 0.000000e+00
      vertex   -5.379645e+01 3.640764e+01 0.000000e+00
      vertex   -5.372520e+01 3.740385e+01 0.000000e+00
    endloop
  endfacet
  facet normal 0.000000e+00 0.000000e+00 -1.000000e+00
    outer loop
      vertex   -4.679645e+01 4.340764e+01 0.000000e+00
      vertex   -5.372520e+01 3.740385e+01 0.000000e+00
      vertex   -5.351291e+01 3.837977e+01 0.000000e+00
    endloop
  endfacet
  facet normal 0.000000e+00 0.000000e+00 -1.000000e+00
    outer loop
      vertex   -5.351291e+01 3.837977e+01 0.000000e+00
      vertex   -5.316388e+01 3.931555e+01 0.000000e+00
      vertex   -4.679645e+01 4.340764e+01 0.000000e+00
    endloop
  endfacet
  facet normal 0.000000e+00 0.000000e+00 -1.000000e+00
    outer loop
      vertex   -4.679645e+01 4.340764e+01 0.000000e+00
      vertex   -5.316388e+01 3.931555e+01 0.000000e+00
      vertex   -5.268523e+01 4.019213e+01 0.000000e+00
    endloop
  endfacet
  facet normal 0.000000e+00 0.000000e+00 -1.000000e+00
    outer loop
      vertex   -4.679645e+01 4.340764e+01 0.000000e+00
      vertex   -5.268523e+01 4.019213e+01 0.000000e+00
      vertex   -5.208670e+01 4.099167e+01 0.000000e+00
    endloop
  endfacet
  facet normal 0.000000e+00 0.000000e+00 -1.000000e+00
    outer loop
      vertex   -5.208670e+01 4.099167e+01 0.000000e+00
      vertex   -5.138048e+01 4.169789e+01 0.000000e+00
      vertex   -4.679645e+01 4.340764e+01 0.000000e+00
    endloop
  endfacet
  facet normal 0.000000e+00 0.000000e+00 -1.000000e+00
    outer loop
      vertex   -4.679645e+01 4.340764e+01 0.000000e+00
      vertex   -5.138048e+01 4.169789e+01 0.000000e+00
      vertex   -5.058094e+01 4.229642e+01 0.000000e+00
    endloop
  endfacet
  facet normal 0.000000e+00 0.000000e+00 -1.000000e+00
    outer loop
      vertex   -4.679645e+01 4.340764e+01 0.000000e+00
      vertex   -5.058094e+01 4.229642e+01 0.000000e+00
      vertex   -4.970436e+01 4.277507e+01 0.000000e+00
    endloop
  endfacet
  facet normal 0.000000e+00 0.000000e+00 -1.000000e+00
    outer loop
      vertex   -4.970436e+01 4.277507e+01 0.000000e+00
      vertex   -4.876858e+01 4.312409e+01 0.000000e+00
      vertex   -4.679645e+01 4.340764e+01 0.000000e+00
    endloop
  endfacet
  facet normal 0.000000e+00 0.000000e+00 -1.000000e+00
    outer loop
      vertex   -4.679645e+01 4.340764e+01 0.000000e+00
      vertex   -4.876858e+01 4.312409e+01 0.000000e+00
      vertex   -4.779266e+01 4.333639e+01 0.000000e+00
    endloop
  endfacet
  facet normal -0.000000e+00 -0.000000e+00 -1.000000e+00
    outer loop
      vertex   3.712307e+01 4.333639e+01 0.000000e+00
      vertex   3.809899e+01 4.312409e+01 0.000000e+00
      vertex   3.612686e+01 4.340764e+01 0.000000e+00
    endloop
  endfacet
  facet normal 0.000000e+00 0.000000e+00 -1.000000e+00
    outer loop
      vertex   3.612686e+01 4.340764e+01 0.000000e+00
      vertex   3.809899e+01 4.312409e+01 0.000000e+00
      vertex   3.903477e+01 4.277507e+01 0.000000e+00
    endloop
  endfacet
  facet normal 0.000000e+00 0.000000e+00 -1.000000e+00
    outer loop
      vertex   3.612686e+01 4.340764e+01 0.000000e+00
      vertex   3.903477e+01 4.277507e+01 0.000000e+00
      vertex   3.991135e+01 4.229642e+01 0.000000e+00
    endloop
  endfacet
  facet normal -0.000000e+00 -0.000000e+00 -1.000000e+00
    outer loop
      vertex   3.991135e+01 4.229642e+01 0.000000e+00
      vertex   4.071089e+01 4.169789e+01 0.000000e+00
      vertex   3.612686e+01 4.340764e+01 0.000000e+00
    endloop
  endfacet
  facet normal 0.000000e+00 0.000000e+00 -1.000000e+00
    outer loop
      vertex   3.612686e+01 4.340764e+01 0.000000e+00
      vertex   4.071089e+01 4.169789e+01 0.000000e+00
      vertex   4.141711e+01 4.099167e+01 0.000000e+00
    endloop
  endfacet
  facet normal 0.000000e+00 0.000000e+00 -1.000000e+00
    outer loop
      vertex   3.612686e+01 4.340764e+01 0.000000e+00
      vertex   4.141711e+01 4.099167e+01 0.000000e+00
      vertex   4.201564e+01 4.019213e+01 0.000000e+00
    endloop
  endfacet
  facet normal -0.000000e+00 -0.000000e+00 -1.000000e+00
    outer loop
      vertex   4.201564e+01 4.019213e+01 0.000000e+00
      vertex   4.249429e+01 3.931555e+01 0.000000e+00
      vertex   3.612686e+01 4.340764e+01 0.000000e+00
    endloop
  endfacet
  facet normal 0.000000e+00 0.000000e+00 -1.000000e+00
    outer loop
      vertex   3.612686e+01 4.340764e+01 0.000000e+00
      vertex   4.249429e+01 3.931555e+01 0.000000e+00
      vertex   4.284331e+01 3.837977e+01 0.000000e+00
    endloop
  endfacet
  facet normal 0.000000e+00 0.000000e+00 -1.000000e+00
    outer loop
      vertex   3.612686e+01 4.340764e+01 0.000000e+00
      vertex   4.284331e+01 3.837977e+01 0.000000e+00
      vertex   4.305561e+01 3.740385e+01 0.000000e+00
    endloop
  endfacet
  facet normal -0.000000e+00 -0.000000e+00 -1.000000e+00
    outer loop
      vertex   4.305561e+01 3.740385e+01 0.000000e+00
      vertex   4.312686e+01 3.640764e+01 0.000000e+00
      vertex   3.612686e+01 4.340764e+01 0.000000e+00
    endloop
  endfacet
  facet normal 0.000000e+00 0.000000e+00 -1.000000e+00
    outer loop
      vertex   4.284331e+01 -3.763103e+01 0.000000e+00
      vertex   4.249429e+01 -3.856680e+01 0.000000e+00
      vertex   3.612686e+01 -4.265890e+01 0.000000e+00
    endloop
  endfacet
  facet normal 0.000000e+00 0.000000e+00 -1.000000e+00
    outer loop
      vertex   3.612686e+01 -4.265890e+01 0.000000e+00
      vertex   4.249429e+01 -3.856680e+01 0.000000e+00
      vertex   4.201564e+01 -3.944338e+01 0.000000e+00
    endloop
  endfacet
  facet normal 0.000000e+00 0.000000e+00 -1.000000e+00
    outer loop
      vertex   3.612686e+01 -4.265890e+01 0.000000e+00
      vertex   4.201564e+01 -3.944338e+01 0.000000e+00
      vertex   4.141711e+01 -4.024292e+01 0.000000e+00
    endloop
  endfacet
  facet normal 0.000000e+00 0.000000e+00 -1.000000e+00
    outer loop
      vertex   4.141711e+01 -4.024292e+01 0.000000e+00
      vertex   4.071089e+01 -4.094915e+01 0.000000e+00
      vertex   3.612686e+01 -4.265890e+01 0.000000e+00
    endloop
  endfacet
  facet normal 0.000000e+00 0.000000e+00 -1.000000e+00
    outer loop
      vertex   3.612686e+01 -4.265890e+01 0.000000e+00
      vertex   4.071089e+01 -4.094915e+01 0.000000e+00
      vertex   3.991135e+01 -4.154767e+01 0.000000e+00
    endloop
  endfacet
  facet normal 0.000000e+00 0.000000e+00 -1.000000e+00
    outer loop
      vertex   3.612686e+01 -4.265890e+01 0.000000e+00
      vertex   3.991135e+01 -4.154767e+01 0.000000e+00
      vertex   3.903477e+01 -4.202632e+01 0.000000e+00
    endloop
  endfacet
  facet normal 0.000000e+00 0.000000e+00 -1.000000e+00
    outer loop
      vertex   3.903477e+01 -4.202632e+01 0.000000e+00
      vertex   3.809899e+01 -4.237535e+01 0.000000e+00
      vertex   3.612686e+01 -4.265890e+01 0.000000e+00
    endloop
  endfacet
  facet normal 0.000000e+00 0.000000e+00 -1.000000e+00
    outer loop
      vertex   3.612686e+01 -4.265890e+01 0.000000e+00
      vertex   3.809899e+01 -4.237535e+01 0.000000e+00
      vertex   3.712307e+01 -4.258765e+01 0.000000e+00
    endloop
  endfacet
  facet normal 0.000000e+00 0.000000e+00 1.000000e+00
    outer loop
      vertex   -4.679645e+01 -3.565890e+01 3.000000e+00
      vertex   3.612686e+01 -3.565890e+01 3.000000e+00
      vertex   -4.679645e+01 3.640764e+01 3.000000e+00
    endloop
  endfacet
  facet normal -0.000000e+00 0.000000e+00 1.000000e+00
    outer loop
      vertex   -4.679645e+01 3.640764e+01 3.000000e+00
      vertex   3.612686e+01 -3.565890e+01 3.000000e+00
      vertex   3.612686e+01 3.640764e+01 3.000000e+00
    endloop
  endfacet
  facet normal 0.000000e+00 0.000000e+00 1.000000e+00
    outer loop
      vertex   -5.379645e+01 3.640764e+01 2.000000e+01
      vertex   -5.379645e+01 -3.565890e+01 2.000000e+01
      vertex   -4.679645e+01 -3.565890e+01 2.000000e+01
    endloop
  endfacet
  facet normal 0.000000e+00 0.000000e+00 1.000000e+00
    outer loop
      vertex   -4.679645e+01 -3.565890e+01 2.000000e+01
      vertex   -5.379645e+01 -3.565890e+01 2.000000e+01
      vertex   -5.372520e+01 -3.665510e+01 2.000000e+01
    endloop
  endfacet
  facet normal 0.000000e+00 0.000000e+00 1.000000e+00
    outer loop
      vertex   -4.679645e+01 -3.565890e+01 2.000000e+01
      vertex   -5.372520e+01 -3.665510e+01 2.000000e+01
      vertex   -5.351291e+01 -3.763103e+01 2.000000e+01
    endloop
  endfacet
  facet normal -0.000000e+00 0.000000e+00 1.000000e+00
    outer loop
      vertex   -5.351291e+01 -3.763103e+01 2.000000e+01
      vertex   -5.316388e+01 -3.856680e+01 2.000000e+01
      vertex   -4.679645e+01 -3.565890e+01 2.000000e+01
    endloop
  endfacet
  facet normal 0.000000e+00 0.000000e+00 1.000000e+00
    outer loop
      vertex   -4.679645e+01 -3.565890e+01 2.000000e+01
      vertex   -5.316388e+01 -3.856680e+01 2.000000e+01
      vertex   -5.268523e+01 -3.944338e+01 2.000000e+01
    endloop
  endfacet
  facet normal 0.000000e+00 0.000000e+00 1.000000e+00
    outer loop
      vertex   -4.679645e+01 -3.565890e+01 2.000000e+01
      vertex   -5.268523e+01 -3.944338e+01 2.000000e+01
      vertex   -5.208670e+01 -4.024292e+01 2.000000e+01
    endloop
  endfacet
  facet normal -0.000000e+00 0.000000e+00 1.000000e+00
    outer loop
      vertex   -5.208670e+01 -4.024292e+01 2.000000e+01
      vertex   -5.138048e+01 -4.094915e+01 2.000000e+01
      vertex   -4.679645e+01 -3.565890e+01 2.000000e+01
    endloop
  endfacet
  facet normal 0.000000e+00 0.000000e+00 1.000000e+00
    outer loop
      vertex   -4.679645e+01 -3.565890e+01 2.000000e+01
      vertex   -5.138048e+01 -4.094915e+01 2.000000e+01
      vertex   -5.058094e+01 -4.154767e+01 2.000000e+01
    endloop
  endfacet
  facet normal 0.000000e+00 0.000000e+00 1.000000e+00
    outer loop
      vertex   -4.679645e+01 -3.565890e+01 2.000000e+01
      vertex   -5.058094e+01 -4.154767e+01 2.000000e+01
      vertex   -4.970436e+01 -4.202632e+01 2.000000e+01
    endloop
  endfacet
  facet normal -0.000000e+00 0.000000e+00 1.000000e+00
    outer loop
      vertex   -4.970436e+01 -4.202632e+01 2.000000e+01
      vertex   -4.876858e+01 -4.237535e+01 2.000000e+01
      vertex   -4.679645e+01 -3.565890e+01 2.000000e+01
    endloop
  endfacet
  facet normal 0.000000e+00 0.000000e+00 1.000000e+00
    outer loop
      vertex   -4.679645e+01 -3.565890e+01 2.000000e+01
      vertex   -4.876858e+01 -4.237535e+01 2.000000e+01
      vertex   -4.779266e+01 -4.258765e+01 2.000000e+01
    endloop
  endfacet
  facet normal 0.000000e+00 0.000000e+00 1.000000e+00
    outer loop
      vertex   -4.679645e+01 -3.565890e+01 2.000000e+01
      vertex   -4.779266e+01 -4.258765e+01 2.000000e+01
      vertex   -4.679645e+01 -4.265890e+01 2.000000e+01
    endloop
  endfacet
  facet normal 0.000000e+00 0.000000e+00 1.000000e+00
    outer loop
      vertex   -4.679645e+01 -4.265890e+01 2.000000e+01
      vertex   3.612686e+01 -4.265890e+01 2.000000e+01
      vertex   -4.679645e+01 -3.565890e+01 2.000000e+01
    endloop
  endfacet
  facet normal -0.000000e+00 0.000000e+00 1.000000e+00
    outer loop
      vertex   -4.679645e+01 -3.565890e+01 2.000000e+01
      vertex   3.612686e+01 -4.265890e+01 2.000000e+01
      vertex   3.612686e+01 -3.565890e+01 2.000000e+01
    endloop
  endfacet
  facet normal 0.000000e+00 0.000000e+00 1.000000e+00
    outer loop
      vertex   3.612686e+01 -3.565890e+01 2.000000e+01
      vertex   3.612686e+01 -4.265890e+01 2.000000e+01
      vertex   3.712307e+01 -4.258765e+01 2.000000e+01
    endloop
  endfacet
  facet normal 0.000000e+00 0.000000e+00 1.000000e+00
    outer loop
      vertex   3.612686e+01 -3.565890e+01 2.000000e+01
      vertex   3.712307e+01 -4.258765e+01 2.000000e+01
      vertex   3.809899e+01 -4.237535e+01 2.000000e+01
    endloop
  endfacet
  facet normal 0.000000e+00 -0.000000e+00 1.000000e+00
    outer loop
      vertex   3.809899e+01 -4.237535e+01 2.000000e+01
      vertex   3.903477e+01 -4.202632e+01 2.000000e+01
      vertex   3.612686e+01 -3.565890e+01 2.000000e+01
    endloop
  endfacet
  facet normal 0.000000e+00 0.000000e+00 1.000000e+00
    outer loop
      vertex   3.612686e+01 -3.565890e+01 2.000000e+01
      vertex   3.903477e+01 -4.202632e+01 2.000000e+01
      vertex   3.991135e+01 -4.154767e+01 2.000000e+01
    endloop
  endfacet
  facet normal 0.000000e+00 0.000000e+00 1.000000e+00
    outer loop
      vertex   3.612686e+01 -3.565890e+01 2.000000e+01
      vertex   3.991135e+01 -4.154767e+01 2.000000e+01
      vertex   4.071089e+01 -4.094915e+01 2.000000e+01
    endloop
  endfacet
  facet normal 0.000000e+00 -0.000000e+00 1.000000e+00
    outer loop
      vertex   4.071089e+01 -4.094915e+01 2.000000e+01
      vertex   4.141711e+01 -4.024292e+01 2.000000e+01
      vertex   3.612686e+01 -3.565890e+01 2.000000e+01
    endloop
  endfacet
  facet normal 0.000000e+00 0.000000e+00 1.000000e+00
    outer loop
      vertex   3.612686e+01 -3.565890e+01 2.000000e+01
      vertex   4.141711e+01 -4.024292e+01 2.000000e+01
      vertex   4.201564e+01 -3.944338e+01 2.000000e+01
    endloop
  endfacet
  facet normal 0.000000e+00 0.000000e+00 1.000000e+00
    outer loop
      vertex   3.612686e+01 -3.565890e+01 2.000000e+01
      vertex   4.201564e+01 -3.944338e+01 2.000000e+01
      vertex   4.249429e+01 -3.856680e+01 2.000000e+01
    endloop
  endfacet
  facet normal 0.000000e+00 -0.000000e+00 1.000000e+00
    outer loop
      vertex   4.249429e+01 -3.856680e+01 2.000000e+01
      vertex   4.284331e+01 -3.763103e+01 2.000000e+01
      vertex   3.612686e+01 -3.565890e+01 2.000000e+01
    endloop
  endfacet
  facet normal 0.000000e+00 0.000000e+00 1.000000e+00
    outer loop
      vertex   3.612686e+01 -3.565890e+01 2.000000e+01
      vertex   4.284331e+01 -3.763103e+01 2.000000e+01
      vertex   4.305561e+01 -3.665510e+01 2.000000e+01
    endloop
  endfacet
  facet normal -0.000000e+00 0.000000e+00 1.000000e+00
    outer loop
      vertex   3.612686e+01 -3.565890e+01 2.000000e+01
      vertex   4.305561e+01 -3.665510e+01 2.000000e+01
      vertex   4.312686e+01 -3.565890e+01 2.000000e+01
    endloop
  endfacet
  facet normal 0.000000e+00 0.000000e+00 1.000000e+00
    outer loop
      vertex   3.612686e+01 -3.565890e+01 2.000000e+01
      vertex   4.312686e+01 -3.565890e+01 2.000000e+01
      vertex   3.612686e+01 3.640764e+01 2.000000e+01
    endloop
  endfacet
  facet normal -0.000000e+00 0.000000e+00 1.000000e+00
    outer loop
      vertex   3.612686e+01 3.640764e+01 2.000000e+01
      vertex   4.312686e+01 -3.565890e+01 2.000000e+01
      vertex   4.312686e+01 3.640764e+01 2.000000e+01
    endloop
  endfacet
  facet normal 0.000000e+00 0.000000e+00 1.000000e+00
    outer loop
      vertex   3.612686e+01 3.640764e+01 2.000000e+01
      vertex   4.312686e+01 3.640764e+01 2.000000e+01
      vertex   4.305561e+01 3.740385e+01 2.000000e+01
    endloop
  endfacet
  facet normal 0.000000e+00 0.000000e+00 1.000000e+00
    outer loop
      vertex   4.305561e+01 3.740385e+01 2.000000e+01
      vertex   4.284331e+01 3.837977e+01 2.000000e+01
      vertex   3.612686e+01 3.640764e+01 2.000000e+01
    endloop
  endfacet
  facet normal 0.000000e+00 0.000000e+00 1.000000e+00
    outer loop
      vertex   3.612686e+01 3.640764e+01 2.000000e+01
      vertex   4.284331e+01 3.837977e+01 2.000000e+01
      vertex   4.249429e+01 3.931555e+01 2.000000e+01
    endloop
  endfacet
  facet normal 0.000000e+00 0.000000e+00 1.000000e+00
    outer loop
      vertex   3.612686e+01 3.640764e+01 2.000000e+01
      vertex   4.249429e+01 3.931555e+01 2.000000e+01
      vertex   4.201564e+01 4.019213e+01 2.000000e+01
    endloop
  endfacet
  facet normal 0.000000e+00 0.000000e+00 1.000000e+00
    outer loop
      vertex   4.201564e+01 4.019213e+01 2.000000e+01
      vertex   4.141711e+01 4.099167e+01 2.000000e+01
      vertex   3.612686e+01 3.640764e+01 2.000000e+01
    endloop
  endfacet
  facet normal 0.000000e+00 0.000000e+00 1.000000e+00
    outer loop
      vertex   3.612686e+01 3.640764e+01 2.000000e+01
      vertex   4.141711e+01 4.099167e+01 2.000000e+01
      vertex   4.071089e+01 4.169789e+01 2.000000e+01
    endloop
  endfacet
  facet normal 0.000000e+00 0.000000e+00 1.000000e+00
    outer loop
      vertex   3.612686e+01 3.640764e+01 2.000000e+01
      vertex   4.071089e+01 4.169789e+01 2.000000e+01
      vertex   3.991135e+01 4.229642e+01 2.000000e+01
    endloop
  endfacet
  facet normal 0.000000e+00 0.000000e+00 1.000000e+00
    outer loop
      vertex   3.991135e+01 4.229642e+01 2.000000e+01
      vertex   3.903477e+01 4.277507e+01 2.000000e+01
      vertex   3.612686e+01 3.640764e+01 2.000000e+01
    endloop
  endfacet
  facet normal 0.000000e+00 0.000000e+00 1.000000e+00
    outer loop
      vertex   3.612686e+01 3.640764e+01 2.000000e+01
      vertex   3.903477e+01 4.277507e+01 2.000000e+01
      vertex   3.809899e+01 4.312409e+01 2.000000e+01
    endloop
  endfacet
  facet normal 0.000000e+00 0.000000e+00 1.000000e+00
    outer loop
      vertex   3.612686e+01 3.640764e+01 2.000000e+01
      vertex   3.809899e+01 4.312409e+01 2.000000e+01
      vertex   3.712307e+01 4.333639e+01 2.000000e+01
    endloop
  endfacet
  facet normal 0.000000e+00 0.000000e+00 1.000000e+00
    outer loop
      vertex   3.712307e+01 4.333639e+01 2.000000e+01
      vertex   3.612686e+01 4.340764e+01 2.000000e+01
      vertex   3.612686e+01 3.640764e+01 2.000000e+01
    endloop
  endfacet
  facet normal 0.000000e+00 -0.000000e+00 1.000000e+00
    outer loop
      vertex   3.612686e+01 3.640764e+01 2.000000e+01
      vertex   3.612686e+01 4.340764e+01 2.000000e+01
      vertex   -4.679645e+01 4.340764e+01 2.000000e+01
    endloop
  endfacet
  facet normal 0.000000e+00 0.000000e+00 1.000000e+00
    outer loop
      vertex   3.612686e+01 3.640764e+01 2.000000e+01
      vertex   -4.679645e+01 4.340764e+01 2.000000e+01
      vertex   -4.679645e+01 3.640764e+01 2.000000e+01
    endloop
  endfacet
  facet normal 0.000000e+00 -0.000000e+00 1.000000e+00
    outer loop
      vertex   -4.679645e+01 3.640764e+01 2.000000e+01
      vertex   -4.679645e+01 4.340764e+01 2.000000e+01
      vertex   -4.779266e+01 4.333639e+01 2.000000e+01
    endloop
  endfacet
  facet normal 0.000000e+00 0.000000e+00 1.000000e+00
    outer loop
      vertex   -4.679645e+01 3.640764e+01 2.000000e+01
      vertex   -4.779266e+01 4.333639e+01 2.000000e+01
      vertex   -4.876858e+01 4.312409e+01 2.000000e+01
    endloop
  endfacet
  facet normal 0.000000e+00 0.000000e+00 1.000000e+00
    outer loop
      vertex   -4.876858e+01 4.312409e+01 2.000000e+01
      vertex   -4.970436e+01 4.277507e+01 2.000000e+01
      vertex   -4.679645e+01 3.640764e+01 2.000000e+01
    endloop
  endfacet
  facet normal 0.000000e+00 0.000000e+00 1.000000e+00
    outer loop
      vertex   -4.679645e+01 3.640764e+01 2.000000e+01
      vertex   -4.970436e+01 4.277507e+01 2.000000e+01
      vertex   -5.058094e+01 4.229642e+01 2.000000e+01
    endloop
  endfacet
  facet normal 0.000000e+00 0.000000e+00 1.000000e+00
    outer loop
      vertex   -4.679645e+01 3.640764e+01 2.000000e+01
      vertex   -5.058094e+01 4.229642e+01 2.000000e+01
      vertex   -5.138048e+01 4.169789e+01 2.000000e+01
    endloop
  endfacet
  facet normal 0.000000e+00 0.000000e+00 1.000000e+00
    outer loop
      vertex   -5.138048e+01 4.169789e+01 2.000000e+01
      vertex   -5.208670e+01 4.099167e+01 2.000000e+01
      vertex   -4.679645e+01 3.640764e+01 2.000000e+01
    endloop
  endfacet
  facet normal 0.000000e+00 0.000000e+00 1.000000e+00
    outer loop
      vertex   -4.679645e+01 3.640764e+01 2.000000e+01
      vertex   -5.208670e+01 4.099167e+01 2.000000e+01
      vertex   -5.268523e+01 4.019213e+01 2.000000e+01
    endloop
  endfacet
  facet normal 0.000000e+00 0.000000e+00 1.000000e+00
    outer loop
      vertex   -4.679645e+01 3.640764e+01 2.000000e+01
      vertex   -5.268523e+01 4.019213e+01 2.000000e+01
      vertex   -5.316388e+01 3.931555e+01 2.000000e+01
    endloop
  endfacet
  facet normal 0.000000e+00 0.000000e+00 1.000000e+00
    outer loop
      vertex   -5.316388e+01 3.931555e+01 2.000000e+01
      vertex   -5.351291e+01 3.837977e+01 2.000000e+01
      vertex   -4.679645e+01 3.640764e+01 2.000000e+01
    endloop
  endfacet
  facet normal 0.000000e+00 0.000000e+00 1.000000e+00
    outer loop
      vertex   -4.679645e+01 3.640764e+01 2.000000e+01
      vertex   -5.351291e+01 3.837977e+01 2.000000e+01
      vertex   -5.372520e+01 3.740385e+01 2.000000e+01
    endloop
  endfacet
  facet normal 0.000000e+00 0.000000e+00 1.000000e+00
    outer loop
      vertex   -4.679645e+01 3.640764e+01 2.000000e+01
      vertex   -5.372520e+01 3.740385e+01 2.000000e+01
      vertex   -5.379645e+01 3.640764e+01 2.000000e+01
    endloop
  endfacet
  facet normal 0.000000e+00 0.000000e+00 1.000000e+00
    outer loop
      vertex   -4.679645e+01 3.640764e+01 2.000000e+01
      vertex   -5.379645e+01 3.640764e+01 2.000000e+01
      vertex   -4.679645e+01 -3.565890e+01 2.000000e+01
    endloop
  endfacet
  facet normal -9.974521e-01 -7.133918e-02 -0.000000e+00
    outer loop
      vertex   -5.379645e+01 -3.565890e+01 2.000000e+01
      vertex   -5.379645e+01 -3.565890e+01 0.000000e+00
      vertex   -5.372520e+01 -3.665510e+01 2.000000e+01
    endloop
  endfacet
  facet normal -9.974521e-01 -7.133918e-02 -0.000000e+00
    outer loop
      vertex   -5.372520e+01 -3.665510e+01 2.000000e+01
      vertex   -5.379645e+01 -3.565890e+01 0.000000e+00
      vertex   -5.372520e+01 -3.665510e+01 0.000000e+00
    endloop
  endfacet
  facet normal -9.771469e-01 -2.125653e-01 -0.000000e+00
    outer loop
      vertex   -5.372520e+01 -3.665510e+01 2.000000e+01
      vertex   -5.372520e+01 -3.665510e+01 0.000000e+00
      vertex   -5.351291e+01 -3.763103e+01 2.000000e+01
    endloop
  endfacet
  facet normal -9.771469e-01 -2.125653e-01 -0.000000e+00
    outer loop
      vertex   -5.351291e+01 -3.763103e+01 2.000000e+01
      vertex   -5.372520e+01 -3.665510e+01 0.000000e+00
      vertex   -5.351291e+01 -3.763103e+01 0.000000e+00
    endloop
  endfacet
  facet normal -9.369497e-01 -3.494642e-01 -0.000000e+00
    outer loop
      vertex   -5.351291e+01 -3.763103e+01 2.000000e+01
      vertex   -5.351291e+01 -3.763103e+01 0.000000e+00
      vertex   -5.316388e+01 -3.856680e+01 2.000000e+01
    endloop
  endfacet
  facet normal -9.369497e-01 -3.494642e-01 -0.000000e+00
    outer loop
      vertex   -5.316388e+01 -3.856680e+01 2.000000e+01
      vertex   -5.351291e+01 -3.763103e+01 0.000000e+00
      vertex   -5.316388e+01 -3.856680e+01 0.000000e+00
    endloop
  endfacet
  facet normal -8.776790e-01 -4.792490e-01 -0.000000e+00
    outer loop
      vertex   -5.316388e+01 -3.856680e+01 2.000000e+01
      vertex   -5.316388e+01 -3.856680e+01 0.000000e+00
      vertex   -5.268523e+01 -3.944338e+01 2.000000e+01
    endloop
  endfacet
  facet normal -8.776790e-01 -4.792490e-01 -0.000000e+00
    outer loop
      vertex   -5.268523e+01 -3.944338e+01 2.000000e+01
      vertex   -5.316388e+01 -3.856680e+01 0.000000e+00
      vertex   -5.268523e+01 -3.944338e+01 0.000000e+00
    endloop
  endfacet
  facet normal -8.005412e-01 -5.992777e-01 -0.000000e+00
    outer loop
      vertex   -5.268523e+01 -3.944338e+01 2.000000e+01
      vertex   -5.268523e+01 -3.944338e+01 0.000000e+00
      vertex   -5.208670e+01 -4.024292e+01 2.000000e+01
    endloop
  endfacet
  facet normal -8.005412e-01 -5.992777e-01 -0.000000e+00
    outer loop
      vertex   -5.208670e+01 -4.024292e+01 2.000000e+01
      vertex   -5.268523e+01 -3.944338e+01 0.000000e+00
      vertex   -5.208670e+01 -4.024292e+01 0.000000e+00
    endloop
  endfacet
  facet normal -7.071068e-01 -7.071068e-01 -0.000000e+00
    outer loop
      vertex   -5.208670e+01 -4.024292e+01 2.000000e+01
      vertex   -5.208670e+01 -4.024292e+01 0.000000e+00
      vertex   -5.138048e+01 -4.094915e+01 2.000000e+01
    endloop
  endfacet
  facet normal -7.071068e-01 -7.071068e-01 -0.000000e+00
    outer loop
      vertex   -5.138048e+01 -4.094915e+01 2.000000e+01
      vertex   -5.208670e+01 -4.024292e+01 0.000000e+00
      vertex   -5.138048e+01 -4.094915e+01 0.000000e+00
    endloop
  endfacet
  facet normal -5.992777e-01 -8.005412e-01 -0.000000e+00
    outer loop
      vertex   -5.138048e+01 -4.094915e+01 2.000000e+01
      vertex   -5.138048e+01 -4.094915e+01 0.000000e+00
      vertex   -5.058094e+01 -4.154767e+01 2.000000e+01
    endloop
  endfacet
  facet normal -5.992777e-01 -8.005412e-01 -0.000000e+00
    outer loop
      vertex   -5.058094e+01 -4.154767e+01 2.000000e+01
      vertex   -5.138048e+01 -4.094915e+01 0.000000e+00
      vertex   -5.058094e+01 -4.154767e+01 0.000000e+00
    endloop
  endfacet
  facet normal -4.792490e-01 -8.776790e-01 -0.000000e+00
    outer loop
      vertex   -5.058094e+01 -4.154767e+01 2.000000e+01
      vertex   -5.058094e+01 -4.154767e+01 0.000000e+00
      vertex   -4.970436e+01 -4.202632e+01 2.000000e+01
    endloop
  endfacet
  facet normal -4.792490e-01 -8.776790e-01 -0.000000e+00
    outer loop
      vertex   -4.970436e+01 -4.202632e+01 2.000000e+01
      vertex   -5.058094e+01 -4.154767e+01 0.000000e+00
      vertex   -4.970436e+01 -4.202632e+01 0.000000e+00
    endloop
  endfacet
  facet normal -3.494642e-01 -9.369497e-01 -0.000000e+00
    outer loop
      vertex   -4.970436e+01 -4.202632e+01 2.000000e+01
      vertex   -4.970436e+01 -4.202632e+01 0.000000e+00
      vertex   -4.876858e+01 -4.237535e+01 2.000000e+01
    endloop
  endfacet
  facet normal -3.494642e-01 -9.369497e-01 -0.000000e+00
    outer loop
      vertex   -4.876858e+01 -4.237535e+01 2.000000e+01
      vertex   -4.970436e+01 -4.202632e+01 0.000000e+00
      vertex   -4.876858e+01 -4.237535e+01 0.000000e+00
    endloop
  endfacet
  facet normal -2.125653e-01 -9.771469e-01 -0.000000e+00
    outer loop
      vertex   -4.876858e+01 -4.237535e+01 2.000000e+01
      vertex   -4.876858e+01 -4.237535e+01 0.000000e+00
      vertex   -4.779266e+01 -4.258765e+01 2.000000e+01
    endloop
  endfacet
  facet normal -2.125653e-01 -9.771469e-01 -0.000000e+00
    outer loop
      vertex   -4.779266e+01 -4.258765e+01 2.000000e+01
      vertex   -4.876858e+01 -4.237535e+01 0.000000e+00
      vertex   -4.779266e+01 -4.258765e+01 0.000000e+00
    endloop
  endfacet
  facet normal -7.133918e-02 -9.974521e-01 -0.000000e+00
    outer loop
      vertex   -4.779266e+01 -4.258765e+01 2.000000e+01
      vertex   -4.779266e+01 -4.258765e+01 0.000000e+00
      vertex   -4.679645e+01 -4.265890e+01 2.000000e+01
    endloop
  endfacet
  facet normal -7.133918e-02 -9.974521e-01 -0.000000e+00
    outer loop
      vertex   -4.679645e+01 -4.265890e+01 2.000000e+01
      vertex   -4.779266e+01 -4.258765e+01 0.000000e+00
      vertex   -4.679645e+01 -4.265890e+01 0.000000e+00
    endloop
  endfacet
  facet normal 0.000000e+00 -1.000000e+00 0.000000e+00
    outer loop
      vertex   -4.679645e+01 -4.265890e+01 0.000000e+00
      vertex   3.612686e+01 -4.265890e+01 0.000000e+00
      vertex   -4.679645e+01 -4.265890e+01 2.000000e+01
    endloop
  endfacet
  facet normal 0.000000e+00 -1.000000e+00 0.000000e+00
    outer loop
      vertex   -4.679645e+01 -4.265890e+01 2.000000e+01
      vertex   3.612686e+01 -4.265890e+01 0.000000e+00
      vertex   3.612686e+01 -4.265890e+01 2.000000e+01
    endloop
  endfacet
  facet normal 7.133918e-02 -9.974521e-01 -5.068954e-17
    outer loop
      vertex   3.612686e+01 -4.265890e+01 2.000000e+01
      vertex   3.612686e+01 -4.265890e+01 0.000000e+00
      vertex   3.712307e+01 -4.258765e+01 2.000000e+01
    endloop
  endfacet
  facet normal 7.133918e-02 -9.974521e-01 0.000000e+00
    outer loop
      vertex   3.712307e+01 -4.258765e+01 2.000000e+01
      vertex   3.612686e+01 -4.265890e+01 0.000000e+00
      vertex   3.712307e+01 -4.258765e+01 0.000000e+00
    endloop
  endfacet
  facet normal 2.125653e-01 -9.771469e-01 0.000000e+00
    outer loop
      vertex   3.712307e+01 -4.258765e+01 2.000000e+01
      vertex   3.712307e+01 -4.258765e+01 0.000000e+00
      vertex   3.809899e+01 -4.237535e+01 2.000000e+01
    endloop
  endfacet
  facet normal 2.125653e-01 -9.771469e-01 0.000000e+00
    outer loop
      vertex   3.809899e+01 -4.237535e+01 2.000000e+01
      vertex   3.712307e+01 -4.258765e+01 0.000000e+00
      vertex   3.809899e+01 -4.237535e+01 0.000000e+00
    endloop
  endfacet
  facet normal 3.494642e-01 -9.369497e-01 0.000000e+00
    outer loop
      vertex   3.809899e+01 -4.237535e+01 2.000000e+01
      vertex   3.809899e+01 -4.237535e+01 0.000000e+00
      vertex   3.903477e+01 -4.202632e+01 2.000000e+01
    endloop
  endfacet
  facet normal 3.494642e-01 -9.369497e-01 0.000000e+00
    outer loop
      vertex   3.903477e+01 -4.202632e+01 2.000000e+01
      vertex   3.809899e+01 -4.237535e+01 0.000000e+00
      vertex   3.903477e+01 -4.202632e+01 0.000000e+00
    endloop
  endfacet
  facet normal 4.792490e-01 -8.776790e-01 0.000000e+00
    outer loop
      vertex   3.903477e+01 -4.202632e+01 2.000000e+01
      vertex   3.903477e+01 -4.202632e+01 0.000000e+00
      vertex   3.991135e+01 -4.154767e+01 2.000000e+01
    endloop
  endfacet
  facet normal 4.792490e-01 -8.776790e-01 0.000000e+00
    outer loop
      vertex   3.991135e+01 -4.154767e+01 2.000000e+01
      vertex   3.903477e+01 -4.202632e+01 0.000000e+00
      vertex   3.991135e+01 -4.154767e+01 0.000000e+00
    endloop
  endfacet
  facet normal 5.992777e-01 -8.005412e-01 0.000000e+00
    outer loop
      vertex   3.991135e+01 -4.154767e+01 2.000000e+01
      vertex   3.991135e+01 -4.154767e+01 0.000000e+00
      vertex   4.071089e+01 -4.094915e+01 2.000000e+01
    endloop
  endfacet
  facet normal 5.992777e-01 -8.005412e-01 0.000000e+00
    outer loop
      vertex   4.071089e+01 -4.094915e+01 2.000000e+01
      vertex   3.991135e+01 -4.154767e+01 0.000000e+00
      vertex   4.071089e+01 -4.094915e+01 0.000000e+00
    endloop
  endfacet
  facet normal 7.071068e-01 -7.071068e-01 0.000000e+00
    outer loop
      vertex   4.071089e+01 -4.094915e+01 2.000000e+01
      vertex   4.071089e+01 -4.094915e+01 0.000000e+00
      vertex   4.141711e+01 -4.024292e+01 2.000000e+01
    endloop
  endfacet
  facet normal 7.071068e-01 -7.071068e-01 0.000000e+00
    outer loop
      vertex   4.141711e+01 -4.024292e+01 2.000000e+01
      vertex   4.071089e+01 -4.094915e+01 0.000000e+00
      vertex   4.141711e+01 -4.024292e+01 0.000000e+00
    endloop
  endfacet
  facet normal 8.005412e-01 -5.992777e-01 0.000000e+00
    outer loop
      vertex   4.141711e+01 -4.024292e+01 2.000000e+01
      vertex   4.141711e+01 -4.024292e+01 0.000000e+00
      vertex   4.201564e+01 -3.944338e+01 2.000000e+01
    endloop
  endfacet
  facet normal 8.005412e-01 -5.992777e-01 0.000000e+00
    outer loop
      vertex   4.201564e+01 -3.944338e+01 2.000000e+01
      vertex   4.141711e+01 -4.024292e+01 0.000000e+00
      vertex   4.201564e+01 -3.944338e+01 0.000000e+00
    endloop
  endfacet
  facet normal 8.776790e-01 -4.792490e-01 0.000000e+00
    outer loop
      vertex   4.201564e+01 -3.944338e+01 2.000000e+01
      vertex   4.201564e+01 -3.944338e+01 0.000000e+00
      vertex   4.249429e+01 -3.856680e+01 2.000000e+01
    endloop
  endfacet
  facet normal 8.776790e-01 -4.792490e-01 0.000000e+00
    outer loop
      vertex   4.249429e+01 -3.856680e+01 2.000000e+01
      vertex   4.201564e+01 -3.944338e+01 0.000000e+00
      vertex   4.249429e+01 -3.856680e+01 0.000000e+00
    endloop
  endfacet
  facet normal 9.369497e-01 -3.494642e-01 0.000000e+00
    outer loop
      vertex   4.249429e+01 -3.856680e+01 2.000000e+01
      vertex   4.249429e+01 -3.856680e+01 0.000000e+00
      vertex   4.284331e+01 -3.763103e+01 2.000000e+01
    endloop
  endfacet
  facet normal 9.369497e-01 -3.494642e-01 0.000000e+00
    outer loop
      vertex   4.284331e+01 -3.763103e+01 2.000000e+01
      vertex   4.249429e+01 -3.856680e+01 0.000000e+00
      vertex   4.284331e+01 -3.763103e+01 0.000000e+00
    endloop
  endfacet
  facet normal 9.771469e-01 -2.125653e-01 0.000000e+00
    outer loop
      vertex   4.284331e+01 -3.763103e+01 2.000000e+01
      vertex   4.284331e+01 -3.763103e+01 0.000000e+00
      vertex   4.305561e+01 -3.665510e+01 2.000000e+01
    endloop
  endfacet
  facet normal 9.771469e-01 -2.125653e-01 0.000000e+00
    outer loop
      vertex   4.305561e+01 -3.665510e+01 2.000000e+01
      vertex   4.284331e+01 -3.763103e+01 0.000000e+00
      vertex   4.305561e+01 -3.665510e+01 0.000000e+00
    endloop
  endfacet
  facet normal 9.974521e-01 -7.133918e-02 0.000000e+00
    outer loop
      vertex   4.305561e+01 -3.665510e+01 2.000000e+01
      vertex   4.305561e+01 -3.665510e+01 0.000000e+00
      vertex   4.312686e+01 -3.565890e+01 2.000000e+01
    endloop
  endfacet
  facet normal 9.974521e-01 -7.133918e-02 0.000000e+00
    outer loop
      vertex   4.312686e+01 -3.565890e+01 2.000000e+01
      vertex   4.305561e+01 -3.665510e+01 0.000000e+00
      vertex   4.312686e+01 -3.565890e+01 0.000000e+00
    endloop
  endfacet
  facet normal 1.000000e+00 0.000000e+00 0.000000e+00
    outer loop
      vertex   4.312686e+01 -3.565890e+01 0.000000e+00
      vertex   4.312686e+01 3.640764e+01 0.000000e+00
      vertex   4.312686e+01 -3.565890e+01 2.000000e+01
    endloop
  endfacet
  facet normal 1.000000e+00 -0.000000e+00 0.000000e+00
    outer loop
      vertex   4.312686e+01 -3.565890e+01 2.000000e+01
      vertex   4.312686e+01 3.640764e+01 0.000000e+00
      vertex   4.312686e+01 3.640764e+01 2.000000e+01
    endloop
  endfacet
  facet normal 9.974521e-01 7.133918e-02 0.000000e+00
    outer loop
      vertex   4.312686e+01 3.640764e+01 2.000000e+01
      vertex   4.312686e+01 3.640764e+01 0.000000e+00
      vertex   4.305561e+01 3.740385e+01 2.000000e+01
    endloop
  endfacet
  facet normal 9.974521e-01 7.133918e-02 0.000000e+00
    outer loop
      vertex   4.305561e+01 3.740385e+01 2.000000e+01
      vertex   4.312686e+01 3.640764e+01 0.000000e+00
      vertex   4.305561e+01 3.740385e+01 0.000000e+00
    endloop
  endfacet
  facet normal 9.771469e-01 2.125653e-01 0.000000e+00
    outer loop
      vertex   4.305561e+01 3.740385e+01 2.000000e+01
      vertex   4.305561e+01 3.740385e+01 0.000000e+00
      vertex   4.284331e+01 3.837977e+01 2.000000e+01
    endloop
  endfacet
  facet normal 9.771469e-01 2.125653e-01 0.000000e+00
    outer loop
      vertex   4.284331e+01 3.837977e+01 2.000000e+01
      vertex   4.305561e+01 3.740385e+01 0.000000e+00
      vertex   4.284331e+01 3.837977e+01 0.000000e+00
    endloop
  endfacet
  facet normal 9.369497e-01 3.494642e-01 0.000000e+00
    outer loop
      vertex   4.284331e+01 3.837977e+01 2.000000e+01
      vertex   4.284331e+01 3.837977e+01 0.000000e+00
      vertex   4.249429e+01 3.931555e+01 2.000000e+01
    endloop
  endfacet
  facet normal 9.369497e-01 3.494642e-01 0.000000e+00
    outer loop
      vertex   4.249429e+01 3.931555e+01 2.000000e+01
      vertex   4.284331e+01 3.837977e+01 0.000000e+00
      vertex   4.249429e+01 3.931555e+01 0.000000e+00
    endloop
  endfacet
  facet normal 8.776790e-01 4.792490e-01 0.000000e+00
    outer loop
      vertex   4.249429e+01 3.931555e+01 2.000000e+01
      vertex   4.249429e+01 3.931555e+01 0.000000e+00
      vertex   4.201564e+01 4.019213e+01 2.000000e+01
    endloop
  endfacet
  facet normal 8.776790e-01 4.792490e-01 0.000000e+00
    outer loop
      vertex   4.201564e+01 4.019213e+01 2.000000e+01
      vertex   4.249429e+01 3.931555e+01 0.000000e+00
      vertex   4.201564e+01 4.019213e+01 0.000000e+00
    endloop
  endfacet
  facet normal 8.005412e-01 5.992777e-01 0.000000e+00
    outer loop
      vertex   4.201564e+01 4.019213e+01 2.000000e+01
      vertex   4.201564e+01 4.019213e+01 0.000000e+00
      vertex   4.141711e+01 4.099167e+01 2.000000e+01
    endloop
  endfacet
  facet normal 8.005412e-01 5.992777e-01 0.000000e+00
    outer loop
      vertex   4.141711e+01 4.099167e+01 2.000000e+01
      vertex   4.201564e+01 4.019213e+01 0.000000e+00
      vertex   4.141711e+01 4.099167e+01 0.000000e+00
    endloop
  endfacet
  facet normal 7.071068e-01 7.071068e-01 0.000000e+00
    outer loop
      vertex   4.141711e+01 4.099167e+01 2.000000e+01
      vertex   4.141711e+01 4.099167e+01 0.000000e+00
      vertex   4.071089e+01 4.169789e+01 2.000000e+01
    endloop
  endfacet
  facet normal 7.071068e-01 7.071068e-01 0.000000e+00
    outer loop
      vertex   4.071089e+01 4.169789e+01 2.000000e+01
      vertex   4.141711e+01 4.099167e+01 0.000000e+00
      vertex   4.071089e+01 4.169789e+01 0.000000e+00
    endloop
  endfacet
  facet normal 5.992777e-01 8.005412e-01 0.000000e+00
    outer loop
      vertex   4.071089e+01 4.169789e+01 2.000000e+01
      vertex   4.071089e+01 4.169789e+01 0.000000e+00
      vertex   3.991135e+01 4.229642e+01 2.000000e+01
    endloop
  endfacet
  facet normal 5.992777e-01 8.005412e-01 0.000000e+00
    outer loop
      vertex   3.991135e+01 4.229642e+01 2.000000e+01
      vertex   4.071089e+01 4.169789e+01 0.000000e+00
      vertex   3.991135e+01 4.229642e+01 0.000000e+00
    endloop
  endfacet
  facet normal 4.792490e-01 8.776790e-01 0.000000e+00
    outer loop
      vertex   3.991135e+01 4.229642e+01 2.000000e+01
      vertex   3.991135e+01 4.229642e+01 0.000000e+00
      vertex   3.903477e+01 4.277507e+01 2.000000e+01
    endloop
  endfacet
  facet normal 4.792490e-01 8.776790e-01 0.000000e+00
    outer loop
      vertex   3.903477e+01 4.277507e+01 2.000000e+01
      vertex   3.991135e+01 4.229642e+01 0.000000e+00
      vertex   3.903477e+01 4.277507e+01 0.000000e+00
    endloop
  endfacet
  facet normal 3.494642e-01 9.369497e-01 0.000000e+00
    outer loop
      vertex   3.903477e+01 4.277507e+01 2.000000e+01
      vertex   3.903477e+01 4.277507e+01 0.000000e+00
      vertex   3.809899e+01 4.312409e+01 2.000000e+01
    endloop
  endfacet
  facet normal 3.494642e-01 9.369497e-01 0.000000e+00
    outer loop
      vertex   3.809899e+01 4.312409e+01 2.000000e+01
      vertex   3.903477e+01 4.277507e+01 0.000000e+00
      vertex   3.809899e+01 4.312409e+01 0.000000e+00
    endloop
  endfacet
  facet normal 2.125653e-01 9.771469e-01 0.000000e+00
    outer loop
      vertex   3.809899e+01 4.312409e+01 2.000000e+01
      vertex   3.809899e+01 4.312409e+01 0.000000e+00
      vertex   3.712307e+01 4.333639e+01 2.000000e+01
    endloop
  endfacet
  facet normal 2.125653e-01 9.771469e-01 0.000000e+00
    outer loop
      vertex   3.712307e+01 4.333639e+01 2.000000e+01
      vertex   3.809899e+01 4.312409e+01 0.000000e+00
      vertex   3.712307e+01 4.333639e+01 0.000000e+00
    endloop
  endfacet
  facet normal 7.133918e-02 9.974521e-01 0.000000e+00
    outer loop
      vertex   3.712307e+01 4.333639e+01 2.000000e+01
      vertex   3.712307e+01 4.333639e+01 0.000000e+00
      vertex   3.612686e+01 4.340764e+01 2.000000e+01
    endloop
  endfacet
  facet normal 7.133918e-02 9.974521e-01 -5.068954e-17
    outer loop
      vertex   3.612686e+01 4.340764e+01 2.000000e+01
      vertex   3.712307e+01 4.333639e+01 0.000000e+00
      vertex   3.612686e+01 4.340764e+01 0.000000e+00
    endloop
  endfacet
  facet normal 0.000000e+00 1.000000e+00 -0.000000e+00
    outer loop
      vertex   3.612686e+01 4.340764e+01 0.000000e+00
      vertex   -4.679645e+01 4.340764e+01 0.000000e+00
      vertex   3.612686e+01 4.340764e+01 2.000000e+01
    endloop
  endfacet
  facet normal 0.000000e+00 1.000000e+00 0.000000e+00
    outer loop
      vertex   3.612686e+01 4.340764e+01 2.000000e+01
      vertex   -4.679645e+01 4.340764e+01 0.000000e+00
      vertex   -4.679645e+01 4.340764e+01 2.000000e+01
    endloop
  endfacet
  facet normal -7.133918e-02 9.974521e-01 0.000000e+00
    outer loop
      vertex   -4.679645e+01 4.340764e+01 2.000000e+01
      vertex   -4.679645e+01 4.340764e+01 0.000000e+00
      vertex   -4.779266e+01 4.333639e+01 2.000000e+01
    endloop
  endfacet
  facet normal -7.133918e-02 9.974521e-01 0.000000e+00
    outer loop
      vertex   -4.779266e+01 4.333639e+01 2.000000e+01
      vertex   -4.679645e+01 4.340764e+01 0.000000e+00
      vertex   -4.779266e+01 4.333639e+01 0.000000e+00
    endloop
  endfacet
  facet normal -2.125653e-01 9.771469e-01 0.000000e+00
    outer loop
      vertex   -4.779266e+01 4.333639e+01 2.000000e+01
      vertex   -4.779266e+01 4.333639e+01 0.000000e+00
      vertex   -4.876858e+01 4.312409e+01 2.000000e+01
    endloop
  endfacet
  facet normal -2.125653e-01 9.771469e-01 0.000000e+00
    outer loop
      vertex   -4.876858e+01 4.312409e+01 2.000000e+01
      vertex   -4.779266e+01 4.333639e+01 0.000000e+00
      vertex   -4.876858e+01 4.312409e+01 0.000000e+00
    endloop
  endfacet
  facet normal -3.494642e-01 9.369497e-01 0.000000e+00
    outer loop
      vertex   -4.876858e+01 4.312409e+01 2.000000e+01
      vertex   -4.876858e+01 4.312409e+01 0.000000e+00
      vertex   -4.970436e+01 4.277507e+01 2.000000e+01
    endloop
  endfacet
  facet normal -3.494642e-01 9.369497e-01 0.000000e+00
    outer loop
      vertex   -4.970436e+01 4.277507e+01 2.000000e+01
      vertex   -4.876858e+01 4.312409e+01 0.000000e+00
      vertex   -4.970436e+01 4.277507e+01 0.000000e+00
    endloop
  endfacet
  facet normal -4.792490e-01 8.776790e-01 0.000000e+00
    outer loop
      vertex   -4.970436e+01 4.277507e+01 2.000000e+01
      vertex   -4.970436e+01 4.277507e+01 0.000000e+00
      vertex   -5.058094e+01 4.229642e+01 2.000000e+01
    endloop
  endfacet
  facet normal -4.792490e-01 8.776790e-01 0.000000e+00
    outer loop
      vertex   -5.058094e+01 4.229642e+01 2.000000e+01
      vertex   -4.970436e+01 4.277507e+01 0.000000e+00
      vertex   -5.058094e+01 4.229642e+01 0.000000e+00
    endloop
  endfacet
  facet normal -5.992777e-01 8.005412e-01 0.000000e+00
    outer loop
      vertex   -5.058094e+01 4.229642e+01 2.000000e+01
      vertex   -5.058094e+01 4.229642e+01 0.000000e+00
      vertex   -5.138048e+01 4.169789e+01 2.000000e+01
    endloop
  endfacet
  facet normal -5.992777e-01 8.005412e-01 0.000000e+00
    outer loop
      vertex   -5.138048e+01 4.169789e+01 2.000000e+01
      vertex   -5.058094e+01 4.229642e+01 0.000000e+00
      vertex   -5.138048e+01 4.169789e+01 0.000000e+00
    endloop
  endfacet
  facet normal -7.071068e-01 7.071068e-01 0.000000e+00
    outer loop
      vertex   -5.138048e+01 4.169789e+01 2.000000e+01
      vertex   -5.138048e+01 4.169789e+01 0.000000e+00
      vertex   -5.208670e+01 4.099167e+01 2.000000e+01
    endloop
  endfacet
  facet normal -7.071068e-01 7.071068e-01 0.000000e+00
    outer loop
      vertex   -5.208670e+01 4.099167e+01 2.000000e+01
      vertex   -5.138048e+01 4.169789e+01 0.000000e+00
      vertex   -5.208670e+01 4.099167e+01 0.000000e+00
    endloop
  endfacet
  facet normal -8.005412e-01 5.992777e-01 0.000000e+00
    outer loop
      vertex   -5.208670e+01 4.099167e+01 2.000000e+01
      vertex   -5.208670e+01 4.099167e+01 0.000000e+00
      vertex   -5.268523e+01 4.019213e+01 2.000000e+01
    endloop
  endfacet
  facet normal -8.005412e-01 5.992777e-01 0.000000e+00
    outer loop
      vertex   -5.268523e+01 4.019213e+01 2.000000e+01
      vertex   -5.208670e+01 4.099167e+01 0.000000e+00
      vertex   -5.268523e+01 4.019213e+01 0.000000e+00
    endloop
  endfacet
  facet normal -8.776790e-01 4.792490e-01 0.000000e+00
    outer loop
      vertex   -5.268523e+01 4.019213e+01 2.000000e+01
      vertex   -5.268523e+01 4.019213e+01 0.000000e+00
      vertex   -5.316388e+01 3.931555e+01 2.000000e+01
    endloop
  endfacet
  facet normal -8.776790e-01 4.792490e-01 0.000000e+00
    outer loop
      vertex   -5.316388e+01 3.931555e+01 2.000000e+01
      vertex   -5.268523e+01 4.019213e+01 0.000000e+00
      vertex   -5.316388e+01 3.931555e+01 0.000000e+00
    endloop
  endfacet
  facet normal -9.369497e-01 3.494642e-01 0.000000e+00
    outer loop
      vertex   -5.316388e+01 3.931555e+01 2.000000e+01
      vertex   -5.316388e+01 3.931555e+01 0.000000e+00
      vertex   -5.351291e+01 3.837977e+01 2.000000e+01
    endloop
  endfacet
  facet normal -9.369497e-01 3.494642e-01 0.000000e+00
    outer loop
      vertex   -5.351291e+01 3.837977e+01 2.000000e+01
      vertex   -5.316388e+01 3.931555e+01 0.000000e+00
      vertex   -5.351291e+01 3.837977e+01 0.000000e+00
    endloop
  endfacet
  facet normal -9.771469e-01 2.125653e-01 0.000000e+00
    outer loop
      vertex   -5.351291e+01 3.837977e+01 2.000000e+01
      vertex   -5.351291e+01 3.837977e+01 0.000000e+00
      vertex   -5.372520e+01 3.740385e+01 2.000000e+01
    endloop
  endfacet
  facet normal -9.771469e-01 2.125653e-01 0.000000e+00
    outer loop
      vertex   -5.372520e+01 3.740385e+01 2.000000e+01
      vertex   -5.351291e+01 3.837977e+01 0.000000e+00
      vertex   -5.372520e+01 3.740385e+01 0.000000e+00
    endloop
  endfacet
  facet normal -9.974521e-01 7.133918e-02 0.000000e+00
    outer loop
      vertex   -5.372520e+01 3.740385e+01 2.000000e+01
      vertex   -5.372520e+01 3.740385e+01 0.000000e+00
      vertex   -5.379645e+01 3.640764e+01 2.000000e+01
    endloop
  endfacet
  facet normal -9.974521e-01 7.133918e-02 0.000000e+00
    outer loop
      vertex   -5.379645e+01 3.640764e+01 2.000000e+01
      vertex   -5.372520e+01 3.740385e+01 0.000000e+00
      vertex   -5.379645e+01 3.640764e+01 0.000000e+00
    endloop
  endfacet
  facet normal 0.000000e+00 -1.000000e+00 0.000000e+00
    outer loop
      vertex   -4.679645e+01 3.640764e+01 3.000000e+00
      vertex   3.612686e+01 3.640764e+01 3.000000e+00
      vertex   -4.679645e+01 3.640764e+01 2.000000e+01
    endloop
  endfacet
  facet normal 0.000000e+00 -1.000000e+00 0.000000e+00
    outer loop
      vertex   -4.679645e+01 3.640764e+01 2.000000e+01
      vertex   3.612686e+01 3.640764e+01 3.000000e+00
      vertex   3.612686e+01 3.640764e+01 2.000000e+01
    endloop
  endfacet
  facet normal -1.000000e+00 0.000000e+00 8.359326e-16
    outer loop
      vertex   3.612686e+01 3.640764e+01 3.000000e+00
      vertex   3.612686e+01 -3.565890e+01 3.000000e+00
      vertex   3.612686e+01 3.640764e+01 2.000000e+01
    endloop
  endfacet
  facet normal -1.000000e+00 0.000000e+00 8.359326e-16
    outer loop
      vertex   3.612686e+01 3.640764e+01 2.000000e+01
      vertex   3.612686e+01 -3.565890e+01 3.000000e+00
      vertex   3.612686e+01 -3.565890e+01 2.000000e+01
    endloop
  endfacet
  facet normal 0.000000e+00 1.000000e+00 -0.000000e+00
    outer loop
      vertex   3.612686e+01 -3.565890e+01 3.000000e+00
      vertex   -4.679645e+01 -3.565890e+01 3.000000e+00
      vertex   3.612686e+01 -3.565890e+01 2.000000e+01
    endloop
  endfacet
  facet normal 0.000000e+00 1.000000e+00 0.000000e+00
    outer loop
      vertex   3.612686e+01 -3.565890e+01 2.000000e+01
      vertex   -4.679645e+01 -3.565890e+01 3.000000e+00
      vertex   -4.679645e+01 -3.565890e+01 2.000000e+01
    endloop
  endfacet
  facet normal -1.000000e+00 0.000000e+00 0.000000e+00
    outer loop
      vertex   -5.379645e+01 9.500000e+00 6.000000e+00
      vertex   -5.379645e+01 2.200000e+01 6.000000e+00
      vertex   -5.379645e+01 3.640764e+01 0.000000e+00
    endloop
  endfacet
  facet normal -1.000000e+00 0.000000e+00 0.000000e+00
    outer loop
      vertex   -5.379645e+01 3.640764e+01 0.000000e+00
      vertex   -5.379645e+01 2.200000e+01 6.000000e+00
      vertex   -5.379645e+01 2.200000e+01 1.300000e+01
    endloop
  endfacet
  facet normal -1.000000e+00 0.000000e+00 0.000000e+00
    outer loop
      vertex   -5.379645e+01 3.640764e+01 0.000000e+00
      vertex   -5.379645e+01 2.200000e+01 1.300000e+01
      vertex   -5.379645e+01 3.640764e+01 2.000000e+01
    endloop
  endfacet
  facet normal -1.000000e+00 0.000000e+00 0.000000e+00
    outer loop
      vertex   -5.379645e+01 3.640764e+01 2.000000e+01
      vertex   -5.379645e+01 2.200000e+01 1.300000e+01
      vertex   -5.379645e+01 9.500000e+00 1.300000e+01
    endloop
  endfacet
  facet normal -1.000000e+00 -0.000000e+00 0.000000e+00
    outer loop
      vertex   -5.379645e+01 3.640764e+01 2.000000e+01
      vertex   -5.379645e+01 9.500000e+00 1.300000e+01
      vertex   -5.379645e+01 -3.565890e+01 2.000000e+01
    endloop
  endfacet
  facet normal -1.000000e+00 0.000000e+00 0.000000e+00
    outer loop
      vertex   -5.379645e+01 -3.565890e+01 2.000000e+01
      vertex   -5.379645e+01 9.500000e+00 1.300000e+01
      vertex   -5.379645e+01 -3.565890e+01 0.000000e+00
    endloop
  endfacet
  facet normal -1.000000e+00 0.000000e+00 0.000000e+00
    outer loop
      vertex   -5.379645e+01 -3.565890e+01 0.000000e+00
      vertex   -5.379645e+01 9.500000e+00 1.300000e+01
      vertex   -5.379645e+01 9.500000e+00 6.000000e+00
    endloop
  endfacet
  facet normal -1.000000e+00 0.000000e+00 0.000000e+00
    outer loop
      vertex   -5.379645e+01 -3.565890e+01 0.000000e+00
      vertex   -5.379645e+01 9.500000e+00 6.000000e+00
      vertex   -5.379645e+01 3.640764e+01 0.000000e+00
    endloop
  endfacet
  facet normal 1.000000e+00 -0.000000e+00 0.000000e+00
    outer loop
      vertex   -4.679645e+01 2.200000e+01 6.000000e+00
      vertex   -4.679645e+01 3.640764e+01 3.000000e+00
      vertex   -4.679645e+01 2.200000e+01 1.300000e+01
    endloop
  endfacet
  facet normal 1.000000e+00 -0.000000e+00 0.000000e+00
    outer loop
      vertex   -4.679645e+01 2.200000e+01 1.300000e+01
      vertex   -4.679645e+01 3.640764e+01 3.000000e+00
      vertex   -4.679645e+01 3.640764e+01 2.000000e+01
    endloop
  endfacet
  facet normal 1.000000e+00 0.000000e+00 -0.000000e+00
    outer loop
      vertex   -4.679645e+01 2.200000e+01 1.300000e+01
      vertex   -4.679645e+01 3.640764e+01 2.000000e+01
      vertex   -4.679645e+01 9.500000e+00 1.300000e+01
    endloop
  endfacet
  facet normal 1.000000e+00 0.000000e+00 -0.000000e+00
    outer loop
      vertex   -4.679645e+01 9.500000e+00 1.300000e+01
      vertex   -4.679645e+01 3.640764e+01 2.000000e+01
      vertex   -4.679645e+01 -3.565890e+01 2.000000e+01
    endloop
  endfacet
  facet normal 1.000000e+00 0.000000e+00 0.000000e+00
    outer loop
      vertex   -4.679645e+01 9.500000e+00 1.300000e+01
      vertex   -4.679645e+01 -3.565890e+01 2.000000e+01
      vertex   -4.679645e+01 -3.565890e+01 3.000000e+00
    endloop
  endfacet
  facet normal 1.000000e+00 0.000000e+00 0.000000e+00
    outer loop
      vertex   -4.679645e+01 2.200000e+01 6.000000e+00
      vertex   -4.679645e+01 9.500000e+00 6.000000e+00
      vertex   -4.679645e+01 3.640764e+01 3.000000e+00
    endloop
  endfacet
  facet normal 1.000000e+00 0.000000e+00 0.000000e+00
    outer loop
      vertex   -4.679645e+01 3.640764e+01 3.000000e+00
      vertex   -4.679645e+01 9.500000e+00 6.000000e+00
      vertex   -4.679645e+01 -3.565890e+01 3.000000e+00
    endloop
  endfacet
  facet normal 1.000000e+00 0.000000e+00 0.000000e+00
    outer loop
      vertex   -4.679645e+01 -3.565890e+01 3.000000e+00
      vertex   -4.679645e+01 9.500000e+00 6.000000e+00
      vertex   -4.679645e+01 9.500000e+00 1.300000e+01
    endloop
  endfacet
endsolid
