M48
INCH,LZ
;FILE_FORMAT=2:4
;TYPE=NON_PLATED
;Layer: NPTH_Through
;EasyEDA v6.5.48, 2025-03-21 03:43:35
;8df40c406dd64a40a88ac0f89ec13ad7,969951738f564c6b9e5867b4eeab67b3,10
;Gerber Generator version 0.2
;Holesize 1 = 0.0600 inch
T01C0.0600
;Holesize 2 = 0.0670 inch
T02C0.0670
;Holesize 3 = 0.0670 inch
T03C0.0670
;Holesize 4 = 0.0750 inch
T04C0.0750
;Holesize 5 = 0.1180 inch
T05C0.1180
;Holesize 6 = 0.1200 inch
T06C0.1200
;Holesize 7 = 0.1500 inch
T07C0.1500
;Holesize 8 = 0.1570 inch
T08C0.1570
;Holesize 9 = 0.1580 inch
T09C0.1580
;Holesize 10 = 0.1600 inch
T10C0.1600
;Holesize 11 = 0.1610 inch
T11C0.1610
;Holesize 12 = 0.1650 inch
T12C0.1650
%
G05
G90
T01
X024050Y015123
X020050Y015123
X016400Y015123
X012400Y015123
X008750Y015123
X004750Y015123
X120150Y-000327
X124150Y-000327
X103850Y-016327
X107850Y-016327
X120150Y015173
X124150Y015173
X120150Y007423
X124150Y007423
X120150Y-008127
X124150Y-008127
X120100Y-016327
X124100Y-016327
X112500Y-008127
X116500Y-008127
X112050Y-016327
X116050Y-016327
X095950Y-016327
X099950Y-016327
X088300Y-016327
X092300Y-016327
X080650Y-016327
X084650Y-016327
X090700Y-008077
X094700Y-008077
X083050Y-008077
X087050Y-008077
X075400Y-008077
X079400Y-008077
X067750Y-008077
X071750Y-008077
X094550Y-000327
X098550Y-000327
X086950Y-000327
X090950Y-000327
X079300Y-000327
X083300Y-000327
X071650Y-000327
X075650Y-000327
X064000Y-000327
X068000Y-000327
X100300Y007423
X104300Y007423
X092700Y007423
X096700Y007423
X085100Y007423
X089100Y007423
X077450Y007423
X081450Y007423
X069800Y007423
X073800Y007423
X062150Y007423
X066150Y007423
X060100Y-008077
X064100Y-008077
X056350Y-000327
X060350Y-000327
X054500Y007423
X058500Y007423
X046850Y007423
X050850Y007423
X048700Y-000327
X052700Y-000327
X052450Y-008077
X056450Y-008077
X044800Y-008077
X048800Y-008077
X037150Y-008077
X041150Y-008077
X033400Y-000327
X037400Y-000327
X041050Y-000327
X045050Y-000327
X039200Y007423
X043200Y007423
X031550Y007423
X035550Y007423
X029500Y-008077
X033500Y-008077
X025750Y-000327
X029750Y-000327
X023900Y007423
X027900Y007423
X021850Y-008077
X025850Y-008077
X018100Y-000327
X022100Y-000327
X016250Y007423
X020250Y007423
X065950Y015123
X069950Y015123
X096600Y015073
X100600Y015073
X088800Y015123
X092800Y015123
X081200Y015123
X085200Y015123
X073600Y015123
X077600Y015123
X058300Y015123
X062300Y015123
X050650Y015123
X054650Y015123
X043000Y015123
X047000Y015123
X035350Y015123
X039350Y015123
X027700Y015123
X031700Y015123
T02
X006700Y007450
X010700Y007450
X009500Y-008050
X013500Y-008050
X107400Y-000300
X111400Y-000300
X110200Y007450
X114200Y007450
X112302Y015148
X108302Y015148
T03
X007615Y-000300
X011615Y-000300
X108300Y015150
X112300Y015150
T04
X009750Y-016250
X005750Y-016250
X019300Y-016250
X015300Y-016250
X028850Y-016250
X024850Y-016250
X057150Y-016250
X053150Y-016250
X105750Y-008050
X101750Y-008050
T05
X095040Y000650
X097560Y001650
X075890Y-007100
X078410Y-006100
X083540Y-007100
X086060Y-006100
X091140Y-007050
X093660Y-006050
X087440Y000650
X089960Y001650
X018590Y000650
X021110Y001650
X052940Y-007100
X055460Y-006100
X037640Y-007100
X040160Y-006100
X008090Y000750
X010610Y001750
X033890Y000650
X036410Y001650
X120640Y008400
X123160Y009400
X112540Y-015350
X115060Y-014350
X107890Y000700
X110410Y001700
X041540Y000650
X044060Y001650
X088790Y-015350
X091310Y-014350
X049190Y000650
X051710Y001650
X056840Y000650
X059360Y001650
X064490Y000650
X067010Y001650
X072140Y000650
X074660Y001650
X079790Y000650
X082310Y001650
X025340Y-015250
X027860Y-014250
X104340Y-015350
X106860Y-014350
X006240Y-015250
X008760Y-014250
X009990Y-007050
X012510Y-006050
X068240Y-007100
X070760Y-006100
X060590Y-007100
X063110Y-006100
X120640Y-007150
X123160Y-006150
X120640Y000650
X123160Y001650
X081140Y-015350
X083660Y-014350
X120590Y-015350
X123110Y-014350
X096440Y-015350
X098960Y-014350
X102240Y-007050
X104760Y-006050
X026240Y000650
X028760Y001650
X053640Y-015250
X056160Y-014250
X112990Y-007150
X115510Y-006150
X045290Y-007100
X047810Y-006100
X015790Y-015250
X018310Y-014250
X029990Y-007100
X032510Y-006100
X022340Y-007100
X024860Y-006100
X110690Y008450
X113210Y009450
X100790Y008400
X103310Y009400
X081690Y016100
X084210Y017100
X012890Y016100
X015410Y017100
X020540Y016100
X023060Y017100
X028190Y016100
X030710Y017100
X035840Y016100
X038360Y017100
X043490Y016100
X046010Y017100
X051140Y016100
X053660Y017100
X058790Y016100
X061310Y017100
X066440Y016100
X068960Y017100
X074090Y016100
X076610Y017100
X120640Y016150
X123160Y017150
X097090Y016050
X099610Y017050
X089290Y016100
X091810Y017100
X108790Y016150
X111310Y017150
X032040Y008400
X034560Y009400
X005240Y016100
X007760Y017100
X070290Y008400
X072810Y009400
X077940Y008400
X080460Y009400
X085590Y008400
X088110Y009400
X016740Y008400
X019260Y009400
X039690Y008400
X042210Y009400
X047340Y008400
X049860Y009400
X007190Y008450
X009710Y009450
X062640Y008400
X065160Y009400
X024390Y008400
X026910Y009400
X054990Y008400
X057510Y009400
X093190Y008400
X095710Y009400
T06
X006800Y-005300
X016200Y-005300
X104700Y002450
X114100Y002450
X074835Y-019000
X035465Y-019000
X115026Y017898
X105577Y017898
T07
X022050Y015123
X014400Y015123
X006750Y015123
X122150Y-000327
X105850Y-016327
X122150Y015173
X122150Y007423
X122150Y-008127
X122100Y-016327
X114500Y-008127
X114050Y-016327
X097950Y-016327
X090300Y-016327
X082650Y-016327
X092700Y-008077
X085050Y-008077
X077400Y-008077
X069750Y-008077
X096550Y-000327
X088950Y-000327
X081300Y-000327
X073650Y-000327
X066000Y-000327
X102300Y007423
X094700Y007423
X087100Y007423
X079450Y007423
X071800Y007423
X064150Y007423
X062100Y-008077
X058350Y-000327
X056500Y007423
X048850Y007423
X050700Y-000327
X054450Y-008077
X046800Y-008077
X039150Y-008077
X035400Y-000327
X043050Y-000327
X041200Y007423
X033550Y007423
X031500Y-008077
X027750Y-000327
X025900Y007423
X023850Y-008077
X020100Y-000327
X018250Y007423
X067950Y015123
X098600Y015073
X090800Y015123
X083200Y015123
X075600Y015123
X060300Y015123
X052650Y015123
X045000Y015123
X037350Y015123
X029700Y015123
T08
X008700Y007450
X011500Y-008050
X006800Y-011300
X016200Y-011300
X109400Y-000300
X104700Y-003550
X114100Y-003550
X112200Y007450
X115026Y011898
X105577Y011898
T09
X110300Y015150
T10
X074835Y-013000
X035465Y-013000
T11
X009615Y-000300
X110300Y015150
T12
X007750Y-016250
X017300Y-016250
X026850Y-016250
X055150Y-016250
X103750Y-008050
M30
