G04 Layer: TopSilkscreenLayer*
G04 EasyEDA v6.5.48, 2025-03-21 03:43:35*
G04 8df40c406dd64a40a88ac0f89ec13ad7,969951738f564c6b9e5867b4eeab67b3,10*
G04 Gerber Generator version 0.2*
G04 Scale: 100 percent, Rotated: No, Reflected: No *
G04 Dimensions in inches *
G04 leading zeros omitted , absolute positions ,3 integer and 6 decimal *
%FSLAX36Y36*%
%MOIN*%

%ADD10C,0.0060*%
%ADD11C,0.0100*%

%LPD*%
D10*
X10974759Y-1990070D02*
G01*
X10974759Y-2032970D01*
X11016859Y-1990070D02*
G01*
X10996360Y-2032970D01*
X10988260Y-1990070D02*
G01*
X11016859Y-1990070D01*
X11030360Y-1998170D02*
G01*
X11034460Y-1996170D01*
X11040559Y-1990070D01*
X11040559Y-2032970D01*
X11579759Y-2000070D02*
G01*
X11579759Y-2042970D01*
X11621859Y-2000070D02*
G01*
X11601360Y-2042970D01*
X11593260Y-2000070D02*
G01*
X11621859Y-2000070D01*
X11647659Y-2000070D02*
G01*
X11641459Y-2002069D01*
X11637359Y-2008170D01*
X11635360Y-2018470D01*
X11635360Y-2024569D01*
X11637359Y-2034769D01*
X11641459Y-2040970D01*
X11647659Y-2042970D01*
X11651760Y-2042970D01*
X11657860Y-2040970D01*
X11661960Y-2034769D01*
X11663959Y-2024569D01*
X11663959Y-2018470D01*
X11661960Y-2008170D01*
X11657860Y-2002069D01*
X11651760Y-2000070D01*
X11647659Y-2000070D01*
X1719759Y-1945070D02*
G01*
X1719759Y-1987970D01*
X1743459Y-1945070D02*
G01*
X1737359Y-1947069D01*
X1735259Y-1951170D01*
X1735259Y-1955270D01*
X1737359Y-1959369D01*
X1741459Y-1961469D01*
X1749660Y-1963470D01*
X1755760Y-1965470D01*
X1759859Y-1969569D01*
X1761859Y-1973670D01*
X1761859Y-1979870D01*
X1759859Y-1983969D01*
X1757759Y-1985970D01*
X1751660Y-1987970D01*
X1743459Y-1987970D01*
X1737359Y-1985970D01*
X1735259Y-1983969D01*
X1733260Y-1979870D01*
X1733260Y-1973670D01*
X1735259Y-1969569D01*
X1739359Y-1965470D01*
X1745559Y-1963470D01*
X1753760Y-1961469D01*
X1757759Y-1959369D01*
X1759859Y-1955270D01*
X1759859Y-1951170D01*
X1757759Y-1947069D01*
X1751660Y-1945070D01*
X1743459Y-1945070D01*
X1777460Y-1955270D02*
G01*
X1777460Y-1953270D01*
X1779459Y-1949169D01*
X1781559Y-1947069D01*
X1785659Y-1945070D01*
X1793760Y-1945070D01*
X1797860Y-1947069D01*
X1799960Y-1949169D01*
X1801959Y-1953270D01*
X1801959Y-1957370D01*
X1799960Y-1961469D01*
X1795860Y-1967570D01*
X1775360Y-1987970D01*
X1804059Y-1987970D01*
X2644759Y-1950070D02*
G01*
X2644759Y-1992970D01*
X2668459Y-1950070D02*
G01*
X2662359Y-1952069D01*
X2660259Y-1956170D01*
X2660259Y-1960270D01*
X2662359Y-1964369D01*
X2666459Y-1966469D01*
X2674660Y-1968470D01*
X2680760Y-1970470D01*
X2684859Y-1974569D01*
X2686859Y-1978670D01*
X2686859Y-1984870D01*
X2684859Y-1988969D01*
X2682759Y-1990970D01*
X2676660Y-1992970D01*
X2668459Y-1992970D01*
X2662359Y-1990970D01*
X2660259Y-1988969D01*
X2658260Y-1984870D01*
X2658260Y-1978670D01*
X2660259Y-1974569D01*
X2664359Y-1970470D01*
X2670559Y-1968470D01*
X2678760Y-1966469D01*
X2682759Y-1964369D01*
X2684859Y-1960270D01*
X2684859Y-1956170D01*
X2682759Y-1952069D01*
X2676660Y-1950070D01*
X2668459Y-1950070D01*
X2700360Y-1958270D02*
G01*
X2704459Y-1956170D01*
X2710659Y-1950070D01*
X2710659Y-1992970D01*
X3509759Y-1970070D02*
G01*
X3509759Y-2012970D01*
X3533459Y-1970070D02*
G01*
X3527359Y-1972069D01*
X3525259Y-1976170D01*
X3525259Y-1980270D01*
X3527359Y-1984369D01*
X3531459Y-1986469D01*
X3539660Y-1988470D01*
X3545760Y-1990470D01*
X3549859Y-1994569D01*
X3551859Y-1998670D01*
X3551859Y-2004870D01*
X3549859Y-2008969D01*
X3547759Y-2010970D01*
X3541660Y-2012970D01*
X3533459Y-2012970D01*
X3527359Y-2010970D01*
X3525259Y-2008969D01*
X3523260Y-2004870D01*
X3523260Y-1998670D01*
X3525259Y-1994569D01*
X3529359Y-1990470D01*
X3535559Y-1988470D01*
X3543760Y-1986469D01*
X3547759Y-1984369D01*
X3549859Y-1980270D01*
X3549859Y-1976170D01*
X3547759Y-1972069D01*
X3541660Y-1970070D01*
X3533459Y-1970070D01*
X3577659Y-1970070D02*
G01*
X3571559Y-1972069D01*
X3567460Y-1978270D01*
X3565360Y-1988470D01*
X3565360Y-1994569D01*
X3567460Y-2004870D01*
X3571559Y-2010970D01*
X3577659Y-2012970D01*
X3581760Y-2012970D01*
X3587860Y-2010970D01*
X3591959Y-2004870D01*
X3594059Y-1994569D01*
X3594059Y-1988470D01*
X3591959Y-1978270D01*
X3587860Y-1972069D01*
X3581760Y-1970070D01*
X3577659Y-1970070D01*
X4629759Y-1940070D02*
G01*
X4629759Y-1982970D01*
X4671859Y-1940070D02*
G01*
X4651459Y-1982970D01*
X4643260Y-1940070D02*
G01*
X4671859Y-1940070D01*
X4711959Y-1954369D02*
G01*
X4709960Y-1960470D01*
X4705860Y-1964569D01*
X4699759Y-1966669D01*
X4697659Y-1966669D01*
X4691559Y-1964569D01*
X4687460Y-1960470D01*
X4685360Y-1954369D01*
X4685360Y-1952370D01*
X4687460Y-1946170D01*
X4691559Y-1942069D01*
X4697659Y-1940070D01*
X4699759Y-1940070D01*
X4705860Y-1942069D01*
X4709960Y-1946170D01*
X4711959Y-1954369D01*
X4711959Y-1964569D01*
X4709960Y-1974870D01*
X4705860Y-1980970D01*
X4699759Y-1982970D01*
X4695659Y-1982970D01*
X4689459Y-1980970D01*
X4687460Y-1976869D01*
X5509759Y-1950070D02*
G01*
X5509759Y-1992970D01*
X5551859Y-1950070D02*
G01*
X5531459Y-1992970D01*
X5523260Y-1950070D02*
G01*
X5551859Y-1950070D01*
X5575659Y-1950070D02*
G01*
X5569459Y-1952069D01*
X5567460Y-1956170D01*
X5567460Y-1960270D01*
X5569459Y-1964369D01*
X5573559Y-1966469D01*
X5581760Y-1968470D01*
X5587860Y-1970470D01*
X5591959Y-1974569D01*
X5594059Y-1978670D01*
X5594059Y-1984870D01*
X5591959Y-1988969D01*
X5589960Y-1990970D01*
X5583760Y-1992970D01*
X5575659Y-1992970D01*
X5569459Y-1990970D01*
X5567460Y-1988969D01*
X5565360Y-1984870D01*
X5565360Y-1978670D01*
X5567460Y-1974569D01*
X5571559Y-1970470D01*
X5577659Y-1968470D01*
X5585860Y-1966469D01*
X5589960Y-1964369D01*
X5591959Y-1960270D01*
X5591959Y-1956170D01*
X5589960Y-1952069D01*
X5583760Y-1950070D01*
X5575659Y-1950070D01*
X6324759Y-1975070D02*
G01*
X6324759Y-2017970D01*
X6366859Y-1975070D02*
G01*
X6346459Y-2017970D01*
X6338260Y-1975070D02*
G01*
X6366859Y-1975070D01*
X6409059Y-1975070D02*
G01*
X6388559Y-2017970D01*
X6380360Y-1975070D02*
G01*
X6409059Y-1975070D01*
X7134759Y-1980070D02*
G01*
X7134759Y-2022970D01*
X7176859Y-1980070D02*
G01*
X7156459Y-2022970D01*
X7148260Y-1980070D02*
G01*
X7176859Y-1980070D01*
X7214960Y-1986170D02*
G01*
X7212860Y-1982069D01*
X7206760Y-1980070D01*
X7202659Y-1980070D01*
X7196559Y-1982069D01*
X7192460Y-1988270D01*
X7190360Y-1998470D01*
X7190360Y-2008670D01*
X7192460Y-2016869D01*
X7196559Y-2020970D01*
X7202659Y-2022970D01*
X7204759Y-2022970D01*
X7210860Y-2020970D01*
X7214960Y-2016869D01*
X7216959Y-2010770D01*
X7216959Y-2008670D01*
X7214960Y-2002570D01*
X7210860Y-1998470D01*
X7204759Y-1996469D01*
X7202659Y-1996469D01*
X7196559Y-1998470D01*
X7192460Y-2002570D01*
X7190360Y-2008670D01*
X7974759Y-1985070D02*
G01*
X7974759Y-2027970D01*
X8016859Y-1985070D02*
G01*
X7996459Y-2027970D01*
X7988260Y-1985070D02*
G01*
X8016859Y-1985070D01*
X8054960Y-1985070D02*
G01*
X8034459Y-1985070D01*
X8032460Y-2003470D01*
X8034459Y-2001469D01*
X8040659Y-1999369D01*
X8046760Y-1999369D01*
X8052860Y-2001469D01*
X8056959Y-2005470D01*
X8059059Y-2011669D01*
X8059059Y-2015770D01*
X8056959Y-2021869D01*
X8052860Y-2025970D01*
X8046760Y-2027970D01*
X8040659Y-2027970D01*
X8034459Y-2025970D01*
X8032460Y-2023969D01*
X8030360Y-2019870D01*
X8839759Y-1995070D02*
G01*
X8839759Y-2037970D01*
X8881859Y-1995070D02*
G01*
X8861459Y-2037970D01*
X8853260Y-1995070D02*
G01*
X8881859Y-1995070D01*
X8915860Y-1995070D02*
G01*
X8895360Y-2023670D01*
X8926059Y-2023670D01*
X8915860Y-1995070D02*
G01*
X8915860Y-2037970D01*
X9629759Y-1995070D02*
G01*
X9629759Y-2037970D01*
X9671859Y-1995070D02*
G01*
X9651459Y-2037970D01*
X9643260Y-1995070D02*
G01*
X9671859Y-1995070D01*
X9689460Y-1995070D02*
G01*
X9711960Y-1995070D01*
X9699759Y-2011469D01*
X9705860Y-2011469D01*
X9709960Y-2013470D01*
X9711960Y-2015470D01*
X9714060Y-2021669D01*
X9714060Y-2025770D01*
X9711960Y-2031869D01*
X9707860Y-2035970D01*
X9701760Y-2037970D01*
X9695659Y-2037970D01*
X9689460Y-2035970D01*
X9687460Y-2033969D01*
X9685360Y-2029870D01*
X10344759Y-2000070D02*
G01*
X10344759Y-2042970D01*
X10386859Y-2000070D02*
G01*
X10366459Y-2042970D01*
X10358260Y-2000070D02*
G01*
X10386859Y-2000070D01*
X10402460Y-2010270D02*
G01*
X10402460Y-2008270D01*
X10404460Y-2004169D01*
X10406560Y-2002069D01*
X10410659Y-2000070D01*
X10418760Y-2000070D01*
X10422860Y-2002069D01*
X10424960Y-2004169D01*
X10426960Y-2008270D01*
X10426960Y-2012370D01*
X10424960Y-2016469D01*
X10420860Y-2022570D01*
X10400360Y-2042970D01*
X10429060Y-2042970D01*
X12204759Y-2000070D02*
G01*
X12204759Y-2042970D01*
X12242759Y-2006170D02*
G01*
X12240760Y-2002069D01*
X12234660Y-2000070D01*
X12230559Y-2000070D01*
X12224359Y-2002069D01*
X12220259Y-2008270D01*
X12218260Y-2018470D01*
X12218260Y-2028670D01*
X12220259Y-2036869D01*
X12224359Y-2040970D01*
X12230559Y-2042970D01*
X12232560Y-2042970D01*
X12238760Y-2040970D01*
X12242759Y-2036869D01*
X12244859Y-2030770D01*
X12244859Y-2028670D01*
X12242759Y-2022570D01*
X12238760Y-2018470D01*
X12232560Y-2016469D01*
X12230559Y-2016469D01*
X12224359Y-2018470D01*
X12220259Y-2022570D01*
X12218260Y-2028670D01*
X12284960Y-2014369D02*
G01*
X12282860Y-2020470D01*
X12278760Y-2024569D01*
X12272659Y-2026669D01*
X12270659Y-2026669D01*
X12264460Y-2024569D01*
X12260360Y-2020470D01*
X12258360Y-2014369D01*
X12258360Y-2012370D01*
X12260360Y-2006170D01*
X12264460Y-2002069D01*
X12270659Y-2000070D01*
X12272659Y-2000070D01*
X12278760Y-2002069D01*
X12282860Y-2006170D01*
X12284960Y-2014369D01*
X12284960Y-2024569D01*
X12282860Y-2034870D01*
X12278760Y-2040970D01*
X12272659Y-2042970D01*
X12268559Y-2042970D01*
X12262460Y-2040970D01*
X12260360Y-2036869D01*
X769759Y-1960070D02*
G01*
X769759Y-2002970D01*
X793459Y-1960070D02*
G01*
X787359Y-1962069D01*
X785259Y-1966170D01*
X785259Y-1970270D01*
X787359Y-1974369D01*
X791459Y-1976469D01*
X799660Y-1978470D01*
X805760Y-1980470D01*
X809859Y-1984569D01*
X811859Y-1988670D01*
X811859Y-1994870D01*
X809859Y-1998969D01*
X807759Y-2000970D01*
X801660Y-2002970D01*
X793459Y-2002970D01*
X787359Y-2000970D01*
X785259Y-1998969D01*
X783260Y-1994870D01*
X783260Y-1988670D01*
X785259Y-1984569D01*
X789359Y-1980470D01*
X795559Y-1978470D01*
X803760Y-1976469D01*
X807759Y-1974369D01*
X809859Y-1970270D01*
X809859Y-1966170D01*
X807759Y-1962069D01*
X801660Y-1960070D01*
X793459Y-1960070D01*
X829459Y-1960070D02*
G01*
X851959Y-1960070D01*
X839759Y-1976469D01*
X845860Y-1976469D01*
X849960Y-1978470D01*
X851959Y-1980470D01*
X854059Y-1986669D01*
X854059Y-1990770D01*
X851959Y-1996869D01*
X847860Y-2000970D01*
X841760Y-2002970D01*
X835659Y-2002970D01*
X829459Y-2000970D01*
X827460Y-1998969D01*
X825360Y-1994870D01*
G36*
X10897320Y-2193000D02*
G01*
X10897320Y-2208740D01*
X10909140Y-2208740D01*
G37*
G36*
X11502320Y-2203000D02*
G01*
X11502320Y-2218740D01*
X11514140Y-2218740D01*
G37*
G36*
X1642320Y-2148000D02*
G01*
X1642320Y-2163740D01*
X1654139Y-2163740D01*
G37*
G36*
X2567320Y-2153000D02*
G01*
X2567320Y-2168740D01*
X2579140Y-2168740D01*
G37*
G36*
X3432320Y-2173000D02*
G01*
X3432320Y-2188740D01*
X3444140Y-2188740D01*
G37*
G36*
X4552320Y-2143000D02*
G01*
X4552320Y-2158740D01*
X4564140Y-2158740D01*
G37*
G36*
X5432320Y-2153000D02*
G01*
X5432320Y-2168740D01*
X5444140Y-2168740D01*
G37*
G36*
X6247320Y-2178000D02*
G01*
X6247320Y-2193740D01*
X6259140Y-2193740D01*
G37*
G36*
X7057320Y-2183000D02*
G01*
X7057320Y-2198740D01*
X7069140Y-2198740D01*
G37*
G36*
X7897320Y-2188000D02*
G01*
X7897320Y-2203740D01*
X7909140Y-2203740D01*
G37*
G36*
X8762320Y-2198000D02*
G01*
X8762320Y-2213740D01*
X8774140Y-2213740D01*
G37*
G36*
X9552320Y-2198000D02*
G01*
X9552320Y-2213740D01*
X9564140Y-2213740D01*
G37*
G36*
X10267320Y-2203000D02*
G01*
X10267320Y-2218740D01*
X10279140Y-2218740D01*
G37*
G36*
X12127320Y-2203000D02*
G01*
X12127320Y-2218740D01*
X12139140Y-2218740D01*
G37*
G36*
X692320Y-2163000D02*
G01*
X692320Y-2178740D01*
X704140Y-2178740D01*
G37*
D11*
X11062677Y-2208739D02*
G01*
X10897322Y-2208739D01*
X10897322Y-2204803D02*
G01*
X10897322Y-2208739D01*
X10897299Y-2189899D02*
G01*
X10916199Y-2208699D01*
X10919300Y-2208699D01*
X11062677Y-2184769D02*
G01*
X11062677Y-2204803D01*
X11062677Y-2125713D02*
G01*
X11062677Y-2134286D01*
X11062677Y-2051260D02*
G01*
X11062677Y-2075230D01*
X10897322Y-2184769D02*
G01*
X10897322Y-2204803D01*
X10897322Y-2125713D02*
G01*
X10897322Y-2134286D01*
X10897322Y-2051260D02*
G01*
X10897322Y-2075230D01*
X10897322Y-2051260D02*
G01*
X11062677Y-2051260D01*
X11062677Y-2204803D02*
G01*
X11062677Y-2208739D01*
X11667677Y-2218739D02*
G01*
X11502322Y-2218739D01*
X11502322Y-2214803D02*
G01*
X11502322Y-2218739D01*
X11502299Y-2199899D02*
G01*
X11521199Y-2218699D01*
X11524300Y-2218699D01*
X11667677Y-2194769D02*
G01*
X11667677Y-2214803D01*
X11667677Y-2135713D02*
G01*
X11667677Y-2144286D01*
X11667677Y-2061260D02*
G01*
X11667677Y-2085230D01*
X11502322Y-2194769D02*
G01*
X11502322Y-2214803D01*
X11502322Y-2135713D02*
G01*
X11502322Y-2144286D01*
X11502322Y-2061260D02*
G01*
X11502322Y-2085230D01*
X11502322Y-2061260D02*
G01*
X11667677Y-2061260D01*
X11667677Y-2214803D02*
G01*
X11667677Y-2218739D01*
X1807677Y-2163739D02*
G01*
X1642322Y-2163739D01*
X1642322Y-2159803D02*
G01*
X1642322Y-2163739D01*
X1642299Y-2144899D02*
G01*
X1661199Y-2163699D01*
X1664300Y-2163699D01*
X1807677Y-2139769D02*
G01*
X1807677Y-2159803D01*
X1807677Y-2080713D02*
G01*
X1807677Y-2089286D01*
X1807677Y-2006260D02*
G01*
X1807677Y-2030230D01*
X1642322Y-2139769D02*
G01*
X1642322Y-2159803D01*
X1642322Y-2080713D02*
G01*
X1642322Y-2089286D01*
X1642322Y-2006260D02*
G01*
X1642322Y-2030230D01*
X1642322Y-2006260D02*
G01*
X1807677Y-2006260D01*
X1807677Y-2159803D02*
G01*
X1807677Y-2163739D01*
X2732677Y-2168739D02*
G01*
X2567322Y-2168739D01*
X2567322Y-2164803D02*
G01*
X2567322Y-2168739D01*
X2567299Y-2149899D02*
G01*
X2586199Y-2168699D01*
X2589300Y-2168699D01*
X2732677Y-2144769D02*
G01*
X2732677Y-2164803D01*
X2732677Y-2085713D02*
G01*
X2732677Y-2094286D01*
X2732677Y-2011260D02*
G01*
X2732677Y-2035230D01*
X2567322Y-2144769D02*
G01*
X2567322Y-2164803D01*
X2567322Y-2085713D02*
G01*
X2567322Y-2094286D01*
X2567322Y-2011260D02*
G01*
X2567322Y-2035230D01*
X2567322Y-2011260D02*
G01*
X2732677Y-2011260D01*
X2732677Y-2164803D02*
G01*
X2732677Y-2168739D01*
X3597677Y-2188739D02*
G01*
X3432322Y-2188739D01*
X3432322Y-2184803D02*
G01*
X3432322Y-2188739D01*
X3432299Y-2169899D02*
G01*
X3451199Y-2188699D01*
X3454300Y-2188699D01*
X3597677Y-2164769D02*
G01*
X3597677Y-2184803D01*
X3597677Y-2105713D02*
G01*
X3597677Y-2114286D01*
X3597677Y-2031260D02*
G01*
X3597677Y-2055230D01*
X3432322Y-2164769D02*
G01*
X3432322Y-2184803D01*
X3432322Y-2105713D02*
G01*
X3432322Y-2114286D01*
X3432322Y-2031260D02*
G01*
X3432322Y-2055230D01*
X3432322Y-2031260D02*
G01*
X3597677Y-2031260D01*
X3597677Y-2184803D02*
G01*
X3597677Y-2188739D01*
X4717677Y-2158739D02*
G01*
X4552322Y-2158739D01*
X4552322Y-2154803D02*
G01*
X4552322Y-2158739D01*
X4552299Y-2139899D02*
G01*
X4571199Y-2158699D01*
X4574300Y-2158699D01*
X4717677Y-2134769D02*
G01*
X4717677Y-2154803D01*
X4717677Y-2075713D02*
G01*
X4717677Y-2084286D01*
X4717677Y-2001260D02*
G01*
X4717677Y-2025230D01*
X4552322Y-2134769D02*
G01*
X4552322Y-2154803D01*
X4552322Y-2075713D02*
G01*
X4552322Y-2084286D01*
X4552322Y-2001260D02*
G01*
X4552322Y-2025230D01*
X4552322Y-2001260D02*
G01*
X4717677Y-2001260D01*
X4717677Y-2154803D02*
G01*
X4717677Y-2158739D01*
X5597677Y-2168739D02*
G01*
X5432322Y-2168739D01*
X5432322Y-2164803D02*
G01*
X5432322Y-2168739D01*
X5432299Y-2149899D02*
G01*
X5451199Y-2168699D01*
X5454300Y-2168699D01*
X5597677Y-2144769D02*
G01*
X5597677Y-2164803D01*
X5597677Y-2085713D02*
G01*
X5597677Y-2094286D01*
X5597677Y-2011260D02*
G01*
X5597677Y-2035230D01*
X5432322Y-2144769D02*
G01*
X5432322Y-2164803D01*
X5432322Y-2085713D02*
G01*
X5432322Y-2094286D01*
X5432322Y-2011260D02*
G01*
X5432322Y-2035230D01*
X5432322Y-2011260D02*
G01*
X5597677Y-2011260D01*
X5597677Y-2164803D02*
G01*
X5597677Y-2168739D01*
X6412677Y-2193739D02*
G01*
X6247322Y-2193739D01*
X6247322Y-2189803D02*
G01*
X6247322Y-2193739D01*
X6247299Y-2174899D02*
G01*
X6266199Y-2193699D01*
X6269300Y-2193699D01*
X6412677Y-2169769D02*
G01*
X6412677Y-2189803D01*
X6412677Y-2110713D02*
G01*
X6412677Y-2119286D01*
X6412677Y-2036260D02*
G01*
X6412677Y-2060230D01*
X6247322Y-2169769D02*
G01*
X6247322Y-2189803D01*
X6247322Y-2110713D02*
G01*
X6247322Y-2119286D01*
X6247322Y-2036260D02*
G01*
X6247322Y-2060230D01*
X6247322Y-2036260D02*
G01*
X6412677Y-2036260D01*
X6412677Y-2189803D02*
G01*
X6412677Y-2193739D01*
X7222677Y-2198739D02*
G01*
X7057322Y-2198739D01*
X7057322Y-2194803D02*
G01*
X7057322Y-2198739D01*
X7057299Y-2179899D02*
G01*
X7076199Y-2198699D01*
X7079300Y-2198699D01*
X7222677Y-2174769D02*
G01*
X7222677Y-2194803D01*
X7222677Y-2115713D02*
G01*
X7222677Y-2124286D01*
X7222677Y-2041260D02*
G01*
X7222677Y-2065230D01*
X7057322Y-2174769D02*
G01*
X7057322Y-2194803D01*
X7057322Y-2115713D02*
G01*
X7057322Y-2124286D01*
X7057322Y-2041260D02*
G01*
X7057322Y-2065230D01*
X7057322Y-2041260D02*
G01*
X7222677Y-2041260D01*
X7222677Y-2194803D02*
G01*
X7222677Y-2198739D01*
X8062677Y-2203739D02*
G01*
X7897322Y-2203739D01*
X7897322Y-2199803D02*
G01*
X7897322Y-2203739D01*
X7897299Y-2184899D02*
G01*
X7916199Y-2203699D01*
X7919300Y-2203699D01*
X8062677Y-2179769D02*
G01*
X8062677Y-2199803D01*
X8062677Y-2120713D02*
G01*
X8062677Y-2129286D01*
X8062677Y-2046260D02*
G01*
X8062677Y-2070230D01*
X7897322Y-2179769D02*
G01*
X7897322Y-2199803D01*
X7897322Y-2120713D02*
G01*
X7897322Y-2129286D01*
X7897322Y-2046260D02*
G01*
X7897322Y-2070230D01*
X7897322Y-2046260D02*
G01*
X8062677Y-2046260D01*
X8062677Y-2199803D02*
G01*
X8062677Y-2203739D01*
X8927677Y-2213739D02*
G01*
X8762322Y-2213739D01*
X8762322Y-2209803D02*
G01*
X8762322Y-2213739D01*
X8762299Y-2194899D02*
G01*
X8781199Y-2213699D01*
X8784300Y-2213699D01*
X8927677Y-2189769D02*
G01*
X8927677Y-2209803D01*
X8927677Y-2130713D02*
G01*
X8927677Y-2139286D01*
X8927677Y-2056260D02*
G01*
X8927677Y-2080230D01*
X8762322Y-2189769D02*
G01*
X8762322Y-2209803D01*
X8762322Y-2130713D02*
G01*
X8762322Y-2139286D01*
X8762322Y-2056260D02*
G01*
X8762322Y-2080230D01*
X8762322Y-2056260D02*
G01*
X8927677Y-2056260D01*
X8927677Y-2209803D02*
G01*
X8927677Y-2213739D01*
X9717677Y-2213739D02*
G01*
X9552322Y-2213739D01*
X9552322Y-2209803D02*
G01*
X9552322Y-2213739D01*
X9552299Y-2194899D02*
G01*
X9571199Y-2213699D01*
X9574300Y-2213699D01*
X9717677Y-2189769D02*
G01*
X9717677Y-2209803D01*
X9717677Y-2130713D02*
G01*
X9717677Y-2139286D01*
X9717677Y-2056260D02*
G01*
X9717677Y-2080230D01*
X9552322Y-2189769D02*
G01*
X9552322Y-2209803D01*
X9552322Y-2130713D02*
G01*
X9552322Y-2139286D01*
X9552322Y-2056260D02*
G01*
X9552322Y-2080230D01*
X9552322Y-2056260D02*
G01*
X9717677Y-2056260D01*
X9717677Y-2209803D02*
G01*
X9717677Y-2213739D01*
X10432677Y-2218739D02*
G01*
X10267322Y-2218739D01*
X10267322Y-2214803D02*
G01*
X10267322Y-2218739D01*
X10267299Y-2199899D02*
G01*
X10286199Y-2218699D01*
X10289300Y-2218699D01*
X10432677Y-2194769D02*
G01*
X10432677Y-2214803D01*
X10432677Y-2135713D02*
G01*
X10432677Y-2144286D01*
X10432677Y-2061260D02*
G01*
X10432677Y-2085230D01*
X10267322Y-2194769D02*
G01*
X10267322Y-2214803D01*
X10267322Y-2135713D02*
G01*
X10267322Y-2144286D01*
X10267322Y-2061260D02*
G01*
X10267322Y-2085230D01*
X10267322Y-2061260D02*
G01*
X10432677Y-2061260D01*
X10432677Y-2214803D02*
G01*
X10432677Y-2218739D01*
X12292677Y-2218739D02*
G01*
X12127322Y-2218739D01*
X12127322Y-2214803D02*
G01*
X12127322Y-2218739D01*
X12127299Y-2199899D02*
G01*
X12146199Y-2218699D01*
X12149300Y-2218699D01*
X12292677Y-2194769D02*
G01*
X12292677Y-2214803D01*
X12292677Y-2135713D02*
G01*
X12292677Y-2144286D01*
X12292677Y-2061260D02*
G01*
X12292677Y-2085230D01*
X12127322Y-2194769D02*
G01*
X12127322Y-2214803D01*
X12127322Y-2135713D02*
G01*
X12127322Y-2144286D01*
X12127322Y-2061260D02*
G01*
X12127322Y-2085230D01*
X12127322Y-2061260D02*
G01*
X12292677Y-2061260D01*
X12292677Y-2214803D02*
G01*
X12292677Y-2218739D01*
X857677Y-2178739D02*
G01*
X692323Y-2178739D01*
X692323Y-2174803D02*
G01*
X692323Y-2178739D01*
X692300Y-2159899D02*
G01*
X711199Y-2178699D01*
X714299Y-2178699D01*
X857677Y-2154769D02*
G01*
X857677Y-2174803D01*
X857677Y-2095713D02*
G01*
X857677Y-2104286D01*
X857677Y-2021260D02*
G01*
X857677Y-2045230D01*
X692323Y-2154769D02*
G01*
X692323Y-2174803D01*
X692323Y-2095713D02*
G01*
X692323Y-2104286D01*
X692323Y-2021260D02*
G01*
X692323Y-2045230D01*
X692323Y-2021260D02*
G01*
X857677Y-2021260D01*
X857677Y-2174803D02*
G01*
X857677Y-2178739D01*
M02*
