G04 Layer: BottomPasteMaskLayer*
G04 EasyEDA v6.5.48, 2025-03-21 03:43:35*
G04 8df40c406dd64a40a88ac0f89ec13ad7,969951738f564c6b9e5867b4eeab67b3,10*
G04 Gerber Generator version 0.2*
G04 Scale: 100 percent, Rotated: No, Reflected: No *
G04 Dimensions in inches *
G04 leading zeros omitted , absolute positions ,3 integer and 6 decimal *
%FSLAX36Y36*%
%MOIN*%

%AMMACRO1*21,1,$1,$2,0,0,$3*%
%ADD10R,0.0630X0.0323*%
%ADD11MACRO1,0.0984X0.1004X0.0000*%

%LPD*%
D10*
G01*
X1260240Y-965470D03*
G01*
X1260240Y-1024529D03*
G01*
X1039759Y-1024529D03*
G01*
X1039759Y-965470D03*
G01*
X2495240Y-965470D03*
G01*
X2495240Y-1024529D03*
G01*
X2274759Y-1024529D03*
G01*
X2274759Y-965470D03*
G01*
X12325240Y-180470D03*
G01*
X12325240Y-239529D03*
G01*
X12104759Y-239529D03*
G01*
X12104759Y-180470D03*
G01*
X2125240Y-185470D03*
G01*
X2125240Y-244529D03*
G01*
X1904759Y-244529D03*
G01*
X1904759Y-185470D03*
G01*
X1070240Y-180470D03*
G01*
X1070240Y-239529D03*
G01*
X849759Y-239529D03*
G01*
X849759Y-180470D03*
G01*
X12320240Y-1785470D03*
G01*
X12320240Y-1844529D03*
G01*
X12099759Y-1844529D03*
G01*
X12099759Y-1785470D03*
G01*
X11520240Y-1785470D03*
G01*
X11520240Y-1844529D03*
G01*
X11299759Y-1844529D03*
G01*
X11299759Y-1785470D03*
G01*
X10695240Y-1785470D03*
G01*
X10695240Y-1844529D03*
G01*
X10474759Y-1844529D03*
G01*
X10474759Y-1785470D03*
G01*
X9905240Y-1780470D03*
G01*
X9905240Y-1839529D03*
G01*
X9684759Y-1839529D03*
G01*
X9684759Y-1780470D03*
G01*
X9140240Y-1785470D03*
G01*
X9140240Y-1844529D03*
G01*
X8919759Y-1844529D03*
G01*
X8919759Y-1785470D03*
G01*
X8375240Y-1780470D03*
G01*
X8375240Y-1839529D03*
G01*
X8154759Y-1839529D03*
G01*
X8154759Y-1780470D03*
G01*
X5625240Y-1785470D03*
G01*
X5625240Y-1844529D03*
G01*
X5404759Y-1844529D03*
G01*
X5404759Y-1785470D03*
G01*
X2795240Y-1795470D03*
G01*
X2795240Y-1854529D03*
G01*
X2574759Y-1854529D03*
G01*
X2574759Y-1795470D03*
G01*
X1840240Y-1790470D03*
G01*
X1840240Y-1849529D03*
G01*
X1619759Y-1849529D03*
G01*
X1619759Y-1790470D03*
G01*
X880240Y-1795470D03*
G01*
X880240Y-1854529D03*
G01*
X659760Y-1854529D03*
G01*
X659760Y-1795470D03*
G01*
X3260240Y-965470D03*
G01*
X3260240Y-1024529D03*
G01*
X3039759Y-1024529D03*
G01*
X3039759Y-965470D03*
G01*
X4025240Y-965470D03*
G01*
X4025240Y-1024529D03*
G01*
X3804759Y-1024529D03*
G01*
X3804759Y-965470D03*
G01*
X4795240Y-960470D03*
G01*
X4795240Y-1019529D03*
G01*
X4574759Y-1019529D03*
G01*
X4574759Y-960470D03*
G01*
X5560240Y-965470D03*
G01*
X5560240Y-1024529D03*
G01*
X5339759Y-1024529D03*
G01*
X5339759Y-965470D03*
G01*
X6320240Y-965470D03*
G01*
X6320240Y-1024529D03*
G01*
X6099759Y-1024529D03*
G01*
X6099759Y-965470D03*
G01*
X7085240Y-960470D03*
G01*
X7085240Y-1019529D03*
G01*
X6864759Y-1019529D03*
G01*
X6864759Y-960470D03*
G01*
X7850240Y-960470D03*
G01*
X7850240Y-1019529D03*
G01*
X7629759Y-1019529D03*
G01*
X7629759Y-960470D03*
G01*
X8610240Y-955470D03*
G01*
X8610240Y-1014529D03*
G01*
X8389759Y-1014529D03*
G01*
X8389759Y-955470D03*
G01*
X9385240Y-955470D03*
G01*
X9385240Y-1014529D03*
G01*
X9164759Y-1014529D03*
G01*
X9164759Y-955470D03*
G01*
X10490240Y-975470D03*
G01*
X10490240Y-1034529D03*
G01*
X10269759Y-1034529D03*
G01*
X10269759Y-975470D03*
G01*
X11560240Y-970470D03*
G01*
X11560240Y-1029529D03*
G01*
X11339759Y-1029529D03*
G01*
X11339759Y-970470D03*
G01*
X11060240Y-195470D03*
G01*
X11060240Y-254529D03*
G01*
X10839759Y-254529D03*
G01*
X10839759Y-195470D03*
G01*
X9770240Y-190470D03*
G01*
X9770240Y-249529D03*
G01*
X9549759Y-249529D03*
G01*
X9549759Y-190470D03*
G01*
X9005240Y-185470D03*
G01*
X9005240Y-244529D03*
G01*
X8784759Y-244529D03*
G01*
X8784759Y-185470D03*
G01*
X8240240Y-180470D03*
G01*
X8240240Y-239529D03*
G01*
X8019759Y-239529D03*
G01*
X8019759Y-180470D03*
G01*
X7480240Y-180470D03*
G01*
X7480240Y-239529D03*
G01*
X7259759Y-239529D03*
G01*
X7259759Y-180470D03*
G01*
X6710240Y-185470D03*
G01*
X6710240Y-244529D03*
G01*
X6489759Y-244529D03*
G01*
X6489759Y-185470D03*
G01*
X5945240Y-185470D03*
G01*
X5945240Y-244529D03*
G01*
X5724759Y-244529D03*
G01*
X5724759Y-185470D03*
G01*
X5180240Y-185470D03*
G01*
X5180240Y-244529D03*
G01*
X4959759Y-244529D03*
G01*
X4959759Y-185470D03*
G01*
X4415240Y-185470D03*
G01*
X4415240Y-244529D03*
G01*
X4194759Y-244529D03*
G01*
X4194759Y-185470D03*
G01*
X3660240Y-185470D03*
G01*
X3660240Y-244529D03*
G01*
X3439759Y-244529D03*
G01*
X3439759Y-185470D03*
G01*
X2885240Y-185470D03*
G01*
X2885240Y-244529D03*
G01*
X2664759Y-244529D03*
G01*
X2664759Y-185470D03*
G01*
X980240Y594529D03*
G01*
X980240Y535470D03*
G01*
X759760Y535470D03*
G01*
X759760Y594529D03*
G01*
X12330240Y-965470D03*
G01*
X12330240Y-1024529D03*
G01*
X12109759Y-1024529D03*
G01*
X12109759Y-965470D03*
G01*
X1930240Y579529D03*
G01*
X1930240Y520470D03*
G01*
X1709759Y520470D03*
G01*
X1709759Y579529D03*
G01*
X2700240Y579529D03*
G01*
X2700240Y520470D03*
G01*
X2479759Y520470D03*
G01*
X2479759Y579529D03*
G01*
X3460240Y579529D03*
G01*
X3460240Y520470D03*
G01*
X3239759Y520470D03*
G01*
X3239759Y579529D03*
G01*
X4230240Y574529D03*
G01*
X4230240Y515470D03*
G01*
X4009759Y515470D03*
G01*
X4009759Y574529D03*
G01*
X4995240Y584529D03*
G01*
X4995240Y525470D03*
G01*
X4774759Y525470D03*
G01*
X4774759Y584529D03*
G01*
X5760240Y584529D03*
G01*
X5760240Y525470D03*
G01*
X5539759Y525470D03*
G01*
X5539759Y584529D03*
G01*
X6520240Y574529D03*
G01*
X6520240Y515470D03*
G01*
X6299759Y515470D03*
G01*
X6299759Y574529D03*
G01*
X7290240Y584529D03*
G01*
X7290240Y525470D03*
G01*
X7069759Y525470D03*
G01*
X7069759Y584529D03*
G01*
X8055240Y584529D03*
G01*
X8055240Y525470D03*
G01*
X7834759Y525470D03*
G01*
X7834759Y584529D03*
G01*
X8815240Y579529D03*
G01*
X8815240Y520470D03*
G01*
X8594759Y520470D03*
G01*
X8594759Y579529D03*
G01*
X9580240Y584529D03*
G01*
X9580240Y525470D03*
G01*
X9359759Y525470D03*
G01*
X9359759Y584529D03*
G01*
X10335240Y594529D03*
G01*
X10335240Y535470D03*
G01*
X10114759Y535470D03*
G01*
X10114759Y594529D03*
G01*
X11330240Y589529D03*
G01*
X11330240Y530470D03*
G01*
X11109759Y530470D03*
G01*
X11109759Y589529D03*
G01*
X12325240Y579529D03*
G01*
X12325240Y520470D03*
G01*
X12104759Y520470D03*
G01*
X12104759Y579529D03*
G01*
X12330240Y1344529D03*
G01*
X12330240Y1285470D03*
G01*
X12109759Y1285470D03*
G01*
X12109759Y1344529D03*
G01*
X11140240Y1359529D03*
G01*
X11140240Y1300470D03*
G01*
X10919759Y1300470D03*
G01*
X10919759Y1359529D03*
G01*
X9970240Y1354529D03*
G01*
X9970240Y1295470D03*
G01*
X9749759Y1295470D03*
G01*
X9749759Y1354529D03*
G01*
X9190240Y1359529D03*
G01*
X9190240Y1300470D03*
G01*
X8969759Y1300470D03*
G01*
X8969759Y1359529D03*
G01*
X8430240Y1349529D03*
G01*
X8430240Y1290470D03*
G01*
X8209759Y1290470D03*
G01*
X8209759Y1349529D03*
G01*
X7670240Y1354529D03*
G01*
X7670240Y1295470D03*
G01*
X7449759Y1295470D03*
G01*
X7449759Y1354529D03*
G01*
X6905240Y1354529D03*
G01*
X6905240Y1295470D03*
G01*
X6684759Y1295470D03*
G01*
X6684759Y1354529D03*
G01*
X6135240Y1354529D03*
G01*
X6135240Y1295470D03*
G01*
X5914759Y1295470D03*
G01*
X5914759Y1354529D03*
G01*
X5375240Y1359529D03*
G01*
X5375240Y1300470D03*
G01*
X5154759Y1300470D03*
G01*
X5154759Y1359529D03*
G01*
X4615240Y1349529D03*
G01*
X4615240Y1290470D03*
G01*
X4394759Y1290470D03*
G01*
X4394759Y1349529D03*
G01*
X3840240Y1344529D03*
G01*
X3840240Y1285470D03*
G01*
X3619759Y1285470D03*
G01*
X3619759Y1344529D03*
G01*
X3085240Y1344529D03*
G01*
X3085240Y1285470D03*
G01*
X2864759Y1285470D03*
G01*
X2864759Y1344529D03*
G01*
X2310240Y1344529D03*
G01*
X2310240Y1285470D03*
G01*
X2089759Y1285470D03*
G01*
X2089759Y1344529D03*
G01*
X1550240Y1349529D03*
G01*
X1550240Y1290470D03*
G01*
X1329759Y1290470D03*
G01*
X1329759Y1349529D03*
G01*
X785240Y1359529D03*
G01*
X785240Y1300470D03*
G01*
X564760Y1300470D03*
G01*
X564760Y1359529D03*
D11*
G01*
X9365236Y65000D03*
G01*
X9894764Y165000D03*
G01*
X7450236Y-710000D03*
G01*
X7979764Y-610000D03*
G01*
X8215236Y-710000D03*
G01*
X8744764Y-610000D03*
G01*
X8975236Y-705000D03*
G01*
X9504764Y-605000D03*
G01*
X8605236Y65000D03*
G01*
X9134764Y165000D03*
G01*
X1720235Y65000D03*
G01*
X2249764Y165000D03*
G01*
X5155236Y-710000D03*
G01*
X5684764Y-610000D03*
G01*
X3625236Y-710000D03*
G01*
X4154764Y-610000D03*
G01*
X670235Y75000D03*
G01*
X1199764Y175000D03*
G01*
X3250236Y65000D03*
G01*
X3779764Y165000D03*
G01*
X11925236Y840000D03*
G01*
X12454764Y940000D03*
G01*
X11115236Y-1535000D03*
G01*
X11644764Y-1435000D03*
G01*
X11179764Y170000D03*
G01*
X10650236Y70000D03*
G01*
X4015236Y65000D03*
G01*
X4544764Y165000D03*
G01*
X8740236Y-1535000D03*
G01*
X9269764Y-1435000D03*
G01*
X4780236Y65000D03*
G01*
X5309764Y165000D03*
G01*
X5545236Y65000D03*
G01*
X6074764Y165000D03*
G01*
X6310236Y65000D03*
G01*
X6839764Y165000D03*
G01*
X7075236Y65000D03*
G01*
X7604764Y165000D03*
G01*
X7840236Y65000D03*
G01*
X8369764Y165000D03*
G01*
X2395236Y-1525000D03*
G01*
X2924764Y-1425000D03*
G01*
X10295236Y-1535000D03*
G01*
X10824764Y-1435000D03*
G01*
X485235Y-1525000D03*
G01*
X1014764Y-1425000D03*
G01*
X860235Y-705000D03*
G01*
X1389764Y-605000D03*
G01*
X6685236Y-710000D03*
G01*
X7214764Y-610000D03*
G01*
X5920236Y-710000D03*
G01*
X6449764Y-610000D03*
G01*
X11925236Y-715000D03*
G01*
X12454764Y-615000D03*
G01*
X11925236Y65000D03*
G01*
X12454764Y165000D03*
G01*
X7975236Y-1535000D03*
G01*
X8504764Y-1435000D03*
G01*
X11920236Y-1535000D03*
G01*
X12449764Y-1435000D03*
G01*
X9505236Y-1535000D03*
G01*
X10034764Y-1435000D03*
G01*
X10085236Y-705000D03*
G01*
X10614764Y-605000D03*
G01*
X2485236Y65000D03*
G01*
X3014764Y165000D03*
G01*
X5225236Y-1525000D03*
G01*
X5754764Y-1425000D03*
G01*
X11160236Y-715000D03*
G01*
X11689764Y-615000D03*
G01*
X4390236Y-710000D03*
G01*
X4919764Y-610000D03*
G01*
X1440235Y-1525000D03*
G01*
X1969764Y-1425000D03*
G01*
X2860236Y-710000D03*
G01*
X3389764Y-610000D03*
G01*
X2095235Y-710000D03*
G01*
X2624764Y-610000D03*
G01*
X10930236Y845000D03*
G01*
X11459764Y945000D03*
G01*
X9940236Y840000D03*
G01*
X10469764Y940000D03*
G01*
X8030236Y1610000D03*
G01*
X8559764Y1710000D03*
G01*
X1150235Y1610000D03*
G01*
X1679764Y1710000D03*
G01*
X1915235Y1610000D03*
G01*
X2444764Y1710000D03*
G01*
X2680236Y1610000D03*
G01*
X3209764Y1710000D03*
G01*
X3445236Y1610000D03*
G01*
X3974764Y1710000D03*
G01*
X4210236Y1610000D03*
G01*
X4739764Y1710000D03*
G01*
X4975236Y1610000D03*
G01*
X5504764Y1710000D03*
G01*
X5740236Y1610000D03*
G01*
X6269764Y1710000D03*
G01*
X6505236Y1610000D03*
G01*
X7034764Y1710000D03*
G01*
X7270236Y1610000D03*
G01*
X7799764Y1710000D03*
G01*
X11925236Y1615000D03*
G01*
X12454764Y1715000D03*
G01*
X9570236Y1605000D03*
G01*
X10099764Y1705000D03*
G01*
X8790236Y1610000D03*
G01*
X9319764Y1710000D03*
G01*
X10740236Y1615000D03*
G01*
X11269764Y1715000D03*
G01*
X3065236Y840000D03*
G01*
X3594764Y940000D03*
G01*
X385235Y1610000D03*
G01*
X914764Y1710000D03*
G01*
X6890236Y840000D03*
G01*
X7419764Y940000D03*
G01*
X7655236Y840000D03*
G01*
X8184764Y940000D03*
G01*
X8420236Y840000D03*
G01*
X8949764Y940000D03*
G01*
X1535235Y840000D03*
G01*
X2064764Y940000D03*
G01*
X3830236Y840000D03*
G01*
X4359764Y940000D03*
G01*
X4595236Y840000D03*
G01*
X5124764Y940000D03*
G01*
X580235Y845000D03*
G01*
X1109764Y945000D03*
G01*
X6125236Y840000D03*
G01*
X6654764Y940000D03*
G01*
X2300236Y840000D03*
G01*
X2829764Y940000D03*
G01*
X5360236Y840000D03*
G01*
X5889764Y940000D03*
G01*
X9180236Y840000D03*
G01*
X9709764Y940000D03*
M02*
