G04 Layer: TopSolderMaskLayer*
G04 EasyEDA v6.5.48, 2025-03-21 03:43:35*
G04 8df40c406dd64a40a88ac0f89ec13ad7,969951738f564c6b9e5867b4eeab67b3,10*
G04 Gerber Generator version 0.2*
G04 Scale: 100 percent, Rotated: No, Reflected: No *
G04 Dimensions in inches *
G04 leading zeros omitted , absolute positions ,3 integer and 6 decimal *
%FSLAX36Y36*%
%MOIN*%

%AMMACRO1*4,1,8,-0.0323,-0.0181,-0.0335,-0.017,-0.0335,0.017,-0.0323,0.0181,0.0323,0.0181,0.0335,0.017,0.0335,-0.017,0.0323,-0.0181,-0.0323,-0.0181,0*%
%AMMACRO2*4,1,8,-0.0323,-0.0335,-0.0335,-0.0323,-0.0335,0.0323,-0.0323,0.0335,0.0323,0.0335,0.0335,0.0323,0.0335,-0.0323,0.0323,-0.0335,-0.0323,-0.0335,0*%
%ADD10C,0.1080*%
%ADD11C,0.0980*%
%ADD12MACRO1*%
%ADD13C,0.0749*%
%ADD14C,0.1540*%
%ADD15C,0.0900*%
%ADD16C,0.1310*%
%ADD17C,0.0670*%
%ADD18O,0.094551X0.16147999999999998*%
%ADD19MACRO2*%
%ADD20O,0.063055X0.678999*%
%ADD21O,0.0154X0.678999*%

%LPD*%
D10*
G01*
X2055000Y1612300D03*
G01*
X2305000Y1712300D03*
G01*
X1290000Y1612300D03*
G01*
X1540000Y1712300D03*
G01*
X525000Y1612300D03*
G01*
X775000Y1712300D03*
G01*
X12315000Y167300D03*
G01*
X12065000Y67300D03*
G01*
X10685000Y-1432699D03*
G01*
X10435000Y-1532699D03*
G01*
X12315000Y1717300D03*
G01*
X12065000Y1617300D03*
G01*
X12315000Y942300D03*
G01*
X12065000Y842300D03*
G01*
X12315000Y-612699D03*
G01*
X12065000Y-712699D03*
G01*
X12310000Y-1432699D03*
G01*
X12060000Y-1532699D03*
G01*
X11550000Y-612699D03*
G01*
X11300000Y-712699D03*
G01*
X11505000Y-1432699D03*
G01*
X11255000Y-1532699D03*
G01*
X9895000Y-1432699D03*
G01*
X9645000Y-1532699D03*
G01*
X9130000Y-1432699D03*
G01*
X8880000Y-1532699D03*
G01*
X8365000Y-1432699D03*
G01*
X8115000Y-1532699D03*
G01*
X9370000Y-607699D03*
G01*
X9120000Y-707699D03*
G01*
X8605000Y-607699D03*
G01*
X8355000Y-707699D03*
G01*
X7840000Y-607699D03*
G01*
X7590000Y-707699D03*
G01*
X7075000Y-607699D03*
G01*
X6825000Y-707699D03*
G01*
X9755000Y167300D03*
G01*
X9505000Y67300D03*
G01*
X8995000Y167300D03*
G01*
X8745000Y67300D03*
G01*
X8230000Y167300D03*
G01*
X7980000Y67300D03*
G01*
X7465000Y167300D03*
G01*
X7215000Y67300D03*
G01*
X6700000Y167300D03*
G01*
X6450000Y67300D03*
G01*
X10330000Y942300D03*
G01*
X10080000Y842300D03*
G01*
X9570000Y942300D03*
G01*
X9320000Y842300D03*
G01*
X8810000Y942300D03*
G01*
X8560000Y842300D03*
G01*
X8045000Y942300D03*
G01*
X7795000Y842300D03*
G01*
X7280000Y942300D03*
G01*
X7030000Y842300D03*
G01*
X6515000Y942300D03*
G01*
X6265000Y842300D03*
G01*
X6310000Y-607699D03*
G01*
X6060000Y-707699D03*
G01*
X5935000Y167300D03*
G01*
X5685000Y67300D03*
G01*
X5750000Y942300D03*
G01*
X5500000Y842300D03*
G01*
X4985000Y942300D03*
G01*
X4735000Y842300D03*
G01*
X5170000Y167300D03*
G01*
X4920000Y67300D03*
G01*
X5545000Y-607699D03*
G01*
X5295000Y-707699D03*
G01*
X4780000Y-607699D03*
G01*
X4530000Y-707699D03*
G01*
X4015000Y-607699D03*
G01*
X3765000Y-707699D03*
G01*
X3640000Y167300D03*
G01*
X3390000Y67300D03*
G01*
X4405000Y167300D03*
G01*
X4155000Y67300D03*
G01*
X4220000Y942300D03*
G01*
X3970000Y842300D03*
G01*
X3455000Y942300D03*
G01*
X3205000Y842300D03*
G01*
X3250000Y-607699D03*
G01*
X3000000Y-707699D03*
G01*
X2875000Y167300D03*
G01*
X2625000Y67300D03*
G01*
X2690000Y942300D03*
G01*
X2440000Y842300D03*
G01*
X2485000Y-607699D03*
G01*
X2235000Y-707699D03*
G01*
X2110000Y167300D03*
G01*
X1860000Y67300D03*
G01*
X1925000Y942300D03*
G01*
X1675000Y842300D03*
G01*
X6895000Y1712300D03*
G01*
X6645000Y1612300D03*
G01*
X9960000Y1707300D03*
G01*
X9710000Y1607300D03*
G01*
X9180000Y1712300D03*
G01*
X8930000Y1612300D03*
G01*
X8420000Y1712300D03*
G01*
X8170000Y1612300D03*
G01*
X7660000Y1712300D03*
G01*
X7410000Y1612300D03*
G01*
X6130000Y1712300D03*
G01*
X5880000Y1612300D03*
G01*
X5365000Y1712300D03*
G01*
X5115000Y1612300D03*
G01*
X4600000Y1712300D03*
G01*
X4350000Y1612300D03*
G01*
X3835000Y1712300D03*
G01*
X3585000Y1612300D03*
G01*
X3070000Y1712300D03*
G01*
X2820000Y1612300D03*
D11*
G01*
X720000Y845000D03*
G01*
X970000Y945000D03*
D12*
G01*
X10869764Y-2100471D03*
G01*
X10869764Y-2159528D03*
G01*
X11090236Y-2159528D03*
G01*
X11090236Y-2100471D03*
G01*
X11474764Y-2110471D03*
G01*
X11474764Y-2169528D03*
G01*
X11695236Y-2169528D03*
G01*
X11695236Y-2110471D03*
G01*
X1614764Y-2055471D03*
G01*
X1614764Y-2114528D03*
G01*
X1835235Y-2114528D03*
G01*
X1835235Y-2055471D03*
G01*
X2539764Y-2060471D03*
G01*
X2539764Y-2119528D03*
G01*
X2760236Y-2119528D03*
G01*
X2760236Y-2060471D03*
G01*
X3404764Y-2080471D03*
G01*
X3404764Y-2139528D03*
G01*
X3625236Y-2139528D03*
G01*
X3625236Y-2080471D03*
G01*
X4524764Y-2050471D03*
G01*
X4524764Y-2109528D03*
G01*
X4745236Y-2109528D03*
G01*
X4745236Y-2050471D03*
G01*
X5404764Y-2060471D03*
G01*
X5404764Y-2119528D03*
G01*
X5625236Y-2119528D03*
G01*
X5625236Y-2060471D03*
G01*
X6219764Y-2085471D03*
G01*
X6219764Y-2144528D03*
G01*
X6440236Y-2144528D03*
G01*
X6440236Y-2085471D03*
G01*
X7029764Y-2090471D03*
G01*
X7029764Y-2149528D03*
G01*
X7250236Y-2149528D03*
G01*
X7250236Y-2090471D03*
G01*
X7869764Y-2095471D03*
G01*
X7869764Y-2154528D03*
G01*
X8090236Y-2154528D03*
G01*
X8090236Y-2095471D03*
G01*
X8734764Y-2105471D03*
G01*
X8734764Y-2164528D03*
G01*
X8955236Y-2164528D03*
G01*
X8955236Y-2105471D03*
G01*
X9524764Y-2105471D03*
G01*
X9524764Y-2164528D03*
G01*
X9745236Y-2164528D03*
G01*
X9745236Y-2105471D03*
G01*
X10239764Y-2110471D03*
G01*
X10239764Y-2169528D03*
G01*
X10460236Y-2169528D03*
G01*
X10460236Y-2110471D03*
G01*
X12099764Y-2110471D03*
G01*
X12099764Y-2169528D03*
G01*
X12320236Y-2169528D03*
G01*
X12320236Y-2110471D03*
G01*
X664764Y-2070471D03*
G01*
X664764Y-2129528D03*
G01*
X885235Y-2129528D03*
G01*
X885235Y-2070471D03*
D13*
G01*
X8747479Y-475000D03*
G01*
X8432520Y-475000D03*
G01*
X7902479Y-475000D03*
G01*
X7587520Y-475000D03*
G01*
X9502479Y-465000D03*
G01*
X9187520Y-465000D03*
G01*
X5592479Y-475000D03*
G01*
X5277520Y-475000D03*
G01*
X4092479Y-480000D03*
G01*
X3777520Y-480000D03*
G01*
X11567479Y-1300000D03*
G01*
X11252520Y-1300000D03*
G01*
X11107479Y320000D03*
G01*
X10792520Y320000D03*
G01*
X9187479Y-1295000D03*
G01*
X8872520Y-1295000D03*
G01*
X2872479Y-1290000D03*
G01*
X2557520Y-1290000D03*
G01*
X10732479Y-1310000D03*
G01*
X10417520Y-1310000D03*
G01*
X927479Y-1290000D03*
G01*
X612519Y-1290000D03*
G01*
X1317479Y-465000D03*
G01*
X1002520Y-465000D03*
G01*
X7137479Y-475000D03*
G01*
X6822520Y-475000D03*
G01*
X6367479Y-475000D03*
G01*
X6052520Y-475000D03*
G01*
X12372479Y-480000D03*
G01*
X12057520Y-480000D03*
G01*
X8442479Y-1285000D03*
G01*
X8127520Y-1285000D03*
G01*
X12372479Y-1290000D03*
G01*
X12057520Y-1290000D03*
G01*
X9957479Y-1300000D03*
G01*
X9642520Y-1300000D03*
G01*
X10317479Y-475000D03*
G01*
X10002520Y-475000D03*
G01*
X5672479Y-1280000D03*
G01*
X5357520Y-1280000D03*
G01*
X11217479Y-515000D03*
G01*
X10902520Y-515000D03*
G01*
X4827479Y-475000D03*
G01*
X4512520Y-475000D03*
G01*
X1897479Y-1290000D03*
G01*
X1582520Y-1290000D03*
G01*
X3307479Y-480000D03*
G01*
X2992520Y-480000D03*
G01*
X2547479Y-475000D03*
G01*
X2232520Y-475000D03*
G01*
X11382479Y1080000D03*
G01*
X11067520Y1080000D03*
G01*
X8467479Y1870000D03*
G01*
X8152520Y1870000D03*
G01*
X3907479Y1860000D03*
G01*
X3592520Y1860000D03*
G01*
X4672479Y1870000D03*
G01*
X4357520Y1870000D03*
G01*
X5442479Y1855000D03*
G01*
X5127520Y1855000D03*
G01*
X6182479Y1840000D03*
G01*
X5867520Y1840000D03*
G01*
X6947479Y1860000D03*
G01*
X6632520Y1860000D03*
G01*
X7727479Y1860000D03*
G01*
X7412520Y1860000D03*
G01*
X12347479Y1865000D03*
G01*
X12032520Y1865000D03*
G01*
X9792479Y295000D03*
G01*
X9477520Y295000D03*
G01*
X10017479Y1855000D03*
G01*
X9702520Y1855000D03*
G01*
X9272479Y1855000D03*
G01*
X8957520Y1855000D03*
G01*
X9052479Y305000D03*
G01*
X8737520Y305000D03*
G01*
X2172479Y305000D03*
G01*
X1857520Y305000D03*
G01*
X11202479Y1870000D03*
G01*
X10887520Y1870000D03*
G01*
X1117479Y320000D03*
G01*
X802520Y320000D03*
G01*
X3712479Y305000D03*
G01*
X3397520Y305000D03*
G01*
X12367479Y1075000D03*
G01*
X12052520Y1075000D03*
G01*
X3507479Y1075000D03*
G01*
X3192520Y1075000D03*
G01*
X812479Y1870000D03*
G01*
X497519Y1870000D03*
G01*
X4447479Y305000D03*
G01*
X4132520Y305000D03*
G01*
X5232479Y305000D03*
G01*
X4917520Y305000D03*
G01*
X5992479Y300000D03*
G01*
X5677520Y300000D03*
G01*
X7332479Y1090000D03*
G01*
X7017520Y1090000D03*
G01*
X6757479Y300000D03*
G01*
X6442520Y300000D03*
G01*
X7527479Y300000D03*
G01*
X7212520Y300000D03*
G01*
X8287479Y300000D03*
G01*
X7972520Y300000D03*
G01*
X8087479Y1080000D03*
G01*
X7772520Y1080000D03*
G01*
X12397479Y310000D03*
G01*
X12082520Y310000D03*
G01*
X8867479Y1085000D03*
G01*
X8552520Y1085000D03*
G01*
X1972479Y1075000D03*
G01*
X1657520Y1075000D03*
G01*
X4277479Y1070000D03*
G01*
X3962520Y1070000D03*
G01*
X2932479Y305000D03*
G01*
X2617520Y305000D03*
G01*
X907479Y1075000D03*
G01*
X592519Y1075000D03*
G01*
X5037479Y1070000D03*
G01*
X4722520Y1070000D03*
G01*
X6557479Y1075000D03*
G01*
X6242520Y1075000D03*
G01*
X2737479Y1075000D03*
G01*
X2422520Y1075000D03*
G01*
X5777479Y1070000D03*
G01*
X5462520Y1070000D03*
G01*
X9622479Y1080000D03*
G01*
X9307520Y1080000D03*
G01*
X10392479Y1075000D03*
G01*
X10077520Y1075000D03*
G01*
X1622479Y1850000D03*
G01*
X1307520Y1850000D03*
G01*
X2347479Y1855000D03*
G01*
X2032520Y1855000D03*
G01*
X3137479Y1860000D03*
G01*
X2822520Y1860000D03*
D14*
G01*
X390000Y3200000D03*
G01*
X12530000Y3200000D03*
G01*
X390000Y-2160000D03*
G01*
X12530000Y-2160000D03*
D15*
G01*
X625000Y-1525000D03*
G01*
X875000Y-1425000D03*
G01*
X1580000Y-1525000D03*
G01*
X1830000Y-1425000D03*
G01*
X2535000Y-1525000D03*
G01*
X2785000Y-1425000D03*
D11*
G01*
X1000000Y-705000D03*
G01*
X1250000Y-605000D03*
D16*
G01*
X811499Y70000D03*
G01*
X1061499Y170000D03*
G01*
X10880000Y1615000D03*
G01*
X11130000Y1715000D03*
D11*
G01*
X10790000Y70000D03*
G01*
X11040000Y170000D03*
G01*
X11070000Y845000D03*
G01*
X11320000Y945000D03*
D17*
G01*
X10105000Y2510000D03*
G01*
X10105000Y2610000D03*
G01*
X10105000Y2710000D03*
G01*
X10105000Y2810000D03*
D13*
G01*
X12044989Y2259560D03*
G01*
X12144989Y2259560D03*
G01*
X12244989Y2259560D03*
G01*
X12044989Y2830430D03*
G01*
X12244989Y2830430D03*
D18*
G01*
X12361530Y2554839D03*
G01*
X11928459Y2554839D03*
D15*
G01*
X5365000Y-1525000D03*
G01*
X5615000Y-1425000D03*
G01*
X10225000Y-705000D03*
G01*
X10475000Y-605000D03*
D17*
G01*
X2231059Y2283389D03*
G01*
X2131059Y2283389D03*
D19*
G01*
X2031064Y2283386D03*
D17*
G01*
X1931059Y2283389D03*
G01*
X1831059Y2283389D03*
G01*
X1731059Y2283389D03*
G01*
X1631059Y2283389D03*
D19*
G01*
X1531065Y2283386D03*
D17*
G01*
X1431069Y2283389D03*
G01*
X1331069Y2283389D03*
G01*
X331069Y2283389D03*
G01*
X431069Y2283389D03*
D19*
G01*
X531066Y2283386D03*
D17*
G01*
X631069Y2283389D03*
G01*
X731069Y2283389D03*
G01*
X831069Y2283389D03*
G01*
X931069Y2283389D03*
D19*
G01*
X1031065Y2283386D03*
D17*
G01*
X1131069Y2283389D03*
G01*
X1231069Y2283389D03*
G01*
X1231069Y2983380D03*
G01*
X1131069Y2983380D03*
D19*
G01*
X1031065Y2983384D03*
D17*
G01*
X931069Y2983380D03*
G01*
X831069Y2983380D03*
G01*
X731069Y2983380D03*
G01*
X631069Y2983380D03*
D19*
G01*
X531066Y2983384D03*
D17*
G01*
X431069Y2983380D03*
G01*
X331069Y2983380D03*
G01*
X1331069Y2983380D03*
G01*
X1431069Y2983380D03*
D19*
G01*
X1531065Y2983384D03*
D17*
G01*
X1631059Y2983380D03*
G01*
X1731059Y2983380D03*
G01*
X1831059Y2983380D03*
G01*
X1931059Y2983380D03*
D19*
G01*
X2031064Y2983384D03*
D17*
G01*
X2131059Y2983380D03*
G01*
X2231059Y2983380D03*
D20*
G01*
X12730000Y2725000D03*
M02*
