G04 Layer: BottomSilkscreenLayer*
G04 EasyEDA v6.5.48, 2025-03-21 03:43:35*
G04 8df40c406dd64a40a88ac0f89ec13ad7,969951738f564c6b9e5867b4eeab67b3,10*
G04 Gerber Generator version 0.2*
G04 Scale: 100 percent, Rotated: No, Reflected: No *
G04 Dimensions in inches *
G04 leading zeros omitted , absolute positions ,3 integer and 6 decimal *
%FSLAX36Y36*%
%MOIN*%

%ADD10C,0.0060*%
%ADD11C,0.0100*%

%LPD*%
D10*
X1155240Y-855070D02*
G01*
X1155240Y-897970D01*
X1117240Y-855070D02*
G01*
X1137640Y-855070D01*
X1139740Y-873470D01*
X1137640Y-871370D01*
X1131540Y-869369D01*
X1125439Y-869369D01*
X1119239Y-871370D01*
X1115140Y-875470D01*
X1113140Y-881669D01*
X1113140Y-885670D01*
X1115140Y-891869D01*
X1119239Y-895970D01*
X1125439Y-897970D01*
X1131540Y-897970D01*
X1137640Y-895970D01*
X1139740Y-893870D01*
X1141739Y-889769D01*
X1089440Y-855070D02*
G01*
X1095540Y-857069D01*
X1097640Y-861170D01*
X1097640Y-865270D01*
X1095540Y-869369D01*
X1091440Y-871370D01*
X1083239Y-873470D01*
X1077139Y-875470D01*
X1073040Y-879569D01*
X1071040Y-883670D01*
X1071040Y-889769D01*
X1073040Y-893870D01*
X1075140Y-895970D01*
X1081239Y-897970D01*
X1089440Y-897970D01*
X1095540Y-895970D01*
X1097640Y-893870D01*
X1099639Y-889769D01*
X1099639Y-883670D01*
X1097640Y-879569D01*
X1093540Y-875470D01*
X1087340Y-873470D01*
X1079139Y-871370D01*
X1075140Y-869369D01*
X1073040Y-865270D01*
X1073040Y-861170D01*
X1075140Y-857069D01*
X1081239Y-855070D01*
X1089440Y-855070D01*
X2390240Y-855070D02*
G01*
X2390240Y-897970D01*
X2352240Y-855070D02*
G01*
X2372640Y-855070D01*
X2374740Y-873470D01*
X2372640Y-871370D01*
X2366540Y-869369D01*
X2360439Y-869369D01*
X2354240Y-871370D01*
X2350140Y-875470D01*
X2348140Y-881669D01*
X2348140Y-885670D01*
X2350140Y-891869D01*
X2354240Y-895970D01*
X2360439Y-897970D01*
X2366540Y-897970D01*
X2372640Y-895970D01*
X2374740Y-893870D01*
X2376740Y-889769D01*
X2306040Y-855070D02*
G01*
X2326440Y-897970D01*
X2334639Y-855070D02*
G01*
X2306040Y-855070D01*
X12220240Y-70070D02*
G01*
X12220240Y-112970D01*
X12186340Y-70070D02*
G01*
X12206740Y-98670D01*
X12176139Y-98670D01*
X12186340Y-70070D02*
G01*
X12186340Y-112970D01*
X12142140Y-70070D02*
G01*
X12162640Y-98670D01*
X12131940Y-98670D01*
X12142140Y-70070D02*
G01*
X12142140Y-112970D01*
X2020240Y-75070D02*
G01*
X2020240Y-117970D01*
X2002640Y-75070D02*
G01*
X1980140Y-75070D01*
X1992439Y-91370D01*
X1986340Y-91370D01*
X1982240Y-93470D01*
X1980140Y-95470D01*
X1978140Y-101669D01*
X1978140Y-105670D01*
X1980140Y-111869D01*
X1984239Y-115970D01*
X1990439Y-117970D01*
X1996540Y-117970D01*
X2002640Y-115970D01*
X2004740Y-113870D01*
X2006739Y-109769D01*
X1962640Y-85270D02*
G01*
X1962640Y-83170D01*
X1960540Y-79169D01*
X1958540Y-77069D01*
X1954440Y-75070D01*
X1946239Y-75070D01*
X1942139Y-77069D01*
X1940140Y-79169D01*
X1938040Y-83170D01*
X1938040Y-87269D01*
X1940140Y-91370D01*
X1944139Y-97570D01*
X1964639Y-117970D01*
X1936040Y-117970D01*
X965240Y-70070D02*
G01*
X965240Y-112970D01*
X947640Y-70070D02*
G01*
X925140Y-70070D01*
X937439Y-86370D01*
X931340Y-86370D01*
X927240Y-88470D01*
X925140Y-90470D01*
X923140Y-96669D01*
X923140Y-100670D01*
X925140Y-106869D01*
X929239Y-110970D01*
X935439Y-112970D01*
X941540Y-112970D01*
X947640Y-110970D01*
X949740Y-108870D01*
X951739Y-104769D01*
X909639Y-78170D02*
G01*
X905540Y-76170D01*
X899440Y-70070D01*
X899440Y-112970D01*
X12215240Y-1675070D02*
G01*
X12215240Y-1717970D01*
X12177240Y-1681170D02*
G01*
X12179240Y-1677069D01*
X12185339Y-1675070D01*
X12189440Y-1675070D01*
X12195640Y-1677069D01*
X12199740Y-1683270D01*
X12201740Y-1693470D01*
X12201740Y-1703670D01*
X12199740Y-1711869D01*
X12195640Y-1715970D01*
X12189440Y-1717970D01*
X12187439Y-1717970D01*
X12181239Y-1715970D01*
X12177240Y-1711869D01*
X12175140Y-1705770D01*
X12175140Y-1703670D01*
X12177240Y-1697570D01*
X12181239Y-1693470D01*
X12187439Y-1691469D01*
X12189440Y-1691469D01*
X12195640Y-1693470D01*
X12199740Y-1697570D01*
X12201740Y-1703670D01*
X12151440Y-1675070D02*
G01*
X12157539Y-1677069D01*
X12159640Y-1681170D01*
X12159640Y-1685270D01*
X12157539Y-1689369D01*
X12153440Y-1691469D01*
X12145240Y-1693470D01*
X12139139Y-1695470D01*
X12135039Y-1699569D01*
X12133040Y-1703670D01*
X12133040Y-1709870D01*
X12135039Y-1713969D01*
X12137140Y-1715970D01*
X12143239Y-1717970D01*
X12151440Y-1717970D01*
X12157539Y-1715970D01*
X12159640Y-1713969D01*
X12161639Y-1709870D01*
X12161639Y-1703670D01*
X12159640Y-1699569D01*
X12155540Y-1695470D01*
X12149340Y-1693470D01*
X12141239Y-1691469D01*
X12137140Y-1689369D01*
X12135039Y-1685270D01*
X12135039Y-1681170D01*
X12137140Y-1677069D01*
X12143239Y-1675070D01*
X12151440Y-1675070D01*
X11415240Y-1675070D02*
G01*
X11415240Y-1717970D01*
X11377240Y-1681170D02*
G01*
X11379240Y-1677069D01*
X11385339Y-1675070D01*
X11389440Y-1675070D01*
X11395640Y-1677069D01*
X11399740Y-1683270D01*
X11401740Y-1693470D01*
X11401740Y-1703670D01*
X11399740Y-1711869D01*
X11395640Y-1715970D01*
X11389440Y-1717970D01*
X11387439Y-1717970D01*
X11381239Y-1715970D01*
X11377240Y-1711869D01*
X11375140Y-1705770D01*
X11375140Y-1703670D01*
X11377240Y-1697570D01*
X11381239Y-1693470D01*
X11387439Y-1691469D01*
X11389440Y-1691469D01*
X11395640Y-1693470D01*
X11399740Y-1697570D01*
X11401740Y-1703670D01*
X11333040Y-1675070D02*
G01*
X11353440Y-1717970D01*
X11361639Y-1675070D02*
G01*
X11333040Y-1675070D01*
X10590240Y-1675070D02*
G01*
X10590240Y-1717970D01*
X10552240Y-1681170D02*
G01*
X10554240Y-1677069D01*
X10560339Y-1675070D01*
X10564440Y-1675070D01*
X10570640Y-1677069D01*
X10574740Y-1683270D01*
X10576740Y-1693470D01*
X10576740Y-1703670D01*
X10574740Y-1711869D01*
X10570640Y-1715970D01*
X10564440Y-1717970D01*
X10562439Y-1717970D01*
X10556239Y-1715970D01*
X10552240Y-1711869D01*
X10550140Y-1705770D01*
X10550140Y-1703670D01*
X10552240Y-1697570D01*
X10556239Y-1693470D01*
X10562439Y-1691469D01*
X10564440Y-1691469D01*
X10570640Y-1693470D01*
X10574740Y-1697570D01*
X10576740Y-1703670D01*
X10512140Y-1681170D02*
G01*
X10514139Y-1677069D01*
X10520240Y-1675070D01*
X10524340Y-1675070D01*
X10530540Y-1677069D01*
X10534640Y-1683270D01*
X10536639Y-1693470D01*
X10536639Y-1703670D01*
X10534640Y-1711869D01*
X10530540Y-1715970D01*
X10524340Y-1717970D01*
X10522340Y-1717970D01*
X10516239Y-1715970D01*
X10512140Y-1711869D01*
X10510039Y-1705770D01*
X10510039Y-1703670D01*
X10512140Y-1697570D01*
X10516239Y-1693470D01*
X10522340Y-1691469D01*
X10524340Y-1691469D01*
X10530540Y-1693470D01*
X10534640Y-1697570D01*
X10536639Y-1703670D01*
X9800240Y-1670070D02*
G01*
X9800240Y-1712970D01*
X9762240Y-1676170D02*
G01*
X9764240Y-1672069D01*
X9770339Y-1670070D01*
X9774440Y-1670070D01*
X9780640Y-1672069D01*
X9784740Y-1678270D01*
X9786740Y-1688470D01*
X9786740Y-1698670D01*
X9784740Y-1706869D01*
X9780640Y-1710970D01*
X9774440Y-1712970D01*
X9772439Y-1712970D01*
X9766239Y-1710970D01*
X9762240Y-1706869D01*
X9760140Y-1700770D01*
X9760140Y-1698670D01*
X9762240Y-1692570D01*
X9766239Y-1688470D01*
X9772439Y-1686469D01*
X9774440Y-1686469D01*
X9780640Y-1688470D01*
X9784740Y-1692570D01*
X9786740Y-1698670D01*
X9722140Y-1670070D02*
G01*
X9742539Y-1670070D01*
X9744640Y-1688470D01*
X9742539Y-1686469D01*
X9736440Y-1684369D01*
X9730240Y-1684369D01*
X9724139Y-1686469D01*
X9720039Y-1690470D01*
X9718040Y-1696669D01*
X9718040Y-1700770D01*
X9720039Y-1706869D01*
X9724139Y-1710970D01*
X9730240Y-1712970D01*
X9736440Y-1712970D01*
X9742539Y-1710970D01*
X9744640Y-1708969D01*
X9746639Y-1704870D01*
X9035240Y-1675070D02*
G01*
X9035240Y-1717970D01*
X8997240Y-1681170D02*
G01*
X8999240Y-1677069D01*
X9005339Y-1675070D01*
X9009440Y-1675070D01*
X9015640Y-1677069D01*
X9019740Y-1683270D01*
X9021740Y-1693470D01*
X9021740Y-1703670D01*
X9019740Y-1711869D01*
X9015640Y-1715970D01*
X9009440Y-1717970D01*
X9007439Y-1717970D01*
X9001239Y-1715970D01*
X8997240Y-1711869D01*
X8995140Y-1705770D01*
X8995140Y-1703670D01*
X8997240Y-1697570D01*
X9001239Y-1693470D01*
X9007439Y-1691469D01*
X9009440Y-1691469D01*
X9015640Y-1693470D01*
X9019740Y-1697570D01*
X9021740Y-1703670D01*
X8961239Y-1675070D02*
G01*
X8981639Y-1703670D01*
X8950940Y-1703670D01*
X8961239Y-1675070D02*
G01*
X8961239Y-1717970D01*
X8270240Y-1670070D02*
G01*
X8270240Y-1712970D01*
X8232240Y-1676170D02*
G01*
X8234240Y-1672069D01*
X8240339Y-1670070D01*
X8244440Y-1670070D01*
X8250640Y-1672069D01*
X8254740Y-1678270D01*
X8256740Y-1688470D01*
X8256740Y-1698670D01*
X8254740Y-1706869D01*
X8250640Y-1710970D01*
X8244440Y-1712970D01*
X8242439Y-1712970D01*
X8236239Y-1710970D01*
X8232240Y-1706869D01*
X8230140Y-1700770D01*
X8230140Y-1698670D01*
X8232240Y-1692570D01*
X8236239Y-1688470D01*
X8242439Y-1686469D01*
X8244440Y-1686469D01*
X8250640Y-1688470D01*
X8254740Y-1692570D01*
X8256740Y-1698670D01*
X8212539Y-1670070D02*
G01*
X8190039Y-1670070D01*
X8202340Y-1686469D01*
X8196239Y-1686469D01*
X8192139Y-1688470D01*
X8190039Y-1690470D01*
X8188040Y-1696669D01*
X8188040Y-1700770D01*
X8190039Y-1706869D01*
X8194139Y-1710970D01*
X8200240Y-1712970D01*
X8206440Y-1712970D01*
X8212539Y-1710970D01*
X8214639Y-1708969D01*
X8216639Y-1704870D01*
X5520240Y-1675070D02*
G01*
X5520240Y-1717970D01*
X5482240Y-1681170D02*
G01*
X5484240Y-1677069D01*
X5490339Y-1675070D01*
X5494440Y-1675070D01*
X5500640Y-1677069D01*
X5504740Y-1683270D01*
X5506740Y-1693470D01*
X5506740Y-1703670D01*
X5504740Y-1711869D01*
X5500640Y-1715970D01*
X5494440Y-1717970D01*
X5492439Y-1717970D01*
X5486239Y-1715970D01*
X5482240Y-1711869D01*
X5480140Y-1705770D01*
X5480140Y-1703670D01*
X5482240Y-1697570D01*
X5486239Y-1693470D01*
X5492439Y-1691469D01*
X5494440Y-1691469D01*
X5500640Y-1693470D01*
X5504740Y-1697570D01*
X5506740Y-1703670D01*
X5464639Y-1685270D02*
G01*
X5464639Y-1683270D01*
X5462539Y-1679169D01*
X5460540Y-1677069D01*
X5456440Y-1675070D01*
X5448239Y-1675070D01*
X5444139Y-1677069D01*
X5442139Y-1679169D01*
X5440039Y-1683270D01*
X5440039Y-1687370D01*
X5442139Y-1691469D01*
X5446239Y-1697570D01*
X5466639Y-1717970D01*
X5438040Y-1717970D01*
X2690240Y-1685070D02*
G01*
X2690240Y-1727970D01*
X2652240Y-1691170D02*
G01*
X2654240Y-1687069D01*
X2660339Y-1685070D01*
X2664440Y-1685070D01*
X2670640Y-1687069D01*
X2674740Y-1693270D01*
X2676740Y-1703470D01*
X2676740Y-1713670D01*
X2674740Y-1721869D01*
X2670640Y-1725970D01*
X2664440Y-1727970D01*
X2662439Y-1727970D01*
X2656239Y-1725970D01*
X2652240Y-1721869D01*
X2650140Y-1715770D01*
X2650140Y-1713670D01*
X2652240Y-1707570D01*
X2656239Y-1703470D01*
X2662439Y-1701469D01*
X2664440Y-1701469D01*
X2670640Y-1703470D01*
X2674740Y-1707570D01*
X2676740Y-1713670D01*
X2636639Y-1693270D02*
G01*
X2632539Y-1691170D01*
X2626440Y-1685070D01*
X2626440Y-1727970D01*
X1735240Y-1680070D02*
G01*
X1735240Y-1722970D01*
X1697240Y-1686170D02*
G01*
X1699239Y-1682069D01*
X1705339Y-1680070D01*
X1709440Y-1680070D01*
X1715640Y-1682069D01*
X1719740Y-1688270D01*
X1721739Y-1698470D01*
X1721739Y-1708670D01*
X1719740Y-1716869D01*
X1715640Y-1720970D01*
X1709440Y-1722970D01*
X1707439Y-1722970D01*
X1701239Y-1720970D01*
X1697240Y-1716869D01*
X1695140Y-1710770D01*
X1695140Y-1708670D01*
X1697240Y-1702570D01*
X1701239Y-1698470D01*
X1707439Y-1696469D01*
X1709440Y-1696469D01*
X1715640Y-1698470D01*
X1719740Y-1702570D01*
X1721739Y-1708670D01*
X1669340Y-1680070D02*
G01*
X1675540Y-1682069D01*
X1679639Y-1688270D01*
X1681639Y-1698470D01*
X1681639Y-1704569D01*
X1679639Y-1714870D01*
X1675540Y-1720970D01*
X1669340Y-1722970D01*
X1665240Y-1722970D01*
X1659139Y-1720970D01*
X1655039Y-1714870D01*
X1653040Y-1704569D01*
X1653040Y-1698470D01*
X1655039Y-1688270D01*
X1659139Y-1682069D01*
X1665240Y-1680070D01*
X1669340Y-1680070D01*
X775240Y-1685070D02*
G01*
X775240Y-1727970D01*
X737240Y-1685070D02*
G01*
X757640Y-1685070D01*
X759740Y-1703470D01*
X757640Y-1701469D01*
X751540Y-1699369D01*
X745340Y-1699369D01*
X739239Y-1701469D01*
X735140Y-1705470D01*
X733139Y-1711669D01*
X733139Y-1715770D01*
X735140Y-1721869D01*
X739239Y-1725970D01*
X745340Y-1727970D01*
X751540Y-1727970D01*
X757640Y-1725970D01*
X759740Y-1723969D01*
X761739Y-1719870D01*
X693040Y-1699369D02*
G01*
X695039Y-1705470D01*
X699140Y-1709569D01*
X705239Y-1711669D01*
X707339Y-1711669D01*
X713440Y-1709569D01*
X717539Y-1705470D01*
X719639Y-1699369D01*
X719639Y-1697370D01*
X717539Y-1691170D01*
X713440Y-1687069D01*
X707339Y-1685070D01*
X705239Y-1685070D01*
X699140Y-1687069D01*
X695039Y-1691170D01*
X693040Y-1699369D01*
X693040Y-1709569D01*
X695039Y-1719870D01*
X699140Y-1725970D01*
X705239Y-1727970D01*
X709340Y-1727970D01*
X715540Y-1725970D01*
X717539Y-1721869D01*
X3155240Y-855070D02*
G01*
X3155240Y-897970D01*
X3117240Y-855070D02*
G01*
X3137640Y-855070D01*
X3139740Y-873470D01*
X3137640Y-871469D01*
X3131540Y-869369D01*
X3125339Y-869369D01*
X3119240Y-871469D01*
X3115140Y-875470D01*
X3113140Y-881669D01*
X3113140Y-885770D01*
X3115140Y-891869D01*
X3119240Y-895970D01*
X3125339Y-897970D01*
X3131540Y-897970D01*
X3137640Y-895970D01*
X3139740Y-893969D01*
X3141740Y-889870D01*
X3075039Y-861170D02*
G01*
X3077139Y-857069D01*
X3083239Y-855070D01*
X3087340Y-855070D01*
X3093440Y-857069D01*
X3097539Y-863270D01*
X3099639Y-873470D01*
X3099639Y-883670D01*
X3097539Y-891869D01*
X3093440Y-895970D01*
X3087340Y-897970D01*
X3085240Y-897970D01*
X3079139Y-895970D01*
X3075039Y-891869D01*
X3073040Y-885770D01*
X3073040Y-883670D01*
X3075039Y-877570D01*
X3079139Y-873470D01*
X3085240Y-871469D01*
X3087340Y-871469D01*
X3093440Y-873470D01*
X3097539Y-877570D01*
X3099639Y-883670D01*
X3920240Y-855070D02*
G01*
X3920240Y-897970D01*
X3882240Y-855070D02*
G01*
X3902640Y-855070D01*
X3904740Y-873470D01*
X3902640Y-871469D01*
X3896540Y-869369D01*
X3890339Y-869369D01*
X3884240Y-871469D01*
X3880140Y-875470D01*
X3878140Y-881669D01*
X3878140Y-885770D01*
X3880140Y-891869D01*
X3884240Y-895970D01*
X3890339Y-897970D01*
X3896540Y-897970D01*
X3902640Y-895970D01*
X3904740Y-893969D01*
X3906740Y-889870D01*
X3840039Y-855070D02*
G01*
X3860540Y-855070D01*
X3862539Y-873470D01*
X3860540Y-871469D01*
X3854340Y-869369D01*
X3848239Y-869369D01*
X3842139Y-871469D01*
X3838040Y-875470D01*
X3835940Y-881669D01*
X3835940Y-885770D01*
X3838040Y-891869D01*
X3842139Y-895970D01*
X3848239Y-897970D01*
X3854340Y-897970D01*
X3860540Y-895970D01*
X3862539Y-893969D01*
X3864639Y-889870D01*
X4690240Y-850070D02*
G01*
X4690240Y-892970D01*
X4652240Y-850070D02*
G01*
X4672640Y-850070D01*
X4674740Y-868470D01*
X4672640Y-866469D01*
X4666540Y-864369D01*
X4660339Y-864369D01*
X4654240Y-866469D01*
X4650140Y-870470D01*
X4648140Y-876669D01*
X4648140Y-880770D01*
X4650140Y-886869D01*
X4654240Y-890970D01*
X4660339Y-892970D01*
X4666540Y-892970D01*
X4672640Y-890970D01*
X4674740Y-888969D01*
X4676740Y-884870D01*
X4614139Y-850070D02*
G01*
X4634639Y-878670D01*
X4603940Y-878670D01*
X4614139Y-850070D02*
G01*
X4614139Y-892970D01*
X5455240Y-855070D02*
G01*
X5455240Y-897970D01*
X5417240Y-855070D02*
G01*
X5437640Y-855070D01*
X5439740Y-873470D01*
X5437640Y-871469D01*
X5431540Y-869369D01*
X5425339Y-869369D01*
X5419240Y-871469D01*
X5415140Y-875470D01*
X5413140Y-881669D01*
X5413140Y-885770D01*
X5415140Y-891869D01*
X5419240Y-895970D01*
X5425339Y-897970D01*
X5431540Y-897970D01*
X5437640Y-895970D01*
X5439740Y-893969D01*
X5441740Y-889870D01*
X5395540Y-855070D02*
G01*
X5373040Y-855070D01*
X5385240Y-871469D01*
X5379139Y-871469D01*
X5375039Y-873470D01*
X5373040Y-875470D01*
X5370940Y-881669D01*
X5370940Y-885770D01*
X5373040Y-891869D01*
X5377139Y-895970D01*
X5383239Y-897970D01*
X5389340Y-897970D01*
X5395540Y-895970D01*
X5397539Y-893969D01*
X5399639Y-889870D01*
X6215240Y-855070D02*
G01*
X6215240Y-897970D01*
X6177240Y-855070D02*
G01*
X6197640Y-855070D01*
X6199740Y-873470D01*
X6197640Y-871469D01*
X6191540Y-869369D01*
X6185339Y-869369D01*
X6179240Y-871469D01*
X6175140Y-875470D01*
X6173140Y-881669D01*
X6173140Y-885770D01*
X6175140Y-891869D01*
X6179240Y-895970D01*
X6185339Y-897970D01*
X6191540Y-897970D01*
X6197640Y-895970D01*
X6199740Y-893969D01*
X6201740Y-889870D01*
X6157539Y-865270D02*
G01*
X6157539Y-863270D01*
X6155540Y-859169D01*
X6153440Y-857069D01*
X6149340Y-855070D01*
X6141239Y-855070D01*
X6137139Y-857069D01*
X6135039Y-859169D01*
X6133040Y-863270D01*
X6133040Y-867370D01*
X6135039Y-871469D01*
X6139139Y-877570D01*
X6159639Y-897970D01*
X6130940Y-897970D01*
X6980240Y-850070D02*
G01*
X6980240Y-892970D01*
X6942240Y-850070D02*
G01*
X6962640Y-850070D01*
X6964740Y-868470D01*
X6962640Y-866469D01*
X6956540Y-864369D01*
X6950339Y-864369D01*
X6944240Y-866469D01*
X6940140Y-870470D01*
X6938140Y-876669D01*
X6938140Y-880770D01*
X6940140Y-886869D01*
X6944240Y-890970D01*
X6950339Y-892970D01*
X6956540Y-892970D01*
X6962640Y-890970D01*
X6964740Y-888969D01*
X6966740Y-884870D01*
X6924639Y-858270D02*
G01*
X6920540Y-856170D01*
X6914340Y-850070D01*
X6914340Y-892970D01*
X7745240Y-850070D02*
G01*
X7745240Y-892970D01*
X7707240Y-850070D02*
G01*
X7727640Y-850070D01*
X7729740Y-868470D01*
X7727640Y-866469D01*
X7721540Y-864369D01*
X7715339Y-864369D01*
X7709240Y-866469D01*
X7705140Y-870470D01*
X7703140Y-876669D01*
X7703140Y-880770D01*
X7705140Y-886869D01*
X7709240Y-890970D01*
X7715339Y-892970D01*
X7721540Y-892970D01*
X7727640Y-890970D01*
X7729740Y-888969D01*
X7731740Y-884870D01*
X7677340Y-850070D02*
G01*
X7683440Y-852069D01*
X7687539Y-858270D01*
X7689639Y-868470D01*
X7689639Y-874569D01*
X7687539Y-884870D01*
X7683440Y-890970D01*
X7677340Y-892970D01*
X7673239Y-892970D01*
X7667139Y-890970D01*
X7663040Y-884870D01*
X7660940Y-874569D01*
X7660940Y-868470D01*
X7663040Y-858270D01*
X7667139Y-852069D01*
X7673239Y-850070D01*
X7677340Y-850070D01*
X8505240Y-845070D02*
G01*
X8505240Y-887970D01*
X8471239Y-845070D02*
G01*
X8491740Y-873670D01*
X8461040Y-873670D01*
X8471239Y-845070D02*
G01*
X8471239Y-887970D01*
X8420940Y-859369D02*
G01*
X8423040Y-865470D01*
X8427140Y-869569D01*
X8433239Y-871669D01*
X8435240Y-871669D01*
X8441440Y-869569D01*
X8445540Y-865470D01*
X8447539Y-859369D01*
X8447539Y-857370D01*
X8445540Y-851170D01*
X8441440Y-847069D01*
X8435240Y-845070D01*
X8433239Y-845070D01*
X8427140Y-847069D01*
X8423040Y-851170D01*
X8420940Y-859369D01*
X8420940Y-869569D01*
X8423040Y-879870D01*
X8427140Y-885970D01*
X8433239Y-887970D01*
X8437340Y-887970D01*
X8443440Y-885970D01*
X8445540Y-881869D01*
X9280240Y-845070D02*
G01*
X9280240Y-887970D01*
X9246239Y-845070D02*
G01*
X9266740Y-873670D01*
X9236040Y-873670D01*
X9246239Y-845070D02*
G01*
X9246239Y-887970D01*
X9212340Y-845070D02*
G01*
X9218440Y-847069D01*
X9220540Y-851170D01*
X9220540Y-855270D01*
X9218440Y-859369D01*
X9214340Y-861469D01*
X9206239Y-863470D01*
X9200039Y-865470D01*
X9195940Y-869569D01*
X9193940Y-873670D01*
X9193940Y-879870D01*
X9195940Y-883969D01*
X9198040Y-885970D01*
X9204139Y-887970D01*
X9212340Y-887970D01*
X9218440Y-885970D01*
X9220540Y-883969D01*
X9222539Y-879870D01*
X9222539Y-873670D01*
X9220540Y-869569D01*
X9216440Y-865470D01*
X9210240Y-863470D01*
X9202140Y-861469D01*
X9198040Y-859369D01*
X9195940Y-855270D01*
X9195940Y-851170D01*
X9198040Y-847069D01*
X9204139Y-845070D01*
X9212340Y-845070D01*
X10385240Y-865070D02*
G01*
X10385240Y-907970D01*
X10351239Y-865070D02*
G01*
X10371740Y-893670D01*
X10341040Y-893670D01*
X10351239Y-865070D02*
G01*
X10351239Y-907970D01*
X10298940Y-865070D02*
G01*
X10319340Y-907970D01*
X10327539Y-865070D02*
G01*
X10298940Y-865070D01*
X11455240Y-860070D02*
G01*
X11455240Y-902970D01*
X11421239Y-860070D02*
G01*
X11441740Y-888670D01*
X11411040Y-888670D01*
X11421239Y-860070D02*
G01*
X11421239Y-902970D01*
X11373040Y-866170D02*
G01*
X11375039Y-862069D01*
X11381239Y-860070D01*
X11385240Y-860070D01*
X11391440Y-862069D01*
X11395540Y-868270D01*
X11397539Y-878470D01*
X11397539Y-888670D01*
X11395540Y-896869D01*
X11391440Y-900970D01*
X11385240Y-902970D01*
X11383239Y-902970D01*
X11377140Y-900970D01*
X11373040Y-896869D01*
X11370940Y-890770D01*
X11370940Y-888670D01*
X11373040Y-882570D01*
X11377140Y-878470D01*
X11383239Y-876469D01*
X11385240Y-876469D01*
X11391440Y-878470D01*
X11395540Y-882570D01*
X11397539Y-888670D01*
X10955240Y-85070D02*
G01*
X10955240Y-127970D01*
X10921239Y-85070D02*
G01*
X10941740Y-113670D01*
X10911040Y-113670D01*
X10921239Y-85070D02*
G01*
X10921239Y-127970D01*
X10893440Y-85070D02*
G01*
X10870940Y-85070D01*
X10883239Y-101469D01*
X10877140Y-101469D01*
X10873040Y-103470D01*
X10870940Y-105470D01*
X10868940Y-111669D01*
X10868940Y-115770D01*
X10870940Y-121869D01*
X10875039Y-125970D01*
X10881239Y-127970D01*
X10887340Y-127970D01*
X10893440Y-125970D01*
X10895540Y-123969D01*
X10897539Y-119870D01*
X9665240Y-80070D02*
G01*
X9665240Y-122970D01*
X9631239Y-80070D02*
G01*
X9651740Y-108670D01*
X9621040Y-108670D01*
X9631239Y-80070D02*
G01*
X9631239Y-122970D01*
X9605540Y-90270D02*
G01*
X9605540Y-88270D01*
X9603440Y-84169D01*
X9601440Y-82069D01*
X9597340Y-80070D01*
X9589139Y-80070D01*
X9585039Y-82069D01*
X9583040Y-84169D01*
X9580940Y-88270D01*
X9580940Y-92370D01*
X9583040Y-96469D01*
X9587140Y-102570D01*
X9607539Y-122970D01*
X9578940Y-122970D01*
X8900240Y-75070D02*
G01*
X8900240Y-117970D01*
X8866239Y-75070D02*
G01*
X8886740Y-103670D01*
X8856040Y-103670D01*
X8866239Y-75070D02*
G01*
X8866239Y-117970D01*
X8842539Y-83270D02*
G01*
X8838440Y-81170D01*
X8832340Y-75070D01*
X8832340Y-117970D01*
X8135240Y-70070D02*
G01*
X8135240Y-112970D01*
X8101239Y-70070D02*
G01*
X8121740Y-98670D01*
X8091040Y-98670D01*
X8101239Y-70070D02*
G01*
X8101239Y-112970D01*
X8065240Y-70070D02*
G01*
X8071440Y-72069D01*
X8075540Y-78270D01*
X8077539Y-88470D01*
X8077539Y-94569D01*
X8075540Y-104870D01*
X8071440Y-110970D01*
X8065240Y-112970D01*
X8061239Y-112970D01*
X8055039Y-110970D01*
X8050940Y-104870D01*
X8048940Y-94569D01*
X8048940Y-88470D01*
X8050940Y-78270D01*
X8055039Y-72069D01*
X8061239Y-70070D01*
X8065240Y-70070D01*
X7375240Y-70070D02*
G01*
X7375240Y-112970D01*
X7357640Y-70070D02*
G01*
X7335140Y-70070D01*
X7347439Y-86469D01*
X7341239Y-86469D01*
X7337240Y-88470D01*
X7335140Y-90470D01*
X7333140Y-96669D01*
X7333140Y-100770D01*
X7335140Y-106869D01*
X7339240Y-110970D01*
X7345339Y-112970D01*
X7351540Y-112970D01*
X7357640Y-110970D01*
X7359740Y-108969D01*
X7361740Y-104870D01*
X7293040Y-84369D02*
G01*
X7295039Y-90470D01*
X7299139Y-94569D01*
X7305240Y-96669D01*
X7307340Y-96669D01*
X7313440Y-94569D01*
X7317539Y-90470D01*
X7319639Y-84369D01*
X7319639Y-82370D01*
X7317539Y-76170D01*
X7313440Y-72069D01*
X7307340Y-70070D01*
X7305240Y-70070D01*
X7299139Y-72069D01*
X7295039Y-76170D01*
X7293040Y-84369D01*
X7293040Y-94569D01*
X7295039Y-104870D01*
X7299139Y-110970D01*
X7305240Y-112970D01*
X7309340Y-112970D01*
X7315540Y-110970D01*
X7317539Y-106869D01*
X6605240Y-75070D02*
G01*
X6605240Y-117970D01*
X6587640Y-75070D02*
G01*
X6565140Y-75070D01*
X6577439Y-91469D01*
X6571239Y-91469D01*
X6567240Y-93470D01*
X6565140Y-95470D01*
X6563140Y-101669D01*
X6563140Y-105770D01*
X6565140Y-111869D01*
X6569240Y-115970D01*
X6575339Y-117970D01*
X6581540Y-117970D01*
X6587640Y-115970D01*
X6589740Y-113969D01*
X6591740Y-109870D01*
X6539340Y-75070D02*
G01*
X6545540Y-77069D01*
X6547539Y-81170D01*
X6547539Y-85270D01*
X6545540Y-89369D01*
X6541440Y-91469D01*
X6533239Y-93470D01*
X6527139Y-95470D01*
X6523040Y-99569D01*
X6520940Y-103670D01*
X6520940Y-109870D01*
X6523040Y-113969D01*
X6525039Y-115970D01*
X6531239Y-117970D01*
X6539340Y-117970D01*
X6545540Y-115970D01*
X6547539Y-113969D01*
X6549639Y-109870D01*
X6549639Y-103670D01*
X6547539Y-99569D01*
X6543440Y-95470D01*
X6537340Y-93470D01*
X6529139Y-91469D01*
X6525039Y-89369D01*
X6523040Y-85270D01*
X6523040Y-81170D01*
X6525039Y-77069D01*
X6531239Y-75070D01*
X6539340Y-75070D01*
X5840240Y-75070D02*
G01*
X5840240Y-117970D01*
X5822640Y-75070D02*
G01*
X5800140Y-75070D01*
X5812439Y-91469D01*
X5806239Y-91469D01*
X5802240Y-93470D01*
X5800140Y-95470D01*
X5798140Y-101669D01*
X5798140Y-105770D01*
X5800140Y-111869D01*
X5804240Y-115970D01*
X5810339Y-117970D01*
X5816540Y-117970D01*
X5822640Y-115970D01*
X5824740Y-113969D01*
X5826740Y-109870D01*
X5755940Y-75070D02*
G01*
X5776440Y-117970D01*
X5784639Y-75070D02*
G01*
X5755940Y-75070D01*
X5075240Y-75070D02*
G01*
X5075240Y-117970D01*
X5057640Y-75070D02*
G01*
X5035140Y-75070D01*
X5047439Y-91469D01*
X5041239Y-91469D01*
X5037240Y-93470D01*
X5035140Y-95470D01*
X5033140Y-101669D01*
X5033140Y-105770D01*
X5035140Y-111869D01*
X5039240Y-115970D01*
X5045339Y-117970D01*
X5051540Y-117970D01*
X5057640Y-115970D01*
X5059740Y-113969D01*
X5061740Y-109870D01*
X4995039Y-81170D02*
G01*
X4997139Y-77069D01*
X5003239Y-75070D01*
X5007340Y-75070D01*
X5013440Y-77069D01*
X5017539Y-83270D01*
X5019639Y-93470D01*
X5019639Y-103670D01*
X5017539Y-111869D01*
X5013440Y-115970D01*
X5007340Y-117970D01*
X5005240Y-117970D01*
X4999139Y-115970D01*
X4995039Y-111869D01*
X4993040Y-105770D01*
X4993040Y-103670D01*
X4995039Y-97570D01*
X4999139Y-93470D01*
X5005240Y-91469D01*
X5007340Y-91469D01*
X5013440Y-93470D01*
X5017539Y-97570D01*
X5019639Y-103670D01*
X4310240Y-75070D02*
G01*
X4310240Y-117970D01*
X4292640Y-75070D02*
G01*
X4270140Y-75070D01*
X4282439Y-91469D01*
X4276239Y-91469D01*
X4272240Y-93470D01*
X4270140Y-95470D01*
X4268140Y-101669D01*
X4268140Y-105770D01*
X4270140Y-111869D01*
X4274240Y-115970D01*
X4280339Y-117970D01*
X4286540Y-117970D01*
X4292640Y-115970D01*
X4294740Y-113969D01*
X4296740Y-109870D01*
X4230039Y-75070D02*
G01*
X4250540Y-75070D01*
X4252539Y-93470D01*
X4250540Y-91469D01*
X4244340Y-89369D01*
X4238239Y-89369D01*
X4232139Y-91469D01*
X4228040Y-95470D01*
X4225940Y-101669D01*
X4225940Y-105770D01*
X4228040Y-111869D01*
X4232139Y-115970D01*
X4238239Y-117970D01*
X4244340Y-117970D01*
X4250540Y-115970D01*
X4252539Y-113969D01*
X4254639Y-109870D01*
X3555240Y-75070D02*
G01*
X3555240Y-117970D01*
X3537640Y-75070D02*
G01*
X3515140Y-75070D01*
X3527439Y-91469D01*
X3521239Y-91469D01*
X3517240Y-93470D01*
X3515140Y-95470D01*
X3513140Y-101669D01*
X3513140Y-105770D01*
X3515140Y-111869D01*
X3519240Y-115970D01*
X3525339Y-117970D01*
X3531540Y-117970D01*
X3537640Y-115970D01*
X3539740Y-113969D01*
X3541740Y-109870D01*
X3479139Y-75070D02*
G01*
X3499639Y-103670D01*
X3468940Y-103670D01*
X3479139Y-75070D02*
G01*
X3479139Y-117970D01*
X2780240Y-75070D02*
G01*
X2780240Y-117970D01*
X2762640Y-75070D02*
G01*
X2740140Y-75070D01*
X2752439Y-91469D01*
X2746239Y-91469D01*
X2742240Y-93470D01*
X2740140Y-95470D01*
X2738140Y-101669D01*
X2738140Y-105770D01*
X2740140Y-111869D01*
X2744240Y-115970D01*
X2750339Y-117970D01*
X2756540Y-117970D01*
X2762640Y-115970D01*
X2764740Y-113969D01*
X2766740Y-109870D01*
X2720540Y-75070D02*
G01*
X2698040Y-75070D01*
X2710240Y-91469D01*
X2704139Y-91469D01*
X2700039Y-93470D01*
X2698040Y-95470D01*
X2695940Y-101669D01*
X2695940Y-105770D01*
X2698040Y-111869D01*
X2702139Y-115970D01*
X2708239Y-117970D01*
X2714340Y-117970D01*
X2720540Y-115970D01*
X2722539Y-113969D01*
X2724639Y-109870D01*
X875240Y704929D02*
G01*
X875240Y662029D01*
X857640Y704929D02*
G01*
X835140Y704929D01*
X847439Y688530D01*
X841239Y688530D01*
X837240Y686529D01*
X835140Y684529D01*
X833140Y678330D01*
X833140Y674229D01*
X835140Y668130D01*
X839239Y664029D01*
X845339Y662029D01*
X851540Y662029D01*
X857640Y664029D01*
X859740Y666030D01*
X861739Y670129D01*
X807340Y704929D02*
G01*
X813440Y702930D01*
X817539Y696729D01*
X819639Y686529D01*
X819639Y680430D01*
X817539Y670129D01*
X813440Y664029D01*
X807340Y662029D01*
X803239Y662029D01*
X797139Y664029D01*
X793040Y670129D01*
X790940Y680430D01*
X790940Y686529D01*
X793040Y696729D01*
X797139Y702930D01*
X803239Y704929D01*
X807340Y704929D01*
X12225240Y-855070D02*
G01*
X12225240Y-897970D01*
X12191340Y-855070D02*
G01*
X12211740Y-883670D01*
X12181139Y-883670D01*
X12191340Y-855070D02*
G01*
X12191340Y-897970D01*
X12143040Y-855070D02*
G01*
X12163540Y-855070D01*
X12165540Y-873470D01*
X12163540Y-871370D01*
X12157340Y-869369D01*
X12151239Y-869369D01*
X12145140Y-871370D01*
X12141040Y-875470D01*
X12138940Y-881669D01*
X12138940Y-885670D01*
X12141040Y-891869D01*
X12145140Y-895970D01*
X12151239Y-897970D01*
X12157340Y-897970D01*
X12163540Y-895970D01*
X12165540Y-893870D01*
X12167640Y-889769D01*
X1825240Y689929D02*
G01*
X1825240Y647029D01*
X1809740Y679729D02*
G01*
X1809740Y681729D01*
X1807640Y685830D01*
X1805640Y687930D01*
X1801540Y689929D01*
X1793339Y689929D01*
X1789239Y687930D01*
X1787240Y685830D01*
X1785140Y681729D01*
X1785140Y677629D01*
X1787240Y673530D01*
X1791239Y667429D01*
X1811739Y647029D01*
X1783140Y647029D01*
X1743040Y675630D02*
G01*
X1745039Y669529D01*
X1749139Y665430D01*
X1755240Y663330D01*
X1757340Y663330D01*
X1763440Y665430D01*
X1767539Y669529D01*
X1769639Y675630D01*
X1769639Y677629D01*
X1767539Y683829D01*
X1763440Y687930D01*
X1757340Y689929D01*
X1755240Y689929D01*
X1749139Y687930D01*
X1745039Y683829D01*
X1743040Y675630D01*
X1743040Y665430D01*
X1745039Y655129D01*
X1749139Y649029D01*
X1755240Y647029D01*
X1759340Y647029D01*
X1765540Y649029D01*
X1767539Y653130D01*
X2595240Y689929D02*
G01*
X2595240Y647029D01*
X2579740Y679729D02*
G01*
X2579740Y681729D01*
X2577640Y685830D01*
X2575640Y687930D01*
X2571540Y689929D01*
X2563339Y689929D01*
X2559240Y687930D01*
X2557240Y685830D01*
X2555140Y681729D01*
X2555140Y677629D01*
X2557240Y673530D01*
X2561239Y667429D01*
X2581740Y647029D01*
X2553140Y647029D01*
X2529340Y689929D02*
G01*
X2535540Y687930D01*
X2537539Y683829D01*
X2537539Y679729D01*
X2535540Y675630D01*
X2531440Y673530D01*
X2523239Y671529D01*
X2517139Y669529D01*
X2513040Y665430D01*
X2510940Y661329D01*
X2510940Y655129D01*
X2513040Y651030D01*
X2515039Y649029D01*
X2521239Y647029D01*
X2529340Y647029D01*
X2535540Y649029D01*
X2537539Y651030D01*
X2539639Y655129D01*
X2539639Y661329D01*
X2537539Y665430D01*
X2533440Y669529D01*
X2527340Y671529D01*
X2519139Y673530D01*
X2515039Y675630D01*
X2513040Y679729D01*
X2513040Y683829D01*
X2515039Y687930D01*
X2521239Y689929D01*
X2529340Y689929D01*
X3355240Y689929D02*
G01*
X3355240Y647029D01*
X3339740Y679729D02*
G01*
X3339740Y681729D01*
X3337640Y685830D01*
X3335640Y687930D01*
X3331540Y689929D01*
X3323339Y689929D01*
X3319240Y687930D01*
X3317240Y685830D01*
X3315140Y681729D01*
X3315140Y677629D01*
X3317240Y673530D01*
X3321239Y667429D01*
X3341740Y647029D01*
X3313140Y647029D01*
X3270940Y689929D02*
G01*
X3291440Y647029D01*
X3299639Y689929D02*
G01*
X3270940Y689929D01*
X4125240Y684929D02*
G01*
X4125240Y642029D01*
X4109740Y674729D02*
G01*
X4109740Y676729D01*
X4107640Y680830D01*
X4105640Y682930D01*
X4101540Y684929D01*
X4093339Y684929D01*
X4089240Y682930D01*
X4087240Y680830D01*
X4085140Y676729D01*
X4085140Y672629D01*
X4087240Y668530D01*
X4091239Y662429D01*
X4111740Y642029D01*
X4083140Y642029D01*
X4045039Y678829D02*
G01*
X4047139Y682930D01*
X4053239Y684929D01*
X4057340Y684929D01*
X4063440Y682930D01*
X4067539Y676729D01*
X4069639Y666529D01*
X4069639Y656329D01*
X4067539Y648130D01*
X4063440Y644029D01*
X4057340Y642029D01*
X4055240Y642029D01*
X4049139Y644029D01*
X4045039Y648130D01*
X4043040Y654229D01*
X4043040Y656329D01*
X4045039Y662429D01*
X4049139Y666529D01*
X4055240Y668530D01*
X4057340Y668530D01*
X4063440Y666529D01*
X4067539Y662429D01*
X4069639Y656329D01*
X4890240Y694929D02*
G01*
X4890240Y652029D01*
X4874740Y684729D02*
G01*
X4874740Y686729D01*
X4872640Y690830D01*
X4870640Y692930D01*
X4866540Y694929D01*
X4858339Y694929D01*
X4854240Y692930D01*
X4852240Y690830D01*
X4850140Y686729D01*
X4850140Y682629D01*
X4852240Y678530D01*
X4856239Y672429D01*
X4876740Y652029D01*
X4848140Y652029D01*
X4810039Y694929D02*
G01*
X4830540Y694929D01*
X4832539Y676529D01*
X4830540Y678530D01*
X4824340Y680630D01*
X4818239Y680630D01*
X4812139Y678530D01*
X4808040Y674529D01*
X4805940Y668330D01*
X4805940Y664229D01*
X4808040Y658130D01*
X4812139Y654029D01*
X4818239Y652029D01*
X4824340Y652029D01*
X4830540Y654029D01*
X4832539Y656030D01*
X4834639Y660129D01*
X5655240Y694929D02*
G01*
X5655240Y652029D01*
X5639740Y684729D02*
G01*
X5639740Y686729D01*
X5637640Y690830D01*
X5635640Y692930D01*
X5631540Y694929D01*
X5623339Y694929D01*
X5619240Y692930D01*
X5617240Y690830D01*
X5615140Y686729D01*
X5615140Y682629D01*
X5617240Y678530D01*
X5621239Y672429D01*
X5641740Y652029D01*
X5613140Y652029D01*
X5579139Y694929D02*
G01*
X5599639Y666329D01*
X5568940Y666329D01*
X5579139Y694929D02*
G01*
X5579139Y652029D01*
X6415240Y684929D02*
G01*
X6415240Y642029D01*
X6399740Y674729D02*
G01*
X6399740Y676729D01*
X6397640Y680830D01*
X6395640Y682930D01*
X6391540Y684929D01*
X6383339Y684929D01*
X6379240Y682930D01*
X6377240Y680830D01*
X6375140Y676729D01*
X6375140Y672629D01*
X6377240Y668530D01*
X6381239Y662429D01*
X6401740Y642029D01*
X6373140Y642029D01*
X6355540Y684929D02*
G01*
X6333040Y684929D01*
X6345240Y668530D01*
X6339139Y668530D01*
X6335039Y666529D01*
X6333040Y664529D01*
X6330940Y658330D01*
X6330940Y654229D01*
X6333040Y648130D01*
X6337139Y644029D01*
X6343239Y642029D01*
X6349340Y642029D01*
X6355540Y644029D01*
X6357539Y646030D01*
X6359639Y650129D01*
X7185240Y694929D02*
G01*
X7185240Y652029D01*
X7169740Y684729D02*
G01*
X7169740Y686729D01*
X7167640Y690830D01*
X7165640Y692930D01*
X7161540Y694929D01*
X7153339Y694929D01*
X7149240Y692930D01*
X7147240Y690830D01*
X7145140Y686729D01*
X7145140Y682629D01*
X7147240Y678530D01*
X7151239Y672429D01*
X7171740Y652029D01*
X7143140Y652029D01*
X7127539Y684729D02*
G01*
X7127539Y686729D01*
X7125540Y690830D01*
X7123440Y692930D01*
X7119340Y694929D01*
X7111239Y694929D01*
X7107139Y692930D01*
X7105039Y690830D01*
X7103040Y686729D01*
X7103040Y682629D01*
X7105039Y678530D01*
X7109139Y672429D01*
X7129639Y652029D01*
X7100940Y652029D01*
X7950240Y694929D02*
G01*
X7950240Y652029D01*
X7934740Y684729D02*
G01*
X7934740Y686729D01*
X7932640Y690830D01*
X7930640Y692930D01*
X7926540Y694929D01*
X7918339Y694929D01*
X7914240Y692930D01*
X7912240Y690830D01*
X7910140Y686729D01*
X7910140Y682629D01*
X7912240Y678530D01*
X7916239Y672429D01*
X7936740Y652029D01*
X7908140Y652029D01*
X7894639Y686729D02*
G01*
X7890540Y688829D01*
X7884340Y694929D01*
X7884340Y652029D01*
X8710240Y689929D02*
G01*
X8710240Y647029D01*
X8694740Y679729D02*
G01*
X8694740Y681729D01*
X8692640Y685830D01*
X8690640Y687930D01*
X8686540Y689929D01*
X8678339Y689929D01*
X8674240Y687930D01*
X8672240Y685830D01*
X8670140Y681729D01*
X8670140Y677629D01*
X8672240Y673530D01*
X8676239Y667429D01*
X8696740Y647029D01*
X8668140Y647029D01*
X8642340Y689929D02*
G01*
X8648440Y687930D01*
X8652539Y681729D01*
X8654640Y671529D01*
X8654640Y665430D01*
X8652539Y655129D01*
X8648440Y649029D01*
X8642340Y647029D01*
X8638239Y647029D01*
X8632140Y649029D01*
X8628040Y655129D01*
X8625940Y665430D01*
X8625940Y671529D01*
X8628040Y681729D01*
X8632140Y687930D01*
X8638239Y689929D01*
X8642340Y689929D01*
X9475240Y694929D02*
G01*
X9475240Y652029D01*
X9461740Y686729D02*
G01*
X9457640Y688829D01*
X9451540Y694929D01*
X9451540Y652029D01*
X9411440Y680630D02*
G01*
X9413440Y674529D01*
X9417539Y670430D01*
X9423739Y668330D01*
X9425739Y668330D01*
X9431840Y670430D01*
X9435940Y674529D01*
X9438040Y680630D01*
X9438040Y682629D01*
X9435940Y688829D01*
X9431840Y692930D01*
X9425739Y694929D01*
X9423739Y694929D01*
X9417539Y692930D01*
X9413440Y688829D01*
X9411440Y680630D01*
X9411440Y670430D01*
X9413440Y660129D01*
X9417539Y654029D01*
X9423739Y652029D01*
X9427740Y652029D01*
X9433940Y654029D01*
X9435940Y658130D01*
X10230240Y704929D02*
G01*
X10230240Y662029D01*
X10216740Y696729D02*
G01*
X10212640Y698829D01*
X10206540Y704929D01*
X10206540Y662029D01*
X10182740Y704929D02*
G01*
X10188940Y702930D01*
X10190940Y698829D01*
X10190940Y694729D01*
X10188940Y690630D01*
X10184840Y688530D01*
X10176639Y686529D01*
X10170540Y684529D01*
X10166440Y680430D01*
X10164340Y676329D01*
X10164340Y670129D01*
X10166440Y666030D01*
X10168440Y664029D01*
X10174640Y662029D01*
X10182740Y662029D01*
X10188940Y664029D01*
X10190940Y666030D01*
X10193040Y670129D01*
X10193040Y676329D01*
X10190940Y680430D01*
X10186840Y684529D01*
X10180739Y686529D01*
X10172539Y688530D01*
X10168440Y690630D01*
X10166440Y694729D01*
X10166440Y698829D01*
X10168440Y702930D01*
X10174640Y704929D01*
X10182740Y704929D01*
X11225240Y699929D02*
G01*
X11225240Y657029D01*
X11211740Y691729D02*
G01*
X11207640Y693829D01*
X11201540Y699929D01*
X11201540Y657029D01*
X11159340Y699929D02*
G01*
X11179840Y657029D01*
X11188040Y699929D02*
G01*
X11159340Y699929D01*
X12220240Y689929D02*
G01*
X12220240Y647029D01*
X12206740Y681729D02*
G01*
X12202640Y683829D01*
X12196540Y689929D01*
X12196540Y647029D01*
X12158440Y683829D02*
G01*
X12160540Y687930D01*
X12166639Y689929D01*
X12170739Y689929D01*
X12176840Y687930D01*
X12180940Y681729D01*
X12183040Y671529D01*
X12183040Y661329D01*
X12180940Y653130D01*
X12176840Y649029D01*
X12170739Y647029D01*
X12168739Y647029D01*
X12162539Y649029D01*
X12158440Y653130D01*
X12156440Y659229D01*
X12156440Y661329D01*
X12158440Y667429D01*
X12162539Y671529D01*
X12168739Y673530D01*
X12170739Y673530D01*
X12176840Y671529D01*
X12180940Y667429D01*
X12183040Y661329D01*
X12225240Y1454929D02*
G01*
X12225240Y1412029D01*
X12211740Y1446729D02*
G01*
X12207640Y1448829D01*
X12201540Y1454929D01*
X12201540Y1412029D01*
X12163440Y1454929D02*
G01*
X12183940Y1454929D01*
X12185940Y1436529D01*
X12183940Y1438530D01*
X12177740Y1440630D01*
X12171639Y1440630D01*
X12165540Y1438530D01*
X12161440Y1434529D01*
X12159340Y1428330D01*
X12159340Y1424229D01*
X12161440Y1418130D01*
X12165540Y1414029D01*
X12171639Y1412029D01*
X12177740Y1412029D01*
X12183940Y1414029D01*
X12185940Y1416030D01*
X12188040Y1420129D01*
X11035240Y1469929D02*
G01*
X11035240Y1427029D01*
X11021740Y1461729D02*
G01*
X11017640Y1463829D01*
X11011540Y1469929D01*
X11011540Y1427029D01*
X10977539Y1469929D02*
G01*
X10998040Y1441329D01*
X10967340Y1441329D01*
X10977539Y1469929D02*
G01*
X10977539Y1427029D01*
X9865240Y1464929D02*
G01*
X9865240Y1422029D01*
X9851740Y1456729D02*
G01*
X9847640Y1458829D01*
X9841540Y1464929D01*
X9841540Y1422029D01*
X9823940Y1464929D02*
G01*
X9801440Y1464929D01*
X9813739Y1448530D01*
X9807539Y1448530D01*
X9803440Y1446529D01*
X9801440Y1444529D01*
X9799340Y1438330D01*
X9799340Y1434229D01*
X9801440Y1428130D01*
X9805540Y1424029D01*
X9811639Y1422029D01*
X9817740Y1422029D01*
X9823940Y1424029D01*
X9825940Y1426030D01*
X9828040Y1430129D01*
X9085240Y1469929D02*
G01*
X9085240Y1427029D01*
X9071740Y1461729D02*
G01*
X9067640Y1463829D01*
X9061540Y1469929D01*
X9061540Y1427029D01*
X9045940Y1459729D02*
G01*
X9045940Y1461729D01*
X9043940Y1465830D01*
X9041840Y1467930D01*
X9037740Y1469929D01*
X9029640Y1469929D01*
X9025540Y1467930D01*
X9023440Y1465830D01*
X9021440Y1461729D01*
X9021440Y1457629D01*
X9023440Y1453530D01*
X9027539Y1447429D01*
X9048040Y1427029D01*
X9019340Y1427029D01*
X8325240Y1459929D02*
G01*
X8325240Y1417029D01*
X8311740Y1451729D02*
G01*
X8307640Y1453829D01*
X8301540Y1459929D01*
X8301540Y1417029D01*
X8288040Y1451729D02*
G01*
X8283940Y1453829D01*
X8277740Y1459929D01*
X8277740Y1417029D01*
X7565240Y1464929D02*
G01*
X7565240Y1422029D01*
X7551740Y1456729D02*
G01*
X7547640Y1458829D01*
X7541540Y1464929D01*
X7541540Y1422029D01*
X7515739Y1464929D02*
G01*
X7521840Y1462930D01*
X7525940Y1456729D01*
X7528040Y1446529D01*
X7528040Y1440430D01*
X7525940Y1430129D01*
X7521840Y1424029D01*
X7515739Y1422029D01*
X7511639Y1422029D01*
X7505540Y1424029D01*
X7501440Y1430129D01*
X7499340Y1440430D01*
X7499340Y1446529D01*
X7501440Y1456729D01*
X7505540Y1462930D01*
X7511639Y1464929D01*
X7515739Y1464929D01*
X6800240Y1464929D02*
G01*
X6800240Y1422029D01*
X6760140Y1450630D02*
G01*
X6762240Y1444529D01*
X6766239Y1440430D01*
X6772439Y1438330D01*
X6774440Y1438330D01*
X6780640Y1440430D01*
X6784740Y1444529D01*
X6786740Y1450630D01*
X6786740Y1452629D01*
X6784740Y1458829D01*
X6780640Y1462930D01*
X6774440Y1464929D01*
X6772439Y1464929D01*
X6766239Y1462930D01*
X6762240Y1458829D01*
X6760140Y1450630D01*
X6760140Y1440430D01*
X6762240Y1430129D01*
X6766239Y1424029D01*
X6772439Y1422029D01*
X6776540Y1422029D01*
X6782640Y1424029D01*
X6784740Y1428130D01*
X6030240Y1464929D02*
G01*
X6030240Y1422029D01*
X6006540Y1464929D02*
G01*
X6012640Y1462930D01*
X6014740Y1458829D01*
X6014740Y1454729D01*
X6012640Y1450630D01*
X6008540Y1448530D01*
X6000339Y1446529D01*
X5994240Y1444529D01*
X5990140Y1440430D01*
X5988140Y1436329D01*
X5988140Y1430129D01*
X5990140Y1426030D01*
X5992240Y1424029D01*
X5998339Y1422029D01*
X6006540Y1422029D01*
X6012640Y1424029D01*
X6014740Y1426030D01*
X6016740Y1430129D01*
X6016740Y1436329D01*
X6014740Y1440430D01*
X6010640Y1444529D01*
X6004440Y1446529D01*
X5996239Y1448530D01*
X5992240Y1450630D01*
X5990140Y1454729D01*
X5990140Y1458829D01*
X5992240Y1462930D01*
X5998339Y1464929D01*
X6006540Y1464929D01*
X5270240Y1469929D02*
G01*
X5270240Y1427029D01*
X5228140Y1469929D02*
G01*
X5248540Y1427029D01*
X5256740Y1469929D02*
G01*
X5228140Y1469929D01*
X4510240Y1459929D02*
G01*
X4510240Y1417029D01*
X4472240Y1453829D02*
G01*
X4474240Y1457930D01*
X4480339Y1459929D01*
X4484440Y1459929D01*
X4490640Y1457930D01*
X4494740Y1451729D01*
X4496740Y1441529D01*
X4496740Y1431329D01*
X4494740Y1423130D01*
X4490640Y1419029D01*
X4484440Y1417029D01*
X4482439Y1417029D01*
X4476239Y1419029D01*
X4472240Y1423130D01*
X4470140Y1429229D01*
X4470140Y1431329D01*
X4472240Y1437429D01*
X4476239Y1441529D01*
X4482439Y1443530D01*
X4484440Y1443530D01*
X4490640Y1441529D01*
X4494740Y1437429D01*
X4496740Y1431329D01*
X3735240Y1454929D02*
G01*
X3735240Y1412029D01*
X3697240Y1454929D02*
G01*
X3717640Y1454929D01*
X3719740Y1436529D01*
X3717640Y1438530D01*
X3711540Y1440630D01*
X3705339Y1440630D01*
X3699240Y1438530D01*
X3695140Y1434529D01*
X3693140Y1428330D01*
X3693140Y1424229D01*
X3695140Y1418130D01*
X3699240Y1414029D01*
X3705339Y1412029D01*
X3711540Y1412029D01*
X3717640Y1414029D01*
X3719740Y1416030D01*
X3721740Y1420129D01*
X2980240Y1454929D02*
G01*
X2980240Y1412029D01*
X2946239Y1454929D02*
G01*
X2966740Y1426329D01*
X2936040Y1426329D01*
X2946239Y1454929D02*
G01*
X2946239Y1412029D01*
X2205240Y1454929D02*
G01*
X2205240Y1412029D01*
X2187640Y1454929D02*
G01*
X2165140Y1454929D01*
X2177439Y1438530D01*
X2171239Y1438530D01*
X2167240Y1436529D01*
X2165140Y1434529D01*
X2163140Y1428330D01*
X2163140Y1424229D01*
X2165140Y1418130D01*
X2169240Y1414029D01*
X2175339Y1412029D01*
X2181540Y1412029D01*
X2187640Y1414029D01*
X2189740Y1416030D01*
X2191740Y1420129D01*
X1445240Y1459929D02*
G01*
X1445240Y1417029D01*
X1429740Y1449729D02*
G01*
X1429740Y1451729D01*
X1427640Y1455830D01*
X1425640Y1457930D01*
X1421540Y1459929D01*
X1413339Y1459929D01*
X1409239Y1457930D01*
X1407240Y1455830D01*
X1405140Y1451729D01*
X1405140Y1447629D01*
X1407240Y1443530D01*
X1411239Y1437429D01*
X1431739Y1417029D01*
X1403140Y1417029D01*
X680239Y1469929D02*
G01*
X680239Y1427029D01*
X666739Y1461729D02*
G01*
X662640Y1463829D01*
X656540Y1469929D01*
X656540Y1427029D01*
X9629099Y-76500D02*
G01*
X9629099Y-64299D01*
X7714099Y-810599D02*
G01*
X7711999Y-808600D01*
X7710000Y-810599D01*
X7711999Y-812699D01*
X7714099Y-810599D01*
X7714099Y-806500D01*
X7710000Y-802500D01*
X8476999Y-812699D02*
G01*
X8475000Y-810599D01*
X8476999Y-808600D01*
X8479099Y-810599D01*
X8476999Y-812699D01*
X9271800Y-848600D02*
G01*
X9235000Y-783099D01*
X8866999Y-51999D02*
G01*
X8865000Y-50000D01*
X8866999Y-47899D01*
X8869099Y-50000D01*
X8866999Y-51999D01*
X8869099Y-35599D02*
G01*
X8866999Y-33600D01*
X8865000Y-35599D01*
X8866999Y-37699D01*
X8869099Y-35599D01*
X8869099Y-31500D01*
X8865000Y-27500D01*
X1996400Y-70399D02*
G01*
X1980000Y-27500D01*
X1996400Y-70399D02*
G01*
X2012700Y-27500D01*
X1986099Y-41799D02*
G01*
X2006599Y-41799D01*
X5415000Y-845399D02*
G01*
X5415000Y-802500D01*
X5415000Y-845399D02*
G01*
X5433400Y-845399D01*
X5439499Y-843400D01*
X5441599Y-841300D01*
X5443599Y-837199D01*
X5443599Y-833099D01*
X5441599Y-829000D01*
X5439499Y-826999D01*
X5433400Y-825000D01*
X5415000Y-825000D02*
G01*
X5433400Y-825000D01*
X5439499Y-822899D01*
X5441599Y-820900D01*
X5443599Y-816799D01*
X5443599Y-810599D01*
X5441599Y-806500D01*
X5439499Y-804499D01*
X5433400Y-802500D01*
X5415000Y-802500D01*
X3915699Y-835199D02*
G01*
X3913599Y-839299D01*
X3909499Y-843400D01*
X3905500Y-845399D01*
X3897299Y-845399D01*
X3893199Y-843400D01*
X3889099Y-839299D01*
X3886999Y-835199D01*
X3885000Y-829000D01*
X3885000Y-818800D01*
X3886999Y-812699D01*
X3889099Y-808600D01*
X3893199Y-804499D01*
X3897299Y-802500D01*
X3905500Y-802500D01*
X3909499Y-804499D01*
X3913599Y-808600D01*
X3915699Y-812699D01*
X3510000Y-70399D02*
G01*
X3510000Y-27500D01*
X3510000Y-70399D02*
G01*
X3524300Y-70399D01*
X3530500Y-68400D01*
X3534499Y-64299D01*
X3536599Y-60199D01*
X3538599Y-54000D01*
X3538599Y-43800D01*
X3536599Y-37699D01*
X3534499Y-33600D01*
X3530500Y-29499D01*
X3524300Y-27500D01*
X3510000Y-27500D01*
X4275000Y-70399D02*
G01*
X4275000Y-27500D01*
X4275000Y-70399D02*
G01*
X4301599Y-70399D01*
X4275000Y-50000D02*
G01*
X4291400Y-50000D01*
X5070699Y-60199D02*
G01*
X5068599Y-64299D01*
X5064499Y-68400D01*
X5060500Y-70399D01*
X5052299Y-70399D01*
X5048199Y-68400D01*
X5044099Y-64299D01*
X5041999Y-60199D01*
X5040000Y-54000D01*
X5040000Y-43800D01*
X5041999Y-37699D01*
X5044099Y-33600D01*
X5048199Y-29499D01*
X5052299Y-27500D01*
X5060500Y-27500D01*
X5064499Y-29499D01*
X5068599Y-33600D01*
X5070699Y-37699D01*
X5070699Y-43800D01*
X5060500Y-43800D02*
G01*
X5070699Y-43800D01*
X5805000Y-70399D02*
G01*
X5805000Y-27500D01*
X5833599Y-70399D02*
G01*
X5833599Y-27500D01*
X5805000Y-50000D02*
G01*
X5833599Y-50000D01*
X6590500Y-70399D02*
G01*
X6590500Y-37699D01*
X6588400Y-31500D01*
X6586400Y-29499D01*
X6582299Y-27500D01*
X6578199Y-27500D01*
X6574099Y-29499D01*
X6571999Y-31500D01*
X6570000Y-37699D01*
X6570000Y-41799D01*
X7335000Y-70399D02*
G01*
X7335000Y-27500D01*
X7363599Y-70399D02*
G01*
X7335000Y-41799D01*
X7345200Y-51999D02*
G01*
X7363599Y-27500D01*
X8100000Y-70399D02*
G01*
X8100000Y-27500D01*
X8100000Y-27500D02*
G01*
X8124499Y-27500D01*
X6945000Y-845399D02*
G01*
X6945000Y-802500D01*
X6945000Y-845399D02*
G01*
X6961400Y-802500D01*
X6977700Y-845399D02*
G01*
X6961400Y-802500D01*
X6977700Y-845399D02*
G01*
X6977700Y-802500D01*
X6180000Y-845399D02*
G01*
X6180000Y-802500D01*
X6180000Y-845399D02*
G01*
X6208599Y-802500D01*
X6208599Y-845399D02*
G01*
X6208599Y-802500D01*
X2773599Y-64299D02*
G01*
X2769499Y-68400D01*
X2763400Y-70399D01*
X2755200Y-70399D01*
X2749099Y-68400D01*
X2745000Y-64299D01*
X2745000Y-60199D01*
X2746999Y-56100D01*
X2749099Y-54000D01*
X2753199Y-51999D01*
X2765500Y-47899D01*
X2769499Y-45900D01*
X2771599Y-43800D01*
X2773599Y-39699D01*
X2773599Y-33600D01*
X2769499Y-29499D01*
X2763400Y-27500D01*
X2755200Y-27500D01*
X2749099Y-29499D01*
X2745000Y-33600D01*
X11420000Y-850399D02*
G01*
X11420000Y-819699D01*
X11421999Y-813600D01*
X11426099Y-809499D01*
X11432299Y-807500D01*
X11436400Y-807500D01*
X11442500Y-809499D01*
X11446599Y-813600D01*
X11448599Y-819699D01*
X11448599Y-850399D01*
X11462100Y-850399D02*
G01*
X11462100Y-807500D01*
X11462100Y-850399D02*
G01*
X11480500Y-850399D01*
X11486700Y-848400D01*
X11488699Y-846300D01*
X11490800Y-842199D01*
X11490800Y-836100D01*
X11488699Y-831999D01*
X11486700Y-830000D01*
X11480500Y-827899D01*
X11462100Y-827899D01*
X4650000Y-845399D02*
G01*
X4666400Y-802500D01*
X4682700Y-845399D02*
G01*
X4666400Y-802500D01*
X3120000Y-845399D02*
G01*
X3148599Y-802500D01*
X3148599Y-845399D02*
G01*
X3120000Y-802500D01*
X2383599Y-845399D02*
G01*
X2355000Y-802500D01*
X2355000Y-845399D02*
G01*
X2383599Y-845399D01*
X2355000Y-802500D02*
G01*
X2383599Y-802500D01*
X11190000Y709600D02*
G01*
X11218599Y758699D01*
X10212299Y696399D02*
G01*
X10212299Y761900D01*
X10214300Y696399D02*
G01*
X10214300Y761900D01*
X10200000Y696399D02*
G01*
X10214300Y696399D01*
X10200000Y761900D02*
G01*
X10214300Y761900D01*
X8302299Y1474600D02*
G01*
X8296099Y1476599D01*
X8291999Y1482800D01*
X8290000Y1493000D01*
X8290000Y1499099D01*
X8291999Y1509400D01*
X8296099Y1515500D01*
X8302299Y1517500D01*
X8306300Y1517500D01*
X8312500Y1515500D01*
X8316599Y1509400D01*
X8318599Y1499099D01*
X8318599Y1493000D01*
X8316599Y1482800D01*
X8312500Y1476599D01*
X8306300Y1474600D01*
X8302299Y1474600D01*
X1410000Y1482800D02*
G01*
X1414099Y1480700D01*
X1420200Y1474600D01*
X1420200Y1517500D01*
X2176999Y1484800D02*
G01*
X2176999Y1482800D01*
X2179099Y1478699D01*
X2181099Y1476599D01*
X2185200Y1474600D01*
X2193400Y1474600D01*
X2197500Y1476599D01*
X2199499Y1478699D01*
X2201599Y1482800D01*
X2201599Y1486900D01*
X2199499Y1490999D01*
X2195399Y1497100D01*
X2175000Y1517500D01*
X2203599Y1517500D01*
X2944099Y1474600D02*
G01*
X2966599Y1474600D01*
X2954300Y1490999D01*
X2960399Y1490999D01*
X2964499Y1493000D01*
X2966599Y1495000D01*
X2968599Y1501199D01*
X2968599Y1505300D01*
X2966599Y1511399D01*
X2962500Y1515500D01*
X2956300Y1517500D01*
X2950200Y1517500D01*
X2944099Y1515500D01*
X2941999Y1513499D01*
X2940000Y1509400D01*
X3725399Y1474600D02*
G01*
X3705000Y1503200D01*
X3735699Y1503200D01*
X3725399Y1474600D02*
G01*
X3725399Y1517500D01*
X4494499Y1474600D02*
G01*
X4474099Y1474600D01*
X4471999Y1493000D01*
X4474099Y1490999D01*
X4480200Y1488899D01*
X4486300Y1488899D01*
X4492500Y1490999D01*
X4496599Y1495000D01*
X4498599Y1501199D01*
X4498599Y1505300D01*
X4496599Y1511399D01*
X4492500Y1515500D01*
X4486300Y1517500D01*
X4480200Y1517500D01*
X4474099Y1515500D01*
X4471999Y1513499D01*
X4470000Y1509400D01*
X5259499Y1480700D02*
G01*
X5257500Y1476599D01*
X5251300Y1474600D01*
X5247299Y1474600D01*
X5241099Y1476599D01*
X5236999Y1482800D01*
X5235000Y1493000D01*
X5235000Y1503200D01*
X5236999Y1511399D01*
X5241099Y1515500D01*
X5247299Y1517500D01*
X5249300Y1517500D01*
X5255400Y1515500D01*
X5259499Y1511399D01*
X5261599Y1505300D01*
X5261599Y1503200D01*
X5259499Y1497100D01*
X5255400Y1493000D01*
X5249300Y1490999D01*
X5247299Y1490999D01*
X5241099Y1493000D01*
X5236999Y1497100D01*
X5235000Y1503200D01*
X6028599Y1474600D02*
G01*
X6008199Y1517500D01*
X6000000Y1474600D02*
G01*
X6028599Y1474600D01*
X6775200Y1474600D02*
G01*
X6769099Y1476599D01*
X6766999Y1480700D01*
X6766999Y1484800D01*
X6769099Y1488899D01*
X6773199Y1490999D01*
X6781300Y1493000D01*
X6787500Y1495000D01*
X6791599Y1499099D01*
X6793599Y1503200D01*
X6793599Y1509400D01*
X6791599Y1513499D01*
X6789499Y1515500D01*
X6783400Y1517500D01*
X6775200Y1517500D01*
X6769099Y1515500D01*
X6766999Y1513499D01*
X6765000Y1509400D01*
X6765000Y1503200D01*
X6766999Y1499099D01*
X6771099Y1495000D01*
X6777299Y1493000D01*
X6785400Y1490999D01*
X6789499Y1488899D01*
X6791599Y1484800D01*
X6791599Y1480700D01*
X6789499Y1476599D01*
X6783400Y1474600D01*
X6775200Y1474600D01*
X7556599Y1488899D02*
G01*
X7554499Y1495000D01*
X7550400Y1499099D01*
X7544300Y1501199D01*
X7542299Y1501199D01*
X7536099Y1499099D01*
X7531999Y1495000D01*
X7530000Y1488899D01*
X7530000Y1486900D01*
X7531999Y1480700D01*
X7536099Y1476599D01*
X7542299Y1474600D01*
X7544300Y1474600D01*
X7550400Y1476599D01*
X7554499Y1480700D01*
X7556599Y1488899D01*
X7556599Y1499099D01*
X7554499Y1509400D01*
X7550400Y1515500D01*
X7544300Y1517500D01*
X7540200Y1517500D01*
X7534099Y1515500D01*
X7531999Y1511399D01*
X9848400Y1475700D02*
G01*
X9848400Y1512500D01*
X9830000Y1494099D02*
G01*
X9866800Y1494099D01*
X9050000Y1499099D02*
G01*
X9086800Y1499099D01*
X3325000Y704600D02*
G01*
X3325000Y747500D01*
X3325000Y704600D02*
G01*
X3351599Y704600D01*
X3325000Y725000D02*
G01*
X3341400Y725000D01*
X3325000Y747500D02*
G01*
X3351599Y747500D01*
X7150000Y704600D02*
G01*
X7150000Y747500D01*
X7927299Y704600D02*
G01*
X7923199Y706599D01*
X7919099Y710700D01*
X7916999Y714800D01*
X7915000Y720999D01*
X7915000Y731199D01*
X7916999Y737300D01*
X7919099Y741399D01*
X7923199Y745500D01*
X7927299Y747500D01*
X7935500Y747500D01*
X7939499Y745500D01*
X7943599Y741399D01*
X7945699Y737300D01*
X7947700Y731199D01*
X7947700Y720999D01*
X7945699Y714800D01*
X7943599Y710700D01*
X7939499Y706599D01*
X7935500Y704600D01*
X7927299Y704600D01*
X8680000Y704600D02*
G01*
X8680000Y747500D01*
X8680000Y704600D02*
G01*
X8698400Y704600D01*
X8704499Y706599D01*
X8706599Y708699D01*
X8708599Y712800D01*
X8708599Y718899D01*
X8706599Y723000D01*
X8704499Y725000D01*
X8698400Y727100D01*
X8680000Y727100D01*
X1807299Y704600D02*
G01*
X1803199Y706599D01*
X1799099Y710700D01*
X1796999Y714800D01*
X1795000Y720999D01*
X1795000Y731199D01*
X1796999Y737300D01*
X1799099Y741399D01*
X1803199Y745500D01*
X1807299Y747500D01*
X1815500Y747500D01*
X1819499Y745500D01*
X1823599Y741399D01*
X1825699Y737300D01*
X1827700Y731199D01*
X1827700Y720999D01*
X1825699Y714800D01*
X1823599Y710700D01*
X1819499Y706599D01*
X1815500Y704600D01*
X1807299Y704600D01*
X1813400Y739400D02*
G01*
X1825699Y751599D01*
X4090000Y704600D02*
G01*
X4090000Y747500D01*
X4090000Y704600D02*
G01*
X4108400Y704600D01*
X4114499Y706599D01*
X4116599Y708699D01*
X4118599Y712800D01*
X4118599Y716900D01*
X4116599Y720999D01*
X4114499Y723000D01*
X4108400Y725000D01*
X4090000Y725000D01*
X4104300Y725000D02*
G01*
X4118599Y747500D01*
X4869300Y704600D02*
G01*
X4869300Y747500D01*
X4855000Y704600D02*
G01*
X4883599Y704600D01*
X6385000Y704600D02*
G01*
X6385000Y735300D01*
X6386999Y741399D01*
X6391099Y745500D01*
X6397299Y747500D01*
X6401400Y747500D01*
X6407500Y745500D01*
X6411599Y741399D01*
X6413599Y735300D01*
X6413599Y704600D01*
X2570000Y714600D02*
G01*
X2580200Y757500D01*
X2590500Y714600D02*
G01*
X2580200Y757500D01*
X2590500Y714600D02*
G01*
X2600699Y757500D01*
X2610900Y714600D02*
G01*
X2600699Y757500D01*
X5620000Y704600D02*
G01*
X5636400Y725000D01*
X5636400Y747500D01*
X5652700Y704600D02*
G01*
X5636400Y725000D01*
X9440000Y696399D02*
G01*
X9440000Y761900D01*
X9441999Y696399D02*
G01*
X9441999Y761900D01*
X9440000Y696399D02*
G01*
X9454300Y696399D01*
X9440000Y761900D02*
G01*
X9454300Y761900D01*
G36*
X1232680Y-1058000D02*
G01*
X1220860Y-1073740D01*
X1232680Y-1073740D01*
G37*
G36*
X2467680Y-1058000D02*
G01*
X2455860Y-1073740D01*
X2467680Y-1073740D01*
G37*
G36*
X12297680Y-273000D02*
G01*
X12285860Y-288740D01*
X12297680Y-288740D01*
G37*
G36*
X2097680Y-278000D02*
G01*
X2085860Y-293740D01*
X2097680Y-293740D01*
G37*
G36*
X1042680Y-273000D02*
G01*
X1030860Y-288740D01*
X1042680Y-288740D01*
G37*
G36*
X12292680Y-1878000D02*
G01*
X12280860Y-1893740D01*
X12292680Y-1893740D01*
G37*
G36*
X11492680Y-1878000D02*
G01*
X11480860Y-1893740D01*
X11492680Y-1893740D01*
G37*
G36*
X10667680Y-1878000D02*
G01*
X10655860Y-1893740D01*
X10667680Y-1893740D01*
G37*
G36*
X9877680Y-1873000D02*
G01*
X9865860Y-1888740D01*
X9877680Y-1888740D01*
G37*
G36*
X9112680Y-1878000D02*
G01*
X9100860Y-1893740D01*
X9112680Y-1893740D01*
G37*
G36*
X8347680Y-1873000D02*
G01*
X8335860Y-1888740D01*
X8347680Y-1888740D01*
G37*
G36*
X5597680Y-1878000D02*
G01*
X5585860Y-1893740D01*
X5597680Y-1893740D01*
G37*
G36*
X2767679Y-1888000D02*
G01*
X2755860Y-1903740D01*
X2767679Y-1903740D01*
G37*
G36*
X1812680Y-1883000D02*
G01*
X1800860Y-1898740D01*
X1812680Y-1898740D01*
G37*
G36*
X852680Y-1888000D02*
G01*
X840860Y-1903740D01*
X852680Y-1903740D01*
G37*
G36*
X3232679Y-1058000D02*
G01*
X3220860Y-1073740D01*
X3232679Y-1073740D01*
G37*
G36*
X3997679Y-1058000D02*
G01*
X3985860Y-1073740D01*
X3997679Y-1073740D01*
G37*
G36*
X4767680Y-1053000D02*
G01*
X4755860Y-1068740D01*
X4767680Y-1068740D01*
G37*
G36*
X5532680Y-1058000D02*
G01*
X5520860Y-1073740D01*
X5532680Y-1073740D01*
G37*
G36*
X6292680Y-1058000D02*
G01*
X6280860Y-1073740D01*
X6292680Y-1073740D01*
G37*
G36*
X7057680Y-1053000D02*
G01*
X7045860Y-1068740D01*
X7057680Y-1068740D01*
G37*
G36*
X7822680Y-1053000D02*
G01*
X7810860Y-1068740D01*
X7822680Y-1068740D01*
G37*
G36*
X8582680Y-1048000D02*
G01*
X8570860Y-1063740D01*
X8582680Y-1063740D01*
G37*
G36*
X9357680Y-1048000D02*
G01*
X9345860Y-1063740D01*
X9357680Y-1063740D01*
G37*
G36*
X10462680Y-1068000D02*
G01*
X10450860Y-1083740D01*
X10462680Y-1083740D01*
G37*
G36*
X11532680Y-1063000D02*
G01*
X11520860Y-1078740D01*
X11532680Y-1078740D01*
G37*
G36*
X11032680Y-288000D02*
G01*
X11020860Y-303740D01*
X11032680Y-303740D01*
G37*
G36*
X9742680Y-283000D02*
G01*
X9730860Y-298740D01*
X9742680Y-298740D01*
G37*
G36*
X8977680Y-278000D02*
G01*
X8965860Y-293740D01*
X8977680Y-293740D01*
G37*
G36*
X8212680Y-273000D02*
G01*
X8200860Y-288740D01*
X8212680Y-288740D01*
G37*
G36*
X7452680Y-273000D02*
G01*
X7440860Y-288740D01*
X7452680Y-288740D01*
G37*
G36*
X6682680Y-278000D02*
G01*
X6670860Y-293740D01*
X6682680Y-293740D01*
G37*
G36*
X5917680Y-278000D02*
G01*
X5905860Y-293740D01*
X5917680Y-293740D01*
G37*
G36*
X5152680Y-278000D02*
G01*
X5140860Y-293740D01*
X5152680Y-293740D01*
G37*
G36*
X4387680Y-278000D02*
G01*
X4375860Y-293740D01*
X4387680Y-293740D01*
G37*
G36*
X3632679Y-278000D02*
G01*
X3620860Y-293740D01*
X3632679Y-293740D01*
G37*
G36*
X2857679Y-278000D02*
G01*
X2845860Y-293740D01*
X2857679Y-293740D01*
G37*
G36*
X952680Y502000D02*
G01*
X940860Y486260D01*
X952680Y486260D01*
G37*
G36*
X12302680Y-1058000D02*
G01*
X12290860Y-1073740D01*
X12302680Y-1073740D01*
G37*
G36*
X1902680Y487000D02*
G01*
X1890860Y471260D01*
X1902680Y471260D01*
G37*
G36*
X2672679Y487000D02*
G01*
X2660860Y471260D01*
X2672679Y471260D01*
G37*
G36*
X3432679Y487000D02*
G01*
X3420860Y471260D01*
X3432679Y471260D01*
G37*
G36*
X4202680Y482000D02*
G01*
X4190860Y466260D01*
X4202680Y466260D01*
G37*
G36*
X4967680Y492000D02*
G01*
X4955860Y476260D01*
X4967680Y476260D01*
G37*
G36*
X5732680Y492000D02*
G01*
X5720860Y476260D01*
X5732680Y476260D01*
G37*
G36*
X6492680Y482000D02*
G01*
X6480860Y466260D01*
X6492680Y466260D01*
G37*
G36*
X7262680Y492000D02*
G01*
X7250860Y476260D01*
X7262680Y476260D01*
G37*
G36*
X8027680Y492000D02*
G01*
X8015860Y476260D01*
X8027680Y476260D01*
G37*
G36*
X8787680Y487000D02*
G01*
X8775860Y471260D01*
X8787680Y471260D01*
G37*
G36*
X9552680Y492000D02*
G01*
X9540860Y476260D01*
X9552680Y476260D01*
G37*
G36*
X10307680Y502000D02*
G01*
X10295860Y486260D01*
X10307680Y486260D01*
G37*
G36*
X11302680Y497000D02*
G01*
X11290860Y481260D01*
X11302680Y481260D01*
G37*
G36*
X12297680Y487000D02*
G01*
X12285860Y471260D01*
X12297680Y471260D01*
G37*
G36*
X12302680Y1252000D02*
G01*
X12290860Y1236260D01*
X12302680Y1236260D01*
G37*
G36*
X11112680Y1267000D02*
G01*
X11100860Y1251260D01*
X11112680Y1251260D01*
G37*
G36*
X9942680Y1262000D02*
G01*
X9930860Y1246260D01*
X9942680Y1246260D01*
G37*
G36*
X9162680Y1267000D02*
G01*
X9150860Y1251260D01*
X9162680Y1251260D01*
G37*
G36*
X8402680Y1257000D02*
G01*
X8390860Y1241260D01*
X8402680Y1241260D01*
G37*
G36*
X7642680Y1262000D02*
G01*
X7630860Y1246260D01*
X7642680Y1246260D01*
G37*
G36*
X6877680Y1262000D02*
G01*
X6865860Y1246260D01*
X6877680Y1246260D01*
G37*
G36*
X6107680Y1262000D02*
G01*
X6095860Y1246260D01*
X6107680Y1246260D01*
G37*
G36*
X5347680Y1267000D02*
G01*
X5335860Y1251260D01*
X5347680Y1251260D01*
G37*
G36*
X4587680Y1257000D02*
G01*
X4575860Y1241260D01*
X4587680Y1241260D01*
G37*
G36*
X3812679Y1252000D02*
G01*
X3800860Y1236260D01*
X3812679Y1236260D01*
G37*
G36*
X3057679Y1252000D02*
G01*
X3045860Y1236260D01*
X3057679Y1236260D01*
G37*
G36*
X2282680Y1252000D02*
G01*
X2270860Y1236260D01*
X2282680Y1236260D01*
G37*
G36*
X1522680Y1257000D02*
G01*
X1510860Y1241260D01*
X1522680Y1241260D01*
G37*
G36*
X757680Y1267000D02*
G01*
X745860Y1251260D01*
X757680Y1251260D01*
G37*
D11*
X1067322Y-1073739D02*
G01*
X1232677Y-1073739D01*
X1232677Y-1069803D02*
G01*
X1232677Y-1073739D01*
X1232700Y-1054899D02*
G01*
X1213800Y-1073699D01*
X1210699Y-1073699D01*
X1067322Y-1049769D02*
G01*
X1067322Y-1069803D01*
X1067322Y-990713D02*
G01*
X1067322Y-999286D01*
X1067322Y-916260D02*
G01*
X1067322Y-940230D01*
X1232677Y-1049769D02*
G01*
X1232677Y-1069803D01*
X1232677Y-990713D02*
G01*
X1232677Y-999286D01*
X1232677Y-916260D02*
G01*
X1232677Y-940230D01*
X1232677Y-916260D02*
G01*
X1067322Y-916260D01*
X1067322Y-1069803D02*
G01*
X1067322Y-1073739D01*
X2302322Y-1073739D02*
G01*
X2467677Y-1073739D01*
X2467677Y-1069803D02*
G01*
X2467677Y-1073739D01*
X2467700Y-1054899D02*
G01*
X2448800Y-1073699D01*
X2445699Y-1073699D01*
X2302322Y-1049769D02*
G01*
X2302322Y-1069803D01*
X2302322Y-990713D02*
G01*
X2302322Y-999286D01*
X2302322Y-916260D02*
G01*
X2302322Y-940230D01*
X2467677Y-1049769D02*
G01*
X2467677Y-1069803D01*
X2467677Y-990713D02*
G01*
X2467677Y-999286D01*
X2467677Y-916260D02*
G01*
X2467677Y-940230D01*
X2467677Y-916260D02*
G01*
X2302322Y-916260D01*
X2302322Y-1069803D02*
G01*
X2302322Y-1073739D01*
X12132322Y-288739D02*
G01*
X12297677Y-288739D01*
X12297677Y-284803D02*
G01*
X12297677Y-288739D01*
X12297700Y-269899D02*
G01*
X12278800Y-288699D01*
X12275699Y-288699D01*
X12132322Y-264769D02*
G01*
X12132322Y-284803D01*
X12132322Y-205713D02*
G01*
X12132322Y-214286D01*
X12132322Y-131260D02*
G01*
X12132322Y-155230D01*
X12297677Y-264769D02*
G01*
X12297677Y-284803D01*
X12297677Y-205713D02*
G01*
X12297677Y-214286D01*
X12297677Y-131260D02*
G01*
X12297677Y-155230D01*
X12297677Y-131260D02*
G01*
X12132322Y-131260D01*
X12132322Y-284803D02*
G01*
X12132322Y-288739D01*
X1932322Y-293739D02*
G01*
X2097677Y-293739D01*
X2097677Y-289803D02*
G01*
X2097677Y-293739D01*
X2097700Y-274899D02*
G01*
X2078800Y-293699D01*
X2075699Y-293699D01*
X1932322Y-269769D02*
G01*
X1932322Y-289803D01*
X1932322Y-210713D02*
G01*
X1932322Y-219286D01*
X1932322Y-136260D02*
G01*
X1932322Y-160230D01*
X2097677Y-269769D02*
G01*
X2097677Y-289803D01*
X2097677Y-210713D02*
G01*
X2097677Y-219286D01*
X2097677Y-136260D02*
G01*
X2097677Y-160230D01*
X2097677Y-136260D02*
G01*
X1932322Y-136260D01*
X1932322Y-289803D02*
G01*
X1932322Y-293739D01*
X877322Y-288739D02*
G01*
X1042677Y-288739D01*
X1042677Y-284803D02*
G01*
X1042677Y-288739D01*
X1042700Y-269899D02*
G01*
X1023800Y-288699D01*
X1020699Y-288699D01*
X877322Y-264769D02*
G01*
X877322Y-284803D01*
X877322Y-205713D02*
G01*
X877322Y-214286D01*
X877322Y-131260D02*
G01*
X877322Y-155230D01*
X1042677Y-264769D02*
G01*
X1042677Y-284803D01*
X1042677Y-205713D02*
G01*
X1042677Y-214286D01*
X1042677Y-131260D02*
G01*
X1042677Y-155230D01*
X1042677Y-131260D02*
G01*
X877322Y-131260D01*
X877322Y-284803D02*
G01*
X877322Y-288739D01*
X12127322Y-1893739D02*
G01*
X12292677Y-1893739D01*
X12292677Y-1889803D02*
G01*
X12292677Y-1893739D01*
X12292700Y-1874899D02*
G01*
X12273800Y-1893699D01*
X12270699Y-1893699D01*
X12127322Y-1869769D02*
G01*
X12127322Y-1889803D01*
X12127322Y-1810713D02*
G01*
X12127322Y-1819286D01*
X12127322Y-1736260D02*
G01*
X12127322Y-1760230D01*
X12292677Y-1869769D02*
G01*
X12292677Y-1889803D01*
X12292677Y-1810713D02*
G01*
X12292677Y-1819286D01*
X12292677Y-1736260D02*
G01*
X12292677Y-1760230D01*
X12292677Y-1736260D02*
G01*
X12127322Y-1736260D01*
X12127322Y-1889803D02*
G01*
X12127322Y-1893739D01*
X11327322Y-1893739D02*
G01*
X11492677Y-1893739D01*
X11492677Y-1889803D02*
G01*
X11492677Y-1893739D01*
X11492700Y-1874899D02*
G01*
X11473800Y-1893699D01*
X11470699Y-1893699D01*
X11327322Y-1869769D02*
G01*
X11327322Y-1889803D01*
X11327322Y-1810713D02*
G01*
X11327322Y-1819286D01*
X11327322Y-1736260D02*
G01*
X11327322Y-1760230D01*
X11492677Y-1869769D02*
G01*
X11492677Y-1889803D01*
X11492677Y-1810713D02*
G01*
X11492677Y-1819286D01*
X11492677Y-1736260D02*
G01*
X11492677Y-1760230D01*
X11492677Y-1736260D02*
G01*
X11327322Y-1736260D01*
X11327322Y-1889803D02*
G01*
X11327322Y-1893739D01*
X10502322Y-1893739D02*
G01*
X10667677Y-1893739D01*
X10667677Y-1889803D02*
G01*
X10667677Y-1893739D01*
X10667700Y-1874899D02*
G01*
X10648800Y-1893699D01*
X10645699Y-1893699D01*
X10502322Y-1869769D02*
G01*
X10502322Y-1889803D01*
X10502322Y-1810713D02*
G01*
X10502322Y-1819286D01*
X10502322Y-1736260D02*
G01*
X10502322Y-1760230D01*
X10667677Y-1869769D02*
G01*
X10667677Y-1889803D01*
X10667677Y-1810713D02*
G01*
X10667677Y-1819286D01*
X10667677Y-1736260D02*
G01*
X10667677Y-1760230D01*
X10667677Y-1736260D02*
G01*
X10502322Y-1736260D01*
X10502322Y-1889803D02*
G01*
X10502322Y-1893739D01*
X9712322Y-1888739D02*
G01*
X9877677Y-1888739D01*
X9877677Y-1884803D02*
G01*
X9877677Y-1888739D01*
X9877700Y-1869899D02*
G01*
X9858800Y-1888699D01*
X9855699Y-1888699D01*
X9712322Y-1864769D02*
G01*
X9712322Y-1884803D01*
X9712322Y-1805713D02*
G01*
X9712322Y-1814286D01*
X9712322Y-1731260D02*
G01*
X9712322Y-1755230D01*
X9877677Y-1864769D02*
G01*
X9877677Y-1884803D01*
X9877677Y-1805713D02*
G01*
X9877677Y-1814286D01*
X9877677Y-1731260D02*
G01*
X9877677Y-1755230D01*
X9877677Y-1731260D02*
G01*
X9712322Y-1731260D01*
X9712322Y-1884803D02*
G01*
X9712322Y-1888739D01*
X8947322Y-1893739D02*
G01*
X9112677Y-1893739D01*
X9112677Y-1889803D02*
G01*
X9112677Y-1893739D01*
X9112700Y-1874899D02*
G01*
X9093800Y-1893699D01*
X9090699Y-1893699D01*
X8947322Y-1869769D02*
G01*
X8947322Y-1889803D01*
X8947322Y-1810713D02*
G01*
X8947322Y-1819286D01*
X8947322Y-1736260D02*
G01*
X8947322Y-1760230D01*
X9112677Y-1869769D02*
G01*
X9112677Y-1889803D01*
X9112677Y-1810713D02*
G01*
X9112677Y-1819286D01*
X9112677Y-1736260D02*
G01*
X9112677Y-1760230D01*
X9112677Y-1736260D02*
G01*
X8947322Y-1736260D01*
X8947322Y-1889803D02*
G01*
X8947322Y-1893739D01*
X8182322Y-1888739D02*
G01*
X8347677Y-1888739D01*
X8347677Y-1884803D02*
G01*
X8347677Y-1888739D01*
X8347700Y-1869899D02*
G01*
X8328800Y-1888699D01*
X8325699Y-1888699D01*
X8182322Y-1864769D02*
G01*
X8182322Y-1884803D01*
X8182322Y-1805713D02*
G01*
X8182322Y-1814286D01*
X8182322Y-1731260D02*
G01*
X8182322Y-1755230D01*
X8347677Y-1864769D02*
G01*
X8347677Y-1884803D01*
X8347677Y-1805713D02*
G01*
X8347677Y-1814286D01*
X8347677Y-1731260D02*
G01*
X8347677Y-1755230D01*
X8347677Y-1731260D02*
G01*
X8182322Y-1731260D01*
X8182322Y-1884803D02*
G01*
X8182322Y-1888739D01*
X5432322Y-1893739D02*
G01*
X5597677Y-1893739D01*
X5597677Y-1889803D02*
G01*
X5597677Y-1893739D01*
X5597700Y-1874899D02*
G01*
X5578800Y-1893699D01*
X5575699Y-1893699D01*
X5432322Y-1869769D02*
G01*
X5432322Y-1889803D01*
X5432322Y-1810713D02*
G01*
X5432322Y-1819286D01*
X5432322Y-1736260D02*
G01*
X5432322Y-1760230D01*
X5597677Y-1869769D02*
G01*
X5597677Y-1889803D01*
X5597677Y-1810713D02*
G01*
X5597677Y-1819286D01*
X5597677Y-1736260D02*
G01*
X5597677Y-1760230D01*
X5597677Y-1736260D02*
G01*
X5432322Y-1736260D01*
X5432322Y-1889803D02*
G01*
X5432322Y-1893739D01*
X2602322Y-1903739D02*
G01*
X2767677Y-1903739D01*
X2767677Y-1899803D02*
G01*
X2767677Y-1903739D01*
X2767700Y-1884899D02*
G01*
X2748800Y-1903699D01*
X2745699Y-1903699D01*
X2602322Y-1879769D02*
G01*
X2602322Y-1899803D01*
X2602322Y-1820713D02*
G01*
X2602322Y-1829286D01*
X2602322Y-1746260D02*
G01*
X2602322Y-1770230D01*
X2767677Y-1879769D02*
G01*
X2767677Y-1899803D01*
X2767677Y-1820713D02*
G01*
X2767677Y-1829286D01*
X2767677Y-1746260D02*
G01*
X2767677Y-1770230D01*
X2767677Y-1746260D02*
G01*
X2602322Y-1746260D01*
X2602322Y-1899803D02*
G01*
X2602322Y-1903739D01*
X1647322Y-1898739D02*
G01*
X1812677Y-1898739D01*
X1812677Y-1894803D02*
G01*
X1812677Y-1898739D01*
X1812700Y-1879899D02*
G01*
X1793800Y-1898699D01*
X1790699Y-1898699D01*
X1647322Y-1874769D02*
G01*
X1647322Y-1894803D01*
X1647322Y-1815713D02*
G01*
X1647322Y-1824286D01*
X1647322Y-1741260D02*
G01*
X1647322Y-1765230D01*
X1812677Y-1874769D02*
G01*
X1812677Y-1894803D01*
X1812677Y-1815713D02*
G01*
X1812677Y-1824286D01*
X1812677Y-1741260D02*
G01*
X1812677Y-1765230D01*
X1812677Y-1741260D02*
G01*
X1647322Y-1741260D01*
X1647322Y-1894803D02*
G01*
X1647322Y-1898739D01*
X687323Y-1903739D02*
G01*
X852677Y-1903739D01*
X852677Y-1899803D02*
G01*
X852677Y-1903739D01*
X852700Y-1884899D02*
G01*
X833800Y-1903699D01*
X830699Y-1903699D01*
X687323Y-1879769D02*
G01*
X687323Y-1899803D01*
X687323Y-1820713D02*
G01*
X687323Y-1829286D01*
X687323Y-1746260D02*
G01*
X687323Y-1770230D01*
X852677Y-1879769D02*
G01*
X852677Y-1899803D01*
X852677Y-1820713D02*
G01*
X852677Y-1829286D01*
X852677Y-1746260D02*
G01*
X852677Y-1770230D01*
X852677Y-1746260D02*
G01*
X687323Y-1746260D01*
X687323Y-1899803D02*
G01*
X687323Y-1903739D01*
X3067322Y-1073739D02*
G01*
X3232677Y-1073739D01*
X3232677Y-1069803D02*
G01*
X3232677Y-1073739D01*
X3232700Y-1054899D02*
G01*
X3213800Y-1073699D01*
X3210699Y-1073699D01*
X3067322Y-1049769D02*
G01*
X3067322Y-1069803D01*
X3067322Y-990713D02*
G01*
X3067322Y-999286D01*
X3067322Y-916260D02*
G01*
X3067322Y-940230D01*
X3232677Y-1049769D02*
G01*
X3232677Y-1069803D01*
X3232677Y-990713D02*
G01*
X3232677Y-999286D01*
X3232677Y-916260D02*
G01*
X3232677Y-940230D01*
X3232677Y-916260D02*
G01*
X3067322Y-916260D01*
X3067322Y-1069803D02*
G01*
X3067322Y-1073739D01*
X3832322Y-1073739D02*
G01*
X3997677Y-1073739D01*
X3997677Y-1069803D02*
G01*
X3997677Y-1073739D01*
X3997700Y-1054899D02*
G01*
X3978800Y-1073699D01*
X3975699Y-1073699D01*
X3832322Y-1049769D02*
G01*
X3832322Y-1069803D01*
X3832322Y-990713D02*
G01*
X3832322Y-999286D01*
X3832322Y-916260D02*
G01*
X3832322Y-940230D01*
X3997677Y-1049769D02*
G01*
X3997677Y-1069803D01*
X3997677Y-990713D02*
G01*
X3997677Y-999286D01*
X3997677Y-916260D02*
G01*
X3997677Y-940230D01*
X3997677Y-916260D02*
G01*
X3832322Y-916260D01*
X3832322Y-1069803D02*
G01*
X3832322Y-1073739D01*
X4602322Y-1068739D02*
G01*
X4767677Y-1068739D01*
X4767677Y-1064803D02*
G01*
X4767677Y-1068739D01*
X4767700Y-1049899D02*
G01*
X4748800Y-1068699D01*
X4745699Y-1068699D01*
X4602322Y-1044769D02*
G01*
X4602322Y-1064803D01*
X4602322Y-985713D02*
G01*
X4602322Y-994286D01*
X4602322Y-911260D02*
G01*
X4602322Y-935230D01*
X4767677Y-1044769D02*
G01*
X4767677Y-1064803D01*
X4767677Y-985713D02*
G01*
X4767677Y-994286D01*
X4767677Y-911260D02*
G01*
X4767677Y-935230D01*
X4767677Y-911260D02*
G01*
X4602322Y-911260D01*
X4602322Y-1064803D02*
G01*
X4602322Y-1068739D01*
X5367322Y-1073739D02*
G01*
X5532677Y-1073739D01*
X5532677Y-1069803D02*
G01*
X5532677Y-1073739D01*
X5532700Y-1054899D02*
G01*
X5513800Y-1073699D01*
X5510699Y-1073699D01*
X5367322Y-1049769D02*
G01*
X5367322Y-1069803D01*
X5367322Y-990713D02*
G01*
X5367322Y-999286D01*
X5367322Y-916260D02*
G01*
X5367322Y-940230D01*
X5532677Y-1049769D02*
G01*
X5532677Y-1069803D01*
X5532677Y-990713D02*
G01*
X5532677Y-999286D01*
X5532677Y-916260D02*
G01*
X5532677Y-940230D01*
X5532677Y-916260D02*
G01*
X5367322Y-916260D01*
X5367322Y-1069803D02*
G01*
X5367322Y-1073739D01*
X6127322Y-1073739D02*
G01*
X6292677Y-1073739D01*
X6292677Y-1069803D02*
G01*
X6292677Y-1073739D01*
X6292700Y-1054899D02*
G01*
X6273800Y-1073699D01*
X6270699Y-1073699D01*
X6127322Y-1049769D02*
G01*
X6127322Y-1069803D01*
X6127322Y-990713D02*
G01*
X6127322Y-999286D01*
X6127322Y-916260D02*
G01*
X6127322Y-940230D01*
X6292677Y-1049769D02*
G01*
X6292677Y-1069803D01*
X6292677Y-990713D02*
G01*
X6292677Y-999286D01*
X6292677Y-916260D02*
G01*
X6292677Y-940230D01*
X6292677Y-916260D02*
G01*
X6127322Y-916260D01*
X6127322Y-1069803D02*
G01*
X6127322Y-1073739D01*
X6892322Y-1068739D02*
G01*
X7057677Y-1068739D01*
X7057677Y-1064803D02*
G01*
X7057677Y-1068739D01*
X7057700Y-1049899D02*
G01*
X7038800Y-1068699D01*
X7035699Y-1068699D01*
X6892322Y-1044769D02*
G01*
X6892322Y-1064803D01*
X6892322Y-985713D02*
G01*
X6892322Y-994286D01*
X6892322Y-911260D02*
G01*
X6892322Y-935230D01*
X7057677Y-1044769D02*
G01*
X7057677Y-1064803D01*
X7057677Y-985713D02*
G01*
X7057677Y-994286D01*
X7057677Y-911260D02*
G01*
X7057677Y-935230D01*
X7057677Y-911260D02*
G01*
X6892322Y-911260D01*
X6892322Y-1064803D02*
G01*
X6892322Y-1068739D01*
X7657322Y-1068739D02*
G01*
X7822677Y-1068739D01*
X7822677Y-1064803D02*
G01*
X7822677Y-1068739D01*
X7822700Y-1049899D02*
G01*
X7803800Y-1068699D01*
X7800699Y-1068699D01*
X7657322Y-1044769D02*
G01*
X7657322Y-1064803D01*
X7657322Y-985713D02*
G01*
X7657322Y-994286D01*
X7657322Y-911260D02*
G01*
X7657322Y-935230D01*
X7822677Y-1044769D02*
G01*
X7822677Y-1064803D01*
X7822677Y-985713D02*
G01*
X7822677Y-994286D01*
X7822677Y-911260D02*
G01*
X7822677Y-935230D01*
X7822677Y-911260D02*
G01*
X7657322Y-911260D01*
X7657322Y-1064803D02*
G01*
X7657322Y-1068739D01*
X8417322Y-1063739D02*
G01*
X8582677Y-1063739D01*
X8582677Y-1059803D02*
G01*
X8582677Y-1063739D01*
X8582700Y-1044899D02*
G01*
X8563800Y-1063699D01*
X8560699Y-1063699D01*
X8417322Y-1039769D02*
G01*
X8417322Y-1059803D01*
X8417322Y-980713D02*
G01*
X8417322Y-989286D01*
X8417322Y-906260D02*
G01*
X8417322Y-930230D01*
X8582677Y-1039769D02*
G01*
X8582677Y-1059803D01*
X8582677Y-980713D02*
G01*
X8582677Y-989286D01*
X8582677Y-906260D02*
G01*
X8582677Y-930230D01*
X8582677Y-906260D02*
G01*
X8417322Y-906260D01*
X8417322Y-1059803D02*
G01*
X8417322Y-1063739D01*
X9192322Y-1063739D02*
G01*
X9357677Y-1063739D01*
X9357677Y-1059803D02*
G01*
X9357677Y-1063739D01*
X9357700Y-1044899D02*
G01*
X9338800Y-1063699D01*
X9335699Y-1063699D01*
X9192322Y-1039769D02*
G01*
X9192322Y-1059803D01*
X9192322Y-980713D02*
G01*
X9192322Y-989286D01*
X9192322Y-906260D02*
G01*
X9192322Y-930230D01*
X9357677Y-1039769D02*
G01*
X9357677Y-1059803D01*
X9357677Y-980713D02*
G01*
X9357677Y-989286D01*
X9357677Y-906260D02*
G01*
X9357677Y-930230D01*
X9357677Y-906260D02*
G01*
X9192322Y-906260D01*
X9192322Y-1059803D02*
G01*
X9192322Y-1063739D01*
X10297322Y-1083739D02*
G01*
X10462677Y-1083739D01*
X10462677Y-1079803D02*
G01*
X10462677Y-1083739D01*
X10462700Y-1064899D02*
G01*
X10443800Y-1083699D01*
X10440699Y-1083699D01*
X10297322Y-1059769D02*
G01*
X10297322Y-1079803D01*
X10297322Y-1000713D02*
G01*
X10297322Y-1009286D01*
X10297322Y-926260D02*
G01*
X10297322Y-950230D01*
X10462677Y-1059769D02*
G01*
X10462677Y-1079803D01*
X10462677Y-1000713D02*
G01*
X10462677Y-1009286D01*
X10462677Y-926260D02*
G01*
X10462677Y-950230D01*
X10462677Y-926260D02*
G01*
X10297322Y-926260D01*
X10297322Y-1079803D02*
G01*
X10297322Y-1083739D01*
X11367322Y-1078739D02*
G01*
X11532677Y-1078739D01*
X11532677Y-1074803D02*
G01*
X11532677Y-1078739D01*
X11532700Y-1059899D02*
G01*
X11513800Y-1078699D01*
X11510699Y-1078699D01*
X11367322Y-1054769D02*
G01*
X11367322Y-1074803D01*
X11367322Y-995713D02*
G01*
X11367322Y-1004286D01*
X11367322Y-921260D02*
G01*
X11367322Y-945230D01*
X11532677Y-1054769D02*
G01*
X11532677Y-1074803D01*
X11532677Y-995713D02*
G01*
X11532677Y-1004286D01*
X11532677Y-921260D02*
G01*
X11532677Y-945230D01*
X11532677Y-921260D02*
G01*
X11367322Y-921260D01*
X11367322Y-1074803D02*
G01*
X11367322Y-1078739D01*
X10867322Y-303739D02*
G01*
X11032677Y-303739D01*
X11032677Y-299803D02*
G01*
X11032677Y-303739D01*
X11032700Y-284899D02*
G01*
X11013800Y-303699D01*
X11010699Y-303699D01*
X10867322Y-279769D02*
G01*
X10867322Y-299803D01*
X10867322Y-220713D02*
G01*
X10867322Y-229286D01*
X10867322Y-146260D02*
G01*
X10867322Y-170230D01*
X11032677Y-279769D02*
G01*
X11032677Y-299803D01*
X11032677Y-220713D02*
G01*
X11032677Y-229286D01*
X11032677Y-146260D02*
G01*
X11032677Y-170230D01*
X11032677Y-146260D02*
G01*
X10867322Y-146260D01*
X10867322Y-299803D02*
G01*
X10867322Y-303739D01*
X9577322Y-298739D02*
G01*
X9742677Y-298739D01*
X9742677Y-294803D02*
G01*
X9742677Y-298739D01*
X9742700Y-279899D02*
G01*
X9723800Y-298699D01*
X9720699Y-298699D01*
X9577322Y-274769D02*
G01*
X9577322Y-294803D01*
X9577322Y-215713D02*
G01*
X9577322Y-224286D01*
X9577322Y-141260D02*
G01*
X9577322Y-165230D01*
X9742677Y-274769D02*
G01*
X9742677Y-294803D01*
X9742677Y-215713D02*
G01*
X9742677Y-224286D01*
X9742677Y-141260D02*
G01*
X9742677Y-165230D01*
X9742677Y-141260D02*
G01*
X9577322Y-141260D01*
X9577322Y-294803D02*
G01*
X9577322Y-298739D01*
X8812322Y-293739D02*
G01*
X8977677Y-293739D01*
X8977677Y-289803D02*
G01*
X8977677Y-293739D01*
X8977700Y-274899D02*
G01*
X8958800Y-293699D01*
X8955699Y-293699D01*
X8812322Y-269769D02*
G01*
X8812322Y-289803D01*
X8812322Y-210713D02*
G01*
X8812322Y-219286D01*
X8812322Y-136260D02*
G01*
X8812322Y-160230D01*
X8977677Y-269769D02*
G01*
X8977677Y-289803D01*
X8977677Y-210713D02*
G01*
X8977677Y-219286D01*
X8977677Y-136260D02*
G01*
X8977677Y-160230D01*
X8977677Y-136260D02*
G01*
X8812322Y-136260D01*
X8812322Y-289803D02*
G01*
X8812322Y-293739D01*
X8047322Y-288739D02*
G01*
X8212677Y-288739D01*
X8212677Y-284803D02*
G01*
X8212677Y-288739D01*
X8212700Y-269899D02*
G01*
X8193800Y-288699D01*
X8190699Y-288699D01*
X8047322Y-264769D02*
G01*
X8047322Y-284803D01*
X8047322Y-205713D02*
G01*
X8047322Y-214286D01*
X8047322Y-131260D02*
G01*
X8047322Y-155230D01*
X8212677Y-264769D02*
G01*
X8212677Y-284803D01*
X8212677Y-205713D02*
G01*
X8212677Y-214286D01*
X8212677Y-131260D02*
G01*
X8212677Y-155230D01*
X8212677Y-131260D02*
G01*
X8047322Y-131260D01*
X8047322Y-284803D02*
G01*
X8047322Y-288739D01*
X7287322Y-288739D02*
G01*
X7452677Y-288739D01*
X7452677Y-284803D02*
G01*
X7452677Y-288739D01*
X7452700Y-269899D02*
G01*
X7433800Y-288699D01*
X7430699Y-288699D01*
X7287322Y-264769D02*
G01*
X7287322Y-284803D01*
X7287322Y-205713D02*
G01*
X7287322Y-214286D01*
X7287322Y-131260D02*
G01*
X7287322Y-155230D01*
X7452677Y-264769D02*
G01*
X7452677Y-284803D01*
X7452677Y-205713D02*
G01*
X7452677Y-214286D01*
X7452677Y-131260D02*
G01*
X7452677Y-155230D01*
X7452677Y-131260D02*
G01*
X7287322Y-131260D01*
X7287322Y-284803D02*
G01*
X7287322Y-288739D01*
X6517322Y-293739D02*
G01*
X6682677Y-293739D01*
X6682677Y-289803D02*
G01*
X6682677Y-293739D01*
X6682700Y-274899D02*
G01*
X6663800Y-293699D01*
X6660699Y-293699D01*
X6517322Y-269769D02*
G01*
X6517322Y-289803D01*
X6517322Y-210713D02*
G01*
X6517322Y-219286D01*
X6517322Y-136260D02*
G01*
X6517322Y-160230D01*
X6682677Y-269769D02*
G01*
X6682677Y-289803D01*
X6682677Y-210713D02*
G01*
X6682677Y-219286D01*
X6682677Y-136260D02*
G01*
X6682677Y-160230D01*
X6682677Y-136260D02*
G01*
X6517322Y-136260D01*
X6517322Y-289803D02*
G01*
X6517322Y-293739D01*
X5752322Y-293739D02*
G01*
X5917677Y-293739D01*
X5917677Y-289803D02*
G01*
X5917677Y-293739D01*
X5917700Y-274899D02*
G01*
X5898800Y-293699D01*
X5895699Y-293699D01*
X5752322Y-269769D02*
G01*
X5752322Y-289803D01*
X5752322Y-210713D02*
G01*
X5752322Y-219286D01*
X5752322Y-136260D02*
G01*
X5752322Y-160230D01*
X5917677Y-269769D02*
G01*
X5917677Y-289803D01*
X5917677Y-210713D02*
G01*
X5917677Y-219286D01*
X5917677Y-136260D02*
G01*
X5917677Y-160230D01*
X5917677Y-136260D02*
G01*
X5752322Y-136260D01*
X5752322Y-289803D02*
G01*
X5752322Y-293739D01*
X4987322Y-293739D02*
G01*
X5152677Y-293739D01*
X5152677Y-289803D02*
G01*
X5152677Y-293739D01*
X5152700Y-274899D02*
G01*
X5133800Y-293699D01*
X5130699Y-293699D01*
X4987322Y-269769D02*
G01*
X4987322Y-289803D01*
X4987322Y-210713D02*
G01*
X4987322Y-219286D01*
X4987322Y-136260D02*
G01*
X4987322Y-160230D01*
X5152677Y-269769D02*
G01*
X5152677Y-289803D01*
X5152677Y-210713D02*
G01*
X5152677Y-219286D01*
X5152677Y-136260D02*
G01*
X5152677Y-160230D01*
X5152677Y-136260D02*
G01*
X4987322Y-136260D01*
X4987322Y-289803D02*
G01*
X4987322Y-293739D01*
X4222322Y-293739D02*
G01*
X4387677Y-293739D01*
X4387677Y-289803D02*
G01*
X4387677Y-293739D01*
X4387700Y-274899D02*
G01*
X4368800Y-293699D01*
X4365699Y-293699D01*
X4222322Y-269769D02*
G01*
X4222322Y-289803D01*
X4222322Y-210713D02*
G01*
X4222322Y-219286D01*
X4222322Y-136260D02*
G01*
X4222322Y-160230D01*
X4387677Y-269769D02*
G01*
X4387677Y-289803D01*
X4387677Y-210713D02*
G01*
X4387677Y-219286D01*
X4387677Y-136260D02*
G01*
X4387677Y-160230D01*
X4387677Y-136260D02*
G01*
X4222322Y-136260D01*
X4222322Y-289803D02*
G01*
X4222322Y-293739D01*
X3467322Y-293739D02*
G01*
X3632677Y-293739D01*
X3632677Y-289803D02*
G01*
X3632677Y-293739D01*
X3632700Y-274899D02*
G01*
X3613800Y-293699D01*
X3610699Y-293699D01*
X3467322Y-269769D02*
G01*
X3467322Y-289803D01*
X3467322Y-210713D02*
G01*
X3467322Y-219286D01*
X3467322Y-136260D02*
G01*
X3467322Y-160230D01*
X3632677Y-269769D02*
G01*
X3632677Y-289803D01*
X3632677Y-210713D02*
G01*
X3632677Y-219286D01*
X3632677Y-136260D02*
G01*
X3632677Y-160230D01*
X3632677Y-136260D02*
G01*
X3467322Y-136260D01*
X3467322Y-289803D02*
G01*
X3467322Y-293739D01*
X2692322Y-293739D02*
G01*
X2857677Y-293739D01*
X2857677Y-289803D02*
G01*
X2857677Y-293739D01*
X2857700Y-274899D02*
G01*
X2838800Y-293699D01*
X2835699Y-293699D01*
X2692322Y-269769D02*
G01*
X2692322Y-289803D01*
X2692322Y-210713D02*
G01*
X2692322Y-219286D01*
X2692322Y-136260D02*
G01*
X2692322Y-160230D01*
X2857677Y-269769D02*
G01*
X2857677Y-289803D01*
X2857677Y-210713D02*
G01*
X2857677Y-219286D01*
X2857677Y-136260D02*
G01*
X2857677Y-160230D01*
X2857677Y-136260D02*
G01*
X2692322Y-136260D01*
X2692322Y-289803D02*
G01*
X2692322Y-293739D01*
X787322Y486260D02*
G01*
X952677Y486260D01*
X952677Y490196D02*
G01*
X952677Y486260D01*
X952700Y505100D02*
G01*
X933800Y486300D01*
X930699Y486300D01*
X787322Y510230D02*
G01*
X787322Y490196D01*
X787322Y569286D02*
G01*
X787322Y560713D01*
X787322Y643739D02*
G01*
X787322Y619769D01*
X952677Y510230D02*
G01*
X952677Y490196D01*
X952677Y569286D02*
G01*
X952677Y560713D01*
X952677Y643739D02*
G01*
X952677Y619769D01*
X952677Y643739D02*
G01*
X787322Y643739D01*
X787322Y490196D02*
G01*
X787322Y486260D01*
X12137322Y-1073739D02*
G01*
X12302677Y-1073739D01*
X12302677Y-1069803D02*
G01*
X12302677Y-1073739D01*
X12302700Y-1054899D02*
G01*
X12283800Y-1073699D01*
X12280699Y-1073699D01*
X12137322Y-1049769D02*
G01*
X12137322Y-1069803D01*
X12137322Y-990713D02*
G01*
X12137322Y-999286D01*
X12137322Y-916260D02*
G01*
X12137322Y-940230D01*
X12302677Y-1049769D02*
G01*
X12302677Y-1069803D01*
X12302677Y-990713D02*
G01*
X12302677Y-999286D01*
X12302677Y-916260D02*
G01*
X12302677Y-940230D01*
X12302677Y-916260D02*
G01*
X12137322Y-916260D01*
X12137322Y-1069803D02*
G01*
X12137322Y-1073739D01*
X1737322Y471260D02*
G01*
X1902677Y471260D01*
X1902677Y475196D02*
G01*
X1902677Y471260D01*
X1902700Y490100D02*
G01*
X1883800Y471300D01*
X1880699Y471300D01*
X1737322Y495230D02*
G01*
X1737322Y475196D01*
X1737322Y554286D02*
G01*
X1737322Y545713D01*
X1737322Y628739D02*
G01*
X1737322Y604769D01*
X1902677Y495230D02*
G01*
X1902677Y475196D01*
X1902677Y554286D02*
G01*
X1902677Y545713D01*
X1902677Y628739D02*
G01*
X1902677Y604769D01*
X1902677Y628739D02*
G01*
X1737322Y628739D01*
X1737322Y475196D02*
G01*
X1737322Y471260D01*
X2507322Y471260D02*
G01*
X2672677Y471260D01*
X2672677Y475196D02*
G01*
X2672677Y471260D01*
X2672700Y490100D02*
G01*
X2653800Y471300D01*
X2650699Y471300D01*
X2507322Y495230D02*
G01*
X2507322Y475196D01*
X2507322Y554286D02*
G01*
X2507322Y545713D01*
X2507322Y628739D02*
G01*
X2507322Y604769D01*
X2672677Y495230D02*
G01*
X2672677Y475196D01*
X2672677Y554286D02*
G01*
X2672677Y545713D01*
X2672677Y628739D02*
G01*
X2672677Y604769D01*
X2672677Y628739D02*
G01*
X2507322Y628739D01*
X2507322Y475196D02*
G01*
X2507322Y471260D01*
X3267322Y471260D02*
G01*
X3432677Y471260D01*
X3432677Y475196D02*
G01*
X3432677Y471260D01*
X3432700Y490100D02*
G01*
X3413800Y471300D01*
X3410699Y471300D01*
X3267322Y495230D02*
G01*
X3267322Y475196D01*
X3267322Y554286D02*
G01*
X3267322Y545713D01*
X3267322Y628739D02*
G01*
X3267322Y604769D01*
X3432677Y495230D02*
G01*
X3432677Y475196D01*
X3432677Y554286D02*
G01*
X3432677Y545713D01*
X3432677Y628739D02*
G01*
X3432677Y604769D01*
X3432677Y628739D02*
G01*
X3267322Y628739D01*
X3267322Y475196D02*
G01*
X3267322Y471260D01*
X4037322Y466260D02*
G01*
X4202677Y466260D01*
X4202677Y470196D02*
G01*
X4202677Y466260D01*
X4202700Y485100D02*
G01*
X4183800Y466300D01*
X4180699Y466300D01*
X4037322Y490230D02*
G01*
X4037322Y470196D01*
X4037322Y549286D02*
G01*
X4037322Y540713D01*
X4037322Y623739D02*
G01*
X4037322Y599769D01*
X4202677Y490230D02*
G01*
X4202677Y470196D01*
X4202677Y549286D02*
G01*
X4202677Y540713D01*
X4202677Y623739D02*
G01*
X4202677Y599769D01*
X4202677Y623739D02*
G01*
X4037322Y623739D01*
X4037322Y470196D02*
G01*
X4037322Y466260D01*
X4802322Y476260D02*
G01*
X4967677Y476260D01*
X4967677Y480196D02*
G01*
X4967677Y476260D01*
X4967700Y495100D02*
G01*
X4948800Y476300D01*
X4945699Y476300D01*
X4802322Y500230D02*
G01*
X4802322Y480196D01*
X4802322Y559286D02*
G01*
X4802322Y550713D01*
X4802322Y633739D02*
G01*
X4802322Y609769D01*
X4967677Y500230D02*
G01*
X4967677Y480196D01*
X4967677Y559286D02*
G01*
X4967677Y550713D01*
X4967677Y633739D02*
G01*
X4967677Y609769D01*
X4967677Y633739D02*
G01*
X4802322Y633739D01*
X4802322Y480196D02*
G01*
X4802322Y476260D01*
X5567322Y476260D02*
G01*
X5732677Y476260D01*
X5732677Y480196D02*
G01*
X5732677Y476260D01*
X5732700Y495100D02*
G01*
X5713800Y476300D01*
X5710699Y476300D01*
X5567322Y500230D02*
G01*
X5567322Y480196D01*
X5567322Y559286D02*
G01*
X5567322Y550713D01*
X5567322Y633739D02*
G01*
X5567322Y609769D01*
X5732677Y500230D02*
G01*
X5732677Y480196D01*
X5732677Y559286D02*
G01*
X5732677Y550713D01*
X5732677Y633739D02*
G01*
X5732677Y609769D01*
X5732677Y633739D02*
G01*
X5567322Y633739D01*
X5567322Y480196D02*
G01*
X5567322Y476260D01*
X6327322Y466260D02*
G01*
X6492677Y466260D01*
X6492677Y470196D02*
G01*
X6492677Y466260D01*
X6492700Y485100D02*
G01*
X6473800Y466300D01*
X6470699Y466300D01*
X6327322Y490230D02*
G01*
X6327322Y470196D01*
X6327322Y549286D02*
G01*
X6327322Y540713D01*
X6327322Y623739D02*
G01*
X6327322Y599769D01*
X6492677Y490230D02*
G01*
X6492677Y470196D01*
X6492677Y549286D02*
G01*
X6492677Y540713D01*
X6492677Y623739D02*
G01*
X6492677Y599769D01*
X6492677Y623739D02*
G01*
X6327322Y623739D01*
X6327322Y470196D02*
G01*
X6327322Y466260D01*
X7097322Y476260D02*
G01*
X7262677Y476260D01*
X7262677Y480196D02*
G01*
X7262677Y476260D01*
X7262700Y495100D02*
G01*
X7243800Y476300D01*
X7240699Y476300D01*
X7097322Y500230D02*
G01*
X7097322Y480196D01*
X7097322Y559286D02*
G01*
X7097322Y550713D01*
X7097322Y633739D02*
G01*
X7097322Y609769D01*
X7262677Y500230D02*
G01*
X7262677Y480196D01*
X7262677Y559286D02*
G01*
X7262677Y550713D01*
X7262677Y633739D02*
G01*
X7262677Y609769D01*
X7262677Y633739D02*
G01*
X7097322Y633739D01*
X7097322Y480196D02*
G01*
X7097322Y476260D01*
X7862322Y476260D02*
G01*
X8027677Y476260D01*
X8027677Y480196D02*
G01*
X8027677Y476260D01*
X8027700Y495100D02*
G01*
X8008800Y476300D01*
X8005699Y476300D01*
X7862322Y500230D02*
G01*
X7862322Y480196D01*
X7862322Y559286D02*
G01*
X7862322Y550713D01*
X7862322Y633739D02*
G01*
X7862322Y609769D01*
X8027677Y500230D02*
G01*
X8027677Y480196D01*
X8027677Y559286D02*
G01*
X8027677Y550713D01*
X8027677Y633739D02*
G01*
X8027677Y609769D01*
X8027677Y633739D02*
G01*
X7862322Y633739D01*
X7862322Y480196D02*
G01*
X7862322Y476260D01*
X8622322Y471260D02*
G01*
X8787677Y471260D01*
X8787677Y475196D02*
G01*
X8787677Y471260D01*
X8787700Y490100D02*
G01*
X8768800Y471300D01*
X8765699Y471300D01*
X8622322Y495230D02*
G01*
X8622322Y475196D01*
X8622322Y554286D02*
G01*
X8622322Y545713D01*
X8622322Y628739D02*
G01*
X8622322Y604769D01*
X8787677Y495230D02*
G01*
X8787677Y475196D01*
X8787677Y554286D02*
G01*
X8787677Y545713D01*
X8787677Y628739D02*
G01*
X8787677Y604769D01*
X8787677Y628739D02*
G01*
X8622322Y628739D01*
X8622322Y475196D02*
G01*
X8622322Y471260D01*
X9387322Y476260D02*
G01*
X9552677Y476260D01*
X9552677Y480196D02*
G01*
X9552677Y476260D01*
X9552700Y495100D02*
G01*
X9533800Y476300D01*
X9530699Y476300D01*
X9387322Y500230D02*
G01*
X9387322Y480196D01*
X9387322Y559286D02*
G01*
X9387322Y550713D01*
X9387322Y633739D02*
G01*
X9387322Y609769D01*
X9552677Y500230D02*
G01*
X9552677Y480196D01*
X9552677Y559286D02*
G01*
X9552677Y550713D01*
X9552677Y633739D02*
G01*
X9552677Y609769D01*
X9552677Y633739D02*
G01*
X9387322Y633739D01*
X9387322Y480196D02*
G01*
X9387322Y476260D01*
X10142322Y486260D02*
G01*
X10307677Y486260D01*
X10307677Y490196D02*
G01*
X10307677Y486260D01*
X10307700Y505100D02*
G01*
X10288800Y486300D01*
X10285699Y486300D01*
X10142322Y510230D02*
G01*
X10142322Y490196D01*
X10142322Y569286D02*
G01*
X10142322Y560713D01*
X10142322Y643739D02*
G01*
X10142322Y619769D01*
X10307677Y510230D02*
G01*
X10307677Y490196D01*
X10307677Y569286D02*
G01*
X10307677Y560713D01*
X10307677Y643739D02*
G01*
X10307677Y619769D01*
X10307677Y643739D02*
G01*
X10142322Y643739D01*
X10142322Y490196D02*
G01*
X10142322Y486260D01*
X11137322Y481260D02*
G01*
X11302677Y481260D01*
X11302677Y485196D02*
G01*
X11302677Y481260D01*
X11302700Y500100D02*
G01*
X11283800Y481300D01*
X11280699Y481300D01*
X11137322Y505230D02*
G01*
X11137322Y485196D01*
X11137322Y564286D02*
G01*
X11137322Y555713D01*
X11137322Y638739D02*
G01*
X11137322Y614769D01*
X11302677Y505230D02*
G01*
X11302677Y485196D01*
X11302677Y564286D02*
G01*
X11302677Y555713D01*
X11302677Y638739D02*
G01*
X11302677Y614769D01*
X11302677Y638739D02*
G01*
X11137322Y638739D01*
X11137322Y485196D02*
G01*
X11137322Y481260D01*
X12132322Y471260D02*
G01*
X12297677Y471260D01*
X12297677Y475196D02*
G01*
X12297677Y471260D01*
X12297700Y490100D02*
G01*
X12278800Y471300D01*
X12275699Y471300D01*
X12132322Y495230D02*
G01*
X12132322Y475196D01*
X12132322Y554286D02*
G01*
X12132322Y545713D01*
X12132322Y628739D02*
G01*
X12132322Y604769D01*
X12297677Y495230D02*
G01*
X12297677Y475196D01*
X12297677Y554286D02*
G01*
X12297677Y545713D01*
X12297677Y628739D02*
G01*
X12297677Y604769D01*
X12297677Y628739D02*
G01*
X12132322Y628739D01*
X12132322Y475196D02*
G01*
X12132322Y471260D01*
X12137322Y1236260D02*
G01*
X12302677Y1236260D01*
X12302677Y1240196D02*
G01*
X12302677Y1236260D01*
X12302700Y1255100D02*
G01*
X12283800Y1236300D01*
X12280699Y1236300D01*
X12137322Y1260230D02*
G01*
X12137322Y1240196D01*
X12137322Y1319286D02*
G01*
X12137322Y1310713D01*
X12137322Y1393739D02*
G01*
X12137322Y1369769D01*
X12302677Y1260230D02*
G01*
X12302677Y1240196D01*
X12302677Y1319286D02*
G01*
X12302677Y1310713D01*
X12302677Y1393739D02*
G01*
X12302677Y1369769D01*
X12302677Y1393739D02*
G01*
X12137322Y1393739D01*
X12137322Y1240196D02*
G01*
X12137322Y1236260D01*
X10947322Y1251260D02*
G01*
X11112677Y1251260D01*
X11112677Y1255196D02*
G01*
X11112677Y1251260D01*
X11112700Y1270100D02*
G01*
X11093800Y1251300D01*
X11090699Y1251300D01*
X10947322Y1275230D02*
G01*
X10947322Y1255196D01*
X10947322Y1334286D02*
G01*
X10947322Y1325713D01*
X10947322Y1408739D02*
G01*
X10947322Y1384769D01*
X11112677Y1275230D02*
G01*
X11112677Y1255196D01*
X11112677Y1334286D02*
G01*
X11112677Y1325713D01*
X11112677Y1408739D02*
G01*
X11112677Y1384769D01*
X11112677Y1408739D02*
G01*
X10947322Y1408739D01*
X10947322Y1255196D02*
G01*
X10947322Y1251260D01*
X9777322Y1246260D02*
G01*
X9942677Y1246260D01*
X9942677Y1250196D02*
G01*
X9942677Y1246260D01*
X9942700Y1265100D02*
G01*
X9923800Y1246300D01*
X9920699Y1246300D01*
X9777322Y1270230D02*
G01*
X9777322Y1250196D01*
X9777322Y1329286D02*
G01*
X9777322Y1320713D01*
X9777322Y1403739D02*
G01*
X9777322Y1379769D01*
X9942677Y1270230D02*
G01*
X9942677Y1250196D01*
X9942677Y1329286D02*
G01*
X9942677Y1320713D01*
X9942677Y1403739D02*
G01*
X9942677Y1379769D01*
X9942677Y1403739D02*
G01*
X9777322Y1403739D01*
X9777322Y1250196D02*
G01*
X9777322Y1246260D01*
X8997322Y1251260D02*
G01*
X9162677Y1251260D01*
X9162677Y1255196D02*
G01*
X9162677Y1251260D01*
X9162700Y1270100D02*
G01*
X9143800Y1251300D01*
X9140699Y1251300D01*
X8997322Y1275230D02*
G01*
X8997322Y1255196D01*
X8997322Y1334286D02*
G01*
X8997322Y1325713D01*
X8997322Y1408739D02*
G01*
X8997322Y1384769D01*
X9162677Y1275230D02*
G01*
X9162677Y1255196D01*
X9162677Y1334286D02*
G01*
X9162677Y1325713D01*
X9162677Y1408739D02*
G01*
X9162677Y1384769D01*
X9162677Y1408739D02*
G01*
X8997322Y1408739D01*
X8997322Y1255196D02*
G01*
X8997322Y1251260D01*
X8237322Y1241260D02*
G01*
X8402677Y1241260D01*
X8402677Y1245196D02*
G01*
X8402677Y1241260D01*
X8402700Y1260100D02*
G01*
X8383800Y1241300D01*
X8380699Y1241300D01*
X8237322Y1265230D02*
G01*
X8237322Y1245196D01*
X8237322Y1324286D02*
G01*
X8237322Y1315713D01*
X8237322Y1398739D02*
G01*
X8237322Y1374769D01*
X8402677Y1265230D02*
G01*
X8402677Y1245196D01*
X8402677Y1324286D02*
G01*
X8402677Y1315713D01*
X8402677Y1398739D02*
G01*
X8402677Y1374769D01*
X8402677Y1398739D02*
G01*
X8237322Y1398739D01*
X8237322Y1245196D02*
G01*
X8237322Y1241260D01*
X7477322Y1246260D02*
G01*
X7642677Y1246260D01*
X7642677Y1250196D02*
G01*
X7642677Y1246260D01*
X7642700Y1265100D02*
G01*
X7623800Y1246300D01*
X7620699Y1246300D01*
X7477322Y1270230D02*
G01*
X7477322Y1250196D01*
X7477322Y1329286D02*
G01*
X7477322Y1320713D01*
X7477322Y1403739D02*
G01*
X7477322Y1379769D01*
X7642677Y1270230D02*
G01*
X7642677Y1250196D01*
X7642677Y1329286D02*
G01*
X7642677Y1320713D01*
X7642677Y1403739D02*
G01*
X7642677Y1379769D01*
X7642677Y1403739D02*
G01*
X7477322Y1403739D01*
X7477322Y1250196D02*
G01*
X7477322Y1246260D01*
X6712322Y1246260D02*
G01*
X6877677Y1246260D01*
X6877677Y1250196D02*
G01*
X6877677Y1246260D01*
X6877700Y1265100D02*
G01*
X6858800Y1246300D01*
X6855699Y1246300D01*
X6712322Y1270230D02*
G01*
X6712322Y1250196D01*
X6712322Y1329286D02*
G01*
X6712322Y1320713D01*
X6712322Y1403739D02*
G01*
X6712322Y1379769D01*
X6877677Y1270230D02*
G01*
X6877677Y1250196D01*
X6877677Y1329286D02*
G01*
X6877677Y1320713D01*
X6877677Y1403739D02*
G01*
X6877677Y1379769D01*
X6877677Y1403739D02*
G01*
X6712322Y1403739D01*
X6712322Y1250196D02*
G01*
X6712322Y1246260D01*
X5942322Y1246260D02*
G01*
X6107677Y1246260D01*
X6107677Y1250196D02*
G01*
X6107677Y1246260D01*
X6107700Y1265100D02*
G01*
X6088800Y1246300D01*
X6085699Y1246300D01*
X5942322Y1270230D02*
G01*
X5942322Y1250196D01*
X5942322Y1329286D02*
G01*
X5942322Y1320713D01*
X5942322Y1403739D02*
G01*
X5942322Y1379769D01*
X6107677Y1270230D02*
G01*
X6107677Y1250196D01*
X6107677Y1329286D02*
G01*
X6107677Y1320713D01*
X6107677Y1403739D02*
G01*
X6107677Y1379769D01*
X6107677Y1403739D02*
G01*
X5942322Y1403739D01*
X5942322Y1250196D02*
G01*
X5942322Y1246260D01*
X5182322Y1251260D02*
G01*
X5347677Y1251260D01*
X5347677Y1255196D02*
G01*
X5347677Y1251260D01*
X5347700Y1270100D02*
G01*
X5328800Y1251300D01*
X5325699Y1251300D01*
X5182322Y1275230D02*
G01*
X5182322Y1255196D01*
X5182322Y1334286D02*
G01*
X5182322Y1325713D01*
X5182322Y1408739D02*
G01*
X5182322Y1384769D01*
X5347677Y1275230D02*
G01*
X5347677Y1255196D01*
X5347677Y1334286D02*
G01*
X5347677Y1325713D01*
X5347677Y1408739D02*
G01*
X5347677Y1384769D01*
X5347677Y1408739D02*
G01*
X5182322Y1408739D01*
X5182322Y1255196D02*
G01*
X5182322Y1251260D01*
X4422322Y1241260D02*
G01*
X4587677Y1241260D01*
X4587677Y1245196D02*
G01*
X4587677Y1241260D01*
X4587700Y1260100D02*
G01*
X4568800Y1241300D01*
X4565699Y1241300D01*
X4422322Y1265230D02*
G01*
X4422322Y1245196D01*
X4422322Y1324286D02*
G01*
X4422322Y1315713D01*
X4422322Y1398739D02*
G01*
X4422322Y1374769D01*
X4587677Y1265230D02*
G01*
X4587677Y1245196D01*
X4587677Y1324286D02*
G01*
X4587677Y1315713D01*
X4587677Y1398739D02*
G01*
X4587677Y1374769D01*
X4587677Y1398739D02*
G01*
X4422322Y1398739D01*
X4422322Y1245196D02*
G01*
X4422322Y1241260D01*
X3647322Y1236260D02*
G01*
X3812677Y1236260D01*
X3812677Y1240196D02*
G01*
X3812677Y1236260D01*
X3812700Y1255100D02*
G01*
X3793800Y1236300D01*
X3790699Y1236300D01*
X3647322Y1260230D02*
G01*
X3647322Y1240196D01*
X3647322Y1319286D02*
G01*
X3647322Y1310713D01*
X3647322Y1393739D02*
G01*
X3647322Y1369769D01*
X3812677Y1260230D02*
G01*
X3812677Y1240196D01*
X3812677Y1319286D02*
G01*
X3812677Y1310713D01*
X3812677Y1393739D02*
G01*
X3812677Y1369769D01*
X3812677Y1393739D02*
G01*
X3647322Y1393739D01*
X3647322Y1240196D02*
G01*
X3647322Y1236260D01*
X2892322Y1236260D02*
G01*
X3057677Y1236260D01*
X3057677Y1240196D02*
G01*
X3057677Y1236260D01*
X3057700Y1255100D02*
G01*
X3038800Y1236300D01*
X3035699Y1236300D01*
X2892322Y1260230D02*
G01*
X2892322Y1240196D01*
X2892322Y1319286D02*
G01*
X2892322Y1310713D01*
X2892322Y1393739D02*
G01*
X2892322Y1369769D01*
X3057677Y1260230D02*
G01*
X3057677Y1240196D01*
X3057677Y1319286D02*
G01*
X3057677Y1310713D01*
X3057677Y1393739D02*
G01*
X3057677Y1369769D01*
X3057677Y1393739D02*
G01*
X2892322Y1393739D01*
X2892322Y1240196D02*
G01*
X2892322Y1236260D01*
X2117322Y1236260D02*
G01*
X2282677Y1236260D01*
X2282677Y1240196D02*
G01*
X2282677Y1236260D01*
X2282700Y1255100D02*
G01*
X2263800Y1236300D01*
X2260699Y1236300D01*
X2117322Y1260230D02*
G01*
X2117322Y1240196D01*
X2117322Y1319286D02*
G01*
X2117322Y1310713D01*
X2117322Y1393739D02*
G01*
X2117322Y1369769D01*
X2282677Y1260230D02*
G01*
X2282677Y1240196D01*
X2282677Y1319286D02*
G01*
X2282677Y1310713D01*
X2282677Y1393739D02*
G01*
X2282677Y1369769D01*
X2282677Y1393739D02*
G01*
X2117322Y1393739D01*
X2117322Y1240196D02*
G01*
X2117322Y1236260D01*
X1357322Y1241260D02*
G01*
X1522677Y1241260D01*
X1522677Y1245196D02*
G01*
X1522677Y1241260D01*
X1522700Y1260100D02*
G01*
X1503800Y1241300D01*
X1500699Y1241300D01*
X1357322Y1265230D02*
G01*
X1357322Y1245196D01*
X1357322Y1324286D02*
G01*
X1357322Y1315713D01*
X1357322Y1398739D02*
G01*
X1357322Y1374769D01*
X1522677Y1265230D02*
G01*
X1522677Y1245196D01*
X1522677Y1324286D02*
G01*
X1522677Y1315713D01*
X1522677Y1398739D02*
G01*
X1522677Y1374769D01*
X1522677Y1398739D02*
G01*
X1357322Y1398739D01*
X1357322Y1245196D02*
G01*
X1357322Y1241260D01*
X592323Y1251260D02*
G01*
X757676Y1251260D01*
X757676Y1255196D02*
G01*
X757676Y1251260D01*
X757699Y1270100D02*
G01*
X738800Y1251300D01*
X735700Y1251300D01*
X592323Y1275230D02*
G01*
X592323Y1255196D01*
X592323Y1334286D02*
G01*
X592323Y1325713D01*
X592323Y1408739D02*
G01*
X592323Y1384769D01*
X757676Y1275230D02*
G01*
X757676Y1255196D01*
X757676Y1334286D02*
G01*
X757676Y1325713D01*
X757676Y1408739D02*
G01*
X757676Y1384769D01*
X757676Y1408739D02*
G01*
X592323Y1408739D01*
X592323Y1255196D02*
G01*
X592323Y1251260D01*
X8503387Y-518308D02*
G01*
X8676615Y-518308D01*
X8503387Y-431691D02*
G01*
X8676615Y-431691D01*
X8503387Y-518308D02*
G01*
X8503387Y-431691D01*
X8676615Y-518308D02*
G01*
X8676615Y-431691D01*
X8540370Y-518308D02*
G01*
X8540370Y-431691D01*
X7658387Y-518308D02*
G01*
X7831615Y-518308D01*
X7658387Y-431691D02*
G01*
X7831615Y-431691D01*
X7658387Y-518308D02*
G01*
X7658387Y-431691D01*
X7831615Y-518308D02*
G01*
X7831615Y-431691D01*
X7695370Y-518308D02*
G01*
X7695370Y-431691D01*
X9258387Y-508308D02*
G01*
X9431615Y-508308D01*
X9258387Y-421691D02*
G01*
X9431615Y-421691D01*
X9258387Y-508308D02*
G01*
X9258387Y-421691D01*
X9431615Y-508308D02*
G01*
X9431615Y-421691D01*
X9295370Y-508308D02*
G01*
X9295370Y-421691D01*
X5348387Y-518308D02*
G01*
X5521615Y-518308D01*
X5348387Y-431691D02*
G01*
X5521615Y-431691D01*
X5348387Y-518308D02*
G01*
X5348387Y-431691D01*
X5521615Y-518308D02*
G01*
X5521615Y-431691D01*
X5385370Y-518308D02*
G01*
X5385370Y-431691D01*
X3848387Y-523308D02*
G01*
X4021615Y-523308D01*
X3848387Y-436691D02*
G01*
X4021615Y-436691D01*
X3848387Y-523308D02*
G01*
X3848387Y-436691D01*
X4021615Y-523308D02*
G01*
X4021615Y-436691D01*
X3885370Y-523308D02*
G01*
X3885370Y-436691D01*
X11323387Y-1343308D02*
G01*
X11496615Y-1343308D01*
X11323387Y-1256691D02*
G01*
X11496615Y-1256691D01*
X11323387Y-1343308D02*
G01*
X11323387Y-1256691D01*
X11496615Y-1343308D02*
G01*
X11496615Y-1256691D01*
X11360370Y-1343308D02*
G01*
X11360370Y-1256691D01*
X10863387Y276691D02*
G01*
X11036615Y276691D01*
X10863387Y363308D02*
G01*
X11036615Y363308D01*
X10863387Y276691D02*
G01*
X10863387Y363308D01*
X11036615Y276691D02*
G01*
X11036615Y363308D01*
X10900370Y276691D02*
G01*
X10900370Y363308D01*
X8943387Y-1338308D02*
G01*
X9116615Y-1338308D01*
X8943387Y-1251691D02*
G01*
X9116615Y-1251691D01*
X8943387Y-1338308D02*
G01*
X8943387Y-1251691D01*
X9116615Y-1338308D02*
G01*
X9116615Y-1251691D01*
X8980370Y-1338308D02*
G01*
X8980370Y-1251691D01*
X2628387Y-1333308D02*
G01*
X2801615Y-1333308D01*
X2628387Y-1246691D02*
G01*
X2801615Y-1246691D01*
X2628387Y-1333308D02*
G01*
X2628387Y-1246691D01*
X2801615Y-1333308D02*
G01*
X2801615Y-1246691D01*
X2665370Y-1333308D02*
G01*
X2665370Y-1246691D01*
X10488387Y-1353308D02*
G01*
X10661615Y-1353308D01*
X10488387Y-1266691D02*
G01*
X10661615Y-1266691D01*
X10488387Y-1353308D02*
G01*
X10488387Y-1266691D01*
X10661615Y-1353308D02*
G01*
X10661615Y-1266691D01*
X10525370Y-1353308D02*
G01*
X10525370Y-1266691D01*
X683386Y-1333308D02*
G01*
X856615Y-1333308D01*
X683386Y-1246691D02*
G01*
X856615Y-1246691D01*
X683386Y-1333308D02*
G01*
X683386Y-1246691D01*
X856615Y-1333308D02*
G01*
X856615Y-1246691D01*
X720369Y-1333308D02*
G01*
X720369Y-1246691D01*
X1073387Y-508308D02*
G01*
X1246615Y-508308D01*
X1073387Y-421691D02*
G01*
X1246615Y-421691D01*
X1073387Y-508308D02*
G01*
X1073387Y-421691D01*
X1246615Y-508308D02*
G01*
X1246615Y-421691D01*
X1110370Y-508308D02*
G01*
X1110370Y-421691D01*
X6893387Y-518308D02*
G01*
X7066615Y-518308D01*
X6893387Y-431691D02*
G01*
X7066615Y-431691D01*
X6893387Y-518308D02*
G01*
X6893387Y-431691D01*
X7066615Y-518308D02*
G01*
X7066615Y-431691D01*
X6930370Y-518308D02*
G01*
X6930370Y-431691D01*
X6123387Y-518308D02*
G01*
X6296615Y-518308D01*
X6123387Y-431691D02*
G01*
X6296615Y-431691D01*
X6123387Y-518308D02*
G01*
X6123387Y-431691D01*
X6296615Y-518308D02*
G01*
X6296615Y-431691D01*
X6160370Y-518308D02*
G01*
X6160370Y-431691D01*
X12128387Y-523308D02*
G01*
X12301615Y-523308D01*
X12128387Y-436691D02*
G01*
X12301615Y-436691D01*
X12128387Y-523308D02*
G01*
X12128387Y-436691D01*
X12301615Y-523308D02*
G01*
X12301615Y-436691D01*
X12165370Y-523308D02*
G01*
X12165370Y-436691D01*
X8198387Y-1328308D02*
G01*
X8371615Y-1328308D01*
X8198387Y-1241691D02*
G01*
X8371615Y-1241691D01*
X8198387Y-1328308D02*
G01*
X8198387Y-1241691D01*
X8371615Y-1328308D02*
G01*
X8371615Y-1241691D01*
X8235370Y-1328308D02*
G01*
X8235370Y-1241691D01*
X12128387Y-1333308D02*
G01*
X12301615Y-1333308D01*
X12128387Y-1246691D02*
G01*
X12301615Y-1246691D01*
X12128387Y-1333308D02*
G01*
X12128387Y-1246691D01*
X12301615Y-1333308D02*
G01*
X12301615Y-1246691D01*
X12165370Y-1333308D02*
G01*
X12165370Y-1246691D01*
X9713387Y-1343308D02*
G01*
X9886615Y-1343308D01*
X9713387Y-1256691D02*
G01*
X9886615Y-1256691D01*
X9713387Y-1343308D02*
G01*
X9713387Y-1256691D01*
X9886615Y-1343308D02*
G01*
X9886615Y-1256691D01*
X9750370Y-1343308D02*
G01*
X9750370Y-1256691D01*
X10073387Y-518308D02*
G01*
X10246615Y-518308D01*
X10073387Y-431691D02*
G01*
X10246615Y-431691D01*
X10073387Y-518308D02*
G01*
X10073387Y-431691D01*
X10246615Y-518308D02*
G01*
X10246615Y-431691D01*
X10110370Y-518308D02*
G01*
X10110370Y-431691D01*
X5428387Y-1323308D02*
G01*
X5601615Y-1323308D01*
X5428387Y-1236691D02*
G01*
X5601615Y-1236691D01*
X5428387Y-1323308D02*
G01*
X5428387Y-1236691D01*
X5601615Y-1323308D02*
G01*
X5601615Y-1236691D01*
X5465370Y-1323308D02*
G01*
X5465370Y-1236691D01*
X10973387Y-558308D02*
G01*
X11146615Y-558308D01*
X10973387Y-471691D02*
G01*
X11146615Y-471691D01*
X10973387Y-558308D02*
G01*
X10973387Y-471691D01*
X11146615Y-558308D02*
G01*
X11146615Y-471691D01*
X11010370Y-558308D02*
G01*
X11010370Y-471691D01*
X4583387Y-518308D02*
G01*
X4756615Y-518308D01*
X4583387Y-431691D02*
G01*
X4756615Y-431691D01*
X4583387Y-518308D02*
G01*
X4583387Y-431691D01*
X4756615Y-518308D02*
G01*
X4756615Y-431691D01*
X4620370Y-518308D02*
G01*
X4620370Y-431691D01*
X1653387Y-1333308D02*
G01*
X1826615Y-1333308D01*
X1653387Y-1246691D02*
G01*
X1826615Y-1246691D01*
X1653387Y-1333308D02*
G01*
X1653387Y-1246691D01*
X1826615Y-1333308D02*
G01*
X1826615Y-1246691D01*
X1690370Y-1333308D02*
G01*
X1690370Y-1246691D01*
X3063387Y-523308D02*
G01*
X3236615Y-523308D01*
X3063387Y-436691D02*
G01*
X3236615Y-436691D01*
X3063387Y-523308D02*
G01*
X3063387Y-436691D01*
X3236615Y-523308D02*
G01*
X3236615Y-436691D01*
X3100370Y-523308D02*
G01*
X3100370Y-436691D01*
X2303387Y-518308D02*
G01*
X2476615Y-518308D01*
X2303387Y-431691D02*
G01*
X2476615Y-431691D01*
X2303387Y-518308D02*
G01*
X2303387Y-431691D01*
X2476615Y-518308D02*
G01*
X2476615Y-431691D01*
X2340370Y-518308D02*
G01*
X2340370Y-431691D01*
X11138387Y1036691D02*
G01*
X11311615Y1036691D01*
X11138387Y1123308D02*
G01*
X11311615Y1123308D01*
X11138387Y1036691D02*
G01*
X11138387Y1123308D01*
X11311615Y1036691D02*
G01*
X11311615Y1123308D01*
X11175370Y1036691D02*
G01*
X11175370Y1123308D01*
X8223387Y1826691D02*
G01*
X8396615Y1826691D01*
X8223387Y1913308D02*
G01*
X8396615Y1913308D01*
X8223387Y1826691D02*
G01*
X8223387Y1913308D01*
X8396615Y1826691D02*
G01*
X8396615Y1913308D01*
X8260370Y1826691D02*
G01*
X8260370Y1913308D01*
X3663387Y1816691D02*
G01*
X3836615Y1816691D01*
X3663387Y1903308D02*
G01*
X3836615Y1903308D01*
X3663387Y1816691D02*
G01*
X3663387Y1903308D01*
X3836615Y1816691D02*
G01*
X3836615Y1903308D01*
X3700370Y1816691D02*
G01*
X3700370Y1903308D01*
X4428387Y1826691D02*
G01*
X4601615Y1826691D01*
X4428387Y1913308D02*
G01*
X4601615Y1913308D01*
X4428387Y1826691D02*
G01*
X4428387Y1913308D01*
X4601615Y1826691D02*
G01*
X4601615Y1913308D01*
X4465370Y1826691D02*
G01*
X4465370Y1913308D01*
X5198387Y1811691D02*
G01*
X5371615Y1811691D01*
X5198387Y1898308D02*
G01*
X5371615Y1898308D01*
X5198387Y1811691D02*
G01*
X5198387Y1898308D01*
X5371615Y1811691D02*
G01*
X5371615Y1898308D01*
X5235370Y1811691D02*
G01*
X5235370Y1898308D01*
X5938387Y1796691D02*
G01*
X6111615Y1796691D01*
X5938387Y1883308D02*
G01*
X6111615Y1883308D01*
X5938387Y1796691D02*
G01*
X5938387Y1883308D01*
X6111615Y1796691D02*
G01*
X6111615Y1883308D01*
X5975370Y1796691D02*
G01*
X5975370Y1883308D01*
X6703387Y1816691D02*
G01*
X6876615Y1816691D01*
X6703387Y1903308D02*
G01*
X6876615Y1903308D01*
X6703387Y1816691D02*
G01*
X6703387Y1903308D01*
X6876615Y1816691D02*
G01*
X6876615Y1903308D01*
X6740370Y1816691D02*
G01*
X6740370Y1903308D01*
X7483387Y1816691D02*
G01*
X7656615Y1816691D01*
X7483387Y1903308D02*
G01*
X7656615Y1903308D01*
X7483387Y1816691D02*
G01*
X7483387Y1903308D01*
X7656615Y1816691D02*
G01*
X7656615Y1903308D01*
X7520370Y1816691D02*
G01*
X7520370Y1903308D01*
X12103387Y1821691D02*
G01*
X12276615Y1821691D01*
X12103387Y1908308D02*
G01*
X12276615Y1908308D01*
X12103387Y1821691D02*
G01*
X12103387Y1908308D01*
X12276615Y1821691D02*
G01*
X12276615Y1908308D01*
X12140370Y1821691D02*
G01*
X12140370Y1908308D01*
X9548387Y251691D02*
G01*
X9721615Y251691D01*
X9548387Y338308D02*
G01*
X9721615Y338308D01*
X9548387Y251691D02*
G01*
X9548387Y338308D01*
X9721615Y251691D02*
G01*
X9721615Y338308D01*
X9585370Y251691D02*
G01*
X9585370Y338308D01*
X9773387Y1811691D02*
G01*
X9946615Y1811691D01*
X9773387Y1898308D02*
G01*
X9946615Y1898308D01*
X9773387Y1811691D02*
G01*
X9773387Y1898308D01*
X9946615Y1811691D02*
G01*
X9946615Y1898308D01*
X9810370Y1811691D02*
G01*
X9810370Y1898308D01*
X9028387Y1811691D02*
G01*
X9201615Y1811691D01*
X9028387Y1898308D02*
G01*
X9201615Y1898308D01*
X9028387Y1811691D02*
G01*
X9028387Y1898308D01*
X9201615Y1811691D02*
G01*
X9201615Y1898308D01*
X9065370Y1811691D02*
G01*
X9065370Y1898308D01*
X8808387Y261691D02*
G01*
X8981615Y261691D01*
X8808387Y348308D02*
G01*
X8981615Y348308D01*
X8808387Y261691D02*
G01*
X8808387Y348308D01*
X8981615Y261691D02*
G01*
X8981615Y348308D01*
X8845370Y261691D02*
G01*
X8845370Y348308D01*
X1928387Y261691D02*
G01*
X2101615Y261691D01*
X1928387Y348308D02*
G01*
X2101615Y348308D01*
X1928387Y261691D02*
G01*
X1928387Y348308D01*
X2101615Y261691D02*
G01*
X2101615Y348308D01*
X1965370Y261691D02*
G01*
X1965370Y348308D01*
X10958387Y1826691D02*
G01*
X11131615Y1826691D01*
X10958387Y1913308D02*
G01*
X11131615Y1913308D01*
X10958387Y1826691D02*
G01*
X10958387Y1913308D01*
X11131615Y1826691D02*
G01*
X11131615Y1913308D01*
X10995370Y1826691D02*
G01*
X10995370Y1913308D01*
X873387Y276691D02*
G01*
X1046615Y276691D01*
X873387Y363308D02*
G01*
X1046615Y363308D01*
X873387Y276691D02*
G01*
X873387Y363308D01*
X1046615Y276691D02*
G01*
X1046615Y363308D01*
X910370Y276691D02*
G01*
X910370Y363308D01*
X3468387Y261691D02*
G01*
X3641615Y261691D01*
X3468387Y348308D02*
G01*
X3641615Y348308D01*
X3468387Y261691D02*
G01*
X3468387Y348308D01*
X3641615Y261691D02*
G01*
X3641615Y348308D01*
X3505370Y261691D02*
G01*
X3505370Y348308D01*
X12123387Y1031691D02*
G01*
X12296615Y1031691D01*
X12123387Y1118308D02*
G01*
X12296615Y1118308D01*
X12123387Y1031691D02*
G01*
X12123387Y1118308D01*
X12296615Y1031691D02*
G01*
X12296615Y1118308D01*
X12160370Y1031691D02*
G01*
X12160370Y1118308D01*
X3263387Y1031691D02*
G01*
X3436615Y1031691D01*
X3263387Y1118308D02*
G01*
X3436615Y1118308D01*
X3263387Y1031691D02*
G01*
X3263387Y1118308D01*
X3436615Y1031691D02*
G01*
X3436615Y1118308D01*
X3300370Y1031691D02*
G01*
X3300370Y1118308D01*
X568386Y1826691D02*
G01*
X741615Y1826691D01*
X568386Y1913308D02*
G01*
X741615Y1913308D01*
X568386Y1826691D02*
G01*
X568386Y1913308D01*
X741615Y1826691D02*
G01*
X741615Y1913308D01*
X605369Y1826691D02*
G01*
X605369Y1913308D01*
X4203387Y261691D02*
G01*
X4376615Y261691D01*
X4203387Y348308D02*
G01*
X4376615Y348308D01*
X4203387Y261691D02*
G01*
X4203387Y348308D01*
X4376615Y261691D02*
G01*
X4376615Y348308D01*
X4240370Y261691D02*
G01*
X4240370Y348308D01*
X4988387Y261691D02*
G01*
X5161615Y261691D01*
X4988387Y348308D02*
G01*
X5161615Y348308D01*
X4988387Y261691D02*
G01*
X4988387Y348308D01*
X5161615Y261691D02*
G01*
X5161615Y348308D01*
X5025370Y261691D02*
G01*
X5025370Y348308D01*
X5748387Y256691D02*
G01*
X5921615Y256691D01*
X5748387Y343308D02*
G01*
X5921615Y343308D01*
X5748387Y256691D02*
G01*
X5748387Y343308D01*
X5921615Y256691D02*
G01*
X5921615Y343308D01*
X5785370Y256691D02*
G01*
X5785370Y343308D01*
X7088387Y1046691D02*
G01*
X7261615Y1046691D01*
X7088387Y1133308D02*
G01*
X7261615Y1133308D01*
X7088387Y1046691D02*
G01*
X7088387Y1133308D01*
X7261615Y1046691D02*
G01*
X7261615Y1133308D01*
X7125370Y1046691D02*
G01*
X7125370Y1133308D01*
X6513387Y256691D02*
G01*
X6686615Y256691D01*
X6513387Y343308D02*
G01*
X6686615Y343308D01*
X6513387Y256691D02*
G01*
X6513387Y343308D01*
X6686615Y256691D02*
G01*
X6686615Y343308D01*
X6550370Y256691D02*
G01*
X6550370Y343308D01*
X7283387Y256691D02*
G01*
X7456615Y256691D01*
X7283387Y343308D02*
G01*
X7456615Y343308D01*
X7283387Y256691D02*
G01*
X7283387Y343308D01*
X7456615Y256691D02*
G01*
X7456615Y343308D01*
X7320370Y256691D02*
G01*
X7320370Y343308D01*
X8043387Y256691D02*
G01*
X8216615Y256691D01*
X8043387Y343308D02*
G01*
X8216615Y343308D01*
X8043387Y256691D02*
G01*
X8043387Y343308D01*
X8216615Y256691D02*
G01*
X8216615Y343308D01*
X8080370Y256691D02*
G01*
X8080370Y343308D01*
X7843387Y1036691D02*
G01*
X8016615Y1036691D01*
X7843387Y1123308D02*
G01*
X8016615Y1123308D01*
X7843387Y1036691D02*
G01*
X7843387Y1123308D01*
X8016615Y1036691D02*
G01*
X8016615Y1123308D01*
X7880370Y1036691D02*
G01*
X7880370Y1123308D01*
X12153387Y266691D02*
G01*
X12326615Y266691D01*
X12153387Y353308D02*
G01*
X12326615Y353308D01*
X12153387Y266691D02*
G01*
X12153387Y353308D01*
X12326615Y266691D02*
G01*
X12326615Y353308D01*
X12190370Y266691D02*
G01*
X12190370Y353308D01*
X8623387Y1041691D02*
G01*
X8796615Y1041691D01*
X8623387Y1128308D02*
G01*
X8796615Y1128308D01*
X8623387Y1041691D02*
G01*
X8623387Y1128308D01*
X8796615Y1041691D02*
G01*
X8796615Y1128308D01*
X8660370Y1041691D02*
G01*
X8660370Y1128308D01*
X1728387Y1031691D02*
G01*
X1901615Y1031691D01*
X1728387Y1118308D02*
G01*
X1901615Y1118308D01*
X1728387Y1031691D02*
G01*
X1728387Y1118308D01*
X1901615Y1031691D02*
G01*
X1901615Y1118308D01*
X1765370Y1031691D02*
G01*
X1765370Y1118308D01*
X4033387Y1026691D02*
G01*
X4206615Y1026691D01*
X4033387Y1113308D02*
G01*
X4206615Y1113308D01*
X4033387Y1026691D02*
G01*
X4033387Y1113308D01*
X4206615Y1026691D02*
G01*
X4206615Y1113308D01*
X4070370Y1026691D02*
G01*
X4070370Y1113308D01*
X2688387Y261691D02*
G01*
X2861615Y261691D01*
X2688387Y348308D02*
G01*
X2861615Y348308D01*
X2688387Y261691D02*
G01*
X2688387Y348308D01*
X2861615Y261691D02*
G01*
X2861615Y348308D01*
X2725370Y261691D02*
G01*
X2725370Y348308D01*
X663386Y1031691D02*
G01*
X836615Y1031691D01*
X663386Y1118308D02*
G01*
X836615Y1118308D01*
X663386Y1031691D02*
G01*
X663386Y1118308D01*
X836615Y1031691D02*
G01*
X836615Y1118308D01*
X700369Y1031691D02*
G01*
X700369Y1118308D01*
X4793387Y1026691D02*
G01*
X4966615Y1026691D01*
X4793387Y1113308D02*
G01*
X4966615Y1113308D01*
X4793387Y1026691D02*
G01*
X4793387Y1113308D01*
X4966615Y1026691D02*
G01*
X4966615Y1113308D01*
X4830370Y1026691D02*
G01*
X4830370Y1113308D01*
X6313387Y1031691D02*
G01*
X6486615Y1031691D01*
X6313387Y1118308D02*
G01*
X6486615Y1118308D01*
X6313387Y1031691D02*
G01*
X6313387Y1118308D01*
X6486615Y1031691D02*
G01*
X6486615Y1118308D01*
X6350370Y1031691D02*
G01*
X6350370Y1118308D01*
X2493387Y1031691D02*
G01*
X2666615Y1031691D01*
X2493387Y1118308D02*
G01*
X2666615Y1118308D01*
X2493387Y1031691D02*
G01*
X2493387Y1118308D01*
X2666615Y1031691D02*
G01*
X2666615Y1118308D01*
X2530370Y1031691D02*
G01*
X2530370Y1118308D01*
X5533387Y1026691D02*
G01*
X5706615Y1026691D01*
X5533387Y1113308D02*
G01*
X5706615Y1113308D01*
X5533387Y1026691D02*
G01*
X5533387Y1113308D01*
X5706615Y1026691D02*
G01*
X5706615Y1113308D01*
X5570370Y1026691D02*
G01*
X5570370Y1113308D01*
X9378387Y1036691D02*
G01*
X9551615Y1036691D01*
X9378387Y1123308D02*
G01*
X9551615Y1123308D01*
X9378387Y1036691D02*
G01*
X9378387Y1123308D01*
X9551615Y1036691D02*
G01*
X9551615Y1123308D01*
X9415370Y1036691D02*
G01*
X9415370Y1123308D01*
X10148387Y1031691D02*
G01*
X10321615Y1031691D01*
X10148387Y1118308D02*
G01*
X10321615Y1118308D01*
X10148387Y1031691D02*
G01*
X10148387Y1118308D01*
X10321615Y1031691D02*
G01*
X10321615Y1118308D01*
X10185370Y1031691D02*
G01*
X10185370Y1118308D01*
X1378387Y1806691D02*
G01*
X1551615Y1806691D01*
X1378387Y1893308D02*
G01*
X1551615Y1893308D01*
X1378387Y1806691D02*
G01*
X1378387Y1893308D01*
X1551615Y1806691D02*
G01*
X1551615Y1893308D01*
X1415370Y1806691D02*
G01*
X1415370Y1893308D01*
X2103387Y1811691D02*
G01*
X2276615Y1811691D01*
X2103387Y1898308D02*
G01*
X2276615Y1898308D01*
X2103387Y1811691D02*
G01*
X2103387Y1898308D01*
X2276615Y1811691D02*
G01*
X2276615Y1898308D01*
X2140370Y1811691D02*
G01*
X2140370Y1898308D01*
X2893387Y1816691D02*
G01*
X3066615Y1816691D01*
X2893387Y1903308D02*
G01*
X3066615Y1903308D01*
X2893387Y1816691D02*
G01*
X2893387Y1903308D01*
X3066615Y1816691D02*
G01*
X3066615Y1903308D01*
X2930370Y1816691D02*
G01*
X2930370Y1903308D01*
X9635906Y73661D02*
G01*
X9676850Y73661D01*
X9846535Y73661D01*
X9413464Y-1140D02*
G01*
X9551260Y-1140D01*
X9413464Y-1140D02*
G01*
X9413464Y5702D01*
X9846535Y224297D02*
G01*
X9846535Y231141D01*
X9846535Y83503D02*
G01*
X9846535Y105702D01*
X9413464Y5702D02*
G01*
X9413464Y140054D01*
X9846535Y231141D02*
G01*
X9504552Y231141D01*
X9846535Y83501D02*
G01*
X9846535Y73661D01*
X9635906Y73661D02*
G01*
X9626063Y73661D01*
X7720906Y-701338D02*
G01*
X7761850Y-701338D01*
X7931535Y-701338D01*
X7498464Y-776140D02*
G01*
X7636260Y-776140D01*
X7498464Y-776140D02*
G01*
X7498464Y-769297D01*
X7931535Y-550702D02*
G01*
X7931535Y-543858D01*
X7931535Y-691496D02*
G01*
X7931535Y-669297D01*
X7498464Y-769297D02*
G01*
X7498464Y-634945D01*
X7931535Y-543858D02*
G01*
X7589552Y-543858D01*
X7931535Y-691498D02*
G01*
X7931535Y-701338D01*
X7720906Y-701338D02*
G01*
X7711063Y-701338D01*
X8485906Y-701338D02*
G01*
X8526850Y-701338D01*
X8696535Y-701338D01*
X8263464Y-776140D02*
G01*
X8401260Y-776140D01*
X8263464Y-776140D02*
G01*
X8263464Y-769297D01*
X8696535Y-550702D02*
G01*
X8696535Y-543858D01*
X8696535Y-691496D02*
G01*
X8696535Y-669297D01*
X8263464Y-769297D02*
G01*
X8263464Y-634945D01*
X8696535Y-543858D02*
G01*
X8354552Y-543858D01*
X8696535Y-691498D02*
G01*
X8696535Y-701338D01*
X8485906Y-701338D02*
G01*
X8476063Y-701338D01*
X9245906Y-696338D02*
G01*
X9286850Y-696338D01*
X9456535Y-696338D01*
X9023464Y-771140D02*
G01*
X9161260Y-771140D01*
X9023464Y-771140D02*
G01*
X9023464Y-764297D01*
X9456535Y-545702D02*
G01*
X9456535Y-538858D01*
X9456535Y-686496D02*
G01*
X9456535Y-664297D01*
X9023464Y-764297D02*
G01*
X9023464Y-629945D01*
X9456535Y-538858D02*
G01*
X9114552Y-538858D01*
X9456535Y-686498D02*
G01*
X9456535Y-696338D01*
X9245906Y-696338D02*
G01*
X9236063Y-696338D01*
X8875906Y73661D02*
G01*
X8916850Y73661D01*
X9086535Y73661D01*
X8653464Y-1140D02*
G01*
X8791260Y-1140D01*
X8653464Y-1140D02*
G01*
X8653464Y5702D01*
X9086535Y224297D02*
G01*
X9086535Y231141D01*
X9086535Y83503D02*
G01*
X9086535Y105702D01*
X8653464Y5702D02*
G01*
X8653464Y140054D01*
X9086535Y231141D02*
G01*
X8744552Y231141D01*
X9086535Y83501D02*
G01*
X9086535Y73661D01*
X8875906Y73661D02*
G01*
X8866063Y73661D01*
X1990906Y73661D02*
G01*
X2031850Y73661D01*
X2201535Y73661D01*
X1768464Y-1140D02*
G01*
X1906260Y-1140D01*
X1768464Y-1140D02*
G01*
X1768464Y5702D01*
X2201535Y224297D02*
G01*
X2201535Y231141D01*
X2201535Y83503D02*
G01*
X2201535Y105702D01*
X1768464Y5702D02*
G01*
X1768464Y140054D01*
X2201535Y231141D02*
G01*
X1859552Y231141D01*
X2201535Y83501D02*
G01*
X2201535Y73661D01*
X1990906Y73661D02*
G01*
X1981063Y73661D01*
X5425906Y-701338D02*
G01*
X5466850Y-701338D01*
X5636535Y-701338D01*
X5203464Y-776140D02*
G01*
X5341260Y-776140D01*
X5203464Y-776140D02*
G01*
X5203464Y-769297D01*
X5636535Y-550702D02*
G01*
X5636535Y-543858D01*
X5636535Y-691496D02*
G01*
X5636535Y-669297D01*
X5203464Y-769297D02*
G01*
X5203464Y-634945D01*
X5636535Y-543858D02*
G01*
X5294552Y-543858D01*
X5636535Y-691498D02*
G01*
X5636535Y-701338D01*
X5425906Y-701338D02*
G01*
X5416063Y-701338D01*
X3895906Y-701338D02*
G01*
X3936850Y-701338D01*
X4106535Y-701338D01*
X3673464Y-776140D02*
G01*
X3811260Y-776140D01*
X3673464Y-776140D02*
G01*
X3673464Y-769297D01*
X4106535Y-550702D02*
G01*
X4106535Y-543858D01*
X4106535Y-691496D02*
G01*
X4106535Y-669297D01*
X3673464Y-769297D02*
G01*
X3673464Y-634945D01*
X4106535Y-543858D02*
G01*
X3764552Y-543858D01*
X4106535Y-691498D02*
G01*
X4106535Y-701338D01*
X3895906Y-701338D02*
G01*
X3886063Y-701338D01*
X940906Y83661D02*
G01*
X981850Y83661D01*
X1151535Y83661D01*
X718465Y8859D02*
G01*
X856260Y8859D01*
X718465Y8859D02*
G01*
X718465Y15702D01*
X1151535Y234297D02*
G01*
X1151535Y241141D01*
X1151535Y93503D02*
G01*
X1151535Y115702D01*
X718465Y15702D02*
G01*
X718465Y150054D01*
X1151535Y241141D02*
G01*
X809552Y241141D01*
X1151535Y93501D02*
G01*
X1151535Y83661D01*
X940906Y83661D02*
G01*
X931063Y83661D01*
X3520906Y73661D02*
G01*
X3561850Y73661D01*
X3731535Y73661D01*
X3298464Y-1140D02*
G01*
X3436260Y-1140D01*
X3298464Y-1140D02*
G01*
X3298464Y5702D01*
X3731535Y224297D02*
G01*
X3731535Y231141D01*
X3731535Y83503D02*
G01*
X3731535Y105702D01*
X3298464Y5702D02*
G01*
X3298464Y140054D01*
X3731535Y231141D02*
G01*
X3389552Y231141D01*
X3731535Y83501D02*
G01*
X3731535Y73661D01*
X3520906Y73661D02*
G01*
X3511063Y73661D01*
X12195906Y848661D02*
G01*
X12236850Y848661D01*
X12406535Y848661D01*
X11973464Y773859D02*
G01*
X12111260Y773859D01*
X11973464Y773859D02*
G01*
X11973464Y780702D01*
X12406535Y999297D02*
G01*
X12406535Y1006141D01*
X12406535Y858503D02*
G01*
X12406535Y880702D01*
X11973464Y780702D02*
G01*
X11973464Y915054D01*
X12406535Y1006141D02*
G01*
X12064552Y1006141D01*
X12406535Y858501D02*
G01*
X12406535Y848661D01*
X12195906Y848661D02*
G01*
X12186063Y848661D01*
X11385906Y-1526338D02*
G01*
X11426850Y-1526338D01*
X11596535Y-1526338D01*
X11163464Y-1601140D02*
G01*
X11301260Y-1601140D01*
X11163464Y-1601140D02*
G01*
X11163464Y-1594297D01*
X11596535Y-1375702D02*
G01*
X11596535Y-1368858D01*
X11596535Y-1516496D02*
G01*
X11596535Y-1494297D01*
X11163464Y-1594297D02*
G01*
X11163464Y-1459946D01*
X11596535Y-1368858D02*
G01*
X11254552Y-1368858D01*
X11596535Y-1516498D02*
G01*
X11596535Y-1526338D01*
X11385906Y-1526338D02*
G01*
X11376063Y-1526338D01*
X10920906Y78661D02*
G01*
X10961850Y78661D01*
X11131535Y78661D01*
X10698464Y3859D02*
G01*
X10836260Y3859D01*
X10698464Y3859D02*
G01*
X10698464Y10702D01*
X11131535Y229297D02*
G01*
X11131535Y236141D01*
X11131535Y88503D02*
G01*
X11131535Y110702D01*
X10698464Y10702D02*
G01*
X10698464Y145054D01*
X11131535Y236141D02*
G01*
X10789552Y236141D01*
X11131535Y88501D02*
G01*
X11131535Y78661D01*
X10920906Y78661D02*
G01*
X10911063Y78661D01*
X4285906Y73661D02*
G01*
X4326850Y73661D01*
X4496535Y73661D01*
X4063464Y-1140D02*
G01*
X4201260Y-1140D01*
X4063464Y-1140D02*
G01*
X4063464Y5702D01*
X4496535Y224297D02*
G01*
X4496535Y231141D01*
X4496535Y83503D02*
G01*
X4496535Y105702D01*
X4063464Y5702D02*
G01*
X4063464Y140054D01*
X4496535Y231141D02*
G01*
X4154552Y231141D01*
X4496535Y83501D02*
G01*
X4496535Y73661D01*
X4285906Y73661D02*
G01*
X4276063Y73661D01*
X9010906Y-1526338D02*
G01*
X9051850Y-1526338D01*
X9221535Y-1526338D01*
X8788464Y-1601140D02*
G01*
X8926260Y-1601140D01*
X8788464Y-1601140D02*
G01*
X8788464Y-1594297D01*
X9221535Y-1375702D02*
G01*
X9221535Y-1368858D01*
X9221535Y-1516496D02*
G01*
X9221535Y-1494297D01*
X8788464Y-1594297D02*
G01*
X8788464Y-1459946D01*
X9221535Y-1368858D02*
G01*
X8879552Y-1368858D01*
X9221535Y-1516498D02*
G01*
X9221535Y-1526338D01*
X9010906Y-1526338D02*
G01*
X9001063Y-1526338D01*
X5050906Y73661D02*
G01*
X5091850Y73661D01*
X5261535Y73661D01*
X4828464Y-1140D02*
G01*
X4966260Y-1140D01*
X4828464Y-1140D02*
G01*
X4828464Y5702D01*
X5261535Y224297D02*
G01*
X5261535Y231141D01*
X5261535Y83503D02*
G01*
X5261535Y105702D01*
X4828464Y5702D02*
G01*
X4828464Y140054D01*
X5261535Y231141D02*
G01*
X4919552Y231141D01*
X5261535Y83501D02*
G01*
X5261535Y73661D01*
X5050906Y73661D02*
G01*
X5041063Y73661D01*
X5815906Y73661D02*
G01*
X5856850Y73661D01*
X6026535Y73661D01*
X5593464Y-1140D02*
G01*
X5731260Y-1140D01*
X5593464Y-1140D02*
G01*
X5593464Y5702D01*
X6026535Y224297D02*
G01*
X6026535Y231141D01*
X6026535Y83503D02*
G01*
X6026535Y105702D01*
X5593464Y5702D02*
G01*
X5593464Y140054D01*
X6026535Y231141D02*
G01*
X5684552Y231141D01*
X6026535Y83501D02*
G01*
X6026535Y73661D01*
X5815906Y73661D02*
G01*
X5806063Y73661D01*
X6580906Y73661D02*
G01*
X6621850Y73661D01*
X6791535Y73661D01*
X6358464Y-1140D02*
G01*
X6496260Y-1140D01*
X6358464Y-1140D02*
G01*
X6358464Y5702D01*
X6791535Y224297D02*
G01*
X6791535Y231141D01*
X6791535Y83503D02*
G01*
X6791535Y105702D01*
X6358464Y5702D02*
G01*
X6358464Y140054D01*
X6791535Y231141D02*
G01*
X6449552Y231141D01*
X6791535Y83501D02*
G01*
X6791535Y73661D01*
X6580906Y73661D02*
G01*
X6571063Y73661D01*
X7345906Y73661D02*
G01*
X7386850Y73661D01*
X7556535Y73661D01*
X7123464Y-1140D02*
G01*
X7261260Y-1140D01*
X7123464Y-1140D02*
G01*
X7123464Y5702D01*
X7556535Y224297D02*
G01*
X7556535Y231141D01*
X7556535Y83503D02*
G01*
X7556535Y105702D01*
X7123464Y5702D02*
G01*
X7123464Y140054D01*
X7556535Y231141D02*
G01*
X7214552Y231141D01*
X7556535Y83501D02*
G01*
X7556535Y73661D01*
X7345906Y73661D02*
G01*
X7336063Y73661D01*
X8110906Y73661D02*
G01*
X8151850Y73661D01*
X8321535Y73661D01*
X7888464Y-1140D02*
G01*
X8026260Y-1140D01*
X7888464Y-1140D02*
G01*
X7888464Y5702D01*
X8321535Y224297D02*
G01*
X8321535Y231141D01*
X8321535Y83503D02*
G01*
X8321535Y105702D01*
X7888464Y5702D02*
G01*
X7888464Y140054D01*
X8321535Y231141D02*
G01*
X7979552Y231141D01*
X8321535Y83501D02*
G01*
X8321535Y73661D01*
X8110906Y73661D02*
G01*
X8101063Y73661D01*
X2665906Y-1516338D02*
G01*
X2706850Y-1516338D01*
X2876535Y-1516338D01*
X2443464Y-1591140D02*
G01*
X2581260Y-1591140D01*
X2443464Y-1591140D02*
G01*
X2443464Y-1584297D01*
X2876535Y-1365702D02*
G01*
X2876535Y-1358858D01*
X2876535Y-1506496D02*
G01*
X2876535Y-1484297D01*
X2443464Y-1584297D02*
G01*
X2443464Y-1449946D01*
X2876535Y-1358858D02*
G01*
X2534552Y-1358858D01*
X2876535Y-1506498D02*
G01*
X2876535Y-1516338D01*
X2665906Y-1516338D02*
G01*
X2656063Y-1516338D01*
X10565906Y-1526338D02*
G01*
X10606850Y-1526338D01*
X10776535Y-1526338D01*
X10343464Y-1601140D02*
G01*
X10481260Y-1601140D01*
X10343464Y-1601140D02*
G01*
X10343464Y-1594297D01*
X10776535Y-1375702D02*
G01*
X10776535Y-1368858D01*
X10776535Y-1516496D02*
G01*
X10776535Y-1494297D01*
X10343464Y-1594297D02*
G01*
X10343464Y-1459946D01*
X10776535Y-1368858D02*
G01*
X10434552Y-1368858D01*
X10776535Y-1516498D02*
G01*
X10776535Y-1526338D01*
X10565906Y-1526338D02*
G01*
X10556063Y-1526338D01*
X755906Y-1516338D02*
G01*
X796850Y-1516338D01*
X966535Y-1516338D01*
X533465Y-1591140D02*
G01*
X671260Y-1591140D01*
X533465Y-1591140D02*
G01*
X533465Y-1584297D01*
X966535Y-1365702D02*
G01*
X966535Y-1358858D01*
X966535Y-1506496D02*
G01*
X966535Y-1484297D01*
X533465Y-1584297D02*
G01*
X533465Y-1449946D01*
X966535Y-1358858D02*
G01*
X624553Y-1358858D01*
X966535Y-1506498D02*
G01*
X966535Y-1516338D01*
X755906Y-1516338D02*
G01*
X746062Y-1516338D01*
X1130906Y-696338D02*
G01*
X1171850Y-696338D01*
X1341535Y-696338D01*
X908464Y-771140D02*
G01*
X1046260Y-771140D01*
X908464Y-771140D02*
G01*
X908464Y-764297D01*
X1341535Y-545702D02*
G01*
X1341535Y-538858D01*
X1341535Y-686496D02*
G01*
X1341535Y-664297D01*
X908464Y-764297D02*
G01*
X908464Y-629945D01*
X1341535Y-538858D02*
G01*
X999552Y-538858D01*
X1341535Y-686498D02*
G01*
X1341535Y-696338D01*
X1130906Y-696338D02*
G01*
X1121063Y-696338D01*
X6955906Y-701338D02*
G01*
X6996850Y-701338D01*
X7166535Y-701338D01*
X6733464Y-776140D02*
G01*
X6871260Y-776140D01*
X6733464Y-776140D02*
G01*
X6733464Y-769297D01*
X7166535Y-550702D02*
G01*
X7166535Y-543858D01*
X7166535Y-691496D02*
G01*
X7166535Y-669297D01*
X6733464Y-769297D02*
G01*
X6733464Y-634945D01*
X7166535Y-543858D02*
G01*
X6824552Y-543858D01*
X7166535Y-691498D02*
G01*
X7166535Y-701338D01*
X6955906Y-701338D02*
G01*
X6946063Y-701338D01*
X6190906Y-701338D02*
G01*
X6231850Y-701338D01*
X6401535Y-701338D01*
X5968464Y-776140D02*
G01*
X6106260Y-776140D01*
X5968464Y-776140D02*
G01*
X5968464Y-769297D01*
X6401535Y-550702D02*
G01*
X6401535Y-543858D01*
X6401535Y-691496D02*
G01*
X6401535Y-669297D01*
X5968464Y-769297D02*
G01*
X5968464Y-634945D01*
X6401535Y-543858D02*
G01*
X6059552Y-543858D01*
X6401535Y-691498D02*
G01*
X6401535Y-701338D01*
X6190906Y-701338D02*
G01*
X6181063Y-701338D01*
X12195906Y-706338D02*
G01*
X12236850Y-706338D01*
X12406535Y-706338D01*
X11973464Y-781140D02*
G01*
X12111260Y-781140D01*
X11973464Y-781140D02*
G01*
X11973464Y-774297D01*
X12406535Y-555702D02*
G01*
X12406535Y-548858D01*
X12406535Y-696496D02*
G01*
X12406535Y-674297D01*
X11973464Y-774297D02*
G01*
X11973464Y-639945D01*
X12406535Y-548858D02*
G01*
X12064552Y-548858D01*
X12406535Y-696498D02*
G01*
X12406535Y-706338D01*
X12195906Y-706338D02*
G01*
X12186063Y-706338D01*
X12195906Y73661D02*
G01*
X12236850Y73661D01*
X12406535Y73661D01*
X11973464Y-1140D02*
G01*
X12111260Y-1140D01*
X11973464Y-1140D02*
G01*
X11973464Y5702D01*
X12406535Y224297D02*
G01*
X12406535Y231141D01*
X12406535Y83503D02*
G01*
X12406535Y105702D01*
X11973464Y5702D02*
G01*
X11973464Y140054D01*
X12406535Y231141D02*
G01*
X12064552Y231141D01*
X12406535Y83501D02*
G01*
X12406535Y73661D01*
X12195906Y73661D02*
G01*
X12186063Y73661D01*
X8245906Y-1526338D02*
G01*
X8286850Y-1526338D01*
X8456535Y-1526338D01*
X8023464Y-1601140D02*
G01*
X8161260Y-1601140D01*
X8023464Y-1601140D02*
G01*
X8023464Y-1594297D01*
X8456535Y-1375702D02*
G01*
X8456535Y-1368858D01*
X8456535Y-1516496D02*
G01*
X8456535Y-1494297D01*
X8023464Y-1594297D02*
G01*
X8023464Y-1459946D01*
X8456535Y-1368858D02*
G01*
X8114552Y-1368858D01*
X8456535Y-1516498D02*
G01*
X8456535Y-1526338D01*
X8245906Y-1526338D02*
G01*
X8236063Y-1526338D01*
X12190906Y-1526338D02*
G01*
X12231850Y-1526338D01*
X12401535Y-1526338D01*
X11968464Y-1601140D02*
G01*
X12106260Y-1601140D01*
X11968464Y-1601140D02*
G01*
X11968464Y-1594297D01*
X12401535Y-1375702D02*
G01*
X12401535Y-1368858D01*
X12401535Y-1516496D02*
G01*
X12401535Y-1494297D01*
X11968464Y-1594297D02*
G01*
X11968464Y-1459946D01*
X12401535Y-1368858D02*
G01*
X12059552Y-1368858D01*
X12401535Y-1516498D02*
G01*
X12401535Y-1526338D01*
X12190906Y-1526338D02*
G01*
X12181063Y-1526338D01*
X9775906Y-1526338D02*
G01*
X9816850Y-1526338D01*
X9986535Y-1526338D01*
X9553464Y-1601140D02*
G01*
X9691260Y-1601140D01*
X9553464Y-1601140D02*
G01*
X9553464Y-1594297D01*
X9986535Y-1375702D02*
G01*
X9986535Y-1368858D01*
X9986535Y-1516496D02*
G01*
X9986535Y-1494297D01*
X9553464Y-1594297D02*
G01*
X9553464Y-1459946D01*
X9986535Y-1368858D02*
G01*
X9644552Y-1368858D01*
X9986535Y-1516498D02*
G01*
X9986535Y-1526338D01*
X9775906Y-1526338D02*
G01*
X9766063Y-1526338D01*
X10355906Y-696338D02*
G01*
X10396850Y-696338D01*
X10566535Y-696338D01*
X10133464Y-771140D02*
G01*
X10271260Y-771140D01*
X10133464Y-771140D02*
G01*
X10133464Y-764297D01*
X10566535Y-545702D02*
G01*
X10566535Y-538858D01*
X10566535Y-686496D02*
G01*
X10566535Y-664297D01*
X10133464Y-764297D02*
G01*
X10133464Y-629945D01*
X10566535Y-538858D02*
G01*
X10224552Y-538858D01*
X10566535Y-686498D02*
G01*
X10566535Y-696338D01*
X10355906Y-696338D02*
G01*
X10346063Y-696338D01*
X2755906Y73661D02*
G01*
X2796850Y73661D01*
X2966535Y73661D01*
X2533464Y-1140D02*
G01*
X2671260Y-1140D01*
X2533464Y-1140D02*
G01*
X2533464Y5702D01*
X2966535Y224297D02*
G01*
X2966535Y231141D01*
X2966535Y83503D02*
G01*
X2966535Y105702D01*
X2533464Y5702D02*
G01*
X2533464Y140054D01*
X2966535Y231141D02*
G01*
X2624552Y231141D01*
X2966535Y83501D02*
G01*
X2966535Y73661D01*
X2755906Y73661D02*
G01*
X2746063Y73661D01*
X5495906Y-1516338D02*
G01*
X5536850Y-1516338D01*
X5706535Y-1516338D01*
X5273464Y-1591140D02*
G01*
X5411260Y-1591140D01*
X5273464Y-1591140D02*
G01*
X5273464Y-1584297D01*
X5706535Y-1365702D02*
G01*
X5706535Y-1358858D01*
X5706535Y-1506496D02*
G01*
X5706535Y-1484297D01*
X5273464Y-1584297D02*
G01*
X5273464Y-1449946D01*
X5706535Y-1358858D02*
G01*
X5364552Y-1358858D01*
X5706535Y-1506498D02*
G01*
X5706535Y-1516338D01*
X5495906Y-1516338D02*
G01*
X5486063Y-1516338D01*
X11430906Y-706338D02*
G01*
X11471850Y-706338D01*
X11641535Y-706338D01*
X11208464Y-781140D02*
G01*
X11346260Y-781140D01*
X11208464Y-781140D02*
G01*
X11208464Y-774297D01*
X11641535Y-555702D02*
G01*
X11641535Y-548858D01*
X11641535Y-696496D02*
G01*
X11641535Y-674297D01*
X11208464Y-774297D02*
G01*
X11208464Y-639945D01*
X11641535Y-548858D02*
G01*
X11299552Y-548858D01*
X11641535Y-696498D02*
G01*
X11641535Y-706338D01*
X11430906Y-706338D02*
G01*
X11421063Y-706338D01*
X4660906Y-701338D02*
G01*
X4701850Y-701338D01*
X4871535Y-701338D01*
X4438464Y-776140D02*
G01*
X4576260Y-776140D01*
X4438464Y-776140D02*
G01*
X4438464Y-769297D01*
X4871535Y-550702D02*
G01*
X4871535Y-543858D01*
X4871535Y-691496D02*
G01*
X4871535Y-669297D01*
X4438464Y-769297D02*
G01*
X4438464Y-634945D01*
X4871535Y-543858D02*
G01*
X4529552Y-543858D01*
X4871535Y-691498D02*
G01*
X4871535Y-701338D01*
X4660906Y-701338D02*
G01*
X4651063Y-701338D01*
X1710906Y-1516338D02*
G01*
X1751850Y-1516338D01*
X1921535Y-1516338D01*
X1488464Y-1591140D02*
G01*
X1626260Y-1591140D01*
X1488464Y-1591140D02*
G01*
X1488464Y-1584297D01*
X1921535Y-1365702D02*
G01*
X1921535Y-1358858D01*
X1921535Y-1506496D02*
G01*
X1921535Y-1484297D01*
X1488464Y-1584297D02*
G01*
X1488464Y-1449946D01*
X1921535Y-1358858D02*
G01*
X1579552Y-1358858D01*
X1921535Y-1506498D02*
G01*
X1921535Y-1516338D01*
X1710906Y-1516338D02*
G01*
X1701063Y-1516338D01*
X3130906Y-701338D02*
G01*
X3171850Y-701338D01*
X3341535Y-701338D01*
X2908464Y-776140D02*
G01*
X3046260Y-776140D01*
X2908464Y-776140D02*
G01*
X2908464Y-769297D01*
X3341535Y-550702D02*
G01*
X3341535Y-543858D01*
X3341535Y-691496D02*
G01*
X3341535Y-669297D01*
X2908464Y-769297D02*
G01*
X2908464Y-634945D01*
X3341535Y-543858D02*
G01*
X2999552Y-543858D01*
X3341535Y-691498D02*
G01*
X3341535Y-701338D01*
X3130906Y-701338D02*
G01*
X3121063Y-701338D01*
X2365906Y-701338D02*
G01*
X2406850Y-701338D01*
X2576535Y-701338D01*
X2143464Y-776140D02*
G01*
X2281260Y-776140D01*
X2143464Y-776140D02*
G01*
X2143464Y-769297D01*
X2576535Y-550702D02*
G01*
X2576535Y-543858D01*
X2576535Y-691496D02*
G01*
X2576535Y-669297D01*
X2143464Y-769297D02*
G01*
X2143464Y-634945D01*
X2576535Y-543858D02*
G01*
X2234552Y-543858D01*
X2576535Y-691498D02*
G01*
X2576535Y-701338D01*
X2365906Y-701338D02*
G01*
X2356063Y-701338D01*
X11200906Y853661D02*
G01*
X11241850Y853661D01*
X11411535Y853661D01*
X10978464Y778859D02*
G01*
X11116260Y778859D01*
X10978464Y778859D02*
G01*
X10978464Y785702D01*
X11411535Y1004297D02*
G01*
X11411535Y1011141D01*
X11411535Y863503D02*
G01*
X11411535Y885702D01*
X10978464Y785702D02*
G01*
X10978464Y920054D01*
X11411535Y1011141D02*
G01*
X11069552Y1011141D01*
X11411535Y863501D02*
G01*
X11411535Y853661D01*
X11200906Y853661D02*
G01*
X11191063Y853661D01*
X10210906Y848661D02*
G01*
X10251850Y848661D01*
X10421535Y848661D01*
X9988464Y773859D02*
G01*
X10126260Y773859D01*
X9988464Y773859D02*
G01*
X9988464Y780702D01*
X10421535Y999297D02*
G01*
X10421535Y1006141D01*
X10421535Y858503D02*
G01*
X10421535Y880702D01*
X9988464Y780702D02*
G01*
X9988464Y915054D01*
X10421535Y1006141D02*
G01*
X10079552Y1006141D01*
X10421535Y858501D02*
G01*
X10421535Y848661D01*
X10210906Y848661D02*
G01*
X10201063Y848661D01*
X8300906Y1618661D02*
G01*
X8341850Y1618661D01*
X8511535Y1618661D01*
X8078464Y1543859D02*
G01*
X8216260Y1543859D01*
X8078464Y1543859D02*
G01*
X8078464Y1550702D01*
X8511535Y1769297D02*
G01*
X8511535Y1776141D01*
X8511535Y1628503D02*
G01*
X8511535Y1650702D01*
X8078464Y1550702D02*
G01*
X8078464Y1685054D01*
X8511535Y1776141D02*
G01*
X8169552Y1776141D01*
X8511535Y1628501D02*
G01*
X8511535Y1618661D01*
X8300906Y1618661D02*
G01*
X8291063Y1618661D01*
X1420906Y1618661D02*
G01*
X1461850Y1618661D01*
X1631535Y1618661D01*
X1198464Y1543859D02*
G01*
X1336260Y1543859D01*
X1198464Y1543859D02*
G01*
X1198464Y1550702D01*
X1631535Y1769297D02*
G01*
X1631535Y1776141D01*
X1631535Y1628503D02*
G01*
X1631535Y1650702D01*
X1198464Y1550702D02*
G01*
X1198464Y1685054D01*
X1631535Y1776141D02*
G01*
X1289552Y1776141D01*
X1631535Y1628501D02*
G01*
X1631535Y1618661D01*
X1420906Y1618661D02*
G01*
X1411063Y1618661D01*
X2185906Y1618661D02*
G01*
X2226850Y1618661D01*
X2396535Y1618661D01*
X1963464Y1543859D02*
G01*
X2101260Y1543859D01*
X1963464Y1543859D02*
G01*
X1963464Y1550702D01*
X2396535Y1769297D02*
G01*
X2396535Y1776141D01*
X2396535Y1628503D02*
G01*
X2396535Y1650702D01*
X1963464Y1550702D02*
G01*
X1963464Y1685054D01*
X2396535Y1776141D02*
G01*
X2054552Y1776141D01*
X2396535Y1628501D02*
G01*
X2396535Y1618661D01*
X2185906Y1618661D02*
G01*
X2176063Y1618661D01*
X2950906Y1618661D02*
G01*
X2991850Y1618661D01*
X3161535Y1618661D01*
X2728464Y1543859D02*
G01*
X2866260Y1543859D01*
X2728464Y1543859D02*
G01*
X2728464Y1550702D01*
X3161535Y1769297D02*
G01*
X3161535Y1776141D01*
X3161535Y1628503D02*
G01*
X3161535Y1650702D01*
X2728464Y1550702D02*
G01*
X2728464Y1685054D01*
X3161535Y1776141D02*
G01*
X2819552Y1776141D01*
X3161535Y1628501D02*
G01*
X3161535Y1618661D01*
X2950906Y1618661D02*
G01*
X2941063Y1618661D01*
X3715906Y1618661D02*
G01*
X3756850Y1618661D01*
X3926535Y1618661D01*
X3493464Y1543859D02*
G01*
X3631260Y1543859D01*
X3493464Y1543859D02*
G01*
X3493464Y1550702D01*
X3926535Y1769297D02*
G01*
X3926535Y1776141D01*
X3926535Y1628503D02*
G01*
X3926535Y1650702D01*
X3493464Y1550702D02*
G01*
X3493464Y1685054D01*
X3926535Y1776141D02*
G01*
X3584552Y1776141D01*
X3926535Y1628501D02*
G01*
X3926535Y1618661D01*
X3715906Y1618661D02*
G01*
X3706063Y1618661D01*
X4480906Y1618661D02*
G01*
X4521850Y1618661D01*
X4691535Y1618661D01*
X4258464Y1543859D02*
G01*
X4396260Y1543859D01*
X4258464Y1543859D02*
G01*
X4258464Y1550702D01*
X4691535Y1769297D02*
G01*
X4691535Y1776141D01*
X4691535Y1628503D02*
G01*
X4691535Y1650702D01*
X4258464Y1550702D02*
G01*
X4258464Y1685054D01*
X4691535Y1776141D02*
G01*
X4349552Y1776141D01*
X4691535Y1628501D02*
G01*
X4691535Y1618661D01*
X4480906Y1618661D02*
G01*
X4471063Y1618661D01*
X5245906Y1618661D02*
G01*
X5286850Y1618661D01*
X5456535Y1618661D01*
X5023464Y1543859D02*
G01*
X5161260Y1543859D01*
X5023464Y1543859D02*
G01*
X5023464Y1550702D01*
X5456535Y1769297D02*
G01*
X5456535Y1776141D01*
X5456535Y1628503D02*
G01*
X5456535Y1650702D01*
X5023464Y1550702D02*
G01*
X5023464Y1685054D01*
X5456535Y1776141D02*
G01*
X5114552Y1776141D01*
X5456535Y1628501D02*
G01*
X5456535Y1618661D01*
X5245906Y1618661D02*
G01*
X5236063Y1618661D01*
X6010906Y1618661D02*
G01*
X6051850Y1618661D01*
X6221535Y1618661D01*
X5788464Y1543859D02*
G01*
X5926260Y1543859D01*
X5788464Y1543859D02*
G01*
X5788464Y1550702D01*
X6221535Y1769297D02*
G01*
X6221535Y1776141D01*
X6221535Y1628503D02*
G01*
X6221535Y1650702D01*
X5788464Y1550702D02*
G01*
X5788464Y1685054D01*
X6221535Y1776141D02*
G01*
X5879552Y1776141D01*
X6221535Y1628501D02*
G01*
X6221535Y1618661D01*
X6010906Y1618661D02*
G01*
X6001063Y1618661D01*
X6775906Y1618661D02*
G01*
X6816850Y1618661D01*
X6986535Y1618661D01*
X6553464Y1543859D02*
G01*
X6691260Y1543859D01*
X6553464Y1543859D02*
G01*
X6553464Y1550702D01*
X6986535Y1769297D02*
G01*
X6986535Y1776141D01*
X6986535Y1628503D02*
G01*
X6986535Y1650702D01*
X6553464Y1550702D02*
G01*
X6553464Y1685054D01*
X6986535Y1776141D02*
G01*
X6644552Y1776141D01*
X6986535Y1628501D02*
G01*
X6986535Y1618661D01*
X6775906Y1618661D02*
G01*
X6766063Y1618661D01*
X7540906Y1618661D02*
G01*
X7581850Y1618661D01*
X7751535Y1618661D01*
X7318464Y1543859D02*
G01*
X7456260Y1543859D01*
X7318464Y1543859D02*
G01*
X7318464Y1550702D01*
X7751535Y1769297D02*
G01*
X7751535Y1776141D01*
X7751535Y1628503D02*
G01*
X7751535Y1650702D01*
X7318464Y1550702D02*
G01*
X7318464Y1685054D01*
X7751535Y1776141D02*
G01*
X7409552Y1776141D01*
X7751535Y1628501D02*
G01*
X7751535Y1618661D01*
X7540906Y1618661D02*
G01*
X7531063Y1618661D01*
X12195906Y1623661D02*
G01*
X12236850Y1623661D01*
X12406535Y1623661D01*
X11973464Y1548859D02*
G01*
X12111260Y1548859D01*
X11973464Y1548859D02*
G01*
X11973464Y1555702D01*
X12406535Y1774297D02*
G01*
X12406535Y1781141D01*
X12406535Y1633503D02*
G01*
X12406535Y1655702D01*
X11973464Y1555702D02*
G01*
X11973464Y1690054D01*
X12406535Y1781141D02*
G01*
X12064552Y1781141D01*
X12406535Y1633501D02*
G01*
X12406535Y1623661D01*
X12195906Y1623661D02*
G01*
X12186063Y1623661D01*
X9840906Y1613661D02*
G01*
X9881850Y1613661D01*
X10051535Y1613661D01*
X9618464Y1538859D02*
G01*
X9756260Y1538859D01*
X9618464Y1538859D02*
G01*
X9618464Y1545702D01*
X10051535Y1764297D02*
G01*
X10051535Y1771141D01*
X10051535Y1623503D02*
G01*
X10051535Y1645702D01*
X9618464Y1545702D02*
G01*
X9618464Y1680054D01*
X10051535Y1771141D02*
G01*
X9709552Y1771141D01*
X10051535Y1623501D02*
G01*
X10051535Y1613661D01*
X9840906Y1613661D02*
G01*
X9831063Y1613661D01*
X9060906Y1618661D02*
G01*
X9101850Y1618661D01*
X9271535Y1618661D01*
X8838464Y1543859D02*
G01*
X8976260Y1543859D01*
X8838464Y1543859D02*
G01*
X8838464Y1550702D01*
X9271535Y1769297D02*
G01*
X9271535Y1776141D01*
X9271535Y1628503D02*
G01*
X9271535Y1650702D01*
X8838464Y1550702D02*
G01*
X8838464Y1685054D01*
X9271535Y1776141D02*
G01*
X8929552Y1776141D01*
X9271535Y1628501D02*
G01*
X9271535Y1618661D01*
X9060906Y1618661D02*
G01*
X9051063Y1618661D01*
X11010906Y1623661D02*
G01*
X11051850Y1623661D01*
X11221535Y1623661D01*
X10788464Y1548859D02*
G01*
X10926260Y1548859D01*
X10788464Y1548859D02*
G01*
X10788464Y1555702D01*
X11221535Y1774297D02*
G01*
X11221535Y1781141D01*
X11221535Y1633503D02*
G01*
X11221535Y1655702D01*
X10788464Y1555702D02*
G01*
X10788464Y1690054D01*
X11221535Y1781141D02*
G01*
X10879552Y1781141D01*
X11221535Y1633501D02*
G01*
X11221535Y1623661D01*
X11010906Y1623661D02*
G01*
X11001063Y1623661D01*
X3335906Y848661D02*
G01*
X3376850Y848661D01*
X3546535Y848661D01*
X3113464Y773859D02*
G01*
X3251260Y773859D01*
X3113464Y773859D02*
G01*
X3113464Y780702D01*
X3546535Y999297D02*
G01*
X3546535Y1006141D01*
X3546535Y858503D02*
G01*
X3546535Y880702D01*
X3113464Y780702D02*
G01*
X3113464Y915054D01*
X3546535Y1006141D02*
G01*
X3204552Y1006141D01*
X3546535Y858501D02*
G01*
X3546535Y848661D01*
X3335906Y848661D02*
G01*
X3326063Y848661D01*
X655906Y1618661D02*
G01*
X696851Y1618661D01*
X866535Y1618661D01*
X433465Y1543859D02*
G01*
X571260Y1543859D01*
X433465Y1543859D02*
G01*
X433465Y1550702D01*
X866535Y1769297D02*
G01*
X866535Y1776141D01*
X866535Y1628503D02*
G01*
X866535Y1650702D01*
X433465Y1550702D02*
G01*
X433465Y1685054D01*
X866535Y1776141D02*
G01*
X524553Y1776141D01*
X866535Y1628501D02*
G01*
X866535Y1618661D01*
X655906Y1618661D02*
G01*
X646062Y1618661D01*
X7160906Y848661D02*
G01*
X7201850Y848661D01*
X7371535Y848661D01*
X6938464Y773859D02*
G01*
X7076260Y773859D01*
X6938464Y773859D02*
G01*
X6938464Y780702D01*
X7371535Y999297D02*
G01*
X7371535Y1006141D01*
X7371535Y858503D02*
G01*
X7371535Y880702D01*
X6938464Y780702D02*
G01*
X6938464Y915054D01*
X7371535Y1006141D02*
G01*
X7029552Y1006141D01*
X7371535Y858501D02*
G01*
X7371535Y848661D01*
X7160906Y848661D02*
G01*
X7151063Y848661D01*
X7925906Y848661D02*
G01*
X7966850Y848661D01*
X8136535Y848661D01*
X7703464Y773859D02*
G01*
X7841260Y773859D01*
X7703464Y773859D02*
G01*
X7703464Y780702D01*
X8136535Y999297D02*
G01*
X8136535Y1006141D01*
X8136535Y858503D02*
G01*
X8136535Y880702D01*
X7703464Y780702D02*
G01*
X7703464Y915054D01*
X8136535Y1006141D02*
G01*
X7794552Y1006141D01*
X8136535Y858501D02*
G01*
X8136535Y848661D01*
X7925906Y848661D02*
G01*
X7916063Y848661D01*
X8690906Y848661D02*
G01*
X8731850Y848661D01*
X8901535Y848661D01*
X8468464Y773859D02*
G01*
X8606260Y773859D01*
X8468464Y773859D02*
G01*
X8468464Y780702D01*
X8901535Y999297D02*
G01*
X8901535Y1006141D01*
X8901535Y858503D02*
G01*
X8901535Y880702D01*
X8468464Y780702D02*
G01*
X8468464Y915054D01*
X8901535Y1006141D02*
G01*
X8559552Y1006141D01*
X8901535Y858501D02*
G01*
X8901535Y848661D01*
X8690906Y848661D02*
G01*
X8681063Y848661D01*
X1805906Y848661D02*
G01*
X1846850Y848661D01*
X2016535Y848661D01*
X1583464Y773859D02*
G01*
X1721260Y773859D01*
X1583464Y773859D02*
G01*
X1583464Y780702D01*
X2016535Y999297D02*
G01*
X2016535Y1006141D01*
X2016535Y858503D02*
G01*
X2016535Y880702D01*
X1583464Y780702D02*
G01*
X1583464Y915054D01*
X2016535Y1006141D02*
G01*
X1674552Y1006141D01*
X2016535Y858501D02*
G01*
X2016535Y848661D01*
X1805906Y848661D02*
G01*
X1796063Y848661D01*
X4100906Y848661D02*
G01*
X4141850Y848661D01*
X4311535Y848661D01*
X3878464Y773859D02*
G01*
X4016260Y773859D01*
X3878464Y773859D02*
G01*
X3878464Y780702D01*
X4311535Y999297D02*
G01*
X4311535Y1006141D01*
X4311535Y858503D02*
G01*
X4311535Y880702D01*
X3878464Y780702D02*
G01*
X3878464Y915054D01*
X4311535Y1006141D02*
G01*
X3969552Y1006141D01*
X4311535Y858501D02*
G01*
X4311535Y848661D01*
X4100906Y848661D02*
G01*
X4091063Y848661D01*
X4865906Y848661D02*
G01*
X4906850Y848661D01*
X5076535Y848661D01*
X4643464Y773859D02*
G01*
X4781260Y773859D01*
X4643464Y773859D02*
G01*
X4643464Y780702D01*
X5076535Y999297D02*
G01*
X5076535Y1006141D01*
X5076535Y858503D02*
G01*
X5076535Y880702D01*
X4643464Y780702D02*
G01*
X4643464Y915054D01*
X5076535Y1006141D02*
G01*
X4734552Y1006141D01*
X5076535Y858501D02*
G01*
X5076535Y848661D01*
X4865906Y848661D02*
G01*
X4856063Y848661D01*
X850906Y853661D02*
G01*
X891850Y853661D01*
X1061535Y853661D01*
X628465Y778859D02*
G01*
X766260Y778859D01*
X628465Y778859D02*
G01*
X628465Y785702D01*
X1061535Y1004297D02*
G01*
X1061535Y1011141D01*
X1061535Y863503D02*
G01*
X1061535Y885702D01*
X628465Y785702D02*
G01*
X628465Y920054D01*
X1061535Y1011141D02*
G01*
X719553Y1011141D01*
X1061535Y863501D02*
G01*
X1061535Y853661D01*
X850906Y853661D02*
G01*
X841063Y853661D01*
X6395906Y848661D02*
G01*
X6436850Y848661D01*
X6606535Y848661D01*
X6173464Y773859D02*
G01*
X6311260Y773859D01*
X6173464Y773859D02*
G01*
X6173464Y780702D01*
X6606535Y999297D02*
G01*
X6606535Y1006141D01*
X6606535Y858503D02*
G01*
X6606535Y880702D01*
X6173464Y780702D02*
G01*
X6173464Y915054D01*
X6606535Y1006141D02*
G01*
X6264552Y1006141D01*
X6606535Y858501D02*
G01*
X6606535Y848661D01*
X6395906Y848661D02*
G01*
X6386063Y848661D01*
X2570906Y848661D02*
G01*
X2611850Y848661D01*
X2781535Y848661D01*
X2348464Y773859D02*
G01*
X2486260Y773859D01*
X2348464Y773859D02*
G01*
X2348464Y780702D01*
X2781535Y999297D02*
G01*
X2781535Y1006141D01*
X2781535Y858503D02*
G01*
X2781535Y880702D01*
X2348464Y780702D02*
G01*
X2348464Y915054D01*
X2781535Y1006141D02*
G01*
X2439552Y1006141D01*
X2781535Y858501D02*
G01*
X2781535Y848661D01*
X2570906Y848661D02*
G01*
X2561063Y848661D01*
X5630906Y848661D02*
G01*
X5671850Y848661D01*
X5841535Y848661D01*
X5408464Y773859D02*
G01*
X5546260Y773859D01*
X5408464Y773859D02*
G01*
X5408464Y780702D01*
X5841535Y999297D02*
G01*
X5841535Y1006141D01*
X5841535Y858503D02*
G01*
X5841535Y880702D01*
X5408464Y780702D02*
G01*
X5408464Y915054D01*
X5841535Y1006141D02*
G01*
X5499552Y1006141D01*
X5841535Y858501D02*
G01*
X5841535Y848661D01*
X5630906Y848661D02*
G01*
X5621063Y848661D01*
X9450906Y848661D02*
G01*
X9491850Y848661D01*
X9661535Y848661D01*
X9228464Y773859D02*
G01*
X9366260Y773859D01*
X9228464Y773859D02*
G01*
X9228464Y780702D01*
X9661535Y999297D02*
G01*
X9661535Y1006141D01*
X9661535Y858503D02*
G01*
X9661535Y880702D01*
X9228464Y780702D02*
G01*
X9228464Y915054D01*
X9661535Y1006141D02*
G01*
X9319552Y1006141D01*
X9661535Y858501D02*
G01*
X9661535Y848661D01*
X9450906Y848661D02*
G01*
X9441063Y848661D01*
G75*
G01*
X9413465Y140054D02*
G02*
X9504159Y230748I90694J0D01*
G75*
G01*
X9846141Y230748D02*
G03*
X9846535Y231142I0J394D01*
G75*
G01*
X9846535Y83504D02*
G02*
X9846536Y83502I-2J-2D01*
G75*
G01*
X9626063Y73662D02*
G03*
X9551260Y-1141I26350J-101153D01*
G75*
G01*
X7498465Y-634946D02*
G02*
X7589159Y-544252I90694J0D01*
G75*
G01*
X7931141Y-544252D02*
G03*
X7931535Y-543858I0J394D01*
G75*
G01*
X7931535Y-691496D02*
G02*
X7931536Y-691498I-2J-2D01*
G75*
G01*
X7711063Y-701338D02*
G03*
X7636260Y-776141I26350J-101153D01*
G75*
G01*
X8263465Y-634946D02*
G02*
X8354159Y-544252I90694J0D01*
G75*
G01*
X8696141Y-544252D02*
G03*
X8696535Y-543858I0J394D01*
G75*
G01*
X8696535Y-691496D02*
G02*
X8696536Y-691498I-2J-2D01*
G75*
G01*
X8476063Y-701338D02*
G03*
X8401260Y-776141I26350J-101153D01*
G75*
G01*
X9023465Y-629946D02*
G02*
X9114159Y-539252I90694J0D01*
G75*
G01*
X9456141Y-539252D02*
G03*
X9456535Y-538858I0J394D01*
G75*
G01*
X9456535Y-686496D02*
G02*
X9456536Y-686498I-2J-2D01*
G75*
G01*
X9236063Y-696338D02*
G03*
X9161260Y-771141I26350J-101153D01*
G75*
G01*
X8653465Y140054D02*
G02*
X8744159Y230748I90694J0D01*
G75*
G01*
X9086141Y230748D02*
G03*
X9086535Y231142I0J394D01*
G75*
G01*
X9086535Y83504D02*
G02*
X9086536Y83502I-2J-2D01*
G75*
G01*
X8866063Y73662D02*
G03*
X8791260Y-1141I26350J-101153D01*
G75*
G01*
X1768465Y140054D02*
G02*
X1859159Y230748I90694J0D01*
G75*
G01*
X2201141Y230748D02*
G03*
X2201535Y231142I0J394D01*
G75*
G01*
X2201535Y83504D02*
G02*
X2201536Y83502I-2J-2D01*
G75*
G01*
X1981063Y73662D02*
G03*
X1906260Y-1141I26350J-101153D01*
G75*
G01*
X5203465Y-634946D02*
G02*
X5294159Y-544252I90694J0D01*
G75*
G01*
X5636141Y-544252D02*
G03*
X5636535Y-543858I0J394D01*
G75*
G01*
X5636535Y-691496D02*
G02*
X5636536Y-691498I-2J-2D01*
G75*
G01*
X5416063Y-701338D02*
G03*
X5341260Y-776141I26350J-101153D01*
G75*
G01*
X3673465Y-634946D02*
G02*
X3764159Y-544252I90694J0D01*
G75*
G01*
X4106141Y-544252D02*
G03*
X4106535Y-543858I0J394D01*
G75*
G01*
X4106535Y-691496D02*
G02*
X4106536Y-691498I-2J-2D01*
G75*
G01*
X3886063Y-701338D02*
G03*
X3811260Y-776141I26350J-101153D01*
G75*
G01*
X718465Y150054D02*
G02*
X809159Y240748I90694J0D01*
G75*
G01*
X1151141Y240748D02*
G03*
X1151535Y241142I0J394D01*
G75*
G01*
X1151535Y93504D02*
G02*
X1151536Y93502I-2J-2D01*
G75*
G01*
X931063Y83662D02*
G03*
X856260Y8859I26350J-101153D01*
G75*
G01*
X3298465Y140054D02*
G02*
X3389159Y230748I90694J0D01*
G75*
G01*
X3731141Y230748D02*
G03*
X3731535Y231142I0J394D01*
G75*
G01*
X3731535Y83504D02*
G02*
X3731536Y83502I-2J-2D01*
G75*
G01*
X3511063Y73662D02*
G03*
X3436260Y-1141I26350J-101153D01*
G75*
G01*
X11973465Y915054D02*
G02*
X12064159Y1005748I90694J0D01*
G75*
G01*
X12406141Y1005748D02*
G03*
X12406535Y1006142I0J394D01*
G75*
G01*
X12406535Y858504D02*
G02*
X12406536Y858502I-2J-2D01*
G75*
G01*
X12186063Y848662D02*
G03*
X12111260Y773859I26350J-101153D01*
G75*
G01*
X11163465Y-1459946D02*
G02*
X11254159Y-1369252I90694J0D01*
G75*
G01*
X11596141Y-1369252D02*
G03*
X11596535Y-1368858I0J394D01*
G75*
G01*
X11596535Y-1516496D02*
G02*
X11596536Y-1516498I-2J-2D01*
G75*
G01*
X11376063Y-1526338D02*
G03*
X11301260Y-1601141I26350J-101153D01*
G75*
G01*
X10698465Y145054D02*
G02*
X10789159Y235748I90694J0D01*
G75*
G01*
X11131141Y235748D02*
G03*
X11131535Y236142I0J394D01*
G75*
G01*
X11131535Y88504D02*
G02*
X11131536Y88502I-2J-2D01*
G75*
G01*
X10911063Y78662D02*
G03*
X10836260Y3859I26350J-101153D01*
G75*
G01*
X4063465Y140054D02*
G02*
X4154159Y230748I90694J0D01*
G75*
G01*
X4496141Y230748D02*
G03*
X4496535Y231142I0J394D01*
G75*
G01*
X4496535Y83504D02*
G02*
X4496536Y83502I-2J-2D01*
G75*
G01*
X4276063Y73662D02*
G03*
X4201260Y-1141I26350J-101153D01*
G75*
G01*
X8788465Y-1459946D02*
G02*
X8879159Y-1369252I90694J0D01*
G75*
G01*
X9221141Y-1369252D02*
G03*
X9221535Y-1368858I0J394D01*
G75*
G01*
X9221535Y-1516496D02*
G02*
X9221536Y-1516498I-2J-2D01*
G75*
G01*
X9001063Y-1526338D02*
G03*
X8926260Y-1601141I26350J-101153D01*
G75*
G01*
X4828465Y140054D02*
G02*
X4919159Y230748I90694J0D01*
G75*
G01*
X5261141Y230748D02*
G03*
X5261535Y231142I0J394D01*
G75*
G01*
X5261535Y83504D02*
G02*
X5261536Y83502I-2J-2D01*
G75*
G01*
X5041063Y73662D02*
G03*
X4966260Y-1141I26350J-101153D01*
G75*
G01*
X5593465Y140054D02*
G02*
X5684159Y230748I90694J0D01*
G75*
G01*
X6026141Y230748D02*
G03*
X6026535Y231142I0J394D01*
G75*
G01*
X6026535Y83504D02*
G02*
X6026536Y83502I-2J-2D01*
G75*
G01*
X5806063Y73662D02*
G03*
X5731260Y-1141I26350J-101153D01*
G75*
G01*
X6358465Y140054D02*
G02*
X6449159Y230748I90694J0D01*
G75*
G01*
X6791141Y230748D02*
G03*
X6791535Y231142I0J394D01*
G75*
G01*
X6791535Y83504D02*
G02*
X6791536Y83502I-2J-2D01*
G75*
G01*
X6571063Y73662D02*
G03*
X6496260Y-1141I26350J-101153D01*
G75*
G01*
X7123465Y140054D02*
G02*
X7214159Y230748I90694J0D01*
G75*
G01*
X7556141Y230748D02*
G03*
X7556535Y231142I0J394D01*
G75*
G01*
X7556535Y83504D02*
G02*
X7556536Y83502I-2J-2D01*
G75*
G01*
X7336063Y73662D02*
G03*
X7261260Y-1141I26350J-101153D01*
G75*
G01*
X7888465Y140054D02*
G02*
X7979159Y230748I90694J0D01*
G75*
G01*
X8321141Y230748D02*
G03*
X8321535Y231142I0J394D01*
G75*
G01*
X8321535Y83504D02*
G02*
X8321536Y83502I-2J-2D01*
G75*
G01*
X8101063Y73662D02*
G03*
X8026260Y-1141I26350J-101153D01*
G75*
G01*
X2443465Y-1449946D02*
G02*
X2534159Y-1359252I90694J0D01*
G75*
G01*
X2876141Y-1359252D02*
G03*
X2876535Y-1358858I0J394D01*
G75*
G01*
X2876535Y-1506496D02*
G02*
X2876536Y-1506498I-2J-2D01*
G75*
G01*
X2656063Y-1516338D02*
G03*
X2581260Y-1591141I26350J-101153D01*
G75*
G01*
X10343465Y-1459946D02*
G02*
X10434159Y-1369252I90694J0D01*
G75*
G01*
X10776141Y-1369252D02*
G03*
X10776535Y-1368858I0J394D01*
G75*
G01*
X10776535Y-1516496D02*
G02*
X10776536Y-1516498I-2J-2D01*
G75*
G01*
X10556063Y-1526338D02*
G03*
X10481260Y-1601141I26350J-101153D01*
G75*
G01*
X533465Y-1449946D02*
G02*
X624159Y-1359252I90694J0D01*
G75*
G01*
X966141Y-1359252D02*
G03*
X966535Y-1358858I0J394D01*
G75*
G01*
X966535Y-1506496D02*
G02*
X966536Y-1506498I-2J-2D01*
G75*
G01*
X746063Y-1516338D02*
G03*
X671260Y-1591141I26350J-101153D01*
G75*
G01*
X908465Y-629946D02*
G02*
X999159Y-539252I90694J0D01*
G75*
G01*
X1341141Y-539252D02*
G03*
X1341535Y-538858I0J394D01*
G75*
G01*
X1341535Y-686496D02*
G02*
X1341536Y-686498I-2J-2D01*
G75*
G01*
X1121063Y-696338D02*
G03*
X1046260Y-771141I26350J-101153D01*
G75*
G01*
X6733465Y-634946D02*
G02*
X6824159Y-544252I90694J0D01*
G75*
G01*
X7166141Y-544252D02*
G03*
X7166535Y-543858I0J394D01*
G75*
G01*
X7166535Y-691496D02*
G02*
X7166536Y-691498I-2J-2D01*
G75*
G01*
X6946063Y-701338D02*
G03*
X6871260Y-776141I26350J-101153D01*
G75*
G01*
X5968465Y-634946D02*
G02*
X6059159Y-544252I90694J0D01*
G75*
G01*
X6401141Y-544252D02*
G03*
X6401535Y-543858I0J394D01*
G75*
G01*
X6401535Y-691496D02*
G02*
X6401536Y-691498I-2J-2D01*
G75*
G01*
X6181063Y-701338D02*
G03*
X6106260Y-776141I26350J-101153D01*
G75*
G01*
X11973465Y-639946D02*
G02*
X12064159Y-549252I90694J0D01*
G75*
G01*
X12406141Y-549252D02*
G03*
X12406535Y-548858I0J394D01*
G75*
G01*
X12406535Y-696496D02*
G02*
X12406536Y-696498I-2J-2D01*
G75*
G01*
X12186063Y-706338D02*
G03*
X12111260Y-781141I26350J-101153D01*
G75*
G01*
X11973465Y140054D02*
G02*
X12064159Y230748I90694J0D01*
G75*
G01*
X12406141Y230748D02*
G03*
X12406535Y231142I0J394D01*
G75*
G01*
X12406535Y83504D02*
G02*
X12406536Y83502I-2J-2D01*
G75*
G01*
X12186063Y73662D02*
G03*
X12111260Y-1141I26350J-101153D01*
G75*
G01*
X8023465Y-1459946D02*
G02*
X8114159Y-1369252I90694J0D01*
G75*
G01*
X8456141Y-1369252D02*
G03*
X8456535Y-1368858I0J394D01*
G75*
G01*
X8456535Y-1516496D02*
G02*
X8456536Y-1516498I-2J-2D01*
G75*
G01*
X8236063Y-1526338D02*
G03*
X8161260Y-1601141I26350J-101153D01*
G75*
G01*
X11968465Y-1459946D02*
G02*
X12059159Y-1369252I90694J0D01*
G75*
G01*
X12401141Y-1369252D02*
G03*
X12401535Y-1368858I0J394D01*
G75*
G01*
X12401535Y-1516496D02*
G02*
X12401536Y-1516498I-2J-2D01*
G75*
G01*
X12181063Y-1526338D02*
G03*
X12106260Y-1601141I26350J-101153D01*
G75*
G01*
X9553465Y-1459946D02*
G02*
X9644159Y-1369252I90694J0D01*
G75*
G01*
X9986141Y-1369252D02*
G03*
X9986535Y-1368858I0J394D01*
G75*
G01*
X9986535Y-1516496D02*
G02*
X9986536Y-1516498I-2J-2D01*
G75*
G01*
X9766063Y-1526338D02*
G03*
X9691260Y-1601141I26350J-101153D01*
G75*
G01*
X10133465Y-629946D02*
G02*
X10224159Y-539252I90694J0D01*
G75*
G01*
X10566141Y-539252D02*
G03*
X10566535Y-538858I0J394D01*
G75*
G01*
X10566535Y-686496D02*
G02*
X10566536Y-686498I-2J-2D01*
G75*
G01*
X10346063Y-696338D02*
G03*
X10271260Y-771141I26350J-101153D01*
G75*
G01*
X2533465Y140054D02*
G02*
X2624159Y230748I90694J0D01*
G75*
G01*
X2966141Y230748D02*
G03*
X2966535Y231142I0J394D01*
G75*
G01*
X2966535Y83504D02*
G02*
X2966536Y83502I-2J-2D01*
G75*
G01*
X2746063Y73662D02*
G03*
X2671260Y-1141I26350J-101153D01*
G75*
G01*
X5273465Y-1449946D02*
G02*
X5364159Y-1359252I90694J0D01*
G75*
G01*
X5706141Y-1359252D02*
G03*
X5706535Y-1358858I0J394D01*
G75*
G01*
X5706535Y-1506496D02*
G02*
X5706536Y-1506498I-2J-2D01*
G75*
G01*
X5486063Y-1516338D02*
G03*
X5411260Y-1591141I26350J-101153D01*
G75*
G01*
X11208465Y-639946D02*
G02*
X11299159Y-549252I90694J0D01*
G75*
G01*
X11641141Y-549252D02*
G03*
X11641535Y-548858I0J394D01*
G75*
G01*
X11641535Y-696496D02*
G02*
X11641536Y-696498I-2J-2D01*
G75*
G01*
X11421063Y-706338D02*
G03*
X11346260Y-781141I26350J-101153D01*
G75*
G01*
X4438465Y-634946D02*
G02*
X4529159Y-544252I90694J0D01*
G75*
G01*
X4871141Y-544252D02*
G03*
X4871535Y-543858I0J394D01*
G75*
G01*
X4871535Y-691496D02*
G02*
X4871536Y-691498I-2J-2D01*
G75*
G01*
X4651063Y-701338D02*
G03*
X4576260Y-776141I26350J-101153D01*
G75*
G01*
X1488465Y-1449946D02*
G02*
X1579159Y-1359252I90694J0D01*
G75*
G01*
X1921141Y-1359252D02*
G03*
X1921535Y-1358858I0J394D01*
G75*
G01*
X1921535Y-1506496D02*
G02*
X1921536Y-1506498I-2J-2D01*
G75*
G01*
X1701063Y-1516338D02*
G03*
X1626260Y-1591141I26350J-101153D01*
G75*
G01*
X2908465Y-634946D02*
G02*
X2999159Y-544252I90694J0D01*
G75*
G01*
X3341141Y-544252D02*
G03*
X3341535Y-543858I0J394D01*
G75*
G01*
X3341535Y-691496D02*
G02*
X3341536Y-691498I-2J-2D01*
G75*
G01*
X3121063Y-701338D02*
G03*
X3046260Y-776141I26350J-101153D01*
G75*
G01*
X2143465Y-634946D02*
G02*
X2234159Y-544252I90694J0D01*
G75*
G01*
X2576141Y-544252D02*
G03*
X2576535Y-543858I0J394D01*
G75*
G01*
X2576535Y-691496D02*
G02*
X2576536Y-691498I-2J-2D01*
G75*
G01*
X2356063Y-701338D02*
G03*
X2281260Y-776141I26350J-101153D01*
G75*
G01*
X10978465Y920054D02*
G02*
X11069159Y1010748I90694J0D01*
G75*
G01*
X11411141Y1010748D02*
G03*
X11411535Y1011142I0J394D01*
G75*
G01*
X11411535Y863504D02*
G02*
X11411536Y863502I-2J-2D01*
G75*
G01*
X11191063Y853662D02*
G03*
X11116260Y778859I26350J-101153D01*
G75*
G01*
X9988465Y915054D02*
G02*
X10079159Y1005748I90694J0D01*
G75*
G01*
X10421141Y1005748D02*
G03*
X10421535Y1006142I0J394D01*
G75*
G01*
X10421535Y858504D02*
G02*
X10421536Y858502I-2J-2D01*
G75*
G01*
X10201063Y848662D02*
G03*
X10126260Y773859I26350J-101153D01*
G75*
G01*
X8078465Y1685054D02*
G02*
X8169159Y1775748I90694J0D01*
G75*
G01*
X8511141Y1775748D02*
G03*
X8511535Y1776142I0J394D01*
G75*
G01*
X8511535Y1628504D02*
G02*
X8511536Y1628502I-2J-2D01*
G75*
G01*
X8291063Y1618662D02*
G03*
X8216260Y1543859I26350J-101153D01*
G75*
G01*
X1198465Y1685054D02*
G02*
X1289159Y1775748I90694J0D01*
G75*
G01*
X1631141Y1775748D02*
G03*
X1631535Y1776142I0J394D01*
G75*
G01*
X1631535Y1628504D02*
G02*
X1631536Y1628502I-2J-2D01*
G75*
G01*
X1411063Y1618662D02*
G03*
X1336260Y1543859I26350J-101153D01*
G75*
G01*
X1963465Y1685054D02*
G02*
X2054159Y1775748I90694J0D01*
G75*
G01*
X2396141Y1775748D02*
G03*
X2396535Y1776142I0J394D01*
G75*
G01*
X2396535Y1628504D02*
G02*
X2396536Y1628502I-2J-2D01*
G75*
G01*
X2176063Y1618662D02*
G03*
X2101260Y1543859I26350J-101153D01*
G75*
G01*
X2728465Y1685054D02*
G02*
X2819159Y1775748I90694J0D01*
G75*
G01*
X3161141Y1775748D02*
G03*
X3161535Y1776142I0J394D01*
G75*
G01*
X3161535Y1628504D02*
G02*
X3161536Y1628502I-2J-2D01*
G75*
G01*
X2941063Y1618662D02*
G03*
X2866260Y1543859I26350J-101153D01*
G75*
G01*
X3493465Y1685054D02*
G02*
X3584159Y1775748I90694J0D01*
G75*
G01*
X3926141Y1775748D02*
G03*
X3926535Y1776142I0J394D01*
G75*
G01*
X3926535Y1628504D02*
G02*
X3926536Y1628502I-2J-2D01*
G75*
G01*
X3706063Y1618662D02*
G03*
X3631260Y1543859I26350J-101153D01*
G75*
G01*
X4258465Y1685054D02*
G02*
X4349159Y1775748I90694J0D01*
G75*
G01*
X4691141Y1775748D02*
G03*
X4691535Y1776142I0J394D01*
G75*
G01*
X4691535Y1628504D02*
G02*
X4691536Y1628502I-2J-2D01*
G75*
G01*
X4471063Y1618662D02*
G03*
X4396260Y1543859I26350J-101153D01*
G75*
G01*
X5023465Y1685054D02*
G02*
X5114159Y1775748I90694J0D01*
G75*
G01*
X5456141Y1775748D02*
G03*
X5456535Y1776142I0J394D01*
G75*
G01*
X5456535Y1628504D02*
G02*
X5456536Y1628502I-2J-2D01*
G75*
G01*
X5236063Y1618662D02*
G03*
X5161260Y1543859I26350J-101153D01*
G75*
G01*
X5788465Y1685054D02*
G02*
X5879159Y1775748I90694J0D01*
G75*
G01*
X6221141Y1775748D02*
G03*
X6221535Y1776142I0J394D01*
G75*
G01*
X6221535Y1628504D02*
G02*
X6221536Y1628502I-2J-2D01*
G75*
G01*
X6001063Y1618662D02*
G03*
X5926260Y1543859I26350J-101153D01*
G75*
G01*
X6553465Y1685054D02*
G02*
X6644159Y1775748I90694J0D01*
G75*
G01*
X6986141Y1775748D02*
G03*
X6986535Y1776142I0J394D01*
G75*
G01*
X6986535Y1628504D02*
G02*
X6986536Y1628502I-2J-2D01*
G75*
G01*
X6766063Y1618662D02*
G03*
X6691260Y1543859I26350J-101153D01*
G75*
G01*
X7318465Y1685054D02*
G02*
X7409159Y1775748I90694J0D01*
G75*
G01*
X7751141Y1775748D02*
G03*
X7751535Y1776142I0J394D01*
G75*
G01*
X7751535Y1628504D02*
G02*
X7751536Y1628502I-2J-2D01*
G75*
G01*
X7531063Y1618662D02*
G03*
X7456260Y1543859I26350J-101153D01*
G75*
G01*
X11973465Y1690054D02*
G02*
X12064159Y1780748I90694J0D01*
G75*
G01*
X12406141Y1780748D02*
G03*
X12406535Y1781142I0J394D01*
G75*
G01*
X12406535Y1633504D02*
G02*
X12406536Y1633502I-2J-2D01*
G75*
G01*
X12186063Y1623662D02*
G03*
X12111260Y1548859I26350J-101153D01*
G75*
G01*
X9618465Y1680054D02*
G02*
X9709159Y1770748I90694J0D01*
G75*
G01*
X10051141Y1770748D02*
G03*
X10051535Y1771142I0J394D01*
G75*
G01*
X10051535Y1623504D02*
G02*
X10051536Y1623502I-2J-2D01*
G75*
G01*
X9831063Y1613662D02*
G03*
X9756260Y1538859I26350J-101153D01*
G75*
G01*
X8838465Y1685054D02*
G02*
X8929159Y1775748I90694J0D01*
G75*
G01*
X9271141Y1775748D02*
G03*
X9271535Y1776142I0J394D01*
G75*
G01*
X9271535Y1628504D02*
G02*
X9271536Y1628502I-2J-2D01*
G75*
G01*
X9051063Y1618662D02*
G03*
X8976260Y1543859I26350J-101153D01*
G75*
G01*
X10788465Y1690054D02*
G02*
X10879159Y1780748I90694J0D01*
G75*
G01*
X11221141Y1780748D02*
G03*
X11221535Y1781142I0J394D01*
G75*
G01*
X11221535Y1633504D02*
G02*
X11221536Y1633502I-2J-2D01*
G75*
G01*
X11001063Y1623662D02*
G03*
X10926260Y1548859I26350J-101153D01*
G75*
G01*
X3113465Y915054D02*
G02*
X3204159Y1005748I90694J0D01*
G75*
G01*
X3546141Y1005748D02*
G03*
X3546535Y1006142I0J394D01*
G75*
G01*
X3546535Y858504D02*
G02*
X3546536Y858502I-2J-2D01*
G75*
G01*
X3326063Y848662D02*
G03*
X3251260Y773859I26350J-101153D01*
G75*
G01*
X433465Y1685054D02*
G02*
X524159Y1775748I90694J0D01*
G75*
G01*
X866141Y1775748D02*
G03*
X866535Y1776142I0J394D01*
G75*
G01*
X866535Y1628504D02*
G02*
X866536Y1628502I-2J-2D01*
G75*
G01*
X646063Y1618662D02*
G03*
X571260Y1543859I26350J-101153D01*
G75*
G01*
X6938465Y915054D02*
G02*
X7029159Y1005748I90694J0D01*
G75*
G01*
X7371141Y1005748D02*
G03*
X7371535Y1006142I0J394D01*
G75*
G01*
X7371535Y858504D02*
G02*
X7371536Y858502I-2J-2D01*
G75*
G01*
X7151063Y848662D02*
G03*
X7076260Y773859I26350J-101153D01*
G75*
G01*
X7703465Y915054D02*
G02*
X7794159Y1005748I90694J0D01*
G75*
G01*
X8136141Y1005748D02*
G03*
X8136535Y1006142I0J394D01*
G75*
G01*
X8136535Y858504D02*
G02*
X8136536Y858502I-2J-2D01*
G75*
G01*
X7916063Y848662D02*
G03*
X7841260Y773859I26350J-101153D01*
G75*
G01*
X8468465Y915054D02*
G02*
X8559159Y1005748I90694J0D01*
G75*
G01*
X8901141Y1005748D02*
G03*
X8901535Y1006142I0J394D01*
G75*
G01*
X8901535Y858504D02*
G02*
X8901536Y858502I-2J-2D01*
G75*
G01*
X8681063Y848662D02*
G03*
X8606260Y773859I26350J-101153D01*
G75*
G01*
X1583465Y915054D02*
G02*
X1674159Y1005748I90694J0D01*
G75*
G01*
X2016141Y1005748D02*
G03*
X2016535Y1006142I0J394D01*
G75*
G01*
X2016535Y858504D02*
G02*
X2016536Y858502I-2J-2D01*
G75*
G01*
X1796063Y848662D02*
G03*
X1721260Y773859I26350J-101153D01*
G75*
G01*
X3878465Y915054D02*
G02*
X3969159Y1005748I90694J0D01*
G75*
G01*
X4311141Y1005748D02*
G03*
X4311535Y1006142I0J394D01*
G75*
G01*
X4311535Y858504D02*
G02*
X4311536Y858502I-2J-2D01*
G75*
G01*
X4091063Y848662D02*
G03*
X4016260Y773859I26350J-101153D01*
G75*
G01*
X4643465Y915054D02*
G02*
X4734159Y1005748I90694J0D01*
G75*
G01*
X5076141Y1005748D02*
G03*
X5076535Y1006142I0J394D01*
G75*
G01*
X5076535Y858504D02*
G02*
X5076536Y858502I-2J-2D01*
G75*
G01*
X4856063Y848662D02*
G03*
X4781260Y773859I26350J-101153D01*
G75*
G01*
X628465Y920054D02*
G02*
X719159Y1010748I90694J0D01*
G75*
G01*
X1061141Y1010748D02*
G03*
X1061535Y1011142I0J394D01*
G75*
G01*
X1061535Y863504D02*
G02*
X1061536Y863502I-2J-2D01*
G75*
G01*
X841063Y853662D02*
G03*
X766260Y778859I26350J-101153D01*
G75*
G01*
X6173465Y915054D02*
G02*
X6264159Y1005748I90694J0D01*
G75*
G01*
X6606141Y1005748D02*
G03*
X6606535Y1006142I0J394D01*
G75*
G01*
X6606535Y858504D02*
G02*
X6606536Y858502I-2J-2D01*
G75*
G01*
X6386063Y848662D02*
G03*
X6311260Y773859I26350J-101153D01*
G75*
G01*
X2348465Y915054D02*
G02*
X2439159Y1005748I90694J0D01*
G75*
G01*
X2781141Y1005748D02*
G03*
X2781535Y1006142I0J394D01*
G75*
G01*
X2781535Y858504D02*
G02*
X2781536Y858502I-2J-2D01*
G75*
G01*
X2561063Y848662D02*
G03*
X2486260Y773859I26350J-101153D01*
G75*
G01*
X5408465Y915054D02*
G02*
X5499159Y1005748I90694J0D01*
G75*
G01*
X5841141Y1005748D02*
G03*
X5841535Y1006142I0J394D01*
G75*
G01*
X5841535Y858504D02*
G02*
X5841536Y858502I-2J-2D01*
G75*
G01*
X5621063Y848662D02*
G03*
X5546260Y773859I26350J-101153D01*
G75*
G01*
X9228465Y915054D02*
G02*
X9319159Y1005748I90694J0D01*
G75*
G01*
X9661141Y1005748D02*
G03*
X9661535Y1006142I0J394D01*
G75*
G01*
X9661535Y858504D02*
G02*
X9661536Y858502I-2J-2D01*
G75*
G01*
X9441063Y848662D02*
G03*
X9366260Y773859I26350J-101153D01*
M02*
