%TF.GenerationSoftware,KiCad,Pcbnew,8.0.8*%
%TF.CreationDate,2025-02-17T14:53:19+01:00*%
%TF.ProjectId,macropad,6d616372-6f70-4616-942e-6b696361645f,rev?*%
%TF.SameCoordinates,Original*%
%TF.FileFunction,Soldermask,Top*%
%TF.FilePolarity,Negative*%
%FSLAX46Y46*%
G04 Gerber Fmt 4.6, Leading zero omitted, Abs format (unit mm)*
G04 Created by KiCad (PCBNEW 8.0.8) date 2025-02-17 14:53:19*
%MOMM*%
%LPD*%
G01*
G04 APERTURE LIST*
G04 Aperture macros list*
%AMRoundRect*
0 Rectangle with rounded corners*
0 $1 Rounding radius*
0 $2 $3 $4 $5 $6 $7 $8 $9 X,Y pos of 4 corners*
0 Add a 4 corners polygon primitive as box body*
4,1,4,$2,$3,$4,$5,$6,$7,$8,$9,$2,$3,0*
0 Add four circle primitives for the rounded corners*
1,1,$1+$1,$2,$3*
1,1,$1+$1,$4,$5*
1,1,$1+$1,$6,$7*
1,1,$1+$1,$8,$9*
0 Add four rect primitives between the rounded corners*
20,1,$1+$1,$2,$3,$4,$5,0*
20,1,$1+$1,$4,$5,$6,$7,0*
20,1,$1+$1,$6,$7,$8,$9,0*
20,1,$1+$1,$8,$9,$2,$3,0*%
G04 Aperture macros list end*
%ADD10C,1.700000*%
%ADD11C,4.000000*%
%ADD12C,2.200000*%
%ADD13R,1.600000X1.600000*%
%ADD14O,1.600000X1.600000*%
%ADD15R,1.600000X0.850000*%
%ADD16RoundRect,0.152400X-0.609600X1.063600X-0.609600X-1.063600X0.609600X-1.063600X0.609600X1.063600X0*%
%ADD17C,1.524000*%
%ADD18RoundRect,0.152400X0.609600X-1.063600X0.609600X1.063600X-0.609600X1.063600X-0.609600X-1.063600X0*%
G04 APERTURE END LIST*
D10*
%TO.C,SW11*%
X197145000Y-71352500D03*
D11*
X202225000Y-71352500D03*
D10*
X207305000Y-71352500D03*
D12*
X204765000Y-66272500D03*
X198415000Y-68812500D03*
%TD*%
D13*
%TO.C,D16*%
X219025000Y-111063750D03*
D14*
X219025000Y-103443750D03*
%TD*%
D10*
%TO.C,SW5*%
X178095000Y-33397500D03*
D11*
X183175000Y-33397500D03*
D10*
X188255000Y-33397500D03*
D12*
X185715000Y-28317500D03*
X179365000Y-30857500D03*
%TD*%
D10*
%TO.C,SW13*%
X216195000Y-33397500D03*
D11*
X221275000Y-33397500D03*
D10*
X226355000Y-33397500D03*
D12*
X223815000Y-28317500D03*
X217465000Y-30857500D03*
%TD*%
D10*
%TO.C,SW10*%
X197145000Y-52302500D03*
D11*
X202225000Y-52302500D03*
D10*
X207305000Y-52302500D03*
D12*
X204765000Y-47222500D03*
X198415000Y-49762500D03*
%TD*%
D15*
%TO.C,D2*%
X140656250Y-92860000D03*
X140656250Y-91110000D03*
X137156250Y-91110000D03*
X137156250Y-92860000D03*
%TD*%
%TO.C,D1*%
X140656250Y-86697500D03*
X140656250Y-84947500D03*
X137156250Y-84947500D03*
X137156250Y-86697500D03*
%TD*%
D10*
%TO.C,SW12*%
X197145000Y-90402500D03*
D11*
X202225000Y-90402500D03*
D10*
X207305000Y-90402500D03*
D12*
X204765000Y-85322500D03*
X198415000Y-87862500D03*
%TD*%
D13*
%TO.C,D7*%
X177375000Y-111063750D03*
D14*
X177375000Y-103443750D03*
%TD*%
D13*
%TO.C,D12*%
X199975000Y-111063750D03*
D14*
X199975000Y-103443750D03*
%TD*%
D13*
%TO.C,D11*%
X196425000Y-111063750D03*
D14*
X196425000Y-103443750D03*
%TD*%
D13*
%TO.C,D8*%
X180925000Y-111063750D03*
D14*
X180925000Y-103443750D03*
%TD*%
D13*
%TO.C,D6*%
X168975000Y-111063750D03*
D14*
X168975000Y-103443750D03*
%TD*%
D10*
%TO.C,SW16*%
X216195000Y-90402500D03*
D11*
X221275000Y-90402500D03*
D10*
X226355000Y-90402500D03*
D12*
X223815000Y-85322500D03*
X217465000Y-87862500D03*
%TD*%
D10*
%TO.C,SW8*%
X178095000Y-90402500D03*
D11*
X183175000Y-90402500D03*
D10*
X188255000Y-90402500D03*
D12*
X185715000Y-85322500D03*
X179365000Y-87862500D03*
%TD*%
D13*
%TO.C,D15*%
X215475000Y-111063750D03*
D14*
X215475000Y-103443750D03*
%TD*%
D13*
%TO.C,D14*%
X207075000Y-111063750D03*
D14*
X207075000Y-103443750D03*
%TD*%
D10*
%TO.C,SW4*%
X159045000Y-90402500D03*
D11*
X164125000Y-90402500D03*
D10*
X169205000Y-90402500D03*
D12*
X166665000Y-85322500D03*
X160315000Y-87862500D03*
%TD*%
D13*
%TO.C,D10*%
X188025000Y-111063750D03*
D14*
X188025000Y-103443750D03*
%TD*%
D13*
%TO.C,D18*%
X226125000Y-111063750D03*
D14*
X226125000Y-103443750D03*
%TD*%
D10*
%TO.C,SW9*%
X197145000Y-33397500D03*
D11*
X202225000Y-33397500D03*
D10*
X207305000Y-33397500D03*
D12*
X204765000Y-28317500D03*
X198415000Y-30857500D03*
%TD*%
D13*
%TO.C,D4*%
X161875000Y-111063750D03*
D14*
X161875000Y-103443750D03*
%TD*%
D10*
%TO.C,SW15*%
X216195000Y-71352500D03*
D11*
X221275000Y-71352500D03*
D10*
X226355000Y-71352500D03*
D12*
X223815000Y-66272500D03*
X217465000Y-68812500D03*
%TD*%
D13*
%TO.C,D9*%
X184475000Y-111063750D03*
D14*
X184475000Y-103443750D03*
%TD*%
D10*
%TO.C,SW14*%
X216195000Y-52302500D03*
D11*
X221275000Y-52302500D03*
D10*
X226355000Y-52302500D03*
D12*
X223815000Y-47222500D03*
X217465000Y-49762500D03*
%TD*%
D13*
%TO.C,D17*%
X222575000Y-111063750D03*
D14*
X222575000Y-103443750D03*
%TD*%
D10*
%TO.C,SW2*%
X159045000Y-52302500D03*
D11*
X164125000Y-52302500D03*
D10*
X169205000Y-52302500D03*
D12*
X166665000Y-47222500D03*
X160315000Y-49762500D03*
%TD*%
D10*
%TO.C,SW6*%
X178095000Y-52302500D03*
D11*
X183175000Y-52302500D03*
D10*
X188255000Y-52302500D03*
D12*
X185715000Y-47222500D03*
X179365000Y-49762500D03*
%TD*%
D13*
%TO.C,D5*%
X165425000Y-111063750D03*
D14*
X165425000Y-103443750D03*
%TD*%
D10*
%TO.C,SW1*%
X159045000Y-33397500D03*
D11*
X164125000Y-33397500D03*
D10*
X169205000Y-33397500D03*
D12*
X166665000Y-28317500D03*
X160315000Y-30857500D03*
%TD*%
D10*
%TO.C,SW7*%
X178095000Y-71352500D03*
D11*
X183175000Y-71352500D03*
D10*
X188255000Y-71352500D03*
D12*
X185715000Y-66272500D03*
X179365000Y-68812500D03*
%TD*%
D16*
%TO.C,U1*%
X136290275Y-118090000D03*
D17*
X136290275Y-117255000D03*
D16*
X138830275Y-118090000D03*
D17*
X138830275Y-117255000D03*
D16*
X141370275Y-118090000D03*
D17*
X141370275Y-117255000D03*
D16*
X143910275Y-118090000D03*
D17*
X143910275Y-117255000D03*
D16*
X146450275Y-118090000D03*
D17*
X146450275Y-117255000D03*
D16*
X148990275Y-118090000D03*
D17*
X148990275Y-117255000D03*
D16*
X151530275Y-118090000D03*
D17*
X151530275Y-117255000D03*
X151530275Y-102015000D03*
D18*
X151530275Y-101180000D03*
D17*
X148990275Y-102015000D03*
D18*
X148990275Y-101180000D03*
D17*
X146450275Y-102015000D03*
D18*
X146450275Y-101180000D03*
D17*
X143910275Y-102015000D03*
D18*
X143910275Y-101180000D03*
D17*
X141370275Y-102015000D03*
D18*
X141370275Y-101180000D03*
D17*
X138830275Y-102015000D03*
D18*
X138830275Y-101180000D03*
D17*
X136290275Y-102015000D03*
D18*
X136290275Y-101180000D03*
%TD*%
D10*
%TO.C,SW3*%
X159045000Y-71352500D03*
D11*
X164125000Y-71352500D03*
D10*
X169205000Y-71352500D03*
D12*
X166665000Y-66272500D03*
X160315000Y-68812500D03*
%TD*%
D13*
%TO.C,D3*%
X158325000Y-111063750D03*
D14*
X158325000Y-103443750D03*
%TD*%
D13*
%TO.C,D13*%
X203525000Y-111063750D03*
D14*
X203525000Y-103443750D03*
%TD*%
M02*
