%TF.GenerationSoftware,KiCad,Pcbnew,8.0.8*%
%TF.CreationDate,2025-02-17T14:53:19+01:00*%
%TF.ProjectId,macropad,6d616372-6f70-4616-942e-6b696361645f,rev?*%
%TF.SameCoordinates,Original*%
%TF.FileFunction,Copper,L1,Top*%
%TF.FilePolarity,Positive*%
%FSLAX46Y46*%
G04 Gerber Fmt 4.6, Leading zero omitted, Abs format (unit mm)*
G04 Created by KiCad (PCBNEW 8.0.8) date 2025-02-17 14:53:19*
%MOMM*%
%LPD*%
G01*
G04 APERTURE LIST*
G04 Aperture macros list*
%AMRoundRect*
0 Rectangle with rounded corners*
0 $1 Rounding radius*
0 $2 $3 $4 $5 $6 $7 $8 $9 X,Y pos of 4 corners*
0 Add a 4 corners polygon primitive as box body*
4,1,4,$2,$3,$4,$5,$6,$7,$8,$9,$2,$3,0*
0 Add four circle primitives for the rounded corners*
1,1,$1+$1,$2,$3*
1,1,$1+$1,$4,$5*
1,1,$1+$1,$6,$7*
1,1,$1+$1,$8,$9*
0 Add four rect primitives between the rounded corners*
20,1,$1+$1,$2,$3,$4,$5,0*
20,1,$1+$1,$4,$5,$6,$7,0*
20,1,$1+$1,$6,$7,$8,$9,0*
20,1,$1+$1,$8,$9,$2,$3,0*%
G04 Aperture macros list end*
%TA.AperFunction,ComponentPad*%
%ADD10C,2.200000*%
%TD*%
%TA.AperFunction,ComponentPad*%
%ADD11R,1.600000X1.600000*%
%TD*%
%TA.AperFunction,ComponentPad*%
%ADD12O,1.600000X1.600000*%
%TD*%
%TA.AperFunction,SMDPad,CuDef*%
%ADD13R,1.600000X0.850000*%
%TD*%
%TA.AperFunction,SMDPad,CuDef*%
%ADD14RoundRect,0.152400X-0.609600X1.063600X-0.609600X-1.063600X0.609600X-1.063600X0.609600X1.063600X0*%
%TD*%
%TA.AperFunction,ComponentPad*%
%ADD15C,1.524000*%
%TD*%
%TA.AperFunction,SMDPad,CuDef*%
%ADD16RoundRect,0.152400X0.609600X-1.063600X0.609600X1.063600X-0.609600X1.063600X-0.609600X-1.063600X0*%
%TD*%
%TA.AperFunction,Conductor*%
%ADD17C,0.200000*%
%TD*%
G04 APERTURE END LIST*
D10*
%TO.P,SW11,1,1*%
%TO.N,Net-(D13-A)*%
X204765000Y-66272500D03*
%TO.P,SW11,2,2*%
%TO.N,Collom3*%
X198415000Y-68812500D03*
%TD*%
D11*
%TO.P,D16,1,K*%
%TO.N,Row4*%
X219025000Y-111063750D03*
D12*
%TO.P,D16,2,A*%
%TO.N,Net-(D16-A)*%
X219025000Y-103443750D03*
%TD*%
D10*
%TO.P,SW5,1,1*%
%TO.N,Net-(D7-A)*%
X185715000Y-28317500D03*
%TO.P,SW5,2,2*%
%TO.N,Collom1*%
X179365000Y-30857500D03*
%TD*%
%TO.P,SW13,1,1*%
%TO.N,Net-(D15-A)*%
X223815000Y-28317500D03*
%TO.P,SW13,2,2*%
%TO.N,Collom1*%
X217465000Y-30857500D03*
%TD*%
%TO.P,SW10,1,1*%
%TO.N,Net-(D12-A)*%
X204765000Y-47222500D03*
%TO.P,SW10,2,2*%
%TO.N,Collom2*%
X198415000Y-49762500D03*
%TD*%
D13*
%TO.P,D2,1,DOUT*%
%TO.N,unconnected-(D2-DOUT-Pad1)*%
X140656250Y-92860000D03*
%TO.P,D2,2,VSS*%
%TO.N,GND*%
X140656250Y-91110000D03*
%TO.P,D2,3,DIN*%
%TO.N,Net-(D1-DOUT)*%
X137156250Y-91110000D03*
%TO.P,D2,4,VDD*%
%TO.N,+5V*%
X137156250Y-92860000D03*
%TD*%
%TO.P,D1,1,DOUT*%
%TO.N,Net-(D1-DOUT)*%
X140656250Y-86697500D03*
%TO.P,D1,2,VSS*%
%TO.N,GND*%
X140656250Y-84947500D03*
%TO.P,D1,3,DIN*%
%TO.N,Net-(D1-DIN)*%
X137156250Y-84947500D03*
%TO.P,D1,4,VDD*%
%TO.N,+5V*%
X137156250Y-86697500D03*
%TD*%
D10*
%TO.P,SW12,1,1*%
%TO.N,Net-(D14-A)*%
X204765000Y-85322500D03*
%TO.P,SW12,2,2*%
%TO.N,Collom4*%
X198415000Y-87862500D03*
%TD*%
D11*
%TO.P,D7,1,K*%
%TO.N,Row2*%
X177375000Y-111063750D03*
D12*
%TO.P,D7,2,A*%
%TO.N,Net-(D7-A)*%
X177375000Y-103443750D03*
%TD*%
D11*
%TO.P,D12,1,K*%
%TO.N,Row3*%
X199975000Y-111063750D03*
D12*
%TO.P,D12,2,A*%
%TO.N,Net-(D12-A)*%
X199975000Y-103443750D03*
%TD*%
D11*
%TO.P,D11,1,K*%
%TO.N,Row3*%
X196425000Y-111063750D03*
D12*
%TO.P,D11,2,A*%
%TO.N,Net-(D11-A)*%
X196425000Y-103443750D03*
%TD*%
D11*
%TO.P,D8,1,K*%
%TO.N,Row2*%
X180925000Y-111063750D03*
D12*
%TO.P,D8,2,A*%
%TO.N,Net-(D8-A)*%
X180925000Y-103443750D03*
%TD*%
D11*
%TO.P,D6,1,K*%
%TO.N,Row1*%
X168975000Y-111063750D03*
D12*
%TO.P,D6,2,A*%
%TO.N,Net-(D6-A)*%
X168975000Y-103443750D03*
%TD*%
D10*
%TO.P,SW16,1,1*%
%TO.N,Net-(D18-A)*%
X223815000Y-85322500D03*
%TO.P,SW16,2,2*%
%TO.N,Collom4*%
X217465000Y-87862500D03*
%TD*%
%TO.P,SW8,1,1*%
%TO.N,Net-(D10-A)*%
X185715000Y-85322500D03*
%TO.P,SW8,2,2*%
%TO.N,Collom4*%
X179365000Y-87862500D03*
%TD*%
D11*
%TO.P,D15,1,K*%
%TO.N,Row4*%
X215475000Y-111063750D03*
D12*
%TO.P,D15,2,A*%
%TO.N,Net-(D15-A)*%
X215475000Y-103443750D03*
%TD*%
D11*
%TO.P,D14,1,K*%
%TO.N,Row3*%
X207075000Y-111063750D03*
D12*
%TO.P,D14,2,A*%
%TO.N,Net-(D14-A)*%
X207075000Y-103443750D03*
%TD*%
D10*
%TO.P,SW4,1,1*%
%TO.N,Net-(D6-A)*%
X166665000Y-85322500D03*
%TO.P,SW4,2,2*%
%TO.N,Collom4*%
X160315000Y-87862500D03*
%TD*%
D11*
%TO.P,D10,1,K*%
%TO.N,Row2*%
X188025000Y-111063750D03*
D12*
%TO.P,D10,2,A*%
%TO.N,Net-(D10-A)*%
X188025000Y-103443750D03*
%TD*%
D11*
%TO.P,D18,1,K*%
%TO.N,Row4*%
X226125000Y-111063750D03*
D12*
%TO.P,D18,2,A*%
%TO.N,Net-(D18-A)*%
X226125000Y-103443750D03*
%TD*%
D10*
%TO.P,SW9,1,1*%
%TO.N,Net-(D11-A)*%
X204765000Y-28317500D03*
%TO.P,SW9,2,2*%
%TO.N,Collom1*%
X198415000Y-30857500D03*
%TD*%
D11*
%TO.P,D4,1,K*%
%TO.N,Row1*%
X161875000Y-111063750D03*
D12*
%TO.P,D4,2,A*%
%TO.N,Net-(D4-A)*%
X161875000Y-103443750D03*
%TD*%
D10*
%TO.P,SW15,1,1*%
%TO.N,Net-(D17-A)*%
X223815000Y-66272500D03*
%TO.P,SW15,2,2*%
%TO.N,Collom3*%
X217465000Y-68812500D03*
%TD*%
D11*
%TO.P,D9,1,K*%
%TO.N,Row2*%
X184475000Y-111063750D03*
D12*
%TO.P,D9,2,A*%
%TO.N,Net-(D9-A)*%
X184475000Y-103443750D03*
%TD*%
D10*
%TO.P,SW14,1,1*%
%TO.N,Net-(D16-A)*%
X223815000Y-47222500D03*
%TO.P,SW14,2,2*%
%TO.N,Collom2*%
X217465000Y-49762500D03*
%TD*%
D11*
%TO.P,D17,1,K*%
%TO.N,Row4*%
X222575000Y-111063750D03*
D12*
%TO.P,D17,2,A*%
%TO.N,Net-(D17-A)*%
X222575000Y-103443750D03*
%TD*%
D10*
%TO.P,SW2,1,1*%
%TO.N,Net-(D4-A)*%
X166665000Y-47222500D03*
%TO.P,SW2,2,2*%
%TO.N,Collom2*%
X160315000Y-49762500D03*
%TD*%
%TO.P,SW6,1,1*%
%TO.N,Net-(D8-A)*%
X185715000Y-47222500D03*
%TO.P,SW6,2,2*%
%TO.N,Collom2*%
X179365000Y-49762500D03*
%TD*%
D11*
%TO.P,D5,1,K*%
%TO.N,Row1*%
X165425000Y-111063750D03*
D12*
%TO.P,D5,2,A*%
%TO.N,Net-(D5-A)*%
X165425000Y-103443750D03*
%TD*%
D10*
%TO.P,SW1,1,1*%
%TO.N,Net-(D3-A)*%
X166665000Y-28317500D03*
%TO.P,SW1,2,2*%
%TO.N,Collom1*%
X160315000Y-30857500D03*
%TD*%
%TO.P,SW7,1,1*%
%TO.N,Net-(D9-A)*%
X185715000Y-66272500D03*
%TO.P,SW7,2,2*%
%TO.N,Collom3*%
X179365000Y-68812500D03*
%TD*%
D14*
%TO.P,U1,1,GPIO26/ADC0/A0*%
%TO.N,Net-(D1-DIN)*%
X136290275Y-118090000D03*
D15*
X136290275Y-117255000D03*
D14*
%TO.P,U1,2,GPIO27/ADC1/A1*%
%TO.N,unconnected-(U1-GPIO27{slash}ADC1{slash}A1-Pad2)*%
X138830275Y-118090000D03*
D15*
X138830275Y-117255000D03*
D14*
%TO.P,U1,3,GPIO28/ADC2/A2*%
%TO.N,unconnected-(U1-GPIO28{slash}ADC2{slash}A2-Pad3)*%
X141370275Y-118090000D03*
D15*
X141370275Y-117255000D03*
D14*
%TO.P,U1,4,GPIO29/ADC3/A3*%
%TO.N,Row1*%
X143910275Y-118090000D03*
D15*
X143910275Y-117255000D03*
D14*
%TO.P,U1,5,GPIO6/SDA*%
%TO.N,Row2*%
X146450275Y-118090000D03*
D15*
X146450275Y-117255000D03*
D14*
%TO.P,U1,6,GPIO7/SCL*%
%TO.N,Row3*%
X148990275Y-118090000D03*
D15*
X148990275Y-117255000D03*
D14*
%TO.P,U1,7,GPIO0/TX*%
%TO.N,Row4*%
X151530275Y-118090000D03*
D15*
X151530275Y-117255000D03*
%TO.P,U1,8,GPIO1/RX*%
%TO.N,Collom4*%
X151530275Y-102015000D03*
D16*
X151530275Y-101180000D03*
D15*
%TO.P,U1,9,GPIO2/SCK*%
%TO.N,Collom3*%
X148990275Y-102015000D03*
D16*
X148990275Y-101180000D03*
D15*
%TO.P,U1,10,GPIO4/MISO*%
%TO.N,Collom2*%
X146450275Y-102015000D03*
D16*
X146450275Y-101180000D03*
D15*
%TO.P,U1,11,GPIO3/MOSI*%
%TO.N,Collom1*%
X143910275Y-102015000D03*
D16*
X143910275Y-101180000D03*
D15*
%TO.P,U1,12,3V3*%
%TO.N,unconnected-(U1-3V3-Pad12)*%
X141370275Y-102015000D03*
D16*
X141370275Y-101180000D03*
D15*
%TO.P,U1,13,GND*%
%TO.N,GND*%
X138830275Y-102015000D03*
D16*
X138830275Y-101180000D03*
D15*
%TO.P,U1,14,VBUS*%
%TO.N,+5V*%
X136290275Y-102015000D03*
D16*
X136290275Y-101180000D03*
%TD*%
D10*
%TO.P,SW3,1,1*%
%TO.N,Net-(D5-A)*%
X166665000Y-66272500D03*
%TO.P,SW3,2,2*%
%TO.N,Collom3*%
X160315000Y-68812500D03*
%TD*%
D11*
%TO.P,D3,1,K*%
%TO.N,Row1*%
X158325000Y-111063750D03*
D12*
%TO.P,D3,2,A*%
%TO.N,Net-(D3-A)*%
X158325000Y-103443750D03*
%TD*%
D11*
%TO.P,D13,1,K*%
%TO.N,Row3*%
X203525000Y-111063750D03*
D12*
%TO.P,D13,2,A*%
%TO.N,Net-(D13-A)*%
X203525000Y-103443750D03*
%TD*%
D17*
%TO.N,+5V*%
X135237500Y-88616250D02*
X137156250Y-86697500D01*
X135237500Y-88616250D02*
X135237500Y-100962225D01*
X143668750Y-86135000D02*
X140975000Y-83441250D01*
X140412500Y-83441250D02*
X137156250Y-86697500D01*
X135237500Y-100962225D02*
X136290275Y-102015000D01*
X137156250Y-92860000D02*
X137881250Y-92135000D01*
X140975000Y-83441250D02*
X140412500Y-83441250D01*
X137881250Y-92135000D02*
X141456250Y-92135000D01*
X141456250Y-92135000D02*
X143668750Y-89922500D01*
X143668750Y-89922500D02*
X143668750Y-86135000D01*
%TO.N,Net-(D1-DOUT)*%
X140656250Y-86697500D02*
X140656250Y-87610000D01*
X140656250Y-87610000D02*
X137156250Y-91110000D01*
%TO.N,Net-(D1-DIN)*%
X134837500Y-87266250D02*
X134837500Y-115802225D01*
X134837500Y-115802225D02*
X136290275Y-117255000D01*
X137156250Y-84947500D02*
X134837500Y-87266250D01*
%TO.N,GND*%
X136690275Y-99503339D02*
X137396244Y-99503339D01*
X137396244Y-99503339D02*
X138830275Y-100937370D01*
X140656250Y-84947500D02*
X135637500Y-89966250D01*
X141756250Y-86047500D02*
X140656250Y-84947500D01*
X135637500Y-89966250D02*
X135637500Y-98450564D01*
X138830275Y-100937370D02*
X138830275Y-102015000D01*
X141031250Y-91110000D02*
X141756250Y-90385000D01*
X140656250Y-91110000D02*
X141031250Y-91110000D01*
X141756250Y-90385000D02*
X141756250Y-86047500D01*
X135637500Y-98450564D02*
X136690275Y-99503339D01*
%TO.N,Row1*%
X158325000Y-111063750D02*
X154687500Y-114701250D01*
X158325000Y-111063750D02*
X161875000Y-111063750D01*
X154687500Y-114701250D02*
X154687500Y-115393000D01*
X154687500Y-115393000D02*
X146607275Y-115393000D01*
X146607275Y-115393000D02*
X143910275Y-118090000D01*
X161875000Y-111063750D02*
X165425000Y-111063750D01*
X165425000Y-111063750D02*
X168975000Y-111063750D01*
%TO.N,Net-(D3-A)*%
X166665000Y-28317500D02*
X157423750Y-28317500D01*
X157423750Y-28317500D02*
X154687500Y-31053750D01*
X154687500Y-31053750D02*
X154687500Y-100110000D01*
X154991250Y-100110000D02*
X158325000Y-103443750D01*
X154687500Y-100110000D02*
X154991250Y-100110000D01*
%TO.N,Net-(D4-A)*%
X155087500Y-99640564D02*
X155087500Y-49703750D01*
X155156936Y-99710000D02*
X155087500Y-99640564D01*
X161875000Y-103443750D02*
X158141250Y-99710000D01*
X155087500Y-49703750D02*
X157568750Y-47222500D01*
X157568750Y-47222500D02*
X166665000Y-47222500D01*
X158141250Y-99710000D02*
X155156936Y-99710000D01*
%TO.N,Net-(D5-A)*%
X155487500Y-69153750D02*
X158368750Y-66272500D01*
X165425000Y-103443750D02*
X161291250Y-99310000D01*
X155487500Y-99310000D02*
X155487500Y-69153750D01*
X158368750Y-66272500D02*
X166665000Y-66272500D01*
X161291250Y-99310000D02*
X155487500Y-99310000D01*
%TO.N,Net-(D6-A)*%
X166665000Y-85322500D02*
X158768750Y-85322500D01*
X158768750Y-85322500D02*
X155887500Y-88203750D01*
X155887500Y-88203750D02*
X155887500Y-98910000D01*
X155887500Y-98910000D02*
X164441250Y-98910000D01*
X164441250Y-98910000D02*
X168975000Y-103443750D01*
%TO.N,Net-(D7-A)*%
X173737500Y-31053750D02*
X176473750Y-28317500D01*
X173737500Y-100110000D02*
X173737500Y-31053750D01*
X176473750Y-28317500D02*
X185715000Y-28317500D01*
X174041250Y-100110000D02*
X173737500Y-100110000D01*
X177375000Y-103443750D02*
X174041250Y-100110000D01*
%TO.N,Row2*%
X159450000Y-116378750D02*
X158864250Y-115793000D01*
X180925000Y-111063750D02*
X177375000Y-111063750D01*
X158864250Y-115793000D02*
X148747275Y-115793000D01*
X184475000Y-111063750D02*
X180925000Y-111063750D01*
X177375000Y-111063750D02*
X172060000Y-116378750D01*
X188025000Y-111063750D02*
X184475000Y-111063750D01*
X172060000Y-116378750D02*
X159450000Y-116378750D01*
X148747275Y-115793000D02*
X146450275Y-118090000D01*
%TO.N,Net-(D8-A)*%
X177018750Y-47222500D02*
X174137500Y-50103750D01*
X174137500Y-50103750D02*
X174137500Y-99710000D01*
X177191250Y-99710000D02*
X180925000Y-103443750D01*
X185715000Y-47222500D02*
X177018750Y-47222500D01*
X174137500Y-99710000D02*
X177191250Y-99710000D01*
%TO.N,Net-(D9-A)*%
X174537500Y-69153750D02*
X174537500Y-99310000D01*
X177418750Y-66272500D02*
X174537500Y-69153750D01*
X185715000Y-66272500D02*
X177418750Y-66272500D01*
X174537500Y-99310000D02*
X180341250Y-99310000D01*
X180341250Y-99310000D02*
X184475000Y-103443750D01*
%TO.N,Net-(D10-A)*%
X174937500Y-98910000D02*
X183491250Y-98910000D01*
X183491250Y-98910000D02*
X188025000Y-103443750D01*
X174937500Y-88203750D02*
X174937500Y-98910000D01*
X185715000Y-85322500D02*
X177818750Y-85322500D01*
X177818750Y-85322500D02*
X174937500Y-88203750D01*
%TO.N,Net-(D11-A)*%
X193091250Y-100110000D02*
X196425000Y-103443750D01*
X195523750Y-28317500D02*
X192787500Y-31053750D01*
X204765000Y-28317500D02*
X195523750Y-28317500D01*
X192787500Y-100110000D02*
X193091250Y-100110000D01*
X192787500Y-31053750D02*
X192787500Y-100110000D01*
%TO.N,Row3*%
X190710000Y-116778750D02*
X157068750Y-116778750D01*
X157068750Y-116778750D02*
X156483000Y-116193000D01*
X199975000Y-111063750D02*
X196425000Y-111063750D01*
X203525000Y-111063750D02*
X199975000Y-111063750D01*
X150052275Y-116193000D02*
X148990275Y-117255000D01*
X196425000Y-111063750D02*
X190710000Y-116778750D01*
X156483000Y-116193000D02*
X150052275Y-116193000D01*
X207075000Y-111063750D02*
X203525000Y-111063750D01*
%TO.N,Net-(D12-A)*%
X193187500Y-99640564D02*
X193187500Y-50103750D01*
X193256936Y-99710000D02*
X193187500Y-99640564D01*
X199975000Y-103443750D02*
X196241250Y-99710000D01*
X193187500Y-50103750D02*
X196068750Y-47222500D01*
X196068750Y-47222500D02*
X204765000Y-47222500D01*
X196241250Y-99710000D02*
X193256936Y-99710000D01*
%TO.N,Net-(D13-A)*%
X204765000Y-66272500D02*
X196468750Y-66272500D01*
X199391250Y-99310000D02*
X203525000Y-103443750D01*
X193587500Y-99310000D02*
X199391250Y-99310000D01*
X193587500Y-69153750D02*
X193587500Y-99310000D01*
X196468750Y-66272500D02*
X193587500Y-69153750D01*
%TO.N,Net-(D14-A)*%
X204765000Y-85322500D02*
X196868750Y-85322500D01*
X193987500Y-88203750D02*
X193987500Y-98910000D01*
X202541250Y-98910000D02*
X207075000Y-103443750D01*
X193987500Y-98910000D02*
X202541250Y-98910000D01*
X196868750Y-85322500D02*
X193987500Y-88203750D01*
%TO.N,Net-(D15-A)*%
X216955000Y-28317500D02*
X223815000Y-28317500D01*
X211837500Y-33435000D02*
X216955000Y-28317500D01*
X211837500Y-99806250D02*
X211837500Y-33435000D01*
X215475000Y-103443750D02*
X211837500Y-99806250D01*
%TO.N,Row4*%
X215475000Y-111063750D02*
X219025000Y-111063750D01*
X209283750Y-117255000D02*
X151530275Y-117255000D01*
X215475000Y-111063750D02*
X209283750Y-117255000D01*
X222575000Y-111063750D02*
X226125000Y-111063750D01*
X219025000Y-111063750D02*
X222575000Y-111063750D01*
%TO.N,Net-(D16-A)*%
X215256532Y-99675282D02*
X219025000Y-103443750D01*
X215118750Y-47222500D02*
X212237500Y-50103750D01*
X212272218Y-99675282D02*
X215256532Y-99675282D01*
X223815000Y-47222500D02*
X215118750Y-47222500D01*
X212237500Y-99640564D02*
X212272218Y-99675282D01*
X212237500Y-50103750D02*
X212237500Y-99640564D01*
%TO.N,Net-(D17-A)*%
X223815000Y-66272500D02*
X215518750Y-66272500D01*
X218406532Y-99275282D02*
X222575000Y-103443750D01*
X215518750Y-66272500D02*
X212637500Y-69153750D01*
X212637500Y-99275282D02*
X218406532Y-99275282D01*
X212637500Y-69153750D02*
X212637500Y-99275282D01*
%TO.N,Net-(D18-A)*%
X223815000Y-85322500D02*
X215918750Y-85322500D01*
X215918750Y-85322500D02*
X213037500Y-88203750D01*
X213037500Y-98875282D02*
X221556532Y-98875282D01*
X221556532Y-98875282D02*
X226125000Y-103443750D01*
X213037500Y-88203750D02*
X213037500Y-98875282D01*
%TO.N,Collom2*%
X159666250Y-49762500D02*
X160315000Y-49762500D01*
%TD*%
M02*
