%TF.GenerationSoftware,KiCad,Pcbnew,8.0.8-8.0.8-0~ubuntu24.04.1*%
%TF.CreationDate,2025-02-20T15:32:54-05:00*%
%TF.ProjectId,projects,70726f6a-6563-4747-932e-6b696361645f,rev?*%
%TF.SameCoordinates,Original*%
%TF.FileFunction,Copper,L2,Bot*%
%TF.FilePolarity,Positive*%
%FSLAX46Y46*%
G04 Gerber Fmt 4.6, Leading zero omitted, Abs format (unit mm)*
G04 Created by KiCad (PCBNEW 8.0.8-8.0.8-0~ubuntu24.04.1) date 2025-02-20 15:32:54*
%MOMM*%
%LPD*%
G01*
G04 APERTURE LIST*
%ADD10C,0.300000*%
%TA.AperFunction,NonConductor*%
%ADD11C,0.300000*%
%TD*%
%TA.AperFunction,ComponentPad*%
%ADD12C,2.200000*%
%TD*%
%TA.AperFunction,ComponentPad*%
%ADD13C,1.524000*%
%TD*%
%TA.AperFunction,ViaPad*%
%ADD14C,0.600000*%
%TD*%
%TA.AperFunction,Conductor*%
%ADD15C,0.200000*%
%TD*%
G04 APERTURE END LIST*
D10*
D11*
X62467010Y-98993948D02*
X62967010Y-98993948D01*
X63181296Y-99779662D02*
X62467010Y-99779662D01*
X62467010Y-99779662D02*
X62467010Y-98279662D01*
X62467010Y-98279662D02*
X63181296Y-98279662D01*
X63609868Y-98779662D02*
X64181296Y-98779662D01*
X63824153Y-98279662D02*
X63824153Y-99565376D01*
X63824153Y-99565376D02*
X63895582Y-99708234D01*
X63895582Y-99708234D02*
X64038439Y-99779662D01*
X64038439Y-99779662D02*
X64181296Y-99779662D01*
X64681296Y-99779662D02*
X64681296Y-98279662D01*
X65324154Y-99779662D02*
X65324154Y-98993948D01*
X65324154Y-98993948D02*
X65252725Y-98851091D01*
X65252725Y-98851091D02*
X65109868Y-98779662D01*
X65109868Y-98779662D02*
X64895582Y-98779662D01*
X64895582Y-98779662D02*
X64752725Y-98851091D01*
X64752725Y-98851091D02*
X64681296Y-98922519D01*
X66681297Y-99779662D02*
X66681297Y-98993948D01*
X66681297Y-98993948D02*
X66609868Y-98851091D01*
X66609868Y-98851091D02*
X66467011Y-98779662D01*
X66467011Y-98779662D02*
X66181297Y-98779662D01*
X66181297Y-98779662D02*
X66038439Y-98851091D01*
X66681297Y-99708234D02*
X66538439Y-99779662D01*
X66538439Y-99779662D02*
X66181297Y-99779662D01*
X66181297Y-99779662D02*
X66038439Y-99708234D01*
X66038439Y-99708234D02*
X65967011Y-99565376D01*
X65967011Y-99565376D02*
X65967011Y-99422519D01*
X65967011Y-99422519D02*
X66038439Y-99279662D01*
X66038439Y-99279662D02*
X66181297Y-99208234D01*
X66181297Y-99208234D02*
X66538439Y-99208234D01*
X66538439Y-99208234D02*
X66681297Y-99136805D01*
X67395582Y-98779662D02*
X67395582Y-99779662D01*
X67395582Y-98922519D02*
X67467011Y-98851091D01*
X67467011Y-98851091D02*
X67609868Y-98779662D01*
X67609868Y-98779662D02*
X67824154Y-98779662D01*
X67824154Y-98779662D02*
X67967011Y-98851091D01*
X67967011Y-98851091D02*
X68038440Y-98993948D01*
X68038440Y-98993948D02*
X68038440Y-99779662D01*
X68824154Y-98279662D02*
X68681297Y-98565376D01*
X69395583Y-99708234D02*
X69538440Y-99779662D01*
X69538440Y-99779662D02*
X69824154Y-99779662D01*
X69824154Y-99779662D02*
X69967011Y-99708234D01*
X69967011Y-99708234D02*
X70038440Y-99565376D01*
X70038440Y-99565376D02*
X70038440Y-99493948D01*
X70038440Y-99493948D02*
X69967011Y-99351091D01*
X69967011Y-99351091D02*
X69824154Y-99279662D01*
X69824154Y-99279662D02*
X69609869Y-99279662D01*
X69609869Y-99279662D02*
X69467011Y-99208234D01*
X69467011Y-99208234D02*
X69395583Y-99065376D01*
X69395583Y-99065376D02*
X69395583Y-98993948D01*
X69395583Y-98993948D02*
X69467011Y-98851091D01*
X69467011Y-98851091D02*
X69609869Y-98779662D01*
X69609869Y-98779662D02*
X69824154Y-98779662D01*
X69824154Y-98779662D02*
X69967011Y-98851091D01*
X71824154Y-99779662D02*
X71824154Y-98279662D01*
X72467012Y-99779662D02*
X72467012Y-98993948D01*
X72467012Y-98993948D02*
X72395583Y-98851091D01*
X72395583Y-98851091D02*
X72252726Y-98779662D01*
X72252726Y-98779662D02*
X72038440Y-98779662D01*
X72038440Y-98779662D02*
X71895583Y-98851091D01*
X71895583Y-98851091D02*
X71824154Y-98922519D01*
X73824155Y-99779662D02*
X73824155Y-98993948D01*
X73824155Y-98993948D02*
X73752726Y-98851091D01*
X73752726Y-98851091D02*
X73609869Y-98779662D01*
X73609869Y-98779662D02*
X73324155Y-98779662D01*
X73324155Y-98779662D02*
X73181297Y-98851091D01*
X73824155Y-99708234D02*
X73681297Y-99779662D01*
X73681297Y-99779662D02*
X73324155Y-99779662D01*
X73324155Y-99779662D02*
X73181297Y-99708234D01*
X73181297Y-99708234D02*
X73109869Y-99565376D01*
X73109869Y-99565376D02*
X73109869Y-99422519D01*
X73109869Y-99422519D02*
X73181297Y-99279662D01*
X73181297Y-99279662D02*
X73324155Y-99208234D01*
X73324155Y-99208234D02*
X73681297Y-99208234D01*
X73681297Y-99208234D02*
X73824155Y-99136805D01*
X75181298Y-99708234D02*
X75038440Y-99779662D01*
X75038440Y-99779662D02*
X74752726Y-99779662D01*
X74752726Y-99779662D02*
X74609869Y-99708234D01*
X74609869Y-99708234D02*
X74538440Y-99636805D01*
X74538440Y-99636805D02*
X74467012Y-99493948D01*
X74467012Y-99493948D02*
X74467012Y-99065376D01*
X74467012Y-99065376D02*
X74538440Y-98922519D01*
X74538440Y-98922519D02*
X74609869Y-98851091D01*
X74609869Y-98851091D02*
X74752726Y-98779662D01*
X74752726Y-98779662D02*
X75038440Y-98779662D01*
X75038440Y-98779662D02*
X75181298Y-98851091D01*
X75824154Y-99779662D02*
X75824154Y-98279662D01*
X75967012Y-99208234D02*
X76395583Y-99779662D01*
X76395583Y-98779662D02*
X75824154Y-99351091D01*
X77038440Y-98779662D02*
X77038440Y-100279662D01*
X77038440Y-98851091D02*
X77181298Y-98779662D01*
X77181298Y-98779662D02*
X77467012Y-98779662D01*
X77467012Y-98779662D02*
X77609869Y-98851091D01*
X77609869Y-98851091D02*
X77681298Y-98922519D01*
X77681298Y-98922519D02*
X77752726Y-99065376D01*
X77752726Y-99065376D02*
X77752726Y-99493948D01*
X77752726Y-99493948D02*
X77681298Y-99636805D01*
X77681298Y-99636805D02*
X77609869Y-99708234D01*
X77609869Y-99708234D02*
X77467012Y-99779662D01*
X77467012Y-99779662D02*
X77181298Y-99779662D01*
X77181298Y-99779662D02*
X77038440Y-99708234D01*
X79038441Y-99779662D02*
X79038441Y-98993948D01*
X79038441Y-98993948D02*
X78967012Y-98851091D01*
X78967012Y-98851091D02*
X78824155Y-98779662D01*
X78824155Y-98779662D02*
X78538441Y-98779662D01*
X78538441Y-98779662D02*
X78395583Y-98851091D01*
X79038441Y-99708234D02*
X78895583Y-99779662D01*
X78895583Y-99779662D02*
X78538441Y-99779662D01*
X78538441Y-99779662D02*
X78395583Y-99708234D01*
X78395583Y-99708234D02*
X78324155Y-99565376D01*
X78324155Y-99565376D02*
X78324155Y-99422519D01*
X78324155Y-99422519D02*
X78395583Y-99279662D01*
X78395583Y-99279662D02*
X78538441Y-99208234D01*
X78538441Y-99208234D02*
X78895583Y-99208234D01*
X78895583Y-99208234D02*
X79038441Y-99136805D01*
X80395584Y-99779662D02*
X80395584Y-98279662D01*
X80395584Y-99708234D02*
X80252726Y-99779662D01*
X80252726Y-99779662D02*
X79967012Y-99779662D01*
X79967012Y-99779662D02*
X79824155Y-99708234D01*
X79824155Y-99708234D02*
X79752726Y-99636805D01*
X79752726Y-99636805D02*
X79681298Y-99493948D01*
X79681298Y-99493948D02*
X79681298Y-99065376D01*
X79681298Y-99065376D02*
X79752726Y-98922519D01*
X79752726Y-98922519D02*
X79824155Y-98851091D01*
X79824155Y-98851091D02*
X79967012Y-98779662D01*
X79967012Y-98779662D02*
X80252726Y-98779662D01*
X80252726Y-98779662D02*
X80395584Y-98851091D01*
X62467010Y-102194578D02*
X62467010Y-101194578D01*
X62467010Y-101337435D02*
X62538439Y-101266007D01*
X62538439Y-101266007D02*
X62681296Y-101194578D01*
X62681296Y-101194578D02*
X62895582Y-101194578D01*
X62895582Y-101194578D02*
X63038439Y-101266007D01*
X63038439Y-101266007D02*
X63109868Y-101408864D01*
X63109868Y-101408864D02*
X63109868Y-102194578D01*
X63109868Y-101408864D02*
X63181296Y-101266007D01*
X63181296Y-101266007D02*
X63324153Y-101194578D01*
X63324153Y-101194578D02*
X63538439Y-101194578D01*
X63538439Y-101194578D02*
X63681296Y-101266007D01*
X63681296Y-101266007D02*
X63752725Y-101408864D01*
X63752725Y-101408864D02*
X63752725Y-102194578D01*
X65109868Y-102194578D02*
X65109868Y-101408864D01*
X65109868Y-101408864D02*
X65038439Y-101266007D01*
X65038439Y-101266007D02*
X64895582Y-101194578D01*
X64895582Y-101194578D02*
X64609868Y-101194578D01*
X64609868Y-101194578D02*
X64467010Y-101266007D01*
X65109868Y-102123150D02*
X64967010Y-102194578D01*
X64967010Y-102194578D02*
X64609868Y-102194578D01*
X64609868Y-102194578D02*
X64467010Y-102123150D01*
X64467010Y-102123150D02*
X64395582Y-101980292D01*
X64395582Y-101980292D02*
X64395582Y-101837435D01*
X64395582Y-101837435D02*
X64467010Y-101694578D01*
X64467010Y-101694578D02*
X64609868Y-101623150D01*
X64609868Y-101623150D02*
X64967010Y-101623150D01*
X64967010Y-101623150D02*
X65109868Y-101551721D01*
X66467011Y-102123150D02*
X66324153Y-102194578D01*
X66324153Y-102194578D02*
X66038439Y-102194578D01*
X66038439Y-102194578D02*
X65895582Y-102123150D01*
X65895582Y-102123150D02*
X65824153Y-102051721D01*
X65824153Y-102051721D02*
X65752725Y-101908864D01*
X65752725Y-101908864D02*
X65752725Y-101480292D01*
X65752725Y-101480292D02*
X65824153Y-101337435D01*
X65824153Y-101337435D02*
X65895582Y-101266007D01*
X65895582Y-101266007D02*
X66038439Y-101194578D01*
X66038439Y-101194578D02*
X66324153Y-101194578D01*
X66324153Y-101194578D02*
X66467011Y-101266007D01*
X67324153Y-102194578D02*
X67181296Y-102123150D01*
X67181296Y-102123150D02*
X67109867Y-102051721D01*
X67109867Y-102051721D02*
X67038439Y-101908864D01*
X67038439Y-101908864D02*
X67038439Y-101480292D01*
X67038439Y-101480292D02*
X67109867Y-101337435D01*
X67109867Y-101337435D02*
X67181296Y-101266007D01*
X67181296Y-101266007D02*
X67324153Y-101194578D01*
X67324153Y-101194578D02*
X67538439Y-101194578D01*
X67538439Y-101194578D02*
X67681296Y-101266007D01*
X67681296Y-101266007D02*
X67752725Y-101337435D01*
X67752725Y-101337435D02*
X67824153Y-101480292D01*
X67824153Y-101480292D02*
X67824153Y-101908864D01*
X67824153Y-101908864D02*
X67752725Y-102051721D01*
X67752725Y-102051721D02*
X67681296Y-102123150D01*
X67681296Y-102123150D02*
X67538439Y-102194578D01*
X67538439Y-102194578D02*
X67324153Y-102194578D01*
X68467010Y-102194578D02*
X68467010Y-101194578D01*
X68467010Y-101480292D02*
X68538439Y-101337435D01*
X68538439Y-101337435D02*
X68609868Y-101266007D01*
X68609868Y-101266007D02*
X68752725Y-101194578D01*
X68752725Y-101194578D02*
X68895582Y-101194578D01*
X69395581Y-101194578D02*
X69395581Y-102694578D01*
X69395581Y-101266007D02*
X69538439Y-101194578D01*
X69538439Y-101194578D02*
X69824153Y-101194578D01*
X69824153Y-101194578D02*
X69967010Y-101266007D01*
X69967010Y-101266007D02*
X70038439Y-101337435D01*
X70038439Y-101337435D02*
X70109867Y-101480292D01*
X70109867Y-101480292D02*
X70109867Y-101908864D01*
X70109867Y-101908864D02*
X70038439Y-102051721D01*
X70038439Y-102051721D02*
X69967010Y-102123150D01*
X69967010Y-102123150D02*
X69824153Y-102194578D01*
X69824153Y-102194578D02*
X69538439Y-102194578D01*
X69538439Y-102194578D02*
X69395581Y-102123150D01*
X71395582Y-102194578D02*
X71395582Y-101408864D01*
X71395582Y-101408864D02*
X71324153Y-101266007D01*
X71324153Y-101266007D02*
X71181296Y-101194578D01*
X71181296Y-101194578D02*
X70895582Y-101194578D01*
X70895582Y-101194578D02*
X70752724Y-101266007D01*
X71395582Y-102123150D02*
X71252724Y-102194578D01*
X71252724Y-102194578D02*
X70895582Y-102194578D01*
X70895582Y-102194578D02*
X70752724Y-102123150D01*
X70752724Y-102123150D02*
X70681296Y-101980292D01*
X70681296Y-101980292D02*
X70681296Y-101837435D01*
X70681296Y-101837435D02*
X70752724Y-101694578D01*
X70752724Y-101694578D02*
X70895582Y-101623150D01*
X70895582Y-101623150D02*
X71252724Y-101623150D01*
X71252724Y-101623150D02*
X71395582Y-101551721D01*
X72752725Y-102194578D02*
X72752725Y-100694578D01*
X72752725Y-102123150D02*
X72609867Y-102194578D01*
X72609867Y-102194578D02*
X72324153Y-102194578D01*
X72324153Y-102194578D02*
X72181296Y-102123150D01*
X72181296Y-102123150D02*
X72109867Y-102051721D01*
X72109867Y-102051721D02*
X72038439Y-101908864D01*
X72038439Y-101908864D02*
X72038439Y-101480292D01*
X72038439Y-101480292D02*
X72109867Y-101337435D01*
X72109867Y-101337435D02*
X72181296Y-101266007D01*
X72181296Y-101266007D02*
X72324153Y-101194578D01*
X72324153Y-101194578D02*
X72609867Y-101194578D01*
X72609867Y-101194578D02*
X72752725Y-101266007D01*
D12*
%TO.P,SW4,1,1*%
%TO.N,GND*%
X97790000Y-87788750D03*
%TO.P,SW4,2,2*%
%TO.N,Net-(U1-GPIO3{slash}MOSI)*%
X91440000Y-90328750D03*
%TD*%
%TO.P,SW1,1,1*%
%TO.N,GND*%
X78740000Y-68738750D03*
%TO.P,SW1,2,2*%
%TO.N,Net-(U1-GPIO1{slash}RX)*%
X72390000Y-71278750D03*
%TD*%
D13*
%TO.P,U1,1,GPIO26/ADC0/A0*%
%TO.N,unconnected-(U1-GPIO26{slash}ADC0{slash}A0-Pad1)*%
X76771000Y-40185750D03*
%TO.P,U1,2,GPIO27/ADC1/A1*%
%TO.N,unconnected-(U1-GPIO27{slash}ADC1{slash}A1-Pad2)*%
X76771000Y-42725750D03*
%TO.P,U1,3,GPIO28/ADC2/A2*%
%TO.N,unconnected-(U1-GPIO28{slash}ADC2{slash}A2-Pad3)*%
X76771000Y-45265750D03*
%TO.P,U1,4,GPIO29/ADC3/A3*%
%TO.N,unconnected-(U1-GPIO29{slash}ADC3{slash}A3-Pad4)*%
X76771000Y-47805750D03*
%TO.P,U1,5,GPIO6/SDA*%
%TO.N,Net-(D1-DIN)*%
X76771000Y-50345750D03*
%TO.P,U1,6,GPIO7/SCL*%
%TO.N,unconnected-(U1-GPIO7{slash}SCL-Pad6)*%
X76771000Y-52885750D03*
%TO.P,U1,7,GPIO0/TX*%
%TO.N,unconnected-(U1-GPIO0{slash}TX-Pad7)*%
X76771000Y-55425750D03*
%TO.P,U1,8,GPIO1/RX*%
%TO.N,Net-(U1-GPIO1{slash}RX)*%
X92011000Y-55425750D03*
%TO.P,U1,9,GPIO2/SCK*%
%TO.N,Net-(U1-GPIO2{slash}SCK)*%
X92011000Y-52885750D03*
%TO.P,U1,10,GPIO4/MISO*%
%TO.N,Net-(U1-GPIO4{slash}MISO)*%
X92011000Y-50345750D03*
%TO.P,U1,11,GPIO3/MOSI*%
%TO.N,Net-(U1-GPIO3{slash}MOSI)*%
X92011000Y-47805750D03*
%TO.P,U1,12,3V3*%
%TO.N,unconnected-(U1-3V3-Pad12)*%
X92011000Y-45265750D03*
%TO.P,U1,13,GND*%
%TO.N,GND*%
X92011000Y-42725750D03*
%TO.P,U1,14,VBUS*%
%TO.N,+5V*%
X92011000Y-40185750D03*
%TD*%
D12*
%TO.P,SW3,1,1*%
%TO.N,GND*%
X78740000Y-87788750D03*
%TO.P,SW3,2,2*%
%TO.N,Net-(U1-GPIO4{slash}MISO)*%
X72390000Y-90328750D03*
%TD*%
%TO.P,SW2,1,1*%
%TO.N,GND*%
X97790000Y-68738750D03*
%TO.P,SW2,2,2*%
%TO.N,Net-(U1-GPIO2{slash}SCK)*%
X91440000Y-71278750D03*
%TD*%
D14*
%TO.N,Net-(U1-GPIO1{slash}RX)*%
X85890140Y-57315140D03*
%TO.N,Net-(U1-GPIO4{slash}MISO)*%
X83343750Y-68138750D03*
%TD*%
D15*
%TO.N,Net-(U1-GPIO1{slash}RX)*%
X72390000Y-71278750D02*
X72390000Y-65924855D01*
X81164855Y-57150000D02*
X85725000Y-57150000D01*
X85725000Y-57150000D02*
X85890140Y-57315140D01*
X72390000Y-65924855D02*
X81164855Y-57150000D01*
%TO.N,Net-(U1-GPIO2{slash}SCK)*%
X92011000Y-52885750D02*
X90487500Y-54409250D01*
X90487500Y-70326250D02*
X91440000Y-71278750D01*
X90487500Y-54409250D02*
X90487500Y-70326250D01*
%TO.N,Net-(U1-GPIO4{slash}MISO)*%
X83343750Y-80962500D02*
X73977500Y-90328750D01*
X83343750Y-68138750D02*
X83343750Y-80962500D01*
X73977500Y-90328750D02*
X72390000Y-90328750D01*
%TO.N,Net-(U1-GPIO3{slash}MOSI)*%
X88106250Y-51710500D02*
X88106250Y-86995000D01*
X88106250Y-86995000D02*
X91440000Y-90328750D01*
X92011000Y-47805750D02*
X88106250Y-51710500D01*
%TD*%
M02*
