G04 #@! TF.GenerationSoftware,KiCad,Pcbnew,8.0.6*
G04 #@! TF.CreationDate,2024-10-24T18:52:45+08:00*
G04 #@! TF.ProjectId,hackpad,6861636b-7061-4642-9e6b-696361645f70,rev?*
G04 #@! TF.SameCoordinates,Original*
G04 #@! TF.FileFunction,Legend,Bot*
G04 #@! TF.FilePolarity,Positive*
%FSLAX46Y46*%
G04 Gerber Fmt 4.6, Leading zero omitted, Abs format (unit mm)*
G04 Created by KiCad (PCBNEW 8.0.6) date 2024-10-24 18:52:45*
%MOMM*%
%LPD*%
G01*
G04 APERTURE LIST*
%ADD10C,1.700000*%
%ADD11C,4.000000*%
%ADD12C,2.200000*%
%ADD13R,1.700000X1.700000*%
G04 APERTURE END LIST*
%LPC*%
D10*
X151420000Y-96540000D03*
D11*
X156500000Y-96540000D03*
D10*
X161580000Y-96540000D03*
D12*
X159040000Y-91460000D03*
X152690000Y-94000000D03*
D10*
X151420000Y-58500000D03*
D11*
X156500000Y-58500000D03*
D10*
X161580000Y-58500000D03*
D12*
X159040000Y-53420000D03*
X152690000Y-55960000D03*
D10*
X113420000Y-96500000D03*
D11*
X118500000Y-96500000D03*
D10*
X123580000Y-96500000D03*
D12*
X121040000Y-91420000D03*
X114690000Y-93960000D03*
D10*
X113420000Y-58500000D03*
D11*
X118500000Y-58500000D03*
D10*
X123580000Y-58500000D03*
D12*
X121040000Y-53420000D03*
X114690000Y-55960000D03*
D13*
X110875000Y-50880000D03*
D10*
X110875000Y-53420000D03*
X110875000Y-55960000D03*
X110875000Y-58500000D03*
X110875000Y-61040000D03*
X110875000Y-63580000D03*
X110875000Y-66120000D03*
X126125000Y-66120000D03*
X126125000Y-63580000D03*
X126125000Y-61040000D03*
X126125000Y-58500000D03*
X126125000Y-55960000D03*
X126125000Y-53420000D03*
X126125000Y-50880000D03*
X151420000Y-77500000D03*
D11*
X156500000Y-77500000D03*
D10*
X161580000Y-77500000D03*
D12*
X159040000Y-72420000D03*
X152690000Y-74960000D03*
D10*
X132420000Y-77500000D03*
D11*
X137500000Y-77500000D03*
D10*
X142580000Y-77500000D03*
D12*
X140040000Y-72420000D03*
X133690000Y-74960000D03*
D10*
X132420000Y-96500000D03*
D11*
X137500000Y-96500000D03*
D10*
X142580000Y-96500000D03*
D12*
X140040000Y-91420000D03*
X133690000Y-93960000D03*
D10*
X113420000Y-77500000D03*
D11*
X118500000Y-77500000D03*
D10*
X123580000Y-77500000D03*
D12*
X121040000Y-72420000D03*
X114690000Y-74960000D03*
D10*
X132420000Y-58500000D03*
D11*
X137500000Y-58500000D03*
D10*
X142580000Y-58500000D03*
D12*
X140040000Y-53420000D03*
X133690000Y-55960000D03*
%LPD*%
M02*
