G04 #@! TF.GenerationSoftware,KiCad,Pcbnew,8.0.6*
G04 #@! TF.CreationDate,2024-10-24T18:52:45+08:00*
G04 #@! TF.ProjectId,hackpad,6861636b-7061-4642-9e6b-696361645f70,rev?*
G04 #@! TF.SameCoordinates,Original*
G04 #@! TF.FileFunction,Copper,L1,Top*
G04 #@! TF.FilePolarity,Positive*
%FSLAX46Y46*%
G04 Gerber Fmt 4.6, Leading zero omitted, Abs format (unit mm)*
G04 Created by KiCad (PCBNEW 8.0.6) date 2024-10-24 18:52:45*
%MOMM*%
%LPD*%
G01*
G04 APERTURE LIST*
%ADD10C,0.300000*%
G04 #@! TA.AperFunction,NonConductor*
%ADD11C,0.300000*%
G04 #@! TD*
G04 #@! TA.AperFunction,NonConductor*
%ADD12C,0.200000*%
G04 #@! TD*
G04 #@! TA.AperFunction,ComponentPad*
%ADD13C,2.200000*%
G04 #@! TD*
G04 #@! TA.AperFunction,ComponentPad*
%ADD14R,1.700000X1.700000*%
G04 #@! TD*
G04 #@! TA.AperFunction,ComponentPad*
%ADD15C,1.700000*%
G04 #@! TD*
G04 #@! TA.AperFunction,Conductor*
%ADD16C,0.200000*%
G04 #@! TD*
G04 APERTURE END LIST*
D10*
D11*
X131356223Y-107356382D02*
X130641937Y-107355881D01*
X130641937Y-107355881D02*
X130570008Y-108070117D01*
X130570008Y-108070117D02*
X130641486Y-107998738D01*
X130641486Y-107998738D02*
X130784394Y-107927410D01*
X130784394Y-107927410D02*
X131141536Y-107927660D01*
X131141536Y-107927660D02*
X131284343Y-107999189D01*
X131284343Y-107999189D02*
X131355722Y-108070668D01*
X131355722Y-108070668D02*
X131427050Y-108213575D01*
X131427050Y-108213575D02*
X131426800Y-108570718D01*
X131426800Y-108570718D02*
X131355271Y-108713525D01*
X131355271Y-108713525D02*
X131283793Y-108784903D01*
X131283793Y-108784903D02*
X131140885Y-108856232D01*
X131140885Y-108856232D02*
X130783743Y-108855981D01*
X130783743Y-108855981D02*
X130640936Y-108784453D01*
X130640936Y-108784453D02*
X130569557Y-108712974D01*
X131927651Y-107356783D02*
X132927650Y-107357484D01*
X132927650Y-107357484D02*
X132283742Y-108857033D01*
X133498127Y-108715027D02*
X133569505Y-108786506D01*
X133569505Y-108786506D02*
X133498027Y-108857884D01*
X133498027Y-108857884D02*
X133426648Y-108786406D01*
X133426648Y-108786406D02*
X133498127Y-108715027D01*
X133498127Y-108715027D02*
X133498027Y-108857884D01*
X134499078Y-107358586D02*
X134641936Y-107358686D01*
X134641936Y-107358686D02*
X134784743Y-107430215D01*
X134784743Y-107430215D02*
X134856121Y-107501693D01*
X134856121Y-107501693D02*
X134927449Y-107644601D01*
X134927449Y-107644601D02*
X134998678Y-107930365D01*
X134998678Y-107930365D02*
X134998427Y-108287508D01*
X134998427Y-108287508D02*
X134926798Y-108573172D01*
X134926798Y-108573172D02*
X134855270Y-108715979D01*
X134855270Y-108715979D02*
X134783791Y-108787357D01*
X134783791Y-108787357D02*
X134640884Y-108858686D01*
X134640884Y-108858686D02*
X134498027Y-108858585D01*
X134498027Y-108858585D02*
X134355220Y-108787057D01*
X134355220Y-108787057D02*
X134283841Y-108715578D01*
X134283841Y-108715578D02*
X134212513Y-108572671D01*
X134212513Y-108572671D02*
X134141285Y-108286907D01*
X134141285Y-108286907D02*
X134141535Y-107929764D01*
X134141535Y-107929764D02*
X134213164Y-107644100D01*
X134213164Y-107644100D02*
X134284693Y-107501293D01*
X134284693Y-107501293D02*
X134356171Y-107429914D01*
X134356171Y-107429914D02*
X134499078Y-107358586D01*
X136356220Y-107359888D02*
X135641935Y-107359387D01*
X135641935Y-107359387D02*
X135570006Y-108073623D01*
X135570006Y-108073623D02*
X135641484Y-108002244D01*
X135641484Y-108002244D02*
X135784391Y-107930916D01*
X135784391Y-107930916D02*
X136141534Y-107931166D01*
X136141534Y-107931166D02*
X136284341Y-108002695D01*
X136284341Y-108002695D02*
X136355720Y-108074174D01*
X136355720Y-108074174D02*
X136427048Y-108217081D01*
X136427048Y-108217081D02*
X136426798Y-108574223D01*
X136426798Y-108574223D02*
X136355269Y-108717030D01*
X136355269Y-108717030D02*
X136283790Y-108788409D01*
X136283790Y-108788409D02*
X136140883Y-108859737D01*
X136140883Y-108859737D02*
X135783740Y-108859487D01*
X135783740Y-108859487D02*
X135640933Y-108787958D01*
X135640933Y-108787958D02*
X135569555Y-108716480D01*
X137356220Y-107360589D02*
X137499077Y-107360689D01*
X137499077Y-107360689D02*
X137641884Y-107432218D01*
X137641884Y-107432218D02*
X137713262Y-107503697D01*
X137713262Y-107503697D02*
X137784591Y-107646604D01*
X137784591Y-107646604D02*
X137855819Y-107932368D01*
X137855819Y-107932368D02*
X137855569Y-108289511D01*
X137855569Y-108289511D02*
X137783940Y-108575175D01*
X137783940Y-108575175D02*
X137712411Y-108717982D01*
X137712411Y-108717982D02*
X137640932Y-108789361D01*
X137640932Y-108789361D02*
X137498025Y-108860689D01*
X137498025Y-108860689D02*
X137355168Y-108860589D01*
X137355168Y-108860589D02*
X137212361Y-108789060D01*
X137212361Y-108789060D02*
X137140983Y-108717581D01*
X137140983Y-108717581D02*
X137069654Y-108574674D01*
X137069654Y-108574674D02*
X136998426Y-108288910D01*
X136998426Y-108288910D02*
X136998676Y-107931767D01*
X136998676Y-107931767D02*
X137070305Y-107646103D01*
X137070305Y-107646103D02*
X137141834Y-107503296D01*
X137141834Y-107503296D02*
X137213313Y-107431918D01*
X137213313Y-107431918D02*
X137356220Y-107360589D01*
X138784790Y-107361591D02*
X138927648Y-107361691D01*
X138927648Y-107361691D02*
X139070455Y-107433220D01*
X139070455Y-107433220D02*
X139141833Y-107504698D01*
X139141833Y-107504698D02*
X139213161Y-107647605D01*
X139213161Y-107647605D02*
X139284390Y-107933370D01*
X139284390Y-107933370D02*
X139284139Y-108290513D01*
X139284139Y-108290513D02*
X139212510Y-108576177D01*
X139212510Y-108576177D02*
X139140982Y-108718984D01*
X139140982Y-108718984D02*
X139069503Y-108790362D01*
X139069503Y-108790362D02*
X138926596Y-108861691D01*
X138926596Y-108861691D02*
X138783739Y-108861590D01*
X138783739Y-108861590D02*
X138640932Y-108790062D01*
X138640932Y-108790062D02*
X138569553Y-108718583D01*
X138569553Y-108718583D02*
X138498225Y-108575676D01*
X138498225Y-108575676D02*
X138426997Y-108289912D01*
X138426997Y-108289912D02*
X138427247Y-107932769D01*
X138427247Y-107932769D02*
X138498876Y-107647105D01*
X138498876Y-107647105D02*
X138570405Y-107504298D01*
X138570405Y-107504298D02*
X138641883Y-107432919D01*
X138641883Y-107432919D02*
X138784790Y-107361591D01*
X141069452Y-108863193D02*
X141070153Y-107863193D01*
X141070053Y-108006050D02*
X141141531Y-107934672D01*
X141141531Y-107934672D02*
X141284439Y-107863343D01*
X141284439Y-107863343D02*
X141498724Y-107863494D01*
X141498724Y-107863494D02*
X141641531Y-107935022D01*
X141641531Y-107935022D02*
X141712860Y-108077930D01*
X141712860Y-108077930D02*
X141712309Y-108863644D01*
X141712860Y-108077930D02*
X141784388Y-107935123D01*
X141784388Y-107935123D02*
X141927296Y-107863794D01*
X141927296Y-107863794D02*
X142141581Y-107863944D01*
X142141581Y-107863944D02*
X142284388Y-107935473D01*
X142284388Y-107935473D02*
X142355717Y-108078380D01*
X142355717Y-108078380D02*
X142355166Y-108864094D01*
X143069451Y-108864595D02*
X143070153Y-107864595D01*
X143070052Y-108007453D02*
X143141531Y-107936074D01*
X143141531Y-107936074D02*
X143284438Y-107864746D01*
X143284438Y-107864746D02*
X143498724Y-107864896D01*
X143498724Y-107864896D02*
X143641531Y-107936425D01*
X143641531Y-107936425D02*
X143712859Y-108079332D01*
X143712859Y-108079332D02*
X143712308Y-108865046D01*
X143712859Y-108079332D02*
X143784388Y-107936525D01*
X143784388Y-107936525D02*
X143927295Y-107865196D01*
X143927295Y-107865196D02*
X144141581Y-107865347D01*
X144141581Y-107865347D02*
X144284388Y-107936875D01*
X144284388Y-107936875D02*
X144355716Y-108079783D01*
X144355716Y-108079783D02*
X144355165Y-108865497D01*
D12*
X166024649Y-106565000D02*
X166021828Y-110588781D01*
X108974649Y-106525000D02*
X108971828Y-110548781D01*
X166022239Y-110002361D02*
X108972239Y-109962361D01*
X166022239Y-110002361D02*
X108972239Y-109962361D01*
X166022239Y-110002361D02*
X164895324Y-110587992D01*
X166022239Y-110002361D02*
X164896147Y-109415151D01*
X108972239Y-109962361D02*
X110099154Y-109376730D01*
X108972239Y-109962361D02*
X110098331Y-110549571D01*
D10*
D11*
X167378328Y-83662855D02*
X167378328Y-84377141D01*
X167378328Y-84377141D02*
X168092614Y-84448569D01*
X168092614Y-84448569D02*
X168021185Y-84377141D01*
X168021185Y-84377141D02*
X167949757Y-84234284D01*
X167949757Y-84234284D02*
X167949757Y-83877141D01*
X167949757Y-83877141D02*
X168021185Y-83734284D01*
X168021185Y-83734284D02*
X168092614Y-83662855D01*
X168092614Y-83662855D02*
X168235471Y-83591426D01*
X168235471Y-83591426D02*
X168592614Y-83591426D01*
X168592614Y-83591426D02*
X168735471Y-83662855D01*
X168735471Y-83662855D02*
X168806900Y-83734284D01*
X168806900Y-83734284D02*
X168878328Y-83877141D01*
X168878328Y-83877141D02*
X168878328Y-84234284D01*
X168878328Y-84234284D02*
X168806900Y-84377141D01*
X168806900Y-84377141D02*
X168735471Y-84448569D01*
X167378328Y-83091427D02*
X167378328Y-82091427D01*
X167378328Y-82091427D02*
X168878328Y-82734284D01*
X168735471Y-81519999D02*
X168806900Y-81448570D01*
X168806900Y-81448570D02*
X168878328Y-81519999D01*
X168878328Y-81519999D02*
X168806900Y-81591427D01*
X168806900Y-81591427D02*
X168735471Y-81519999D01*
X168735471Y-81519999D02*
X168878328Y-81519999D01*
X167378328Y-80519998D02*
X167378328Y-80377141D01*
X167378328Y-80377141D02*
X167449757Y-80234284D01*
X167449757Y-80234284D02*
X167521185Y-80162856D01*
X167521185Y-80162856D02*
X167664042Y-80091427D01*
X167664042Y-80091427D02*
X167949757Y-80019998D01*
X167949757Y-80019998D02*
X168306900Y-80019998D01*
X168306900Y-80019998D02*
X168592614Y-80091427D01*
X168592614Y-80091427D02*
X168735471Y-80162856D01*
X168735471Y-80162856D02*
X168806900Y-80234284D01*
X168806900Y-80234284D02*
X168878328Y-80377141D01*
X168878328Y-80377141D02*
X168878328Y-80519998D01*
X168878328Y-80519998D02*
X168806900Y-80662856D01*
X168806900Y-80662856D02*
X168735471Y-80734284D01*
X168735471Y-80734284D02*
X168592614Y-80805713D01*
X168592614Y-80805713D02*
X168306900Y-80877141D01*
X168306900Y-80877141D02*
X167949757Y-80877141D01*
X167949757Y-80877141D02*
X167664042Y-80805713D01*
X167664042Y-80805713D02*
X167521185Y-80734284D01*
X167521185Y-80734284D02*
X167449757Y-80662856D01*
X167449757Y-80662856D02*
X167378328Y-80519998D01*
X168878328Y-79305713D02*
X168878328Y-79019999D01*
X168878328Y-79019999D02*
X168806900Y-78877142D01*
X168806900Y-78877142D02*
X168735471Y-78805713D01*
X168735471Y-78805713D02*
X168521185Y-78662856D01*
X168521185Y-78662856D02*
X168235471Y-78591427D01*
X168235471Y-78591427D02*
X167664042Y-78591427D01*
X167664042Y-78591427D02*
X167521185Y-78662856D01*
X167521185Y-78662856D02*
X167449757Y-78734285D01*
X167449757Y-78734285D02*
X167378328Y-78877142D01*
X167378328Y-78877142D02*
X167378328Y-79162856D01*
X167378328Y-79162856D02*
X167449757Y-79305713D01*
X167449757Y-79305713D02*
X167521185Y-79377142D01*
X167521185Y-79377142D02*
X167664042Y-79448570D01*
X167664042Y-79448570D02*
X168021185Y-79448570D01*
X168021185Y-79448570D02*
X168164042Y-79377142D01*
X168164042Y-79377142D02*
X168235471Y-79305713D01*
X168235471Y-79305713D02*
X168306900Y-79162856D01*
X168306900Y-79162856D02*
X168306900Y-78877142D01*
X168306900Y-78877142D02*
X168235471Y-78734285D01*
X168235471Y-78734285D02*
X168164042Y-78662856D01*
X168164042Y-78662856D02*
X168021185Y-78591427D01*
X167378328Y-77662856D02*
X167378328Y-77519999D01*
X167378328Y-77519999D02*
X167449757Y-77377142D01*
X167449757Y-77377142D02*
X167521185Y-77305714D01*
X167521185Y-77305714D02*
X167664042Y-77234285D01*
X167664042Y-77234285D02*
X167949757Y-77162856D01*
X167949757Y-77162856D02*
X168306900Y-77162856D01*
X168306900Y-77162856D02*
X168592614Y-77234285D01*
X168592614Y-77234285D02*
X168735471Y-77305714D01*
X168735471Y-77305714D02*
X168806900Y-77377142D01*
X168806900Y-77377142D02*
X168878328Y-77519999D01*
X168878328Y-77519999D02*
X168878328Y-77662856D01*
X168878328Y-77662856D02*
X168806900Y-77805714D01*
X168806900Y-77805714D02*
X168735471Y-77877142D01*
X168735471Y-77877142D02*
X168592614Y-77948571D01*
X168592614Y-77948571D02*
X168306900Y-78019999D01*
X168306900Y-78019999D02*
X167949757Y-78019999D01*
X167949757Y-78019999D02*
X167664042Y-77948571D01*
X167664042Y-77948571D02*
X167521185Y-77877142D01*
X167521185Y-77877142D02*
X167449757Y-77805714D01*
X167449757Y-77805714D02*
X167378328Y-77662856D01*
X167378328Y-76234285D02*
X167378328Y-76091428D01*
X167378328Y-76091428D02*
X167449757Y-75948571D01*
X167449757Y-75948571D02*
X167521185Y-75877143D01*
X167521185Y-75877143D02*
X167664042Y-75805714D01*
X167664042Y-75805714D02*
X167949757Y-75734285D01*
X167949757Y-75734285D02*
X168306900Y-75734285D01*
X168306900Y-75734285D02*
X168592614Y-75805714D01*
X168592614Y-75805714D02*
X168735471Y-75877143D01*
X168735471Y-75877143D02*
X168806900Y-75948571D01*
X168806900Y-75948571D02*
X168878328Y-76091428D01*
X168878328Y-76091428D02*
X168878328Y-76234285D01*
X168878328Y-76234285D02*
X168806900Y-76377143D01*
X168806900Y-76377143D02*
X168735471Y-76448571D01*
X168735471Y-76448571D02*
X168592614Y-76520000D01*
X168592614Y-76520000D02*
X168306900Y-76591428D01*
X168306900Y-76591428D02*
X167949757Y-76591428D01*
X167949757Y-76591428D02*
X167664042Y-76520000D01*
X167664042Y-76520000D02*
X167521185Y-76448571D01*
X167521185Y-76448571D02*
X167449757Y-76377143D01*
X167449757Y-76377143D02*
X167378328Y-76234285D01*
X168878328Y-73948572D02*
X167878328Y-73948572D01*
X168021185Y-73948572D02*
X167949757Y-73877143D01*
X167949757Y-73877143D02*
X167878328Y-73734286D01*
X167878328Y-73734286D02*
X167878328Y-73520000D01*
X167878328Y-73520000D02*
X167949757Y-73377143D01*
X167949757Y-73377143D02*
X168092614Y-73305715D01*
X168092614Y-73305715D02*
X168878328Y-73305715D01*
X168092614Y-73305715D02*
X167949757Y-73234286D01*
X167949757Y-73234286D02*
X167878328Y-73091429D01*
X167878328Y-73091429D02*
X167878328Y-72877143D01*
X167878328Y-72877143D02*
X167949757Y-72734286D01*
X167949757Y-72734286D02*
X168092614Y-72662857D01*
X168092614Y-72662857D02*
X168878328Y-72662857D01*
X168878328Y-71948572D02*
X167878328Y-71948572D01*
X168021185Y-71948572D02*
X167949757Y-71877143D01*
X167949757Y-71877143D02*
X167878328Y-71734286D01*
X167878328Y-71734286D02*
X167878328Y-71520000D01*
X167878328Y-71520000D02*
X167949757Y-71377143D01*
X167949757Y-71377143D02*
X168092614Y-71305715D01*
X168092614Y-71305715D02*
X168878328Y-71305715D01*
X168092614Y-71305715D02*
X167949757Y-71234286D01*
X167949757Y-71234286D02*
X167878328Y-71091429D01*
X167878328Y-71091429D02*
X167878328Y-70877143D01*
X167878328Y-70877143D02*
X167949757Y-70734286D01*
X167949757Y-70734286D02*
X168092614Y-70662857D01*
X168092614Y-70662857D02*
X168878328Y-70662857D01*
D12*
X166525000Y-48975000D02*
X170586420Y-48975000D01*
X166525000Y-106065000D02*
X170586420Y-106065000D01*
X170000000Y-48975000D02*
X170000000Y-106065000D01*
X170000000Y-48975000D02*
X170000000Y-106065000D01*
X170000000Y-48975000D02*
X170586421Y-50101504D01*
X170000000Y-48975000D02*
X169413579Y-50101504D01*
X170000000Y-106065000D02*
X169413579Y-104938496D01*
X170000000Y-106065000D02*
X170586421Y-104938496D01*
D13*
X159040000Y-91460000D03*
X152690000Y-94000000D03*
X159040000Y-53420000D03*
X152690000Y-55960000D03*
X121040000Y-91420000D03*
X114690000Y-93960000D03*
X121040000Y-53420000D03*
X114690000Y-55960000D03*
D14*
X110875000Y-50880000D03*
D15*
X110875000Y-53420000D03*
X110875000Y-55960000D03*
X110875000Y-58500000D03*
X110875000Y-61040000D03*
X110875000Y-63580000D03*
X110875000Y-66120000D03*
X126125000Y-66120000D03*
X126125000Y-63580000D03*
X126125000Y-61040000D03*
X126125000Y-58500000D03*
X126125000Y-55960000D03*
X126125000Y-53420000D03*
X126125000Y-50880000D03*
D13*
X159040000Y-72420000D03*
X152690000Y-74960000D03*
X140040000Y-72420000D03*
X133690000Y-74960000D03*
X140040000Y-91420000D03*
X133690000Y-93960000D03*
X121040000Y-72420000D03*
X114690000Y-74960000D03*
X140040000Y-53420000D03*
X133690000Y-55960000D03*
D16*
X113270000Y-52270000D02*
X114690000Y-53690000D01*
X110398654Y-52270000D02*
X113270000Y-52270000D01*
X146777056Y-94000000D02*
X139977056Y-100800000D01*
X152690000Y-55960000D02*
X133690000Y-55960000D01*
X113234314Y-100800000D02*
X109625000Y-97190686D01*
X109625000Y-97190686D02*
X109625000Y-53043654D01*
X114690000Y-53690000D02*
X114690000Y-55960000D01*
X123585000Y-55960000D02*
X126125000Y-53420000D01*
X114690000Y-55960000D02*
X119283402Y-55960000D01*
X152690000Y-94000000D02*
X146777056Y-94000000D01*
X122441472Y-76941472D02*
X122299950Y-77082994D01*
X122299950Y-90700051D02*
X122440000Y-90840101D01*
X122440000Y-92060000D02*
X120540000Y-93960000D01*
X114690000Y-55960000D02*
X123585000Y-55960000D01*
X139977056Y-100800000D02*
X113234314Y-100800000D01*
X122440000Y-90840101D02*
X122440000Y-92060000D01*
X152690000Y-83160000D02*
X141890000Y-93960000D01*
X122299950Y-77082994D02*
X122299950Y-90700051D01*
X120540000Y-93960000D02*
X114690000Y-93960000D01*
X114690000Y-74960000D02*
X114690000Y-93960000D01*
X119283402Y-55960000D02*
X122441472Y-59118070D01*
X152690000Y-55960000D02*
X152690000Y-74960000D01*
X109625000Y-53043654D02*
X110398654Y-52270000D01*
X141890000Y-93960000D02*
X133690000Y-93960000D01*
X133690000Y-55960000D02*
X133690000Y-74960000D01*
X122441472Y-59118070D02*
X122441472Y-76941472D01*
X152690000Y-74960000D02*
X152690000Y-83160000D01*
X159040000Y-91460000D02*
X162780000Y-87720000D01*
X130000000Y-63500000D02*
X129500000Y-63500000D01*
X130000000Y-55500000D02*
X130000000Y-63500000D01*
X129500000Y-63500000D02*
X129420000Y-63580000D01*
X162780000Y-87720000D02*
X162780000Y-54614415D01*
X133900000Y-51600000D02*
X130000000Y-55500000D01*
X162780000Y-54614415D02*
X159765585Y-51600000D01*
X129420000Y-63580000D02*
X126125000Y-63580000D01*
X159765585Y-51600000D02*
X133900000Y-51600000D01*
X159040000Y-55399899D02*
X160440000Y-53999899D01*
X130380000Y-66120000D02*
X126125000Y-66120000D01*
X130500000Y-66000000D02*
X130380000Y-66120000D01*
X134500000Y-52000000D02*
X130500000Y-56000000D01*
X130500000Y-56000000D02*
X130500000Y-66000000D01*
X160440000Y-52840101D02*
X159599899Y-52000000D01*
X159599899Y-52000000D02*
X134500000Y-52000000D01*
X160440000Y-53999899D02*
X160440000Y-52840101D01*
X159040000Y-72420000D02*
X159040000Y-55399899D01*
X110875000Y-66120000D02*
X110025000Y-66970000D01*
X110025000Y-66970000D02*
X110025000Y-97025000D01*
X157484366Y-53420000D02*
X159040000Y-53420000D01*
X113400000Y-100400000D02*
X136982944Y-100400000D01*
X136982944Y-100400000D02*
X154150000Y-83232944D01*
X154150000Y-56754366D02*
X157484366Y-53420000D01*
X110025000Y-97025000D02*
X113400000Y-100400000D01*
X154150000Y-83232944D02*
X154150000Y-56754366D01*
X117500000Y-67065686D02*
X117500000Y-72000000D01*
X113934314Y-100000000D02*
X125500000Y-100000000D01*
X110875000Y-63580000D02*
X114014314Y-63580000D01*
X114014314Y-63580000D02*
X117500000Y-67065686D01*
X112393630Y-72000000D02*
X111225000Y-73168630D01*
X134080000Y-91420000D02*
X140040000Y-91420000D01*
X111225000Y-97290686D02*
X113934314Y-100000000D01*
X125500000Y-100000000D02*
X134080000Y-91420000D01*
X111225000Y-73168630D02*
X111225000Y-97290686D01*
X117500000Y-72000000D02*
X112393630Y-72000000D01*
X112500000Y-61500000D02*
X118000000Y-67000000D01*
X112459315Y-72500000D02*
X111625000Y-73334315D01*
X118000000Y-67000000D02*
X118000000Y-72500000D01*
X122600000Y-99400000D02*
X140040000Y-81960000D01*
X140040000Y-81960000D02*
X140040000Y-72420000D01*
X113900000Y-99400000D02*
X122600000Y-99400000D01*
X111625000Y-73334315D02*
X111625000Y-97125000D01*
X111335000Y-61500000D02*
X112500000Y-61500000D01*
X110875000Y-61040000D02*
X111335000Y-61500000D01*
X118000000Y-72500000D02*
X112459315Y-72500000D01*
X111625000Y-97125000D02*
X113900000Y-99400000D01*
X110875000Y-58500000D02*
X112025000Y-59650000D01*
X118500000Y-73000000D02*
X112525000Y-73000000D01*
X131220000Y-87162944D02*
X131220000Y-56280000D01*
X112025000Y-59650000D02*
X112025000Y-60025000D01*
X112025000Y-73500000D02*
X112025000Y-93407944D01*
X134080000Y-53420000D02*
X140040000Y-53420000D01*
X112025000Y-93407944D02*
X117617056Y-99000000D01*
X119382944Y-99000000D02*
X131220000Y-87162944D01*
X112525000Y-73000000D02*
X112025000Y-73500000D01*
X118500000Y-66500000D02*
X118500000Y-73000000D01*
X131220000Y-56280000D02*
X134080000Y-53420000D01*
X112025000Y-60025000D02*
X118500000Y-66500000D01*
X117617056Y-99000000D02*
X119382944Y-99000000D01*
X119640000Y-75316598D02*
X121040000Y-76716598D01*
X121040000Y-76716598D02*
X121040000Y-91420000D01*
X112220000Y-59220000D02*
X118000000Y-65000000D01*
X118000000Y-65000000D02*
X120000000Y-65000000D01*
X119640000Y-65360000D02*
X119640000Y-75316598D01*
X112220000Y-57305000D02*
X112220000Y-59220000D01*
X110875000Y-55960000D02*
X112220000Y-57305000D01*
X120000000Y-65000000D02*
X119640000Y-65360000D01*
X118500000Y-50880000D02*
X121040000Y-53420000D01*
X110875000Y-50880000D02*
X118500000Y-50880000D01*
X110875000Y-53420000D02*
X110875000Y-54257944D01*
X121040000Y-64422944D02*
X121040000Y-72420000D01*
X110875000Y-54257944D02*
X121040000Y-64422944D01*
M02*
