%TF.GenerationSoftware,KiCad,Pcbnew,7.0.10*%
%TF.CreationDate,2024-10-20T20:49:23-04:00*%
%TF.ProjectId,Watch_Hackpad,57617463-685f-4486-9163-6b7061642e6b,rev?*%
%TF.SameCoordinates,Original*%
%TF.FileFunction,Drillmap*%
%TF.FilePolarity,Positive*%
%FSLAX45Y45*%
G04 Gerber Fmt 4.5, Leading zero omitted, Abs format (unit mm)*
G04 Created by KiCad (PCBNEW 7.0.10) date 2024-10-20 20:49:23*
%MOMM*%
%LPD*%
G01*
G04 APERTURE LIST*
%ADD10C,0.100000*%
%ADD11C,0.200000*%
%ADD12C,0.170000*%
%ADD13C,0.400000*%
G04 APERTURE END LIST*
D10*
X15390000Y-10430000D02*
X23490000Y-10430000D01*
X15390000Y-3430000D02*
X15390000Y-10430000D01*
X23490000Y-3430000D02*
X15390000Y-3430000D01*
X23490000Y-10430000D02*
X23490000Y-3430000D01*
D11*
D12*
X16325000Y-8821500D02*
X16495000Y-8991500D01*
X16495000Y-8821500D02*
X16325000Y-8991500D01*
X16325000Y-9837500D02*
X16495000Y-10007500D01*
X16495000Y-9837500D02*
X16325000Y-10007500D01*
X18345000Y-8821500D02*
X18515000Y-8991500D01*
X18515000Y-8821500D02*
X18345000Y-8991500D01*
X18345000Y-9837500D02*
X18515000Y-10007500D01*
X18515000Y-9837500D02*
X18345000Y-10007500D01*
X20365000Y-8821500D02*
X20535000Y-8991500D01*
X20535000Y-8821500D02*
X20365000Y-8991500D01*
X20365000Y-9837500D02*
X20535000Y-10007500D01*
X20535000Y-9837500D02*
X20365000Y-10007500D01*
X22385000Y-8821500D02*
X22555000Y-8991500D01*
X22555000Y-8821500D02*
X22385000Y-8991500D01*
X22385000Y-9837500D02*
X22555000Y-10007500D01*
X22555000Y-9837500D02*
X22385000Y-10007500D01*
D13*
X16610000Y-9414500D02*
G75*
G03*
X16210000Y-9414500I-200000J0D01*
G01*
X16210000Y-9414500D02*
G75*
G03*
X16610000Y-9414500I200000J0D01*
G01*
X18630000Y-9414500D02*
G75*
G03*
X18230000Y-9414500I-200000J0D01*
G01*
X18230000Y-9414500D02*
G75*
G03*
X18630000Y-9414500I200000J0D01*
G01*
X20650000Y-9414500D02*
G75*
G03*
X20250000Y-9414500I-200000J0D01*
G01*
X20250000Y-9414500D02*
G75*
G03*
X20650000Y-9414500I200000J0D01*
G01*
X22670000Y-9414500D02*
G75*
G03*
X22270000Y-9414500I-200000J0D01*
G01*
X22270000Y-9414500D02*
G75*
G03*
X22670000Y-9414500I200000J0D01*
G01*
D11*
X15645777Y-10746484D02*
X15645777Y-10546484D01*
X15645777Y-10546484D02*
X15693396Y-10546484D01*
X15693396Y-10546484D02*
X15721967Y-10556008D01*
X15721967Y-10556008D02*
X15741015Y-10575055D01*
X15741015Y-10575055D02*
X15750539Y-10594103D01*
X15750539Y-10594103D02*
X15760062Y-10632198D01*
X15760062Y-10632198D02*
X15760062Y-10660770D01*
X15760062Y-10660770D02*
X15750539Y-10698865D01*
X15750539Y-10698865D02*
X15741015Y-10717912D01*
X15741015Y-10717912D02*
X15721967Y-10736960D01*
X15721967Y-10736960D02*
X15693396Y-10746484D01*
X15693396Y-10746484D02*
X15645777Y-10746484D01*
X15845777Y-10746484D02*
X15845777Y-10613150D01*
X15845777Y-10651246D02*
X15855301Y-10632198D01*
X15855301Y-10632198D02*
X15864824Y-10622674D01*
X15864824Y-10622674D02*
X15883872Y-10613150D01*
X15883872Y-10613150D02*
X15902920Y-10613150D01*
X15969586Y-10746484D02*
X15969586Y-10613150D01*
X15969586Y-10546484D02*
X15960062Y-10556008D01*
X15960062Y-10556008D02*
X15969586Y-10565531D01*
X15969586Y-10565531D02*
X15979110Y-10556008D01*
X15979110Y-10556008D02*
X15969586Y-10546484D01*
X15969586Y-10546484D02*
X15969586Y-10565531D01*
X16093396Y-10746484D02*
X16074348Y-10736960D01*
X16074348Y-10736960D02*
X16064824Y-10717912D01*
X16064824Y-10717912D02*
X16064824Y-10546484D01*
X16198158Y-10746484D02*
X16179110Y-10736960D01*
X16179110Y-10736960D02*
X16169586Y-10717912D01*
X16169586Y-10717912D02*
X16169586Y-10546484D01*
X16426729Y-10746484D02*
X16426729Y-10546484D01*
X16426729Y-10546484D02*
X16493396Y-10689341D01*
X16493396Y-10689341D02*
X16560062Y-10546484D01*
X16560062Y-10546484D02*
X16560062Y-10746484D01*
X16741015Y-10746484D02*
X16741015Y-10641722D01*
X16741015Y-10641722D02*
X16731491Y-10622674D01*
X16731491Y-10622674D02*
X16712443Y-10613150D01*
X16712443Y-10613150D02*
X16674348Y-10613150D01*
X16674348Y-10613150D02*
X16655301Y-10622674D01*
X16741015Y-10736960D02*
X16721967Y-10746484D01*
X16721967Y-10746484D02*
X16674348Y-10746484D01*
X16674348Y-10746484D02*
X16655301Y-10736960D01*
X16655301Y-10736960D02*
X16645777Y-10717912D01*
X16645777Y-10717912D02*
X16645777Y-10698865D01*
X16645777Y-10698865D02*
X16655301Y-10679817D01*
X16655301Y-10679817D02*
X16674348Y-10670293D01*
X16674348Y-10670293D02*
X16721967Y-10670293D01*
X16721967Y-10670293D02*
X16741015Y-10660770D01*
X16836253Y-10613150D02*
X16836253Y-10813150D01*
X16836253Y-10622674D02*
X16855301Y-10613150D01*
X16855301Y-10613150D02*
X16893396Y-10613150D01*
X16893396Y-10613150D02*
X16912444Y-10622674D01*
X16912444Y-10622674D02*
X16921967Y-10632198D01*
X16921967Y-10632198D02*
X16931491Y-10651246D01*
X16931491Y-10651246D02*
X16931491Y-10708389D01*
X16931491Y-10708389D02*
X16921967Y-10727436D01*
X16921967Y-10727436D02*
X16912444Y-10736960D01*
X16912444Y-10736960D02*
X16893396Y-10746484D01*
X16893396Y-10746484D02*
X16855301Y-10746484D01*
X16855301Y-10746484D02*
X16836253Y-10736960D01*
X17017205Y-10727436D02*
X17026729Y-10736960D01*
X17026729Y-10736960D02*
X17017205Y-10746484D01*
X17017205Y-10746484D02*
X17007682Y-10736960D01*
X17007682Y-10736960D02*
X17017205Y-10727436D01*
X17017205Y-10727436D02*
X17017205Y-10746484D01*
X17017205Y-10622674D02*
X17026729Y-10632198D01*
X17026729Y-10632198D02*
X17017205Y-10641722D01*
X17017205Y-10641722D02*
X17007682Y-10632198D01*
X17007682Y-10632198D02*
X17017205Y-10622674D01*
X17017205Y-10622674D02*
X17017205Y-10641722D01*
D12*
X15215000Y-10990000D02*
X15385000Y-11160000D01*
X15385000Y-10990000D02*
X15215000Y-11160000D01*
D11*
X15750539Y-11166484D02*
X15636253Y-11166484D01*
X15693396Y-11166484D02*
X15693396Y-10966484D01*
X15693396Y-10966484D02*
X15674348Y-10995055D01*
X15674348Y-10995055D02*
X15655301Y-11014103D01*
X15655301Y-11014103D02*
X15636253Y-11023627D01*
X15836253Y-11147436D02*
X15845777Y-11156960D01*
X15845777Y-11156960D02*
X15836253Y-11166484D01*
X15836253Y-11166484D02*
X15826729Y-11156960D01*
X15826729Y-11156960D02*
X15836253Y-11147436D01*
X15836253Y-11147436D02*
X15836253Y-11166484D01*
X15912443Y-10966484D02*
X16045777Y-10966484D01*
X16045777Y-10966484D02*
X15960062Y-11166484D01*
X16160062Y-10966484D02*
X16179110Y-10966484D01*
X16179110Y-10966484D02*
X16198158Y-10976008D01*
X16198158Y-10976008D02*
X16207682Y-10985531D01*
X16207682Y-10985531D02*
X16217205Y-11004579D01*
X16217205Y-11004579D02*
X16226729Y-11042674D01*
X16226729Y-11042674D02*
X16226729Y-11090293D01*
X16226729Y-11090293D02*
X16217205Y-11128389D01*
X16217205Y-11128389D02*
X16207682Y-11147436D01*
X16207682Y-11147436D02*
X16198158Y-11156960D01*
X16198158Y-11156960D02*
X16179110Y-11166484D01*
X16179110Y-11166484D02*
X16160062Y-11166484D01*
X16160062Y-11166484D02*
X16141015Y-11156960D01*
X16141015Y-11156960D02*
X16131491Y-11147436D01*
X16131491Y-11147436D02*
X16121967Y-11128389D01*
X16121967Y-11128389D02*
X16112443Y-11090293D01*
X16112443Y-11090293D02*
X16112443Y-11042674D01*
X16112443Y-11042674D02*
X16121967Y-11004579D01*
X16121967Y-11004579D02*
X16131491Y-10985531D01*
X16131491Y-10985531D02*
X16141015Y-10976008D01*
X16141015Y-10976008D02*
X16160062Y-10966484D01*
X16350539Y-10966484D02*
X16369586Y-10966484D01*
X16369586Y-10966484D02*
X16388634Y-10976008D01*
X16388634Y-10976008D02*
X16398158Y-10985531D01*
X16398158Y-10985531D02*
X16407682Y-11004579D01*
X16407682Y-11004579D02*
X16417205Y-11042674D01*
X16417205Y-11042674D02*
X16417205Y-11090293D01*
X16417205Y-11090293D02*
X16407682Y-11128389D01*
X16407682Y-11128389D02*
X16398158Y-11147436D01*
X16398158Y-11147436D02*
X16388634Y-11156960D01*
X16388634Y-11156960D02*
X16369586Y-11166484D01*
X16369586Y-11166484D02*
X16350539Y-11166484D01*
X16350539Y-11166484D02*
X16331491Y-11156960D01*
X16331491Y-11156960D02*
X16321967Y-11147436D01*
X16321967Y-11147436D02*
X16312443Y-11128389D01*
X16312443Y-11128389D02*
X16302920Y-11090293D01*
X16302920Y-11090293D02*
X16302920Y-11042674D01*
X16302920Y-11042674D02*
X16312443Y-11004579D01*
X16312443Y-11004579D02*
X16321967Y-10985531D01*
X16321967Y-10985531D02*
X16331491Y-10976008D01*
X16331491Y-10976008D02*
X16350539Y-10966484D01*
X16502920Y-11166484D02*
X16502920Y-11033150D01*
X16502920Y-11052198D02*
X16512443Y-11042674D01*
X16512443Y-11042674D02*
X16531491Y-11033150D01*
X16531491Y-11033150D02*
X16560063Y-11033150D01*
X16560063Y-11033150D02*
X16579110Y-11042674D01*
X16579110Y-11042674D02*
X16588634Y-11061722D01*
X16588634Y-11061722D02*
X16588634Y-11166484D01*
X16588634Y-11061722D02*
X16598158Y-11042674D01*
X16598158Y-11042674D02*
X16617205Y-11033150D01*
X16617205Y-11033150D02*
X16645777Y-11033150D01*
X16645777Y-11033150D02*
X16664824Y-11042674D01*
X16664824Y-11042674D02*
X16674348Y-11061722D01*
X16674348Y-11061722D02*
X16674348Y-11166484D01*
X16769586Y-11166484D02*
X16769586Y-11033150D01*
X16769586Y-11052198D02*
X16779110Y-11042674D01*
X16779110Y-11042674D02*
X16798158Y-11033150D01*
X16798158Y-11033150D02*
X16826729Y-11033150D01*
X16826729Y-11033150D02*
X16845777Y-11042674D01*
X16845777Y-11042674D02*
X16855301Y-11061722D01*
X16855301Y-11061722D02*
X16855301Y-11166484D01*
X16855301Y-11061722D02*
X16864825Y-11042674D01*
X16864825Y-11042674D02*
X16883872Y-11033150D01*
X16883872Y-11033150D02*
X16912444Y-11033150D01*
X16912444Y-11033150D02*
X16931491Y-11042674D01*
X16931491Y-11042674D02*
X16941015Y-11061722D01*
X16941015Y-11061722D02*
X16941015Y-11166484D01*
X17331491Y-10956960D02*
X17160063Y-11214103D01*
X17588634Y-10966484D02*
X17607682Y-10966484D01*
X17607682Y-10966484D02*
X17626729Y-10976008D01*
X17626729Y-10976008D02*
X17636253Y-10985531D01*
X17636253Y-10985531D02*
X17645777Y-11004579D01*
X17645777Y-11004579D02*
X17655301Y-11042674D01*
X17655301Y-11042674D02*
X17655301Y-11090293D01*
X17655301Y-11090293D02*
X17645777Y-11128389D01*
X17645777Y-11128389D02*
X17636253Y-11147436D01*
X17636253Y-11147436D02*
X17626729Y-11156960D01*
X17626729Y-11156960D02*
X17607682Y-11166484D01*
X17607682Y-11166484D02*
X17588634Y-11166484D01*
X17588634Y-11166484D02*
X17569587Y-11156960D01*
X17569587Y-11156960D02*
X17560063Y-11147436D01*
X17560063Y-11147436D02*
X17550539Y-11128389D01*
X17550539Y-11128389D02*
X17541015Y-11090293D01*
X17541015Y-11090293D02*
X17541015Y-11042674D01*
X17541015Y-11042674D02*
X17550539Y-11004579D01*
X17550539Y-11004579D02*
X17560063Y-10985531D01*
X17560063Y-10985531D02*
X17569587Y-10976008D01*
X17569587Y-10976008D02*
X17588634Y-10966484D01*
X17741015Y-11147436D02*
X17750539Y-11156960D01*
X17750539Y-11156960D02*
X17741015Y-11166484D01*
X17741015Y-11166484D02*
X17731491Y-11156960D01*
X17731491Y-11156960D02*
X17741015Y-11147436D01*
X17741015Y-11147436D02*
X17741015Y-11166484D01*
X17874348Y-10966484D02*
X17893396Y-10966484D01*
X17893396Y-10966484D02*
X17912444Y-10976008D01*
X17912444Y-10976008D02*
X17921968Y-10985531D01*
X17921968Y-10985531D02*
X17931491Y-11004579D01*
X17931491Y-11004579D02*
X17941015Y-11042674D01*
X17941015Y-11042674D02*
X17941015Y-11090293D01*
X17941015Y-11090293D02*
X17931491Y-11128389D01*
X17931491Y-11128389D02*
X17921968Y-11147436D01*
X17921968Y-11147436D02*
X17912444Y-11156960D01*
X17912444Y-11156960D02*
X17893396Y-11166484D01*
X17893396Y-11166484D02*
X17874348Y-11166484D01*
X17874348Y-11166484D02*
X17855301Y-11156960D01*
X17855301Y-11156960D02*
X17845777Y-11147436D01*
X17845777Y-11147436D02*
X17836253Y-11128389D01*
X17836253Y-11128389D02*
X17826729Y-11090293D01*
X17826729Y-11090293D02*
X17826729Y-11042674D01*
X17826729Y-11042674D02*
X17836253Y-11004579D01*
X17836253Y-11004579D02*
X17845777Y-10985531D01*
X17845777Y-10985531D02*
X17855301Y-10976008D01*
X17855301Y-10976008D02*
X17874348Y-10966484D01*
X18112444Y-10966484D02*
X18074348Y-10966484D01*
X18074348Y-10966484D02*
X18055301Y-10976008D01*
X18055301Y-10976008D02*
X18045777Y-10985531D01*
X18045777Y-10985531D02*
X18026729Y-11014103D01*
X18026729Y-11014103D02*
X18017206Y-11052198D01*
X18017206Y-11052198D02*
X18017206Y-11128389D01*
X18017206Y-11128389D02*
X18026729Y-11147436D01*
X18026729Y-11147436D02*
X18036253Y-11156960D01*
X18036253Y-11156960D02*
X18055301Y-11166484D01*
X18055301Y-11166484D02*
X18093396Y-11166484D01*
X18093396Y-11166484D02*
X18112444Y-11156960D01*
X18112444Y-11156960D02*
X18121968Y-11147436D01*
X18121968Y-11147436D02*
X18131491Y-11128389D01*
X18131491Y-11128389D02*
X18131491Y-11080770D01*
X18131491Y-11080770D02*
X18121968Y-11061722D01*
X18121968Y-11061722D02*
X18112444Y-11052198D01*
X18112444Y-11052198D02*
X18093396Y-11042674D01*
X18093396Y-11042674D02*
X18055301Y-11042674D01*
X18055301Y-11042674D02*
X18036253Y-11052198D01*
X18036253Y-11052198D02*
X18026729Y-11061722D01*
X18026729Y-11061722D02*
X18017206Y-11080770D01*
X18302920Y-10966484D02*
X18264825Y-10966484D01*
X18264825Y-10966484D02*
X18245777Y-10976008D01*
X18245777Y-10976008D02*
X18236253Y-10985531D01*
X18236253Y-10985531D02*
X18217206Y-11014103D01*
X18217206Y-11014103D02*
X18207682Y-11052198D01*
X18207682Y-11052198D02*
X18207682Y-11128389D01*
X18207682Y-11128389D02*
X18217206Y-11147436D01*
X18217206Y-11147436D02*
X18226729Y-11156960D01*
X18226729Y-11156960D02*
X18245777Y-11166484D01*
X18245777Y-11166484D02*
X18283872Y-11166484D01*
X18283872Y-11166484D02*
X18302920Y-11156960D01*
X18302920Y-11156960D02*
X18312444Y-11147436D01*
X18312444Y-11147436D02*
X18321968Y-11128389D01*
X18321968Y-11128389D02*
X18321968Y-11080770D01*
X18321968Y-11080770D02*
X18312444Y-11061722D01*
X18312444Y-11061722D02*
X18302920Y-11052198D01*
X18302920Y-11052198D02*
X18283872Y-11042674D01*
X18283872Y-11042674D02*
X18245777Y-11042674D01*
X18245777Y-11042674D02*
X18226729Y-11052198D01*
X18226729Y-11052198D02*
X18217206Y-11061722D01*
X18217206Y-11061722D02*
X18207682Y-11080770D01*
X18417206Y-11166484D02*
X18455301Y-11166484D01*
X18455301Y-11166484D02*
X18474349Y-11156960D01*
X18474349Y-11156960D02*
X18483872Y-11147436D01*
X18483872Y-11147436D02*
X18502920Y-11118865D01*
X18502920Y-11118865D02*
X18512444Y-11080770D01*
X18512444Y-11080770D02*
X18512444Y-11004579D01*
X18512444Y-11004579D02*
X18502920Y-10985531D01*
X18502920Y-10985531D02*
X18493396Y-10976008D01*
X18493396Y-10976008D02*
X18474349Y-10966484D01*
X18474349Y-10966484D02*
X18436253Y-10966484D01*
X18436253Y-10966484D02*
X18417206Y-10976008D01*
X18417206Y-10976008D02*
X18407682Y-10985531D01*
X18407682Y-10985531D02*
X18398158Y-11004579D01*
X18398158Y-11004579D02*
X18398158Y-11052198D01*
X18398158Y-11052198D02*
X18407682Y-11071246D01*
X18407682Y-11071246D02*
X18417206Y-11080770D01*
X18417206Y-11080770D02*
X18436253Y-11090293D01*
X18436253Y-11090293D02*
X18474349Y-11090293D01*
X18474349Y-11090293D02*
X18493396Y-11080770D01*
X18493396Y-11080770D02*
X18502920Y-11071246D01*
X18502920Y-11071246D02*
X18512444Y-11052198D01*
X18588634Y-10966484D02*
X18588634Y-11004579D01*
X18664825Y-10966484D02*
X18664825Y-11004579D01*
X18960063Y-11242674D02*
X18950539Y-11233150D01*
X18950539Y-11233150D02*
X18931491Y-11204579D01*
X18931491Y-11204579D02*
X18921968Y-11185531D01*
X18921968Y-11185531D02*
X18912444Y-11156960D01*
X18912444Y-11156960D02*
X18902920Y-11109341D01*
X18902920Y-11109341D02*
X18902920Y-11071246D01*
X18902920Y-11071246D02*
X18912444Y-11023627D01*
X18912444Y-11023627D02*
X18921968Y-10995055D01*
X18921968Y-10995055D02*
X18931491Y-10976008D01*
X18931491Y-10976008D02*
X18950539Y-10947436D01*
X18950539Y-10947436D02*
X18960063Y-10937912D01*
X19064825Y-11052198D02*
X19045777Y-11042674D01*
X19045777Y-11042674D02*
X19036253Y-11033150D01*
X19036253Y-11033150D02*
X19026730Y-11014103D01*
X19026730Y-11014103D02*
X19026730Y-11004579D01*
X19026730Y-11004579D02*
X19036253Y-10985531D01*
X19036253Y-10985531D02*
X19045777Y-10976008D01*
X19045777Y-10976008D02*
X19064825Y-10966484D01*
X19064825Y-10966484D02*
X19102920Y-10966484D01*
X19102920Y-10966484D02*
X19121968Y-10976008D01*
X19121968Y-10976008D02*
X19131491Y-10985531D01*
X19131491Y-10985531D02*
X19141015Y-11004579D01*
X19141015Y-11004579D02*
X19141015Y-11014103D01*
X19141015Y-11014103D02*
X19131491Y-11033150D01*
X19131491Y-11033150D02*
X19121968Y-11042674D01*
X19121968Y-11042674D02*
X19102920Y-11052198D01*
X19102920Y-11052198D02*
X19064825Y-11052198D01*
X19064825Y-11052198D02*
X19045777Y-11061722D01*
X19045777Y-11061722D02*
X19036253Y-11071246D01*
X19036253Y-11071246D02*
X19026730Y-11090293D01*
X19026730Y-11090293D02*
X19026730Y-11128389D01*
X19026730Y-11128389D02*
X19036253Y-11147436D01*
X19036253Y-11147436D02*
X19045777Y-11156960D01*
X19045777Y-11156960D02*
X19064825Y-11166484D01*
X19064825Y-11166484D02*
X19102920Y-11166484D01*
X19102920Y-11166484D02*
X19121968Y-11156960D01*
X19121968Y-11156960D02*
X19131491Y-11147436D01*
X19131491Y-11147436D02*
X19141015Y-11128389D01*
X19141015Y-11128389D02*
X19141015Y-11090293D01*
X19141015Y-11090293D02*
X19131491Y-11071246D01*
X19131491Y-11071246D02*
X19121968Y-11061722D01*
X19121968Y-11061722D02*
X19102920Y-11052198D01*
X19379111Y-11166484D02*
X19379111Y-10966484D01*
X19464825Y-11166484D02*
X19464825Y-11061722D01*
X19464825Y-11061722D02*
X19455301Y-11042674D01*
X19455301Y-11042674D02*
X19436253Y-11033150D01*
X19436253Y-11033150D02*
X19407682Y-11033150D01*
X19407682Y-11033150D02*
X19388634Y-11042674D01*
X19388634Y-11042674D02*
X19379111Y-11052198D01*
X19588634Y-11166484D02*
X19569587Y-11156960D01*
X19569587Y-11156960D02*
X19560063Y-11147436D01*
X19560063Y-11147436D02*
X19550539Y-11128389D01*
X19550539Y-11128389D02*
X19550539Y-11071246D01*
X19550539Y-11071246D02*
X19560063Y-11052198D01*
X19560063Y-11052198D02*
X19569587Y-11042674D01*
X19569587Y-11042674D02*
X19588634Y-11033150D01*
X19588634Y-11033150D02*
X19617206Y-11033150D01*
X19617206Y-11033150D02*
X19636253Y-11042674D01*
X19636253Y-11042674D02*
X19645777Y-11052198D01*
X19645777Y-11052198D02*
X19655301Y-11071246D01*
X19655301Y-11071246D02*
X19655301Y-11128389D01*
X19655301Y-11128389D02*
X19645777Y-11147436D01*
X19645777Y-11147436D02*
X19636253Y-11156960D01*
X19636253Y-11156960D02*
X19617206Y-11166484D01*
X19617206Y-11166484D02*
X19588634Y-11166484D01*
X19769587Y-11166484D02*
X19750539Y-11156960D01*
X19750539Y-11156960D02*
X19741015Y-11137912D01*
X19741015Y-11137912D02*
X19741015Y-10966484D01*
X19921968Y-11156960D02*
X19902920Y-11166484D01*
X19902920Y-11166484D02*
X19864825Y-11166484D01*
X19864825Y-11166484D02*
X19845777Y-11156960D01*
X19845777Y-11156960D02*
X19836253Y-11137912D01*
X19836253Y-11137912D02*
X19836253Y-11061722D01*
X19836253Y-11061722D02*
X19845777Y-11042674D01*
X19845777Y-11042674D02*
X19864825Y-11033150D01*
X19864825Y-11033150D02*
X19902920Y-11033150D01*
X19902920Y-11033150D02*
X19921968Y-11042674D01*
X19921968Y-11042674D02*
X19931492Y-11061722D01*
X19931492Y-11061722D02*
X19931492Y-11080770D01*
X19931492Y-11080770D02*
X19836253Y-11099817D01*
X20007682Y-11156960D02*
X20026730Y-11166484D01*
X20026730Y-11166484D02*
X20064825Y-11166484D01*
X20064825Y-11166484D02*
X20083873Y-11156960D01*
X20083873Y-11156960D02*
X20093396Y-11137912D01*
X20093396Y-11137912D02*
X20093396Y-11128389D01*
X20093396Y-11128389D02*
X20083873Y-11109341D01*
X20083873Y-11109341D02*
X20064825Y-11099817D01*
X20064825Y-11099817D02*
X20036253Y-11099817D01*
X20036253Y-11099817D02*
X20017206Y-11090293D01*
X20017206Y-11090293D02*
X20007682Y-11071246D01*
X20007682Y-11071246D02*
X20007682Y-11061722D01*
X20007682Y-11061722D02*
X20017206Y-11042674D01*
X20017206Y-11042674D02*
X20036253Y-11033150D01*
X20036253Y-11033150D02*
X20064825Y-11033150D01*
X20064825Y-11033150D02*
X20083873Y-11042674D01*
X20160063Y-11242674D02*
X20169587Y-11233150D01*
X20169587Y-11233150D02*
X20188634Y-11204579D01*
X20188634Y-11204579D02*
X20198158Y-11185531D01*
X20198158Y-11185531D02*
X20207682Y-11156960D01*
X20207682Y-11156960D02*
X20217206Y-11109341D01*
X20217206Y-11109341D02*
X20217206Y-11071246D01*
X20217206Y-11071246D02*
X20207682Y-11023627D01*
X20207682Y-11023627D02*
X20198158Y-10995055D01*
X20198158Y-10995055D02*
X20188634Y-10976008D01*
X20188634Y-10976008D02*
X20169587Y-10947436D01*
X20169587Y-10947436D02*
X20160063Y-10937912D01*
X20521968Y-11242674D02*
X20512444Y-11233150D01*
X20512444Y-11233150D02*
X20493396Y-11204579D01*
X20493396Y-11204579D02*
X20483873Y-11185531D01*
X20483873Y-11185531D02*
X20474349Y-11156960D01*
X20474349Y-11156960D02*
X20464825Y-11109341D01*
X20464825Y-11109341D02*
X20464825Y-11071246D01*
X20464825Y-11071246D02*
X20474349Y-11023627D01*
X20474349Y-11023627D02*
X20483873Y-10995055D01*
X20483873Y-10995055D02*
X20493396Y-10976008D01*
X20493396Y-10976008D02*
X20512444Y-10947436D01*
X20512444Y-10947436D02*
X20521968Y-10937912D01*
X20598158Y-11033150D02*
X20598158Y-11166484D01*
X20598158Y-11052198D02*
X20607682Y-11042674D01*
X20607682Y-11042674D02*
X20626730Y-11033150D01*
X20626730Y-11033150D02*
X20655301Y-11033150D01*
X20655301Y-11033150D02*
X20674349Y-11042674D01*
X20674349Y-11042674D02*
X20683873Y-11061722D01*
X20683873Y-11061722D02*
X20683873Y-11166484D01*
X20807682Y-11166484D02*
X20788634Y-11156960D01*
X20788634Y-11156960D02*
X20779111Y-11147436D01*
X20779111Y-11147436D02*
X20769587Y-11128389D01*
X20769587Y-11128389D02*
X20769587Y-11071246D01*
X20769587Y-11071246D02*
X20779111Y-11052198D01*
X20779111Y-11052198D02*
X20788634Y-11042674D01*
X20788634Y-11042674D02*
X20807682Y-11033150D01*
X20807682Y-11033150D02*
X20836254Y-11033150D01*
X20836254Y-11033150D02*
X20855301Y-11042674D01*
X20855301Y-11042674D02*
X20864825Y-11052198D01*
X20864825Y-11052198D02*
X20874349Y-11071246D01*
X20874349Y-11071246D02*
X20874349Y-11128389D01*
X20874349Y-11128389D02*
X20864825Y-11147436D01*
X20864825Y-11147436D02*
X20855301Y-11156960D01*
X20855301Y-11156960D02*
X20836254Y-11166484D01*
X20836254Y-11166484D02*
X20807682Y-11166484D01*
X20931492Y-11033150D02*
X21007682Y-11033150D01*
X20960063Y-10966484D02*
X20960063Y-11137912D01*
X20960063Y-11137912D02*
X20969587Y-11156960D01*
X20969587Y-11156960D02*
X20988634Y-11166484D01*
X20988634Y-11166484D02*
X21007682Y-11166484D01*
X21226730Y-11033150D02*
X21226730Y-11233150D01*
X21226730Y-11042674D02*
X21245777Y-11033150D01*
X21245777Y-11033150D02*
X21283873Y-11033150D01*
X21283873Y-11033150D02*
X21302920Y-11042674D01*
X21302920Y-11042674D02*
X21312444Y-11052198D01*
X21312444Y-11052198D02*
X21321968Y-11071246D01*
X21321968Y-11071246D02*
X21321968Y-11128389D01*
X21321968Y-11128389D02*
X21312444Y-11147436D01*
X21312444Y-11147436D02*
X21302920Y-11156960D01*
X21302920Y-11156960D02*
X21283873Y-11166484D01*
X21283873Y-11166484D02*
X21245777Y-11166484D01*
X21245777Y-11166484D02*
X21226730Y-11156960D01*
X21436254Y-11166484D02*
X21417206Y-11156960D01*
X21417206Y-11156960D02*
X21407682Y-11137912D01*
X21407682Y-11137912D02*
X21407682Y-10966484D01*
X21598158Y-11166484D02*
X21598158Y-11061722D01*
X21598158Y-11061722D02*
X21588635Y-11042674D01*
X21588635Y-11042674D02*
X21569587Y-11033150D01*
X21569587Y-11033150D02*
X21531492Y-11033150D01*
X21531492Y-11033150D02*
X21512444Y-11042674D01*
X21598158Y-11156960D02*
X21579111Y-11166484D01*
X21579111Y-11166484D02*
X21531492Y-11166484D01*
X21531492Y-11166484D02*
X21512444Y-11156960D01*
X21512444Y-11156960D02*
X21502920Y-11137912D01*
X21502920Y-11137912D02*
X21502920Y-11118865D01*
X21502920Y-11118865D02*
X21512444Y-11099817D01*
X21512444Y-11099817D02*
X21531492Y-11090293D01*
X21531492Y-11090293D02*
X21579111Y-11090293D01*
X21579111Y-11090293D02*
X21598158Y-11080770D01*
X21664825Y-11033150D02*
X21741015Y-11033150D01*
X21693396Y-10966484D02*
X21693396Y-11137912D01*
X21693396Y-11137912D02*
X21702920Y-11156960D01*
X21702920Y-11156960D02*
X21721968Y-11166484D01*
X21721968Y-11166484D02*
X21741015Y-11166484D01*
X21883873Y-11156960D02*
X21864825Y-11166484D01*
X21864825Y-11166484D02*
X21826730Y-11166484D01*
X21826730Y-11166484D02*
X21807682Y-11156960D01*
X21807682Y-11156960D02*
X21798158Y-11137912D01*
X21798158Y-11137912D02*
X21798158Y-11061722D01*
X21798158Y-11061722D02*
X21807682Y-11042674D01*
X21807682Y-11042674D02*
X21826730Y-11033150D01*
X21826730Y-11033150D02*
X21864825Y-11033150D01*
X21864825Y-11033150D02*
X21883873Y-11042674D01*
X21883873Y-11042674D02*
X21893396Y-11061722D01*
X21893396Y-11061722D02*
X21893396Y-11080770D01*
X21893396Y-11080770D02*
X21798158Y-11099817D01*
X22064825Y-11166484D02*
X22064825Y-10966484D01*
X22064825Y-11156960D02*
X22045777Y-11166484D01*
X22045777Y-11166484D02*
X22007682Y-11166484D01*
X22007682Y-11166484D02*
X21988635Y-11156960D01*
X21988635Y-11156960D02*
X21979111Y-11147436D01*
X21979111Y-11147436D02*
X21969587Y-11128389D01*
X21969587Y-11128389D02*
X21969587Y-11071246D01*
X21969587Y-11071246D02*
X21979111Y-11052198D01*
X21979111Y-11052198D02*
X21988635Y-11042674D01*
X21988635Y-11042674D02*
X22007682Y-11033150D01*
X22007682Y-11033150D02*
X22045777Y-11033150D01*
X22045777Y-11033150D02*
X22064825Y-11042674D01*
X22141016Y-11242674D02*
X22150539Y-11233150D01*
X22150539Y-11233150D02*
X22169587Y-11204579D01*
X22169587Y-11204579D02*
X22179111Y-11185531D01*
X22179111Y-11185531D02*
X22188635Y-11156960D01*
X22188635Y-11156960D02*
X22198158Y-11109341D01*
X22198158Y-11109341D02*
X22198158Y-11071246D01*
X22198158Y-11071246D02*
X22188635Y-11023627D01*
X22188635Y-11023627D02*
X22179111Y-10995055D01*
X22179111Y-10995055D02*
X22169587Y-10976008D01*
X22169587Y-10976008D02*
X22150539Y-10947436D01*
X22150539Y-10947436D02*
X22141016Y-10937912D01*
X15385000Y-11365000D02*
G75*
G03*
X15185000Y-11365000I-100000J0D01*
G01*
X15185000Y-11365000D02*
G75*
G03*
X15385000Y-11365000I100000J0D01*
G01*
X15731491Y-11323150D02*
X15731491Y-11456484D01*
X15683872Y-11246960D02*
X15636253Y-11389817D01*
X15636253Y-11389817D02*
X15760062Y-11389817D01*
X15836253Y-11437436D02*
X15845777Y-11446960D01*
X15845777Y-11446960D02*
X15836253Y-11456484D01*
X15836253Y-11456484D02*
X15826729Y-11446960D01*
X15826729Y-11446960D02*
X15836253Y-11437436D01*
X15836253Y-11437436D02*
X15836253Y-11456484D01*
X15969586Y-11256484D02*
X15988634Y-11256484D01*
X15988634Y-11256484D02*
X16007682Y-11266008D01*
X16007682Y-11266008D02*
X16017205Y-11275531D01*
X16017205Y-11275531D02*
X16026729Y-11294579D01*
X16026729Y-11294579D02*
X16036253Y-11332674D01*
X16036253Y-11332674D02*
X16036253Y-11380293D01*
X16036253Y-11380293D02*
X16026729Y-11418388D01*
X16026729Y-11418388D02*
X16017205Y-11437436D01*
X16017205Y-11437436D02*
X16007682Y-11446960D01*
X16007682Y-11446960D02*
X15988634Y-11456484D01*
X15988634Y-11456484D02*
X15969586Y-11456484D01*
X15969586Y-11456484D02*
X15950539Y-11446960D01*
X15950539Y-11446960D02*
X15941015Y-11437436D01*
X15941015Y-11437436D02*
X15931491Y-11418388D01*
X15931491Y-11418388D02*
X15921967Y-11380293D01*
X15921967Y-11380293D02*
X15921967Y-11332674D01*
X15921967Y-11332674D02*
X15931491Y-11294579D01*
X15931491Y-11294579D02*
X15941015Y-11275531D01*
X15941015Y-11275531D02*
X15950539Y-11266008D01*
X15950539Y-11266008D02*
X15969586Y-11256484D01*
X16160062Y-11256484D02*
X16179110Y-11256484D01*
X16179110Y-11256484D02*
X16198158Y-11266008D01*
X16198158Y-11266008D02*
X16207682Y-11275531D01*
X16207682Y-11275531D02*
X16217205Y-11294579D01*
X16217205Y-11294579D02*
X16226729Y-11332674D01*
X16226729Y-11332674D02*
X16226729Y-11380293D01*
X16226729Y-11380293D02*
X16217205Y-11418388D01*
X16217205Y-11418388D02*
X16207682Y-11437436D01*
X16207682Y-11437436D02*
X16198158Y-11446960D01*
X16198158Y-11446960D02*
X16179110Y-11456484D01*
X16179110Y-11456484D02*
X16160062Y-11456484D01*
X16160062Y-11456484D02*
X16141015Y-11446960D01*
X16141015Y-11446960D02*
X16131491Y-11437436D01*
X16131491Y-11437436D02*
X16121967Y-11418388D01*
X16121967Y-11418388D02*
X16112443Y-11380293D01*
X16112443Y-11380293D02*
X16112443Y-11332674D01*
X16112443Y-11332674D02*
X16121967Y-11294579D01*
X16121967Y-11294579D02*
X16131491Y-11275531D01*
X16131491Y-11275531D02*
X16141015Y-11266008D01*
X16141015Y-11266008D02*
X16160062Y-11256484D01*
X16350539Y-11256484D02*
X16369586Y-11256484D01*
X16369586Y-11256484D02*
X16388634Y-11266008D01*
X16388634Y-11266008D02*
X16398158Y-11275531D01*
X16398158Y-11275531D02*
X16407682Y-11294579D01*
X16407682Y-11294579D02*
X16417205Y-11332674D01*
X16417205Y-11332674D02*
X16417205Y-11380293D01*
X16417205Y-11380293D02*
X16407682Y-11418388D01*
X16407682Y-11418388D02*
X16398158Y-11437436D01*
X16398158Y-11437436D02*
X16388634Y-11446960D01*
X16388634Y-11446960D02*
X16369586Y-11456484D01*
X16369586Y-11456484D02*
X16350539Y-11456484D01*
X16350539Y-11456484D02*
X16331491Y-11446960D01*
X16331491Y-11446960D02*
X16321967Y-11437436D01*
X16321967Y-11437436D02*
X16312443Y-11418388D01*
X16312443Y-11418388D02*
X16302920Y-11380293D01*
X16302920Y-11380293D02*
X16302920Y-11332674D01*
X16302920Y-11332674D02*
X16312443Y-11294579D01*
X16312443Y-11294579D02*
X16321967Y-11275531D01*
X16321967Y-11275531D02*
X16331491Y-11266008D01*
X16331491Y-11266008D02*
X16350539Y-11256484D01*
X16502920Y-11456484D02*
X16502920Y-11323150D01*
X16502920Y-11342198D02*
X16512443Y-11332674D01*
X16512443Y-11332674D02*
X16531491Y-11323150D01*
X16531491Y-11323150D02*
X16560063Y-11323150D01*
X16560063Y-11323150D02*
X16579110Y-11332674D01*
X16579110Y-11332674D02*
X16588634Y-11351722D01*
X16588634Y-11351722D02*
X16588634Y-11456484D01*
X16588634Y-11351722D02*
X16598158Y-11332674D01*
X16598158Y-11332674D02*
X16617205Y-11323150D01*
X16617205Y-11323150D02*
X16645777Y-11323150D01*
X16645777Y-11323150D02*
X16664824Y-11332674D01*
X16664824Y-11332674D02*
X16674348Y-11351722D01*
X16674348Y-11351722D02*
X16674348Y-11456484D01*
X16769586Y-11456484D02*
X16769586Y-11323150D01*
X16769586Y-11342198D02*
X16779110Y-11332674D01*
X16779110Y-11332674D02*
X16798158Y-11323150D01*
X16798158Y-11323150D02*
X16826729Y-11323150D01*
X16826729Y-11323150D02*
X16845777Y-11332674D01*
X16845777Y-11332674D02*
X16855301Y-11351722D01*
X16855301Y-11351722D02*
X16855301Y-11456484D01*
X16855301Y-11351722D02*
X16864825Y-11332674D01*
X16864825Y-11332674D02*
X16883872Y-11323150D01*
X16883872Y-11323150D02*
X16912444Y-11323150D01*
X16912444Y-11323150D02*
X16931491Y-11332674D01*
X16931491Y-11332674D02*
X16941015Y-11351722D01*
X16941015Y-11351722D02*
X16941015Y-11456484D01*
X17331491Y-11246960D02*
X17160063Y-11504103D01*
X17588634Y-11256484D02*
X17607682Y-11256484D01*
X17607682Y-11256484D02*
X17626729Y-11266008D01*
X17626729Y-11266008D02*
X17636253Y-11275531D01*
X17636253Y-11275531D02*
X17645777Y-11294579D01*
X17645777Y-11294579D02*
X17655301Y-11332674D01*
X17655301Y-11332674D02*
X17655301Y-11380293D01*
X17655301Y-11380293D02*
X17645777Y-11418388D01*
X17645777Y-11418388D02*
X17636253Y-11437436D01*
X17636253Y-11437436D02*
X17626729Y-11446960D01*
X17626729Y-11446960D02*
X17607682Y-11456484D01*
X17607682Y-11456484D02*
X17588634Y-11456484D01*
X17588634Y-11456484D02*
X17569587Y-11446960D01*
X17569587Y-11446960D02*
X17560063Y-11437436D01*
X17560063Y-11437436D02*
X17550539Y-11418388D01*
X17550539Y-11418388D02*
X17541015Y-11380293D01*
X17541015Y-11380293D02*
X17541015Y-11332674D01*
X17541015Y-11332674D02*
X17550539Y-11294579D01*
X17550539Y-11294579D02*
X17560063Y-11275531D01*
X17560063Y-11275531D02*
X17569587Y-11266008D01*
X17569587Y-11266008D02*
X17588634Y-11256484D01*
X17741015Y-11437436D02*
X17750539Y-11446960D01*
X17750539Y-11446960D02*
X17741015Y-11456484D01*
X17741015Y-11456484D02*
X17731491Y-11446960D01*
X17731491Y-11446960D02*
X17741015Y-11437436D01*
X17741015Y-11437436D02*
X17741015Y-11456484D01*
X17941015Y-11456484D02*
X17826729Y-11456484D01*
X17883872Y-11456484D02*
X17883872Y-11256484D01*
X17883872Y-11256484D02*
X17864825Y-11285055D01*
X17864825Y-11285055D02*
X17845777Y-11304103D01*
X17845777Y-11304103D02*
X17826729Y-11313627D01*
X18121968Y-11256484D02*
X18026729Y-11256484D01*
X18026729Y-11256484D02*
X18017206Y-11351722D01*
X18017206Y-11351722D02*
X18026729Y-11342198D01*
X18026729Y-11342198D02*
X18045777Y-11332674D01*
X18045777Y-11332674D02*
X18093396Y-11332674D01*
X18093396Y-11332674D02*
X18112444Y-11342198D01*
X18112444Y-11342198D02*
X18121968Y-11351722D01*
X18121968Y-11351722D02*
X18131491Y-11370769D01*
X18131491Y-11370769D02*
X18131491Y-11418388D01*
X18131491Y-11418388D02*
X18121968Y-11437436D01*
X18121968Y-11437436D02*
X18112444Y-11446960D01*
X18112444Y-11446960D02*
X18093396Y-11456484D01*
X18093396Y-11456484D02*
X18045777Y-11456484D01*
X18045777Y-11456484D02*
X18026729Y-11446960D01*
X18026729Y-11446960D02*
X18017206Y-11437436D01*
X18198158Y-11256484D02*
X18331491Y-11256484D01*
X18331491Y-11256484D02*
X18245777Y-11456484D01*
X18502920Y-11256484D02*
X18407682Y-11256484D01*
X18407682Y-11256484D02*
X18398158Y-11351722D01*
X18398158Y-11351722D02*
X18407682Y-11342198D01*
X18407682Y-11342198D02*
X18426729Y-11332674D01*
X18426729Y-11332674D02*
X18474349Y-11332674D01*
X18474349Y-11332674D02*
X18493396Y-11342198D01*
X18493396Y-11342198D02*
X18502920Y-11351722D01*
X18502920Y-11351722D02*
X18512444Y-11370769D01*
X18512444Y-11370769D02*
X18512444Y-11418388D01*
X18512444Y-11418388D02*
X18502920Y-11437436D01*
X18502920Y-11437436D02*
X18493396Y-11446960D01*
X18493396Y-11446960D02*
X18474349Y-11456484D01*
X18474349Y-11456484D02*
X18426729Y-11456484D01*
X18426729Y-11456484D02*
X18407682Y-11446960D01*
X18407682Y-11446960D02*
X18398158Y-11437436D01*
X18588634Y-11256484D02*
X18588634Y-11294579D01*
X18664825Y-11256484D02*
X18664825Y-11294579D01*
X18960063Y-11532674D02*
X18950539Y-11523150D01*
X18950539Y-11523150D02*
X18931491Y-11494579D01*
X18931491Y-11494579D02*
X18921968Y-11475531D01*
X18921968Y-11475531D02*
X18912444Y-11446960D01*
X18912444Y-11446960D02*
X18902920Y-11399341D01*
X18902920Y-11399341D02*
X18902920Y-11361246D01*
X18902920Y-11361246D02*
X18912444Y-11313627D01*
X18912444Y-11313627D02*
X18921968Y-11285055D01*
X18921968Y-11285055D02*
X18931491Y-11266008D01*
X18931491Y-11266008D02*
X18950539Y-11237436D01*
X18950539Y-11237436D02*
X18960063Y-11227912D01*
X19121968Y-11323150D02*
X19121968Y-11456484D01*
X19074349Y-11246960D02*
X19026730Y-11389817D01*
X19026730Y-11389817D02*
X19150539Y-11389817D01*
X19379111Y-11456484D02*
X19379111Y-11256484D01*
X19464825Y-11456484D02*
X19464825Y-11351722D01*
X19464825Y-11351722D02*
X19455301Y-11332674D01*
X19455301Y-11332674D02*
X19436253Y-11323150D01*
X19436253Y-11323150D02*
X19407682Y-11323150D01*
X19407682Y-11323150D02*
X19388634Y-11332674D01*
X19388634Y-11332674D02*
X19379111Y-11342198D01*
X19588634Y-11456484D02*
X19569587Y-11446960D01*
X19569587Y-11446960D02*
X19560063Y-11437436D01*
X19560063Y-11437436D02*
X19550539Y-11418388D01*
X19550539Y-11418388D02*
X19550539Y-11361246D01*
X19550539Y-11361246D02*
X19560063Y-11342198D01*
X19560063Y-11342198D02*
X19569587Y-11332674D01*
X19569587Y-11332674D02*
X19588634Y-11323150D01*
X19588634Y-11323150D02*
X19617206Y-11323150D01*
X19617206Y-11323150D02*
X19636253Y-11332674D01*
X19636253Y-11332674D02*
X19645777Y-11342198D01*
X19645777Y-11342198D02*
X19655301Y-11361246D01*
X19655301Y-11361246D02*
X19655301Y-11418388D01*
X19655301Y-11418388D02*
X19645777Y-11437436D01*
X19645777Y-11437436D02*
X19636253Y-11446960D01*
X19636253Y-11446960D02*
X19617206Y-11456484D01*
X19617206Y-11456484D02*
X19588634Y-11456484D01*
X19769587Y-11456484D02*
X19750539Y-11446960D01*
X19750539Y-11446960D02*
X19741015Y-11427912D01*
X19741015Y-11427912D02*
X19741015Y-11256484D01*
X19921968Y-11446960D02*
X19902920Y-11456484D01*
X19902920Y-11456484D02*
X19864825Y-11456484D01*
X19864825Y-11456484D02*
X19845777Y-11446960D01*
X19845777Y-11446960D02*
X19836253Y-11427912D01*
X19836253Y-11427912D02*
X19836253Y-11351722D01*
X19836253Y-11351722D02*
X19845777Y-11332674D01*
X19845777Y-11332674D02*
X19864825Y-11323150D01*
X19864825Y-11323150D02*
X19902920Y-11323150D01*
X19902920Y-11323150D02*
X19921968Y-11332674D01*
X19921968Y-11332674D02*
X19931492Y-11351722D01*
X19931492Y-11351722D02*
X19931492Y-11370769D01*
X19931492Y-11370769D02*
X19836253Y-11389817D01*
X20007682Y-11446960D02*
X20026730Y-11456484D01*
X20026730Y-11456484D02*
X20064825Y-11456484D01*
X20064825Y-11456484D02*
X20083873Y-11446960D01*
X20083873Y-11446960D02*
X20093396Y-11427912D01*
X20093396Y-11427912D02*
X20093396Y-11418388D01*
X20093396Y-11418388D02*
X20083873Y-11399341D01*
X20083873Y-11399341D02*
X20064825Y-11389817D01*
X20064825Y-11389817D02*
X20036253Y-11389817D01*
X20036253Y-11389817D02*
X20017206Y-11380293D01*
X20017206Y-11380293D02*
X20007682Y-11361246D01*
X20007682Y-11361246D02*
X20007682Y-11351722D01*
X20007682Y-11351722D02*
X20017206Y-11332674D01*
X20017206Y-11332674D02*
X20036253Y-11323150D01*
X20036253Y-11323150D02*
X20064825Y-11323150D01*
X20064825Y-11323150D02*
X20083873Y-11332674D01*
X20160063Y-11532674D02*
X20169587Y-11523150D01*
X20169587Y-11523150D02*
X20188634Y-11494579D01*
X20188634Y-11494579D02*
X20198158Y-11475531D01*
X20198158Y-11475531D02*
X20207682Y-11446960D01*
X20207682Y-11446960D02*
X20217206Y-11399341D01*
X20217206Y-11399341D02*
X20217206Y-11361246D01*
X20217206Y-11361246D02*
X20207682Y-11313627D01*
X20207682Y-11313627D02*
X20198158Y-11285055D01*
X20198158Y-11285055D02*
X20188634Y-11266008D01*
X20188634Y-11266008D02*
X20169587Y-11237436D01*
X20169587Y-11237436D02*
X20160063Y-11227912D01*
X20521968Y-11532674D02*
X20512444Y-11523150D01*
X20512444Y-11523150D02*
X20493396Y-11494579D01*
X20493396Y-11494579D02*
X20483873Y-11475531D01*
X20483873Y-11475531D02*
X20474349Y-11446960D01*
X20474349Y-11446960D02*
X20464825Y-11399341D01*
X20464825Y-11399341D02*
X20464825Y-11361246D01*
X20464825Y-11361246D02*
X20474349Y-11313627D01*
X20474349Y-11313627D02*
X20483873Y-11285055D01*
X20483873Y-11285055D02*
X20493396Y-11266008D01*
X20493396Y-11266008D02*
X20512444Y-11237436D01*
X20512444Y-11237436D02*
X20521968Y-11227912D01*
X20598158Y-11323150D02*
X20598158Y-11456484D01*
X20598158Y-11342198D02*
X20607682Y-11332674D01*
X20607682Y-11332674D02*
X20626730Y-11323150D01*
X20626730Y-11323150D02*
X20655301Y-11323150D01*
X20655301Y-11323150D02*
X20674349Y-11332674D01*
X20674349Y-11332674D02*
X20683873Y-11351722D01*
X20683873Y-11351722D02*
X20683873Y-11456484D01*
X20807682Y-11456484D02*
X20788634Y-11446960D01*
X20788634Y-11446960D02*
X20779111Y-11437436D01*
X20779111Y-11437436D02*
X20769587Y-11418388D01*
X20769587Y-11418388D02*
X20769587Y-11361246D01*
X20769587Y-11361246D02*
X20779111Y-11342198D01*
X20779111Y-11342198D02*
X20788634Y-11332674D01*
X20788634Y-11332674D02*
X20807682Y-11323150D01*
X20807682Y-11323150D02*
X20836254Y-11323150D01*
X20836254Y-11323150D02*
X20855301Y-11332674D01*
X20855301Y-11332674D02*
X20864825Y-11342198D01*
X20864825Y-11342198D02*
X20874349Y-11361246D01*
X20874349Y-11361246D02*
X20874349Y-11418388D01*
X20874349Y-11418388D02*
X20864825Y-11437436D01*
X20864825Y-11437436D02*
X20855301Y-11446960D01*
X20855301Y-11446960D02*
X20836254Y-11456484D01*
X20836254Y-11456484D02*
X20807682Y-11456484D01*
X20931492Y-11323150D02*
X21007682Y-11323150D01*
X20960063Y-11256484D02*
X20960063Y-11427912D01*
X20960063Y-11427912D02*
X20969587Y-11446960D01*
X20969587Y-11446960D02*
X20988634Y-11456484D01*
X20988634Y-11456484D02*
X21007682Y-11456484D01*
X21226730Y-11323150D02*
X21226730Y-11523150D01*
X21226730Y-11332674D02*
X21245777Y-11323150D01*
X21245777Y-11323150D02*
X21283873Y-11323150D01*
X21283873Y-11323150D02*
X21302920Y-11332674D01*
X21302920Y-11332674D02*
X21312444Y-11342198D01*
X21312444Y-11342198D02*
X21321968Y-11361246D01*
X21321968Y-11361246D02*
X21321968Y-11418388D01*
X21321968Y-11418388D02*
X21312444Y-11437436D01*
X21312444Y-11437436D02*
X21302920Y-11446960D01*
X21302920Y-11446960D02*
X21283873Y-11456484D01*
X21283873Y-11456484D02*
X21245777Y-11456484D01*
X21245777Y-11456484D02*
X21226730Y-11446960D01*
X21436254Y-11456484D02*
X21417206Y-11446960D01*
X21417206Y-11446960D02*
X21407682Y-11427912D01*
X21407682Y-11427912D02*
X21407682Y-11256484D01*
X21598158Y-11456484D02*
X21598158Y-11351722D01*
X21598158Y-11351722D02*
X21588635Y-11332674D01*
X21588635Y-11332674D02*
X21569587Y-11323150D01*
X21569587Y-11323150D02*
X21531492Y-11323150D01*
X21531492Y-11323150D02*
X21512444Y-11332674D01*
X21598158Y-11446960D02*
X21579111Y-11456484D01*
X21579111Y-11456484D02*
X21531492Y-11456484D01*
X21531492Y-11456484D02*
X21512444Y-11446960D01*
X21512444Y-11446960D02*
X21502920Y-11427912D01*
X21502920Y-11427912D02*
X21502920Y-11408865D01*
X21502920Y-11408865D02*
X21512444Y-11389817D01*
X21512444Y-11389817D02*
X21531492Y-11380293D01*
X21531492Y-11380293D02*
X21579111Y-11380293D01*
X21579111Y-11380293D02*
X21598158Y-11370769D01*
X21664825Y-11323150D02*
X21741015Y-11323150D01*
X21693396Y-11256484D02*
X21693396Y-11427912D01*
X21693396Y-11427912D02*
X21702920Y-11446960D01*
X21702920Y-11446960D02*
X21721968Y-11456484D01*
X21721968Y-11456484D02*
X21741015Y-11456484D01*
X21883873Y-11446960D02*
X21864825Y-11456484D01*
X21864825Y-11456484D02*
X21826730Y-11456484D01*
X21826730Y-11456484D02*
X21807682Y-11446960D01*
X21807682Y-11446960D02*
X21798158Y-11427912D01*
X21798158Y-11427912D02*
X21798158Y-11351722D01*
X21798158Y-11351722D02*
X21807682Y-11332674D01*
X21807682Y-11332674D02*
X21826730Y-11323150D01*
X21826730Y-11323150D02*
X21864825Y-11323150D01*
X21864825Y-11323150D02*
X21883873Y-11332674D01*
X21883873Y-11332674D02*
X21893396Y-11351722D01*
X21893396Y-11351722D02*
X21893396Y-11370769D01*
X21893396Y-11370769D02*
X21798158Y-11389817D01*
X22064825Y-11456484D02*
X22064825Y-11256484D01*
X22064825Y-11446960D02*
X22045777Y-11456484D01*
X22045777Y-11456484D02*
X22007682Y-11456484D01*
X22007682Y-11456484D02*
X21988635Y-11446960D01*
X21988635Y-11446960D02*
X21979111Y-11437436D01*
X21979111Y-11437436D02*
X21969587Y-11418388D01*
X21969587Y-11418388D02*
X21969587Y-11361246D01*
X21969587Y-11361246D02*
X21979111Y-11342198D01*
X21979111Y-11342198D02*
X21988635Y-11332674D01*
X21988635Y-11332674D02*
X22007682Y-11323150D01*
X22007682Y-11323150D02*
X22045777Y-11323150D01*
X22045777Y-11323150D02*
X22064825Y-11332674D01*
X22141016Y-11532674D02*
X22150539Y-11523150D01*
X22150539Y-11523150D02*
X22169587Y-11494579D01*
X22169587Y-11494579D02*
X22179111Y-11475531D01*
X22179111Y-11475531D02*
X22188635Y-11446960D01*
X22188635Y-11446960D02*
X22198158Y-11399341D01*
X22198158Y-11399341D02*
X22198158Y-11361246D01*
X22198158Y-11361246D02*
X22188635Y-11313627D01*
X22188635Y-11313627D02*
X22179111Y-11285055D01*
X22179111Y-11285055D02*
X22169587Y-11266008D01*
X22169587Y-11266008D02*
X22150539Y-11237436D01*
X22150539Y-11237436D02*
X22141016Y-11227912D01*
M02*
