%TF.GenerationSoftware,KiCad,Pcbnew,7.0.10*%
%TF.CreationDate,2024-10-20T20:49:14-04:00*%
%TF.ProjectId,Watch_Hackpad,57617463-685f-4486-9163-6b7061642e6b,rev?*%
%TF.SameCoordinates,Original*%
%TF.FileFunction,Copper,L2,Bot*%
%TF.FilePolarity,Positive*%
%FSLAX46Y46*%
G04 Gerber Fmt 4.6, Leading zero omitted, Abs format (unit mm)*
G04 Created by KiCad (PCBNEW 7.0.10) date 2024-10-20 20:49:14*
%MOMM*%
%LPD*%
G01*
G04 APERTURE LIST*
%TA.AperFunction,ComponentPad*%
%ADD10R,1.600000X1.600000*%
%TD*%
%TA.AperFunction,ComponentPad*%
%ADD11O,1.600000X1.600000*%
%TD*%
%TA.AperFunction,ComponentPad*%
%ADD12C,2.200000*%
%TD*%
%TA.AperFunction,ComponentPad*%
%ADD13O,2.000000X1.600000*%
%TD*%
%TA.AperFunction,ComponentPad*%
%ADD14R,2.000000X2.000000*%
%TD*%
%TA.AperFunction,ComponentPad*%
%ADD15C,2.000000*%
%TD*%
%TA.AperFunction,ComponentPad*%
%ADD16R,2.000000X3.200000*%
%TD*%
%TA.AperFunction,ComponentPad*%
%ADD17R,1.397000X1.397000*%
%TD*%
%TA.AperFunction,ComponentPad*%
%ADD18C,1.397000*%
%TD*%
%TA.AperFunction,ViaPad*%
%ADD19C,0.800000*%
%TD*%
%TA.AperFunction,Conductor*%
%ADD20C,0.250000*%
%TD*%
G04 APERTURE END LIST*
D10*
%TO.P,D6,1,K*%
%TO.N,ROW1*%
X165455000Y-79675000D03*
D11*
%TO.P,D6,2,A*%
%TO.N,Net-(D6-A)*%
X173075000Y-79675000D03*
%TD*%
D10*
%TO.P,D3,1,K*%
%TO.N,ROW0*%
X165455000Y-69025000D03*
D11*
%TO.P,D3,2,A*%
%TO.N,Net-(D3-A)*%
X173075000Y-69025000D03*
%TD*%
D12*
%TO.P,SW2,1,1*%
%TO.N,COL0*%
X159020000Y-91605000D03*
%TO.P,SW2,2,2*%
%TO.N,Net-(D3-A)*%
X161560000Y-97955000D03*
%TD*%
D13*
%TO.P,Brd1,1,GND*%
%TO.N,GND*%
X205425000Y-56995000D03*
%TO.P,Brd1,2,VCC*%
%TO.N,+5V*%
X205425000Y-54455000D03*
%TO.P,Brd1,3,SCL*%
%TO.N,SCL*%
X205425000Y-51915000D03*
%TO.P,Brd1,4,SDA*%
%TO.N,SDA*%
X205425000Y-49375000D03*
%TD*%
D10*
%TO.P,D4,1,K*%
%TO.N,ROW0*%
X165455000Y-72575000D03*
D11*
%TO.P,D4,2,A*%
%TO.N,Net-(D4-A)*%
X173075000Y-72575000D03*
%TD*%
D10*
%TO.P,D5,1,K*%
%TO.N,ROW1*%
X165455000Y-76125000D03*
D11*
%TO.P,D5,2,A*%
%TO.N,Net-(D5-A)*%
X173075000Y-76125000D03*
%TD*%
D14*
%TO.P,SW5,A,A*%
%TO.N,ENC_A*%
X189575000Y-60425000D03*
D15*
%TO.P,SW5,B,B*%
%TO.N,ENC_B*%
X194575000Y-60425000D03*
%TO.P,SW5,C,C*%
%TO.N,GND*%
X192075000Y-60425000D03*
D16*
%TO.P,SW5,MP*%
%TO.N,N/C*%
X186475000Y-52925000D03*
X197675000Y-52925000D03*
D15*
%TO.P,SW5,S1*%
X194575000Y-45925000D03*
%TO.P,SW5,S2*%
X189575000Y-45925000D03*
%TD*%
D12*
%TO.P,SW6,1,1*%
%TO.N,COL1*%
X219620000Y-91605000D03*
%TO.P,SW6,2,2*%
%TO.N,Net-(D6-A)*%
X222160000Y-97955000D03*
%TD*%
D17*
%TO.P,R7,1*%
%TO.N,+5V*%
X204810000Y-77900000D03*
D18*
%TO.P,R7,2*%
%TO.N,SDA*%
X216240000Y-77900000D03*
%TD*%
D17*
%TO.P,R8,1*%
%TO.N,+5V*%
X204810000Y-82176600D03*
D18*
%TO.P,R8,2*%
%TO.N,SCL*%
X216240000Y-82176600D03*
%TD*%
D17*
%TO.P,R5,1*%
%TO.N,+5V*%
X204810000Y-69346800D03*
D18*
%TO.P,R5,2*%
%TO.N,ENC_A*%
X216240000Y-69346800D03*
%TD*%
D17*
%TO.P,R6,1*%
%TO.N,+5V*%
X204810000Y-73623400D03*
D18*
%TO.P,R6,2*%
%TO.N,ENC_B*%
X216240000Y-73623400D03*
%TD*%
D12*
%TO.P,SW4,1,1*%
%TO.N,COL0*%
X199420000Y-91605000D03*
%TO.P,SW4,2,2*%
%TO.N,Net-(D5-A)*%
X201960000Y-97955000D03*
%TD*%
%TO.P,SW3,1,1*%
%TO.N,COL1*%
X179220000Y-91605000D03*
%TO.P,SW3,2,2*%
%TO.N,Net-(D4-A)*%
X181760000Y-97955000D03*
%TD*%
D19*
%TO.N,SCL*%
X206626300Y-66934200D03*
%TO.N,GND*%
X183200000Y-67500000D03*
X183133114Y-60658687D03*
X188500000Y-56500000D03*
%TO.N,+5V*%
X191421000Y-64356800D03*
X191333500Y-38712500D03*
X162196700Y-56710000D03*
X162976700Y-42900000D03*
%TD*%
D20*
%TO.N,SCL*%
X205841900Y-53041900D02*
X205425000Y-53041900D01*
X205425000Y-51915000D02*
X205425000Y-53041900D01*
X206786700Y-66934200D02*
X206786700Y-53986700D01*
X206786700Y-72723300D02*
X206786700Y-66934200D01*
X216240000Y-82176600D02*
X206786700Y-72723300D01*
X206786700Y-66934200D02*
X206626300Y-66934200D01*
X206786700Y-53986700D02*
X205841900Y-53041900D01*
%TO.N,SDA*%
X205847600Y-50501900D02*
X214020200Y-58674500D01*
X205425000Y-49375000D02*
X205425000Y-50501900D01*
X214020200Y-75680200D02*
X216240000Y-77900000D01*
X214020200Y-58674500D02*
X214020200Y-75680200D01*
X205425000Y-50501900D02*
X205847600Y-50501900D01*
%TO.N,GND*%
X184341313Y-60658687D02*
X183133114Y-60658687D01*
X188500000Y-56500000D02*
X184341313Y-60658687D01*
X183133114Y-67433114D02*
X183200000Y-67500000D01*
X183133114Y-60658687D02*
X183133114Y-67433114D01*
%TO.N,+5V*%
X205425000Y-54455000D02*
X204945000Y-54455000D01*
X204945000Y-54455000D02*
X202800000Y-56600000D01*
%TO.N,ROW0*%
X165455000Y-69025000D02*
X165455000Y-72575000D01*
%TO.N,Net-(D3-A)*%
X161499600Y-87369300D02*
X161499600Y-97894600D01*
X173075000Y-70151900D02*
X171948100Y-71278800D01*
X171948100Y-71278800D02*
X171948100Y-76920800D01*
X161499600Y-97894600D02*
X161560000Y-97955000D01*
X173075000Y-69025000D02*
X173075000Y-70151900D01*
X171948100Y-76920800D02*
X161499600Y-87369300D01*
%TO.N,Net-(D4-A)*%
X174201900Y-74828800D02*
X173075000Y-73701900D01*
X174201900Y-90396900D02*
X174201900Y-74828800D01*
X181760000Y-97955000D02*
X174201900Y-90396900D01*
X173075000Y-72575000D02*
X173075000Y-73701900D01*
%TO.N,ROW1*%
X165455000Y-76125000D02*
X165455000Y-79675000D01*
%TO.N,COL1*%
X200527100Y-90172100D02*
X201146800Y-90791800D01*
X197149300Y-90791900D02*
X197769100Y-90172100D01*
X218806800Y-90791800D02*
X219620000Y-91605000D01*
X180033100Y-90791900D02*
X197149300Y-90791900D01*
X197769100Y-90172100D02*
X200527100Y-90172100D01*
X179220000Y-91605000D02*
X180033100Y-90791900D01*
X201146800Y-90791800D02*
X218806800Y-90791800D01*
%TD*%
%TA.AperFunction,Conductor*%
%TO.N,+5V*%
G36*
X234842539Y-34320185D02*
G01*
X234888294Y-34372989D01*
X234899500Y-34424500D01*
X234899500Y-104175500D01*
X234879815Y-104242539D01*
X234827011Y-104288294D01*
X234775500Y-104299500D01*
X154024500Y-104299500D01*
X153957461Y-104279815D01*
X153911706Y-104227011D01*
X153900500Y-104175500D01*
X153900500Y-97955000D01*
X159954551Y-97955000D01*
X159974317Y-98206151D01*
X160033126Y-98451110D01*
X160129533Y-98683859D01*
X160261160Y-98898653D01*
X160261161Y-98898656D01*
X160261164Y-98898659D01*
X160424776Y-99090224D01*
X160573066Y-99216875D01*
X160616343Y-99253838D01*
X160616346Y-99253839D01*
X160831140Y-99385466D01*
X161063889Y-99481873D01*
X161308852Y-99540683D01*
X161560000Y-99560449D01*
X161811148Y-99540683D01*
X162056111Y-99481873D01*
X162288859Y-99385466D01*
X162503659Y-99253836D01*
X162695224Y-99090224D01*
X162792853Y-98975914D01*
X162851358Y-98937722D01*
X162921226Y-98937223D01*
X162980273Y-98974577D01*
X163009751Y-99037924D01*
X163009880Y-99074093D01*
X162995746Y-99172398D01*
X163005745Y-99382327D01*
X163055296Y-99586578D01*
X163055298Y-99586582D01*
X163142598Y-99777743D01*
X163142601Y-99777748D01*
X163142602Y-99777750D01*
X163142604Y-99777753D01*
X163205627Y-99866256D01*
X163264515Y-99948953D01*
X163264520Y-99948959D01*
X163416620Y-100093985D01*
X163511578Y-100155011D01*
X163593428Y-100207613D01*
X163788543Y-100285725D01*
X163891729Y-100305612D01*
X163994914Y-100325500D01*
X163994915Y-100325500D01*
X164152419Y-100325500D01*
X164152425Y-100325500D01*
X164309218Y-100310528D01*
X164510875Y-100251316D01*
X164697682Y-100155011D01*
X164862886Y-100025092D01*
X165000519Y-99866256D01*
X165105604Y-99684244D01*
X165174344Y-99485633D01*
X165204254Y-99277602D01*
X165194254Y-99067670D01*
X165144704Y-98863424D01*
X165144701Y-98863417D01*
X165057401Y-98672256D01*
X165057398Y-98672251D01*
X165057397Y-98672250D01*
X165057396Y-98672247D01*
X164935486Y-98501048D01*
X164935484Y-98501046D01*
X164935479Y-98501040D01*
X164783379Y-98356014D01*
X164606574Y-98242388D01*
X164411455Y-98164274D01*
X164205086Y-98124500D01*
X164205085Y-98124500D01*
X164047575Y-98124500D01*
X163890782Y-98139472D01*
X163890778Y-98139473D01*
X163689127Y-98198683D01*
X163502313Y-98294991D01*
X163337116Y-98424905D01*
X163337107Y-98424913D01*
X163332657Y-98430050D01*
X163273877Y-98467822D01*
X163204007Y-98467818D01*
X163145231Y-98430041D01*
X163116209Y-98366484D01*
X163118373Y-98319899D01*
X163145683Y-98206148D01*
X163165449Y-97955000D01*
X163145683Y-97703852D01*
X163086873Y-97458889D01*
X163074061Y-97427957D01*
X162990466Y-97226140D01*
X162858839Y-97011346D01*
X162858838Y-97011343D01*
X162821875Y-96968066D01*
X162695224Y-96819776D01*
X162568571Y-96711604D01*
X162503656Y-96656161D01*
X162503653Y-96656160D01*
X162288858Y-96524533D01*
X162288859Y-96524533D01*
X162201647Y-96488409D01*
X162147244Y-96444568D01*
X162125179Y-96378274D01*
X162125100Y-96373848D01*
X162125100Y-95635941D01*
X162144785Y-95568902D01*
X162197589Y-95523147D01*
X162266747Y-95513203D01*
X162330303Y-95542228D01*
X162348925Y-95562383D01*
X162377554Y-95601238D01*
X162377561Y-95601245D01*
X162587019Y-95817823D01*
X162823478Y-96004553D01*
X162823480Y-96004554D01*
X162823485Y-96004558D01*
X163082730Y-96158109D01*
X163360128Y-96275736D01*
X163650729Y-96355340D01*
X163949347Y-96395500D01*
X163949351Y-96395500D01*
X164175252Y-96395500D01*
X164339164Y-96384526D01*
X164400634Y-96380412D01*
X164695903Y-96320396D01*
X164980537Y-96221560D01*
X165249459Y-96085668D01*
X165497869Y-95915144D01*
X165721333Y-95713032D01*
X165915865Y-95482939D01*
X166077993Y-95228970D01*
X166204823Y-94955658D01*
X166294093Y-94667879D01*
X166344209Y-94370770D01*
X166354277Y-94069631D01*
X166324118Y-93769838D01*
X166254269Y-93476739D01*
X166145977Y-93195566D01*
X166001175Y-92931335D01*
X165822446Y-92688762D01*
X165612980Y-92472176D01*
X165489742Y-92374856D01*
X165376521Y-92285446D01*
X165376517Y-92285443D01*
X165376515Y-92285442D01*
X165117270Y-92131891D01*
X164839872Y-92014264D01*
X164839863Y-92014261D01*
X164549272Y-91934660D01*
X164474616Y-91924620D01*
X164250653Y-91894500D01*
X164024756Y-91894500D01*
X164024748Y-91894500D01*
X163799368Y-91909587D01*
X163799359Y-91909589D01*
X163504094Y-91969604D01*
X163219464Y-92068439D01*
X163219459Y-92068441D01*
X162950546Y-92204328D01*
X162702125Y-92374860D01*
X162478665Y-92576969D01*
X162411477Y-92656440D01*
X162343791Y-92736498D01*
X162285478Y-92774984D01*
X162215614Y-92775833D01*
X162156381Y-92738776D01*
X162126586Y-92675577D01*
X162125100Y-92656440D01*
X162125100Y-89012401D01*
X162995746Y-89012401D01*
X163005745Y-89222327D01*
X163055296Y-89426578D01*
X163055298Y-89426582D01*
X163142598Y-89617743D01*
X163142601Y-89617748D01*
X163142602Y-89617750D01*
X163142604Y-89617753D01*
X163264514Y-89788952D01*
X163264515Y-89788953D01*
X163264520Y-89788959D01*
X163416620Y-89933985D01*
X163549399Y-90019317D01*
X163593428Y-90047613D01*
X163788543Y-90125725D01*
X163851241Y-90137809D01*
X163994914Y-90165500D01*
X163994915Y-90165500D01*
X164152419Y-90165500D01*
X164152425Y-90165500D01*
X164309218Y-90150528D01*
X164510875Y-90091316D01*
X164697682Y-89995011D01*
X164862886Y-89865092D01*
X165000519Y-89706256D01*
X165004411Y-89699516D01*
X165086426Y-89557461D01*
X165105604Y-89524244D01*
X165174344Y-89325633D01*
X165204254Y-89117602D01*
X165194254Y-88907670D01*
X165144704Y-88703424D01*
X165144701Y-88703417D01*
X165057401Y-88512256D01*
X165057398Y-88512251D01*
X165057397Y-88512250D01*
X165057396Y-88512247D01*
X164935486Y-88341048D01*
X164935484Y-88341046D01*
X164935479Y-88341040D01*
X164783379Y-88196014D01*
X164606574Y-88082388D01*
X164411455Y-88004274D01*
X164205086Y-87964500D01*
X164205085Y-87964500D01*
X164047575Y-87964500D01*
X163890782Y-87979472D01*
X163890778Y-87979473D01*
X163689127Y-88038683D01*
X163502313Y-88134991D01*
X163337116Y-88264905D01*
X163337112Y-88264909D01*
X163199478Y-88423746D01*
X163094398Y-88605750D01*
X163025656Y-88804365D01*
X163025656Y-88804367D01*
X163010804Y-88907670D01*
X162995746Y-89012401D01*
X162125100Y-89012401D01*
X162125100Y-87679752D01*
X162144785Y-87612713D01*
X162161419Y-87592071D01*
X167205478Y-82548012D01*
X172331888Y-77421601D01*
X172344142Y-77411786D01*
X172343959Y-77411564D01*
X172349968Y-77406591D01*
X172349977Y-77406586D01*
X172396049Y-77357522D01*
X172398663Y-77354826D01*
X172412471Y-77341019D01*
X172473794Y-77307537D01*
X172543486Y-77312524D01*
X172552553Y-77316322D01*
X172628504Y-77351739D01*
X172848308Y-77410635D01*
X173010230Y-77424801D01*
X173074998Y-77430468D01*
X173075000Y-77430468D01*
X173075002Y-77430468D01*
X173131807Y-77425498D01*
X173301692Y-77410635D01*
X173420308Y-77378852D01*
X173490156Y-77380515D01*
X173548019Y-77419677D01*
X173575523Y-77483906D01*
X173576400Y-77498627D01*
X173576400Y-78301372D01*
X173556715Y-78368411D01*
X173503911Y-78414166D01*
X173434753Y-78424110D01*
X173420307Y-78421147D01*
X173301697Y-78389366D01*
X173301693Y-78389365D01*
X173301692Y-78389365D01*
X173301691Y-78389364D01*
X173301686Y-78389364D01*
X173075002Y-78369532D01*
X173074998Y-78369532D01*
X172848313Y-78389364D01*
X172848302Y-78389366D01*
X172628511Y-78448258D01*
X172628502Y-78448261D01*
X172422267Y-78544431D01*
X172422265Y-78544432D01*
X172235858Y-78674954D01*
X172074954Y-78835858D01*
X171944432Y-79022265D01*
X171944431Y-79022267D01*
X171848261Y-79228502D01*
X171848258Y-79228511D01*
X171789366Y-79448302D01*
X171789364Y-79448313D01*
X171769532Y-79674998D01*
X171769532Y-79675001D01*
X171789364Y-79901686D01*
X171789366Y-79901697D01*
X171848258Y-80121488D01*
X171848261Y-80121497D01*
X171944431Y-80327732D01*
X171944432Y-80327734D01*
X172074954Y-80514141D01*
X172235858Y-80675045D01*
X172235861Y-80675047D01*
X172422266Y-80805568D01*
X172628504Y-80901739D01*
X172848308Y-80960635D01*
X173010230Y-80974801D01*
X173074998Y-80980468D01*
X173075000Y-80980468D01*
X173075002Y-80980468D01*
X173131807Y-80975498D01*
X173301692Y-80960635D01*
X173420308Y-80928852D01*
X173490156Y-80930515D01*
X173548019Y-80969677D01*
X173575523Y-81033906D01*
X173576400Y-81048627D01*
X173576400Y-90314155D01*
X173574675Y-90329772D01*
X173574961Y-90329799D01*
X173574226Y-90337565D01*
X173576339Y-90404772D01*
X173576400Y-90408667D01*
X173576400Y-90436257D01*
X173576903Y-90440235D01*
X173577818Y-90451867D01*
X173579190Y-90495524D01*
X173579191Y-90495527D01*
X173584780Y-90514767D01*
X173588724Y-90533811D01*
X173591236Y-90553692D01*
X173607314Y-90594303D01*
X173611097Y-90605352D01*
X173623282Y-90647290D01*
X173631594Y-90661346D01*
X173633480Y-90664534D01*
X173642038Y-90682003D01*
X173649414Y-90700632D01*
X173675081Y-90735960D01*
X173681493Y-90745721D01*
X173703728Y-90783317D01*
X173703733Y-90783324D01*
X173717890Y-90797480D01*
X173730528Y-90812276D01*
X173742305Y-90828486D01*
X173742306Y-90828487D01*
X173775957Y-90856325D01*
X173784598Y-90864188D01*
X180217352Y-97296942D01*
X180250837Y-97358265D01*
X180245853Y-97427957D01*
X180244233Y-97432072D01*
X180233129Y-97458881D01*
X180233127Y-97458887D01*
X180174317Y-97703848D01*
X180154551Y-97955000D01*
X180174317Y-98206151D01*
X180233126Y-98451110D01*
X180329533Y-98683859D01*
X180461160Y-98898653D01*
X180461161Y-98898656D01*
X180461164Y-98898659D01*
X180624776Y-99090224D01*
X180773066Y-99216875D01*
X180816343Y-99253838D01*
X180816346Y-99253839D01*
X181031140Y-99385466D01*
X181263889Y-99481873D01*
X181508852Y-99540683D01*
X181760000Y-99560449D01*
X182011148Y-99540683D01*
X182256111Y-99481873D01*
X182488859Y-99385466D01*
X182703659Y-99253836D01*
X182895224Y-99090224D01*
X182992853Y-98975914D01*
X183051358Y-98937722D01*
X183121226Y-98937223D01*
X183180273Y-98974577D01*
X183209751Y-99037924D01*
X183209880Y-99074093D01*
X183195746Y-99172398D01*
X183205745Y-99382327D01*
X183255296Y-99586578D01*
X183255298Y-99586582D01*
X183342598Y-99777743D01*
X183342601Y-99777748D01*
X183342602Y-99777750D01*
X183342604Y-99777753D01*
X183405627Y-99866256D01*
X183464515Y-99948953D01*
X183464520Y-99948959D01*
X183616620Y-100093985D01*
X183711578Y-100155011D01*
X183793428Y-100207613D01*
X183988543Y-100285725D01*
X184091729Y-100305612D01*
X184194914Y-100325500D01*
X184194915Y-100325500D01*
X184352419Y-100325500D01*
X184352425Y-100325500D01*
X184509218Y-100310528D01*
X184710875Y-100251316D01*
X184897682Y-100155011D01*
X185062886Y-100025092D01*
X185200519Y-99866256D01*
X185305604Y-99684244D01*
X185374344Y-99485633D01*
X185404254Y-99277602D01*
X185394254Y-99067670D01*
X185344704Y-98863424D01*
X185344701Y-98863417D01*
X185257401Y-98672256D01*
X185257398Y-98672251D01*
X185257397Y-98672250D01*
X185257396Y-98672247D01*
X185135486Y-98501048D01*
X185135484Y-98501046D01*
X185135479Y-98501040D01*
X184983379Y-98356014D01*
X184806574Y-98242388D01*
X184611455Y-98164274D01*
X184405086Y-98124500D01*
X184405085Y-98124500D01*
X184247575Y-98124500D01*
X184090782Y-98139472D01*
X184090778Y-98139473D01*
X183889127Y-98198683D01*
X183702313Y-98294991D01*
X183537116Y-98424905D01*
X183537107Y-98424913D01*
X183532657Y-98430050D01*
X183473877Y-98467822D01*
X183404007Y-98467818D01*
X183345231Y-98430041D01*
X183316209Y-98366484D01*
X183318373Y-98319899D01*
X183345683Y-98206148D01*
X183365449Y-97955000D01*
X200354551Y-97955000D01*
X200374317Y-98206151D01*
X200433126Y-98451110D01*
X200529533Y-98683859D01*
X200661160Y-98898653D01*
X200661161Y-98898656D01*
X200661164Y-98898659D01*
X200824776Y-99090224D01*
X200973066Y-99216875D01*
X201016343Y-99253838D01*
X201016346Y-99253839D01*
X201231140Y-99385466D01*
X201463889Y-99481873D01*
X201708852Y-99540683D01*
X201960000Y-99560449D01*
X202211148Y-99540683D01*
X202456111Y-99481873D01*
X202688859Y-99385466D01*
X202903659Y-99253836D01*
X203095224Y-99090224D01*
X203192853Y-98975914D01*
X203251358Y-98937722D01*
X203321226Y-98937223D01*
X203380273Y-98974577D01*
X203409751Y-99037924D01*
X203409880Y-99074093D01*
X203395746Y-99172398D01*
X203405745Y-99382327D01*
X203455296Y-99586578D01*
X203455298Y-99586582D01*
X203542598Y-99777743D01*
X203542601Y-99777748D01*
X203542602Y-99777750D01*
X203542604Y-99777753D01*
X203605627Y-99866256D01*
X203664515Y-99948953D01*
X203664520Y-99948959D01*
X203816620Y-100093985D01*
X203911578Y-100155011D01*
X203993428Y-100207613D01*
X204188543Y-100285725D01*
X204291729Y-100305612D01*
X204394914Y-100325500D01*
X204394915Y-100325500D01*
X204552419Y-100325500D01*
X204552425Y-100325500D01*
X204709218Y-100310528D01*
X204910875Y-100251316D01*
X205097682Y-100155011D01*
X205262886Y-100025092D01*
X205400519Y-99866256D01*
X205505604Y-99684244D01*
X205574344Y-99485633D01*
X205604254Y-99277602D01*
X205594254Y-99067670D01*
X205544704Y-98863424D01*
X205544701Y-98863417D01*
X205457401Y-98672256D01*
X205457398Y-98672251D01*
X205457397Y-98672250D01*
X205457396Y-98672247D01*
X205335486Y-98501048D01*
X205335484Y-98501046D01*
X205335479Y-98501040D01*
X205183379Y-98356014D01*
X205006574Y-98242388D01*
X204811455Y-98164274D01*
X204605086Y-98124500D01*
X204605085Y-98124500D01*
X204447575Y-98124500D01*
X204290782Y-98139472D01*
X204290778Y-98139473D01*
X204089127Y-98198683D01*
X203902313Y-98294991D01*
X203737116Y-98424905D01*
X203737107Y-98424913D01*
X203732657Y-98430050D01*
X203673877Y-98467822D01*
X203604007Y-98467818D01*
X203545231Y-98430041D01*
X203516209Y-98366484D01*
X203518373Y-98319899D01*
X203545683Y-98206148D01*
X203565449Y-97955000D01*
X220554551Y-97955000D01*
X220574317Y-98206151D01*
X220633126Y-98451110D01*
X220729533Y-98683859D01*
X220861160Y-98898653D01*
X220861161Y-98898656D01*
X220861164Y-98898659D01*
X221024776Y-99090224D01*
X221173066Y-99216875D01*
X221216343Y-99253838D01*
X221216346Y-99253839D01*
X221431140Y-99385466D01*
X221663889Y-99481873D01*
X221908852Y-99540683D01*
X222160000Y-99560449D01*
X222411148Y-99540683D01*
X222656111Y-99481873D01*
X222888859Y-99385466D01*
X223103659Y-99253836D01*
X223295224Y-99090224D01*
X223392853Y-98975914D01*
X223451358Y-98937722D01*
X223521226Y-98937223D01*
X223580273Y-98974577D01*
X223609751Y-99037924D01*
X223609880Y-99074093D01*
X223595746Y-99172398D01*
X223605745Y-99382327D01*
X223655296Y-99586578D01*
X223655298Y-99586582D01*
X223742598Y-99777743D01*
X223742601Y-99777748D01*
X223742602Y-99777750D01*
X223742604Y-99777753D01*
X223805627Y-99866256D01*
X223864515Y-99948953D01*
X223864520Y-99948959D01*
X224016620Y-100093985D01*
X224111578Y-100155011D01*
X224193428Y-100207613D01*
X224388543Y-100285725D01*
X224491729Y-100305612D01*
X224594914Y-100325500D01*
X224594915Y-100325500D01*
X224752419Y-100325500D01*
X224752425Y-100325500D01*
X224909218Y-100310528D01*
X225110875Y-100251316D01*
X225297682Y-100155011D01*
X225462886Y-100025092D01*
X225600519Y-99866256D01*
X225705604Y-99684244D01*
X225774344Y-99485633D01*
X225804254Y-99277602D01*
X225794254Y-99067670D01*
X225744704Y-98863424D01*
X225744701Y-98863417D01*
X225657401Y-98672256D01*
X225657398Y-98672251D01*
X225657397Y-98672250D01*
X225657396Y-98672247D01*
X225535486Y-98501048D01*
X225535484Y-98501046D01*
X225535479Y-98501040D01*
X225383379Y-98356014D01*
X225206574Y-98242388D01*
X225011455Y-98164274D01*
X224805086Y-98124500D01*
X224805085Y-98124500D01*
X224647575Y-98124500D01*
X224490782Y-98139472D01*
X224490778Y-98139473D01*
X224289127Y-98198683D01*
X224102313Y-98294991D01*
X223937116Y-98424905D01*
X223937107Y-98424913D01*
X223932657Y-98430050D01*
X223873877Y-98467822D01*
X223804007Y-98467818D01*
X223745231Y-98430041D01*
X223716209Y-98366484D01*
X223718373Y-98319899D01*
X223745683Y-98206148D01*
X223765449Y-97955000D01*
X223745683Y-97703852D01*
X223686873Y-97458889D01*
X223674061Y-97427957D01*
X223590466Y-97226140D01*
X223458839Y-97011346D01*
X223458838Y-97011343D01*
X223421875Y-96968066D01*
X223295224Y-96819776D01*
X223168571Y-96711604D01*
X223103656Y-96656161D01*
X223103653Y-96656160D01*
X222888859Y-96524533D01*
X222656110Y-96428126D01*
X222411151Y-96369317D01*
X222160000Y-96349551D01*
X221908848Y-96369317D01*
X221663889Y-96428126D01*
X221431140Y-96524533D01*
X221216346Y-96656160D01*
X221216343Y-96656161D01*
X221024776Y-96819776D01*
X220861161Y-97011343D01*
X220861160Y-97011346D01*
X220729533Y-97226140D01*
X220633126Y-97458889D01*
X220574317Y-97703848D01*
X220554551Y-97955000D01*
X203565449Y-97955000D01*
X203545683Y-97703852D01*
X203486873Y-97458889D01*
X203474061Y-97427957D01*
X203390466Y-97226140D01*
X203258839Y-97011346D01*
X203258838Y-97011343D01*
X203221875Y-96968066D01*
X203095224Y-96819776D01*
X202968571Y-96711604D01*
X202903656Y-96656161D01*
X202903653Y-96656160D01*
X202688859Y-96524533D01*
X202456110Y-96428126D01*
X202211151Y-96369317D01*
X201960000Y-96349551D01*
X201708848Y-96369317D01*
X201463889Y-96428126D01*
X201231140Y-96524533D01*
X201016346Y-96656160D01*
X201016343Y-96656161D01*
X200824776Y-96819776D01*
X200661161Y-97011343D01*
X200661160Y-97011346D01*
X200529533Y-97226140D01*
X200433126Y-97458889D01*
X200374317Y-97703848D01*
X200354551Y-97955000D01*
X183365449Y-97955000D01*
X183345683Y-97703852D01*
X183286873Y-97458889D01*
X183274061Y-97427957D01*
X183190466Y-97226140D01*
X183058839Y-97011346D01*
X183058838Y-97011343D01*
X183021875Y-96968066D01*
X182895224Y-96819776D01*
X182768571Y-96711604D01*
X182703656Y-96656161D01*
X182703653Y-96656160D01*
X182488859Y-96524533D01*
X182256110Y-96428126D01*
X182011151Y-96369317D01*
X181760000Y-96349551D01*
X181508848Y-96369317D01*
X181263887Y-96428127D01*
X181263881Y-96428129D01*
X181237072Y-96439233D01*
X181167603Y-96446700D01*
X181105124Y-96415423D01*
X181101942Y-96412352D01*
X178909963Y-94220373D01*
X182045723Y-94220373D01*
X182075881Y-94520160D01*
X182075882Y-94520162D01*
X182145728Y-94813252D01*
X182145733Y-94813266D01*
X182254020Y-95094427D01*
X182254024Y-95094436D01*
X182398825Y-95358665D01*
X182398829Y-95358671D01*
X182512689Y-95513203D01*
X182577554Y-95601238D01*
X182577561Y-95601245D01*
X182787019Y-95817823D01*
X183023478Y-96004553D01*
X183023480Y-96004554D01*
X183023485Y-96004558D01*
X183282730Y-96158109D01*
X183560128Y-96275736D01*
X183850729Y-96355340D01*
X184149347Y-96395500D01*
X184149351Y-96395500D01*
X184375252Y-96395500D01*
X184539164Y-96384526D01*
X184600634Y-96380412D01*
X184895903Y-96320396D01*
X185180537Y-96221560D01*
X185449459Y-96085668D01*
X185697869Y-95915144D01*
X185921333Y-95713032D01*
X186115865Y-95482939D01*
X186277993Y-95228970D01*
X186404823Y-94955658D01*
X186494093Y-94667879D01*
X186544209Y-94370770D01*
X186549237Y-94220373D01*
X202245723Y-94220373D01*
X202275881Y-94520160D01*
X202275882Y-94520162D01*
X202345728Y-94813252D01*
X202345733Y-94813266D01*
X202454020Y-95094427D01*
X202454024Y-95094436D01*
X202598825Y-95358665D01*
X202598829Y-95358671D01*
X202712689Y-95513203D01*
X202777554Y-95601238D01*
X202777561Y-95601245D01*
X202987019Y-95817823D01*
X203223478Y-96004553D01*
X203223480Y-96004554D01*
X203223485Y-96004558D01*
X203482730Y-96158109D01*
X203760128Y-96275736D01*
X204050729Y-96355340D01*
X204349347Y-96395500D01*
X204349351Y-96395500D01*
X204575252Y-96395500D01*
X204739164Y-96384526D01*
X204800634Y-96380412D01*
X205095903Y-96320396D01*
X205380537Y-96221560D01*
X205649459Y-96085668D01*
X205897869Y-95915144D01*
X206121333Y-95713032D01*
X206315865Y-95482939D01*
X206477993Y-95228970D01*
X206604823Y-94955658D01*
X206694093Y-94667879D01*
X206744209Y-94370770D01*
X206749237Y-94220373D01*
X222445723Y-94220373D01*
X222475881Y-94520160D01*
X222475882Y-94520162D01*
X222545728Y-94813252D01*
X222545733Y-94813266D01*
X222654020Y-95094427D01*
X222654024Y-95094436D01*
X222798825Y-95358665D01*
X222798829Y-95358671D01*
X222912689Y-95513203D01*
X222977554Y-95601238D01*
X222977561Y-95601245D01*
X223187019Y-95817823D01*
X223423478Y-96004553D01*
X223423480Y-96004554D01*
X223423485Y-96004558D01*
X223682730Y-96158109D01*
X223960128Y-96275736D01*
X224250729Y-96355340D01*
X224549347Y-96395500D01*
X224549351Y-96395500D01*
X224775252Y-96395500D01*
X224939164Y-96384526D01*
X225000634Y-96380412D01*
X225295903Y-96320396D01*
X225580537Y-96221560D01*
X225849459Y-96085668D01*
X226097869Y-95915144D01*
X226321333Y-95713032D01*
X226515865Y-95482939D01*
X226677993Y-95228970D01*
X226804823Y-94955658D01*
X226894093Y-94667879D01*
X226944209Y-94370770D01*
X226954277Y-94069631D01*
X226924118Y-93769838D01*
X226854269Y-93476739D01*
X226745977Y-93195566D01*
X226601175Y-92931335D01*
X226422446Y-92688762D01*
X226212980Y-92472176D01*
X226089742Y-92374856D01*
X225976521Y-92285446D01*
X225976517Y-92285443D01*
X225976515Y-92285442D01*
X225717270Y-92131891D01*
X225439872Y-92014264D01*
X225439863Y-92014261D01*
X225149272Y-91934660D01*
X225074616Y-91924620D01*
X224850653Y-91894500D01*
X224624756Y-91894500D01*
X224624748Y-91894500D01*
X224399368Y-91909587D01*
X224399359Y-91909589D01*
X224104094Y-91969604D01*
X223819464Y-92068439D01*
X223819459Y-92068441D01*
X223550546Y-92204328D01*
X223302125Y-92374860D01*
X223078665Y-92576969D01*
X222884132Y-92807064D01*
X222722006Y-93061030D01*
X222722005Y-93061032D01*
X222652669Y-93210449D01*
X222595177Y-93334342D01*
X222595176Y-93334346D01*
X222505907Y-93622118D01*
X222455791Y-93919230D01*
X222445723Y-94220373D01*
X206749237Y-94220373D01*
X206754277Y-94069631D01*
X206724118Y-93769838D01*
X206654269Y-93476739D01*
X206545977Y-93195566D01*
X206401175Y-92931335D01*
X206222446Y-92688762D01*
X206012980Y-92472176D01*
X205889742Y-92374856D01*
X205776521Y-92285446D01*
X205776517Y-92285443D01*
X205776515Y-92285442D01*
X205517270Y-92131891D01*
X205239872Y-92014264D01*
X205239863Y-92014261D01*
X204949272Y-91934660D01*
X204874616Y-91924620D01*
X204650653Y-91894500D01*
X204424756Y-91894500D01*
X204424748Y-91894500D01*
X204199368Y-91909587D01*
X204199359Y-91909589D01*
X203904094Y-91969604D01*
X203619464Y-92068439D01*
X203619459Y-92068441D01*
X203350546Y-92204328D01*
X203102125Y-92374860D01*
X202878665Y-92576969D01*
X202684132Y-92807064D01*
X202522006Y-93061030D01*
X202522005Y-93061032D01*
X202452669Y-93210449D01*
X202395177Y-93334342D01*
X202395176Y-93334346D01*
X202305907Y-93622118D01*
X202255791Y-93919230D01*
X202245723Y-94220373D01*
X186549237Y-94220373D01*
X186554277Y-94069631D01*
X186524118Y-93769838D01*
X186454269Y-93476739D01*
X186345977Y-93195566D01*
X186201175Y-92931335D01*
X186022446Y-92688762D01*
X185812980Y-92472176D01*
X185689742Y-92374856D01*
X185576521Y-92285446D01*
X185576517Y-92285443D01*
X185576515Y-92285442D01*
X185317270Y-92131891D01*
X185039872Y-92014264D01*
X185039863Y-92014261D01*
X184749272Y-91934660D01*
X184674616Y-91924620D01*
X184450653Y-91894500D01*
X184224756Y-91894500D01*
X184224748Y-91894500D01*
X183999368Y-91909587D01*
X183999359Y-91909589D01*
X183704094Y-91969604D01*
X183419464Y-92068439D01*
X183419459Y-92068441D01*
X183150546Y-92204328D01*
X182902125Y-92374860D01*
X182678665Y-92576969D01*
X182484132Y-92807064D01*
X182322006Y-93061030D01*
X182322005Y-93061032D01*
X182252669Y-93210449D01*
X182195177Y-93334342D01*
X182195176Y-93334346D01*
X182105907Y-93622118D01*
X182055791Y-93919230D01*
X182045723Y-94220373D01*
X178909963Y-94220373D01*
X176294591Y-91605000D01*
X177614551Y-91605000D01*
X177634317Y-91856151D01*
X177693126Y-92101110D01*
X177789533Y-92333859D01*
X177921160Y-92548653D01*
X177921161Y-92548656D01*
X177921164Y-92548659D01*
X178084776Y-92740224D01*
X178163036Y-92807064D01*
X178276343Y-92903838D01*
X178276346Y-92903839D01*
X178491140Y-93035466D01*
X178723889Y-93131873D01*
X178968852Y-93190683D01*
X179220000Y-93210449D01*
X179471148Y-93190683D01*
X179716111Y-93131873D01*
X179948859Y-93035466D01*
X180163659Y-92903836D01*
X180355224Y-92740224D01*
X180518836Y-92548659D01*
X180650466Y-92333859D01*
X180746873Y-92101111D01*
X180805683Y-91856148D01*
X180825449Y-91605000D01*
X180821209Y-91551128D01*
X180835573Y-91482752D01*
X180884625Y-91432995D01*
X180944827Y-91417400D01*
X197066557Y-91417400D01*
X197082177Y-91419124D01*
X197082204Y-91418839D01*
X197089960Y-91419571D01*
X197089967Y-91419573D01*
X197157173Y-91417461D01*
X197161068Y-91417400D01*
X197188646Y-91417400D01*
X197188650Y-91417400D01*
X197192624Y-91416897D01*
X197204263Y-91415980D01*
X197247927Y-91414609D01*
X197267169Y-91409017D01*
X197286212Y-91405074D01*
X197306092Y-91402564D01*
X197346701Y-91386485D01*
X197357744Y-91382703D01*
X197399690Y-91370518D01*
X197416929Y-91360322D01*
X197434403Y-91351762D01*
X197453027Y-91344388D01*
X197453027Y-91344387D01*
X197453032Y-91344386D01*
X197488383Y-91318700D01*
X197498114Y-91312308D01*
X197535720Y-91290070D01*
X197549889Y-91275899D01*
X197564679Y-91263268D01*
X197580887Y-91251494D01*
X197608738Y-91217826D01*
X197616579Y-91209209D01*
X197637910Y-91187878D01*
X197699231Y-91154395D01*
X197768923Y-91159379D01*
X197824856Y-91201251D01*
X197849273Y-91266715D01*
X197846163Y-91304507D01*
X197834318Y-91353846D01*
X197834317Y-91353852D01*
X197818799Y-91551029D01*
X197814551Y-91605000D01*
X197834317Y-91856151D01*
X197893126Y-92101110D01*
X197989533Y-92333859D01*
X198121160Y-92548653D01*
X198121161Y-92548656D01*
X198121164Y-92548659D01*
X198284776Y-92740224D01*
X198363036Y-92807064D01*
X198476343Y-92903838D01*
X198476346Y-92903839D01*
X198691140Y-93035466D01*
X198923889Y-93131873D01*
X199168852Y-93190683D01*
X199420000Y-93210449D01*
X199671148Y-93190683D01*
X199916111Y-93131873D01*
X200148859Y-93035466D01*
X200363659Y-92903836D01*
X200555224Y-92740224D01*
X200718836Y-92548659D01*
X200850466Y-92333859D01*
X200946873Y-92101111D01*
X201005683Y-91856148D01*
X201025449Y-91605000D01*
X201021476Y-91554529D01*
X201035839Y-91486155D01*
X201084890Y-91436398D01*
X201133423Y-91421352D01*
X201170475Y-91417850D01*
X201182144Y-91417300D01*
X217895181Y-91417300D01*
X217962220Y-91436985D01*
X218007975Y-91489789D01*
X218018799Y-91551029D01*
X218014551Y-91604999D01*
X218034317Y-91856151D01*
X218093126Y-92101110D01*
X218189533Y-92333859D01*
X218321160Y-92548653D01*
X218321161Y-92548656D01*
X218321164Y-92548659D01*
X218484776Y-92740224D01*
X218563036Y-92807064D01*
X218676343Y-92903838D01*
X218676346Y-92903839D01*
X218891140Y-93035466D01*
X219123889Y-93131873D01*
X219368852Y-93190683D01*
X219620000Y-93210449D01*
X219871148Y-93190683D01*
X220116111Y-93131873D01*
X220348859Y-93035466D01*
X220563659Y-92903836D01*
X220755224Y-92740224D01*
X220918836Y-92548659D01*
X221050466Y-92333859D01*
X221146873Y-92101111D01*
X221205683Y-91856148D01*
X221225449Y-91605000D01*
X221205683Y-91353852D01*
X221146873Y-91108889D01*
X221050466Y-90876141D01*
X221050466Y-90876140D01*
X220918839Y-90661346D01*
X220918838Y-90661343D01*
X220826895Y-90553692D01*
X220755224Y-90469776D01*
X220591332Y-90329799D01*
X220563656Y-90306161D01*
X220563653Y-90306160D01*
X220348859Y-90174533D01*
X220116110Y-90078126D01*
X219871151Y-90019317D01*
X219620000Y-89999551D01*
X219368848Y-90019317D01*
X219123889Y-90078126D01*
X218979802Y-90137809D01*
X218933805Y-90156861D01*
X218886354Y-90166300D01*
X218865784Y-90166300D01*
X218846386Y-90164773D01*
X218838765Y-90163566D01*
X218826605Y-90161640D01*
X218826604Y-90161640D01*
X218783125Y-90165750D01*
X218771456Y-90166300D01*
X205238144Y-90166300D01*
X205171105Y-90146615D01*
X205125350Y-90093811D01*
X205115406Y-90024653D01*
X205144431Y-89961097D01*
X205161492Y-89944830D01*
X205262883Y-89865094D01*
X205262886Y-89865092D01*
X205400519Y-89706256D01*
X205404411Y-89699516D01*
X205486426Y-89557461D01*
X205505604Y-89524244D01*
X205574344Y-89325633D01*
X205604254Y-89117602D01*
X205599243Y-89012401D01*
X223595746Y-89012401D01*
X223605745Y-89222327D01*
X223655296Y-89426578D01*
X223655298Y-89426582D01*
X223742598Y-89617743D01*
X223742601Y-89617748D01*
X223742602Y-89617750D01*
X223742604Y-89617753D01*
X223864514Y-89788952D01*
X223864515Y-89788953D01*
X223864520Y-89788959D01*
X224016620Y-89933985D01*
X224149399Y-90019317D01*
X224193428Y-90047613D01*
X224388543Y-90125725D01*
X224451241Y-90137809D01*
X224594914Y-90165500D01*
X224594915Y-90165500D01*
X224752419Y-90165500D01*
X224752425Y-90165500D01*
X224909218Y-90150528D01*
X225110875Y-90091316D01*
X225297682Y-89995011D01*
X225462886Y-89865092D01*
X225600519Y-89706256D01*
X225604411Y-89699516D01*
X225686426Y-89557461D01*
X225705604Y-89524244D01*
X225774344Y-89325633D01*
X225804254Y-89117602D01*
X225794254Y-88907670D01*
X225744704Y-88703424D01*
X225744701Y-88703417D01*
X225657401Y-88512256D01*
X225657398Y-88512251D01*
X225657397Y-88512250D01*
X225657396Y-88512247D01*
X225535486Y-88341048D01*
X225535484Y-88341046D01*
X225535479Y-88341040D01*
X225383379Y-88196014D01*
X225206574Y-88082388D01*
X225011455Y-88004274D01*
X224805086Y-87964500D01*
X224805085Y-87964500D01*
X224647575Y-87964500D01*
X224490782Y-87979472D01*
X224490778Y-87979473D01*
X224289127Y-88038683D01*
X224102313Y-88134991D01*
X223937116Y-88264905D01*
X223937112Y-88264909D01*
X223799478Y-88423746D01*
X223694398Y-88605750D01*
X223625656Y-88804365D01*
X223625656Y-88804367D01*
X223610804Y-88907670D01*
X223595746Y-89012401D01*
X205599243Y-89012401D01*
X205594254Y-88907670D01*
X205544704Y-88703424D01*
X205544701Y-88703417D01*
X205457401Y-88512256D01*
X205457398Y-88512251D01*
X205457397Y-88512250D01*
X205457396Y-88512247D01*
X205335486Y-88341048D01*
X205335484Y-88341046D01*
X205335479Y-88341040D01*
X205183379Y-88196014D01*
X205006574Y-88082388D01*
X204811455Y-88004274D01*
X204605086Y-87964500D01*
X204605085Y-87964500D01*
X204447575Y-87964500D01*
X204290782Y-87979472D01*
X204290778Y-87979473D01*
X204089127Y-88038683D01*
X203902313Y-88134991D01*
X203737116Y-88264905D01*
X203737112Y-88264909D01*
X203599478Y-88423746D01*
X203494398Y-88605750D01*
X203425656Y-88804365D01*
X203425656Y-88804367D01*
X203410804Y-88907670D01*
X203395746Y-89012401D01*
X203405745Y-89222327D01*
X203455296Y-89426578D01*
X203455298Y-89426582D01*
X203542598Y-89617743D01*
X203542601Y-89617748D01*
X203542602Y-89617750D01*
X203542604Y-89617753D01*
X203664514Y-89788952D01*
X203664515Y-89788953D01*
X203664520Y-89788959D01*
X203816619Y-89933984D01*
X203822843Y-89937984D01*
X203868598Y-89990788D01*
X203878542Y-90059947D01*
X203849517Y-90123503D01*
X203790739Y-90161277D01*
X203755804Y-90166300D01*
X201457253Y-90166300D01*
X201390214Y-90146615D01*
X201369572Y-90129981D01*
X201027903Y-89788312D01*
X201018080Y-89776050D01*
X201017859Y-89776234D01*
X201012886Y-89770222D01*
X200963876Y-89724199D01*
X200961077Y-89721486D01*
X200941577Y-89701985D01*
X200941571Y-89701980D01*
X200938386Y-89699509D01*
X200929534Y-89691948D01*
X200897682Y-89662038D01*
X200897680Y-89662036D01*
X200897677Y-89662035D01*
X200880129Y-89652388D01*
X200863863Y-89641704D01*
X200848032Y-89629424D01*
X200807949Y-89612078D01*
X200797463Y-89606941D01*
X200759194Y-89585903D01*
X200759192Y-89585902D01*
X200739793Y-89580922D01*
X200721381Y-89574618D01*
X200702998Y-89566662D01*
X200702992Y-89566660D01*
X200659860Y-89559829D01*
X200648422Y-89557461D01*
X200606120Y-89546600D01*
X200606119Y-89546600D01*
X200586084Y-89546600D01*
X200566686Y-89545073D01*
X200559262Y-89543897D01*
X200546905Y-89541940D01*
X200546904Y-89541940D01*
X200503425Y-89546050D01*
X200491756Y-89546600D01*
X197851843Y-89546600D01*
X197836222Y-89544875D01*
X197836195Y-89545161D01*
X197828433Y-89544426D01*
X197761213Y-89546539D01*
X197757319Y-89546600D01*
X197729750Y-89546600D01*
X197725773Y-89547102D01*
X197714142Y-89548017D01*
X197670474Y-89549389D01*
X197670468Y-89549390D01*
X197651226Y-89554980D01*
X197632187Y-89558923D01*
X197612317Y-89561434D01*
X197612303Y-89561437D01*
X197571698Y-89577513D01*
X197560654Y-89581294D01*
X197518714Y-89593479D01*
X197518710Y-89593481D01*
X197501466Y-89603679D01*
X197484005Y-89612233D01*
X197465374Y-89619610D01*
X197465362Y-89619617D01*
X197430033Y-89645285D01*
X197420273Y-89651696D01*
X197382680Y-89673929D01*
X197368514Y-89688095D01*
X197353724Y-89700727D01*
X197337514Y-89712504D01*
X197337511Y-89712507D01*
X197309673Y-89746158D01*
X197301811Y-89754797D01*
X196926528Y-90130081D01*
X196865205Y-90163566D01*
X196838847Y-90166400D01*
X185038017Y-90166400D01*
X184970978Y-90146715D01*
X184925223Y-90093911D01*
X184915279Y-90024753D01*
X184944304Y-89961197D01*
X184961365Y-89944930D01*
X185062883Y-89865094D01*
X185062886Y-89865092D01*
X185200519Y-89706256D01*
X185204411Y-89699516D01*
X185286426Y-89557461D01*
X185305604Y-89524244D01*
X185374344Y-89325633D01*
X185404254Y-89117602D01*
X185394254Y-88907670D01*
X185344704Y-88703424D01*
X185344701Y-88703417D01*
X185257401Y-88512256D01*
X185257398Y-88512251D01*
X185257397Y-88512250D01*
X185257396Y-88512247D01*
X185135486Y-88341048D01*
X185135484Y-88341046D01*
X185135479Y-88341040D01*
X184983379Y-88196014D01*
X184806574Y-88082388D01*
X184611455Y-88004274D01*
X184405086Y-87964500D01*
X184405085Y-87964500D01*
X184247575Y-87964500D01*
X184090782Y-87979472D01*
X184090778Y-87979473D01*
X183889127Y-88038683D01*
X183702313Y-88134991D01*
X183537116Y-88264905D01*
X183537112Y-88264909D01*
X183399478Y-88423746D01*
X183294398Y-88605750D01*
X183225656Y-88804365D01*
X183225656Y-88804367D01*
X183210804Y-88907670D01*
X183195746Y-89012401D01*
X183205745Y-89222327D01*
X183255296Y-89426578D01*
X183255298Y-89426582D01*
X183342598Y-89617743D01*
X183342601Y-89617748D01*
X183342602Y-89617750D01*
X183342604Y-89617753D01*
X183464514Y-89788952D01*
X183464515Y-89788953D01*
X183464520Y-89788959D01*
X183616618Y-89933983D01*
X183616620Y-89933984D01*
X183616622Y-89933986D01*
X183622999Y-89938084D01*
X183668753Y-89990887D01*
X183678698Y-90060045D01*
X183649674Y-90123601D01*
X183590897Y-90161377D01*
X183555960Y-90166400D01*
X180115838Y-90166400D01*
X180100221Y-90164676D01*
X180100194Y-90164962D01*
X180092432Y-90164227D01*
X180025245Y-90166339D01*
X180021351Y-90166400D01*
X179993750Y-90166400D01*
X179990062Y-90166865D01*
X179989749Y-90166905D01*
X179978129Y-90167818D01*
X179962536Y-90168308D01*
X179911188Y-90158930D01*
X179716110Y-90078126D01*
X179471151Y-90019317D01*
X179220000Y-89999551D01*
X178968848Y-90019317D01*
X178723889Y-90078126D01*
X178491140Y-90174533D01*
X178276346Y-90306160D01*
X178276343Y-90306161D01*
X178084776Y-90469776D01*
X177921161Y-90661343D01*
X177921160Y-90661346D01*
X177789533Y-90876140D01*
X177693126Y-91108889D01*
X177634317Y-91353848D01*
X177614551Y-91605000D01*
X176294591Y-91605000D01*
X174863719Y-90174128D01*
X174830234Y-90112805D01*
X174827400Y-90086447D01*
X174827400Y-82922944D01*
X203611500Y-82922944D01*
X203617901Y-82982472D01*
X203617903Y-82982479D01*
X203668145Y-83117186D01*
X203668149Y-83117193D01*
X203754309Y-83232287D01*
X203754312Y-83232290D01*
X203869406Y-83318450D01*
X203869413Y-83318454D01*
X204004120Y-83368696D01*
X204004127Y-83368698D01*
X204063655Y-83375099D01*
X204063672Y-83375100D01*
X204560000Y-83375100D01*
X204560000Y-82544132D01*
X204614960Y-82581604D01*
X204743002Y-82621100D01*
X204843312Y-82621100D01*
X204942499Y-82606150D01*
X205060000Y-82549564D01*
X205060000Y-83375100D01*
X205556328Y-83375100D01*
X205556344Y-83375099D01*
X205615872Y-83368698D01*
X205615879Y-83368696D01*
X205750586Y-83318454D01*
X205750593Y-83318450D01*
X205865687Y-83232290D01*
X205865690Y-83232287D01*
X205951850Y-83117193D01*
X205951854Y-83117186D01*
X206002096Y-82982479D01*
X206002098Y-82982472D01*
X206008499Y-82922944D01*
X206008500Y-82922927D01*
X206008500Y-82426600D01*
X205178927Y-82426600D01*
X205228447Y-82340828D01*
X205258264Y-82210193D01*
X205248251Y-82076572D01*
X205199297Y-81951840D01*
X205179169Y-81926600D01*
X206008500Y-81926600D01*
X206008500Y-81430272D01*
X206008499Y-81430255D01*
X206002098Y-81370727D01*
X206002096Y-81370720D01*
X205951854Y-81236013D01*
X205951850Y-81236006D01*
X205865690Y-81120912D01*
X205865687Y-81120909D01*
X205750593Y-81034749D01*
X205750586Y-81034745D01*
X205615879Y-80984503D01*
X205615872Y-80984501D01*
X205556344Y-80978100D01*
X205060000Y-80978100D01*
X205060000Y-81809067D01*
X205005040Y-81771596D01*
X204876998Y-81732100D01*
X204776688Y-81732100D01*
X204677501Y-81747050D01*
X204560000Y-81803635D01*
X204560000Y-80978100D01*
X204063655Y-80978100D01*
X204004127Y-80984501D01*
X204004120Y-80984503D01*
X203869413Y-81034745D01*
X203869406Y-81034749D01*
X203754312Y-81120909D01*
X203754309Y-81120912D01*
X203668149Y-81236006D01*
X203668145Y-81236013D01*
X203617903Y-81370720D01*
X203617901Y-81370727D01*
X203611500Y-81430255D01*
X203611500Y-81926600D01*
X204441073Y-81926600D01*
X204391553Y-82012372D01*
X204361736Y-82143007D01*
X204371749Y-82276628D01*
X204420703Y-82401360D01*
X204440831Y-82426600D01*
X203611500Y-82426600D01*
X203611500Y-82922944D01*
X174827400Y-82922944D01*
X174827400Y-78646344D01*
X203611500Y-78646344D01*
X203617901Y-78705872D01*
X203617903Y-78705879D01*
X203668145Y-78840586D01*
X203668149Y-78840593D01*
X203754309Y-78955687D01*
X203754312Y-78955690D01*
X203869406Y-79041850D01*
X203869413Y-79041854D01*
X204004120Y-79092096D01*
X204004127Y-79092098D01*
X204063655Y-79098499D01*
X204063672Y-79098500D01*
X204560000Y-79098500D01*
X204560000Y-78267532D01*
X204614960Y-78305004D01*
X204743002Y-78344500D01*
X204843312Y-78344500D01*
X204942499Y-78329550D01*
X205060000Y-78272964D01*
X205060000Y-79098500D01*
X205556328Y-79098500D01*
X205556344Y-79098499D01*
X205615872Y-79092098D01*
X205615879Y-79092096D01*
X205750586Y-79041854D01*
X205750593Y-79041850D01*
X205865687Y-78955690D01*
X205865690Y-78955687D01*
X205951850Y-78840593D01*
X205951854Y-78840586D01*
X206002096Y-78705879D01*
X206002098Y-78705872D01*
X206008499Y-78646344D01*
X206008500Y-78646327D01*
X206008500Y-78150000D01*
X205178927Y-78150000D01*
X205228447Y-78064228D01*
X205258264Y-77933593D01*
X205248251Y-77799972D01*
X205199297Y-77675240D01*
X205179169Y-77650000D01*
X206008500Y-77650000D01*
X206008500Y-77153672D01*
X206008499Y-77153655D01*
X206002098Y-77094127D01*
X206002096Y-77094120D01*
X205951854Y-76959413D01*
X205951850Y-76959406D01*
X205865690Y-76844312D01*
X205865687Y-76844309D01*
X205750593Y-76758149D01*
X205750586Y-76758145D01*
X205615879Y-76707903D01*
X205615872Y-76707901D01*
X205556344Y-76701500D01*
X205060000Y-76701500D01*
X205060000Y-77532467D01*
X205005040Y-77494996D01*
X204876998Y-77455500D01*
X204776688Y-77455500D01*
X204677501Y-77470450D01*
X204560000Y-77527035D01*
X204560000Y-76701500D01*
X204063655Y-76701500D01*
X204004127Y-76707901D01*
X204004120Y-76707903D01*
X203869413Y-76758145D01*
X203869406Y-76758149D01*
X203754312Y-76844309D01*
X203754309Y-76844312D01*
X203668149Y-76959406D01*
X203668145Y-76959413D01*
X203617903Y-77094120D01*
X203617901Y-77094127D01*
X203611500Y-77153655D01*
X203611500Y-77650000D01*
X204441073Y-77650000D01*
X204391553Y-77735772D01*
X204361736Y-77866407D01*
X204371749Y-78000028D01*
X204420703Y-78124760D01*
X204440831Y-78150000D01*
X203611500Y-78150000D01*
X203611500Y-78646344D01*
X174827400Y-78646344D01*
X174827400Y-74911537D01*
X174829124Y-74895923D01*
X174828838Y-74895896D01*
X174829572Y-74888133D01*
X174827461Y-74820944D01*
X174827400Y-74817050D01*
X174827400Y-74789451D01*
X174827400Y-74789450D01*
X174826897Y-74785470D01*
X174825980Y-74773821D01*
X174824609Y-74730173D01*
X174819022Y-74710944D01*
X174815074Y-74691884D01*
X174813458Y-74679090D01*
X174812564Y-74672008D01*
X174796485Y-74631397D01*
X174792704Y-74620352D01*
X174780519Y-74578412D01*
X174770318Y-74561163D01*
X174761760Y-74543694D01*
X174754386Y-74525068D01*
X174754383Y-74525064D01*
X174754383Y-74525063D01*
X174728716Y-74489735D01*
X174722303Y-74479972D01*
X174700072Y-74442383D01*
X174700070Y-74442379D01*
X174700066Y-74442375D01*
X174700063Y-74442371D01*
X174685905Y-74428213D01*
X174673270Y-74413420D01*
X174661493Y-74397212D01*
X174628290Y-74369744D01*
X203611500Y-74369744D01*
X203617901Y-74429272D01*
X203617903Y-74429279D01*
X203668145Y-74563986D01*
X203668149Y-74563993D01*
X203754309Y-74679087D01*
X203754312Y-74679090D01*
X203869406Y-74765250D01*
X203869413Y-74765254D01*
X204004120Y-74815496D01*
X204004127Y-74815498D01*
X204063655Y-74821899D01*
X204063672Y-74821900D01*
X204560000Y-74821900D01*
X204560000Y-73990932D01*
X204614960Y-74028404D01*
X204743002Y-74067900D01*
X204843312Y-74067900D01*
X204942499Y-74052950D01*
X205060000Y-73996364D01*
X205060000Y-74821900D01*
X205556328Y-74821900D01*
X205556344Y-74821899D01*
X205615872Y-74815498D01*
X205615879Y-74815496D01*
X205750586Y-74765254D01*
X205750593Y-74765250D01*
X205865687Y-74679090D01*
X205865690Y-74679087D01*
X205951850Y-74563993D01*
X205951854Y-74563986D01*
X206002096Y-74429279D01*
X206002098Y-74429272D01*
X206008499Y-74369744D01*
X206008500Y-74369727D01*
X206008500Y-73873400D01*
X205178927Y-73873400D01*
X205228447Y-73787628D01*
X205258264Y-73656993D01*
X205248251Y-73523372D01*
X205199297Y-73398640D01*
X205179169Y-73373400D01*
X206008500Y-73373400D01*
X206008500Y-73097995D01*
X206028185Y-73030956D01*
X206080989Y-72985201D01*
X206150147Y-72975257D01*
X206213703Y-73004282D01*
X206232819Y-73025111D01*
X206234213Y-73027030D01*
X206234214Y-73027032D01*
X206237065Y-73030956D01*
X206259881Y-73062360D01*
X206266293Y-73072121D01*
X206288528Y-73109717D01*
X206288533Y-73109724D01*
X206302690Y-73123880D01*
X206315328Y-73138676D01*
X206327105Y-73154886D01*
X206327106Y-73154887D01*
X206360757Y-73182725D01*
X206369398Y-73190588D01*
X215022398Y-81843589D01*
X215055883Y-81904912D01*
X215056541Y-81949598D01*
X215056895Y-81949631D01*
X215056590Y-81952918D01*
X215056607Y-81954045D01*
X215056366Y-81955329D01*
X215035863Y-82176599D01*
X215035863Y-82176600D01*
X215056365Y-82397859D01*
X215056366Y-82397861D01*
X215117174Y-82611579D01*
X215117180Y-82611594D01*
X215216222Y-82810496D01*
X215350133Y-82987824D01*
X215514344Y-83137521D01*
X215514346Y-83137523D01*
X215703266Y-83254497D01*
X215703272Y-83254500D01*
X215732206Y-83265709D01*
X215910472Y-83334770D01*
X216128896Y-83375600D01*
X216128899Y-83375600D01*
X216351101Y-83375600D01*
X216351104Y-83375600D01*
X216569528Y-83334770D01*
X216776730Y-83254499D01*
X216965655Y-83137522D01*
X217129868Y-82987822D01*
X217263778Y-82810496D01*
X217362824Y-82611584D01*
X217423634Y-82397860D01*
X217444137Y-82176600D01*
X217423634Y-81955340D01*
X217362824Y-81741616D01*
X217263778Y-81542704D01*
X217178861Y-81430255D01*
X217129866Y-81365375D01*
X216965655Y-81215678D01*
X216965653Y-81215676D01*
X216776733Y-81098702D01*
X216776727Y-81098699D01*
X216647475Y-81048627D01*
X216569528Y-81018430D01*
X216351104Y-80977600D01*
X216128896Y-80977600D01*
X216128894Y-80977600D01*
X216021854Y-80997608D01*
X215952339Y-80990576D01*
X215911390Y-80963400D01*
X211681008Y-76733018D01*
X207448519Y-72500528D01*
X207415034Y-72439205D01*
X207412200Y-72412847D01*
X207412200Y-67407206D01*
X207428813Y-67345206D01*
X207453479Y-67302484D01*
X207511974Y-67122456D01*
X207531760Y-66934200D01*
X207511974Y-66745944D01*
X207453479Y-66565916D01*
X207428813Y-66523192D01*
X207412200Y-66461192D01*
X207412200Y-54069442D01*
X207413924Y-54053822D01*
X207413639Y-54053796D01*
X207414371Y-54046040D01*
X207414373Y-54046033D01*
X207412261Y-53978826D01*
X207412200Y-53974931D01*
X207412200Y-53947354D01*
X207412200Y-53947350D01*
X207411696Y-53943365D01*
X207410780Y-53931721D01*
X207409409Y-53888073D01*
X207403822Y-53868844D01*
X207399874Y-53849784D01*
X207397363Y-53829904D01*
X207381288Y-53789304D01*
X207377504Y-53778252D01*
X207365318Y-53736309D01*
X207365316Y-53736306D01*
X207355123Y-53719071D01*
X207346561Y-53701594D01*
X207339187Y-53682969D01*
X207313516Y-53647637D01*
X207307105Y-53637877D01*
X207284870Y-53600280D01*
X207284868Y-53600278D01*
X207284865Y-53600274D01*
X207270706Y-53586115D01*
X207258068Y-53571319D01*
X207246294Y-53555113D01*
X207212640Y-53527272D01*
X207203999Y-53519409D01*
X206619569Y-52934978D01*
X206586084Y-52873655D01*
X206591068Y-52803963D01*
X206619569Y-52759616D01*
X206625047Y-52754139D01*
X206755568Y-52567734D01*
X206767632Y-52541860D01*
X206813803Y-52489423D01*
X206880996Y-52470270D01*
X206947878Y-52490485D01*
X206967695Y-52506585D01*
X213358381Y-58897271D01*
X213391866Y-58958594D01*
X213394700Y-58984952D01*
X213394700Y-75597455D01*
X213392975Y-75613072D01*
X213393261Y-75613099D01*
X213392526Y-75620865D01*
X213394639Y-75688072D01*
X213394700Y-75691967D01*
X213394700Y-75719557D01*
X213395203Y-75723535D01*
X213396118Y-75735167D01*
X213397490Y-75778824D01*
X213397491Y-75778827D01*
X213403080Y-75798067D01*
X213407024Y-75817111D01*
X213409536Y-75836992D01*
X213425614Y-75877603D01*
X213429397Y-75888652D01*
X213441581Y-75930588D01*
X213451780Y-75947834D01*
X213460338Y-75965303D01*
X213467714Y-75983932D01*
X213493381Y-76019260D01*
X213499793Y-76029021D01*
X213522028Y-76066617D01*
X213522033Y-76066624D01*
X213536190Y-76080780D01*
X213548828Y-76095576D01*
X213560605Y-76111786D01*
X213560606Y-76111787D01*
X213594257Y-76139625D01*
X213602898Y-76147488D01*
X215022398Y-77566988D01*
X215055883Y-77628311D01*
X215056542Y-77672998D01*
X215056895Y-77673031D01*
X215056591Y-77676308D01*
X215056608Y-77677441D01*
X215056366Y-77678733D01*
X215035863Y-77899999D01*
X215035863Y-77900000D01*
X215056365Y-78121259D01*
X215056366Y-78121261D01*
X215117174Y-78334979D01*
X215117180Y-78334994D01*
X215216222Y-78533896D01*
X215350133Y-78711224D01*
X215514344Y-78860921D01*
X215514346Y-78860923D01*
X215703266Y-78977897D01*
X215703272Y-78977900D01*
X215732206Y-78989109D01*
X215910472Y-79058170D01*
X216128896Y-79099000D01*
X216128899Y-79099000D01*
X216351101Y-79099000D01*
X216351104Y-79099000D01*
X216569528Y-79058170D01*
X216776730Y-78977899D01*
X216965655Y-78860922D01*
X217129868Y-78711222D01*
X217263778Y-78533896D01*
X217362824Y-78334984D01*
X217423634Y-78121260D01*
X217444137Y-77900000D01*
X217423634Y-77678740D01*
X217362824Y-77465016D01*
X217352948Y-77445183D01*
X217306418Y-77351738D01*
X217263778Y-77266104D01*
X217178861Y-77153655D01*
X217129866Y-77088775D01*
X216965655Y-76939078D01*
X216965653Y-76939076D01*
X216776733Y-76822102D01*
X216776727Y-76822099D01*
X216669080Y-76780397D01*
X216569528Y-76741830D01*
X216351104Y-76701000D01*
X216128896Y-76701000D01*
X216128895Y-76701000D01*
X216021855Y-76721008D01*
X215952340Y-76713976D01*
X215911391Y-76686800D01*
X214682019Y-75457428D01*
X214648534Y-75396105D01*
X214645700Y-75369747D01*
X214645700Y-73623400D01*
X215035863Y-73623400D01*
X215056365Y-73844659D01*
X215056366Y-73844661D01*
X215117174Y-74058379D01*
X215117180Y-74058394D01*
X215216222Y-74257296D01*
X215350133Y-74434624D01*
X215514344Y-74584321D01*
X215514346Y-74584323D01*
X215703266Y-74701297D01*
X215703272Y-74701300D01*
X215703959Y-74701566D01*
X215910472Y-74781570D01*
X216128896Y-74822400D01*
X216128899Y-74822400D01*
X216351101Y-74822400D01*
X216351104Y-74822400D01*
X216569528Y-74781570D01*
X216776730Y-74701299D01*
X216965655Y-74584322D01*
X217129868Y-74434622D01*
X217263778Y-74257296D01*
X217362824Y-74058384D01*
X217423634Y-73844660D01*
X217444137Y-73623400D01*
X217425555Y-73422876D01*
X217423634Y-73402140D01*
X217423633Y-73402138D01*
X217415456Y-73373400D01*
X217362824Y-73188416D01*
X217361846Y-73186452D01*
X217300056Y-73062360D01*
X217263778Y-72989504D01*
X217137230Y-72821927D01*
X217129866Y-72812175D01*
X216965655Y-72662478D01*
X216965653Y-72662476D01*
X216776733Y-72545502D01*
X216776727Y-72545499D01*
X216660642Y-72500528D01*
X216569528Y-72465230D01*
X216351104Y-72424400D01*
X216128896Y-72424400D01*
X215910472Y-72465230D01*
X215868348Y-72481549D01*
X215703272Y-72545499D01*
X215703266Y-72545502D01*
X215514346Y-72662476D01*
X215514344Y-72662478D01*
X215350133Y-72812175D01*
X215216222Y-72989503D01*
X215117180Y-73188405D01*
X215117174Y-73188420D01*
X215056366Y-73402138D01*
X215056365Y-73402140D01*
X215035863Y-73623399D01*
X215035863Y-73623400D01*
X214645700Y-73623400D01*
X214645700Y-69346800D01*
X215035863Y-69346800D01*
X215056365Y-69568059D01*
X215056366Y-69568061D01*
X215117174Y-69781779D01*
X215117180Y-69781794D01*
X215216222Y-69980696D01*
X215350133Y-70158024D01*
X215514344Y-70307721D01*
X215514346Y-70307723D01*
X215703266Y-70424697D01*
X215703272Y-70424700D01*
X215732206Y-70435909D01*
X215910472Y-70504970D01*
X216128896Y-70545800D01*
X216128899Y-70545800D01*
X216351101Y-70545800D01*
X216351104Y-70545800D01*
X216569528Y-70504970D01*
X216776730Y-70424699D01*
X216965655Y-70307722D01*
X217114860Y-70171704D01*
X217129866Y-70158024D01*
X217133337Y-70153428D01*
X217263778Y-69980696D01*
X217362824Y-69781784D01*
X217423634Y-69568060D01*
X217444137Y-69346800D01*
X217423634Y-69125540D01*
X217362824Y-68911816D01*
X217263778Y-68712904D01*
X217178861Y-68600455D01*
X217129866Y-68535575D01*
X216965655Y-68385878D01*
X216965653Y-68385876D01*
X216776733Y-68268902D01*
X216776727Y-68268899D01*
X216669080Y-68227197D01*
X216569528Y-68188630D01*
X216351104Y-68147800D01*
X216128896Y-68147800D01*
X215910472Y-68188630D01*
X215868348Y-68204949D01*
X215703272Y-68268899D01*
X215703266Y-68268902D01*
X215514346Y-68385876D01*
X215514344Y-68385878D01*
X215350133Y-68535575D01*
X215216222Y-68712903D01*
X215117180Y-68911805D01*
X215117174Y-68911820D01*
X215056366Y-69125538D01*
X215056365Y-69125540D01*
X215035863Y-69346799D01*
X215035863Y-69346800D01*
X214645700Y-69346800D01*
X214645700Y-58757242D01*
X214647424Y-58741622D01*
X214647139Y-58741595D01*
X214647873Y-58733833D01*
X214645761Y-58666612D01*
X214645700Y-58662718D01*
X214645700Y-58635156D01*
X214645700Y-58635150D01*
X214645196Y-58631168D01*
X214644281Y-58619529D01*
X214642910Y-58575873D01*
X214637319Y-58556630D01*
X214633373Y-58537578D01*
X214630864Y-58517708D01*
X214614779Y-58477083D01*
X214611006Y-58466062D01*
X214598818Y-58424110D01*
X214598817Y-58424109D01*
X214598817Y-58424107D01*
X214598816Y-58424106D01*
X214588623Y-58406871D01*
X214580061Y-58389394D01*
X214572687Y-58370769D01*
X214563129Y-58357614D01*
X214547011Y-58335430D01*
X214540605Y-58325677D01*
X214518370Y-58288080D01*
X214518368Y-58288078D01*
X214518365Y-58288074D01*
X214504206Y-58273915D01*
X214491568Y-58259119D01*
X214479794Y-58242913D01*
X214477712Y-58241191D01*
X214446140Y-58215072D01*
X214437499Y-58207209D01*
X206622419Y-50392128D01*
X206588934Y-50330805D01*
X206593918Y-50261113D01*
X206622424Y-50216761D01*
X206625047Y-50214139D01*
X206755568Y-50027734D01*
X206851739Y-49821496D01*
X206910635Y-49601692D01*
X206930468Y-49375000D01*
X206910635Y-49148308D01*
X206851739Y-48928504D01*
X206755568Y-48722266D01*
X206625047Y-48535861D01*
X206625045Y-48535858D01*
X206464141Y-48374954D01*
X206277734Y-48244432D01*
X206277732Y-48244431D01*
X206071497Y-48148261D01*
X206071488Y-48148258D01*
X205851697Y-48089366D01*
X205851687Y-48089364D01*
X205681785Y-48074500D01*
X205681784Y-48074500D01*
X205168216Y-48074500D01*
X205168215Y-48074500D01*
X204998312Y-48089364D01*
X204998302Y-48089366D01*
X204778511Y-48148258D01*
X204778502Y-48148261D01*
X204572267Y-48244431D01*
X204572265Y-48244432D01*
X204385858Y-48374954D01*
X204224954Y-48535858D01*
X204094432Y-48722265D01*
X204094431Y-48722267D01*
X203998261Y-48928502D01*
X203998258Y-48928511D01*
X203939366Y-49148302D01*
X203939364Y-49148313D01*
X203919532Y-49374998D01*
X203919532Y-49375001D01*
X203939364Y-49601686D01*
X203939366Y-49601697D01*
X203998258Y-49821488D01*
X203998261Y-49821497D01*
X204094431Y-50027732D01*
X204094432Y-50027734D01*
X204224954Y-50214141D01*
X204385858Y-50375045D01*
X204385861Y-50375047D01*
X204572266Y-50505568D01*
X204630273Y-50532617D01*
X204682713Y-50578789D01*
X204701865Y-50645982D01*
X204681650Y-50712864D01*
X204630276Y-50757380D01*
X204572269Y-50784430D01*
X204572265Y-50784432D01*
X204385858Y-50914954D01*
X204224954Y-51075858D01*
X204094432Y-51262265D01*
X204094431Y-51262267D01*
X203998261Y-51468502D01*
X203998258Y-51468511D01*
X203939366Y-51688302D01*
X203939364Y-51688313D01*
X203919532Y-51914998D01*
X203919532Y-51915001D01*
X203939364Y-52141686D01*
X203939366Y-52141697D01*
X203998258Y-52361488D01*
X203998261Y-52361497D01*
X204094431Y-52567732D01*
X204094432Y-52567734D01*
X204224954Y-52754141D01*
X204385858Y-52915045D01*
X204385861Y-52915047D01*
X204572266Y-53045568D01*
X204630865Y-53072893D01*
X204683304Y-53119065D01*
X204702456Y-53186259D01*
X204682240Y-53253140D01*
X204630866Y-53297656D01*
X204572522Y-53324863D01*
X204572518Y-53324865D01*
X204386179Y-53455342D01*
X204225342Y-53616179D01*
X204094865Y-53802517D01*
X203998734Y-54008673D01*
X203998730Y-54008682D01*
X203946127Y-54204999D01*
X203946128Y-54205000D01*
X204991314Y-54205000D01*
X204965507Y-54245156D01*
X204925000Y-54383111D01*
X204925000Y-54526889D01*
X204965507Y-54664844D01*
X204991314Y-54705000D01*
X203946128Y-54705000D01*
X203998730Y-54901317D01*
X203998734Y-54901326D01*
X204094865Y-55107482D01*
X204225342Y-55293820D01*
X204386179Y-55454657D01*
X204572518Y-55585134D01*
X204572520Y-55585135D01*
X204630865Y-55612342D01*
X204683305Y-55658514D01*
X204702457Y-55725707D01*
X204682242Y-55792589D01*
X204630867Y-55837105D01*
X204572266Y-55864432D01*
X204572264Y-55864433D01*
X204385858Y-55994954D01*
X204224954Y-56155858D01*
X204094432Y-56342265D01*
X204094431Y-56342267D01*
X203998261Y-56548502D01*
X203998258Y-56548511D01*
X203939366Y-56768302D01*
X203939364Y-56768313D01*
X203919532Y-56994998D01*
X203919532Y-56995001D01*
X203939364Y-57221686D01*
X203939366Y-57221697D01*
X203998258Y-57441488D01*
X203998261Y-57441497D01*
X204094431Y-57647732D01*
X204094432Y-57647734D01*
X204224954Y-57834141D01*
X204385858Y-57995045D01*
X204385861Y-57995047D01*
X204572266Y-58125568D01*
X204778504Y-58221739D01*
X204998308Y-58280635D01*
X205168214Y-58295499D01*
X205168215Y-58295500D01*
X205168216Y-58295500D01*
X205681785Y-58295500D01*
X205681785Y-58295499D01*
X205851692Y-58280635D01*
X205967692Y-58249553D01*
X206005107Y-58239528D01*
X206074957Y-58241191D01*
X206132819Y-58280354D01*
X206160323Y-58344582D01*
X206161200Y-58359303D01*
X206161200Y-66095855D01*
X206141515Y-66162894D01*
X206110085Y-66196173D01*
X206020429Y-66261311D01*
X205893766Y-66401985D01*
X205799121Y-66565915D01*
X205799118Y-66565922D01*
X205740627Y-66745940D01*
X205740626Y-66745944D01*
X205720840Y-66934200D01*
X205740626Y-67122456D01*
X205740627Y-67122459D01*
X205799118Y-67302477D01*
X205799121Y-67302484D01*
X205893767Y-67466416D01*
X206020429Y-67607088D01*
X206110084Y-67672226D01*
X206152751Y-67727555D01*
X206161200Y-67772544D01*
X206161200Y-68313305D01*
X206141515Y-68380344D01*
X206088711Y-68426099D01*
X206019553Y-68436043D01*
X205955997Y-68407018D01*
X205937934Y-68387617D01*
X205865687Y-68291109D01*
X205750593Y-68204949D01*
X205750586Y-68204945D01*
X205615879Y-68154703D01*
X205615872Y-68154701D01*
X205556344Y-68148300D01*
X205060000Y-68148300D01*
X205060000Y-68979267D01*
X205005040Y-68941796D01*
X204876998Y-68902300D01*
X204776688Y-68902300D01*
X204677501Y-68917250D01*
X204560000Y-68973835D01*
X204560000Y-68148300D01*
X204063655Y-68148300D01*
X204004127Y-68154701D01*
X204004120Y-68154703D01*
X203869413Y-68204945D01*
X203869406Y-68204949D01*
X203754312Y-68291109D01*
X203754309Y-68291112D01*
X203668149Y-68406206D01*
X203668145Y-68406213D01*
X203617903Y-68540920D01*
X203617901Y-68540927D01*
X203611500Y-68600455D01*
X203611500Y-69096800D01*
X204441073Y-69096800D01*
X204391553Y-69182572D01*
X204361736Y-69313207D01*
X204371749Y-69446828D01*
X204420703Y-69571560D01*
X204440831Y-69596800D01*
X203611500Y-69596800D01*
X203611500Y-70093144D01*
X203617901Y-70152672D01*
X203617903Y-70152679D01*
X203668145Y-70287386D01*
X203668149Y-70287393D01*
X203754309Y-70402487D01*
X203754312Y-70402490D01*
X203869406Y-70488650D01*
X203869413Y-70488654D01*
X204004120Y-70538896D01*
X204004127Y-70538898D01*
X204063655Y-70545299D01*
X204063672Y-70545300D01*
X204560000Y-70545300D01*
X204560000Y-69714332D01*
X204614960Y-69751804D01*
X204743002Y-69791300D01*
X204843312Y-69791300D01*
X204942499Y-69776350D01*
X205060000Y-69719764D01*
X205060000Y-70545300D01*
X205556328Y-70545300D01*
X205556344Y-70545299D01*
X205615872Y-70538898D01*
X205615879Y-70538896D01*
X205750586Y-70488654D01*
X205750593Y-70488650D01*
X205865686Y-70402490D01*
X205937933Y-70305983D01*
X205993867Y-70264112D01*
X206063559Y-70259128D01*
X206124882Y-70292613D01*
X206158366Y-70353937D01*
X206161200Y-70380294D01*
X206161200Y-72589905D01*
X206141515Y-72656944D01*
X206088711Y-72702699D01*
X206019553Y-72712643D01*
X205955997Y-72683618D01*
X205937934Y-72664217D01*
X205865687Y-72567709D01*
X205750593Y-72481549D01*
X205750586Y-72481545D01*
X205615879Y-72431303D01*
X205615872Y-72431301D01*
X205556344Y-72424900D01*
X205060000Y-72424900D01*
X205060000Y-73255867D01*
X205005040Y-73218396D01*
X204876998Y-73178900D01*
X204776688Y-73178900D01*
X204677501Y-73193850D01*
X204560000Y-73250435D01*
X204560000Y-72424900D01*
X204063655Y-72424900D01*
X204004127Y-72431301D01*
X204004120Y-72431303D01*
X203869413Y-72481545D01*
X203869406Y-72481549D01*
X203754312Y-72567709D01*
X203754309Y-72567712D01*
X203668149Y-72682806D01*
X203668145Y-72682813D01*
X203617903Y-72817520D01*
X203617901Y-72817527D01*
X203611500Y-72877055D01*
X203611500Y-73373400D01*
X204441073Y-73373400D01*
X204391553Y-73459172D01*
X204361736Y-73589807D01*
X204371749Y-73723428D01*
X204420703Y-73848160D01*
X204440831Y-73873400D01*
X203611500Y-73873400D01*
X203611500Y-74369744D01*
X174628290Y-74369744D01*
X174627845Y-74369376D01*
X174619204Y-74361513D01*
X173961120Y-73703429D01*
X173927635Y-73642106D01*
X173932619Y-73572414D01*
X173961120Y-73528067D01*
X174075045Y-73414141D01*
X174075047Y-73414139D01*
X174205568Y-73227734D01*
X174301739Y-73021496D01*
X174360635Y-72801692D01*
X174380468Y-72575000D01*
X174379830Y-72567712D01*
X174360635Y-72348313D01*
X174360635Y-72348308D01*
X174301739Y-72128504D01*
X174205568Y-71922266D01*
X174075047Y-71735861D01*
X174075045Y-71735858D01*
X173914141Y-71574954D01*
X173727734Y-71444432D01*
X173727732Y-71444431D01*
X173521497Y-71348261D01*
X173521488Y-71348258D01*
X173301697Y-71289366D01*
X173301687Y-71289364D01*
X173125611Y-71273959D01*
X173060542Y-71248506D01*
X173019564Y-71191915D01*
X173015686Y-71122153D01*
X173048736Y-71062753D01*
X173458787Y-70652702D01*
X173471042Y-70642886D01*
X173470859Y-70642664D01*
X173476868Y-70637691D01*
X173476877Y-70637686D01*
X173522949Y-70588622D01*
X173525566Y-70585923D01*
X173545120Y-70566371D01*
X173547576Y-70563203D01*
X173555156Y-70554327D01*
X173585062Y-70522482D01*
X173594713Y-70504924D01*
X173605396Y-70488661D01*
X173617673Y-70472836D01*
X173635021Y-70432744D01*
X173640151Y-70422271D01*
X173661197Y-70383992D01*
X173666180Y-70364580D01*
X173672481Y-70346180D01*
X173680437Y-70327796D01*
X173687270Y-70284648D01*
X173689633Y-70273238D01*
X173700500Y-70230919D01*
X173700500Y-70230916D01*
X173701413Y-70223691D01*
X173729345Y-70159647D01*
X173753312Y-70137658D01*
X173914139Y-70025047D01*
X174075047Y-69864139D01*
X174205568Y-69677734D01*
X174301739Y-69471496D01*
X174360635Y-69251692D01*
X174380468Y-69025000D01*
X174379792Y-69017278D01*
X174360635Y-68798313D01*
X174360635Y-68798308D01*
X174301739Y-68578504D01*
X174205568Y-68372266D01*
X174075047Y-68185861D01*
X174075045Y-68185858D01*
X173914141Y-68024954D01*
X173727734Y-67894432D01*
X173727732Y-67894431D01*
X173521497Y-67798261D01*
X173521488Y-67798258D01*
X173301697Y-67739366D01*
X173301693Y-67739365D01*
X173301692Y-67739365D01*
X173301691Y-67739364D01*
X173301686Y-67739364D01*
X173075002Y-67719532D01*
X173074998Y-67719532D01*
X172848313Y-67739364D01*
X172848302Y-67739366D01*
X172628511Y-67798258D01*
X172628502Y-67798261D01*
X172422267Y-67894431D01*
X172422265Y-67894432D01*
X172235858Y-68024954D01*
X172074954Y-68185858D01*
X171944432Y-68372265D01*
X171944431Y-68372267D01*
X171848261Y-68578502D01*
X171848258Y-68578511D01*
X171789366Y-68798302D01*
X171789364Y-68798313D01*
X171769532Y-69024998D01*
X171769532Y-69025001D01*
X171789364Y-69251686D01*
X171789366Y-69251697D01*
X171848258Y-69471488D01*
X171848261Y-69471497D01*
X171944431Y-69677732D01*
X171944432Y-69677734D01*
X172074954Y-69864141D01*
X172188879Y-69978066D01*
X172222364Y-70039389D01*
X172217380Y-70109081D01*
X172188879Y-70153428D01*
X171564308Y-70777999D01*
X171552051Y-70787820D01*
X171552234Y-70788041D01*
X171546222Y-70793014D01*
X171500198Y-70842023D01*
X171497491Y-70844816D01*
X171477989Y-70864317D01*
X171477975Y-70864334D01*
X171475507Y-70867515D01*
X171467943Y-70876370D01*
X171438037Y-70908218D01*
X171438036Y-70908220D01*
X171428384Y-70925776D01*
X171417710Y-70942026D01*
X171405429Y-70957861D01*
X171405424Y-70957868D01*
X171388075Y-70997958D01*
X171382938Y-71008444D01*
X171361903Y-71046706D01*
X171356922Y-71066107D01*
X171350621Y-71084510D01*
X171342662Y-71102902D01*
X171342661Y-71102905D01*
X171335828Y-71146043D01*
X171333460Y-71157474D01*
X171322601Y-71199771D01*
X171322600Y-71199782D01*
X171322600Y-71219816D01*
X171321073Y-71239213D01*
X171317940Y-71258996D01*
X171319406Y-71274500D01*
X171322050Y-71302474D01*
X171322600Y-71314143D01*
X171322600Y-76610346D01*
X171302915Y-76677385D01*
X171286281Y-76698027D01*
X161115808Y-86868499D01*
X161103551Y-86878320D01*
X161103734Y-86878541D01*
X161097722Y-86883514D01*
X161051698Y-86932523D01*
X161048991Y-86935316D01*
X161029489Y-86954817D01*
X161029475Y-86954834D01*
X161027007Y-86958015D01*
X161019443Y-86966870D01*
X160989537Y-86998718D01*
X160989536Y-86998720D01*
X160979884Y-87016276D01*
X160969210Y-87032526D01*
X160956929Y-87048361D01*
X160956924Y-87048368D01*
X160939575Y-87088458D01*
X160934438Y-87098944D01*
X160913403Y-87137206D01*
X160908422Y-87156607D01*
X160902121Y-87175010D01*
X160894162Y-87193402D01*
X160894161Y-87193405D01*
X160887328Y-87236543D01*
X160884960Y-87247974D01*
X160874101Y-87290271D01*
X160874100Y-87290282D01*
X160874100Y-87310316D01*
X160872573Y-87329715D01*
X160869440Y-87349494D01*
X160869440Y-87349495D01*
X160873550Y-87392974D01*
X160874100Y-87404643D01*
X160874100Y-96428765D01*
X160854415Y-96495804D01*
X160814890Y-96534492D01*
X160616346Y-96656160D01*
X160616343Y-96656161D01*
X160424776Y-96819776D01*
X160261161Y-97011343D01*
X160261160Y-97011346D01*
X160129533Y-97226140D01*
X160033126Y-97458889D01*
X159974317Y-97703848D01*
X159954551Y-97955000D01*
X153900500Y-97955000D01*
X153900500Y-91605000D01*
X157414551Y-91605000D01*
X157434317Y-91856151D01*
X157493126Y-92101110D01*
X157589533Y-92333859D01*
X157721160Y-92548653D01*
X157721161Y-92548656D01*
X157721164Y-92548659D01*
X157884776Y-92740224D01*
X157963036Y-92807064D01*
X158076343Y-92903838D01*
X158076346Y-92903839D01*
X158291140Y-93035466D01*
X158523889Y-93131873D01*
X158768852Y-93190683D01*
X159020000Y-93210449D01*
X159271148Y-93190683D01*
X159516111Y-93131873D01*
X159748859Y-93035466D01*
X159963659Y-92903836D01*
X160155224Y-92740224D01*
X160318836Y-92548659D01*
X160450466Y-92333859D01*
X160546873Y-92101111D01*
X160605683Y-91856148D01*
X160625449Y-91605000D01*
X160605683Y-91353852D01*
X160546873Y-91108889D01*
X160450466Y-90876141D01*
X160450466Y-90876140D01*
X160318839Y-90661346D01*
X160318838Y-90661343D01*
X160226895Y-90553692D01*
X160155224Y-90469776D01*
X159991332Y-90329799D01*
X159963656Y-90306161D01*
X159963653Y-90306160D01*
X159748859Y-90174533D01*
X159516110Y-90078126D01*
X159271151Y-90019317D01*
X159020000Y-89999551D01*
X158768848Y-90019317D01*
X158523889Y-90078126D01*
X158291140Y-90174533D01*
X158076346Y-90306160D01*
X158076343Y-90306161D01*
X157884776Y-90469776D01*
X157721161Y-90661343D01*
X157721160Y-90661346D01*
X157589533Y-90876140D01*
X157493126Y-91108889D01*
X157434317Y-91353848D01*
X157414551Y-91605000D01*
X153900500Y-91605000D01*
X153900500Y-80522870D01*
X164154500Y-80522870D01*
X164154501Y-80522876D01*
X164160908Y-80582483D01*
X164211202Y-80717328D01*
X164211206Y-80717335D01*
X164297452Y-80832544D01*
X164297455Y-80832547D01*
X164412664Y-80918793D01*
X164412671Y-80918797D01*
X164547517Y-80969091D01*
X164547516Y-80969091D01*
X164552967Y-80969677D01*
X164607127Y-80975500D01*
X166302872Y-80975499D01*
X166362483Y-80969091D01*
X166497331Y-80918796D01*
X166612546Y-80832546D01*
X166698796Y-80717331D01*
X166749091Y-80582483D01*
X166755500Y-80522873D01*
X166755499Y-78827128D01*
X166749091Y-78767517D01*
X166728094Y-78711222D01*
X166698797Y-78632671D01*
X166698793Y-78632664D01*
X166612547Y-78517455D01*
X166612544Y-78517452D01*
X166497335Y-78431206D01*
X166497328Y-78431202D01*
X166362482Y-78380908D01*
X166362483Y-78380908D01*
X166302883Y-78374501D01*
X166302881Y-78374500D01*
X166302873Y-78374500D01*
X166302865Y-78374500D01*
X166204500Y-78374500D01*
X166137461Y-78354815D01*
X166091706Y-78302011D01*
X166080500Y-78250500D01*
X166080500Y-77549499D01*
X166100185Y-77482460D01*
X166152989Y-77436705D01*
X166204500Y-77425499D01*
X166302871Y-77425499D01*
X166302872Y-77425499D01*
X166362483Y-77419091D01*
X166497331Y-77368796D01*
X166612546Y-77282546D01*
X166698796Y-77167331D01*
X166749091Y-77032483D01*
X166755500Y-76972873D01*
X166755499Y-75277128D01*
X166749091Y-75217517D01*
X166698796Y-75082669D01*
X166698795Y-75082668D01*
X166698793Y-75082664D01*
X166612547Y-74967455D01*
X166612544Y-74967452D01*
X166497335Y-74881206D01*
X166497328Y-74881202D01*
X166362482Y-74830908D01*
X166362483Y-74830908D01*
X166302883Y-74824501D01*
X166302881Y-74824500D01*
X166302873Y-74824500D01*
X166302864Y-74824500D01*
X164607129Y-74824500D01*
X164607123Y-74824501D01*
X164547516Y-74830908D01*
X164412671Y-74881202D01*
X164412664Y-74881206D01*
X164297455Y-74967452D01*
X164297452Y-74967455D01*
X164211206Y-75082664D01*
X164211202Y-75082671D01*
X164160908Y-75217517D01*
X164154501Y-75277116D01*
X164154501Y-75277123D01*
X164154500Y-75277135D01*
X164154500Y-76972870D01*
X164154501Y-76972876D01*
X164160908Y-77032483D01*
X164211202Y-77167328D01*
X164211206Y-77167335D01*
X164297452Y-77282544D01*
X164297455Y-77282547D01*
X164412664Y-77368793D01*
X164412671Y-77368797D01*
X164444089Y-77380515D01*
X164547517Y-77419091D01*
X164607127Y-77425500D01*
X164705500Y-77425499D01*
X164772538Y-77445183D01*
X164818294Y-77497986D01*
X164829500Y-77549499D01*
X164829500Y-78250500D01*
X164809815Y-78317539D01*
X164757011Y-78363294D01*
X164705501Y-78374500D01*
X164607130Y-78374500D01*
X164607123Y-78374501D01*
X164547516Y-78380908D01*
X164412671Y-78431202D01*
X164412664Y-78431206D01*
X164297455Y-78517452D01*
X164297452Y-78517455D01*
X164211206Y-78632664D01*
X164211202Y-78632671D01*
X164160908Y-78767517D01*
X164154501Y-78827116D01*
X164154501Y-78827123D01*
X164154500Y-78827135D01*
X164154500Y-80522870D01*
X153900500Y-80522870D01*
X153900500Y-73422870D01*
X164154500Y-73422870D01*
X164154501Y-73422876D01*
X164160908Y-73482483D01*
X164211202Y-73617328D01*
X164211206Y-73617335D01*
X164297452Y-73732544D01*
X164297455Y-73732547D01*
X164412664Y-73818793D01*
X164412671Y-73818797D01*
X164547517Y-73869091D01*
X164547516Y-73869091D01*
X164554444Y-73869835D01*
X164607127Y-73875500D01*
X166302872Y-73875499D01*
X166362483Y-73869091D01*
X166497331Y-73818796D01*
X166612546Y-73732546D01*
X166698796Y-73617331D01*
X166749091Y-73482483D01*
X166755500Y-73422873D01*
X166755499Y-71727128D01*
X166749091Y-71667517D01*
X166714567Y-71574954D01*
X166698797Y-71532671D01*
X166698793Y-71532664D01*
X166612547Y-71417455D01*
X166612544Y-71417452D01*
X166497335Y-71331206D01*
X166497328Y-71331202D01*
X166362482Y-71280908D01*
X166362483Y-71280908D01*
X166302883Y-71274501D01*
X166302881Y-71274500D01*
X166302873Y-71274500D01*
X166302865Y-71274500D01*
X166204500Y-71274500D01*
X166137461Y-71254815D01*
X166091706Y-71202011D01*
X166080500Y-71150500D01*
X166080500Y-70449499D01*
X166100185Y-70382460D01*
X166152989Y-70336705D01*
X166204500Y-70325499D01*
X166302871Y-70325499D01*
X166302872Y-70325499D01*
X166362483Y-70319091D01*
X166497331Y-70268796D01*
X166612546Y-70182546D01*
X166698796Y-70067331D01*
X166749091Y-69932483D01*
X166755500Y-69872873D01*
X166755499Y-68177128D01*
X166749091Y-68117517D01*
X166714567Y-68024954D01*
X166698797Y-67982671D01*
X166698793Y-67982664D01*
X166612547Y-67867455D01*
X166612544Y-67867452D01*
X166497335Y-67781206D01*
X166497328Y-67781202D01*
X166362482Y-67730908D01*
X166362483Y-67730908D01*
X166302883Y-67724501D01*
X166302881Y-67724500D01*
X166302873Y-67724500D01*
X166302864Y-67724500D01*
X164607129Y-67724500D01*
X164607123Y-67724501D01*
X164547516Y-67730908D01*
X164412671Y-67781202D01*
X164412664Y-67781206D01*
X164297455Y-67867452D01*
X164297452Y-67867455D01*
X164211206Y-67982664D01*
X164211202Y-67982671D01*
X164160908Y-68117517D01*
X164154956Y-68172888D01*
X164154501Y-68177123D01*
X164154500Y-68177135D01*
X164154500Y-69872870D01*
X164154501Y-69872876D01*
X164160908Y-69932483D01*
X164211202Y-70067328D01*
X164211206Y-70067335D01*
X164297452Y-70182544D01*
X164297455Y-70182547D01*
X164412664Y-70268793D01*
X164412671Y-70268797D01*
X164424549Y-70273227D01*
X164547517Y-70319091D01*
X164607127Y-70325500D01*
X164705500Y-70325499D01*
X164772538Y-70345183D01*
X164818294Y-70397986D01*
X164829500Y-70449499D01*
X164829500Y-71150500D01*
X164809815Y-71217539D01*
X164757011Y-71263294D01*
X164705501Y-71274500D01*
X164607130Y-71274500D01*
X164607123Y-71274501D01*
X164547516Y-71280908D01*
X164412671Y-71331202D01*
X164412664Y-71331206D01*
X164297455Y-71417452D01*
X164297452Y-71417455D01*
X164211206Y-71532664D01*
X164211202Y-71532671D01*
X164160908Y-71667517D01*
X164154501Y-71727116D01*
X164154501Y-71727123D01*
X164154500Y-71727135D01*
X164154500Y-73422870D01*
X153900500Y-73422870D01*
X153900500Y-60658687D01*
X182227654Y-60658687D01*
X182247440Y-60846943D01*
X182247441Y-60846946D01*
X182305932Y-61026964D01*
X182305935Y-61026971D01*
X182400581Y-61190903D01*
X182425474Y-61218549D01*
X182475764Y-61274402D01*
X182505994Y-61337393D01*
X182507614Y-61357374D01*
X182507614Y-66875596D01*
X182487929Y-66942635D01*
X182475765Y-66958568D01*
X182467466Y-66967784D01*
X182467465Y-66967785D01*
X182372821Y-67131715D01*
X182372818Y-67131722D01*
X182314327Y-67311740D01*
X182314326Y-67311744D01*
X182294540Y-67500000D01*
X182314326Y-67688256D01*
X182314327Y-67688259D01*
X182372818Y-67868277D01*
X182372821Y-67868284D01*
X182467467Y-68032216D01*
X182544272Y-68117516D01*
X182594129Y-68172888D01*
X182747265Y-68284148D01*
X182747270Y-68284151D01*
X182920192Y-68361142D01*
X182920197Y-68361144D01*
X183105354Y-68400500D01*
X183105355Y-68400500D01*
X183294644Y-68400500D01*
X183294646Y-68400500D01*
X183479803Y-68361144D01*
X183652730Y-68284151D01*
X183805871Y-68172888D01*
X183932533Y-68032216D01*
X184027179Y-67868284D01*
X184085674Y-67688256D01*
X184105460Y-67500000D01*
X184085674Y-67311744D01*
X184027179Y-67131716D01*
X183932533Y-66967784D01*
X183805871Y-66827112D01*
X183801038Y-66822760D01*
X183802746Y-66820862D01*
X183767060Y-66774578D01*
X183758614Y-66729596D01*
X183758614Y-61472870D01*
X188074500Y-61472870D01*
X188074501Y-61472876D01*
X188080908Y-61532483D01*
X188131202Y-61667328D01*
X188131206Y-61667335D01*
X188217452Y-61782544D01*
X188217455Y-61782547D01*
X188332664Y-61868793D01*
X188332671Y-61868797D01*
X188467517Y-61919091D01*
X188467516Y-61919091D01*
X188474444Y-61919835D01*
X188527127Y-61925500D01*
X190622872Y-61925499D01*
X190682483Y-61919091D01*
X190817331Y-61868796D01*
X190932546Y-61782546D01*
X191018796Y-61667331D01*
X191018796Y-61667329D01*
X191020161Y-61665507D01*
X191076095Y-61623636D01*
X191145787Y-61618652D01*
X191195589Y-61641964D01*
X191251491Y-61685474D01*
X191470190Y-61803828D01*
X191705386Y-61884571D01*
X191950665Y-61925500D01*
X192199335Y-61925500D01*
X192444614Y-61884571D01*
X192679810Y-61803828D01*
X192898509Y-61685474D01*
X193094744Y-61532738D01*
X193233772Y-61381712D01*
X193293657Y-61345724D01*
X193363495Y-61347824D01*
X193416226Y-61381711D01*
X193555256Y-61532738D01*
X193751491Y-61685474D01*
X193970190Y-61803828D01*
X194205386Y-61884571D01*
X194450665Y-61925500D01*
X194699335Y-61925500D01*
X194944614Y-61884571D01*
X195179810Y-61803828D01*
X195398509Y-61685474D01*
X195594744Y-61532738D01*
X195763164Y-61349785D01*
X195899173Y-61141607D01*
X195999063Y-60913881D01*
X196060108Y-60672821D01*
X196061279Y-60658687D01*
X196080643Y-60425005D01*
X196080643Y-60424994D01*
X196060109Y-60177187D01*
X196060107Y-60177175D01*
X195999063Y-59936118D01*
X195899173Y-59708393D01*
X195763166Y-59500217D01*
X195733769Y-59468284D01*
X195594744Y-59317262D01*
X195398509Y-59164526D01*
X195398507Y-59164525D01*
X195398506Y-59164524D01*
X195179811Y-59046172D01*
X195179802Y-59046169D01*
X194944616Y-58965429D01*
X194699335Y-58924500D01*
X194450665Y-58924500D01*
X194205383Y-58965429D01*
X193970197Y-59046169D01*
X193970188Y-59046172D01*
X193751493Y-59164524D01*
X193555255Y-59317262D01*
X193555252Y-59317265D01*
X193416229Y-59468284D01*
X193356342Y-59504275D01*
X193286504Y-59502174D01*
X193233771Y-59468284D01*
X193094747Y-59317265D01*
X193094744Y-59317262D01*
X192924161Y-59184492D01*
X192898509Y-59164526D01*
X192898507Y-59164525D01*
X192898506Y-59164524D01*
X192679811Y-59046172D01*
X192679802Y-59046169D01*
X192444616Y-58965429D01*
X192199335Y-58924500D01*
X191950665Y-58924500D01*
X191705383Y-58965429D01*
X191470197Y-59046169D01*
X191470188Y-59046172D01*
X191251488Y-59164527D01*
X191251483Y-59164531D01*
X191195588Y-59208035D01*
X191130594Y-59233677D01*
X191062054Y-59220110D01*
X191020160Y-59184492D01*
X191018796Y-59182670D01*
X191018796Y-59182669D01*
X190932546Y-59067454D01*
X190904113Y-59046169D01*
X190817335Y-58981206D01*
X190817328Y-58981202D01*
X190682482Y-58930908D01*
X190682483Y-58930908D01*
X190622883Y-58924501D01*
X190622881Y-58924500D01*
X190622873Y-58924500D01*
X190622864Y-58924500D01*
X188527129Y-58924500D01*
X188527123Y-58924501D01*
X188467516Y-58930908D01*
X188332671Y-58981202D01*
X188332664Y-58981206D01*
X188217455Y-59067452D01*
X188217452Y-59067455D01*
X188131206Y-59182664D01*
X188131202Y-59182671D01*
X188080908Y-59317517D01*
X188074501Y-59377116D01*
X188074500Y-59377135D01*
X188074500Y-61472870D01*
X183758614Y-61472870D01*
X183758614Y-61408187D01*
X183778299Y-61341148D01*
X183831103Y-61295393D01*
X183882614Y-61284187D01*
X184258570Y-61284187D01*
X184274190Y-61285911D01*
X184274217Y-61285626D01*
X184281973Y-61286358D01*
X184281980Y-61286360D01*
X184349186Y-61284248D01*
X184353081Y-61284187D01*
X184380659Y-61284187D01*
X184380663Y-61284187D01*
X184384637Y-61283684D01*
X184396276Y-61282767D01*
X184439940Y-61281396D01*
X184459182Y-61275804D01*
X184478225Y-61271861D01*
X184498105Y-61269351D01*
X184538714Y-61253272D01*
X184549757Y-61249490D01*
X184591703Y-61237305D01*
X184608942Y-61227109D01*
X184626416Y-61218549D01*
X184645040Y-61211175D01*
X184645040Y-61211174D01*
X184645045Y-61211173D01*
X184680396Y-61185487D01*
X184690127Y-61179095D01*
X184727733Y-61156857D01*
X184741902Y-61142686D01*
X184756692Y-61130055D01*
X184772900Y-61118281D01*
X184800751Y-61084613D01*
X184808592Y-61075996D01*
X188447771Y-57436819D01*
X188509094Y-57403334D01*
X188535452Y-57400500D01*
X188594644Y-57400500D01*
X188594646Y-57400500D01*
X188779803Y-57361144D01*
X188952730Y-57284151D01*
X189105871Y-57172888D01*
X189232533Y-57032216D01*
X189327179Y-56868284D01*
X189385674Y-56688256D01*
X189405460Y-56500000D01*
X189385674Y-56311744D01*
X189327179Y-56131716D01*
X189232533Y-55967784D01*
X189105871Y-55827112D01*
X189105870Y-55827111D01*
X188952734Y-55715851D01*
X188952729Y-55715848D01*
X188779807Y-55638857D01*
X188779802Y-55638855D01*
X188634001Y-55607865D01*
X188594646Y-55599500D01*
X188405354Y-55599500D01*
X188372897Y-55606398D01*
X188220197Y-55638855D01*
X188220192Y-55638857D01*
X188047270Y-55715848D01*
X188047265Y-55715851D01*
X187894129Y-55827111D01*
X187767466Y-55967785D01*
X187672821Y-56131715D01*
X187672818Y-56131722D01*
X187614327Y-56311740D01*
X187614326Y-56311744D01*
X187611118Y-56342266D01*
X187596678Y-56479651D01*
X187570093Y-56544266D01*
X187561038Y-56554370D01*
X184118541Y-59996868D01*
X184057218Y-60030353D01*
X184030860Y-60033187D01*
X183836862Y-60033187D01*
X183769823Y-60013502D01*
X183744714Y-59992161D01*
X183738987Y-59985801D01*
X183738983Y-59985797D01*
X183585848Y-59874538D01*
X183585843Y-59874535D01*
X183412921Y-59797544D01*
X183412916Y-59797542D01*
X183267115Y-59766552D01*
X183227760Y-59758187D01*
X183038468Y-59758187D01*
X183006011Y-59765085D01*
X182853311Y-59797542D01*
X182853306Y-59797544D01*
X182680384Y-59874535D01*
X182680379Y-59874538D01*
X182527243Y-59985798D01*
X182400580Y-60126472D01*
X182305935Y-60290402D01*
X182305932Y-60290409D01*
X182247441Y-60470427D01*
X182247440Y-60470431D01*
X182227654Y-60658687D01*
X153900500Y-60658687D01*
X153900500Y-54572870D01*
X184974500Y-54572870D01*
X184974501Y-54572876D01*
X184980908Y-54632483D01*
X185031202Y-54767328D01*
X185031206Y-54767335D01*
X185117452Y-54882544D01*
X185117455Y-54882547D01*
X185232664Y-54968793D01*
X185232671Y-54968797D01*
X185367517Y-55019091D01*
X185367516Y-55019091D01*
X185374444Y-55019835D01*
X185427127Y-55025500D01*
X187522872Y-55025499D01*
X187582483Y-55019091D01*
X187717331Y-54968796D01*
X187832546Y-54882546D01*
X187918796Y-54767331D01*
X187969091Y-54632483D01*
X187975500Y-54572873D01*
X187975500Y-54572870D01*
X196174500Y-54572870D01*
X196174501Y-54572876D01*
X196180908Y-54632483D01*
X196231202Y-54767328D01*
X196231206Y-54767335D01*
X196317452Y-54882544D01*
X196317455Y-54882547D01*
X196432664Y-54968793D01*
X196432671Y-54968797D01*
X196567517Y-55019091D01*
X196567516Y-55019091D01*
X196574444Y-55019835D01*
X196627127Y-55025500D01*
X198722872Y-55025499D01*
X198782483Y-55019091D01*
X198917331Y-54968796D01*
X199032546Y-54882546D01*
X199118796Y-54767331D01*
X199169091Y-54632483D01*
X199175500Y-54572873D01*
X199175499Y-51277128D01*
X199169091Y-51217517D01*
X199118796Y-51082669D01*
X199118795Y-51082668D01*
X199118793Y-51082664D01*
X199032547Y-50967455D01*
X199032544Y-50967452D01*
X198917335Y-50881206D01*
X198917328Y-50881202D01*
X198782482Y-50830908D01*
X198782483Y-50830908D01*
X198722883Y-50824501D01*
X198722881Y-50824500D01*
X198722873Y-50824500D01*
X198722864Y-50824500D01*
X196627129Y-50824500D01*
X196627123Y-50824501D01*
X196567516Y-50830908D01*
X196432671Y-50881202D01*
X196432664Y-50881206D01*
X196317455Y-50967452D01*
X196317452Y-50967455D01*
X196231206Y-51082664D01*
X196231202Y-51082671D01*
X196180908Y-51217517D01*
X196174501Y-51277116D01*
X196174501Y-51277123D01*
X196174500Y-51277135D01*
X196174500Y-54572870D01*
X187975500Y-54572870D01*
X187975499Y-51277128D01*
X187969091Y-51217517D01*
X187918796Y-51082669D01*
X187918795Y-51082668D01*
X187918793Y-51082664D01*
X187832547Y-50967455D01*
X187832544Y-50967452D01*
X187717335Y-50881206D01*
X187717328Y-50881202D01*
X187582482Y-50830908D01*
X187582483Y-50830908D01*
X187522883Y-50824501D01*
X187522881Y-50824500D01*
X187522873Y-50824500D01*
X187522864Y-50824500D01*
X185427129Y-50824500D01*
X185427123Y-50824501D01*
X185367516Y-50830908D01*
X185232671Y-50881202D01*
X185232664Y-50881206D01*
X185117455Y-50967452D01*
X185117452Y-50967455D01*
X185031206Y-51082664D01*
X185031202Y-51082671D01*
X184980908Y-51217517D01*
X184974501Y-51277116D01*
X184974501Y-51277123D01*
X184974500Y-51277135D01*
X184974500Y-54572870D01*
X153900500Y-54572870D01*
X153900500Y-45925005D01*
X188069357Y-45925005D01*
X188089890Y-46172812D01*
X188089892Y-46172824D01*
X188150936Y-46413881D01*
X188250826Y-46641606D01*
X188386833Y-46849782D01*
X188386836Y-46849785D01*
X188555256Y-47032738D01*
X188751491Y-47185474D01*
X188970190Y-47303828D01*
X189205386Y-47384571D01*
X189450665Y-47425500D01*
X189699335Y-47425500D01*
X189944614Y-47384571D01*
X190179810Y-47303828D01*
X190398509Y-47185474D01*
X190594744Y-47032738D01*
X190763164Y-46849785D01*
X190899173Y-46641607D01*
X190999063Y-46413881D01*
X191060108Y-46172821D01*
X191080643Y-45925005D01*
X193069357Y-45925005D01*
X193089890Y-46172812D01*
X193089892Y-46172824D01*
X193150936Y-46413881D01*
X193250826Y-46641606D01*
X193386833Y-46849782D01*
X193386836Y-46849785D01*
X193555256Y-47032738D01*
X193751491Y-47185474D01*
X193970190Y-47303828D01*
X194205386Y-47384571D01*
X194450665Y-47425500D01*
X194699335Y-47425500D01*
X194944614Y-47384571D01*
X195179810Y-47303828D01*
X195398509Y-47185474D01*
X195594744Y-47032738D01*
X195763164Y-46849785D01*
X195899173Y-46641607D01*
X195999063Y-46413881D01*
X196060108Y-46172821D01*
X196080643Y-45925000D01*
X196060108Y-45677179D01*
X195999063Y-45436119D01*
X195899173Y-45208393D01*
X195763166Y-45000217D01*
X195741557Y-44976744D01*
X195594744Y-44817262D01*
X195398509Y-44664526D01*
X195398507Y-44664525D01*
X195398506Y-44664524D01*
X195179811Y-44546172D01*
X195179802Y-44546169D01*
X194944616Y-44465429D01*
X194699335Y-44424500D01*
X194450665Y-44424500D01*
X194205383Y-44465429D01*
X193970197Y-44546169D01*
X193970188Y-44546172D01*
X193751493Y-44664524D01*
X193555257Y-44817261D01*
X193386833Y-45000217D01*
X193250826Y-45208393D01*
X193150936Y-45436118D01*
X193089892Y-45677175D01*
X193089890Y-45677187D01*
X193069357Y-45924994D01*
X193069357Y-45925005D01*
X191080643Y-45925005D01*
X191080643Y-45925000D01*
X191060108Y-45677179D01*
X190999063Y-45436119D01*
X190899173Y-45208393D01*
X190763166Y-45000217D01*
X190741557Y-44976744D01*
X190594744Y-44817262D01*
X190398509Y-44664526D01*
X190398507Y-44664525D01*
X190398506Y-44664524D01*
X190179811Y-44546172D01*
X190179802Y-44546169D01*
X189944616Y-44465429D01*
X189699335Y-44424500D01*
X189450665Y-44424500D01*
X189205383Y-44465429D01*
X188970197Y-44546169D01*
X188970188Y-44546172D01*
X188751493Y-44664524D01*
X188555257Y-44817261D01*
X188386833Y-45000217D01*
X188250826Y-45208393D01*
X188150936Y-45436118D01*
X188089892Y-45677175D01*
X188089890Y-45677187D01*
X188069357Y-45924994D01*
X188069357Y-45925005D01*
X153900500Y-45925005D01*
X153900500Y-34424500D01*
X153920185Y-34357461D01*
X153972989Y-34311706D01*
X154024500Y-34300500D01*
X234775500Y-34300500D01*
X234842539Y-34320185D01*
G37*
%TD.AperFunction*%
%TD*%
M02*
