%TF.GenerationSoftware,KiCad,Pcbnew,8.0.8*%
%TF.CreationDate,2025-02-15T15:34:16+01:00*%
%TF.ProjectId,Hacpad,48616370-6164-42e6-9b69-6361645f7063,rev?*%
%TF.SameCoordinates,Original*%
%TF.FileFunction,Legend,Top*%
%TF.FilePolarity,Positive*%
%FSLAX46Y46*%
G04 Gerber Fmt 4.6, Leading zero omitted, Abs format (unit mm)*
G04 Created by KiCad (PCBNEW 8.0.8) date 2025-02-15 15:34:16*
%MOMM*%
%LPD*%
G01*
G04 APERTURE LIST*
%ADD10C,0.150000*%
%ADD11C,0.101600*%
%ADD12C,0.120000*%
%ADD13C,0.127000*%
%ADD14C,0.100000*%
%ADD15C,0.504000*%
G04 APERTURE END LIST*
D10*
X77666667Y-52033200D02*
X77809524Y-52080819D01*
X77809524Y-52080819D02*
X78047619Y-52080819D01*
X78047619Y-52080819D02*
X78142857Y-52033200D01*
X78142857Y-52033200D02*
X78190476Y-51985580D01*
X78190476Y-51985580D02*
X78238095Y-51890342D01*
X78238095Y-51890342D02*
X78238095Y-51795104D01*
X78238095Y-51795104D02*
X78190476Y-51699866D01*
X78190476Y-51699866D02*
X78142857Y-51652247D01*
X78142857Y-51652247D02*
X78047619Y-51604628D01*
X78047619Y-51604628D02*
X77857143Y-51557009D01*
X77857143Y-51557009D02*
X77761905Y-51509390D01*
X77761905Y-51509390D02*
X77714286Y-51461771D01*
X77714286Y-51461771D02*
X77666667Y-51366533D01*
X77666667Y-51366533D02*
X77666667Y-51271295D01*
X77666667Y-51271295D02*
X77714286Y-51176057D01*
X77714286Y-51176057D02*
X77761905Y-51128438D01*
X77761905Y-51128438D02*
X77857143Y-51080819D01*
X77857143Y-51080819D02*
X78095238Y-51080819D01*
X78095238Y-51080819D02*
X78238095Y-51128438D01*
X78571429Y-51080819D02*
X78809524Y-52080819D01*
X78809524Y-52080819D02*
X79000000Y-51366533D01*
X79000000Y-51366533D02*
X79190476Y-52080819D01*
X79190476Y-52080819D02*
X79428572Y-51080819D01*
X79761905Y-51176057D02*
X79809524Y-51128438D01*
X79809524Y-51128438D02*
X79904762Y-51080819D01*
X79904762Y-51080819D02*
X80142857Y-51080819D01*
X80142857Y-51080819D02*
X80238095Y-51128438D01*
X80238095Y-51128438D02*
X80285714Y-51176057D01*
X80285714Y-51176057D02*
X80333333Y-51271295D01*
X80333333Y-51271295D02*
X80333333Y-51366533D01*
X80333333Y-51366533D02*
X80285714Y-51509390D01*
X80285714Y-51509390D02*
X79714286Y-52080819D01*
X79714286Y-52080819D02*
X80333333Y-52080819D01*
X58166667Y-71533200D02*
X58309524Y-71580819D01*
X58309524Y-71580819D02*
X58547619Y-71580819D01*
X58547619Y-71580819D02*
X58642857Y-71533200D01*
X58642857Y-71533200D02*
X58690476Y-71485580D01*
X58690476Y-71485580D02*
X58738095Y-71390342D01*
X58738095Y-71390342D02*
X58738095Y-71295104D01*
X58738095Y-71295104D02*
X58690476Y-71199866D01*
X58690476Y-71199866D02*
X58642857Y-71152247D01*
X58642857Y-71152247D02*
X58547619Y-71104628D01*
X58547619Y-71104628D02*
X58357143Y-71057009D01*
X58357143Y-71057009D02*
X58261905Y-71009390D01*
X58261905Y-71009390D02*
X58214286Y-70961771D01*
X58214286Y-70961771D02*
X58166667Y-70866533D01*
X58166667Y-70866533D02*
X58166667Y-70771295D01*
X58166667Y-70771295D02*
X58214286Y-70676057D01*
X58214286Y-70676057D02*
X58261905Y-70628438D01*
X58261905Y-70628438D02*
X58357143Y-70580819D01*
X58357143Y-70580819D02*
X58595238Y-70580819D01*
X58595238Y-70580819D02*
X58738095Y-70628438D01*
X59071429Y-70580819D02*
X59309524Y-71580819D01*
X59309524Y-71580819D02*
X59500000Y-70866533D01*
X59500000Y-70866533D02*
X59690476Y-71580819D01*
X59690476Y-71580819D02*
X59928572Y-70580819D01*
X60214286Y-70580819D02*
X60833333Y-70580819D01*
X60833333Y-70580819D02*
X60500000Y-70961771D01*
X60500000Y-70961771D02*
X60642857Y-70961771D01*
X60642857Y-70961771D02*
X60738095Y-71009390D01*
X60738095Y-71009390D02*
X60785714Y-71057009D01*
X60785714Y-71057009D02*
X60833333Y-71152247D01*
X60833333Y-71152247D02*
X60833333Y-71390342D01*
X60833333Y-71390342D02*
X60785714Y-71485580D01*
X60785714Y-71485580D02*
X60738095Y-71533200D01*
X60738095Y-71533200D02*
X60642857Y-71580819D01*
X60642857Y-71580819D02*
X60357143Y-71580819D01*
X60357143Y-71580819D02*
X60261905Y-71533200D01*
X60261905Y-71533200D02*
X60214286Y-71485580D01*
X58166667Y-52033200D02*
X58309524Y-52080819D01*
X58309524Y-52080819D02*
X58547619Y-52080819D01*
X58547619Y-52080819D02*
X58642857Y-52033200D01*
X58642857Y-52033200D02*
X58690476Y-51985580D01*
X58690476Y-51985580D02*
X58738095Y-51890342D01*
X58738095Y-51890342D02*
X58738095Y-51795104D01*
X58738095Y-51795104D02*
X58690476Y-51699866D01*
X58690476Y-51699866D02*
X58642857Y-51652247D01*
X58642857Y-51652247D02*
X58547619Y-51604628D01*
X58547619Y-51604628D02*
X58357143Y-51557009D01*
X58357143Y-51557009D02*
X58261905Y-51509390D01*
X58261905Y-51509390D02*
X58214286Y-51461771D01*
X58214286Y-51461771D02*
X58166667Y-51366533D01*
X58166667Y-51366533D02*
X58166667Y-51271295D01*
X58166667Y-51271295D02*
X58214286Y-51176057D01*
X58214286Y-51176057D02*
X58261905Y-51128438D01*
X58261905Y-51128438D02*
X58357143Y-51080819D01*
X58357143Y-51080819D02*
X58595238Y-51080819D01*
X58595238Y-51080819D02*
X58738095Y-51128438D01*
X59071429Y-51080819D02*
X59309524Y-52080819D01*
X59309524Y-52080819D02*
X59500000Y-51366533D01*
X59500000Y-51366533D02*
X59690476Y-52080819D01*
X59690476Y-52080819D02*
X59928572Y-51080819D01*
X60833333Y-52080819D02*
X60261905Y-52080819D01*
X60547619Y-52080819D02*
X60547619Y-51080819D01*
X60547619Y-51080819D02*
X60452381Y-51223676D01*
X60452381Y-51223676D02*
X60357143Y-51318914D01*
X60357143Y-51318914D02*
X60261905Y-51366533D01*
D11*
X92636190Y-48033479D02*
X92636190Y-48547526D01*
X92636190Y-48547526D02*
X92666428Y-48608002D01*
X92666428Y-48608002D02*
X92696666Y-48638241D01*
X92696666Y-48638241D02*
X92757142Y-48668479D01*
X92757142Y-48668479D02*
X92878095Y-48668479D01*
X92878095Y-48668479D02*
X92938571Y-48638241D01*
X92938571Y-48638241D02*
X92968809Y-48608002D01*
X92968809Y-48608002D02*
X92999047Y-48547526D01*
X92999047Y-48547526D02*
X92999047Y-48033479D01*
X93634047Y-48668479D02*
X93271190Y-48668479D01*
X93452618Y-48668479D02*
X93452618Y-48033479D01*
X93452618Y-48033479D02*
X93392142Y-48124193D01*
X93392142Y-48124193D02*
X93331666Y-48184669D01*
X93331666Y-48184669D02*
X93271190Y-48214907D01*
D10*
X77666667Y-71533200D02*
X77809524Y-71580819D01*
X77809524Y-71580819D02*
X78047619Y-71580819D01*
X78047619Y-71580819D02*
X78142857Y-71533200D01*
X78142857Y-71533200D02*
X78190476Y-71485580D01*
X78190476Y-71485580D02*
X78238095Y-71390342D01*
X78238095Y-71390342D02*
X78238095Y-71295104D01*
X78238095Y-71295104D02*
X78190476Y-71199866D01*
X78190476Y-71199866D02*
X78142857Y-71152247D01*
X78142857Y-71152247D02*
X78047619Y-71104628D01*
X78047619Y-71104628D02*
X77857143Y-71057009D01*
X77857143Y-71057009D02*
X77761905Y-71009390D01*
X77761905Y-71009390D02*
X77714286Y-70961771D01*
X77714286Y-70961771D02*
X77666667Y-70866533D01*
X77666667Y-70866533D02*
X77666667Y-70771295D01*
X77666667Y-70771295D02*
X77714286Y-70676057D01*
X77714286Y-70676057D02*
X77761905Y-70628438D01*
X77761905Y-70628438D02*
X77857143Y-70580819D01*
X77857143Y-70580819D02*
X78095238Y-70580819D01*
X78095238Y-70580819D02*
X78238095Y-70628438D01*
X78571429Y-70580819D02*
X78809524Y-71580819D01*
X78809524Y-71580819D02*
X79000000Y-70866533D01*
X79000000Y-70866533D02*
X79190476Y-71580819D01*
X79190476Y-71580819D02*
X79428572Y-70580819D01*
X80238095Y-70914152D02*
X80238095Y-71580819D01*
X80000000Y-70533200D02*
X79761905Y-71247485D01*
X79761905Y-71247485D02*
X80380952Y-71247485D01*
X106761905Y-82704819D02*
X106761905Y-81704819D01*
X106761905Y-81704819D02*
X107000000Y-81704819D01*
X107000000Y-81704819D02*
X107142857Y-81752438D01*
X107142857Y-81752438D02*
X107238095Y-81847676D01*
X107238095Y-81847676D02*
X107285714Y-81942914D01*
X107285714Y-81942914D02*
X107333333Y-82133390D01*
X107333333Y-82133390D02*
X107333333Y-82276247D01*
X107333333Y-82276247D02*
X107285714Y-82466723D01*
X107285714Y-82466723D02*
X107238095Y-82561961D01*
X107238095Y-82561961D02*
X107142857Y-82657200D01*
X107142857Y-82657200D02*
X107000000Y-82704819D01*
X107000000Y-82704819D02*
X106761905Y-82704819D01*
X108285714Y-82704819D02*
X107714286Y-82704819D01*
X108000000Y-82704819D02*
X108000000Y-81704819D01*
X108000000Y-81704819D02*
X107904762Y-81847676D01*
X107904762Y-81847676D02*
X107809524Y-81942914D01*
X107809524Y-81942914D02*
X107714286Y-81990533D01*
X104528571Y-84487295D02*
X104071428Y-84487295D01*
X104300000Y-84487295D02*
X104300000Y-83687295D01*
X104300000Y-83687295D02*
X104223809Y-83801580D01*
X104223809Y-83801580D02*
X104147619Y-83877771D01*
X104147619Y-83877771D02*
X104071428Y-83915866D01*
D12*
%TO.C,SW2*%
X72015000Y-52515000D02*
X85985000Y-52515000D01*
X72015000Y-66485000D02*
X72015000Y-52515000D01*
X85985000Y-52515000D02*
X85985000Y-66485000D01*
X85985000Y-66485000D02*
X72015000Y-66485000D01*
%TO.C,SW3*%
X52515000Y-72015000D02*
X66485000Y-72015000D01*
X52515000Y-85985000D02*
X52515000Y-72015000D01*
X66485000Y-72015000D02*
X66485000Y-85985000D01*
X66485000Y-85985000D02*
X52515000Y-85985000D01*
%TO.C,SW1*%
X52515000Y-52515000D02*
X66485000Y-52515000D01*
X52515000Y-66485000D02*
X52515000Y-52515000D01*
X66485000Y-52515000D02*
X66485000Y-66485000D01*
X66485000Y-66485000D02*
X52515000Y-66485000D01*
D13*
%TO.C,U1*%
X92730000Y-68889000D02*
X92730000Y-51744000D01*
X94635000Y-70794000D02*
X108605000Y-70794000D01*
X97125000Y-49839000D02*
X97128728Y-48928728D01*
X97628728Y-48429000D02*
X105624000Y-48429000D01*
X106124000Y-48929000D02*
X106124000Y-49839000D01*
D14*
X108605000Y-49839000D02*
X94635000Y-49839000D01*
D13*
X108605000Y-49839000D02*
X94635000Y-49839000D01*
X110510000Y-68889000D02*
X110510000Y-51744000D01*
X92730000Y-51744000D02*
G75*
G02*
X94635000Y-49839000I1905001J-1D01*
G01*
X94635000Y-70794000D02*
G75*
G02*
X92730000Y-68889000I1J1905001D01*
G01*
X97128728Y-48928728D02*
G75*
G02*
X97628728Y-48429001I500018J-291D01*
G01*
X105624000Y-48429000D02*
G75*
G02*
X106124000Y-48929000I0J-500000D01*
G01*
X108605000Y-49839000D02*
G75*
G02*
X110510000Y-51744000I0J-1905000D01*
G01*
X110510000Y-68889000D02*
G75*
G02*
X108605000Y-70794000I-1905000J0D01*
G01*
D15*
X92922000Y-50080000D02*
G75*
G02*
X92418000Y-50080000I-252000J0D01*
G01*
X92418000Y-50080000D02*
G75*
G02*
X92922000Y-50080000I252000J0D01*
G01*
X94065000Y-50960000D02*
G75*
G02*
X93561000Y-50960000I-252000J0D01*
G01*
X93561000Y-50960000D02*
G75*
G02*
X94065000Y-50960000I252000J0D01*
G01*
D12*
%TO.C,SW4*%
X72015000Y-72015000D02*
X85985000Y-72015000D01*
X72015000Y-85985000D02*
X72015000Y-72015000D01*
X85985000Y-72015000D02*
X85985000Y-85985000D01*
X85985000Y-85985000D02*
X72015000Y-85985000D01*
%TO.C,D1*%
X104700000Y-83000000D02*
X104700000Y-87000000D01*
X104700000Y-83000000D02*
X110300000Y-83000000D01*
X104700000Y-87000000D02*
X109700000Y-87000000D01*
X110300000Y-86400000D02*
X109700000Y-87000000D01*
X110300000Y-86400000D02*
X110300000Y-83000000D01*
%TD*%
M02*
