%TF.GenerationSoftware,KiCad,Pcbnew,8.0.5*%
%TF.CreationDate,2024-10-21T01:13:13-05:00*%
%TF.ProjectId,macropad,6d616372-6f70-4616-942e-6b696361645f,rev?*%
%TF.SameCoordinates,Original*%
%TF.FileFunction,Soldermask,Bot*%
%TF.FilePolarity,Negative*%
%FSLAX46Y46*%
G04 Gerber Fmt 4.6, Leading zero omitted, Abs format (unit mm)*
G04 Created by KiCad (PCBNEW 8.0.5) date 2024-10-21 01:13:13*
%MOMM*%
%LPD*%
G01*
G04 APERTURE LIST*
G04 Aperture macros list*
%AMRoundRect*
0 Rectangle with rounded corners*
0 $1 Rounding radius*
0 $2 $3 $4 $5 $6 $7 $8 $9 X,Y pos of 4 corners*
0 Add a 4 corners polygon primitive as box body*
4,1,4,$2,$3,$4,$5,$6,$7,$8,$9,$2,$3,0*
0 Add four circle primitives for the rounded corners*
1,1,$1+$1,$2,$3*
1,1,$1+$1,$4,$5*
1,1,$1+$1,$6,$7*
1,1,$1+$1,$8,$9*
0 Add four rect primitives between the rounded corners*
20,1,$1+$1,$2,$3,$4,$5,0*
20,1,$1+$1,$4,$5,$6,$7,0*
20,1,$1+$1,$6,$7,$8,$9,0*
20,1,$1+$1,$8,$9,$2,$3,0*%
G04 Aperture macros list end*
%ADD10C,1.700000*%
%ADD11C,4.000000*%
%ADD12C,2.200000*%
%ADD13RoundRect,0.152400X-1.063600X-0.609600X1.063600X-0.609600X1.063600X0.609600X-1.063600X0.609600X0*%
%ADD14C,1.524000*%
%ADD15RoundRect,0.152400X1.063600X0.609600X-1.063600X0.609600X-1.063600X-0.609600X1.063600X-0.609600X0*%
G04 APERTURE END LIST*
D10*
%TO.C,SW8*%
X130920000Y-97500000D03*
D11*
X136000000Y-97500000D03*
D10*
X141080000Y-97500000D03*
D12*
X138540000Y-92420000D03*
X132190000Y-94960000D03*
%TD*%
D10*
%TO.C,SW3*%
X149920000Y-59540000D03*
D11*
X155000000Y-59540000D03*
D10*
X160080000Y-59540000D03*
D12*
X157540000Y-54460000D03*
X151190000Y-57000000D03*
%TD*%
D10*
%TO.C,SW4*%
X111880000Y-78500000D03*
D11*
X116960000Y-78500000D03*
D10*
X122040000Y-78500000D03*
D12*
X119500000Y-73420000D03*
X113150000Y-75960000D03*
%TD*%
D10*
%TO.C,SW2*%
X130920000Y-59500000D03*
D11*
X136000000Y-59500000D03*
D10*
X141080000Y-59500000D03*
D12*
X138540000Y-54420000D03*
X132190000Y-56960000D03*
%TD*%
D10*
%TO.C,SW1*%
X111920000Y-59500000D03*
D11*
X117000000Y-59500000D03*
D10*
X122080000Y-59500000D03*
D12*
X119540000Y-54420000D03*
X113190000Y-56960000D03*
%TD*%
D10*
%TO.C,SW5*%
X130920000Y-78500000D03*
D11*
X136000000Y-78500000D03*
D10*
X141080000Y-78500000D03*
D12*
X138540000Y-73420000D03*
X132190000Y-75960000D03*
%TD*%
D10*
%TO.C,SW7*%
X111920000Y-97540000D03*
D11*
X117000000Y-97540000D03*
D10*
X122080000Y-97540000D03*
D12*
X119540000Y-92460000D03*
X113190000Y-95000000D03*
%TD*%
D10*
%TO.C,SW9*%
X149920000Y-97500000D03*
D11*
X155000000Y-97500000D03*
D10*
X160080000Y-97500000D03*
D12*
X157540000Y-92420000D03*
X151190000Y-94960000D03*
%TD*%
D10*
%TO.C,SW6*%
X149920000Y-78500000D03*
D11*
X155000000Y-78500000D03*
D10*
X160080000Y-78500000D03*
D12*
X157540000Y-73420000D03*
X151190000Y-75960000D03*
%TD*%
D13*
%TO.C,U1*%
X144575000Y-53000000D03*
D14*
X143740000Y-53000000D03*
D13*
X144575000Y-55540000D03*
D14*
X143740000Y-55540000D03*
D13*
X144575000Y-58080000D03*
D14*
X143740000Y-58080000D03*
D13*
X144575000Y-60620000D03*
D14*
X143740000Y-60620000D03*
D13*
X144575000Y-63160000D03*
D14*
X143740000Y-63160000D03*
D13*
X144575000Y-65700000D03*
D14*
X143740000Y-65700000D03*
D13*
X144575000Y-68240000D03*
D14*
X143740000Y-68240000D03*
X128500000Y-68240000D03*
D15*
X127665000Y-68240000D03*
D14*
X128500000Y-65700000D03*
D15*
X127665000Y-65700000D03*
D14*
X128500000Y-63160000D03*
D15*
X127665000Y-63160000D03*
D14*
X128500000Y-60620000D03*
D15*
X127665000Y-60620000D03*
D14*
X128500000Y-58080000D03*
D15*
X127665000Y-58080000D03*
D14*
X128500000Y-55540000D03*
D15*
X127665000Y-55540000D03*
D14*
X128500000Y-53000000D03*
D15*
X127665000Y-53000000D03*
%TD*%
M02*
