%TF.GenerationSoftware,KiCad,Pcbnew,8.0.6*%
%TF.CreationDate,2024-10-20T16:09:44+03:00*%
%TF.ProjectId,oakpad,6f616b70-6164-42e6-9b69-6361645f7063,rev?*%
%TF.SameCoordinates,Original*%
%TF.FileFunction,Soldermask,Bot*%
%TF.FilePolarity,Negative*%
%FSLAX46Y46*%
G04 Gerber Fmt 4.6, Leading zero omitted, Abs format (unit mm)*
G04 Created by KiCad (PCBNEW 8.0.6) date 2024-10-20 16:09:44*
%MOMM*%
%LPD*%
G01*
G04 APERTURE LIST*
%ADD10C,1.700000*%
%ADD11C,4.000000*%
%ADD12C,2.200000*%
%ADD13R,1.600000X1.600000*%
%ADD14O,1.600000X1.600000*%
%ADD15R,1.800000X1.800000*%
%ADD16C,1.800000*%
%ADD17C,1.400000*%
%ADD18O,1.400000X1.400000*%
%ADD19C,3.200000*%
%ADD20R,1.700000X1.700000*%
G04 APERTURE END LIST*
D10*
%TO.C,SW1*%
X17845000Y-41425000D03*
D11*
X22925000Y-41425000D03*
D10*
X28005000Y-41425000D03*
D12*
X25465000Y-36345000D03*
X19115000Y-38885000D03*
%TD*%
D13*
%TO.C,D4*%
X31310000Y-74250000D03*
D14*
X23690000Y-74250000D03*
%TD*%
D15*
%TO.C,D10*%
X48750000Y-20500000D03*
D16*
X48750000Y-17960000D03*
%TD*%
D10*
%TO.C,SW3*%
X56945000Y-41425000D03*
D11*
X62025000Y-41425000D03*
D10*
X67105000Y-41425000D03*
D12*
X64565000Y-36345000D03*
X58215000Y-38885000D03*
%TD*%
D10*
%TO.C,SW5*%
X37395000Y-60975000D03*
D11*
X42475000Y-60975000D03*
D10*
X47555000Y-60975000D03*
D12*
X45015000Y-55895000D03*
X38665000Y-58435000D03*
%TD*%
D13*
%TO.C,D1*%
X26730000Y-28500000D03*
D14*
X19110000Y-28500000D03*
%TD*%
D15*
%TO.C,D8*%
X33750000Y-20500000D03*
D16*
X33750000Y-17960000D03*
%TD*%
D10*
%TO.C,SW7*%
X79895000Y-60975000D03*
D11*
X84975000Y-60975000D03*
D10*
X90055000Y-60975000D03*
D12*
X87515000Y-55895000D03*
X81165000Y-58435000D03*
%TD*%
D13*
%TO.C,D2*%
X46310000Y-28500000D03*
D14*
X38690000Y-28500000D03*
%TD*%
D13*
%TO.C,D6*%
X65810000Y-74040000D03*
D14*
X58190000Y-74040000D03*
%TD*%
D17*
%TO.C,R1*%
X55840000Y-20500000D03*
D18*
X60920000Y-20500000D03*
%TD*%
D19*
%TO.C,H4*%
X96000000Y-76000000D03*
%TD*%
D13*
%TO.C,D3*%
X65730000Y-28500000D03*
D14*
X58110000Y-28500000D03*
%TD*%
D10*
%TO.C,SW2*%
X37395000Y-41425000D03*
D11*
X42475000Y-41425000D03*
D10*
X47555000Y-41425000D03*
D12*
X45015000Y-36345000D03*
X38665000Y-38885000D03*
%TD*%
D19*
%TO.C,H2*%
X96000000Y-16000000D03*
%TD*%
D15*
%TO.C,D7*%
X26250000Y-20500000D03*
D16*
X26250000Y-17960000D03*
%TD*%
D10*
%TO.C,SW4*%
X17845000Y-60975000D03*
D11*
X22925000Y-60975000D03*
D10*
X28005000Y-60975000D03*
D12*
X25465000Y-55895000D03*
X19115000Y-58435000D03*
%TD*%
D19*
%TO.C,H1*%
X16000000Y-16000000D03*
%TD*%
D20*
%TO.C,U1*%
X74770250Y-18092015D03*
D10*
X74770250Y-20632015D03*
X74770250Y-23172015D03*
X74770250Y-25712015D03*
X74770250Y-28252015D03*
X74770250Y-30792015D03*
X74770250Y-33332015D03*
X90020250Y-33332015D03*
X90020250Y-30792015D03*
X90020250Y-28252015D03*
X90020250Y-25712015D03*
X90020250Y-23172015D03*
X90020250Y-20632015D03*
X90020250Y-18092015D03*
%TD*%
%TO.C,SW6*%
X56945000Y-60975000D03*
D11*
X62025000Y-60975000D03*
D10*
X67105000Y-60975000D03*
D12*
X64565000Y-55895000D03*
X58215000Y-58435000D03*
%TD*%
D13*
%TO.C,D5*%
X46310000Y-73960000D03*
D14*
X38690000Y-73960000D03*
%TD*%
D19*
%TO.C,H3*%
X16000000Y-76000000D03*
%TD*%
D15*
%TO.C,D9*%
X41250000Y-20500000D03*
D16*
X41250000Y-17960000D03*
%TD*%
M02*
