M48
; DRILL file {KiCad 8.0.5} date 2024-10-22T00:01:18+0200
; FORMAT={-:-/ absolute / inch / decimal}
; #@! TF.CreationDate,2024-10-22T00:01:18+02:00
; #@! TF.GenerationSoftware,Kicad,Pcbnew,8.0.5
; #@! TF.FileFunction,Plated,1,2,PTH
FMAT,2
INCH
; #@! TA.AperFunction,Plated,PTH,ViaDrill
T1C0.0118
; #@! TA.AperFunction,Plated,PTH,ComponentDrill
T2C0.0315
; #@! TA.AperFunction,Plated,PTH,ComponentDrill
T3C0.0394
; #@! TA.AperFunction,Plated,PTH,ComponentDrill
T4C0.0591
%
G90
G05
T1
X4.5224Y-1.6709
X4.5665Y-1.3945
T2
X5.2852Y-1.8187
X5.2852Y-2.1187
X5.2852Y-2.5687
X5.2852Y-2.8687
X5.2852Y-3.3164
X5.2852Y-3.6164
X5.2969Y-4.0687
X5.2969Y-4.3687
X6.0234Y-2.5687
X6.0234Y-2.8687
X6.0352Y-1.8187
X6.0352Y-2.1187
X6.0352Y-3.3164
X6.0352Y-3.6164
X6.0352Y-4.0687
X6.0352Y-4.3687
X6.7852Y-1.8187
X6.7852Y-2.1187
X6.7852Y-2.5687
X6.7852Y-2.8687
X6.7852Y-3.3164
X6.7852Y-3.6164
X6.7852Y-4.0687
X6.7852Y-4.3687
X7.5469Y-1.8187
X7.5469Y-2.1187
X7.5469Y-2.5687
X7.5469Y-2.8687
X7.5469Y-3.3164
X7.5469Y-3.6164
X7.5469Y-4.0687
X7.5469Y-4.3687
T3
X5.6539Y-0.887
X5.6539Y-0.987
X5.6539Y-1.087
X5.6539Y-1.187
X5.6539Y-1.287
X5.6539Y-1.387
X5.6539Y-1.487
X6.2539Y-0.887
X6.2539Y-0.987
X6.2539Y-1.087
X6.2539Y-1.187
X6.2539Y-1.287
X6.2539Y-1.387
X6.2539Y-1.487
T4
X4.7658Y-1.9039
X4.7658Y-2.6539
X4.7658Y-3.4031
X4.7661Y-4.152
X5.0158Y-1.8039
X5.0158Y-2.5539
X5.0158Y-3.3031
X5.0161Y-4.052
X5.5154Y-1.9039
X5.5154Y-2.6539
X5.5154Y-3.4031
X5.5165Y-4.152
X5.7654Y-1.8039
X5.7654Y-2.5539
X5.7654Y-3.3031
X5.7665Y-4.052
X6.2657Y-1.9039
X6.2657Y-2.6539
X6.2657Y-3.4031
X6.2669Y-4.152
X6.5157Y-1.8039
X6.5157Y-2.5539
X6.5157Y-3.3031
X6.5169Y-4.052
X7.0181Y-4.152
X7.0195Y-1.9039
X7.0195Y-2.6539
X7.0195Y-3.4031
X7.2681Y-4.052
X7.2695Y-1.8039
X7.2695Y-2.5539
X7.2695Y-3.3031
M30
