<?xml version="1.0" standalone="no"?>
<!DOCTYPE svg PUBLIC "-//W3C//DTD SVG 1.1//EN"
  "http://www.w3.org/Graphics/SVG/1.1/DTD/svg11.dtd">
<svg width="107mm" height="106.99999999999997mm" viewBox="65 -32.99999999999999 107 106.99999999999997" xmlns="http://www.w3.org/2000/svg" version="1.1">
	<title>svgOutput</title>
	<desc>made with tinkercad</desc>
<path d="M 170.9340057373047 -19.79500007629394 L 170.98406982421875 -18.350000381469723 L 171 -18.350000381469723 L 171 59.34999847412108 L 170.98406982421875 59.34999847412108 L 171 59.810001373291 L 170.80099487304688 61.70700073242186 L 170.33999633789062 63.556999206542955 L 169.62600708007812 65.32399749755858 L 169.5037078857422 65.53600311279295 L 168.67300415039062 66.97599792480467 L 167.5 68.47799682617186 L 166.12899780273438 69.80300140380858 L 164.58799743652344 70.92299652099608 L 162.90499877929688 71.81800079345702 L 161.11500549316406 72.4710006713867 L 159.25100708007812 72.8669967651367 L 157.35000610351562 72.99999999999999 L 79.6500015258789 72.99999999999999 L 77.7490005493164 72.8669967651367 L 75.88500213623047 72.4710006713867 L 74.09500122070312 71.81800079345702 L 72.41200256347656 70.92299652099608 L 70.87100219726562 69.80300140380858 L 69.5 68.47799682617186 L 68.3270034790039 66.97599792480467 L 67.49629974365234 65.53600311279295 L 67.3740005493164 65.32399749755858 L 66.66000366210938 63.556999206542955 L 66.1989974975586 61.70700073242186 L 66 59.810001373291 L 66.01618194580078 59.34999847412108 L 66 59.34999847412108 L 66 -18.350000381469723 L 66.01618194580078 -18.350000381469723 L 66.06700134277344 -19.79500007629394 L 66.39700317382812 -21.673000335693356 L 66.98600006103516 -23.486000061035153 L 67.8219985961914 -25.200000762939446 L 68.88700103759766 -26.781000137329094 L 70.16200256347656 -28.197999954223626 L 71.62200164794922 -29.423000335693352 L 73.23799896240234 -30.434000015258782 L 74.97899627685547 -31.208999633789055 L 76.80999755859375 -31.735000610351555 L 78.6969985961914 -31.999999999999993 L 79.6500015258789 -31.999999999999993 L 157.35000610351562 -31.999999999999993 L 158.30299377441406 -31.999999999999993 L 160.19000244140625 -31.735000610351555 L 162.02099609375 -31.208999633789055 L 163.76199340820312 -30.434000015258782 L 163.83999633789062 -30.385202407836907 L 165.3780059814453 -29.423000335693352 L 166.83799743652344 -28.197999954223626 L 168.11300659179688 -26.781000137329094 L 169.17799377441406 -25.200000762939446 L 170.01400756835938 -23.486000061035153 L 170.60299682617188 -21.673000335693356 L 170.9340057373047 -19.79500007629394 z" fill="none" stroke="rgb(255,0,0)" stroke-width="0.001mm" />
</svg>