<?xml version="1.0" standalone="no"?>
<!DOCTYPE svg PUBLIC "-//W3C//DTD SVG 1.1//EN"
  "http://www.w3.org/Graphics/SVG/1.1/DTD/svg11.dtd">
<svg width="106mm" height="106.00000190734862mm" viewBox="-13 -94.02500152587889 106 106.00000190734862" xmlns="http://www.w3.org/2000/svg" version="1.1">
	<title>svgOutput</title>
	<desc>made with tinkercad</desc>
<path d="M 91.60600280761719 -82.79599761962889 L 91.7604751586914 -81.9199981689453 L 91.93399810791016 -80.93599700927733 L 91.98405456542969 -79.50499725341795 L 92 -79.50499725341795 L 92 -79.0490036010742 L 92 -77.96115875244139 L 92 -76.95773315429686 L 92 -75.94423675537108 L 92 -74.90367126464842 L 92 -73.81603240966795 L 92 -72.65863800048827 L 92 -71.42132568359374 L 92 -70.07639312744139 L 92 -68.58812713623045 L 92 -65.98500061035155 L 92 -16.065000534057614 L 92 -2.545000076293945 L 91.98405456542969 -2.545000076293945 L 92 -2.088999986648559 L 91.8030014038086 -0.21099999547004683 L 91.75039672851562 1.1102230246251565e-16 L 91.34600067138672 1.6219999790191646 L 90.63899993896484 3.372999906539916 L 89.69499969482422 5.007999897003173 L 88.53299713134766 6.495999813079832 L 87.1760025024414 7.808000087738035 L 85.64900207519531 8.91800022125244 L 83.98200225830078 9.80500030517578 L 82.20899963378906 10.451000213623045 L 81.91999816894531 10.512369155883787 L 80.36299896240234 10.843000411987303 L 78.4800033569336 10.975000381469725 L 77.21861267089844 10.975000381469725 L 76.18916320800781 10.975000381469725 L 75.17686462402344 10.975000381469725 L 74.14076232910156 10.975000381469725 L 73.05962371826172 10.975000381469725 L 71.92471313476562 10.975000381469725 L 70.71016693115234 10.975000381469725 L 69.39045715332031 10.975000381469725 L 67.94586944580078 10.975000381469725 L 65.53600311279297 10.975000381469725 L 64.95999908447266 10.975000381469725 L 15.039999961853027 10.975000381469725 L 1.5199999809265137 10.975000381469725 L 0 10.868446350097654 L -0.3630000054836273 10.843000411987303 L -2.2090001106262207 10.451000213623045 L -3.9820001125335693 9.80500030517578 L -5.64900016784668 8.91800022125244 L -7.176000118255615 7.808000087738035 L -8.532999992370605 6.495999813079832 L -9.694999694824219 5.007999897003173 L -10.638999938964844 3.372999906539916 L -11.345999717712402 1.6219999790191646 L -11.750393867492676 1.1102230246251565e-16 L -11.803000450134277 -0.21099999547004683 L -12 -2.088999986648559 L -11.984050750732422 -2.545000076293945 L -12 -2.545000076293945 L -12 -3.601731777191161 L -12 -4.622236728668212 L -12 -5.626019477844237 L -12 -6.656458377838133 L -12 -7.713193416595457 L -12 -8.838344573974608 L -12 -10.035173416137694 L -12 -11.315226554870604 L -12 -12.732738494873043 L -12 -14.295343399047848 L -12 -16.065000534057614 L -12 -65.98500061035155 L -12 -79.0490036010742 L -12 -79.50499725341795 L -11.984050750732422 -79.50499725341795 L -11.934000015258789 -80.93599700927733 L -11.760477066040039 -81.9199981689453 L -11.605999946594238 -82.79599761962889 L -11.02299976348877 -84.59200286865233 L -10.196000099182129 -86.29000091552733 L -9.140000343322754 -87.85500335693358 L -7.877999782562256 -89.25900268554686 L -6.432000160217285 -90.47299957275389 L -4.830999851226807 -91.47299957275389 L -3.1070001125335693 -92.2419967651367 L -1.2929999828338623 -92.76200103759764 L 0 -92.94394683837889 L 0.5759999752044678 -93.02500152587889 L 1.5199999809265137 -93.02500152587889 L 2.4639999866485596 -93.02500152587889 L 3.415534496307373 -93.02500152587889 L 4.391613960266113 -93.02500152587889 L 5.3862481117248535 -93.02500152587889 L 6.432302951812744 -93.02500152587889 L 7.532891750335693 -93.02500152587889 L 8.691489219665527 -93.02500152587889 L 9.955761909484863 -93.02500152587889 L 11.3255615234375 -93.02500152587889 L 12.84217643737793 -93.02500152587889 L 15.039999961853027 -93.02500152587889 L 24.99799919128418 -93.02500152587889 L 64.95999908447266 -93.02500152587889 L 65.53600311279297 -93.02500152587889 L 77.53600311279297 -93.02500152587889 L 78.4800033569336 -93.02500152587889 L 79.42400360107422 -93.02500152587889 L 81.29299926757812 -92.76200103759764 L 81.91999816894531 -92.58226776123045 L 83.10700225830078 -92.2419967651367 L 84.83100128173828 -91.47299957275389 L 86.00299835205078 -90.74095916748045 L 86.43199920654297 -90.47299957275389 L 87.87799835205078 -89.25900268554686 L 89.13999938964844 -87.85500335693358 L 90.19599914550781 -86.29000091552733 L 91.02300262451172 -84.59200286865233 L 91.60600280761719 -82.79599761962889 M 86.00299835205078 -13.873169898986813 L 86.00299835205078 -14.38497447967529 L 86.00299835205078 -15.544057846069332 L 86.00299835205078 -16.065000534057614 L 86.00299835205078 -65.98500061035155 L 86.00299835205078 -67.31465911865233 L 86.00299835205078 -67.89135742187499 L 86.00299835205078 -68.23036193847655 L 86.00299835205078 -68.29933166503905 L 86.00299835205078 -81.9199981689453 L 86.00299835205078 -84.02700042724608 L 81.91999816894531 -84.02700042724608 L 78.4800033569336 -84.02700042724608 L 65.75359344482422 -84.02700042724608 L 65.66181945800781 -84.02700042724608 L 65.53600311279297 -84.02700042724608 L 64.95999908447266 -84.02700042724608 L 24.99799919128418 -84.02700042724608 L 24.99799919128418 -79.50499725341795 L 24.99799919128418 -4.021999835968017 L 78.4800033569336 -4.021999835968017 L 81.91999816894531 -4.021999835968017 L 86.00299835205078 -4.021999835968017 L 86.00299835205078 -13.78095722198486 L 86.00299835205078 -13.873169898986813 M 0.2704220414161682 -16.021999359130856 L 1.5199999809265137 -16.021999359130856 L 20.003000259399414 -16.021999359130856 L 20.003000259399414 -33.02700042724609 L 1.5199999809265137 -33.02700042724609 L -6.002999782562256 -33.02700042724609 L -6.002999782562256 -16.065000534057614 L -6.002999782562256 -16.021999359130856 L 0 -16.021999359130856 L 0.2704220414161682 -16.021999359130856 z" fill="none" stroke="rgb(255,0,0)" stroke-width="0.1mm" />
</svg>
