0
SECTION
2
HEADER
9
$INSUNITS
70
4
9
$ACADVER
1
AC1014
9
$HANDSEED
5
FFFF
0
ENDSEC
0
SECTION
2
TABLES
0
TABLE
2
VPORT
5
8
100
AcDbSymbolTable
0
ENDTAB
0
TABLE
2
LTYPE
5
5
100
AcDbSymbolTable
0
LTYPE
5
14
100
AcDbSymbolTableRecord
100
AcDbLinetypeTableRecord
2
BYBLOCK
70
0
0
LTYPE
5
15
100
AcDbSymbolTableRecord
100
AcDbLinetypeTableRecord
2
BYLAYER
70
0
0
ENDTAB
0
TABLE
2
LAYER
5
2
100
AcDbSymbolTable
70
2
0
LAYER
5
50
100
AcDbSymbolTableRecord
100
AcDbLayerTableRecord
2
0
70
0
6
CONTINUOUS
0
ENDTAB
0
TABLE
2
STYLE
5
3
100
AcDbSymbolTable
70
1
0
STYLE
5
11
100
AcDbSymbolTableRecord
100
AcDbTextStyleTableRecord
2
STANDARD
70
0
0
ENDTAB
0
TABLE
2
VIEW
5
6
100
AcDbSymbolTable
70
0
0
ENDTAB
0
TABLE
2
UCS
5
7
100
AcDbSymbolTable
70
0
0
ENDTAB
0
TABLE
2
APPID
5
9
100
AcDbSymbolTable
70
2
0
APPID
5
12
100
AcDbSymbolTableRecord
100
AcDbRegAppTableRecord
2
ACAD
70
0
0
ENDTAB
0
TABLE
2
DIMSTYLE
5
A
100
AcDbSymbolTable
70
1
0
ENDTAB
0
TABLE
2
BLOCK_RECORD
5
1
100
AcDbSymbolTable
70
1
0
BLOCK_RECORD
5
1F
100
AcDbSymbolTableRecord
100
AcDbBlockTableRecord
2
*MODEL_SPACE
0
BLOCK_RECORD
5
1B
100
AcDbSymbolTableRecord
100
AcDbBlockTableRecord
2
*PAPER_SPACE
0
ENDTAB
0
ENDSEC
0
SECTION
2
BLOCKS
0
BLOCK
5
20
100
AcDbEntity
100
AcDbBlockBegin
2
*MODEL_SPACE
0
ENDBLK
5
21
100
AcDbEntity
100
AcDbBlockEnd
0
BLOCK
5
1C
100
AcDbEntity
100
AcDbBlockBegin
2
*PAPER_SPACE
0
ENDBLK
5
1D
100
AcDbEntity
100
AcDbBlockEnd
0
ENDSEC
0
SECTION
2
ENTITIES
0
LWPOLYLINE
5
100
100
AcDbEntity
8
0
100
AcDbPolyline
90
8
70
1
43
0.0
10
-136.22408245658903
20
54.370002819923684
42
0.41421356237309448
10
-131.22408245658903
20
49.370002819923691
10
-78.340003958437592
20
49.370002819923684
42
0.41421356237309509
10
-73.340003958437592
20
54.370002819923684
10
-73.340003958437592
20
131.22702623463195
42
0.41421356237309448
10
-78.340003958437592
20
136.22702623463195
10
-131.22408245658903
20
136.22702623463195
42
0.41421356237309298
10
-136.22408245658903
20
131.22702623463195
0
LWPOLYLINE
5
101
100
AcDbEntity
8
0
100
AcDbPolyline
90
8
70
1
43
0.0
10
-108.07499999999999
20
88.524999999999991
10
-121.075
20
88.524999999999991
42
-0.41421356237307427
10
-121.575
20
89.025000000000006
10
-121.57499999999997
20
102.02500000000001
42
-0.41421356237312629
10
-121.075
20
102.52499999999999
10
-108.07499999999999
20
102.52500000000001
42
-0.41421356237312629
10
-107.575
20
102.02500000000001
10
-107.57499999999999
20
89.025000000000006
42
-0.41421356237307427
0
LWPOLYLINE
5
102
100
AcDbEntity
8
0
100
AcDbPolyline
90
8
70
1
43
0.0
10
-89.025000000000006
20
107.575
10
-102.02500000000001
20
107.57500000000002
42
-0.41421356237312629
10
-102.52499999999999
20
108.07499999999999
10
-102.52500000000001
20
121.075
42
-0.41421356237307427
10
-102.02500000000001
20
121.575
10
-89.025000000000006
20
121.575
42
-0.41421356237307427
10
-88.524999999999991
20
121.075
10
-88.524999999999991
20
108.07499999999999
42
-0.41421356237312629
0
LWPOLYLINE
5
103
100
AcDbEntity
8
0
100
AcDbPolyline
90
8
70
1
43
0.0
10
-89.025000000000006
20
88.524999999999991
10
-102.02500000000001
20
88.525000000000006
42
-0.41421356237313667
10
-102.52499999999999
20
89.025000000000006
10
-102.52499999999999
20
102.02500000000001
42
-0.41421356237313667
10
-102.02500000000001
20
102.52499999999999
10
-89.025000000000006
20
102.52500000000001
42
-0.41421356237309509
10
-88.524999999999991
20
102.02500000000001
10
-88.524999999999991
20
89.025000000000006
42
-0.41421356237309509
0
LWPOLYLINE
5
104
100
AcDbEntity
8
0
100
AcDbPolyline
90
8
70
1
43
0.0
10
-108.07499999999999
20
107.575
10
-121.075
20
107.57499999999999
42
-0.4142135623730534
10
-121.575
20
108.07499999999999
10
-121.575
20
121.075
42
-0.4142135623730534
10
-121.075
20
121.575
10
-108.07499999999999
20
121.57499999999999
42
-0.41421356237309509
10
-107.575
20
121.075
10
-107.575
20
108.07499999999999
42
-0.41421356237309509
0
CIRCLE
5
105
100
AcDbEntity
8
0
100
AcDbCircle
10
-78.340003958437592
20
54.370002819923684
30
0
40
2.3499999999999943
210
0
220
0
230
1
0
CIRCLE
5
106
100
AcDbEntity
8
0
100
AcDbCircle
10
-78.340003958437606
20
131.22702623463195
30
0
40
2.3499999999999943
210
0
220
0
230
1
0
CIRCLE
5
107
100
AcDbEntity
8
0
100
AcDbCircle
10
-131.22408245658903
20
54.370002819923691
30
0
40
2.3499999999999943
210
0
220
0
230
1
0
CIRCLE
5
108
100
AcDbEntity
8
0
100
AcDbCircle
10
-131.224082456589
20
131.22702623463192
30
0
40
2.3499999999999943
210
0
220
0
230
1
0
ENDSEC
0
SECTION
2
OBJECTS
0
DICTIONARY
5
C
100
AcDbDictionary
3
ACAD_GROUP
350
D
3
ACAD_MLINESTYLE
350
17
0
DICTIONARY
5
D
100
AcDbDictionary
0
DICTIONARY
5
1A
330
C
100
AcDbDictionary
0
DICTIONARY
5
17
100
AcDbDictionary
0
ENDSEC
0
EOF
