%TF.GenerationSoftware,KiCad,Pcbnew,8.0.5*%
%TF.CreationDate,2024-10-05T22:17:55+10:00*%
%TF.ProjectId,TetrisKeyboard,54657472-6973-44b6-9579-626f6172642e,rev?*%
%TF.SameCoordinates,Original*%
%TF.FileFunction,Soldermask,Bot*%
%TF.FilePolarity,Negative*%
%FSLAX46Y46*%
G04 Gerber Fmt 4.6, Leading zero omitted, Abs format (unit mm)*
G04 Created by KiCad (PCBNEW 8.0.5) date 2024-10-05 22:17:55*
%MOMM*%
%LPD*%
G01*
G04 APERTURE LIST*
G04 Aperture macros list*
%AMRoundRect*
0 Rectangle with rounded corners*
0 $1 Rounding radius*
0 $2 $3 $4 $5 $6 $7 $8 $9 X,Y pos of 4 corners*
0 Add a 4 corners polygon primitive as box body*
4,1,4,$2,$3,$4,$5,$6,$7,$8,$9,$2,$3,0*
0 Add four circle primitives for the rounded corners*
1,1,$1+$1,$2,$3*
1,1,$1+$1,$4,$5*
1,1,$1+$1,$6,$7*
1,1,$1+$1,$8,$9*
0 Add four rect primitives between the rounded corners*
20,1,$1+$1,$2,$3,$4,$5,0*
20,1,$1+$1,$4,$5,$6,$7,0*
20,1,$1+$1,$6,$7,$8,$9,0*
20,1,$1+$1,$8,$9,$2,$3,0*%
G04 Aperture macros list end*
%ADD10C,2.100000*%
%ADD11C,1.700000*%
%ADD12C,3.000000*%
%ADD13C,4.000000*%
%ADD14R,2.550000X2.500000*%
%ADD15RoundRect,0.225000X-0.225000X-0.375000X0.225000X-0.375000X0.225000X0.375000X-0.225000X0.375000X0*%
G04 APERTURE END LIST*
D10*
%TO.C,2.1mm*%
X22000000Y-128400000D03*
%TD*%
D11*
%TO.C,SW9*%
X49320000Y-91600000D03*
D12*
X50590000Y-89060000D03*
D13*
X54400000Y-91600000D03*
D12*
X56940000Y-86520000D03*
D11*
X59480000Y-91600000D03*
D14*
X46990000Y-89060000D03*
X60415000Y-86520000D03*
%TD*%
D10*
%TO.C,2.1mm*%
X115200000Y-128400000D03*
%TD*%
D11*
%TO.C,SW6*%
X81120000Y-121200000D03*
D12*
X82390000Y-118660000D03*
D13*
X86200000Y-121200000D03*
D12*
X88740000Y-116120000D03*
D11*
X91280000Y-121200000D03*
D14*
X78790000Y-118660000D03*
X92215000Y-116120000D03*
%TD*%
D11*
%TO.C,SW1*%
X58720000Y-65280000D03*
D12*
X59990000Y-62740000D03*
D13*
X63800000Y-65280000D03*
D12*
X66340000Y-60200000D03*
D11*
X68880000Y-65280000D03*
D14*
X56390000Y-62740000D03*
X69815000Y-60200000D03*
%TD*%
D10*
%TO.C,2.1mm*%
X115200000Y-35200000D03*
%TD*%
D11*
%TO.C,SW4*%
X72920000Y-45800000D03*
D12*
X74190000Y-43260000D03*
D13*
X78000000Y-45800000D03*
D12*
X80540000Y-40720000D03*
D11*
X83080000Y-45800000D03*
D14*
X70590000Y-43260000D03*
X84015000Y-40720000D03*
%TD*%
D11*
%TO.C,SW5*%
X92320000Y-45800000D03*
D12*
X93590000Y-43260000D03*
D13*
X97400000Y-45800000D03*
D12*
X99940000Y-40720000D03*
D11*
X102480000Y-45800000D03*
D14*
X89990000Y-43260000D03*
X103415000Y-40720000D03*
%TD*%
D11*
%TO.C,SW10*%
X29920000Y-91600000D03*
D12*
X31190000Y-89060000D03*
D13*
X35000000Y-91600000D03*
D12*
X37540000Y-86520000D03*
D11*
X40080000Y-91600000D03*
D14*
X27590000Y-89060000D03*
X41015000Y-86520000D03*
%TD*%
D11*
%TO.C,SW7*%
X88520000Y-99800000D03*
D12*
X89790000Y-97260000D03*
D13*
X93600000Y-99800000D03*
D12*
X96140000Y-94720000D03*
D11*
X98680000Y-99800000D03*
D14*
X86190000Y-97260000D03*
X99615000Y-94720000D03*
%TD*%
D11*
%TO.C,SW3*%
X97530000Y-65280000D03*
D12*
X98800000Y-62740000D03*
D13*
X102610000Y-65280000D03*
D12*
X105150000Y-60200000D03*
D11*
X107690000Y-65280000D03*
D14*
X95200000Y-62740000D03*
X108625000Y-60200000D03*
%TD*%
D10*
%TO.C,2.1mm*%
X22000000Y-84200000D03*
%TD*%
%TO.C,2.1mm*%
X22000000Y-35200000D03*
%TD*%
D11*
%TO.C,SW8*%
X68720000Y-91600000D03*
D12*
X69990000Y-89060000D03*
D13*
X73800000Y-91600000D03*
D12*
X76340000Y-86520000D03*
D11*
X78880000Y-91600000D03*
D14*
X66390000Y-89060000D03*
X79815000Y-86520000D03*
%TD*%
D10*
%TO.C,REF\u002A\u002A*%
X115200000Y-84200000D03*
%TD*%
D11*
%TO.C,SW2*%
X78120000Y-65280000D03*
D12*
X79390000Y-62740000D03*
D13*
X83200000Y-65280000D03*
D12*
X85740000Y-60200000D03*
D11*
X88280000Y-65280000D03*
D14*
X75790000Y-62740000D03*
X89215000Y-60200000D03*
%TD*%
D10*
%TO.C,REF\u002A\u002A*%
X115200000Y-75400000D03*
%TD*%
%TO.C,2.1mm*%
X22000000Y-75400000D03*
%TD*%
D15*
%TO.C,D4*%
X56350000Y-42000000D03*
X59650000Y-42000000D03*
%TD*%
%TO.C,D5*%
X56350000Y-47800000D03*
X59650000Y-47800000D03*
%TD*%
%TO.C,D1*%
X46750000Y-60400000D03*
X50050000Y-60400000D03*
%TD*%
%TO.C,D2*%
X46750000Y-66200000D03*
X50050000Y-66200000D03*
%TD*%
%TO.C,D3*%
X46950000Y-72000000D03*
X50250000Y-72000000D03*
%TD*%
M02*
