%TF.GenerationSoftware,KiCad,Pcbnew,8.0.5*%
%TF.CreationDate,2024-10-21T22:29:04+11:00*%
%TF.ProjectId,TetrisKeyboard,54657472-6973-44b6-9579-626f6172642e,rev?*%
%TF.SameCoordinates,Original*%
%TF.FileFunction,Paste,Bot*%
%TF.FilePolarity,Positive*%
%FSLAX46Y46*%
G04 Gerber Fmt 4.6, Leading zero omitted, Abs format (unit mm)*
G04 Created by KiCad (PCBNEW 8.0.5) date 2024-10-21 22:29:04*
%MOMM*%
%LPD*%
G01*
G04 APERTURE LIST*
G04 Aperture macros list*
%AMRoundRect*
0 Rectangle with rounded corners*
0 $1 Rounding radius*
0 $2 $3 $4 $5 $6 $7 $8 $9 X,Y pos of 4 corners*
0 Add a 4 corners polygon primitive as box body*
4,1,4,$2,$3,$4,$5,$6,$7,$8,$9,$2,$3,0*
0 Add four circle primitives for the rounded corners*
1,1,$1+$1,$2,$3*
1,1,$1+$1,$4,$5*
1,1,$1+$1,$6,$7*
1,1,$1+$1,$8,$9*
0 Add four rect primitives between the rounded corners*
20,1,$1+$1,$2,$3,$4,$5,0*
20,1,$1+$1,$4,$5,$6,$7,0*
20,1,$1+$1,$6,$7,$8,$9,0*
20,1,$1+$1,$8,$9,$2,$3,0*%
G04 Aperture macros list end*
%ADD10R,2.550000X2.500000*%
%ADD11RoundRect,0.175000X0.425000X-0.175000X0.425000X0.175000X-0.425000X0.175000X-0.425000X-0.175000X0*%
%ADD12RoundRect,0.190000X-0.410000X0.190000X-0.410000X-0.190000X0.410000X-0.190000X0.410000X0.190000X0*%
%ADD13RoundRect,0.200000X-0.400000X0.200000X-0.400000X-0.200000X0.400000X-0.200000X0.400000X0.200000X0*%
%ADD14RoundRect,0.175000X-0.425000X0.175000X-0.425000X-0.175000X0.425000X-0.175000X0.425000X0.175000X0*%
%ADD15RoundRect,0.190000X0.410000X-0.190000X0.410000X0.190000X-0.410000X0.190000X-0.410000X-0.190000X0*%
%ADD16RoundRect,0.200000X0.400000X-0.200000X0.400000X0.200000X-0.400000X0.200000X-0.400000X-0.200000X0*%
%ADD17RoundRect,0.250000X0.500000X-0.650000X0.500000X0.650000X-0.500000X0.650000X-0.500000X-0.650000X0*%
%ADD18RoundRect,0.250000X0.425000X-0.650000X0.425000X0.650000X-0.425000X0.650000X-0.425000X-0.650000X0*%
%ADD19RoundRect,0.225000X0.375000X-0.225000X0.375000X0.225000X-0.375000X0.225000X-0.375000X-0.225000X0*%
%ADD20RoundRect,0.225000X-0.225000X-0.375000X0.225000X-0.375000X0.225000X0.375000X-0.225000X0.375000X0*%
%ADD21RoundRect,0.250000X-0.500000X0.650000X-0.500000X-0.650000X0.500000X-0.650000X0.500000X0.650000X0*%
%ADD22RoundRect,0.250000X-0.425000X0.650000X-0.425000X-0.650000X0.425000X-0.650000X0.425000X0.650000X0*%
%ADD23RoundRect,0.500000X0.875000X0.500000X-0.875000X0.500000X-0.875000X-0.500000X0.875000X-0.500000X0*%
G04 APERTURE END LIST*
D10*
%TO.C,SW9*%
X46990000Y-89060000D03*
X60415000Y-86520000D03*
%TD*%
%TO.C,SW6*%
X78790000Y-118660000D03*
X92215000Y-116120000D03*
%TD*%
%TO.C,SW1*%
X56390000Y-62740000D03*
X69815000Y-60200000D03*
%TD*%
%TO.C,SW4*%
X70590000Y-43260000D03*
X84015000Y-40720000D03*
%TD*%
%TO.C,SW5*%
X89990000Y-43260000D03*
X103415000Y-40720000D03*
%TD*%
%TO.C,SW10*%
X27590000Y-89060000D03*
X41015000Y-86520000D03*
%TD*%
%TO.C,SW7*%
X86190000Y-97260000D03*
X99615000Y-94720000D03*
%TD*%
%TO.C,SW3*%
X95200000Y-62740000D03*
X108625000Y-60200000D03*
%TD*%
%TO.C,SW8*%
X66390000Y-89060000D03*
X79815000Y-86520000D03*
%TD*%
%TO.C,SW2*%
X75790000Y-62740000D03*
X89215000Y-60200000D03*
%TD*%
D11*
%TO.C,USB_C*%
X25132500Y-66700000D03*
D12*
X25132500Y-64680000D03*
D13*
X25132500Y-63450000D03*
D14*
X25132500Y-65700000D03*
D15*
X25132500Y-67720000D03*
D16*
X25132500Y-68950000D03*
D17*
X21497500Y-71325000D03*
D18*
X25077500Y-71325000D03*
D17*
X21497500Y-61075000D03*
D18*
X25077500Y-61075000D03*
%TD*%
D19*
%TO.C,D8*%
X68700000Y-108350000D03*
X68700000Y-105050000D03*
%TD*%
%TO.C,D7*%
X62900000Y-108350000D03*
X62900000Y-105050000D03*
%TD*%
D20*
%TO.C,D4*%
X56350000Y-42000000D03*
X59650000Y-42000000D03*
%TD*%
%TO.C,D10*%
X97850000Y-122100000D03*
X101150000Y-122100000D03*
%TD*%
D19*
%TO.C,D9*%
X57200000Y-108350000D03*
X57200000Y-105050000D03*
%TD*%
D14*
%TO.C,USB_C*%
X112067500Y-118800000D03*
D15*
X112067500Y-120820000D03*
D16*
X112067500Y-122050000D03*
D11*
X112067500Y-119800000D03*
D12*
X112067500Y-117780000D03*
D13*
X112067500Y-116550000D03*
D21*
X115702500Y-114175000D03*
D22*
X112122500Y-114175000D03*
D21*
X115702500Y-124425000D03*
D22*
X112122500Y-124425000D03*
%TD*%
D19*
%TO.C,D6*%
X74300000Y-108250000D03*
X74300000Y-104950000D03*
%TD*%
D20*
%TO.C,D5*%
X56350000Y-47800000D03*
X59650000Y-47800000D03*
%TD*%
%TO.C,D1*%
X46750000Y-60400000D03*
X50050000Y-60400000D03*
%TD*%
D23*
%TO.C,Seed XIAO RP2040*%
X42582500Y-35785000D03*
X42582500Y-38325000D03*
X42582500Y-40865000D03*
X42582500Y-43405000D03*
X42582500Y-45945000D03*
X42582500Y-48485000D03*
X42582500Y-51025000D03*
X26417500Y-51025000D03*
X26417500Y-48485000D03*
X26417500Y-45945000D03*
X26417500Y-43405000D03*
X26417500Y-40865000D03*
X26417500Y-38325000D03*
X26417500Y-35785000D03*
%TD*%
D20*
%TO.C,D2*%
X46750000Y-66200000D03*
X50050000Y-66200000D03*
%TD*%
%TO.C,D3*%
X46950000Y-72000000D03*
X50250000Y-72000000D03*
%TD*%
M02*
