%TF.GenerationSoftware,KiCad,Pcbnew,8.0.5*%
%TF.CreationDate,2024-10-05T22:17:55+10:00*%
%TF.ProjectId,TetrisKeyboard,54657472-6973-44b6-9579-626f6172642e,rev?*%
%TF.SameCoordinates,Original*%
%TF.FileFunction,Paste,Top*%
%TF.FilePolarity,Positive*%
%FSLAX46Y46*%
G04 Gerber Fmt 4.6, Leading zero omitted, Abs format (unit mm)*
G04 Created by KiCad (PCBNEW 8.0.5) date 2024-10-05 22:17:55*
%MOMM*%
%LPD*%
G01*
G04 APERTURE LIST*
G04 Aperture macros list*
%AMRoundRect*
0 Rectangle with rounded corners*
0 $1 Rounding radius*
0 $2 $3 $4 $5 $6 $7 $8 $9 X,Y pos of 4 corners*
0 Add a 4 corners polygon primitive as box body*
4,1,4,$2,$3,$4,$5,$6,$7,$8,$9,$2,$3,0*
0 Add four circle primitives for the rounded corners*
1,1,$1+$1,$2,$3*
1,1,$1+$1,$4,$5*
1,1,$1+$1,$6,$7*
1,1,$1+$1,$8,$9*
0 Add four rect primitives between the rounded corners*
20,1,$1+$1,$2,$3,$4,$5,0*
20,1,$1+$1,$4,$5,$6,$7,0*
20,1,$1+$1,$6,$7,$8,$9,0*
20,1,$1+$1,$8,$9,$2,$3,0*%
G04 Aperture macros list end*
%ADD10RoundRect,0.175000X-0.425000X0.175000X-0.425000X-0.175000X0.425000X-0.175000X0.425000X0.175000X0*%
%ADD11RoundRect,0.190000X0.410000X-0.190000X0.410000X0.190000X-0.410000X0.190000X-0.410000X-0.190000X0*%
%ADD12RoundRect,0.200000X0.400000X-0.200000X0.400000X0.200000X-0.400000X0.200000X-0.400000X-0.200000X0*%
%ADD13RoundRect,0.175000X0.425000X-0.175000X0.425000X0.175000X-0.425000X0.175000X-0.425000X-0.175000X0*%
%ADD14RoundRect,0.190000X-0.410000X0.190000X-0.410000X-0.190000X0.410000X-0.190000X0.410000X0.190000X0*%
%ADD15RoundRect,0.200000X-0.400000X0.200000X-0.400000X-0.200000X0.400000X-0.200000X0.400000X0.200000X0*%
%ADD16RoundRect,0.250000X-0.425000X0.650000X-0.425000X-0.650000X0.425000X-0.650000X0.425000X0.650000X0*%
%ADD17RoundRect,0.250000X-0.500000X0.650000X-0.500000X-0.650000X0.500000X-0.650000X0.500000X0.650000X0*%
%ADD18RoundRect,0.225000X0.375000X-0.225000X0.375000X0.225000X-0.375000X0.225000X-0.375000X-0.225000X0*%
%ADD19RoundRect,0.225000X0.225000X0.375000X-0.225000X0.375000X-0.225000X-0.375000X0.225000X-0.375000X0*%
%ADD20RoundRect,0.250000X0.425000X-0.650000X0.425000X0.650000X-0.425000X0.650000X-0.425000X-0.650000X0*%
%ADD21RoundRect,0.250000X0.500000X-0.650000X0.500000X0.650000X-0.500000X0.650000X-0.500000X-0.650000X0*%
%ADD22RoundRect,0.500000X0.500000X-0.875000X0.500000X0.875000X-0.500000X0.875000X-0.500000X-0.875000X0*%
G04 APERTURE END LIST*
D10*
%TO.C,USB_C*%
X28232500Y-65700000D03*
D11*
X28232500Y-67720000D03*
D12*
X28232500Y-68950000D03*
D13*
X28232500Y-66700000D03*
D14*
X28232500Y-64680000D03*
D15*
X28232500Y-63450000D03*
D16*
X28177500Y-61075000D03*
D17*
X24597500Y-61075000D03*
D16*
X28177500Y-71325000D03*
D17*
X24597500Y-71325000D03*
%TD*%
D18*
%TO.C,D8*%
X68700000Y-108350000D03*
X68700000Y-105050000D03*
%TD*%
%TO.C,D7*%
X62900000Y-108350000D03*
X62900000Y-105050000D03*
%TD*%
D19*
%TO.C,D10*%
X101150000Y-121800000D03*
X97850000Y-121800000D03*
%TD*%
D18*
%TO.C,D9*%
X57200000Y-108350000D03*
X57200000Y-105050000D03*
%TD*%
D13*
%TO.C,USB_C*%
X109017500Y-119700000D03*
D14*
X109017500Y-117680000D03*
D15*
X109017500Y-116450000D03*
D10*
X109017500Y-118700000D03*
D11*
X109017500Y-120720000D03*
D12*
X109017500Y-121950000D03*
D20*
X109072500Y-124325000D03*
D21*
X112652500Y-124325000D03*
D20*
X109072500Y-114075000D03*
D21*
X112652500Y-114075000D03*
%TD*%
D18*
%TO.C,D6*%
X74300000Y-108250000D03*
X74300000Y-104950000D03*
%TD*%
D22*
%TO.C,Seed XIAO RP2040*%
X26780000Y-53965000D03*
X29320000Y-53965000D03*
X31860000Y-53965000D03*
X34400000Y-53965000D03*
X36940000Y-53965000D03*
X39480000Y-53965000D03*
X42020000Y-53965000D03*
X42020000Y-37800000D03*
X39480000Y-37800000D03*
X36940000Y-37800000D03*
X34400000Y-37800000D03*
X31860000Y-37800000D03*
X29320000Y-37800000D03*
X26780000Y-37800000D03*
%TD*%
M02*
