%TF.GenerationSoftware,KiCad,Pcbnew,8.0.5*%
%TF.CreationDate,2024-10-21T22:27:20+11:00*%
%TF.ProjectId,TetrisKeyboard,54657472-6973-44b6-9579-626f6172642e,rev?*%
%TF.SameCoordinates,Original*%
%TF.FileFunction,Drillmap*%
%TF.FilePolarity,Positive*%
%FSLAX45Y45*%
G04 Gerber Fmt 4.5, Leading zero omitted, Abs format (unit mm)*
G04 Created by KiCad (PCBNEW 8.0.5) date 2024-10-21 22:27:20*
%MOMM*%
%LPD*%
G01*
G04 APERTURE LIST*
%ADD10C,0.050000*%
%ADD11C,0.200000*%
%ADD12C,0.170000*%
%ADD13C,0.210000*%
%ADD14C,0.300000*%
%ADD15C,0.400000*%
G04 APERTURE END LIST*
D10*
X6780000Y-7880000D02*
G75*
G02*
X6740000Y-7880000I-20000J0D01*
G01*
X6740000Y-7880000D02*
G75*
G02*
X6780000Y-7880000I20000J0D01*
G01*
X2780000Y-8080000D02*
G75*
G02*
X2740000Y-8080000I-20000J0D01*
G01*
X2740000Y-8080000D02*
G75*
G02*
X2780000Y-8080000I20000J0D01*
G01*
X11560000Y-7880000D02*
X11320000Y-7880000D01*
X1860000Y-3480000D02*
G75*
G02*
X2160000Y-3180000I300000J0D01*
G01*
X6900000Y-7880000D02*
G75*
G02*
X6860000Y-7880000I-20000J0D01*
G01*
X6860000Y-7880000D02*
G75*
G02*
X6900000Y-7880000I20000J0D01*
G01*
X10890000Y-7880000D02*
G75*
G02*
X10850000Y-7880000I-20000J0D01*
G01*
X10850000Y-7880000D02*
G75*
G02*
X10890000Y-7880000I20000J0D01*
G01*
X6660000Y-7930000D02*
X6660000Y-8030000D01*
X2840000Y-8080000D02*
G75*
G02*
X2800000Y-8080000I-20000J0D01*
G01*
X2800000Y-8080000D02*
G75*
G02*
X2840000Y-8080000I20000J0D01*
G01*
X11130000Y-7880000D02*
G75*
G02*
X11090000Y-7880000I-20000J0D01*
G01*
X11090000Y-7880000D02*
G75*
G02*
X11130000Y-7880000I20000J0D01*
G01*
X11190000Y-7880000D02*
G75*
G02*
X11150000Y-7880000I-20000J0D01*
G01*
X11150000Y-7880000D02*
G75*
G02*
X11190000Y-7880000I20000J0D01*
G01*
X10830000Y-8030000D02*
G75*
G02*
X10780000Y-8080000I-50000J0D01*
G01*
X11130000Y-8080000D02*
G75*
G02*
X11090000Y-8080000I-20000J0D01*
G01*
X11090000Y-8080000D02*
G75*
G02*
X11130000Y-8080000I20000J0D01*
G01*
X6720000Y-7880000D02*
G75*
G02*
X6680000Y-7880000I-20000J0D01*
G01*
X6680000Y-7880000D02*
G75*
G02*
X6720000Y-7880000I20000J0D01*
G01*
X11250000Y-8080000D02*
G75*
G02*
X11210000Y-8080000I-20000J0D01*
G01*
X11210000Y-8080000D02*
G75*
G02*
X11250000Y-8080000I20000J0D01*
G01*
X2480000Y-8080000D02*
G75*
G02*
X2440000Y-8080000I-20000J0D01*
G01*
X2440000Y-8080000D02*
G75*
G02*
X2480000Y-8080000I20000J0D01*
G01*
X1860000Y-7580000D02*
X1860000Y-3480000D01*
X6900000Y-8080000D02*
G75*
G02*
X6860000Y-8080000I-20000J0D01*
G01*
X6860000Y-8080000D02*
G75*
G02*
X6900000Y-8080000I20000J0D01*
G01*
X6660000Y-8030000D02*
G75*
G02*
X6610000Y-8080000I-50000J0D01*
G01*
X11860000Y-7580000D02*
G75*
G02*
X11560000Y-7880000I-300000J0D01*
G01*
X2160000Y-7880000D02*
G75*
G02*
X1860000Y-7580000I0J300000D01*
G01*
X11561000Y-13180000D02*
X2161000Y-13180000D01*
X7080000Y-8080000D02*
G75*
G02*
X7040000Y-8080000I-20000J0D01*
G01*
X7040000Y-8080000D02*
G75*
G02*
X7080000Y-8080000I20000J0D01*
G01*
X2480000Y-7880000D02*
G75*
G02*
X2440000Y-7880000I-20000J0D01*
G01*
X2440000Y-7880000D02*
G75*
G02*
X2480000Y-7880000I20000J0D01*
G01*
X6960000Y-8080000D02*
G75*
G02*
X6920000Y-8080000I-20000J0D01*
G01*
X6920000Y-8080000D02*
G75*
G02*
X6960000Y-8080000I20000J0D01*
G01*
X7020000Y-8080000D02*
G75*
G02*
X6980000Y-8080000I-20000J0D01*
G01*
X6980000Y-8080000D02*
G75*
G02*
X7020000Y-8080000I20000J0D01*
G01*
X2910000Y-8080000D02*
X6610000Y-8080000D01*
X10780000Y-7880000D02*
G75*
G02*
X10830000Y-7930000I0J-50000D01*
G01*
X11010000Y-8080000D02*
G75*
G02*
X10970000Y-8080000I-20000J0D01*
G01*
X10970000Y-8080000D02*
G75*
G02*
X11010000Y-8080000I20000J0D01*
G01*
X2420000Y-8030000D02*
G75*
G02*
X2370000Y-8080000I-50000J0D01*
G01*
X11561000Y-8080000D02*
G75*
G02*
X11861000Y-8380000I0J-300000D01*
G01*
X2420000Y-7930000D02*
X2420000Y-8030000D01*
X2600000Y-8080000D02*
G75*
G02*
X2560000Y-8080000I-20000J0D01*
G01*
X2560000Y-8080000D02*
G75*
G02*
X2600000Y-8080000I20000J0D01*
G01*
X11010000Y-7880000D02*
G75*
G02*
X10970000Y-7880000I-20000J0D01*
G01*
X10970000Y-7880000D02*
G75*
G02*
X11010000Y-7880000I20000J0D01*
G01*
X10950000Y-7880000D02*
G75*
G02*
X10910000Y-7880000I-20000J0D01*
G01*
X10910000Y-7880000D02*
G75*
G02*
X10950000Y-7880000I20000J0D01*
G01*
X2540000Y-8080000D02*
G75*
G02*
X2500000Y-8080000I-20000J0D01*
G01*
X2500000Y-8080000D02*
G75*
G02*
X2540000Y-8080000I20000J0D01*
G01*
X2860000Y-7930000D02*
G75*
G02*
X2910000Y-7880000I50000J0D01*
G01*
X2660000Y-7880000D02*
G75*
G02*
X2620000Y-7880000I-20000J0D01*
G01*
X2620000Y-7880000D02*
G75*
G02*
X2660000Y-7880000I20000J0D01*
G01*
X2161000Y-8080000D02*
X2370000Y-8080000D01*
X1861000Y-8380000D02*
G75*
G02*
X2161000Y-8080000I300000J0D01*
G01*
X6610000Y-7880000D02*
G75*
G02*
X6660000Y-7930000I0J-50000D01*
G01*
X10890000Y-8080000D02*
G75*
G02*
X10850000Y-8080000I-20000J0D01*
G01*
X10850000Y-8080000D02*
G75*
G02*
X10890000Y-8080000I20000J0D01*
G01*
X11270000Y-7930000D02*
X11270000Y-8030000D01*
X2860000Y-7930000D02*
X2860000Y-8030000D01*
X11250000Y-7880000D02*
G75*
G02*
X11210000Y-7880000I-20000J0D01*
G01*
X11210000Y-7880000D02*
G75*
G02*
X11250000Y-7880000I20000J0D01*
G01*
X6720000Y-8080000D02*
G75*
G02*
X6680000Y-8080000I-20000J0D01*
G01*
X6680000Y-8080000D02*
G75*
G02*
X6720000Y-8080000I20000J0D01*
G01*
X11861000Y-12880000D02*
G75*
G02*
X11561000Y-13180000I-300000J0D01*
G01*
X6780000Y-8080000D02*
G75*
G02*
X6740000Y-8080000I-20000J0D01*
G01*
X6740000Y-8080000D02*
G75*
G02*
X6780000Y-8080000I20000J0D01*
G01*
X11070000Y-7880000D02*
G75*
G02*
X11030000Y-7880000I-20000J0D01*
G01*
X11030000Y-7880000D02*
G75*
G02*
X11070000Y-7880000I20000J0D01*
G01*
X11320000Y-8080000D02*
G75*
G02*
X11270000Y-8030000I0J50000D01*
G01*
X2910000Y-7880000D02*
X6610000Y-7880000D01*
X2720000Y-7880000D02*
G75*
G02*
X2680000Y-7880000I-20000J0D01*
G01*
X2680000Y-7880000D02*
G75*
G02*
X2720000Y-7880000I20000J0D01*
G01*
X11190000Y-8080000D02*
G75*
G02*
X11150000Y-8080000I-20000J0D01*
G01*
X11150000Y-8080000D02*
G75*
G02*
X11190000Y-8080000I20000J0D01*
G01*
X7080000Y-7880000D02*
G75*
G02*
X7040000Y-7880000I-20000J0D01*
G01*
X7040000Y-7880000D02*
G75*
G02*
X7080000Y-7880000I20000J0D01*
G01*
X6840000Y-8080000D02*
G75*
G02*
X6800000Y-8080000I-20000J0D01*
G01*
X6800000Y-8080000D02*
G75*
G02*
X6840000Y-8080000I20000J0D01*
G01*
X2370000Y-7880000D02*
X2160000Y-7880000D01*
X11320000Y-8080000D02*
X11561000Y-8080000D01*
X7150000Y-8080000D02*
X10780000Y-8080000D01*
X11560000Y-3180000D02*
G75*
G02*
X11860000Y-3480000I0J-300000D01*
G01*
X2600000Y-7880000D02*
G75*
G02*
X2560000Y-7880000I-20000J0D01*
G01*
X2560000Y-7880000D02*
G75*
G02*
X2600000Y-7880000I20000J0D01*
G01*
X2160000Y-3180000D02*
X11560000Y-3180000D01*
X6840000Y-7880000D02*
G75*
G02*
X6800000Y-7880000I-20000J0D01*
G01*
X6800000Y-7880000D02*
G75*
G02*
X6840000Y-7880000I20000J0D01*
G01*
X2840000Y-7880000D02*
G75*
G02*
X2800000Y-7880000I-20000J0D01*
G01*
X2800000Y-7880000D02*
G75*
G02*
X2840000Y-7880000I20000J0D01*
G01*
X10780000Y-7880000D02*
X7150000Y-7880000D01*
X2660000Y-8080000D02*
G75*
G02*
X2620000Y-8080000I-20000J0D01*
G01*
X2620000Y-8080000D02*
G75*
G02*
X2660000Y-8080000I20000J0D01*
G01*
X11270000Y-7930000D02*
G75*
G02*
X11320000Y-7880000I50000J0D01*
G01*
X7150000Y-8080000D02*
G75*
G02*
X7100000Y-8030000I0J50000D01*
G01*
X2540000Y-7880000D02*
G75*
G02*
X2500000Y-7880000I-20000J0D01*
G01*
X2500000Y-7880000D02*
G75*
G02*
X2540000Y-7880000I20000J0D01*
G01*
X7020000Y-7880000D02*
G75*
G02*
X6980000Y-7880000I-20000J0D01*
G01*
X6980000Y-7880000D02*
G75*
G02*
X7020000Y-7880000I20000J0D01*
G01*
X7100000Y-7930000D02*
G75*
G02*
X7150000Y-7880000I50000J0D01*
G01*
X2720000Y-8080000D02*
G75*
G02*
X2680000Y-8080000I-20000J0D01*
G01*
X2680000Y-8080000D02*
G75*
G02*
X2720000Y-8080000I20000J0D01*
G01*
X11070000Y-8080000D02*
G75*
G02*
X11030000Y-8080000I-20000J0D01*
G01*
X11030000Y-8080000D02*
G75*
G02*
X11070000Y-8080000I20000J0D01*
G01*
X11860000Y-3480000D02*
X11860000Y-7580000D01*
X6960000Y-7880000D02*
G75*
G02*
X6920000Y-7880000I-20000J0D01*
G01*
X6920000Y-7880000D02*
G75*
G02*
X6960000Y-7880000I20000J0D01*
G01*
X2370000Y-7880000D02*
G75*
G02*
X2420000Y-7930000I0J-50000D01*
G01*
X10830000Y-7930000D02*
X10830000Y-8030000D01*
X2780000Y-7880000D02*
G75*
G02*
X2740000Y-7880000I-20000J0D01*
G01*
X2740000Y-7880000D02*
G75*
G02*
X2780000Y-7880000I20000J0D01*
G01*
X10950000Y-8080000D02*
G75*
G02*
X10910000Y-8080000I-20000J0D01*
G01*
X10910000Y-8080000D02*
G75*
G02*
X10950000Y-8080000I20000J0D01*
G01*
X11861000Y-8380000D02*
X11861000Y-12880000D01*
X1861000Y-12880000D02*
X1861000Y-8380000D01*
X2161000Y-13180000D02*
G75*
G02*
X1861000Y-12880000I0J300000D01*
G01*
X7100000Y-7930000D02*
X7100000Y-8030000D01*
X2910000Y-8080000D02*
G75*
G02*
X2860000Y-8030000I0J50000D01*
G01*
D11*
D12*
X2907000Y-9075000D02*
X3077000Y-9245000D01*
X3077000Y-9075000D02*
X2907000Y-9245000D01*
X3923000Y-9075000D02*
X4093000Y-9245000D01*
X4093000Y-9075000D02*
X3923000Y-9245000D01*
X4847000Y-9075000D02*
X5017000Y-9245000D01*
X5017000Y-9075000D02*
X4847000Y-9245000D01*
X5787000Y-6443000D02*
X5957000Y-6613000D01*
X5957000Y-6443000D02*
X5787000Y-6613000D01*
X5863000Y-9075000D02*
X6033000Y-9245000D01*
X6033000Y-9075000D02*
X5863000Y-9245000D01*
X6787000Y-9075000D02*
X6957000Y-9245000D01*
X6957000Y-9075000D02*
X6787000Y-9245000D01*
X6803000Y-6443000D02*
X6973000Y-6613000D01*
X6973000Y-6443000D02*
X6803000Y-6613000D01*
X7207000Y-4495000D02*
X7377000Y-4665000D01*
X7377000Y-4495000D02*
X7207000Y-4665000D01*
X7727000Y-6443000D02*
X7897000Y-6613000D01*
X7897000Y-6443000D02*
X7727000Y-6613000D01*
X7803000Y-9075000D02*
X7973000Y-9245000D01*
X7973000Y-9075000D02*
X7803000Y-9245000D01*
X8027000Y-12035000D02*
X8197000Y-12205000D01*
X8197000Y-12035000D02*
X8027000Y-12205000D01*
X8223000Y-4495000D02*
X8393000Y-4665000D01*
X8393000Y-4495000D02*
X8223000Y-4665000D01*
X8743000Y-6443000D02*
X8913000Y-6613000D01*
X8913000Y-6443000D02*
X8743000Y-6613000D01*
X8767000Y-9895000D02*
X8937000Y-10065000D01*
X8937000Y-9895000D02*
X8767000Y-10065000D01*
X9043000Y-12035000D02*
X9213000Y-12205000D01*
X9213000Y-12035000D02*
X9043000Y-12205000D01*
X9147000Y-4495000D02*
X9317000Y-4665000D01*
X9317000Y-4495000D02*
X9147000Y-4665000D01*
X9668000Y-6443000D02*
X9838000Y-6613000D01*
X9838000Y-6443000D02*
X9668000Y-6613000D01*
X9783000Y-9895000D02*
X9953000Y-10065000D01*
X9953000Y-9895000D02*
X9783000Y-10065000D01*
X10163000Y-4495000D02*
X10333000Y-4665000D01*
X10333000Y-4495000D02*
X10163000Y-4665000D01*
X10684000Y-6443000D02*
X10854000Y-6613000D01*
X10854000Y-6443000D02*
X10684000Y-6613000D01*
D13*
X2305000Y-3520000D02*
G75*
G02*
X2095000Y-3520000I-105000J0D01*
G01*
X2095000Y-3520000D02*
G75*
G02*
X2305000Y-3520000I105000J0D01*
G01*
X2305000Y-7540000D02*
G75*
G02*
X2095000Y-7540000I-105000J0D01*
G01*
X2095000Y-7540000D02*
G75*
G02*
X2305000Y-7540000I105000J0D01*
G01*
X2305000Y-8420000D02*
G75*
G02*
X2095000Y-8420000I-105000J0D01*
G01*
X2095000Y-8420000D02*
G75*
G02*
X2305000Y-8420000I105000J0D01*
G01*
X2305000Y-12840000D02*
G75*
G02*
X2095000Y-12840000I-105000J0D01*
G01*
X2095000Y-12840000D02*
G75*
G02*
X2305000Y-12840000I105000J0D01*
G01*
X11625000Y-3520000D02*
G75*
G02*
X11415000Y-3520000I-105000J0D01*
G01*
X11415000Y-3520000D02*
G75*
G02*
X11625000Y-3520000I105000J0D01*
G01*
X11625000Y-7540000D02*
G75*
G02*
X11415000Y-7540000I-105000J0D01*
G01*
X11415000Y-7540000D02*
G75*
G02*
X11625000Y-7540000I105000J0D01*
G01*
X11625000Y-8420000D02*
G75*
G02*
X11415000Y-8420000I-105000J0D01*
G01*
X11415000Y-8420000D02*
G75*
G02*
X11625000Y-8420000I105000J0D01*
G01*
X11625000Y-12840000D02*
G75*
G02*
X11415000Y-12840000I-105000J0D01*
G01*
X11415000Y-12840000D02*
G75*
G02*
X11625000Y-12840000I105000J0D01*
G01*
D14*
X3119000Y-8756000D02*
X3119000Y-9056000D01*
X2969000Y-8906000D02*
X3269000Y-8906000D01*
X3754000Y-8502000D02*
X3754000Y-8802000D01*
X3604000Y-8652000D02*
X3904000Y-8652000D01*
X5059000Y-8756000D02*
X5059000Y-9056000D01*
X4909000Y-8906000D02*
X5209000Y-8906000D01*
X5694000Y-8502000D02*
X5694000Y-8802000D01*
X5544000Y-8652000D02*
X5844000Y-8652000D01*
X5999000Y-6124000D02*
X5999000Y-6424000D01*
X5849000Y-6274000D02*
X6149000Y-6274000D01*
X6634000Y-5870000D02*
X6634000Y-6170000D01*
X6484000Y-6020000D02*
X6784000Y-6020000D01*
X6999000Y-8756000D02*
X6999000Y-9056000D01*
X6849000Y-8906000D02*
X7149000Y-8906000D01*
X7419000Y-4176000D02*
X7419000Y-4476000D01*
X7269000Y-4326000D02*
X7569000Y-4326000D01*
X7634000Y-8502000D02*
X7634000Y-8802000D01*
X7484000Y-8652000D02*
X7784000Y-8652000D01*
X7939000Y-6124000D02*
X7939000Y-6424000D01*
X7789000Y-6274000D02*
X8089000Y-6274000D01*
X8054000Y-3922000D02*
X8054000Y-4222000D01*
X7904000Y-4072000D02*
X8204000Y-4072000D01*
X8239000Y-11716000D02*
X8239000Y-12016000D01*
X8089000Y-11866000D02*
X8389000Y-11866000D01*
X8574000Y-5870000D02*
X8574000Y-6170000D01*
X8424000Y-6020000D02*
X8724000Y-6020000D01*
X8874000Y-11462000D02*
X8874000Y-11762000D01*
X8724000Y-11612000D02*
X9024000Y-11612000D01*
X8979000Y-9576000D02*
X8979000Y-9876000D01*
X8829000Y-9726000D02*
X9129000Y-9726000D01*
X9359000Y-4176000D02*
X9359000Y-4476000D01*
X9209000Y-4326000D02*
X9509000Y-4326000D01*
X9614000Y-9322000D02*
X9614000Y-9622000D01*
X9464000Y-9472000D02*
X9764000Y-9472000D01*
X9880000Y-6124000D02*
X9880000Y-6424000D01*
X9730000Y-6274000D02*
X10030000Y-6274000D01*
X9994000Y-3922000D02*
X9994000Y-4222000D01*
X9844000Y-4072000D02*
X10144000Y-4072000D01*
X10515000Y-5870000D02*
X10515000Y-6170000D01*
X10365000Y-6020000D02*
X10665000Y-6020000D01*
D15*
X3641423Y-9301423D02*
X3641423Y-9018577D01*
X3358577Y-9018577D01*
X3358577Y-9301423D01*
X3641423Y-9301423D01*
X5581423Y-9301423D02*
X5581423Y-9018577D01*
X5298577Y-9018577D01*
X5298577Y-9301423D01*
X5581423Y-9301423D01*
X6521423Y-6669423D02*
X6521423Y-6386577D01*
X6238577Y-6386577D01*
X6238577Y-6669423D01*
X6521423Y-6669423D01*
X7521423Y-9301423D02*
X7521423Y-9018577D01*
X7238577Y-9018577D01*
X7238577Y-9301423D01*
X7521423Y-9301423D01*
X7941423Y-4721423D02*
X7941423Y-4438577D01*
X7658577Y-4438577D01*
X7658577Y-4721423D01*
X7941423Y-4721423D01*
X8461423Y-6669423D02*
X8461423Y-6386577D01*
X8178577Y-6386577D01*
X8178577Y-6669423D01*
X8461423Y-6669423D01*
X8761423Y-12261423D02*
X8761423Y-11978577D01*
X8478577Y-11978577D01*
X8478577Y-12261423D01*
X8761423Y-12261423D01*
X9501423Y-10121423D02*
X9501423Y-9838577D01*
X9218577Y-9838577D01*
X9218577Y-10121423D01*
X9501423Y-10121423D01*
X9881423Y-4721423D02*
X9881423Y-4438577D01*
X9598577Y-4438577D01*
X9598577Y-4721423D01*
X9881423Y-4721423D01*
X10402423Y-6669423D02*
X10402423Y-6386577D01*
X10119577Y-6386577D01*
X10119577Y-6669423D01*
X10402423Y-6669423D01*
D11*
X2118277Y-13493984D02*
X2118277Y-13293984D01*
X2118277Y-13293984D02*
X2165896Y-13293984D01*
X2165896Y-13293984D02*
X2194467Y-13303508D01*
X2194467Y-13303508D02*
X2213515Y-13322555D01*
X2213515Y-13322555D02*
X2223039Y-13341603D01*
X2223039Y-13341603D02*
X2232563Y-13379698D01*
X2232563Y-13379698D02*
X2232563Y-13408269D01*
X2232563Y-13408269D02*
X2223039Y-13446365D01*
X2223039Y-13446365D02*
X2213515Y-13465412D01*
X2213515Y-13465412D02*
X2194467Y-13484460D01*
X2194467Y-13484460D02*
X2165896Y-13493984D01*
X2165896Y-13493984D02*
X2118277Y-13493984D01*
X2318277Y-13493984D02*
X2318277Y-13360650D01*
X2318277Y-13398746D02*
X2327801Y-13379698D01*
X2327801Y-13379698D02*
X2337324Y-13370174D01*
X2337324Y-13370174D02*
X2356372Y-13360650D01*
X2356372Y-13360650D02*
X2375420Y-13360650D01*
X2442086Y-13493984D02*
X2442086Y-13360650D01*
X2442086Y-13293984D02*
X2432563Y-13303508D01*
X2432563Y-13303508D02*
X2442086Y-13313031D01*
X2442086Y-13313031D02*
X2451610Y-13303508D01*
X2451610Y-13303508D02*
X2442086Y-13293984D01*
X2442086Y-13293984D02*
X2442086Y-13313031D01*
X2565896Y-13493984D02*
X2546848Y-13484460D01*
X2546848Y-13484460D02*
X2537324Y-13465412D01*
X2537324Y-13465412D02*
X2537324Y-13293984D01*
X2670658Y-13493984D02*
X2651610Y-13484460D01*
X2651610Y-13484460D02*
X2642086Y-13465412D01*
X2642086Y-13465412D02*
X2642086Y-13293984D01*
X2899229Y-13493984D02*
X2899229Y-13293984D01*
X2899229Y-13293984D02*
X2965896Y-13436841D01*
X2965896Y-13436841D02*
X3032562Y-13293984D01*
X3032562Y-13293984D02*
X3032562Y-13493984D01*
X3213515Y-13493984D02*
X3213515Y-13389222D01*
X3213515Y-13389222D02*
X3203991Y-13370174D01*
X3203991Y-13370174D02*
X3184943Y-13360650D01*
X3184943Y-13360650D02*
X3146848Y-13360650D01*
X3146848Y-13360650D02*
X3127801Y-13370174D01*
X3213515Y-13484460D02*
X3194467Y-13493984D01*
X3194467Y-13493984D02*
X3146848Y-13493984D01*
X3146848Y-13493984D02*
X3127801Y-13484460D01*
X3127801Y-13484460D02*
X3118277Y-13465412D01*
X3118277Y-13465412D02*
X3118277Y-13446365D01*
X3118277Y-13446365D02*
X3127801Y-13427317D01*
X3127801Y-13427317D02*
X3146848Y-13417793D01*
X3146848Y-13417793D02*
X3194467Y-13417793D01*
X3194467Y-13417793D02*
X3213515Y-13408269D01*
X3308753Y-13360650D02*
X3308753Y-13560650D01*
X3308753Y-13370174D02*
X3327801Y-13360650D01*
X3327801Y-13360650D02*
X3365896Y-13360650D01*
X3365896Y-13360650D02*
X3384943Y-13370174D01*
X3384943Y-13370174D02*
X3394467Y-13379698D01*
X3394467Y-13379698D02*
X3403991Y-13398746D01*
X3403991Y-13398746D02*
X3403991Y-13455888D01*
X3403991Y-13455888D02*
X3394467Y-13474936D01*
X3394467Y-13474936D02*
X3384943Y-13484460D01*
X3384943Y-13484460D02*
X3365896Y-13493984D01*
X3365896Y-13493984D02*
X3327801Y-13493984D01*
X3327801Y-13493984D02*
X3308753Y-13484460D01*
X3489705Y-13474936D02*
X3499229Y-13484460D01*
X3499229Y-13484460D02*
X3489705Y-13493984D01*
X3489705Y-13493984D02*
X3480182Y-13484460D01*
X3480182Y-13484460D02*
X3489705Y-13474936D01*
X3489705Y-13474936D02*
X3489705Y-13493984D01*
X3489705Y-13370174D02*
X3499229Y-13379698D01*
X3499229Y-13379698D02*
X3489705Y-13389222D01*
X3489705Y-13389222D02*
X3480182Y-13379698D01*
X3480182Y-13379698D02*
X3489705Y-13370174D01*
X3489705Y-13370174D02*
X3489705Y-13389222D01*
D12*
X1687500Y-13737500D02*
X1857500Y-13907500D01*
X1857500Y-13737500D02*
X1687500Y-13907500D01*
D11*
X2223039Y-13913984D02*
X2108753Y-13913984D01*
X2165896Y-13913984D02*
X2165896Y-13713984D01*
X2165896Y-13713984D02*
X2146848Y-13742555D01*
X2146848Y-13742555D02*
X2127801Y-13761603D01*
X2127801Y-13761603D02*
X2108753Y-13771127D01*
X2308753Y-13894936D02*
X2318277Y-13904460D01*
X2318277Y-13904460D02*
X2308753Y-13913984D01*
X2308753Y-13913984D02*
X2299229Y-13904460D01*
X2299229Y-13904460D02*
X2308753Y-13894936D01*
X2308753Y-13894936D02*
X2308753Y-13913984D01*
X2384944Y-13713984D02*
X2518277Y-13713984D01*
X2518277Y-13713984D02*
X2432563Y-13913984D01*
X2632563Y-13713984D02*
X2651610Y-13713984D01*
X2651610Y-13713984D02*
X2670658Y-13723508D01*
X2670658Y-13723508D02*
X2680182Y-13733031D01*
X2680182Y-13733031D02*
X2689705Y-13752079D01*
X2689705Y-13752079D02*
X2699229Y-13790174D01*
X2699229Y-13790174D02*
X2699229Y-13837793D01*
X2699229Y-13837793D02*
X2689705Y-13875888D01*
X2689705Y-13875888D02*
X2680182Y-13894936D01*
X2680182Y-13894936D02*
X2670658Y-13904460D01*
X2670658Y-13904460D02*
X2651610Y-13913984D01*
X2651610Y-13913984D02*
X2632563Y-13913984D01*
X2632563Y-13913984D02*
X2613515Y-13904460D01*
X2613515Y-13904460D02*
X2603991Y-13894936D01*
X2603991Y-13894936D02*
X2594467Y-13875888D01*
X2594467Y-13875888D02*
X2584944Y-13837793D01*
X2584944Y-13837793D02*
X2584944Y-13790174D01*
X2584944Y-13790174D02*
X2594467Y-13752079D01*
X2594467Y-13752079D02*
X2603991Y-13733031D01*
X2603991Y-13733031D02*
X2613515Y-13723508D01*
X2613515Y-13723508D02*
X2632563Y-13713984D01*
X2823039Y-13713984D02*
X2842086Y-13713984D01*
X2842086Y-13713984D02*
X2861134Y-13723508D01*
X2861134Y-13723508D02*
X2870658Y-13733031D01*
X2870658Y-13733031D02*
X2880182Y-13752079D01*
X2880182Y-13752079D02*
X2889705Y-13790174D01*
X2889705Y-13790174D02*
X2889705Y-13837793D01*
X2889705Y-13837793D02*
X2880182Y-13875888D01*
X2880182Y-13875888D02*
X2870658Y-13894936D01*
X2870658Y-13894936D02*
X2861134Y-13904460D01*
X2861134Y-13904460D02*
X2842086Y-13913984D01*
X2842086Y-13913984D02*
X2823039Y-13913984D01*
X2823039Y-13913984D02*
X2803991Y-13904460D01*
X2803991Y-13904460D02*
X2794467Y-13894936D01*
X2794467Y-13894936D02*
X2784944Y-13875888D01*
X2784944Y-13875888D02*
X2775420Y-13837793D01*
X2775420Y-13837793D02*
X2775420Y-13790174D01*
X2775420Y-13790174D02*
X2784944Y-13752079D01*
X2784944Y-13752079D02*
X2794467Y-13733031D01*
X2794467Y-13733031D02*
X2803991Y-13723508D01*
X2803991Y-13723508D02*
X2823039Y-13713984D01*
X2975420Y-13913984D02*
X2975420Y-13780650D01*
X2975420Y-13799698D02*
X2984943Y-13790174D01*
X2984943Y-13790174D02*
X3003991Y-13780650D01*
X3003991Y-13780650D02*
X3032563Y-13780650D01*
X3032563Y-13780650D02*
X3051610Y-13790174D01*
X3051610Y-13790174D02*
X3061134Y-13809222D01*
X3061134Y-13809222D02*
X3061134Y-13913984D01*
X3061134Y-13809222D02*
X3070658Y-13790174D01*
X3070658Y-13790174D02*
X3089705Y-13780650D01*
X3089705Y-13780650D02*
X3118277Y-13780650D01*
X3118277Y-13780650D02*
X3137324Y-13790174D01*
X3137324Y-13790174D02*
X3146848Y-13809222D01*
X3146848Y-13809222D02*
X3146848Y-13913984D01*
X3242086Y-13913984D02*
X3242086Y-13780650D01*
X3242086Y-13799698D02*
X3251610Y-13790174D01*
X3251610Y-13790174D02*
X3270658Y-13780650D01*
X3270658Y-13780650D02*
X3299229Y-13780650D01*
X3299229Y-13780650D02*
X3318277Y-13790174D01*
X3318277Y-13790174D02*
X3327801Y-13809222D01*
X3327801Y-13809222D02*
X3327801Y-13913984D01*
X3327801Y-13809222D02*
X3337324Y-13790174D01*
X3337324Y-13790174D02*
X3356372Y-13780650D01*
X3356372Y-13780650D02*
X3384943Y-13780650D01*
X3384943Y-13780650D02*
X3403991Y-13790174D01*
X3403991Y-13790174D02*
X3413515Y-13809222D01*
X3413515Y-13809222D02*
X3413515Y-13913984D01*
X3803991Y-13704460D02*
X3632563Y-13961603D01*
X4061134Y-13713984D02*
X4080182Y-13713984D01*
X4080182Y-13713984D02*
X4099229Y-13723508D01*
X4099229Y-13723508D02*
X4108753Y-13733031D01*
X4108753Y-13733031D02*
X4118277Y-13752079D01*
X4118277Y-13752079D02*
X4127801Y-13790174D01*
X4127801Y-13790174D02*
X4127801Y-13837793D01*
X4127801Y-13837793D02*
X4118277Y-13875888D01*
X4118277Y-13875888D02*
X4108753Y-13894936D01*
X4108753Y-13894936D02*
X4099229Y-13904460D01*
X4099229Y-13904460D02*
X4080182Y-13913984D01*
X4080182Y-13913984D02*
X4061134Y-13913984D01*
X4061134Y-13913984D02*
X4042086Y-13904460D01*
X4042086Y-13904460D02*
X4032563Y-13894936D01*
X4032563Y-13894936D02*
X4023039Y-13875888D01*
X4023039Y-13875888D02*
X4013515Y-13837793D01*
X4013515Y-13837793D02*
X4013515Y-13790174D01*
X4013515Y-13790174D02*
X4023039Y-13752079D01*
X4023039Y-13752079D02*
X4032563Y-13733031D01*
X4032563Y-13733031D02*
X4042086Y-13723508D01*
X4042086Y-13723508D02*
X4061134Y-13713984D01*
X4213515Y-13894936D02*
X4223039Y-13904460D01*
X4223039Y-13904460D02*
X4213515Y-13913984D01*
X4213515Y-13913984D02*
X4203991Y-13904460D01*
X4203991Y-13904460D02*
X4213515Y-13894936D01*
X4213515Y-13894936D02*
X4213515Y-13913984D01*
X4346848Y-13713984D02*
X4365896Y-13713984D01*
X4365896Y-13713984D02*
X4384944Y-13723508D01*
X4384944Y-13723508D02*
X4394468Y-13733031D01*
X4394468Y-13733031D02*
X4403991Y-13752079D01*
X4403991Y-13752079D02*
X4413515Y-13790174D01*
X4413515Y-13790174D02*
X4413515Y-13837793D01*
X4413515Y-13837793D02*
X4403991Y-13875888D01*
X4403991Y-13875888D02*
X4394468Y-13894936D01*
X4394468Y-13894936D02*
X4384944Y-13904460D01*
X4384944Y-13904460D02*
X4365896Y-13913984D01*
X4365896Y-13913984D02*
X4346848Y-13913984D01*
X4346848Y-13913984D02*
X4327801Y-13904460D01*
X4327801Y-13904460D02*
X4318277Y-13894936D01*
X4318277Y-13894936D02*
X4308753Y-13875888D01*
X4308753Y-13875888D02*
X4299229Y-13837793D01*
X4299229Y-13837793D02*
X4299229Y-13790174D01*
X4299229Y-13790174D02*
X4308753Y-13752079D01*
X4308753Y-13752079D02*
X4318277Y-13733031D01*
X4318277Y-13733031D02*
X4327801Y-13723508D01*
X4327801Y-13723508D02*
X4346848Y-13713984D01*
X4584944Y-13713984D02*
X4546848Y-13713984D01*
X4546848Y-13713984D02*
X4527801Y-13723508D01*
X4527801Y-13723508D02*
X4518277Y-13733031D01*
X4518277Y-13733031D02*
X4499229Y-13761603D01*
X4499229Y-13761603D02*
X4489706Y-13799698D01*
X4489706Y-13799698D02*
X4489706Y-13875888D01*
X4489706Y-13875888D02*
X4499229Y-13894936D01*
X4499229Y-13894936D02*
X4508753Y-13904460D01*
X4508753Y-13904460D02*
X4527801Y-13913984D01*
X4527801Y-13913984D02*
X4565896Y-13913984D01*
X4565896Y-13913984D02*
X4584944Y-13904460D01*
X4584944Y-13904460D02*
X4594468Y-13894936D01*
X4594468Y-13894936D02*
X4603991Y-13875888D01*
X4603991Y-13875888D02*
X4603991Y-13828269D01*
X4603991Y-13828269D02*
X4594468Y-13809222D01*
X4594468Y-13809222D02*
X4584944Y-13799698D01*
X4584944Y-13799698D02*
X4565896Y-13790174D01*
X4565896Y-13790174D02*
X4527801Y-13790174D01*
X4527801Y-13790174D02*
X4508753Y-13799698D01*
X4508753Y-13799698D02*
X4499229Y-13809222D01*
X4499229Y-13809222D02*
X4489706Y-13828269D01*
X4775420Y-13713984D02*
X4737325Y-13713984D01*
X4737325Y-13713984D02*
X4718277Y-13723508D01*
X4718277Y-13723508D02*
X4708753Y-13733031D01*
X4708753Y-13733031D02*
X4689706Y-13761603D01*
X4689706Y-13761603D02*
X4680182Y-13799698D01*
X4680182Y-13799698D02*
X4680182Y-13875888D01*
X4680182Y-13875888D02*
X4689706Y-13894936D01*
X4689706Y-13894936D02*
X4699229Y-13904460D01*
X4699229Y-13904460D02*
X4718277Y-13913984D01*
X4718277Y-13913984D02*
X4756372Y-13913984D01*
X4756372Y-13913984D02*
X4775420Y-13904460D01*
X4775420Y-13904460D02*
X4784944Y-13894936D01*
X4784944Y-13894936D02*
X4794468Y-13875888D01*
X4794468Y-13875888D02*
X4794468Y-13828269D01*
X4794468Y-13828269D02*
X4784944Y-13809222D01*
X4784944Y-13809222D02*
X4775420Y-13799698D01*
X4775420Y-13799698D02*
X4756372Y-13790174D01*
X4756372Y-13790174D02*
X4718277Y-13790174D01*
X4718277Y-13790174D02*
X4699229Y-13799698D01*
X4699229Y-13799698D02*
X4689706Y-13809222D01*
X4689706Y-13809222D02*
X4680182Y-13828269D01*
X4889706Y-13913984D02*
X4927801Y-13913984D01*
X4927801Y-13913984D02*
X4946849Y-13904460D01*
X4946849Y-13904460D02*
X4956372Y-13894936D01*
X4956372Y-13894936D02*
X4975420Y-13866365D01*
X4975420Y-13866365D02*
X4984944Y-13828269D01*
X4984944Y-13828269D02*
X4984944Y-13752079D01*
X4984944Y-13752079D02*
X4975420Y-13733031D01*
X4975420Y-13733031D02*
X4965896Y-13723508D01*
X4965896Y-13723508D02*
X4946849Y-13713984D01*
X4946849Y-13713984D02*
X4908753Y-13713984D01*
X4908753Y-13713984D02*
X4889706Y-13723508D01*
X4889706Y-13723508D02*
X4880182Y-13733031D01*
X4880182Y-13733031D02*
X4870658Y-13752079D01*
X4870658Y-13752079D02*
X4870658Y-13799698D01*
X4870658Y-13799698D02*
X4880182Y-13818746D01*
X4880182Y-13818746D02*
X4889706Y-13828269D01*
X4889706Y-13828269D02*
X4908753Y-13837793D01*
X4908753Y-13837793D02*
X4946849Y-13837793D01*
X4946849Y-13837793D02*
X4965896Y-13828269D01*
X4965896Y-13828269D02*
X4975420Y-13818746D01*
X4975420Y-13818746D02*
X4984944Y-13799698D01*
X5061134Y-13713984D02*
X5061134Y-13752079D01*
X5137325Y-13713984D02*
X5137325Y-13752079D01*
X5432563Y-13990174D02*
X5423039Y-13980650D01*
X5423039Y-13980650D02*
X5403991Y-13952079D01*
X5403991Y-13952079D02*
X5394468Y-13933031D01*
X5394468Y-13933031D02*
X5384944Y-13904460D01*
X5384944Y-13904460D02*
X5375420Y-13856841D01*
X5375420Y-13856841D02*
X5375420Y-13818746D01*
X5375420Y-13818746D02*
X5384944Y-13771127D01*
X5384944Y-13771127D02*
X5394468Y-13742555D01*
X5394468Y-13742555D02*
X5403991Y-13723508D01*
X5403991Y-13723508D02*
X5423039Y-13694936D01*
X5423039Y-13694936D02*
X5432563Y-13685412D01*
X5499230Y-13733031D02*
X5508753Y-13723508D01*
X5508753Y-13723508D02*
X5527801Y-13713984D01*
X5527801Y-13713984D02*
X5575420Y-13713984D01*
X5575420Y-13713984D02*
X5594468Y-13723508D01*
X5594468Y-13723508D02*
X5603991Y-13733031D01*
X5603991Y-13733031D02*
X5613515Y-13752079D01*
X5613515Y-13752079D02*
X5613515Y-13771127D01*
X5613515Y-13771127D02*
X5603991Y-13799698D01*
X5603991Y-13799698D02*
X5489706Y-13913984D01*
X5489706Y-13913984D02*
X5613515Y-13913984D01*
X5737325Y-13713984D02*
X5756372Y-13713984D01*
X5756372Y-13713984D02*
X5775420Y-13723508D01*
X5775420Y-13723508D02*
X5784944Y-13733031D01*
X5784944Y-13733031D02*
X5794468Y-13752079D01*
X5794468Y-13752079D02*
X5803991Y-13790174D01*
X5803991Y-13790174D02*
X5803991Y-13837793D01*
X5803991Y-13837793D02*
X5794468Y-13875888D01*
X5794468Y-13875888D02*
X5784944Y-13894936D01*
X5784944Y-13894936D02*
X5775420Y-13904460D01*
X5775420Y-13904460D02*
X5756372Y-13913984D01*
X5756372Y-13913984D02*
X5737325Y-13913984D01*
X5737325Y-13913984D02*
X5718277Y-13904460D01*
X5718277Y-13904460D02*
X5708753Y-13894936D01*
X5708753Y-13894936D02*
X5699229Y-13875888D01*
X5699229Y-13875888D02*
X5689706Y-13837793D01*
X5689706Y-13837793D02*
X5689706Y-13790174D01*
X5689706Y-13790174D02*
X5699229Y-13752079D01*
X5699229Y-13752079D02*
X5708753Y-13733031D01*
X5708753Y-13733031D02*
X5718277Y-13723508D01*
X5718277Y-13723508D02*
X5737325Y-13713984D01*
X6042087Y-13913984D02*
X6042087Y-13713984D01*
X6127801Y-13913984D02*
X6127801Y-13809222D01*
X6127801Y-13809222D02*
X6118277Y-13790174D01*
X6118277Y-13790174D02*
X6099230Y-13780650D01*
X6099230Y-13780650D02*
X6070658Y-13780650D01*
X6070658Y-13780650D02*
X6051610Y-13790174D01*
X6051610Y-13790174D02*
X6042087Y-13799698D01*
X6251610Y-13913984D02*
X6232563Y-13904460D01*
X6232563Y-13904460D02*
X6223039Y-13894936D01*
X6223039Y-13894936D02*
X6213515Y-13875888D01*
X6213515Y-13875888D02*
X6213515Y-13818746D01*
X6213515Y-13818746D02*
X6223039Y-13799698D01*
X6223039Y-13799698D02*
X6232563Y-13790174D01*
X6232563Y-13790174D02*
X6251610Y-13780650D01*
X6251610Y-13780650D02*
X6280182Y-13780650D01*
X6280182Y-13780650D02*
X6299230Y-13790174D01*
X6299230Y-13790174D02*
X6308753Y-13799698D01*
X6308753Y-13799698D02*
X6318277Y-13818746D01*
X6318277Y-13818746D02*
X6318277Y-13875888D01*
X6318277Y-13875888D02*
X6308753Y-13894936D01*
X6308753Y-13894936D02*
X6299230Y-13904460D01*
X6299230Y-13904460D02*
X6280182Y-13913984D01*
X6280182Y-13913984D02*
X6251610Y-13913984D01*
X6432563Y-13913984D02*
X6413515Y-13904460D01*
X6413515Y-13904460D02*
X6403991Y-13885412D01*
X6403991Y-13885412D02*
X6403991Y-13713984D01*
X6584944Y-13904460D02*
X6565896Y-13913984D01*
X6565896Y-13913984D02*
X6527801Y-13913984D01*
X6527801Y-13913984D02*
X6508753Y-13904460D01*
X6508753Y-13904460D02*
X6499230Y-13885412D01*
X6499230Y-13885412D02*
X6499230Y-13809222D01*
X6499230Y-13809222D02*
X6508753Y-13790174D01*
X6508753Y-13790174D02*
X6527801Y-13780650D01*
X6527801Y-13780650D02*
X6565896Y-13780650D01*
X6565896Y-13780650D02*
X6584944Y-13790174D01*
X6584944Y-13790174D02*
X6594468Y-13809222D01*
X6594468Y-13809222D02*
X6594468Y-13828269D01*
X6594468Y-13828269D02*
X6499230Y-13847317D01*
X6670658Y-13904460D02*
X6689706Y-13913984D01*
X6689706Y-13913984D02*
X6727801Y-13913984D01*
X6727801Y-13913984D02*
X6746849Y-13904460D01*
X6746849Y-13904460D02*
X6756372Y-13885412D01*
X6756372Y-13885412D02*
X6756372Y-13875888D01*
X6756372Y-13875888D02*
X6746849Y-13856841D01*
X6746849Y-13856841D02*
X6727801Y-13847317D01*
X6727801Y-13847317D02*
X6699230Y-13847317D01*
X6699230Y-13847317D02*
X6680182Y-13837793D01*
X6680182Y-13837793D02*
X6670658Y-13818746D01*
X6670658Y-13818746D02*
X6670658Y-13809222D01*
X6670658Y-13809222D02*
X6680182Y-13790174D01*
X6680182Y-13790174D02*
X6699230Y-13780650D01*
X6699230Y-13780650D02*
X6727801Y-13780650D01*
X6727801Y-13780650D02*
X6746849Y-13790174D01*
X6823039Y-13990174D02*
X6832563Y-13980650D01*
X6832563Y-13980650D02*
X6851611Y-13952079D01*
X6851611Y-13952079D02*
X6861134Y-13933031D01*
X6861134Y-13933031D02*
X6870658Y-13904460D01*
X6870658Y-13904460D02*
X6880182Y-13856841D01*
X6880182Y-13856841D02*
X6880182Y-13818746D01*
X6880182Y-13818746D02*
X6870658Y-13771127D01*
X6870658Y-13771127D02*
X6861134Y-13742555D01*
X6861134Y-13742555D02*
X6851611Y-13723508D01*
X6851611Y-13723508D02*
X6832563Y-13694936D01*
X6832563Y-13694936D02*
X6823039Y-13685412D01*
X7184944Y-13990174D02*
X7175420Y-13980650D01*
X7175420Y-13980650D02*
X7156372Y-13952079D01*
X7156372Y-13952079D02*
X7146849Y-13933031D01*
X7146849Y-13933031D02*
X7137325Y-13904460D01*
X7137325Y-13904460D02*
X7127801Y-13856841D01*
X7127801Y-13856841D02*
X7127801Y-13818746D01*
X7127801Y-13818746D02*
X7137325Y-13771127D01*
X7137325Y-13771127D02*
X7146849Y-13742555D01*
X7146849Y-13742555D02*
X7156372Y-13723508D01*
X7156372Y-13723508D02*
X7175420Y-13694936D01*
X7175420Y-13694936D02*
X7184944Y-13685412D01*
X7261134Y-13780650D02*
X7261134Y-13913984D01*
X7261134Y-13799698D02*
X7270658Y-13790174D01*
X7270658Y-13790174D02*
X7289706Y-13780650D01*
X7289706Y-13780650D02*
X7318277Y-13780650D01*
X7318277Y-13780650D02*
X7337325Y-13790174D01*
X7337325Y-13790174D02*
X7346849Y-13809222D01*
X7346849Y-13809222D02*
X7346849Y-13913984D01*
X7470658Y-13913984D02*
X7451611Y-13904460D01*
X7451611Y-13904460D02*
X7442087Y-13894936D01*
X7442087Y-13894936D02*
X7432563Y-13875888D01*
X7432563Y-13875888D02*
X7432563Y-13818746D01*
X7432563Y-13818746D02*
X7442087Y-13799698D01*
X7442087Y-13799698D02*
X7451611Y-13790174D01*
X7451611Y-13790174D02*
X7470658Y-13780650D01*
X7470658Y-13780650D02*
X7499230Y-13780650D01*
X7499230Y-13780650D02*
X7518277Y-13790174D01*
X7518277Y-13790174D02*
X7527801Y-13799698D01*
X7527801Y-13799698D02*
X7537325Y-13818746D01*
X7537325Y-13818746D02*
X7537325Y-13875888D01*
X7537325Y-13875888D02*
X7527801Y-13894936D01*
X7527801Y-13894936D02*
X7518277Y-13904460D01*
X7518277Y-13904460D02*
X7499230Y-13913984D01*
X7499230Y-13913984D02*
X7470658Y-13913984D01*
X7594468Y-13780650D02*
X7670658Y-13780650D01*
X7623039Y-13713984D02*
X7623039Y-13885412D01*
X7623039Y-13885412D02*
X7632563Y-13904460D01*
X7632563Y-13904460D02*
X7651611Y-13913984D01*
X7651611Y-13913984D02*
X7670658Y-13913984D01*
X7889706Y-13780650D02*
X7889706Y-13980650D01*
X7889706Y-13790174D02*
X7908753Y-13780650D01*
X7908753Y-13780650D02*
X7946849Y-13780650D01*
X7946849Y-13780650D02*
X7965896Y-13790174D01*
X7965896Y-13790174D02*
X7975420Y-13799698D01*
X7975420Y-13799698D02*
X7984944Y-13818746D01*
X7984944Y-13818746D02*
X7984944Y-13875888D01*
X7984944Y-13875888D02*
X7975420Y-13894936D01*
X7975420Y-13894936D02*
X7965896Y-13904460D01*
X7965896Y-13904460D02*
X7946849Y-13913984D01*
X7946849Y-13913984D02*
X7908753Y-13913984D01*
X7908753Y-13913984D02*
X7889706Y-13904460D01*
X8099230Y-13913984D02*
X8080182Y-13904460D01*
X8080182Y-13904460D02*
X8070658Y-13885412D01*
X8070658Y-13885412D02*
X8070658Y-13713984D01*
X8261134Y-13913984D02*
X8261134Y-13809222D01*
X8261134Y-13809222D02*
X8251611Y-13790174D01*
X8251611Y-13790174D02*
X8232563Y-13780650D01*
X8232563Y-13780650D02*
X8194468Y-13780650D01*
X8194468Y-13780650D02*
X8175420Y-13790174D01*
X8261134Y-13904460D02*
X8242087Y-13913984D01*
X8242087Y-13913984D02*
X8194468Y-13913984D01*
X8194468Y-13913984D02*
X8175420Y-13904460D01*
X8175420Y-13904460D02*
X8165896Y-13885412D01*
X8165896Y-13885412D02*
X8165896Y-13866365D01*
X8165896Y-13866365D02*
X8175420Y-13847317D01*
X8175420Y-13847317D02*
X8194468Y-13837793D01*
X8194468Y-13837793D02*
X8242087Y-13837793D01*
X8242087Y-13837793D02*
X8261134Y-13828269D01*
X8327801Y-13780650D02*
X8403992Y-13780650D01*
X8356373Y-13713984D02*
X8356373Y-13885412D01*
X8356373Y-13885412D02*
X8365896Y-13904460D01*
X8365896Y-13904460D02*
X8384944Y-13913984D01*
X8384944Y-13913984D02*
X8403992Y-13913984D01*
X8546849Y-13904460D02*
X8527801Y-13913984D01*
X8527801Y-13913984D02*
X8489706Y-13913984D01*
X8489706Y-13913984D02*
X8470658Y-13904460D01*
X8470658Y-13904460D02*
X8461135Y-13885412D01*
X8461135Y-13885412D02*
X8461135Y-13809222D01*
X8461135Y-13809222D02*
X8470658Y-13790174D01*
X8470658Y-13790174D02*
X8489706Y-13780650D01*
X8489706Y-13780650D02*
X8527801Y-13780650D01*
X8527801Y-13780650D02*
X8546849Y-13790174D01*
X8546849Y-13790174D02*
X8556373Y-13809222D01*
X8556373Y-13809222D02*
X8556373Y-13828269D01*
X8556373Y-13828269D02*
X8461135Y-13847317D01*
X8727801Y-13913984D02*
X8727801Y-13713984D01*
X8727801Y-13904460D02*
X8708754Y-13913984D01*
X8708754Y-13913984D02*
X8670658Y-13913984D01*
X8670658Y-13913984D02*
X8651611Y-13904460D01*
X8651611Y-13904460D02*
X8642087Y-13894936D01*
X8642087Y-13894936D02*
X8632563Y-13875888D01*
X8632563Y-13875888D02*
X8632563Y-13818746D01*
X8632563Y-13818746D02*
X8642087Y-13799698D01*
X8642087Y-13799698D02*
X8651611Y-13790174D01*
X8651611Y-13790174D02*
X8670658Y-13780650D01*
X8670658Y-13780650D02*
X8708754Y-13780650D01*
X8708754Y-13780650D02*
X8727801Y-13790174D01*
X8803992Y-13990174D02*
X8813516Y-13980650D01*
X8813516Y-13980650D02*
X8832563Y-13952079D01*
X8832563Y-13952079D02*
X8842087Y-13933031D01*
X8842087Y-13933031D02*
X8851611Y-13904460D01*
X8851611Y-13904460D02*
X8861135Y-13856841D01*
X8861135Y-13856841D02*
X8861135Y-13818746D01*
X8861135Y-13818746D02*
X8851611Y-13771127D01*
X8851611Y-13771127D02*
X8842087Y-13742555D01*
X8842087Y-13742555D02*
X8832563Y-13723508D01*
X8832563Y-13723508D02*
X8813516Y-13694936D01*
X8813516Y-13694936D02*
X8803992Y-13685412D01*
X1857500Y-14112500D02*
G75*
G02*
X1657500Y-14112500I-100000J0D01*
G01*
X1657500Y-14112500D02*
G75*
G02*
X1857500Y-14112500I100000J0D01*
G01*
X2108753Y-14023031D02*
X2118277Y-14013508D01*
X2118277Y-14013508D02*
X2137324Y-14003984D01*
X2137324Y-14003984D02*
X2184944Y-14003984D01*
X2184944Y-14003984D02*
X2203991Y-14013508D01*
X2203991Y-14013508D02*
X2213515Y-14023031D01*
X2213515Y-14023031D02*
X2223039Y-14042079D01*
X2223039Y-14042079D02*
X2223039Y-14061127D01*
X2223039Y-14061127D02*
X2213515Y-14089698D01*
X2213515Y-14089698D02*
X2099229Y-14203984D01*
X2099229Y-14203984D02*
X2223039Y-14203984D01*
X2308753Y-14184936D02*
X2318277Y-14194460D01*
X2318277Y-14194460D02*
X2308753Y-14203984D01*
X2308753Y-14203984D02*
X2299229Y-14194460D01*
X2299229Y-14194460D02*
X2308753Y-14184936D01*
X2308753Y-14184936D02*
X2308753Y-14203984D01*
X2508753Y-14203984D02*
X2394467Y-14203984D01*
X2451610Y-14203984D02*
X2451610Y-14003984D01*
X2451610Y-14003984D02*
X2432563Y-14032555D01*
X2432563Y-14032555D02*
X2413515Y-14051603D01*
X2413515Y-14051603D02*
X2394467Y-14061127D01*
X2632563Y-14003984D02*
X2651610Y-14003984D01*
X2651610Y-14003984D02*
X2670658Y-14013508D01*
X2670658Y-14013508D02*
X2680182Y-14023031D01*
X2680182Y-14023031D02*
X2689705Y-14042079D01*
X2689705Y-14042079D02*
X2699229Y-14080174D01*
X2699229Y-14080174D02*
X2699229Y-14127793D01*
X2699229Y-14127793D02*
X2689705Y-14165888D01*
X2689705Y-14165888D02*
X2680182Y-14184936D01*
X2680182Y-14184936D02*
X2670658Y-14194460D01*
X2670658Y-14194460D02*
X2651610Y-14203984D01*
X2651610Y-14203984D02*
X2632563Y-14203984D01*
X2632563Y-14203984D02*
X2613515Y-14194460D01*
X2613515Y-14194460D02*
X2603991Y-14184936D01*
X2603991Y-14184936D02*
X2594467Y-14165888D01*
X2594467Y-14165888D02*
X2584944Y-14127793D01*
X2584944Y-14127793D02*
X2584944Y-14080174D01*
X2584944Y-14080174D02*
X2594467Y-14042079D01*
X2594467Y-14042079D02*
X2603991Y-14023031D01*
X2603991Y-14023031D02*
X2613515Y-14013508D01*
X2613515Y-14013508D02*
X2632563Y-14003984D01*
X2823039Y-14003984D02*
X2842086Y-14003984D01*
X2842086Y-14003984D02*
X2861134Y-14013508D01*
X2861134Y-14013508D02*
X2870658Y-14023031D01*
X2870658Y-14023031D02*
X2880182Y-14042079D01*
X2880182Y-14042079D02*
X2889705Y-14080174D01*
X2889705Y-14080174D02*
X2889705Y-14127793D01*
X2889705Y-14127793D02*
X2880182Y-14165888D01*
X2880182Y-14165888D02*
X2870658Y-14184936D01*
X2870658Y-14184936D02*
X2861134Y-14194460D01*
X2861134Y-14194460D02*
X2842086Y-14203984D01*
X2842086Y-14203984D02*
X2823039Y-14203984D01*
X2823039Y-14203984D02*
X2803991Y-14194460D01*
X2803991Y-14194460D02*
X2794467Y-14184936D01*
X2794467Y-14184936D02*
X2784944Y-14165888D01*
X2784944Y-14165888D02*
X2775420Y-14127793D01*
X2775420Y-14127793D02*
X2775420Y-14080174D01*
X2775420Y-14080174D02*
X2784944Y-14042079D01*
X2784944Y-14042079D02*
X2794467Y-14023031D01*
X2794467Y-14023031D02*
X2803991Y-14013508D01*
X2803991Y-14013508D02*
X2823039Y-14003984D01*
X2975420Y-14203984D02*
X2975420Y-14070650D01*
X2975420Y-14089698D02*
X2984943Y-14080174D01*
X2984943Y-14080174D02*
X3003991Y-14070650D01*
X3003991Y-14070650D02*
X3032563Y-14070650D01*
X3032563Y-14070650D02*
X3051610Y-14080174D01*
X3051610Y-14080174D02*
X3061134Y-14099222D01*
X3061134Y-14099222D02*
X3061134Y-14203984D01*
X3061134Y-14099222D02*
X3070658Y-14080174D01*
X3070658Y-14080174D02*
X3089705Y-14070650D01*
X3089705Y-14070650D02*
X3118277Y-14070650D01*
X3118277Y-14070650D02*
X3137324Y-14080174D01*
X3137324Y-14080174D02*
X3146848Y-14099222D01*
X3146848Y-14099222D02*
X3146848Y-14203984D01*
X3242086Y-14203984D02*
X3242086Y-14070650D01*
X3242086Y-14089698D02*
X3251610Y-14080174D01*
X3251610Y-14080174D02*
X3270658Y-14070650D01*
X3270658Y-14070650D02*
X3299229Y-14070650D01*
X3299229Y-14070650D02*
X3318277Y-14080174D01*
X3318277Y-14080174D02*
X3327801Y-14099222D01*
X3327801Y-14099222D02*
X3327801Y-14203984D01*
X3327801Y-14099222D02*
X3337324Y-14080174D01*
X3337324Y-14080174D02*
X3356372Y-14070650D01*
X3356372Y-14070650D02*
X3384943Y-14070650D01*
X3384943Y-14070650D02*
X3403991Y-14080174D01*
X3403991Y-14080174D02*
X3413515Y-14099222D01*
X3413515Y-14099222D02*
X3413515Y-14203984D01*
X3803991Y-13994460D02*
X3632563Y-14251603D01*
X4061134Y-14003984D02*
X4080182Y-14003984D01*
X4080182Y-14003984D02*
X4099229Y-14013508D01*
X4099229Y-14013508D02*
X4108753Y-14023031D01*
X4108753Y-14023031D02*
X4118277Y-14042079D01*
X4118277Y-14042079D02*
X4127801Y-14080174D01*
X4127801Y-14080174D02*
X4127801Y-14127793D01*
X4127801Y-14127793D02*
X4118277Y-14165888D01*
X4118277Y-14165888D02*
X4108753Y-14184936D01*
X4108753Y-14184936D02*
X4099229Y-14194460D01*
X4099229Y-14194460D02*
X4080182Y-14203984D01*
X4080182Y-14203984D02*
X4061134Y-14203984D01*
X4061134Y-14203984D02*
X4042086Y-14194460D01*
X4042086Y-14194460D02*
X4032563Y-14184936D01*
X4032563Y-14184936D02*
X4023039Y-14165888D01*
X4023039Y-14165888D02*
X4013515Y-14127793D01*
X4013515Y-14127793D02*
X4013515Y-14080174D01*
X4013515Y-14080174D02*
X4023039Y-14042079D01*
X4023039Y-14042079D02*
X4032563Y-14023031D01*
X4032563Y-14023031D02*
X4042086Y-14013508D01*
X4042086Y-14013508D02*
X4061134Y-14003984D01*
X4213515Y-14184936D02*
X4223039Y-14194460D01*
X4223039Y-14194460D02*
X4213515Y-14203984D01*
X4213515Y-14203984D02*
X4203991Y-14194460D01*
X4203991Y-14194460D02*
X4213515Y-14184936D01*
X4213515Y-14184936D02*
X4213515Y-14203984D01*
X4346848Y-14003984D02*
X4365896Y-14003984D01*
X4365896Y-14003984D02*
X4384944Y-14013508D01*
X4384944Y-14013508D02*
X4394468Y-14023031D01*
X4394468Y-14023031D02*
X4403991Y-14042079D01*
X4403991Y-14042079D02*
X4413515Y-14080174D01*
X4413515Y-14080174D02*
X4413515Y-14127793D01*
X4413515Y-14127793D02*
X4403991Y-14165888D01*
X4403991Y-14165888D02*
X4394468Y-14184936D01*
X4394468Y-14184936D02*
X4384944Y-14194460D01*
X4384944Y-14194460D02*
X4365896Y-14203984D01*
X4365896Y-14203984D02*
X4346848Y-14203984D01*
X4346848Y-14203984D02*
X4327801Y-14194460D01*
X4327801Y-14194460D02*
X4318277Y-14184936D01*
X4318277Y-14184936D02*
X4308753Y-14165888D01*
X4308753Y-14165888D02*
X4299229Y-14127793D01*
X4299229Y-14127793D02*
X4299229Y-14080174D01*
X4299229Y-14080174D02*
X4308753Y-14042079D01*
X4308753Y-14042079D02*
X4318277Y-14023031D01*
X4318277Y-14023031D02*
X4327801Y-14013508D01*
X4327801Y-14013508D02*
X4346848Y-14003984D01*
X4527801Y-14089698D02*
X4508753Y-14080174D01*
X4508753Y-14080174D02*
X4499229Y-14070650D01*
X4499229Y-14070650D02*
X4489706Y-14051603D01*
X4489706Y-14051603D02*
X4489706Y-14042079D01*
X4489706Y-14042079D02*
X4499229Y-14023031D01*
X4499229Y-14023031D02*
X4508753Y-14013508D01*
X4508753Y-14013508D02*
X4527801Y-14003984D01*
X4527801Y-14003984D02*
X4565896Y-14003984D01*
X4565896Y-14003984D02*
X4584944Y-14013508D01*
X4584944Y-14013508D02*
X4594468Y-14023031D01*
X4594468Y-14023031D02*
X4603991Y-14042079D01*
X4603991Y-14042079D02*
X4603991Y-14051603D01*
X4603991Y-14051603D02*
X4594468Y-14070650D01*
X4594468Y-14070650D02*
X4584944Y-14080174D01*
X4584944Y-14080174D02*
X4565896Y-14089698D01*
X4565896Y-14089698D02*
X4527801Y-14089698D01*
X4527801Y-14089698D02*
X4508753Y-14099222D01*
X4508753Y-14099222D02*
X4499229Y-14108746D01*
X4499229Y-14108746D02*
X4489706Y-14127793D01*
X4489706Y-14127793D02*
X4489706Y-14165888D01*
X4489706Y-14165888D02*
X4499229Y-14184936D01*
X4499229Y-14184936D02*
X4508753Y-14194460D01*
X4508753Y-14194460D02*
X4527801Y-14203984D01*
X4527801Y-14203984D02*
X4565896Y-14203984D01*
X4565896Y-14203984D02*
X4584944Y-14194460D01*
X4584944Y-14194460D02*
X4594468Y-14184936D01*
X4594468Y-14184936D02*
X4603991Y-14165888D01*
X4603991Y-14165888D02*
X4603991Y-14127793D01*
X4603991Y-14127793D02*
X4594468Y-14108746D01*
X4594468Y-14108746D02*
X4584944Y-14099222D01*
X4584944Y-14099222D02*
X4565896Y-14089698D01*
X4680182Y-14023031D02*
X4689706Y-14013508D01*
X4689706Y-14013508D02*
X4708753Y-14003984D01*
X4708753Y-14003984D02*
X4756372Y-14003984D01*
X4756372Y-14003984D02*
X4775420Y-14013508D01*
X4775420Y-14013508D02*
X4784944Y-14023031D01*
X4784944Y-14023031D02*
X4794468Y-14042079D01*
X4794468Y-14042079D02*
X4794468Y-14061127D01*
X4794468Y-14061127D02*
X4784944Y-14089698D01*
X4784944Y-14089698D02*
X4670658Y-14203984D01*
X4670658Y-14203984D02*
X4794468Y-14203984D01*
X4861134Y-14003984D02*
X4994468Y-14003984D01*
X4994468Y-14003984D02*
X4908753Y-14203984D01*
X5061134Y-14003984D02*
X5061134Y-14042079D01*
X5137325Y-14003984D02*
X5137325Y-14042079D01*
X5432563Y-14280174D02*
X5423039Y-14270650D01*
X5423039Y-14270650D02*
X5403991Y-14242079D01*
X5403991Y-14242079D02*
X5394468Y-14223031D01*
X5394468Y-14223031D02*
X5384944Y-14194460D01*
X5384944Y-14194460D02*
X5375420Y-14146841D01*
X5375420Y-14146841D02*
X5375420Y-14108746D01*
X5375420Y-14108746D02*
X5384944Y-14061127D01*
X5384944Y-14061127D02*
X5394468Y-14032555D01*
X5394468Y-14032555D02*
X5403991Y-14013508D01*
X5403991Y-14013508D02*
X5423039Y-13984936D01*
X5423039Y-13984936D02*
X5432563Y-13975412D01*
X5537325Y-14089698D02*
X5518277Y-14080174D01*
X5518277Y-14080174D02*
X5508753Y-14070650D01*
X5508753Y-14070650D02*
X5499230Y-14051603D01*
X5499230Y-14051603D02*
X5499230Y-14042079D01*
X5499230Y-14042079D02*
X5508753Y-14023031D01*
X5508753Y-14023031D02*
X5518277Y-14013508D01*
X5518277Y-14013508D02*
X5537325Y-14003984D01*
X5537325Y-14003984D02*
X5575420Y-14003984D01*
X5575420Y-14003984D02*
X5594468Y-14013508D01*
X5594468Y-14013508D02*
X5603991Y-14023031D01*
X5603991Y-14023031D02*
X5613515Y-14042079D01*
X5613515Y-14042079D02*
X5613515Y-14051603D01*
X5613515Y-14051603D02*
X5603991Y-14070650D01*
X5603991Y-14070650D02*
X5594468Y-14080174D01*
X5594468Y-14080174D02*
X5575420Y-14089698D01*
X5575420Y-14089698D02*
X5537325Y-14089698D01*
X5537325Y-14089698D02*
X5518277Y-14099222D01*
X5518277Y-14099222D02*
X5508753Y-14108746D01*
X5508753Y-14108746D02*
X5499230Y-14127793D01*
X5499230Y-14127793D02*
X5499230Y-14165888D01*
X5499230Y-14165888D02*
X5508753Y-14184936D01*
X5508753Y-14184936D02*
X5518277Y-14194460D01*
X5518277Y-14194460D02*
X5537325Y-14203984D01*
X5537325Y-14203984D02*
X5575420Y-14203984D01*
X5575420Y-14203984D02*
X5594468Y-14194460D01*
X5594468Y-14194460D02*
X5603991Y-14184936D01*
X5603991Y-14184936D02*
X5613515Y-14165888D01*
X5613515Y-14165888D02*
X5613515Y-14127793D01*
X5613515Y-14127793D02*
X5603991Y-14108746D01*
X5603991Y-14108746D02*
X5594468Y-14099222D01*
X5594468Y-14099222D02*
X5575420Y-14089698D01*
X5851610Y-14203984D02*
X5851610Y-14003984D01*
X5937325Y-14203984D02*
X5937325Y-14099222D01*
X5937325Y-14099222D02*
X5927801Y-14080174D01*
X5927801Y-14080174D02*
X5908753Y-14070650D01*
X5908753Y-14070650D02*
X5880182Y-14070650D01*
X5880182Y-14070650D02*
X5861134Y-14080174D01*
X5861134Y-14080174D02*
X5851610Y-14089698D01*
X6061134Y-14203984D02*
X6042087Y-14194460D01*
X6042087Y-14194460D02*
X6032563Y-14184936D01*
X6032563Y-14184936D02*
X6023039Y-14165888D01*
X6023039Y-14165888D02*
X6023039Y-14108746D01*
X6023039Y-14108746D02*
X6032563Y-14089698D01*
X6032563Y-14089698D02*
X6042087Y-14080174D01*
X6042087Y-14080174D02*
X6061134Y-14070650D01*
X6061134Y-14070650D02*
X6089706Y-14070650D01*
X6089706Y-14070650D02*
X6108753Y-14080174D01*
X6108753Y-14080174D02*
X6118277Y-14089698D01*
X6118277Y-14089698D02*
X6127801Y-14108746D01*
X6127801Y-14108746D02*
X6127801Y-14165888D01*
X6127801Y-14165888D02*
X6118277Y-14184936D01*
X6118277Y-14184936D02*
X6108753Y-14194460D01*
X6108753Y-14194460D02*
X6089706Y-14203984D01*
X6089706Y-14203984D02*
X6061134Y-14203984D01*
X6242087Y-14203984D02*
X6223039Y-14194460D01*
X6223039Y-14194460D02*
X6213515Y-14175412D01*
X6213515Y-14175412D02*
X6213515Y-14003984D01*
X6394468Y-14194460D02*
X6375420Y-14203984D01*
X6375420Y-14203984D02*
X6337325Y-14203984D01*
X6337325Y-14203984D02*
X6318277Y-14194460D01*
X6318277Y-14194460D02*
X6308753Y-14175412D01*
X6308753Y-14175412D02*
X6308753Y-14099222D01*
X6308753Y-14099222D02*
X6318277Y-14080174D01*
X6318277Y-14080174D02*
X6337325Y-14070650D01*
X6337325Y-14070650D02*
X6375420Y-14070650D01*
X6375420Y-14070650D02*
X6394468Y-14080174D01*
X6394468Y-14080174D02*
X6403991Y-14099222D01*
X6403991Y-14099222D02*
X6403991Y-14118269D01*
X6403991Y-14118269D02*
X6308753Y-14137317D01*
X6480182Y-14194460D02*
X6499230Y-14203984D01*
X6499230Y-14203984D02*
X6537325Y-14203984D01*
X6537325Y-14203984D02*
X6556372Y-14194460D01*
X6556372Y-14194460D02*
X6565896Y-14175412D01*
X6565896Y-14175412D02*
X6565896Y-14165888D01*
X6565896Y-14165888D02*
X6556372Y-14146841D01*
X6556372Y-14146841D02*
X6537325Y-14137317D01*
X6537325Y-14137317D02*
X6508753Y-14137317D01*
X6508753Y-14137317D02*
X6489706Y-14127793D01*
X6489706Y-14127793D02*
X6480182Y-14108746D01*
X6480182Y-14108746D02*
X6480182Y-14099222D01*
X6480182Y-14099222D02*
X6489706Y-14080174D01*
X6489706Y-14080174D02*
X6508753Y-14070650D01*
X6508753Y-14070650D02*
X6537325Y-14070650D01*
X6537325Y-14070650D02*
X6556372Y-14080174D01*
X6632563Y-14280174D02*
X6642087Y-14270650D01*
X6642087Y-14270650D02*
X6661134Y-14242079D01*
X6661134Y-14242079D02*
X6670658Y-14223031D01*
X6670658Y-14223031D02*
X6680182Y-14194460D01*
X6680182Y-14194460D02*
X6689706Y-14146841D01*
X6689706Y-14146841D02*
X6689706Y-14108746D01*
X6689706Y-14108746D02*
X6680182Y-14061127D01*
X6680182Y-14061127D02*
X6670658Y-14032555D01*
X6670658Y-14032555D02*
X6661134Y-14013508D01*
X6661134Y-14013508D02*
X6642087Y-13984936D01*
X6642087Y-13984936D02*
X6632563Y-13975412D01*
X6994468Y-14280174D02*
X6984944Y-14270650D01*
X6984944Y-14270650D02*
X6965896Y-14242079D01*
X6965896Y-14242079D02*
X6956372Y-14223031D01*
X6956372Y-14223031D02*
X6946849Y-14194460D01*
X6946849Y-14194460D02*
X6937325Y-14146841D01*
X6937325Y-14146841D02*
X6937325Y-14108746D01*
X6937325Y-14108746D02*
X6946849Y-14061127D01*
X6946849Y-14061127D02*
X6956372Y-14032555D01*
X6956372Y-14032555D02*
X6965896Y-14013508D01*
X6965896Y-14013508D02*
X6984944Y-13984936D01*
X6984944Y-13984936D02*
X6994468Y-13975412D01*
X7070658Y-14070650D02*
X7070658Y-14203984D01*
X7070658Y-14089698D02*
X7080182Y-14080174D01*
X7080182Y-14080174D02*
X7099230Y-14070650D01*
X7099230Y-14070650D02*
X7127801Y-14070650D01*
X7127801Y-14070650D02*
X7146849Y-14080174D01*
X7146849Y-14080174D02*
X7156372Y-14099222D01*
X7156372Y-14099222D02*
X7156372Y-14203984D01*
X7280182Y-14203984D02*
X7261134Y-14194460D01*
X7261134Y-14194460D02*
X7251611Y-14184936D01*
X7251611Y-14184936D02*
X7242087Y-14165888D01*
X7242087Y-14165888D02*
X7242087Y-14108746D01*
X7242087Y-14108746D02*
X7251611Y-14089698D01*
X7251611Y-14089698D02*
X7261134Y-14080174D01*
X7261134Y-14080174D02*
X7280182Y-14070650D01*
X7280182Y-14070650D02*
X7308753Y-14070650D01*
X7308753Y-14070650D02*
X7327801Y-14080174D01*
X7327801Y-14080174D02*
X7337325Y-14089698D01*
X7337325Y-14089698D02*
X7346849Y-14108746D01*
X7346849Y-14108746D02*
X7346849Y-14165888D01*
X7346849Y-14165888D02*
X7337325Y-14184936D01*
X7337325Y-14184936D02*
X7327801Y-14194460D01*
X7327801Y-14194460D02*
X7308753Y-14203984D01*
X7308753Y-14203984D02*
X7280182Y-14203984D01*
X7403992Y-14070650D02*
X7480182Y-14070650D01*
X7432563Y-14003984D02*
X7432563Y-14175412D01*
X7432563Y-14175412D02*
X7442087Y-14194460D01*
X7442087Y-14194460D02*
X7461134Y-14203984D01*
X7461134Y-14203984D02*
X7480182Y-14203984D01*
X7699230Y-14070650D02*
X7699230Y-14270650D01*
X7699230Y-14080174D02*
X7718277Y-14070650D01*
X7718277Y-14070650D02*
X7756373Y-14070650D01*
X7756373Y-14070650D02*
X7775420Y-14080174D01*
X7775420Y-14080174D02*
X7784944Y-14089698D01*
X7784944Y-14089698D02*
X7794468Y-14108746D01*
X7794468Y-14108746D02*
X7794468Y-14165888D01*
X7794468Y-14165888D02*
X7784944Y-14184936D01*
X7784944Y-14184936D02*
X7775420Y-14194460D01*
X7775420Y-14194460D02*
X7756373Y-14203984D01*
X7756373Y-14203984D02*
X7718277Y-14203984D01*
X7718277Y-14203984D02*
X7699230Y-14194460D01*
X7908753Y-14203984D02*
X7889706Y-14194460D01*
X7889706Y-14194460D02*
X7880182Y-14175412D01*
X7880182Y-14175412D02*
X7880182Y-14003984D01*
X8070658Y-14203984D02*
X8070658Y-14099222D01*
X8070658Y-14099222D02*
X8061134Y-14080174D01*
X8061134Y-14080174D02*
X8042087Y-14070650D01*
X8042087Y-14070650D02*
X8003992Y-14070650D01*
X8003992Y-14070650D02*
X7984944Y-14080174D01*
X8070658Y-14194460D02*
X8051611Y-14203984D01*
X8051611Y-14203984D02*
X8003992Y-14203984D01*
X8003992Y-14203984D02*
X7984944Y-14194460D01*
X7984944Y-14194460D02*
X7975420Y-14175412D01*
X7975420Y-14175412D02*
X7975420Y-14156365D01*
X7975420Y-14156365D02*
X7984944Y-14137317D01*
X7984944Y-14137317D02*
X8003992Y-14127793D01*
X8003992Y-14127793D02*
X8051611Y-14127793D01*
X8051611Y-14127793D02*
X8070658Y-14118269D01*
X8137325Y-14070650D02*
X8213515Y-14070650D01*
X8165896Y-14003984D02*
X8165896Y-14175412D01*
X8165896Y-14175412D02*
X8175420Y-14194460D01*
X8175420Y-14194460D02*
X8194468Y-14203984D01*
X8194468Y-14203984D02*
X8213515Y-14203984D01*
X8356373Y-14194460D02*
X8337325Y-14203984D01*
X8337325Y-14203984D02*
X8299230Y-14203984D01*
X8299230Y-14203984D02*
X8280182Y-14194460D01*
X8280182Y-14194460D02*
X8270658Y-14175412D01*
X8270658Y-14175412D02*
X8270658Y-14099222D01*
X8270658Y-14099222D02*
X8280182Y-14080174D01*
X8280182Y-14080174D02*
X8299230Y-14070650D01*
X8299230Y-14070650D02*
X8337325Y-14070650D01*
X8337325Y-14070650D02*
X8356373Y-14080174D01*
X8356373Y-14080174D02*
X8365896Y-14099222D01*
X8365896Y-14099222D02*
X8365896Y-14118269D01*
X8365896Y-14118269D02*
X8270658Y-14137317D01*
X8537325Y-14203984D02*
X8537325Y-14003984D01*
X8537325Y-14194460D02*
X8518277Y-14203984D01*
X8518277Y-14203984D02*
X8480182Y-14203984D01*
X8480182Y-14203984D02*
X8461135Y-14194460D01*
X8461135Y-14194460D02*
X8451611Y-14184936D01*
X8451611Y-14184936D02*
X8442087Y-14165888D01*
X8442087Y-14165888D02*
X8442087Y-14108746D01*
X8442087Y-14108746D02*
X8451611Y-14089698D01*
X8451611Y-14089698D02*
X8461135Y-14080174D01*
X8461135Y-14080174D02*
X8480182Y-14070650D01*
X8480182Y-14070650D02*
X8518277Y-14070650D01*
X8518277Y-14070650D02*
X8537325Y-14080174D01*
X8613516Y-14280174D02*
X8623039Y-14270650D01*
X8623039Y-14270650D02*
X8642087Y-14242079D01*
X8642087Y-14242079D02*
X8651611Y-14223031D01*
X8651611Y-14223031D02*
X8661135Y-14194460D01*
X8661135Y-14194460D02*
X8670658Y-14146841D01*
X8670658Y-14146841D02*
X8670658Y-14108746D01*
X8670658Y-14108746D02*
X8661135Y-14061127D01*
X8661135Y-14061127D02*
X8651611Y-14032555D01*
X8651611Y-14032555D02*
X8642087Y-14013508D01*
X8642087Y-14013508D02*
X8623039Y-13984936D01*
X8623039Y-13984936D02*
X8613516Y-13975412D01*
X1757500Y-14332500D02*
X1757500Y-14532500D01*
X1657500Y-14432500D02*
X1857500Y-14432500D01*
X2099229Y-14323984D02*
X2223039Y-14323984D01*
X2223039Y-14323984D02*
X2156372Y-14400174D01*
X2156372Y-14400174D02*
X2184944Y-14400174D01*
X2184944Y-14400174D02*
X2203991Y-14409698D01*
X2203991Y-14409698D02*
X2213515Y-14419222D01*
X2213515Y-14419222D02*
X2223039Y-14438269D01*
X2223039Y-14438269D02*
X2223039Y-14485888D01*
X2223039Y-14485888D02*
X2213515Y-14504936D01*
X2213515Y-14504936D02*
X2203991Y-14514460D01*
X2203991Y-14514460D02*
X2184944Y-14523984D01*
X2184944Y-14523984D02*
X2127801Y-14523984D01*
X2127801Y-14523984D02*
X2108753Y-14514460D01*
X2108753Y-14514460D02*
X2099229Y-14504936D01*
X2308753Y-14504936D02*
X2318277Y-14514460D01*
X2318277Y-14514460D02*
X2308753Y-14523984D01*
X2308753Y-14523984D02*
X2299229Y-14514460D01*
X2299229Y-14514460D02*
X2308753Y-14504936D01*
X2308753Y-14504936D02*
X2308753Y-14523984D01*
X2442086Y-14323984D02*
X2461134Y-14323984D01*
X2461134Y-14323984D02*
X2480182Y-14333508D01*
X2480182Y-14333508D02*
X2489705Y-14343031D01*
X2489705Y-14343031D02*
X2499229Y-14362079D01*
X2499229Y-14362079D02*
X2508753Y-14400174D01*
X2508753Y-14400174D02*
X2508753Y-14447793D01*
X2508753Y-14447793D02*
X2499229Y-14485888D01*
X2499229Y-14485888D02*
X2489705Y-14504936D01*
X2489705Y-14504936D02*
X2480182Y-14514460D01*
X2480182Y-14514460D02*
X2461134Y-14523984D01*
X2461134Y-14523984D02*
X2442086Y-14523984D01*
X2442086Y-14523984D02*
X2423039Y-14514460D01*
X2423039Y-14514460D02*
X2413515Y-14504936D01*
X2413515Y-14504936D02*
X2403991Y-14485888D01*
X2403991Y-14485888D02*
X2394467Y-14447793D01*
X2394467Y-14447793D02*
X2394467Y-14400174D01*
X2394467Y-14400174D02*
X2403991Y-14362079D01*
X2403991Y-14362079D02*
X2413515Y-14343031D01*
X2413515Y-14343031D02*
X2423039Y-14333508D01*
X2423039Y-14333508D02*
X2442086Y-14323984D01*
X2632563Y-14323984D02*
X2651610Y-14323984D01*
X2651610Y-14323984D02*
X2670658Y-14333508D01*
X2670658Y-14333508D02*
X2680182Y-14343031D01*
X2680182Y-14343031D02*
X2689705Y-14362079D01*
X2689705Y-14362079D02*
X2699229Y-14400174D01*
X2699229Y-14400174D02*
X2699229Y-14447793D01*
X2699229Y-14447793D02*
X2689705Y-14485888D01*
X2689705Y-14485888D02*
X2680182Y-14504936D01*
X2680182Y-14504936D02*
X2670658Y-14514460D01*
X2670658Y-14514460D02*
X2651610Y-14523984D01*
X2651610Y-14523984D02*
X2632563Y-14523984D01*
X2632563Y-14523984D02*
X2613515Y-14514460D01*
X2613515Y-14514460D02*
X2603991Y-14504936D01*
X2603991Y-14504936D02*
X2594467Y-14485888D01*
X2594467Y-14485888D02*
X2584944Y-14447793D01*
X2584944Y-14447793D02*
X2584944Y-14400174D01*
X2584944Y-14400174D02*
X2594467Y-14362079D01*
X2594467Y-14362079D02*
X2603991Y-14343031D01*
X2603991Y-14343031D02*
X2613515Y-14333508D01*
X2613515Y-14333508D02*
X2632563Y-14323984D01*
X2823039Y-14323984D02*
X2842086Y-14323984D01*
X2842086Y-14323984D02*
X2861134Y-14333508D01*
X2861134Y-14333508D02*
X2870658Y-14343031D01*
X2870658Y-14343031D02*
X2880182Y-14362079D01*
X2880182Y-14362079D02*
X2889705Y-14400174D01*
X2889705Y-14400174D02*
X2889705Y-14447793D01*
X2889705Y-14447793D02*
X2880182Y-14485888D01*
X2880182Y-14485888D02*
X2870658Y-14504936D01*
X2870658Y-14504936D02*
X2861134Y-14514460D01*
X2861134Y-14514460D02*
X2842086Y-14523984D01*
X2842086Y-14523984D02*
X2823039Y-14523984D01*
X2823039Y-14523984D02*
X2803991Y-14514460D01*
X2803991Y-14514460D02*
X2794467Y-14504936D01*
X2794467Y-14504936D02*
X2784944Y-14485888D01*
X2784944Y-14485888D02*
X2775420Y-14447793D01*
X2775420Y-14447793D02*
X2775420Y-14400174D01*
X2775420Y-14400174D02*
X2784944Y-14362079D01*
X2784944Y-14362079D02*
X2794467Y-14343031D01*
X2794467Y-14343031D02*
X2803991Y-14333508D01*
X2803991Y-14333508D02*
X2823039Y-14323984D01*
X2975420Y-14523984D02*
X2975420Y-14390650D01*
X2975420Y-14409698D02*
X2984943Y-14400174D01*
X2984943Y-14400174D02*
X3003991Y-14390650D01*
X3003991Y-14390650D02*
X3032563Y-14390650D01*
X3032563Y-14390650D02*
X3051610Y-14400174D01*
X3051610Y-14400174D02*
X3061134Y-14419222D01*
X3061134Y-14419222D02*
X3061134Y-14523984D01*
X3061134Y-14419222D02*
X3070658Y-14400174D01*
X3070658Y-14400174D02*
X3089705Y-14390650D01*
X3089705Y-14390650D02*
X3118277Y-14390650D01*
X3118277Y-14390650D02*
X3137324Y-14400174D01*
X3137324Y-14400174D02*
X3146848Y-14419222D01*
X3146848Y-14419222D02*
X3146848Y-14523984D01*
X3242086Y-14523984D02*
X3242086Y-14390650D01*
X3242086Y-14409698D02*
X3251610Y-14400174D01*
X3251610Y-14400174D02*
X3270658Y-14390650D01*
X3270658Y-14390650D02*
X3299229Y-14390650D01*
X3299229Y-14390650D02*
X3318277Y-14400174D01*
X3318277Y-14400174D02*
X3327801Y-14419222D01*
X3327801Y-14419222D02*
X3327801Y-14523984D01*
X3327801Y-14419222D02*
X3337324Y-14400174D01*
X3337324Y-14400174D02*
X3356372Y-14390650D01*
X3356372Y-14390650D02*
X3384943Y-14390650D01*
X3384943Y-14390650D02*
X3403991Y-14400174D01*
X3403991Y-14400174D02*
X3413515Y-14419222D01*
X3413515Y-14419222D02*
X3413515Y-14523984D01*
X3803991Y-14314460D02*
X3632563Y-14571603D01*
X4061134Y-14323984D02*
X4080182Y-14323984D01*
X4080182Y-14323984D02*
X4099229Y-14333508D01*
X4099229Y-14333508D02*
X4108753Y-14343031D01*
X4108753Y-14343031D02*
X4118277Y-14362079D01*
X4118277Y-14362079D02*
X4127801Y-14400174D01*
X4127801Y-14400174D02*
X4127801Y-14447793D01*
X4127801Y-14447793D02*
X4118277Y-14485888D01*
X4118277Y-14485888D02*
X4108753Y-14504936D01*
X4108753Y-14504936D02*
X4099229Y-14514460D01*
X4099229Y-14514460D02*
X4080182Y-14523984D01*
X4080182Y-14523984D02*
X4061134Y-14523984D01*
X4061134Y-14523984D02*
X4042086Y-14514460D01*
X4042086Y-14514460D02*
X4032563Y-14504936D01*
X4032563Y-14504936D02*
X4023039Y-14485888D01*
X4023039Y-14485888D02*
X4013515Y-14447793D01*
X4013515Y-14447793D02*
X4013515Y-14400174D01*
X4013515Y-14400174D02*
X4023039Y-14362079D01*
X4023039Y-14362079D02*
X4032563Y-14343031D01*
X4032563Y-14343031D02*
X4042086Y-14333508D01*
X4042086Y-14333508D02*
X4061134Y-14323984D01*
X4213515Y-14504936D02*
X4223039Y-14514460D01*
X4223039Y-14514460D02*
X4213515Y-14523984D01*
X4213515Y-14523984D02*
X4203991Y-14514460D01*
X4203991Y-14514460D02*
X4213515Y-14504936D01*
X4213515Y-14504936D02*
X4213515Y-14523984D01*
X4413515Y-14523984D02*
X4299229Y-14523984D01*
X4356372Y-14523984D02*
X4356372Y-14323984D01*
X4356372Y-14323984D02*
X4337325Y-14352555D01*
X4337325Y-14352555D02*
X4318277Y-14371603D01*
X4318277Y-14371603D02*
X4299229Y-14381127D01*
X4603991Y-14523984D02*
X4489706Y-14523984D01*
X4546848Y-14523984D02*
X4546848Y-14323984D01*
X4546848Y-14323984D02*
X4527801Y-14352555D01*
X4527801Y-14352555D02*
X4508753Y-14371603D01*
X4508753Y-14371603D02*
X4489706Y-14381127D01*
X4718277Y-14409698D02*
X4699229Y-14400174D01*
X4699229Y-14400174D02*
X4689706Y-14390650D01*
X4689706Y-14390650D02*
X4680182Y-14371603D01*
X4680182Y-14371603D02*
X4680182Y-14362079D01*
X4680182Y-14362079D02*
X4689706Y-14343031D01*
X4689706Y-14343031D02*
X4699229Y-14333508D01*
X4699229Y-14333508D02*
X4718277Y-14323984D01*
X4718277Y-14323984D02*
X4756372Y-14323984D01*
X4756372Y-14323984D02*
X4775420Y-14333508D01*
X4775420Y-14333508D02*
X4784944Y-14343031D01*
X4784944Y-14343031D02*
X4794468Y-14362079D01*
X4794468Y-14362079D02*
X4794468Y-14371603D01*
X4794468Y-14371603D02*
X4784944Y-14390650D01*
X4784944Y-14390650D02*
X4775420Y-14400174D01*
X4775420Y-14400174D02*
X4756372Y-14409698D01*
X4756372Y-14409698D02*
X4718277Y-14409698D01*
X4718277Y-14409698D02*
X4699229Y-14419222D01*
X4699229Y-14419222D02*
X4689706Y-14428746D01*
X4689706Y-14428746D02*
X4680182Y-14447793D01*
X4680182Y-14447793D02*
X4680182Y-14485888D01*
X4680182Y-14485888D02*
X4689706Y-14504936D01*
X4689706Y-14504936D02*
X4699229Y-14514460D01*
X4699229Y-14514460D02*
X4718277Y-14523984D01*
X4718277Y-14523984D02*
X4756372Y-14523984D01*
X4756372Y-14523984D02*
X4775420Y-14514460D01*
X4775420Y-14514460D02*
X4784944Y-14504936D01*
X4784944Y-14504936D02*
X4794468Y-14485888D01*
X4794468Y-14485888D02*
X4794468Y-14447793D01*
X4794468Y-14447793D02*
X4784944Y-14428746D01*
X4784944Y-14428746D02*
X4775420Y-14419222D01*
X4775420Y-14419222D02*
X4756372Y-14409698D01*
X4984944Y-14523984D02*
X4870658Y-14523984D01*
X4927801Y-14523984D02*
X4927801Y-14323984D01*
X4927801Y-14323984D02*
X4908753Y-14352555D01*
X4908753Y-14352555D02*
X4889706Y-14371603D01*
X4889706Y-14371603D02*
X4870658Y-14381127D01*
X5061134Y-14323984D02*
X5061134Y-14362079D01*
X5137325Y-14323984D02*
X5137325Y-14362079D01*
X5432563Y-14600174D02*
X5423039Y-14590650D01*
X5423039Y-14590650D02*
X5403991Y-14562079D01*
X5403991Y-14562079D02*
X5394468Y-14543031D01*
X5394468Y-14543031D02*
X5384944Y-14514460D01*
X5384944Y-14514460D02*
X5375420Y-14466841D01*
X5375420Y-14466841D02*
X5375420Y-14428746D01*
X5375420Y-14428746D02*
X5384944Y-14381127D01*
X5384944Y-14381127D02*
X5394468Y-14352555D01*
X5394468Y-14352555D02*
X5403991Y-14333508D01*
X5403991Y-14333508D02*
X5423039Y-14304936D01*
X5423039Y-14304936D02*
X5432563Y-14295412D01*
X5499230Y-14343031D02*
X5508753Y-14333508D01*
X5508753Y-14333508D02*
X5527801Y-14323984D01*
X5527801Y-14323984D02*
X5575420Y-14323984D01*
X5575420Y-14323984D02*
X5594468Y-14333508D01*
X5594468Y-14333508D02*
X5603991Y-14343031D01*
X5603991Y-14343031D02*
X5613515Y-14362079D01*
X5613515Y-14362079D02*
X5613515Y-14381127D01*
X5613515Y-14381127D02*
X5603991Y-14409698D01*
X5603991Y-14409698D02*
X5489706Y-14523984D01*
X5489706Y-14523984D02*
X5613515Y-14523984D01*
X5737325Y-14323984D02*
X5756372Y-14323984D01*
X5756372Y-14323984D02*
X5775420Y-14333508D01*
X5775420Y-14333508D02*
X5784944Y-14343031D01*
X5784944Y-14343031D02*
X5794468Y-14362079D01*
X5794468Y-14362079D02*
X5803991Y-14400174D01*
X5803991Y-14400174D02*
X5803991Y-14447793D01*
X5803991Y-14447793D02*
X5794468Y-14485888D01*
X5794468Y-14485888D02*
X5784944Y-14504936D01*
X5784944Y-14504936D02*
X5775420Y-14514460D01*
X5775420Y-14514460D02*
X5756372Y-14523984D01*
X5756372Y-14523984D02*
X5737325Y-14523984D01*
X5737325Y-14523984D02*
X5718277Y-14514460D01*
X5718277Y-14514460D02*
X5708753Y-14504936D01*
X5708753Y-14504936D02*
X5699229Y-14485888D01*
X5699229Y-14485888D02*
X5689706Y-14447793D01*
X5689706Y-14447793D02*
X5689706Y-14400174D01*
X5689706Y-14400174D02*
X5699229Y-14362079D01*
X5699229Y-14362079D02*
X5708753Y-14343031D01*
X5708753Y-14343031D02*
X5718277Y-14333508D01*
X5718277Y-14333508D02*
X5737325Y-14323984D01*
X6042087Y-14523984D02*
X6042087Y-14323984D01*
X6127801Y-14523984D02*
X6127801Y-14419222D01*
X6127801Y-14419222D02*
X6118277Y-14400174D01*
X6118277Y-14400174D02*
X6099230Y-14390650D01*
X6099230Y-14390650D02*
X6070658Y-14390650D01*
X6070658Y-14390650D02*
X6051610Y-14400174D01*
X6051610Y-14400174D02*
X6042087Y-14409698D01*
X6251610Y-14523984D02*
X6232563Y-14514460D01*
X6232563Y-14514460D02*
X6223039Y-14504936D01*
X6223039Y-14504936D02*
X6213515Y-14485888D01*
X6213515Y-14485888D02*
X6213515Y-14428746D01*
X6213515Y-14428746D02*
X6223039Y-14409698D01*
X6223039Y-14409698D02*
X6232563Y-14400174D01*
X6232563Y-14400174D02*
X6251610Y-14390650D01*
X6251610Y-14390650D02*
X6280182Y-14390650D01*
X6280182Y-14390650D02*
X6299230Y-14400174D01*
X6299230Y-14400174D02*
X6308753Y-14409698D01*
X6308753Y-14409698D02*
X6318277Y-14428746D01*
X6318277Y-14428746D02*
X6318277Y-14485888D01*
X6318277Y-14485888D02*
X6308753Y-14504936D01*
X6308753Y-14504936D02*
X6299230Y-14514460D01*
X6299230Y-14514460D02*
X6280182Y-14523984D01*
X6280182Y-14523984D02*
X6251610Y-14523984D01*
X6432563Y-14523984D02*
X6413515Y-14514460D01*
X6413515Y-14514460D02*
X6403991Y-14495412D01*
X6403991Y-14495412D02*
X6403991Y-14323984D01*
X6584944Y-14514460D02*
X6565896Y-14523984D01*
X6565896Y-14523984D02*
X6527801Y-14523984D01*
X6527801Y-14523984D02*
X6508753Y-14514460D01*
X6508753Y-14514460D02*
X6499230Y-14495412D01*
X6499230Y-14495412D02*
X6499230Y-14419222D01*
X6499230Y-14419222D02*
X6508753Y-14400174D01*
X6508753Y-14400174D02*
X6527801Y-14390650D01*
X6527801Y-14390650D02*
X6565896Y-14390650D01*
X6565896Y-14390650D02*
X6584944Y-14400174D01*
X6584944Y-14400174D02*
X6594468Y-14419222D01*
X6594468Y-14419222D02*
X6594468Y-14438269D01*
X6594468Y-14438269D02*
X6499230Y-14457317D01*
X6670658Y-14514460D02*
X6689706Y-14523984D01*
X6689706Y-14523984D02*
X6727801Y-14523984D01*
X6727801Y-14523984D02*
X6746849Y-14514460D01*
X6746849Y-14514460D02*
X6756372Y-14495412D01*
X6756372Y-14495412D02*
X6756372Y-14485888D01*
X6756372Y-14485888D02*
X6746849Y-14466841D01*
X6746849Y-14466841D02*
X6727801Y-14457317D01*
X6727801Y-14457317D02*
X6699230Y-14457317D01*
X6699230Y-14457317D02*
X6680182Y-14447793D01*
X6680182Y-14447793D02*
X6670658Y-14428746D01*
X6670658Y-14428746D02*
X6670658Y-14419222D01*
X6670658Y-14419222D02*
X6680182Y-14400174D01*
X6680182Y-14400174D02*
X6699230Y-14390650D01*
X6699230Y-14390650D02*
X6727801Y-14390650D01*
X6727801Y-14390650D02*
X6746849Y-14400174D01*
X6823039Y-14600174D02*
X6832563Y-14590650D01*
X6832563Y-14590650D02*
X6851611Y-14562079D01*
X6851611Y-14562079D02*
X6861134Y-14543031D01*
X6861134Y-14543031D02*
X6870658Y-14514460D01*
X6870658Y-14514460D02*
X6880182Y-14466841D01*
X6880182Y-14466841D02*
X6880182Y-14428746D01*
X6880182Y-14428746D02*
X6870658Y-14381127D01*
X6870658Y-14381127D02*
X6861134Y-14352555D01*
X6861134Y-14352555D02*
X6851611Y-14333508D01*
X6851611Y-14333508D02*
X6832563Y-14304936D01*
X6832563Y-14304936D02*
X6823039Y-14295412D01*
X7184944Y-14600174D02*
X7175420Y-14590650D01*
X7175420Y-14590650D02*
X7156372Y-14562079D01*
X7156372Y-14562079D02*
X7146849Y-14543031D01*
X7146849Y-14543031D02*
X7137325Y-14514460D01*
X7137325Y-14514460D02*
X7127801Y-14466841D01*
X7127801Y-14466841D02*
X7127801Y-14428746D01*
X7127801Y-14428746D02*
X7137325Y-14381127D01*
X7137325Y-14381127D02*
X7146849Y-14352555D01*
X7146849Y-14352555D02*
X7156372Y-14333508D01*
X7156372Y-14333508D02*
X7175420Y-14304936D01*
X7175420Y-14304936D02*
X7184944Y-14295412D01*
X7261134Y-14390650D02*
X7261134Y-14523984D01*
X7261134Y-14409698D02*
X7270658Y-14400174D01*
X7270658Y-14400174D02*
X7289706Y-14390650D01*
X7289706Y-14390650D02*
X7318277Y-14390650D01*
X7318277Y-14390650D02*
X7337325Y-14400174D01*
X7337325Y-14400174D02*
X7346849Y-14419222D01*
X7346849Y-14419222D02*
X7346849Y-14523984D01*
X7470658Y-14523984D02*
X7451611Y-14514460D01*
X7451611Y-14514460D02*
X7442087Y-14504936D01*
X7442087Y-14504936D02*
X7432563Y-14485888D01*
X7432563Y-14485888D02*
X7432563Y-14428746D01*
X7432563Y-14428746D02*
X7442087Y-14409698D01*
X7442087Y-14409698D02*
X7451611Y-14400174D01*
X7451611Y-14400174D02*
X7470658Y-14390650D01*
X7470658Y-14390650D02*
X7499230Y-14390650D01*
X7499230Y-14390650D02*
X7518277Y-14400174D01*
X7518277Y-14400174D02*
X7527801Y-14409698D01*
X7527801Y-14409698D02*
X7537325Y-14428746D01*
X7537325Y-14428746D02*
X7537325Y-14485888D01*
X7537325Y-14485888D02*
X7527801Y-14504936D01*
X7527801Y-14504936D02*
X7518277Y-14514460D01*
X7518277Y-14514460D02*
X7499230Y-14523984D01*
X7499230Y-14523984D02*
X7470658Y-14523984D01*
X7594468Y-14390650D02*
X7670658Y-14390650D01*
X7623039Y-14323984D02*
X7623039Y-14495412D01*
X7623039Y-14495412D02*
X7632563Y-14514460D01*
X7632563Y-14514460D02*
X7651611Y-14523984D01*
X7651611Y-14523984D02*
X7670658Y-14523984D01*
X7889706Y-14390650D02*
X7889706Y-14590650D01*
X7889706Y-14400174D02*
X7908753Y-14390650D01*
X7908753Y-14390650D02*
X7946849Y-14390650D01*
X7946849Y-14390650D02*
X7965896Y-14400174D01*
X7965896Y-14400174D02*
X7975420Y-14409698D01*
X7975420Y-14409698D02*
X7984944Y-14428746D01*
X7984944Y-14428746D02*
X7984944Y-14485888D01*
X7984944Y-14485888D02*
X7975420Y-14504936D01*
X7975420Y-14504936D02*
X7965896Y-14514460D01*
X7965896Y-14514460D02*
X7946849Y-14523984D01*
X7946849Y-14523984D02*
X7908753Y-14523984D01*
X7908753Y-14523984D02*
X7889706Y-14514460D01*
X8099230Y-14523984D02*
X8080182Y-14514460D01*
X8080182Y-14514460D02*
X8070658Y-14495412D01*
X8070658Y-14495412D02*
X8070658Y-14323984D01*
X8261134Y-14523984D02*
X8261134Y-14419222D01*
X8261134Y-14419222D02*
X8251611Y-14400174D01*
X8251611Y-14400174D02*
X8232563Y-14390650D01*
X8232563Y-14390650D02*
X8194468Y-14390650D01*
X8194468Y-14390650D02*
X8175420Y-14400174D01*
X8261134Y-14514460D02*
X8242087Y-14523984D01*
X8242087Y-14523984D02*
X8194468Y-14523984D01*
X8194468Y-14523984D02*
X8175420Y-14514460D01*
X8175420Y-14514460D02*
X8165896Y-14495412D01*
X8165896Y-14495412D02*
X8165896Y-14476365D01*
X8165896Y-14476365D02*
X8175420Y-14457317D01*
X8175420Y-14457317D02*
X8194468Y-14447793D01*
X8194468Y-14447793D02*
X8242087Y-14447793D01*
X8242087Y-14447793D02*
X8261134Y-14438269D01*
X8327801Y-14390650D02*
X8403992Y-14390650D01*
X8356373Y-14323984D02*
X8356373Y-14495412D01*
X8356373Y-14495412D02*
X8365896Y-14514460D01*
X8365896Y-14514460D02*
X8384944Y-14523984D01*
X8384944Y-14523984D02*
X8403992Y-14523984D01*
X8546849Y-14514460D02*
X8527801Y-14523984D01*
X8527801Y-14523984D02*
X8489706Y-14523984D01*
X8489706Y-14523984D02*
X8470658Y-14514460D01*
X8470658Y-14514460D02*
X8461135Y-14495412D01*
X8461135Y-14495412D02*
X8461135Y-14419222D01*
X8461135Y-14419222D02*
X8470658Y-14400174D01*
X8470658Y-14400174D02*
X8489706Y-14390650D01*
X8489706Y-14390650D02*
X8527801Y-14390650D01*
X8527801Y-14390650D02*
X8546849Y-14400174D01*
X8546849Y-14400174D02*
X8556373Y-14419222D01*
X8556373Y-14419222D02*
X8556373Y-14438269D01*
X8556373Y-14438269D02*
X8461135Y-14457317D01*
X8727801Y-14523984D02*
X8727801Y-14323984D01*
X8727801Y-14514460D02*
X8708754Y-14523984D01*
X8708754Y-14523984D02*
X8670658Y-14523984D01*
X8670658Y-14523984D02*
X8651611Y-14514460D01*
X8651611Y-14514460D02*
X8642087Y-14504936D01*
X8642087Y-14504936D02*
X8632563Y-14485888D01*
X8632563Y-14485888D02*
X8632563Y-14428746D01*
X8632563Y-14428746D02*
X8642087Y-14409698D01*
X8642087Y-14409698D02*
X8651611Y-14400174D01*
X8651611Y-14400174D02*
X8670658Y-14390650D01*
X8670658Y-14390650D02*
X8708754Y-14390650D01*
X8708754Y-14390650D02*
X8727801Y-14400174D01*
X8803992Y-14600174D02*
X8813516Y-14590650D01*
X8813516Y-14590650D02*
X8832563Y-14562079D01*
X8832563Y-14562079D02*
X8842087Y-14543031D01*
X8842087Y-14543031D02*
X8851611Y-14514460D01*
X8851611Y-14514460D02*
X8861135Y-14466841D01*
X8861135Y-14466841D02*
X8861135Y-14428746D01*
X8861135Y-14428746D02*
X8851611Y-14381127D01*
X8851611Y-14381127D02*
X8842087Y-14352555D01*
X8842087Y-14352555D02*
X8832563Y-14333508D01*
X8832563Y-14333508D02*
X8813516Y-14304936D01*
X8813516Y-14304936D02*
X8803992Y-14295412D01*
X1828211Y-14823211D02*
X1828211Y-14681789D01*
X1686789Y-14681789D01*
X1686789Y-14823211D01*
X1828211Y-14823211D01*
X2203991Y-14710650D02*
X2203991Y-14843984D01*
X2156372Y-14634460D02*
X2108753Y-14777317D01*
X2108753Y-14777317D02*
X2232563Y-14777317D01*
X2308753Y-14824936D02*
X2318277Y-14834460D01*
X2318277Y-14834460D02*
X2308753Y-14843984D01*
X2308753Y-14843984D02*
X2299229Y-14834460D01*
X2299229Y-14834460D02*
X2308753Y-14824936D01*
X2308753Y-14824936D02*
X2308753Y-14843984D01*
X2442086Y-14643984D02*
X2461134Y-14643984D01*
X2461134Y-14643984D02*
X2480182Y-14653508D01*
X2480182Y-14653508D02*
X2489705Y-14663031D01*
X2489705Y-14663031D02*
X2499229Y-14682079D01*
X2499229Y-14682079D02*
X2508753Y-14720174D01*
X2508753Y-14720174D02*
X2508753Y-14767793D01*
X2508753Y-14767793D02*
X2499229Y-14805888D01*
X2499229Y-14805888D02*
X2489705Y-14824936D01*
X2489705Y-14824936D02*
X2480182Y-14834460D01*
X2480182Y-14834460D02*
X2461134Y-14843984D01*
X2461134Y-14843984D02*
X2442086Y-14843984D01*
X2442086Y-14843984D02*
X2423039Y-14834460D01*
X2423039Y-14834460D02*
X2413515Y-14824936D01*
X2413515Y-14824936D02*
X2403991Y-14805888D01*
X2403991Y-14805888D02*
X2394467Y-14767793D01*
X2394467Y-14767793D02*
X2394467Y-14720174D01*
X2394467Y-14720174D02*
X2403991Y-14682079D01*
X2403991Y-14682079D02*
X2413515Y-14663031D01*
X2413515Y-14663031D02*
X2423039Y-14653508D01*
X2423039Y-14653508D02*
X2442086Y-14643984D01*
X2632563Y-14643984D02*
X2651610Y-14643984D01*
X2651610Y-14643984D02*
X2670658Y-14653508D01*
X2670658Y-14653508D02*
X2680182Y-14663031D01*
X2680182Y-14663031D02*
X2689705Y-14682079D01*
X2689705Y-14682079D02*
X2699229Y-14720174D01*
X2699229Y-14720174D02*
X2699229Y-14767793D01*
X2699229Y-14767793D02*
X2689705Y-14805888D01*
X2689705Y-14805888D02*
X2680182Y-14824936D01*
X2680182Y-14824936D02*
X2670658Y-14834460D01*
X2670658Y-14834460D02*
X2651610Y-14843984D01*
X2651610Y-14843984D02*
X2632563Y-14843984D01*
X2632563Y-14843984D02*
X2613515Y-14834460D01*
X2613515Y-14834460D02*
X2603991Y-14824936D01*
X2603991Y-14824936D02*
X2594467Y-14805888D01*
X2594467Y-14805888D02*
X2584944Y-14767793D01*
X2584944Y-14767793D02*
X2584944Y-14720174D01*
X2584944Y-14720174D02*
X2594467Y-14682079D01*
X2594467Y-14682079D02*
X2603991Y-14663031D01*
X2603991Y-14663031D02*
X2613515Y-14653508D01*
X2613515Y-14653508D02*
X2632563Y-14643984D01*
X2823039Y-14643984D02*
X2842086Y-14643984D01*
X2842086Y-14643984D02*
X2861134Y-14653508D01*
X2861134Y-14653508D02*
X2870658Y-14663031D01*
X2870658Y-14663031D02*
X2880182Y-14682079D01*
X2880182Y-14682079D02*
X2889705Y-14720174D01*
X2889705Y-14720174D02*
X2889705Y-14767793D01*
X2889705Y-14767793D02*
X2880182Y-14805888D01*
X2880182Y-14805888D02*
X2870658Y-14824936D01*
X2870658Y-14824936D02*
X2861134Y-14834460D01*
X2861134Y-14834460D02*
X2842086Y-14843984D01*
X2842086Y-14843984D02*
X2823039Y-14843984D01*
X2823039Y-14843984D02*
X2803991Y-14834460D01*
X2803991Y-14834460D02*
X2794467Y-14824936D01*
X2794467Y-14824936D02*
X2784944Y-14805888D01*
X2784944Y-14805888D02*
X2775420Y-14767793D01*
X2775420Y-14767793D02*
X2775420Y-14720174D01*
X2775420Y-14720174D02*
X2784944Y-14682079D01*
X2784944Y-14682079D02*
X2794467Y-14663031D01*
X2794467Y-14663031D02*
X2803991Y-14653508D01*
X2803991Y-14653508D02*
X2823039Y-14643984D01*
X2975420Y-14843984D02*
X2975420Y-14710650D01*
X2975420Y-14729698D02*
X2984943Y-14720174D01*
X2984943Y-14720174D02*
X3003991Y-14710650D01*
X3003991Y-14710650D02*
X3032563Y-14710650D01*
X3032563Y-14710650D02*
X3051610Y-14720174D01*
X3051610Y-14720174D02*
X3061134Y-14739222D01*
X3061134Y-14739222D02*
X3061134Y-14843984D01*
X3061134Y-14739222D02*
X3070658Y-14720174D01*
X3070658Y-14720174D02*
X3089705Y-14710650D01*
X3089705Y-14710650D02*
X3118277Y-14710650D01*
X3118277Y-14710650D02*
X3137324Y-14720174D01*
X3137324Y-14720174D02*
X3146848Y-14739222D01*
X3146848Y-14739222D02*
X3146848Y-14843984D01*
X3242086Y-14843984D02*
X3242086Y-14710650D01*
X3242086Y-14729698D02*
X3251610Y-14720174D01*
X3251610Y-14720174D02*
X3270658Y-14710650D01*
X3270658Y-14710650D02*
X3299229Y-14710650D01*
X3299229Y-14710650D02*
X3318277Y-14720174D01*
X3318277Y-14720174D02*
X3327801Y-14739222D01*
X3327801Y-14739222D02*
X3327801Y-14843984D01*
X3327801Y-14739222D02*
X3337324Y-14720174D01*
X3337324Y-14720174D02*
X3356372Y-14710650D01*
X3356372Y-14710650D02*
X3384943Y-14710650D01*
X3384943Y-14710650D02*
X3403991Y-14720174D01*
X3403991Y-14720174D02*
X3413515Y-14739222D01*
X3413515Y-14739222D02*
X3413515Y-14843984D01*
X3803991Y-14634460D02*
X3632563Y-14891603D01*
X4061134Y-14643984D02*
X4080182Y-14643984D01*
X4080182Y-14643984D02*
X4099229Y-14653508D01*
X4099229Y-14653508D02*
X4108753Y-14663031D01*
X4108753Y-14663031D02*
X4118277Y-14682079D01*
X4118277Y-14682079D02*
X4127801Y-14720174D01*
X4127801Y-14720174D02*
X4127801Y-14767793D01*
X4127801Y-14767793D02*
X4118277Y-14805888D01*
X4118277Y-14805888D02*
X4108753Y-14824936D01*
X4108753Y-14824936D02*
X4099229Y-14834460D01*
X4099229Y-14834460D02*
X4080182Y-14843984D01*
X4080182Y-14843984D02*
X4061134Y-14843984D01*
X4061134Y-14843984D02*
X4042086Y-14834460D01*
X4042086Y-14834460D02*
X4032563Y-14824936D01*
X4032563Y-14824936D02*
X4023039Y-14805888D01*
X4023039Y-14805888D02*
X4013515Y-14767793D01*
X4013515Y-14767793D02*
X4013515Y-14720174D01*
X4013515Y-14720174D02*
X4023039Y-14682079D01*
X4023039Y-14682079D02*
X4032563Y-14663031D01*
X4032563Y-14663031D02*
X4042086Y-14653508D01*
X4042086Y-14653508D02*
X4061134Y-14643984D01*
X4213515Y-14824936D02*
X4223039Y-14834460D01*
X4223039Y-14834460D02*
X4213515Y-14843984D01*
X4213515Y-14843984D02*
X4203991Y-14834460D01*
X4203991Y-14834460D02*
X4213515Y-14824936D01*
X4213515Y-14824936D02*
X4213515Y-14843984D01*
X4413515Y-14843984D02*
X4299229Y-14843984D01*
X4356372Y-14843984D02*
X4356372Y-14643984D01*
X4356372Y-14643984D02*
X4337325Y-14672555D01*
X4337325Y-14672555D02*
X4318277Y-14691603D01*
X4318277Y-14691603D02*
X4299229Y-14701127D01*
X4594468Y-14643984D02*
X4499229Y-14643984D01*
X4499229Y-14643984D02*
X4489706Y-14739222D01*
X4489706Y-14739222D02*
X4499229Y-14729698D01*
X4499229Y-14729698D02*
X4518277Y-14720174D01*
X4518277Y-14720174D02*
X4565896Y-14720174D01*
X4565896Y-14720174D02*
X4584944Y-14729698D01*
X4584944Y-14729698D02*
X4594468Y-14739222D01*
X4594468Y-14739222D02*
X4603991Y-14758269D01*
X4603991Y-14758269D02*
X4603991Y-14805888D01*
X4603991Y-14805888D02*
X4594468Y-14824936D01*
X4594468Y-14824936D02*
X4584944Y-14834460D01*
X4584944Y-14834460D02*
X4565896Y-14843984D01*
X4565896Y-14843984D02*
X4518277Y-14843984D01*
X4518277Y-14843984D02*
X4499229Y-14834460D01*
X4499229Y-14834460D02*
X4489706Y-14824936D01*
X4670658Y-14643984D02*
X4803991Y-14643984D01*
X4803991Y-14643984D02*
X4718277Y-14843984D01*
X4975420Y-14643984D02*
X4880182Y-14643984D01*
X4880182Y-14643984D02*
X4870658Y-14739222D01*
X4870658Y-14739222D02*
X4880182Y-14729698D01*
X4880182Y-14729698D02*
X4899229Y-14720174D01*
X4899229Y-14720174D02*
X4946849Y-14720174D01*
X4946849Y-14720174D02*
X4965896Y-14729698D01*
X4965896Y-14729698D02*
X4975420Y-14739222D01*
X4975420Y-14739222D02*
X4984944Y-14758269D01*
X4984944Y-14758269D02*
X4984944Y-14805888D01*
X4984944Y-14805888D02*
X4975420Y-14824936D01*
X4975420Y-14824936D02*
X4965896Y-14834460D01*
X4965896Y-14834460D02*
X4946849Y-14843984D01*
X4946849Y-14843984D02*
X4899229Y-14843984D01*
X4899229Y-14843984D02*
X4880182Y-14834460D01*
X4880182Y-14834460D02*
X4870658Y-14824936D01*
X5061134Y-14643984D02*
X5061134Y-14682079D01*
X5137325Y-14643984D02*
X5137325Y-14682079D01*
X5432563Y-14920174D02*
X5423039Y-14910650D01*
X5423039Y-14910650D02*
X5403991Y-14882079D01*
X5403991Y-14882079D02*
X5394468Y-14863031D01*
X5394468Y-14863031D02*
X5384944Y-14834460D01*
X5384944Y-14834460D02*
X5375420Y-14786841D01*
X5375420Y-14786841D02*
X5375420Y-14748746D01*
X5375420Y-14748746D02*
X5384944Y-14701127D01*
X5384944Y-14701127D02*
X5394468Y-14672555D01*
X5394468Y-14672555D02*
X5403991Y-14653508D01*
X5403991Y-14653508D02*
X5423039Y-14624936D01*
X5423039Y-14624936D02*
X5432563Y-14615412D01*
X5613515Y-14843984D02*
X5499230Y-14843984D01*
X5556372Y-14843984D02*
X5556372Y-14643984D01*
X5556372Y-14643984D02*
X5537325Y-14672555D01*
X5537325Y-14672555D02*
X5518277Y-14691603D01*
X5518277Y-14691603D02*
X5499230Y-14701127D01*
X5737325Y-14643984D02*
X5756372Y-14643984D01*
X5756372Y-14643984D02*
X5775420Y-14653508D01*
X5775420Y-14653508D02*
X5784944Y-14663031D01*
X5784944Y-14663031D02*
X5794468Y-14682079D01*
X5794468Y-14682079D02*
X5803991Y-14720174D01*
X5803991Y-14720174D02*
X5803991Y-14767793D01*
X5803991Y-14767793D02*
X5794468Y-14805888D01*
X5794468Y-14805888D02*
X5784944Y-14824936D01*
X5784944Y-14824936D02*
X5775420Y-14834460D01*
X5775420Y-14834460D02*
X5756372Y-14843984D01*
X5756372Y-14843984D02*
X5737325Y-14843984D01*
X5737325Y-14843984D02*
X5718277Y-14834460D01*
X5718277Y-14834460D02*
X5708753Y-14824936D01*
X5708753Y-14824936D02*
X5699229Y-14805888D01*
X5699229Y-14805888D02*
X5689706Y-14767793D01*
X5689706Y-14767793D02*
X5689706Y-14720174D01*
X5689706Y-14720174D02*
X5699229Y-14682079D01*
X5699229Y-14682079D02*
X5708753Y-14663031D01*
X5708753Y-14663031D02*
X5718277Y-14653508D01*
X5718277Y-14653508D02*
X5737325Y-14643984D01*
X6042087Y-14843984D02*
X6042087Y-14643984D01*
X6127801Y-14843984D02*
X6127801Y-14739222D01*
X6127801Y-14739222D02*
X6118277Y-14720174D01*
X6118277Y-14720174D02*
X6099230Y-14710650D01*
X6099230Y-14710650D02*
X6070658Y-14710650D01*
X6070658Y-14710650D02*
X6051610Y-14720174D01*
X6051610Y-14720174D02*
X6042087Y-14729698D01*
X6251610Y-14843984D02*
X6232563Y-14834460D01*
X6232563Y-14834460D02*
X6223039Y-14824936D01*
X6223039Y-14824936D02*
X6213515Y-14805888D01*
X6213515Y-14805888D02*
X6213515Y-14748746D01*
X6213515Y-14748746D02*
X6223039Y-14729698D01*
X6223039Y-14729698D02*
X6232563Y-14720174D01*
X6232563Y-14720174D02*
X6251610Y-14710650D01*
X6251610Y-14710650D02*
X6280182Y-14710650D01*
X6280182Y-14710650D02*
X6299230Y-14720174D01*
X6299230Y-14720174D02*
X6308753Y-14729698D01*
X6308753Y-14729698D02*
X6318277Y-14748746D01*
X6318277Y-14748746D02*
X6318277Y-14805888D01*
X6318277Y-14805888D02*
X6308753Y-14824936D01*
X6308753Y-14824936D02*
X6299230Y-14834460D01*
X6299230Y-14834460D02*
X6280182Y-14843984D01*
X6280182Y-14843984D02*
X6251610Y-14843984D01*
X6432563Y-14843984D02*
X6413515Y-14834460D01*
X6413515Y-14834460D02*
X6403991Y-14815412D01*
X6403991Y-14815412D02*
X6403991Y-14643984D01*
X6584944Y-14834460D02*
X6565896Y-14843984D01*
X6565896Y-14843984D02*
X6527801Y-14843984D01*
X6527801Y-14843984D02*
X6508753Y-14834460D01*
X6508753Y-14834460D02*
X6499230Y-14815412D01*
X6499230Y-14815412D02*
X6499230Y-14739222D01*
X6499230Y-14739222D02*
X6508753Y-14720174D01*
X6508753Y-14720174D02*
X6527801Y-14710650D01*
X6527801Y-14710650D02*
X6565896Y-14710650D01*
X6565896Y-14710650D02*
X6584944Y-14720174D01*
X6584944Y-14720174D02*
X6594468Y-14739222D01*
X6594468Y-14739222D02*
X6594468Y-14758269D01*
X6594468Y-14758269D02*
X6499230Y-14777317D01*
X6670658Y-14834460D02*
X6689706Y-14843984D01*
X6689706Y-14843984D02*
X6727801Y-14843984D01*
X6727801Y-14843984D02*
X6746849Y-14834460D01*
X6746849Y-14834460D02*
X6756372Y-14815412D01*
X6756372Y-14815412D02*
X6756372Y-14805888D01*
X6756372Y-14805888D02*
X6746849Y-14786841D01*
X6746849Y-14786841D02*
X6727801Y-14777317D01*
X6727801Y-14777317D02*
X6699230Y-14777317D01*
X6699230Y-14777317D02*
X6680182Y-14767793D01*
X6680182Y-14767793D02*
X6670658Y-14748746D01*
X6670658Y-14748746D02*
X6670658Y-14739222D01*
X6670658Y-14739222D02*
X6680182Y-14720174D01*
X6680182Y-14720174D02*
X6699230Y-14710650D01*
X6699230Y-14710650D02*
X6727801Y-14710650D01*
X6727801Y-14710650D02*
X6746849Y-14720174D01*
X6823039Y-14920174D02*
X6832563Y-14910650D01*
X6832563Y-14910650D02*
X6851611Y-14882079D01*
X6851611Y-14882079D02*
X6861134Y-14863031D01*
X6861134Y-14863031D02*
X6870658Y-14834460D01*
X6870658Y-14834460D02*
X6880182Y-14786841D01*
X6880182Y-14786841D02*
X6880182Y-14748746D01*
X6880182Y-14748746D02*
X6870658Y-14701127D01*
X6870658Y-14701127D02*
X6861134Y-14672555D01*
X6861134Y-14672555D02*
X6851611Y-14653508D01*
X6851611Y-14653508D02*
X6832563Y-14624936D01*
X6832563Y-14624936D02*
X6823039Y-14615412D01*
X7184944Y-14920174D02*
X7175420Y-14910650D01*
X7175420Y-14910650D02*
X7156372Y-14882079D01*
X7156372Y-14882079D02*
X7146849Y-14863031D01*
X7146849Y-14863031D02*
X7137325Y-14834460D01*
X7137325Y-14834460D02*
X7127801Y-14786841D01*
X7127801Y-14786841D02*
X7127801Y-14748746D01*
X7127801Y-14748746D02*
X7137325Y-14701127D01*
X7137325Y-14701127D02*
X7146849Y-14672555D01*
X7146849Y-14672555D02*
X7156372Y-14653508D01*
X7156372Y-14653508D02*
X7175420Y-14624936D01*
X7175420Y-14624936D02*
X7184944Y-14615412D01*
X7261134Y-14710650D02*
X7261134Y-14843984D01*
X7261134Y-14729698D02*
X7270658Y-14720174D01*
X7270658Y-14720174D02*
X7289706Y-14710650D01*
X7289706Y-14710650D02*
X7318277Y-14710650D01*
X7318277Y-14710650D02*
X7337325Y-14720174D01*
X7337325Y-14720174D02*
X7346849Y-14739222D01*
X7346849Y-14739222D02*
X7346849Y-14843984D01*
X7470658Y-14843984D02*
X7451611Y-14834460D01*
X7451611Y-14834460D02*
X7442087Y-14824936D01*
X7442087Y-14824936D02*
X7432563Y-14805888D01*
X7432563Y-14805888D02*
X7432563Y-14748746D01*
X7432563Y-14748746D02*
X7442087Y-14729698D01*
X7442087Y-14729698D02*
X7451611Y-14720174D01*
X7451611Y-14720174D02*
X7470658Y-14710650D01*
X7470658Y-14710650D02*
X7499230Y-14710650D01*
X7499230Y-14710650D02*
X7518277Y-14720174D01*
X7518277Y-14720174D02*
X7527801Y-14729698D01*
X7527801Y-14729698D02*
X7537325Y-14748746D01*
X7537325Y-14748746D02*
X7537325Y-14805888D01*
X7537325Y-14805888D02*
X7527801Y-14824936D01*
X7527801Y-14824936D02*
X7518277Y-14834460D01*
X7518277Y-14834460D02*
X7499230Y-14843984D01*
X7499230Y-14843984D02*
X7470658Y-14843984D01*
X7594468Y-14710650D02*
X7670658Y-14710650D01*
X7623039Y-14643984D02*
X7623039Y-14815412D01*
X7623039Y-14815412D02*
X7632563Y-14834460D01*
X7632563Y-14834460D02*
X7651611Y-14843984D01*
X7651611Y-14843984D02*
X7670658Y-14843984D01*
X7889706Y-14710650D02*
X7889706Y-14910650D01*
X7889706Y-14720174D02*
X7908753Y-14710650D01*
X7908753Y-14710650D02*
X7946849Y-14710650D01*
X7946849Y-14710650D02*
X7965896Y-14720174D01*
X7965896Y-14720174D02*
X7975420Y-14729698D01*
X7975420Y-14729698D02*
X7984944Y-14748746D01*
X7984944Y-14748746D02*
X7984944Y-14805888D01*
X7984944Y-14805888D02*
X7975420Y-14824936D01*
X7975420Y-14824936D02*
X7965896Y-14834460D01*
X7965896Y-14834460D02*
X7946849Y-14843984D01*
X7946849Y-14843984D02*
X7908753Y-14843984D01*
X7908753Y-14843984D02*
X7889706Y-14834460D01*
X8099230Y-14843984D02*
X8080182Y-14834460D01*
X8080182Y-14834460D02*
X8070658Y-14815412D01*
X8070658Y-14815412D02*
X8070658Y-14643984D01*
X8261134Y-14843984D02*
X8261134Y-14739222D01*
X8261134Y-14739222D02*
X8251611Y-14720174D01*
X8251611Y-14720174D02*
X8232563Y-14710650D01*
X8232563Y-14710650D02*
X8194468Y-14710650D01*
X8194468Y-14710650D02*
X8175420Y-14720174D01*
X8261134Y-14834460D02*
X8242087Y-14843984D01*
X8242087Y-14843984D02*
X8194468Y-14843984D01*
X8194468Y-14843984D02*
X8175420Y-14834460D01*
X8175420Y-14834460D02*
X8165896Y-14815412D01*
X8165896Y-14815412D02*
X8165896Y-14796365D01*
X8165896Y-14796365D02*
X8175420Y-14777317D01*
X8175420Y-14777317D02*
X8194468Y-14767793D01*
X8194468Y-14767793D02*
X8242087Y-14767793D01*
X8242087Y-14767793D02*
X8261134Y-14758269D01*
X8327801Y-14710650D02*
X8403992Y-14710650D01*
X8356373Y-14643984D02*
X8356373Y-14815412D01*
X8356373Y-14815412D02*
X8365896Y-14834460D01*
X8365896Y-14834460D02*
X8384944Y-14843984D01*
X8384944Y-14843984D02*
X8403992Y-14843984D01*
X8546849Y-14834460D02*
X8527801Y-14843984D01*
X8527801Y-14843984D02*
X8489706Y-14843984D01*
X8489706Y-14843984D02*
X8470658Y-14834460D01*
X8470658Y-14834460D02*
X8461135Y-14815412D01*
X8461135Y-14815412D02*
X8461135Y-14739222D01*
X8461135Y-14739222D02*
X8470658Y-14720174D01*
X8470658Y-14720174D02*
X8489706Y-14710650D01*
X8489706Y-14710650D02*
X8527801Y-14710650D01*
X8527801Y-14710650D02*
X8546849Y-14720174D01*
X8546849Y-14720174D02*
X8556373Y-14739222D01*
X8556373Y-14739222D02*
X8556373Y-14758269D01*
X8556373Y-14758269D02*
X8461135Y-14777317D01*
X8727801Y-14843984D02*
X8727801Y-14643984D01*
X8727801Y-14834460D02*
X8708754Y-14843984D01*
X8708754Y-14843984D02*
X8670658Y-14843984D01*
X8670658Y-14843984D02*
X8651611Y-14834460D01*
X8651611Y-14834460D02*
X8642087Y-14824936D01*
X8642087Y-14824936D02*
X8632563Y-14805888D01*
X8632563Y-14805888D02*
X8632563Y-14748746D01*
X8632563Y-14748746D02*
X8642087Y-14729698D01*
X8642087Y-14729698D02*
X8651611Y-14720174D01*
X8651611Y-14720174D02*
X8670658Y-14710650D01*
X8670658Y-14710650D02*
X8708754Y-14710650D01*
X8708754Y-14710650D02*
X8727801Y-14720174D01*
X8803992Y-14920174D02*
X8813516Y-14910650D01*
X8813516Y-14910650D02*
X8832563Y-14882079D01*
X8832563Y-14882079D02*
X8842087Y-14863031D01*
X8842087Y-14863031D02*
X8851611Y-14834460D01*
X8851611Y-14834460D02*
X8861135Y-14786841D01*
X8861135Y-14786841D02*
X8861135Y-14748746D01*
X8861135Y-14748746D02*
X8851611Y-14701127D01*
X8851611Y-14701127D02*
X8842087Y-14672555D01*
X8842087Y-14672555D02*
X8832563Y-14653508D01*
X8832563Y-14653508D02*
X8813516Y-14624936D01*
X8813516Y-14624936D02*
X8803992Y-14615412D01*
M02*
