M48
; DRILL file {KiCad 8.0.8} date 2025-03-11T20:04:11-0400
; FORMAT={-:-/ absolute / inch / decimal}
; #@! TF.CreationDate,2025-03-11T20:04:11-04:00
; #@! TF.GenerationSoftware,Kicad,Pcbnew,8.0.8
; #@! TF.FileFunction,Plated,1,2,PTH
FMAT,2
INCH
; #@! TA.AperFunction,Plated,PTH,ViaDrill
T1C0.0118
; #@! TA.AperFunction,Plated,PTH,ComponentDrill
T2C0.0236
; #@! TA.AperFunction,Plated,PTH,ComponentDrill
T3C0.0276
; #@! TA.AperFunction,Plated,PTH,ComponentDrill
T4C0.0315
; #@! TA.AperFunction,Plated,PTH,ComponentDrill
T5C0.0394
; #@! TA.AperFunction,Plated,PTH,ComponentDrill
T6C0.0402
; #@! TA.AperFunction,Plated,PTH,ComponentDrill
T7C0.0591
%
G90
G05
T1
X3.9921Y-8.2126
X3.9961Y-7.4331
X4.0827Y-7.6142
X4.0872Y-7.2378
X4.0872Y-7.9898
X4.0945Y-8.3661
X4.1344Y-7.2378
X4.1344Y-7.9898
X4.1575Y-7.5709
X4.1614Y-6.8071
X4.1614Y-7.0079
X4.1614Y-7.7598
X4.1614Y-8.3228
X4.1614Y-8.5118
X4.2205Y-7.0709
X4.2205Y-7.8307
X4.4701Y-8.4287
X4.5165Y-8.3736
X4.5167Y-7.3638
X4.5177Y-6.7441
X4.5177Y-6.8622
X4.5177Y-7.6024
X4.5177Y-8.1144
X4.6575Y-8.4449
X4.7087Y-6.8776
X4.7087Y-7.6329
X4.7087Y-8.3937
X4.8372Y-7.2378
X4.8372Y-7.9898
X4.8844Y-7.2378
X4.8844Y-7.9898
X4.9094Y-7.5669
X4.9094Y-7.7638
X4.9094Y-8.3189
X4.9094Y-8.5157
X4.9134Y-6.815
X4.9134Y-7.0118
X4.9724Y-7.0787
X4.9724Y-7.8465
X5.1174Y-8.5265
X5.3819Y-8.3386
X5.4488Y-6.6919
X5.4528Y-8.1919
X5.4567Y-7.4439
X5.5872Y-7.0488
X5.5872Y-7.8008
X5.6344Y-7.0488
X5.6344Y-7.8008
X5.6614Y-7.3858
X5.6614Y-8.126
X5.6614Y-8.3228
X5.6631Y-7.5765
X5.6654Y-6.626
X5.6654Y-6.8268
X5.7205Y-6.9016
X5.7205Y-7.6496
X5.9961Y-8.3228
X6.2047Y-6.6053
X6.2047Y-7.3551
X6.2126Y-8.1063
X6.3372Y-6.9583
X6.3372Y-7.7063
X6.3844Y-6.9583
X6.3844Y-7.7063
X6.4094Y-6.5354
X6.4094Y-6.7323
X6.4094Y-8.0394
X6.4094Y-8.2323
X6.4134Y-7.2835
X6.4134Y-7.4843
X6.4685Y-6.7992
X6.4724Y-7.5551
X6.4724Y-8.3031
X6.5162Y-8.5563
X6.5398Y-8.5799
X6.5634Y-8.6035
X6.6038Y-8.6439
X6.6706Y-8.6439
X6.7835Y-8.9764
X6.7835Y-9.1693
X6.8395Y-6.7154
X6.9528Y-8.1919
X6.9567Y-7.4401
X7.0872Y-7.0488
X7.0872Y-7.8008
X7.1344Y-7.0488
X7.1344Y-7.8008
X7.1575Y-6.626
X7.1575Y-6.8268
X7.1614Y-7.378
X7.1614Y-7.5787
X7.1614Y-8.1299
X7.1614Y-8.3268
X7.2165Y-6.9134
X7.2205Y-7.6417
X7.2234Y-8.3908
X7.2469Y-8.4811
X7.2535Y-8.6079
X7.2906Y-9.1713
X7.3799Y-9.2496
X7.4091Y-9.0854
X7.4091Y-9.1933
X7.5354Y-9.2244
X7.5552Y-8.7063
X7.563Y-9.0197
X7.6025Y-8.7063
X7.6358Y-6.8337
X7.6358Y-7.5748
X7.6358Y-8.3337
X7.7047Y-7.5276
X7.7087Y-6.7717
X7.7087Y-8.2864
X7.8055Y-8.511
X7.8067Y-8.4606
X7.8372Y-7.1433
X7.8372Y-7.8953
X7.8844Y-7.1433
X7.8844Y-7.8953
X7.9094Y-7.4685
X7.9094Y-7.6693
X7.9094Y-8.2283
X7.9094Y-8.4213
X7.9134Y-6.7165
X7.9134Y-6.9173
X7.9217Y-9.2555
X7.9693Y-6.9783
X7.9961Y-9.248
X8.0829Y-8.6782
X8.1047Y-9.2969
X8.1614Y-9.2354
X8.1673Y-8.5164
X8.2786Y-8.9454
X8.2835Y-9.3976
X8.3455Y-8.9454
X8.3504Y-9.2598
X8.3858Y-6.6614
X8.4567Y-9.5276
X8.5394Y-9.5276
X8.5961Y-8.111
X8.7226Y-8.5276
X8.7279Y-8.9071
X8.7283Y-8.9389
X8.7284Y-8.8756
X8.7717Y-8.6535
X8.7756Y-8.8756
X8.7756Y-8.9071
X8.7756Y-8.9389
X8.8425Y-8.9764
X8.8453Y-8.5787
X8.8461Y-8.7134
X8.8543Y-8.626
X8.8894Y-8.0675
X8.8894Y-8.1299
X8.928Y-8.5461
X8.9535Y-8.0675
T3
X8.3596Y-8.5256
X8.3596Y-8.6496
X8.6596Y-8.5256
X8.6596Y-8.6496
X8.7077Y-8.1063
X8.7077Y-8.1949
X9.0077Y-8.1063
X9.0077Y-8.1949
T4
X3.8858Y-6.5363
X3.8858Y-6.8363
X3.8858Y-7.2863
X3.8858Y-7.5863
X3.8858Y-8.0363
X3.8858Y-8.3363
X4.6358Y-6.5363
X4.6358Y-6.8363
X4.6358Y-7.2863
X4.6358Y-7.5863
X4.6358Y-8.0363
X4.6358Y-8.3363
X5.3858Y-6.3488
X5.3858Y-6.6488
X5.3858Y-7.0988
X5.3858Y-7.3988
X5.3858Y-7.8488
X5.3858Y-8.1488
X6.1358Y-6.255
X6.1358Y-6.555
X6.1358Y-7.005
X6.1358Y-7.305
X6.1358Y-7.755
X6.1358Y-8.055
X6.5108Y-8.6931
X6.5108Y-8.9931
X6.8858Y-6.3488
X6.8858Y-6.6488
X6.8858Y-7.0988
X6.8858Y-7.3988
X6.8858Y-7.8488
X6.8858Y-8.1488
X7.3008Y-8.9986
X7.3629Y-8.7051
X7.6358Y-6.4425
X7.6358Y-6.7425
X7.6358Y-7.1931
X7.6358Y-7.4931
X7.6358Y-7.9425
X7.6358Y-8.2425
X8.0829Y-9.1733
X8.2044Y-8.8989
T5
X8.727Y-7.9986
X8.827Y-7.9986
X8.927Y-7.9986
X9.027Y-7.9986
T6
X8.527Y-6.3925
X8.527Y-6.4925
X8.527Y-6.5925
X8.527Y-6.6925
X8.527Y-6.7925
X8.527Y-6.8925
X8.527Y-6.9925
X8.527Y-7.0925
X8.527Y-7.1925
X8.527Y-7.2925
X8.527Y-7.3925
X8.527Y-7.4925
X8.527Y-7.5925
X8.527Y-7.6925
X8.527Y-7.7925
X8.527Y-7.8925
X8.527Y-7.9925
X8.527Y-8.0925
X8.527Y-8.1925
X8.527Y-8.2925
X9.227Y-6.3925
X9.227Y-6.4925
X9.227Y-6.5925
X9.227Y-6.6925
X9.227Y-6.7925
X9.227Y-6.8925
X9.227Y-6.9925
X9.227Y-7.0925
X9.227Y-7.1925
X9.227Y-7.2925
X9.227Y-7.3925
X9.227Y-7.4925
X9.227Y-7.5925
X9.227Y-7.6925
X9.227Y-7.7925
X9.227Y-7.8925
X9.227Y-7.9925
X9.227Y-8.0925
X9.227Y-8.1925
X9.227Y-8.2925
T7
X4.1108Y-6.5863
X4.1108Y-7.3363
X4.1108Y-8.0863
X4.3608Y-6.4863
X4.3608Y-7.2363
X4.3608Y-7.9863
X4.8608Y-6.5863
X4.8608Y-7.3363
X4.8608Y-8.0863
X5.1108Y-6.4863
X5.1108Y-7.2363
X5.1108Y-7.9863
X5.6108Y-6.3988
X5.6108Y-7.1488
X5.6108Y-7.8988
X5.8608Y-6.2988
X5.8608Y-7.0488
X5.8608Y-7.7988
X6.3608Y-6.305
X6.3608Y-7.055
X6.3608Y-7.805
X6.6108Y-6.205
X6.6108Y-6.955
X6.6108Y-7.705
X6.7358Y-8.7425
X6.9858Y-8.6425
X7.1108Y-6.3988
X7.1108Y-7.1488
X7.1108Y-7.8988
X7.3608Y-6.2988
X7.3608Y-7.0488
X7.3608Y-7.7988
X7.5789Y-8.7995
X7.8441Y-8.7534
X7.8608Y-6.4925
X7.8608Y-7.2425
X7.8608Y-7.9925
X8.1108Y-6.3925
X8.1108Y-7.1425
X8.1108Y-7.8925
X8.3923Y-9.03
X8.6614Y-9.0398
T2
G00X8.8604Y-8.8051
M15
G01X8.8996Y-8.8236
M16
G05
G00X9.0058Y-8.4975
M15
G01X9.045Y-8.516
M16
G05
G00X9.0181Y-8.8796
M15
G01X9.0395Y-8.8897
M16
G05
G00X9.1635Y-8.5721
M15
G01X9.1848Y-8.5822
M16
G05
M30
