%TF.GenerationSoftware,KiCad,Pcbnew,8.0.8*%
%TF.CreationDate,2025-03-11T20:04:01-04:00*%
%TF.ProjectId,Keyboard,4b657962-6f61-4726-942e-6b696361645f,rev?*%
%TF.SameCoordinates,Original*%
%TF.FileFunction,Soldermask,Top*%
%TF.FilePolarity,Negative*%
%FSLAX46Y46*%
G04 Gerber Fmt 4.6, Leading zero omitted, Abs format (unit mm)*
G04 Created by KiCad (PCBNEW 8.0.8) date 2025-03-11 20:04:01*
%MOMM*%
%LPD*%
G01*
G04 APERTURE LIST*
G04 Aperture macros list*
%AMRoundRect*
0 Rectangle with rounded corners*
0 $1 Rounding radius*
0 $2 $3 $4 $5 $6 $7 $8 $9 X,Y pos of 4 corners*
0 Add a 4 corners polygon primitive as box body*
4,1,4,$2,$3,$4,$5,$6,$7,$8,$9,$2,$3,0*
0 Add four circle primitives for the rounded corners*
1,1,$1+$1,$2,$3*
1,1,$1+$1,$4,$5*
1,1,$1+$1,$6,$7*
1,1,$1+$1,$8,$9*
0 Add four rect primitives between the rounded corners*
20,1,$1+$1,$2,$3,$4,$5,0*
20,1,$1+$1,$4,$5,$6,$7,0*
20,1,$1+$1,$6,$7,$8,$9,0*
20,1,$1+$1,$8,$9,$2,$3,0*%
%AMHorizOval*
0 Thick line with rounded ends*
0 $1 width*
0 $2 $3 position (X,Y) of the first rounded end (center of the circle)*
0 $4 $5 position (X,Y) of the second rounded end (center of the circle)*
0 Add line between two ends*
20,1,$1,$2,$3,$4,$5,0*
0 Add two circle primitives to create the rounded ends*
1,1,$1,$2,$3*
1,1,$1,$4,$5*%
%AMRotRect*
0 Rectangle, with rotation*
0 The origin of the aperture is its center*
0 $1 length*
0 $2 width*
0 $3 Rotation angle, in degrees counterclockwise*
0 Add horizontal line*
21,1,$1,$2,0,0,$3*%
G04 Aperture macros list end*
%ADD10C,1.400000*%
%ADD11O,1.400000X1.400000*%
%ADD12C,1.750000*%
%ADD13C,4.000000*%
%ADD14C,2.500000*%
%ADD15R,1.600000X1.600000*%
%ADD16O,1.600000X1.600000*%
%ADD17R,1.700000X1.700000*%
%ADD18O,1.700000X1.700000*%
%ADD19RotRect,1.600000X1.600000X66.121000*%
%ADD20HorizOval,1.600000X0.000000X0.000000X0.000000X0.000000X0*%
%ADD21RotRect,1.600000X1.600000X78.060000*%
%ADD22HorizOval,1.600000X0.000000X0.000000X0.000000X0.000000X0*%
%ADD23O,1.800000X1.800000*%
%ADD24O,1.500000X1.500000*%
%ADD25C,0.650000*%
%ADD26RoundRect,0.150000X0.387931X-0.349298X0.516144X-0.078076X-0.387931X0.349298X-0.516144X0.078076X0*%
%ADD27RoundRect,0.075000X0.487790X-0.313545X0.551896X-0.177934X-0.487790X0.313545X-0.551896X0.177934X0*%
%ADD28HorizOval,1.000000X-0.497241X0.235056X0.497241X-0.235056X0*%
%ADD29HorizOval,1.000000X-0.271223X0.128212X0.271223X-0.128212X0*%
G04 APERTURE END LIST*
D10*
%TO.C,R6*%
X228795000Y-208150000D03*
D11*
X221175000Y-208150000D03*
%TD*%
D12*
%TO.C,SW24*%
X198395000Y-205550000D03*
D13*
X203475000Y-205550000D03*
D12*
X208555000Y-205550000D03*
D14*
X199665000Y-203010000D03*
X206015000Y-200470000D03*
%TD*%
D15*
%TO.C,D37*%
X136800000Y-168879000D03*
D16*
X136800000Y-161259000D03*
%TD*%
D17*
%TO.C,Brd4*%
X229285000Y-203165000D03*
D18*
X226745000Y-203165000D03*
X224205000Y-203165000D03*
X221665000Y-203165000D03*
%TD*%
D12*
%TO.C,SW42*%
X103145000Y-207932000D03*
D13*
X108225000Y-207932000D03*
D12*
X113305000Y-207932000D03*
D14*
X104415000Y-205392000D03*
X110765000Y-202852000D03*
%TD*%
D10*
%TO.C,R7*%
X219955000Y-216550000D03*
D11*
X212335000Y-216550000D03*
%TD*%
D19*
%TO.C,D28*%
X205306017Y-233000569D03*
D20*
X208390642Y-226032823D03*
%TD*%
D12*
%TO.C,SW30*%
X160295000Y-162688000D03*
D13*
X165375000Y-162688000D03*
D12*
X170455000Y-162688000D03*
D14*
X161565000Y-160148000D03*
X167915000Y-157608000D03*
%TD*%
D15*
%TO.C,D25*%
X193950000Y-171260000D03*
D16*
X193950000Y-163640000D03*
%TD*%
D15*
%TO.C,D38*%
X136800000Y-187929000D03*
D16*
X136800000Y-180309000D03*
%TD*%
D12*
%TO.C,SW27*%
X179345000Y-184119000D03*
D13*
X184425000Y-184119000D03*
D12*
X189505000Y-184119000D03*
D14*
X180615000Y-181579000D03*
X186965000Y-179039000D03*
%TD*%
D15*
%TO.C,D33*%
X155850000Y-166498000D03*
D16*
X155850000Y-158878000D03*
%TD*%
D15*
%TO.C,D30*%
X174900000Y-187929000D03*
D16*
X174900000Y-180309000D03*
%TD*%
D12*
%TO.C,SW29*%
X190734889Y-225729099D03*
D13*
X195705000Y-226780000D03*
D12*
X200675111Y-227830901D03*
D14*
X192502867Y-223506769D03*
X199240956Y-222335339D03*
%TD*%
D15*
%TO.C,D36*%
X165375000Y-228425000D03*
D16*
X165375000Y-220805000D03*
%TD*%
D12*
%TO.C,SW23*%
X198395000Y-186500000D03*
D13*
X203475000Y-186500000D03*
D12*
X208555000Y-186500000D03*
D14*
X199665000Y-183960000D03*
X206015000Y-181420000D03*
%TD*%
D10*
%TO.C,R5*%
X219955000Y-219700000D03*
D11*
X212335000Y-219700000D03*
%TD*%
D12*
%TO.C,SW38*%
X122195000Y-188882000D03*
D13*
X127275000Y-188882000D03*
D12*
X132355000Y-188882000D03*
D14*
X123465000Y-186342000D03*
X129815000Y-183802000D03*
%TD*%
D12*
%TO.C,SW36*%
X141245000Y-203169000D03*
D13*
X146325000Y-203169000D03*
D12*
X151405000Y-203169000D03*
D14*
X142515000Y-200629000D03*
X148865000Y-198089000D03*
%TD*%
D21*
%TO.C,D32*%
X185440279Y-228563755D03*
D22*
X187016760Y-221108615D03*
%TD*%
D15*
%TO.C,D26*%
X193950000Y-190325000D03*
D16*
X193950000Y-182705000D03*
%TD*%
D12*
%TO.C,SW26*%
X179345000Y-165069000D03*
D13*
X184425000Y-165069000D03*
D12*
X189505000Y-165069000D03*
D14*
X180615000Y-162529000D03*
X186965000Y-159989000D03*
%TD*%
D15*
%TO.C,D41*%
X117750000Y-192692000D03*
D16*
X117750000Y-185072000D03*
%TD*%
D12*
%TO.C,SW28*%
X179345000Y-203169000D03*
D13*
X184425000Y-203169000D03*
D12*
X189505000Y-203169000D03*
D14*
X180615000Y-200629000D03*
X186965000Y-198089000D03*
%TD*%
D15*
%TO.C,D29*%
X174900000Y-168879000D03*
D16*
X174900000Y-161259000D03*
%TD*%
D23*
%TO.C,U2*%
X228200000Y-162500000D03*
D24*
X227900000Y-165530000D03*
X223050000Y-165530000D03*
D23*
X222750000Y-162500000D03*
D18*
X234365000Y-162370000D03*
X234365000Y-164910000D03*
D17*
X234365000Y-167450000D03*
D18*
X234365000Y-169990000D03*
X234365000Y-172530000D03*
X234365000Y-175070000D03*
X234365000Y-177610000D03*
D17*
X234365000Y-180150000D03*
D18*
X234365000Y-182690000D03*
X234365000Y-185230000D03*
X234365000Y-187770000D03*
X234365000Y-190310000D03*
D17*
X234365000Y-192850000D03*
D18*
X234365000Y-195390000D03*
X234365000Y-197930000D03*
X234365000Y-200470000D03*
X234365000Y-203010000D03*
D17*
X234365000Y-205550000D03*
D18*
X234365000Y-208090000D03*
X234365000Y-210630000D03*
X216585000Y-210630000D03*
X216585000Y-208090000D03*
D17*
X216585000Y-205550000D03*
D18*
X216585000Y-203010000D03*
X216585000Y-200470000D03*
X216585000Y-197930000D03*
X216585000Y-195390000D03*
D17*
X216585000Y-192850000D03*
D18*
X216585000Y-190310000D03*
X216585000Y-187770000D03*
X216585000Y-185230000D03*
X216585000Y-182690000D03*
D17*
X216585000Y-180150000D03*
D18*
X216585000Y-177610000D03*
X216585000Y-175070000D03*
X216585000Y-172530000D03*
X216585000Y-169990000D03*
D17*
X216585000Y-167450000D03*
D18*
X216585000Y-164910000D03*
X216585000Y-162370000D03*
%TD*%
D16*
%TO.C,D62*%
X98700000Y-185072000D03*
D15*
X98700000Y-192692000D03*
%TD*%
D12*
%TO.C,SW25*%
X210974964Y-231171250D03*
D13*
X215620128Y-233227667D03*
D12*
X220265292Y-235284084D03*
D14*
X213164463Y-229362772D03*
X219999127Y-229610711D03*
%TD*%
D15*
%TO.C,D39*%
X136800000Y-206979000D03*
D16*
X136800000Y-199359000D03*
%TD*%
D12*
%TO.C,SW22*%
X198395000Y-167450000D03*
D13*
X203475000Y-167450000D03*
D12*
X208555000Y-167450000D03*
D14*
X199665000Y-164910000D03*
X206015000Y-162370000D03*
%TD*%
D16*
%TO.C,D61*%
X98700000Y-166022000D03*
D15*
X98700000Y-173642000D03*
%TD*%
D12*
%TO.C,SW39*%
X122195000Y-207932000D03*
D13*
X127275000Y-207932000D03*
D12*
X132355000Y-207932000D03*
D14*
X123465000Y-205392000D03*
X129815000Y-202852000D03*
%TD*%
D15*
%TO.C,D34*%
X155850000Y-185548000D03*
D16*
X155850000Y-177928000D03*
%TD*%
D12*
%TO.C,SW34*%
X141245000Y-165069000D03*
D13*
X146325000Y-165069000D03*
D12*
X151405000Y-165069000D03*
D14*
X142515000Y-162529000D03*
X148865000Y-159989000D03*
%TD*%
D12*
%TO.C,SW35*%
X141245000Y-184119000D03*
D13*
X146325000Y-184119000D03*
D12*
X151405000Y-184119000D03*
D14*
X142515000Y-181579000D03*
X148865000Y-179039000D03*
%TD*%
D12*
%TO.C,SW40*%
X103145000Y-169832000D03*
D13*
X108225000Y-169832000D03*
D12*
X113305000Y-169832000D03*
D14*
X104415000Y-167292000D03*
X110765000Y-164752000D03*
%TD*%
D16*
%TO.C,D63*%
X98700000Y-204122000D03*
D15*
X98700000Y-211742000D03*
%TD*%
D25*
%TO.C,J2*%
X226615242Y-222804438D03*
X229085461Y-217578884D03*
D26*
X225452110Y-222597495D03*
X225794009Y-221874235D03*
D27*
X226285489Y-220834549D03*
X226712862Y-219930473D03*
X226926549Y-219478436D03*
X227353923Y-218574361D03*
D26*
X227845403Y-217534674D03*
X228187301Y-216811414D03*
X228187301Y-216811414D03*
X227845403Y-217534674D03*
D27*
X227567610Y-218122323D03*
X227140236Y-219026398D03*
X226499176Y-220382511D03*
X226071802Y-221286586D03*
D26*
X225794009Y-221874235D03*
X225452110Y-222597495D03*
D28*
X225552060Y-223883578D03*
D29*
X229331094Y-225670000D03*
D28*
X229244568Y-216072369D03*
D29*
X233023602Y-217858791D03*
%TD*%
D10*
%TO.C,R8*%
X228795000Y-205900000D03*
D11*
X221175000Y-205900000D03*
%TD*%
D12*
%TO.C,SW41*%
X103145000Y-188882000D03*
D13*
X108225000Y-188882000D03*
D12*
X113305000Y-188882000D03*
D14*
X104415000Y-186342000D03*
X110765000Y-183802000D03*
%TD*%
D15*
%TO.C,D42*%
X117750000Y-211742000D03*
D16*
X117750000Y-204122000D03*
%TD*%
D15*
%TO.C,D35*%
X155850000Y-204598000D03*
D16*
X155850000Y-196978000D03*
%TD*%
D12*
%TO.C,SW32*%
X160295000Y-200788000D03*
D13*
X165375000Y-200788000D03*
D12*
X170455000Y-200788000D03*
D14*
X161565000Y-198248000D03*
X167915000Y-195708000D03*
%TD*%
D15*
%TO.C,D27*%
X193950000Y-209360000D03*
D16*
X193950000Y-201740000D03*
%TD*%
D12*
%TO.C,SW31*%
X160295000Y-181738000D03*
D13*
X165375000Y-181738000D03*
D12*
X170455000Y-181738000D03*
D14*
X161565000Y-179198000D03*
X167915000Y-176658000D03*
%TD*%
D12*
%TO.C,SW33*%
X169820000Y-224600000D03*
D13*
X174900000Y-224600000D03*
D12*
X179980000Y-224600000D03*
D14*
X171090000Y-222060000D03*
X177440000Y-219520000D03*
%TD*%
D15*
%TO.C,D31*%
X174900000Y-206979000D03*
D16*
X174900000Y-199359000D03*
%TD*%
D15*
%TO.C,D40*%
X117750000Y-173642000D03*
D16*
X117750000Y-166022000D03*
%TD*%
D12*
%TO.C,SW37*%
X122195000Y-169832000D03*
D13*
X127275000Y-169832000D03*
D12*
X132355000Y-169832000D03*
D14*
X123465000Y-167292000D03*
X129815000Y-164752000D03*
%TD*%
M02*
