%TF.GenerationSoftware,KiCad,Pcbnew,8.0.6*%
%TF.CreationDate,2024-10-21T20:36:20-04:00*%
%TF.ProjectId,retry,72657472-792e-46b6-9963-61645f706362,rev?*%
%TF.SameCoordinates,Original*%
%TF.FileFunction,Copper,L2,Bot*%
%TF.FilePolarity,Positive*%
%FSLAX46Y46*%
G04 Gerber Fmt 4.6, Leading zero omitted, Abs format (unit mm)*
G04 Created by KiCad (PCBNEW 8.0.6) date 2024-10-21 20:36:20*
%MOMM*%
%LPD*%
G01*
G04 APERTURE LIST*
%TA.AperFunction,ComponentPad*%
%ADD10C,2.500000*%
%TD*%
%TA.AperFunction,ComponentPad*%
%ADD11R,1.600000X1.600000*%
%TD*%
%TA.AperFunction,ComponentPad*%
%ADD12O,1.600000X1.600000*%
%TD*%
%TA.AperFunction,ComponentPad*%
%ADD13C,1.600000*%
%TD*%
%TA.AperFunction,Conductor*%
%ADD14C,0.200000*%
%TD*%
G04 APERTURE END LIST*
D10*
%TO.P,SW3,1,1*%
%TO.N,Column 3*%
X91440000Y-35560000D03*
%TO.P,SW3,2,2*%
%TO.N,Net-(D3-A)*%
X97790000Y-33020000D03*
%TD*%
%TO.P,SW2,1,1*%
%TO.N,Column 2*%
X72390000Y-35560000D03*
%TO.P,SW2,2,2*%
%TO.N,Net-(D2-A)*%
X78740000Y-33020000D03*
%TD*%
%TO.P,SW5,1,1*%
%TO.N,Column 2*%
X72390000Y-54610000D03*
%TO.P,SW5,2,2*%
%TO.N,Net-(D5-A)*%
X78740000Y-52070000D03*
%TD*%
%TO.P,SW4,1,1*%
%TO.N,Column 1*%
X53340000Y-54610000D03*
%TO.P,SW4,2,2*%
%TO.N,Net-(D4-A)*%
X59690000Y-52070000D03*
%TD*%
%TO.P,SW6,1,1*%
%TO.N,Column 3*%
X91440000Y-54610000D03*
%TO.P,SW6,2,2*%
%TO.N,Net-(D6-A)*%
X97790000Y-52070000D03*
%TD*%
%TO.P,SW1,1,1*%
%TO.N,Column 1*%
X53340000Y-35560000D03*
%TO.P,SW1,2,2*%
%TO.N,Net-(D1-A)*%
X59690000Y-33020000D03*
%TD*%
D11*
%TO.P,D6,1,K*%
%TO.N,Row 2*%
X104775000Y-59705000D03*
D12*
%TO.P,D6,2,A*%
%TO.N,Net-(D6-A)*%
X104775000Y-52085000D03*
%TD*%
D11*
%TO.P,D2,1,K*%
%TO.N,Row 1*%
X85725000Y-40675000D03*
D12*
%TO.P,D2,2,A*%
%TO.N,Net-(D2-A)*%
X85725000Y-33055000D03*
%TD*%
D11*
%TO.P,D1,1,K*%
%TO.N,Row 1*%
X66675000Y-40645000D03*
D12*
%TO.P,D1,2,A*%
%TO.N,Net-(D1-A)*%
X66675000Y-33025000D03*
%TD*%
D11*
%TO.P,D4,1,K*%
%TO.N,Row 2*%
X66675000Y-59735000D03*
D12*
%TO.P,D4,2,A*%
%TO.N,Net-(D4-A)*%
X66675000Y-52115000D03*
%TD*%
D11*
%TO.P,D3,1,K*%
%TO.N,Row 1*%
X104785000Y-40655000D03*
D12*
%TO.P,D3,2,A*%
%TO.N,Net-(D3-A)*%
X104785000Y-33035000D03*
%TD*%
D11*
%TO.P,D5,1,K*%
%TO.N,Row 2*%
X85735000Y-59665000D03*
D12*
%TO.P,D5,2,A*%
%TO.N,Net-(D5-A)*%
X85735000Y-52045000D03*
%TD*%
D13*
%TO.P,U1,14,5V*%
%TO.N,unconnected-(U1-5V-Pad14)*%
X126682500Y-40005000D03*
%TO.P,U1,13,GND*%
%TO.N,Row 2*%
X126682500Y-42545000D03*
%TO.P,U1,12,3V3*%
%TO.N,unconnected-(U1-3V3-Pad12)*%
X126682500Y-45085000D03*
%TO.P,U1,11,PA6_A10_D10_MOSI*%
%TO.N,unconnected-(U1-PA6_A10_D10_MOSI-Pad11)*%
X126682500Y-47625000D03*
%TO.P,U1,10,PA5_A9_D9_MISO*%
%TO.N,unconnected-(U1-PA5_A9_D9_MISO-Pad10)*%
X126682500Y-50165000D03*
%TO.P,U1,9,PA7_A8_D8_SCK*%
%TO.N,unconnected-(U1-PA7_A8_D8_SCK-Pad9)*%
X126682500Y-52705000D03*
%TO.P,U1,8,PB09_A7_D7_RX*%
%TO.N,unconnected-(U1-PB09_A7_D7_RX-Pad8)*%
X126682500Y-55245000D03*
%TO.P,U1,7,PB08_A6_D6_TX*%
%TO.N,unconnected-(U1-PB08_A6_D6_TX-Pad7)*%
X111442500Y-55245000D03*
%TO.P,U1,6,PA9_A5_D5_SCL*%
%TO.N,unconnected-(U1-PA9_A5_D5_SCL-Pad6)*%
X111442500Y-52705000D03*
%TO.P,U1,5,PA8_A4_D4_SDA*%
%TO.N,Column 3*%
X111442500Y-50165000D03*
%TO.P,U1,4,PA11_A3_D3*%
%TO.N,Column 2*%
X111442500Y-47625000D03*
%TO.P,U1,3,PA10_A2_D2*%
%TO.N,Column 1*%
X111442500Y-45085000D03*
%TO.P,U1,2,PA4_A1_D1*%
%TO.N,Row 2*%
X111442500Y-42545000D03*
D11*
%TO.P,U1,1,PA02_A0_D0*%
%TO.N,Row 1*%
X111442500Y-40005000D03*
%TD*%
D14*
%TO.N,Row 1*%
X104785000Y-40655000D02*
X110792500Y-40655000D01*
X110792500Y-40655000D02*
X111442500Y-40005000D01*
%TO.N,Row 2*%
X109537500Y-44450000D02*
X111442500Y-42545000D01*
X111442500Y-42545000D02*
X126682500Y-42545000D01*
X104775000Y-59705000D02*
X109537500Y-54942500D01*
X109537500Y-54942500D02*
X109537500Y-44450000D01*
%TO.N,Column 1*%
X53340000Y-35560000D02*
X53340000Y-54610000D01*
%TO.N,Column 2*%
X72390000Y-35560000D02*
X72390000Y-54610000D01*
%TO.N,Column 3*%
X91440000Y-35560000D02*
X91440000Y-54610000D01*
%TD*%
%TA.AperFunction,NonConductor*%
G36*
X128395863Y-24332685D02*
G01*
X128416505Y-24349319D01*
X132813181Y-28745995D01*
X132846666Y-28807318D01*
X132849500Y-28833676D01*
X132849500Y-66416324D01*
X132829815Y-66483363D01*
X132813181Y-66504005D01*
X128416505Y-70900681D01*
X128355182Y-70934166D01*
X128328824Y-70937000D01*
X47883676Y-70937000D01*
X47816637Y-70917315D01*
X47795995Y-70900681D01*
X43399319Y-66504005D01*
X43365834Y-66442682D01*
X43363000Y-66416324D01*
X43363000Y-38011421D01*
X50944500Y-38011421D01*
X50944500Y-38188578D01*
X50972214Y-38363556D01*
X51026956Y-38532039D01*
X51026957Y-38532042D01*
X51107386Y-38689890D01*
X51211517Y-38833214D01*
X51336786Y-38958483D01*
X51480110Y-39062614D01*
X51548577Y-39097500D01*
X51637957Y-39143042D01*
X51637960Y-39143043D01*
X51722201Y-39170414D01*
X51806445Y-39197786D01*
X51981421Y-39225500D01*
X51981422Y-39225500D01*
X52158578Y-39225500D01*
X52158579Y-39225500D01*
X52333555Y-39197786D01*
X52502042Y-39143042D01*
X52559205Y-39113915D01*
X52627873Y-39101019D01*
X52692613Y-39127294D01*
X52732871Y-39184400D01*
X52739500Y-39224400D01*
X52739500Y-52878363D01*
X52719815Y-52945402D01*
X52669302Y-52990083D01*
X52462300Y-53089769D01*
X52245520Y-53237567D01*
X52053198Y-53416014D01*
X51889614Y-53621143D01*
X51758432Y-53848356D01*
X51662582Y-54092578D01*
X51662576Y-54092597D01*
X51604197Y-54348374D01*
X51604196Y-54348379D01*
X51584592Y-54609995D01*
X51584592Y-54610004D01*
X51604196Y-54871620D01*
X51604197Y-54871625D01*
X51662576Y-55127402D01*
X51662578Y-55127411D01*
X51662580Y-55127416D01*
X51758432Y-55371643D01*
X51889614Y-55598857D01*
X51940733Y-55662958D01*
X52053197Y-55803984D01*
X52059377Y-55809717D01*
X52095133Y-55869744D01*
X52092760Y-55939574D01*
X52053011Y-55997035D01*
X51988506Y-56023884D01*
X51984788Y-56024234D01*
X51981428Y-56024498D01*
X51806443Y-56052214D01*
X51637960Y-56106956D01*
X51637957Y-56106957D01*
X51480109Y-56187386D01*
X51402104Y-56244061D01*
X51336786Y-56291517D01*
X51336784Y-56291519D01*
X51336783Y-56291519D01*
X51211519Y-56416783D01*
X51211519Y-56416784D01*
X51211517Y-56416786D01*
X51171592Y-56471738D01*
X51107386Y-56560109D01*
X51026957Y-56717957D01*
X51026956Y-56717960D01*
X50972214Y-56886443D01*
X50944500Y-57061421D01*
X50944500Y-57238578D01*
X50972214Y-57413556D01*
X51026956Y-57582039D01*
X51026957Y-57582042D01*
X51107386Y-57739890D01*
X51211517Y-57883214D01*
X51336786Y-58008483D01*
X51480110Y-58112614D01*
X51548577Y-58147500D01*
X51637957Y-58193042D01*
X51637960Y-58193043D01*
X51722201Y-58220414D01*
X51806445Y-58247786D01*
X51981421Y-58275500D01*
X51981422Y-58275500D01*
X52158578Y-58275500D01*
X52158579Y-58275500D01*
X52333555Y-58247786D01*
X52502042Y-58193042D01*
X52659890Y-58112614D01*
X52803214Y-58008483D01*
X52928483Y-57883214D01*
X53032614Y-57739890D01*
X53113042Y-57582042D01*
X53167786Y-57413555D01*
X53195500Y-57238579D01*
X53195500Y-57061421D01*
X53186165Y-57002486D01*
X54899500Y-57002486D01*
X54899500Y-57297513D01*
X54914778Y-57413555D01*
X54938007Y-57589993D01*
X55014361Y-57874951D01*
X55014364Y-57874961D01*
X55127254Y-58147500D01*
X55127258Y-58147510D01*
X55274761Y-58402993D01*
X55454352Y-58637040D01*
X55454358Y-58637047D01*
X55662952Y-58845641D01*
X55662959Y-58845647D01*
X55897006Y-59025238D01*
X56152489Y-59172741D01*
X56152490Y-59172741D01*
X56152493Y-59172743D01*
X56425048Y-59285639D01*
X56710007Y-59361993D01*
X57002494Y-59400500D01*
X57002501Y-59400500D01*
X57297499Y-59400500D01*
X57297506Y-59400500D01*
X57589993Y-59361993D01*
X57874952Y-59285639D01*
X58147507Y-59172743D01*
X58402994Y-59025238D01*
X58582973Y-58887135D01*
X65374500Y-58887135D01*
X65374500Y-60582870D01*
X65374501Y-60582876D01*
X65380908Y-60642483D01*
X65431202Y-60777328D01*
X65431206Y-60777335D01*
X65517452Y-60892544D01*
X65517455Y-60892547D01*
X65632664Y-60978793D01*
X65632671Y-60978797D01*
X65767517Y-61029091D01*
X65767516Y-61029091D01*
X65774444Y-61029835D01*
X65827127Y-61035500D01*
X67522872Y-61035499D01*
X67582483Y-61029091D01*
X67717331Y-60978796D01*
X67832546Y-60892546D01*
X67918796Y-60777331D01*
X67969091Y-60642483D01*
X67975500Y-60582873D01*
X67975499Y-58887128D01*
X67969091Y-58827517D01*
X67965216Y-58817128D01*
X67918797Y-58692671D01*
X67918793Y-58692664D01*
X67832547Y-58577455D01*
X67832544Y-58577452D01*
X67717335Y-58491206D01*
X67717328Y-58491202D01*
X67582482Y-58440908D01*
X67582483Y-58440908D01*
X67522883Y-58434501D01*
X67522881Y-58434500D01*
X67522873Y-58434500D01*
X67522864Y-58434500D01*
X65827129Y-58434500D01*
X65827123Y-58434501D01*
X65767516Y-58440908D01*
X65632671Y-58491202D01*
X65632664Y-58491206D01*
X65517455Y-58577452D01*
X65517452Y-58577455D01*
X65431206Y-58692664D01*
X65431202Y-58692671D01*
X65380908Y-58827517D01*
X65374501Y-58887116D01*
X65374501Y-58887123D01*
X65374500Y-58887135D01*
X58582973Y-58887135D01*
X58637042Y-58845646D01*
X58845646Y-58637042D01*
X59025238Y-58402994D01*
X59172743Y-58147507D01*
X59285639Y-57874952D01*
X59361993Y-57589993D01*
X59400500Y-57297506D01*
X59400500Y-57061421D01*
X61104500Y-57061421D01*
X61104500Y-57238578D01*
X61132214Y-57413556D01*
X61186956Y-57582039D01*
X61186957Y-57582042D01*
X61267386Y-57739890D01*
X61371517Y-57883214D01*
X61496786Y-58008483D01*
X61640110Y-58112614D01*
X61708577Y-58147500D01*
X61797957Y-58193042D01*
X61797960Y-58193043D01*
X61882201Y-58220414D01*
X61966445Y-58247786D01*
X62141421Y-58275500D01*
X62141422Y-58275500D01*
X62318578Y-58275500D01*
X62318579Y-58275500D01*
X62493555Y-58247786D01*
X62662042Y-58193042D01*
X62819890Y-58112614D01*
X62963214Y-58008483D01*
X63088483Y-57883214D01*
X63192614Y-57739890D01*
X63273042Y-57582042D01*
X63327786Y-57413555D01*
X63355500Y-57238579D01*
X63355500Y-57061421D01*
X63327786Y-56886445D01*
X63273042Y-56717958D01*
X63273042Y-56717957D01*
X63192613Y-56560109D01*
X63192611Y-56560106D01*
X63088483Y-56416786D01*
X62963214Y-56291517D01*
X62819890Y-56187386D01*
X62662042Y-56106957D01*
X62662039Y-56106956D01*
X62493556Y-56052214D01*
X62406067Y-56038357D01*
X62318579Y-56024500D01*
X62141421Y-56024500D01*
X62083095Y-56033738D01*
X61966443Y-56052214D01*
X61797960Y-56106956D01*
X61797957Y-56106957D01*
X61640109Y-56187386D01*
X61562104Y-56244061D01*
X61496786Y-56291517D01*
X61496784Y-56291519D01*
X61496783Y-56291519D01*
X61371519Y-56416783D01*
X61371519Y-56416784D01*
X61371517Y-56416786D01*
X61331592Y-56471738D01*
X61267386Y-56560109D01*
X61186957Y-56717957D01*
X61186956Y-56717960D01*
X61132214Y-56886443D01*
X61104500Y-57061421D01*
X59400500Y-57061421D01*
X59400500Y-57002494D01*
X59361993Y-56710007D01*
X59285639Y-56425048D01*
X59172743Y-56152493D01*
X59159888Y-56130228D01*
X59025238Y-55897006D01*
X58845647Y-55662959D01*
X58845641Y-55662952D01*
X58637047Y-55454358D01*
X58637040Y-55454352D01*
X58402993Y-55274761D01*
X58147510Y-55127258D01*
X58147500Y-55127254D01*
X57874961Y-55014364D01*
X57874954Y-55014362D01*
X57874952Y-55014361D01*
X57589993Y-54938007D01*
X57541113Y-54931571D01*
X57297513Y-54899500D01*
X57297506Y-54899500D01*
X57002494Y-54899500D01*
X57002486Y-54899500D01*
X56724085Y-54936153D01*
X56710007Y-54938007D01*
X56425048Y-55014361D01*
X56425038Y-55014364D01*
X56152499Y-55127254D01*
X56152489Y-55127258D01*
X55897006Y-55274761D01*
X55662959Y-55454352D01*
X55662952Y-55454358D01*
X55454358Y-55662952D01*
X55454352Y-55662959D01*
X55274761Y-55897006D01*
X55127258Y-56152489D01*
X55127254Y-56152499D01*
X55014364Y-56425038D01*
X55014361Y-56425048D01*
X54978172Y-56560110D01*
X54938008Y-56710004D01*
X54938006Y-56710015D01*
X54899500Y-57002486D01*
X53186165Y-57002486D01*
X53167786Y-56886445D01*
X53113042Y-56717958D01*
X53113042Y-56717957D01*
X53085190Y-56663295D01*
X53032614Y-56560110D01*
X53025609Y-56550468D01*
X53022202Y-56545778D01*
X52998722Y-56479972D01*
X53014548Y-56411918D01*
X53064654Y-56363223D01*
X53133132Y-56349348D01*
X53140992Y-56350276D01*
X53208818Y-56360500D01*
X53471182Y-56360500D01*
X53730615Y-56321396D01*
X53981323Y-56244063D01*
X54217704Y-56130228D01*
X54434479Y-55982433D01*
X54626805Y-55803981D01*
X54790386Y-55598857D01*
X54921568Y-55371643D01*
X55017420Y-55127416D01*
X55075802Y-54871630D01*
X55076416Y-54863443D01*
X55095408Y-54610004D01*
X55095408Y-54609995D01*
X55075803Y-54348379D01*
X55075802Y-54348374D01*
X55075802Y-54348370D01*
X55017420Y-54092584D01*
X54921568Y-53848357D01*
X54790386Y-53621143D01*
X54626805Y-53416019D01*
X54626804Y-53416018D01*
X54626801Y-53416014D01*
X54434479Y-53237567D01*
X54343542Y-53175567D01*
X54217704Y-53089772D01*
X54217701Y-53089771D01*
X54217699Y-53089769D01*
X54010698Y-52990083D01*
X53958839Y-52943261D01*
X53940500Y-52878363D01*
X53940500Y-52069995D01*
X57934592Y-52069995D01*
X57934592Y-52070004D01*
X57954196Y-52331620D01*
X57954197Y-52331625D01*
X58012576Y-52587402D01*
X58012578Y-52587411D01*
X58012580Y-52587416D01*
X58108432Y-52831643D01*
X58239614Y-53058857D01*
X58313492Y-53151497D01*
X58403198Y-53263985D01*
X58528097Y-53379873D01*
X58595521Y-53442433D01*
X58812296Y-53590228D01*
X58812301Y-53590230D01*
X58812302Y-53590231D01*
X58812303Y-53590232D01*
X58937843Y-53650688D01*
X59048673Y-53704061D01*
X59048674Y-53704061D01*
X59048677Y-53704063D01*
X59299385Y-53781396D01*
X59558818Y-53820500D01*
X59821182Y-53820500D01*
X60080615Y-53781396D01*
X60331323Y-53704063D01*
X60567704Y-53590228D01*
X60784479Y-53442433D01*
X60976805Y-53263981D01*
X61140386Y-53058857D01*
X61271568Y-52831643D01*
X61367420Y-52587416D01*
X61425802Y-52331630D01*
X61427297Y-52311686D01*
X61442036Y-52114998D01*
X65369532Y-52114998D01*
X65369532Y-52115001D01*
X65389364Y-52341686D01*
X65389366Y-52341697D01*
X65448258Y-52561488D01*
X65448261Y-52561497D01*
X65544431Y-52767732D01*
X65544432Y-52767734D01*
X65674954Y-52954141D01*
X65835858Y-53115045D01*
X65835861Y-53115047D01*
X66022266Y-53245568D01*
X66228504Y-53341739D01*
X66448308Y-53400635D01*
X66610230Y-53414801D01*
X66674998Y-53420468D01*
X66675000Y-53420468D01*
X66675002Y-53420468D01*
X66731673Y-53415509D01*
X66901692Y-53400635D01*
X67121496Y-53341739D01*
X67327734Y-53245568D01*
X67514139Y-53115047D01*
X67675047Y-52954139D01*
X67805568Y-52767734D01*
X67901739Y-52561496D01*
X67960635Y-52341692D01*
X67980468Y-52115000D01*
X67977843Y-52085001D01*
X67968527Y-51978511D01*
X67960635Y-51888308D01*
X67901739Y-51668504D01*
X67805568Y-51462266D01*
X67675047Y-51275861D01*
X67675045Y-51275858D01*
X67514141Y-51114954D01*
X67327734Y-50984432D01*
X67327732Y-50984431D01*
X67121497Y-50888261D01*
X67121488Y-50888258D01*
X66901697Y-50829366D01*
X66901693Y-50829365D01*
X66901692Y-50829365D01*
X66901691Y-50829364D01*
X66901686Y-50829364D01*
X66675002Y-50809532D01*
X66674998Y-50809532D01*
X66448313Y-50829364D01*
X66448302Y-50829366D01*
X66228511Y-50888258D01*
X66228502Y-50888261D01*
X66022267Y-50984431D01*
X66022265Y-50984432D01*
X65835858Y-51114954D01*
X65674954Y-51275858D01*
X65544432Y-51462265D01*
X65544431Y-51462267D01*
X65448261Y-51668502D01*
X65448258Y-51668511D01*
X65389366Y-51888302D01*
X65389364Y-51888313D01*
X65369532Y-52114998D01*
X61442036Y-52114998D01*
X61445408Y-52070004D01*
X61445408Y-52069995D01*
X61425803Y-51808379D01*
X61425802Y-51808374D01*
X61425802Y-51808370D01*
X61367420Y-51552584D01*
X61271568Y-51308357D01*
X61140386Y-51081143D01*
X60976805Y-50876019D01*
X60976804Y-50876018D01*
X60976801Y-50876014D01*
X60784479Y-50697567D01*
X60567704Y-50549772D01*
X60567700Y-50549770D01*
X60567697Y-50549768D01*
X60567696Y-50549767D01*
X60331325Y-50435938D01*
X60331327Y-50435938D01*
X60080623Y-50358606D01*
X60080619Y-50358605D01*
X60080615Y-50358604D01*
X59955823Y-50339794D01*
X59821187Y-50319500D01*
X59821182Y-50319500D01*
X59558818Y-50319500D01*
X59558812Y-50319500D01*
X59397247Y-50343853D01*
X59299385Y-50358604D01*
X59299382Y-50358605D01*
X59299376Y-50358606D01*
X59048673Y-50435938D01*
X58812303Y-50549767D01*
X58812302Y-50549768D01*
X58595520Y-50697567D01*
X58403198Y-50876014D01*
X58239614Y-51081143D01*
X58108432Y-51308356D01*
X58012582Y-51552578D01*
X58012576Y-51552597D01*
X57954197Y-51808374D01*
X57954196Y-51808379D01*
X57934592Y-52069995D01*
X53940500Y-52069995D01*
X53940500Y-37952486D01*
X54899500Y-37952486D01*
X54899500Y-38247513D01*
X54914778Y-38363555D01*
X54938007Y-38539993D01*
X55014361Y-38824951D01*
X55014364Y-38824961D01*
X55127254Y-39097500D01*
X55127258Y-39097510D01*
X55274761Y-39352993D01*
X55454352Y-39587040D01*
X55454358Y-39587047D01*
X55662952Y-39795641D01*
X55662959Y-39795647D01*
X55897006Y-39975238D01*
X56152489Y-40122741D01*
X56152490Y-40122741D01*
X56152493Y-40122743D01*
X56363296Y-40210060D01*
X56415504Y-40231686D01*
X56425048Y-40235639D01*
X56710007Y-40311993D01*
X57002494Y-40350500D01*
X57002501Y-40350500D01*
X57297499Y-40350500D01*
X57297506Y-40350500D01*
X57589993Y-40311993D01*
X57874952Y-40235639D01*
X58147507Y-40122743D01*
X58402994Y-39975238D01*
X58635102Y-39797135D01*
X65374500Y-39797135D01*
X65374500Y-41492870D01*
X65374501Y-41492876D01*
X65380908Y-41552483D01*
X65431202Y-41687328D01*
X65431206Y-41687335D01*
X65517452Y-41802544D01*
X65517455Y-41802547D01*
X65632664Y-41888793D01*
X65632671Y-41888797D01*
X65767517Y-41939091D01*
X65767516Y-41939091D01*
X65774444Y-41939835D01*
X65827127Y-41945500D01*
X67522872Y-41945499D01*
X67582483Y-41939091D01*
X67717331Y-41888796D01*
X67832546Y-41802546D01*
X67918796Y-41687331D01*
X67969091Y-41552483D01*
X67975500Y-41492873D01*
X67975499Y-39797128D01*
X67969091Y-39737517D01*
X67929985Y-39632669D01*
X67918797Y-39602671D01*
X67918793Y-39602664D01*
X67832547Y-39487455D01*
X67832544Y-39487452D01*
X67717335Y-39401206D01*
X67717328Y-39401202D01*
X67582482Y-39350908D01*
X67582483Y-39350908D01*
X67522883Y-39344501D01*
X67522881Y-39344500D01*
X67522873Y-39344500D01*
X67522864Y-39344500D01*
X65827129Y-39344500D01*
X65827123Y-39344501D01*
X65767516Y-39350908D01*
X65632671Y-39401202D01*
X65632664Y-39401206D01*
X65517455Y-39487452D01*
X65517452Y-39487455D01*
X65431206Y-39602664D01*
X65431202Y-39602671D01*
X65380908Y-39737517D01*
X65374660Y-39795641D01*
X65374501Y-39797123D01*
X65374500Y-39797135D01*
X58635102Y-39797135D01*
X58637042Y-39795646D01*
X58845646Y-39587042D01*
X59025238Y-39352994D01*
X59172743Y-39097507D01*
X59285639Y-38824952D01*
X59361993Y-38539993D01*
X59400500Y-38247506D01*
X59400500Y-38011421D01*
X61104500Y-38011421D01*
X61104500Y-38188578D01*
X61132214Y-38363556D01*
X61186956Y-38532039D01*
X61186957Y-38532042D01*
X61267386Y-38689890D01*
X61371517Y-38833214D01*
X61496786Y-38958483D01*
X61640110Y-39062614D01*
X61708577Y-39097500D01*
X61797957Y-39143042D01*
X61797960Y-39143043D01*
X61882201Y-39170414D01*
X61966445Y-39197786D01*
X62141421Y-39225500D01*
X62141422Y-39225500D01*
X62318578Y-39225500D01*
X62318579Y-39225500D01*
X62493555Y-39197786D01*
X62662042Y-39143042D01*
X62819890Y-39062614D01*
X62963214Y-38958483D01*
X63088483Y-38833214D01*
X63192614Y-38689890D01*
X63273042Y-38532042D01*
X63327786Y-38363555D01*
X63355500Y-38188579D01*
X63355500Y-38011421D01*
X69994500Y-38011421D01*
X69994500Y-38188578D01*
X70022214Y-38363556D01*
X70076956Y-38532039D01*
X70076957Y-38532042D01*
X70157386Y-38689890D01*
X70261517Y-38833214D01*
X70386786Y-38958483D01*
X70530110Y-39062614D01*
X70598577Y-39097500D01*
X70687957Y-39143042D01*
X70687960Y-39143043D01*
X70772201Y-39170414D01*
X70856445Y-39197786D01*
X71031421Y-39225500D01*
X71031422Y-39225500D01*
X71208578Y-39225500D01*
X71208579Y-39225500D01*
X71383555Y-39197786D01*
X71552042Y-39143042D01*
X71609205Y-39113915D01*
X71677873Y-39101019D01*
X71742613Y-39127294D01*
X71782871Y-39184400D01*
X71789500Y-39224400D01*
X71789500Y-52878363D01*
X71769815Y-52945402D01*
X71719302Y-52990083D01*
X71512300Y-53089769D01*
X71295520Y-53237567D01*
X71103198Y-53416014D01*
X70939614Y-53621143D01*
X70808432Y-53848356D01*
X70712582Y-54092578D01*
X70712576Y-54092597D01*
X70654197Y-54348374D01*
X70654196Y-54348379D01*
X70634592Y-54609995D01*
X70634592Y-54610004D01*
X70654196Y-54871620D01*
X70654197Y-54871625D01*
X70712576Y-55127402D01*
X70712578Y-55127411D01*
X70712580Y-55127416D01*
X70808432Y-55371643D01*
X70939614Y-55598857D01*
X70990733Y-55662958D01*
X71103197Y-55803984D01*
X71109377Y-55809717D01*
X71145133Y-55869744D01*
X71142760Y-55939574D01*
X71103011Y-55997035D01*
X71038506Y-56023884D01*
X71034788Y-56024234D01*
X71031428Y-56024498D01*
X70856443Y-56052214D01*
X70687960Y-56106956D01*
X70687957Y-56106957D01*
X70530109Y-56187386D01*
X70452104Y-56244061D01*
X70386786Y-56291517D01*
X70386784Y-56291519D01*
X70386783Y-56291519D01*
X70261519Y-56416783D01*
X70261519Y-56416784D01*
X70261517Y-56416786D01*
X70221592Y-56471738D01*
X70157386Y-56560109D01*
X70076957Y-56717957D01*
X70076956Y-56717960D01*
X70022214Y-56886443D01*
X69994500Y-57061421D01*
X69994500Y-57238578D01*
X70022214Y-57413556D01*
X70076956Y-57582039D01*
X70076957Y-57582042D01*
X70157386Y-57739890D01*
X70261517Y-57883214D01*
X70386786Y-58008483D01*
X70530110Y-58112614D01*
X70598577Y-58147500D01*
X70687957Y-58193042D01*
X70687960Y-58193043D01*
X70772201Y-58220414D01*
X70856445Y-58247786D01*
X71031421Y-58275500D01*
X71031422Y-58275500D01*
X71208578Y-58275500D01*
X71208579Y-58275500D01*
X71383555Y-58247786D01*
X71552042Y-58193042D01*
X71709890Y-58112614D01*
X71853214Y-58008483D01*
X71978483Y-57883214D01*
X72082614Y-57739890D01*
X72163042Y-57582042D01*
X72217786Y-57413555D01*
X72245500Y-57238579D01*
X72245500Y-57061421D01*
X72236165Y-57002486D01*
X73949500Y-57002486D01*
X73949500Y-57297513D01*
X73964778Y-57413555D01*
X73988007Y-57589993D01*
X74064361Y-57874951D01*
X74064364Y-57874961D01*
X74177254Y-58147500D01*
X74177258Y-58147510D01*
X74324761Y-58402993D01*
X74504352Y-58637040D01*
X74504358Y-58637047D01*
X74712952Y-58845641D01*
X74712959Y-58845647D01*
X74947006Y-59025238D01*
X75202489Y-59172741D01*
X75202490Y-59172741D01*
X75202493Y-59172743D01*
X75475048Y-59285639D01*
X75760007Y-59361993D01*
X76052494Y-59400500D01*
X76052501Y-59400500D01*
X76347499Y-59400500D01*
X76347506Y-59400500D01*
X76639993Y-59361993D01*
X76924952Y-59285639D01*
X77197507Y-59172743D01*
X77452994Y-59025238D01*
X77687042Y-58845646D01*
X77715553Y-58817135D01*
X84434500Y-58817135D01*
X84434500Y-60512870D01*
X84434501Y-60512876D01*
X84440908Y-60572483D01*
X84491202Y-60707328D01*
X84491206Y-60707335D01*
X84577452Y-60822544D01*
X84577455Y-60822547D01*
X84692664Y-60908793D01*
X84692671Y-60908797D01*
X84827517Y-60959091D01*
X84827516Y-60959091D01*
X84834444Y-60959835D01*
X84887127Y-60965500D01*
X86582872Y-60965499D01*
X86642483Y-60959091D01*
X86777331Y-60908796D01*
X86892546Y-60822546D01*
X86978796Y-60707331D01*
X87029091Y-60572483D01*
X87035500Y-60512873D01*
X87035499Y-58817128D01*
X87029091Y-58757517D01*
X87004904Y-58692669D01*
X86978797Y-58622671D01*
X86978793Y-58622664D01*
X86892547Y-58507455D01*
X86892544Y-58507452D01*
X86777335Y-58421206D01*
X86777328Y-58421202D01*
X86642482Y-58370908D01*
X86642483Y-58370908D01*
X86582883Y-58364501D01*
X86582881Y-58364500D01*
X86582873Y-58364500D01*
X86582864Y-58364500D01*
X84887129Y-58364500D01*
X84887123Y-58364501D01*
X84827516Y-58370908D01*
X84692671Y-58421202D01*
X84692664Y-58421206D01*
X84577455Y-58507452D01*
X84577452Y-58507455D01*
X84491206Y-58622664D01*
X84491202Y-58622671D01*
X84440908Y-58757517D01*
X84436608Y-58797517D01*
X84434501Y-58817123D01*
X84434500Y-58817135D01*
X77715553Y-58817135D01*
X77895646Y-58637042D01*
X78075238Y-58402994D01*
X78222743Y-58147507D01*
X78335639Y-57874952D01*
X78411993Y-57589993D01*
X78450500Y-57297506D01*
X78450500Y-57061421D01*
X80154500Y-57061421D01*
X80154500Y-57238578D01*
X80182214Y-57413556D01*
X80236956Y-57582039D01*
X80236957Y-57582042D01*
X80317386Y-57739890D01*
X80421517Y-57883214D01*
X80546786Y-58008483D01*
X80690110Y-58112614D01*
X80758577Y-58147500D01*
X80847957Y-58193042D01*
X80847960Y-58193043D01*
X80932201Y-58220414D01*
X81016445Y-58247786D01*
X81191421Y-58275500D01*
X81191422Y-58275500D01*
X81368578Y-58275500D01*
X81368579Y-58275500D01*
X81543555Y-58247786D01*
X81712042Y-58193042D01*
X81869890Y-58112614D01*
X82013214Y-58008483D01*
X82138483Y-57883214D01*
X82242614Y-57739890D01*
X82323042Y-57582042D01*
X82377786Y-57413555D01*
X82405500Y-57238579D01*
X82405500Y-57061421D01*
X82377786Y-56886445D01*
X82323042Y-56717958D01*
X82323042Y-56717957D01*
X82242613Y-56560109D01*
X82242611Y-56560106D01*
X82138483Y-56416786D01*
X82013214Y-56291517D01*
X81869890Y-56187386D01*
X81712042Y-56106957D01*
X81712039Y-56106956D01*
X81543556Y-56052214D01*
X81456067Y-56038357D01*
X81368579Y-56024500D01*
X81191421Y-56024500D01*
X81133095Y-56033738D01*
X81016443Y-56052214D01*
X80847960Y-56106956D01*
X80847957Y-56106957D01*
X80690109Y-56187386D01*
X80612104Y-56244061D01*
X80546786Y-56291517D01*
X80546784Y-56291519D01*
X80546783Y-56291519D01*
X80421519Y-56416783D01*
X80421519Y-56416784D01*
X80421517Y-56416786D01*
X80381592Y-56471738D01*
X80317386Y-56560109D01*
X80236957Y-56717957D01*
X80236956Y-56717960D01*
X80182214Y-56886443D01*
X80154500Y-57061421D01*
X78450500Y-57061421D01*
X78450500Y-57002494D01*
X78411993Y-56710007D01*
X78335639Y-56425048D01*
X78222743Y-56152493D01*
X78209888Y-56130228D01*
X78075238Y-55897006D01*
X77895647Y-55662959D01*
X77895641Y-55662952D01*
X77687047Y-55454358D01*
X77687040Y-55454352D01*
X77452993Y-55274761D01*
X77197510Y-55127258D01*
X77197500Y-55127254D01*
X76924961Y-55014364D01*
X76924954Y-55014362D01*
X76924952Y-55014361D01*
X76639993Y-54938007D01*
X76591113Y-54931571D01*
X76347513Y-54899500D01*
X76347506Y-54899500D01*
X76052494Y-54899500D01*
X76052486Y-54899500D01*
X75774085Y-54936153D01*
X75760007Y-54938007D01*
X75475048Y-55014361D01*
X75475038Y-55014364D01*
X75202499Y-55127254D01*
X75202489Y-55127258D01*
X74947006Y-55274761D01*
X74712959Y-55454352D01*
X74712952Y-55454358D01*
X74504358Y-55662952D01*
X74504352Y-55662959D01*
X74324761Y-55897006D01*
X74177258Y-56152489D01*
X74177254Y-56152499D01*
X74064364Y-56425038D01*
X74064361Y-56425048D01*
X74028172Y-56560110D01*
X73988008Y-56710004D01*
X73988006Y-56710015D01*
X73949500Y-57002486D01*
X72236165Y-57002486D01*
X72217786Y-56886445D01*
X72163042Y-56717958D01*
X72163042Y-56717957D01*
X72135190Y-56663295D01*
X72082614Y-56560110D01*
X72075609Y-56550468D01*
X72072202Y-56545778D01*
X72048722Y-56479972D01*
X72064548Y-56411918D01*
X72114654Y-56363223D01*
X72183132Y-56349348D01*
X72190992Y-56350276D01*
X72258818Y-56360500D01*
X72521182Y-56360500D01*
X72780615Y-56321396D01*
X73031323Y-56244063D01*
X73267704Y-56130228D01*
X73484479Y-55982433D01*
X73676805Y-55803981D01*
X73840386Y-55598857D01*
X73971568Y-55371643D01*
X74067420Y-55127416D01*
X74125802Y-54871630D01*
X74126416Y-54863443D01*
X74145408Y-54610004D01*
X74145408Y-54609995D01*
X74125803Y-54348379D01*
X74125802Y-54348374D01*
X74125802Y-54348370D01*
X74067420Y-54092584D01*
X73971568Y-53848357D01*
X73840386Y-53621143D01*
X73676805Y-53416019D01*
X73676804Y-53416018D01*
X73676801Y-53416014D01*
X73484479Y-53237567D01*
X73393542Y-53175567D01*
X73267704Y-53089772D01*
X73267701Y-53089771D01*
X73267699Y-53089769D01*
X73060698Y-52990083D01*
X73008839Y-52943261D01*
X72990500Y-52878363D01*
X72990500Y-52069995D01*
X76984592Y-52069995D01*
X76984592Y-52070004D01*
X77004196Y-52331620D01*
X77004197Y-52331625D01*
X77062576Y-52587402D01*
X77062578Y-52587411D01*
X77062580Y-52587416D01*
X77158432Y-52831643D01*
X77289614Y-53058857D01*
X77363492Y-53151497D01*
X77453198Y-53263985D01*
X77578097Y-53379873D01*
X77645521Y-53442433D01*
X77862296Y-53590228D01*
X77862301Y-53590230D01*
X77862302Y-53590231D01*
X77862303Y-53590232D01*
X77987843Y-53650688D01*
X78098673Y-53704061D01*
X78098674Y-53704061D01*
X78098677Y-53704063D01*
X78349385Y-53781396D01*
X78608818Y-53820500D01*
X78871182Y-53820500D01*
X79130615Y-53781396D01*
X79381323Y-53704063D01*
X79617704Y-53590228D01*
X79834479Y-53442433D01*
X80026805Y-53263981D01*
X80190386Y-53058857D01*
X80321568Y-52831643D01*
X80417420Y-52587416D01*
X80475802Y-52331630D01*
X80477297Y-52311686D01*
X80495408Y-52070004D01*
X80495408Y-52069995D01*
X80493535Y-52044998D01*
X84429532Y-52044998D01*
X84429532Y-52045001D01*
X84449364Y-52271686D01*
X84449366Y-52271697D01*
X84508258Y-52491488D01*
X84508261Y-52491497D01*
X84604431Y-52697732D01*
X84604432Y-52697734D01*
X84734954Y-52884141D01*
X84895858Y-53045045D01*
X84895861Y-53045047D01*
X85082266Y-53175568D01*
X85288504Y-53271739D01*
X85508308Y-53330635D01*
X85670230Y-53344801D01*
X85734998Y-53350468D01*
X85735000Y-53350468D01*
X85735002Y-53350468D01*
X85791673Y-53345509D01*
X85961692Y-53330635D01*
X86181496Y-53271739D01*
X86387734Y-53175568D01*
X86574139Y-53045047D01*
X86735047Y-52884139D01*
X86865568Y-52697734D01*
X86961739Y-52491496D01*
X87020635Y-52271692D01*
X87040468Y-52045000D01*
X87020635Y-51818308D01*
X86961739Y-51598504D01*
X86865568Y-51392266D01*
X86735047Y-51205861D01*
X86735045Y-51205858D01*
X86574141Y-51044954D01*
X86387734Y-50914432D01*
X86387732Y-50914431D01*
X86181497Y-50818261D01*
X86181488Y-50818258D01*
X85961697Y-50759366D01*
X85961693Y-50759365D01*
X85961692Y-50759365D01*
X85961691Y-50759364D01*
X85961686Y-50759364D01*
X85735002Y-50739532D01*
X85734998Y-50739532D01*
X85508313Y-50759364D01*
X85508302Y-50759366D01*
X85288511Y-50818258D01*
X85288502Y-50818261D01*
X85082267Y-50914431D01*
X85082265Y-50914432D01*
X84895858Y-51044954D01*
X84734954Y-51205858D01*
X84604432Y-51392265D01*
X84604431Y-51392267D01*
X84508261Y-51598502D01*
X84508258Y-51598511D01*
X84449366Y-51818302D01*
X84449364Y-51818313D01*
X84429532Y-52044998D01*
X80493535Y-52044998D01*
X80475803Y-51808379D01*
X80475802Y-51808374D01*
X80475802Y-51808370D01*
X80417420Y-51552584D01*
X80321568Y-51308357D01*
X80190386Y-51081143D01*
X80026805Y-50876019D01*
X80026804Y-50876018D01*
X80026801Y-50876014D01*
X79834479Y-50697567D01*
X79617704Y-50549772D01*
X79617700Y-50549770D01*
X79617697Y-50549768D01*
X79617696Y-50549767D01*
X79381325Y-50435938D01*
X79381327Y-50435938D01*
X79130623Y-50358606D01*
X79130619Y-50358605D01*
X79130615Y-50358604D01*
X79005823Y-50339794D01*
X78871187Y-50319500D01*
X78871182Y-50319500D01*
X78608818Y-50319500D01*
X78608812Y-50319500D01*
X78447247Y-50343853D01*
X78349385Y-50358604D01*
X78349382Y-50358605D01*
X78349376Y-50358606D01*
X78098673Y-50435938D01*
X77862303Y-50549767D01*
X77862302Y-50549768D01*
X77645520Y-50697567D01*
X77453198Y-50876014D01*
X77289614Y-51081143D01*
X77158432Y-51308356D01*
X77062582Y-51552578D01*
X77062576Y-51552597D01*
X77004197Y-51808374D01*
X77004196Y-51808379D01*
X76984592Y-52069995D01*
X72990500Y-52069995D01*
X72990500Y-37952486D01*
X73949500Y-37952486D01*
X73949500Y-38247513D01*
X73964778Y-38363555D01*
X73988007Y-38539993D01*
X74064361Y-38824951D01*
X74064364Y-38824961D01*
X74177254Y-39097500D01*
X74177258Y-39097510D01*
X74324761Y-39352993D01*
X74504352Y-39587040D01*
X74504358Y-39587047D01*
X74712952Y-39795641D01*
X74712959Y-39795647D01*
X74947006Y-39975238D01*
X75202489Y-40122741D01*
X75202490Y-40122741D01*
X75202493Y-40122743D01*
X75413296Y-40210060D01*
X75465504Y-40231686D01*
X75475048Y-40235639D01*
X75760007Y-40311993D01*
X76052494Y-40350500D01*
X76052501Y-40350500D01*
X76347499Y-40350500D01*
X76347506Y-40350500D01*
X76639993Y-40311993D01*
X76924952Y-40235639D01*
X77197507Y-40122743D01*
X77452994Y-39975238D01*
X77646005Y-39827135D01*
X84424500Y-39827135D01*
X84424500Y-41522870D01*
X84424501Y-41522876D01*
X84430908Y-41582483D01*
X84481202Y-41717328D01*
X84481206Y-41717335D01*
X84567452Y-41832544D01*
X84567455Y-41832547D01*
X84682664Y-41918793D01*
X84682671Y-41918797D01*
X84817517Y-41969091D01*
X84817516Y-41969091D01*
X84824444Y-41969835D01*
X84877127Y-41975500D01*
X86572872Y-41975499D01*
X86632483Y-41969091D01*
X86767331Y-41918796D01*
X86882546Y-41832546D01*
X86968796Y-41717331D01*
X87019091Y-41582483D01*
X87025500Y-41522873D01*
X87025499Y-39827128D01*
X87019091Y-39767517D01*
X87011631Y-39747517D01*
X86968797Y-39632671D01*
X86968793Y-39632664D01*
X86882547Y-39517455D01*
X86882544Y-39517452D01*
X86767335Y-39431206D01*
X86767328Y-39431202D01*
X86632482Y-39380908D01*
X86632483Y-39380908D01*
X86572883Y-39374501D01*
X86572881Y-39374500D01*
X86572873Y-39374500D01*
X86572864Y-39374500D01*
X84877129Y-39374500D01*
X84877123Y-39374501D01*
X84817516Y-39380908D01*
X84682671Y-39431202D01*
X84682664Y-39431206D01*
X84567455Y-39517452D01*
X84567452Y-39517455D01*
X84481206Y-39632664D01*
X84481202Y-39632671D01*
X84430908Y-39767517D01*
X84426650Y-39807127D01*
X84424501Y-39827123D01*
X84424500Y-39827135D01*
X77646005Y-39827135D01*
X77687042Y-39795646D01*
X77895646Y-39587042D01*
X78075238Y-39352994D01*
X78222743Y-39097507D01*
X78335639Y-38824952D01*
X78411993Y-38539993D01*
X78450500Y-38247506D01*
X78450500Y-38011421D01*
X80154500Y-38011421D01*
X80154500Y-38188578D01*
X80182214Y-38363556D01*
X80236956Y-38532039D01*
X80236957Y-38532042D01*
X80317386Y-38689890D01*
X80421517Y-38833214D01*
X80546786Y-38958483D01*
X80690110Y-39062614D01*
X80758577Y-39097500D01*
X80847957Y-39143042D01*
X80847960Y-39143043D01*
X80932201Y-39170414D01*
X81016445Y-39197786D01*
X81191421Y-39225500D01*
X81191422Y-39225500D01*
X81368578Y-39225500D01*
X81368579Y-39225500D01*
X81543555Y-39197786D01*
X81712042Y-39143042D01*
X81869890Y-39062614D01*
X82013214Y-38958483D01*
X82138483Y-38833214D01*
X82242614Y-38689890D01*
X82323042Y-38532042D01*
X82377786Y-38363555D01*
X82405500Y-38188579D01*
X82405500Y-38011421D01*
X89044500Y-38011421D01*
X89044500Y-38188578D01*
X89072214Y-38363556D01*
X89126956Y-38532039D01*
X89126957Y-38532042D01*
X89207386Y-38689890D01*
X89311517Y-38833214D01*
X89436786Y-38958483D01*
X89580110Y-39062614D01*
X89648577Y-39097500D01*
X89737957Y-39143042D01*
X89737960Y-39143043D01*
X89822201Y-39170414D01*
X89906445Y-39197786D01*
X90081421Y-39225500D01*
X90081422Y-39225500D01*
X90258578Y-39225500D01*
X90258579Y-39225500D01*
X90433555Y-39197786D01*
X90602042Y-39143042D01*
X90659205Y-39113915D01*
X90727873Y-39101019D01*
X90792613Y-39127294D01*
X90832871Y-39184400D01*
X90839500Y-39224400D01*
X90839500Y-52878363D01*
X90819815Y-52945402D01*
X90769302Y-52990083D01*
X90562300Y-53089769D01*
X90345520Y-53237567D01*
X90153198Y-53416014D01*
X89989614Y-53621143D01*
X89858432Y-53848356D01*
X89762582Y-54092578D01*
X89762576Y-54092597D01*
X89704197Y-54348374D01*
X89704196Y-54348379D01*
X89684592Y-54609995D01*
X89684592Y-54610004D01*
X89704196Y-54871620D01*
X89704197Y-54871625D01*
X89762576Y-55127402D01*
X89762578Y-55127411D01*
X89762580Y-55127416D01*
X89858432Y-55371643D01*
X89989614Y-55598857D01*
X90040733Y-55662958D01*
X90153197Y-55803984D01*
X90159377Y-55809717D01*
X90195133Y-55869744D01*
X90192760Y-55939574D01*
X90153011Y-55997035D01*
X90088506Y-56023884D01*
X90084788Y-56024234D01*
X90081428Y-56024498D01*
X89906443Y-56052214D01*
X89737960Y-56106956D01*
X89737957Y-56106957D01*
X89580109Y-56187386D01*
X89502104Y-56244061D01*
X89436786Y-56291517D01*
X89436784Y-56291519D01*
X89436783Y-56291519D01*
X89311519Y-56416783D01*
X89311519Y-56416784D01*
X89311517Y-56416786D01*
X89271592Y-56471738D01*
X89207386Y-56560109D01*
X89126957Y-56717957D01*
X89126956Y-56717960D01*
X89072214Y-56886443D01*
X89044500Y-57061421D01*
X89044500Y-57238578D01*
X89072214Y-57413556D01*
X89126956Y-57582039D01*
X89126957Y-57582042D01*
X89207386Y-57739890D01*
X89311517Y-57883214D01*
X89436786Y-58008483D01*
X89580110Y-58112614D01*
X89648577Y-58147500D01*
X89737957Y-58193042D01*
X89737960Y-58193043D01*
X89822201Y-58220414D01*
X89906445Y-58247786D01*
X90081421Y-58275500D01*
X90081422Y-58275500D01*
X90258578Y-58275500D01*
X90258579Y-58275500D01*
X90433555Y-58247786D01*
X90602042Y-58193042D01*
X90759890Y-58112614D01*
X90903214Y-58008483D01*
X91028483Y-57883214D01*
X91132614Y-57739890D01*
X91213042Y-57582042D01*
X91267786Y-57413555D01*
X91295500Y-57238579D01*
X91295500Y-57061421D01*
X91286165Y-57002486D01*
X92999500Y-57002486D01*
X92999500Y-57297513D01*
X93014778Y-57413555D01*
X93038007Y-57589993D01*
X93114361Y-57874951D01*
X93114364Y-57874961D01*
X93227254Y-58147500D01*
X93227258Y-58147510D01*
X93374761Y-58402993D01*
X93554352Y-58637040D01*
X93554358Y-58637047D01*
X93762952Y-58845641D01*
X93762959Y-58845647D01*
X93997006Y-59025238D01*
X94252489Y-59172741D01*
X94252490Y-59172741D01*
X94252493Y-59172743D01*
X94525048Y-59285639D01*
X94810007Y-59361993D01*
X95102494Y-59400500D01*
X95102501Y-59400500D01*
X95397499Y-59400500D01*
X95397506Y-59400500D01*
X95689993Y-59361993D01*
X95974952Y-59285639D01*
X96247507Y-59172743D01*
X96502994Y-59025238D01*
X96722069Y-58857135D01*
X103474500Y-58857135D01*
X103474500Y-60552870D01*
X103474501Y-60552876D01*
X103480908Y-60612483D01*
X103531202Y-60747328D01*
X103531206Y-60747335D01*
X103617452Y-60862544D01*
X103617455Y-60862547D01*
X103732664Y-60948793D01*
X103732671Y-60948797D01*
X103867517Y-60999091D01*
X103867516Y-60999091D01*
X103874444Y-60999835D01*
X103927127Y-61005500D01*
X105622872Y-61005499D01*
X105682483Y-60999091D01*
X105817331Y-60948796D01*
X105932546Y-60862546D01*
X106018796Y-60747331D01*
X106069091Y-60612483D01*
X106075500Y-60552873D01*
X106075499Y-59305095D01*
X106095184Y-59238057D01*
X106111813Y-59217420D01*
X109896006Y-55433228D01*
X109896011Y-55433224D01*
X109906214Y-55423020D01*
X109906216Y-55423020D01*
X109944752Y-55384483D01*
X110006073Y-55350999D01*
X110075764Y-55355983D01*
X110131698Y-55397854D01*
X110155959Y-55461350D01*
X110156863Y-55471679D01*
X110156866Y-55471697D01*
X110215758Y-55691488D01*
X110215761Y-55691497D01*
X110311931Y-55897732D01*
X110311932Y-55897734D01*
X110442454Y-56084141D01*
X110603358Y-56245045D01*
X110603361Y-56245047D01*
X110789766Y-56375568D01*
X110996004Y-56471739D01*
X111215808Y-56530635D01*
X111377730Y-56544801D01*
X111442498Y-56550468D01*
X111442500Y-56550468D01*
X111442502Y-56550468D01*
X111499173Y-56545509D01*
X111669192Y-56530635D01*
X111888996Y-56471739D01*
X112095234Y-56375568D01*
X112281639Y-56245047D01*
X112442547Y-56084139D01*
X112573068Y-55897734D01*
X112669239Y-55691496D01*
X112728135Y-55471692D01*
X112747968Y-55245000D01*
X112728135Y-55018308D01*
X112669239Y-54798504D01*
X112573068Y-54592266D01*
X112442547Y-54405861D01*
X112442545Y-54405858D01*
X112281641Y-54244954D01*
X112095234Y-54114432D01*
X112095228Y-54114429D01*
X112037225Y-54087382D01*
X111984785Y-54041210D01*
X111965633Y-53974017D01*
X111985848Y-53907135D01*
X112037225Y-53862618D01*
X112095234Y-53835568D01*
X112281639Y-53705047D01*
X112442547Y-53544139D01*
X112573068Y-53357734D01*
X112669239Y-53151496D01*
X112728135Y-52931692D01*
X112747968Y-52705000D01*
X112728135Y-52478308D01*
X112669239Y-52258504D01*
X112573068Y-52052266D01*
X112442547Y-51865861D01*
X112442545Y-51865858D01*
X112281641Y-51704954D01*
X112095234Y-51574432D01*
X112095228Y-51574429D01*
X112037225Y-51547382D01*
X111984785Y-51501210D01*
X111965633Y-51434017D01*
X111985848Y-51367135D01*
X112037225Y-51322618D01*
X112095234Y-51295568D01*
X112281639Y-51165047D01*
X112442547Y-51004139D01*
X112573068Y-50817734D01*
X112669239Y-50611496D01*
X112728135Y-50391692D01*
X112747968Y-50165000D01*
X112728135Y-49938308D01*
X112669239Y-49718504D01*
X112573068Y-49512266D01*
X112442547Y-49325861D01*
X112442545Y-49325858D01*
X112281641Y-49164954D01*
X112095234Y-49034432D01*
X112095228Y-49034429D01*
X112037225Y-49007382D01*
X111984785Y-48961210D01*
X111965633Y-48894017D01*
X111985848Y-48827135D01*
X112037225Y-48782618D01*
X112095234Y-48755568D01*
X112281639Y-48625047D01*
X112442547Y-48464139D01*
X112573068Y-48277734D01*
X112669239Y-48071496D01*
X112728135Y-47851692D01*
X112747968Y-47625000D01*
X112728135Y-47398308D01*
X112669239Y-47178504D01*
X112573068Y-46972266D01*
X112442547Y-46785861D01*
X112442545Y-46785858D01*
X112281641Y-46624954D01*
X112095234Y-46494432D01*
X112095228Y-46494429D01*
X112037225Y-46467382D01*
X111984785Y-46421210D01*
X111965633Y-46354017D01*
X111985848Y-46287135D01*
X112037225Y-46242618D01*
X112095234Y-46215568D01*
X112281639Y-46085047D01*
X112442547Y-45924139D01*
X112573068Y-45737734D01*
X112669239Y-45531496D01*
X112728135Y-45311692D01*
X112747968Y-45085000D01*
X112728135Y-44858308D01*
X112669239Y-44638504D01*
X112573068Y-44432266D01*
X112442547Y-44245861D01*
X112442545Y-44245858D01*
X112281641Y-44084954D01*
X112095234Y-43954432D01*
X112095228Y-43954429D01*
X112037225Y-43927382D01*
X111984785Y-43881210D01*
X111965633Y-43814017D01*
X111985848Y-43747135D01*
X112037225Y-43702618D01*
X112095234Y-43675568D01*
X112281639Y-43545047D01*
X112442547Y-43384139D01*
X112572618Y-43198375D01*
X112627193Y-43154752D01*
X112674192Y-43145500D01*
X125450808Y-43145500D01*
X125517847Y-43165185D01*
X125552380Y-43198374D01*
X125637980Y-43320624D01*
X125682454Y-43384141D01*
X125843358Y-43545045D01*
X125843361Y-43545047D01*
X126029766Y-43675568D01*
X126087775Y-43702618D01*
X126140214Y-43748791D01*
X126159366Y-43815984D01*
X126139150Y-43882865D01*
X126087775Y-43927382D01*
X126029767Y-43954431D01*
X126029765Y-43954432D01*
X125843358Y-44084954D01*
X125682454Y-44245858D01*
X125551932Y-44432265D01*
X125551931Y-44432267D01*
X125455761Y-44638502D01*
X125455758Y-44638511D01*
X125396866Y-44858302D01*
X125396864Y-44858313D01*
X125377032Y-45084998D01*
X125377032Y-45085001D01*
X125396864Y-45311686D01*
X125396866Y-45311697D01*
X125455758Y-45531488D01*
X125455761Y-45531497D01*
X125551931Y-45737732D01*
X125551932Y-45737734D01*
X125682454Y-45924141D01*
X125843358Y-46085045D01*
X125843361Y-46085047D01*
X126029766Y-46215568D01*
X126087775Y-46242618D01*
X126140214Y-46288791D01*
X126159366Y-46355984D01*
X126139150Y-46422865D01*
X126087775Y-46467382D01*
X126029767Y-46494431D01*
X126029765Y-46494432D01*
X125843358Y-46624954D01*
X125682454Y-46785858D01*
X125551932Y-46972265D01*
X125551931Y-46972267D01*
X125455761Y-47178502D01*
X125455758Y-47178511D01*
X125396866Y-47398302D01*
X125396864Y-47398313D01*
X125377032Y-47624998D01*
X125377032Y-47625001D01*
X125396864Y-47851686D01*
X125396866Y-47851697D01*
X125455758Y-48071488D01*
X125455761Y-48071497D01*
X125551931Y-48277732D01*
X125551932Y-48277734D01*
X125682454Y-48464141D01*
X125843358Y-48625045D01*
X125843361Y-48625047D01*
X126029766Y-48755568D01*
X126087775Y-48782618D01*
X126140214Y-48828791D01*
X126159366Y-48895984D01*
X126139150Y-48962865D01*
X126087775Y-49007382D01*
X126029767Y-49034431D01*
X126029765Y-49034432D01*
X125843358Y-49164954D01*
X125682454Y-49325858D01*
X125551932Y-49512265D01*
X125551931Y-49512267D01*
X125455761Y-49718502D01*
X125455758Y-49718511D01*
X125396866Y-49938302D01*
X125396864Y-49938313D01*
X125377032Y-50164998D01*
X125377032Y-50165001D01*
X125396864Y-50391686D01*
X125396866Y-50391697D01*
X125455758Y-50611488D01*
X125455761Y-50611497D01*
X125551931Y-50817732D01*
X125551932Y-50817734D01*
X125682454Y-51004141D01*
X125843358Y-51165045D01*
X125843361Y-51165047D01*
X126029766Y-51295568D01*
X126087775Y-51322618D01*
X126140214Y-51368791D01*
X126159366Y-51435984D01*
X126139150Y-51502865D01*
X126087775Y-51547382D01*
X126029767Y-51574431D01*
X126029765Y-51574432D01*
X125843358Y-51704954D01*
X125682454Y-51865858D01*
X125551932Y-52052265D01*
X125551931Y-52052267D01*
X125455761Y-52258502D01*
X125455758Y-52258511D01*
X125396866Y-52478302D01*
X125396864Y-52478313D01*
X125377032Y-52704998D01*
X125377032Y-52705001D01*
X125396864Y-52931686D01*
X125396866Y-52931697D01*
X125455758Y-53151488D01*
X125455761Y-53151497D01*
X125551931Y-53357732D01*
X125551932Y-53357734D01*
X125682454Y-53544141D01*
X125843358Y-53705045D01*
X125843361Y-53705047D01*
X126029766Y-53835568D01*
X126087775Y-53862618D01*
X126140214Y-53908791D01*
X126159366Y-53975984D01*
X126139150Y-54042865D01*
X126087775Y-54087382D01*
X126029767Y-54114431D01*
X126029765Y-54114432D01*
X125843358Y-54244954D01*
X125682454Y-54405858D01*
X125551932Y-54592265D01*
X125551931Y-54592267D01*
X125455761Y-54798502D01*
X125455758Y-54798511D01*
X125396866Y-55018302D01*
X125396864Y-55018313D01*
X125377032Y-55244998D01*
X125377032Y-55245001D01*
X125396864Y-55471686D01*
X125396866Y-55471697D01*
X125455758Y-55691488D01*
X125455761Y-55691497D01*
X125551931Y-55897732D01*
X125551932Y-55897734D01*
X125682454Y-56084141D01*
X125843358Y-56245045D01*
X125843361Y-56245047D01*
X126029766Y-56375568D01*
X126236004Y-56471739D01*
X126455808Y-56530635D01*
X126617730Y-56544801D01*
X126682498Y-56550468D01*
X126682500Y-56550468D01*
X126682502Y-56550468D01*
X126739173Y-56545509D01*
X126909192Y-56530635D01*
X127128996Y-56471739D01*
X127335234Y-56375568D01*
X127521639Y-56245047D01*
X127682547Y-56084139D01*
X127813068Y-55897734D01*
X127909239Y-55691496D01*
X127968135Y-55471692D01*
X127987968Y-55245000D01*
X127968135Y-55018308D01*
X127909239Y-54798504D01*
X127813068Y-54592266D01*
X127682547Y-54405861D01*
X127682545Y-54405858D01*
X127521641Y-54244954D01*
X127335234Y-54114432D01*
X127335228Y-54114429D01*
X127277225Y-54087382D01*
X127224785Y-54041210D01*
X127205633Y-53974017D01*
X127225848Y-53907135D01*
X127277225Y-53862618D01*
X127335234Y-53835568D01*
X127521639Y-53705047D01*
X127682547Y-53544139D01*
X127813068Y-53357734D01*
X127909239Y-53151496D01*
X127968135Y-52931692D01*
X127987968Y-52705000D01*
X127968135Y-52478308D01*
X127909239Y-52258504D01*
X127813068Y-52052266D01*
X127682547Y-51865861D01*
X127682545Y-51865858D01*
X127521641Y-51704954D01*
X127335234Y-51574432D01*
X127335228Y-51574429D01*
X127277225Y-51547382D01*
X127224785Y-51501210D01*
X127205633Y-51434017D01*
X127225848Y-51367135D01*
X127277225Y-51322618D01*
X127335234Y-51295568D01*
X127521639Y-51165047D01*
X127682547Y-51004139D01*
X127813068Y-50817734D01*
X127909239Y-50611496D01*
X127968135Y-50391692D01*
X127987968Y-50165000D01*
X127968135Y-49938308D01*
X127909239Y-49718504D01*
X127813068Y-49512266D01*
X127682547Y-49325861D01*
X127682545Y-49325858D01*
X127521641Y-49164954D01*
X127335234Y-49034432D01*
X127335228Y-49034429D01*
X127277225Y-49007382D01*
X127224785Y-48961210D01*
X127205633Y-48894017D01*
X127225848Y-48827135D01*
X127277225Y-48782618D01*
X127335234Y-48755568D01*
X127521639Y-48625047D01*
X127682547Y-48464139D01*
X127813068Y-48277734D01*
X127909239Y-48071496D01*
X127968135Y-47851692D01*
X127987968Y-47625000D01*
X127968135Y-47398308D01*
X127909239Y-47178504D01*
X127813068Y-46972266D01*
X127682547Y-46785861D01*
X127682545Y-46785858D01*
X127521641Y-46624954D01*
X127335234Y-46494432D01*
X127335228Y-46494429D01*
X127277225Y-46467382D01*
X127224785Y-46421210D01*
X127205633Y-46354017D01*
X127225848Y-46287135D01*
X127277225Y-46242618D01*
X127335234Y-46215568D01*
X127521639Y-46085047D01*
X127682547Y-45924139D01*
X127813068Y-45737734D01*
X127909239Y-45531496D01*
X127968135Y-45311692D01*
X127987968Y-45085000D01*
X127968135Y-44858308D01*
X127909239Y-44638504D01*
X127813068Y-44432266D01*
X127682547Y-44245861D01*
X127682545Y-44245858D01*
X127521641Y-44084954D01*
X127335234Y-43954432D01*
X127335228Y-43954429D01*
X127277225Y-43927382D01*
X127224785Y-43881210D01*
X127205633Y-43814017D01*
X127225848Y-43747135D01*
X127277225Y-43702618D01*
X127335234Y-43675568D01*
X127521639Y-43545047D01*
X127682547Y-43384139D01*
X127813068Y-43197734D01*
X127909239Y-42991496D01*
X127968135Y-42771692D01*
X127987968Y-42545000D01*
X127968135Y-42318308D01*
X127909239Y-42098504D01*
X127813068Y-41892266D01*
X127682547Y-41705861D01*
X127682545Y-41705858D01*
X127521641Y-41544954D01*
X127335234Y-41414432D01*
X127335228Y-41414429D01*
X127277225Y-41387382D01*
X127224785Y-41341210D01*
X127205633Y-41274017D01*
X127225848Y-41207135D01*
X127277225Y-41162618D01*
X127335234Y-41135568D01*
X127521639Y-41005047D01*
X127682547Y-40844139D01*
X127813068Y-40657734D01*
X127909239Y-40451496D01*
X127968135Y-40231692D01*
X127987968Y-40005000D01*
X127968135Y-39778308D01*
X127909239Y-39558504D01*
X127813068Y-39352266D01*
X127682547Y-39165861D01*
X127682545Y-39165858D01*
X127521641Y-39004954D01*
X127335234Y-38874432D01*
X127335232Y-38874431D01*
X127128997Y-38778261D01*
X127128988Y-38778258D01*
X126909197Y-38719366D01*
X126909193Y-38719365D01*
X126909192Y-38719365D01*
X126909191Y-38719364D01*
X126909186Y-38719364D01*
X126682502Y-38699532D01*
X126682498Y-38699532D01*
X126455813Y-38719364D01*
X126455802Y-38719366D01*
X126236011Y-38778258D01*
X126236002Y-38778261D01*
X126029767Y-38874431D01*
X126029765Y-38874432D01*
X125843358Y-39004954D01*
X125682454Y-39165858D01*
X125551932Y-39352265D01*
X125551931Y-39352267D01*
X125455761Y-39558502D01*
X125455758Y-39558511D01*
X125396866Y-39778302D01*
X125396864Y-39778313D01*
X125377032Y-40004998D01*
X125377032Y-40005001D01*
X125396864Y-40231686D01*
X125396866Y-40231697D01*
X125455758Y-40451488D01*
X125455761Y-40451497D01*
X125551931Y-40657732D01*
X125551932Y-40657734D01*
X125682454Y-40844141D01*
X125843358Y-41005045D01*
X125843361Y-41005047D01*
X126029766Y-41135568D01*
X126087775Y-41162618D01*
X126140214Y-41208791D01*
X126159366Y-41275984D01*
X126139150Y-41342865D01*
X126087775Y-41387382D01*
X126029767Y-41414431D01*
X126029765Y-41414432D01*
X125843358Y-41544954D01*
X125682454Y-41705858D01*
X125614755Y-41802544D01*
X125552381Y-41891624D01*
X125497807Y-41935248D01*
X125450808Y-41944500D01*
X112674192Y-41944500D01*
X112607153Y-41924815D01*
X112572619Y-41891625D01*
X112442547Y-41705861D01*
X112442545Y-41705858D01*
X112281643Y-41544956D01*
X112257036Y-41527726D01*
X112213412Y-41473149D01*
X112206219Y-41403650D01*
X112237741Y-41341296D01*
X112297971Y-41305882D01*
X112314904Y-41302861D01*
X112349983Y-41299091D01*
X112484831Y-41248796D01*
X112600046Y-41162546D01*
X112686296Y-41047331D01*
X112736591Y-40912483D01*
X112743000Y-40852873D01*
X112742999Y-39157128D01*
X112737799Y-39108757D01*
X112736591Y-39097516D01*
X112686297Y-38962671D01*
X112686293Y-38962664D01*
X112600047Y-38847455D01*
X112600044Y-38847452D01*
X112484835Y-38761206D01*
X112484828Y-38761202D01*
X112349982Y-38710908D01*
X112349983Y-38710908D01*
X112290383Y-38704501D01*
X112290381Y-38704500D01*
X112290373Y-38704500D01*
X112290364Y-38704500D01*
X110594629Y-38704500D01*
X110594623Y-38704501D01*
X110535016Y-38710908D01*
X110400171Y-38761202D01*
X110400164Y-38761206D01*
X110284955Y-38847452D01*
X110284952Y-38847455D01*
X110198706Y-38962664D01*
X110198702Y-38962671D01*
X110148408Y-39097517D01*
X110143514Y-39143042D01*
X110142000Y-39157127D01*
X110142000Y-39602671D01*
X110142001Y-39930500D01*
X110122317Y-39997539D01*
X110069513Y-40043294D01*
X110018001Y-40054500D01*
X106209499Y-40054500D01*
X106142460Y-40034815D01*
X106096705Y-39982011D01*
X106085499Y-39930500D01*
X106085499Y-39807129D01*
X106085498Y-39807123D01*
X106085497Y-39807116D01*
X106079091Y-39747517D01*
X106075361Y-39737517D01*
X106028797Y-39612671D01*
X106028793Y-39612664D01*
X105942547Y-39497455D01*
X105942544Y-39497452D01*
X105827335Y-39411206D01*
X105827328Y-39411202D01*
X105692482Y-39360908D01*
X105692483Y-39360908D01*
X105632883Y-39354501D01*
X105632881Y-39354500D01*
X105632873Y-39354500D01*
X105632864Y-39354500D01*
X103937129Y-39354500D01*
X103937123Y-39354501D01*
X103877516Y-39360908D01*
X103742671Y-39411202D01*
X103742664Y-39411206D01*
X103627455Y-39497452D01*
X103627452Y-39497455D01*
X103541206Y-39612664D01*
X103541202Y-39612671D01*
X103490908Y-39747517D01*
X103485575Y-39797127D01*
X103484501Y-39807123D01*
X103484500Y-39807135D01*
X103484500Y-41502870D01*
X103484501Y-41502876D01*
X103490908Y-41562483D01*
X103541202Y-41697328D01*
X103541206Y-41697335D01*
X103627452Y-41812544D01*
X103627455Y-41812547D01*
X103742664Y-41898793D01*
X103742671Y-41898797D01*
X103877517Y-41949091D01*
X103877516Y-41949091D01*
X103884444Y-41949835D01*
X103937127Y-41955500D01*
X105632872Y-41955499D01*
X105692483Y-41949091D01*
X105827331Y-41898796D01*
X105942546Y-41812546D01*
X106028796Y-41697331D01*
X106079091Y-41562483D01*
X106085500Y-41502873D01*
X106085500Y-41379500D01*
X106105185Y-41312461D01*
X106157989Y-41266706D01*
X106209500Y-41255500D01*
X110395771Y-41255500D01*
X110439104Y-41263318D01*
X110535017Y-41299091D01*
X110570096Y-41302862D01*
X110634644Y-41329599D01*
X110674493Y-41386991D01*
X110676988Y-41456816D01*
X110641336Y-41516905D01*
X110627964Y-41527725D01*
X110603358Y-41544954D01*
X110442454Y-41705858D01*
X110311932Y-41892265D01*
X110311931Y-41892267D01*
X110215761Y-42098502D01*
X110215758Y-42098511D01*
X110156866Y-42318302D01*
X110156864Y-42318313D01*
X110137032Y-42544998D01*
X110137032Y-42545001D01*
X110156864Y-42771686D01*
X110156866Y-42771697D01*
X110182652Y-42867931D01*
X110180989Y-42937781D01*
X110150558Y-42987705D01*
X109168786Y-43969478D01*
X109056981Y-44081282D01*
X109056979Y-44081284D01*
X109040071Y-44110570D01*
X109032925Y-44122949D01*
X108977923Y-44218215D01*
X108936999Y-44370943D01*
X108936999Y-44370945D01*
X108936999Y-44539046D01*
X108937000Y-44539059D01*
X108937000Y-54642402D01*
X108917315Y-54709441D01*
X108900681Y-54730083D01*
X105262582Y-58368181D01*
X105201259Y-58401666D01*
X105174901Y-58404500D01*
X103927129Y-58404500D01*
X103927123Y-58404501D01*
X103867516Y-58410908D01*
X103732671Y-58461202D01*
X103732664Y-58461206D01*
X103617455Y-58547452D01*
X103617452Y-58547455D01*
X103531206Y-58662664D01*
X103531202Y-58662671D01*
X103480908Y-58797517D01*
X103474501Y-58857116D01*
X103474500Y-58857135D01*
X96722069Y-58857135D01*
X96737042Y-58845646D01*
X96945646Y-58637042D01*
X97125238Y-58402994D01*
X97272743Y-58147507D01*
X97385639Y-57874952D01*
X97461993Y-57589993D01*
X97500500Y-57297506D01*
X97500500Y-57061421D01*
X99204500Y-57061421D01*
X99204500Y-57238578D01*
X99232214Y-57413556D01*
X99286956Y-57582039D01*
X99286957Y-57582042D01*
X99367386Y-57739890D01*
X99471517Y-57883214D01*
X99596786Y-58008483D01*
X99740110Y-58112614D01*
X99808577Y-58147500D01*
X99897957Y-58193042D01*
X99897960Y-58193043D01*
X99982201Y-58220414D01*
X100066445Y-58247786D01*
X100241421Y-58275500D01*
X100241422Y-58275500D01*
X100418578Y-58275500D01*
X100418579Y-58275500D01*
X100593555Y-58247786D01*
X100762042Y-58193042D01*
X100919890Y-58112614D01*
X101063214Y-58008483D01*
X101188483Y-57883214D01*
X101292614Y-57739890D01*
X101373042Y-57582042D01*
X101427786Y-57413555D01*
X101455500Y-57238579D01*
X101455500Y-57061421D01*
X101427786Y-56886445D01*
X101373042Y-56717958D01*
X101373042Y-56717957D01*
X101292613Y-56560109D01*
X101292611Y-56560106D01*
X101188483Y-56416786D01*
X101063214Y-56291517D01*
X100919890Y-56187386D01*
X100762042Y-56106957D01*
X100762039Y-56106956D01*
X100593556Y-56052214D01*
X100506067Y-56038357D01*
X100418579Y-56024500D01*
X100241421Y-56024500D01*
X100183095Y-56033738D01*
X100066443Y-56052214D01*
X99897960Y-56106956D01*
X99897957Y-56106957D01*
X99740109Y-56187386D01*
X99662104Y-56244061D01*
X99596786Y-56291517D01*
X99596784Y-56291519D01*
X99596783Y-56291519D01*
X99471519Y-56416783D01*
X99471519Y-56416784D01*
X99471517Y-56416786D01*
X99431592Y-56471738D01*
X99367386Y-56560109D01*
X99286957Y-56717957D01*
X99286956Y-56717960D01*
X99232214Y-56886443D01*
X99204500Y-57061421D01*
X97500500Y-57061421D01*
X97500500Y-57002494D01*
X97461993Y-56710007D01*
X97385639Y-56425048D01*
X97272743Y-56152493D01*
X97259888Y-56130228D01*
X97125238Y-55897006D01*
X96945647Y-55662959D01*
X96945641Y-55662952D01*
X96737047Y-55454358D01*
X96737040Y-55454352D01*
X96502993Y-55274761D01*
X96247510Y-55127258D01*
X96247500Y-55127254D01*
X95974961Y-55014364D01*
X95974954Y-55014362D01*
X95974952Y-55014361D01*
X95689993Y-54938007D01*
X95641113Y-54931571D01*
X95397513Y-54899500D01*
X95397506Y-54899500D01*
X95102494Y-54899500D01*
X95102486Y-54899500D01*
X94824085Y-54936153D01*
X94810007Y-54938007D01*
X94525048Y-55014361D01*
X94525038Y-55014364D01*
X94252499Y-55127254D01*
X94252489Y-55127258D01*
X93997006Y-55274761D01*
X93762959Y-55454352D01*
X93762952Y-55454358D01*
X93554358Y-55662952D01*
X93554352Y-55662959D01*
X93374761Y-55897006D01*
X93227258Y-56152489D01*
X93227254Y-56152499D01*
X93114364Y-56425038D01*
X93114361Y-56425048D01*
X93078172Y-56560110D01*
X93038008Y-56710004D01*
X93038006Y-56710015D01*
X92999500Y-57002486D01*
X91286165Y-57002486D01*
X91267786Y-56886445D01*
X91213042Y-56717958D01*
X91213042Y-56717957D01*
X91185190Y-56663295D01*
X91132614Y-56560110D01*
X91125609Y-56550468D01*
X91122202Y-56545778D01*
X91098722Y-56479972D01*
X91114548Y-56411918D01*
X91164654Y-56363223D01*
X91233132Y-56349348D01*
X91240992Y-56350276D01*
X91308818Y-56360500D01*
X91571182Y-56360500D01*
X91830615Y-56321396D01*
X92081323Y-56244063D01*
X92317704Y-56130228D01*
X92534479Y-55982433D01*
X92726805Y-55803981D01*
X92890386Y-55598857D01*
X93021568Y-55371643D01*
X93117420Y-55127416D01*
X93175802Y-54871630D01*
X93176416Y-54863443D01*
X93195408Y-54610004D01*
X93195408Y-54609995D01*
X93175803Y-54348379D01*
X93175802Y-54348374D01*
X93175802Y-54348370D01*
X93117420Y-54092584D01*
X93021568Y-53848357D01*
X92890386Y-53621143D01*
X92726805Y-53416019D01*
X92726804Y-53416018D01*
X92726801Y-53416014D01*
X92534479Y-53237567D01*
X92443542Y-53175567D01*
X92317704Y-53089772D01*
X92317701Y-53089771D01*
X92317699Y-53089769D01*
X92110698Y-52990083D01*
X92058839Y-52943261D01*
X92040500Y-52878363D01*
X92040500Y-52069995D01*
X96034592Y-52069995D01*
X96034592Y-52070004D01*
X96054196Y-52331620D01*
X96054197Y-52331625D01*
X96112576Y-52587402D01*
X96112578Y-52587411D01*
X96112580Y-52587416D01*
X96208432Y-52831643D01*
X96339614Y-53058857D01*
X96413492Y-53151497D01*
X96503198Y-53263985D01*
X96628097Y-53379873D01*
X96695521Y-53442433D01*
X96912296Y-53590228D01*
X96912301Y-53590230D01*
X96912302Y-53590231D01*
X96912303Y-53590232D01*
X97037843Y-53650688D01*
X97148673Y-53704061D01*
X97148674Y-53704061D01*
X97148677Y-53704063D01*
X97399385Y-53781396D01*
X97658818Y-53820500D01*
X97921182Y-53820500D01*
X98180615Y-53781396D01*
X98431323Y-53704063D01*
X98667704Y-53590228D01*
X98884479Y-53442433D01*
X99076805Y-53263981D01*
X99240386Y-53058857D01*
X99371568Y-52831643D01*
X99467420Y-52587416D01*
X99525802Y-52331630D01*
X99527297Y-52311686D01*
X99544284Y-52084998D01*
X103469532Y-52084998D01*
X103469532Y-52085001D01*
X103489364Y-52311686D01*
X103489366Y-52311697D01*
X103548258Y-52531488D01*
X103548261Y-52531497D01*
X103644431Y-52737732D01*
X103644432Y-52737734D01*
X103774954Y-52924141D01*
X103935858Y-53085045D01*
X103935861Y-53085047D01*
X104122266Y-53215568D01*
X104328504Y-53311739D01*
X104548308Y-53370635D01*
X104710230Y-53384801D01*
X104774998Y-53390468D01*
X104775000Y-53390468D01*
X104775002Y-53390468D01*
X104831673Y-53385509D01*
X105001692Y-53370635D01*
X105221496Y-53311739D01*
X105427734Y-53215568D01*
X105614139Y-53085047D01*
X105775047Y-52924139D01*
X105905568Y-52737734D01*
X106001739Y-52531496D01*
X106060635Y-52311692D01*
X106080468Y-52085000D01*
X106076968Y-52045000D01*
X106063260Y-51888313D01*
X106060635Y-51858308D01*
X106001739Y-51638504D01*
X105905568Y-51432266D01*
X105775047Y-51245861D01*
X105775045Y-51245858D01*
X105614141Y-51084954D01*
X105427734Y-50954432D01*
X105427732Y-50954431D01*
X105221497Y-50858261D01*
X105221488Y-50858258D01*
X105001697Y-50799366D01*
X105001693Y-50799365D01*
X105001692Y-50799365D01*
X105001691Y-50799364D01*
X105001686Y-50799364D01*
X104775002Y-50779532D01*
X104774998Y-50779532D01*
X104548313Y-50799364D01*
X104548302Y-50799366D01*
X104328511Y-50858258D01*
X104328502Y-50858261D01*
X104122267Y-50954431D01*
X104122265Y-50954432D01*
X103935858Y-51084954D01*
X103774954Y-51245858D01*
X103644432Y-51432265D01*
X103644431Y-51432267D01*
X103548261Y-51638502D01*
X103548258Y-51638511D01*
X103489366Y-51858302D01*
X103489364Y-51858313D01*
X103469532Y-52084998D01*
X99544284Y-52084998D01*
X99545408Y-52070004D01*
X99545408Y-52069995D01*
X99525803Y-51808379D01*
X99525802Y-51808374D01*
X99525802Y-51808370D01*
X99467420Y-51552584D01*
X99371568Y-51308357D01*
X99240386Y-51081143D01*
X99076805Y-50876019D01*
X99076804Y-50876018D01*
X99076801Y-50876014D01*
X98884479Y-50697567D01*
X98667704Y-50549772D01*
X98667700Y-50549770D01*
X98667697Y-50549768D01*
X98667696Y-50549767D01*
X98431325Y-50435938D01*
X98431327Y-50435938D01*
X98180623Y-50358606D01*
X98180619Y-50358605D01*
X98180615Y-50358604D01*
X98055823Y-50339794D01*
X97921187Y-50319500D01*
X97921182Y-50319500D01*
X97658818Y-50319500D01*
X97658812Y-50319500D01*
X97497247Y-50343853D01*
X97399385Y-50358604D01*
X97399382Y-50358605D01*
X97399376Y-50358606D01*
X97148673Y-50435938D01*
X96912303Y-50549767D01*
X96912302Y-50549768D01*
X96695520Y-50697567D01*
X96503198Y-50876014D01*
X96339614Y-51081143D01*
X96208432Y-51308356D01*
X96112582Y-51552578D01*
X96112576Y-51552597D01*
X96054197Y-51808374D01*
X96054196Y-51808379D01*
X96034592Y-52069995D01*
X92040500Y-52069995D01*
X92040500Y-37952486D01*
X92999500Y-37952486D01*
X92999500Y-38247513D01*
X93014778Y-38363555D01*
X93038007Y-38539993D01*
X93114361Y-38824951D01*
X93114364Y-38824961D01*
X93227254Y-39097500D01*
X93227258Y-39097510D01*
X93374761Y-39352993D01*
X93554352Y-39587040D01*
X93554358Y-39587047D01*
X93762952Y-39795641D01*
X93762959Y-39795647D01*
X93997006Y-39975238D01*
X94252489Y-40122741D01*
X94252490Y-40122741D01*
X94252493Y-40122743D01*
X94463296Y-40210060D01*
X94515504Y-40231686D01*
X94525048Y-40235639D01*
X94810007Y-40311993D01*
X95102494Y-40350500D01*
X95102501Y-40350500D01*
X95397499Y-40350500D01*
X95397506Y-40350500D01*
X95689993Y-40311993D01*
X95974952Y-40235639D01*
X96247507Y-40122743D01*
X96502994Y-39975238D01*
X96737042Y-39795646D01*
X96945646Y-39587042D01*
X97125238Y-39352994D01*
X97272743Y-39097507D01*
X97385639Y-38824952D01*
X97461993Y-38539993D01*
X97500500Y-38247506D01*
X97500500Y-38011421D01*
X99204500Y-38011421D01*
X99204500Y-38188578D01*
X99232214Y-38363556D01*
X99286956Y-38532039D01*
X99286957Y-38532042D01*
X99367386Y-38689890D01*
X99471517Y-38833214D01*
X99596786Y-38958483D01*
X99740110Y-39062614D01*
X99808577Y-39097500D01*
X99897957Y-39143042D01*
X99897960Y-39143043D01*
X99982201Y-39170414D01*
X100066445Y-39197786D01*
X100241421Y-39225500D01*
X100241422Y-39225500D01*
X100418578Y-39225500D01*
X100418579Y-39225500D01*
X100593555Y-39197786D01*
X100762042Y-39143042D01*
X100919890Y-39062614D01*
X101063214Y-38958483D01*
X101188483Y-38833214D01*
X101292614Y-38689890D01*
X101373042Y-38532042D01*
X101427786Y-38363555D01*
X101455500Y-38188579D01*
X101455500Y-38011421D01*
X101427786Y-37836445D01*
X101373042Y-37667958D01*
X101373042Y-37667957D01*
X101292613Y-37510109D01*
X101188483Y-37366786D01*
X101063214Y-37241517D01*
X100919890Y-37137386D01*
X100762042Y-37056957D01*
X100762039Y-37056956D01*
X100593556Y-37002214D01*
X100506067Y-36988357D01*
X100418579Y-36974500D01*
X100241421Y-36974500D01*
X100183095Y-36983738D01*
X100066443Y-37002214D01*
X99897960Y-37056956D01*
X99897957Y-37056957D01*
X99740109Y-37137386D01*
X99681572Y-37179916D01*
X99596786Y-37241517D01*
X99596784Y-37241519D01*
X99596783Y-37241519D01*
X99471519Y-37366783D01*
X99471519Y-37366784D01*
X99471517Y-37366786D01*
X99426796Y-37428338D01*
X99367386Y-37510109D01*
X99286957Y-37667957D01*
X99286956Y-37667960D01*
X99232214Y-37836443D01*
X99204500Y-38011421D01*
X97500500Y-38011421D01*
X97500500Y-37952494D01*
X97461993Y-37660007D01*
X97385639Y-37375048D01*
X97272743Y-37102493D01*
X97259888Y-37080228D01*
X97125238Y-36847006D01*
X96945647Y-36612959D01*
X96945641Y-36612952D01*
X96737047Y-36404358D01*
X96737040Y-36404352D01*
X96502993Y-36224761D01*
X96247510Y-36077258D01*
X96247500Y-36077254D01*
X95974961Y-35964364D01*
X95974954Y-35964362D01*
X95974952Y-35964361D01*
X95689993Y-35888007D01*
X95641113Y-35881571D01*
X95397513Y-35849500D01*
X95397506Y-35849500D01*
X95102494Y-35849500D01*
X95102486Y-35849500D01*
X94824085Y-35886153D01*
X94810007Y-35888007D01*
X94525048Y-35964361D01*
X94525038Y-35964364D01*
X94252499Y-36077254D01*
X94252489Y-36077258D01*
X93997006Y-36224761D01*
X93762959Y-36404352D01*
X93762952Y-36404358D01*
X93554358Y-36612952D01*
X93554352Y-36612959D01*
X93374761Y-36847006D01*
X93227258Y-37102489D01*
X93227254Y-37102499D01*
X93114364Y-37375038D01*
X93114361Y-37375048D01*
X93078172Y-37510110D01*
X93038008Y-37660004D01*
X93038006Y-37660015D01*
X92999500Y-37952486D01*
X92040500Y-37952486D01*
X92040500Y-37291636D01*
X92060185Y-37224597D01*
X92110698Y-37179916D01*
X92317704Y-37080228D01*
X92534479Y-36932433D01*
X92726805Y-36753981D01*
X92890386Y-36548857D01*
X93021568Y-36321643D01*
X93117420Y-36077416D01*
X93175802Y-35821630D01*
X93195408Y-35560000D01*
X93175802Y-35298370D01*
X93117420Y-35042584D01*
X93021568Y-34798357D01*
X92890386Y-34571143D01*
X92726805Y-34366019D01*
X92726804Y-34366018D01*
X92726801Y-34366014D01*
X92534479Y-34187567D01*
X92487545Y-34155568D01*
X92317704Y-34039772D01*
X92317700Y-34039770D01*
X92317697Y-34039768D01*
X92317696Y-34039767D01*
X92081325Y-33925938D01*
X92081327Y-33925938D01*
X91830623Y-33848606D01*
X91830619Y-33848605D01*
X91830615Y-33848604D01*
X91705823Y-33829794D01*
X91571187Y-33809500D01*
X91571182Y-33809500D01*
X91308818Y-33809500D01*
X91308812Y-33809500D01*
X91147247Y-33833853D01*
X91049385Y-33848604D01*
X91049382Y-33848605D01*
X91049376Y-33848606D01*
X90798673Y-33925938D01*
X90562303Y-34039767D01*
X90562302Y-34039768D01*
X90345520Y-34187567D01*
X90153198Y-34366014D01*
X89989614Y-34571143D01*
X89858432Y-34798356D01*
X89762582Y-35042578D01*
X89762576Y-35042597D01*
X89704197Y-35298374D01*
X89704196Y-35298379D01*
X89684592Y-35559995D01*
X89684592Y-35560004D01*
X89704196Y-35821620D01*
X89704197Y-35821625D01*
X89762576Y-36077402D01*
X89762578Y-36077411D01*
X89762580Y-36077416D01*
X89858432Y-36321643D01*
X89989614Y-36548857D01*
X90040733Y-36612958D01*
X90153197Y-36753984D01*
X90159377Y-36759717D01*
X90195133Y-36819744D01*
X90192760Y-36889574D01*
X90153011Y-36947035D01*
X90088506Y-36973884D01*
X90084788Y-36974234D01*
X90081428Y-36974498D01*
X89906443Y-37002214D01*
X89737960Y-37056956D01*
X89737957Y-37056957D01*
X89580109Y-37137386D01*
X89521572Y-37179916D01*
X89436786Y-37241517D01*
X89436784Y-37241519D01*
X89436783Y-37241519D01*
X89311519Y-37366783D01*
X89311519Y-37366784D01*
X89311517Y-37366786D01*
X89266796Y-37428338D01*
X89207386Y-37510109D01*
X89126957Y-37667957D01*
X89126956Y-37667960D01*
X89072214Y-37836443D01*
X89044500Y-38011421D01*
X82405500Y-38011421D01*
X82377786Y-37836445D01*
X82323042Y-37667958D01*
X82323042Y-37667957D01*
X82242613Y-37510109D01*
X82138483Y-37366786D01*
X82013214Y-37241517D01*
X81869890Y-37137386D01*
X81712042Y-37056957D01*
X81712039Y-37056956D01*
X81543556Y-37002214D01*
X81456067Y-36988357D01*
X81368579Y-36974500D01*
X81191421Y-36974500D01*
X81133095Y-36983738D01*
X81016443Y-37002214D01*
X80847960Y-37056956D01*
X80847957Y-37056957D01*
X80690109Y-37137386D01*
X80631572Y-37179916D01*
X80546786Y-37241517D01*
X80546784Y-37241519D01*
X80546783Y-37241519D01*
X80421519Y-37366783D01*
X80421519Y-37366784D01*
X80421517Y-37366786D01*
X80376796Y-37428338D01*
X80317386Y-37510109D01*
X80236957Y-37667957D01*
X80236956Y-37667960D01*
X80182214Y-37836443D01*
X80154500Y-38011421D01*
X78450500Y-38011421D01*
X78450500Y-37952494D01*
X78411993Y-37660007D01*
X78335639Y-37375048D01*
X78222743Y-37102493D01*
X78209888Y-37080228D01*
X78075238Y-36847006D01*
X77895647Y-36612959D01*
X77895641Y-36612952D01*
X77687047Y-36404358D01*
X77687040Y-36404352D01*
X77452993Y-36224761D01*
X77197510Y-36077258D01*
X77197500Y-36077254D01*
X76924961Y-35964364D01*
X76924954Y-35964362D01*
X76924952Y-35964361D01*
X76639993Y-35888007D01*
X76591113Y-35881571D01*
X76347513Y-35849500D01*
X76347506Y-35849500D01*
X76052494Y-35849500D01*
X76052486Y-35849500D01*
X75774085Y-35886153D01*
X75760007Y-35888007D01*
X75475048Y-35964361D01*
X75475038Y-35964364D01*
X75202499Y-36077254D01*
X75202489Y-36077258D01*
X74947006Y-36224761D01*
X74712959Y-36404352D01*
X74712952Y-36404358D01*
X74504358Y-36612952D01*
X74504352Y-36612959D01*
X74324761Y-36847006D01*
X74177258Y-37102489D01*
X74177254Y-37102499D01*
X74064364Y-37375038D01*
X74064361Y-37375048D01*
X74028172Y-37510110D01*
X73988008Y-37660004D01*
X73988006Y-37660015D01*
X73949500Y-37952486D01*
X72990500Y-37952486D01*
X72990500Y-37291636D01*
X73010185Y-37224597D01*
X73060698Y-37179916D01*
X73267704Y-37080228D01*
X73484479Y-36932433D01*
X73676805Y-36753981D01*
X73840386Y-36548857D01*
X73971568Y-36321643D01*
X74067420Y-36077416D01*
X74125802Y-35821630D01*
X74145408Y-35560000D01*
X74125802Y-35298370D01*
X74067420Y-35042584D01*
X73971568Y-34798357D01*
X73840386Y-34571143D01*
X73676805Y-34366019D01*
X73676804Y-34366018D01*
X73676801Y-34366014D01*
X73484479Y-34187567D01*
X73437545Y-34155568D01*
X73267704Y-34039772D01*
X73267700Y-34039770D01*
X73267697Y-34039768D01*
X73267696Y-34039767D01*
X73031325Y-33925938D01*
X73031327Y-33925938D01*
X72780623Y-33848606D01*
X72780619Y-33848605D01*
X72780615Y-33848604D01*
X72655823Y-33829794D01*
X72521187Y-33809500D01*
X72521182Y-33809500D01*
X72258818Y-33809500D01*
X72258812Y-33809500D01*
X72097247Y-33833853D01*
X71999385Y-33848604D01*
X71999382Y-33848605D01*
X71999376Y-33848606D01*
X71748673Y-33925938D01*
X71512303Y-34039767D01*
X71512302Y-34039768D01*
X71295520Y-34187567D01*
X71103198Y-34366014D01*
X70939614Y-34571143D01*
X70808432Y-34798356D01*
X70712582Y-35042578D01*
X70712576Y-35042597D01*
X70654197Y-35298374D01*
X70654196Y-35298379D01*
X70634592Y-35559995D01*
X70634592Y-35560004D01*
X70654196Y-35821620D01*
X70654197Y-35821625D01*
X70712576Y-36077402D01*
X70712578Y-36077411D01*
X70712580Y-36077416D01*
X70808432Y-36321643D01*
X70939614Y-36548857D01*
X70990733Y-36612958D01*
X71103197Y-36753984D01*
X71109377Y-36759717D01*
X71145133Y-36819744D01*
X71142760Y-36889574D01*
X71103011Y-36947035D01*
X71038506Y-36973884D01*
X71034788Y-36974234D01*
X71031428Y-36974498D01*
X70856443Y-37002214D01*
X70687960Y-37056956D01*
X70687957Y-37056957D01*
X70530109Y-37137386D01*
X70471572Y-37179916D01*
X70386786Y-37241517D01*
X70386784Y-37241519D01*
X70386783Y-37241519D01*
X70261519Y-37366783D01*
X70261519Y-37366784D01*
X70261517Y-37366786D01*
X70216796Y-37428338D01*
X70157386Y-37510109D01*
X70076957Y-37667957D01*
X70076956Y-37667960D01*
X70022214Y-37836443D01*
X69994500Y-38011421D01*
X63355500Y-38011421D01*
X63327786Y-37836445D01*
X63273042Y-37667958D01*
X63273042Y-37667957D01*
X63192613Y-37510109D01*
X63088483Y-37366786D01*
X62963214Y-37241517D01*
X62819890Y-37137386D01*
X62662042Y-37056957D01*
X62662039Y-37056956D01*
X62493556Y-37002214D01*
X62406067Y-36988357D01*
X62318579Y-36974500D01*
X62141421Y-36974500D01*
X62083095Y-36983738D01*
X61966443Y-37002214D01*
X61797960Y-37056956D01*
X61797957Y-37056957D01*
X61640109Y-37137386D01*
X61581572Y-37179916D01*
X61496786Y-37241517D01*
X61496784Y-37241519D01*
X61496783Y-37241519D01*
X61371519Y-37366783D01*
X61371519Y-37366784D01*
X61371517Y-37366786D01*
X61326796Y-37428338D01*
X61267386Y-37510109D01*
X61186957Y-37667957D01*
X61186956Y-37667960D01*
X61132214Y-37836443D01*
X61104500Y-38011421D01*
X59400500Y-38011421D01*
X59400500Y-37952494D01*
X59361993Y-37660007D01*
X59285639Y-37375048D01*
X59172743Y-37102493D01*
X59159888Y-37080228D01*
X59025238Y-36847006D01*
X58845647Y-36612959D01*
X58845641Y-36612952D01*
X58637047Y-36404358D01*
X58637040Y-36404352D01*
X58402993Y-36224761D01*
X58147510Y-36077258D01*
X58147500Y-36077254D01*
X57874961Y-35964364D01*
X57874954Y-35964362D01*
X57874952Y-35964361D01*
X57589993Y-35888007D01*
X57541113Y-35881571D01*
X57297513Y-35849500D01*
X57297506Y-35849500D01*
X57002494Y-35849500D01*
X57002486Y-35849500D01*
X56724085Y-35886153D01*
X56710007Y-35888007D01*
X56425048Y-35964361D01*
X56425038Y-35964364D01*
X56152499Y-36077254D01*
X56152489Y-36077258D01*
X55897006Y-36224761D01*
X55662959Y-36404352D01*
X55662952Y-36404358D01*
X55454358Y-36612952D01*
X55454352Y-36612959D01*
X55274761Y-36847006D01*
X55127258Y-37102489D01*
X55127254Y-37102499D01*
X55014364Y-37375038D01*
X55014361Y-37375048D01*
X54978172Y-37510110D01*
X54938008Y-37660004D01*
X54938006Y-37660015D01*
X54899500Y-37952486D01*
X53940500Y-37952486D01*
X53940500Y-37291636D01*
X53960185Y-37224597D01*
X54010698Y-37179916D01*
X54217704Y-37080228D01*
X54434479Y-36932433D01*
X54626805Y-36753981D01*
X54790386Y-36548857D01*
X54921568Y-36321643D01*
X55017420Y-36077416D01*
X55075802Y-35821630D01*
X55095408Y-35560000D01*
X55075802Y-35298370D01*
X55017420Y-35042584D01*
X54921568Y-34798357D01*
X54790386Y-34571143D01*
X54626805Y-34366019D01*
X54626804Y-34366018D01*
X54626801Y-34366014D01*
X54434479Y-34187567D01*
X54387545Y-34155568D01*
X54217704Y-34039772D01*
X54217700Y-34039770D01*
X54217697Y-34039768D01*
X54217696Y-34039767D01*
X53981325Y-33925938D01*
X53981327Y-33925938D01*
X53730623Y-33848606D01*
X53730619Y-33848605D01*
X53730615Y-33848604D01*
X53605823Y-33829794D01*
X53471187Y-33809500D01*
X53471182Y-33809500D01*
X53208818Y-33809500D01*
X53208812Y-33809500D01*
X53047247Y-33833853D01*
X52949385Y-33848604D01*
X52949382Y-33848605D01*
X52949376Y-33848606D01*
X52698673Y-33925938D01*
X52462303Y-34039767D01*
X52462302Y-34039768D01*
X52245520Y-34187567D01*
X52053198Y-34366014D01*
X51889614Y-34571143D01*
X51758432Y-34798356D01*
X51662582Y-35042578D01*
X51662576Y-35042597D01*
X51604197Y-35298374D01*
X51604196Y-35298379D01*
X51584592Y-35559995D01*
X51584592Y-35560004D01*
X51604196Y-35821620D01*
X51604197Y-35821625D01*
X51662576Y-36077402D01*
X51662578Y-36077411D01*
X51662580Y-36077416D01*
X51758432Y-36321643D01*
X51889614Y-36548857D01*
X51940733Y-36612958D01*
X52053197Y-36753984D01*
X52059377Y-36759717D01*
X52095133Y-36819744D01*
X52092760Y-36889574D01*
X52053011Y-36947035D01*
X51988506Y-36973884D01*
X51984788Y-36974234D01*
X51981428Y-36974498D01*
X51806443Y-37002214D01*
X51637960Y-37056956D01*
X51637957Y-37056957D01*
X51480109Y-37137386D01*
X51421572Y-37179916D01*
X51336786Y-37241517D01*
X51336784Y-37241519D01*
X51336783Y-37241519D01*
X51211519Y-37366783D01*
X51211519Y-37366784D01*
X51211517Y-37366786D01*
X51166796Y-37428338D01*
X51107386Y-37510109D01*
X51026957Y-37667957D01*
X51026956Y-37667960D01*
X50972214Y-37836443D01*
X50944500Y-38011421D01*
X43363000Y-38011421D01*
X43363000Y-33019995D01*
X57934592Y-33019995D01*
X57934592Y-33020004D01*
X57954196Y-33281620D01*
X57954197Y-33281625D01*
X58012576Y-33537402D01*
X58012578Y-33537411D01*
X58012580Y-33537416D01*
X58108432Y-33781643D01*
X58239614Y-34008857D01*
X58356611Y-34155567D01*
X58403198Y-34213985D01*
X58539696Y-34340635D01*
X58595521Y-34392433D01*
X58812296Y-34540228D01*
X58812301Y-34540230D01*
X58812302Y-34540231D01*
X58812303Y-34540232D01*
X58937843Y-34600688D01*
X59048673Y-34654061D01*
X59048674Y-34654061D01*
X59048677Y-34654063D01*
X59299385Y-34731396D01*
X59558818Y-34770500D01*
X59821182Y-34770500D01*
X60080615Y-34731396D01*
X60331323Y-34654063D01*
X60567704Y-34540228D01*
X60784479Y-34392433D01*
X60976805Y-34213981D01*
X61140386Y-34008857D01*
X61271568Y-33781643D01*
X61367420Y-33537416D01*
X61425802Y-33281630D01*
X61428045Y-33251697D01*
X61445034Y-33024998D01*
X65369532Y-33024998D01*
X65369532Y-33025001D01*
X65389364Y-33251686D01*
X65389366Y-33251697D01*
X65448258Y-33471488D01*
X65448261Y-33471497D01*
X65544431Y-33677732D01*
X65544432Y-33677734D01*
X65674954Y-33864141D01*
X65835858Y-34025045D01*
X65856885Y-34039768D01*
X66022266Y-34155568D01*
X66228504Y-34251739D01*
X66448308Y-34310635D01*
X66610230Y-34324801D01*
X66674998Y-34330468D01*
X66675000Y-34330468D01*
X66675002Y-34330468D01*
X66731673Y-34325509D01*
X66901692Y-34310635D01*
X67121496Y-34251739D01*
X67327734Y-34155568D01*
X67514139Y-34025047D01*
X67675047Y-33864139D01*
X67805568Y-33677734D01*
X67901739Y-33471496D01*
X67960635Y-33251692D01*
X67980468Y-33025000D01*
X67980030Y-33019995D01*
X76984592Y-33019995D01*
X76984592Y-33020004D01*
X77004196Y-33281620D01*
X77004197Y-33281625D01*
X77062576Y-33537402D01*
X77062578Y-33537411D01*
X77062580Y-33537416D01*
X77158432Y-33781643D01*
X77289614Y-34008857D01*
X77406611Y-34155567D01*
X77453198Y-34213985D01*
X77589696Y-34340635D01*
X77645521Y-34392433D01*
X77862296Y-34540228D01*
X77862301Y-34540230D01*
X77862302Y-34540231D01*
X77862303Y-34540232D01*
X77987843Y-34600688D01*
X78098673Y-34654061D01*
X78098674Y-34654061D01*
X78098677Y-34654063D01*
X78349385Y-34731396D01*
X78608818Y-34770500D01*
X78871182Y-34770500D01*
X79130615Y-34731396D01*
X79381323Y-34654063D01*
X79617704Y-34540228D01*
X79834479Y-34392433D01*
X80026805Y-34213981D01*
X80190386Y-34008857D01*
X80321568Y-33781643D01*
X80417420Y-33537416D01*
X80475802Y-33281630D01*
X80478045Y-33251697D01*
X80492786Y-33054998D01*
X84419532Y-33054998D01*
X84419532Y-33055001D01*
X84439364Y-33281686D01*
X84439366Y-33281697D01*
X84498258Y-33501488D01*
X84498261Y-33501497D01*
X84594431Y-33707732D01*
X84594432Y-33707734D01*
X84724954Y-33894141D01*
X84885858Y-34055045D01*
X84885861Y-34055047D01*
X85072266Y-34185568D01*
X85278504Y-34281739D01*
X85498308Y-34340635D01*
X85660230Y-34354801D01*
X85724998Y-34360468D01*
X85725000Y-34360468D01*
X85725002Y-34360468D01*
X85781673Y-34355509D01*
X85951692Y-34340635D01*
X86171496Y-34281739D01*
X86377734Y-34185568D01*
X86564139Y-34055047D01*
X86725047Y-33894139D01*
X86855568Y-33707734D01*
X86951739Y-33501496D01*
X87010635Y-33281692D01*
X87030468Y-33055000D01*
X87027843Y-33025001D01*
X87027405Y-33019995D01*
X96034592Y-33019995D01*
X96034592Y-33020004D01*
X96054196Y-33281620D01*
X96054197Y-33281625D01*
X96112576Y-33537402D01*
X96112578Y-33537411D01*
X96112580Y-33537416D01*
X96208432Y-33781643D01*
X96339614Y-34008857D01*
X96456611Y-34155567D01*
X96503198Y-34213985D01*
X96639696Y-34340635D01*
X96695521Y-34392433D01*
X96912296Y-34540228D01*
X96912301Y-34540230D01*
X96912302Y-34540231D01*
X96912303Y-34540232D01*
X97037843Y-34600688D01*
X97148673Y-34654061D01*
X97148674Y-34654061D01*
X97148677Y-34654063D01*
X97399385Y-34731396D01*
X97658818Y-34770500D01*
X97921182Y-34770500D01*
X98180615Y-34731396D01*
X98431323Y-34654063D01*
X98667704Y-34540228D01*
X98884479Y-34392433D01*
X99076805Y-34213981D01*
X99240386Y-34008857D01*
X99371568Y-33781643D01*
X99467420Y-33537416D01*
X99525802Y-33281630D01*
X99528045Y-33251697D01*
X99544284Y-33034998D01*
X103479532Y-33034998D01*
X103479532Y-33035001D01*
X103499364Y-33261686D01*
X103499366Y-33261697D01*
X103558258Y-33481488D01*
X103558261Y-33481497D01*
X103654431Y-33687732D01*
X103654432Y-33687734D01*
X103784954Y-33874141D01*
X103945858Y-34035045D01*
X103945861Y-34035047D01*
X104132266Y-34165568D01*
X104338504Y-34261739D01*
X104558308Y-34320635D01*
X104720230Y-34334801D01*
X104784998Y-34340468D01*
X104785000Y-34340468D01*
X104785002Y-34340468D01*
X104841673Y-34335509D01*
X105011692Y-34320635D01*
X105231496Y-34261739D01*
X105437734Y-34165568D01*
X105624139Y-34035047D01*
X105785047Y-33874139D01*
X105915568Y-33687734D01*
X106011739Y-33481496D01*
X106070635Y-33261692D01*
X106090468Y-33035000D01*
X106070635Y-32808308D01*
X106011739Y-32588504D01*
X105915568Y-32382266D01*
X105785047Y-32195861D01*
X105785045Y-32195858D01*
X105624141Y-32034954D01*
X105437734Y-31904432D01*
X105437732Y-31904431D01*
X105231497Y-31808261D01*
X105231488Y-31808258D01*
X105011697Y-31749366D01*
X105011693Y-31749365D01*
X105011692Y-31749365D01*
X105011691Y-31749364D01*
X105011686Y-31749364D01*
X104785002Y-31729532D01*
X104784998Y-31729532D01*
X104558313Y-31749364D01*
X104558302Y-31749366D01*
X104338511Y-31808258D01*
X104338502Y-31808261D01*
X104132267Y-31904431D01*
X104132265Y-31904432D01*
X103945858Y-32034954D01*
X103784954Y-32195858D01*
X103654432Y-32382265D01*
X103654431Y-32382267D01*
X103558261Y-32588502D01*
X103558258Y-32588511D01*
X103499366Y-32808302D01*
X103499364Y-32808313D01*
X103479532Y-33034998D01*
X99544284Y-33034998D01*
X99545408Y-33020004D01*
X99545408Y-33019995D01*
X99525803Y-32758379D01*
X99525802Y-32758374D01*
X99525802Y-32758370D01*
X99467420Y-32502584D01*
X99371568Y-32258357D01*
X99240386Y-32031143D01*
X99076805Y-31826019D01*
X99076804Y-31826018D01*
X99076801Y-31826014D01*
X98884479Y-31647567D01*
X98667704Y-31499772D01*
X98667700Y-31499770D01*
X98667697Y-31499768D01*
X98667696Y-31499767D01*
X98431325Y-31385938D01*
X98431327Y-31385938D01*
X98180623Y-31308606D01*
X98180619Y-31308605D01*
X98180615Y-31308604D01*
X98055823Y-31289794D01*
X97921187Y-31269500D01*
X97921182Y-31269500D01*
X97658818Y-31269500D01*
X97658812Y-31269500D01*
X97497247Y-31293853D01*
X97399385Y-31308604D01*
X97399382Y-31308605D01*
X97399376Y-31308606D01*
X97148673Y-31385938D01*
X96912303Y-31499767D01*
X96912302Y-31499768D01*
X96695520Y-31647567D01*
X96503198Y-31826014D01*
X96339614Y-32031143D01*
X96208432Y-32258356D01*
X96112582Y-32502578D01*
X96112576Y-32502597D01*
X96054197Y-32758374D01*
X96054196Y-32758379D01*
X96034592Y-33019995D01*
X87027405Y-33019995D01*
X87010635Y-32828313D01*
X87010635Y-32828308D01*
X86951739Y-32608504D01*
X86855568Y-32402266D01*
X86725047Y-32215861D01*
X86725045Y-32215858D01*
X86564141Y-32054954D01*
X86377734Y-31924432D01*
X86377732Y-31924431D01*
X86171497Y-31828261D01*
X86171488Y-31828258D01*
X85951697Y-31769366D01*
X85951693Y-31769365D01*
X85951692Y-31769365D01*
X85951691Y-31769364D01*
X85951686Y-31769364D01*
X85725002Y-31749532D01*
X85724998Y-31749532D01*
X85498313Y-31769364D01*
X85498302Y-31769366D01*
X85278511Y-31828258D01*
X85278502Y-31828261D01*
X85072267Y-31924431D01*
X85072265Y-31924432D01*
X84885858Y-32054954D01*
X84724954Y-32215858D01*
X84594432Y-32402265D01*
X84594431Y-32402267D01*
X84498261Y-32608502D01*
X84498258Y-32608511D01*
X84439366Y-32828302D01*
X84439364Y-32828313D01*
X84419532Y-33054998D01*
X80492786Y-33054998D01*
X80495408Y-33020004D01*
X80495408Y-33019995D01*
X80475803Y-32758379D01*
X80475802Y-32758374D01*
X80475802Y-32758370D01*
X80417420Y-32502584D01*
X80321568Y-32258357D01*
X80190386Y-32031143D01*
X80026805Y-31826019D01*
X80026804Y-31826018D01*
X80026801Y-31826014D01*
X79834479Y-31647567D01*
X79617704Y-31499772D01*
X79617700Y-31499770D01*
X79617697Y-31499768D01*
X79617696Y-31499767D01*
X79381325Y-31385938D01*
X79381327Y-31385938D01*
X79130623Y-31308606D01*
X79130619Y-31308605D01*
X79130615Y-31308604D01*
X79005823Y-31289794D01*
X78871187Y-31269500D01*
X78871182Y-31269500D01*
X78608818Y-31269500D01*
X78608812Y-31269500D01*
X78447247Y-31293853D01*
X78349385Y-31308604D01*
X78349382Y-31308605D01*
X78349376Y-31308606D01*
X78098673Y-31385938D01*
X77862303Y-31499767D01*
X77862302Y-31499768D01*
X77645520Y-31647567D01*
X77453198Y-31826014D01*
X77289614Y-32031143D01*
X77158432Y-32258356D01*
X77062582Y-32502578D01*
X77062576Y-32502597D01*
X77004197Y-32758374D01*
X77004196Y-32758379D01*
X76984592Y-33019995D01*
X67980030Y-33019995D01*
X67960635Y-32798308D01*
X67904420Y-32588511D01*
X67901741Y-32578511D01*
X67901738Y-32578502D01*
X67866343Y-32502597D01*
X67805568Y-32372266D01*
X67675047Y-32185861D01*
X67675045Y-32185858D01*
X67514141Y-32024954D01*
X67327734Y-31894432D01*
X67327732Y-31894431D01*
X67121497Y-31798261D01*
X67121488Y-31798258D01*
X66901697Y-31739366D01*
X66901693Y-31739365D01*
X66901692Y-31739365D01*
X66901691Y-31739364D01*
X66901686Y-31739364D01*
X66675002Y-31719532D01*
X66674998Y-31719532D01*
X66448313Y-31739364D01*
X66448302Y-31739366D01*
X66228511Y-31798258D01*
X66228502Y-31798261D01*
X66022267Y-31894431D01*
X66022265Y-31894432D01*
X65835858Y-32024954D01*
X65674954Y-32185858D01*
X65544432Y-32372265D01*
X65544431Y-32372267D01*
X65448261Y-32578502D01*
X65448258Y-32578511D01*
X65389366Y-32798302D01*
X65389364Y-32798313D01*
X65369532Y-33024998D01*
X61445034Y-33024998D01*
X61445408Y-33020004D01*
X61445408Y-33019995D01*
X61425803Y-32758379D01*
X61425802Y-32758374D01*
X61425802Y-32758370D01*
X61367420Y-32502584D01*
X61271568Y-32258357D01*
X61140386Y-32031143D01*
X60976805Y-31826019D01*
X60976804Y-31826018D01*
X60976801Y-31826014D01*
X60784479Y-31647567D01*
X60567704Y-31499772D01*
X60567700Y-31499770D01*
X60567697Y-31499768D01*
X60567696Y-31499767D01*
X60331325Y-31385938D01*
X60331327Y-31385938D01*
X60080623Y-31308606D01*
X60080619Y-31308605D01*
X60080615Y-31308604D01*
X59955823Y-31289794D01*
X59821187Y-31269500D01*
X59821182Y-31269500D01*
X59558818Y-31269500D01*
X59558812Y-31269500D01*
X59397247Y-31293853D01*
X59299385Y-31308604D01*
X59299382Y-31308605D01*
X59299376Y-31308606D01*
X59048673Y-31385938D01*
X58812303Y-31499767D01*
X58812302Y-31499768D01*
X58595520Y-31647567D01*
X58403198Y-31826014D01*
X58239614Y-32031143D01*
X58108432Y-32258356D01*
X58012582Y-32502578D01*
X58012576Y-32502597D01*
X57954197Y-32758374D01*
X57954196Y-32758379D01*
X57934592Y-33019995D01*
X43363000Y-33019995D01*
X43363000Y-28833676D01*
X43382685Y-28766637D01*
X43399319Y-28745995D01*
X47795995Y-24349319D01*
X47857318Y-24315834D01*
X47883676Y-24313000D01*
X128328824Y-24313000D01*
X128395863Y-24332685D01*
G37*
%TD.AperFunction*%
%TA.AperFunction,NonConductor*%
G36*
X110343203Y-45788898D02*
G01*
X110363573Y-45811486D01*
X110401057Y-45865019D01*
X110442454Y-45924141D01*
X110603358Y-46085045D01*
X110603361Y-46085047D01*
X110789766Y-46215568D01*
X110847775Y-46242618D01*
X110900214Y-46288791D01*
X110919366Y-46355984D01*
X110899150Y-46422865D01*
X110847775Y-46467382D01*
X110789767Y-46494431D01*
X110789765Y-46494432D01*
X110603358Y-46624954D01*
X110442454Y-46785858D01*
X110363575Y-46898511D01*
X110308998Y-46942136D01*
X110239500Y-46949330D01*
X110177145Y-46917807D01*
X110141731Y-46857578D01*
X110138000Y-46827388D01*
X110138000Y-45882611D01*
X110157685Y-45815572D01*
X110210489Y-45769817D01*
X110279647Y-45759873D01*
X110343203Y-45788898D01*
G37*
%TD.AperFunction*%
%TA.AperFunction,NonConductor*%
G36*
X110343203Y-48328898D02*
G01*
X110363573Y-48351486D01*
X110401057Y-48405019D01*
X110442454Y-48464141D01*
X110603358Y-48625045D01*
X110603361Y-48625047D01*
X110789766Y-48755568D01*
X110847775Y-48782618D01*
X110900214Y-48828791D01*
X110919366Y-48895984D01*
X110899150Y-48962865D01*
X110847775Y-49007382D01*
X110789767Y-49034431D01*
X110789765Y-49034432D01*
X110603358Y-49164954D01*
X110442454Y-49325858D01*
X110363575Y-49438511D01*
X110308998Y-49482136D01*
X110239500Y-49489330D01*
X110177145Y-49457807D01*
X110141731Y-49397578D01*
X110138000Y-49367388D01*
X110138000Y-48422611D01*
X110157685Y-48355572D01*
X110210489Y-48309817D01*
X110279647Y-48299873D01*
X110343203Y-48328898D01*
G37*
%TD.AperFunction*%
%TA.AperFunction,NonConductor*%
G36*
X110343203Y-50868898D02*
G01*
X110363573Y-50891486D01*
X110379640Y-50914432D01*
X110442454Y-51004141D01*
X110603358Y-51165045D01*
X110603361Y-51165047D01*
X110789766Y-51295568D01*
X110847775Y-51322618D01*
X110900214Y-51368791D01*
X110919366Y-51435984D01*
X110899150Y-51502865D01*
X110847775Y-51547382D01*
X110789767Y-51574431D01*
X110789765Y-51574432D01*
X110603358Y-51704954D01*
X110442454Y-51865858D01*
X110363575Y-51978511D01*
X110308998Y-52022136D01*
X110239500Y-52029330D01*
X110177145Y-51997807D01*
X110141731Y-51937578D01*
X110138000Y-51907388D01*
X110138000Y-50962611D01*
X110157685Y-50895572D01*
X110210489Y-50849817D01*
X110279647Y-50839873D01*
X110343203Y-50868898D01*
G37*
%TD.AperFunction*%
%TA.AperFunction,NonConductor*%
G36*
X110343203Y-53408898D02*
G01*
X110363573Y-53431486D01*
X110401057Y-53485019D01*
X110442454Y-53544141D01*
X110603358Y-53705045D01*
X110603361Y-53705047D01*
X110789766Y-53835568D01*
X110847775Y-53862618D01*
X110900214Y-53908791D01*
X110919366Y-53975984D01*
X110899150Y-54042865D01*
X110847775Y-54087382D01*
X110789767Y-54114431D01*
X110789765Y-54114432D01*
X110603358Y-54244954D01*
X110442454Y-54405858D01*
X110363575Y-54518511D01*
X110308998Y-54562136D01*
X110239500Y-54569330D01*
X110177145Y-54537807D01*
X110141731Y-54477578D01*
X110138000Y-54447388D01*
X110138000Y-53502611D01*
X110157685Y-53435572D01*
X110210489Y-53389817D01*
X110279647Y-53379873D01*
X110343203Y-53408898D01*
G37*
%TD.AperFunction*%
M02*
