%TF.GenerationSoftware,KiCad,Pcbnew,8.0.6*%
%TF.CreationDate,2024-10-21T20:43:56-04:00*%
%TF.ProjectId,retry,72657472-792e-46b6-9963-61645f706362,rev?*%
%TF.SameCoordinates,Original*%
%TF.FileFunction,Copper,L1,Top*%
%TF.FilePolarity,Positive*%
%FSLAX46Y46*%
G04 Gerber Fmt 4.6, Leading zero omitted, Abs format (unit mm)*
G04 Created by KiCad (PCBNEW 8.0.6) date 2024-10-21 20:43:56*
%MOMM*%
%LPD*%
G01*
G04 APERTURE LIST*
G04 Aperture macros list*
%AMRoundRect*
0 Rectangle with rounded corners*
0 $1 Rounding radius*
0 $2 $3 $4 $5 $6 $7 $8 $9 X,Y pos of 4 corners*
0 Add a 4 corners polygon primitive as box body*
4,1,4,$2,$3,$4,$5,$6,$7,$8,$9,$2,$3,0*
0 Add four circle primitives for the rounded corners*
1,1,$1+$1,$2,$3*
1,1,$1+$1,$4,$5*
1,1,$1+$1,$6,$7*
1,1,$1+$1,$8,$9*
0 Add four rect primitives between the rounded corners*
20,1,$1+$1,$2,$3,$4,$5,0*
20,1,$1+$1,$4,$5,$6,$7,0*
20,1,$1+$1,$6,$7,$8,$9,0*
20,1,$1+$1,$8,$9,$2,$3,0*%
G04 Aperture macros list end*
%TA.AperFunction,ComponentPad*%
%ADD10C,2.500000*%
%TD*%
%TA.AperFunction,ComponentPad*%
%ADD11R,1.600000X1.600000*%
%TD*%
%TA.AperFunction,ComponentPad*%
%ADD12O,1.600000X1.600000*%
%TD*%
%TA.AperFunction,SMDPad,CuDef*%
%ADD13RoundRect,0.500000X-0.875000X-0.500000X0.875000X-0.500000X0.875000X0.500000X-0.875000X0.500000X0*%
%TD*%
%TA.AperFunction,ComponentPad*%
%ADD14C,1.600000*%
%TD*%
%TA.AperFunction,Conductor*%
%ADD15C,0.200000*%
%TD*%
G04 APERTURE END LIST*
D10*
%TO.P,SW3,1,1*%
%TO.N,Column 3*%
X91440000Y-35560000D03*
%TO.P,SW3,2,2*%
%TO.N,Net-(D3-A)*%
X97790000Y-33020000D03*
%TD*%
%TO.P,SW2,1,1*%
%TO.N,Column 2*%
X72390000Y-35560000D03*
%TO.P,SW2,2,2*%
%TO.N,Net-(D2-A)*%
X78740000Y-33020000D03*
%TD*%
%TO.P,SW5,1,1*%
%TO.N,Column 2*%
X72390000Y-54610000D03*
%TO.P,SW5,2,2*%
%TO.N,Net-(D5-A)*%
X78740000Y-52070000D03*
%TD*%
%TO.P,SW4,1,1*%
%TO.N,Column 1*%
X53340000Y-54610000D03*
%TO.P,SW4,2,2*%
%TO.N,Net-(D4-A)*%
X59690000Y-52070000D03*
%TD*%
%TO.P,SW6,1,1*%
%TO.N,Column 3*%
X91440000Y-54610000D03*
%TO.P,SW6,2,2*%
%TO.N,Net-(D6-A)*%
X97790000Y-52070000D03*
%TD*%
%TO.P,SW1,1,1*%
%TO.N,Column 1*%
X53340000Y-35560000D03*
%TO.P,SW1,2,2*%
%TO.N,Net-(D1-A)*%
X59690000Y-33020000D03*
%TD*%
D11*
%TO.P,D6,1,K*%
%TO.N,Row 2*%
X104775000Y-59705000D03*
D12*
%TO.P,D6,2,A*%
%TO.N,Net-(D6-A)*%
X104775000Y-52085000D03*
%TD*%
D11*
%TO.P,D2,1,K*%
%TO.N,Row 1*%
X85725000Y-40675000D03*
D12*
%TO.P,D2,2,A*%
%TO.N,Net-(D2-A)*%
X85725000Y-33055000D03*
%TD*%
D11*
%TO.P,D1,1,K*%
%TO.N,Row 1*%
X66675000Y-40645000D03*
D12*
%TO.P,D1,2,A*%
%TO.N,Net-(D1-A)*%
X66675000Y-33025000D03*
%TD*%
D11*
%TO.P,D4,1,K*%
%TO.N,Row 2*%
X66675000Y-59735000D03*
D12*
%TO.P,D4,2,A*%
%TO.N,Net-(D4-A)*%
X66675000Y-52115000D03*
%TD*%
D11*
%TO.P,D3,1,K*%
%TO.N,Row 1*%
X104785000Y-40655000D03*
D12*
%TO.P,D3,2,A*%
%TO.N,Net-(D3-A)*%
X104785000Y-33035000D03*
%TD*%
D11*
%TO.P,D5,1,K*%
%TO.N,Row 2*%
X85735000Y-59665000D03*
D12*
%TO.P,D5,2,A*%
%TO.N,Net-(D5-A)*%
X85735000Y-52045000D03*
%TD*%
D13*
%TO.P,U1,14,5V*%
%TO.N,unconnected-(U1-5V-Pad14)*%
X127162500Y-40005000D03*
D14*
X126682500Y-40005000D03*
D13*
%TO.P,U1,13,GND*%
%TO.N,Row 2*%
X127162500Y-42545000D03*
D14*
X126682500Y-42545000D03*
D13*
%TO.P,U1,12,3V3*%
%TO.N,unconnected-(U1-3V3-Pad12)*%
X127162500Y-45085000D03*
D14*
X126682500Y-45085000D03*
D13*
%TO.P,U1,11,PA6_A10_D10_MOSI*%
%TO.N,unconnected-(U1-PA6_A10_D10_MOSI-Pad11)*%
X127162500Y-47625000D03*
D14*
X126682500Y-47625000D03*
D13*
%TO.P,U1,10,PA5_A9_D9_MISO*%
%TO.N,unconnected-(U1-PA5_A9_D9_MISO-Pad10)*%
X127162500Y-50165000D03*
D14*
X126682500Y-50165000D03*
D13*
%TO.P,U1,9,PA7_A8_D8_SCK*%
%TO.N,unconnected-(U1-PA7_A8_D8_SCK-Pad9)*%
X127162500Y-52705000D03*
D14*
X126682500Y-52705000D03*
D13*
%TO.P,U1,8,PB09_A7_D7_RX*%
%TO.N,unconnected-(U1-PB09_A7_D7_RX-Pad8)*%
X127162500Y-55245000D03*
D14*
X126682500Y-55245000D03*
%TO.P,U1,7,PB08_A6_D6_TX*%
%TO.N,unconnected-(U1-PB08_A6_D6_TX-Pad7)*%
X111442500Y-55245000D03*
D13*
X110997500Y-55245000D03*
D14*
%TO.P,U1,6,PA9_A5_D5_SCL*%
%TO.N,unconnected-(U1-PA9_A5_D5_SCL-Pad6)*%
X111442500Y-52705000D03*
D13*
X110997500Y-52705000D03*
D14*
%TO.P,U1,5,PA8_A4_D4_SDA*%
%TO.N,Column 3*%
X111442500Y-50165000D03*
D13*
X110997500Y-50165000D03*
D14*
%TO.P,U1,4,PA11_A3_D3*%
%TO.N,Column 2*%
X111442500Y-47625000D03*
D13*
X110997500Y-47625000D03*
D14*
%TO.P,U1,3,PA10_A2_D2*%
%TO.N,Column 1*%
X111442500Y-45085000D03*
D13*
X110997500Y-45085000D03*
D14*
%TO.P,U1,2,PA4_A1_D1*%
%TO.N,Row 2*%
X111442500Y-42545000D03*
D13*
X110997500Y-42545000D03*
D11*
%TO.P,U1,1,PA02_A0_D0*%
%TO.N,Row 1*%
X111442500Y-40005000D03*
D13*
X110997500Y-40005000D03*
%TD*%
D15*
%TO.N,Net-(D1-A)*%
X66670000Y-33020000D02*
X66675000Y-33025000D01*
X59690000Y-33020000D02*
X66670000Y-33020000D01*
%TO.N,Row 1*%
X104775000Y-40645000D02*
X104785000Y-40655000D01*
X66675000Y-40645000D02*
X104775000Y-40645000D01*
%TO.N,Net-(D2-A)*%
X78740000Y-33020000D02*
X85690000Y-33020000D01*
X85690000Y-33020000D02*
X85725000Y-33055000D01*
%TO.N,Net-(D3-A)*%
X97790000Y-33020000D02*
X104770000Y-33020000D01*
X104770000Y-33020000D02*
X104785000Y-33035000D01*
%TO.N,Row 2*%
X104745000Y-59735000D02*
X104775000Y-59705000D01*
X66675000Y-59735000D02*
X104745000Y-59735000D01*
%TO.N,Net-(D4-A)*%
X66630000Y-52070000D02*
X66675000Y-52115000D01*
X59690000Y-52070000D02*
X66630000Y-52070000D01*
%TO.N,Net-(D5-A)*%
X85710000Y-52070000D02*
X85735000Y-52045000D01*
X78740000Y-52070000D02*
X85710000Y-52070000D01*
%TO.N,Net-(D6-A)*%
X97790000Y-52070000D02*
X104760000Y-52070000D01*
X104760000Y-52070000D02*
X104775000Y-52085000D01*
%TO.N,Column 1*%
X53340000Y-54610000D02*
X53340000Y-51780000D01*
X60035000Y-45085000D02*
X110997500Y-45085000D01*
X53340000Y-51780000D02*
X60035000Y-45085000D01*
%TO.N,Column 2*%
X79375000Y-47625000D02*
X111442500Y-47625000D01*
X72390000Y-54610000D02*
X79375000Y-47625000D01*
%TO.N,Column 3*%
X106552500Y-54610000D02*
X110997500Y-50165000D01*
X110997500Y-50191358D02*
X110997500Y-50165000D01*
X91440000Y-54610000D02*
X106552500Y-54610000D01*
%TD*%
%TA.AperFunction,NonConductor*%
G36*
X128395863Y-24332685D02*
G01*
X128416505Y-24349319D01*
X132813181Y-28745995D01*
X132846666Y-28807318D01*
X132849500Y-28833676D01*
X132849500Y-66416324D01*
X132829815Y-66483363D01*
X132813181Y-66504005D01*
X128416505Y-70900681D01*
X128355182Y-70934166D01*
X128328824Y-70937000D01*
X47883676Y-70937000D01*
X47816637Y-70917315D01*
X47795995Y-70900681D01*
X43399319Y-66504005D01*
X43365834Y-66442682D01*
X43363000Y-66416324D01*
X43363000Y-57061421D01*
X50944500Y-57061421D01*
X50944500Y-57238578D01*
X50972214Y-57413556D01*
X51026956Y-57582039D01*
X51026957Y-57582042D01*
X51107386Y-57739890D01*
X51211517Y-57883214D01*
X51336786Y-58008483D01*
X51480110Y-58112614D01*
X51548577Y-58147500D01*
X51637957Y-58193042D01*
X51637960Y-58193043D01*
X51722201Y-58220414D01*
X51806445Y-58247786D01*
X51981421Y-58275500D01*
X51981422Y-58275500D01*
X52158578Y-58275500D01*
X52158579Y-58275500D01*
X52333555Y-58247786D01*
X52502042Y-58193042D01*
X52659890Y-58112614D01*
X52803214Y-58008483D01*
X52928483Y-57883214D01*
X53032614Y-57739890D01*
X53113042Y-57582042D01*
X53167786Y-57413555D01*
X53195500Y-57238579D01*
X53195500Y-57061421D01*
X53186165Y-57002486D01*
X54899500Y-57002486D01*
X54899500Y-57297513D01*
X54914778Y-57413555D01*
X54938007Y-57589993D01*
X55014361Y-57874951D01*
X55014364Y-57874961D01*
X55127254Y-58147500D01*
X55127258Y-58147510D01*
X55274761Y-58402993D01*
X55454352Y-58637040D01*
X55454358Y-58637047D01*
X55662952Y-58845641D01*
X55662959Y-58845647D01*
X55897006Y-59025238D01*
X56152489Y-59172741D01*
X56152490Y-59172741D01*
X56152493Y-59172743D01*
X56425048Y-59285639D01*
X56710007Y-59361993D01*
X57002494Y-59400500D01*
X57002501Y-59400500D01*
X57297499Y-59400500D01*
X57297506Y-59400500D01*
X57589993Y-59361993D01*
X57874952Y-59285639D01*
X58147507Y-59172743D01*
X58402994Y-59025238D01*
X58637042Y-58845646D01*
X58845646Y-58637042D01*
X59025238Y-58402994D01*
X59172743Y-58147507D01*
X59285639Y-57874952D01*
X59361993Y-57589993D01*
X59400500Y-57297506D01*
X59400500Y-57061421D01*
X61104500Y-57061421D01*
X61104500Y-57238578D01*
X61132214Y-57413556D01*
X61186956Y-57582039D01*
X61186957Y-57582042D01*
X61267386Y-57739890D01*
X61371517Y-57883214D01*
X61496786Y-58008483D01*
X61640110Y-58112614D01*
X61708577Y-58147500D01*
X61797957Y-58193042D01*
X61797960Y-58193043D01*
X61882201Y-58220414D01*
X61966445Y-58247786D01*
X62141421Y-58275500D01*
X62141422Y-58275500D01*
X62318578Y-58275500D01*
X62318579Y-58275500D01*
X62493555Y-58247786D01*
X62662042Y-58193042D01*
X62819890Y-58112614D01*
X62963214Y-58008483D01*
X63088483Y-57883214D01*
X63192614Y-57739890D01*
X63273042Y-57582042D01*
X63327786Y-57413555D01*
X63355500Y-57238579D01*
X63355500Y-57061421D01*
X63327786Y-56886445D01*
X63281991Y-56745500D01*
X63273043Y-56717960D01*
X63273042Y-56717957D01*
X63205142Y-56584698D01*
X63192614Y-56560110D01*
X63088483Y-56416786D01*
X62963214Y-56291517D01*
X62819890Y-56187386D01*
X62662042Y-56106957D01*
X62662039Y-56106956D01*
X62493556Y-56052214D01*
X62406067Y-56038357D01*
X62318579Y-56024500D01*
X62141421Y-56024500D01*
X62083095Y-56033738D01*
X61966443Y-56052214D01*
X61797960Y-56106956D01*
X61797957Y-56106957D01*
X61640109Y-56187386D01*
X61562104Y-56244061D01*
X61496786Y-56291517D01*
X61496784Y-56291519D01*
X61496783Y-56291519D01*
X61371519Y-56416783D01*
X61371519Y-56416784D01*
X61371517Y-56416786D01*
X61342947Y-56456109D01*
X61267386Y-56560109D01*
X61186957Y-56717957D01*
X61186956Y-56717960D01*
X61132214Y-56886443D01*
X61104500Y-57061421D01*
X59400500Y-57061421D01*
X59400500Y-57002494D01*
X59361993Y-56710007D01*
X59285639Y-56425048D01*
X59172743Y-56152493D01*
X59159888Y-56130228D01*
X59025238Y-55897006D01*
X58845647Y-55662959D01*
X58845641Y-55662952D01*
X58637047Y-55454358D01*
X58637040Y-55454352D01*
X58402993Y-55274761D01*
X58147510Y-55127258D01*
X58147500Y-55127254D01*
X57874961Y-55014364D01*
X57874954Y-55014362D01*
X57874952Y-55014361D01*
X57589993Y-54938007D01*
X57541113Y-54931571D01*
X57297513Y-54899500D01*
X57297506Y-54899500D01*
X57002494Y-54899500D01*
X57002486Y-54899500D01*
X56724085Y-54936153D01*
X56710007Y-54938007D01*
X56596201Y-54968501D01*
X56425048Y-55014361D01*
X56425038Y-55014364D01*
X56152499Y-55127254D01*
X56152489Y-55127258D01*
X55897006Y-55274761D01*
X55662959Y-55454352D01*
X55662952Y-55454358D01*
X55454358Y-55662952D01*
X55454352Y-55662959D01*
X55274761Y-55897006D01*
X55127258Y-56152489D01*
X55127254Y-56152499D01*
X55014364Y-56425038D01*
X55014361Y-56425048D01*
X54946340Y-56678910D01*
X54938008Y-56710004D01*
X54938006Y-56710015D01*
X54899500Y-57002486D01*
X53186165Y-57002486D01*
X53167786Y-56886445D01*
X53121991Y-56745500D01*
X53113043Y-56717960D01*
X53113042Y-56717957D01*
X53045142Y-56584698D01*
X53032614Y-56560110D01*
X53031529Y-56558617D01*
X53022202Y-56545778D01*
X52998722Y-56479972D01*
X53014548Y-56411918D01*
X53064654Y-56363223D01*
X53133132Y-56349348D01*
X53140992Y-56350276D01*
X53208818Y-56360500D01*
X53471182Y-56360500D01*
X53730615Y-56321396D01*
X53981323Y-56244063D01*
X54217704Y-56130228D01*
X54434479Y-55982433D01*
X54626805Y-55803981D01*
X54790386Y-55598857D01*
X54921568Y-55371643D01*
X55017420Y-55127416D01*
X55075802Y-54871630D01*
X55089640Y-54686971D01*
X55095408Y-54610004D01*
X55095408Y-54609995D01*
X55075803Y-54348379D01*
X55075802Y-54348374D01*
X55075802Y-54348370D01*
X55017420Y-54092584D01*
X54921568Y-53848357D01*
X54790386Y-53621143D01*
X54626805Y-53416019D01*
X54626804Y-53416018D01*
X54626801Y-53416014D01*
X54434479Y-53237567D01*
X54343542Y-53175567D01*
X54217704Y-53089772D01*
X54217701Y-53089771D01*
X54217699Y-53089769D01*
X54010698Y-52990083D01*
X53958839Y-52943261D01*
X53940500Y-52878363D01*
X53940500Y-52080097D01*
X53943466Y-52069995D01*
X57934592Y-52069995D01*
X57934592Y-52070004D01*
X57954196Y-52331620D01*
X57954197Y-52331625D01*
X58012576Y-52587402D01*
X58012578Y-52587411D01*
X58012580Y-52587416D01*
X58108432Y-52831643D01*
X58239614Y-53058857D01*
X58332687Y-53175567D01*
X58403198Y-53263985D01*
X58530838Y-53382416D01*
X58595521Y-53442433D01*
X58812296Y-53590228D01*
X58812301Y-53590230D01*
X58812302Y-53590231D01*
X58812303Y-53590232D01*
X58937843Y-53650688D01*
X59048673Y-53704061D01*
X59048674Y-53704061D01*
X59048677Y-53704063D01*
X59299385Y-53781396D01*
X59558818Y-53820500D01*
X59821182Y-53820500D01*
X60080615Y-53781396D01*
X60331323Y-53704063D01*
X60567704Y-53590228D01*
X60784479Y-53442433D01*
X60976805Y-53263981D01*
X61140386Y-53058857D01*
X61271568Y-52831643D01*
X61303926Y-52749194D01*
X61346740Y-52693984D01*
X61412610Y-52670683D01*
X61419353Y-52670500D01*
X65420095Y-52670500D01*
X65487134Y-52690185D01*
X65532475Y-52742093D01*
X65535789Y-52749198D01*
X65544433Y-52767736D01*
X65674954Y-52954141D01*
X65835858Y-53115045D01*
X65835861Y-53115047D01*
X66022266Y-53245568D01*
X66228504Y-53341739D01*
X66448308Y-53400635D01*
X66610230Y-53414801D01*
X66674998Y-53420468D01*
X66675000Y-53420468D01*
X66675002Y-53420468D01*
X66731673Y-53415509D01*
X66901692Y-53400635D01*
X67121496Y-53341739D01*
X67327734Y-53245568D01*
X67514139Y-53115047D01*
X67675047Y-52954139D01*
X67805568Y-52767734D01*
X67901739Y-52561496D01*
X67960635Y-52341692D01*
X67980468Y-52115000D01*
X67977843Y-52085001D01*
X67960635Y-51888313D01*
X67960635Y-51888308D01*
X67915916Y-51721415D01*
X67901741Y-51668511D01*
X67901738Y-51668502D01*
X67887749Y-51638502D01*
X67805568Y-51462266D01*
X67675047Y-51275861D01*
X67675045Y-51275858D01*
X67514141Y-51114954D01*
X67327734Y-50984432D01*
X67327732Y-50984431D01*
X67121497Y-50888261D01*
X67121488Y-50888258D01*
X66901697Y-50829366D01*
X66901693Y-50829365D01*
X66901692Y-50829365D01*
X66901691Y-50829364D01*
X66901686Y-50829364D01*
X66675002Y-50809532D01*
X66674998Y-50809532D01*
X66448313Y-50829364D01*
X66448302Y-50829366D01*
X66228511Y-50888258D01*
X66228502Y-50888261D01*
X66022267Y-50984431D01*
X66022265Y-50984432D01*
X65835858Y-51114954D01*
X65674954Y-51275858D01*
X65576391Y-51416623D01*
X65521814Y-51460248D01*
X65474816Y-51469500D01*
X61419353Y-51469500D01*
X61352314Y-51449815D01*
X61306559Y-51397011D01*
X61303941Y-51390842D01*
X61271568Y-51308357D01*
X61140386Y-51081143D01*
X60976805Y-50876019D01*
X60976804Y-50876018D01*
X60976801Y-50876014D01*
X60784479Y-50697567D01*
X60567704Y-50549772D01*
X60567700Y-50549770D01*
X60567697Y-50549768D01*
X60567696Y-50549767D01*
X60331325Y-50435938D01*
X60331327Y-50435938D01*
X60080623Y-50358606D01*
X60080619Y-50358605D01*
X60080615Y-50358604D01*
X59955823Y-50339794D01*
X59821187Y-50319500D01*
X59821182Y-50319500D01*
X59558818Y-50319500D01*
X59558812Y-50319500D01*
X59397247Y-50343853D01*
X59299385Y-50358604D01*
X59299382Y-50358605D01*
X59299376Y-50358606D01*
X59048673Y-50435938D01*
X58812303Y-50549767D01*
X58812302Y-50549768D01*
X58595520Y-50697567D01*
X58403198Y-50876014D01*
X58239614Y-51081143D01*
X58108432Y-51308356D01*
X58012582Y-51552578D01*
X58012576Y-51552597D01*
X57954197Y-51808374D01*
X57954196Y-51808379D01*
X57934592Y-52069995D01*
X53943466Y-52069995D01*
X53960185Y-52013058D01*
X53976819Y-51992416D01*
X60247417Y-45721819D01*
X60308740Y-45688334D01*
X60335098Y-45685500D01*
X109017110Y-45685500D01*
X109084149Y-45705185D01*
X109129904Y-45757989D01*
X109136323Y-45775382D01*
X109156428Y-45845644D01*
X109188589Y-45958045D01*
X109188590Y-45958048D01*
X109188591Y-45958049D01*
X109282802Y-46138407D01*
X109282804Y-46138409D01*
X109395515Y-46276639D01*
X109422624Y-46341036D01*
X109410615Y-46409865D01*
X109395515Y-46433361D01*
X109282804Y-46571590D01*
X109188589Y-46751954D01*
X109152996Y-46876347D01*
X109136325Y-46934612D01*
X109098959Y-46993649D01*
X109035605Y-47023113D01*
X109017110Y-47024500D01*
X79461670Y-47024500D01*
X79461654Y-47024499D01*
X79454058Y-47024499D01*
X79295943Y-47024499D01*
X79219579Y-47044961D01*
X79143214Y-47065423D01*
X79143209Y-47065426D01*
X79006290Y-47144475D01*
X79006282Y-47144481D01*
X73190395Y-52960368D01*
X73129072Y-52993853D01*
X73059380Y-52988869D01*
X73048916Y-52984409D01*
X73031324Y-52975937D01*
X72780623Y-52898606D01*
X72780619Y-52898605D01*
X72780615Y-52898604D01*
X72655823Y-52879794D01*
X72521187Y-52859500D01*
X72521182Y-52859500D01*
X72258818Y-52859500D01*
X72258812Y-52859500D01*
X72097247Y-52883853D01*
X71999385Y-52898604D01*
X71999382Y-52898605D01*
X71999376Y-52898606D01*
X71748673Y-52975938D01*
X71512303Y-53089767D01*
X71512302Y-53089768D01*
X71295520Y-53237567D01*
X71103198Y-53416014D01*
X70939614Y-53621143D01*
X70808432Y-53848356D01*
X70712582Y-54092578D01*
X70712576Y-54092597D01*
X70654197Y-54348374D01*
X70654196Y-54348379D01*
X70634592Y-54609995D01*
X70634592Y-54610004D01*
X70654196Y-54871620D01*
X70654197Y-54871625D01*
X70712576Y-55127402D01*
X70712578Y-55127411D01*
X70712580Y-55127416D01*
X70808432Y-55371643D01*
X70939614Y-55598857D01*
X70990733Y-55662958D01*
X71103197Y-55803984D01*
X71109377Y-55809717D01*
X71145133Y-55869744D01*
X71142760Y-55939574D01*
X71103011Y-55997035D01*
X71038506Y-56023884D01*
X71034788Y-56024234D01*
X71031428Y-56024498D01*
X70856443Y-56052214D01*
X70687960Y-56106956D01*
X70687957Y-56106957D01*
X70530109Y-56187386D01*
X70452104Y-56244061D01*
X70386786Y-56291517D01*
X70386784Y-56291519D01*
X70386783Y-56291519D01*
X70261519Y-56416783D01*
X70261519Y-56416784D01*
X70261517Y-56416786D01*
X70232947Y-56456109D01*
X70157386Y-56560109D01*
X70076957Y-56717957D01*
X70076956Y-56717960D01*
X70022214Y-56886443D01*
X69994500Y-57061421D01*
X69994500Y-57238578D01*
X70022214Y-57413556D01*
X70076956Y-57582039D01*
X70076957Y-57582042D01*
X70157386Y-57739890D01*
X70261517Y-57883214D01*
X70386786Y-58008483D01*
X70530110Y-58112614D01*
X70598577Y-58147500D01*
X70687957Y-58193042D01*
X70687960Y-58193043D01*
X70772201Y-58220414D01*
X70856445Y-58247786D01*
X71031421Y-58275500D01*
X71031422Y-58275500D01*
X71208578Y-58275500D01*
X71208579Y-58275500D01*
X71383555Y-58247786D01*
X71552042Y-58193042D01*
X71709890Y-58112614D01*
X71853214Y-58008483D01*
X71978483Y-57883214D01*
X72082614Y-57739890D01*
X72163042Y-57582042D01*
X72217786Y-57413555D01*
X72245500Y-57238579D01*
X72245500Y-57061421D01*
X72217786Y-56886445D01*
X72171991Y-56745500D01*
X72163043Y-56717960D01*
X72163042Y-56717957D01*
X72095142Y-56584698D01*
X72082614Y-56560110D01*
X72081529Y-56558617D01*
X72072202Y-56545778D01*
X72048722Y-56479972D01*
X72064548Y-56411918D01*
X72114654Y-56363223D01*
X72183132Y-56349348D01*
X72190992Y-56350276D01*
X72258818Y-56360500D01*
X72521182Y-56360500D01*
X72780615Y-56321396D01*
X73031323Y-56244063D01*
X73267704Y-56130228D01*
X73484479Y-55982433D01*
X73676805Y-55803981D01*
X73840386Y-55598857D01*
X73971568Y-55371643D01*
X74067420Y-55127416D01*
X74125802Y-54871630D01*
X74139640Y-54686971D01*
X74145408Y-54610004D01*
X74145408Y-54609995D01*
X74125803Y-54348379D01*
X74125802Y-54348374D01*
X74125802Y-54348370D01*
X74067420Y-54092584D01*
X74009489Y-53944980D01*
X74003321Y-53875384D01*
X74035759Y-53813501D01*
X74037237Y-53811998D01*
X75779241Y-52069995D01*
X76984592Y-52069995D01*
X76984592Y-52070004D01*
X77004196Y-52331620D01*
X77004197Y-52331625D01*
X77062576Y-52587402D01*
X77062578Y-52587411D01*
X77062580Y-52587416D01*
X77158432Y-52831643D01*
X77289614Y-53058857D01*
X77382687Y-53175567D01*
X77453198Y-53263985D01*
X77580838Y-53382416D01*
X77645521Y-53442433D01*
X77862296Y-53590228D01*
X77862301Y-53590230D01*
X77862302Y-53590231D01*
X77862303Y-53590232D01*
X77987843Y-53650688D01*
X78098673Y-53704061D01*
X78098674Y-53704061D01*
X78098677Y-53704063D01*
X78349385Y-53781396D01*
X78608818Y-53820500D01*
X78871182Y-53820500D01*
X79130615Y-53781396D01*
X79381323Y-53704063D01*
X79617704Y-53590228D01*
X79834479Y-53442433D01*
X80026805Y-53263981D01*
X80190386Y-53058857D01*
X80321568Y-52831643D01*
X80353926Y-52749194D01*
X80396740Y-52693984D01*
X80462610Y-52670683D01*
X80469353Y-52670500D01*
X84520812Y-52670500D01*
X84587851Y-52690185D01*
X84622387Y-52723377D01*
X84734954Y-52884141D01*
X84895858Y-53045045D01*
X84895861Y-53045047D01*
X85082266Y-53175568D01*
X85288504Y-53271739D01*
X85508308Y-53330635D01*
X85670230Y-53344801D01*
X85734998Y-53350468D01*
X85735000Y-53350468D01*
X85735002Y-53350468D01*
X85791673Y-53345509D01*
X85961692Y-53330635D01*
X86181496Y-53271739D01*
X86387734Y-53175568D01*
X86574139Y-53045047D01*
X86735047Y-52884139D01*
X86865568Y-52697734D01*
X86961739Y-52491496D01*
X87020635Y-52271692D01*
X87040468Y-52045000D01*
X87038944Y-52027586D01*
X87034801Y-51980230D01*
X87020635Y-51818308D01*
X86961739Y-51598504D01*
X86865568Y-51392266D01*
X86735047Y-51205861D01*
X86735045Y-51205858D01*
X86574141Y-51044954D01*
X86387734Y-50914432D01*
X86387732Y-50914431D01*
X86181497Y-50818261D01*
X86181488Y-50818258D01*
X85961697Y-50759366D01*
X85961693Y-50759365D01*
X85961692Y-50759365D01*
X85961691Y-50759364D01*
X85961686Y-50759364D01*
X85735002Y-50739532D01*
X85734998Y-50739532D01*
X85508313Y-50759364D01*
X85508302Y-50759366D01*
X85288511Y-50818258D01*
X85288502Y-50818261D01*
X85082267Y-50914431D01*
X85082265Y-50914432D01*
X84895858Y-51044954D01*
X84734954Y-51205858D01*
X84604432Y-51392265D01*
X84603272Y-51394752D01*
X84601802Y-51397904D01*
X84555633Y-51450343D01*
X84489421Y-51469500D01*
X80469353Y-51469500D01*
X80402314Y-51449815D01*
X80356559Y-51397011D01*
X80353941Y-51390842D01*
X80321568Y-51308357D01*
X80190386Y-51081143D01*
X80026805Y-50876019D01*
X80026804Y-50876018D01*
X80026801Y-50876014D01*
X79834479Y-50697567D01*
X79617704Y-50549772D01*
X79617700Y-50549770D01*
X79617697Y-50549768D01*
X79617696Y-50549767D01*
X79381325Y-50435938D01*
X79381327Y-50435938D01*
X79130623Y-50358606D01*
X79130619Y-50358605D01*
X79130615Y-50358604D01*
X79005823Y-50339794D01*
X78871187Y-50319500D01*
X78871182Y-50319500D01*
X78608818Y-50319500D01*
X78608812Y-50319500D01*
X78447247Y-50343853D01*
X78349385Y-50358604D01*
X78349382Y-50358605D01*
X78349376Y-50358606D01*
X78098673Y-50435938D01*
X77862303Y-50549767D01*
X77862302Y-50549768D01*
X77645520Y-50697567D01*
X77453198Y-50876014D01*
X77289614Y-51081143D01*
X77158432Y-51308356D01*
X77062582Y-51552578D01*
X77062576Y-51552597D01*
X77004197Y-51808374D01*
X77004196Y-51808379D01*
X76984592Y-52069995D01*
X75779241Y-52069995D01*
X76804282Y-51044954D01*
X79587417Y-48261819D01*
X79648740Y-48228334D01*
X79675098Y-48225500D01*
X109017110Y-48225500D01*
X109084149Y-48245185D01*
X109129904Y-48297989D01*
X109136323Y-48315382D01*
X109156428Y-48385644D01*
X109188589Y-48498045D01*
X109188590Y-48498048D01*
X109188591Y-48498049D01*
X109282802Y-48678407D01*
X109282804Y-48678409D01*
X109395515Y-48816639D01*
X109422624Y-48881036D01*
X109410615Y-48949865D01*
X109395515Y-48973361D01*
X109282804Y-49111590D01*
X109188589Y-49291954D01*
X109132614Y-49487583D01*
X109132613Y-49487586D01*
X109122000Y-49606966D01*
X109122000Y-50723028D01*
X109122000Y-50723033D01*
X109122001Y-50723036D01*
X109124071Y-50746330D01*
X109132613Y-50842415D01*
X109187782Y-51035224D01*
X109187299Y-51105092D01*
X109156247Y-51157016D01*
X106340084Y-53973181D01*
X106278761Y-54006666D01*
X106252403Y-54009500D01*
X98263807Y-54009500D01*
X98196768Y-53989815D01*
X98151013Y-53937011D01*
X98141069Y-53867853D01*
X98170094Y-53804297D01*
X98227257Y-53767009D01*
X98255144Y-53758407D01*
X98431323Y-53704063D01*
X98667704Y-53590228D01*
X98884479Y-53442433D01*
X99076805Y-53263981D01*
X99240386Y-53058857D01*
X99371568Y-52831643D01*
X99403926Y-52749194D01*
X99446740Y-52693984D01*
X99512610Y-52670683D01*
X99519353Y-52670500D01*
X103534083Y-52670500D01*
X103601122Y-52690185D01*
X103639631Y-52734245D01*
X103641721Y-52733039D01*
X103644430Y-52737731D01*
X103774954Y-52924141D01*
X103935858Y-53085045D01*
X103935861Y-53085047D01*
X104122266Y-53215568D01*
X104328504Y-53311739D01*
X104548308Y-53370635D01*
X104710230Y-53384801D01*
X104774998Y-53390468D01*
X104775000Y-53390468D01*
X104775002Y-53390468D01*
X104831673Y-53385509D01*
X105001692Y-53370635D01*
X105221496Y-53311739D01*
X105427734Y-53215568D01*
X105614139Y-53085047D01*
X105775047Y-52924139D01*
X105905568Y-52737734D01*
X106001739Y-52531496D01*
X106060635Y-52311692D01*
X106080468Y-52085000D01*
X106076968Y-52045000D01*
X106063260Y-51888313D01*
X106060635Y-51858308D01*
X106001739Y-51638504D01*
X105905568Y-51432266D01*
X105775047Y-51245861D01*
X105775045Y-51245858D01*
X105614141Y-51084954D01*
X105427734Y-50954432D01*
X105427732Y-50954431D01*
X105221497Y-50858261D01*
X105221488Y-50858258D01*
X105001697Y-50799366D01*
X105001693Y-50799365D01*
X105001692Y-50799365D01*
X105001691Y-50799364D01*
X105001686Y-50799364D01*
X104775002Y-50779532D01*
X104774998Y-50779532D01*
X104548313Y-50799364D01*
X104548302Y-50799366D01*
X104328511Y-50858258D01*
X104328502Y-50858261D01*
X104122267Y-50954431D01*
X104122265Y-50954432D01*
X103935858Y-51084954D01*
X103774954Y-51245858D01*
X103655385Y-51416623D01*
X103600809Y-51460248D01*
X103553810Y-51469500D01*
X99519353Y-51469500D01*
X99452314Y-51449815D01*
X99406559Y-51397011D01*
X99403941Y-51390842D01*
X99371568Y-51308357D01*
X99240386Y-51081143D01*
X99076805Y-50876019D01*
X99076804Y-50876018D01*
X99076801Y-50876014D01*
X98884479Y-50697567D01*
X98667704Y-50549772D01*
X98667700Y-50549770D01*
X98667697Y-50549768D01*
X98667696Y-50549767D01*
X98431325Y-50435938D01*
X98431327Y-50435938D01*
X98180623Y-50358606D01*
X98180619Y-50358605D01*
X98180615Y-50358604D01*
X98055823Y-50339794D01*
X97921187Y-50319500D01*
X97921182Y-50319500D01*
X97658818Y-50319500D01*
X97658812Y-50319500D01*
X97497247Y-50343853D01*
X97399385Y-50358604D01*
X97399382Y-50358605D01*
X97399376Y-50358606D01*
X97148673Y-50435938D01*
X96912303Y-50549767D01*
X96912302Y-50549768D01*
X96695520Y-50697567D01*
X96503198Y-50876014D01*
X96339614Y-51081143D01*
X96208432Y-51308356D01*
X96112582Y-51552578D01*
X96112576Y-51552597D01*
X96054197Y-51808374D01*
X96054196Y-51808379D01*
X96034592Y-52069995D01*
X96034592Y-52070004D01*
X96054196Y-52331620D01*
X96054197Y-52331625D01*
X96112576Y-52587402D01*
X96112578Y-52587411D01*
X96112580Y-52587416D01*
X96208432Y-52831643D01*
X96339614Y-53058857D01*
X96432687Y-53175567D01*
X96503198Y-53263985D01*
X96630838Y-53382416D01*
X96695521Y-53442433D01*
X96912296Y-53590228D01*
X96912301Y-53590230D01*
X96912302Y-53590231D01*
X96912303Y-53590232D01*
X97037843Y-53650688D01*
X97148673Y-53704061D01*
X97148674Y-53704061D01*
X97148677Y-53704063D01*
X97310683Y-53754035D01*
X97352743Y-53767009D01*
X97411002Y-53805579D01*
X97439160Y-53869524D01*
X97428276Y-53938541D01*
X97381807Y-53990718D01*
X97316193Y-54009500D01*
X93169353Y-54009500D01*
X93102314Y-53989815D01*
X93056559Y-53937011D01*
X93053941Y-53930842D01*
X93021568Y-53848357D01*
X92890386Y-53621143D01*
X92726805Y-53416019D01*
X92726804Y-53416018D01*
X92726801Y-53416014D01*
X92534479Y-53237567D01*
X92502211Y-53215567D01*
X92317704Y-53089772D01*
X92317698Y-53089769D01*
X92317697Y-53089768D01*
X92317696Y-53089767D01*
X92081325Y-52975938D01*
X92081327Y-52975938D01*
X91830623Y-52898606D01*
X91830619Y-52898605D01*
X91830615Y-52898604D01*
X91705823Y-52879794D01*
X91571187Y-52859500D01*
X91571182Y-52859500D01*
X91308818Y-52859500D01*
X91308812Y-52859500D01*
X91147247Y-52883853D01*
X91049385Y-52898604D01*
X91049382Y-52898605D01*
X91049376Y-52898606D01*
X90798673Y-52975938D01*
X90562303Y-53089767D01*
X90562302Y-53089768D01*
X90345520Y-53237567D01*
X90153198Y-53416014D01*
X89989614Y-53621143D01*
X89858432Y-53848356D01*
X89762582Y-54092578D01*
X89762576Y-54092597D01*
X89704197Y-54348374D01*
X89704196Y-54348379D01*
X89684592Y-54609995D01*
X89684592Y-54610004D01*
X89704196Y-54871620D01*
X89704197Y-54871625D01*
X89762576Y-55127402D01*
X89762578Y-55127411D01*
X89762580Y-55127416D01*
X89858432Y-55371643D01*
X89989614Y-55598857D01*
X90040733Y-55662958D01*
X90153197Y-55803984D01*
X90159377Y-55809717D01*
X90195133Y-55869744D01*
X90192760Y-55939574D01*
X90153011Y-55997035D01*
X90088506Y-56023884D01*
X90084788Y-56024234D01*
X90081428Y-56024498D01*
X89906443Y-56052214D01*
X89737960Y-56106956D01*
X89737957Y-56106957D01*
X89580109Y-56187386D01*
X89502104Y-56244061D01*
X89436786Y-56291517D01*
X89436784Y-56291519D01*
X89436783Y-56291519D01*
X89311519Y-56416783D01*
X89311519Y-56416784D01*
X89311517Y-56416786D01*
X89282947Y-56456109D01*
X89207386Y-56560109D01*
X89126957Y-56717957D01*
X89126956Y-56717960D01*
X89072214Y-56886443D01*
X89044500Y-57061421D01*
X89044500Y-57238578D01*
X89072214Y-57413556D01*
X89126956Y-57582039D01*
X89126957Y-57582042D01*
X89207386Y-57739890D01*
X89311517Y-57883214D01*
X89436786Y-58008483D01*
X89580110Y-58112614D01*
X89648577Y-58147500D01*
X89737957Y-58193042D01*
X89737960Y-58193043D01*
X89822201Y-58220414D01*
X89906445Y-58247786D01*
X90081421Y-58275500D01*
X90081422Y-58275500D01*
X90258578Y-58275500D01*
X90258579Y-58275500D01*
X90433555Y-58247786D01*
X90602042Y-58193042D01*
X90759890Y-58112614D01*
X90903214Y-58008483D01*
X91028483Y-57883214D01*
X91132614Y-57739890D01*
X91213042Y-57582042D01*
X91267786Y-57413555D01*
X91295500Y-57238579D01*
X91295500Y-57061421D01*
X91267786Y-56886445D01*
X91221991Y-56745500D01*
X91213043Y-56717960D01*
X91213042Y-56717957D01*
X91145142Y-56584698D01*
X91132614Y-56560110D01*
X91131529Y-56558617D01*
X91122202Y-56545778D01*
X91098722Y-56479972D01*
X91114548Y-56411918D01*
X91164654Y-56363223D01*
X91233132Y-56349348D01*
X91240992Y-56350276D01*
X91308818Y-56360500D01*
X91571182Y-56360500D01*
X91830615Y-56321396D01*
X92081323Y-56244063D01*
X92317704Y-56130228D01*
X92534479Y-55982433D01*
X92726805Y-55803981D01*
X92890386Y-55598857D01*
X93021568Y-55371643D01*
X93053926Y-55289194D01*
X93096740Y-55233984D01*
X93162610Y-55210683D01*
X93169353Y-55210500D01*
X93715462Y-55210500D01*
X93782501Y-55230185D01*
X93828256Y-55282989D01*
X93838200Y-55352147D01*
X93809175Y-55415703D01*
X93790948Y-55432876D01*
X93762959Y-55454352D01*
X93762952Y-55454358D01*
X93554358Y-55662952D01*
X93554352Y-55662959D01*
X93374761Y-55897006D01*
X93227258Y-56152489D01*
X93227254Y-56152499D01*
X93114364Y-56425038D01*
X93114361Y-56425048D01*
X93046340Y-56678910D01*
X93038008Y-56710004D01*
X93038006Y-56710015D01*
X92999500Y-57002486D01*
X92999500Y-57297513D01*
X93014778Y-57413555D01*
X93038007Y-57589993D01*
X93114361Y-57874951D01*
X93114364Y-57874961D01*
X93227254Y-58147500D01*
X93227258Y-58147510D01*
X93374761Y-58402993D01*
X93554352Y-58637040D01*
X93554358Y-58637047D01*
X93762952Y-58845641D01*
X93762959Y-58845647D01*
X93849593Y-58912124D01*
X93890796Y-58968552D01*
X93894951Y-59038298D01*
X93860739Y-59099218D01*
X93799021Y-59131971D01*
X93774107Y-59134500D01*
X87159499Y-59134500D01*
X87092460Y-59114815D01*
X87046705Y-59062011D01*
X87035499Y-59010500D01*
X87035499Y-58817129D01*
X87035498Y-58817123D01*
X87035497Y-58817116D01*
X87029091Y-58757517D01*
X87004904Y-58692669D01*
X86978797Y-58622671D01*
X86978793Y-58622664D01*
X86892547Y-58507455D01*
X86892544Y-58507452D01*
X86777335Y-58421206D01*
X86777328Y-58421202D01*
X86642482Y-58370908D01*
X86642483Y-58370908D01*
X86582883Y-58364501D01*
X86582881Y-58364500D01*
X86582873Y-58364500D01*
X86582864Y-58364500D01*
X84887129Y-58364500D01*
X84887123Y-58364501D01*
X84827516Y-58370908D01*
X84692671Y-58421202D01*
X84692664Y-58421206D01*
X84577455Y-58507452D01*
X84577452Y-58507455D01*
X84491206Y-58622664D01*
X84491202Y-58622671D01*
X84440908Y-58757517D01*
X84436608Y-58797516D01*
X84434501Y-58817123D01*
X84434500Y-58817135D01*
X84434500Y-59010500D01*
X84414815Y-59077539D01*
X84362011Y-59123294D01*
X84310500Y-59134500D01*
X77675893Y-59134500D01*
X77608854Y-59114815D01*
X77563099Y-59062011D01*
X77553155Y-58992853D01*
X77582180Y-58929297D01*
X77600407Y-58912124D01*
X77672078Y-58857128D01*
X77687042Y-58845646D01*
X77895646Y-58637042D01*
X78075238Y-58402994D01*
X78222743Y-58147507D01*
X78335639Y-57874952D01*
X78411993Y-57589993D01*
X78450500Y-57297506D01*
X78450500Y-57061421D01*
X80154500Y-57061421D01*
X80154500Y-57238578D01*
X80182214Y-57413556D01*
X80236956Y-57582039D01*
X80236957Y-57582042D01*
X80317386Y-57739890D01*
X80421517Y-57883214D01*
X80546786Y-58008483D01*
X80690110Y-58112614D01*
X80758577Y-58147500D01*
X80847957Y-58193042D01*
X80847960Y-58193043D01*
X80932201Y-58220414D01*
X81016445Y-58247786D01*
X81191421Y-58275500D01*
X81191422Y-58275500D01*
X81368578Y-58275500D01*
X81368579Y-58275500D01*
X81543555Y-58247786D01*
X81712042Y-58193042D01*
X81869890Y-58112614D01*
X82013214Y-58008483D01*
X82138483Y-57883214D01*
X82242614Y-57739890D01*
X82323042Y-57582042D01*
X82377786Y-57413555D01*
X82405500Y-57238579D01*
X82405500Y-57061421D01*
X82377786Y-56886445D01*
X82331991Y-56745500D01*
X82323043Y-56717960D01*
X82323042Y-56717957D01*
X82255142Y-56584698D01*
X82242614Y-56560110D01*
X82138483Y-56416786D01*
X82013214Y-56291517D01*
X81869890Y-56187386D01*
X81712042Y-56106957D01*
X81712039Y-56106956D01*
X81543556Y-56052214D01*
X81456067Y-56038357D01*
X81368579Y-56024500D01*
X81191421Y-56024500D01*
X81133095Y-56033738D01*
X81016443Y-56052214D01*
X80847960Y-56106956D01*
X80847957Y-56106957D01*
X80690109Y-56187386D01*
X80612104Y-56244061D01*
X80546786Y-56291517D01*
X80546784Y-56291519D01*
X80546783Y-56291519D01*
X80421519Y-56416783D01*
X80421519Y-56416784D01*
X80421517Y-56416786D01*
X80392947Y-56456109D01*
X80317386Y-56560109D01*
X80236957Y-56717957D01*
X80236956Y-56717960D01*
X80182214Y-56886443D01*
X80154500Y-57061421D01*
X78450500Y-57061421D01*
X78450500Y-57002494D01*
X78411993Y-56710007D01*
X78335639Y-56425048D01*
X78222743Y-56152493D01*
X78209888Y-56130228D01*
X78075238Y-55897006D01*
X77895647Y-55662959D01*
X77895641Y-55662952D01*
X77687047Y-55454358D01*
X77687040Y-55454352D01*
X77452993Y-55274761D01*
X77197510Y-55127258D01*
X77197500Y-55127254D01*
X76924961Y-55014364D01*
X76924954Y-55014362D01*
X76924952Y-55014361D01*
X76639993Y-54938007D01*
X76591113Y-54931571D01*
X76347513Y-54899500D01*
X76347506Y-54899500D01*
X76052494Y-54899500D01*
X76052486Y-54899500D01*
X75774085Y-54936153D01*
X75760007Y-54938007D01*
X75646201Y-54968501D01*
X75475048Y-55014361D01*
X75475038Y-55014364D01*
X75202499Y-55127254D01*
X75202489Y-55127258D01*
X74947006Y-55274761D01*
X74712959Y-55454352D01*
X74712952Y-55454358D01*
X74504358Y-55662952D01*
X74504352Y-55662959D01*
X74324761Y-55897006D01*
X74177258Y-56152489D01*
X74177254Y-56152499D01*
X74064364Y-56425038D01*
X74064361Y-56425048D01*
X73996340Y-56678910D01*
X73988008Y-56710004D01*
X73988006Y-56710015D01*
X73949500Y-57002486D01*
X73949500Y-57297513D01*
X73964778Y-57413555D01*
X73988007Y-57589993D01*
X74064361Y-57874951D01*
X74064364Y-57874961D01*
X74177254Y-58147500D01*
X74177258Y-58147510D01*
X74324761Y-58402993D01*
X74504352Y-58637040D01*
X74504358Y-58637047D01*
X74712952Y-58845641D01*
X74712959Y-58845647D01*
X74799593Y-58912124D01*
X74840796Y-58968552D01*
X74844951Y-59038298D01*
X74810739Y-59099218D01*
X74749021Y-59131971D01*
X74724107Y-59134500D01*
X68099499Y-59134500D01*
X68032460Y-59114815D01*
X67986705Y-59062011D01*
X67975499Y-59010500D01*
X67975499Y-58887129D01*
X67975498Y-58887123D01*
X67975497Y-58887116D01*
X67969091Y-58827517D01*
X67965216Y-58817128D01*
X67918797Y-58692671D01*
X67918793Y-58692664D01*
X67832547Y-58577455D01*
X67832544Y-58577452D01*
X67717335Y-58491206D01*
X67717328Y-58491202D01*
X67582482Y-58440908D01*
X67582483Y-58440908D01*
X67522883Y-58434501D01*
X67522881Y-58434500D01*
X67522873Y-58434500D01*
X67522864Y-58434500D01*
X65827129Y-58434500D01*
X65827123Y-58434501D01*
X65767516Y-58440908D01*
X65632671Y-58491202D01*
X65632664Y-58491206D01*
X65517455Y-58577452D01*
X65517452Y-58577455D01*
X65431206Y-58692664D01*
X65431202Y-58692671D01*
X65380908Y-58827517D01*
X65374501Y-58887116D01*
X65374501Y-58887123D01*
X65374500Y-58887135D01*
X65374500Y-60582870D01*
X65374501Y-60582876D01*
X65380908Y-60642483D01*
X65431202Y-60777328D01*
X65431206Y-60777335D01*
X65517452Y-60892544D01*
X65517455Y-60892547D01*
X65632664Y-60978793D01*
X65632671Y-60978797D01*
X65767517Y-61029091D01*
X65767516Y-61029091D01*
X65774444Y-61029835D01*
X65827127Y-61035500D01*
X67522872Y-61035499D01*
X67582483Y-61029091D01*
X67717331Y-60978796D01*
X67832546Y-60892546D01*
X67918796Y-60777331D01*
X67969091Y-60642483D01*
X67975500Y-60582873D01*
X67975500Y-60459500D01*
X67995185Y-60392461D01*
X68047989Y-60346706D01*
X68099500Y-60335500D01*
X84310501Y-60335500D01*
X84377540Y-60355185D01*
X84423295Y-60407989D01*
X84434501Y-60459500D01*
X84434501Y-60512876D01*
X84440908Y-60572483D01*
X84491202Y-60707328D01*
X84491206Y-60707335D01*
X84577452Y-60822544D01*
X84577455Y-60822547D01*
X84692664Y-60908793D01*
X84692671Y-60908797D01*
X84827517Y-60959091D01*
X84827516Y-60959091D01*
X84834444Y-60959835D01*
X84887127Y-60965500D01*
X86582872Y-60965499D01*
X86642483Y-60959091D01*
X86777331Y-60908796D01*
X86892546Y-60822546D01*
X86978796Y-60707331D01*
X87029091Y-60572483D01*
X87035500Y-60512873D01*
X87035500Y-60459500D01*
X87055185Y-60392461D01*
X87107989Y-60346706D01*
X87159500Y-60335500D01*
X103350501Y-60335500D01*
X103417540Y-60355185D01*
X103463295Y-60407989D01*
X103474501Y-60459500D01*
X103474501Y-60552876D01*
X103480908Y-60612483D01*
X103531202Y-60747328D01*
X103531206Y-60747335D01*
X103617452Y-60862544D01*
X103617455Y-60862547D01*
X103732664Y-60948793D01*
X103732671Y-60948797D01*
X103867517Y-60999091D01*
X103867516Y-60999091D01*
X103874444Y-60999835D01*
X103927127Y-61005500D01*
X105622872Y-61005499D01*
X105682483Y-60999091D01*
X105817331Y-60948796D01*
X105932546Y-60862546D01*
X106018796Y-60747331D01*
X106069091Y-60612483D01*
X106075500Y-60552873D01*
X106075499Y-58857128D01*
X106069091Y-58797517D01*
X106029985Y-58692669D01*
X106018797Y-58662671D01*
X106018793Y-58662664D01*
X105932547Y-58547455D01*
X105932544Y-58547452D01*
X105817335Y-58461206D01*
X105817328Y-58461202D01*
X105682482Y-58410908D01*
X105682483Y-58410908D01*
X105622883Y-58404501D01*
X105622881Y-58404500D01*
X105622873Y-58404500D01*
X105622864Y-58404500D01*
X103927129Y-58404500D01*
X103927123Y-58404501D01*
X103867516Y-58410908D01*
X103732671Y-58461202D01*
X103732664Y-58461206D01*
X103617455Y-58547452D01*
X103617452Y-58547455D01*
X103531206Y-58662664D01*
X103531202Y-58662671D01*
X103480908Y-58797517D01*
X103475735Y-58845641D01*
X103474501Y-58857123D01*
X103474500Y-58857135D01*
X103474500Y-59010500D01*
X103454815Y-59077539D01*
X103402011Y-59123294D01*
X103350500Y-59134500D01*
X96725893Y-59134500D01*
X96658854Y-59114815D01*
X96613099Y-59062011D01*
X96603155Y-58992853D01*
X96632180Y-58929297D01*
X96650407Y-58912124D01*
X96722078Y-58857128D01*
X96737042Y-58845646D01*
X96945646Y-58637042D01*
X97125238Y-58402994D01*
X97272743Y-58147507D01*
X97385639Y-57874952D01*
X97461993Y-57589993D01*
X97500500Y-57297506D01*
X97500500Y-57061421D01*
X99204500Y-57061421D01*
X99204500Y-57238578D01*
X99232214Y-57413556D01*
X99286956Y-57582039D01*
X99286957Y-57582042D01*
X99367386Y-57739890D01*
X99471517Y-57883214D01*
X99596786Y-58008483D01*
X99740110Y-58112614D01*
X99808577Y-58147500D01*
X99897957Y-58193042D01*
X99897960Y-58193043D01*
X99982201Y-58220414D01*
X100066445Y-58247786D01*
X100241421Y-58275500D01*
X100241422Y-58275500D01*
X100418578Y-58275500D01*
X100418579Y-58275500D01*
X100593555Y-58247786D01*
X100762042Y-58193042D01*
X100919890Y-58112614D01*
X101063214Y-58008483D01*
X101188483Y-57883214D01*
X101292614Y-57739890D01*
X101373042Y-57582042D01*
X101427786Y-57413555D01*
X101455500Y-57238579D01*
X101455500Y-57061421D01*
X101427786Y-56886445D01*
X101381991Y-56745500D01*
X101373043Y-56717960D01*
X101373042Y-56717957D01*
X101305142Y-56584698D01*
X101292614Y-56560110D01*
X101188483Y-56416786D01*
X101063214Y-56291517D01*
X100919890Y-56187386D01*
X100762042Y-56106957D01*
X100762039Y-56106956D01*
X100593556Y-56052214D01*
X100506067Y-56038357D01*
X100418579Y-56024500D01*
X100241421Y-56024500D01*
X100183095Y-56033738D01*
X100066443Y-56052214D01*
X99897960Y-56106956D01*
X99897957Y-56106957D01*
X99740109Y-56187386D01*
X99662104Y-56244061D01*
X99596786Y-56291517D01*
X99596784Y-56291519D01*
X99596783Y-56291519D01*
X99471519Y-56416783D01*
X99471519Y-56416784D01*
X99471517Y-56416786D01*
X99442947Y-56456109D01*
X99367386Y-56560109D01*
X99286957Y-56717957D01*
X99286956Y-56717960D01*
X99232214Y-56886443D01*
X99204500Y-57061421D01*
X97500500Y-57061421D01*
X97500500Y-57002494D01*
X97461993Y-56710007D01*
X97385639Y-56425048D01*
X97272743Y-56152493D01*
X97259888Y-56130228D01*
X97125238Y-55897006D01*
X96945647Y-55662959D01*
X96945641Y-55662952D01*
X96737047Y-55454358D01*
X96737040Y-55454352D01*
X96709052Y-55432876D01*
X96667849Y-55376448D01*
X96663694Y-55306702D01*
X96697906Y-55245782D01*
X96759624Y-55213029D01*
X96784538Y-55210500D01*
X106465831Y-55210500D01*
X106465847Y-55210501D01*
X106473443Y-55210501D01*
X106631554Y-55210501D01*
X106631557Y-55210501D01*
X106784285Y-55169577D01*
X106834404Y-55140639D01*
X106921216Y-55090520D01*
X107033020Y-54978716D01*
X107033020Y-54978714D01*
X107043228Y-54968507D01*
X107043230Y-54968504D01*
X108910321Y-53101412D01*
X108971642Y-53067929D01*
X109041334Y-53072913D01*
X109097267Y-53114785D01*
X109121684Y-53180249D01*
X109122000Y-53189093D01*
X109122000Y-53263027D01*
X109122000Y-53263033D01*
X109122001Y-53263036D01*
X109122775Y-53271738D01*
X109132613Y-53382415D01*
X109188589Y-53578045D01*
X109188590Y-53578048D01*
X109188591Y-53578049D01*
X109282802Y-53758407D01*
X109301547Y-53781396D01*
X109395515Y-53896639D01*
X109422624Y-53961036D01*
X109410615Y-54029865D01*
X109395515Y-54053361D01*
X109282804Y-54191590D01*
X109188589Y-54371954D01*
X109132614Y-54567583D01*
X109132613Y-54567586D01*
X109122000Y-54686966D01*
X109122000Y-55803028D01*
X109122000Y-55803033D01*
X109122001Y-55803036D01*
X109122595Y-55809717D01*
X109132613Y-55922415D01*
X109188589Y-56118045D01*
X109188590Y-56118048D01*
X109188591Y-56118049D01*
X109282802Y-56298407D01*
X109301547Y-56321396D01*
X109411390Y-56456109D01*
X109505303Y-56532684D01*
X109569093Y-56584698D01*
X109749451Y-56678909D01*
X109945082Y-56734886D01*
X110064463Y-56745500D01*
X111930536Y-56745499D01*
X112049918Y-56734886D01*
X112245549Y-56678909D01*
X112425907Y-56584698D01*
X112583609Y-56456109D01*
X112712198Y-56298407D01*
X112806409Y-56118049D01*
X112862386Y-55922418D01*
X112873000Y-55803037D01*
X112872999Y-54686964D01*
X112862386Y-54567582D01*
X112806409Y-54371951D01*
X112712198Y-54191593D01*
X112599483Y-54053359D01*
X112572375Y-53988965D01*
X112584384Y-53920135D01*
X112599481Y-53896642D01*
X112712198Y-53758407D01*
X112806409Y-53578049D01*
X112862386Y-53382418D01*
X112873000Y-53263037D01*
X112872999Y-52146964D01*
X112862386Y-52027582D01*
X112806409Y-51831951D01*
X112712198Y-51651593D01*
X112599483Y-51513359D01*
X112572375Y-51448965D01*
X112584384Y-51380135D01*
X112599481Y-51356642D01*
X112712198Y-51218407D01*
X112806409Y-51038049D01*
X112862386Y-50842418D01*
X112873000Y-50723037D01*
X112872999Y-49606964D01*
X112862386Y-49487582D01*
X112806409Y-49291951D01*
X112712198Y-49111593D01*
X112599483Y-48973359D01*
X112572375Y-48908965D01*
X112584384Y-48840135D01*
X112599481Y-48816642D01*
X112712198Y-48678407D01*
X112806409Y-48498049D01*
X112862386Y-48302418D01*
X112873000Y-48183037D01*
X112872999Y-47066964D01*
X112862386Y-46947582D01*
X112806409Y-46751951D01*
X112712198Y-46571593D01*
X112599483Y-46433359D01*
X112572375Y-46368965D01*
X112584384Y-46300135D01*
X112599481Y-46276642D01*
X112712198Y-46138407D01*
X112806409Y-45958049D01*
X112862386Y-45762418D01*
X112873000Y-45643037D01*
X112872999Y-44526964D01*
X112862386Y-44407582D01*
X112806409Y-44211951D01*
X112712198Y-44031593D01*
X112599483Y-43893359D01*
X112572375Y-43828965D01*
X112584384Y-43760135D01*
X112599481Y-43736642D01*
X112712198Y-43598407D01*
X112806409Y-43418049D01*
X112862386Y-43222418D01*
X112873000Y-43103037D01*
X112872999Y-41986964D01*
X112862386Y-41867582D01*
X112806409Y-41671951D01*
X112712198Y-41491593D01*
X112599483Y-41353359D01*
X112572375Y-41288965D01*
X112584384Y-41220135D01*
X112599481Y-41196642D01*
X112712198Y-41058407D01*
X112806409Y-40878049D01*
X112862386Y-40682418D01*
X112873000Y-40563037D01*
X112872999Y-39446966D01*
X125287000Y-39446966D01*
X125287000Y-40563028D01*
X125287001Y-40563034D01*
X125297613Y-40682415D01*
X125353589Y-40878045D01*
X125353590Y-40878048D01*
X125353591Y-40878049D01*
X125447802Y-41058407D01*
X125447804Y-41058409D01*
X125560515Y-41196639D01*
X125587624Y-41261036D01*
X125575615Y-41329865D01*
X125560515Y-41353361D01*
X125547356Y-41369500D01*
X125447802Y-41491593D01*
X125415996Y-41552482D01*
X125353589Y-41671954D01*
X125297614Y-41867583D01*
X125297613Y-41867586D01*
X125290686Y-41945500D01*
X125288020Y-41975498D01*
X125287000Y-41986966D01*
X125287000Y-43103028D01*
X125287001Y-43103034D01*
X125297613Y-43222415D01*
X125353589Y-43418045D01*
X125353590Y-43418048D01*
X125353591Y-43418049D01*
X125447802Y-43598407D01*
X125447804Y-43598409D01*
X125560515Y-43736639D01*
X125587624Y-43801036D01*
X125575615Y-43869865D01*
X125560515Y-43893361D01*
X125447804Y-44031590D01*
X125353589Y-44211954D01*
X125308832Y-44368376D01*
X125301326Y-44394611D01*
X125297614Y-44407583D01*
X125297613Y-44407586D01*
X125287000Y-44526966D01*
X125287000Y-45643028D01*
X125287001Y-45643034D01*
X125297613Y-45762415D01*
X125353589Y-45958045D01*
X125353590Y-45958048D01*
X125353591Y-45958049D01*
X125447802Y-46138407D01*
X125447804Y-46138409D01*
X125560515Y-46276639D01*
X125587624Y-46341036D01*
X125575615Y-46409865D01*
X125560515Y-46433361D01*
X125447804Y-46571590D01*
X125353589Y-46751954D01*
X125308832Y-46908376D01*
X125301326Y-46934611D01*
X125297614Y-46947583D01*
X125297613Y-46947586D01*
X125287000Y-47066966D01*
X125287000Y-48183028D01*
X125287001Y-48183034D01*
X125297613Y-48302415D01*
X125353589Y-48498045D01*
X125353590Y-48498048D01*
X125353591Y-48498049D01*
X125447802Y-48678407D01*
X125447804Y-48678409D01*
X125560515Y-48816639D01*
X125587624Y-48881036D01*
X125575615Y-48949865D01*
X125560515Y-48973361D01*
X125447804Y-49111590D01*
X125353589Y-49291954D01*
X125297614Y-49487583D01*
X125297613Y-49487586D01*
X125287000Y-49606966D01*
X125287000Y-50723028D01*
X125287000Y-50723033D01*
X125287001Y-50723036D01*
X125289071Y-50746330D01*
X125297613Y-50842415D01*
X125353589Y-51038045D01*
X125353590Y-51038048D01*
X125353591Y-51038049D01*
X125447802Y-51218407D01*
X125470188Y-51245861D01*
X125560515Y-51356639D01*
X125587624Y-51421036D01*
X125575615Y-51489865D01*
X125560515Y-51513361D01*
X125458475Y-51638504D01*
X125447802Y-51651593D01*
X125438965Y-51668511D01*
X125353589Y-51831954D01*
X125297614Y-52027583D01*
X125297613Y-52027586D01*
X125287000Y-52146966D01*
X125287000Y-53263028D01*
X125287000Y-53263033D01*
X125287001Y-53263036D01*
X125287775Y-53271738D01*
X125297613Y-53382415D01*
X125353589Y-53578045D01*
X125353590Y-53578048D01*
X125353591Y-53578049D01*
X125447802Y-53758407D01*
X125466547Y-53781396D01*
X125560515Y-53896639D01*
X125587624Y-53961036D01*
X125575615Y-54029865D01*
X125560515Y-54053361D01*
X125447804Y-54191590D01*
X125353589Y-54371954D01*
X125297614Y-54567583D01*
X125297613Y-54567586D01*
X125287000Y-54686966D01*
X125287000Y-55803028D01*
X125287000Y-55803033D01*
X125287001Y-55803036D01*
X125287595Y-55809717D01*
X125297613Y-55922415D01*
X125353589Y-56118045D01*
X125353590Y-56118048D01*
X125353591Y-56118049D01*
X125447802Y-56298407D01*
X125466547Y-56321396D01*
X125576390Y-56456109D01*
X125670303Y-56532684D01*
X125734093Y-56584698D01*
X125914451Y-56678909D01*
X126110082Y-56734886D01*
X126229463Y-56745500D01*
X128095536Y-56745499D01*
X128214918Y-56734886D01*
X128410549Y-56678909D01*
X128590907Y-56584698D01*
X128748609Y-56456109D01*
X128877198Y-56298407D01*
X128971409Y-56118049D01*
X129027386Y-55922418D01*
X129038000Y-55803037D01*
X129037999Y-54686964D01*
X129027386Y-54567582D01*
X128971409Y-54371951D01*
X128877198Y-54191593D01*
X128764483Y-54053359D01*
X128737375Y-53988965D01*
X128749384Y-53920135D01*
X128764481Y-53896642D01*
X128877198Y-53758407D01*
X128971409Y-53578049D01*
X129027386Y-53382418D01*
X129038000Y-53263037D01*
X129037999Y-52146964D01*
X129027386Y-52027582D01*
X128971409Y-51831951D01*
X128877198Y-51651593D01*
X128764483Y-51513359D01*
X128737375Y-51448965D01*
X128749384Y-51380135D01*
X128764481Y-51356642D01*
X128877198Y-51218407D01*
X128971409Y-51038049D01*
X129027386Y-50842418D01*
X129038000Y-50723037D01*
X129037999Y-49606964D01*
X129027386Y-49487582D01*
X128971409Y-49291951D01*
X128877198Y-49111593D01*
X128764483Y-48973359D01*
X128737375Y-48908965D01*
X128749384Y-48840135D01*
X128764481Y-48816642D01*
X128877198Y-48678407D01*
X128971409Y-48498049D01*
X129027386Y-48302418D01*
X129038000Y-48183037D01*
X129037999Y-47066964D01*
X129027386Y-46947582D01*
X128971409Y-46751951D01*
X128877198Y-46571593D01*
X128764483Y-46433359D01*
X128737375Y-46368965D01*
X128749384Y-46300135D01*
X128764481Y-46276642D01*
X128877198Y-46138407D01*
X128971409Y-45958049D01*
X129027386Y-45762418D01*
X129038000Y-45643037D01*
X129037999Y-44526964D01*
X129027386Y-44407582D01*
X128971409Y-44211951D01*
X128877198Y-44031593D01*
X128764483Y-43893359D01*
X128737375Y-43828965D01*
X128749384Y-43760135D01*
X128764481Y-43736642D01*
X128877198Y-43598407D01*
X128971409Y-43418049D01*
X129027386Y-43222418D01*
X129038000Y-43103037D01*
X129037999Y-41986964D01*
X129027386Y-41867582D01*
X128971409Y-41671951D01*
X128877198Y-41491593D01*
X128764483Y-41353359D01*
X128737375Y-41288965D01*
X128749384Y-41220135D01*
X128764481Y-41196642D01*
X128877198Y-41058407D01*
X128971409Y-40878049D01*
X129027386Y-40682418D01*
X129038000Y-40563037D01*
X129037999Y-39446964D01*
X129027386Y-39327582D01*
X128971409Y-39131951D01*
X128877198Y-38951593D01*
X128825184Y-38887803D01*
X128748609Y-38793890D01*
X128590909Y-38665304D01*
X128590910Y-38665304D01*
X128590907Y-38665302D01*
X128410549Y-38571091D01*
X128410548Y-38571090D01*
X128410545Y-38571089D01*
X128293329Y-38537550D01*
X128214918Y-38515114D01*
X128214915Y-38515113D01*
X128214913Y-38515113D01*
X128148602Y-38509217D01*
X128095537Y-38504500D01*
X128095532Y-38504500D01*
X126229471Y-38504500D01*
X126229465Y-38504500D01*
X126229464Y-38504501D01*
X126217816Y-38505536D01*
X126110084Y-38515113D01*
X125914454Y-38571089D01*
X125824272Y-38618196D01*
X125734093Y-38665302D01*
X125734091Y-38665303D01*
X125734090Y-38665304D01*
X125576390Y-38793890D01*
X125447804Y-38951590D01*
X125353589Y-39131954D01*
X125297614Y-39327583D01*
X125297613Y-39327586D01*
X125287000Y-39446966D01*
X112872999Y-39446966D01*
X112872999Y-39446964D01*
X112862386Y-39327582D01*
X112806409Y-39131951D01*
X112712198Y-38951593D01*
X112660184Y-38887803D01*
X112583609Y-38793890D01*
X112425909Y-38665304D01*
X112425910Y-38665304D01*
X112425907Y-38665302D01*
X112245549Y-38571091D01*
X112245548Y-38571090D01*
X112245545Y-38571089D01*
X112128329Y-38537550D01*
X112049918Y-38515114D01*
X112049915Y-38515113D01*
X112049913Y-38515113D01*
X111983602Y-38509217D01*
X111930537Y-38504500D01*
X111930532Y-38504500D01*
X110064471Y-38504500D01*
X110064465Y-38504500D01*
X110064464Y-38504501D01*
X110052816Y-38505536D01*
X109945084Y-38515113D01*
X109749454Y-38571089D01*
X109659272Y-38618196D01*
X109569093Y-38665302D01*
X109569091Y-38665303D01*
X109569090Y-38665304D01*
X109411390Y-38793890D01*
X109282804Y-38951590D01*
X109188589Y-39131954D01*
X109132614Y-39327583D01*
X109132613Y-39327586D01*
X109122000Y-39446966D01*
X109122000Y-40563028D01*
X109122001Y-40563034D01*
X109132613Y-40682415D01*
X109188589Y-40878045D01*
X109188590Y-40878048D01*
X109188591Y-40878049D01*
X109282802Y-41058407D01*
X109282804Y-41058409D01*
X109395515Y-41196639D01*
X109422624Y-41261036D01*
X109410615Y-41329865D01*
X109395515Y-41353361D01*
X109382356Y-41369500D01*
X109282802Y-41491593D01*
X109250996Y-41552482D01*
X109188589Y-41671954D01*
X109132614Y-41867583D01*
X109132613Y-41867586D01*
X109125686Y-41945500D01*
X109123020Y-41975498D01*
X109122000Y-41986966D01*
X109122000Y-43103028D01*
X109122001Y-43103034D01*
X109132613Y-43222415D01*
X109188589Y-43418045D01*
X109188590Y-43418048D01*
X109188591Y-43418049D01*
X109282802Y-43598407D01*
X109282804Y-43598409D01*
X109395515Y-43736639D01*
X109422624Y-43801036D01*
X109410615Y-43869865D01*
X109395515Y-43893361D01*
X109282804Y-44031590D01*
X109188589Y-44211954D01*
X109152996Y-44336347D01*
X109136325Y-44394612D01*
X109098959Y-44453649D01*
X109035605Y-44483113D01*
X109017110Y-44484500D01*
X60121670Y-44484500D01*
X60121654Y-44484499D01*
X60114058Y-44484499D01*
X59955943Y-44484499D01*
X59803215Y-44525423D01*
X59803213Y-44525423D01*
X59803213Y-44525424D01*
X59666281Y-44604482D01*
X52859481Y-51411282D01*
X52859479Y-51411285D01*
X52845788Y-51435000D01*
X52820811Y-51478261D01*
X52780423Y-51548215D01*
X52739499Y-51700943D01*
X52739499Y-51700945D01*
X52739499Y-51869046D01*
X52739500Y-51869059D01*
X52739500Y-52878363D01*
X52719815Y-52945402D01*
X52669302Y-52990083D01*
X52462300Y-53089769D01*
X52245520Y-53237567D01*
X52053198Y-53416014D01*
X51889614Y-53621143D01*
X51758432Y-53848356D01*
X51662582Y-54092578D01*
X51662576Y-54092597D01*
X51604197Y-54348374D01*
X51604196Y-54348379D01*
X51584592Y-54609995D01*
X51584592Y-54610004D01*
X51604196Y-54871620D01*
X51604197Y-54871625D01*
X51662576Y-55127402D01*
X51662578Y-55127411D01*
X51662580Y-55127416D01*
X51758432Y-55371643D01*
X51889614Y-55598857D01*
X51940733Y-55662958D01*
X52053197Y-55803984D01*
X52059377Y-55809717D01*
X52095133Y-55869744D01*
X52092760Y-55939574D01*
X52053011Y-55997035D01*
X51988506Y-56023884D01*
X51984788Y-56024234D01*
X51981428Y-56024498D01*
X51806443Y-56052214D01*
X51637960Y-56106956D01*
X51637957Y-56106957D01*
X51480109Y-56187386D01*
X51402104Y-56244061D01*
X51336786Y-56291517D01*
X51336784Y-56291519D01*
X51336783Y-56291519D01*
X51211519Y-56416783D01*
X51211519Y-56416784D01*
X51211517Y-56416786D01*
X51182947Y-56456109D01*
X51107386Y-56560109D01*
X51026957Y-56717957D01*
X51026956Y-56717960D01*
X50972214Y-56886443D01*
X50944500Y-57061421D01*
X43363000Y-57061421D01*
X43363000Y-38011421D01*
X50944500Y-38011421D01*
X50944500Y-38188578D01*
X50972214Y-38363556D01*
X51026956Y-38532039D01*
X51026957Y-38532042D01*
X51094858Y-38665302D01*
X51107386Y-38689890D01*
X51211517Y-38833214D01*
X51336786Y-38958483D01*
X51480110Y-39062614D01*
X51548577Y-39097500D01*
X51637957Y-39143042D01*
X51637960Y-39143043D01*
X51722201Y-39170414D01*
X51806445Y-39197786D01*
X51981421Y-39225500D01*
X51981422Y-39225500D01*
X52158578Y-39225500D01*
X52158579Y-39225500D01*
X52333555Y-39197786D01*
X52502042Y-39143042D01*
X52659890Y-39062614D01*
X52803214Y-38958483D01*
X52928483Y-38833214D01*
X53032614Y-38689890D01*
X53113042Y-38532042D01*
X53167786Y-38363555D01*
X53195500Y-38188579D01*
X53195500Y-38011421D01*
X53186165Y-37952486D01*
X54899500Y-37952486D01*
X54899500Y-38247513D01*
X54914778Y-38363555D01*
X54938007Y-38539993D01*
X55014361Y-38824951D01*
X55014364Y-38824961D01*
X55127254Y-39097500D01*
X55127258Y-39097510D01*
X55274761Y-39352993D01*
X55454352Y-39587040D01*
X55454358Y-39587047D01*
X55662952Y-39795641D01*
X55662959Y-39795647D01*
X55897006Y-39975238D01*
X56152489Y-40122741D01*
X56152490Y-40122741D01*
X56152493Y-40122743D01*
X56425048Y-40235639D01*
X56710007Y-40311993D01*
X57002494Y-40350500D01*
X57002501Y-40350500D01*
X57297499Y-40350500D01*
X57297506Y-40350500D01*
X57589993Y-40311993D01*
X57874952Y-40235639D01*
X58147507Y-40122743D01*
X58402994Y-39975238D01*
X58635102Y-39797135D01*
X65374500Y-39797135D01*
X65374500Y-41492870D01*
X65374501Y-41492876D01*
X65380908Y-41552483D01*
X65431202Y-41687328D01*
X65431206Y-41687335D01*
X65517452Y-41802544D01*
X65517455Y-41802547D01*
X65632664Y-41888793D01*
X65632671Y-41888797D01*
X65767517Y-41939091D01*
X65767516Y-41939091D01*
X65774444Y-41939835D01*
X65827127Y-41945500D01*
X67522872Y-41945499D01*
X67582483Y-41939091D01*
X67717331Y-41888796D01*
X67832546Y-41802546D01*
X67918796Y-41687331D01*
X67969091Y-41552483D01*
X67975500Y-41492873D01*
X67975500Y-41369500D01*
X67995185Y-41302461D01*
X68047989Y-41256706D01*
X68099500Y-41245500D01*
X84300501Y-41245500D01*
X84367540Y-41265185D01*
X84413295Y-41317989D01*
X84424501Y-41369500D01*
X84424501Y-41522876D01*
X84430908Y-41582483D01*
X84481202Y-41717328D01*
X84481206Y-41717335D01*
X84567452Y-41832544D01*
X84567455Y-41832547D01*
X84682664Y-41918793D01*
X84682671Y-41918797D01*
X84817517Y-41969091D01*
X84817516Y-41969091D01*
X84824444Y-41969835D01*
X84877127Y-41975500D01*
X86572872Y-41975499D01*
X86632483Y-41969091D01*
X86767331Y-41918796D01*
X86882546Y-41832546D01*
X86968796Y-41717331D01*
X87019091Y-41582483D01*
X87025500Y-41522873D01*
X87025500Y-41369500D01*
X87045185Y-41302461D01*
X87097989Y-41256706D01*
X87149500Y-41245500D01*
X103360501Y-41245500D01*
X103427540Y-41265185D01*
X103473295Y-41317989D01*
X103484501Y-41369500D01*
X103484501Y-41502876D01*
X103490908Y-41562483D01*
X103541202Y-41697328D01*
X103541206Y-41697335D01*
X103627452Y-41812544D01*
X103627455Y-41812547D01*
X103742664Y-41898793D01*
X103742671Y-41898797D01*
X103877517Y-41949091D01*
X103877516Y-41949091D01*
X103884444Y-41949835D01*
X103937127Y-41955500D01*
X105632872Y-41955499D01*
X105692483Y-41949091D01*
X105827331Y-41898796D01*
X105942546Y-41812546D01*
X106028796Y-41697331D01*
X106079091Y-41562483D01*
X106085500Y-41502873D01*
X106085499Y-39807128D01*
X106079091Y-39747517D01*
X106075361Y-39737517D01*
X106028797Y-39612671D01*
X106028793Y-39612664D01*
X105942547Y-39497455D01*
X105942544Y-39497452D01*
X105827335Y-39411206D01*
X105827328Y-39411202D01*
X105692482Y-39360908D01*
X105692483Y-39360908D01*
X105632883Y-39354501D01*
X105632881Y-39354500D01*
X105632873Y-39354500D01*
X105632864Y-39354500D01*
X103937129Y-39354500D01*
X103937123Y-39354501D01*
X103877516Y-39360908D01*
X103742671Y-39411202D01*
X103742664Y-39411206D01*
X103627455Y-39497452D01*
X103627452Y-39497455D01*
X103541206Y-39612664D01*
X103541202Y-39612671D01*
X103490908Y-39747517D01*
X103485575Y-39797127D01*
X103484501Y-39807123D01*
X103484500Y-39807135D01*
X103484500Y-39920500D01*
X103464815Y-39987539D01*
X103412011Y-40033294D01*
X103360500Y-40044500D01*
X96778022Y-40044500D01*
X96710983Y-40024815D01*
X96665228Y-39972011D01*
X96655284Y-39902853D01*
X96684309Y-39839297D01*
X96702535Y-39822124D01*
X96737042Y-39795646D01*
X96945646Y-39587042D01*
X97125238Y-39352994D01*
X97272743Y-39097507D01*
X97385639Y-38824952D01*
X97461993Y-38539993D01*
X97500500Y-38247506D01*
X97500500Y-38011421D01*
X99204500Y-38011421D01*
X99204500Y-38188578D01*
X99232214Y-38363556D01*
X99286956Y-38532039D01*
X99286957Y-38532042D01*
X99354858Y-38665302D01*
X99367386Y-38689890D01*
X99471517Y-38833214D01*
X99596786Y-38958483D01*
X99740110Y-39062614D01*
X99808577Y-39097500D01*
X99897957Y-39143042D01*
X99897960Y-39143043D01*
X99982201Y-39170414D01*
X100066445Y-39197786D01*
X100241421Y-39225500D01*
X100241422Y-39225500D01*
X100418578Y-39225500D01*
X100418579Y-39225500D01*
X100593555Y-39197786D01*
X100762042Y-39143042D01*
X100919890Y-39062614D01*
X101063214Y-38958483D01*
X101188483Y-38833214D01*
X101292614Y-38689890D01*
X101373042Y-38532042D01*
X101427786Y-38363555D01*
X101455500Y-38188579D01*
X101455500Y-38011421D01*
X101427786Y-37836445D01*
X101373042Y-37667958D01*
X101373042Y-37667957D01*
X101292613Y-37510109D01*
X101282201Y-37495778D01*
X101188483Y-37366786D01*
X101063214Y-37241517D01*
X100919890Y-37137386D01*
X100762042Y-37056957D01*
X100762039Y-37056956D01*
X100593556Y-37002214D01*
X100506067Y-36988357D01*
X100418579Y-36974500D01*
X100241421Y-36974500D01*
X100183095Y-36983738D01*
X100066443Y-37002214D01*
X99897960Y-37056956D01*
X99897957Y-37056957D01*
X99740109Y-37137386D01*
X99662104Y-37194061D01*
X99596786Y-37241517D01*
X99596784Y-37241519D01*
X99596783Y-37241519D01*
X99471519Y-37366783D01*
X99471519Y-37366784D01*
X99471517Y-37366786D01*
X99426796Y-37428338D01*
X99367386Y-37510109D01*
X99286957Y-37667957D01*
X99286956Y-37667960D01*
X99232214Y-37836443D01*
X99204500Y-38011421D01*
X97500500Y-38011421D01*
X97500500Y-37952494D01*
X97461993Y-37660007D01*
X97385639Y-37375048D01*
X97272743Y-37102493D01*
X97259888Y-37080228D01*
X97125238Y-36847006D01*
X96945647Y-36612959D01*
X96945641Y-36612952D01*
X96737047Y-36404358D01*
X96737040Y-36404352D01*
X96502993Y-36224761D01*
X96247510Y-36077258D01*
X96247500Y-36077254D01*
X95974961Y-35964364D01*
X95974954Y-35964362D01*
X95974952Y-35964361D01*
X95689993Y-35888007D01*
X95641113Y-35881571D01*
X95397513Y-35849500D01*
X95397506Y-35849500D01*
X95102494Y-35849500D01*
X95102486Y-35849500D01*
X94824085Y-35886153D01*
X94810007Y-35888007D01*
X94525048Y-35964361D01*
X94525038Y-35964364D01*
X94252499Y-36077254D01*
X94252489Y-36077258D01*
X93997006Y-36224761D01*
X93762959Y-36404352D01*
X93762952Y-36404358D01*
X93554358Y-36612952D01*
X93554352Y-36612959D01*
X93374761Y-36847006D01*
X93227258Y-37102489D01*
X93227254Y-37102499D01*
X93114364Y-37375038D01*
X93114361Y-37375048D01*
X93078172Y-37510110D01*
X93038008Y-37660004D01*
X93038006Y-37660015D01*
X92999500Y-37952486D01*
X92999500Y-38247513D01*
X93014778Y-38363555D01*
X93038007Y-38539993D01*
X93114361Y-38824951D01*
X93114364Y-38824961D01*
X93227254Y-39097500D01*
X93227258Y-39097510D01*
X93374761Y-39352993D01*
X93554352Y-39587040D01*
X93554358Y-39587047D01*
X93762952Y-39795641D01*
X93762956Y-39795644D01*
X93762958Y-39795646D01*
X93777922Y-39807128D01*
X93797465Y-39822124D01*
X93838667Y-39878552D01*
X93842822Y-39948298D01*
X93808610Y-40009218D01*
X93746892Y-40041971D01*
X93721978Y-40044500D01*
X87149499Y-40044500D01*
X87082460Y-40024815D01*
X87036705Y-39972011D01*
X87025499Y-39920500D01*
X87025499Y-39827129D01*
X87025498Y-39827123D01*
X87025497Y-39827116D01*
X87019091Y-39767517D01*
X87011631Y-39747517D01*
X86968797Y-39632671D01*
X86968793Y-39632664D01*
X86882547Y-39517455D01*
X86882544Y-39517452D01*
X86767335Y-39431206D01*
X86767328Y-39431202D01*
X86632482Y-39380908D01*
X86632483Y-39380908D01*
X86572883Y-39374501D01*
X86572881Y-39374500D01*
X86572873Y-39374500D01*
X86572864Y-39374500D01*
X84877129Y-39374500D01*
X84877123Y-39374501D01*
X84817516Y-39380908D01*
X84682671Y-39431202D01*
X84682664Y-39431206D01*
X84567455Y-39517452D01*
X84567452Y-39517455D01*
X84481206Y-39632664D01*
X84481202Y-39632671D01*
X84430908Y-39767517D01*
X84426650Y-39807127D01*
X84424501Y-39827123D01*
X84424500Y-39827135D01*
X84424500Y-39920500D01*
X84404815Y-39987539D01*
X84352011Y-40033294D01*
X84300500Y-40044500D01*
X77728022Y-40044500D01*
X77660983Y-40024815D01*
X77615228Y-39972011D01*
X77605284Y-39902853D01*
X77634309Y-39839297D01*
X77652535Y-39822124D01*
X77687042Y-39795646D01*
X77895646Y-39587042D01*
X78075238Y-39352994D01*
X78222743Y-39097507D01*
X78335639Y-38824952D01*
X78411993Y-38539993D01*
X78450500Y-38247506D01*
X78450500Y-38011421D01*
X80154500Y-38011421D01*
X80154500Y-38188578D01*
X80182214Y-38363556D01*
X80236956Y-38532039D01*
X80236957Y-38532042D01*
X80304858Y-38665302D01*
X80317386Y-38689890D01*
X80421517Y-38833214D01*
X80546786Y-38958483D01*
X80690110Y-39062614D01*
X80758577Y-39097500D01*
X80847957Y-39143042D01*
X80847960Y-39143043D01*
X80932201Y-39170414D01*
X81016445Y-39197786D01*
X81191421Y-39225500D01*
X81191422Y-39225500D01*
X81368578Y-39225500D01*
X81368579Y-39225500D01*
X81543555Y-39197786D01*
X81712042Y-39143042D01*
X81869890Y-39062614D01*
X82013214Y-38958483D01*
X82138483Y-38833214D01*
X82242614Y-38689890D01*
X82323042Y-38532042D01*
X82377786Y-38363555D01*
X82405500Y-38188579D01*
X82405500Y-38011421D01*
X89044500Y-38011421D01*
X89044500Y-38188578D01*
X89072214Y-38363556D01*
X89126956Y-38532039D01*
X89126957Y-38532042D01*
X89194858Y-38665302D01*
X89207386Y-38689890D01*
X89311517Y-38833214D01*
X89436786Y-38958483D01*
X89580110Y-39062614D01*
X89648577Y-39097500D01*
X89737957Y-39143042D01*
X89737960Y-39143043D01*
X89822201Y-39170414D01*
X89906445Y-39197786D01*
X90081421Y-39225500D01*
X90081422Y-39225500D01*
X90258578Y-39225500D01*
X90258579Y-39225500D01*
X90433555Y-39197786D01*
X90602042Y-39143042D01*
X90759890Y-39062614D01*
X90903214Y-38958483D01*
X91028483Y-38833214D01*
X91132614Y-38689890D01*
X91213042Y-38532042D01*
X91267786Y-38363555D01*
X91295500Y-38188579D01*
X91295500Y-38011421D01*
X91267786Y-37836445D01*
X91213042Y-37667958D01*
X91213042Y-37667957D01*
X91185190Y-37613295D01*
X91132614Y-37510110D01*
X91131529Y-37508617D01*
X91122202Y-37495778D01*
X91098722Y-37429972D01*
X91114548Y-37361918D01*
X91164654Y-37313223D01*
X91233132Y-37299348D01*
X91240992Y-37300276D01*
X91308818Y-37310500D01*
X91571182Y-37310500D01*
X91830615Y-37271396D01*
X92081323Y-37194063D01*
X92317704Y-37080228D01*
X92534479Y-36932433D01*
X92726805Y-36753981D01*
X92890386Y-36548857D01*
X93021568Y-36321643D01*
X93117420Y-36077416D01*
X93175802Y-35821630D01*
X93195408Y-35560000D01*
X93175802Y-35298370D01*
X93117420Y-35042584D01*
X93021568Y-34798357D01*
X92890386Y-34571143D01*
X92726805Y-34366019D01*
X92726804Y-34366018D01*
X92726801Y-34366014D01*
X92534479Y-34187567D01*
X92487545Y-34155568D01*
X92317704Y-34039772D01*
X92317700Y-34039770D01*
X92317697Y-34039768D01*
X92317696Y-34039767D01*
X92081325Y-33925938D01*
X92081327Y-33925938D01*
X91830623Y-33848606D01*
X91830619Y-33848605D01*
X91830615Y-33848604D01*
X91705823Y-33829794D01*
X91571187Y-33809500D01*
X91571182Y-33809500D01*
X91308818Y-33809500D01*
X91308812Y-33809500D01*
X91147247Y-33833853D01*
X91049385Y-33848604D01*
X91049382Y-33848605D01*
X91049376Y-33848606D01*
X90798673Y-33925938D01*
X90562303Y-34039767D01*
X90562302Y-34039768D01*
X90345520Y-34187567D01*
X90153198Y-34366014D01*
X89989614Y-34571143D01*
X89858432Y-34798356D01*
X89762582Y-35042578D01*
X89762576Y-35042597D01*
X89704197Y-35298374D01*
X89704196Y-35298379D01*
X89684592Y-35559995D01*
X89684592Y-35560004D01*
X89704196Y-35821620D01*
X89704197Y-35821625D01*
X89762576Y-36077402D01*
X89762578Y-36077411D01*
X89762580Y-36077416D01*
X89858432Y-36321643D01*
X89989614Y-36548857D01*
X90040733Y-36612958D01*
X90153197Y-36753984D01*
X90159377Y-36759717D01*
X90195133Y-36819744D01*
X90192760Y-36889574D01*
X90153011Y-36947035D01*
X90088506Y-36973884D01*
X90084788Y-36974234D01*
X90081428Y-36974498D01*
X89906443Y-37002214D01*
X89737960Y-37056956D01*
X89737957Y-37056957D01*
X89580109Y-37137386D01*
X89502104Y-37194061D01*
X89436786Y-37241517D01*
X89436784Y-37241519D01*
X89436783Y-37241519D01*
X89311519Y-37366783D01*
X89311519Y-37366784D01*
X89311517Y-37366786D01*
X89266796Y-37428338D01*
X89207386Y-37510109D01*
X89126957Y-37667957D01*
X89126956Y-37667960D01*
X89072214Y-37836443D01*
X89044500Y-38011421D01*
X82405500Y-38011421D01*
X82377786Y-37836445D01*
X82323042Y-37667958D01*
X82323042Y-37667957D01*
X82242613Y-37510109D01*
X82232201Y-37495778D01*
X82138483Y-37366786D01*
X82013214Y-37241517D01*
X81869890Y-37137386D01*
X81712042Y-37056957D01*
X81712039Y-37056956D01*
X81543556Y-37002214D01*
X81456067Y-36988357D01*
X81368579Y-36974500D01*
X81191421Y-36974500D01*
X81133095Y-36983738D01*
X81016443Y-37002214D01*
X80847960Y-37056956D01*
X80847957Y-37056957D01*
X80690109Y-37137386D01*
X80612104Y-37194061D01*
X80546786Y-37241517D01*
X80546784Y-37241519D01*
X80546783Y-37241519D01*
X80421519Y-37366783D01*
X80421519Y-37366784D01*
X80421517Y-37366786D01*
X80376796Y-37428338D01*
X80317386Y-37510109D01*
X80236957Y-37667957D01*
X80236956Y-37667960D01*
X80182214Y-37836443D01*
X80154500Y-38011421D01*
X78450500Y-38011421D01*
X78450500Y-37952494D01*
X78411993Y-37660007D01*
X78335639Y-37375048D01*
X78222743Y-37102493D01*
X78209888Y-37080228D01*
X78075238Y-36847006D01*
X77895647Y-36612959D01*
X77895641Y-36612952D01*
X77687047Y-36404358D01*
X77687040Y-36404352D01*
X77452993Y-36224761D01*
X77197510Y-36077258D01*
X77197500Y-36077254D01*
X76924961Y-35964364D01*
X76924954Y-35964362D01*
X76924952Y-35964361D01*
X76639993Y-35888007D01*
X76591113Y-35881571D01*
X76347513Y-35849500D01*
X76347506Y-35849500D01*
X76052494Y-35849500D01*
X76052486Y-35849500D01*
X75774085Y-35886153D01*
X75760007Y-35888007D01*
X75475048Y-35964361D01*
X75475038Y-35964364D01*
X75202499Y-36077254D01*
X75202489Y-36077258D01*
X74947006Y-36224761D01*
X74712959Y-36404352D01*
X74712952Y-36404358D01*
X74504358Y-36612952D01*
X74504352Y-36612959D01*
X74324761Y-36847006D01*
X74177258Y-37102489D01*
X74177254Y-37102499D01*
X74064364Y-37375038D01*
X74064361Y-37375048D01*
X74028172Y-37510110D01*
X73988008Y-37660004D01*
X73988006Y-37660015D01*
X73949500Y-37952486D01*
X73949500Y-38247513D01*
X73964778Y-38363555D01*
X73988007Y-38539993D01*
X74064361Y-38824951D01*
X74064364Y-38824961D01*
X74177254Y-39097500D01*
X74177258Y-39097510D01*
X74324761Y-39352993D01*
X74504352Y-39587040D01*
X74504358Y-39587047D01*
X74712952Y-39795641D01*
X74712956Y-39795644D01*
X74712958Y-39795646D01*
X74727922Y-39807128D01*
X74747465Y-39822124D01*
X74788667Y-39878552D01*
X74792822Y-39948298D01*
X74758610Y-40009218D01*
X74696892Y-40041971D01*
X74671978Y-40044500D01*
X68099499Y-40044500D01*
X68032460Y-40024815D01*
X67986705Y-39972011D01*
X67975499Y-39920500D01*
X67975499Y-39797129D01*
X67975498Y-39797123D01*
X67975497Y-39797116D01*
X67969091Y-39737517D01*
X67929985Y-39632669D01*
X67918797Y-39602671D01*
X67918793Y-39602664D01*
X67832547Y-39487455D01*
X67832544Y-39487452D01*
X67717335Y-39401206D01*
X67717328Y-39401202D01*
X67582482Y-39350908D01*
X67582483Y-39350908D01*
X67522883Y-39344501D01*
X67522881Y-39344500D01*
X67522873Y-39344500D01*
X67522864Y-39344500D01*
X65827129Y-39344500D01*
X65827123Y-39344501D01*
X65767516Y-39350908D01*
X65632671Y-39401202D01*
X65632664Y-39401206D01*
X65517455Y-39487452D01*
X65517452Y-39487455D01*
X65431206Y-39602664D01*
X65431202Y-39602671D01*
X65380908Y-39737517D01*
X65374660Y-39795641D01*
X65374501Y-39797123D01*
X65374500Y-39797135D01*
X58635102Y-39797135D01*
X58637042Y-39795646D01*
X58845646Y-39587042D01*
X59025238Y-39352994D01*
X59172743Y-39097507D01*
X59285639Y-38824952D01*
X59361993Y-38539993D01*
X59400500Y-38247506D01*
X59400500Y-38011421D01*
X61104500Y-38011421D01*
X61104500Y-38188578D01*
X61132214Y-38363556D01*
X61186956Y-38532039D01*
X61186957Y-38532042D01*
X61254858Y-38665302D01*
X61267386Y-38689890D01*
X61371517Y-38833214D01*
X61496786Y-38958483D01*
X61640110Y-39062614D01*
X61708577Y-39097500D01*
X61797957Y-39143042D01*
X61797960Y-39143043D01*
X61882201Y-39170414D01*
X61966445Y-39197786D01*
X62141421Y-39225500D01*
X62141422Y-39225500D01*
X62318578Y-39225500D01*
X62318579Y-39225500D01*
X62493555Y-39197786D01*
X62662042Y-39143042D01*
X62819890Y-39062614D01*
X62963214Y-38958483D01*
X63088483Y-38833214D01*
X63192614Y-38689890D01*
X63273042Y-38532042D01*
X63327786Y-38363555D01*
X63355500Y-38188579D01*
X63355500Y-38011421D01*
X69994500Y-38011421D01*
X69994500Y-38188578D01*
X70022214Y-38363556D01*
X70076956Y-38532039D01*
X70076957Y-38532042D01*
X70144858Y-38665302D01*
X70157386Y-38689890D01*
X70261517Y-38833214D01*
X70386786Y-38958483D01*
X70530110Y-39062614D01*
X70598577Y-39097500D01*
X70687957Y-39143042D01*
X70687960Y-39143043D01*
X70772201Y-39170414D01*
X70856445Y-39197786D01*
X71031421Y-39225500D01*
X71031422Y-39225500D01*
X71208578Y-39225500D01*
X71208579Y-39225500D01*
X71383555Y-39197786D01*
X71552042Y-39143042D01*
X71709890Y-39062614D01*
X71853214Y-38958483D01*
X71978483Y-38833214D01*
X72082614Y-38689890D01*
X72163042Y-38532042D01*
X72217786Y-38363555D01*
X72245500Y-38188579D01*
X72245500Y-38011421D01*
X72217786Y-37836445D01*
X72163042Y-37667958D01*
X72163042Y-37667957D01*
X72135190Y-37613295D01*
X72082614Y-37510110D01*
X72081529Y-37508617D01*
X72072202Y-37495778D01*
X72048722Y-37429972D01*
X72064548Y-37361918D01*
X72114654Y-37313223D01*
X72183132Y-37299348D01*
X72190992Y-37300276D01*
X72258818Y-37310500D01*
X72521182Y-37310500D01*
X72780615Y-37271396D01*
X73031323Y-37194063D01*
X73267704Y-37080228D01*
X73484479Y-36932433D01*
X73676805Y-36753981D01*
X73840386Y-36548857D01*
X73971568Y-36321643D01*
X74067420Y-36077416D01*
X74125802Y-35821630D01*
X74145408Y-35560000D01*
X74125802Y-35298370D01*
X74067420Y-35042584D01*
X73971568Y-34798357D01*
X73840386Y-34571143D01*
X73676805Y-34366019D01*
X73676804Y-34366018D01*
X73676801Y-34366014D01*
X73484479Y-34187567D01*
X73437545Y-34155568D01*
X73267704Y-34039772D01*
X73267700Y-34039770D01*
X73267697Y-34039768D01*
X73267696Y-34039767D01*
X73031325Y-33925938D01*
X73031327Y-33925938D01*
X72780623Y-33848606D01*
X72780619Y-33848605D01*
X72780615Y-33848604D01*
X72655823Y-33829794D01*
X72521187Y-33809500D01*
X72521182Y-33809500D01*
X72258818Y-33809500D01*
X72258812Y-33809500D01*
X72097247Y-33833853D01*
X71999385Y-33848604D01*
X71999382Y-33848605D01*
X71999376Y-33848606D01*
X71748673Y-33925938D01*
X71512303Y-34039767D01*
X71512302Y-34039768D01*
X71295520Y-34187567D01*
X71103198Y-34366014D01*
X70939614Y-34571143D01*
X70808432Y-34798356D01*
X70712582Y-35042578D01*
X70712576Y-35042597D01*
X70654197Y-35298374D01*
X70654196Y-35298379D01*
X70634592Y-35559995D01*
X70634592Y-35560004D01*
X70654196Y-35821620D01*
X70654197Y-35821625D01*
X70712576Y-36077402D01*
X70712578Y-36077411D01*
X70712580Y-36077416D01*
X70808432Y-36321643D01*
X70939614Y-36548857D01*
X70990733Y-36612958D01*
X71103197Y-36753984D01*
X71109377Y-36759717D01*
X71145133Y-36819744D01*
X71142760Y-36889574D01*
X71103011Y-36947035D01*
X71038506Y-36973884D01*
X71034788Y-36974234D01*
X71031428Y-36974498D01*
X70856443Y-37002214D01*
X70687960Y-37056956D01*
X70687957Y-37056957D01*
X70530109Y-37137386D01*
X70452104Y-37194061D01*
X70386786Y-37241517D01*
X70386784Y-37241519D01*
X70386783Y-37241519D01*
X70261519Y-37366783D01*
X70261519Y-37366784D01*
X70261517Y-37366786D01*
X70216796Y-37428338D01*
X70157386Y-37510109D01*
X70076957Y-37667957D01*
X70076956Y-37667960D01*
X70022214Y-37836443D01*
X69994500Y-38011421D01*
X63355500Y-38011421D01*
X63327786Y-37836445D01*
X63273042Y-37667958D01*
X63273042Y-37667957D01*
X63192613Y-37510109D01*
X63182201Y-37495778D01*
X63088483Y-37366786D01*
X62963214Y-37241517D01*
X62819890Y-37137386D01*
X62662042Y-37056957D01*
X62662039Y-37056956D01*
X62493556Y-37002214D01*
X62406067Y-36988357D01*
X62318579Y-36974500D01*
X62141421Y-36974500D01*
X62083095Y-36983738D01*
X61966443Y-37002214D01*
X61797960Y-37056956D01*
X61797957Y-37056957D01*
X61640109Y-37137386D01*
X61562104Y-37194061D01*
X61496786Y-37241517D01*
X61496784Y-37241519D01*
X61496783Y-37241519D01*
X61371519Y-37366783D01*
X61371519Y-37366784D01*
X61371517Y-37366786D01*
X61326796Y-37428338D01*
X61267386Y-37510109D01*
X61186957Y-37667957D01*
X61186956Y-37667960D01*
X61132214Y-37836443D01*
X61104500Y-38011421D01*
X59400500Y-38011421D01*
X59400500Y-37952494D01*
X59361993Y-37660007D01*
X59285639Y-37375048D01*
X59172743Y-37102493D01*
X59159888Y-37080228D01*
X59025238Y-36847006D01*
X58845647Y-36612959D01*
X58845641Y-36612952D01*
X58637047Y-36404358D01*
X58637040Y-36404352D01*
X58402993Y-36224761D01*
X58147510Y-36077258D01*
X58147500Y-36077254D01*
X57874961Y-35964364D01*
X57874954Y-35964362D01*
X57874952Y-35964361D01*
X57589993Y-35888007D01*
X57541113Y-35881571D01*
X57297513Y-35849500D01*
X57297506Y-35849500D01*
X57002494Y-35849500D01*
X57002486Y-35849500D01*
X56724085Y-35886153D01*
X56710007Y-35888007D01*
X56425048Y-35964361D01*
X56425038Y-35964364D01*
X56152499Y-36077254D01*
X56152489Y-36077258D01*
X55897006Y-36224761D01*
X55662959Y-36404352D01*
X55662952Y-36404358D01*
X55454358Y-36612952D01*
X55454352Y-36612959D01*
X55274761Y-36847006D01*
X55127258Y-37102489D01*
X55127254Y-37102499D01*
X55014364Y-37375038D01*
X55014361Y-37375048D01*
X54978172Y-37510110D01*
X54938008Y-37660004D01*
X54938006Y-37660015D01*
X54899500Y-37952486D01*
X53186165Y-37952486D01*
X53167786Y-37836445D01*
X53113042Y-37667958D01*
X53113042Y-37667957D01*
X53085190Y-37613295D01*
X53032614Y-37510110D01*
X53031529Y-37508617D01*
X53022202Y-37495778D01*
X52998722Y-37429972D01*
X53014548Y-37361918D01*
X53064654Y-37313223D01*
X53133132Y-37299348D01*
X53140992Y-37300276D01*
X53208818Y-37310500D01*
X53471182Y-37310500D01*
X53730615Y-37271396D01*
X53981323Y-37194063D01*
X54217704Y-37080228D01*
X54434479Y-36932433D01*
X54626805Y-36753981D01*
X54790386Y-36548857D01*
X54921568Y-36321643D01*
X55017420Y-36077416D01*
X55075802Y-35821630D01*
X55095408Y-35560000D01*
X55075802Y-35298370D01*
X55017420Y-35042584D01*
X54921568Y-34798357D01*
X54790386Y-34571143D01*
X54626805Y-34366019D01*
X54626804Y-34366018D01*
X54626801Y-34366014D01*
X54434479Y-34187567D01*
X54387545Y-34155568D01*
X54217704Y-34039772D01*
X54217700Y-34039770D01*
X54217697Y-34039768D01*
X54217696Y-34039767D01*
X53981325Y-33925938D01*
X53981327Y-33925938D01*
X53730623Y-33848606D01*
X53730619Y-33848605D01*
X53730615Y-33848604D01*
X53605823Y-33829794D01*
X53471187Y-33809500D01*
X53471182Y-33809500D01*
X53208818Y-33809500D01*
X53208812Y-33809500D01*
X53047247Y-33833853D01*
X52949385Y-33848604D01*
X52949382Y-33848605D01*
X52949376Y-33848606D01*
X52698673Y-33925938D01*
X52462303Y-34039767D01*
X52462302Y-34039768D01*
X52245520Y-34187567D01*
X52053198Y-34366014D01*
X51889614Y-34571143D01*
X51758432Y-34798356D01*
X51662582Y-35042578D01*
X51662576Y-35042597D01*
X51604197Y-35298374D01*
X51604196Y-35298379D01*
X51584592Y-35559995D01*
X51584592Y-35560004D01*
X51604196Y-35821620D01*
X51604197Y-35821625D01*
X51662576Y-36077402D01*
X51662578Y-36077411D01*
X51662580Y-36077416D01*
X51758432Y-36321643D01*
X51889614Y-36548857D01*
X51940733Y-36612958D01*
X52053197Y-36753984D01*
X52059377Y-36759717D01*
X52095133Y-36819744D01*
X52092760Y-36889574D01*
X52053011Y-36947035D01*
X51988506Y-36973884D01*
X51984788Y-36974234D01*
X51981428Y-36974498D01*
X51806443Y-37002214D01*
X51637960Y-37056956D01*
X51637957Y-37056957D01*
X51480109Y-37137386D01*
X51402104Y-37194061D01*
X51336786Y-37241517D01*
X51336784Y-37241519D01*
X51336783Y-37241519D01*
X51211519Y-37366783D01*
X51211519Y-37366784D01*
X51211517Y-37366786D01*
X51166796Y-37428338D01*
X51107386Y-37510109D01*
X51026957Y-37667957D01*
X51026956Y-37667960D01*
X50972214Y-37836443D01*
X50944500Y-38011421D01*
X43363000Y-38011421D01*
X43363000Y-33019995D01*
X57934592Y-33019995D01*
X57934592Y-33020004D01*
X57954196Y-33281620D01*
X57954197Y-33281625D01*
X58012576Y-33537402D01*
X58012578Y-33537411D01*
X58012580Y-33537416D01*
X58108432Y-33781643D01*
X58239614Y-34008857D01*
X58356611Y-34155567D01*
X58403198Y-34213985D01*
X58539696Y-34340635D01*
X58595521Y-34392433D01*
X58812296Y-34540228D01*
X58812301Y-34540230D01*
X58812302Y-34540231D01*
X58812303Y-34540232D01*
X58937843Y-34600688D01*
X59048673Y-34654061D01*
X59048674Y-34654061D01*
X59048677Y-34654063D01*
X59299385Y-34731396D01*
X59558818Y-34770500D01*
X59821182Y-34770500D01*
X60080615Y-34731396D01*
X60331323Y-34654063D01*
X60567704Y-34540228D01*
X60784479Y-34392433D01*
X60976805Y-34213981D01*
X61140386Y-34008857D01*
X61271568Y-33781643D01*
X61303926Y-33699194D01*
X61346740Y-33643984D01*
X61412610Y-33620683D01*
X61419353Y-33620500D01*
X65439807Y-33620500D01*
X65506846Y-33640185D01*
X65541382Y-33673377D01*
X65544430Y-33677730D01*
X65544432Y-33677734D01*
X65629511Y-33799240D01*
X65674954Y-33864141D01*
X65835858Y-34025045D01*
X65856885Y-34039768D01*
X66022266Y-34155568D01*
X66228504Y-34251739D01*
X66448308Y-34310635D01*
X66610230Y-34324801D01*
X66674998Y-34330468D01*
X66675000Y-34330468D01*
X66675002Y-34330468D01*
X66731673Y-34325509D01*
X66901692Y-34310635D01*
X67121496Y-34251739D01*
X67327734Y-34155568D01*
X67514139Y-34025047D01*
X67675047Y-33864139D01*
X67805568Y-33677734D01*
X67901739Y-33471496D01*
X67960635Y-33251692D01*
X67980468Y-33025000D01*
X67980030Y-33019995D01*
X76984592Y-33019995D01*
X76984592Y-33020004D01*
X77004196Y-33281620D01*
X77004197Y-33281625D01*
X77062576Y-33537402D01*
X77062578Y-33537411D01*
X77062580Y-33537416D01*
X77158432Y-33781643D01*
X77289614Y-34008857D01*
X77406611Y-34155567D01*
X77453198Y-34213985D01*
X77589696Y-34340635D01*
X77645521Y-34392433D01*
X77862296Y-34540228D01*
X77862301Y-34540230D01*
X77862302Y-34540231D01*
X77862303Y-34540232D01*
X77987843Y-34600688D01*
X78098673Y-34654061D01*
X78098674Y-34654061D01*
X78098677Y-34654063D01*
X78349385Y-34731396D01*
X78608818Y-34770500D01*
X78871182Y-34770500D01*
X79130615Y-34731396D01*
X79381323Y-34654063D01*
X79617704Y-34540228D01*
X79834479Y-34392433D01*
X80026805Y-34213981D01*
X80190386Y-34008857D01*
X80321568Y-33781643D01*
X80353926Y-33699194D01*
X80396740Y-33643984D01*
X80462610Y-33620683D01*
X80469353Y-33620500D01*
X84474758Y-33620500D01*
X84541797Y-33640185D01*
X84587139Y-33692095D01*
X84594432Y-33707733D01*
X84594432Y-33707734D01*
X84724954Y-33894141D01*
X84885858Y-34055045D01*
X84885861Y-34055047D01*
X85072266Y-34185568D01*
X85278504Y-34281739D01*
X85498308Y-34340635D01*
X85660230Y-34354801D01*
X85724998Y-34360468D01*
X85725000Y-34360468D01*
X85725002Y-34360468D01*
X85781673Y-34355509D01*
X85951692Y-34340635D01*
X86171496Y-34281739D01*
X86377734Y-34185568D01*
X86564139Y-34055047D01*
X86725047Y-33894139D01*
X86855568Y-33707734D01*
X86951739Y-33501496D01*
X87010635Y-33281692D01*
X87030468Y-33055000D01*
X87027843Y-33025001D01*
X87027405Y-33019995D01*
X96034592Y-33019995D01*
X96034592Y-33020004D01*
X96054196Y-33281620D01*
X96054197Y-33281625D01*
X96112576Y-33537402D01*
X96112578Y-33537411D01*
X96112580Y-33537416D01*
X96208432Y-33781643D01*
X96339614Y-34008857D01*
X96456611Y-34155567D01*
X96503198Y-34213985D01*
X96639696Y-34340635D01*
X96695521Y-34392433D01*
X96912296Y-34540228D01*
X96912301Y-34540230D01*
X96912302Y-34540231D01*
X96912303Y-34540232D01*
X97037843Y-34600688D01*
X97148673Y-34654061D01*
X97148674Y-34654061D01*
X97148677Y-34654063D01*
X97399385Y-34731396D01*
X97658818Y-34770500D01*
X97921182Y-34770500D01*
X98180615Y-34731396D01*
X98431323Y-34654063D01*
X98667704Y-34540228D01*
X98884479Y-34392433D01*
X99076805Y-34213981D01*
X99240386Y-34008857D01*
X99371568Y-33781643D01*
X99403926Y-33699194D01*
X99446740Y-33643984D01*
X99512610Y-33620683D01*
X99519353Y-33620500D01*
X103544083Y-33620500D01*
X103611122Y-33640185D01*
X103649631Y-33684245D01*
X103651721Y-33683039D01*
X103654430Y-33687731D01*
X103784954Y-33874141D01*
X103945858Y-34035045D01*
X103945861Y-34035047D01*
X104132266Y-34165568D01*
X104338504Y-34261739D01*
X104558308Y-34320635D01*
X104720230Y-34334801D01*
X104784998Y-34340468D01*
X104785000Y-34340468D01*
X104785002Y-34340468D01*
X104841673Y-34335509D01*
X105011692Y-34320635D01*
X105231496Y-34261739D01*
X105437734Y-34165568D01*
X105624139Y-34035047D01*
X105785047Y-33874139D01*
X105915568Y-33687734D01*
X106011739Y-33481496D01*
X106070635Y-33261692D01*
X106090468Y-33035000D01*
X106070635Y-32808308D01*
X106011739Y-32588504D01*
X105915568Y-32382266D01*
X105785047Y-32195861D01*
X105785045Y-32195858D01*
X105624141Y-32034954D01*
X105437734Y-31904432D01*
X105437732Y-31904431D01*
X105231497Y-31808261D01*
X105231488Y-31808258D01*
X105011697Y-31749366D01*
X105011693Y-31749365D01*
X105011692Y-31749365D01*
X105011691Y-31749364D01*
X105011686Y-31749364D01*
X104785002Y-31729532D01*
X104784998Y-31729532D01*
X104558313Y-31749364D01*
X104558302Y-31749366D01*
X104338511Y-31808258D01*
X104338502Y-31808261D01*
X104132267Y-31904431D01*
X104132265Y-31904432D01*
X103945858Y-32034954D01*
X103784954Y-32195858D01*
X103665385Y-32366623D01*
X103610809Y-32410248D01*
X103563810Y-32419500D01*
X99519353Y-32419500D01*
X99452314Y-32399815D01*
X99406559Y-32347011D01*
X99403941Y-32340842D01*
X99371568Y-32258357D01*
X99240386Y-32031143D01*
X99076805Y-31826019D01*
X99076804Y-31826018D01*
X99076801Y-31826014D01*
X98884479Y-31647567D01*
X98667704Y-31499772D01*
X98667700Y-31499770D01*
X98667697Y-31499768D01*
X98667696Y-31499767D01*
X98431325Y-31385938D01*
X98431327Y-31385938D01*
X98180623Y-31308606D01*
X98180619Y-31308605D01*
X98180615Y-31308604D01*
X98055823Y-31289794D01*
X97921187Y-31269500D01*
X97921182Y-31269500D01*
X97658818Y-31269500D01*
X97658812Y-31269500D01*
X97497247Y-31293853D01*
X97399385Y-31308604D01*
X97399382Y-31308605D01*
X97399376Y-31308606D01*
X97148673Y-31385938D01*
X96912303Y-31499767D01*
X96912302Y-31499768D01*
X96695520Y-31647567D01*
X96503198Y-31826014D01*
X96339614Y-32031143D01*
X96208432Y-32258356D01*
X96112582Y-32502578D01*
X96112576Y-32502597D01*
X96054197Y-32758374D01*
X96054196Y-32758379D01*
X96034592Y-33019995D01*
X87027405Y-33019995D01*
X87010635Y-32828313D01*
X87010635Y-32828308D01*
X86951739Y-32608504D01*
X86855568Y-32402266D01*
X86725047Y-32215861D01*
X86725045Y-32215858D01*
X86564141Y-32054954D01*
X86377734Y-31924432D01*
X86377732Y-31924431D01*
X86171497Y-31828261D01*
X86171488Y-31828258D01*
X85951697Y-31769366D01*
X85951693Y-31769365D01*
X85951692Y-31769365D01*
X85951691Y-31769364D01*
X85951686Y-31769364D01*
X85725002Y-31749532D01*
X85724998Y-31749532D01*
X85498313Y-31769364D01*
X85498302Y-31769366D01*
X85278511Y-31828258D01*
X85278502Y-31828261D01*
X85072267Y-31924431D01*
X85072265Y-31924432D01*
X84885858Y-32054954D01*
X84724954Y-32215858D01*
X84619389Y-32366623D01*
X84564812Y-32410248D01*
X84517814Y-32419500D01*
X80469353Y-32419500D01*
X80402314Y-32399815D01*
X80356559Y-32347011D01*
X80353941Y-32340842D01*
X80321568Y-32258357D01*
X80190386Y-32031143D01*
X80026805Y-31826019D01*
X80026804Y-31826018D01*
X80026801Y-31826014D01*
X79834479Y-31647567D01*
X79617704Y-31499772D01*
X79617700Y-31499770D01*
X79617697Y-31499768D01*
X79617696Y-31499767D01*
X79381325Y-31385938D01*
X79381327Y-31385938D01*
X79130623Y-31308606D01*
X79130619Y-31308605D01*
X79130615Y-31308604D01*
X79005823Y-31289794D01*
X78871187Y-31269500D01*
X78871182Y-31269500D01*
X78608818Y-31269500D01*
X78608812Y-31269500D01*
X78447247Y-31293853D01*
X78349385Y-31308604D01*
X78349382Y-31308605D01*
X78349376Y-31308606D01*
X78098673Y-31385938D01*
X77862303Y-31499767D01*
X77862302Y-31499768D01*
X77645520Y-31647567D01*
X77453198Y-31826014D01*
X77289614Y-32031143D01*
X77158432Y-32258356D01*
X77062582Y-32502578D01*
X77062576Y-32502597D01*
X77004197Y-32758374D01*
X77004196Y-32758379D01*
X76984592Y-33019995D01*
X67980030Y-33019995D01*
X67960635Y-32798308D01*
X67904420Y-32588511D01*
X67901741Y-32578511D01*
X67901738Y-32578502D01*
X67866343Y-32502597D01*
X67805568Y-32372266D01*
X67675047Y-32185861D01*
X67675045Y-32185858D01*
X67514141Y-32024954D01*
X67327734Y-31894432D01*
X67327732Y-31894431D01*
X67121497Y-31798261D01*
X67121488Y-31798258D01*
X66901697Y-31739366D01*
X66901693Y-31739365D01*
X66901692Y-31739365D01*
X66901691Y-31739364D01*
X66901686Y-31739364D01*
X66675002Y-31719532D01*
X66674998Y-31719532D01*
X66448313Y-31739364D01*
X66448302Y-31739366D01*
X66228511Y-31798258D01*
X66228502Y-31798261D01*
X66022267Y-31894431D01*
X66022265Y-31894432D01*
X65835858Y-32024954D01*
X65674954Y-32185858D01*
X65624196Y-32258350D01*
X65548382Y-32366624D01*
X65493808Y-32410248D01*
X65446809Y-32419500D01*
X61419353Y-32419500D01*
X61352314Y-32399815D01*
X61306559Y-32347011D01*
X61303941Y-32340842D01*
X61271568Y-32258357D01*
X61140386Y-32031143D01*
X60976805Y-31826019D01*
X60976804Y-31826018D01*
X60976801Y-31826014D01*
X60784479Y-31647567D01*
X60567704Y-31499772D01*
X60567700Y-31499770D01*
X60567697Y-31499768D01*
X60567696Y-31499767D01*
X60331325Y-31385938D01*
X60331327Y-31385938D01*
X60080623Y-31308606D01*
X60080619Y-31308605D01*
X60080615Y-31308604D01*
X59955823Y-31289794D01*
X59821187Y-31269500D01*
X59821182Y-31269500D01*
X59558818Y-31269500D01*
X59558812Y-31269500D01*
X59397247Y-31293853D01*
X59299385Y-31308604D01*
X59299382Y-31308605D01*
X59299376Y-31308606D01*
X59048673Y-31385938D01*
X58812303Y-31499767D01*
X58812302Y-31499768D01*
X58595520Y-31647567D01*
X58403198Y-31826014D01*
X58239614Y-32031143D01*
X58108432Y-32258356D01*
X58012582Y-32502578D01*
X58012576Y-32502597D01*
X57954197Y-32758374D01*
X57954196Y-32758379D01*
X57934592Y-33019995D01*
X43363000Y-33019995D01*
X43363000Y-28833676D01*
X43382685Y-28766637D01*
X43399319Y-28745995D01*
X47795995Y-24349319D01*
X47857318Y-24315834D01*
X47883676Y-24313000D01*
X128328824Y-24313000D01*
X128395863Y-24332685D01*
G37*
%TD.AperFunction*%
M02*
