<?xml version="1.0" standalone="no"?>
 <!DOCTYPE svg PUBLIC "-//W3C//DTD SVG 1.1//EN" 
 "http://www.w3.org/Graphics/SVG/1.1/DTD/svg11.dtd"> 
<svg
  xmlns:svg="http://www.w3.org/2000/svg"
  xmlns="http://www.w3.org/2000/svg"
  xmlns:xlink="http://www.w3.org/1999/xlink"
  version="1.1"
  width="419.9890mm" height="297.0022mm" viewBox="0.0000 0.0000 419.9890 297.0022">
<title>SVG Image created as Keyboard-Edge_Cuts.svg date 2025/03/11 20:41:48 </title>
  <desc>Image generated by PCBNEW </desc>
<g style="fill:#000000; fill-opacity:1.0000;stroke:#000000; stroke-opacity:1.0000;
stroke-linecap:round; stroke-linejoin:round;"
 transform="translate(0 0) scale(1 1)">
</g>
<g style="fill:none; 
stroke:#000000; stroke-width:0.1500; stroke-opacity:1; 
stroke-linecap:round; stroke-linejoin:round;">
<path d="M299.9890 253.0022
L407.9890 253.0022
L407.9890 285.0022
L299.9890 285.0022
L299.9890 253.0022
" />
</g>
<g style="fill:none; 
stroke:#000000; stroke-width:0.1500; stroke-opacity:1; 
stroke-linecap:round; stroke-linejoin:round;">
<path d="M10.0000 10.0000
L409.9890 10.0000
L409.9890 287.0022
L10.0000 287.0022
L10.0000 10.0000
" />
</g>
<g style="fill:none; 
stroke:#000000; stroke-width:0.1500; stroke-opacity:1; 
stroke-linecap:round; stroke-linejoin:round;">
<path d="M12.0000 12.0000
L407.9890 12.0000
L407.9890 285.0022
L12.0000 285.0022
L12.0000 12.0000
" />
</g>
<g style="fill:none; 
stroke:#000000; stroke-width:0.1500; stroke-opacity:1; 
stroke-linecap:round; stroke-linejoin:round;">
<path d="M60.0000 12.0000
L60.0000 10.0000
" />
</g>
<g style="fill:none; 
stroke:#000000; stroke-width:0.1500; stroke-opacity:1; 
stroke-linecap:round; stroke-linejoin:round;">
<path d="M110.0000 12.0000
L110.0000 10.0000
" />
</g>
<g style="fill:none; 
stroke:#000000; stroke-width:0.1500; stroke-opacity:1; 
stroke-linecap:round; stroke-linejoin:round;">
<path d="M160.0000 12.0000
L160.0000 10.0000
" />
</g>
<g style="fill:none; 
stroke:#000000; stroke-width:0.1500; stroke-opacity:1; 
stroke-linecap:round; stroke-linejoin:round;">
<path d="M210.0000 12.0000
L210.0000 10.0000
" />
</g>
<g style="fill:none; 
stroke:#000000; stroke-width:0.1500; stroke-opacity:1; 
stroke-linecap:round; stroke-linejoin:round;">
<path d="M260.0000 12.0000
L260.0000 10.0000
" />
</g>
<g style="fill:none; 
stroke:#000000; stroke-width:0.1500; stroke-opacity:1; 
stroke-linecap:round; stroke-linejoin:round;">
<path d="M310.0000 12.0000
L310.0000 10.0000
" />
</g>
<g style="fill:none; 
stroke:#000000; stroke-width:0.1500; stroke-opacity:1; 
stroke-linecap:round; stroke-linejoin:round;">
<path d="M360.0000 12.0000
L360.0000 10.0000
" />
</g>
<g style="fill:none; 
stroke:#000000; stroke-width:0.1500; stroke-opacity:1; 
stroke-linecap:round; stroke-linejoin:round;">
<text x="35.0000" y="11.6500"
textLength="1.4281" font-size="1.7333" lengthAdjust="spacingAndGlyphs"
text-anchor="start" opacity="0" stroke-opacity="0">1</text>
<g class="stroked-text"><desc>1</desc>
<path d="M36.0892 11.5936
L35.3463 11.5936
" />
<path d="M35.7177 11.5936
L35.7177 10.2936
" />
<path d="M35.7177 10.2936
L35.5939 10.4793
" />
<path d="M35.5939 10.4793
L35.4701 10.6031
" />
<path d="M35.4701 10.6031
L35.3463 10.6650
" />
</g></g>
<g style="fill:none; 
stroke:#000000; stroke-width:0.1500; stroke-opacity:1; 
stroke-linecap:round; stroke-linejoin:round;">
<text x="85.0000" y="11.6500"
textLength="1.4281" font-size="1.7333" lengthAdjust="spacingAndGlyphs"
text-anchor="start" opacity="0" stroke-opacity="0">2</text>
<g class="stroked-text"><desc>2</desc>
<path d="M85.3463 10.4174
L85.4082 10.3555
" />
<path d="M85.4082 10.3555
L85.5320 10.2936
" />
<path d="M85.5320 10.2936
L85.8415 10.2936
" />
<path d="M85.8415 10.2936
L85.9654 10.3555
" />
<path d="M85.9654 10.3555
L86.0273 10.4174
" />
<path d="M86.0273 10.4174
L86.0892 10.5412
" />
<path d="M86.0892 10.5412
L86.0892 10.6650
" />
<path d="M86.0892 10.6650
L86.0273 10.8507
" />
<path d="M86.0273 10.8507
L85.2844 11.5936
" />
<path d="M85.2844 11.5936
L86.0892 11.5936
" />
</g></g>
<g style="fill:none; 
stroke:#000000; stroke-width:0.1500; stroke-opacity:1; 
stroke-linecap:round; stroke-linejoin:round;">
<text x="135.0000" y="11.6500"
textLength="1.4281" font-size="1.7333" lengthAdjust="spacingAndGlyphs"
text-anchor="start" opacity="0" stroke-opacity="0">3</text>
<g class="stroked-text"><desc>3</desc>
<path d="M135.2844 10.2936
L136.0892 10.2936
" />
<path d="M136.0892 10.2936
L135.6558 10.7888
" />
<path d="M135.6558 10.7888
L135.8415 10.7888
" />
<path d="M135.8415 10.7888
L135.9654 10.8507
" />
<path d="M135.9654 10.8507
L136.0273 10.9127
" />
<path d="M136.0273 10.9127
L136.0892 11.0365
" />
<path d="M136.0892 11.0365
L136.0892 11.3460
" />
<path d="M136.0892 11.3460
L136.0273 11.4698
" />
<path d="M136.0273 11.4698
L135.9654 11.5317
" />
<path d="M135.9654 11.5317
L135.8415 11.5936
" />
<path d="M135.8415 11.5936
L135.4701 11.5936
" />
<path d="M135.4701 11.5936
L135.3463 11.5317
" />
<path d="M135.3463 11.5317
L135.2844 11.4698
" />
</g></g>
<g style="fill:none; 
stroke:#000000; stroke-width:0.1500; stroke-opacity:1; 
stroke-linecap:round; stroke-linejoin:round;">
<text x="185.0000" y="11.6500"
textLength="1.4281" font-size="1.7333" lengthAdjust="spacingAndGlyphs"
text-anchor="start" opacity="0" stroke-opacity="0">4</text>
<g class="stroked-text"><desc>4</desc>
<path d="M185.9654 10.7269
L185.9654 11.5936
" />
<path d="M185.6558 10.2317
L185.3463 11.1603
" />
<path d="M185.3463 11.1603
L186.1511 11.1603
" />
</g></g>
<g style="fill:none; 
stroke:#000000; stroke-width:0.1500; stroke-opacity:1; 
stroke-linecap:round; stroke-linejoin:round;">
<text x="235.0000" y="11.6500"
textLength="1.4281" font-size="1.7333" lengthAdjust="spacingAndGlyphs"
text-anchor="start" opacity="0" stroke-opacity="0">5</text>
<g class="stroked-text"><desc>5</desc>
<path d="M236.0273 10.2936
L235.4082 10.2936
" />
<path d="M235.4082 10.2936
L235.3463 10.9127
" />
<path d="M235.3463 10.9127
L235.4082 10.8507
" />
<path d="M235.4082 10.8507
L235.5320 10.7888
" />
<path d="M235.5320 10.7888
L235.8415 10.7888
" />
<path d="M235.8415 10.7888
L235.9654 10.8507
" />
<path d="M235.9654 10.8507
L236.0273 10.9127
" />
<path d="M236.0273 10.9127
L236.0892 11.0365
" />
<path d="M236.0892 11.0365
L236.0892 11.3460
" />
<path d="M236.0892 11.3460
L236.0273 11.4698
" />
<path d="M236.0273 11.4698
L235.9654 11.5317
" />
<path d="M235.9654 11.5317
L235.8415 11.5936
" />
<path d="M235.8415 11.5936
L235.5320 11.5936
" />
<path d="M235.5320 11.5936
L235.4082 11.5317
" />
<path d="M235.4082 11.5317
L235.3463 11.4698
" />
</g></g>
<g style="fill:none; 
stroke:#000000; stroke-width:0.1500; stroke-opacity:1; 
stroke-linecap:round; stroke-linejoin:round;">
<text x="285.0000" y="11.6500"
textLength="1.4281" font-size="1.7333" lengthAdjust="spacingAndGlyphs"
text-anchor="start" opacity="0" stroke-opacity="0">6</text>
<g class="stroked-text"><desc>6</desc>
<path d="M285.9654 10.2936
L285.7177 10.2936
" />
<path d="M285.7177 10.2936
L285.5939 10.3555
" />
<path d="M285.5939 10.3555
L285.5320 10.4174
" />
<path d="M285.5320 10.4174
L285.4082 10.6031
" />
<path d="M285.4082 10.6031
L285.3463 10.8507
" />
<path d="M285.3463 10.8507
L285.3463 11.3460
" />
<path d="M285.3463 11.3460
L285.4082 11.4698
" />
<path d="M285.4082 11.4698
L285.4701 11.5317
" />
<path d="M285.4701 11.5317
L285.5939 11.5936
" />
<path d="M285.5939 11.5936
L285.8415 11.5936
" />
<path d="M285.8415 11.5936
L285.9654 11.5317
" />
<path d="M285.9654 11.5317
L286.0273 11.4698
" />
<path d="M286.0273 11.4698
L286.0892 11.3460
" />
<path d="M286.0892 11.3460
L286.0892 11.0365
" />
<path d="M286.0892 11.0365
L286.0273 10.9127
" />
<path d="M286.0273 10.9127
L285.9654 10.8507
" />
<path d="M285.9654 10.8507
L285.8415 10.7888
" />
<path d="M285.8415 10.7888
L285.5939 10.7888
" />
<path d="M285.5939 10.7888
L285.4701 10.8507
" />
<path d="M285.4701 10.8507
L285.4082 10.9127
" />
<path d="M285.4082 10.9127
L285.3463 11.0365
" />
</g></g>
<g style="fill:none; 
stroke:#000000; stroke-width:0.1500; stroke-opacity:1; 
stroke-linecap:round; stroke-linejoin:round;">
<text x="335.0000" y="11.6500"
textLength="1.4281" font-size="1.7333" lengthAdjust="spacingAndGlyphs"
text-anchor="start" opacity="0" stroke-opacity="0">7</text>
<g class="stroked-text"><desc>7</desc>
<path d="M335.2844 10.2936
L336.1511 10.2936
" />
<path d="M336.1511 10.2936
L335.5939 11.5936
" />
</g></g>
<g style="fill:none; 
stroke:#000000; stroke-width:0.1500; stroke-opacity:1; 
stroke-linecap:round; stroke-linejoin:round;">
<text x="385.0000" y="11.6500"
textLength="1.4281" font-size="1.7333" lengthAdjust="spacingAndGlyphs"
text-anchor="start" opacity="0" stroke-opacity="0">8</text>
<g class="stroked-text"><desc>8</desc>
<path d="M385.5939 10.8507
L385.4701 10.7888
" />
<path d="M385.4701 10.7888
L385.4082 10.7269
" />
<path d="M385.4082 10.7269
L385.3463 10.6031
" />
<path d="M385.3463 10.6031
L385.3463 10.5412
" />
<path d="M385.3463 10.5412
L385.4082 10.4174
" />
<path d="M385.4082 10.4174
L385.4701 10.3555
" />
<path d="M385.4701 10.3555
L385.5939 10.2936
" />
<path d="M385.5939 10.2936
L385.8415 10.2936
" />
<path d="M385.8415 10.2936
L385.9654 10.3555
" />
<path d="M385.9654 10.3555
L386.0273 10.4174
" />
<path d="M386.0273 10.4174
L386.0892 10.5412
" />
<path d="M386.0892 10.5412
L386.0892 10.6031
" />
<path d="M386.0892 10.6031
L386.0273 10.7269
" />
<path d="M386.0273 10.7269
L385.9654 10.7888
" />
<path d="M385.9654 10.7888
L385.8415 10.8507
" />
<path d="M385.8415 10.8507
L385.5939 10.8507
" />
<path d="M385.5939 10.8507
L385.4701 10.9127
" />
<path d="M385.4701 10.9127
L385.4082 10.9746
" />
<path d="M385.4082 10.9746
L385.3463 11.0984
" />
<path d="M385.3463 11.0984
L385.3463 11.3460
" />
<path d="M385.3463 11.3460
L385.4082 11.4698
" />
<path d="M385.4082 11.4698
L385.4701 11.5317
" />
<path d="M385.4701 11.5317
L385.5939 11.5936
" />
<path d="M385.5939 11.5936
L385.8415 11.5936
" />
<path d="M385.8415 11.5936
L385.9654 11.5317
" />
<path d="M385.9654 11.5317
L386.0273 11.4698
" />
<path d="M386.0273 11.4698
L386.0892 11.3460
" />
<path d="M386.0892 11.3460
L386.0892 11.0984
" />
<path d="M386.0892 11.0984
L386.0273 10.9746
" />
<path d="M386.0273 10.9746
L385.9654 10.9127
" />
<path d="M385.9654 10.9127
L385.8415 10.8507
" />
</g></g>
<g style="fill:none; 
stroke:#000000; stroke-width:0.1500; stroke-opacity:1; 
stroke-linecap:round; stroke-linejoin:round;">
<path d="M60.0000 285.0022
L60.0000 287.0022
" />
</g>
<g style="fill:none; 
stroke:#000000; stroke-width:0.1500; stroke-opacity:1; 
stroke-linecap:round; stroke-linejoin:round;">
<path d="M110.0000 285.0022
L110.0000 287.0022
" />
</g>
<g style="fill:none; 
stroke:#000000; stroke-width:0.1500; stroke-opacity:1; 
stroke-linecap:round; stroke-linejoin:round;">
<path d="M160.0000 285.0022
L160.0000 287.0022
" />
</g>
<g style="fill:none; 
stroke:#000000; stroke-width:0.1500; stroke-opacity:1; 
stroke-linecap:round; stroke-linejoin:round;">
<path d="M210.0000 285.0022
L210.0000 287.0022
" />
</g>
<g style="fill:none; 
stroke:#000000; stroke-width:0.1500; stroke-opacity:1; 
stroke-linecap:round; stroke-linejoin:round;">
<path d="M260.0000 285.0022
L260.0000 287.0022
" />
</g>
<g style="fill:none; 
stroke:#000000; stroke-width:0.1500; stroke-opacity:1; 
stroke-linecap:round; stroke-linejoin:round;">
<path d="M310.0000 285.0022
L310.0000 287.0022
" />
</g>
<g style="fill:none; 
stroke:#000000; stroke-width:0.1500; stroke-opacity:1; 
stroke-linecap:round; stroke-linejoin:round;">
<path d="M360.0000 285.0022
L360.0000 287.0022
" />
</g>
<g style="fill:none; 
stroke:#000000; stroke-width:0.1500; stroke-opacity:1; 
stroke-linecap:round; stroke-linejoin:round;">
<text x="35.0000" y="286.6522"
textLength="1.4281" font-size="1.7333" lengthAdjust="spacingAndGlyphs"
text-anchor="start" opacity="0" stroke-opacity="0">1</text>
<g class="stroked-text"><desc>1</desc>
<path d="M36.0892 286.5958
L35.3463 286.5958
" />
<path d="M35.7177 286.5958
L35.7177 285.2958
" />
<path d="M35.7177 285.2958
L35.5939 285.4815
" />
<path d="M35.5939 285.4815
L35.4701 285.6053
" />
<path d="M35.4701 285.6053
L35.3463 285.6672
" />
</g></g>
<g style="fill:none; 
stroke:#000000; stroke-width:0.1500; stroke-opacity:1; 
stroke-linecap:round; stroke-linejoin:round;">
<text x="85.0000" y="286.6522"
textLength="1.4281" font-size="1.7333" lengthAdjust="spacingAndGlyphs"
text-anchor="start" opacity="0" stroke-opacity="0">2</text>
<g class="stroked-text"><desc>2</desc>
<path d="M85.3463 285.4196
L85.4082 285.3577
" />
<path d="M85.4082 285.3577
L85.5320 285.2958
" />
<path d="M85.5320 285.2958
L85.8415 285.2958
" />
<path d="M85.8415 285.2958
L85.9654 285.3577
" />
<path d="M85.9654 285.3577
L86.0273 285.4196
" />
<path d="M86.0273 285.4196
L86.0892 285.5434
" />
<path d="M86.0892 285.5434
L86.0892 285.6672
" />
<path d="M86.0892 285.6672
L86.0273 285.8529
" />
<path d="M86.0273 285.8529
L85.2844 286.5958
" />
<path d="M85.2844 286.5958
L86.0892 286.5958
" />
</g></g>
<g style="fill:none; 
stroke:#000000; stroke-width:0.1500; stroke-opacity:1; 
stroke-linecap:round; stroke-linejoin:round;">
<text x="135.0000" y="286.6522"
textLength="1.4281" font-size="1.7333" lengthAdjust="spacingAndGlyphs"
text-anchor="start" opacity="0" stroke-opacity="0">3</text>
<g class="stroked-text"><desc>3</desc>
<path d="M135.2844 285.2958
L136.0892 285.2958
" />
<path d="M136.0892 285.2958
L135.6558 285.7910
" />
<path d="M135.6558 285.7910
L135.8415 285.7910
" />
<path d="M135.8415 285.7910
L135.9654 285.8529
" />
<path d="M135.9654 285.8529
L136.0273 285.9149
" />
<path d="M136.0273 285.9149
L136.0892 286.0387
" />
<path d="M136.0892 286.0387
L136.0892 286.3482
" />
<path d="M136.0892 286.3482
L136.0273 286.4720
" />
<path d="M136.0273 286.4720
L135.9654 286.5339
" />
<path d="M135.9654 286.5339
L135.8415 286.5958
" />
<path d="M135.8415 286.5958
L135.4701 286.5958
" />
<path d="M135.4701 286.5958
L135.3463 286.5339
" />
<path d="M135.3463 286.5339
L135.2844 286.4720
" />
</g></g>
<g style="fill:none; 
stroke:#000000; stroke-width:0.1500; stroke-opacity:1; 
stroke-linecap:round; stroke-linejoin:round;">
<text x="185.0000" y="286.6522"
textLength="1.4281" font-size="1.7333" lengthAdjust="spacingAndGlyphs"
text-anchor="start" opacity="0" stroke-opacity="0">4</text>
<g class="stroked-text"><desc>4</desc>
<path d="M185.9654 285.7291
L185.9654 286.5958
" />
<path d="M185.6558 285.2339
L185.3463 286.1625
" />
<path d="M185.3463 286.1625
L186.1511 286.1625
" />
</g></g>
<g style="fill:none; 
stroke:#000000; stroke-width:0.1500; stroke-opacity:1; 
stroke-linecap:round; stroke-linejoin:round;">
<text x="235.0000" y="286.6522"
textLength="1.4281" font-size="1.7333" lengthAdjust="spacingAndGlyphs"
text-anchor="start" opacity="0" stroke-opacity="0">5</text>
<g class="stroked-text"><desc>5</desc>
<path d="M236.0273 285.2958
L235.4082 285.2958
" />
<path d="M235.4082 285.2958
L235.3463 285.9149
" />
<path d="M235.3463 285.9149
L235.4082 285.8529
" />
<path d="M235.4082 285.8529
L235.5320 285.7910
" />
<path d="M235.5320 285.7910
L235.8415 285.7910
" />
<path d="M235.8415 285.7910
L235.9654 285.8529
" />
<path d="M235.9654 285.8529
L236.0273 285.9149
" />
<path d="M236.0273 285.9149
L236.0892 286.0387
" />
<path d="M236.0892 286.0387
L236.0892 286.3482
" />
<path d="M236.0892 286.3482
L236.0273 286.4720
" />
<path d="M236.0273 286.4720
L235.9654 286.5339
" />
<path d="M235.9654 286.5339
L235.8415 286.5958
" />
<path d="M235.8415 286.5958
L235.5320 286.5958
" />
<path d="M235.5320 286.5958
L235.4082 286.5339
" />
<path d="M235.4082 286.5339
L235.3463 286.4720
" />
</g></g>
<g style="fill:none; 
stroke:#000000; stroke-width:0.1500; stroke-opacity:1; 
stroke-linecap:round; stroke-linejoin:round;">
<text x="285.0000" y="286.6522"
textLength="1.4281" font-size="1.7333" lengthAdjust="spacingAndGlyphs"
text-anchor="start" opacity="0" stroke-opacity="0">6</text>
<g class="stroked-text"><desc>6</desc>
<path d="M285.9654 285.2958
L285.7177 285.2958
" />
<path d="M285.7177 285.2958
L285.5939 285.3577
" />
<path d="M285.5939 285.3577
L285.5320 285.4196
" />
<path d="M285.5320 285.4196
L285.4082 285.6053
" />
<path d="M285.4082 285.6053
L285.3463 285.8529
" />
<path d="M285.3463 285.8529
L285.3463 286.3482
" />
<path d="M285.3463 286.3482
L285.4082 286.4720
" />
<path d="M285.4082 286.4720
L285.4701 286.5339
" />
<path d="M285.4701 286.5339
L285.5939 286.5958
" />
<path d="M285.5939 286.5958
L285.8415 286.5958
" />
<path d="M285.8415 286.5958
L285.9654 286.5339
" />
<path d="M285.9654 286.5339
L286.0273 286.4720
" />
<path d="M286.0273 286.4720
L286.0892 286.3482
" />
<path d="M286.0892 286.3482
L286.0892 286.0387
" />
<path d="M286.0892 286.0387
L286.0273 285.9149
" />
<path d="M286.0273 285.9149
L285.9654 285.8529
" />
<path d="M285.9654 285.8529
L285.8415 285.7910
" />
<path d="M285.8415 285.7910
L285.5939 285.7910
" />
<path d="M285.5939 285.7910
L285.4701 285.8529
" />
<path d="M285.4701 285.8529
L285.4082 285.9149
" />
<path d="M285.4082 285.9149
L285.3463 286.0387
" />
</g></g>
<g style="fill:none; 
stroke:#000000; stroke-width:0.1500; stroke-opacity:1; 
stroke-linecap:round; stroke-linejoin:round;">
<text x="335.0000" y="286.6522"
textLength="1.4281" font-size="1.7333" lengthAdjust="spacingAndGlyphs"
text-anchor="start" opacity="0" stroke-opacity="0">7</text>
<g class="stroked-text"><desc>7</desc>
<path d="M335.2844 285.2958
L336.1511 285.2958
" />
<path d="M336.1511 285.2958
L335.5939 286.5958
" />
</g></g>
<g style="fill:none; 
stroke:#000000; stroke-width:0.1500; stroke-opacity:1; 
stroke-linecap:round; stroke-linejoin:round;">
<text x="385.0000" y="286.6522"
textLength="1.4281" font-size="1.7333" lengthAdjust="spacingAndGlyphs"
text-anchor="start" opacity="0" stroke-opacity="0">8</text>
<g class="stroked-text"><desc>8</desc>
<path d="M385.5939 285.8529
L385.4701 285.7910
" />
<path d="M385.4701 285.7910
L385.4082 285.7291
" />
<path d="M385.4082 285.7291
L385.3463 285.6053
" />
<path d="M385.3463 285.6053
L385.3463 285.5434
" />
<path d="M385.3463 285.5434
L385.4082 285.4196
" />
<path d="M385.4082 285.4196
L385.4701 285.3577
" />
<path d="M385.4701 285.3577
L385.5939 285.2958
" />
<path d="M385.5939 285.2958
L385.8415 285.2958
" />
<path d="M385.8415 285.2958
L385.9654 285.3577
" />
<path d="M385.9654 285.3577
L386.0273 285.4196
" />
<path d="M386.0273 285.4196
L386.0892 285.5434
" />
<path d="M386.0892 285.5434
L386.0892 285.6053
" />
<path d="M386.0892 285.6053
L386.0273 285.7291
" />
<path d="M386.0273 285.7291
L385.9654 285.7910
" />
<path d="M385.9654 285.7910
L385.8415 285.8529
" />
<path d="M385.8415 285.8529
L385.5939 285.8529
" />
<path d="M385.5939 285.8529
L385.4701 285.9149
" />
<path d="M385.4701 285.9149
L385.4082 285.9768
" />
<path d="M385.4082 285.9768
L385.3463 286.1006
" />
<path d="M385.3463 286.1006
L385.3463 286.3482
" />
<path d="M385.3463 286.3482
L385.4082 286.4720
" />
<path d="M385.4082 286.4720
L385.4701 286.5339
" />
<path d="M385.4701 286.5339
L385.5939 286.5958
" />
<path d="M385.5939 286.5958
L385.8415 286.5958
" />
<path d="M385.8415 286.5958
L385.9654 286.5339
" />
<path d="M385.9654 286.5339
L386.0273 286.4720
" />
<path d="M386.0273 286.4720
L386.0892 286.3482
" />
<path d="M386.0892 286.3482
L386.0892 286.1006
" />
<path d="M386.0892 286.1006
L386.0273 285.9768
" />
<path d="M386.0273 285.9768
L385.9654 285.9149
" />
<path d="M385.9654 285.9149
L385.8415 285.8529
" />
</g></g>
<g style="fill:none; 
stroke:#000000; stroke-width:0.1500; stroke-opacity:1; 
stroke-linecap:round; stroke-linejoin:round;">
<path d="M10.0000 60.0000
L12.0000 60.0000
" />
</g>
<g style="fill:none; 
stroke:#000000; stroke-width:0.1500; stroke-opacity:1; 
stroke-linecap:round; stroke-linejoin:round;">
<path d="M10.0000 110.0000
L12.0000 110.0000
" />
</g>
<g style="fill:none; 
stroke:#000000; stroke-width:0.1500; stroke-opacity:1; 
stroke-linecap:round; stroke-linejoin:round;">
<path d="M10.0000 160.0000
L12.0000 160.0000
" />
</g>
<g style="fill:none; 
stroke:#000000; stroke-width:0.1500; stroke-opacity:1; 
stroke-linecap:round; stroke-linejoin:round;">
<path d="M10.0000 210.0000
L12.0000 210.0000
" />
</g>
<g style="fill:none; 
stroke:#000000; stroke-width:0.1500; stroke-opacity:1; 
stroke-linecap:round; stroke-linejoin:round;">
<path d="M10.0000 260.0000
L12.0000 260.0000
" />
</g>
<g style="fill:none; 
stroke:#000000; stroke-width:0.1500; stroke-opacity:1; 
stroke-linecap:round; stroke-linejoin:round;">
<text x="11.0000" y="35.6500"
textLength="1.3043" font-size="1.7333" lengthAdjust="spacingAndGlyphs"
text-anchor="middle" opacity="0" stroke-opacity="0">A</text>
<g class="stroked-text"><desc>A</desc>
<path d="M10.6905 35.2222
L11.3095 35.2222
" />
<path d="M10.5667 35.5936
L11.0000 34.2936
" />
<path d="M11.0000 34.2936
L11.4333 35.5936
" />
</g></g>
<g style="fill:none; 
stroke:#000000; stroke-width:0.1500; stroke-opacity:1; 
stroke-linecap:round; stroke-linejoin:round;">
<text x="11.0000" y="85.6500"
textLength="1.4900" font-size="1.7333" lengthAdjust="spacingAndGlyphs"
text-anchor="middle" opacity="0" stroke-opacity="0">B</text>
<g class="stroked-text"><desc>B</desc>
<path d="M11.0929 84.9127
L11.2786 84.9746
" />
<path d="M11.2786 84.9746
L11.3405 85.0365
" />
<path d="M11.3405 85.0365
L11.4024 85.1603
" />
<path d="M11.4024 85.1603
L11.4024 85.3460
" />
<path d="M11.4024 85.3460
L11.3405 85.4698
" />
<path d="M11.3405 85.4698
L11.2786 85.5317
" />
<path d="M11.2786 85.5317
L11.1548 85.5936
" />
<path d="M11.1548 85.5936
L10.6595 85.5936
" />
<path d="M10.6595 85.5936
L10.6595 84.2936
" />
<path d="M10.6595 84.2936
L11.0929 84.2936
" />
<path d="M11.0929 84.2936
L11.2167 84.3555
" />
<path d="M11.2167 84.3555
L11.2786 84.4174
" />
<path d="M11.2786 84.4174
L11.3405 84.5412
" />
<path d="M11.3405 84.5412
L11.3405 84.6650
" />
<path d="M11.3405 84.6650
L11.2786 84.7888
" />
<path d="M11.2786 84.7888
L11.2167 84.8507
" />
<path d="M11.2167 84.8507
L11.0929 84.9127
" />
<path d="M11.0929 84.9127
L10.6595 84.9127
" />
</g></g>
<g style="fill:none; 
stroke:#000000; stroke-width:0.1500; stroke-opacity:1; 
stroke-linecap:round; stroke-linejoin:round;">
<text x="11.0000" y="135.6500"
textLength="1.4900" font-size="1.7333" lengthAdjust="spacingAndGlyphs"
text-anchor="middle" opacity="0" stroke-opacity="0">C</text>
<g class="stroked-text"><desc>C</desc>
<path d="M11.4024 135.4698
L11.3405 135.5317
" />
<path d="M11.3405 135.5317
L11.1548 135.5936
" />
<path d="M11.1548 135.5936
L11.0310 135.5936
" />
<path d="M11.0310 135.5936
L10.8452 135.5317
" />
<path d="M10.8452 135.5317
L10.7214 135.4079
" />
<path d="M10.7214 135.4079
L10.6595 135.2841
" />
<path d="M10.6595 135.2841
L10.5976 135.0365
" />
<path d="M10.5976 135.0365
L10.5976 134.8507
" />
<path d="M10.5976 134.8507
L10.6595 134.6031
" />
<path d="M10.6595 134.6031
L10.7214 134.4793
" />
<path d="M10.7214 134.4793
L10.8452 134.3555
" />
<path d="M10.8452 134.3555
L11.0310 134.2936
" />
<path d="M11.0310 134.2936
L11.1548 134.2936
" />
<path d="M11.1548 134.2936
L11.3405 134.3555
" />
<path d="M11.3405 134.3555
L11.4024 134.4174
" />
</g></g>
<g style="fill:none; 
stroke:#000000; stroke-width:0.1500; stroke-opacity:1; 
stroke-linecap:round; stroke-linejoin:round;">
<text x="11.0000" y="185.6500"
textLength="1.4900" font-size="1.7333" lengthAdjust="spacingAndGlyphs"
text-anchor="middle" opacity="0" stroke-opacity="0">D</text>
<g class="stroked-text"><desc>D</desc>
<path d="M10.6595 185.5936
L10.6595 184.2936
" />
<path d="M10.6595 184.2936
L10.9690 184.2936
" />
<path d="M10.9690 184.2936
L11.1548 184.3555
" />
<path d="M11.1548 184.3555
L11.2786 184.4793
" />
<path d="M11.2786 184.4793
L11.3405 184.6031
" />
<path d="M11.3405 184.6031
L11.4024 184.8507
" />
<path d="M11.4024 184.8507
L11.4024 185.0365
" />
<path d="M11.4024 185.0365
L11.3405 185.2841
" />
<path d="M11.3405 185.2841
L11.2786 185.4079
" />
<path d="M11.2786 185.4079
L11.1548 185.5317
" />
<path d="M11.1548 185.5317
L10.9690 185.5936
" />
<path d="M10.9690 185.5936
L10.6595 185.5936
" />
</g></g>
<g style="fill:none; 
stroke:#000000; stroke-width:0.1500; stroke-opacity:1; 
stroke-linecap:round; stroke-linejoin:round;">
<text x="11.0000" y="235.6500"
textLength="1.3662" font-size="1.7333" lengthAdjust="spacingAndGlyphs"
text-anchor="middle" opacity="0" stroke-opacity="0">E</text>
<g class="stroked-text"><desc>E</desc>
<path d="M10.7214 234.9127
L11.1548 234.9127
" />
<path d="M11.3405 235.5936
L10.7214 235.5936
" />
<path d="M10.7214 235.5936
L10.7214 234.2936
" />
<path d="M10.7214 234.2936
L11.3405 234.2936
" />
</g></g>
<g style="fill:none; 
stroke:#000000; stroke-width:0.1500; stroke-opacity:1; 
stroke-linecap:round; stroke-linejoin:round;">
<text x="11.0000" y="285.6500"
textLength="1.3043" font-size="1.7333" lengthAdjust="spacingAndGlyphs"
text-anchor="middle" opacity="0" stroke-opacity="0">F</text>
<g class="stroked-text"><desc>F</desc>
<path d="M11.1857 284.9127
L10.7524 284.9127
" />
<path d="M10.7524 285.5936
L10.7524 284.2936
" />
<path d="M10.7524 284.2936
L11.3714 284.2936
" />
</g></g>
<g style="fill:none; 
stroke:#000000; stroke-width:0.1500; stroke-opacity:1; 
stroke-linecap:round; stroke-linejoin:round;">
<path d="M409.9890 60.0000
L407.9890 60.0000
" />
</g>
<g style="fill:none; 
stroke:#000000; stroke-width:0.1500; stroke-opacity:1; 
stroke-linecap:round; stroke-linejoin:round;">
<path d="M409.9890 110.0000
L407.9890 110.0000
" />
</g>
<g style="fill:none; 
stroke:#000000; stroke-width:0.1500; stroke-opacity:1; 
stroke-linecap:round; stroke-linejoin:round;">
<path d="M409.9890 160.0000
L407.9890 160.0000
" />
</g>
<g style="fill:none; 
stroke:#000000; stroke-width:0.1500; stroke-opacity:1; 
stroke-linecap:round; stroke-linejoin:round;">
<path d="M409.9890 210.0000
L407.9890 210.0000
" />
</g>
<g style="fill:none; 
stroke:#000000; stroke-width:0.1500; stroke-opacity:1; 
stroke-linecap:round; stroke-linejoin:round;">
<path d="M409.9890 260.0000
L407.9890 260.0000
" />
</g>
<g style="fill:none; 
stroke:#000000; stroke-width:0.1500; stroke-opacity:1; 
stroke-linecap:round; stroke-linejoin:round;">
<text x="408.9890" y="35.6500"
textLength="1.3043" font-size="1.7333" lengthAdjust="spacingAndGlyphs"
text-anchor="middle" opacity="0" stroke-opacity="0">A</text>
<g class="stroked-text"><desc>A</desc>
<path d="M408.6795 35.2222
L409.2985 35.2222
" />
<path d="M408.5557 35.5936
L408.9890 34.2936
" />
<path d="M408.9890 34.2936
L409.4223 35.5936
" />
</g></g>
<g style="fill:none; 
stroke:#000000; stroke-width:0.1500; stroke-opacity:1; 
stroke-linecap:round; stroke-linejoin:round;">
<text x="408.9890" y="85.6500"
textLength="1.4900" font-size="1.7333" lengthAdjust="spacingAndGlyphs"
text-anchor="middle" opacity="0" stroke-opacity="0">B</text>
<g class="stroked-text"><desc>B</desc>
<path d="M409.0819 84.9127
L409.2676 84.9746
" />
<path d="M409.2676 84.9746
L409.3295 85.0365
" />
<path d="M409.3295 85.0365
L409.3914 85.1603
" />
<path d="M409.3914 85.1603
L409.3914 85.3460
" />
<path d="M409.3914 85.3460
L409.3295 85.4698
" />
<path d="M409.3295 85.4698
L409.2676 85.5317
" />
<path d="M409.2676 85.5317
L409.1438 85.5936
" />
<path d="M409.1438 85.5936
L408.6485 85.5936
" />
<path d="M408.6485 85.5936
L408.6485 84.2936
" />
<path d="M408.6485 84.2936
L409.0819 84.2936
" />
<path d="M409.0819 84.2936
L409.2057 84.3555
" />
<path d="M409.2057 84.3555
L409.2676 84.4174
" />
<path d="M409.2676 84.4174
L409.3295 84.5412
" />
<path d="M409.3295 84.5412
L409.3295 84.6650
" />
<path d="M409.3295 84.6650
L409.2676 84.7888
" />
<path d="M409.2676 84.7888
L409.2057 84.8507
" />
<path d="M409.2057 84.8507
L409.0819 84.9127
" />
<path d="M409.0819 84.9127
L408.6485 84.9127
" />
</g></g>
<g style="fill:none; 
stroke:#000000; stroke-width:0.1500; stroke-opacity:1; 
stroke-linecap:round; stroke-linejoin:round;">
<text x="408.9890" y="135.6500"
textLength="1.4900" font-size="1.7333" lengthAdjust="spacingAndGlyphs"
text-anchor="middle" opacity="0" stroke-opacity="0">C</text>
<g class="stroked-text"><desc>C</desc>
<path d="M409.3914 135.4698
L409.3295 135.5317
" />
<path d="M409.3295 135.5317
L409.1438 135.5936
" />
<path d="M409.1438 135.5936
L409.0200 135.5936
" />
<path d="M409.0200 135.5936
L408.8342 135.5317
" />
<path d="M408.8342 135.5317
L408.7104 135.4079
" />
<path d="M408.7104 135.4079
L408.6485 135.2841
" />
<path d="M408.6485 135.2841
L408.5866 135.0365
" />
<path d="M408.5866 135.0365
L408.5866 134.8507
" />
<path d="M408.5866 134.8507
L408.6485 134.6031
" />
<path d="M408.6485 134.6031
L408.7104 134.4793
" />
<path d="M408.7104 134.4793
L408.8342 134.3555
" />
<path d="M408.8342 134.3555
L409.0200 134.2936
" />
<path d="M409.0200 134.2936
L409.1438 134.2936
" />
<path d="M409.1438 134.2936
L409.3295 134.3555
" />
<path d="M409.3295 134.3555
L409.3914 134.4174
" />
</g></g>
<g style="fill:none; 
stroke:#000000; stroke-width:0.1500; stroke-opacity:1; 
stroke-linecap:round; stroke-linejoin:round;">
<text x="408.9890" y="185.6500"
textLength="1.4900" font-size="1.7333" lengthAdjust="spacingAndGlyphs"
text-anchor="middle" opacity="0" stroke-opacity="0">D</text>
<g class="stroked-text"><desc>D</desc>
<path d="M408.6485 185.5936
L408.6485 184.2936
" />
<path d="M408.6485 184.2936
L408.9580 184.2936
" />
<path d="M408.9580 184.2936
L409.1438 184.3555
" />
<path d="M409.1438 184.3555
L409.2676 184.4793
" />
<path d="M409.2676 184.4793
L409.3295 184.6031
" />
<path d="M409.3295 184.6031
L409.3914 184.8507
" />
<path d="M409.3914 184.8507
L409.3914 185.0365
" />
<path d="M409.3914 185.0365
L409.3295 185.2841
" />
<path d="M409.3295 185.2841
L409.2676 185.4079
" />
<path d="M409.2676 185.4079
L409.1438 185.5317
" />
<path d="M409.1438 185.5317
L408.9580 185.5936
" />
<path d="M408.9580 185.5936
L408.6485 185.5936
" />
</g></g>
<g style="fill:none; 
stroke:#000000; stroke-width:0.1500; stroke-opacity:1; 
stroke-linecap:round; stroke-linejoin:round;">
<text x="408.9890" y="235.6500"
textLength="1.3662" font-size="1.7333" lengthAdjust="spacingAndGlyphs"
text-anchor="middle" opacity="0" stroke-opacity="0">E</text>
<g class="stroked-text"><desc>E</desc>
<path d="M408.7104 234.9127
L409.1438 234.9127
" />
<path d="M409.3295 235.5936
L408.7104 235.5936
" />
<path d="M408.7104 235.5936
L408.7104 234.2936
" />
<path d="M408.7104 234.2936
L409.3295 234.2936
" />
</g></g>
<g style="fill:none; 
stroke:#000000; stroke-width:0.1500; stroke-opacity:1; 
stroke-linecap:round; stroke-linejoin:round;">
<text x="408.9890" y="285.6500"
textLength="1.3043" font-size="1.7333" lengthAdjust="spacingAndGlyphs"
text-anchor="middle" opacity="0" stroke-opacity="0">F</text>
<g class="stroked-text"><desc>F</desc>
<path d="M409.1747 284.9127
L408.7414 284.9127
" />
<path d="M408.7414 285.5936
L408.7414 284.2936
" />
<path d="M408.7414 284.2936
L409.3604 284.2936
" />
</g></g>
<g style="fill:none; 
stroke:#000000; stroke-width:0.1500; stroke-opacity:1; 
stroke-linecap:round; stroke-linejoin:round;">
<text x="322.9890" y="280.8522"
textLength="7.0071" font-size="2.0000" lengthAdjust="spacingAndGlyphs"
text-anchor="start" opacity="0" stroke-opacity="0">Date: </text>
<g class="stroked-text"><desc>Date: </desc>
<path d="M323.4448 280.7883
L323.4448 279.2883
" />
<path d="M323.4448 279.2883
L323.8020 279.2883
" />
<path d="M323.8020 279.2883
L324.0163 279.3598
" />
<path d="M324.0163 279.3598
L324.1591 279.5026
" />
<path d="M324.1591 279.5026
L324.2305 279.6455
" />
<path d="M324.2305 279.6455
L324.3020 279.9312
" />
<path d="M324.3020 279.9312
L324.3020 280.1455
" />
<path d="M324.3020 280.1455
L324.2305 280.4312
" />
<path d="M324.2305 280.4312
L324.1591 280.5740
" />
<path d="M324.1591 280.5740
L324.0163 280.7169
" />
<path d="M324.0163 280.7169
L323.8020 280.7883
" />
<path d="M323.8020 280.7883
L323.4448 280.7883
" />
<path d="M325.5877 280.7883
L325.5877 280.0026
" />
<path d="M325.5877 280.0026
L325.5163 279.8598
" />
<path d="M325.5163 279.8598
L325.3734 279.7883
" />
<path d="M325.3734 279.7883
L325.0877 279.7883
" />
<path d="M325.0877 279.7883
L324.9448 279.8598
" />
<path d="M325.5877 280.7169
L325.4448 280.7883
" />
<path d="M325.4448 280.7883
L325.0877 280.7883
" />
<path d="M325.0877 280.7883
L324.9448 280.7169
" />
<path d="M324.9448 280.7169
L324.8734 280.5740
" />
<path d="M324.8734 280.5740
L324.8734 280.4312
" />
<path d="M324.8734 280.4312
L324.9448 280.2883
" />
<path d="M324.9448 280.2883
L325.0877 280.2169
" />
<path d="M325.0877 280.2169
L325.4448 280.2169
" />
<path d="M325.4448 280.2169
L325.5877 280.1455
" />
<path d="M326.0877 279.7883
L326.6591 279.7883
" />
<path d="M326.3020 279.2883
L326.3020 280.5740
" />
<path d="M326.3020 280.5740
L326.3734 280.7169
" />
<path d="M326.3734 280.7169
L326.5163 280.7883
" />
<path d="M326.5163 280.7883
L326.6591 280.7883
" />
<path d="M327.7305 280.7169
L327.5877 280.7883
" />
<path d="M327.5877 280.7883
L327.3020 280.7883
" />
<path d="M327.3020 280.7883
L327.1591 280.7169
" />
<path d="M327.1591 280.7169
L327.0877 280.5740
" />
<path d="M327.0877 280.5740
L327.0877 280.0026
" />
<path d="M327.0877 280.0026
L327.1591 279.8598
" />
<path d="M327.1591 279.8598
L327.3020 279.7883
" />
<path d="M327.3020 279.7883
L327.5877 279.7883
" />
<path d="M327.5877 279.7883
L327.7305 279.8598
" />
<path d="M327.7305 279.8598
L327.8020 280.0026
" />
<path d="M327.8020 280.0026
L327.8020 280.1455
" />
<path d="M327.8020 280.1455
L327.0877 280.2883
" />
<path d="M328.4448 280.6455
L328.5163 280.7169
" />
<path d="M328.5163 280.7169
L328.4448 280.7883
" />
<path d="M328.4448 280.7883
L328.3734 280.7169
" />
<path d="M328.3734 280.7169
L328.4448 280.6455
" />
<path d="M328.4448 280.6455
L328.4448 280.7883
" />
<path d="M328.4448 279.8598
L328.5163 279.9312
" />
<path d="M328.5163 279.9312
L328.4448 280.0026
" />
<path d="M328.4448 280.0026
L328.3734 279.9312
" />
<path d="M328.3734 279.9312
L328.4448 279.8598
" />
<path d="M328.4448 279.8598
L328.4448 280.0026
" />
</g></g>
<g style="fill:none; 
stroke:#000000; stroke-width:0.1500; stroke-opacity:1; 
stroke-linecap:round; stroke-linejoin:round;">
<path d="M299.9890 281.5022
L407.9890 281.5022
" />
</g>
<g style="fill:none; 
stroke:#000000; stroke-width:0.1500; stroke-opacity:1; 
stroke-linecap:round; stroke-linejoin:round;">
<text x="300.9890" y="283.6522"
textLength="20.8643" font-size="2.0000" lengthAdjust="spacingAndGlyphs"
text-anchor="start" opacity="0" stroke-opacity="0">KiCad E.D.A. 8.0.8</text>
<g class="stroked-text"><desc>KiCad E.D.A. 8.0.8</desc>
<path d="M301.4448 283.5883
L301.4448 282.0883
" />
<path d="M302.3020 283.5883
L301.6591 282.7312
" />
<path d="M302.3020 282.0883
L301.4448 282.9455
" />
<path d="M302.9448 283.5883
L302.9448 282.5883
" />
<path d="M302.9448 282.0883
L302.8734 282.1598
" />
<path d="M302.8734 282.1598
L302.9448 282.2312
" />
<path d="M302.9448 282.2312
L303.0163 282.1598
" />
<path d="M303.0163 282.1598
L302.9448 282.0883
" />
<path d="M302.9448 282.0883
L302.9448 282.2312
" />
<path d="M304.5163 283.4455
L304.4448 283.5169
" />
<path d="M304.4448 283.5169
L304.2305 283.5883
" />
<path d="M304.2305 283.5883
L304.0877 283.5883
" />
<path d="M304.0877 283.5883
L303.8734 283.5169
" />
<path d="M303.8734 283.5169
L303.7305 283.3740
" />
<path d="M303.7305 283.3740
L303.6591 283.2312
" />
<path d="M303.6591 283.2312
L303.5877 282.9455
" />
<path d="M303.5877 282.9455
L303.5877 282.7312
" />
<path d="M303.5877 282.7312
L303.6591 282.4455
" />
<path d="M303.6591 282.4455
L303.7305 282.3026
" />
<path d="M303.7305 282.3026
L303.8734 282.1598
" />
<path d="M303.8734 282.1598
L304.0877 282.0883
" />
<path d="M304.0877 282.0883
L304.2305 282.0883
" />
<path d="M304.2305 282.0883
L304.4448 282.1598
" />
<path d="M304.4448 282.1598
L304.5163 282.2312
" />
<path d="M305.8020 283.5883
L305.8020 282.8026
" />
<path d="M305.8020 282.8026
L305.7305 282.6598
" />
<path d="M305.7305 282.6598
L305.5877 282.5883
" />
<path d="M305.5877 282.5883
L305.3020 282.5883
" />
<path d="M305.3020 282.5883
L305.1591 282.6598
" />
<path d="M305.8020 283.5169
L305.6591 283.5883
" />
<path d="M305.6591 283.5883
L305.3020 283.5883
" />
<path d="M305.3020 283.5883
L305.1591 283.5169
" />
<path d="M305.1591 283.5169
L305.0877 283.3740
" />
<path d="M305.0877 283.3740
L305.0877 283.2312
" />
<path d="M305.0877 283.2312
L305.1591 283.0883
" />
<path d="M305.1591 283.0883
L305.3020 283.0169
" />
<path d="M305.3020 283.0169
L305.6591 283.0169
" />
<path d="M305.6591 283.0169
L305.8020 282.9455
" />
<path d="M307.1591 283.5883
L307.1591 282.0883
" />
<path d="M307.1591 283.5169
L307.0163 283.5883
" />
<path d="M307.0163 283.5883
L306.7305 283.5883
" />
<path d="M306.7305 283.5883
L306.5877 283.5169
" />
<path d="M306.5877 283.5169
L306.5163 283.4455
" />
<path d="M306.5163 283.4455
L306.4448 283.3026
" />
<path d="M306.4448 283.3026
L306.4448 282.8740
" />
<path d="M306.4448 282.8740
L306.5163 282.7312
" />
<path d="M306.5163 282.7312
L306.5877 282.6598
" />
<path d="M306.5877 282.6598
L306.7305 282.5883
" />
<path d="M306.7305 282.5883
L307.0163 282.5883
" />
<path d="M307.0163 282.5883
L307.1591 282.6598
" />
<path d="M309.0163 282.8026
L309.5163 282.8026
" />
<path d="M309.7305 283.5883
L309.0163 283.5883
" />
<path d="M309.0163 283.5883
L309.0163 282.0883
" />
<path d="M309.0163 282.0883
L309.7305 282.0883
" />
<path d="M310.3734 283.4455
L310.4448 283.5169
" />
<path d="M310.4448 283.5169
L310.3734 283.5883
" />
<path d="M310.3734 283.5883
L310.3020 283.5169
" />
<path d="M310.3020 283.5169
L310.3734 283.4455
" />
<path d="M310.3734 283.4455
L310.3734 283.5883
" />
<path d="M311.0877 283.5883
L311.0877 282.0883
" />
<path d="M311.0877 282.0883
L311.4448 282.0883
" />
<path d="M311.4448 282.0883
L311.6591 282.1598
" />
<path d="M311.6591 282.1598
L311.8020 282.3026
" />
<path d="M311.8020 282.3026
L311.8734 282.4455
" />
<path d="M311.8734 282.4455
L311.9448 282.7312
" />
<path d="M311.9448 282.7312
L311.9448 282.9455
" />
<path d="M311.9448 282.9455
L311.8734 283.2312
" />
<path d="M311.8734 283.2312
L311.8020 283.3740
" />
<path d="M311.8020 283.3740
L311.6591 283.5169
" />
<path d="M311.6591 283.5169
L311.4448 283.5883
" />
<path d="M311.4448 283.5883
L311.0877 283.5883
" />
<path d="M312.5877 283.4455
L312.6591 283.5169
" />
<path d="M312.6591 283.5169
L312.5877 283.5883
" />
<path d="M312.5877 283.5883
L312.5163 283.5169
" />
<path d="M312.5163 283.5169
L312.5877 283.4455
" />
<path d="M312.5877 283.4455
L312.5877 283.5883
" />
<path d="M313.2305 283.1598
L313.9448 283.1598
" />
<path d="M313.0877 283.5883
L313.5877 282.0883
" />
<path d="M313.5877 282.0883
L314.0877 283.5883
" />
<path d="M314.5877 283.4455
L314.6591 283.5169
" />
<path d="M314.6591 283.5169
L314.5877 283.5883
" />
<path d="M314.5877 283.5883
L314.5163 283.5169
" />
<path d="M314.5163 283.5169
L314.5877 283.4455
" />
<path d="M314.5877 283.4455
L314.5877 283.5883
" />
<path d="M316.6591 282.7312
L316.5163 282.6598
" />
<path d="M316.5163 282.6598
L316.4448 282.5883
" />
<path d="M316.4448 282.5883
L316.3734 282.4455
" />
<path d="M316.3734 282.4455
L316.3734 282.3740
" />
<path d="M316.3734 282.3740
L316.4448 282.2312
" />
<path d="M316.4448 282.2312
L316.5163 282.1598
" />
<path d="M316.5163 282.1598
L316.6591 282.0883
" />
<path d="M316.6591 282.0883
L316.9448 282.0883
" />
<path d="M316.9448 282.0883
L317.0877 282.1598
" />
<path d="M317.0877 282.1598
L317.1591 282.2312
" />
<path d="M317.1591 282.2312
L317.2305 282.3740
" />
<path d="M317.2305 282.3740
L317.2305 282.4455
" />
<path d="M317.2305 282.4455
L317.1591 282.5883
" />
<path d="M317.1591 282.5883
L317.0877 282.6598
" />
<path d="M317.0877 282.6598
L316.9448 282.7312
" />
<path d="M316.9448 282.7312
L316.6591 282.7312
" />
<path d="M316.6591 282.7312
L316.5163 282.8026
" />
<path d="M316.5163 282.8026
L316.4448 282.8740
" />
<path d="M316.4448 282.8740
L316.3734 283.0169
" />
<path d="M316.3734 283.0169
L316.3734 283.3026
" />
<path d="M316.3734 283.3026
L316.4448 283.4455
" />
<path d="M316.4448 283.4455
L316.5163 283.5169
" />
<path d="M316.5163 283.5169
L316.6591 283.5883
" />
<path d="M316.6591 283.5883
L316.9448 283.5883
" />
<path d="M316.9448 283.5883
L317.0877 283.5169
" />
<path d="M317.0877 283.5169
L317.1591 283.4455
" />
<path d="M317.1591 283.4455
L317.2305 283.3026
" />
<path d="M317.2305 283.3026
L317.2305 283.0169
" />
<path d="M317.2305 283.0169
L317.1591 282.8740
" />
<path d="M317.1591 282.8740
L317.0877 282.8026
" />
<path d="M317.0877 282.8026
L316.9448 282.7312
" />
<path d="M317.8734 283.4455
L317.9448 283.5169
" />
<path d="M317.9448 283.5169
L317.8734 283.5883
" />
<path d="M317.8734 283.5883
L317.8020 283.5169
" />
<path d="M317.8020 283.5169
L317.8734 283.4455
" />
<path d="M317.8734 283.4455
L317.8734 283.5883
" />
<path d="M318.8734 282.0883
L319.0163 282.0883
" />
<path d="M319.0163 282.0883
L319.1591 282.1598
" />
<path d="M319.1591 282.1598
L319.2305 282.2312
" />
<path d="M319.2305 282.2312
L319.3020 282.3740
" />
<path d="M319.3020 282.3740
L319.3734 282.6598
" />
<path d="M319.3734 282.6598
L319.3734 283.0169
" />
<path d="M319.3734 283.0169
L319.3020 283.3026
" />
<path d="M319.3020 283.3026
L319.2305 283.4455
" />
<path d="M319.2305 283.4455
L319.1591 283.5169
" />
<path d="M319.1591 283.5169
L319.0163 283.5883
" />
<path d="M319.0163 283.5883
L318.8734 283.5883
" />
<path d="M318.8734 283.5883
L318.7305 283.5169
" />
<path d="M318.7305 283.5169
L318.6591 283.4455
" />
<path d="M318.6591 283.4455
L318.5877 283.3026
" />
<path d="M318.5877 283.3026
L318.5163 283.0169
" />
<path d="M318.5163 283.0169
L318.5163 282.6598
" />
<path d="M318.5163 282.6598
L318.5877 282.3740
" />
<path d="M318.5877 282.3740
L318.6591 282.2312
" />
<path d="M318.6591 282.2312
L318.7305 282.1598
" />
<path d="M318.7305 282.1598
L318.8734 282.0883
" />
<path d="M320.0163 283.4455
L320.0877 283.5169
" />
<path d="M320.0877 283.5169
L320.0163 283.5883
" />
<path d="M320.0163 283.5883
L319.9448 283.5169
" />
<path d="M319.9448 283.5169
L320.0163 283.4455
" />
<path d="M320.0163 283.4455
L320.0163 283.5883
" />
<path d="M320.9448 282.7312
L320.8020 282.6598
" />
<path d="M320.8020 282.6598
L320.7305 282.5883
" />
<path d="M320.7305 282.5883
L320.6591 282.4455
" />
<path d="M320.6591 282.4455
L320.6591 282.3740
" />
<path d="M320.6591 282.3740
L320.7305 282.2312
" />
<path d="M320.7305 282.2312
L320.8020 282.1598
" />
<path d="M320.8020 282.1598
L320.9448 282.0883
" />
<path d="M320.9448 282.0883
L321.2305 282.0883
" />
<path d="M321.2305 282.0883
L321.3734 282.1598
" />
<path d="M321.3734 282.1598
L321.4448 282.2312
" />
<path d="M321.4448 282.2312
L321.5163 282.3740
" />
<path d="M321.5163 282.3740
L321.5163 282.4455
" />
<path d="M321.5163 282.4455
L321.4448 282.5883
" />
<path d="M321.4448 282.5883
L321.3734 282.6598
" />
<path d="M321.3734 282.6598
L321.2305 282.7312
" />
<path d="M321.2305 282.7312
L320.9448 282.7312
" />
<path d="M320.9448 282.7312
L320.8020 282.8026
" />
<path d="M320.8020 282.8026
L320.7305 282.8740
" />
<path d="M320.7305 282.8740
L320.6591 283.0169
" />
<path d="M320.6591 283.0169
L320.6591 283.3026
" />
<path d="M320.6591 283.3026
L320.7305 283.4455
" />
<path d="M320.7305 283.4455
L320.8020 283.5169
" />
<path d="M320.8020 283.5169
L320.9448 283.5883
" />
<path d="M320.9448 283.5883
L321.2305 283.5883
" />
<path d="M321.2305 283.5883
L321.3734 283.5169
" />
<path d="M321.3734 283.5169
L321.4448 283.4455
" />
<path d="M321.4448 283.4455
L321.5163 283.3026
" />
<path d="M321.5163 283.3026
L321.5163 283.0169
" />
<path d="M321.5163 283.0169
L321.4448 282.8740
" />
<path d="M321.4448 282.8740
L321.3734 282.8026
" />
<path d="M321.3734 282.8026
L321.2305 282.7312
" />
</g></g>
<g style="fill:none; 
stroke:#000000; stroke-width:0.1500; stroke-opacity:1; 
stroke-linecap:round; stroke-linejoin:round;">
<path d="M299.9890 278.5022
L407.9890 278.5022
" />
</g>
<g style="fill:none; 
stroke:#000000; stroke-width:0.3000; stroke-opacity:1; 
stroke-linecap:round; stroke-linejoin:round;">
<text x="385.9890" y="280.8522"
textLength="6.3857" font-size="2.0000" lengthAdjust="spacingAndGlyphs"
text-anchor="start" opacity="0" stroke-opacity="0">Rev: </text>
<g class="stroked-text"><desc>Rev: </desc>
<path d="M387.4007 280.7805
L386.9007 280.0662
" />
<path d="M386.5435 280.7805
L386.5435 279.2805
" />
<path d="M386.5435 279.2805
L387.1149 279.2805
" />
<path d="M387.1149 279.2805
L387.2578 279.3520
" />
<path d="M387.2578 279.3520
L387.3292 279.4234
" />
<path d="M387.3292 279.4234
L387.4007 279.5662
" />
<path d="M387.4007 279.5662
L387.4007 279.7805
" />
<path d="M387.4007 279.7805
L387.3292 279.9234
" />
<path d="M387.3292 279.9234
L387.2578 279.9948
" />
<path d="M387.2578 279.9948
L387.1149 280.0662
" />
<path d="M387.1149 280.0662
L386.5435 280.0662
" />
<path d="M388.6149 280.7091
L388.4721 280.7805
" />
<path d="M388.4721 280.7805
L388.1864 280.7805
" />
<path d="M388.1864 280.7805
L388.0435 280.7091
" />
<path d="M388.0435 280.7091
L387.9721 280.5662
" />
<path d="M387.9721 280.5662
L387.9721 279.9948
" />
<path d="M387.9721 279.9948
L388.0435 279.8520
" />
<path d="M388.0435 279.8520
L388.1864 279.7805
" />
<path d="M388.1864 279.7805
L388.4721 279.7805
" />
<path d="M388.4721 279.7805
L388.6149 279.8520
" />
<path d="M388.6149 279.8520
L388.6864 279.9948
" />
<path d="M388.6864 279.9948
L388.6864 280.1377
" />
<path d="M388.6864 280.1377
L387.9721 280.2805
" />
<path d="M389.1864 279.7805
L389.5435 280.7805
" />
<path d="M389.5435 280.7805
L389.9007 279.7805
" />
<path d="M390.4721 280.6377
L390.5435 280.7091
" />
<path d="M390.5435 280.7091
L390.4721 280.7805
" />
<path d="M390.4721 280.7805
L390.4007 280.7091
" />
<path d="M390.4007 280.7091
L390.4721 280.6377
" />
<path d="M390.4721 280.6377
L390.4721 280.7805
" />
<path d="M390.4721 279.8520
L390.5435 279.9234
" />
<path d="M390.5435 279.9234
L390.4721 279.9948
" />
<path d="M390.4721 279.9948
L390.4007 279.9234
" />
<path d="M390.4007 279.9234
L390.4721 279.8520
" />
<path d="M390.4721 279.8520
L390.4721 279.9948
" />
</g></g>
<g style="fill:none; 
stroke:#000000; stroke-width:0.1500; stroke-opacity:1; 
stroke-linecap:round; stroke-linejoin:round;">
<text x="300.9890" y="280.8522"
textLength="9.3643" font-size="2.0000" lengthAdjust="spacingAndGlyphs"
text-anchor="start" opacity="0" stroke-opacity="0">Size: A3</text>
<g class="stroked-text"><desc>Size: A3</desc>
<path d="M301.3734 280.7169
L301.5877 280.7883
" />
<path d="M301.5877 280.7883
L301.9448 280.7883
" />
<path d="M301.9448 280.7883
L302.0877 280.7169
" />
<path d="M302.0877 280.7169
L302.1591 280.6455
" />
<path d="M302.1591 280.6455
L302.2305 280.5026
" />
<path d="M302.2305 280.5026
L302.2305 280.3598
" />
<path d="M302.2305 280.3598
L302.1591 280.2169
" />
<path d="M302.1591 280.2169
L302.0877 280.1455
" />
<path d="M302.0877 280.1455
L301.9448 280.0740
" />
<path d="M301.9448 280.0740
L301.6591 280.0026
" />
<path d="M301.6591 280.0026
L301.5163 279.9312
" />
<path d="M301.5163 279.9312
L301.4448 279.8598
" />
<path d="M301.4448 279.8598
L301.3734 279.7169
" />
<path d="M301.3734 279.7169
L301.3734 279.5740
" />
<path d="M301.3734 279.5740
L301.4448 279.4312
" />
<path d="M301.4448 279.4312
L301.5163 279.3598
" />
<path d="M301.5163 279.3598
L301.6591 279.2883
" />
<path d="M301.6591 279.2883
L302.0163 279.2883
" />
<path d="M302.0163 279.2883
L302.2305 279.3598
" />
<path d="M302.8734 280.7883
L302.8734 279.7883
" />
<path d="M302.8734 279.2883
L302.8020 279.3598
" />
<path d="M302.8020 279.3598
L302.8734 279.4312
" />
<path d="M302.8734 279.4312
L302.9448 279.3598
" />
<path d="M302.9448 279.3598
L302.8734 279.2883
" />
<path d="M302.8734 279.2883
L302.8734 279.4312
" />
<path d="M303.4448 279.7883
L304.2305 279.7883
" />
<path d="M304.2305 279.7883
L303.4448 280.7883
" />
<path d="M303.4448 280.7883
L304.2305 280.7883
" />
<path d="M305.3734 280.7169
L305.2305 280.7883
" />
<path d="M305.2305 280.7883
L304.9448 280.7883
" />
<path d="M304.9448 280.7883
L304.8020 280.7169
" />
<path d="M304.8020 280.7169
L304.7305 280.5740
" />
<path d="M304.7305 280.5740
L304.7305 280.0026
" />
<path d="M304.7305 280.0026
L304.8020 279.8598
" />
<path d="M304.8020 279.8598
L304.9448 279.7883
" />
<path d="M304.9448 279.7883
L305.2305 279.7883
" />
<path d="M305.2305 279.7883
L305.3734 279.8598
" />
<path d="M305.3734 279.8598
L305.4448 280.0026
" />
<path d="M305.4448 280.0026
L305.4448 280.1455
" />
<path d="M305.4448 280.1455
L304.7305 280.2883
" />
<path d="M306.0877 280.6455
L306.1591 280.7169
" />
<path d="M306.1591 280.7169
L306.0877 280.7883
" />
<path d="M306.0877 280.7883
L306.0163 280.7169
" />
<path d="M306.0163 280.7169
L306.0877 280.6455
" />
<path d="M306.0877 280.6455
L306.0877 280.7883
" />
<path d="M306.0877 279.8598
L306.1591 279.9312
" />
<path d="M306.1591 279.9312
L306.0877 280.0026
" />
<path d="M306.0877 280.0026
L306.0163 279.9312
" />
<path d="M306.0163 279.9312
L306.0877 279.8598
" />
<path d="M306.0877 279.8598
L306.0877 280.0026
" />
<path d="M307.8734 280.3598
L308.5877 280.3598
" />
<path d="M307.7305 280.7883
L308.2305 279.2883
" />
<path d="M308.2305 279.2883
L308.7305 280.7883
" />
<path d="M309.0877 279.2883
L310.0163 279.2883
" />
<path d="M310.0163 279.2883
L309.5163 279.8598
" />
<path d="M309.5163 279.8598
L309.7305 279.8598
" />
<path d="M309.7305 279.8598
L309.8734 279.9312
" />
<path d="M309.8734 279.9312
L309.9448 280.0026
" />
<path d="M309.9448 280.0026
L310.0163 280.1455
" />
<path d="M310.0163 280.1455
L310.0163 280.5026
" />
<path d="M310.0163 280.5026
L309.9448 280.6455
" />
<path d="M309.9448 280.6455
L309.8734 280.7169
" />
<path d="M309.8734 280.7169
L309.7305 280.7883
" />
<path d="M309.7305 280.7883
L309.3020 280.7883
" />
<path d="M309.3020 280.7883
L309.1591 280.7169
" />
<path d="M309.1591 280.7169
L309.0877 280.6455
" />
</g></g>
<g style="fill:none; 
stroke:#000000; stroke-width:0.1500; stroke-opacity:1; 
stroke-linecap:round; stroke-linejoin:round;">
<text x="385.9890" y="283.6522"
textLength="8.5071" font-size="2.0000" lengthAdjust="spacingAndGlyphs"
text-anchor="start" opacity="0" stroke-opacity="0">Id: 1/1</text>
<g class="stroked-text"><desc>Id: 1/1</desc>
<path d="M386.4448 283.5883
L386.4448 282.0883
" />
<path d="M387.8020 283.5883
L387.8020 282.0883
" />
<path d="M387.8020 283.5169
L387.6591 283.5883
" />
<path d="M387.6591 283.5883
L387.3734 283.5883
" />
<path d="M387.3734 283.5883
L387.2305 283.5169
" />
<path d="M387.2305 283.5169
L387.1591 283.4455
" />
<path d="M387.1591 283.4455
L387.0877 283.3026
" />
<path d="M387.0877 283.3026
L387.0877 282.8740
" />
<path d="M387.0877 282.8740
L387.1591 282.7312
" />
<path d="M387.1591 282.7312
L387.2305 282.6598
" />
<path d="M387.2305 282.6598
L387.3734 282.5883
" />
<path d="M387.3734 282.5883
L387.6591 282.5883
" />
<path d="M387.6591 282.5883
L387.8020 282.6598
" />
<path d="M388.5163 283.4455
L388.5877 283.5169
" />
<path d="M388.5877 283.5169
L388.5163 283.5883
" />
<path d="M388.5163 283.5883
L388.4448 283.5169
" />
<path d="M388.4448 283.5169
L388.5163 283.4455
" />
<path d="M388.5163 283.4455
L388.5163 283.5883
" />
<path d="M388.5163 282.6598
L388.5877 282.7312
" />
<path d="M388.5877 282.7312
L388.5163 282.8026
" />
<path d="M388.5163 282.8026
L388.4448 282.7312
" />
<path d="M388.4448 282.7312
L388.5163 282.6598
" />
<path d="M388.5163 282.6598
L388.5163 282.8026
" />
<path d="M391.1591 283.5883
L390.3020 283.5883
" />
<path d="M390.7305 283.5883
L390.7305 282.0883
" />
<path d="M390.7305 282.0883
L390.5877 282.3026
" />
<path d="M390.5877 282.3026
L390.4448 282.4455
" />
<path d="M390.4448 282.4455
L390.3020 282.5169
" />
<path d="M392.8734 282.0169
L391.5877 283.9455
" />
<path d="M394.1591 283.5883
L393.3020 283.5883
" />
<path d="M393.7305 283.5883
L393.7305 282.0883
" />
<path d="M393.7305 282.0883
L393.5877 282.3026
" />
<path d="M393.5877 282.3026
L393.4448 282.4455
" />
<path d="M393.4448 282.4455
L393.3020 282.5169
" />
</g></g>
<g style="fill:none; 
stroke:#000000; stroke-width:0.1500; stroke-opacity:1; 
stroke-linecap:round; stroke-linejoin:round;">
<path d="M299.9890 274.5022
L407.9890 274.5022
" />
</g>
<g style="fill:none; 
stroke:#000000; stroke-width:0.4000; stroke-opacity:1; 
stroke-linecap:round; stroke-linejoin:round;">
<text x="300.9890" y="277.3022"
textLength="9.6571" font-size="2.6667" lengthAdjust="spacingAndGlyphs"
text-anchor="start" opacity="0" stroke-opacity="0">Title: </text>
<g class="stroked-text"><desc>Title: </desc>
<path d="M301.6807 275.2066
L302.8236 275.2066
" />
<path d="M302.0022 277.2066
L302.2522 275.2066
" />
<path d="M303.2403 277.2066
L303.4069 275.8733
" />
<path d="M303.4903 275.2066
L303.3831 275.3019
" />
<path d="M303.3831 275.3019
L303.4664 275.3971
" />
<path d="M303.4664 275.3971
L303.5736 275.3019
" />
<path d="M303.5736 275.3019
L303.4903 275.2066
" />
<path d="M303.4903 275.2066
L303.4664 275.3971
" />
<path d="M304.0736 275.8733
L304.8355 275.8733
" />
<path d="M304.4426 275.2066
L304.2283 276.9209
" />
<path d="M304.2283 276.9209
L304.2998 277.1114
" />
<path d="M304.2998 277.1114
L304.4783 277.2066
" />
<path d="M304.4783 277.2066
L304.6688 277.2066
" />
<path d="M305.6212 277.2066
L305.4426 277.1114
" />
<path d="M305.4426 277.1114
L305.3712 276.9209
" />
<path d="M305.3712 276.9209
L305.5855 275.2066
" />
<path d="M307.1569 277.1114
L306.9545 277.2066
" />
<path d="M306.9545 277.2066
L306.5736 277.2066
" />
<path d="M306.5736 277.2066
L306.3950 277.1114
" />
<path d="M306.3950 277.1114
L306.3236 276.9209
" />
<path d="M306.3236 276.9209
L306.4188 276.1590
" />
<path d="M306.4188 276.1590
L306.5379 275.9685
" />
<path d="M306.5379 275.9685
L306.7403 275.8733
" />
<path d="M306.7403 275.8733
L307.1212 275.8733
" />
<path d="M307.1212 275.8733
L307.2998 275.9685
" />
<path d="M307.2998 275.9685
L307.3712 276.1590
" />
<path d="M307.3712 276.1590
L307.3474 276.3495
" />
<path d="M307.3474 276.3495
L306.3712 276.5400
" />
<path d="M308.1212 277.0162
L308.2045 277.1114
" />
<path d="M308.2045 277.1114
L308.0974 277.2066
" />
<path d="M308.0974 277.2066
L308.0141 277.1114
" />
<path d="M308.0141 277.1114
L308.1212 277.0162
" />
<path d="M308.1212 277.0162
L308.0974 277.2066
" />
<path d="M308.2522 275.9685
L308.3355 276.0638
" />
<path d="M308.3355 276.0638
L308.2283 276.1590
" />
<path d="M308.2283 276.1590
L308.1450 276.0638
" />
<path d="M308.1450 276.0638
L308.2522 275.9685
" />
<path d="M308.2522 275.9685
L308.2283 276.1590
" />
</g></g>
<g style="fill:none; 
stroke:#000000; stroke-width:0.1500; stroke-opacity:1; 
stroke-linecap:round; stroke-linejoin:round;">
<text x="300.9890" y="273.4522"
textLength="28.1500" font-size="2.0000" lengthAdjust="spacingAndGlyphs"
text-anchor="start" opacity="0" stroke-opacity="0">File: Keyboard.kicad_pcb</text>
<g class="stroked-text"><desc>File: Keyboard.kicad_pcb</desc>
<path d="M301.9448 272.6026
L301.4448 272.6026
" />
<path d="M301.4448 273.3883
L301.4448 271.8883
" />
<path d="M301.4448 271.8883
L302.1591 271.8883
" />
<path d="M302.7305 273.3883
L302.7305 272.3883
" />
<path d="M302.7305 271.8883
L302.6591 271.9598
" />
<path d="M302.6591 271.9598
L302.7305 272.0312
" />
<path d="M302.7305 272.0312
L302.8020 271.9598
" />
<path d="M302.8020 271.9598
L302.7305 271.8883
" />
<path d="M302.7305 271.8883
L302.7305 272.0312
" />
<path d="M303.6591 273.3883
L303.5163 273.3169
" />
<path d="M303.5163 273.3169
L303.4448 273.1740
" />
<path d="M303.4448 273.1740
L303.4448 271.8883
" />
<path d="M304.8020 273.3169
L304.6591 273.3883
" />
<path d="M304.6591 273.3883
L304.3734 273.3883
" />
<path d="M304.3734 273.3883
L304.2305 273.3169
" />
<path d="M304.2305 273.3169
L304.1591 273.1740
" />
<path d="M304.1591 273.1740
L304.1591 272.6026
" />
<path d="M304.1591 272.6026
L304.2305 272.4598
" />
<path d="M304.2305 272.4598
L304.3734 272.3883
" />
<path d="M304.3734 272.3883
L304.6591 272.3883
" />
<path d="M304.6591 272.3883
L304.8020 272.4598
" />
<path d="M304.8020 272.4598
L304.8734 272.6026
" />
<path d="M304.8734 272.6026
L304.8734 272.7455
" />
<path d="M304.8734 272.7455
L304.1591 272.8883
" />
<path d="M305.5163 273.2455
L305.5877 273.3169
" />
<path d="M305.5877 273.3169
L305.5163 273.3883
" />
<path d="M305.5163 273.3883
L305.4448 273.3169
" />
<path d="M305.4448 273.3169
L305.5163 273.2455
" />
<path d="M305.5163 273.2455
L305.5163 273.3883
" />
<path d="M305.5163 272.4598
L305.5877 272.5312
" />
<path d="M305.5877 272.5312
L305.5163 272.6026
" />
<path d="M305.5163 272.6026
L305.4448 272.5312
" />
<path d="M305.4448 272.5312
L305.5163 272.4598
" />
<path d="M305.5163 272.4598
L305.5163 272.6026
" />
<path d="M307.3734 273.3883
L307.3734 271.8883
" />
<path d="M308.2305 273.3883
L307.5877 272.5312
" />
<path d="M308.2305 271.8883
L307.3734 272.7455
" />
<path d="M309.4448 273.3169
L309.3020 273.3883
" />
<path d="M309.3020 273.3883
L309.0163 273.3883
" />
<path d="M309.0163 273.3883
L308.8734 273.3169
" />
<path d="M308.8734 273.3169
L308.8020 273.1740
" />
<path d="M308.8020 273.1740
L308.8020 272.6026
" />
<path d="M308.8020 272.6026
L308.8734 272.4598
" />
<path d="M308.8734 272.4598
L309.0163 272.3883
" />
<path d="M309.0163 272.3883
L309.3020 272.3883
" />
<path d="M309.3020 272.3883
L309.4448 272.4598
" />
<path d="M309.4448 272.4598
L309.5163 272.6026
" />
<path d="M309.5163 272.6026
L309.5163 272.7455
" />
<path d="M309.5163 272.7455
L308.8020 272.8883
" />
<path d="M310.0163 272.3883
L310.3734 273.3883
" />
<path d="M310.7305 272.3883
L310.3734 273.3883
" />
<path d="M310.3734 273.3883
L310.2305 273.7455
" />
<path d="M310.2305 273.7455
L310.1591 273.8169
" />
<path d="M310.1591 273.8169
L310.0163 273.8883
" />
<path d="M311.3020 273.3883
L311.3020 271.8883
" />
<path d="M311.3020 272.4598
L311.4448 272.3883
" />
<path d="M311.4448 272.3883
L311.7305 272.3883
" />
<path d="M311.7305 272.3883
L311.8734 272.4598
" />
<path d="M311.8734 272.4598
L311.9448 272.5312
" />
<path d="M311.9448 272.5312
L312.0163 272.6740
" />
<path d="M312.0163 272.6740
L312.0163 273.1026
" />
<path d="M312.0163 273.1026
L311.9448 273.2455
" />
<path d="M311.9448 273.2455
L311.8734 273.3169
" />
<path d="M311.8734 273.3169
L311.7305 273.3883
" />
<path d="M311.7305 273.3883
L311.4448 273.3883
" />
<path d="M311.4448 273.3883
L311.3020 273.3169
" />
<path d="M312.8734 273.3883
L312.7305 273.3169
" />
<path d="M312.7305 273.3169
L312.6591 273.2455
" />
<path d="M312.6591 273.2455
L312.5877 273.1026
" />
<path d="M312.5877 273.1026
L312.5877 272.6740
" />
<path d="M312.5877 272.6740
L312.6591 272.5312
" />
<path d="M312.6591 272.5312
L312.7305 272.4598
" />
<path d="M312.7305 272.4598
L312.8734 272.3883
" />
<path d="M312.8734 272.3883
L313.0877 272.3883
" />
<path d="M313.0877 272.3883
L313.2305 272.4598
" />
<path d="M313.2305 272.4598
L313.3020 272.5312
" />
<path d="M313.3020 272.5312
L313.3734 272.6740
" />
<path d="M313.3734 272.6740
L313.3734 273.1026
" />
<path d="M313.3734 273.1026
L313.3020 273.2455
" />
<path d="M313.3020 273.2455
L313.2305 273.3169
" />
<path d="M313.2305 273.3169
L313.0877 273.3883
" />
<path d="M313.0877 273.3883
L312.8734 273.3883
" />
<path d="M314.6591 273.3883
L314.6591 272.6026
" />
<path d="M314.6591 272.6026
L314.5877 272.4598
" />
<path d="M314.5877 272.4598
L314.4448 272.3883
" />
<path d="M314.4448 272.3883
L314.1591 272.3883
" />
<path d="M314.1591 272.3883
L314.0163 272.4598
" />
<path d="M314.6591 273.3169
L314.5163 273.3883
" />
<path d="M314.5163 273.3883
L314.1591 273.3883
" />
<path d="M314.1591 273.3883
L314.0163 273.3169
" />
<path d="M314.0163 273.3169
L313.9448 273.1740
" />
<path d="M313.9448 273.1740
L313.9448 273.0312
" />
<path d="M313.9448 273.0312
L314.0163 272.8883
" />
<path d="M314.0163 272.8883
L314.1591 272.8169
" />
<path d="M314.1591 272.8169
L314.5163 272.8169
" />
<path d="M314.5163 272.8169
L314.6591 272.7455
" />
<path d="M315.3734 273.3883
L315.3734 272.3883
" />
<path d="M315.3734 272.6740
L315.4448 272.5312
" />
<path d="M315.4448 272.5312
L315.5163 272.4598
" />
<path d="M315.5163 272.4598
L315.6591 272.3883
" />
<path d="M315.6591 272.3883
L315.8020 272.3883
" />
<path d="M316.9448 273.3883
L316.9448 271.8883
" />
<path d="M316.9448 273.3169
L316.8020 273.3883
" />
<path d="M316.8020 273.3883
L316.5163 273.3883
" />
<path d="M316.5163 273.3883
L316.3734 273.3169
" />
<path d="M316.3734 273.3169
L316.3020 273.2455
" />
<path d="M316.3020 273.2455
L316.2305 273.1026
" />
<path d="M316.2305 273.1026
L316.2305 272.6740
" />
<path d="M316.2305 272.6740
L316.3020 272.5312
" />
<path d="M316.3020 272.5312
L316.3734 272.4598
" />
<path d="M316.3734 272.4598
L316.5163 272.3883
" />
<path d="M316.5163 272.3883
L316.8020 272.3883
" />
<path d="M316.8020 272.3883
L316.9448 272.4598
" />
<path d="M317.6591 273.2455
L317.7305 273.3169
" />
<path d="M317.7305 273.3169
L317.6591 273.3883
" />
<path d="M317.6591 273.3883
L317.5877 273.3169
" />
<path d="M317.5877 273.3169
L317.6591 273.2455
" />
<path d="M317.6591 273.2455
L317.6591 273.3883
" />
<path d="M318.3734 273.3883
L318.3734 271.8883
" />
<path d="M318.5163 272.8169
L318.9448 273.3883
" />
<path d="M318.9448 272.3883
L318.3734 272.9598
" />
<path d="M319.5877 273.3883
L319.5877 272.3883
" />
<path d="M319.5877 271.8883
L319.5163 271.9598
" />
<path d="M319.5163 271.9598
L319.5877 272.0312
" />
<path d="M319.5877 272.0312
L319.6591 271.9598
" />
<path d="M319.6591 271.9598
L319.5877 271.8883
" />
<path d="M319.5877 271.8883
L319.5877 272.0312
" />
<path d="M320.9448 273.3169
L320.8020 273.3883
" />
<path d="M320.8020 273.3883
L320.5163 273.3883
" />
<path d="M320.5163 273.3883
L320.3734 273.3169
" />
<path d="M320.3734 273.3169
L320.3020 273.2455
" />
<path d="M320.3020 273.2455
L320.2305 273.1026
" />
<path d="M320.2305 273.1026
L320.2305 272.6740
" />
<path d="M320.2305 272.6740
L320.3020 272.5312
" />
<path d="M320.3020 272.5312
L320.3734 272.4598
" />
<path d="M320.3734 272.4598
L320.5163 272.3883
" />
<path d="M320.5163 272.3883
L320.8020 272.3883
" />
<path d="M320.8020 272.3883
L320.9448 272.4598
" />
<path d="M322.2305 273.3883
L322.2305 272.6026
" />
<path d="M322.2305 272.6026
L322.1591 272.4598
" />
<path d="M322.1591 272.4598
L322.0163 272.3883
" />
<path d="M322.0163 272.3883
L321.7305 272.3883
" />
<path d="M321.7305 272.3883
L321.5877 272.4598
" />
<path d="M322.2305 273.3169
L322.0877 273.3883
" />
<path d="M322.0877 273.3883
L321.7305 273.3883
" />
<path d="M321.7305 273.3883
L321.5877 273.3169
" />
<path d="M321.5877 273.3169
L321.5163 273.1740
" />
<path d="M321.5163 273.1740
L321.5163 273.0312
" />
<path d="M321.5163 273.0312
L321.5877 272.8883
" />
<path d="M321.5877 272.8883
L321.7305 272.8169
" />
<path d="M321.7305 272.8169
L322.0877 272.8169
" />
<path d="M322.0877 272.8169
L322.2305 272.7455
" />
<path d="M323.5877 273.3883
L323.5877 271.8883
" />
<path d="M323.5877 273.3169
L323.4448 273.3883
" />
<path d="M323.4448 273.3883
L323.1591 273.3883
" />
<path d="M323.1591 273.3883
L323.0163 273.3169
" />
<path d="M323.0163 273.3169
L322.9448 273.2455
" />
<path d="M322.9448 273.2455
L322.8734 273.1026
" />
<path d="M322.8734 273.1026
L322.8734 272.6740
" />
<path d="M322.8734 272.6740
L322.9448 272.5312
" />
<path d="M322.9448 272.5312
L323.0163 272.4598
" />
<path d="M323.0163 272.4598
L323.1591 272.3883
" />
<path d="M323.1591 272.3883
L323.4448 272.3883
" />
<path d="M323.4448 272.3883
L323.5877 272.4598
" />
<path d="M323.9448 273.5312
L325.0877 273.5312
" />
<path d="M325.4448 272.3883
L325.4448 273.8883
" />
<path d="M325.4448 272.4598
L325.5877 272.3883
" />
<path d="M325.5877 272.3883
L325.8734 272.3883
" />
<path d="M325.8734 272.3883
L326.0163 272.4598
" />
<path d="M326.0163 272.4598
L326.0877 272.5312
" />
<path d="M326.0877 272.5312
L326.1591 272.6740
" />
<path d="M326.1591 272.6740
L326.1591 273.1026
" />
<path d="M326.1591 273.1026
L326.0877 273.2455
" />
<path d="M326.0877 273.2455
L326.0163 273.3169
" />
<path d="M326.0163 273.3169
L325.8734 273.3883
" />
<path d="M325.8734 273.3883
L325.5877 273.3883
" />
<path d="M325.5877 273.3883
L325.4448 273.3169
" />
<path d="M327.4448 273.3169
L327.3020 273.3883
" />
<path d="M327.3020 273.3883
L327.0163 273.3883
" />
<path d="M327.0163 273.3883
L326.8734 273.3169
" />
<path d="M326.8734 273.3169
L326.8020 273.2455
" />
<path d="M326.8020 273.2455
L326.7305 273.1026
" />
<path d="M326.7305 273.1026
L326.7305 272.6740
" />
<path d="M326.7305 272.6740
L326.8020 272.5312
" />
<path d="M326.8020 272.5312
L326.8734 272.4598
" />
<path d="M326.8734 272.4598
L327.0163 272.3883
" />
<path d="M327.0163 272.3883
L327.3020 272.3883
" />
<path d="M327.3020 272.3883
L327.4448 272.4598
" />
<path d="M328.0877 273.3883
L328.0877 271.8883
" />
<path d="M328.0877 272.4598
L328.2305 272.3883
" />
<path d="M328.2305 272.3883
L328.5163 272.3883
" />
<path d="M328.5163 272.3883
L328.6591 272.4598
" />
<path d="M328.6591 272.4598
L328.7305 272.5312
" />
<path d="M328.7305 272.5312
L328.8020 272.6740
" />
<path d="M328.8020 272.6740
L328.8020 273.1026
" />
<path d="M328.8020 273.1026
L328.7305 273.2455
" />
<path d="M328.7305 273.2455
L328.6591 273.3169
" />
<path d="M328.6591 273.3169
L328.5163 273.3883
" />
<path d="M328.5163 273.3883
L328.2305 273.3883
" />
<path d="M328.2305 273.3883
L328.0877 273.3169
" />
</g></g>
<g style="fill:none; 
stroke:#000000; stroke-width:0.1500; stroke-opacity:1; 
stroke-linecap:round; stroke-linejoin:round;">
<path d="M299.9890 268.5022
L407.9890 268.5022
" />
</g>
<g style="fill:none; 
stroke:#000000; stroke-width:0.1500; stroke-opacity:1; 
stroke-linecap:round; stroke-linejoin:round;">
<text x="300.9890" y="270.7522"
textLength="8.2214" font-size="2.0000" lengthAdjust="spacingAndGlyphs"
text-anchor="start" opacity="0" stroke-opacity="0">Sheet: </text>
<g class="stroked-text"><desc>Sheet: </desc>
<path d="M301.3734 270.6169
L301.5877 270.6883
" />
<path d="M301.5877 270.6883
L301.9448 270.6883
" />
<path d="M301.9448 270.6883
L302.0877 270.6169
" />
<path d="M302.0877 270.6169
L302.1591 270.5455
" />
<path d="M302.1591 270.5455
L302.2305 270.4026
" />
<path d="M302.2305 270.4026
L302.2305 270.2598
" />
<path d="M302.2305 270.2598
L302.1591 270.1169
" />
<path d="M302.1591 270.1169
L302.0877 270.0455
" />
<path d="M302.0877 270.0455
L301.9448 269.9740
" />
<path d="M301.9448 269.9740
L301.6591 269.9026
" />
<path d="M301.6591 269.9026
L301.5163 269.8312
" />
<path d="M301.5163 269.8312
L301.4448 269.7598
" />
<path d="M301.4448 269.7598
L301.3734 269.6169
" />
<path d="M301.3734 269.6169
L301.3734 269.4740
" />
<path d="M301.3734 269.4740
L301.4448 269.3312
" />
<path d="M301.4448 269.3312
L301.5163 269.2598
" />
<path d="M301.5163 269.2598
L301.6591 269.1883
" />
<path d="M301.6591 269.1883
L302.0163 269.1883
" />
<path d="M302.0163 269.1883
L302.2305 269.2598
" />
<path d="M302.8734 270.6883
L302.8734 269.1883
" />
<path d="M303.5163 270.6883
L303.5163 269.9026
" />
<path d="M303.5163 269.9026
L303.4448 269.7598
" />
<path d="M303.4448 269.7598
L303.3020 269.6883
" />
<path d="M303.3020 269.6883
L303.0877 269.6883
" />
<path d="M303.0877 269.6883
L302.9448 269.7598
" />
<path d="M302.9448 269.7598
L302.8734 269.8312
" />
<path d="M304.8020 270.6169
L304.6591 270.6883
" />
<path d="M304.6591 270.6883
L304.3734 270.6883
" />
<path d="M304.3734 270.6883
L304.2305 270.6169
" />
<path d="M304.2305 270.6169
L304.1591 270.4740
" />
<path d="M304.1591 270.4740
L304.1591 269.9026
" />
<path d="M304.1591 269.9026
L304.2305 269.7598
" />
<path d="M304.2305 269.7598
L304.3734 269.6883
" />
<path d="M304.3734 269.6883
L304.6591 269.6883
" />
<path d="M304.6591 269.6883
L304.8020 269.7598
" />
<path d="M304.8020 269.7598
L304.8734 269.9026
" />
<path d="M304.8734 269.9026
L304.8734 270.0455
" />
<path d="M304.8734 270.0455
L304.1591 270.1883
" />
<path d="M306.0877 270.6169
L305.9448 270.6883
" />
<path d="M305.9448 270.6883
L305.6591 270.6883
" />
<path d="M305.6591 270.6883
L305.5163 270.6169
" />
<path d="M305.5163 270.6169
L305.4448 270.4740
" />
<path d="M305.4448 270.4740
L305.4448 269.9026
" />
<path d="M305.4448 269.9026
L305.5163 269.7598
" />
<path d="M305.5163 269.7598
L305.6591 269.6883
" />
<path d="M305.6591 269.6883
L305.9448 269.6883
" />
<path d="M305.9448 269.6883
L306.0877 269.7598
" />
<path d="M306.0877 269.7598
L306.1591 269.9026
" />
<path d="M306.1591 269.9026
L306.1591 270.0455
" />
<path d="M306.1591 270.0455
L305.4448 270.1883
" />
<path d="M306.5877 269.6883
L307.1591 269.6883
" />
<path d="M306.8020 269.1883
L306.8020 270.4740
" />
<path d="M306.8020 270.4740
L306.8734 270.6169
" />
<path d="M306.8734 270.6169
L307.0163 270.6883
" />
<path d="M307.0163 270.6883
L307.1591 270.6883
" />
<path d="M307.6591 270.5455
L307.7305 270.6169
" />
<path d="M307.7305 270.6169
L307.6591 270.6883
" />
<path d="M307.6591 270.6883
L307.5877 270.6169
" />
<path d="M307.5877 270.6169
L307.6591 270.5455
" />
<path d="M307.6591 270.5455
L307.6591 270.6883
" />
<path d="M307.6591 269.7598
L307.7305 269.8312
" />
<path d="M307.7305 269.8312
L307.6591 269.9026
" />
<path d="M307.6591 269.9026
L307.5877 269.8312
" />
<path d="M307.5877 269.8312
L307.6591 269.7598
" />
<path d="M307.6591 269.7598
L307.6591 269.9026
" />
</g></g>
<g style="fill:none; 
stroke:#000000; stroke-width:0.3000; stroke-opacity:1; 
stroke-linecap:round; stroke-linejoin:round;">
<text x="300.9890" y="267.7522"
textLength="0.9000" font-size="2.0000" lengthAdjust="spacingAndGlyphs"
text-anchor="start" opacity="0" stroke-opacity="0"></text>
<g class="stroked-text"><desc></desc>
</g></g>
<g style="fill:none; 
stroke:#000000; stroke-width:0.1500; stroke-opacity:1; 
stroke-linecap:round; stroke-linejoin:round;">
<text x="300.9890" y="264.7522"
textLength="0.4500" font-size="2.0000" lengthAdjust="spacingAndGlyphs"
text-anchor="start" opacity="0" stroke-opacity="0"></text>
<g class="stroked-text"><desc></desc>
</g></g>
<g style="fill:none; 
stroke:#000000; stroke-width:0.1500; stroke-opacity:1; 
stroke-linecap:round; stroke-linejoin:round;">
<text x="300.9890" y="261.7522"
textLength="0.4500" font-size="2.0000" lengthAdjust="spacingAndGlyphs"
text-anchor="start" opacity="0" stroke-opacity="0"></text>
<g class="stroked-text"><desc></desc>
</g></g>
<g style="fill:none; 
stroke:#000000; stroke-width:0.1500; stroke-opacity:1; 
stroke-linecap:round; stroke-linejoin:round;">
<text x="300.9890" y="258.7522"
textLength="0.4500" font-size="2.0000" lengthAdjust="spacingAndGlyphs"
text-anchor="start" opacity="0" stroke-opacity="0"></text>
<g class="stroked-text"><desc></desc>
</g></g>
<g style="fill:none; 
stroke:#000000; stroke-width:0.1500; stroke-opacity:1; 
stroke-linecap:round; stroke-linejoin:round;">
<text x="300.9890" y="255.7522"
textLength="0.4500" font-size="2.0000" lengthAdjust="spacingAndGlyphs"
text-anchor="start" opacity="0" stroke-opacity="0"></text>
<g class="stroked-text"><desc></desc>
</g></g>
<g style="fill:none; 
stroke:#000000; stroke-width:0.1500; stroke-opacity:1; 
stroke-linecap:round; stroke-linejoin:round;">
<path d="M319.9890 278.5022
L319.9890 281.5022
" />
</g>
<g style="fill:none; 
stroke:#000000; stroke-width:0.1500; stroke-opacity:1; 
stroke-linecap:round; stroke-linejoin:round;">
<path d="M383.9890 278.5022
L383.9890 285.0022
" />
</g>
<g style="fill:none; 
stroke:#000000; stroke-width:0.0500; stroke-opacity:1; 
stroke-linecap:round; stroke-linejoin:round;">
<path d="M275.4200 245.8400
L259.4200 211.8400
" />
<path d="M301.4200 156.8400
L303.4200 154.8400
" />
<path d="M361.4200 218.8400
L356.4200 213.8400
" />
<path d="M365.4200 158.8400
L401.4200 158.8400
" />
<path d="M335.4200 235.8400
L313.4200 235.8400
" />
<path d="M216.7500 159.8400
L213.7500 156.8400
" />
<path d="M221.7500 247.8400
L221.6700 248.0000
" />
<path d="M136.7500 218.8400
L141.7500 213.8400
" />
<path d="M401.4200 158.8400
L401.4200 218.8400
" />
<path d="M275.4200 245.8400
L276.4200 247.8400
" />
<path d="M356.4200 213.8400
L339.4200 213.8400
" />
<path d="M162.7500 217.8400
L162.7500 235.8400
" />
<path d="M335.4200 217.8400
L335.4200 235.8400
" />
<path d="M303.4200 154.8400
L319.4200 154.8400
" />
<path d="M178.7500 154.8400
L177.7500 154.8400
" />
<path d="M222.7500 245.8400
L238.7500 211.8400
" />
<path d="M361.4200 154.8400
L365.4200 158.8400
" />
<path d="M175.7500 152.8400
L154.7500 152.8400
" />
<path d="M345.4200 154.8400
L361.4200 154.8400
" />
<path d="M158.7500 213.8400
L162.7500 217.8400
" />
<path d="M284.4200 156.8400
L300.4200 156.8400
" />
<path d="M222.7500 245.8400
L221.7500 247.8400
" />
<path d="M339.4200 213.8400
L335.4200 217.8400
" />
<path d="M281.4200 159.8400
L284.4200 156.8400
" />
<path d="M197.7500 156.8400
L196.7500 156.8400
" />
<path d="M259.4200 211.8400
L259.4200 159.8400
" />
<path d="M295.4200 239.8400
L279.4200 246.8400
" />
<path d="M162.7500 235.8400
L184.7500 235.8400
" />
<path d="M177.7500 154.8400
L175.7500 152.8400
" />
<path d="M196.7500 156.8400
L194.7500 154.8400
" />
<path d="M141.7500 213.8400
L158.7500 213.8400
" />
<path d="M320.4200 154.8400
L322.4200 152.8400
" />
<path d="M343.4200 152.8400
L345.4200 154.8400
" />
<path d="M259.4200 159.8400
L281.4200 159.8400
" />
<path d="M184.7500 235.8400
L202.7500 239.8400
" />
<path d="M96.7500 158.8400
L96.7500 218.8400
" />
<path d="M154.7500 152.8400
L152.7500 154.8400
" />
<path d="M194.7500 154.8400
L178.7500 154.8400
" />
<path d="M322.4200 152.8400
L343.4200 152.8400
" />
<path d="M238.7500 211.8400
L238.7500 159.8400
" />
<path d="M238.7500 159.8400
L216.7500 159.8400
" />
<path d="M313.4200 235.8400
L295.4200 239.8400
" />
<path d="M213.7500 156.8400
L197.7500 156.8400
" />
<path d="M202.7500 239.8400
L218.7500 246.8400
" />
<path d="M218.7500 246.8400
L221.6700 248.0000
" />
<path d="M279.4200 246.8400
L276.5000 248.0000
" />
<path d="M319.4200 154.8400
L320.4200 154.8400
" />
<path d="M401.4200 218.8400
L361.4200 218.8400
" />
<path d="M276.4200 247.8400
L276.5000 248.0000
" />
<path d="M96.7500 218.8400
L136.7500 218.8400
" />
<path d="M300.4200 156.8400
L301.4200 156.8400
" />
<path d="M136.7500 154.8400
L132.7500 158.8400
" />
<path d="M132.7500 158.8400
L96.7500 158.8400
" />
<path d="M152.7500 154.8400
L136.7500 154.8400
" />
</g>
<g style="fill:none; 
stroke:#000000; stroke-width:0.1200; stroke-opacity:1; 
stroke-linecap:round; stroke-linejoin:round;">
<path d="M350.2550 169.0420
L353.6550 169.0420
" />
<path d="M350.2550 172.0420
L350.2550 169.0420
" />
<path d="M353.6550 169.0420
L353.6550 172.0420
" />
<path d="M353.6550 172.0420
L350.2550 172.0420
" />
<path d="M201.7750 209.3750
L205.1750 209.3750
" />
<path d="M201.7750 212.3750
L201.7750 209.3750
" />
<path d="M205.1750 209.3750
L205.1750 212.3750
" />
<path d="M205.1750 212.3750
L201.7750 212.3750
" />
<path d="M301.6515 231.0854
L304.9780 230.3821
" />
<path d="M302.2720 234.0205
L301.6515 231.0854
" />
<path d="M304.9780 230.3821
L305.5985 233.3172
" />
<path d="M305.5985 233.3172
L302.2720 234.0205
" />
<path d="M125.5750 192.7070
L128.9750 192.7070
" />
<path d="M125.5750 195.7070
L125.5750 192.7070
" />
<path d="M128.9750 192.7070
L128.9750 195.7070
" />
<path d="M128.9750 195.7070
L125.5750 195.7070
" />
<path d="M350.2550 188.1040
L353.6550 188.1040
" />
<path d="M350.2550 191.1040
L350.2550 188.1040
" />
<path d="M353.6550 188.1040
L353.6550 191.1040
" />
<path d="M353.6550 191.1040
L350.2550 191.1040
" />
<path d="M331.2050 166.6730
L334.6050 166.6730
" />
<path d="M331.2050 169.6730
L331.2050 166.6730
" />
<path d="M334.6050 166.6730
L334.6050 169.6730
" />
<path d="M334.6050 169.6730
L331.2050 169.6730
" />
<path d="M106.5250 173.6060
L109.9250 173.6060
" />
<path d="M106.5250 176.6060
L106.5250 173.6060
" />
<path d="M109.9250 173.6060
L109.9250 176.6060
" />
<path d="M109.9250 176.6060
L106.5250 176.6060
" />
<path d="M163.6750 166.5130
L167.0750 166.5130
" />
<path d="M163.6750 169.5130
L163.6750 166.5130
" />
<path d="M167.0750 166.5130
L167.0750 169.5130
" />
<path d="M167.0750 169.5130
L163.6750 169.5130
" />
<path d="M293.1050 209.5350
L296.5050 209.5350
" />
<path d="M293.1050 212.5350
L293.1050 209.5350
" />
<path d="M296.5050 209.5350
L296.5050 212.5350
" />
<path d="M296.5050 212.5350
L293.1050 212.5350
" />
<path d="M388.3550 192.8610
L391.7550 192.8610
" />
<path d="M388.3550 195.8610
L388.3550 192.8610
" />
<path d="M391.7550 192.8610
L391.7550 195.8610
" />
<path d="M391.7550 195.8610
L388.3550 195.8610
" />
<path d="M182.7250 187.9440
L186.1250 187.9440
" />
<path d="M182.7250 190.9440
L182.7250 187.9440
" />
<path d="M186.1250 187.9440
L186.1250 190.9440
" />
<path d="M186.1250 190.9440
L182.7250 190.9440
" />
<path d="M293.1050 190.4850
L296.5050 190.4850
" />
<path d="M293.1050 193.4850
L293.1050 190.4850
" />
<path d="M296.5050 190.4850
L296.5050 193.4850
" />
<path d="M296.5050 193.4850
L293.1050 193.4850
" />
<path d="M211.3866 238.8001
L212.6011 236.0569
" />
<path d="M212.6011 236.0569
L215.7100 237.4333
" />
<path d="M214.4956 240.1765
L211.3866 238.8001
" />
<path d="M215.7100 237.4333
L214.4956 240.1765
" />
<path d="M144.6250 206.9940
L148.0250 206.9940
" />
<path d="M144.6250 209.9940
L144.6250 206.9940
" />
<path d="M148.0250 206.9940
L148.0250 209.9940
" />
<path d="M148.0250 209.9940
L144.6250 209.9940
" />
<path d="M173.2000 228.4250
L176.6000 228.4250
" />
<path d="M173.2000 231.4250
L173.2000 228.4250
" />
<path d="M176.6000 228.4250
L176.6000 231.4250
" />
<path d="M176.6000 231.4250
L173.2000 231.4250
" />
<path d="M106.5250 211.7810
L109.9250 211.7810
" />
<path d="M106.5250 214.7810
L106.5250 211.7810
" />
<path d="M109.9250 211.7810
L109.9250 214.7810
" />
<path d="M109.9250 214.7810
L106.5250 214.7810
" />
<path d="M182.6750 168.9200
L186.0750 168.9200
" />
<path d="M182.6750 171.9200
L182.6750 168.9200
" />
<path d="M186.0750 168.9200
L186.0750 171.9200
" />
<path d="M186.0750 171.9200
L182.6750 171.9200
" />
<path d="M163.6750 204.6130
L167.0750 204.6130
" />
<path d="M163.6750 207.6130
L163.6750 204.6130
" />
<path d="M167.0750 204.6130
L167.0750 207.6130
" />
<path d="M167.0750 207.6130
L163.6750 207.6130
" />
<path d="M201.7750 190.3250
L205.1750 190.3250
" />
<path d="M201.7750 193.3250
L201.7750 190.3250
" />
<path d="M205.1750 190.3250
L205.1750 193.3250
" />
<path d="M205.1750 193.3250
L201.7750 193.3250
" />
<path d="M369.3050 173.7790
L372.7050 173.7790
" />
<path d="M369.3050 176.7790
L369.3050 173.7790
" />
<path d="M372.7050 173.7790
L372.7050 176.7790
" />
<path d="M372.7050 176.7790
L369.3050 176.7790
" />
<path d="M192.6815 233.1572
L193.3020 230.2221
" />
<path d="M193.3020 230.2221
L196.6285 230.9254
" />
<path d="M196.0080 233.8605
L192.6815 233.1572
" />
<path d="M196.6285 230.9254
L196.0080 233.8605
" />
<path d="M106.5250 192.7010
L109.9250 192.7010
" />
<path d="M106.5250 195.7010
L106.5250 192.7010
" />
<path d="M109.9250 192.7010
L109.9250 195.7010
" />
<path d="M109.9250 195.7010
L106.5250 195.7010
" />
<path d="M350.2550 207.1540
L353.6550 207.1540
" />
<path d="M350.2550 210.1540
L350.2550 207.1540
" />
<path d="M353.6550 207.1540
L353.6550 210.1540
" />
<path d="M353.6550 210.1540
L350.2550 210.1540
" />
<path d="M125.5750 211.7570
L128.9750 211.7570
" />
<path d="M125.5750 214.7570
L125.5750 211.7570
" />
<path d="M128.9750 211.7570
L128.9750 214.7570
" />
<path d="M128.9750 214.7570
L125.5750 214.7570
" />
<path d="M282.5700 237.5933
L285.6789 236.2169
" />
<path d="M283.7844 240.3365
L282.5700 237.5933
" />
<path d="M285.6789 236.2169
L286.8934 238.9601
" />
<path d="M286.8934 238.9601
L283.7844 240.3365
" />
<path d="M182.7250 206.9940
L186.1250 206.9940
" />
<path d="M182.7250 209.9940
L182.7250 206.9940
" />
<path d="M186.1250 206.9940
L186.1250 209.9940
" />
<path d="M186.1250 209.9940
L182.7250 209.9940
" />
<path d="M125.5750 173.6190
L128.9750 173.6190
" />
<path d="M125.5750 176.6190
L125.5750 173.6190
" />
<path d="M128.9750 173.6190
L128.9750 176.6190
" />
<path d="M128.9750 176.6190
L125.5750 176.6190
" />
<path d="M369.3050 192.8670
L372.7050 192.8670
" />
<path d="M369.3050 195.8670
L369.3050 192.8670
" />
<path d="M372.7050 192.8670
L372.7050 195.8670
" />
<path d="M372.7050 195.8670
L369.3050 195.8670
" />
<path d="M312.1550 188.1040
L315.5550 188.1040
" />
<path d="M312.1550 191.1040
L312.1550 188.1040
" />
<path d="M315.5550 188.1040
L315.5550 191.1040
" />
<path d="M315.5550 191.1040
L312.1550 191.1040
" />
<path d="M312.2050 169.0800
L315.6050 169.0800
" />
<path d="M312.2050 172.0800
L312.2050 169.0800
" />
<path d="M315.6050 169.0800
L315.6050 172.0800
" />
<path d="M315.6050 172.0800
L312.2050 172.0800
" />
<path d="M388.3550 211.9410
L391.7550 211.9410
" />
<path d="M388.3550 214.9410
L388.3550 211.9410
" />
<path d="M391.7550 211.9410
L391.7550 214.9410
" />
<path d="M391.7550 214.9410
L388.3550 214.9410
" />
<path d="M331.2050 204.7730
L334.6050 204.7730
" />
<path d="M331.2050 207.7730
L331.2050 204.7730
" />
<path d="M334.6050 204.7730
L334.6050 207.7730
" />
<path d="M334.6050 207.7730
L331.2050 207.7730
" />
<path d="M144.6250 187.9440
L148.0250 187.9440
" />
<path d="M144.6250 190.9440
L144.6250 187.9440
" />
<path d="M148.0250 187.9440
L148.0250 190.9440
" />
<path d="M148.0250 190.9440
L144.6250 190.9440
" />
<path d="M201.7750 171.2500
L205.1750 171.2500
" />
<path d="M201.7750 174.2500
L201.7750 171.2500
" />
<path d="M205.1750 171.2500
L205.1750 174.2500
" />
<path d="M205.1750 174.2500
L201.7750 174.2500
" />
<path d="M321.6800 228.5850
L325.0800 228.5850
" />
<path d="M321.6800 231.5850
L321.6800 228.5850
" />
<path d="M325.0800 228.5850
L325.0800 231.5850
" />
<path d="M325.0800 231.5850
L321.6800 231.5850
" />
<path d="M312.1550 207.1540
L315.5550 207.1540
" />
<path d="M312.1550 210.1540
L312.1550 207.1540
" />
<path d="M315.5550 207.1540
L315.5550 210.1540
" />
<path d="M315.5550 210.1540
L312.1550 210.1540
" />
<path d="M369.3050 211.9170
L372.7050 211.9170
" />
<path d="M369.3050 214.9170
L369.3050 211.9170
" />
<path d="M372.7050 211.9170
L372.7050 214.9170
" />
<path d="M372.7050 214.9170
L369.3050 214.9170
" />
<path d="M388.3550 173.7660
L391.7550 173.7660
" />
<path d="M388.3550 176.7660
L388.3550 173.7660
" />
<path d="M391.7550 173.7660
L391.7550 176.7660
" />
<path d="M391.7550 176.7660
L388.3550 176.7660
" />
<path d="M163.6750 185.5630
L167.0750 185.5630
" />
<path d="M163.6750 188.5630
L163.6750 185.5630
" />
<path d="M167.0750 185.5630
L167.0750 188.5630
" />
<path d="M167.0750 188.5630
L163.6750 188.5630
" />
<path d="M331.2050 185.7230
L334.6050 185.7230
" />
<path d="M331.2050 188.7230
L331.2050 185.7230
" />
<path d="M334.6050 185.7230
L334.6050 188.7230
" />
<path d="M334.6050 188.7230
L331.2050 188.7230
" />
<path d="M144.6250 168.8820
L148.0250 168.8820
" />
<path d="M144.6250 171.8820
L144.6250 168.8820
" />
<path d="M148.0250 168.8820
L148.0250 171.8820
" />
<path d="M148.0250 171.8820
L144.6250 171.8820
" />
<path d="M293.1050 171.4100
L296.5050 171.4100
" />
<path d="M293.1050 174.4100
L293.1050 171.4100
" />
<path d="M296.5050 171.4100
L296.5050 174.4100
" />
<path d="M296.5050 174.4100
L293.1050 174.4100
" />
</g>
<g style="fill:none; 
stroke:#000000; stroke-width:0.0500; stroke-opacity:1; 
stroke-linecap:round; stroke-linejoin:round;">
<path d="M275.4200 245.8400
L259.4200 211.8400
" />
<path d="M301.4200 156.8400
L303.4200 154.8400
" />
<path d="M361.4200 218.8400
L356.4200 213.8400
" />
<path d="M365.4200 158.8400
L401.4200 158.8400
" />
<path d="M335.4200 235.8400
L313.4200 235.8400
" />
<path d="M216.7500 159.8400
L213.7500 156.8400
" />
<path d="M221.7500 247.8400
L221.6700 248.0000
" />
<path d="M136.7500 218.8400
L141.7500 213.8400
" />
<path d="M401.4200 158.8400
L401.4200 218.8400
" />
<path d="M275.4200 245.8400
L276.4200 247.8400
" />
<path d="M356.4200 213.8400
L339.4200 213.8400
" />
<path d="M162.7500 217.8400
L162.7500 235.8400
" />
<path d="M335.4200 217.8400
L335.4200 235.8400
" />
<path d="M303.4200 154.8400
L319.4200 154.8400
" />
<path d="M178.7500 154.8400
L177.7500 154.8400
" />
<path d="M222.7500 245.8400
L238.7500 211.8400
" />
<path d="M361.4200 154.8400
L365.4200 158.8400
" />
<path d="M175.7500 152.8400
L154.7500 152.8400
" />
<path d="M345.4200 154.8400
L361.4200 154.8400
" />
<path d="M158.7500 213.8400
L162.7500 217.8400
" />
<path d="M284.4200 156.8400
L300.4200 156.8400
" />
<path d="M222.7500 245.8400
L221.7500 247.8400
" />
<path d="M339.4200 213.8400
L335.4200 217.8400
" />
<path d="M281.4200 159.8400
L284.4200 156.8400
" />
<path d="M197.7500 156.8400
L196.7500 156.8400
" />
<path d="M259.4200 211.8400
L259.4200 159.8400
" />
<path d="M295.4200 239.8400
L279.4200 246.8400
" />
<path d="M162.7500 235.8400
L184.7500 235.8400
" />
<path d="M177.7500 154.8400
L175.7500 152.8400
" />
<path d="M196.7500 156.8400
L194.7500 154.8400
" />
<path d="M141.7500 213.8400
L158.7500 213.8400
" />
<path d="M320.4200 154.8400
L322.4200 152.8400
" />
<path d="M343.4200 152.8400
L345.4200 154.8400
" />
<path d="M259.4200 159.8400
L281.4200 159.8400
" />
<path d="M184.7500 235.8400
L202.7500 239.8400
" />
<path d="M96.7500 158.8400
L96.7500 218.8400
" />
<path d="M154.7500 152.8400
L152.7500 154.8400
" />
<path d="M194.7500 154.8400
L178.7500 154.8400
" />
<path d="M322.4200 152.8400
L343.4200 152.8400
" />
<path d="M238.7500 211.8400
L238.7500 159.8400
" />
<path d="M238.7500 159.8400
L216.7500 159.8400
" />
<path d="M313.4200 235.8400
L295.4200 239.8400
" />
<path d="M213.7500 156.8400
L197.7500 156.8400
" />
<path d="M202.7500 239.8400
L218.7500 246.8400
" />
<path d="M218.7500 246.8400
L221.6700 248.0000
" />
<path d="M279.4200 246.8400
L276.5000 248.0000
" />
<path d="M319.4200 154.8400
L320.4200 154.8400
" />
<path d="M401.4200 218.8400
L361.4200 218.8400
" />
<path d="M276.4200 247.8400
L276.5000 248.0000
" />
<path d="M96.7500 218.8400
L136.7500 218.8400
" />
<path d="M300.4200 156.8400
L301.4200 156.8400
" />
<path d="M136.7500 154.8400
L132.7500 158.8400
" />
<path d="M132.7500 158.8400
L96.7500 158.8400
" />
<path d="M152.7500 154.8400
L136.7500 154.8400
" />
</g>
<g style="fill:none; 
stroke:#000000; stroke-width:0.1200; stroke-opacity:1; 
stroke-linecap:round; stroke-linejoin:round;">
<path d="M350.2550 169.0420
L353.6550 169.0420
" />
<path d="M350.2550 172.0420
L350.2550 169.0420
" />
<path d="M353.6550 169.0420
L353.6550 172.0420
" />
<path d="M353.6550 172.0420
L350.2550 172.0420
" />
<path d="M201.7750 209.3750
L205.1750 209.3750
" />
<path d="M201.7750 212.3750
L201.7750 209.3750
" />
<path d="M205.1750 209.3750
L205.1750 212.3750
" />
<path d="M205.1750 212.3750
L201.7750 212.3750
" />
<path d="M301.6515 231.0854
L304.9780 230.3821
" />
<path d="M302.2720 234.0205
L301.6515 231.0854
" />
<path d="M304.9780 230.3821
L305.5985 233.3172
" />
<path d="M305.5985 233.3172
L302.2720 234.0205
" />
<path d="M125.5750 192.7070
L128.9750 192.7070
" />
<path d="M125.5750 195.7070
L125.5750 192.7070
" />
<path d="M128.9750 192.7070
L128.9750 195.7070
" />
<path d="M128.9750 195.7070
L125.5750 195.7070
" />
<path d="M350.2550 188.1040
L353.6550 188.1040
" />
<path d="M350.2550 191.1040
L350.2550 188.1040
" />
<path d="M353.6550 188.1040
L353.6550 191.1040
" />
<path d="M353.6550 191.1040
L350.2550 191.1040
" />
<path d="M331.2050 166.6730
L334.6050 166.6730
" />
<path d="M331.2050 169.6730
L331.2050 166.6730
" />
<path d="M334.6050 166.6730
L334.6050 169.6730
" />
<path d="M334.6050 169.6730
L331.2050 169.6730
" />
<path d="M106.5250 173.6060
L109.9250 173.6060
" />
<path d="M106.5250 176.6060
L106.5250 173.6060
" />
<path d="M109.9250 173.6060
L109.9250 176.6060
" />
<path d="M109.9250 176.6060
L106.5250 176.6060
" />
<path d="M163.6750 166.5130
L167.0750 166.5130
" />
<path d="M163.6750 169.5130
L163.6750 166.5130
" />
<path d="M167.0750 166.5130
L167.0750 169.5130
" />
<path d="M167.0750 169.5130
L163.6750 169.5130
" />
<path d="M293.1050 209.5350
L296.5050 209.5350
" />
<path d="M293.1050 212.5350
L293.1050 209.5350
" />
<path d="M296.5050 209.5350
L296.5050 212.5350
" />
<path d="M296.5050 212.5350
L293.1050 212.5350
" />
<path d="M388.3550 192.8610
L391.7550 192.8610
" />
<path d="M388.3550 195.8610
L388.3550 192.8610
" />
<path d="M391.7550 192.8610
L391.7550 195.8610
" />
<path d="M391.7550 195.8610
L388.3550 195.8610
" />
<path d="M182.7250 187.9440
L186.1250 187.9440
" />
<path d="M182.7250 190.9440
L182.7250 187.9440
" />
<path d="M186.1250 187.9440
L186.1250 190.9440
" />
<path d="M186.1250 190.9440
L182.7250 190.9440
" />
<path d="M293.1050 190.4850
L296.5050 190.4850
" />
<path d="M293.1050 193.4850
L293.1050 190.4850
" />
<path d="M296.5050 190.4850
L296.5050 193.4850
" />
<path d="M296.5050 193.4850
L293.1050 193.4850
" />
<path d="M211.3866 238.8001
L212.6011 236.0569
" />
<path d="M212.6011 236.0569
L215.7100 237.4333
" />
<path d="M214.4956 240.1765
L211.3866 238.8001
" />
<path d="M215.7100 237.4333
L214.4956 240.1765
" />
<path d="M144.6250 206.9940
L148.0250 206.9940
" />
<path d="M144.6250 209.9940
L144.6250 206.9940
" />
<path d="M148.0250 206.9940
L148.0250 209.9940
" />
<path d="M148.0250 209.9940
L144.6250 209.9940
" />
<path d="M173.2000 228.4250
L176.6000 228.4250
" />
<path d="M173.2000 231.4250
L173.2000 228.4250
" />
<path d="M176.6000 228.4250
L176.6000 231.4250
" />
<path d="M176.6000 231.4250
L173.2000 231.4250
" />
<path d="M106.5250 211.7810
L109.9250 211.7810
" />
<path d="M106.5250 214.7810
L106.5250 211.7810
" />
<path d="M109.9250 211.7810
L109.9250 214.7810
" />
<path d="M109.9250 214.7810
L106.5250 214.7810
" />
<path d="M182.6750 168.9200
L186.0750 168.9200
" />
<path d="M182.6750 171.9200
L182.6750 168.9200
" />
<path d="M186.0750 168.9200
L186.0750 171.9200
" />
<path d="M186.0750 171.9200
L182.6750 171.9200
" />
<path d="M163.6750 204.6130
L167.0750 204.6130
" />
<path d="M163.6750 207.6130
L163.6750 204.6130
" />
<path d="M167.0750 204.6130
L167.0750 207.6130
" />
<path d="M167.0750 207.6130
L163.6750 207.6130
" />
<path d="M201.7750 190.3250
L205.1750 190.3250
" />
<path d="M201.7750 193.3250
L201.7750 190.3250
" />
<path d="M205.1750 190.3250
L205.1750 193.3250
" />
<path d="M205.1750 193.3250
L201.7750 193.3250
" />
<path d="M369.3050 173.7790
L372.7050 173.7790
" />
<path d="M369.3050 176.7790
L369.3050 173.7790
" />
<path d="M372.7050 173.7790
L372.7050 176.7790
" />
<path d="M372.7050 176.7790
L369.3050 176.7790
" />
<path d="M192.6815 233.1572
L193.3020 230.2221
" />
<path d="M193.3020 230.2221
L196.6285 230.9254
" />
<path d="M196.0080 233.8605
L192.6815 233.1572
" />
<path d="M196.6285 230.9254
L196.0080 233.8605
" />
<path d="M106.5250 192.7010
L109.9250 192.7010
" />
<path d="M106.5250 195.7010
L106.5250 192.7010
" />
<path d="M109.9250 192.7010
L109.9250 195.7010
" />
<path d="M109.9250 195.7010
L106.5250 195.7010
" />
<path d="M350.2550 207.1540
L353.6550 207.1540
" />
<path d="M350.2550 210.1540
L350.2550 207.1540
" />
<path d="M353.6550 207.1540
L353.6550 210.1540
" />
<path d="M353.6550 210.1540
L350.2550 210.1540
" />
<path d="M125.5750 211.7570
L128.9750 211.7570
" />
<path d="M125.5750 214.7570
L125.5750 211.7570
" />
<path d="M128.9750 211.7570
L128.9750 214.7570
" />
<path d="M128.9750 214.7570
L125.5750 214.7570
" />
<path d="M282.5700 237.5933
L285.6789 236.2169
" />
<path d="M283.7844 240.3365
L282.5700 237.5933
" />
<path d="M285.6789 236.2169
L286.8934 238.9601
" />
<path d="M286.8934 238.9601
L283.7844 240.3365
" />
<path d="M182.7250 206.9940
L186.1250 206.9940
" />
<path d="M182.7250 209.9940
L182.7250 206.9940
" />
<path d="M186.1250 206.9940
L186.1250 209.9940
" />
<path d="M186.1250 209.9940
L182.7250 209.9940
" />
<path d="M125.5750 173.6190
L128.9750 173.6190
" />
<path d="M125.5750 176.6190
L125.5750 173.6190
" />
<path d="M128.9750 173.6190
L128.9750 176.6190
" />
<path d="M128.9750 176.6190
L125.5750 176.6190
" />
<path d="M369.3050 192.8670
L372.7050 192.8670
" />
<path d="M369.3050 195.8670
L369.3050 192.8670
" />
<path d="M372.7050 192.8670
L372.7050 195.8670
" />
<path d="M372.7050 195.8670
L369.3050 195.8670
" />
<path d="M312.1550 188.1040
L315.5550 188.1040
" />
<path d="M312.1550 191.1040
L312.1550 188.1040
" />
<path d="M315.5550 188.1040
L315.5550 191.1040
" />
<path d="M315.5550 191.1040
L312.1550 191.1040
" />
<path d="M312.2050 169.0800
L315.6050 169.0800
" />
<path d="M312.2050 172.0800
L312.2050 169.0800
" />
<path d="M315.6050 169.0800
L315.6050 172.0800
" />
<path d="M315.6050 172.0800
L312.2050 172.0800
" />
<path d="M388.3550 211.9410
L391.7550 211.9410
" />
<path d="M388.3550 214.9410
L388.3550 211.9410
" />
<path d="M391.7550 211.9410
L391.7550 214.9410
" />
<path d="M391.7550 214.9410
L388.3550 214.9410
" />
<path d="M331.2050 204.7730
L334.6050 204.7730
" />
<path d="M331.2050 207.7730
L331.2050 204.7730
" />
<path d="M334.6050 204.7730
L334.6050 207.7730
" />
<path d="M334.6050 207.7730
L331.2050 207.7730
" />
<path d="M144.6250 187.9440
L148.0250 187.9440
" />
<path d="M144.6250 190.9440
L144.6250 187.9440
" />
<path d="M148.0250 187.9440
L148.0250 190.9440
" />
<path d="M148.0250 190.9440
L144.6250 190.9440
" />
<path d="M201.7750 171.2500
L205.1750 171.2500
" />
<path d="M201.7750 174.2500
L201.7750 171.2500
" />
<path d="M205.1750 171.2500
L205.1750 174.2500
" />
<path d="M205.1750 174.2500
L201.7750 174.2500
" />
<path d="M321.6800 228.5850
L325.0800 228.5850
" />
<path d="M321.6800 231.5850
L321.6800 228.5850
" />
<path d="M325.0800 228.5850
L325.0800 231.5850
" />
<path d="M325.0800 231.5850
L321.6800 231.5850
" />
<path d="M312.1550 207.1540
L315.5550 207.1540
" />
<path d="M312.1550 210.1540
L312.1550 207.1540
" />
<path d="M315.5550 207.1540
L315.5550 210.1540
" />
<path d="M315.5550 210.1540
L312.1550 210.1540
" />
<path d="M369.3050 211.9170
L372.7050 211.9170
" />
<path d="M369.3050 214.9170
L369.3050 211.9170
" />
<path d="M372.7050 211.9170
L372.7050 214.9170
" />
<path d="M372.7050 214.9170
L369.3050 214.9170
" />
<path d="M388.3550 173.7660
L391.7550 173.7660
" />
<path d="M388.3550 176.7660
L388.3550 173.7660
" />
<path d="M391.7550 173.7660
L391.7550 176.7660
" />
<path d="M391.7550 176.7660
L388.3550 176.7660
" />
<path d="M163.6750 185.5630
L167.0750 185.5630
" />
<path d="M163.6750 188.5630
L163.6750 185.5630
" />
<path d="M167.0750 185.5630
L167.0750 188.5630
" />
<path d="M167.0750 188.5630
L163.6750 188.5630
" />
<path d="M331.2050 185.7230
L334.6050 185.7230
" />
<path d="M331.2050 188.7230
L331.2050 185.7230
" />
<path d="M334.6050 185.7230
L334.6050 188.7230
" />
<path d="M334.6050 188.7230
L331.2050 188.7230
" />
<path d="M144.6250 168.8820
L148.0250 168.8820
" />
<path d="M144.6250 171.8820
L144.6250 168.8820
" />
<path d="M148.0250 168.8820
L148.0250 171.8820
" />
<path d="M148.0250 171.8820
L144.6250 171.8820
" />
<path d="M293.1050 171.4100
L296.5050 171.4100
" />
<path d="M293.1050 174.4100
L293.1050 171.4100
" />
<path d="M296.5050 171.4100
L296.5050 174.4100
" />
<path d="M296.5050 174.4100
L293.1050 174.4100
" />
</g> 
</svg>
