%TF.GenerationSoftware,KiCad,Pcbnew,8.0.6*%
%TF.CreationDate,2024-10-21T22:58:35-05:00*%
%TF.ProjectId,HackPad,4861636b-5061-4642-9e6b-696361645f70,rev?*%
%TF.SameCoordinates,Original*%
%TF.FileFunction,Copper,L2,Bot*%
%TF.FilePolarity,Positive*%
%FSLAX46Y46*%
G04 Gerber Fmt 4.6, Leading zero omitted, Abs format (unit mm)*
G04 Created by KiCad (PCBNEW 8.0.6) date 2024-10-21 22:58:35*
%MOMM*%
%LPD*%
G01*
G04 APERTURE LIST*
G04 Aperture macros list*
%AMRoundRect*
0 Rectangle with rounded corners*
0 $1 Rounding radius*
0 $2 $3 $4 $5 $6 $7 $8 $9 X,Y pos of 4 corners*
0 Add a 4 corners polygon primitive as box body*
4,1,4,$2,$3,$4,$5,$6,$7,$8,$9,$2,$3,0*
0 Add four circle primitives for the rounded corners*
1,1,$1+$1,$2,$3*
1,1,$1+$1,$4,$5*
1,1,$1+$1,$6,$7*
1,1,$1+$1,$8,$9*
0 Add four rect primitives between the rounded corners*
20,1,$1+$1,$2,$3,$4,$5,0*
20,1,$1+$1,$4,$5,$6,$7,0*
20,1,$1+$1,$6,$7,$8,$9,0*
20,1,$1+$1,$8,$9,$2,$3,0*%
G04 Aperture macros list end*
%TA.AperFunction,ComponentPad*%
%ADD10C,2.200000*%
%TD*%
%TA.AperFunction,ComponentPad*%
%ADD11R,2.000000X2.000000*%
%TD*%
%TA.AperFunction,ComponentPad*%
%ADD12C,2.000000*%
%TD*%
%TA.AperFunction,ComponentPad*%
%ADD13R,3.200000X2.000000*%
%TD*%
%TA.AperFunction,SMDPad,CuDef*%
%ADD14RoundRect,0.152400X-1.063600X-0.609600X1.063600X-0.609600X1.063600X0.609600X-1.063600X0.609600X0*%
%TD*%
%TA.AperFunction,ComponentPad*%
%ADD15C,1.524000*%
%TD*%
%TA.AperFunction,SMDPad,CuDef*%
%ADD16RoundRect,0.152400X1.063600X0.609600X-1.063600X0.609600X-1.063600X-0.609600X1.063600X-0.609600X0*%
%TD*%
%TA.AperFunction,Conductor*%
%ADD17C,0.200000*%
%TD*%
G04 APERTURE END LIST*
D10*
%TO.P,SW4,1,1*%
%TO.N,GND*%
X151460000Y-61420000D03*
%TO.P,SW4,2,2*%
%TO.N,Net-(U1-PA11_A3_D3)*%
X145110000Y-63960000D03*
%TD*%
D11*
%TO.P,RE7,A,A*%
%TO.N,Net-(U1-PA9_A5_D5_SCL)*%
X104500000Y-57000000D03*
D12*
%TO.P,RE7,B,B*%
%TO.N,Net-(U1-PA8_A4_D4_SDA)*%
X104500000Y-62000000D03*
%TO.P,RE7,C,C*%
%TO.N,GND*%
X104500000Y-59500000D03*
D13*
%TO.P,RE7,MP*%
%TO.N,N/C*%
X112000000Y-53900000D03*
X112000000Y-65100000D03*
D12*
%TO.P,RE7,S1,S1*%
%TO.N,Net-(U1-PB08_A6_D6_TX)*%
X119000000Y-62000000D03*
%TO.P,RE7,S2,S2*%
%TO.N,GND*%
X119000000Y-57000000D03*
%TD*%
D11*
%TO.P,RE6,A,A*%
%TO.N,Net-(U1-PA5_A9_D9_MISO)*%
X104500000Y-42500000D03*
D12*
%TO.P,RE6,B,B*%
%TO.N,Net-(U1-PA7_A8_D8_SCK)*%
X104500000Y-47500000D03*
%TO.P,RE6,C,C*%
%TO.N,GND*%
X104500000Y-45000000D03*
D13*
%TO.P,RE6,MP*%
%TO.N,N/C*%
X112000000Y-39400000D03*
X112000000Y-50600000D03*
D12*
%TO.P,RE6,S1,S1*%
%TO.N,Net-(U1-PA6_A10_D10_MOSI)*%
X119000000Y-47500000D03*
%TO.P,RE6,S2,S2*%
%TO.N,GND*%
X119000000Y-42500000D03*
%TD*%
D10*
%TO.P,SW2,1,1*%
%TO.N,GND*%
X132500000Y-61500000D03*
%TO.P,SW2,2,2*%
%TO.N,Net-(U1-PA4_A1_D1)*%
X126150000Y-64040000D03*
%TD*%
%TO.P,SW3,1,1*%
%TO.N,GND*%
X151620000Y-42420000D03*
%TO.P,SW3,2,2*%
%TO.N,Net-(U1-PA10_A2_D2)*%
X145270000Y-44960000D03*
%TD*%
%TO.P,SW1,1,1*%
%TO.N,GND*%
X132460000Y-42420000D03*
%TO.P,SW1,2,2*%
%TO.N,Net-(U1-PA02_A0_D0)*%
X126110000Y-44960000D03*
%TD*%
D14*
%TO.P,U1,1,PA02_A0_D0*%
%TO.N,Net-(U1-PA02_A0_D0)*%
X138375000Y-40648500D03*
D15*
X137540000Y-40648500D03*
D14*
%TO.P,U1,2,PA4_A1_D1*%
%TO.N,Net-(U1-PA4_A1_D1)*%
X138375000Y-43188500D03*
D15*
X137540000Y-43188500D03*
D14*
%TO.P,U1,3,PA10_A2_D2*%
%TO.N,Net-(U1-PA10_A2_D2)*%
X138375000Y-45728500D03*
D15*
X137540000Y-45728500D03*
D14*
%TO.P,U1,4,PA11_A3_D3*%
%TO.N,Net-(U1-PA11_A3_D3)*%
X138375000Y-48268500D03*
D15*
X137540000Y-48268500D03*
D14*
%TO.P,U1,5,PA8_A4_D4_SDA*%
%TO.N,Net-(U1-PA8_A4_D4_SDA)*%
X138375000Y-50808500D03*
D15*
X137540000Y-50808500D03*
D14*
%TO.P,U1,6,PA9_A5_D5_SCL*%
%TO.N,Net-(U1-PA9_A5_D5_SCL)*%
X138375000Y-53348500D03*
D15*
X137540000Y-53348500D03*
D14*
%TO.P,U1,7,PB08_A6_D6_TX*%
%TO.N,Net-(U1-PB08_A6_D6_TX)*%
X138375000Y-55888500D03*
D15*
X137540000Y-55888500D03*
%TO.P,U1,8,PB09_A7_D7_RX*%
%TO.N,unconnected-(U1-PB09_A7_D7_RX-Pad8)*%
X122300000Y-55888500D03*
D16*
X121465000Y-55888500D03*
D15*
%TO.P,U1,9,PA7_A8_D8_SCK*%
%TO.N,Net-(U1-PA7_A8_D8_SCK)*%
X122300000Y-53348500D03*
D16*
X121465000Y-53348500D03*
D15*
%TO.P,U1,10,PA5_A9_D9_MISO*%
%TO.N,Net-(U1-PA5_A9_D9_MISO)*%
X122300000Y-50808500D03*
D16*
X121465000Y-50808500D03*
D15*
%TO.P,U1,11,PA6_A10_D10_MOSI*%
%TO.N,Net-(U1-PA6_A10_D10_MOSI)*%
X122300000Y-48268500D03*
D16*
X121465000Y-48268500D03*
D15*
%TO.P,U1,12,3V3*%
%TO.N,unconnected-(U1-3V3-Pad12)*%
X122300000Y-45728500D03*
D16*
X121465000Y-45728500D03*
D15*
%TO.P,U1,13,GND*%
%TO.N,GND*%
X122300000Y-43188500D03*
D16*
X121465000Y-43188500D03*
D15*
%TO.P,U1,14,5V*%
%TO.N,unconnected-(U1-5V-Pad14)*%
X122300000Y-40648500D03*
D16*
X121465000Y-40648500D03*
%TD*%
D17*
%TO.N,Net-(U1-PA02_A0_D0)*%
X137540000Y-40648500D02*
X130421500Y-40648500D01*
X130421500Y-40648500D02*
X126110000Y-44960000D01*
%TO.N,Net-(U1-PA4_A1_D1)*%
X133800000Y-46928500D02*
X133800000Y-56390000D01*
X137540000Y-43188500D02*
X133800000Y-46928500D01*
X133800000Y-56390000D02*
X126150000Y-64040000D01*
%TO.N,Net-(U1-PA11_A3_D3)*%
X137540000Y-48268500D02*
X138617630Y-48268500D01*
X138617630Y-48268500D02*
X145110000Y-54760870D01*
X145110000Y-54760870D02*
X145110000Y-63960000D01*
%TO.N,Net-(U1-PB08_A6_D6_TX)*%
X127950000Y-65207056D02*
X125377056Y-67780000D01*
X137540000Y-55888500D02*
X135687287Y-55888500D01*
X127950000Y-63625787D02*
X127950000Y-65207056D01*
X125377056Y-67780000D02*
X124382944Y-67780000D01*
X124382944Y-67780000D02*
X119000000Y-62397056D01*
X119000000Y-62397056D02*
X119000000Y-62000000D01*
X135687287Y-55888500D02*
X127950000Y-63625787D01*
%TO.N,Net-(U1-PA8_A4_D4_SDA)*%
X127550000Y-64619899D02*
X126729899Y-65440000D01*
X125570101Y-65440000D02*
X120630101Y-60500000D01*
X126729899Y-65440000D02*
X125570101Y-65440000D01*
X134200000Y-56810101D02*
X127550000Y-63460101D01*
X106000000Y-60500000D02*
X104500000Y-62000000D01*
X134200000Y-54148500D02*
X134200000Y-56810101D01*
X137540000Y-50808500D02*
X134200000Y-54148500D01*
X120630101Y-60500000D02*
X106000000Y-60500000D01*
X127550000Y-63460101D02*
X127550000Y-64619899D01*
%TD*%
M02*
