0
SECTION
2
HEADER
9
$INSUNITS
70
4
9
$ACADVER
1
AC1014
9
$HANDSEED
5
FFFF
0
ENDSEC
0
SECTION
2
TABLES
0
TABLE
2
VPORT
5
8
100
AcDbSymbolTable
0
ENDTAB
0
TABLE
2
LTYPE
5
5
100
AcDbSymbolTable
0
LTYPE
5
14
100
AcDbSymbolTableRecord
100
AcDbLinetypeTableRecord
2
BYBLOCK
70
0
0
LTYPE
5
15
100
AcDbSymbolTableRecord
100
AcDbLinetypeTableRecord
2
BYLAYER
70
0
0
LTYPE
5
16
100
AcDbSymbolTableRecord
100
AcDbLinetypeTableRecord
2
DASHED
70
0
3
Dashed __ __ __ __ __ __ __ __ __ __ __ __ __ _
72
65
73
2
40
0.75
49
0.5
74
0
49
-0.25
74
0
0
ENDTAB
0
TABLE
2
LAYER
5
2
100
AcDbSymbolTable
70
3
0
LAYER
5
50
100
AcDbSymbolTableRecord
100
AcDbLayerTableRecord
2
1
70
0
62
7
6
DASHED
0
LAYER
5
51
100
AcDbSymbolTableRecord
100
AcDbLayerTableRecord
2
0
70
0
62
7
6
CONTINUOUS
0
ENDTAB
0
TABLE
2
STYLE
5
3
100
AcDbSymbolTable
70
1
0
STYLE
5
11
100
AcDbSymbolTableRecord
100
AcDbTextStyleTableRecord
2
STANDARD
70
0
0
ENDTAB
0
TABLE
2
VIEW
5
6
100
AcDbSymbolTable
70
0
0
ENDTAB
0
TABLE
2
UCS
5
7
100
AcDbSymbolTable
70
0
0
ENDTAB
0
TABLE
2
APPID
5
9
100
AcDbSymbolTable
70
2
0
APPID
5
12
100
AcDbSymbolTableRecord
100
AcDbRegAppTableRecord
2
ACAD
70
0
0
ENDTAB
0
TABLE
2
DIMSTYLE
5
A
100
AcDbSymbolTable
70
1
0
ENDTAB
0
TABLE
2
BLOCK_RECORD
5
1
100
AcDbSymbolTable
70
1
0
BLOCK_RECORD
5
1F
100
AcDbSymbolTableRecord
100
AcDbBlockTableRecord
2
*MODEL_SPACE
0
BLOCK_RECORD
5
1B
100
AcDbSymbolTableRecord
100
AcDbBlockTableRecord
2
*PAPER_SPACE
0
ENDTAB
0
ENDSEC
0
SECTION
2
BLOCKS
0
BLOCK
5
20
100
AcDbEntity
100
AcDbBlockBegin
2
*MODEL_SPACE
0
ENDBLK
5
21
100
AcDbEntity
100
AcDbBlockEnd
0
BLOCK
5
1C
100
AcDbEntity
100
AcDbBlockBegin
2
*PAPER_SPACE
0
ENDBLK
5
1D
100
AcDbEntity
100
AcDbBlockEnd
0
ENDSEC
0
SECTION
2
ENTITIES
0
LWPOLYLINE
5
100
100
AcDbEntity
8
0
100
AcDbPolyline
90
12
70
1
43
0.0
10
-58.702338600000004
20
-139.84769099999988
42
0.41421356237309176
10
-62.702338600000012
20
-135.84769099999986
10
-343.33133860000004
20
-135.84769099999988
42
0.41421356237309631
10
-347.33133860000004
20
-139.84769099999988
10
-347.33133860000009
20
-241.86169099999995
42
0.41421356237309764
10
-343.33133860000004
20
-245.86169099999995
10
-213.51683860000003
20
-245.86169099999992
10
-213.51683860000003
20
-241.36169099999995
10
-192.5168386
20
-241.36169099999995
10
-192.5168386
20
-245.86169099999992
10
-62.702338600000012
20
-245.86169099999992
42
0.41421356237309503
10
-58.702338600000026
20
-241.86169099999995
0
CIRCLE
5
101
100
AcDbEntity
8
0
100
AcDbCircle
10
-60.957838600000073
20
-237.08077171046506
30
0
40
1.1000000000000001
210
0
220
-0
230
1
0
LWPOLYLINE
5
102
100
AcDbEntity
8
0
100
AcDbPolyline
90
4
70
1
43
0.0
10
-225.20983860000001
20
-142.87269099999989
10
-225.20983860000001
20
-238.83669099999992
10
-340.29483860000016
20
-238.83669099999992
10
-340.29483860000016
20
-142.87269099999989
0
CIRCLE
5
103
100
AcDbEntity
8
0
100
AcDbCircle
10
-60.957838600000073
20
-145.26677171046487
30
0
40
1.0999999999999943
210
0
220
-0
230
1
0
LWPOLYLINE
5
104
100
AcDbEntity
8
0
100
AcDbPolyline
90
4
70
1
43
0.0
10
-180.82383859999999
20
-238.83669099999992
10
-180.82383859999999
20
-142.87269099999989
10
-65.738838600000093
20
-142.87269099999989
10
-65.738838600000093
20
-238.83669099999992
0
CIRCLE
5
105
100
AcDbEntity
8
0
100
AcDbCircle
10
-345.07583860000011
20
-237.08077171046563
30
0
40
1.0999999999999943
210
0
220
-0
230
1
0
CIRCLE
5
106
100
AcDbEntity
8
0
100
AcDbCircle
10
-228.20983860000007
20
-138.09769099999988
30
0
40
1.0999999999999943
210
0
220
-0
230
1
0
CIRCLE
5
107
100
AcDbEntity
8
0
100
AcDbCircle
10
-345.07583860000011
20
-145.26677171046487
30
0
40
1.0999999999999943
210
0
220
-0
230
1
0
CIRCLE
5
108
100
AcDbEntity
8
0
100
AcDbCircle
10
-177.82383860000004
20
-243.61169099999989
30
0
40
1.0999999999999943
210
0
220
-0
230
1
0
CIRCLE
5
109
100
AcDbEntity
8
0
100
AcDbCircle
10
-228.20983860000007
20
-243.61169099999989
30
0
40
1.0999999999999943
210
0
220
-0
230
1
0
CIRCLE
5
110
100
AcDbEntity
8
0
100
AcDbCircle
10
-177.82383860000004
20
-138.09769099999988
30
0
40
1.0999999999999943
210
0
220
-0
230
1
0
LWPOLYLINE
5
111
100
AcDbEntity
8
0
100
AcDbPolyline
90
12
70
1
43
0.0
10
-58.702338600000004
20
-139.84769099999988
42
0.41421356237309503
10
-62.702338600000012
20
-135.84769099999986
10
-343.33133860000004
20
-135.84769099999988
42
0.41421356237309503
10
-347.33133860000009
20
-139.84769099999988
10
-347.33133860000009
20
-241.86169099999995
42
0.41421356237310025
10
-343.33133859999998
20
-245.86169099999992
10
-213.51683860000003
20
-245.86169099999992
10
-213.51683860000003
20
-241.36169099999995
10
-192.5168386
20
-241.36169099999995
10
-192.51683860000003
20
-245.86169099999992
10
-62.702338600000019
20
-245.86169099999992
42
0.41421356237309503
10
-58.702338600000019
20
-241.86169099999995
0
CIRCLE
5
112
100
AcDbEntity
8
0
100
AcDbCircle
10
-60.957838600000073
20
-237.08077171046506
30
0
40
1.1000000000000001
210
0
220
0
230
1
0
LWPOLYLINE
5
113
100
AcDbEntity
8
0
100
AcDbPolyline
90
4
70
1
43
0.0
10
-225.20983860000001
20
-142.87269099999997
10
-225.20983860000001
20
-238.83669099999995
10
-340.29483860000016
20
-238.83669099999992
10
-340.29483860000016
20
-142.87269099999989
0
CIRCLE
5
114
100
AcDbEntity
8
0
100
AcDbCircle
10
-60.957838600000073
20
-145.26677171046487
30
0
40
1.0999999999999943
210
-0
220
0
230
1
0
LWPOLYLINE
5
115
100
AcDbEntity
8
0
100
AcDbPolyline
90
4
70
1
43
0.0
10
-180.82383859999999
20
-238.83669099999992
10
-180.82383859999999
20
-142.87269099999992
10
-65.738838600000079
20
-142.87269099999989
10
-65.738838600000079
20
-238.83669099999992
0
CIRCLE
5
116
100
AcDbEntity
8
0
100
AcDbCircle
10
-345.07583860000011
20
-237.08077171046563
30
0
40
1.0999999999999943
210
-0
220
0
230
1
0
CIRCLE
5
117
100
AcDbEntity
8
0
100
AcDbCircle
10
-228.20983860000007
20
-138.09769099999988
30
0
40
1.0999999999999943
210
-0
220
0
230
1
0
CIRCLE
5
118
100
AcDbEntity
8
0
100
AcDbCircle
10
-345.07583860000011
20
-145.26677171046487
30
0
40
1.0999999999999943
210
-0
220
0
230
1
0
CIRCLE
5
119
100
AcDbEntity
8
0
100
AcDbCircle
10
-177.82383860000004
20
-243.61169099999989
30
0
40
1.0999999999999943
210
-0
220
0
230
1
0
CIRCLE
5
120
100
AcDbEntity
8
0
100
AcDbCircle
10
-228.20983860000007
20
-243.61169099999989
30
0
40
1.0999999999999943
210
-0
220
0
230
1
0
CIRCLE
5
121
100
AcDbEntity
8
0
100
AcDbCircle
10
-177.82383860000004
20
-138.09769099999988
30
0
40
1.0999999999999943
210
-0
220
0
230
1
0
ENDSEC
0
SECTION
2
OBJECTS
0
DICTIONARY
5
C
100
AcDbDictionary
3
ACAD_GROUP
350
D
3
ACAD_MLINESTYLE
350
17
0
DICTIONARY
5
D
100
AcDbDictionary
0
DICTIONARY
5
1A
330
C
100
AcDbDictionary
0
DICTIONARY
5
17
100
AcDbDictionary
0
ENDSEC
0
EOF
