%TF.GenerationSoftware,KiCad,Pcbnew,8.0.6*%
%TF.CreationDate,2024-10-21T23:56:26-04:00*%
%TF.ProjectId,Hackpad,4861636b-7061-4642-9e6b-696361645f70,rev?*%
%TF.SameCoordinates,Original*%
%TF.FileFunction,Drillmap*%
%TF.FilePolarity,Positive*%
%FSLAX45Y45*%
G04 Gerber Fmt 4.5, Leading zero omitted, Abs format (unit mm)*
G04 Created by KiCad (PCBNEW 8.0.6) date 2024-10-21 23:56:26*
%MOMM*%
%LPD*%
G01*
G04 APERTURE LIST*
%ADD10C,0.050000*%
%ADD11C,0.200000*%
%ADD12C,0.100000*%
%ADD13C,0.150000*%
G04 APERTURE END LIST*
D10*
X14550000Y-5600000D02*
X16700000Y-5600000D01*
X16700000Y-10800000D01*
X14550000Y-10800000D01*
X14550000Y-5600000D01*
D11*
D12*
X14800000Y-6050000D02*
X14900000Y-6150000D01*
X14900000Y-6050000D02*
X14800000Y-6150000D01*
X14800000Y-6304000D02*
X14900000Y-6404000D01*
X14900000Y-6304000D02*
X14800000Y-6404000D01*
X14800000Y-6558000D02*
X14900000Y-6658000D01*
X14900000Y-6558000D02*
X14800000Y-6658000D01*
X14800000Y-6812000D02*
X14900000Y-6912000D01*
X14900000Y-6812000D02*
X14800000Y-6912000D01*
X14800000Y-7066000D02*
X14900000Y-7166000D01*
X14900000Y-7066000D02*
X14800000Y-7166000D01*
X14800000Y-7320000D02*
X14900000Y-7420000D01*
X14900000Y-7320000D02*
X14800000Y-7420000D01*
X14800000Y-7574000D02*
X14900000Y-7674000D01*
X14900000Y-7574000D02*
X14800000Y-7674000D01*
X16325000Y-6050000D02*
X16425000Y-6150000D01*
X16425000Y-6050000D02*
X16325000Y-6150000D01*
X16325000Y-6304000D02*
X16425000Y-6404000D01*
X16425000Y-6304000D02*
X16325000Y-6404000D01*
X16325000Y-6558000D02*
X16425000Y-6658000D01*
X16425000Y-6558000D02*
X16325000Y-6658000D01*
X16325000Y-6812000D02*
X16425000Y-6912000D01*
X16425000Y-6812000D02*
X16325000Y-6912000D01*
X16325000Y-7066000D02*
X16425000Y-7166000D01*
X16425000Y-7066000D02*
X16325000Y-7166000D01*
X16325000Y-7320000D02*
X16425000Y-7420000D01*
X16425000Y-7320000D02*
X16325000Y-7420000D01*
X16325000Y-7574000D02*
X16425000Y-7674000D01*
X16425000Y-7574000D02*
X16325000Y-7674000D01*
D13*
X15314100Y-6500000D02*
G75*
G02*
X15164100Y-6500000I-75000J0D01*
G01*
X15164100Y-6500000D02*
G75*
G02*
X15314100Y-6500000I75000J0D01*
G01*
X15314100Y-8009000D02*
G75*
G02*
X15164100Y-8009000I-75000J0D01*
G01*
X15164100Y-8009000D02*
G75*
G02*
X15314100Y-8009000I75000J0D01*
G01*
X15314100Y-9518000D02*
G75*
G02*
X15164100Y-9518000I-75000J0D01*
G01*
X15164100Y-9518000D02*
G75*
G02*
X15314100Y-9518000I75000J0D01*
G01*
X15949100Y-6246000D02*
G75*
G02*
X15799100Y-6246000I-75000J0D01*
G01*
X15799100Y-6246000D02*
G75*
G02*
X15949100Y-6246000I75000J0D01*
G01*
X15949100Y-7755000D02*
G75*
G02*
X15799100Y-7755000I-75000J0D01*
G01*
X15799100Y-7755000D02*
G75*
G02*
X15949100Y-7755000I75000J0D01*
G01*
X15949100Y-9264000D02*
G75*
G02*
X15799100Y-9264000I-75000J0D01*
G01*
X15799100Y-9264000D02*
G75*
G02*
X15949100Y-9264000I75000J0D01*
G01*
D11*
X14808277Y-11113984D02*
X14808277Y-10913984D01*
X14808277Y-10913984D02*
X14855896Y-10913984D01*
X14855896Y-10913984D02*
X14884467Y-10923508D01*
X14884467Y-10923508D02*
X14903515Y-10942555D01*
X14903515Y-10942555D02*
X14913039Y-10961603D01*
X14913039Y-10961603D02*
X14922562Y-10999698D01*
X14922562Y-10999698D02*
X14922562Y-11028270D01*
X14922562Y-11028270D02*
X14913039Y-11066365D01*
X14913039Y-11066365D02*
X14903515Y-11085412D01*
X14903515Y-11085412D02*
X14884467Y-11104460D01*
X14884467Y-11104460D02*
X14855896Y-11113984D01*
X14855896Y-11113984D02*
X14808277Y-11113984D01*
X15008277Y-11113984D02*
X15008277Y-10980650D01*
X15008277Y-11018746D02*
X15017801Y-10999698D01*
X15017801Y-10999698D02*
X15027324Y-10990174D01*
X15027324Y-10990174D02*
X15046372Y-10980650D01*
X15046372Y-10980650D02*
X15065420Y-10980650D01*
X15132086Y-11113984D02*
X15132086Y-10980650D01*
X15132086Y-10913984D02*
X15122562Y-10923508D01*
X15122562Y-10923508D02*
X15132086Y-10933031D01*
X15132086Y-10933031D02*
X15141610Y-10923508D01*
X15141610Y-10923508D02*
X15132086Y-10913984D01*
X15132086Y-10913984D02*
X15132086Y-10933031D01*
X15255896Y-11113984D02*
X15236848Y-11104460D01*
X15236848Y-11104460D02*
X15227324Y-11085412D01*
X15227324Y-11085412D02*
X15227324Y-10913984D01*
X15360658Y-11113984D02*
X15341610Y-11104460D01*
X15341610Y-11104460D02*
X15332086Y-11085412D01*
X15332086Y-11085412D02*
X15332086Y-10913984D01*
X15589229Y-11113984D02*
X15589229Y-10913984D01*
X15589229Y-10913984D02*
X15655896Y-11056841D01*
X15655896Y-11056841D02*
X15722562Y-10913984D01*
X15722562Y-10913984D02*
X15722562Y-11113984D01*
X15903515Y-11113984D02*
X15903515Y-11009222D01*
X15903515Y-11009222D02*
X15893991Y-10990174D01*
X15893991Y-10990174D02*
X15874943Y-10980650D01*
X15874943Y-10980650D02*
X15836848Y-10980650D01*
X15836848Y-10980650D02*
X15817801Y-10990174D01*
X15903515Y-11104460D02*
X15884467Y-11113984D01*
X15884467Y-11113984D02*
X15836848Y-11113984D01*
X15836848Y-11113984D02*
X15817801Y-11104460D01*
X15817801Y-11104460D02*
X15808277Y-11085412D01*
X15808277Y-11085412D02*
X15808277Y-11066365D01*
X15808277Y-11066365D02*
X15817801Y-11047317D01*
X15817801Y-11047317D02*
X15836848Y-11037793D01*
X15836848Y-11037793D02*
X15884467Y-11037793D01*
X15884467Y-11037793D02*
X15903515Y-11028270D01*
X15998753Y-10980650D02*
X15998753Y-11180650D01*
X15998753Y-10990174D02*
X16017801Y-10980650D01*
X16017801Y-10980650D02*
X16055896Y-10980650D01*
X16055896Y-10980650D02*
X16074943Y-10990174D01*
X16074943Y-10990174D02*
X16084467Y-10999698D01*
X16084467Y-10999698D02*
X16093991Y-11018746D01*
X16093991Y-11018746D02*
X16093991Y-11075889D01*
X16093991Y-11075889D02*
X16084467Y-11094936D01*
X16084467Y-11094936D02*
X16074943Y-11104460D01*
X16074943Y-11104460D02*
X16055896Y-11113984D01*
X16055896Y-11113984D02*
X16017801Y-11113984D01*
X16017801Y-11113984D02*
X15998753Y-11104460D01*
X16179705Y-11094936D02*
X16189229Y-11104460D01*
X16189229Y-11104460D02*
X16179705Y-11113984D01*
X16179705Y-11113984D02*
X16170182Y-11104460D01*
X16170182Y-11104460D02*
X16179705Y-11094936D01*
X16179705Y-11094936D02*
X16179705Y-11113984D01*
X16179705Y-10990174D02*
X16189229Y-10999698D01*
X16189229Y-10999698D02*
X16179705Y-11009222D01*
X16179705Y-11009222D02*
X16170182Y-10999698D01*
X16170182Y-10999698D02*
X16179705Y-10990174D01*
X16179705Y-10990174D02*
X16179705Y-11009222D01*
D12*
X14447500Y-11392500D02*
X14547500Y-11492500D01*
X14547500Y-11392500D02*
X14447500Y-11492500D01*
D11*
X14913039Y-11533984D02*
X14798753Y-11533984D01*
X14855896Y-11533984D02*
X14855896Y-11333984D01*
X14855896Y-11333984D02*
X14836848Y-11362555D01*
X14836848Y-11362555D02*
X14817801Y-11381603D01*
X14817801Y-11381603D02*
X14798753Y-11391127D01*
X14998753Y-11514936D02*
X15008277Y-11524460D01*
X15008277Y-11524460D02*
X14998753Y-11533984D01*
X14998753Y-11533984D02*
X14989229Y-11524460D01*
X14989229Y-11524460D02*
X14998753Y-11514936D01*
X14998753Y-11514936D02*
X14998753Y-11533984D01*
X15132086Y-11333984D02*
X15151134Y-11333984D01*
X15151134Y-11333984D02*
X15170182Y-11343508D01*
X15170182Y-11343508D02*
X15179705Y-11353031D01*
X15179705Y-11353031D02*
X15189229Y-11372079D01*
X15189229Y-11372079D02*
X15198753Y-11410174D01*
X15198753Y-11410174D02*
X15198753Y-11457793D01*
X15198753Y-11457793D02*
X15189229Y-11495888D01*
X15189229Y-11495888D02*
X15179705Y-11514936D01*
X15179705Y-11514936D02*
X15170182Y-11524460D01*
X15170182Y-11524460D02*
X15151134Y-11533984D01*
X15151134Y-11533984D02*
X15132086Y-11533984D01*
X15132086Y-11533984D02*
X15113039Y-11524460D01*
X15113039Y-11524460D02*
X15103515Y-11514936D01*
X15103515Y-11514936D02*
X15093991Y-11495888D01*
X15093991Y-11495888D02*
X15084467Y-11457793D01*
X15084467Y-11457793D02*
X15084467Y-11410174D01*
X15084467Y-11410174D02*
X15093991Y-11372079D01*
X15093991Y-11372079D02*
X15103515Y-11353031D01*
X15103515Y-11353031D02*
X15113039Y-11343508D01*
X15113039Y-11343508D02*
X15132086Y-11333984D01*
X15322562Y-11333984D02*
X15341610Y-11333984D01*
X15341610Y-11333984D02*
X15360658Y-11343508D01*
X15360658Y-11343508D02*
X15370182Y-11353031D01*
X15370182Y-11353031D02*
X15379705Y-11372079D01*
X15379705Y-11372079D02*
X15389229Y-11410174D01*
X15389229Y-11410174D02*
X15389229Y-11457793D01*
X15389229Y-11457793D02*
X15379705Y-11495888D01*
X15379705Y-11495888D02*
X15370182Y-11514936D01*
X15370182Y-11514936D02*
X15360658Y-11524460D01*
X15360658Y-11524460D02*
X15341610Y-11533984D01*
X15341610Y-11533984D02*
X15322562Y-11533984D01*
X15322562Y-11533984D02*
X15303515Y-11524460D01*
X15303515Y-11524460D02*
X15293991Y-11514936D01*
X15293991Y-11514936D02*
X15284467Y-11495888D01*
X15284467Y-11495888D02*
X15274943Y-11457793D01*
X15274943Y-11457793D02*
X15274943Y-11410174D01*
X15274943Y-11410174D02*
X15284467Y-11372079D01*
X15284467Y-11372079D02*
X15293991Y-11353031D01*
X15293991Y-11353031D02*
X15303515Y-11343508D01*
X15303515Y-11343508D02*
X15322562Y-11333984D01*
X15513039Y-11333984D02*
X15532086Y-11333984D01*
X15532086Y-11333984D02*
X15551134Y-11343508D01*
X15551134Y-11343508D02*
X15560658Y-11353031D01*
X15560658Y-11353031D02*
X15570182Y-11372079D01*
X15570182Y-11372079D02*
X15579705Y-11410174D01*
X15579705Y-11410174D02*
X15579705Y-11457793D01*
X15579705Y-11457793D02*
X15570182Y-11495888D01*
X15570182Y-11495888D02*
X15560658Y-11514936D01*
X15560658Y-11514936D02*
X15551134Y-11524460D01*
X15551134Y-11524460D02*
X15532086Y-11533984D01*
X15532086Y-11533984D02*
X15513039Y-11533984D01*
X15513039Y-11533984D02*
X15493991Y-11524460D01*
X15493991Y-11524460D02*
X15484467Y-11514936D01*
X15484467Y-11514936D02*
X15474943Y-11495888D01*
X15474943Y-11495888D02*
X15465420Y-11457793D01*
X15465420Y-11457793D02*
X15465420Y-11410174D01*
X15465420Y-11410174D02*
X15474943Y-11372079D01*
X15474943Y-11372079D02*
X15484467Y-11353031D01*
X15484467Y-11353031D02*
X15493991Y-11343508D01*
X15493991Y-11343508D02*
X15513039Y-11333984D01*
X15665420Y-11533984D02*
X15665420Y-11400650D01*
X15665420Y-11419698D02*
X15674943Y-11410174D01*
X15674943Y-11410174D02*
X15693991Y-11400650D01*
X15693991Y-11400650D02*
X15722563Y-11400650D01*
X15722563Y-11400650D02*
X15741610Y-11410174D01*
X15741610Y-11410174D02*
X15751134Y-11429222D01*
X15751134Y-11429222D02*
X15751134Y-11533984D01*
X15751134Y-11429222D02*
X15760658Y-11410174D01*
X15760658Y-11410174D02*
X15779705Y-11400650D01*
X15779705Y-11400650D02*
X15808277Y-11400650D01*
X15808277Y-11400650D02*
X15827324Y-11410174D01*
X15827324Y-11410174D02*
X15836848Y-11429222D01*
X15836848Y-11429222D02*
X15836848Y-11533984D01*
X15932086Y-11533984D02*
X15932086Y-11400650D01*
X15932086Y-11419698D02*
X15941610Y-11410174D01*
X15941610Y-11410174D02*
X15960658Y-11400650D01*
X15960658Y-11400650D02*
X15989229Y-11400650D01*
X15989229Y-11400650D02*
X16008277Y-11410174D01*
X16008277Y-11410174D02*
X16017801Y-11429222D01*
X16017801Y-11429222D02*
X16017801Y-11533984D01*
X16017801Y-11429222D02*
X16027324Y-11410174D01*
X16027324Y-11410174D02*
X16046372Y-11400650D01*
X16046372Y-11400650D02*
X16074943Y-11400650D01*
X16074943Y-11400650D02*
X16093991Y-11410174D01*
X16093991Y-11410174D02*
X16103515Y-11429222D01*
X16103515Y-11429222D02*
X16103515Y-11533984D01*
X16493991Y-11324460D02*
X16322563Y-11581603D01*
X16751134Y-11333984D02*
X16770182Y-11333984D01*
X16770182Y-11333984D02*
X16789229Y-11343508D01*
X16789229Y-11343508D02*
X16798753Y-11353031D01*
X16798753Y-11353031D02*
X16808277Y-11372079D01*
X16808277Y-11372079D02*
X16817801Y-11410174D01*
X16817801Y-11410174D02*
X16817801Y-11457793D01*
X16817801Y-11457793D02*
X16808277Y-11495888D01*
X16808277Y-11495888D02*
X16798753Y-11514936D01*
X16798753Y-11514936D02*
X16789229Y-11524460D01*
X16789229Y-11524460D02*
X16770182Y-11533984D01*
X16770182Y-11533984D02*
X16751134Y-11533984D01*
X16751134Y-11533984D02*
X16732086Y-11524460D01*
X16732086Y-11524460D02*
X16722563Y-11514936D01*
X16722563Y-11514936D02*
X16713039Y-11495888D01*
X16713039Y-11495888D02*
X16703515Y-11457793D01*
X16703515Y-11457793D02*
X16703515Y-11410174D01*
X16703515Y-11410174D02*
X16713039Y-11372079D01*
X16713039Y-11372079D02*
X16722563Y-11353031D01*
X16722563Y-11353031D02*
X16732086Y-11343508D01*
X16732086Y-11343508D02*
X16751134Y-11333984D01*
X16903515Y-11514936D02*
X16913039Y-11524460D01*
X16913039Y-11524460D02*
X16903515Y-11533984D01*
X16903515Y-11533984D02*
X16893991Y-11524460D01*
X16893991Y-11524460D02*
X16903515Y-11514936D01*
X16903515Y-11514936D02*
X16903515Y-11533984D01*
X17036848Y-11333984D02*
X17055896Y-11333984D01*
X17055896Y-11333984D02*
X17074944Y-11343508D01*
X17074944Y-11343508D02*
X17084468Y-11353031D01*
X17084468Y-11353031D02*
X17093991Y-11372079D01*
X17093991Y-11372079D02*
X17103515Y-11410174D01*
X17103515Y-11410174D02*
X17103515Y-11457793D01*
X17103515Y-11457793D02*
X17093991Y-11495888D01*
X17093991Y-11495888D02*
X17084468Y-11514936D01*
X17084468Y-11514936D02*
X17074944Y-11524460D01*
X17074944Y-11524460D02*
X17055896Y-11533984D01*
X17055896Y-11533984D02*
X17036848Y-11533984D01*
X17036848Y-11533984D02*
X17017801Y-11524460D01*
X17017801Y-11524460D02*
X17008277Y-11514936D01*
X17008277Y-11514936D02*
X16998753Y-11495888D01*
X16998753Y-11495888D02*
X16989229Y-11457793D01*
X16989229Y-11457793D02*
X16989229Y-11410174D01*
X16989229Y-11410174D02*
X16998753Y-11372079D01*
X16998753Y-11372079D02*
X17008277Y-11353031D01*
X17008277Y-11353031D02*
X17017801Y-11343508D01*
X17017801Y-11343508D02*
X17036848Y-11333984D01*
X17170182Y-11333984D02*
X17293991Y-11333984D01*
X17293991Y-11333984D02*
X17227325Y-11410174D01*
X17227325Y-11410174D02*
X17255896Y-11410174D01*
X17255896Y-11410174D02*
X17274944Y-11419698D01*
X17274944Y-11419698D02*
X17284468Y-11429222D01*
X17284468Y-11429222D02*
X17293991Y-11448269D01*
X17293991Y-11448269D02*
X17293991Y-11495888D01*
X17293991Y-11495888D02*
X17284468Y-11514936D01*
X17284468Y-11514936D02*
X17274944Y-11524460D01*
X17274944Y-11524460D02*
X17255896Y-11533984D01*
X17255896Y-11533984D02*
X17198753Y-11533984D01*
X17198753Y-11533984D02*
X17179706Y-11524460D01*
X17179706Y-11524460D02*
X17170182Y-11514936D01*
X17389229Y-11533984D02*
X17427325Y-11533984D01*
X17427325Y-11533984D02*
X17446372Y-11524460D01*
X17446372Y-11524460D02*
X17455896Y-11514936D01*
X17455896Y-11514936D02*
X17474944Y-11486365D01*
X17474944Y-11486365D02*
X17484468Y-11448269D01*
X17484468Y-11448269D02*
X17484468Y-11372079D01*
X17484468Y-11372079D02*
X17474944Y-11353031D01*
X17474944Y-11353031D02*
X17465420Y-11343508D01*
X17465420Y-11343508D02*
X17446372Y-11333984D01*
X17446372Y-11333984D02*
X17408277Y-11333984D01*
X17408277Y-11333984D02*
X17389229Y-11343508D01*
X17389229Y-11343508D02*
X17379706Y-11353031D01*
X17379706Y-11353031D02*
X17370182Y-11372079D01*
X17370182Y-11372079D02*
X17370182Y-11419698D01*
X17370182Y-11419698D02*
X17379706Y-11438746D01*
X17379706Y-11438746D02*
X17389229Y-11448269D01*
X17389229Y-11448269D02*
X17408277Y-11457793D01*
X17408277Y-11457793D02*
X17446372Y-11457793D01*
X17446372Y-11457793D02*
X17465420Y-11448269D01*
X17465420Y-11448269D02*
X17474944Y-11438746D01*
X17474944Y-11438746D02*
X17484468Y-11419698D01*
X17655896Y-11400650D02*
X17655896Y-11533984D01*
X17608277Y-11324460D02*
X17560658Y-11467317D01*
X17560658Y-11467317D02*
X17684468Y-11467317D01*
X17751134Y-11333984D02*
X17751134Y-11372079D01*
X17827325Y-11333984D02*
X17827325Y-11372079D01*
X18122563Y-11610174D02*
X18113039Y-11600650D01*
X18113039Y-11600650D02*
X18093991Y-11572079D01*
X18093991Y-11572079D02*
X18084468Y-11553031D01*
X18084468Y-11553031D02*
X18074944Y-11524460D01*
X18074944Y-11524460D02*
X18065420Y-11476841D01*
X18065420Y-11476841D02*
X18065420Y-11438746D01*
X18065420Y-11438746D02*
X18074944Y-11391127D01*
X18074944Y-11391127D02*
X18084468Y-11362555D01*
X18084468Y-11362555D02*
X18093991Y-11343508D01*
X18093991Y-11343508D02*
X18113039Y-11314936D01*
X18113039Y-11314936D02*
X18122563Y-11305412D01*
X18303515Y-11533984D02*
X18189230Y-11533984D01*
X18246372Y-11533984D02*
X18246372Y-11333984D01*
X18246372Y-11333984D02*
X18227325Y-11362555D01*
X18227325Y-11362555D02*
X18208277Y-11381603D01*
X18208277Y-11381603D02*
X18189230Y-11391127D01*
X18474944Y-11400650D02*
X18474944Y-11533984D01*
X18427325Y-11324460D02*
X18379706Y-11467317D01*
X18379706Y-11467317D02*
X18503515Y-11467317D01*
X18732087Y-11533984D02*
X18732087Y-11333984D01*
X18817801Y-11533984D02*
X18817801Y-11429222D01*
X18817801Y-11429222D02*
X18808277Y-11410174D01*
X18808277Y-11410174D02*
X18789230Y-11400650D01*
X18789230Y-11400650D02*
X18760658Y-11400650D01*
X18760658Y-11400650D02*
X18741611Y-11410174D01*
X18741611Y-11410174D02*
X18732087Y-11419698D01*
X18941611Y-11533984D02*
X18922563Y-11524460D01*
X18922563Y-11524460D02*
X18913039Y-11514936D01*
X18913039Y-11514936D02*
X18903515Y-11495888D01*
X18903515Y-11495888D02*
X18903515Y-11438746D01*
X18903515Y-11438746D02*
X18913039Y-11419698D01*
X18913039Y-11419698D02*
X18922563Y-11410174D01*
X18922563Y-11410174D02*
X18941611Y-11400650D01*
X18941611Y-11400650D02*
X18970182Y-11400650D01*
X18970182Y-11400650D02*
X18989230Y-11410174D01*
X18989230Y-11410174D02*
X18998753Y-11419698D01*
X18998753Y-11419698D02*
X19008277Y-11438746D01*
X19008277Y-11438746D02*
X19008277Y-11495888D01*
X19008277Y-11495888D02*
X18998753Y-11514936D01*
X18998753Y-11514936D02*
X18989230Y-11524460D01*
X18989230Y-11524460D02*
X18970182Y-11533984D01*
X18970182Y-11533984D02*
X18941611Y-11533984D01*
X19122563Y-11533984D02*
X19103515Y-11524460D01*
X19103515Y-11524460D02*
X19093992Y-11505412D01*
X19093992Y-11505412D02*
X19093992Y-11333984D01*
X19274944Y-11524460D02*
X19255896Y-11533984D01*
X19255896Y-11533984D02*
X19217801Y-11533984D01*
X19217801Y-11533984D02*
X19198753Y-11524460D01*
X19198753Y-11524460D02*
X19189230Y-11505412D01*
X19189230Y-11505412D02*
X19189230Y-11429222D01*
X19189230Y-11429222D02*
X19198753Y-11410174D01*
X19198753Y-11410174D02*
X19217801Y-11400650D01*
X19217801Y-11400650D02*
X19255896Y-11400650D01*
X19255896Y-11400650D02*
X19274944Y-11410174D01*
X19274944Y-11410174D02*
X19284468Y-11429222D01*
X19284468Y-11429222D02*
X19284468Y-11448269D01*
X19284468Y-11448269D02*
X19189230Y-11467317D01*
X19360658Y-11524460D02*
X19379706Y-11533984D01*
X19379706Y-11533984D02*
X19417801Y-11533984D01*
X19417801Y-11533984D02*
X19436849Y-11524460D01*
X19436849Y-11524460D02*
X19446373Y-11505412D01*
X19446373Y-11505412D02*
X19446373Y-11495888D01*
X19446373Y-11495888D02*
X19436849Y-11476841D01*
X19436849Y-11476841D02*
X19417801Y-11467317D01*
X19417801Y-11467317D02*
X19389230Y-11467317D01*
X19389230Y-11467317D02*
X19370182Y-11457793D01*
X19370182Y-11457793D02*
X19360658Y-11438746D01*
X19360658Y-11438746D02*
X19360658Y-11429222D01*
X19360658Y-11429222D02*
X19370182Y-11410174D01*
X19370182Y-11410174D02*
X19389230Y-11400650D01*
X19389230Y-11400650D02*
X19417801Y-11400650D01*
X19417801Y-11400650D02*
X19436849Y-11410174D01*
X19513039Y-11610174D02*
X19522563Y-11600650D01*
X19522563Y-11600650D02*
X19541611Y-11572079D01*
X19541611Y-11572079D02*
X19551134Y-11553031D01*
X19551134Y-11553031D02*
X19560658Y-11524460D01*
X19560658Y-11524460D02*
X19570182Y-11476841D01*
X19570182Y-11476841D02*
X19570182Y-11438746D01*
X19570182Y-11438746D02*
X19560658Y-11391127D01*
X19560658Y-11391127D02*
X19551134Y-11362555D01*
X19551134Y-11362555D02*
X19541611Y-11343508D01*
X19541611Y-11343508D02*
X19522563Y-11314936D01*
X19522563Y-11314936D02*
X19513039Y-11305412D01*
D13*
X14547500Y-11706500D02*
G75*
G02*
X14397500Y-11706500I-75000J0D01*
G01*
X14397500Y-11706500D02*
G75*
G02*
X14547500Y-11706500I75000J0D01*
G01*
D11*
X14913039Y-11797984D02*
X14798753Y-11797984D01*
X14855896Y-11797984D02*
X14855896Y-11597984D01*
X14855896Y-11597984D02*
X14836848Y-11626555D01*
X14836848Y-11626555D02*
X14817801Y-11645603D01*
X14817801Y-11645603D02*
X14798753Y-11655127D01*
X14998753Y-11778936D02*
X15008277Y-11788460D01*
X15008277Y-11788460D02*
X14998753Y-11797984D01*
X14998753Y-11797984D02*
X14989229Y-11788460D01*
X14989229Y-11788460D02*
X14998753Y-11778936D01*
X14998753Y-11778936D02*
X14998753Y-11797984D01*
X15189229Y-11597984D02*
X15093991Y-11597984D01*
X15093991Y-11597984D02*
X15084467Y-11693222D01*
X15084467Y-11693222D02*
X15093991Y-11683698D01*
X15093991Y-11683698D02*
X15113039Y-11674174D01*
X15113039Y-11674174D02*
X15160658Y-11674174D01*
X15160658Y-11674174D02*
X15179705Y-11683698D01*
X15179705Y-11683698D02*
X15189229Y-11693222D01*
X15189229Y-11693222D02*
X15198753Y-11712269D01*
X15198753Y-11712269D02*
X15198753Y-11759888D01*
X15198753Y-11759888D02*
X15189229Y-11778936D01*
X15189229Y-11778936D02*
X15179705Y-11788460D01*
X15179705Y-11788460D02*
X15160658Y-11797984D01*
X15160658Y-11797984D02*
X15113039Y-11797984D01*
X15113039Y-11797984D02*
X15093991Y-11788460D01*
X15093991Y-11788460D02*
X15084467Y-11778936D01*
X15322562Y-11597984D02*
X15341610Y-11597984D01*
X15341610Y-11597984D02*
X15360658Y-11607508D01*
X15360658Y-11607508D02*
X15370182Y-11617031D01*
X15370182Y-11617031D02*
X15379705Y-11636079D01*
X15379705Y-11636079D02*
X15389229Y-11674174D01*
X15389229Y-11674174D02*
X15389229Y-11721793D01*
X15389229Y-11721793D02*
X15379705Y-11759888D01*
X15379705Y-11759888D02*
X15370182Y-11778936D01*
X15370182Y-11778936D02*
X15360658Y-11788460D01*
X15360658Y-11788460D02*
X15341610Y-11797984D01*
X15341610Y-11797984D02*
X15322562Y-11797984D01*
X15322562Y-11797984D02*
X15303515Y-11788460D01*
X15303515Y-11788460D02*
X15293991Y-11778936D01*
X15293991Y-11778936D02*
X15284467Y-11759888D01*
X15284467Y-11759888D02*
X15274943Y-11721793D01*
X15274943Y-11721793D02*
X15274943Y-11674174D01*
X15274943Y-11674174D02*
X15284467Y-11636079D01*
X15284467Y-11636079D02*
X15293991Y-11617031D01*
X15293991Y-11617031D02*
X15303515Y-11607508D01*
X15303515Y-11607508D02*
X15322562Y-11597984D01*
X15513039Y-11597984D02*
X15532086Y-11597984D01*
X15532086Y-11597984D02*
X15551134Y-11607508D01*
X15551134Y-11607508D02*
X15560658Y-11617031D01*
X15560658Y-11617031D02*
X15570182Y-11636079D01*
X15570182Y-11636079D02*
X15579705Y-11674174D01*
X15579705Y-11674174D02*
X15579705Y-11721793D01*
X15579705Y-11721793D02*
X15570182Y-11759888D01*
X15570182Y-11759888D02*
X15560658Y-11778936D01*
X15560658Y-11778936D02*
X15551134Y-11788460D01*
X15551134Y-11788460D02*
X15532086Y-11797984D01*
X15532086Y-11797984D02*
X15513039Y-11797984D01*
X15513039Y-11797984D02*
X15493991Y-11788460D01*
X15493991Y-11788460D02*
X15484467Y-11778936D01*
X15484467Y-11778936D02*
X15474943Y-11759888D01*
X15474943Y-11759888D02*
X15465420Y-11721793D01*
X15465420Y-11721793D02*
X15465420Y-11674174D01*
X15465420Y-11674174D02*
X15474943Y-11636079D01*
X15474943Y-11636079D02*
X15484467Y-11617031D01*
X15484467Y-11617031D02*
X15493991Y-11607508D01*
X15493991Y-11607508D02*
X15513039Y-11597984D01*
X15665420Y-11797984D02*
X15665420Y-11664650D01*
X15665420Y-11683698D02*
X15674943Y-11674174D01*
X15674943Y-11674174D02*
X15693991Y-11664650D01*
X15693991Y-11664650D02*
X15722563Y-11664650D01*
X15722563Y-11664650D02*
X15741610Y-11674174D01*
X15741610Y-11674174D02*
X15751134Y-11693222D01*
X15751134Y-11693222D02*
X15751134Y-11797984D01*
X15751134Y-11693222D02*
X15760658Y-11674174D01*
X15760658Y-11674174D02*
X15779705Y-11664650D01*
X15779705Y-11664650D02*
X15808277Y-11664650D01*
X15808277Y-11664650D02*
X15827324Y-11674174D01*
X15827324Y-11674174D02*
X15836848Y-11693222D01*
X15836848Y-11693222D02*
X15836848Y-11797984D01*
X15932086Y-11797984D02*
X15932086Y-11664650D01*
X15932086Y-11683698D02*
X15941610Y-11674174D01*
X15941610Y-11674174D02*
X15960658Y-11664650D01*
X15960658Y-11664650D02*
X15989229Y-11664650D01*
X15989229Y-11664650D02*
X16008277Y-11674174D01*
X16008277Y-11674174D02*
X16017801Y-11693222D01*
X16017801Y-11693222D02*
X16017801Y-11797984D01*
X16017801Y-11693222D02*
X16027324Y-11674174D01*
X16027324Y-11674174D02*
X16046372Y-11664650D01*
X16046372Y-11664650D02*
X16074943Y-11664650D01*
X16074943Y-11664650D02*
X16093991Y-11674174D01*
X16093991Y-11674174D02*
X16103515Y-11693222D01*
X16103515Y-11693222D02*
X16103515Y-11797984D01*
X16493991Y-11588460D02*
X16322563Y-11845603D01*
X16751134Y-11597984D02*
X16770182Y-11597984D01*
X16770182Y-11597984D02*
X16789229Y-11607508D01*
X16789229Y-11607508D02*
X16798753Y-11617031D01*
X16798753Y-11617031D02*
X16808277Y-11636079D01*
X16808277Y-11636079D02*
X16817801Y-11674174D01*
X16817801Y-11674174D02*
X16817801Y-11721793D01*
X16817801Y-11721793D02*
X16808277Y-11759888D01*
X16808277Y-11759888D02*
X16798753Y-11778936D01*
X16798753Y-11778936D02*
X16789229Y-11788460D01*
X16789229Y-11788460D02*
X16770182Y-11797984D01*
X16770182Y-11797984D02*
X16751134Y-11797984D01*
X16751134Y-11797984D02*
X16732086Y-11788460D01*
X16732086Y-11788460D02*
X16722563Y-11778936D01*
X16722563Y-11778936D02*
X16713039Y-11759888D01*
X16713039Y-11759888D02*
X16703515Y-11721793D01*
X16703515Y-11721793D02*
X16703515Y-11674174D01*
X16703515Y-11674174D02*
X16713039Y-11636079D01*
X16713039Y-11636079D02*
X16722563Y-11617031D01*
X16722563Y-11617031D02*
X16732086Y-11607508D01*
X16732086Y-11607508D02*
X16751134Y-11597984D01*
X16903515Y-11778936D02*
X16913039Y-11788460D01*
X16913039Y-11788460D02*
X16903515Y-11797984D01*
X16903515Y-11797984D02*
X16893991Y-11788460D01*
X16893991Y-11788460D02*
X16903515Y-11778936D01*
X16903515Y-11778936D02*
X16903515Y-11797984D01*
X17036848Y-11597984D02*
X17055896Y-11597984D01*
X17055896Y-11597984D02*
X17074944Y-11607508D01*
X17074944Y-11607508D02*
X17084468Y-11617031D01*
X17084468Y-11617031D02*
X17093991Y-11636079D01*
X17093991Y-11636079D02*
X17103515Y-11674174D01*
X17103515Y-11674174D02*
X17103515Y-11721793D01*
X17103515Y-11721793D02*
X17093991Y-11759888D01*
X17093991Y-11759888D02*
X17084468Y-11778936D01*
X17084468Y-11778936D02*
X17074944Y-11788460D01*
X17074944Y-11788460D02*
X17055896Y-11797984D01*
X17055896Y-11797984D02*
X17036848Y-11797984D01*
X17036848Y-11797984D02*
X17017801Y-11788460D01*
X17017801Y-11788460D02*
X17008277Y-11778936D01*
X17008277Y-11778936D02*
X16998753Y-11759888D01*
X16998753Y-11759888D02*
X16989229Y-11721793D01*
X16989229Y-11721793D02*
X16989229Y-11674174D01*
X16989229Y-11674174D02*
X16998753Y-11636079D01*
X16998753Y-11636079D02*
X17008277Y-11617031D01*
X17008277Y-11617031D02*
X17017801Y-11607508D01*
X17017801Y-11607508D02*
X17036848Y-11597984D01*
X17284468Y-11597984D02*
X17189229Y-11597984D01*
X17189229Y-11597984D02*
X17179706Y-11693222D01*
X17179706Y-11693222D02*
X17189229Y-11683698D01*
X17189229Y-11683698D02*
X17208277Y-11674174D01*
X17208277Y-11674174D02*
X17255896Y-11674174D01*
X17255896Y-11674174D02*
X17274944Y-11683698D01*
X17274944Y-11683698D02*
X17284468Y-11693222D01*
X17284468Y-11693222D02*
X17293991Y-11712269D01*
X17293991Y-11712269D02*
X17293991Y-11759888D01*
X17293991Y-11759888D02*
X17284468Y-11778936D01*
X17284468Y-11778936D02*
X17274944Y-11788460D01*
X17274944Y-11788460D02*
X17255896Y-11797984D01*
X17255896Y-11797984D02*
X17208277Y-11797984D01*
X17208277Y-11797984D02*
X17189229Y-11788460D01*
X17189229Y-11788460D02*
X17179706Y-11778936D01*
X17389229Y-11797984D02*
X17427325Y-11797984D01*
X17427325Y-11797984D02*
X17446372Y-11788460D01*
X17446372Y-11788460D02*
X17455896Y-11778936D01*
X17455896Y-11778936D02*
X17474944Y-11750365D01*
X17474944Y-11750365D02*
X17484468Y-11712269D01*
X17484468Y-11712269D02*
X17484468Y-11636079D01*
X17484468Y-11636079D02*
X17474944Y-11617031D01*
X17474944Y-11617031D02*
X17465420Y-11607508D01*
X17465420Y-11607508D02*
X17446372Y-11597984D01*
X17446372Y-11597984D02*
X17408277Y-11597984D01*
X17408277Y-11597984D02*
X17389229Y-11607508D01*
X17389229Y-11607508D02*
X17379706Y-11617031D01*
X17379706Y-11617031D02*
X17370182Y-11636079D01*
X17370182Y-11636079D02*
X17370182Y-11683698D01*
X17370182Y-11683698D02*
X17379706Y-11702746D01*
X17379706Y-11702746D02*
X17389229Y-11712269D01*
X17389229Y-11712269D02*
X17408277Y-11721793D01*
X17408277Y-11721793D02*
X17446372Y-11721793D01*
X17446372Y-11721793D02*
X17465420Y-11712269D01*
X17465420Y-11712269D02*
X17474944Y-11702746D01*
X17474944Y-11702746D02*
X17484468Y-11683698D01*
X17674944Y-11797984D02*
X17560658Y-11797984D01*
X17617801Y-11797984D02*
X17617801Y-11597984D01*
X17617801Y-11597984D02*
X17598753Y-11626555D01*
X17598753Y-11626555D02*
X17579706Y-11645603D01*
X17579706Y-11645603D02*
X17560658Y-11655127D01*
X17751134Y-11597984D02*
X17751134Y-11636079D01*
X17827325Y-11597984D02*
X17827325Y-11636079D01*
X18122563Y-11874174D02*
X18113039Y-11864650D01*
X18113039Y-11864650D02*
X18093991Y-11836079D01*
X18093991Y-11836079D02*
X18084468Y-11817031D01*
X18084468Y-11817031D02*
X18074944Y-11788460D01*
X18074944Y-11788460D02*
X18065420Y-11740841D01*
X18065420Y-11740841D02*
X18065420Y-11702746D01*
X18065420Y-11702746D02*
X18074944Y-11655127D01*
X18074944Y-11655127D02*
X18084468Y-11626555D01*
X18084468Y-11626555D02*
X18093991Y-11607508D01*
X18093991Y-11607508D02*
X18113039Y-11578936D01*
X18113039Y-11578936D02*
X18122563Y-11569412D01*
X18284468Y-11597984D02*
X18246372Y-11597984D01*
X18246372Y-11597984D02*
X18227325Y-11607508D01*
X18227325Y-11607508D02*
X18217801Y-11617031D01*
X18217801Y-11617031D02*
X18198753Y-11645603D01*
X18198753Y-11645603D02*
X18189230Y-11683698D01*
X18189230Y-11683698D02*
X18189230Y-11759888D01*
X18189230Y-11759888D02*
X18198753Y-11778936D01*
X18198753Y-11778936D02*
X18208277Y-11788460D01*
X18208277Y-11788460D02*
X18227325Y-11797984D01*
X18227325Y-11797984D02*
X18265420Y-11797984D01*
X18265420Y-11797984D02*
X18284468Y-11788460D01*
X18284468Y-11788460D02*
X18293991Y-11778936D01*
X18293991Y-11778936D02*
X18303515Y-11759888D01*
X18303515Y-11759888D02*
X18303515Y-11712269D01*
X18303515Y-11712269D02*
X18293991Y-11693222D01*
X18293991Y-11693222D02*
X18284468Y-11683698D01*
X18284468Y-11683698D02*
X18265420Y-11674174D01*
X18265420Y-11674174D02*
X18227325Y-11674174D01*
X18227325Y-11674174D02*
X18208277Y-11683698D01*
X18208277Y-11683698D02*
X18198753Y-11693222D01*
X18198753Y-11693222D02*
X18189230Y-11712269D01*
X18541611Y-11797984D02*
X18541611Y-11597984D01*
X18627325Y-11797984D02*
X18627325Y-11693222D01*
X18627325Y-11693222D02*
X18617801Y-11674174D01*
X18617801Y-11674174D02*
X18598753Y-11664650D01*
X18598753Y-11664650D02*
X18570182Y-11664650D01*
X18570182Y-11664650D02*
X18551134Y-11674174D01*
X18551134Y-11674174D02*
X18541611Y-11683698D01*
X18751134Y-11797984D02*
X18732087Y-11788460D01*
X18732087Y-11788460D02*
X18722563Y-11778936D01*
X18722563Y-11778936D02*
X18713039Y-11759888D01*
X18713039Y-11759888D02*
X18713039Y-11702746D01*
X18713039Y-11702746D02*
X18722563Y-11683698D01*
X18722563Y-11683698D02*
X18732087Y-11674174D01*
X18732087Y-11674174D02*
X18751134Y-11664650D01*
X18751134Y-11664650D02*
X18779706Y-11664650D01*
X18779706Y-11664650D02*
X18798753Y-11674174D01*
X18798753Y-11674174D02*
X18808277Y-11683698D01*
X18808277Y-11683698D02*
X18817801Y-11702746D01*
X18817801Y-11702746D02*
X18817801Y-11759888D01*
X18817801Y-11759888D02*
X18808277Y-11778936D01*
X18808277Y-11778936D02*
X18798753Y-11788460D01*
X18798753Y-11788460D02*
X18779706Y-11797984D01*
X18779706Y-11797984D02*
X18751134Y-11797984D01*
X18932087Y-11797984D02*
X18913039Y-11788460D01*
X18913039Y-11788460D02*
X18903515Y-11769412D01*
X18903515Y-11769412D02*
X18903515Y-11597984D01*
X19084468Y-11788460D02*
X19065420Y-11797984D01*
X19065420Y-11797984D02*
X19027325Y-11797984D01*
X19027325Y-11797984D02*
X19008277Y-11788460D01*
X19008277Y-11788460D02*
X18998753Y-11769412D01*
X18998753Y-11769412D02*
X18998753Y-11693222D01*
X18998753Y-11693222D02*
X19008277Y-11674174D01*
X19008277Y-11674174D02*
X19027325Y-11664650D01*
X19027325Y-11664650D02*
X19065420Y-11664650D01*
X19065420Y-11664650D02*
X19084468Y-11674174D01*
X19084468Y-11674174D02*
X19093992Y-11693222D01*
X19093992Y-11693222D02*
X19093992Y-11712269D01*
X19093992Y-11712269D02*
X18998753Y-11731317D01*
X19170182Y-11788460D02*
X19189230Y-11797984D01*
X19189230Y-11797984D02*
X19227325Y-11797984D01*
X19227325Y-11797984D02*
X19246373Y-11788460D01*
X19246373Y-11788460D02*
X19255896Y-11769412D01*
X19255896Y-11769412D02*
X19255896Y-11759888D01*
X19255896Y-11759888D02*
X19246373Y-11740841D01*
X19246373Y-11740841D02*
X19227325Y-11731317D01*
X19227325Y-11731317D02*
X19198753Y-11731317D01*
X19198753Y-11731317D02*
X19179706Y-11721793D01*
X19179706Y-11721793D02*
X19170182Y-11702746D01*
X19170182Y-11702746D02*
X19170182Y-11693222D01*
X19170182Y-11693222D02*
X19179706Y-11674174D01*
X19179706Y-11674174D02*
X19198753Y-11664650D01*
X19198753Y-11664650D02*
X19227325Y-11664650D01*
X19227325Y-11664650D02*
X19246373Y-11674174D01*
X19322563Y-11874174D02*
X19332087Y-11864650D01*
X19332087Y-11864650D02*
X19351134Y-11836079D01*
X19351134Y-11836079D02*
X19360658Y-11817031D01*
X19360658Y-11817031D02*
X19370182Y-11788460D01*
X19370182Y-11788460D02*
X19379706Y-11740841D01*
X19379706Y-11740841D02*
X19379706Y-11702746D01*
X19379706Y-11702746D02*
X19370182Y-11655127D01*
X19370182Y-11655127D02*
X19360658Y-11626555D01*
X19360658Y-11626555D02*
X19351134Y-11607508D01*
X19351134Y-11607508D02*
X19332087Y-11578936D01*
X19332087Y-11578936D02*
X19322563Y-11569412D01*
M02*
