%TF.GenerationSoftware,KiCad,Pcbnew,8.0.6*%
%TF.CreationDate,2024-10-21T23:56:26-04:00*%
%TF.ProjectId,Hackpad,4861636b-7061-4642-9e6b-696361645f70,rev?*%
%TF.SameCoordinates,Original*%
%TF.FileFunction,Drillmap*%
%TF.FilePolarity,Positive*%
%FSLAX45Y45*%
G04 Gerber Fmt 4.5, Leading zero omitted, Abs format (unit mm)*
G04 Created by KiCad (PCBNEW 8.0.6) date 2024-10-21 23:56:26*
%MOMM*%
%LPD*%
G01*
G04 APERTURE LIST*
%ADD10C,0.050000*%
%ADD11C,0.200000*%
%ADD12C,0.170000*%
%ADD13C,0.400000*%
G04 APERTURE END LIST*
D10*
X14550000Y-5600000D02*
X16700000Y-5600000D01*
X16700000Y-10800000D01*
X14550000Y-10800000D01*
X14550000Y-5600000D01*
D11*
D12*
X15027100Y-6669000D02*
X15197100Y-6839000D01*
X15197100Y-6669000D02*
X15027100Y-6839000D01*
X15027100Y-8178000D02*
X15197100Y-8348000D01*
X15197100Y-8178000D02*
X15027100Y-8348000D01*
X15027100Y-9687000D02*
X15197100Y-9857000D01*
X15197100Y-9687000D02*
X15027100Y-9857000D01*
X16043100Y-6669000D02*
X16213100Y-6839000D01*
X16213100Y-6669000D02*
X16043100Y-6839000D01*
X16043100Y-8178000D02*
X16213100Y-8348000D01*
X16213100Y-8178000D02*
X16043100Y-8348000D01*
X16043100Y-9687000D02*
X16213100Y-9857000D01*
X16213100Y-9687000D02*
X16043100Y-9857000D01*
D13*
X15820100Y-6754000D02*
G75*
G02*
X15420100Y-6754000I-200000J0D01*
G01*
X15420100Y-6754000D02*
G75*
G02*
X15820100Y-6754000I200000J0D01*
G01*
X15820100Y-8263000D02*
G75*
G02*
X15420100Y-8263000I-200000J0D01*
G01*
X15420100Y-8263000D02*
G75*
G02*
X15820100Y-8263000I200000J0D01*
G01*
X15820100Y-9772000D02*
G75*
G02*
X15420100Y-9772000I-200000J0D01*
G01*
X15420100Y-9772000D02*
G75*
G02*
X15820100Y-9772000I200000J0D01*
G01*
D11*
X14808277Y-11113984D02*
X14808277Y-10913984D01*
X14808277Y-10913984D02*
X14855896Y-10913984D01*
X14855896Y-10913984D02*
X14884467Y-10923508D01*
X14884467Y-10923508D02*
X14903515Y-10942555D01*
X14903515Y-10942555D02*
X14913039Y-10961603D01*
X14913039Y-10961603D02*
X14922562Y-10999698D01*
X14922562Y-10999698D02*
X14922562Y-11028270D01*
X14922562Y-11028270D02*
X14913039Y-11066365D01*
X14913039Y-11066365D02*
X14903515Y-11085412D01*
X14903515Y-11085412D02*
X14884467Y-11104460D01*
X14884467Y-11104460D02*
X14855896Y-11113984D01*
X14855896Y-11113984D02*
X14808277Y-11113984D01*
X15008277Y-11113984D02*
X15008277Y-10980650D01*
X15008277Y-11018746D02*
X15017801Y-10999698D01*
X15017801Y-10999698D02*
X15027324Y-10990174D01*
X15027324Y-10990174D02*
X15046372Y-10980650D01*
X15046372Y-10980650D02*
X15065420Y-10980650D01*
X15132086Y-11113984D02*
X15132086Y-10980650D01*
X15132086Y-10913984D02*
X15122562Y-10923508D01*
X15122562Y-10923508D02*
X15132086Y-10933031D01*
X15132086Y-10933031D02*
X15141610Y-10923508D01*
X15141610Y-10923508D02*
X15132086Y-10913984D01*
X15132086Y-10913984D02*
X15132086Y-10933031D01*
X15255896Y-11113984D02*
X15236848Y-11104460D01*
X15236848Y-11104460D02*
X15227324Y-11085412D01*
X15227324Y-11085412D02*
X15227324Y-10913984D01*
X15360658Y-11113984D02*
X15341610Y-11104460D01*
X15341610Y-11104460D02*
X15332086Y-11085412D01*
X15332086Y-11085412D02*
X15332086Y-10913984D01*
X15589229Y-11113984D02*
X15589229Y-10913984D01*
X15589229Y-10913984D02*
X15655896Y-11056841D01*
X15655896Y-11056841D02*
X15722562Y-10913984D01*
X15722562Y-10913984D02*
X15722562Y-11113984D01*
X15903515Y-11113984D02*
X15903515Y-11009222D01*
X15903515Y-11009222D02*
X15893991Y-10990174D01*
X15893991Y-10990174D02*
X15874943Y-10980650D01*
X15874943Y-10980650D02*
X15836848Y-10980650D01*
X15836848Y-10980650D02*
X15817801Y-10990174D01*
X15903515Y-11104460D02*
X15884467Y-11113984D01*
X15884467Y-11113984D02*
X15836848Y-11113984D01*
X15836848Y-11113984D02*
X15817801Y-11104460D01*
X15817801Y-11104460D02*
X15808277Y-11085412D01*
X15808277Y-11085412D02*
X15808277Y-11066365D01*
X15808277Y-11066365D02*
X15817801Y-11047317D01*
X15817801Y-11047317D02*
X15836848Y-11037793D01*
X15836848Y-11037793D02*
X15884467Y-11037793D01*
X15884467Y-11037793D02*
X15903515Y-11028270D01*
X15998753Y-10980650D02*
X15998753Y-11180650D01*
X15998753Y-10990174D02*
X16017801Y-10980650D01*
X16017801Y-10980650D02*
X16055896Y-10980650D01*
X16055896Y-10980650D02*
X16074943Y-10990174D01*
X16074943Y-10990174D02*
X16084467Y-10999698D01*
X16084467Y-10999698D02*
X16093991Y-11018746D01*
X16093991Y-11018746D02*
X16093991Y-11075889D01*
X16093991Y-11075889D02*
X16084467Y-11094936D01*
X16084467Y-11094936D02*
X16074943Y-11104460D01*
X16074943Y-11104460D02*
X16055896Y-11113984D01*
X16055896Y-11113984D02*
X16017801Y-11113984D01*
X16017801Y-11113984D02*
X15998753Y-11104460D01*
X16179705Y-11094936D02*
X16189229Y-11104460D01*
X16189229Y-11104460D02*
X16179705Y-11113984D01*
X16179705Y-11113984D02*
X16170182Y-11104460D01*
X16170182Y-11104460D02*
X16179705Y-11094936D01*
X16179705Y-11094936D02*
X16179705Y-11113984D01*
X16179705Y-10990174D02*
X16189229Y-10999698D01*
X16189229Y-10999698D02*
X16179705Y-11009222D01*
X16179705Y-11009222D02*
X16170182Y-10999698D01*
X16170182Y-10999698D02*
X16179705Y-10990174D01*
X16179705Y-10990174D02*
X16179705Y-11009222D01*
D12*
X14377500Y-11357500D02*
X14547500Y-11527500D01*
X14547500Y-11357500D02*
X14377500Y-11527500D01*
D11*
X14913039Y-11533984D02*
X14798753Y-11533984D01*
X14855896Y-11533984D02*
X14855896Y-11333984D01*
X14855896Y-11333984D02*
X14836848Y-11362555D01*
X14836848Y-11362555D02*
X14817801Y-11381603D01*
X14817801Y-11381603D02*
X14798753Y-11391127D01*
X14998753Y-11514936D02*
X15008277Y-11524460D01*
X15008277Y-11524460D02*
X14998753Y-11533984D01*
X14998753Y-11533984D02*
X14989229Y-11524460D01*
X14989229Y-11524460D02*
X14998753Y-11514936D01*
X14998753Y-11514936D02*
X14998753Y-11533984D01*
X15074943Y-11333984D02*
X15208277Y-11333984D01*
X15208277Y-11333984D02*
X15122562Y-11533984D01*
X15322562Y-11333984D02*
X15341610Y-11333984D01*
X15341610Y-11333984D02*
X15360658Y-11343508D01*
X15360658Y-11343508D02*
X15370182Y-11353031D01*
X15370182Y-11353031D02*
X15379705Y-11372079D01*
X15379705Y-11372079D02*
X15389229Y-11410174D01*
X15389229Y-11410174D02*
X15389229Y-11457793D01*
X15389229Y-11457793D02*
X15379705Y-11495888D01*
X15379705Y-11495888D02*
X15370182Y-11514936D01*
X15370182Y-11514936D02*
X15360658Y-11524460D01*
X15360658Y-11524460D02*
X15341610Y-11533984D01*
X15341610Y-11533984D02*
X15322562Y-11533984D01*
X15322562Y-11533984D02*
X15303515Y-11524460D01*
X15303515Y-11524460D02*
X15293991Y-11514936D01*
X15293991Y-11514936D02*
X15284467Y-11495888D01*
X15284467Y-11495888D02*
X15274943Y-11457793D01*
X15274943Y-11457793D02*
X15274943Y-11410174D01*
X15274943Y-11410174D02*
X15284467Y-11372079D01*
X15284467Y-11372079D02*
X15293991Y-11353031D01*
X15293991Y-11353031D02*
X15303515Y-11343508D01*
X15303515Y-11343508D02*
X15322562Y-11333984D01*
X15513039Y-11333984D02*
X15532086Y-11333984D01*
X15532086Y-11333984D02*
X15551134Y-11343508D01*
X15551134Y-11343508D02*
X15560658Y-11353031D01*
X15560658Y-11353031D02*
X15570182Y-11372079D01*
X15570182Y-11372079D02*
X15579705Y-11410174D01*
X15579705Y-11410174D02*
X15579705Y-11457793D01*
X15579705Y-11457793D02*
X15570182Y-11495888D01*
X15570182Y-11495888D02*
X15560658Y-11514936D01*
X15560658Y-11514936D02*
X15551134Y-11524460D01*
X15551134Y-11524460D02*
X15532086Y-11533984D01*
X15532086Y-11533984D02*
X15513039Y-11533984D01*
X15513039Y-11533984D02*
X15493991Y-11524460D01*
X15493991Y-11524460D02*
X15484467Y-11514936D01*
X15484467Y-11514936D02*
X15474943Y-11495888D01*
X15474943Y-11495888D02*
X15465420Y-11457793D01*
X15465420Y-11457793D02*
X15465420Y-11410174D01*
X15465420Y-11410174D02*
X15474943Y-11372079D01*
X15474943Y-11372079D02*
X15484467Y-11353031D01*
X15484467Y-11353031D02*
X15493991Y-11343508D01*
X15493991Y-11343508D02*
X15513039Y-11333984D01*
X15665420Y-11533984D02*
X15665420Y-11400650D01*
X15665420Y-11419698D02*
X15674943Y-11410174D01*
X15674943Y-11410174D02*
X15693991Y-11400650D01*
X15693991Y-11400650D02*
X15722563Y-11400650D01*
X15722563Y-11400650D02*
X15741610Y-11410174D01*
X15741610Y-11410174D02*
X15751134Y-11429222D01*
X15751134Y-11429222D02*
X15751134Y-11533984D01*
X15751134Y-11429222D02*
X15760658Y-11410174D01*
X15760658Y-11410174D02*
X15779705Y-11400650D01*
X15779705Y-11400650D02*
X15808277Y-11400650D01*
X15808277Y-11400650D02*
X15827324Y-11410174D01*
X15827324Y-11410174D02*
X15836848Y-11429222D01*
X15836848Y-11429222D02*
X15836848Y-11533984D01*
X15932086Y-11533984D02*
X15932086Y-11400650D01*
X15932086Y-11419698D02*
X15941610Y-11410174D01*
X15941610Y-11410174D02*
X15960658Y-11400650D01*
X15960658Y-11400650D02*
X15989229Y-11400650D01*
X15989229Y-11400650D02*
X16008277Y-11410174D01*
X16008277Y-11410174D02*
X16017801Y-11429222D01*
X16017801Y-11429222D02*
X16017801Y-11533984D01*
X16017801Y-11429222D02*
X16027324Y-11410174D01*
X16027324Y-11410174D02*
X16046372Y-11400650D01*
X16046372Y-11400650D02*
X16074943Y-11400650D01*
X16074943Y-11400650D02*
X16093991Y-11410174D01*
X16093991Y-11410174D02*
X16103515Y-11429222D01*
X16103515Y-11429222D02*
X16103515Y-11533984D01*
X16493991Y-11324460D02*
X16322563Y-11581603D01*
X16751134Y-11333984D02*
X16770182Y-11333984D01*
X16770182Y-11333984D02*
X16789229Y-11343508D01*
X16789229Y-11343508D02*
X16798753Y-11353031D01*
X16798753Y-11353031D02*
X16808277Y-11372079D01*
X16808277Y-11372079D02*
X16817801Y-11410174D01*
X16817801Y-11410174D02*
X16817801Y-11457793D01*
X16817801Y-11457793D02*
X16808277Y-11495888D01*
X16808277Y-11495888D02*
X16798753Y-11514936D01*
X16798753Y-11514936D02*
X16789229Y-11524460D01*
X16789229Y-11524460D02*
X16770182Y-11533984D01*
X16770182Y-11533984D02*
X16751134Y-11533984D01*
X16751134Y-11533984D02*
X16732086Y-11524460D01*
X16732086Y-11524460D02*
X16722563Y-11514936D01*
X16722563Y-11514936D02*
X16713039Y-11495888D01*
X16713039Y-11495888D02*
X16703515Y-11457793D01*
X16703515Y-11457793D02*
X16703515Y-11410174D01*
X16703515Y-11410174D02*
X16713039Y-11372079D01*
X16713039Y-11372079D02*
X16722563Y-11353031D01*
X16722563Y-11353031D02*
X16732086Y-11343508D01*
X16732086Y-11343508D02*
X16751134Y-11333984D01*
X16903515Y-11514936D02*
X16913039Y-11524460D01*
X16913039Y-11524460D02*
X16903515Y-11533984D01*
X16903515Y-11533984D02*
X16893991Y-11524460D01*
X16893991Y-11524460D02*
X16903515Y-11514936D01*
X16903515Y-11514936D02*
X16903515Y-11533984D01*
X17036848Y-11333984D02*
X17055896Y-11333984D01*
X17055896Y-11333984D02*
X17074944Y-11343508D01*
X17074944Y-11343508D02*
X17084468Y-11353031D01*
X17084468Y-11353031D02*
X17093991Y-11372079D01*
X17093991Y-11372079D02*
X17103515Y-11410174D01*
X17103515Y-11410174D02*
X17103515Y-11457793D01*
X17103515Y-11457793D02*
X17093991Y-11495888D01*
X17093991Y-11495888D02*
X17084468Y-11514936D01*
X17084468Y-11514936D02*
X17074944Y-11524460D01*
X17074944Y-11524460D02*
X17055896Y-11533984D01*
X17055896Y-11533984D02*
X17036848Y-11533984D01*
X17036848Y-11533984D02*
X17017801Y-11524460D01*
X17017801Y-11524460D02*
X17008277Y-11514936D01*
X17008277Y-11514936D02*
X16998753Y-11495888D01*
X16998753Y-11495888D02*
X16989229Y-11457793D01*
X16989229Y-11457793D02*
X16989229Y-11410174D01*
X16989229Y-11410174D02*
X16998753Y-11372079D01*
X16998753Y-11372079D02*
X17008277Y-11353031D01*
X17008277Y-11353031D02*
X17017801Y-11343508D01*
X17017801Y-11343508D02*
X17036848Y-11333984D01*
X17274944Y-11333984D02*
X17236848Y-11333984D01*
X17236848Y-11333984D02*
X17217801Y-11343508D01*
X17217801Y-11343508D02*
X17208277Y-11353031D01*
X17208277Y-11353031D02*
X17189229Y-11381603D01*
X17189229Y-11381603D02*
X17179706Y-11419698D01*
X17179706Y-11419698D02*
X17179706Y-11495888D01*
X17179706Y-11495888D02*
X17189229Y-11514936D01*
X17189229Y-11514936D02*
X17198753Y-11524460D01*
X17198753Y-11524460D02*
X17217801Y-11533984D01*
X17217801Y-11533984D02*
X17255896Y-11533984D01*
X17255896Y-11533984D02*
X17274944Y-11524460D01*
X17274944Y-11524460D02*
X17284468Y-11514936D01*
X17284468Y-11514936D02*
X17293991Y-11495888D01*
X17293991Y-11495888D02*
X17293991Y-11448269D01*
X17293991Y-11448269D02*
X17284468Y-11429222D01*
X17284468Y-11429222D02*
X17274944Y-11419698D01*
X17274944Y-11419698D02*
X17255896Y-11410174D01*
X17255896Y-11410174D02*
X17217801Y-11410174D01*
X17217801Y-11410174D02*
X17198753Y-11419698D01*
X17198753Y-11419698D02*
X17189229Y-11429222D01*
X17189229Y-11429222D02*
X17179706Y-11448269D01*
X17465420Y-11333984D02*
X17427325Y-11333984D01*
X17427325Y-11333984D02*
X17408277Y-11343508D01*
X17408277Y-11343508D02*
X17398753Y-11353031D01*
X17398753Y-11353031D02*
X17379706Y-11381603D01*
X17379706Y-11381603D02*
X17370182Y-11419698D01*
X17370182Y-11419698D02*
X17370182Y-11495888D01*
X17370182Y-11495888D02*
X17379706Y-11514936D01*
X17379706Y-11514936D02*
X17389229Y-11524460D01*
X17389229Y-11524460D02*
X17408277Y-11533984D01*
X17408277Y-11533984D02*
X17446372Y-11533984D01*
X17446372Y-11533984D02*
X17465420Y-11524460D01*
X17465420Y-11524460D02*
X17474944Y-11514936D01*
X17474944Y-11514936D02*
X17484468Y-11495888D01*
X17484468Y-11495888D02*
X17484468Y-11448269D01*
X17484468Y-11448269D02*
X17474944Y-11429222D01*
X17474944Y-11429222D02*
X17465420Y-11419698D01*
X17465420Y-11419698D02*
X17446372Y-11410174D01*
X17446372Y-11410174D02*
X17408277Y-11410174D01*
X17408277Y-11410174D02*
X17389229Y-11419698D01*
X17389229Y-11419698D02*
X17379706Y-11429222D01*
X17379706Y-11429222D02*
X17370182Y-11448269D01*
X17579706Y-11533984D02*
X17617801Y-11533984D01*
X17617801Y-11533984D02*
X17636849Y-11524460D01*
X17636849Y-11524460D02*
X17646372Y-11514936D01*
X17646372Y-11514936D02*
X17665420Y-11486365D01*
X17665420Y-11486365D02*
X17674944Y-11448269D01*
X17674944Y-11448269D02*
X17674944Y-11372079D01*
X17674944Y-11372079D02*
X17665420Y-11353031D01*
X17665420Y-11353031D02*
X17655896Y-11343508D01*
X17655896Y-11343508D02*
X17636849Y-11333984D01*
X17636849Y-11333984D02*
X17598753Y-11333984D01*
X17598753Y-11333984D02*
X17579706Y-11343508D01*
X17579706Y-11343508D02*
X17570182Y-11353031D01*
X17570182Y-11353031D02*
X17560658Y-11372079D01*
X17560658Y-11372079D02*
X17560658Y-11419698D01*
X17560658Y-11419698D02*
X17570182Y-11438746D01*
X17570182Y-11438746D02*
X17579706Y-11448269D01*
X17579706Y-11448269D02*
X17598753Y-11457793D01*
X17598753Y-11457793D02*
X17636849Y-11457793D01*
X17636849Y-11457793D02*
X17655896Y-11448269D01*
X17655896Y-11448269D02*
X17665420Y-11438746D01*
X17665420Y-11438746D02*
X17674944Y-11419698D01*
X17751134Y-11333984D02*
X17751134Y-11372079D01*
X17827325Y-11333984D02*
X17827325Y-11372079D01*
X18122563Y-11610174D02*
X18113039Y-11600650D01*
X18113039Y-11600650D02*
X18093991Y-11572079D01*
X18093991Y-11572079D02*
X18084468Y-11553031D01*
X18084468Y-11553031D02*
X18074944Y-11524460D01*
X18074944Y-11524460D02*
X18065420Y-11476841D01*
X18065420Y-11476841D02*
X18065420Y-11438746D01*
X18065420Y-11438746D02*
X18074944Y-11391127D01*
X18074944Y-11391127D02*
X18084468Y-11362555D01*
X18084468Y-11362555D02*
X18093991Y-11343508D01*
X18093991Y-11343508D02*
X18113039Y-11314936D01*
X18113039Y-11314936D02*
X18122563Y-11305412D01*
X18284468Y-11333984D02*
X18246372Y-11333984D01*
X18246372Y-11333984D02*
X18227325Y-11343508D01*
X18227325Y-11343508D02*
X18217801Y-11353031D01*
X18217801Y-11353031D02*
X18198753Y-11381603D01*
X18198753Y-11381603D02*
X18189230Y-11419698D01*
X18189230Y-11419698D02*
X18189230Y-11495888D01*
X18189230Y-11495888D02*
X18198753Y-11514936D01*
X18198753Y-11514936D02*
X18208277Y-11524460D01*
X18208277Y-11524460D02*
X18227325Y-11533984D01*
X18227325Y-11533984D02*
X18265420Y-11533984D01*
X18265420Y-11533984D02*
X18284468Y-11524460D01*
X18284468Y-11524460D02*
X18293991Y-11514936D01*
X18293991Y-11514936D02*
X18303515Y-11495888D01*
X18303515Y-11495888D02*
X18303515Y-11448269D01*
X18303515Y-11448269D02*
X18293991Y-11429222D01*
X18293991Y-11429222D02*
X18284468Y-11419698D01*
X18284468Y-11419698D02*
X18265420Y-11410174D01*
X18265420Y-11410174D02*
X18227325Y-11410174D01*
X18227325Y-11410174D02*
X18208277Y-11419698D01*
X18208277Y-11419698D02*
X18198753Y-11429222D01*
X18198753Y-11429222D02*
X18189230Y-11448269D01*
X18541611Y-11533984D02*
X18541611Y-11333984D01*
X18627325Y-11533984D02*
X18627325Y-11429222D01*
X18627325Y-11429222D02*
X18617801Y-11410174D01*
X18617801Y-11410174D02*
X18598753Y-11400650D01*
X18598753Y-11400650D02*
X18570182Y-11400650D01*
X18570182Y-11400650D02*
X18551134Y-11410174D01*
X18551134Y-11410174D02*
X18541611Y-11419698D01*
X18751134Y-11533984D02*
X18732087Y-11524460D01*
X18732087Y-11524460D02*
X18722563Y-11514936D01*
X18722563Y-11514936D02*
X18713039Y-11495888D01*
X18713039Y-11495888D02*
X18713039Y-11438746D01*
X18713039Y-11438746D02*
X18722563Y-11419698D01*
X18722563Y-11419698D02*
X18732087Y-11410174D01*
X18732087Y-11410174D02*
X18751134Y-11400650D01*
X18751134Y-11400650D02*
X18779706Y-11400650D01*
X18779706Y-11400650D02*
X18798753Y-11410174D01*
X18798753Y-11410174D02*
X18808277Y-11419698D01*
X18808277Y-11419698D02*
X18817801Y-11438746D01*
X18817801Y-11438746D02*
X18817801Y-11495888D01*
X18817801Y-11495888D02*
X18808277Y-11514936D01*
X18808277Y-11514936D02*
X18798753Y-11524460D01*
X18798753Y-11524460D02*
X18779706Y-11533984D01*
X18779706Y-11533984D02*
X18751134Y-11533984D01*
X18932087Y-11533984D02*
X18913039Y-11524460D01*
X18913039Y-11524460D02*
X18903515Y-11505412D01*
X18903515Y-11505412D02*
X18903515Y-11333984D01*
X19084468Y-11524460D02*
X19065420Y-11533984D01*
X19065420Y-11533984D02*
X19027325Y-11533984D01*
X19027325Y-11533984D02*
X19008277Y-11524460D01*
X19008277Y-11524460D02*
X18998753Y-11505412D01*
X18998753Y-11505412D02*
X18998753Y-11429222D01*
X18998753Y-11429222D02*
X19008277Y-11410174D01*
X19008277Y-11410174D02*
X19027325Y-11400650D01*
X19027325Y-11400650D02*
X19065420Y-11400650D01*
X19065420Y-11400650D02*
X19084468Y-11410174D01*
X19084468Y-11410174D02*
X19093992Y-11429222D01*
X19093992Y-11429222D02*
X19093992Y-11448269D01*
X19093992Y-11448269D02*
X18998753Y-11467317D01*
X19170182Y-11524460D02*
X19189230Y-11533984D01*
X19189230Y-11533984D02*
X19227325Y-11533984D01*
X19227325Y-11533984D02*
X19246373Y-11524460D01*
X19246373Y-11524460D02*
X19255896Y-11505412D01*
X19255896Y-11505412D02*
X19255896Y-11495888D01*
X19255896Y-11495888D02*
X19246373Y-11476841D01*
X19246373Y-11476841D02*
X19227325Y-11467317D01*
X19227325Y-11467317D02*
X19198753Y-11467317D01*
X19198753Y-11467317D02*
X19179706Y-11457793D01*
X19179706Y-11457793D02*
X19170182Y-11438746D01*
X19170182Y-11438746D02*
X19170182Y-11429222D01*
X19170182Y-11429222D02*
X19179706Y-11410174D01*
X19179706Y-11410174D02*
X19198753Y-11400650D01*
X19198753Y-11400650D02*
X19227325Y-11400650D01*
X19227325Y-11400650D02*
X19246373Y-11410174D01*
X19322563Y-11610174D02*
X19332087Y-11600650D01*
X19332087Y-11600650D02*
X19351134Y-11572079D01*
X19351134Y-11572079D02*
X19360658Y-11553031D01*
X19360658Y-11553031D02*
X19370182Y-11524460D01*
X19370182Y-11524460D02*
X19379706Y-11476841D01*
X19379706Y-11476841D02*
X19379706Y-11438746D01*
X19379706Y-11438746D02*
X19370182Y-11391127D01*
X19370182Y-11391127D02*
X19360658Y-11362555D01*
X19360658Y-11362555D02*
X19351134Y-11343508D01*
X19351134Y-11343508D02*
X19332087Y-11314936D01*
X19332087Y-11314936D02*
X19322563Y-11305412D01*
X19684468Y-11610174D02*
X19674944Y-11600650D01*
X19674944Y-11600650D02*
X19655896Y-11572079D01*
X19655896Y-11572079D02*
X19646373Y-11553031D01*
X19646373Y-11553031D02*
X19636849Y-11524460D01*
X19636849Y-11524460D02*
X19627325Y-11476841D01*
X19627325Y-11476841D02*
X19627325Y-11438746D01*
X19627325Y-11438746D02*
X19636849Y-11391127D01*
X19636849Y-11391127D02*
X19646373Y-11362555D01*
X19646373Y-11362555D02*
X19655896Y-11343508D01*
X19655896Y-11343508D02*
X19674944Y-11314936D01*
X19674944Y-11314936D02*
X19684468Y-11305412D01*
X19760658Y-11400650D02*
X19760658Y-11533984D01*
X19760658Y-11419698D02*
X19770182Y-11410174D01*
X19770182Y-11410174D02*
X19789230Y-11400650D01*
X19789230Y-11400650D02*
X19817801Y-11400650D01*
X19817801Y-11400650D02*
X19836849Y-11410174D01*
X19836849Y-11410174D02*
X19846373Y-11429222D01*
X19846373Y-11429222D02*
X19846373Y-11533984D01*
X19970182Y-11533984D02*
X19951134Y-11524460D01*
X19951134Y-11524460D02*
X19941611Y-11514936D01*
X19941611Y-11514936D02*
X19932087Y-11495888D01*
X19932087Y-11495888D02*
X19932087Y-11438746D01*
X19932087Y-11438746D02*
X19941611Y-11419698D01*
X19941611Y-11419698D02*
X19951134Y-11410174D01*
X19951134Y-11410174D02*
X19970182Y-11400650D01*
X19970182Y-11400650D02*
X19998754Y-11400650D01*
X19998754Y-11400650D02*
X20017801Y-11410174D01*
X20017801Y-11410174D02*
X20027325Y-11419698D01*
X20027325Y-11419698D02*
X20036849Y-11438746D01*
X20036849Y-11438746D02*
X20036849Y-11495888D01*
X20036849Y-11495888D02*
X20027325Y-11514936D01*
X20027325Y-11514936D02*
X20017801Y-11524460D01*
X20017801Y-11524460D02*
X19998754Y-11533984D01*
X19998754Y-11533984D02*
X19970182Y-11533984D01*
X20093992Y-11400650D02*
X20170182Y-11400650D01*
X20122563Y-11333984D02*
X20122563Y-11505412D01*
X20122563Y-11505412D02*
X20132087Y-11524460D01*
X20132087Y-11524460D02*
X20151134Y-11533984D01*
X20151134Y-11533984D02*
X20170182Y-11533984D01*
X20389230Y-11400650D02*
X20389230Y-11600650D01*
X20389230Y-11410174D02*
X20408277Y-11400650D01*
X20408277Y-11400650D02*
X20446373Y-11400650D01*
X20446373Y-11400650D02*
X20465420Y-11410174D01*
X20465420Y-11410174D02*
X20474944Y-11419698D01*
X20474944Y-11419698D02*
X20484468Y-11438746D01*
X20484468Y-11438746D02*
X20484468Y-11495888D01*
X20484468Y-11495888D02*
X20474944Y-11514936D01*
X20474944Y-11514936D02*
X20465420Y-11524460D01*
X20465420Y-11524460D02*
X20446373Y-11533984D01*
X20446373Y-11533984D02*
X20408277Y-11533984D01*
X20408277Y-11533984D02*
X20389230Y-11524460D01*
X20598754Y-11533984D02*
X20579706Y-11524460D01*
X20579706Y-11524460D02*
X20570182Y-11505412D01*
X20570182Y-11505412D02*
X20570182Y-11333984D01*
X20760658Y-11533984D02*
X20760658Y-11429222D01*
X20760658Y-11429222D02*
X20751135Y-11410174D01*
X20751135Y-11410174D02*
X20732087Y-11400650D01*
X20732087Y-11400650D02*
X20693992Y-11400650D01*
X20693992Y-11400650D02*
X20674944Y-11410174D01*
X20760658Y-11524460D02*
X20741611Y-11533984D01*
X20741611Y-11533984D02*
X20693992Y-11533984D01*
X20693992Y-11533984D02*
X20674944Y-11524460D01*
X20674944Y-11524460D02*
X20665420Y-11505412D01*
X20665420Y-11505412D02*
X20665420Y-11486365D01*
X20665420Y-11486365D02*
X20674944Y-11467317D01*
X20674944Y-11467317D02*
X20693992Y-11457793D01*
X20693992Y-11457793D02*
X20741611Y-11457793D01*
X20741611Y-11457793D02*
X20760658Y-11448269D01*
X20827325Y-11400650D02*
X20903515Y-11400650D01*
X20855896Y-11333984D02*
X20855896Y-11505412D01*
X20855896Y-11505412D02*
X20865420Y-11524460D01*
X20865420Y-11524460D02*
X20884468Y-11533984D01*
X20884468Y-11533984D02*
X20903515Y-11533984D01*
X21046373Y-11524460D02*
X21027325Y-11533984D01*
X21027325Y-11533984D02*
X20989230Y-11533984D01*
X20989230Y-11533984D02*
X20970182Y-11524460D01*
X20970182Y-11524460D02*
X20960658Y-11505412D01*
X20960658Y-11505412D02*
X20960658Y-11429222D01*
X20960658Y-11429222D02*
X20970182Y-11410174D01*
X20970182Y-11410174D02*
X20989230Y-11400650D01*
X20989230Y-11400650D02*
X21027325Y-11400650D01*
X21027325Y-11400650D02*
X21046373Y-11410174D01*
X21046373Y-11410174D02*
X21055896Y-11429222D01*
X21055896Y-11429222D02*
X21055896Y-11448269D01*
X21055896Y-11448269D02*
X20960658Y-11467317D01*
X21227325Y-11533984D02*
X21227325Y-11333984D01*
X21227325Y-11524460D02*
X21208277Y-11533984D01*
X21208277Y-11533984D02*
X21170182Y-11533984D01*
X21170182Y-11533984D02*
X21151135Y-11524460D01*
X21151135Y-11524460D02*
X21141611Y-11514936D01*
X21141611Y-11514936D02*
X21132087Y-11495888D01*
X21132087Y-11495888D02*
X21132087Y-11438746D01*
X21132087Y-11438746D02*
X21141611Y-11419698D01*
X21141611Y-11419698D02*
X21151135Y-11410174D01*
X21151135Y-11410174D02*
X21170182Y-11400650D01*
X21170182Y-11400650D02*
X21208277Y-11400650D01*
X21208277Y-11400650D02*
X21227325Y-11410174D01*
X21303516Y-11610174D02*
X21313039Y-11600650D01*
X21313039Y-11600650D02*
X21332087Y-11572079D01*
X21332087Y-11572079D02*
X21341611Y-11553031D01*
X21341611Y-11553031D02*
X21351135Y-11524460D01*
X21351135Y-11524460D02*
X21360658Y-11476841D01*
X21360658Y-11476841D02*
X21360658Y-11438746D01*
X21360658Y-11438746D02*
X21351135Y-11391127D01*
X21351135Y-11391127D02*
X21341611Y-11362555D01*
X21341611Y-11362555D02*
X21332087Y-11343508D01*
X21332087Y-11343508D02*
X21313039Y-11314936D01*
X21313039Y-11314936D02*
X21303516Y-11305412D01*
X14547500Y-11732500D02*
G75*
G02*
X14347500Y-11732500I-100000J0D01*
G01*
X14347500Y-11732500D02*
G75*
G02*
X14547500Y-11732500I100000J0D01*
G01*
X14893991Y-11690650D02*
X14893991Y-11823984D01*
X14846372Y-11614460D02*
X14798753Y-11757317D01*
X14798753Y-11757317D02*
X14922562Y-11757317D01*
X14998753Y-11804936D02*
X15008277Y-11814460D01*
X15008277Y-11814460D02*
X14998753Y-11823984D01*
X14998753Y-11823984D02*
X14989229Y-11814460D01*
X14989229Y-11814460D02*
X14998753Y-11804936D01*
X14998753Y-11804936D02*
X14998753Y-11823984D01*
X15132086Y-11623984D02*
X15151134Y-11623984D01*
X15151134Y-11623984D02*
X15170182Y-11633508D01*
X15170182Y-11633508D02*
X15179705Y-11643031D01*
X15179705Y-11643031D02*
X15189229Y-11662079D01*
X15189229Y-11662079D02*
X15198753Y-11700174D01*
X15198753Y-11700174D02*
X15198753Y-11747793D01*
X15198753Y-11747793D02*
X15189229Y-11785888D01*
X15189229Y-11785888D02*
X15179705Y-11804936D01*
X15179705Y-11804936D02*
X15170182Y-11814460D01*
X15170182Y-11814460D02*
X15151134Y-11823984D01*
X15151134Y-11823984D02*
X15132086Y-11823984D01*
X15132086Y-11823984D02*
X15113039Y-11814460D01*
X15113039Y-11814460D02*
X15103515Y-11804936D01*
X15103515Y-11804936D02*
X15093991Y-11785888D01*
X15093991Y-11785888D02*
X15084467Y-11747793D01*
X15084467Y-11747793D02*
X15084467Y-11700174D01*
X15084467Y-11700174D02*
X15093991Y-11662079D01*
X15093991Y-11662079D02*
X15103515Y-11643031D01*
X15103515Y-11643031D02*
X15113039Y-11633508D01*
X15113039Y-11633508D02*
X15132086Y-11623984D01*
X15322562Y-11623984D02*
X15341610Y-11623984D01*
X15341610Y-11623984D02*
X15360658Y-11633508D01*
X15360658Y-11633508D02*
X15370182Y-11643031D01*
X15370182Y-11643031D02*
X15379705Y-11662079D01*
X15379705Y-11662079D02*
X15389229Y-11700174D01*
X15389229Y-11700174D02*
X15389229Y-11747793D01*
X15389229Y-11747793D02*
X15379705Y-11785888D01*
X15379705Y-11785888D02*
X15370182Y-11804936D01*
X15370182Y-11804936D02*
X15360658Y-11814460D01*
X15360658Y-11814460D02*
X15341610Y-11823984D01*
X15341610Y-11823984D02*
X15322562Y-11823984D01*
X15322562Y-11823984D02*
X15303515Y-11814460D01*
X15303515Y-11814460D02*
X15293991Y-11804936D01*
X15293991Y-11804936D02*
X15284467Y-11785888D01*
X15284467Y-11785888D02*
X15274943Y-11747793D01*
X15274943Y-11747793D02*
X15274943Y-11700174D01*
X15274943Y-11700174D02*
X15284467Y-11662079D01*
X15284467Y-11662079D02*
X15293991Y-11643031D01*
X15293991Y-11643031D02*
X15303515Y-11633508D01*
X15303515Y-11633508D02*
X15322562Y-11623984D01*
X15513039Y-11623984D02*
X15532086Y-11623984D01*
X15532086Y-11623984D02*
X15551134Y-11633508D01*
X15551134Y-11633508D02*
X15560658Y-11643031D01*
X15560658Y-11643031D02*
X15570182Y-11662079D01*
X15570182Y-11662079D02*
X15579705Y-11700174D01*
X15579705Y-11700174D02*
X15579705Y-11747793D01*
X15579705Y-11747793D02*
X15570182Y-11785888D01*
X15570182Y-11785888D02*
X15560658Y-11804936D01*
X15560658Y-11804936D02*
X15551134Y-11814460D01*
X15551134Y-11814460D02*
X15532086Y-11823984D01*
X15532086Y-11823984D02*
X15513039Y-11823984D01*
X15513039Y-11823984D02*
X15493991Y-11814460D01*
X15493991Y-11814460D02*
X15484467Y-11804936D01*
X15484467Y-11804936D02*
X15474943Y-11785888D01*
X15474943Y-11785888D02*
X15465420Y-11747793D01*
X15465420Y-11747793D02*
X15465420Y-11700174D01*
X15465420Y-11700174D02*
X15474943Y-11662079D01*
X15474943Y-11662079D02*
X15484467Y-11643031D01*
X15484467Y-11643031D02*
X15493991Y-11633508D01*
X15493991Y-11633508D02*
X15513039Y-11623984D01*
X15665420Y-11823984D02*
X15665420Y-11690650D01*
X15665420Y-11709698D02*
X15674943Y-11700174D01*
X15674943Y-11700174D02*
X15693991Y-11690650D01*
X15693991Y-11690650D02*
X15722563Y-11690650D01*
X15722563Y-11690650D02*
X15741610Y-11700174D01*
X15741610Y-11700174D02*
X15751134Y-11719222D01*
X15751134Y-11719222D02*
X15751134Y-11823984D01*
X15751134Y-11719222D02*
X15760658Y-11700174D01*
X15760658Y-11700174D02*
X15779705Y-11690650D01*
X15779705Y-11690650D02*
X15808277Y-11690650D01*
X15808277Y-11690650D02*
X15827324Y-11700174D01*
X15827324Y-11700174D02*
X15836848Y-11719222D01*
X15836848Y-11719222D02*
X15836848Y-11823984D01*
X15932086Y-11823984D02*
X15932086Y-11690650D01*
X15932086Y-11709698D02*
X15941610Y-11700174D01*
X15941610Y-11700174D02*
X15960658Y-11690650D01*
X15960658Y-11690650D02*
X15989229Y-11690650D01*
X15989229Y-11690650D02*
X16008277Y-11700174D01*
X16008277Y-11700174D02*
X16017801Y-11719222D01*
X16017801Y-11719222D02*
X16017801Y-11823984D01*
X16017801Y-11719222D02*
X16027324Y-11700174D01*
X16027324Y-11700174D02*
X16046372Y-11690650D01*
X16046372Y-11690650D02*
X16074943Y-11690650D01*
X16074943Y-11690650D02*
X16093991Y-11700174D01*
X16093991Y-11700174D02*
X16103515Y-11719222D01*
X16103515Y-11719222D02*
X16103515Y-11823984D01*
X16493991Y-11614460D02*
X16322563Y-11871603D01*
X16751134Y-11623984D02*
X16770182Y-11623984D01*
X16770182Y-11623984D02*
X16789229Y-11633508D01*
X16789229Y-11633508D02*
X16798753Y-11643031D01*
X16798753Y-11643031D02*
X16808277Y-11662079D01*
X16808277Y-11662079D02*
X16817801Y-11700174D01*
X16817801Y-11700174D02*
X16817801Y-11747793D01*
X16817801Y-11747793D02*
X16808277Y-11785888D01*
X16808277Y-11785888D02*
X16798753Y-11804936D01*
X16798753Y-11804936D02*
X16789229Y-11814460D01*
X16789229Y-11814460D02*
X16770182Y-11823984D01*
X16770182Y-11823984D02*
X16751134Y-11823984D01*
X16751134Y-11823984D02*
X16732086Y-11814460D01*
X16732086Y-11814460D02*
X16722563Y-11804936D01*
X16722563Y-11804936D02*
X16713039Y-11785888D01*
X16713039Y-11785888D02*
X16703515Y-11747793D01*
X16703515Y-11747793D02*
X16703515Y-11700174D01*
X16703515Y-11700174D02*
X16713039Y-11662079D01*
X16713039Y-11662079D02*
X16722563Y-11643031D01*
X16722563Y-11643031D02*
X16732086Y-11633508D01*
X16732086Y-11633508D02*
X16751134Y-11623984D01*
X16903515Y-11804936D02*
X16913039Y-11814460D01*
X16913039Y-11814460D02*
X16903515Y-11823984D01*
X16903515Y-11823984D02*
X16893991Y-11814460D01*
X16893991Y-11814460D02*
X16903515Y-11804936D01*
X16903515Y-11804936D02*
X16903515Y-11823984D01*
X17103515Y-11823984D02*
X16989229Y-11823984D01*
X17046372Y-11823984D02*
X17046372Y-11623984D01*
X17046372Y-11623984D02*
X17027325Y-11652555D01*
X17027325Y-11652555D02*
X17008277Y-11671603D01*
X17008277Y-11671603D02*
X16989229Y-11681127D01*
X17284468Y-11623984D02*
X17189229Y-11623984D01*
X17189229Y-11623984D02*
X17179706Y-11719222D01*
X17179706Y-11719222D02*
X17189229Y-11709698D01*
X17189229Y-11709698D02*
X17208277Y-11700174D01*
X17208277Y-11700174D02*
X17255896Y-11700174D01*
X17255896Y-11700174D02*
X17274944Y-11709698D01*
X17274944Y-11709698D02*
X17284468Y-11719222D01*
X17284468Y-11719222D02*
X17293991Y-11738269D01*
X17293991Y-11738269D02*
X17293991Y-11785888D01*
X17293991Y-11785888D02*
X17284468Y-11804936D01*
X17284468Y-11804936D02*
X17274944Y-11814460D01*
X17274944Y-11814460D02*
X17255896Y-11823984D01*
X17255896Y-11823984D02*
X17208277Y-11823984D01*
X17208277Y-11823984D02*
X17189229Y-11814460D01*
X17189229Y-11814460D02*
X17179706Y-11804936D01*
X17360658Y-11623984D02*
X17493991Y-11623984D01*
X17493991Y-11623984D02*
X17408277Y-11823984D01*
X17665420Y-11623984D02*
X17570182Y-11623984D01*
X17570182Y-11623984D02*
X17560658Y-11719222D01*
X17560658Y-11719222D02*
X17570182Y-11709698D01*
X17570182Y-11709698D02*
X17589229Y-11700174D01*
X17589229Y-11700174D02*
X17636849Y-11700174D01*
X17636849Y-11700174D02*
X17655896Y-11709698D01*
X17655896Y-11709698D02*
X17665420Y-11719222D01*
X17665420Y-11719222D02*
X17674944Y-11738269D01*
X17674944Y-11738269D02*
X17674944Y-11785888D01*
X17674944Y-11785888D02*
X17665420Y-11804936D01*
X17665420Y-11804936D02*
X17655896Y-11814460D01*
X17655896Y-11814460D02*
X17636849Y-11823984D01*
X17636849Y-11823984D02*
X17589229Y-11823984D01*
X17589229Y-11823984D02*
X17570182Y-11814460D01*
X17570182Y-11814460D02*
X17560658Y-11804936D01*
X17751134Y-11623984D02*
X17751134Y-11662079D01*
X17827325Y-11623984D02*
X17827325Y-11662079D01*
X18122563Y-11900174D02*
X18113039Y-11890650D01*
X18113039Y-11890650D02*
X18093991Y-11862079D01*
X18093991Y-11862079D02*
X18084468Y-11843031D01*
X18084468Y-11843031D02*
X18074944Y-11814460D01*
X18074944Y-11814460D02*
X18065420Y-11766841D01*
X18065420Y-11766841D02*
X18065420Y-11728746D01*
X18065420Y-11728746D02*
X18074944Y-11681127D01*
X18074944Y-11681127D02*
X18084468Y-11652555D01*
X18084468Y-11652555D02*
X18093991Y-11633508D01*
X18093991Y-11633508D02*
X18113039Y-11604936D01*
X18113039Y-11604936D02*
X18122563Y-11595412D01*
X18179706Y-11623984D02*
X18303515Y-11623984D01*
X18303515Y-11623984D02*
X18236849Y-11700174D01*
X18236849Y-11700174D02*
X18265420Y-11700174D01*
X18265420Y-11700174D02*
X18284468Y-11709698D01*
X18284468Y-11709698D02*
X18293991Y-11719222D01*
X18293991Y-11719222D02*
X18303515Y-11738269D01*
X18303515Y-11738269D02*
X18303515Y-11785888D01*
X18303515Y-11785888D02*
X18293991Y-11804936D01*
X18293991Y-11804936D02*
X18284468Y-11814460D01*
X18284468Y-11814460D02*
X18265420Y-11823984D01*
X18265420Y-11823984D02*
X18208277Y-11823984D01*
X18208277Y-11823984D02*
X18189230Y-11814460D01*
X18189230Y-11814460D02*
X18179706Y-11804936D01*
X18541611Y-11823984D02*
X18541611Y-11623984D01*
X18627325Y-11823984D02*
X18627325Y-11719222D01*
X18627325Y-11719222D02*
X18617801Y-11700174D01*
X18617801Y-11700174D02*
X18598753Y-11690650D01*
X18598753Y-11690650D02*
X18570182Y-11690650D01*
X18570182Y-11690650D02*
X18551134Y-11700174D01*
X18551134Y-11700174D02*
X18541611Y-11709698D01*
X18751134Y-11823984D02*
X18732087Y-11814460D01*
X18732087Y-11814460D02*
X18722563Y-11804936D01*
X18722563Y-11804936D02*
X18713039Y-11785888D01*
X18713039Y-11785888D02*
X18713039Y-11728746D01*
X18713039Y-11728746D02*
X18722563Y-11709698D01*
X18722563Y-11709698D02*
X18732087Y-11700174D01*
X18732087Y-11700174D02*
X18751134Y-11690650D01*
X18751134Y-11690650D02*
X18779706Y-11690650D01*
X18779706Y-11690650D02*
X18798753Y-11700174D01*
X18798753Y-11700174D02*
X18808277Y-11709698D01*
X18808277Y-11709698D02*
X18817801Y-11728746D01*
X18817801Y-11728746D02*
X18817801Y-11785888D01*
X18817801Y-11785888D02*
X18808277Y-11804936D01*
X18808277Y-11804936D02*
X18798753Y-11814460D01*
X18798753Y-11814460D02*
X18779706Y-11823984D01*
X18779706Y-11823984D02*
X18751134Y-11823984D01*
X18932087Y-11823984D02*
X18913039Y-11814460D01*
X18913039Y-11814460D02*
X18903515Y-11795412D01*
X18903515Y-11795412D02*
X18903515Y-11623984D01*
X19084468Y-11814460D02*
X19065420Y-11823984D01*
X19065420Y-11823984D02*
X19027325Y-11823984D01*
X19027325Y-11823984D02*
X19008277Y-11814460D01*
X19008277Y-11814460D02*
X18998753Y-11795412D01*
X18998753Y-11795412D02*
X18998753Y-11719222D01*
X18998753Y-11719222D02*
X19008277Y-11700174D01*
X19008277Y-11700174D02*
X19027325Y-11690650D01*
X19027325Y-11690650D02*
X19065420Y-11690650D01*
X19065420Y-11690650D02*
X19084468Y-11700174D01*
X19084468Y-11700174D02*
X19093992Y-11719222D01*
X19093992Y-11719222D02*
X19093992Y-11738269D01*
X19093992Y-11738269D02*
X18998753Y-11757317D01*
X19170182Y-11814460D02*
X19189230Y-11823984D01*
X19189230Y-11823984D02*
X19227325Y-11823984D01*
X19227325Y-11823984D02*
X19246373Y-11814460D01*
X19246373Y-11814460D02*
X19255896Y-11795412D01*
X19255896Y-11795412D02*
X19255896Y-11785888D01*
X19255896Y-11785888D02*
X19246373Y-11766841D01*
X19246373Y-11766841D02*
X19227325Y-11757317D01*
X19227325Y-11757317D02*
X19198753Y-11757317D01*
X19198753Y-11757317D02*
X19179706Y-11747793D01*
X19179706Y-11747793D02*
X19170182Y-11728746D01*
X19170182Y-11728746D02*
X19170182Y-11719222D01*
X19170182Y-11719222D02*
X19179706Y-11700174D01*
X19179706Y-11700174D02*
X19198753Y-11690650D01*
X19198753Y-11690650D02*
X19227325Y-11690650D01*
X19227325Y-11690650D02*
X19246373Y-11700174D01*
X19322563Y-11900174D02*
X19332087Y-11890650D01*
X19332087Y-11890650D02*
X19351134Y-11862079D01*
X19351134Y-11862079D02*
X19360658Y-11843031D01*
X19360658Y-11843031D02*
X19370182Y-11814460D01*
X19370182Y-11814460D02*
X19379706Y-11766841D01*
X19379706Y-11766841D02*
X19379706Y-11728746D01*
X19379706Y-11728746D02*
X19370182Y-11681127D01*
X19370182Y-11681127D02*
X19360658Y-11652555D01*
X19360658Y-11652555D02*
X19351134Y-11633508D01*
X19351134Y-11633508D02*
X19332087Y-11604936D01*
X19332087Y-11604936D02*
X19322563Y-11595412D01*
X19684468Y-11900174D02*
X19674944Y-11890650D01*
X19674944Y-11890650D02*
X19655896Y-11862079D01*
X19655896Y-11862079D02*
X19646373Y-11843031D01*
X19646373Y-11843031D02*
X19636849Y-11814460D01*
X19636849Y-11814460D02*
X19627325Y-11766841D01*
X19627325Y-11766841D02*
X19627325Y-11728746D01*
X19627325Y-11728746D02*
X19636849Y-11681127D01*
X19636849Y-11681127D02*
X19646373Y-11652555D01*
X19646373Y-11652555D02*
X19655896Y-11633508D01*
X19655896Y-11633508D02*
X19674944Y-11604936D01*
X19674944Y-11604936D02*
X19684468Y-11595412D01*
X19760658Y-11690650D02*
X19760658Y-11823984D01*
X19760658Y-11709698D02*
X19770182Y-11700174D01*
X19770182Y-11700174D02*
X19789230Y-11690650D01*
X19789230Y-11690650D02*
X19817801Y-11690650D01*
X19817801Y-11690650D02*
X19836849Y-11700174D01*
X19836849Y-11700174D02*
X19846373Y-11719222D01*
X19846373Y-11719222D02*
X19846373Y-11823984D01*
X19970182Y-11823984D02*
X19951134Y-11814460D01*
X19951134Y-11814460D02*
X19941611Y-11804936D01*
X19941611Y-11804936D02*
X19932087Y-11785888D01*
X19932087Y-11785888D02*
X19932087Y-11728746D01*
X19932087Y-11728746D02*
X19941611Y-11709698D01*
X19941611Y-11709698D02*
X19951134Y-11700174D01*
X19951134Y-11700174D02*
X19970182Y-11690650D01*
X19970182Y-11690650D02*
X19998754Y-11690650D01*
X19998754Y-11690650D02*
X20017801Y-11700174D01*
X20017801Y-11700174D02*
X20027325Y-11709698D01*
X20027325Y-11709698D02*
X20036849Y-11728746D01*
X20036849Y-11728746D02*
X20036849Y-11785888D01*
X20036849Y-11785888D02*
X20027325Y-11804936D01*
X20027325Y-11804936D02*
X20017801Y-11814460D01*
X20017801Y-11814460D02*
X19998754Y-11823984D01*
X19998754Y-11823984D02*
X19970182Y-11823984D01*
X20093992Y-11690650D02*
X20170182Y-11690650D01*
X20122563Y-11623984D02*
X20122563Y-11795412D01*
X20122563Y-11795412D02*
X20132087Y-11814460D01*
X20132087Y-11814460D02*
X20151134Y-11823984D01*
X20151134Y-11823984D02*
X20170182Y-11823984D01*
X20389230Y-11690650D02*
X20389230Y-11890650D01*
X20389230Y-11700174D02*
X20408277Y-11690650D01*
X20408277Y-11690650D02*
X20446373Y-11690650D01*
X20446373Y-11690650D02*
X20465420Y-11700174D01*
X20465420Y-11700174D02*
X20474944Y-11709698D01*
X20474944Y-11709698D02*
X20484468Y-11728746D01*
X20484468Y-11728746D02*
X20484468Y-11785888D01*
X20484468Y-11785888D02*
X20474944Y-11804936D01*
X20474944Y-11804936D02*
X20465420Y-11814460D01*
X20465420Y-11814460D02*
X20446373Y-11823984D01*
X20446373Y-11823984D02*
X20408277Y-11823984D01*
X20408277Y-11823984D02*
X20389230Y-11814460D01*
X20598754Y-11823984D02*
X20579706Y-11814460D01*
X20579706Y-11814460D02*
X20570182Y-11795412D01*
X20570182Y-11795412D02*
X20570182Y-11623984D01*
X20760658Y-11823984D02*
X20760658Y-11719222D01*
X20760658Y-11719222D02*
X20751135Y-11700174D01*
X20751135Y-11700174D02*
X20732087Y-11690650D01*
X20732087Y-11690650D02*
X20693992Y-11690650D01*
X20693992Y-11690650D02*
X20674944Y-11700174D01*
X20760658Y-11814460D02*
X20741611Y-11823984D01*
X20741611Y-11823984D02*
X20693992Y-11823984D01*
X20693992Y-11823984D02*
X20674944Y-11814460D01*
X20674944Y-11814460D02*
X20665420Y-11795412D01*
X20665420Y-11795412D02*
X20665420Y-11776365D01*
X20665420Y-11776365D02*
X20674944Y-11757317D01*
X20674944Y-11757317D02*
X20693992Y-11747793D01*
X20693992Y-11747793D02*
X20741611Y-11747793D01*
X20741611Y-11747793D02*
X20760658Y-11738269D01*
X20827325Y-11690650D02*
X20903515Y-11690650D01*
X20855896Y-11623984D02*
X20855896Y-11795412D01*
X20855896Y-11795412D02*
X20865420Y-11814460D01*
X20865420Y-11814460D02*
X20884468Y-11823984D01*
X20884468Y-11823984D02*
X20903515Y-11823984D01*
X21046373Y-11814460D02*
X21027325Y-11823984D01*
X21027325Y-11823984D02*
X20989230Y-11823984D01*
X20989230Y-11823984D02*
X20970182Y-11814460D01*
X20970182Y-11814460D02*
X20960658Y-11795412D01*
X20960658Y-11795412D02*
X20960658Y-11719222D01*
X20960658Y-11719222D02*
X20970182Y-11700174D01*
X20970182Y-11700174D02*
X20989230Y-11690650D01*
X20989230Y-11690650D02*
X21027325Y-11690650D01*
X21027325Y-11690650D02*
X21046373Y-11700174D01*
X21046373Y-11700174D02*
X21055896Y-11719222D01*
X21055896Y-11719222D02*
X21055896Y-11738269D01*
X21055896Y-11738269D02*
X20960658Y-11757317D01*
X21227325Y-11823984D02*
X21227325Y-11623984D01*
X21227325Y-11814460D02*
X21208277Y-11823984D01*
X21208277Y-11823984D02*
X21170182Y-11823984D01*
X21170182Y-11823984D02*
X21151135Y-11814460D01*
X21151135Y-11814460D02*
X21141611Y-11804936D01*
X21141611Y-11804936D02*
X21132087Y-11785888D01*
X21132087Y-11785888D02*
X21132087Y-11728746D01*
X21132087Y-11728746D02*
X21141611Y-11709698D01*
X21141611Y-11709698D02*
X21151135Y-11700174D01*
X21151135Y-11700174D02*
X21170182Y-11690650D01*
X21170182Y-11690650D02*
X21208277Y-11690650D01*
X21208277Y-11690650D02*
X21227325Y-11700174D01*
X21303516Y-11900174D02*
X21313039Y-11890650D01*
X21313039Y-11890650D02*
X21332087Y-11862079D01*
X21332087Y-11862079D02*
X21341611Y-11843031D01*
X21341611Y-11843031D02*
X21351135Y-11814460D01*
X21351135Y-11814460D02*
X21360658Y-11766841D01*
X21360658Y-11766841D02*
X21360658Y-11728746D01*
X21360658Y-11728746D02*
X21351135Y-11681127D01*
X21351135Y-11681127D02*
X21341611Y-11652555D01*
X21341611Y-11652555D02*
X21332087Y-11633508D01*
X21332087Y-11633508D02*
X21313039Y-11604936D01*
X21313039Y-11604936D02*
X21303516Y-11595412D01*
M02*
