%TF.GenerationSoftware,KiCad,Pcbnew,8.0.8*%
%TF.CreationDate,2025-03-16T10:34:52+05:30*%
%TF.ProjectId,keyboard,6b657962-6f61-4726-942e-6b696361645f,rev?*%
%TF.SameCoordinates,Original*%
%TF.FileFunction,Soldermask,Top*%
%TF.FilePolarity,Negative*%
%FSLAX46Y46*%
G04 Gerber Fmt 4.6, Leading zero omitted, Abs format (unit mm)*
G04 Created by KiCad (PCBNEW 8.0.8) date 2025-03-16 10:34:52*
%MOMM*%
%LPD*%
G01*
G04 APERTURE LIST*
%ADD10C,1.701800*%
%ADD11C,3.429000*%
%ADD12C,0.990600*%
%ADD13C,2.032000*%
%ADD14R,2.000000X2.000000*%
%ADD15C,2.000000*%
%ADD16R,3.200000X2.000000*%
%ADD17O,1.800000X1.800000*%
%ADD18O,1.500000X1.500000*%
%ADD19O,1.700000X1.700000*%
%ADD20R,3.500000X1.700000*%
%ADD21R,1.700000X1.700000*%
%ADD22R,1.700000X3.500000*%
G04 APERTURE END LIST*
D10*
%TO.C,SW22*%
X260298896Y-62974533D03*
D11*
X265062036Y-60224533D03*
D12*
X267482689Y-53977226D03*
D10*
X269825176Y-57474533D03*
D13*
X268012036Y-65334083D03*
X262631909Y-66015430D03*
%TD*%
D14*
%TO.C,SW42*%
X181500000Y-94900000D03*
D15*
X181500000Y-99900000D03*
X181500000Y-97400000D03*
D16*
X189000000Y-91800000D03*
X189000000Y-103000000D03*
D15*
X196000000Y-99900000D03*
X196000000Y-94900000D03*
%TD*%
D10*
%TO.C,SW14*%
X94855297Y-105654304D03*
D11*
X99618437Y-108404304D03*
D12*
X106239090Y-107376997D03*
D10*
X104381577Y-111154304D03*
D13*
X96668437Y-113513854D03*
X93388310Y-109195201D03*
%TD*%
D10*
%TO.C,SW18*%
X257510394Y-118144702D03*
D11*
X262273534Y-115394702D03*
D12*
X264694187Y-109147395D03*
D10*
X267036674Y-112644702D03*
D13*
X265223534Y-120504252D03*
X259843407Y-121185599D03*
%TD*%
D10*
%TO.C,SW32*%
X87455299Y-118471479D03*
D11*
X92218439Y-121221479D03*
D12*
X98839092Y-120194172D03*
D10*
X96981579Y-123971479D03*
D13*
X89268439Y-126331029D03*
X85988312Y-122012376D03*
%TD*%
D10*
%TO.C,SW15*%
X107953296Y-113216439D03*
D11*
X112716436Y-115966439D03*
D12*
X119337089Y-114939132D03*
D10*
X117479576Y-118716439D03*
D13*
X109766436Y-121075989D03*
X106486309Y-116757336D03*
%TD*%
D10*
%TO.C,SW29*%
X312472597Y-92185761D03*
D11*
X317235737Y-89435761D03*
D12*
X319656390Y-83188454D03*
D10*
X321998877Y-86685761D03*
D13*
X320185737Y-94545311D03*
X314805610Y-95226658D03*
%TD*%
D10*
%TO.C,SW27*%
X294049205Y-91275509D03*
D11*
X298812345Y-88525509D03*
D12*
X301232998Y-82278202D03*
D10*
X303575485Y-85775509D03*
D13*
X301762345Y-93635059D03*
X296382218Y-94316406D03*
%TD*%
D10*
%TO.C,SW11*%
X45286598Y-100129813D03*
D11*
X50049738Y-102879813D03*
D12*
X56670391Y-101852506D03*
D10*
X54812878Y-105629813D03*
D13*
X47099738Y-107989363D03*
X43819611Y-103670710D03*
%TD*%
D10*
%TO.C,SW20*%
X263068441Y-97615254D03*
D11*
X267831581Y-94865254D03*
D12*
X270252234Y-88617947D03*
D10*
X272594721Y-92115254D03*
D13*
X270781581Y-99974804D03*
X265401454Y-100656151D03*
%TD*%
D10*
%TO.C,SW30*%
X319972598Y-105176146D03*
D11*
X324735738Y-102426146D03*
D12*
X327156391Y-96178839D03*
D10*
X329498878Y-99676146D03*
D13*
X327685738Y-107535696D03*
X322305611Y-108217043D03*
%TD*%
D10*
%TO.C,SW12*%
X71041527Y-85900975D03*
D11*
X75804667Y-88650975D03*
D12*
X82425320Y-87623668D03*
D10*
X80567807Y-91400975D03*
D13*
X72854667Y-93760525D03*
X69574540Y-89441872D03*
%TD*%
D10*
%TO.C,SW25*%
X278868386Y-64862765D03*
D11*
X283631526Y-62112765D03*
D12*
X286052179Y-55865458D03*
D10*
X288394666Y-59362765D03*
D13*
X286581526Y-67222315D03*
X281201399Y-67903662D03*
%TD*%
D10*
%TO.C,SW21*%
X270568441Y-110605634D03*
D11*
X275331581Y-107855634D03*
D12*
X277752234Y-101608327D03*
D10*
X280094721Y-105105634D03*
D13*
X278281581Y-112965184D03*
X272901454Y-113646531D03*
%TD*%
D10*
%TO.C,SW7*%
X78541528Y-72910593D03*
D11*
X83304668Y-75660593D03*
D12*
X89925321Y-74633286D03*
D10*
X88067808Y-78410593D03*
D13*
X80354668Y-80770143D03*
X77074541Y-76451490D03*
%TD*%
D10*
%TO.C,SW24*%
X275558822Y-89249228D03*
D11*
X280321962Y-86499228D03*
D12*
X282742615Y-80251921D03*
D10*
X285085102Y-83749228D03*
D13*
X283271962Y-91608778D03*
X277891835Y-92290125D03*
%TD*%
D10*
%TO.C,SW13*%
X89081908Y-84654119D03*
D11*
X93845048Y-87404119D03*
D12*
X100465701Y-86376812D03*
D10*
X98608188Y-90154119D03*
D13*
X90895048Y-92513669D03*
X87614921Y-88195016D03*
%TD*%
D10*
%TO.C,SW9*%
X102355299Y-92663927D03*
D11*
X107118439Y-95413927D03*
D12*
X113739092Y-94386620D03*
D10*
X111881579Y-98163927D03*
D13*
X104168439Y-100523477D03*
X100888312Y-96204824D03*
%TD*%
D17*
%TO.C,U1*%
X184165000Y-34890000D03*
D18*
X184465000Y-37920000D03*
X189315000Y-37920000D03*
D17*
X189615000Y-34890000D03*
D19*
X178000000Y-34760000D03*
D20*
X177100000Y-34760000D03*
D19*
X178000000Y-37300000D03*
D20*
X177100000Y-37300000D03*
D21*
X178000000Y-39840000D03*
D20*
X177100000Y-39840000D03*
D19*
X178000000Y-42380000D03*
D20*
X177100000Y-42380000D03*
D19*
X178000000Y-44920000D03*
D20*
X177100000Y-44920000D03*
D19*
X178000000Y-47460000D03*
D20*
X177100000Y-47460000D03*
D19*
X178000000Y-50000000D03*
D20*
X177100000Y-50000000D03*
D21*
X178000000Y-52540000D03*
D20*
X177100000Y-52540000D03*
D19*
X178000000Y-55080000D03*
D20*
X177100000Y-55080000D03*
D19*
X178000000Y-57620000D03*
D20*
X177100000Y-57620000D03*
D19*
X178000000Y-60160000D03*
D20*
X177100000Y-60160000D03*
D19*
X178000000Y-62700000D03*
D20*
X177100000Y-62700000D03*
D21*
X178000000Y-65240000D03*
D20*
X177100000Y-65240000D03*
D19*
X178000000Y-67780000D03*
D20*
X177100000Y-67780000D03*
D19*
X178000000Y-70320000D03*
D20*
X177100000Y-70320000D03*
D19*
X178000000Y-72860000D03*
D20*
X177100000Y-72860000D03*
D19*
X178000000Y-75400000D03*
D20*
X177100000Y-75400000D03*
D21*
X178000000Y-77940000D03*
D20*
X177100000Y-77940000D03*
D19*
X178000000Y-80480000D03*
D20*
X177100000Y-80480000D03*
D19*
X178000000Y-83020000D03*
D20*
X177100000Y-83020000D03*
D19*
X195780000Y-83020000D03*
D20*
X196680000Y-83020000D03*
D19*
X195780000Y-80480000D03*
D20*
X196680000Y-80480000D03*
D21*
X195780000Y-77940000D03*
D20*
X196680000Y-77940000D03*
D19*
X195780000Y-75400000D03*
D20*
X196680000Y-75400000D03*
D19*
X195780000Y-72860000D03*
D20*
X196680000Y-72860000D03*
D19*
X195780000Y-70320000D03*
D20*
X196680000Y-70320000D03*
D19*
X195780000Y-67780000D03*
D20*
X196680000Y-67780000D03*
D21*
X195780000Y-65240000D03*
D20*
X196680000Y-65240000D03*
D19*
X195780000Y-62700000D03*
D20*
X196680000Y-62700000D03*
D19*
X195780000Y-60160000D03*
D20*
X196680000Y-60160000D03*
D19*
X195780000Y-57620000D03*
D20*
X196680000Y-57620000D03*
D19*
X195780000Y-55080000D03*
D20*
X196680000Y-55080000D03*
D21*
X195780000Y-52540000D03*
D20*
X196680000Y-52540000D03*
D19*
X195780000Y-50000000D03*
D20*
X196680000Y-50000000D03*
D19*
X195780000Y-47460000D03*
D20*
X196680000Y-47460000D03*
D19*
X195780000Y-44920000D03*
D20*
X196680000Y-44920000D03*
D19*
X195780000Y-42380000D03*
D20*
X196680000Y-42380000D03*
D21*
X195780000Y-39840000D03*
D20*
X196680000Y-39840000D03*
D19*
X195780000Y-37300000D03*
D20*
X196680000Y-37300000D03*
D19*
X195780000Y-34760000D03*
D20*
X196680000Y-34760000D03*
D19*
X184350000Y-82790000D03*
D22*
X184350000Y-83690000D03*
D21*
X186890000Y-82790000D03*
D22*
X186890000Y-83690000D03*
D19*
X189430000Y-82790000D03*
D22*
X189430000Y-83690000D03*
%TD*%
D10*
%TO.C,SW8*%
X96531909Y-71750341D03*
D11*
X101295049Y-74500341D03*
D12*
X107915702Y-73473034D03*
D10*
X106058189Y-77250341D03*
D13*
X98345049Y-79609891D03*
X95064922Y-75291238D03*
%TD*%
D10*
%TO.C,SW38*%
X319435513Y-70545891D03*
D11*
X324198653Y-67795891D03*
D12*
X326619306Y-61548584D03*
D10*
X328961793Y-65045891D03*
D13*
X327148653Y-72905441D03*
X321768526Y-73586788D03*
%TD*%
D10*
%TO.C,SW33*%
X278000773Y-123635085D03*
D11*
X282763913Y-120885085D03*
D12*
X285184566Y-114637778D03*
D10*
X287527053Y-118135085D03*
D13*
X285713913Y-125994635D03*
X280333786Y-126675982D03*
%TD*%
D10*
%TO.C,SW19*%
X255308516Y-84330937D03*
D11*
X260071656Y-81580937D03*
D12*
X262492309Y-75333630D03*
D10*
X264834796Y-78830937D03*
D13*
X263021656Y-86690487D03*
X257641529Y-87371834D03*
%TD*%
D10*
%TO.C,SW40*%
X114735101Y-134221480D03*
D11*
X119498241Y-136971480D03*
D12*
X126118894Y-135944173D03*
D10*
X124261381Y-139721480D03*
D13*
X116548241Y-142081030D03*
X113268114Y-137762377D03*
%TD*%
D10*
%TO.C,SW16*%
X242278135Y-91761659D03*
D11*
X247041275Y-89011659D03*
D12*
X249461928Y-82764352D03*
D10*
X251804415Y-86261659D03*
D13*
X249991275Y-94121209D03*
X244611148Y-94802556D03*
%TD*%
D10*
%TO.C,SW34*%
X44909746Y-64716963D03*
D11*
X49672886Y-67466963D03*
D12*
X56293539Y-66439656D03*
D10*
X54436026Y-70216963D03*
D13*
X46722886Y-72576513D03*
X43442759Y-68257860D03*
%TD*%
D10*
%TO.C,SW5*%
X122903300Y-87322281D03*
D11*
X127666440Y-90072281D03*
D12*
X134287093Y-89044974D03*
D10*
X132429580Y-92822281D03*
D13*
X124716440Y-95181831D03*
X121436313Y-90863178D03*
%TD*%
D10*
%TO.C,SW26*%
X286600644Y-78255427D03*
D11*
X291363784Y-75505427D03*
D12*
X293784437Y-69258120D03*
D10*
X296126924Y-72755427D03*
D13*
X294313784Y-80614977D03*
X288933657Y-81296324D03*
%TD*%
D10*
%TO.C,SW10*%
X115453296Y-100226062D03*
D11*
X120216436Y-102976062D03*
D12*
X126837089Y-101948755D03*
D10*
X124979576Y-105726062D03*
D13*
X117266436Y-108085612D03*
X113986309Y-103766959D03*
%TD*%
D10*
%TO.C,SW39*%
X326993706Y-83801997D03*
D11*
X331756846Y-81051997D03*
D12*
X334177499Y-74804690D03*
D10*
X336519986Y-78301997D03*
D13*
X334706846Y-86161547D03*
X329326719Y-86842894D03*
%TD*%
D10*
%TO.C,SW37*%
X265010395Y-131135084D03*
D11*
X269773535Y-128385084D03*
D12*
X272194188Y-122137777D03*
D10*
X274536675Y-125635084D03*
D13*
X272723535Y-133494634D03*
X267343408Y-134175981D03*
%TD*%
D10*
%TO.C,SW4*%
X109805300Y-79760148D03*
D11*
X114568440Y-82510148D03*
D12*
X121189093Y-81482841D03*
D10*
X119331580Y-85260148D03*
D13*
X111618440Y-87619698D03*
X108338313Y-83301045D03*
%TD*%
D10*
%TO.C,SW28*%
X304347327Y-79112381D03*
D11*
X309110467Y-76362381D03*
D12*
X311531120Y-70115074D03*
D10*
X313873607Y-73612381D03*
D13*
X312060467Y-81471931D03*
X306680340Y-82153278D03*
%TD*%
D10*
%TO.C,SW23*%
X267991154Y-76297917D03*
D11*
X272754294Y-73547917D03*
D12*
X275174947Y-67300610D03*
D10*
X277517434Y-70797917D03*
D13*
X275704294Y-78657467D03*
X270324167Y-79338814D03*
%TD*%
D10*
%TO.C,SW3*%
X103981909Y-58846561D03*
D11*
X108745049Y-61596561D03*
D12*
X115365702Y-60569254D03*
D10*
X113508189Y-64346561D03*
D13*
X105795049Y-66706111D03*
X102514922Y-62387458D03*
%TD*%
D10*
%TO.C,SW17*%
X250010393Y-105154323D03*
D11*
X254773533Y-102404323D03*
D12*
X257194186Y-96157016D03*
D10*
X259536673Y-99654323D03*
D13*
X257723533Y-107513873D03*
X252343406Y-108195220D03*
%TD*%
D10*
%TO.C,SW2*%
X86081529Y-59850934D03*
D11*
X90844669Y-62600934D03*
D12*
X97465322Y-61573627D03*
D10*
X95607809Y-65350934D03*
D13*
X87894669Y-67710484D03*
X84614542Y-63391831D03*
%TD*%
D10*
%TO.C,SW36*%
X100453297Y-126206823D03*
D11*
X105216437Y-128956823D03*
D12*
X111837090Y-127929516D03*
D10*
X109979577Y-131706823D03*
D13*
X102266437Y-134066373D03*
X98986310Y-129747720D03*
%TD*%
D10*
%TO.C,SW6*%
X53051146Y-87061230D03*
D11*
X57814286Y-89811230D03*
D12*
X64434939Y-88783923D03*
D10*
X62577426Y-92561230D03*
D13*
X54864286Y-94920780D03*
X51584159Y-90602127D03*
%TD*%
D10*
%TO.C,SW31*%
X251288641Y-140212044D03*
D11*
X256051781Y-137462044D03*
D12*
X258472434Y-131214737D03*
D10*
X260814921Y-134712044D03*
D13*
X259001781Y-142571594D03*
X253621654Y-143252941D03*
%TD*%
D10*
%TO.C,SW35*%
X37076179Y-78069021D03*
D11*
X41839319Y-80819021D03*
D12*
X48459972Y-79791714D03*
D10*
X46602459Y-83569021D03*
D13*
X38889319Y-85928571D03*
X35609192Y-81609918D03*
%TD*%
D10*
%TO.C,SW1*%
X60591149Y-74001568D03*
D11*
X65354289Y-76751568D03*
D12*
X71974942Y-75724261D03*
D10*
X70117429Y-79501568D03*
D13*
X62404289Y-81861118D03*
X59124162Y-77542465D03*
%TD*%
M02*
