%TF.GenerationSoftware,KiCad,Pcbnew,8.0.8*%
%TF.CreationDate,2025-03-16T10:34:52+05:30*%
%TF.ProjectId,keyboard,6b657962-6f61-4726-942e-6b696361645f,rev?*%
%TF.SameCoordinates,Original*%
%TF.FileFunction,Copper,L1,Top*%
%TF.FilePolarity,Positive*%
%FSLAX46Y46*%
G04 Gerber Fmt 4.6, Leading zero omitted, Abs format (unit mm)*
G04 Created by KiCad (PCBNEW 8.0.8) date 2025-03-16 10:34:52*
%MOMM*%
%LPD*%
G01*
G04 APERTURE LIST*
%TA.AperFunction,ComponentPad*%
%ADD10C,2.032000*%
%TD*%
%TA.AperFunction,ComponentPad*%
%ADD11R,2.000000X2.000000*%
%TD*%
%TA.AperFunction,ComponentPad*%
%ADD12C,2.000000*%
%TD*%
%TA.AperFunction,ComponentPad*%
%ADD13R,3.200000X2.000000*%
%TD*%
%TA.AperFunction,ComponentPad*%
%ADD14O,1.700000X1.700000*%
%TD*%
%TA.AperFunction,SMDPad,CuDef*%
%ADD15R,3.500000X1.700000*%
%TD*%
%TA.AperFunction,ComponentPad*%
%ADD16R,1.700000X1.700000*%
%TD*%
%TA.AperFunction,SMDPad,CuDef*%
%ADD17R,1.700000X3.500000*%
%TD*%
%TA.AperFunction,ViaPad*%
%ADD18C,0.600000*%
%TD*%
%TA.AperFunction,Conductor*%
%ADD19C,0.200000*%
%TD*%
G04 APERTURE END LIST*
D10*
%TO.P,SW22,1,1*%
%TO.N,Net-(D22-A)*%
X268012036Y-65334083D03*
%TO.P,SW22,2,2*%
%TO.N,COL9*%
X262631909Y-66015430D03*
%TD*%
D11*
%TO.P,SW42,A,A*%
%TO.N,A*%
X181500000Y-94900000D03*
D12*
%TO.P,SW42,B,B*%
%TO.N,B*%
X181500000Y-99900000D03*
%TO.P,SW42,C,C*%
%TO.N,C*%
X181500000Y-97400000D03*
D13*
%TO.P,SW42,MP*%
%TO.N,N/C*%
X189000000Y-91800000D03*
X189000000Y-103000000D03*
D12*
%TO.P,SW42,S1*%
X196000000Y-99900000D03*
%TO.P,SW42,S2*%
X196000000Y-94900000D03*
%TD*%
D10*
%TO.P,SW14,1,1*%
%TO.N,Net-(D14-A)*%
X96668437Y-113513854D03*
%TO.P,SW14,2,2*%
%TO.N,COL5*%
X93388310Y-109195201D03*
%TD*%
%TO.P,SW18,1,1*%
%TO.N,Net-(D18-A)*%
X265223534Y-120504252D03*
%TO.P,SW18,2,2*%
%TO.N,COL7*%
X259843407Y-121185599D03*
%TD*%
%TO.P,SW32,1,1*%
%TO.N,Net-(D57-A)*%
X89268439Y-126331029D03*
%TO.P,SW32,2,2*%
%TO.N,COL2*%
X85988312Y-122012376D03*
%TD*%
%TO.P,SW15,1,1*%
%TO.N,Net-(D15-A)*%
X109766436Y-121075989D03*
%TO.P,SW15,2,2*%
%TO.N,COL6*%
X106486309Y-116757336D03*
%TD*%
%TO.P,SW29,1,1*%
%TO.N,Net-(D54-A)*%
X320185737Y-94545311D03*
%TO.P,SW29,2,2*%
%TO.N,COL11*%
X314805610Y-95226658D03*
%TD*%
%TO.P,SW27,1,1*%
%TO.N,Net-(D52-A)*%
X301762345Y-93635059D03*
%TO.P,SW27,2,2*%
%TO.N,COL10*%
X296382218Y-94316406D03*
%TD*%
%TO.P,SW11,1,1*%
%TO.N,Net-(D11-A)*%
X47099738Y-107989363D03*
%TO.P,SW11,2,2*%
%TO.N,COL2*%
X43819611Y-103670710D03*
%TD*%
%TO.P,SW20,1,1*%
%TO.N,Net-(D20-A)*%
X270781581Y-99974804D03*
%TO.P,SW20,2,2*%
%TO.N,COL8*%
X265401454Y-100656151D03*
%TD*%
%TO.P,SW30,1,1*%
%TO.N,Net-(D55-A)*%
X327685738Y-107535696D03*
%TO.P,SW30,2,2*%
%TO.N,COL11*%
X322305611Y-108217043D03*
%TD*%
%TO.P,SW12,1,1*%
%TO.N,Net-(D12-A)*%
X72854667Y-93760525D03*
%TO.P,SW12,2,2*%
%TO.N,COL3*%
X69574540Y-89441872D03*
%TD*%
%TO.P,SW25,1,1*%
%TO.N,Net-(D25-A)*%
X286581526Y-67222315D03*
%TO.P,SW25,2,2*%
%TO.N,COL10*%
X281201399Y-67903662D03*
%TD*%
%TO.P,SW21,1,1*%
%TO.N,Net-(D21-A)*%
X278281581Y-112965184D03*
%TO.P,SW21,2,2*%
%TO.N,COL8*%
X272901454Y-113646531D03*
%TD*%
%TO.P,SW7,1,1*%
%TO.N,Net-(D7-A)*%
X80354668Y-80770143D03*
%TO.P,SW7,2,2*%
%TO.N,COL3*%
X77074541Y-76451490D03*
%TD*%
%TO.P,SW24,1,1*%
%TO.N,Net-(D24-A)*%
X283271962Y-91608778D03*
%TO.P,SW24,2,2*%
%TO.N,COL9*%
X277891835Y-92290125D03*
%TD*%
%TO.P,SW13,1,1*%
%TO.N,Net-(D13-A)*%
X90895048Y-92513669D03*
%TO.P,SW13,2,2*%
%TO.N,COL4*%
X87614921Y-88195016D03*
%TD*%
%TO.P,SW9,1,1*%
%TO.N,Net-(D9-A)*%
X104168439Y-100523477D03*
%TO.P,SW9,2,2*%
%TO.N,COL5*%
X100888312Y-96204824D03*
%TD*%
D14*
%TO.P,U1,1,GPIO0*%
%TO.N,COL1*%
X178000000Y-34760000D03*
D15*
X177100000Y-34760000D03*
D14*
%TO.P,U1,2,GPIO1*%
%TO.N,COL2*%
X178000000Y-37300000D03*
D15*
X177100000Y-37300000D03*
D16*
%TO.P,U1,3,GND*%
%TO.N,C*%
X178000000Y-39840000D03*
D15*
X177100000Y-39840000D03*
D14*
%TO.P,U1,4,GPIO2*%
%TO.N,COL3*%
X178000000Y-42380000D03*
D15*
X177100000Y-42380000D03*
D14*
%TO.P,U1,5,GPIO3*%
%TO.N,COL4*%
X178000000Y-44920000D03*
D15*
X177100000Y-44920000D03*
D14*
%TO.P,U1,6,GPIO4*%
%TO.N,COL5*%
X178000000Y-47460000D03*
D15*
X177100000Y-47460000D03*
D14*
%TO.P,U1,7,GPIO5*%
%TO.N,COL6*%
X178000000Y-50000000D03*
D15*
X177100000Y-50000000D03*
D16*
%TO.P,U1,8,GND*%
%TO.N,unconnected-(U1-GND-Pad8)*%
X178000000Y-52540000D03*
D15*
X177100000Y-52540000D03*
D14*
%TO.P,U1,9,GPIO6*%
%TO.N,ROW1*%
X178000000Y-55080000D03*
D15*
X177100000Y-55080000D03*
D14*
%TO.P,U1,10,GPIO7*%
%TO.N,ROW2*%
X178000000Y-57620000D03*
D15*
X177100000Y-57620000D03*
D14*
%TO.P,U1,11,GPIO8*%
%TO.N,ROW3*%
X178000000Y-60160000D03*
D15*
X177100000Y-60160000D03*
D14*
%TO.P,U1,12,GPIO9*%
%TO.N,ROW4*%
X178000000Y-62700000D03*
D15*
X177100000Y-62700000D03*
D16*
%TO.P,U1,13,GND*%
%TO.N,unconnected-(U1-GND-Pad13)*%
X178000000Y-65240000D03*
D15*
X177100000Y-65240000D03*
D14*
%TO.P,U1,14,GPIO10*%
%TO.N,COL7*%
X178000000Y-67780000D03*
D15*
X177100000Y-67780000D03*
D14*
%TO.P,U1,15,GPIO11*%
%TO.N,COL8*%
X178000000Y-70320000D03*
D15*
X177100000Y-70320000D03*
D14*
%TO.P,U1,16,GPIO12*%
%TO.N,COL9*%
X178000000Y-72860000D03*
D15*
X177100000Y-72860000D03*
D14*
%TO.P,U1,17,GPIO13*%
%TO.N,COL10*%
X178000000Y-75400000D03*
D15*
X177100000Y-75400000D03*
D16*
%TO.P,U1,18,GND*%
%TO.N,unconnected-(U1-GND-Pad18)*%
X178000000Y-77940000D03*
D15*
X177100000Y-77940000D03*
D14*
%TO.P,U1,19,GPIO14*%
%TO.N,COL11*%
X178000000Y-80480000D03*
D15*
X177100000Y-80480000D03*
D14*
%TO.P,U1,20,GPIO15*%
%TO.N,COL12*%
X178000000Y-83020000D03*
D15*
X177100000Y-83020000D03*
D14*
%TO.P,U1,21,GPIO16*%
%TO.N,unconnected-(U1-GPIO16-Pad21)*%
X195780000Y-83020000D03*
D15*
X196680000Y-83020000D03*
D14*
%TO.P,U1,22,GPIO17*%
%TO.N,B*%
X195780000Y-80480000D03*
D15*
X196680000Y-80480000D03*
D16*
%TO.P,U1,23,GND*%
%TO.N,unconnected-(U1-GND-Pad23)*%
X195780000Y-77940000D03*
D15*
X196680000Y-77940000D03*
D14*
%TO.P,U1,24,GPIO18*%
%TO.N,A*%
X195780000Y-75400000D03*
D15*
X196680000Y-75400000D03*
D14*
%TO.P,U1,25,GPIO19*%
%TO.N,ROW5*%
X195780000Y-72860000D03*
D15*
X196680000Y-72860000D03*
D14*
%TO.P,U1,26,GPIO20*%
%TO.N,ROW6*%
X195780000Y-70320000D03*
D15*
X196680000Y-70320000D03*
D14*
%TO.P,U1,27,GPIO21*%
%TO.N,ROW7*%
X195780000Y-67780000D03*
D15*
X196680000Y-67780000D03*
D16*
%TO.P,U1,28,GND*%
%TO.N,unconnected-(U1-GND-Pad28)*%
X195780000Y-65240000D03*
D15*
X196680000Y-65240000D03*
D14*
%TO.P,U1,29,GPIO22*%
%TO.N,ROW8*%
X195780000Y-62700000D03*
D15*
X196680000Y-62700000D03*
D14*
%TO.P,U1,30,RUN*%
%TO.N,unconnected-(U1-RUN-Pad30)*%
X195780000Y-60160000D03*
D15*
X196680000Y-60160000D03*
D14*
%TO.P,U1,31,GPIO26_ADC0*%
%TO.N,unconnected-(U1-GPIO26_ADC0-Pad31)*%
X195780000Y-57620000D03*
D15*
X196680000Y-57620000D03*
D14*
%TO.P,U1,32,GPIO27_ADC1*%
%TO.N,unconnected-(U1-GPIO27_ADC1-Pad32)*%
X195780000Y-55080000D03*
D15*
X196680000Y-55080000D03*
D16*
%TO.P,U1,33,AGND*%
%TO.N,unconnected-(U1-AGND-Pad33)*%
X195780000Y-52540000D03*
D15*
X196680000Y-52540000D03*
D14*
%TO.P,U1,34,GPIO28_ADC2*%
%TO.N,unconnected-(U1-GPIO28_ADC2-Pad34)*%
X195780000Y-50000000D03*
D15*
X196680000Y-50000000D03*
D14*
%TO.P,U1,35,ADC_VREF*%
%TO.N,unconnected-(U1-ADC_VREF-Pad35)*%
X195780000Y-47460000D03*
D15*
X196680000Y-47460000D03*
D14*
%TO.P,U1,36,3V3*%
%TO.N,VCC*%
X195780000Y-44920000D03*
D15*
X196680000Y-44920000D03*
D14*
%TO.P,U1,37,3V3_EN*%
%TO.N,unconnected-(U1-3V3_EN-Pad37)*%
X195780000Y-42380000D03*
D15*
X196680000Y-42380000D03*
D16*
%TO.P,U1,38,GND*%
%TO.N,GND*%
X195780000Y-39840000D03*
D15*
X196680000Y-39840000D03*
D14*
%TO.P,U1,39,VSYS*%
%TO.N,unconnected-(U1-VSYS-Pad39)*%
X195780000Y-37300000D03*
D15*
X196680000Y-37300000D03*
D14*
%TO.P,U1,40,VBUS*%
%TO.N,unconnected-(U1-VBUS-Pad40)*%
X195780000Y-34760000D03*
D15*
X196680000Y-34760000D03*
D14*
%TO.P,U1,41,SWCLK*%
%TO.N,unconnected-(U1-SWCLK-Pad41)*%
X184350000Y-82790000D03*
D17*
X184350000Y-83690000D03*
D16*
%TO.P,U1,42,GND*%
%TO.N,unconnected-(U1-GND-Pad42)*%
X186890000Y-82790000D03*
D17*
X186890000Y-83690000D03*
D14*
%TO.P,U1,43,SWDIO*%
%TO.N,unconnected-(U1-SWDIO-Pad43)*%
X189430000Y-82790000D03*
D17*
X189430000Y-83690000D03*
%TD*%
D10*
%TO.P,SW8,1,1*%
%TO.N,Net-(D8-A)*%
X98345049Y-79609891D03*
%TO.P,SW8,2,2*%
%TO.N,COL4*%
X95064922Y-75291238D03*
%TD*%
%TO.P,SW38,1,1*%
%TO.N,Net-(D63-A)*%
X327148653Y-72905441D03*
%TO.P,SW38,2,2*%
%TO.N,COL12*%
X321768526Y-73586788D03*
%TD*%
%TO.P,SW33,1,1*%
%TO.N,Net-(D58-A)*%
X285713913Y-125994635D03*
%TO.P,SW33,2,2*%
%TO.N,COL11*%
X280333786Y-126675982D03*
%TD*%
%TO.P,SW19,1,1*%
%TO.N,Net-(D19-A)*%
X263021656Y-86690487D03*
%TO.P,SW19,2,2*%
%TO.N,COL8*%
X257641529Y-87371834D03*
%TD*%
%TO.P,SW40,1,1*%
%TO.N,Net-(D26-A)*%
X116548241Y-142081030D03*
%TO.P,SW40,2,2*%
%TO.N,COL4*%
X113268114Y-137762377D03*
%TD*%
%TO.P,SW16,1,1*%
%TO.N,Net-(D16-A)*%
X249991275Y-94121209D03*
%TO.P,SW16,2,2*%
%TO.N,COL7*%
X244611148Y-94802556D03*
%TD*%
%TO.P,SW34,1,1*%
%TO.N,Net-(D59-A)*%
X46722886Y-72576513D03*
%TO.P,SW34,2,2*%
%TO.N,COL1*%
X43442759Y-68257860D03*
%TD*%
%TO.P,SW5,1,1*%
%TO.N,Net-(D5-A)*%
X124716440Y-95181831D03*
%TO.P,SW5,2,2*%
%TO.N,COL6*%
X121436313Y-90863178D03*
%TD*%
%TO.P,SW26,1,1*%
%TO.N,Net-(D51-A)*%
X294313784Y-80614977D03*
%TO.P,SW26,2,2*%
%TO.N,COL10*%
X288933657Y-81296324D03*
%TD*%
%TO.P,SW10,1,1*%
%TO.N,Net-(D10-A)*%
X117266436Y-108085612D03*
%TO.P,SW10,2,2*%
%TO.N,COL6*%
X113986309Y-103766959D03*
%TD*%
%TO.P,SW39,1,1*%
%TO.N,Net-(D64-A)*%
X334706846Y-86161547D03*
%TO.P,SW39,2,2*%
%TO.N,COL12*%
X329326719Y-86842894D03*
%TD*%
%TO.P,SW37,1,1*%
%TO.N,Net-(D62-A)*%
X272723535Y-133494634D03*
%TO.P,SW37,2,2*%
%TO.N,COL10*%
X267343408Y-134175981D03*
%TD*%
%TO.P,SW4,1,1*%
%TO.N,Net-(D4-A)*%
X111618440Y-87619698D03*
%TO.P,SW4,2,2*%
%TO.N,COL5*%
X108338313Y-83301045D03*
%TD*%
%TO.P,SW28,1,1*%
%TO.N,Net-(D53-A)*%
X312060467Y-81471931D03*
%TO.P,SW28,2,2*%
%TO.N,COL11*%
X306680340Y-82153278D03*
%TD*%
%TO.P,SW23,1,1*%
%TO.N,Net-(D23-A)*%
X275704294Y-78657467D03*
%TO.P,SW23,2,2*%
%TO.N,COL9*%
X270324167Y-79338814D03*
%TD*%
%TO.P,SW3,1,1*%
%TO.N,Net-(D3-A)*%
X105795049Y-66706111D03*
%TO.P,SW3,2,2*%
%TO.N,COL4*%
X102514922Y-62387458D03*
%TD*%
%TO.P,SW17,1,1*%
%TO.N,Net-(D17-A)*%
X257723533Y-107513873D03*
%TO.P,SW17,2,2*%
%TO.N,COL7*%
X252343406Y-108195220D03*
%TD*%
%TO.P,SW2,1,1*%
%TO.N,Net-(D2-A)*%
X87894669Y-67710484D03*
%TO.P,SW2,2,2*%
%TO.N,COL3*%
X84614542Y-63391831D03*
%TD*%
%TO.P,SW36,1,1*%
%TO.N,Net-(D61-A)*%
X102266437Y-134066373D03*
%TO.P,SW36,2,2*%
%TO.N,COL3*%
X98986310Y-129747720D03*
%TD*%
%TO.P,SW6,1,1*%
%TO.N,Net-(D6-A)*%
X54864286Y-94920780D03*
%TO.P,SW6,2,2*%
%TO.N,COL2*%
X51584159Y-90602127D03*
%TD*%
%TO.P,SW31,1,1*%
%TO.N,Net-(D56-A)*%
X259001781Y-142571594D03*
%TO.P,SW31,2,2*%
%TO.N,COL9*%
X253621654Y-143252941D03*
%TD*%
%TO.P,SW35,1,1*%
%TO.N,Net-(D60-A)*%
X38889319Y-85928571D03*
%TO.P,SW35,2,2*%
%TO.N,COL1*%
X35609192Y-81609918D03*
%TD*%
%TO.P,SW1,1,1*%
%TO.N,Net-(D1-A)*%
X62404289Y-81861118D03*
%TO.P,SW1,2,2*%
%TO.N,COL2*%
X59124162Y-77542465D03*
%TD*%
D18*
%TO.N,ROW3*%
X100745177Y-93489550D03*
X97845656Y-94266476D03*
%TO.N,ROW4*%
X115876719Y-138755916D03*
X102549837Y-130999057D03*
X108266128Y-117092090D03*
X128541055Y-93288601D03*
X101414271Y-131293837D03*
X170735735Y-61735735D03*
X107608129Y-118231783D03*
%TO.N,COL1*%
X122909880Y-51909880D03*
%TO.N,Net-(D14-A)*%
X89707964Y-111663955D03*
%TO.N,Net-(D17-A)*%
X257470575Y-110002726D03*
%TO.N,A*%
X187000000Y-80000000D03*
X179180812Y-81795080D03*
%TO.N,B*%
X174090000Y-79090000D03*
X189000000Y-80000000D03*
%TO.N,COL2*%
X87339965Y-90208478D03*
X88373777Y-99910286D03*
%TO.N,COL3*%
X107258327Y-67933001D03*
X112083149Y-66640198D03*
%TO.N,COL4*%
X115640804Y-62978736D03*
X93761139Y-107472082D03*
X103990466Y-60858144D03*
%TO.N,COL5*%
X102805747Y-82244610D03*
X102440496Y-86384404D03*
X179750000Y-47460000D03*
X112264406Y-83296814D03*
%TO.N,COL6*%
X123383252Y-89494245D03*
%TO.N,ROW2*%
X170000000Y-41780000D03*
X111170372Y-59704907D03*
X100928606Y-59090378D03*
X148000000Y-49000000D03*
X90889915Y-76411148D03*
%TO.N,ROW5*%
X259397976Y-73000000D03*
%TO.N,ROW6*%
X267192554Y-101914698D03*
X265874577Y-102675631D03*
X254202174Y-109414696D03*
X277063255Y-76943155D03*
X267337884Y-100223349D03*
X271707963Y-80535617D03*
%TO.N,ROW7*%
X280152415Y-90205561D03*
X266521817Y-62060638D03*
%TO.N,COL8*%
X254987023Y-85922408D03*
X241584181Y-89578061D03*
%TO.N,COL9*%
X261369012Y-67962210D03*
X235852119Y-75000000D03*
%TO.N,COL10*%
X242839222Y-85688970D03*
X252664119Y-87526226D03*
X238224312Y-85792155D03*
X264166621Y-104620720D03*
X239552186Y-87258543D03*
X244823057Y-86089270D03*
X262307032Y-99985601D03*
%TO.N,COL11*%
X272104990Y-94328747D03*
X278917240Y-107542122D03*
X241689737Y-81324134D03*
X282718429Y-109895732D03*
X240657174Y-85177713D03*
X244228564Y-91300194D03*
X261285081Y-99415534D03*
X275911098Y-102895332D03*
X264697757Y-98605317D03*
%TO.N,COL12*%
X265745928Y-138498506D03*
X264331715Y-136049015D03*
%TD*%
D19*
%TO.N,ROW3*%
X97845656Y-94266476D02*
X100745177Y-93489550D01*
%TO.N,ROW4*%
X114680357Y-137948304D02*
X114135252Y-138892454D01*
X111474046Y-136151457D02*
X112138040Y-138629517D01*
X110871622Y-120115959D02*
X112917044Y-127749578D01*
X103911450Y-132735584D02*
X101414271Y-131293837D01*
X104274185Y-134089318D02*
X103911450Y-132735584D01*
X107608129Y-118231783D02*
X110871622Y-120115959D01*
X170735735Y-61735735D02*
X171700000Y-62700000D01*
X113691813Y-119008240D02*
X111979627Y-119467023D01*
X111979627Y-119467023D02*
X108339334Y-117365299D01*
X102549837Y-130999057D02*
X111474046Y-136151457D01*
X171700000Y-62700000D02*
X178000000Y-62700000D01*
X111709808Y-129840575D02*
X113454039Y-136350135D01*
X114398188Y-136895239D02*
X114680357Y-137948304D01*
X128541055Y-93288601D02*
X113691813Y-119008240D01*
X112917044Y-127749578D02*
X111709808Y-129840575D01*
X114135252Y-138892454D02*
X113082185Y-139174621D01*
X113454039Y-136350135D02*
X114398188Y-136895239D01*
X113472683Y-139400073D02*
X115876719Y-138755916D01*
X108339334Y-117365299D02*
X108266128Y-117092090D01*
X112138040Y-138629517D02*
X113472683Y-139400073D01*
X113082185Y-139174621D02*
X104274185Y-134089318D01*
%TO.N,COL1*%
X40971704Y-68919978D02*
X34986620Y-79286442D01*
X122566388Y-89996040D02*
X107867328Y-81509531D01*
X76096340Y-86435495D02*
X75507899Y-84239411D01*
X34986620Y-79286442D02*
X35609193Y-81609916D01*
X91525615Y-85888281D02*
X88916624Y-90407177D01*
X85744616Y-62524691D02*
X84800467Y-61979586D01*
X50715922Y-72457028D02*
X43442755Y-68257864D01*
X86473778Y-65245958D02*
X85744616Y-62524691D01*
X122652616Y-52167144D02*
X121421000Y-52167144D01*
X122909880Y-51909880D02*
X122652616Y-52167144D01*
X43442755Y-68257864D02*
X40971704Y-68919978D01*
X121421000Y-52167144D02*
X81078553Y-62976870D01*
X81078553Y-62976870D02*
X56926347Y-69448435D01*
X84858761Y-91494479D02*
X76096340Y-86435495D01*
X122848554Y-91049106D02*
X122566388Y-89996040D01*
X84800467Y-61979586D02*
X81078553Y-62976870D01*
X110886768Y-117293959D02*
X109875363Y-113519335D01*
X109875363Y-113519335D02*
X122848554Y-91049106D01*
X56926347Y-69448435D02*
X56008026Y-71039012D01*
X88916624Y-90407177D02*
X84858761Y-91494479D01*
X56008026Y-71039012D02*
X50715922Y-72457028D01*
X107867328Y-81509531D02*
X91525615Y-85888281D01*
X75507899Y-84239411D02*
X86473778Y-65245958D01*
%TO.N,Net-(D14-A)*%
X89707964Y-111663955D02*
X94102809Y-114201320D01*
X94102809Y-114201320D02*
X96668439Y-113513855D01*
%TO.N,Net-(D17-A)*%
X257446676Y-108547119D02*
X257723532Y-107513872D01*
X257729393Y-109036800D02*
X257446676Y-108547119D01*
X257470575Y-110002726D02*
X257729393Y-109036800D01*
%TO.N,A*%
X180975892Y-80000000D02*
X187000000Y-80000000D01*
X179180812Y-81795080D02*
X180975892Y-80000000D01*
%TO.N,B*%
X188090000Y-79090000D02*
X189000000Y-80000000D01*
X174090000Y-79090000D02*
X188090000Y-79090000D01*
%TO.N,COL2*%
X49939398Y-94472737D02*
X44777063Y-103414167D01*
X43197041Y-101347239D02*
X43819619Y-103670713D01*
X68444467Y-90309009D02*
X68245795Y-89567554D01*
X88373777Y-99910286D02*
X87841082Y-100832938D01*
X72591162Y-89995994D02*
X69388612Y-90854115D01*
X87289150Y-119759264D02*
X87285637Y-119760209D01*
X135783008Y-62360392D02*
X160843400Y-37300000D01*
X160843400Y-37300000D02*
X178000000Y-37300000D01*
X87196835Y-98428584D02*
X72591162Y-89995994D01*
X50961586Y-88278653D02*
X51584158Y-90602125D01*
X51584158Y-90602125D02*
X49001141Y-91294243D01*
X56800686Y-78165035D02*
X50961586Y-88278653D01*
X135783008Y-62360392D02*
X129922450Y-72511175D01*
X90049046Y-109073183D02*
X87196835Y-98428584D01*
X129922450Y-72511175D02*
X92653606Y-82497332D01*
X68245795Y-89567554D02*
X49939398Y-94472737D01*
X86424066Y-119262777D02*
X85708314Y-116591552D01*
X92653606Y-82497332D02*
X88359261Y-89935356D01*
X69388612Y-90854115D02*
X68444467Y-90309009D01*
X49001141Y-91294243D02*
X43197041Y-101347239D01*
X87841082Y-100832938D02*
X87904921Y-101071188D01*
X85708314Y-116591552D02*
X90049046Y-109073183D01*
X59124160Y-77542462D02*
X56800686Y-78165035D01*
X87285637Y-119760209D02*
X86424066Y-119262777D01*
X85988310Y-122012379D02*
X87289150Y-119759264D01*
X44777063Y-103414167D02*
X43819619Y-103670713D01*
X88359261Y-89935356D02*
X87339965Y-90208478D01*
%TO.N,COL3*%
X60536395Y-77728389D02*
X52130835Y-92287248D01*
X98363741Y-127424247D02*
X101241784Y-122439319D01*
X82075790Y-64072082D02*
X76394282Y-73912748D01*
X53531745Y-93096060D02*
X70763400Y-88478852D01*
X52130835Y-92287248D02*
X53531745Y-93096060D01*
X92516022Y-105600263D02*
X89064085Y-111579182D01*
X90863357Y-108248540D02*
X94398894Y-102124810D01*
X94398894Y-102124810D02*
X71781006Y-89066365D01*
X77074537Y-76451494D02*
X77446416Y-77839372D01*
X178000000Y-42380000D02*
X175840000Y-42380000D01*
X70962418Y-89069992D02*
X69574543Y-89441872D01*
X93160233Y-114349942D02*
X96974889Y-128586423D01*
X93202389Y-110607447D02*
X91183033Y-109441571D01*
X98680373Y-112880011D02*
X94255453Y-110325278D01*
X56925282Y-76769228D02*
X59310085Y-76130221D01*
X76394282Y-73912748D02*
X77074537Y-76451494D01*
X71522188Y-88100443D02*
X70962418Y-89069992D01*
X89192733Y-112059303D02*
X93160233Y-114349942D01*
X101241784Y-122439319D02*
X98680373Y-112880011D01*
X89064085Y-111579182D02*
X89192733Y-112059303D01*
X91183033Y-109441571D02*
X90863357Y-108248540D01*
X98986311Y-129747718D02*
X98363741Y-127424247D01*
X94255453Y-110325278D02*
X93202389Y-110607447D01*
X84614537Y-63391828D02*
X82075790Y-64072082D01*
X60254229Y-76675325D02*
X60536395Y-77728389D01*
X70763400Y-88478852D02*
X91069758Y-100202734D01*
X107258327Y-67933001D02*
X112083149Y-66640198D01*
X77446416Y-77839372D02*
X71522188Y-88100443D01*
X71781006Y-89066365D02*
X71522188Y-88100443D01*
X59310085Y-76130221D02*
X60254229Y-76675325D01*
X96974889Y-128586423D02*
X98986311Y-129747718D01*
%TO.N,COL4*%
X160001471Y-36150000D02*
X147400000Y-48751471D01*
X103990466Y-60858144D02*
X103215973Y-62199612D01*
X95064917Y-75291236D02*
X92741442Y-75913813D01*
X94442348Y-72967766D02*
X95064917Y-75291236D01*
X146434314Y-50000000D02*
X128619539Y-50000000D01*
X128619539Y-50000000D02*
X115640804Y-62978736D01*
X147400000Y-48751471D02*
X147400000Y-49034314D01*
X113268112Y-137762380D02*
X109101281Y-122211547D01*
X99884865Y-111007616D02*
X93761139Y-107472082D01*
X101749647Y-117967080D02*
X99884865Y-111007616D01*
X109101281Y-122211547D02*
X101749647Y-117967080D01*
X92741442Y-75913813D02*
X86992347Y-85871544D01*
X86992347Y-85871544D02*
X87614918Y-88195013D01*
X100191448Y-63010029D02*
X94442348Y-72967766D01*
X179150000Y-43770000D02*
X179150000Y-36150000D01*
X178000000Y-44920000D02*
X179150000Y-43770000D01*
X147400000Y-49034314D02*
X146434314Y-50000000D01*
X103215973Y-62199612D02*
X102514922Y-62387457D01*
X179150000Y-36150000D02*
X160001471Y-36150000D01*
X102514918Y-62387456D02*
X100191448Y-63010029D01*
%TO.N,COL5*%
X100888312Y-96204824D02*
X98564840Y-96827394D01*
X108710197Y-84688925D02*
X106408605Y-88675392D01*
X102440496Y-86384404D02*
X106408605Y-88675392D01*
X102276194Y-95832940D02*
X100888312Y-96204824D01*
X179750000Y-47460000D02*
X178000000Y-47460000D01*
X98564840Y-96827394D02*
X92765742Y-106871734D01*
X112264406Y-83296814D02*
X108021362Y-80847093D01*
X108338315Y-83301043D02*
X108710197Y-84688925D01*
X106408605Y-88675392D02*
X102276194Y-95832940D01*
X108021362Y-80847093D02*
X102805747Y-82244610D01*
X92765742Y-106871734D02*
X93388313Y-109195204D01*
%TO.N,COL6*%
X178000000Y-50000000D02*
X179150000Y-51150000D01*
X105863737Y-114433864D02*
X111662841Y-104389527D01*
X153877497Y-59000000D02*
X123383252Y-89494245D01*
X179150000Y-58770000D02*
X178920000Y-59000000D01*
X178920000Y-59000000D02*
X153877497Y-59000000D01*
X119112843Y-91485749D02*
X121436313Y-90863177D01*
X111662841Y-104389527D02*
X113986313Y-103766955D01*
X113363737Y-101443486D02*
X119112843Y-91485749D01*
X106486312Y-116757336D02*
X105863737Y-114433864D01*
X179150000Y-51150000D02*
X179150000Y-58770000D01*
X113986313Y-103766955D02*
X113363737Y-101443486D01*
%TO.N,ROW2*%
X115465465Y-64000000D02*
X133000000Y-64000000D01*
X176440000Y-57620000D02*
X178000000Y-57620000D01*
X111170372Y-59704907D02*
X115465465Y-64000000D01*
X133000000Y-64000000D02*
X148000000Y-49000000D01*
X100928606Y-59090378D02*
X90935506Y-76398934D01*
X170000000Y-41780000D02*
X170000000Y-51180000D01*
X170000000Y-51180000D02*
X176440000Y-57620000D01*
X90935506Y-76398934D02*
X90889915Y-76411148D01*
%TO.N,ROW5*%
X195780000Y-72860000D02*
X259257976Y-72860000D01*
X259257976Y-72860000D02*
X259397976Y-73000000D01*
%TO.N,ROW6*%
X271588766Y-80654814D02*
X271707963Y-80535617D01*
X277221900Y-76351083D02*
X277063255Y-76943155D01*
X195252518Y-69681037D02*
X195032519Y-69461038D01*
X278920375Y-93536195D02*
X267337884Y-100223349D01*
X259418325Y-70320000D02*
X269753139Y-80654814D01*
X272792773Y-80826291D02*
X279304077Y-92104199D01*
X279304077Y-92104199D02*
X278920375Y-93536195D01*
X269753139Y-80654814D02*
X271588766Y-80654814D01*
X265874577Y-102675631D02*
X267192554Y-101914698D01*
X266615298Y-57979910D02*
X277221900Y-76351083D01*
X271707963Y-80535617D02*
X272792773Y-80826291D01*
X195780000Y-70320000D02*
X259418325Y-70320000D01*
%TO.N,ROW7*%
X272194319Y-76550736D02*
X280064304Y-90181952D01*
X263950475Y-65667253D02*
X265554498Y-68445502D01*
X269875306Y-75929358D02*
X272194319Y-76550736D01*
X280064304Y-90181952D02*
X280152415Y-90205561D01*
X264080000Y-69920000D02*
X265554498Y-68445502D01*
X264623139Y-63156838D02*
X263950475Y-65667253D01*
X199480000Y-69920000D02*
X264080000Y-69920000D01*
X195780000Y-67780000D02*
X197170000Y-69170000D01*
X266521817Y-62060638D02*
X264623139Y-63156838D01*
X265554498Y-68445502D02*
X269875306Y-75929358D01*
X198730000Y-69170000D02*
X199480000Y-69920000D01*
X197170000Y-69170000D02*
X198730000Y-69170000D01*
%TO.N,COL7*%
X259213716Y-123535643D02*
X266860141Y-136779640D01*
X196565686Y-86000000D02*
X237157591Y-86000000D01*
X178804314Y-68584314D02*
X179150000Y-68584314D01*
X178000000Y-67780000D02*
X178804314Y-68584314D01*
X179150000Y-68584314D02*
X196565686Y-86000000D01*
X244867694Y-93845109D02*
X244611148Y-94802557D01*
X237157591Y-86000000D02*
X241335652Y-90178061D01*
X259843407Y-121185600D02*
X259213716Y-123535643D01*
X242410638Y-89600133D02*
X242410638Y-89589362D01*
X242410638Y-89589362D02*
X244867694Y-93845109D01*
X241335652Y-90178061D02*
X241832710Y-90178061D01*
X241832710Y-90178061D02*
X242410638Y-89600133D01*
%TO.N,COL8*%
X254987023Y-85922408D02*
X255491191Y-86795654D01*
X229947052Y-75693029D02*
X229626971Y-75607264D01*
X204992736Y-75607264D02*
X198730000Y-81870000D01*
X175050000Y-66630000D02*
X175050000Y-68930000D01*
X238825103Y-80556560D02*
X238048647Y-83454336D01*
X231644108Y-78632417D02*
X229947052Y-75693029D01*
X255491191Y-86795654D02*
X257641530Y-87371835D01*
X198730000Y-81870000D02*
X194390000Y-81870000D01*
X229626971Y-75607264D02*
X204992736Y-75607264D01*
X238048647Y-83454336D02*
X241584181Y-89578061D01*
X179150000Y-66630000D02*
X175050000Y-66630000D01*
X178584315Y-68930000D02*
X178584315Y-69735685D01*
X231644108Y-78632417D02*
X229947051Y-75693029D01*
X175050000Y-68930000D02*
X178584315Y-68930000D01*
X238825103Y-80556560D02*
X231644108Y-78632417D01*
X194390000Y-81870000D02*
X179150000Y-66630000D01*
X178584315Y-69735685D02*
X178000000Y-70320000D01*
%TO.N,COL9*%
X194630000Y-66630000D02*
X260036802Y-66630000D01*
X234862119Y-74010000D02*
X194630000Y-74010000D01*
X260036802Y-66630000D02*
X261369012Y-67962210D01*
X249743169Y-107932174D02*
X277170680Y-92096893D01*
X266006255Y-136102689D02*
X266006625Y-136101307D01*
X255596797Y-142112590D02*
X266006255Y-136102689D01*
X266006625Y-136101307D02*
X249743169Y-107932174D01*
X235852119Y-75000000D02*
X234862119Y-74010000D01*
X253621653Y-143252940D02*
X255596797Y-142112590D01*
X277170680Y-92096893D02*
X277891835Y-92290126D01*
X194630000Y-74010000D02*
X194630000Y-66630000D01*
%TO.N,COL10*%
X267343408Y-134175980D02*
X266451922Y-132631882D01*
X273093516Y-111597272D02*
X295166530Y-98853410D01*
X266451922Y-132631882D02*
X271904131Y-112283964D01*
X295166530Y-98853410D02*
X296382218Y-94316407D01*
X269962178Y-106173636D02*
X273093516Y-111597272D01*
X296775840Y-92847386D02*
X296382218Y-94316407D01*
X243239522Y-86089270D02*
X244823057Y-86089270D01*
X238498782Y-85792155D02*
X239534451Y-86827824D01*
X239534451Y-86827824D02*
X239534451Y-87240808D01*
X264166621Y-104620720D02*
X269962178Y-106173636D01*
X290321537Y-81668205D02*
X296775840Y-92847386D01*
X242839222Y-85688970D02*
X243239522Y-86089270D01*
X288933656Y-81296326D02*
X289305537Y-79908442D01*
X262407032Y-100158807D02*
X262307032Y-99985601D01*
X239534451Y-87240808D02*
X239552186Y-87258543D01*
X288933656Y-81296326D02*
X290321537Y-81668205D01*
X289305537Y-79908442D02*
X282589282Y-68275544D01*
X271904131Y-112283964D02*
X273093516Y-111597272D01*
X252664119Y-87526226D02*
X255561895Y-88302684D01*
X238224312Y-85792155D02*
X238498782Y-85792155D01*
X255561895Y-88302684D02*
X262407032Y-100158807D01*
X282589282Y-68275544D02*
X281201400Y-67903663D01*
%TO.N,COL11*%
X277154354Y-103074502D02*
X279380831Y-106930874D01*
X282128649Y-106842717D02*
X304866877Y-93714796D01*
X279032952Y-124422868D02*
X283231637Y-108753151D01*
X240699200Y-85153450D02*
X240657174Y-85177713D01*
X304866877Y-93714796D02*
X316549348Y-96845102D01*
X241689737Y-81324134D02*
X241714000Y-81366161D01*
X322677491Y-106829162D02*
X322305611Y-108217044D01*
X279380831Y-106930874D02*
X279271917Y-107337349D01*
X306240781Y-83793739D02*
X312482138Y-94604086D01*
X276093234Y-102790176D02*
X277154354Y-103074502D01*
X267539906Y-92649773D02*
X271793698Y-93789573D01*
X266058754Y-93504916D02*
X267539906Y-92649773D01*
X312482138Y-94604086D02*
X314805609Y-95226660D01*
X244228564Y-91300194D02*
X246283797Y-94859962D01*
X316549348Y-96845102D02*
X322562158Y-107259596D01*
X316193490Y-95598542D02*
X322677491Y-106829162D01*
X261358286Y-99142328D02*
X261285081Y-99415534D01*
X275911098Y-102895332D02*
X276093234Y-102790176D01*
X322562158Y-107259596D02*
X322305611Y-108217044D01*
X283231637Y-108753151D02*
X282128649Y-106842717D01*
X246283797Y-94859962D02*
X261192199Y-98854657D01*
X241714000Y-81366161D02*
X240699200Y-85153450D01*
X271793698Y-93789573D02*
X272104990Y-94328747D01*
X264697757Y-98605317D02*
X264693898Y-98598631D01*
X280333787Y-126675981D02*
X279032952Y-124422868D01*
X279271917Y-107337349D02*
X278917240Y-107542122D01*
X314805609Y-95226660D02*
X316193490Y-95598542D01*
X264693898Y-98598631D02*
X266058754Y-93504916D01*
X306680341Y-82153280D02*
X306240781Y-83793739D01*
X261192199Y-98854657D02*
X261358286Y-99142328D01*
%TO.N,COL12*%
X181980000Y-87000000D02*
X178000000Y-83020000D01*
X222000000Y-87000000D02*
X233403140Y-98403140D01*
X233403140Y-98403140D02*
X242596860Y-98403140D01*
X327713373Y-95452964D02*
X327066127Y-95279534D01*
X322259595Y-109763196D02*
X325391637Y-107954913D01*
X311944345Y-96025307D02*
X319439677Y-109007604D01*
X265745928Y-138498506D02*
X266214993Y-138227691D01*
X280713483Y-124701636D02*
X279462203Y-124366357D01*
X328415614Y-96669278D02*
X327713373Y-95452964D01*
X222000000Y-87000000D02*
X181980000Y-87000000D01*
X325391637Y-107954913D02*
X328415614Y-96669278D01*
X242596860Y-98403140D02*
X264331715Y-136049015D01*
X266214993Y-138227691D02*
X267420838Y-138550795D01*
X304923390Y-94144049D02*
X311944345Y-96025307D01*
X323043756Y-73928484D02*
X321768524Y-73586788D01*
X281746028Y-126490056D02*
X280713483Y-124701636D01*
X267420838Y-138550795D02*
X280544618Y-130973779D01*
X280544618Y-130973779D02*
X281746028Y-126490056D01*
X329698600Y-85455012D02*
X323043756Y-73928484D01*
X279462203Y-124366357D02*
X284382571Y-106003295D01*
X284382571Y-106003295D02*
X304923390Y-94144049D01*
X327066127Y-95279534D02*
X329698600Y-85455012D01*
X319439677Y-109007604D02*
X322259595Y-109763196D01*
%TD*%
M02*
