%TF.GenerationSoftware,KiCad,Pcbnew,8.0.6*%
%TF.CreationDate,2024-10-24T04:55:56-04:00*%
%TF.ProjectId,pcb,7063622e-6b69-4636-9164-5f7063625858,rev?*%
%TF.SameCoordinates,Original*%
%TF.FileFunction,Soldermask,Top*%
%TF.FilePolarity,Negative*%
%FSLAX46Y46*%
G04 Gerber Fmt 4.6, Leading zero omitted, Abs format (unit mm)*
G04 Created by KiCad (PCBNEW 8.0.6) date 2024-10-24 04:55:56*
%MOMM*%
%LPD*%
G01*
G04 APERTURE LIST*
%ADD10R,1.600000X1.600000*%
%ADD11O,1.600000X1.600000*%
%ADD12C,1.700000*%
%ADD13C,4.000000*%
%ADD14C,2.200000*%
%ADD15R,1.700000X1.700000*%
%ADD16O,1.700000X1.700000*%
G04 APERTURE END LIST*
D10*
%TO.C,D12*%
X153500000Y-103500000D03*
D11*
X153500000Y-95880000D03*
%TD*%
D10*
%TO.C,D10*%
X153500000Y-65500000D03*
D11*
X153500000Y-57880000D03*
%TD*%
D12*
%TO.C,SW10*%
X157920000Y-60500000D03*
D13*
X163000000Y-60500000D03*
D12*
X168080000Y-60500000D03*
D14*
X165540000Y-55420000D03*
X159190000Y-57960000D03*
%TD*%
D10*
%TO.C,D8*%
X134500000Y-84620000D03*
D11*
X134500000Y-77000000D03*
%TD*%
D12*
%TO.C,SW9*%
X138840000Y-98500000D03*
D13*
X143920000Y-98500000D03*
D12*
X149000000Y-98500000D03*
D14*
X146460000Y-93420000D03*
X140110000Y-95960000D03*
%TD*%
D10*
%TO.C,D9*%
X134500000Y-103620000D03*
D11*
X134500000Y-96000000D03*
%TD*%
D12*
%TO.C,SW2*%
X100710000Y-79500000D03*
D13*
X105790000Y-79500000D03*
D12*
X110870000Y-79500000D03*
D14*
X108330000Y-74420000D03*
X101980000Y-76960000D03*
%TD*%
D12*
%TO.C,SW4*%
X119840000Y-60580000D03*
D13*
X124920000Y-60580000D03*
D12*
X130000000Y-60580000D03*
D14*
X127460000Y-55500000D03*
X121110000Y-58040000D03*
%TD*%
D12*
%TO.C,SW1*%
X100710000Y-60580000D03*
D13*
X105790000Y-60580000D03*
D12*
X110870000Y-60580000D03*
D14*
X108330000Y-55500000D03*
X101980000Y-58040000D03*
%TD*%
D10*
%TO.C,D4*%
X115500000Y-65810000D03*
D11*
X115500000Y-58190000D03*
%TD*%
D10*
%TO.C,D5*%
X115500000Y-84620000D03*
D11*
X115500000Y-77000000D03*
%TD*%
D10*
%TO.C,D11*%
X153500000Y-84500000D03*
D11*
X153500000Y-76880000D03*
%TD*%
D12*
%TO.C,SW3*%
X100840000Y-98500000D03*
D13*
X105920000Y-98500000D03*
D12*
X111000000Y-98500000D03*
D14*
X108460000Y-93420000D03*
X102110000Y-95960000D03*
%TD*%
D15*
%TO.C,J1*%
X126100000Y-48800000D03*
D16*
X126100000Y-46260000D03*
X126100000Y-43720000D03*
X126100000Y-41180000D03*
%TD*%
D12*
%TO.C,SW5*%
X119840000Y-79500000D03*
D13*
X124920000Y-79500000D03*
D12*
X130000000Y-79500000D03*
D14*
X127460000Y-74420000D03*
X121110000Y-76960000D03*
%TD*%
D10*
%TO.C,D6*%
X115500000Y-103620000D03*
D11*
X115500000Y-96000000D03*
%TD*%
D10*
%TO.C,D7*%
X134500000Y-65620000D03*
D11*
X134500000Y-58000000D03*
%TD*%
D12*
%TO.C,SW6*%
X119840000Y-98500000D03*
D13*
X124920000Y-98500000D03*
D12*
X130000000Y-98500000D03*
D14*
X127460000Y-93420000D03*
X121110000Y-95960000D03*
%TD*%
D12*
%TO.C,SW8*%
X138760000Y-79500000D03*
D13*
X143840000Y-79500000D03*
D12*
X148920000Y-79500000D03*
D14*
X146380000Y-74420000D03*
X140030000Y-76960000D03*
%TD*%
D12*
%TO.C,SW7*%
X138760000Y-60580000D03*
D13*
X143840000Y-60580000D03*
D12*
X148920000Y-60580000D03*
D14*
X146380000Y-55500000D03*
X140030000Y-58040000D03*
%TD*%
D10*
%TO.C,D1*%
X97500000Y-65810000D03*
D11*
X97500000Y-58190000D03*
%TD*%
D10*
%TO.C,D2*%
X97500000Y-84620000D03*
D11*
X97500000Y-77000000D03*
%TD*%
D10*
%TO.C,D3*%
X97500000Y-103310000D03*
D11*
X97500000Y-95690000D03*
%TD*%
D12*
%TO.C,SW12*%
X157840000Y-98500000D03*
D13*
X162920000Y-98500000D03*
D12*
X168000000Y-98500000D03*
D14*
X165460000Y-93420000D03*
X159110000Y-95960000D03*
%TD*%
D12*
%TO.C,SW11*%
X157760000Y-79500000D03*
D13*
X162840000Y-79500000D03*
D12*
X167920000Y-79500000D03*
D14*
X165380000Y-74420000D03*
X159030000Y-76960000D03*
%TD*%
D15*
%TO.C,U1*%
X132500000Y-40300000D03*
D12*
X132500000Y-42840000D03*
X132500000Y-45380000D03*
X132500000Y-47920000D03*
X132500000Y-50460000D03*
X132500000Y-53000000D03*
X132500000Y-55540000D03*
X117250000Y-55540000D03*
X117250000Y-53000000D03*
X117250000Y-50460000D03*
X117250000Y-47920000D03*
X117250000Y-45380000D03*
X117250000Y-42840000D03*
X117250000Y-40300000D03*
%TD*%
M02*
