%TF.GenerationSoftware,KiCad,Pcbnew,8.0.6*%
%TF.CreationDate,2024-10-24T04:55:56-04:00*%
%TF.ProjectId,pcb,7063622e-6b69-4636-9164-5f7063625858,rev?*%
%TF.SameCoordinates,Original*%
%TF.FileFunction,Legend,Bot*%
%TF.FilePolarity,Positive*%
%FSLAX46Y46*%
G04 Gerber Fmt 4.6, Leading zero omitted, Abs format (unit mm)*
G04 Created by KiCad (PCBNEW 8.0.6) date 2024-10-24 04:55:56*
%MOMM*%
%LPD*%
G01*
G04 APERTURE LIST*
%ADD10C,0.101600*%
%ADD11C,0.150000*%
%ADD12C,0.127000*%
%ADD13C,0.120000*%
%ADD14C,0.254000*%
%ADD15C,0.025400*%
%ADD16R,1.600000X1.600000*%
%ADD17O,1.600000X1.600000*%
%ADD18C,1.700000*%
%ADD19C,4.000000*%
%ADD20C,2.200000*%
%ADD21R,1.700000X1.700000*%
%ADD22O,1.700000X1.700000*%
G04 APERTURE END LIST*
D10*
X125552333Y-49976985D02*
X125552333Y-50696652D01*
X125552333Y-50696652D02*
X125510000Y-50781318D01*
X125510000Y-50781318D02*
X125467666Y-50823652D01*
X125467666Y-50823652D02*
X125383000Y-50865985D01*
X125383000Y-50865985D02*
X125213666Y-50865985D01*
X125213666Y-50865985D02*
X125129000Y-50823652D01*
X125129000Y-50823652D02*
X125086666Y-50781318D01*
X125086666Y-50781318D02*
X125044333Y-50696652D01*
X125044333Y-50696652D02*
X125044333Y-49976985D01*
X124155333Y-50865985D02*
X124663333Y-50865985D01*
X124409333Y-50865985D02*
X124409333Y-49976985D01*
X124409333Y-49976985D02*
X124494000Y-50103985D01*
X124494000Y-50103985D02*
X124578667Y-50188652D01*
X124578667Y-50188652D02*
X124663333Y-50230985D01*
D11*
X126398808Y-47874819D02*
X125732142Y-48874819D01*
X125732142Y-47874819D02*
X126398808Y-48874819D01*
X125351189Y-48874819D02*
X125351189Y-47874819D01*
X124922618Y-48589104D02*
X124446428Y-48589104D01*
X125017856Y-48874819D02*
X124684523Y-47874819D01*
X124684523Y-47874819D02*
X124351190Y-48874819D01*
X123827380Y-47874819D02*
X123636904Y-47874819D01*
X123636904Y-47874819D02*
X123541666Y-47922438D01*
X123541666Y-47922438D02*
X123446428Y-48017676D01*
X123446428Y-48017676D02*
X123398809Y-48208152D01*
X123398809Y-48208152D02*
X123398809Y-48541485D01*
X123398809Y-48541485D02*
X123446428Y-48731961D01*
X123446428Y-48731961D02*
X123541666Y-48827200D01*
X123541666Y-48827200D02*
X123636904Y-48874819D01*
X123636904Y-48874819D02*
X123827380Y-48874819D01*
X123827380Y-48874819D02*
X123922618Y-48827200D01*
X123922618Y-48827200D02*
X124017856Y-48731961D01*
X124017856Y-48731961D02*
X124065475Y-48541485D01*
X124065475Y-48541485D02*
X124065475Y-48208152D01*
X124065475Y-48208152D02*
X124017856Y-48017676D01*
X124017856Y-48017676D02*
X123922618Y-47922438D01*
X123922618Y-47922438D02*
X123827380Y-47874819D01*
X129636904Y-46827200D02*
X129494047Y-46874819D01*
X129494047Y-46874819D02*
X129255952Y-46874819D01*
X129255952Y-46874819D02*
X129160714Y-46827200D01*
X129160714Y-46827200D02*
X129113095Y-46779580D01*
X129113095Y-46779580D02*
X129065476Y-46684342D01*
X129065476Y-46684342D02*
X129065476Y-46589104D01*
X129065476Y-46589104D02*
X129113095Y-46493866D01*
X129113095Y-46493866D02*
X129160714Y-46446247D01*
X129160714Y-46446247D02*
X129255952Y-46398628D01*
X129255952Y-46398628D02*
X129446428Y-46351009D01*
X129446428Y-46351009D02*
X129541666Y-46303390D01*
X129541666Y-46303390D02*
X129589285Y-46255771D01*
X129589285Y-46255771D02*
X129636904Y-46160533D01*
X129636904Y-46160533D02*
X129636904Y-46065295D01*
X129636904Y-46065295D02*
X129589285Y-45970057D01*
X129589285Y-45970057D02*
X129541666Y-45922438D01*
X129541666Y-45922438D02*
X129446428Y-45874819D01*
X129446428Y-45874819D02*
X129208333Y-45874819D01*
X129208333Y-45874819D02*
X129065476Y-45922438D01*
X128255952Y-46827200D02*
X128351190Y-46874819D01*
X128351190Y-46874819D02*
X128541666Y-46874819D01*
X128541666Y-46874819D02*
X128636904Y-46827200D01*
X128636904Y-46827200D02*
X128684523Y-46731961D01*
X128684523Y-46731961D02*
X128684523Y-46351009D01*
X128684523Y-46351009D02*
X128636904Y-46255771D01*
X128636904Y-46255771D02*
X128541666Y-46208152D01*
X128541666Y-46208152D02*
X128351190Y-46208152D01*
X128351190Y-46208152D02*
X128255952Y-46255771D01*
X128255952Y-46255771D02*
X128208333Y-46351009D01*
X128208333Y-46351009D02*
X128208333Y-46446247D01*
X128208333Y-46446247D02*
X128684523Y-46541485D01*
X127398809Y-46827200D02*
X127494047Y-46874819D01*
X127494047Y-46874819D02*
X127684523Y-46874819D01*
X127684523Y-46874819D02*
X127779761Y-46827200D01*
X127779761Y-46827200D02*
X127827380Y-46731961D01*
X127827380Y-46731961D02*
X127827380Y-46351009D01*
X127827380Y-46351009D02*
X127779761Y-46255771D01*
X127779761Y-46255771D02*
X127684523Y-46208152D01*
X127684523Y-46208152D02*
X127494047Y-46208152D01*
X127494047Y-46208152D02*
X127398809Y-46255771D01*
X127398809Y-46255771D02*
X127351190Y-46351009D01*
X127351190Y-46351009D02*
X127351190Y-46446247D01*
X127351190Y-46446247D02*
X127827380Y-46541485D01*
X126541666Y-46827200D02*
X126636904Y-46874819D01*
X126636904Y-46874819D02*
X126827380Y-46874819D01*
X126827380Y-46874819D02*
X126922618Y-46827200D01*
X126922618Y-46827200D02*
X126970237Y-46731961D01*
X126970237Y-46731961D02*
X126970237Y-46351009D01*
X126970237Y-46351009D02*
X126922618Y-46255771D01*
X126922618Y-46255771D02*
X126827380Y-46208152D01*
X126827380Y-46208152D02*
X126636904Y-46208152D01*
X126636904Y-46208152D02*
X126541666Y-46255771D01*
X126541666Y-46255771D02*
X126494047Y-46351009D01*
X126494047Y-46351009D02*
X126494047Y-46446247D01*
X126494047Y-46446247D02*
X126970237Y-46541485D01*
X125636904Y-46874819D02*
X125636904Y-45874819D01*
X125636904Y-46827200D02*
X125732142Y-46874819D01*
X125732142Y-46874819D02*
X125922618Y-46874819D01*
X125922618Y-46874819D02*
X126017856Y-46827200D01*
X126017856Y-46827200D02*
X126065475Y-46779580D01*
X126065475Y-46779580D02*
X126113094Y-46684342D01*
X126113094Y-46684342D02*
X126113094Y-46398628D01*
X126113094Y-46398628D02*
X126065475Y-46303390D01*
X126065475Y-46303390D02*
X126017856Y-46255771D01*
X126017856Y-46255771D02*
X125922618Y-46208152D01*
X125922618Y-46208152D02*
X125732142Y-46208152D01*
X125732142Y-46208152D02*
X125636904Y-46255771D01*
X124446427Y-46827200D02*
X124303570Y-46874819D01*
X124303570Y-46874819D02*
X124065475Y-46874819D01*
X124065475Y-46874819D02*
X123970237Y-46827200D01*
X123970237Y-46827200D02*
X123922618Y-46779580D01*
X123922618Y-46779580D02*
X123874999Y-46684342D01*
X123874999Y-46684342D02*
X123874999Y-46589104D01*
X123874999Y-46589104D02*
X123922618Y-46493866D01*
X123922618Y-46493866D02*
X123970237Y-46446247D01*
X123970237Y-46446247D02*
X124065475Y-46398628D01*
X124065475Y-46398628D02*
X124255951Y-46351009D01*
X124255951Y-46351009D02*
X124351189Y-46303390D01*
X124351189Y-46303390D02*
X124398808Y-46255771D01*
X124398808Y-46255771D02*
X124446427Y-46160533D01*
X124446427Y-46160533D02*
X124446427Y-46065295D01*
X124446427Y-46065295D02*
X124398808Y-45970057D01*
X124398808Y-45970057D02*
X124351189Y-45922438D01*
X124351189Y-45922438D02*
X124255951Y-45874819D01*
X124255951Y-45874819D02*
X124017856Y-45874819D01*
X124017856Y-45874819D02*
X123874999Y-45922438D01*
X123589284Y-46208152D02*
X123208332Y-46208152D01*
X123446427Y-45874819D02*
X123446427Y-46731961D01*
X123446427Y-46731961D02*
X123398808Y-46827200D01*
X123398808Y-46827200D02*
X123303570Y-46874819D01*
X123303570Y-46874819D02*
X123208332Y-46874819D01*
X122446427Y-46208152D02*
X122446427Y-46874819D01*
X122874998Y-46208152D02*
X122874998Y-46731961D01*
X122874998Y-46731961D02*
X122827379Y-46827200D01*
X122827379Y-46827200D02*
X122732141Y-46874819D01*
X122732141Y-46874819D02*
X122589284Y-46874819D01*
X122589284Y-46874819D02*
X122494046Y-46827200D01*
X122494046Y-46827200D02*
X122446427Y-46779580D01*
X121541665Y-46874819D02*
X121541665Y-45874819D01*
X121541665Y-46827200D02*
X121636903Y-46874819D01*
X121636903Y-46874819D02*
X121827379Y-46874819D01*
X121827379Y-46874819D02*
X121922617Y-46827200D01*
X121922617Y-46827200D02*
X121970236Y-46779580D01*
X121970236Y-46779580D02*
X122017855Y-46684342D01*
X122017855Y-46684342D02*
X122017855Y-46398628D01*
X122017855Y-46398628D02*
X121970236Y-46303390D01*
X121970236Y-46303390D02*
X121922617Y-46255771D01*
X121922617Y-46255771D02*
X121827379Y-46208152D01*
X121827379Y-46208152D02*
X121636903Y-46208152D01*
X121636903Y-46208152D02*
X121541665Y-46255771D01*
X121065474Y-46874819D02*
X121065474Y-46208152D01*
X121065474Y-45874819D02*
X121113093Y-45922438D01*
X121113093Y-45922438D02*
X121065474Y-45970057D01*
X121065474Y-45970057D02*
X121017855Y-45922438D01*
X121017855Y-45922438D02*
X121065474Y-45874819D01*
X121065474Y-45874819D02*
X121065474Y-45970057D01*
X120446427Y-46874819D02*
X120541665Y-46827200D01*
X120541665Y-46827200D02*
X120589284Y-46779580D01*
X120589284Y-46779580D02*
X120636903Y-46684342D01*
X120636903Y-46684342D02*
X120636903Y-46398628D01*
X120636903Y-46398628D02*
X120589284Y-46303390D01*
X120589284Y-46303390D02*
X120541665Y-46255771D01*
X120541665Y-46255771D02*
X120446427Y-46208152D01*
X120446427Y-46208152D02*
X120303570Y-46208152D01*
X120303570Y-46208152D02*
X120208332Y-46255771D01*
X120208332Y-46255771D02*
X120160713Y-46303390D01*
X120160713Y-46303390D02*
X120113094Y-46398628D01*
X120113094Y-46398628D02*
X120113094Y-46684342D01*
X120113094Y-46684342D02*
X120160713Y-46779580D01*
X120160713Y-46779580D02*
X120208332Y-46827200D01*
X120208332Y-46827200D02*
X120303570Y-46874819D01*
X120303570Y-46874819D02*
X120446427Y-46874819D01*
D12*
%TO.C,U1*%
X115975000Y-39420000D02*
X115975000Y-56420000D01*
X117975000Y-58420000D02*
X131775000Y-58420000D01*
X120375000Y-35995970D02*
X129375000Y-35995970D01*
X120375000Y-43349270D02*
X120375000Y-35995970D01*
X129375000Y-35995970D02*
X129375000Y-43349270D01*
X129375000Y-43349270D02*
X120375000Y-43349270D01*
X131775000Y-37420910D02*
X117975000Y-37420910D01*
X133775000Y-56420000D02*
X133775000Y-39420000D01*
D13*
X115975000Y-39420000D02*
G75*
G02*
X117975000Y-37420000I2044610J-44610D01*
G01*
X117975000Y-58420000D02*
G75*
G02*
X115975000Y-56420000I0J2000000D01*
G01*
X131775000Y-37420000D02*
G75*
G02*
X133775000Y-39420000I-44612J-2044612D01*
G01*
X133775000Y-56420000D02*
G75*
G02*
X131775000Y-58420000I-2044857J44857D01*
G01*
D14*
X136002000Y-39120000D02*
G75*
G02*
X135748000Y-39120000I-127000J0D01*
G01*
X135748000Y-39120000D02*
G75*
G02*
X136002000Y-39120000I127000J0D01*
G01*
D15*
X133759667Y-39309527D02*
X133762715Y-39358295D01*
X133755603Y-39260506D01*
X133759667Y-39309527D01*
X116032752Y-56830955D02*
X116022847Y-56782950D01*
X116013956Y-56734690D01*
X116006336Y-56686175D01*
X115999732Y-56637407D01*
X115994399Y-56588639D01*
X115990335Y-56539618D01*
X115987287Y-56490850D01*
X115985508Y-56441574D01*
X116032752Y-56830955D01*
%TD*%
%LPC*%
D16*
%TO.C,D12*%
X153500000Y-103500000D03*
D17*
X153500000Y-95880000D03*
%TD*%
D16*
%TO.C,D10*%
X153500000Y-65500000D03*
D17*
X153500000Y-57880000D03*
%TD*%
D18*
%TO.C,SW10*%
X157920000Y-60500000D03*
D19*
X163000000Y-60500000D03*
D18*
X168080000Y-60500000D03*
D20*
X165540000Y-55420000D03*
X159190000Y-57960000D03*
%TD*%
D16*
%TO.C,D8*%
X134500000Y-84620000D03*
D17*
X134500000Y-77000000D03*
%TD*%
D18*
%TO.C,SW9*%
X138840000Y-98500000D03*
D19*
X143920000Y-98500000D03*
D18*
X149000000Y-98500000D03*
D20*
X146460000Y-93420000D03*
X140110000Y-95960000D03*
%TD*%
D16*
%TO.C,D9*%
X134500000Y-103620000D03*
D17*
X134500000Y-96000000D03*
%TD*%
D18*
%TO.C,SW2*%
X100710000Y-79500000D03*
D19*
X105790000Y-79500000D03*
D18*
X110870000Y-79500000D03*
D20*
X108330000Y-74420000D03*
X101980000Y-76960000D03*
%TD*%
D18*
%TO.C,SW4*%
X119840000Y-60580000D03*
D19*
X124920000Y-60580000D03*
D18*
X130000000Y-60580000D03*
D20*
X127460000Y-55500000D03*
X121110000Y-58040000D03*
%TD*%
D18*
%TO.C,SW1*%
X100710000Y-60580000D03*
D19*
X105790000Y-60580000D03*
D18*
X110870000Y-60580000D03*
D20*
X108330000Y-55500000D03*
X101980000Y-58040000D03*
%TD*%
D16*
%TO.C,D4*%
X115500000Y-65810000D03*
D17*
X115500000Y-58190000D03*
%TD*%
D16*
%TO.C,D5*%
X115500000Y-84620000D03*
D17*
X115500000Y-77000000D03*
%TD*%
D16*
%TO.C,D11*%
X153500000Y-84500000D03*
D17*
X153500000Y-76880000D03*
%TD*%
D18*
%TO.C,SW3*%
X100840000Y-98500000D03*
D19*
X105920000Y-98500000D03*
D18*
X111000000Y-98500000D03*
D20*
X108460000Y-93420000D03*
X102110000Y-95960000D03*
%TD*%
D21*
%TO.C,J1*%
X126100000Y-48800000D03*
D22*
X126100000Y-46260000D03*
X126100000Y-43720000D03*
X126100000Y-41180000D03*
%TD*%
D18*
%TO.C,SW5*%
X119840000Y-79500000D03*
D19*
X124920000Y-79500000D03*
D18*
X130000000Y-79500000D03*
D20*
X127460000Y-74420000D03*
X121110000Y-76960000D03*
%TD*%
D16*
%TO.C,D6*%
X115500000Y-103620000D03*
D17*
X115500000Y-96000000D03*
%TD*%
D16*
%TO.C,D7*%
X134500000Y-65620000D03*
D17*
X134500000Y-58000000D03*
%TD*%
D18*
%TO.C,SW6*%
X119840000Y-98500000D03*
D19*
X124920000Y-98500000D03*
D18*
X130000000Y-98500000D03*
D20*
X127460000Y-93420000D03*
X121110000Y-95960000D03*
%TD*%
D18*
%TO.C,SW8*%
X138760000Y-79500000D03*
D19*
X143840000Y-79500000D03*
D18*
X148920000Y-79500000D03*
D20*
X146380000Y-74420000D03*
X140030000Y-76960000D03*
%TD*%
D18*
%TO.C,SW7*%
X138760000Y-60580000D03*
D19*
X143840000Y-60580000D03*
D18*
X148920000Y-60580000D03*
D20*
X146380000Y-55500000D03*
X140030000Y-58040000D03*
%TD*%
D16*
%TO.C,D1*%
X97500000Y-65810000D03*
D17*
X97500000Y-58190000D03*
%TD*%
D16*
%TO.C,D2*%
X97500000Y-84620000D03*
D17*
X97500000Y-77000000D03*
%TD*%
D16*
%TO.C,D3*%
X97500000Y-103310000D03*
D17*
X97500000Y-95690000D03*
%TD*%
D18*
%TO.C,SW12*%
X157840000Y-98500000D03*
D19*
X162920000Y-98500000D03*
D18*
X168000000Y-98500000D03*
D20*
X165460000Y-93420000D03*
X159110000Y-95960000D03*
%TD*%
D18*
%TO.C,SW11*%
X157760000Y-79500000D03*
D19*
X162840000Y-79500000D03*
D18*
X167920000Y-79500000D03*
D20*
X165380000Y-74420000D03*
X159030000Y-76960000D03*
%TD*%
D21*
%TO.C,U1*%
X132500000Y-40300000D03*
D18*
X132500000Y-42840000D03*
X132500000Y-45380000D03*
X132500000Y-47920000D03*
X132500000Y-50460000D03*
X132500000Y-53000000D03*
X132500000Y-55540000D03*
X117250000Y-55540000D03*
X117250000Y-53000000D03*
X117250000Y-50460000D03*
X117250000Y-47920000D03*
X117250000Y-45380000D03*
X117250000Y-42840000D03*
X117250000Y-40300000D03*
%TD*%
%LPD*%
M02*
