%TF.GenerationSoftware,KiCad,Pcbnew,8.0.6*%
%TF.CreationDate,2024-10-28T02:11:40-04:00*%
%TF.ProjectId,macropad_schematic,6d616372-6f70-4616-945f-736368656d61,rev?*%
%TF.SameCoordinates,Original*%
%TF.FileFunction,Paste,Bot*%
%TF.FilePolarity,Positive*%
%FSLAX46Y46*%
G04 Gerber Fmt 4.6, Leading zero omitted, Abs format (unit mm)*
G04 Created by KiCad (PCBNEW 8.0.6) date 2024-10-28 02:11:40*
%MOMM*%
%LPD*%
G01*
G04 APERTURE LIST*
G04 Aperture macros list*
%AMRoundRect*
0 Rectangle with rounded corners*
0 $1 Rounding radius*
0 $2 $3 $4 $5 $6 $7 $8 $9 X,Y pos of 4 corners*
0 Add a 4 corners polygon primitive as box body*
4,1,4,$2,$3,$4,$5,$6,$7,$8,$9,$2,$3,0*
0 Add four circle primitives for the rounded corners*
1,1,$1+$1,$2,$3*
1,1,$1+$1,$4,$5*
1,1,$1+$1,$6,$7*
1,1,$1+$1,$8,$9*
0 Add four rect primitives between the rounded corners*
20,1,$1+$1,$2,$3,$4,$5,0*
20,1,$1+$1,$4,$5,$6,$7,0*
20,1,$1+$1,$6,$7,$8,$9,0*
20,1,$1+$1,$8,$9,$2,$3,0*%
G04 Aperture macros list end*
%ADD10RoundRect,0.150000X-0.200000X0.150000X-0.200000X-0.150000X0.200000X-0.150000X0.200000X0.150000X0*%
%ADD11RoundRect,0.500000X0.875000X0.500000X-0.875000X0.500000X-0.875000X-0.500000X0.875000X-0.500000X0*%
%ADD12RoundRect,0.275000X-0.275000X0.975000X-0.275000X-0.975000X0.275000X-0.975000X0.275000X0.975000X0*%
%ADD13C,1.700000*%
G04 APERTURE END LIST*
D10*
%TO.C,D8*%
X142350000Y-92900000D03*
X142350000Y-91500000D03*
%TD*%
D11*
%TO.C,U1*%
X162665000Y-65460000D03*
X162665000Y-68000000D03*
X162665000Y-70540000D03*
X162665000Y-73080000D03*
X162665000Y-75620000D03*
X162665000Y-78160000D03*
X162665000Y-80700000D03*
X146500000Y-80700000D03*
X146500000Y-78160000D03*
X146500000Y-75620000D03*
X146500000Y-73080000D03*
X146500000Y-70540000D03*
X146500000Y-68000000D03*
X146500000Y-65460000D03*
D12*
X155753000Y-81720000D03*
X153213000Y-81720000D03*
D13*
X155753000Y-64702000D03*
X153213000Y-64702000D03*
X155753000Y-67242000D03*
X153213000Y-67242000D03*
%TD*%
D10*
%TO.C,D4*%
X122850000Y-72900000D03*
X122850000Y-71500000D03*
%TD*%
%TO.C,D2*%
X103350000Y-93400000D03*
X103350000Y-92000000D03*
%TD*%
%TO.C,D5*%
X122850000Y-93200000D03*
X122850000Y-91800000D03*
%TD*%
%TO.C,D6*%
X123350000Y-112400000D03*
X123350000Y-111000000D03*
%TD*%
%TO.C,D9*%
X142350000Y-113400000D03*
X142350000Y-112000000D03*
%TD*%
%TO.C,D3*%
X103350000Y-112700000D03*
X103350000Y-111300000D03*
%TD*%
%TO.C,D1*%
X103350000Y-73200000D03*
X103350000Y-71800000D03*
%TD*%
%TO.C,D7*%
X142350000Y-72700000D03*
X142350000Y-71300000D03*
%TD*%
M02*
