%TF.GenerationSoftware,KiCad,Pcbnew,8.0.5*%
%TF.CreationDate,2024-10-19T20:03:01-04:00*%
%TF.ProjectId,Hackclub,4861636b-636c-4756-922e-6b696361645f,rev?*%
%TF.SameCoordinates,Original*%
%TF.FileFunction,Soldermask,Bot*%
%TF.FilePolarity,Negative*%
%FSLAX46Y46*%
G04 Gerber Fmt 4.6, Leading zero omitted, Abs format (unit mm)*
G04 Created by KiCad (PCBNEW 8.0.5) date 2024-10-19 20:03:01*
%MOMM*%
%LPD*%
G01*
G04 APERTURE LIST*
%ADD10C,1.700000*%
%ADD11C,4.000000*%
%ADD12C,2.200000*%
%ADD13R,1.700000X1.700000*%
G04 APERTURE END LIST*
D10*
%TO.C,SW7*%
X108380000Y-94080000D03*
D11*
X113460000Y-94080000D03*
D10*
X118540000Y-94080000D03*
D12*
X116000000Y-89000000D03*
X109650000Y-91540000D03*
%TD*%
D10*
%TO.C,SW6*%
X108380000Y-78990000D03*
D11*
X113460000Y-78990000D03*
D10*
X118540000Y-78990000D03*
D12*
X116000000Y-73910000D03*
X109650000Y-76450000D03*
%TD*%
D10*
%TO.C,SW5*%
X108380000Y-63900000D03*
D11*
X113460000Y-63900000D03*
D10*
X118540000Y-63900000D03*
D12*
X116000000Y-58820000D03*
X109650000Y-61360000D03*
%TD*%
D10*
%TO.C,SW4*%
X89230000Y-64040000D03*
D11*
X94310000Y-64040000D03*
D10*
X99390000Y-64040000D03*
D12*
X96850000Y-58960000D03*
X90500000Y-61500000D03*
%TD*%
D10*
%TO.C,SW1*%
X125746000Y-63937470D03*
D11*
X130826000Y-63937470D03*
D10*
X135906000Y-63937470D03*
D12*
X133366000Y-58857470D03*
X127016000Y-61397470D03*
%TD*%
D10*
%TO.C,SW3*%
X125746000Y-94117470D03*
D11*
X130826000Y-94117470D03*
D10*
X135906000Y-94117470D03*
D12*
X133366000Y-89037470D03*
X127016000Y-91577470D03*
%TD*%
D10*
%TO.C,SW2*%
X125746000Y-79027470D03*
D11*
X130826000Y-79027470D03*
D10*
X135906000Y-79027470D03*
D12*
X133366000Y-73947470D03*
X127016000Y-76487470D03*
%TD*%
D10*
%TO.C,U1*%
X122750000Y-55000000D03*
X122750000Y-57540000D03*
X122750000Y-60080000D03*
X122750000Y-62620000D03*
X122750000Y-65160000D03*
X122750000Y-67700000D03*
X122750000Y-70240000D03*
X138000000Y-70240000D03*
X138000000Y-67700000D03*
X138000000Y-65160000D03*
X138000000Y-62620000D03*
X138000000Y-60080000D03*
X138000000Y-57540000D03*
D13*
X138000000Y-55000000D03*
%TD*%
M02*
