%TF.GenerationSoftware,KiCad,Pcbnew,8.0.5*%
%TF.CreationDate,2024-10-19T20:03:01-04:00*%
%TF.ProjectId,Hackclub,4861636b-636c-4756-922e-6b696361645f,rev?*%
%TF.SameCoordinates,Original*%
%TF.FileFunction,Legend,Top*%
%TF.FilePolarity,Positive*%
%FSLAX46Y46*%
G04 Gerber Fmt 4.6, Leading zero omitted, Abs format (unit mm)*
G04 Created by KiCad (PCBNEW 8.0.5) date 2024-10-19 20:03:01*
%MOMM*%
%LPD*%
G01*
G04 APERTURE LIST*
%ADD10C,0.150000*%
%ADD11C,0.101600*%
%ADD12C,0.120000*%
G04 APERTURE END LIST*
D10*
X112126667Y-86613200D02*
X112269524Y-86660819D01*
X112269524Y-86660819D02*
X112507619Y-86660819D01*
X112507619Y-86660819D02*
X112602857Y-86613200D01*
X112602857Y-86613200D02*
X112650476Y-86565580D01*
X112650476Y-86565580D02*
X112698095Y-86470342D01*
X112698095Y-86470342D02*
X112698095Y-86375104D01*
X112698095Y-86375104D02*
X112650476Y-86279866D01*
X112650476Y-86279866D02*
X112602857Y-86232247D01*
X112602857Y-86232247D02*
X112507619Y-86184628D01*
X112507619Y-86184628D02*
X112317143Y-86137009D01*
X112317143Y-86137009D02*
X112221905Y-86089390D01*
X112221905Y-86089390D02*
X112174286Y-86041771D01*
X112174286Y-86041771D02*
X112126667Y-85946533D01*
X112126667Y-85946533D02*
X112126667Y-85851295D01*
X112126667Y-85851295D02*
X112174286Y-85756057D01*
X112174286Y-85756057D02*
X112221905Y-85708438D01*
X112221905Y-85708438D02*
X112317143Y-85660819D01*
X112317143Y-85660819D02*
X112555238Y-85660819D01*
X112555238Y-85660819D02*
X112698095Y-85708438D01*
X113031429Y-85660819D02*
X113269524Y-86660819D01*
X113269524Y-86660819D02*
X113460000Y-85946533D01*
X113460000Y-85946533D02*
X113650476Y-86660819D01*
X113650476Y-86660819D02*
X113888572Y-85660819D01*
X114174286Y-85660819D02*
X114840952Y-85660819D01*
X114840952Y-85660819D02*
X114412381Y-86660819D01*
X112126667Y-71523200D02*
X112269524Y-71570819D01*
X112269524Y-71570819D02*
X112507619Y-71570819D01*
X112507619Y-71570819D02*
X112602857Y-71523200D01*
X112602857Y-71523200D02*
X112650476Y-71475580D01*
X112650476Y-71475580D02*
X112698095Y-71380342D01*
X112698095Y-71380342D02*
X112698095Y-71285104D01*
X112698095Y-71285104D02*
X112650476Y-71189866D01*
X112650476Y-71189866D02*
X112602857Y-71142247D01*
X112602857Y-71142247D02*
X112507619Y-71094628D01*
X112507619Y-71094628D02*
X112317143Y-71047009D01*
X112317143Y-71047009D02*
X112221905Y-70999390D01*
X112221905Y-70999390D02*
X112174286Y-70951771D01*
X112174286Y-70951771D02*
X112126667Y-70856533D01*
X112126667Y-70856533D02*
X112126667Y-70761295D01*
X112126667Y-70761295D02*
X112174286Y-70666057D01*
X112174286Y-70666057D02*
X112221905Y-70618438D01*
X112221905Y-70618438D02*
X112317143Y-70570819D01*
X112317143Y-70570819D02*
X112555238Y-70570819D01*
X112555238Y-70570819D02*
X112698095Y-70618438D01*
X113031429Y-70570819D02*
X113269524Y-71570819D01*
X113269524Y-71570819D02*
X113460000Y-70856533D01*
X113460000Y-70856533D02*
X113650476Y-71570819D01*
X113650476Y-71570819D02*
X113888572Y-70570819D01*
X114698095Y-70570819D02*
X114507619Y-70570819D01*
X114507619Y-70570819D02*
X114412381Y-70618438D01*
X114412381Y-70618438D02*
X114364762Y-70666057D01*
X114364762Y-70666057D02*
X114269524Y-70808914D01*
X114269524Y-70808914D02*
X114221905Y-70999390D01*
X114221905Y-70999390D02*
X114221905Y-71380342D01*
X114221905Y-71380342D02*
X114269524Y-71475580D01*
X114269524Y-71475580D02*
X114317143Y-71523200D01*
X114317143Y-71523200D02*
X114412381Y-71570819D01*
X114412381Y-71570819D02*
X114602857Y-71570819D01*
X114602857Y-71570819D02*
X114698095Y-71523200D01*
X114698095Y-71523200D02*
X114745714Y-71475580D01*
X114745714Y-71475580D02*
X114793333Y-71380342D01*
X114793333Y-71380342D02*
X114793333Y-71142247D01*
X114793333Y-71142247D02*
X114745714Y-71047009D01*
X114745714Y-71047009D02*
X114698095Y-70999390D01*
X114698095Y-70999390D02*
X114602857Y-70951771D01*
X114602857Y-70951771D02*
X114412381Y-70951771D01*
X114412381Y-70951771D02*
X114317143Y-70999390D01*
X114317143Y-70999390D02*
X114269524Y-71047009D01*
X114269524Y-71047009D02*
X114221905Y-71142247D01*
X112126667Y-56433200D02*
X112269524Y-56480819D01*
X112269524Y-56480819D02*
X112507619Y-56480819D01*
X112507619Y-56480819D02*
X112602857Y-56433200D01*
X112602857Y-56433200D02*
X112650476Y-56385580D01*
X112650476Y-56385580D02*
X112698095Y-56290342D01*
X112698095Y-56290342D02*
X112698095Y-56195104D01*
X112698095Y-56195104D02*
X112650476Y-56099866D01*
X112650476Y-56099866D02*
X112602857Y-56052247D01*
X112602857Y-56052247D02*
X112507619Y-56004628D01*
X112507619Y-56004628D02*
X112317143Y-55957009D01*
X112317143Y-55957009D02*
X112221905Y-55909390D01*
X112221905Y-55909390D02*
X112174286Y-55861771D01*
X112174286Y-55861771D02*
X112126667Y-55766533D01*
X112126667Y-55766533D02*
X112126667Y-55671295D01*
X112126667Y-55671295D02*
X112174286Y-55576057D01*
X112174286Y-55576057D02*
X112221905Y-55528438D01*
X112221905Y-55528438D02*
X112317143Y-55480819D01*
X112317143Y-55480819D02*
X112555238Y-55480819D01*
X112555238Y-55480819D02*
X112698095Y-55528438D01*
X113031429Y-55480819D02*
X113269524Y-56480819D01*
X113269524Y-56480819D02*
X113460000Y-55766533D01*
X113460000Y-55766533D02*
X113650476Y-56480819D01*
X113650476Y-56480819D02*
X113888572Y-55480819D01*
X114745714Y-55480819D02*
X114269524Y-55480819D01*
X114269524Y-55480819D02*
X114221905Y-55957009D01*
X114221905Y-55957009D02*
X114269524Y-55909390D01*
X114269524Y-55909390D02*
X114364762Y-55861771D01*
X114364762Y-55861771D02*
X114602857Y-55861771D01*
X114602857Y-55861771D02*
X114698095Y-55909390D01*
X114698095Y-55909390D02*
X114745714Y-55957009D01*
X114745714Y-55957009D02*
X114793333Y-56052247D01*
X114793333Y-56052247D02*
X114793333Y-56290342D01*
X114793333Y-56290342D02*
X114745714Y-56385580D01*
X114745714Y-56385580D02*
X114698095Y-56433200D01*
X114698095Y-56433200D02*
X114602857Y-56480819D01*
X114602857Y-56480819D02*
X114364762Y-56480819D01*
X114364762Y-56480819D02*
X114269524Y-56433200D01*
X114269524Y-56433200D02*
X114221905Y-56385580D01*
X92976667Y-56573200D02*
X93119524Y-56620819D01*
X93119524Y-56620819D02*
X93357619Y-56620819D01*
X93357619Y-56620819D02*
X93452857Y-56573200D01*
X93452857Y-56573200D02*
X93500476Y-56525580D01*
X93500476Y-56525580D02*
X93548095Y-56430342D01*
X93548095Y-56430342D02*
X93548095Y-56335104D01*
X93548095Y-56335104D02*
X93500476Y-56239866D01*
X93500476Y-56239866D02*
X93452857Y-56192247D01*
X93452857Y-56192247D02*
X93357619Y-56144628D01*
X93357619Y-56144628D02*
X93167143Y-56097009D01*
X93167143Y-56097009D02*
X93071905Y-56049390D01*
X93071905Y-56049390D02*
X93024286Y-56001771D01*
X93024286Y-56001771D02*
X92976667Y-55906533D01*
X92976667Y-55906533D02*
X92976667Y-55811295D01*
X92976667Y-55811295D02*
X93024286Y-55716057D01*
X93024286Y-55716057D02*
X93071905Y-55668438D01*
X93071905Y-55668438D02*
X93167143Y-55620819D01*
X93167143Y-55620819D02*
X93405238Y-55620819D01*
X93405238Y-55620819D02*
X93548095Y-55668438D01*
X93881429Y-55620819D02*
X94119524Y-56620819D01*
X94119524Y-56620819D02*
X94310000Y-55906533D01*
X94310000Y-55906533D02*
X94500476Y-56620819D01*
X94500476Y-56620819D02*
X94738572Y-55620819D01*
X95548095Y-55954152D02*
X95548095Y-56620819D01*
X95310000Y-55573200D02*
X95071905Y-56287485D01*
X95071905Y-56287485D02*
X95690952Y-56287485D01*
X129492667Y-56470670D02*
X129635524Y-56518289D01*
X129635524Y-56518289D02*
X129873619Y-56518289D01*
X129873619Y-56518289D02*
X129968857Y-56470670D01*
X129968857Y-56470670D02*
X130016476Y-56423050D01*
X130016476Y-56423050D02*
X130064095Y-56327812D01*
X130064095Y-56327812D02*
X130064095Y-56232574D01*
X130064095Y-56232574D02*
X130016476Y-56137336D01*
X130016476Y-56137336D02*
X129968857Y-56089717D01*
X129968857Y-56089717D02*
X129873619Y-56042098D01*
X129873619Y-56042098D02*
X129683143Y-55994479D01*
X129683143Y-55994479D02*
X129587905Y-55946860D01*
X129587905Y-55946860D02*
X129540286Y-55899241D01*
X129540286Y-55899241D02*
X129492667Y-55804003D01*
X129492667Y-55804003D02*
X129492667Y-55708765D01*
X129492667Y-55708765D02*
X129540286Y-55613527D01*
X129540286Y-55613527D02*
X129587905Y-55565908D01*
X129587905Y-55565908D02*
X129683143Y-55518289D01*
X129683143Y-55518289D02*
X129921238Y-55518289D01*
X129921238Y-55518289D02*
X130064095Y-55565908D01*
X130397429Y-55518289D02*
X130635524Y-56518289D01*
X130635524Y-56518289D02*
X130826000Y-55804003D01*
X130826000Y-55804003D02*
X131016476Y-56518289D01*
X131016476Y-56518289D02*
X131254572Y-55518289D01*
X132159333Y-56518289D02*
X131587905Y-56518289D01*
X131873619Y-56518289D02*
X131873619Y-55518289D01*
X131873619Y-55518289D02*
X131778381Y-55661146D01*
X131778381Y-55661146D02*
X131683143Y-55756384D01*
X131683143Y-55756384D02*
X131587905Y-55804003D01*
X129492667Y-86650670D02*
X129635524Y-86698289D01*
X129635524Y-86698289D02*
X129873619Y-86698289D01*
X129873619Y-86698289D02*
X129968857Y-86650670D01*
X129968857Y-86650670D02*
X130016476Y-86603050D01*
X130016476Y-86603050D02*
X130064095Y-86507812D01*
X130064095Y-86507812D02*
X130064095Y-86412574D01*
X130064095Y-86412574D02*
X130016476Y-86317336D01*
X130016476Y-86317336D02*
X129968857Y-86269717D01*
X129968857Y-86269717D02*
X129873619Y-86222098D01*
X129873619Y-86222098D02*
X129683143Y-86174479D01*
X129683143Y-86174479D02*
X129587905Y-86126860D01*
X129587905Y-86126860D02*
X129540286Y-86079241D01*
X129540286Y-86079241D02*
X129492667Y-85984003D01*
X129492667Y-85984003D02*
X129492667Y-85888765D01*
X129492667Y-85888765D02*
X129540286Y-85793527D01*
X129540286Y-85793527D02*
X129587905Y-85745908D01*
X129587905Y-85745908D02*
X129683143Y-85698289D01*
X129683143Y-85698289D02*
X129921238Y-85698289D01*
X129921238Y-85698289D02*
X130064095Y-85745908D01*
X130397429Y-85698289D02*
X130635524Y-86698289D01*
X130635524Y-86698289D02*
X130826000Y-85984003D01*
X130826000Y-85984003D02*
X131016476Y-86698289D01*
X131016476Y-86698289D02*
X131254572Y-85698289D01*
X131540286Y-85698289D02*
X132159333Y-85698289D01*
X132159333Y-85698289D02*
X131826000Y-86079241D01*
X131826000Y-86079241D02*
X131968857Y-86079241D01*
X131968857Y-86079241D02*
X132064095Y-86126860D01*
X132064095Y-86126860D02*
X132111714Y-86174479D01*
X132111714Y-86174479D02*
X132159333Y-86269717D01*
X132159333Y-86269717D02*
X132159333Y-86507812D01*
X132159333Y-86507812D02*
X132111714Y-86603050D01*
X132111714Y-86603050D02*
X132064095Y-86650670D01*
X132064095Y-86650670D02*
X131968857Y-86698289D01*
X131968857Y-86698289D02*
X131683143Y-86698289D01*
X131683143Y-86698289D02*
X131587905Y-86650670D01*
X131587905Y-86650670D02*
X131540286Y-86603050D01*
X129492667Y-71560670D02*
X129635524Y-71608289D01*
X129635524Y-71608289D02*
X129873619Y-71608289D01*
X129873619Y-71608289D02*
X129968857Y-71560670D01*
X129968857Y-71560670D02*
X130016476Y-71513050D01*
X130016476Y-71513050D02*
X130064095Y-71417812D01*
X130064095Y-71417812D02*
X130064095Y-71322574D01*
X130064095Y-71322574D02*
X130016476Y-71227336D01*
X130016476Y-71227336D02*
X129968857Y-71179717D01*
X129968857Y-71179717D02*
X129873619Y-71132098D01*
X129873619Y-71132098D02*
X129683143Y-71084479D01*
X129683143Y-71084479D02*
X129587905Y-71036860D01*
X129587905Y-71036860D02*
X129540286Y-70989241D01*
X129540286Y-70989241D02*
X129492667Y-70894003D01*
X129492667Y-70894003D02*
X129492667Y-70798765D01*
X129492667Y-70798765D02*
X129540286Y-70703527D01*
X129540286Y-70703527D02*
X129587905Y-70655908D01*
X129587905Y-70655908D02*
X129683143Y-70608289D01*
X129683143Y-70608289D02*
X129921238Y-70608289D01*
X129921238Y-70608289D02*
X130064095Y-70655908D01*
X130397429Y-70608289D02*
X130635524Y-71608289D01*
X130635524Y-71608289D02*
X130826000Y-70894003D01*
X130826000Y-70894003D02*
X131016476Y-71608289D01*
X131016476Y-71608289D02*
X131254572Y-70608289D01*
X131587905Y-70703527D02*
X131635524Y-70655908D01*
X131635524Y-70655908D02*
X131730762Y-70608289D01*
X131730762Y-70608289D02*
X131968857Y-70608289D01*
X131968857Y-70608289D02*
X132064095Y-70655908D01*
X132064095Y-70655908D02*
X132111714Y-70703527D01*
X132111714Y-70703527D02*
X132159333Y-70798765D01*
X132159333Y-70798765D02*
X132159333Y-70894003D01*
X132159333Y-70894003D02*
X132111714Y-71036860D01*
X132111714Y-71036860D02*
X131540286Y-71608289D01*
X131540286Y-71608289D02*
X132159333Y-71608289D01*
D11*
X129697666Y-64676985D02*
X129697666Y-65396652D01*
X129697666Y-65396652D02*
X129740000Y-65481318D01*
X129740000Y-65481318D02*
X129782333Y-65523652D01*
X129782333Y-65523652D02*
X129867000Y-65565985D01*
X129867000Y-65565985D02*
X130036333Y-65565985D01*
X130036333Y-65565985D02*
X130121000Y-65523652D01*
X130121000Y-65523652D02*
X130163333Y-65481318D01*
X130163333Y-65481318D02*
X130205666Y-65396652D01*
X130205666Y-65396652D02*
X130205666Y-64676985D01*
X131094666Y-65565985D02*
X130586666Y-65565985D01*
X130840666Y-65565985D02*
X130840666Y-64676985D01*
X130840666Y-64676985D02*
X130755999Y-64803985D01*
X130755999Y-64803985D02*
X130671333Y-64888652D01*
X130671333Y-64888652D02*
X130586666Y-64930985D01*
D12*
%TO.C,SW7*%
X106475000Y-87095000D02*
X120445000Y-87095000D01*
X106475000Y-101065000D02*
X106475000Y-87095000D01*
X120445000Y-87095000D02*
X120445000Y-101065000D01*
X120445000Y-101065000D02*
X106475000Y-101065000D01*
%TO.C,SW6*%
X106475000Y-72005000D02*
X120445000Y-72005000D01*
X106475000Y-85975000D02*
X106475000Y-72005000D01*
X120445000Y-72005000D02*
X120445000Y-85975000D01*
X120445000Y-85975000D02*
X106475000Y-85975000D01*
%TO.C,SW5*%
X106475000Y-56915000D02*
X120445000Y-56915000D01*
X106475000Y-70885000D02*
X106475000Y-56915000D01*
X120445000Y-56915000D02*
X120445000Y-70885000D01*
X120445000Y-70885000D02*
X106475000Y-70885000D01*
%TO.C,SW4*%
X87325000Y-57055000D02*
X101295000Y-57055000D01*
X87325000Y-71025000D02*
X87325000Y-57055000D01*
X101295000Y-57055000D02*
X101295000Y-71025000D01*
X101295000Y-71025000D02*
X87325000Y-71025000D01*
%TO.C,SW1*%
X123841000Y-56952470D02*
X137811000Y-56952470D01*
X123841000Y-70922470D02*
X123841000Y-56952470D01*
X137811000Y-56952470D02*
X137811000Y-70922470D01*
X137811000Y-70922470D02*
X123841000Y-70922470D01*
%TO.C,SW3*%
X123841000Y-87132470D02*
X137811000Y-87132470D01*
X123841000Y-101102470D02*
X123841000Y-87132470D01*
X137811000Y-87132470D02*
X137811000Y-101102470D01*
X137811000Y-101102470D02*
X123841000Y-101102470D01*
%TO.C,SW2*%
X123841000Y-72042470D02*
X137811000Y-72042470D01*
X123841000Y-86012470D02*
X123841000Y-72042470D01*
X137811000Y-72042470D02*
X137811000Y-86012470D01*
X137811000Y-86012470D02*
X123841000Y-86012470D01*
%TD*%
M02*
