%TF.GenerationSoftware,KiCad,Pcbnew,8.0.8*%
%TF.CreationDate,2025-02-09T21:16:31+00:00*%
%TF.ProjectId,MacroPadPCB,4d616372-6f50-4616-9450-43422e6b6963,rev?*%
%TF.SameCoordinates,Original*%
%TF.FileFunction,Drillmap*%
%TF.FilePolarity,Positive*%
%FSLAX45Y45*%
G04 Gerber Fmt 4.5, Leading zero omitted, Abs format (unit mm)*
G04 Created by KiCad (PCBNEW 8.0.8) date 2025-02-09 21:16:31*
%MOMM*%
%LPD*%
G01*
G04 APERTURE LIST*
%ADD10C,0.050000*%
%ADD11C,0.200000*%
%ADD12C,0.150000*%
G04 APERTURE END LIST*
D10*
X14150000Y-4750000D02*
X14150000Y-13650000D01*
X14150000Y-13650000D02*
X11850000Y-13650000D01*
X11900000Y-4750000D02*
X14150000Y-4750000D01*
X11850000Y-13650000D02*
X11900000Y-4750000D01*
D11*
D12*
X12533099Y-7676420D02*
X12683099Y-7826420D01*
X12683099Y-7676420D02*
X12533099Y-7826420D01*
X12533099Y-9185420D02*
X12683099Y-9335420D01*
X12683099Y-9185420D02*
X12533099Y-9335420D01*
X12533099Y-10694420D02*
X12683099Y-10844420D01*
X12683099Y-10694420D02*
X12533099Y-10844420D01*
X12533099Y-12203420D02*
X12683099Y-12353420D01*
X12683099Y-12203420D02*
X12533099Y-12353420D01*
X13168099Y-7422420D02*
X13318099Y-7572420D01*
X13318099Y-7422420D02*
X13168099Y-7572420D01*
X13168099Y-8931420D02*
X13318099Y-9081420D01*
X13318099Y-8931420D02*
X13168099Y-9081420D01*
X13168099Y-10440420D02*
X13318099Y-10590420D01*
X13318099Y-10440420D02*
X13168099Y-10590420D01*
X13168099Y-11949420D02*
X13318099Y-12099420D01*
X13318099Y-11949420D02*
X13168099Y-12099420D01*
D11*
X12108277Y-13963984D02*
X12108277Y-13763984D01*
X12108277Y-13763984D02*
X12155896Y-13763984D01*
X12155896Y-13763984D02*
X12184467Y-13773508D01*
X12184467Y-13773508D02*
X12203515Y-13792555D01*
X12203515Y-13792555D02*
X12213039Y-13811603D01*
X12213039Y-13811603D02*
X12222562Y-13849698D01*
X12222562Y-13849698D02*
X12222562Y-13878269D01*
X12222562Y-13878269D02*
X12213039Y-13916365D01*
X12213039Y-13916365D02*
X12203515Y-13935412D01*
X12203515Y-13935412D02*
X12184467Y-13954460D01*
X12184467Y-13954460D02*
X12155896Y-13963984D01*
X12155896Y-13963984D02*
X12108277Y-13963984D01*
X12308277Y-13963984D02*
X12308277Y-13830650D01*
X12308277Y-13868746D02*
X12317801Y-13849698D01*
X12317801Y-13849698D02*
X12327324Y-13840174D01*
X12327324Y-13840174D02*
X12346372Y-13830650D01*
X12346372Y-13830650D02*
X12365420Y-13830650D01*
X12432086Y-13963984D02*
X12432086Y-13830650D01*
X12432086Y-13763984D02*
X12422562Y-13773508D01*
X12422562Y-13773508D02*
X12432086Y-13783031D01*
X12432086Y-13783031D02*
X12441610Y-13773508D01*
X12441610Y-13773508D02*
X12432086Y-13763984D01*
X12432086Y-13763984D02*
X12432086Y-13783031D01*
X12555896Y-13963984D02*
X12536848Y-13954460D01*
X12536848Y-13954460D02*
X12527324Y-13935412D01*
X12527324Y-13935412D02*
X12527324Y-13763984D01*
X12660658Y-13963984D02*
X12641610Y-13954460D01*
X12641610Y-13954460D02*
X12632086Y-13935412D01*
X12632086Y-13935412D02*
X12632086Y-13763984D01*
X12889229Y-13963984D02*
X12889229Y-13763984D01*
X12889229Y-13763984D02*
X12955896Y-13906841D01*
X12955896Y-13906841D02*
X13022562Y-13763984D01*
X13022562Y-13763984D02*
X13022562Y-13963984D01*
X13203515Y-13963984D02*
X13203515Y-13859222D01*
X13203515Y-13859222D02*
X13193991Y-13840174D01*
X13193991Y-13840174D02*
X13174943Y-13830650D01*
X13174943Y-13830650D02*
X13136848Y-13830650D01*
X13136848Y-13830650D02*
X13117801Y-13840174D01*
X13203515Y-13954460D02*
X13184467Y-13963984D01*
X13184467Y-13963984D02*
X13136848Y-13963984D01*
X13136848Y-13963984D02*
X13117801Y-13954460D01*
X13117801Y-13954460D02*
X13108277Y-13935412D01*
X13108277Y-13935412D02*
X13108277Y-13916365D01*
X13108277Y-13916365D02*
X13117801Y-13897317D01*
X13117801Y-13897317D02*
X13136848Y-13887793D01*
X13136848Y-13887793D02*
X13184467Y-13887793D01*
X13184467Y-13887793D02*
X13203515Y-13878269D01*
X13298753Y-13830650D02*
X13298753Y-14030650D01*
X13298753Y-13840174D02*
X13317801Y-13830650D01*
X13317801Y-13830650D02*
X13355896Y-13830650D01*
X13355896Y-13830650D02*
X13374943Y-13840174D01*
X13374943Y-13840174D02*
X13384467Y-13849698D01*
X13384467Y-13849698D02*
X13393991Y-13868746D01*
X13393991Y-13868746D02*
X13393991Y-13925888D01*
X13393991Y-13925888D02*
X13384467Y-13944936D01*
X13384467Y-13944936D02*
X13374943Y-13954460D01*
X13374943Y-13954460D02*
X13355896Y-13963984D01*
X13355896Y-13963984D02*
X13317801Y-13963984D01*
X13317801Y-13963984D02*
X13298753Y-13954460D01*
X13479705Y-13944936D02*
X13489229Y-13954460D01*
X13489229Y-13954460D02*
X13479705Y-13963984D01*
X13479705Y-13963984D02*
X13470182Y-13954460D01*
X13470182Y-13954460D02*
X13479705Y-13944936D01*
X13479705Y-13944936D02*
X13479705Y-13963984D01*
X13479705Y-13840174D02*
X13489229Y-13849698D01*
X13489229Y-13849698D02*
X13479705Y-13859222D01*
X13479705Y-13859222D02*
X13470182Y-13849698D01*
X13470182Y-13849698D02*
X13479705Y-13840174D01*
X13479705Y-13840174D02*
X13479705Y-13859222D01*
D12*
X11697500Y-14217500D02*
X11847500Y-14367500D01*
X11847500Y-14217500D02*
X11697500Y-14367500D01*
D11*
X12213039Y-14383984D02*
X12098753Y-14383984D01*
X12155896Y-14383984D02*
X12155896Y-14183984D01*
X12155896Y-14183984D02*
X12136848Y-14212555D01*
X12136848Y-14212555D02*
X12117801Y-14231603D01*
X12117801Y-14231603D02*
X12098753Y-14241127D01*
X12298753Y-14364936D02*
X12308277Y-14374460D01*
X12308277Y-14374460D02*
X12298753Y-14383984D01*
X12298753Y-14383984D02*
X12289229Y-14374460D01*
X12289229Y-14374460D02*
X12298753Y-14364936D01*
X12298753Y-14364936D02*
X12298753Y-14383984D01*
X12489229Y-14183984D02*
X12393991Y-14183984D01*
X12393991Y-14183984D02*
X12384467Y-14279222D01*
X12384467Y-14279222D02*
X12393991Y-14269698D01*
X12393991Y-14269698D02*
X12413039Y-14260174D01*
X12413039Y-14260174D02*
X12460658Y-14260174D01*
X12460658Y-14260174D02*
X12479705Y-14269698D01*
X12479705Y-14269698D02*
X12489229Y-14279222D01*
X12489229Y-14279222D02*
X12498753Y-14298269D01*
X12498753Y-14298269D02*
X12498753Y-14345888D01*
X12498753Y-14345888D02*
X12489229Y-14364936D01*
X12489229Y-14364936D02*
X12479705Y-14374460D01*
X12479705Y-14374460D02*
X12460658Y-14383984D01*
X12460658Y-14383984D02*
X12413039Y-14383984D01*
X12413039Y-14383984D02*
X12393991Y-14374460D01*
X12393991Y-14374460D02*
X12384467Y-14364936D01*
X12622562Y-14183984D02*
X12641610Y-14183984D01*
X12641610Y-14183984D02*
X12660658Y-14193508D01*
X12660658Y-14193508D02*
X12670182Y-14203031D01*
X12670182Y-14203031D02*
X12679705Y-14222079D01*
X12679705Y-14222079D02*
X12689229Y-14260174D01*
X12689229Y-14260174D02*
X12689229Y-14307793D01*
X12689229Y-14307793D02*
X12679705Y-14345888D01*
X12679705Y-14345888D02*
X12670182Y-14364936D01*
X12670182Y-14364936D02*
X12660658Y-14374460D01*
X12660658Y-14374460D02*
X12641610Y-14383984D01*
X12641610Y-14383984D02*
X12622562Y-14383984D01*
X12622562Y-14383984D02*
X12603515Y-14374460D01*
X12603515Y-14374460D02*
X12593991Y-14364936D01*
X12593991Y-14364936D02*
X12584467Y-14345888D01*
X12584467Y-14345888D02*
X12574943Y-14307793D01*
X12574943Y-14307793D02*
X12574943Y-14260174D01*
X12574943Y-14260174D02*
X12584467Y-14222079D01*
X12584467Y-14222079D02*
X12593991Y-14203031D01*
X12593991Y-14203031D02*
X12603515Y-14193508D01*
X12603515Y-14193508D02*
X12622562Y-14183984D01*
X12813039Y-14183984D02*
X12832086Y-14183984D01*
X12832086Y-14183984D02*
X12851134Y-14193508D01*
X12851134Y-14193508D02*
X12860658Y-14203031D01*
X12860658Y-14203031D02*
X12870182Y-14222079D01*
X12870182Y-14222079D02*
X12879705Y-14260174D01*
X12879705Y-14260174D02*
X12879705Y-14307793D01*
X12879705Y-14307793D02*
X12870182Y-14345888D01*
X12870182Y-14345888D02*
X12860658Y-14364936D01*
X12860658Y-14364936D02*
X12851134Y-14374460D01*
X12851134Y-14374460D02*
X12832086Y-14383984D01*
X12832086Y-14383984D02*
X12813039Y-14383984D01*
X12813039Y-14383984D02*
X12793991Y-14374460D01*
X12793991Y-14374460D02*
X12784467Y-14364936D01*
X12784467Y-14364936D02*
X12774943Y-14345888D01*
X12774943Y-14345888D02*
X12765420Y-14307793D01*
X12765420Y-14307793D02*
X12765420Y-14260174D01*
X12765420Y-14260174D02*
X12774943Y-14222079D01*
X12774943Y-14222079D02*
X12784467Y-14203031D01*
X12784467Y-14203031D02*
X12793991Y-14193508D01*
X12793991Y-14193508D02*
X12813039Y-14183984D01*
X12965420Y-14383984D02*
X12965420Y-14250650D01*
X12965420Y-14269698D02*
X12974943Y-14260174D01*
X12974943Y-14260174D02*
X12993991Y-14250650D01*
X12993991Y-14250650D02*
X13022563Y-14250650D01*
X13022563Y-14250650D02*
X13041610Y-14260174D01*
X13041610Y-14260174D02*
X13051134Y-14279222D01*
X13051134Y-14279222D02*
X13051134Y-14383984D01*
X13051134Y-14279222D02*
X13060658Y-14260174D01*
X13060658Y-14260174D02*
X13079705Y-14250650D01*
X13079705Y-14250650D02*
X13108277Y-14250650D01*
X13108277Y-14250650D02*
X13127324Y-14260174D01*
X13127324Y-14260174D02*
X13136848Y-14279222D01*
X13136848Y-14279222D02*
X13136848Y-14383984D01*
X13232086Y-14383984D02*
X13232086Y-14250650D01*
X13232086Y-14269698D02*
X13241610Y-14260174D01*
X13241610Y-14260174D02*
X13260658Y-14250650D01*
X13260658Y-14250650D02*
X13289229Y-14250650D01*
X13289229Y-14250650D02*
X13308277Y-14260174D01*
X13308277Y-14260174D02*
X13317801Y-14279222D01*
X13317801Y-14279222D02*
X13317801Y-14383984D01*
X13317801Y-14279222D02*
X13327324Y-14260174D01*
X13327324Y-14260174D02*
X13346372Y-14250650D01*
X13346372Y-14250650D02*
X13374943Y-14250650D01*
X13374943Y-14250650D02*
X13393991Y-14260174D01*
X13393991Y-14260174D02*
X13403515Y-14279222D01*
X13403515Y-14279222D02*
X13403515Y-14383984D01*
X13793991Y-14174460D02*
X13622563Y-14431603D01*
X14051134Y-14183984D02*
X14070182Y-14183984D01*
X14070182Y-14183984D02*
X14089229Y-14193508D01*
X14089229Y-14193508D02*
X14098753Y-14203031D01*
X14098753Y-14203031D02*
X14108277Y-14222079D01*
X14108277Y-14222079D02*
X14117801Y-14260174D01*
X14117801Y-14260174D02*
X14117801Y-14307793D01*
X14117801Y-14307793D02*
X14108277Y-14345888D01*
X14108277Y-14345888D02*
X14098753Y-14364936D01*
X14098753Y-14364936D02*
X14089229Y-14374460D01*
X14089229Y-14374460D02*
X14070182Y-14383984D01*
X14070182Y-14383984D02*
X14051134Y-14383984D01*
X14051134Y-14383984D02*
X14032086Y-14374460D01*
X14032086Y-14374460D02*
X14022563Y-14364936D01*
X14022563Y-14364936D02*
X14013039Y-14345888D01*
X14013039Y-14345888D02*
X14003515Y-14307793D01*
X14003515Y-14307793D02*
X14003515Y-14260174D01*
X14003515Y-14260174D02*
X14013039Y-14222079D01*
X14013039Y-14222079D02*
X14022563Y-14203031D01*
X14022563Y-14203031D02*
X14032086Y-14193508D01*
X14032086Y-14193508D02*
X14051134Y-14183984D01*
X14203515Y-14364936D02*
X14213039Y-14374460D01*
X14213039Y-14374460D02*
X14203515Y-14383984D01*
X14203515Y-14383984D02*
X14193991Y-14374460D01*
X14193991Y-14374460D02*
X14203515Y-14364936D01*
X14203515Y-14364936D02*
X14203515Y-14383984D01*
X14336848Y-14183984D02*
X14355896Y-14183984D01*
X14355896Y-14183984D02*
X14374944Y-14193508D01*
X14374944Y-14193508D02*
X14384467Y-14203031D01*
X14384467Y-14203031D02*
X14393991Y-14222079D01*
X14393991Y-14222079D02*
X14403515Y-14260174D01*
X14403515Y-14260174D02*
X14403515Y-14307793D01*
X14403515Y-14307793D02*
X14393991Y-14345888D01*
X14393991Y-14345888D02*
X14384467Y-14364936D01*
X14384467Y-14364936D02*
X14374944Y-14374460D01*
X14374944Y-14374460D02*
X14355896Y-14383984D01*
X14355896Y-14383984D02*
X14336848Y-14383984D01*
X14336848Y-14383984D02*
X14317801Y-14374460D01*
X14317801Y-14374460D02*
X14308277Y-14364936D01*
X14308277Y-14364936D02*
X14298753Y-14345888D01*
X14298753Y-14345888D02*
X14289229Y-14307793D01*
X14289229Y-14307793D02*
X14289229Y-14260174D01*
X14289229Y-14260174D02*
X14298753Y-14222079D01*
X14298753Y-14222079D02*
X14308277Y-14203031D01*
X14308277Y-14203031D02*
X14317801Y-14193508D01*
X14317801Y-14193508D02*
X14336848Y-14183984D01*
X14584467Y-14183984D02*
X14489229Y-14183984D01*
X14489229Y-14183984D02*
X14479706Y-14279222D01*
X14479706Y-14279222D02*
X14489229Y-14269698D01*
X14489229Y-14269698D02*
X14508277Y-14260174D01*
X14508277Y-14260174D02*
X14555896Y-14260174D01*
X14555896Y-14260174D02*
X14574944Y-14269698D01*
X14574944Y-14269698D02*
X14584467Y-14279222D01*
X14584467Y-14279222D02*
X14593991Y-14298269D01*
X14593991Y-14298269D02*
X14593991Y-14345888D01*
X14593991Y-14345888D02*
X14584467Y-14364936D01*
X14584467Y-14364936D02*
X14574944Y-14374460D01*
X14574944Y-14374460D02*
X14555896Y-14383984D01*
X14555896Y-14383984D02*
X14508277Y-14383984D01*
X14508277Y-14383984D02*
X14489229Y-14374460D01*
X14489229Y-14374460D02*
X14479706Y-14364936D01*
X14689229Y-14383984D02*
X14727325Y-14383984D01*
X14727325Y-14383984D02*
X14746372Y-14374460D01*
X14746372Y-14374460D02*
X14755896Y-14364936D01*
X14755896Y-14364936D02*
X14774944Y-14336365D01*
X14774944Y-14336365D02*
X14784467Y-14298269D01*
X14784467Y-14298269D02*
X14784467Y-14222079D01*
X14784467Y-14222079D02*
X14774944Y-14203031D01*
X14774944Y-14203031D02*
X14765420Y-14193508D01*
X14765420Y-14193508D02*
X14746372Y-14183984D01*
X14746372Y-14183984D02*
X14708277Y-14183984D01*
X14708277Y-14183984D02*
X14689229Y-14193508D01*
X14689229Y-14193508D02*
X14679706Y-14203031D01*
X14679706Y-14203031D02*
X14670182Y-14222079D01*
X14670182Y-14222079D02*
X14670182Y-14269698D01*
X14670182Y-14269698D02*
X14679706Y-14288746D01*
X14679706Y-14288746D02*
X14689229Y-14298269D01*
X14689229Y-14298269D02*
X14708277Y-14307793D01*
X14708277Y-14307793D02*
X14746372Y-14307793D01*
X14746372Y-14307793D02*
X14765420Y-14298269D01*
X14765420Y-14298269D02*
X14774944Y-14288746D01*
X14774944Y-14288746D02*
X14784467Y-14269698D01*
X14974944Y-14383984D02*
X14860658Y-14383984D01*
X14917801Y-14383984D02*
X14917801Y-14183984D01*
X14917801Y-14183984D02*
X14898753Y-14212555D01*
X14898753Y-14212555D02*
X14879706Y-14231603D01*
X14879706Y-14231603D02*
X14860658Y-14241127D01*
X15051134Y-14183984D02*
X15051134Y-14222079D01*
X15127325Y-14183984D02*
X15127325Y-14222079D01*
X15422563Y-14460174D02*
X15413039Y-14450650D01*
X15413039Y-14450650D02*
X15393991Y-14422079D01*
X15393991Y-14422079D02*
X15384468Y-14403031D01*
X15384468Y-14403031D02*
X15374944Y-14374460D01*
X15374944Y-14374460D02*
X15365420Y-14326841D01*
X15365420Y-14326841D02*
X15365420Y-14288746D01*
X15365420Y-14288746D02*
X15374944Y-14241127D01*
X15374944Y-14241127D02*
X15384468Y-14212555D01*
X15384468Y-14212555D02*
X15393991Y-14193508D01*
X15393991Y-14193508D02*
X15413039Y-14164936D01*
X15413039Y-14164936D02*
X15422563Y-14155412D01*
X15527325Y-14269698D02*
X15508277Y-14260174D01*
X15508277Y-14260174D02*
X15498753Y-14250650D01*
X15498753Y-14250650D02*
X15489229Y-14231603D01*
X15489229Y-14231603D02*
X15489229Y-14222079D01*
X15489229Y-14222079D02*
X15498753Y-14203031D01*
X15498753Y-14203031D02*
X15508277Y-14193508D01*
X15508277Y-14193508D02*
X15527325Y-14183984D01*
X15527325Y-14183984D02*
X15565420Y-14183984D01*
X15565420Y-14183984D02*
X15584468Y-14193508D01*
X15584468Y-14193508D02*
X15593991Y-14203031D01*
X15593991Y-14203031D02*
X15603515Y-14222079D01*
X15603515Y-14222079D02*
X15603515Y-14231603D01*
X15603515Y-14231603D02*
X15593991Y-14250650D01*
X15593991Y-14250650D02*
X15584468Y-14260174D01*
X15584468Y-14260174D02*
X15565420Y-14269698D01*
X15565420Y-14269698D02*
X15527325Y-14269698D01*
X15527325Y-14269698D02*
X15508277Y-14279222D01*
X15508277Y-14279222D02*
X15498753Y-14288746D01*
X15498753Y-14288746D02*
X15489229Y-14307793D01*
X15489229Y-14307793D02*
X15489229Y-14345888D01*
X15489229Y-14345888D02*
X15498753Y-14364936D01*
X15498753Y-14364936D02*
X15508277Y-14374460D01*
X15508277Y-14374460D02*
X15527325Y-14383984D01*
X15527325Y-14383984D02*
X15565420Y-14383984D01*
X15565420Y-14383984D02*
X15584468Y-14374460D01*
X15584468Y-14374460D02*
X15593991Y-14364936D01*
X15593991Y-14364936D02*
X15603515Y-14345888D01*
X15603515Y-14345888D02*
X15603515Y-14307793D01*
X15603515Y-14307793D02*
X15593991Y-14288746D01*
X15593991Y-14288746D02*
X15584468Y-14279222D01*
X15584468Y-14279222D02*
X15565420Y-14269698D01*
X15841610Y-14383984D02*
X15841610Y-14183984D01*
X15927325Y-14383984D02*
X15927325Y-14279222D01*
X15927325Y-14279222D02*
X15917801Y-14260174D01*
X15917801Y-14260174D02*
X15898753Y-14250650D01*
X15898753Y-14250650D02*
X15870182Y-14250650D01*
X15870182Y-14250650D02*
X15851134Y-14260174D01*
X15851134Y-14260174D02*
X15841610Y-14269698D01*
X16051134Y-14383984D02*
X16032087Y-14374460D01*
X16032087Y-14374460D02*
X16022563Y-14364936D01*
X16022563Y-14364936D02*
X16013039Y-14345888D01*
X16013039Y-14345888D02*
X16013039Y-14288746D01*
X16013039Y-14288746D02*
X16022563Y-14269698D01*
X16022563Y-14269698D02*
X16032087Y-14260174D01*
X16032087Y-14260174D02*
X16051134Y-14250650D01*
X16051134Y-14250650D02*
X16079706Y-14250650D01*
X16079706Y-14250650D02*
X16098753Y-14260174D01*
X16098753Y-14260174D02*
X16108277Y-14269698D01*
X16108277Y-14269698D02*
X16117801Y-14288746D01*
X16117801Y-14288746D02*
X16117801Y-14345888D01*
X16117801Y-14345888D02*
X16108277Y-14364936D01*
X16108277Y-14364936D02*
X16098753Y-14374460D01*
X16098753Y-14374460D02*
X16079706Y-14383984D01*
X16079706Y-14383984D02*
X16051134Y-14383984D01*
X16232087Y-14383984D02*
X16213039Y-14374460D01*
X16213039Y-14374460D02*
X16203515Y-14355412D01*
X16203515Y-14355412D02*
X16203515Y-14183984D01*
X16384468Y-14374460D02*
X16365420Y-14383984D01*
X16365420Y-14383984D02*
X16327325Y-14383984D01*
X16327325Y-14383984D02*
X16308277Y-14374460D01*
X16308277Y-14374460D02*
X16298753Y-14355412D01*
X16298753Y-14355412D02*
X16298753Y-14279222D01*
X16298753Y-14279222D02*
X16308277Y-14260174D01*
X16308277Y-14260174D02*
X16327325Y-14250650D01*
X16327325Y-14250650D02*
X16365420Y-14250650D01*
X16365420Y-14250650D02*
X16384468Y-14260174D01*
X16384468Y-14260174D02*
X16393991Y-14279222D01*
X16393991Y-14279222D02*
X16393991Y-14298269D01*
X16393991Y-14298269D02*
X16298753Y-14317317D01*
X16470182Y-14374460D02*
X16489230Y-14383984D01*
X16489230Y-14383984D02*
X16527325Y-14383984D01*
X16527325Y-14383984D02*
X16546372Y-14374460D01*
X16546372Y-14374460D02*
X16555896Y-14355412D01*
X16555896Y-14355412D02*
X16555896Y-14345888D01*
X16555896Y-14345888D02*
X16546372Y-14326841D01*
X16546372Y-14326841D02*
X16527325Y-14317317D01*
X16527325Y-14317317D02*
X16498753Y-14317317D01*
X16498753Y-14317317D02*
X16479706Y-14307793D01*
X16479706Y-14307793D02*
X16470182Y-14288746D01*
X16470182Y-14288746D02*
X16470182Y-14279222D01*
X16470182Y-14279222D02*
X16479706Y-14260174D01*
X16479706Y-14260174D02*
X16498753Y-14250650D01*
X16498753Y-14250650D02*
X16527325Y-14250650D01*
X16527325Y-14250650D02*
X16546372Y-14260174D01*
X16622563Y-14460174D02*
X16632087Y-14450650D01*
X16632087Y-14450650D02*
X16651134Y-14422079D01*
X16651134Y-14422079D02*
X16660658Y-14403031D01*
X16660658Y-14403031D02*
X16670182Y-14374460D01*
X16670182Y-14374460D02*
X16679706Y-14326841D01*
X16679706Y-14326841D02*
X16679706Y-14288746D01*
X16679706Y-14288746D02*
X16670182Y-14241127D01*
X16670182Y-14241127D02*
X16660658Y-14212555D01*
X16660658Y-14212555D02*
X16651134Y-14193508D01*
X16651134Y-14193508D02*
X16632087Y-14164936D01*
X16632087Y-14164936D02*
X16622563Y-14155412D01*
M02*
