0
SECTION
2
HEADER
9
$INSUNITS
70
4
0
ENDSEC
0
SECTION
2
TABLES
0
TABLE
2
LTYPE
0
LTYPE
72
65
70
64
2
CONTINUOUS
3
______
73
0
40
0
0
ENDTAB
0
TABLE
2
LAYER
0
ENDTAB
0
ENDSEC
0
SECTION
2
ENTITIES
0
LINE
8
0
10
19.3484015
20
-0.5798756
11
31.9054373
21
-3.9445232
0
LINE
8
0
10
15.7249349
20
-14.1028372
11
28.2819707
21
-17.4674848
0
LINE
8
0
10
18.7360291
20
-0.933429
11
15.3713815
21
-13.4904648
0
LINE
8
0
10
32.2589907
20
-4.5568956
11
28.8943431
21
-17.1139314
0
ARC
8
0
10
19.218992
20
-1.0628385
40
0.5
50
75
51
165
0
ARC
8
0
10
31.7760278
20
-4.4274861
40
0.5
50
345
51
75
0
ARC
8
0
10
15.8543444
20
-13.6198743
40
0.5
50
165
51
255
0
ARC
8
0
10
28.4113802
20
-16.9845219
40
0.5
50
255
51
345
0
LINE
8
0
10
300.6795593
20
-3.9445232
11
313.2365951
21
-0.5798756
0
LINE
8
0
10
304.3030259
20
-17.4674848
11
316.8600617
21
-14.1028372
0
LINE
8
0
10
300.3260059
20
-4.5568956
11
303.6906535
21
-17.1139314
0
LINE
8
0
10
313.8489675
20
-0.933429
11
317.2136151
21
-13.4904648
0
ARC
8
0
10
300.8089688
20
-4.4274861
40
0.5
50
105
51
195
0
ARC
8
0
10
313.3660046
20
-1.0628385
40
0.5
50
15
51
105
0
ARC
8
0
10
304.1736164
20
-16.9845219
40
0.5
50
195
51
285
0
ARC
8
0
10
316.7306522
20
-13.6198743
40
0.5
50
285
51
15
0
LINE
8
0
10
68.684904
20
-1.1070907
11
80.7382941
21
-5.9769764
0
LINE
8
0
10
63.4404117
20
-14.0876647
11
75.4938018
21
-18.9575503
0
LINE
8
0
10
68.0340088
20
-1.3833794
11
63.1641231
21
-13.4367695
0
LINE
8
0
10
81.0145827
20
-6.6278716
11
76.144697
21
-18.6812617
0
ARC
8
0
10
68.4976007
20
-1.5706827
40
0.5
50
68
51
158
0
ARC
8
0
10
80.5509908
20
-6.4405683
40
0.5
50
338
51
68
0
ARC
8
0
10
63.627715
20
-13.6240728
40
0.5
50
158
51
248
0
ARC
8
0
10
75.6811051
20
-18.4939585
40
0.5
50
248
51
338
0
LINE
8
0
10
251.8467024
20
-5.9769764
11
263.9000925
21
-1.1070907
0
LINE
8
0
10
257.0911947
20
-18.9575503
11
269.1445848
21
-14.0876647
0
LINE
8
0
10
251.5704138
20
-6.6278716
11
256.4402995
21
-18.6812617
0
LINE
8
0
10
264.5509877
20
-1.3833794
11
269.4208734
21
-13.4367695
0
ARC
8
0
10
252.0340057
20
-6.4405683
40
0.5
50
112
51
202
0
ARC
8
0
10
264.0873958
20
-1.5706827
40
0.5
50
22
51
112
0
ARC
8
0
10
256.9038914
20
-18.4939585
40
0.5
50
202
51
292
0
ARC
8
0
10
268.9572815
20
-13.6240728
40
0.5
50
292
51
22
0
LINE
8
0
10
41.8289438
20
-5.3185798
11
54.1926785
21
-9.3358008
0
LINE
8
0
10
37.5027059
20
-18.6333712
11
49.8664406
21
-22.6505921
0
LINE
8
0
10
41.198907
20
-5.6395996
11
37.181686
21
-18.0033344
0
LINE
8
0
10
54.5136983
20
-9.9658376
11
50.4964774
21
-22.3295723
0
ARC
8
0
10
41.6744353
20
-5.7941082
40
0.5
50
72
51
162
0
ARC
8
0
10
54.03817
20
-9.8113291
40
0.5
50
342
51
72
0
ARC
8
0
10
37.6572144
20
-18.1578429
40
0.5
50
162
51
252
0
ARC
8
0
10
50.0209491
20
-22.1750638
40
0.5
50
252
51
342
0
LINE
8
0
10
278.3923181
20
-9.3358008
11
290.7560528
21
-5.3185798
0
LINE
8
0
10
282.718556
20
-22.6505921
11
295.0822907
21
-18.6333712
0
LINE
8
0
10
278.0712983
20
-9.9658376
11
282.0885191
21
-22.3295723
0
LINE
8
0
10
291.3860896
20
-5.6395996
11
295.4033105
21
-18.0033344
0
ARC
8
0
10
278.5468266
20
-9.8113291
40
0.5
50
108
51
198
0
ARC
8
0
10
290.9105613
20
-5.7941082
40
0.5
50
18
51
108
0
ARC
8
0
10
282.5640475
20
-22.1750638
40
0.5
50
198
51
288
0
ARC
8
0
10
294.9277822
20
-18.1578429
40
0.5
50
288
51
18
0
LINE
8
0
10
87.4745286
20
-5.4544722
11
99.5279187
21
-10.3243579
0
LINE
8
0
10
82.2300363
20
-18.4350461
11
94.2834264
21
-23.3049318
0
LINE
8
0
10
86.8236334
20
-5.7307608
11
81.9537477
21
-17.7841509
0
LINE
8
0
10
99.8042073
20
-10.9752531
11
94.9343216
21
-23.0286432
0
ARC
8
0
10
87.2872253
20
-5.9180641
40
0.5
50
68
51
158
0
ARC
8
0
10
99.3406154
20
-10.7879498
40
0.5
50
338
51
68
0
ARC
8
0
10
82.4173396
20
-17.9714542
40
0.5
50
158
51
248
0
ARC
8
0
10
94.4707297
20
-22.8413399
40
0.5
50
248
51
338
0
LINE
8
0
10
233.0570778
20
-10.3243579
11
245.1104679
21
-5.4544722
0
LINE
8
0
10
238.3015701
20
-23.3049318
11
250.3549602
21
-18.4350461
0
LINE
8
0
10
232.7807892
20
-10.9752531
11
237.6506749
21
-23.0286432
0
LINE
8
0
10
245.7613631
20
-5.7307608
11
250.6312488
21
-17.7841509
0
ARC
8
0
10
233.2443811
20
-10.7879498
40
0.5
50
112
51
202
0
ARC
8
0
10
245.2977712
20
-5.9180641
40
0.5
50
22
51
112
0
ARC
8
0
10
238.1142668
20
-22.8413399
40
0.5
50
202
51
292
0
ARC
8
0
10
250.1676569
20
-17.9714542
40
0.5
50
292
51
22
0
LINE
8
0
10
104.0106144
20
-15.3795984
11
116.0640045
21
-20.2494841
0
LINE
8
0
10
98.7661221
20
-28.3601723
11
110.8195122
21
-33.230058
0
LINE
8
0
10
103.3597192
20
-15.655887
11
98.4898335
21
-27.7092771
0
LINE
8
0
10
116.3402931
20
-20.9003793
11
111.4704074
21
-32.9537694
0
ARC
8
0
10
103.8233111
20
-15.8431903
40
0.5
50
68
51
158
0
ARC
8
0
10
115.8767012
20
-20.713076
40
0.5
50
338
51
68
0
ARC
8
0
10
98.9534254
20
-27.8965804
40
0.5
50
158
51
248
0
ARC
8
0
10
111.0068155
20
-32.7664661
40
0.5
50
248
51
338
0
LINE
8
0
10
216.520992
20
-20.2494841
11
228.5743821
21
-15.3795984
0
LINE
8
0
10
221.7654843
20
-33.230058
11
233.8188744
21
-28.3601723
0
LINE
8
0
10
216.2447034
20
-20.9003793
11
221.1145891
21
-32.9537694
0
LINE
8
0
10
229.2252773
20
-15.655887
11
234.095163
21
-27.7092771
0
ARC
8
0
10
216.7082953
20
-20.713076
40
0.5
50
112
51
202
0
ARC
8
0
10
228.7616854
20
-15.8431903
40
0.5
50
22
51
112
0
ARC
8
0
10
221.578181
20
-32.7664661
40
0.5
50
202
51
292
0
ARC
8
0
10
233.6315711
20
-27.8965804
40
0.5
50
292
51
22
0
LINE
8
0
10
14.4178995
20
-18.9807659
11
26.9749353
21
-22.3454135
0
LINE
8
0
10
10.7944329
20
-32.5037275
11
23.3514687
21
-35.8683751
0
LINE
8
0
10
13.8055271
20
-19.3343193
11
10.4408795
21
-31.8913551
0
LINE
8
0
10
27.3284887
20
-22.9577859
11
23.9638411
21
-35.5148217
0
ARC
8
0
10
14.28849
20
-19.4637288
40
0.5
50
75
51
165
0
ARC
8
0
10
26.8455258
20
-22.8283764
40
0.5
50
345
51
75
0
ARC
8
0
10
10.9238424
20
-32.0207646
40
0.5
50
165
51
255
0
ARC
8
0
10
23.4808782
20
-35.3854122
40
0.5
50
255
51
345
0
LINE
8
0
10
305.6100612
20
-22.3454135
11
318.167097
21
-18.9807659
0
LINE
8
0
10
309.2335278
20
-35.8683751
11
321.7905636
21
-32.5037275
0
LINE
8
0
10
305.2565078
20
-22.9577859
11
308.6211554
21
-35.5148217
0
LINE
8
0
10
318.7794694
20
-19.3343193
11
322.144117
21
-31.8913551
0
ARC
8
0
10
305.7394707
20
-22.8283764
40
0.5
50
105
51
195
0
ARC
8
0
10
318.2965065
20
-19.4637288
40
0.5
50
15
51
105
0
ARC
8
0
10
309.1041183
20
-35.3854122
40
0.5
50
195
51
285
0
ARC
8
0
10
321.6611541
20
-32.0207646
40
0.5
50
285
51
15
0
LINE
8
0
10
61.5486407
20
-18.769946
11
73.6020308
21
-23.6398317
0
LINE
8
0
10
56.3041484
20
-31.7505199
11
68.3575385
21
-36.6204056
0
LINE
8
0
10
60.8977455
20
-19.0462346
11
56.0278598
21
-31.0996247
0
LINE
8
0
10
73.8783194
20
-24.2907269
11
69.0084337
21
-36.344117
0
ARC
8
0
10
61.3613374
20
-19.2335379
40
0.5
50
68
51
158
0
ARC
8
0
10
73.4147275
20
-24.1034236
40
0.5
50
338
51
68
0
ARC
8
0
10
56.4914517
20
-31.286928
40
0.5
50
158
51
248
0
ARC
8
0
10
68.5448418
20
-36.1568137
40
0.5
50
248
51
338
0
LINE
8
0
10
258.9829657
20
-23.6398317
11
271.0363558
21
-18.769946
0
LINE
8
0
10
264.2274581
20
-36.6204056
11
276.2808482
21
-31.7505199
0
LINE
8
0
10
258.7066771
20
-24.2907269
11
263.5765628
21
-36.344117
0
LINE
8
0
10
271.6872511
20
-19.0462346
11
276.5571368
21
-31.0996247
0
ARC
8
0
10
259.1702691
20
-24.1034236
40
0.5
50
112
51
202
0
ARC
8
0
10
271.2236591
20
-19.2335379
40
0.5
50
22
51
112
0
ARC
8
0
10
264.0401548
20
-36.1568137
40
0.5
50
202
51
292
0
ARC
8
0
10
276.0935448
20
-31.286928
40
0.5
50
292
51
22
0
LINE
8
0
10
80.3382652
20
-23.1173274
11
92.3916554
21
-27.9872131
0
LINE
8
0
10
75.093773
20
-36.0979013
11
87.1471631
21
-40.967787
0
LINE
8
0
10
79.6873701
20
-23.393616
11
74.8174844
21
-35.4470061
0
LINE
8
0
10
92.667944
20
-28.6381083
11
87.7980583
21
-40.6914984
0
ARC
8
0
10
80.150962
20
-23.5809193
40
0.5
50
68
51
158
0
ARC
8
0
10
92.2043521
20
-28.450805
40
0.5
50
338
51
68
0
ARC
8
0
10
75.2810763
20
-35.6343094
40
0.5
50
158
51
248
0
ARC
8
0
10
87.3344664
20
-40.5041951
40
0.5
50
248
51
338
0
LINE
8
0
10
240.1933412
20
-27.9872131
11
252.2467313
21
-23.1173274
0
LINE
8
0
10
245.4378335
20
-40.967787
11
257.4912236
21
-36.0979013
0
LINE
8
0
10
239.9170526
20
-28.6381083
11
244.7869383
21
-40.6914984
0
LINE
8
0
10
252.8976265
20
-23.393616
11
257.7675122
21
-35.4470061
0
ARC
8
0
10
240.3806445
20
-28.450805
40
0.5
50
112
51
202
0
ARC
8
0
10
252.4340346
20
-23.5809193
40
0.5
50
22
51
112
0
ARC
8
0
10
245.2505302
20
-40.5041951
40
0.5
50
202
51
292
0
ARC
8
0
10
257.3039203
20
-35.6343094
40
0.5
50
292
51
22
0
LINE
8
0
10
35.9421699
20
-23.4361966
11
48.3059046
21
-27.4534176
0
LINE
8
0
10
31.615932
20
-36.7509879
11
43.9796667
21
-40.7682088
0
LINE
8
0
10
35.3121331
20
-23.7572164
11
31.2949122
21
-36.1209511
0
LINE
8
0
10
48.6269244
20
-28.0834543
11
44.6097035
21
-40.4471891
0
ARC
8
0
10
35.7876614
20
-23.9117249
40
0.5
50
72
51
162
0
ARC
8
0
10
48.1513961
20
-27.9289459
40
0.5
50
342
51
72
0
ARC
8
0
10
31.7704405
20
-36.2754596
40
0.5
50
162
51
252
0
ARC
8
0
10
44.1341752
20
-40.2926806
40
0.5
50
252
51
342
0
LINE
8
0
10
284.2790919
20
-27.4534176
11
296.6428266
21
-23.4361966
0
LINE
8
0
10
288.6053298
20
-40.7682088
11
300.9690645
21
-36.7509879
0
LINE
8
0
10
283.9580721
20
-28.0834543
11
287.975293
21
-40.4471891
0
LINE
8
0
10
297.2728634
20
-23.7572164
11
301.2900843
21
-36.1209511
0
ARC
8
0
10
284.4336004
20
-27.9289459
40
0.5
50
108
51
198
0
ARC
8
0
10
296.7973351
20
-23.9117249
40
0.5
50
18
51
108
0
ARC
8
0
10
288.4508213
20
-40.2926806
40
0.5
50
198
51
288
0
ARC
8
0
10
300.814556
20
-36.2754596
40
0.5
50
288
51
18
0
LINE
8
0
10
120.5466812
20
-25.3047246
11
132.6000713
21
-30.1746103
0
LINE
8
0
10
115.3021889
20
-38.2852985
11
127.355579
21
-43.1551842
0
LINE
8
0
10
119.895786
20
-25.5810132
11
115.0259003
21
-37.6344033
0
LINE
8
0
10
132.8763599
20
-30.8255055
11
128.0064742
21
-42.8788956
0
ARC
8
0
10
120.3593779
20
-25.7683165
40
0.5
50
68
51
158
0
ARC
8
0
10
132.412768
20
-30.6382022
40
0.5
50
338
51
68
0
ARC
8
0
10
115.4894922
20
-37.8217066
40
0.5
50
158
51
248
0
ARC
8
0
10
127.5428823
20
-42.6915923
40
0.5
50
248
51
338
0
LINE
8
0
10
199.9849253
20
-30.1746103
11
212.0383154
21
-25.3047246
0
LINE
8
0
10
205.2294176
20
-43.1551842
11
217.2828077
21
-38.2852985
0
LINE
8
0
10
199.7086367
20
-30.8255055
11
204.5785224
21
-42.8788956
0
LINE
8
0
10
212.6892106
20
-25.5810132
11
217.5590963
21
-37.6344033
0
ARC
8
0
10
200.1722286
20
-30.6382022
40
0.5
50
112
51
202
0
ARC
8
0
10
212.2256187
20
-25.7683165
40
0.5
50
22
51
112
0
ARC
8
0
10
205.0421143
20
-42.6915923
40
0.5
50
202
51
292
0
ARC
8
0
10
217.0955044
20
-37.8217066
40
0.5
50
292
51
22
0
LINE
8
0
10
96.8743511
20
-33.0424536
11
108.9277412
21
-37.9123393
0
LINE
8
0
10
91.6298588
20
-46.0230275
11
103.6832489
21
-50.8929132
0
LINE
8
0
10
96.2234559
20
-33.3187422
11
91.3535702
21
-45.3721323
0
LINE
8
0
10
109.2040298
20
-38.5632345
11
104.3341441
21
-50.6166246
0
ARC
8
0
10
96.6870478
20
-33.5060455
40
0.5
50
68
51
158
0
ARC
8
0
10
108.7404379
20
-38.3759312
40
0.5
50
338
51
68
0
ARC
8
0
10
91.8171621
20
-45.5594356
40
0.5
50
158
51
248
0
ARC
8
0
10
103.8705522
20
-50.4293213
40
0.5
50
248
51
338
0
LINE
8
0
10
223.6572554
20
-37.9123393
11
235.7106455
21
-33.0424536
0
LINE
8
0
10
228.9017477
20
-50.8929132
11
240.9551378
21
-46.0230275
0
LINE
8
0
10
223.3809668
20
-38.5632345
11
228.2508525
21
-50.6166246
0
LINE
8
0
10
236.3615407
20
-33.3187422
11
241.2314264
21
-45.3721323
0
ARC
8
0
10
223.8445587
20
-38.3759312
40
0.5
50
112
51
202
0
ARC
8
0
10
235.8979488
20
-33.5060455
40
0.5
50
22
51
112
0
ARC
8
0
10
228.7144444
20
-50.4293213
40
0.5
50
202
51
292
0
ARC
8
0
10
240.7678345
20
-45.5594356
40
0.5
50
292
51
22
0
LINE
8
0
10
54.4123964
20
-36.4328012
11
66.4657865
21
-41.3026869
0
LINE
8
0
10
49.1679041
20
-49.4133751
11
61.2212942
21
-54.2832608
0
LINE
8
0
10
53.7615012
20
-36.7090898
11
48.8916155
21
-48.7624799
0
LINE
8
0
10
66.7420751
20
-41.9535821
11
61.8721894
21
-54.0069722
0
ARC
8
0
10
54.2250931
20
-36.8963931
40
0.5
50
68
51
158
0
ARC
8
0
10
66.2784832
20
-41.7662788
40
0.5
50
338
51
68
0
ARC
8
0
10
49.3552074
20
-48.9497832
40
0.5
50
158
51
248
0
ARC
8
0
10
61.4085975
20
-53.8196689
40
0.5
50
248
51
338
0
LINE
8
0
10
266.1192101
20
-41.3026869
11
278.1726002
21
-36.4328012
0
LINE
8
0
10
271.3637024
20
-54.2832608
11
283.4170925
21
-49.4133751
0
LINE
8
0
10
265.8429215
20
-41.9535821
11
270.7128072
21
-54.0069722
0
LINE
8
0
10
278.8234954
20
-36.7090898
11
283.6933811
21
-48.7624799
0
ARC
8
0
10
266.3065134
20
-41.7662788
40
0.5
50
112
51
202
0
ARC
8
0
10
278.3599035
20
-36.8963931
40
0.5
50
22
51
112
0
ARC
8
0
10
271.1763991
20
-53.8196689
40
0.5
50
202
51
292
0
ARC
8
0
10
283.2297892
20
-48.9497832
40
0.5
50
292
51
22
0
LINE
8
0
10
9.4873975
20
-37.3816562
11
22.0444334
21
-40.7463038
0
LINE
8
0
10
5.8639309
20
-50.9046178
11
18.4209667
21
-54.2692654
0
LINE
8
0
10
8.8750251
20
-37.7352096
11
5.5103775
21
-50.2922454
0
LINE
8
0
10
22.3979868
20
-41.3586762
11
19.0333392
21
-53.915712
0
ARC
8
0
10
9.3579881
20
-37.8646191
40
0.5
50
75
51
165
0
ARC
8
0
10
21.9150238
20
-41.2292667
40
0.5
50
345
51
75
0
ARC
8
0
10
5.9933405
20
-50.4216549
40
0.5
50
165
51
255
0
ARC
8
0
10
18.5503763
20
-53.7863025
40
0.5
50
255
51
345
0
LINE
8
0
10
310.5405631
20
-40.7463038
11
323.0975989
21
-37.3816562
0
LINE
8
0
10
314.1640298
20
-54.2692654
11
326.7210656
21
-50.9046178
0
LINE
8
0
10
310.1870097
20
-41.3586762
11
313.5516573
21
-53.915712
0
LINE
8
0
10
323.7099714
20
-37.7352096
11
327.074619
21
-50.2922454
0
ARC
8
0
10
310.6699727
20
-41.2292667
40
0.5
50
105
51
195
0
ARC
8
0
10
323.2270084
20
-37.8646191
40
0.5
50
15
51
105
0
ARC
8
0
10
314.0346203
20
-53.7863025
40
0.5
50
195
51
285
0
ARC
8
0
10
326.5916561
20
-50.4216549
40
0.5
50
285
51
15
0
LINE
8
0
10
73.2020209
20
-40.7801826
11
85.255411
21
-45.6500683
0
LINE
8
0
10
67.9575287
20
-53.7607565
11
80.0109188
21
-58.6306422
0
LINE
8
0
10
72.5511258
20
-41.0564712
11
67.6812401
21
-53.1098613
0
LINE
8
0
10
85.5316997
20
-46.3009635
11
80.661814
21
-58.3543536
0
ARC
8
0
10
73.0147177
20
-41.2437745
40
0.5
50
68
51
158
0
ARC
8
0
10
85.0681078
20
-46.1136602
40
0.5
50
338
51
68
0
ARC
8
0
10
68.144832
20
-53.2971646
40
0.5
50
158
51
248
0
ARC
8
0
10
80.1982221
20
-58.1670503
40
0.5
50
248
51
338
0
LINE
8
0
10
247.3295855
20
-45.6500683
11
259.3829755
21
-40.7801826
0
LINE
8
0
10
252.5740778
20
-58.6306422
11
264.6274679
21
-53.7607565
0
LINE
8
0
10
247.0532969
20
-46.3009635
11
251.9231826
21
-58.3543536
0
LINE
8
0
10
260.0338708
20
-41.0564712
11
264.9037565
21
-53.1098613
0
ARC
8
0
10
247.5168888
20
-46.1136602
40
0.5
50
112
51
202
0
ARC
8
0
10
259.5702788
20
-41.2437745
40
0.5
50
22
51
112
0
ARC
8
0
10
252.3867745
20
-58.1670503
40
0.5
50
202
51
292
0
ARC
8
0
10
264.4401645
20
-53.2971646
40
0.5
50
292
51
22
0
LINE
8
0
10
30.0553961
20
-41.5538325
11
42.4191308
21
-45.5710534
0
LINE
8
0
10
25.7291581
20
-54.8686238
11
38.0928929
21
-58.8858447
0
LINE
8
0
10
29.4253593
20
-41.8748523
11
25.4081383
21
-54.238587
0
LINE
8
0
10
42.7401505
20
-46.2010902
11
38.7229297
21
-58.5648249
0
ARC
8
0
10
29.9008876
20
-42.0293608
40
0.5
50
72
51
162
0
ARC
8
0
10
42.2646223
20
-46.0465817
40
0.5
50
342
51
72
0
ARC
8
0
10
25.8836667
20
-54.3930955
40
0.5
50
162
51
252
0
ARC
8
0
10
38.2474014
20
-58.4103164
40
0.5
50
252
51
342
0
LINE
8
0
10
290.1658657
20
-45.5710534
11
302.5296005
21
-41.5538325
0
LINE
8
0
10
294.4921037
20
-58.8858447
11
306.8558384
21
-54.8686238
0
LINE
8
0
10
289.844846
20
-46.2010902
11
293.8620668
21
-58.5648249
0
LINE
8
0
10
303.1596373
20
-41.8748523
11
307.1768582
21
-54.238587
0
ARC
8
0
10
290.3203743
20
-46.0465817
40
0.5
50
108
51
198
0
ARC
8
0
10
302.684109
20
-42.0293608
40
0.5
50
18
51
108
0
ARC
8
0
10
294.3375951
20
-58.4103164
40
0.5
50
198
51
288
0
ARC
8
0
10
306.7013299
20
-54.3930955
40
0.5
50
288
51
18
0
LINE
8
0
10
113.4104178
20
-42.9675798
11
125.4638079
21
-47.8374655
0
LINE
8
0
10
108.1659255
20
-55.9481537
11
120.2193156
21
-60.8180394
0
LINE
8
0
10
112.7595226
20
-43.2438684
11
107.8896369
21
-55.2972585
0
LINE
8
0
10
125.7400965
20
-48.4883607
11
120.8702108
21
-60.5417508
0
ARC
8
0
10
113.2231145
20
-43.4311717
40
0.5
50
68
51
158
0
ARC
8
0
10
125.2765046
20
-48.3010574
40
0.5
50
338
51
68
0
ARC
8
0
10
108.3532288
20
-55.4845618
40
0.5
50
158
51
248
0
ARC
8
0
10
120.4066189
20
-60.3544475
40
0.5
50
248
51
338
0
LINE
8
0
10
207.1211886
20
-47.8374655
11
219.1745787
21
-42.9675798
0
LINE
8
0
10
212.3656809
20
-60.8180394
11
224.419071
21
-55.9481537
0
LINE
8
0
10
206.8449
20
-48.4883607
11
211.7147857
21
-60.5417508
0
LINE
8
0
10
219.8254739
20
-43.2438684
11
224.6953596
21
-55.2972585
0
ARC
8
0
10
207.3084919
20
-48.3010574
40
0.5
50
112
51
202
0
ARC
8
0
10
219.361882
20
-43.4311717
40
0.5
50
22
51
112
0
ARC
8
0
10
212.1783776
20
-60.3544475
40
0.5
50
202
51
292
0
ARC
8
0
10
224.2317677
20
-55.4845618
40
0.5
50
292
51
22
0
LINE
8
0
10
89.7380877
20
-50.7053088
11
101.7914778
21
-55.5751945
0
LINE
8
0
10
84.4935954
20
-63.6858827
11
96.5469855
21
-68.5557684
0
LINE
8
0
10
89.0871925
20
-50.9815974
11
84.2173068
21
-63.0349875
0
LINE
8
0
10
102.0677664
20
-56.2260897
11
97.1978807
21
-68.2794798
0
ARC
8
0
10
89.5507844
20
-51.1689007
40
0.5
50
68
51
158
0
ARC
8
0
10
101.6041745
20
-56.0387864
40
0.5
50
338
51
68
0
ARC
8
0
10
84.6808987
20
-63.2222908
40
0.5
50
158
51
248
0
ARC
8
0
10
96.7342888
20
-68.0921765
40
0.5
50
248
51
338
0
LINE
8
0
10
230.7935187
20
-55.5751945
11
242.8469088
21
-50.7053088
0
LINE
8
0
10
236.038011
20
-68.5557684
11
248.0914011
21
-63.6858827
0
LINE
8
0
10
230.5172301
20
-56.2260897
11
235.3871158
21
-68.2794798
0
LINE
8
0
10
243.497804
20
-50.9815974
11
248.3676897
21
-63.0349875
0
ARC
8
0
10
230.980822
20
-56.0387864
40
0.5
50
112
51
202
0
ARC
8
0
10
243.0342121
20
-51.1689007
40
0.5
50
22
51
112
0
ARC
8
0
10
235.8507077
20
-68.0921765
40
0.5
50
202
51
292
0
ARC
8
0
10
247.9040978
20
-63.2222908
40
0.5
50
292
51
22
0
LINE
8
0
10
47.276133
20
-54.0956564
11
59.3295231
21
-58.9655421
0
LINE
8
0
10
42.0316407
20
-67.0762303
11
54.0850308
21
-71.946116
0
LINE
8
0
10
46.6252378
20
-54.371945
11
41.7553521
21
-66.4253351
0
LINE
8
0
10
59.6058117
20
-59.6164373
11
54.735926
21
-71.6698274
0
ARC
8
0
10
47.0888297
20
-54.5592483
40
0.5
50
68
51
158
0
ARC
8
0
10
59.1422198
20
-59.429134
40
0.5
50
338
51
68
0
ARC
8
0
10
42.218944
20
-66.6126384
40
0.5
50
158
51
248
0
ARC
8
0
10
54.2723341
20
-71.4825241
40
0.5
50
248
51
338
0
LINE
8
0
10
273.2554734
20
-58.9655421
11
285.3088635
21
-54.0956564
0
LINE
8
0
10
278.4999657
20
-71.946116
11
290.5533558
21
-67.0762303
0
LINE
8
0
10
272.9791848
20
-59.6164373
11
277.8490705
21
-71.6698274
0
LINE
8
0
10
285.9597587
20
-54.371945
11
290.8296444
21
-66.4253351
0
ARC
8
0
10
273.4427767
20
-59.429134
40
0.5
50
112
51
202
0
ARC
8
0
10
285.4961668
20
-54.5592483
40
0.5
50
22
51
112
0
ARC
8
0
10
278.3126624
20
-71.4825241
40
0.5
50
202
51
292
0
ARC
8
0
10
290.3660525
20
-66.6126384
40
0.5
50
292
51
22
0
LINE
8
0
10
4.5568956
20
-55.7825465
11
17.1139314
21
-59.1471941
0
LINE
8
0
10
0.933429
20
-69.3055081
11
13.4904648
21
-72.6701557
0
LINE
8
0
10
3.9445232
20
-56.1360999
11
0.5798756
21
-68.6931357
0
LINE
8
0
10
17.4674848
20
-59.7595665
11
14.1028372
21
-72.3166023
0
ARC
8
0
10
4.4274861
20
-56.2655094
40
0.5
50
75
51
165
0
ARC
8
0
10
16.9845219
20
-59.630157
40
0.5
50
345
51
75
0
ARC
8
0
10
1.0628385
20
-68.8225452
40
0.5
50
165
51
255
0
ARC
8
0
10
13.6198743
20
-72.1871928
40
0.5
50
255
51
345
0
LINE
8
0
10
315.4710651
20
-59.1471941
11
328.0281009
21
-55.7825465
0
LINE
8
0
10
319.0945317
20
-72.6701557
11
331.6515675
21
-69.3055081
0
LINE
8
0
10
315.1175117
20
-59.7595665
11
318.4821593
21
-72.3166023
0
LINE
8
0
10
328.6404733
20
-56.1360999
11
332.0051209
21
-68.6931357
0
ARC
8
0
10
315.6004746
20
-59.630157
40
0.5
50
105
51
195
0
ARC
8
0
10
328.1575104
20
-56.2655094
40
0.5
50
15
51
105
0
ARC
8
0
10
318.9651222
20
-72.1871928
40
0.5
50
195
51
285
0
ARC
8
0
10
331.522158
20
-68.8225452
40
0.5
50
285
51
15
0
LINE
8
0
10
66.0657576
20
-58.4430378
11
78.1191477
21
-63.3129235
0
LINE
8
0
10
60.8212653
20
-71.4236117
11
72.8746554
21
-76.2934974
0
LINE
8
0
10
65.4148624
20
-58.7193264
11
60.5449767
21
-70.7727165
0
LINE
8
0
10
78.3954363
20
-63.9638187
11
73.5255506
21
-76.0172088
0
ARC
8
0
10
65.8784543
20
-58.9066297
40
0.5
50
68
51
158
0
ARC
8
0
10
77.9318444
20
-63.7765154
40
0.5
50
338
51
68
0
ARC
8
0
10
61.0085686
20
-70.9600198
40
0.5
50
158
51
248
0
ARC
8
0
10
73.0619587
20
-75.8299055
40
0.5
50
248
51
338
0
LINE
8
0
10
254.4658488
20
-63.3129235
11
266.5192389
21
-58.4430378
0
LINE
8
0
10
259.7103411
20
-76.2934974
11
271.7637312
21
-71.4236117
0
LINE
8
0
10
254.1895602
20
-63.9638187
11
259.0594459
21
-76.0172088
0
LINE
8
0
10
267.1701341
20
-58.7193264
11
272.0400198
21
-70.7727165
0
ARC
8
0
10
254.6531521
20
-63.7765154
40
0.5
50
112
51
202
0
ARC
8
0
10
266.7065422
20
-58.9066297
40
0.5
50
22
51
112
0
ARC
8
0
10
259.5230378
20
-75.8299055
40
0.5
50
202
51
292
0
ARC
8
0
10
271.5764279
20
-70.9600198
40
0.5
50
292
51
22
0
LINE
8
0
10
24.1686222
20
-59.6714493
11
36.5323569
21
-63.6886702
0
LINE
8
0
10
19.8423843
20
-72.9862406
11
32.206119
21
-77.0034615
0
LINE
8
0
10
23.5385854
20
-59.9924691
11
19.5213645
21
-72.3562038
0
LINE
8
0
10
36.8533767
20
-64.318707
11
32.8361558
21
-76.6824417
0
ARC
8
0
10
24.0141137
20
-60.1469776
40
0.5
50
72
51
162
0
ARC
8
0
10
36.3778484
20
-64.1641985
40
0.5
50
342
51
72
0
ARC
8
0
10
19.9968928
20
-72.5107123
40
0.5
50
162
51
252
0
ARC
8
0
10
32.3606275
20
-76.5279332
40
0.5
50
252
51
342
0
LINE
8
0
10
296.0526396
20
-63.6886702
11
308.4163743
21
-59.6714493
0
LINE
8
0
10
300.3788775
20
-77.0034615
11
312.7426122
21
-72.9862406
0
LINE
8
0
10
295.7316198
20
-64.318707
11
299.7488407
21
-76.6824417
0
LINE
8
0
10
309.0464111
20
-59.9924691
11
313.063632
21
-72.3562038
0
ARC
8
0
10
296.2071481
20
-64.1641985
40
0.5
50
108
51
198
0
ARC
8
0
10
308.5708828
20
-60.1469776
40
0.5
50
18
51
108
0
ARC
8
0
10
300.224369
20
-76.5279332
40
0.5
50
198
51
288
0
ARC
8
0
10
312.5881037
20
-72.5107123
40
0.5
50
288
51
18
0
LINE
8
0
10
106.2741735
20
-60.630435
11
118.3275636
21
-65.5003207
0
LINE
8
0
10
101.0296812
20
-73.6110089
11
113.0830713
21
-78.4808946
0
LINE
8
0
10
105.6232783
20
-60.9067236
11
100.7533926
21
-72.9601137
0
LINE
8
0
10
118.6038522
20
-66.1512159
11
113.7339665
21
-78.204606
0
ARC
8
0
10
106.0868702
20
-61.0940269
40
0.5
50
68
51
158
0
ARC
8
0
10
118.1402603
20
-65.9639126
40
0.5
50
338
51
68
0
ARC
8
0
10
101.2169845
20
-73.147417
40
0.5
50
158
51
248
0
ARC
8
0
10
113.2703746
20
-78.0173027
40
0.5
50
248
51
338
0
LINE
8
0
10
214.2574329
20
-65.5003207
11
226.310823
21
-60.630435
0
LINE
8
0
10
219.5019252
20
-78.4808946
11
231.5553153
21
-73.6110089
0
LINE
8
0
10
213.9811443
20
-66.1512159
11
218.85103
21
-78.204606
0
LINE
8
0
10
226.9617182
20
-60.9067236
11
231.8316039
21
-72.9601137
0
ARC
8
0
10
214.4447362
20
-65.9639126
40
0.5
50
112
51
202
0
ARC
8
0
10
226.4981263
20
-61.0940269
40
0.5
50
22
51
112
0
ARC
8
0
10
219.3146219
20
-78.0173027
40
0.5
50
202
51
292
0
ARC
8
0
10
231.368012
20
-73.147417
40
0.5
50
292
51
22
0
LINE
8
0
10
82.6018434
20
-68.368164
11
94.6552335
21
-73.2380497
0
LINE
8
0
10
77.3573511
20
-81.3487379
11
89.4107412
21
-86.2186236
0
LINE
8
0
10
81.9509482
20
-68.6444526
11
77.0810625
21
-80.6978427
0
LINE
8
0
10
94.9315221
20
-73.8889449
11
90.0616364
21
-85.942335
0
ARC
8
0
10
82.4145401
20
-68.8317559
40
0.5
50
68
51
158
0
ARC
8
0
10
94.4679302
20
-73.7016416
40
0.5
50
338
51
68
0
ARC
8
0
10
77.5446544
20
-80.885146
40
0.5
50
158
51
248
0
ARC
8
0
10
89.5980445
20
-85.7550317
40
0.5
50
248
51
338
0
LINE
8
0
10
237.929763
20
-73.2380497
11
249.9831531
21
-68.368164
0
LINE
8
0
10
243.1742553
20
-86.2186236
11
255.2276454
21
-81.3487379
0
LINE
8
0
10
237.6534744
20
-73.8889449
11
242.5233601
21
-85.942335
0
LINE
8
0
10
250.6340483
20
-68.6444526
11
255.503934
21
-80.6978427
0
ARC
8
0
10
238.1170663
20
-73.7016416
40
0.5
50
112
51
202
0
ARC
8
0
10
250.1704564
20
-68.8317559
40
0.5
50
22
51
112
0
ARC
8
0
10
242.986952
20
-85.7550317
40
0.5
50
202
51
292
0
ARC
8
0
10
255.0403421
20
-80.885146
40
0.5
50
292
51
22
0
LINE
8
0
10
99.1379102
20
-78.2932902
11
111.1913003
21
-83.1631759
0
LINE
8
0
10
93.8934179
20
-91.2738641
11
105.946808
21
-96.1437498
0
LINE
8
0
10
98.487015
20
-78.5695788
11
93.6171293
21
-90.6229689
0
LINE
8
0
10
111.4675889
20
-83.8140711
11
106.5977032
21
-95.8674612
0
ARC
8
0
10
98.9506069
20
-78.7568821
40
0.5
50
68
51
158
0
ARC
8
0
10
111.003997
20
-83.6267678
40
0.5
50
338
51
68
0
ARC
8
0
10
94.0807212
20
-90.8102722
40
0.5
50
158
51
248
0
ARC
8
0
10
106.1341113
20
-95.6801579
40
0.5
50
248
51
338
0
LINE
8
0
10
221.3936963
20
-83.1631759
11
233.4470864
21
-78.2932902
0
LINE
8
0
10
226.6381886
20
-96.1437498
11
238.6915787
21
-91.2738641
0
LINE
8
0
10
221.1174077
20
-83.8140711
11
225.9872934
21
-95.8674612
0
LINE
8
0
10
234.0979816
20
-78.5695788
11
238.9678673
21
-90.6229689
0
ARC
8
0
10
221.5809996
20
-83.6267678
40
0.5
50
112
51
202
0
ARC
8
0
10
233.6343897
20
-78.7568821
40
0.5
50
22
51
112
0
ARC
8
0
10
226.4508853
20
-95.6801579
40
0.5
50
202
51
292
0
ARC
8
0
10
238.5042754
20
-90.8102722
40
0.5
50
292
51
22
0
LINE
8
0
10
57.8314884
20
-88.8879922
11
70.0474924
21
-93.3342541
0
LINE
8
0
10
53.0432064
20
-102.0436889
11
65.2592104
21
-106.4899508
0
LINE
8
0
10
57.190632
20
-89.1868285
11
52.7443701
21
-101.4028325
0
LINE
8
0
10
70.3463287
20
-93.9751105
11
65.9000668
21
-106.1911145
0
ARC
8
0
10
57.6604783
20
-89.3578385
40
0.5
50
70
51
160
0
ARC
8
0
10
69.8764824
20
-93.8041004
40
0.5
50
340
51
70
0
ARC
8
0
10
53.2142164
20
-101.5738426
40
0.5
50
160
51
250
0
ARC
8
0
10
65.4302205
20
-106.0201045
40
0.5
50
250
51
340
0
LINE
8
0
10
262.5375042
20
-93.3342541
11
274.7535082
21
-88.8879922
0
LINE
8
0
10
267.3257862
20
-106.4899508
11
279.5417902
21
-102.0436889
0
LINE
8
0
10
262.2386679
20
-93.9751105
11
266.6849298
21
-106.1911145
0
LINE
8
0
10
275.3943646
20
-89.1868285
11
279.8406265
21
-101.4028325
0
ARC
8
0
10
262.7085142
20
-93.8041004
40
0.5
50
110
51
200
0
ARC
8
0
10
274.9245183
20
-89.3578385
40
0.5
50
20
51
110
0
ARC
8
0
10
267.1547761
20
-106.0201045
40
0.5
50
200
51
290
0
ARC
8
0
10
279.3707802
20
-101.5738426
40
0.5
50
290
51
20
0
LINE
8
0
10
75.2483564
20
-97.9837284
11
87.9151672
21
-100.9080921
0
LINE
8
0
10
72.0990416
20
-111.6249093
11
84.7658524
21
-114.549273
0
LINE
8
0
10
74.6486958
20
-98.3584379
11
71.7243321
21
-111.0252487
0
LINE
8
0
10
88.2898767
20
-101.5077527
11
85.365513
21
-114.1745635
0
ARC
8
0
10
75.1358808
20
-98.4709134
40
0.5
50
77
51
167
0
ARC
8
0
10
87.8026917
20
-101.3952771
40
0.5
50
347
51
77
0
ARC
8
0
10
72.2115171
20
-111.1377243
40
0.5
50
167
51
257
0
ARC
8
0
10
84.878328
20
-114.062088
40
0.5
50
257
51
347
0
LINE
8
0
10
244.6698293
20
-100.9080921
11
257.3366401
21
-97.9837284
0
LINE
8
0
10
247.8191441
20
-114.549273
11
260.4859549
21
-111.6249093
0
LINE
8
0
10
244.2951198
20
-101.5077527
11
247.2194835
21
-114.1745635
0
LINE
8
0
10
257.9363007
20
-98.3584379
11
260.8606644
21
-111.0252487
0
ARC
8
0
10
244.7823048
20
-101.3952771
40
0.5
50
103
51
193
0
ARC
8
0
10
257.4491157
20
-98.4709134
40
0.5
50
13
51
103
0
ARC
8
0
10
247.7066685
20
-114.062088
40
0.5
50
193
51
283
0
ARC
8
0
10
260.3734794
20
-111.1377243
40
0.5
50
283
51
13
0
LINE
8
0
10
0
20
-115.2901809
11
332.5849965
21
-115.2901809
0
LINE
8
0
10
0
20
0
11
332.5849965
21
0
0
LINE
8
0
10
0
20
-115.2901809
11
0
21
0
0
LINE
8
0
10
332.5849965
20
-115.2901809
11
332.5849965
21
0
0
ENDSEC
0
EOF