M48
; DRILL file {KiCad 8.0.8-8.0.8-0~ubuntu24.04.1} date 2025-02-20T07:28:28-0800
; FORMAT={-:-/ absolute / inch / decimal}
; #@! TF.CreationDate,2025-02-20T07:28:28-08:00
; #@! TF.GenerationSoftware,Kicad,Pcbnew,8.0.8-8.0.8-0~ubuntu24.04.1
; #@! TF.FileFunction,NonPlated,1,2,NPTH
FMAT,2
INCH
; #@! TA.AperFunction,NonPlated,NPTH,ComponentDrill
T1C0.0669
; #@! TA.AperFunction,NonPlated,NPTH,ComponentDrill
T2C0.1575
%
G90
G05
T1
X4.675Y-2.8125
X4.675Y-3.5625
X4.675Y-4.3125
X5.075Y-2.8125
X5.075Y-3.5625
X5.075Y-4.3125
X5.425Y-2.8125
X5.425Y-3.5625
X5.425Y-4.3125
X5.825Y-2.8125
X5.825Y-3.5625
X5.825Y-4.3125
X6.175Y-2.8125
X6.175Y-3.5625
X6.175Y-4.3125
X6.575Y-2.8125
X6.575Y-3.5625
X6.575Y-4.3125
T2
X4.875Y-2.8125
X4.875Y-3.5625
X4.875Y-4.3125
X5.625Y-2.8125
X5.625Y-3.5625
X5.625Y-4.3125
X6.375Y-2.8125
X6.375Y-3.5625
X6.375Y-4.3125
M30
