%TF.GenerationSoftware,KiCad,Pcbnew,8.0.8*%
%TF.CreationDate,2025-03-11T20:04:37-04:00*%
%TF.ProjectId,Keyboard,4b657962-6f61-4726-942e-6b696361645f,rev?*%
%TF.SameCoordinates,Original*%
%TF.FileFunction,Soldermask,Bot*%
%TF.FilePolarity,Negative*%
%FSLAX46Y46*%
G04 Gerber Fmt 4.6, Leading zero omitted, Abs format (unit mm)*
G04 Created by KiCad (PCBNEW 8.0.8) date 2025-03-11 20:04:37*
%MOMM*%
%LPD*%
G01*
G04 APERTURE LIST*
G04 Aperture macros list*
%AMRoundRect*
0 Rectangle with rounded corners*
0 $1 Rounding radius*
0 $2 $3 $4 $5 $6 $7 $8 $9 X,Y pos of 4 corners*
0 Add a 4 corners polygon primitive as box body*
4,1,4,$2,$3,$4,$5,$6,$7,$8,$9,$2,$3,0*
0 Add four circle primitives for the rounded corners*
1,1,$1+$1,$2,$3*
1,1,$1+$1,$4,$5*
1,1,$1+$1,$6,$7*
1,1,$1+$1,$8,$9*
0 Add four rect primitives between the rounded corners*
20,1,$1+$1,$2,$3,$4,$5,0*
20,1,$1+$1,$4,$5,$6,$7,0*
20,1,$1+$1,$6,$7,$8,$9,0*
20,1,$1+$1,$8,$9,$2,$3,0*%
%AMHorizOval*
0 Thick line with rounded ends*
0 $1 width*
0 $2 $3 position (X,Y) of the first rounded end (center of the circle)*
0 $4 $5 position (X,Y) of the second rounded end (center of the circle)*
0 Add line between two ends*
20,1,$1,$2,$3,$4,$5,0*
0 Add two circle primitives to create the rounded ends*
1,1,$1,$2,$3*
1,1,$1,$4,$5*%
%AMRotRect*
0 Rectangle, with rotation*
0 The origin of the aperture is its center*
0 $1 length*
0 $2 width*
0 $3 Rotation angle, in degrees counterclockwise*
0 Add horizontal line*
21,1,$1,$2,0,0,$3*%
%AMOutline5P*
0 Free polygon, 5 corners , with rotation*
0 The origin of the aperture is its center*
0 number of corners: always 5*
0 $1 to $10 corner X, Y*
0 $11 Rotation angle, in degrees counterclockwise*
0 create outline with 5 corners*
4,1,5,$1,$2,$3,$4,$5,$6,$7,$8,$9,$10,$1,$2,$11*%
%AMOutline6P*
0 Free polygon, 6 corners , with rotation*
0 The origin of the aperture is its center*
0 number of corners: always 6*
0 $1 to $12 corner X, Y*
0 $13 Rotation angle, in degrees counterclockwise*
0 create outline with 6 corners*
4,1,6,$1,$2,$3,$4,$5,$6,$7,$8,$9,$10,$11,$12,$1,$2,$13*%
%AMOutline7P*
0 Free polygon, 7 corners , with rotation*
0 The origin of the aperture is its center*
0 number of corners: always 7*
0 $1 to $14 corner X, Y*
0 $15 Rotation angle, in degrees counterclockwise*
0 create outline with 7 corners*
4,1,7,$1,$2,$3,$4,$5,$6,$7,$8,$9,$10,$11,$12,$13,$14,$1,$2,$15*%
%AMOutline8P*
0 Free polygon, 8 corners , with rotation*
0 The origin of the aperture is its center*
0 number of corners: always 8*
0 $1 to $16 corner X, Y*
0 $17 Rotation angle, in degrees counterclockwise*
0 create outline with 8 corners*
4,1,8,$1,$2,$3,$4,$5,$6,$7,$8,$9,$10,$11,$12,$13,$14,$15,$16,$1,$2,$17*%
G04 Aperture macros list end*
%ADD10O,1.600000X1.600000*%
%ADD11R,1.600000X1.600000*%
%ADD12RotRect,1.800000X0.820000X191.938000*%
%ADD13Outline5P,-0.900000X0.410000X0.900000X0.410000X0.900000X-0.246000X0.736000X-0.410000X-0.900000X-0.410000X191.938000*%
%ADD14C,2.500000*%
%ADD15C,1.750000*%
%ADD16C,4.000000*%
%ADD17R,1.800000X0.820000*%
%ADD18Outline5P,-0.900000X0.410000X0.900000X0.410000X0.900000X-0.246000X0.736000X-0.410000X-0.900000X-0.410000X180.000000*%
%ADD19RotRect,1.800000X0.820000X203.879000*%
%ADD20Outline5P,-0.900000X0.410000X0.900000X0.410000X0.900000X-0.246000X0.736000X-0.410000X-0.900000X-0.410000X203.879000*%
%ADD21RoundRect,0.250000X0.337500X0.475000X-0.337500X0.475000X-0.337500X-0.475000X0.337500X-0.475000X0*%
%ADD22RoundRect,0.250000X0.116328X0.570963X-0.500894X0.297719X-0.116328X-0.570963X0.500894X-0.297719X0*%
%ADD23O,1.700000X1.700000*%
%ADD24R,1.700000X1.700000*%
%ADD25R,3.500000X1.700000*%
%ADD26O,1.800000X1.800000*%
%ADD27O,1.500000X1.500000*%
%ADD28O,1.400000X1.400000*%
%ADD29C,1.400000*%
%ADD30RoundRect,0.250000X0.231945X0.534540X-0.428456X0.394914X-0.231945X-0.534540X0.428456X-0.394914X0*%
%ADD31HorizOval,1.000000X-0.271223X-0.128212X0.271223X0.128212X0*%
%ADD32HorizOval,1.000000X-0.497241X-0.235056X0.497241X0.235056X0*%
%ADD33C,0.650000*%
%ADD34HorizOval,1.600000X0.000000X0.000000X0.000000X0.000000X0*%
%ADD35RotRect,1.600000X1.600000X113.879000*%
%ADD36RotRect,1.600000X1.600000X101.940000*%
%ADD37HorizOval,1.600000X0.000000X0.000000X0.000000X0.000000X0*%
G04 APERTURE END LIST*
D10*
%TO.C,D12*%
X399580000Y-185232000D03*
D11*
X399580000Y-192852000D03*
%TD*%
D12*
%TO.C,D23*%
X306323907Y-232397274D03*
X301236373Y-233472910D03*
D13*
X300926093Y-232005352D03*
D12*
X306013627Y-230929716D03*
%TD*%
D14*
%TO.C,SW5*%
X373545000Y-164912000D03*
X367195000Y-167452000D03*
D15*
X376085000Y-169992000D03*
D16*
X371005000Y-169992000D03*
D15*
X365925000Y-169992000D03*
%TD*%
D17*
%TO.C,D51*%
X335505000Y-186473000D03*
D18*
X330305000Y-186473000D03*
D17*
X330305000Y-187973000D03*
X335505000Y-187973000D03*
%TD*%
D19*
%TO.C,D22*%
X286805511Y-236538396D03*
D20*
X282050619Y-238643390D03*
D19*
X282657829Y-240014994D03*
X287412721Y-237910000D03*
%TD*%
D14*
%TO.C,SW18*%
X392595000Y-203012000D03*
X386245000Y-205552000D03*
D15*
X395135000Y-208092000D03*
D16*
X390055000Y-208092000D03*
D15*
X384975000Y-208092000D03*
%TD*%
D14*
%TO.C,SW11*%
X373545000Y-183962000D03*
X367195000Y-186502000D03*
D15*
X376085000Y-189042000D03*
D16*
X371005000Y-189042000D03*
D15*
X365925000Y-189042000D03*
%TD*%
D14*
%TO.C,SW13*%
X297345000Y-200630000D03*
X290995000Y-203170000D03*
D15*
X299885000Y-205710000D03*
D16*
X294805000Y-205710000D03*
D15*
X289725000Y-205710000D03*
%TD*%
D21*
%TO.C,C11*%
X369967500Y-197367000D03*
X372042500Y-197367000D03*
%TD*%
D22*
%TO.C,C19*%
X284996978Y-241439682D03*
X286894362Y-240599708D03*
%TD*%
D10*
%TO.C,D13*%
X304330000Y-201900000D03*
D11*
X304330000Y-209520000D03*
%TD*%
D10*
%TO.C,D3*%
X342430000Y-159038000D03*
D11*
X342430000Y-166658000D03*
%TD*%
D14*
%TO.C,SW10*%
X354495000Y-179199000D03*
X348145000Y-181739000D03*
D15*
X357035000Y-184279000D03*
D16*
X351955000Y-184279000D03*
D15*
X346875000Y-184279000D03*
%TD*%
D23*
%TO.C,Brd1*%
X268995000Y-203325000D03*
X271535000Y-203325000D03*
X274075000Y-203325000D03*
D24*
X276615000Y-203325000D03*
%TD*%
D17*
%TO.C,D48*%
X392655000Y-174516000D03*
D18*
X387455000Y-174516000D03*
D17*
X387455000Y-176016000D03*
X392655000Y-176016000D03*
%TD*%
D14*
%TO.C,SW2*%
X316395000Y-160149000D03*
X310045000Y-162689000D03*
D15*
X318935000Y-165229000D03*
D16*
X313855000Y-165229000D03*
D15*
X308775000Y-165229000D03*
%TD*%
D10*
%TO.C,D10*%
X361480000Y-180469000D03*
D11*
X361480000Y-188089000D03*
%TD*%
D14*
%TO.C,SW20*%
X304009059Y-221444413D03*
X298321937Y-225243194D03*
D15*
X307545093Y-225889013D03*
D16*
X302575000Y-226940000D03*
D15*
X297604907Y-227990987D03*
%TD*%
D21*
%TO.C,C21*%
X322342500Y-233085000D03*
X324417500Y-233085000D03*
%TD*%
D17*
%TO.C,D24*%
X325980000Y-229335000D03*
D18*
X320780000Y-229335000D03*
D17*
X320780000Y-230835000D03*
X325980000Y-230835000D03*
%TD*%
D25*
%TO.C,U1*%
X263015000Y-162530000D03*
D23*
X263915000Y-162530000D03*
D25*
X263015000Y-165070000D03*
D23*
X263915000Y-165070000D03*
D25*
X263015000Y-167610000D03*
D24*
X263915000Y-167610000D03*
D25*
X263015000Y-170150000D03*
D23*
X263915000Y-170150000D03*
D25*
X263015000Y-172690000D03*
D23*
X263915000Y-172690000D03*
D25*
X263015000Y-175230000D03*
D23*
X263915000Y-175230000D03*
D25*
X263015000Y-177770000D03*
D23*
X263915000Y-177770000D03*
D25*
X263015000Y-180310000D03*
D24*
X263915000Y-180310000D03*
D25*
X263015000Y-182850000D03*
D23*
X263915000Y-182850000D03*
D25*
X263015000Y-185390000D03*
D23*
X263915000Y-185390000D03*
D25*
X263015000Y-187930000D03*
D23*
X263915000Y-187930000D03*
D25*
X263015000Y-190470000D03*
D23*
X263915000Y-190470000D03*
D25*
X263015000Y-193010000D03*
D24*
X263915000Y-193010000D03*
D25*
X263015000Y-195550000D03*
D23*
X263915000Y-195550000D03*
D25*
X263015000Y-198090000D03*
D23*
X263915000Y-198090000D03*
D25*
X263015000Y-200630000D03*
D23*
X263915000Y-200630000D03*
D25*
X263015000Y-203170000D03*
D23*
X263915000Y-203170000D03*
D25*
X263015000Y-205710000D03*
D24*
X263915000Y-205710000D03*
D25*
X263015000Y-208250000D03*
D23*
X263915000Y-208250000D03*
D25*
X263015000Y-210790000D03*
D23*
X263915000Y-210790000D03*
D25*
X282595000Y-210790000D03*
D23*
X281695000Y-210790000D03*
D25*
X282595000Y-208250000D03*
D23*
X281695000Y-208250000D03*
D25*
X282595000Y-205710000D03*
D24*
X281695000Y-205710000D03*
D25*
X282595000Y-203170000D03*
D23*
X281695000Y-203170000D03*
D25*
X282595000Y-200630000D03*
D23*
X281695000Y-200630000D03*
D25*
X282595000Y-198090000D03*
D23*
X281695000Y-198090000D03*
D25*
X282595000Y-195550000D03*
D23*
X281695000Y-195550000D03*
D25*
X282595000Y-193010000D03*
D24*
X281695000Y-193010000D03*
D25*
X282595000Y-190470000D03*
D23*
X281695000Y-190470000D03*
D25*
X282595000Y-187930000D03*
D23*
X281695000Y-187930000D03*
D25*
X282595000Y-185390000D03*
D23*
X281695000Y-185390000D03*
D25*
X282595000Y-182850000D03*
D23*
X281695000Y-182850000D03*
D25*
X282595000Y-180310000D03*
D24*
X281695000Y-180310000D03*
D25*
X282595000Y-177770000D03*
D23*
X281695000Y-177770000D03*
D25*
X282595000Y-175230000D03*
D23*
X281695000Y-175230000D03*
D25*
X282595000Y-172690000D03*
D23*
X281695000Y-172690000D03*
D25*
X282595000Y-170150000D03*
D23*
X281695000Y-170150000D03*
D25*
X282595000Y-167610000D03*
D24*
X281695000Y-167610000D03*
D25*
X282595000Y-165070000D03*
D23*
X281695000Y-165070000D03*
D25*
X282595000Y-162530000D03*
D23*
X281695000Y-162530000D03*
D26*
X270080000Y-162660000D03*
D27*
X270380000Y-165690000D03*
X275230000Y-165690000D03*
D26*
X275530000Y-162660000D03*
%TD*%
D21*
%TO.C,C6*%
X389017500Y-178266000D03*
X391092500Y-178266000D03*
%TD*%
D17*
%TO.C,D47*%
X373605000Y-174529000D03*
D18*
X368405000Y-174529000D03*
D17*
X368405000Y-176029000D03*
X373605000Y-176029000D03*
%TD*%
D21*
%TO.C,C7*%
X293767500Y-194985000D03*
X295842500Y-194985000D03*
%TD*%
D28*
%TO.C,R2*%
X277105000Y-206060000D03*
D29*
X269485000Y-206060000D03*
%TD*%
D10*
%TO.C,D6*%
X399580000Y-166182000D03*
D11*
X399580000Y-173802000D03*
%TD*%
D28*
%TO.C,R1*%
X277105000Y-208310000D03*
D29*
X269485000Y-208310000D03*
%TD*%
D14*
%TO.C,SW19*%
X282925938Y-227714290D03*
X278147777Y-232607476D03*
D15*
X287305000Y-231331169D03*
D16*
X282659872Y-233387667D03*
D15*
X278014744Y-235444165D03*
%TD*%
D21*
%TO.C,C9*%
X331867500Y-190223000D03*
X333942500Y-190223000D03*
%TD*%
D14*
%TO.C,SW7*%
X297345000Y-181580000D03*
X290995000Y-184120000D03*
D15*
X299885000Y-186660000D03*
D16*
X294805000Y-186660000D03*
D15*
X289725000Y-186660000D03*
%TD*%
D14*
%TO.C,SW4*%
X354495000Y-160149000D03*
X348145000Y-162689000D03*
D15*
X357035000Y-165229000D03*
D16*
X351955000Y-165229000D03*
D15*
X346875000Y-165229000D03*
%TD*%
D21*
%TO.C,C13*%
X293767500Y-214035000D03*
X295842500Y-214035000D03*
%TD*%
D17*
%TO.C,D54*%
X392655000Y-193611000D03*
D18*
X387455000Y-193611000D03*
D17*
X387455000Y-195111000D03*
X392655000Y-195111000D03*
%TD*%
%TO.C,D57*%
X335505000Y-205523000D03*
D18*
X330305000Y-205523000D03*
D17*
X330305000Y-207023000D03*
X335505000Y-207023000D03*
%TD*%
%TO.C,D46*%
X354555000Y-169792000D03*
D18*
X349355000Y-169792000D03*
D17*
X349355000Y-171292000D03*
X354555000Y-171292000D03*
%TD*%
D14*
%TO.C,SW16*%
X354495000Y-198249000D03*
X348145000Y-200789000D03*
D15*
X357035000Y-203329000D03*
D16*
X351955000Y-203329000D03*
D15*
X346875000Y-203329000D03*
%TD*%
D17*
%TO.C,D49*%
X297405000Y-191235000D03*
D18*
X292205000Y-191235000D03*
D17*
X292205000Y-192735000D03*
X297405000Y-192735000D03*
%TD*%
%TO.C,D52*%
X354555000Y-188854000D03*
D18*
X349355000Y-188854000D03*
D17*
X349355000Y-190354000D03*
X354555000Y-190354000D03*
%TD*%
D21*
%TO.C,C8*%
X312817500Y-192604000D03*
X314892500Y-192604000D03*
%TD*%
D10*
%TO.C,D11*%
X380530000Y-185232000D03*
D11*
X380530000Y-192852000D03*
%TD*%
D14*
%TO.C,SW3*%
X335445000Y-157768000D03*
X329095000Y-160308000D03*
D15*
X337985000Y-162848000D03*
D16*
X332905000Y-162848000D03*
D15*
X327825000Y-162848000D03*
%TD*%
%TO.C,SW21*%
X318300000Y-224760000D03*
D16*
X323380000Y-224760000D03*
D15*
X328460000Y-224760000D03*
D14*
X319570000Y-222220000D03*
X325920000Y-219680000D03*
%TD*%
D17*
%TO.C,D60*%
X392655000Y-212691000D03*
D18*
X387455000Y-212691000D03*
D17*
X387455000Y-214191000D03*
X392655000Y-214191000D03*
%TD*%
D10*
%TO.C,D2*%
X323380000Y-161419000D03*
D11*
X323380000Y-169039000D03*
%TD*%
D21*
%TO.C,C17*%
X369967500Y-216417000D03*
X372042500Y-216417000D03*
%TD*%
D10*
%TO.C,D7*%
X304330000Y-182865000D03*
D11*
X304330000Y-190485000D03*
%TD*%
D30*
%TO.C,C20*%
X305261061Y-234921703D03*
X303230939Y-235350923D03*
%TD*%
D21*
%TO.C,C16*%
X350917500Y-211654000D03*
X352992500Y-211654000D03*
%TD*%
D10*
%TO.C,D4*%
X361480000Y-161419000D03*
D11*
X361480000Y-169039000D03*
%TD*%
D21*
%TO.C,C3*%
X331867500Y-171173000D03*
X333942500Y-171173000D03*
%TD*%
D17*
%TO.C,D55*%
X297405000Y-210285000D03*
D18*
X292205000Y-210285000D03*
D17*
X292205000Y-211785000D03*
X297405000Y-211785000D03*
%TD*%
%TO.C,D59*%
X373605000Y-212667000D03*
D18*
X368405000Y-212667000D03*
D17*
X368405000Y-214167000D03*
X373605000Y-214167000D03*
%TD*%
%TO.C,D58*%
X354555000Y-207904000D03*
D18*
X349355000Y-207904000D03*
D17*
X349355000Y-209404000D03*
X354555000Y-209404000D03*
%TD*%
D21*
%TO.C,C1*%
X293767500Y-175660000D03*
X295842500Y-175660000D03*
%TD*%
D28*
%TO.C,R3*%
X285945000Y-219860000D03*
D29*
X278325000Y-219860000D03*
%TD*%
D10*
%TO.C,D1*%
X304330000Y-163800000D03*
D11*
X304330000Y-171420000D03*
%TD*%
D14*
%TO.C,SW8*%
X316395000Y-179199000D03*
X310045000Y-181739000D03*
D15*
X318935000Y-184279000D03*
D16*
X313855000Y-184279000D03*
D15*
X308775000Y-184279000D03*
%TD*%
D21*
%TO.C,C5*%
X369967500Y-178279000D03*
X372042500Y-178279000D03*
%TD*%
D31*
%TO.C,J1*%
X268844373Y-225670000D03*
D32*
X272623407Y-223883578D03*
D31*
X265151865Y-217858791D03*
D32*
X268930899Y-216072369D03*
D33*
X271560225Y-222804438D03*
X269090006Y-217578884D03*
%TD*%
D17*
%TO.C,D44*%
X316505000Y-169830000D03*
D18*
X311305000Y-169830000D03*
D17*
X311305000Y-171330000D03*
X316505000Y-171330000D03*
%TD*%
%TO.C,D56*%
X316455000Y-207904000D03*
D18*
X311255000Y-207904000D03*
D17*
X311255000Y-209404000D03*
X316455000Y-209404000D03*
%TD*%
D10*
%TO.C,D14*%
X323380000Y-199519000D03*
D11*
X323380000Y-207139000D03*
%TD*%
D14*
%TO.C,SW9*%
X335445000Y-176818000D03*
X329095000Y-179358000D03*
D15*
X337985000Y-181898000D03*
D16*
X332905000Y-181898000D03*
D15*
X327825000Y-181898000D03*
%TD*%
D17*
%TO.C,D53*%
X373605000Y-193617000D03*
D18*
X368405000Y-193617000D03*
D17*
X368405000Y-195117000D03*
X373605000Y-195117000D03*
%TD*%
D21*
%TO.C,C15*%
X331867500Y-209273000D03*
X333942500Y-209273000D03*
%TD*%
D14*
%TO.C,SW17*%
X373545000Y-203012000D03*
X367195000Y-205552000D03*
D15*
X376085000Y-208092000D03*
D16*
X371005000Y-208092000D03*
D15*
X365925000Y-208092000D03*
%TD*%
D34*
%TO.C,D19*%
X289889358Y-226192823D03*
D35*
X292973983Y-233160569D03*
%TD*%
D10*
%TO.C,D16*%
X361480000Y-199519000D03*
D11*
X361480000Y-207139000D03*
%TD*%
D14*
%TO.C,SW15*%
X335445000Y-195868000D03*
X329095000Y-198408000D03*
D15*
X337985000Y-200948000D03*
D16*
X332905000Y-200948000D03*
D15*
X327825000Y-200948000D03*
%TD*%
D21*
%TO.C,C2*%
X312867500Y-173580000D03*
X314942500Y-173580000D03*
%TD*%
%TO.C,C10*%
X350917500Y-192604000D03*
X352992500Y-192604000D03*
%TD*%
%TO.C,C14*%
X312817500Y-211654000D03*
X314892500Y-211654000D03*
%TD*%
D36*
%TO.C,D20*%
X312839721Y-228723755D03*
D37*
X311263240Y-221268615D03*
%TD*%
D21*
%TO.C,C18*%
X389017500Y-216441000D03*
X391092500Y-216441000D03*
%TD*%
D17*
%TO.C,D50*%
X316455000Y-188854000D03*
D18*
X311255000Y-188854000D03*
D17*
X311255000Y-190354000D03*
X316455000Y-190354000D03*
%TD*%
D10*
%TO.C,D21*%
X332905000Y-220965000D03*
D11*
X332905000Y-228585000D03*
%TD*%
D21*
%TO.C,C12*%
X389017500Y-197361000D03*
X391092500Y-197361000D03*
%TD*%
D14*
%TO.C,SW6*%
X392595000Y-164912000D03*
X386245000Y-167452000D03*
D15*
X395135000Y-169992000D03*
D16*
X390055000Y-169992000D03*
D15*
X384975000Y-169992000D03*
%TD*%
D14*
%TO.C,SW14*%
X316395000Y-198249000D03*
X310045000Y-200789000D03*
D15*
X318935000Y-203329000D03*
D16*
X313855000Y-203329000D03*
D15*
X308775000Y-203329000D03*
%TD*%
D10*
%TO.C,D15*%
X342430000Y-197138000D03*
D11*
X342430000Y-204758000D03*
%TD*%
D10*
%TO.C,D8*%
X323380000Y-180469000D03*
D11*
X323380000Y-188089000D03*
%TD*%
D28*
%TO.C,R4*%
X285945000Y-216710000D03*
D29*
X278325000Y-216710000D03*
%TD*%
D10*
%TO.C,D18*%
X399580000Y-204282000D03*
D11*
X399580000Y-211902000D03*
%TD*%
D10*
%TO.C,D5*%
X380530000Y-166182000D03*
D11*
X380530000Y-173802000D03*
%TD*%
D14*
%TO.C,SW12*%
X392595000Y-183962000D03*
X386245000Y-186502000D03*
D15*
X395135000Y-189042000D03*
D16*
X390055000Y-189042000D03*
D15*
X384975000Y-189042000D03*
%TD*%
D14*
%TO.C,SW1*%
X297345000Y-162530000D03*
X290995000Y-165070000D03*
D15*
X299885000Y-167610000D03*
D16*
X294805000Y-167610000D03*
D15*
X289725000Y-167610000D03*
%TD*%
D21*
%TO.C,C4*%
X350917500Y-173542000D03*
X352992500Y-173542000D03*
%TD*%
D17*
%TO.C,D43*%
X297405000Y-172160000D03*
D18*
X292205000Y-172160000D03*
D17*
X292205000Y-173660000D03*
X297405000Y-173660000D03*
%TD*%
D10*
%TO.C,D17*%
X380530000Y-204282000D03*
D11*
X380530000Y-211902000D03*
%TD*%
D17*
%TO.C,D45*%
X335505000Y-167423000D03*
D18*
X330305000Y-167423000D03*
D17*
X330305000Y-168923000D03*
X335505000Y-168923000D03*
%TD*%
D10*
%TO.C,D9*%
X342430000Y-178088000D03*
D11*
X342430000Y-185708000D03*
%TD*%
M02*
