%TF.GenerationSoftware,KiCad,Pcbnew,8.0.8*%
%TF.CreationDate,2025-03-11T20:04:36-04:00*%
%TF.ProjectId,Keyboard,4b657962-6f61-4726-942e-6b696361645f,rev?*%
%TF.SameCoordinates,Original*%
%TF.FileFunction,Legend,Bot*%
%TF.FilePolarity,Positive*%
%FSLAX46Y46*%
G04 Gerber Fmt 4.6, Leading zero omitted, Abs format (unit mm)*
G04 Created by KiCad (PCBNEW 8.0.8) date 2025-03-11 20:04:36*
%MOMM*%
%LPD*%
G01*
G04 APERTURE LIST*
%ADD10C,0.120000*%
%ADD11C,0.100000*%
G04 APERTURE END LIST*
D10*
%TO.C,D12*%
X399580000Y-186922000D02*
X399580000Y-186272000D01*
X400700000Y-186922000D02*
X398460000Y-186922000D01*
X400700000Y-191162000D02*
X400700000Y-186922000D01*
X398460000Y-190322000D02*
X400700000Y-190322000D01*
X398460000Y-190442000D02*
X400700000Y-190442000D01*
X398460000Y-190562000D02*
X400700000Y-190562000D01*
X398460000Y-186922000D02*
X398460000Y-191162000D01*
X398460000Y-191162000D02*
X400700000Y-191162000D01*
X399580000Y-191162000D02*
X399580000Y-191812000D01*
D11*
%TO.C,D23*%
X301182987Y-231286669D02*
X300595964Y-231410781D01*
X301058875Y-230699646D01*
X301182987Y-231286669D01*
G36*
X301182987Y-231286669D02*
G01*
X300595964Y-231410781D01*
X301058875Y-230699646D01*
X301182987Y-231286669D01*
G37*
%TO.C,D51*%
X330705000Y-185823000D02*
X330105000Y-185823000D01*
X330705000Y-185223000D01*
X330705000Y-185823000D01*
G36*
X330705000Y-185823000D02*
G01*
X330105000Y-185823000D01*
X330705000Y-185223000D01*
X330705000Y-185823000D01*
G37*
%TO.C,D22*%
X282153256Y-237887106D02*
X281604614Y-238129990D01*
X281910372Y-237338464D01*
X282153256Y-237887106D01*
G36*
X282153256Y-237887106D02*
G01*
X281604614Y-238129990D01*
X281910372Y-237338464D01*
X282153256Y-237887106D01*
G37*
D10*
%TO.C,C11*%
X370743748Y-198102000D02*
X371266252Y-198102000D01*
X370743748Y-196632000D02*
X371266252Y-196632000D01*
%TO.C,C19*%
X286004313Y-241797537D02*
X286482092Y-241586024D01*
X285409248Y-240453366D02*
X285887027Y-240241853D01*
%TO.C,D13*%
X304330000Y-203590000D02*
X304330000Y-202940000D01*
X305450000Y-203590000D02*
X303210000Y-203590000D01*
X305450000Y-207830000D02*
X305450000Y-203590000D01*
X303210000Y-206990000D02*
X305450000Y-206990000D01*
X303210000Y-207110000D02*
X305450000Y-207110000D01*
X303210000Y-207230000D02*
X305450000Y-207230000D01*
X303210000Y-203590000D02*
X303210000Y-207830000D01*
X303210000Y-207830000D02*
X305450000Y-207830000D01*
X304330000Y-207830000D02*
X304330000Y-208480000D01*
%TO.C,D3*%
X342430000Y-160728000D02*
X342430000Y-160078000D01*
X343550000Y-160728000D02*
X341310000Y-160728000D01*
X343550000Y-164968000D02*
X343550000Y-160728000D01*
X341310000Y-164128000D02*
X343550000Y-164128000D01*
X341310000Y-164248000D02*
X343550000Y-164248000D01*
X341310000Y-164368000D02*
X343550000Y-164368000D01*
X341310000Y-160728000D02*
X341310000Y-164968000D01*
X341310000Y-164968000D02*
X343550000Y-164968000D01*
X342430000Y-164968000D02*
X342430000Y-165618000D01*
D11*
%TO.C,D48*%
X387855000Y-173866000D02*
X387255000Y-173866000D01*
X387855000Y-173266000D01*
X387855000Y-173866000D01*
G36*
X387855000Y-173866000D02*
G01*
X387255000Y-173866000D01*
X387855000Y-173266000D01*
X387855000Y-173866000D01*
G37*
D10*
%TO.C,D10*%
X361480000Y-182159000D02*
X361480000Y-181509000D01*
X362600000Y-182159000D02*
X360360000Y-182159000D01*
X362600000Y-186399000D02*
X362600000Y-182159000D01*
X360360000Y-185559000D02*
X362600000Y-185559000D01*
X360360000Y-185679000D02*
X362600000Y-185679000D01*
X360360000Y-185799000D02*
X362600000Y-185799000D01*
X360360000Y-182159000D02*
X360360000Y-186399000D01*
X360360000Y-186399000D02*
X362600000Y-186399000D01*
X361480000Y-186399000D02*
X361480000Y-187049000D01*
%TO.C,C21*%
X323118748Y-233820000D02*
X323641252Y-233820000D01*
X323118748Y-232350000D02*
X323641252Y-232350000D01*
D11*
%TO.C,D24*%
X321180000Y-228685000D02*
X320580000Y-228685000D01*
X321180000Y-228085000D01*
X321180000Y-228685000D01*
G36*
X321180000Y-228685000D02*
G01*
X320580000Y-228685000D01*
X321180000Y-228085000D01*
X321180000Y-228685000D01*
G37*
D10*
%TO.C,U1*%
X269105000Y-212160000D02*
X262305000Y-212160000D01*
X262305000Y-209760000D02*
X262305000Y-209360000D01*
X262305000Y-207160000D02*
X262305000Y-206760000D01*
X262305000Y-204660000D02*
X262305000Y-204260000D01*
X262305000Y-202160000D02*
X262305000Y-201760000D01*
X262305000Y-199560000D02*
X262305000Y-199160000D01*
X262305000Y-197060000D02*
X262305000Y-196660000D01*
X262305000Y-194460000D02*
X262305000Y-194060000D01*
X262305000Y-191960000D02*
X262305000Y-191560000D01*
X262305000Y-189360000D02*
X262305000Y-188960000D01*
X262305000Y-186860000D02*
X262305000Y-186460000D01*
X262305000Y-184360000D02*
X262305000Y-183960000D01*
X262305000Y-181760000D02*
X262305000Y-181360000D01*
X262305000Y-179260000D02*
X262305000Y-178860000D01*
X262305000Y-176660000D02*
X262305000Y-176260000D01*
X262305000Y-174160000D02*
X262305000Y-173760000D01*
X262305000Y-171660000D02*
X262305000Y-171260000D01*
X262305000Y-169060000D02*
X262305000Y-168660000D01*
X262305000Y-166560000D02*
X262305000Y-166160000D01*
X262305000Y-163960000D02*
X262305000Y-163560000D01*
X262305000Y-161460000D02*
X262305000Y-161160000D01*
X271305000Y-212160000D02*
X271705000Y-212160000D01*
X273905000Y-212160000D02*
X274305000Y-212160000D01*
X283305000Y-212160000D02*
X276505000Y-212160000D01*
X280298000Y-161160000D02*
X280298000Y-163827000D01*
X283305000Y-209760000D02*
X283305000Y-209360000D01*
X283305000Y-207160000D02*
X283305000Y-206760000D01*
X283305000Y-204660000D02*
X283305000Y-204260000D01*
X283305000Y-202160000D02*
X283305000Y-201760000D01*
X283305000Y-199560000D02*
X283305000Y-199160000D01*
X283305000Y-197060000D02*
X283305000Y-196660000D01*
X283305000Y-194460000D02*
X283305000Y-194060000D01*
X283305000Y-191960000D02*
X283305000Y-191560000D01*
X283305000Y-189360000D02*
X283305000Y-188960000D01*
X283305000Y-186860000D02*
X283305000Y-186460000D01*
X283305000Y-184360000D02*
X283305000Y-183960000D01*
X283305000Y-181760000D02*
X283305000Y-181360000D01*
X283305000Y-179260000D02*
X283305000Y-178860000D01*
X283305000Y-176660000D02*
X283305000Y-176260000D01*
X283305000Y-174160000D02*
X283305000Y-173760000D01*
X283305000Y-171660000D02*
X283305000Y-171260000D01*
X283305000Y-169060000D02*
X283305000Y-168660000D01*
X283305000Y-166560000D02*
X283305000Y-166160000D01*
X280298000Y-163827000D02*
X283305000Y-163827000D01*
X283305000Y-163960000D02*
X283305000Y-163560000D01*
X262305000Y-161160000D02*
X283305000Y-161160000D01*
X283305000Y-161460000D02*
X283305000Y-161160000D01*
%TO.C,C6*%
X389793748Y-179001000D02*
X390316252Y-179001000D01*
X389793748Y-177531000D02*
X390316252Y-177531000D01*
D11*
%TO.C,D47*%
X368805000Y-173879000D02*
X368205000Y-173879000D01*
X368805000Y-173279000D01*
X368805000Y-173879000D01*
G36*
X368805000Y-173879000D02*
G01*
X368205000Y-173879000D01*
X368805000Y-173279000D01*
X368805000Y-173879000D01*
G37*
D10*
%TO.C,C7*%
X294543748Y-195720000D02*
X295066252Y-195720000D01*
X294543748Y-194250000D02*
X295066252Y-194250000D01*
%TO.C,D6*%
X399580000Y-167872000D02*
X399580000Y-167222000D01*
X400700000Y-167872000D02*
X398460000Y-167872000D01*
X400700000Y-172112000D02*
X400700000Y-167872000D01*
X398460000Y-171272000D02*
X400700000Y-171272000D01*
X398460000Y-171392000D02*
X400700000Y-171392000D01*
X398460000Y-171512000D02*
X400700000Y-171512000D01*
X398460000Y-167872000D02*
X398460000Y-172112000D01*
X398460000Y-172112000D02*
X400700000Y-172112000D01*
X399580000Y-172112000D02*
X399580000Y-172762000D01*
%TO.C,C9*%
X332643748Y-190958000D02*
X333166252Y-190958000D01*
X332643748Y-189488000D02*
X333166252Y-189488000D01*
%TO.C,C13*%
X294543748Y-214770000D02*
X295066252Y-214770000D01*
X294543748Y-213300000D02*
X295066252Y-213300000D01*
D11*
%TO.C,D54*%
X387855000Y-192961000D02*
X387255000Y-192961000D01*
X387855000Y-192361000D01*
X387855000Y-192961000D01*
G36*
X387855000Y-192961000D02*
G01*
X387255000Y-192961000D01*
X387855000Y-192361000D01*
X387855000Y-192961000D01*
G37*
%TO.C,D57*%
X330705000Y-204873000D02*
X330105000Y-204873000D01*
X330705000Y-204273000D01*
X330705000Y-204873000D01*
G36*
X330705000Y-204873000D02*
G01*
X330105000Y-204873000D01*
X330705000Y-204273000D01*
X330705000Y-204873000D01*
G37*
%TO.C,D46*%
X349755000Y-169142000D02*
X349155000Y-169142000D01*
X349755000Y-168542000D01*
X349755000Y-169142000D01*
G36*
X349755000Y-169142000D02*
G01*
X349155000Y-169142000D01*
X349755000Y-168542000D01*
X349755000Y-169142000D01*
G37*
%TO.C,D49*%
X292605000Y-190585000D02*
X292005000Y-190585000D01*
X292605000Y-189985000D01*
X292605000Y-190585000D01*
G36*
X292605000Y-190585000D02*
G01*
X292005000Y-190585000D01*
X292605000Y-189985000D01*
X292605000Y-190585000D01*
G37*
%TO.C,D52*%
X349755000Y-188204000D02*
X349155000Y-188204000D01*
X349755000Y-187604000D01*
X349755000Y-188204000D01*
G36*
X349755000Y-188204000D02*
G01*
X349155000Y-188204000D01*
X349755000Y-187604000D01*
X349755000Y-188204000D01*
G37*
D10*
%TO.C,C8*%
X313593748Y-193339000D02*
X314116252Y-193339000D01*
X313593748Y-191869000D02*
X314116252Y-191869000D01*
%TO.C,D11*%
X380530000Y-186922000D02*
X380530000Y-186272000D01*
X381650000Y-186922000D02*
X379410000Y-186922000D01*
X381650000Y-191162000D02*
X381650000Y-186922000D01*
X379410000Y-190322000D02*
X381650000Y-190322000D01*
X379410000Y-190442000D02*
X381650000Y-190442000D01*
X379410000Y-190562000D02*
X381650000Y-190562000D01*
X379410000Y-186922000D02*
X379410000Y-191162000D01*
X379410000Y-191162000D02*
X381650000Y-191162000D01*
X380530000Y-191162000D02*
X380530000Y-191812000D01*
D11*
%TO.C,D60*%
X387855000Y-212041000D02*
X387255000Y-212041000D01*
X387855000Y-211441000D01*
X387855000Y-212041000D01*
G36*
X387855000Y-212041000D02*
G01*
X387255000Y-212041000D01*
X387855000Y-211441000D01*
X387855000Y-212041000D01*
G37*
D10*
%TO.C,D2*%
X323380000Y-163109000D02*
X323380000Y-162459000D01*
X324500000Y-163109000D02*
X322260000Y-163109000D01*
X324500000Y-167349000D02*
X324500000Y-163109000D01*
X322260000Y-166509000D02*
X324500000Y-166509000D01*
X322260000Y-166629000D02*
X324500000Y-166629000D01*
X322260000Y-166749000D02*
X324500000Y-166749000D01*
X322260000Y-163109000D02*
X322260000Y-167349000D01*
X322260000Y-167349000D02*
X324500000Y-167349000D01*
X323380000Y-167349000D02*
X323380000Y-167999000D01*
%TO.C,C17*%
X370743748Y-217152000D02*
X371266252Y-217152000D01*
X370743748Y-215682000D02*
X371266252Y-215682000D01*
%TO.C,D7*%
X304330000Y-184555000D02*
X304330000Y-183905000D01*
X305450000Y-184555000D02*
X303210000Y-184555000D01*
X305450000Y-188795000D02*
X305450000Y-184555000D01*
X303210000Y-187955000D02*
X305450000Y-187955000D01*
X303210000Y-188075000D02*
X305450000Y-188075000D01*
X303210000Y-188195000D02*
X305450000Y-188195000D01*
X303210000Y-184555000D02*
X303210000Y-188795000D01*
X303210000Y-188795000D02*
X305450000Y-188795000D01*
X304330000Y-188795000D02*
X304330000Y-189445000D01*
%TO.C,C20*%
X303838361Y-234471250D02*
X304349565Y-234363169D01*
X304142435Y-235909457D02*
X304653639Y-235801376D01*
%TO.C,C16*%
X351693748Y-212389000D02*
X352216252Y-212389000D01*
X351693748Y-210919000D02*
X352216252Y-210919000D01*
%TO.C,D4*%
X361480000Y-163109000D02*
X361480000Y-162459000D01*
X362600000Y-163109000D02*
X360360000Y-163109000D01*
X362600000Y-167349000D02*
X362600000Y-163109000D01*
X360360000Y-166509000D02*
X362600000Y-166509000D01*
X360360000Y-166629000D02*
X362600000Y-166629000D01*
X360360000Y-166749000D02*
X362600000Y-166749000D01*
X360360000Y-163109000D02*
X360360000Y-167349000D01*
X360360000Y-167349000D02*
X362600000Y-167349000D01*
X361480000Y-167349000D02*
X361480000Y-167999000D01*
%TO.C,C3*%
X332643748Y-171908000D02*
X333166252Y-171908000D01*
X332643748Y-170438000D02*
X333166252Y-170438000D01*
D11*
%TO.C,D55*%
X292605000Y-209635000D02*
X292005000Y-209635000D01*
X292605000Y-209035000D01*
X292605000Y-209635000D01*
G36*
X292605000Y-209635000D02*
G01*
X292005000Y-209635000D01*
X292605000Y-209035000D01*
X292605000Y-209635000D01*
G37*
%TO.C,D59*%
X368805000Y-212017000D02*
X368205000Y-212017000D01*
X368805000Y-211417000D01*
X368805000Y-212017000D01*
G36*
X368805000Y-212017000D02*
G01*
X368205000Y-212017000D01*
X368805000Y-211417000D01*
X368805000Y-212017000D01*
G37*
%TO.C,D58*%
X349755000Y-207254000D02*
X349155000Y-207254000D01*
X349755000Y-206654000D01*
X349755000Y-207254000D01*
G36*
X349755000Y-207254000D02*
G01*
X349155000Y-207254000D01*
X349755000Y-206654000D01*
X349755000Y-207254000D01*
G37*
D10*
%TO.C,C1*%
X294543748Y-176395000D02*
X295066252Y-176395000D01*
X294543748Y-174925000D02*
X295066252Y-174925000D01*
%TO.C,R3*%
X284055000Y-219860000D02*
X285005000Y-219860000D01*
X284055000Y-220780000D02*
X284055000Y-218940000D01*
X280215000Y-220780000D02*
X284055000Y-220780000D01*
X284055000Y-218940000D02*
X280215000Y-218940000D01*
X280215000Y-218940000D02*
X280215000Y-220780000D01*
X280215000Y-219860000D02*
X279265000Y-219860000D01*
%TO.C,D1*%
X304330000Y-165490000D02*
X304330000Y-164840000D01*
X305450000Y-165490000D02*
X303210000Y-165490000D01*
X305450000Y-169730000D02*
X305450000Y-165490000D01*
X303210000Y-168890000D02*
X305450000Y-168890000D01*
X303210000Y-169010000D02*
X305450000Y-169010000D01*
X303210000Y-169130000D02*
X305450000Y-169130000D01*
X303210000Y-165490000D02*
X303210000Y-169730000D01*
X303210000Y-169730000D02*
X305450000Y-169730000D01*
X304330000Y-169730000D02*
X304330000Y-170380000D01*
%TO.C,C5*%
X370743748Y-179014000D02*
X371266252Y-179014000D01*
X370743748Y-177544000D02*
X371266252Y-177544000D01*
D11*
%TO.C,D44*%
X311705000Y-169180000D02*
X311105000Y-169180000D01*
X311705000Y-168580000D01*
X311705000Y-169180000D01*
G36*
X311705000Y-169180000D02*
G01*
X311105000Y-169180000D01*
X311705000Y-168580000D01*
X311705000Y-169180000D01*
G37*
%TO.C,D56*%
X311655000Y-207254000D02*
X311055000Y-207254000D01*
X311655000Y-206654000D01*
X311655000Y-207254000D01*
G36*
X311655000Y-207254000D02*
G01*
X311055000Y-207254000D01*
X311655000Y-206654000D01*
X311655000Y-207254000D01*
G37*
D10*
%TO.C,D14*%
X323380000Y-201209000D02*
X323380000Y-200559000D01*
X324500000Y-201209000D02*
X322260000Y-201209000D01*
X324500000Y-205449000D02*
X324500000Y-201209000D01*
X322260000Y-204609000D02*
X324500000Y-204609000D01*
X322260000Y-204729000D02*
X324500000Y-204729000D01*
X322260000Y-204849000D02*
X324500000Y-204849000D01*
X322260000Y-201209000D02*
X322260000Y-205449000D01*
X322260000Y-205449000D02*
X324500000Y-205449000D01*
X323380000Y-205449000D02*
X323380000Y-206099000D01*
D11*
%TO.C,D53*%
X368805000Y-192967000D02*
X368205000Y-192967000D01*
X368805000Y-192367000D01*
X368805000Y-192967000D01*
G36*
X368805000Y-192967000D02*
G01*
X368205000Y-192967000D01*
X368805000Y-192367000D01*
X368805000Y-192967000D01*
G37*
D10*
%TO.C,C15*%
X332643748Y-210008000D02*
X333166252Y-210008000D01*
X332643748Y-208538000D02*
X333166252Y-208538000D01*
%TO.C,D19*%
X290573481Y-227738163D02*
X290310356Y-227143801D01*
X291597611Y-227284780D02*
X289549350Y-228191546D01*
X293313991Y-231161846D02*
X291597611Y-227284780D01*
X290925692Y-231300514D02*
X292973953Y-230393748D01*
X290974269Y-231410242D02*
X293022530Y-230503476D01*
X291022846Y-231519971D02*
X293071107Y-230613204D01*
X289549350Y-228191546D02*
X291265729Y-232068612D01*
X291265729Y-232068612D02*
X293313991Y-231161846D01*
X292289860Y-231615229D02*
X292552984Y-232209591D01*
%TO.C,D16*%
X361480000Y-201209000D02*
X361480000Y-200559000D01*
X362600000Y-201209000D02*
X360360000Y-201209000D01*
X362600000Y-205449000D02*
X362600000Y-201209000D01*
X360360000Y-204609000D02*
X362600000Y-204609000D01*
X360360000Y-204729000D02*
X362600000Y-204729000D01*
X360360000Y-204849000D02*
X362600000Y-204849000D01*
X360360000Y-201209000D02*
X360360000Y-205449000D01*
X360360000Y-205449000D02*
X362600000Y-205449000D01*
X361480000Y-205449000D02*
X361480000Y-206099000D01*
%TO.C,C2*%
X313643748Y-174315000D02*
X314166252Y-174315000D01*
X313643748Y-172845000D02*
X314166252Y-172845000D01*
%TO.C,C10*%
X351693748Y-193339000D02*
X352216252Y-193339000D01*
X351693748Y-191869000D02*
X352216252Y-191869000D01*
%TO.C,C14*%
X313593748Y-212389000D02*
X314116252Y-212389000D01*
X313593748Y-210919000D02*
X314116252Y-210919000D01*
%TO.C,D20*%
X312490082Y-227070319D02*
X312624558Y-227706256D01*
X311394313Y-227302032D02*
X313585850Y-226838605D01*
X310517111Y-223153766D02*
X311394313Y-227302032D01*
X311270181Y-226715013D02*
X313461718Y-226251586D01*
X311245354Y-226597610D02*
X313436891Y-226134182D01*
X311220528Y-226480206D02*
X313412065Y-226016778D01*
X313585850Y-226838605D02*
X312708648Y-222690338D01*
X312708648Y-222690338D02*
X310517111Y-223153766D01*
X311612880Y-222922052D02*
X311478403Y-222286115D01*
%TO.C,C18*%
X389793748Y-217176000D02*
X390316252Y-217176000D01*
X389793748Y-215706000D02*
X390316252Y-215706000D01*
D11*
%TO.C,D50*%
X311655000Y-188204000D02*
X311055000Y-188204000D01*
X311655000Y-187604000D01*
X311655000Y-188204000D01*
G36*
X311655000Y-188204000D02*
G01*
X311055000Y-188204000D01*
X311655000Y-187604000D01*
X311655000Y-188204000D01*
G37*
D10*
%TO.C,D21*%
X332905000Y-222655000D02*
X332905000Y-222005000D01*
X334025000Y-222655000D02*
X331785000Y-222655000D01*
X334025000Y-226895000D02*
X334025000Y-222655000D01*
X331785000Y-226055000D02*
X334025000Y-226055000D01*
X331785000Y-226175000D02*
X334025000Y-226175000D01*
X331785000Y-226295000D02*
X334025000Y-226295000D01*
X331785000Y-222655000D02*
X331785000Y-226895000D01*
X331785000Y-226895000D02*
X334025000Y-226895000D01*
X332905000Y-226895000D02*
X332905000Y-227545000D01*
%TO.C,C12*%
X389793748Y-198096000D02*
X390316252Y-198096000D01*
X389793748Y-196626000D02*
X390316252Y-196626000D01*
%TO.C,D15*%
X342430000Y-198828000D02*
X342430000Y-198178000D01*
X343550000Y-198828000D02*
X341310000Y-198828000D01*
X343550000Y-203068000D02*
X343550000Y-198828000D01*
X341310000Y-202228000D02*
X343550000Y-202228000D01*
X341310000Y-202348000D02*
X343550000Y-202348000D01*
X341310000Y-202468000D02*
X343550000Y-202468000D01*
X341310000Y-198828000D02*
X341310000Y-203068000D01*
X341310000Y-203068000D02*
X343550000Y-203068000D01*
X342430000Y-203068000D02*
X342430000Y-203718000D01*
%TO.C,D8*%
X323380000Y-182159000D02*
X323380000Y-181509000D01*
X324500000Y-182159000D02*
X322260000Y-182159000D01*
X324500000Y-186399000D02*
X324500000Y-182159000D01*
X322260000Y-185559000D02*
X324500000Y-185559000D01*
X322260000Y-185679000D02*
X324500000Y-185679000D01*
X322260000Y-185799000D02*
X324500000Y-185799000D01*
X322260000Y-182159000D02*
X322260000Y-186399000D01*
X322260000Y-186399000D02*
X324500000Y-186399000D01*
X323380000Y-186399000D02*
X323380000Y-187049000D01*
%TO.C,R4*%
X284055000Y-216710000D02*
X285005000Y-216710000D01*
X284055000Y-217630000D02*
X284055000Y-215790000D01*
X280215000Y-217630000D02*
X284055000Y-217630000D01*
X284055000Y-215790000D02*
X280215000Y-215790000D01*
X280215000Y-215790000D02*
X280215000Y-217630000D01*
X280215000Y-216710000D02*
X279265000Y-216710000D01*
%TO.C,D18*%
X399580000Y-205972000D02*
X399580000Y-205322000D01*
X400700000Y-205972000D02*
X398460000Y-205972000D01*
X400700000Y-210212000D02*
X400700000Y-205972000D01*
X398460000Y-209372000D02*
X400700000Y-209372000D01*
X398460000Y-209492000D02*
X400700000Y-209492000D01*
X398460000Y-209612000D02*
X400700000Y-209612000D01*
X398460000Y-205972000D02*
X398460000Y-210212000D01*
X398460000Y-210212000D02*
X400700000Y-210212000D01*
X399580000Y-210212000D02*
X399580000Y-210862000D01*
%TO.C,D5*%
X380530000Y-167872000D02*
X380530000Y-167222000D01*
X381650000Y-167872000D02*
X379410000Y-167872000D01*
X381650000Y-172112000D02*
X381650000Y-167872000D01*
X379410000Y-171272000D02*
X381650000Y-171272000D01*
X379410000Y-171392000D02*
X381650000Y-171392000D01*
X379410000Y-171512000D02*
X381650000Y-171512000D01*
X379410000Y-167872000D02*
X379410000Y-172112000D01*
X379410000Y-172112000D02*
X381650000Y-172112000D01*
X380530000Y-172112000D02*
X380530000Y-172762000D01*
%TO.C,C4*%
X351693748Y-174277000D02*
X352216252Y-174277000D01*
X351693748Y-172807000D02*
X352216252Y-172807000D01*
D11*
%TO.C,D43*%
X292605000Y-171510000D02*
X292005000Y-171510000D01*
X292605000Y-170910000D01*
X292605000Y-171510000D01*
G36*
X292605000Y-171510000D02*
G01*
X292005000Y-171510000D01*
X292605000Y-170910000D01*
X292605000Y-171510000D01*
G37*
D10*
%TO.C,D17*%
X380530000Y-205972000D02*
X380530000Y-205322000D01*
X381650000Y-205972000D02*
X379410000Y-205972000D01*
X381650000Y-210212000D02*
X381650000Y-205972000D01*
X379410000Y-209372000D02*
X381650000Y-209372000D01*
X379410000Y-209492000D02*
X381650000Y-209492000D01*
X379410000Y-209612000D02*
X381650000Y-209612000D01*
X379410000Y-205972000D02*
X379410000Y-210212000D01*
X379410000Y-210212000D02*
X381650000Y-210212000D01*
X380530000Y-210212000D02*
X380530000Y-210862000D01*
D11*
%TO.C,D45*%
X330705000Y-166773000D02*
X330105000Y-166773000D01*
X330705000Y-166173000D01*
X330705000Y-166773000D01*
G36*
X330705000Y-166773000D02*
G01*
X330105000Y-166773000D01*
X330705000Y-166173000D01*
X330705000Y-166773000D01*
G37*
D10*
%TO.C,D9*%
X342430000Y-179778000D02*
X342430000Y-179128000D01*
X343550000Y-179778000D02*
X341310000Y-179778000D01*
X343550000Y-184018000D02*
X343550000Y-179778000D01*
X341310000Y-183178000D02*
X343550000Y-183178000D01*
X341310000Y-183298000D02*
X343550000Y-183298000D01*
X341310000Y-183418000D02*
X343550000Y-183418000D01*
X341310000Y-179778000D02*
X341310000Y-184018000D01*
X341310000Y-184018000D02*
X343550000Y-184018000D01*
X342430000Y-184018000D02*
X342430000Y-184668000D01*
%TD*%
M02*
