G04 #@! TF.GenerationSoftware,KiCad,Pcbnew,8.0.5*
G04 #@! TF.CreationDate,2024-10-21T21:06:57-07:00*
G04 #@! TF.ProjectId,hackpad,6861636b-7061-4642-9e6b-696361645f70,rev?*
G04 #@! TF.SameCoordinates,Original*
G04 #@! TF.FileFunction,Other,User*
%FSLAX46Y46*%
G04 Gerber Fmt 4.6, Leading zero omitted, Abs format (unit mm)*
G04 Created by KiCad (PCBNEW 8.0.5) date 2024-10-21 21:06:57*
%MOMM*%
%LPD*%
G01*
G04 APERTURE LIST*
%ADD10C,0.050000*%
%ADD11C,0.040000*%
G04 APERTURE END LIST*
D10*
G04 #@! TO.C,SW7*
X251910000Y-144430000D02*
X265110000Y-144430000D01*
X251910000Y-157630000D02*
X251910000Y-144430000D01*
X265110000Y-144430000D02*
X265110000Y-157630000D01*
X265110000Y-157630000D02*
X251910000Y-157630000D01*
G04 #@! TO.C,SW5*
X232910000Y-125350000D02*
X246110000Y-125350000D01*
X232910000Y-138550000D02*
X232910000Y-125350000D01*
X246110000Y-125350000D02*
X246110000Y-138550000D01*
X246110000Y-138550000D02*
X232910000Y-138550000D01*
G04 #@! TO.C,SW2*
X194910000Y-144430000D02*
X208110000Y-144430000D01*
X194910000Y-157630000D02*
X194910000Y-144430000D01*
X208110000Y-144430000D02*
X208110000Y-157630000D01*
X208110000Y-157630000D02*
X194910000Y-157630000D01*
G04 #@! TO.C,SW1*
X194910000Y-125430000D02*
X208110000Y-125430000D01*
X194910000Y-138630000D02*
X194910000Y-125430000D01*
X208110000Y-125430000D02*
X208110000Y-138630000D01*
X208110000Y-138630000D02*
X194910000Y-138630000D01*
G04 #@! TO.C,SW6*
X232910000Y-144430000D02*
X246110000Y-144430000D01*
X232910000Y-157630000D02*
X232910000Y-144430000D01*
X246110000Y-144430000D02*
X246110000Y-157630000D01*
X246110000Y-157630000D02*
X232910000Y-157630000D01*
G04 #@! TO.C,SW3*
X213910000Y-125430000D02*
X227110000Y-125430000D01*
X213910000Y-138630000D02*
X213910000Y-125430000D01*
X227110000Y-125430000D02*
X227110000Y-138630000D01*
X227110000Y-138630000D02*
X213910000Y-138630000D01*
G04 #@! TO.C,SW4*
X213910000Y-144430000D02*
X227110000Y-144430000D01*
X213910000Y-157630000D02*
X213910000Y-144430000D01*
X227110000Y-144430000D02*
X227110000Y-157630000D01*
X227110000Y-157630000D02*
X213910000Y-157630000D01*
G04 #@! TO.C,SW8*
X249550000Y-124850000D02*
X249550000Y-139050000D01*
X249550000Y-124850000D02*
X267050000Y-124850000D01*
X267050000Y-139050000D02*
X249550000Y-139050000D01*
X267050000Y-139050000D02*
X267050000Y-124850000D01*
D11*
G04 #@! TO.C,O1*
X194150000Y-107700000D02*
X194150000Y-119700000D01*
X194150000Y-119700000D02*
X232150000Y-119700000D01*
X232150000Y-107700001D02*
X194150000Y-107700000D01*
X232150000Y-119700000D02*
X232150000Y-107700001D01*
G04 #@! TD*
M02*
