M48
; DRILL file {KiCad 8.0.5} date 2024-10-21T21:06:57-0700
; FORMAT={-:-/ absolute / metric / decimal}
; #@! TF.CreationDate,2024-10-21T21:06:57-07:00
; #@! TF.GenerationSoftware,Kicad,Pcbnew,8.0.5
; #@! TF.FileFunction,Plated,1,2,PTH
FMAT,2
METRIC
; #@! TA.AperFunction,Plated,PTH,ViaDrill
T1C0.300
; #@! TA.AperFunction,Plated,PTH,ComponentDrill
T2C0.800
; #@! TA.AperFunction,Plated,PTH,ComponentDrill
T3C1.000
; #@! TA.AperFunction,Plated,PTH,ComponentDrill
T4C1.500
%
G90
G05
T1
X203.9Y-119.2
X209.9Y-122.55
T2
X199.54Y-140.19
X207.16Y-140.19
X209.85Y-142.88
X209.85Y-150.5
X212.25Y-132.58
X212.25Y-140.2
X212.35Y-142.89
X212.35Y-150.51
X229.95Y-132.68
X229.95Y-140.3
X229.95Y-142.88
X229.95Y-150.5
X257.94Y-140.19
X265.56Y-140.19
X266.9Y-143.05
X266.9Y-150.67
T3
X195.65Y-109.89
X195.65Y-112.43
X195.65Y-114.97
X195.65Y-117.51
X217.29Y-120.383
X219.086Y-118.587
X220.882Y-116.791
X222.678Y-114.995
X224.475Y-113.199
X226.271Y-111.403
X228.067Y-109.607
X228.074Y-131.166
X229.87Y-129.37
X231.666Y-127.574
X233.462Y-125.778
X235.258Y-123.982
X237.054Y-122.186
X238.85Y-120.39
X251.05Y-129.45
X251.05Y-131.95
X251.05Y-134.45
X265.55Y-129.45
X265.55Y-134.45
T4
X197.7Y-129.49
X197.7Y-148.49
X204.05Y-126.95
X204.05Y-145.95
X216.7Y-129.49
X216.7Y-148.49
X223.05Y-126.95
X223.05Y-145.95
X235.7Y-129.41
X235.7Y-148.49
X242.05Y-126.87
X242.05Y-145.95
X254.7Y-148.49
X261.05Y-145.95
T4
G00X257.9Y-126.35
M15
G01X259.2Y-126.35
M16
G05
G00X257.9Y-137.55
M15
G01X259.2Y-137.55
M16
G05
M30
