%TF.GenerationSoftware,KiCad,Pcbnew,8.0.5*%
%TF.CreationDate,2024-10-21T20:43:01-04:00*%
%TF.ProjectId,HackPadCase,4861636b-5061-4644-9361-73652e6b6963,rev?*%
%TF.SameCoordinates,Original*%
%TF.FileFunction,Legend,Top*%
%TF.FilePolarity,Positive*%
%FSLAX46Y46*%
G04 Gerber Fmt 4.6, Leading zero omitted, Abs format (unit mm)*
G04 Created by KiCad (PCBNEW 8.0.5) date 2024-10-21 20:43:01*
%MOMM*%
%LPD*%
G01*
G04 APERTURE LIST*
%ADD10C,0.150000*%
%ADD11C,0.101600*%
%ADD12C,0.120000*%
%ADD13C,0.127000*%
%ADD14C,0.254000*%
%ADD15C,0.025400*%
%ADD16C,0.250000*%
G04 APERTURE END LIST*
D10*
X129356667Y-63193200D02*
X129499524Y-63240819D01*
X129499524Y-63240819D02*
X129737619Y-63240819D01*
X129737619Y-63240819D02*
X129832857Y-63193200D01*
X129832857Y-63193200D02*
X129880476Y-63145580D01*
X129880476Y-63145580D02*
X129928095Y-63050342D01*
X129928095Y-63050342D02*
X129928095Y-62955104D01*
X129928095Y-62955104D02*
X129880476Y-62859866D01*
X129880476Y-62859866D02*
X129832857Y-62812247D01*
X129832857Y-62812247D02*
X129737619Y-62764628D01*
X129737619Y-62764628D02*
X129547143Y-62717009D01*
X129547143Y-62717009D02*
X129451905Y-62669390D01*
X129451905Y-62669390D02*
X129404286Y-62621771D01*
X129404286Y-62621771D02*
X129356667Y-62526533D01*
X129356667Y-62526533D02*
X129356667Y-62431295D01*
X129356667Y-62431295D02*
X129404286Y-62336057D01*
X129404286Y-62336057D02*
X129451905Y-62288438D01*
X129451905Y-62288438D02*
X129547143Y-62240819D01*
X129547143Y-62240819D02*
X129785238Y-62240819D01*
X129785238Y-62240819D02*
X129928095Y-62288438D01*
X130261429Y-62240819D02*
X130499524Y-63240819D01*
X130499524Y-63240819D02*
X130690000Y-62526533D01*
X130690000Y-62526533D02*
X130880476Y-63240819D01*
X130880476Y-63240819D02*
X131118572Y-62240819D01*
X132023333Y-63240819D02*
X131451905Y-63240819D01*
X131737619Y-63240819D02*
X131737619Y-62240819D01*
X131737619Y-62240819D02*
X131642381Y-62383676D01*
X131642381Y-62383676D02*
X131547143Y-62478914D01*
X131547143Y-62478914D02*
X131451905Y-62526533D01*
X138799819Y-70143094D02*
X137799819Y-70143094D01*
X137799819Y-70143094D02*
X137799819Y-69904999D01*
X137799819Y-69904999D02*
X137847438Y-69762142D01*
X137847438Y-69762142D02*
X137942676Y-69666904D01*
X137942676Y-69666904D02*
X138037914Y-69619285D01*
X138037914Y-69619285D02*
X138228390Y-69571666D01*
X138228390Y-69571666D02*
X138371247Y-69571666D01*
X138371247Y-69571666D02*
X138561723Y-69619285D01*
X138561723Y-69619285D02*
X138656961Y-69666904D01*
X138656961Y-69666904D02*
X138752200Y-69762142D01*
X138752200Y-69762142D02*
X138799819Y-69904999D01*
X138799819Y-69904999D02*
X138799819Y-70143094D01*
X137799819Y-69238332D02*
X137799819Y-68619285D01*
X137799819Y-68619285D02*
X138180771Y-68952618D01*
X138180771Y-68952618D02*
X138180771Y-68809761D01*
X138180771Y-68809761D02*
X138228390Y-68714523D01*
X138228390Y-68714523D02*
X138276009Y-68666904D01*
X138276009Y-68666904D02*
X138371247Y-68619285D01*
X138371247Y-68619285D02*
X138609342Y-68619285D01*
X138609342Y-68619285D02*
X138704580Y-68666904D01*
X138704580Y-68666904D02*
X138752200Y-68714523D01*
X138752200Y-68714523D02*
X138799819Y-68809761D01*
X138799819Y-68809761D02*
X138799819Y-69095475D01*
X138799819Y-69095475D02*
X138752200Y-69190713D01*
X138752200Y-69190713D02*
X138704580Y-69238332D01*
X139119819Y-73476904D02*
X138119819Y-73476904D01*
X139119819Y-72905476D02*
X138548390Y-73334047D01*
X138119819Y-72905476D02*
X138691247Y-73476904D01*
X167456667Y-82243200D02*
X167599524Y-82290819D01*
X167599524Y-82290819D02*
X167837619Y-82290819D01*
X167837619Y-82290819D02*
X167932857Y-82243200D01*
X167932857Y-82243200D02*
X167980476Y-82195580D01*
X167980476Y-82195580D02*
X168028095Y-82100342D01*
X168028095Y-82100342D02*
X168028095Y-82005104D01*
X168028095Y-82005104D02*
X167980476Y-81909866D01*
X167980476Y-81909866D02*
X167932857Y-81862247D01*
X167932857Y-81862247D02*
X167837619Y-81814628D01*
X167837619Y-81814628D02*
X167647143Y-81767009D01*
X167647143Y-81767009D02*
X167551905Y-81719390D01*
X167551905Y-81719390D02*
X167504286Y-81671771D01*
X167504286Y-81671771D02*
X167456667Y-81576533D01*
X167456667Y-81576533D02*
X167456667Y-81481295D01*
X167456667Y-81481295D02*
X167504286Y-81386057D01*
X167504286Y-81386057D02*
X167551905Y-81338438D01*
X167551905Y-81338438D02*
X167647143Y-81290819D01*
X167647143Y-81290819D02*
X167885238Y-81290819D01*
X167885238Y-81290819D02*
X168028095Y-81338438D01*
X168361429Y-81290819D02*
X168599524Y-82290819D01*
X168599524Y-82290819D02*
X168790000Y-81576533D01*
X168790000Y-81576533D02*
X168980476Y-82290819D01*
X168980476Y-82290819D02*
X169218572Y-81290819D01*
X170028095Y-81290819D02*
X169837619Y-81290819D01*
X169837619Y-81290819D02*
X169742381Y-81338438D01*
X169742381Y-81338438D02*
X169694762Y-81386057D01*
X169694762Y-81386057D02*
X169599524Y-81528914D01*
X169599524Y-81528914D02*
X169551905Y-81719390D01*
X169551905Y-81719390D02*
X169551905Y-82100342D01*
X169551905Y-82100342D02*
X169599524Y-82195580D01*
X169599524Y-82195580D02*
X169647143Y-82243200D01*
X169647143Y-82243200D02*
X169742381Y-82290819D01*
X169742381Y-82290819D02*
X169932857Y-82290819D01*
X169932857Y-82290819D02*
X170028095Y-82243200D01*
X170028095Y-82243200D02*
X170075714Y-82195580D01*
X170075714Y-82195580D02*
X170123333Y-82100342D01*
X170123333Y-82100342D02*
X170123333Y-81862247D01*
X170123333Y-81862247D02*
X170075714Y-81767009D01*
X170075714Y-81767009D02*
X170028095Y-81719390D01*
X170028095Y-81719390D02*
X169932857Y-81671771D01*
X169932857Y-81671771D02*
X169742381Y-81671771D01*
X169742381Y-81671771D02*
X169647143Y-81719390D01*
X169647143Y-81719390D02*
X169599524Y-81767009D01*
X169599524Y-81767009D02*
X169551905Y-81862247D01*
X148406667Y-63193200D02*
X148549524Y-63240819D01*
X148549524Y-63240819D02*
X148787619Y-63240819D01*
X148787619Y-63240819D02*
X148882857Y-63193200D01*
X148882857Y-63193200D02*
X148930476Y-63145580D01*
X148930476Y-63145580D02*
X148978095Y-63050342D01*
X148978095Y-63050342D02*
X148978095Y-62955104D01*
X148978095Y-62955104D02*
X148930476Y-62859866D01*
X148930476Y-62859866D02*
X148882857Y-62812247D01*
X148882857Y-62812247D02*
X148787619Y-62764628D01*
X148787619Y-62764628D02*
X148597143Y-62717009D01*
X148597143Y-62717009D02*
X148501905Y-62669390D01*
X148501905Y-62669390D02*
X148454286Y-62621771D01*
X148454286Y-62621771D02*
X148406667Y-62526533D01*
X148406667Y-62526533D02*
X148406667Y-62431295D01*
X148406667Y-62431295D02*
X148454286Y-62336057D01*
X148454286Y-62336057D02*
X148501905Y-62288438D01*
X148501905Y-62288438D02*
X148597143Y-62240819D01*
X148597143Y-62240819D02*
X148835238Y-62240819D01*
X148835238Y-62240819D02*
X148978095Y-62288438D01*
X149311429Y-62240819D02*
X149549524Y-63240819D01*
X149549524Y-63240819D02*
X149740000Y-62526533D01*
X149740000Y-62526533D02*
X149930476Y-63240819D01*
X149930476Y-63240819D02*
X150168572Y-62240819D01*
X150454286Y-62240819D02*
X151073333Y-62240819D01*
X151073333Y-62240819D02*
X150740000Y-62621771D01*
X150740000Y-62621771D02*
X150882857Y-62621771D01*
X150882857Y-62621771D02*
X150978095Y-62669390D01*
X150978095Y-62669390D02*
X151025714Y-62717009D01*
X151025714Y-62717009D02*
X151073333Y-62812247D01*
X151073333Y-62812247D02*
X151073333Y-63050342D01*
X151073333Y-63050342D02*
X151025714Y-63145580D01*
X151025714Y-63145580D02*
X150978095Y-63193200D01*
X150978095Y-63193200D02*
X150882857Y-63240819D01*
X150882857Y-63240819D02*
X150597143Y-63240819D01*
X150597143Y-63240819D02*
X150501905Y-63193200D01*
X150501905Y-63193200D02*
X150454286Y-63145580D01*
X199231666Y-58989819D02*
X198898333Y-58513628D01*
X198660238Y-58989819D02*
X198660238Y-57989819D01*
X198660238Y-57989819D02*
X199041190Y-57989819D01*
X199041190Y-57989819D02*
X199136428Y-58037438D01*
X199136428Y-58037438D02*
X199184047Y-58085057D01*
X199184047Y-58085057D02*
X199231666Y-58180295D01*
X199231666Y-58180295D02*
X199231666Y-58323152D01*
X199231666Y-58323152D02*
X199184047Y-58418390D01*
X199184047Y-58418390D02*
X199136428Y-58466009D01*
X199136428Y-58466009D02*
X199041190Y-58513628D01*
X199041190Y-58513628D02*
X198660238Y-58513628D01*
X199660238Y-58466009D02*
X199993571Y-58466009D01*
X200136428Y-58989819D02*
X199660238Y-58989819D01*
X199660238Y-58989819D02*
X199660238Y-57989819D01*
X199660238Y-57989819D02*
X200136428Y-57989819D01*
X200898333Y-58466009D02*
X200565000Y-58466009D01*
X200565000Y-58989819D02*
X200565000Y-57989819D01*
X200565000Y-57989819D02*
X201041190Y-57989819D01*
X201565000Y-57989819D02*
X201565000Y-58227914D01*
X201326905Y-58132676D02*
X201565000Y-58227914D01*
X201565000Y-58227914D02*
X201803095Y-58132676D01*
X201422143Y-58418390D02*
X201565000Y-58227914D01*
X201565000Y-58227914D02*
X201707857Y-58418390D01*
X202326905Y-57989819D02*
X202326905Y-58227914D01*
X202088810Y-58132676D02*
X202326905Y-58227914D01*
X202326905Y-58227914D02*
X202565000Y-58132676D01*
X202184048Y-58418390D02*
X202326905Y-58227914D01*
X202326905Y-58227914D02*
X202469762Y-58418390D01*
D11*
X187661985Y-89837333D02*
X188381652Y-89837333D01*
X188381652Y-89837333D02*
X188466318Y-89795000D01*
X188466318Y-89795000D02*
X188508652Y-89752666D01*
X188508652Y-89752666D02*
X188550985Y-89668000D01*
X188550985Y-89668000D02*
X188550985Y-89498666D01*
X188550985Y-89498666D02*
X188508652Y-89414000D01*
X188508652Y-89414000D02*
X188466318Y-89371666D01*
X188466318Y-89371666D02*
X188381652Y-89329333D01*
X188381652Y-89329333D02*
X187661985Y-89329333D01*
X188550985Y-88440333D02*
X188550985Y-88948333D01*
X188550985Y-88694333D02*
X187661985Y-88694333D01*
X187661985Y-88694333D02*
X187788985Y-88779000D01*
X187788985Y-88779000D02*
X187873652Y-88863667D01*
X187873652Y-88863667D02*
X187915985Y-88948333D01*
D10*
X190730180Y-87636191D02*
X189730180Y-88302857D01*
X190730180Y-88302857D02*
X189730180Y-87636191D01*
X189730180Y-88683810D02*
X190730180Y-88683810D01*
X190015895Y-89112381D02*
X190015895Y-89588571D01*
X189730180Y-89017143D02*
X190730180Y-89350476D01*
X190730180Y-89350476D02*
X189730180Y-89683809D01*
X190730180Y-90207619D02*
X190730180Y-90398095D01*
X190730180Y-90398095D02*
X190682561Y-90493333D01*
X190682561Y-90493333D02*
X190587323Y-90588571D01*
X190587323Y-90588571D02*
X190396847Y-90636190D01*
X190396847Y-90636190D02*
X190063514Y-90636190D01*
X190063514Y-90636190D02*
X189873038Y-90588571D01*
X189873038Y-90588571D02*
X189777800Y-90493333D01*
X189777800Y-90493333D02*
X189730180Y-90398095D01*
X189730180Y-90398095D02*
X189730180Y-90207619D01*
X189730180Y-90207619D02*
X189777800Y-90112381D01*
X189777800Y-90112381D02*
X189873038Y-90017143D01*
X189873038Y-90017143D02*
X190063514Y-89969524D01*
X190063514Y-89969524D02*
X190396847Y-89969524D01*
X190396847Y-89969524D02*
X190587323Y-90017143D01*
X190587323Y-90017143D02*
X190682561Y-90112381D01*
X190682561Y-90112381D02*
X190730180Y-90207619D01*
X191777800Y-84398095D02*
X191730180Y-84540952D01*
X191730180Y-84540952D02*
X191730180Y-84779047D01*
X191730180Y-84779047D02*
X191777800Y-84874285D01*
X191777800Y-84874285D02*
X191825419Y-84921904D01*
X191825419Y-84921904D02*
X191920657Y-84969523D01*
X191920657Y-84969523D02*
X192015895Y-84969523D01*
X192015895Y-84969523D02*
X192111133Y-84921904D01*
X192111133Y-84921904D02*
X192158752Y-84874285D01*
X192158752Y-84874285D02*
X192206371Y-84779047D01*
X192206371Y-84779047D02*
X192253990Y-84588571D01*
X192253990Y-84588571D02*
X192301609Y-84493333D01*
X192301609Y-84493333D02*
X192349228Y-84445714D01*
X192349228Y-84445714D02*
X192444466Y-84398095D01*
X192444466Y-84398095D02*
X192539704Y-84398095D01*
X192539704Y-84398095D02*
X192634942Y-84445714D01*
X192634942Y-84445714D02*
X192682561Y-84493333D01*
X192682561Y-84493333D02*
X192730180Y-84588571D01*
X192730180Y-84588571D02*
X192730180Y-84826666D01*
X192730180Y-84826666D02*
X192682561Y-84969523D01*
X191777800Y-85779047D02*
X191730180Y-85683809D01*
X191730180Y-85683809D02*
X191730180Y-85493333D01*
X191730180Y-85493333D02*
X191777800Y-85398095D01*
X191777800Y-85398095D02*
X191873038Y-85350476D01*
X191873038Y-85350476D02*
X192253990Y-85350476D01*
X192253990Y-85350476D02*
X192349228Y-85398095D01*
X192349228Y-85398095D02*
X192396847Y-85493333D01*
X192396847Y-85493333D02*
X192396847Y-85683809D01*
X192396847Y-85683809D02*
X192349228Y-85779047D01*
X192349228Y-85779047D02*
X192253990Y-85826666D01*
X192253990Y-85826666D02*
X192158752Y-85826666D01*
X192158752Y-85826666D02*
X192063514Y-85350476D01*
X191777800Y-86636190D02*
X191730180Y-86540952D01*
X191730180Y-86540952D02*
X191730180Y-86350476D01*
X191730180Y-86350476D02*
X191777800Y-86255238D01*
X191777800Y-86255238D02*
X191873038Y-86207619D01*
X191873038Y-86207619D02*
X192253990Y-86207619D01*
X192253990Y-86207619D02*
X192349228Y-86255238D01*
X192349228Y-86255238D02*
X192396847Y-86350476D01*
X192396847Y-86350476D02*
X192396847Y-86540952D01*
X192396847Y-86540952D02*
X192349228Y-86636190D01*
X192349228Y-86636190D02*
X192253990Y-86683809D01*
X192253990Y-86683809D02*
X192158752Y-86683809D01*
X192158752Y-86683809D02*
X192063514Y-86207619D01*
X191777800Y-87493333D02*
X191730180Y-87398095D01*
X191730180Y-87398095D02*
X191730180Y-87207619D01*
X191730180Y-87207619D02*
X191777800Y-87112381D01*
X191777800Y-87112381D02*
X191873038Y-87064762D01*
X191873038Y-87064762D02*
X192253990Y-87064762D01*
X192253990Y-87064762D02*
X192349228Y-87112381D01*
X192349228Y-87112381D02*
X192396847Y-87207619D01*
X192396847Y-87207619D02*
X192396847Y-87398095D01*
X192396847Y-87398095D02*
X192349228Y-87493333D01*
X192349228Y-87493333D02*
X192253990Y-87540952D01*
X192253990Y-87540952D02*
X192158752Y-87540952D01*
X192158752Y-87540952D02*
X192063514Y-87064762D01*
X191730180Y-88398095D02*
X192730180Y-88398095D01*
X191777800Y-88398095D02*
X191730180Y-88302857D01*
X191730180Y-88302857D02*
X191730180Y-88112381D01*
X191730180Y-88112381D02*
X191777800Y-88017143D01*
X191777800Y-88017143D02*
X191825419Y-87969524D01*
X191825419Y-87969524D02*
X191920657Y-87921905D01*
X191920657Y-87921905D02*
X192206371Y-87921905D01*
X192206371Y-87921905D02*
X192301609Y-87969524D01*
X192301609Y-87969524D02*
X192349228Y-88017143D01*
X192349228Y-88017143D02*
X192396847Y-88112381D01*
X192396847Y-88112381D02*
X192396847Y-88302857D01*
X192396847Y-88302857D02*
X192349228Y-88398095D01*
X191777800Y-89588572D02*
X191730180Y-89731429D01*
X191730180Y-89731429D02*
X191730180Y-89969524D01*
X191730180Y-89969524D02*
X191777800Y-90064762D01*
X191777800Y-90064762D02*
X191825419Y-90112381D01*
X191825419Y-90112381D02*
X191920657Y-90160000D01*
X191920657Y-90160000D02*
X192015895Y-90160000D01*
X192015895Y-90160000D02*
X192111133Y-90112381D01*
X192111133Y-90112381D02*
X192158752Y-90064762D01*
X192158752Y-90064762D02*
X192206371Y-89969524D01*
X192206371Y-89969524D02*
X192253990Y-89779048D01*
X192253990Y-89779048D02*
X192301609Y-89683810D01*
X192301609Y-89683810D02*
X192349228Y-89636191D01*
X192349228Y-89636191D02*
X192444466Y-89588572D01*
X192444466Y-89588572D02*
X192539704Y-89588572D01*
X192539704Y-89588572D02*
X192634942Y-89636191D01*
X192634942Y-89636191D02*
X192682561Y-89683810D01*
X192682561Y-89683810D02*
X192730180Y-89779048D01*
X192730180Y-89779048D02*
X192730180Y-90017143D01*
X192730180Y-90017143D02*
X192682561Y-90160000D01*
X192396847Y-90445715D02*
X192396847Y-90826667D01*
X192730180Y-90588572D02*
X191873038Y-90588572D01*
X191873038Y-90588572D02*
X191777800Y-90636191D01*
X191777800Y-90636191D02*
X191730180Y-90731429D01*
X191730180Y-90731429D02*
X191730180Y-90826667D01*
X192396847Y-91588572D02*
X191730180Y-91588572D01*
X192396847Y-91160001D02*
X191873038Y-91160001D01*
X191873038Y-91160001D02*
X191777800Y-91207620D01*
X191777800Y-91207620D02*
X191730180Y-91302858D01*
X191730180Y-91302858D02*
X191730180Y-91445715D01*
X191730180Y-91445715D02*
X191777800Y-91540953D01*
X191777800Y-91540953D02*
X191825419Y-91588572D01*
X191730180Y-92493334D02*
X192730180Y-92493334D01*
X191777800Y-92493334D02*
X191730180Y-92398096D01*
X191730180Y-92398096D02*
X191730180Y-92207620D01*
X191730180Y-92207620D02*
X191777800Y-92112382D01*
X191777800Y-92112382D02*
X191825419Y-92064763D01*
X191825419Y-92064763D02*
X191920657Y-92017144D01*
X191920657Y-92017144D02*
X192206371Y-92017144D01*
X192206371Y-92017144D02*
X192301609Y-92064763D01*
X192301609Y-92064763D02*
X192349228Y-92112382D01*
X192349228Y-92112382D02*
X192396847Y-92207620D01*
X192396847Y-92207620D02*
X192396847Y-92398096D01*
X192396847Y-92398096D02*
X192349228Y-92493334D01*
X191730180Y-92969525D02*
X192396847Y-92969525D01*
X192730180Y-92969525D02*
X192682561Y-92921906D01*
X192682561Y-92921906D02*
X192634942Y-92969525D01*
X192634942Y-92969525D02*
X192682561Y-93017144D01*
X192682561Y-93017144D02*
X192730180Y-92969525D01*
X192730180Y-92969525D02*
X192634942Y-92969525D01*
X191730180Y-93588572D02*
X191777800Y-93493334D01*
X191777800Y-93493334D02*
X191825419Y-93445715D01*
X191825419Y-93445715D02*
X191920657Y-93398096D01*
X191920657Y-93398096D02*
X192206371Y-93398096D01*
X192206371Y-93398096D02*
X192301609Y-93445715D01*
X192301609Y-93445715D02*
X192349228Y-93493334D01*
X192349228Y-93493334D02*
X192396847Y-93588572D01*
X192396847Y-93588572D02*
X192396847Y-93731429D01*
X192396847Y-93731429D02*
X192349228Y-93826667D01*
X192349228Y-93826667D02*
X192301609Y-93874286D01*
X192301609Y-93874286D02*
X192206371Y-93921905D01*
X192206371Y-93921905D02*
X191920657Y-93921905D01*
X191920657Y-93921905D02*
X191825419Y-93874286D01*
X191825419Y-93874286D02*
X191777800Y-93826667D01*
X191777800Y-93826667D02*
X191730180Y-93731429D01*
X191730180Y-93731429D02*
X191730180Y-93588572D01*
X129356667Y-82243200D02*
X129499524Y-82290819D01*
X129499524Y-82290819D02*
X129737619Y-82290819D01*
X129737619Y-82290819D02*
X129832857Y-82243200D01*
X129832857Y-82243200D02*
X129880476Y-82195580D01*
X129880476Y-82195580D02*
X129928095Y-82100342D01*
X129928095Y-82100342D02*
X129928095Y-82005104D01*
X129928095Y-82005104D02*
X129880476Y-81909866D01*
X129880476Y-81909866D02*
X129832857Y-81862247D01*
X129832857Y-81862247D02*
X129737619Y-81814628D01*
X129737619Y-81814628D02*
X129547143Y-81767009D01*
X129547143Y-81767009D02*
X129451905Y-81719390D01*
X129451905Y-81719390D02*
X129404286Y-81671771D01*
X129404286Y-81671771D02*
X129356667Y-81576533D01*
X129356667Y-81576533D02*
X129356667Y-81481295D01*
X129356667Y-81481295D02*
X129404286Y-81386057D01*
X129404286Y-81386057D02*
X129451905Y-81338438D01*
X129451905Y-81338438D02*
X129547143Y-81290819D01*
X129547143Y-81290819D02*
X129785238Y-81290819D01*
X129785238Y-81290819D02*
X129928095Y-81338438D01*
X130261429Y-81290819D02*
X130499524Y-82290819D01*
X130499524Y-82290819D02*
X130690000Y-81576533D01*
X130690000Y-81576533D02*
X130880476Y-82290819D01*
X130880476Y-82290819D02*
X131118572Y-81290819D01*
X131451905Y-81386057D02*
X131499524Y-81338438D01*
X131499524Y-81338438D02*
X131594762Y-81290819D01*
X131594762Y-81290819D02*
X131832857Y-81290819D01*
X131832857Y-81290819D02*
X131928095Y-81338438D01*
X131928095Y-81338438D02*
X131975714Y-81386057D01*
X131975714Y-81386057D02*
X132023333Y-81481295D01*
X132023333Y-81481295D02*
X132023333Y-81576533D01*
X132023333Y-81576533D02*
X131975714Y-81719390D01*
X131975714Y-81719390D02*
X131404286Y-82290819D01*
X131404286Y-82290819D02*
X132023333Y-82290819D01*
X183684160Y-63532200D02*
X183827017Y-63579819D01*
X183827017Y-63579819D02*
X184065112Y-63579819D01*
X184065112Y-63579819D02*
X184160350Y-63532200D01*
X184160350Y-63532200D02*
X184207969Y-63484580D01*
X184207969Y-63484580D02*
X184255588Y-63389342D01*
X184255588Y-63389342D02*
X184255588Y-63294104D01*
X184255588Y-63294104D02*
X184207969Y-63198866D01*
X184207969Y-63198866D02*
X184160350Y-63151247D01*
X184160350Y-63151247D02*
X184065112Y-63103628D01*
X184065112Y-63103628D02*
X183874636Y-63056009D01*
X183874636Y-63056009D02*
X183779398Y-63008390D01*
X183779398Y-63008390D02*
X183731779Y-62960771D01*
X183731779Y-62960771D02*
X183684160Y-62865533D01*
X183684160Y-62865533D02*
X183684160Y-62770295D01*
X183684160Y-62770295D02*
X183731779Y-62675057D01*
X183731779Y-62675057D02*
X183779398Y-62627438D01*
X183779398Y-62627438D02*
X183874636Y-62579819D01*
X183874636Y-62579819D02*
X184112731Y-62579819D01*
X184112731Y-62579819D02*
X184255588Y-62627438D01*
X184588922Y-62579819D02*
X184827017Y-63579819D01*
X184827017Y-63579819D02*
X185017493Y-62865533D01*
X185017493Y-62865533D02*
X185207969Y-63579819D01*
X185207969Y-63579819D02*
X185446065Y-62579819D01*
X185731779Y-62579819D02*
X186398445Y-62579819D01*
X186398445Y-62579819D02*
X185969874Y-63579819D01*
X157179819Y-89153094D02*
X156179819Y-89153094D01*
X156179819Y-89153094D02*
X156179819Y-88914999D01*
X156179819Y-88914999D02*
X156227438Y-88772142D01*
X156227438Y-88772142D02*
X156322676Y-88676904D01*
X156322676Y-88676904D02*
X156417914Y-88629285D01*
X156417914Y-88629285D02*
X156608390Y-88581666D01*
X156608390Y-88581666D02*
X156751247Y-88581666D01*
X156751247Y-88581666D02*
X156941723Y-88629285D01*
X156941723Y-88629285D02*
X157036961Y-88676904D01*
X157036961Y-88676904D02*
X157132200Y-88772142D01*
X157132200Y-88772142D02*
X157179819Y-88914999D01*
X157179819Y-88914999D02*
X157179819Y-89153094D01*
X156275057Y-88200713D02*
X156227438Y-88153094D01*
X156227438Y-88153094D02*
X156179819Y-88057856D01*
X156179819Y-88057856D02*
X156179819Y-87819761D01*
X156179819Y-87819761D02*
X156227438Y-87724523D01*
X156227438Y-87724523D02*
X156275057Y-87676904D01*
X156275057Y-87676904D02*
X156370295Y-87629285D01*
X156370295Y-87629285D02*
X156465533Y-87629285D01*
X156465533Y-87629285D02*
X156608390Y-87676904D01*
X156608390Y-87676904D02*
X157179819Y-88248332D01*
X157179819Y-88248332D02*
X157179819Y-87629285D01*
X157499819Y-92486904D02*
X156499819Y-92486904D01*
X157499819Y-91915476D02*
X156928390Y-92344047D01*
X156499819Y-91915476D02*
X157071247Y-92486904D01*
X167456667Y-63193200D02*
X167599524Y-63240819D01*
X167599524Y-63240819D02*
X167837619Y-63240819D01*
X167837619Y-63240819D02*
X167932857Y-63193200D01*
X167932857Y-63193200D02*
X167980476Y-63145580D01*
X167980476Y-63145580D02*
X168028095Y-63050342D01*
X168028095Y-63050342D02*
X168028095Y-62955104D01*
X168028095Y-62955104D02*
X167980476Y-62859866D01*
X167980476Y-62859866D02*
X167932857Y-62812247D01*
X167932857Y-62812247D02*
X167837619Y-62764628D01*
X167837619Y-62764628D02*
X167647143Y-62717009D01*
X167647143Y-62717009D02*
X167551905Y-62669390D01*
X167551905Y-62669390D02*
X167504286Y-62621771D01*
X167504286Y-62621771D02*
X167456667Y-62526533D01*
X167456667Y-62526533D02*
X167456667Y-62431295D01*
X167456667Y-62431295D02*
X167504286Y-62336057D01*
X167504286Y-62336057D02*
X167551905Y-62288438D01*
X167551905Y-62288438D02*
X167647143Y-62240819D01*
X167647143Y-62240819D02*
X167885238Y-62240819D01*
X167885238Y-62240819D02*
X168028095Y-62288438D01*
X168361429Y-62240819D02*
X168599524Y-63240819D01*
X168599524Y-63240819D02*
X168790000Y-62526533D01*
X168790000Y-62526533D02*
X168980476Y-63240819D01*
X168980476Y-63240819D02*
X169218572Y-62240819D01*
X170075714Y-62240819D02*
X169599524Y-62240819D01*
X169599524Y-62240819D02*
X169551905Y-62717009D01*
X169551905Y-62717009D02*
X169599524Y-62669390D01*
X169599524Y-62669390D02*
X169694762Y-62621771D01*
X169694762Y-62621771D02*
X169932857Y-62621771D01*
X169932857Y-62621771D02*
X170028095Y-62669390D01*
X170028095Y-62669390D02*
X170075714Y-62717009D01*
X170075714Y-62717009D02*
X170123333Y-62812247D01*
X170123333Y-62812247D02*
X170123333Y-63050342D01*
X170123333Y-63050342D02*
X170075714Y-63145580D01*
X170075714Y-63145580D02*
X170028095Y-63193200D01*
X170028095Y-63193200D02*
X169932857Y-63240819D01*
X169932857Y-63240819D02*
X169694762Y-63240819D01*
X169694762Y-63240819D02*
X169599524Y-63193200D01*
X169599524Y-63193200D02*
X169551905Y-63145580D01*
X119919819Y-89283094D02*
X118919819Y-89283094D01*
X118919819Y-89283094D02*
X118919819Y-89044999D01*
X118919819Y-89044999D02*
X118967438Y-88902142D01*
X118967438Y-88902142D02*
X119062676Y-88806904D01*
X119062676Y-88806904D02*
X119157914Y-88759285D01*
X119157914Y-88759285D02*
X119348390Y-88711666D01*
X119348390Y-88711666D02*
X119491247Y-88711666D01*
X119491247Y-88711666D02*
X119681723Y-88759285D01*
X119681723Y-88759285D02*
X119776961Y-88806904D01*
X119776961Y-88806904D02*
X119872200Y-88902142D01*
X119872200Y-88902142D02*
X119919819Y-89044999D01*
X119919819Y-89044999D02*
X119919819Y-89283094D01*
X118919819Y-87854523D02*
X118919819Y-88044999D01*
X118919819Y-88044999D02*
X118967438Y-88140237D01*
X118967438Y-88140237D02*
X119015057Y-88187856D01*
X119015057Y-88187856D02*
X119157914Y-88283094D01*
X119157914Y-88283094D02*
X119348390Y-88330713D01*
X119348390Y-88330713D02*
X119729342Y-88330713D01*
X119729342Y-88330713D02*
X119824580Y-88283094D01*
X119824580Y-88283094D02*
X119872200Y-88235475D01*
X119872200Y-88235475D02*
X119919819Y-88140237D01*
X119919819Y-88140237D02*
X119919819Y-87949761D01*
X119919819Y-87949761D02*
X119872200Y-87854523D01*
X119872200Y-87854523D02*
X119824580Y-87806904D01*
X119824580Y-87806904D02*
X119729342Y-87759285D01*
X119729342Y-87759285D02*
X119491247Y-87759285D01*
X119491247Y-87759285D02*
X119396009Y-87806904D01*
X119396009Y-87806904D02*
X119348390Y-87854523D01*
X119348390Y-87854523D02*
X119300771Y-87949761D01*
X119300771Y-87949761D02*
X119300771Y-88140237D01*
X119300771Y-88140237D02*
X119348390Y-88235475D01*
X119348390Y-88235475D02*
X119396009Y-88283094D01*
X119396009Y-88283094D02*
X119491247Y-88330713D01*
X120239819Y-92616904D02*
X119239819Y-92616904D01*
X120239819Y-92045476D02*
X119668390Y-92474047D01*
X119239819Y-92045476D02*
X119811247Y-92616904D01*
X156119819Y-72438094D02*
X155119819Y-72438094D01*
X155119819Y-72438094D02*
X155119819Y-72199999D01*
X155119819Y-72199999D02*
X155167438Y-72057142D01*
X155167438Y-72057142D02*
X155262676Y-71961904D01*
X155262676Y-71961904D02*
X155357914Y-71914285D01*
X155357914Y-71914285D02*
X155548390Y-71866666D01*
X155548390Y-71866666D02*
X155691247Y-71866666D01*
X155691247Y-71866666D02*
X155881723Y-71914285D01*
X155881723Y-71914285D02*
X155976961Y-71961904D01*
X155976961Y-71961904D02*
X156072200Y-72057142D01*
X156072200Y-72057142D02*
X156119819Y-72199999D01*
X156119819Y-72199999D02*
X156119819Y-72438094D01*
X156119819Y-70914285D02*
X156119819Y-71485713D01*
X156119819Y-71199999D02*
X155119819Y-71199999D01*
X155119819Y-71199999D02*
X155262676Y-71295237D01*
X155262676Y-71295237D02*
X155357914Y-71390475D01*
X155357914Y-71390475D02*
X155405533Y-71485713D01*
X157929819Y-73446904D02*
X156929819Y-73446904D01*
X157929819Y-72875476D02*
X157358390Y-73304047D01*
X156929819Y-72875476D02*
X157501247Y-73446904D01*
X148406667Y-82243200D02*
X148549524Y-82290819D01*
X148549524Y-82290819D02*
X148787619Y-82290819D01*
X148787619Y-82290819D02*
X148882857Y-82243200D01*
X148882857Y-82243200D02*
X148930476Y-82195580D01*
X148930476Y-82195580D02*
X148978095Y-82100342D01*
X148978095Y-82100342D02*
X148978095Y-82005104D01*
X148978095Y-82005104D02*
X148930476Y-81909866D01*
X148930476Y-81909866D02*
X148882857Y-81862247D01*
X148882857Y-81862247D02*
X148787619Y-81814628D01*
X148787619Y-81814628D02*
X148597143Y-81767009D01*
X148597143Y-81767009D02*
X148501905Y-81719390D01*
X148501905Y-81719390D02*
X148454286Y-81671771D01*
X148454286Y-81671771D02*
X148406667Y-81576533D01*
X148406667Y-81576533D02*
X148406667Y-81481295D01*
X148406667Y-81481295D02*
X148454286Y-81386057D01*
X148454286Y-81386057D02*
X148501905Y-81338438D01*
X148501905Y-81338438D02*
X148597143Y-81290819D01*
X148597143Y-81290819D02*
X148835238Y-81290819D01*
X148835238Y-81290819D02*
X148978095Y-81338438D01*
X149311429Y-81290819D02*
X149549524Y-82290819D01*
X149549524Y-82290819D02*
X149740000Y-81576533D01*
X149740000Y-81576533D02*
X149930476Y-82290819D01*
X149930476Y-82290819D02*
X150168572Y-81290819D01*
X150978095Y-81624152D02*
X150978095Y-82290819D01*
X150740000Y-81243200D02*
X150501905Y-81957485D01*
X150501905Y-81957485D02*
X151120952Y-81957485D01*
X138949819Y-89153094D02*
X137949819Y-89153094D01*
X137949819Y-89153094D02*
X137949819Y-88914999D01*
X137949819Y-88914999D02*
X137997438Y-88772142D01*
X137997438Y-88772142D02*
X138092676Y-88676904D01*
X138092676Y-88676904D02*
X138187914Y-88629285D01*
X138187914Y-88629285D02*
X138378390Y-88581666D01*
X138378390Y-88581666D02*
X138521247Y-88581666D01*
X138521247Y-88581666D02*
X138711723Y-88629285D01*
X138711723Y-88629285D02*
X138806961Y-88676904D01*
X138806961Y-88676904D02*
X138902200Y-88772142D01*
X138902200Y-88772142D02*
X138949819Y-88914999D01*
X138949819Y-88914999D02*
X138949819Y-89153094D01*
X138283152Y-87724523D02*
X138949819Y-87724523D01*
X137902200Y-87962618D02*
X138616485Y-88200713D01*
X138616485Y-88200713D02*
X138616485Y-87581666D01*
X139269819Y-92486904D02*
X138269819Y-92486904D01*
X139269819Y-91915476D02*
X138698390Y-92344047D01*
X138269819Y-91915476D02*
X138841247Y-92486904D01*
X119899819Y-70123094D02*
X118899819Y-70123094D01*
X118899819Y-70123094D02*
X118899819Y-69884999D01*
X118899819Y-69884999D02*
X118947438Y-69742142D01*
X118947438Y-69742142D02*
X119042676Y-69646904D01*
X119042676Y-69646904D02*
X119137914Y-69599285D01*
X119137914Y-69599285D02*
X119328390Y-69551666D01*
X119328390Y-69551666D02*
X119471247Y-69551666D01*
X119471247Y-69551666D02*
X119661723Y-69599285D01*
X119661723Y-69599285D02*
X119756961Y-69646904D01*
X119756961Y-69646904D02*
X119852200Y-69742142D01*
X119852200Y-69742142D02*
X119899819Y-69884999D01*
X119899819Y-69884999D02*
X119899819Y-70123094D01*
X118899819Y-68646904D02*
X118899819Y-69123094D01*
X118899819Y-69123094D02*
X119376009Y-69170713D01*
X119376009Y-69170713D02*
X119328390Y-69123094D01*
X119328390Y-69123094D02*
X119280771Y-69027856D01*
X119280771Y-69027856D02*
X119280771Y-68789761D01*
X119280771Y-68789761D02*
X119328390Y-68694523D01*
X119328390Y-68694523D02*
X119376009Y-68646904D01*
X119376009Y-68646904D02*
X119471247Y-68599285D01*
X119471247Y-68599285D02*
X119709342Y-68599285D01*
X119709342Y-68599285D02*
X119804580Y-68646904D01*
X119804580Y-68646904D02*
X119852200Y-68694523D01*
X119852200Y-68694523D02*
X119899819Y-68789761D01*
X119899819Y-68789761D02*
X119899819Y-69027856D01*
X119899819Y-69027856D02*
X119852200Y-69123094D01*
X119852200Y-69123094D02*
X119804580Y-69170713D01*
X120219819Y-73456904D02*
X119219819Y-73456904D01*
X120219819Y-72885476D02*
X119648390Y-73314047D01*
X119219819Y-72885476D02*
X119791247Y-73456904D01*
D12*
%TO.C,SW1*%
X123705000Y-63675000D02*
X137675000Y-63675000D01*
X123705000Y-77645000D02*
X123705000Y-63675000D01*
X137675000Y-63675000D02*
X137675000Y-77645000D01*
X137675000Y-77645000D02*
X123705000Y-77645000D01*
%TO.C,D3*%
X139345000Y-67285000D02*
X139345000Y-71525000D01*
X139345000Y-70685000D02*
X141585000Y-70685000D01*
X139345000Y-70805000D02*
X141585000Y-70805000D01*
X139345000Y-70925000D02*
X141585000Y-70925000D01*
X139345000Y-71525000D02*
X141585000Y-71525000D01*
X140465000Y-66635000D02*
X140465000Y-67285000D01*
X140465000Y-72175000D02*
X140465000Y-71525000D01*
X141585000Y-67285000D02*
X139345000Y-67285000D01*
X141585000Y-71525000D02*
X141585000Y-67285000D01*
%TO.C,SW6*%
X175775000Y-96695000D02*
X161805000Y-96695000D01*
X175775000Y-82725000D02*
X175775000Y-96695000D01*
X161805000Y-96695000D02*
X161805000Y-82725000D01*
X161805000Y-82725000D02*
X175775000Y-82725000D01*
%TO.C,SW3*%
X142755000Y-63675000D02*
X156725000Y-63675000D01*
X142755000Y-77645000D02*
X142755000Y-63675000D01*
X156725000Y-63675000D02*
X156725000Y-77645000D01*
X156725000Y-77645000D02*
X142755000Y-77645000D01*
D13*
%TO.C,U1*%
X180185000Y-82260000D02*
X180185000Y-96060000D01*
X182185000Y-98060000D02*
X199185000Y-98060000D01*
X195255730Y-84660000D02*
X202609030Y-84660000D01*
X195255730Y-93660000D02*
X195255730Y-84660000D01*
X199185000Y-80260000D02*
X182185000Y-80260000D01*
X201184090Y-96060000D02*
X201184090Y-82260000D01*
X202609030Y-84660000D02*
X202609030Y-93660000D01*
X202609030Y-93660000D02*
X195255730Y-93660000D01*
D12*
X180185000Y-82260000D02*
G75*
G02*
X182185000Y-80260000I2044857J-44857D01*
G01*
X182185000Y-98060000D02*
G75*
G02*
X180185000Y-96060000I0J2000000D01*
G01*
X199185000Y-80260000D02*
G75*
G02*
X201185000Y-82260000I-44612J-2044612D01*
G01*
X201185000Y-96060000D02*
G75*
G02*
X199185000Y-98060000I-2044600J44600D01*
G01*
D14*
X199612000Y-78160000D02*
G75*
G02*
X199358000Y-78160000I-127000J0D01*
G01*
X199358000Y-78160000D02*
G75*
G02*
X199612000Y-78160000I127000J0D01*
G01*
D15*
X199295473Y-80275333D02*
X199344494Y-80279397D01*
X199246705Y-80272285D01*
X199295473Y-80275333D01*
X182163426Y-98049492D02*
X182114150Y-98047713D01*
X182065382Y-98044665D01*
X182016361Y-98040601D01*
X181967593Y-98035268D01*
X181918825Y-98028664D01*
X181870310Y-98021044D01*
X181822050Y-98012153D01*
X181774045Y-98002248D01*
X182163426Y-98049492D01*
D12*
%TO.C,SW2*%
X123705000Y-82725000D02*
X137675000Y-82725000D01*
X123705000Y-96695000D02*
X123705000Y-82725000D01*
X137675000Y-82725000D02*
X137675000Y-96695000D01*
X137675000Y-96695000D02*
X123705000Y-96695000D01*
D10*
%TO.C,SW7*%
X183395000Y-64525000D02*
X186245000Y-64525000D01*
X183395000Y-68600000D02*
X183395000Y-64525000D01*
X183395000Y-78425000D02*
X183395000Y-74350000D01*
X183395000Y-78425000D02*
X186245000Y-78425000D01*
X188545000Y-64525000D02*
X191245000Y-64525000D01*
X188545000Y-78425000D02*
X188745000Y-78425000D01*
X191045000Y-78425000D02*
X191245000Y-78425000D01*
X193545000Y-64525000D02*
X196395000Y-64525000D01*
X193545000Y-78425000D02*
X196395000Y-78425000D01*
X196395000Y-68600000D02*
X196395000Y-64525000D01*
X196395000Y-78425000D02*
X196395000Y-74350000D01*
D16*
X185420000Y-79175000D02*
G75*
G02*
X185170000Y-79175000I-125000J0D01*
G01*
X185170000Y-79175000D02*
G75*
G02*
X185420000Y-79175000I125000J0D01*
G01*
D12*
%TO.C,D2*%
X157725000Y-86295000D02*
X157725000Y-90535000D01*
X157725000Y-89695000D02*
X159965000Y-89695000D01*
X157725000Y-89815000D02*
X159965000Y-89815000D01*
X157725000Y-89935000D02*
X159965000Y-89935000D01*
X157725000Y-90535000D02*
X159965000Y-90535000D01*
X158845000Y-85645000D02*
X158845000Y-86295000D01*
X158845000Y-91185000D02*
X158845000Y-90535000D01*
X159965000Y-86295000D02*
X157725000Y-86295000D01*
X159965000Y-90535000D02*
X159965000Y-86295000D01*
%TO.C,SW5*%
X161805000Y-63675000D02*
X175775000Y-63675000D01*
X161805000Y-77645000D02*
X161805000Y-63675000D01*
X175775000Y-63675000D02*
X175775000Y-77645000D01*
X175775000Y-77645000D02*
X161805000Y-77645000D01*
%TO.C,D6*%
X120465000Y-86425000D02*
X120465000Y-90665000D01*
X120465000Y-89825000D02*
X122705000Y-89825000D01*
X120465000Y-89945000D02*
X122705000Y-89945000D01*
X120465000Y-90065000D02*
X122705000Y-90065000D01*
X120465000Y-90665000D02*
X122705000Y-90665000D01*
X121585000Y-85775000D02*
X121585000Y-86425000D01*
X121585000Y-91315000D02*
X121585000Y-90665000D01*
X122705000Y-86425000D02*
X120465000Y-86425000D01*
X122705000Y-90665000D02*
X122705000Y-86425000D01*
%TO.C,D1*%
X158155000Y-67255000D02*
X158155000Y-71495000D01*
X158155000Y-70655000D02*
X160395000Y-70655000D01*
X158155000Y-70775000D02*
X160395000Y-70775000D01*
X158155000Y-70895000D02*
X160395000Y-70895000D01*
X158155000Y-71495000D02*
X160395000Y-71495000D01*
X159275000Y-66605000D02*
X159275000Y-67255000D01*
X159275000Y-72145000D02*
X159275000Y-71495000D01*
X160395000Y-67255000D02*
X158155000Y-67255000D01*
X160395000Y-71495000D02*
X160395000Y-67255000D01*
%TO.C,SW4*%
X142755000Y-82725000D02*
X156725000Y-82725000D01*
X142755000Y-96695000D02*
X142755000Y-82725000D01*
X156725000Y-82725000D02*
X156725000Y-96695000D01*
X156725000Y-96695000D02*
X142755000Y-96695000D01*
%TO.C,D4*%
X139495000Y-86295000D02*
X139495000Y-90535000D01*
X139495000Y-89695000D02*
X141735000Y-89695000D01*
X139495000Y-89815000D02*
X141735000Y-89815000D01*
X139495000Y-89935000D02*
X141735000Y-89935000D01*
X139495000Y-90535000D02*
X141735000Y-90535000D01*
X140615000Y-85645000D02*
X140615000Y-86295000D01*
X140615000Y-91185000D02*
X140615000Y-90535000D01*
X141735000Y-86295000D02*
X139495000Y-86295000D01*
X141735000Y-90535000D02*
X141735000Y-86295000D01*
%TO.C,D5*%
X120445000Y-67265000D02*
X120445000Y-71505000D01*
X120445000Y-70665000D02*
X122685000Y-70665000D01*
X120445000Y-70785000D02*
X122685000Y-70785000D01*
X120445000Y-70905000D02*
X122685000Y-70905000D01*
X120445000Y-71505000D02*
X122685000Y-71505000D01*
X121565000Y-66615000D02*
X121565000Y-67265000D01*
X121565000Y-72155000D02*
X121565000Y-71505000D01*
X122685000Y-67265000D02*
X120445000Y-67265000D01*
X122685000Y-71505000D02*
X122685000Y-67265000D01*
%TD*%
M02*
