%TF.GenerationSoftware,KiCad,Pcbnew,8.0.5*%
%TF.CreationDate,2024-10-23T20:01:10-04:00*%
%TF.ProjectId,HackPadCase,4861636b-5061-4644-9361-73652e6b6963,rev?*%
%TF.SameCoordinates,Original*%
%TF.FileFunction,Copper,L1,Top*%
%TF.FilePolarity,Positive*%
%FSLAX46Y46*%
G04 Gerber Fmt 4.6, Leading zero omitted, Abs format (unit mm)*
G04 Created by KiCad (PCBNEW 8.0.5) date 2024-10-23 20:01:10*
%MOMM*%
%LPD*%
G01*
G04 APERTURE LIST*
G04 Aperture macros list*
%AMRoundRect*
0 Rectangle with rounded corners*
0 $1 Rounding radius*
0 $2 $3 $4 $5 $6 $7 $8 $9 X,Y pos of 4 corners*
0 Add a 4 corners polygon primitive as box body*
4,1,4,$2,$3,$4,$5,$6,$7,$8,$9,$2,$3,0*
0 Add four circle primitives for the rounded corners*
1,1,$1+$1,$2,$3*
1,1,$1+$1,$4,$5*
1,1,$1+$1,$6,$7*
1,1,$1+$1,$8,$9*
0 Add four rect primitives between the rounded corners*
20,1,$1+$1,$2,$3,$4,$5,0*
20,1,$1+$1,$4,$5,$6,$7,0*
20,1,$1+$1,$6,$7,$8,$9,0*
20,1,$1+$1,$8,$9,$2,$3,0*%
G04 Aperture macros list end*
%TA.AperFunction,ComponentPad*%
%ADD10RoundRect,0.250000X0.550000X-0.550000X0.550000X0.550000X-0.550000X0.550000X-0.550000X-0.550000X0*%
%TD*%
%TA.AperFunction,ComponentPad*%
%ADD11C,1.600000*%
%TD*%
%TA.AperFunction,ComponentPad*%
%ADD12O,3.000000X4.100000*%
%TD*%
%TA.AperFunction,ComponentPad*%
%ADD13C,2.200000*%
%TD*%
%TA.AperFunction,ComponentPad*%
%ADD14R,1.600000X1.600000*%
%TD*%
%TA.AperFunction,ComponentPad*%
%ADD15O,1.600000X1.600000*%
%TD*%
%TA.AperFunction,ComponentPad*%
%ADD16R,1.700000X1.700000*%
%TD*%
%TA.AperFunction,ComponentPad*%
%ADD17C,1.700000*%
%TD*%
%TA.AperFunction,Conductor*%
%ADD18C,0.200000*%
%TD*%
G04 APERTURE END LIST*
D10*
%TO.P,SW7,A,A*%
%TO.N,Net-(U1-PA9_A5_D5_SCL)*%
X187165000Y-78635000D03*
D11*
%TO.P,SW7,B,B*%
%TO.N,Net-(U1-PB08_A6_D6_TX)*%
X192165000Y-78635000D03*
%TO.P,SW7,C,C*%
%TO.N,GND*%
X189665000Y-78635000D03*
%TO.P,SW7,S1,S1*%
X187165000Y-64135000D03*
%TO.P,SW7,S2,S2*%
%TO.N,Net-(U1-PA5_A9_D9_MISO)*%
X192165000Y-64135000D03*
D12*
%TO.P,SW7,SH*%
%TO.N,N/C*%
X184065000Y-71135000D03*
X195265000Y-71135000D03*
%TD*%
D13*
%TO.P,SW1,2,2*%
%TO.N,Column 1*%
X126880000Y-68120000D03*
%TO.P,SW1,1,1*%
%TO.N,Net-(D1-A)*%
X133230000Y-65580000D03*
%TD*%
D14*
%TO.P,D3,1,K*%
%TO.N,Row 1*%
X140465000Y-73215000D03*
D15*
%TO.P,D3,2,A*%
%TO.N,Net-(D3-A)*%
X140465000Y-65595000D03*
%TD*%
D13*
%TO.P,SW6,2,2*%
%TO.N,Column 3*%
X164980000Y-87170000D03*
%TO.P,SW6,1,1*%
%TO.N,Net-(D6-A)*%
X171330000Y-84630000D03*
%TD*%
%TO.P,SW3,2,2*%
%TO.N,Column 3*%
X145930000Y-68120000D03*
%TO.P,SW3,1,1*%
%TO.N,Net-(D3-A)*%
X152280000Y-65580000D03*
%TD*%
D16*
%TO.P,U1,1,PA02_A0_D0*%
%TO.N,Column 1*%
X198305000Y-81535000D03*
D17*
%TO.P,U1,2,PA4_A1_D1*%
%TO.N,Column 2*%
X195765000Y-81535000D03*
%TO.P,U1,3,PA10_A2_D2*%
%TO.N,Column 3*%
X193225000Y-81535000D03*
%TO.P,U1,4,PA11_A3_D3*%
%TO.N,Row 1*%
X190685000Y-81535000D03*
%TO.P,U1,5,PA8_A4_D4_SDA*%
%TO.N,Row 2*%
X188145000Y-81535000D03*
%TO.P,U1,6,PA9_A5_D5_SCL*%
%TO.N,Net-(U1-PA9_A5_D5_SCL)*%
X185605000Y-81535000D03*
%TO.P,U1,7,PB08_A6_D6_TX*%
%TO.N,Net-(U1-PB08_A6_D6_TX)*%
X183065000Y-81535000D03*
%TO.P,U1,8,PB09_A7_D7_RX*%
%TO.N,unconnected-(U1-PB09_A7_D7_RX-Pad8)*%
X183065000Y-96785000D03*
%TO.P,U1,9,PA7_A8_D8_SCK*%
%TO.N,unconnected-(U1-PA7_A8_D8_SCK-Pad9)*%
X185605000Y-96785000D03*
%TO.P,U1,10,PA5_A9_D9_MISO*%
%TO.N,Net-(U1-PA5_A9_D9_MISO)*%
X188145000Y-96785000D03*
%TO.P,U1,11,PA6_A10_D10_MOSI*%
%TO.N,unconnected-(U1-PA6_A10_D10_MOSI-Pad11)*%
X190685000Y-96785000D03*
%TO.P,U1,12,3V3*%
%TO.N,unconnected-(U1-3V3-Pad12)*%
X193225000Y-96785000D03*
%TO.P,U1,13,GND*%
%TO.N,GND*%
X195765000Y-96785000D03*
%TO.P,U1,14,5V*%
%TO.N,unconnected-(U1-5V-Pad14)*%
X198305000Y-96785000D03*
%TD*%
D13*
%TO.P,SW2,2,2*%
%TO.N,Column 2*%
X126880000Y-87170000D03*
%TO.P,SW2,1,1*%
%TO.N,Net-(D2-A)*%
X133230000Y-84630000D03*
%TD*%
D14*
%TO.P,D2,1,K*%
%TO.N,Row 1*%
X158845000Y-92225000D03*
D15*
%TO.P,D2,2,A*%
%TO.N,Net-(D2-A)*%
X158845000Y-84605000D03*
%TD*%
D13*
%TO.P,SW5,2,2*%
%TO.N,Column 2*%
X164980000Y-68120000D03*
%TO.P,SW5,1,1*%
%TO.N,Net-(D5-A)*%
X171330000Y-65580000D03*
%TD*%
D14*
%TO.P,D6,1,K*%
%TO.N,Row 2*%
X121585000Y-92355000D03*
D15*
%TO.P,D6,2,A*%
%TO.N,Net-(D6-A)*%
X121585000Y-84735000D03*
%TD*%
D14*
%TO.P,D1,1,K*%
%TO.N,Row 1*%
X159275000Y-73185000D03*
D15*
%TO.P,D1,2,A*%
%TO.N,Net-(D1-A)*%
X159275000Y-65565000D03*
%TD*%
D13*
%TO.P,SW4,2,2*%
%TO.N,Column 1*%
X145930000Y-87170000D03*
%TO.P,SW4,1,1*%
%TO.N,Net-(D4-A)*%
X152280000Y-84630000D03*
%TD*%
D14*
%TO.P,D4,1,K*%
%TO.N,Row 2*%
X140615000Y-92225000D03*
D15*
%TO.P,D4,2,A*%
%TO.N,Net-(D4-A)*%
X140615000Y-84605000D03*
%TD*%
D14*
%TO.P,D5,1,K*%
%TO.N,Row 2*%
X121565000Y-73195000D03*
D15*
%TO.P,D5,2,A*%
%TO.N,Net-(D5-A)*%
X121565000Y-65575000D03*
%TD*%
D18*
%TO.N,Net-(U1-PA5_A9_D9_MISO)*%
X188145000Y-93965000D02*
X188145000Y-96785000D01*
X187465000Y-93285000D02*
X188145000Y-93965000D01*
X180865000Y-93285000D02*
X187465000Y-93285000D01*
X191365000Y-66835000D02*
X180865000Y-66835000D01*
X191665000Y-66685000D02*
X191515000Y-66685000D01*
X192165000Y-66185000D02*
X191665000Y-66685000D01*
X191515000Y-66685000D02*
X191365000Y-66835000D01*
X180865000Y-66835000D02*
X180865000Y-93285000D01*
X192165000Y-64135000D02*
X192165000Y-66185000D01*
%TO.N,Net-(U1-PB08_A6_D6_TX)*%
X183065000Y-76235000D02*
X183065000Y-81535000D01*
X191865000Y-76235000D02*
X183065000Y-76235000D01*
X192165000Y-76535000D02*
X191865000Y-76235000D01*
X192165000Y-78635000D02*
X192165000Y-76535000D01*
%TO.N,Net-(U1-PA9_A5_D5_SCL)*%
X185605000Y-79625000D02*
X185605000Y-81535000D01*
X185315000Y-79335000D02*
X185605000Y-79625000D01*
X186015000Y-78635000D02*
X185315000Y-79335000D01*
X187165000Y-78635000D02*
X186015000Y-78635000D01*
%TO.N,GND*%
X195765000Y-97885000D02*
X195765000Y-96785000D01*
X195615000Y-98035000D02*
X195765000Y-97885000D01*
X196465000Y-98185000D02*
X195765000Y-98185000D01*
X196715000Y-97935000D02*
X196465000Y-98185000D01*
X195765000Y-98185000D02*
X195615000Y-98035000D01*
X199465000Y-97935000D02*
X196715000Y-97935000D01*
X199765000Y-97635000D02*
X199465000Y-97935000D01*
X199765000Y-64885000D02*
X199765000Y-97635000D01*
X197915000Y-63035000D02*
X199765000Y-64885000D01*
X188265000Y-63035000D02*
X197915000Y-63035000D01*
X187165000Y-64135000D02*
X188265000Y-63035000D01*
X191835000Y-80805000D02*
X191835000Y-92855000D01*
X189665000Y-78635000D02*
X191835000Y-80805000D01*
X191835000Y-92855000D02*
X195765000Y-96785000D01*
%TO.N,Net-(D6-A)*%
X122115000Y-80435000D02*
X122065000Y-80385000D01*
X171215000Y-80435000D02*
X122115000Y-80435000D01*
X122065000Y-80385000D02*
X121585000Y-80865000D01*
X171330000Y-80550000D02*
X171215000Y-80435000D01*
X171330000Y-84630000D02*
X171330000Y-80550000D01*
X121585000Y-80865000D02*
X121585000Y-84735000D01*
%TO.N,Net-(D4-A)*%
X140615000Y-83035000D02*
X140615000Y-84605000D01*
X141665000Y-81985000D02*
X140615000Y-83035000D01*
X152365000Y-81985000D02*
X141665000Y-81985000D01*
X152280000Y-82070000D02*
X152365000Y-81985000D01*
X152280000Y-84630000D02*
X152280000Y-82070000D01*
%TO.N,Net-(D5-A)*%
X121565000Y-63485000D02*
X121565000Y-65575000D01*
X121465000Y-63385000D02*
X121565000Y-63485000D01*
X123515000Y-63035000D02*
X123165000Y-63385000D01*
X123165000Y-63385000D02*
X121465000Y-63385000D01*
X123515000Y-61385000D02*
X123515000Y-63035000D01*
X123715000Y-61185000D02*
X123515000Y-61385000D01*
X171215000Y-61185000D02*
X123715000Y-61185000D01*
X171330000Y-61300000D02*
X171215000Y-61185000D01*
X171330000Y-65580000D02*
X171330000Y-61300000D01*
%TO.N,Net-(D3-A)*%
X140465000Y-63085000D02*
X140465000Y-65595000D01*
X140665000Y-62885000D02*
X140465000Y-63085000D01*
X152280000Y-62970000D02*
X152365000Y-62885000D01*
X152365000Y-62885000D02*
X140665000Y-62885000D01*
X152280000Y-65580000D02*
X152280000Y-62970000D01*
%TO.N,Net-(D1-A)*%
X159275000Y-62945000D02*
X159275000Y-65565000D01*
X133165000Y-62485000D02*
X158815000Y-62485000D01*
X133230000Y-62550000D02*
X133165000Y-62485000D01*
X158815000Y-62485000D02*
X159275000Y-62945000D01*
X133230000Y-65580000D02*
X133230000Y-62550000D01*
%TO.N,Net-(D2-A)*%
X133230000Y-81370000D02*
X133230000Y-84630000D01*
X158815000Y-81235000D02*
X133365000Y-81235000D01*
X158845000Y-81265000D02*
X158815000Y-81235000D01*
X133365000Y-81235000D02*
X133230000Y-81370000D01*
X158845000Y-84605000D02*
X158845000Y-81265000D01*
%TD*%
M02*
