<?xml version="1.0" standalone="no"?>
 <!DOCTYPE svg PUBLIC "-//W3C//DTD SVG 1.1//EN" 
 "http://www.w3.org/Graphics/SVG/1.1/DTD/svg11.dtd"> 
<svg
  xmlns:svg="http://www.w3.org/2000/svg"
  xmlns="http://www.w3.org/2000/svg"
  xmlns:xlink="http://www.w3.org/1999/xlink"
  version="1.1"
  width="428.7266mm" height="132.2578mm" viewBox="0.0000 0.0000 428.7266 132.2578">
<title>SVG Image created as hackpad-full-keyboard-User_Drawings.svg date 2025/02/25 21:30:45 </title>
  <desc>Image generated by PCBNEW </desc>
<g style="fill:#000000; fill-opacity:1.0000;stroke:#000000; stroke-opacity:1.0000;
stroke-linecap:round; stroke-linejoin:round;"
 transform="translate(0 0) scale(1 1)">
</g>
<g style="fill:none; 
stroke:#C2C2C2; stroke-width:0.1500; stroke-opacity:1; 
stroke-linecap:round; stroke-linejoin:round;">
<path d="M166.5332 51.8566
L185.5832 51.8566
" />
<path d="M166.5332 70.9066
L166.5332 51.8566
" />
<path d="M185.5832 51.8566
L185.5832 70.9066
" />
<path d="M185.5832 70.9066
L166.5332 70.9066
" />
<path d="M300.7832 7.5416
L319.8332 7.5416
" />
<path d="M300.7832 26.5916
L300.7832 7.5416
" />
<path d="M319.8332 7.5416
L319.8332 26.5916
" />
<path d="M319.8332 26.5916
L300.7832 26.5916
" />
<path d="M319.7832 7.5416
L338.8332 7.5416
" />
<path d="M319.7832 26.5916
L319.7832 7.5416
" />
<path d="M338.8332 7.5416
L338.8332 26.5916
" />
<path d="M338.8332 26.5916
L319.7832 26.5916
" />
<path d="M185.5332 51.8566
L204.5832 51.8566
" />
<path d="M185.5332 70.9066
L185.5332 51.8566
" />
<path d="M204.5832 51.8566
L204.5832 70.9066
" />
<path d="M204.5832 70.9066
L185.5332 70.9066
" />
<path d="M100.0732 7.5166
L119.1232 7.5166
" />
<path d="M100.0732 26.5666
L100.0732 7.5166
" />
<path d="M119.1232 7.5166
L119.1232 26.5666
" />
<path d="M119.1232 26.5666
L100.0732 26.5666
" />
<path d="M119.0732 7.5166
L138.1232 7.5166
" />
<path d="M119.0732 26.5666
L119.0732 7.5166
" />
<path d="M138.1232 7.5166
L138.1232 26.5666
" />
<path d="M138.1232 26.5666
L119.0732 26.5666
" />
<path d="M368.5420 51.8766
L387.5920 51.8766
" />
<path d="M368.5420 70.9266
L368.5420 51.8766
" />
<path d="M387.5920 51.8766
L387.5920 70.9266
" />
<path d="M387.5920 70.9266
L368.5420 70.9266
" />
<path d="M62.0732 7.5166
L81.1232 7.5166
" />
<path d="M62.0732 26.5666
L62.0732 7.5166
" />
<path d="M81.1232 7.5166
L81.1232 26.5666
" />
<path d="M81.1232 26.5666
L62.0732 26.5666
" />
<path d="M176.0332 32.8566
L195.0832 32.8566
" />
<path d="M176.0332 51.9066
L176.0332 32.8566
" />
<path d="M195.0832 32.8566
L195.0832 51.9066
" />
<path d="M195.0832 51.9066
L176.0332 51.9066
" />
<path d="M5.0332 32.8566
L24.0832 32.8566
" />
<path d="M5.0332 51.9066
L5.0332 32.8566
" />
<path d="M24.0832 32.8566
L24.0832 51.9066
" />
<path d="M24.0832 51.9066
L5.0332 51.9066
" />
<path d="M233.0732 7.5166
L252.1232 7.5166
" />
<path d="M233.0732 26.5666
L233.0732 7.5166
" />
<path d="M252.1232 7.5166
L252.1232 26.5666
" />
<path d="M252.1232 26.5666
L233.0732 26.5666
" />
<path d="M300.7832 32.8566
L319.8332 32.8566
" />
<path d="M300.7832 51.9066
L300.7832 32.8566
" />
<path d="M319.8332 32.8566
L319.8332 51.9066
" />
<path d="M319.8332 51.9066
L300.7832 51.9066
" />
<path d="M204.8382 109.0916
L238.1757 109.0916
" />
<path d="M204.8382 128.1416
L204.8382 109.0916
" />
<path d="M238.1757 109.0916
L238.1757 128.1416
" />
<path d="M238.1757 128.1416
L204.8382 128.1416
" />
<path d="M138.0332 32.8566
L157.0832 32.8566
" />
<path d="M138.0332 51.9066
L138.0332 32.8566
" />
<path d="M157.0832 32.8566
L157.0832 51.9066
" />
<path d="M157.0832 51.9066
L138.0332 51.9066
" />
<path d="M62.0332 32.8566
L81.0832 32.8566
" />
<path d="M62.0332 51.9066
L62.0332 32.8566
" />
<path d="M81.0832 32.8566
L81.0832 51.9066
" />
<path d="M81.0832 51.9066
L62.0332 51.9066
" />
<path d="M252.0732 7.5166
L271.1232 7.5166
" />
<path d="M252.0732 26.5666
L252.0732 7.5166
" />
<path d="M271.1232 7.5166
L271.1232 26.5666
" />
<path d="M271.1232 26.5666
L252.0732 26.5666
" />
<path d="M5.0082 7.5416
L43.1082 7.5416
" />
<path d="M5.0082 26.5916
L5.0082 7.5416
" />
<path d="M43.1082 7.5416
L43.1082 26.5916
" />
<path d="M43.1082 26.5916
L5.0082 26.5916
" />
<path d="M319.7120 51.9016
L338.7620 51.9016
" />
<path d="M319.7120 70.9516
L319.7120 51.9016
" />
<path d="M338.7620 51.9016
L338.7620 70.9516
" />
<path d="M338.7620 70.9516
L319.7120 70.9516
" />
<path d="M95.3220 70.9016
L114.3720 70.9016
" />
<path d="M95.3220 89.9516
L95.3220 70.9016
" />
<path d="M114.3720 70.9016
L114.3720 89.9516
" />
<path d="M114.3720 89.9516
L95.3220 89.9516
" />
<path d="M47.7420 89.9016
L66.7920 89.9016
" />
<path d="M47.7420 108.9516
L47.7420 89.9016
" />
<path d="M66.7920 89.9016
L66.7920 108.9516
" />
<path d="M66.7920 108.9516
L47.7420 108.9516
" />
<path d="M157.0332 32.8566
L176.0832 32.8566
" />
<path d="M157.0332 51.9066
L157.0332 32.8566
" />
<path d="M176.0832 32.8566
L176.0832 51.9066
" />
<path d="M176.0832 51.9066
L157.0332 51.9066
" />
<path d="M4.8695 108.9016
L33.4445 108.9016
" />
<path d="M4.8695 127.9516
L4.8695 108.9016
" />
<path d="M33.4445 108.9016
L33.4445 127.9516
" />
<path d="M33.4445 127.9516
L4.8695 127.9516
" />
<path d="M338.7120 109.0916
L357.7620 109.0916
" />
<path d="M338.7120 128.1416
L338.7120 109.0916
" />
<path d="M357.7620 109.0916
L357.7620 128.1416
" />
<path d="M357.7620 128.1416
L338.7120 128.1416
" />
<path d="M242.5332 51.8566
L261.5832 51.8566
" />
<path d="M242.5332 70.9066
L242.5332 51.8566
" />
<path d="M261.5832 51.8566
L261.5832 70.9066
" />
<path d="M261.5832 70.9066
L242.5332 70.9066
" />
<path d="M261.7495 109.1616
L290.3245 109.1616
" />
<path d="M261.7495 128.2116
L261.7495 109.1616
" />
<path d="M290.3245 109.1616
L290.3245 128.2116
" />
<path d="M290.3245 128.2116
L261.7495 128.2116
" />
<path d="M338.7120 51.9016
L357.7620 51.9016
" />
<path d="M338.7120 70.9516
L338.7120 51.9016
" />
<path d="M357.7620 51.9016
L357.7620 70.9516
" />
<path d="M357.7620 70.9516
L338.7120 70.9516
" />
<path d="M228.3220 70.9016
L247.3720 70.9016
" />
<path d="M228.3220 89.9516
L228.3220 70.9016
" />
<path d="M247.3720 70.9016
L247.3720 89.9516
" />
<path d="M247.3720 89.9516
L228.3220 89.9516
" />
<path d="M57.3220 70.9016
L76.3720 70.9016
" />
<path d="M57.3220 89.9516
L57.3220 70.9016
" />
<path d="M76.3720 70.9016
L76.3720 89.9516
" />
<path d="M76.3720 89.9516
L57.3220 89.9516
" />
<path d="M214.0332 32.8566
L233.0832 32.8566
" />
<path d="M214.0332 51.9066
L214.0332 32.8566
" />
<path d="M233.0832 32.8566
L233.0832 51.9066
" />
<path d="M233.0832 51.9066
L214.0332 51.9066
" />
<path d="M161.8220 89.9016
L180.8720 89.9016
" />
<path d="M161.8220 108.9516
L161.8220 89.9016
" />
<path d="M180.8720 89.9016
L180.8720 108.9516
" />
<path d="M180.8720 108.9516
L161.8220 108.9516
" />
<path d="M114.3220 70.9016
L133.3720 70.9016
" />
<path d="M114.3220 89.9516
L114.3220 70.9016
" />
<path d="M133.3720 70.9016
L133.3720 89.9516
" />
<path d="M133.3720 89.9516
L114.3220 89.9516
" />
<path d="M368.4632 108.9016
L406.5632 108.9016
" />
<path d="M368.4632 127.9516
L368.4632 108.9016
" />
<path d="M406.5632 108.9016
L406.5632 127.9516
" />
<path d="M406.5632 127.9516
L368.4632 127.9516
" />
<path d="M223.5332 51.8566
L242.5832 51.8566
" />
<path d="M223.5332 70.9066
L223.5332 51.8566
" />
<path d="M242.5832 51.8566
L242.5832 70.9066
" />
<path d="M242.5832 70.9066
L223.5332 70.9066
" />
<path d="M406.4882 108.9016
L425.5382 108.9016
" />
<path d="M406.4882 127.9516
L406.4882 108.9016
" />
<path d="M425.5382 108.9016
L425.5382 127.9516
" />
<path d="M425.5382 127.9516
L406.4882 127.9516
" />
<path d="M195.0732 7.5166
L214.1232 7.5166
" />
<path d="M195.0732 26.5666
L195.0732 7.5166
" />
<path d="M214.1232 7.5166
L214.1232 26.5666
" />
<path d="M214.1232 26.5666
L195.0732 26.5666
" />
<path d="M261.5882 51.8066
L290.1632 51.8066
" />
<path d="M261.5882 70.8566
L261.5882 51.8066
" />
<path d="M266.3507 70.8566
L261.5882 70.8566
" />
<path d="M266.3507 89.9066
L266.3507 70.8566
" />
<path d="M290.1632 51.8066
L290.1632 89.9066
" />
<path d="M290.1632 89.9066
L266.3507 89.9066
" />
<path d="M104.8220 89.9016
L123.8720 89.9016
" />
<path d="M104.8220 108.9516
L104.8220 89.9016
" />
<path d="M123.8720 89.9016
L123.8720 108.9516
" />
<path d="M123.8720 108.9516
L104.8220 108.9516
" />
<path d="M100.0332 32.8566
L119.0832 32.8566
" />
<path d="M100.0332 51.9066
L100.0332 32.8566
" />
<path d="M119.0832 32.8566
L119.0832 51.9066
" />
<path d="M119.0832 51.9066
L100.0332 51.9066
" />
<path d="M57.3095 108.9016
L85.8845 108.9016
" />
<path d="M57.3095 127.9516
L57.3095 108.9016
" />
<path d="M85.8845 108.9016
L85.8845 127.9516
" />
<path d="M85.8845 127.9516
L57.3095 127.9516
" />
<path d="M237.7932 89.9516
L290.1807 89.9516
" />
<path d="M237.7932 109.0016
L237.7932 89.9516
" />
<path d="M290.1807 89.9516
L290.1807 109.0016
" />
<path d="M290.1807 109.0016
L237.7932 109.0016
" />
<path d="M406.5032 7.5416
L425.5532 7.5416
" />
<path d="M406.5032 26.5916
L406.5032 7.5416
" />
<path d="M425.5532 7.5416
L425.5532 26.5916
" />
<path d="M425.5532 26.5916
L406.5032 26.5916
" />
<path d="M338.7832 32.8566
L357.8332 32.8566
" />
<path d="M338.7832 51.9066
L338.7832 32.8566
" />
<path d="M357.8332 32.8566
L357.8332 51.9066
" />
<path d="M357.8332 51.9066
L338.7832 51.9066
" />
<path d="M214.0732 7.5166
L233.1232 7.5166
" />
<path d="M214.0732 26.5666
L214.0732 7.5166
" />
<path d="M233.1232 7.5166
L233.1232 26.5666
" />
<path d="M233.1232 26.5666
L214.0732 26.5666
" />
<path d="M66.8220 89.9016
L85.8720 89.9016
" />
<path d="M66.8220 108.9516
L66.8220 89.9016
" />
<path d="M85.8720 89.9016
L85.8720 108.9516
" />
<path d="M85.8720 108.9516
L66.8220 108.9516
" />
<path d="M387.5420 51.8766
L406.5920 51.8766
" />
<path d="M387.5420 70.9266
L387.5420 51.8766
" />
<path d="M406.5920 51.8766
L406.5920 70.9266
" />
<path d="M406.5920 70.9266
L387.5420 70.9266
" />
<path d="M76.3220 70.9016
L95.3720 70.9016
" />
<path d="M76.3220 89.9516
L76.3220 70.9016
" />
<path d="M95.3720 70.9016
L95.3720 89.9516
" />
<path d="M95.3720 89.9516
L76.3220 89.9516
" />
<path d="M24.0332 32.8566
L43.0832 32.8566
" />
<path d="M24.0332 51.9066
L24.0332 32.8566
" />
<path d="M43.0832 32.8566
L43.0832 51.9066
" />
<path d="M43.0832 51.9066
L24.0332 51.9066
" />
<path d="M195.0332 32.8566
L214.0832 32.8566
" />
<path d="M195.0332 51.9066
L195.0332 32.8566
" />
<path d="M214.0832 32.8566
L214.0832 51.9066
" />
<path d="M214.0832 51.9066
L195.0332 51.9066
" />
<path d="M171.3220 70.9016
L190.3720 70.9016
" />
<path d="M171.3220 89.9516
L171.3220 70.9016
" />
<path d="M190.3720 70.9016
L190.3720 89.9516
" />
<path d="M190.3720 89.9516
L171.3220 89.9516
" />
<path d="M233.0332 32.8566
L252.0832 32.8566
" />
<path d="M233.0332 51.9066
L233.0332 32.8566
" />
<path d="M252.0832 32.8566
L252.0832 51.9066
" />
<path d="M252.0832 51.9066
L233.0332 51.9066
" />
<path d="M406.5420 89.9016
L425.5920 89.9016
" />
<path d="M406.5420 108.9516
L406.5420 89.9016
" />
<path d="M425.5920 89.9016
L425.5920 108.9516
" />
<path d="M425.5920 108.9516
L406.5420 108.9516
" />
<path d="M43.0332 32.8566
L62.0832 32.8566
" />
<path d="M43.0332 51.9066
L43.0332 32.8566
" />
<path d="M62.0832 32.8566
L62.0832 51.9066
" />
<path d="M62.0832 51.9066
L43.0332 51.9066
" />
<path d="M209.3220 70.9016
L228.3720 70.9016
" />
<path d="M209.3220 89.9516
L209.3220 70.9016
" />
<path d="M228.3720 70.9016
L228.3720 89.9516
" />
<path d="M228.3720 89.9516
L209.3220 89.9516
" />
<path d="M199.8220 89.9016
L218.8720 89.9016
" />
<path d="M199.8220 108.9516
L199.8220 89.9016
" />
<path d="M218.8720 89.9016
L218.8720 108.9516
" />
<path d="M218.8720 108.9516
L199.8220 108.9516
" />
<path d="M180.8220 89.9016
L199.8720 89.9016
" />
<path d="M180.8220 108.9516
L180.8220 89.9016
" />
<path d="M199.8720 89.9016
L199.8720 108.9516
" />
<path d="M199.8720 108.9516
L180.8220 108.9516
" />
<path d="M300.7120 90.0916
L319.7620 90.0916
" />
<path d="M300.7120 109.1416
L300.7120 90.0916
" />
<path d="M319.7620 90.0916
L319.7620 109.1416
" />
<path d="M319.7620 109.1416
L300.7120 109.1416
" />
<path d="M38.3220 70.8566
L57.3720 70.8566
" />
<path d="M38.3220 89.9066
L38.3220 70.8566
" />
<path d="M57.3720 70.8566
L57.3720 89.9066
" />
<path d="M57.3720 89.9066
L38.3220 89.9066
" />
<path d="M28.7420 89.9016
L47.7920 89.9016
" />
<path d="M28.7420 108.9516
L28.7420 89.9016
" />
<path d="M47.7920 89.9016
L47.7920 108.9516
" />
<path d="M47.7920 108.9516
L28.7420 108.9516
" />
<path d="M319.7832 32.8566
L338.8332 32.8566
" />
<path d="M319.7832 51.9066
L319.7832 32.8566
" />
<path d="M338.8332 32.8566
L338.8332 51.9066
" />
<path d="M338.8332 51.9066
L319.7832 51.9066
" />
<path d="M142.8220 89.9016
L161.8720 89.9016
" />
<path d="M142.8220 108.9516
L142.8220 89.9016
" />
<path d="M161.8720 89.9016
L161.8720 108.9516
" />
<path d="M161.8720 108.9516
L142.8220 108.9516
" />
<path d="M387.5420 89.9016
L406.5920 89.9016
" />
<path d="M387.5420 108.9516
L387.5420 89.9016
" />
<path d="M406.5920 89.9016
L406.5920 108.9516
" />
<path d="M406.5920 108.9516
L387.5420 108.9516
" />
<path d="M90.5332 51.8566
L109.5832 51.8566
" />
<path d="M90.5332 70.9066
L90.5332 51.8566
" />
<path d="M109.5832 51.8566
L109.5832 70.9066
" />
<path d="M109.5832 70.9066
L90.5332 70.9066
" />
<path d="M52.5332 51.8566
L71.5832 51.8566
" />
<path d="M52.5332 70.9066
L52.5332 51.8566
" />
<path d="M71.5832 51.8566
L71.5832 70.9066
" />
<path d="M71.5832 70.9066
L52.5332 70.9066
" />
<path d="M338.7120 90.0916
L357.7620 90.0916
" />
<path d="M338.7120 109.1416
L338.7120 90.0916
" />
<path d="M357.7620 90.0916
L357.7620 109.1416
" />
<path d="M357.7620 109.1416
L338.7120 109.1416
" />
<path d="M4.9995 70.8566
L38.3370 70.8566
" />
<path d="M4.9995 89.9066
L4.9995 70.8566
" />
<path d="M38.3370 70.8566
L38.3370 89.9066
" />
<path d="M38.3370 89.9066
L4.9995 89.9066
" />
<path d="M271.0732 7.5166
L290.1232 7.5166
" />
<path d="M271.0732 26.5666
L271.0732 7.5166
" />
<path d="M290.1232 7.5166
L290.1232 26.5666
" />
<path d="M290.1232 26.5666
L271.0732 26.5666
" />
<path d="M247.3220 70.9016
L266.3720 70.9016
" />
<path d="M247.3220 89.9516
L247.3220 70.9016
" />
<path d="M266.3720 70.9016
L266.3720 89.9516
" />
<path d="M266.3720 89.9516
L247.3220 89.9516
" />
<path d="M85.8220 89.9016
L104.8720 89.9016
" />
<path d="M85.8220 108.9516
L85.8220 89.9016
" />
<path d="M104.8720 89.9016
L104.8720 108.9516
" />
<path d="M104.8720 108.9516
L85.8220 108.9516
" />
<path d="M5.0207 51.8566
L33.5957 51.8566
" />
<path d="M5.0207 70.9066
L5.0207 51.8566
" />
<path d="M33.5957 51.8566
L33.5957 70.9066
" />
<path d="M33.5957 70.9066
L5.0207 70.9066
" />
<path d="M138.0732 7.5166
L157.1232 7.5166
" />
<path d="M138.0732 26.5666
L138.0732 7.5166
" />
<path d="M157.1232 7.5166
L157.1232 26.5666
" />
<path d="M157.1232 26.5666
L138.0732 26.5666
" />
<path d="M368.5420 70.9466
L387.5920 70.9466
" />
<path d="M368.5420 89.9966
L368.5420 70.9466
" />
<path d="M387.5920 70.9466
L387.5920 89.9966
" />
<path d="M387.5920 89.9966
L368.5420 89.9966
" />
<path d="M300.7120 51.9016
L319.7620 51.9016
" />
<path d="M300.7120 70.9516
L300.7120 51.9016
" />
<path d="M319.7620 51.9016
L319.7620 70.9516
" />
<path d="M319.7620 70.9516
L300.7120 70.9516
" />
<path d="M33.4707 108.9016
L57.2832 108.9016
" />
<path d="M33.4707 127.9516
L33.4707 108.9016
" />
<path d="M57.2832 108.9016
L57.2832 127.9516
" />
<path d="M57.2832 127.9516
L33.4707 127.9516
" />
<path d="M338.7832 7.5416
L357.8332 7.5416
" />
<path d="M338.7832 26.5916
L338.7832 7.5416
" />
<path d="M357.8332 7.5416
L357.8332 26.5916
" />
<path d="M357.8332 26.5916
L338.7832 26.5916
" />
<path d="M387.5032 7.5416
L406.5532 7.5416
" />
<path d="M387.5032 26.5916
L387.5032 7.5416
" />
<path d="M406.5532 7.5416
L406.5532 26.5916
" />
<path d="M406.5532 26.5916
L387.5032 26.5916
" />
<path d="M157.0732 7.5166
L176.1232 7.5166
" />
<path d="M157.0732 26.5666
L157.0732 7.5166
" />
<path d="M176.1232 7.5166
L176.1232 26.5666
" />
<path d="M176.1232 26.5666
L157.0732 26.5666
" />
<path d="M319.7120 90.0916
L338.7620 90.0916
" />
<path d="M319.7120 109.1416
L319.7120 90.0916
" />
<path d="M338.7620 90.0916
L338.7620 109.1416
" />
<path d="M338.7620 109.1416
L319.7120 109.1416
" />
<path d="M119.0332 32.8566
L138.0832 32.8566
" />
<path d="M119.0332 51.9066
L119.0332 32.8566
" />
<path d="M138.0832 32.8566
L138.0832 51.9066
" />
<path d="M138.0832 51.9066
L119.0332 51.9066
" />
<path d="M238.1007 109.0916
L261.9132 109.0916
" />
<path d="M238.1007 128.1416
L238.1007 109.0916
" />
<path d="M261.9132 109.0916
L261.9132 128.1416
" />
<path d="M261.9132 128.1416
L238.1007 128.1416
" />
<path d="M368.5420 89.9016
L387.5920 89.9016
" />
<path d="M368.5420 108.9516
L368.5420 89.9016
" />
<path d="M387.5920 89.9016
L387.5920 108.9516
" />
<path d="M387.5920 108.9516
L368.5420 108.9516
" />
<path d="M123.8220 89.9016
L142.8720 89.9016
" />
<path d="M123.8220 108.9516
L123.8220 89.9016
" />
<path d="M142.8720 89.9016
L142.8720 108.9516
" />
<path d="M142.8720 108.9516
L123.8220 108.9516
" />
<path d="M204.5332 51.8566
L223.5832 51.8566
" />
<path d="M204.5332 70.9066
L204.5332 51.8566
" />
<path d="M223.5832 51.8566
L223.5832 70.9066
" />
<path d="M223.5832 70.9066
L204.5332 70.9066
" />
<path d="M218.8220 89.9016
L237.8720 89.9016
" />
<path d="M218.8220 108.9516
L218.8220 89.9016
" />
<path d="M237.8720 89.9016
L237.8720 108.9516
" />
<path d="M237.8720 108.9516
L218.8220 108.9516
" />
<path d="M406.5420 51.8766
L425.5920 51.8766
" />
<path d="M406.5420 70.9266
L406.5420 51.8766
" />
<path d="M425.5920 51.8766
L425.5920 70.9266
" />
<path d="M425.5920 70.9266
L406.5420 70.9266
" />
<path d="M81.0332 32.8566
L100.0832 32.8566
" />
<path d="M81.0332 51.9066
L81.0332 32.8566
" />
<path d="M100.0832 32.8566
L100.0832 51.9066
" />
<path d="M100.0832 51.9066
L81.0332 51.9066
" />
<path d="M4.9707 89.9016
L28.7832 89.9016
" />
<path d="M4.9707 108.9516
L4.9707 89.9016
" />
<path d="M28.7832 89.9016
L28.7832 108.9516
" />
<path d="M28.7832 108.9516
L4.9707 108.9516
" />
<path d="M176.0732 7.5166
L195.1232 7.5166
" />
<path d="M176.0732 26.5666
L176.0732 7.5166
" />
<path d="M195.1232 7.5166
L195.1232 26.5666
" />
<path d="M195.1232 26.5666
L176.0732 26.5666
" />
<path d="M406.5420 70.8766
L425.5920 70.8766
" />
<path d="M406.5420 89.9266
L406.5420 70.8766
" />
<path d="M425.5920 70.8766
L425.5920 89.9266
" />
<path d="M425.5920 89.9266
L406.5420 89.9266
" />
<path d="M300.7120 109.0916
L319.7620 109.0916
" />
<path d="M300.7120 128.1416
L300.7120 109.0916
" />
<path d="M319.7620 109.0916
L319.7620 128.1416
" />
<path d="M319.7620 128.1416
L300.7120 128.1416
" />
<path d="M128.5332 51.8566
L147.5832 51.8566
" />
<path d="M128.5332 70.9066
L128.5332 51.8566
" />
<path d="M147.5832 51.8566
L147.5832 70.9066
" />
<path d="M147.5832 70.9066
L128.5332 70.9066
" />
<path d="M252.0082 32.8566
L290.1082 32.8566
" />
<path d="M252.0082 51.9066
L252.0082 32.8566
" />
<path d="M290.1082 32.8566
L290.1082 51.9066
" />
<path d="M290.1082 51.9066
L252.0082 51.9066
" />
<path d="M81.0732 7.5166
L100.1232 7.5166
" />
<path d="M81.0732 26.5666
L81.0732 7.5166
" />
<path d="M100.1232 7.5166
L100.1232 26.5666
" />
<path d="M100.1232 26.5666
L81.0732 26.5666
" />
<path d="M109.5332 51.8566
L128.5832 51.8566
" />
<path d="M109.5332 70.9066
L109.5332 51.8566
" />
<path d="M128.5832 51.8566
L128.5832 70.9066
" />
<path d="M128.5832 70.9066
L109.5332 70.9066
" />
<path d="M147.5332 51.8566
L166.5832 51.8566
" />
<path d="M147.5332 70.9066
L147.5332 51.8566
" />
<path d="M166.5832 51.8566
L166.5832 70.9066
" />
<path d="M166.5832 70.9066
L147.5332 70.9066
" />
<path d="M43.0732 7.5166
L62.1232 7.5166
" />
<path d="M43.0732 26.5666
L43.0732 7.5166
" />
<path d="M62.1232 7.5166
L62.1232 26.5666
" />
<path d="M62.1232 26.5666
L43.0732 26.5666
" />
<path d="M33.5332 51.8566
L52.5832 51.8566
" />
<path d="M33.5332 70.9066
L33.5332 51.8566
" />
<path d="M52.5832 51.8566
L52.5832 70.9066
" />
<path d="M52.5832 70.9066
L33.5332 70.9066
" />
<path d="M387.5420 70.8766
L406.5920 70.8766
" />
<path d="M387.5420 89.9266
L387.5420 70.8766
" />
<path d="M406.5920 70.8766
L406.5920 89.9266
" />
<path d="M406.5920 89.9266
L387.5420 89.9266
" />
<path d="M319.7120 109.0916
L338.7620 109.0916
" />
<path d="M319.7120 128.1416
L319.7120 109.0916
" />
<path d="M338.7620 109.0916
L338.7620 128.1416
" />
<path d="M338.7620 128.1416
L319.7120 128.1416
" />
<path d="M152.3220 70.9016
L171.3720 70.9016
" />
<path d="M152.3220 89.9516
L152.3220 70.9016
" />
<path d="M171.3720 70.9016
L171.3720 89.9516
" />
<path d="M171.3720 89.9516
L152.3220 89.9516
" />
<path d="M71.5332 51.8566
L90.5832 51.8566
" />
<path d="M71.5332 70.9066
L71.5332 51.8566
" />
<path d="M90.5832 51.8566
L90.5832 70.9066
" />
<path d="M90.5832 70.9066
L71.5332 70.9066
" />
<path d="M133.3220 70.9016
L152.3720 70.9016
" />
<path d="M133.3220 89.9516
L133.3220 70.9016
" />
<path d="M152.3720 70.9016
L152.3720 89.9516
" />
<path d="M152.3720 89.9516
L133.3220 89.9516
" />
<path d="M85.7857 109.0216
L204.8482 109.0216
" />
<path d="M85.7857 128.0716
L85.7857 109.0216
" />
<path d="M204.8482 109.0216
L204.8482 128.0716
" />
<path d="M204.8482 128.0716
L85.7857 128.0716
" />
<path d="M190.3220 70.9016
L209.3720 70.9016
" />
<path d="M190.3220 89.9516
L190.3220 70.9016
" />
<path d="M209.3720 70.9016
L209.3720 89.9516
" />
<path d="M209.3720 89.9516
L190.3220 89.9516
" />
<path d="M368.5032 7.5416
L387.5532 7.5416
" />
<path d="M368.5032 26.5916
L368.5032 7.5416
" />
<path d="M387.5532 7.5416
L387.5532 26.5916
" />
<path d="M387.5532 26.5916
L368.5032 26.5916
" />
<path style="fill:#C2C2C2; fill-opacity:1.0000; 
stroke:#C2C2C2; stroke-width:0.1000; stroke-opacity:1; 
stroke-linecap:round; stroke-linejoin:round;fill-rule:evenodd;"
d="M 308.0770,84.0566
303.3770,84.0566
303.3770,76.6566
308.0770,76.6566
Z" /> 
<path style="fill:#C2C2C2; fill-opacity:1.0000; 
stroke:#C2C2C2; stroke-width:0.1000; stroke-opacity:1; 
stroke-linecap:round; stroke-linejoin:round;fill-rule:evenodd;"
d="M 311.7770,78.8566
309.7770,78.8566
309.7770,76.8566
311.7770,76.8566
Z" /> 
<path style="fill:#C2C2C2; fill-opacity:1.0000; 
stroke:#C2C2C2; stroke-width:0.1000; stroke-opacity:1; 
stroke-linecap:round; stroke-linejoin:round;fill-rule:evenodd;"
d="M 314.2770,78.8566
312.2770,78.8566
312.2770,76.8566
314.2770,76.8566
Z" /> 
<path style="fill:#C2C2C2; fill-opacity:1.0000; 
stroke:#C2C2C2; stroke-width:0.1000; stroke-opacity:1; 
stroke-linecap:round; stroke-linejoin:round;fill-rule:evenodd;"
d="M 316.7770,78.8566
314.7770,78.8566
314.7770,76.8566
316.7770,76.8566
Z" /> 
<path style="fill:none; 
stroke:#D0D2CD; stroke-width:0.0500; stroke-opacity:1; 
stroke-linecap:round; stroke-linejoin:round;fill:none"
d="M 0.0250,0.0250
428.4750,0.0250
428.4750,130.9350
0.0250,130.9350
Z" /> 
</g> 
</svg>
