%TF.GenerationSoftware,KiCad,Pcbnew,8.0.6*%
%TF.CreationDate,2024-11-02T08:16:50+08:00*%
%TF.ProjectId,macropad,6d616372-6f70-4616-942e-6b696361645f,rev?*%
%TF.SameCoordinates,Original*%
%TF.FileFunction,Copper,L1,Top*%
%TF.FilePolarity,Positive*%
%FSLAX46Y46*%
G04 Gerber Fmt 4.6, Leading zero omitted, Abs format (unit mm)*
G04 Created by KiCad (PCBNEW 8.0.6) date 2024-11-02 08:16:50*
%MOMM*%
%LPD*%
G01*
G04 APERTURE LIST*
%TA.AperFunction,ComponentPad*%
%ADD10C,2.200000*%
%TD*%
%TA.AperFunction,ComponentPad*%
%ADD11R,1.700000X1.700000*%
%TD*%
%TA.AperFunction,ComponentPad*%
%ADD12C,1.700000*%
%TD*%
%TA.AperFunction,Conductor*%
%ADD13C,0.200000*%
%TD*%
G04 APERTURE END LIST*
D10*
%TO.P,SW4,1,1*%
%TO.N,Net-(U1-PB09_A7_D7_RX)*%
X156974000Y-139018631D03*
%TO.P,SW4,2,2*%
%TO.N,GND*%
X150624000Y-141558631D03*
%TD*%
%TO.P,SW3,1,1*%
%TO.N,Net-(U1-PA7_A8_D8_SCK)*%
X157016000Y-119836101D03*
%TO.P,SW3,2,2*%
%TO.N,GND*%
X150666000Y-122376101D03*
%TD*%
%TO.P,SW1,1,1*%
%TO.N,Net-(U1-PA6_A10_D10_MOSI)*%
X156960000Y-81512530D03*
%TO.P,SW1,2,2*%
%TO.N,GND*%
X150610000Y-84052530D03*
%TD*%
%TO.P,SW2,1,1*%
%TO.N,Net-(U1-PA5_A9_D9_MISO)*%
X157000000Y-100694098D03*
%TO.P,SW2,2,2*%
%TO.N,GND*%
X150650000Y-103234098D03*
%TD*%
D11*
%TO.P,U1,1,PA02_A0_D0*%
%TO.N,unconnected-(U1-PA02_A0_D0-Pad1)*%
X128200000Y-81392015D03*
D12*
%TO.P,U1,2,PA4_A1_D1*%
%TO.N,unconnected-(U1-PA4_A1_D1-Pad2)*%
X128200000Y-83932015D03*
%TO.P,U1,3,PA10_A2_D2*%
%TO.N,unconnected-(U1-PA10_A2_D2-Pad3)*%
X128200000Y-86472015D03*
%TO.P,U1,4,PA11_A3_D3*%
%TO.N,unconnected-(U1-PA11_A3_D3-Pad4)*%
X128200000Y-89012015D03*
%TO.P,U1,5,PA8_A4_D4_SDA*%
%TO.N,unconnected-(U1-PA8_A4_D4_SDA-Pad5)*%
X128200000Y-91552015D03*
%TO.P,U1,6,PA9_A5_D5_SCL*%
%TO.N,unconnected-(U1-PA9_A5_D5_SCL-Pad6)*%
X128200000Y-94092015D03*
%TO.P,U1,7,PB08_A6_D6_TX*%
%TO.N,unconnected-(U1-PB08_A6_D6_TX-Pad7)*%
X128200000Y-96632015D03*
%TO.P,U1,8,PB09_A7_D7_RX*%
%TO.N,Net-(U1-PB09_A7_D7_RX)*%
X143450000Y-96632015D03*
%TO.P,U1,9,PA7_A8_D8_SCK*%
%TO.N,Net-(U1-PA7_A8_D8_SCK)*%
X143450000Y-94092015D03*
%TO.P,U1,10,PA5_A9_D9_MISO*%
%TO.N,Net-(U1-PA5_A9_D9_MISO)*%
X143450000Y-91552015D03*
%TO.P,U1,11,PA6_A10_D10_MOSI*%
%TO.N,Net-(U1-PA6_A10_D10_MOSI)*%
X143450000Y-89012015D03*
%TO.P,U1,12,3V3*%
%TO.N,unconnected-(U1-3V3-Pad12)*%
X143450000Y-86472015D03*
%TO.P,U1,13,GND*%
%TO.N,GND*%
X143450000Y-83932015D03*
%TO.P,U1,14,5V*%
%TO.N,unconnected-(U1-5V-Pad14)*%
X143450000Y-81392015D03*
%TD*%
D13*
%TO.N,GND*%
X150650000Y-122360101D02*
X150666000Y-122376101D01*
X150600000Y-122376101D02*
X150600000Y-141534631D01*
X150360000Y-103234098D02*
X150300000Y-103294098D01*
X150716000Y-84676098D02*
X150716000Y-103234098D01*
X143450000Y-83820000D02*
X143345000Y-83820000D01*
X143345000Y-83820000D02*
X143477530Y-83952530D01*
X150650000Y-83952530D02*
X150650000Y-84516000D01*
X143450000Y-83820000D02*
X150442470Y-83820000D01*
X150650000Y-103232729D02*
X150650000Y-122454199D01*
X150650000Y-103234098D02*
X150360000Y-103234098D01*
X150517470Y-83820000D02*
X150650000Y-83952530D01*
X150650000Y-84516000D02*
X150716000Y-84582000D01*
X150600000Y-141534631D02*
X150624000Y-141558631D01*
%TD*%
M02*
