M48
; DRILL file {KiCad 8.0.8} date 2025-02-14T14:41:06+0000
; FORMAT={-:-/ absolute / inch / decimal}
; #@! TF.CreationDate,2025-02-14T14:41:06+00:00
; #@! TF.GenerationSoftware,Kicad,Pcbnew,8.0.8
; #@! TF.FileFunction,NonPlated,1,2,NPTH
FMAT,2
INCH
; #@! TA.AperFunction,NonPlated,NPTH,ComponentDrill
T1C0.0669
; #@! TA.AperFunction,NonPlated,NPTH,ComponentDrill
T2C0.1260
; #@! TA.AperFunction,NonPlated,NPTH,ComponentDrill
T3C0.1575
%
G90
G05
T1
X4.7181Y-2.6772
X4.7181Y-4.3307
X4.7213Y-3.5039
X5.1181Y-2.6772
X5.1181Y-4.3307
X5.1213Y-3.5039
X5.5449Y-2.6772
X5.5449Y-3.5039
X5.5449Y-4.3307
X5.9449Y-2.6772
X5.9449Y-3.5039
X5.9449Y-4.3307
X6.3717Y-2.6772
X6.3717Y-3.5039
X6.3717Y-4.3307
X6.7717Y-2.6772
X6.7717Y-3.5039
X6.7717Y-4.3307
T2
X4.5079Y-1.5551
X4.5079Y-4.626
X6.9882Y-1.5551
X6.9882Y-4.626
T3
X4.9181Y-2.6772
X4.9181Y-4.3307
X4.9213Y-3.5039
X5.7449Y-2.6772
X5.7449Y-3.5039
X5.7449Y-4.3307
X6.5717Y-2.6772
X6.5717Y-3.5039
X6.5717Y-4.3307
M30
