M48
; DRILL file {KiCad 8.0.8} date 2025-02-14T14:41:06+0000
; FORMAT={-:-/ absolute / inch / decimal}
; #@! TF.CreationDate,2025-02-14T14:41:06+00:00
; #@! TF.GenerationSoftware,Kicad,Pcbnew,8.0.8
; #@! TF.FileFunction,Plated,1,2,PTH
FMAT,2
INCH
; #@! TA.AperFunction,Plated,PTH,ComponentDrill
T1C0.0394
; #@! TA.AperFunction,Plated,PTH,ComponentDrill
T2C0.0591
%
G90
G05
T1
X5.4478Y-1.5504
X5.4478Y-1.6504
X5.4478Y-1.7504
X5.4478Y-1.8504
X5.4478Y-1.9504
X5.4478Y-2.0504
X5.4478Y-2.1504
X6.0482Y-1.5504
X6.0482Y-1.6504
X6.0482Y-1.7504
X6.0482Y-1.8504
X6.0482Y-1.9504
X6.0482Y-2.0504
X6.0482Y-2.1504
T2
X4.7681Y-2.5772
X4.7681Y-4.2307
X4.7713Y-3.4039
X5.0181Y-2.4772
X5.0181Y-4.1307
X5.0213Y-3.3039
X5.5949Y-2.5772
X5.5949Y-3.4039
X5.5949Y-4.2307
X5.8449Y-2.4772
X5.8449Y-3.3039
X5.8449Y-4.1307
X6.4217Y-2.5772
X6.4217Y-3.4039
X6.4217Y-4.2307
X6.6717Y-2.4772
X6.6717Y-3.3039
X6.6717Y-4.1307
M30
