M48
; DRILL file {KiCad 8.0.5} date 2024-10-20T15:54:25-0500
; FORMAT={-:-/ absolute / inch / decimal}
; #@! TF.CreationDate,2024-10-20T15:54:25-05:00
; #@! TF.GenerationSoftware,Kicad,Pcbnew,8.0.5
; #@! TF.FileFunction,Plated,1,2,PTH
FMAT,2
INCH
; #@! TA.AperFunction,Plated,PTH,ViaDrill
T1C0.0118
; #@! TA.AperFunction,Plated,PTH,ComponentDrill
T2C0.0315
; #@! TA.AperFunction,Plated,PTH,ComponentDrill
T3C0.0394
; #@! TA.AperFunction,Plated,PTH,ComponentDrill
T4C0.0591
%
G90
G05
T1
X4.3701Y-1.8406
X4.5177Y-1.25
T2
X3.0488Y-1.8504
X3.0488Y-1.9882
X3.0488Y-2.126
X3.0488Y-2.2638
X3.0488Y-2.4016
X3.0488Y-2.5394
X3.3488Y-1.8504
X3.3488Y-1.9882
X3.3488Y-2.126
X3.3488Y-2.2638
X3.3488Y-2.4016
X3.3488Y-2.5394
T3
X3.5581Y-0.8122
X3.5581Y-0.9122
X3.5581Y-1.0122
X3.5581Y-1.1122
X3.5581Y-1.2122
X3.5581Y-1.3122
X3.5581Y-1.4122
X4.1585Y-0.8122
X4.1585Y-0.9122
X4.1585Y-1.0122
X4.1585Y-1.1122
X4.1585Y-1.2122
X4.1585Y-1.3122
X4.1585Y-1.4122
X4.3553Y-1.063
X4.3553Y-1.163
X4.3553Y-1.263
X4.3553Y-1.363
X5.1083Y-2.0669
X5.1083Y-2.2638
X5.6791Y-2.0669
X5.6791Y-2.1654
X5.6791Y-2.2638
T4
X3.7083Y-2.0654
X3.7083Y-2.8331
X3.9583Y-1.9654
X3.9583Y-2.7331
X4.476Y-2.0654
X4.476Y-2.8331
X4.726Y-1.9654
X4.726Y-2.7331
X5.2437Y-2.8331
X5.4937Y-2.7331
T4
G00X5.4094Y-1.9449
M15
G01X5.3583Y-1.9449
M16
G05
G00X5.4094Y-2.3858
M15
G01X5.3583Y-2.3858
M16
G05
M30
