%TF.GenerationSoftware,KiCad,Pcbnew,8.0.5*%
%TF.CreationDate,2024-10-20T15:53:25-05:00*%
%TF.ProjectId,hackpad,6861636b-7061-4642-9e6b-696361645f70,rev?*%
%TF.SameCoordinates,Original*%
%TF.FileFunction,Soldermask,Top*%
%TF.FilePolarity,Negative*%
%FSLAX46Y46*%
G04 Gerber Fmt 4.6, Leading zero omitted, Abs format (unit mm)*
G04 Created by KiCad (PCBNEW 8.0.5) date 2024-10-20 15:53:25*
%MOMM*%
%LPD*%
G01*
G04 APERTURE LIST*
%ADD10R,1.600000X1.600000*%
%ADD11O,1.600000X1.600000*%
%ADD12R,3.500000X1.700000*%
%ADD13O,3.600000X1.700000*%
%ADD14O,3.700000X1.700000*%
%ADD15R,1.700000X1.700000*%
%ADD16O,1.700000X1.700000*%
%ADD17R,2.000000X2.000000*%
%ADD18C,2.000000*%
%ADD19R,3.200000X2.000000*%
%ADD20C,1.700000*%
%ADD21C,4.000000*%
%ADD22C,2.200000*%
G04 APERTURE END LIST*
D10*
%TO.C,D2*%
X77440000Y-47000000D03*
D11*
X85060000Y-47000000D03*
%TD*%
D12*
%TO.C,U1*%
X89375000Y-20630000D03*
D13*
X89375000Y-23170000D03*
X89375000Y-25710000D03*
X89375000Y-28250000D03*
X89375000Y-30790000D03*
X89375000Y-33330000D03*
X89375000Y-35870000D03*
X106625000Y-35870000D03*
X106625000Y-33330000D03*
X106625000Y-30790000D03*
D14*
X106625000Y-28250000D03*
X106625000Y-25710000D03*
X106625000Y-23170000D03*
X106625000Y-20630000D03*
%TD*%
D15*
%TO.C,J1*%
X110625000Y-27000000D03*
D16*
X110625000Y-29540000D03*
X110625000Y-32080000D03*
X110625000Y-34620000D03*
%TD*%
D10*
%TO.C,D5*%
X77440000Y-57500000D03*
D11*
X85060000Y-57500000D03*
%TD*%
D10*
%TO.C,D1*%
X77440000Y-50500000D03*
D11*
X85060000Y-50500000D03*
%TD*%
D17*
%TO.C,SW1*%
X144250000Y-57500000D03*
D18*
X144250000Y-52500000D03*
X144250000Y-55000000D03*
D19*
X136750000Y-60600000D03*
X136750000Y-49400000D03*
D18*
X129750000Y-52500000D03*
X129750000Y-57500000D03*
%TD*%
D10*
%TO.C,D3*%
X77440000Y-64500000D03*
D11*
X85060000Y-64500000D03*
%TD*%
D20*
%TO.C,SW2*%
X92920000Y-55000000D03*
D21*
X98000000Y-55000000D03*
D20*
X103080000Y-55000000D03*
D22*
X100540000Y-49920000D03*
X94190000Y-52460000D03*
%TD*%
D10*
%TO.C,D4*%
X77440000Y-61000000D03*
D11*
X85060000Y-61000000D03*
%TD*%
D20*
%TO.C,SW5*%
X112420000Y-74500000D03*
D21*
X117500000Y-74500000D03*
D20*
X122580000Y-74500000D03*
D22*
X120040000Y-69420000D03*
X113690000Y-71960000D03*
%TD*%
D10*
%TO.C,D6*%
X77440000Y-54000000D03*
D11*
X85060000Y-54000000D03*
%TD*%
D20*
%TO.C,SW4*%
X92920000Y-74500000D03*
D21*
X98000000Y-74500000D03*
D20*
X103080000Y-74500000D03*
D22*
X100540000Y-69420000D03*
X94190000Y-71960000D03*
%TD*%
D20*
%TO.C,SW3*%
X112420000Y-55000000D03*
D21*
X117500000Y-55000000D03*
D20*
X122580000Y-55000000D03*
D22*
X120040000Y-49920000D03*
X113690000Y-52460000D03*
%TD*%
D20*
%TO.C,SW6*%
X131920000Y-74500000D03*
D21*
X137000000Y-74500000D03*
D20*
X142080000Y-74500000D03*
D22*
X139540000Y-69420000D03*
X133190000Y-71960000D03*
%TD*%
M02*
