%TF.GenerationSoftware,KiCad,Pcbnew,8.0.5*%
%TF.CreationDate,2024-10-20T15:53:25-05:00*%
%TF.ProjectId,hackpad,6861636b-7061-4642-9e6b-696361645f70,rev?*%
%TF.SameCoordinates,Original*%
%TF.FileFunction,Legend,Top*%
%TF.FilePolarity,Positive*%
%FSLAX46Y46*%
G04 Gerber Fmt 4.6, Leading zero omitted, Abs format (unit mm)*
G04 Created by KiCad (PCBNEW 8.0.5) date 2024-10-20 15:53:25*
%MOMM*%
%LPD*%
G01*
G04 APERTURE LIST*
%ADD10C,0.150000*%
%ADD11C,0.101600*%
%ADD12C,0.120000*%
%ADD13C,0.127000*%
%ADD14C,0.254000*%
%ADD15C,0.025400*%
G04 APERTURE END LIST*
D10*
X80511905Y-45334819D02*
X80511905Y-44334819D01*
X80511905Y-44334819D02*
X80750000Y-44334819D01*
X80750000Y-44334819D02*
X80892857Y-44382438D01*
X80892857Y-44382438D02*
X80988095Y-44477676D01*
X80988095Y-44477676D02*
X81035714Y-44572914D01*
X81035714Y-44572914D02*
X81083333Y-44763390D01*
X81083333Y-44763390D02*
X81083333Y-44906247D01*
X81083333Y-44906247D02*
X81035714Y-45096723D01*
X81035714Y-45096723D02*
X80988095Y-45191961D01*
X80988095Y-45191961D02*
X80892857Y-45287200D01*
X80892857Y-45287200D02*
X80750000Y-45334819D01*
X80750000Y-45334819D02*
X80511905Y-45334819D01*
X81464286Y-44430057D02*
X81511905Y-44382438D01*
X81511905Y-44382438D02*
X81607143Y-44334819D01*
X81607143Y-44334819D02*
X81845238Y-44334819D01*
X81845238Y-44334819D02*
X81940476Y-44382438D01*
X81940476Y-44382438D02*
X81988095Y-44430057D01*
X81988095Y-44430057D02*
X82035714Y-44525295D01*
X82035714Y-44525295D02*
X82035714Y-44620533D01*
X82035714Y-44620533D02*
X81988095Y-44763390D01*
X81988095Y-44763390D02*
X81416667Y-45334819D01*
X81416667Y-45334819D02*
X82035714Y-45334819D01*
X77178095Y-45654819D02*
X77178095Y-44654819D01*
X77749523Y-45654819D02*
X77320952Y-45083390D01*
X77749523Y-44654819D02*
X77178095Y-45226247D01*
D11*
X97322666Y-30306985D02*
X97322666Y-31026652D01*
X97322666Y-31026652D02*
X97365000Y-31111318D01*
X97365000Y-31111318D02*
X97407333Y-31153652D01*
X97407333Y-31153652D02*
X97492000Y-31195985D01*
X97492000Y-31195985D02*
X97661333Y-31195985D01*
X97661333Y-31195985D02*
X97746000Y-31153652D01*
X97746000Y-31153652D02*
X97788333Y-31111318D01*
X97788333Y-31111318D02*
X97830666Y-31026652D01*
X97830666Y-31026652D02*
X97830666Y-30306985D01*
X98719666Y-31195985D02*
X98211666Y-31195985D01*
X98465666Y-31195985D02*
X98465666Y-30306985D01*
X98465666Y-30306985D02*
X98380999Y-30433985D01*
X98380999Y-30433985D02*
X98296333Y-30518652D01*
X98296333Y-30518652D02*
X98211666Y-30560985D01*
D10*
X93238095Y-27157200D02*
X93380952Y-27204819D01*
X93380952Y-27204819D02*
X93619047Y-27204819D01*
X93619047Y-27204819D02*
X93714285Y-27157200D01*
X93714285Y-27157200D02*
X93761904Y-27109580D01*
X93761904Y-27109580D02*
X93809523Y-27014342D01*
X93809523Y-27014342D02*
X93809523Y-26919104D01*
X93809523Y-26919104D02*
X93761904Y-26823866D01*
X93761904Y-26823866D02*
X93714285Y-26776247D01*
X93714285Y-26776247D02*
X93619047Y-26728628D01*
X93619047Y-26728628D02*
X93428571Y-26681009D01*
X93428571Y-26681009D02*
X93333333Y-26633390D01*
X93333333Y-26633390D02*
X93285714Y-26585771D01*
X93285714Y-26585771D02*
X93238095Y-26490533D01*
X93238095Y-26490533D02*
X93238095Y-26395295D01*
X93238095Y-26395295D02*
X93285714Y-26300057D01*
X93285714Y-26300057D02*
X93333333Y-26252438D01*
X93333333Y-26252438D02*
X93428571Y-26204819D01*
X93428571Y-26204819D02*
X93666666Y-26204819D01*
X93666666Y-26204819D02*
X93809523Y-26252438D01*
X94619047Y-27157200D02*
X94523809Y-27204819D01*
X94523809Y-27204819D02*
X94333333Y-27204819D01*
X94333333Y-27204819D02*
X94238095Y-27157200D01*
X94238095Y-27157200D02*
X94190476Y-27061961D01*
X94190476Y-27061961D02*
X94190476Y-26681009D01*
X94190476Y-26681009D02*
X94238095Y-26585771D01*
X94238095Y-26585771D02*
X94333333Y-26538152D01*
X94333333Y-26538152D02*
X94523809Y-26538152D01*
X94523809Y-26538152D02*
X94619047Y-26585771D01*
X94619047Y-26585771D02*
X94666666Y-26681009D01*
X94666666Y-26681009D02*
X94666666Y-26776247D01*
X94666666Y-26776247D02*
X94190476Y-26871485D01*
X95476190Y-27157200D02*
X95380952Y-27204819D01*
X95380952Y-27204819D02*
X95190476Y-27204819D01*
X95190476Y-27204819D02*
X95095238Y-27157200D01*
X95095238Y-27157200D02*
X95047619Y-27061961D01*
X95047619Y-27061961D02*
X95047619Y-26681009D01*
X95047619Y-26681009D02*
X95095238Y-26585771D01*
X95095238Y-26585771D02*
X95190476Y-26538152D01*
X95190476Y-26538152D02*
X95380952Y-26538152D01*
X95380952Y-26538152D02*
X95476190Y-26585771D01*
X95476190Y-26585771D02*
X95523809Y-26681009D01*
X95523809Y-26681009D02*
X95523809Y-26776247D01*
X95523809Y-26776247D02*
X95047619Y-26871485D01*
X96333333Y-27157200D02*
X96238095Y-27204819D01*
X96238095Y-27204819D02*
X96047619Y-27204819D01*
X96047619Y-27204819D02*
X95952381Y-27157200D01*
X95952381Y-27157200D02*
X95904762Y-27061961D01*
X95904762Y-27061961D02*
X95904762Y-26681009D01*
X95904762Y-26681009D02*
X95952381Y-26585771D01*
X95952381Y-26585771D02*
X96047619Y-26538152D01*
X96047619Y-26538152D02*
X96238095Y-26538152D01*
X96238095Y-26538152D02*
X96333333Y-26585771D01*
X96333333Y-26585771D02*
X96380952Y-26681009D01*
X96380952Y-26681009D02*
X96380952Y-26776247D01*
X96380952Y-26776247D02*
X95904762Y-26871485D01*
X97238095Y-27204819D02*
X97238095Y-26204819D01*
X97238095Y-27157200D02*
X97142857Y-27204819D01*
X97142857Y-27204819D02*
X96952381Y-27204819D01*
X96952381Y-27204819D02*
X96857143Y-27157200D01*
X96857143Y-27157200D02*
X96809524Y-27109580D01*
X96809524Y-27109580D02*
X96761905Y-27014342D01*
X96761905Y-27014342D02*
X96761905Y-26728628D01*
X96761905Y-26728628D02*
X96809524Y-26633390D01*
X96809524Y-26633390D02*
X96857143Y-26585771D01*
X96857143Y-26585771D02*
X96952381Y-26538152D01*
X96952381Y-26538152D02*
X97142857Y-26538152D01*
X97142857Y-26538152D02*
X97238095Y-26585771D01*
X98428572Y-27157200D02*
X98571429Y-27204819D01*
X98571429Y-27204819D02*
X98809524Y-27204819D01*
X98809524Y-27204819D02*
X98904762Y-27157200D01*
X98904762Y-27157200D02*
X98952381Y-27109580D01*
X98952381Y-27109580D02*
X99000000Y-27014342D01*
X99000000Y-27014342D02*
X99000000Y-26919104D01*
X99000000Y-26919104D02*
X98952381Y-26823866D01*
X98952381Y-26823866D02*
X98904762Y-26776247D01*
X98904762Y-26776247D02*
X98809524Y-26728628D01*
X98809524Y-26728628D02*
X98619048Y-26681009D01*
X98619048Y-26681009D02*
X98523810Y-26633390D01*
X98523810Y-26633390D02*
X98476191Y-26585771D01*
X98476191Y-26585771D02*
X98428572Y-26490533D01*
X98428572Y-26490533D02*
X98428572Y-26395295D01*
X98428572Y-26395295D02*
X98476191Y-26300057D01*
X98476191Y-26300057D02*
X98523810Y-26252438D01*
X98523810Y-26252438D02*
X98619048Y-26204819D01*
X98619048Y-26204819D02*
X98857143Y-26204819D01*
X98857143Y-26204819D02*
X99000000Y-26252438D01*
X99285715Y-26538152D02*
X99666667Y-26538152D01*
X99428572Y-26204819D02*
X99428572Y-27061961D01*
X99428572Y-27061961D02*
X99476191Y-27157200D01*
X99476191Y-27157200D02*
X99571429Y-27204819D01*
X99571429Y-27204819D02*
X99666667Y-27204819D01*
X100428572Y-26538152D02*
X100428572Y-27204819D01*
X100000001Y-26538152D02*
X100000001Y-27061961D01*
X100000001Y-27061961D02*
X100047620Y-27157200D01*
X100047620Y-27157200D02*
X100142858Y-27204819D01*
X100142858Y-27204819D02*
X100285715Y-27204819D01*
X100285715Y-27204819D02*
X100380953Y-27157200D01*
X100380953Y-27157200D02*
X100428572Y-27109580D01*
X101333334Y-27204819D02*
X101333334Y-26204819D01*
X101333334Y-27157200D02*
X101238096Y-27204819D01*
X101238096Y-27204819D02*
X101047620Y-27204819D01*
X101047620Y-27204819D02*
X100952382Y-27157200D01*
X100952382Y-27157200D02*
X100904763Y-27109580D01*
X100904763Y-27109580D02*
X100857144Y-27014342D01*
X100857144Y-27014342D02*
X100857144Y-26728628D01*
X100857144Y-26728628D02*
X100904763Y-26633390D01*
X100904763Y-26633390D02*
X100952382Y-26585771D01*
X100952382Y-26585771D02*
X101047620Y-26538152D01*
X101047620Y-26538152D02*
X101238096Y-26538152D01*
X101238096Y-26538152D02*
X101333334Y-26585771D01*
X101809525Y-27204819D02*
X101809525Y-26538152D01*
X101809525Y-26204819D02*
X101761906Y-26252438D01*
X101761906Y-26252438D02*
X101809525Y-26300057D01*
X101809525Y-26300057D02*
X101857144Y-26252438D01*
X101857144Y-26252438D02*
X101809525Y-26204819D01*
X101809525Y-26204819D02*
X101809525Y-26300057D01*
X102428572Y-27204819D02*
X102333334Y-27157200D01*
X102333334Y-27157200D02*
X102285715Y-27109580D01*
X102285715Y-27109580D02*
X102238096Y-27014342D01*
X102238096Y-27014342D02*
X102238096Y-26728628D01*
X102238096Y-26728628D02*
X102285715Y-26633390D01*
X102285715Y-26633390D02*
X102333334Y-26585771D01*
X102333334Y-26585771D02*
X102428572Y-26538152D01*
X102428572Y-26538152D02*
X102571429Y-26538152D01*
X102571429Y-26538152D02*
X102666667Y-26585771D01*
X102666667Y-26585771D02*
X102714286Y-26633390D01*
X102714286Y-26633390D02*
X102761905Y-26728628D01*
X102761905Y-26728628D02*
X102761905Y-27014342D01*
X102761905Y-27014342D02*
X102714286Y-27109580D01*
X102714286Y-27109580D02*
X102666667Y-27157200D01*
X102666667Y-27157200D02*
X102571429Y-27204819D01*
X102571429Y-27204819D02*
X102428572Y-27204819D01*
X96476191Y-28204819D02*
X97142857Y-29204819D01*
X97142857Y-28204819D02*
X96476191Y-29204819D01*
X97523810Y-29204819D02*
X97523810Y-28204819D01*
X97952381Y-28919104D02*
X98428571Y-28919104D01*
X97857143Y-29204819D02*
X98190476Y-28204819D01*
X98190476Y-28204819D02*
X98523809Y-29204819D01*
X99047619Y-28204819D02*
X99238095Y-28204819D01*
X99238095Y-28204819D02*
X99333333Y-28252438D01*
X99333333Y-28252438D02*
X99428571Y-28347676D01*
X99428571Y-28347676D02*
X99476190Y-28538152D01*
X99476190Y-28538152D02*
X99476190Y-28871485D01*
X99476190Y-28871485D02*
X99428571Y-29061961D01*
X99428571Y-29061961D02*
X99333333Y-29157200D01*
X99333333Y-29157200D02*
X99238095Y-29204819D01*
X99238095Y-29204819D02*
X99047619Y-29204819D01*
X99047619Y-29204819D02*
X98952381Y-29157200D01*
X98952381Y-29157200D02*
X98857143Y-29061961D01*
X98857143Y-29061961D02*
X98809524Y-28871485D01*
X98809524Y-28871485D02*
X98809524Y-28538152D01*
X98809524Y-28538152D02*
X98857143Y-28347676D01*
X98857143Y-28347676D02*
X98952381Y-28252438D01*
X98952381Y-28252438D02*
X99047619Y-28204819D01*
X110291666Y-24124819D02*
X110291666Y-24839104D01*
X110291666Y-24839104D02*
X110244047Y-24981961D01*
X110244047Y-24981961D02*
X110148809Y-25077200D01*
X110148809Y-25077200D02*
X110005952Y-25124819D01*
X110005952Y-25124819D02*
X109910714Y-25124819D01*
X111291666Y-25124819D02*
X110720238Y-25124819D01*
X111005952Y-25124819D02*
X111005952Y-24124819D01*
X111005952Y-24124819D02*
X110910714Y-24267676D01*
X110910714Y-24267676D02*
X110815476Y-24362914D01*
X110815476Y-24362914D02*
X110720238Y-24410533D01*
X80511905Y-55834819D02*
X80511905Y-54834819D01*
X80511905Y-54834819D02*
X80750000Y-54834819D01*
X80750000Y-54834819D02*
X80892857Y-54882438D01*
X80892857Y-54882438D02*
X80988095Y-54977676D01*
X80988095Y-54977676D02*
X81035714Y-55072914D01*
X81035714Y-55072914D02*
X81083333Y-55263390D01*
X81083333Y-55263390D02*
X81083333Y-55406247D01*
X81083333Y-55406247D02*
X81035714Y-55596723D01*
X81035714Y-55596723D02*
X80988095Y-55691961D01*
X80988095Y-55691961D02*
X80892857Y-55787200D01*
X80892857Y-55787200D02*
X80750000Y-55834819D01*
X80750000Y-55834819D02*
X80511905Y-55834819D01*
X81988095Y-54834819D02*
X81511905Y-54834819D01*
X81511905Y-54834819D02*
X81464286Y-55311009D01*
X81464286Y-55311009D02*
X81511905Y-55263390D01*
X81511905Y-55263390D02*
X81607143Y-55215771D01*
X81607143Y-55215771D02*
X81845238Y-55215771D01*
X81845238Y-55215771D02*
X81940476Y-55263390D01*
X81940476Y-55263390D02*
X81988095Y-55311009D01*
X81988095Y-55311009D02*
X82035714Y-55406247D01*
X82035714Y-55406247D02*
X82035714Y-55644342D01*
X82035714Y-55644342D02*
X81988095Y-55739580D01*
X81988095Y-55739580D02*
X81940476Y-55787200D01*
X81940476Y-55787200D02*
X81845238Y-55834819D01*
X81845238Y-55834819D02*
X81607143Y-55834819D01*
X81607143Y-55834819D02*
X81511905Y-55787200D01*
X81511905Y-55787200D02*
X81464286Y-55739580D01*
X77178095Y-56154819D02*
X77178095Y-55154819D01*
X77749523Y-56154819D02*
X77320952Y-55583390D01*
X77749523Y-55154819D02*
X77178095Y-55726247D01*
X80511905Y-48834819D02*
X80511905Y-47834819D01*
X80511905Y-47834819D02*
X80750000Y-47834819D01*
X80750000Y-47834819D02*
X80892857Y-47882438D01*
X80892857Y-47882438D02*
X80988095Y-47977676D01*
X80988095Y-47977676D02*
X81035714Y-48072914D01*
X81035714Y-48072914D02*
X81083333Y-48263390D01*
X81083333Y-48263390D02*
X81083333Y-48406247D01*
X81083333Y-48406247D02*
X81035714Y-48596723D01*
X81035714Y-48596723D02*
X80988095Y-48691961D01*
X80988095Y-48691961D02*
X80892857Y-48787200D01*
X80892857Y-48787200D02*
X80750000Y-48834819D01*
X80750000Y-48834819D02*
X80511905Y-48834819D01*
X82035714Y-48834819D02*
X81464286Y-48834819D01*
X81750000Y-48834819D02*
X81750000Y-47834819D01*
X81750000Y-47834819D02*
X81654762Y-47977676D01*
X81654762Y-47977676D02*
X81559524Y-48072914D01*
X81559524Y-48072914D02*
X81464286Y-48120533D01*
X77178095Y-49154819D02*
X77178095Y-48154819D01*
X77749523Y-49154819D02*
X77320952Y-48583390D01*
X77749523Y-48154819D02*
X77178095Y-48726247D01*
X140116667Y-62607200D02*
X140259524Y-62654819D01*
X140259524Y-62654819D02*
X140497619Y-62654819D01*
X140497619Y-62654819D02*
X140592857Y-62607200D01*
X140592857Y-62607200D02*
X140640476Y-62559580D01*
X140640476Y-62559580D02*
X140688095Y-62464342D01*
X140688095Y-62464342D02*
X140688095Y-62369104D01*
X140688095Y-62369104D02*
X140640476Y-62273866D01*
X140640476Y-62273866D02*
X140592857Y-62226247D01*
X140592857Y-62226247D02*
X140497619Y-62178628D01*
X140497619Y-62178628D02*
X140307143Y-62131009D01*
X140307143Y-62131009D02*
X140211905Y-62083390D01*
X140211905Y-62083390D02*
X140164286Y-62035771D01*
X140164286Y-62035771D02*
X140116667Y-61940533D01*
X140116667Y-61940533D02*
X140116667Y-61845295D01*
X140116667Y-61845295D02*
X140164286Y-61750057D01*
X140164286Y-61750057D02*
X140211905Y-61702438D01*
X140211905Y-61702438D02*
X140307143Y-61654819D01*
X140307143Y-61654819D02*
X140545238Y-61654819D01*
X140545238Y-61654819D02*
X140688095Y-61702438D01*
X141021429Y-61654819D02*
X141259524Y-62654819D01*
X141259524Y-62654819D02*
X141450000Y-61940533D01*
X141450000Y-61940533D02*
X141640476Y-62654819D01*
X141640476Y-62654819D02*
X141878572Y-61654819D01*
X142783333Y-62654819D02*
X142211905Y-62654819D01*
X142497619Y-62654819D02*
X142497619Y-61654819D01*
X142497619Y-61654819D02*
X142402381Y-61797676D01*
X142402381Y-61797676D02*
X142307143Y-61892914D01*
X142307143Y-61892914D02*
X142211905Y-61940533D01*
X80511905Y-62834819D02*
X80511905Y-61834819D01*
X80511905Y-61834819D02*
X80750000Y-61834819D01*
X80750000Y-61834819D02*
X80892857Y-61882438D01*
X80892857Y-61882438D02*
X80988095Y-61977676D01*
X80988095Y-61977676D02*
X81035714Y-62072914D01*
X81035714Y-62072914D02*
X81083333Y-62263390D01*
X81083333Y-62263390D02*
X81083333Y-62406247D01*
X81083333Y-62406247D02*
X81035714Y-62596723D01*
X81035714Y-62596723D02*
X80988095Y-62691961D01*
X80988095Y-62691961D02*
X80892857Y-62787200D01*
X80892857Y-62787200D02*
X80750000Y-62834819D01*
X80750000Y-62834819D02*
X80511905Y-62834819D01*
X81416667Y-61834819D02*
X82035714Y-61834819D01*
X82035714Y-61834819D02*
X81702381Y-62215771D01*
X81702381Y-62215771D02*
X81845238Y-62215771D01*
X81845238Y-62215771D02*
X81940476Y-62263390D01*
X81940476Y-62263390D02*
X81988095Y-62311009D01*
X81988095Y-62311009D02*
X82035714Y-62406247D01*
X82035714Y-62406247D02*
X82035714Y-62644342D01*
X82035714Y-62644342D02*
X81988095Y-62739580D01*
X81988095Y-62739580D02*
X81940476Y-62787200D01*
X81940476Y-62787200D02*
X81845238Y-62834819D01*
X81845238Y-62834819D02*
X81559524Y-62834819D01*
X81559524Y-62834819D02*
X81464286Y-62787200D01*
X81464286Y-62787200D02*
X81416667Y-62739580D01*
X77178095Y-63154819D02*
X77178095Y-62154819D01*
X77749523Y-63154819D02*
X77320952Y-62583390D01*
X77749523Y-62154819D02*
X77178095Y-62726247D01*
X96666667Y-47533200D02*
X96809524Y-47580819D01*
X96809524Y-47580819D02*
X97047619Y-47580819D01*
X97047619Y-47580819D02*
X97142857Y-47533200D01*
X97142857Y-47533200D02*
X97190476Y-47485580D01*
X97190476Y-47485580D02*
X97238095Y-47390342D01*
X97238095Y-47390342D02*
X97238095Y-47295104D01*
X97238095Y-47295104D02*
X97190476Y-47199866D01*
X97190476Y-47199866D02*
X97142857Y-47152247D01*
X97142857Y-47152247D02*
X97047619Y-47104628D01*
X97047619Y-47104628D02*
X96857143Y-47057009D01*
X96857143Y-47057009D02*
X96761905Y-47009390D01*
X96761905Y-47009390D02*
X96714286Y-46961771D01*
X96714286Y-46961771D02*
X96666667Y-46866533D01*
X96666667Y-46866533D02*
X96666667Y-46771295D01*
X96666667Y-46771295D02*
X96714286Y-46676057D01*
X96714286Y-46676057D02*
X96761905Y-46628438D01*
X96761905Y-46628438D02*
X96857143Y-46580819D01*
X96857143Y-46580819D02*
X97095238Y-46580819D01*
X97095238Y-46580819D02*
X97238095Y-46628438D01*
X97571429Y-46580819D02*
X97809524Y-47580819D01*
X97809524Y-47580819D02*
X98000000Y-46866533D01*
X98000000Y-46866533D02*
X98190476Y-47580819D01*
X98190476Y-47580819D02*
X98428572Y-46580819D01*
X98761905Y-46676057D02*
X98809524Y-46628438D01*
X98809524Y-46628438D02*
X98904762Y-46580819D01*
X98904762Y-46580819D02*
X99142857Y-46580819D01*
X99142857Y-46580819D02*
X99238095Y-46628438D01*
X99238095Y-46628438D02*
X99285714Y-46676057D01*
X99285714Y-46676057D02*
X99333333Y-46771295D01*
X99333333Y-46771295D02*
X99333333Y-46866533D01*
X99333333Y-46866533D02*
X99285714Y-47009390D01*
X99285714Y-47009390D02*
X98714286Y-47580819D01*
X98714286Y-47580819D02*
X99333333Y-47580819D01*
X80511905Y-59334819D02*
X80511905Y-58334819D01*
X80511905Y-58334819D02*
X80750000Y-58334819D01*
X80750000Y-58334819D02*
X80892857Y-58382438D01*
X80892857Y-58382438D02*
X80988095Y-58477676D01*
X80988095Y-58477676D02*
X81035714Y-58572914D01*
X81035714Y-58572914D02*
X81083333Y-58763390D01*
X81083333Y-58763390D02*
X81083333Y-58906247D01*
X81083333Y-58906247D02*
X81035714Y-59096723D01*
X81035714Y-59096723D02*
X80988095Y-59191961D01*
X80988095Y-59191961D02*
X80892857Y-59287200D01*
X80892857Y-59287200D02*
X80750000Y-59334819D01*
X80750000Y-59334819D02*
X80511905Y-59334819D01*
X81940476Y-58668152D02*
X81940476Y-59334819D01*
X81702381Y-58287200D02*
X81464286Y-59001485D01*
X81464286Y-59001485D02*
X82083333Y-59001485D01*
X77178095Y-59654819D02*
X77178095Y-58654819D01*
X77749523Y-59654819D02*
X77320952Y-59083390D01*
X77749523Y-58654819D02*
X77178095Y-59226247D01*
X116166667Y-67033200D02*
X116309524Y-67080819D01*
X116309524Y-67080819D02*
X116547619Y-67080819D01*
X116547619Y-67080819D02*
X116642857Y-67033200D01*
X116642857Y-67033200D02*
X116690476Y-66985580D01*
X116690476Y-66985580D02*
X116738095Y-66890342D01*
X116738095Y-66890342D02*
X116738095Y-66795104D01*
X116738095Y-66795104D02*
X116690476Y-66699866D01*
X116690476Y-66699866D02*
X116642857Y-66652247D01*
X116642857Y-66652247D02*
X116547619Y-66604628D01*
X116547619Y-66604628D02*
X116357143Y-66557009D01*
X116357143Y-66557009D02*
X116261905Y-66509390D01*
X116261905Y-66509390D02*
X116214286Y-66461771D01*
X116214286Y-66461771D02*
X116166667Y-66366533D01*
X116166667Y-66366533D02*
X116166667Y-66271295D01*
X116166667Y-66271295D02*
X116214286Y-66176057D01*
X116214286Y-66176057D02*
X116261905Y-66128438D01*
X116261905Y-66128438D02*
X116357143Y-66080819D01*
X116357143Y-66080819D02*
X116595238Y-66080819D01*
X116595238Y-66080819D02*
X116738095Y-66128438D01*
X117071429Y-66080819D02*
X117309524Y-67080819D01*
X117309524Y-67080819D02*
X117500000Y-66366533D01*
X117500000Y-66366533D02*
X117690476Y-67080819D01*
X117690476Y-67080819D02*
X117928572Y-66080819D01*
X118785714Y-66080819D02*
X118309524Y-66080819D01*
X118309524Y-66080819D02*
X118261905Y-66557009D01*
X118261905Y-66557009D02*
X118309524Y-66509390D01*
X118309524Y-66509390D02*
X118404762Y-66461771D01*
X118404762Y-66461771D02*
X118642857Y-66461771D01*
X118642857Y-66461771D02*
X118738095Y-66509390D01*
X118738095Y-66509390D02*
X118785714Y-66557009D01*
X118785714Y-66557009D02*
X118833333Y-66652247D01*
X118833333Y-66652247D02*
X118833333Y-66890342D01*
X118833333Y-66890342D02*
X118785714Y-66985580D01*
X118785714Y-66985580D02*
X118738095Y-67033200D01*
X118738095Y-67033200D02*
X118642857Y-67080819D01*
X118642857Y-67080819D02*
X118404762Y-67080819D01*
X118404762Y-67080819D02*
X118309524Y-67033200D01*
X118309524Y-67033200D02*
X118261905Y-66985580D01*
X80511905Y-52334819D02*
X80511905Y-51334819D01*
X80511905Y-51334819D02*
X80750000Y-51334819D01*
X80750000Y-51334819D02*
X80892857Y-51382438D01*
X80892857Y-51382438D02*
X80988095Y-51477676D01*
X80988095Y-51477676D02*
X81035714Y-51572914D01*
X81035714Y-51572914D02*
X81083333Y-51763390D01*
X81083333Y-51763390D02*
X81083333Y-51906247D01*
X81083333Y-51906247D02*
X81035714Y-52096723D01*
X81035714Y-52096723D02*
X80988095Y-52191961D01*
X80988095Y-52191961D02*
X80892857Y-52287200D01*
X80892857Y-52287200D02*
X80750000Y-52334819D01*
X80750000Y-52334819D02*
X80511905Y-52334819D01*
X81940476Y-51334819D02*
X81750000Y-51334819D01*
X81750000Y-51334819D02*
X81654762Y-51382438D01*
X81654762Y-51382438D02*
X81607143Y-51430057D01*
X81607143Y-51430057D02*
X81511905Y-51572914D01*
X81511905Y-51572914D02*
X81464286Y-51763390D01*
X81464286Y-51763390D02*
X81464286Y-52144342D01*
X81464286Y-52144342D02*
X81511905Y-52239580D01*
X81511905Y-52239580D02*
X81559524Y-52287200D01*
X81559524Y-52287200D02*
X81654762Y-52334819D01*
X81654762Y-52334819D02*
X81845238Y-52334819D01*
X81845238Y-52334819D02*
X81940476Y-52287200D01*
X81940476Y-52287200D02*
X81988095Y-52239580D01*
X81988095Y-52239580D02*
X82035714Y-52144342D01*
X82035714Y-52144342D02*
X82035714Y-51906247D01*
X82035714Y-51906247D02*
X81988095Y-51811009D01*
X81988095Y-51811009D02*
X81940476Y-51763390D01*
X81940476Y-51763390D02*
X81845238Y-51715771D01*
X81845238Y-51715771D02*
X81654762Y-51715771D01*
X81654762Y-51715771D02*
X81559524Y-51763390D01*
X81559524Y-51763390D02*
X81511905Y-51811009D01*
X81511905Y-51811009D02*
X81464286Y-51906247D01*
X77178095Y-52654819D02*
X77178095Y-51654819D01*
X77749523Y-52654819D02*
X77320952Y-52083390D01*
X77749523Y-51654819D02*
X77178095Y-52226247D01*
X96666667Y-67033200D02*
X96809524Y-67080819D01*
X96809524Y-67080819D02*
X97047619Y-67080819D01*
X97047619Y-67080819D02*
X97142857Y-67033200D01*
X97142857Y-67033200D02*
X97190476Y-66985580D01*
X97190476Y-66985580D02*
X97238095Y-66890342D01*
X97238095Y-66890342D02*
X97238095Y-66795104D01*
X97238095Y-66795104D02*
X97190476Y-66699866D01*
X97190476Y-66699866D02*
X97142857Y-66652247D01*
X97142857Y-66652247D02*
X97047619Y-66604628D01*
X97047619Y-66604628D02*
X96857143Y-66557009D01*
X96857143Y-66557009D02*
X96761905Y-66509390D01*
X96761905Y-66509390D02*
X96714286Y-66461771D01*
X96714286Y-66461771D02*
X96666667Y-66366533D01*
X96666667Y-66366533D02*
X96666667Y-66271295D01*
X96666667Y-66271295D02*
X96714286Y-66176057D01*
X96714286Y-66176057D02*
X96761905Y-66128438D01*
X96761905Y-66128438D02*
X96857143Y-66080819D01*
X96857143Y-66080819D02*
X97095238Y-66080819D01*
X97095238Y-66080819D02*
X97238095Y-66128438D01*
X97571429Y-66080819D02*
X97809524Y-67080819D01*
X97809524Y-67080819D02*
X98000000Y-66366533D01*
X98000000Y-66366533D02*
X98190476Y-67080819D01*
X98190476Y-67080819D02*
X98428572Y-66080819D01*
X99238095Y-66414152D02*
X99238095Y-67080819D01*
X99000000Y-66033200D02*
X98761905Y-66747485D01*
X98761905Y-66747485D02*
X99380952Y-66747485D01*
X116166667Y-47533200D02*
X116309524Y-47580819D01*
X116309524Y-47580819D02*
X116547619Y-47580819D01*
X116547619Y-47580819D02*
X116642857Y-47533200D01*
X116642857Y-47533200D02*
X116690476Y-47485580D01*
X116690476Y-47485580D02*
X116738095Y-47390342D01*
X116738095Y-47390342D02*
X116738095Y-47295104D01*
X116738095Y-47295104D02*
X116690476Y-47199866D01*
X116690476Y-47199866D02*
X116642857Y-47152247D01*
X116642857Y-47152247D02*
X116547619Y-47104628D01*
X116547619Y-47104628D02*
X116357143Y-47057009D01*
X116357143Y-47057009D02*
X116261905Y-47009390D01*
X116261905Y-47009390D02*
X116214286Y-46961771D01*
X116214286Y-46961771D02*
X116166667Y-46866533D01*
X116166667Y-46866533D02*
X116166667Y-46771295D01*
X116166667Y-46771295D02*
X116214286Y-46676057D01*
X116214286Y-46676057D02*
X116261905Y-46628438D01*
X116261905Y-46628438D02*
X116357143Y-46580819D01*
X116357143Y-46580819D02*
X116595238Y-46580819D01*
X116595238Y-46580819D02*
X116738095Y-46628438D01*
X117071429Y-46580819D02*
X117309524Y-47580819D01*
X117309524Y-47580819D02*
X117500000Y-46866533D01*
X117500000Y-46866533D02*
X117690476Y-47580819D01*
X117690476Y-47580819D02*
X117928572Y-46580819D01*
X118214286Y-46580819D02*
X118833333Y-46580819D01*
X118833333Y-46580819D02*
X118500000Y-46961771D01*
X118500000Y-46961771D02*
X118642857Y-46961771D01*
X118642857Y-46961771D02*
X118738095Y-47009390D01*
X118738095Y-47009390D02*
X118785714Y-47057009D01*
X118785714Y-47057009D02*
X118833333Y-47152247D01*
X118833333Y-47152247D02*
X118833333Y-47390342D01*
X118833333Y-47390342D02*
X118785714Y-47485580D01*
X118785714Y-47485580D02*
X118738095Y-47533200D01*
X118738095Y-47533200D02*
X118642857Y-47580819D01*
X118642857Y-47580819D02*
X118357143Y-47580819D01*
X118357143Y-47580819D02*
X118261905Y-47533200D01*
X118261905Y-47533200D02*
X118214286Y-47485580D01*
X135666667Y-67033200D02*
X135809524Y-67080819D01*
X135809524Y-67080819D02*
X136047619Y-67080819D01*
X136047619Y-67080819D02*
X136142857Y-67033200D01*
X136142857Y-67033200D02*
X136190476Y-66985580D01*
X136190476Y-66985580D02*
X136238095Y-66890342D01*
X136238095Y-66890342D02*
X136238095Y-66795104D01*
X136238095Y-66795104D02*
X136190476Y-66699866D01*
X136190476Y-66699866D02*
X136142857Y-66652247D01*
X136142857Y-66652247D02*
X136047619Y-66604628D01*
X136047619Y-66604628D02*
X135857143Y-66557009D01*
X135857143Y-66557009D02*
X135761905Y-66509390D01*
X135761905Y-66509390D02*
X135714286Y-66461771D01*
X135714286Y-66461771D02*
X135666667Y-66366533D01*
X135666667Y-66366533D02*
X135666667Y-66271295D01*
X135666667Y-66271295D02*
X135714286Y-66176057D01*
X135714286Y-66176057D02*
X135761905Y-66128438D01*
X135761905Y-66128438D02*
X135857143Y-66080819D01*
X135857143Y-66080819D02*
X136095238Y-66080819D01*
X136095238Y-66080819D02*
X136238095Y-66128438D01*
X136571429Y-66080819D02*
X136809524Y-67080819D01*
X136809524Y-67080819D02*
X137000000Y-66366533D01*
X137000000Y-66366533D02*
X137190476Y-67080819D01*
X137190476Y-67080819D02*
X137428572Y-66080819D01*
X138238095Y-66080819D02*
X138047619Y-66080819D01*
X138047619Y-66080819D02*
X137952381Y-66128438D01*
X137952381Y-66128438D02*
X137904762Y-66176057D01*
X137904762Y-66176057D02*
X137809524Y-66318914D01*
X137809524Y-66318914D02*
X137761905Y-66509390D01*
X137761905Y-66509390D02*
X137761905Y-66890342D01*
X137761905Y-66890342D02*
X137809524Y-66985580D01*
X137809524Y-66985580D02*
X137857143Y-67033200D01*
X137857143Y-67033200D02*
X137952381Y-67080819D01*
X137952381Y-67080819D02*
X138142857Y-67080819D01*
X138142857Y-67080819D02*
X138238095Y-67033200D01*
X138238095Y-67033200D02*
X138285714Y-66985580D01*
X138285714Y-66985580D02*
X138333333Y-66890342D01*
X138333333Y-66890342D02*
X138333333Y-66652247D01*
X138333333Y-66652247D02*
X138285714Y-66557009D01*
X138285714Y-66557009D02*
X138238095Y-66509390D01*
X138238095Y-66509390D02*
X138142857Y-66461771D01*
X138142857Y-66461771D02*
X137952381Y-66461771D01*
X137952381Y-66461771D02*
X137857143Y-66509390D01*
X137857143Y-66509390D02*
X137809524Y-66557009D01*
X137809524Y-66557009D02*
X137761905Y-66652247D01*
D12*
%TO.C,D2*%
X78480000Y-47000000D02*
X79130000Y-47000000D01*
X79130000Y-45880000D02*
X79130000Y-48120000D01*
X79130000Y-48120000D02*
X83370000Y-48120000D01*
X79730000Y-45880000D02*
X79730000Y-48120000D01*
X79850000Y-45880000D02*
X79850000Y-48120000D01*
X79970000Y-45880000D02*
X79970000Y-48120000D01*
X83370000Y-45880000D02*
X79130000Y-45880000D01*
X83370000Y-48120000D02*
X83370000Y-45880000D01*
X84020000Y-47000000D02*
X83370000Y-47000000D01*
D13*
%TO.C,U1*%
X89100000Y-19750000D02*
X89100000Y-36750000D01*
X91100000Y-38750000D02*
X104900000Y-38750000D01*
X93500000Y-16325970D02*
X102500000Y-16325970D01*
X93500000Y-23679270D02*
X93500000Y-16325970D01*
X102500000Y-16325970D02*
X102500000Y-23679270D01*
X102500000Y-23679270D02*
X93500000Y-23679270D01*
X104900000Y-17750910D02*
X91100000Y-17750910D01*
X106900000Y-36750000D02*
X106900000Y-19750000D01*
D12*
X89100000Y-19750000D02*
G75*
G02*
X91100000Y-17750000I2044612J-44612D01*
G01*
X91100000Y-38750000D02*
G75*
G02*
X89100000Y-36750000I44857J2044857D01*
G01*
X104900000Y-17750000D02*
G75*
G02*
X106900000Y-19750000I-44600J-2044600D01*
G01*
X106900000Y-36750000D02*
G75*
G02*
X104900000Y-38750000I-2000000J0D01*
G01*
D14*
X87127000Y-19450000D02*
G75*
G02*
X86873000Y-19450000I-127000J0D01*
G01*
X86873000Y-19450000D02*
G75*
G02*
X87127000Y-19450000I127000J0D01*
G01*
D15*
X89112285Y-19688295D02*
X89115333Y-19639527D01*
X89119397Y-19590506D01*
X89112285Y-19688295D01*
X106887713Y-36820850D02*
X106884665Y-36869618D01*
X106880601Y-36918639D01*
X106875268Y-36967407D01*
X106868664Y-37016175D01*
X106861044Y-37064690D01*
X106852153Y-37112950D01*
X106842248Y-37160955D01*
X106889492Y-36771574D01*
X106887713Y-36820850D01*
D12*
%TO.C,J1*%
X109295000Y-25670000D02*
X110625000Y-25670000D01*
X109295000Y-27000000D02*
X109295000Y-25670000D01*
X109295000Y-28270000D02*
X109295000Y-35950000D01*
X109295000Y-28270000D02*
X111955000Y-28270000D01*
X109295000Y-35950000D02*
X111955000Y-35950000D01*
X111955000Y-28270000D02*
X111955000Y-35950000D01*
%TO.C,D5*%
X78480000Y-57500000D02*
X79130000Y-57500000D01*
X79130000Y-56380000D02*
X79130000Y-58620000D01*
X79130000Y-58620000D02*
X83370000Y-58620000D01*
X79730000Y-56380000D02*
X79730000Y-58620000D01*
X79850000Y-56380000D02*
X79850000Y-58620000D01*
X79970000Y-56380000D02*
X79970000Y-58620000D01*
X83370000Y-56380000D02*
X79130000Y-56380000D01*
X83370000Y-58620000D02*
X83370000Y-56380000D01*
X84020000Y-57500000D02*
X83370000Y-57500000D01*
%TO.C,D1*%
X78480000Y-50500000D02*
X79130000Y-50500000D01*
X79130000Y-49380000D02*
X79130000Y-51620000D01*
X79130000Y-51620000D02*
X83370000Y-51620000D01*
X79730000Y-49380000D02*
X79730000Y-51620000D01*
X79850000Y-49380000D02*
X79850000Y-51620000D01*
X79970000Y-49380000D02*
X79970000Y-51620000D01*
X83370000Y-49380000D02*
X79130000Y-49380000D01*
X83370000Y-51620000D02*
X83370000Y-49380000D01*
X84020000Y-50500000D02*
X83370000Y-50500000D01*
%TO.C,SW1*%
X130650000Y-49100000D02*
X134750000Y-49100000D01*
X130650000Y-51500000D02*
X130650000Y-49100000D01*
X130650000Y-56300000D02*
X130650000Y-53700000D01*
X130650000Y-60900000D02*
X130650000Y-58500000D01*
X134750000Y-60900000D02*
X130650000Y-60900000D01*
X136750000Y-55500000D02*
X136750000Y-54500000D01*
X137250000Y-55000000D02*
X136250000Y-55000000D01*
X138750000Y-49100000D02*
X142850000Y-49100000D01*
X138750000Y-60900000D02*
X142850000Y-60900000D01*
X142850000Y-60900000D02*
X142850000Y-49100000D01*
X143950000Y-59100000D02*
X144250000Y-58800000D01*
X144250000Y-58800000D02*
X144550000Y-59100000D01*
X144550000Y-59100000D02*
X143950000Y-59100000D01*
X139750000Y-55000000D02*
G75*
G02*
X133750000Y-55000000I-3000000J0D01*
G01*
X133750000Y-55000000D02*
G75*
G02*
X139750000Y-55000000I3000000J0D01*
G01*
%TO.C,D3*%
X78480000Y-64500000D02*
X79130000Y-64500000D01*
X79130000Y-63380000D02*
X79130000Y-65620000D01*
X79130000Y-65620000D02*
X83370000Y-65620000D01*
X79730000Y-63380000D02*
X79730000Y-65620000D01*
X79850000Y-63380000D02*
X79850000Y-65620000D01*
X79970000Y-63380000D02*
X79970000Y-65620000D01*
X83370000Y-63380000D02*
X79130000Y-63380000D01*
X83370000Y-65620000D02*
X83370000Y-63380000D01*
X84020000Y-64500000D02*
X83370000Y-64500000D01*
%TO.C,SW2*%
X91015000Y-48015000D02*
X104985000Y-48015000D01*
X91015000Y-61985000D02*
X91015000Y-48015000D01*
X104985000Y-48015000D02*
X104985000Y-61985000D01*
X104985000Y-61985000D02*
X91015000Y-61985000D01*
%TO.C,D4*%
X78480000Y-61000000D02*
X79130000Y-61000000D01*
X79130000Y-59880000D02*
X79130000Y-62120000D01*
X79130000Y-62120000D02*
X83370000Y-62120000D01*
X79730000Y-59880000D02*
X79730000Y-62120000D01*
X79850000Y-59880000D02*
X79850000Y-62120000D01*
X79970000Y-59880000D02*
X79970000Y-62120000D01*
X83370000Y-59880000D02*
X79130000Y-59880000D01*
X83370000Y-62120000D02*
X83370000Y-59880000D01*
X84020000Y-61000000D02*
X83370000Y-61000000D01*
%TO.C,SW5*%
X110515000Y-67515000D02*
X124485000Y-67515000D01*
X110515000Y-81485000D02*
X110515000Y-67515000D01*
X124485000Y-67515000D02*
X124485000Y-81485000D01*
X124485000Y-81485000D02*
X110515000Y-81485000D01*
%TO.C,D6*%
X78480000Y-54000000D02*
X79130000Y-54000000D01*
X79130000Y-52880000D02*
X79130000Y-55120000D01*
X79130000Y-55120000D02*
X83370000Y-55120000D01*
X79730000Y-52880000D02*
X79730000Y-55120000D01*
X79850000Y-52880000D02*
X79850000Y-55120000D01*
X79970000Y-52880000D02*
X79970000Y-55120000D01*
X83370000Y-52880000D02*
X79130000Y-52880000D01*
X83370000Y-55120000D02*
X83370000Y-52880000D01*
X84020000Y-54000000D02*
X83370000Y-54000000D01*
%TO.C,SW4*%
X91015000Y-67515000D02*
X104985000Y-67515000D01*
X91015000Y-81485000D02*
X91015000Y-67515000D01*
X104985000Y-67515000D02*
X104985000Y-81485000D01*
X104985000Y-81485000D02*
X91015000Y-81485000D01*
%TO.C,SW3*%
X110515000Y-48015000D02*
X124485000Y-48015000D01*
X110515000Y-61985000D02*
X110515000Y-48015000D01*
X124485000Y-48015000D02*
X124485000Y-61985000D01*
X124485000Y-61985000D02*
X110515000Y-61985000D01*
%TO.C,SW6*%
X130015000Y-67515000D02*
X143985000Y-67515000D01*
X130015000Y-81485000D02*
X130015000Y-67515000D01*
X143985000Y-67515000D02*
X143985000Y-81485000D01*
X143985000Y-81485000D02*
X130015000Y-81485000D01*
%TD*%
M02*
