%TF.GenerationSoftware,KiCad,Pcbnew,8.0.5*%
%TF.CreationDate,2024-10-20T15:54:26-05:00*%
%TF.ProjectId,hackpad,6861636b-7061-4642-9e6b-696361645f70,rev?*%
%TF.SameCoordinates,Original*%
%TF.FileFunction,Drillmap*%
%TF.FilePolarity,Positive*%
%FSLAX45Y45*%
G04 Gerber Fmt 4.5, Leading zero omitted, Abs format (unit mm)*
G04 Created by KiCad (PCBNEW 8.0.5) date 2024-10-20 15:54:26*
%MOMM*%
%LPD*%
G01*
G04 APERTURE LIST*
%ADD10C,0.050000*%
%ADD11C,0.200000*%
%ADD12C,0.100000*%
%ADD13C,0.150000*%
G04 APERTURE END LIST*
D10*
X7275000Y-8675000D02*
X14975000Y-8675000D01*
X7275000Y-1675000D02*
X7275000Y-8675000D01*
X7275000Y-1675000D02*
X14975000Y-1675000D01*
X14975000Y-8675000D02*
X14975000Y-1675000D01*
D11*
D12*
X11085000Y-4660000D02*
X11115000Y-4690000D01*
X11115000Y-4660000D02*
X11085000Y-4690000D01*
X11460000Y-3160000D02*
X11490000Y-3190000D01*
X11490000Y-3160000D02*
X11460000Y-3190000D01*
X7784000Y-4700000D02*
G75*
G02*
X7704000Y-4700000I-40000J0D01*
G01*
X7704000Y-4700000D02*
G75*
G02*
X7784000Y-4700000I40000J0D01*
G01*
X7784000Y-5050000D02*
G75*
G02*
X7704000Y-5050000I-40000J0D01*
G01*
X7704000Y-5050000D02*
G75*
G02*
X7784000Y-5050000I40000J0D01*
G01*
X7784000Y-5400000D02*
G75*
G02*
X7704000Y-5400000I-40000J0D01*
G01*
X7704000Y-5400000D02*
G75*
G02*
X7784000Y-5400000I40000J0D01*
G01*
X7784000Y-5750000D02*
G75*
G02*
X7704000Y-5750000I-40000J0D01*
G01*
X7704000Y-5750000D02*
G75*
G02*
X7784000Y-5750000I40000J0D01*
G01*
X7784000Y-6100000D02*
G75*
G02*
X7704000Y-6100000I-40000J0D01*
G01*
X7704000Y-6100000D02*
G75*
G02*
X7784000Y-6100000I40000J0D01*
G01*
X7784000Y-6450000D02*
G75*
G02*
X7704000Y-6450000I-40000J0D01*
G01*
X7704000Y-6450000D02*
G75*
G02*
X7784000Y-6450000I40000J0D01*
G01*
X8546000Y-4700000D02*
G75*
G02*
X8466000Y-4700000I-40000J0D01*
G01*
X8466000Y-4700000D02*
G75*
G02*
X8546000Y-4700000I40000J0D01*
G01*
X8546000Y-5050000D02*
G75*
G02*
X8466000Y-5050000I-40000J0D01*
G01*
X8466000Y-5050000D02*
G75*
G02*
X8546000Y-5050000I40000J0D01*
G01*
X8546000Y-5400000D02*
G75*
G02*
X8466000Y-5400000I-40000J0D01*
G01*
X8466000Y-5400000D02*
G75*
G02*
X8546000Y-5400000I40000J0D01*
G01*
X8546000Y-5750000D02*
G75*
G02*
X8466000Y-5750000I-40000J0D01*
G01*
X8466000Y-5750000D02*
G75*
G02*
X8546000Y-5750000I40000J0D01*
G01*
X8546000Y-6100000D02*
G75*
G02*
X8466000Y-6100000I-40000J0D01*
G01*
X8466000Y-6100000D02*
G75*
G02*
X8546000Y-6100000I40000J0D01*
G01*
X8546000Y-6450000D02*
G75*
G02*
X8466000Y-6450000I-40000J0D01*
G01*
X8466000Y-6450000D02*
G75*
G02*
X8546000Y-6450000I40000J0D01*
G01*
X9037500Y-2013000D02*
X9037500Y-2113000D01*
X8987500Y-2063000D02*
X9087500Y-2063000D01*
X9037500Y-2267000D02*
X9037500Y-2367000D01*
X8987500Y-2317000D02*
X9087500Y-2317000D01*
X9037500Y-2521000D02*
X9037500Y-2621000D01*
X8987500Y-2571000D02*
X9087500Y-2571000D01*
X9037500Y-2775000D02*
X9037500Y-2875000D01*
X8987500Y-2825000D02*
X9087500Y-2825000D01*
X9037500Y-3029000D02*
X9037500Y-3129000D01*
X8987500Y-3079000D02*
X9087500Y-3079000D01*
X9037500Y-3283000D02*
X9037500Y-3383000D01*
X8987500Y-3333000D02*
X9087500Y-3333000D01*
X9037500Y-3537000D02*
X9037500Y-3637000D01*
X8987500Y-3587000D02*
X9087500Y-3587000D01*
X10562500Y-2013000D02*
X10562500Y-2113000D01*
X10512500Y-2063000D02*
X10612500Y-2063000D01*
X10562500Y-2267000D02*
X10562500Y-2367000D01*
X10512500Y-2317000D02*
X10612500Y-2317000D01*
X10562500Y-2521000D02*
X10562500Y-2621000D01*
X10512500Y-2571000D02*
X10612500Y-2571000D01*
X10562500Y-2775000D02*
X10562500Y-2875000D01*
X10512500Y-2825000D02*
X10612500Y-2825000D01*
X10562500Y-3029000D02*
X10562500Y-3129000D01*
X10512500Y-3079000D02*
X10612500Y-3079000D01*
X10562500Y-3283000D02*
X10562500Y-3383000D01*
X10512500Y-3333000D02*
X10612500Y-3333000D01*
X10562500Y-3537000D02*
X10562500Y-3637000D01*
X10512500Y-3587000D02*
X10612500Y-3587000D01*
X11062500Y-2650000D02*
X11062500Y-2750000D01*
X11012500Y-2700000D02*
X11112500Y-2700000D01*
X11062500Y-2904000D02*
X11062500Y-3004000D01*
X11012500Y-2954000D02*
X11112500Y-2954000D01*
X11062500Y-3158000D02*
X11062500Y-3258000D01*
X11012500Y-3208000D02*
X11112500Y-3208000D01*
X11062500Y-3412000D02*
X11062500Y-3512000D01*
X11012500Y-3462000D02*
X11112500Y-3462000D01*
X12975000Y-5200000D02*
X12975000Y-5300000D01*
X12925000Y-5250000D02*
X13025000Y-5250000D01*
X12975000Y-5700000D02*
X12975000Y-5800000D01*
X12925000Y-5750000D02*
X13025000Y-5750000D01*
X14425000Y-5200000D02*
X14425000Y-5300000D01*
X14375000Y-5250000D02*
X14475000Y-5250000D01*
X14425000Y-5450000D02*
X14425000Y-5550000D01*
X14375000Y-5500000D02*
X14475000Y-5500000D01*
X14425000Y-5700000D02*
X14425000Y-5800000D01*
X14375000Y-5750000D02*
X14475000Y-5750000D01*
D13*
X9472034Y-5299034D02*
X9472034Y-5192967D01*
X9365967Y-5192967D01*
X9365967Y-5299034D01*
X9472034Y-5299034D01*
X9472034Y-7249033D02*
X9472034Y-7142966D01*
X9365967Y-7142966D01*
X9365967Y-7249033D01*
X9472034Y-7249033D01*
X10107034Y-5045034D02*
X10107034Y-4938967D01*
X10000967Y-4938967D01*
X10000967Y-5045034D01*
X10107034Y-5045034D01*
X10107034Y-6995033D02*
X10107034Y-6888966D01*
X10000967Y-6888966D01*
X10000967Y-6995033D01*
X10107034Y-6995033D01*
X11422033Y-5299034D02*
X11422033Y-5192967D01*
X11315966Y-5192967D01*
X11315966Y-5299034D01*
X11422033Y-5299034D01*
X11422033Y-7249033D02*
X11422033Y-7142966D01*
X11315966Y-7142966D01*
X11315966Y-7249033D01*
X11422033Y-7249033D01*
X12057033Y-5045034D02*
X12057033Y-4938967D01*
X11950966Y-4938967D01*
X11950966Y-5045034D01*
X12057033Y-5045034D01*
X12057033Y-6995033D02*
X12057033Y-6888966D01*
X11950966Y-6888966D01*
X11950966Y-6995033D01*
X12057033Y-6995033D01*
X13372033Y-7249033D02*
X13372033Y-7142966D01*
X13265966Y-7142966D01*
X13265966Y-7249033D01*
X13372033Y-7249033D01*
X13728033Y-4993034D02*
X13728033Y-4886967D01*
X13621966Y-4886967D01*
X13621966Y-4993034D01*
X13728033Y-4993034D01*
D12*
X13740000Y-4865000D02*
X13610000Y-4865000D01*
X13610000Y-5015000D02*
G75*
G02*
X13610000Y-4865000I0J75000D01*
G01*
X13610000Y-5015000D02*
X13740000Y-5015000D01*
X13740000Y-5015000D02*
G75*
G03*
X13740000Y-4865000I0J75000D01*
G01*
D13*
X13728033Y-6113033D02*
X13728033Y-6006966D01*
X13621966Y-6006966D01*
X13621966Y-6113033D01*
X13728033Y-6113033D01*
D12*
X13740000Y-5985000D02*
X13610000Y-5985000D01*
X13610000Y-6135000D02*
G75*
G02*
X13610000Y-5985000I0J75000D01*
G01*
X13610000Y-6135000D02*
X13740000Y-6135000D01*
X13740000Y-6135000D02*
G75*
G03*
X13740000Y-5985000I0J75000D01*
G01*
D13*
X14007033Y-6995033D02*
X14007033Y-6888966D01*
X13900966Y-6888966D01*
X13900966Y-6995033D01*
X14007033Y-6995033D01*
D11*
X7533277Y-8988984D02*
X7533277Y-8788984D01*
X7533277Y-8788984D02*
X7580896Y-8788984D01*
X7580896Y-8788984D02*
X7609467Y-8798508D01*
X7609467Y-8798508D02*
X7628515Y-8817555D01*
X7628515Y-8817555D02*
X7638039Y-8836603D01*
X7638039Y-8836603D02*
X7647562Y-8874698D01*
X7647562Y-8874698D02*
X7647562Y-8903270D01*
X7647562Y-8903270D02*
X7638039Y-8941365D01*
X7638039Y-8941365D02*
X7628515Y-8960412D01*
X7628515Y-8960412D02*
X7609467Y-8979460D01*
X7609467Y-8979460D02*
X7580896Y-8988984D01*
X7580896Y-8988984D02*
X7533277Y-8988984D01*
X7733277Y-8988984D02*
X7733277Y-8855650D01*
X7733277Y-8893746D02*
X7742801Y-8874698D01*
X7742801Y-8874698D02*
X7752324Y-8865174D01*
X7752324Y-8865174D02*
X7771372Y-8855650D01*
X7771372Y-8855650D02*
X7790420Y-8855650D01*
X7857086Y-8988984D02*
X7857086Y-8855650D01*
X7857086Y-8788984D02*
X7847562Y-8798508D01*
X7847562Y-8798508D02*
X7857086Y-8808031D01*
X7857086Y-8808031D02*
X7866610Y-8798508D01*
X7866610Y-8798508D02*
X7857086Y-8788984D01*
X7857086Y-8788984D02*
X7857086Y-8808031D01*
X7980896Y-8988984D02*
X7961848Y-8979460D01*
X7961848Y-8979460D02*
X7952324Y-8960412D01*
X7952324Y-8960412D02*
X7952324Y-8788984D01*
X8085658Y-8988984D02*
X8066610Y-8979460D01*
X8066610Y-8979460D02*
X8057086Y-8960412D01*
X8057086Y-8960412D02*
X8057086Y-8788984D01*
X8314229Y-8988984D02*
X8314229Y-8788984D01*
X8314229Y-8788984D02*
X8380896Y-8931841D01*
X8380896Y-8931841D02*
X8447563Y-8788984D01*
X8447563Y-8788984D02*
X8447563Y-8988984D01*
X8628515Y-8988984D02*
X8628515Y-8884222D01*
X8628515Y-8884222D02*
X8618991Y-8865174D01*
X8618991Y-8865174D02*
X8599944Y-8855650D01*
X8599944Y-8855650D02*
X8561848Y-8855650D01*
X8561848Y-8855650D02*
X8542801Y-8865174D01*
X8628515Y-8979460D02*
X8609467Y-8988984D01*
X8609467Y-8988984D02*
X8561848Y-8988984D01*
X8561848Y-8988984D02*
X8542801Y-8979460D01*
X8542801Y-8979460D02*
X8533277Y-8960412D01*
X8533277Y-8960412D02*
X8533277Y-8941365D01*
X8533277Y-8941365D02*
X8542801Y-8922317D01*
X8542801Y-8922317D02*
X8561848Y-8912793D01*
X8561848Y-8912793D02*
X8609467Y-8912793D01*
X8609467Y-8912793D02*
X8628515Y-8903270D01*
X8723753Y-8855650D02*
X8723753Y-9055650D01*
X8723753Y-8865174D02*
X8742801Y-8855650D01*
X8742801Y-8855650D02*
X8780896Y-8855650D01*
X8780896Y-8855650D02*
X8799944Y-8865174D01*
X8799944Y-8865174D02*
X8809467Y-8874698D01*
X8809467Y-8874698D02*
X8818991Y-8893746D01*
X8818991Y-8893746D02*
X8818991Y-8950889D01*
X8818991Y-8950889D02*
X8809467Y-8969936D01*
X8809467Y-8969936D02*
X8799944Y-8979460D01*
X8799944Y-8979460D02*
X8780896Y-8988984D01*
X8780896Y-8988984D02*
X8742801Y-8988984D01*
X8742801Y-8988984D02*
X8723753Y-8979460D01*
X8904705Y-8969936D02*
X8914229Y-8979460D01*
X8914229Y-8979460D02*
X8904705Y-8988984D01*
X8904705Y-8988984D02*
X8895182Y-8979460D01*
X8895182Y-8979460D02*
X8904705Y-8969936D01*
X8904705Y-8969936D02*
X8904705Y-8988984D01*
X8904705Y-8865174D02*
X8914229Y-8874698D01*
X8914229Y-8874698D02*
X8904705Y-8884222D01*
X8904705Y-8884222D02*
X8895182Y-8874698D01*
X8895182Y-8874698D02*
X8904705Y-8865174D01*
X8904705Y-8865174D02*
X8904705Y-8884222D01*
D12*
X7242500Y-9302500D02*
X7272500Y-9332500D01*
X7272500Y-9302500D02*
X7242500Y-9332500D01*
D11*
X7571372Y-9208984D02*
X7590420Y-9208984D01*
X7590420Y-9208984D02*
X7609467Y-9218508D01*
X7609467Y-9218508D02*
X7618991Y-9228031D01*
X7618991Y-9228031D02*
X7628515Y-9247079D01*
X7628515Y-9247079D02*
X7638039Y-9285174D01*
X7638039Y-9285174D02*
X7638039Y-9332793D01*
X7638039Y-9332793D02*
X7628515Y-9370889D01*
X7628515Y-9370889D02*
X7618991Y-9389936D01*
X7618991Y-9389936D02*
X7609467Y-9399460D01*
X7609467Y-9399460D02*
X7590420Y-9408984D01*
X7590420Y-9408984D02*
X7571372Y-9408984D01*
X7571372Y-9408984D02*
X7552324Y-9399460D01*
X7552324Y-9399460D02*
X7542801Y-9389936D01*
X7542801Y-9389936D02*
X7533277Y-9370889D01*
X7533277Y-9370889D02*
X7523753Y-9332793D01*
X7523753Y-9332793D02*
X7523753Y-9285174D01*
X7523753Y-9285174D02*
X7533277Y-9247079D01*
X7533277Y-9247079D02*
X7542801Y-9228031D01*
X7542801Y-9228031D02*
X7552324Y-9218508D01*
X7552324Y-9218508D02*
X7571372Y-9208984D01*
X7723753Y-9389936D02*
X7733277Y-9399460D01*
X7733277Y-9399460D02*
X7723753Y-9408984D01*
X7723753Y-9408984D02*
X7714229Y-9399460D01*
X7714229Y-9399460D02*
X7723753Y-9389936D01*
X7723753Y-9389936D02*
X7723753Y-9408984D01*
X7799943Y-9208984D02*
X7923753Y-9208984D01*
X7923753Y-9208984D02*
X7857086Y-9285174D01*
X7857086Y-9285174D02*
X7885658Y-9285174D01*
X7885658Y-9285174D02*
X7904705Y-9294698D01*
X7904705Y-9294698D02*
X7914229Y-9304222D01*
X7914229Y-9304222D02*
X7923753Y-9323270D01*
X7923753Y-9323270D02*
X7923753Y-9370889D01*
X7923753Y-9370889D02*
X7914229Y-9389936D01*
X7914229Y-9389936D02*
X7904705Y-9399460D01*
X7904705Y-9399460D02*
X7885658Y-9408984D01*
X7885658Y-9408984D02*
X7828515Y-9408984D01*
X7828515Y-9408984D02*
X7809467Y-9399460D01*
X7809467Y-9399460D02*
X7799943Y-9389936D01*
X8047562Y-9208984D02*
X8066610Y-9208984D01*
X8066610Y-9208984D02*
X8085658Y-9218508D01*
X8085658Y-9218508D02*
X8095182Y-9228031D01*
X8095182Y-9228031D02*
X8104705Y-9247079D01*
X8104705Y-9247079D02*
X8114229Y-9285174D01*
X8114229Y-9285174D02*
X8114229Y-9332793D01*
X8114229Y-9332793D02*
X8104705Y-9370889D01*
X8104705Y-9370889D02*
X8095182Y-9389936D01*
X8095182Y-9389936D02*
X8085658Y-9399460D01*
X8085658Y-9399460D02*
X8066610Y-9408984D01*
X8066610Y-9408984D02*
X8047562Y-9408984D01*
X8047562Y-9408984D02*
X8028515Y-9399460D01*
X8028515Y-9399460D02*
X8018991Y-9389936D01*
X8018991Y-9389936D02*
X8009467Y-9370889D01*
X8009467Y-9370889D02*
X7999943Y-9332793D01*
X7999943Y-9332793D02*
X7999943Y-9285174D01*
X7999943Y-9285174D02*
X8009467Y-9247079D01*
X8009467Y-9247079D02*
X8018991Y-9228031D01*
X8018991Y-9228031D02*
X8028515Y-9218508D01*
X8028515Y-9218508D02*
X8047562Y-9208984D01*
X8238039Y-9208984D02*
X8257086Y-9208984D01*
X8257086Y-9208984D02*
X8276134Y-9218508D01*
X8276134Y-9218508D02*
X8285658Y-9228031D01*
X8285658Y-9228031D02*
X8295182Y-9247079D01*
X8295182Y-9247079D02*
X8304705Y-9285174D01*
X8304705Y-9285174D02*
X8304705Y-9332793D01*
X8304705Y-9332793D02*
X8295182Y-9370889D01*
X8295182Y-9370889D02*
X8285658Y-9389936D01*
X8285658Y-9389936D02*
X8276134Y-9399460D01*
X8276134Y-9399460D02*
X8257086Y-9408984D01*
X8257086Y-9408984D02*
X8238039Y-9408984D01*
X8238039Y-9408984D02*
X8218991Y-9399460D01*
X8218991Y-9399460D02*
X8209467Y-9389936D01*
X8209467Y-9389936D02*
X8199943Y-9370889D01*
X8199943Y-9370889D02*
X8190420Y-9332793D01*
X8190420Y-9332793D02*
X8190420Y-9285174D01*
X8190420Y-9285174D02*
X8199943Y-9247079D01*
X8199943Y-9247079D02*
X8209467Y-9228031D01*
X8209467Y-9228031D02*
X8218991Y-9218508D01*
X8218991Y-9218508D02*
X8238039Y-9208984D01*
X8390420Y-9408984D02*
X8390420Y-9275650D01*
X8390420Y-9294698D02*
X8399944Y-9285174D01*
X8399944Y-9285174D02*
X8418991Y-9275650D01*
X8418991Y-9275650D02*
X8447563Y-9275650D01*
X8447563Y-9275650D02*
X8466610Y-9285174D01*
X8466610Y-9285174D02*
X8476134Y-9304222D01*
X8476134Y-9304222D02*
X8476134Y-9408984D01*
X8476134Y-9304222D02*
X8485658Y-9285174D01*
X8485658Y-9285174D02*
X8504705Y-9275650D01*
X8504705Y-9275650D02*
X8533277Y-9275650D01*
X8533277Y-9275650D02*
X8552325Y-9285174D01*
X8552325Y-9285174D02*
X8561848Y-9304222D01*
X8561848Y-9304222D02*
X8561848Y-9408984D01*
X8657086Y-9408984D02*
X8657086Y-9275650D01*
X8657086Y-9294698D02*
X8666610Y-9285174D01*
X8666610Y-9285174D02*
X8685658Y-9275650D01*
X8685658Y-9275650D02*
X8714229Y-9275650D01*
X8714229Y-9275650D02*
X8733277Y-9285174D01*
X8733277Y-9285174D02*
X8742801Y-9304222D01*
X8742801Y-9304222D02*
X8742801Y-9408984D01*
X8742801Y-9304222D02*
X8752325Y-9285174D01*
X8752325Y-9285174D02*
X8771372Y-9275650D01*
X8771372Y-9275650D02*
X8799944Y-9275650D01*
X8799944Y-9275650D02*
X8818991Y-9285174D01*
X8818991Y-9285174D02*
X8828515Y-9304222D01*
X8828515Y-9304222D02*
X8828515Y-9408984D01*
X9218991Y-9199460D02*
X9047563Y-9456603D01*
X9476134Y-9208984D02*
X9495182Y-9208984D01*
X9495182Y-9208984D02*
X9514229Y-9218508D01*
X9514229Y-9218508D02*
X9523753Y-9228031D01*
X9523753Y-9228031D02*
X9533277Y-9247079D01*
X9533277Y-9247079D02*
X9542801Y-9285174D01*
X9542801Y-9285174D02*
X9542801Y-9332793D01*
X9542801Y-9332793D02*
X9533277Y-9370889D01*
X9533277Y-9370889D02*
X9523753Y-9389936D01*
X9523753Y-9389936D02*
X9514229Y-9399460D01*
X9514229Y-9399460D02*
X9495182Y-9408984D01*
X9495182Y-9408984D02*
X9476134Y-9408984D01*
X9476134Y-9408984D02*
X9457087Y-9399460D01*
X9457087Y-9399460D02*
X9447563Y-9389936D01*
X9447563Y-9389936D02*
X9438039Y-9370889D01*
X9438039Y-9370889D02*
X9428515Y-9332793D01*
X9428515Y-9332793D02*
X9428515Y-9285174D01*
X9428515Y-9285174D02*
X9438039Y-9247079D01*
X9438039Y-9247079D02*
X9447563Y-9228031D01*
X9447563Y-9228031D02*
X9457087Y-9218508D01*
X9457087Y-9218508D02*
X9476134Y-9208984D01*
X9628515Y-9389936D02*
X9638039Y-9399460D01*
X9638039Y-9399460D02*
X9628515Y-9408984D01*
X9628515Y-9408984D02*
X9618991Y-9399460D01*
X9618991Y-9399460D02*
X9628515Y-9389936D01*
X9628515Y-9389936D02*
X9628515Y-9408984D01*
X9761848Y-9208984D02*
X9780896Y-9208984D01*
X9780896Y-9208984D02*
X9799944Y-9218508D01*
X9799944Y-9218508D02*
X9809468Y-9228031D01*
X9809468Y-9228031D02*
X9818991Y-9247079D01*
X9818991Y-9247079D02*
X9828515Y-9285174D01*
X9828515Y-9285174D02*
X9828515Y-9332793D01*
X9828515Y-9332793D02*
X9818991Y-9370889D01*
X9818991Y-9370889D02*
X9809468Y-9389936D01*
X9809468Y-9389936D02*
X9799944Y-9399460D01*
X9799944Y-9399460D02*
X9780896Y-9408984D01*
X9780896Y-9408984D02*
X9761848Y-9408984D01*
X9761848Y-9408984D02*
X9742801Y-9399460D01*
X9742801Y-9399460D02*
X9733277Y-9389936D01*
X9733277Y-9389936D02*
X9723753Y-9370889D01*
X9723753Y-9370889D02*
X9714229Y-9332793D01*
X9714229Y-9332793D02*
X9714229Y-9285174D01*
X9714229Y-9285174D02*
X9723753Y-9247079D01*
X9723753Y-9247079D02*
X9733277Y-9228031D01*
X9733277Y-9228031D02*
X9742801Y-9218508D01*
X9742801Y-9218508D02*
X9761848Y-9208984D01*
X10018991Y-9408984D02*
X9904706Y-9408984D01*
X9961848Y-9408984D02*
X9961848Y-9208984D01*
X9961848Y-9208984D02*
X9942801Y-9237555D01*
X9942801Y-9237555D02*
X9923753Y-9256603D01*
X9923753Y-9256603D02*
X9904706Y-9266127D01*
X10209468Y-9408984D02*
X10095182Y-9408984D01*
X10152325Y-9408984D02*
X10152325Y-9208984D01*
X10152325Y-9208984D02*
X10133277Y-9237555D01*
X10133277Y-9237555D02*
X10114229Y-9256603D01*
X10114229Y-9256603D02*
X10095182Y-9266127D01*
X10323753Y-9294698D02*
X10304706Y-9285174D01*
X10304706Y-9285174D02*
X10295182Y-9275650D01*
X10295182Y-9275650D02*
X10285658Y-9256603D01*
X10285658Y-9256603D02*
X10285658Y-9247079D01*
X10285658Y-9247079D02*
X10295182Y-9228031D01*
X10295182Y-9228031D02*
X10304706Y-9218508D01*
X10304706Y-9218508D02*
X10323753Y-9208984D01*
X10323753Y-9208984D02*
X10361849Y-9208984D01*
X10361849Y-9208984D02*
X10380896Y-9218508D01*
X10380896Y-9218508D02*
X10390420Y-9228031D01*
X10390420Y-9228031D02*
X10399944Y-9247079D01*
X10399944Y-9247079D02*
X10399944Y-9256603D01*
X10399944Y-9256603D02*
X10390420Y-9275650D01*
X10390420Y-9275650D02*
X10380896Y-9285174D01*
X10380896Y-9285174D02*
X10361849Y-9294698D01*
X10361849Y-9294698D02*
X10323753Y-9294698D01*
X10323753Y-9294698D02*
X10304706Y-9304222D01*
X10304706Y-9304222D02*
X10295182Y-9313746D01*
X10295182Y-9313746D02*
X10285658Y-9332793D01*
X10285658Y-9332793D02*
X10285658Y-9370889D01*
X10285658Y-9370889D02*
X10295182Y-9389936D01*
X10295182Y-9389936D02*
X10304706Y-9399460D01*
X10304706Y-9399460D02*
X10323753Y-9408984D01*
X10323753Y-9408984D02*
X10361849Y-9408984D01*
X10361849Y-9408984D02*
X10380896Y-9399460D01*
X10380896Y-9399460D02*
X10390420Y-9389936D01*
X10390420Y-9389936D02*
X10399944Y-9370889D01*
X10399944Y-9370889D02*
X10399944Y-9332793D01*
X10399944Y-9332793D02*
X10390420Y-9313746D01*
X10390420Y-9313746D02*
X10380896Y-9304222D01*
X10380896Y-9304222D02*
X10361849Y-9294698D01*
X10476134Y-9208984D02*
X10476134Y-9247079D01*
X10552325Y-9208984D02*
X10552325Y-9247079D01*
X10847563Y-9485174D02*
X10838039Y-9475650D01*
X10838039Y-9475650D02*
X10818991Y-9447079D01*
X10818991Y-9447079D02*
X10809468Y-9428031D01*
X10809468Y-9428031D02*
X10799944Y-9399460D01*
X10799944Y-9399460D02*
X10790420Y-9351841D01*
X10790420Y-9351841D02*
X10790420Y-9313746D01*
X10790420Y-9313746D02*
X10799944Y-9266127D01*
X10799944Y-9266127D02*
X10809468Y-9237555D01*
X10809468Y-9237555D02*
X10818991Y-9218508D01*
X10818991Y-9218508D02*
X10838039Y-9189936D01*
X10838039Y-9189936D02*
X10847563Y-9180412D01*
X10914230Y-9228031D02*
X10923753Y-9218508D01*
X10923753Y-9218508D02*
X10942801Y-9208984D01*
X10942801Y-9208984D02*
X10990420Y-9208984D01*
X10990420Y-9208984D02*
X11009468Y-9218508D01*
X11009468Y-9218508D02*
X11018991Y-9228031D01*
X11018991Y-9228031D02*
X11028515Y-9247079D01*
X11028515Y-9247079D02*
X11028515Y-9266127D01*
X11028515Y-9266127D02*
X11018991Y-9294698D01*
X11018991Y-9294698D02*
X10904706Y-9408984D01*
X10904706Y-9408984D02*
X11028515Y-9408984D01*
X11266610Y-9408984D02*
X11266610Y-9208984D01*
X11352325Y-9408984D02*
X11352325Y-9304222D01*
X11352325Y-9304222D02*
X11342801Y-9285174D01*
X11342801Y-9285174D02*
X11323753Y-9275650D01*
X11323753Y-9275650D02*
X11295182Y-9275650D01*
X11295182Y-9275650D02*
X11276134Y-9285174D01*
X11276134Y-9285174D02*
X11266610Y-9294698D01*
X11476134Y-9408984D02*
X11457087Y-9399460D01*
X11457087Y-9399460D02*
X11447563Y-9389936D01*
X11447563Y-9389936D02*
X11438039Y-9370889D01*
X11438039Y-9370889D02*
X11438039Y-9313746D01*
X11438039Y-9313746D02*
X11447563Y-9294698D01*
X11447563Y-9294698D02*
X11457087Y-9285174D01*
X11457087Y-9285174D02*
X11476134Y-9275650D01*
X11476134Y-9275650D02*
X11504706Y-9275650D01*
X11504706Y-9275650D02*
X11523753Y-9285174D01*
X11523753Y-9285174D02*
X11533277Y-9294698D01*
X11533277Y-9294698D02*
X11542801Y-9313746D01*
X11542801Y-9313746D02*
X11542801Y-9370889D01*
X11542801Y-9370889D02*
X11533277Y-9389936D01*
X11533277Y-9389936D02*
X11523753Y-9399460D01*
X11523753Y-9399460D02*
X11504706Y-9408984D01*
X11504706Y-9408984D02*
X11476134Y-9408984D01*
X11657087Y-9408984D02*
X11638039Y-9399460D01*
X11638039Y-9399460D02*
X11628515Y-9380412D01*
X11628515Y-9380412D02*
X11628515Y-9208984D01*
X11809468Y-9399460D02*
X11790420Y-9408984D01*
X11790420Y-9408984D02*
X11752325Y-9408984D01*
X11752325Y-9408984D02*
X11733277Y-9399460D01*
X11733277Y-9399460D02*
X11723753Y-9380412D01*
X11723753Y-9380412D02*
X11723753Y-9304222D01*
X11723753Y-9304222D02*
X11733277Y-9285174D01*
X11733277Y-9285174D02*
X11752325Y-9275650D01*
X11752325Y-9275650D02*
X11790420Y-9275650D01*
X11790420Y-9275650D02*
X11809468Y-9285174D01*
X11809468Y-9285174D02*
X11818991Y-9304222D01*
X11818991Y-9304222D02*
X11818991Y-9323270D01*
X11818991Y-9323270D02*
X11723753Y-9342317D01*
X11895182Y-9399460D02*
X11914230Y-9408984D01*
X11914230Y-9408984D02*
X11952325Y-9408984D01*
X11952325Y-9408984D02*
X11971372Y-9399460D01*
X11971372Y-9399460D02*
X11980896Y-9380412D01*
X11980896Y-9380412D02*
X11980896Y-9370889D01*
X11980896Y-9370889D02*
X11971372Y-9351841D01*
X11971372Y-9351841D02*
X11952325Y-9342317D01*
X11952325Y-9342317D02*
X11923753Y-9342317D01*
X11923753Y-9342317D02*
X11904706Y-9332793D01*
X11904706Y-9332793D02*
X11895182Y-9313746D01*
X11895182Y-9313746D02*
X11895182Y-9304222D01*
X11895182Y-9304222D02*
X11904706Y-9285174D01*
X11904706Y-9285174D02*
X11923753Y-9275650D01*
X11923753Y-9275650D02*
X11952325Y-9275650D01*
X11952325Y-9275650D02*
X11971372Y-9285174D01*
X12047563Y-9485174D02*
X12057087Y-9475650D01*
X12057087Y-9475650D02*
X12076134Y-9447079D01*
X12076134Y-9447079D02*
X12085658Y-9428031D01*
X12085658Y-9428031D02*
X12095182Y-9399460D01*
X12095182Y-9399460D02*
X12104706Y-9351841D01*
X12104706Y-9351841D02*
X12104706Y-9313746D01*
X12104706Y-9313746D02*
X12095182Y-9266127D01*
X12095182Y-9266127D02*
X12085658Y-9237555D01*
X12085658Y-9237555D02*
X12076134Y-9218508D01*
X12076134Y-9218508D02*
X12057087Y-9189936D01*
X12057087Y-9189936D02*
X12047563Y-9180412D01*
D12*
X7272500Y-9581500D02*
G75*
G02*
X7192500Y-9581500I-40000J0D01*
G01*
X7192500Y-9581500D02*
G75*
G02*
X7272500Y-9581500I40000J0D01*
G01*
D11*
X7571372Y-9472984D02*
X7590420Y-9472984D01*
X7590420Y-9472984D02*
X7609467Y-9482508D01*
X7609467Y-9482508D02*
X7618991Y-9492031D01*
X7618991Y-9492031D02*
X7628515Y-9511079D01*
X7628515Y-9511079D02*
X7638039Y-9549174D01*
X7638039Y-9549174D02*
X7638039Y-9596793D01*
X7638039Y-9596793D02*
X7628515Y-9634889D01*
X7628515Y-9634889D02*
X7618991Y-9653936D01*
X7618991Y-9653936D02*
X7609467Y-9663460D01*
X7609467Y-9663460D02*
X7590420Y-9672984D01*
X7590420Y-9672984D02*
X7571372Y-9672984D01*
X7571372Y-9672984D02*
X7552324Y-9663460D01*
X7552324Y-9663460D02*
X7542801Y-9653936D01*
X7542801Y-9653936D02*
X7533277Y-9634889D01*
X7533277Y-9634889D02*
X7523753Y-9596793D01*
X7523753Y-9596793D02*
X7523753Y-9549174D01*
X7523753Y-9549174D02*
X7533277Y-9511079D01*
X7533277Y-9511079D02*
X7542801Y-9492031D01*
X7542801Y-9492031D02*
X7552324Y-9482508D01*
X7552324Y-9482508D02*
X7571372Y-9472984D01*
X7723753Y-9653936D02*
X7733277Y-9663460D01*
X7733277Y-9663460D02*
X7723753Y-9672984D01*
X7723753Y-9672984D02*
X7714229Y-9663460D01*
X7714229Y-9663460D02*
X7723753Y-9653936D01*
X7723753Y-9653936D02*
X7723753Y-9672984D01*
X7847562Y-9558698D02*
X7828515Y-9549174D01*
X7828515Y-9549174D02*
X7818991Y-9539650D01*
X7818991Y-9539650D02*
X7809467Y-9520603D01*
X7809467Y-9520603D02*
X7809467Y-9511079D01*
X7809467Y-9511079D02*
X7818991Y-9492031D01*
X7818991Y-9492031D02*
X7828515Y-9482508D01*
X7828515Y-9482508D02*
X7847562Y-9472984D01*
X7847562Y-9472984D02*
X7885658Y-9472984D01*
X7885658Y-9472984D02*
X7904705Y-9482508D01*
X7904705Y-9482508D02*
X7914229Y-9492031D01*
X7914229Y-9492031D02*
X7923753Y-9511079D01*
X7923753Y-9511079D02*
X7923753Y-9520603D01*
X7923753Y-9520603D02*
X7914229Y-9539650D01*
X7914229Y-9539650D02*
X7904705Y-9549174D01*
X7904705Y-9549174D02*
X7885658Y-9558698D01*
X7885658Y-9558698D02*
X7847562Y-9558698D01*
X7847562Y-9558698D02*
X7828515Y-9568222D01*
X7828515Y-9568222D02*
X7818991Y-9577746D01*
X7818991Y-9577746D02*
X7809467Y-9596793D01*
X7809467Y-9596793D02*
X7809467Y-9634889D01*
X7809467Y-9634889D02*
X7818991Y-9653936D01*
X7818991Y-9653936D02*
X7828515Y-9663460D01*
X7828515Y-9663460D02*
X7847562Y-9672984D01*
X7847562Y-9672984D02*
X7885658Y-9672984D01*
X7885658Y-9672984D02*
X7904705Y-9663460D01*
X7904705Y-9663460D02*
X7914229Y-9653936D01*
X7914229Y-9653936D02*
X7923753Y-9634889D01*
X7923753Y-9634889D02*
X7923753Y-9596793D01*
X7923753Y-9596793D02*
X7914229Y-9577746D01*
X7914229Y-9577746D02*
X7904705Y-9568222D01*
X7904705Y-9568222D02*
X7885658Y-9558698D01*
X8047562Y-9472984D02*
X8066610Y-9472984D01*
X8066610Y-9472984D02*
X8085658Y-9482508D01*
X8085658Y-9482508D02*
X8095182Y-9492031D01*
X8095182Y-9492031D02*
X8104705Y-9511079D01*
X8104705Y-9511079D02*
X8114229Y-9549174D01*
X8114229Y-9549174D02*
X8114229Y-9596793D01*
X8114229Y-9596793D02*
X8104705Y-9634889D01*
X8104705Y-9634889D02*
X8095182Y-9653936D01*
X8095182Y-9653936D02*
X8085658Y-9663460D01*
X8085658Y-9663460D02*
X8066610Y-9672984D01*
X8066610Y-9672984D02*
X8047562Y-9672984D01*
X8047562Y-9672984D02*
X8028515Y-9663460D01*
X8028515Y-9663460D02*
X8018991Y-9653936D01*
X8018991Y-9653936D02*
X8009467Y-9634889D01*
X8009467Y-9634889D02*
X7999943Y-9596793D01*
X7999943Y-9596793D02*
X7999943Y-9549174D01*
X7999943Y-9549174D02*
X8009467Y-9511079D01*
X8009467Y-9511079D02*
X8018991Y-9492031D01*
X8018991Y-9492031D02*
X8028515Y-9482508D01*
X8028515Y-9482508D02*
X8047562Y-9472984D01*
X8238039Y-9472984D02*
X8257086Y-9472984D01*
X8257086Y-9472984D02*
X8276134Y-9482508D01*
X8276134Y-9482508D02*
X8285658Y-9492031D01*
X8285658Y-9492031D02*
X8295182Y-9511079D01*
X8295182Y-9511079D02*
X8304705Y-9549174D01*
X8304705Y-9549174D02*
X8304705Y-9596793D01*
X8304705Y-9596793D02*
X8295182Y-9634889D01*
X8295182Y-9634889D02*
X8285658Y-9653936D01*
X8285658Y-9653936D02*
X8276134Y-9663460D01*
X8276134Y-9663460D02*
X8257086Y-9672984D01*
X8257086Y-9672984D02*
X8238039Y-9672984D01*
X8238039Y-9672984D02*
X8218991Y-9663460D01*
X8218991Y-9663460D02*
X8209467Y-9653936D01*
X8209467Y-9653936D02*
X8199943Y-9634889D01*
X8199943Y-9634889D02*
X8190420Y-9596793D01*
X8190420Y-9596793D02*
X8190420Y-9549174D01*
X8190420Y-9549174D02*
X8199943Y-9511079D01*
X8199943Y-9511079D02*
X8209467Y-9492031D01*
X8209467Y-9492031D02*
X8218991Y-9482508D01*
X8218991Y-9482508D02*
X8238039Y-9472984D01*
X8390420Y-9672984D02*
X8390420Y-9539650D01*
X8390420Y-9558698D02*
X8399944Y-9549174D01*
X8399944Y-9549174D02*
X8418991Y-9539650D01*
X8418991Y-9539650D02*
X8447563Y-9539650D01*
X8447563Y-9539650D02*
X8466610Y-9549174D01*
X8466610Y-9549174D02*
X8476134Y-9568222D01*
X8476134Y-9568222D02*
X8476134Y-9672984D01*
X8476134Y-9568222D02*
X8485658Y-9549174D01*
X8485658Y-9549174D02*
X8504705Y-9539650D01*
X8504705Y-9539650D02*
X8533277Y-9539650D01*
X8533277Y-9539650D02*
X8552325Y-9549174D01*
X8552325Y-9549174D02*
X8561848Y-9568222D01*
X8561848Y-9568222D02*
X8561848Y-9672984D01*
X8657086Y-9672984D02*
X8657086Y-9539650D01*
X8657086Y-9558698D02*
X8666610Y-9549174D01*
X8666610Y-9549174D02*
X8685658Y-9539650D01*
X8685658Y-9539650D02*
X8714229Y-9539650D01*
X8714229Y-9539650D02*
X8733277Y-9549174D01*
X8733277Y-9549174D02*
X8742801Y-9568222D01*
X8742801Y-9568222D02*
X8742801Y-9672984D01*
X8742801Y-9568222D02*
X8752325Y-9549174D01*
X8752325Y-9549174D02*
X8771372Y-9539650D01*
X8771372Y-9539650D02*
X8799944Y-9539650D01*
X8799944Y-9539650D02*
X8818991Y-9549174D01*
X8818991Y-9549174D02*
X8828515Y-9568222D01*
X8828515Y-9568222D02*
X8828515Y-9672984D01*
X9218991Y-9463460D02*
X9047563Y-9720603D01*
X9476134Y-9472984D02*
X9495182Y-9472984D01*
X9495182Y-9472984D02*
X9514229Y-9482508D01*
X9514229Y-9482508D02*
X9523753Y-9492031D01*
X9523753Y-9492031D02*
X9533277Y-9511079D01*
X9533277Y-9511079D02*
X9542801Y-9549174D01*
X9542801Y-9549174D02*
X9542801Y-9596793D01*
X9542801Y-9596793D02*
X9533277Y-9634889D01*
X9533277Y-9634889D02*
X9523753Y-9653936D01*
X9523753Y-9653936D02*
X9514229Y-9663460D01*
X9514229Y-9663460D02*
X9495182Y-9672984D01*
X9495182Y-9672984D02*
X9476134Y-9672984D01*
X9476134Y-9672984D02*
X9457087Y-9663460D01*
X9457087Y-9663460D02*
X9447563Y-9653936D01*
X9447563Y-9653936D02*
X9438039Y-9634889D01*
X9438039Y-9634889D02*
X9428515Y-9596793D01*
X9428515Y-9596793D02*
X9428515Y-9549174D01*
X9428515Y-9549174D02*
X9438039Y-9511079D01*
X9438039Y-9511079D02*
X9447563Y-9492031D01*
X9447563Y-9492031D02*
X9457087Y-9482508D01*
X9457087Y-9482508D02*
X9476134Y-9472984D01*
X9628515Y-9653936D02*
X9638039Y-9663460D01*
X9638039Y-9663460D02*
X9628515Y-9672984D01*
X9628515Y-9672984D02*
X9618991Y-9663460D01*
X9618991Y-9663460D02*
X9628515Y-9653936D01*
X9628515Y-9653936D02*
X9628515Y-9672984D01*
X9761848Y-9472984D02*
X9780896Y-9472984D01*
X9780896Y-9472984D02*
X9799944Y-9482508D01*
X9799944Y-9482508D02*
X9809468Y-9492031D01*
X9809468Y-9492031D02*
X9818991Y-9511079D01*
X9818991Y-9511079D02*
X9828515Y-9549174D01*
X9828515Y-9549174D02*
X9828515Y-9596793D01*
X9828515Y-9596793D02*
X9818991Y-9634889D01*
X9818991Y-9634889D02*
X9809468Y-9653936D01*
X9809468Y-9653936D02*
X9799944Y-9663460D01*
X9799944Y-9663460D02*
X9780896Y-9672984D01*
X9780896Y-9672984D02*
X9761848Y-9672984D01*
X9761848Y-9672984D02*
X9742801Y-9663460D01*
X9742801Y-9663460D02*
X9733277Y-9653936D01*
X9733277Y-9653936D02*
X9723753Y-9634889D01*
X9723753Y-9634889D02*
X9714229Y-9596793D01*
X9714229Y-9596793D02*
X9714229Y-9549174D01*
X9714229Y-9549174D02*
X9723753Y-9511079D01*
X9723753Y-9511079D02*
X9733277Y-9492031D01*
X9733277Y-9492031D02*
X9742801Y-9482508D01*
X9742801Y-9482508D02*
X9761848Y-9472984D01*
X9895182Y-9472984D02*
X10018991Y-9472984D01*
X10018991Y-9472984D02*
X9952325Y-9549174D01*
X9952325Y-9549174D02*
X9980896Y-9549174D01*
X9980896Y-9549174D02*
X9999944Y-9558698D01*
X9999944Y-9558698D02*
X10009468Y-9568222D01*
X10009468Y-9568222D02*
X10018991Y-9587270D01*
X10018991Y-9587270D02*
X10018991Y-9634889D01*
X10018991Y-9634889D02*
X10009468Y-9653936D01*
X10009468Y-9653936D02*
X9999944Y-9663460D01*
X9999944Y-9663460D02*
X9980896Y-9672984D01*
X9980896Y-9672984D02*
X9923753Y-9672984D01*
X9923753Y-9672984D02*
X9904706Y-9663460D01*
X9904706Y-9663460D02*
X9895182Y-9653936D01*
X10209468Y-9672984D02*
X10095182Y-9672984D01*
X10152325Y-9672984D02*
X10152325Y-9472984D01*
X10152325Y-9472984D02*
X10133277Y-9501555D01*
X10133277Y-9501555D02*
X10114229Y-9520603D01*
X10114229Y-9520603D02*
X10095182Y-9530127D01*
X10390420Y-9472984D02*
X10295182Y-9472984D01*
X10295182Y-9472984D02*
X10285658Y-9568222D01*
X10285658Y-9568222D02*
X10295182Y-9558698D01*
X10295182Y-9558698D02*
X10314229Y-9549174D01*
X10314229Y-9549174D02*
X10361849Y-9549174D01*
X10361849Y-9549174D02*
X10380896Y-9558698D01*
X10380896Y-9558698D02*
X10390420Y-9568222D01*
X10390420Y-9568222D02*
X10399944Y-9587270D01*
X10399944Y-9587270D02*
X10399944Y-9634889D01*
X10399944Y-9634889D02*
X10390420Y-9653936D01*
X10390420Y-9653936D02*
X10380896Y-9663460D01*
X10380896Y-9663460D02*
X10361849Y-9672984D01*
X10361849Y-9672984D02*
X10314229Y-9672984D01*
X10314229Y-9672984D02*
X10295182Y-9663460D01*
X10295182Y-9663460D02*
X10285658Y-9653936D01*
X10476134Y-9472984D02*
X10476134Y-9511079D01*
X10552325Y-9472984D02*
X10552325Y-9511079D01*
X10847563Y-9749174D02*
X10838039Y-9739650D01*
X10838039Y-9739650D02*
X10818991Y-9711079D01*
X10818991Y-9711079D02*
X10809468Y-9692031D01*
X10809468Y-9692031D02*
X10799944Y-9663460D01*
X10799944Y-9663460D02*
X10790420Y-9615841D01*
X10790420Y-9615841D02*
X10790420Y-9577746D01*
X10790420Y-9577746D02*
X10799944Y-9530127D01*
X10799944Y-9530127D02*
X10809468Y-9501555D01*
X10809468Y-9501555D02*
X10818991Y-9482508D01*
X10818991Y-9482508D02*
X10838039Y-9453936D01*
X10838039Y-9453936D02*
X10847563Y-9444412D01*
X11028515Y-9672984D02*
X10914230Y-9672984D01*
X10971372Y-9672984D02*
X10971372Y-9472984D01*
X10971372Y-9472984D02*
X10952325Y-9501555D01*
X10952325Y-9501555D02*
X10933277Y-9520603D01*
X10933277Y-9520603D02*
X10914230Y-9530127D01*
X11104706Y-9492031D02*
X11114230Y-9482508D01*
X11114230Y-9482508D02*
X11133277Y-9472984D01*
X11133277Y-9472984D02*
X11180896Y-9472984D01*
X11180896Y-9472984D02*
X11199944Y-9482508D01*
X11199944Y-9482508D02*
X11209468Y-9492031D01*
X11209468Y-9492031D02*
X11218991Y-9511079D01*
X11218991Y-9511079D02*
X11218991Y-9530127D01*
X11218991Y-9530127D02*
X11209468Y-9558698D01*
X11209468Y-9558698D02*
X11095182Y-9672984D01*
X11095182Y-9672984D02*
X11218991Y-9672984D01*
X11457087Y-9672984D02*
X11457087Y-9472984D01*
X11542801Y-9672984D02*
X11542801Y-9568222D01*
X11542801Y-9568222D02*
X11533277Y-9549174D01*
X11533277Y-9549174D02*
X11514230Y-9539650D01*
X11514230Y-9539650D02*
X11485658Y-9539650D01*
X11485658Y-9539650D02*
X11466610Y-9549174D01*
X11466610Y-9549174D02*
X11457087Y-9558698D01*
X11666610Y-9672984D02*
X11647563Y-9663460D01*
X11647563Y-9663460D02*
X11638039Y-9653936D01*
X11638039Y-9653936D02*
X11628515Y-9634889D01*
X11628515Y-9634889D02*
X11628515Y-9577746D01*
X11628515Y-9577746D02*
X11638039Y-9558698D01*
X11638039Y-9558698D02*
X11647563Y-9549174D01*
X11647563Y-9549174D02*
X11666610Y-9539650D01*
X11666610Y-9539650D02*
X11695182Y-9539650D01*
X11695182Y-9539650D02*
X11714230Y-9549174D01*
X11714230Y-9549174D02*
X11723753Y-9558698D01*
X11723753Y-9558698D02*
X11733277Y-9577746D01*
X11733277Y-9577746D02*
X11733277Y-9634889D01*
X11733277Y-9634889D02*
X11723753Y-9653936D01*
X11723753Y-9653936D02*
X11714230Y-9663460D01*
X11714230Y-9663460D02*
X11695182Y-9672984D01*
X11695182Y-9672984D02*
X11666610Y-9672984D01*
X11847563Y-9672984D02*
X11828515Y-9663460D01*
X11828515Y-9663460D02*
X11818991Y-9644412D01*
X11818991Y-9644412D02*
X11818991Y-9472984D01*
X11999944Y-9663460D02*
X11980896Y-9672984D01*
X11980896Y-9672984D02*
X11942801Y-9672984D01*
X11942801Y-9672984D02*
X11923753Y-9663460D01*
X11923753Y-9663460D02*
X11914230Y-9644412D01*
X11914230Y-9644412D02*
X11914230Y-9568222D01*
X11914230Y-9568222D02*
X11923753Y-9549174D01*
X11923753Y-9549174D02*
X11942801Y-9539650D01*
X11942801Y-9539650D02*
X11980896Y-9539650D01*
X11980896Y-9539650D02*
X11999944Y-9549174D01*
X11999944Y-9549174D02*
X12009468Y-9568222D01*
X12009468Y-9568222D02*
X12009468Y-9587270D01*
X12009468Y-9587270D02*
X11914230Y-9606317D01*
X12085658Y-9663460D02*
X12104706Y-9672984D01*
X12104706Y-9672984D02*
X12142801Y-9672984D01*
X12142801Y-9672984D02*
X12161849Y-9663460D01*
X12161849Y-9663460D02*
X12171372Y-9644412D01*
X12171372Y-9644412D02*
X12171372Y-9634889D01*
X12171372Y-9634889D02*
X12161849Y-9615841D01*
X12161849Y-9615841D02*
X12142801Y-9606317D01*
X12142801Y-9606317D02*
X12114230Y-9606317D01*
X12114230Y-9606317D02*
X12095182Y-9596793D01*
X12095182Y-9596793D02*
X12085658Y-9577746D01*
X12085658Y-9577746D02*
X12085658Y-9568222D01*
X12085658Y-9568222D02*
X12095182Y-9549174D01*
X12095182Y-9549174D02*
X12114230Y-9539650D01*
X12114230Y-9539650D02*
X12142801Y-9539650D01*
X12142801Y-9539650D02*
X12161849Y-9549174D01*
X12238039Y-9749174D02*
X12247563Y-9739650D01*
X12247563Y-9739650D02*
X12266611Y-9711079D01*
X12266611Y-9711079D02*
X12276134Y-9692031D01*
X12276134Y-9692031D02*
X12285658Y-9663460D01*
X12285658Y-9663460D02*
X12295182Y-9615841D01*
X12295182Y-9615841D02*
X12295182Y-9577746D01*
X12295182Y-9577746D02*
X12285658Y-9530127D01*
X12285658Y-9530127D02*
X12276134Y-9501555D01*
X12276134Y-9501555D02*
X12266611Y-9482508D01*
X12266611Y-9482508D02*
X12247563Y-9453936D01*
X12247563Y-9453936D02*
X12238039Y-9444412D01*
D12*
X7222500Y-9795500D02*
X7222500Y-9895500D01*
X7172500Y-9845500D02*
X7272500Y-9845500D01*
D11*
X7638039Y-9936984D02*
X7523753Y-9936984D01*
X7580896Y-9936984D02*
X7580896Y-9736984D01*
X7580896Y-9736984D02*
X7561848Y-9765555D01*
X7561848Y-9765555D02*
X7542801Y-9784603D01*
X7542801Y-9784603D02*
X7523753Y-9794127D01*
X7723753Y-9917936D02*
X7733277Y-9927460D01*
X7733277Y-9927460D02*
X7723753Y-9936984D01*
X7723753Y-9936984D02*
X7714229Y-9927460D01*
X7714229Y-9927460D02*
X7723753Y-9917936D01*
X7723753Y-9917936D02*
X7723753Y-9936984D01*
X7857086Y-9736984D02*
X7876134Y-9736984D01*
X7876134Y-9736984D02*
X7895182Y-9746508D01*
X7895182Y-9746508D02*
X7904705Y-9756031D01*
X7904705Y-9756031D02*
X7914229Y-9775079D01*
X7914229Y-9775079D02*
X7923753Y-9813174D01*
X7923753Y-9813174D02*
X7923753Y-9860793D01*
X7923753Y-9860793D02*
X7914229Y-9898889D01*
X7914229Y-9898889D02*
X7904705Y-9917936D01*
X7904705Y-9917936D02*
X7895182Y-9927460D01*
X7895182Y-9927460D02*
X7876134Y-9936984D01*
X7876134Y-9936984D02*
X7857086Y-9936984D01*
X7857086Y-9936984D02*
X7838039Y-9927460D01*
X7838039Y-9927460D02*
X7828515Y-9917936D01*
X7828515Y-9917936D02*
X7818991Y-9898889D01*
X7818991Y-9898889D02*
X7809467Y-9860793D01*
X7809467Y-9860793D02*
X7809467Y-9813174D01*
X7809467Y-9813174D02*
X7818991Y-9775079D01*
X7818991Y-9775079D02*
X7828515Y-9756031D01*
X7828515Y-9756031D02*
X7838039Y-9746508D01*
X7838039Y-9746508D02*
X7857086Y-9736984D01*
X8047562Y-9736984D02*
X8066610Y-9736984D01*
X8066610Y-9736984D02*
X8085658Y-9746508D01*
X8085658Y-9746508D02*
X8095182Y-9756031D01*
X8095182Y-9756031D02*
X8104705Y-9775079D01*
X8104705Y-9775079D02*
X8114229Y-9813174D01*
X8114229Y-9813174D02*
X8114229Y-9860793D01*
X8114229Y-9860793D02*
X8104705Y-9898889D01*
X8104705Y-9898889D02*
X8095182Y-9917936D01*
X8095182Y-9917936D02*
X8085658Y-9927460D01*
X8085658Y-9927460D02*
X8066610Y-9936984D01*
X8066610Y-9936984D02*
X8047562Y-9936984D01*
X8047562Y-9936984D02*
X8028515Y-9927460D01*
X8028515Y-9927460D02*
X8018991Y-9917936D01*
X8018991Y-9917936D02*
X8009467Y-9898889D01*
X8009467Y-9898889D02*
X7999943Y-9860793D01*
X7999943Y-9860793D02*
X7999943Y-9813174D01*
X7999943Y-9813174D02*
X8009467Y-9775079D01*
X8009467Y-9775079D02*
X8018991Y-9756031D01*
X8018991Y-9756031D02*
X8028515Y-9746508D01*
X8028515Y-9746508D02*
X8047562Y-9736984D01*
X8238039Y-9736984D02*
X8257086Y-9736984D01*
X8257086Y-9736984D02*
X8276134Y-9746508D01*
X8276134Y-9746508D02*
X8285658Y-9756031D01*
X8285658Y-9756031D02*
X8295182Y-9775079D01*
X8295182Y-9775079D02*
X8304705Y-9813174D01*
X8304705Y-9813174D02*
X8304705Y-9860793D01*
X8304705Y-9860793D02*
X8295182Y-9898889D01*
X8295182Y-9898889D02*
X8285658Y-9917936D01*
X8285658Y-9917936D02*
X8276134Y-9927460D01*
X8276134Y-9927460D02*
X8257086Y-9936984D01*
X8257086Y-9936984D02*
X8238039Y-9936984D01*
X8238039Y-9936984D02*
X8218991Y-9927460D01*
X8218991Y-9927460D02*
X8209467Y-9917936D01*
X8209467Y-9917936D02*
X8199943Y-9898889D01*
X8199943Y-9898889D02*
X8190420Y-9860793D01*
X8190420Y-9860793D02*
X8190420Y-9813174D01*
X8190420Y-9813174D02*
X8199943Y-9775079D01*
X8199943Y-9775079D02*
X8209467Y-9756031D01*
X8209467Y-9756031D02*
X8218991Y-9746508D01*
X8218991Y-9746508D02*
X8238039Y-9736984D01*
X8390420Y-9936984D02*
X8390420Y-9803650D01*
X8390420Y-9822698D02*
X8399944Y-9813174D01*
X8399944Y-9813174D02*
X8418991Y-9803650D01*
X8418991Y-9803650D02*
X8447563Y-9803650D01*
X8447563Y-9803650D02*
X8466610Y-9813174D01*
X8466610Y-9813174D02*
X8476134Y-9832222D01*
X8476134Y-9832222D02*
X8476134Y-9936984D01*
X8476134Y-9832222D02*
X8485658Y-9813174D01*
X8485658Y-9813174D02*
X8504705Y-9803650D01*
X8504705Y-9803650D02*
X8533277Y-9803650D01*
X8533277Y-9803650D02*
X8552325Y-9813174D01*
X8552325Y-9813174D02*
X8561848Y-9832222D01*
X8561848Y-9832222D02*
X8561848Y-9936984D01*
X8657086Y-9936984D02*
X8657086Y-9803650D01*
X8657086Y-9822698D02*
X8666610Y-9813174D01*
X8666610Y-9813174D02*
X8685658Y-9803650D01*
X8685658Y-9803650D02*
X8714229Y-9803650D01*
X8714229Y-9803650D02*
X8733277Y-9813174D01*
X8733277Y-9813174D02*
X8742801Y-9832222D01*
X8742801Y-9832222D02*
X8742801Y-9936984D01*
X8742801Y-9832222D02*
X8752325Y-9813174D01*
X8752325Y-9813174D02*
X8771372Y-9803650D01*
X8771372Y-9803650D02*
X8799944Y-9803650D01*
X8799944Y-9803650D02*
X8818991Y-9813174D01*
X8818991Y-9813174D02*
X8828515Y-9832222D01*
X8828515Y-9832222D02*
X8828515Y-9936984D01*
X9218991Y-9727460D02*
X9047563Y-9984603D01*
X9476134Y-9736984D02*
X9495182Y-9736984D01*
X9495182Y-9736984D02*
X9514229Y-9746508D01*
X9514229Y-9746508D02*
X9523753Y-9756031D01*
X9523753Y-9756031D02*
X9533277Y-9775079D01*
X9533277Y-9775079D02*
X9542801Y-9813174D01*
X9542801Y-9813174D02*
X9542801Y-9860793D01*
X9542801Y-9860793D02*
X9533277Y-9898889D01*
X9533277Y-9898889D02*
X9523753Y-9917936D01*
X9523753Y-9917936D02*
X9514229Y-9927460D01*
X9514229Y-9927460D02*
X9495182Y-9936984D01*
X9495182Y-9936984D02*
X9476134Y-9936984D01*
X9476134Y-9936984D02*
X9457087Y-9927460D01*
X9457087Y-9927460D02*
X9447563Y-9917936D01*
X9447563Y-9917936D02*
X9438039Y-9898889D01*
X9438039Y-9898889D02*
X9428515Y-9860793D01*
X9428515Y-9860793D02*
X9428515Y-9813174D01*
X9428515Y-9813174D02*
X9438039Y-9775079D01*
X9438039Y-9775079D02*
X9447563Y-9756031D01*
X9447563Y-9756031D02*
X9457087Y-9746508D01*
X9457087Y-9746508D02*
X9476134Y-9736984D01*
X9628515Y-9917936D02*
X9638039Y-9927460D01*
X9638039Y-9927460D02*
X9628515Y-9936984D01*
X9628515Y-9936984D02*
X9618991Y-9927460D01*
X9618991Y-9927460D02*
X9628515Y-9917936D01*
X9628515Y-9917936D02*
X9628515Y-9936984D01*
X9761848Y-9736984D02*
X9780896Y-9736984D01*
X9780896Y-9736984D02*
X9799944Y-9746508D01*
X9799944Y-9746508D02*
X9809468Y-9756031D01*
X9809468Y-9756031D02*
X9818991Y-9775079D01*
X9818991Y-9775079D02*
X9828515Y-9813174D01*
X9828515Y-9813174D02*
X9828515Y-9860793D01*
X9828515Y-9860793D02*
X9818991Y-9898889D01*
X9818991Y-9898889D02*
X9809468Y-9917936D01*
X9809468Y-9917936D02*
X9799944Y-9927460D01*
X9799944Y-9927460D02*
X9780896Y-9936984D01*
X9780896Y-9936984D02*
X9761848Y-9936984D01*
X9761848Y-9936984D02*
X9742801Y-9927460D01*
X9742801Y-9927460D02*
X9733277Y-9917936D01*
X9733277Y-9917936D02*
X9723753Y-9898889D01*
X9723753Y-9898889D02*
X9714229Y-9860793D01*
X9714229Y-9860793D02*
X9714229Y-9813174D01*
X9714229Y-9813174D02*
X9723753Y-9775079D01*
X9723753Y-9775079D02*
X9733277Y-9756031D01*
X9733277Y-9756031D02*
X9742801Y-9746508D01*
X9742801Y-9746508D02*
X9761848Y-9736984D01*
X9895182Y-9736984D02*
X10018991Y-9736984D01*
X10018991Y-9736984D02*
X9952325Y-9813174D01*
X9952325Y-9813174D02*
X9980896Y-9813174D01*
X9980896Y-9813174D02*
X9999944Y-9822698D01*
X9999944Y-9822698D02*
X10009468Y-9832222D01*
X10009468Y-9832222D02*
X10018991Y-9851270D01*
X10018991Y-9851270D02*
X10018991Y-9898889D01*
X10018991Y-9898889D02*
X10009468Y-9917936D01*
X10009468Y-9917936D02*
X9999944Y-9927460D01*
X9999944Y-9927460D02*
X9980896Y-9936984D01*
X9980896Y-9936984D02*
X9923753Y-9936984D01*
X9923753Y-9936984D02*
X9904706Y-9927460D01*
X9904706Y-9927460D02*
X9895182Y-9917936D01*
X10114229Y-9936984D02*
X10152325Y-9936984D01*
X10152325Y-9936984D02*
X10171372Y-9927460D01*
X10171372Y-9927460D02*
X10180896Y-9917936D01*
X10180896Y-9917936D02*
X10199944Y-9889365D01*
X10199944Y-9889365D02*
X10209468Y-9851270D01*
X10209468Y-9851270D02*
X10209468Y-9775079D01*
X10209468Y-9775079D02*
X10199944Y-9756031D01*
X10199944Y-9756031D02*
X10190420Y-9746508D01*
X10190420Y-9746508D02*
X10171372Y-9736984D01*
X10171372Y-9736984D02*
X10133277Y-9736984D01*
X10133277Y-9736984D02*
X10114229Y-9746508D01*
X10114229Y-9746508D02*
X10104706Y-9756031D01*
X10104706Y-9756031D02*
X10095182Y-9775079D01*
X10095182Y-9775079D02*
X10095182Y-9822698D01*
X10095182Y-9822698D02*
X10104706Y-9841746D01*
X10104706Y-9841746D02*
X10114229Y-9851270D01*
X10114229Y-9851270D02*
X10133277Y-9860793D01*
X10133277Y-9860793D02*
X10171372Y-9860793D01*
X10171372Y-9860793D02*
X10190420Y-9851270D01*
X10190420Y-9851270D02*
X10199944Y-9841746D01*
X10199944Y-9841746D02*
X10209468Y-9822698D01*
X10380896Y-9803650D02*
X10380896Y-9936984D01*
X10333277Y-9727460D02*
X10285658Y-9870317D01*
X10285658Y-9870317D02*
X10409468Y-9870317D01*
X10476134Y-9736984D02*
X10476134Y-9775079D01*
X10552325Y-9736984D02*
X10552325Y-9775079D01*
X10847563Y-10013174D02*
X10838039Y-10003650D01*
X10838039Y-10003650D02*
X10818991Y-9975079D01*
X10818991Y-9975079D02*
X10809468Y-9956031D01*
X10809468Y-9956031D02*
X10799944Y-9927460D01*
X10799944Y-9927460D02*
X10790420Y-9879841D01*
X10790420Y-9879841D02*
X10790420Y-9841746D01*
X10790420Y-9841746D02*
X10799944Y-9794127D01*
X10799944Y-9794127D02*
X10809468Y-9765555D01*
X10809468Y-9765555D02*
X10818991Y-9746508D01*
X10818991Y-9746508D02*
X10838039Y-9717936D01*
X10838039Y-9717936D02*
X10847563Y-9708412D01*
X10914230Y-9756031D02*
X10923753Y-9746508D01*
X10923753Y-9746508D02*
X10942801Y-9736984D01*
X10942801Y-9736984D02*
X10990420Y-9736984D01*
X10990420Y-9736984D02*
X11009468Y-9746508D01*
X11009468Y-9746508D02*
X11018991Y-9756031D01*
X11018991Y-9756031D02*
X11028515Y-9775079D01*
X11028515Y-9775079D02*
X11028515Y-9794127D01*
X11028515Y-9794127D02*
X11018991Y-9822698D01*
X11018991Y-9822698D02*
X10904706Y-9936984D01*
X10904706Y-9936984D02*
X11028515Y-9936984D01*
X11095182Y-9736984D02*
X11218991Y-9736984D01*
X11218991Y-9736984D02*
X11152325Y-9813174D01*
X11152325Y-9813174D02*
X11180896Y-9813174D01*
X11180896Y-9813174D02*
X11199944Y-9822698D01*
X11199944Y-9822698D02*
X11209468Y-9832222D01*
X11209468Y-9832222D02*
X11218991Y-9851270D01*
X11218991Y-9851270D02*
X11218991Y-9898889D01*
X11218991Y-9898889D02*
X11209468Y-9917936D01*
X11209468Y-9917936D02*
X11199944Y-9927460D01*
X11199944Y-9927460D02*
X11180896Y-9936984D01*
X11180896Y-9936984D02*
X11123753Y-9936984D01*
X11123753Y-9936984D02*
X11104706Y-9927460D01*
X11104706Y-9927460D02*
X11095182Y-9917936D01*
X11457087Y-9936984D02*
X11457087Y-9736984D01*
X11542801Y-9936984D02*
X11542801Y-9832222D01*
X11542801Y-9832222D02*
X11533277Y-9813174D01*
X11533277Y-9813174D02*
X11514230Y-9803650D01*
X11514230Y-9803650D02*
X11485658Y-9803650D01*
X11485658Y-9803650D02*
X11466610Y-9813174D01*
X11466610Y-9813174D02*
X11457087Y-9822698D01*
X11666610Y-9936984D02*
X11647563Y-9927460D01*
X11647563Y-9927460D02*
X11638039Y-9917936D01*
X11638039Y-9917936D02*
X11628515Y-9898889D01*
X11628515Y-9898889D02*
X11628515Y-9841746D01*
X11628515Y-9841746D02*
X11638039Y-9822698D01*
X11638039Y-9822698D02*
X11647563Y-9813174D01*
X11647563Y-9813174D02*
X11666610Y-9803650D01*
X11666610Y-9803650D02*
X11695182Y-9803650D01*
X11695182Y-9803650D02*
X11714230Y-9813174D01*
X11714230Y-9813174D02*
X11723753Y-9822698D01*
X11723753Y-9822698D02*
X11733277Y-9841746D01*
X11733277Y-9841746D02*
X11733277Y-9898889D01*
X11733277Y-9898889D02*
X11723753Y-9917936D01*
X11723753Y-9917936D02*
X11714230Y-9927460D01*
X11714230Y-9927460D02*
X11695182Y-9936984D01*
X11695182Y-9936984D02*
X11666610Y-9936984D01*
X11847563Y-9936984D02*
X11828515Y-9927460D01*
X11828515Y-9927460D02*
X11818991Y-9908412D01*
X11818991Y-9908412D02*
X11818991Y-9736984D01*
X11999944Y-9927460D02*
X11980896Y-9936984D01*
X11980896Y-9936984D02*
X11942801Y-9936984D01*
X11942801Y-9936984D02*
X11923753Y-9927460D01*
X11923753Y-9927460D02*
X11914230Y-9908412D01*
X11914230Y-9908412D02*
X11914230Y-9832222D01*
X11914230Y-9832222D02*
X11923753Y-9813174D01*
X11923753Y-9813174D02*
X11942801Y-9803650D01*
X11942801Y-9803650D02*
X11980896Y-9803650D01*
X11980896Y-9803650D02*
X11999944Y-9813174D01*
X11999944Y-9813174D02*
X12009468Y-9832222D01*
X12009468Y-9832222D02*
X12009468Y-9851270D01*
X12009468Y-9851270D02*
X11914230Y-9870317D01*
X12085658Y-9927460D02*
X12104706Y-9936984D01*
X12104706Y-9936984D02*
X12142801Y-9936984D01*
X12142801Y-9936984D02*
X12161849Y-9927460D01*
X12161849Y-9927460D02*
X12171372Y-9908412D01*
X12171372Y-9908412D02*
X12171372Y-9898889D01*
X12171372Y-9898889D02*
X12161849Y-9879841D01*
X12161849Y-9879841D02*
X12142801Y-9870317D01*
X12142801Y-9870317D02*
X12114230Y-9870317D01*
X12114230Y-9870317D02*
X12095182Y-9860793D01*
X12095182Y-9860793D02*
X12085658Y-9841746D01*
X12085658Y-9841746D02*
X12085658Y-9832222D01*
X12085658Y-9832222D02*
X12095182Y-9813174D01*
X12095182Y-9813174D02*
X12114230Y-9803650D01*
X12114230Y-9803650D02*
X12142801Y-9803650D01*
X12142801Y-9803650D02*
X12161849Y-9813174D01*
X12238039Y-10013174D02*
X12247563Y-10003650D01*
X12247563Y-10003650D02*
X12266611Y-9975079D01*
X12266611Y-9975079D02*
X12276134Y-9956031D01*
X12276134Y-9956031D02*
X12285658Y-9927460D01*
X12285658Y-9927460D02*
X12295182Y-9879841D01*
X12295182Y-9879841D02*
X12295182Y-9841746D01*
X12295182Y-9841746D02*
X12285658Y-9794127D01*
X12285658Y-9794127D02*
X12276134Y-9765555D01*
X12276134Y-9765555D02*
X12266611Y-9746508D01*
X12266611Y-9746508D02*
X12247563Y-9717936D01*
X12247563Y-9717936D02*
X12238039Y-9708412D01*
D13*
X7250533Y-10162534D02*
X7250533Y-10056467D01*
X7144466Y-10056467D01*
X7144466Y-10162534D01*
X7250533Y-10162534D01*
D11*
X7638039Y-10200984D02*
X7523753Y-10200984D01*
X7580896Y-10200984D02*
X7580896Y-10000984D01*
X7580896Y-10000984D02*
X7561848Y-10029555D01*
X7561848Y-10029555D02*
X7542801Y-10048603D01*
X7542801Y-10048603D02*
X7523753Y-10058127D01*
X7723753Y-10181936D02*
X7733277Y-10191460D01*
X7733277Y-10191460D02*
X7723753Y-10200984D01*
X7723753Y-10200984D02*
X7714229Y-10191460D01*
X7714229Y-10191460D02*
X7723753Y-10181936D01*
X7723753Y-10181936D02*
X7723753Y-10200984D01*
X7914229Y-10000984D02*
X7818991Y-10000984D01*
X7818991Y-10000984D02*
X7809467Y-10096222D01*
X7809467Y-10096222D02*
X7818991Y-10086698D01*
X7818991Y-10086698D02*
X7838039Y-10077174D01*
X7838039Y-10077174D02*
X7885658Y-10077174D01*
X7885658Y-10077174D02*
X7904705Y-10086698D01*
X7904705Y-10086698D02*
X7914229Y-10096222D01*
X7914229Y-10096222D02*
X7923753Y-10115270D01*
X7923753Y-10115270D02*
X7923753Y-10162889D01*
X7923753Y-10162889D02*
X7914229Y-10181936D01*
X7914229Y-10181936D02*
X7904705Y-10191460D01*
X7904705Y-10191460D02*
X7885658Y-10200984D01*
X7885658Y-10200984D02*
X7838039Y-10200984D01*
X7838039Y-10200984D02*
X7818991Y-10191460D01*
X7818991Y-10191460D02*
X7809467Y-10181936D01*
X8047562Y-10000984D02*
X8066610Y-10000984D01*
X8066610Y-10000984D02*
X8085658Y-10010508D01*
X8085658Y-10010508D02*
X8095182Y-10020031D01*
X8095182Y-10020031D02*
X8104705Y-10039079D01*
X8104705Y-10039079D02*
X8114229Y-10077174D01*
X8114229Y-10077174D02*
X8114229Y-10124793D01*
X8114229Y-10124793D02*
X8104705Y-10162889D01*
X8104705Y-10162889D02*
X8095182Y-10181936D01*
X8095182Y-10181936D02*
X8085658Y-10191460D01*
X8085658Y-10191460D02*
X8066610Y-10200984D01*
X8066610Y-10200984D02*
X8047562Y-10200984D01*
X8047562Y-10200984D02*
X8028515Y-10191460D01*
X8028515Y-10191460D02*
X8018991Y-10181936D01*
X8018991Y-10181936D02*
X8009467Y-10162889D01*
X8009467Y-10162889D02*
X7999943Y-10124793D01*
X7999943Y-10124793D02*
X7999943Y-10077174D01*
X7999943Y-10077174D02*
X8009467Y-10039079D01*
X8009467Y-10039079D02*
X8018991Y-10020031D01*
X8018991Y-10020031D02*
X8028515Y-10010508D01*
X8028515Y-10010508D02*
X8047562Y-10000984D01*
X8238039Y-10000984D02*
X8257086Y-10000984D01*
X8257086Y-10000984D02*
X8276134Y-10010508D01*
X8276134Y-10010508D02*
X8285658Y-10020031D01*
X8285658Y-10020031D02*
X8295182Y-10039079D01*
X8295182Y-10039079D02*
X8304705Y-10077174D01*
X8304705Y-10077174D02*
X8304705Y-10124793D01*
X8304705Y-10124793D02*
X8295182Y-10162889D01*
X8295182Y-10162889D02*
X8285658Y-10181936D01*
X8285658Y-10181936D02*
X8276134Y-10191460D01*
X8276134Y-10191460D02*
X8257086Y-10200984D01*
X8257086Y-10200984D02*
X8238039Y-10200984D01*
X8238039Y-10200984D02*
X8218991Y-10191460D01*
X8218991Y-10191460D02*
X8209467Y-10181936D01*
X8209467Y-10181936D02*
X8199943Y-10162889D01*
X8199943Y-10162889D02*
X8190420Y-10124793D01*
X8190420Y-10124793D02*
X8190420Y-10077174D01*
X8190420Y-10077174D02*
X8199943Y-10039079D01*
X8199943Y-10039079D02*
X8209467Y-10020031D01*
X8209467Y-10020031D02*
X8218991Y-10010508D01*
X8218991Y-10010508D02*
X8238039Y-10000984D01*
X8390420Y-10200984D02*
X8390420Y-10067650D01*
X8390420Y-10086698D02*
X8399944Y-10077174D01*
X8399944Y-10077174D02*
X8418991Y-10067650D01*
X8418991Y-10067650D02*
X8447563Y-10067650D01*
X8447563Y-10067650D02*
X8466610Y-10077174D01*
X8466610Y-10077174D02*
X8476134Y-10096222D01*
X8476134Y-10096222D02*
X8476134Y-10200984D01*
X8476134Y-10096222D02*
X8485658Y-10077174D01*
X8485658Y-10077174D02*
X8504705Y-10067650D01*
X8504705Y-10067650D02*
X8533277Y-10067650D01*
X8533277Y-10067650D02*
X8552325Y-10077174D01*
X8552325Y-10077174D02*
X8561848Y-10096222D01*
X8561848Y-10096222D02*
X8561848Y-10200984D01*
X8657086Y-10200984D02*
X8657086Y-10067650D01*
X8657086Y-10086698D02*
X8666610Y-10077174D01*
X8666610Y-10077174D02*
X8685658Y-10067650D01*
X8685658Y-10067650D02*
X8714229Y-10067650D01*
X8714229Y-10067650D02*
X8733277Y-10077174D01*
X8733277Y-10077174D02*
X8742801Y-10096222D01*
X8742801Y-10096222D02*
X8742801Y-10200984D01*
X8742801Y-10096222D02*
X8752325Y-10077174D01*
X8752325Y-10077174D02*
X8771372Y-10067650D01*
X8771372Y-10067650D02*
X8799944Y-10067650D01*
X8799944Y-10067650D02*
X8818991Y-10077174D01*
X8818991Y-10077174D02*
X8828515Y-10096222D01*
X8828515Y-10096222D02*
X8828515Y-10200984D01*
X9218991Y-9991460D02*
X9047563Y-10248603D01*
X9476134Y-10000984D02*
X9495182Y-10000984D01*
X9495182Y-10000984D02*
X9514229Y-10010508D01*
X9514229Y-10010508D02*
X9523753Y-10020031D01*
X9523753Y-10020031D02*
X9533277Y-10039079D01*
X9533277Y-10039079D02*
X9542801Y-10077174D01*
X9542801Y-10077174D02*
X9542801Y-10124793D01*
X9542801Y-10124793D02*
X9533277Y-10162889D01*
X9533277Y-10162889D02*
X9523753Y-10181936D01*
X9523753Y-10181936D02*
X9514229Y-10191460D01*
X9514229Y-10191460D02*
X9495182Y-10200984D01*
X9495182Y-10200984D02*
X9476134Y-10200984D01*
X9476134Y-10200984D02*
X9457087Y-10191460D01*
X9457087Y-10191460D02*
X9447563Y-10181936D01*
X9447563Y-10181936D02*
X9438039Y-10162889D01*
X9438039Y-10162889D02*
X9428515Y-10124793D01*
X9428515Y-10124793D02*
X9428515Y-10077174D01*
X9428515Y-10077174D02*
X9438039Y-10039079D01*
X9438039Y-10039079D02*
X9447563Y-10020031D01*
X9447563Y-10020031D02*
X9457087Y-10010508D01*
X9457087Y-10010508D02*
X9476134Y-10000984D01*
X9628515Y-10181936D02*
X9638039Y-10191460D01*
X9638039Y-10191460D02*
X9628515Y-10200984D01*
X9628515Y-10200984D02*
X9618991Y-10191460D01*
X9618991Y-10191460D02*
X9628515Y-10181936D01*
X9628515Y-10181936D02*
X9628515Y-10200984D01*
X9761848Y-10000984D02*
X9780896Y-10000984D01*
X9780896Y-10000984D02*
X9799944Y-10010508D01*
X9799944Y-10010508D02*
X9809468Y-10020031D01*
X9809468Y-10020031D02*
X9818991Y-10039079D01*
X9818991Y-10039079D02*
X9828515Y-10077174D01*
X9828515Y-10077174D02*
X9828515Y-10124793D01*
X9828515Y-10124793D02*
X9818991Y-10162889D01*
X9818991Y-10162889D02*
X9809468Y-10181936D01*
X9809468Y-10181936D02*
X9799944Y-10191460D01*
X9799944Y-10191460D02*
X9780896Y-10200984D01*
X9780896Y-10200984D02*
X9761848Y-10200984D01*
X9761848Y-10200984D02*
X9742801Y-10191460D01*
X9742801Y-10191460D02*
X9733277Y-10181936D01*
X9733277Y-10181936D02*
X9723753Y-10162889D01*
X9723753Y-10162889D02*
X9714229Y-10124793D01*
X9714229Y-10124793D02*
X9714229Y-10077174D01*
X9714229Y-10077174D02*
X9723753Y-10039079D01*
X9723753Y-10039079D02*
X9733277Y-10020031D01*
X9733277Y-10020031D02*
X9742801Y-10010508D01*
X9742801Y-10010508D02*
X9761848Y-10000984D01*
X10009468Y-10000984D02*
X9914229Y-10000984D01*
X9914229Y-10000984D02*
X9904706Y-10096222D01*
X9904706Y-10096222D02*
X9914229Y-10086698D01*
X9914229Y-10086698D02*
X9933277Y-10077174D01*
X9933277Y-10077174D02*
X9980896Y-10077174D01*
X9980896Y-10077174D02*
X9999944Y-10086698D01*
X9999944Y-10086698D02*
X10009468Y-10096222D01*
X10009468Y-10096222D02*
X10018991Y-10115270D01*
X10018991Y-10115270D02*
X10018991Y-10162889D01*
X10018991Y-10162889D02*
X10009468Y-10181936D01*
X10009468Y-10181936D02*
X9999944Y-10191460D01*
X9999944Y-10191460D02*
X9980896Y-10200984D01*
X9980896Y-10200984D02*
X9933277Y-10200984D01*
X9933277Y-10200984D02*
X9914229Y-10191460D01*
X9914229Y-10191460D02*
X9904706Y-10181936D01*
X10114229Y-10200984D02*
X10152325Y-10200984D01*
X10152325Y-10200984D02*
X10171372Y-10191460D01*
X10171372Y-10191460D02*
X10180896Y-10181936D01*
X10180896Y-10181936D02*
X10199944Y-10153365D01*
X10199944Y-10153365D02*
X10209468Y-10115270D01*
X10209468Y-10115270D02*
X10209468Y-10039079D01*
X10209468Y-10039079D02*
X10199944Y-10020031D01*
X10199944Y-10020031D02*
X10190420Y-10010508D01*
X10190420Y-10010508D02*
X10171372Y-10000984D01*
X10171372Y-10000984D02*
X10133277Y-10000984D01*
X10133277Y-10000984D02*
X10114229Y-10010508D01*
X10114229Y-10010508D02*
X10104706Y-10020031D01*
X10104706Y-10020031D02*
X10095182Y-10039079D01*
X10095182Y-10039079D02*
X10095182Y-10086698D01*
X10095182Y-10086698D02*
X10104706Y-10105746D01*
X10104706Y-10105746D02*
X10114229Y-10115270D01*
X10114229Y-10115270D02*
X10133277Y-10124793D01*
X10133277Y-10124793D02*
X10171372Y-10124793D01*
X10171372Y-10124793D02*
X10190420Y-10115270D01*
X10190420Y-10115270D02*
X10199944Y-10105746D01*
X10199944Y-10105746D02*
X10209468Y-10086698D01*
X10399944Y-10200984D02*
X10285658Y-10200984D01*
X10342801Y-10200984D02*
X10342801Y-10000984D01*
X10342801Y-10000984D02*
X10323753Y-10029555D01*
X10323753Y-10029555D02*
X10304706Y-10048603D01*
X10304706Y-10048603D02*
X10285658Y-10058127D01*
X10476134Y-10000984D02*
X10476134Y-10039079D01*
X10552325Y-10000984D02*
X10552325Y-10039079D01*
X10847563Y-10277174D02*
X10838039Y-10267650D01*
X10838039Y-10267650D02*
X10818991Y-10239079D01*
X10818991Y-10239079D02*
X10809468Y-10220031D01*
X10809468Y-10220031D02*
X10799944Y-10191460D01*
X10799944Y-10191460D02*
X10790420Y-10143841D01*
X10790420Y-10143841D02*
X10790420Y-10105746D01*
X10790420Y-10105746D02*
X10799944Y-10058127D01*
X10799944Y-10058127D02*
X10809468Y-10029555D01*
X10809468Y-10029555D02*
X10818991Y-10010508D01*
X10818991Y-10010508D02*
X10838039Y-9981936D01*
X10838039Y-9981936D02*
X10847563Y-9972412D01*
X11028515Y-10200984D02*
X10914230Y-10200984D01*
X10971372Y-10200984D02*
X10971372Y-10000984D01*
X10971372Y-10000984D02*
X10952325Y-10029555D01*
X10952325Y-10029555D02*
X10933277Y-10048603D01*
X10933277Y-10048603D02*
X10914230Y-10058127D01*
X11152325Y-10000984D02*
X11171372Y-10000984D01*
X11171372Y-10000984D02*
X11190420Y-10010508D01*
X11190420Y-10010508D02*
X11199944Y-10020031D01*
X11199944Y-10020031D02*
X11209468Y-10039079D01*
X11209468Y-10039079D02*
X11218991Y-10077174D01*
X11218991Y-10077174D02*
X11218991Y-10124793D01*
X11218991Y-10124793D02*
X11209468Y-10162889D01*
X11209468Y-10162889D02*
X11199944Y-10181936D01*
X11199944Y-10181936D02*
X11190420Y-10191460D01*
X11190420Y-10191460D02*
X11171372Y-10200984D01*
X11171372Y-10200984D02*
X11152325Y-10200984D01*
X11152325Y-10200984D02*
X11133277Y-10191460D01*
X11133277Y-10191460D02*
X11123753Y-10181936D01*
X11123753Y-10181936D02*
X11114230Y-10162889D01*
X11114230Y-10162889D02*
X11104706Y-10124793D01*
X11104706Y-10124793D02*
X11104706Y-10077174D01*
X11104706Y-10077174D02*
X11114230Y-10039079D01*
X11114230Y-10039079D02*
X11123753Y-10020031D01*
X11123753Y-10020031D02*
X11133277Y-10010508D01*
X11133277Y-10010508D02*
X11152325Y-10000984D01*
X11457087Y-10200984D02*
X11457087Y-10000984D01*
X11542801Y-10200984D02*
X11542801Y-10096222D01*
X11542801Y-10096222D02*
X11533277Y-10077174D01*
X11533277Y-10077174D02*
X11514230Y-10067650D01*
X11514230Y-10067650D02*
X11485658Y-10067650D01*
X11485658Y-10067650D02*
X11466610Y-10077174D01*
X11466610Y-10077174D02*
X11457087Y-10086698D01*
X11666610Y-10200984D02*
X11647563Y-10191460D01*
X11647563Y-10191460D02*
X11638039Y-10181936D01*
X11638039Y-10181936D02*
X11628515Y-10162889D01*
X11628515Y-10162889D02*
X11628515Y-10105746D01*
X11628515Y-10105746D02*
X11638039Y-10086698D01*
X11638039Y-10086698D02*
X11647563Y-10077174D01*
X11647563Y-10077174D02*
X11666610Y-10067650D01*
X11666610Y-10067650D02*
X11695182Y-10067650D01*
X11695182Y-10067650D02*
X11714230Y-10077174D01*
X11714230Y-10077174D02*
X11723753Y-10086698D01*
X11723753Y-10086698D02*
X11733277Y-10105746D01*
X11733277Y-10105746D02*
X11733277Y-10162889D01*
X11733277Y-10162889D02*
X11723753Y-10181936D01*
X11723753Y-10181936D02*
X11714230Y-10191460D01*
X11714230Y-10191460D02*
X11695182Y-10200984D01*
X11695182Y-10200984D02*
X11666610Y-10200984D01*
X11847563Y-10200984D02*
X11828515Y-10191460D01*
X11828515Y-10191460D02*
X11818991Y-10172412D01*
X11818991Y-10172412D02*
X11818991Y-10000984D01*
X11999944Y-10191460D02*
X11980896Y-10200984D01*
X11980896Y-10200984D02*
X11942801Y-10200984D01*
X11942801Y-10200984D02*
X11923753Y-10191460D01*
X11923753Y-10191460D02*
X11914230Y-10172412D01*
X11914230Y-10172412D02*
X11914230Y-10096222D01*
X11914230Y-10096222D02*
X11923753Y-10077174D01*
X11923753Y-10077174D02*
X11942801Y-10067650D01*
X11942801Y-10067650D02*
X11980896Y-10067650D01*
X11980896Y-10067650D02*
X11999944Y-10077174D01*
X11999944Y-10077174D02*
X12009468Y-10096222D01*
X12009468Y-10096222D02*
X12009468Y-10115270D01*
X12009468Y-10115270D02*
X11914230Y-10134317D01*
X12085658Y-10191460D02*
X12104706Y-10200984D01*
X12104706Y-10200984D02*
X12142801Y-10200984D01*
X12142801Y-10200984D02*
X12161849Y-10191460D01*
X12161849Y-10191460D02*
X12171372Y-10172412D01*
X12171372Y-10172412D02*
X12171372Y-10162889D01*
X12171372Y-10162889D02*
X12161849Y-10143841D01*
X12161849Y-10143841D02*
X12142801Y-10134317D01*
X12142801Y-10134317D02*
X12114230Y-10134317D01*
X12114230Y-10134317D02*
X12095182Y-10124793D01*
X12095182Y-10124793D02*
X12085658Y-10105746D01*
X12085658Y-10105746D02*
X12085658Y-10096222D01*
X12085658Y-10096222D02*
X12095182Y-10077174D01*
X12095182Y-10077174D02*
X12114230Y-10067650D01*
X12114230Y-10067650D02*
X12142801Y-10067650D01*
X12142801Y-10067650D02*
X12161849Y-10077174D01*
X12409468Y-10124793D02*
X12561849Y-10124793D01*
X12485658Y-10200984D02*
X12485658Y-10048603D01*
X12799944Y-10020031D02*
X12809468Y-10010508D01*
X12809468Y-10010508D02*
X12828515Y-10000984D01*
X12828515Y-10000984D02*
X12876134Y-10000984D01*
X12876134Y-10000984D02*
X12895182Y-10010508D01*
X12895182Y-10010508D02*
X12904706Y-10020031D01*
X12904706Y-10020031D02*
X12914230Y-10039079D01*
X12914230Y-10039079D02*
X12914230Y-10058127D01*
X12914230Y-10058127D02*
X12904706Y-10086698D01*
X12904706Y-10086698D02*
X12790420Y-10200984D01*
X12790420Y-10200984D02*
X12914230Y-10200984D01*
X13142801Y-10191460D02*
X13161849Y-10200984D01*
X13161849Y-10200984D02*
X13199944Y-10200984D01*
X13199944Y-10200984D02*
X13218992Y-10191460D01*
X13218992Y-10191460D02*
X13228515Y-10172412D01*
X13228515Y-10172412D02*
X13228515Y-10162889D01*
X13228515Y-10162889D02*
X13218992Y-10143841D01*
X13218992Y-10143841D02*
X13199944Y-10134317D01*
X13199944Y-10134317D02*
X13171373Y-10134317D01*
X13171373Y-10134317D02*
X13152325Y-10124793D01*
X13152325Y-10124793D02*
X13142801Y-10105746D01*
X13142801Y-10105746D02*
X13142801Y-10096222D01*
X13142801Y-10096222D02*
X13152325Y-10077174D01*
X13152325Y-10077174D02*
X13171373Y-10067650D01*
X13171373Y-10067650D02*
X13199944Y-10067650D01*
X13199944Y-10067650D02*
X13218992Y-10077174D01*
X13342801Y-10200984D02*
X13323754Y-10191460D01*
X13323754Y-10191460D02*
X13314230Y-10172412D01*
X13314230Y-10172412D02*
X13314230Y-10000984D01*
X13447563Y-10200984D02*
X13428515Y-10191460D01*
X13428515Y-10191460D02*
X13418992Y-10181936D01*
X13418992Y-10181936D02*
X13409468Y-10162889D01*
X13409468Y-10162889D02*
X13409468Y-10105746D01*
X13409468Y-10105746D02*
X13418992Y-10086698D01*
X13418992Y-10086698D02*
X13428515Y-10077174D01*
X13428515Y-10077174D02*
X13447563Y-10067650D01*
X13447563Y-10067650D02*
X13476135Y-10067650D01*
X13476135Y-10067650D02*
X13495182Y-10077174D01*
X13495182Y-10077174D02*
X13504706Y-10086698D01*
X13504706Y-10086698D02*
X13514230Y-10105746D01*
X13514230Y-10105746D02*
X13514230Y-10162889D01*
X13514230Y-10162889D02*
X13504706Y-10181936D01*
X13504706Y-10181936D02*
X13495182Y-10191460D01*
X13495182Y-10191460D02*
X13476135Y-10200984D01*
X13476135Y-10200984D02*
X13447563Y-10200984D01*
X13571373Y-10067650D02*
X13647563Y-10067650D01*
X13599944Y-10000984D02*
X13599944Y-10172412D01*
X13599944Y-10172412D02*
X13609468Y-10191460D01*
X13609468Y-10191460D02*
X13628515Y-10200984D01*
X13628515Y-10200984D02*
X13647563Y-10200984D01*
X13704706Y-10191460D02*
X13723754Y-10200984D01*
X13723754Y-10200984D02*
X13761849Y-10200984D01*
X13761849Y-10200984D02*
X13780896Y-10191460D01*
X13780896Y-10191460D02*
X13790420Y-10172412D01*
X13790420Y-10172412D02*
X13790420Y-10162889D01*
X13790420Y-10162889D02*
X13780896Y-10143841D01*
X13780896Y-10143841D02*
X13761849Y-10134317D01*
X13761849Y-10134317D02*
X13733277Y-10134317D01*
X13733277Y-10134317D02*
X13714230Y-10124793D01*
X13714230Y-10124793D02*
X13704706Y-10105746D01*
X13704706Y-10105746D02*
X13704706Y-10096222D01*
X13704706Y-10096222D02*
X13714230Y-10077174D01*
X13714230Y-10077174D02*
X13733277Y-10067650D01*
X13733277Y-10067650D02*
X13761849Y-10067650D01*
X13761849Y-10067650D02*
X13780896Y-10077174D01*
X13857087Y-10277174D02*
X13866611Y-10267650D01*
X13866611Y-10267650D02*
X13885658Y-10239079D01*
X13885658Y-10239079D02*
X13895182Y-10220031D01*
X13895182Y-10220031D02*
X13904706Y-10191460D01*
X13904706Y-10191460D02*
X13914230Y-10143841D01*
X13914230Y-10143841D02*
X13914230Y-10105746D01*
X13914230Y-10105746D02*
X13904706Y-10058127D01*
X13904706Y-10058127D02*
X13895182Y-10029555D01*
X13895182Y-10029555D02*
X13885658Y-10010508D01*
X13885658Y-10010508D02*
X13866611Y-9981936D01*
X13866611Y-9981936D02*
X13857087Y-9972412D01*
M02*
