%TF.GenerationSoftware,KiCad,Pcbnew,8.0.5*%
%TF.CreationDate,2024-10-20T15:53:25-05:00*%
%TF.ProjectId,hackpad,6861636b-7061-4642-9e6b-696361645f70,rev?*%
%TF.SameCoordinates,Original*%
%TF.FileFunction,Copper,L1,Top*%
%TF.FilePolarity,Positive*%
%FSLAX46Y46*%
G04 Gerber Fmt 4.6, Leading zero omitted, Abs format (unit mm)*
G04 Created by KiCad (PCBNEW 8.0.5) date 2024-10-20 15:53:25*
%MOMM*%
%LPD*%
G01*
G04 APERTURE LIST*
%TA.AperFunction,ComponentPad*%
%ADD10R,1.600000X1.600000*%
%TD*%
%TA.AperFunction,ComponentPad*%
%ADD11O,1.600000X1.600000*%
%TD*%
%TA.AperFunction,ComponentPad*%
%ADD12R,3.500000X1.700000*%
%TD*%
%TA.AperFunction,ComponentPad*%
%ADD13O,3.600000X1.700000*%
%TD*%
%TA.AperFunction,ComponentPad*%
%ADD14O,3.700000X1.700000*%
%TD*%
%TA.AperFunction,ComponentPad*%
%ADD15R,1.700000X1.700000*%
%TD*%
%TA.AperFunction,ComponentPad*%
%ADD16O,1.700000X1.700000*%
%TD*%
%TA.AperFunction,ComponentPad*%
%ADD17R,2.000000X2.000000*%
%TD*%
%TA.AperFunction,ComponentPad*%
%ADD18C,2.000000*%
%TD*%
%TA.AperFunction,ComponentPad*%
%ADD19R,3.200000X2.000000*%
%TD*%
%TA.AperFunction,ComponentPad*%
%ADD20C,2.200000*%
%TD*%
%TA.AperFunction,ViaPad*%
%ADD21C,0.600000*%
%TD*%
%TA.AperFunction,Conductor*%
%ADD22C,0.200000*%
%TD*%
G04 APERTURE END LIST*
D10*
%TO.P,D2,1,K*%
%TO.N,ROW0*%
X77440000Y-47000000D03*
D11*
%TO.P,D2,2,A*%
%TO.N,Net-(D2-A)*%
X85060000Y-47000000D03*
%TD*%
D12*
%TO.P,U1,1,PA02_A0_D0*%
%TO.N,ROW1*%
X89375000Y-20630000D03*
D13*
%TO.P,U1,2,PA4_A1_D1*%
%TO.N,ROW0*%
X89375000Y-23170000D03*
%TO.P,U1,3,PA10_A2_D2*%
%TO.N,COL0*%
X89375000Y-25710000D03*
%TO.P,U1,4,PA11_A3_D3*%
%TO.N,COL1*%
X89375000Y-28250000D03*
%TO.P,U1,5,PA8_A4_D4_SDA*%
%TO.N,SDA*%
X89375000Y-30790000D03*
%TO.P,U1,6,PA9_A5_D5_SCL*%
%TO.N,SCL*%
X89375000Y-33330000D03*
%TO.P,U1,7,PB08_A6_D6_TX*%
%TO.N,unconnected-(U1-PB08_A6_D6_TX-Pad7)*%
X89375000Y-35870000D03*
%TO.P,U1,8,PB09_A7_D7_RX*%
%TO.N,EC11B*%
X106625000Y-35870000D03*
%TO.P,U1,9,PA7_A8_D8_SCK*%
%TO.N,EC11A*%
X106625000Y-33330000D03*
%TO.P,U1,10,PA5_A9_D9_MISO*%
%TO.N,COL2*%
X106625000Y-30790000D03*
D14*
%TO.P,U1,11,PA6_A10_D10_MOSI*%
%TO.N,unconnected-(U1-PA6_A10_D10_MOSI-Pad11)*%
X106625000Y-28250000D03*
%TO.P,U1,12,3V3*%
%TO.N,unconnected-(U1-3V3-Pad12)*%
X106625000Y-25710000D03*
%TO.P,U1,13,GND*%
%TO.N,GND*%
X106625000Y-23170000D03*
%TO.P,U1,14,5V*%
%TO.N,VCC*%
X106625000Y-20630000D03*
%TD*%
D15*
%TO.P,J1,1,Pin_1*%
%TO.N,SDA*%
X110625000Y-27000000D03*
D16*
%TO.P,J1,2,Pin_2*%
%TO.N,SCL*%
X110625000Y-29540000D03*
%TO.P,J1,3,Pin_3*%
%TO.N,GND*%
X110625000Y-32080000D03*
%TO.P,J1,4,Pin_4*%
%TO.N,VCC*%
X110625000Y-34620000D03*
%TD*%
D10*
%TO.P,D5,1,K*%
%TO.N,ROW1*%
X77440000Y-57500000D03*
D11*
%TO.P,D5,2,A*%
%TO.N,Net-(D5-A)*%
X85060000Y-57500000D03*
%TD*%
D10*
%TO.P,D1,1,K*%
%TO.N,ROW0*%
X77440000Y-50500000D03*
D11*
%TO.P,D1,2,A*%
%TO.N,Net-(D1-A)*%
X85060000Y-50500000D03*
%TD*%
D17*
%TO.P,SW1,A,A*%
%TO.N,EC11A*%
X144250000Y-57500000D03*
D18*
%TO.P,SW1,B,B*%
%TO.N,EC11B*%
X144250000Y-52500000D03*
%TO.P,SW1,C,C*%
%TO.N,GND*%
X144250000Y-55000000D03*
D19*
%TO.P,SW1,MP*%
%TO.N,N/C*%
X136750000Y-60600000D03*
X136750000Y-49400000D03*
D18*
%TO.P,SW1,S1,S1*%
%TO.N,COL2*%
X129750000Y-52500000D03*
%TO.P,SW1,S2,S2*%
%TO.N,EC11SWITCHB*%
X129750000Y-57500000D03*
%TD*%
D10*
%TO.P,D3,1,K*%
%TO.N,ROW1*%
X77440000Y-64500000D03*
D11*
%TO.P,D3,2,A*%
%TO.N,Net-(D3-A)*%
X85060000Y-64500000D03*
%TD*%
D20*
%TO.P,SW2,1,1*%
%TO.N,Net-(D1-A)*%
X100540000Y-49920000D03*
%TO.P,SW2,2,2*%
%TO.N,COL0*%
X94190000Y-52460000D03*
%TD*%
D10*
%TO.P,D4,1,K*%
%TO.N,ROW1*%
X77440000Y-61000000D03*
D11*
%TO.P,D4,2,A*%
%TO.N,Net-(D4-A)*%
X85060000Y-61000000D03*
%TD*%
D20*
%TO.P,SW5,1,1*%
%TO.N,Net-(D4-A)*%
X120040000Y-69420000D03*
%TO.P,SW5,2,2*%
%TO.N,COL1*%
X113690000Y-71960000D03*
%TD*%
D10*
%TO.P,D6,1,K*%
%TO.N,ROW0*%
X77440000Y-54000000D03*
D11*
%TO.P,D6,2,A*%
%TO.N,EC11SWITCHB*%
X85060000Y-54000000D03*
%TD*%
D20*
%TO.P,SW4,1,1*%
%TO.N,Net-(D3-A)*%
X100540000Y-69420000D03*
%TO.P,SW4,2,2*%
%TO.N,COL0*%
X94190000Y-71960000D03*
%TD*%
%TO.P,SW3,1,1*%
%TO.N,Net-(D2-A)*%
X120040000Y-49920000D03*
%TO.P,SW3,2,2*%
%TO.N,COL1*%
X113690000Y-52460000D03*
%TD*%
%TO.P,SW6,1,1*%
%TO.N,Net-(D5-A)*%
X139540000Y-69420000D03*
%TO.P,SW6,2,2*%
%TO.N,COL2*%
X133190000Y-71960000D03*
%TD*%
D21*
%TO.N,GND*%
X114750000Y-31750000D03*
%TO.N,COL1*%
X111000000Y-46750000D03*
%TD*%
D22*
%TO.N,Net-(D1-A)*%
X99960000Y-50500000D02*
X85060000Y-50500000D01*
X100540000Y-49920000D02*
X99960000Y-50500000D01*
%TO.N,ROW0*%
X77440000Y-35068654D02*
X77440000Y-47000000D01*
X77440000Y-47000000D02*
X77440000Y-54000000D01*
X89338654Y-23170000D02*
X77440000Y-35068654D01*
X90375000Y-23170000D02*
X89338654Y-23170000D01*
%TO.N,Net-(D2-A)*%
X117870000Y-47750000D02*
X120040000Y-49920000D01*
X87250000Y-47000000D02*
X88000000Y-47750000D01*
X88000000Y-47750000D02*
X117870000Y-47750000D01*
X85060000Y-47000000D02*
X87250000Y-47000000D01*
%TO.N,ROW1*%
X89338654Y-20630000D02*
X76340000Y-33628654D01*
X76340000Y-33628654D02*
X76340000Y-56400000D01*
X90375000Y-20630000D02*
X89338654Y-20630000D01*
X77440000Y-57500000D02*
X77440000Y-64500000D01*
X76340000Y-56400000D02*
X77440000Y-57500000D01*
%TO.N,Net-(D3-A)*%
X95620000Y-64500000D02*
X100540000Y-69420000D01*
X85060000Y-64500000D02*
X95620000Y-64500000D01*
%TO.N,Net-(D4-A)*%
X85060000Y-61000000D02*
X111620000Y-61000000D01*
X111620000Y-61000000D02*
X120040000Y-69420000D01*
%TO.N,Net-(D5-A)*%
X86360000Y-58800000D02*
X128920000Y-58800000D01*
X128920000Y-58800000D02*
X139540000Y-69420000D01*
X85060000Y-57500000D02*
X86360000Y-58800000D01*
%TO.N,EC11SWITCHB*%
X88560000Y-57500000D02*
X129750000Y-57500000D01*
X85060000Y-54000000D02*
X88560000Y-57500000D01*
%TO.N,GND*%
X112000000Y-30705000D02*
X113705000Y-30705000D01*
X112000000Y-29288654D02*
X110961346Y-28250000D01*
X109475000Y-28150000D02*
X109475000Y-25933654D01*
X113705000Y-30705000D02*
X114750000Y-31750000D01*
X109575000Y-28250000D02*
X109475000Y-28150000D01*
X109475000Y-25933654D02*
X106711346Y-23170000D01*
X112000000Y-30705000D02*
X112000000Y-29288654D01*
X112000000Y-30705000D02*
X110625000Y-32080000D01*
X106711346Y-23170000D02*
X105625000Y-23170000D01*
X110961346Y-28250000D02*
X109575000Y-28250000D01*
%TO.N,VCC*%
X105625000Y-20375000D02*
X105625000Y-20630000D01*
%TO.N,SDA*%
X90335000Y-30750000D02*
X90375000Y-30790000D01*
X87275000Y-32853654D02*
X87275000Y-36775000D01*
X131050000Y-46800000D02*
X111250000Y-27000000D01*
X129211522Y-53800000D02*
X130288478Y-53800000D01*
X89338654Y-30790000D02*
X87275000Y-32853654D01*
X96350000Y-45850000D02*
X121261522Y-45850000D01*
X130288478Y-53800000D02*
X131050000Y-53038478D01*
X121261522Y-45850000D02*
X129211522Y-53800000D01*
X131050000Y-53038478D02*
X131050000Y-46800000D01*
X90375000Y-30790000D02*
X89338654Y-30790000D01*
X111250000Y-27000000D02*
X110625000Y-27000000D01*
X87275000Y-36775000D02*
X96350000Y-45850000D01*
%TO.N,SCL*%
X90375000Y-33330000D02*
X94165000Y-29540000D01*
X94165000Y-29540000D02*
X110625000Y-29540000D01*
%TO.N,COL2*%
X106661346Y-30790000D02*
X109475000Y-33603654D01*
X119500000Y-45250000D02*
X122500000Y-45250000D01*
X109475000Y-33603654D02*
X109475000Y-35225000D01*
X122500000Y-45250000D02*
X129750000Y-52500000D01*
X109475000Y-35225000D02*
X119500000Y-45250000D01*
X105625000Y-30790000D02*
X106661346Y-30790000D01*
%TO.N,COL1*%
X86875000Y-39875000D02*
X93750000Y-46750000D01*
X93750000Y-46750000D02*
X111000000Y-46750000D01*
X86875000Y-30713654D02*
X86875000Y-39875000D01*
X90375000Y-28250000D02*
X89338654Y-28250000D01*
X89338654Y-28250000D02*
X86875000Y-30713654D01*
%TD*%
M02*
