%TF.GenerationSoftware,KiCad,Pcbnew,8.0.5*%
%TF.CreationDate,2024-09-26T23:50:07+10:00*%
%TF.ProjectId,JayPad,4a617950-6164-42e6-9b69-6361645f7063,rev?*%
%TF.SameCoordinates,Original*%
%TF.FileFunction,Soldermask,Bot*%
%TF.FilePolarity,Negative*%
%FSLAX46Y46*%
G04 Gerber Fmt 4.6, Leading zero omitted, Abs format (unit mm)*
G04 Created by KiCad (PCBNEW 8.0.5) date 2024-09-26 23:50:07*
%MOMM*%
%LPD*%
G01*
G04 APERTURE LIST*
G04 Aperture macros list*
%AMRoundRect*
0 Rectangle with rounded corners*
0 $1 Rounding radius*
0 $2 $3 $4 $5 $6 $7 $8 $9 X,Y pos of 4 corners*
0 Add a 4 corners polygon primitive as box body*
4,1,4,$2,$3,$4,$5,$6,$7,$8,$9,$2,$3,0*
0 Add four circle primitives for the rounded corners*
1,1,$1+$1,$2,$3*
1,1,$1+$1,$4,$5*
1,1,$1+$1,$6,$7*
1,1,$1+$1,$8,$9*
0 Add four rect primitives between the rounded corners*
20,1,$1+$1,$2,$3,$4,$5,0*
20,1,$1+$1,$4,$5,$6,$7,0*
20,1,$1+$1,$6,$7,$8,$9,0*
20,1,$1+$1,$8,$9,$2,$3,0*%
G04 Aperture macros list end*
%ADD10C,1.700000*%
%ADD11C,3.000000*%
%ADD12C,4.000000*%
%ADD13R,2.550000X2.500000*%
%ADD14C,1.600000*%
%ADD15O,1.600000X1.600000*%
%ADD16C,2.200000*%
%ADD17C,2.003200*%
%ADD18O,3.003200X5.803200*%
%ADD19RoundRect,0.101600X-0.700000X-0.700000X0.700000X-0.700000X0.700000X0.700000X-0.700000X0.700000X0*%
%ADD20RoundRect,0.500000X0.875000X0.500000X-0.875000X0.500000X-0.875000X-0.500000X0.875000X-0.500000X0*%
%ADD21R,1.500000X0.900000*%
G04 APERTURE END LIST*
D10*
%TO.C,S5*%
X101970000Y-93950000D03*
D11*
X103260000Y-91410000D03*
D12*
X107070000Y-93950000D03*
D11*
X109610000Y-88870000D03*
D10*
X112130000Y-93950000D03*
D13*
X99660000Y-91410000D03*
X113085000Y-88870000D03*
%TD*%
D14*
%TO.C,R1*%
X95000000Y-73920000D03*
D15*
X95000000Y-84080000D03*
%TD*%
D10*
%TO.C,S2*%
X121580000Y-74360000D03*
D11*
X122870000Y-71820000D03*
D12*
X126680000Y-74360000D03*
D11*
X129220000Y-69280000D03*
D10*
X131740000Y-74360000D03*
D13*
X119270000Y-71820000D03*
X132695000Y-69280000D03*
%TD*%
D10*
%TO.C,S9*%
X101950000Y-113570000D03*
D11*
X103240000Y-111030000D03*
D12*
X107050000Y-113570000D03*
D11*
X109590000Y-108490000D03*
D10*
X112110000Y-113570000D03*
D13*
X99640000Y-111030000D03*
X113065000Y-108490000D03*
%TD*%
D10*
%TO.C,S12*%
X160830000Y-113590000D03*
D11*
X162120000Y-111050000D03*
D12*
X165930000Y-113590000D03*
D11*
X168470000Y-108510000D03*
D10*
X170990000Y-113590000D03*
D13*
X158520000Y-111050000D03*
X171945000Y-108510000D03*
%TD*%
D16*
%TO.C,REF\u002A\u002A*%
X199800000Y-62500000D03*
%TD*%
D10*
%TO.C,S1*%
X101970000Y-74390000D03*
D11*
X103260000Y-71850000D03*
D12*
X107070000Y-74390000D03*
D11*
X109610000Y-69310000D03*
D10*
X112130000Y-74390000D03*
D13*
X99660000Y-71850000D03*
X113085000Y-69310000D03*
%TD*%
D10*
%TO.C,S7*%
X141220000Y-93950000D03*
D11*
X142510000Y-91410000D03*
D12*
X146320000Y-93950000D03*
D11*
X148860000Y-88870000D03*
D10*
X151380000Y-93950000D03*
D13*
X138910000Y-91410000D03*
X152335000Y-88870000D03*
%TD*%
D10*
%TO.C,S8*%
X160820000Y-93950000D03*
D11*
X162110000Y-91410000D03*
D12*
X165920000Y-93950000D03*
D11*
X168460000Y-88870000D03*
D10*
X170980000Y-93950000D03*
D13*
X158510000Y-91410000D03*
X171935000Y-88870000D03*
%TD*%
D10*
%TO.C,S3*%
X141220000Y-74360000D03*
D11*
X142510000Y-71820000D03*
D12*
X146320000Y-74360000D03*
D11*
X148860000Y-69280000D03*
D10*
X151380000Y-74360000D03*
D13*
X138910000Y-71820000D03*
X152335000Y-69280000D03*
%TD*%
D16*
%TO.C,REF\u002A\u002A*%
X94800000Y-62500000D03*
%TD*%
D10*
%TO.C,S6*%
X121590000Y-93940000D03*
D11*
X122880000Y-91400000D03*
D12*
X126690000Y-93940000D03*
D11*
X129230000Y-88860000D03*
D10*
X131750000Y-93940000D03*
D13*
X119280000Y-91400000D03*
X132705000Y-88860000D03*
%TD*%
D16*
%TO.C,REF\u002A\u002A*%
X199800000Y-125500000D03*
%TD*%
%TO.C,REF\u002A\u002A*%
X94800000Y-125500000D03*
%TD*%
D10*
%TO.C,S10*%
X121565000Y-113560000D03*
D11*
X122855000Y-111020000D03*
D12*
X126665000Y-113560000D03*
D11*
X129205000Y-108480000D03*
D10*
X131725000Y-113560000D03*
D13*
X119255000Y-111020000D03*
X132680000Y-108480000D03*
%TD*%
D17*
%TO.C,SW1*%
X186760000Y-86380000D03*
X191840000Y-86380000D03*
X186760000Y-101620000D03*
X191840000Y-101620000D03*
X189300000Y-101620000D03*
D18*
X182950000Y-94000000D03*
X195650000Y-94000000D03*
%TD*%
D10*
%TO.C,S11*%
X141190000Y-113580000D03*
D11*
X142480000Y-111040000D03*
D12*
X146290000Y-113580000D03*
D11*
X148830000Y-108500000D03*
D10*
X151350000Y-113580000D03*
D13*
X138880000Y-111040000D03*
X152305000Y-108500000D03*
%TD*%
D10*
%TO.C,S4*%
X160830000Y-74300000D03*
D11*
X162120000Y-71760000D03*
D12*
X165930000Y-74300000D03*
D11*
X168470000Y-69220000D03*
D10*
X170990000Y-74300000D03*
D13*
X158520000Y-71760000D03*
X171945000Y-69220000D03*
%TD*%
D19*
%TO.C,D3*%
X153800000Y-71650000D03*
X153800000Y-75350000D03*
%TD*%
D20*
%TO.C,M1*%
X194882500Y-61785000D03*
X194882500Y-64325000D03*
X194882500Y-66865000D03*
X194882500Y-69405000D03*
X194882500Y-71945000D03*
X194882500Y-74485000D03*
X194882500Y-77025000D03*
X178717500Y-77025000D03*
X178717500Y-74485000D03*
X178717500Y-71945000D03*
X178717500Y-69405000D03*
X178717500Y-66865000D03*
X178717500Y-64325000D03*
X178717500Y-61785000D03*
%TD*%
D19*
%TO.C,D12*%
X173300000Y-111150000D03*
X173300000Y-114850000D03*
%TD*%
D21*
%TO.C,LED6*%
X138950000Y-101850000D03*
X138950000Y-105150000D03*
X134050000Y-105150000D03*
X134050000Y-101850000D03*
%TD*%
D19*
%TO.C,D9*%
X114300000Y-111150000D03*
X114300000Y-114850000D03*
%TD*%
%TO.C,D2*%
X134300000Y-71650000D03*
X134300000Y-75350000D03*
%TD*%
%TO.C,D10*%
X134300000Y-111150000D03*
X134300000Y-114850000D03*
%TD*%
D21*
%TO.C,LED4*%
X178150000Y-82150000D03*
X178150000Y-85450000D03*
X173250000Y-85450000D03*
X173250000Y-82150000D03*
%TD*%
%TO.C,LED5*%
X119350000Y-101850000D03*
X119350000Y-105150000D03*
X114450000Y-105150000D03*
X114450000Y-101850000D03*
%TD*%
D19*
%TO.C,D1*%
X114800000Y-71650000D03*
X114800000Y-75350000D03*
%TD*%
%TO.C,D4*%
X173300000Y-71650000D03*
X173300000Y-75350000D03*
%TD*%
%TO.C,D7*%
X153800000Y-91150000D03*
X153800000Y-94850000D03*
%TD*%
D21*
%TO.C,LED2*%
X138950000Y-82250000D03*
X138950000Y-85550000D03*
X134050000Y-85550000D03*
X134050000Y-82250000D03*
%TD*%
%TO.C,LED7*%
X158550000Y-101850000D03*
X158550000Y-105150000D03*
X153650000Y-105150000D03*
X153650000Y-101850000D03*
%TD*%
D19*
%TO.C,D11*%
X153800000Y-111000000D03*
X153800000Y-114700000D03*
%TD*%
D21*
%TO.C,LED1*%
X119350000Y-82250000D03*
X119350000Y-85550000D03*
X114450000Y-85550000D03*
X114450000Y-82250000D03*
%TD*%
%TO.C,LED8*%
X178250000Y-101850000D03*
X178250000Y-105150000D03*
X173350000Y-105150000D03*
X173350000Y-101850000D03*
%TD*%
%TO.C,LED3*%
X158650000Y-82200000D03*
X158650000Y-85500000D03*
X153750000Y-85500000D03*
X153750000Y-82200000D03*
%TD*%
D19*
%TO.C,D5*%
X114800000Y-91150000D03*
X114800000Y-94850000D03*
%TD*%
%TO.C,D8*%
X173300000Y-91150000D03*
X173300000Y-94850000D03*
%TD*%
%TO.C,D6*%
X134300000Y-91150000D03*
X134300000Y-94850000D03*
%TD*%
M02*
