G04 Layer: DrillDrawingLayer*
G04 EasyEDA Pro v2.2.28.1, 2024-10-19 22:50:09*
G04 Gerber Generator version 0.3*
G04 Scale: 100 percent, Rotated: No, Reflected: No*
G04 Dimensions in millimeters*
G04 Leading zeros omitted, absolute positions, 3 integers and 5 decimals*
%FSLAX35Y35*%
%MOMM*%
%AMIconRect*4,1,4,0.2,-0.2,-0.2,-0.2,-0.2,0.2,0.2,0.2,0.2,-0.2,0*4,0,4,0.166667,-0.166667,0.166667,0.166667,-0.166667,0.166667,-0.166667,-0.166667,0.166667,-0.166667,0*%
%AMIconTriangle*4,1,3,-0.242567,0.171767,0.242567,0.171767,0,-0.2706,-0.242567,0.171767,0*4,0,3,-0.189767,0.1386,0,-0.1953,0.190167,0.1386,-0.189767,0.1386,0*%
%AMIconStar6*4,1,12,0.0862,0.1492,0.213233,0.123367,0.172367,0,0.213233,-0.1229,0.0862,-0.148733,0,-0.245767,-0.085767,-0.148733,-0.213267,-0.1229,-0.171933,0,-0.213267,0.1229,-0.085767,0.1492,0,0.245767,0.0862,0.1492,0*4,0,12,-0.000333,0.195333,-0.064333,0.122667,-0.169667,0.097667,-0.138333,-0.005333,-0.169667,-0.098,-0.064333,-0.122667,-0.000333,-0.195667,0.064333,-0.122667,0.169667,-0.098,0.138667,0.005,0.169667,0.098,0.064333,0.122333,-0.000333,0.195333,0*%
%AMIconStar4*4,1,8,-0.222667,0.222667,0,0.144667,0.222667,0.222667,0.144667,0,0.222667,-0.222667,0,-0.144667,-0.217433,-0.222667,-0.144667,0,-0.222667,0.222667,0*4,0,8,0.166667,-0.166667,0.108,0,0.166667,0.166667,0,0.108,-0.166667,0.166667,-0.108,0,-0.166667,-0.166667,0,-0.108,0.166667,-0.166667,0*%
%AMIconPlus*4,1,12,0.124,-0.2,-0.124,-0.2,-0.124,-0.124,-0.2,-0.124,-0.2,0.124,-0.124,0.124,-0.124,0.2,0.124,0.2,0.124,0.124,0.2,0.124,0.2,-0.124,0.124,-0.124,0.124,-0.2,0*4,0,12,0.090667,-0.166667,0.090667,-0.090667,0.166667,-0.090667,0.166667,0.090667,0.090667,0.090667,0.090667,0.166667,-0.090667,0.166667,-0.090667,0.090667,-0.166667,0.090667,-0.166667,-0.090667,-0.090667,-0.090667,-0.090667,-0.166667,0.090667,-0.166667,0*%
%AMIconX*4,1,16,0.2,-0.2,0.054533,-0.2,0,-0.145467,-0.054533,-0.2,-0.2,-0.2,-0.2,-0.054533,-0.145467,0,-0.2,0.054533,-0.2,0.2,-0.054533,0.2,0,0.145467,0.054533,0.2,0.2,0.2,0.2,0.054533,0.145467,0,0.2,-0.054533,0.2,-0.2,0*4,0,16,0.1668,-0.1664,0.1668,-0.068467,0.097933,0.000067,0.1668,0.068467,0.1668,0.1665,0.068467,0.1665,0,0.097933,-0.068467,0.1665,-0.1668,0.1665,-0.1668,0.068467,-0.097933,0.000067,-0.1668,-0.068467,-0.1668,-0.1664,-0.068467,-0.1664,0,-0.097933,0.068467,-0.1664,0.1668,-0.1664,0*%
%AMIconDiamond*4,1,4,0,-0.26,-0.26,0,0,0.26,0.26,0,0,-0.26,0*4,0,4,0,-0.203433,0.203433,0,0,0.2036,-0.203433,0,0,-0.203433,0*%
%AMIconRect2*4,1,6,0.2,-0.2,-0.2,-0.2,-0.2,0.2,-0.1668,0.1665,-0.166667,-0.166667,0.1668,-0.166667,0.2,-0.2,0*4,1,6,0.2,-0.2,0.1668,-0.166667,0.1668,0.1665,-0.1668,0.1665,-0.2,0.2,0.2,0.2,0.2,-0.2,0*4,1,6,0.133467,-0.133333,-0.133333,-0.133333,-0.133333,0.133467,-0.1,0.100133,-0.1,-0.1,0.100133,-0.1,0.133467,-0.133333,0*4,1,6,0.133467,-0.133333,0.100133,-0.1,0.100133,0.100133,-0.1,0.100133,-0.133333,0.133467,0.133467,0.133467,0.133467,-0.133333,0*%
%AMCharA*4,1,8,-0.122067,-0.1864,-0.1532,-0.174533,-0.015133,0.1864,0.016,0.1864,0.1532,-0.174533,0.122067,-0.1864,0.0764,-0.0662,-0.076133,-0.0662,-0.122067,-0.1864,0*4,0,3,-0.063333,-0.032867,0.063667,-0.032867,0.000333,0.1338,-0.063333,-0.032867,0*%
%AMCharB*4,1,17,-0.131133,-0.1894,-0.131133,0.1894,0.033533,0.1894,0.088067,0.172467,0.1114,0.151733,0.131133,0.114133,0.131,0.066467,0.114333,0.0338,0.094733,0.0128,0.086467,0.0084,0.094733,0.003867,0.114333,-0.017133,0.131,-0.0498,0.131133,-0.114133,0.1114,-0.151733,0.088067,-0.1726,0.033533,-0.1894,-0.131133,-0.1894,0*4,0,10,-0.0978,-0.156067,0.030867,-0.156067,0.073867,-0.142,0.085867,-0.130133,0.099533,-0.1028,0.099533,-0.0614,0.085867,-0.034533,0.073867,-0.0226,0.030867,-0.008667,-0.0978,-0.008667,-0.0978,-0.156067,0*4,0,10,-0.0978,0.024667,0.0308,0.024667,0.073867,0.039267,0.085867,0.051267,0.099533,0.078067,0.099533,0.102667,0.085867,0.130133,0.073867,0.142,0.030867,0.156067,-0.0978,0.156067,-0.0978,0.024667,0*%
%AMCharC*4,1,36,-0.027533,-0.1894,-0.071933,-0.1684,-0.1084,-0.130667,-0.125333,-0.096,-0.1428,-0.041333,-0.1428,0.041333,-0.1244,0.098,-0.105267,0.135067,-0.067533,0.171667,-0.027533,0.1894,0.038533,0.1894,0.083067,0.1684,0.119467,0.130667,0.1428,0.083,0.112867,0.0684,0.090867,0.113467,0.0614,0.142933,0.034733,0.156067,-0.0236,0.156067,-0.050333,0.142933,-0.079733,0.113467,-0.094067,0.084333,-0.109467,0.0386,-0.109467,-0.0386,-0.094067,-0.084333,-0.079733,-0.113467,-0.050333,-0.142867,-0.0236,-0.156067,0.034733,-0.156067,0.0614,-0.142867,0.090867,-0.113467,0.112867,-0.0684,0.1428,-0.083,0.119467,-0.130667,0.083067,-0.1684,0.038533,-0.1894,-0.027533,-0.1894,0*%
%ADD10IconRect*%
%ADD11C,0.44X0.373333*%
%ADD12IconTriangle*%
%ADD13IconStar6*%
%ADD14IconStar4*%
%ADD15IconPlus*%
%ADD16IconX*%
%ADD17IconDiamond*%
%ADD18IconRect2*%
%ADD19CharA*%
%ADD20CharB*%
%ADD21CharC*%
G75*


G04 Drill Drawing Start*
G54D10*
G01X1699989Y6164984D03*
G01X1700004Y4934989D03*
G54D11*
G01X1710505Y7844975D03*
G01X1710520Y6554960D03*
G54D12*
G01X6549984Y6995986D03*
G01X6549984Y7503986D03*
G54D13*
G01X8062516Y-600014D03*
G01X8437502Y2900009D03*
G01X8437522Y-600009D03*
G54D14*
G01X2818994Y8299983D03*
G01X3072994Y8299983D03*
G01X3326994Y8299983D03*
G01X3580994Y8299983D03*
G54D15*
G01X7679982Y4974984D03*
G01X7679982Y7224979D03*
G01X8819985Y4974984D03*
G01X8819985Y7224979D03*
G54D16*
G01X5299969Y6174969D03*
G01X5299984Y5124983D03*
G01X5499969Y6174969D03*
G01X5499984Y5124983D03*
G01X7375004Y3599972D03*
G01X8424990Y3599988D03*
G54D17*
G01X7999997Y4224998D03*
G01X7999997Y5674982D03*
G01X7999997Y6474993D03*
G01X7999997Y7924978D03*
G01X8249984Y4224998D03*
G01X8249984Y6474993D03*
G01X8499996Y4224998D03*
G01X8499996Y5674982D03*
G01X8499996Y6474993D03*
G01X8499996Y7924978D03*
G54D18*
G01X1700009Y5149977D03*
G01X1700009Y5549976D03*
G01X1700009Y5749976D03*
G01X1700009Y5949975D03*
G01X4625990Y6575930D03*
G01X4625990Y6829930D03*
G01X4625990Y7083930D03*
G01X4625990Y7337930D03*
G01X4625990Y7591933D03*
G01X4625990Y7845933D03*
G01X4625990Y8099933D03*
G01X6149988Y6575930D03*
G01X6149988Y6829930D03*
G01X6149988Y7083930D03*
G01X6149988Y7337930D03*
G01X6149988Y7591933D03*
G01X6149988Y7845933D03*
G01X6149988Y8099933D03*
G54D19*
G01X2790378Y6877378D03*
G01X3313491Y7085327D03*
G01X3596447Y7955531D03*
G01X3769243Y6247635D03*
G01X3787633Y6902676D03*
G01X4030406Y6247305D03*
G01X4218442Y6835823D03*
G01X4218442Y7351316D03*
G01X4305818Y6701000D03*
G01X4929439Y6605979D03*
G01X4969190Y8148927D03*
G01X4969901Y5733870D03*
G01X5147473Y6078675D03*
G01X5399999Y5927646D03*
G01X5664845Y8040672D03*
G01X5781863Y5493992D03*
G01X5845109Y5575120D03*
G01X5999389Y8064497D03*
G01X6219581Y6961756D03*
G54D20*
G01X3349988Y-214998D03*
G01X3349988Y1684998D03*
G01X3349988Y3584994D03*
G01X3349988Y5484990D03*
G01X3349998Y-1084999D03*
G01X3349998Y814997D03*
G01X3349998Y2714993D03*
G01X3349998Y4614990D03*
G01X5249984Y-214998D03*
G01X5249984Y1684998D03*
G01X5249984Y3584994D03*
G01X5249984Y4834992D03*
G01X5249995Y-1084999D03*
G01X5249995Y814997D03*
G01X5249995Y2714993D03*
G01X5249995Y3964991D03*
G01X5549984Y-214998D03*
G01X5549984Y1684998D03*
G01X5549984Y3584994D03*
G01X5549994Y-1084999D03*
G01X5549994Y814997D03*
G01X5549994Y2714993D03*
G01X7149981Y5484990D03*
G01X7149991Y4614990D03*
G54D21*
G01X2168995Y-445999D03*
G01X2168995Y1453998D03*
G01X2168995Y3353994D03*
G01X2168995Y5253990D03*
G01X2803995Y-191999D03*
G01X2803995Y1707998D03*
G01X2803995Y3607994D03*
G01X2803995Y5507990D03*
G01X4068991Y-445999D03*
G01X4068991Y1453998D03*
G01X4068991Y3353994D03*
G01X4068991Y5253990D03*
G01X4703991Y-191999D03*
G01X4703991Y1707998D03*
G01X4703991Y3607994D03*
G01X4703991Y5507990D03*
G01X5968987Y-445999D03*
G01X5968987Y1453998D03*
G01X5968987Y3353994D03*
G01X5968987Y5253990D03*
G01X6603987Y-191999D03*
G01X6603987Y1707998D03*
G01X6603987Y3607994D03*
G01X6603987Y5507990D03*
G04 Drill Drawing End*

M02*

