G04 Layer: TopLayer*
G04 EasyEDA Pro v2.2.28.1, 2024-10-19 22:50:09*
G04 Gerber Generator version 0.3*
G04 Scale: 100 percent, Rotated: No, Reflected: No*
G04 Dimensions in millimeters*
G04 Leading zeros omitted, absolute positions, 3 integers and 5 decimals*
%FSLAX35Y35*%
%MOMM*%
%ADD10C,0.35001*%
%ADD11C,0.2*%
%ADD12C,2.25001*%
%ADD13O,1.7X2.4*%
%ADD14O,2.59999X3.99999*%
%ADD15C,2.99999*%
%ADD16R,2.99999X2.99999*%
%ADD17C,1.8029*%
%ADD18C,1.8*%
%ADD19R,1.0X2.26499*%
%ADD20C,2.49999*%
%ADD21C,1.524*%
%ADD22O,2.2X1.2*%
%ADD23C,1.4*%
%ADD24O,3.09999X1.2*%
%ADD25C,0.61001*%
%ADD26C,0.254*%
G75*


G04 Text Start*
G54D10*
G01X6967525Y-1229309D02*
G01X6967525Y-1344117D01*
G01X6967525Y-1344117D02*
G01X7033057Y-1344117D01*
G01X7094271Y-1267663D02*
G01X7094271Y-1322273D01*
G01X7099859Y-1338783D01*
G01X7110781Y-1344117D01*
G01X7127037Y-1344117D01*
G01X7137959Y-1338783D01*
G01X7154469Y-1322273D01*
G01X7154469Y-1267663D02*
G01X7154469Y-1344117D01*
G01X7215683Y-1229309D02*
G01X7215683Y-1344117D01*
G01X7270293Y-1267663D02*
G01X7215683Y-1322273D01*
G01X7237527Y-1300429D02*
G01X7275881Y-1344117D01*
G01X7337095Y-1300429D02*
G01X7402881Y-1300429D01*
G01X7402881Y-1289507D01*
G01X7397293Y-1278585D01*
G01X7391705Y-1272997D01*
G01X7380783Y-1267663D01*
G01X7364527Y-1267663D01*
G01X7353605Y-1272997D01*
G01X7342683Y-1284173D01*
G01X7337095Y-1300429D01*
G01X7337095Y-1311351D01*
G01X7342683Y-1327861D01*
G01X7353605Y-1338783D01*
G01X7364527Y-1344117D01*
G01X7380783Y-1344117D01*
G01X7391705Y-1338783D01*
G01X7402881Y-1327861D01*
G01X7464095Y-1229309D02*
G01X7464095Y-1344117D01*
G01X7464095Y-1229309D02*
G01X7513371Y-1229309D01*
G01X7529881Y-1234897D01*
G01X7535215Y-1240231D01*
G01X7540803Y-1251153D01*
G01X7540803Y-1267663D01*
G01X7535215Y-1278585D01*
G01X7529881Y-1284173D01*
G01X7513371Y-1289507D01*
G01X7464095Y-1289507D01*
G01X7667803Y-1267663D02*
G01X7667803Y-1344117D01*
G01X7667803Y-1284173D02*
G01X7656627Y-1272997D01*
G01X7645705Y-1267663D01*
G01X7629449Y-1267663D01*
G01X7618527Y-1272997D01*
G01X7607605Y-1284173D01*
G01X7602017Y-1300429D01*
G01X7602017Y-1311351D01*
G01X7607605Y-1327861D01*
G01X7618527Y-1338783D01*
G01X7629449Y-1344117D01*
G01X7645705Y-1344117D01*
G01X7656627Y-1338783D01*
G01X7667803Y-1327861D01*
G01X7794803Y-1229309D02*
G01X7794803Y-1344117D01*
G01X7794803Y-1284173D02*
G01X7783627Y-1272997D01*
G01X7772705Y-1267663D01*
G01X7756449Y-1267663D01*
G01X7745527Y-1272997D01*
G01X7734605Y-1284173D01*
G01X7729017Y-1300429D01*
G01X7729017Y-1311351D01*
G01X7734605Y-1327861D01*
G01X7745527Y-1338783D01*
G01X7756449Y-1344117D01*
G01X7772705Y-1344117D01*
G01X7783627Y-1338783D01*
G01X7794803Y-1327861D01*
G54D11*
G01X1724965Y2514905D02*
G01X1734871Y2519985D01*
G01X1745031Y2529891D01*
G01X1750111Y2540051D01*
G01X1750111Y2560117D01*
G01X1745031Y2570023D01*
G01X1734871Y2579929D01*
G01X1724965Y2585009D01*
G01X1709979Y2590089D01*
G01X1685087Y2590089D01*
G01X1670101Y2585009D01*
G01X1659941Y2579929D01*
G01X1650035Y2570023D01*
G01X1644955Y2560117D01*
G01X1644955Y2540051D01*
G01X1650035Y2529891D01*
G01X1659941Y2519985D01*
G01X1670101Y2514905D01*
G01X1715059Y2470963D02*
G01X1644955Y2470963D01*
G01X1685087Y2470963D02*
G01X1700073Y2465883D01*
G01X1709979Y2455977D01*
G01X1715059Y2445817D01*
G01X1715059Y2430831D01*
G01X1685087Y2386889D02*
G01X1685087Y2326945D01*
G01X1694993Y2326945D01*
G01X1704899Y2331771D01*
G01X1709979Y2336851D01*
G01X1715059Y2346757D01*
G01X1715059Y2361743D01*
G01X1709979Y2371903D01*
G01X1700073Y2381809D01*
G01X1685087Y2386889D01*
G01X1674927Y2386889D01*
G01X1659941Y2381809D01*
G01X1650035Y2371903D01*
G01X1644955Y2361743D01*
G01X1644955Y2346757D01*
G01X1650035Y2336851D01*
G01X1659941Y2326945D01*
G01X1715059Y2223059D02*
G01X1644955Y2223059D01*
G01X1700073Y2223059D02*
G01X1709979Y2232965D01*
G01X1715059Y2242871D01*
G01X1715059Y2257857D01*
G01X1709979Y2268017D01*
G01X1700073Y2277923D01*
G01X1685087Y2283003D01*
G01X1674927Y2283003D01*
G01X1659941Y2277923D01*
G01X1650035Y2268017D01*
G01X1644955Y2257857D01*
G01X1644955Y2242871D01*
G01X1650035Y2232965D01*
G01X1659941Y2223059D01*
G01X1750111Y2164131D02*
G01X1665021Y2164131D01*
G01X1650035Y2159051D01*
G01X1644955Y2149145D01*
G01X1644955Y2138985D01*
G01X1715059Y2179117D02*
G01X1715059Y2144065D01*
G01X1685087Y2095043D02*
G01X1685087Y2035099D01*
G01X1694993Y2035099D01*
G01X1704899Y2039925D01*
G01X1709979Y2045005D01*
G01X1715059Y2054911D01*
G01X1715059Y2069897D01*
G01X1709979Y2080057D01*
G01X1700073Y2089963D01*
G01X1685087Y2095043D01*
G01X1674927Y2095043D01*
G01X1659941Y2089963D01*
G01X1650035Y2080057D01*
G01X1644955Y2069897D01*
G01X1644955Y2054911D01*
G01X1650035Y2045005D01*
G01X1659941Y2035099D01*
G01X1750111Y1931213D02*
G01X1644955Y1931213D01*
G01X1700073Y1931213D02*
G01X1709979Y1941119D01*
G01X1715059Y1951025D01*
G01X1715059Y1966011D01*
G01X1709979Y1976171D01*
G01X1700073Y1986077D01*
G01X1685087Y1991157D01*
G01X1674927Y1991157D01*
G01X1659941Y1986077D01*
G01X1650035Y1976171D01*
G01X1644955Y1966011D01*
G01X1644955Y1951025D01*
G01X1650035Y1941119D01*
G01X1659941Y1931213D01*
G01X1750111Y1775257D02*
G01X1644955Y1775257D01*
G01X1700073Y1775257D02*
G01X1709979Y1765097D01*
G01X1715059Y1755191D01*
G01X1715059Y1740205D01*
G01X1709979Y1730299D01*
G01X1700073Y1720139D01*
G01X1685087Y1715313D01*
G01X1674927Y1715313D01*
G01X1659941Y1720139D01*
G01X1650035Y1730299D01*
G01X1644955Y1740205D01*
G01X1644955Y1755191D01*
G01X1650035Y1765097D01*
G01X1659941Y1775257D01*
G01X1715059Y1666291D02*
G01X1644955Y1636319D01*
G01X1715059Y1606347D02*
G01X1644955Y1636319D01*
G01X1624889Y1646225D01*
G01X1614983Y1656385D01*
G01X1609903Y1666291D01*
G01X1609903Y1671371D01*
G01X1750111Y1450391D02*
G01X1644955Y1450391D01*
G01X1644955Y1450391D02*
G01X1644955Y1390447D01*
G01X1715059Y1346505D02*
G01X1665021Y1346505D01*
G01X1650035Y1341425D01*
G01X1644955Y1331519D01*
G01X1644955Y1316533D01*
G01X1650035Y1306373D01*
G01X1665021Y1291387D01*
G01X1715059Y1291387D02*
G01X1644955Y1291387D01*
G01X1700073Y1187501D02*
G01X1709979Y1197407D01*
G01X1715059Y1207313D01*
G01X1715059Y1222299D01*
G01X1709979Y1232459D01*
G01X1700073Y1242365D01*
G01X1685087Y1247445D01*
G01X1674927Y1247445D01*
G01X1659941Y1242365D01*
G01X1650035Y1232459D01*
G01X1644955Y1222299D01*
G01X1644955Y1207313D01*
G01X1650035Y1197407D01*
G01X1659941Y1187501D01*
G01X1715059Y1083615D02*
G01X1644955Y1083615D01*
G01X1700073Y1083615D02*
G01X1709979Y1093521D01*
G01X1715059Y1103427D01*
G01X1715059Y1118413D01*
G01X1709979Y1128573D01*
G01X1700073Y1138479D01*
G01X1685087Y1143559D01*
G01X1674927Y1143559D01*
G01X1659941Y1138479D01*
G01X1650035Y1128573D01*
G01X1644955Y1118413D01*
G01X1644955Y1103427D01*
G01X1650035Y1093521D01*
G01X1659941Y1083615D01*
G01X1700073Y984555D02*
G01X1709979Y989635D01*
G01X1715059Y1004621D01*
G01X1715059Y1019607D01*
G01X1709979Y1034593D01*
G01X1700073Y1039673D01*
G01X1689913Y1034593D01*
G01X1685087Y1024687D01*
G01X1680007Y999541D01*
G01X1674927Y989635D01*
G01X1665021Y984555D01*
G01X1659941Y984555D01*
G01X1650035Y989635D01*
G01X1644955Y1004621D01*
G01X1644955Y1019607D01*
G01X1650035Y1034593D01*
G01X1659941Y1039673D01*
G01X1750111Y793547D02*
G01X1644955Y793547D01*
G01X1750111Y828599D02*
G01X1750111Y758495D01*
G01X1715059Y654609D02*
G01X1644955Y654609D01*
G01X1700073Y654609D02*
G01X1709979Y664515D01*
G01X1715059Y674421D01*
G01X1715059Y689407D01*
G01X1709979Y699567D01*
G01X1700073Y709473D01*
G01X1685087Y714553D01*
G01X1674927Y714553D01*
G01X1659941Y709473D01*
G01X1650035Y699567D01*
G01X1644955Y689407D01*
G01X1644955Y674421D01*
G01X1650035Y664515D01*
G01X1659941Y654609D01*
G01X1715059Y610667D02*
G01X1644955Y610667D01*
G01X1694993Y610667D02*
G01X1709979Y595681D01*
G01X1715059Y585521D01*
G01X1715059Y570535D01*
G01X1709979Y560629D01*
G01X1694993Y555549D01*
G01X1644955Y555549D01*
G01X1715059Y451663D02*
G01X1635049Y451663D01*
G01X1620063Y456489D01*
G01X1614983Y461569D01*
G01X1609903Y471475D01*
G01X1609903Y486461D01*
G01X1614983Y496621D01*
G01X1700073Y451663D02*
G01X1709979Y461569D01*
G01X1715059Y471475D01*
G01X1715059Y486461D01*
G01X1709979Y496621D01*
G01X1700073Y506527D01*
G01X1685087Y511607D01*
G01X1674927Y511607D01*
G01X1659941Y506527D01*
G01X1650035Y496621D01*
G01X1644955Y486461D01*
G01X1644955Y471475D01*
G01X1650035Y461569D01*
G01X1659941Y451663D01*
G01X1704899Y290627D02*
G01X1700073Y295707D01*
G01X1694993Y290627D01*
G01X1700073Y285547D01*
G01X1704899Y290627D01*
G01X1670101Y290627D02*
G01X1665021Y295707D01*
G01X1659941Y290627D01*
G01X1665021Y285547D01*
G01X1670101Y290627D01*
G01X1750111Y241605D02*
G01X1644955Y241605D01*
G01X1750111Y241605D02*
G01X1750111Y206553D01*
G01X1745031Y191567D01*
G01X1734871Y181661D01*
G01X1724965Y176581D01*
G01X1709979Y171501D01*
G01X1685087Y171501D01*
G01X1670101Y176581D01*
G01X1659941Y181661D01*
G01X1650035Y191567D01*
G01X1644955Y206553D01*
G01X1644955Y241605D01*
G04 Text End*

G04 Pad Start*
G54D12*
G01X2169008Y5253990D03*
G01X2804008Y5507990D03*
G01X4069004Y5253990D03*
G01X4704004Y5507990D03*
G01X5969000Y5253990D03*
G01X6604000Y5507990D03*
G01X5969000Y3353994D03*
G01X6604000Y3607994D03*
G01X4069004Y3353994D03*
G01X4704004Y3607994D03*
G01X2169008Y3353994D03*
G01X2804008Y3607994D03*
G01X2169008Y-445999D03*
G01X2804008Y-191999D03*
G01X4069004Y-445999D03*
G01X4704004Y-191999D03*
G01X5969000Y-445999D03*
G01X6604000Y-191999D03*
G01X5969000Y1453998D03*
G01X6604000Y1707998D03*
G01X4069004Y1453998D03*
G01X4704004Y1707998D03*
G01X2169008Y1453998D03*
G01X2804008Y1707998D03*
G54D13*
G01X7999984Y5674970D03*
G01X8500008Y5674970D03*
G01X7999984Y4224985D03*
G01X8249971Y4224985D03*
G01X8500008Y4224985D03*
G54D14*
G01X7679969Y4974971D03*
G01X8819998Y4974971D03*
G54D15*
G01X6550000Y6995998D03*
G54D16*
G01X6550000Y7503973D03*
G54D18*
G01X2818994Y8299983D03*
G01X3072994Y8299983D03*
G01X3326994Y8299983D03*
G01X3580994Y8299983D03*
G54D13*
G01X7999984Y7924965D03*
G01X8500008Y7924965D03*
G01X7999984Y6474981D03*
G01X8249971Y6474981D03*
G01X8500008Y6474981D03*
G54D14*
G01X7679969Y7224967D03*
G01X8819998Y7224967D03*
G54D19*
G01X5400015Y7970749D03*
G01X5250002Y7970749D03*
G01X5099990Y7970749D03*
G01X5099990Y7529246D03*
G01X5250002Y7529246D03*
G01X5400015Y7529246D03*
G01X5400015Y6970751D03*
G01X5250002Y6970751D03*
G01X5099990Y6970751D03*
G01X5099990Y6529248D03*
G01X5250002Y6529248D03*
G01X5400015Y6529248D03*
G54D20*
G01X8437499Y-600024D03*
G01X8062493Y-600024D03*
G01X8437499Y2899994D03*
G54D21*
G01X6150026Y8099958D03*
G01X6150026Y7845958D03*
G01X6150026Y7591958D03*
G01X6150026Y7337958D03*
G01X6150026Y7083958D03*
G01X6150026Y6829958D03*
G01X6150026Y6575958D03*
G01X4626026Y6575958D03*
G01X4626026Y6829958D03*
G01X4626026Y7083958D03*
G01X4626026Y7337958D03*
G01X4626026Y7591958D03*
G01X4626026Y7845958D03*
G01X4626026Y8099958D03*
G01X1699997Y5149977D03*
G01X1699997Y5549976D03*
G01X1699997Y5749976D03*
G01X1699997Y5949975D03*
G54D22*
G01X1699997Y6164986D03*
G01X1699997Y4934991D03*
G54D23*
G01X5499989Y6174969D03*
G01X5499989Y5124983D03*
G01X5299989Y6174969D03*
G01X5299989Y5124983D03*
G54D18*
G01X3350006Y5484978D03*
G01X3350006Y4614977D03*
G01X5250002Y4834979D03*
G01X5250002Y3964978D03*
G01X7149998Y5484978D03*
G01X7149998Y4614977D03*
G01X5250002Y3584981D03*
G01X5250002Y2714981D03*
G01X5549976Y2715006D03*
G01X5549976Y3585007D03*
G01X3350006Y3584981D03*
G01X3350006Y2714981D03*
G01X5250002Y1684985D03*
G01X5250002Y814984D03*
G01X5549976Y815010D03*
G01X5549976Y1685011D03*
G01X3350006Y1684985D03*
G01X3350006Y814984D03*
G01X5250002Y-215011D03*
G01X5250002Y-1085012D03*
G01X5549976Y-1084986D03*
G01X5549976Y-214986D03*
G01X3350006Y-215011D03*
G01X3350006Y-1085012D03*
G54D24*
G01X1710512Y7844993D03*
G01X1710512Y6554978D03*
G54D23*
G01X7375004Y3599993D03*
G01X8424990Y3599993D03*
G04 Pad End*

G04 Via Start*
G54D25*
G01X5999389Y8064497D03*
G01X3596447Y7955531D03*
G01X3313491Y7085327D03*
G01X4969901Y5733870D03*
G01X4030406Y6247305D03*
G01X5845109Y5575120D03*
G01X5781863Y5493992D03*
G01X2790378Y6877378D03*
G01X3787633Y6902676D03*
G01X3769243Y6247635D03*
G01X6219581Y6961756D03*
G01X4929439Y6605979D03*
G01X5147473Y6078675D03*
G01X5399999Y5927646D03*
G01X4218442Y7351316D03*
G01X4969190Y8148927D03*
G01X5664845Y8040672D03*
G01X4218442Y6835823D03*
G01X4305818Y6701000D03*
G04 Via End*

G04 Track Start*
G54D26*
G01X3350016Y-1085014D02*
G01X3478566Y-956465D01*
G01X3478566Y686432D01*
G01X3350016Y814982D01*
G01X3473130Y938096D01*
G01X3473130Y2591864D01*
G01X3350016Y2714978D01*
G01X3468101Y4614974D02*
G01X3350016Y4614974D01*
G01X3350016Y2714978D02*
G01X3468101Y2833063D01*
G01X3468101Y4614974D01*
G01X3468101Y5602145D01*
G01X4626036Y6760080D01*
G01X4626036Y6829956D01*
G01X5250012Y-1085014D02*
G01X5373761Y-961266D01*
G01X5373761Y691233D01*
G01X5250012Y814982D01*
G01X5373583Y938553D01*
G01X5373583Y2591407D01*
G01X5250012Y2714978D01*
G01X5250012Y3964988D02*
G01X5376962Y3838039D01*
G01X5376962Y2841927D01*
G01X5250012Y2714978D01*
G01X4626036Y7083956D02*
G01X4730303Y6979689D01*
G01X4730303Y5712711D01*
G01X5074270Y5368745D01*
G01X5074270Y4140731D01*
G01X5250012Y3964988D01*
G01X8424987Y3599990D02*
G01X8437509Y3587468D01*
G01X8437509Y2899992D01*
G01X5250012Y6970748D02*
G01X5250012Y7041335D01*
G01X5250012Y7111896D01*
G01X5250012Y7041335D02*
G01X5320574Y7111896D01*
G01X5400025Y7111896D01*
G01X5400025Y6970748D02*
G01X5400025Y7111896D01*
G01X5100000Y6970748D02*
G01X5100000Y7111896D01*
G01X4626036Y7845956D02*
G01X4642419Y7829573D01*
G01X5100000Y7829573D01*
G01X5100000Y7970746D02*
G01X5100000Y7900159D01*
G01X5100000Y7829573D01*
G01X5100000Y7900159D02*
G01X5170587Y7829573D01*
G01X5250012Y7829573D01*
G01X5250012Y7970746D02*
G01X5250012Y7900159D01*
G01X5250012Y7829573D01*
G01X5250012Y7900159D02*
G01X5320599Y7829573D01*
G01X5400025Y7829573D01*
G01X5400025Y7970746D02*
G01X5400025Y7900159D01*
G01X5400025Y7829573D01*
G01X8249981Y4224983D02*
G01X8249981Y3774996D01*
G01X8424987Y3599990D01*
G01X5100000Y7111896D02*
G01X5250012Y7111896D01*
G01X5400025Y7900159D02*
G01X5478231Y7821953D01*
G01X5478231Y7190102D01*
G01X5400025Y7111896D01*
G01X8249981Y6474940D02*
G01X7787091Y6937830D01*
G01X7517826Y6937830D01*
G01X6036295Y8419361D01*
G01X2938384Y8419361D01*
G01X2819004Y8299981D01*
G01X8249981Y6474940D02*
G01X8249981Y4224983D01*
G01X5100000Y7670391D02*
G01X5071120Y7699271D01*
G01X4580799Y7699271D01*
G01X4305818Y7424290D01*
G01X4305818Y6701000D01*
G01X5100000Y7529243D02*
G01X5100000Y7670391D01*
G01X5250012Y7388070D02*
G01X5021895Y7159953D01*
G01X5021895Y6845882D01*
G01X5040894Y6826882D01*
G01X5473990Y6826882D01*
G01X5556032Y6908924D01*
G01X5556032Y7931859D01*
G01X5664845Y8040672D01*
G01X4218442Y6835823D02*
G01X4145239Y6909026D01*
G01X4145239Y7784335D01*
G01X4576557Y8215653D01*
G01X4902464Y8215653D01*
G01X4969190Y8148927D01*
G01X5250012Y7529243D02*
G01X5250012Y7388070D01*
G01X4218442Y7351316D02*
G01X4218442Y7414283D01*
G01X4544223Y7740063D01*
G01X5330353Y7740063D01*
G01X5400025Y7670391D01*
G01X5400025Y7529243D02*
G01X5400025Y7670391D01*
G01X5100000Y6529245D02*
G01X5100000Y6388072D01*
G01X5399999Y5927646D02*
G01X5399999Y6216673D01*
G01X5319304Y6297369D01*
G01X5190703Y6297369D01*
G01X5100000Y6388072D01*
G01X5250012Y6529245D02*
G01X5250012Y6388072D01*
G01X5147473Y6078675D02*
G01X5368199Y5857949D01*
G01X5426111Y5857949D01*
G01X5609346Y6041184D01*
G01X5609346Y6217308D01*
G01X5465455Y6361199D01*
G01X5276886Y6361199D01*
G01X5250012Y6388072D01*
G01X5400025Y6529245D02*
G01X5400025Y6670393D01*
G01X4929439Y6605979D02*
G01X4994031Y6670571D01*
G01X5399847Y6670571D01*
G01X6219581Y6961756D02*
G01X6258799Y6922539D01*
G01X6258799Y5439153D01*
G01X6971193Y4726760D01*
G01X6971193Y491284D01*
G01X8062504Y-600027D01*
G01X3769243Y6247635D02*
G01X3769243Y6884286D01*
G01X3787633Y6902676D01*
G01X4626036Y6575956D02*
G01X4069014Y6018934D01*
G01X4069014Y5253987D01*
G01X6150036Y6575956D02*
G01X6150036Y5140907D01*
G01X5969010Y4959881D01*
G01X5969010Y3353991D01*
G01X6150036Y7591956D02*
G01X5675462Y7117382D01*
G01X5675462Y-152453D01*
G01X5969010Y-446001D01*
G01X6150036Y7337956D02*
G01X5716483Y6904403D01*
G01X5716483Y1706522D01*
G01X5969010Y1453995D01*
G01X4626036Y8099956D02*
G01X4643740Y8082252D01*
G01X4985370Y8082252D01*
G01X5015189Y8112072D01*
G01X5676275Y8112072D01*
G01X5815391Y7972956D01*
G01X6186053Y7972956D01*
G01X6371905Y7787104D01*
G01X6371905Y7329193D01*
G01X6436700Y7264397D01*
G01X6544752Y7264397D01*
G01X7425497Y6383652D01*
G01X7425497Y3688230D01*
G01X8437509Y2676218D01*
G01X8437509Y-600027D01*
G01X2790378Y6877378D02*
G01X2790378Y8017355D01*
G01X3073004Y8299981D01*
G01X6150036Y7083956D02*
G01X5781863Y6715783D01*
G01X5781863Y5493992D01*
G01X5549986Y-214988D02*
G01X5418745Y-83746D01*
G01X5418745Y1553766D01*
G01X5549986Y1685008D01*
G01X5483870Y3585004D02*
G01X5549986Y3585004D01*
G01X5549986Y1685008D02*
G01X5417754Y1817240D01*
G01X5417754Y3518888D01*
G01X5483870Y3585004D01*
G01X4626036Y7337956D02*
G01X4786361Y7177631D01*
G01X4786361Y6251014D01*
G01X5399999Y5637375D01*
G01X5399999Y5069482D01*
G01X5483870Y4985611D01*
G01X5483870Y3585004D01*
G01X7375002Y3599990D02*
G01X7375002Y5855383D01*
G01X6299744Y6930641D01*
G01X6299744Y7696248D01*
G01X6150036Y7845956D01*
G01X5845109Y5575120D02*
G01X5845109Y6525029D01*
G01X6150036Y6829956D01*
G01X4969901Y5733870D02*
G01X5300000Y5403771D01*
G01X5300000Y5124981D01*
G01X4030406Y6247305D02*
G01X4030406Y7604427D01*
G01X3334852Y8299981D01*
G01X3327004Y8299981D01*
G01X1700007Y5549974D02*
G01X1778137Y5549974D01*
G01X3313491Y7085327D01*
G01X3596447Y7368283D01*
G01X3596447Y7955531D01*
G01X5999389Y8064497D02*
G01X5999389Y8096781D01*
G01X6107720Y8205112D01*
G01X6192860Y8205112D01*
G01X6550010Y7847962D01*
G01X6550010Y7503970D01*
G01X8500044Y7924975D02*
G01X8375051Y7799982D01*
G01X8375051Y5799935D01*
G01X8500019Y5674967D01*
G01X4626036Y7591956D02*
G01X4860351Y7357641D01*
G01X4860351Y6551242D01*
G01X5236627Y6174966D01*
G01X5300000Y6174966D01*
G04 Track End*

M02*

