%TF.GenerationSoftware,KiCad,Pcbnew,8.0.8*%
%TF.CreationDate,2025-02-13T12:07:57-05:00*%
%TF.ProjectId,SplashPad,53706c61-7368-4506-9164-2e6b69636164,1*%
%TF.SameCoordinates,Original*%
%TF.FileFunction,Soldermask,Top*%
%TF.FilePolarity,Negative*%
%FSLAX46Y46*%
G04 Gerber Fmt 4.6, Leading zero omitted, Abs format (unit mm)*
G04 Created by KiCad (PCBNEW 8.0.8) date 2025-02-13 12:07:57*
%MOMM*%
%LPD*%
G01*
G04 APERTURE LIST*
G04 Aperture macros list*
%AMRoundRect*
0 Rectangle with rounded corners*
0 $1 Rounding radius*
0 $2 $3 $4 $5 $6 $7 $8 $9 X,Y pos of 4 corners*
0 Add a 4 corners polygon primitive as box body*
4,1,4,$2,$3,$4,$5,$6,$7,$8,$9,$2,$3,0*
0 Add four circle primitives for the rounded corners*
1,1,$1+$1,$2,$3*
1,1,$1+$1,$4,$5*
1,1,$1+$1,$6,$7*
1,1,$1+$1,$8,$9*
0 Add four rect primitives between the rounded corners*
20,1,$1+$1,$2,$3,$4,$5,0*
20,1,$1+$1,$4,$5,$6,$7,0*
20,1,$1+$1,$6,$7,$8,$9,0*
20,1,$1+$1,$8,$9,$2,$3,0*%
G04 Aperture macros list end*
%ADD10C,0.300000*%
%ADD11C,0.000000*%
%ADD12R,0.850000X1.600000*%
%ADD13R,1.600000X1.600000*%
%ADD14O,1.600000X1.600000*%
%ADD15C,1.700000*%
%ADD16C,4.000000*%
%ADD17C,2.200000*%
%ADD18C,3.200000*%
%ADD19R,2.000000X2.000000*%
%ADD20C,2.000000*%
%ADD21R,3.200000X2.000000*%
%ADD22R,1.600000X0.850000*%
%ADD23RoundRect,0.152400X1.063600X0.609600X-1.063600X0.609600X-1.063600X-0.609600X1.063600X-0.609600X0*%
%ADD24C,1.524000*%
%ADD25RoundRect,0.152400X-1.063600X-0.609600X1.063600X-0.609600X1.063600X0.609600X-1.063600X0.609600X0*%
G04 APERTURE END LIST*
D10*
G36*
X162294207Y-147628527D02*
G01*
X162193243Y-147614051D01*
X162103698Y-147577236D01*
X162020257Y-147524543D01*
X161942608Y-147462385D01*
X161912700Y-147435087D01*
X161836639Y-147500156D01*
X161762735Y-147544996D01*
X161670167Y-147584197D01*
X161589811Y-147597264D01*
X161483480Y-147584241D01*
X161391289Y-147550251D01*
X161302421Y-147495163D01*
X161263991Y-147463907D01*
X161190318Y-147386344D01*
X161136737Y-147294181D01*
X161112923Y-147195720D01*
X161111584Y-147164954D01*
X161121775Y-147052528D01*
X161152349Y-146944777D01*
X161194779Y-146856140D01*
X161252184Y-146770937D01*
X161324563Y-146689169D01*
X161408524Y-146615295D01*
X161496640Y-146556705D01*
X161588912Y-146513400D01*
X161685341Y-146485379D01*
X161785925Y-146472642D01*
X161820376Y-146471793D01*
X161920691Y-146491164D01*
X161980977Y-146569861D01*
X161984996Y-146609546D01*
X161949427Y-146704891D01*
X161866720Y-146762914D01*
X161858967Y-146766350D01*
X161758736Y-146809123D01*
X161666082Y-146848893D01*
X161624005Y-146867466D01*
X161551974Y-146938490D01*
X161509843Y-147031332D01*
X161497487Y-147134668D01*
X161520935Y-147184005D01*
X161588346Y-147222107D01*
X161684047Y-147196440D01*
X161755896Y-147126852D01*
X161862875Y-146945136D01*
X161935048Y-146871496D01*
X162016748Y-146846950D01*
X162114588Y-146880236D01*
X162156380Y-146970752D01*
X162159874Y-147020851D01*
X162150593Y-147103405D01*
X162141800Y-147187424D01*
X162196999Y-147251905D01*
X162294207Y-147253370D01*
X162392864Y-147245116D01*
X162489256Y-147207256D01*
X162515491Y-147183517D01*
X162557623Y-147093025D01*
X162570790Y-146992297D01*
X162571667Y-146952463D01*
X162562926Y-146843653D01*
X162536702Y-146742536D01*
X162492996Y-146649113D01*
X162431808Y-146563384D01*
X162353137Y-146485348D01*
X162323028Y-146461046D01*
X162232719Y-146400951D01*
X162135816Y-146353289D01*
X162032318Y-146318061D01*
X161922226Y-146295266D01*
X161805539Y-146284905D01*
X161765177Y-146284214D01*
X161653203Y-146290726D01*
X161549003Y-146310261D01*
X161452580Y-146342818D01*
X161363932Y-146388399D01*
X161283060Y-146447003D01*
X161209964Y-146518630D01*
X161182903Y-146550928D01*
X161116997Y-146646171D01*
X161064727Y-146750550D01*
X161031585Y-146844512D01*
X161007912Y-146944819D01*
X160993708Y-147051470D01*
X160988974Y-147164466D01*
X160994483Y-147267348D01*
X161011013Y-147365031D01*
X161045394Y-147475387D01*
X161095643Y-147578255D01*
X161161760Y-147673636D01*
X161214654Y-147733063D01*
X161291195Y-147802019D01*
X161374271Y-147859287D01*
X161463882Y-147904868D01*
X161560029Y-147938761D01*
X161662711Y-147960967D01*
X161771928Y-147971486D01*
X161817445Y-147972421D01*
X161920924Y-147959827D01*
X162017315Y-147936025D01*
X162115638Y-147905800D01*
X162208646Y-147873686D01*
X162290300Y-147843461D01*
X162384266Y-147816212D01*
X162387508Y-147816106D01*
X162483208Y-147843033D01*
X162524773Y-147878632D01*
X162574741Y-147967850D01*
X162581437Y-148020293D01*
X162544264Y-148114725D01*
X162458552Y-148184088D01*
X162357480Y-148233122D01*
X162266852Y-148265512D01*
X162159502Y-148297489D01*
X162057574Y-148321612D01*
X161961070Y-148337881D01*
X161857419Y-148346857D01*
X161820376Y-148347578D01*
X161695675Y-148342411D01*
X161575828Y-148326909D01*
X161460836Y-148301073D01*
X161350697Y-148264902D01*
X161245413Y-148218396D01*
X161144984Y-148161557D01*
X161049409Y-148094382D01*
X160958688Y-148016873D01*
X160873737Y-147929839D01*
X160800113Y-147837507D01*
X160737816Y-147739879D01*
X160686845Y-147636953D01*
X160647202Y-147528731D01*
X160618885Y-147415211D01*
X160601895Y-147296395D01*
X160596231Y-147172281D01*
X160600956Y-147044084D01*
X160615129Y-146921078D01*
X160638752Y-146803261D01*
X160671824Y-146690635D01*
X160714345Y-146583198D01*
X160766316Y-146480952D01*
X160827735Y-146383896D01*
X160898604Y-146292030D01*
X160983631Y-146202271D01*
X161075314Y-146124480D01*
X161173652Y-146058656D01*
X161278646Y-146004801D01*
X161390295Y-145962913D01*
X161508600Y-145932993D01*
X161633561Y-145915041D01*
X161731649Y-145909431D01*
X161765177Y-145909057D01*
X161883933Y-145913446D01*
X161998399Y-145926612D01*
X162108575Y-145948556D01*
X162214462Y-145979277D01*
X162316060Y-146018776D01*
X162413367Y-146067052D01*
X162506386Y-146124106D01*
X162595115Y-146189937D01*
X162681439Y-146267339D01*
X162756254Y-146349824D01*
X162819559Y-146437393D01*
X162871353Y-146530045D01*
X162911638Y-146627780D01*
X162940413Y-146730599D01*
X162957678Y-146838501D01*
X162963433Y-146951486D01*
X162957594Y-147065408D01*
X162940077Y-147169404D01*
X162910882Y-147263474D01*
X162862063Y-147360676D01*
X162797348Y-147444368D01*
X162714000Y-147516125D01*
X162615692Y-147570258D01*
X162519521Y-147602630D01*
X162412360Y-147622053D01*
X162314663Y-147628347D01*
X162294207Y-147628527D01*
G37*
G36*
X163891067Y-148253789D02*
G01*
X163785687Y-148249984D01*
X163687535Y-148238571D01*
X163579291Y-148214832D01*
X163481455Y-148180136D01*
X163394025Y-148134484D01*
X163341521Y-148097962D01*
X163267576Y-148030703D01*
X163209642Y-147948980D01*
X163176631Y-147850653D01*
X163172505Y-147798520D01*
X163192922Y-147701472D01*
X163224773Y-147654417D01*
X163310415Y-147604017D01*
X163368876Y-147597264D01*
X163464392Y-147620265D01*
X163534663Y-147689267D01*
X163550104Y-147717431D01*
X163609756Y-147795355D01*
X163700783Y-147847777D01*
X163808036Y-147872965D01*
X163904745Y-147878632D01*
X164007267Y-147874074D01*
X164108386Y-147860399D01*
X164208103Y-147837609D01*
X164306417Y-147805702D01*
X164361967Y-147783377D01*
X164451426Y-147739913D01*
X164534159Y-147681284D01*
X164587968Y-147598302D01*
X164591556Y-147569420D01*
X164574701Y-147472474D01*
X164511322Y-147391092D01*
X164448918Y-147358883D01*
X164343634Y-147335665D01*
X164241540Y-147324918D01*
X164131271Y-147318620D01*
X164040544Y-147315896D01*
X163939040Y-147309522D01*
X163842259Y-147295527D01*
X163737433Y-147270202D01*
X163638774Y-147234924D01*
X163615073Y-147224549D01*
X163528737Y-147177214D01*
X163451019Y-147113003D01*
X163392538Y-147027770D01*
X163366419Y-146929898D01*
X163364968Y-146889937D01*
X163376188Y-146788786D01*
X163406917Y-146690864D01*
X163457155Y-146596170D01*
X163526901Y-146504705D01*
X163599926Y-146430950D01*
X163650244Y-146387773D01*
X163739731Y-146321914D01*
X163832033Y-146267217D01*
X163927149Y-146223682D01*
X164025080Y-146191311D01*
X164125826Y-146170102D01*
X164229386Y-146160055D01*
X164271598Y-146159162D01*
X164371734Y-146166666D01*
X164475690Y-146186511D01*
X164579773Y-146214975D01*
X164604256Y-146222665D01*
X164699996Y-146258218D01*
X164788538Y-146307295D01*
X164849005Y-146391164D01*
X164849965Y-146403893D01*
X164824477Y-146500391D01*
X164800628Y-146533342D01*
X164719417Y-146587915D01*
X164658967Y-146596845D01*
X164559837Y-146585824D01*
X164466015Y-146565582D01*
X164365570Y-146544211D01*
X164271598Y-146534319D01*
X164173285Y-146541364D01*
X164067401Y-146563785D01*
X163975125Y-146597097D01*
X163935031Y-146615896D01*
X163847962Y-146668571D01*
X163780242Y-146746963D01*
X163769923Y-146794193D01*
X163819748Y-146876748D01*
X163912711Y-146912073D01*
X163970690Y-146922177D01*
X164069493Y-146927397D01*
X164168063Y-146932618D01*
X164266402Y-146937839D01*
X164320935Y-146940739D01*
X164430924Y-146953963D01*
X164531915Y-146976048D01*
X164638363Y-147013013D01*
X164732564Y-147062040D01*
X164803558Y-147113663D01*
X164879503Y-147192403D01*
X164936795Y-147283297D01*
X164975433Y-147386347D01*
X164993706Y-147484349D01*
X164998464Y-147572840D01*
X164988602Y-147680206D01*
X164959013Y-147779129D01*
X164909700Y-147869609D01*
X164840660Y-147951645D01*
X164751896Y-148025238D01*
X164666682Y-148078032D01*
X164594487Y-148114082D01*
X164496169Y-148154329D01*
X164393559Y-148187755D01*
X164286655Y-148214360D01*
X164175457Y-148234142D01*
X164059967Y-148247104D01*
X163940183Y-148253243D01*
X163891067Y-148253789D01*
G37*
G36*
X165594905Y-146918757D02*
G01*
X165672071Y-146851461D01*
X165760318Y-146794525D01*
X165809839Y-146770746D01*
X165905770Y-146739119D01*
X166007021Y-146723615D01*
X166055547Y-146721898D01*
X166164785Y-146730110D01*
X166267971Y-146758983D01*
X166358150Y-146815445D01*
X166393579Y-146853300D01*
X166442649Y-146941846D01*
X166470632Y-147038408D01*
X166485783Y-147143015D01*
X166486880Y-147155673D01*
X166491298Y-147260840D01*
X166496001Y-147366294D01*
X166500991Y-147472034D01*
X166502023Y-147493217D01*
X166511976Y-147592593D01*
X166522272Y-147694041D01*
X166529378Y-147761395D01*
X166543457Y-147861280D01*
X166561054Y-147959843D01*
X166575785Y-148026643D01*
X166582623Y-148077445D01*
X166552341Y-148173811D01*
X166524005Y-148203963D01*
X166434610Y-148248923D01*
X166387718Y-148253789D01*
X166291123Y-148231377D01*
X166223163Y-148157112D01*
X166207955Y-148117990D01*
X166183866Y-148022918D01*
X166165052Y-147924381D01*
X166149098Y-147820689D01*
X166147383Y-147808290D01*
X166135340Y-147705988D01*
X166126581Y-147605009D01*
X166122494Y-147501465D01*
X166122470Y-147493705D01*
X166125679Y-147395364D01*
X166125889Y-147391123D01*
X166129782Y-147292892D01*
X166129797Y-147288541D01*
X166128412Y-147190121D01*
X166126866Y-147171793D01*
X166062752Y-147097347D01*
X166055547Y-147097055D01*
X165954115Y-147113274D01*
X165859378Y-147161934D01*
X165779064Y-147234319D01*
X165714951Y-147317907D01*
X165658164Y-147406693D01*
X165606140Y-147495170D01*
X165605385Y-147610751D01*
X165603118Y-147714226D01*
X165598159Y-147826546D01*
X165589092Y-147936364D01*
X165571712Y-148040419D01*
X165557780Y-148080865D01*
X165493559Y-148160105D01*
X165394534Y-148191155D01*
X165387299Y-148191263D01*
X165289697Y-148167020D01*
X165250523Y-148139972D01*
X165196747Y-148058364D01*
X165190928Y-148013942D01*
X165206071Y-147941646D01*
X165215108Y-147834302D01*
X165219077Y-147722835D01*
X165221813Y-147613951D01*
X165222679Y-147572840D01*
X165220681Y-147457080D01*
X165219882Y-147341041D01*
X165219810Y-147235398D01*
X165220241Y-147118368D01*
X165221176Y-146989949D01*
X165222208Y-146886162D01*
X165223523Y-146775970D01*
X165225122Y-146659371D01*
X165228053Y-146614431D01*
X165232780Y-146516247D01*
X165236154Y-146418565D01*
X165236357Y-146399009D01*
X165226967Y-146298776D01*
X165223168Y-146273956D01*
X165211472Y-146175978D01*
X165210467Y-146148904D01*
X165239488Y-146051638D01*
X165266643Y-146021409D01*
X165355408Y-145976449D01*
X165402930Y-145971584D01*
X165498594Y-145995689D01*
X165564913Y-146068004D01*
X165585624Y-146117641D01*
X165604207Y-146214813D01*
X165610882Y-146320372D01*
X165611514Y-146371653D01*
X165610346Y-146475586D01*
X165606843Y-146580756D01*
X165603210Y-146651556D01*
X165598149Y-146752558D01*
X165595424Y-146852598D01*
X165594905Y-146918757D01*
G37*
G36*
X167673442Y-146732133D02*
G01*
X167768583Y-146756300D01*
X167861061Y-146790204D01*
X167871737Y-146794682D01*
X167962565Y-146840416D01*
X168039606Y-146902565D01*
X168079344Y-146998869D01*
X168047592Y-147084354D01*
X168030373Y-147180891D01*
X168026099Y-147220153D01*
X168020174Y-147320737D01*
X168018771Y-147411151D01*
X168020548Y-147517286D01*
X168026929Y-147621639D01*
X168041431Y-147726663D01*
X168055896Y-147783377D01*
X168095693Y-147872953D01*
X168118911Y-147923572D01*
X168159211Y-148014919D01*
X168172644Y-148056441D01*
X168141320Y-148149955D01*
X168116957Y-148175143D01*
X168028074Y-148218778D01*
X167988485Y-148222526D01*
X167894101Y-148183731D01*
X167813291Y-148121827D01*
X167788206Y-148099916D01*
X167697577Y-148141155D01*
X167602608Y-148178675D01*
X167565457Y-148191263D01*
X167466315Y-148216542D01*
X167401814Y-148222526D01*
X167302500Y-148218232D01*
X167193964Y-148201746D01*
X167097038Y-148172895D01*
X166998630Y-148123607D01*
X166916023Y-148057490D01*
X166905512Y-148046671D01*
X166840988Y-147961152D01*
X166792312Y-147858898D01*
X166763203Y-147757930D01*
X166745738Y-147644666D01*
X166740301Y-147544996D01*
X167120446Y-147544996D01*
X167126886Y-147649791D01*
X167151616Y-147752373D01*
X167186392Y-147818548D01*
X167262706Y-147884114D01*
X167360078Y-147909092D01*
X167384228Y-147909895D01*
X167482062Y-147900079D01*
X167545429Y-147882051D01*
X167637249Y-147836943D01*
X167689043Y-147799986D01*
X167675099Y-147684621D01*
X167664039Y-147580694D01*
X167654783Y-147473901D01*
X167649012Y-147370914D01*
X167648011Y-147316873D01*
X167653872Y-147217222D01*
X167668061Y-147117081D01*
X167672435Y-147091681D01*
X167623586Y-147072142D01*
X167587438Y-147065792D01*
X167485910Y-147077229D01*
X167391800Y-147111541D01*
X167305109Y-147168728D01*
X167260153Y-147210383D01*
X167192619Y-147295310D01*
X167147187Y-147387423D01*
X167123857Y-147486724D01*
X167120446Y-147544996D01*
X166740301Y-147544996D01*
X166740077Y-147540887D01*
X166739916Y-147519106D01*
X166745879Y-147418685D01*
X166768776Y-147304288D01*
X166808848Y-147196554D01*
X166866092Y-147095483D01*
X166926914Y-147016348D01*
X166984159Y-146956371D01*
X167062987Y-146888822D01*
X167146513Y-146832723D01*
X167234739Y-146788072D01*
X167327663Y-146754870D01*
X167425286Y-146733118D01*
X167527608Y-146722814D01*
X167569853Y-146721898D01*
X167673442Y-146732133D01*
G37*
G36*
X169509630Y-147193286D02*
G01*
X169489584Y-147297893D01*
X169429297Y-147379254D01*
X169329643Y-147409474D01*
X169318632Y-147409685D01*
X169219902Y-147388906D01*
X169156058Y-147310767D01*
X169145219Y-147233831D01*
X169138381Y-147097055D01*
X169028775Y-147122494D01*
X168931499Y-147162909D01*
X168846554Y-147218298D01*
X168773940Y-147288663D01*
X168713656Y-147374003D01*
X168696301Y-147405778D01*
X168697766Y-148077445D01*
X168670008Y-148173361D01*
X168644033Y-148203475D01*
X168556527Y-148248875D01*
X168507745Y-148253789D01*
X168412597Y-148230437D01*
X168375854Y-148199567D01*
X168334638Y-148110449D01*
X168331891Y-148074026D01*
X168331891Y-147183028D01*
X168333629Y-147082577D01*
X168334333Y-147057487D01*
X168337032Y-146958412D01*
X168337264Y-146931458D01*
X168360985Y-146835037D01*
X168383182Y-146804452D01*
X168469826Y-146757218D01*
X168514584Y-146753161D01*
X168611808Y-146775211D01*
X168677755Y-146848866D01*
X168696301Y-146909965D01*
X168789398Y-146846051D01*
X168886238Y-146795361D01*
X168986822Y-146757895D01*
X169091150Y-146733652D01*
X169199222Y-146722632D01*
X169236078Y-146721898D01*
X169343238Y-146739920D01*
X169433478Y-146804652D01*
X169484238Y-146899911D01*
X169506798Y-147010249D01*
X169511095Y-147098520D01*
X169509630Y-147193286D01*
G37*
G36*
X170105094Y-147547438D02*
G01*
X170103628Y-148132644D01*
X170079285Y-148229206D01*
X170069434Y-148245484D01*
X169992002Y-148306354D01*
X169929239Y-148316315D01*
X169832397Y-148294089D01*
X169758757Y-148227411D01*
X169717618Y-148136468D01*
X169710886Y-148078422D01*
X169711351Y-147974374D01*
X169712746Y-147855179D01*
X169714532Y-147748918D01*
X169716914Y-147632964D01*
X169719890Y-147507316D01*
X169722514Y-147406719D01*
X169725472Y-147300669D01*
X169728765Y-147189167D01*
X169729937Y-147150788D01*
X169733429Y-147037468D01*
X169736577Y-146929601D01*
X169739382Y-146827187D01*
X169742588Y-146699116D01*
X169745183Y-146580738D01*
X169747167Y-146472054D01*
X169748541Y-146373063D01*
X169749400Y-146262956D01*
X169749476Y-146223154D01*
X169775335Y-146126748D01*
X169804187Y-146089797D01*
X169892784Y-146039548D01*
X169941451Y-146034110D01*
X170037602Y-146058092D01*
X170078227Y-146089797D01*
X170127154Y-146176757D01*
X170132449Y-146223154D01*
X170130732Y-146329308D01*
X170126677Y-146436660D01*
X170121716Y-146534907D01*
X170120237Y-146561186D01*
X170114196Y-146662011D01*
X170108147Y-146769525D01*
X170103377Y-146867137D01*
X170102163Y-146899218D01*
X170182824Y-146814252D01*
X170266291Y-146722730D01*
X170351372Y-146628235D01*
X170425861Y-146544951D01*
X170509504Y-146451029D01*
X170602300Y-146346468D01*
X170669249Y-146270850D01*
X170740266Y-146190503D01*
X170815352Y-146105429D01*
X170897306Y-146045880D01*
X170960921Y-146034110D01*
X171059362Y-146060200D01*
X171097697Y-146089309D01*
X171150590Y-146175849D01*
X171156315Y-146222665D01*
X171117642Y-146315041D01*
X171052760Y-146409168D01*
X170987239Y-146493231D01*
X170923316Y-146570580D01*
X170849165Y-146656904D01*
X170829030Y-146679888D01*
X170752835Y-146765053D01*
X170675376Y-146849885D01*
X170596653Y-146934382D01*
X170516666Y-147018546D01*
X170435415Y-147102375D01*
X170352899Y-147185871D01*
X170319539Y-147219176D01*
X170394399Y-147290739D01*
X170469504Y-147362302D01*
X170544853Y-147433866D01*
X170620446Y-147505429D01*
X170695676Y-147574454D01*
X170777475Y-147646529D01*
X170854816Y-147711337D01*
X170936496Y-147775561D01*
X171023408Y-147827687D01*
X171087438Y-147853230D01*
X171177037Y-147900858D01*
X171229303Y-147986984D01*
X171234473Y-148033970D01*
X171208043Y-148130931D01*
X171197348Y-148148276D01*
X171118198Y-148212084D01*
X171055687Y-148222526D01*
X170950204Y-148206345D01*
X170845936Y-148165639D01*
X170747670Y-148111028D01*
X170659512Y-148051613D01*
X170565652Y-147979557D01*
X170546196Y-147963628D01*
X170463030Y-147889821D01*
X170389270Y-147820990D01*
X170314135Y-147749568D01*
X170226572Y-147665362D01*
X170147575Y-147588792D01*
X170105094Y-147547438D01*
G37*
G36*
X171725401Y-146503056D02*
G01*
X171629253Y-146483941D01*
X171572993Y-146448834D01*
X171516132Y-146366718D01*
X171508513Y-146315478D01*
X171538990Y-146218883D01*
X171572993Y-146182609D01*
X171662752Y-146135593D01*
X171725401Y-146127899D01*
X171821376Y-146147187D01*
X171877320Y-146182609D01*
X171933750Y-146264294D01*
X171941311Y-146315478D01*
X171911065Y-146412303D01*
X171877320Y-146448834D01*
X171787980Y-146495431D01*
X171725401Y-146503056D01*
G37*
G36*
X171842149Y-147527899D02*
G01*
X171843370Y-147631214D01*
X171845626Y-147730295D01*
X171847034Y-147782889D01*
X171849610Y-147883095D01*
X171851532Y-147985264D01*
X171851919Y-148037390D01*
X171826521Y-148134823D01*
X171798185Y-148170258D01*
X171711120Y-148217421D01*
X171662386Y-148222526D01*
X171566446Y-148200016D01*
X171526099Y-148170258D01*
X171478053Y-148084998D01*
X171472854Y-148037390D01*
X171471632Y-147934197D01*
X171469376Y-147835341D01*
X171467969Y-147782889D01*
X171465393Y-147682425D01*
X171463470Y-147580063D01*
X171463084Y-147527899D01*
X171465007Y-147426118D01*
X171469549Y-147327973D01*
X171475920Y-147229282D01*
X171476762Y-147217711D01*
X171483373Y-147117693D01*
X171488182Y-147018164D01*
X171490426Y-146914849D01*
X171490439Y-146907034D01*
X171515606Y-146809600D01*
X171543684Y-146774166D01*
X171631190Y-146727002D01*
X171679972Y-146721898D01*
X171775701Y-146744408D01*
X171815771Y-146774166D01*
X171864257Y-146859425D01*
X171869504Y-146907034D01*
X171867581Y-147008883D01*
X171863039Y-147107191D01*
X171856668Y-147206109D01*
X171855826Y-147217711D01*
X171849215Y-147317492D01*
X171844406Y-147416849D01*
X171842162Y-147520084D01*
X171842149Y-147527899D01*
G37*
G36*
X173278297Y-148253789D02*
G01*
X173179819Y-148234972D01*
X173109128Y-148164213D01*
X173090230Y-148094542D01*
X173075873Y-147992487D01*
X173061379Y-147890020D01*
X173051639Y-147821479D01*
X173039959Y-147724035D01*
X173032746Y-147622208D01*
X173031123Y-147548904D01*
X173035135Y-147446808D01*
X173036008Y-147431667D01*
X173040659Y-147331728D01*
X173040893Y-147314431D01*
X173043335Y-147267536D01*
X173046266Y-147206475D01*
X173020811Y-147109984D01*
X172987159Y-147097055D01*
X172885170Y-147120999D01*
X172800130Y-147178662D01*
X172739009Y-147242135D01*
X172674999Y-147329886D01*
X172625044Y-147418203D01*
X172581622Y-147516228D01*
X172548988Y-147609965D01*
X172539103Y-147710570D01*
X172536775Y-147728667D01*
X172528674Y-147829143D01*
X172528471Y-147847369D01*
X172535693Y-147947721D01*
X172537264Y-147961674D01*
X172545748Y-148060030D01*
X172546057Y-148075491D01*
X172518046Y-148172559D01*
X172491835Y-148202986D01*
X172403888Y-148248828D01*
X172355059Y-148253789D01*
X172259119Y-148231700D01*
X172218771Y-148202498D01*
X172169738Y-148114888D01*
X172165526Y-148073049D01*
X172158706Y-147971894D01*
X172157222Y-147957766D01*
X172149210Y-147857675D01*
X172148918Y-147841995D01*
X172151169Y-147739534D01*
X172156360Y-147637671D01*
X172163504Y-147533501D01*
X172167969Y-147476608D01*
X172175582Y-147378958D01*
X172181994Y-147279437D01*
X172186573Y-147173153D01*
X172187508Y-147110732D01*
X172184031Y-147012973D01*
X172182623Y-146988611D01*
X172178044Y-146889601D01*
X172177739Y-146866978D01*
X172206507Y-146771062D01*
X172233426Y-146740949D01*
X172322002Y-146695548D01*
X172370202Y-146690635D01*
X172466449Y-146711910D01*
X172534413Y-146784461D01*
X172560482Y-146882117D01*
X172562665Y-146908499D01*
X172564131Y-146923642D01*
X172640174Y-146855081D01*
X172730802Y-146793020D01*
X172823486Y-146750268D01*
X172931930Y-146725050D01*
X172987159Y-146721898D01*
X173093141Y-146732042D01*
X173195372Y-146768480D01*
X173277452Y-146831419D01*
X173339383Y-146920857D01*
X173345708Y-146933900D01*
X173380484Y-147036482D01*
X173399031Y-147138332D01*
X173408498Y-147241875D01*
X173411589Y-147341343D01*
X173411653Y-147358883D01*
X173411653Y-147454138D01*
X173410188Y-147541577D01*
X173415798Y-147644639D01*
X173428077Y-147741884D01*
X173439497Y-147811221D01*
X173455211Y-147908355D01*
X173466385Y-148008922D01*
X173469295Y-148079399D01*
X173440779Y-148174163D01*
X173414096Y-148203963D01*
X173326401Y-148248923D01*
X173278297Y-148253789D01*
G37*
G36*
X174514386Y-146727138D02*
G01*
X174613870Y-146746207D01*
X174637752Y-146753649D01*
X174727202Y-146796622D01*
X174789183Y-146849881D01*
X174888469Y-146883832D01*
X174949778Y-146965371D01*
X174963572Y-147056999D01*
X174957240Y-147158901D01*
X174943055Y-147262525D01*
X174934752Y-147311500D01*
X174917872Y-147413590D01*
X174903258Y-147517446D01*
X174890910Y-147623067D01*
X174880828Y-147730453D01*
X174873011Y-147839603D01*
X174867461Y-147950519D01*
X174865875Y-147995380D01*
X174860563Y-148102824D01*
X174851465Y-148202650D01*
X174834769Y-148316722D01*
X174812157Y-148418891D01*
X174777215Y-148525784D01*
X174733755Y-148615537D01*
X174717376Y-148641646D01*
X174654426Y-148719046D01*
X174577928Y-148783326D01*
X174487883Y-148834489D01*
X174384289Y-148872532D01*
X174267148Y-148897457D01*
X174163681Y-148907952D01*
X174080390Y-148910314D01*
X173955140Y-148906512D01*
X173846589Y-148895109D01*
X173734385Y-148870165D01*
X173634184Y-148824553D01*
X173564775Y-148749720D01*
X173545987Y-148667048D01*
X173566604Y-148567231D01*
X173593859Y-148526364D01*
X173678770Y-148476881D01*
X173720376Y-148472630D01*
X173818722Y-148484842D01*
X173897697Y-148503893D01*
X173993613Y-148525265D01*
X174091097Y-148535034D01*
X174102372Y-148535157D01*
X174208804Y-148526810D01*
X174307302Y-148497959D01*
X174391628Y-148442421D01*
X174404256Y-148429644D01*
X174459338Y-148341813D01*
X174490924Y-148244706D01*
X174508815Y-148139315D01*
X174514166Y-148079888D01*
X174434845Y-148145600D01*
X174356385Y-148186866D01*
X174258274Y-148214690D01*
X174163921Y-148222526D01*
X174064946Y-148216172D01*
X173958590Y-148192697D01*
X173862052Y-148151924D01*
X173775332Y-148093855D01*
X173719399Y-148041786D01*
X173652781Y-147957874D01*
X173602525Y-147864284D01*
X173568632Y-147761018D01*
X173551101Y-147648074D01*
X173548429Y-147579190D01*
X173548972Y-147567955D01*
X173925052Y-147567955D01*
X173931063Y-147666253D01*
X173954143Y-147762424D01*
X173986601Y-147824410D01*
X174064026Y-147888524D01*
X174164562Y-147909811D01*
X174172226Y-147909895D01*
X174271148Y-147883902D01*
X174356236Y-147820246D01*
X174398883Y-147774096D01*
X174456776Y-147693830D01*
X174502572Y-147598392D01*
X174521004Y-147519595D01*
X174538254Y-147418825D01*
X174553153Y-147316640D01*
X174566991Y-147211501D01*
X174579447Y-147109697D01*
X174581577Y-147091681D01*
X174492094Y-147050082D01*
X174489253Y-147049183D01*
X174401814Y-147034528D01*
X174292027Y-147044451D01*
X174195184Y-147074218D01*
X174101710Y-147131427D01*
X174040334Y-147193286D01*
X173984607Y-147281381D01*
X173947118Y-147383000D01*
X173929105Y-147484681D01*
X173925052Y-147567955D01*
X173548972Y-147567955D01*
X173553999Y-147463981D01*
X173570707Y-147355880D01*
X173598554Y-147254886D01*
X173637540Y-147161000D01*
X173687664Y-147074223D01*
X173748928Y-146994553D01*
X173776552Y-146964675D01*
X173854490Y-146894734D01*
X173940538Y-146836648D01*
X174034696Y-146790416D01*
X174136963Y-146756038D01*
X174247340Y-146733515D01*
X174365826Y-146722846D01*
X174415491Y-146721898D01*
X174514386Y-146727138D01*
G37*
G36*
X175790579Y-148253789D02*
G01*
X175685199Y-148249984D01*
X175587046Y-148238571D01*
X175478803Y-148214832D01*
X175380966Y-148180136D01*
X175293537Y-148134484D01*
X175241032Y-148097962D01*
X175167088Y-148030703D01*
X175109154Y-147948980D01*
X175076143Y-147850653D01*
X175072016Y-147798520D01*
X175092433Y-147701472D01*
X175124284Y-147654417D01*
X175209926Y-147604017D01*
X175268387Y-147597264D01*
X175363904Y-147620265D01*
X175434175Y-147689267D01*
X175449616Y-147717431D01*
X175509267Y-147795355D01*
X175600294Y-147847777D01*
X175707548Y-147872965D01*
X175804256Y-147878632D01*
X175906778Y-147874074D01*
X176007898Y-147860399D01*
X176107615Y-147837609D01*
X176205929Y-147805702D01*
X176261479Y-147783377D01*
X176350938Y-147739913D01*
X176433670Y-147681284D01*
X176487480Y-147598302D01*
X176491067Y-147569420D01*
X176474213Y-147472474D01*
X176410833Y-147391092D01*
X176348429Y-147358883D01*
X176243145Y-147335665D01*
X176141052Y-147324918D01*
X176030783Y-147318620D01*
X175940055Y-147315896D01*
X175838552Y-147309522D01*
X175741770Y-147295527D01*
X175636944Y-147270202D01*
X175538285Y-147234924D01*
X175514584Y-147224549D01*
X175428248Y-147177214D01*
X175350530Y-147113003D01*
X175292049Y-147027770D01*
X175265931Y-146929898D01*
X175264480Y-146889937D01*
X175275700Y-146788786D01*
X175306428Y-146690864D01*
X175356666Y-146596170D01*
X175426413Y-146504705D01*
X175499437Y-146430950D01*
X175549755Y-146387773D01*
X175639243Y-146321914D01*
X175731544Y-146267217D01*
X175826661Y-146223682D01*
X175924592Y-146191311D01*
X176025337Y-146170102D01*
X176128897Y-146160055D01*
X176171109Y-146159162D01*
X176271245Y-146166666D01*
X176375201Y-146186511D01*
X176479284Y-146214975D01*
X176503768Y-146222665D01*
X176599508Y-146258218D01*
X176688049Y-146307295D01*
X176748516Y-146391164D01*
X176749476Y-146403893D01*
X176723989Y-146500391D01*
X176700139Y-146533342D01*
X176618928Y-146587915D01*
X176558478Y-146596845D01*
X176459349Y-146585824D01*
X176365526Y-146565582D01*
X176265081Y-146544211D01*
X176171109Y-146534319D01*
X176072796Y-146541364D01*
X175966913Y-146563785D01*
X175874636Y-146597097D01*
X175834542Y-146615896D01*
X175747474Y-146668571D01*
X175679754Y-146746963D01*
X175669434Y-146794193D01*
X175719260Y-146876748D01*
X175812223Y-146912073D01*
X175870202Y-146922177D01*
X175969004Y-146927397D01*
X176067575Y-146932618D01*
X176165914Y-146937839D01*
X176220446Y-146940739D01*
X176330436Y-146953963D01*
X176431426Y-146976048D01*
X176537875Y-147013013D01*
X176632075Y-147062040D01*
X176703070Y-147113663D01*
X176779015Y-147192403D01*
X176836306Y-147283297D01*
X176874945Y-147386347D01*
X176893217Y-147484349D01*
X176897976Y-147572840D01*
X176888113Y-147680206D01*
X176858525Y-147779129D01*
X176809211Y-147869609D01*
X176740172Y-147951645D01*
X176651407Y-148025238D01*
X176566193Y-148078032D01*
X176493998Y-148114082D01*
X176395681Y-148154329D01*
X176293070Y-148187755D01*
X176186166Y-148214360D01*
X176074969Y-148234142D01*
X175959478Y-148247104D01*
X175839694Y-148253243D01*
X175790579Y-148253789D01*
G37*
G36*
X178056664Y-147090216D02*
G01*
X177988276Y-147088262D01*
X177920376Y-147086308D01*
X177821570Y-147092867D01*
X177789951Y-147097055D01*
X177794316Y-147195153D01*
X177799468Y-147315706D01*
X177803856Y-147424550D01*
X177808269Y-147544141D01*
X177811489Y-147645438D01*
X177813993Y-147756518D01*
X177814375Y-147803893D01*
X177815840Y-147868862D01*
X177817306Y-147946043D01*
X177810299Y-148050628D01*
X177784413Y-148145296D01*
X177723104Y-148223735D01*
X177618004Y-148253789D01*
X177520014Y-148230068D01*
X177487578Y-148207871D01*
X177431797Y-148125736D01*
X177427006Y-148086727D01*
X177429204Y-147986526D01*
X177430914Y-147941158D01*
X177434584Y-147842944D01*
X177435310Y-147795589D01*
X177433784Y-147690748D01*
X177430635Y-147581583D01*
X177426700Y-147470619D01*
X177422692Y-147368762D01*
X177417922Y-147255273D01*
X177412388Y-147130152D01*
X177410886Y-147097055D01*
X177311638Y-147089606D01*
X177204729Y-147078855D01*
X177152965Y-147073119D01*
X177054792Y-147042080D01*
X176991307Y-146960004D01*
X176980530Y-146885052D01*
X177003040Y-146789142D01*
X177032798Y-146747299D01*
X177118981Y-146696168D01*
X177167620Y-146690635D01*
X177266504Y-146700526D01*
X177368020Y-146716311D01*
X177401116Y-146721898D01*
X177396720Y-146621514D01*
X177394277Y-146573398D01*
X177389539Y-146473531D01*
X177388904Y-146435157D01*
X177415456Y-146339717D01*
X177445080Y-146304731D01*
X177533845Y-146258008D01*
X177581367Y-146252951D01*
X177679599Y-146280849D01*
X177745682Y-146364544D01*
X177774853Y-146468214D01*
X177784379Y-146583940D01*
X177784577Y-146605638D01*
X177781646Y-146721898D01*
X177879740Y-146721898D01*
X177920376Y-146721898D01*
X178024928Y-146724783D01*
X178124595Y-146738748D01*
X178136287Y-146742414D01*
X178218719Y-146803108D01*
X178246089Y-146901046D01*
X178246196Y-146908988D01*
X178220799Y-147003546D01*
X178192463Y-147038436D01*
X178105398Y-147085159D01*
X178056664Y-147090216D01*
G37*
G36*
X179609071Y-147369630D02*
G01*
X179609393Y-147474072D01*
X179610039Y-147576313D01*
X179610537Y-147641228D01*
X179611310Y-147745575D01*
X179611859Y-147847241D01*
X179612002Y-147912337D01*
X179616399Y-147996357D01*
X179621284Y-148080376D01*
X179592515Y-148174888D01*
X179565596Y-148204452D01*
X179477020Y-148248971D01*
X179428820Y-148253789D01*
X179330390Y-148229853D01*
X179262735Y-148158046D01*
X179162851Y-148189215D01*
X179061034Y-148210184D01*
X178957286Y-148220951D01*
X178898813Y-148222526D01*
X178793811Y-148216150D01*
X178688653Y-148194111D01*
X178595612Y-148156330D01*
X178570062Y-148141926D01*
X178488422Y-148075923D01*
X178430348Y-147993319D01*
X178395839Y-147894114D01*
X178391765Y-147872281D01*
X178376285Y-147769151D01*
X178363429Y-147669503D01*
X178351465Y-147554521D01*
X178343279Y-147444555D01*
X178338871Y-147339603D01*
X178338032Y-147272421D01*
X178341277Y-147170188D01*
X178349612Y-147072827D01*
X178363076Y-146969360D01*
X178379064Y-146873817D01*
X178417991Y-146781241D01*
X178501711Y-146729167D01*
X178564689Y-146721898D01*
X178663088Y-146744755D01*
X178700488Y-146770258D01*
X178753611Y-146856628D01*
X178757152Y-146891891D01*
X178749329Y-146990313D01*
X178737124Y-147074096D01*
X178723433Y-147170921D01*
X178717096Y-147262163D01*
X178718140Y-147363142D01*
X178721746Y-147466640D01*
X178728688Y-147569909D01*
X178730286Y-147587494D01*
X178741963Y-147684810D01*
X178760102Y-147781328D01*
X178769364Y-147817083D01*
X178835799Y-147839553D01*
X178898325Y-147847369D01*
X178996795Y-147843218D01*
X179101084Y-147830768D01*
X179199921Y-147812465D01*
X179233914Y-147804870D01*
X179233592Y-147703040D01*
X179232792Y-147604889D01*
X179232449Y-147572840D01*
X179230663Y-147468632D01*
X179229564Y-147367943D01*
X179229518Y-147349602D01*
X179230445Y-147250180D01*
X179233871Y-147140786D01*
X179239822Y-147038497D01*
X179249714Y-146930298D01*
X179255896Y-146879678D01*
X179291754Y-146783531D01*
X179376801Y-146729448D01*
X179442498Y-146721898D01*
X179538829Y-146743356D01*
X179581228Y-146771723D01*
X179632488Y-146856470D01*
X179634961Y-146896775D01*
X179628893Y-147016149D01*
X179623634Y-147118304D01*
X179618199Y-147221783D01*
X179612712Y-147321453D01*
X179609071Y-147369630D01*
G37*
G36*
X181184695Y-145996519D02*
G01*
X181218632Y-146024340D01*
X181264066Y-146112290D01*
X181267969Y-146153300D01*
X181266015Y-146266018D01*
X181261985Y-146366746D01*
X181255757Y-146481349D01*
X181248887Y-146587451D01*
X181240491Y-146703190D01*
X181236706Y-146752184D01*
X181227840Y-146871636D01*
X181220477Y-146981476D01*
X181214617Y-147081704D01*
X181209568Y-147189289D01*
X181206412Y-147297311D01*
X181205931Y-147350579D01*
X181206427Y-147468235D01*
X181207916Y-147575740D01*
X181211171Y-147695846D01*
X181215978Y-147800090D01*
X181223791Y-147904247D01*
X181237683Y-148007592D01*
X181241591Y-148047648D01*
X181213075Y-148143509D01*
X181186392Y-148173189D01*
X181098408Y-148218623D01*
X181058897Y-148222526D01*
X180961129Y-148193932D01*
X180907955Y-148132156D01*
X180818632Y-148176234D01*
X180720279Y-148204322D01*
X180714026Y-148205429D01*
X180612177Y-148218251D01*
X180513588Y-148222509D01*
X180506908Y-148222526D01*
X180395178Y-148215759D01*
X180290799Y-148195461D01*
X180193770Y-148161629D01*
X180104091Y-148114265D01*
X180021762Y-148053368D01*
X179995952Y-148030062D01*
X179925398Y-147952628D01*
X179869442Y-147867603D01*
X179828083Y-147774987D01*
X179801321Y-147674781D01*
X179789157Y-147566984D01*
X179788346Y-147529364D01*
X179788686Y-147522037D01*
X180141521Y-147522037D01*
X180159660Y-147624498D01*
X180214078Y-147714382D01*
X180251430Y-147751625D01*
X180338877Y-147809969D01*
X180436352Y-147841385D01*
X180506908Y-147847369D01*
X180604816Y-147841027D01*
X180667620Y-147824898D01*
X180752433Y-147774615D01*
X180793649Y-147745275D01*
X180839078Y-147707173D01*
X180837664Y-147603367D01*
X180837704Y-147501589D01*
X180838185Y-147388789D01*
X180838901Y-147276764D01*
X180839078Y-147252393D01*
X180775487Y-147173530D01*
X180720865Y-147135645D01*
X180624790Y-147103424D01*
X180547941Y-147097055D01*
X180441672Y-147105478D01*
X180342449Y-147134596D01*
X180256223Y-147190649D01*
X180243126Y-147203545D01*
X180185278Y-147289004D01*
X180153527Y-147388533D01*
X180141918Y-147495892D01*
X180141521Y-147522037D01*
X179788686Y-147522037D01*
X179793438Y-147419648D01*
X179808715Y-147316730D01*
X179834177Y-147220610D01*
X179878175Y-147114238D01*
X179936839Y-147017655D01*
X179996929Y-146944647D01*
X180079813Y-146868947D01*
X180171662Y-146808909D01*
X180272475Y-146764533D01*
X180382253Y-146735819D01*
X180480582Y-146723855D01*
X180542568Y-146721898D01*
X180640143Y-146727393D01*
X180726727Y-146743879D01*
X180819501Y-146779943D01*
X180866922Y-146809825D01*
X180871433Y-146693573D01*
X180876173Y-146586618D01*
X180881142Y-146488959D01*
X180887675Y-146379958D01*
X180895986Y-146268331D01*
X180906335Y-146164537D01*
X180909420Y-146140111D01*
X180941125Y-146044162D01*
X181018780Y-145982117D01*
X181088206Y-145971584D01*
X181184695Y-145996519D01*
G37*
G36*
X181817515Y-146503056D02*
G01*
X181721367Y-146483941D01*
X181665108Y-146448834D01*
X181608247Y-146366718D01*
X181600628Y-146315478D01*
X181631104Y-146218883D01*
X181665108Y-146182609D01*
X181754867Y-146135593D01*
X181817515Y-146127899D01*
X181913491Y-146147187D01*
X181969434Y-146182609D01*
X182025864Y-146264294D01*
X182033426Y-146315478D01*
X182003180Y-146412303D01*
X181969434Y-146448834D01*
X181880095Y-146495431D01*
X181817515Y-146503056D01*
G37*
G36*
X181934263Y-147527899D02*
G01*
X181935484Y-147631214D01*
X181937741Y-147730295D01*
X181939148Y-147782889D01*
X181941724Y-147883095D01*
X181943647Y-147985264D01*
X181944033Y-148037390D01*
X181918636Y-148134823D01*
X181890300Y-148170258D01*
X181803235Y-148217421D01*
X181754501Y-148222526D01*
X181658560Y-148200016D01*
X181618213Y-148170258D01*
X181570168Y-148084998D01*
X181564968Y-148037390D01*
X181563747Y-147934197D01*
X181561490Y-147835341D01*
X181560083Y-147782889D01*
X181557507Y-147682425D01*
X181555585Y-147580063D01*
X181555198Y-147527899D01*
X181557122Y-147426118D01*
X181561663Y-147327973D01*
X181568034Y-147229282D01*
X181568876Y-147217711D01*
X181575488Y-147117693D01*
X181580296Y-147018164D01*
X181582540Y-146914849D01*
X181582554Y-146907034D01*
X181607720Y-146809600D01*
X181635799Y-146774166D01*
X181723304Y-146727002D01*
X181772086Y-146721898D01*
X181867816Y-146744408D01*
X181907885Y-146774166D01*
X181956371Y-146859425D01*
X181961618Y-146907034D01*
X181959695Y-147008883D01*
X181955154Y-147107191D01*
X181948782Y-147206109D01*
X181947941Y-147217711D01*
X181941329Y-147317492D01*
X181936521Y-147416849D01*
X181934277Y-147520084D01*
X181934263Y-147527899D01*
G37*
G36*
X183053220Y-146729763D02*
G01*
X183158734Y-146758821D01*
X183253495Y-146809291D01*
X183337504Y-146881172D01*
X183390928Y-146945624D01*
X183447648Y-147038278D01*
X183490438Y-147140143D01*
X183516026Y-147234785D01*
X183531379Y-147336193D01*
X183536496Y-147444368D01*
X183532334Y-147543403D01*
X183516352Y-147656106D01*
X183488382Y-147762111D01*
X183448425Y-147861419D01*
X183396482Y-147954029D01*
X183366015Y-147997822D01*
X183289805Y-148084811D01*
X183204425Y-148153802D01*
X183109875Y-148204795D01*
X183006154Y-148237791D01*
X182893262Y-148252789D01*
X182853593Y-148253789D01*
X182745876Y-148245304D01*
X182644983Y-148219849D01*
X182550916Y-148177423D01*
X182463675Y-148118028D01*
X182416887Y-148076468D01*
X182348480Y-147998994D01*
X182293468Y-147912383D01*
X182251851Y-147816636D01*
X182223630Y-147711753D01*
X182208804Y-147597733D01*
X182206838Y-147557697D01*
X182206887Y-147555743D01*
X182587369Y-147555743D01*
X182598393Y-147660135D01*
X182635568Y-147753214D01*
X182680669Y-147808778D01*
X182766591Y-147863283D01*
X182854082Y-147878632D01*
X182952724Y-147863111D01*
X183039210Y-147816548D01*
X183061688Y-147797543D01*
X183123673Y-147716989D01*
X183159416Y-147617475D01*
X183168667Y-147540600D01*
X183168888Y-147436964D01*
X183157422Y-147326783D01*
X183126442Y-147222965D01*
X183066552Y-147140999D01*
X182966794Y-147098959D01*
X182936636Y-147097055D01*
X182837966Y-147111452D01*
X182745517Y-147162661D01*
X182676098Y-147241372D01*
X182669923Y-147250928D01*
X182622922Y-147345790D01*
X182597124Y-147441045D01*
X182587449Y-147544886D01*
X182587369Y-147555743D01*
X182206887Y-147555743D01*
X182209701Y-147444278D01*
X182225614Y-147335565D01*
X182254580Y-147231558D01*
X182296598Y-147132256D01*
X182351667Y-147037660D01*
X182372923Y-147007173D01*
X182442242Y-146924989D01*
X182519526Y-146856735D01*
X182604778Y-146802410D01*
X182697995Y-146762015D01*
X182799180Y-146735549D01*
X182908330Y-146723012D01*
X182954221Y-146721898D01*
X183053220Y-146729763D01*
G37*
G36*
X184726448Y-147190844D02*
G01*
X184628046Y-147174295D01*
X184562805Y-147104382D01*
X184464444Y-147097169D01*
X184449965Y-147097055D01*
X184337577Y-147099923D01*
X184235846Y-147110518D01*
X184139929Y-147142942D01*
X184119260Y-147178632D01*
X184197112Y-147250683D01*
X184294428Y-147295868D01*
X184318562Y-147305638D01*
X184414246Y-147344639D01*
X184510293Y-147385929D01*
X184599510Y-147427564D01*
X184686392Y-147475143D01*
X184773586Y-147541668D01*
X184841902Y-147625487D01*
X184878687Y-147718811D01*
X184885694Y-147786308D01*
X184875175Y-147886699D01*
X184837394Y-147987694D01*
X184772135Y-148074034D01*
X184692494Y-148137560D01*
X184665875Y-148153649D01*
X184572147Y-148197460D01*
X184468283Y-148228754D01*
X184369087Y-148245868D01*
X184262130Y-148253398D01*
X184230146Y-148253789D01*
X184129892Y-148248804D01*
X184024391Y-148231574D01*
X183925091Y-148202036D01*
X183896510Y-148190774D01*
X183806324Y-148142933D01*
X183729826Y-148068792D01*
X183692181Y-147968834D01*
X183690369Y-147938227D01*
X183717377Y-147838917D01*
X183806869Y-147788587D01*
X183854012Y-147784842D01*
X183954915Y-147803161D01*
X184036706Y-147831737D01*
X184130859Y-147863794D01*
X184220865Y-147878632D01*
X184329618Y-147873793D01*
X184430425Y-147853353D01*
X184500893Y-147783736D01*
X184501256Y-147777515D01*
X184432888Y-147699069D01*
X184341984Y-147654876D01*
X184307327Y-147641228D01*
X184208408Y-147603040D01*
X184111062Y-147563827D01*
X184014480Y-147521860D01*
X183944870Y-147486378D01*
X183860027Y-147422630D01*
X183793553Y-147338069D01*
X183757759Y-147239906D01*
X183750942Y-147166908D01*
X183761228Y-147065958D01*
X183799232Y-146964808D01*
X183865240Y-146881564D01*
X183959250Y-146816224D01*
X184043545Y-146780516D01*
X184140662Y-146754870D01*
X184243921Y-146738441D01*
X184346011Y-146728824D01*
X184460637Y-146723329D01*
X184565736Y-146721898D01*
X184665493Y-146727944D01*
X184760424Y-146754098D01*
X184768946Y-146758534D01*
X184839840Y-146833735D01*
X184859715Y-146930653D01*
X184859804Y-146938785D01*
X184853423Y-147037000D01*
X184822167Y-147135460D01*
X184734652Y-147190598D01*
X184726448Y-147190844D01*
G37*
D11*
%TO.C,G\u002A\u002A\u002A*%
G36*
X154462347Y-147690902D02*
G01*
X154579401Y-147719428D01*
X154652029Y-147759099D01*
X154667825Y-147803956D01*
X154638039Y-147835492D01*
X154566606Y-147857057D01*
X154450051Y-147870667D01*
X154379345Y-147873026D01*
X154234455Y-147878311D01*
X154100799Y-147890967D01*
X154056960Y-147898047D01*
X153972217Y-147907871D01*
X153939234Y-147883021D01*
X153934845Y-147840807D01*
X153963690Y-147758466D01*
X154053707Y-147706239D01*
X154210120Y-147681899D01*
X154313276Y-147679482D01*
X154462347Y-147690902D01*
G37*
G36*
X151004999Y-145450628D02*
G01*
X151023312Y-145516845D01*
X150999008Y-145608756D01*
X150973040Y-145688050D01*
X150983671Y-145713010D01*
X151029723Y-145703269D01*
X151092124Y-145702591D01*
X151105150Y-145737945D01*
X151072177Y-145793096D01*
X151017227Y-145821833D01*
X150917166Y-145850300D01*
X150864208Y-145865133D01*
X150795545Y-145860368D01*
X150773745Y-145842116D01*
X150778249Y-145786631D01*
X150823150Y-145706255D01*
X150829619Y-145697792D01*
X150886085Y-145612312D01*
X150884265Y-145575645D01*
X150824894Y-145590014D01*
X150798451Y-145603276D01*
X150696676Y-145642291D01*
X150643512Y-145626178D01*
X150636624Y-145596673D01*
X150669813Y-145553497D01*
X150753184Y-145501087D01*
X150800442Y-145479137D01*
X150931138Y-145438339D01*
X151004999Y-145450628D01*
G37*
G36*
X151234789Y-146033065D02*
G01*
X151252740Y-146099490D01*
X151227843Y-146176675D01*
X151199942Y-146247151D01*
X151212829Y-146263757D01*
X151250395Y-146250864D01*
X151366723Y-146211830D01*
X151455120Y-146199980D01*
X151495296Y-146217666D01*
X151495919Y-146222377D01*
X151463293Y-146261343D01*
X151383311Y-146305920D01*
X151368919Y-146311909D01*
X151245280Y-146370470D01*
X151138195Y-146433880D01*
X151045858Y-146491173D01*
X151000000Y-146500000D01*
X150987919Y-146464578D01*
X151004523Y-146407417D01*
X151046367Y-146310960D01*
X151068624Y-146265751D01*
X151149328Y-146107557D01*
X151068624Y-146133171D01*
X151002986Y-146137134D01*
X150987919Y-146101774D01*
X151021063Y-146051915D01*
X151097373Y-146018608D01*
X151182167Y-146011507D01*
X151234789Y-146033065D01*
G37*
G36*
X154919766Y-144790406D02*
G01*
X155218675Y-144798579D01*
X155546077Y-144813254D01*
X155887715Y-144833448D01*
X156229329Y-144858178D01*
X156556662Y-144886460D01*
X156855456Y-144917313D01*
X157111451Y-144949753D01*
X157310390Y-144982798D01*
X157381342Y-144998564D01*
X157509711Y-145040002D01*
X157687382Y-145109724D01*
X157898668Y-145200310D01*
X158127881Y-145304341D01*
X158359334Y-145414397D01*
X158577340Y-145523060D01*
X158766210Y-145622910D01*
X158910259Y-145706527D01*
X158980197Y-145754729D01*
X159143514Y-145910874D01*
X159299885Y-146104854D01*
X159438602Y-146318483D01*
X159548958Y-146533578D01*
X159620243Y-146731955D01*
X159642154Y-146878829D01*
X159657012Y-146967841D01*
X159693502Y-147081652D01*
X159700769Y-147099665D01*
X159743296Y-147219118D01*
X159749514Y-147311820D01*
X159712599Y-147398636D01*
X159625725Y-147500430D01*
X159543491Y-147580491D01*
X159433043Y-147677479D01*
X159319581Y-147757905D01*
X159191245Y-147826229D01*
X159036172Y-147886916D01*
X158842504Y-147944426D01*
X158598380Y-148003223D01*
X158291939Y-148067768D01*
X158198827Y-148086393D01*
X157874535Y-148151409D01*
X157616168Y-148205501D01*
X157412827Y-148252107D01*
X157253614Y-148294663D01*
X157127631Y-148336608D01*
X157023980Y-148381378D01*
X156931762Y-148432409D01*
X156840078Y-148493141D01*
X156785752Y-148532053D01*
X156648324Y-148628474D01*
X156520504Y-148707999D01*
X156386408Y-148777934D01*
X156230149Y-148845585D01*
X156035842Y-148918258D01*
X155787599Y-149003257D01*
X155692521Y-149034799D01*
X155403693Y-149128587D01*
X155170413Y-149199366D01*
X154974738Y-149250716D01*
X154798726Y-149286217D01*
X154624433Y-149309449D01*
X154433916Y-149323991D01*
X154209231Y-149333423D01*
X154193117Y-149333941D01*
X153892767Y-149338624D01*
X153635790Y-149330202D01*
X153388208Y-149306740D01*
X153174923Y-149275980D01*
X152764003Y-149191227D01*
X152425247Y-149080618D01*
X152395577Y-149068246D01*
X152224803Y-148990868D01*
X152114317Y-148927348D01*
X152066785Y-148874817D01*
X152084875Y-148830406D01*
X152171254Y-148791247D01*
X152328589Y-148754470D01*
X152559548Y-148717206D01*
X152745351Y-148692021D01*
X152967083Y-148661997D01*
X153169633Y-148632209D01*
X153336621Y-148605242D01*
X153451670Y-148583681D01*
X153487538Y-148574861D01*
X153552532Y-148553009D01*
X153557240Y-148541818D01*
X153494750Y-148536974D01*
X153424272Y-148535358D01*
X153242239Y-148522413D01*
X153025535Y-148492689D01*
X152799887Y-148451143D01*
X152591020Y-148402730D01*
X152424661Y-148352404D01*
X152377991Y-148333832D01*
X152269174Y-148271381D01*
X152125013Y-148169562D01*
X151965243Y-148044453D01*
X151809599Y-147912133D01*
X151677817Y-147788680D01*
X151592307Y-147693739D01*
X151482265Y-147486268D01*
X151442696Y-147278858D01*
X151613729Y-147278858D01*
X151652968Y-147431563D01*
X151729595Y-147560687D01*
X151857206Y-147710927D01*
X152018184Y-147865952D01*
X152194913Y-148009433D01*
X152369777Y-148125041D01*
X152442216Y-148163169D01*
X152645630Y-148235833D01*
X152908621Y-148293581D01*
X153213888Y-148335554D01*
X153544129Y-148360892D01*
X153882042Y-148368738D01*
X154210326Y-148358231D01*
X154511679Y-148328513D01*
X154768798Y-148278726D01*
X154768977Y-148278679D01*
X154938027Y-148223348D01*
X155049124Y-148152465D01*
X155113594Y-148049872D01*
X155142768Y-147899411D01*
X155148307Y-147737636D01*
X155130485Y-147503983D01*
X155070758Y-147317745D01*
X154959733Y-147155266D01*
X154887485Y-147080690D01*
X154722962Y-146942683D01*
X154566016Y-146859888D01*
X154387101Y-146820596D01*
X154211027Y-146812615D01*
X154068093Y-146814026D01*
X153989103Y-146821285D01*
X153959857Y-146838932D01*
X153966157Y-146871508D01*
X153974625Y-146888200D01*
X154012532Y-147015475D01*
X153980458Y-147114538D01*
X153883402Y-147179220D01*
X153726364Y-147203350D01*
X153719208Y-147203384D01*
X153607574Y-147210032D01*
X153555943Y-147234341D01*
X153546154Y-147268692D01*
X153512099Y-147365890D01*
X153429128Y-147444342D01*
X153326025Y-147476920D01*
X153325174Y-147476923D01*
X153259359Y-147490886D01*
X153235425Y-147548077D01*
X153233538Y-147594154D01*
X153223135Y-147677825D01*
X153178403Y-147708476D01*
X153133874Y-147711384D01*
X153073774Y-147705118D01*
X153045033Y-147672656D01*
X153037010Y-147593503D01*
X153037518Y-147525769D01*
X153032038Y-147313515D01*
X153006774Y-147179020D01*
X153154563Y-147179020D01*
X153179915Y-147239926D01*
X153204230Y-147255658D01*
X153310871Y-147276450D01*
X153371365Y-147240749D01*
X153371460Y-147179133D01*
X153320930Y-147119312D01*
X153243539Y-147087047D01*
X153228753Y-147086154D01*
X153172617Y-147115501D01*
X153154563Y-147179020D01*
X153006774Y-147179020D01*
X153003611Y-147162184D01*
X152947511Y-147056699D01*
X152893927Y-147009960D01*
X153605981Y-147009960D01*
X153664319Y-147042826D01*
X153745432Y-147040105D01*
X153802258Y-147004595D01*
X153803138Y-146942966D01*
X153789221Y-146922821D01*
X153734713Y-146908243D01*
X153665387Y-146928042D01*
X153612416Y-146967394D01*
X153605981Y-147009960D01*
X152893927Y-147009960D01*
X152868963Y-146988185D01*
X152770274Y-146896048D01*
X152762373Y-146871230D01*
X152960000Y-146871230D01*
X152978785Y-146923553D01*
X153037686Y-146912937D01*
X153045623Y-146907705D01*
X153334013Y-146907705D01*
X153356216Y-146955947D01*
X153405062Y-147001870D01*
X153449882Y-146989502D01*
X153490329Y-146952175D01*
X153524756Y-146901346D01*
X153499945Y-146851059D01*
X153480413Y-146830611D01*
X153426697Y-146786642D01*
X153388788Y-146802572D01*
X153363845Y-146834383D01*
X153334013Y-146907705D01*
X153045623Y-146907705D01*
X153099069Y-146872473D01*
X153147389Y-146831279D01*
X153131194Y-146816353D01*
X153067461Y-146813858D01*
X152981392Y-146831567D01*
X152960000Y-146871230D01*
X152762373Y-146871230D01*
X152737805Y-146794063D01*
X152749921Y-146688254D01*
X152775409Y-146666116D01*
X153208978Y-146666116D01*
X153218027Y-146705925D01*
X153268408Y-146713559D01*
X153359436Y-146702881D01*
X153457568Y-146680138D01*
X153529258Y-146651582D01*
X153536384Y-146646613D01*
X153575210Y-146578527D01*
X153582891Y-146487388D01*
X153558160Y-146413741D01*
X153544058Y-146401012D01*
X153482087Y-146400760D01*
X153399090Y-146444449D01*
X153313571Y-146514774D01*
X153244032Y-146594432D01*
X153208978Y-146666116D01*
X152775409Y-146666116D01*
X152813787Y-146632782D01*
X152924420Y-146617829D01*
X153022033Y-146586156D01*
X153070331Y-146519075D01*
X153124917Y-146449131D01*
X153221364Y-146363652D01*
X153335786Y-146279990D01*
X153444298Y-146215497D01*
X153523015Y-146187526D01*
X153526897Y-146187384D01*
X153618218Y-146223058D01*
X153691874Y-146316788D01*
X153735200Y-146448637D01*
X153741538Y-146525241D01*
X153745339Y-146633011D01*
X153761672Y-146678913D01*
X153797930Y-146679063D01*
X153809923Y-146674295D01*
X153943772Y-146640520D01*
X154124020Y-146626116D01*
X154321337Y-146631139D01*
X154506391Y-146655648D01*
X154577012Y-146672804D01*
X154782242Y-146766354D01*
X154979510Y-146915815D01*
X155147197Y-147100581D01*
X155263681Y-147300042D01*
X155279944Y-147342831D01*
X155330666Y-147560362D01*
X155342774Y-147784299D01*
X155318440Y-147994601D01*
X155259836Y-148171227D01*
X155177674Y-148286611D01*
X155089618Y-148340790D01*
X154943854Y-148401984D01*
X154759679Y-148463855D01*
X154556391Y-148520066D01*
X154353288Y-148564280D01*
X154308154Y-148572165D01*
X154171329Y-148598677D01*
X153995796Y-148637928D01*
X153818141Y-148681711D01*
X153807833Y-148684402D01*
X153637590Y-148723622D01*
X153421822Y-148765606D01*
X153192668Y-148804387D01*
X153045833Y-148825853D01*
X152863238Y-148851081D01*
X152708319Y-148873707D01*
X152597950Y-148891182D01*
X152549692Y-148900709D01*
X152543500Y-148922071D01*
X152599801Y-148954315D01*
X152704489Y-148992825D01*
X152843455Y-149032983D01*
X153002591Y-149070173D01*
X153149569Y-149097007D01*
X153391870Y-149125785D01*
X153670385Y-149144352D01*
X153965046Y-149152717D01*
X154255787Y-149150889D01*
X154522543Y-149138877D01*
X154745247Y-149116688D01*
X154859296Y-149096256D01*
X155005517Y-149058118D01*
X155193603Y-149002888D01*
X155408386Y-148935696D01*
X155634694Y-148861670D01*
X155857360Y-148785940D01*
X156061213Y-148713634D01*
X156231083Y-148649882D01*
X156351801Y-148599812D01*
X156398769Y-148575756D01*
X156510507Y-148499177D01*
X156557308Y-148448133D01*
X156543553Y-148412066D01*
X156479052Y-148382290D01*
X156386194Y-148333465D01*
X156313129Y-148251306D01*
X156251557Y-148121924D01*
X156193177Y-147931436D01*
X156180777Y-147883288D01*
X156144918Y-147725033D01*
X156132741Y-147617057D01*
X156142863Y-147535613D01*
X156157982Y-147492193D01*
X156234052Y-147387496D01*
X156371947Y-147274947D01*
X156557362Y-147164350D01*
X156775990Y-147065507D01*
X156786799Y-147061332D01*
X157004461Y-146977894D01*
X157024678Y-146646862D01*
X157039952Y-146466140D01*
X157064396Y-146335646D01*
X157105363Y-146227472D01*
X157161447Y-146127734D01*
X157257123Y-145993591D01*
X157329097Y-145929719D01*
X157372862Y-145930625D01*
X157383911Y-145990820D01*
X157357737Y-146104814D01*
X157289833Y-146267117D01*
X157284592Y-146277752D01*
X157221371Y-146417561D01*
X157189927Y-146533888D01*
X157182601Y-146665269D01*
X157186749Y-146770089D01*
X157190817Y-146931505D01*
X157173055Y-147035776D01*
X157121869Y-147103235D01*
X157025669Y-147154217D01*
X156952129Y-147181629D01*
X156773634Y-147255519D01*
X156605949Y-147344189D01*
X156465685Y-147436926D01*
X156369454Y-147523017D01*
X156335493Y-147579272D01*
X156331358Y-147688730D01*
X156354065Y-147836042D01*
X156396257Y-147988791D01*
X156450574Y-148114559D01*
X156460832Y-148131461D01*
X156545206Y-148195443D01*
X156676956Y-148221258D01*
X156834110Y-148206787D01*
X156933533Y-148177090D01*
X157039125Y-148144575D01*
X157178057Y-148111567D01*
X157238923Y-148099669D01*
X157505435Y-148049932D01*
X157785840Y-147994412D01*
X158067704Y-147935887D01*
X158338591Y-147877133D01*
X158586063Y-147820927D01*
X158797687Y-147770046D01*
X158961025Y-147727267D01*
X159063642Y-147695366D01*
X159080413Y-147688478D01*
X159240378Y-147601089D01*
X159377223Y-147502164D01*
X159482049Y-147401833D01*
X159545959Y-147310223D01*
X159560055Y-147237465D01*
X159515439Y-147193687D01*
X159515154Y-147193592D01*
X159483184Y-147145190D01*
X159465154Y-147036588D01*
X159462898Y-146985181D01*
X159421983Y-146722896D01*
X159311430Y-146448324D01*
X159136091Y-146172823D01*
X159091769Y-146116254D01*
X159016351Y-146025776D01*
X158947033Y-145953016D01*
X158870822Y-145889343D01*
X158774723Y-145826128D01*
X158645742Y-145754740D01*
X158470885Y-145666549D01*
X158260696Y-145564299D01*
X158026406Y-145451605D01*
X157824611Y-145357667D01*
X157645050Y-145280467D01*
X157477460Y-145217988D01*
X157311579Y-145168214D01*
X157137146Y-145129128D01*
X156943897Y-145098712D01*
X156721571Y-145074951D01*
X156459904Y-145055826D01*
X156148637Y-145039321D01*
X155777505Y-145023419D01*
X155441384Y-145010196D01*
X154269077Y-144964579D01*
X153897846Y-145093409D01*
X153686993Y-145171084D01*
X153455344Y-145263434D01*
X153244622Y-145353666D01*
X153194461Y-145376538D01*
X153022856Y-145456294D01*
X152855174Y-145534290D01*
X152720019Y-145597219D01*
X152686461Y-145612864D01*
X152583716Y-145675923D01*
X152448544Y-145779733D01*
X152301618Y-145907696D01*
X152210541Y-145995022D01*
X151982326Y-146254715D01*
X151804771Y-146522647D01*
X151681643Y-146789115D01*
X151616707Y-147044420D01*
X151613729Y-147278858D01*
X151442696Y-147278858D01*
X151436489Y-147246320D01*
X151452727Y-146982442D01*
X151528723Y-146703181D01*
X151662224Y-146417085D01*
X151850975Y-146132700D01*
X152070346Y-145881085D01*
X152277528Y-145683244D01*
X152465911Y-145535259D01*
X152658650Y-145421048D01*
X152862307Y-145330961D01*
X153000056Y-145274143D01*
X153118929Y-145220007D01*
X153181315Y-145187098D01*
X153251232Y-145152921D01*
X153376115Y-145100170D01*
X153537302Y-145036478D01*
X153689315Y-144979293D01*
X153938524Y-144894469D01*
X154150751Y-144839586D01*
X154357655Y-144807220D01*
X154464461Y-144797495D01*
X154663608Y-144789717D01*
X154919766Y-144790406D01*
G37*
G36*
X144048376Y-75002952D02*
G01*
X144068283Y-75035127D01*
X144129042Y-75159844D01*
X144192751Y-75319904D01*
X144241783Y-75470089D01*
X144249474Y-75499918D01*
X144279935Y-75572744D01*
X144306827Y-75593453D01*
X144364777Y-75624495D01*
X144436117Y-75696667D01*
X144493650Y-75778536D01*
X144511456Y-75829933D01*
X144475344Y-75871138D01*
X144401807Y-75884451D01*
X144283896Y-75923358D01*
X144167875Y-76029950D01*
X144075067Y-76116856D01*
X143984672Y-76167757D01*
X143915884Y-76175646D01*
X143887900Y-76133518D01*
X143887888Y-76132140D01*
X143861890Y-76072847D01*
X143804746Y-75999588D01*
X143744151Y-75917262D01*
X143721603Y-75855827D01*
X143749414Y-75807911D01*
X143816685Y-75809324D01*
X143899176Y-75855968D01*
X143936096Y-75892103D01*
X144014841Y-75982897D01*
X144078435Y-75892103D01*
X144165606Y-75821028D01*
X144243222Y-75801309D01*
X144344415Y-75801309D01*
X144220079Y-75682487D01*
X144141434Y-75592850D01*
X144098460Y-75515714D01*
X144095744Y-75499865D01*
X144062110Y-75430374D01*
X144033387Y-75412135D01*
X143979958Y-75413198D01*
X143971031Y-75432580D01*
X143942984Y-75486736D01*
X143873037Y-75567461D01*
X143846317Y-75593453D01*
X143767707Y-75677169D01*
X143724483Y-75743189D01*
X143721603Y-75755631D01*
X143691115Y-75796944D01*
X143617104Y-75798322D01*
X143525753Y-75765151D01*
X143443246Y-75702814D01*
X143438377Y-75697381D01*
X143348013Y-75593453D01*
X143516992Y-75593453D01*
X143663094Y-75571986D01*
X143765263Y-75514687D01*
X143804725Y-75432213D01*
X143804746Y-75430138D01*
X143834633Y-75387399D01*
X143846317Y-75385597D01*
X143873573Y-75349000D01*
X143887444Y-75258787D01*
X143887888Y-75237128D01*
X143906008Y-75117661D01*
X143950101Y-75026810D01*
X143954784Y-75021764D01*
X144010179Y-74978335D01*
X144048376Y-75002952D01*
G37*
G36*
X146665500Y-73509260D02*
G01*
X146715069Y-73595371D01*
X146719464Y-73670785D01*
X146746887Y-73712351D01*
X146796050Y-73722749D01*
X146866487Y-73750942D01*
X146881014Y-73807781D01*
X146919068Y-73920620D01*
X147019748Y-74024000D01*
X147162832Y-74101473D01*
X147279350Y-74131774D01*
X147408809Y-74161702D01*
X147459645Y-74198576D01*
X147430509Y-74237277D01*
X147320049Y-74272683D01*
X147316713Y-74273382D01*
X147157512Y-74330090D01*
X147069944Y-74422238D01*
X147047299Y-74533387D01*
X147025111Y-74633931D01*
X146972310Y-74721100D01*
X146909541Y-74761775D01*
X146904769Y-74762029D01*
X146885587Y-74727005D01*
X146881014Y-74676997D01*
X146843131Y-74559446D01*
X146744164Y-74461429D01*
X146606133Y-74400048D01*
X146508763Y-74387888D01*
X146403939Y-74378765D01*
X146345172Y-74355946D01*
X146340589Y-74346317D01*
X146310001Y-74314123D01*
X146293821Y-74315139D01*
X146268137Y-74304746D01*
X146532767Y-74304746D01*
X146706891Y-74304746D01*
X146813879Y-74313577D01*
X146875280Y-74335751D01*
X146881014Y-74346317D01*
X146912649Y-74386680D01*
X146922585Y-74387888D01*
X146953836Y-74352312D01*
X146964157Y-74283960D01*
X146949926Y-74205835D01*
X146922585Y-74180032D01*
X146891655Y-74144368D01*
X146881014Y-74073135D01*
X146862633Y-73981925D01*
X146819302Y-73905451D01*
X146768746Y-73868425D01*
X146740464Y-73877156D01*
X146721531Y-73933781D01*
X146714730Y-74019057D01*
X146682691Y-74138623D01*
X146623748Y-74219984D01*
X146532767Y-74304746D01*
X146268137Y-74304746D01*
X146239171Y-74293025D01*
X146228000Y-74273567D01*
X146246412Y-74232835D01*
X146316339Y-74221603D01*
X146396130Y-74209394D01*
X146423731Y-74184881D01*
X146458328Y-74146068D01*
X146506874Y-74126416D01*
X146555317Y-74101396D01*
X146580507Y-74044718D01*
X146589433Y-73935004D01*
X146590016Y-73872140D01*
X146583290Y-73745721D01*
X146565914Y-73661267D01*
X146548445Y-73639607D01*
X146514669Y-73604789D01*
X146506874Y-73556464D01*
X146536676Y-73486490D01*
X146585568Y-73473322D01*
X146665500Y-73509260D01*
G37*
%TD*%
D12*
%TO.C,D13*%
X137625000Y-137250000D03*
X139375000Y-137250000D03*
X139375000Y-133750000D03*
X137625000Y-133750000D03*
%TD*%
%TO.C,D18*%
X175125000Y-118250000D03*
X176875000Y-118250000D03*
X176875000Y-114750000D03*
X175125000Y-114750000D03*
%TD*%
D13*
%TO.C,D9*%
X181690000Y-144000000D03*
D14*
X189310000Y-144000000D03*
%TD*%
D12*
%TO.C,D14*%
X157875000Y-133750000D03*
X156125000Y-133750000D03*
X156125000Y-137250000D03*
X157875000Y-137250000D03*
%TD*%
D13*
%TO.C,D3*%
X181690000Y-106000000D03*
D14*
X189310000Y-106000000D03*
%TD*%
D12*
%TO.C,D16*%
X157875000Y-95750000D03*
X156125000Y-95750000D03*
X156125000Y-99250000D03*
X157875000Y-99250000D03*
%TD*%
D15*
%TO.C,SW5*%
X161420000Y-116500000D03*
D16*
X166500000Y-116500000D03*
D15*
X171580000Y-116500000D03*
D17*
X169040000Y-111420000D03*
X162690000Y-113960000D03*
%TD*%
D15*
%TO.C,SW8*%
X180420000Y-116500000D03*
D16*
X185500000Y-116500000D03*
D15*
X190580000Y-116500000D03*
D17*
X188040000Y-111420000D03*
X181690000Y-113960000D03*
%TD*%
D18*
%TO.C,HOLE2*%
X136500000Y-146000000D03*
%TD*%
D12*
%TO.C,D19*%
X175125000Y-137250000D03*
X176875000Y-137250000D03*
X176875000Y-133750000D03*
X175125000Y-133750000D03*
%TD*%
D13*
%TO.C,D6*%
X181690000Y-125000000D03*
D14*
X189310000Y-125000000D03*
%TD*%
D15*
%TO.C,SW6*%
X161420000Y-135500000D03*
D16*
X166500000Y-135500000D03*
D15*
X171580000Y-135500000D03*
D17*
X169040000Y-130420000D03*
X162690000Y-132960000D03*
%TD*%
D18*
%TO.C,HOLE4*%
X196500000Y-146000000D03*
%TD*%
D15*
%TO.C,SW9*%
X180420000Y-135500000D03*
D16*
X185500000Y-135500000D03*
D15*
X190580000Y-135500000D03*
D17*
X188040000Y-130420000D03*
X181690000Y-132960000D03*
%TD*%
D13*
%TO.C,D4*%
X143690000Y-125000000D03*
D14*
X151310000Y-125000000D03*
%TD*%
D19*
%TO.C,SW10*%
X178250000Y-78000000D03*
D20*
X178250000Y-83000000D03*
X178250000Y-80500000D03*
D21*
X185750000Y-74900000D03*
X185750000Y-86100000D03*
D20*
X192750000Y-83000000D03*
X192750000Y-78000000D03*
%TD*%
D13*
%TO.C,D7*%
X143690000Y-144000000D03*
D14*
X151310000Y-144000000D03*
%TD*%
D12*
%TO.C,D17*%
X175125000Y-99250000D03*
X176875000Y-99250000D03*
X176875000Y-95750000D03*
X175125000Y-95750000D03*
%TD*%
D15*
%TO.C,SW2*%
X142420000Y-116500000D03*
D16*
X147500000Y-116500000D03*
D15*
X152580000Y-116500000D03*
D17*
X150040000Y-111420000D03*
X143690000Y-113960000D03*
%TD*%
D13*
%TO.C,D2*%
X162690000Y-106000000D03*
D14*
X170310000Y-106000000D03*
%TD*%
D13*
%TO.C,D8*%
X162690000Y-144000000D03*
D14*
X170310000Y-144000000D03*
%TD*%
D15*
%TO.C,SW4*%
X161420000Y-97500000D03*
D16*
X166500000Y-97500000D03*
D15*
X171580000Y-97500000D03*
D17*
X169040000Y-92420000D03*
X162690000Y-94960000D03*
%TD*%
D15*
%TO.C,SW3*%
X142420000Y-135500000D03*
D16*
X147500000Y-135500000D03*
D15*
X152580000Y-135500000D03*
D17*
X150040000Y-130420000D03*
X143690000Y-132960000D03*
%TD*%
D22*
%TO.C,D23*%
X184000000Y-69625000D03*
X184000000Y-71375000D03*
X187500000Y-71375000D03*
X187500000Y-69625000D03*
%TD*%
D12*
%TO.C,D22*%
X195375000Y-95750000D03*
X193625000Y-95750000D03*
X193625000Y-99250000D03*
X195375000Y-99250000D03*
%TD*%
D15*
%TO.C,SW1*%
X142420000Y-97500000D03*
D16*
X147500000Y-97500000D03*
D15*
X152580000Y-97500000D03*
D17*
X150040000Y-92420000D03*
X143690000Y-94960000D03*
%TD*%
D12*
%TO.C,D12*%
X137625000Y-118250000D03*
X139375000Y-118250000D03*
X139375000Y-114750000D03*
X137625000Y-114750000D03*
%TD*%
D13*
%TO.C,D1*%
X143690000Y-106000000D03*
D14*
X151310000Y-106000000D03*
%TD*%
D23*
%TO.C,U1*%
X158000000Y-69760000D03*
D24*
X158835000Y-69760000D03*
D23*
X158000000Y-72300000D03*
D24*
X158835000Y-72300000D03*
D23*
X158000000Y-74840000D03*
D24*
X158835000Y-74840000D03*
D23*
X158000000Y-77380000D03*
D24*
X158835000Y-77380000D03*
D23*
X158000000Y-79920000D03*
D24*
X158835000Y-79920000D03*
D23*
X158000000Y-82460000D03*
D24*
X158835000Y-82460000D03*
D23*
X158000000Y-85000000D03*
D24*
X158835000Y-85000000D03*
X174075000Y-85000000D03*
D25*
X174910000Y-85000000D03*
D24*
X174075000Y-82460000D03*
D25*
X174910000Y-82460000D03*
D24*
X174075000Y-79920000D03*
D25*
X174910000Y-79920000D03*
D24*
X174075000Y-77380000D03*
D25*
X174910000Y-77380000D03*
D24*
X174075000Y-74840000D03*
D25*
X174910000Y-74840000D03*
D24*
X174075000Y-72300000D03*
D25*
X174910000Y-72300000D03*
D24*
X174075000Y-69760000D03*
D25*
X174910000Y-69760000D03*
%TD*%
D12*
%TO.C,D21*%
X195375000Y-114750000D03*
X193625000Y-114750000D03*
X193625000Y-118250000D03*
X195375000Y-118250000D03*
%TD*%
D22*
%TO.C,D10*%
X145750000Y-69625000D03*
X145750000Y-71375000D03*
X149250000Y-71375000D03*
X149250000Y-69625000D03*
%TD*%
D18*
%TO.C,HOLE1*%
X136500000Y-70000000D03*
%TD*%
D15*
%TO.C,SW7*%
X180420000Y-97500000D03*
D16*
X185500000Y-97500000D03*
D15*
X190580000Y-97500000D03*
D17*
X188040000Y-92420000D03*
X181690000Y-94960000D03*
%TD*%
D12*
%TO.C,D20*%
X195375000Y-133750000D03*
X193625000Y-133750000D03*
X193625000Y-137250000D03*
X195375000Y-137250000D03*
%TD*%
%TO.C,D15*%
X157875000Y-114750000D03*
X156125000Y-114750000D03*
X156125000Y-118250000D03*
X157875000Y-118250000D03*
%TD*%
D13*
%TO.C,D5*%
X162690000Y-125000000D03*
D14*
X170310000Y-125000000D03*
%TD*%
D18*
%TO.C,HOLE3*%
X196500000Y-70000000D03*
%TD*%
D12*
%TO.C,D11*%
X137625000Y-99250000D03*
X139375000Y-99250000D03*
X139375000Y-95750000D03*
X137625000Y-95750000D03*
%TD*%
M02*
