M48
; DRILL file {KiCad 8.0.8} date 2025-02-13T12:08:14-0500
; FORMAT={-:-/ absolute / inch / decimal}
; #@! TF.CreationDate,2025-02-13T12:08:14-05:00
; #@! TF.GenerationSoftware,Kicad,Pcbnew,8.0.8
; #@! TF.FileFunction,NonPlated,1,2,NPTH
FMAT,2
INCH
; #@! TA.AperFunction,NonPlated,NPTH,ComponentDrill
T1C0.0669
; #@! TA.AperFunction,NonPlated,NPTH,ComponentDrill
T2C0.1260
; #@! TA.AperFunction,NonPlated,NPTH,ComponentDrill
T3C0.1575
%
G90
G05
T1
X5.6071Y-3.8386
X5.6071Y-4.5866
X5.6071Y-5.3346
X6.0071Y-3.8386
X6.0071Y-4.5866
X6.0071Y-5.3346
X6.3551Y-3.8386
X6.3551Y-4.5866
X6.3551Y-5.3346
X6.7551Y-3.8386
X6.7551Y-4.5866
X6.7551Y-5.3346
X7.1031Y-3.8386
X7.1031Y-4.5866
X7.1031Y-5.3346
X7.5031Y-3.8386
X7.5031Y-4.5866
X7.5031Y-5.3346
T2
X5.374Y-2.7559
X5.374Y-5.748
X7.7362Y-2.7559
X7.7362Y-5.748
T3
X5.8071Y-3.8386
X5.8071Y-4.5866
X5.8071Y-5.3346
X6.5551Y-3.8386
X6.5551Y-4.5866
X6.5551Y-5.3346
X7.3031Y-3.8386
X7.3031Y-4.5866
X7.3031Y-5.3346
M30
