999
"DXF R12 Output" (www.mydxf.blogspot.com)
 0 
SECTION
 2 
HEADER
 9 
$ACADVER
 1 
AC1009
 9 
$EXTMIN
 10 
 0 
 20 
 0 
 9 
$EXTMAX
 10 
 8.5 
 20 
 11 
 0 
ENDSEC
 0 
SECTION
 2 
ENTITIES
0
LINE
8
Layer 1
10
49.543000
20
170.796000
11
50.000000
21
168.500000
0
LINE
8
Layer 1
10
50.000000
20
168.500000
11
50.000000
21
166.152000
0
LINE
8
Layer 1
10
50.000000
20
166.152000
11
50.000000
21
149.768000
0
LINE
8
Layer 1
10
50.000000
20
149.768000
11
50.000000
21
133.384000
0
LINE
8
Layer 1
10
50.000000
20
133.384000
11
50.000000
21
117.000000
0
LINE
8
Layer 1
10
50.000000
20
117.000000
11
50.000000
21
100.616000
0
LINE
8
Layer 1
10
50.000000
20
100.616000
11
50.000000
21
84.232000
0
LINE
8
Layer 1
10
50.000000
20
84.232000
11
50.000000
21
67.848000
0
LINE
8
Layer 1
10
50.000000
20
67.848000
11
50.000000
21
65.500000
0
LINE
8
Layer 1
10
50.000000
20
65.500000
11
49.543000
21
63.204000
0
LINE
8
Layer 1
10
49.543000
20
63.204000
11
49.152000
21
62.618400
0
LINE
8
Layer 1
10
49.152000
20
62.618400
11
48.389100
21
61.475900
0
LINE
8
Layer 1
10
48.389100
20
61.475900
11
48.243000
21
61.257000
0
LINE
8
Layer 1
10
48.243000
20
61.257000
11
46.610500
21
60.167000
0
LINE
8
Layer 1
10
46.610500
20
60.167000
11
46.296000
21
59.957000
0
LINE
8
Layer 1
10
46.296000
20
59.957000
11
44.783800
21
59.656000
0
LINE
8
Layer 1
10
44.783800
20
59.656000
11
44.000000
21
59.500000
0
LINE
8
Layer 1
10
44.000000
20
59.500000
11
40.960000
21
59.500000
0
LINE
8
Layer 1
10
40.960000
20
59.500000
11
32.768000
21
59.500000
0
LINE
8
Layer 1
10
32.768000
20
59.500000
11
16.384000
21
59.500000
0
LINE
8
Layer 1
10
16.384000
20
59.500000
11
0.000000
21
59.500000
0
LINE
8
Layer 1
10
0.000000
20
59.500000
11
-2.425000
21
59.500000
0
LINE
8
Layer 1
10
-2.425000
20
59.500000
11
-16.384000
21
59.500000
0
LINE
8
Layer 1
10
-16.384000
20
59.500000
11
-21.475000
21
59.500000
0
LINE
8
Layer 1
10
-21.475000
20
59.500000
11
-32.768000
21
59.500000
0
LINE
8
Layer 1
10
-32.768000
20
59.500000
11
-40.960000
21
59.500000
0
LINE
8
Layer 1
10
-40.960000
20
59.500000
11
-44.000000
21
59.500000
0
LINE
8
Layer 1
10
-44.000000
20
59.500000
11
-44.783800
21
59.656000
0
LINE
8
Layer 1
10
-44.783800
20
59.656000
11
-46.296000
21
59.957000
0
LINE
8
Layer 1
10
-46.296000
20
59.957000
11
-48.243000
21
61.257000
0
LINE
8
Layer 1
10
-48.243000
20
61.257000
11
-49.152000
21
62.618400
0
LINE
8
Layer 1
10
-49.152000
20
62.618400
11
-49.543000
21
63.204000
0
LINE
8
Layer 1
10
-49.543000
20
63.204000
11
-50.000000
21
65.500000
0
LINE
8
Layer 1
10
-50.000000
20
65.500000
11
-50.000000
21
67.848000
0
LINE
8
Layer 1
10
-50.000000
20
67.848000
11
-50.000000
21
72.500000
0
LINE
8
Layer 1
10
-50.000000
20
72.500000
11
-50.000000
21
84.232000
0
LINE
8
Layer 1
10
-50.000000
20
84.232000
11
-50.000000
21
91.550000
0
LINE
8
Layer 1
10
-50.000000
20
91.550000
11
-50.000000
21
100.616000
0
LINE
8
Layer 1
10
-50.000000
20
100.616000
11
-50.000000
21
117.000000
0
LINE
8
Layer 1
10
-50.000000
20
117.000000
11
-50.000000
21
129.650000
0
LINE
8
Layer 1
10
-50.000000
20
129.650000
11
-50.000000
21
133.384000
0
LINE
8
Layer 1
10
-50.000000
20
133.384000
11
-50.000000
21
148.700000
0
LINE
8
Layer 1
10
-50.000000
20
148.700000
11
-50.000000
21
149.768000
0
LINE
8
Layer 1
10
-50.000000
20
149.768000
11
-50.000000
21
166.152000
0
LINE
8
Layer 1
10
-50.000000
20
166.152000
11
-50.000000
21
168.500000
0
LINE
8
Layer 1
10
-50.000000
20
168.500000
11
-49.543000
21
170.796000
0
LINE
8
Layer 1
10
-49.543000
20
170.796000
11
-49.152000
21
171.382000
0
LINE
8
Layer 1
10
-49.152000
20
171.382000
11
-48.947100
21
171.688000
0
LINE
8
Layer 1
10
-48.947100
20
171.688000
11
-48.243000
21
172.743000
0
LINE
8
Layer 1
10
-48.243000
20
172.743000
11
-47.498100
21
173.240000
0
LINE
8
Layer 1
10
-47.498100
20
173.240000
11
-46.296000
21
174.043000
0
LINE
8
Layer 1
10
-46.296000
20
174.043000
11
-45.630100
21
174.176000
0
LINE
8
Layer 1
10
-45.630100
20
174.176000
11
-44.783800
21
174.344000
0
LINE
8
Layer 1
10
-44.783800
20
174.344000
11
-44.000000
21
174.500000
0
LINE
8
Layer 1
10
-44.000000
20
174.500000
11
-40.960000
21
174.500000
0
LINE
8
Layer 1
10
-40.960000
20
174.500000
11
-32.768000
21
174.500000
0
LINE
8
Layer 1
10
-32.768000
20
174.500000
11
-29.536100
21
174.500000
0
LINE
8
Layer 1
10
-29.536100
20
174.500000
11
-23.922100
21
174.500000
0
LINE
8
Layer 1
10
-23.922100
20
174.500000
11
0.000000
21
174.500000
0
LINE
8
Layer 1
10
0.000000
20
174.500000
11
13.151000
21
174.500000
0
LINE
8
Layer 1
10
13.151000
20
174.500000
11
21.675000
21
174.500000
0
LINE
8
Layer 1
10
21.675000
20
174.500000
11
32.768000
21
174.500000
0
LINE
8
Layer 1
10
32.768000
20
174.500000
11
40.960000
21
174.500000
0
LINE
8
Layer 1
10
40.960000
20
174.500000
11
44.000000
21
174.500000
0
LINE
8
Layer 1
10
44.000000
20
174.500000
11
44.783800
21
174.344000
0
LINE
8
Layer 1
10
44.783800
20
174.344000
11
46.296000
21
174.043000
0
LINE
8
Layer 1
10
46.296000
20
174.043000
11
48.243000
21
172.743000
0
LINE
8
Layer 1
10
48.243000
20
172.743000
11
49.152000
21
171.382000
0
LINE
8
Layer 1
10
49.152000
20
171.382000
11
49.543000
21
170.796000
0
LINE
8
Layer 1
10
43.402100
20
170.248000
11
43.231000
21
169.555000
0
LINE
8
Layer 1
10
43.231000
20
169.555000
11
43.426000
21
168.765000
0
LINE
8
Layer 1
10
43.426000
20
168.765000
11
43.965000
21
168.156000
0
LINE
8
Layer 1
10
43.965000
20
168.156000
11
44.726000
21
167.868000
0
LINE
8
Layer 1
10
44.726000
20
167.868000
11
45.534000
21
167.966000
0
LINE
8
Layer 1
10
45.534000
20
167.966000
11
46.204000
21
168.428000
0
LINE
8
Layer 1
10
46.204000
20
168.428000
11
46.582000
21
169.148000
0
LINE
8
Layer 1
10
46.582000
20
169.148000
11
46.631000
21
169.555000
0
LINE
8
Layer 1
10
46.631000
20
169.555000
11
46.582000
21
169.962000
0
LINE
8
Layer 1
10
46.582000
20
169.962000
11
46.431900
21
170.248000
0
LINE
8
Layer 1
10
46.431900
20
170.248000
11
46.204000
21
170.682000
0
LINE
8
Layer 1
10
46.204000
20
170.682000
11
45.534000
21
171.145000
0
LINE
8
Layer 1
10
45.534000
20
171.145000
11
44.726000
21
171.243000
0
LINE
8
Layer 1
10
44.726000
20
171.243000
11
43.965000
21
170.954000
0
LINE
8
Layer 1
10
43.965000
20
170.954000
11
43.426000
21
170.345000
0
LINE
8
Layer 1
10
43.426000
20
170.345000
11
43.402100
21
170.248000
0
LINE
8
Layer 1
10
32.768000
20
162.700000
11
22.175000
21
162.700000
0
LINE
8
Layer 1
10
22.175000
20
162.700000
11
21.984000
21
162.662000
0
LINE
8
Layer 1
10
21.984000
20
162.662000
11
21.821000
21
162.554000
0
LINE
8
Layer 1
10
21.821000
20
162.554000
11
21.713000
21
162.391000
0
LINE
8
Layer 1
10
21.713000
20
162.391000
11
21.675000
21
162.200000
0
LINE
8
Layer 1
10
21.675000
20
162.200000
11
21.675000
21
149.768000
0
LINE
8
Layer 1
10
21.675000
20
149.768000
11
21.675000
21
149.200000
0
LINE
8
Layer 1
10
21.675000
20
149.200000
11
21.713000
21
149.009000
0
LINE
8
Layer 1
10
21.713000
20
149.009000
11
21.821000
21
148.846000
0
LINE
8
Layer 1
10
21.821000
20
148.846000
11
21.984000
21
148.738000
0
LINE
8
Layer 1
10
21.984000
20
148.738000
11
22.175000
21
148.700000
0
LINE
8
Layer 1
10
22.175000
20
148.700000
11
32.768000
21
148.700000
0
LINE
8
Layer 1
10
32.768000
20
148.700000
11
35.175000
21
148.700000
0
LINE
8
Layer 1
10
35.175000
20
148.700000
11
35.366000
21
148.738000
0
LINE
8
Layer 1
10
35.366000
20
148.738000
11
35.529000
21
148.846000
0
LINE
8
Layer 1
10
35.529000
20
148.846000
11
35.637000
21
149.009000
0
LINE
8
Layer 1
10
35.637000
20
149.009000
11
35.675000
21
149.200000
0
LINE
8
Layer 1
10
35.675000
20
149.200000
11
35.675000
21
149.768000
0
LINE
8
Layer 1
10
35.675000
20
149.768000
11
35.675000
21
162.200000
0
LINE
8
Layer 1
10
35.675000
20
162.200000
11
35.637000
21
162.391000
0
LINE
8
Layer 1
10
35.637000
20
162.391000
11
35.529000
21
162.554000
0
LINE
8
Layer 1
10
35.529000
20
162.554000
11
35.366000
21
162.662000
0
LINE
8
Layer 1
10
35.366000
20
162.662000
11
35.175000
21
162.700000
0
LINE
8
Layer 1
10
35.175000
20
162.700000
11
32.768000
21
162.700000
0
LINE
8
Layer 1
10
35.175000
20
143.650000
11
32.768000
21
143.650000
0
LINE
8
Layer 1
10
32.768000
20
143.650000
11
22.175000
21
143.650000
0
LINE
8
Layer 1
10
22.175000
20
143.650000
11
21.984000
21
143.612000
0
LINE
8
Layer 1
10
21.984000
20
143.612000
11
21.821000
21
143.504000
0
LINE
8
Layer 1
10
21.821000
20
143.504000
11
21.713000
21
143.341000
0
LINE
8
Layer 1
10
21.713000
20
143.341000
11
21.675000
21
143.150000
0
LINE
8
Layer 1
10
21.675000
20
143.150000
11
21.675000
21
133.384000
0
LINE
8
Layer 1
10
21.675000
20
133.384000
11
21.675000
21
130.150000
0
LINE
8
Layer 1
10
21.675000
20
130.150000
11
21.713000
21
129.959000
0
LINE
8
Layer 1
10
21.713000
20
129.959000
11
21.821000
21
129.796000
0
LINE
8
Layer 1
10
21.821000
20
129.796000
11
21.984000
21
129.688000
0
LINE
8
Layer 1
10
21.984000
20
129.688000
11
22.175000
21
129.650000
0
LINE
8
Layer 1
10
22.175000
20
129.650000
11
29.711700
21
129.650000
0
LINE
8
Layer 1
10
29.711700
20
129.650000
11
32.768000
21
129.650000
0
LINE
8
Layer 1
10
32.768000
20
129.650000
11
35.175000
21
129.650000
0
LINE
8
Layer 1
10
35.175000
20
129.650000
11
35.366000
21
129.688000
0
LINE
8
Layer 1
10
35.366000
20
129.688000
11
35.529000
21
129.796000
0
LINE
8
Layer 1
10
35.529000
20
129.796000
11
35.637000
21
129.959000
0
LINE
8
Layer 1
10
35.637000
20
129.959000
11
35.675000
21
130.150000
0
LINE
8
Layer 1
10
35.675000
20
130.150000
11
35.675000
21
133.384000
0
LINE
8
Layer 1
10
35.675000
20
133.384000
11
35.675000
21
143.150000
0
LINE
8
Layer 1
10
35.675000
20
143.150000
11
35.637000
21
143.341000
0
LINE
8
Layer 1
10
35.637000
20
143.341000
11
35.529000
21
143.504000
0
LINE
8
Layer 1
10
35.529000
20
143.504000
11
35.366000
21
143.612000
0
LINE
8
Layer 1
10
35.366000
20
143.612000
11
35.175000
21
143.650000
0
LINE
8
Layer 1
10
32.768000
20
124.600000
11
22.175000
21
124.600000
0
LINE
8
Layer 1
10
22.175000
20
124.600000
11
21.987000
21
124.563000
0
LINE
8
Layer 1
10
21.987000
20
124.563000
11
21.823000
21
124.455000
0
LINE
8
Layer 1
10
21.823000
20
124.455000
11
21.714000
21
124.292000
0
LINE
8
Layer 1
10
21.714000
20
124.292000
11
21.675000
21
124.100000
0
LINE
8
Layer 1
10
21.675000
20
124.100000
11
21.675000
21
117.000000
0
LINE
8
Layer 1
10
21.675000
20
117.000000
11
21.675000
21
111.100000
0
LINE
8
Layer 1
10
21.675000
20
111.100000
11
21.713000
21
110.909000
0
LINE
8
Layer 1
10
21.713000
20
110.909000
11
21.821000
21
110.746000
0
LINE
8
Layer 1
10
21.821000
20
110.746000
11
21.984000
21
110.638000
0
LINE
8
Layer 1
10
21.984000
20
110.638000
11
22.175000
21
110.600000
0
LINE
8
Layer 1
10
22.175000
20
110.600000
11
32.768000
21
110.600000
0
LINE
8
Layer 1
10
32.768000
20
110.600000
11
34.570800
21
110.600000
0
LINE
8
Layer 1
10
34.570800
20
110.600000
11
35.175000
21
110.600000
0
LINE
8
Layer 1
10
35.175000
20
110.600000
11
35.366000
21
110.638000
0
LINE
8
Layer 1
10
35.366000
20
110.638000
11
35.529000
21
110.746000
0
LINE
8
Layer 1
10
35.529000
20
110.746000
11
35.637000
21
110.909000
0
LINE
8
Layer 1
10
35.637000
20
110.909000
11
35.675000
21
111.100000
0
LINE
8
Layer 1
10
35.675000
20
111.100000
11
35.675000
21
117.000000
0
LINE
8
Layer 1
10
35.675000
20
117.000000
11
35.675000
21
124.100000
0
LINE
8
Layer 1
10
35.675000
20
124.100000
11
35.637000
21
124.291000
0
LINE
8
Layer 1
10
35.637000
20
124.291000
11
35.529000
21
124.454000
0
LINE
8
Layer 1
10
35.529000
20
124.454000
11
35.366000
21
124.562000
0
LINE
8
Layer 1
10
35.366000
20
124.562000
11
35.175000
21
124.600000
0
LINE
8
Layer 1
10
35.175000
20
124.600000
11
32.768000
21
124.600000
0
LINE
8
Layer 1
10
16.479000
20
124.454000
11
16.384000
21
124.517000
0
LINE
8
Layer 1
10
16.384000
20
124.517000
11
16.316000
21
124.562000
0
LINE
8
Layer 1
10
16.316000
20
124.562000
11
16.125000
21
124.600000
0
LINE
8
Layer 1
10
16.125000
20
124.600000
11
3.125000
21
124.600000
0
LINE
8
Layer 1
10
3.125000
20
124.600000
11
2.934000
21
124.562000
0
LINE
8
Layer 1
10
2.934000
20
124.562000
11
2.771000
21
124.454000
0
LINE
8
Layer 1
10
2.771000
20
124.454000
11
2.663000
21
124.291000
0
LINE
8
Layer 1
10
2.663000
20
124.291000
11
2.625000
21
124.100000
0
LINE
8
Layer 1
10
2.625000
20
124.100000
11
2.625000
21
117.000000
0
LINE
8
Layer 1
10
2.625000
20
117.000000
11
2.625000
21
114.583000
0
LINE
8
Layer 1
10
2.625000
20
114.583000
11
2.625000
21
111.100000
0
LINE
8
Layer 1
10
2.625000
20
111.100000
11
2.663000
21
110.909000
0
LINE
8
Layer 1
10
2.663000
20
110.909000
11
2.771000
21
110.746000
0
LINE
8
Layer 1
10
2.771000
20
110.746000
11
2.934000
21
110.638000
0
LINE
8
Layer 1
10
2.934000
20
110.638000
11
3.125000
21
110.600000
0
LINE
8
Layer 1
10
3.125000
20
110.600000
11
8.636890
21
110.600000
0
LINE
8
Layer 1
10
8.636890
20
110.600000
11
16.125000
21
110.600000
0
LINE
8
Layer 1
10
16.125000
20
110.600000
11
16.316000
21
110.638000
0
LINE
8
Layer 1
10
16.316000
20
110.638000
11
16.384000
21
110.683000
0
LINE
8
Layer 1
10
16.384000
20
110.683000
11
16.479000
21
110.746000
0
LINE
8
Layer 1
10
16.479000
20
110.746000
11
16.587000
21
110.909000
0
LINE
8
Layer 1
10
16.587000
20
110.909000
11
16.625000
21
111.100000
0
LINE
8
Layer 1
10
16.625000
20
111.100000
11
16.625000
21
117.000000
0
LINE
8
Layer 1
10
16.625000
20
117.000000
11
16.625000
21
124.100000
0
LINE
8
Layer 1
10
16.625000
20
124.100000
11
16.587000
21
124.291000
0
LINE
8
Layer 1
10
16.587000
20
124.291000
11
16.479000
21
124.454000
0
LINE
8
Layer 1
10
-21.975000
20
162.700000
11
-32.768000
21
162.700000
0
LINE
8
Layer 1
10
-32.768000
20
162.700000
11
-34.975000
21
162.700000
0
LINE
8
Layer 1
10
-34.975000
20
162.700000
11
-35.166000
21
162.662000
0
LINE
8
Layer 1
10
-35.166000
20
162.662000
11
-35.329000
21
162.554000
0
LINE
8
Layer 1
10
-35.329000
20
162.554000
11
-35.437000
21
162.391000
0
LINE
8
Layer 1
10
-35.437000
20
162.391000
11
-35.475000
21
162.200000
0
LINE
8
Layer 1
10
-35.475000
20
162.200000
11
-35.475000
21
149.768000
0
LINE
8
Layer 1
10
-35.475000
20
149.768000
11
-35.475000
21
149.200000
0
LINE
8
Layer 1
10
-35.475000
20
149.200000
11
-35.437000
21
149.009000
0
LINE
8
Layer 1
10
-35.437000
20
149.009000
11
-35.329000
21
148.846000
0
LINE
8
Layer 1
10
-35.329000
20
148.846000
11
-35.166000
21
148.738000
0
LINE
8
Layer 1
10
-35.166000
20
148.738000
11
-34.975000
21
148.700000
0
LINE
8
Layer 1
10
-34.975000
20
148.700000
11
-32.768000
21
148.700000
0
LINE
8
Layer 1
10
-32.768000
20
148.700000
11
-21.975000
21
148.700000
0
LINE
8
Layer 1
10
-21.975000
20
148.700000
11
-21.784000
21
148.738000
0
LINE
8
Layer 1
10
-21.784000
20
148.738000
11
-21.621000
21
148.846000
0
LINE
8
Layer 1
10
-21.621000
20
148.846000
11
-21.513000
21
149.009000
0
LINE
8
Layer 1
10
-21.513000
20
149.009000
11
-21.475000
21
149.200000
0
LINE
8
Layer 1
10
-21.475000
20
149.200000
11
-21.475000
21
149.768000
0
LINE
8
Layer 1
10
-21.475000
20
149.768000
11
-21.475000
21
162.200000
0
LINE
8
Layer 1
10
-21.475000
20
162.200000
11
-21.513000
21
162.391000
0
LINE
8
Layer 1
10
-21.513000
20
162.391000
11
-21.621000
21
162.554000
0
LINE
8
Layer 1
10
-21.621000
20
162.554000
11
-21.784000
21
162.662000
0
LINE
8
Layer 1
10
-21.784000
20
162.662000
11
-21.975000
21
162.700000
0
LINE
8
Layer 1
10
-46.597900
20
170.248000
11
-46.769000
21
169.555000
0
LINE
8
Layer 1
10
-46.769000
20
169.555000
11
-46.574000
21
168.765000
0
LINE
8
Layer 1
10
-46.574000
20
168.765000
11
-46.035000
21
168.156000
0
LINE
8
Layer 1
10
-46.035000
20
168.156000
11
-45.274000
21
167.868000
0
LINE
8
Layer 1
10
-45.274000
20
167.868000
11
-44.466000
21
167.966000
0
LINE
8
Layer 1
10
-44.466000
20
167.966000
11
-43.796000
21
168.428000
0
LINE
8
Layer 1
10
-43.796000
20
168.428000
11
-43.418000
21
169.148000
0
LINE
8
Layer 1
10
-43.418000
20
169.148000
11
-43.369000
21
169.555000
0
LINE
8
Layer 1
10
-43.369000
20
169.555000
11
-43.418000
21
169.962000
0
LINE
8
Layer 1
10
-43.418000
20
169.962000
11
-43.568100
21
170.248000
0
LINE
8
Layer 1
10
-43.568100
20
170.248000
11
-43.796000
21
170.682000
0
LINE
8
Layer 1
10
-43.796000
20
170.682000
11
-44.466000
21
171.145000
0
LINE
8
Layer 1
10
-44.466000
20
171.145000
11
-45.274000
21
171.243000
0
LINE
8
Layer 1
10
-45.274000
20
171.243000
11
-46.035000
21
170.954000
0
LINE
8
Layer 1
10
-46.035000
20
170.954000
11
-46.574000
21
170.345000
0
LINE
8
Layer 1
10
-46.574000
20
170.345000
11
-46.597900
21
170.248000
0
LINE
8
Layer 1
10
-21.975000
20
143.650000
11
-32.768000
21
143.650000
0
LINE
8
Layer 1
10
-32.768000
20
143.650000
11
-34.975000
21
143.650000
0
LINE
8
Layer 1
10
-34.975000
20
143.650000
11
-35.166000
21
143.612000
0
LINE
8
Layer 1
10
-35.166000
20
143.612000
11
-35.329000
21
143.504000
0
LINE
8
Layer 1
10
-35.329000
20
143.504000
11
-35.437000
21
143.341000
0
LINE
8
Layer 1
10
-35.437000
20
143.341000
11
-35.475000
21
143.150000
0
LINE
8
Layer 1
10
-35.475000
20
143.150000
11
-35.475000
21
133.384000
0
LINE
8
Layer 1
10
-35.475000
20
133.384000
11
-35.475000
21
130.150000
0
LINE
8
Layer 1
10
-35.475000
20
130.150000
11
-35.437000
21
129.959000
0
LINE
8
Layer 1
10
-35.437000
20
129.959000
11
-35.329000
21
129.796000
0
LINE
8
Layer 1
10
-35.329000
20
129.796000
11
-35.166000
21
129.688000
0
LINE
8
Layer 1
10
-35.166000
20
129.688000
11
-34.975000
21
129.650000
0
LINE
8
Layer 1
10
-34.975000
20
129.650000
11
-32.768000
21
129.650000
0
LINE
8
Layer 1
10
-32.768000
20
129.650000
11
-21.975000
21
129.650000
0
LINE
8
Layer 1
10
-21.975000
20
129.650000
11
-21.784000
21
129.688000
0
LINE
8
Layer 1
10
-21.784000
20
129.688000
11
-21.621000
21
129.796000
0
LINE
8
Layer 1
10
-21.621000
20
129.796000
11
-21.513000
21
129.959000
0
LINE
8
Layer 1
10
-21.513000
20
129.959000
11
-21.475000
21
130.150000
0
LINE
8
Layer 1
10
-21.475000
20
130.150000
11
-21.475000
21
133.384000
0
LINE
8
Layer 1
10
-21.475000
20
133.384000
11
-21.475000
21
143.150000
0
LINE
8
Layer 1
10
-21.475000
20
143.150000
11
-21.513000
21
143.341000
0
LINE
8
Layer 1
10
-21.513000
20
143.341000
11
-21.621000
21
143.504000
0
LINE
8
Layer 1
10
-21.621000
20
143.504000
11
-21.784000
21
143.612000
0
LINE
8
Layer 1
10
-21.784000
20
143.612000
11
-21.975000
21
143.650000
0
LINE
8
Layer 1
10
-2.925000
20
124.600000
11
-15.925000
21
124.600000
0
LINE
8
Layer 1
10
-15.925000
20
124.600000
11
-16.113000
21
124.563000
0
LINE
8
Layer 1
10
-16.113000
20
124.563000
11
-16.277000
21
124.455000
0
LINE
8
Layer 1
10
-16.277000
20
124.455000
11
-16.384000
21
124.295000
0
LINE
8
Layer 1
10
-16.384000
20
124.295000
11
-16.386000
21
124.292000
0
LINE
8
Layer 1
10
-16.386000
20
124.292000
11
-16.425000
21
124.100000
0
LINE
8
Layer 1
10
-16.425000
20
124.100000
11
-16.425000
21
117.000000
0
LINE
8
Layer 1
10
-16.425000
20
117.000000
11
-16.425000
21
111.100000
0
LINE
8
Layer 1
10
-16.425000
20
111.100000
11
-16.387000
21
110.909000
0
LINE
8
Layer 1
10
-16.387000
20
110.909000
11
-16.384000
21
110.904000
0
LINE
8
Layer 1
10
-16.384000
20
110.904000
11
-16.279000
21
110.746000
0
LINE
8
Layer 1
10
-16.279000
20
110.746000
11
-16.116000
21
110.638000
0
LINE
8
Layer 1
10
-16.116000
20
110.638000
11
-15.925000
21
110.600000
0
LINE
8
Layer 1
10
-15.925000
20
110.600000
11
-2.925000
21
110.600000
0
LINE
8
Layer 1
10
-2.925000
20
110.600000
11
-2.734000
21
110.638000
0
LINE
8
Layer 1
10
-2.734000
20
110.638000
11
-2.571000
21
110.746000
0
LINE
8
Layer 1
10
-2.571000
20
110.746000
11
-2.463000
21
110.909000
0
LINE
8
Layer 1
10
-2.463000
20
110.909000
11
-2.425000
21
111.100000
0
LINE
8
Layer 1
10
-2.425000
20
111.100000
11
-2.425000
21
117.000000
0
LINE
8
Layer 1
10
-2.425000
20
117.000000
11
-2.425000
21
124.100000
0
LINE
8
Layer 1
10
-2.425000
20
124.100000
11
-2.463000
21
124.291000
0
LINE
8
Layer 1
10
-2.463000
20
124.291000
11
-2.571000
21
124.454000
0
LINE
8
Layer 1
10
-2.571000
20
124.454000
11
-2.734000
21
124.562000
0
LINE
8
Layer 1
10
-2.734000
20
124.562000
11
-2.925000
21
124.600000
0
LINE
8
Layer 1
10
-21.975000
20
124.600000
11
-32.768000
21
124.600000
0
LINE
8
Layer 1
10
-32.768000
20
124.600000
11
-34.975000
21
124.600000
0
LINE
8
Layer 1
10
-34.975000
20
124.600000
11
-35.163000
21
124.563000
0
LINE
8
Layer 1
10
-35.163000
20
124.563000
11
-35.327000
21
124.455000
0
LINE
8
Layer 1
10
-35.327000
20
124.455000
11
-35.436000
21
124.292000
0
LINE
8
Layer 1
10
-35.436000
20
124.292000
11
-35.475000
21
124.100000
0
LINE
8
Layer 1
10
-35.475000
20
124.100000
11
-35.475000
21
117.000000
0
LINE
8
Layer 1
10
-35.475000
20
117.000000
11
-35.475000
21
111.100000
0
LINE
8
Layer 1
10
-35.475000
20
111.100000
11
-35.437000
21
110.909000
0
LINE
8
Layer 1
10
-35.437000
20
110.909000
11
-35.329000
21
110.746000
0
LINE
8
Layer 1
10
-35.329000
20
110.746000
11
-35.166000
21
110.638000
0
LINE
8
Layer 1
10
-35.166000
20
110.638000
11
-34.975000
21
110.600000
0
LINE
8
Layer 1
10
-34.975000
20
110.600000
11
-32.768000
21
110.600000
0
LINE
8
Layer 1
10
-32.768000
20
110.600000
11
-21.975000
21
110.600000
0
LINE
8
Layer 1
10
-21.975000
20
110.600000
11
-21.784000
21
110.638000
0
LINE
8
Layer 1
10
-21.784000
20
110.638000
11
-21.621000
21
110.746000
0
LINE
8
Layer 1
10
-21.621000
20
110.746000
11
-21.513000
21
110.909000
0
LINE
8
Layer 1
10
-21.513000
20
110.909000
11
-21.475000
21
111.100000
0
LINE
8
Layer 1
10
-21.475000
20
111.100000
11
-21.475000
21
117.000000
0
LINE
8
Layer 1
10
-21.475000
20
117.000000
11
-21.475000
21
124.100000
0
LINE
8
Layer 1
10
-21.475000
20
124.100000
11
-21.513000
21
124.291000
0
LINE
8
Layer 1
10
-21.513000
20
124.291000
11
-21.621000
21
124.454000
0
LINE
8
Layer 1
10
-21.621000
20
124.454000
11
-21.784000
21
124.562000
0
LINE
8
Layer 1
10
-21.784000
20
124.562000
11
-21.975000
21
124.600000
0
LINE
8
Layer 1
10
35.175000
20
105.550000
11
32.768000
21
105.550000
0
LINE
8
Layer 1
10
32.768000
20
105.550000
11
22.175000
21
105.550000
0
LINE
8
Layer 1
10
22.175000
20
105.550000
11
21.984000
21
105.512000
0
LINE
8
Layer 1
10
21.984000
20
105.512000
11
21.821000
21
105.404000
0
LINE
8
Layer 1
10
21.821000
20
105.404000
11
21.713000
21
105.241000
0
LINE
8
Layer 1
10
21.713000
20
105.241000
11
21.675000
21
105.050000
0
LINE
8
Layer 1
10
21.675000
20
105.050000
11
21.675000
21
100.616000
0
LINE
8
Layer 1
10
21.675000
20
100.616000
11
21.675000
21
92.424000
0
LINE
8
Layer 1
10
21.675000
20
92.424000
11
21.675000
21
92.050000
0
LINE
8
Layer 1
10
21.675000
20
92.050000
11
21.713000
21
91.859000
0
LINE
8
Layer 1
10
21.713000
20
91.859000
11
21.821000
21
91.696000
0
LINE
8
Layer 1
10
21.821000
20
91.696000
11
21.984000
21
91.588000
0
LINE
8
Layer 1
10
21.984000
20
91.588000
11
22.175000
21
91.550000
0
LINE
8
Layer 1
10
22.175000
20
91.550000
11
24.576000
21
91.550000
0
LINE
8
Layer 1
10
24.576000
20
91.550000
11
32.768000
21
91.550000
0
LINE
8
Layer 1
10
32.768000
20
91.550000
11
35.175000
21
91.550000
0
LINE
8
Layer 1
10
35.175000
20
91.550000
11
35.366000
21
91.588000
0
LINE
8
Layer 1
10
35.366000
20
91.588000
11
35.529000
21
91.696000
0
LINE
8
Layer 1
10
35.529000
20
91.696000
11
35.637000
21
91.859000
0
LINE
8
Layer 1
10
35.637000
20
91.859000
11
35.675000
21
92.050000
0
LINE
8
Layer 1
10
35.675000
20
92.050000
11
35.675000
21
100.616000
0
LINE
8
Layer 1
10
35.675000
20
100.616000
11
35.675000
21
105.050000
0
LINE
8
Layer 1
10
35.675000
20
105.050000
11
35.637000
21
105.241000
0
LINE
8
Layer 1
10
35.637000
20
105.241000
11
35.529000
21
105.404000
0
LINE
8
Layer 1
10
35.529000
20
105.404000
11
35.366000
21
105.512000
0
LINE
8
Layer 1
10
35.366000
20
105.512000
11
35.175000
21
105.550000
0
LINE
8
Layer 1
10
32.768000
20
86.500000
11
24.576000
21
86.500000
0
LINE
8
Layer 1
10
24.576000
20
86.500000
11
22.175000
21
86.500000
0
LINE
8
Layer 1
10
22.175000
20
86.500000
11
21.984000
21
86.462000
0
LINE
8
Layer 1
10
21.984000
20
86.462000
11
21.821000
21
86.354000
0
LINE
8
Layer 1
10
21.821000
20
86.354000
11
21.713000
21
86.191000
0
LINE
8
Layer 1
10
21.713000
20
86.191000
11
21.675000
21
86.000000
0
LINE
8
Layer 1
10
21.675000
20
86.000000
11
21.675000
21
84.232000
0
LINE
8
Layer 1
10
21.675000
20
84.232000
11
21.675000
21
73.000000
0
LINE
8
Layer 1
10
21.675000
20
73.000000
11
21.713000
21
72.809000
0
LINE
8
Layer 1
10
21.713000
20
72.809000
11
21.821000
21
72.646000
0
LINE
8
Layer 1
10
21.821000
20
72.646000
11
21.984000
21
72.538000
0
LINE
8
Layer 1
10
21.984000
20
72.538000
11
22.175000
21
72.500000
0
LINE
8
Layer 1
10
22.175000
20
72.500000
11
32.768000
21
72.500000
0
LINE
8
Layer 1
10
32.768000
20
72.500000
11
35.175000
21
72.500000
0
LINE
8
Layer 1
10
35.175000
20
72.500000
11
35.366000
21
72.538000
0
LINE
8
Layer 1
10
35.366000
20
72.538000
11
35.529000
21
72.646000
0
LINE
8
Layer 1
10
35.529000
20
72.646000
11
35.637000
21
72.809000
0
LINE
8
Layer 1
10
35.637000
20
72.809000
11
35.675000
21
73.000000
0
LINE
8
Layer 1
10
35.675000
20
73.000000
11
35.675000
21
84.232000
0
LINE
8
Layer 1
10
35.675000
20
84.232000
11
35.675000
21
86.000000
0
LINE
8
Layer 1
10
35.675000
20
86.000000
11
35.637000
21
86.191000
0
LINE
8
Layer 1
10
35.637000
20
86.191000
11
35.529000
21
86.354000
0
LINE
8
Layer 1
10
35.529000
20
86.354000
11
35.366000
21
86.462000
0
LINE
8
Layer 1
10
35.366000
20
86.462000
11
35.175000
21
86.500000
0
LINE
8
Layer 1
10
35.175000
20
86.500000
11
32.768000
21
86.500000
0
LINE
8
Layer 1
10
16.479000
20
105.404000
11
16.384000
21
105.467000
0
LINE
8
Layer 1
10
16.384000
20
105.467000
11
16.316000
21
105.512000
0
LINE
8
Layer 1
10
16.316000
20
105.512000
11
16.125000
21
105.550000
0
LINE
8
Layer 1
10
16.125000
20
105.550000
11
3.125000
21
105.550000
0
LINE
8
Layer 1
10
3.125000
20
105.550000
11
2.934000
21
105.512000
0
LINE
8
Layer 1
10
2.934000
20
105.512000
11
2.771000
21
105.404000
0
LINE
8
Layer 1
10
2.771000
20
105.404000
11
2.663000
21
105.241000
0
LINE
8
Layer 1
10
2.663000
20
105.241000
11
2.625000
21
105.050000
0
LINE
8
Layer 1
10
2.625000
20
105.050000
11
2.625000
21
100.616000
0
LINE
8
Layer 1
10
2.625000
20
100.616000
11
2.625000
21
92.050000
0
LINE
8
Layer 1
10
2.625000
20
92.050000
11
2.663000
21
91.859000
0
LINE
8
Layer 1
10
2.663000
20
91.859000
11
2.771000
21
91.696000
0
LINE
8
Layer 1
10
2.771000
20
91.696000
11
2.934000
21
91.588000
0
LINE
8
Layer 1
10
2.934000
20
91.588000
11
3.125000
21
91.550000
0
LINE
8
Layer 1
10
3.125000
20
91.550000
11
16.125000
21
91.550000
0
LINE
8
Layer 1
10
16.125000
20
91.550000
11
16.316000
21
91.588000
0
LINE
8
Layer 1
10
16.316000
20
91.588000
11
16.384000
21
91.633100
0
LINE
8
Layer 1
10
16.384000
20
91.633100
11
16.479000
21
91.696000
0
LINE
8
Layer 1
10
16.479000
20
91.696000
11
16.587000
21
91.859000
0
LINE
8
Layer 1
10
16.587000
20
91.859000
11
16.625000
21
92.050000
0
LINE
8
Layer 1
10
16.625000
20
92.050000
11
16.625000
21
92.424000
0
LINE
8
Layer 1
10
16.625000
20
92.424000
11
16.625000
21
100.616000
0
LINE
8
Layer 1
10
16.625000
20
100.616000
11
16.625000
21
105.050000
0
LINE
8
Layer 1
10
16.625000
20
105.050000
11
16.587000
21
105.241000
0
LINE
8
Layer 1
10
16.587000
20
105.241000
11
16.479000
21
105.404000
0
LINE
8
Layer 1
10
16.479000
20
86.354000
11
16.384000
21
86.416900
0
LINE
8
Layer 1
10
16.384000
20
86.416900
11
16.316000
21
86.462000
0
LINE
8
Layer 1
10
16.316000
20
86.462000
11
16.125000
21
86.500000
0
LINE
8
Layer 1
10
16.125000
20
86.500000
11
3.125000
21
86.500000
0
LINE
8
Layer 1
10
3.125000
20
86.500000
11
2.934000
21
86.462000
0
LINE
8
Layer 1
10
2.934000
20
86.462000
11
2.771000
21
86.354000
0
LINE
8
Layer 1
10
2.771000
20
86.354000
11
2.663000
21
86.191000
0
LINE
8
Layer 1
10
2.663000
20
86.191000
11
2.625000
21
86.000000
0
LINE
8
Layer 1
10
2.625000
20
86.000000
11
2.625000
21
84.232000
0
LINE
8
Layer 1
10
2.625000
20
84.232000
11
2.625000
21
73.000000
0
LINE
8
Layer 1
10
2.625000
20
73.000000
11
2.663000
21
72.809000
0
LINE
8
Layer 1
10
2.663000
20
72.809000
11
2.771000
21
72.646000
0
LINE
8
Layer 1
10
2.771000
20
72.646000
11
2.934000
21
72.538000
0
LINE
8
Layer 1
10
2.934000
20
72.538000
11
3.125000
21
72.500000
0
LINE
8
Layer 1
10
3.125000
20
72.500000
11
16.125000
21
72.500000
0
LINE
8
Layer 1
10
16.125000
20
72.500000
11
16.316000
21
72.538000
0
LINE
8
Layer 1
10
16.316000
20
72.538000
11
16.384000
21
72.583100
0
LINE
8
Layer 1
10
16.384000
20
72.583100
11
16.479000
21
72.646000
0
LINE
8
Layer 1
10
16.479000
20
72.646000
11
16.587000
21
72.809000
0
LINE
8
Layer 1
10
16.587000
20
72.809000
11
16.625000
21
73.000000
0
LINE
8
Layer 1
10
16.625000
20
73.000000
11
16.625000
21
84.232000
0
LINE
8
Layer 1
10
16.625000
20
84.232000
11
16.625000
21
86.000000
0
LINE
8
Layer 1
10
16.625000
20
86.000000
11
16.587000
21
86.191000
0
LINE
8
Layer 1
10
16.587000
20
86.191000
11
16.479000
21
86.354000
0
LINE
8
Layer 1
10
43.426000
20
65.345000
11
43.231000
21
64.555000
0
LINE
8
Layer 1
10
43.231000
20
64.555000
11
43.426000
21
63.765000
0
LINE
8
Layer 1
10
43.426000
20
63.765000
11
43.437500
21
63.752000
0
LINE
8
Layer 1
10
43.437500
20
63.752000
11
43.965000
21
63.156000
0
LINE
8
Layer 1
10
43.965000
20
63.156000
11
44.726000
21
62.867000
0
LINE
8
Layer 1
10
44.726000
20
62.867000
11
45.534000
21
62.966000
0
LINE
8
Layer 1
10
45.534000
20
62.966000
11
46.204000
21
63.428000
0
LINE
8
Layer 1
10
46.204000
20
63.428000
11
46.374100
21
63.752000
0
LINE
8
Layer 1
10
46.374100
20
63.752000
11
46.582000
21
64.148000
0
LINE
8
Layer 1
10
46.582000
20
64.148000
11
46.631000
21
64.555000
0
LINE
8
Layer 1
10
46.631000
20
64.555000
11
46.582000
21
64.962000
0
LINE
8
Layer 1
10
46.582000
20
64.962000
11
46.204000
21
65.682000
0
LINE
8
Layer 1
10
46.204000
20
65.682000
11
45.534000
21
66.145000
0
LINE
8
Layer 1
10
45.534000
20
66.145000
11
44.726000
21
66.243000
0
LINE
8
Layer 1
10
44.726000
20
66.243000
11
43.965000
21
65.954000
0
LINE
8
Layer 1
10
43.965000
20
65.954000
11
43.426000
21
65.345000
0
LINE
8
Layer 1
10
-16.279000
20
105.404000
11
-16.384000
21
105.246000
0
LINE
8
Layer 1
10
-16.384000
20
105.246000
11
-16.387000
21
105.241000
0
LINE
8
Layer 1
10
-16.387000
20
105.241000
11
-16.425000
21
105.050000
0
LINE
8
Layer 1
10
-16.425000
20
105.050000
11
-16.425000
21
100.616000
0
LINE
8
Layer 1
10
-16.425000
20
100.616000
11
-16.425000
21
92.424000
0
LINE
8
Layer 1
10
-16.425000
20
92.424000
11
-16.425000
21
92.050000
0
LINE
8
Layer 1
10
-16.425000
20
92.050000
11
-16.387000
21
91.859000
0
LINE
8
Layer 1
10
-16.387000
20
91.859000
11
-16.384000
21
91.854500
0
LINE
8
Layer 1
10
-16.384000
20
91.854500
11
-16.279000
21
91.696000
0
LINE
8
Layer 1
10
-16.279000
20
91.696000
11
-16.116000
21
91.588000
0
LINE
8
Layer 1
10
-16.116000
20
91.588000
11
-15.925000
21
91.550000
0
LINE
8
Layer 1
10
-15.925000
20
91.550000
11
-8.192000
21
91.550000
0
LINE
8
Layer 1
10
-8.192000
20
91.550000
11
-2.925000
21
91.550000
0
LINE
8
Layer 1
10
-2.925000
20
91.550000
11
-2.734000
21
91.588000
0
LINE
8
Layer 1
10
-2.734000
20
91.588000
11
-2.571000
21
91.696000
0
LINE
8
Layer 1
10
-2.571000
20
91.696000
11
-2.463000
21
91.859000
0
LINE
8
Layer 1
10
-2.463000
20
91.859000
11
-2.425000
21
92.050000
0
LINE
8
Layer 1
10
-2.425000
20
92.050000
11
-2.425000
21
92.424000
0
LINE
8
Layer 1
10
-2.425000
20
92.424000
11
-2.425000
21
100.616000
0
LINE
8
Layer 1
10
-2.425000
20
100.616000
11
-2.425000
21
105.050000
0
LINE
8
Layer 1
10
-2.425000
20
105.050000
11
-2.463000
21
105.241000
0
LINE
8
Layer 1
10
-2.463000
20
105.241000
11
-2.571000
21
105.404000
0
LINE
8
Layer 1
10
-2.571000
20
105.404000
11
-2.734000
21
105.512000
0
LINE
8
Layer 1
10
-2.734000
20
105.512000
11
-2.925000
21
105.550000
0
LINE
8
Layer 1
10
-2.925000
20
105.550000
11
-15.925000
21
105.550000
0
LINE
8
Layer 1
10
-15.925000
20
105.550000
11
-16.116000
21
105.512000
0
LINE
8
Layer 1
10
-16.116000
20
105.512000
11
-16.279000
21
105.404000
0
LINE
8
Layer 1
10
-21.975000
20
105.550000
11
-32.768000
21
105.550000
0
LINE
8
Layer 1
10
-32.768000
20
105.550000
11
-34.975000
21
105.550000
0
LINE
8
Layer 1
10
-34.975000
20
105.550000
11
-35.166000
21
105.512000
0
LINE
8
Layer 1
10
-35.166000
20
105.512000
11
-35.329000
21
105.404000
0
LINE
8
Layer 1
10
-35.329000
20
105.404000
11
-35.437000
21
105.241000
0
LINE
8
Layer 1
10
-35.437000
20
105.241000
11
-35.475000
21
105.050000
0
LINE
8
Layer 1
10
-35.475000
20
105.050000
11
-35.475000
21
100.616000
0
LINE
8
Layer 1
10
-35.475000
20
100.616000
11
-35.475000
21
92.050000
0
LINE
8
Layer 1
10
-35.475000
20
92.050000
11
-35.437000
21
91.859000
0
LINE
8
Layer 1
10
-35.437000
20
91.859000
11
-35.329000
21
91.696000
0
LINE
8
Layer 1
10
-35.329000
20
91.696000
11
-35.166000
21
91.588000
0
LINE
8
Layer 1
10
-35.166000
20
91.588000
11
-34.975000
21
91.550000
0
LINE
8
Layer 1
10
-34.975000
20
91.550000
11
-32.768000
21
91.550000
0
LINE
8
Layer 1
10
-32.768000
20
91.550000
11
-24.576000
21
91.550000
0
LINE
8
Layer 1
10
-24.576000
20
91.550000
11
-21.975000
21
91.550000
0
LINE
8
Layer 1
10
-21.975000
20
91.550000
11
-21.784000
21
91.588000
0
LINE
8
Layer 1
10
-21.784000
20
91.588000
11
-21.621000
21
91.696000
0
LINE
8
Layer 1
10
-21.621000
20
91.696000
11
-21.513000
21
91.859000
0
LINE
8
Layer 1
10
-21.513000
20
91.859000
11
-21.475000
21
92.050000
0
LINE
8
Layer 1
10
-21.475000
20
92.050000
11
-21.475000
21
92.424000
0
LINE
8
Layer 1
10
-21.475000
20
92.424000
11
-21.475000
21
100.616000
0
LINE
8
Layer 1
10
-21.475000
20
100.616000
11
-21.475000
21
105.050000
0
LINE
8
Layer 1
10
-21.475000
20
105.050000
11
-21.513000
21
105.241000
0
LINE
8
Layer 1
10
-21.513000
20
105.241000
11
-21.621000
21
105.404000
0
LINE
8
Layer 1
10
-21.621000
20
105.404000
11
-21.784000
21
105.512000
0
LINE
8
Layer 1
10
-21.784000
20
105.512000
11
-21.975000
21
105.550000
0
LINE
8
Layer 1
10
-8.192000
20
86.500000
11
-15.925000
21
86.500000
0
LINE
8
Layer 1
10
-15.925000
20
86.500000
11
-16.116000
21
86.462000
0
LINE
8
Layer 1
10
-16.116000
20
86.462000
11
-16.279000
21
86.354000
0
LINE
8
Layer 1
10
-16.279000
20
86.354000
11
-16.384000
21
86.195500
0
LINE
8
Layer 1
10
-16.384000
20
86.195500
11
-16.387000
21
86.191000
0
LINE
8
Layer 1
10
-16.387000
20
86.191000
11
-16.425000
21
86.000000
0
LINE
8
Layer 1
10
-16.425000
20
86.000000
11
-16.425000
21
84.232000
0
LINE
8
Layer 1
10
-16.425000
20
84.232000
11
-16.425000
21
73.000000
0
LINE
8
Layer 1
10
-16.425000
20
73.000000
11
-16.387000
21
72.809000
0
LINE
8
Layer 1
10
-16.387000
20
72.809000
11
-16.384000
21
72.804500
0
LINE
8
Layer 1
10
-16.384000
20
72.804500
11
-16.279000
21
72.646000
0
LINE
8
Layer 1
10
-16.279000
20
72.646000
11
-16.116000
21
72.538000
0
LINE
8
Layer 1
10
-16.116000
20
72.538000
11
-15.925000
21
72.500000
0
LINE
8
Layer 1
10
-15.925000
20
72.500000
11
-2.925000
21
72.500000
0
LINE
8
Layer 1
10
-2.925000
20
72.500000
11
-2.734000
21
72.538000
0
LINE
8
Layer 1
10
-2.734000
20
72.538000
11
-2.571000
21
72.646000
0
LINE
8
Layer 1
10
-2.571000
20
72.646000
11
-2.463000
21
72.809000
0
LINE
8
Layer 1
10
-2.463000
20
72.809000
11
-2.425000
21
73.000000
0
LINE
8
Layer 1
10
-2.425000
20
73.000000
11
-2.425000
21
84.232000
0
LINE
8
Layer 1
10
-2.425000
20
84.232000
11
-2.425000
21
86.000000
0
LINE
8
Layer 1
10
-2.425000
20
86.000000
11
-2.463000
21
86.191000
0
LINE
8
Layer 1
10
-2.463000
20
86.191000
11
-2.571000
21
86.354000
0
LINE
8
Layer 1
10
-2.571000
20
86.354000
11
-2.734000
21
86.462000
0
LINE
8
Layer 1
10
-2.734000
20
86.462000
11
-2.925000
21
86.500000
0
LINE
8
Layer 1
10
-2.925000
20
86.500000
11
-8.192000
21
86.500000
0
LINE
8
Layer 1
10
-24.576000
20
86.500000
11
-32.768000
21
86.500000
0
LINE
8
Layer 1
10
-32.768000
20
86.500000
11
-34.975000
21
86.500000
0
LINE
8
Layer 1
10
-34.975000
20
86.500000
11
-35.166000
21
86.462000
0
LINE
8
Layer 1
10
-35.166000
20
86.462000
11
-35.329000
21
86.354000
0
LINE
8
Layer 1
10
-35.329000
20
86.354000
11
-35.437000
21
86.191000
0
LINE
8
Layer 1
10
-35.437000
20
86.191000
11
-35.475000
21
86.000000
0
LINE
8
Layer 1
10
-35.475000
20
86.000000
11
-35.475000
21
84.232000
0
LINE
8
Layer 1
10
-35.475000
20
84.232000
11
-35.475000
21
73.000000
0
LINE
8
Layer 1
10
-35.475000
20
73.000000
11
-35.437000
21
72.809000
0
LINE
8
Layer 1
10
-35.437000
20
72.809000
11
-35.329000
21
72.646000
0
LINE
8
Layer 1
10
-35.329000
20
72.646000
11
-35.166000
21
72.538000
0
LINE
8
Layer 1
10
-35.166000
20
72.538000
11
-34.975000
21
72.500000
0
LINE
8
Layer 1
10
-34.975000
20
72.500000
11
-32.768000
21
72.500000
0
LINE
8
Layer 1
10
-32.768000
20
72.500000
11
-21.975000
21
72.500000
0
LINE
8
Layer 1
10
-21.975000
20
72.500000
11
-21.784000
21
72.538000
0
LINE
8
Layer 1
10
-21.784000
20
72.538000
11
-21.621000
21
72.646000
0
LINE
8
Layer 1
10
-21.621000
20
72.646000
11
-21.513000
21
72.809000
0
LINE
8
Layer 1
10
-21.513000
20
72.809000
11
-21.475000
21
73.000000
0
LINE
8
Layer 1
10
-21.475000
20
73.000000
11
-21.475000
21
84.232000
0
LINE
8
Layer 1
10
-21.475000
20
84.232000
11
-21.475000
21
86.000000
0
LINE
8
Layer 1
10
-21.475000
20
86.000000
11
-21.513000
21
86.191000
0
LINE
8
Layer 1
10
-21.513000
20
86.191000
11
-21.621000
21
86.354000
0
LINE
8
Layer 1
10
-21.621000
20
86.354000
11
-21.784000
21
86.462000
0
LINE
8
Layer 1
10
-21.784000
20
86.462000
11
-21.975000
21
86.500000
0
LINE
8
Layer 1
10
-21.975000
20
86.500000
11
-24.576000
21
86.500000
0
LINE
8
Layer 1
10
-46.574000
20
65.345000
11
-46.769000
21
64.555000
0
LINE
8
Layer 1
10
-46.769000
20
64.555000
11
-46.574000
21
63.765000
0
LINE
8
Layer 1
10
-46.574000
20
63.765000
11
-46.562500
21
63.752000
0
LINE
8
Layer 1
10
-46.562500
20
63.752000
11
-46.035000
21
63.156000
0
LINE
8
Layer 1
10
-46.035000
20
63.156000
11
-45.274000
21
62.867000
0
LINE
8
Layer 1
10
-45.274000
20
62.867000
11
-44.466000
21
62.966000
0
LINE
8
Layer 1
10
-44.466000
20
62.966000
11
-43.796000
21
63.428000
0
LINE
8
Layer 1
10
-43.796000
20
63.428000
11
-43.625900
21
63.752000
0
LINE
8
Layer 1
10
-43.625900
20
63.752000
11
-43.418000
21
64.148000
0
LINE
8
Layer 1
10
-43.418000
20
64.148000
11
-43.369000
21
64.555000
0
LINE
8
Layer 1
10
-43.369000
20
64.555000
11
-43.418000
21
64.962000
0
LINE
8
Layer 1
10
-43.418000
20
64.962000
11
-43.796000
21
65.682000
0
LINE
8
Layer 1
10
-43.796000
20
65.682000
11
-44.466000
21
66.145000
0
LINE
8
Layer 1
10
-44.466000
20
66.145000
11
-45.274000
21
66.243000
0
LINE
8
Layer 1
10
-45.274000
20
66.243000
11
-46.035000
21
65.954000
0
LINE
8
Layer 1
10
-46.035000
20
65.954000
11
-46.574000
21
65.345000
0
LINE
8
Layer 1
10
13.151000
20
154.496000
11
0.000000
21
154.496000
0
LINE
8
Layer 1
10
0.000000
20
154.496000
11
-12.849000
21
154.496000
0
LINE
8
Layer 1
10
-12.849000
20
154.496000
11
-12.849000
21
149.768000
0
LINE
8
Layer 1
10
-12.849000
20
149.768000
11
-12.849000
21
140.246000
0
LINE
8
Layer 1
10
-12.849000
20
140.246000
11
0.000000
21
140.246000
0
LINE
8
Layer 1
10
0.000000
20
140.246000
11
13.151000
21
140.246000
0
LINE
8
Layer 1
10
13.151000
20
140.246000
11
13.151000
21
148.700000
0
LINE
8
Layer 1
10
13.151000
20
148.700000
11
13.151000
21
149.768000
0
LINE
8
Layer 1
10
13.151000
20
149.768000
11
13.151000
21
154.496000
0
LINE
8
Layer 1
10
13.151000
20
154.496000
11
13.151000
21
154.496000
 0 
ENDSEC
 0 
EOF