<svg width="1392" height="420" viewBox="0 0 1392 420" fill="none" xmlns="http://www.w3.org/2000/svg">
<path d="M66 15H51V30V87H48H33V102V159H30H15V174V246V261H30H87V303H30H15V318V390V405H30H588H603V390V324.276L634.031 293.682L637.17 290.587L638.136 286.286L643.616 261.873L643.636 261.786L645.116 255.373L645.148 255.236L645.177 255.098L685.177 65.598L688.242 51.0767L673.754 47.8572L669.254 46.8572L669.179 46.8406L669.104 46.8248L591.104 30.3248L589.569 30H588H585V15H570H66Z" stroke="black" stroke-width="30"/>
<path d="M1326 15H1341V30V87H1344H1359V102V159H1369.75V174V246V261H1354.75H1298V303H1362H1377V318V390V405H1362H804H789V390V324.713L757.893 293.607L754.817 290.53L753.864 286.286L748.384 261.873L748.364 261.786L746.884 255.373L746.852 255.236L746.823 255.098L706.823 65.598L703.758 51.0767L718.246 47.8572L722.746 46.8572L722.821 46.8406L722.896 46.8248L800.896 30.3248L802.431 30H804H807V15H822H1326Z" stroke="black" stroke-width="30"/>
</svg>
