<svg width="314.325mm" height="95.25mm" viewBox="0 0 314.325 95.25" xmlns="http://www.w3.org/2000/svg"><g id="svgGroup" stroke-linecap="round" fill-rule="evenodd" font-size="9pt" stroke="#000" stroke-width="0.25mm" fill="none" style="stroke:#000;stroke-width:0.25mm;fill:none"><path d="M 0 95.25 L 314.325 95.25 L 314.325 0 L 0 0 L 0 95.25 Z M 7.788 21.575 L 20.788 21.575 A 0.5 0.5 0 0 1 21.288 22.075 L 21.288 35.075 A 0.5 0.5 0 0 1 20.788 35.575 L 7.788 35.575 A 0.5 0.5 0 0 1 7.288 35.075 L 7.288 22.075 A 0.5 0.5 0 0 1 7.788 21.575 Z M 26.838 21.575 L 39.838 21.575 A 0.5 0.5 0 0 1 40.338 22.075 L 40.338 35.075 A 0.5 0.5 0 0 1 39.838 35.575 L 26.838 35.575 A 0.5 0.5 0 0 1 26.338 35.075 L 26.338 22.075 A 0.5 0.5 0 0 1 26.838 21.575 Z M 45.888 21.575 L 58.888 21.575 A 0.5 0.5 0 0 1 59.388 22.075 L 59.388 35.075 A 0.5 0.5 0 0 1 58.888 35.575 L 45.888 35.575 A 0.5 0.5 0 0 1 45.388 35.075 L 45.388 22.075 A 0.5 0.5 0 0 1 45.888 21.575 Z M 64.938 21.575 L 77.938 21.575 A 0.5 0.5 0 0 1 78.438 22.075 L 78.438 35.075 A 0.5 0.5 0 0 1 77.938 35.575 L 64.938 35.575 A 0.5 0.5 0 0 1 64.438 35.075 L 64.438 22.075 A 0.5 0.5 0 0 1 64.938 21.575 Z M 83.988 21.575 L 96.988 21.575 A 0.5 0.5 0 0 1 97.488 22.075 L 97.488 35.075 A 0.5 0.5 0 0 1 96.988 35.575 L 83.988 35.575 A 0.5 0.5 0 0 1 83.488 35.075 L 83.488 22.075 A 0.5 0.5 0 0 1 83.988 21.575 Z M 103.038 21.575 L 116.038 21.575 A 0.5 0.5 0 0 1 116.538 22.075 L 116.538 35.075 A 0.5 0.5 0 0 1 116.038 35.575 L 103.038 35.575 A 0.5 0.5 0 0 1 102.538 35.075 L 102.538 22.075 A 0.5 0.5 0 0 1 103.038 21.575 Z M 122.088 21.575 L 135.088 21.575 A 0.5 0.5 0 0 1 135.588 22.075 L 135.588 35.075 A 0.5 0.5 0 0 1 135.088 35.575 L 122.088 35.575 A 0.5 0.5 0 0 1 121.588 35.075 L 121.588 22.075 A 0.5 0.5 0 0 1 122.088 21.575 Z M 179.238 21.575 L 192.238 21.575 A 0.5 0.5 0 0 1 192.738 22.075 L 192.738 35.075 A 0.5 0.5 0 0 1 192.238 35.575 L 179.238 35.575 A 0.5 0.5 0 0 1 178.738 35.075 L 178.738 22.075 A 0.5 0.5 0 0 1 179.238 21.575 Z M 198.288 21.575 L 211.288 21.575 A 0.5 0.5 0 0 1 211.788 22.075 L 211.788 35.075 A 0.5 0.5 0 0 1 211.288 35.575 L 198.288 35.575 A 0.5 0.5 0 0 1 197.788 35.075 L 197.788 22.075 A 0.5 0.5 0 0 1 198.288 21.575 Z M 217.338 21.575 L 230.338 21.575 A 0.5 0.5 0 0 1 230.838 22.075 L 230.838 35.075 A 0.5 0.5 0 0 1 230.338 35.575 L 217.338 35.575 A 0.5 0.5 0 0 1 216.838 35.075 L 216.838 22.075 A 0.5 0.5 0 0 1 217.338 21.575 Z M 236.388 21.575 L 249.388 21.575 A 0.5 0.5 0 0 1 249.888 22.075 L 249.888 35.075 A 0.5 0.5 0 0 1 249.388 35.575 L 236.388 35.575 A 0.5 0.5 0 0 1 235.888 35.075 L 235.888 22.075 A 0.5 0.5 0 0 1 236.388 21.575 Z M 255.438 21.575 L 268.438 21.575 A 0.5 0.5 0 0 1 268.938 22.075 L 268.938 35.075 A 0.5 0.5 0 0 1 268.438 35.575 L 255.438 35.575 A 0.5 0.5 0 0 1 254.938 35.075 L 254.938 22.075 A 0.5 0.5 0 0 1 255.438 21.575 Z M 274.488 21.575 L 287.488 21.575 A 0.5 0.5 0 0 1 287.988 22.075 L 287.988 35.075 A 0.5 0.5 0 0 1 287.488 35.575 L 274.488 35.575 A 0.5 0.5 0 0 1 273.988 35.075 L 273.988 22.075 A 0.5 0.5 0 0 1 274.488 21.575 Z M 293.538 21.575 L 306.538 21.575 A 0.5 0.5 0 0 1 307.038 22.075 L 307.038 35.075 A 0.5 0.5 0 0 1 306.538 35.575 L 293.538 35.575 A 0.5 0.5 0 0 1 293.038 35.075 L 293.038 22.075 A 0.5 0.5 0 0 1 293.538 21.575 Z M 22.075 40.625 L 35.075 40.625 A 0.5 0.5 0 0 1 35.575 41.125 L 35.575 54.125 A 0.5 0.5 0 0 1 35.075 54.625 L 22.075 54.625 A 0.5 0.5 0 0 1 21.575 54.125 L 21.575 41.125 A 0.5 0.5 0 0 1 22.075 40.625 Z M 41.125 40.625 L 54.125 40.625 A 0.5 0.5 0 0 1 54.625 41.125 L 54.625 54.125 A 0.5 0.5 0 0 1 54.125 54.625 L 41.125 54.625 A 0.5 0.5 0 0 1 40.625 54.125 L 40.625 41.125 A 0.5 0.5 0 0 1 41.125 40.625 Z M 60.175 40.625 L 73.175 40.625 A 0.5 0.5 0 0 1 73.675 41.125 L 73.675 54.125 A 0.5 0.5 0 0 1 73.175 54.625 L 60.175 54.625 A 0.5 0.5 0 0 1 59.675 54.125 L 59.675 41.125 A 0.5 0.5 0 0 1 60.175 40.625 Z M 79.225 40.625 L 92.225 40.625 A 0.5 0.5 0 0 1 92.725 41.125 L 92.725 54.125 A 0.5 0.5 0 0 1 92.225 54.625 L 79.225 54.625 A 0.5 0.5 0 0 1 78.725 54.125 L 78.725 41.125 A 0.5 0.5 0 0 1 79.225 40.625 Z M 98.275 40.625 L 111.275 40.625 A 0.5 0.5 0 0 1 111.775 41.125 L 111.775 54.125 A 0.5 0.5 0 0 1 111.275 54.625 L 98.275 54.625 A 0.5 0.5 0 0 1 97.775 54.125 L 97.775 41.125 A 0.5 0.5 0 0 1 98.275 40.625 Z M 182.095 40.625 L 195.095 40.625 A 0.5 0.5 0 0 1 195.595 41.125 L 195.595 54.125 A 0.5 0.5 0 0 1 195.095 54.625 L 182.095 54.625 A 0.5 0.5 0 0 1 181.595 54.125 L 181.595 41.125 A 0.5 0.5 0 0 1 182.095 40.625 Z M 201.145 40.625 L 214.145 40.625 A 0.5 0.5 0 0 1 214.645 41.125 L 214.645 54.125 A 0.5 0.5 0 0 1 214.145 54.625 L 201.145 54.625 A 0.5 0.5 0 0 1 200.645 54.125 L 200.645 41.125 A 0.5 0.5 0 0 1 201.145 40.625 Z M 220.195 40.625 L 233.195 40.625 A 0.5 0.5 0 0 1 233.695 41.125 L 233.695 54.125 A 0.5 0.5 0 0 1 233.195 54.625 L 220.195 54.625 A 0.5 0.5 0 0 1 219.695 54.125 L 219.695 41.125 A 0.5 0.5 0 0 1 220.195 40.625 Z M 239.245 40.625 L 252.245 40.625 A 0.5 0.5 0 0 1 252.745 41.125 L 252.745 54.125 A 0.5 0.5 0 0 1 252.245 54.625 L 239.245 54.625 A 0.5 0.5 0 0 1 238.745 54.125 L 238.745 41.125 A 0.5 0.5 0 0 1 239.245 40.625 Z M 258.295 40.625 L 271.295 40.625 A 0.5 0.5 0 0 1 271.795 41.125 L 271.795 54.125 A 0.5 0.5 0 0 1 271.295 54.625 L 258.295 54.625 A 0.5 0.5 0 0 1 257.795 54.125 L 257.795 41.125 A 0.5 0.5 0 0 1 258.295 40.625 Z M 277.345 40.625 L 290.345 40.625 A 0.5 0.5 0 0 1 290.845 41.125 L 290.845 54.125 A 0.5 0.5 0 0 1 290.345 54.625 L 277.345 54.625 A 0.5 0.5 0 0 1 276.845 54.125 L 276.845 41.125 A 0.5 0.5 0 0 1 277.345 40.625 Z M 296.395 40.625 L 309.395 40.625 A 0.5 0.5 0 0 1 309.895 41.125 L 309.895 54.125 A 0.5 0.5 0 0 1 309.395 54.625 L 296.395 54.625 A 0.5 0.5 0 0 1 295.895 54.125 L 295.895 41.125 A 0.5 0.5 0 0 1 296.395 40.625 Z M 17.313 59.675 L 30.313 59.675 A 0.5 0.5 0 0 1 30.813 60.175 L 30.813 73.175 A 0.5 0.5 0 0 1 30.313 73.675 L 17.313 73.675 A 0.5 0.5 0 0 1 16.813 73.175 L 16.813 60.175 A 0.5 0.5 0 0 1 17.313 59.675 Z M 50.65 59.675 L 63.65 59.675 A 0.5 0.5 0 0 1 64.15 60.175 L 64.15 73.175 A 0.5 0.5 0 0 1 63.65 73.675 L 50.65 73.675 A 0.5 0.5 0 0 1 50.15 73.175 L 50.15 60.175 A 0.5 0.5 0 0 1 50.65 59.675 Z M 69.7 59.675 L 82.7 59.675 A 0.5 0.5 0 0 1 83.2 60.175 L 83.2 73.175 A 0.5 0.5 0 0 1 82.7 73.675 L 69.7 73.675 A 0.5 0.5 0 0 1 69.2 73.175 L 69.2 60.175 A 0.5 0.5 0 0 1 69.7 59.675 Z M 88.75 59.675 L 101.75 59.675 A 0.5 0.5 0 0 1 102.25 60.175 L 102.25 73.175 A 0.5 0.5 0 0 1 101.75 73.675 L 88.75 73.675 A 0.5 0.5 0 0 1 88.25 73.175 L 88.25 60.175 A 0.5 0.5 0 0 1 88.75 59.675 Z M 107.8 59.675 L 120.8 59.675 A 0.5 0.5 0 0 1 121.3 60.175 L 121.3 73.175 A 0.5 0.5 0 0 1 120.8 73.675 L 107.8 73.675 A 0.5 0.5 0 0 1 107.3 73.175 L 107.3 60.175 A 0.5 0.5 0 0 1 107.8 59.675 Z M 126.85 59.675 L 139.85 59.675 A 0.5 0.5 0 0 1 140.35 60.175 L 140.35 73.175 A 0.5 0.5 0 0 1 139.85 73.675 L 126.85 73.675 A 0.5 0.5 0 0 1 126.35 73.175 L 126.35 60.175 A 0.5 0.5 0 0 1 126.85 59.675 Z M 174.475 59.675 L 187.475 59.675 A 0.5 0.5 0 0 1 187.975 60.175 L 187.975 73.175 A 0.5 0.5 0 0 1 187.475 73.675 L 174.475 73.675 A 0.5 0.5 0 0 1 173.975 73.175 L 173.975 60.175 A 0.5 0.5 0 0 1 174.475 59.675 Z M 193.525 59.675 L 206.525 59.675 A 0.5 0.5 0 0 1 207.025 60.175 L 207.025 73.175 A 0.5 0.5 0 0 1 206.525 73.675 L 193.525 73.675 A 0.5 0.5 0 0 1 193.025 73.175 L 193.025 60.175 A 0.5 0.5 0 0 1 193.525 59.675 Z M 212.575 59.675 L 225.575 59.675 A 0.5 0.5 0 0 1 226.075 60.175 L 226.075 73.175 A 0.5 0.5 0 0 1 225.575 73.675 L 212.575 73.675 A 0.5 0.5 0 0 1 212.075 73.175 L 212.075 60.175 A 0.5 0.5 0 0 1 212.575 59.675 Z M 231.625 59.675 L 244.625 59.675 A 0.5 0.5 0 0 1 245.125 60.175 L 245.125 73.175 A 0.5 0.5 0 0 1 244.625 73.675 L 231.625 73.675 A 0.5 0.5 0 0 1 231.125 73.175 L 231.125 60.175 A 0.5 0.5 0 0 1 231.625 59.675 Z M 250.675 59.675 L 263.675 59.675 A 0.5 0.5 0 0 1 264.175 60.175 L 264.175 73.175 A 0.5 0.5 0 0 1 263.675 73.675 L 250.675 73.675 A 0.5 0.5 0 0 1 250.175 73.175 L 250.175 60.175 A 0.5 0.5 0 0 1 250.675 59.675 Z M 284.013 59.675 L 297.013 59.675 A 0.5 0.5 0 0 1 297.513 60.175 L 297.513 73.175 A 0.5 0.5 0 0 1 297.013 73.675 L 284.013 73.675 A 0.5 0.5 0 0 1 283.513 73.175 L 283.513 60.175 A 0.5 0.5 0 0 1 284.013 59.675 Z M 14.931 78.725 L 27.931 78.725 A 0.5 0.5 0 0 1 28.431 79.225 L 28.431 92.225 A 0.5 0.5 0 0 1 27.931 92.725 L 14.931 92.725 A 0.5 0.5 0 0 1 14.431 92.225 L 14.431 79.225 A 0.5 0.5 0 0 1 14.931 78.725 Z M 50.65 78.725 L 63.65 78.725 A 0.5 0.5 0 0 1 64.15 79.225 L 64.15 92.225 A 0.5 0.5 0 0 1 63.65 92.725 L 50.65 92.725 A 0.5 0.5 0 0 1 50.15 92.225 L 50.15 79.225 A 0.5 0.5 0 0 1 50.65 78.725 Z M 76.844 78.725 L 89.844 78.725 A 0.5 0.5 0 0 1 90.344 79.225 L 90.344 92.225 A 0.5 0.5 0 0 1 89.844 92.725 L 76.844 92.725 A 0.5 0.5 0 0 1 76.344 92.225 L 76.344 79.225 A 0.5 0.5 0 0 1 76.844 78.725 Z M 114.944 78.725 L 127.944 78.725 A 0.5 0.5 0 0 1 128.444 79.225 L 128.444 92.225 A 0.5 0.5 0 0 1 127.944 92.725 L 114.944 92.725 A 0.5 0.5 0 0 1 114.444 92.225 L 114.444 79.225 A 0.5 0.5 0 0 1 114.944 78.725 Z M 186.381 78.725 L 199.381 78.725 A 0.5 0.5 0 0 1 199.881 79.225 L 199.881 92.225 A 0.5 0.5 0 0 1 199.381 92.725 L 186.381 92.725 A 0.5 0.5 0 0 1 185.881 92.225 L 185.881 79.225 A 0.5 0.5 0 0 1 186.381 78.725 Z M 224.481 78.725 L 237.481 78.725 A 0.5 0.5 0 0 1 237.981 79.225 L 237.981 92.225 A 0.5 0.5 0 0 1 237.481 92.725 L 224.481 92.725 A 0.5 0.5 0 0 1 223.981 92.225 L 223.981 79.225 A 0.5 0.5 0 0 1 224.481 78.725 Z M 250.675 78.725 L 263.675 78.725 A 0.5 0.5 0 0 1 264.175 79.225 L 264.175 92.225 A 0.5 0.5 0 0 1 263.675 92.725 L 250.675 92.725 A 0.5 0.5 0 0 1 250.175 92.225 L 250.175 79.225 A 0.5 0.5 0 0 1 250.675 78.725 Z M 286.394 78.725 L 299.394 78.725 A 0.5 0.5 0 0 1 299.894 79.225 L 299.894 92.225 A 0.5 0.5 0 0 1 299.394 92.725 L 286.394 92.725 A 0.5 0.5 0 0 1 285.894 92.225 L 285.894 79.225 A 0.5 0.5 0 0 1 286.394 78.725 Z M 12.55 2.525 L 25.55 2.525 A 0.5 0.5 0 0 1 26.05 3.025 L 26.05 16.025 A 0.5 0.5 0 0 1 25.55 16.525 L 12.55 16.525 A 0.5 0.5 0 0 1 12.05 16.025 L 12.05 3.025 A 0.5 0.5 0 0 1 12.55 2.525 Z M 31.6 2.525 L 44.6 2.525 A 0.5 0.5 0 0 1 45.1 3.025 L 45.1 16.025 A 0.5 0.5 0 0 1 44.6 16.525 L 31.6 16.525 A 0.5 0.5 0 0 1 31.1 16.025 L 31.1 3.025 A 0.5 0.5 0 0 1 31.6 2.525 Z M 50.65 2.525 L 63.65 2.525 A 0.5 0.5 0 0 1 64.15 3.025 L 64.15 16.025 A 0.5 0.5 0 0 1 63.65 16.525 L 50.65 16.525 A 0.5 0.5 0 0 1 50.15 16.025 L 50.15 3.025 A 0.5 0.5 0 0 1 50.65 2.525 Z M 69.7 2.525 L 82.7 2.525 A 0.5 0.5 0 0 1 83.2 3.025 L 83.2 16.025 A 0.5 0.5 0 0 1 82.7 16.525 L 69.7 16.525 A 0.5 0.5 0 0 1 69.2 16.025 L 69.2 3.025 A 0.5 0.5 0 0 1 69.7 2.525 Z M 88.75 2.525 L 101.75 2.525 A 0.5 0.5 0 0 1 102.25 3.025 L 102.25 16.025 A 0.5 0.5 0 0 1 101.75 16.525 L 88.75 16.525 A 0.5 0.5 0 0 1 88.25 16.025 L 88.25 3.025 A 0.5 0.5 0 0 1 88.75 2.525 Z M 107.8 2.525 L 120.8 2.525 A 0.5 0.5 0 0 1 121.3 3.025 L 121.3 16.025 A 0.5 0.5 0 0 1 120.8 16.525 L 107.8 16.525 A 0.5 0.5 0 0 1 107.3 16.025 L 107.3 3.025 A 0.5 0.5 0 0 1 107.8 2.525 Z M 126.85 2.525 L 139.85 2.525 A 0.5 0.5 0 0 1 140.35 3.025 L 140.35 16.025 A 0.5 0.5 0 0 1 139.85 16.525 L 126.85 16.525 A 0.5 0.5 0 0 1 126.35 16.025 L 126.35 3.025 A 0.5 0.5 0 0 1 126.85 2.525 Z M 174.475 2.525 L 187.475 2.525 A 0.5 0.5 0 0 1 187.975 3.025 L 187.975 16.025 A 0.5 0.5 0 0 1 187.475 16.525 L 174.475 16.525 A 0.5 0.5 0 0 1 173.975 16.025 L 173.975 3.025 A 0.5 0.5 0 0 1 174.475 2.525 Z M 193.525 2.525 L 206.525 2.525 A 0.5 0.5 0 0 1 207.025 3.025 L 207.025 16.025 A 0.5 0.5 0 0 1 206.525 16.525 L 193.525 16.525 A 0.5 0.5 0 0 1 193.025 16.025 L 193.025 3.025 A 0.5 0.5 0 0 1 193.525 2.525 Z M 212.575 2.525 L 225.575 2.525 A 0.5 0.5 0 0 1 226.075 3.025 L 226.075 16.025 A 0.5 0.5 0 0 1 225.575 16.525 L 212.575 16.525 A 0.5 0.5 0 0 1 212.075 16.025 L 212.075 3.025 A 0.5 0.5 0 0 1 212.575 2.525 Z M 231.625 2.525 L 244.625 2.525 A 0.5 0.5 0 0 1 245.125 3.025 L 245.125 16.025 A 0.5 0.5 0 0 1 244.625 16.525 L 231.625 16.525 A 0.5 0.5 0 0 1 231.125 16.025 L 231.125 3.025 A 0.5 0.5 0 0 1 231.625 2.525 Z M 250.675 2.525 L 263.675 2.525 A 0.5 0.5 0 0 1 264.175 3.025 L 264.175 16.025 A 0.5 0.5 0 0 1 263.675 16.525 L 250.675 16.525 A 0.5 0.5 0 0 1 250.175 16.025 L 250.175 3.025 A 0.5 0.5 0 0 1 250.675 2.525 Z M 279.25 2.525 L 292.25 2.525 A 0.5 0.5 0 0 1 292.75 3.025 L 292.75 16.025 A 0.5 0.5 0 0 1 292.25 16.525 L 279.25 16.525 A 0.5 0.5 0 0 1 278.75 16.025 L 278.75 3.025 A 0.5 0.5 0 0 1 279.25 2.525 Z M 3.025 40.625 L 16.025 40.625 A 0.5 0.5 0 0 1 16.525 41.125 L 16.525 54.125 A 0.5 0.5 0 0 1 16.025 54.625 L 3.025 54.625 A 0.5 0.5 0 0 1 2.525 54.125 L 2.525 41.125 A 0.5 0.5 0 0 1 3.025 40.625 Z M 117.325 40.625 L 130.325 40.625 A 0.5 0.5 0 0 1 130.825 41.125 L 130.825 54.125 A 0.5 0.5 0 0 1 130.325 54.625 L 117.325 54.625 A 0.5 0.5 0 0 1 116.825 54.125 L 116.825 41.125 A 0.5 0.5 0 0 1 117.325 40.625 Z M 6.493 79.725 L 12.493 79.725 A 0.5 0.5 0 0 1 12.993 80.225 L 12.993 94.225 A 0.5 0.5 0 0 1 12.493 94.725 L 6.493 94.725 A 0.5 0.5 0 0 1 5.993 94.225 L 5.993 80.225 A 0.5 0.5 0 0 1 6.493 79.725 Z M 30.369 79.725 L 36.369 79.725 A 0.5 0.5 0 0 1 36.869 80.225 L 36.869 94.225 A 0.5 0.5 0 0 1 36.369 94.725 L 30.369 94.725 A 0.5 0.5 0 0 1 29.869 94.225 L 29.869 80.225 A 0.5 0.5 0 0 1 30.369 79.725 Z M 106.506 79.725 L 112.506 79.725 A 0.5 0.5 0 0 1 113.006 80.225 L 113.006 94.225 A 0.5 0.5 0 0 1 112.506 94.725 L 106.506 94.725 A 0.5 0.5 0 0 1 106.006 94.225 L 106.006 80.225 A 0.5 0.5 0 0 1 106.506 79.725 Z M 130.382 79.725 L 136.382 79.725 A 0.5 0.5 0 0 1 136.882 80.225 L 136.882 94.225 A 0.5 0.5 0 0 1 136.382 94.725 L 130.382 94.725 A 0.5 0.5 0 0 1 129.882 94.225 L 129.882 80.225 A 0.5 0.5 0 0 1 130.382 79.725 Z M 177.943 79.725 L 183.943 79.725 A 0.5 0.5 0 0 1 184.443 80.225 L 184.443 94.225 A 0.5 0.5 0 0 1 183.943 94.725 L 177.943 94.725 A 0.5 0.5 0 0 1 177.443 94.225 L 177.443 80.225 A 0.5 0.5 0 0 1 177.943 79.725 Z M 201.819 79.725 L 207.819 79.725 A 0.5 0.5 0 0 1 208.319 80.225 L 208.319 94.225 A 0.5 0.5 0 0 1 207.819 94.725 L 201.819 94.725 A 0.5 0.5 0 0 1 201.319 94.225 L 201.319 80.225 A 0.5 0.5 0 0 1 201.819 79.725 Z M 277.956 79.725 L 283.956 79.725 A 0.5 0.5 0 0 1 284.456 80.225 L 284.456 94.225 A 0.5 0.5 0 0 1 283.956 94.725 L 277.956 94.725 A 0.5 0.5 0 0 1 277.456 94.225 L 277.456 80.225 A 0.5 0.5 0 0 1 277.956 79.725 Z M 301.832 79.725 L 307.832 79.725 A 0.5 0.5 0 0 1 308.332 80.225 L 308.332 94.225 A 0.5 0.5 0 0 1 307.832 94.725 L 301.832 94.725 A 0.5 0.5 0 0 1 301.332 94.225 L 301.332 80.225 A 0.5 0.5 0 0 1 301.832 79.725 Z M 270.812 3.525 L 276.812 3.525 A 0.5 0.5 0 0 1 277.312 4.025 L 277.312 18.025 A 0.5 0.5 0 0 1 276.812 18.525 L 270.812 18.525 A 0.5 0.5 0 0 1 270.312 18.025 L 270.312 4.025 A 0.5 0.5 0 0 1 270.812 3.525 Z M 294.688 3.525 L 300.688 3.525 A 0.5 0.5 0 0 1 301.188 4.025 L 301.188 18.025 A 0.5 0.5 0 0 1 300.688 18.525 L 294.688 18.525 A 0.5 0.5 0 0 1 294.188 18.025 L 294.188 4.025 A 0.5 0.5 0 0 1 294.688 3.525 Z" vector-effect="non-scaling-stroke"/></g></svg>