0
SECTION
2
HEADER
9
$INSUNITS
70
4
0
ENDSEC
0
SECTION
2
TABLES
0
TABLE
2
LTYPE
0
LTYPE
72
65
70
64
2
CONTINUOUS
3
______
73
0
40
0
0
ENDTAB
0
TABLE
2
LAYER
0
ENDTAB
0
ENDSEC
0
SECTION
2
ENTITIES
0
LINE
8
0
10
-10.4033964
20
-5.5981554
11
6.2105278
21
-10.049843
0
LINE
8
0
10
6.2105278
20
-10.049843
11
10.4033964
21
5.5981554
0
LINE
8
0
10
10.4033964
20
5.5981554
11
-6.2105278
21
10.049843
0
LINE
8
0
10
-6.2105278
20
10.049843
11
-10.4033964
21
-5.5981554
0
LINE
8
0
10
-5.4858345
20
12.7544353
11
11.1280897
21
8.3027477
0
LINE
8
0
10
11.1280897
20
8.3027477
11
15.3209583
21
23.9507461
0
LINE
8
0
10
15.3209583
20
23.9507461
11
-1.2929659
21
28.4024337
0
LINE
8
0
10
-1.2929659
20
28.4024337
11
-5.4858345
21
12.7544353
0
LINE
8
0
10
-0.5682726
20
31.1070261
11
16.0456516
21
26.6553385
0
LINE
8
0
10
16.0456516
20
26.6553385
11
20.2385202
21
42.3033369
0
LINE
8
0
10
20.2385202
20
42.3033369
11
3.624596
21
46.7550245
0
LINE
8
0
10
3.624596
20
46.7550245
11
-0.5682726
21
31.1070261
0
LINE
8
0
10
4.3492892
20
49.4596168
11
20.9632134
21
45.0079292
0
LINE
8
0
10
20.9632134
20
45.0079292
11
25.156082
21
60.6559276
0
LINE
8
0
10
25.156082
20
60.6559276
11
8.5421578
21
65.1076152
0
LINE
8
0
10
8.5421578
20
65.1076152
11
4.3492892
21
49.4596168
0
LINE
8
0
10
8.4312656
20
-9.1463407
11
24.7894377
21
-14.461433
0
LINE
8
0
10
24.7894377
20
-14.461433
11
29.795513
21
0.9456825
0
LINE
8
0
10
29.795513
20
0.9456825
11
13.4373409
21
6.2607748
0
LINE
8
0
10
13.4373409
20
6.2607748
11
8.4312656
21
-9.1463407
0
LINE
8
0
10
14.3025885
20
8.923733
11
30.6607606
21
3.6086407
0
LINE
8
0
10
30.6607606
20
3.6086407
11
35.6668359
21
19.0157562
0
LINE
8
0
10
35.6668359
20
19.0157562
11
19.3086638
21
24.3308485
0
LINE
8
0
10
19.3086638
20
24.3308485
11
14.3025885
21
8.923733
0
LINE
8
0
10
20.1739114
20
26.9938068
11
36.5320835
21
21.6787145
0
LINE
8
0
10
36.5320835
20
21.6787145
11
41.5381588
21
37.08583
0
LINE
8
0
10
41.5381588
20
37.08583
11
25.1799867
21
42.4009223
0
LINE
8
0
10
25.1799867
20
42.4009223
11
20.1739114
21
26.9938068
0
LINE
8
0
10
26.0452343
20
45.0638806
11
42.4034064
21
39.7487883
0
LINE
8
0
10
42.4034064
20
39.7487883
11
47.4094817
21
55.1559038
0
LINE
8
0
10
47.4094817
20
55.1559038
11
31.0513096
21
60.4709961
0
LINE
8
0
10
31.0513096
20
60.4709961
11
26.0452343
21
45.0638806
0
LINE
8
0
10
30.5394684
20
-3.0862729
11
46.4870307
21
-9.5295063
0
LINE
8
0
10
46.4870307
20
-9.5295063
11
52.5556576
21
5.4908721
0
LINE
8
0
10
52.5556576
20
5.4908721
11
36.6080953
21
11.9341055
0
LINE
8
0
10
36.6080953
20
11.9341055
11
30.5394684
21
-3.0862729
0
LINE
8
0
10
37.6569936
20
14.5302203
11
53.6045559
21
8.0869869
0
LINE
8
0
10
53.6045559
20
8.0869869
11
59.6731828
21
23.1073653
0
LINE
8
0
10
59.6731828
20
23.1073653
11
43.7256205
21
29.5505987
0
LINE
8
0
10
43.7256205
20
29.5505987
11
37.6569936
21
14.5302203
0
LINE
8
0
10
44.7745189
20
32.1467136
11
60.7220812
21
25.7034802
0
LINE
8
0
10
60.7220812
20
25.7034802
11
66.7907081
21
40.7238586
0
LINE
8
0
10
66.7907081
20
40.7238586
11
50.8431458
21
47.167092
0
LINE
8
0
10
50.8431458
20
47.167092
11
44.7745189
21
32.1467136
0
LINE
8
0
10
51.8920441
20
49.7632068
11
67.8396064
21
43.3199734
0
LINE
8
0
10
67.8396064
20
43.3199734
11
73.9082333
21
58.3403518
0
LINE
8
0
10
73.9082333
20
58.3403518
11
57.960671
21
64.7835852
0
LINE
8
0
10
57.960671
20
64.7835852
11
51.8920441
21
49.7632068
0
LINE
8
0
10
49.2797814
20
-7.4222467
11
65.2273437
21
-13.8654801
0
LINE
8
0
10
65.2273437
20
-13.8654801
11
71.2959706
21
1.1548983
0
LINE
8
0
10
71.2959706
20
1.1548983
11
55.3484083
21
7.5981317
0
LINE
8
0
10
55.3484083
20
7.5981317
11
49.2797814
21
-7.4222467
0
LINE
8
0
10
56.3973066
20
10.1942466
11
72.3448689
21
3.7510132
0
LINE
8
0
10
72.3448689
20
3.7510132
11
78.4134958
21
18.7713916
0
LINE
8
0
10
78.4134958
20
18.7713916
11
62.4659335
21
25.214625
0
LINE
8
0
10
62.4659335
20
25.214625
11
56.3973066
21
10.1942466
0
LINE
8
0
10
63.5148319
20
27.8107398
11
79.4623942
21
21.3675064
0
LINE
8
0
10
79.4623942
20
21.3675064
11
85.5310211
21
36.3878848
0
LINE
8
0
10
85.5310211
20
36.3878848
11
69.5834588
21
42.8311182
0
LINE
8
0
10
69.5834588
20
42.8311182
11
63.5148319
21
27.8107398
0
LINE
8
0
10
70.6323571
20
45.427233
11
86.5799194
21
38.9839996
0
LINE
8
0
10
86.5799194
20
38.9839996
11
92.6485463
21
54.004378
0
LINE
8
0
10
92.6485463
20
54.004378
11
76.700984
21
60.4476114
0
LINE
8
0
10
76.700984
20
60.4476114
11
70.6323571
21
45.427233
0
LINE
8
0
10
65.7724548
20
-17.3213236
11
81.7200171
21
-23.764557
0
LINE
8
0
10
81.7200171
20
-23.764557
11
87.788644
21
-8.7441786
0
LINE
8
0
10
87.788644
20
-8.7441786
11
71.8410817
21
-2.3009452
0
LINE
8
0
10
71.8410817
20
-2.3009452
11
65.7724548
21
-17.3213236
0
LINE
8
0
10
72.8899801
20
0.2951697
11
88.8375424
21
-6.1480637
0
LINE
8
0
10
88.8375424
20
-6.1480637
11
94.9061693
21
8.8723147
0
LINE
8
0
10
94.9061693
20
8.8723147
11
78.958607
21
15.3155481
0
LINE
8
0
10
78.958607
20
15.3155481
11
72.8899801
21
0.2951697
0
LINE
8
0
10
80.0075053
20
17.9116629
11
95.9550676
21
11.4684295
0
LINE
8
0
10
95.9550676
20
11.4684295
11
102.0236945
21
26.4888079
0
LINE
8
0
10
102.0236945
20
26.4888079
11
86.0761322
21
32.9320413
0
LINE
8
0
10
86.0761322
20
32.9320413
11
80.0075053
21
17.9116629
0
LINE
8
0
10
87.1250305
20
35.5281561
11
103.0725928
21
29.0849227
0
LINE
8
0
10
103.0725928
20
29.0849227
11
109.1412197
21
44.1053011
0
LINE
8
0
10
109.1412197
20
44.1053011
11
93.1936574
21
50.5485345
0
LINE
8
0
10
93.1936574
20
50.5485345
11
87.1250305
21
35.5281561
0
LINE
8
0
10
82.2651283
20
-27.2204004
11
98.2126906
21
-33.6636338
0
LINE
8
0
10
98.2126906
20
-33.6636338
11
104.2813175
21
-18.6432554
0
LINE
8
0
10
104.2813175
20
-18.6432554
11
88.3337552
21
-12.200022
0
LINE
8
0
10
88.3337552
20
-12.200022
11
82.2651283
21
-27.2204004
0
LINE
8
0
10
89.3826535
20
-9.6039072
11
105.3302158
21
-16.0471406
0
LINE
8
0
10
105.3302158
20
-16.0471406
11
111.3988427
21
-1.0267622
0
LINE
8
0
10
111.3988427
20
-1.0267622
11
95.4512804
21
5.4164712
0
LINE
8
0
10
95.4512804
20
5.4164712
11
89.3826535
21
-9.6039072
0
LINE
8
0
10
96.5001787
20
8.0125861
11
112.447741
21
1.5693527
0
LINE
8
0
10
112.447741
20
1.5693527
11
118.5163679
21
16.5897311
0
LINE
8
0
10
118.5163679
20
16.5897311
11
102.5688056
21
23.0329645
0
LINE
8
0
10
102.5688056
20
23.0329645
11
96.5001787
21
8.0125861
0
LINE
8
0
10
103.617704
20
25.6290793
11
119.5652663
21
19.1858459
0
LINE
8
0
10
119.5652663
20
19.1858459
11
125.6338932
21
34.2062243
0
LINE
8
0
10
125.6338932
20
34.2062243
11
109.6863309
21
40.6494577
0
LINE
8
0
10
109.6863309
20
40.6494577
11
103.617704
21
25.6290793
0
LINE
8
0
10
41.5320873
20
-38.0449371
11
57.6948004
21
-43.9276836
0
LINE
8
0
10
57.6948004
20
-43.9276836
11
63.2355267
21
-28.7046631
0
LINE
8
0
10
63.2355267
20
-28.7046631
11
47.0728136
21
-22.8219166
0
LINE
8
0
10
47.0728136
20
-22.8219166
11
41.5320873
21
-38.0449371
0
LINE
8
0
10
60.5954261
20
-47.8876234
11
77.3545912
21
-51.7567815
0
LINE
8
0
10
77.3545912
20
-51.7567815
11
80.9987983
21
-35.9719864
0
LINE
8
0
10
80.9987983
20
-35.9719864
11
64.2396332
21
-32.1028283
0
LINE
8
0
10
64.2396332
20
-32.1028283
11
60.5954261
21
-47.8876234
0
LINE
8
0
10
307.5015424
20
-10.049843
11
324.1154666
21
-5.5981554
0
LINE
8
0
10
324.1154666
20
-5.5981554
11
319.922598
21
10.049843
0
LINE
8
0
10
319.922598
20
10.049843
11
303.3086738
21
5.5981554
0
LINE
8
0
10
303.3086738
20
5.5981554
11
307.5015424
21
-10.049843
0
LINE
8
0
10
302.5839805
20
8.3027477
11
319.1979047
21
12.7544353
0
LINE
8
0
10
319.1979047
20
12.7544353
11
315.0050361
21
28.4024337
0
LINE
8
0
10
315.0050361
20
28.4024337
11
298.3911119
21
23.9507461
0
LINE
8
0
10
298.3911119
20
23.9507461
11
302.5839805
21
8.3027477
0
LINE
8
0
10
297.6664186
20
26.6553385
11
314.2803428
21
31.1070261
0
LINE
8
0
10
314.2803428
20
31.1070261
11
310.0874742
21
46.7550245
0
LINE
8
0
10
310.0874742
20
46.7550245
11
293.47355
21
42.3033369
0
LINE
8
0
10
293.47355
20
42.3033369
11
297.6664186
21
26.6553385
0
LINE
8
0
10
292.7488568
20
45.0079292
11
309.362781
21
49.4596168
0
LINE
8
0
10
309.362781
20
49.4596168
11
305.1699124
21
65.1076152
0
LINE
8
0
10
305.1699124
20
65.1076152
11
288.5559882
21
60.6559276
0
LINE
8
0
10
288.5559882
20
60.6559276
11
292.7488568
21
45.0079292
0
LINE
8
0
10
288.9226325
20
-14.461433
11
305.2808046
21
-9.1463407
0
LINE
8
0
10
305.2808046
20
-9.1463407
11
300.2747293
21
6.2607748
0
LINE
8
0
10
300.2747293
20
6.2607748
11
283.9165572
21
0.9456825
0
LINE
8
0
10
283.9165572
20
0.9456825
11
288.9226325
21
-14.461433
0
LINE
8
0
10
283.0513096
20
3.6086407
11
299.4094817
21
8.923733
0
LINE
8
0
10
299.4094817
20
8.923733
11
294.4034064
21
24.3308485
0
LINE
8
0
10
294.4034064
20
24.3308485
11
278.0452343
21
19.0157562
0
LINE
8
0
10
278.0452343
20
19.0157562
11
283.0513096
21
3.6086407
0
LINE
8
0
10
277.1799867
20
21.6787145
11
293.5381588
21
26.9938068
0
LINE
8
0
10
293.5381588
20
26.9938068
11
288.5320835
21
42.4009223
0
LINE
8
0
10
288.5320835
20
42.4009223
11
272.1739114
21
37.08583
0
LINE
8
0
10
272.1739114
20
37.08583
11
277.1799867
21
21.6787145
0
LINE
8
0
10
271.3086638
20
39.7487883
11
287.6668359
21
45.0638806
0
LINE
8
0
10
287.6668359
20
45.0638806
11
282.6607606
21
60.4709961
0
LINE
8
0
10
282.6607606
20
60.4709961
11
266.3025885
21
55.1559038
0
LINE
8
0
10
266.3025885
20
55.1559038
11
271.3086638
21
39.7487883
0
LINE
8
0
10
267.2250395
20
-9.5295063
11
283.1726018
21
-3.0862729
0
LINE
8
0
10
283.1726018
20
-3.0862729
11
277.1039749
21
11.9341055
0
LINE
8
0
10
277.1039749
20
11.9341055
11
261.1564126
21
5.4908721
0
LINE
8
0
10
261.1564126
20
5.4908721
11
267.2250395
21
-9.5295063
0
LINE
8
0
10
260.1075143
20
8.0869869
11
276.0550766
21
14.5302203
0
LINE
8
0
10
276.0550766
20
14.5302203
11
269.9864497
21
29.5505987
0
LINE
8
0
10
269.9864497
20
29.5505987
11
254.0388874
21
23.1073653
0
LINE
8
0
10
254.0388874
20
23.1073653
11
260.1075143
21
8.0869869
0
LINE
8
0
10
252.989989
20
25.7034802
11
268.9375513
21
32.1467136
0
LINE
8
0
10
268.9375513
20
32.1467136
11
262.8689244
21
47.167092
0
LINE
8
0
10
262.8689244
20
47.167092
11
246.9213621
21
40.7238586
0
LINE
8
0
10
246.9213621
20
40.7238586
11
252.989989
21
25.7034802
0
LINE
8
0
10
245.8724638
20
43.3199734
11
261.8200261
21
49.7632068
0
LINE
8
0
10
261.8200261
20
49.7632068
11
255.7513992
21
64.7835852
0
LINE
8
0
10
255.7513992
20
64.7835852
11
239.8038369
21
58.3403518
0
LINE
8
0
10
239.8038369
20
58.3403518
11
245.8724638
21
43.3199734
0
LINE
8
0
10
248.4847265
20
-13.8654801
11
264.4322888
21
-7.4222467
0
LINE
8
0
10
264.4322888
20
-7.4222467
11
258.3636619
21
7.5981317
0
LINE
8
0
10
258.3636619
20
7.5981317
11
242.4160996
21
1.1548983
0
LINE
8
0
10
242.4160996
20
1.1548983
11
248.4847265
21
-13.8654801
0
LINE
8
0
10
241.3672013
20
3.7510132
11
257.3147636
21
10.1942466
0
LINE
8
0
10
257.3147636
20
10.1942466
11
251.2461367
21
25.214625
0
LINE
8
0
10
251.2461367
20
25.214625
11
235.2985744
21
18.7713916
0
LINE
8
0
10
235.2985744
20
18.7713916
11
241.3672013
21
3.7510132
0
LINE
8
0
10
234.249676
20
21.3675064
11
250.1972383
21
27.8107398
0
LINE
8
0
10
250.1972383
20
27.8107398
11
244.1286114
21
42.8311182
0
LINE
8
0
10
244.1286114
20
42.8311182
11
228.1810491
21
36.3878848
0
LINE
8
0
10
228.1810491
20
36.3878848
11
234.249676
21
21.3675064
0
LINE
8
0
10
227.1321508
20
38.9839996
11
243.0797131
21
45.427233
0
LINE
8
0
10
243.0797131
20
45.427233
11
237.0110862
21
60.4476114
0
LINE
8
0
10
237.0110862
20
60.4476114
11
221.0635239
21
54.004378
0
LINE
8
0
10
221.0635239
20
54.004378
11
227.1321508
21
38.9839996
0
LINE
8
0
10
231.9920531
20
-23.764557
11
247.9396154
21
-17.3213236
0
LINE
8
0
10
247.9396154
20
-17.3213236
11
241.8709885
21
-2.3009452
0
LINE
8
0
10
241.8709885
20
-2.3009452
11
225.9234262
21
-8.7441786
0
LINE
8
0
10
225.9234262
20
-8.7441786
11
231.9920531
21
-23.764557
0
LINE
8
0
10
224.8745278
20
-6.1480637
11
240.8220901
21
0.2951697
0
LINE
8
0
10
240.8220901
20
0.2951697
11
234.7534632
21
15.3155481
0
LINE
8
0
10
234.7534632
20
15.3155481
11
218.8059009
21
8.8723147
0
LINE
8
0
10
218.8059009
20
8.8723147
11
224.8745278
21
-6.1480637
0
LINE
8
0
10
217.7570026
20
11.4684295
11
233.7045649
21
17.9116629
0
LINE
8
0
10
233.7045649
20
17.9116629
11
227.635938
21
32.9320413
0
LINE
8
0
10
227.635938
20
32.9320413
11
211.6883757
21
26.4888079
0
LINE
8
0
10
211.6883757
20
26.4888079
11
217.7570026
21
11.4684295
0
LINE
8
0
10
210.6394774
20
29.0849227
11
226.5870397
21
35.5281561
0
LINE
8
0
10
226.5870397
20
35.5281561
11
220.5184128
21
50.5485345
0
LINE
8
0
10
220.5184128
20
50.5485345
11
204.5708505
21
44.1053011
0
LINE
8
0
10
204.5708505
20
44.1053011
11
210.6394774
21
29.0849227
0
LINE
8
0
10
215.4993796
20
-33.6636338
11
231.4469419
21
-27.2204004
0
LINE
8
0
10
231.4469419
20
-27.2204004
11
225.378315
21
-12.200022
0
LINE
8
0
10
225.378315
20
-12.200022
11
209.4307527
21
-18.6432554
0
LINE
8
0
10
209.4307527
20
-18.6432554
11
215.4993796
21
-33.6636338
0
LINE
8
0
10
208.3818544
20
-16.0471406
11
224.3294167
21
-9.6039072
0
LINE
8
0
10
224.3294167
20
-9.6039072
11
218.2607898
21
5.4164712
0
LINE
8
0
10
218.2607898
20
5.4164712
11
202.3132275
21
-1.0267622
0
LINE
8
0
10
202.3132275
20
-1.0267622
11
208.3818544
21
-16.0471406
0
LINE
8
0
10
201.2643292
20
1.5693527
11
217.2118915
21
8.0125861
0
LINE
8
0
10
217.2118915
20
8.0125861
11
211.1432646
21
23.0329645
0
LINE
8
0
10
211.1432646
20
23.0329645
11
195.1957023
21
16.5897311
0
LINE
8
0
10
195.1957023
20
16.5897311
11
201.2643292
21
1.5693527
0
LINE
8
0
10
194.1468039
20
19.1858459
11
210.0943662
21
25.6290793
0
LINE
8
0
10
210.0943662
20
25.6290793
11
204.0257393
21
40.6494577
0
LINE
8
0
10
204.0257393
20
40.6494577
11
188.078177
21
34.2062243
0
LINE
8
0
10
188.078177
20
34.2062243
11
194.1468039
21
19.1858459
0
LINE
8
0
10
256.0172698
20
-43.9276836
11
272.1799829
21
-38.0449371
0
LINE
8
0
10
272.1799829
20
-38.0449371
11
266.6392566
21
-22.8219166
0
LINE
8
0
10
266.6392566
20
-22.8219166
11
250.4765435
21
-28.7046631
0
LINE
8
0
10
250.4765435
20
-28.7046631
11
256.0172698
21
-43.9276836
0
LINE
8
0
10
236.357479
20
-51.7567815
11
253.1166441
21
-47.8876234
0
LINE
8
0
10
253.1166441
20
-47.8876234
11
249.472437
21
-32.1028283
0
LINE
8
0
10
249.472437
20
-32.1028283
11
232.7132719
21
-35.9719864
0
LINE
8
0
10
232.7132719
20
-35.9719864
11
236.357479
21
-51.7567815
0
LINE
8
0
10
-24.2360784
20
-13.1762098
11
0.3517309
21
78.5867438
0
LINE
8
0
10
-24.2360784
20
-13.1762098
11
-6.3661962
21
-17.7970704
0
LINE
8
0
10
-6.3661962
20
-17.7970704
11
29.44777
21
-28.7457389
0
LINE
8
0
10
29.44777
20
-28.7457389
11
27.0915719
21
-44.388557
0
LINE
8
0
10
27.0915719
20
-44.388557
11
82.7794823
21
-70.0458645
0
LINE
8
0
10
82.7794823
20
-70.0458645
11
104.6993747
21
-48.040453
0
LINE
8
0
10
104.6993747
20
-48.040453
11
132.5148904
21
-59.2786508
0
LINE
8
0
10
132.5148904
20
-59.2786508
11
162.4084964
21
14.7106208
0
LINE
8
0
10
162.4084964
20
14.7106208
11
143.7148465
21
32.5094256
0
LINE
8
0
10
143.7148465
20
32.5094256
11
145.8501041
21
37.7943736
0
LINE
8
0
10
145.8501041
20
37.7943736
11
123.7943275
21
49.94109
0
LINE
8
0
10
123.7943275
20
49.94109
11
89.4697295
21
69.0939481
0
LINE
8
0
10
89.4697295
20
69.0939481
11
51.4739869
21
79.1604044
0
LINE
8
0
10
51.4739869
20
79.1604044
11
33.675248
21
73.0771433
0
LINE
8
0
10
33.675248
20
73.0771433
11
0.3517309
21
78.5867438
0
ENDSEC
0
EOF