0
SECTION
2
HEADER
9
$INSUNITS
70
4
0
ENDSEC
0
SECTION
2
TABLES
0
TABLE
2
LTYPE
0
LTYPE
72
65
70
64
2
CONTINUOUS
3
______
73
0
40
0
0
ENDTAB
0
TABLE
2
LAYER
0
ENDTAB
0
ENDSEC
0
SECTION
2
ENTITIES
0
LINE
8
0
10
-12.1180392
20
-6.5881049
11
7.2004773
21
-11.7644858
0
LINE
8
0
10
7.2004773
20
-11.7644858
11
7.5815511
21
-10.3422989
0
LINE
8
0
10
-12.1180392
20
-6.5881049
11
-2.2829154
21
30.1170765
0
LINE
8
0
10
12.3362222
20
7.4023751
11
17.0356011
21
24.9406956
0
LINE
8
0
10
17.0356011
20
24.9406957
11
26.8707248
21
61.6458771
0
LINE
8
0
10
-2.2829154
20
30.1170766
11
7.5522083
21
66.822258
0
LINE
8
0
10
26.8707248
20
61.6458771
11
7.5522083
21
66.822258
0
LINE
8
0
10
7.5815511
20
-10.3422989
11
25.688293
21
-16.2255359
0
LINE
8
0
10
25.688293
20
-16.2255359
11
29.5913514
21
-4.2131574
0
LINE
8
0
10
12.3362222
20
7.4023751
11
30.1524543
21
62.235099
0
LINE
8
0
10
33.7690487
20
8.6444729
11
49.1735846
21
56.0547592
0
LINE
8
0
10
49.1735846
20
56.0547592
11
30.1524543
21
62.235099
0
LINE
8
0
10
29.5913514
20
-4.2131574
11
47.2606389
21
-11.352013
0
LINE
8
0
10
47.2606389
20
-11.352013
11
48.3844587
21
-8.5704615
0
LINE
8
0
10
33.7690487
20
8.6444729
11
57.1870628
21
66.6060919
0
LINE
8
0
10
74.803556
20
59.4885666
11
57.1870628
21
66.6060919
0
LINE
8
0
10
48.3844587
20
-8.5704615
11
65.073768
21
-15.3133802
0
LINE
8
0
10
93.3472331
20
51.9964346
11
94.4710529
21
54.7779862
0
LINE
8
0
10
94.4710529
20
54.7779862
11
75.9273758
21
62.2701181
0
LINE
8
0
10
75.9273758
20
62.2701181
11
74.803556
21
59.4885666
0
LINE
8
0
10
63.9499482
20
-18.0949318
11
81.5664415
21
-25.2124571
0
LINE
8
0
10
65.073768
20
-15.3133802
11
63.9499482
21
-18.0949318
0
LINE
8
0
10
109.8399065
20
42.0973578
11
110.9637263
21
44.8789093
0
LINE
8
0
10
110.9637263
20
44.8789093
11
93.3472331
21
51.9964346
0
LINE
8
0
10
80.4426217
20
-27.9940086
11
98.9862988
21
-35.4861405
0
LINE
8
0
10
98.9862988
20
-35.4861405
11
127.4563998
21
34.9798325
0
LINE
8
0
10
81.5664415
20
-25.2124571
11
80.4426217
21
-27.9940086
0
LINE
8
0
10
127.4563998
20
34.9798325
11
109.8399065
21
42.0973578
0
LINE
8
0
10
39.7376894
20
-38.8816786
11
58.5315418
21
-45.7220814
0
LINE
8
0
10
58.5315418
20
-45.7220814
11
61.6133825
21
-37.2547938
0
LINE
8
0
10
64.0291898
20
-30.6174178
11
65.0299246
21
-27.8679216
0
LINE
8
0
10
65.0299246
20
-27.8679216
11
46.2360722
21
-21.0275188
0
LINE
8
0
10
46.2360722
20
-21.0275188
11
39.7376894
21
-38.8816786
0
LINE
8
0
10
58.9163765
20
-48.93681
11
78.4037778
21
-53.4358311
0
LINE
8
0
10
78.4037778
20
-53.4358311
11
82.6778479
21
-34.9227998
0
LINE
8
0
10
82.6778479
20
-34.9227998
11
64.0291898
21
-30.6174178
0
LINE
8
0
10
61.6133825
20
-37.2547938
11
58.9163765
21
-48.93681
0
LINE
8
0
10
306.5115929
20
-11.7644858
11
325.8301094
21
-6.5881049
0
LINE
8
0
10
315.9949856
20
30.1170765
11
325.8301094
21
-6.5881049
0
LINE
8
0
10
306.1305191
20
-10.3422989
11
306.5115929
21
-11.7644858
0
LINE
8
0
10
296.6764691
20
24.9406956
11
301.375848
21
7.4023751
0
LINE
8
0
10
306.1598619
20
66.822258
11
315.9949856
21
30.1170766
0
LINE
8
0
10
286.8413454
20
61.6458771
11
296.6764691
21
24.9406957
0
LINE
8
0
10
306.1598619
20
66.822258
11
286.8413454
21
61.6458771
0
LINE
8
0
10
288.0237772
20
-16.2255359
11
306.1305191
21
-10.3422989
0
LINE
8
0
10
283.5596159
20
62.235099
11
301.375848
21
7.4023751
0
LINE
8
0
10
284.1207188
20
-4.2131574
11
288.0237772
21
-16.2255359
0
LINE
8
0
10
264.5384856
20
56.0547592
11
279.9430215
21
8.6444729
0
LINE
8
0
10
283.5596159
20
62.235099
11
264.5384856
21
56.0547592
0
LINE
8
0
10
266.4514313
20
-11.352013
11
284.1207188
21
-4.2131574
0
LINE
8
0
10
256.5250074
20
66.6060919
11
279.9430215
21
8.6444729
0
LINE
8
0
10
265.3276115
20
-8.5704615
11
266.4514313
21
-11.352013
0
LINE
8
0
10
256.5250074
20
66.6060919
11
238.9085142
21
59.4885666
0
LINE
8
0
10
248.6383022
20
-15.3133802
11
265.3276115
21
-8.5704615
0
LINE
8
0
10
238.9085142
20
59.4885666
11
237.7846944
21
62.2701181
0
LINE
8
0
10
237.7846944
20
62.2701181
11
219.2410173
21
54.7779862
0
LINE
8
0
10
219.2410173
20
54.7779862
11
220.3648371
21
51.9964346
0
LINE
8
0
10
232.1456287
20
-25.2124571
11
249.762122
21
-18.0949318
0
LINE
8
0
10
249.762122
20
-18.0949318
11
248.6383022
21
-15.3133802
0
LINE
8
0
10
220.3648371
20
51.9964346
11
202.7483439
21
44.8789093
0
LINE
8
0
10
202.7483439
20
44.8789093
11
203.8721637
21
42.0973578
0
LINE
8
0
10
214.7257714
20
-35.4861405
11
233.2694485
21
-27.9940086
0
LINE
8
0
10
233.2694485
20
-27.9940086
11
232.1456287
21
-25.2124571
0
LINE
8
0
10
186.2556704
20
34.9798325
11
214.7257714
21
-35.4861405
0
LINE
8
0
10
203.8721637
20
42.0973578
11
186.2556704
21
34.9798325
0
LINE
8
0
10
255.1805284
20
-45.7220814
11
273.9743808
21
-38.8816786
0
LINE
8
0
10
273.9743808
20
-38.8816786
11
267.475998
21
-21.0275188
0
LINE
8
0
10
267.475998
20
-21.0275188
11
248.6821456
21
-27.8679216
0
LINE
8
0
10
248.6821456
20
-27.8679216
11
249.6828804
21
-30.6174178
0
LINE
8
0
10
252.0986877
20
-37.2547938
11
255.1805284
21
-45.7220814
0
LINE
8
0
10
235.3082924
20
-53.4358311
11
254.7956937
21
-48.93681
0
LINE
8
0
10
254.7956937
20
-48.93681
11
252.0986877
21
-37.2547938
0
LINE
8
0
10
249.6828804
20
-30.6174178
11
231.0342223
21
-34.9227998
0
LINE
8
0
10
231.0342223
20
-34.9227998
11
235.3082924
21
-53.4358311
0
ENDSEC
0
EOF