0
SECTION
2
HEADER
9
$INSUNITS
70
4
0
ENDSEC
0
SECTION
2
TABLES
0
TABLE
2
LTYPE
0
LTYPE
72
65
70
64
2
CONTINUOUS
3
______
73
0
40
0
0
ENDTAB
0
TABLE
2
LAYER
0
ENDTAB
0
ENDSEC
0
SECTION
2
ENTITIES
0
LINE
8
0
10
-10.5871081
20
-5.7042214
11
6.3165939
21
-10.2335547
0
LINE
8
0
10
6.3165939
20
-10.2335547
11
10.5871081
21
5.7042214
0
LINE
8
0
10
10.5871081
20
5.7042214
11
-6.3165939
21
10.2335547
0
LINE
8
0
10
-6.3165939
20
10.2335547
11
-10.5871081
21
-5.7042214
0
LINE
8
0
10
-5.6695462
20
12.6483693
11
11.2341558
21
8.119036
0
LINE
8
0
10
11.2341558
20
8.119036
11
15.50467
21
24.0568121
0
LINE
8
0
10
15.50467
20
24.0568121
11
-1.399032
21
28.5861454
0
LINE
8
0
10
-1.399032
20
28.5861454
11
-5.6695462
21
12.6483693
0
LINE
8
0
10
-0.7519843
20
31.0009601
11
16.1517177
21
26.4716268
0
LINE
8
0
10
16.1517177
20
26.4716268
11
20.4222319
21
42.4094029
0
LINE
8
0
10
20.4222319
20
42.4094029
11
3.5185299
21
46.9387362
0
LINE
8
0
10
3.5185299
20
46.9387362
11
-0.7519843
21
31.0009601
0
LINE
8
0
10
4.1655775
20
49.3535508
11
21.0692795
21
44.8242175
0
LINE
8
0
10
21.0692795
20
44.8242175
11
25.3397937
21
60.7619936
0
LINE
8
0
10
25.3397937
20
60.7619936
11
8.4360917
21
65.2913269
0
LINE
8
0
10
8.4360917
20
65.2913269
11
4.1655775
21
49.3535508
0
LINE
8
0
10
8.2422546
20
-9.2426467
11
24.8857436
21
-14.6504441
0
LINE
8
0
10
24.8857436
20
-14.6504441
11
29.984524
21
1.0419885
0
LINE
8
0
10
29.984524
20
1.0419885
11
13.341035
21
6.4497859
0
LINE
8
0
10
13.341035
20
6.4497859
11
8.2422546
21
-9.2426467
0
LINE
8
0
10
14.1135775
20
8.827427
11
30.7570665
21
3.4196296
0
LINE
8
0
10
30.7570665
20
3.4196296
11
35.8558469
21
19.1120622
0
LINE
8
0
10
35.8558469
20
19.1120622
11
19.2123579
21
24.5198596
0
LINE
8
0
10
19.2123579
20
24.5198596
11
14.1135775
21
8.827427
0
LINE
8
0
10
19.9849004
20
26.8975008
11
36.6283894
21
21.4897034
0
LINE
8
0
10
36.6283894
20
21.4897034
11
41.7271698
21
37.182136
0
LINE
8
0
10
41.7271698
20
37.182136
11
25.0836808
21
42.5899334
0
LINE
8
0
10
25.0836808
20
42.5899334
11
19.9849004
21
26.8975008
0
LINE
8
0
10
25.8562233
20
44.9675746
11
42.4997123
21
39.5597772
0
LINE
8
0
10
42.4997123
20
39.5597772
11
47.5984927
21
55.2522098
0
LINE
8
0
10
47.5984927
20
55.2522098
11
30.9550037
21
60.6600072
0
LINE
8
0
10
30.9550037
20
60.6600072
11
25.8562233
21
44.9675746
0
LINE
8
0
10
30.3441999
20
-3.1691595
11
46.5699173
21
-9.7247749
0
LINE
8
0
10
46.5699173
20
-9.7247749
11
52.7509261
21
5.5737587
0
LINE
8
0
10
52.7509261
20
5.5737587
11
36.5252087
21
12.1293741
0
LINE
8
0
10
36.5252087
20
12.1293741
11
30.3441999
21
-3.1691595
0
LINE
8
0
10
37.4617251
20
14.4473337
11
53.6874425
21
7.8917183
0
LINE
8
0
10
53.6874425
20
7.8917183
11
59.8684513
21
23.1902519
0
LINE
8
0
10
59.8684513
20
23.1902519
11
43.6427339
21
29.7458673
0
LINE
8
0
10
43.6427339
20
29.7458673
11
37.4617251
21
14.4473337
0
LINE
8
0
10
44.5792504
20
32.063827
11
60.8049678
21
25.5082116
0
LINE
8
0
10
60.8049678
20
25.5082116
11
66.9859766
21
40.8067452
0
LINE
8
0
10
66.9859766
20
40.8067452
11
50.7602592
21
47.3623606
0
LINE
8
0
10
50.7602592
20
47.3623606
11
44.5792504
21
32.063827
0
LINE
8
0
10
51.6967756
20
49.6803202
11
67.922493
21
43.1247048
0
LINE
8
0
10
67.922493
20
43.1247048
11
74.1035018
21
58.4232384
0
LINE
8
0
10
74.1035018
20
58.4232384
11
57.8777844
21
64.9788538
0
LINE
8
0
10
57.8777844
20
64.9788538
11
51.6967756
21
49.6803202
0
LINE
8
0
10
49.0845129
20
-7.5051333
11
65.3102303
21
-14.0607487
0
LINE
8
0
10
65.3102303
20
-14.0607487
11
71.4912391
21
1.2377849
0
LINE
8
0
10
71.4912391
20
1.2377849
11
55.2655217
21
7.7934003
0
LINE
8
0
10
55.2655217
20
7.7934003
11
49.0845129
21
-7.5051333
0
LINE
8
0
10
56.2020381
20
10.11136
11
72.4277555
21
3.5557446
0
LINE
8
0
10
72.4277555
20
3.5557446
11
78.6087643
21
18.8542782
0
LINE
8
0
10
78.6087643
20
18.8542782
11
62.3830469
21
25.4098936
0
LINE
8
0
10
62.3830469
20
25.4098936
11
56.2020381
21
10.11136
0
LINE
8
0
10
63.3195634
20
27.7278532
11
79.5452808
21
21.1722378
0
LINE
8
0
10
79.5452808
20
21.1722378
11
85.7262896
21
36.4707714
0
LINE
8
0
10
85.7262896
20
36.4707714
11
69.5005722
21
43.0263868
0
LINE
8
0
10
69.5005722
20
43.0263868
11
63.3195634
21
27.7278532
0
LINE
8
0
10
70.4370886
20
45.3443464
11
86.662806
21
38.788731
0
LINE
8
0
10
86.662806
20
38.788731
11
92.8438148
21
54.0872646
0
LINE
8
0
10
92.8438148
20
54.0872646
11
76.6180974
21
60.64288
0
LINE
8
0
10
76.6180974
20
60.64288
11
70.4370886
21
45.3443464
0
LINE
8
0
10
65.5771863
20
-17.4042102
11
81.8029037
21
-23.9598256
0
LINE
8
0
10
81.8029037
20
-23.9598256
11
87.9839125
21
-8.661292
0
LINE
8
0
10
87.9839125
20
-8.661292
11
71.7581951
21
-2.1056766
0
LINE
8
0
10
71.7581951
20
-2.1056766
11
65.5771863
21
-17.4042102
0
LINE
8
0
10
72.6947116
20
0.2122831
11
88.920429
21
-6.3433323
0
LINE
8
0
10
88.920429
20
-6.3433323
11
95.1014378
21
8.9552013
0
LINE
8
0
10
95.1014378
20
8.9552013
11
78.8757204
21
15.5108167
0
LINE
8
0
10
78.8757204
20
15.5108167
11
72.6947116
21
0.2122831
0
LINE
8
0
10
79.8122368
20
17.8287763
11
96.0379542
21
11.2731609
0
LINE
8
0
10
96.0379542
20
11.2731609
11
102.218963
21
26.5716945
0
LINE
8
0
10
102.218963
20
26.5716945
11
85.9932456
21
33.1273099
0
LINE
8
0
10
85.9932456
20
33.1273099
11
79.8122368
21
17.8287763
0
LINE
8
0
10
86.929762
20
35.4452695
11
103.1554794
21
28.8896541
0
LINE
8
0
10
103.1554794
20
28.8896541
11
109.3364882
21
44.1881877
0
LINE
8
0
10
109.3364882
20
44.1881877
11
93.1107708
21
50.7438031
0
LINE
8
0
10
93.1107708
20
50.7438031
11
86.929762
21
35.4452695
0
LINE
8
0
10
89.187385
20
-9.6867938
11
105.4131024
21
-16.2424092
0
LINE
8
0
10
105.4131024
20
-16.2424092
11
111.5941112
21
-0.9438756
0
LINE
8
0
10
111.5941112
20
-0.9438756
11
95.3683938
21
5.6117398
0
LINE
8
0
10
95.3683938
20
5.6117398
11
89.187385
21
-9.6867938
0
LINE
8
0
10
96.3049102
20
7.9296995
11
112.5306276
21
1.3740841
0
LINE
8
0
10
112.5306276
20
1.3740841
11
118.7116364
21
16.6726177
0
LINE
8
0
10
118.7116364
20
16.6726177
11
102.485919
21
23.2282331
0
LINE
8
0
10
102.485919
20
23.2282331
11
96.3049102
21
7.9296995
0
LINE
8
0
10
103.4224355
20
25.5461927
11
119.6481529
21
18.9905773
0
LINE
8
0
10
119.6481529
20
18.9905773
11
125.8291617
21
34.2891109
0
LINE
8
0
10
125.8291617
20
34.2891109
11
109.6034443
21
40.8447263
0
LINE
8
0
10
109.6034443
20
40.8447263
11
103.4224355
21
25.5461927
0
LINE
8
0
10
43.3512164
20
-41.3144038
11
60.8405559
21
-41.925145
0
LINE
8
0
10
60.8405559
20
-41.925145
11
61.4163976
21
-25.4351964
0
LINE
8
0
10
61.4163976
20
-25.4351964
11
43.9270581
21
-24.8244552
0
LINE
8
0
10
43.9270581
20
-24.8244552
11
43.3512164
21
-41.3144038
0
LINE
8
0
10
65.1150567
20
-45.0926572
11
82.4447479
21
-42.6571279
0
LINE
8
0
10
82.4447479
20
-42.6571279
11
80.1483917
21
-26.3177048
0
LINE
8
0
10
80.1483917
20
-26.3177048
11
62.8187005
21
-28.7532341
0
LINE
8
0
10
62.8187005
20
-28.7532341
11
65.1150567
21
-45.0926572
0
LINE
8
0
10
83.4148725
20
-28.2191751
11
99.0074867
21
-36.1640088
0
LINE
8
0
10
99.0074867
20
-36.1640088
11
106.4983299
21
-21.4624011
0
LINE
8
0
10
106.4983299
20
-21.4624011
11
90.9057157
21
-13.5175674
0
LINE
8
0
10
90.9057157
20
-13.5175674
11
83.4148725
21
-28.2191751
0
LINE
8
0
10
271.3954763
20
-10.2335547
11
288.2991783
21
-5.7042214
0
LINE
8
0
10
288.2991783
20
-5.7042214
11
284.0286641
21
10.2335547
0
LINE
8
0
10
284.0286641
20
10.2335547
11
267.1249621
21
5.7042214
0
LINE
8
0
10
267.1249621
20
5.7042214
11
271.3954763
21
-10.2335547
0
LINE
8
0
10
266.4779144
20
8.119036
11
283.3816164
21
12.6483693
0
LINE
8
0
10
283.3816164
20
12.6483693
11
279.1111022
21
28.5861454
0
LINE
8
0
10
279.1111022
20
28.5861454
11
262.2074002
21
24.0568121
0
LINE
8
0
10
262.2074002
20
24.0568121
11
266.4779144
21
8.119036
0
LINE
8
0
10
261.5603525
20
26.4716268
11
278.4640545
21
31.0009601
0
LINE
8
0
10
278.4640545
20
31.0009601
11
274.1935403
21
46.9387362
0
LINE
8
0
10
274.1935403
20
46.9387362
11
257.2898383
21
42.4094029
0
LINE
8
0
10
257.2898383
20
42.4094029
11
261.5603525
21
26.4716268
0
LINE
8
0
10
256.6427907
20
44.8242175
11
273.5464927
21
49.3535508
0
LINE
8
0
10
273.5464927
20
49.3535508
11
269.2759785
21
65.2913269
0
LINE
8
0
10
269.2759785
20
65.2913269
11
252.3722765
21
60.7619936
0
LINE
8
0
10
252.3722765
20
60.7619936
11
256.6427907
21
44.8242175
0
LINE
8
0
10
252.8263266
20
-14.6504441
11
269.4698156
21
-9.2426467
0
LINE
8
0
10
269.4698156
20
-9.2426467
11
264.3710352
21
6.4497859
0
LINE
8
0
10
264.3710352
20
6.4497859
11
247.7275462
21
1.0419885
0
LINE
8
0
10
247.7275462
20
1.0419885
11
252.8263266
21
-14.6504441
0
LINE
8
0
10
246.9550037
20
3.4196296
11
263.5984927
21
8.827427
0
LINE
8
0
10
263.5984927
20
8.827427
11
258.4997123
21
24.5198596
0
LINE
8
0
10
258.4997123
20
24.5198596
11
241.8562233
21
19.1120622
0
LINE
8
0
10
241.8562233
20
19.1120622
11
246.9550037
21
3.4196296
0
LINE
8
0
10
241.0836808
20
21.4897034
11
257.7271698
21
26.8975008
0
LINE
8
0
10
257.7271698
20
26.8975008
11
252.6283894
21
42.5899334
0
LINE
8
0
10
252.6283894
20
42.5899334
11
235.9849004
21
37.182136
0
LINE
8
0
10
235.9849004
20
37.182136
11
241.0836808
21
21.4897034
0
LINE
8
0
10
235.2123579
20
39.5597772
11
251.8558469
21
44.9675746
0
LINE
8
0
10
251.8558469
20
44.9675746
11
246.7570665
21
60.6600072
0
LINE
8
0
10
246.7570665
20
60.6600072
11
230.1135775
21
55.2522098
0
LINE
8
0
10
230.1135775
20
55.2522098
11
235.2123579
21
39.5597772
0
LINE
8
0
10
231.1421529
20
-9.7247749
11
247.3678703
21
-3.1691595
0
LINE
8
0
10
247.3678703
20
-3.1691595
11
241.1868615
21
12.1293741
0
LINE
8
0
10
241.1868615
20
12.1293741
11
224.9611441
21
5.5737587
0
LINE
8
0
10
224.9611441
20
5.5737587
11
231.1421529
21
-9.7247749
0
LINE
8
0
10
224.0246277
20
7.8917183
11
240.2503451
21
14.4473337
0
LINE
8
0
10
240.2503451
20
14.4473337
11
234.0693363
21
29.7458673
0
LINE
8
0
10
234.0693363
20
29.7458673
11
217.8436189
21
23.1902519
0
LINE
8
0
10
217.8436189
20
23.1902519
11
224.0246277
21
7.8917183
0
LINE
8
0
10
216.9071024
20
25.5082116
11
233.1328198
21
32.063827
0
LINE
8
0
10
233.1328198
20
32.063827
11
226.951811
21
47.3623606
0
LINE
8
0
10
226.951811
20
47.3623606
11
210.7260936
21
40.8067452
0
LINE
8
0
10
210.7260936
20
40.8067452
11
216.9071024
21
25.5082116
0
LINE
8
0
10
209.7895772
20
43.1247048
11
226.0152946
21
49.6803202
0
LINE
8
0
10
226.0152946
20
49.6803202
11
219.8342858
21
64.9788538
0
LINE
8
0
10
219.8342858
20
64.9788538
11
203.6085684
21
58.4232384
0
LINE
8
0
10
203.6085684
20
58.4232384
11
209.7895772
21
43.1247048
0
LINE
8
0
10
212.4018399
20
-14.0607487
11
228.6275573
21
-7.5051333
0
LINE
8
0
10
228.6275573
20
-7.5051333
11
222.4465485
21
7.7934003
0
LINE
8
0
10
222.4465485
20
7.7934003
11
206.2208311
21
1.2377849
0
LINE
8
0
10
206.2208311
20
1.2377849
11
212.4018399
21
-14.0607487
0
LINE
8
0
10
205.2843147
20
3.5557446
11
221.5100321
21
10.11136
0
LINE
8
0
10
221.5100321
20
10.11136
11
215.3290233
21
25.4098936
0
LINE
8
0
10
215.3290233
20
25.4098936
11
199.1033059
21
18.8542782
0
LINE
8
0
10
199.1033059
20
18.8542782
11
205.2843147
21
3.5557446
0
LINE
8
0
10
198.1667894
20
21.1722378
11
214.3925068
21
27.7278532
0
LINE
8
0
10
214.3925068
20
27.7278532
11
208.211498
21
43.0263868
0
LINE
8
0
10
208.211498
20
43.0263868
11
191.9857806
21
36.4707714
0
LINE
8
0
10
191.9857806
20
36.4707714
11
198.1667894
21
21.1722378
0
LINE
8
0
10
191.0492642
20
38.788731
11
207.2749816
21
45.3443464
0
LINE
8
0
10
207.2749816
20
45.3443464
11
201.0939728
21
60.64288
0
LINE
8
0
10
201.0939728
20
60.64288
11
184.8682554
21
54.0872646
0
LINE
8
0
10
184.8682554
20
54.0872646
11
191.0492642
21
38.788731
0
LINE
8
0
10
195.9091665
20
-23.9598256
11
212.1348839
21
-17.4042102
0
LINE
8
0
10
212.1348839
20
-17.4042102
11
205.9538751
21
-2.1056766
0
LINE
8
0
10
205.9538751
20
-2.1056766
11
189.7281577
21
-8.661292
0
LINE
8
0
10
189.7281577
20
-8.661292
11
195.9091665
21
-23.9598256
0
LINE
8
0
10
188.7916412
20
-6.3433323
11
205.0173586
21
0.2122831
0
LINE
8
0
10
205.0173586
20
0.2122831
11
198.8363498
21
15.5108167
0
LINE
8
0
10
198.8363498
20
15.5108167
11
182.6106324
21
8.9552013
0
LINE
8
0
10
182.6106324
20
8.9552013
11
188.7916412
21
-6.3433323
0
LINE
8
0
10
181.674116
20
11.2731609
11
197.8998334
21
17.8287763
0
LINE
8
0
10
197.8998334
20
17.8287763
11
191.7188246
21
33.1273099
0
LINE
8
0
10
191.7188246
20
33.1273099
11
175.4931072
21
26.5716945
0
LINE
8
0
10
175.4931072
20
26.5716945
11
181.674116
21
11.2731609
0
LINE
8
0
10
174.5565908
20
28.8896541
11
190.7823082
21
35.4452695
0
LINE
8
0
10
190.7823082
20
35.4452695
11
184.6012994
21
50.7438031
0
LINE
8
0
10
184.6012994
20
50.7438031
11
168.375582
21
44.1881877
0
LINE
8
0
10
168.375582
20
44.1881877
11
174.5565908
21
28.8896541
0
LINE
8
0
10
172.2989678
20
-16.2424092
11
188.5246852
21
-9.6867938
0
LINE
8
0
10
188.5246852
20
-9.6867938
11
182.3436764
21
5.6117398
0
LINE
8
0
10
182.3436764
20
5.6117398
11
166.117959
21
-0.9438756
0
LINE
8
0
10
166.117959
20
-0.9438756
11
172.2989678
21
-16.2424092
0
LINE
8
0
10
165.1814426
20
1.3740841
11
181.40716
21
7.9296995
0
LINE
8
0
10
181.40716
20
7.9296995
11
175.2261512
21
23.2282331
0
LINE
8
0
10
175.2261512
20
23.2282331
11
159.0004338
21
16.6726177
0
LINE
8
0
10
159.0004338
20
16.6726177
11
165.1814426
21
1.3740841
0
LINE
8
0
10
158.0639173
20
18.9905773
11
174.2896347
21
25.5461927
0
LINE
8
0
10
174.2896347
20
25.5461927
11
168.1086259
21
40.8447263
0
LINE
8
0
10
168.1086259
20
40.8447263
11
151.8829085
21
34.2891109
0
LINE
8
0
10
151.8829085
20
34.2891109
11
158.0639173
21
18.9905773
0
LINE
8
0
10
216.8715143
20
-41.925145
11
234.3608538
21
-41.3144038
0
LINE
8
0
10
234.3608538
20
-41.3144038
11
233.7850121
21
-24.8244552
0
LINE
8
0
10
233.7850121
20
-24.8244552
11
216.2956726
21
-25.4351964
0
LINE
8
0
10
216.2956726
20
-25.4351964
11
216.8715143
21
-41.925145
0
LINE
8
0
10
195.2673223
20
-42.6571279
11
212.5970135
21
-45.0926572
0
LINE
8
0
10
212.5970135
20
-45.0926572
11
214.8933697
21
-28.7532341
0
LINE
8
0
10
214.8933697
20
-28.7532341
11
197.5636785
21
-26.3177048
0
LINE
8
0
10
197.5636785
20
-26.3177048
11
195.2673223
21
-42.6571279
0
LINE
8
0
10
178.7045835
20
-36.1640088
11
194.2971977
21
-28.2191751
0
LINE
8
0
10
194.2971977
20
-28.2191751
11
186.8063545
21
-13.5175674
0
LINE
8
0
10
186.8063545
20
-13.5175674
11
171.2137403
21
-21.4624011
0
LINE
8
0
10
171.2137403
20
-21.4624011
11
178.7045835
21
-36.1640088
0
LINE
8
0
10
270.1598619
20
66.822258
11
289.8301094
21
-6.5881049
0
LINE
8
0
10
289.8301094
20
-6.5881049
11
271.6320398
21
-11.8522034
0
LINE
8
0
10
271.6320398
20
-11.8522034
11
244.7055375
21
-19.9374923
0
LINE
8
0
10
244.7055375
20
-19.9374923
11
235.6537167
21
-42.520018
0
LINE
8
0
10
235.6537167
20
-42.520018
11
203.4937726
21
-46.994237
0
LINE
8
0
10
203.4937726
20
-46.994237
11
178.1583135
21
-37.8452551
0
LINE
8
0
10
178.1583135
20
-37.8452551
11
164.3407481
21
-10.559827
0
LINE
8
0
10
164.3407481
20
-10.559827
11
159.0775906
21
7.8058795
0
LINE
8
0
10
159.0775906
20
7.8058795
11
150.2556704
21
34.9798325
0
LINE
8
0
10
150.2556704
20
34.9798325
11
166.7483439
21
44.8789093
0
LINE
8
0
10
166.7483439
20
44.8789093
11
191.8011033
21
60.2857014
0
LINE
8
0
10
191.8011033
20
60.2857014
11
220.5250074
21
66.6060919
0
LINE
8
0
10
220.5250074
20
66.6060919
11
226.0492403
21
57.2437326
0
LINE
8
0
10
226.0492403
20
57.2437326
11
270.1598619
21
66.822258
0
ENDSEC
0
EOF