0
SECTION
2
HEADER
9
$INSUNITS
70
4
0
ENDSEC
0
SECTION
2
TABLES
0
TABLE
2
LTYPE
0
LTYPE
72
65
70
64
2
CONTINUOUS
3
______
73
0
40
0
0
ENDTAB
0
TABLE
2
LAYER
0
ENDTAB
0
ENDSEC
0
SECTION
2
ENTITIES
0
LINE
8
0
10
-10.5871081
20
-5.7042214
11
6.3165939
21
-10.2335547
0
LINE
8
0
10
6.3165939
20
-10.2335547
11
10.5871081
21
5.7042214
0
LINE
8
0
10
10.5871081
20
5.7042214
11
-6.3165939
21
10.2335547
0
LINE
8
0
10
-6.3165939
20
10.2335547
11
-10.5871081
21
-5.7042214
0
LINE
8
0
10
-5.6695462
20
12.6483693
11
11.2341558
21
8.119036
0
LINE
8
0
10
11.2341558
20
8.119036
11
15.50467
21
24.0568121
0
LINE
8
0
10
15.50467
20
24.0568121
11
-1.399032
21
28.5861454
0
LINE
8
0
10
-1.399032
20
28.5861454
11
-5.6695462
21
12.6483693
0
LINE
8
0
10
-0.7519843
20
31.0009601
11
16.1517177
21
26.4716268
0
LINE
8
0
10
16.1517177
20
26.4716268
11
20.4222319
21
42.4094029
0
LINE
8
0
10
20.4222319
20
42.4094029
11
3.5185299
21
46.9387362
0
LINE
8
0
10
3.5185299
20
46.9387362
11
-0.7519843
21
31.0009601
0
LINE
8
0
10
4.1655775
20
49.3535508
11
21.0692795
21
44.8242175
0
LINE
8
0
10
21.0692795
20
44.8242175
11
25.3397937
21
60.7619936
0
LINE
8
0
10
25.3397937
20
60.7619936
11
8.4360917
21
65.2913269
0
LINE
8
0
10
8.4360917
20
65.2913269
11
4.1655775
21
49.3535508
0
LINE
8
0
10
8.2422546
20
-9.2426467
11
24.8857436
21
-14.6504441
0
LINE
8
0
10
24.8857436
20
-14.6504441
11
29.984524
21
1.0419885
0
LINE
8
0
10
29.984524
20
1.0419885
11
13.341035
21
6.4497859
0
LINE
8
0
10
13.341035
20
6.4497859
11
8.2422546
21
-9.2426467
0
LINE
8
0
10
14.1135775
20
8.827427
11
30.7570665
21
3.4196296
0
LINE
8
0
10
30.7570665
20
3.4196296
11
35.8558469
21
19.1120622
0
LINE
8
0
10
35.8558469
20
19.1120622
11
19.2123579
21
24.5198596
0
LINE
8
0
10
19.2123579
20
24.5198596
11
14.1135775
21
8.827427
0
LINE
8
0
10
19.9849004
20
26.8975008
11
36.6283894
21
21.4897034
0
LINE
8
0
10
36.6283894
20
21.4897034
11
41.7271698
21
37.182136
0
LINE
8
0
10
41.7271698
20
37.182136
11
25.0836808
21
42.5899334
0
LINE
8
0
10
25.0836808
20
42.5899334
11
19.9849004
21
26.8975008
0
LINE
8
0
10
25.8562233
20
44.9675746
11
42.4997123
21
39.5597772
0
LINE
8
0
10
42.4997123
20
39.5597772
11
47.5984927
21
55.2522098
0
LINE
8
0
10
47.5984927
20
55.2522098
11
30.9550037
21
60.6600072
0
LINE
8
0
10
30.9550037
20
60.6600072
11
25.8562233
21
44.9675746
0
LINE
8
0
10
30.3441999
20
-3.1691595
11
46.5699173
21
-9.7247749
0
LINE
8
0
10
46.5699173
20
-9.7247749
11
52.7509261
21
5.5737587
0
LINE
8
0
10
52.7509261
20
5.5737587
11
36.5252087
21
12.1293741
0
LINE
8
0
10
36.5252087
20
12.1293741
11
30.3441999
21
-3.1691595
0
LINE
8
0
10
37.4617251
20
14.4473337
11
53.6874425
21
7.8917183
0
LINE
8
0
10
53.6874425
20
7.8917183
11
59.8684513
21
23.1902519
0
LINE
8
0
10
59.8684513
20
23.1902519
11
43.6427339
21
29.7458673
0
LINE
8
0
10
43.6427339
20
29.7458673
11
37.4617251
21
14.4473337
0
LINE
8
0
10
44.5792504
20
32.063827
11
60.8049678
21
25.5082116
0
LINE
8
0
10
60.8049678
20
25.5082116
11
66.9859766
21
40.8067452
0
LINE
8
0
10
66.9859766
20
40.8067452
11
50.7602592
21
47.3623606
0
LINE
8
0
10
50.7602592
20
47.3623606
11
44.5792504
21
32.063827
0
LINE
8
0
10
51.6967756
20
49.6803202
11
67.922493
21
43.1247048
0
LINE
8
0
10
67.922493
20
43.1247048
11
74.1035018
21
58.4232384
0
LINE
8
0
10
74.1035018
20
58.4232384
11
57.8777844
21
64.9788538
0
LINE
8
0
10
57.8777844
20
64.9788538
11
51.6967756
21
49.6803202
0
LINE
8
0
10
49.0845129
20
-7.5051333
11
65.3102303
21
-14.0607487
0
LINE
8
0
10
65.3102303
20
-14.0607487
11
71.4912391
21
1.2377849
0
LINE
8
0
10
71.4912391
20
1.2377849
11
55.2655217
21
7.7934003
0
LINE
8
0
10
55.2655217
20
7.7934003
11
49.0845129
21
-7.5051333
0
LINE
8
0
10
56.2020381
20
10.11136
11
72.4277555
21
3.5557446
0
LINE
8
0
10
72.4277555
20
3.5557446
11
78.6087643
21
18.8542782
0
LINE
8
0
10
78.6087643
20
18.8542782
11
62.3830469
21
25.4098936
0
LINE
8
0
10
62.3830469
20
25.4098936
11
56.2020381
21
10.11136
0
LINE
8
0
10
63.3195634
20
27.7278532
11
79.5452808
21
21.1722378
0
LINE
8
0
10
79.5452808
20
21.1722378
11
85.7262896
21
36.4707714
0
LINE
8
0
10
85.7262896
20
36.4707714
11
69.5005722
21
43.0263868
0
LINE
8
0
10
69.5005722
20
43.0263868
11
63.3195634
21
27.7278532
0
LINE
8
0
10
70.4370886
20
45.3443464
11
86.662806
21
38.788731
0
LINE
8
0
10
86.662806
20
38.788731
11
92.8438148
21
54.0872646
0
LINE
8
0
10
92.8438148
20
54.0872646
11
76.6180974
21
60.64288
0
LINE
8
0
10
76.6180974
20
60.64288
11
70.4370886
21
45.3443464
0
LINE
8
0
10
65.5771863
20
-17.4042102
11
81.8029037
21
-23.9598256
0
LINE
8
0
10
81.8029037
20
-23.9598256
11
87.9839125
21
-8.661292
0
LINE
8
0
10
87.9839125
20
-8.661292
11
71.7581951
21
-2.1056766
0
LINE
8
0
10
71.7581951
20
-2.1056766
11
65.5771863
21
-17.4042102
0
LINE
8
0
10
72.6947116
20
0.2122831
11
88.920429
21
-6.3433323
0
LINE
8
0
10
88.920429
20
-6.3433323
11
95.1014378
21
8.9552013
0
LINE
8
0
10
95.1014378
20
8.9552013
11
78.8757204
21
15.5108167
0
LINE
8
0
10
78.8757204
20
15.5108167
11
72.6947116
21
0.2122831
0
LINE
8
0
10
79.8122368
20
17.8287763
11
96.0379542
21
11.2731609
0
LINE
8
0
10
96.0379542
20
11.2731609
11
102.218963
21
26.5716945
0
LINE
8
0
10
102.218963
20
26.5716945
11
85.9932456
21
33.1273099
0
LINE
8
0
10
85.9932456
20
33.1273099
11
79.8122368
21
17.8287763
0
LINE
8
0
10
86.929762
20
35.4452695
11
103.1554794
21
28.8896541
0
LINE
8
0
10
103.1554794
20
28.8896541
11
109.3364882
21
44.1881877
0
LINE
8
0
10
109.3364882
20
44.1881877
11
93.1107708
21
50.7438031
0
LINE
8
0
10
93.1107708
20
50.7438031
11
86.929762
21
35.4452695
0
LINE
8
0
10
82.0698598
20
-27.303287
11
98.2955772
21
-33.8589024
0
LINE
8
0
10
98.2955772
20
-33.8589024
11
104.476586
21
-18.5603688
0
LINE
8
0
10
104.476586
20
-18.5603688
11
88.2508686
21
-12.0047534
0
LINE
8
0
10
88.2508686
20
-12.0047534
11
82.0698598
21
-27.303287
0
LINE
8
0
10
89.187385
20
-9.6867938
11
105.4131024
21
-16.2424092
0
LINE
8
0
10
105.4131024
20
-16.2424092
11
111.5941112
21
-0.9438756
0
LINE
8
0
10
111.5941112
20
-0.9438756
11
95.3683938
21
5.6117398
0
LINE
8
0
10
95.3683938
20
5.6117398
11
89.187385
21
-9.6867938
0
LINE
8
0
10
96.3049102
20
7.9296995
11
112.5306276
21
1.3740841
0
LINE
8
0
10
112.5306276
20
1.3740841
11
118.7116364
21
16.6726177
0
LINE
8
0
10
118.7116364
20
16.6726177
11
102.485919
21
23.2282331
0
LINE
8
0
10
102.485919
20
23.2282331
11
96.3049102
21
7.9296995
0
LINE
8
0
10
103.4224355
20
25.5461927
11
119.6481529
21
18.9905773
0
LINE
8
0
10
119.6481529
20
18.9905773
11
125.8291617
21
34.2891109
0
LINE
8
0
10
125.8291617
20
34.2891109
11
109.6034443
21
40.8447263
0
LINE
8
0
10
109.6034443
20
40.8447263
11
103.4224355
21
25.5461927
0
LINE
8
0
10
41.3398304
20
-38.134588
11
57.7844512
21
-44.1199405
0
LINE
8
0
10
57.7844512
20
-44.1199405
11
63.4277836
21
-28.6150122
0
LINE
8
0
10
63.4277836
20
-28.6150122
11
46.9831628
21
-22.6296597
0
LINE
8
0
10
46.9831628
20
-22.6296597
11
41.3398304
21
-38.134588
0
LINE
8
0
10
60.4155279
20
-48.0000362
11
77.4670041
21
-51.9366797
0
LINE
8
0
10
77.4670041
20
-51.9366797
11
81.1786965
21
-35.8595736
0
LINE
8
0
10
81.1786965
20
-35.8595736
11
64.1272203
21
-31.9229301
0
LINE
8
0
10
64.1272203
20
-31.9229301
11
60.4155279
21
-48.0000362
0
LINE
8
0
10
307.3954763
20
-10.2335547
11
324.2991783
21
-5.7042214
0
LINE
8
0
10
324.2991783
20
-5.7042214
11
320.0286641
21
10.2335547
0
LINE
8
0
10
320.0286641
20
10.2335547
11
303.1249621
21
5.7042214
0
LINE
8
0
10
303.1249621
20
5.7042214
11
307.3954763
21
-10.2335547
0
LINE
8
0
10
302.4779144
20
8.119036
11
319.3816164
21
12.6483693
0
LINE
8
0
10
319.3816164
20
12.6483693
11
315.1111022
21
28.5861454
0
LINE
8
0
10
315.1111022
20
28.5861454
11
298.2074002
21
24.0568121
0
LINE
8
0
10
298.2074002
20
24.0568121
11
302.4779144
21
8.119036
0
LINE
8
0
10
297.5603525
20
26.4716268
11
314.4640545
21
31.0009601
0
LINE
8
0
10
314.4640545
20
31.0009601
11
310.1935403
21
46.9387362
0
LINE
8
0
10
310.1935403
20
46.9387362
11
293.2898383
21
42.4094029
0
LINE
8
0
10
293.2898383
20
42.4094029
11
297.5603525
21
26.4716268
0
LINE
8
0
10
292.6427907
20
44.8242175
11
309.5464927
21
49.3535508
0
LINE
8
0
10
309.5464927
20
49.3535508
11
305.2759785
21
65.2913269
0
LINE
8
0
10
305.2759785
20
65.2913269
11
288.3722765
21
60.7619936
0
LINE
8
0
10
288.3722765
20
60.7619936
11
292.6427907
21
44.8242175
0
LINE
8
0
10
288.8263266
20
-14.6504441
11
305.4698156
21
-9.2426467
0
LINE
8
0
10
305.4698156
20
-9.2426467
11
300.3710352
21
6.4497859
0
LINE
8
0
10
300.3710352
20
6.4497859
11
283.7275462
21
1.0419885
0
LINE
8
0
10
283.7275462
20
1.0419885
11
288.8263266
21
-14.6504441
0
LINE
8
0
10
282.9550037
20
3.4196296
11
299.5984927
21
8.827427
0
LINE
8
0
10
299.5984927
20
8.827427
11
294.4997123
21
24.5198596
0
LINE
8
0
10
294.4997123
20
24.5198596
11
277.8562233
21
19.1120622
0
LINE
8
0
10
277.8562233
20
19.1120622
11
282.9550037
21
3.4196296
0
LINE
8
0
10
277.0836808
20
21.4897034
11
293.7271698
21
26.8975008
0
LINE
8
0
10
293.7271698
20
26.8975008
11
288.6283894
21
42.5899334
0
LINE
8
0
10
288.6283894
20
42.5899334
11
271.9849004
21
37.182136
0
LINE
8
0
10
271.9849004
20
37.182136
11
277.0836808
21
21.4897034
0
LINE
8
0
10
271.2123579
20
39.5597772
11
287.8558469
21
44.9675746
0
LINE
8
0
10
287.8558469
20
44.9675746
11
282.7570665
21
60.6600072
0
LINE
8
0
10
282.7570665
20
60.6600072
11
266.1135775
21
55.2522098
0
LINE
8
0
10
266.1135775
20
55.2522098
11
271.2123579
21
39.5597772
0
LINE
8
0
10
267.1421529
20
-9.7247749
11
283.3678703
21
-3.1691595
0
LINE
8
0
10
283.3678703
20
-3.1691595
11
277.1868615
21
12.1293741
0
LINE
8
0
10
277.1868615
20
12.1293741
11
260.9611441
21
5.5737587
0
LINE
8
0
10
260.9611441
20
5.5737587
11
267.1421529
21
-9.7247749
0
LINE
8
0
10
260.0246277
20
7.8917183
11
276.2503451
21
14.4473337
0
LINE
8
0
10
276.2503451
20
14.4473337
11
270.0693363
21
29.7458673
0
LINE
8
0
10
270.0693363
20
29.7458673
11
253.8436189
21
23.1902519
0
LINE
8
0
10
253.8436189
20
23.1902519
11
260.0246277
21
7.8917183
0
LINE
8
0
10
252.9071024
20
25.5082116
11
269.1328198
21
32.063827
0
LINE
8
0
10
269.1328198
20
32.063827
11
262.951811
21
47.3623606
0
LINE
8
0
10
262.951811
20
47.3623606
11
246.7260936
21
40.8067452
0
LINE
8
0
10
246.7260936
20
40.8067452
11
252.9071024
21
25.5082116
0
LINE
8
0
10
245.7895772
20
43.1247048
11
262.0152946
21
49.6803202
0
LINE
8
0
10
262.0152946
20
49.6803202
11
255.8342858
21
64.9788538
0
LINE
8
0
10
255.8342858
20
64.9788538
11
239.6085684
21
58.4232384
0
LINE
8
0
10
239.6085684
20
58.4232384
11
245.7895772
21
43.1247048
0
LINE
8
0
10
248.4018399
20
-14.0607487
11
264.6275573
21
-7.5051333
0
LINE
8
0
10
264.6275573
20
-7.5051333
11
258.4465485
21
7.7934003
0
LINE
8
0
10
258.4465485
20
7.7934003
11
242.2208311
21
1.2377849
0
LINE
8
0
10
242.2208311
20
1.2377849
11
248.4018399
21
-14.0607487
0
LINE
8
0
10
241.2843147
20
3.5557446
11
257.5100321
21
10.11136
0
LINE
8
0
10
257.5100321
20
10.11136
11
251.3290233
21
25.4098936
0
LINE
8
0
10
251.3290233
20
25.4098936
11
235.1033059
21
18.8542782
0
LINE
8
0
10
235.1033059
20
18.8542782
11
241.2843147
21
3.5557446
0
LINE
8
0
10
234.1667894
20
21.1722378
11
250.3925068
21
27.7278532
0
LINE
8
0
10
250.3925068
20
27.7278532
11
244.211498
21
43.0263868
0
LINE
8
0
10
244.211498
20
43.0263868
11
227.9857806
21
36.4707714
0
LINE
8
0
10
227.9857806
20
36.4707714
11
234.1667894
21
21.1722378
0
LINE
8
0
10
227.0492642
20
38.788731
11
243.2749816
21
45.3443464
0
LINE
8
0
10
243.2749816
20
45.3443464
11
237.0939728
21
60.64288
0
LINE
8
0
10
237.0939728
20
60.64288
11
220.8682554
21
54.0872646
0
LINE
8
0
10
220.8682554
20
54.0872646
11
227.0492642
21
38.788731
0
LINE
8
0
10
231.9091665
20
-23.9598256
11
248.1348839
21
-17.4042102
0
LINE
8
0
10
248.1348839
20
-17.4042102
11
241.9538751
21
-2.1056766
0
LINE
8
0
10
241.9538751
20
-2.1056766
11
225.7281577
21
-8.661292
0
LINE
8
0
10
225.7281577
20
-8.661292
11
231.9091665
21
-23.9598256
0
LINE
8
0
10
224.7916412
20
-6.3433323
11
241.0173586
21
0.2122831
0
LINE
8
0
10
241.0173586
20
0.2122831
11
234.8363498
21
15.5108167
0
LINE
8
0
10
234.8363498
20
15.5108167
11
218.6106324
21
8.9552013
0
LINE
8
0
10
218.6106324
20
8.9552013
11
224.7916412
21
-6.3433323
0
LINE
8
0
10
217.674116
20
11.2731609
11
233.8998334
21
17.8287763
0
LINE
8
0
10
233.8998334
20
17.8287763
11
227.7188246
21
33.1273099
0
LINE
8
0
10
227.7188246
20
33.1273099
11
211.4931072
21
26.5716945
0
LINE
8
0
10
211.4931072
20
26.5716945
11
217.674116
21
11.2731609
0
LINE
8
0
10
210.5565908
20
28.8896541
11
226.7823082
21
35.4452695
0
LINE
8
0
10
226.7823082
20
35.4452695
11
220.6012994
21
50.7438031
0
LINE
8
0
10
220.6012994
20
50.7438031
11
204.375582
21
44.1881877
0
LINE
8
0
10
204.375582
20
44.1881877
11
210.5565908
21
28.8896541
0
LINE
8
0
10
215.416493
20
-33.8589024
11
231.6422104
21
-27.303287
0
LINE
8
0
10
231.6422104
20
-27.303287
11
225.4612016
21
-12.0047534
0
LINE
8
0
10
225.4612016
20
-12.0047534
11
209.2354842
21
-18.5603688
0
LINE
8
0
10
209.2354842
20
-18.5603688
11
215.416493
21
-33.8589024
0
LINE
8
0
10
208.2989678
20
-16.2424092
11
224.5246852
21
-9.6867938
0
LINE
8
0
10
224.5246852
20
-9.6867938
11
218.3436764
21
5.6117398
0
LINE
8
0
10
218.3436764
20
5.6117398
11
202.117959
21
-0.9438756
0
LINE
8
0
10
202.117959
20
-0.9438756
11
208.2989678
21
-16.2424092
0
LINE
8
0
10
201.1814426
20
1.3740841
11
217.40716
21
7.9296995
0
LINE
8
0
10
217.40716
20
7.9296995
11
211.2261512
21
23.2282331
0
LINE
8
0
10
211.2261512
20
23.2282331
11
195.0004338
21
16.6726177
0
LINE
8
0
10
195.0004338
20
16.6726177
11
201.1814426
21
1.3740841
0
LINE
8
0
10
194.0639173
20
18.9905773
11
210.2896347
21
25.5461927
0
LINE
8
0
10
210.2896347
20
25.5461927
11
204.1086259
21
40.8447263
0
LINE
8
0
10
204.1086259
20
40.8447263
11
187.8829085
21
34.2891109
0
LINE
8
0
10
187.8829085
20
34.2891109
11
194.0639173
21
18.9905773
0
LINE
8
0
10
255.927619
20
-44.1199405
11
272.3722398
21
-38.134588
0
LINE
8
0
10
272.3722398
20
-38.134588
11
266.7289074
21
-22.6296597
0
LINE
8
0
10
266.7289074
20
-22.6296597
11
250.2842866
21
-28.6150122
0
LINE
8
0
10
250.2842866
20
-28.6150122
11
255.927619
21
-44.1199405
0
LINE
8
0
10
236.2450661
20
-51.9366797
11
253.2965423
21
-48.0000362
0
LINE
8
0
10
253.2965423
20
-48.0000362
11
249.5848499
21
-31.9229301
0
LINE
8
0
10
249.5848499
20
-31.9229301
11
232.5333737
21
-35.8595736
0
LINE
8
0
10
232.5333737
20
-35.8595736
11
236.2450661
21
-51.9366797
0
LINE
8
0
10
313.3603393
20
78.5867438
11
337.9481486
21
-13.1762098
0
LINE
8
0
10
337.9481486
20
-13.1762098
11
320.0782664
21
-17.7970704
0
LINE
8
0
10
320.0782664
20
-17.7970704
11
284.2643002
21
-28.7457389
0
LINE
8
0
10
284.2643002
20
-28.7457389
11
286.6204983
21
-44.388557
0
LINE
8
0
10
286.6204983
20
-44.388557
11
230.9325879
21
-70.0458645
0
LINE
8
0
10
230.9325879
20
-70.0458645
11
209.0126955
21
-48.040453
0
LINE
8
0
10
209.0126955
20
-48.040453
11
181.1971798
21
-59.2786508
0
LINE
8
0
10
151.3035738
20
14.7106208
11
181.1971798
21
-59.2786508
0
LINE
8
0
10
151.3035738
20
14.7106208
11
169.9972237
21
32.5094256
0
LINE
8
0
10
169.9972237
20
32.5094256
11
167.8619661
21
37.7943736
0
LINE
8
0
10
167.8619661
20
37.7943736
11
189.9177427
21
49.94109
0
LINE
8
0
10
189.9177427
20
49.94109
11
224.2423407
21
69.0939481
0
LINE
8
0
10
224.2423407
20
69.0939481
11
262.2380833
21
79.1604044
0
LINE
8
0
10
262.2380833
20
79.1604044
11
280.0368222
21
73.0771433
0
LINE
8
0
10
280.0368222
20
73.0771433
11
313.3603393
21
78.5867438
0
ENDSEC
0
EOF