%TF.GenerationSoftware,KiCad,Pcbnew,8.0.5-dirty*%
%TF.CreationDate,2024-10-19T17:10:18-04:00*%
%TF.ProjectId,rowanpad,726f7761-6e70-4616-942e-6b696361645f,rev?*%
%TF.SameCoordinates,Original*%
%TF.FileFunction,Copper,L1,Top*%
%TF.FilePolarity,Positive*%
%FSLAX46Y46*%
G04 Gerber Fmt 4.6, Leading zero omitted, Abs format (unit mm)*
G04 Created by KiCad (PCBNEW 8.0.5-dirty) date 2024-10-19 17:10:18*
%MOMM*%
%LPD*%
G01*
G04 APERTURE LIST*
%TA.AperFunction,ComponentPad*%
%ADD10C,2.200000*%
%TD*%
%TA.AperFunction,ComponentPad*%
%ADD11R,1.600000X1.600000*%
%TD*%
%TA.AperFunction,ComponentPad*%
%ADD12O,1.600000X1.600000*%
%TD*%
%TA.AperFunction,ComponentPad*%
%ADD13R,1.700000X1.700000*%
%TD*%
%TA.AperFunction,ComponentPad*%
%ADD14O,1.700000X1.700000*%
%TD*%
%TA.AperFunction,ComponentPad*%
%ADD15C,1.778000*%
%TD*%
%TA.AperFunction,ComponentPad*%
%ADD16C,2.286000*%
%TD*%
%TA.AperFunction,ComponentPad*%
%ADD17C,1.700000*%
%TD*%
%TA.AperFunction,Conductor*%
%ADD18C,0.200000*%
%TD*%
G04 APERTURE END LIST*
D10*
%TO.P,SW1,1,1*%
%TO.N,Net-(D1-A)*%
X128570000Y-145040000D03*
%TO.P,SW1,2,2*%
%TO.N,/Column 1*%
X134920000Y-142500000D03*
%TD*%
D11*
%TO.P,D5,1,K*%
%TO.N,/Row 2*%
X179690000Y-150000000D03*
D12*
%TO.P,D5,2,A*%
%TO.N,Net-(D5-A)*%
X187310000Y-150000000D03*
%TD*%
D13*
%TO.P,J1,1,Pin_1*%
%TO.N,GND*%
X184000000Y-114190000D03*
D14*
%TO.P,J1,2,Pin_2*%
%TO.N,+5V*%
X184000000Y-116730000D03*
%TO.P,J1,3,Pin_3*%
%TO.N,/SCL*%
X184000000Y-119270000D03*
%TO.P,J1,4,Pin_4*%
%TO.N,/SDA*%
X184000000Y-121810000D03*
%TD*%
D11*
%TO.P,D1,1,K*%
%TO.N,/Row 1*%
X136500000Y-150000000D03*
D12*
%TO.P,D1,2,A*%
%TO.N,Net-(D1-A)*%
X128880000Y-150000000D03*
%TD*%
D15*
%TO.P,U2,B1A,SEL+*%
%TO.N,/Sel*%
X128705000Y-100741500D03*
%TO.P,U2,B1B*%
%TO.N,N/C*%
X135055000Y-100741500D03*
%TO.P,U2,B2A,SEL-*%
%TO.N,GND*%
X128705000Y-105821500D03*
%TO.P,U2,B2B*%
%TO.N,N/C*%
X135055000Y-105821500D03*
%TO.P,U2,H1,H+*%
%TO.N,VCC*%
X129340000Y-123601500D03*
%TO.P,U2,H2,H*%
%TO.N,/Horz*%
X131880000Y-123601500D03*
%TO.P,U2,H3,H-*%
%TO.N,GND*%
X134420000Y-123601500D03*
D16*
%TO.P,U2,MOUN*%
%TO.N,N/C*%
X124260000Y-106774000D03*
X124260000Y-120109000D03*
X139500000Y-106774000D03*
X139500000Y-120109000D03*
D15*
%TO.P,U2,V1,V+*%
%TO.N,VCC*%
X121720000Y-110901500D03*
%TO.P,U2,V2,V*%
%TO.N,/Vert*%
X121720000Y-113441500D03*
%TO.P,U2,V3,V-*%
%TO.N,GND*%
X121720000Y-115981500D03*
%TD*%
D11*
%TO.P,D2,1,K*%
%TO.N,/Row 1*%
X140690000Y-150000000D03*
D12*
%TO.P,D2,2,A*%
%TO.N,Net-(D2-A)*%
X148310000Y-150000000D03*
%TD*%
D10*
%TO.P,SW5,1,1*%
%TO.N,Net-(D5-A)*%
X185500000Y-145040000D03*
%TO.P,SW5,2,2*%
%TO.N,/Column 2*%
X191850000Y-142500000D03*
%TD*%
D11*
%TO.P,D4,1,K*%
%TO.N,/Row 2*%
X174810000Y-150000000D03*
D12*
%TO.P,D4,2,A*%
%TO.N,Net-(D4-A)*%
X167190000Y-150000000D03*
%TD*%
D10*
%TO.P,SW4,1,1*%
%TO.N,Net-(D4-A)*%
X166500000Y-145000000D03*
%TO.P,SW4,2,2*%
%TO.N,/Column 1*%
X172850000Y-142460000D03*
%TD*%
%TO.P,SW2,1,1*%
%TO.N,Net-(D2-A)*%
X147500000Y-145040000D03*
%TO.P,SW2,2,2*%
%TO.N,/Column 2*%
X153850000Y-142500000D03*
%TD*%
D13*
%TO.P,U1,1,PA02_A0_D0*%
%TO.N,/Row 1*%
X160250000Y-101760000D03*
D17*
%TO.P,U1,2,PA4_A1_D1*%
%TO.N,/Row 2*%
X160250000Y-104300000D03*
%TO.P,U1,3,PA10_A2_D2*%
%TO.N,unconnected-(U1-PA10_A2_D2-Pad3)*%
X160250000Y-106840000D03*
%TO.P,U1,4,PA11_A3_D3*%
%TO.N,/Horz*%
X160250000Y-109380000D03*
%TO.P,U1,5,PA8_A4_D4_SDA*%
%TO.N,/SDA*%
X160250000Y-111920000D03*
%TO.P,U1,6,PA9_A5_D5_SCL*%
%TO.N,/SCL*%
X160250000Y-114460000D03*
%TO.P,U1,7,PB08_A6_D6_TX*%
%TO.N,/Sel*%
X160250000Y-117000000D03*
%TO.P,U1,8,PB09_A7_D7_RX*%
%TO.N,/Vert*%
X145000000Y-117000000D03*
%TO.P,U1,9,PA7_A8_D8_SCK*%
%TO.N,/Column 1*%
X145000000Y-114460000D03*
%TO.P,U1,10,PA5_A9_D9_MISO*%
%TO.N,/Column 2*%
X145000000Y-111920000D03*
%TO.P,U1,11,PA6_A10_D10_MOSI*%
%TO.N,unconnected-(U1-PA6_A10_D10_MOSI-Pad11)*%
X145000000Y-109380000D03*
%TO.P,U1,12,3V3*%
%TO.N,VCC*%
X145000000Y-106840000D03*
%TO.P,U1,13,GND*%
%TO.N,GND*%
X145000000Y-104300000D03*
%TO.P,U1,14,5V*%
%TO.N,+5V*%
X145000000Y-101760000D03*
%TD*%
D18*
%TO.N,Net-(D1-A)*%
X128880000Y-145350000D02*
X128570000Y-145040000D01*
X128880000Y-150000000D02*
X128880000Y-145350000D01*
%TO.N,/Row 1*%
X136500000Y-150000000D02*
X140690000Y-150000000D01*
%TO.N,Net-(D2-A)*%
X148310000Y-145280000D02*
X148070000Y-145040000D01*
X147500000Y-145040000D02*
X147500000Y-149190000D01*
X147500000Y-149190000D02*
X148310000Y-150000000D01*
%TO.N,/Row 2*%
X174810000Y-150000000D02*
X179690000Y-150000000D01*
%TO.N,Net-(D4-A)*%
X166500000Y-145000000D02*
X166500000Y-149310000D01*
X166500000Y-149310000D02*
X167190000Y-150000000D01*
%TO.N,Net-(D5-A)*%
X185500000Y-145040000D02*
X185540000Y-145040000D01*
X185540000Y-145040000D02*
X187310000Y-146810000D01*
X187310000Y-146810000D02*
X187310000Y-150000000D01*
%TO.N,/Horz*%
X131880000Y-123601500D02*
X133387500Y-125109000D01*
X144230000Y-110770000D02*
X158860000Y-110770000D01*
X133387500Y-125109000D02*
X135500000Y-125109000D01*
X158860000Y-110770000D02*
X160250000Y-109380000D01*
X135500000Y-125109000D02*
X135609000Y-125000000D01*
X135609000Y-119391000D02*
X144230000Y-110770000D01*
X135609000Y-125000000D02*
X135609000Y-119391000D01*
%TO.N,/Vert*%
X121720000Y-113441500D02*
X120531000Y-114630500D01*
X130691000Y-124094000D02*
X132106000Y-125509000D01*
X130691000Y-121716000D02*
X130691000Y-124094000D01*
X126145500Y-117170500D02*
X130691000Y-121716000D01*
X120531000Y-116474000D02*
X121227500Y-117170500D01*
X120531000Y-114630500D02*
X120531000Y-116474000D01*
X132106000Y-125509000D02*
X136491000Y-125509000D01*
X121227500Y-117170500D02*
X126145500Y-117170500D01*
X136491000Y-125509000D02*
X145000000Y-117000000D01*
%TO.N,GND*%
X127500000Y-103000000D02*
X127500000Y-104616500D01*
X145000000Y-104300000D02*
X143643500Y-102943500D01*
X143643500Y-102943500D02*
X127556500Y-102943500D01*
X145000000Y-104300000D02*
X156200000Y-104300000D01*
X127556500Y-102943500D02*
X127500000Y-103000000D01*
X128705000Y-105821500D02*
X128705000Y-108996500D01*
X172960000Y-103150000D02*
X184000000Y-114190000D01*
X156200000Y-104300000D02*
X157350000Y-103150000D01*
X127500000Y-104616500D02*
X128705000Y-105821500D01*
X121720000Y-115981500D02*
X126800000Y-115981500D01*
X126800000Y-115981500D02*
X134420000Y-123601500D01*
X157350000Y-103150000D02*
X172960000Y-103150000D01*
X128705000Y-108996500D02*
X121720000Y-115981500D01*
%TO.N,/Column 1*%
X145000000Y-114460000D02*
X152960000Y-122420000D01*
X158459036Y-126015634D02*
X152960000Y-126015634D01*
X172850000Y-142460000D02*
X172850000Y-140406598D01*
X152960000Y-126015634D02*
X152960000Y-122420000D01*
X172850000Y-140406598D02*
X158459036Y-126015634D01*
X134920000Y-142500000D02*
X136475634Y-142500000D01*
X136475634Y-142500000D02*
X152960000Y-126015634D01*
%TO.N,/Column 2*%
X154420000Y-142500000D02*
X154490000Y-142430000D01*
X176500000Y-142500000D02*
X191850000Y-142500000D01*
X173429899Y-143860000D02*
X172270101Y-143860000D01*
X175320000Y-141969899D02*
X175969899Y-141969899D01*
X154490000Y-121410000D02*
X157307056Y-121410000D01*
X175320000Y-139422944D02*
X175320000Y-141969899D01*
X172270101Y-143860000D02*
X170910101Y-142500000D01*
X170910101Y-142500000D02*
X153850000Y-142500000D01*
X157307056Y-121410000D02*
X175320000Y-139422944D01*
X175969899Y-141969899D02*
X176500000Y-142500000D01*
X175320000Y-141969899D02*
X173429899Y-143860000D01*
X154490000Y-121410000D02*
X145000000Y-111920000D01*
%TO.N,/SCL*%
X180770000Y-119270000D02*
X175960000Y-114460000D01*
X184000000Y-119270000D02*
X180770000Y-119270000D01*
X175960000Y-114460000D02*
X160250000Y-114460000D01*
%TO.N,/SDA*%
X159100000Y-114936346D02*
X159100000Y-113070000D01*
X166926346Y-121810000D02*
X160726346Y-115610000D01*
X184000000Y-121810000D02*
X166926346Y-121810000D01*
X159100000Y-113070000D02*
X160250000Y-111920000D01*
X160726346Y-115610000D02*
X159773654Y-115610000D01*
X159773654Y-115610000D02*
X159100000Y-114936346D01*
%TO.N,+5V*%
X186500000Y-114230000D02*
X186500000Y-107500000D01*
X184000000Y-116730000D02*
X186500000Y-114230000D01*
X186500000Y-107500000D02*
X179610000Y-100610000D01*
X146150000Y-100610000D02*
X145000000Y-101760000D01*
X179610000Y-100610000D02*
X146150000Y-100610000D01*
%TD*%
M02*
