G04 Layer: TopLayer*
G04 EasyEDA v6.5.46, 2024-10-06 11:37:13*
G04 ab947d6f174c44c6bcda00e1859507e9,10*
G04 Gerber Generator version 0.2*
G04 Scale: 100 percent, Rotated: No, Reflected: No *
G04 Dimensions in millimeters *
G04 leading zeros omitted , absolute positions ,4 integer and 5 decimal *
%FSLAX45Y45*%
%MOMM*%

%ADD10C,0.2540*%
%ADD11O,2.4999949999999997X1.499997*%
%ADD12O,1.499997X2.4999949999999997*%
%ADD13C,1.6000*%
%ADD14C,1.5240*%
%ADD15C,1.4999*%
%ADD16O,1.6999966X2.3999952*%
%ADD17O,2.5999948X3.9999919999999998*%
%ADD18R,2.1819X1.2116*%
%ADD19C,1.7780*%
%ADD20R,1.7780X1.7780*%
%ADD21C,2.2860*%
%ADD22C,0.6100*%
%ADD23C,0.0102*%

%LPD*%
G36*
X2425700Y12649200D02*
G01*
X2374900Y12623800D01*
X2349500Y12573000D01*
X2349500Y12522200D01*
X2374900Y12471400D01*
X2425700Y12446000D01*
X2654300Y12446000D01*
X2654300Y12649200D01*
G37*
G36*
X2425700Y12141200D02*
G01*
X2374900Y12115800D01*
X2349500Y12065000D01*
X2349500Y12014200D01*
X2374900Y11963400D01*
X2425700Y11938000D01*
X2654300Y11938000D01*
X2654300Y12141200D01*
G37*
G36*
X2425700Y12395200D02*
G01*
X2374900Y12369800D01*
X2349500Y12319000D01*
X2349500Y12268200D01*
X2374900Y12217400D01*
X2425700Y12192000D01*
X2654300Y12192000D01*
X2654300Y12395200D01*
G37*
G36*
X2425700Y11633200D02*
G01*
X2374900Y11607800D01*
X2349500Y11557000D01*
X2349500Y11506200D01*
X2374900Y11455400D01*
X2425700Y11430000D01*
X2654300Y11430000D01*
X2654300Y11633200D01*
G37*
G36*
X2425700Y11887200D02*
G01*
X2374900Y11861800D01*
X2349500Y11811000D01*
X2349500Y11760200D01*
X2374900Y11709400D01*
X2425700Y11684000D01*
X2654300Y11684000D01*
X2654300Y11887200D01*
G37*
G36*
X2425700Y11379200D02*
G01*
X2374900Y11353800D01*
X2349500Y11303000D01*
X2349500Y11252200D01*
X2374900Y11201400D01*
X2425700Y11176000D01*
X2654300Y11176000D01*
X2654300Y11379200D01*
G37*
G36*
X2425700Y11125200D02*
G01*
X2374900Y11099800D01*
X2349500Y11049000D01*
X2349500Y10998200D01*
X2374900Y10947400D01*
X2425700Y10922000D01*
X2654300Y10922000D01*
X2654300Y11125200D01*
G37*
G36*
X723900Y12141200D02*
G01*
X723900Y11938000D01*
X952500Y11938000D01*
X1003300Y11963400D01*
X1028700Y12014200D01*
X1028700Y12065000D01*
X1003300Y12115800D01*
X952500Y12141200D01*
G37*
G36*
X723900Y12395200D02*
G01*
X723900Y12192000D01*
X952500Y12192000D01*
X1003300Y12217400D01*
X1028700Y12268200D01*
X1028700Y12319000D01*
X1003300Y12369800D01*
X952500Y12395200D01*
G37*
G36*
X723900Y11633200D02*
G01*
X723900Y11430000D01*
X952500Y11430000D01*
X1003300Y11455400D01*
X1028700Y11506200D01*
X1028700Y11557000D01*
X1003300Y11607800D01*
X952500Y11633200D01*
G37*
G36*
X723900Y11887200D02*
G01*
X723900Y11684000D01*
X952500Y11684000D01*
X1003300Y11709400D01*
X1028700Y11760200D01*
X1028700Y11811000D01*
X1003300Y11861800D01*
X952500Y11887200D01*
G37*
G36*
X723900Y11379200D02*
G01*
X723900Y11176000D01*
X952500Y11176000D01*
X1003300Y11201400D01*
X1028700Y11252200D01*
X1028700Y11303000D01*
X1003300Y11353800D01*
X952500Y11379200D01*
G37*
G36*
X723900Y11125200D02*
G01*
X723900Y10922000D01*
X952500Y10922000D01*
X1003300Y10947400D01*
X1028700Y10998200D01*
X1028700Y11049000D01*
X1003300Y11099800D01*
X952500Y11125200D01*
G37*
G36*
X723900Y12649200D02*
G01*
X723900Y12446000D01*
X952500Y12446000D01*
X1003300Y12471400D01*
X1028700Y12522200D01*
X1028700Y12573000D01*
X1003300Y12623800D01*
X952500Y12649200D01*
G37*
D10*
X6273802Y12020603D02*
G01*
X6273802Y4876802D01*
X6273802Y12220602D02*
G01*
X6435651Y12058754D01*
X6435651Y11955045D01*
X6372075Y11891469D01*
X6372075Y4996411D01*
X6273802Y12420602D02*
G01*
X6632094Y12062310D01*
X6632094Y11757510D01*
X7127521Y11262083D01*
X7127521Y10547987D01*
X7654825Y10020683D01*
X7654825Y6299024D01*
X7000318Y5644517D01*
X7000318Y5339412D01*
X3060702Y12382502D02*
G01*
X2923694Y12382502D01*
X1235915Y5970094D02*
G01*
X1223291Y5982718D01*
X1223291Y11890885D01*
X2018972Y12686565D01*
X2660220Y12686565D01*
X2923694Y12423091D01*
X2923694Y12382502D01*
X9309102Y11455402D02*
G01*
X9232902Y11379202D01*
X9232902Y10744202D01*
X7404102Y11455402D02*
G01*
X7315202Y11366502D01*
X7315202Y10820402D01*
X5486402Y11468102D02*
G01*
X5422902Y11404602D01*
X5422902Y10845802D01*
X5486402Y9550402D02*
G01*
X5410202Y9474202D01*
X5410202Y8940802D01*
X7404102Y9550402D02*
G01*
X7289802Y9436102D01*
X7289802Y8928102D01*
X9309102Y9550402D02*
G01*
X8686802Y8928102D01*
X8686802Y8902702D01*
X9309102Y7645402D02*
G01*
X9220202Y7556502D01*
X9220202Y6997702D01*
X7404102Y7645402D02*
G01*
X7239002Y7480302D01*
X7239002Y6997702D01*
X5486402Y7645402D02*
G01*
X5422902Y7581902D01*
X5422902Y7035802D01*
X5499102Y5740402D02*
G01*
X5435602Y5676902D01*
X5435602Y5105402D01*
X7404102Y5740402D02*
G01*
X7302502Y5638802D01*
X7302502Y5118102D01*
X9309102Y5740402D02*
G01*
X9156702Y5588002D01*
X9156702Y5143502D01*
X9309102Y3835402D02*
G01*
X9169402Y3695702D01*
X9169402Y3276602D01*
X7404102Y3835402D02*
G01*
X7340602Y3771902D01*
X7340602Y3187702D01*
X5499102Y3835402D02*
G01*
X5422902Y3759202D01*
X5422902Y3213102D01*
X3822702Y11874502D02*
G01*
X3959710Y11874502D01*
X3959710Y11874502D02*
G01*
X4453892Y11380320D01*
X4888562Y11380320D01*
X4999611Y11269271D01*
X4999611Y10930511D01*
X4914902Y10845802D01*
X4914902Y10845802D02*
G01*
X4751758Y10682658D01*
X4751758Y9398104D01*
X4704692Y9351037D01*
X4704692Y9138312D01*
X4902202Y8940802D01*
X4864864Y5105402D02*
G01*
X4864864Y3986176D01*
X5013733Y3837307D01*
X5013733Y3311933D01*
X4914902Y3213102D01*
X4864864Y5105402D02*
G01*
X4927602Y5105402D01*
X4864864Y5105402D02*
G01*
X4709772Y5260494D01*
X4709772Y5533417D01*
X4764458Y5588104D01*
X4764458Y6885358D01*
X4914902Y7035802D01*
X4914902Y7035802D02*
G01*
X5336694Y7457594D01*
X5336694Y8297826D01*
X5358030Y8319162D01*
X5358030Y8484974D01*
X4902202Y8940802D01*
X1479603Y11550703D02*
G01*
X1479603Y7912000D01*
X1809701Y7581902D01*
X1479603Y11750702D02*
G01*
X1320015Y11591114D01*
X1320015Y7871589D01*
X1609702Y7581902D01*
X1479603Y11950702D02*
G01*
X1269265Y11740365D01*
X1269265Y7722339D01*
X1409702Y7581902D01*
X1473202Y3962402D02*
G01*
X1370789Y4064815D01*
X1370789Y7142990D01*
X1409702Y7181903D01*
X7829603Y12420602D02*
G01*
X7939280Y12530279D01*
X8318807Y12530279D01*
X8613701Y12235385D01*
X8613701Y12167897D01*
X8746644Y12034954D01*
X8930921Y12034954D01*
X9867902Y11097973D01*
X9867902Y10604502D01*
X9817102Y8486802D02*
G01*
X9657895Y8646010D01*
X9657895Y10214510D01*
X9467903Y10404502D01*
X9467903Y10604502D02*
G01*
X9698687Y10373718D01*
X9698687Y8805217D01*
X9817102Y8686802D01*
X9804402Y6543702D02*
G01*
X9651367Y6696737D01*
X9651367Y8252538D01*
X9417103Y8486802D01*
X9404403Y6343703D02*
G01*
X9617102Y6131003D01*
X9617102Y4689502D01*
X9817102Y4489503D01*
X9817102Y4689502D02*
G01*
X9664067Y4842537D01*
X9664067Y6284038D01*
X9404403Y6543702D01*
X6248402Y3295703D02*
G01*
X6061026Y3108327D01*
X2467079Y3108327D01*
X2101903Y3473503D01*
X2501902Y3473503D02*
G01*
X2629080Y3346325D01*
X3270023Y3346325D01*
X3384501Y3460803D01*
X2501902Y3673502D02*
G01*
X2340866Y3512466D01*
X2340866Y3428799D01*
X2464818Y3304847D01*
X3439797Y3304847D01*
X3549373Y3414422D01*
X3549373Y3495931D01*
X3384501Y3660802D01*
X7804203Y3670302D02*
G01*
X7804203Y11795000D01*
X8029602Y12020400D01*
X8029602Y12220602D01*
X8229602Y12420602D01*
X7804203Y3270303D02*
G01*
X7961911Y3428011D01*
X7961911Y11752912D01*
X8229602Y12020603D01*
X2984502Y3460803D02*
G01*
X2827784Y3617521D01*
X2827784Y4487953D01*
X3489352Y5149522D01*
X3489352Y6638952D01*
X3676703Y6826303D01*
X3876702Y6826303D02*
G01*
X4038043Y6987644D01*
X4115386Y6987644D01*
X4192501Y6910529D01*
X4192501Y4868801D01*
X2984502Y3660802D01*
X2984502Y3860802D02*
G01*
X2984502Y4571926D01*
X3774671Y5362094D01*
X3774671Y6524271D01*
X4076702Y6826303D01*
X1735914Y5970094D02*
G01*
X1735914Y4770122D01*
X1485902Y4520110D01*
X1822452Y10927082D02*
G01*
X2074623Y10674911D01*
X2074623Y6350866D01*
X1735914Y6012157D01*
X1735914Y5970094D01*
X3822702Y11112502D02*
G01*
X3959710Y11112502D01*
X4851402Y7391402D02*
G01*
X4475584Y7767220D01*
X4475584Y10608617D01*
X3971698Y11112502D01*
X3959710Y11112502D01*
X8724902Y10744202D02*
G01*
X8918094Y10551010D01*
X8918094Y10142806D01*
X9452383Y9608517D01*
X9452383Y9160283D01*
X9194802Y8902702D01*
X8586040Y5143502D02*
G01*
X8648702Y5143502D01*
X8586040Y5143502D02*
G01*
X8586040Y3925674D01*
X8520762Y3860396D01*
X8520762Y3417242D01*
X8661402Y3276602D01*
X9194802Y8902702D02*
G01*
X9194802Y7771767D01*
X8837856Y7414821D01*
X8837856Y7123356D01*
X8712202Y6997702D01*
X8712202Y6997702D02*
G01*
X8593305Y6878805D01*
X8593305Y5698263D01*
X8518451Y5623410D01*
X8518451Y5211091D01*
X8586040Y5143502D01*
X6698287Y8928102D02*
G01*
X6781802Y8928102D01*
X6807202Y10820402D02*
G01*
X6669458Y10682658D01*
X6669458Y9398104D01*
X6614772Y9343417D01*
X6614772Y9011617D01*
X6698287Y8928102D01*
X6698287Y8928102D02*
G01*
X6698287Y7745148D01*
X6616321Y7663182D01*
X6616321Y7112383D01*
X6731002Y6997702D01*
X6731002Y6997702D02*
G01*
X6731002Y5958486D01*
X6921578Y5767910D01*
X6921578Y5245178D01*
X6794502Y5118102D01*
X6794502Y5118102D02*
G01*
X6769305Y5092905D01*
X6769305Y3986735D01*
X6922594Y3833446D01*
X6922594Y3277694D01*
X6832602Y3187702D01*
X2923694Y10350502D02*
G01*
X2923517Y10350324D01*
X2923517Y8808722D01*
X3505202Y8227037D01*
X3505202Y7780784D01*
X3060702Y10350502D02*
G01*
X2923694Y10350502D01*
X9467903Y10204503D02*
G01*
X9617102Y10055303D01*
X9617102Y8486802D01*
X9817102Y8286803D01*
X9417103Y8286803D02*
G01*
X9604402Y8099503D01*
X9604402Y6543702D01*
X9804402Y6343703D01*
X2726514Y8764094D02*
G01*
X2726514Y8765059D01*
X2315568Y9176006D01*
X2315568Y11883036D01*
X1828802Y12369802D01*
X1473202Y3562403D02*
G01*
X1894842Y3984043D01*
X1894842Y5585919D01*
X2164057Y5855134D01*
X2164057Y7064123D01*
X2105484Y6298897D02*
G01*
X1854050Y6047463D01*
X1854050Y4143250D01*
X1473202Y3762402D01*
X2048080Y10790608D02*
G01*
X2154125Y10684563D01*
X2154125Y9093126D01*
X2351483Y8895768D01*
X2351483Y4649751D01*
X1154864Y12264036D02*
G01*
X1154864Y6353025D01*
X5873803Y12220602D02*
G01*
X5663135Y12431270D01*
X5663135Y12576279D01*
X8229602Y12220602D02*
G01*
X8392924Y12057280D01*
X8392924Y11934649D01*
X8012584Y11554310D01*
X8012584Y3272589D01*
X7895084Y3155088D01*
X7716522Y3155088D01*
X7646240Y3225370D01*
X7646240Y3312340D01*
X7804203Y3470302D01*
X3876702Y7226302D02*
G01*
X3876702Y8118909D01*
X3330196Y8665415D01*
X3330196Y9956396D01*
X2724762Y12530711D02*
G01*
X2826514Y12428959D01*
X2826514Y11023831D01*
X2923517Y10926828D01*
X2923517Y10777222D01*
X2967763Y10732975D01*
X3142973Y10732975D01*
X3203425Y10672523D01*
X3203425Y8680858D01*
X3632202Y8252081D01*
X3632202Y7270803D01*
X3676703Y7226302D01*
X2274623Y9134096D02*
G01*
X2274623Y11331653D01*
X2255954Y11350322D01*
X3128215Y5957394D02*
G01*
X2882724Y6202885D01*
X2882724Y10892792D01*
X2729765Y11045751D01*
X1649453Y12069269D02*
G01*
X1649453Y11498785D01*
X2216050Y10932187D01*
X2216050Y9109864D01*
X2601521Y8724394D01*
X2601521Y5827219D01*
X3024380Y5404360D01*
X3024380Y4767404D01*
X4374568Y5868037D02*
G01*
X4374568Y7863232D01*
X3650160Y8587640D01*
X3650160Y11330967D01*
X3685694Y11366502D01*
X3822702Y11366502D02*
G01*
X3685694Y11366502D01*
X6769102Y3581402D02*
G01*
X6537454Y3813050D01*
X6044491Y3813050D01*
X3980030Y11021316D02*
G01*
X4433166Y10568180D01*
X4433166Y4012338D01*
X4864102Y3581402D01*
G36*
X1574800Y12566650D02*
G01*
X1581683Y12567056D01*
X1588465Y12568301D01*
X1595069Y12570358D01*
X1601368Y12573203D01*
X1607261Y12576759D01*
X1612696Y12581026D01*
X1617573Y12585903D01*
X1621840Y12591338D01*
X1625396Y12597231D01*
X1628241Y12603530D01*
X1630298Y12610134D01*
X1631543Y12616916D01*
X1631950Y12623800D01*
X1631950Y12623800D01*
X1631543Y12630683D01*
X1630298Y12637490D01*
X1628241Y12644069D01*
X1625396Y12650368D01*
X1621840Y12656261D01*
X1617573Y12661696D01*
X1612696Y12666573D01*
X1607261Y12670840D01*
X1601368Y12674396D01*
X1595069Y12677241D01*
X1588465Y12679299D01*
X1581683Y12680543D01*
X1574800Y12680950D01*
X1574800Y12680950D01*
X1567916Y12680543D01*
X1561134Y12679299D01*
X1554530Y12677241D01*
X1548231Y12674396D01*
X1542338Y12670840D01*
X1536903Y12666573D01*
X1532026Y12661696D01*
X1527759Y12656261D01*
X1524203Y12650368D01*
X1521358Y12644069D01*
X1519301Y12637490D01*
X1518056Y12630683D01*
X1517650Y12623800D01*
X1517650Y12623800D01*
X1518056Y12616916D01*
X1519301Y12610134D01*
X1521358Y12603530D01*
X1524203Y12597231D01*
X1527759Y12591338D01*
X1532026Y12585903D01*
X1536903Y12581026D01*
X1542338Y12576759D01*
X1548231Y12573203D01*
X1554530Y12570358D01*
X1561134Y12568301D01*
X1567916Y12567056D01*
X1574800Y12566650D01*
G37*
G36*
X1574800Y12312650D02*
G01*
X1581683Y12313056D01*
X1588465Y12314301D01*
X1595069Y12316358D01*
X1601368Y12319203D01*
X1607261Y12322759D01*
X1612696Y12327026D01*
X1617573Y12331903D01*
X1621840Y12337338D01*
X1625396Y12343231D01*
X1628241Y12349530D01*
X1630298Y12356134D01*
X1631543Y12362916D01*
X1631950Y12369800D01*
X1631950Y12369800D01*
X1631543Y12376683D01*
X1630298Y12383490D01*
X1628241Y12390069D01*
X1625396Y12396368D01*
X1621840Y12402261D01*
X1617573Y12407696D01*
X1612696Y12412573D01*
X1607261Y12416840D01*
X1601368Y12420396D01*
X1595069Y12423241D01*
X1588465Y12425299D01*
X1581683Y12426543D01*
X1574800Y12426950D01*
X1574800Y12426950D01*
X1567916Y12426543D01*
X1561134Y12425299D01*
X1554530Y12423241D01*
X1548231Y12420396D01*
X1542338Y12416840D01*
X1536903Y12412573D01*
X1532026Y12407696D01*
X1527759Y12402261D01*
X1524203Y12396368D01*
X1521358Y12390069D01*
X1519301Y12383490D01*
X1518056Y12376683D01*
X1517650Y12369800D01*
X1517650Y12369800D01*
X1518056Y12362916D01*
X1519301Y12356134D01*
X1521358Y12349530D01*
X1524203Y12343231D01*
X1527759Y12337338D01*
X1532026Y12331903D01*
X1536903Y12327026D01*
X1542338Y12322759D01*
X1548231Y12319203D01*
X1554530Y12316358D01*
X1561134Y12314301D01*
X1567916Y12313056D01*
X1574800Y12312650D01*
G37*
G36*
X1828800Y12312650D02*
G01*
X1835683Y12313056D01*
X1842465Y12314301D01*
X1849069Y12316358D01*
X1855368Y12319203D01*
X1861261Y12322759D01*
X1866696Y12327026D01*
X1871573Y12331903D01*
X1875840Y12337338D01*
X1879396Y12343231D01*
X1882241Y12349530D01*
X1884298Y12356134D01*
X1885543Y12362916D01*
X1885950Y12369800D01*
X1885950Y12369800D01*
X1885543Y12376683D01*
X1884298Y12383490D01*
X1882241Y12390069D01*
X1879396Y12396368D01*
X1875840Y12402261D01*
X1871573Y12407696D01*
X1866696Y12412573D01*
X1861261Y12416840D01*
X1855368Y12420396D01*
X1849069Y12423241D01*
X1842465Y12425299D01*
X1835683Y12426543D01*
X1828800Y12426950D01*
X1828800Y12426950D01*
X1821916Y12426543D01*
X1815134Y12425299D01*
X1808530Y12423241D01*
X1802231Y12420396D01*
X1796338Y12416840D01*
X1790903Y12412573D01*
X1786026Y12407696D01*
X1781759Y12402261D01*
X1778203Y12396368D01*
X1775358Y12390069D01*
X1773301Y12383490D01*
X1772056Y12376683D01*
X1771650Y12369800D01*
X1771650Y12369800D01*
X1772056Y12362916D01*
X1773301Y12356134D01*
X1775358Y12349530D01*
X1778203Y12343231D01*
X1781759Y12337338D01*
X1786026Y12331903D01*
X1790903Y12327026D01*
X1796338Y12322759D01*
X1802231Y12319203D01*
X1808530Y12316358D01*
X1815134Y12314301D01*
X1821916Y12313056D01*
X1828800Y12312650D01*
G37*
G36*
X1828800Y12566650D02*
G01*
X1835683Y12567056D01*
X1842465Y12568301D01*
X1849069Y12570358D01*
X1855368Y12573203D01*
X1861261Y12576759D01*
X1866696Y12581026D01*
X1871573Y12585903D01*
X1875840Y12591338D01*
X1879396Y12597231D01*
X1882241Y12603530D01*
X1884298Y12610134D01*
X1885543Y12616916D01*
X1885950Y12623800D01*
X1885950Y12623800D01*
X1885543Y12630683D01*
X1884298Y12637490D01*
X1882241Y12644069D01*
X1879396Y12650368D01*
X1875840Y12656261D01*
X1871573Y12661696D01*
X1866696Y12666573D01*
X1861261Y12670840D01*
X1855368Y12674396D01*
X1849069Y12677241D01*
X1842465Y12679299D01*
X1835683Y12680543D01*
X1828800Y12680950D01*
X1828800Y12680950D01*
X1821916Y12680543D01*
X1815134Y12679299D01*
X1808530Y12677241D01*
X1802231Y12674396D01*
X1796338Y12670840D01*
X1790903Y12666573D01*
X1786026Y12661696D01*
X1781759Y12656261D01*
X1778203Y12650368D01*
X1775358Y12644069D01*
X1773301Y12637490D01*
X1772056Y12630683D01*
X1771650Y12623800D01*
X1771650Y12623800D01*
X1772056Y12616916D01*
X1773301Y12610134D01*
X1775358Y12603530D01*
X1778203Y12597231D01*
X1781759Y12591338D01*
X1786026Y12585903D01*
X1790903Y12581026D01*
X1796338Y12576759D01*
X1802231Y12573203D01*
X1808530Y12570358D01*
X1815134Y12568301D01*
X1821916Y12567056D01*
X1828800Y12566650D01*
G37*
G36*
X1797050Y10825479D02*
G01*
X1793976Y10825657D01*
X1790979Y10826216D01*
X1788032Y10827130D01*
X1785238Y10828401D01*
X1782622Y10829975D01*
X1780209Y10831880D01*
X1778025Y10834039D01*
X1776145Y10836452D01*
X1774570Y10839069D01*
X1773301Y10841862D01*
X1772386Y10844809D01*
X1771827Y10847831D01*
X1771650Y10850879D01*
X1771650Y11003279D01*
X1771827Y11006353D01*
X1772386Y11009350D01*
X1773301Y11012296D01*
X1774570Y11015090D01*
X1776145Y11017707D01*
X1778025Y11020120D01*
X1780209Y11022304D01*
X1782622Y11024184D01*
X1785238Y11025784D01*
X1788032Y11027029D01*
X1790979Y11027943D01*
X1793976Y11028502D01*
X1797050Y11028679D01*
X1847850Y11028679D01*
X1850923Y11028502D01*
X1853920Y11027943D01*
X1856867Y11027029D01*
X1859661Y11025784D01*
X1862277Y11024184D01*
X1864690Y11022304D01*
X1866849Y11020120D01*
X1868754Y11017707D01*
X1870329Y11015090D01*
X1871598Y11012296D01*
X1872513Y11009350D01*
X1873072Y11006353D01*
X1873250Y11003279D01*
X1873250Y10850879D01*
X1873072Y10847831D01*
X1872513Y10844809D01*
X1871598Y10841862D01*
X1870329Y10839069D01*
X1868754Y10836452D01*
X1866849Y10834039D01*
X1864690Y10831880D01*
X1862277Y10829975D01*
X1859661Y10828401D01*
X1856867Y10827130D01*
X1853920Y10826216D01*
X1850923Y10825657D01*
X1847850Y10825479D01*
G37*
G36*
X1593850Y11028679D02*
G01*
X1596923Y11028502D01*
X1599920Y11027943D01*
X1602867Y11027029D01*
X1605661Y11025784D01*
X1608277Y11024184D01*
X1610690Y11022304D01*
X1612874Y11020120D01*
X1614754Y11017707D01*
X1616329Y11015090D01*
X1617598Y11012296D01*
X1618513Y11009350D01*
X1619072Y11006353D01*
X1619250Y11003279D01*
X1619250Y10850879D01*
X1619072Y10847831D01*
X1618513Y10844809D01*
X1617598Y10841862D01*
X1616329Y10839069D01*
X1614754Y10836452D01*
X1612874Y10834039D01*
X1610690Y10831880D01*
X1608277Y10829975D01*
X1605661Y10828401D01*
X1602867Y10827130D01*
X1599920Y10826216D01*
X1596923Y10825657D01*
X1593850Y10825479D01*
X1543050Y10825479D01*
X1539976Y10825657D01*
X1536979Y10826216D01*
X1534032Y10827130D01*
X1531238Y10828401D01*
X1528622Y10829975D01*
X1526209Y10831880D01*
X1524050Y10834039D01*
X1522145Y10836452D01*
X1520570Y10839069D01*
X1519301Y10841862D01*
X1518386Y10844809D01*
X1517827Y10847831D01*
X1517650Y10850879D01*
X1517650Y11003279D01*
X1517827Y11006353D01*
X1518386Y11009350D01*
X1519301Y11012296D01*
X1520570Y11015090D01*
X1522145Y11017707D01*
X1524050Y11020120D01*
X1526209Y11022304D01*
X1528622Y11024184D01*
X1531238Y11025784D01*
X1534032Y11027029D01*
X1536979Y11027943D01*
X1539976Y11028502D01*
X1543050Y11028679D01*
G37*
D11*
G01*
X2984500Y3860800D03*
G01*
X2984500Y3660800D03*
G01*
X2984500Y3460800D03*
G01*
X3384499Y3860800D03*
G01*
X3384499Y3660800D03*
G01*
X3384499Y3460800D03*
G01*
X2501900Y3873500D03*
G01*
X2501900Y3673500D03*
G01*
X2501900Y3473500D03*
G01*
X2101900Y3873500D03*
G01*
X2101900Y3673500D03*
G01*
X2101900Y3473500D03*
G01*
X6248400Y3695700D03*
G01*
X6248400Y3495700D03*
G01*
X6248400Y3295700D03*
G01*
X5848400Y3695700D03*
G01*
X5848400Y3495700D03*
G01*
X5848400Y3295700D03*
G01*
X8204200Y3670300D03*
G01*
X8204200Y3470300D03*
G01*
X8204200Y3270300D03*
G01*
X7804200Y3670300D03*
G01*
X7804200Y3470300D03*
G01*
X7804200Y3270300D03*
G01*
X9817100Y4889500D03*
G01*
X9817100Y4689500D03*
G01*
X9817100Y4489500D03*
G01*
X9417100Y4889500D03*
G01*
X9417100Y4689500D03*
G01*
X9417100Y4489500D03*
G01*
X9804400Y6743700D03*
G01*
X9804400Y6543700D03*
G01*
X9804400Y6343700D03*
G01*
X9404400Y6743700D03*
G01*
X9404400Y6543700D03*
G01*
X9404400Y6343700D03*
G01*
X9817100Y8686800D03*
G01*
X9817100Y8486800D03*
G01*
X9817100Y8286800D03*
G01*
X9417100Y8686800D03*
G01*
X9417100Y8486800D03*
G01*
X9417100Y8286800D03*
G01*
X9867900Y10604500D03*
G01*
X9867900Y10404500D03*
G01*
X9867900Y10204500D03*
G01*
X9467900Y10604500D03*
G01*
X9467900Y10404500D03*
G01*
X9467900Y10204500D03*
G01*
X8229600Y12420600D03*
G01*
X8229600Y12220600D03*
G01*
X8229600Y12020600D03*
G01*
X7829600Y12420600D03*
G01*
X7829600Y12220600D03*
G01*
X7829600Y12020600D03*
G01*
X3873500Y3454400D03*
G01*
X3873500Y3654399D03*
G01*
X3873500Y3854399D03*
G01*
X4273499Y3454400D03*
G01*
X4273499Y3654399D03*
G01*
X4273499Y3854399D03*
G01*
X1473200Y3962400D03*
G01*
X1473200Y3762400D03*
G01*
X1473200Y3562400D03*
G01*
X1073200Y3962400D03*
G01*
X1073200Y3762400D03*
G01*
X1073200Y3562400D03*
D12*
G01*
X1409700Y7581900D03*
G01*
X1609699Y7581900D03*
G01*
X1809699Y7581900D03*
G01*
X1409700Y7181900D03*
G01*
X1609699Y7181900D03*
G01*
X1809699Y7181900D03*
D11*
G01*
X1879600Y11950700D03*
G01*
X1879600Y11750700D03*
G01*
X1879600Y11550700D03*
G01*
X1479600Y11950700D03*
G01*
X1479600Y11750700D03*
G01*
X1479600Y11550700D03*
G01*
X6273800Y12420600D03*
G01*
X6273800Y12220600D03*
G01*
X6273800Y12020600D03*
G01*
X5873800Y12420600D03*
G01*
X5873800Y12220600D03*
G01*
X5873800Y12020600D03*
D12*
G01*
X4076700Y7226300D03*
G01*
X3876700Y7226300D03*
G01*
X3676700Y7226300D03*
G01*
X4076700Y6826300D03*
G01*
X3876700Y6826300D03*
G01*
X3676700Y6826300D03*
D13*
G01*
X3505200Y8830792D03*
G01*
X3505200Y7780781D03*
G01*
X3759200Y8830792D03*
G01*
X3759200Y7780781D03*
D14*
G01*
X4914900Y3213100D03*
G01*
X5422900Y3213100D03*
G01*
X6832600Y3187700D03*
G01*
X7340600Y3187700D03*
G01*
X8661400Y3276600D03*
G01*
X9169400Y3276600D03*
G01*
X8648700Y5143500D03*
G01*
X9156700Y5143500D03*
G01*
X6794500Y5118100D03*
G01*
X7302500Y5118100D03*
G01*
X4927600Y5105400D03*
G01*
X5435600Y5105400D03*
G01*
X4914900Y7035800D03*
G01*
X5422900Y7035800D03*
G01*
X6731000Y6997700D03*
G01*
X7239000Y6997700D03*
G01*
X8712200Y6997700D03*
G01*
X9220200Y6997700D03*
G01*
X9194800Y8902700D03*
G01*
X8686800Y8902700D03*
G01*
X6781800Y8928100D03*
G01*
X7289800Y8928100D03*
G01*
X4902200Y8940800D03*
G01*
X5410200Y8940800D03*
G01*
X4914900Y10845800D03*
G01*
X5422900Y10845800D03*
G01*
X6807200Y10820400D03*
G01*
X7315200Y10820400D03*
G01*
X8724900Y10744200D03*
G01*
X9232900Y10744200D03*
D15*
G01*
X927100Y12547600D03*
G01*
X2451100Y11277600D03*
G01*
X2451100Y11531600D03*
G01*
X2451100Y11785600D03*
G01*
X2451100Y12039600D03*
G01*
X2451100Y12293600D03*
G01*
X2451100Y12547600D03*
G01*
X2451100Y11023600D03*
G01*
X927100Y12293600D03*
G01*
X927100Y12039600D03*
G01*
X927100Y11785600D03*
G01*
X927100Y11531600D03*
G01*
X927100Y11277600D03*
G01*
X927100Y11023600D03*
D16*
G01*
X3128213Y5957392D03*
G01*
X3628212Y5957392D03*
G01*
X3128213Y4507407D03*
G01*
X3378200Y4507407D03*
G01*
X3628212Y4507407D03*
D17*
G01*
X2808198Y5257393D03*
G01*
X3948201Y5257393D03*
D16*
G01*
X1235913Y5970092D03*
G01*
X1735912Y5970092D03*
G01*
X1235913Y4520107D03*
G01*
X1485900Y4520107D03*
G01*
X1735912Y4520107D03*
D17*
G01*
X915898Y5270093D03*
G01*
X2055901Y5270093D03*
D18*
G01*
X3060700Y12382500D03*
G01*
X3060700Y12128500D03*
G01*
X3060700Y11874500D03*
G01*
X3060700Y11620500D03*
G01*
X3060700Y11366500D03*
G01*
X3060700Y11112500D03*
G01*
X3060700Y10858500D03*
G01*
X3060700Y10604500D03*
G01*
X3060700Y10350500D03*
G01*
X3060700Y10096500D03*
G01*
X3060700Y9842500D03*
G01*
X3060700Y9588500D03*
G01*
X3060700Y9334500D03*
G01*
X3060700Y9080500D03*
G01*
X3822700Y9080500D03*
G01*
X3822700Y9334500D03*
G01*
X3822700Y9588500D03*
G01*
X3822700Y9842500D03*
G01*
X3822700Y10096500D03*
G01*
X3822700Y10350500D03*
G01*
X3822700Y10604500D03*
G01*
X3822700Y10858500D03*
G01*
X3822700Y11112500D03*
G01*
X3822700Y11366500D03*
G01*
X3822700Y11620500D03*
G01*
X3822700Y11874500D03*
G01*
X3822700Y12128500D03*
G01*
X3822700Y12382500D03*
D16*
G01*
X2226513Y8764092D03*
G01*
X2726512Y8764092D03*
G01*
X2226513Y7314107D03*
G01*
X2476500Y7314107D03*
G01*
X2726512Y7314107D03*
D17*
G01*
X1906498Y8064093D03*
G01*
X3046501Y8064093D03*
D19*
G01*
X5232400Y12230100D03*
D20*
G01*
X4978400Y12230100D03*
D21*
G01*
X5486400Y11468100D03*
G01*
X4851400Y11214100D03*
D19*
G01*
X7150100Y12217400D03*
D20*
G01*
X6896100Y12217400D03*
D21*
G01*
X7404100Y11455400D03*
G01*
X6769100Y11201400D03*
D19*
G01*
X9055100Y10312400D03*
D20*
G01*
X8801100Y10312400D03*
D21*
G01*
X9309100Y9550400D03*
G01*
X8674100Y9296400D03*
D19*
G01*
X9055100Y12217400D03*
D20*
G01*
X8801100Y12217400D03*
D21*
G01*
X9309100Y11455400D03*
G01*
X8674100Y11201400D03*
D19*
G01*
X7150100Y10312400D03*
D20*
G01*
X6896100Y10312400D03*
D21*
G01*
X7404100Y9550400D03*
G01*
X6769100Y9296400D03*
D19*
G01*
X5232400Y10312400D03*
D20*
G01*
X4978400Y10312400D03*
D21*
G01*
X5486400Y9550400D03*
G01*
X4851400Y9296400D03*
D19*
G01*
X9055100Y8407400D03*
D20*
G01*
X8801100Y8407400D03*
D21*
G01*
X9309100Y7645400D03*
G01*
X8674100Y7391400D03*
D19*
G01*
X7150100Y8407400D03*
D20*
G01*
X6896100Y8407400D03*
D21*
G01*
X7404100Y7645400D03*
G01*
X6769100Y7391400D03*
D19*
G01*
X5232400Y8407400D03*
D20*
G01*
X4978400Y8407400D03*
D21*
G01*
X5486400Y7645400D03*
G01*
X4851400Y7391400D03*
D19*
G01*
X9055100Y6502400D03*
D20*
G01*
X8801100Y6502400D03*
D21*
G01*
X9309100Y5740400D03*
G01*
X8674100Y5486400D03*
D19*
G01*
X7150100Y6502400D03*
D20*
G01*
X6896100Y6502400D03*
D21*
G01*
X7404100Y5740400D03*
G01*
X6769100Y5486400D03*
D19*
G01*
X5245100Y6502400D03*
D20*
G01*
X4991100Y6502400D03*
D21*
G01*
X5499100Y5740400D03*
G01*
X4864100Y5486400D03*
D19*
G01*
X5245100Y4597400D03*
D20*
G01*
X4991100Y4597400D03*
D21*
G01*
X5499100Y3835400D03*
G01*
X4864100Y3581400D03*
D19*
G01*
X7150100Y4597400D03*
D20*
G01*
X6896100Y4597400D03*
D21*
G01*
X7404100Y3835400D03*
G01*
X6769100Y3581400D03*
D19*
G01*
X9055100Y4597400D03*
D20*
G01*
X8801100Y4597400D03*
D21*
G01*
X9309100Y3835400D03*
G01*
X8674100Y3581400D03*
D22*
G01*
X3980030Y11021316D03*
G01*
X6044491Y3813050D03*
G01*
X4374568Y5868037D03*
G01*
X1649453Y12069269D03*
G01*
X3024380Y4767404D03*
G01*
X2729765Y11045751D03*
G01*
X2255954Y11350322D03*
G01*
X2274623Y9134096D03*
G01*
X2724762Y12530711D03*
G01*
X3330196Y9956396D03*
G01*
X5663135Y12576279D03*
G01*
X1154864Y12264036D03*
G01*
X1154864Y6353025D03*
G01*
X2351483Y4649751D03*
G01*
X2048080Y10790608D03*
G01*
X2105484Y6298897D03*
G01*
X2164057Y7064123D03*
G01*
X7000318Y5339412D03*
G01*
X6372075Y4996411D03*
G01*
X6273802Y4876802D03*
M02*
