%TF.GenerationSoftware,KiCad,Pcbnew,8.0.8*%
%TF.CreationDate,2025-02-18T22:01:45-08:00*%
%TF.ProjectId,Turtlepad,54757274-6c65-4706-9164-2e6b69636164,rev?*%
%TF.SameCoordinates,Original*%
%TF.FileFunction,Soldermask,Top*%
%TF.FilePolarity,Negative*%
%FSLAX46Y46*%
G04 Gerber Fmt 4.6, Leading zero omitted, Abs format (unit mm)*
G04 Created by KiCad (PCBNEW 8.0.8) date 2025-02-18 22:01:45*
%MOMM*%
%LPD*%
G01*
G04 APERTURE LIST*
G04 Aperture macros list*
%AMRoundRect*
0 Rectangle with rounded corners*
0 $1 Rounding radius*
0 $2 $3 $4 $5 $6 $7 $8 $9 X,Y pos of 4 corners*
0 Add a 4 corners polygon primitive as box body*
4,1,4,$2,$3,$4,$5,$6,$7,$8,$9,$2,$3,0*
0 Add four circle primitives for the rounded corners*
1,1,$1+$1,$2,$3*
1,1,$1+$1,$4,$5*
1,1,$1+$1,$6,$7*
1,1,$1+$1,$8,$9*
0 Add four rect primitives between the rounded corners*
20,1,$1+$1,$2,$3,$4,$5,0*
20,1,$1+$1,$4,$5,$6,$7,0*
20,1,$1+$1,$6,$7,$8,$9,0*
20,1,$1+$1,$8,$9,$2,$3,0*%
G04 Aperture macros list end*
%ADD10C,1.700000*%
%ADD11C,4.000000*%
%ADD12C,2.200000*%
%ADD13R,1.600000X0.850000*%
%ADD14RoundRect,0.152400X0.609600X-1.063600X0.609600X1.063600X-0.609600X1.063600X-0.609600X-1.063600X0*%
%ADD15C,1.524000*%
%ADD16RoundRect,0.152400X-0.609600X1.063600X-0.609600X-1.063600X0.609600X-1.063600X0.609600X1.063600X0*%
%ADD17R,2.000000X2.000000*%
%ADD18C,2.000000*%
%ADD19C,3.200000*%
%ADD20R,1.600000X1.600000*%
%ADD21O,1.600000X1.600000*%
G04 APERTURE END LIST*
D10*
%TO.C,SW8*%
X123507500Y-73818750D03*
D11*
X128587500Y-73818750D03*
D10*
X133667500Y-73818750D03*
D12*
X131127500Y-68738750D03*
X124777500Y-71278750D03*
%TD*%
D13*
%TO.C,D14*%
X153662500Y-124456250D03*
X153662500Y-126206250D03*
X157162500Y-126206250D03*
X157162500Y-124456250D03*
%TD*%
D10*
%TO.C,SW3*%
X85407500Y-92868750D03*
D11*
X90487500Y-92868750D03*
D10*
X95567500Y-92868750D03*
D12*
X93027500Y-87788750D03*
X86677500Y-90328750D03*
%TD*%
D10*
%TO.C,SW12*%
X85407500Y-111918750D03*
D11*
X90487500Y-111918750D03*
D10*
X95567500Y-111918750D03*
D12*
X93027500Y-106838750D03*
X86677500Y-109378750D03*
%TD*%
D10*
%TO.C,SW10*%
X123507500Y-111918750D03*
D11*
X128587500Y-111918750D03*
D10*
X133667500Y-111918750D03*
D12*
X131127500Y-106838750D03*
X124777500Y-109378750D03*
%TD*%
D10*
%TO.C,SW7*%
X123507500Y-54768750D03*
D11*
X128587500Y-54768750D03*
D10*
X133667500Y-54768750D03*
D12*
X131127500Y-49688750D03*
X124777500Y-52228750D03*
%TD*%
D10*
%TO.C,SW5*%
X104457500Y-73818750D03*
D11*
X109537500Y-73818750D03*
D10*
X114617500Y-73818750D03*
D12*
X112077500Y-68738750D03*
X105727500Y-71278750D03*
%TD*%
D14*
%TO.C,U1*%
X157162500Y-103940000D03*
D15*
X157162500Y-104775000D03*
D14*
X154622500Y-103940000D03*
D15*
X154622500Y-104775000D03*
D14*
X152082500Y-103940000D03*
D15*
X152082500Y-104775000D03*
D14*
X149542500Y-103940000D03*
D15*
X149542500Y-104775000D03*
D14*
X147002500Y-103940000D03*
D15*
X147002500Y-104775000D03*
D14*
X144462500Y-103940000D03*
D15*
X144462500Y-104775000D03*
D14*
X141922500Y-103940000D03*
D15*
X141922500Y-104775000D03*
X141922500Y-120015000D03*
D16*
X141922500Y-120850000D03*
D15*
X144462500Y-120015000D03*
D16*
X144462500Y-120850000D03*
D15*
X147002500Y-120015000D03*
D16*
X147002500Y-120850000D03*
D15*
X149542500Y-120015000D03*
D16*
X149542500Y-120850000D03*
D15*
X152082500Y-120015000D03*
D16*
X152082500Y-120850000D03*
D15*
X154622500Y-120015000D03*
D16*
X154622500Y-120850000D03*
D15*
X157162500Y-120015000D03*
D16*
X157162500Y-120850000D03*
%TD*%
D10*
%TO.C,SW4*%
X104140000Y-54768750D03*
D11*
X109220000Y-54768750D03*
D10*
X114300000Y-54768750D03*
D12*
X111760000Y-49688750D03*
X105410000Y-52228750D03*
%TD*%
D10*
%TO.C,SW11*%
X104457500Y-111918750D03*
D11*
X109537500Y-111918750D03*
D10*
X114617500Y-111918750D03*
D12*
X112077500Y-106838750D03*
X105727500Y-109378750D03*
%TD*%
D10*
%TO.C,SW9*%
X123507500Y-92868750D03*
D11*
X128587500Y-92868750D03*
D10*
X133667500Y-92868750D03*
D12*
X131127500Y-87788750D03*
X124777500Y-90328750D03*
%TD*%
D10*
%TO.C,SW1*%
X85407500Y-54768750D03*
D11*
X90487500Y-54768750D03*
D10*
X95567500Y-54768750D03*
D12*
X93027500Y-49688750D03*
X86677500Y-52228750D03*
%TD*%
D10*
%TO.C,SW6*%
X104457500Y-92868750D03*
D11*
X109537500Y-92868750D03*
D10*
X114617500Y-92868750D03*
D12*
X112077500Y-87788750D03*
X105727500Y-90328750D03*
%TD*%
D10*
%TO.C,SW2*%
X85407500Y-73818750D03*
D11*
X90487500Y-73818750D03*
D10*
X95567500Y-73818750D03*
D12*
X93027500Y-68738750D03*
X86677500Y-71278750D03*
%TD*%
D17*
%TO.C,SW15*%
X64187500Y-112637500D03*
D18*
X64187500Y-117637500D03*
X64187500Y-115137500D03*
D19*
X71687500Y-109537500D03*
X71687500Y-120737500D03*
D18*
X78687500Y-117637500D03*
X78687500Y-112637500D03*
%TD*%
D13*
%TO.C,D1*%
X142875000Y-124456250D03*
X142875000Y-126206250D03*
X146375000Y-126206250D03*
X146375000Y-124456250D03*
%TD*%
D20*
%TO.C,D9*%
X100012500Y-83820000D03*
D21*
X100012500Y-91440000D03*
%TD*%
D20*
%TO.C,D11*%
X100012500Y-70008750D03*
D21*
X100012500Y-77628750D03*
%TD*%
D20*
%TO.C,D3*%
X119062500Y-59531250D03*
D21*
X119062500Y-67151250D03*
%TD*%
D20*
%TO.C,D7*%
X100012500Y-106680000D03*
D21*
X100012500Y-114300000D03*
%TD*%
D20*
%TO.C,D6*%
X119062500Y-83343750D03*
D21*
X119062500Y-90963750D03*
%TD*%
D20*
%TO.C,D12*%
X119062500Y-55245000D03*
D21*
X119062500Y-47625000D03*
%TD*%
D20*
%TO.C,D10*%
X119062500Y-70356250D03*
D21*
X119062500Y-77976250D03*
%TD*%
D20*
%TO.C,D8*%
X100012500Y-94773750D03*
D21*
X100012500Y-102393750D03*
%TD*%
D20*
%TO.C,D4*%
X119062500Y-107156250D03*
D21*
X119062500Y-114776250D03*
%TD*%
D20*
%TO.C,D5*%
X119062500Y-95250000D03*
D21*
X119062500Y-102870000D03*
%TD*%
D20*
%TO.C,D13*%
X100012500Y-47625000D03*
D21*
X100012500Y-55245000D03*
%TD*%
D20*
%TO.C,D2*%
X100012500Y-59531250D03*
D21*
X100012500Y-67151250D03*
%TD*%
M02*
