%TF.GenerationSoftware,KiCad,Pcbnew,8.0.8*%
%TF.CreationDate,2025-03-24T18:51:02-07:00*%
%TF.ProjectId,Turtlepad,54757274-6c65-4706-9164-2e6b69636164,rev?*%
%TF.SameCoordinates,Original*%
%TF.FileFunction,Copper,L2,Bot*%
%TF.FilePolarity,Positive*%
%FSLAX46Y46*%
G04 Gerber Fmt 4.6, Leading zero omitted, Abs format (unit mm)*
G04 Created by KiCad (PCBNEW 8.0.8) date 2025-03-24 18:51:02*
%MOMM*%
%LPD*%
G01*
G04 APERTURE LIST*
%TA.AperFunction,ComponentPad*%
%ADD10C,2.200000*%
%TD*%
%TA.AperFunction,ComponentPad*%
%ADD11C,1.524000*%
%TD*%
%TA.AperFunction,ComponentPad*%
%ADD12R,2.000000X2.000000*%
%TD*%
%TA.AperFunction,ComponentPad*%
%ADD13C,2.000000*%
%TD*%
%TA.AperFunction,ComponentPad*%
%ADD14C,3.200000*%
%TD*%
%TA.AperFunction,ComponentPad*%
%ADD15R,1.600000X1.600000*%
%TD*%
%TA.AperFunction,ComponentPad*%
%ADD16O,1.600000X1.600000*%
%TD*%
%TA.AperFunction,ViaPad*%
%ADD17C,0.600000*%
%TD*%
%TA.AperFunction,Conductor*%
%ADD18C,0.200000*%
%TD*%
G04 APERTURE END LIST*
D10*
%TO.P,SW8,1,1*%
%TO.N,Net-(U1-GPIO2{slash}SCK)*%
X131127500Y-68738750D03*
%TO.P,SW8,2,2*%
%TO.N,Net-(D6-A)*%
X124777500Y-71278750D03*
%TD*%
%TO.P,SW3,1,1*%
%TO.N,Net-(U1-GPIO1{slash}RX)*%
X93027500Y-87788750D03*
%TO.P,SW3,2,2*%
%TO.N,Net-(D4-A)*%
X86677500Y-90328750D03*
%TD*%
%TO.P,SW12,1,1*%
%TO.N,Net-(U1-GPIO1{slash}RX)*%
X93027500Y-106838750D03*
%TO.P,SW12,2,2*%
%TO.N,Net-(D12-A)*%
X86677500Y-109378750D03*
%TD*%
%TO.P,SW10,1,1*%
%TO.N,Net-(U1-GPIO4{slash}MISO)*%
X131127500Y-106838750D03*
%TO.P,SW10,2,2*%
%TO.N,Net-(D13-A)*%
X124777500Y-109378750D03*
%TD*%
%TO.P,SW7,1,1*%
%TO.N,Net-(U1-GPIO2{slash}SCK)*%
X131127500Y-49688750D03*
%TO.P,SW7,2,2*%
%TO.N,Net-(D3-A)*%
X124777500Y-52228750D03*
%TD*%
%TO.P,SW5,1,1*%
%TO.N,Net-(U1-GPIO4{slash}MISO)*%
X112077500Y-68738750D03*
%TO.P,SW5,2,2*%
%TO.N,Net-(D8-A)*%
X105727500Y-71278750D03*
%TD*%
D11*
%TO.P,U1,1,GPIO26/ADC0/A0*%
%TO.N,Net-(U1-GPIO26{slash}ADC0{slash}A0)*%
X157162500Y-104775000D03*
%TO.P,U1,2,GPIO27/ADC1/A1*%
%TO.N,Net-(D1-DIN)*%
X154622500Y-104775000D03*
%TO.P,U1,3,GPIO28/ADC2/A2*%
%TO.N,Net-(D2-K)*%
X152082500Y-104775000D03*
%TO.P,U1,4,GPIO29/ADC3/A3*%
%TO.N,Net-(D5-K)*%
X149542500Y-104775000D03*
%TO.P,U1,5,GPIO6/SDA*%
%TO.N,Net-(D10-K)*%
X147002500Y-104775000D03*
%TO.P,U1,6,GPIO7/SCL*%
%TO.N,Net-(D11-K)*%
X144462500Y-104775000D03*
%TO.P,U1,7,GPIO0/TX*%
%TO.N,Net-(U1-GPIO0{slash}TX)*%
X141922500Y-104775000D03*
%TO.P,U1,8,GPIO1/RX*%
%TO.N,Net-(U1-GPIO1{slash}RX)*%
X141922500Y-120015000D03*
%TO.P,U1,9,GPIO2/SCK*%
%TO.N,Net-(U1-GPIO2{slash}SCK)*%
X144462500Y-120015000D03*
%TO.P,U1,10,GPIO4/MISO*%
%TO.N,Net-(U1-GPIO4{slash}MISO)*%
X147002500Y-120015000D03*
%TO.P,U1,11,GPIO3/MOSI*%
%TO.N,Net-(U1-GPIO3{slash}MOSI)*%
X149542500Y-120015000D03*
%TO.P,U1,12,3V3*%
%TO.N,unconnected-(U1-3V3-Pad12)*%
X152082500Y-120015000D03*
%TO.P,U1,13,GND*%
%TO.N,GND*%
X154622500Y-120015000D03*
%TO.P,U1,14,VBUS*%
%TO.N,+5V*%
X157162500Y-120015000D03*
%TD*%
D10*
%TO.P,SW4,1,1*%
%TO.N,Net-(U1-GPIO1{slash}RX)*%
X111760000Y-49688750D03*
%TO.P,SW4,2,2*%
%TO.N,Net-(D7-A)*%
X105410000Y-52228750D03*
%TD*%
%TO.P,SW11,1,1*%
%TO.N,Net-(U1-GPIO2{slash}SCK)*%
X112077500Y-106838750D03*
%TO.P,SW11,2,2*%
%TO.N,Net-(D9-A)*%
X105727500Y-109378750D03*
%TD*%
%TO.P,SW9,1,1*%
%TO.N,Net-(U1-GPIO1{slash}RX)*%
X131127500Y-87788750D03*
%TO.P,SW9,2,2*%
%TO.N,Net-(D10-A)*%
X124777500Y-90328750D03*
%TD*%
%TO.P,SW1,1,1*%
%TO.N,Net-(U1-GPIO4{slash}MISO)*%
X93027500Y-49688750D03*
%TO.P,SW1,2,2*%
%TO.N,Net-(D2-A)*%
X86677500Y-52228750D03*
%TD*%
%TO.P,SW6,1,1*%
%TO.N,Net-(U1-GPIO2{slash}SCK)*%
X112077500Y-87788750D03*
%TO.P,SW6,2,2*%
%TO.N,Net-(D11-A)*%
X105727500Y-90328750D03*
%TD*%
%TO.P,SW2,1,1*%
%TO.N,Net-(U1-GPIO4{slash}MISO)*%
X93027500Y-68738750D03*
%TO.P,SW2,2,2*%
%TO.N,Net-(D5-A)*%
X86677500Y-71278750D03*
%TD*%
D12*
%TO.P,SW15,A,A*%
%TO.N,Net-(U1-GPIO26{slash}ADC0{slash}A0)*%
X64187500Y-112637500D03*
D13*
%TO.P,SW15,B,B*%
%TO.N,Net-(U1-GPIO0{slash}TX)*%
X64187500Y-117637500D03*
%TO.P,SW15,C,C*%
%TO.N,GND*%
X64187500Y-115137500D03*
D14*
%TO.P,SW15,MP*%
%TO.N,N/C*%
X71687500Y-109537500D03*
X71687500Y-120737500D03*
D13*
%TO.P,SW15,S1,S1*%
%TO.N,Net-(U1-GPIO3{slash}MOSI)*%
X78687500Y-117637500D03*
%TO.P,SW15,S2,S2*%
%TO.N,GND*%
X78687500Y-112637500D03*
%TD*%
D15*
%TO.P,D9,1,K*%
%TO.N,Net-(D10-K)*%
X100012500Y-83820000D03*
D16*
%TO.P,D9,2,A*%
%TO.N,Net-(D9-A)*%
X100012500Y-91440000D03*
%TD*%
D15*
%TO.P,D11,1,K*%
%TO.N,Net-(D11-K)*%
X100012500Y-70008750D03*
D16*
%TO.P,D11,2,A*%
%TO.N,Net-(D11-A)*%
X100012500Y-77628750D03*
%TD*%
D15*
%TO.P,D3,1,K*%
%TO.N,Net-(D2-K)*%
X119062500Y-59531250D03*
D16*
%TO.P,D3,2,A*%
%TO.N,Net-(D3-A)*%
X119062500Y-67151250D03*
%TD*%
D15*
%TO.P,D7,1,K*%
%TO.N,Net-(D5-K)*%
X100012500Y-106680000D03*
D16*
%TO.P,D7,2,A*%
%TO.N,Net-(D7-A)*%
X100012500Y-114300000D03*
%TD*%
D15*
%TO.P,D6,1,K*%
%TO.N,Net-(D5-K)*%
X119062500Y-83343750D03*
D16*
%TO.P,D6,2,A*%
%TO.N,Net-(D6-A)*%
X119062500Y-90963750D03*
%TD*%
D15*
%TO.P,D12,1,K*%
%TO.N,Net-(D11-K)*%
X119062500Y-55245000D03*
D16*
%TO.P,D12,2,A*%
%TO.N,Net-(D12-A)*%
X119062500Y-47625000D03*
%TD*%
D15*
%TO.P,D10,1,K*%
%TO.N,Net-(D10-K)*%
X119062500Y-70356250D03*
D16*
%TO.P,D10,2,A*%
%TO.N,Net-(D10-A)*%
X119062500Y-77976250D03*
%TD*%
D15*
%TO.P,D8,1,K*%
%TO.N,Net-(D10-K)*%
X100012500Y-94773750D03*
D16*
%TO.P,D8,2,A*%
%TO.N,Net-(D8-A)*%
X100012500Y-102393750D03*
%TD*%
D15*
%TO.P,D4,1,K*%
%TO.N,Net-(D2-K)*%
X119062500Y-107156250D03*
D16*
%TO.P,D4,2,A*%
%TO.N,Net-(D4-A)*%
X119062500Y-114776250D03*
%TD*%
D15*
%TO.P,D5,1,K*%
%TO.N,Net-(D5-K)*%
X119062500Y-95250000D03*
D16*
%TO.P,D5,2,A*%
%TO.N,Net-(D5-A)*%
X119062500Y-102870000D03*
%TD*%
D15*
%TO.P,D13,1,K*%
%TO.N,Net-(D11-K)*%
X100012500Y-47625000D03*
D16*
%TO.P,D13,2,A*%
%TO.N,Net-(D13-A)*%
X100012500Y-55245000D03*
%TD*%
D15*
%TO.P,D2,1,K*%
%TO.N,Net-(D2-K)*%
X100012500Y-59531250D03*
D16*
%TO.P,D2,2,A*%
%TO.N,Net-(D2-A)*%
X100012500Y-67151250D03*
%TD*%
D17*
%TO.N,+5V*%
X149027467Y-122833717D03*
X150018750Y-128587500D03*
%TO.N,Net-(D3-A)*%
X125678015Y-62440735D03*
%TO.N,Net-(D4-A)*%
X80962500Y-111918750D03*
%TO.N,Net-(D5-A)*%
X102393750Y-88106250D03*
X97631250Y-85725000D03*
%TO.N,Net-(D5-K)*%
X123825000Y-102393750D03*
%TO.N,Net-(D6-A)*%
X120843750Y-79871028D03*
%TO.N,Net-(D8-A)*%
X107156250Y-76200000D03*
%TO.N,Net-(D10-K)*%
X145724500Y-102993750D03*
%TO.N,Net-(D10-A)*%
X116681250Y-78581250D03*
%TO.N,Net-(U1-GPIO4{slash}MISO)*%
X138112500Y-107156250D03*
X137010222Y-108838750D03*
X142394383Y-118353000D03*
%TO.N,Net-(U1-GPIO1{slash}RX)*%
X134540625Y-89296875D03*
%TO.N,Net-(U1-GPIO3{slash}MOSI)*%
X73818750Y-116681250D03*
X69056250Y-119475981D03*
X73818750Y-123825000D03*
%TO.N,GND*%
X66675000Y-119062500D03*
%TD*%
D18*
%TO.N,+5V*%
X150018750Y-128587500D02*
X150018750Y-123825000D01*
X150018750Y-123825000D02*
X149027467Y-122833717D01*
%TO.N,Net-(D2-A)*%
X97631250Y-58589098D02*
X97631250Y-64770000D01*
X91270902Y-52228750D02*
X97631250Y-58589098D01*
X97631250Y-64770000D02*
X100012500Y-67151250D01*
X86677500Y-52228750D02*
X91270902Y-52228750D01*
%TO.N,Net-(D3-A)*%
X125678015Y-62440735D02*
X120967500Y-67151250D01*
X120967500Y-67151250D02*
X119062500Y-67151250D01*
%TO.N,Net-(D4-A)*%
X86677500Y-93295806D02*
X86677500Y-90328750D01*
X80962500Y-111918750D02*
X80962500Y-99010806D01*
X80962500Y-99010806D02*
X86677500Y-93295806D01*
%TO.N,Net-(D5-A)*%
X102393750Y-89048402D02*
X102393750Y-88106250D01*
X119062500Y-102870000D02*
X116215348Y-102870000D01*
X116215348Y-102870000D02*
X102393750Y-89048402D01*
X86677500Y-74771250D02*
X86677500Y-71278750D01*
X97631250Y-85725000D02*
X86677500Y-74771250D01*
%TO.N,Net-(D5-K)*%
X119062500Y-97631250D02*
X119062500Y-95250000D01*
X123825000Y-102393750D02*
X119062500Y-97631250D01*
%TO.N,Net-(D6-A)*%
X122755000Y-69256250D02*
X124777500Y-71278750D01*
X117962500Y-71456250D02*
X117962500Y-69256250D01*
X120843750Y-74337500D02*
X117962500Y-71456250D01*
X120843750Y-79871028D02*
X120843750Y-74337500D01*
X117962500Y-69256250D02*
X122755000Y-69256250D01*
%TO.N,Net-(D7-A)*%
X98912500Y-76113851D02*
X98912500Y-113200000D01*
X105410000Y-52228750D02*
X105410000Y-69616351D01*
X98912500Y-113200000D02*
X100012500Y-114300000D01*
X105410000Y-69616351D02*
X98912500Y-76113851D01*
%TO.N,Net-(D8-A)*%
X107156250Y-72707500D02*
X105727500Y-71278750D01*
X107156250Y-76200000D02*
X107156250Y-72707500D01*
%TO.N,Net-(D10-K)*%
X145724500Y-97732806D02*
X119062500Y-71070806D01*
X145724500Y-102993750D02*
X145724500Y-97732806D01*
X119062500Y-71070806D02*
X119062500Y-70356250D01*
%TO.N,Net-(D9-A)*%
X105727500Y-109378750D02*
X105727500Y-97155000D01*
X105727500Y-97155000D02*
X100012500Y-91440000D01*
%TO.N,Net-(D10-A)*%
X124777500Y-90328750D02*
X123221866Y-90328750D01*
X116681250Y-83788134D02*
X116681250Y-78581250D01*
X123221866Y-90328750D02*
X116681250Y-83788134D01*
%TO.N,Net-(D11-A)*%
X105727500Y-83343750D02*
X105727500Y-90328750D01*
X100012500Y-77628750D02*
X105727500Y-83343750D01*
%TO.N,Net-(D11-K)*%
X146324500Y-103242279D02*
X146324500Y-80125750D01*
X102393750Y-53265101D02*
X102393750Y-67627500D01*
X114906250Y-51088750D02*
X106249899Y-51088750D01*
X103886149Y-48725000D02*
X106249899Y-51088750D01*
X144462500Y-104775000D02*
X144791779Y-104775000D01*
X104830101Y-50828750D02*
X102393750Y-53265101D01*
X119062500Y-55245000D02*
X114906250Y-51088750D01*
X102393750Y-67627500D02*
X100012500Y-70008750D01*
X146324500Y-80125750D02*
X121443750Y-55245000D01*
X105989899Y-50828750D02*
X104830101Y-50828750D01*
X106249899Y-51088750D02*
X105989899Y-50828750D01*
X121443750Y-55245000D02*
X119062500Y-55245000D01*
X144791779Y-104775000D02*
X146324500Y-103242279D01*
X101112500Y-48725000D02*
X103886149Y-48725000D01*
X100012500Y-47625000D02*
X101112500Y-48725000D01*
%TO.N,Net-(D13-A)*%
X108694556Y-109378750D02*
X124777500Y-109378750D01*
X99556865Y-115400000D02*
X102673306Y-115400000D01*
X87257399Y-54788548D02*
X87257399Y-59453649D01*
X88077500Y-51648851D02*
X87257399Y-50828750D01*
X85277500Y-51648851D02*
X85277500Y-52808649D01*
X86097601Y-50828750D02*
X85277500Y-51648851D01*
X100012500Y-55245000D02*
X96416351Y-51648851D01*
X102673306Y-115400000D02*
X108694556Y-109378750D01*
X98512500Y-114355635D02*
X99556865Y-115400000D01*
X96416351Y-51648851D02*
X88077500Y-51648851D01*
X87257399Y-50828750D02*
X86097601Y-50828750D01*
X87257399Y-59453649D02*
X98512500Y-70708750D01*
X98512500Y-70708750D02*
X98512500Y-114355635D01*
X85277500Y-52808649D02*
X87257399Y-54788548D01*
%TO.N,Net-(U1-GPIO4{slash}MISO)*%
X112077500Y-68738750D02*
X111918750Y-68897500D01*
X138112500Y-107156250D02*
X138112500Y-107736472D01*
X138112500Y-107736472D02*
X137010222Y-108838750D01*
X111918750Y-68897500D02*
X111918750Y-69056250D01*
X142394383Y-118353000D02*
X142800500Y-118353000D01*
X143400500Y-116413000D02*
X147002500Y-120015000D01*
X142800500Y-117013000D02*
X143400500Y-116413000D01*
X112077500Y-68738750D02*
X112077500Y-73035348D01*
X112077500Y-73035348D02*
X143400500Y-104358348D01*
X142800500Y-118353000D02*
X142800500Y-117013000D01*
X143400500Y-104358348D02*
X143400500Y-116413000D01*
%TO.N,Net-(U1-GPIO1{slash}RX)*%
X133032500Y-87788750D02*
X131127500Y-87788750D01*
X134540625Y-89296875D02*
X133032500Y-87788750D01*
%TO.N,Net-(U1-GPIO3{slash}MOSI)*%
X79829000Y-123825000D02*
X73818750Y-123825000D01*
X82577000Y-121077000D02*
X79829000Y-123825000D01*
X149542500Y-120015000D02*
X148480500Y-121077000D01*
X71850981Y-116681250D02*
X73818750Y-116681250D01*
X148480500Y-121077000D02*
X82577000Y-121077000D01*
X69056250Y-119475981D02*
X71850981Y-116681250D01*
%TO.N,Net-(U1-GPIO0{slash}TX)*%
X121564365Y-110718750D02*
X113220615Y-119062500D01*
X141922500Y-104775000D02*
X137160000Y-109537500D01*
X125357399Y-110778750D02*
X124197601Y-110778750D01*
X72356250Y-114337500D02*
X69056250Y-117637500D01*
X126598649Y-109537500D02*
X125357399Y-110778750D01*
X124197601Y-110778750D02*
X124137601Y-110718750D01*
X69056250Y-117637500D02*
X64187500Y-117637500D01*
X72431250Y-114337500D02*
X72356250Y-114337500D01*
X137160000Y-109537500D02*
X126598649Y-109537500D01*
X77156250Y-119062500D02*
X72431250Y-114337500D01*
X124137601Y-110718750D02*
X121564365Y-110718750D01*
X113220615Y-119062500D02*
X77156250Y-119062500D01*
%TO.N,GND*%
X62887500Y-116437500D02*
X62887500Y-118175978D01*
X64187500Y-115137500D02*
X62887500Y-116437500D01*
X65387500Y-113937500D02*
X64187500Y-115137500D01*
X77387500Y-113937500D02*
X65387500Y-113937500D01*
X63774022Y-119062500D02*
X66675000Y-119062500D01*
X62887500Y-118175978D02*
X63774022Y-119062500D01*
X78687500Y-112637500D02*
X77387500Y-113937500D01*
%TD*%
M02*
