  0
SECTION
  2
HEADER
  9
$ACADVER
  1
AC1009
  9
$FILLMODE
 70
 0
  9
$SPLFRAME
 70
 1
  9
$EXTMIN
 10
0
 20
0
 30
0.0
  9
$EXTMAX
 10
1058.33
 20
1058.33
 30
0.0
  0
ENDSEC
  0
SECTION
  2
TABLES
  0
TABLE
  2
LAYER
 70
1
  0
LAYER
  2
0
 70
     0
 62
     7
  6
CONTINUOUS
  0
ENDTAB
  0
ENDSEC
  0
SECTION
  2
ENTITIES
  0
LINE
  8
0
 62
     0
 10
0.0950846
 20
151.599
 30
0.0
 11
118.295
 21
151.599
 31
0.0
  0
LINE
  8
0
 62
     0
 10
118.295
 20
151.599
 30
0.0
 11
118.295
 21
0.100597
 31
0.0
  0
LINE
  8
0
 62
     0
 10
118.295
 20
0.100597
 30
0.0
 11
0.0950846
 21
0.100597
 31
0.0
  0
LINE
  8
0
 62
     0
 10
0.0950846
 20
0.100597
 30
0.0
 11
0.0950846
 21
151.599
 31
0.0
  0
LINE
  8
0
 62
     0
 10
23.6196
 20
42.5457
 30
0.0
 11
37.6192
 21
42.5457
 31
0.0
  0
LINE
  8
0
 62
     0
 10
37.6192
 20
42.5457
 30
0.0
 11
37.6192
 21
28.5447
 31
0.0
  0
LINE
  8
0
 62
     0
 10
37.6192
 20
28.5447
 30
0.0
 11
23.6196
 21
28.5447
 31
0.0
  0
LINE
  8
0
 62
     0
 10
23.6196
 20
28.5447
 30
0.0
 11
23.6196
 21
42.5457
 31
0.0
  0
LINE
  8
0
 62
     0
 10
42.6695
 20
42.5457
 30
0.0
 11
56.6692
 21
42.5457
 31
0.0
  0
LINE
  8
0
 62
     0
 10
56.6692
 20
42.5457
 30
0.0
 11
56.6692
 21
28.5447
 31
0.0
  0
LINE
  8
0
 62
     0
 10
56.6692
 20
28.5447
 30
0.0
 11
42.6695
 21
28.5447
 31
0.0
  0
LINE
  8
0
 62
     0
 10
42.6695
 20
28.5447
 30
0.0
 11
42.6695
 21
42.5457
 31
0.0
  0
LINE
  8
0
 62
     0
 10
61.7195
 20
42.5457
 30
0.0
 11
75.7192
 21
42.5457
 31
0.0
  0
LINE
  8
0
 62
     0
 10
75.7192
 20
42.5457
 30
0.0
 11
75.7192
 21
28.5447
 31
0.0
  0
LINE
  8
0
 62
     0
 10
75.7192
 20
28.5447
 30
0.0
 11
61.7195
 21
28.5447
 31
0.0
  0
LINE
  8
0
 62
     0
 10
61.7195
 20
28.5447
 30
0.0
 11
61.7195
 21
42.5457
 31
0.0
  0
LINE
  8
0
 62
     0
 10
80.7695
 20
42.5457
 30
0.0
 11
94.7692
 21
42.5457
 31
0.0
  0
LINE
  8
0
 62
     0
 10
94.7692
 20
42.5457
 30
0.0
 11
94.7692
 21
28.5447
 31
0.0
  0
LINE
  8
0
 62
     0
 10
94.7692
 20
28.5447
 30
0.0
 11
80.7695
 21
28.5447
 31
0.0
  0
LINE
  8
0
 62
     0
 10
80.7695
 20
28.5447
 30
0.0
 11
80.7695
 21
42.5457
 31
0.0
  0
LINE
  8
0
 62
     0
 10
23.6196
 20
61.5957
 30
0.0
 11
37.6192
 21
61.5957
 31
0.0
  0
LINE
  8
0
 62
     0
 10
37.6192
 20
61.5957
 30
0.0
 11
37.6192
 21
47.5947
 31
0.0
  0
LINE
  8
0
 62
     0
 10
37.6192
 20
47.5947
 30
0.0
 11
23.6196
 21
47.5947
 31
0.0
  0
LINE
  8
0
 62
     0
 10
23.6196
 20
47.5947
 30
0.0
 11
23.6196
 21
61.5957
 31
0.0
  0
LINE
  8
0
 62
     0
 10
42.6695
 20
61.5957
 30
0.0
 11
56.6692
 21
61.5957
 31
0.0
  0
LINE
  8
0
 62
     0
 10
56.6692
 20
61.5957
 30
0.0
 11
56.6692
 21
47.5947
 31
0.0
  0
LINE
  8
0
 62
     0
 10
56.6692
 20
47.5947
 30
0.0
 11
42.6695
 21
47.5947
 31
0.0
  0
LINE
  8
0
 62
     0
 10
42.6695
 20
47.5947
 30
0.0
 11
42.6695
 21
61.5957
 31
0.0
  0
LINE
  8
0
 62
     0
 10
61.7195
 20
61.5957
 30
0.0
 11
75.7192
 21
61.5957
 31
0.0
  0
LINE
  8
0
 62
     0
 10
75.7192
 20
61.5957
 30
0.0
 11
75.7192
 21
47.5947
 31
0.0
  0
LINE
  8
0
 62
     0
 10
75.7192
 20
47.5947
 30
0.0
 11
61.7195
 21
47.5947
 31
0.0
  0
LINE
  8
0
 62
     0
 10
61.7195
 20
47.5947
 30
0.0
 11
61.7195
 21
61.5957
 31
0.0
  0
LINE
  8
0
 62
     0
 10
80.7695
 20
61.5957
 30
0.0
 11
94.7692
 21
61.5957
 31
0.0
  0
LINE
  8
0
 62
     0
 10
94.7692
 20
61.5957
 30
0.0
 11
94.7692
 21
47.5947
 31
0.0
  0
LINE
  8
0
 62
     0
 10
94.7692
 20
47.5947
 30
0.0
 11
80.7695
 21
47.5947
 31
0.0
  0
LINE
  8
0
 62
     0
 10
80.7695
 20
47.5947
 30
0.0
 11
80.7695
 21
61.5957
 31
0.0
  0
LINE
  8
0
 62
     0
 10
23.6196
 20
80.6457
 30
0.0
 11
37.6192
 21
80.6457
 31
0.0
  0
LINE
  8
0
 62
     0
 10
37.6192
 20
80.6457
 30
0.0
 11
37.6192
 21
66.6447
 31
0.0
  0
LINE
  8
0
 62
     0
 10
37.6192
 20
66.6447
 30
0.0
 11
23.6196
 21
66.6447
 31
0.0
  0
LINE
  8
0
 62
     0
 10
23.6196
 20
66.6447
 30
0.0
 11
23.6196
 21
80.6457
 31
0.0
  0
LINE
  8
0
 62
     0
 10
42.6695
 20
80.6457
 30
0.0
 11
56.6692
 21
80.6457
 31
0.0
  0
LINE
  8
0
 62
     0
 10
56.6692
 20
80.6457
 30
0.0
 11
56.6692
 21
66.6447
 31
0.0
  0
LINE
  8
0
 62
     0
 10
56.6692
 20
66.6447
 30
0.0
 11
42.6695
 21
66.6447
 31
0.0
  0
LINE
  8
0
 62
     0
 10
42.6695
 20
66.6447
 30
0.0
 11
42.6695
 21
80.6457
 31
0.0
  0
LINE
  8
0
 62
     0
 10
61.7195
 20
80.6457
 30
0.0
 11
75.7192
 21
80.6457
 31
0.0
  0
LINE
  8
0
 62
     0
 10
75.7192
 20
80.6457
 30
0.0
 11
75.7192
 21
66.6447
 31
0.0
  0
LINE
  8
0
 62
     0
 10
75.7192
 20
66.6447
 30
0.0
 11
61.7195
 21
66.6447
 31
0.0
  0
LINE
  8
0
 62
     0
 10
61.7195
 20
66.6447
 30
0.0
 11
61.7195
 21
80.6457
 31
0.0
  0
LINE
  8
0
 62
     0
 10
80.7695
 20
80.6457
 30
0.0
 11
94.7692
 21
80.6457
 31
0.0
  0
LINE
  8
0
 62
     0
 10
94.7692
 20
80.6457
 30
0.0
 11
94.7692
 21
66.6447
 31
0.0
  0
LINE
  8
0
 62
     0
 10
94.7692
 20
66.6447
 30
0.0
 11
80.7695
 21
66.6447
 31
0.0
  0
LINE
  8
0
 62
     0
 10
80.7695
 20
66.6447
 30
0.0
 11
80.7695
 21
80.6457
 31
0.0
  0
LINE
  8
0
 62
     0
 10
23.6196
 20
99.6957
 30
0.0
 11
37.6192
 21
99.6957
 31
0.0
  0
LINE
  8
0
 62
     0
 10
37.6192
 20
99.6957
 30
0.0
 11
37.6192
 21
85.6947
 31
0.0
  0
LINE
  8
0
 62
     0
 10
37.6192
 20
85.6947
 30
0.0
 11
23.6196
 21
85.6947
 31
0.0
  0
LINE
  8
0
 62
     0
 10
23.6196
 20
85.6947
 30
0.0
 11
23.6196
 21
99.6957
 31
0.0
  0
LINE
  8
0
 62
     0
 10
42.6695
 20
99.6957
 30
0.0
 11
56.6692
 21
99.6957
 31
0.0
  0
LINE
  8
0
 62
     0
 10
56.6692
 20
99.6957
 30
0.0
 11
56.6692
 21
85.6947
 31
0.0
  0
LINE
  8
0
 62
     0
 10
56.6692
 20
85.6947
 30
0.0
 11
42.6695
 21
85.6947
 31
0.0
  0
LINE
  8
0
 62
     0
 10
42.6695
 20
85.6947
 30
0.0
 11
42.6695
 21
99.6957
 31
0.0
  0
LINE
  8
0
 62
     0
 10
61.7195
 20
99.6957
 30
0.0
 11
75.7192
 21
99.6957
 31
0.0
  0
LINE
  8
0
 62
     0
 10
75.7192
 20
99.6957
 30
0.0
 11
75.7192
 21
85.6947
 31
0.0
  0
LINE
  8
0
 62
     0
 10
75.7192
 20
85.6947
 30
0.0
 11
61.7195
 21
85.6947
 31
0.0
  0
LINE
  8
0
 62
     0
 10
61.7195
 20
85.6947
 30
0.0
 11
61.7195
 21
99.6957
 31
0.0
  0
LINE
  8
0
 62
     0
 10
80.7695
 20
99.6957
 30
0.0
 11
94.7692
 21
99.6957
 31
0.0
  0
LINE
  8
0
 62
     0
 10
94.7692
 20
99.6957
 30
0.0
 11
94.7692
 21
85.6947
 31
0.0
  0
LINE
  8
0
 62
     0
 10
94.7692
 20
85.6947
 30
0.0
 11
80.7695
 21
85.6947
 31
0.0
  0
LINE
  8
0
 62
     0
 10
80.7695
 20
85.6947
 30
0.0
 11
80.7695
 21
99.6957
 31
0.0
  0
ENDSEC
  0
EOF
