0
SECTION
2
HEADER
9
$INSUNITS
70
4
9
$ACADVER
1
AC1014
9
$HANDSEED
5
FFFF
0
ENDSEC
0
SECTION
2
TABLES
0
TABLE
2
VPORT
5
8
100
AcDbSymbolTable
0
ENDTAB
0
TABLE
2
LTYPE
5
5
100
AcDbSymbolTable
0
LTYPE
5
14
100
AcDbSymbolTableRecord
100
AcDbLinetypeTableRecord
2
BYBLOCK
70
0
0
LTYPE
5
15
100
AcDbSymbolTableRecord
100
AcDbLinetypeTableRecord
2
BYLAYER
70
0
0
ENDTAB
0
TABLE
2
LAYER
5
2
100
AcDbSymbolTable
70
2
0
LAYER
5
50
100
AcDbSymbolTableRecord
100
AcDbLayerTableRecord
2
0
70
0
6
CONTINUOUS
0
ENDTAB
0
TABLE
2
STYLE
5
3
100
AcDbSymbolTable
70
1
0
STYLE
5
11
100
AcDbSymbolTableRecord
100
AcDbTextStyleTableRecord
2
STANDARD
70
0
0
ENDTAB
0
TABLE
2
VIEW
5
6
100
AcDbSymbolTable
70
0
0
ENDTAB
0
TABLE
2
UCS
5
7
100
AcDbSymbolTable
70
0
0
ENDTAB
0
TABLE
2
APPID
5
9
100
AcDbSymbolTable
70
2
0
APPID
5
12
100
AcDbSymbolTableRecord
100
AcDbRegAppTableRecord
2
ACAD
70
0
0
ENDTAB
0
TABLE
2
DIMSTYLE
5
A
100
AcDbSymbolTable
70
1
0
ENDTAB
0
TABLE
2
BLOCK_RECORD
5
1
100
AcDbSymbolTable
70
1
0
BLOCK_RECORD
5
1F
100
AcDbSymbolTableRecord
100
AcDbBlockTableRecord
2
*MODEL_SPACE
0
BLOCK_RECORD
5
1B
100
AcDbSymbolTableRecord
100
AcDbBlockTableRecord
2
*PAPER_SPACE
0
ENDTAB
0
ENDSEC
0
SECTION
2
BLOCKS
0
BLOCK
5
20
100
AcDbEntity
100
AcDbBlockBegin
2
*MODEL_SPACE
0
ENDBLK
5
21
100
AcDbEntity
100
AcDbBlockEnd
0
BLOCK
5
1C
100
AcDbEntity
100
AcDbBlockBegin
2
*PAPER_SPACE
0
ENDBLK
5
1D
100
AcDbEntity
100
AcDbBlockEnd
0
ENDSEC
0
SECTION
2
ENTITIES
0
LWPOLYLINE
5
100
100
AcDbEntity
8
0
100
AcDbPolyline
90
8
70
1
43
0.0
10
-203.799999999997
20
126.37866700000001
10
-203.79999999999131
20
61.621319999999997
42
0.41421066666739115
10
-200.80000000000001
20
58.621319999998676
10
-93.800000000000011
20
58.621319999999997
42
0.41421333333392846
10
-90.800000000006975
20
61.621319999999997
10
-90.799999999999997
20
126.37866700000001
42
0.41420900000094402
10
-93.800000000000011
20
129.37866699997801
10
-200.80000000000001
20
129.37866700000001
42
0.4142246666640646
0
LWPOLYLINE
5
101
100
AcDbEntity
8
0
100
AcDbPolyline
90
4
70
1
43
0.0
10
-114.05000000000001
20
106.56999999999999
10
-114.05000000000001
20
120.57000000000001
10
-100.05000000000001
20
120.57000000000001
10
-100.05000000000001
20
106.56999999999999
0
LWPOLYLINE
5
102
100
AcDbEntity
8
0
100
AcDbPolyline
90
4
70
1
43
0.0
10
-133.66499999999999
20
106.56
10
-133.66499999999999
20
120.56
10
-119.66500000000002
20
120.56
10
-119.66500000000002
20
106.56
0
LWPOLYLINE
5
103
100
AcDbEntity
8
0
100
AcDbPolyline
90
4
70
1
43
0.0
10
-153.29000000000002
20
106.58000000000001
10
-153.29000000000002
20
120.58
10
-139.28999999999999
20
120.58
10
-139.28999999999999
20
106.58000000000001
0
LWPOLYLINE
5
104
100
AcDbEntity
8
0
100
AcDbPolyline
90
4
70
1
43
0.0
10
-172.93000000000004
20
106.59
10
-172.93000000000004
20
120.59
10
-158.93000000000001
20
120.59
10
-158.93000000000001
20
106.59
0
LWPOLYLINE
5
105
100
AcDbEntity
8
0
100
AcDbPolyline
90
4
70
1
43
0.0
10
-114.06999999999999
20
86.950000000000003
10
-114.06999999999999
20
100.95
10
-100.06999999999999
20
100.95
10
-100.06999999999999
20
86.950000000000003
0
LWPOLYLINE
5
106
100
AcDbEntity
8
0
100
AcDbPolyline
90
4
70
1
43
0.0
10
-133.69
20
86.940000000000012
10
-133.69
20
100.94000000000001
10
-119.69000000000001
20
100.94000000000001
10
-119.69000000000001
20
86.940000000000012
0
LWPOLYLINE
5
107
100
AcDbEntity
8
0
100
AcDbPolyline
90
4
70
1
43
0.0
10
-153.31999999999999
20
86.950000000000003
10
-153.31999999999999
20
100.95
10
-139.31999999999999
20
100.95
10
-139.31999999999999
20
86.950000000000003
0
LWPOLYLINE
5
108
100
AcDbEntity
8
0
100
AcDbPolyline
90
4
70
1
43
0.0
10
-114.06999999999999
20
67.390000000000015
10
-114.06999999999999
20
81.390000000000015
10
-100.06999999999999
20
81.390000000000015
10
-100.06999999999999
20
67.390000000000015
0
LWPOLYLINE
5
109
100
AcDbEntity
8
0
100
AcDbPolyline
90
4
70
1
43
0.0
10
-133.68000000000001
20
67.360000000000014
10
-133.68000000000001
20
81.360000000000014
10
-119.68000000000002
20
81.360000000000014
10
-119.68000000000002
20
67.360000000000014
0
LWPOLYLINE
5
110
100
AcDbEntity
8
0
100
AcDbPolyline
90
4
70
1
43
0.0
10
-153.31999999999999
20
67.360000000000014
10
-153.31999999999999
20
81.360000000000014
10
-139.31999999999999
20
81.360000000000014
10
-139.31999999999999
20
67.360000000000014
0
LWPOLYLINE
5
111
100
AcDbEntity
8
0
100
AcDbPolyline
90
4
70
1
43
0.0
10
-172.91999999999999
20
86.950000000000003
10
-172.91999999999999
20
100.95
10
-158.91999999999999
20
100.95
10
-158.91999999999999
20
86.950000000000003
0
LWPOLYLINE
5
112
100
AcDbEntity
8
0
100
AcDbPolyline
90
4
70
1
43
0.0
10
-172.93000000000004
20
67.300000000000011
10
-172.93000000000004
20
81.300000000000011
10
-158.93000000000001
20
81.300000000000011
10
-158.93000000000001
20
67.300000000000011
0
LWPOLYLINE
5
113
100
AcDbEntity
8
0
100
AcDbPolyline
90
20
70
1
43
0.0
10
-186.43504024116868
20
102.00000151991844
42
0.36927181541846954
10
-187.08495975883127
20
102.00000151991844
10
-188.97504024116873
20
102.00000151991844
42
0.36927181541847609
10
-189.62495975883132
20
102.00000151991843
10
-191.51504024116872
20
102.00000151991843
42
0.3692718154184827
10
-192.16495975883132
20
102.00000151991843
10
-192.50000292807817
20
102.00000151991843
42
0.4142135623731002
10
-196.50000292807817
20
98.000001519918442
10
-196.50000292807817
20
94.295795575116585
42
0.1690257601119689
10
-196.50000292807817
20
93.704204424883415
10
-196.50000292807817
20
90.000001281499863
42
0.4142135623731002
10
-192.50000292807817
20
86.000001281499863
10
-192.16496303472593
20
86.000001281499848
42
0.36927671358402614
10
-191.51503696527413
20
86.000001281499863
10
-187.08496303472589
20
86.000001281499848
42
0.36927671358402614
10
-186.43503696527409
20
86.000001281499863
10
-186.00000271201134
20
86.000001281499863
42
0.4142135623731002
10
-182.00000271201134
20
90.000001281499863
10
-182.00000271201134
20
98.000001519918442
42
0.4142135623731002
10
-186.00000271201134
20
102.00000151991844
0
CIRCLE
5
114
100
AcDbEntity
8
0
100
AcDbCircle
10
-94.800000000000011
20
125.5
30
0
40
1.0999999999999943
210
0
220
0
230
1
0
CIRCLE
5
115
100
AcDbEntity
8
0
100
AcDbCircle
10
-199.80000000000004
20
125.5
30
0
40
1.0999999999999943
210
0
220
0
230
1
0
CIRCLE
5
116
100
AcDbEntity
8
0
100
AcDbCircle
10
-95
20
84.079999999999998
30
0
40
0.39999999999999147
210
0
220
0
230
1
0
CIRCLE
5
117
100
AcDbEntity
8
0
100
AcDbCircle
10
-95
20
73.920000000000002
30
0
40
0.39999999999999147
210
0
220
0
230
1
0
CIRCLE
5
118
100
AcDbEntity
8
0
100
AcDbCircle
10
-94.800000000000011
20
62.5
30
0
40
1.0999999999999943
210
0
220
0
230
1
0
CIRCLE
5
119
100
AcDbEntity
8
0
100
AcDbCircle
10
-199.80000000000004
20
62.5
30
0
40
1.0999999999999943
210
0
220
0
230
1
0
ENDSEC
0
SECTION
2
OBJECTS
0
DICTIONARY
5
C
100
AcDbDictionary
3
ACAD_GROUP
350
D
3
ACAD_MLINESTYLE
350
17
0
DICTIONARY
5
D
100
AcDbDictionary
0
DICTIONARY
5
1A
330
C
100
AcDbDictionary
0
DICTIONARY
5
17
100
AcDbDictionary
0
ENDSEC
0
EOF
