%TF.GenerationSoftware,KiCad,Pcbnew,8.0.5*%
%TF.CreationDate,2024-10-19T19:52:03+11:00*%
%TF.ProjectId,Hackpad,4861636b-7061-4642-9e6b-696361645f70,rev?*%
%TF.SameCoordinates,Original*%
%TF.FileFunction,Legend,Top*%
%TF.FilePolarity,Positive*%
%FSLAX46Y46*%
G04 Gerber Fmt 4.6, Leading zero omitted, Abs format (unit mm)*
G04 Created by KiCad (PCBNEW 8.0.5) date 2024-10-19 19:52:03*
%MOMM*%
%LPD*%
G01*
G04 APERTURE LIST*
%ADD10C,0.150000*%
%ADD11C,0.203200*%
%ADD12C,0.120000*%
%ADD13C,0.040000*%
G04 APERTURE END LIST*
D10*
X118086667Y-94533200D02*
X118229524Y-94580819D01*
X118229524Y-94580819D02*
X118467619Y-94580819D01*
X118467619Y-94580819D02*
X118562857Y-94533200D01*
X118562857Y-94533200D02*
X118610476Y-94485580D01*
X118610476Y-94485580D02*
X118658095Y-94390342D01*
X118658095Y-94390342D02*
X118658095Y-94295104D01*
X118658095Y-94295104D02*
X118610476Y-94199866D01*
X118610476Y-94199866D02*
X118562857Y-94152247D01*
X118562857Y-94152247D02*
X118467619Y-94104628D01*
X118467619Y-94104628D02*
X118277143Y-94057009D01*
X118277143Y-94057009D02*
X118181905Y-94009390D01*
X118181905Y-94009390D02*
X118134286Y-93961771D01*
X118134286Y-93961771D02*
X118086667Y-93866533D01*
X118086667Y-93866533D02*
X118086667Y-93771295D01*
X118086667Y-93771295D02*
X118134286Y-93676057D01*
X118134286Y-93676057D02*
X118181905Y-93628438D01*
X118181905Y-93628438D02*
X118277143Y-93580819D01*
X118277143Y-93580819D02*
X118515238Y-93580819D01*
X118515238Y-93580819D02*
X118658095Y-93628438D01*
X118991429Y-93580819D02*
X119229524Y-94580819D01*
X119229524Y-94580819D02*
X119420000Y-93866533D01*
X119420000Y-93866533D02*
X119610476Y-94580819D01*
X119610476Y-94580819D02*
X119848572Y-93580819D01*
X120658095Y-93580819D02*
X120467619Y-93580819D01*
X120467619Y-93580819D02*
X120372381Y-93628438D01*
X120372381Y-93628438D02*
X120324762Y-93676057D01*
X120324762Y-93676057D02*
X120229524Y-93818914D01*
X120229524Y-93818914D02*
X120181905Y-94009390D01*
X120181905Y-94009390D02*
X120181905Y-94390342D01*
X120181905Y-94390342D02*
X120229524Y-94485580D01*
X120229524Y-94485580D02*
X120277143Y-94533200D01*
X120277143Y-94533200D02*
X120372381Y-94580819D01*
X120372381Y-94580819D02*
X120562857Y-94580819D01*
X120562857Y-94580819D02*
X120658095Y-94533200D01*
X120658095Y-94533200D02*
X120705714Y-94485580D01*
X120705714Y-94485580D02*
X120753333Y-94390342D01*
X120753333Y-94390342D02*
X120753333Y-94152247D01*
X120753333Y-94152247D02*
X120705714Y-94057009D01*
X120705714Y-94057009D02*
X120658095Y-94009390D01*
X120658095Y-94009390D02*
X120562857Y-93961771D01*
X120562857Y-93961771D02*
X120372381Y-93961771D01*
X120372381Y-93961771D02*
X120277143Y-94009390D01*
X120277143Y-94009390D02*
X120229524Y-94057009D01*
X120229524Y-94057009D02*
X120181905Y-94152247D01*
X122084819Y-51166666D02*
X121608628Y-51499999D01*
X122084819Y-51738094D02*
X121084819Y-51738094D01*
X121084819Y-51738094D02*
X121084819Y-51357142D01*
X121084819Y-51357142D02*
X121132438Y-51261904D01*
X121132438Y-51261904D02*
X121180057Y-51214285D01*
X121180057Y-51214285D02*
X121275295Y-51166666D01*
X121275295Y-51166666D02*
X121418152Y-51166666D01*
X121418152Y-51166666D02*
X121513390Y-51214285D01*
X121513390Y-51214285D02*
X121561009Y-51261904D01*
X121561009Y-51261904D02*
X121608628Y-51357142D01*
X121608628Y-51357142D02*
X121608628Y-51738094D01*
X122084819Y-50214285D02*
X122084819Y-50785713D01*
X122084819Y-50499999D02*
X121084819Y-50499999D01*
X121084819Y-50499999D02*
X121227676Y-50595237D01*
X121227676Y-50595237D02*
X121322914Y-50690475D01*
X121322914Y-50690475D02*
X121370533Y-50785713D01*
X136650476Y-94573200D02*
X136793333Y-94620819D01*
X136793333Y-94620819D02*
X137031428Y-94620819D01*
X137031428Y-94620819D02*
X137126666Y-94573200D01*
X137126666Y-94573200D02*
X137174285Y-94525580D01*
X137174285Y-94525580D02*
X137221904Y-94430342D01*
X137221904Y-94430342D02*
X137221904Y-94335104D01*
X137221904Y-94335104D02*
X137174285Y-94239866D01*
X137174285Y-94239866D02*
X137126666Y-94192247D01*
X137126666Y-94192247D02*
X137031428Y-94144628D01*
X137031428Y-94144628D02*
X136840952Y-94097009D01*
X136840952Y-94097009D02*
X136745714Y-94049390D01*
X136745714Y-94049390D02*
X136698095Y-94001771D01*
X136698095Y-94001771D02*
X136650476Y-93906533D01*
X136650476Y-93906533D02*
X136650476Y-93811295D01*
X136650476Y-93811295D02*
X136698095Y-93716057D01*
X136698095Y-93716057D02*
X136745714Y-93668438D01*
X136745714Y-93668438D02*
X136840952Y-93620819D01*
X136840952Y-93620819D02*
X137079047Y-93620819D01*
X137079047Y-93620819D02*
X137221904Y-93668438D01*
X137555238Y-93620819D02*
X137793333Y-94620819D01*
X137793333Y-94620819D02*
X137983809Y-93906533D01*
X137983809Y-93906533D02*
X138174285Y-94620819D01*
X138174285Y-94620819D02*
X138412381Y-93620819D01*
X139317142Y-94620819D02*
X138745714Y-94620819D01*
X139031428Y-94620819D02*
X139031428Y-93620819D01*
X139031428Y-93620819D02*
X138936190Y-93763676D01*
X138936190Y-93763676D02*
X138840952Y-93858914D01*
X138840952Y-93858914D02*
X138745714Y-93906533D01*
X139936190Y-93620819D02*
X140031428Y-93620819D01*
X140031428Y-93620819D02*
X140126666Y-93668438D01*
X140126666Y-93668438D02*
X140174285Y-93716057D01*
X140174285Y-93716057D02*
X140221904Y-93811295D01*
X140221904Y-93811295D02*
X140269523Y-94001771D01*
X140269523Y-94001771D02*
X140269523Y-94239866D01*
X140269523Y-94239866D02*
X140221904Y-94430342D01*
X140221904Y-94430342D02*
X140174285Y-94525580D01*
X140174285Y-94525580D02*
X140126666Y-94573200D01*
X140126666Y-94573200D02*
X140031428Y-94620819D01*
X140031428Y-94620819D02*
X139936190Y-94620819D01*
X139936190Y-94620819D02*
X139840952Y-94573200D01*
X139840952Y-94573200D02*
X139793333Y-94525580D01*
X139793333Y-94525580D02*
X139745714Y-94430342D01*
X139745714Y-94430342D02*
X139698095Y-94239866D01*
X139698095Y-94239866D02*
X139698095Y-94001771D01*
X139698095Y-94001771D02*
X139745714Y-93811295D01*
X139745714Y-93811295D02*
X139793333Y-93716057D01*
X139793333Y-93716057D02*
X139840952Y-93668438D01*
X139840952Y-93668438D02*
X139936190Y-93620819D01*
X136690476Y-113533200D02*
X136833333Y-113580819D01*
X136833333Y-113580819D02*
X137071428Y-113580819D01*
X137071428Y-113580819D02*
X137166666Y-113533200D01*
X137166666Y-113533200D02*
X137214285Y-113485580D01*
X137214285Y-113485580D02*
X137261904Y-113390342D01*
X137261904Y-113390342D02*
X137261904Y-113295104D01*
X137261904Y-113295104D02*
X137214285Y-113199866D01*
X137214285Y-113199866D02*
X137166666Y-113152247D01*
X137166666Y-113152247D02*
X137071428Y-113104628D01*
X137071428Y-113104628D02*
X136880952Y-113057009D01*
X136880952Y-113057009D02*
X136785714Y-113009390D01*
X136785714Y-113009390D02*
X136738095Y-112961771D01*
X136738095Y-112961771D02*
X136690476Y-112866533D01*
X136690476Y-112866533D02*
X136690476Y-112771295D01*
X136690476Y-112771295D02*
X136738095Y-112676057D01*
X136738095Y-112676057D02*
X136785714Y-112628438D01*
X136785714Y-112628438D02*
X136880952Y-112580819D01*
X136880952Y-112580819D02*
X137119047Y-112580819D01*
X137119047Y-112580819D02*
X137261904Y-112628438D01*
X137595238Y-112580819D02*
X137833333Y-113580819D01*
X137833333Y-113580819D02*
X138023809Y-112866533D01*
X138023809Y-112866533D02*
X138214285Y-113580819D01*
X138214285Y-113580819D02*
X138452381Y-112580819D01*
X139357142Y-113580819D02*
X138785714Y-113580819D01*
X139071428Y-113580819D02*
X139071428Y-112580819D01*
X139071428Y-112580819D02*
X138976190Y-112723676D01*
X138976190Y-112723676D02*
X138880952Y-112818914D01*
X138880952Y-112818914D02*
X138785714Y-112866533D01*
X140309523Y-113580819D02*
X139738095Y-113580819D01*
X140023809Y-113580819D02*
X140023809Y-112580819D01*
X140023809Y-112580819D02*
X139928571Y-112723676D01*
X139928571Y-112723676D02*
X139833333Y-112818914D01*
X139833333Y-112818914D02*
X139738095Y-112866533D01*
X87690476Y-52962819D02*
X87690476Y-51962819D01*
X87690476Y-51962819D02*
X88023809Y-52677104D01*
X88023809Y-52677104D02*
X88357142Y-51962819D01*
X88357142Y-51962819D02*
X88357142Y-52962819D01*
X89357142Y-52962819D02*
X88785714Y-52962819D01*
X89071428Y-52962819D02*
X89071428Y-51962819D01*
X89071428Y-51962819D02*
X88976190Y-52105676D01*
X88976190Y-52105676D02*
X88880952Y-52200914D01*
X88880952Y-52200914D02*
X88785714Y-52248533D01*
X103354819Y-56243333D02*
X104069104Y-56243333D01*
X104069104Y-56243333D02*
X104211961Y-56290952D01*
X104211961Y-56290952D02*
X104307200Y-56386190D01*
X104307200Y-56386190D02*
X104354819Y-56529047D01*
X104354819Y-56529047D02*
X104354819Y-56624285D01*
X104354819Y-55243333D02*
X104354819Y-55814761D01*
X104354819Y-55529047D02*
X103354819Y-55529047D01*
X103354819Y-55529047D02*
X103497676Y-55624285D01*
X103497676Y-55624285D02*
X103592914Y-55719523D01*
X103592914Y-55719523D02*
X103640533Y-55814761D01*
X112956428Y-54839819D02*
X113146904Y-54839819D01*
X113146904Y-54839819D02*
X113242142Y-54887438D01*
X113242142Y-54887438D02*
X113337380Y-54982676D01*
X113337380Y-54982676D02*
X113384999Y-55173152D01*
X113384999Y-55173152D02*
X113384999Y-55506485D01*
X113384999Y-55506485D02*
X113337380Y-55696961D01*
X113337380Y-55696961D02*
X113242142Y-55792200D01*
X113242142Y-55792200D02*
X113146904Y-55839819D01*
X113146904Y-55839819D02*
X112956428Y-55839819D01*
X112956428Y-55839819D02*
X112861190Y-55792200D01*
X112861190Y-55792200D02*
X112765952Y-55696961D01*
X112765952Y-55696961D02*
X112718333Y-55506485D01*
X112718333Y-55506485D02*
X112718333Y-55173152D01*
X112718333Y-55173152D02*
X112765952Y-54982676D01*
X112765952Y-54982676D02*
X112861190Y-54887438D01*
X112861190Y-54887438D02*
X112956428Y-54839819D01*
X114289761Y-55839819D02*
X113813571Y-55839819D01*
X113813571Y-55839819D02*
X113813571Y-54839819D01*
X114623095Y-55316009D02*
X114956428Y-55316009D01*
X115099285Y-55839819D02*
X114623095Y-55839819D01*
X114623095Y-55839819D02*
X114623095Y-54839819D01*
X114623095Y-54839819D02*
X115099285Y-54839819D01*
X115527857Y-55839819D02*
X115527857Y-54839819D01*
X115527857Y-54839819D02*
X115765952Y-54839819D01*
X115765952Y-54839819D02*
X115908809Y-54887438D01*
X115908809Y-54887438D02*
X116004047Y-54982676D01*
X116004047Y-54982676D02*
X116051666Y-55077914D01*
X116051666Y-55077914D02*
X116099285Y-55268390D01*
X116099285Y-55268390D02*
X116099285Y-55411247D01*
X116099285Y-55411247D02*
X116051666Y-55601723D01*
X116051666Y-55601723D02*
X116004047Y-55696961D01*
X116004047Y-55696961D02*
X115908809Y-55792200D01*
X115908809Y-55792200D02*
X115765952Y-55839819D01*
X115765952Y-55839819D02*
X115527857Y-55839819D01*
X117289762Y-55839819D02*
X117289762Y-54839819D01*
X117289762Y-54839819D02*
X117670714Y-54839819D01*
X117670714Y-54839819D02*
X117765952Y-54887438D01*
X117765952Y-54887438D02*
X117813571Y-54935057D01*
X117813571Y-54935057D02*
X117861190Y-55030295D01*
X117861190Y-55030295D02*
X117861190Y-55173152D01*
X117861190Y-55173152D02*
X117813571Y-55268390D01*
X117813571Y-55268390D02*
X117765952Y-55316009D01*
X117765952Y-55316009D02*
X117670714Y-55363628D01*
X117670714Y-55363628D02*
X117289762Y-55363628D01*
X118718333Y-55839819D02*
X118718333Y-55316009D01*
X118718333Y-55316009D02*
X118670714Y-55220771D01*
X118670714Y-55220771D02*
X118575476Y-55173152D01*
X118575476Y-55173152D02*
X118385000Y-55173152D01*
X118385000Y-55173152D02*
X118289762Y-55220771D01*
X118718333Y-55792200D02*
X118623095Y-55839819D01*
X118623095Y-55839819D02*
X118385000Y-55839819D01*
X118385000Y-55839819D02*
X118289762Y-55792200D01*
X118289762Y-55792200D02*
X118242143Y-55696961D01*
X118242143Y-55696961D02*
X118242143Y-55601723D01*
X118242143Y-55601723D02*
X118289762Y-55506485D01*
X118289762Y-55506485D02*
X118385000Y-55458866D01*
X118385000Y-55458866D02*
X118623095Y-55458866D01*
X118623095Y-55458866D02*
X118718333Y-55411247D01*
X119194524Y-55173152D02*
X119194524Y-55839819D01*
X119194524Y-55268390D02*
X119242143Y-55220771D01*
X119242143Y-55220771D02*
X119337381Y-55173152D01*
X119337381Y-55173152D02*
X119480238Y-55173152D01*
X119480238Y-55173152D02*
X119575476Y-55220771D01*
X119575476Y-55220771D02*
X119623095Y-55316009D01*
X119623095Y-55316009D02*
X119623095Y-55839819D01*
X120480238Y-55792200D02*
X120385000Y-55839819D01*
X120385000Y-55839819D02*
X120194524Y-55839819D01*
X120194524Y-55839819D02*
X120099286Y-55792200D01*
X120099286Y-55792200D02*
X120051667Y-55696961D01*
X120051667Y-55696961D02*
X120051667Y-55316009D01*
X120051667Y-55316009D02*
X120099286Y-55220771D01*
X120099286Y-55220771D02*
X120194524Y-55173152D01*
X120194524Y-55173152D02*
X120385000Y-55173152D01*
X120385000Y-55173152D02*
X120480238Y-55220771D01*
X120480238Y-55220771D02*
X120527857Y-55316009D01*
X120527857Y-55316009D02*
X120527857Y-55411247D01*
X120527857Y-55411247D02*
X120051667Y-55506485D01*
X121099286Y-55839819D02*
X121004048Y-55792200D01*
X121004048Y-55792200D02*
X120956429Y-55696961D01*
X120956429Y-55696961D02*
X120956429Y-54839819D01*
X118166667Y-75533200D02*
X118309524Y-75580819D01*
X118309524Y-75580819D02*
X118547619Y-75580819D01*
X118547619Y-75580819D02*
X118642857Y-75533200D01*
X118642857Y-75533200D02*
X118690476Y-75485580D01*
X118690476Y-75485580D02*
X118738095Y-75390342D01*
X118738095Y-75390342D02*
X118738095Y-75295104D01*
X118738095Y-75295104D02*
X118690476Y-75199866D01*
X118690476Y-75199866D02*
X118642857Y-75152247D01*
X118642857Y-75152247D02*
X118547619Y-75104628D01*
X118547619Y-75104628D02*
X118357143Y-75057009D01*
X118357143Y-75057009D02*
X118261905Y-75009390D01*
X118261905Y-75009390D02*
X118214286Y-74961771D01*
X118214286Y-74961771D02*
X118166667Y-74866533D01*
X118166667Y-74866533D02*
X118166667Y-74771295D01*
X118166667Y-74771295D02*
X118214286Y-74676057D01*
X118214286Y-74676057D02*
X118261905Y-74628438D01*
X118261905Y-74628438D02*
X118357143Y-74580819D01*
X118357143Y-74580819D02*
X118595238Y-74580819D01*
X118595238Y-74580819D02*
X118738095Y-74628438D01*
X119071429Y-74580819D02*
X119309524Y-75580819D01*
X119309524Y-75580819D02*
X119500000Y-74866533D01*
X119500000Y-74866533D02*
X119690476Y-75580819D01*
X119690476Y-75580819D02*
X119928572Y-74580819D01*
X120214286Y-74580819D02*
X120833333Y-74580819D01*
X120833333Y-74580819D02*
X120500000Y-74961771D01*
X120500000Y-74961771D02*
X120642857Y-74961771D01*
X120642857Y-74961771D02*
X120738095Y-75009390D01*
X120738095Y-75009390D02*
X120785714Y-75057009D01*
X120785714Y-75057009D02*
X120833333Y-75152247D01*
X120833333Y-75152247D02*
X120833333Y-75390342D01*
X120833333Y-75390342D02*
X120785714Y-75485580D01*
X120785714Y-75485580D02*
X120738095Y-75533200D01*
X120738095Y-75533200D02*
X120642857Y-75580819D01*
X120642857Y-75580819D02*
X120357143Y-75580819D01*
X120357143Y-75580819D02*
X120261905Y-75533200D01*
X120261905Y-75533200D02*
X120214286Y-75485580D01*
X80126667Y-75613200D02*
X80269524Y-75660819D01*
X80269524Y-75660819D02*
X80507619Y-75660819D01*
X80507619Y-75660819D02*
X80602857Y-75613200D01*
X80602857Y-75613200D02*
X80650476Y-75565580D01*
X80650476Y-75565580D02*
X80698095Y-75470342D01*
X80698095Y-75470342D02*
X80698095Y-75375104D01*
X80698095Y-75375104D02*
X80650476Y-75279866D01*
X80650476Y-75279866D02*
X80602857Y-75232247D01*
X80602857Y-75232247D02*
X80507619Y-75184628D01*
X80507619Y-75184628D02*
X80317143Y-75137009D01*
X80317143Y-75137009D02*
X80221905Y-75089390D01*
X80221905Y-75089390D02*
X80174286Y-75041771D01*
X80174286Y-75041771D02*
X80126667Y-74946533D01*
X80126667Y-74946533D02*
X80126667Y-74851295D01*
X80126667Y-74851295D02*
X80174286Y-74756057D01*
X80174286Y-74756057D02*
X80221905Y-74708438D01*
X80221905Y-74708438D02*
X80317143Y-74660819D01*
X80317143Y-74660819D02*
X80555238Y-74660819D01*
X80555238Y-74660819D02*
X80698095Y-74708438D01*
X81031429Y-74660819D02*
X81269524Y-75660819D01*
X81269524Y-75660819D02*
X81460000Y-74946533D01*
X81460000Y-74946533D02*
X81650476Y-75660819D01*
X81650476Y-75660819D02*
X81888572Y-74660819D01*
X82793333Y-75660819D02*
X82221905Y-75660819D01*
X82507619Y-75660819D02*
X82507619Y-74660819D01*
X82507619Y-74660819D02*
X82412381Y-74803676D01*
X82412381Y-74803676D02*
X82317143Y-74898914D01*
X82317143Y-74898914D02*
X82221905Y-74946533D01*
X99126667Y-94613200D02*
X99269524Y-94660819D01*
X99269524Y-94660819D02*
X99507619Y-94660819D01*
X99507619Y-94660819D02*
X99602857Y-94613200D01*
X99602857Y-94613200D02*
X99650476Y-94565580D01*
X99650476Y-94565580D02*
X99698095Y-94470342D01*
X99698095Y-94470342D02*
X99698095Y-94375104D01*
X99698095Y-94375104D02*
X99650476Y-94279866D01*
X99650476Y-94279866D02*
X99602857Y-94232247D01*
X99602857Y-94232247D02*
X99507619Y-94184628D01*
X99507619Y-94184628D02*
X99317143Y-94137009D01*
X99317143Y-94137009D02*
X99221905Y-94089390D01*
X99221905Y-94089390D02*
X99174286Y-94041771D01*
X99174286Y-94041771D02*
X99126667Y-93946533D01*
X99126667Y-93946533D02*
X99126667Y-93851295D01*
X99126667Y-93851295D02*
X99174286Y-93756057D01*
X99174286Y-93756057D02*
X99221905Y-93708438D01*
X99221905Y-93708438D02*
X99317143Y-93660819D01*
X99317143Y-93660819D02*
X99555238Y-93660819D01*
X99555238Y-93660819D02*
X99698095Y-93708438D01*
X100031429Y-93660819D02*
X100269524Y-94660819D01*
X100269524Y-94660819D02*
X100460000Y-93946533D01*
X100460000Y-93946533D02*
X100650476Y-94660819D01*
X100650476Y-94660819D02*
X100888572Y-93660819D01*
X101745714Y-93660819D02*
X101269524Y-93660819D01*
X101269524Y-93660819D02*
X101221905Y-94137009D01*
X101221905Y-94137009D02*
X101269524Y-94089390D01*
X101269524Y-94089390D02*
X101364762Y-94041771D01*
X101364762Y-94041771D02*
X101602857Y-94041771D01*
X101602857Y-94041771D02*
X101698095Y-94089390D01*
X101698095Y-94089390D02*
X101745714Y-94137009D01*
X101745714Y-94137009D02*
X101793333Y-94232247D01*
X101793333Y-94232247D02*
X101793333Y-94470342D01*
X101793333Y-94470342D02*
X101745714Y-94565580D01*
X101745714Y-94565580D02*
X101698095Y-94613200D01*
X101698095Y-94613200D02*
X101602857Y-94660819D01*
X101602857Y-94660819D02*
X101364762Y-94660819D01*
X101364762Y-94660819D02*
X101269524Y-94613200D01*
X101269524Y-94613200D02*
X101221905Y-94565580D01*
X99316667Y-113613200D02*
X99459524Y-113660819D01*
X99459524Y-113660819D02*
X99697619Y-113660819D01*
X99697619Y-113660819D02*
X99792857Y-113613200D01*
X99792857Y-113613200D02*
X99840476Y-113565580D01*
X99840476Y-113565580D02*
X99888095Y-113470342D01*
X99888095Y-113470342D02*
X99888095Y-113375104D01*
X99888095Y-113375104D02*
X99840476Y-113279866D01*
X99840476Y-113279866D02*
X99792857Y-113232247D01*
X99792857Y-113232247D02*
X99697619Y-113184628D01*
X99697619Y-113184628D02*
X99507143Y-113137009D01*
X99507143Y-113137009D02*
X99411905Y-113089390D01*
X99411905Y-113089390D02*
X99364286Y-113041771D01*
X99364286Y-113041771D02*
X99316667Y-112946533D01*
X99316667Y-112946533D02*
X99316667Y-112851295D01*
X99316667Y-112851295D02*
X99364286Y-112756057D01*
X99364286Y-112756057D02*
X99411905Y-112708438D01*
X99411905Y-112708438D02*
X99507143Y-112660819D01*
X99507143Y-112660819D02*
X99745238Y-112660819D01*
X99745238Y-112660819D02*
X99888095Y-112708438D01*
X100221429Y-112660819D02*
X100459524Y-113660819D01*
X100459524Y-113660819D02*
X100650000Y-112946533D01*
X100650000Y-112946533D02*
X100840476Y-113660819D01*
X100840476Y-113660819D02*
X101078572Y-112660819D01*
X101602381Y-113089390D02*
X101507143Y-113041771D01*
X101507143Y-113041771D02*
X101459524Y-112994152D01*
X101459524Y-112994152D02*
X101411905Y-112898914D01*
X101411905Y-112898914D02*
X101411905Y-112851295D01*
X101411905Y-112851295D02*
X101459524Y-112756057D01*
X101459524Y-112756057D02*
X101507143Y-112708438D01*
X101507143Y-112708438D02*
X101602381Y-112660819D01*
X101602381Y-112660819D02*
X101792857Y-112660819D01*
X101792857Y-112660819D02*
X101888095Y-112708438D01*
X101888095Y-112708438D02*
X101935714Y-112756057D01*
X101935714Y-112756057D02*
X101983333Y-112851295D01*
X101983333Y-112851295D02*
X101983333Y-112898914D01*
X101983333Y-112898914D02*
X101935714Y-112994152D01*
X101935714Y-112994152D02*
X101888095Y-113041771D01*
X101888095Y-113041771D02*
X101792857Y-113089390D01*
X101792857Y-113089390D02*
X101602381Y-113089390D01*
X101602381Y-113089390D02*
X101507143Y-113137009D01*
X101507143Y-113137009D02*
X101459524Y-113184628D01*
X101459524Y-113184628D02*
X101411905Y-113279866D01*
X101411905Y-113279866D02*
X101411905Y-113470342D01*
X101411905Y-113470342D02*
X101459524Y-113565580D01*
X101459524Y-113565580D02*
X101507143Y-113613200D01*
X101507143Y-113613200D02*
X101602381Y-113660819D01*
X101602381Y-113660819D02*
X101792857Y-113660819D01*
X101792857Y-113660819D02*
X101888095Y-113613200D01*
X101888095Y-113613200D02*
X101935714Y-113565580D01*
X101935714Y-113565580D02*
X101983333Y-113470342D01*
X101983333Y-113470342D02*
X101983333Y-113279866D01*
X101983333Y-113279866D02*
X101935714Y-113184628D01*
X101935714Y-113184628D02*
X101888095Y-113137009D01*
X101888095Y-113137009D02*
X101792857Y-113089390D01*
X118126667Y-113613200D02*
X118269524Y-113660819D01*
X118269524Y-113660819D02*
X118507619Y-113660819D01*
X118507619Y-113660819D02*
X118602857Y-113613200D01*
X118602857Y-113613200D02*
X118650476Y-113565580D01*
X118650476Y-113565580D02*
X118698095Y-113470342D01*
X118698095Y-113470342D02*
X118698095Y-113375104D01*
X118698095Y-113375104D02*
X118650476Y-113279866D01*
X118650476Y-113279866D02*
X118602857Y-113232247D01*
X118602857Y-113232247D02*
X118507619Y-113184628D01*
X118507619Y-113184628D02*
X118317143Y-113137009D01*
X118317143Y-113137009D02*
X118221905Y-113089390D01*
X118221905Y-113089390D02*
X118174286Y-113041771D01*
X118174286Y-113041771D02*
X118126667Y-112946533D01*
X118126667Y-112946533D02*
X118126667Y-112851295D01*
X118126667Y-112851295D02*
X118174286Y-112756057D01*
X118174286Y-112756057D02*
X118221905Y-112708438D01*
X118221905Y-112708438D02*
X118317143Y-112660819D01*
X118317143Y-112660819D02*
X118555238Y-112660819D01*
X118555238Y-112660819D02*
X118698095Y-112708438D01*
X119031429Y-112660819D02*
X119269524Y-113660819D01*
X119269524Y-113660819D02*
X119460000Y-112946533D01*
X119460000Y-112946533D02*
X119650476Y-113660819D01*
X119650476Y-113660819D02*
X119888572Y-112660819D01*
X120317143Y-113660819D02*
X120507619Y-113660819D01*
X120507619Y-113660819D02*
X120602857Y-113613200D01*
X120602857Y-113613200D02*
X120650476Y-113565580D01*
X120650476Y-113565580D02*
X120745714Y-113422723D01*
X120745714Y-113422723D02*
X120793333Y-113232247D01*
X120793333Y-113232247D02*
X120793333Y-112851295D01*
X120793333Y-112851295D02*
X120745714Y-112756057D01*
X120745714Y-112756057D02*
X120698095Y-112708438D01*
X120698095Y-112708438D02*
X120602857Y-112660819D01*
X120602857Y-112660819D02*
X120412381Y-112660819D01*
X120412381Y-112660819D02*
X120317143Y-112708438D01*
X120317143Y-112708438D02*
X120269524Y-112756057D01*
X120269524Y-112756057D02*
X120221905Y-112851295D01*
X120221905Y-112851295D02*
X120221905Y-113089390D01*
X120221905Y-113089390D02*
X120269524Y-113184628D01*
X120269524Y-113184628D02*
X120317143Y-113232247D01*
X120317143Y-113232247D02*
X120412381Y-113279866D01*
X120412381Y-113279866D02*
X120602857Y-113279866D01*
X120602857Y-113279866D02*
X120698095Y-113232247D01*
X120698095Y-113232247D02*
X120745714Y-113184628D01*
X120745714Y-113184628D02*
X120793333Y-113089390D01*
X146107200Y-80359523D02*
X146154819Y-80216666D01*
X146154819Y-80216666D02*
X146154819Y-79978571D01*
X146154819Y-79978571D02*
X146107200Y-79883333D01*
X146107200Y-79883333D02*
X146059580Y-79835714D01*
X146059580Y-79835714D02*
X145964342Y-79788095D01*
X145964342Y-79788095D02*
X145869104Y-79788095D01*
X145869104Y-79788095D02*
X145773866Y-79835714D01*
X145773866Y-79835714D02*
X145726247Y-79883333D01*
X145726247Y-79883333D02*
X145678628Y-79978571D01*
X145678628Y-79978571D02*
X145631009Y-80169047D01*
X145631009Y-80169047D02*
X145583390Y-80264285D01*
X145583390Y-80264285D02*
X145535771Y-80311904D01*
X145535771Y-80311904D02*
X145440533Y-80359523D01*
X145440533Y-80359523D02*
X145345295Y-80359523D01*
X145345295Y-80359523D02*
X145250057Y-80311904D01*
X145250057Y-80311904D02*
X145202438Y-80264285D01*
X145202438Y-80264285D02*
X145154819Y-80169047D01*
X145154819Y-80169047D02*
X145154819Y-79930952D01*
X145154819Y-79930952D02*
X145202438Y-79788095D01*
X145154819Y-79454761D02*
X146154819Y-79216666D01*
X146154819Y-79216666D02*
X145440533Y-79026190D01*
X145440533Y-79026190D02*
X146154819Y-78835714D01*
X146154819Y-78835714D02*
X145154819Y-78597619D01*
X146154819Y-77692857D02*
X146154819Y-78264285D01*
X146154819Y-77978571D02*
X145154819Y-77978571D01*
X145154819Y-77978571D02*
X145297676Y-78073809D01*
X145297676Y-78073809D02*
X145392914Y-78169047D01*
X145392914Y-78169047D02*
X145440533Y-78264285D01*
X145250057Y-77311904D02*
X145202438Y-77264285D01*
X145202438Y-77264285D02*
X145154819Y-77169047D01*
X145154819Y-77169047D02*
X145154819Y-76930952D01*
X145154819Y-76930952D02*
X145202438Y-76835714D01*
X145202438Y-76835714D02*
X145250057Y-76788095D01*
X145250057Y-76788095D02*
X145345295Y-76740476D01*
X145345295Y-76740476D02*
X145440533Y-76740476D01*
X145440533Y-76740476D02*
X145583390Y-76788095D01*
X145583390Y-76788095D02*
X146154819Y-77359523D01*
X146154819Y-77359523D02*
X146154819Y-76740476D01*
X80126667Y-94613200D02*
X80269524Y-94660819D01*
X80269524Y-94660819D02*
X80507619Y-94660819D01*
X80507619Y-94660819D02*
X80602857Y-94613200D01*
X80602857Y-94613200D02*
X80650476Y-94565580D01*
X80650476Y-94565580D02*
X80698095Y-94470342D01*
X80698095Y-94470342D02*
X80698095Y-94375104D01*
X80698095Y-94375104D02*
X80650476Y-94279866D01*
X80650476Y-94279866D02*
X80602857Y-94232247D01*
X80602857Y-94232247D02*
X80507619Y-94184628D01*
X80507619Y-94184628D02*
X80317143Y-94137009D01*
X80317143Y-94137009D02*
X80221905Y-94089390D01*
X80221905Y-94089390D02*
X80174286Y-94041771D01*
X80174286Y-94041771D02*
X80126667Y-93946533D01*
X80126667Y-93946533D02*
X80126667Y-93851295D01*
X80126667Y-93851295D02*
X80174286Y-93756057D01*
X80174286Y-93756057D02*
X80221905Y-93708438D01*
X80221905Y-93708438D02*
X80317143Y-93660819D01*
X80317143Y-93660819D02*
X80555238Y-93660819D01*
X80555238Y-93660819D02*
X80698095Y-93708438D01*
X81031429Y-93660819D02*
X81269524Y-94660819D01*
X81269524Y-94660819D02*
X81460000Y-93946533D01*
X81460000Y-93946533D02*
X81650476Y-94660819D01*
X81650476Y-94660819D02*
X81888572Y-93660819D01*
X82698095Y-93994152D02*
X82698095Y-94660819D01*
X82460000Y-93613200D02*
X82221905Y-94327485D01*
X82221905Y-94327485D02*
X82840952Y-94327485D01*
X99126667Y-75613200D02*
X99269524Y-75660819D01*
X99269524Y-75660819D02*
X99507619Y-75660819D01*
X99507619Y-75660819D02*
X99602857Y-75613200D01*
X99602857Y-75613200D02*
X99650476Y-75565580D01*
X99650476Y-75565580D02*
X99698095Y-75470342D01*
X99698095Y-75470342D02*
X99698095Y-75375104D01*
X99698095Y-75375104D02*
X99650476Y-75279866D01*
X99650476Y-75279866D02*
X99602857Y-75232247D01*
X99602857Y-75232247D02*
X99507619Y-75184628D01*
X99507619Y-75184628D02*
X99317143Y-75137009D01*
X99317143Y-75137009D02*
X99221905Y-75089390D01*
X99221905Y-75089390D02*
X99174286Y-75041771D01*
X99174286Y-75041771D02*
X99126667Y-74946533D01*
X99126667Y-74946533D02*
X99126667Y-74851295D01*
X99126667Y-74851295D02*
X99174286Y-74756057D01*
X99174286Y-74756057D02*
X99221905Y-74708438D01*
X99221905Y-74708438D02*
X99317143Y-74660819D01*
X99317143Y-74660819D02*
X99555238Y-74660819D01*
X99555238Y-74660819D02*
X99698095Y-74708438D01*
X100031429Y-74660819D02*
X100269524Y-75660819D01*
X100269524Y-75660819D02*
X100460000Y-74946533D01*
X100460000Y-74946533D02*
X100650476Y-75660819D01*
X100650476Y-75660819D02*
X100888572Y-74660819D01*
X101221905Y-74756057D02*
X101269524Y-74708438D01*
X101269524Y-74708438D02*
X101364762Y-74660819D01*
X101364762Y-74660819D02*
X101602857Y-74660819D01*
X101602857Y-74660819D02*
X101698095Y-74708438D01*
X101698095Y-74708438D02*
X101745714Y-74756057D01*
X101745714Y-74756057D02*
X101793333Y-74851295D01*
X101793333Y-74851295D02*
X101793333Y-74946533D01*
X101793333Y-74946533D02*
X101745714Y-75089390D01*
X101745714Y-75089390D02*
X101174286Y-75660819D01*
X101174286Y-75660819D02*
X101793333Y-75660819D01*
X111084819Y-51166666D02*
X110608628Y-51499999D01*
X111084819Y-51738094D02*
X110084819Y-51738094D01*
X110084819Y-51738094D02*
X110084819Y-51357142D01*
X110084819Y-51357142D02*
X110132438Y-51261904D01*
X110132438Y-51261904D02*
X110180057Y-51214285D01*
X110180057Y-51214285D02*
X110275295Y-51166666D01*
X110275295Y-51166666D02*
X110418152Y-51166666D01*
X110418152Y-51166666D02*
X110513390Y-51214285D01*
X110513390Y-51214285D02*
X110561009Y-51261904D01*
X110561009Y-51261904D02*
X110608628Y-51357142D01*
X110608628Y-51357142D02*
X110608628Y-51738094D01*
X110180057Y-50785713D02*
X110132438Y-50738094D01*
X110132438Y-50738094D02*
X110084819Y-50642856D01*
X110084819Y-50642856D02*
X110084819Y-50404761D01*
X110084819Y-50404761D02*
X110132438Y-50309523D01*
X110132438Y-50309523D02*
X110180057Y-50261904D01*
X110180057Y-50261904D02*
X110275295Y-50214285D01*
X110275295Y-50214285D02*
X110370533Y-50214285D01*
X110370533Y-50214285D02*
X110513390Y-50261904D01*
X110513390Y-50261904D02*
X111084819Y-50833332D01*
X111084819Y-50833332D02*
X111084819Y-50214285D01*
X80126667Y-113613200D02*
X80269524Y-113660819D01*
X80269524Y-113660819D02*
X80507619Y-113660819D01*
X80507619Y-113660819D02*
X80602857Y-113613200D01*
X80602857Y-113613200D02*
X80650476Y-113565580D01*
X80650476Y-113565580D02*
X80698095Y-113470342D01*
X80698095Y-113470342D02*
X80698095Y-113375104D01*
X80698095Y-113375104D02*
X80650476Y-113279866D01*
X80650476Y-113279866D02*
X80602857Y-113232247D01*
X80602857Y-113232247D02*
X80507619Y-113184628D01*
X80507619Y-113184628D02*
X80317143Y-113137009D01*
X80317143Y-113137009D02*
X80221905Y-113089390D01*
X80221905Y-113089390D02*
X80174286Y-113041771D01*
X80174286Y-113041771D02*
X80126667Y-112946533D01*
X80126667Y-112946533D02*
X80126667Y-112851295D01*
X80126667Y-112851295D02*
X80174286Y-112756057D01*
X80174286Y-112756057D02*
X80221905Y-112708438D01*
X80221905Y-112708438D02*
X80317143Y-112660819D01*
X80317143Y-112660819D02*
X80555238Y-112660819D01*
X80555238Y-112660819D02*
X80698095Y-112708438D01*
X81031429Y-112660819D02*
X81269524Y-113660819D01*
X81269524Y-113660819D02*
X81460000Y-112946533D01*
X81460000Y-112946533D02*
X81650476Y-113660819D01*
X81650476Y-113660819D02*
X81888572Y-112660819D01*
X82174286Y-112660819D02*
X82840952Y-112660819D01*
X82840952Y-112660819D02*
X82412381Y-113660819D01*
D11*
%TO.C,D2*%
X108238000Y-80960000D02*
X109000000Y-80960000D01*
X108238000Y-86040000D02*
X108238000Y-80960000D01*
X109000000Y-80960000D02*
X109000000Y-80706000D01*
X109000000Y-80960000D02*
X109762000Y-80960000D01*
X109000000Y-86040000D02*
X108238000Y-86040000D01*
X109000000Y-86040000D02*
X109000000Y-86294000D01*
X109635000Y-85405000D02*
X108365000Y-85405000D01*
X109762000Y-80960000D02*
X109762000Y-86040000D01*
X109762000Y-86040000D02*
X109000000Y-86040000D01*
D12*
%TO.C,SW6*%
X112435000Y-95015000D02*
X126405000Y-95015000D01*
X112435000Y-108985000D02*
X112435000Y-95015000D01*
X126405000Y-95015000D02*
X126405000Y-108985000D01*
X126405000Y-108985000D02*
X112435000Y-108985000D01*
%TO.C,R1*%
X122630000Y-47730000D02*
X122630000Y-54270000D01*
X122630000Y-54270000D02*
X125370000Y-54270000D01*
X124000000Y-46960000D02*
X124000000Y-47730000D01*
X124000000Y-55040000D02*
X124000000Y-54270000D01*
X125370000Y-47730000D02*
X122630000Y-47730000D01*
X125370000Y-54270000D02*
X125370000Y-47730000D01*
%TO.C,SW10*%
X131475000Y-95055000D02*
X145445000Y-95055000D01*
X131475000Y-109025000D02*
X131475000Y-95055000D01*
X145445000Y-95055000D02*
X145445000Y-109025000D01*
X145445000Y-109025000D02*
X131475000Y-109025000D01*
%TO.C,SW11*%
X131515000Y-114015000D02*
X145485000Y-114015000D01*
X131515000Y-127985000D02*
X131515000Y-114015000D01*
X145485000Y-114015000D02*
X145485000Y-127985000D01*
X145485000Y-127985000D02*
X131515000Y-127985000D01*
D11*
%TO.C,D5*%
X108238000Y-99460000D02*
X109000000Y-99460000D01*
X108238000Y-104540000D02*
X108238000Y-99460000D01*
X109000000Y-99460000D02*
X109000000Y-99206000D01*
X109000000Y-99460000D02*
X109762000Y-99460000D01*
X109000000Y-104540000D02*
X108238000Y-104540000D01*
X109000000Y-104540000D02*
X109000000Y-104794000D01*
X109635000Y-103905000D02*
X108365000Y-103905000D01*
X109762000Y-99460000D02*
X109762000Y-104540000D01*
X109762000Y-104540000D02*
X109000000Y-104540000D01*
D12*
%TO.C,M1*%
X79610000Y-63938000D02*
X79610000Y-45396000D01*
X80880000Y-44126000D02*
X96120000Y-44126000D01*
X96120000Y-65208000D02*
X80880000Y-65208000D01*
X97390000Y-45396000D02*
X97390000Y-63938000D01*
X84000000Y-44126000D02*
X93000000Y-44126000D01*
X93000000Y-42602000D01*
X84000000Y-42602000D01*
X84000000Y-44126000D01*
X79610000Y-45396000D02*
G75*
G02*
X80880000Y-44126000I1270000J0D01*
G01*
X80880000Y-65208000D02*
G75*
G02*
X79610000Y-63938000I0J1270000D01*
G01*
X96120000Y-44126000D02*
G75*
G02*
X97390000Y-45396000I0J-1270000D01*
G01*
X97390000Y-63938000D02*
G75*
G02*
X96120000Y-65208000I-1270000J0D01*
G01*
D13*
%TO.C,J1*%
X102000000Y-50000000D02*
X102000000Y-62000000D01*
X102000000Y-62000000D02*
X140000000Y-62000000D01*
X105500000Y-50000000D02*
X105500000Y-62000000D01*
X135000000Y-50000000D02*
X135000000Y-62000000D01*
X140000000Y-50000000D02*
X102000000Y-50000000D01*
X140000000Y-62000000D02*
X140000000Y-50000000D01*
D12*
%TO.C,SW3*%
X112515000Y-76015000D02*
X126485000Y-76015000D01*
X112515000Y-89985000D02*
X112515000Y-76015000D01*
X126485000Y-76015000D02*
X126485000Y-89985000D01*
X126485000Y-89985000D02*
X112515000Y-89985000D01*
%TO.C,SW1*%
X74475000Y-76095000D02*
X88445000Y-76095000D01*
X74475000Y-90065000D02*
X74475000Y-76095000D01*
X88445000Y-76095000D02*
X88445000Y-90065000D01*
X88445000Y-90065000D02*
X74475000Y-90065000D01*
D11*
%TO.C,D9*%
X126738000Y-117960000D02*
X127500000Y-117960000D01*
X126738000Y-123040000D02*
X126738000Y-117960000D01*
X127500000Y-117960000D02*
X127500000Y-117706000D01*
X127500000Y-117960000D02*
X128262000Y-117960000D01*
X127500000Y-123040000D02*
X126738000Y-123040000D01*
X127500000Y-123040000D02*
X127500000Y-123294000D01*
X128135000Y-122405000D02*
X126865000Y-122405000D01*
X128262000Y-117960000D02*
X128262000Y-123040000D01*
X128262000Y-123040000D02*
X127500000Y-123040000D01*
D12*
%TO.C,SW5*%
X93475000Y-95095000D02*
X107445000Y-95095000D01*
X93475000Y-109065000D02*
X93475000Y-95095000D01*
X107445000Y-95095000D02*
X107445000Y-109065000D01*
X107445000Y-109065000D02*
X93475000Y-109065000D01*
D11*
%TO.C,D7*%
X88738000Y-117960000D02*
X89500000Y-117960000D01*
X88738000Y-123040000D02*
X88738000Y-117960000D01*
X89500000Y-117960000D02*
X89500000Y-117706000D01*
X89500000Y-117960000D02*
X90262000Y-117960000D01*
X89500000Y-123040000D02*
X88738000Y-123040000D01*
X89500000Y-123040000D02*
X89500000Y-123294000D01*
X90135000Y-122405000D02*
X88865000Y-122405000D01*
X90262000Y-117960000D02*
X90262000Y-123040000D01*
X90262000Y-123040000D02*
X89500000Y-123040000D01*
D12*
%TO.C,SW8*%
X93665000Y-114095000D02*
X107635000Y-114095000D01*
X93665000Y-128065000D02*
X93665000Y-114095000D01*
X107635000Y-114095000D02*
X107635000Y-128065000D01*
X107635000Y-128065000D02*
X93665000Y-128065000D01*
D11*
%TO.C,D10*%
X145738000Y-99770000D02*
X146500000Y-99770000D01*
X145738000Y-104850000D02*
X145738000Y-99770000D01*
X146500000Y-99770000D02*
X146500000Y-99516000D01*
X146500000Y-99770000D02*
X147262000Y-99770000D01*
X146500000Y-104850000D02*
X145738000Y-104850000D01*
X146500000Y-104850000D02*
X146500000Y-105104000D01*
X147135000Y-104215000D02*
X145865000Y-104215000D01*
X147262000Y-99770000D02*
X147262000Y-104850000D01*
X147262000Y-104850000D02*
X146500000Y-104850000D01*
%TO.C,D6*%
X127238000Y-99460000D02*
X128000000Y-99460000D01*
X127238000Y-104540000D02*
X127238000Y-99460000D01*
X128000000Y-99460000D02*
X128000000Y-99206000D01*
X128000000Y-99460000D02*
X128762000Y-99460000D01*
X128000000Y-104540000D02*
X127238000Y-104540000D01*
X128000000Y-104540000D02*
X128000000Y-104794000D01*
X128635000Y-103905000D02*
X127365000Y-103905000D01*
X128762000Y-99460000D02*
X128762000Y-104540000D01*
X128762000Y-104540000D02*
X128000000Y-104540000D01*
%TO.C,D8*%
X108238000Y-117460000D02*
X109000000Y-117460000D01*
X108238000Y-122540000D02*
X108238000Y-117460000D01*
X109000000Y-117460000D02*
X109000000Y-117206000D01*
X109000000Y-117460000D02*
X109762000Y-117460000D01*
X109000000Y-122540000D02*
X108238000Y-122540000D01*
X109000000Y-122540000D02*
X109000000Y-122794000D01*
X109635000Y-121905000D02*
X108365000Y-121905000D01*
X109762000Y-117460000D02*
X109762000Y-122540000D01*
X109762000Y-122540000D02*
X109000000Y-122540000D01*
D12*
%TO.C,SW9*%
X112475000Y-114095000D02*
X126445000Y-114095000D01*
X112475000Y-128065000D02*
X112475000Y-114095000D01*
X126445000Y-114095000D02*
X126445000Y-128065000D01*
X126445000Y-128065000D02*
X112475000Y-128065000D01*
%TO.C,SW12*%
X132600000Y-81250000D02*
X132600000Y-77150000D01*
X132600000Y-89350000D02*
X132600000Y-85250000D01*
X135000000Y-89350000D02*
X132600000Y-89350000D01*
X138500000Y-82750000D02*
X138500000Y-83750000D01*
X139000000Y-83250000D02*
X138000000Y-83250000D01*
X139800000Y-89350000D02*
X137200000Y-89350000D01*
X142300000Y-75750000D02*
X142600000Y-75450000D01*
X142600000Y-75450000D02*
X142600000Y-76050000D01*
X142600000Y-76050000D02*
X142300000Y-75750000D01*
X144400000Y-77150000D02*
X132600000Y-77150000D01*
X144400000Y-81250000D02*
X144400000Y-77150000D01*
X144400000Y-85250000D02*
X144400000Y-89350000D01*
X144400000Y-89350000D02*
X142000000Y-89350000D01*
X141500000Y-83250000D02*
G75*
G02*
X135500000Y-83250000I-3000000J0D01*
G01*
X135500000Y-83250000D02*
G75*
G02*
X141500000Y-83250000I3000000J0D01*
G01*
D11*
%TO.C,D11*%
X145738000Y-117960000D02*
X146500000Y-117960000D01*
X145738000Y-123040000D02*
X145738000Y-117960000D01*
X146500000Y-117960000D02*
X146500000Y-117706000D01*
X146500000Y-117960000D02*
X147262000Y-117960000D01*
X146500000Y-123040000D02*
X145738000Y-123040000D01*
X146500000Y-123040000D02*
X146500000Y-123294000D01*
X147135000Y-122405000D02*
X145865000Y-122405000D01*
X147262000Y-117960000D02*
X147262000Y-123040000D01*
X147262000Y-123040000D02*
X146500000Y-123040000D01*
D12*
%TO.C,SW4*%
X74475000Y-95095000D02*
X88445000Y-95095000D01*
X74475000Y-109065000D02*
X74475000Y-95095000D01*
X88445000Y-95095000D02*
X88445000Y-109065000D01*
X88445000Y-109065000D02*
X74475000Y-109065000D01*
D11*
%TO.C,D1*%
X88738000Y-80460000D02*
X89500000Y-80460000D01*
X88738000Y-85540000D02*
X88738000Y-80460000D01*
X89500000Y-80460000D02*
X89500000Y-80206000D01*
X89500000Y-80460000D02*
X90262000Y-80460000D01*
X89500000Y-85540000D02*
X88738000Y-85540000D01*
X89500000Y-85540000D02*
X89500000Y-85794000D01*
X90135000Y-84905000D02*
X88865000Y-84905000D01*
X90262000Y-80460000D02*
X90262000Y-85540000D01*
X90262000Y-85540000D02*
X89500000Y-85540000D01*
D12*
%TO.C,SW2*%
X93475000Y-76095000D02*
X107445000Y-76095000D01*
X93475000Y-90065000D02*
X93475000Y-76095000D01*
X107445000Y-76095000D02*
X107445000Y-90065000D01*
X107445000Y-90065000D02*
X93475000Y-90065000D01*
%TO.C,R2*%
X111630000Y-47730000D02*
X111630000Y-54270000D01*
X111630000Y-54270000D02*
X114370000Y-54270000D01*
X113000000Y-46960000D02*
X113000000Y-47730000D01*
X113000000Y-55040000D02*
X113000000Y-54270000D01*
X114370000Y-47730000D02*
X111630000Y-47730000D01*
X114370000Y-54270000D02*
X114370000Y-47730000D01*
%TO.C,SW7*%
X74475000Y-114095000D02*
X88445000Y-114095000D01*
X74475000Y-128065000D02*
X74475000Y-114095000D01*
X88445000Y-114095000D02*
X88445000Y-128065000D01*
X88445000Y-128065000D02*
X74475000Y-128065000D01*
D11*
%TO.C,D12*%
X145738000Y-81650000D02*
X146500000Y-81650000D01*
X145738000Y-86730000D02*
X145738000Y-81650000D01*
X146500000Y-81650000D02*
X146500000Y-81396000D01*
X146500000Y-81650000D02*
X147262000Y-81650000D01*
X146500000Y-86730000D02*
X145738000Y-86730000D01*
X146500000Y-86730000D02*
X146500000Y-86984000D01*
X147135000Y-86095000D02*
X145865000Y-86095000D01*
X147262000Y-81650000D02*
X147262000Y-86730000D01*
X147262000Y-86730000D02*
X146500000Y-86730000D01*
%TO.C,D3*%
X127238000Y-80460000D02*
X128000000Y-80460000D01*
X127238000Y-85540000D02*
X127238000Y-80460000D01*
X128000000Y-80460000D02*
X128000000Y-80206000D01*
X128000000Y-80460000D02*
X128762000Y-80460000D01*
X128000000Y-85540000D02*
X127238000Y-85540000D01*
X128000000Y-85540000D02*
X128000000Y-85794000D01*
X128635000Y-84905000D02*
X127365000Y-84905000D01*
X128762000Y-80460000D02*
X128762000Y-85540000D01*
X128762000Y-85540000D02*
X128000000Y-85540000D01*
%TO.C,D4*%
X88738000Y-99960000D02*
X89500000Y-99960000D01*
X88738000Y-105040000D02*
X88738000Y-99960000D01*
X89500000Y-99960000D02*
X89500000Y-99706000D01*
X89500000Y-99960000D02*
X90262000Y-99960000D01*
X89500000Y-105040000D02*
X88738000Y-105040000D01*
X89500000Y-105040000D02*
X89500000Y-105294000D01*
X90135000Y-104405000D02*
X88865000Y-104405000D01*
X90262000Y-99960000D02*
X90262000Y-105040000D01*
X90262000Y-105040000D02*
X89500000Y-105040000D01*
%TD*%
M02*
