**ABCDEFGHIJKLMNOPQRSTUVWXYZabcdefghijklmnopqrstuvwxyz**************************
**PARASOLID !"#$%&'()*+,-./:;<=>?@[\]^_`{|}~0123456789**************************
**PART1;
MC=unknown;
MC_MODEL=unknown;
MC_ID=unknown;
OS=unknown;
OS_RELEASE=unknown;
FRU=Parasolid 36.0.180;
APPL=Onshape;
SITE=unknown;
USER=unknown;
FORMAT=text;
GUISE=transmit;
KEY=BTGapi::writeModels_.xmt;
FILE=BTGapi::writeModels_.xmt;
DATE=2024-10-20T14:53:15 (UTC);
**PART2;
SCH=SCH_3600180_36001;
USFLD_SIZE=0;
**PART3;
**END_OF_HEADER*****************************************************************
T51 : TRANSMIT FILE created by modeller version 360018023 SCH_3600180_36001_1300
6231 0 12 36 CCCI7 lattice222 0 CCCI4 mesh1006 0 I8 polyline1008 0 CCCCCCCDI5 ow
ner1040 0 CCCI16 boundary_lattice222 0 CCCI13 boundary_mesh1006 0 I17 boundary_p
olyline1008 0 CCCA16 index_map_offset0 0 1 dA9 index_map82 0 A17 node_id_index_m
ap82 0 A20 schema_embedding_map82 0 A5 child12 0 A14 lowest_node_id0 0 1 dA16 me
sh_offset_data206 0 Z1 84 2 3 0 0 0 0 0 0 0 1e3 1e-8 0 4 5 1 0 1 2 6 0 7 8 0 0 0
 9 10 0 0 0 0 0 0 0 0 81 255 1 2 80 11 1 12 0 0 0 13 70 11 CI9 list_type0 0 1 uI
10 notransmit0 0 1 lCCCDCCDI12 finger_index0 0 1 dI12 finger_block1012 0 CZ3 0 4
 T1 0 0 5 20 1 14 14 13 255 6 62 0 1 0 15 0 0 16 0 51 255 7 61 0 15 17 0 0 --.08
27335119247437 .0594337172806263 .002093 0 0 -1 .00155 -1 0 0 31 255 8 50 0 18 1
9 0 0 +-.0827335119247437 .0594337172806263 0 0 0 1 1 0 0 .00235 19 9 CCCCCCI5 f
rame230 0 CA5 owner12 0 Z9 19 0 1 16 0 20 0 V0 16 255 10 13 21 ?22 0 23 24 0 0 1
 81 1 21 72 25 10 0 0 26 27 28 17 255 22 0 29 22 22 0 30 10 0 0 +16 23 8 31 ?32
 10 18 33 0 0 1 31 24 15 0 10 33 19 0 +-.0827335119247437 .0594337172806263 .002
093 0 0 1 1 0 0 .00235 31 33 10 0 23 0 24 0 +-.0827335119247437 .059433717280626
3 .002093 0 0 1 1 0 0 .00155 31 19 51 0 34 24 8 0 +-.0827335119247437 .059433717
2806263 0 0 0 1 1 0 0 .00155 16 34 45 35 ?36 18 0 19 0 0 1 81 1 35 69 25 34 0 0
 0 31 37 17 36 0 38 36 36 0 39 34 0 0 +16 18 41 26 ?40 23 34 8 0 0 1 81 1 26 71
 25 18 0 0 31 21 41 17 40 0 42 40 40 0 43 18 0 0 +15 255 42 54 0 40 44 0 17 43 0
 45 43 43 0 40 18 0 0 -15 45 40 0 43 46 0 14 255 46 34 47 ?0 48 38 6 49 -0 0 0 4
8 20 81 1 47 84 50 46 51 0 52 0 53 14 48 1 52 ?46 44 54 6 55 +0 0 46 44 20 15 38
 39 0 36 46 45 50 255 49 49 0 46 55 17 0 +-.0767287909984589 .0639075357466936 0
 0 0 1 1 0 0 13 20 20 0 0 0 0 0 0 9 15 14 15 57 56 ?44 0 57 6 7 +0 0 44 0 20 81
 1 56 81 50 15 27 0 0 58 59 14 44 53 58 ?48 15 60 6 17 -0 0 48 15 20 15 57 56 0
 32 15 61 17 32 0 57 32 32 0 62 23 0 0 +15 61 58 0 39 15 0 17 39 0 61 39 39 0 36
 34 0 0 -17 62 0 54 62 62 0 32 23 0 0 -15 54 6 0 62 48 29 15 29 7 0 22 48 0 81 1
 58 82 50 44 63 0 56 52 64 15 60 52 0 30 44 42 51 17 60 0 44 49 7 0 --.082733511
9247437 .0594337172806263 .002093 0 0 -1 .00235 -1 0 0 17 30 0 60 30 30 0 22 10
 0 0 -80 7 CCCCCDI12 legal_owners0 17 1 lCZ1 50 0 65 8001 0 0 0 0 3 5 0 0 0 FFFF
TFTFFFFFFFFFF2 81 1 63 76 25 44 0 58 66 67 68 81 1 52 83 50 48 66 0 58 47 69 83
 255 3 64 .917647058823529 .917647058823529 .917647058823529 81 1 66 75 25 48 0
 52 51 63 70 83 3 69 .917647058823529 .917647058823529 .917647058823529 80 1 25
 71 72 9000 0 0 0 0 3 6 0 0 0 FFTFTFTTFFFFFFFFF1 81 1 51 74 25 46 0 47 27 66 73
 82 255 3 70 27 10 2 81 1 27 73 25 15 0 56 21 51 74 82 3 73 27 9 2 82 3 74 27 8
 2 79 255 9 72 BTI/DetId81 1 67 77 25 1 0 75 63 0 76 82 3 68 27 11 2 81 1 75 78
 77 1 67 12 0 0 78 82 3 76 27 2 3 80 1 77 79 80 8038 0 0 0 0 0 0 0 0 0 TTTTTTTTT
TTTTFTFT10 81 1 12 79 79 1 75 2 0 0 81 98 255 6 78 80 97 114 116 32 52 80 1 79 8
2 83 8017 0 0 0 0 0 0 0 0 0 TTTTTTTTTTTTTFTFT3 84 255 6 81 Part 479 13 83 SDL/TY
SA_NAME79 14 80 SDL/TYSA_UNAME79 15 65 SDL/TYSA_COLOUR83 3 59 .917647058823529 .
917647058823529 .917647058823529 50 55 3 0 48 0 49 0 +-.0767287909984589 .063907
5357466936 .002093 0 0 1 1 0 0 83 3 53 .917647058823529 .917647058823529 .917647
058823529 81 1 31 70 25 23 0 0 35 26 84 82 3 41 27 10 1 82 3 84 27 9 1 82 3 37 2
7 8 1 82 3 28 27 11 1 19 16 63 0 1 0 9 6 0 S0 74 4 CI16 index_map_offset0 0 1 dC
CZ20 14 5 0 0 67 75 12 2 47 0 0 0 0 0 0 0 0 0 0 0 0 0 0 0 80 1 11 50 85 8040 0 0
 0 0 3 5 0 0 0 TTTFFFFFFFFFFFFFF2 83 3 13 .917647058823529 .917647058823529 .917
647058823529 79 17 85 SDL/TYSA_COLOUR_21 0 
