%TF.GenerationSoftware,KiCad,Pcbnew,8.0.5*%
%TF.CreationDate,2025-02-18T21:33:55-07:00*%
%TF.ProjectId,nespad,6e657370-6164-42e6-9b69-6361645f7063,rev?*%
%TF.SameCoordinates,Original*%
%TF.FileFunction,Legend,Bot*%
%TF.FilePolarity,Positive*%
%FSLAX46Y46*%
G04 Gerber Fmt 4.6, Leading zero omitted, Abs format (unit mm)*
G04 Created by KiCad (PCBNEW 8.0.5) date 2025-02-18 21:33:55*
%MOMM*%
%LPD*%
G01*
G04 APERTURE LIST*
%ADD10C,0.101600*%
%ADD11C,0.127000*%
%ADD12C,0.100000*%
%ADD13C,0.504000*%
G04 APERTURE END LIST*
D10*
X160398809Y-64131979D02*
X160398809Y-64646026D01*
X160398809Y-64646026D02*
X160368571Y-64706502D01*
X160368571Y-64706502D02*
X160338333Y-64736741D01*
X160338333Y-64736741D02*
X160277857Y-64766979D01*
X160277857Y-64766979D02*
X160156904Y-64766979D01*
X160156904Y-64766979D02*
X160096428Y-64736741D01*
X160096428Y-64736741D02*
X160066190Y-64706502D01*
X160066190Y-64706502D02*
X160035952Y-64646026D01*
X160035952Y-64646026D02*
X160035952Y-64131979D01*
X159400952Y-64766979D02*
X159763809Y-64766979D01*
X159582381Y-64766979D02*
X159582381Y-64131979D01*
X159582381Y-64131979D02*
X159642857Y-64222693D01*
X159642857Y-64222693D02*
X159703333Y-64283169D01*
X159703333Y-64283169D02*
X159763809Y-64313407D01*
D11*
%TO.C,U1*%
X142525000Y-67842500D02*
X142525000Y-84987500D01*
X144430000Y-86892500D02*
X158400000Y-86892500D01*
X146911000Y-65937500D02*
X146911000Y-65027500D01*
X147411000Y-64527500D02*
X155406272Y-64527500D01*
X155906272Y-65027228D02*
X155910000Y-65937500D01*
D12*
X158400000Y-65937500D02*
X144430000Y-65937500D01*
D11*
X158400000Y-65937500D02*
X144430000Y-65937500D01*
X160305000Y-67842500D02*
X160305000Y-84987500D01*
X142525000Y-67842500D02*
G75*
G02*
X144430000Y-65937500I1905000J0D01*
G01*
X144430000Y-86892500D02*
G75*
G02*
X142525000Y-84987500I0J1905000D01*
G01*
X146911000Y-65027500D02*
G75*
G02*
X147411000Y-64527500I500000J0D01*
G01*
X155406272Y-64527500D02*
G75*
G02*
X155906273Y-65027228I-18J-500019D01*
G01*
X158400000Y-65937500D02*
G75*
G02*
X160305000Y-67842500I-1J-1905001D01*
G01*
X160305000Y-84987500D02*
G75*
G02*
X158400000Y-86892500I-1905001J1D01*
G01*
D13*
X159474000Y-67058500D02*
G75*
G02*
X158970000Y-67058500I-252000J0D01*
G01*
X158970000Y-67058500D02*
G75*
G02*
X159474000Y-67058500I252000J0D01*
G01*
X160617000Y-66178500D02*
G75*
G02*
X160113000Y-66178500I-252000J0D01*
G01*
X160113000Y-66178500D02*
G75*
G02*
X160617000Y-66178500I252000J0D01*
G01*
%TD*%
M02*
