%TF.GenerationSoftware,KiCad,Pcbnew,8.0.8*%
%TF.CreationDate,2025-02-14T20:38:13+05:30*%
%TF.ProjectId,bytepad,62797465-7061-4642-9e6b-696361645f70,8.2*%
%TF.SameCoordinates,Original*%
%TF.FileFunction,Copper,L2,Bot*%
%TF.FilePolarity,Positive*%
%FSLAX46Y46*%
G04 Gerber Fmt 4.6, Leading zero omitted, Abs format (unit mm)*
G04 Created by KiCad (PCBNEW 8.0.8) date 2025-02-14 20:38:13*
%MOMM*%
%LPD*%
G01*
G04 APERTURE LIST*
%TA.AperFunction,SMDPad,CuDef*%
%ADD10R,2.600000X2.600000*%
%TD*%
%TA.AperFunction,ComponentPad*%
%ADD11C,3.800000*%
%TD*%
%TA.AperFunction,ComponentPad*%
%ADD12O,2.750000X1.800000*%
%TD*%
%TA.AperFunction,ComponentPad*%
%ADD13C,1.397000*%
%TD*%
%TA.AperFunction,WasherPad*%
%ADD14O,3.200000X2.000000*%
%TD*%
%TA.AperFunction,ComponentPad*%
%ADD15R,2.000000X2.000000*%
%TD*%
%TA.AperFunction,ComponentPad*%
%ADD16C,2.000000*%
%TD*%
%TA.AperFunction,SMDPad,CuDef*%
%ADD17R,1.200000X0.900000*%
%TD*%
%TA.AperFunction,SMDPad,CuDef*%
%ADD18R,0.900000X1.200000*%
%TD*%
%TA.AperFunction,ViaPad*%
%ADD19C,0.800000*%
%TD*%
%TA.AperFunction,Conductor*%
%ADD20C,0.250000*%
%TD*%
G04 APERTURE END LIST*
D10*
%TO.P,SW4,1,1*%
%TO.N,COL2*%
X76425000Y-60100000D03*
%TO.P,SW4,2,2*%
%TO.N,Net-(D4-Pad2)*%
X88575000Y-62200000D03*
%TD*%
%TO.P,SW8,1,1*%
%TO.N,COL3*%
X94425000Y-77100000D03*
%TO.P,SW8,2,2*%
%TO.N,Net-(D8-Pad2)*%
X106575000Y-79200000D03*
%TD*%
%TO.P,SW6,1,1*%
%TO.N,COL4*%
X112425000Y-60100000D03*
%TO.P,SW6,2,2*%
%TO.N,Net-(D6-Pad2)*%
X124575000Y-62200000D03*
%TD*%
D11*
%TO.P,H4,1,1*%
%TO.N,unconnected-(H4-Pad1)*%
X107000000Y-74400000D03*
%TD*%
D10*
%TO.P,SW1,1,1*%
%TO.N,COL2*%
X76425000Y-43100000D03*
%TO.P,SW1,2,2*%
%TO.N,Net-(D1-Pad2)*%
X88575000Y-45200000D03*
%TD*%
%TO.P,SW7,1,1*%
%TO.N,COL2*%
X76425000Y-77100000D03*
%TO.P,SW7,2,2*%
%TO.N,Net-(D7-Pad2)*%
X88575000Y-79200000D03*
%TD*%
D11*
%TO.P,H1,1,1*%
%TO.N,unconnected-(H1-Pad1)*%
X89000000Y-57600000D03*
%TD*%
%TO.P,H5,1,1*%
%TO.N,unconnected-(H5-Pad1)*%
X59000000Y-69600000D03*
%TD*%
D12*
%TO.P,U1,1,A2*%
%TO.N,COL4*%
X50905000Y-43380000D03*
%TO.P,U1,2,A4*%
%TO.N,COL3*%
X50905000Y-45920000D03*
%TO.P,U1,3,A10*%
%TO.N,COL2*%
X50905000Y-48460000D03*
%TO.P,U1,4,A11*%
%TO.N,COL1*%
X50905000Y-51000000D03*
%TO.P,U1,5,A8_SDA*%
%TO.N,ROW1*%
X50905000Y-53540000D03*
%TO.P,U1,6,A9_SCL*%
%TO.N,ROW2*%
X50905000Y-56080000D03*
%TO.P,U1,7,B8_TX*%
%TO.N,ROW3*%
X50905000Y-58620000D03*
%TO.P,U1,8,B9_RX*%
%TO.N,ROT1A*%
X67095000Y-58620000D03*
%TO.P,U1,9,A7_SCK*%
%TO.N,ROT1B*%
X67095000Y-56080000D03*
%TO.P,U1,10,A5_MISO*%
%TO.N,unconnected-(U1-Pad10)*%
X67095000Y-53540000D03*
%TO.P,U1,11,A6_MOSI*%
%TO.N,unconnected-(U1-Pad11)*%
X67095000Y-51000000D03*
%TO.P,U1,12,3V3*%
%TO.N,unconnected-(U1-Pad12)*%
X67095000Y-48460000D03*
%TO.P,U1,13,GND*%
%TO.N,GND*%
X67095000Y-45920000D03*
%TO.P,U1,14,5V*%
%TO.N,unconnected-(U1-Pad14)*%
X67095000Y-43380000D03*
D13*
%TO.P,U1,15,A31_SWDIO*%
%TO.N,unconnected-(U1-Pad15)*%
X57730000Y-42428000D03*
%TO.P,U1,16,A30_SWCLK*%
%TO.N,unconnected-(U1-Pad16)*%
X60270000Y-42428000D03*
%TO.P,U1,17,RESET*%
%TO.N,unconnected-(U1-Pad17)*%
X57730000Y-44968000D03*
%TO.P,U1,18,GND*%
%TO.N,unconnected-(U1-Pad18)*%
X60270000Y-44968000D03*
%TD*%
D11*
%TO.P,H3,1,1*%
%TO.N,unconnected-(H3-Pad1)*%
X89000000Y-74400000D03*
%TD*%
D10*
%TO.P,SW5,1,1*%
%TO.N,COL3*%
X94425000Y-60100000D03*
%TO.P,SW5,2,2*%
%TO.N,Net-(D5-Pad2)*%
X106575000Y-62200000D03*
%TD*%
%TO.P,SW3,1,1*%
%TO.N,COL4*%
X112425000Y-43100000D03*
%TO.P,SW3,2,2*%
%TO.N,Net-(D3-Pad2)*%
X124575000Y-45200000D03*
%TD*%
D11*
%TO.P,H2,1,1*%
%TO.N,unconnected-(H2-Pad1)*%
X107000000Y-57400000D03*
%TD*%
D14*
%TO.P,ROT1,*%
%TO.N,*%
X59000000Y-78400000D03*
X59000000Y-89600000D03*
D15*
%TO.P,ROT1,A,A*%
%TO.N,ROT1A*%
X51500000Y-81500000D03*
D16*
%TO.P,ROT1,B,B*%
%TO.N,ROT1B*%
X51500000Y-86500000D03*
%TO.P,ROT1,C,C*%
%TO.N,GND*%
X51500000Y-84000000D03*
%TO.P,ROT1,S1,S1*%
%TO.N,COL1*%
X66000000Y-86500000D03*
%TO.P,ROT1,S2,S2*%
%TO.N,Net-(D10-Pad2)*%
X66000000Y-81500000D03*
%TD*%
D10*
%TO.P,SW9,1,1*%
%TO.N,COL4*%
X112425000Y-77100000D03*
%TO.P,SW9,2,2*%
%TO.N,Net-(D9-Pad2)*%
X124575000Y-79200000D03*
%TD*%
%TO.P,SW2,1,1*%
%TO.N,COL3*%
X94425000Y-43100000D03*
%TO.P,SW2,2,2*%
%TO.N,Net-(D2-Pad2)*%
X106575000Y-45200000D03*
%TD*%
D17*
%TO.P,D3,1,K*%
%TO.N,ROW1*%
X124200000Y-52650000D03*
%TO.P,D3,2,A*%
%TO.N,Net-(D3-Pad2)*%
X124200000Y-49350000D03*
%TD*%
%TO.P,D2,1,K*%
%TO.N,ROW1*%
X106800000Y-52650000D03*
%TO.P,D2,2,A*%
%TO.N,Net-(D2-Pad2)*%
X106800000Y-49350000D03*
%TD*%
%TO.P,D9,1,K*%
%TO.N,ROW3*%
X124800000Y-86650000D03*
%TO.P,D9,2,A*%
%TO.N,Net-(D9-Pad2)*%
X124800000Y-83350000D03*
%TD*%
%TO.P,D4,1,K*%
%TO.N,ROW2*%
X88800000Y-69650000D03*
%TO.P,D4,2,A*%
%TO.N,Net-(D4-Pad2)*%
X88800000Y-66350000D03*
%TD*%
%TO.P,D1,1,K*%
%TO.N,ROW1*%
X88800000Y-52650000D03*
%TO.P,D1,2,A*%
%TO.N,Net-(D1-Pad2)*%
X88800000Y-49350000D03*
%TD*%
%TO.P,D8,1,K*%
%TO.N,ROW3*%
X106800000Y-86650000D03*
%TO.P,D8,2,A*%
%TO.N,Net-(D8-Pad2)*%
X106800000Y-83350000D03*
%TD*%
%TO.P,D5,1,K*%
%TO.N,ROW2*%
X106800000Y-69650000D03*
%TO.P,D5,2,A*%
%TO.N,Net-(D5-Pad2)*%
X106800000Y-66350000D03*
%TD*%
%TO.P,D7,1,K*%
%TO.N,ROW3*%
X88800000Y-86650000D03*
%TO.P,D7,2,A*%
%TO.N,Net-(D7-Pad2)*%
X88800000Y-83350000D03*
%TD*%
%TO.P,D6,1,K*%
%TO.N,ROW2*%
X124800000Y-69650000D03*
%TO.P,D6,2,A*%
%TO.N,Net-(D6-Pad2)*%
X124800000Y-66350000D03*
%TD*%
D18*
%TO.P,D10,1,K*%
%TO.N,ROW3*%
X60450000Y-75400000D03*
%TO.P,D10,2,A*%
%TO.N,Net-(D10-Pad2)*%
X57150000Y-75400000D03*
%TD*%
D19*
%TO.N,ROW1*%
X74200000Y-52400000D03*
%TO.N,ROW2*%
X74600000Y-69600000D03*
%TO.N,ROW3*%
X60450000Y-75400000D03*
%TO.N,COL2*%
X76500000Y-43000000D03*
X76500000Y-77000000D03*
X76500000Y-60000000D03*
%TO.N,COL3*%
X94500000Y-43000000D03*
X94500000Y-77000000D03*
X94500000Y-60000000D03*
%TO.N,COL4*%
X112500000Y-77000000D03*
X112500000Y-43000000D03*
X112500000Y-60000000D03*
%TD*%
D20*
%TO.N,ROW1*%
X88800000Y-52650000D02*
X106800000Y-52650000D01*
X106800000Y-52650000D02*
X124200000Y-52650000D01*
X74450000Y-52650000D02*
X88800000Y-52650000D01*
X74200000Y-52400000D02*
X74450000Y-52650000D01*
%TO.N,Net-(D1-Pad2)*%
X88575000Y-45200000D02*
X88575000Y-49125000D01*
X88575000Y-49125000D02*
X88800000Y-49350000D01*
%TO.N,Net-(D2-Pad2)*%
X106575000Y-45200000D02*
X106575000Y-49125000D01*
X106575000Y-49125000D02*
X106800000Y-49350000D01*
%TO.N,Net-(D3-Pad2)*%
X124575000Y-48975000D02*
X124200000Y-49350000D01*
X124575000Y-45200000D02*
X124575000Y-48975000D01*
%TO.N,ROW2*%
X74600000Y-69600000D02*
X74650000Y-69650000D01*
X74650000Y-69650000D02*
X88800000Y-69650000D01*
X88800000Y-69650000D02*
X106800000Y-69650000D01*
X106800000Y-69650000D02*
X124800000Y-69650000D01*
%TO.N,Net-(D4-Pad2)*%
X88575000Y-66125000D02*
X88800000Y-66350000D01*
X88575000Y-62200000D02*
X88575000Y-66125000D01*
%TO.N,Net-(D5-Pad2)*%
X106575000Y-62200000D02*
X106575000Y-66125000D01*
X106575000Y-66125000D02*
X106800000Y-66350000D01*
%TO.N,Net-(D6-Pad2)*%
X124575000Y-62200000D02*
X124575000Y-66125000D01*
X124575000Y-66125000D02*
X124800000Y-66350000D01*
%TO.N,ROW3*%
X76418265Y-86650000D02*
X65168265Y-75400000D01*
X88800000Y-86650000D02*
X76418265Y-86650000D01*
X88800000Y-86650000D02*
X106800000Y-86650000D01*
X65168265Y-75400000D02*
X60450000Y-75400000D01*
X106800000Y-86650000D02*
X124800000Y-86650000D01*
%TO.N,Net-(D7-Pad2)*%
X88575000Y-79200000D02*
X88575000Y-83125000D01*
X88575000Y-83125000D02*
X88800000Y-83350000D01*
%TO.N,Net-(D8-Pad2)*%
X106575000Y-79200000D02*
X106575000Y-83125000D01*
X106575000Y-83125000D02*
X106800000Y-83350000D01*
%TO.N,Net-(D9-Pad2)*%
X124575000Y-83125000D02*
X124800000Y-83350000D01*
X124575000Y-79200000D02*
X124575000Y-83125000D01*
%TO.N,Net-(D10-Pad2)*%
X58074511Y-76324511D02*
X59524511Y-76324511D01*
X61300000Y-76800000D02*
X66000000Y-81500000D01*
X60000000Y-76800000D02*
X61300000Y-76800000D01*
X59524511Y-76324511D02*
X60000000Y-76800000D01*
X57150000Y-75400000D02*
X58074511Y-76324511D01*
%TO.N,ROT1A*%
X65580000Y-58620000D02*
X51500000Y-72700000D01*
X66620000Y-58620000D02*
X65580000Y-58620000D01*
X51500000Y-72700000D02*
X51500000Y-81500000D01*
%TO.N,ROT1B*%
X64782141Y-58782141D02*
X64782141Y-57917859D01*
X51050480Y-78600000D02*
X51050480Y-72513803D01*
X51050480Y-72513803D02*
X51782141Y-71782141D01*
X64782141Y-57917859D02*
X66620000Y-56080000D01*
X49600000Y-84600000D02*
X49600000Y-80050480D01*
X49600000Y-80050480D02*
X51050480Y-78600000D01*
X51782141Y-71782141D02*
X64782141Y-58782141D01*
X51500000Y-86500000D02*
X49600000Y-84600000D01*
%TO.N,COL1*%
X52000000Y-88600000D02*
X49200000Y-88600000D01*
X49200000Y-88600000D02*
X49150480Y-88550480D01*
X52775489Y-87824511D02*
X52000000Y-88600000D01*
X51238268Y-51000000D02*
X51380000Y-51000000D01*
X64675489Y-87824511D02*
X52775489Y-87824511D01*
X66000000Y-86500000D02*
X64675489Y-87824511D01*
X49150480Y-53087788D02*
X51238268Y-51000000D01*
X49150480Y-88550480D02*
X49150480Y-53087788D01*
%TO.N,COL2*%
X64200000Y-42484757D02*
X64200000Y-46200000D01*
X65000000Y-41600000D02*
X65000000Y-41684757D01*
X65000000Y-41684757D02*
X64200000Y-42484757D01*
X75480480Y-42155480D02*
X74555480Y-42155480D01*
X61940000Y-48460000D02*
X51380000Y-48460000D01*
X74000000Y-41600000D02*
X65000000Y-41600000D01*
X74555480Y-42155480D02*
X74000000Y-41600000D01*
X76425000Y-43100000D02*
X75480480Y-42155480D01*
X64200000Y-46200000D02*
X61940000Y-48460000D01*
%TO.N,COL3*%
X53210480Y-48010480D02*
X61753802Y-48010480D01*
X63750480Y-46013802D02*
X63750480Y-42213803D01*
X61753802Y-48010480D02*
X63750480Y-46013802D01*
X51380000Y-46180000D02*
X53210480Y-48010480D01*
X51380000Y-45920000D02*
X51380000Y-46180000D01*
X63750480Y-42213803D02*
X64813803Y-41150480D01*
X64813803Y-41150480D02*
X92475480Y-41150480D01*
X92475480Y-41150480D02*
X94425000Y-43100000D01*
%TO.N,COL4*%
X110025960Y-40700960D02*
X112425000Y-43100000D01*
X51380000Y-43380000D02*
X52817859Y-44817859D01*
X52817859Y-44817859D02*
X52817859Y-46982141D01*
X64627606Y-40700960D02*
X110025960Y-40700960D01*
X53396678Y-47560960D02*
X61567604Y-47560960D01*
X63300960Y-42027606D02*
X64627606Y-40700960D01*
X61567604Y-47560960D02*
X63300960Y-45827604D01*
X63300960Y-45827604D02*
X63300960Y-42027606D01*
X52817859Y-46982141D02*
X53396678Y-47560960D01*
%TD*%
%TA.AperFunction,Conductor*%
%TO.N,GND*%
G36*
X126007028Y-39501291D02*
G01*
X126097042Y-39511434D01*
X126124546Y-39517712D01*
X126203327Y-39545278D01*
X126228747Y-39557520D01*
X126299414Y-39601923D01*
X126321472Y-39619514D01*
X126380485Y-39678527D01*
X126398077Y-39700586D01*
X126442478Y-39771250D01*
X126454721Y-39796672D01*
X126482287Y-39875453D01*
X126488565Y-39902958D01*
X126498708Y-39992970D01*
X126499500Y-40007079D01*
X126499500Y-43507143D01*
X126479498Y-43575264D01*
X126425842Y-43621757D01*
X126355568Y-43631861D01*
X126290988Y-43602367D01*
X126272632Y-43582653D01*
X126239835Y-43538842D01*
X126238261Y-43536739D01*
X126238259Y-43536738D01*
X126238259Y-43536737D01*
X126121207Y-43449112D01*
X126121202Y-43449110D01*
X125984204Y-43398011D01*
X125984196Y-43398009D01*
X125923649Y-43391500D01*
X125923638Y-43391500D01*
X123226362Y-43391500D01*
X123226350Y-43391500D01*
X123165803Y-43398009D01*
X123165795Y-43398011D01*
X123028797Y-43449110D01*
X123028792Y-43449112D01*
X122911738Y-43536738D01*
X122824112Y-43653792D01*
X122824110Y-43653797D01*
X122773011Y-43790795D01*
X122773009Y-43790803D01*
X122766500Y-43851350D01*
X122766500Y-44288428D01*
X122746498Y-44356549D01*
X122692842Y-44403042D01*
X122622568Y-44413146D01*
X122557988Y-44383652D01*
X122531381Y-44351428D01*
X122458613Y-44225391D01*
X122458608Y-44225384D01*
X122318926Y-44043347D01*
X122318907Y-44043326D01*
X122156673Y-43881092D01*
X122156652Y-43881073D01*
X121974615Y-43741391D01*
X121974608Y-43741386D01*
X121775900Y-43626662D01*
X121775892Y-43626658D01*
X121775888Y-43626656D01*
X121563887Y-43538842D01*
X121342238Y-43479452D01*
X121342231Y-43479450D01*
X121114736Y-43449500D01*
X121114734Y-43449500D01*
X120885266Y-43449500D01*
X120885263Y-43449500D01*
X120657768Y-43479450D01*
X120443969Y-43536737D01*
X120436113Y-43538842D01*
X120235940Y-43621757D01*
X120224110Y-43626657D01*
X120224099Y-43626662D01*
X120025391Y-43741386D01*
X120025384Y-43741391D01*
X119843347Y-43881073D01*
X119843326Y-43881092D01*
X119681092Y-44043326D01*
X119681073Y-44043347D01*
X119541391Y-44225384D01*
X119541386Y-44225391D01*
X119426662Y-44424099D01*
X119426657Y-44424110D01*
X119426656Y-44424112D01*
X119370944Y-44558613D01*
X119338842Y-44636113D01*
X119279450Y-44857768D01*
X119249500Y-45085263D01*
X119249500Y-45314736D01*
X119279450Y-45542231D01*
X119289873Y-45581130D01*
X119338842Y-45763887D01*
X119426656Y-45975888D01*
X119426657Y-45975889D01*
X119426662Y-45975900D01*
X119541386Y-46174608D01*
X119541391Y-46174615D01*
X119681073Y-46356652D01*
X119681092Y-46356673D01*
X119843326Y-46518907D01*
X119843347Y-46518926D01*
X120025384Y-46658608D01*
X120025391Y-46658613D01*
X120224099Y-46773337D01*
X120224103Y-46773338D01*
X120224112Y-46773344D01*
X120436113Y-46861158D01*
X120657762Y-46920548D01*
X120657766Y-46920548D01*
X120657768Y-46920549D01*
X120710263Y-46927460D01*
X120885266Y-46950500D01*
X120885273Y-46950500D01*
X121114727Y-46950500D01*
X121114734Y-46950500D01*
X121320345Y-46923430D01*
X121342231Y-46920549D01*
X121342231Y-46920548D01*
X121342238Y-46920548D01*
X121563887Y-46861158D01*
X121775888Y-46773344D01*
X121974612Y-46658611D01*
X122156661Y-46518919D01*
X122318919Y-46356661D01*
X122458611Y-46174612D01*
X122531381Y-46048571D01*
X122582763Y-45999578D01*
X122652477Y-45986142D01*
X122718388Y-46012528D01*
X122759570Y-46070360D01*
X122766500Y-46111571D01*
X122766500Y-46548649D01*
X122773009Y-46609196D01*
X122773011Y-46609204D01*
X122824110Y-46746202D01*
X122824112Y-46746207D01*
X122911738Y-46863261D01*
X123028792Y-46950887D01*
X123028794Y-46950888D01*
X123028796Y-46950889D01*
X123087875Y-46972924D01*
X123165795Y-47001988D01*
X123165803Y-47001990D01*
X123226350Y-47008499D01*
X123226355Y-47008499D01*
X123226362Y-47008500D01*
X123815500Y-47008500D01*
X123883621Y-47028502D01*
X123930114Y-47082158D01*
X123941500Y-47134500D01*
X123941500Y-48265500D01*
X123921498Y-48333621D01*
X123867842Y-48380114D01*
X123815500Y-48391500D01*
X123551350Y-48391500D01*
X123490803Y-48398009D01*
X123490795Y-48398011D01*
X123353797Y-48449110D01*
X123353792Y-48449112D01*
X123236738Y-48536738D01*
X123149112Y-48653792D01*
X123149110Y-48653797D01*
X123098011Y-48790795D01*
X123098009Y-48790803D01*
X123091500Y-48851350D01*
X123091500Y-49848649D01*
X123098009Y-49909196D01*
X123098011Y-49909204D01*
X123149110Y-50046202D01*
X123149112Y-50046207D01*
X123236738Y-50163261D01*
X123353792Y-50250887D01*
X123353794Y-50250888D01*
X123353796Y-50250889D01*
X123412875Y-50272924D01*
X123490795Y-50301988D01*
X123490803Y-50301990D01*
X123551350Y-50308499D01*
X123551355Y-50308499D01*
X123551362Y-50308500D01*
X123551368Y-50308500D01*
X124848632Y-50308500D01*
X124848638Y-50308500D01*
X124848645Y-50308499D01*
X124848649Y-50308499D01*
X124909196Y-50301990D01*
X124909199Y-50301989D01*
X124909201Y-50301989D01*
X125046204Y-50250889D01*
X125163261Y-50163261D01*
X125250887Y-50046207D01*
X125250887Y-50046206D01*
X125250889Y-50046204D01*
X125301989Y-49909201D01*
X125308500Y-49848638D01*
X125308500Y-48851362D01*
X125308499Y-48851350D01*
X125301990Y-48790803D01*
X125301988Y-48790795D01*
X125250889Y-48653797D01*
X125250887Y-48653793D01*
X125233631Y-48630741D01*
X125208821Y-48564221D01*
X125208500Y-48555233D01*
X125208500Y-47134500D01*
X125228502Y-47066379D01*
X125282158Y-47019886D01*
X125334500Y-47008500D01*
X125923632Y-47008500D01*
X125923638Y-47008500D01*
X125923645Y-47008499D01*
X125923649Y-47008499D01*
X125984196Y-47001990D01*
X125984199Y-47001989D01*
X125984201Y-47001989D01*
X126121204Y-46950889D01*
X126152502Y-46927460D01*
X126238261Y-46863261D01*
X126272632Y-46817347D01*
X126329467Y-46774800D01*
X126400283Y-46769735D01*
X126462595Y-46803760D01*
X126496620Y-46866073D01*
X126499500Y-46892856D01*
X126499500Y-60507143D01*
X126479498Y-60575264D01*
X126425842Y-60621757D01*
X126355568Y-60631861D01*
X126290988Y-60602367D01*
X126272632Y-60582653D01*
X126239835Y-60538842D01*
X126238261Y-60536739D01*
X126238259Y-60536738D01*
X126238259Y-60536737D01*
X126121207Y-60449112D01*
X126121202Y-60449110D01*
X125984204Y-60398011D01*
X125984196Y-60398009D01*
X125923649Y-60391500D01*
X125923638Y-60391500D01*
X123226362Y-60391500D01*
X123226350Y-60391500D01*
X123165803Y-60398009D01*
X123165795Y-60398011D01*
X123028797Y-60449110D01*
X123028792Y-60449112D01*
X122911738Y-60536738D01*
X122824112Y-60653792D01*
X122824110Y-60653797D01*
X122773011Y-60790795D01*
X122773009Y-60790803D01*
X122766500Y-60851350D01*
X122766500Y-61288428D01*
X122746498Y-61356549D01*
X122692842Y-61403042D01*
X122622568Y-61413146D01*
X122557988Y-61383652D01*
X122531381Y-61351428D01*
X122458613Y-61225391D01*
X122458608Y-61225384D01*
X122318926Y-61043347D01*
X122318907Y-61043326D01*
X122156673Y-60881092D01*
X122156652Y-60881073D01*
X121974615Y-60741391D01*
X121974608Y-60741386D01*
X121775900Y-60626662D01*
X121775892Y-60626658D01*
X121775888Y-60626656D01*
X121563887Y-60538842D01*
X121342238Y-60479452D01*
X121342231Y-60479450D01*
X121114736Y-60449500D01*
X121114734Y-60449500D01*
X120885266Y-60449500D01*
X120885263Y-60449500D01*
X120657768Y-60479450D01*
X120443969Y-60536737D01*
X120436113Y-60538842D01*
X120235940Y-60621757D01*
X120224110Y-60626657D01*
X120224099Y-60626662D01*
X120025391Y-60741386D01*
X120025384Y-60741391D01*
X119843347Y-60881073D01*
X119843326Y-60881092D01*
X119681092Y-61043326D01*
X119681073Y-61043347D01*
X119541391Y-61225384D01*
X119541386Y-61225391D01*
X119426662Y-61424099D01*
X119426657Y-61424110D01*
X119426656Y-61424112D01*
X119370944Y-61558613D01*
X119338842Y-61636113D01*
X119279450Y-61857768D01*
X119249500Y-62085263D01*
X119249500Y-62314736D01*
X119279450Y-62542231D01*
X119279452Y-62542238D01*
X119338842Y-62763887D01*
X119426656Y-62975888D01*
X119426657Y-62975889D01*
X119426662Y-62975900D01*
X119541386Y-63174608D01*
X119541391Y-63174615D01*
X119681073Y-63356652D01*
X119681092Y-63356673D01*
X119843326Y-63518907D01*
X119843347Y-63518926D01*
X120025384Y-63658608D01*
X120025391Y-63658613D01*
X120224099Y-63773337D01*
X120224103Y-63773338D01*
X120224112Y-63773344D01*
X120436113Y-63861158D01*
X120657762Y-63920548D01*
X120657766Y-63920548D01*
X120657768Y-63920549D01*
X120716398Y-63928267D01*
X120885266Y-63950500D01*
X120885273Y-63950500D01*
X121114727Y-63950500D01*
X121114734Y-63950500D01*
X121320345Y-63923430D01*
X121342231Y-63920549D01*
X121342231Y-63920548D01*
X121342238Y-63920548D01*
X121563887Y-63861158D01*
X121775888Y-63773344D01*
X121974612Y-63658611D01*
X122156661Y-63518919D01*
X122318919Y-63356661D01*
X122458611Y-63174612D01*
X122531381Y-63048571D01*
X122582763Y-62999578D01*
X122652477Y-62986142D01*
X122718388Y-63012528D01*
X122759570Y-63070360D01*
X122766500Y-63111571D01*
X122766500Y-63548649D01*
X122773009Y-63609196D01*
X122773011Y-63609204D01*
X122824110Y-63746202D01*
X122824112Y-63746207D01*
X122911738Y-63863261D01*
X123028792Y-63950887D01*
X123028794Y-63950888D01*
X123028796Y-63950889D01*
X123087875Y-63972924D01*
X123165795Y-64001988D01*
X123165803Y-64001990D01*
X123226350Y-64008499D01*
X123226355Y-64008499D01*
X123226362Y-64008500D01*
X123815500Y-64008500D01*
X123883621Y-64028502D01*
X123930114Y-64082158D01*
X123941500Y-64134500D01*
X123941500Y-65395244D01*
X123921498Y-65463365D01*
X123891010Y-65496111D01*
X123836738Y-65536738D01*
X123749112Y-65653792D01*
X123749110Y-65653797D01*
X123698011Y-65790795D01*
X123698009Y-65790803D01*
X123691500Y-65851350D01*
X123691500Y-66848649D01*
X123698009Y-66909196D01*
X123698011Y-66909204D01*
X123749110Y-67046202D01*
X123749112Y-67046207D01*
X123836738Y-67163261D01*
X123953792Y-67250887D01*
X123953794Y-67250888D01*
X123953796Y-67250889D01*
X124012875Y-67272924D01*
X124090795Y-67301988D01*
X124090803Y-67301990D01*
X124151350Y-67308499D01*
X124151355Y-67308499D01*
X124151362Y-67308500D01*
X124151368Y-67308500D01*
X125448632Y-67308500D01*
X125448638Y-67308500D01*
X125448645Y-67308499D01*
X125448649Y-67308499D01*
X125509196Y-67301990D01*
X125509199Y-67301989D01*
X125509201Y-67301989D01*
X125646204Y-67250889D01*
X125674801Y-67229482D01*
X125763261Y-67163261D01*
X125850887Y-67046207D01*
X125850887Y-67046206D01*
X125850889Y-67046204D01*
X125901989Y-66909201D01*
X125908500Y-66848638D01*
X125908500Y-65851362D01*
X125908499Y-65851350D01*
X125901990Y-65790803D01*
X125901988Y-65790795D01*
X125850889Y-65653797D01*
X125850887Y-65653792D01*
X125763261Y-65536738D01*
X125646207Y-65449112D01*
X125646202Y-65449110D01*
X125509204Y-65398011D01*
X125509196Y-65398009D01*
X125448649Y-65391500D01*
X125448638Y-65391500D01*
X125334500Y-65391500D01*
X125266379Y-65371498D01*
X125219886Y-65317842D01*
X125208500Y-65265500D01*
X125208500Y-64134500D01*
X125228502Y-64066379D01*
X125282158Y-64019886D01*
X125334500Y-64008500D01*
X125923632Y-64008500D01*
X125923638Y-64008500D01*
X125923645Y-64008499D01*
X125923649Y-64008499D01*
X125984196Y-64001990D01*
X125984199Y-64001989D01*
X125984201Y-64001989D01*
X126121204Y-63950889D01*
X126161734Y-63920549D01*
X126238261Y-63863261D01*
X126272632Y-63817347D01*
X126329467Y-63774800D01*
X126400283Y-63769735D01*
X126462595Y-63803760D01*
X126496620Y-63866073D01*
X126499500Y-63892856D01*
X126499500Y-77507143D01*
X126479498Y-77575264D01*
X126425842Y-77621757D01*
X126355568Y-77631861D01*
X126290988Y-77602367D01*
X126272632Y-77582653D01*
X126239835Y-77538842D01*
X126238261Y-77536739D01*
X126238259Y-77536738D01*
X126238259Y-77536737D01*
X126121207Y-77449112D01*
X126121202Y-77449110D01*
X125984204Y-77398011D01*
X125984196Y-77398009D01*
X125923649Y-77391500D01*
X125923638Y-77391500D01*
X123226362Y-77391500D01*
X123226350Y-77391500D01*
X123165803Y-77398009D01*
X123165795Y-77398011D01*
X123028797Y-77449110D01*
X123028792Y-77449112D01*
X122911738Y-77536738D01*
X122824112Y-77653792D01*
X122824110Y-77653797D01*
X122773011Y-77790795D01*
X122773009Y-77790803D01*
X122766500Y-77851350D01*
X122766500Y-78288428D01*
X122746498Y-78356549D01*
X122692842Y-78403042D01*
X122622568Y-78413146D01*
X122557988Y-78383652D01*
X122531381Y-78351428D01*
X122458613Y-78225391D01*
X122458608Y-78225384D01*
X122318926Y-78043347D01*
X122318907Y-78043326D01*
X122156673Y-77881092D01*
X122156652Y-77881073D01*
X121974615Y-77741391D01*
X121974608Y-77741386D01*
X121775900Y-77626662D01*
X121775892Y-77626658D01*
X121775888Y-77626656D01*
X121563887Y-77538842D01*
X121342238Y-77479452D01*
X121342231Y-77479450D01*
X121114736Y-77449500D01*
X121114734Y-77449500D01*
X120885266Y-77449500D01*
X120885263Y-77449500D01*
X120657768Y-77479450D01*
X120493341Y-77523508D01*
X120436113Y-77538842D01*
X120235940Y-77621757D01*
X120224110Y-77626657D01*
X120224099Y-77626662D01*
X120025391Y-77741386D01*
X120025384Y-77741391D01*
X119843347Y-77881073D01*
X119843326Y-77881092D01*
X119681092Y-78043326D01*
X119681073Y-78043347D01*
X119541391Y-78225384D01*
X119541386Y-78225391D01*
X119426662Y-78424099D01*
X119426657Y-78424110D01*
X119426656Y-78424112D01*
X119370944Y-78558613D01*
X119338842Y-78636113D01*
X119279450Y-78857768D01*
X119249500Y-79085263D01*
X119249500Y-79314736D01*
X119279450Y-79542231D01*
X119281697Y-79550617D01*
X119338842Y-79763887D01*
X119426656Y-79975888D01*
X119426657Y-79975889D01*
X119426662Y-79975900D01*
X119541386Y-80174608D01*
X119541391Y-80174615D01*
X119681073Y-80356652D01*
X119681092Y-80356673D01*
X119843326Y-80518907D01*
X119843347Y-80518926D01*
X120025384Y-80658608D01*
X120025391Y-80658613D01*
X120224099Y-80773337D01*
X120224103Y-80773338D01*
X120224112Y-80773344D01*
X120436113Y-80861158D01*
X120657762Y-80920548D01*
X120657766Y-80920548D01*
X120657768Y-80920549D01*
X120716398Y-80928267D01*
X120885266Y-80950500D01*
X120885273Y-80950500D01*
X121114727Y-80950500D01*
X121114734Y-80950500D01*
X121334696Y-80921541D01*
X121342231Y-80920549D01*
X121342231Y-80920548D01*
X121342238Y-80920548D01*
X121563887Y-80861158D01*
X121775888Y-80773344D01*
X121974612Y-80658611D01*
X122156661Y-80518919D01*
X122318919Y-80356661D01*
X122458611Y-80174612D01*
X122518801Y-80070360D01*
X122531381Y-80048571D01*
X122582763Y-79999578D01*
X122652477Y-79986142D01*
X122718388Y-80012528D01*
X122759570Y-80070360D01*
X122766500Y-80111571D01*
X122766500Y-80548649D01*
X122773009Y-80609196D01*
X122773011Y-80609204D01*
X122824110Y-80746202D01*
X122824112Y-80746207D01*
X122911738Y-80863261D01*
X123028792Y-80950887D01*
X123028794Y-80950888D01*
X123028796Y-80950889D01*
X123087875Y-80972924D01*
X123165795Y-81001988D01*
X123165803Y-81001990D01*
X123226350Y-81008499D01*
X123226355Y-81008499D01*
X123226362Y-81008500D01*
X123815500Y-81008500D01*
X123883621Y-81028502D01*
X123930114Y-81082158D01*
X123941500Y-81134500D01*
X123941500Y-82395244D01*
X123921498Y-82463365D01*
X123891010Y-82496111D01*
X123836738Y-82536738D01*
X123749112Y-82653792D01*
X123749110Y-82653797D01*
X123698011Y-82790795D01*
X123698009Y-82790803D01*
X123691500Y-82851350D01*
X123691500Y-83848649D01*
X123698009Y-83909196D01*
X123698011Y-83909204D01*
X123749110Y-84046202D01*
X123749112Y-84046207D01*
X123836738Y-84163261D01*
X123953792Y-84250887D01*
X123953794Y-84250888D01*
X123953796Y-84250889D01*
X124001546Y-84268699D01*
X124090795Y-84301988D01*
X124090803Y-84301990D01*
X124151350Y-84308499D01*
X124151355Y-84308499D01*
X124151362Y-84308500D01*
X124151368Y-84308500D01*
X125448632Y-84308500D01*
X125448638Y-84308500D01*
X125448645Y-84308499D01*
X125448649Y-84308499D01*
X125509196Y-84301990D01*
X125509199Y-84301989D01*
X125509201Y-84301989D01*
X125646204Y-84250889D01*
X125763261Y-84163261D01*
X125783989Y-84135572D01*
X125850887Y-84046207D01*
X125850887Y-84046206D01*
X125850889Y-84046204D01*
X125901989Y-83909201D01*
X125905072Y-83880529D01*
X125908499Y-83848649D01*
X125908500Y-83848632D01*
X125908500Y-82851367D01*
X125908499Y-82851350D01*
X125901990Y-82790803D01*
X125901988Y-82790795D01*
X125850889Y-82653797D01*
X125850887Y-82653792D01*
X125763261Y-82536738D01*
X125646207Y-82449112D01*
X125646202Y-82449110D01*
X125509204Y-82398011D01*
X125509196Y-82398009D01*
X125448649Y-82391500D01*
X125448638Y-82391500D01*
X125334500Y-82391500D01*
X125266379Y-82371498D01*
X125219886Y-82317842D01*
X125208500Y-82265500D01*
X125208500Y-81134500D01*
X125228502Y-81066379D01*
X125282158Y-81019886D01*
X125334500Y-81008500D01*
X125923632Y-81008500D01*
X125923638Y-81008500D01*
X125923645Y-81008499D01*
X125923649Y-81008499D01*
X125984196Y-81001990D01*
X125984199Y-81001989D01*
X125984201Y-81001989D01*
X126121204Y-80950889D01*
X126161734Y-80920549D01*
X126238261Y-80863261D01*
X126272632Y-80817347D01*
X126329467Y-80774800D01*
X126400283Y-80769735D01*
X126462595Y-80803760D01*
X126496620Y-80866073D01*
X126499500Y-80892856D01*
X126499500Y-90992920D01*
X126498708Y-91007029D01*
X126488565Y-91097041D01*
X126482287Y-91124546D01*
X126454721Y-91203327D01*
X126442478Y-91228749D01*
X126398077Y-91299413D01*
X126380485Y-91321472D01*
X126321472Y-91380485D01*
X126299413Y-91398077D01*
X126228749Y-91442478D01*
X126203327Y-91454721D01*
X126124546Y-91482287D01*
X126097041Y-91488565D01*
X126021291Y-91497100D01*
X126007027Y-91498708D01*
X125992921Y-91499500D01*
X49007079Y-91499500D01*
X48992972Y-91498708D01*
X48976295Y-91496829D01*
X48902958Y-91488565D01*
X48875453Y-91482287D01*
X48796672Y-91454721D01*
X48771250Y-91442478D01*
X48700586Y-91398077D01*
X48678527Y-91380485D01*
X48619514Y-91321472D01*
X48601922Y-91299413D01*
X48557521Y-91228749D01*
X48545278Y-91203327D01*
X48517712Y-91124546D01*
X48511434Y-91097040D01*
X48501292Y-91007028D01*
X48500500Y-90992920D01*
X48500500Y-89100594D01*
X48520502Y-89032473D01*
X48574158Y-88985980D01*
X48644432Y-88975876D01*
X48709012Y-89005370D01*
X48715595Y-89011499D01*
X48796167Y-89092071D01*
X48899925Y-89161400D01*
X49015215Y-89209155D01*
X49137606Y-89233500D01*
X49137607Y-89233500D01*
X52062393Y-89233500D01*
X52062394Y-89233500D01*
X52184785Y-89209155D01*
X52300075Y-89161400D01*
X52403833Y-89092071D01*
X53000988Y-88494916D01*
X53063300Y-88460890D01*
X53090083Y-88458011D01*
X57117806Y-88458011D01*
X57185927Y-88478013D01*
X57232420Y-88531669D01*
X57242524Y-88601943D01*
X57219742Y-88658070D01*
X57178877Y-88714316D01*
X57109817Y-88809369D01*
X57002019Y-89020935D01*
X57002016Y-89020941D01*
X56928645Y-89246753D01*
X56928644Y-89246758D01*
X56928644Y-89246759D01*
X56891500Y-89481278D01*
X56891500Y-89718722D01*
X56928644Y-89953241D01*
X56928645Y-89953246D01*
X57002016Y-90179058D01*
X57002018Y-90179063D01*
X57109815Y-90390627D01*
X57249380Y-90582722D01*
X57249382Y-90582724D01*
X57249384Y-90582727D01*
X57417272Y-90750615D01*
X57417275Y-90750617D01*
X57417278Y-90750620D01*
X57609373Y-90890185D01*
X57820937Y-90997982D01*
X58046759Y-91071356D01*
X58281278Y-91108500D01*
X58281281Y-91108500D01*
X59718719Y-91108500D01*
X59718722Y-91108500D01*
X59953241Y-91071356D01*
X60179063Y-90997982D01*
X60390627Y-90890185D01*
X60582722Y-90750620D01*
X60750620Y-90582722D01*
X60890185Y-90390627D01*
X60997982Y-90179063D01*
X61071356Y-89953241D01*
X61108500Y-89718722D01*
X61108500Y-89481278D01*
X61071356Y-89246759D01*
X60997982Y-89020937D01*
X60890185Y-88809373D01*
X60780257Y-88658070D01*
X60756400Y-88591205D01*
X60772480Y-88522053D01*
X60823394Y-88472573D01*
X60882194Y-88458011D01*
X64737882Y-88458011D01*
X64737883Y-88458011D01*
X64860274Y-88433666D01*
X64975564Y-88385911D01*
X65079322Y-88316582D01*
X65421541Y-87974361D01*
X65483851Y-87940338D01*
X65540044Y-87940938D01*
X65763289Y-87994535D01*
X66000000Y-88013165D01*
X66236711Y-87994535D01*
X66467594Y-87939105D01*
X66686963Y-87848240D01*
X66889416Y-87724176D01*
X67069969Y-87569969D01*
X67224176Y-87389416D01*
X67348240Y-87186963D01*
X67439105Y-86967594D01*
X67494535Y-86736711D01*
X67513165Y-86500000D01*
X67494535Y-86263289D01*
X67439105Y-86032406D01*
X67348240Y-85813037D01*
X67224176Y-85610584D01*
X67224173Y-85610580D01*
X67069969Y-85430030D01*
X66889419Y-85275826D01*
X66889417Y-85275825D01*
X66889416Y-85275824D01*
X66686963Y-85151760D01*
X66467594Y-85060895D01*
X66467592Y-85060894D01*
X66309651Y-85022976D01*
X66236711Y-85005465D01*
X66000000Y-84986835D01*
X65763289Y-85005465D01*
X65532407Y-85060894D01*
X65313038Y-85151759D01*
X65110582Y-85275825D01*
X65110580Y-85275826D01*
X64930030Y-85430030D01*
X64775826Y-85610580D01*
X64775825Y-85610582D01*
X64651759Y-85813038D01*
X64560894Y-86032407D01*
X64505465Y-86263289D01*
X64486835Y-86500000D01*
X64505465Y-86736711D01*
X64559059Y-86959950D01*
X64555511Y-87030858D01*
X64525637Y-87078457D01*
X64449991Y-87154105D01*
X64387679Y-87188131D01*
X64360894Y-87191011D01*
X53035135Y-87191011D01*
X52967014Y-87171009D01*
X52920521Y-87117353D01*
X52910417Y-87047079D01*
X52918726Y-87016794D01*
X52923295Y-87005760D01*
X52939105Y-86967594D01*
X52994535Y-86736711D01*
X53013165Y-86500000D01*
X52994535Y-86263289D01*
X52939105Y-86032406D01*
X52848240Y-85813037D01*
X52724176Y-85610584D01*
X52724173Y-85610580D01*
X52569969Y-85430030D01*
X52421937Y-85303599D01*
X52383127Y-85244149D01*
X52382952Y-85242161D01*
X51624948Y-84484157D01*
X51692993Y-84465925D01*
X51807007Y-84400099D01*
X51900099Y-84307007D01*
X51965925Y-84192993D01*
X51984157Y-84124948D01*
X52733101Y-84873892D01*
X52733102Y-84873891D01*
X52847791Y-84686738D01*
X52938628Y-84467437D01*
X52994039Y-84236632D01*
X53012662Y-84000000D01*
X52994039Y-83763367D01*
X52938628Y-83532562D01*
X52847791Y-83313261D01*
X52723606Y-83110611D01*
X52705067Y-83042078D01*
X52726523Y-82974401D01*
X52755527Y-82943909D01*
X52863261Y-82863261D01*
X52872169Y-82851362D01*
X52950887Y-82746207D01*
X52950887Y-82746206D01*
X52950889Y-82746204D01*
X53001989Y-82609201D01*
X53005025Y-82580966D01*
X53008499Y-82548649D01*
X53008500Y-82548632D01*
X53008500Y-80451367D01*
X53008499Y-80451350D01*
X53001990Y-80390803D01*
X53001988Y-80390795D01*
X52950889Y-80253797D01*
X52950887Y-80253792D01*
X52863261Y-80136738D01*
X52746207Y-80049112D01*
X52746202Y-80049110D01*
X52609204Y-79998011D01*
X52609196Y-79998009D01*
X52548649Y-79991500D01*
X52548638Y-79991500D01*
X52259500Y-79991500D01*
X52191379Y-79971498D01*
X52144886Y-79917842D01*
X52133500Y-79865500D01*
X52133500Y-74751350D01*
X56191500Y-74751350D01*
X56191500Y-76048649D01*
X56198009Y-76109196D01*
X56198011Y-76109204D01*
X56249110Y-76246202D01*
X56249112Y-76246207D01*
X56336738Y-76363261D01*
X56453792Y-76450887D01*
X56453794Y-76450888D01*
X56453796Y-76450889D01*
X56512875Y-76472924D01*
X56590795Y-76501988D01*
X56590803Y-76501990D01*
X56651350Y-76508499D01*
X56651355Y-76508499D01*
X56651362Y-76508500D01*
X57310406Y-76508500D01*
X57378527Y-76528502D01*
X57399501Y-76545405D01*
X57670678Y-76816582D01*
X57705024Y-76839531D01*
X57714395Y-76845793D01*
X57759923Y-76900270D01*
X57768771Y-76970713D01*
X57738129Y-77034757D01*
X57701596Y-77062825D01*
X57609369Y-77109816D01*
X57417275Y-77249382D01*
X57417272Y-77249384D01*
X57249384Y-77417272D01*
X57249382Y-77417275D01*
X57109817Y-77609369D01*
X57002019Y-77820935D01*
X57002016Y-77820941D01*
X56928645Y-78046753D01*
X56928644Y-78046758D01*
X56928644Y-78046759D01*
X56891500Y-78281278D01*
X56891500Y-78518722D01*
X56926850Y-78741915D01*
X56928645Y-78753246D01*
X56999267Y-78970596D01*
X57002018Y-78979063D01*
X57109815Y-79190627D01*
X57249380Y-79382722D01*
X57249382Y-79382724D01*
X57249384Y-79382727D01*
X57417272Y-79550615D01*
X57417275Y-79550617D01*
X57417278Y-79550620D01*
X57609373Y-79690185D01*
X57820937Y-79797982D01*
X58046759Y-79871356D01*
X58281278Y-79908500D01*
X58281281Y-79908500D01*
X59718719Y-79908500D01*
X59718722Y-79908500D01*
X59953241Y-79871356D01*
X60179063Y-79797982D01*
X60390627Y-79690185D01*
X60582722Y-79550620D01*
X60750620Y-79382722D01*
X60890185Y-79190627D01*
X60997982Y-78979063D01*
X61071356Y-78753241D01*
X61108500Y-78518722D01*
X61108500Y-78281278D01*
X61071356Y-78046759D01*
X60997982Y-77820937D01*
X60915505Y-77659067D01*
X60902402Y-77589293D01*
X60929102Y-77523508D01*
X60987130Y-77482602D01*
X61058061Y-77479562D01*
X61116868Y-77512772D01*
X64525636Y-80921541D01*
X64559662Y-80983853D01*
X64559060Y-81040049D01*
X64532891Y-81149050D01*
X64505465Y-81263289D01*
X64486835Y-81500000D01*
X64505465Y-81736710D01*
X64560894Y-81967592D01*
X64651759Y-82186961D01*
X64775825Y-82389417D01*
X64775826Y-82389419D01*
X64930030Y-82569969D01*
X65110580Y-82724173D01*
X65110584Y-82724176D01*
X65313037Y-82848240D01*
X65532406Y-82939105D01*
X65763289Y-82994535D01*
X66000000Y-83013165D01*
X66236711Y-82994535D01*
X66467594Y-82939105D01*
X66686963Y-82848240D01*
X66889416Y-82724176D01*
X67069969Y-82569969D01*
X67224176Y-82389416D01*
X67348240Y-82186963D01*
X67439105Y-81967594D01*
X67494535Y-81736711D01*
X67513165Y-81500000D01*
X67494535Y-81263289D01*
X67439105Y-81032406D01*
X67348240Y-80813037D01*
X67224176Y-80610584D01*
X67224173Y-80610580D01*
X67069969Y-80430030D01*
X66889419Y-80275826D01*
X66889417Y-80275825D01*
X66889416Y-80275824D01*
X66686963Y-80151760D01*
X66650697Y-80136738D01*
X66467592Y-80060894D01*
X66309651Y-80022976D01*
X66236711Y-80005465D01*
X66000000Y-79986835D01*
X65763289Y-80005465D01*
X65540049Y-80059059D01*
X65469142Y-80055513D01*
X65421541Y-80025636D01*
X61703835Y-76307931D01*
X61703833Y-76307929D01*
X61638484Y-76264264D01*
X61592957Y-76209789D01*
X61584109Y-76139345D01*
X61614750Y-76075301D01*
X61675152Y-76037990D01*
X61708487Y-76033500D01*
X64853671Y-76033500D01*
X64921792Y-76053502D01*
X64942765Y-76070404D01*
X76014432Y-87142072D01*
X76118190Y-87211401D01*
X76199712Y-87245168D01*
X76233480Y-87259155D01*
X76355871Y-87283500D01*
X76355872Y-87283500D01*
X76480659Y-87283500D01*
X87640113Y-87283500D01*
X87708234Y-87303502D01*
X87742275Y-87340064D01*
X87743711Y-87338990D01*
X87749110Y-87346202D01*
X87749111Y-87346204D01*
X87767663Y-87370987D01*
X87836738Y-87463261D01*
X87953792Y-87550887D01*
X87953794Y-87550888D01*
X87953796Y-87550889D01*
X88004951Y-87569969D01*
X88090795Y-87601988D01*
X88090803Y-87601990D01*
X88151350Y-87608499D01*
X88151355Y-87608499D01*
X88151362Y-87608500D01*
X88151368Y-87608500D01*
X89448632Y-87608500D01*
X89448638Y-87608500D01*
X89448645Y-87608499D01*
X89448649Y-87608499D01*
X89509196Y-87601990D01*
X89509199Y-87601989D01*
X89509201Y-87601989D01*
X89646204Y-87550889D01*
X89763261Y-87463261D01*
X89850889Y-87346204D01*
X89850890Y-87346202D01*
X89856289Y-87338990D01*
X89858081Y-87340331D01*
X89899507Y-87298909D01*
X89959887Y-87283500D01*
X105640113Y-87283500D01*
X105708234Y-87303502D01*
X105742275Y-87340064D01*
X105743711Y-87338990D01*
X105749110Y-87346202D01*
X105749111Y-87346204D01*
X105767663Y-87370987D01*
X105836738Y-87463261D01*
X105953792Y-87550887D01*
X105953794Y-87550888D01*
X105953796Y-87550889D01*
X106004951Y-87569969D01*
X106090795Y-87601988D01*
X106090803Y-87601990D01*
X106151350Y-87608499D01*
X106151355Y-87608499D01*
X106151362Y-87608500D01*
X106151368Y-87608500D01*
X107448632Y-87608500D01*
X107448638Y-87608500D01*
X107448645Y-87608499D01*
X107448649Y-87608499D01*
X107509196Y-87601990D01*
X107509199Y-87601989D01*
X107509201Y-87601989D01*
X107646204Y-87550889D01*
X107763261Y-87463261D01*
X107850889Y-87346204D01*
X107850890Y-87346202D01*
X107856289Y-87338990D01*
X107858081Y-87340331D01*
X107899507Y-87298909D01*
X107959887Y-87283500D01*
X123640113Y-87283500D01*
X123708234Y-87303502D01*
X123742275Y-87340064D01*
X123743711Y-87338990D01*
X123749110Y-87346202D01*
X123749111Y-87346204D01*
X123767663Y-87370987D01*
X123836738Y-87463261D01*
X123953792Y-87550887D01*
X123953794Y-87550888D01*
X123953796Y-87550889D01*
X124004951Y-87569969D01*
X124090795Y-87601988D01*
X124090803Y-87601990D01*
X124151350Y-87608499D01*
X124151355Y-87608499D01*
X124151362Y-87608500D01*
X124151368Y-87608500D01*
X125448632Y-87608500D01*
X125448638Y-87608500D01*
X125448645Y-87608499D01*
X125448649Y-87608499D01*
X125509196Y-87601990D01*
X125509199Y-87601989D01*
X125509201Y-87601989D01*
X125646204Y-87550889D01*
X125763261Y-87463261D01*
X125850889Y-87346204D01*
X125894960Y-87228045D01*
X125901988Y-87209204D01*
X125901990Y-87209196D01*
X125908499Y-87148649D01*
X125908500Y-87148632D01*
X125908500Y-86151367D01*
X125908499Y-86151350D01*
X125901990Y-86090803D01*
X125901988Y-86090795D01*
X125866816Y-85996498D01*
X125850889Y-85953796D01*
X125850888Y-85953794D01*
X125850887Y-85953792D01*
X125763261Y-85836738D01*
X125646207Y-85749112D01*
X125646202Y-85749110D01*
X125509204Y-85698011D01*
X125509196Y-85698009D01*
X125448649Y-85691500D01*
X125448638Y-85691500D01*
X124151362Y-85691500D01*
X124151350Y-85691500D01*
X124090803Y-85698009D01*
X124090795Y-85698011D01*
X123953797Y-85749110D01*
X123953792Y-85749112D01*
X123836738Y-85836738D01*
X123743711Y-85961010D01*
X123741918Y-85959668D01*
X123700493Y-86001091D01*
X123640113Y-86016500D01*
X107959887Y-86016500D01*
X107891766Y-85996498D01*
X107857724Y-85959935D01*
X107856289Y-85961010D01*
X107763261Y-85836738D01*
X107646207Y-85749112D01*
X107646202Y-85749110D01*
X107509204Y-85698011D01*
X107509196Y-85698009D01*
X107448649Y-85691500D01*
X107448638Y-85691500D01*
X106151362Y-85691500D01*
X106151350Y-85691500D01*
X106090803Y-85698009D01*
X106090795Y-85698011D01*
X105953797Y-85749110D01*
X105953792Y-85749112D01*
X105836738Y-85836738D01*
X105743711Y-85961010D01*
X105741918Y-85959668D01*
X105700493Y-86001091D01*
X105640113Y-86016500D01*
X89959887Y-86016500D01*
X89891766Y-85996498D01*
X89857724Y-85959935D01*
X89856289Y-85961010D01*
X89763261Y-85836738D01*
X89646207Y-85749112D01*
X89646202Y-85749110D01*
X89509204Y-85698011D01*
X89509196Y-85698009D01*
X89448649Y-85691500D01*
X89448638Y-85691500D01*
X88151362Y-85691500D01*
X88151350Y-85691500D01*
X88090803Y-85698009D01*
X88090795Y-85698011D01*
X87953797Y-85749110D01*
X87953792Y-85749112D01*
X87836738Y-85836738D01*
X87743711Y-85961010D01*
X87741918Y-85959668D01*
X87700493Y-86001091D01*
X87640113Y-86016500D01*
X76732860Y-86016500D01*
X76664739Y-85996498D01*
X76643765Y-85979595D01*
X74887142Y-84222972D01*
X74853116Y-84160660D01*
X74858181Y-84089845D01*
X74900728Y-84033009D01*
X74919035Y-84021610D01*
X74922442Y-84019873D01*
X74922445Y-84019873D01*
X75076788Y-83941232D01*
X75216928Y-83839414D01*
X75339414Y-83716928D01*
X75441232Y-83576788D01*
X75519873Y-83422445D01*
X75573402Y-83257701D01*
X75600500Y-83086611D01*
X75600500Y-82913389D01*
X75593969Y-82872154D01*
X78049500Y-82872154D01*
X78049500Y-83127845D01*
X78082872Y-83381332D01*
X78082873Y-83381338D01*
X78082874Y-83381340D01*
X78149050Y-83628313D01*
X78246896Y-83864535D01*
X78246897Y-83864536D01*
X78246902Y-83864546D01*
X78374736Y-84085961D01*
X78374738Y-84085963D01*
X78374739Y-84085965D01*
X78456865Y-84192993D01*
X78530385Y-84288807D01*
X78530404Y-84288828D01*
X78711171Y-84469595D01*
X78711181Y-84469604D01*
X78711187Y-84469610D01*
X78914035Y-84625261D01*
X79135465Y-84753104D01*
X79371687Y-84850950D01*
X79618660Y-84917126D01*
X79618666Y-84917126D01*
X79618667Y-84917127D01*
X79647751Y-84920956D01*
X79872157Y-84950500D01*
X79872164Y-84950500D01*
X80127836Y-84950500D01*
X80127843Y-84950500D01*
X80381340Y-84917126D01*
X80628313Y-84850950D01*
X80864535Y-84753104D01*
X81085965Y-84625261D01*
X81288813Y-84469610D01*
X81469610Y-84288813D01*
X81625261Y-84085965D01*
X81753104Y-83864535D01*
X81850950Y-83628313D01*
X81917126Y-83381340D01*
X81950500Y-83127843D01*
X81950500Y-82913389D01*
X84399500Y-82913389D01*
X84399500Y-83086611D01*
X84426598Y-83257701D01*
X84480127Y-83422445D01*
X84480128Y-83422448D01*
X84480130Y-83422452D01*
X84558768Y-83576788D01*
X84660587Y-83716930D01*
X84783069Y-83839412D01*
X84783072Y-83839414D01*
X84923212Y-83941232D01*
X85077555Y-84019873D01*
X85242299Y-84073402D01*
X85413389Y-84100500D01*
X85413392Y-84100500D01*
X85586608Y-84100500D01*
X85586611Y-84100500D01*
X85757701Y-84073402D01*
X85922445Y-84019873D01*
X86076788Y-83941232D01*
X86216928Y-83839414D01*
X86339414Y-83716928D01*
X86441232Y-83576788D01*
X86519873Y-83422445D01*
X86573402Y-83257701D01*
X86600500Y-83086611D01*
X86600500Y-82913389D01*
X86573402Y-82742299D01*
X86519873Y-82577555D01*
X86441232Y-82423212D01*
X86339414Y-82283072D01*
X86339412Y-82283069D01*
X86216930Y-82160587D01*
X86076788Y-82058768D01*
X85922452Y-81980130D01*
X85922448Y-81980128D01*
X85922445Y-81980127D01*
X85757701Y-81926598D01*
X85586611Y-81899500D01*
X85413389Y-81899500D01*
X85242299Y-81926598D01*
X85242296Y-81926598D01*
X85242295Y-81926599D01*
X85163253Y-81952281D01*
X85077555Y-81980127D01*
X85077553Y-81980127D01*
X85077547Y-81980130D01*
X84923211Y-82058768D01*
X84783069Y-82160587D01*
X84660587Y-82283069D01*
X84558768Y-82423211D01*
X84480130Y-82577547D01*
X84480127Y-82577556D01*
X84432487Y-82724176D01*
X84426598Y-82742299D01*
X84399500Y-82913389D01*
X81950500Y-82913389D01*
X81950500Y-82872157D01*
X81917126Y-82618660D01*
X81850950Y-82371687D01*
X81753104Y-82135465D01*
X81663419Y-81980127D01*
X81625263Y-81914038D01*
X81625261Y-81914035D01*
X81469610Y-81711187D01*
X81469604Y-81711181D01*
X81469595Y-81711171D01*
X81288828Y-81530404D01*
X81288807Y-81530385D01*
X81195548Y-81458825D01*
X81085965Y-81374739D01*
X81085963Y-81374738D01*
X81085961Y-81374736D01*
X80864546Y-81246902D01*
X80864541Y-81246899D01*
X80864535Y-81246896D01*
X80628313Y-81149050D01*
X80381340Y-81082874D01*
X80381338Y-81082873D01*
X80381332Y-81082872D01*
X80127845Y-81049500D01*
X80127843Y-81049500D01*
X79872157Y-81049500D01*
X79872154Y-81049500D01*
X79618667Y-81082872D01*
X79371687Y-81149050D01*
X79135463Y-81246897D01*
X79135453Y-81246902D01*
X78914038Y-81374736D01*
X78914032Y-81374741D01*
X78711192Y-81530385D01*
X78711171Y-81530404D01*
X78530404Y-81711171D01*
X78530385Y-81711192D01*
X78374741Y-81914032D01*
X78374736Y-81914038D01*
X78246902Y-82135453D01*
X78246897Y-82135463D01*
X78149050Y-82371687D01*
X78082872Y-82618667D01*
X78049500Y-82872154D01*
X75593969Y-82872154D01*
X75573402Y-82742299D01*
X75519873Y-82577555D01*
X75441232Y-82423212D01*
X75339414Y-82283072D01*
X75339412Y-82283069D01*
X75216930Y-82160587D01*
X75076788Y-82058768D01*
X74922452Y-81980130D01*
X74922448Y-81980128D01*
X74922445Y-81980127D01*
X74757701Y-81926598D01*
X74586611Y-81899500D01*
X74413389Y-81899500D01*
X74242299Y-81926598D01*
X74242296Y-81926598D01*
X74242295Y-81926599D01*
X74163253Y-81952281D01*
X74077555Y-81980127D01*
X74077553Y-81980127D01*
X74077547Y-81980130D01*
X73923211Y-82058768D01*
X73783069Y-82160587D01*
X73660587Y-82283069D01*
X73558770Y-82423208D01*
X73478389Y-82580966D01*
X73429641Y-82632581D01*
X73360726Y-82649647D01*
X73293524Y-82626746D01*
X73277027Y-82612858D01*
X69749432Y-79085263D01*
X83249500Y-79085263D01*
X83249500Y-79314736D01*
X83279450Y-79542231D01*
X83281697Y-79550617D01*
X83338842Y-79763887D01*
X83426656Y-79975888D01*
X83426657Y-79975889D01*
X83426662Y-79975900D01*
X83541386Y-80174608D01*
X83541391Y-80174615D01*
X83681073Y-80356652D01*
X83681092Y-80356673D01*
X83843326Y-80518907D01*
X83843347Y-80518926D01*
X84025384Y-80658608D01*
X84025391Y-80658613D01*
X84224099Y-80773337D01*
X84224103Y-80773338D01*
X84224112Y-80773344D01*
X84436113Y-80861158D01*
X84657762Y-80920548D01*
X84657766Y-80920548D01*
X84657768Y-80920549D01*
X84716398Y-80928267D01*
X84885266Y-80950500D01*
X84885273Y-80950500D01*
X85114727Y-80950500D01*
X85114734Y-80950500D01*
X85334696Y-80921541D01*
X85342231Y-80920549D01*
X85342231Y-80920548D01*
X85342238Y-80920548D01*
X85563887Y-80861158D01*
X85775888Y-80773344D01*
X85974612Y-80658611D01*
X86156661Y-80518919D01*
X86318919Y-80356661D01*
X86458611Y-80174612D01*
X86518801Y-80070360D01*
X86531381Y-80048571D01*
X86582763Y-79999578D01*
X86652477Y-79986142D01*
X86718388Y-80012528D01*
X86759570Y-80070360D01*
X86766500Y-80111571D01*
X86766500Y-80548649D01*
X86773009Y-80609196D01*
X86773011Y-80609204D01*
X86824110Y-80746202D01*
X86824112Y-80746207D01*
X86911738Y-80863261D01*
X87028792Y-80950887D01*
X87028794Y-80950888D01*
X87028796Y-80950889D01*
X87087875Y-80972924D01*
X87165795Y-81001988D01*
X87165803Y-81001990D01*
X87226350Y-81008499D01*
X87226355Y-81008499D01*
X87226362Y-81008500D01*
X87815500Y-81008500D01*
X87883621Y-81028502D01*
X87930114Y-81082158D01*
X87941500Y-81134500D01*
X87941500Y-82395244D01*
X87921498Y-82463365D01*
X87891010Y-82496111D01*
X87836738Y-82536738D01*
X87749112Y-82653792D01*
X87749110Y-82653797D01*
X87698011Y-82790795D01*
X87698009Y-82790803D01*
X87691500Y-82851350D01*
X87691500Y-83848649D01*
X87698009Y-83909196D01*
X87698011Y-83909204D01*
X87749110Y-84046202D01*
X87749112Y-84046207D01*
X87836738Y-84163261D01*
X87953792Y-84250887D01*
X87953794Y-84250888D01*
X87953796Y-84250889D01*
X88001546Y-84268699D01*
X88090795Y-84301988D01*
X88090803Y-84301990D01*
X88151350Y-84308499D01*
X88151355Y-84308499D01*
X88151362Y-84308500D01*
X88151368Y-84308500D01*
X89448632Y-84308500D01*
X89448638Y-84308500D01*
X89448645Y-84308499D01*
X89448649Y-84308499D01*
X89509196Y-84301990D01*
X89509199Y-84301989D01*
X89509201Y-84301989D01*
X89646204Y-84250889D01*
X89763261Y-84163261D01*
X89783989Y-84135572D01*
X89850887Y-84046207D01*
X89850887Y-84046206D01*
X89850889Y-84046204D01*
X89901989Y-83909201D01*
X89905072Y-83880529D01*
X89908499Y-83848649D01*
X89908500Y-83848632D01*
X89908500Y-82913389D01*
X91399500Y-82913389D01*
X91399500Y-83086611D01*
X91426598Y-83257701D01*
X91480127Y-83422445D01*
X91480128Y-83422448D01*
X91480130Y-83422452D01*
X91558768Y-83576788D01*
X91660587Y-83716930D01*
X91783069Y-83839412D01*
X91783072Y-83839414D01*
X91923212Y-83941232D01*
X92077555Y-84019873D01*
X92242299Y-84073402D01*
X92413389Y-84100500D01*
X92413392Y-84100500D01*
X92586608Y-84100500D01*
X92586611Y-84100500D01*
X92757701Y-84073402D01*
X92922445Y-84019873D01*
X93076788Y-83941232D01*
X93216928Y-83839414D01*
X93339414Y-83716928D01*
X93441232Y-83576788D01*
X93519873Y-83422445D01*
X93573402Y-83257701D01*
X93600500Y-83086611D01*
X93600500Y-82913389D01*
X93593969Y-82872154D01*
X96049500Y-82872154D01*
X96049500Y-83127845D01*
X96082872Y-83381332D01*
X96082873Y-83381338D01*
X96082874Y-83381340D01*
X96149050Y-83628313D01*
X96246896Y-83864535D01*
X96246897Y-83864536D01*
X96246902Y-83864546D01*
X96374736Y-84085961D01*
X96374738Y-84085963D01*
X96374739Y-84085965D01*
X96456865Y-84192993D01*
X96530385Y-84288807D01*
X96530404Y-84288828D01*
X96711171Y-84469595D01*
X96711181Y-84469604D01*
X96711187Y-84469610D01*
X96914035Y-84625261D01*
X97135465Y-84753104D01*
X97371687Y-84850950D01*
X97618660Y-84917126D01*
X97618666Y-84917126D01*
X97618667Y-84917127D01*
X97647751Y-84920956D01*
X97872157Y-84950500D01*
X97872164Y-84950500D01*
X98127836Y-84950500D01*
X98127843Y-84950500D01*
X98381340Y-84917126D01*
X98628313Y-84850950D01*
X98864535Y-84753104D01*
X99085965Y-84625261D01*
X99288813Y-84469610D01*
X99469610Y-84288813D01*
X99625261Y-84085965D01*
X99753104Y-83864535D01*
X99850950Y-83628313D01*
X99917126Y-83381340D01*
X99950500Y-83127843D01*
X99950500Y-82913389D01*
X102399500Y-82913389D01*
X102399500Y-83086611D01*
X102426598Y-83257701D01*
X102480127Y-83422445D01*
X102480128Y-83422448D01*
X102480130Y-83422452D01*
X102558768Y-83576788D01*
X102660587Y-83716930D01*
X102783069Y-83839412D01*
X102783072Y-83839414D01*
X102923212Y-83941232D01*
X103077555Y-84019873D01*
X103242299Y-84073402D01*
X103413389Y-84100500D01*
X103413392Y-84100500D01*
X103586608Y-84100500D01*
X103586611Y-84100500D01*
X103757701Y-84073402D01*
X103922445Y-84019873D01*
X104076788Y-83941232D01*
X104216928Y-83839414D01*
X104339414Y-83716928D01*
X104441232Y-83576788D01*
X104519873Y-83422445D01*
X104573402Y-83257701D01*
X104600500Y-83086611D01*
X104600500Y-82913389D01*
X104573402Y-82742299D01*
X104519873Y-82577555D01*
X104441232Y-82423212D01*
X104339414Y-82283072D01*
X104339412Y-82283069D01*
X104216930Y-82160587D01*
X104076788Y-82058768D01*
X103922452Y-81980130D01*
X103922448Y-81980128D01*
X103922445Y-81980127D01*
X103757701Y-81926598D01*
X103586611Y-81899500D01*
X103413389Y-81899500D01*
X103242299Y-81926598D01*
X103242296Y-81926598D01*
X103242295Y-81926599D01*
X103163253Y-81952281D01*
X103077555Y-81980127D01*
X103077553Y-81980127D01*
X103077547Y-81980130D01*
X102923211Y-82058768D01*
X102783069Y-82160587D01*
X102660587Y-82283069D01*
X102558768Y-82423211D01*
X102480130Y-82577547D01*
X102480127Y-82577556D01*
X102432487Y-82724176D01*
X102426598Y-82742299D01*
X102399500Y-82913389D01*
X99950500Y-82913389D01*
X99950500Y-82872157D01*
X99917126Y-82618660D01*
X99850950Y-82371687D01*
X99753104Y-82135465D01*
X99663419Y-81980127D01*
X99625263Y-81914038D01*
X99625261Y-81914035D01*
X99469610Y-81711187D01*
X99469604Y-81711181D01*
X99469595Y-81711171D01*
X99288828Y-81530404D01*
X99288807Y-81530385D01*
X99195548Y-81458825D01*
X99085965Y-81374739D01*
X99085963Y-81374738D01*
X99085961Y-81374736D01*
X98864546Y-81246902D01*
X98864541Y-81246899D01*
X98864535Y-81246896D01*
X98628313Y-81149050D01*
X98381340Y-81082874D01*
X98381338Y-81082873D01*
X98381332Y-81082872D01*
X98127845Y-81049500D01*
X98127843Y-81049500D01*
X97872157Y-81049500D01*
X97872154Y-81049500D01*
X97618667Y-81082872D01*
X97371687Y-81149050D01*
X97135463Y-81246897D01*
X97135453Y-81246902D01*
X96914038Y-81374736D01*
X96914032Y-81374741D01*
X96711192Y-81530385D01*
X96711171Y-81530404D01*
X96530404Y-81711171D01*
X96530385Y-81711192D01*
X96374741Y-81914032D01*
X96374736Y-81914038D01*
X96246902Y-82135453D01*
X96246897Y-82135463D01*
X96149050Y-82371687D01*
X96082872Y-82618667D01*
X96049500Y-82872154D01*
X93593969Y-82872154D01*
X93573402Y-82742299D01*
X93519873Y-82577555D01*
X93441232Y-82423212D01*
X93339414Y-82283072D01*
X93339412Y-82283069D01*
X93216930Y-82160587D01*
X93076788Y-82058768D01*
X92922452Y-81980130D01*
X92922448Y-81980128D01*
X92922445Y-81980127D01*
X92757701Y-81926598D01*
X92586611Y-81899500D01*
X92413389Y-81899500D01*
X92242299Y-81926598D01*
X92242296Y-81926598D01*
X92242295Y-81926599D01*
X92163253Y-81952281D01*
X92077555Y-81980127D01*
X92077553Y-81980127D01*
X92077547Y-81980130D01*
X91923211Y-82058768D01*
X91783069Y-82160587D01*
X91660587Y-82283069D01*
X91558768Y-82423211D01*
X91480130Y-82577547D01*
X91480127Y-82577556D01*
X91432487Y-82724176D01*
X91426598Y-82742299D01*
X91399500Y-82913389D01*
X89908500Y-82913389D01*
X89908500Y-82851367D01*
X89908499Y-82851350D01*
X89901990Y-82790803D01*
X89901988Y-82790795D01*
X89850889Y-82653797D01*
X89850887Y-82653792D01*
X89763261Y-82536738D01*
X89646207Y-82449112D01*
X89646202Y-82449110D01*
X89509204Y-82398011D01*
X89509196Y-82398009D01*
X89448649Y-82391500D01*
X89448638Y-82391500D01*
X89334500Y-82391500D01*
X89266379Y-82371498D01*
X89219886Y-82317842D01*
X89208500Y-82265500D01*
X89208500Y-81134500D01*
X89228502Y-81066379D01*
X89282158Y-81019886D01*
X89334500Y-81008500D01*
X89923632Y-81008500D01*
X89923638Y-81008500D01*
X89923645Y-81008499D01*
X89923649Y-81008499D01*
X89984196Y-81001990D01*
X89984199Y-81001989D01*
X89984201Y-81001989D01*
X90121204Y-80950889D01*
X90161734Y-80920549D01*
X90238261Y-80863261D01*
X90325887Y-80746207D01*
X90325887Y-80746206D01*
X90325889Y-80746204D01*
X90376989Y-80609201D01*
X90383500Y-80548638D01*
X90383500Y-79085263D01*
X101249500Y-79085263D01*
X101249500Y-79314736D01*
X101279450Y-79542231D01*
X101281697Y-79550617D01*
X101338842Y-79763887D01*
X101426656Y-79975888D01*
X101426657Y-79975889D01*
X101426662Y-79975900D01*
X101541386Y-80174608D01*
X101541391Y-80174615D01*
X101681073Y-80356652D01*
X101681092Y-80356673D01*
X101843326Y-80518907D01*
X101843347Y-80518926D01*
X102025384Y-80658608D01*
X102025391Y-80658613D01*
X102224099Y-80773337D01*
X102224103Y-80773338D01*
X102224112Y-80773344D01*
X102436113Y-80861158D01*
X102657762Y-80920548D01*
X102657766Y-80920548D01*
X102657768Y-80920549D01*
X102716398Y-80928267D01*
X102885266Y-80950500D01*
X102885273Y-80950500D01*
X103114727Y-80950500D01*
X103114734Y-80950500D01*
X103334696Y-80921541D01*
X103342231Y-80920549D01*
X103342231Y-80920548D01*
X103342238Y-80920548D01*
X103563887Y-80861158D01*
X103775888Y-80773344D01*
X103974612Y-80658611D01*
X104156661Y-80518919D01*
X104318919Y-80356661D01*
X104458611Y-80174612D01*
X104518801Y-80070360D01*
X104531381Y-80048571D01*
X104582763Y-79999578D01*
X104652477Y-79986142D01*
X104718388Y-80012528D01*
X104759570Y-80070360D01*
X104766500Y-80111571D01*
X104766500Y-80548649D01*
X104773009Y-80609196D01*
X104773011Y-80609204D01*
X104824110Y-80746202D01*
X104824112Y-80746207D01*
X104911738Y-80863261D01*
X105028792Y-80950887D01*
X105028794Y-80950888D01*
X105028796Y-80950889D01*
X105087875Y-80972924D01*
X105165795Y-81001988D01*
X105165803Y-81001990D01*
X105226350Y-81008499D01*
X105226355Y-81008499D01*
X105226362Y-81008500D01*
X105815500Y-81008500D01*
X105883621Y-81028502D01*
X105930114Y-81082158D01*
X105941500Y-81134500D01*
X105941500Y-82395244D01*
X105921498Y-82463365D01*
X105891010Y-82496111D01*
X105836738Y-82536738D01*
X105749112Y-82653792D01*
X105749110Y-82653797D01*
X105698011Y-82790795D01*
X105698009Y-82790803D01*
X105691500Y-82851350D01*
X105691500Y-83848649D01*
X105698009Y-83909196D01*
X105698011Y-83909204D01*
X105749110Y-84046202D01*
X105749112Y-84046207D01*
X105836738Y-84163261D01*
X105953792Y-84250887D01*
X105953794Y-84250888D01*
X105953796Y-84250889D01*
X106001546Y-84268699D01*
X106090795Y-84301988D01*
X106090803Y-84301990D01*
X106151350Y-84308499D01*
X106151355Y-84308499D01*
X106151362Y-84308500D01*
X106151368Y-84308500D01*
X107448632Y-84308500D01*
X107448638Y-84308500D01*
X107448645Y-84308499D01*
X107448649Y-84308499D01*
X107509196Y-84301990D01*
X107509199Y-84301989D01*
X107509201Y-84301989D01*
X107646204Y-84250889D01*
X107763261Y-84163261D01*
X107783989Y-84135572D01*
X107850887Y-84046207D01*
X107850887Y-84046206D01*
X107850889Y-84046204D01*
X107901989Y-83909201D01*
X107905072Y-83880529D01*
X107908499Y-83848649D01*
X107908500Y-83848632D01*
X107908500Y-82913389D01*
X109399500Y-82913389D01*
X109399500Y-83086611D01*
X109426598Y-83257701D01*
X109480127Y-83422445D01*
X109480128Y-83422448D01*
X109480130Y-83422452D01*
X109558768Y-83576788D01*
X109660587Y-83716930D01*
X109783069Y-83839412D01*
X109783072Y-83839414D01*
X109923212Y-83941232D01*
X110077555Y-84019873D01*
X110242299Y-84073402D01*
X110413389Y-84100500D01*
X110413392Y-84100500D01*
X110586608Y-84100500D01*
X110586611Y-84100500D01*
X110757701Y-84073402D01*
X110922445Y-84019873D01*
X111076788Y-83941232D01*
X111216928Y-83839414D01*
X111339414Y-83716928D01*
X111441232Y-83576788D01*
X111519873Y-83422445D01*
X111573402Y-83257701D01*
X111600500Y-83086611D01*
X111600500Y-82913389D01*
X111593969Y-82872154D01*
X114049500Y-82872154D01*
X114049500Y-83127845D01*
X114082872Y-83381332D01*
X114082873Y-83381338D01*
X114082874Y-83381340D01*
X114149050Y-83628313D01*
X114246896Y-83864535D01*
X114246897Y-83864536D01*
X114246902Y-83864546D01*
X114374736Y-84085961D01*
X114374738Y-84085963D01*
X114374739Y-84085965D01*
X114456865Y-84192993D01*
X114530385Y-84288807D01*
X114530404Y-84288828D01*
X114711171Y-84469595D01*
X114711181Y-84469604D01*
X114711187Y-84469610D01*
X114914035Y-84625261D01*
X115135465Y-84753104D01*
X115371687Y-84850950D01*
X115618660Y-84917126D01*
X115618666Y-84917126D01*
X115618667Y-84917127D01*
X115647751Y-84920956D01*
X115872157Y-84950500D01*
X115872164Y-84950500D01*
X116127836Y-84950500D01*
X116127843Y-84950500D01*
X116381340Y-84917126D01*
X116628313Y-84850950D01*
X116864535Y-84753104D01*
X117085965Y-84625261D01*
X117288813Y-84469610D01*
X117469610Y-84288813D01*
X117625261Y-84085965D01*
X117753104Y-83864535D01*
X117850950Y-83628313D01*
X117917126Y-83381340D01*
X117950500Y-83127843D01*
X117950500Y-82913389D01*
X120399500Y-82913389D01*
X120399500Y-83086611D01*
X120426598Y-83257701D01*
X120480127Y-83422445D01*
X120480128Y-83422448D01*
X120480130Y-83422452D01*
X120558768Y-83576788D01*
X120660587Y-83716930D01*
X120783069Y-83839412D01*
X120783072Y-83839414D01*
X120923212Y-83941232D01*
X121077555Y-84019873D01*
X121242299Y-84073402D01*
X121413389Y-84100500D01*
X121413392Y-84100500D01*
X121586608Y-84100500D01*
X121586611Y-84100500D01*
X121757701Y-84073402D01*
X121922445Y-84019873D01*
X122076788Y-83941232D01*
X122216928Y-83839414D01*
X122339414Y-83716928D01*
X122441232Y-83576788D01*
X122519873Y-83422445D01*
X122573402Y-83257701D01*
X122600500Y-83086611D01*
X122600500Y-82913389D01*
X122573402Y-82742299D01*
X122519873Y-82577555D01*
X122441232Y-82423212D01*
X122339414Y-82283072D01*
X122339412Y-82283069D01*
X122216930Y-82160587D01*
X122076788Y-82058768D01*
X121922452Y-81980130D01*
X121922448Y-81980128D01*
X121922445Y-81980127D01*
X121757701Y-81926598D01*
X121586611Y-81899500D01*
X121413389Y-81899500D01*
X121242299Y-81926598D01*
X121242296Y-81926598D01*
X121242295Y-81926599D01*
X121163253Y-81952281D01*
X121077555Y-81980127D01*
X121077553Y-81980127D01*
X121077547Y-81980130D01*
X120923211Y-82058768D01*
X120783069Y-82160587D01*
X120660587Y-82283069D01*
X120558768Y-82423211D01*
X120480130Y-82577547D01*
X120480127Y-82577556D01*
X120432487Y-82724176D01*
X120426598Y-82742299D01*
X120399500Y-82913389D01*
X117950500Y-82913389D01*
X117950500Y-82872157D01*
X117917126Y-82618660D01*
X117850950Y-82371687D01*
X117753104Y-82135465D01*
X117663419Y-81980127D01*
X117625263Y-81914038D01*
X117625261Y-81914035D01*
X117469610Y-81711187D01*
X117469604Y-81711181D01*
X117469595Y-81711171D01*
X117288828Y-81530404D01*
X117288807Y-81530385D01*
X117195548Y-81458825D01*
X117085965Y-81374739D01*
X117085963Y-81374738D01*
X117085961Y-81374736D01*
X116864546Y-81246902D01*
X116864541Y-81246899D01*
X116864535Y-81246896D01*
X116628313Y-81149050D01*
X116381340Y-81082874D01*
X116381338Y-81082873D01*
X116381332Y-81082872D01*
X116127845Y-81049500D01*
X116127843Y-81049500D01*
X115872157Y-81049500D01*
X115872154Y-81049500D01*
X115618667Y-81082872D01*
X115371687Y-81149050D01*
X115135463Y-81246897D01*
X115135453Y-81246902D01*
X114914038Y-81374736D01*
X114914032Y-81374741D01*
X114711192Y-81530385D01*
X114711171Y-81530404D01*
X114530404Y-81711171D01*
X114530385Y-81711192D01*
X114374741Y-81914032D01*
X114374736Y-81914038D01*
X114246902Y-82135453D01*
X114246897Y-82135463D01*
X114149050Y-82371687D01*
X114082872Y-82618667D01*
X114049500Y-82872154D01*
X111593969Y-82872154D01*
X111573402Y-82742299D01*
X111519873Y-82577555D01*
X111441232Y-82423212D01*
X111339414Y-82283072D01*
X111339412Y-82283069D01*
X111216930Y-82160587D01*
X111076788Y-82058768D01*
X110922452Y-81980130D01*
X110922448Y-81980128D01*
X110922445Y-81980127D01*
X110757701Y-81926598D01*
X110586611Y-81899500D01*
X110413389Y-81899500D01*
X110242299Y-81926598D01*
X110242296Y-81926598D01*
X110242295Y-81926599D01*
X110163253Y-81952281D01*
X110077555Y-81980127D01*
X110077553Y-81980127D01*
X110077547Y-81980130D01*
X109923211Y-82058768D01*
X109783069Y-82160587D01*
X109660587Y-82283069D01*
X109558768Y-82423211D01*
X109480130Y-82577547D01*
X109480127Y-82577556D01*
X109432487Y-82724176D01*
X109426598Y-82742299D01*
X109399500Y-82913389D01*
X107908500Y-82913389D01*
X107908500Y-82851367D01*
X107908499Y-82851350D01*
X107901990Y-82790803D01*
X107901988Y-82790795D01*
X107850889Y-82653797D01*
X107850887Y-82653792D01*
X107763261Y-82536738D01*
X107646207Y-82449112D01*
X107646202Y-82449110D01*
X107509204Y-82398011D01*
X107509196Y-82398009D01*
X107448649Y-82391500D01*
X107448638Y-82391500D01*
X107334500Y-82391500D01*
X107266379Y-82371498D01*
X107219886Y-82317842D01*
X107208500Y-82265500D01*
X107208500Y-81134500D01*
X107228502Y-81066379D01*
X107282158Y-81019886D01*
X107334500Y-81008500D01*
X107923632Y-81008500D01*
X107923638Y-81008500D01*
X107923645Y-81008499D01*
X107923649Y-81008499D01*
X107984196Y-81001990D01*
X107984199Y-81001989D01*
X107984201Y-81001989D01*
X108121204Y-80950889D01*
X108161734Y-80920549D01*
X108238261Y-80863261D01*
X108325887Y-80746207D01*
X108325887Y-80746206D01*
X108325889Y-80746204D01*
X108376989Y-80609201D01*
X108383500Y-80548638D01*
X108383500Y-77851362D01*
X108380230Y-77820941D01*
X108376990Y-77790803D01*
X108376988Y-77790795D01*
X108347924Y-77712875D01*
X108325889Y-77653796D01*
X108325888Y-77653794D01*
X108325887Y-77653792D01*
X108238261Y-77536738D01*
X108121207Y-77449112D01*
X108121202Y-77449110D01*
X107984204Y-77398011D01*
X107984196Y-77398009D01*
X107923649Y-77391500D01*
X107923638Y-77391500D01*
X105226362Y-77391500D01*
X105226350Y-77391500D01*
X105165803Y-77398009D01*
X105165795Y-77398011D01*
X105028797Y-77449110D01*
X105028792Y-77449112D01*
X104911738Y-77536738D01*
X104824112Y-77653792D01*
X104824110Y-77653797D01*
X104773011Y-77790795D01*
X104773009Y-77790803D01*
X104766500Y-77851350D01*
X104766500Y-78288428D01*
X104746498Y-78356549D01*
X104692842Y-78403042D01*
X104622568Y-78413146D01*
X104557988Y-78383652D01*
X104531381Y-78351428D01*
X104458613Y-78225391D01*
X104458608Y-78225384D01*
X104318926Y-78043347D01*
X104318907Y-78043326D01*
X104156673Y-77881092D01*
X104156652Y-77881073D01*
X103974615Y-77741391D01*
X103974608Y-77741386D01*
X103775900Y-77626662D01*
X103775892Y-77626658D01*
X103775888Y-77626656D01*
X103563887Y-77538842D01*
X103342238Y-77479452D01*
X103342231Y-77479450D01*
X103114736Y-77449500D01*
X103114734Y-77449500D01*
X102885266Y-77449500D01*
X102885263Y-77449500D01*
X102657768Y-77479450D01*
X102493341Y-77523508D01*
X102436113Y-77538842D01*
X102235940Y-77621757D01*
X102224110Y-77626657D01*
X102224099Y-77626662D01*
X102025391Y-77741386D01*
X102025384Y-77741391D01*
X101843347Y-77881073D01*
X101843326Y-77881092D01*
X101681092Y-78043326D01*
X101681073Y-78043347D01*
X101541391Y-78225384D01*
X101541386Y-78225391D01*
X101426662Y-78424099D01*
X101426657Y-78424110D01*
X101426656Y-78424112D01*
X101370944Y-78558613D01*
X101338842Y-78636113D01*
X101279450Y-78857768D01*
X101249500Y-79085263D01*
X90383500Y-79085263D01*
X90383500Y-77851362D01*
X90380230Y-77820941D01*
X90376990Y-77790803D01*
X90376988Y-77790795D01*
X90347924Y-77712875D01*
X90325889Y-77653796D01*
X90325888Y-77653794D01*
X90325887Y-77653792D01*
X90238261Y-77536738D01*
X90121207Y-77449112D01*
X90121202Y-77449110D01*
X89984204Y-77398011D01*
X89984196Y-77398009D01*
X89923649Y-77391500D01*
X89923638Y-77391500D01*
X87226362Y-77391500D01*
X87226350Y-77391500D01*
X87165803Y-77398009D01*
X87165795Y-77398011D01*
X87028797Y-77449110D01*
X87028792Y-77449112D01*
X86911738Y-77536738D01*
X86824112Y-77653792D01*
X86824110Y-77653797D01*
X86773011Y-77790795D01*
X86773009Y-77790803D01*
X86766500Y-77851350D01*
X86766500Y-78288428D01*
X86746498Y-78356549D01*
X86692842Y-78403042D01*
X86622568Y-78413146D01*
X86557988Y-78383652D01*
X86531381Y-78351428D01*
X86458613Y-78225391D01*
X86458608Y-78225384D01*
X86318926Y-78043347D01*
X86318907Y-78043326D01*
X86156673Y-77881092D01*
X86156652Y-77881073D01*
X85974615Y-77741391D01*
X85974608Y-77741386D01*
X85775900Y-77626662D01*
X85775892Y-77626658D01*
X85775888Y-77626656D01*
X85563887Y-77538842D01*
X85342238Y-77479452D01*
X85342231Y-77479450D01*
X85114736Y-77449500D01*
X85114734Y-77449500D01*
X84885266Y-77449500D01*
X84885263Y-77449500D01*
X84657768Y-77479450D01*
X84493341Y-77523508D01*
X84436113Y-77538842D01*
X84235940Y-77621757D01*
X84224110Y-77626657D01*
X84224099Y-77626662D01*
X84025391Y-77741386D01*
X84025384Y-77741391D01*
X83843347Y-77881073D01*
X83843326Y-77881092D01*
X83681092Y-78043326D01*
X83681073Y-78043347D01*
X83541391Y-78225384D01*
X83541386Y-78225391D01*
X83426662Y-78424099D01*
X83426657Y-78424110D01*
X83426656Y-78424112D01*
X83370944Y-78558613D01*
X83338842Y-78636113D01*
X83279450Y-78857768D01*
X83249500Y-79085263D01*
X69749432Y-79085263D01*
X66415519Y-75751350D01*
X74616500Y-75751350D01*
X74616500Y-78448649D01*
X74623009Y-78509196D01*
X74623011Y-78509204D01*
X74674110Y-78646202D01*
X74674112Y-78646207D01*
X74761738Y-78763261D01*
X74878792Y-78850887D01*
X74878794Y-78850888D01*
X74878796Y-78850889D01*
X74937875Y-78872924D01*
X75015795Y-78901988D01*
X75015803Y-78901990D01*
X75076350Y-78908499D01*
X75076355Y-78908499D01*
X75076362Y-78908500D01*
X75076368Y-78908500D01*
X77773632Y-78908500D01*
X77773638Y-78908500D01*
X77773645Y-78908499D01*
X77773649Y-78908499D01*
X77834196Y-78901990D01*
X77834199Y-78901989D01*
X77834201Y-78901989D01*
X77971204Y-78850889D01*
X78011734Y-78820549D01*
X78088261Y-78763261D01*
X78175887Y-78646207D01*
X78175887Y-78646206D01*
X78175889Y-78646204D01*
X78226989Y-78509201D01*
X78233500Y-78448638D01*
X78233500Y-78011571D01*
X78253502Y-77943450D01*
X78307158Y-77896957D01*
X78377432Y-77886853D01*
X78442012Y-77916347D01*
X78468619Y-77948571D01*
X78541386Y-78074608D01*
X78541391Y-78074615D01*
X78681073Y-78256652D01*
X78681092Y-78256673D01*
X78843326Y-78418907D01*
X78843347Y-78418926D01*
X79025384Y-78558608D01*
X79025391Y-78558613D01*
X79224099Y-78673337D01*
X79224103Y-78673338D01*
X79224112Y-78673344D01*
X79436113Y-78761158D01*
X79657762Y-78820548D01*
X79657766Y-78820548D01*
X79657768Y-78820549D01*
X79716398Y-78828267D01*
X79885266Y-78850500D01*
X79885273Y-78850500D01*
X80114727Y-78850500D01*
X80114734Y-78850500D01*
X80320345Y-78823430D01*
X80342231Y-78820549D01*
X80342231Y-78820548D01*
X80342238Y-78820548D01*
X80563887Y-78761158D01*
X80775888Y-78673344D01*
X80974612Y-78558611D01*
X81156661Y-78418919D01*
X81318919Y-78256661D01*
X81458611Y-78074612D01*
X81573344Y-77875888D01*
X81661158Y-77663887D01*
X81720548Y-77442238D01*
X81750500Y-77214734D01*
X81750500Y-76985266D01*
X81720548Y-76757762D01*
X81661158Y-76536113D01*
X81573344Y-76324112D01*
X81573338Y-76324103D01*
X81573337Y-76324099D01*
X81458613Y-76125391D01*
X81458608Y-76125384D01*
X81318926Y-75943347D01*
X81318907Y-75943326D01*
X81156673Y-75781092D01*
X81156652Y-75781073D01*
X80974615Y-75641391D01*
X80974608Y-75641386D01*
X80775900Y-75526662D01*
X80775892Y-75526658D01*
X80775888Y-75526656D01*
X80563887Y-75438842D01*
X80342238Y-75379452D01*
X80342231Y-75379450D01*
X80114736Y-75349500D01*
X80114734Y-75349500D01*
X79885266Y-75349500D01*
X79885263Y-75349500D01*
X79657768Y-75379450D01*
X79436113Y-75438842D01*
X79224110Y-75526657D01*
X79224099Y-75526662D01*
X79025391Y-75641386D01*
X79025384Y-75641391D01*
X78843347Y-75781073D01*
X78843326Y-75781092D01*
X78681092Y-75943326D01*
X78681073Y-75943347D01*
X78541391Y-76125384D01*
X78541386Y-76125391D01*
X78468619Y-76251428D01*
X78417236Y-76300421D01*
X78347523Y-76313857D01*
X78281612Y-76287470D01*
X78240430Y-76229638D01*
X78233500Y-76188428D01*
X78233500Y-75751367D01*
X78233499Y-75751350D01*
X78226990Y-75690803D01*
X78226988Y-75690795D01*
X78175889Y-75553797D01*
X78175887Y-75553792D01*
X78088261Y-75436738D01*
X77971207Y-75349112D01*
X77971202Y-75349110D01*
X77834204Y-75298011D01*
X77834196Y-75298009D01*
X77773649Y-75291500D01*
X77773638Y-75291500D01*
X75076362Y-75291500D01*
X75076350Y-75291500D01*
X75015803Y-75298009D01*
X75015795Y-75298011D01*
X74878797Y-75349110D01*
X74878792Y-75349112D01*
X74761738Y-75436738D01*
X74674112Y-75553792D01*
X74674110Y-75553797D01*
X74623011Y-75690795D01*
X74623009Y-75690803D01*
X74616500Y-75751350D01*
X66415519Y-75751350D01*
X65572100Y-74907931D01*
X65572098Y-74907929D01*
X65468340Y-74838600D01*
X65353050Y-74790845D01*
X65279351Y-74776185D01*
X65230661Y-74766500D01*
X65230659Y-74766500D01*
X61517707Y-74766500D01*
X61449586Y-74746498D01*
X61403093Y-74692842D01*
X61399659Y-74684554D01*
X61350889Y-74553796D01*
X61350886Y-74553792D01*
X61350886Y-74553791D01*
X61263261Y-74436738D01*
X61214176Y-74399993D01*
X86586738Y-74399993D01*
X86586738Y-74400006D01*
X86605765Y-74702449D01*
X86605767Y-74702466D01*
X86644962Y-74907929D01*
X86662555Y-75000154D01*
X86756206Y-75288381D01*
X86885242Y-75562598D01*
X86885244Y-75562601D01*
X86885247Y-75562607D01*
X87047624Y-75818473D01*
X87240807Y-76051991D01*
X87240809Y-76051993D01*
X87461729Y-76259450D01*
X87528457Y-76307931D01*
X87706910Y-76437584D01*
X87972483Y-76583585D01*
X88177322Y-76664686D01*
X88254255Y-76695147D01*
X88254258Y-76695147D01*
X88254261Y-76695149D01*
X88547800Y-76770516D01*
X88547806Y-76770516D01*
X88547807Y-76770517D01*
X88705384Y-76790423D01*
X88848470Y-76808500D01*
X88848473Y-76808500D01*
X89151527Y-76808500D01*
X89151530Y-76808500D01*
X89452200Y-76770516D01*
X89745739Y-76695149D01*
X90027517Y-76583585D01*
X90293090Y-76437584D01*
X90538271Y-76259450D01*
X90759192Y-76051992D01*
X90952370Y-75818480D01*
X90952372Y-75818475D01*
X90952375Y-75818473D01*
X90994973Y-75751350D01*
X92616500Y-75751350D01*
X92616500Y-78448649D01*
X92623009Y-78509196D01*
X92623011Y-78509204D01*
X92674110Y-78646202D01*
X92674112Y-78646207D01*
X92761738Y-78763261D01*
X92878792Y-78850887D01*
X92878794Y-78850888D01*
X92878796Y-78850889D01*
X92937875Y-78872924D01*
X93015795Y-78901988D01*
X93015803Y-78901990D01*
X93076350Y-78908499D01*
X93076355Y-78908499D01*
X93076362Y-78908500D01*
X93076368Y-78908500D01*
X95773632Y-78908500D01*
X95773638Y-78908500D01*
X95773645Y-78908499D01*
X95773649Y-78908499D01*
X95834196Y-78901990D01*
X95834199Y-78901989D01*
X95834201Y-78901989D01*
X95971204Y-78850889D01*
X96011734Y-78820549D01*
X96088261Y-78763261D01*
X96175887Y-78646207D01*
X96175887Y-78646206D01*
X96175889Y-78646204D01*
X96226989Y-78509201D01*
X96233500Y-78448638D01*
X96233500Y-78011571D01*
X96253502Y-77943450D01*
X96307158Y-77896957D01*
X96377432Y-77886853D01*
X96442012Y-77916347D01*
X96468619Y-77948571D01*
X96541386Y-78074608D01*
X96541391Y-78074615D01*
X96681073Y-78256652D01*
X96681092Y-78256673D01*
X96843326Y-78418907D01*
X96843347Y-78418926D01*
X97025384Y-78558608D01*
X97025391Y-78558613D01*
X97224099Y-78673337D01*
X97224103Y-78673338D01*
X97224112Y-78673344D01*
X97436113Y-78761158D01*
X97657762Y-78820548D01*
X97657766Y-78820548D01*
X97657768Y-78820549D01*
X97716398Y-78828267D01*
X97885266Y-78850500D01*
X97885273Y-78850500D01*
X98114727Y-78850500D01*
X98114734Y-78850500D01*
X98320345Y-78823430D01*
X98342231Y-78820549D01*
X98342231Y-78820548D01*
X98342238Y-78820548D01*
X98563887Y-78761158D01*
X98775888Y-78673344D01*
X98974612Y-78558611D01*
X99156661Y-78418919D01*
X99318919Y-78256661D01*
X99458611Y-78074612D01*
X99573344Y-77875888D01*
X99661158Y-77663887D01*
X99720548Y-77442238D01*
X99750500Y-77214734D01*
X99750500Y-76985266D01*
X99720548Y-76757762D01*
X99661158Y-76536113D01*
X99573344Y-76324112D01*
X99573338Y-76324103D01*
X99573337Y-76324099D01*
X99458613Y-76125391D01*
X99458608Y-76125384D01*
X99318926Y-75943347D01*
X99318907Y-75943326D01*
X99156673Y-75781092D01*
X99156652Y-75781073D01*
X98974615Y-75641391D01*
X98974608Y-75641386D01*
X98775900Y-75526662D01*
X98775892Y-75526658D01*
X98775888Y-75526656D01*
X98563887Y-75438842D01*
X98342238Y-75379452D01*
X98342231Y-75379450D01*
X98114736Y-75349500D01*
X98114734Y-75349500D01*
X97885266Y-75349500D01*
X97885263Y-75349500D01*
X97657768Y-75379450D01*
X97436113Y-75438842D01*
X97224110Y-75526657D01*
X97224099Y-75526662D01*
X97025391Y-75641386D01*
X97025384Y-75641391D01*
X96843347Y-75781073D01*
X96843326Y-75781092D01*
X96681092Y-75943326D01*
X96681073Y-75943347D01*
X96541391Y-76125384D01*
X96541386Y-76125391D01*
X96468619Y-76251428D01*
X96417236Y-76300421D01*
X96347523Y-76313857D01*
X96281612Y-76287470D01*
X96240430Y-76229638D01*
X96233500Y-76188428D01*
X96233500Y-75751367D01*
X96233499Y-75751350D01*
X96226990Y-75690803D01*
X96226988Y-75690795D01*
X96175889Y-75553797D01*
X96175887Y-75553792D01*
X96088261Y-75436738D01*
X95971207Y-75349112D01*
X95971202Y-75349110D01*
X95834204Y-75298011D01*
X95834196Y-75298009D01*
X95773649Y-75291500D01*
X95773638Y-75291500D01*
X93076362Y-75291500D01*
X93076350Y-75291500D01*
X93015803Y-75298009D01*
X93015795Y-75298011D01*
X92878797Y-75349110D01*
X92878792Y-75349112D01*
X92761738Y-75436738D01*
X92674112Y-75553792D01*
X92674110Y-75553797D01*
X92623011Y-75690795D01*
X92623009Y-75690803D01*
X92616500Y-75751350D01*
X90994973Y-75751350D01*
X91064756Y-75641389D01*
X91114758Y-75562598D01*
X91243794Y-75288381D01*
X91337445Y-75000154D01*
X91394233Y-74702462D01*
X91403586Y-74553796D01*
X91413262Y-74400006D01*
X91413262Y-74399993D01*
X104586738Y-74399993D01*
X104586738Y-74400006D01*
X104605765Y-74702449D01*
X104605767Y-74702466D01*
X104644962Y-74907929D01*
X104662555Y-75000154D01*
X104756206Y-75288381D01*
X104885242Y-75562598D01*
X104885244Y-75562601D01*
X104885247Y-75562607D01*
X105047624Y-75818473D01*
X105240807Y-76051991D01*
X105240809Y-76051993D01*
X105461729Y-76259450D01*
X105528457Y-76307931D01*
X105706910Y-76437584D01*
X105972483Y-76583585D01*
X106177322Y-76664686D01*
X106254255Y-76695147D01*
X106254258Y-76695147D01*
X106254261Y-76695149D01*
X106547800Y-76770516D01*
X106547806Y-76770516D01*
X106547807Y-76770517D01*
X106705384Y-76790423D01*
X106848470Y-76808500D01*
X106848473Y-76808500D01*
X107151527Y-76808500D01*
X107151530Y-76808500D01*
X107452200Y-76770516D01*
X107745739Y-76695149D01*
X108027517Y-76583585D01*
X108293090Y-76437584D01*
X108538271Y-76259450D01*
X108759192Y-76051992D01*
X108952370Y-75818480D01*
X108952372Y-75818475D01*
X108952375Y-75818473D01*
X108994973Y-75751350D01*
X110616500Y-75751350D01*
X110616500Y-78448649D01*
X110623009Y-78509196D01*
X110623011Y-78509204D01*
X110674110Y-78646202D01*
X110674112Y-78646207D01*
X110761738Y-78763261D01*
X110878792Y-78850887D01*
X110878794Y-78850888D01*
X110878796Y-78850889D01*
X110937875Y-78872924D01*
X111015795Y-78901988D01*
X111015803Y-78901990D01*
X111076350Y-78908499D01*
X111076355Y-78908499D01*
X111076362Y-78908500D01*
X111076368Y-78908500D01*
X113773632Y-78908500D01*
X113773638Y-78908500D01*
X113773645Y-78908499D01*
X113773649Y-78908499D01*
X113834196Y-78901990D01*
X113834199Y-78901989D01*
X113834201Y-78901989D01*
X113971204Y-78850889D01*
X114011734Y-78820549D01*
X114088261Y-78763261D01*
X114175887Y-78646207D01*
X114175887Y-78646206D01*
X114175889Y-78646204D01*
X114226989Y-78509201D01*
X114233500Y-78448638D01*
X114233500Y-78011571D01*
X114253502Y-77943450D01*
X114307158Y-77896957D01*
X114377432Y-77886853D01*
X114442012Y-77916347D01*
X114468619Y-77948571D01*
X114541386Y-78074608D01*
X114541391Y-78074615D01*
X114681073Y-78256652D01*
X114681092Y-78256673D01*
X114843326Y-78418907D01*
X114843347Y-78418926D01*
X115025384Y-78558608D01*
X115025391Y-78558613D01*
X115224099Y-78673337D01*
X115224103Y-78673338D01*
X115224112Y-78673344D01*
X115436113Y-78761158D01*
X115657762Y-78820548D01*
X115657766Y-78820548D01*
X115657768Y-78820549D01*
X115716398Y-78828267D01*
X115885266Y-78850500D01*
X115885273Y-78850500D01*
X116114727Y-78850500D01*
X116114734Y-78850500D01*
X116320345Y-78823430D01*
X116342231Y-78820549D01*
X116342231Y-78820548D01*
X116342238Y-78820548D01*
X116563887Y-78761158D01*
X116775888Y-78673344D01*
X116974612Y-78558611D01*
X117156661Y-78418919D01*
X117318919Y-78256661D01*
X117458611Y-78074612D01*
X117573344Y-77875888D01*
X117661158Y-77663887D01*
X117720548Y-77442238D01*
X117750500Y-77214734D01*
X117750500Y-76985266D01*
X117720548Y-76757762D01*
X117661158Y-76536113D01*
X117573344Y-76324112D01*
X117573338Y-76324103D01*
X117573337Y-76324099D01*
X117458613Y-76125391D01*
X117458608Y-76125384D01*
X117318926Y-75943347D01*
X117318907Y-75943326D01*
X117156673Y-75781092D01*
X117156652Y-75781073D01*
X116974615Y-75641391D01*
X116974608Y-75641386D01*
X116775900Y-75526662D01*
X116775892Y-75526658D01*
X116775888Y-75526656D01*
X116563887Y-75438842D01*
X116342238Y-75379452D01*
X116342231Y-75379450D01*
X116114736Y-75349500D01*
X116114734Y-75349500D01*
X115885266Y-75349500D01*
X115885263Y-75349500D01*
X115657768Y-75379450D01*
X115436113Y-75438842D01*
X115224110Y-75526657D01*
X115224099Y-75526662D01*
X115025391Y-75641386D01*
X115025384Y-75641391D01*
X114843347Y-75781073D01*
X114843326Y-75781092D01*
X114681092Y-75943326D01*
X114681073Y-75943347D01*
X114541391Y-76125384D01*
X114541386Y-76125391D01*
X114468619Y-76251428D01*
X114417236Y-76300421D01*
X114347523Y-76313857D01*
X114281612Y-76287470D01*
X114240430Y-76229638D01*
X114233500Y-76188428D01*
X114233500Y-75751367D01*
X114233499Y-75751350D01*
X114226990Y-75690803D01*
X114226988Y-75690795D01*
X114175889Y-75553797D01*
X114175887Y-75553792D01*
X114088261Y-75436738D01*
X113971207Y-75349112D01*
X113971202Y-75349110D01*
X113834204Y-75298011D01*
X113834196Y-75298009D01*
X113773649Y-75291500D01*
X113773638Y-75291500D01*
X111076362Y-75291500D01*
X111076350Y-75291500D01*
X111015803Y-75298009D01*
X111015795Y-75298011D01*
X110878797Y-75349110D01*
X110878792Y-75349112D01*
X110761738Y-75436738D01*
X110674112Y-75553792D01*
X110674110Y-75553797D01*
X110623011Y-75690795D01*
X110623009Y-75690803D01*
X110616500Y-75751350D01*
X108994973Y-75751350D01*
X109064756Y-75641389D01*
X109114758Y-75562598D01*
X109243794Y-75288381D01*
X109337445Y-75000154D01*
X109394233Y-74702462D01*
X109403586Y-74553796D01*
X109413262Y-74400006D01*
X109413262Y-74399993D01*
X109394234Y-74097550D01*
X109394232Y-74097533D01*
X109337445Y-73799846D01*
X109243794Y-73511619D01*
X109114758Y-73237402D01*
X109114752Y-73237392D01*
X108952375Y-72981526D01*
X108759192Y-72748008D01*
X108759190Y-72748006D01*
X108538270Y-72540549D01*
X108293092Y-72362417D01*
X108170916Y-72295250D01*
X108027517Y-72216415D01*
X107946414Y-72184304D01*
X107745744Y-72104852D01*
X107745737Y-72104850D01*
X107452192Y-72029482D01*
X107151544Y-71991501D01*
X107151532Y-71991500D01*
X107151530Y-71991500D01*
X106848470Y-71991500D01*
X106848467Y-71991500D01*
X106848455Y-71991501D01*
X106547807Y-72029482D01*
X106254262Y-72104850D01*
X106254255Y-72104852D01*
X105972483Y-72216415D01*
X105706907Y-72362417D01*
X105461730Y-72540549D01*
X105461729Y-72540549D01*
X105240809Y-72748006D01*
X105240807Y-72748008D01*
X105047624Y-72981526D01*
X104885247Y-73237392D01*
X104885240Y-73237406D01*
X104756209Y-73511612D01*
X104756207Y-73511616D01*
X104662556Y-73799842D01*
X104662554Y-73799850D01*
X104605767Y-74097533D01*
X104605765Y-74097550D01*
X104586738Y-74399993D01*
X91413262Y-74399993D01*
X91394234Y-74097550D01*
X91394232Y-74097533D01*
X91337445Y-73799846D01*
X91243794Y-73511619D01*
X91114758Y-73237402D01*
X91114752Y-73237392D01*
X90952375Y-72981526D01*
X90759192Y-72748008D01*
X90759190Y-72748006D01*
X90538270Y-72540549D01*
X90293092Y-72362417D01*
X90170916Y-72295250D01*
X90027517Y-72216415D01*
X89946414Y-72184304D01*
X89745744Y-72104852D01*
X89745737Y-72104850D01*
X89452192Y-72029482D01*
X89151544Y-71991501D01*
X89151532Y-71991500D01*
X89151530Y-71991500D01*
X88848470Y-71991500D01*
X88848467Y-71991500D01*
X88848455Y-71991501D01*
X88547807Y-72029482D01*
X88254262Y-72104850D01*
X88254255Y-72104852D01*
X87972483Y-72216415D01*
X87706907Y-72362417D01*
X87461730Y-72540549D01*
X87461729Y-72540549D01*
X87240809Y-72748006D01*
X87240807Y-72748008D01*
X87047624Y-72981526D01*
X86885247Y-73237392D01*
X86885240Y-73237406D01*
X86756209Y-73511612D01*
X86756207Y-73511616D01*
X86662556Y-73799842D01*
X86662554Y-73799850D01*
X86605767Y-74097533D01*
X86605765Y-74097550D01*
X86586738Y-74399993D01*
X61214176Y-74399993D01*
X61146207Y-74349112D01*
X61146202Y-74349110D01*
X61009204Y-74298011D01*
X61009196Y-74298009D01*
X60948649Y-74291500D01*
X60948638Y-74291500D01*
X59951362Y-74291500D01*
X59951350Y-74291500D01*
X59890803Y-74298009D01*
X59890795Y-74298011D01*
X59753797Y-74349110D01*
X59753792Y-74349112D01*
X59636738Y-74436738D01*
X59549112Y-74553792D01*
X59549110Y-74553797D01*
X59498011Y-74690795D01*
X59498009Y-74690803D01*
X59491500Y-74751350D01*
X59491500Y-75565011D01*
X59471498Y-75633132D01*
X59417842Y-75679625D01*
X59365500Y-75691011D01*
X58389105Y-75691011D01*
X58320984Y-75671009D01*
X58300010Y-75654106D01*
X58145405Y-75499501D01*
X58111379Y-75437189D01*
X58108500Y-75410406D01*
X58108500Y-74751367D01*
X58108499Y-74751350D01*
X58101990Y-74690803D01*
X58101988Y-74690795D01*
X58050889Y-74553797D01*
X58050887Y-74553792D01*
X57963261Y-74436738D01*
X57846207Y-74349112D01*
X57846202Y-74349110D01*
X57709204Y-74298011D01*
X57709196Y-74298009D01*
X57648649Y-74291500D01*
X57648638Y-74291500D01*
X56651362Y-74291500D01*
X56651350Y-74291500D01*
X56590803Y-74298009D01*
X56590795Y-74298011D01*
X56453797Y-74349110D01*
X56453792Y-74349112D01*
X56336738Y-74436738D01*
X56249112Y-74553792D01*
X56249110Y-74553797D01*
X56198011Y-74690795D01*
X56198009Y-74690803D01*
X56191500Y-74751350D01*
X52133500Y-74751350D01*
X52133500Y-73014593D01*
X52153502Y-72946472D01*
X52170400Y-72925503D01*
X56576279Y-68519624D01*
X56638590Y-68485599D01*
X56709405Y-68490664D01*
X56766241Y-68533211D01*
X56791052Y-68599731D01*
X56779381Y-68662367D01*
X56756206Y-68711619D01*
X56744024Y-68749111D01*
X56662556Y-68999842D01*
X56662554Y-68999850D01*
X56605767Y-69297533D01*
X56605765Y-69297550D01*
X56586738Y-69599993D01*
X56586738Y-69600006D01*
X56605765Y-69902449D01*
X56605767Y-69902466D01*
X56652728Y-70148638D01*
X56662555Y-70200154D01*
X56756206Y-70488381D01*
X56885242Y-70762598D01*
X56885244Y-70762601D01*
X56885247Y-70762607D01*
X57047624Y-71018473D01*
X57047630Y-71018480D01*
X57240808Y-71251992D01*
X57461729Y-71459450D01*
X57706910Y-71637584D01*
X57972483Y-71783585D01*
X58177322Y-71864686D01*
X58254255Y-71895147D01*
X58254258Y-71895147D01*
X58254261Y-71895149D01*
X58547800Y-71970516D01*
X58547806Y-71970516D01*
X58547807Y-71970517D01*
X58705384Y-71990423D01*
X58848470Y-72008500D01*
X58848473Y-72008500D01*
X59151527Y-72008500D01*
X59151530Y-72008500D01*
X59452200Y-71970516D01*
X59745739Y-71895149D01*
X60027517Y-71783585D01*
X60293090Y-71637584D01*
X60538271Y-71459450D01*
X60759192Y-71251992D01*
X60952370Y-71018480D01*
X60952372Y-71018475D01*
X60952375Y-71018473D01*
X61114752Y-70762607D01*
X61114758Y-70762598D01*
X61243794Y-70488381D01*
X61337445Y-70200154D01*
X61394233Y-69902462D01*
X61413262Y-69600000D01*
X73686496Y-69600000D01*
X73706457Y-69789927D01*
X73736526Y-69882470D01*
X73765473Y-69971556D01*
X73765476Y-69971561D01*
X73860958Y-70136941D01*
X73860965Y-70136951D01*
X73988744Y-70278864D01*
X73988747Y-70278866D01*
X74143248Y-70391118D01*
X74317712Y-70468794D01*
X74504513Y-70508500D01*
X74695487Y-70508500D01*
X74882288Y-70468794D01*
X75056752Y-70391118D01*
X75171754Y-70307564D01*
X75238622Y-70283705D01*
X75245815Y-70283500D01*
X87640113Y-70283500D01*
X87708234Y-70303502D01*
X87742275Y-70340064D01*
X87743711Y-70338990D01*
X87749110Y-70346202D01*
X87749111Y-70346204D01*
X87767663Y-70370987D01*
X87836738Y-70463261D01*
X87953792Y-70550887D01*
X87953794Y-70550888D01*
X87953796Y-70550889D01*
X88012875Y-70572924D01*
X88090795Y-70601988D01*
X88090803Y-70601990D01*
X88151350Y-70608499D01*
X88151355Y-70608499D01*
X88151362Y-70608500D01*
X88151368Y-70608500D01*
X89448632Y-70608500D01*
X89448638Y-70608500D01*
X89448645Y-70608499D01*
X89448649Y-70608499D01*
X89509196Y-70601990D01*
X89509199Y-70601989D01*
X89509201Y-70601989D01*
X89646204Y-70550889D01*
X89763261Y-70463261D01*
X89850889Y-70346204D01*
X89850890Y-70346202D01*
X89856289Y-70338990D01*
X89858081Y-70340331D01*
X89899507Y-70298909D01*
X89959887Y-70283500D01*
X105640113Y-70283500D01*
X105708234Y-70303502D01*
X105742275Y-70340064D01*
X105743711Y-70338990D01*
X105749110Y-70346202D01*
X105749111Y-70346204D01*
X105767663Y-70370987D01*
X105836738Y-70463261D01*
X105953792Y-70550887D01*
X105953794Y-70550888D01*
X105953796Y-70550889D01*
X106012875Y-70572924D01*
X106090795Y-70601988D01*
X106090803Y-70601990D01*
X106151350Y-70608499D01*
X106151355Y-70608499D01*
X106151362Y-70608500D01*
X106151368Y-70608500D01*
X107448632Y-70608500D01*
X107448638Y-70608500D01*
X107448645Y-70608499D01*
X107448649Y-70608499D01*
X107509196Y-70601990D01*
X107509199Y-70601989D01*
X107509201Y-70601989D01*
X107646204Y-70550889D01*
X107763261Y-70463261D01*
X107850889Y-70346204D01*
X107850890Y-70346202D01*
X107856289Y-70338990D01*
X107858081Y-70340331D01*
X107899507Y-70298909D01*
X107959887Y-70283500D01*
X123640113Y-70283500D01*
X123708234Y-70303502D01*
X123742275Y-70340064D01*
X123743711Y-70338990D01*
X123749110Y-70346202D01*
X123749111Y-70346204D01*
X123767663Y-70370987D01*
X123836738Y-70463261D01*
X123953792Y-70550887D01*
X123953794Y-70550888D01*
X123953796Y-70550889D01*
X124012875Y-70572924D01*
X124090795Y-70601988D01*
X124090803Y-70601990D01*
X124151350Y-70608499D01*
X124151355Y-70608499D01*
X124151362Y-70608500D01*
X124151368Y-70608500D01*
X125448632Y-70608500D01*
X125448638Y-70608500D01*
X125448645Y-70608499D01*
X125448649Y-70608499D01*
X125509196Y-70601990D01*
X125509199Y-70601989D01*
X125509201Y-70601989D01*
X125646204Y-70550889D01*
X125763261Y-70463261D01*
X125817267Y-70391118D01*
X125850887Y-70346207D01*
X125850887Y-70346206D01*
X125850889Y-70346204D01*
X125901989Y-70209201D01*
X125902962Y-70200157D01*
X125908499Y-70148649D01*
X125908500Y-70148632D01*
X125908500Y-69151367D01*
X125908499Y-69151350D01*
X125901990Y-69090803D01*
X125901988Y-69090795D01*
X125858727Y-68974810D01*
X125850889Y-68953796D01*
X125850888Y-68953794D01*
X125850887Y-68953792D01*
X125763261Y-68836738D01*
X125646207Y-68749112D01*
X125646202Y-68749110D01*
X125509204Y-68698011D01*
X125509196Y-68698009D01*
X125448649Y-68691500D01*
X125448638Y-68691500D01*
X124151362Y-68691500D01*
X124151350Y-68691500D01*
X124090803Y-68698009D01*
X124090795Y-68698011D01*
X123953797Y-68749110D01*
X123953792Y-68749112D01*
X123836738Y-68836738D01*
X123743711Y-68961010D01*
X123741918Y-68959668D01*
X123700493Y-69001091D01*
X123640113Y-69016500D01*
X107959887Y-69016500D01*
X107891766Y-68996498D01*
X107857724Y-68959935D01*
X107856289Y-68961010D01*
X107763261Y-68836738D01*
X107646207Y-68749112D01*
X107646202Y-68749110D01*
X107509204Y-68698011D01*
X107509196Y-68698009D01*
X107448649Y-68691500D01*
X107448638Y-68691500D01*
X106151362Y-68691500D01*
X106151350Y-68691500D01*
X106090803Y-68698009D01*
X106090795Y-68698011D01*
X105953797Y-68749110D01*
X105953792Y-68749112D01*
X105836738Y-68836738D01*
X105743711Y-68961010D01*
X105741918Y-68959668D01*
X105700493Y-69001091D01*
X105640113Y-69016500D01*
X89959887Y-69016500D01*
X89891766Y-68996498D01*
X89857724Y-68959935D01*
X89856289Y-68961010D01*
X89763261Y-68836738D01*
X89646207Y-68749112D01*
X89646202Y-68749110D01*
X89509204Y-68698011D01*
X89509196Y-68698009D01*
X89448649Y-68691500D01*
X89448638Y-68691500D01*
X88151362Y-68691500D01*
X88151350Y-68691500D01*
X88090803Y-68698009D01*
X88090795Y-68698011D01*
X87953797Y-68749110D01*
X87953792Y-68749112D01*
X87836738Y-68836738D01*
X87743711Y-68961010D01*
X87741918Y-68959668D01*
X87700493Y-69001091D01*
X87640113Y-69016500D01*
X75353220Y-69016500D01*
X75285099Y-68996498D01*
X75259584Y-68974810D01*
X75211255Y-68921135D01*
X75056752Y-68808882D01*
X74882288Y-68731206D01*
X74695487Y-68691500D01*
X74504513Y-68691500D01*
X74317711Y-68731206D01*
X74143247Y-68808882D01*
X73988744Y-68921135D01*
X73860965Y-69063048D01*
X73860958Y-69063058D01*
X73765476Y-69228438D01*
X73765473Y-69228445D01*
X73706457Y-69410072D01*
X73686496Y-69600000D01*
X61413262Y-69600000D01*
X61394233Y-69297538D01*
X61337445Y-68999846D01*
X61243794Y-68711619D01*
X61114758Y-68437402D01*
X61114752Y-68437392D01*
X60952375Y-68181526D01*
X60759192Y-67948008D01*
X60759190Y-67948006D01*
X60538270Y-67740549D01*
X60293092Y-67562417D01*
X60252386Y-67540038D01*
X60027517Y-67416415D01*
X59946414Y-67384304D01*
X59745744Y-67304852D01*
X59745737Y-67304850D01*
X59452192Y-67229482D01*
X59151544Y-67191501D01*
X59151532Y-67191500D01*
X59151530Y-67191500D01*
X58848470Y-67191500D01*
X58848467Y-67191500D01*
X58848455Y-67191501D01*
X58547807Y-67229482D01*
X58254262Y-67304850D01*
X58254255Y-67304852D01*
X58053154Y-67384475D01*
X57982454Y-67390954D01*
X57919474Y-67358182D01*
X57884210Y-67296562D01*
X57887858Y-67225659D01*
X57917674Y-67178229D01*
X59182514Y-65913389D01*
X73399500Y-65913389D01*
X73399500Y-66086611D01*
X73426598Y-66257701D01*
X73480127Y-66422445D01*
X73480128Y-66422448D01*
X73480130Y-66422452D01*
X73558768Y-66576788D01*
X73660587Y-66716930D01*
X73783069Y-66839412D01*
X73783072Y-66839414D01*
X73923212Y-66941232D01*
X74077555Y-67019873D01*
X74242299Y-67073402D01*
X74413389Y-67100500D01*
X74413392Y-67100500D01*
X74586608Y-67100500D01*
X74586611Y-67100500D01*
X74757701Y-67073402D01*
X74922445Y-67019873D01*
X75076788Y-66941232D01*
X75216928Y-66839414D01*
X75339414Y-66716928D01*
X75441232Y-66576788D01*
X75519873Y-66422445D01*
X75573402Y-66257701D01*
X75600500Y-66086611D01*
X75600500Y-65913389D01*
X75593969Y-65872154D01*
X78049500Y-65872154D01*
X78049500Y-66127845D01*
X78082872Y-66381332D01*
X78082873Y-66381338D01*
X78082874Y-66381340D01*
X78149050Y-66628313D01*
X78246896Y-66864535D01*
X78246897Y-66864536D01*
X78246902Y-66864546D01*
X78374736Y-67085961D01*
X78374738Y-67085963D01*
X78374739Y-67085965D01*
X78445535Y-67178228D01*
X78530385Y-67288807D01*
X78530404Y-67288828D01*
X78711171Y-67469595D01*
X78711181Y-67469604D01*
X78711187Y-67469610D01*
X78914035Y-67625261D01*
X79135465Y-67753104D01*
X79371687Y-67850950D01*
X79618660Y-67917126D01*
X79618666Y-67917126D01*
X79618667Y-67917127D01*
X79647751Y-67920956D01*
X79872157Y-67950500D01*
X79872164Y-67950500D01*
X80127836Y-67950500D01*
X80127843Y-67950500D01*
X80381340Y-67917126D01*
X80628313Y-67850950D01*
X80864535Y-67753104D01*
X81085965Y-67625261D01*
X81288813Y-67469610D01*
X81469610Y-67288813D01*
X81625261Y-67085965D01*
X81753104Y-66864535D01*
X81850950Y-66628313D01*
X81917126Y-66381340D01*
X81950500Y-66127843D01*
X81950500Y-65913389D01*
X84399500Y-65913389D01*
X84399500Y-66086611D01*
X84426598Y-66257701D01*
X84480127Y-66422445D01*
X84480128Y-66422448D01*
X84480130Y-66422452D01*
X84558768Y-66576788D01*
X84660587Y-66716930D01*
X84783069Y-66839412D01*
X84783072Y-66839414D01*
X84923212Y-66941232D01*
X85077555Y-67019873D01*
X85242299Y-67073402D01*
X85413389Y-67100500D01*
X85413392Y-67100500D01*
X85586608Y-67100500D01*
X85586611Y-67100500D01*
X85757701Y-67073402D01*
X85922445Y-67019873D01*
X86076788Y-66941232D01*
X86216928Y-66839414D01*
X86339414Y-66716928D01*
X86441232Y-66576788D01*
X86519873Y-66422445D01*
X86573402Y-66257701D01*
X86600500Y-66086611D01*
X86600500Y-65913389D01*
X86573402Y-65742299D01*
X86519873Y-65577555D01*
X86441232Y-65423212D01*
X86339414Y-65283072D01*
X86339412Y-65283069D01*
X86216930Y-65160587D01*
X86076788Y-65058768D01*
X85922452Y-64980130D01*
X85922448Y-64980128D01*
X85922445Y-64980127D01*
X85757701Y-64926598D01*
X85586611Y-64899500D01*
X85413389Y-64899500D01*
X85242299Y-64926598D01*
X85242296Y-64926598D01*
X85242295Y-64926599D01*
X85163253Y-64952281D01*
X85077555Y-64980127D01*
X85077553Y-64980127D01*
X85077547Y-64980130D01*
X84923211Y-65058768D01*
X84783069Y-65160587D01*
X84660587Y-65283069D01*
X84558768Y-65423211D01*
X84480130Y-65577547D01*
X84480127Y-65577553D01*
X84480127Y-65577555D01*
X84426598Y-65742299D01*
X84399500Y-65913389D01*
X81950500Y-65913389D01*
X81950500Y-65872157D01*
X81917126Y-65618660D01*
X81850950Y-65371687D01*
X81753104Y-65135465D01*
X81632515Y-64926599D01*
X81625263Y-64914038D01*
X81625261Y-64914035D01*
X81469610Y-64711187D01*
X81469604Y-64711181D01*
X81469595Y-64711171D01*
X81288828Y-64530404D01*
X81288807Y-64530385D01*
X81195548Y-64458825D01*
X81085965Y-64374739D01*
X81085963Y-64374738D01*
X81085961Y-64374736D01*
X80864546Y-64246902D01*
X80864541Y-64246899D01*
X80864535Y-64246896D01*
X80628313Y-64149050D01*
X80381340Y-64082874D01*
X80381338Y-64082873D01*
X80381332Y-64082872D01*
X80127845Y-64049500D01*
X80127843Y-64049500D01*
X79872157Y-64049500D01*
X79872154Y-64049500D01*
X79618667Y-64082872D01*
X79371687Y-64149050D01*
X79135463Y-64246897D01*
X79135453Y-64246902D01*
X78914038Y-64374736D01*
X78914032Y-64374741D01*
X78711192Y-64530385D01*
X78711171Y-64530404D01*
X78530404Y-64711171D01*
X78530385Y-64711192D01*
X78374741Y-64914032D01*
X78374736Y-64914038D01*
X78246902Y-65135453D01*
X78246897Y-65135463D01*
X78149050Y-65371687D01*
X78082872Y-65618667D01*
X78049500Y-65872154D01*
X75593969Y-65872154D01*
X75573402Y-65742299D01*
X75519873Y-65577555D01*
X75441232Y-65423212D01*
X75339414Y-65283072D01*
X75339412Y-65283069D01*
X75216930Y-65160587D01*
X75076788Y-65058768D01*
X74922452Y-64980130D01*
X74922448Y-64980128D01*
X74922445Y-64980127D01*
X74757701Y-64926598D01*
X74586611Y-64899500D01*
X74413389Y-64899500D01*
X74242299Y-64926598D01*
X74242296Y-64926598D01*
X74242295Y-64926599D01*
X74163253Y-64952281D01*
X74077555Y-64980127D01*
X74077553Y-64980127D01*
X74077547Y-64980130D01*
X73923211Y-65058768D01*
X73783069Y-65160587D01*
X73660587Y-65283069D01*
X73558768Y-65423211D01*
X73480130Y-65577547D01*
X73480127Y-65577553D01*
X73480127Y-65577555D01*
X73426598Y-65742299D01*
X73399500Y-65913389D01*
X59182514Y-65913389D01*
X63010639Y-62085263D01*
X83249500Y-62085263D01*
X83249500Y-62314736D01*
X83279450Y-62542231D01*
X83279452Y-62542238D01*
X83338842Y-62763887D01*
X83426656Y-62975888D01*
X83426657Y-62975889D01*
X83426662Y-62975900D01*
X83541386Y-63174608D01*
X83541391Y-63174615D01*
X83681073Y-63356652D01*
X83681092Y-63356673D01*
X83843326Y-63518907D01*
X83843347Y-63518926D01*
X84025384Y-63658608D01*
X84025391Y-63658613D01*
X84224099Y-63773337D01*
X84224103Y-63773338D01*
X84224112Y-63773344D01*
X84436113Y-63861158D01*
X84657762Y-63920548D01*
X84657766Y-63920548D01*
X84657768Y-63920549D01*
X84716398Y-63928267D01*
X84885266Y-63950500D01*
X84885273Y-63950500D01*
X85114727Y-63950500D01*
X85114734Y-63950500D01*
X85320345Y-63923430D01*
X85342231Y-63920549D01*
X85342231Y-63920548D01*
X85342238Y-63920548D01*
X85563887Y-63861158D01*
X85775888Y-63773344D01*
X85974612Y-63658611D01*
X86156661Y-63518919D01*
X86318919Y-63356661D01*
X86458611Y-63174612D01*
X86531381Y-63048571D01*
X86582763Y-62999578D01*
X86652477Y-62986142D01*
X86718388Y-63012528D01*
X86759570Y-63070360D01*
X86766500Y-63111571D01*
X86766500Y-63548649D01*
X86773009Y-63609196D01*
X86773011Y-63609204D01*
X86824110Y-63746202D01*
X86824112Y-63746207D01*
X86911738Y-63863261D01*
X87028792Y-63950887D01*
X87028794Y-63950888D01*
X87028796Y-63950889D01*
X87087875Y-63972924D01*
X87165795Y-64001988D01*
X87165803Y-64001990D01*
X87226350Y-64008499D01*
X87226355Y-64008499D01*
X87226362Y-64008500D01*
X87815500Y-64008500D01*
X87883621Y-64028502D01*
X87930114Y-64082158D01*
X87941500Y-64134500D01*
X87941500Y-65395244D01*
X87921498Y-65463365D01*
X87891010Y-65496111D01*
X87836738Y-65536738D01*
X87749112Y-65653792D01*
X87749110Y-65653797D01*
X87698011Y-65790795D01*
X87698009Y-65790803D01*
X87691500Y-65851350D01*
X87691500Y-66848649D01*
X87698009Y-66909196D01*
X87698011Y-66909204D01*
X87749110Y-67046202D01*
X87749112Y-67046207D01*
X87836738Y-67163261D01*
X87953792Y-67250887D01*
X87953794Y-67250888D01*
X87953796Y-67250889D01*
X88012875Y-67272924D01*
X88090795Y-67301988D01*
X88090803Y-67301990D01*
X88151350Y-67308499D01*
X88151355Y-67308499D01*
X88151362Y-67308500D01*
X88151368Y-67308500D01*
X89448632Y-67308500D01*
X89448638Y-67308500D01*
X89448645Y-67308499D01*
X89448649Y-67308499D01*
X89509196Y-67301990D01*
X89509199Y-67301989D01*
X89509201Y-67301989D01*
X89646204Y-67250889D01*
X89674801Y-67229482D01*
X89763261Y-67163261D01*
X89850887Y-67046207D01*
X89850887Y-67046206D01*
X89850889Y-67046204D01*
X89901989Y-66909201D01*
X89908500Y-66848638D01*
X89908500Y-65913389D01*
X91399500Y-65913389D01*
X91399500Y-66086611D01*
X91426598Y-66257701D01*
X91480127Y-66422445D01*
X91480128Y-66422448D01*
X91480130Y-66422452D01*
X91558768Y-66576788D01*
X91660587Y-66716930D01*
X91783069Y-66839412D01*
X91783072Y-66839414D01*
X91923212Y-66941232D01*
X92077555Y-67019873D01*
X92242299Y-67073402D01*
X92413389Y-67100500D01*
X92413392Y-67100500D01*
X92586608Y-67100500D01*
X92586611Y-67100500D01*
X92757701Y-67073402D01*
X92922445Y-67019873D01*
X93076788Y-66941232D01*
X93216928Y-66839414D01*
X93339414Y-66716928D01*
X93441232Y-66576788D01*
X93519873Y-66422445D01*
X93573402Y-66257701D01*
X93600500Y-66086611D01*
X93600500Y-65913389D01*
X93593969Y-65872154D01*
X96049500Y-65872154D01*
X96049500Y-66127845D01*
X96082872Y-66381332D01*
X96082873Y-66381338D01*
X96082874Y-66381340D01*
X96149050Y-66628313D01*
X96246896Y-66864535D01*
X96246897Y-66864536D01*
X96246902Y-66864546D01*
X96374736Y-67085961D01*
X96374738Y-67085963D01*
X96374739Y-67085965D01*
X96445535Y-67178228D01*
X96530385Y-67288807D01*
X96530404Y-67288828D01*
X96711171Y-67469595D01*
X96711181Y-67469604D01*
X96711187Y-67469610D01*
X96914035Y-67625261D01*
X97135465Y-67753104D01*
X97371687Y-67850950D01*
X97618660Y-67917126D01*
X97618666Y-67917126D01*
X97618667Y-67917127D01*
X97647751Y-67920956D01*
X97872157Y-67950500D01*
X97872164Y-67950500D01*
X98127836Y-67950500D01*
X98127843Y-67950500D01*
X98381340Y-67917126D01*
X98628313Y-67850950D01*
X98864535Y-67753104D01*
X99085965Y-67625261D01*
X99288813Y-67469610D01*
X99469610Y-67288813D01*
X99625261Y-67085965D01*
X99753104Y-66864535D01*
X99850950Y-66628313D01*
X99917126Y-66381340D01*
X99950500Y-66127843D01*
X99950500Y-65913389D01*
X102399500Y-65913389D01*
X102399500Y-66086611D01*
X102426598Y-66257701D01*
X102480127Y-66422445D01*
X102480128Y-66422448D01*
X102480130Y-66422452D01*
X102558768Y-66576788D01*
X102660587Y-66716930D01*
X102783069Y-66839412D01*
X102783072Y-66839414D01*
X102923212Y-66941232D01*
X103077555Y-67019873D01*
X103242299Y-67073402D01*
X103413389Y-67100500D01*
X103413392Y-67100500D01*
X103586608Y-67100500D01*
X103586611Y-67100500D01*
X103757701Y-67073402D01*
X103922445Y-67019873D01*
X104076788Y-66941232D01*
X104216928Y-66839414D01*
X104339414Y-66716928D01*
X104441232Y-66576788D01*
X104519873Y-66422445D01*
X104573402Y-66257701D01*
X104600500Y-66086611D01*
X104600500Y-65913389D01*
X104573402Y-65742299D01*
X104519873Y-65577555D01*
X104441232Y-65423212D01*
X104339414Y-65283072D01*
X104339412Y-65283069D01*
X104216930Y-65160587D01*
X104076788Y-65058768D01*
X103922452Y-64980130D01*
X103922448Y-64980128D01*
X103922445Y-64980127D01*
X103757701Y-64926598D01*
X103586611Y-64899500D01*
X103413389Y-64899500D01*
X103242299Y-64926598D01*
X103242296Y-64926598D01*
X103242295Y-64926599D01*
X103163253Y-64952281D01*
X103077555Y-64980127D01*
X103077553Y-64980127D01*
X103077547Y-64980130D01*
X102923211Y-65058768D01*
X102783069Y-65160587D01*
X102660587Y-65283069D01*
X102558768Y-65423211D01*
X102480130Y-65577547D01*
X102480127Y-65577553D01*
X102480127Y-65577555D01*
X102426598Y-65742299D01*
X102399500Y-65913389D01*
X99950500Y-65913389D01*
X99950500Y-65872157D01*
X99917126Y-65618660D01*
X99850950Y-65371687D01*
X99753104Y-65135465D01*
X99632515Y-64926599D01*
X99625263Y-64914038D01*
X99625261Y-64914035D01*
X99469610Y-64711187D01*
X99469604Y-64711181D01*
X99469595Y-64711171D01*
X99288828Y-64530404D01*
X99288807Y-64530385D01*
X99195548Y-64458825D01*
X99085965Y-64374739D01*
X99085963Y-64374738D01*
X99085961Y-64374736D01*
X98864546Y-64246902D01*
X98864541Y-64246899D01*
X98864535Y-64246896D01*
X98628313Y-64149050D01*
X98381340Y-64082874D01*
X98381338Y-64082873D01*
X98381332Y-64082872D01*
X98127845Y-64049500D01*
X98127843Y-64049500D01*
X97872157Y-64049500D01*
X97872154Y-64049500D01*
X97618667Y-64082872D01*
X97371687Y-64149050D01*
X97135463Y-64246897D01*
X97135453Y-64246902D01*
X96914038Y-64374736D01*
X96914032Y-64374741D01*
X96711192Y-64530385D01*
X96711171Y-64530404D01*
X96530404Y-64711171D01*
X96530385Y-64711192D01*
X96374741Y-64914032D01*
X96374736Y-64914038D01*
X96246902Y-65135453D01*
X96246897Y-65135463D01*
X96149050Y-65371687D01*
X96082872Y-65618667D01*
X96049500Y-65872154D01*
X93593969Y-65872154D01*
X93573402Y-65742299D01*
X93519873Y-65577555D01*
X93441232Y-65423212D01*
X93339414Y-65283072D01*
X93339412Y-65283069D01*
X93216930Y-65160587D01*
X93076788Y-65058768D01*
X92922452Y-64980130D01*
X92922448Y-64980128D01*
X92922445Y-64980127D01*
X92757701Y-64926598D01*
X92586611Y-64899500D01*
X92413389Y-64899500D01*
X92242299Y-64926598D01*
X92242296Y-64926598D01*
X92242295Y-64926599D01*
X92163253Y-64952281D01*
X92077555Y-64980127D01*
X92077553Y-64980127D01*
X92077547Y-64980130D01*
X91923211Y-65058768D01*
X91783069Y-65160587D01*
X91660587Y-65283069D01*
X91558768Y-65423211D01*
X91480130Y-65577547D01*
X91480127Y-65577553D01*
X91480127Y-65577555D01*
X91426598Y-65742299D01*
X91399500Y-65913389D01*
X89908500Y-65913389D01*
X89908500Y-65851362D01*
X89908499Y-65851350D01*
X89901990Y-65790803D01*
X89901988Y-65790795D01*
X89850889Y-65653797D01*
X89850887Y-65653792D01*
X89763261Y-65536738D01*
X89646207Y-65449112D01*
X89646202Y-65449110D01*
X89509204Y-65398011D01*
X89509196Y-65398009D01*
X89448649Y-65391500D01*
X89448638Y-65391500D01*
X89334500Y-65391500D01*
X89266379Y-65371498D01*
X89219886Y-65317842D01*
X89208500Y-65265500D01*
X89208500Y-64134500D01*
X89228502Y-64066379D01*
X89282158Y-64019886D01*
X89334500Y-64008500D01*
X89923632Y-64008500D01*
X89923638Y-64008500D01*
X89923645Y-64008499D01*
X89923649Y-64008499D01*
X89984196Y-64001990D01*
X89984199Y-64001989D01*
X89984201Y-64001989D01*
X90121204Y-63950889D01*
X90161734Y-63920549D01*
X90238261Y-63863261D01*
X90325887Y-63746207D01*
X90325887Y-63746206D01*
X90325889Y-63746204D01*
X90376989Y-63609201D01*
X90383500Y-63548638D01*
X90383500Y-62085263D01*
X101249500Y-62085263D01*
X101249500Y-62314736D01*
X101279450Y-62542231D01*
X101279452Y-62542238D01*
X101338842Y-62763887D01*
X101426656Y-62975888D01*
X101426657Y-62975889D01*
X101426662Y-62975900D01*
X101541386Y-63174608D01*
X101541391Y-63174615D01*
X101681073Y-63356652D01*
X101681092Y-63356673D01*
X101843326Y-63518907D01*
X101843347Y-63518926D01*
X102025384Y-63658608D01*
X102025391Y-63658613D01*
X102224099Y-63773337D01*
X102224103Y-63773338D01*
X102224112Y-63773344D01*
X102436113Y-63861158D01*
X102657762Y-63920548D01*
X102657766Y-63920548D01*
X102657768Y-63920549D01*
X102716398Y-63928267D01*
X102885266Y-63950500D01*
X102885273Y-63950500D01*
X103114727Y-63950500D01*
X103114734Y-63950500D01*
X103320345Y-63923430D01*
X103342231Y-63920549D01*
X103342231Y-63920548D01*
X103342238Y-63920548D01*
X103563887Y-63861158D01*
X103775888Y-63773344D01*
X103974612Y-63658611D01*
X104156661Y-63518919D01*
X104318919Y-63356661D01*
X104458611Y-63174612D01*
X104531381Y-63048571D01*
X104582763Y-62999578D01*
X104652477Y-62986142D01*
X104718388Y-63012528D01*
X104759570Y-63070360D01*
X104766500Y-63111571D01*
X104766500Y-63548649D01*
X104773009Y-63609196D01*
X104773011Y-63609204D01*
X104824110Y-63746202D01*
X104824112Y-63746207D01*
X104911738Y-63863261D01*
X105028792Y-63950887D01*
X105028794Y-63950888D01*
X105028796Y-63950889D01*
X105087875Y-63972924D01*
X105165795Y-64001988D01*
X105165803Y-64001990D01*
X105226350Y-64008499D01*
X105226355Y-64008499D01*
X105226362Y-64008500D01*
X105815500Y-64008500D01*
X105883621Y-64028502D01*
X105930114Y-64082158D01*
X105941500Y-64134500D01*
X105941500Y-65395244D01*
X105921498Y-65463365D01*
X105891010Y-65496111D01*
X105836738Y-65536738D01*
X105749112Y-65653792D01*
X105749110Y-65653797D01*
X105698011Y-65790795D01*
X105698009Y-65790803D01*
X105691500Y-65851350D01*
X105691500Y-66848649D01*
X105698009Y-66909196D01*
X105698011Y-66909204D01*
X105749110Y-67046202D01*
X105749112Y-67046207D01*
X105836738Y-67163261D01*
X105953792Y-67250887D01*
X105953794Y-67250888D01*
X105953796Y-67250889D01*
X106012875Y-67272924D01*
X106090795Y-67301988D01*
X106090803Y-67301990D01*
X106151350Y-67308499D01*
X106151355Y-67308499D01*
X106151362Y-67308500D01*
X106151368Y-67308500D01*
X107448632Y-67308500D01*
X107448638Y-67308500D01*
X107448645Y-67308499D01*
X107448649Y-67308499D01*
X107509196Y-67301990D01*
X107509199Y-67301989D01*
X107509201Y-67301989D01*
X107646204Y-67250889D01*
X107674801Y-67229482D01*
X107763261Y-67163261D01*
X107850887Y-67046207D01*
X107850887Y-67046206D01*
X107850889Y-67046204D01*
X107901989Y-66909201D01*
X107908500Y-66848638D01*
X107908500Y-65913389D01*
X109399500Y-65913389D01*
X109399500Y-66086611D01*
X109426598Y-66257701D01*
X109480127Y-66422445D01*
X109480128Y-66422448D01*
X109480130Y-66422452D01*
X109558768Y-66576788D01*
X109660587Y-66716930D01*
X109783069Y-66839412D01*
X109783072Y-66839414D01*
X109923212Y-66941232D01*
X110077555Y-67019873D01*
X110242299Y-67073402D01*
X110413389Y-67100500D01*
X110413392Y-67100500D01*
X110586608Y-67100500D01*
X110586611Y-67100500D01*
X110757701Y-67073402D01*
X110922445Y-67019873D01*
X111076788Y-66941232D01*
X111216928Y-66839414D01*
X111339414Y-66716928D01*
X111441232Y-66576788D01*
X111519873Y-66422445D01*
X111573402Y-66257701D01*
X111600500Y-66086611D01*
X111600500Y-65913389D01*
X111593969Y-65872154D01*
X114049500Y-65872154D01*
X114049500Y-66127845D01*
X114082872Y-66381332D01*
X114082873Y-66381338D01*
X114082874Y-66381340D01*
X114149050Y-66628313D01*
X114246896Y-66864535D01*
X114246897Y-66864536D01*
X114246902Y-66864546D01*
X114374736Y-67085961D01*
X114374738Y-67085963D01*
X114374739Y-67085965D01*
X114445535Y-67178228D01*
X114530385Y-67288807D01*
X114530404Y-67288828D01*
X114711171Y-67469595D01*
X114711181Y-67469604D01*
X114711187Y-67469610D01*
X114914035Y-67625261D01*
X115135465Y-67753104D01*
X115371687Y-67850950D01*
X115618660Y-67917126D01*
X115618666Y-67917126D01*
X115618667Y-67917127D01*
X115647751Y-67920956D01*
X115872157Y-67950500D01*
X115872164Y-67950500D01*
X116127836Y-67950500D01*
X116127843Y-67950500D01*
X116381340Y-67917126D01*
X116628313Y-67850950D01*
X116864535Y-67753104D01*
X117085965Y-67625261D01*
X117288813Y-67469610D01*
X117469610Y-67288813D01*
X117625261Y-67085965D01*
X117753104Y-66864535D01*
X117850950Y-66628313D01*
X117917126Y-66381340D01*
X117950500Y-66127843D01*
X117950500Y-65913389D01*
X120399500Y-65913389D01*
X120399500Y-66086611D01*
X120426598Y-66257701D01*
X120480127Y-66422445D01*
X120480128Y-66422448D01*
X120480130Y-66422452D01*
X120558768Y-66576788D01*
X120660587Y-66716930D01*
X120783069Y-66839412D01*
X120783072Y-66839414D01*
X120923212Y-66941232D01*
X121077555Y-67019873D01*
X121242299Y-67073402D01*
X121413389Y-67100500D01*
X121413392Y-67100500D01*
X121586608Y-67100500D01*
X121586611Y-67100500D01*
X121757701Y-67073402D01*
X121922445Y-67019873D01*
X122076788Y-66941232D01*
X122216928Y-66839414D01*
X122339414Y-66716928D01*
X122441232Y-66576788D01*
X122519873Y-66422445D01*
X122573402Y-66257701D01*
X122600500Y-66086611D01*
X122600500Y-65913389D01*
X122573402Y-65742299D01*
X122519873Y-65577555D01*
X122441232Y-65423212D01*
X122339414Y-65283072D01*
X122339412Y-65283069D01*
X122216930Y-65160587D01*
X122076788Y-65058768D01*
X121922452Y-64980130D01*
X121922448Y-64980128D01*
X121922445Y-64980127D01*
X121757701Y-64926598D01*
X121586611Y-64899500D01*
X121413389Y-64899500D01*
X121242299Y-64926598D01*
X121242296Y-64926598D01*
X121242295Y-64926599D01*
X121163253Y-64952281D01*
X121077555Y-64980127D01*
X121077553Y-64980127D01*
X121077547Y-64980130D01*
X120923211Y-65058768D01*
X120783069Y-65160587D01*
X120660587Y-65283069D01*
X120558768Y-65423211D01*
X120480130Y-65577547D01*
X120480127Y-65577553D01*
X120480127Y-65577555D01*
X120426598Y-65742299D01*
X120399500Y-65913389D01*
X117950500Y-65913389D01*
X117950500Y-65872157D01*
X117917126Y-65618660D01*
X117850950Y-65371687D01*
X117753104Y-65135465D01*
X117632515Y-64926599D01*
X117625263Y-64914038D01*
X117625261Y-64914035D01*
X117469610Y-64711187D01*
X117469604Y-64711181D01*
X117469595Y-64711171D01*
X117288828Y-64530404D01*
X117288807Y-64530385D01*
X117195548Y-64458825D01*
X117085965Y-64374739D01*
X117085963Y-64374738D01*
X117085961Y-64374736D01*
X116864546Y-64246902D01*
X116864541Y-64246899D01*
X116864535Y-64246896D01*
X116628313Y-64149050D01*
X116381340Y-64082874D01*
X116381338Y-64082873D01*
X116381332Y-64082872D01*
X116127845Y-64049500D01*
X116127843Y-64049500D01*
X115872157Y-64049500D01*
X115872154Y-64049500D01*
X115618667Y-64082872D01*
X115371687Y-64149050D01*
X115135463Y-64246897D01*
X115135453Y-64246902D01*
X114914038Y-64374736D01*
X114914032Y-64374741D01*
X114711192Y-64530385D01*
X114711171Y-64530404D01*
X114530404Y-64711171D01*
X114530385Y-64711192D01*
X114374741Y-64914032D01*
X114374736Y-64914038D01*
X114246902Y-65135453D01*
X114246897Y-65135463D01*
X114149050Y-65371687D01*
X114082872Y-65618667D01*
X114049500Y-65872154D01*
X111593969Y-65872154D01*
X111573402Y-65742299D01*
X111519873Y-65577555D01*
X111441232Y-65423212D01*
X111339414Y-65283072D01*
X111339412Y-65283069D01*
X111216930Y-65160587D01*
X111076788Y-65058768D01*
X110922452Y-64980130D01*
X110922448Y-64980128D01*
X110922445Y-64980127D01*
X110757701Y-64926598D01*
X110586611Y-64899500D01*
X110413389Y-64899500D01*
X110242299Y-64926598D01*
X110242296Y-64926598D01*
X110242295Y-64926599D01*
X110163253Y-64952281D01*
X110077555Y-64980127D01*
X110077553Y-64980127D01*
X110077547Y-64980130D01*
X109923211Y-65058768D01*
X109783069Y-65160587D01*
X109660587Y-65283069D01*
X109558768Y-65423211D01*
X109480130Y-65577547D01*
X109480127Y-65577553D01*
X109480127Y-65577555D01*
X109426598Y-65742299D01*
X109399500Y-65913389D01*
X107908500Y-65913389D01*
X107908500Y-65851362D01*
X107908499Y-65851350D01*
X107901990Y-65790803D01*
X107901988Y-65790795D01*
X107850889Y-65653797D01*
X107850887Y-65653792D01*
X107763261Y-65536738D01*
X107646207Y-65449112D01*
X107646202Y-65449110D01*
X107509204Y-65398011D01*
X107509196Y-65398009D01*
X107448649Y-65391500D01*
X107448638Y-65391500D01*
X107334500Y-65391500D01*
X107266379Y-65371498D01*
X107219886Y-65317842D01*
X107208500Y-65265500D01*
X107208500Y-64134500D01*
X107228502Y-64066379D01*
X107282158Y-64019886D01*
X107334500Y-64008500D01*
X107923632Y-64008500D01*
X107923638Y-64008500D01*
X107923645Y-64008499D01*
X107923649Y-64008499D01*
X107984196Y-64001990D01*
X107984199Y-64001989D01*
X107984201Y-64001989D01*
X108121204Y-63950889D01*
X108161734Y-63920549D01*
X108238261Y-63863261D01*
X108325887Y-63746207D01*
X108325887Y-63746206D01*
X108325889Y-63746204D01*
X108376989Y-63609201D01*
X108383500Y-63548638D01*
X108383500Y-60851362D01*
X108383499Y-60851350D01*
X108376990Y-60790803D01*
X108376988Y-60790795D01*
X108347924Y-60712875D01*
X108325889Y-60653796D01*
X108325888Y-60653794D01*
X108325887Y-60653792D01*
X108238261Y-60536738D01*
X108121207Y-60449112D01*
X108121202Y-60449110D01*
X107984204Y-60398011D01*
X107984196Y-60398009D01*
X107923649Y-60391500D01*
X107923638Y-60391500D01*
X105226362Y-60391500D01*
X105226350Y-60391500D01*
X105165803Y-60398009D01*
X105165795Y-60398011D01*
X105028797Y-60449110D01*
X105028792Y-60449112D01*
X104911738Y-60536738D01*
X104824112Y-60653792D01*
X104824110Y-60653797D01*
X104773011Y-60790795D01*
X104773009Y-60790803D01*
X104766500Y-60851350D01*
X104766500Y-61288428D01*
X104746498Y-61356549D01*
X104692842Y-61403042D01*
X104622568Y-61413146D01*
X104557988Y-61383652D01*
X104531381Y-61351428D01*
X104458613Y-61225391D01*
X104458608Y-61225384D01*
X104318926Y-61043347D01*
X104318907Y-61043326D01*
X104156673Y-60881092D01*
X104156652Y-60881073D01*
X103974615Y-60741391D01*
X103974608Y-60741386D01*
X103775900Y-60626662D01*
X103775892Y-60626658D01*
X103775888Y-60626656D01*
X103563887Y-60538842D01*
X103342238Y-60479452D01*
X103342231Y-60479450D01*
X103114736Y-60449500D01*
X103114734Y-60449500D01*
X102885266Y-60449500D01*
X102885263Y-60449500D01*
X102657768Y-60479450D01*
X102443969Y-60536737D01*
X102436113Y-60538842D01*
X102235940Y-60621757D01*
X102224110Y-60626657D01*
X102224099Y-60626662D01*
X102025391Y-60741386D01*
X102025384Y-60741391D01*
X101843347Y-60881073D01*
X101843326Y-60881092D01*
X101681092Y-61043326D01*
X101681073Y-61043347D01*
X101541391Y-61225384D01*
X101541386Y-61225391D01*
X101426662Y-61424099D01*
X101426657Y-61424110D01*
X101426656Y-61424112D01*
X101370944Y-61558613D01*
X101338842Y-61636113D01*
X101279450Y-61857768D01*
X101249500Y-62085263D01*
X90383500Y-62085263D01*
X90383500Y-60851362D01*
X90383499Y-60851350D01*
X90376990Y-60790803D01*
X90376988Y-60790795D01*
X90347924Y-60712875D01*
X90325889Y-60653796D01*
X90325888Y-60653794D01*
X90325887Y-60653792D01*
X90238261Y-60536738D01*
X90121207Y-60449112D01*
X90121202Y-60449110D01*
X89984204Y-60398011D01*
X89984196Y-60398009D01*
X89923649Y-60391500D01*
X89923638Y-60391500D01*
X87226362Y-60391500D01*
X87226350Y-60391500D01*
X87165803Y-60398009D01*
X87165795Y-60398011D01*
X87028797Y-60449110D01*
X87028792Y-60449112D01*
X86911738Y-60536738D01*
X86824112Y-60653792D01*
X86824110Y-60653797D01*
X86773011Y-60790795D01*
X86773009Y-60790803D01*
X86766500Y-60851350D01*
X86766500Y-61288428D01*
X86746498Y-61356549D01*
X86692842Y-61403042D01*
X86622568Y-61413146D01*
X86557988Y-61383652D01*
X86531381Y-61351428D01*
X86458613Y-61225391D01*
X86458608Y-61225384D01*
X86318926Y-61043347D01*
X86318907Y-61043326D01*
X86156673Y-60881092D01*
X86156652Y-60881073D01*
X85974615Y-60741391D01*
X85974608Y-60741386D01*
X85775900Y-60626662D01*
X85775892Y-60626658D01*
X85775888Y-60626656D01*
X85563887Y-60538842D01*
X85342238Y-60479452D01*
X85342231Y-60479450D01*
X85114736Y-60449500D01*
X85114734Y-60449500D01*
X84885266Y-60449500D01*
X84885263Y-60449500D01*
X84657768Y-60479450D01*
X84443969Y-60536737D01*
X84436113Y-60538842D01*
X84235940Y-60621757D01*
X84224110Y-60626657D01*
X84224099Y-60626662D01*
X84025391Y-60741386D01*
X84025384Y-60741391D01*
X83843347Y-60881073D01*
X83843326Y-60881092D01*
X83681092Y-61043326D01*
X83681073Y-61043347D01*
X83541391Y-61225384D01*
X83541386Y-61225391D01*
X83426662Y-61424099D01*
X83426657Y-61424110D01*
X83426656Y-61424112D01*
X83370944Y-61558613D01*
X83338842Y-61636113D01*
X83279450Y-61857768D01*
X83249500Y-62085263D01*
X63010639Y-62085263D01*
X65462898Y-59633004D01*
X65525208Y-59598980D01*
X65596023Y-59604045D01*
X65641086Y-59633006D01*
X65702421Y-59694341D01*
X65703533Y-59695149D01*
X65881785Y-59824657D01*
X66079324Y-59925308D01*
X66290176Y-59993818D01*
X66509149Y-60028500D01*
X66509152Y-60028500D01*
X67680848Y-60028500D01*
X67680851Y-60028500D01*
X67899824Y-59993818D01*
X68110676Y-59925308D01*
X68308215Y-59824657D01*
X68487576Y-59694343D01*
X68644343Y-59537576D01*
X68774657Y-59358215D01*
X68875308Y-59160676D01*
X68943818Y-58949824D01*
X68975253Y-58751350D01*
X74616500Y-58751350D01*
X74616500Y-61448649D01*
X74623009Y-61509196D01*
X74623011Y-61509204D01*
X74674110Y-61646202D01*
X74674112Y-61646207D01*
X74761738Y-61763261D01*
X74878792Y-61850887D01*
X74878794Y-61850888D01*
X74878796Y-61850889D01*
X74937875Y-61872924D01*
X75015795Y-61901988D01*
X75015803Y-61901990D01*
X75076350Y-61908499D01*
X75076355Y-61908499D01*
X75076362Y-61908500D01*
X75076368Y-61908500D01*
X77773632Y-61908500D01*
X77773638Y-61908500D01*
X77773645Y-61908499D01*
X77773649Y-61908499D01*
X77834196Y-61901990D01*
X77834199Y-61901989D01*
X77834201Y-61901989D01*
X77971204Y-61850889D01*
X78011734Y-61820549D01*
X78088261Y-61763261D01*
X78175887Y-61646207D01*
X78175887Y-61646206D01*
X78175889Y-61646204D01*
X78226989Y-61509201D01*
X78233500Y-61448638D01*
X78233500Y-61011571D01*
X78253502Y-60943450D01*
X78307158Y-60896957D01*
X78377432Y-60886853D01*
X78442012Y-60916347D01*
X78468619Y-60948571D01*
X78541386Y-61074608D01*
X78541391Y-61074615D01*
X78681073Y-61256652D01*
X78681092Y-61256673D01*
X78843326Y-61418907D01*
X78843347Y-61418926D01*
X79025384Y-61558608D01*
X79025391Y-61558613D01*
X79224099Y-61673337D01*
X79224103Y-61673338D01*
X79224112Y-61673344D01*
X79436113Y-61761158D01*
X79657762Y-61820548D01*
X79657766Y-61820548D01*
X79657768Y-61820549D01*
X79716398Y-61828267D01*
X79885266Y-61850500D01*
X79885273Y-61850500D01*
X80114727Y-61850500D01*
X80114734Y-61850500D01*
X80320345Y-61823430D01*
X80342231Y-61820549D01*
X80342231Y-61820548D01*
X80342238Y-61820548D01*
X80563887Y-61761158D01*
X80775888Y-61673344D01*
X80974612Y-61558611D01*
X81156661Y-61418919D01*
X81318919Y-61256661D01*
X81458611Y-61074612D01*
X81573344Y-60875888D01*
X81661158Y-60663887D01*
X81720548Y-60442238D01*
X81750500Y-60214734D01*
X81750500Y-59985266D01*
X81720548Y-59757762D01*
X81661158Y-59536113D01*
X81573344Y-59324112D01*
X81573338Y-59324103D01*
X81573337Y-59324099D01*
X81458613Y-59125391D01*
X81458608Y-59125384D01*
X81318926Y-58943347D01*
X81318907Y-58943326D01*
X81156673Y-58781092D01*
X81156652Y-58781073D01*
X80974615Y-58641391D01*
X80974608Y-58641386D01*
X80775900Y-58526662D01*
X80775892Y-58526658D01*
X80775888Y-58526656D01*
X80563887Y-58438842D01*
X80342238Y-58379452D01*
X80342231Y-58379450D01*
X80114736Y-58349500D01*
X80114734Y-58349500D01*
X79885266Y-58349500D01*
X79885263Y-58349500D01*
X79657768Y-58379450D01*
X79443965Y-58436738D01*
X79436113Y-58438842D01*
X79266371Y-58509152D01*
X79224110Y-58526657D01*
X79224099Y-58526662D01*
X79025391Y-58641386D01*
X79025384Y-58641391D01*
X78843347Y-58781073D01*
X78843326Y-58781092D01*
X78681092Y-58943326D01*
X78681073Y-58943347D01*
X78541391Y-59125384D01*
X78541386Y-59125391D01*
X78468619Y-59251428D01*
X78417236Y-59300421D01*
X78347523Y-59313857D01*
X78281612Y-59287470D01*
X78240430Y-59229638D01*
X78233500Y-59188428D01*
X78233500Y-58751367D01*
X78233499Y-58751350D01*
X78226990Y-58690803D01*
X78226988Y-58690795D01*
X78179170Y-58562593D01*
X78175889Y-58553796D01*
X78175888Y-58553794D01*
X78175887Y-58553792D01*
X78088261Y-58436738D01*
X77971207Y-58349112D01*
X77971202Y-58349110D01*
X77834204Y-58298011D01*
X77834196Y-58298009D01*
X77773649Y-58291500D01*
X77773638Y-58291500D01*
X75076362Y-58291500D01*
X75076350Y-58291500D01*
X75015803Y-58298009D01*
X75015795Y-58298011D01*
X74878797Y-58349110D01*
X74878792Y-58349112D01*
X74761738Y-58436738D01*
X74674112Y-58553792D01*
X74674110Y-58553797D01*
X74623011Y-58690795D01*
X74623009Y-58690803D01*
X74616500Y-58751350D01*
X68975253Y-58751350D01*
X68978500Y-58730851D01*
X68978500Y-58509149D01*
X68943818Y-58290176D01*
X68875308Y-58079324D01*
X68774657Y-57881785D01*
X68666612Y-57733074D01*
X68644341Y-57702421D01*
X68541913Y-57599993D01*
X86586738Y-57599993D01*
X86586738Y-57600006D01*
X86605765Y-57902449D01*
X86605767Y-57902466D01*
X86624403Y-58000157D01*
X86662555Y-58200154D01*
X86756206Y-58488381D01*
X86885242Y-58762598D01*
X86885244Y-58762601D01*
X86885247Y-58762607D01*
X87047624Y-59018473D01*
X87240807Y-59251991D01*
X87240809Y-59251993D01*
X87461729Y-59459450D01*
X87632586Y-59583585D01*
X87706910Y-59637584D01*
X87972483Y-59783585D01*
X88177322Y-59864686D01*
X88254255Y-59895147D01*
X88254258Y-59895147D01*
X88254261Y-59895149D01*
X88547800Y-59970516D01*
X88547806Y-59970516D01*
X88547807Y-59970517D01*
X88664612Y-59985273D01*
X88848470Y-60008500D01*
X88848473Y-60008500D01*
X89151527Y-60008500D01*
X89151530Y-60008500D01*
X89452200Y-59970516D01*
X89745739Y-59895149D01*
X90027517Y-59783585D01*
X90293090Y-59637584D01*
X90538271Y-59459450D01*
X90759192Y-59251992D01*
X90952370Y-59018480D01*
X90952372Y-59018475D01*
X90952375Y-59018473D01*
X91079294Y-58818480D01*
X91114758Y-58762598D01*
X91120051Y-58751350D01*
X92616500Y-58751350D01*
X92616500Y-61448649D01*
X92623009Y-61509196D01*
X92623011Y-61509204D01*
X92674110Y-61646202D01*
X92674112Y-61646207D01*
X92761738Y-61763261D01*
X92878792Y-61850887D01*
X92878794Y-61850888D01*
X92878796Y-61850889D01*
X92937875Y-61872924D01*
X93015795Y-61901988D01*
X93015803Y-61901990D01*
X93076350Y-61908499D01*
X93076355Y-61908499D01*
X93076362Y-61908500D01*
X93076368Y-61908500D01*
X95773632Y-61908500D01*
X95773638Y-61908500D01*
X95773645Y-61908499D01*
X95773649Y-61908499D01*
X95834196Y-61901990D01*
X95834199Y-61901989D01*
X95834201Y-61901989D01*
X95971204Y-61850889D01*
X96011734Y-61820549D01*
X96088261Y-61763261D01*
X96175887Y-61646207D01*
X96175887Y-61646206D01*
X96175889Y-61646204D01*
X96226989Y-61509201D01*
X96233500Y-61448638D01*
X96233500Y-61011571D01*
X96253502Y-60943450D01*
X96307158Y-60896957D01*
X96377432Y-60886853D01*
X96442012Y-60916347D01*
X96468619Y-60948571D01*
X96541386Y-61074608D01*
X96541391Y-61074615D01*
X96681073Y-61256652D01*
X96681092Y-61256673D01*
X96843326Y-61418907D01*
X96843347Y-61418926D01*
X97025384Y-61558608D01*
X97025391Y-61558613D01*
X97224099Y-61673337D01*
X97224103Y-61673338D01*
X97224112Y-61673344D01*
X97436113Y-61761158D01*
X97657762Y-61820548D01*
X97657766Y-61820548D01*
X97657768Y-61820549D01*
X97716398Y-61828267D01*
X97885266Y-61850500D01*
X97885273Y-61850500D01*
X98114727Y-61850500D01*
X98114734Y-61850500D01*
X98320345Y-61823430D01*
X98342231Y-61820549D01*
X98342231Y-61820548D01*
X98342238Y-61820548D01*
X98563887Y-61761158D01*
X98775888Y-61673344D01*
X98974612Y-61558611D01*
X99156661Y-61418919D01*
X99318919Y-61256661D01*
X99458611Y-61074612D01*
X99573344Y-60875888D01*
X99661158Y-60663887D01*
X99720548Y-60442238D01*
X99750500Y-60214734D01*
X99750500Y-59985266D01*
X99720548Y-59757762D01*
X99661158Y-59536113D01*
X99573344Y-59324112D01*
X99573338Y-59324103D01*
X99573337Y-59324099D01*
X99458613Y-59125391D01*
X99458608Y-59125384D01*
X99318926Y-58943347D01*
X99318907Y-58943326D01*
X99156673Y-58781092D01*
X99156652Y-58781073D01*
X98974615Y-58641391D01*
X98974608Y-58641386D01*
X98775900Y-58526662D01*
X98775892Y-58526658D01*
X98775888Y-58526656D01*
X98563887Y-58438842D01*
X98342238Y-58379452D01*
X98342231Y-58379450D01*
X98114736Y-58349500D01*
X98114734Y-58349500D01*
X97885266Y-58349500D01*
X97885263Y-58349500D01*
X97657768Y-58379450D01*
X97443965Y-58436738D01*
X97436113Y-58438842D01*
X97266371Y-58509152D01*
X97224110Y-58526657D01*
X97224099Y-58526662D01*
X97025391Y-58641386D01*
X97025384Y-58641391D01*
X96843347Y-58781073D01*
X96843326Y-58781092D01*
X96681092Y-58943326D01*
X96681073Y-58943347D01*
X96541391Y-59125384D01*
X96541386Y-59125391D01*
X96468619Y-59251428D01*
X96417236Y-59300421D01*
X96347523Y-59313857D01*
X96281612Y-59287470D01*
X96240430Y-59229638D01*
X96233500Y-59188428D01*
X96233500Y-58751367D01*
X96233499Y-58751350D01*
X96226990Y-58690803D01*
X96226988Y-58690795D01*
X96179170Y-58562593D01*
X96175889Y-58553796D01*
X96175888Y-58553794D01*
X96175887Y-58553792D01*
X96088261Y-58436738D01*
X95971207Y-58349112D01*
X95971202Y-58349110D01*
X95834204Y-58298011D01*
X95834196Y-58298009D01*
X95773649Y-58291500D01*
X95773638Y-58291500D01*
X93076362Y-58291500D01*
X93076350Y-58291500D01*
X93015803Y-58298009D01*
X93015795Y-58298011D01*
X92878797Y-58349110D01*
X92878792Y-58349112D01*
X92761738Y-58436738D01*
X92674112Y-58553792D01*
X92674110Y-58553797D01*
X92623011Y-58690795D01*
X92623009Y-58690803D01*
X92616500Y-58751350D01*
X91120051Y-58751350D01*
X91243794Y-58488381D01*
X91337445Y-58200154D01*
X91394233Y-57902462D01*
X91404890Y-57733071D01*
X91413262Y-57600006D01*
X91413262Y-57599993D01*
X91400679Y-57399993D01*
X104586738Y-57399993D01*
X104586738Y-57400006D01*
X104605765Y-57702449D01*
X104605767Y-57702466D01*
X104643919Y-57902462D01*
X104662555Y-58000154D01*
X104756206Y-58288381D01*
X104885242Y-58562598D01*
X104885244Y-58562601D01*
X104885247Y-58562607D01*
X105047624Y-58818473D01*
X105213084Y-59018480D01*
X105240808Y-59051992D01*
X105461729Y-59259450D01*
X105706910Y-59437584D01*
X105972483Y-59583585D01*
X106177322Y-59664686D01*
X106254255Y-59695147D01*
X106254258Y-59695147D01*
X106254261Y-59695149D01*
X106547800Y-59770516D01*
X106547806Y-59770516D01*
X106547807Y-59770517D01*
X106651242Y-59783584D01*
X106848470Y-59808500D01*
X106848473Y-59808500D01*
X107151527Y-59808500D01*
X107151530Y-59808500D01*
X107452200Y-59770516D01*
X107745739Y-59695149D01*
X108027517Y-59583585D01*
X108293090Y-59437584D01*
X108538271Y-59259450D01*
X108759192Y-59051992D01*
X108952370Y-58818480D01*
X108952372Y-58818475D01*
X108952375Y-58818473D01*
X108994973Y-58751350D01*
X110616500Y-58751350D01*
X110616500Y-61448649D01*
X110623009Y-61509196D01*
X110623011Y-61509204D01*
X110674110Y-61646202D01*
X110674112Y-61646207D01*
X110761738Y-61763261D01*
X110878792Y-61850887D01*
X110878794Y-61850888D01*
X110878796Y-61850889D01*
X110937875Y-61872924D01*
X111015795Y-61901988D01*
X111015803Y-61901990D01*
X111076350Y-61908499D01*
X111076355Y-61908499D01*
X111076362Y-61908500D01*
X111076368Y-61908500D01*
X113773632Y-61908500D01*
X113773638Y-61908500D01*
X113773645Y-61908499D01*
X113773649Y-61908499D01*
X113834196Y-61901990D01*
X113834199Y-61901989D01*
X113834201Y-61901989D01*
X113971204Y-61850889D01*
X114011734Y-61820549D01*
X114088261Y-61763261D01*
X114175887Y-61646207D01*
X114175887Y-61646206D01*
X114175889Y-61646204D01*
X114226989Y-61509201D01*
X114233500Y-61448638D01*
X114233500Y-61011571D01*
X114253502Y-60943450D01*
X114307158Y-60896957D01*
X114377432Y-60886853D01*
X114442012Y-60916347D01*
X114468619Y-60948571D01*
X114541386Y-61074608D01*
X114541391Y-61074615D01*
X114681073Y-61256652D01*
X114681092Y-61256673D01*
X114843326Y-61418907D01*
X114843347Y-61418926D01*
X115025384Y-61558608D01*
X115025391Y-61558613D01*
X115224099Y-61673337D01*
X115224103Y-61673338D01*
X115224112Y-61673344D01*
X115436113Y-61761158D01*
X115657762Y-61820548D01*
X115657766Y-61820548D01*
X115657768Y-61820549D01*
X115716398Y-61828267D01*
X115885266Y-61850500D01*
X115885273Y-61850500D01*
X116114727Y-61850500D01*
X116114734Y-61850500D01*
X116320345Y-61823430D01*
X116342231Y-61820549D01*
X116342231Y-61820548D01*
X116342238Y-61820548D01*
X116563887Y-61761158D01*
X116775888Y-61673344D01*
X116974612Y-61558611D01*
X117156661Y-61418919D01*
X117318919Y-61256661D01*
X117458611Y-61074612D01*
X117573344Y-60875888D01*
X117661158Y-60663887D01*
X117720548Y-60442238D01*
X117750500Y-60214734D01*
X117750500Y-59985266D01*
X117720548Y-59757762D01*
X117661158Y-59536113D01*
X117573344Y-59324112D01*
X117573338Y-59324103D01*
X117573337Y-59324099D01*
X117458613Y-59125391D01*
X117458608Y-59125384D01*
X117318926Y-58943347D01*
X117318907Y-58943326D01*
X117156673Y-58781092D01*
X117156652Y-58781073D01*
X116974615Y-58641391D01*
X116974608Y-58641386D01*
X116775900Y-58526662D01*
X116775892Y-58526658D01*
X116775888Y-58526656D01*
X116563887Y-58438842D01*
X116342238Y-58379452D01*
X116342231Y-58379450D01*
X116114736Y-58349500D01*
X116114734Y-58349500D01*
X115885266Y-58349500D01*
X115885263Y-58349500D01*
X115657768Y-58379450D01*
X115443965Y-58436738D01*
X115436113Y-58438842D01*
X115266371Y-58509152D01*
X115224110Y-58526657D01*
X115224099Y-58526662D01*
X115025391Y-58641386D01*
X115025384Y-58641391D01*
X114843347Y-58781073D01*
X114843326Y-58781092D01*
X114681092Y-58943326D01*
X114681073Y-58943347D01*
X114541391Y-59125384D01*
X114541386Y-59125391D01*
X114468619Y-59251428D01*
X114417236Y-59300421D01*
X114347523Y-59313857D01*
X114281612Y-59287470D01*
X114240430Y-59229638D01*
X114233500Y-59188428D01*
X114233500Y-58751367D01*
X114233499Y-58751350D01*
X114226990Y-58690803D01*
X114226988Y-58690795D01*
X114179170Y-58562593D01*
X114175889Y-58553796D01*
X114175888Y-58553794D01*
X114175887Y-58553792D01*
X114088261Y-58436738D01*
X113971207Y-58349112D01*
X113971202Y-58349110D01*
X113834204Y-58298011D01*
X113834196Y-58298009D01*
X113773649Y-58291500D01*
X113773638Y-58291500D01*
X111076362Y-58291500D01*
X111076350Y-58291500D01*
X111015803Y-58298009D01*
X111015795Y-58298011D01*
X110878797Y-58349110D01*
X110878792Y-58349112D01*
X110761738Y-58436738D01*
X110674112Y-58553792D01*
X110674110Y-58553797D01*
X110623011Y-58690795D01*
X110623009Y-58690803D01*
X110616500Y-58751350D01*
X108994973Y-58751350D01*
X109064756Y-58641389D01*
X109114758Y-58562598D01*
X109243794Y-58288381D01*
X109337445Y-58000154D01*
X109394233Y-57702462D01*
X109394234Y-57702449D01*
X109413262Y-57400006D01*
X109413262Y-57399993D01*
X109394234Y-57097550D01*
X109394232Y-57097533D01*
X109375596Y-56999842D01*
X109337445Y-56799846D01*
X109243794Y-56511619D01*
X109114758Y-56237402D01*
X109085216Y-56190851D01*
X108952375Y-55981526D01*
X108759192Y-55748008D01*
X108759190Y-55748006D01*
X108538270Y-55540549D01*
X108293092Y-55362417D01*
X108188380Y-55304851D01*
X108027517Y-55216415D01*
X107891152Y-55162424D01*
X107745744Y-55104852D01*
X107745737Y-55104850D01*
X107452192Y-55029482D01*
X107151544Y-54991501D01*
X107151532Y-54991500D01*
X107151530Y-54991500D01*
X106848470Y-54991500D01*
X106848467Y-54991500D01*
X106848455Y-54991501D01*
X106547807Y-55029482D01*
X106254262Y-55104850D01*
X106254255Y-55104852D01*
X105972483Y-55216415D01*
X105706907Y-55362417D01*
X105461730Y-55540549D01*
X105461729Y-55540549D01*
X105240809Y-55748006D01*
X105240807Y-55748008D01*
X105047624Y-55981526D01*
X104885247Y-56237392D01*
X104885240Y-56237406D01*
X104756209Y-56511612D01*
X104756207Y-56511616D01*
X104662556Y-56799842D01*
X104662554Y-56799850D01*
X104605767Y-57097533D01*
X104605765Y-57097550D01*
X104586738Y-57399993D01*
X91400679Y-57399993D01*
X91394234Y-57297550D01*
X91394232Y-57297533D01*
X91356083Y-57097550D01*
X91337445Y-56999846D01*
X91243794Y-56711619D01*
X91114758Y-56437402D01*
X91097260Y-56409829D01*
X90952375Y-56181526D01*
X90759192Y-55948008D01*
X90759190Y-55948006D01*
X90538270Y-55740549D01*
X90293092Y-55562417D01*
X90251082Y-55539322D01*
X90027517Y-55416415D01*
X89946414Y-55384304D01*
X89745744Y-55304852D01*
X89745737Y-55304850D01*
X89452192Y-55229482D01*
X89151544Y-55191501D01*
X89151532Y-55191500D01*
X89151530Y-55191500D01*
X88848470Y-55191500D01*
X88848467Y-55191500D01*
X88848455Y-55191501D01*
X88547807Y-55229482D01*
X88254262Y-55304850D01*
X88254255Y-55304852D01*
X87972483Y-55416415D01*
X87706907Y-55562417D01*
X87461730Y-55740549D01*
X87461729Y-55740549D01*
X87240809Y-55948006D01*
X87240807Y-55948008D01*
X87047624Y-56181526D01*
X86885247Y-56437392D01*
X86885240Y-56437406D01*
X86756209Y-56711612D01*
X86756207Y-56711616D01*
X86662556Y-56999842D01*
X86662554Y-56999850D01*
X86605767Y-57297533D01*
X86605765Y-57297550D01*
X86586738Y-57599993D01*
X68541913Y-57599993D01*
X68487581Y-57545661D01*
X68487578Y-57545659D01*
X68487576Y-57545657D01*
X68358579Y-57451934D01*
X68315226Y-57395714D01*
X68309151Y-57324978D01*
X68342282Y-57262186D01*
X68358576Y-57248067D01*
X68487576Y-57154343D01*
X68644343Y-56997576D01*
X68774657Y-56818215D01*
X68875308Y-56620676D01*
X68943818Y-56409824D01*
X68978500Y-56190851D01*
X68978500Y-55969149D01*
X68943818Y-55750176D01*
X68875308Y-55539324D01*
X68774657Y-55341785D01*
X68644343Y-55162424D01*
X68644341Y-55162421D01*
X68487581Y-55005661D01*
X68487578Y-55005659D01*
X68487577Y-55005658D01*
X68487576Y-55005657D01*
X68358579Y-54911934D01*
X68315226Y-54855714D01*
X68309151Y-54784978D01*
X68342282Y-54722186D01*
X68358576Y-54708067D01*
X68487576Y-54614343D01*
X68644343Y-54457576D01*
X68774657Y-54278215D01*
X68875308Y-54080676D01*
X68943818Y-53869824D01*
X68978500Y-53650851D01*
X68978500Y-53429149D01*
X68943818Y-53210176D01*
X68875308Y-52999324D01*
X68774657Y-52801785D01*
X68644343Y-52622424D01*
X68644341Y-52622421D01*
X68487581Y-52465661D01*
X68487578Y-52465659D01*
X68487577Y-52465658D01*
X68487576Y-52465657D01*
X68397208Y-52400000D01*
X73286496Y-52400000D01*
X73306457Y-52589927D01*
X73329484Y-52660794D01*
X73365473Y-52771556D01*
X73365476Y-52771561D01*
X73460958Y-52936941D01*
X73460965Y-52936951D01*
X73588744Y-53078864D01*
X73588747Y-53078866D01*
X73743248Y-53191118D01*
X73917712Y-53268794D01*
X74104513Y-53308500D01*
X74295487Y-53308500D01*
X74400150Y-53286253D01*
X74426347Y-53283500D01*
X74512393Y-53283500D01*
X87640113Y-53283500D01*
X87708234Y-53303502D01*
X87742275Y-53340064D01*
X87743711Y-53338990D01*
X87749110Y-53346202D01*
X87749111Y-53346204D01*
X87767663Y-53370987D01*
X87836738Y-53463261D01*
X87953792Y-53550887D01*
X87953794Y-53550888D01*
X87953796Y-53550889D01*
X88012875Y-53572924D01*
X88090795Y-53601988D01*
X88090803Y-53601990D01*
X88151350Y-53608499D01*
X88151355Y-53608499D01*
X88151362Y-53608500D01*
X88151368Y-53608500D01*
X89448632Y-53608500D01*
X89448638Y-53608500D01*
X89448645Y-53608499D01*
X89448649Y-53608499D01*
X89509196Y-53601990D01*
X89509199Y-53601989D01*
X89509201Y-53601989D01*
X89646204Y-53550889D01*
X89763261Y-53463261D01*
X89850889Y-53346204D01*
X89850890Y-53346202D01*
X89856289Y-53338990D01*
X89858081Y-53340331D01*
X89899507Y-53298909D01*
X89959887Y-53283500D01*
X105640113Y-53283500D01*
X105708234Y-53303502D01*
X105742275Y-53340064D01*
X105743711Y-53338990D01*
X105749110Y-53346202D01*
X105749111Y-53346204D01*
X105767663Y-53370987D01*
X105836738Y-53463261D01*
X105953792Y-53550887D01*
X105953794Y-53550888D01*
X105953796Y-53550889D01*
X106012875Y-53572924D01*
X106090795Y-53601988D01*
X106090803Y-53601990D01*
X106151350Y-53608499D01*
X106151355Y-53608499D01*
X106151362Y-53608500D01*
X106151368Y-53608500D01*
X107448632Y-53608500D01*
X107448638Y-53608500D01*
X107448645Y-53608499D01*
X107448649Y-53608499D01*
X107509196Y-53601990D01*
X107509199Y-53601989D01*
X107509201Y-53601989D01*
X107646204Y-53550889D01*
X107763261Y-53463261D01*
X107850889Y-53346204D01*
X107850890Y-53346202D01*
X107856289Y-53338990D01*
X107858081Y-53340331D01*
X107899507Y-53298909D01*
X107959887Y-53283500D01*
X123040113Y-53283500D01*
X123108234Y-53303502D01*
X123142275Y-53340064D01*
X123143711Y-53338990D01*
X123149110Y-53346202D01*
X123149111Y-53346204D01*
X123167663Y-53370987D01*
X123236738Y-53463261D01*
X123353792Y-53550887D01*
X123353794Y-53550888D01*
X123353796Y-53550889D01*
X123412875Y-53572924D01*
X123490795Y-53601988D01*
X123490803Y-53601990D01*
X123551350Y-53608499D01*
X123551355Y-53608499D01*
X123551362Y-53608500D01*
X123551368Y-53608500D01*
X124848632Y-53608500D01*
X124848638Y-53608500D01*
X124848645Y-53608499D01*
X124848649Y-53608499D01*
X124909196Y-53601990D01*
X124909199Y-53601989D01*
X124909201Y-53601989D01*
X125046204Y-53550889D01*
X125163261Y-53463261D01*
X125250889Y-53346204D01*
X125301989Y-53209201D01*
X125303934Y-53191117D01*
X125308499Y-53148649D01*
X125308500Y-53148632D01*
X125308500Y-52151367D01*
X125308499Y-52151350D01*
X125301990Y-52090803D01*
X125301988Y-52090795D01*
X125266816Y-51996498D01*
X125250889Y-51953796D01*
X125250888Y-51953794D01*
X125250887Y-51953792D01*
X125163261Y-51836738D01*
X125046207Y-51749112D01*
X125046202Y-51749110D01*
X124909204Y-51698011D01*
X124909196Y-51698009D01*
X124848649Y-51691500D01*
X124848638Y-51691500D01*
X123551362Y-51691500D01*
X123551350Y-51691500D01*
X123490803Y-51698009D01*
X123490795Y-51698011D01*
X123353797Y-51749110D01*
X123353792Y-51749112D01*
X123236738Y-51836738D01*
X123161370Y-51937420D01*
X123149334Y-51953499D01*
X123143711Y-51961010D01*
X123141918Y-51959668D01*
X123100493Y-52001091D01*
X123040113Y-52016500D01*
X107959887Y-52016500D01*
X107891766Y-51996498D01*
X107857724Y-51959935D01*
X107856289Y-51961010D01*
X107850666Y-51953499D01*
X107826838Y-51921667D01*
X107763261Y-51836738D01*
X107646207Y-51749112D01*
X107646202Y-51749110D01*
X107509204Y-51698011D01*
X107509196Y-51698009D01*
X107448649Y-51691500D01*
X107448638Y-51691500D01*
X106151362Y-51691500D01*
X106151350Y-51691500D01*
X106090803Y-51698009D01*
X106090795Y-51698011D01*
X105953797Y-51749110D01*
X105953792Y-51749112D01*
X105836738Y-51836738D01*
X105761370Y-51937420D01*
X105749334Y-51953499D01*
X105743711Y-51961010D01*
X105741918Y-51959668D01*
X105700493Y-52001091D01*
X105640113Y-52016500D01*
X89959887Y-52016500D01*
X89891766Y-51996498D01*
X89857724Y-51959935D01*
X89856289Y-51961010D01*
X89850666Y-51953499D01*
X89826838Y-51921667D01*
X89763261Y-51836738D01*
X89646207Y-51749112D01*
X89646202Y-51749110D01*
X89509204Y-51698011D01*
X89509196Y-51698009D01*
X89448649Y-51691500D01*
X89448638Y-51691500D01*
X88151362Y-51691500D01*
X88151350Y-51691500D01*
X88090803Y-51698009D01*
X88090795Y-51698011D01*
X87953797Y-51749110D01*
X87953792Y-51749112D01*
X87836738Y-51836738D01*
X87761370Y-51937420D01*
X87749334Y-51953499D01*
X87743711Y-51961010D01*
X87741918Y-51959668D01*
X87700493Y-52001091D01*
X87640113Y-52016500D01*
X75100377Y-52016500D01*
X75032256Y-51996498D01*
X74991257Y-51953499D01*
X74939039Y-51863054D01*
X74811255Y-51721135D01*
X74656752Y-51608882D01*
X74482288Y-51531206D01*
X74295487Y-51491500D01*
X74104513Y-51491500D01*
X73917711Y-51531206D01*
X73743247Y-51608882D01*
X73588744Y-51721135D01*
X73460965Y-51863048D01*
X73460958Y-51863058D01*
X73365476Y-52028438D01*
X73365473Y-52028444D01*
X73350999Y-52072986D01*
X73306457Y-52210072D01*
X73286496Y-52400000D01*
X68397208Y-52400000D01*
X68358579Y-52371934D01*
X68315226Y-52315714D01*
X68309151Y-52244978D01*
X68342282Y-52182186D01*
X68358576Y-52168067D01*
X68487576Y-52074343D01*
X68644343Y-51917576D01*
X68774657Y-51738215D01*
X68875308Y-51540676D01*
X68943818Y-51329824D01*
X68978500Y-51110851D01*
X68978500Y-50889149D01*
X68943818Y-50670176D01*
X68875308Y-50459324D01*
X68774657Y-50261785D01*
X68644343Y-50082424D01*
X68644341Y-50082421D01*
X68487581Y-49925661D01*
X68487578Y-49925659D01*
X68487577Y-49925658D01*
X68487576Y-49925657D01*
X68358579Y-49831934D01*
X68315226Y-49775714D01*
X68309151Y-49704978D01*
X68342282Y-49642186D01*
X68358576Y-49628067D01*
X68487576Y-49534343D01*
X68644343Y-49377576D01*
X68774657Y-49198215D01*
X68875308Y-49000676D01*
X68903669Y-48913389D01*
X73399500Y-48913389D01*
X73399500Y-49086611D01*
X73426598Y-49257701D01*
X73480127Y-49422445D01*
X73480128Y-49422448D01*
X73480130Y-49422452D01*
X73558768Y-49576788D01*
X73660587Y-49716930D01*
X73783069Y-49839412D01*
X73783072Y-49839414D01*
X73923212Y-49941232D01*
X74077555Y-50019873D01*
X74242299Y-50073402D01*
X74413389Y-50100500D01*
X74413392Y-50100500D01*
X74586608Y-50100500D01*
X74586611Y-50100500D01*
X74757701Y-50073402D01*
X74922445Y-50019873D01*
X75076788Y-49941232D01*
X75216928Y-49839414D01*
X75339414Y-49716928D01*
X75441232Y-49576788D01*
X75519873Y-49422445D01*
X75573402Y-49257701D01*
X75600500Y-49086611D01*
X75600500Y-48913389D01*
X75593969Y-48872154D01*
X78049500Y-48872154D01*
X78049500Y-49127845D01*
X78082872Y-49381332D01*
X78082873Y-49381338D01*
X78082874Y-49381340D01*
X78149050Y-49628313D01*
X78246896Y-49864535D01*
X78246897Y-49864536D01*
X78246902Y-49864546D01*
X78374736Y-50085961D01*
X78374738Y-50085963D01*
X78374739Y-50085965D01*
X78458825Y-50195548D01*
X78530385Y-50288807D01*
X78530404Y-50288828D01*
X78711171Y-50469595D01*
X78711181Y-50469604D01*
X78711187Y-50469610D01*
X78914035Y-50625261D01*
X79135465Y-50753104D01*
X79371687Y-50850950D01*
X79618660Y-50917126D01*
X79618666Y-50917126D01*
X79618667Y-50917127D01*
X79647751Y-50920956D01*
X79872157Y-50950500D01*
X79872164Y-50950500D01*
X80127836Y-50950500D01*
X80127843Y-50950500D01*
X80381340Y-50917126D01*
X80628313Y-50850950D01*
X80864535Y-50753104D01*
X81085965Y-50625261D01*
X81288813Y-50469610D01*
X81469610Y-50288813D01*
X81625261Y-50085965D01*
X81753104Y-49864535D01*
X81850950Y-49628313D01*
X81917126Y-49381340D01*
X81950500Y-49127843D01*
X81950500Y-48913389D01*
X84399500Y-48913389D01*
X84399500Y-49086611D01*
X84426598Y-49257701D01*
X84480127Y-49422445D01*
X84480128Y-49422448D01*
X84480130Y-49422452D01*
X84558768Y-49576788D01*
X84660587Y-49716930D01*
X84783069Y-49839412D01*
X84783072Y-49839414D01*
X84923212Y-49941232D01*
X85077555Y-50019873D01*
X85242299Y-50073402D01*
X85413389Y-50100500D01*
X85413392Y-50100500D01*
X85586608Y-50100500D01*
X85586611Y-50100500D01*
X85757701Y-50073402D01*
X85922445Y-50019873D01*
X86076788Y-49941232D01*
X86216928Y-49839414D01*
X86339414Y-49716928D01*
X86441232Y-49576788D01*
X86519873Y-49422445D01*
X86573402Y-49257701D01*
X86600500Y-49086611D01*
X86600500Y-48913389D01*
X86573402Y-48742299D01*
X86519873Y-48577555D01*
X86441232Y-48423212D01*
X86339414Y-48283072D01*
X86339412Y-48283069D01*
X86216930Y-48160587D01*
X86076788Y-48058768D01*
X85922452Y-47980130D01*
X85922448Y-47980128D01*
X85922445Y-47980127D01*
X85757701Y-47926598D01*
X85586611Y-47899500D01*
X85413389Y-47899500D01*
X85242299Y-47926598D01*
X85242296Y-47926598D01*
X85242295Y-47926599D01*
X85163253Y-47952281D01*
X85077555Y-47980127D01*
X85077553Y-47980127D01*
X85077547Y-47980130D01*
X84923211Y-48058768D01*
X84783069Y-48160587D01*
X84660587Y-48283069D01*
X84558768Y-48423211D01*
X84480130Y-48577547D01*
X84480127Y-48577553D01*
X84480127Y-48577555D01*
X84426598Y-48742299D01*
X84399500Y-48913389D01*
X81950500Y-48913389D01*
X81950500Y-48872157D01*
X81917126Y-48618660D01*
X81850950Y-48371687D01*
X81753104Y-48135465D01*
X81632515Y-47926599D01*
X81625263Y-47914038D01*
X81625261Y-47914035D01*
X81469610Y-47711187D01*
X81469604Y-47711181D01*
X81469595Y-47711171D01*
X81288828Y-47530404D01*
X81288807Y-47530385D01*
X81195548Y-47458825D01*
X81085965Y-47374739D01*
X81085963Y-47374738D01*
X81085961Y-47374736D01*
X80864546Y-47246902D01*
X80864541Y-47246899D01*
X80864535Y-47246896D01*
X80628313Y-47149050D01*
X80381340Y-47082874D01*
X80381338Y-47082873D01*
X80381332Y-47082872D01*
X80127845Y-47049500D01*
X80127843Y-47049500D01*
X79872157Y-47049500D01*
X79872154Y-47049500D01*
X79618667Y-47082872D01*
X79390616Y-47143978D01*
X79371687Y-47149050D01*
X79163210Y-47235404D01*
X79135463Y-47246897D01*
X79135453Y-47246902D01*
X78914038Y-47374736D01*
X78914032Y-47374741D01*
X78711192Y-47530385D01*
X78711171Y-47530404D01*
X78530404Y-47711171D01*
X78530385Y-47711192D01*
X78374741Y-47914032D01*
X78374736Y-47914038D01*
X78246902Y-48135453D01*
X78246897Y-48135463D01*
X78149050Y-48371687D01*
X78082872Y-48618667D01*
X78049500Y-48872154D01*
X75593969Y-48872154D01*
X75573402Y-48742299D01*
X75519873Y-48577555D01*
X75441232Y-48423212D01*
X75339414Y-48283072D01*
X75339412Y-48283069D01*
X75216930Y-48160587D01*
X75076788Y-48058768D01*
X74922452Y-47980130D01*
X74922448Y-47980128D01*
X74922445Y-47980127D01*
X74757701Y-47926598D01*
X74586611Y-47899500D01*
X74413389Y-47899500D01*
X74242299Y-47926598D01*
X74242296Y-47926598D01*
X74242295Y-47926599D01*
X74163253Y-47952281D01*
X74077555Y-47980127D01*
X74077553Y-47980127D01*
X74077547Y-47980130D01*
X73923211Y-48058768D01*
X73783069Y-48160587D01*
X73660587Y-48283069D01*
X73558768Y-48423211D01*
X73480130Y-48577547D01*
X73480127Y-48577553D01*
X73480127Y-48577555D01*
X73426598Y-48742299D01*
X73399500Y-48913389D01*
X68903669Y-48913389D01*
X68943818Y-48789824D01*
X68978500Y-48570851D01*
X68978500Y-48349149D01*
X68943818Y-48130176D01*
X68875308Y-47919324D01*
X68774657Y-47721785D01*
X68644343Y-47542424D01*
X68644341Y-47542421D01*
X68487578Y-47385658D01*
X68358156Y-47291627D01*
X68314802Y-47235404D01*
X68308727Y-47164668D01*
X68341859Y-47101876D01*
X68358156Y-47087755D01*
X68487253Y-46993959D01*
X68487256Y-46993957D01*
X68643960Y-46837253D01*
X68774227Y-46657956D01*
X68874843Y-46460485D01*
X68874844Y-46460483D01*
X68943330Y-46249709D01*
X68955322Y-46174000D01*
X67050703Y-46174000D01*
X67085925Y-46112993D01*
X67120000Y-45985826D01*
X67120000Y-45854174D01*
X67085925Y-45727007D01*
X67050703Y-45666000D01*
X68955321Y-45666000D01*
X68943330Y-45590290D01*
X68874844Y-45379516D01*
X68874843Y-45379514D01*
X68774227Y-45182043D01*
X68703912Y-45085263D01*
X83249500Y-45085263D01*
X83249500Y-45314736D01*
X83279450Y-45542231D01*
X83289873Y-45581130D01*
X83338842Y-45763887D01*
X83426656Y-45975888D01*
X83426657Y-45975889D01*
X83426662Y-45975900D01*
X83541386Y-46174608D01*
X83541391Y-46174615D01*
X83681073Y-46356652D01*
X83681092Y-46356673D01*
X83843326Y-46518907D01*
X83843347Y-46518926D01*
X84025384Y-46658608D01*
X84025391Y-46658613D01*
X84224099Y-46773337D01*
X84224103Y-46773338D01*
X84224112Y-46773344D01*
X84436113Y-46861158D01*
X84657762Y-46920548D01*
X84657766Y-46920548D01*
X84657768Y-46920549D01*
X84710263Y-46927460D01*
X84885266Y-46950500D01*
X84885273Y-46950500D01*
X85114727Y-46950500D01*
X85114734Y-46950500D01*
X85320345Y-46923430D01*
X85342231Y-46920549D01*
X85342231Y-46920548D01*
X85342238Y-46920548D01*
X85563887Y-46861158D01*
X85775888Y-46773344D01*
X85974612Y-46658611D01*
X86156661Y-46518919D01*
X86318919Y-46356661D01*
X86458611Y-46174612D01*
X86531381Y-46048571D01*
X86582763Y-45999578D01*
X86652477Y-45986142D01*
X86718388Y-46012528D01*
X86759570Y-46070360D01*
X86766500Y-46111571D01*
X86766500Y-46548649D01*
X86773009Y-46609196D01*
X86773011Y-46609204D01*
X86824110Y-46746202D01*
X86824112Y-46746207D01*
X86911738Y-46863261D01*
X87028792Y-46950887D01*
X87028794Y-46950888D01*
X87028796Y-46950889D01*
X87087875Y-46972924D01*
X87165795Y-47001988D01*
X87165803Y-47001990D01*
X87226350Y-47008499D01*
X87226355Y-47008499D01*
X87226362Y-47008500D01*
X87815500Y-47008500D01*
X87883621Y-47028502D01*
X87930114Y-47082158D01*
X87941500Y-47134500D01*
X87941500Y-48395244D01*
X87921498Y-48463365D01*
X87891010Y-48496111D01*
X87836738Y-48536738D01*
X87749112Y-48653792D01*
X87749110Y-48653797D01*
X87698011Y-48790795D01*
X87698009Y-48790803D01*
X87691500Y-48851350D01*
X87691500Y-49848649D01*
X87698009Y-49909196D01*
X87698011Y-49909204D01*
X87749110Y-50046202D01*
X87749112Y-50046207D01*
X87836738Y-50163261D01*
X87953792Y-50250887D01*
X87953794Y-50250888D01*
X87953796Y-50250889D01*
X88012875Y-50272924D01*
X88090795Y-50301988D01*
X88090803Y-50301990D01*
X88151350Y-50308499D01*
X88151355Y-50308499D01*
X88151362Y-50308500D01*
X88151368Y-50308500D01*
X89448632Y-50308500D01*
X89448638Y-50308500D01*
X89448645Y-50308499D01*
X89448649Y-50308499D01*
X89509196Y-50301990D01*
X89509199Y-50301989D01*
X89509201Y-50301989D01*
X89646204Y-50250889D01*
X89763261Y-50163261D01*
X89850887Y-50046207D01*
X89850887Y-50046206D01*
X89850889Y-50046204D01*
X89901989Y-49909201D01*
X89908500Y-49848638D01*
X89908500Y-48913389D01*
X91399500Y-48913389D01*
X91399500Y-49086611D01*
X91426598Y-49257701D01*
X91480127Y-49422445D01*
X91480128Y-49422448D01*
X91480130Y-49422452D01*
X91558768Y-49576788D01*
X91660587Y-49716930D01*
X91783069Y-49839412D01*
X91783072Y-49839414D01*
X91923212Y-49941232D01*
X92077555Y-50019873D01*
X92242299Y-50073402D01*
X92413389Y-50100500D01*
X92413392Y-50100500D01*
X92586608Y-50100500D01*
X92586611Y-50100500D01*
X92757701Y-50073402D01*
X92922445Y-50019873D01*
X93076788Y-49941232D01*
X93216928Y-49839414D01*
X93339414Y-49716928D01*
X93441232Y-49576788D01*
X93519873Y-49422445D01*
X93573402Y-49257701D01*
X93600500Y-49086611D01*
X93600500Y-48913389D01*
X93593969Y-48872154D01*
X96049500Y-48872154D01*
X96049500Y-49127845D01*
X96082872Y-49381332D01*
X96082873Y-49381338D01*
X96082874Y-49381340D01*
X96149050Y-49628313D01*
X96246896Y-49864535D01*
X96246897Y-49864536D01*
X96246902Y-49864546D01*
X96374736Y-50085961D01*
X96374738Y-50085963D01*
X96374739Y-50085965D01*
X96458825Y-50195548D01*
X96530385Y-50288807D01*
X96530404Y-50288828D01*
X96711171Y-50469595D01*
X96711181Y-50469604D01*
X96711187Y-50469610D01*
X96914035Y-50625261D01*
X97135465Y-50753104D01*
X97371687Y-50850950D01*
X97618660Y-50917126D01*
X97618666Y-50917126D01*
X97618667Y-50917127D01*
X97647751Y-50920956D01*
X97872157Y-50950500D01*
X97872164Y-50950500D01*
X98127836Y-50950500D01*
X98127843Y-50950500D01*
X98381340Y-50917126D01*
X98628313Y-50850950D01*
X98864535Y-50753104D01*
X99085965Y-50625261D01*
X99288813Y-50469610D01*
X99469610Y-50288813D01*
X99625261Y-50085965D01*
X99753104Y-49864535D01*
X99850950Y-49628313D01*
X99917126Y-49381340D01*
X99950500Y-49127843D01*
X99950500Y-48913389D01*
X102399500Y-48913389D01*
X102399500Y-49086611D01*
X102426598Y-49257701D01*
X102480127Y-49422445D01*
X102480128Y-49422448D01*
X102480130Y-49422452D01*
X102558768Y-49576788D01*
X102660587Y-49716930D01*
X102783069Y-49839412D01*
X102783072Y-49839414D01*
X102923212Y-49941232D01*
X103077555Y-50019873D01*
X103242299Y-50073402D01*
X103413389Y-50100500D01*
X103413392Y-50100500D01*
X103586608Y-50100500D01*
X103586611Y-50100500D01*
X103757701Y-50073402D01*
X103922445Y-50019873D01*
X104076788Y-49941232D01*
X104216928Y-49839414D01*
X104339414Y-49716928D01*
X104441232Y-49576788D01*
X104519873Y-49422445D01*
X104573402Y-49257701D01*
X104600500Y-49086611D01*
X104600500Y-48913389D01*
X104573402Y-48742299D01*
X104519873Y-48577555D01*
X104441232Y-48423212D01*
X104339414Y-48283072D01*
X104339412Y-48283069D01*
X104216930Y-48160587D01*
X104076788Y-48058768D01*
X103922452Y-47980130D01*
X103922448Y-47980128D01*
X103922445Y-47980127D01*
X103757701Y-47926598D01*
X103586611Y-47899500D01*
X103413389Y-47899500D01*
X103242299Y-47926598D01*
X103242296Y-47926598D01*
X103242295Y-47926599D01*
X103163253Y-47952281D01*
X103077555Y-47980127D01*
X103077553Y-47980127D01*
X103077547Y-47980130D01*
X102923211Y-48058768D01*
X102783069Y-48160587D01*
X102660587Y-48283069D01*
X102558768Y-48423211D01*
X102480130Y-48577547D01*
X102480127Y-48577553D01*
X102480127Y-48577555D01*
X102426598Y-48742299D01*
X102399500Y-48913389D01*
X99950500Y-48913389D01*
X99950500Y-48872157D01*
X99917126Y-48618660D01*
X99850950Y-48371687D01*
X99753104Y-48135465D01*
X99632515Y-47926599D01*
X99625263Y-47914038D01*
X99625261Y-47914035D01*
X99469610Y-47711187D01*
X99469604Y-47711181D01*
X99469595Y-47711171D01*
X99288828Y-47530404D01*
X99288807Y-47530385D01*
X99195548Y-47458825D01*
X99085965Y-47374739D01*
X99085963Y-47374738D01*
X99085961Y-47374736D01*
X98864546Y-47246902D01*
X98864541Y-47246899D01*
X98864535Y-47246896D01*
X98628313Y-47149050D01*
X98381340Y-47082874D01*
X98381338Y-47082873D01*
X98381332Y-47082872D01*
X98127845Y-47049500D01*
X98127843Y-47049500D01*
X97872157Y-47049500D01*
X97872154Y-47049500D01*
X97618667Y-47082872D01*
X97390616Y-47143978D01*
X97371687Y-47149050D01*
X97163210Y-47235404D01*
X97135463Y-47246897D01*
X97135453Y-47246902D01*
X96914038Y-47374736D01*
X96914032Y-47374741D01*
X96711192Y-47530385D01*
X96711171Y-47530404D01*
X96530404Y-47711171D01*
X96530385Y-47711192D01*
X96374741Y-47914032D01*
X96374736Y-47914038D01*
X96246902Y-48135453D01*
X96246897Y-48135463D01*
X96149050Y-48371687D01*
X96082872Y-48618667D01*
X96049500Y-48872154D01*
X93593969Y-48872154D01*
X93573402Y-48742299D01*
X93519873Y-48577555D01*
X93441232Y-48423212D01*
X93339414Y-48283072D01*
X93339412Y-48283069D01*
X93216930Y-48160587D01*
X93076788Y-48058768D01*
X92922452Y-47980130D01*
X92922448Y-47980128D01*
X92922445Y-47980127D01*
X92757701Y-47926598D01*
X92586611Y-47899500D01*
X92413389Y-47899500D01*
X92242299Y-47926598D01*
X92242296Y-47926598D01*
X92242295Y-47926599D01*
X92163253Y-47952281D01*
X92077555Y-47980127D01*
X92077553Y-47980127D01*
X92077547Y-47980130D01*
X91923211Y-48058768D01*
X91783069Y-48160587D01*
X91660587Y-48283069D01*
X91558768Y-48423211D01*
X91480130Y-48577547D01*
X91480127Y-48577553D01*
X91480127Y-48577555D01*
X91426598Y-48742299D01*
X91399500Y-48913389D01*
X89908500Y-48913389D01*
X89908500Y-48851362D01*
X89908499Y-48851350D01*
X89901990Y-48790803D01*
X89901988Y-48790795D01*
X89850889Y-48653797D01*
X89850887Y-48653792D01*
X89763261Y-48536738D01*
X89646207Y-48449112D01*
X89646202Y-48449110D01*
X89509204Y-48398011D01*
X89509196Y-48398009D01*
X89448649Y-48391500D01*
X89448638Y-48391500D01*
X89334500Y-48391500D01*
X89266379Y-48371498D01*
X89219886Y-48317842D01*
X89208500Y-48265500D01*
X89208500Y-47134500D01*
X89228502Y-47066379D01*
X89282158Y-47019886D01*
X89334500Y-47008500D01*
X89923632Y-47008500D01*
X89923638Y-47008500D01*
X89923645Y-47008499D01*
X89923649Y-47008499D01*
X89984196Y-47001990D01*
X89984199Y-47001989D01*
X89984201Y-47001989D01*
X90121204Y-46950889D01*
X90152502Y-46927460D01*
X90238261Y-46863261D01*
X90325887Y-46746207D01*
X90325887Y-46746206D01*
X90325889Y-46746204D01*
X90376989Y-46609201D01*
X90377567Y-46603833D01*
X90383499Y-46548649D01*
X90383500Y-46548632D01*
X90383500Y-45085263D01*
X101249500Y-45085263D01*
X101249500Y-45314736D01*
X101279450Y-45542231D01*
X101289873Y-45581130D01*
X101338842Y-45763887D01*
X101426656Y-45975888D01*
X101426657Y-45975889D01*
X101426662Y-45975900D01*
X101541386Y-46174608D01*
X101541391Y-46174615D01*
X101681073Y-46356652D01*
X101681092Y-46356673D01*
X101843326Y-46518907D01*
X101843347Y-46518926D01*
X102025384Y-46658608D01*
X102025391Y-46658613D01*
X102224099Y-46773337D01*
X102224103Y-46773338D01*
X102224112Y-46773344D01*
X102436113Y-46861158D01*
X102657762Y-46920548D01*
X102657766Y-46920548D01*
X102657768Y-46920549D01*
X102710263Y-46927460D01*
X102885266Y-46950500D01*
X102885273Y-46950500D01*
X103114727Y-46950500D01*
X103114734Y-46950500D01*
X103320345Y-46923430D01*
X103342231Y-46920549D01*
X103342231Y-46920548D01*
X103342238Y-46920548D01*
X103563887Y-46861158D01*
X103775888Y-46773344D01*
X103974612Y-46658611D01*
X104156661Y-46518919D01*
X104318919Y-46356661D01*
X104458611Y-46174612D01*
X104531381Y-46048571D01*
X104582763Y-45999578D01*
X104652477Y-45986142D01*
X104718388Y-46012528D01*
X104759570Y-46070360D01*
X104766500Y-46111571D01*
X104766500Y-46548649D01*
X104773009Y-46609196D01*
X104773011Y-46609204D01*
X104824110Y-46746202D01*
X104824112Y-46746207D01*
X104911738Y-46863261D01*
X105028792Y-46950887D01*
X105028794Y-46950888D01*
X105028796Y-46950889D01*
X105087875Y-46972924D01*
X105165795Y-47001988D01*
X105165803Y-47001990D01*
X105226350Y-47008499D01*
X105226355Y-47008499D01*
X105226362Y-47008500D01*
X105815500Y-47008500D01*
X105883621Y-47028502D01*
X105930114Y-47082158D01*
X105941500Y-47134500D01*
X105941500Y-48395244D01*
X105921498Y-48463365D01*
X105891010Y-48496111D01*
X105836738Y-48536738D01*
X105749112Y-48653792D01*
X105749110Y-48653797D01*
X105698011Y-48790795D01*
X105698009Y-48790803D01*
X105691500Y-48851350D01*
X105691500Y-49848649D01*
X105698009Y-49909196D01*
X105698011Y-49909204D01*
X105749110Y-50046202D01*
X105749112Y-50046207D01*
X105836738Y-50163261D01*
X105953792Y-50250887D01*
X105953794Y-50250888D01*
X105953796Y-50250889D01*
X106012875Y-50272924D01*
X106090795Y-50301988D01*
X106090803Y-50301990D01*
X106151350Y-50308499D01*
X106151355Y-50308499D01*
X106151362Y-50308500D01*
X106151368Y-50308500D01*
X107448632Y-50308500D01*
X107448638Y-50308500D01*
X107448645Y-50308499D01*
X107448649Y-50308499D01*
X107509196Y-50301990D01*
X107509199Y-50301989D01*
X107509201Y-50301989D01*
X107646204Y-50250889D01*
X107763261Y-50163261D01*
X107850887Y-50046207D01*
X107850887Y-50046206D01*
X107850889Y-50046204D01*
X107901989Y-49909201D01*
X107908500Y-49848638D01*
X107908500Y-48913389D01*
X109399500Y-48913389D01*
X109399500Y-49086611D01*
X109426598Y-49257701D01*
X109480127Y-49422445D01*
X109480128Y-49422448D01*
X109480130Y-49422452D01*
X109558768Y-49576788D01*
X109660587Y-49716930D01*
X109783069Y-49839412D01*
X109783072Y-49839414D01*
X109923212Y-49941232D01*
X110077555Y-50019873D01*
X110242299Y-50073402D01*
X110413389Y-50100500D01*
X110413392Y-50100500D01*
X110586608Y-50100500D01*
X110586611Y-50100500D01*
X110757701Y-50073402D01*
X110922445Y-50019873D01*
X111076788Y-49941232D01*
X111216928Y-49839414D01*
X111339414Y-49716928D01*
X111441232Y-49576788D01*
X111519873Y-49422445D01*
X111573402Y-49257701D01*
X111600500Y-49086611D01*
X111600500Y-48913389D01*
X111593969Y-48872154D01*
X114049500Y-48872154D01*
X114049500Y-49127845D01*
X114082872Y-49381332D01*
X114082873Y-49381338D01*
X114082874Y-49381340D01*
X114149050Y-49628313D01*
X114246896Y-49864535D01*
X114246897Y-49864536D01*
X114246902Y-49864546D01*
X114374736Y-50085961D01*
X114374738Y-50085963D01*
X114374739Y-50085965D01*
X114458825Y-50195548D01*
X114530385Y-50288807D01*
X114530404Y-50288828D01*
X114711171Y-50469595D01*
X114711181Y-50469604D01*
X114711187Y-50469610D01*
X114914035Y-50625261D01*
X115135465Y-50753104D01*
X115371687Y-50850950D01*
X115618660Y-50917126D01*
X115618666Y-50917126D01*
X115618667Y-50917127D01*
X115647751Y-50920956D01*
X115872157Y-50950500D01*
X115872164Y-50950500D01*
X116127836Y-50950500D01*
X116127843Y-50950500D01*
X116381340Y-50917126D01*
X116628313Y-50850950D01*
X116864535Y-50753104D01*
X117085965Y-50625261D01*
X117288813Y-50469610D01*
X117469610Y-50288813D01*
X117625261Y-50085965D01*
X117753104Y-49864535D01*
X117850950Y-49628313D01*
X117917126Y-49381340D01*
X117950500Y-49127843D01*
X117950500Y-48913389D01*
X120399500Y-48913389D01*
X120399500Y-49086611D01*
X120426598Y-49257701D01*
X120480127Y-49422445D01*
X120480128Y-49422448D01*
X120480130Y-49422452D01*
X120558768Y-49576788D01*
X120660587Y-49716930D01*
X120783069Y-49839412D01*
X120783072Y-49839414D01*
X120923212Y-49941232D01*
X121077555Y-50019873D01*
X121242299Y-50073402D01*
X121413389Y-50100500D01*
X121413392Y-50100500D01*
X121586608Y-50100500D01*
X121586611Y-50100500D01*
X121757701Y-50073402D01*
X121922445Y-50019873D01*
X122076788Y-49941232D01*
X122216928Y-49839414D01*
X122339414Y-49716928D01*
X122441232Y-49576788D01*
X122519873Y-49422445D01*
X122573402Y-49257701D01*
X122600500Y-49086611D01*
X122600500Y-48913389D01*
X122573402Y-48742299D01*
X122519873Y-48577555D01*
X122441232Y-48423212D01*
X122339414Y-48283072D01*
X122339412Y-48283069D01*
X122216930Y-48160587D01*
X122076788Y-48058768D01*
X121922452Y-47980130D01*
X121922448Y-47980128D01*
X121922445Y-47980127D01*
X121757701Y-47926598D01*
X121586611Y-47899500D01*
X121413389Y-47899500D01*
X121242299Y-47926598D01*
X121242296Y-47926598D01*
X121242295Y-47926599D01*
X121163253Y-47952281D01*
X121077555Y-47980127D01*
X121077553Y-47980127D01*
X121077547Y-47980130D01*
X120923211Y-48058768D01*
X120783069Y-48160587D01*
X120660587Y-48283069D01*
X120558768Y-48423211D01*
X120480130Y-48577547D01*
X120480127Y-48577553D01*
X120480127Y-48577555D01*
X120426598Y-48742299D01*
X120399500Y-48913389D01*
X117950500Y-48913389D01*
X117950500Y-48872157D01*
X117917126Y-48618660D01*
X117850950Y-48371687D01*
X117753104Y-48135465D01*
X117632515Y-47926599D01*
X117625263Y-47914038D01*
X117625261Y-47914035D01*
X117469610Y-47711187D01*
X117469604Y-47711181D01*
X117469595Y-47711171D01*
X117288828Y-47530404D01*
X117288807Y-47530385D01*
X117195548Y-47458825D01*
X117085965Y-47374739D01*
X117085963Y-47374738D01*
X117085961Y-47374736D01*
X116864546Y-47246902D01*
X116864541Y-47246899D01*
X116864535Y-47246896D01*
X116628313Y-47149050D01*
X116381340Y-47082874D01*
X116381338Y-47082873D01*
X116381332Y-47082872D01*
X116127845Y-47049500D01*
X116127843Y-47049500D01*
X115872157Y-47049500D01*
X115872154Y-47049500D01*
X115618667Y-47082872D01*
X115390616Y-47143978D01*
X115371687Y-47149050D01*
X115163210Y-47235404D01*
X115135463Y-47246897D01*
X115135453Y-47246902D01*
X114914038Y-47374736D01*
X114914032Y-47374741D01*
X114711192Y-47530385D01*
X114711171Y-47530404D01*
X114530404Y-47711171D01*
X114530385Y-47711192D01*
X114374741Y-47914032D01*
X114374736Y-47914038D01*
X114246902Y-48135453D01*
X114246897Y-48135463D01*
X114149050Y-48371687D01*
X114082872Y-48618667D01*
X114049500Y-48872154D01*
X111593969Y-48872154D01*
X111573402Y-48742299D01*
X111519873Y-48577555D01*
X111441232Y-48423212D01*
X111339414Y-48283072D01*
X111339412Y-48283069D01*
X111216930Y-48160587D01*
X111076788Y-48058768D01*
X110922452Y-47980130D01*
X110922448Y-47980128D01*
X110922445Y-47980127D01*
X110757701Y-47926598D01*
X110586611Y-47899500D01*
X110413389Y-47899500D01*
X110242299Y-47926598D01*
X110242296Y-47926598D01*
X110242295Y-47926599D01*
X110163253Y-47952281D01*
X110077555Y-47980127D01*
X110077553Y-47980127D01*
X110077547Y-47980130D01*
X109923211Y-48058768D01*
X109783069Y-48160587D01*
X109660587Y-48283069D01*
X109558768Y-48423211D01*
X109480130Y-48577547D01*
X109480127Y-48577553D01*
X109480127Y-48577555D01*
X109426598Y-48742299D01*
X109399500Y-48913389D01*
X107908500Y-48913389D01*
X107908500Y-48851362D01*
X107908499Y-48851350D01*
X107901990Y-48790803D01*
X107901988Y-48790795D01*
X107850889Y-48653797D01*
X107850887Y-48653792D01*
X107763261Y-48536738D01*
X107646207Y-48449112D01*
X107646202Y-48449110D01*
X107509204Y-48398011D01*
X107509196Y-48398009D01*
X107448649Y-48391500D01*
X107448638Y-48391500D01*
X107334500Y-48391500D01*
X107266379Y-48371498D01*
X107219886Y-48317842D01*
X107208500Y-48265500D01*
X107208500Y-47134500D01*
X107228502Y-47066379D01*
X107282158Y-47019886D01*
X107334500Y-47008500D01*
X107923632Y-47008500D01*
X107923638Y-47008500D01*
X107923645Y-47008499D01*
X107923649Y-47008499D01*
X107984196Y-47001990D01*
X107984199Y-47001989D01*
X107984201Y-47001989D01*
X108121204Y-46950889D01*
X108152502Y-46927460D01*
X108238261Y-46863261D01*
X108325887Y-46746207D01*
X108325887Y-46746206D01*
X108325889Y-46746204D01*
X108376989Y-46609201D01*
X108377567Y-46603833D01*
X108383499Y-46548649D01*
X108383500Y-46548632D01*
X108383500Y-43851367D01*
X108383499Y-43851350D01*
X108376990Y-43790803D01*
X108376988Y-43790795D01*
X108334583Y-43677105D01*
X108325889Y-43653796D01*
X108325888Y-43653794D01*
X108325887Y-43653792D01*
X108238261Y-43536738D01*
X108121207Y-43449112D01*
X108121202Y-43449110D01*
X107984204Y-43398011D01*
X107984196Y-43398009D01*
X107923649Y-43391500D01*
X107923638Y-43391500D01*
X105226362Y-43391500D01*
X105226350Y-43391500D01*
X105165803Y-43398009D01*
X105165795Y-43398011D01*
X105028797Y-43449110D01*
X105028792Y-43449112D01*
X104911738Y-43536738D01*
X104824112Y-43653792D01*
X104824110Y-43653797D01*
X104773011Y-43790795D01*
X104773009Y-43790803D01*
X104766500Y-43851350D01*
X104766500Y-44288428D01*
X104746498Y-44356549D01*
X104692842Y-44403042D01*
X104622568Y-44413146D01*
X104557988Y-44383652D01*
X104531381Y-44351428D01*
X104458613Y-44225391D01*
X104458608Y-44225384D01*
X104318926Y-44043347D01*
X104318907Y-44043326D01*
X104156673Y-43881092D01*
X104156652Y-43881073D01*
X103974615Y-43741391D01*
X103974608Y-43741386D01*
X103775900Y-43626662D01*
X103775892Y-43626658D01*
X103775888Y-43626656D01*
X103563887Y-43538842D01*
X103342238Y-43479452D01*
X103342231Y-43479450D01*
X103114736Y-43449500D01*
X103114734Y-43449500D01*
X102885266Y-43449500D01*
X102885263Y-43449500D01*
X102657768Y-43479450D01*
X102443969Y-43536737D01*
X102436113Y-43538842D01*
X102235940Y-43621757D01*
X102224110Y-43626657D01*
X102224099Y-43626662D01*
X102025391Y-43741386D01*
X102025384Y-43741391D01*
X101843347Y-43881073D01*
X101843326Y-43881092D01*
X101681092Y-44043326D01*
X101681073Y-44043347D01*
X101541391Y-44225384D01*
X101541386Y-44225391D01*
X101426662Y-44424099D01*
X101426657Y-44424110D01*
X101426656Y-44424112D01*
X101370944Y-44558613D01*
X101338842Y-44636113D01*
X101279450Y-44857768D01*
X101249500Y-45085263D01*
X90383500Y-45085263D01*
X90383500Y-43851367D01*
X90383499Y-43851350D01*
X90376990Y-43790803D01*
X90376988Y-43790795D01*
X90334583Y-43677105D01*
X90325889Y-43653796D01*
X90325888Y-43653794D01*
X90325887Y-43653792D01*
X90238261Y-43536738D01*
X90121207Y-43449112D01*
X90121202Y-43449110D01*
X89984204Y-43398011D01*
X89984196Y-43398009D01*
X89923649Y-43391500D01*
X89923638Y-43391500D01*
X87226362Y-43391500D01*
X87226350Y-43391500D01*
X87165803Y-43398009D01*
X87165795Y-43398011D01*
X87028797Y-43449110D01*
X87028792Y-43449112D01*
X86911738Y-43536738D01*
X86824112Y-43653792D01*
X86824110Y-43653797D01*
X86773011Y-43790795D01*
X86773009Y-43790803D01*
X86766500Y-43851350D01*
X86766500Y-44288428D01*
X86746498Y-44356549D01*
X86692842Y-44403042D01*
X86622568Y-44413146D01*
X86557988Y-44383652D01*
X86531381Y-44351428D01*
X86458613Y-44225391D01*
X86458608Y-44225384D01*
X86318926Y-44043347D01*
X86318907Y-44043326D01*
X86156673Y-43881092D01*
X86156652Y-43881073D01*
X85974615Y-43741391D01*
X85974608Y-43741386D01*
X85775900Y-43626662D01*
X85775892Y-43626658D01*
X85775888Y-43626656D01*
X85563887Y-43538842D01*
X85342238Y-43479452D01*
X85342231Y-43479450D01*
X85114736Y-43449500D01*
X85114734Y-43449500D01*
X84885266Y-43449500D01*
X84885263Y-43449500D01*
X84657768Y-43479450D01*
X84443969Y-43536737D01*
X84436113Y-43538842D01*
X84235940Y-43621757D01*
X84224110Y-43626657D01*
X84224099Y-43626662D01*
X84025391Y-43741386D01*
X84025384Y-43741391D01*
X83843347Y-43881073D01*
X83843326Y-43881092D01*
X83681092Y-44043326D01*
X83681073Y-44043347D01*
X83541391Y-44225384D01*
X83541386Y-44225391D01*
X83426662Y-44424099D01*
X83426657Y-44424110D01*
X83426656Y-44424112D01*
X83370944Y-44558613D01*
X83338842Y-44636113D01*
X83279450Y-44857768D01*
X83249500Y-45085263D01*
X68703912Y-45085263D01*
X68643960Y-45002746D01*
X68487257Y-44846043D01*
X68358155Y-44752244D01*
X68314802Y-44696021D01*
X68308727Y-44625285D01*
X68341859Y-44562493D01*
X68358151Y-44548375D01*
X68487576Y-44454343D01*
X68644343Y-44297576D01*
X68774657Y-44118215D01*
X68875308Y-43920676D01*
X68943818Y-43709824D01*
X68978500Y-43490851D01*
X68978500Y-43269149D01*
X68943818Y-43050176D01*
X68875308Y-42839324D01*
X68774657Y-42641785D01*
X68729946Y-42580246D01*
X68644341Y-42462421D01*
X68630515Y-42448595D01*
X68596489Y-42386283D01*
X68601554Y-42315468D01*
X68644101Y-42258632D01*
X68710621Y-42233821D01*
X68719610Y-42233500D01*
X73685406Y-42233500D01*
X73753527Y-42253502D01*
X73774501Y-42270405D01*
X74151647Y-42647551D01*
X74255405Y-42716880D01*
X74370695Y-42764635D01*
X74493086Y-42788980D01*
X74493093Y-42788980D01*
X74499242Y-42789586D01*
X74499054Y-42791491D01*
X74558621Y-42808982D01*
X74605114Y-42862638D01*
X74616500Y-42914980D01*
X74616500Y-44448649D01*
X74623009Y-44509196D01*
X74623011Y-44509204D01*
X74674110Y-44646202D01*
X74674112Y-44646207D01*
X74761738Y-44763261D01*
X74878792Y-44850887D01*
X74878794Y-44850888D01*
X74878796Y-44850889D01*
X74937875Y-44872924D01*
X75015795Y-44901988D01*
X75015803Y-44901990D01*
X75076350Y-44908499D01*
X75076355Y-44908499D01*
X75076362Y-44908500D01*
X75076368Y-44908500D01*
X77773632Y-44908500D01*
X77773638Y-44908500D01*
X77773645Y-44908499D01*
X77773649Y-44908499D01*
X77834196Y-44901990D01*
X77834199Y-44901989D01*
X77834201Y-44901989D01*
X77971204Y-44850889D01*
X77977678Y-44846043D01*
X78088261Y-44763261D01*
X78175887Y-44646207D01*
X78175887Y-44646206D01*
X78175889Y-44646204D01*
X78226989Y-44509201D01*
X78233500Y-44448638D01*
X78233500Y-44011571D01*
X78253502Y-43943450D01*
X78307158Y-43896957D01*
X78377432Y-43886853D01*
X78442012Y-43916347D01*
X78468619Y-43948571D01*
X78541386Y-44074608D01*
X78541391Y-44074615D01*
X78681073Y-44256652D01*
X78681092Y-44256673D01*
X78843326Y-44418907D01*
X78843347Y-44418926D01*
X79025384Y-44558608D01*
X79025391Y-44558613D01*
X79224099Y-44673337D01*
X79224103Y-44673338D01*
X79224112Y-44673344D01*
X79436113Y-44761158D01*
X79657762Y-44820548D01*
X79657766Y-44820548D01*
X79657768Y-44820549D01*
X79716398Y-44828267D01*
X79885266Y-44850500D01*
X79885273Y-44850500D01*
X80114727Y-44850500D01*
X80114734Y-44850500D01*
X80320345Y-44823430D01*
X80342231Y-44820549D01*
X80342231Y-44820548D01*
X80342238Y-44820548D01*
X80563887Y-44761158D01*
X80775888Y-44673344D01*
X80974612Y-44558611D01*
X81156661Y-44418919D01*
X81318919Y-44256661D01*
X81458611Y-44074612D01*
X81573344Y-43875888D01*
X81661158Y-43663887D01*
X81720548Y-43442238D01*
X81750500Y-43214734D01*
X81750500Y-42985266D01*
X81720548Y-42757762D01*
X81661158Y-42536113D01*
X81573344Y-42324112D01*
X81573338Y-42324103D01*
X81573337Y-42324099D01*
X81458613Y-42125391D01*
X81458609Y-42125385D01*
X81352179Y-41986684D01*
X81326578Y-41920464D01*
X81340842Y-41850915D01*
X81390443Y-41800119D01*
X81452141Y-41783980D01*
X92160886Y-41783980D01*
X92229007Y-41803982D01*
X92249981Y-41820885D01*
X92579595Y-42150499D01*
X92613621Y-42212811D01*
X92616500Y-42239594D01*
X92616500Y-44448649D01*
X92623009Y-44509196D01*
X92623011Y-44509204D01*
X92674110Y-44646202D01*
X92674112Y-44646207D01*
X92761738Y-44763261D01*
X92878792Y-44850887D01*
X92878794Y-44850888D01*
X92878796Y-44850889D01*
X92937875Y-44872924D01*
X93015795Y-44901988D01*
X93015803Y-44901990D01*
X93076350Y-44908499D01*
X93076355Y-44908499D01*
X93076362Y-44908500D01*
X93076368Y-44908500D01*
X95773632Y-44908500D01*
X95773638Y-44908500D01*
X95773645Y-44908499D01*
X95773649Y-44908499D01*
X95834196Y-44901990D01*
X95834199Y-44901989D01*
X95834201Y-44901989D01*
X95971204Y-44850889D01*
X95977678Y-44846043D01*
X96088261Y-44763261D01*
X96175887Y-44646207D01*
X96175887Y-44646206D01*
X96175889Y-44646204D01*
X96226989Y-44509201D01*
X96233500Y-44448638D01*
X96233500Y-44011571D01*
X96253502Y-43943450D01*
X96307158Y-43896957D01*
X96377432Y-43886853D01*
X96442012Y-43916347D01*
X96468619Y-43948571D01*
X96541386Y-44074608D01*
X96541391Y-44074615D01*
X96681073Y-44256652D01*
X96681092Y-44256673D01*
X96843326Y-44418907D01*
X96843347Y-44418926D01*
X97025384Y-44558608D01*
X97025391Y-44558613D01*
X97224099Y-44673337D01*
X97224103Y-44673338D01*
X97224112Y-44673344D01*
X97436113Y-44761158D01*
X97657762Y-44820548D01*
X97657766Y-44820548D01*
X97657768Y-44820549D01*
X97716398Y-44828267D01*
X97885266Y-44850500D01*
X97885273Y-44850500D01*
X98114727Y-44850500D01*
X98114734Y-44850500D01*
X98320345Y-44823430D01*
X98342231Y-44820549D01*
X98342231Y-44820548D01*
X98342238Y-44820548D01*
X98563887Y-44761158D01*
X98775888Y-44673344D01*
X98974612Y-44558611D01*
X99156661Y-44418919D01*
X99318919Y-44256661D01*
X99458611Y-44074612D01*
X99573344Y-43875888D01*
X99661158Y-43663887D01*
X99720548Y-43442238D01*
X99750500Y-43214734D01*
X99750500Y-42985266D01*
X99720548Y-42757762D01*
X99661158Y-42536113D01*
X99573344Y-42324112D01*
X99573338Y-42324103D01*
X99573337Y-42324099D01*
X99458613Y-42125391D01*
X99458608Y-42125384D01*
X99318926Y-41943347D01*
X99318907Y-41943326D01*
X99156673Y-41781092D01*
X99156652Y-41781073D01*
X98974615Y-41641391D01*
X98974608Y-41641386D01*
X98850234Y-41569579D01*
X98801241Y-41518197D01*
X98787805Y-41448483D01*
X98814191Y-41382572D01*
X98872023Y-41341390D01*
X98913234Y-41334460D01*
X109711366Y-41334460D01*
X109779487Y-41354462D01*
X109800461Y-41371365D01*
X110579595Y-42150499D01*
X110613621Y-42212811D01*
X110616500Y-42239594D01*
X110616500Y-44448649D01*
X110623009Y-44509196D01*
X110623011Y-44509204D01*
X110674110Y-44646202D01*
X110674112Y-44646207D01*
X110761738Y-44763261D01*
X110878792Y-44850887D01*
X110878794Y-44850888D01*
X110878796Y-44850889D01*
X110937875Y-44872924D01*
X111015795Y-44901988D01*
X111015803Y-44901990D01*
X111076350Y-44908499D01*
X111076355Y-44908499D01*
X111076362Y-44908500D01*
X111076368Y-44908500D01*
X113773632Y-44908500D01*
X113773638Y-44908500D01*
X113773645Y-44908499D01*
X113773649Y-44908499D01*
X113834196Y-44901990D01*
X113834199Y-44901989D01*
X113834201Y-44901989D01*
X113971204Y-44850889D01*
X113977678Y-44846043D01*
X114088261Y-44763261D01*
X114175887Y-44646207D01*
X114175887Y-44646206D01*
X114175889Y-44646204D01*
X114226989Y-44509201D01*
X114233500Y-44448638D01*
X114233500Y-44011571D01*
X114253502Y-43943450D01*
X114307158Y-43896957D01*
X114377432Y-43886853D01*
X114442012Y-43916347D01*
X114468619Y-43948571D01*
X114541386Y-44074608D01*
X114541391Y-44074615D01*
X114681073Y-44256652D01*
X114681092Y-44256673D01*
X114843326Y-44418907D01*
X114843347Y-44418926D01*
X115025384Y-44558608D01*
X115025391Y-44558613D01*
X115224099Y-44673337D01*
X115224103Y-44673338D01*
X115224112Y-44673344D01*
X115436113Y-44761158D01*
X115657762Y-44820548D01*
X115657766Y-44820548D01*
X115657768Y-44820549D01*
X115716398Y-44828267D01*
X115885266Y-44850500D01*
X115885273Y-44850500D01*
X116114727Y-44850500D01*
X116114734Y-44850500D01*
X116320345Y-44823430D01*
X116342231Y-44820549D01*
X116342231Y-44820548D01*
X116342238Y-44820548D01*
X116563887Y-44761158D01*
X116775888Y-44673344D01*
X116974612Y-44558611D01*
X117156661Y-44418919D01*
X117318919Y-44256661D01*
X117458611Y-44074612D01*
X117573344Y-43875888D01*
X117661158Y-43663887D01*
X117720548Y-43442238D01*
X117750500Y-43214734D01*
X117750500Y-42985266D01*
X117720548Y-42757762D01*
X117661158Y-42536113D01*
X117573344Y-42324112D01*
X117573338Y-42324103D01*
X117573337Y-42324099D01*
X117458613Y-42125391D01*
X117458608Y-42125384D01*
X117318926Y-41943347D01*
X117318907Y-41943326D01*
X117156673Y-41781092D01*
X117156652Y-41781073D01*
X116974615Y-41641391D01*
X116974608Y-41641386D01*
X116775900Y-41526662D01*
X116775892Y-41526658D01*
X116775888Y-41526656D01*
X116563887Y-41438842D01*
X116412501Y-41398278D01*
X116342231Y-41379450D01*
X116114736Y-41349500D01*
X116114734Y-41349500D01*
X115885266Y-41349500D01*
X115885263Y-41349500D01*
X115657768Y-41379450D01*
X115443965Y-41436738D01*
X115436113Y-41438842D01*
X115288823Y-41499852D01*
X115224110Y-41526657D01*
X115224099Y-41526662D01*
X115025391Y-41641386D01*
X115025384Y-41641391D01*
X114843347Y-41781073D01*
X114843326Y-41781092D01*
X114681092Y-41943326D01*
X114681073Y-41943347D01*
X114541391Y-42125384D01*
X114541386Y-42125391D01*
X114468619Y-42251428D01*
X114417236Y-42300421D01*
X114347523Y-42313857D01*
X114281612Y-42287470D01*
X114240430Y-42229638D01*
X114233500Y-42188428D01*
X114233500Y-41751367D01*
X114233499Y-41751350D01*
X114226990Y-41690803D01*
X114226988Y-41690795D01*
X114175889Y-41553797D01*
X114175887Y-41553792D01*
X114088261Y-41436738D01*
X113971207Y-41349112D01*
X113971202Y-41349110D01*
X113834204Y-41298011D01*
X113834196Y-41298009D01*
X113773649Y-41291500D01*
X113773638Y-41291500D01*
X111564594Y-41291500D01*
X111496473Y-41271498D01*
X111475499Y-41254595D01*
X110429795Y-40208891D01*
X110429793Y-40208889D01*
X110326035Y-40139560D01*
X110210745Y-40091805D01*
X110137046Y-40077145D01*
X110088356Y-40067460D01*
X110088354Y-40067460D01*
X64690000Y-40067460D01*
X64565212Y-40067460D01*
X64565209Y-40067460D01*
X64442820Y-40091805D01*
X64442815Y-40091807D01*
X64327530Y-40139559D01*
X64223773Y-40208887D01*
X63560450Y-40872210D01*
X62897127Y-41535535D01*
X62808891Y-41623770D01*
X62808886Y-41623777D01*
X62739561Y-41727529D01*
X62691806Y-41842818D01*
X62667460Y-41965209D01*
X62667460Y-45513009D01*
X62647458Y-45581130D01*
X62630555Y-45602104D01*
X61342105Y-46890555D01*
X61279793Y-46924580D01*
X61253010Y-46927460D01*
X53711273Y-46927460D01*
X53643152Y-46907458D01*
X53622178Y-46890555D01*
X53488264Y-46756641D01*
X53454238Y-46694329D01*
X53451359Y-46667546D01*
X53451359Y-44755466D01*
X53451358Y-44755462D01*
X53443378Y-44715343D01*
X53427014Y-44633074D01*
X53399438Y-44566500D01*
X53379260Y-44517784D01*
X53309931Y-44414026D01*
X53309926Y-44414020D01*
X52772099Y-43876193D01*
X52738073Y-43813881D01*
X52741362Y-43748160D01*
X52753816Y-43709832D01*
X52753816Y-43709828D01*
X52753818Y-43709824D01*
X52788500Y-43490851D01*
X52788500Y-43269149D01*
X52753818Y-43050176D01*
X52685308Y-42839324D01*
X52584657Y-42641785D01*
X52539946Y-42580246D01*
X52454341Y-42462421D01*
X52419920Y-42428000D01*
X56518389Y-42428000D01*
X56536796Y-42638394D01*
X56557151Y-42714358D01*
X56591457Y-42842393D01*
X56591459Y-42842398D01*
X56658083Y-42985273D01*
X56680714Y-43033806D01*
X56801852Y-43206809D01*
X56951191Y-43356148D01*
X57124194Y-43477286D01*
X57315605Y-43566542D01*
X57351997Y-43576293D01*
X57412620Y-43613245D01*
X57443641Y-43677105D01*
X57435213Y-43747600D01*
X57390010Y-43802347D01*
X57351998Y-43819706D01*
X57344946Y-43821596D01*
X57315606Y-43829457D01*
X57315601Y-43829459D01*
X57124191Y-43918715D01*
X56951195Y-44039847D01*
X56951185Y-44039856D01*
X56801856Y-44189185D01*
X56801847Y-44189195D01*
X56680715Y-44362191D01*
X56591459Y-44553601D01*
X56591457Y-44553606D01*
X56557151Y-44681641D01*
X56536796Y-44757606D01*
X56518389Y-44968000D01*
X56536796Y-45178394D01*
X56537704Y-45181781D01*
X56591457Y-45382393D01*
X56591459Y-45382398D01*
X56680714Y-45573806D01*
X56801852Y-45746809D01*
X56951191Y-45896148D01*
X57124194Y-46017286D01*
X57315605Y-46106542D01*
X57519606Y-46161204D01*
X57730000Y-46179611D01*
X57940394Y-46161204D01*
X58144395Y-46106542D01*
X58335806Y-46017286D01*
X58508809Y-45896148D01*
X58658148Y-45746809D01*
X58779286Y-45573806D01*
X58868542Y-45382395D01*
X58878293Y-45346002D01*
X58915244Y-45285380D01*
X58979104Y-45254358D01*
X59049599Y-45262786D01*
X59104346Y-45307988D01*
X59121707Y-45346003D01*
X59131456Y-45382390D01*
X59131459Y-45382398D01*
X59220714Y-45573806D01*
X59341852Y-45746809D01*
X59491191Y-45896148D01*
X59664194Y-46017286D01*
X59855605Y-46106542D01*
X60059606Y-46161204D01*
X60270000Y-46179611D01*
X60480394Y-46161204D01*
X60684395Y-46106542D01*
X60875806Y-46017286D01*
X61048809Y-45896148D01*
X61198148Y-45746809D01*
X61319286Y-45573806D01*
X61408542Y-45382395D01*
X61463204Y-45178394D01*
X61481611Y-44968000D01*
X61463204Y-44757606D01*
X61408542Y-44553605D01*
X61319286Y-44362195D01*
X61319285Y-44362194D01*
X61319284Y-44362191D01*
X61198152Y-44189195D01*
X61198149Y-44189192D01*
X61127172Y-44118215D01*
X61048809Y-44039852D01*
X60875806Y-43918714D01*
X60795125Y-43881092D01*
X60684398Y-43829459D01*
X60684390Y-43829456D01*
X60657229Y-43822178D01*
X60648002Y-43819706D01*
X60587380Y-43782756D01*
X60556358Y-43718896D01*
X60564786Y-43648401D01*
X60609988Y-43593654D01*
X60648001Y-43576293D01*
X60684395Y-43566542D01*
X60875806Y-43477286D01*
X61048809Y-43356148D01*
X61198148Y-43206809D01*
X61319286Y-43033806D01*
X61408542Y-42842395D01*
X61463204Y-42638394D01*
X61481611Y-42428000D01*
X61463204Y-42217606D01*
X61408542Y-42013605D01*
X61319286Y-41822195D01*
X61319285Y-41822194D01*
X61319284Y-41822191D01*
X61198152Y-41649195D01*
X61198149Y-41649192D01*
X61172727Y-41623770D01*
X61048809Y-41499852D01*
X61005390Y-41469450D01*
X60875806Y-41378714D01*
X60684398Y-41289459D01*
X60684393Y-41289457D01*
X60589716Y-41264088D01*
X60480394Y-41234796D01*
X60270000Y-41216389D01*
X60059606Y-41234796D01*
X60004945Y-41249442D01*
X59855606Y-41289457D01*
X59855601Y-41289459D01*
X59664191Y-41378715D01*
X59491195Y-41499847D01*
X59491185Y-41499856D01*
X59341856Y-41649185D01*
X59341847Y-41649195D01*
X59220715Y-41822191D01*
X59131459Y-42013601D01*
X59131457Y-42013606D01*
X59121707Y-42049997D01*
X59084755Y-42110620D01*
X59020895Y-42141641D01*
X58950400Y-42133213D01*
X58895653Y-42088010D01*
X58878293Y-42049997D01*
X58868542Y-42013606D01*
X58868540Y-42013601D01*
X58865081Y-42006182D01*
X58779286Y-41822195D01*
X58779285Y-41822194D01*
X58779284Y-41822191D01*
X58658152Y-41649195D01*
X58658149Y-41649192D01*
X58632727Y-41623770D01*
X58508809Y-41499852D01*
X58465390Y-41469450D01*
X58335806Y-41378714D01*
X58144398Y-41289459D01*
X58144393Y-41289457D01*
X58049716Y-41264088D01*
X57940394Y-41234796D01*
X57730000Y-41216389D01*
X57519606Y-41234796D01*
X57464945Y-41249442D01*
X57315606Y-41289457D01*
X57315601Y-41289459D01*
X57124191Y-41378715D01*
X56951195Y-41499847D01*
X56951185Y-41499856D01*
X56801856Y-41649185D01*
X56801847Y-41649195D01*
X56680715Y-41822191D01*
X56591459Y-42013601D01*
X56591457Y-42013606D01*
X56561506Y-42125388D01*
X56536796Y-42217606D01*
X56518389Y-42428000D01*
X52419920Y-42428000D01*
X52297578Y-42305658D01*
X52118218Y-42175345D01*
X52118217Y-42175344D01*
X52118215Y-42175343D01*
X51920676Y-42074692D01*
X51920673Y-42074691D01*
X51920671Y-42074690D01*
X51709829Y-42006183D01*
X51709825Y-42006182D01*
X51709824Y-42006182D01*
X51490851Y-41971500D01*
X50319149Y-41971500D01*
X50100176Y-42006182D01*
X50100170Y-42006183D01*
X49889328Y-42074690D01*
X49889322Y-42074693D01*
X49691781Y-42175345D01*
X49512421Y-42305658D01*
X49355658Y-42462421D01*
X49225345Y-42641781D01*
X49124693Y-42839322D01*
X49124690Y-42839328D01*
X49056183Y-43050170D01*
X49056182Y-43050175D01*
X49056182Y-43050176D01*
X49021500Y-43269149D01*
X49021500Y-43490851D01*
X49051000Y-43677105D01*
X49056183Y-43709829D01*
X49124690Y-43920671D01*
X49124692Y-43920676D01*
X49203128Y-44074615D01*
X49225345Y-44118218D01*
X49355658Y-44297578D01*
X49512421Y-44454341D01*
X49641419Y-44548064D01*
X49684773Y-44604287D01*
X49690848Y-44675023D01*
X49657716Y-44737815D01*
X49641419Y-44751936D01*
X49512421Y-44845658D01*
X49355658Y-45002421D01*
X49225345Y-45181781D01*
X49124693Y-45379322D01*
X49124690Y-45379328D01*
X49056183Y-45590170D01*
X49056182Y-45590175D01*
X49056182Y-45590176D01*
X49021500Y-45809149D01*
X49021500Y-46030851D01*
X49052568Y-46227007D01*
X49056183Y-46249829D01*
X49124629Y-46460483D01*
X49124692Y-46460676D01*
X49225343Y-46658215D01*
X49225345Y-46658218D01*
X49355658Y-46837578D01*
X49512421Y-46994341D01*
X49641419Y-47088064D01*
X49684773Y-47144287D01*
X49690848Y-47215023D01*
X49657716Y-47277815D01*
X49641419Y-47291936D01*
X49512421Y-47385658D01*
X49355658Y-47542421D01*
X49225345Y-47721781D01*
X49124693Y-47919322D01*
X49124690Y-47919328D01*
X49056183Y-48130170D01*
X49056182Y-48130175D01*
X49056182Y-48130176D01*
X49021500Y-48349149D01*
X49021500Y-48570851D01*
X49048654Y-48742295D01*
X49056183Y-48789829D01*
X49124690Y-49000671D01*
X49124692Y-49000676D01*
X49225343Y-49198215D01*
X49225345Y-49198218D01*
X49355658Y-49377578D01*
X49512421Y-49534341D01*
X49641419Y-49628064D01*
X49684773Y-49684287D01*
X49690848Y-49755023D01*
X49657716Y-49817815D01*
X49641419Y-49831936D01*
X49512421Y-49925658D01*
X49355658Y-50082421D01*
X49225345Y-50261781D01*
X49124693Y-50459322D01*
X49124690Y-50459328D01*
X49056183Y-50670170D01*
X49056182Y-50670175D01*
X49056182Y-50670176D01*
X49021500Y-50889149D01*
X49021500Y-51110851D01*
X49056182Y-51329824D01*
X49056183Y-51329829D01*
X49121615Y-51531206D01*
X49124692Y-51540676D01*
X49225343Y-51738215D01*
X49316047Y-51863058D01*
X49321493Y-51870553D01*
X49345351Y-51937420D01*
X49329271Y-52006572D01*
X49308653Y-52033709D01*
X48746647Y-52595715D01*
X48746647Y-52595717D01*
X48715594Y-52626769D01*
X48653285Y-52660794D01*
X48582469Y-52655730D01*
X48525633Y-52613185D01*
X48500821Y-52546665D01*
X48500500Y-52537674D01*
X48500500Y-40007079D01*
X48501292Y-39992971D01*
X48501292Y-39992970D01*
X48511434Y-39902956D01*
X48517712Y-39875453D01*
X48545278Y-39796672D01*
X48557518Y-39771255D01*
X48601926Y-39700580D01*
X48619510Y-39678531D01*
X48678531Y-39619510D01*
X48700580Y-39601926D01*
X48771255Y-39557518D01*
X48796669Y-39545278D01*
X48875453Y-39517711D01*
X48902956Y-39511434D01*
X48992971Y-39501291D01*
X49007079Y-39500500D01*
X49065892Y-39500500D01*
X125934108Y-39500500D01*
X125992921Y-39500500D01*
X126007028Y-39501291D01*
G37*
%TD.AperFunction*%
%TA.AperFunction,Conductor*%
G36*
X65538511Y-42253502D02*
G01*
X65585004Y-42307158D01*
X65595108Y-42377432D01*
X65565614Y-42442012D01*
X65559485Y-42448595D01*
X65545661Y-42462418D01*
X65545658Y-42462421D01*
X65415345Y-42641781D01*
X65314693Y-42839322D01*
X65314690Y-42839328D01*
X65246183Y-43050170D01*
X65246182Y-43050175D01*
X65246182Y-43050176D01*
X65211500Y-43269149D01*
X65211500Y-43490851D01*
X65241000Y-43677105D01*
X65246183Y-43709829D01*
X65314690Y-43920671D01*
X65314692Y-43920676D01*
X65393128Y-44074615D01*
X65415345Y-44118218D01*
X65545658Y-44297578D01*
X65702421Y-44454341D01*
X65831843Y-44548372D01*
X65875197Y-44604595D01*
X65881272Y-44675331D01*
X65848140Y-44738122D01*
X65831844Y-44752243D01*
X65702748Y-44846037D01*
X65546039Y-45002746D01*
X65415772Y-45182043D01*
X65315156Y-45379514D01*
X65315155Y-45379516D01*
X65246669Y-45590290D01*
X65234678Y-45666000D01*
X66189297Y-45666000D01*
X66154075Y-45727007D01*
X66120000Y-45854174D01*
X66120000Y-45985826D01*
X66154075Y-46112993D01*
X66189297Y-46174000D01*
X65234678Y-46174000D01*
X65246669Y-46249709D01*
X65315155Y-46460483D01*
X65315156Y-46460485D01*
X65415772Y-46657956D01*
X65546039Y-46837253D01*
X65702746Y-46993960D01*
X65831843Y-47087755D01*
X65875197Y-47143978D01*
X65881272Y-47214714D01*
X65848140Y-47277506D01*
X65831844Y-47291626D01*
X65702423Y-47385656D01*
X65545658Y-47542421D01*
X65415345Y-47721781D01*
X65314693Y-47919322D01*
X65314690Y-47919328D01*
X65246183Y-48130170D01*
X65246182Y-48130175D01*
X65246182Y-48130176D01*
X65211500Y-48349149D01*
X65211500Y-48570851D01*
X65238654Y-48742295D01*
X65246183Y-48789829D01*
X65314690Y-49000671D01*
X65314692Y-49000676D01*
X65415343Y-49198215D01*
X65415345Y-49198218D01*
X65545658Y-49377578D01*
X65702421Y-49534341D01*
X65831419Y-49628064D01*
X65874773Y-49684287D01*
X65880848Y-49755023D01*
X65847716Y-49817815D01*
X65831419Y-49831936D01*
X65702421Y-49925658D01*
X65545658Y-50082421D01*
X65415345Y-50261781D01*
X65314693Y-50459322D01*
X65314690Y-50459328D01*
X65246183Y-50670170D01*
X65246182Y-50670175D01*
X65246182Y-50670176D01*
X65211500Y-50889149D01*
X65211500Y-51110851D01*
X65246182Y-51329824D01*
X65246183Y-51329829D01*
X65311615Y-51531206D01*
X65314692Y-51540676D01*
X65415343Y-51738215D01*
X65415345Y-51738218D01*
X65545658Y-51917578D01*
X65702421Y-52074341D01*
X65831419Y-52168064D01*
X65874773Y-52224287D01*
X65880848Y-52295023D01*
X65847716Y-52357815D01*
X65831419Y-52371936D01*
X65702421Y-52465658D01*
X65545658Y-52622421D01*
X65415345Y-52801781D01*
X65314693Y-52999322D01*
X65314690Y-52999328D01*
X65246183Y-53210170D01*
X65246182Y-53210175D01*
X65246182Y-53210176D01*
X65211500Y-53429149D01*
X65211500Y-53650851D01*
X65246182Y-53869824D01*
X65246183Y-53869829D01*
X65314690Y-54080671D01*
X65314692Y-54080676D01*
X65314693Y-54080677D01*
X65415345Y-54278218D01*
X65545658Y-54457578D01*
X65702421Y-54614341D01*
X65831419Y-54708064D01*
X65874773Y-54764287D01*
X65880848Y-54835023D01*
X65847716Y-54897815D01*
X65831419Y-54911936D01*
X65702421Y-55005658D01*
X65545658Y-55162421D01*
X65415345Y-55341781D01*
X65314693Y-55539322D01*
X65314690Y-55539328D01*
X65246183Y-55750170D01*
X65246182Y-55750175D01*
X65246182Y-55750176D01*
X65211500Y-55969149D01*
X65211500Y-56190851D01*
X65218873Y-56237402D01*
X65246182Y-56409825D01*
X65258639Y-56448163D01*
X65260665Y-56519131D01*
X65227901Y-56576193D01*
X64378308Y-57425788D01*
X64290068Y-57514028D01*
X64290067Y-57514030D01*
X64220742Y-57617782D01*
X64172987Y-57733071D01*
X64148641Y-57855462D01*
X64148641Y-58467547D01*
X64128639Y-58535668D01*
X64111736Y-58556642D01*
X50558410Y-72109967D01*
X50558405Y-72109974D01*
X50489079Y-72213728D01*
X50455311Y-72295251D01*
X50441326Y-72329012D01*
X50441324Y-72329020D01*
X50416980Y-72451403D01*
X50416980Y-78285406D01*
X50396978Y-78353527D01*
X50380075Y-78374501D01*
X49999075Y-78755501D01*
X49936763Y-78789527D01*
X49865948Y-78784462D01*
X49809112Y-78741915D01*
X49784301Y-78675395D01*
X49783980Y-78666406D01*
X49783980Y-60064503D01*
X49803982Y-59996382D01*
X49857638Y-59949889D01*
X49927912Y-59939785D01*
X49948906Y-59944667D01*
X50100176Y-59993818D01*
X50319149Y-60028500D01*
X50319152Y-60028500D01*
X51490848Y-60028500D01*
X51490851Y-60028500D01*
X51709824Y-59993818D01*
X51920676Y-59925308D01*
X52118215Y-59824657D01*
X52297576Y-59694343D01*
X52454343Y-59537576D01*
X52584657Y-59358215D01*
X52685308Y-59160676D01*
X52753818Y-58949824D01*
X52788500Y-58730851D01*
X52788500Y-58509149D01*
X52753818Y-58290176D01*
X52685308Y-58079324D01*
X52584657Y-57881785D01*
X52476612Y-57733074D01*
X52454341Y-57702421D01*
X52297581Y-57545661D01*
X52297578Y-57545659D01*
X52297576Y-57545657D01*
X52168579Y-57451934D01*
X52125226Y-57395714D01*
X52119151Y-57324978D01*
X52152282Y-57262186D01*
X52168576Y-57248067D01*
X52297576Y-57154343D01*
X52454343Y-56997576D01*
X52584657Y-56818215D01*
X52685308Y-56620676D01*
X52753818Y-56409824D01*
X52788500Y-56190851D01*
X52788500Y-55969149D01*
X52753818Y-55750176D01*
X52685308Y-55539324D01*
X52584657Y-55341785D01*
X52454343Y-55162424D01*
X52454341Y-55162421D01*
X52297581Y-55005661D01*
X52297578Y-55005659D01*
X52297577Y-55005658D01*
X52297576Y-55005657D01*
X52168579Y-54911934D01*
X52125226Y-54855714D01*
X52119151Y-54784978D01*
X52152282Y-54722186D01*
X52168576Y-54708067D01*
X52297576Y-54614343D01*
X52454343Y-54457576D01*
X52584657Y-54278215D01*
X52685308Y-54080676D01*
X52753818Y-53869824D01*
X52788500Y-53650851D01*
X52788500Y-53429149D01*
X52753818Y-53210176D01*
X52685308Y-52999324D01*
X52584657Y-52801785D01*
X52454343Y-52622424D01*
X52454341Y-52622421D01*
X52297581Y-52465661D01*
X52297578Y-52465659D01*
X52297577Y-52465658D01*
X52297576Y-52465657D01*
X52168579Y-52371934D01*
X52125226Y-52315714D01*
X52119151Y-52244978D01*
X52152282Y-52182186D01*
X52168576Y-52168067D01*
X52297576Y-52074343D01*
X52454343Y-51917576D01*
X52584657Y-51738215D01*
X52685308Y-51540676D01*
X52753818Y-51329824D01*
X52788500Y-51110851D01*
X52788500Y-50889149D01*
X52753818Y-50670176D01*
X52685308Y-50459324D01*
X52584657Y-50261785D01*
X52454343Y-50082424D01*
X52454341Y-50082421D01*
X52297581Y-49925661D01*
X52297578Y-49925659D01*
X52297577Y-49925658D01*
X52297576Y-49925657D01*
X52168579Y-49831934D01*
X52125226Y-49775714D01*
X52119151Y-49704978D01*
X52152282Y-49642186D01*
X52168576Y-49628067D01*
X52297576Y-49534343D01*
X52454343Y-49377576D01*
X52584657Y-49198215D01*
X52602959Y-49162296D01*
X52651707Y-49110681D01*
X52715225Y-49093500D01*
X62002393Y-49093500D01*
X62002394Y-49093500D01*
X62124785Y-49069155D01*
X62240075Y-49021400D01*
X62343833Y-48952071D01*
X64692072Y-46603833D01*
X64761401Y-46500075D01*
X64795548Y-46417635D01*
X64809155Y-46384785D01*
X64833500Y-46262394D01*
X64833500Y-42799351D01*
X64853502Y-42731230D01*
X64870405Y-42710256D01*
X65310256Y-42270405D01*
X65372568Y-42236379D01*
X65399351Y-42233500D01*
X65470390Y-42233500D01*
X65538511Y-42253502D01*
G37*
%TD.AperFunction*%
%TD*%
M02*
