%TF.GenerationSoftware,KiCad,Pcbnew,8.0.8*%
%TF.CreationDate,2025-02-14T20:38:13+05:30*%
%TF.ProjectId,bytepad,62797465-7061-4642-9e6b-696361645f70,8.2*%
%TF.SameCoordinates,Original*%
%TF.FileFunction,Legend,Top*%
%TF.FilePolarity,Positive*%
%FSLAX46Y46*%
G04 Gerber Fmt 4.6, Leading zero omitted, Abs format (unit mm)*
G04 Created by KiCad (PCBNEW 8.0.8) date 2025-02-14 20:38:13*
%MOMM*%
%LPD*%
G01*
G04 APERTURE LIST*
%ADD10C,0.150000*%
%ADD11C,0.120000*%
G04 APERTURE END LIST*
D10*
X68454819Y-89738096D02*
X69169104Y-89738096D01*
X69169104Y-89738096D02*
X69311961Y-89785715D01*
X69311961Y-89785715D02*
X69407200Y-89880953D01*
X69407200Y-89880953D02*
X69454819Y-90023810D01*
X69454819Y-90023810D02*
X69454819Y-90119048D01*
X68788152Y-88833334D02*
X69454819Y-88833334D01*
X68788152Y-89261905D02*
X69311961Y-89261905D01*
X69311961Y-89261905D02*
X69407200Y-89214286D01*
X69407200Y-89214286D02*
X69454819Y-89119048D01*
X69454819Y-89119048D02*
X69454819Y-88976191D01*
X69454819Y-88976191D02*
X69407200Y-88880953D01*
X69407200Y-88880953D02*
X69359580Y-88833334D01*
X69407200Y-88404762D02*
X69454819Y-88309524D01*
X69454819Y-88309524D02*
X69454819Y-88119048D01*
X69454819Y-88119048D02*
X69407200Y-88023810D01*
X69407200Y-88023810D02*
X69311961Y-87976191D01*
X69311961Y-87976191D02*
X69264342Y-87976191D01*
X69264342Y-87976191D02*
X69169104Y-88023810D01*
X69169104Y-88023810D02*
X69121485Y-88119048D01*
X69121485Y-88119048D02*
X69121485Y-88261905D01*
X69121485Y-88261905D02*
X69073866Y-88357143D01*
X69073866Y-88357143D02*
X68978628Y-88404762D01*
X68978628Y-88404762D02*
X68931009Y-88404762D01*
X68931009Y-88404762D02*
X68835771Y-88357143D01*
X68835771Y-88357143D02*
X68788152Y-88261905D01*
X68788152Y-88261905D02*
X68788152Y-88119048D01*
X68788152Y-88119048D02*
X68835771Y-88023810D01*
X68788152Y-87690476D02*
X68788152Y-87309524D01*
X68454819Y-87547619D02*
X69311961Y-87547619D01*
X69311961Y-87547619D02*
X69407200Y-87500000D01*
X69407200Y-87500000D02*
X69454819Y-87404762D01*
X69454819Y-87404762D02*
X69454819Y-87309524D01*
X69454819Y-85785714D02*
X68931009Y-85785714D01*
X68931009Y-85785714D02*
X68835771Y-85833333D01*
X68835771Y-85833333D02*
X68788152Y-85928571D01*
X68788152Y-85928571D02*
X68788152Y-86119047D01*
X68788152Y-86119047D02*
X68835771Y-86214285D01*
X69407200Y-85785714D02*
X69454819Y-85880952D01*
X69454819Y-85880952D02*
X69454819Y-86119047D01*
X69454819Y-86119047D02*
X69407200Y-86214285D01*
X69407200Y-86214285D02*
X69311961Y-86261904D01*
X69311961Y-86261904D02*
X69216723Y-86261904D01*
X69216723Y-86261904D02*
X69121485Y-86214285D01*
X69121485Y-86214285D02*
X69073866Y-86119047D01*
X69073866Y-86119047D02*
X69073866Y-85880952D01*
X69073866Y-85880952D02*
X69026247Y-85785714D01*
X68931009Y-84214285D02*
X68978628Y-84071428D01*
X68978628Y-84071428D02*
X69026247Y-84023809D01*
X69026247Y-84023809D02*
X69121485Y-83976190D01*
X69121485Y-83976190D02*
X69264342Y-83976190D01*
X69264342Y-83976190D02*
X69359580Y-84023809D01*
X69359580Y-84023809D02*
X69407200Y-84071428D01*
X69407200Y-84071428D02*
X69454819Y-84166666D01*
X69454819Y-84166666D02*
X69454819Y-84547618D01*
X69454819Y-84547618D02*
X68454819Y-84547618D01*
X68454819Y-84547618D02*
X68454819Y-84214285D01*
X68454819Y-84214285D02*
X68502438Y-84119047D01*
X68502438Y-84119047D02*
X68550057Y-84071428D01*
X68550057Y-84071428D02*
X68645295Y-84023809D01*
X68645295Y-84023809D02*
X68740533Y-84023809D01*
X68740533Y-84023809D02*
X68835771Y-84071428D01*
X68835771Y-84071428D02*
X68883390Y-84119047D01*
X68883390Y-84119047D02*
X68931009Y-84214285D01*
X68931009Y-84214285D02*
X68931009Y-84547618D01*
X68788152Y-83119047D02*
X69454819Y-83119047D01*
X68788152Y-83547618D02*
X69311961Y-83547618D01*
X69311961Y-83547618D02*
X69407200Y-83499999D01*
X69407200Y-83499999D02*
X69454819Y-83404761D01*
X69454819Y-83404761D02*
X69454819Y-83261904D01*
X69454819Y-83261904D02*
X69407200Y-83166666D01*
X69407200Y-83166666D02*
X69359580Y-83119047D01*
X68788152Y-82642856D02*
X69454819Y-82642856D01*
X68883390Y-82642856D02*
X68835771Y-82595237D01*
X68835771Y-82595237D02*
X68788152Y-82499999D01*
X68788152Y-82499999D02*
X68788152Y-82357142D01*
X68788152Y-82357142D02*
X68835771Y-82261904D01*
X68835771Y-82261904D02*
X68931009Y-82214285D01*
X68931009Y-82214285D02*
X69454819Y-82214285D01*
X69407200Y-81309523D02*
X69454819Y-81404761D01*
X69454819Y-81404761D02*
X69454819Y-81595237D01*
X69454819Y-81595237D02*
X69407200Y-81690475D01*
X69407200Y-81690475D02*
X69359580Y-81738094D01*
X69359580Y-81738094D02*
X69264342Y-81785713D01*
X69264342Y-81785713D02*
X68978628Y-81785713D01*
X68978628Y-81785713D02*
X68883390Y-81738094D01*
X68883390Y-81738094D02*
X68835771Y-81690475D01*
X68835771Y-81690475D02*
X68788152Y-81595237D01*
X68788152Y-81595237D02*
X68788152Y-81404761D01*
X68788152Y-81404761D02*
X68835771Y-81309523D01*
X69454819Y-80880951D02*
X68454819Y-80880951D01*
X69454819Y-80452380D02*
X68931009Y-80452380D01*
X68931009Y-80452380D02*
X68835771Y-80499999D01*
X68835771Y-80499999D02*
X68788152Y-80595237D01*
X68788152Y-80595237D02*
X68788152Y-80738094D01*
X68788152Y-80738094D02*
X68835771Y-80833332D01*
X68835771Y-80833332D02*
X68883390Y-80880951D01*
X69454819Y-79071427D02*
X69407200Y-79166665D01*
X69407200Y-79166665D02*
X69359580Y-79214284D01*
X69359580Y-79214284D02*
X69264342Y-79261903D01*
X69264342Y-79261903D02*
X68978628Y-79261903D01*
X68978628Y-79261903D02*
X68883390Y-79214284D01*
X68883390Y-79214284D02*
X68835771Y-79166665D01*
X68835771Y-79166665D02*
X68788152Y-79071427D01*
X68788152Y-79071427D02*
X68788152Y-78928570D01*
X68788152Y-78928570D02*
X68835771Y-78833332D01*
X68835771Y-78833332D02*
X68883390Y-78785713D01*
X68883390Y-78785713D02*
X68978628Y-78738094D01*
X68978628Y-78738094D02*
X69264342Y-78738094D01*
X69264342Y-78738094D02*
X69359580Y-78785713D01*
X69359580Y-78785713D02*
X69407200Y-78833332D01*
X69407200Y-78833332D02*
X69454819Y-78928570D01*
X69454819Y-78928570D02*
X69454819Y-79071427D01*
X68788152Y-78452379D02*
X68788152Y-78071427D01*
X69454819Y-78309522D02*
X68597676Y-78309522D01*
X68597676Y-78309522D02*
X68502438Y-78261903D01*
X68502438Y-78261903D02*
X68454819Y-78166665D01*
X68454819Y-78166665D02*
X68454819Y-78071427D01*
X69407200Y-77023807D02*
X69454819Y-76880950D01*
X69454819Y-76880950D02*
X69454819Y-76642855D01*
X69454819Y-76642855D02*
X69407200Y-76547617D01*
X69407200Y-76547617D02*
X69359580Y-76499998D01*
X69359580Y-76499998D02*
X69264342Y-76452379D01*
X69264342Y-76452379D02*
X69169104Y-76452379D01*
X69169104Y-76452379D02*
X69073866Y-76499998D01*
X69073866Y-76499998D02*
X69026247Y-76547617D01*
X69026247Y-76547617D02*
X68978628Y-76642855D01*
X68978628Y-76642855D02*
X68931009Y-76833331D01*
X68931009Y-76833331D02*
X68883390Y-76928569D01*
X68883390Y-76928569D02*
X68835771Y-76976188D01*
X68835771Y-76976188D02*
X68740533Y-77023807D01*
X68740533Y-77023807D02*
X68645295Y-77023807D01*
X68645295Y-77023807D02*
X68550057Y-76976188D01*
X68550057Y-76976188D02*
X68502438Y-76928569D01*
X68502438Y-76928569D02*
X68454819Y-76833331D01*
X68454819Y-76833331D02*
X68454819Y-76595236D01*
X68454819Y-76595236D02*
X68502438Y-76452379D01*
X68788152Y-76119045D02*
X69454819Y-75928569D01*
X69454819Y-75928569D02*
X68978628Y-75738093D01*
X68978628Y-75738093D02*
X69454819Y-75547617D01*
X69454819Y-75547617D02*
X68788152Y-75357141D01*
X69454819Y-74976188D02*
X68788152Y-74976188D01*
X68454819Y-74976188D02*
X68502438Y-75023807D01*
X68502438Y-75023807D02*
X68550057Y-74976188D01*
X68550057Y-74976188D02*
X68502438Y-74928569D01*
X68502438Y-74928569D02*
X68454819Y-74976188D01*
X68454819Y-74976188D02*
X68550057Y-74976188D01*
X68788152Y-74642855D02*
X68788152Y-74261903D01*
X68454819Y-74499998D02*
X69311961Y-74499998D01*
X69311961Y-74499998D02*
X69407200Y-74452379D01*
X69407200Y-74452379D02*
X69454819Y-74357141D01*
X69454819Y-74357141D02*
X69454819Y-74261903D01*
X69407200Y-73499998D02*
X69454819Y-73595236D01*
X69454819Y-73595236D02*
X69454819Y-73785712D01*
X69454819Y-73785712D02*
X69407200Y-73880950D01*
X69407200Y-73880950D02*
X69359580Y-73928569D01*
X69359580Y-73928569D02*
X69264342Y-73976188D01*
X69264342Y-73976188D02*
X68978628Y-73976188D01*
X68978628Y-73976188D02*
X68883390Y-73928569D01*
X68883390Y-73928569D02*
X68835771Y-73880950D01*
X68835771Y-73880950D02*
X68788152Y-73785712D01*
X68788152Y-73785712D02*
X68788152Y-73595236D01*
X68788152Y-73595236D02*
X68835771Y-73499998D01*
X69454819Y-73071426D02*
X68454819Y-73071426D01*
X69454819Y-72642855D02*
X68931009Y-72642855D01*
X68931009Y-72642855D02*
X68835771Y-72690474D01*
X68835771Y-72690474D02*
X68788152Y-72785712D01*
X68788152Y-72785712D02*
X68788152Y-72928569D01*
X68788152Y-72928569D02*
X68835771Y-73023807D01*
X68835771Y-73023807D02*
X68883390Y-73071426D01*
X69407200Y-71785712D02*
X69454819Y-71880950D01*
X69454819Y-71880950D02*
X69454819Y-72071426D01*
X69454819Y-72071426D02*
X69407200Y-72166664D01*
X69407200Y-72166664D02*
X69311961Y-72214283D01*
X69311961Y-72214283D02*
X68931009Y-72214283D01*
X68931009Y-72214283D02*
X68835771Y-72166664D01*
X68835771Y-72166664D02*
X68788152Y-72071426D01*
X68788152Y-72071426D02*
X68788152Y-71880950D01*
X68788152Y-71880950D02*
X68835771Y-71785712D01*
X68835771Y-71785712D02*
X68931009Y-71738093D01*
X68931009Y-71738093D02*
X69026247Y-71738093D01*
X69026247Y-71738093D02*
X69121485Y-72214283D01*
X69407200Y-71357140D02*
X69454819Y-71261902D01*
X69454819Y-71261902D02*
X69454819Y-71071426D01*
X69454819Y-71071426D02*
X69407200Y-70976188D01*
X69407200Y-70976188D02*
X69311961Y-70928569D01*
X69311961Y-70928569D02*
X69264342Y-70928569D01*
X69264342Y-70928569D02*
X69169104Y-70976188D01*
X69169104Y-70976188D02*
X69121485Y-71071426D01*
X69121485Y-71071426D02*
X69121485Y-71214283D01*
X69121485Y-71214283D02*
X69073866Y-71309521D01*
X69073866Y-71309521D02*
X68978628Y-71357140D01*
X68978628Y-71357140D02*
X68931009Y-71357140D01*
X68931009Y-71357140D02*
X68835771Y-71309521D01*
X68835771Y-71309521D02*
X68788152Y-71214283D01*
X68788152Y-71214283D02*
X68788152Y-71071426D01*
X68788152Y-71071426D02*
X68835771Y-70976188D01*
X50045180Y-64357142D02*
X51045180Y-64357142D01*
X50664228Y-64357142D02*
X50711847Y-64452380D01*
X50711847Y-64452380D02*
X50711847Y-64642856D01*
X50711847Y-64642856D02*
X50664228Y-64738094D01*
X50664228Y-64738094D02*
X50616609Y-64785713D01*
X50616609Y-64785713D02*
X50521371Y-64833332D01*
X50521371Y-64833332D02*
X50235657Y-64833332D01*
X50235657Y-64833332D02*
X50140419Y-64785713D01*
X50140419Y-64785713D02*
X50092800Y-64738094D01*
X50092800Y-64738094D02*
X50045180Y-64642856D01*
X50045180Y-64642856D02*
X50045180Y-64452380D01*
X50045180Y-64452380D02*
X50092800Y-64357142D01*
X50711847Y-65166666D02*
X50045180Y-65404761D01*
X50711847Y-65642856D02*
X50045180Y-65404761D01*
X50045180Y-65404761D02*
X49807085Y-65309523D01*
X49807085Y-65309523D02*
X49759466Y-65261904D01*
X49759466Y-65261904D02*
X49711847Y-65166666D01*
X50092800Y-66738095D02*
X50045180Y-66880952D01*
X50045180Y-66880952D02*
X50045180Y-67119047D01*
X50045180Y-67119047D02*
X50092800Y-67214285D01*
X50092800Y-67214285D02*
X50140419Y-67261904D01*
X50140419Y-67261904D02*
X50235657Y-67309523D01*
X50235657Y-67309523D02*
X50330895Y-67309523D01*
X50330895Y-67309523D02*
X50426133Y-67261904D01*
X50426133Y-67261904D02*
X50473752Y-67214285D01*
X50473752Y-67214285D02*
X50521371Y-67119047D01*
X50521371Y-67119047D02*
X50568990Y-66928571D01*
X50568990Y-66928571D02*
X50616609Y-66833333D01*
X50616609Y-66833333D02*
X50664228Y-66785714D01*
X50664228Y-66785714D02*
X50759466Y-66738095D01*
X50759466Y-66738095D02*
X50854704Y-66738095D01*
X50854704Y-66738095D02*
X50949942Y-66785714D01*
X50949942Y-66785714D02*
X50997561Y-66833333D01*
X50997561Y-66833333D02*
X51045180Y-66928571D01*
X51045180Y-66928571D02*
X51045180Y-67166666D01*
X51045180Y-67166666D02*
X50997561Y-67309523D01*
X50045180Y-67738095D02*
X51045180Y-67738095D01*
X50045180Y-68166666D02*
X50568990Y-68166666D01*
X50568990Y-68166666D02*
X50664228Y-68119047D01*
X50664228Y-68119047D02*
X50711847Y-68023809D01*
X50711847Y-68023809D02*
X50711847Y-67880952D01*
X50711847Y-67880952D02*
X50664228Y-67785714D01*
X50664228Y-67785714D02*
X50616609Y-67738095D01*
X50045180Y-69071428D02*
X50568990Y-69071428D01*
X50568990Y-69071428D02*
X50664228Y-69023809D01*
X50664228Y-69023809D02*
X50711847Y-68928571D01*
X50711847Y-68928571D02*
X50711847Y-68738095D01*
X50711847Y-68738095D02*
X50664228Y-68642857D01*
X50092800Y-69071428D02*
X50045180Y-68976190D01*
X50045180Y-68976190D02*
X50045180Y-68738095D01*
X50045180Y-68738095D02*
X50092800Y-68642857D01*
X50092800Y-68642857D02*
X50188038Y-68595238D01*
X50188038Y-68595238D02*
X50283276Y-68595238D01*
X50283276Y-68595238D02*
X50378514Y-68642857D01*
X50378514Y-68642857D02*
X50426133Y-68738095D01*
X50426133Y-68738095D02*
X50426133Y-68976190D01*
X50426133Y-68976190D02*
X50473752Y-69071428D01*
X50045180Y-69547619D02*
X50711847Y-69547619D01*
X51045180Y-69547619D02*
X50997561Y-69500000D01*
X50997561Y-69500000D02*
X50949942Y-69547619D01*
X50949942Y-69547619D02*
X50997561Y-69595238D01*
X50997561Y-69595238D02*
X51045180Y-69547619D01*
X51045180Y-69547619D02*
X50949942Y-69547619D01*
X50045180Y-70166666D02*
X50092800Y-70071428D01*
X50092800Y-70071428D02*
X50188038Y-70023809D01*
X50188038Y-70023809D02*
X51045180Y-70023809D01*
X50092800Y-70928571D02*
X50045180Y-70833333D01*
X50045180Y-70833333D02*
X50045180Y-70642857D01*
X50045180Y-70642857D02*
X50092800Y-70547619D01*
X50092800Y-70547619D02*
X50188038Y-70500000D01*
X50188038Y-70500000D02*
X50568990Y-70500000D01*
X50568990Y-70500000D02*
X50664228Y-70547619D01*
X50664228Y-70547619D02*
X50711847Y-70642857D01*
X50711847Y-70642857D02*
X50711847Y-70833333D01*
X50711847Y-70833333D02*
X50664228Y-70928571D01*
X50664228Y-70928571D02*
X50568990Y-70976190D01*
X50568990Y-70976190D02*
X50473752Y-70976190D01*
X50473752Y-70976190D02*
X50378514Y-70500000D01*
X50092800Y-71357143D02*
X50045180Y-71452381D01*
X50045180Y-71452381D02*
X50045180Y-71642857D01*
X50045180Y-71642857D02*
X50092800Y-71738095D01*
X50092800Y-71738095D02*
X50188038Y-71785714D01*
X50188038Y-71785714D02*
X50235657Y-71785714D01*
X50235657Y-71785714D02*
X50330895Y-71738095D01*
X50330895Y-71738095D02*
X50378514Y-71642857D01*
X50378514Y-71642857D02*
X50378514Y-71500000D01*
X50378514Y-71500000D02*
X50426133Y-71404762D01*
X50426133Y-71404762D02*
X50521371Y-71357143D01*
X50521371Y-71357143D02*
X50568990Y-71357143D01*
X50568990Y-71357143D02*
X50664228Y-71404762D01*
X50664228Y-71404762D02*
X50711847Y-71500000D01*
X50711847Y-71500000D02*
X50711847Y-71642857D01*
X50711847Y-71642857D02*
X50664228Y-71738095D01*
X50045180Y-72214286D02*
X51045180Y-72214286D01*
X50045180Y-72642857D02*
X50568990Y-72642857D01*
X50568990Y-72642857D02*
X50664228Y-72595238D01*
X50664228Y-72595238D02*
X50711847Y-72500000D01*
X50711847Y-72500000D02*
X50711847Y-72357143D01*
X50711847Y-72357143D02*
X50664228Y-72261905D01*
X50664228Y-72261905D02*
X50616609Y-72214286D01*
X53642856Y-65954819D02*
X53642856Y-64954819D01*
X53642856Y-65335771D02*
X53738094Y-65288152D01*
X53738094Y-65288152D02*
X53928570Y-65288152D01*
X53928570Y-65288152D02*
X54023808Y-65335771D01*
X54023808Y-65335771D02*
X54071427Y-65383390D01*
X54071427Y-65383390D02*
X54119046Y-65478628D01*
X54119046Y-65478628D02*
X54119046Y-65764342D01*
X54119046Y-65764342D02*
X54071427Y-65859580D01*
X54071427Y-65859580D02*
X54023808Y-65907200D01*
X54023808Y-65907200D02*
X53928570Y-65954819D01*
X53928570Y-65954819D02*
X53738094Y-65954819D01*
X53738094Y-65954819D02*
X53642856Y-65907200D01*
X54452380Y-65288152D02*
X54690475Y-65954819D01*
X54928570Y-65288152D02*
X54690475Y-65954819D01*
X54690475Y-65954819D02*
X54595237Y-66192914D01*
X54595237Y-66192914D02*
X54547618Y-66240533D01*
X54547618Y-66240533D02*
X54452380Y-66288152D01*
X55166666Y-65288152D02*
X55547618Y-65288152D01*
X55309523Y-64954819D02*
X55309523Y-65811961D01*
X55309523Y-65811961D02*
X55357142Y-65907200D01*
X55357142Y-65907200D02*
X55452380Y-65954819D01*
X55452380Y-65954819D02*
X55547618Y-65954819D01*
X56261904Y-65907200D02*
X56166666Y-65954819D01*
X56166666Y-65954819D02*
X55976190Y-65954819D01*
X55976190Y-65954819D02*
X55880952Y-65907200D01*
X55880952Y-65907200D02*
X55833333Y-65811961D01*
X55833333Y-65811961D02*
X55833333Y-65431009D01*
X55833333Y-65431009D02*
X55880952Y-65335771D01*
X55880952Y-65335771D02*
X55976190Y-65288152D01*
X55976190Y-65288152D02*
X56166666Y-65288152D01*
X56166666Y-65288152D02*
X56261904Y-65335771D01*
X56261904Y-65335771D02*
X56309523Y-65431009D01*
X56309523Y-65431009D02*
X56309523Y-65526247D01*
X56309523Y-65526247D02*
X55833333Y-65621485D01*
X56738095Y-65288152D02*
X56738095Y-66288152D01*
X56738095Y-65335771D02*
X56833333Y-65288152D01*
X56833333Y-65288152D02*
X57023809Y-65288152D01*
X57023809Y-65288152D02*
X57119047Y-65335771D01*
X57119047Y-65335771D02*
X57166666Y-65383390D01*
X57166666Y-65383390D02*
X57214285Y-65478628D01*
X57214285Y-65478628D02*
X57214285Y-65764342D01*
X57214285Y-65764342D02*
X57166666Y-65859580D01*
X57166666Y-65859580D02*
X57119047Y-65907200D01*
X57119047Y-65907200D02*
X57023809Y-65954819D01*
X57023809Y-65954819D02*
X56833333Y-65954819D01*
X56833333Y-65954819D02*
X56738095Y-65907200D01*
X58071428Y-65954819D02*
X58071428Y-65431009D01*
X58071428Y-65431009D02*
X58023809Y-65335771D01*
X58023809Y-65335771D02*
X57928571Y-65288152D01*
X57928571Y-65288152D02*
X57738095Y-65288152D01*
X57738095Y-65288152D02*
X57642857Y-65335771D01*
X58071428Y-65907200D02*
X57976190Y-65954819D01*
X57976190Y-65954819D02*
X57738095Y-65954819D01*
X57738095Y-65954819D02*
X57642857Y-65907200D01*
X57642857Y-65907200D02*
X57595238Y-65811961D01*
X57595238Y-65811961D02*
X57595238Y-65716723D01*
X57595238Y-65716723D02*
X57642857Y-65621485D01*
X57642857Y-65621485D02*
X57738095Y-65573866D01*
X57738095Y-65573866D02*
X57976190Y-65573866D01*
X57976190Y-65573866D02*
X58071428Y-65526247D01*
X58976190Y-65954819D02*
X58976190Y-64954819D01*
X58976190Y-65907200D02*
X58880952Y-65954819D01*
X58880952Y-65954819D02*
X58690476Y-65954819D01*
X58690476Y-65954819D02*
X58595238Y-65907200D01*
X58595238Y-65907200D02*
X58547619Y-65859580D01*
X58547619Y-65859580D02*
X58500000Y-65764342D01*
X58500000Y-65764342D02*
X58500000Y-65478628D01*
X58500000Y-65478628D02*
X58547619Y-65383390D01*
X58547619Y-65383390D02*
X58595238Y-65335771D01*
X58595238Y-65335771D02*
X58690476Y-65288152D01*
X58690476Y-65288152D02*
X58880952Y-65288152D01*
X58880952Y-65288152D02*
X58976190Y-65335771D01*
X60214286Y-65954819D02*
X60214286Y-65288152D01*
X60214286Y-65478628D02*
X60261905Y-65383390D01*
X60261905Y-65383390D02*
X60309524Y-65335771D01*
X60309524Y-65335771D02*
X60404762Y-65288152D01*
X60404762Y-65288152D02*
X60500000Y-65288152D01*
X61214286Y-65907200D02*
X61119048Y-65954819D01*
X61119048Y-65954819D02*
X60928572Y-65954819D01*
X60928572Y-65954819D02*
X60833334Y-65907200D01*
X60833334Y-65907200D02*
X60785715Y-65811961D01*
X60785715Y-65811961D02*
X60785715Y-65431009D01*
X60785715Y-65431009D02*
X60833334Y-65335771D01*
X60833334Y-65335771D02*
X60928572Y-65288152D01*
X60928572Y-65288152D02*
X61119048Y-65288152D01*
X61119048Y-65288152D02*
X61214286Y-65335771D01*
X61214286Y-65335771D02*
X61261905Y-65431009D01*
X61261905Y-65431009D02*
X61261905Y-65526247D01*
X61261905Y-65526247D02*
X60785715Y-65621485D01*
X61595239Y-65288152D02*
X61833334Y-65954819D01*
X61833334Y-65954819D02*
X62071429Y-65288152D01*
X62595239Y-65383390D02*
X62500001Y-65335771D01*
X62500001Y-65335771D02*
X62452382Y-65288152D01*
X62452382Y-65288152D02*
X62404763Y-65192914D01*
X62404763Y-65192914D02*
X62404763Y-65145295D01*
X62404763Y-65145295D02*
X62452382Y-65050057D01*
X62452382Y-65050057D02*
X62500001Y-65002438D01*
X62500001Y-65002438D02*
X62595239Y-64954819D01*
X62595239Y-64954819D02*
X62785715Y-64954819D01*
X62785715Y-64954819D02*
X62880953Y-65002438D01*
X62880953Y-65002438D02*
X62928572Y-65050057D01*
X62928572Y-65050057D02*
X62976191Y-65145295D01*
X62976191Y-65145295D02*
X62976191Y-65192914D01*
X62976191Y-65192914D02*
X62928572Y-65288152D01*
X62928572Y-65288152D02*
X62880953Y-65335771D01*
X62880953Y-65335771D02*
X62785715Y-65383390D01*
X62785715Y-65383390D02*
X62595239Y-65383390D01*
X62595239Y-65383390D02*
X62500001Y-65431009D01*
X62500001Y-65431009D02*
X62452382Y-65478628D01*
X62452382Y-65478628D02*
X62404763Y-65573866D01*
X62404763Y-65573866D02*
X62404763Y-65764342D01*
X62404763Y-65764342D02*
X62452382Y-65859580D01*
X62452382Y-65859580D02*
X62500001Y-65907200D01*
X62500001Y-65907200D02*
X62595239Y-65954819D01*
X62595239Y-65954819D02*
X62785715Y-65954819D01*
X62785715Y-65954819D02*
X62880953Y-65907200D01*
X62880953Y-65907200D02*
X62928572Y-65859580D01*
X62928572Y-65859580D02*
X62976191Y-65764342D01*
X62976191Y-65764342D02*
X62976191Y-65573866D01*
X62976191Y-65573866D02*
X62928572Y-65478628D01*
X62928572Y-65478628D02*
X62880953Y-65431009D01*
X62880953Y-65431009D02*
X62785715Y-65383390D01*
X63404763Y-65859580D02*
X63452382Y-65907200D01*
X63452382Y-65907200D02*
X63404763Y-65954819D01*
X63404763Y-65954819D02*
X63357144Y-65907200D01*
X63357144Y-65907200D02*
X63404763Y-65859580D01*
X63404763Y-65859580D02*
X63404763Y-65954819D01*
X63833334Y-65050057D02*
X63880953Y-65002438D01*
X63880953Y-65002438D02*
X63976191Y-64954819D01*
X63976191Y-64954819D02*
X64214286Y-64954819D01*
X64214286Y-64954819D02*
X64309524Y-65002438D01*
X64309524Y-65002438D02*
X64357143Y-65050057D01*
X64357143Y-65050057D02*
X64404762Y-65145295D01*
X64404762Y-65145295D02*
X64404762Y-65240533D01*
X64404762Y-65240533D02*
X64357143Y-65383390D01*
X64357143Y-65383390D02*
X63785715Y-65954819D01*
X63785715Y-65954819D02*
X64404762Y-65954819D01*
D11*
%TO.C,ROT1*%
X51200000Y-79900000D02*
X51800000Y-79900000D01*
X51500000Y-80200000D02*
X51200000Y-79900000D01*
X51800000Y-79900000D02*
X51500000Y-80200000D01*
X52900000Y-78100000D02*
X52900000Y-89900000D01*
X57000000Y-78100000D02*
X52900000Y-78100000D01*
X57000000Y-89900000D02*
X52900000Y-89900000D01*
X58500000Y-84000000D02*
X59500000Y-84000000D01*
X59000000Y-83500000D02*
X59000000Y-84500000D01*
X61000000Y-78100000D02*
X65100000Y-78100000D01*
X65100000Y-78100000D02*
X65100000Y-80500000D01*
X65100000Y-82700000D02*
X65100000Y-85300000D01*
X65100000Y-87500000D02*
X65100000Y-89900000D01*
X65100000Y-89900000D02*
X61000000Y-89900000D01*
X62000000Y-84000000D02*
G75*
G02*
X56000000Y-84000000I-3000000J0D01*
G01*
X56000000Y-84000000D02*
G75*
G02*
X62000000Y-84000000I3000000J0D01*
G01*
%TD*%
M02*
