%TF.GenerationSoftware,KiCad,Pcbnew,8.0.8*%
%TF.CreationDate,2025-02-14T20:38:13+05:30*%
%TF.ProjectId,bytepad,62797465-7061-4642-9e6b-696361645f70,8.2*%
%TF.SameCoordinates,Original*%
%TF.FileFunction,Legend,Bot*%
%TF.FilePolarity,Positive*%
%FSLAX46Y46*%
G04 Gerber Fmt 4.6, Leading zero omitted, Abs format (unit mm)*
G04 Created by KiCad (PCBNEW 8.0.8) date 2025-02-14 20:38:13*
%MOMM*%
%LPD*%
G01*
G04 APERTURE LIST*
%ADD10C,0.150000*%
%ADD11C,0.120000*%
G04 APERTURE END LIST*
D10*
X69976191Y-63454819D02*
X69404763Y-63454819D01*
X69690477Y-64454819D02*
X69690477Y-63454819D01*
X69071429Y-64454819D02*
X69071429Y-63454819D01*
X68642858Y-64454819D02*
X68642858Y-63931009D01*
X68642858Y-63931009D02*
X68690477Y-63835771D01*
X68690477Y-63835771D02*
X68785715Y-63788152D01*
X68785715Y-63788152D02*
X68928572Y-63788152D01*
X68928572Y-63788152D02*
X69023810Y-63835771D01*
X69023810Y-63835771D02*
X69071429Y-63883390D01*
X68166667Y-64454819D02*
X68166667Y-63788152D01*
X68166667Y-63454819D02*
X68214286Y-63502438D01*
X68214286Y-63502438D02*
X68166667Y-63550057D01*
X68166667Y-63550057D02*
X68119048Y-63502438D01*
X68119048Y-63502438D02*
X68166667Y-63454819D01*
X68166667Y-63454819D02*
X68166667Y-63550057D01*
X67738096Y-64407200D02*
X67642858Y-64454819D01*
X67642858Y-64454819D02*
X67452382Y-64454819D01*
X67452382Y-64454819D02*
X67357144Y-64407200D01*
X67357144Y-64407200D02*
X67309525Y-64311961D01*
X67309525Y-64311961D02*
X67309525Y-64264342D01*
X67309525Y-64264342D02*
X67357144Y-64169104D01*
X67357144Y-64169104D02*
X67452382Y-64121485D01*
X67452382Y-64121485D02*
X67595239Y-64121485D01*
X67595239Y-64121485D02*
X67690477Y-64073866D01*
X67690477Y-64073866D02*
X67738096Y-63978628D01*
X67738096Y-63978628D02*
X67738096Y-63931009D01*
X67738096Y-63931009D02*
X67690477Y-63835771D01*
X67690477Y-63835771D02*
X67595239Y-63788152D01*
X67595239Y-63788152D02*
X67452382Y-63788152D01*
X67452382Y-63788152D02*
X67357144Y-63835771D01*
X66166667Y-64407200D02*
X66023810Y-64454819D01*
X66023810Y-64454819D02*
X65785715Y-64454819D01*
X65785715Y-64454819D02*
X65690477Y-64407200D01*
X65690477Y-64407200D02*
X65642858Y-64359580D01*
X65642858Y-64359580D02*
X65595239Y-64264342D01*
X65595239Y-64264342D02*
X65595239Y-64169104D01*
X65595239Y-64169104D02*
X65642858Y-64073866D01*
X65642858Y-64073866D02*
X65690477Y-64026247D01*
X65690477Y-64026247D02*
X65785715Y-63978628D01*
X65785715Y-63978628D02*
X65976191Y-63931009D01*
X65976191Y-63931009D02*
X66071429Y-63883390D01*
X66071429Y-63883390D02*
X66119048Y-63835771D01*
X66119048Y-63835771D02*
X66166667Y-63740533D01*
X66166667Y-63740533D02*
X66166667Y-63645295D01*
X66166667Y-63645295D02*
X66119048Y-63550057D01*
X66119048Y-63550057D02*
X66071429Y-63502438D01*
X66071429Y-63502438D02*
X65976191Y-63454819D01*
X65976191Y-63454819D02*
X65738096Y-63454819D01*
X65738096Y-63454819D02*
X65595239Y-63502438D01*
X65166667Y-64454819D02*
X65166667Y-63788152D01*
X65166667Y-63454819D02*
X65214286Y-63502438D01*
X65214286Y-63502438D02*
X65166667Y-63550057D01*
X65166667Y-63550057D02*
X65119048Y-63502438D01*
X65119048Y-63502438D02*
X65166667Y-63454819D01*
X65166667Y-63454819D02*
X65166667Y-63550057D01*
X64261906Y-64454819D02*
X64261906Y-63454819D01*
X64261906Y-64407200D02*
X64357144Y-64454819D01*
X64357144Y-64454819D02*
X64547620Y-64454819D01*
X64547620Y-64454819D02*
X64642858Y-64407200D01*
X64642858Y-64407200D02*
X64690477Y-64359580D01*
X64690477Y-64359580D02*
X64738096Y-64264342D01*
X64738096Y-64264342D02*
X64738096Y-63978628D01*
X64738096Y-63978628D02*
X64690477Y-63883390D01*
X64690477Y-63883390D02*
X64642858Y-63835771D01*
X64642858Y-63835771D02*
X64547620Y-63788152D01*
X64547620Y-63788152D02*
X64357144Y-63788152D01*
X64357144Y-63788152D02*
X64261906Y-63835771D01*
X63404763Y-64407200D02*
X63500001Y-64454819D01*
X63500001Y-64454819D02*
X63690477Y-64454819D01*
X63690477Y-64454819D02*
X63785715Y-64407200D01*
X63785715Y-64407200D02*
X63833334Y-64311961D01*
X63833334Y-64311961D02*
X63833334Y-63931009D01*
X63833334Y-63931009D02*
X63785715Y-63835771D01*
X63785715Y-63835771D02*
X63690477Y-63788152D01*
X63690477Y-63788152D02*
X63500001Y-63788152D01*
X63500001Y-63788152D02*
X63404763Y-63835771D01*
X63404763Y-63835771D02*
X63357144Y-63931009D01*
X63357144Y-63931009D02*
X63357144Y-64026247D01*
X63357144Y-64026247D02*
X63833334Y-64121485D01*
X62166667Y-64454819D02*
X62166667Y-63454819D01*
X62166667Y-63454819D02*
X61928572Y-63454819D01*
X61928572Y-63454819D02*
X61785715Y-63502438D01*
X61785715Y-63502438D02*
X61690477Y-63597676D01*
X61690477Y-63597676D02*
X61642858Y-63692914D01*
X61642858Y-63692914D02*
X61595239Y-63883390D01*
X61595239Y-63883390D02*
X61595239Y-64026247D01*
X61595239Y-64026247D02*
X61642858Y-64216723D01*
X61642858Y-64216723D02*
X61690477Y-64311961D01*
X61690477Y-64311961D02*
X61785715Y-64407200D01*
X61785715Y-64407200D02*
X61928572Y-64454819D01*
X61928572Y-64454819D02*
X62166667Y-64454819D01*
X61023810Y-64454819D02*
X61119048Y-64407200D01*
X61119048Y-64407200D02*
X61166667Y-64359580D01*
X61166667Y-64359580D02*
X61214286Y-64264342D01*
X61214286Y-64264342D02*
X61214286Y-63978628D01*
X61214286Y-63978628D02*
X61166667Y-63883390D01*
X61166667Y-63883390D02*
X61119048Y-63835771D01*
X61119048Y-63835771D02*
X61023810Y-63788152D01*
X61023810Y-63788152D02*
X60880953Y-63788152D01*
X60880953Y-63788152D02*
X60785715Y-63835771D01*
X60785715Y-63835771D02*
X60738096Y-63883390D01*
X60738096Y-63883390D02*
X60690477Y-63978628D01*
X60690477Y-63978628D02*
X60690477Y-64264342D01*
X60690477Y-64264342D02*
X60738096Y-64359580D01*
X60738096Y-64359580D02*
X60785715Y-64407200D01*
X60785715Y-64407200D02*
X60880953Y-64454819D01*
X60880953Y-64454819D02*
X61023810Y-64454819D01*
X60357143Y-63788152D02*
X60166667Y-64454819D01*
X60166667Y-64454819D02*
X59976191Y-63978628D01*
X59976191Y-63978628D02*
X59785715Y-64454819D01*
X59785715Y-64454819D02*
X59595239Y-63788152D01*
X59214286Y-63788152D02*
X59214286Y-64454819D01*
X59214286Y-63883390D02*
X59166667Y-63835771D01*
X59166667Y-63835771D02*
X59071429Y-63788152D01*
X59071429Y-63788152D02*
X58928572Y-63788152D01*
X58928572Y-63788152D02*
X58833334Y-63835771D01*
X58833334Y-63835771D02*
X58785715Y-63931009D01*
X58785715Y-63931009D02*
X58785715Y-64454819D01*
X57261905Y-64835771D02*
X57309524Y-64788152D01*
X57309524Y-64788152D02*
X57404762Y-64645295D01*
X57404762Y-64645295D02*
X57452381Y-64550057D01*
X57452381Y-64550057D02*
X57500000Y-64407200D01*
X57500000Y-64407200D02*
X57547619Y-64169104D01*
X57547619Y-64169104D02*
X57547619Y-63978628D01*
X57547619Y-63978628D02*
X57500000Y-63740533D01*
X57500000Y-63740533D02*
X57452381Y-63597676D01*
X57452381Y-63597676D02*
X57404762Y-63502438D01*
X57404762Y-63502438D02*
X57309524Y-63359580D01*
X57309524Y-63359580D02*
X57261905Y-63311961D01*
X56880952Y-64454819D02*
X56880952Y-63454819D01*
X56880952Y-63454819D02*
X56500000Y-63454819D01*
X56500000Y-63454819D02*
X56404762Y-63502438D01*
X56404762Y-63502438D02*
X56357143Y-63550057D01*
X56357143Y-63550057D02*
X56309524Y-63645295D01*
X56309524Y-63645295D02*
X56309524Y-63788152D01*
X56309524Y-63788152D02*
X56357143Y-63883390D01*
X56357143Y-63883390D02*
X56404762Y-63931009D01*
X56404762Y-63931009D02*
X56500000Y-63978628D01*
X56500000Y-63978628D02*
X56880952Y-63978628D01*
X55880952Y-64454819D02*
X55880952Y-63788152D01*
X55880952Y-63978628D02*
X55833333Y-63883390D01*
X55833333Y-63883390D02*
X55785714Y-63835771D01*
X55785714Y-63835771D02*
X55690476Y-63788152D01*
X55690476Y-63788152D02*
X55595238Y-63788152D01*
X55119047Y-64454819D02*
X55214285Y-64407200D01*
X55214285Y-64407200D02*
X55261904Y-64359580D01*
X55261904Y-64359580D02*
X55309523Y-64264342D01*
X55309523Y-64264342D02*
X55309523Y-63978628D01*
X55309523Y-63978628D02*
X55261904Y-63883390D01*
X55261904Y-63883390D02*
X55214285Y-63835771D01*
X55214285Y-63835771D02*
X55119047Y-63788152D01*
X55119047Y-63788152D02*
X54976190Y-63788152D01*
X54976190Y-63788152D02*
X54880952Y-63835771D01*
X54880952Y-63835771D02*
X54833333Y-63883390D01*
X54833333Y-63883390D02*
X54785714Y-63978628D01*
X54785714Y-63978628D02*
X54785714Y-64264342D01*
X54785714Y-64264342D02*
X54833333Y-64359580D01*
X54833333Y-64359580D02*
X54880952Y-64407200D01*
X54880952Y-64407200D02*
X54976190Y-64454819D01*
X54976190Y-64454819D02*
X55119047Y-64454819D01*
X54357142Y-64454819D02*
X54357142Y-63454819D01*
X54357142Y-63835771D02*
X54261904Y-63788152D01*
X54261904Y-63788152D02*
X54071428Y-63788152D01*
X54071428Y-63788152D02*
X53976190Y-63835771D01*
X53976190Y-63835771D02*
X53928571Y-63883390D01*
X53928571Y-63883390D02*
X53880952Y-63978628D01*
X53880952Y-63978628D02*
X53880952Y-64264342D01*
X53880952Y-64264342D02*
X53928571Y-64359580D01*
X53928571Y-64359580D02*
X53976190Y-64407200D01*
X53976190Y-64407200D02*
X54071428Y-64454819D01*
X54071428Y-64454819D02*
X54261904Y-64454819D01*
X54261904Y-64454819D02*
X54357142Y-64407200D01*
X53023809Y-64454819D02*
X53023809Y-63931009D01*
X53023809Y-63931009D02*
X53071428Y-63835771D01*
X53071428Y-63835771D02*
X53166666Y-63788152D01*
X53166666Y-63788152D02*
X53357142Y-63788152D01*
X53357142Y-63788152D02*
X53452380Y-63835771D01*
X53023809Y-64407200D02*
X53119047Y-64454819D01*
X53119047Y-64454819D02*
X53357142Y-64454819D01*
X53357142Y-64454819D02*
X53452380Y-64407200D01*
X53452380Y-64407200D02*
X53499999Y-64311961D01*
X53499999Y-64311961D02*
X53499999Y-64216723D01*
X53499999Y-64216723D02*
X53452380Y-64121485D01*
X53452380Y-64121485D02*
X53357142Y-64073866D01*
X53357142Y-64073866D02*
X53119047Y-64073866D01*
X53119047Y-64073866D02*
X53023809Y-64026247D01*
X52547618Y-64454819D02*
X52547618Y-63454819D01*
X52547618Y-63835771D02*
X52452380Y-63788152D01*
X52452380Y-63788152D02*
X52261904Y-63788152D01*
X52261904Y-63788152D02*
X52166666Y-63835771D01*
X52166666Y-63835771D02*
X52119047Y-63883390D01*
X52119047Y-63883390D02*
X52071428Y-63978628D01*
X52071428Y-63978628D02*
X52071428Y-64264342D01*
X52071428Y-64264342D02*
X52119047Y-64359580D01*
X52119047Y-64359580D02*
X52166666Y-64407200D01*
X52166666Y-64407200D02*
X52261904Y-64454819D01*
X52261904Y-64454819D02*
X52452380Y-64454819D01*
X52452380Y-64454819D02*
X52547618Y-64407200D01*
X51499999Y-64454819D02*
X51595237Y-64407200D01*
X51595237Y-64407200D02*
X51642856Y-64311961D01*
X51642856Y-64311961D02*
X51642856Y-63454819D01*
X51214284Y-63788152D02*
X50976189Y-64454819D01*
X50738094Y-63788152D02*
X50976189Y-64454819D01*
X50976189Y-64454819D02*
X51071427Y-64692914D01*
X51071427Y-64692914D02*
X51119046Y-64740533D01*
X51119046Y-64740533D02*
X51214284Y-64788152D01*
X50452379Y-64835771D02*
X50404760Y-64788152D01*
X50404760Y-64788152D02*
X50309522Y-64645295D01*
X50309522Y-64645295D02*
X50261903Y-64550057D01*
X50261903Y-64550057D02*
X50214284Y-64407200D01*
X50214284Y-64407200D02*
X50166665Y-64169104D01*
X50166665Y-64169104D02*
X50166665Y-63978628D01*
X50166665Y-63978628D02*
X50214284Y-63740533D01*
X50214284Y-63740533D02*
X50261903Y-63597676D01*
X50261903Y-63597676D02*
X50309522Y-63502438D01*
X50309522Y-63502438D02*
X50404760Y-63359580D01*
X50404760Y-63359580D02*
X50452379Y-63311961D01*
X122654819Y-50261905D02*
X121654819Y-50261905D01*
X121654819Y-50261905D02*
X121654819Y-50500000D01*
X121654819Y-50500000D02*
X121702438Y-50642857D01*
X121702438Y-50642857D02*
X121797676Y-50738095D01*
X121797676Y-50738095D02*
X121892914Y-50785714D01*
X121892914Y-50785714D02*
X122083390Y-50833333D01*
X122083390Y-50833333D02*
X122226247Y-50833333D01*
X122226247Y-50833333D02*
X122416723Y-50785714D01*
X122416723Y-50785714D02*
X122511961Y-50738095D01*
X122511961Y-50738095D02*
X122607200Y-50642857D01*
X122607200Y-50642857D02*
X122654819Y-50500000D01*
X122654819Y-50500000D02*
X122654819Y-50261905D01*
X121654819Y-51166667D02*
X121654819Y-51785714D01*
X121654819Y-51785714D02*
X122035771Y-51452381D01*
X122035771Y-51452381D02*
X122035771Y-51595238D01*
X122035771Y-51595238D02*
X122083390Y-51690476D01*
X122083390Y-51690476D02*
X122131009Y-51738095D01*
X122131009Y-51738095D02*
X122226247Y-51785714D01*
X122226247Y-51785714D02*
X122464342Y-51785714D01*
X122464342Y-51785714D02*
X122559580Y-51738095D01*
X122559580Y-51738095D02*
X122607200Y-51690476D01*
X122607200Y-51690476D02*
X122654819Y-51595238D01*
X122654819Y-51595238D02*
X122654819Y-51309524D01*
X122654819Y-51309524D02*
X122607200Y-51214286D01*
X122607200Y-51214286D02*
X122559580Y-51166667D01*
X109254819Y-50261905D02*
X108254819Y-50261905D01*
X108254819Y-50261905D02*
X108254819Y-50500000D01*
X108254819Y-50500000D02*
X108302438Y-50642857D01*
X108302438Y-50642857D02*
X108397676Y-50738095D01*
X108397676Y-50738095D02*
X108492914Y-50785714D01*
X108492914Y-50785714D02*
X108683390Y-50833333D01*
X108683390Y-50833333D02*
X108826247Y-50833333D01*
X108826247Y-50833333D02*
X109016723Y-50785714D01*
X109016723Y-50785714D02*
X109111961Y-50738095D01*
X109111961Y-50738095D02*
X109207200Y-50642857D01*
X109207200Y-50642857D02*
X109254819Y-50500000D01*
X109254819Y-50500000D02*
X109254819Y-50261905D01*
X108350057Y-51214286D02*
X108302438Y-51261905D01*
X108302438Y-51261905D02*
X108254819Y-51357143D01*
X108254819Y-51357143D02*
X108254819Y-51595238D01*
X108254819Y-51595238D02*
X108302438Y-51690476D01*
X108302438Y-51690476D02*
X108350057Y-51738095D01*
X108350057Y-51738095D02*
X108445295Y-51785714D01*
X108445295Y-51785714D02*
X108540533Y-51785714D01*
X108540533Y-51785714D02*
X108683390Y-51738095D01*
X108683390Y-51738095D02*
X109254819Y-51166667D01*
X109254819Y-51166667D02*
X109254819Y-51785714D01*
X123454819Y-84261905D02*
X122454819Y-84261905D01*
X122454819Y-84261905D02*
X122454819Y-84500000D01*
X122454819Y-84500000D02*
X122502438Y-84642857D01*
X122502438Y-84642857D02*
X122597676Y-84738095D01*
X122597676Y-84738095D02*
X122692914Y-84785714D01*
X122692914Y-84785714D02*
X122883390Y-84833333D01*
X122883390Y-84833333D02*
X123026247Y-84833333D01*
X123026247Y-84833333D02*
X123216723Y-84785714D01*
X123216723Y-84785714D02*
X123311961Y-84738095D01*
X123311961Y-84738095D02*
X123407200Y-84642857D01*
X123407200Y-84642857D02*
X123454819Y-84500000D01*
X123454819Y-84500000D02*
X123454819Y-84261905D01*
X123454819Y-85309524D02*
X123454819Y-85500000D01*
X123454819Y-85500000D02*
X123407200Y-85595238D01*
X123407200Y-85595238D02*
X123359580Y-85642857D01*
X123359580Y-85642857D02*
X123216723Y-85738095D01*
X123216723Y-85738095D02*
X123026247Y-85785714D01*
X123026247Y-85785714D02*
X122645295Y-85785714D01*
X122645295Y-85785714D02*
X122550057Y-85738095D01*
X122550057Y-85738095D02*
X122502438Y-85690476D01*
X122502438Y-85690476D02*
X122454819Y-85595238D01*
X122454819Y-85595238D02*
X122454819Y-85404762D01*
X122454819Y-85404762D02*
X122502438Y-85309524D01*
X122502438Y-85309524D02*
X122550057Y-85261905D01*
X122550057Y-85261905D02*
X122645295Y-85214286D01*
X122645295Y-85214286D02*
X122883390Y-85214286D01*
X122883390Y-85214286D02*
X122978628Y-85261905D01*
X122978628Y-85261905D02*
X123026247Y-85309524D01*
X123026247Y-85309524D02*
X123073866Y-85404762D01*
X123073866Y-85404762D02*
X123073866Y-85595238D01*
X123073866Y-85595238D02*
X123026247Y-85690476D01*
X123026247Y-85690476D02*
X122978628Y-85738095D01*
X122978628Y-85738095D02*
X122883390Y-85785714D01*
X91254819Y-67261905D02*
X90254819Y-67261905D01*
X90254819Y-67261905D02*
X90254819Y-67500000D01*
X90254819Y-67500000D02*
X90302438Y-67642857D01*
X90302438Y-67642857D02*
X90397676Y-67738095D01*
X90397676Y-67738095D02*
X90492914Y-67785714D01*
X90492914Y-67785714D02*
X90683390Y-67833333D01*
X90683390Y-67833333D02*
X90826247Y-67833333D01*
X90826247Y-67833333D02*
X91016723Y-67785714D01*
X91016723Y-67785714D02*
X91111961Y-67738095D01*
X91111961Y-67738095D02*
X91207200Y-67642857D01*
X91207200Y-67642857D02*
X91254819Y-67500000D01*
X91254819Y-67500000D02*
X91254819Y-67261905D01*
X90588152Y-68690476D02*
X91254819Y-68690476D01*
X90207200Y-68452381D02*
X90921485Y-68214286D01*
X90921485Y-68214286D02*
X90921485Y-68833333D01*
X91254819Y-50261905D02*
X90254819Y-50261905D01*
X90254819Y-50261905D02*
X90254819Y-50500000D01*
X90254819Y-50500000D02*
X90302438Y-50642857D01*
X90302438Y-50642857D02*
X90397676Y-50738095D01*
X90397676Y-50738095D02*
X90492914Y-50785714D01*
X90492914Y-50785714D02*
X90683390Y-50833333D01*
X90683390Y-50833333D02*
X90826247Y-50833333D01*
X90826247Y-50833333D02*
X91016723Y-50785714D01*
X91016723Y-50785714D02*
X91111961Y-50738095D01*
X91111961Y-50738095D02*
X91207200Y-50642857D01*
X91207200Y-50642857D02*
X91254819Y-50500000D01*
X91254819Y-50500000D02*
X91254819Y-50261905D01*
X91254819Y-51785714D02*
X91254819Y-51214286D01*
X91254819Y-51500000D02*
X90254819Y-51500000D01*
X90254819Y-51500000D02*
X90397676Y-51404762D01*
X90397676Y-51404762D02*
X90492914Y-51309524D01*
X90492914Y-51309524D02*
X90540533Y-51214286D01*
X109254819Y-84261905D02*
X108254819Y-84261905D01*
X108254819Y-84261905D02*
X108254819Y-84500000D01*
X108254819Y-84500000D02*
X108302438Y-84642857D01*
X108302438Y-84642857D02*
X108397676Y-84738095D01*
X108397676Y-84738095D02*
X108492914Y-84785714D01*
X108492914Y-84785714D02*
X108683390Y-84833333D01*
X108683390Y-84833333D02*
X108826247Y-84833333D01*
X108826247Y-84833333D02*
X109016723Y-84785714D01*
X109016723Y-84785714D02*
X109111961Y-84738095D01*
X109111961Y-84738095D02*
X109207200Y-84642857D01*
X109207200Y-84642857D02*
X109254819Y-84500000D01*
X109254819Y-84500000D02*
X109254819Y-84261905D01*
X108683390Y-85404762D02*
X108635771Y-85309524D01*
X108635771Y-85309524D02*
X108588152Y-85261905D01*
X108588152Y-85261905D02*
X108492914Y-85214286D01*
X108492914Y-85214286D02*
X108445295Y-85214286D01*
X108445295Y-85214286D02*
X108350057Y-85261905D01*
X108350057Y-85261905D02*
X108302438Y-85309524D01*
X108302438Y-85309524D02*
X108254819Y-85404762D01*
X108254819Y-85404762D02*
X108254819Y-85595238D01*
X108254819Y-85595238D02*
X108302438Y-85690476D01*
X108302438Y-85690476D02*
X108350057Y-85738095D01*
X108350057Y-85738095D02*
X108445295Y-85785714D01*
X108445295Y-85785714D02*
X108492914Y-85785714D01*
X108492914Y-85785714D02*
X108588152Y-85738095D01*
X108588152Y-85738095D02*
X108635771Y-85690476D01*
X108635771Y-85690476D02*
X108683390Y-85595238D01*
X108683390Y-85595238D02*
X108683390Y-85404762D01*
X108683390Y-85404762D02*
X108731009Y-85309524D01*
X108731009Y-85309524D02*
X108778628Y-85261905D01*
X108778628Y-85261905D02*
X108873866Y-85214286D01*
X108873866Y-85214286D02*
X109064342Y-85214286D01*
X109064342Y-85214286D02*
X109159580Y-85261905D01*
X109159580Y-85261905D02*
X109207200Y-85309524D01*
X109207200Y-85309524D02*
X109254819Y-85404762D01*
X109254819Y-85404762D02*
X109254819Y-85595238D01*
X109254819Y-85595238D02*
X109207200Y-85690476D01*
X109207200Y-85690476D02*
X109159580Y-85738095D01*
X109159580Y-85738095D02*
X109064342Y-85785714D01*
X109064342Y-85785714D02*
X108873866Y-85785714D01*
X108873866Y-85785714D02*
X108778628Y-85738095D01*
X108778628Y-85738095D02*
X108731009Y-85690476D01*
X108731009Y-85690476D02*
X108683390Y-85595238D01*
X109254819Y-67261905D02*
X108254819Y-67261905D01*
X108254819Y-67261905D02*
X108254819Y-67500000D01*
X108254819Y-67500000D02*
X108302438Y-67642857D01*
X108302438Y-67642857D02*
X108397676Y-67738095D01*
X108397676Y-67738095D02*
X108492914Y-67785714D01*
X108492914Y-67785714D02*
X108683390Y-67833333D01*
X108683390Y-67833333D02*
X108826247Y-67833333D01*
X108826247Y-67833333D02*
X109016723Y-67785714D01*
X109016723Y-67785714D02*
X109111961Y-67738095D01*
X109111961Y-67738095D02*
X109207200Y-67642857D01*
X109207200Y-67642857D02*
X109254819Y-67500000D01*
X109254819Y-67500000D02*
X109254819Y-67261905D01*
X108254819Y-68738095D02*
X108254819Y-68261905D01*
X108254819Y-68261905D02*
X108731009Y-68214286D01*
X108731009Y-68214286D02*
X108683390Y-68261905D01*
X108683390Y-68261905D02*
X108635771Y-68357143D01*
X108635771Y-68357143D02*
X108635771Y-68595238D01*
X108635771Y-68595238D02*
X108683390Y-68690476D01*
X108683390Y-68690476D02*
X108731009Y-68738095D01*
X108731009Y-68738095D02*
X108826247Y-68785714D01*
X108826247Y-68785714D02*
X109064342Y-68785714D01*
X109064342Y-68785714D02*
X109159580Y-68738095D01*
X109159580Y-68738095D02*
X109207200Y-68690476D01*
X109207200Y-68690476D02*
X109254819Y-68595238D01*
X109254819Y-68595238D02*
X109254819Y-68357143D01*
X109254819Y-68357143D02*
X109207200Y-68261905D01*
X109207200Y-68261905D02*
X109159580Y-68214286D01*
X91254819Y-84261905D02*
X90254819Y-84261905D01*
X90254819Y-84261905D02*
X90254819Y-84500000D01*
X90254819Y-84500000D02*
X90302438Y-84642857D01*
X90302438Y-84642857D02*
X90397676Y-84738095D01*
X90397676Y-84738095D02*
X90492914Y-84785714D01*
X90492914Y-84785714D02*
X90683390Y-84833333D01*
X90683390Y-84833333D02*
X90826247Y-84833333D01*
X90826247Y-84833333D02*
X91016723Y-84785714D01*
X91016723Y-84785714D02*
X91111961Y-84738095D01*
X91111961Y-84738095D02*
X91207200Y-84642857D01*
X91207200Y-84642857D02*
X91254819Y-84500000D01*
X91254819Y-84500000D02*
X91254819Y-84261905D01*
X90254819Y-85166667D02*
X90254819Y-85833333D01*
X90254819Y-85833333D02*
X91254819Y-85404762D01*
X123254819Y-67061905D02*
X122254819Y-67061905D01*
X122254819Y-67061905D02*
X122254819Y-67300000D01*
X122254819Y-67300000D02*
X122302438Y-67442857D01*
X122302438Y-67442857D02*
X122397676Y-67538095D01*
X122397676Y-67538095D02*
X122492914Y-67585714D01*
X122492914Y-67585714D02*
X122683390Y-67633333D01*
X122683390Y-67633333D02*
X122826247Y-67633333D01*
X122826247Y-67633333D02*
X123016723Y-67585714D01*
X123016723Y-67585714D02*
X123111961Y-67538095D01*
X123111961Y-67538095D02*
X123207200Y-67442857D01*
X123207200Y-67442857D02*
X123254819Y-67300000D01*
X123254819Y-67300000D02*
X123254819Y-67061905D01*
X122254819Y-68490476D02*
X122254819Y-68300000D01*
X122254819Y-68300000D02*
X122302438Y-68204762D01*
X122302438Y-68204762D02*
X122350057Y-68157143D01*
X122350057Y-68157143D02*
X122492914Y-68061905D01*
X122492914Y-68061905D02*
X122683390Y-68014286D01*
X122683390Y-68014286D02*
X123064342Y-68014286D01*
X123064342Y-68014286D02*
X123159580Y-68061905D01*
X123159580Y-68061905D02*
X123207200Y-68109524D01*
X123207200Y-68109524D02*
X123254819Y-68204762D01*
X123254819Y-68204762D02*
X123254819Y-68395238D01*
X123254819Y-68395238D02*
X123207200Y-68490476D01*
X123207200Y-68490476D02*
X123159580Y-68538095D01*
X123159580Y-68538095D02*
X123064342Y-68585714D01*
X123064342Y-68585714D02*
X122826247Y-68585714D01*
X122826247Y-68585714D02*
X122731009Y-68538095D01*
X122731009Y-68538095D02*
X122683390Y-68490476D01*
X122683390Y-68490476D02*
X122635771Y-68395238D01*
X122635771Y-68395238D02*
X122635771Y-68204762D01*
X122635771Y-68204762D02*
X122683390Y-68109524D01*
X122683390Y-68109524D02*
X122731009Y-68061905D01*
X122731009Y-68061905D02*
X122826247Y-68014286D01*
X60014285Y-73854819D02*
X60014285Y-72854819D01*
X60014285Y-72854819D02*
X59776190Y-72854819D01*
X59776190Y-72854819D02*
X59633333Y-72902438D01*
X59633333Y-72902438D02*
X59538095Y-72997676D01*
X59538095Y-72997676D02*
X59490476Y-73092914D01*
X59490476Y-73092914D02*
X59442857Y-73283390D01*
X59442857Y-73283390D02*
X59442857Y-73426247D01*
X59442857Y-73426247D02*
X59490476Y-73616723D01*
X59490476Y-73616723D02*
X59538095Y-73711961D01*
X59538095Y-73711961D02*
X59633333Y-73807200D01*
X59633333Y-73807200D02*
X59776190Y-73854819D01*
X59776190Y-73854819D02*
X60014285Y-73854819D01*
X58490476Y-73854819D02*
X59061904Y-73854819D01*
X58776190Y-73854819D02*
X58776190Y-72854819D01*
X58776190Y-72854819D02*
X58871428Y-72997676D01*
X58871428Y-72997676D02*
X58966666Y-73092914D01*
X58966666Y-73092914D02*
X59061904Y-73140533D01*
X57871428Y-72854819D02*
X57776190Y-72854819D01*
X57776190Y-72854819D02*
X57680952Y-72902438D01*
X57680952Y-72902438D02*
X57633333Y-72950057D01*
X57633333Y-72950057D02*
X57585714Y-73045295D01*
X57585714Y-73045295D02*
X57538095Y-73235771D01*
X57538095Y-73235771D02*
X57538095Y-73473866D01*
X57538095Y-73473866D02*
X57585714Y-73664342D01*
X57585714Y-73664342D02*
X57633333Y-73759580D01*
X57633333Y-73759580D02*
X57680952Y-73807200D01*
X57680952Y-73807200D02*
X57776190Y-73854819D01*
X57776190Y-73854819D02*
X57871428Y-73854819D01*
X57871428Y-73854819D02*
X57966666Y-73807200D01*
X57966666Y-73807200D02*
X58014285Y-73759580D01*
X58014285Y-73759580D02*
X58061904Y-73664342D01*
X58061904Y-73664342D02*
X58109523Y-73473866D01*
X58109523Y-73473866D02*
X58109523Y-73235771D01*
X58109523Y-73235771D02*
X58061904Y-73045295D01*
X58061904Y-73045295D02*
X58014285Y-72950057D01*
X58014285Y-72950057D02*
X57966666Y-72902438D01*
X57966666Y-72902438D02*
X57871428Y-72854819D01*
D11*
%TO.C,D3*%
X123200000Y-53250000D02*
X123200000Y-49350000D01*
X125200000Y-53250000D02*
X123200000Y-53250000D01*
X125200000Y-53250000D02*
X125200000Y-49350000D01*
%TO.C,D2*%
X105800000Y-53250000D02*
X105800000Y-49350000D01*
X107800000Y-53250000D02*
X105800000Y-53250000D01*
X107800000Y-53250000D02*
X107800000Y-49350000D01*
%TO.C,D9*%
X123800000Y-87250000D02*
X123800000Y-83350000D01*
X125800000Y-87250000D02*
X123800000Y-87250000D01*
X125800000Y-87250000D02*
X125800000Y-83350000D01*
%TO.C,D4*%
X87800000Y-70250000D02*
X87800000Y-66350000D01*
X89800000Y-70250000D02*
X87800000Y-70250000D01*
X89800000Y-70250000D02*
X89800000Y-66350000D01*
%TO.C,D1*%
X87800000Y-53250000D02*
X87800000Y-49350000D01*
X89800000Y-53250000D02*
X87800000Y-53250000D01*
X89800000Y-53250000D02*
X89800000Y-49350000D01*
%TO.C,D8*%
X105800000Y-87250000D02*
X105800000Y-83350000D01*
X107800000Y-87250000D02*
X105800000Y-87250000D01*
X107800000Y-87250000D02*
X107800000Y-83350000D01*
%TO.C,D5*%
X105800000Y-70250000D02*
X105800000Y-66350000D01*
X107800000Y-70250000D02*
X105800000Y-70250000D01*
X107800000Y-70250000D02*
X107800000Y-66350000D01*
%TO.C,D7*%
X87800000Y-87250000D02*
X87800000Y-83350000D01*
X89800000Y-87250000D02*
X87800000Y-87250000D01*
X89800000Y-87250000D02*
X89800000Y-83350000D01*
%TO.C,D6*%
X123800000Y-70250000D02*
X123800000Y-66350000D01*
X125800000Y-70250000D02*
X123800000Y-70250000D01*
X125800000Y-70250000D02*
X125800000Y-66350000D01*
%TO.C,D10*%
X61050000Y-74400000D02*
X57150000Y-74400000D01*
X61050000Y-74400000D02*
X61050000Y-76400000D01*
X61050000Y-76400000D02*
X57150000Y-76400000D01*
%TD*%
M02*
