%TF.GenerationSoftware,KiCad,Pcbnew,8.0.6*%
%TF.CreationDate,2024-10-21T20:49:49-03:00*%
%TF.ProjectId,HC Hackpad 1.2,48432048-6163-46b7-9061-6420312e322e,rev?*%
%TF.SameCoordinates,Original*%
%TF.FileFunction,Legend,Top*%
%TF.FilePolarity,Positive*%
%FSLAX46Y46*%
G04 Gerber Fmt 4.6, Leading zero omitted, Abs format (unit mm)*
G04 Created by KiCad (PCBNEW 8.0.6) date 2024-10-21 20:49:49*
%MOMM*%
%LPD*%
G01*
G04 APERTURE LIST*
G04 Aperture macros list*
%AMRoundRect*
0 Rectangle with rounded corners*
0 $1 Rounding radius*
0 $2 $3 $4 $5 $6 $7 $8 $9 X,Y pos of 4 corners*
0 Add a 4 corners polygon primitive as box body*
4,1,4,$2,$3,$4,$5,$6,$7,$8,$9,$2,$3,0*
0 Add four circle primitives for the rounded corners*
1,1,$1+$1,$2,$3*
1,1,$1+$1,$4,$5*
1,1,$1+$1,$6,$7*
1,1,$1+$1,$8,$9*
0 Add four rect primitives between the rounded corners*
20,1,$1+$1,$2,$3,$4,$5,0*
20,1,$1+$1,$4,$5,$6,$7,0*
20,1,$1+$1,$6,$7,$8,$9,0*
20,1,$1+$1,$8,$9,$2,$3,0*%
G04 Aperture macros list end*
%ADD10C,0.150000*%
%ADD11C,0.300000*%
%ADD12C,0.120000*%
%ADD13C,0.000000*%
%ADD14C,0.100000*%
%ADD15C,0.010000*%
%ADD16C,1.700000*%
%ADD17C,4.000000*%
%ADD18C,2.200000*%
%ADD19R,1.600000X1.600000*%
%ADD20O,1.600000X1.600000*%
%ADD21R,1.700000X1.700000*%
%ADD22O,1.700000X1.700000*%
%ADD23R,2.000000X2.000000*%
%ADD24C,2.000000*%
%ADD25R,3.200000X2.000000*%
%ADD26RoundRect,0.500000X-0.500000X0.875000X-0.500000X-0.875000X0.500000X-0.875000X0.500000X0.875000X0*%
%ADD27C,1.600000*%
G04 APERTURE END LIST*
D10*
X96938095Y-84133200D02*
X97080952Y-84180819D01*
X97080952Y-84180819D02*
X97319047Y-84180819D01*
X97319047Y-84180819D02*
X97414285Y-84133200D01*
X97414285Y-84133200D02*
X97461904Y-84085580D01*
X97461904Y-84085580D02*
X97509523Y-83990342D01*
X97509523Y-83990342D02*
X97509523Y-83895104D01*
X97509523Y-83895104D02*
X97461904Y-83799866D01*
X97461904Y-83799866D02*
X97414285Y-83752247D01*
X97414285Y-83752247D02*
X97319047Y-83704628D01*
X97319047Y-83704628D02*
X97128571Y-83657009D01*
X97128571Y-83657009D02*
X97033333Y-83609390D01*
X97033333Y-83609390D02*
X96985714Y-83561771D01*
X96985714Y-83561771D02*
X96938095Y-83466533D01*
X96938095Y-83466533D02*
X96938095Y-83371295D01*
X96938095Y-83371295D02*
X96985714Y-83276057D01*
X96985714Y-83276057D02*
X97033333Y-83228438D01*
X97033333Y-83228438D02*
X97128571Y-83180819D01*
X97128571Y-83180819D02*
X97366666Y-83180819D01*
X97366666Y-83180819D02*
X97509523Y-83228438D01*
X98366666Y-83514152D02*
X98366666Y-84180819D01*
X98128571Y-83133200D02*
X97890476Y-83847485D01*
X97890476Y-83847485D02*
X98509523Y-83847485D01*
D11*
X153128572Y-114229757D02*
X152985715Y-114158328D01*
X152985715Y-114158328D02*
X152771429Y-114158328D01*
X152771429Y-114158328D02*
X152557143Y-114229757D01*
X152557143Y-114229757D02*
X152414286Y-114372614D01*
X152414286Y-114372614D02*
X152342857Y-114515471D01*
X152342857Y-114515471D02*
X152271429Y-114801185D01*
X152271429Y-114801185D02*
X152271429Y-115015471D01*
X152271429Y-115015471D02*
X152342857Y-115301185D01*
X152342857Y-115301185D02*
X152414286Y-115444042D01*
X152414286Y-115444042D02*
X152557143Y-115586900D01*
X152557143Y-115586900D02*
X152771429Y-115658328D01*
X152771429Y-115658328D02*
X152914286Y-115658328D01*
X152914286Y-115658328D02*
X153128572Y-115586900D01*
X153128572Y-115586900D02*
X153200000Y-115515471D01*
X153200000Y-115515471D02*
X153200000Y-115015471D01*
X153200000Y-115015471D02*
X152914286Y-115015471D01*
X154057143Y-114158328D02*
X154057143Y-114515471D01*
X153700000Y-114372614D02*
X154057143Y-114515471D01*
X154057143Y-114515471D02*
X154414286Y-114372614D01*
X153842857Y-114801185D02*
X154057143Y-114515471D01*
X154057143Y-114515471D02*
X154271429Y-114801185D01*
X155200000Y-114158328D02*
X155200000Y-114515471D01*
X154842857Y-114372614D02*
X155200000Y-114515471D01*
X155200000Y-114515471D02*
X155557143Y-114372614D01*
X154985714Y-114801185D02*
X155200000Y-114515471D01*
X155200000Y-114515471D02*
X155414286Y-114801185D01*
X156342857Y-114158328D02*
X156342857Y-114515471D01*
X155985714Y-114372614D02*
X156342857Y-114515471D01*
X156342857Y-114515471D02*
X156700000Y-114372614D01*
X156128571Y-114801185D02*
X156342857Y-114515471D01*
X156342857Y-114515471D02*
X156557143Y-114801185D01*
D10*
X96918095Y-103173200D02*
X97060952Y-103220819D01*
X97060952Y-103220819D02*
X97299047Y-103220819D01*
X97299047Y-103220819D02*
X97394285Y-103173200D01*
X97394285Y-103173200D02*
X97441904Y-103125580D01*
X97441904Y-103125580D02*
X97489523Y-103030342D01*
X97489523Y-103030342D02*
X97489523Y-102935104D01*
X97489523Y-102935104D02*
X97441904Y-102839866D01*
X97441904Y-102839866D02*
X97394285Y-102792247D01*
X97394285Y-102792247D02*
X97299047Y-102744628D01*
X97299047Y-102744628D02*
X97108571Y-102697009D01*
X97108571Y-102697009D02*
X97013333Y-102649390D01*
X97013333Y-102649390D02*
X96965714Y-102601771D01*
X96965714Y-102601771D02*
X96918095Y-102506533D01*
X96918095Y-102506533D02*
X96918095Y-102411295D01*
X96918095Y-102411295D02*
X96965714Y-102316057D01*
X96965714Y-102316057D02*
X97013333Y-102268438D01*
X97013333Y-102268438D02*
X97108571Y-102220819D01*
X97108571Y-102220819D02*
X97346666Y-102220819D01*
X97346666Y-102220819D02*
X97489523Y-102268438D01*
X97822857Y-102220819D02*
X98489523Y-102220819D01*
X98489523Y-102220819D02*
X98060952Y-103220819D01*
X135058095Y-84123200D02*
X135200952Y-84170819D01*
X135200952Y-84170819D02*
X135439047Y-84170819D01*
X135439047Y-84170819D02*
X135534285Y-84123200D01*
X135534285Y-84123200D02*
X135581904Y-84075580D01*
X135581904Y-84075580D02*
X135629523Y-83980342D01*
X135629523Y-83980342D02*
X135629523Y-83885104D01*
X135629523Y-83885104D02*
X135581904Y-83789866D01*
X135581904Y-83789866D02*
X135534285Y-83742247D01*
X135534285Y-83742247D02*
X135439047Y-83694628D01*
X135439047Y-83694628D02*
X135248571Y-83647009D01*
X135248571Y-83647009D02*
X135153333Y-83599390D01*
X135153333Y-83599390D02*
X135105714Y-83551771D01*
X135105714Y-83551771D02*
X135058095Y-83456533D01*
X135058095Y-83456533D02*
X135058095Y-83361295D01*
X135058095Y-83361295D02*
X135105714Y-83266057D01*
X135105714Y-83266057D02*
X135153333Y-83218438D01*
X135153333Y-83218438D02*
X135248571Y-83170819D01*
X135248571Y-83170819D02*
X135486666Y-83170819D01*
X135486666Y-83170819D02*
X135629523Y-83218438D01*
X136486666Y-83170819D02*
X136296190Y-83170819D01*
X136296190Y-83170819D02*
X136200952Y-83218438D01*
X136200952Y-83218438D02*
X136153333Y-83266057D01*
X136153333Y-83266057D02*
X136058095Y-83408914D01*
X136058095Y-83408914D02*
X136010476Y-83599390D01*
X136010476Y-83599390D02*
X136010476Y-83980342D01*
X136010476Y-83980342D02*
X136058095Y-84075580D01*
X136058095Y-84075580D02*
X136105714Y-84123200D01*
X136105714Y-84123200D02*
X136200952Y-84170819D01*
X136200952Y-84170819D02*
X136391428Y-84170819D01*
X136391428Y-84170819D02*
X136486666Y-84123200D01*
X136486666Y-84123200D02*
X136534285Y-84075580D01*
X136534285Y-84075580D02*
X136581904Y-83980342D01*
X136581904Y-83980342D02*
X136581904Y-83742247D01*
X136581904Y-83742247D02*
X136534285Y-83647009D01*
X136534285Y-83647009D02*
X136486666Y-83599390D01*
X136486666Y-83599390D02*
X136391428Y-83551771D01*
X136391428Y-83551771D02*
X136200952Y-83551771D01*
X136200952Y-83551771D02*
X136105714Y-83599390D01*
X136105714Y-83599390D02*
X136058095Y-83647009D01*
X136058095Y-83647009D02*
X136010476Y-83742247D01*
X135028095Y-65073200D02*
X135170952Y-65120819D01*
X135170952Y-65120819D02*
X135409047Y-65120819D01*
X135409047Y-65120819D02*
X135504285Y-65073200D01*
X135504285Y-65073200D02*
X135551904Y-65025580D01*
X135551904Y-65025580D02*
X135599523Y-64930342D01*
X135599523Y-64930342D02*
X135599523Y-64835104D01*
X135599523Y-64835104D02*
X135551904Y-64739866D01*
X135551904Y-64739866D02*
X135504285Y-64692247D01*
X135504285Y-64692247D02*
X135409047Y-64644628D01*
X135409047Y-64644628D02*
X135218571Y-64597009D01*
X135218571Y-64597009D02*
X135123333Y-64549390D01*
X135123333Y-64549390D02*
X135075714Y-64501771D01*
X135075714Y-64501771D02*
X135028095Y-64406533D01*
X135028095Y-64406533D02*
X135028095Y-64311295D01*
X135028095Y-64311295D02*
X135075714Y-64216057D01*
X135075714Y-64216057D02*
X135123333Y-64168438D01*
X135123333Y-64168438D02*
X135218571Y-64120819D01*
X135218571Y-64120819D02*
X135456666Y-64120819D01*
X135456666Y-64120819D02*
X135599523Y-64168438D01*
X135932857Y-64120819D02*
X136551904Y-64120819D01*
X136551904Y-64120819D02*
X136218571Y-64501771D01*
X136218571Y-64501771D02*
X136361428Y-64501771D01*
X136361428Y-64501771D02*
X136456666Y-64549390D01*
X136456666Y-64549390D02*
X136504285Y-64597009D01*
X136504285Y-64597009D02*
X136551904Y-64692247D01*
X136551904Y-64692247D02*
X136551904Y-64930342D01*
X136551904Y-64930342D02*
X136504285Y-65025580D01*
X136504285Y-65025580D02*
X136456666Y-65073200D01*
X136456666Y-65073200D02*
X136361428Y-65120819D01*
X136361428Y-65120819D02*
X136075714Y-65120819D01*
X136075714Y-65120819D02*
X135980476Y-65073200D01*
X135980476Y-65073200D02*
X135932857Y-65025580D01*
X115988095Y-65073200D02*
X116130952Y-65120819D01*
X116130952Y-65120819D02*
X116369047Y-65120819D01*
X116369047Y-65120819D02*
X116464285Y-65073200D01*
X116464285Y-65073200D02*
X116511904Y-65025580D01*
X116511904Y-65025580D02*
X116559523Y-64930342D01*
X116559523Y-64930342D02*
X116559523Y-64835104D01*
X116559523Y-64835104D02*
X116511904Y-64739866D01*
X116511904Y-64739866D02*
X116464285Y-64692247D01*
X116464285Y-64692247D02*
X116369047Y-64644628D01*
X116369047Y-64644628D02*
X116178571Y-64597009D01*
X116178571Y-64597009D02*
X116083333Y-64549390D01*
X116083333Y-64549390D02*
X116035714Y-64501771D01*
X116035714Y-64501771D02*
X115988095Y-64406533D01*
X115988095Y-64406533D02*
X115988095Y-64311295D01*
X115988095Y-64311295D02*
X116035714Y-64216057D01*
X116035714Y-64216057D02*
X116083333Y-64168438D01*
X116083333Y-64168438D02*
X116178571Y-64120819D01*
X116178571Y-64120819D02*
X116416666Y-64120819D01*
X116416666Y-64120819D02*
X116559523Y-64168438D01*
X116940476Y-64216057D02*
X116988095Y-64168438D01*
X116988095Y-64168438D02*
X117083333Y-64120819D01*
X117083333Y-64120819D02*
X117321428Y-64120819D01*
X117321428Y-64120819D02*
X117416666Y-64168438D01*
X117416666Y-64168438D02*
X117464285Y-64216057D01*
X117464285Y-64216057D02*
X117511904Y-64311295D01*
X117511904Y-64311295D02*
X117511904Y-64406533D01*
X117511904Y-64406533D02*
X117464285Y-64549390D01*
X117464285Y-64549390D02*
X116892857Y-65120819D01*
X116892857Y-65120819D02*
X117511904Y-65120819D01*
X115998095Y-103183200D02*
X116140952Y-103230819D01*
X116140952Y-103230819D02*
X116379047Y-103230819D01*
X116379047Y-103230819D02*
X116474285Y-103183200D01*
X116474285Y-103183200D02*
X116521904Y-103135580D01*
X116521904Y-103135580D02*
X116569523Y-103040342D01*
X116569523Y-103040342D02*
X116569523Y-102945104D01*
X116569523Y-102945104D02*
X116521904Y-102849866D01*
X116521904Y-102849866D02*
X116474285Y-102802247D01*
X116474285Y-102802247D02*
X116379047Y-102754628D01*
X116379047Y-102754628D02*
X116188571Y-102707009D01*
X116188571Y-102707009D02*
X116093333Y-102659390D01*
X116093333Y-102659390D02*
X116045714Y-102611771D01*
X116045714Y-102611771D02*
X115998095Y-102516533D01*
X115998095Y-102516533D02*
X115998095Y-102421295D01*
X115998095Y-102421295D02*
X116045714Y-102326057D01*
X116045714Y-102326057D02*
X116093333Y-102278438D01*
X116093333Y-102278438D02*
X116188571Y-102230819D01*
X116188571Y-102230819D02*
X116426666Y-102230819D01*
X116426666Y-102230819D02*
X116569523Y-102278438D01*
X117140952Y-102659390D02*
X117045714Y-102611771D01*
X117045714Y-102611771D02*
X116998095Y-102564152D01*
X116998095Y-102564152D02*
X116950476Y-102468914D01*
X116950476Y-102468914D02*
X116950476Y-102421295D01*
X116950476Y-102421295D02*
X116998095Y-102326057D01*
X116998095Y-102326057D02*
X117045714Y-102278438D01*
X117045714Y-102278438D02*
X117140952Y-102230819D01*
X117140952Y-102230819D02*
X117331428Y-102230819D01*
X117331428Y-102230819D02*
X117426666Y-102278438D01*
X117426666Y-102278438D02*
X117474285Y-102326057D01*
X117474285Y-102326057D02*
X117521904Y-102421295D01*
X117521904Y-102421295D02*
X117521904Y-102468914D01*
X117521904Y-102468914D02*
X117474285Y-102564152D01*
X117474285Y-102564152D02*
X117426666Y-102611771D01*
X117426666Y-102611771D02*
X117331428Y-102659390D01*
X117331428Y-102659390D02*
X117140952Y-102659390D01*
X117140952Y-102659390D02*
X117045714Y-102707009D01*
X117045714Y-102707009D02*
X116998095Y-102754628D01*
X116998095Y-102754628D02*
X116950476Y-102849866D01*
X116950476Y-102849866D02*
X116950476Y-103040342D01*
X116950476Y-103040342D02*
X116998095Y-103135580D01*
X116998095Y-103135580D02*
X117045714Y-103183200D01*
X117045714Y-103183200D02*
X117140952Y-103230819D01*
X117140952Y-103230819D02*
X117331428Y-103230819D01*
X117331428Y-103230819D02*
X117426666Y-103183200D01*
X117426666Y-103183200D02*
X117474285Y-103135580D01*
X117474285Y-103135580D02*
X117521904Y-103040342D01*
X117521904Y-103040342D02*
X117521904Y-102849866D01*
X117521904Y-102849866D02*
X117474285Y-102754628D01*
X117474285Y-102754628D02*
X117426666Y-102707009D01*
X117426666Y-102707009D02*
X117331428Y-102659390D01*
D11*
X135248421Y-41251199D02*
X135105564Y-41179770D01*
X135105564Y-41179770D02*
X134891278Y-41179770D01*
X134891278Y-41179770D02*
X134676992Y-41251199D01*
X134676992Y-41251199D02*
X134534135Y-41394056D01*
X134534135Y-41394056D02*
X134462706Y-41536913D01*
X134462706Y-41536913D02*
X134391278Y-41822627D01*
X134391278Y-41822627D02*
X134391278Y-42036913D01*
X134391278Y-42036913D02*
X134462706Y-42322627D01*
X134462706Y-42322627D02*
X134534135Y-42465484D01*
X134534135Y-42465484D02*
X134676992Y-42608342D01*
X134676992Y-42608342D02*
X134891278Y-42679770D01*
X134891278Y-42679770D02*
X135034135Y-42679770D01*
X135034135Y-42679770D02*
X135248421Y-42608342D01*
X135248421Y-42608342D02*
X135319849Y-42536913D01*
X135319849Y-42536913D02*
X135319849Y-42036913D01*
X135319849Y-42036913D02*
X135034135Y-42036913D01*
X136176992Y-41179770D02*
X136176992Y-41536913D01*
X135819849Y-41394056D02*
X136176992Y-41536913D01*
X136176992Y-41536913D02*
X136534135Y-41394056D01*
X135962706Y-41822627D02*
X136176992Y-41536913D01*
X136176992Y-41536913D02*
X136391278Y-41822627D01*
X137319849Y-41179770D02*
X137319849Y-41536913D01*
X136962706Y-41394056D02*
X137319849Y-41536913D01*
X137319849Y-41536913D02*
X137676992Y-41394056D01*
X137105563Y-41822627D02*
X137319849Y-41536913D01*
X137319849Y-41536913D02*
X137534135Y-41822627D01*
X138462706Y-41179770D02*
X138462706Y-41536913D01*
X138105563Y-41394056D02*
X138462706Y-41536913D01*
X138462706Y-41536913D02*
X138819849Y-41394056D01*
X138248420Y-41822627D02*
X138462706Y-41536913D01*
X138462706Y-41536913D02*
X138676992Y-41822627D01*
D10*
X96928095Y-65083200D02*
X97070952Y-65130819D01*
X97070952Y-65130819D02*
X97309047Y-65130819D01*
X97309047Y-65130819D02*
X97404285Y-65083200D01*
X97404285Y-65083200D02*
X97451904Y-65035580D01*
X97451904Y-65035580D02*
X97499523Y-64940342D01*
X97499523Y-64940342D02*
X97499523Y-64845104D01*
X97499523Y-64845104D02*
X97451904Y-64749866D01*
X97451904Y-64749866D02*
X97404285Y-64702247D01*
X97404285Y-64702247D02*
X97309047Y-64654628D01*
X97309047Y-64654628D02*
X97118571Y-64607009D01*
X97118571Y-64607009D02*
X97023333Y-64559390D01*
X97023333Y-64559390D02*
X96975714Y-64511771D01*
X96975714Y-64511771D02*
X96928095Y-64416533D01*
X96928095Y-64416533D02*
X96928095Y-64321295D01*
X96928095Y-64321295D02*
X96975714Y-64226057D01*
X96975714Y-64226057D02*
X97023333Y-64178438D01*
X97023333Y-64178438D02*
X97118571Y-64130819D01*
X97118571Y-64130819D02*
X97356666Y-64130819D01*
X97356666Y-64130819D02*
X97499523Y-64178438D01*
X98451904Y-65130819D02*
X97880476Y-65130819D01*
X98166190Y-65130819D02*
X98166190Y-64130819D01*
X98166190Y-64130819D02*
X98070952Y-64273676D01*
X98070952Y-64273676D02*
X97975714Y-64368914D01*
X97975714Y-64368914D02*
X97880476Y-64416533D01*
X116008095Y-84123200D02*
X116150952Y-84170819D01*
X116150952Y-84170819D02*
X116389047Y-84170819D01*
X116389047Y-84170819D02*
X116484285Y-84123200D01*
X116484285Y-84123200D02*
X116531904Y-84075580D01*
X116531904Y-84075580D02*
X116579523Y-83980342D01*
X116579523Y-83980342D02*
X116579523Y-83885104D01*
X116579523Y-83885104D02*
X116531904Y-83789866D01*
X116531904Y-83789866D02*
X116484285Y-83742247D01*
X116484285Y-83742247D02*
X116389047Y-83694628D01*
X116389047Y-83694628D02*
X116198571Y-83647009D01*
X116198571Y-83647009D02*
X116103333Y-83599390D01*
X116103333Y-83599390D02*
X116055714Y-83551771D01*
X116055714Y-83551771D02*
X116008095Y-83456533D01*
X116008095Y-83456533D02*
X116008095Y-83361295D01*
X116008095Y-83361295D02*
X116055714Y-83266057D01*
X116055714Y-83266057D02*
X116103333Y-83218438D01*
X116103333Y-83218438D02*
X116198571Y-83170819D01*
X116198571Y-83170819D02*
X116436666Y-83170819D01*
X116436666Y-83170819D02*
X116579523Y-83218438D01*
X117484285Y-83170819D02*
X117008095Y-83170819D01*
X117008095Y-83170819D02*
X116960476Y-83647009D01*
X116960476Y-83647009D02*
X117008095Y-83599390D01*
X117008095Y-83599390D02*
X117103333Y-83551771D01*
X117103333Y-83551771D02*
X117341428Y-83551771D01*
X117341428Y-83551771D02*
X117436666Y-83599390D01*
X117436666Y-83599390D02*
X117484285Y-83647009D01*
X117484285Y-83647009D02*
X117531904Y-83742247D01*
X117531904Y-83742247D02*
X117531904Y-83980342D01*
X117531904Y-83980342D02*
X117484285Y-84075580D01*
X117484285Y-84075580D02*
X117436666Y-84123200D01*
X117436666Y-84123200D02*
X117341428Y-84170819D01*
X117341428Y-84170819D02*
X117103333Y-84170819D01*
X117103333Y-84170819D02*
X117008095Y-84123200D01*
X117008095Y-84123200D02*
X116960476Y-84075580D01*
X148206667Y-44877200D02*
X148349524Y-44924819D01*
X148349524Y-44924819D02*
X148587619Y-44924819D01*
X148587619Y-44924819D02*
X148682857Y-44877200D01*
X148682857Y-44877200D02*
X148730476Y-44829580D01*
X148730476Y-44829580D02*
X148778095Y-44734342D01*
X148778095Y-44734342D02*
X148778095Y-44639104D01*
X148778095Y-44639104D02*
X148730476Y-44543866D01*
X148730476Y-44543866D02*
X148682857Y-44496247D01*
X148682857Y-44496247D02*
X148587619Y-44448628D01*
X148587619Y-44448628D02*
X148397143Y-44401009D01*
X148397143Y-44401009D02*
X148301905Y-44353390D01*
X148301905Y-44353390D02*
X148254286Y-44305771D01*
X148254286Y-44305771D02*
X148206667Y-44210533D01*
X148206667Y-44210533D02*
X148206667Y-44115295D01*
X148206667Y-44115295D02*
X148254286Y-44020057D01*
X148254286Y-44020057D02*
X148301905Y-43972438D01*
X148301905Y-43972438D02*
X148397143Y-43924819D01*
X148397143Y-43924819D02*
X148635238Y-43924819D01*
X148635238Y-43924819D02*
X148778095Y-43972438D01*
X149111429Y-43924819D02*
X149349524Y-44924819D01*
X149349524Y-44924819D02*
X149540000Y-44210533D01*
X149540000Y-44210533D02*
X149730476Y-44924819D01*
X149730476Y-44924819D02*
X149968572Y-43924819D01*
X150873333Y-44924819D02*
X150301905Y-44924819D01*
X150587619Y-44924819D02*
X150587619Y-43924819D01*
X150587619Y-43924819D02*
X150492381Y-44067676D01*
X150492381Y-44067676D02*
X150397143Y-44162914D01*
X150397143Y-44162914D02*
X150301905Y-44210533D01*
X135018095Y-103173200D02*
X135160952Y-103220819D01*
X135160952Y-103220819D02*
X135399047Y-103220819D01*
X135399047Y-103220819D02*
X135494285Y-103173200D01*
X135494285Y-103173200D02*
X135541904Y-103125580D01*
X135541904Y-103125580D02*
X135589523Y-103030342D01*
X135589523Y-103030342D02*
X135589523Y-102935104D01*
X135589523Y-102935104D02*
X135541904Y-102839866D01*
X135541904Y-102839866D02*
X135494285Y-102792247D01*
X135494285Y-102792247D02*
X135399047Y-102744628D01*
X135399047Y-102744628D02*
X135208571Y-102697009D01*
X135208571Y-102697009D02*
X135113333Y-102649390D01*
X135113333Y-102649390D02*
X135065714Y-102601771D01*
X135065714Y-102601771D02*
X135018095Y-102506533D01*
X135018095Y-102506533D02*
X135018095Y-102411295D01*
X135018095Y-102411295D02*
X135065714Y-102316057D01*
X135065714Y-102316057D02*
X135113333Y-102268438D01*
X135113333Y-102268438D02*
X135208571Y-102220819D01*
X135208571Y-102220819D02*
X135446666Y-102220819D01*
X135446666Y-102220819D02*
X135589523Y-102268438D01*
X136065714Y-103220819D02*
X136256190Y-103220819D01*
X136256190Y-103220819D02*
X136351428Y-103173200D01*
X136351428Y-103173200D02*
X136399047Y-103125580D01*
X136399047Y-103125580D02*
X136494285Y-102982723D01*
X136494285Y-102982723D02*
X136541904Y-102792247D01*
X136541904Y-102792247D02*
X136541904Y-102411295D01*
X136541904Y-102411295D02*
X136494285Y-102316057D01*
X136494285Y-102316057D02*
X136446666Y-102268438D01*
X136446666Y-102268438D02*
X136351428Y-102220819D01*
X136351428Y-102220819D02*
X136160952Y-102220819D01*
X136160952Y-102220819D02*
X136065714Y-102268438D01*
X136065714Y-102268438D02*
X136018095Y-102316057D01*
X136018095Y-102316057D02*
X135970476Y-102411295D01*
X135970476Y-102411295D02*
X135970476Y-102649390D01*
X135970476Y-102649390D02*
X136018095Y-102744628D01*
X136018095Y-102744628D02*
X136065714Y-102792247D01*
X136065714Y-102792247D02*
X136160952Y-102839866D01*
X136160952Y-102839866D02*
X136351428Y-102839866D01*
X136351428Y-102839866D02*
X136446666Y-102792247D01*
X136446666Y-102792247D02*
X136494285Y-102744628D01*
X136494285Y-102744628D02*
X136541904Y-102649390D01*
D12*
%TO.C,S4*%
X90715000Y-84615000D02*
X104685000Y-84615000D01*
X90715000Y-98585000D02*
X90715000Y-84615000D01*
X104685000Y-84615000D02*
X104685000Y-98585000D01*
X104685000Y-98585000D02*
X90715000Y-98585000D01*
D13*
%TO.C,G\u002A\u002A\u002A*%
G36*
X154890201Y-111252342D02*
G01*
X155381969Y-111342103D01*
X155400391Y-111346766D01*
X155876897Y-111502025D01*
X156321999Y-111714134D01*
X156731974Y-111979294D01*
X157103100Y-112293705D01*
X157431652Y-112653568D01*
X157713907Y-113055086D01*
X157946143Y-113494459D01*
X158124636Y-113967888D01*
X158185916Y-114188944D01*
X158229373Y-114418039D01*
X158259765Y-114688596D01*
X158275947Y-114976483D01*
X158276772Y-115257568D01*
X158261093Y-115507721D01*
X158252001Y-115580062D01*
X158148106Y-116072163D01*
X157985857Y-116540324D01*
X157769002Y-116979699D01*
X157501289Y-117385444D01*
X157186465Y-117752715D01*
X156828278Y-118076668D01*
X156430477Y-118352458D01*
X155996809Y-118575242D01*
X155905295Y-118613334D01*
X155765269Y-118668796D01*
X155656205Y-118705620D01*
X155574016Y-118717908D01*
X155514611Y-118699758D01*
X155473905Y-118645273D01*
X155447807Y-118548553D01*
X155432230Y-118403697D01*
X155423086Y-118204806D01*
X155416286Y-117945982D01*
X155415329Y-117906286D01*
X155408771Y-117658989D01*
X155401966Y-117468349D01*
X155393933Y-117324360D01*
X155383691Y-117217015D01*
X155370260Y-117136309D01*
X155352660Y-117072236D01*
X155329910Y-117014790D01*
X155327439Y-117009301D01*
X155280090Y-116915878D01*
X155237287Y-116849407D01*
X155220443Y-116832334D01*
X155185931Y-116797656D01*
X155207081Y-116767256D01*
X155287852Y-116738443D01*
X155391666Y-116715929D01*
X155760411Y-116622481D01*
X156074539Y-116491147D01*
X156335288Y-116320445D01*
X156543892Y-116108889D01*
X156701587Y-115854997D01*
X156809609Y-115557284D01*
X156869194Y-115214266D01*
X156882840Y-114925177D01*
X156864138Y-114607100D01*
X156805803Y-114337186D01*
X156706001Y-114108682D01*
X156629931Y-113994474D01*
X156564335Y-113905171D01*
X156533097Y-113842091D01*
X156529781Y-113778731D01*
X156547950Y-113688585D01*
X156551776Y-113672596D01*
X156575256Y-113491774D01*
X156572046Y-113280464D01*
X156543655Y-113068588D01*
X156515574Y-112955000D01*
X156484004Y-112866535D01*
X156447650Y-112825358D01*
X156387089Y-112813719D01*
X156360557Y-112813333D01*
X156220385Y-112832848D01*
X156042940Y-112887620D01*
X155843578Y-112971985D01*
X155639581Y-113079166D01*
X155411550Y-113211187D01*
X155189108Y-113156437D01*
X155027795Y-113128644D01*
X154819983Y-113110137D01*
X154584559Y-113100923D01*
X154340410Y-113101011D01*
X154106422Y-113110410D01*
X153901484Y-113129128D01*
X153750000Y-113155775D01*
X153533333Y-113209795D01*
X153166666Y-113026688D01*
X152939910Y-112921404D01*
X152755977Y-112852988D01*
X152629532Y-112824350D01*
X152459065Y-112805120D01*
X152404532Y-112965165D01*
X152375788Y-113088669D01*
X152357515Y-113245951D01*
X152350382Y-113414358D01*
X152355061Y-113571240D01*
X152372222Y-113693946D01*
X152381992Y-113726473D01*
X152394160Y-113784425D01*
X152379126Y-113846910D01*
X152330579Y-113933600D01*
X152301230Y-113978171D01*
X152149304Y-114258172D01*
X152056885Y-114560064D01*
X152023309Y-114887596D01*
X152047907Y-115244517D01*
X152061254Y-115328474D01*
X152147593Y-115664828D01*
X152281710Y-115955092D01*
X152464216Y-116199870D01*
X152695721Y-116399760D01*
X152976837Y-116555363D01*
X153308174Y-116667281D01*
X153455701Y-116700104D01*
X153744735Y-116756050D01*
X153666684Y-116876358D01*
X153604985Y-116990974D01*
X153553671Y-117118113D01*
X153547175Y-117138993D01*
X153518688Y-117221606D01*
X153481150Y-117271408D01*
X153414938Y-117305496D01*
X153322796Y-117334497D01*
X153095359Y-117371905D01*
X152885615Y-117346029D01*
X152692000Y-117256241D01*
X152512951Y-117101912D01*
X152402134Y-116964584D01*
X152244612Y-116777152D01*
X152083245Y-116653344D01*
X151913318Y-116590118D01*
X151805404Y-116580000D01*
X151704096Y-116587725D01*
X151653585Y-116609018D01*
X151650000Y-116618630D01*
X151672627Y-116657811D01*
X151733057Y-116729385D01*
X151820107Y-116820522D01*
X151860618Y-116860297D01*
X152030320Y-117047548D01*
X152162811Y-117253512D01*
X152200264Y-117326404D01*
X152276200Y-117470559D01*
X152343727Y-117569456D01*
X152416491Y-117640747D01*
X152475043Y-117681907D01*
X152664682Y-117776496D01*
X152874154Y-117827955D01*
X153118412Y-117839240D01*
X153237255Y-117832526D01*
X153516666Y-117809855D01*
X153516666Y-118194927D01*
X153515448Y-118364348D01*
X153510477Y-118480512D01*
X153499778Y-118556805D01*
X153481374Y-118606614D01*
X153453291Y-118643325D01*
X153450000Y-118646666D01*
X153391083Y-118690956D01*
X153321144Y-118707597D01*
X153227082Y-118695570D01*
X153095792Y-118653856D01*
X152984590Y-118610464D01*
X152545026Y-118396624D01*
X152139702Y-118128075D01*
X151772615Y-117809521D01*
X151447758Y-117445664D01*
X151169126Y-117041208D01*
X150940716Y-116600854D01*
X150766521Y-116129306D01*
X150714083Y-115937722D01*
X150670626Y-115708627D01*
X150640234Y-115438070D01*
X150624052Y-115150183D01*
X150623227Y-114869098D01*
X150638906Y-114618945D01*
X150647998Y-114546604D01*
X150753929Y-114041865D01*
X150919626Y-113566496D01*
X151144670Y-113121332D01*
X151428642Y-112707211D01*
X151749523Y-112346398D01*
X152125482Y-112016620D01*
X152535293Y-111742038D01*
X152973186Y-111524231D01*
X153433393Y-111364778D01*
X153910144Y-111265259D01*
X154397669Y-111227253D01*
X154890201Y-111252342D01*
G37*
D14*
%TO.C,D3*%
X135790000Y-54300000D02*
X136390000Y-54700000D01*
X135790000Y-54700000D02*
X135290000Y-54700000D01*
X135790000Y-55100000D02*
X135790000Y-54300000D01*
X136390000Y-54700000D02*
X135790000Y-55100000D01*
X136390000Y-55250000D02*
X136390000Y-54150000D01*
X136790000Y-54700000D02*
X136390000Y-54700000D01*
D12*
%TO.C,S7*%
X90695000Y-103655000D02*
X104665000Y-103655000D01*
X90695000Y-117625000D02*
X90695000Y-103655000D01*
X104665000Y-103655000D02*
X104665000Y-117625000D01*
X104665000Y-117625000D02*
X90695000Y-117625000D01*
D15*
%TO.C,REF\u002A\u002A*%
X106213921Y-38066490D02*
X106317027Y-38102238D01*
X106413022Y-38158507D01*
X106498753Y-38235288D01*
X106571070Y-38332573D01*
X106603555Y-38393892D01*
X106631668Y-38479660D01*
X106645295Y-38578677D01*
X106643786Y-38680471D01*
X106627031Y-38772714D01*
X106581237Y-38885432D01*
X106514832Y-38983207D01*
X106431191Y-39064115D01*
X106333688Y-39126232D01*
X106225700Y-39167634D01*
X106110601Y-39186397D01*
X105991766Y-39180598D01*
X105933189Y-39168206D01*
X105819028Y-39123797D01*
X105717635Y-39056033D01*
X105631455Y-38967001D01*
X105562934Y-38858791D01*
X105557136Y-38846973D01*
X105537096Y-38802628D01*
X105524513Y-38765280D01*
X105517681Y-38725880D01*
X105514895Y-38675381D01*
X105514432Y-38620433D01*
X105515197Y-38554415D01*
X105518648Y-38506689D01*
X105526523Y-38468103D01*
X105540557Y-38429506D01*
X105557880Y-38391426D01*
X105622495Y-38283328D01*
X105702066Y-38195803D01*
X105793440Y-38128841D01*
X105893464Y-38082436D01*
X105998988Y-38056581D01*
X106106858Y-38051268D01*
X106213921Y-38066490D01*
G36*
X106213921Y-38066490D02*
G01*
X106317027Y-38102238D01*
X106413022Y-38158507D01*
X106498753Y-38235288D01*
X106571070Y-38332573D01*
X106603555Y-38393892D01*
X106631668Y-38479660D01*
X106645295Y-38578677D01*
X106643786Y-38680471D01*
X106627031Y-38772714D01*
X106581237Y-38885432D01*
X106514832Y-38983207D01*
X106431191Y-39064115D01*
X106333688Y-39126232D01*
X106225700Y-39167634D01*
X106110601Y-39186397D01*
X105991766Y-39180598D01*
X105933189Y-39168206D01*
X105819028Y-39123797D01*
X105717635Y-39056033D01*
X105631455Y-38967001D01*
X105562934Y-38858791D01*
X105557136Y-38846973D01*
X105537096Y-38802628D01*
X105524513Y-38765280D01*
X105517681Y-38725880D01*
X105514895Y-38675381D01*
X105514432Y-38620433D01*
X105515197Y-38554415D01*
X105518648Y-38506689D01*
X105526523Y-38468103D01*
X105540557Y-38429506D01*
X105557880Y-38391426D01*
X105622495Y-38283328D01*
X105702066Y-38195803D01*
X105793440Y-38128841D01*
X105893464Y-38082436D01*
X105998988Y-38056581D01*
X106106858Y-38051268D01*
X106213921Y-38066490D01*
G37*
X109379962Y-39190499D02*
X109528014Y-39206707D01*
X109671452Y-39235718D01*
X109816110Y-39279045D01*
X109967824Y-39338201D01*
X110132428Y-39414700D01*
X110162071Y-39429517D01*
X110230098Y-39463031D01*
X110294256Y-39493208D01*
X110348215Y-39517166D01*
X110385640Y-39532024D01*
X110391389Y-39533895D01*
X110446486Y-39550402D01*
X110199851Y-39909201D01*
X110139552Y-39996893D01*
X110084422Y-40077012D01*
X110036336Y-40146836D01*
X109997168Y-40203647D01*
X109968794Y-40244723D01*
X109953087Y-40267346D01*
X109950536Y-40270928D01*
X109940171Y-40263438D01*
X109914660Y-40240918D01*
X109878563Y-40207461D01*
X109858642Y-40188550D01*
X109745773Y-40098778D01*
X109619014Y-40030561D01*
X109509783Y-39993195D01*
X109444214Y-39981460D01*
X109362116Y-39974308D01*
X109273144Y-39971874D01*
X109186956Y-39974288D01*
X109113205Y-39981683D01*
X109083776Y-39987347D01*
X108951133Y-40032982D01*
X108831606Y-40102663D01*
X108725283Y-40196260D01*
X108632253Y-40313649D01*
X108552605Y-40454700D01*
X108486426Y-40619286D01*
X108433806Y-40807280D01*
X108402533Y-40968217D01*
X108394374Y-41039263D01*
X108388815Y-41131046D01*
X108385802Y-41236968D01*
X108385281Y-41350434D01*
X108387200Y-41464849D01*
X108391503Y-41573617D01*
X108398137Y-41670143D01*
X108407049Y-41747831D01*
X108408979Y-41759817D01*
X108451499Y-41952892D01*
X108509433Y-42123773D01*
X108583133Y-42273224D01*
X108672951Y-42402011D01*
X108736707Y-42471639D01*
X108851286Y-42566173D01*
X108976942Y-42636246D01*
X109111557Y-42681477D01*
X109253011Y-42701484D01*
X109399183Y-42695885D01*
X109547955Y-42664300D01*
X109635911Y-42633394D01*
X109757629Y-42571506D01*
X109883080Y-42482729D01*
X109953353Y-42422694D01*
X109992811Y-42387947D01*
X110023812Y-42362454D01*
X110041458Y-42350170D01*
X110043648Y-42349795D01*
X110051524Y-42362347D01*
X110071932Y-42395516D01*
X110103132Y-42446458D01*
X110143386Y-42512331D01*
X110190957Y-42590289D01*
X110244104Y-42677490D01*
X110273687Y-42726067D01*
X110499648Y-43097215D01*
X110217527Y-43236639D01*
X110115522Y-43286719D01*
X110032889Y-43326210D01*
X109964578Y-43357073D01*
X109905537Y-43381268D01*
X109850714Y-43400758D01*
X109795060Y-43417503D01*
X109733523Y-43433465D01*
X109674540Y-43447482D01*
X109622115Y-43458329D01*
X109567288Y-43466526D01*
X109504572Y-43472528D01*
X109428477Y-43476790D01*
X109333516Y-43479767D01*
X109269513Y-43481052D01*
X109178192Y-43481930D01*
X109090627Y-43481487D01*
X109012612Y-43479852D01*
X108949942Y-43477149D01*
X108908413Y-43473505D01*
X108905952Y-43473142D01*
X108690303Y-43426487D01*
X108487793Y-43355729D01*
X108298495Y-43260914D01*
X108122479Y-43142089D01*
X107959816Y-42999300D01*
X107810578Y-42832594D01*
X107702496Y-42684433D01*
X107587434Y-42490502D01*
X107494423Y-42285699D01*
X107423013Y-42068383D01*
X107372756Y-41836912D01*
X107343201Y-41589643D01*
X107333889Y-41338559D01*
X107341548Y-41095670D01*
X107365613Y-40871570D01*
X107406852Y-40662477D01*
X107466027Y-40464613D01*
X107543904Y-40274196D01*
X107553203Y-40254468D01*
X107655648Y-40070059D01*
X107781472Y-39894576D01*
X107927112Y-39731650D01*
X108089001Y-39584914D01*
X108263576Y-39458001D01*
X108426244Y-39364905D01*
X108590573Y-39291991D01*
X108755251Y-39239174D01*
X108926652Y-39205015D01*
X109111153Y-39188078D01*
X109221459Y-39185580D01*
X109379962Y-39190499D01*
G36*
X109379962Y-39190499D02*
G01*
X109528014Y-39206707D01*
X109671452Y-39235718D01*
X109816110Y-39279045D01*
X109967824Y-39338201D01*
X110132428Y-39414700D01*
X110162071Y-39429517D01*
X110230098Y-39463031D01*
X110294256Y-39493208D01*
X110348215Y-39517166D01*
X110385640Y-39532024D01*
X110391389Y-39533895D01*
X110446486Y-39550402D01*
X110199851Y-39909201D01*
X110139552Y-39996893D01*
X110084422Y-40077012D01*
X110036336Y-40146836D01*
X109997168Y-40203647D01*
X109968794Y-40244723D01*
X109953087Y-40267346D01*
X109950536Y-40270928D01*
X109940171Y-40263438D01*
X109914660Y-40240918D01*
X109878563Y-40207461D01*
X109858642Y-40188550D01*
X109745773Y-40098778D01*
X109619014Y-40030561D01*
X109509783Y-39993195D01*
X109444214Y-39981460D01*
X109362116Y-39974308D01*
X109273144Y-39971874D01*
X109186956Y-39974288D01*
X109113205Y-39981683D01*
X109083776Y-39987347D01*
X108951133Y-40032982D01*
X108831606Y-40102663D01*
X108725283Y-40196260D01*
X108632253Y-40313649D01*
X108552605Y-40454700D01*
X108486426Y-40619286D01*
X108433806Y-40807280D01*
X108402533Y-40968217D01*
X108394374Y-41039263D01*
X108388815Y-41131046D01*
X108385802Y-41236968D01*
X108385281Y-41350434D01*
X108387200Y-41464849D01*
X108391503Y-41573617D01*
X108398137Y-41670143D01*
X108407049Y-41747831D01*
X108408979Y-41759817D01*
X108451499Y-41952892D01*
X108509433Y-42123773D01*
X108583133Y-42273224D01*
X108672951Y-42402011D01*
X108736707Y-42471639D01*
X108851286Y-42566173D01*
X108976942Y-42636246D01*
X109111557Y-42681477D01*
X109253011Y-42701484D01*
X109399183Y-42695885D01*
X109547955Y-42664300D01*
X109635911Y-42633394D01*
X109757629Y-42571506D01*
X109883080Y-42482729D01*
X109953353Y-42422694D01*
X109992811Y-42387947D01*
X110023812Y-42362454D01*
X110041458Y-42350170D01*
X110043648Y-42349795D01*
X110051524Y-42362347D01*
X110071932Y-42395516D01*
X110103132Y-42446458D01*
X110143386Y-42512331D01*
X110190957Y-42590289D01*
X110244104Y-42677490D01*
X110273687Y-42726067D01*
X110499648Y-43097215D01*
X110217527Y-43236639D01*
X110115522Y-43286719D01*
X110032889Y-43326210D01*
X109964578Y-43357073D01*
X109905537Y-43381268D01*
X109850714Y-43400758D01*
X109795060Y-43417503D01*
X109733523Y-43433465D01*
X109674540Y-43447482D01*
X109622115Y-43458329D01*
X109567288Y-43466526D01*
X109504572Y-43472528D01*
X109428477Y-43476790D01*
X109333516Y-43479767D01*
X109269513Y-43481052D01*
X109178192Y-43481930D01*
X109090627Y-43481487D01*
X109012612Y-43479852D01*
X108949942Y-43477149D01*
X108908413Y-43473505D01*
X108905952Y-43473142D01*
X108690303Y-43426487D01*
X108487793Y-43355729D01*
X108298495Y-43260914D01*
X108122479Y-43142089D01*
X107959816Y-42999300D01*
X107810578Y-42832594D01*
X107702496Y-42684433D01*
X107587434Y-42490502D01*
X107494423Y-42285699D01*
X107423013Y-42068383D01*
X107372756Y-41836912D01*
X107343201Y-41589643D01*
X107333889Y-41338559D01*
X107341548Y-41095670D01*
X107365613Y-40871570D01*
X107406852Y-40662477D01*
X107466027Y-40464613D01*
X107543904Y-40274196D01*
X107553203Y-40254468D01*
X107655648Y-40070059D01*
X107781472Y-39894576D01*
X107927112Y-39731650D01*
X108089001Y-39584914D01*
X108263576Y-39458001D01*
X108426244Y-39364905D01*
X108590573Y-39291991D01*
X108755251Y-39239174D01*
X108926652Y-39205015D01*
X109111153Y-39188078D01*
X109221459Y-39185580D01*
X109379962Y-39190499D01*
G37*
X115782270Y-38986825D02*
X115899041Y-38987304D01*
X115938729Y-38987545D01*
X116484486Y-38991135D01*
X116491351Y-41084919D01*
X116492258Y-41368842D01*
X116493062Y-41626640D01*
X116493815Y-41859646D01*
X116494569Y-42069194D01*
X116495375Y-42256618D01*
X116496285Y-42423250D01*
X116497351Y-42570425D01*
X116498624Y-42699477D01*
X116500156Y-42811739D01*
X116501998Y-42908544D01*
X116504203Y-42991226D01*
X116506822Y-43061119D01*
X116509906Y-43119557D01*
X116513508Y-43167872D01*
X116517678Y-43207400D01*
X116522469Y-43239473D01*
X116527931Y-43265424D01*
X116534118Y-43286589D01*
X116541080Y-43304299D01*
X116548869Y-43319889D01*
X116557537Y-43334693D01*
X116567135Y-43350044D01*
X116577715Y-43367276D01*
X116579884Y-43370946D01*
X116616268Y-43433031D01*
X116090431Y-43429434D01*
X115564594Y-43425838D01*
X115557729Y-43310331D01*
X115553992Y-43254899D01*
X115550097Y-43222851D01*
X115544811Y-43210135D01*
X115536903Y-43212696D01*
X115530270Y-43220024D01*
X115501374Y-43246714D01*
X115454279Y-43281021D01*
X115395620Y-43318846D01*
X115332031Y-43356090D01*
X115270149Y-43388653D01*
X115222634Y-43410077D01*
X115111316Y-43445283D01*
X114983596Y-43470222D01*
X114848901Y-43483941D01*
X114716663Y-43485486D01*
X114596308Y-43473906D01*
X114594326Y-43473574D01*
X114429641Y-43432250D01*
X114275479Y-43366412D01*
X114133328Y-43277474D01*
X114004675Y-43166852D01*
X113891007Y-43035961D01*
X113793810Y-42886216D01*
X113714572Y-42719033D01*
X113671430Y-42595190D01*
X113642979Y-42491581D01*
X113621880Y-42391252D01*
X113607488Y-42288109D01*
X113599158Y-42176057D01*
X113596245Y-42049001D01*
X113597535Y-41945252D01*
X114610650Y-41945252D01*
X114615444Y-42119222D01*
X114630568Y-42268895D01*
X114656485Y-42395597D01*
X114693663Y-42500658D01*
X114742565Y-42585406D01*
X114803658Y-42651169D01*
X114874177Y-42697659D01*
X114910871Y-42715014D01*
X114942696Y-42725419D01*
X114978177Y-42730179D01*
X115025841Y-42730601D01*
X115077189Y-42728748D01*
X115178169Y-42719841D01*
X115258035Y-42702398D01*
X115283135Y-42693661D01*
X115340448Y-42667857D01*
X115400897Y-42635453D01*
X115427297Y-42619233D01*
X115495946Y-42574205D01*
X115495946Y-41146982D01*
X115420432Y-41101718D01*
X115315121Y-41050572D01*
X115207525Y-41020324D01*
X115101581Y-41010795D01*
X115001224Y-41021807D01*
X114910387Y-41053181D01*
X114833007Y-41104740D01*
X114808039Y-41129488D01*
X114747856Y-41210577D01*
X114699145Y-41308734D01*
X114661499Y-41425643D01*
X114634512Y-41562985D01*
X114617775Y-41722444D01*
X114610883Y-41905700D01*
X114610650Y-41945252D01*
X113597535Y-41945252D01*
X113598073Y-41902067D01*
X113609647Y-41676053D01*
X113632920Y-41472192D01*
X113668504Y-41287513D01*
X113717013Y-41119048D01*
X113779060Y-40963826D01*
X113801201Y-40917808D01*
X113890385Y-40767739D01*
X113998159Y-40634377D01*
X114121990Y-40519877D01*
X114259342Y-40426389D01*
X114407683Y-40356068D01*
X114496604Y-40327060D01*
X114583933Y-40309840D01*
X114689011Y-40299594D01*
X114803029Y-40296318D01*
X114917177Y-40300009D01*
X115022648Y-40310660D01*
X115107334Y-40327370D01*
X115208128Y-40360140D01*
X115305822Y-40402279D01*
X115391296Y-40449519D01*
X115436789Y-40481581D01*
X115468169Y-40505422D01*
X115490142Y-40519939D01*
X115495141Y-40522000D01*
X115496690Y-40508718D01*
X115498135Y-40470663D01*
X115499443Y-40410519D01*
X115500583Y-40330973D01*
X115501521Y-40234711D01*
X115502226Y-40124419D01*
X115502667Y-40002781D01*
X115502811Y-39878885D01*
X115502730Y-39720196D01*
X115502335Y-39586408D01*
X115501395Y-39474960D01*
X115499680Y-39383295D01*
X115496957Y-39308853D01*
X115492997Y-39249075D01*
X115487569Y-39201402D01*
X115480441Y-39163274D01*
X115471384Y-39132134D01*
X115460167Y-39105421D01*
X115446558Y-39080577D01*
X115430328Y-39055043D01*
X115428240Y-39051881D01*
X115407306Y-39018810D01*
X115394667Y-38996069D01*
X115392973Y-38991272D01*
X115406216Y-38989759D01*
X115444002Y-38988528D01*
X115503416Y-38987599D01*
X115581542Y-38986992D01*
X115675465Y-38986727D01*
X115782270Y-38986825D01*
G36*
X115782270Y-38986825D02*
G01*
X115899041Y-38987304D01*
X115938729Y-38987545D01*
X116484486Y-38991135D01*
X116491351Y-41084919D01*
X116492258Y-41368842D01*
X116493062Y-41626640D01*
X116493815Y-41859646D01*
X116494569Y-42069194D01*
X116495375Y-42256618D01*
X116496285Y-42423250D01*
X116497351Y-42570425D01*
X116498624Y-42699477D01*
X116500156Y-42811739D01*
X116501998Y-42908544D01*
X116504203Y-42991226D01*
X116506822Y-43061119D01*
X116509906Y-43119557D01*
X116513508Y-43167872D01*
X116517678Y-43207400D01*
X116522469Y-43239473D01*
X116527931Y-43265424D01*
X116534118Y-43286589D01*
X116541080Y-43304299D01*
X116548869Y-43319889D01*
X116557537Y-43334693D01*
X116567135Y-43350044D01*
X116577715Y-43367276D01*
X116579884Y-43370946D01*
X116616268Y-43433031D01*
X116090431Y-43429434D01*
X115564594Y-43425838D01*
X115557729Y-43310331D01*
X115553992Y-43254899D01*
X115550097Y-43222851D01*
X115544811Y-43210135D01*
X115536903Y-43212696D01*
X115530270Y-43220024D01*
X115501374Y-43246714D01*
X115454279Y-43281021D01*
X115395620Y-43318846D01*
X115332031Y-43356090D01*
X115270149Y-43388653D01*
X115222634Y-43410077D01*
X115111316Y-43445283D01*
X114983596Y-43470222D01*
X114848901Y-43483941D01*
X114716663Y-43485486D01*
X114596308Y-43473906D01*
X114594326Y-43473574D01*
X114429641Y-43432250D01*
X114275479Y-43366412D01*
X114133328Y-43277474D01*
X114004675Y-43166852D01*
X113891007Y-43035961D01*
X113793810Y-42886216D01*
X113714572Y-42719033D01*
X113671430Y-42595190D01*
X113642979Y-42491581D01*
X113621880Y-42391252D01*
X113607488Y-42288109D01*
X113599158Y-42176057D01*
X113596245Y-42049001D01*
X113597535Y-41945252D01*
X114610650Y-41945252D01*
X114615444Y-42119222D01*
X114630568Y-42268895D01*
X114656485Y-42395597D01*
X114693663Y-42500658D01*
X114742565Y-42585406D01*
X114803658Y-42651169D01*
X114874177Y-42697659D01*
X114910871Y-42715014D01*
X114942696Y-42725419D01*
X114978177Y-42730179D01*
X115025841Y-42730601D01*
X115077189Y-42728748D01*
X115178169Y-42719841D01*
X115258035Y-42702398D01*
X115283135Y-42693661D01*
X115340448Y-42667857D01*
X115400897Y-42635453D01*
X115427297Y-42619233D01*
X115495946Y-42574205D01*
X115495946Y-41146982D01*
X115420432Y-41101718D01*
X115315121Y-41050572D01*
X115207525Y-41020324D01*
X115101581Y-41010795D01*
X115001224Y-41021807D01*
X114910387Y-41053181D01*
X114833007Y-41104740D01*
X114808039Y-41129488D01*
X114747856Y-41210577D01*
X114699145Y-41308734D01*
X114661499Y-41425643D01*
X114634512Y-41562985D01*
X114617775Y-41722444D01*
X114610883Y-41905700D01*
X114610650Y-41945252D01*
X113597535Y-41945252D01*
X113598073Y-41902067D01*
X113609647Y-41676053D01*
X113632920Y-41472192D01*
X113668504Y-41287513D01*
X113717013Y-41119048D01*
X113779060Y-40963826D01*
X113801201Y-40917808D01*
X113890385Y-40767739D01*
X113998159Y-40634377D01*
X114121990Y-40519877D01*
X114259342Y-40426389D01*
X114407683Y-40356068D01*
X114496604Y-40327060D01*
X114583933Y-40309840D01*
X114689011Y-40299594D01*
X114803029Y-40296318D01*
X114917177Y-40300009D01*
X115022648Y-40310660D01*
X115107334Y-40327370D01*
X115208128Y-40360140D01*
X115305822Y-40402279D01*
X115391296Y-40449519D01*
X115436789Y-40481581D01*
X115468169Y-40505422D01*
X115490142Y-40519939D01*
X115495141Y-40522000D01*
X115496690Y-40508718D01*
X115498135Y-40470663D01*
X115499443Y-40410519D01*
X115500583Y-40330973D01*
X115501521Y-40234711D01*
X115502226Y-40124419D01*
X115502667Y-40002781D01*
X115502811Y-39878885D01*
X115502730Y-39720196D01*
X115502335Y-39586408D01*
X115501395Y-39474960D01*
X115499680Y-39383295D01*
X115496957Y-39308853D01*
X115492997Y-39249075D01*
X115487569Y-39201402D01*
X115480441Y-39163274D01*
X115471384Y-39132134D01*
X115460167Y-39105421D01*
X115446558Y-39080577D01*
X115430328Y-39055043D01*
X115428240Y-39051881D01*
X115407306Y-39018810D01*
X115394667Y-38996069D01*
X115392973Y-38991272D01*
X115406216Y-38989759D01*
X115444002Y-38988528D01*
X115503416Y-38987599D01*
X115581542Y-38986992D01*
X115675465Y-38986727D01*
X115782270Y-38986825D01*
G37*
X112107505Y-40294229D02*
X112175531Y-40299378D01*
X112370163Y-40325273D01*
X112542529Y-40366575D01*
X112693470Y-40423853D01*
X112823825Y-40497674D01*
X112934434Y-40588608D01*
X113026135Y-40697222D01*
X113099770Y-40824085D01*
X113153539Y-40961352D01*
X113167187Y-41005137D01*
X113179073Y-41046141D01*
X113189334Y-41086569D01*
X113198113Y-41128630D01*
X113205548Y-41174531D01*
X113211780Y-41226480D01*
X113216950Y-41286685D01*
X113221196Y-41357352D01*
X113224660Y-41440689D01*
X113227481Y-41538905D01*
X113229800Y-41654205D01*
X113231757Y-41788799D01*
X113233491Y-41944893D01*
X113235143Y-42124695D01*
X113236324Y-42265676D01*
X113244270Y-43233622D01*
X113295756Y-43326770D01*
X113320137Y-43371645D01*
X113338280Y-43406501D01*
X113346935Y-43425054D01*
X113347243Y-43426311D01*
X113334014Y-43427749D01*
X113296326Y-43429074D01*
X113237183Y-43430249D01*
X113159586Y-43431237D01*
X113066536Y-43431999D01*
X112961035Y-43432500D01*
X112846084Y-43432701D01*
X112832378Y-43432703D01*
X112317513Y-43432703D01*
X112317513Y-43316000D01*
X112316635Y-43263260D01*
X112314292Y-43222926D01*
X112310921Y-43201300D01*
X112309431Y-43199298D01*
X112295804Y-43207683D01*
X112267757Y-43229692D01*
X112231303Y-43260601D01*
X112230485Y-43261316D01*
X112163962Y-43310843D01*
X112079948Y-43360575D01*
X111987937Y-43405626D01*
X111897421Y-43441110D01*
X111857567Y-43453236D01*
X111778255Y-43468637D01*
X111680935Y-43478465D01*
X111574516Y-43482580D01*
X111467907Y-43480841D01*
X111370017Y-43473108D01*
X111301513Y-43461981D01*
X111133520Y-43412648D01*
X110982281Y-43342342D01*
X110848782Y-43251933D01*
X110734006Y-43142295D01*
X110638937Y-43014299D01*
X110564560Y-42868818D01*
X110532474Y-42780541D01*
X110512365Y-42694739D01*
X110499038Y-42591736D01*
X110492872Y-42481034D01*
X110493074Y-42464925D01*
X111421648Y-42464925D01*
X111429348Y-42547184D01*
X111454989Y-42615546D01*
X111502378Y-42678970D01*
X111520579Y-42697567D01*
X111585282Y-42747846D01*
X111660066Y-42780056D01*
X111749662Y-42795648D01*
X111844012Y-42796796D01*
X111933501Y-42789216D01*
X112002018Y-42774389D01*
X112031775Y-42763253D01*
X112085408Y-42732904D01*
X112142235Y-42690221D01*
X112194082Y-42642317D01*
X112232778Y-42596301D01*
X112243054Y-42579421D01*
X112251042Y-42555782D01*
X112256721Y-42518168D01*
X112260356Y-42462985D01*
X112262211Y-42386640D01*
X112262594Y-42313981D01*
X112262335Y-42229270D01*
X112261287Y-42168018D01*
X112259045Y-42126227D01*
X112255206Y-42099899D01*
X112249365Y-42085035D01*
X112241118Y-42077639D01*
X112238567Y-42076461D01*
X112216400Y-42072833D01*
X112172680Y-42069866D01*
X112113311Y-42067827D01*
X112044196Y-42066983D01*
X112029189Y-42066982D01*
X111936805Y-42068457D01*
X111865432Y-42072842D01*
X111808719Y-42080738D01*
X111761872Y-42092270D01*
X111645669Y-42136215D01*
X111554543Y-42190243D01*
X111487705Y-42255219D01*
X111444365Y-42332005D01*
X111423734Y-42421467D01*
X111421648Y-42464925D01*
X110493074Y-42464925D01*
X110494244Y-42372133D01*
X110503532Y-42274536D01*
X110510777Y-42235105D01*
X110557039Y-42088701D01*
X110627384Y-41953995D01*
X110720484Y-41832280D01*
X110835012Y-41724847D01*
X110969640Y-41632988D01*
X111123040Y-41557996D01*
X111253459Y-41512458D01*
X111340623Y-41488533D01*
X111423996Y-41469943D01*
X111508976Y-41456084D01*
X111600965Y-41446351D01*
X111705362Y-41440141D01*
X111827568Y-41436851D01*
X111938055Y-41435924D01*
X112265677Y-41435027D01*
X112259401Y-41336547D01*
X112241579Y-41229695D01*
X112203667Y-41137852D01*
X112147280Y-41063310D01*
X112074031Y-41008364D01*
X112009535Y-40981552D01*
X111917123Y-40964654D01*
X111807111Y-40962227D01*
X111684656Y-40973378D01*
X111554914Y-40997210D01*
X111423042Y-41032830D01*
X111294198Y-41079343D01*
X111200566Y-41121883D01*
X111155517Y-41143728D01*
X111121156Y-41158984D01*
X111103681Y-41164937D01*
X111102733Y-41164746D01*
X111096703Y-41151412D01*
X111081645Y-41116068D01*
X111058977Y-41062101D01*
X111030115Y-40992896D01*
X110996477Y-40911840D01*
X110962284Y-40829118D01*
X110825586Y-40497803D01*
X110922820Y-40481833D01*
X110964964Y-40473820D01*
X111028319Y-40460361D01*
X111107457Y-40442679D01*
X111196951Y-40421996D01*
X111291373Y-40399532D01*
X111328973Y-40390403D01*
X111491637Y-40352674D01*
X111634050Y-40324388D01*
X111761527Y-40304972D01*
X111879384Y-40293854D01*
X111992938Y-40290464D01*
X112107505Y-40294229D01*
G36*
X112107505Y-40294229D02*
G01*
X112175531Y-40299378D01*
X112370163Y-40325273D01*
X112542529Y-40366575D01*
X112693470Y-40423853D01*
X112823825Y-40497674D01*
X112934434Y-40588608D01*
X113026135Y-40697222D01*
X113099770Y-40824085D01*
X113153539Y-40961352D01*
X113167187Y-41005137D01*
X113179073Y-41046141D01*
X113189334Y-41086569D01*
X113198113Y-41128630D01*
X113205548Y-41174531D01*
X113211780Y-41226480D01*
X113216950Y-41286685D01*
X113221196Y-41357352D01*
X113224660Y-41440689D01*
X113227481Y-41538905D01*
X113229800Y-41654205D01*
X113231757Y-41788799D01*
X113233491Y-41944893D01*
X113235143Y-42124695D01*
X113236324Y-42265676D01*
X113244270Y-43233622D01*
X113295756Y-43326770D01*
X113320137Y-43371645D01*
X113338280Y-43406501D01*
X113346935Y-43425054D01*
X113347243Y-43426311D01*
X113334014Y-43427749D01*
X113296326Y-43429074D01*
X113237183Y-43430249D01*
X113159586Y-43431237D01*
X113066536Y-43431999D01*
X112961035Y-43432500D01*
X112846084Y-43432701D01*
X112832378Y-43432703D01*
X112317513Y-43432703D01*
X112317513Y-43316000D01*
X112316635Y-43263260D01*
X112314292Y-43222926D01*
X112310921Y-43201300D01*
X112309431Y-43199298D01*
X112295804Y-43207683D01*
X112267757Y-43229692D01*
X112231303Y-43260601D01*
X112230485Y-43261316D01*
X112163962Y-43310843D01*
X112079948Y-43360575D01*
X111987937Y-43405626D01*
X111897421Y-43441110D01*
X111857567Y-43453236D01*
X111778255Y-43468637D01*
X111680935Y-43478465D01*
X111574516Y-43482580D01*
X111467907Y-43480841D01*
X111370017Y-43473108D01*
X111301513Y-43461981D01*
X111133520Y-43412648D01*
X110982281Y-43342342D01*
X110848782Y-43251933D01*
X110734006Y-43142295D01*
X110638937Y-43014299D01*
X110564560Y-42868818D01*
X110532474Y-42780541D01*
X110512365Y-42694739D01*
X110499038Y-42591736D01*
X110492872Y-42481034D01*
X110493074Y-42464925D01*
X111421648Y-42464925D01*
X111429348Y-42547184D01*
X111454989Y-42615546D01*
X111502378Y-42678970D01*
X111520579Y-42697567D01*
X111585282Y-42747846D01*
X111660066Y-42780056D01*
X111749662Y-42795648D01*
X111844012Y-42796796D01*
X111933501Y-42789216D01*
X112002018Y-42774389D01*
X112031775Y-42763253D01*
X112085408Y-42732904D01*
X112142235Y-42690221D01*
X112194082Y-42642317D01*
X112232778Y-42596301D01*
X112243054Y-42579421D01*
X112251042Y-42555782D01*
X112256721Y-42518168D01*
X112260356Y-42462985D01*
X112262211Y-42386640D01*
X112262594Y-42313981D01*
X112262335Y-42229270D01*
X112261287Y-42168018D01*
X112259045Y-42126227D01*
X112255206Y-42099899D01*
X112249365Y-42085035D01*
X112241118Y-42077639D01*
X112238567Y-42076461D01*
X112216400Y-42072833D01*
X112172680Y-42069866D01*
X112113311Y-42067827D01*
X112044196Y-42066983D01*
X112029189Y-42066982D01*
X111936805Y-42068457D01*
X111865432Y-42072842D01*
X111808719Y-42080738D01*
X111761872Y-42092270D01*
X111645669Y-42136215D01*
X111554543Y-42190243D01*
X111487705Y-42255219D01*
X111444365Y-42332005D01*
X111423734Y-42421467D01*
X111421648Y-42464925D01*
X110493074Y-42464925D01*
X110494244Y-42372133D01*
X110503532Y-42274536D01*
X110510777Y-42235105D01*
X110557039Y-42088701D01*
X110627384Y-41953995D01*
X110720484Y-41832280D01*
X110835012Y-41724847D01*
X110969640Y-41632988D01*
X111123040Y-41557996D01*
X111253459Y-41512458D01*
X111340623Y-41488533D01*
X111423996Y-41469943D01*
X111508976Y-41456084D01*
X111600965Y-41446351D01*
X111705362Y-41440141D01*
X111827568Y-41436851D01*
X111938055Y-41435924D01*
X112265677Y-41435027D01*
X112259401Y-41336547D01*
X112241579Y-41229695D01*
X112203667Y-41137852D01*
X112147280Y-41063310D01*
X112074031Y-41008364D01*
X112009535Y-40981552D01*
X111917123Y-40964654D01*
X111807111Y-40962227D01*
X111684656Y-40973378D01*
X111554914Y-40997210D01*
X111423042Y-41032830D01*
X111294198Y-41079343D01*
X111200566Y-41121883D01*
X111155517Y-41143728D01*
X111121156Y-41158984D01*
X111103681Y-41164937D01*
X111102733Y-41164746D01*
X111096703Y-41151412D01*
X111081645Y-41116068D01*
X111058977Y-41062101D01*
X111030115Y-40992896D01*
X110996477Y-40911840D01*
X110962284Y-40829118D01*
X110825586Y-40497803D01*
X110922820Y-40481833D01*
X110964964Y-40473820D01*
X111028319Y-40460361D01*
X111107457Y-40442679D01*
X111196951Y-40421996D01*
X111291373Y-40399532D01*
X111328973Y-40390403D01*
X111491637Y-40352674D01*
X111634050Y-40324388D01*
X111761527Y-40304972D01*
X111879384Y-40293854D01*
X111992938Y-40290464D01*
X112107505Y-40294229D01*
G37*
X102984257Y-38503689D02*
X103248780Y-38503725D01*
X103371912Y-38503730D01*
X105342811Y-38503730D01*
X105342811Y-38619910D01*
X105355211Y-38761291D01*
X105392636Y-38891684D01*
X105455423Y-39011862D01*
X105543906Y-39122602D01*
X105573843Y-39152511D01*
X105681534Y-39237348D01*
X105800275Y-39299221D01*
X105926540Y-39338159D01*
X106056803Y-39354190D01*
X106187535Y-39347342D01*
X106315212Y-39317643D01*
X106436305Y-39265120D01*
X106547288Y-39189803D01*
X106597132Y-39144363D01*
X106690017Y-39032952D01*
X106758127Y-38910435D01*
X106800871Y-38778215D01*
X106817653Y-38637692D01*
X106817876Y-38623867D01*
X106818756Y-38503734D01*
X106871557Y-38503732D01*
X106918396Y-38510089D01*
X106961183Y-38525556D01*
X106964011Y-38527154D01*
X106973675Y-38532168D01*
X106982549Y-38536073D01*
X106990665Y-38540007D01*
X106998057Y-38545106D01*
X107004755Y-38552508D01*
X107010792Y-38563351D01*
X107016199Y-38578772D01*
X107021010Y-38599909D01*
X107025255Y-38627899D01*
X107028968Y-38663879D01*
X107032179Y-38708987D01*
X107034922Y-38764360D01*
X107037228Y-38831137D01*
X107039129Y-38910453D01*
X107040658Y-39003447D01*
X107041846Y-39111257D01*
X107042726Y-39235019D01*
X107043330Y-39375871D01*
X107043689Y-39534950D01*
X107043835Y-39713395D01*
X107043802Y-39912342D01*
X107043620Y-40132929D01*
X107043323Y-40376293D01*
X107042941Y-40643572D01*
X107042508Y-40935903D01*
X107042055Y-41254424D01*
X107042002Y-41293230D01*
X107041596Y-41613782D01*
X107041251Y-41908012D01*
X107040931Y-42177056D01*
X107040600Y-42422052D01*
X107040221Y-42644137D01*
X107039757Y-42844447D01*
X107039172Y-43024119D01*
X107038430Y-43184290D01*
X107037494Y-43326098D01*
X107036327Y-43450679D01*
X107034893Y-43559170D01*
X107033156Y-43652707D01*
X107031078Y-43732429D01*
X107028624Y-43799472D01*
X107025756Y-43854973D01*
X107022439Y-43900068D01*
X107018636Y-43935895D01*
X107014310Y-43963591D01*
X107009425Y-43984293D01*
X107003945Y-43999137D01*
X106997832Y-44009260D01*
X106991050Y-44015800D01*
X106983563Y-44019893D01*
X106975334Y-44022676D01*
X106966327Y-44025287D01*
X106956505Y-44028862D01*
X106954106Y-44029950D01*
X106946565Y-44032396D01*
X106933944Y-44034642D01*
X106915141Y-44036698D01*
X106889053Y-44038572D01*
X106854578Y-44040271D01*
X106810615Y-44041803D01*
X106756061Y-44043177D01*
X106689815Y-44044400D01*
X106610774Y-44045481D01*
X106517837Y-44046427D01*
X106409901Y-44047247D01*
X106285864Y-44047947D01*
X106144624Y-44048538D01*
X105985079Y-44049025D01*
X105806128Y-44049419D01*
X105606668Y-44049725D01*
X105385596Y-44049953D01*
X105141812Y-44050110D01*
X104874213Y-44050205D01*
X104581697Y-44050245D01*
X104263161Y-44050238D01*
X104159979Y-44050228D01*
X103834377Y-44050176D01*
X103535119Y-44050091D01*
X103261091Y-44049963D01*
X103011176Y-44049785D01*
X102784260Y-44049548D01*
X102579227Y-44049242D01*
X102394962Y-44048860D01*
X102230350Y-44048392D01*
X102084275Y-44047830D01*
X101955624Y-44047165D01*
X101843279Y-44046388D01*
X101746126Y-44045491D01*
X101663050Y-44044465D01*
X101592936Y-44043301D01*
X101534668Y-44041991D01*
X101487131Y-44040525D01*
X101449210Y-44038896D01*
X101419790Y-44037093D01*
X101397755Y-44035110D01*
X101381990Y-44032936D01*
X101371380Y-44030563D01*
X101365596Y-44028391D01*
X101355316Y-44024056D01*
X101345878Y-44020859D01*
X101337245Y-44017665D01*
X101329381Y-44013338D01*
X101322252Y-44006744D01*
X101315821Y-43996747D01*
X101310053Y-43982212D01*
X101304911Y-43962003D01*
X101300360Y-43934985D01*
X101296365Y-43900023D01*
X101292889Y-43855981D01*
X101289898Y-43801724D01*
X101287354Y-43736117D01*
X101285223Y-43658024D01*
X101283468Y-43566310D01*
X101282055Y-43459840D01*
X101281685Y-43418973D01*
X101648116Y-43418973D01*
X102943266Y-43418973D01*
X102918345Y-43381217D01*
X102893553Y-43342417D01*
X102872560Y-43305469D01*
X102855065Y-43267788D01*
X102840770Y-43226788D01*
X102829377Y-43179883D01*
X102820587Y-43124487D01*
X102814102Y-43058016D01*
X102809623Y-42977883D01*
X102806850Y-42881502D01*
X102805487Y-42766289D01*
X102805233Y-42629657D01*
X102805791Y-42469020D01*
X102806107Y-42409382D01*
X102809675Y-41770041D01*
X103214702Y-42321449D01*
X103329446Y-42477876D01*
X103428857Y-42614088D01*
X103514010Y-42731890D01*
X103585978Y-42833084D01*
X103645834Y-42919477D01*
X103694652Y-42992874D01*
X103733505Y-43055077D01*
X103763466Y-43107893D01*
X103785609Y-43153125D01*
X103801007Y-43192578D01*
X103810734Y-43228058D01*
X103815863Y-43261368D01*
X103817468Y-43294313D01*
X103816621Y-43328697D01*
X103816405Y-43333019D01*
X103811946Y-43419031D01*
X105231308Y-43418973D01*
X105480627Y-43418973D01*
X106086604Y-43418973D01*
X106231266Y-43418931D01*
X106350756Y-43418741D01*
X106447358Y-43418308D01*
X106523358Y-43417536D01*
X106581043Y-43416330D01*
X106622699Y-43414594D01*
X106650611Y-43412232D01*
X106667065Y-43409150D01*
X106674348Y-43405251D01*
X106674745Y-43400440D01*
X106670542Y-43394622D01*
X106670499Y-43394574D01*
X106653187Y-43369532D01*
X106630264Y-43328815D01*
X106610019Y-43288168D01*
X106571621Y-43206162D01*
X106563789Y-40357244D01*
X105480627Y-40357244D01*
X105531854Y-40449919D01*
X105583081Y-40542595D01*
X105583081Y-43233622D01*
X105531854Y-43326298D01*
X105480627Y-43418973D01*
X105231308Y-43418973D01*
X105125735Y-43312522D01*
X105097087Y-43283406D01*
X105069910Y-43255076D01*
X105043011Y-43225968D01*
X105015197Y-43194520D01*
X104985275Y-43159169D01*
X104952054Y-43118354D01*
X104914339Y-43070511D01*
X104870940Y-43014079D01*
X104820662Y-42947494D01*
X104762312Y-42869195D01*
X104694700Y-42777619D01*
X104616631Y-42671204D01*
X104526912Y-42548387D01*
X104424352Y-42407605D01*
X104307758Y-42247297D01*
X104212191Y-42115798D01*
X104092251Y-41950596D01*
X103987620Y-41806152D01*
X103897352Y-41681094D01*
X103820497Y-41574052D01*
X103756109Y-41483654D01*
X103703239Y-41408529D01*
X103660940Y-41347304D01*
X103628264Y-41298610D01*
X103604262Y-41261074D01*
X103587987Y-41233325D01*
X103578492Y-41213992D01*
X103574827Y-41201703D01*
X103575929Y-41195242D01*
X103589276Y-41178048D01*
X103618134Y-41141655D01*
X103660760Y-41088224D01*
X103715415Y-41019919D01*
X103780356Y-40938903D01*
X103853842Y-40847340D01*
X103934132Y-40747392D01*
X104019485Y-40641224D01*
X104108160Y-40530997D01*
X104198414Y-40418876D01*
X104248056Y-40357244D01*
X104288507Y-40307024D01*
X104376698Y-40197604D01*
X104461246Y-40092778D01*
X104540408Y-39994711D01*
X104612444Y-39905566D01*
X104675613Y-39827505D01*
X104728173Y-39762692D01*
X104768383Y-39713290D01*
X104792000Y-39684487D01*
X104883710Y-39576778D01*
X104971940Y-39479580D01*
X105053597Y-39396076D01*
X105125590Y-39329448D01*
X105176681Y-39288599D01*
X105237093Y-39245135D01*
X103847702Y-39245135D01*
X103848092Y-39326666D01*
X103844209Y-39386606D01*
X103829610Y-39442177D01*
X103807012Y-39494855D01*
X103792322Y-39524615D01*
X103776528Y-39554103D01*
X103758186Y-39585276D01*
X103735855Y-39620093D01*
X103708091Y-39660510D01*
X103673451Y-39708486D01*
X103630493Y-39765978D01*
X103577773Y-39834943D01*
X103513849Y-39917339D01*
X103437279Y-40015124D01*
X103346619Y-40130255D01*
X103240426Y-40264690D01*
X103228432Y-40279859D01*
X102809675Y-40809412D01*
X102805622Y-40222922D01*
X102804805Y-40047251D01*
X102804979Y-39898532D01*
X102806151Y-39776275D01*
X102808331Y-39679989D01*
X102811526Y-39609183D01*
X102815744Y-39563369D01*
X102817162Y-39554679D01*
X102839409Y-39463135D01*
X102868557Y-39380608D01*
X102901818Y-39314253D01*
X102921800Y-39286110D01*
X102956278Y-39245135D01*
X102302086Y-39245135D01*
X102146031Y-39245269D01*
X102015533Y-39245703D01*
X101908690Y-39246489D01*
X101823602Y-39247676D01*
X101758365Y-39249317D01*
X101711079Y-39251461D01*
X101679843Y-39254159D01*
X101662754Y-39257462D01*
X101657912Y-39261421D01*
X101658247Y-39262298D01*
X101672115Y-39283231D01*
X101695268Y-39316412D01*
X101707246Y-39333193D01*
X101719631Y-39349940D01*
X101730763Y-39364915D01*
X101740712Y-39379594D01*
X101749549Y-39395449D01*
X101757343Y-39413955D01*
X101764165Y-39436585D01*
X101770084Y-39464813D01*
X101775171Y-39500113D01*
X101779496Y-39543958D01*
X101783129Y-39597822D01*
X101786140Y-39663180D01*
X101788599Y-39741504D01*
X101790577Y-39834268D01*
X101792142Y-39942947D01*
X101793366Y-40069013D01*
X101794319Y-40213942D01*
X101795070Y-40379206D01*
X101795689Y-40566279D01*
X101796248Y-40776635D01*
X101796815Y-41011748D01*
X101797345Y-41227741D01*
X101797845Y-41468535D01*
X101798105Y-41698274D01*
X101798132Y-41915493D01*
X101797933Y-42118722D01*
X101797514Y-42306496D01*
X101796882Y-42477345D01*
X101796044Y-42629803D01*
X101795008Y-42762403D01*
X101793780Y-42873676D01*
X101792367Y-42962156D01*
X101790775Y-43026375D01*
X101789013Y-43064865D01*
X101788679Y-43068933D01*
X101776534Y-43162248D01*
X101757573Y-43237190D01*
X101728698Y-43302594D01*
X101686810Y-43367293D01*
X101681571Y-43374352D01*
X101648116Y-43418973D01*
X101281685Y-43418973D01*
X101280946Y-43337479D01*
X101280107Y-43198090D01*
X101279502Y-43040539D01*
X101279095Y-42863691D01*
X101278850Y-42666410D01*
X101278733Y-42447560D01*
X101278705Y-42206007D01*
X101278733Y-41940615D01*
X101278780Y-41650249D01*
X101278810Y-41333773D01*
X101278811Y-41270946D01*
X101278828Y-40951137D01*
X101278888Y-40657661D01*
X101278998Y-40389390D01*
X101279167Y-40145198D01*
X101279403Y-39923957D01*
X101279716Y-39724540D01*
X101280115Y-39545820D01*
X101280607Y-39386671D01*
X101281203Y-39245966D01*
X101281910Y-39122576D01*
X101282737Y-39015376D01*
X101283693Y-38923238D01*
X101284787Y-38845035D01*
X101286027Y-38779641D01*
X101287422Y-38725928D01*
X101288982Y-38682769D01*
X101290714Y-38649037D01*
X101292628Y-38623605D01*
X101294732Y-38605347D01*
X101297034Y-38593134D01*
X101299545Y-38585841D01*
X101299637Y-38585659D01*
X101304808Y-38574518D01*
X101309115Y-38564431D01*
X101313879Y-38555346D01*
X101320422Y-38547212D01*
X101330065Y-38539976D01*
X101344129Y-38533586D01*
X101363937Y-38527989D01*
X101390809Y-38523133D01*
X101426067Y-38518966D01*
X101471032Y-38515436D01*
X101527026Y-38512491D01*
X101595371Y-38510077D01*
X101677386Y-38508144D01*
X101774395Y-38506638D01*
X101887718Y-38505508D01*
X102018677Y-38504702D01*
X102168593Y-38504166D01*
X102338787Y-38503849D01*
X102530582Y-38503699D01*
X102745298Y-38503663D01*
X102984257Y-38503689D01*
G36*
X102984257Y-38503689D02*
G01*
X103248780Y-38503725D01*
X103371912Y-38503730D01*
X105342811Y-38503730D01*
X105342811Y-38619910D01*
X105355211Y-38761291D01*
X105392636Y-38891684D01*
X105455423Y-39011862D01*
X105543906Y-39122602D01*
X105573843Y-39152511D01*
X105681534Y-39237348D01*
X105800275Y-39299221D01*
X105926540Y-39338159D01*
X106056803Y-39354190D01*
X106187535Y-39347342D01*
X106315212Y-39317643D01*
X106436305Y-39265120D01*
X106547288Y-39189803D01*
X106597132Y-39144363D01*
X106690017Y-39032952D01*
X106758127Y-38910435D01*
X106800871Y-38778215D01*
X106817653Y-38637692D01*
X106817876Y-38623867D01*
X106818756Y-38503734D01*
X106871557Y-38503732D01*
X106918396Y-38510089D01*
X106961183Y-38525556D01*
X106964011Y-38527154D01*
X106973675Y-38532168D01*
X106982549Y-38536073D01*
X106990665Y-38540007D01*
X106998057Y-38545106D01*
X107004755Y-38552508D01*
X107010792Y-38563351D01*
X107016199Y-38578772D01*
X107021010Y-38599909D01*
X107025255Y-38627899D01*
X107028968Y-38663879D01*
X107032179Y-38708987D01*
X107034922Y-38764360D01*
X107037228Y-38831137D01*
X107039129Y-38910453D01*
X107040658Y-39003447D01*
X107041846Y-39111257D01*
X107042726Y-39235019D01*
X107043330Y-39375871D01*
X107043689Y-39534950D01*
X107043835Y-39713395D01*
X107043802Y-39912342D01*
X107043620Y-40132929D01*
X107043323Y-40376293D01*
X107042941Y-40643572D01*
X107042508Y-40935903D01*
X107042055Y-41254424D01*
X107042002Y-41293230D01*
X107041596Y-41613782D01*
X107041251Y-41908012D01*
X107040931Y-42177056D01*
X107040600Y-42422052D01*
X107040221Y-42644137D01*
X107039757Y-42844447D01*
X107039172Y-43024119D01*
X107038430Y-43184290D01*
X107037494Y-43326098D01*
X107036327Y-43450679D01*
X107034893Y-43559170D01*
X107033156Y-43652707D01*
X107031078Y-43732429D01*
X107028624Y-43799472D01*
X107025756Y-43854973D01*
X107022439Y-43900068D01*
X107018636Y-43935895D01*
X107014310Y-43963591D01*
X107009425Y-43984293D01*
X107003945Y-43999137D01*
X106997832Y-44009260D01*
X106991050Y-44015800D01*
X106983563Y-44019893D01*
X106975334Y-44022676D01*
X106966327Y-44025287D01*
X106956505Y-44028862D01*
X106954106Y-44029950D01*
X106946565Y-44032396D01*
X106933944Y-44034642D01*
X106915141Y-44036698D01*
X106889053Y-44038572D01*
X106854578Y-44040271D01*
X106810615Y-44041803D01*
X106756061Y-44043177D01*
X106689815Y-44044400D01*
X106610774Y-44045481D01*
X106517837Y-44046427D01*
X106409901Y-44047247D01*
X106285864Y-44047947D01*
X106144624Y-44048538D01*
X105985079Y-44049025D01*
X105806128Y-44049419D01*
X105606668Y-44049725D01*
X105385596Y-44049953D01*
X105141812Y-44050110D01*
X104874213Y-44050205D01*
X104581697Y-44050245D01*
X104263161Y-44050238D01*
X104159979Y-44050228D01*
X103834377Y-44050176D01*
X103535119Y-44050091D01*
X103261091Y-44049963D01*
X103011176Y-44049785D01*
X102784260Y-44049548D01*
X102579227Y-44049242D01*
X102394962Y-44048860D01*
X102230350Y-44048392D01*
X102084275Y-44047830D01*
X101955624Y-44047165D01*
X101843279Y-44046388D01*
X101746126Y-44045491D01*
X101663050Y-44044465D01*
X101592936Y-44043301D01*
X101534668Y-44041991D01*
X101487131Y-44040525D01*
X101449210Y-44038896D01*
X101419790Y-44037093D01*
X101397755Y-44035110D01*
X101381990Y-44032936D01*
X101371380Y-44030563D01*
X101365596Y-44028391D01*
X101355316Y-44024056D01*
X101345878Y-44020859D01*
X101337245Y-44017665D01*
X101329381Y-44013338D01*
X101322252Y-44006744D01*
X101315821Y-43996747D01*
X101310053Y-43982212D01*
X101304911Y-43962003D01*
X101300360Y-43934985D01*
X101296365Y-43900023D01*
X101292889Y-43855981D01*
X101289898Y-43801724D01*
X101287354Y-43736117D01*
X101285223Y-43658024D01*
X101283468Y-43566310D01*
X101282055Y-43459840D01*
X101281685Y-43418973D01*
X101648116Y-43418973D01*
X102943266Y-43418973D01*
X102918345Y-43381217D01*
X102893553Y-43342417D01*
X102872560Y-43305469D01*
X102855065Y-43267788D01*
X102840770Y-43226788D01*
X102829377Y-43179883D01*
X102820587Y-43124487D01*
X102814102Y-43058016D01*
X102809623Y-42977883D01*
X102806850Y-42881502D01*
X102805487Y-42766289D01*
X102805233Y-42629657D01*
X102805791Y-42469020D01*
X102806107Y-42409382D01*
X102809675Y-41770041D01*
X103214702Y-42321449D01*
X103329446Y-42477876D01*
X103428857Y-42614088D01*
X103514010Y-42731890D01*
X103585978Y-42833084D01*
X103645834Y-42919477D01*
X103694652Y-42992874D01*
X103733505Y-43055077D01*
X103763466Y-43107893D01*
X103785609Y-43153125D01*
X103801007Y-43192578D01*
X103810734Y-43228058D01*
X103815863Y-43261368D01*
X103817468Y-43294313D01*
X103816621Y-43328697D01*
X103816405Y-43333019D01*
X103811946Y-43419031D01*
X105231308Y-43418973D01*
X105480627Y-43418973D01*
X106086604Y-43418973D01*
X106231266Y-43418931D01*
X106350756Y-43418741D01*
X106447358Y-43418308D01*
X106523358Y-43417536D01*
X106581043Y-43416330D01*
X106622699Y-43414594D01*
X106650611Y-43412232D01*
X106667065Y-43409150D01*
X106674348Y-43405251D01*
X106674745Y-43400440D01*
X106670542Y-43394622D01*
X106670499Y-43394574D01*
X106653187Y-43369532D01*
X106630264Y-43328815D01*
X106610019Y-43288168D01*
X106571621Y-43206162D01*
X106563789Y-40357244D01*
X105480627Y-40357244D01*
X105531854Y-40449919D01*
X105583081Y-40542595D01*
X105583081Y-43233622D01*
X105531854Y-43326298D01*
X105480627Y-43418973D01*
X105231308Y-43418973D01*
X105125735Y-43312522D01*
X105097087Y-43283406D01*
X105069910Y-43255076D01*
X105043011Y-43225968D01*
X105015197Y-43194520D01*
X104985275Y-43159169D01*
X104952054Y-43118354D01*
X104914339Y-43070511D01*
X104870940Y-43014079D01*
X104820662Y-42947494D01*
X104762312Y-42869195D01*
X104694700Y-42777619D01*
X104616631Y-42671204D01*
X104526912Y-42548387D01*
X104424352Y-42407605D01*
X104307758Y-42247297D01*
X104212191Y-42115798D01*
X104092251Y-41950596D01*
X103987620Y-41806152D01*
X103897352Y-41681094D01*
X103820497Y-41574052D01*
X103756109Y-41483654D01*
X103703239Y-41408529D01*
X103660940Y-41347304D01*
X103628264Y-41298610D01*
X103604262Y-41261074D01*
X103587987Y-41233325D01*
X103578492Y-41213992D01*
X103574827Y-41201703D01*
X103575929Y-41195242D01*
X103589276Y-41178048D01*
X103618134Y-41141655D01*
X103660760Y-41088224D01*
X103715415Y-41019919D01*
X103780356Y-40938903D01*
X103853842Y-40847340D01*
X103934132Y-40747392D01*
X104019485Y-40641224D01*
X104108160Y-40530997D01*
X104198414Y-40418876D01*
X104248056Y-40357244D01*
X104288507Y-40307024D01*
X104376698Y-40197604D01*
X104461246Y-40092778D01*
X104540408Y-39994711D01*
X104612444Y-39905566D01*
X104675613Y-39827505D01*
X104728173Y-39762692D01*
X104768383Y-39713290D01*
X104792000Y-39684487D01*
X104883710Y-39576778D01*
X104971940Y-39479580D01*
X105053597Y-39396076D01*
X105125590Y-39329448D01*
X105176681Y-39288599D01*
X105237093Y-39245135D01*
X103847702Y-39245135D01*
X103848092Y-39326666D01*
X103844209Y-39386606D01*
X103829610Y-39442177D01*
X103807012Y-39494855D01*
X103792322Y-39524615D01*
X103776528Y-39554103D01*
X103758186Y-39585276D01*
X103735855Y-39620093D01*
X103708091Y-39660510D01*
X103673451Y-39708486D01*
X103630493Y-39765978D01*
X103577773Y-39834943D01*
X103513849Y-39917339D01*
X103437279Y-40015124D01*
X103346619Y-40130255D01*
X103240426Y-40264690D01*
X103228432Y-40279859D01*
X102809675Y-40809412D01*
X102805622Y-40222922D01*
X102804805Y-40047251D01*
X102804979Y-39898532D01*
X102806151Y-39776275D01*
X102808331Y-39679989D01*
X102811526Y-39609183D01*
X102815744Y-39563369D01*
X102817162Y-39554679D01*
X102839409Y-39463135D01*
X102868557Y-39380608D01*
X102901818Y-39314253D01*
X102921800Y-39286110D01*
X102956278Y-39245135D01*
X102302086Y-39245135D01*
X102146031Y-39245269D01*
X102015533Y-39245703D01*
X101908690Y-39246489D01*
X101823602Y-39247676D01*
X101758365Y-39249317D01*
X101711079Y-39251461D01*
X101679843Y-39254159D01*
X101662754Y-39257462D01*
X101657912Y-39261421D01*
X101658247Y-39262298D01*
X101672115Y-39283231D01*
X101695268Y-39316412D01*
X101707246Y-39333193D01*
X101719631Y-39349940D01*
X101730763Y-39364915D01*
X101740712Y-39379594D01*
X101749549Y-39395449D01*
X101757343Y-39413955D01*
X101764165Y-39436585D01*
X101770084Y-39464813D01*
X101775171Y-39500113D01*
X101779496Y-39543958D01*
X101783129Y-39597822D01*
X101786140Y-39663180D01*
X101788599Y-39741504D01*
X101790577Y-39834268D01*
X101792142Y-39942947D01*
X101793366Y-40069013D01*
X101794319Y-40213942D01*
X101795070Y-40379206D01*
X101795689Y-40566279D01*
X101796248Y-40776635D01*
X101796815Y-41011748D01*
X101797345Y-41227741D01*
X101797845Y-41468535D01*
X101798105Y-41698274D01*
X101798132Y-41915493D01*
X101797933Y-42118722D01*
X101797514Y-42306496D01*
X101796882Y-42477345D01*
X101796044Y-42629803D01*
X101795008Y-42762403D01*
X101793780Y-42873676D01*
X101792367Y-42962156D01*
X101790775Y-43026375D01*
X101789013Y-43064865D01*
X101788679Y-43068933D01*
X101776534Y-43162248D01*
X101757573Y-43237190D01*
X101728698Y-43302594D01*
X101686810Y-43367293D01*
X101681571Y-43374352D01*
X101648116Y-43418973D01*
X101281685Y-43418973D01*
X101280946Y-43337479D01*
X101280107Y-43198090D01*
X101279502Y-43040539D01*
X101279095Y-42863691D01*
X101278850Y-42666410D01*
X101278733Y-42447560D01*
X101278705Y-42206007D01*
X101278733Y-41940615D01*
X101278780Y-41650249D01*
X101278810Y-41333773D01*
X101278811Y-41270946D01*
X101278828Y-40951137D01*
X101278888Y-40657661D01*
X101278998Y-40389390D01*
X101279167Y-40145198D01*
X101279403Y-39923957D01*
X101279716Y-39724540D01*
X101280115Y-39545820D01*
X101280607Y-39386671D01*
X101281203Y-39245966D01*
X101281910Y-39122576D01*
X101282737Y-39015376D01*
X101283693Y-38923238D01*
X101284787Y-38845035D01*
X101286027Y-38779641D01*
X101287422Y-38725928D01*
X101288982Y-38682769D01*
X101290714Y-38649037D01*
X101292628Y-38623605D01*
X101294732Y-38605347D01*
X101297034Y-38593134D01*
X101299545Y-38585841D01*
X101299637Y-38585659D01*
X101304808Y-38574518D01*
X101309115Y-38564431D01*
X101313879Y-38555346D01*
X101320422Y-38547212D01*
X101330065Y-38539976D01*
X101344129Y-38533586D01*
X101363937Y-38527989D01*
X101390809Y-38523133D01*
X101426067Y-38518966D01*
X101471032Y-38515436D01*
X101527026Y-38512491D01*
X101595371Y-38510077D01*
X101677386Y-38508144D01*
X101774395Y-38506638D01*
X101887718Y-38505508D01*
X102018677Y-38504702D01*
X102168593Y-38504166D01*
X102338787Y-38503849D01*
X102530582Y-38503699D01*
X102745298Y-38503663D01*
X102984257Y-38503689D01*
G37*
D12*
%TO.C,S6*%
X128835000Y-84605000D02*
X142805000Y-84605000D01*
X128835000Y-98575000D02*
X128835000Y-84605000D01*
X142805000Y-84605000D02*
X142805000Y-98575000D01*
X142805000Y-98575000D02*
X128835000Y-98575000D01*
%TO.C,S3*%
X128805000Y-65555000D02*
X142775000Y-65555000D01*
X128805000Y-79525000D02*
X128805000Y-65555000D01*
X142775000Y-65555000D02*
X142775000Y-79525000D01*
X142775000Y-79525000D02*
X128805000Y-79525000D01*
D14*
%TO.C,D9*%
X155690000Y-97980000D02*
X156290000Y-98380000D01*
X155690000Y-98380000D02*
X155190000Y-98380000D01*
X155690000Y-98780000D02*
X155690000Y-97980000D01*
X156290000Y-98380000D02*
X155690000Y-98780000D01*
X156290000Y-98930000D02*
X156290000Y-97830000D01*
X156690000Y-98380000D02*
X156290000Y-98380000D01*
%TO.C,D6*%
X158810000Y-69180000D02*
X159910000Y-69180000D01*
X158960000Y-68580000D02*
X159760000Y-68580000D01*
X159360000Y-68580000D02*
X159360000Y-68080000D01*
X159360000Y-69180000D02*
X158960000Y-68580000D01*
X159360000Y-69580000D02*
X159360000Y-69180000D01*
X159760000Y-68580000D02*
X159360000Y-69180000D01*
%TO.C,D7*%
X155690000Y-105080000D02*
X156290000Y-105480000D01*
X155690000Y-105480000D02*
X155190000Y-105480000D01*
X155690000Y-105880000D02*
X155690000Y-105080000D01*
X156290000Y-105480000D02*
X155690000Y-105880000D01*
X156290000Y-106030000D02*
X156290000Y-104930000D01*
X156690000Y-105480000D02*
X156290000Y-105480000D01*
D12*
%TO.C,S2*%
X109765000Y-65555000D02*
X123735000Y-65555000D01*
X109765000Y-79525000D02*
X109765000Y-65555000D01*
X123735000Y-65555000D02*
X123735000Y-79525000D01*
X123735000Y-79525000D02*
X109765000Y-79525000D01*
D14*
%TO.C,D5*%
X155260000Y-69180000D02*
X156360000Y-69180000D01*
X155410000Y-68580000D02*
X156210000Y-68580000D01*
X155810000Y-68580000D02*
X155810000Y-68080000D01*
X155810000Y-69180000D02*
X155410000Y-68580000D01*
X155810000Y-69580000D02*
X155810000Y-69180000D01*
X156210000Y-68580000D02*
X155810000Y-69180000D01*
%TO.C,D4*%
X151710000Y-69180000D02*
X152810000Y-69180000D01*
X151860000Y-68580000D02*
X152660000Y-68580000D01*
X152260000Y-68580000D02*
X152260000Y-68080000D01*
X152260000Y-69180000D02*
X151860000Y-68580000D01*
X152260000Y-69580000D02*
X152260000Y-69180000D01*
X152660000Y-68580000D02*
X152260000Y-69180000D01*
D12*
%TO.C,S8*%
X109775000Y-103665000D02*
X123745000Y-103665000D01*
X109775000Y-117635000D02*
X109775000Y-103665000D01*
X123745000Y-103665000D02*
X123745000Y-117635000D01*
X123745000Y-117635000D02*
X109775000Y-117635000D01*
D14*
%TO.C,D1*%
X135790000Y-61400000D02*
X136390000Y-61800000D01*
X135790000Y-61800000D02*
X135290000Y-61800000D01*
X135790000Y-62200000D02*
X135790000Y-61400000D01*
X136390000Y-61800000D02*
X135790000Y-62200000D01*
X136390000Y-62350000D02*
X136390000Y-61250000D01*
X136790000Y-61800000D02*
X136390000Y-61800000D01*
D13*
%TO.C,G\u002A\u002A\u002A*%
G36*
X134906612Y-40967859D02*
G01*
X134894732Y-40979740D01*
X134882851Y-40967859D01*
X134894732Y-40955979D01*
X134906612Y-40967859D01*
G37*
G36*
X134977893Y-41015380D02*
G01*
X134966013Y-41027261D01*
X134954133Y-41015380D01*
X134966013Y-41003500D01*
X134977893Y-41015380D01*
G37*
G36*
X135928314Y-40682733D02*
G01*
X135916434Y-40694613D01*
X135904554Y-40682733D01*
X135916434Y-40670853D01*
X135928314Y-40682733D01*
G37*
G36*
X136125686Y-40292560D02*
G01*
X136171289Y-40295439D01*
X136175233Y-40301981D01*
X136135543Y-40313923D01*
X136089299Y-40324549D01*
X136034484Y-40352740D01*
X136002663Y-40414617D01*
X136002340Y-40415729D01*
X135986955Y-40458257D01*
X135978896Y-40454737D01*
X135977978Y-40444475D01*
X135995431Y-40368182D01*
X136047329Y-40313492D01*
X136121899Y-40292515D01*
X136125686Y-40292560D01*
G37*
G36*
X136368826Y-41128170D02*
G01*
X136378928Y-41144501D01*
X136399864Y-41204668D01*
X136400375Y-41257304D01*
X136381249Y-41286693D01*
X136371698Y-41288627D01*
X136339519Y-41269184D01*
X136312297Y-41228107D01*
X136289241Y-41172118D01*
X136289130Y-41151528D01*
X136311983Y-41160108D01*
X136312521Y-41160439D01*
X136330364Y-41161591D01*
X136325147Y-41138081D01*
X136321683Y-41104721D01*
X136340499Y-41101926D01*
X136368826Y-41128170D01*
G37*
G36*
X136379764Y-40306142D02*
G01*
X136466274Y-40331377D01*
X136518846Y-40378570D01*
X136545098Y-40456932D01*
X136550878Y-40513111D01*
X136557968Y-40635212D01*
X136653010Y-40649661D01*
X136748052Y-40664109D01*
X136651030Y-40667481D01*
X136586332Y-40666042D01*
X136543810Y-40658324D01*
X136538168Y-40655013D01*
X136528587Y-40623562D01*
X136522750Y-40562479D01*
X136521964Y-40530270D01*
X136515373Y-40438579D01*
X136490693Y-40380321D01*
X136439426Y-40342390D01*
X136387110Y-40322190D01*
X136296602Y-40292551D01*
X136379764Y-40306142D01*
G37*
G36*
X136759130Y-41020568D02*
G01*
X136763781Y-41026113D01*
X136795175Y-41082086D01*
X136806638Y-41138548D01*
X136797329Y-41180509D01*
X136773160Y-41193584D01*
X136734996Y-41175724D01*
X136701879Y-41140776D01*
X136672060Y-41079272D01*
X136668687Y-41037739D01*
X136688651Y-41037739D01*
X136696482Y-41072069D01*
X136717056Y-41061778D01*
X136723277Y-41052663D01*
X136720298Y-41022147D01*
X136712799Y-41015620D01*
X136692136Y-41020782D01*
X136688651Y-41037739D01*
X136668687Y-41037739D01*
X136667840Y-41027305D01*
X136684255Y-40994068D01*
X136716339Y-40988758D01*
X136759130Y-41020568D01*
G37*
G36*
X135297685Y-41494529D02*
G01*
X135311781Y-41538392D01*
X135315155Y-41549992D01*
X135326838Y-41623491D01*
X135329177Y-41715755D01*
X135326323Y-41760673D01*
X135286160Y-41933845D01*
X135206475Y-42090679D01*
X135093826Y-42226453D01*
X134954768Y-42336447D01*
X134795860Y-42415939D01*
X134623658Y-42460208D01*
X134444719Y-42464532D01*
X134365407Y-42452536D01*
X134220316Y-42403510D01*
X134076279Y-42321952D01*
X133952527Y-42219237D01*
X133929926Y-42194922D01*
X133880360Y-42136345D01*
X133846779Y-42092318D01*
X133837393Y-42075319D01*
X133856839Y-42059478D01*
X133906589Y-42060736D01*
X133973793Y-42076299D01*
X134045597Y-42103375D01*
X134098754Y-42132117D01*
X134211098Y-42194492D01*
X134332381Y-42244926D01*
X134445742Y-42277212D01*
X134516191Y-42285793D01*
X134643530Y-42269389D01*
X134777738Y-42223220D01*
X134897221Y-42155574D01*
X134935517Y-42124844D01*
X135021482Y-42027112D01*
X135090149Y-41910449D01*
X135133304Y-41791185D01*
X135143985Y-41710376D01*
X135150335Y-41652947D01*
X135165824Y-41622691D01*
X135170520Y-41621274D01*
X135185719Y-41603676D01*
X135180992Y-41579693D01*
X135174031Y-41552594D01*
X135192061Y-41564844D01*
X135195083Y-41567813D01*
X135242545Y-41596266D01*
X135276405Y-41580895D01*
X135288923Y-41532172D01*
X135291397Y-41493360D01*
X135297685Y-41494529D01*
G37*
G36*
X134656292Y-40883877D02*
G01*
X134759195Y-40905795D01*
X134827883Y-40939704D01*
X134853084Y-40972923D01*
X134840322Y-40999008D01*
X134801542Y-41017039D01*
X134761276Y-41034930D01*
X134753735Y-41053556D01*
X134743252Y-41069100D01*
X134700110Y-41076460D01*
X134662152Y-41078857D01*
X134659388Y-41086841D01*
X134695200Y-41105709D01*
X134728408Y-41120780D01*
X134831516Y-41181180D01*
X134918023Y-41266070D01*
X134996453Y-41384763D01*
X135031564Y-41452055D01*
X135089013Y-41601748D01*
X135104652Y-41736596D01*
X135078818Y-41863707D01*
X135053751Y-41920279D01*
X134959793Y-42055280D01*
X134837932Y-42157479D01*
X134696050Y-42223283D01*
X134542029Y-42249098D01*
X134383749Y-42231333D01*
X134375979Y-42229267D01*
X134228523Y-42165966D01*
X134131944Y-42084604D01*
X134241317Y-42084604D01*
X134253197Y-42096484D01*
X134265078Y-42084604D01*
X134253197Y-42072724D01*
X134241317Y-42084604D01*
X134131944Y-42084604D01*
X134110263Y-42066339D01*
X134024211Y-41933717D01*
X133997609Y-41852205D01*
X134056046Y-41852205D01*
X134083510Y-41921762D01*
X134098178Y-41947461D01*
X134134535Y-41997280D01*
X134167585Y-42011601D01*
X134197639Y-42004671D01*
X134270407Y-42001637D01*
X134311167Y-42016924D01*
X134386195Y-42045822D01*
X134434441Y-42037985D01*
X134460448Y-41992412D01*
X134462441Y-41983622D01*
X134498526Y-41899856D01*
X134572353Y-41830688D01*
X134688356Y-41772129D01*
X134704518Y-41765926D01*
X134809793Y-41730971D01*
X134883756Y-41719117D01*
X134936605Y-41730331D01*
X134978536Y-41764579D01*
X134978903Y-41765001D01*
X135008798Y-41796167D01*
X135023887Y-41791032D01*
X135036291Y-41744643D01*
X135037039Y-41741241D01*
X135041947Y-41642347D01*
X135022246Y-41534526D01*
X134997186Y-41471236D01*
X134972160Y-41442595D01*
X134941134Y-41455879D01*
X134912495Y-41466766D01*
X134878687Y-41446132D01*
X134847073Y-41411599D01*
X134749410Y-41330287D01*
X134629549Y-41283997D01*
X134499015Y-41274272D01*
X134369334Y-41302654D01*
X134297561Y-41338099D01*
X134223033Y-41407913D01*
X134163963Y-41507962D01*
X134128729Y-41621489D01*
X134122515Y-41688177D01*
X134117135Y-41755899D01*
X134099115Y-41784998D01*
X134086874Y-41787598D01*
X134056991Y-41804994D01*
X134056046Y-41852205D01*
X133997609Y-41852205D01*
X133976524Y-41787598D01*
X133963825Y-41617983D01*
X133995421Y-41460089D01*
X134068621Y-41319603D01*
X134180734Y-41202212D01*
X134285485Y-41134430D01*
X134340916Y-41102744D01*
X134367933Y-41081411D01*
X134365113Y-41075888D01*
X134323926Y-41086716D01*
X134260184Y-41115186D01*
X134190921Y-41152654D01*
X134133172Y-41190478D01*
X134122515Y-41198989D01*
X134087576Y-41232999D01*
X134035073Y-41288804D01*
X133994283Y-41334138D01*
X133924072Y-41403271D01*
X133864815Y-41436120D01*
X133833898Y-41441060D01*
X133790211Y-41439623D01*
X133771435Y-41426130D01*
X133776948Y-41391823D01*
X133806129Y-41327942D01*
X133823455Y-41293777D01*
X133927568Y-41140460D01*
X134063950Y-41018580D01*
X134226215Y-40931932D01*
X134407978Y-40884311D01*
X134526259Y-40876048D01*
X134656292Y-40883877D01*
G37*
G36*
X136875962Y-38285980D02*
G01*
X137075900Y-38295612D01*
X137253292Y-38313945D01*
X137420486Y-38342762D01*
X137589832Y-38383847D01*
X137773677Y-38438985D01*
X137817276Y-38453171D01*
X138209451Y-38606559D01*
X138576771Y-38799271D01*
X138917042Y-39028862D01*
X139228066Y-39292884D01*
X139507648Y-39588892D01*
X139753593Y-39914439D01*
X139963704Y-40267079D01*
X140135786Y-40644365D01*
X140267643Y-41043850D01*
X140314384Y-41235307D01*
X140346290Y-41417576D01*
X140370658Y-41629233D01*
X140386826Y-41855949D01*
X140394129Y-42083398D01*
X140391906Y-42297252D01*
X140379495Y-42483186D01*
X140374158Y-42527885D01*
X140297111Y-42926504D01*
X140175179Y-43316447D01*
X140010872Y-43692520D01*
X139806697Y-44049527D01*
X139565165Y-44382274D01*
X139373590Y-44599675D01*
X139078375Y-44882090D01*
X138770002Y-45123045D01*
X138444045Y-45324783D01*
X138096078Y-45489547D01*
X137721676Y-45619579D01*
X137316412Y-45717123D01*
X137092580Y-45755665D01*
X136948978Y-45770136D01*
X136772758Y-45776736D01*
X136578105Y-45775813D01*
X136379206Y-45767716D01*
X136190246Y-45752796D01*
X136025412Y-45731401D01*
X136011566Y-45729052D01*
X135601637Y-45634177D01*
X135209142Y-45496210D01*
X134836967Y-45317293D01*
X134487994Y-45099573D01*
X134165110Y-44845195D01*
X133871197Y-44556303D01*
X133609140Y-44235043D01*
X133381823Y-43883560D01*
X133283678Y-43700320D01*
X133117343Y-43316712D01*
X132995628Y-42921361D01*
X132918486Y-42518041D01*
X132885871Y-42110528D01*
X132889570Y-41983348D01*
X133130478Y-41983348D01*
X133145325Y-42301913D01*
X133189330Y-42629887D01*
X133260918Y-42954548D01*
X133332192Y-43189468D01*
X133481204Y-43552154D01*
X133670181Y-43893219D01*
X133895679Y-44209867D01*
X134154252Y-44499300D01*
X134442455Y-44758721D01*
X134756843Y-44985332D01*
X135093970Y-45176336D01*
X135450392Y-45328935D01*
X135822662Y-45440333D01*
X136183968Y-45504979D01*
X136390482Y-45526500D01*
X136571733Y-45536252D01*
X136747395Y-45534259D01*
X136937142Y-45520542D01*
X137071711Y-45506017D01*
X137467619Y-45437410D01*
X137844157Y-45326389D01*
X138206409Y-45171287D01*
X138387529Y-45074542D01*
X138730236Y-44852333D01*
X139040896Y-44596209D01*
X139317670Y-44308935D01*
X139558720Y-43993281D01*
X139762208Y-43652012D01*
X139926294Y-43287898D01*
X140049141Y-42903705D01*
X140128910Y-42502200D01*
X140137002Y-42441012D01*
X140154890Y-42185638D01*
X140150717Y-41905688D01*
X140126080Y-41616309D01*
X140082578Y-41332651D01*
X140021810Y-41069863D01*
X139977309Y-40927322D01*
X139946116Y-40837579D01*
X139919873Y-40760742D01*
X139903676Y-40711753D01*
X139902537Y-40708087D01*
X139874343Y-40635762D01*
X139827081Y-40535161D01*
X139767044Y-40418200D01*
X139700524Y-40296793D01*
X139633812Y-40182853D01*
X139582404Y-40101894D01*
X139476179Y-39952916D01*
X139352040Y-39794630D01*
X139221086Y-39640220D01*
X139094414Y-39502873D01*
X139003268Y-39413820D01*
X138746934Y-39206130D01*
X138454027Y-39015873D01*
X138133850Y-38848079D01*
X137795706Y-38707779D01*
X137549384Y-38627491D01*
X137428237Y-38598608D01*
X137274138Y-38570869D01*
X137101654Y-38546151D01*
X136925348Y-38526328D01*
X136759785Y-38513274D01*
X136627739Y-38508852D01*
X136520190Y-38512804D01*
X136383150Y-38523696D01*
X136231527Y-38539752D01*
X136080229Y-38559197D01*
X135944166Y-38580257D01*
X135838244Y-38601157D01*
X135824918Y-38604412D01*
X135435400Y-38726557D01*
X135066425Y-38888855D01*
X134720974Y-39088743D01*
X134402032Y-39323659D01*
X134112580Y-39591038D01*
X133855601Y-39888320D01*
X133634079Y-40212940D01*
X133450994Y-40562336D01*
X133395944Y-40691508D01*
X133263811Y-41079711D01*
X133175037Y-41480379D01*
X133146360Y-41686915D01*
X133130478Y-41983348D01*
X132889570Y-41983348D01*
X132897737Y-41702596D01*
X132954036Y-41298021D01*
X133054724Y-40900577D01*
X133199754Y-40514039D01*
X133325960Y-40255088D01*
X133523357Y-39931510D01*
X133757512Y-39624520D01*
X134022468Y-39339607D01*
X134312271Y-39082260D01*
X134620964Y-38857966D01*
X134942592Y-38672213D01*
X135144217Y-38579501D01*
X135391232Y-38482190D01*
X135612708Y-38407609D01*
X135821841Y-38353147D01*
X136031829Y-38316193D01*
X136255866Y-38294134D01*
X136507151Y-38284359D01*
X136641130Y-38283264D01*
X136875962Y-38285980D01*
G37*
G36*
X136815951Y-38783785D02*
G01*
X136981818Y-38789148D01*
X137124988Y-38798301D01*
X137234007Y-38811245D01*
X137247023Y-38813574D01*
X137618657Y-38907861D01*
X137972579Y-39044159D01*
X138305832Y-39219492D01*
X138615459Y-39430886D01*
X138898503Y-39675367D01*
X139152006Y-39949960D01*
X139373011Y-40251691D01*
X139558562Y-40577585D01*
X139705700Y-40924668D01*
X139811469Y-41289965D01*
X139837776Y-41419413D01*
X139886954Y-41817519D01*
X139889534Y-42208755D01*
X139846210Y-42590891D01*
X139757678Y-42961694D01*
X139624633Y-43318936D01*
X139447770Y-43660385D01*
X139227786Y-43983809D01*
X138965375Y-44286979D01*
X138934021Y-44318924D01*
X138692450Y-44541127D01*
X138439640Y-44730535D01*
X138168120Y-44891261D01*
X137870420Y-45027420D01*
X137539069Y-45143123D01*
X137330185Y-45202046D01*
X137269619Y-45211976D01*
X137171077Y-45221481D01*
X137044104Y-45230224D01*
X136898243Y-45237872D01*
X136743041Y-45244089D01*
X136588041Y-45248540D01*
X136442788Y-45250890D01*
X136316828Y-45250804D01*
X136219704Y-45247947D01*
X136165920Y-45242917D01*
X135766610Y-45154038D01*
X135395841Y-45027675D01*
X135051884Y-44862977D01*
X134733011Y-44659095D01*
X134437492Y-44415176D01*
X134387694Y-44367968D01*
X134116261Y-44073965D01*
X133886949Y-43758175D01*
X133700181Y-43421611D01*
X133556382Y-43065284D01*
X133455976Y-42690205D01*
X133399387Y-42297385D01*
X133385938Y-41980239D01*
X133389779Y-41917495D01*
X133603400Y-41917495D01*
X133611913Y-42252370D01*
X133635951Y-42448998D01*
X133715127Y-42822710D01*
X133827626Y-43165272D01*
X133976146Y-43481871D01*
X134163386Y-43777695D01*
X134392044Y-44057932D01*
X134565066Y-44235054D01*
X134768810Y-44430657D01*
X134843651Y-44296540D01*
X134972485Y-44102029D01*
X135129944Y-43932053D01*
X135320809Y-43782712D01*
X135549862Y-43650102D01*
X135744170Y-43561520D01*
X135808407Y-43536175D01*
X135831169Y-43530478D01*
X135813844Y-43543557D01*
X135757820Y-43574544D01*
X135664484Y-43622568D01*
X135577847Y-43665779D01*
X135448835Y-43732708D01*
X135348183Y-43794234D01*
X135259763Y-43861670D01*
X135167451Y-43946328D01*
X135141509Y-43971873D01*
X135017053Y-44107618D01*
X134922290Y-44236297D01*
X134886459Y-44298852D01*
X134812320Y-44445935D01*
X134900703Y-44518787D01*
X135027599Y-44607616D01*
X135191237Y-44698167D01*
X135381196Y-44786318D01*
X135587059Y-44867946D01*
X135798406Y-44938931D01*
X136004818Y-44995148D01*
X136195876Y-45032478D01*
X136200937Y-45033216D01*
X136314605Y-45044537D01*
X136458045Y-45051368D01*
X136617529Y-45053798D01*
X136779330Y-45051917D01*
X136929721Y-45045816D01*
X137054974Y-45035585D01*
X137113860Y-45027229D01*
X137194541Y-45012620D01*
X137180612Y-44724758D01*
X137165867Y-44544009D01*
X137138464Y-44332318D01*
X137133969Y-44305385D01*
X138209325Y-44305385D01*
X138209325Y-44618976D01*
X138298427Y-44565240D01*
X138375103Y-44515983D01*
X138458636Y-44458071D01*
X138482571Y-44440534D01*
X138593261Y-44349670D01*
X138718754Y-44233452D01*
X138845845Y-44104916D01*
X138961327Y-43977097D01*
X139003770Y-43926045D01*
X139075778Y-43833480D01*
X139141916Y-43742765D01*
X139196780Y-43661988D01*
X139234964Y-43599234D01*
X139251062Y-43562590D01*
X139250295Y-43557224D01*
X139224913Y-43557798D01*
X139165657Y-43566791D01*
X139085037Y-43582286D01*
X139079986Y-43583340D01*
X138968861Y-43604011D01*
X138840205Y-43624143D01*
X138734162Y-43637902D01*
X138550725Y-43658425D01*
X138380025Y-43825109D01*
X138209325Y-43991794D01*
X138209325Y-44305385D01*
X137133969Y-44305385D01*
X137100355Y-44103966D01*
X137084520Y-44021087D01*
X137079092Y-43991794D01*
X137022765Y-43687834D01*
X136977329Y-43391755D01*
X136947935Y-43125496D01*
X136934304Y-42881704D01*
X136934399Y-42869983D01*
X137997932Y-42869983D01*
X137999352Y-42890682D01*
X138003616Y-42906947D01*
X138016140Y-42954977D01*
X138036505Y-43035077D01*
X138061147Y-43133184D01*
X138072216Y-43177588D01*
X138125393Y-43391433D01*
X138251952Y-43241957D01*
X138378512Y-43092482D01*
X138323619Y-43046931D01*
X138273705Y-43011638D01*
X138199023Y-42965598D01*
X138128460Y-42925766D01*
X138054190Y-42886274D01*
X138013446Y-42868097D01*
X137997932Y-42869983D01*
X136934399Y-42869983D01*
X136936157Y-42653023D01*
X136953215Y-42432100D01*
X136985202Y-42211582D01*
X137010967Y-42078664D01*
X137011989Y-42040487D01*
X136984414Y-42026548D01*
X136953348Y-42025203D01*
X136897277Y-42037341D01*
X136819860Y-42068958D01*
X136748102Y-42107333D01*
X136659574Y-42153551D01*
X136569428Y-42189447D01*
X136510948Y-42204574D01*
X136410184Y-42219684D01*
X136421273Y-42377869D01*
X136419690Y-42567366D01*
X136385839Y-42755498D01*
X136317040Y-42956177D01*
X136303827Y-42987555D01*
X136249839Y-43097771D01*
X136183288Y-43210788D01*
X136110954Y-43317224D01*
X136039617Y-43407697D01*
X135976058Y-43472825D01*
X135932356Y-43501571D01*
X135876996Y-43521989D01*
X135927828Y-43439740D01*
X135978661Y-43357491D01*
X135828223Y-43425703D01*
X135712128Y-43471689D01*
X135562666Y-43520963D01*
X135393439Y-43569558D01*
X135218044Y-43613508D01*
X135088283Y-43641503D01*
X134922956Y-43655045D01*
X134778699Y-43625994D01*
X134655593Y-43554391D01*
X134553725Y-43440281D01*
X134496894Y-43338994D01*
X134460836Y-43253319D01*
X134436153Y-43169130D01*
X134419255Y-43070396D01*
X134406552Y-42941086D01*
X134405882Y-42932486D01*
X134397495Y-42816581D01*
X134390643Y-42708455D01*
X134386228Y-42623052D01*
X134385090Y-42586871D01*
X134386445Y-42527864D01*
X134400426Y-42504663D01*
X134438708Y-42505564D01*
X134461986Y-42509777D01*
X134553083Y-42513536D01*
X134666736Y-42499901D01*
X134782971Y-42472678D01*
X134881813Y-42435674D01*
X134899646Y-42426371D01*
X134952935Y-42398558D01*
X134984691Y-42386019D01*
X134987987Y-42386386D01*
X134998019Y-42410349D01*
X135020549Y-42467449D01*
X135051144Y-42546421D01*
X135058572Y-42565755D01*
X135093212Y-42647262D01*
X135125427Y-42707947D01*
X135149283Y-42736962D01*
X135152804Y-42738018D01*
X135185604Y-42726485D01*
X135250994Y-42694885D01*
X135340885Y-42647716D01*
X135447188Y-42589475D01*
X135561815Y-42524663D01*
X135676676Y-42457776D01*
X135783682Y-42393312D01*
X135866572Y-42341095D01*
X136035237Y-42231652D01*
X135930994Y-42196642D01*
X135848106Y-42155645D01*
X135759581Y-42091236D01*
X135677545Y-42014689D01*
X135614128Y-41937274D01*
X135581916Y-41872185D01*
X135582159Y-41844104D01*
X135628297Y-41844104D01*
X135632180Y-41861628D01*
X135665911Y-41923680D01*
X135724736Y-41996247D01*
X135794174Y-42063539D01*
X135859743Y-42109766D01*
X135859788Y-42109789D01*
X135995606Y-42159074D01*
X136158344Y-42184867D01*
X136333061Y-42186176D01*
X136504818Y-42162005D01*
X136534921Y-42154702D01*
X136711103Y-42090873D01*
X136847301Y-42001525D01*
X136943702Y-41886518D01*
X136968115Y-41840092D01*
X137008611Y-41722109D01*
X137012087Y-41616446D01*
X136986314Y-41523358D01*
X136990343Y-41486737D01*
X137022386Y-41465408D01*
X137063343Y-41468467D01*
X137078733Y-41479339D01*
X137088675Y-41495882D01*
X137062972Y-41489492D01*
X137036323Y-41484894D01*
X137030156Y-41507101D01*
X137037700Y-41553426D01*
X137054115Y-41692429D01*
X137038957Y-41806779D01*
X136990475Y-41908825D01*
X136986374Y-41914965D01*
X136954496Y-41972936D01*
X136954918Y-42000190D01*
X136982998Y-41995899D01*
X137034092Y-41959235D01*
X137066146Y-41929179D01*
X137133592Y-41836606D01*
X137174319Y-41727881D01*
X137187985Y-41614426D01*
X137174245Y-41507658D01*
X137132757Y-41418999D01*
X137082924Y-41371061D01*
X137011891Y-41344648D01*
X136949335Y-41364706D01*
X136896690Y-41427305D01*
X136856842Y-41494762D01*
X136695525Y-41460959D01*
X136549062Y-41441237D01*
X136385402Y-41436867D01*
X136222270Y-41447092D01*
X136077393Y-41471156D01*
X136011476Y-41490170D01*
X135882448Y-41547014D01*
X135773576Y-41616745D01*
X135690900Y-41693447D01*
X135640460Y-41771205D01*
X135628297Y-41844104D01*
X135582159Y-41844104D01*
X135582700Y-41781436D01*
X135627115Y-41691219D01*
X135711547Y-41607185D01*
X135780284Y-41561873D01*
X135850042Y-41519477D01*
X135885555Y-41487776D01*
X135895358Y-41456765D01*
X135891744Y-41431190D01*
X135884088Y-41380928D01*
X135875528Y-41298084D01*
X135867523Y-41197538D01*
X135864941Y-41157944D01*
X135857445Y-41054040D01*
X135847886Y-40985401D01*
X135845144Y-40977186D01*
X136016788Y-40977186D01*
X136028991Y-41138846D01*
X136039426Y-41231418D01*
X136054554Y-41312731D01*
X136069379Y-41360689D01*
X136084188Y-41388299D01*
X136103828Y-41405428D01*
X136138207Y-41414061D01*
X136197230Y-41416181D01*
X136290805Y-41413773D01*
X136327766Y-41412440D01*
X136458347Y-41410169D01*
X136563065Y-41415717D01*
X136663223Y-41431071D01*
X136757653Y-41452563D01*
X136777107Y-41437504D01*
X136816587Y-41396314D01*
X136847416Y-41361300D01*
X136902697Y-41304162D01*
X136953905Y-41263300D01*
X136974383Y-41252794D01*
X137020413Y-41216354D01*
X137036220Y-41152764D01*
X137019976Y-41072978D01*
X137008639Y-41047640D01*
X136967972Y-40980609D01*
X136917521Y-40915248D01*
X136867932Y-40863703D01*
X136829851Y-40838116D01*
X136824143Y-40837177D01*
X136793919Y-40847098D01*
X136732880Y-40873479D01*
X136652572Y-40911246D01*
X136626361Y-40924082D01*
X136520707Y-40972261D01*
X136435141Y-40999579D01*
X136350128Y-41011407D01*
X136302280Y-41013184D01*
X136210630Y-41011291D01*
X136128133Y-41004113D01*
X136085414Y-40996283D01*
X136016788Y-40977186D01*
X135845144Y-40977186D01*
X135832664Y-40939792D01*
X135808179Y-40904981D01*
X135783181Y-40880097D01*
X135730638Y-40813310D01*
X135718805Y-40743349D01*
X135726163Y-40722720D01*
X135766289Y-40722720D01*
X135771511Y-40792800D01*
X135818332Y-40849200D01*
X135820925Y-40850936D01*
X135917144Y-40898631D01*
X136041786Y-40939180D01*
X136175798Y-40967492D01*
X136298178Y-40978462D01*
X136355406Y-40977462D01*
X136406923Y-40971217D01*
X136461613Y-40956535D01*
X136528360Y-40930221D01*
X136616047Y-40889085D01*
X136733557Y-40829932D01*
X136785268Y-40803409D01*
X136963968Y-40708675D01*
X137101571Y-40628917D01*
X137201251Y-40561833D01*
X137266181Y-40505122D01*
X137299534Y-40456484D01*
X137305792Y-40425966D01*
X137303375Y-40393210D01*
X137292083Y-40397231D01*
X137266232Y-40436578D01*
X137211761Y-40497150D01*
X137125280Y-40563645D01*
X137020110Y-40627722D01*
X136909570Y-40681042D01*
X136831214Y-40708939D01*
X136739134Y-40735383D01*
X136649734Y-40760982D01*
X136611125Y-40772000D01*
X136548476Y-40780264D01*
X136454951Y-40781380D01*
X136343590Y-40776458D01*
X136227431Y-40766605D01*
X136176991Y-40760214D01*
X136413830Y-40760214D01*
X136437186Y-40764019D01*
X136468003Y-40759651D01*
X136468371Y-40751540D01*
X136436570Y-40745868D01*
X136422830Y-40749664D01*
X136413830Y-40760214D01*
X136176991Y-40760214D01*
X136119512Y-40752931D01*
X136032872Y-40736546D01*
X136032604Y-40736454D01*
X136176225Y-40736454D01*
X136199580Y-40740259D01*
X136230398Y-40735890D01*
X136230766Y-40727779D01*
X136198965Y-40722107D01*
X136185225Y-40725903D01*
X136176225Y-40736454D01*
X136032604Y-40736454D01*
X135980548Y-40718558D01*
X135980166Y-40718328D01*
X135962174Y-40703604D01*
X135984383Y-40703649D01*
X136011476Y-40708814D01*
X136042705Y-40712713D01*
X136036359Y-40702311D01*
X135990059Y-40675237D01*
X135963955Y-40661372D01*
X135845153Y-40599076D01*
X135803572Y-40649477D01*
X135766289Y-40722720D01*
X135726163Y-40722720D01*
X135747758Y-40662175D01*
X135785751Y-40603342D01*
X135827798Y-40532411D01*
X135852406Y-40467018D01*
X135906922Y-40467018D01*
X135916948Y-40542763D01*
X135945715Y-40606351D01*
X135985394Y-40643147D01*
X136003279Y-40647092D01*
X136014803Y-40625735D01*
X136022065Y-40571204D01*
X136022799Y-40547774D01*
X136023356Y-40529987D01*
X136031309Y-40434327D01*
X136034586Y-40427852D01*
X136070878Y-40427852D01*
X136070878Y-40547774D01*
X136072894Y-40619123D01*
X136083383Y-40656214D01*
X136109003Y-40672274D01*
X136136219Y-40677595D01*
X136248345Y-40689980D01*
X136335089Y-40690362D01*
X136389013Y-40679176D01*
X136403525Y-40661943D01*
X136394958Y-40582104D01*
X136372999Y-40514435D01*
X136343262Y-40474662D01*
X136335354Y-40470945D01*
X136289260Y-40460977D01*
X136217850Y-40448843D01*
X136192807Y-40445128D01*
X136403525Y-40445128D01*
X136415405Y-40457008D01*
X136427285Y-40445128D01*
X136415405Y-40433248D01*
X136403525Y-40445128D01*
X136192807Y-40445128D01*
X136183740Y-40443783D01*
X136070878Y-40427852D01*
X136034586Y-40427852D01*
X136037869Y-40421367D01*
X136356004Y-40421367D01*
X136367884Y-40433248D01*
X136379764Y-40421367D01*
X136367884Y-40409487D01*
X136356004Y-40421367D01*
X136037869Y-40421367D01*
X136060182Y-40377288D01*
X136117501Y-40352086D01*
X136210790Y-40351937D01*
X136219897Y-40352791D01*
X136339069Y-40367816D01*
X136418600Y-40389991D01*
X136466368Y-40426766D01*
X136490252Y-40485595D01*
X136498131Y-40573931D01*
X136498567Y-40616383D01*
X136498567Y-40725144D01*
X136636098Y-40710769D01*
X136732060Y-40695422D01*
X136825118Y-40672122D01*
X136866551Y-40657569D01*
X136977104Y-40603697D01*
X137082641Y-40538826D01*
X137171562Y-40471204D01*
X137232267Y-40409074D01*
X137245884Y-40387931D01*
X137270478Y-40314049D01*
X137280148Y-40231476D01*
X137280061Y-40226523D01*
X137277458Y-40136241D01*
X137256808Y-40241509D01*
X137210407Y-40357632D01*
X137121008Y-40463092D01*
X136992750Y-40553226D01*
X136968627Y-40566052D01*
X136888457Y-40604881D01*
X136846694Y-40620908D01*
X136844683Y-40615125D01*
X136883766Y-40588523D01*
X136948563Y-40551243D01*
X137085735Y-40463590D01*
X137177510Y-40374997D01*
X137225921Y-40281540D01*
X137232999Y-40179295D01*
X137200774Y-40064339D01*
X137200715Y-40064196D01*
X137181442Y-40011484D01*
X137176490Y-39983281D01*
X137178101Y-39981798D01*
X137194359Y-40001224D01*
X137219017Y-40048981D01*
X137223480Y-40059019D01*
X137245162Y-40101273D01*
X137257190Y-40109997D01*
X137257974Y-40105594D01*
X137244925Y-40052961D01*
X137209755Y-39981068D01*
X137161845Y-39906231D01*
X137110577Y-39844768D01*
X137104825Y-39839235D01*
X137018237Y-39789351D01*
X136912436Y-39779115D01*
X136793866Y-39808177D01*
X136690532Y-39861788D01*
X136628533Y-39904636D01*
X136589082Y-39937934D01*
X136580680Y-39953028D01*
X136605724Y-39949382D01*
X136635044Y-39929076D01*
X136718229Y-39874373D01*
X136818193Y-39835049D01*
X136920249Y-39814395D01*
X137009708Y-39815707D01*
X137060610Y-39833658D01*
X137053872Y-39842623D01*
X137009421Y-39848971D01*
X136941808Y-39851257D01*
X136853450Y-39854930D01*
X136785897Y-39870327D01*
X136717095Y-39904327D01*
X136663861Y-39937948D01*
X136590735Y-39988524D01*
X136531092Y-40034295D01*
X136500785Y-40062287D01*
X136467885Y-40088127D01*
X136451046Y-40088720D01*
X136423029Y-40094822D01*
X136403308Y-40112742D01*
X136348696Y-40143247D01*
X136267495Y-40142823D01*
X136200423Y-40123929D01*
X136164957Y-40107726D01*
X136147885Y-40085139D01*
X136147381Y-40076840D01*
X136213441Y-40076840D01*
X136233401Y-40095958D01*
X136262364Y-40100600D01*
X136295218Y-40091454D01*
X136296602Y-40076840D01*
X136295795Y-40076327D01*
X136453565Y-40076327D01*
X136454643Y-40076840D01*
X136477242Y-40061292D01*
X136516788Y-40023274D01*
X136522327Y-40017438D01*
X136556228Y-39978177D01*
X136567329Y-39958550D01*
X136566252Y-39958037D01*
X136543653Y-39973585D01*
X136504107Y-40011603D01*
X136498567Y-40017438D01*
X136464666Y-40056700D01*
X136453565Y-40076327D01*
X136295795Y-40076327D01*
X136262224Y-40054977D01*
X136247679Y-40053079D01*
X136216970Y-40066364D01*
X136213441Y-40076840D01*
X136147381Y-40076840D01*
X136145313Y-40042774D01*
X136145368Y-40042255D01*
X136363316Y-40042255D01*
X136366449Y-40052784D01*
X136403275Y-40032183D01*
X136473018Y-39980407D01*
X136532963Y-39932208D01*
X136621210Y-39864187D01*
X136707341Y-39805286D01*
X136777635Y-39764611D01*
X136800268Y-39754744D01*
X136854278Y-39734444D01*
X136861979Y-39728352D01*
X136957937Y-39728352D01*
X136961199Y-39742478D01*
X136973777Y-39744192D01*
X136993335Y-39735499D01*
X136989618Y-39728352D01*
X136961420Y-39725508D01*
X136957937Y-39728352D01*
X136861979Y-39728352D01*
X136866341Y-39724901D01*
X136839579Y-39721797D01*
X136824328Y-39721475D01*
X136731127Y-39739758D01*
X136624585Y-39793268D01*
X136515124Y-39876079D01*
X136461239Y-39927991D01*
X136394654Y-40000642D01*
X136363316Y-40042255D01*
X136145368Y-40042255D01*
X136153347Y-39967238D01*
X136153802Y-39963589D01*
X136155407Y-39950747D01*
X136192744Y-39950747D01*
X136206460Y-39998843D01*
X136231261Y-40012940D01*
X136291924Y-40024345D01*
X136325598Y-40013134D01*
X136348695Y-39975858D01*
X136374531Y-39918184D01*
X136405509Y-39847518D01*
X136451046Y-39847518D01*
X136465775Y-39850643D01*
X136501527Y-39825962D01*
X136504507Y-39823326D01*
X136566748Y-39771705D01*
X136617370Y-39733822D01*
X136676771Y-39692272D01*
X136617370Y-39709083D01*
X136559314Y-39735928D01*
X136502238Y-39777685D01*
X136461549Y-39821530D01*
X136451046Y-39847518D01*
X136405509Y-39847518D01*
X136406192Y-39845959D01*
X136411173Y-39834457D01*
X136476433Y-39737488D01*
X136576473Y-39670972D01*
X136647665Y-39646482D01*
X136686718Y-39635246D01*
X136684745Y-39631981D01*
X136639094Y-39635977D01*
X136617370Y-39638386D01*
X136503543Y-39666817D01*
X136414730Y-39727625D01*
X136340534Y-39828099D01*
X136336403Y-39835399D01*
X136291317Y-39905019D01*
X136258682Y-39931336D01*
X136239782Y-39913772D01*
X136235531Y-39880815D01*
X136232740Y-39843798D01*
X136223443Y-39852403D01*
X136213441Y-39874875D01*
X136192744Y-39950747D01*
X136155407Y-39950747D01*
X136170813Y-39827441D01*
X136118412Y-39874863D01*
X136069361Y-39931997D01*
X136031654Y-39993622D01*
X136010830Y-40038598D01*
X136011732Y-40045315D01*
X136034087Y-40018837D01*
X136062552Y-39974617D01*
X136070878Y-39949536D01*
X136079631Y-39936053D01*
X136083065Y-39938544D01*
X136080606Y-39964865D01*
X136062036Y-40021239D01*
X136035719Y-40085351D01*
X135998712Y-40186940D01*
X135969560Y-40298628D01*
X135959719Y-40356309D01*
X135949571Y-40428418D01*
X135940761Y-40457689D01*
X135931303Y-40448687D01*
X135926273Y-40433248D01*
X135915444Y-40402376D01*
X135909757Y-40411177D01*
X135907014Y-40463483D01*
X135906922Y-40467018D01*
X135852406Y-40467018D01*
X135853399Y-40464378D01*
X135857033Y-40438445D01*
X135869197Y-40327267D01*
X135884875Y-40266924D01*
X135928314Y-40266924D01*
X135937008Y-40286482D01*
X135944155Y-40282764D01*
X135946998Y-40254566D01*
X135944155Y-40251084D01*
X135930029Y-40254345D01*
X135928314Y-40266924D01*
X135884875Y-40266924D01*
X135902048Y-40200826D01*
X135935078Y-40112481D01*
X135975835Y-40112481D01*
X135987716Y-40124361D01*
X135999596Y-40112481D01*
X135987716Y-40100600D01*
X135975835Y-40112481D01*
X135935078Y-40112481D01*
X135950128Y-40072225D01*
X136007976Y-39954567D01*
X136070133Y-39860953D01*
X136117420Y-39813554D01*
X136159651Y-39780929D01*
X136245666Y-39780929D01*
X136247409Y-39791714D01*
X136266493Y-39773499D01*
X136284722Y-39744192D01*
X136300017Y-39707456D01*
X136298274Y-39696671D01*
X136279191Y-39714885D01*
X136260962Y-39744192D01*
X136245666Y-39780929D01*
X136159651Y-39780929D01*
X136180044Y-39765175D01*
X136222464Y-39726384D01*
X136263542Y-39679712D01*
X136268740Y-39673406D01*
X136322915Y-39633263D01*
X136370685Y-39631741D01*
X136430200Y-39631144D01*
X136505987Y-39615834D01*
X136526844Y-39609291D01*
X136628455Y-39588850D01*
X136717653Y-39597821D01*
X136781377Y-39634712D01*
X136784961Y-39638797D01*
X136826402Y-39661913D01*
X136890468Y-39673487D01*
X136899465Y-39673753D01*
X136972774Y-39682310D01*
X137033386Y-39701926D01*
X137036179Y-39703454D01*
X137118767Y-39772035D01*
X137196153Y-39874084D01*
X137260580Y-39995616D01*
X137304295Y-40122647D01*
X137318826Y-40213165D01*
X137325823Y-40279874D01*
X137335661Y-40324344D01*
X137339672Y-40331852D01*
X137350298Y-40363968D01*
X137353946Y-40410455D01*
X137365304Y-40469787D01*
X137394014Y-40545407D01*
X137410653Y-40578758D01*
X137453051Y-40664600D01*
X137489348Y-40758350D01*
X137522013Y-40868863D01*
X137553516Y-41004997D01*
X137586328Y-41175606D01*
X137601985Y-41264866D01*
X137630511Y-41428329D01*
X137653424Y-41550828D01*
X137672491Y-41638342D01*
X137689477Y-41696853D01*
X137706148Y-41732339D01*
X137724268Y-41750781D01*
X137745603Y-41758160D01*
X137747703Y-41758480D01*
X137963352Y-41805426D01*
X138199335Y-41885501D01*
X138447079Y-41994115D01*
X138698013Y-42126678D01*
X138943563Y-42278600D01*
X139175157Y-42445292D01*
X139384224Y-42622163D01*
X139415270Y-42651347D01*
X139483231Y-42713679D01*
X139537925Y-42759043D01*
X139570878Y-42780614D01*
X139576175Y-42780959D01*
X139592702Y-42744002D01*
X139611281Y-42669759D01*
X139630266Y-42568317D01*
X139648006Y-42449767D01*
X139662852Y-42324198D01*
X139673155Y-42201699D01*
X139674460Y-42179646D01*
X139671490Y-41809357D01*
X139623274Y-41446394D01*
X139531946Y-41094390D01*
X139399639Y-40756979D01*
X139228485Y-40437795D01*
X139020616Y-40140473D01*
X138778166Y-39868646D01*
X138503267Y-39625948D01*
X138198052Y-39416014D01*
X137983600Y-39298441D01*
X137759039Y-39194571D01*
X137549587Y-39116016D01*
X137342776Y-39059996D01*
X137126136Y-39023733D01*
X136887196Y-39004448D01*
X136641130Y-38999313D01*
X136375562Y-39005302D01*
X136143183Y-39025179D01*
X135930959Y-39061807D01*
X135725855Y-39118049D01*
X135514836Y-39196767D01*
X135298660Y-39294188D01*
X134996814Y-39464011D01*
X134710832Y-39674445D01*
X134447636Y-39919431D01*
X134214144Y-40192907D01*
X134116908Y-40329148D01*
X134040297Y-40445978D01*
X133979319Y-40547090D01*
X133926652Y-40646608D01*
X133874974Y-40758655D01*
X133816962Y-40897355D01*
X133798102Y-40944099D01*
X133697804Y-41251210D01*
X133632466Y-41579725D01*
X133603400Y-41917495D01*
X133389779Y-41917495D01*
X133409249Y-41599405D01*
X133477911Y-41227210D01*
X133590019Y-40867277D01*
X133743671Y-40523228D01*
X133936961Y-40198688D01*
X134167986Y-39897280D01*
X134434840Y-39622626D01*
X134735620Y-39378350D01*
X134764049Y-39358148D01*
X135048541Y-39180470D01*
X135355945Y-39028729D01*
X135673205Y-38908465D01*
X135987262Y-38825218D01*
X136047117Y-38813752D01*
X136154633Y-38800193D01*
X136296730Y-38790415D01*
X136461953Y-38784420D01*
X136638845Y-38782210D01*
X136815951Y-38783785D01*
G37*
D12*
%TO.C,S1*%
X90705000Y-65565000D02*
X104675000Y-65565000D01*
X90705000Y-79535000D02*
X90705000Y-65565000D01*
X104675000Y-65565000D02*
X104675000Y-79535000D01*
X104675000Y-79535000D02*
X90705000Y-79535000D01*
%TO.C,S5*%
X109785000Y-84605000D02*
X123755000Y-84605000D01*
X109785000Y-98575000D02*
X109785000Y-84605000D01*
X123755000Y-84605000D02*
X123755000Y-98575000D01*
X123755000Y-98575000D02*
X109785000Y-98575000D01*
%TO.C,SW1*%
X146440000Y-47570000D02*
X147040000Y-47570000D01*
X146740000Y-47870000D02*
X146440000Y-47570000D01*
X147040000Y-47570000D02*
X146740000Y-47870000D01*
X148140000Y-45770000D02*
X148140000Y-57570000D01*
X152240000Y-45770000D02*
X148140000Y-45770000D01*
X152240000Y-57570000D02*
X148140000Y-57570000D01*
X153740000Y-51670000D02*
X154740000Y-51670000D01*
X154240000Y-51170000D02*
X154240000Y-52170000D01*
X156240000Y-45770000D02*
X160340000Y-45770000D01*
X160340000Y-45770000D02*
X160340000Y-48170000D01*
X160340000Y-50370000D02*
X160340000Y-52970000D01*
X160340000Y-55170000D02*
X160340000Y-57570000D01*
X160340000Y-57570000D02*
X156240000Y-57570000D01*
X157240000Y-51670000D02*
G75*
G02*
X151240000Y-51670000I-3000000J0D01*
G01*
X151240000Y-51670000D02*
G75*
G02*
X157240000Y-51670000I3000000J0D01*
G01*
%TO.C,S9*%
X128795000Y-103655000D02*
X142765000Y-103655000D01*
X128795000Y-117625000D02*
X128795000Y-103655000D01*
X142765000Y-103655000D02*
X142765000Y-117625000D01*
X142765000Y-117625000D02*
X128795000Y-117625000D01*
D14*
%TO.C,D8*%
X155690000Y-101530000D02*
X156290000Y-101930000D01*
X155690000Y-101930000D02*
X155190000Y-101930000D01*
X155690000Y-102330000D02*
X155690000Y-101530000D01*
X156290000Y-101930000D02*
X155690000Y-102330000D01*
X156290000Y-102480000D02*
X156290000Y-101380000D01*
X156690000Y-101930000D02*
X156290000Y-101930000D01*
%TO.C,D2*%
X135790000Y-57850000D02*
X136390000Y-58250000D01*
X135790000Y-58250000D02*
X135290000Y-58250000D01*
X135790000Y-58650000D02*
X135790000Y-57850000D01*
X136390000Y-58250000D02*
X135790000Y-58650000D01*
X136390000Y-58800000D02*
X136390000Y-57700000D01*
X136790000Y-58250000D02*
X136390000Y-58250000D01*
%TO.C,D10*%
X163170000Y-69130000D02*
X164270000Y-69130000D01*
X163320000Y-68530000D02*
X164120000Y-68530000D01*
X163720000Y-68530000D02*
X163720000Y-68030000D01*
X163720000Y-69130000D02*
X163320000Y-68530000D01*
X163720000Y-69530000D02*
X163720000Y-69130000D01*
X164120000Y-68530000D02*
X163720000Y-69130000D01*
%TD*%
%LPC*%
D16*
%TO.C,S4*%
X92620000Y-91600000D03*
D17*
X97700000Y-91600000D03*
D16*
X102780000Y-91600000D03*
D18*
X100240000Y-86520000D03*
X93890000Y-89060000D03*
%TD*%
D19*
%TO.C,D3*%
X139850000Y-54700000D03*
D20*
X132230000Y-54700000D03*
%TD*%
D21*
%TO.C,J1*%
X91510000Y-54540000D03*
D22*
X91510000Y-52000000D03*
X91510000Y-49460000D03*
X91510000Y-46920000D03*
%TD*%
D16*
%TO.C,S7*%
X92600000Y-110640000D03*
D17*
X97680000Y-110640000D03*
D16*
X102760000Y-110640000D03*
D18*
X100220000Y-105560000D03*
X93870000Y-108100000D03*
%TD*%
D16*
%TO.C,S6*%
X130740000Y-91590000D03*
D17*
X135820000Y-91590000D03*
D16*
X140900000Y-91590000D03*
D18*
X138360000Y-86510000D03*
X132010000Y-89050000D03*
%TD*%
D16*
%TO.C,S3*%
X130710000Y-72540000D03*
D17*
X135790000Y-72540000D03*
D16*
X140870000Y-72540000D03*
D18*
X138330000Y-67460000D03*
X131980000Y-70000000D03*
%TD*%
D19*
%TO.C,D9*%
X159750000Y-98380000D03*
D20*
X152130000Y-98380000D03*
%TD*%
D19*
%TO.C,D6*%
X159360000Y-72640000D03*
D20*
X159360000Y-65020000D03*
%TD*%
D19*
%TO.C,D7*%
X159750000Y-105480000D03*
D20*
X152130000Y-105480000D03*
%TD*%
D16*
%TO.C,S2*%
X111670000Y-72540000D03*
D17*
X116750000Y-72540000D03*
D16*
X121830000Y-72540000D03*
D18*
X119290000Y-67460000D03*
X112940000Y-70000000D03*
%TD*%
D19*
%TO.C,D5*%
X155810000Y-72640000D03*
D20*
X155810000Y-65020000D03*
%TD*%
D19*
%TO.C,D4*%
X152260000Y-72640000D03*
D20*
X152260000Y-65020000D03*
%TD*%
D16*
%TO.C,S8*%
X111680000Y-110650000D03*
D17*
X116760000Y-110650000D03*
D16*
X121840000Y-110650000D03*
D18*
X119300000Y-105570000D03*
X112950000Y-108110000D03*
%TD*%
D19*
%TO.C,D1*%
X139850000Y-61800000D03*
D20*
X132230000Y-61800000D03*
%TD*%
D16*
%TO.C,S1*%
X92610000Y-72550000D03*
D17*
X97690000Y-72550000D03*
D16*
X102770000Y-72550000D03*
D18*
X100230000Y-67470000D03*
X93880000Y-70010000D03*
%TD*%
D16*
%TO.C,S5*%
X111690000Y-91590000D03*
D17*
X116770000Y-91590000D03*
D16*
X121850000Y-91590000D03*
D18*
X119310000Y-86510000D03*
X112960000Y-89050000D03*
%TD*%
D23*
%TO.C,SW1*%
X146740000Y-49170000D03*
D24*
X146740000Y-54170000D03*
X146740000Y-51670000D03*
D25*
X154240000Y-46070000D03*
X154240000Y-57270000D03*
D24*
X161240000Y-54170000D03*
X161240000Y-49170000D03*
%TD*%
D16*
%TO.C,S9*%
X130700000Y-110640000D03*
D17*
X135780000Y-110640000D03*
D16*
X140860000Y-110640000D03*
D18*
X138320000Y-105560000D03*
X131970000Y-108100000D03*
%TD*%
D19*
%TO.C,D8*%
X159750000Y-101930000D03*
D20*
X152130000Y-101930000D03*
%TD*%
D19*
%TO.C,D2*%
X139850000Y-58250000D03*
D20*
X132230000Y-58250000D03*
%TD*%
D26*
%TO.C,U1*%
X163490000Y-76995000D03*
D19*
X163490000Y-77440000D03*
D26*
X160950000Y-76995000D03*
D27*
X160950000Y-77440000D03*
D26*
X158410000Y-76995000D03*
D27*
X158410000Y-77440000D03*
D26*
X155870000Y-76995000D03*
D27*
X155870000Y-77440000D03*
D26*
X153330000Y-76995000D03*
D27*
X153330000Y-77440000D03*
D26*
X150790000Y-76995000D03*
D27*
X150790000Y-77440000D03*
D26*
X148250000Y-76995000D03*
D27*
X148250000Y-77440000D03*
X148250000Y-92680000D03*
D26*
X148250000Y-93160000D03*
D27*
X150790000Y-92680000D03*
D26*
X150790000Y-93160000D03*
D27*
X153330000Y-92680000D03*
D26*
X153330000Y-93160000D03*
D27*
X155870000Y-92680000D03*
D26*
X155870000Y-93160000D03*
D27*
X158410000Y-92680000D03*
D26*
X158410000Y-93160000D03*
D27*
X160950000Y-92680000D03*
D26*
X160950000Y-93160000D03*
D27*
X163490000Y-92680000D03*
D26*
X163490000Y-93160000D03*
%TD*%
D19*
%TO.C,D10*%
X163720000Y-72590000D03*
D20*
X163720000Y-64970000D03*
%TD*%
%LPD*%
M02*
