<?xml version="1.0" encoding="utf-8"?>
<!-- Generator: Fusion 360, Shaper Origin Export Add-In, Version 1.8.0  -->
<svg xmlns="http://www.w3.org/2000/svg" xmlns:xlink="http://www.w3.org/1999/xlink" xmlns:shaper="http://www.shapertools.com/namespaces/shaper" shaper:fusionaddin="version:1.8.0" width="12.0000006cm" height="11.999015cm" version="1.1" x="0cm" y="0cm" viewBox="0 0 12.0000006 11.999015" enable-background="new 0 0 12.0000006 11.999015" xml:space="preserve"><g id="Body_Body2"><path d="M-1.7198096,2.449816 L-1.7224928,5.1185135 7.2500001,5.1185135 7.3399998,5.1099999 7.4296572,5.0836982 7.5134665,5.0391024 7.5879504,4.9780609 7.6482652,4.9045801 7.6933315,4.8202998 7.7210004,4.7290002 7.7300004,4.6387502 7.7300004,-6.3999999 7.7210004,-6.4894421 7.6932428,-6.5803894 7.6485004,-6.6645003 7.5880808,-6.7379078 7.5143483,-6.7984324 7.430355,-6.8433711 7.3392905,-6.8710939 7.2436871,-6.8805015 -3.7835947,-6.8805015 -3.8792805,-6.8711591 -3.9701362,-6.8433711 -4.054465,-6.7987095 -4.12822,-6.7377473 -4.1886168,-6.664421 -4.2333261,-6.5804567 -4.2612036,-6.4893529 -4.2700002,-6.3987503 -4.2700002,2.4499999 -1.7198096,2.449816z" transform="matrix(1,0,0,-1,4.2700002,5.1185135)" fill="rgb(0,0,0)" shaper:cutDepth="0.1cm" stroke-linecap="round" stroke-linejoin="round" /><path d="M6.8280467,0.3465177 L5.4201178,0.3465177 5.4201178,1.7403202 6.8280467,1.7403202 6.8280467,0.3465177z" transform="matrix(1,0,0,-1,4.2700002,5.1185135)" fill="rgb(255,255,255)" stroke="rgb(0,0,0)" stroke-width="0.0010cm" stroke-linecap="round" stroke-linejoin="round" shaper:cutDepth="0.1cm" /><path d="M0.6968602,-5.7781833 L-0.7082642,-5.7781833 -0.7082642,-4.3706754 0.6968602,-4.3706754 0.6968602,-5.7781833z" transform="matrix(1,0,0,-1,4.2700002,5.1185135)" fill="rgb(255,255,255)" stroke="rgb(0,0,0)" stroke-width="0.0010cm" stroke-linecap="round" stroke-linejoin="round" shaper:cutDepth="0.1cm" /><path d="M3.7613136,-5.7762006 L2.3477595,-5.7762006 2.3477595,-4.3706754 3.7613136,-4.3706754 3.7613136,-5.7762006z" transform="matrix(1,0,0,-1,4.2700002,5.1185135)" fill="rgb(255,255,255)" stroke="rgb(0,0,0)" stroke-width="0.0010cm" stroke-linecap="round" stroke-linejoin="round" shaper:cutDepth="0.1cm" /><path d="M-2.358898,-5.7841423 L-3.7723649,-5.7841423 -3.7723649,-4.3706754 -2.358898,-4.3706754 -2.358898,-5.7841423z" transform="matrix(1,0,0,-1,4.2700002,5.1185135)" fill="rgb(255,255,255)" stroke="rgb(0,0,0)" stroke-width="0.0010cm" stroke-linecap="round" stroke-linejoin="round" shaper:cutDepth="0.1cm" /><path d="M6.891886,4.4999999 a0.1581139,0.1581139 0 1,1 0.3162278,0 a0.1581139,0.1581139 0 1,1 -0.3162278,0z" transform="matrix(1,0,0,-1,4.2700002,5.1185135)" fill="rgb(255,255,255)" stroke="rgb(0,0,0)" stroke-width="0.0010cm" stroke-linecap="round" stroke-linejoin="round" shaper:cutDepth="0.1cm" /><path d="M3.7602106,-2.7134164 L2.3545442,-2.7134164 2.3545442,-1.3066752 3.7602106,-1.3066752 3.7602106,-2.7134164z" transform="matrix(1,0,0,-1,4.2700002,5.1185135)" fill="rgb(255,255,255)" stroke="rgb(0,0,0)" stroke-width="0.0010cm" stroke-linecap="round" stroke-linejoin="round" shaper:cutDepth="0.1cm" /><path d="M-2.3446806,0.3465177 L-3.7479007,0.3465177 -3.7479007,1.7403202 -2.3446806,1.7403202 -2.3446806,0.3465177z" transform="matrix(1,0,0,-1,4.2700002,5.1185135)" fill="rgb(255,255,255)" stroke="rgb(0,0,0)" stroke-width="0.0010cm" stroke-linecap="round" stroke-linejoin="round" shaper:cutDepth="0.1cm" /><path d="M6.8174219,-5.7796032 L5.4084806,-5.7796032 5.4084806,-4.3706754 6.8174219,-4.3706754 6.8174219,-5.7796032z" transform="matrix(1,0,0,-1,4.2700002,5.1185135)" fill="rgb(255,255,255)" stroke="rgb(0,0,0)" stroke-width="0.0010cm" stroke-linecap="round" stroke-linejoin="round" shaper:cutDepth="0.1cm" /><path d="M6.8197387,-2.7134164 L5.4140723,-2.7134164 5.4140723,-1.3066752 6.8197387,-1.3066752 6.8197387,-2.7134164z" transform="matrix(1,0,0,-1,4.2700002,5.1185135)" fill="rgb(255,255,255)" stroke="rgb(0,0,0)" stroke-width="0.0010cm" stroke-linecap="round" stroke-linejoin="round" shaper:cutDepth="0.1cm" /><path d="M-0.7381139,4.4999999 a0.1581139,0.1581139 0 1,1 0.3162278,0 a0.1581139,0.1581139 0 1,1 -0.3162278,0z" transform="matrix(1,0,0,-1,4.2700002,5.1185135)" fill="rgb(255,255,255)" stroke="rgb(0,0,0)" stroke-width="0.0010cm" stroke-linecap="round" stroke-linejoin="round" shaper:cutDepth="0.1cm" /><path d="M-2.3589677,-2.7069552 L-3.7635299,-2.7069552 -3.7635299,-1.3066752 -2.3589677,-1.3066752 -2.3589677,-2.7069552z" transform="matrix(1,0,0,-1,4.2700002,5.1185135)" fill="rgb(255,255,255)" stroke="rgb(0,0,0)" stroke-width="0.0010cm" stroke-linecap="round" stroke-linejoin="round" shaper:cutDepth="0.1cm" /><path d="M0.6924904,0.3418089 L-0.7201473,0.3418089 -0.7201473,1.7403202 0.6924904,1.7403202 0.6924904,0.3418089z" transform="matrix(1,0,0,-1,4.2700002,5.1185135)" fill="rgb(255,255,255)" stroke="rgb(0,0,0)" stroke-width="0.0010cm" stroke-linecap="round" stroke-linejoin="round" shaper:cutDepth="0.1cm" /><path d="M-3.8055634,-6.1999999 a0.1555635,0.1555635 0 1,1 0.311127,0 a0.1555635,0.1555635 0 1,1 -0.311127,0z" transform="matrix(1,0,0,-1,4.2700002,5.1185135)" fill="rgb(255,255,255)" stroke="rgb(0,0,0)" stroke-width="0.0010cm" stroke-linecap="round" stroke-linejoin="round" shaper:cutDepth="0.1cm" /><path d="M3.7532054,0.3371001 L2.3499853,0.3371001 2.3499853,1.7403202 3.7532054,1.7403202 3.7532054,0.3371001z" transform="matrix(1,0,0,-1,4.2700002,5.1185135)" fill="rgb(255,255,255)" stroke="rgb(0,0,0)" stroke-width="0.0010cm" stroke-linecap="round" stroke-linejoin="round" shaper:cutDepth="0.1cm" /><path d="M6.8937949,-6.1899999 a0.156205,0.156205 0 1,1 0.31241,0 a0.156205,0.156205 0 1,1 -0.31241,0z" transform="matrix(1,0,0,-1,4.2700002,5.1185135)" fill="rgb(255,255,255)" stroke="rgb(0,0,0)" stroke-width="0.0010cm" stroke-linecap="round" stroke-linejoin="round" shaper:cutDepth="0.1cm" /><path d="M0.7,-2.7 L-0.7049839,-2.7 -0.7049839,-1.3066752 0.7,-1.3066752 0.7,-2.7z" transform="matrix(1,0,0,-1,4.2700002,5.1185135)" fill="rgb(255,255,255)" stroke="rgb(0,0,0)" stroke-width="0.0010cm" stroke-linecap="round" stroke-linejoin="round" shaper:cutDepth="0.1cm" /></g></svg>