999
"DXF R12 Output" (www.mydxf.blogspot.com)
 0 
SECTION
 2 
HEADER
 9 
$ACADVER
 1 
AC1009
 9 
$EXTMIN
 10 
 0 
 20 
 0 
 9 
$EXTMAX
 10 
 8.5 
 20 
 11 
 0 
ENDSEC
 0 
SECTION
 2 
ENTITIES
0
LINE
8
Layer 1
10
91.606000
20
188.796000
11
91.760500
21
187.920000
0
LINE
8
Layer 1
10
91.760500
20
187.920000
11
91.934000
21
186.936000
0
LINE
8
Layer 1
10
91.934000
20
186.936000
11
91.984100
21
185.505000
0
LINE
8
Layer 1
10
91.984100
20
185.505000
11
92.000000
21
185.505000
0
LINE
8
Layer 1
10
92.000000
20
185.505000
11
92.000000
21
185.049000
0
LINE
8
Layer 1
10
92.000000
20
185.049000
11
92.000000
21
183.961000
0
LINE
8
Layer 1
10
92.000000
20
183.961000
11
92.000000
21
182.958000
0
LINE
8
Layer 1
10
92.000000
20
182.958000
11
92.000000
21
181.944000
0
LINE
8
Layer 1
10
92.000000
20
181.944000
11
92.000000
21
180.904000
0
LINE
8
Layer 1
10
92.000000
20
180.904000
11
92.000000
21
179.816000
0
LINE
8
Layer 1
10
92.000000
20
179.816000
11
92.000000
21
178.659000
0
LINE
8
Layer 1
10
92.000000
20
178.659000
11
92.000000
21
177.421000
0
LINE
8
Layer 1
10
92.000000
20
177.421000
11
92.000000
21
176.076000
0
LINE
8
Layer 1
10
92.000000
20
176.076000
11
92.000000
21
174.588000
0
LINE
8
Layer 1
10
92.000000
20
174.588000
11
92.000000
21
171.985000
0
LINE
8
Layer 1
10
92.000000
20
171.985000
11
92.000000
21
122.065000
0
LINE
8
Layer 1
10
92.000000
20
122.065000
11
92.000000
21
108.545000
0
LINE
8
Layer 1
10
92.000000
20
108.545000
11
91.984100
21
108.545000
0
LINE
8
Layer 1
10
91.984100
20
108.545000
11
92.000000
21
108.089000
0
LINE
8
Layer 1
10
92.000000
20
108.089000
11
91.803000
21
106.211000
0
LINE
8
Layer 1
10
91.803000
20
106.211000
11
91.750400
21
106.000000
0
LINE
8
Layer 1
10
91.750400
20
106.000000
11
91.346000
21
104.378000
0
LINE
8
Layer 1
10
91.346000
20
104.378000
11
90.639000
21
102.627000
0
LINE
8
Layer 1
10
90.639000
20
102.627000
11
89.695000
21
100.992000
0
LINE
8
Layer 1
10
89.695000
20
100.992000
11
88.533000
21
99.504000
0
LINE
8
Layer 1
10
88.533000
20
99.504000
11
87.176000
21
98.192000
0
LINE
8
Layer 1
10
87.176000
20
98.192000
11
85.649000
21
97.082000
0
LINE
8
Layer 1
10
85.649000
20
97.082000
11
83.982000
21
96.195000
0
LINE
8
Layer 1
10
83.982000
20
96.195000
11
82.209000
21
95.549000
0
LINE
8
Layer 1
10
82.209000
20
95.549000
11
81.920000
21
95.487600
0
LINE
8
Layer 1
10
81.920000
20
95.487600
11
80.363000
21
95.157000
0
LINE
8
Layer 1
10
80.363000
20
95.157000
11
78.480000
21
95.025000
0
LINE
8
Layer 1
10
78.480000
20
95.025000
11
77.218600
21
95.025000
0
LINE
8
Layer 1
10
77.218600
20
95.025000
11
76.189200
21
95.025000
0
LINE
8
Layer 1
10
76.189200
20
95.025000
11
75.176900
21
95.025000
0
LINE
8
Layer 1
10
75.176900
20
95.025000
11
74.140800
21
95.025000
0
LINE
8
Layer 1
10
74.140800
20
95.025000
11
73.059600
21
95.025000
0
LINE
8
Layer 1
10
73.059600
20
95.025000
11
71.924700
21
95.025000
0
LINE
8
Layer 1
10
71.924700
20
95.025000
11
70.710200
21
95.025000
0
LINE
8
Layer 1
10
70.710200
20
95.025000
11
69.390500
21
95.025000
0
LINE
8
Layer 1
10
69.390500
20
95.025000
11
67.945900
21
95.025000
0
LINE
8
Layer 1
10
67.945900
20
95.025000
11
65.536000
21
95.025000
0
LINE
8
Layer 1
10
65.536000
20
95.025000
11
64.960000
21
95.025000
0
LINE
8
Layer 1
10
64.960000
20
95.025000
11
15.040000
21
95.025000
0
LINE
8
Layer 1
10
15.040000
20
95.025000
11
1.520000
21
95.025000
0
LINE
8
Layer 1
10
1.520000
20
95.025000
11
0.000000
21
95.131600
0
LINE
8
Layer 1
10
0.000000
20
95.131600
11
-0.363000
21
95.157000
0
LINE
8
Layer 1
10
-0.363000
20
95.157000
11
-2.209000
21
95.549000
0
LINE
8
Layer 1
10
-2.209000
20
95.549000
11
-3.982000
21
96.195000
0
LINE
8
Layer 1
10
-3.982000
20
96.195000
11
-5.649000
21
97.082000
0
LINE
8
Layer 1
10
-5.649000
20
97.082000
11
-7.176000
21
98.192000
0
LINE
8
Layer 1
10
-7.176000
20
98.192000
11
-8.533000
21
99.504000
0
LINE
8
Layer 1
10
-8.533000
20
99.504000
11
-9.695000
21
100.992000
0
LINE
8
Layer 1
10
-9.695000
20
100.992000
11
-10.639000
21
102.627000
0
LINE
8
Layer 1
10
-10.639000
20
102.627000
11
-11.346000
21
104.378000
0
LINE
8
Layer 1
10
-11.346000
20
104.378000
11
-11.750400
21
106.000000
0
LINE
8
Layer 1
10
-11.750400
20
106.000000
11
-11.803000
21
106.211000
0
LINE
8
Layer 1
10
-11.803000
20
106.211000
11
-12.000000
21
108.089000
0
LINE
8
Layer 1
10
-12.000000
20
108.089000
11
-11.984100
21
108.545000
0
LINE
8
Layer 1
10
-11.984100
20
108.545000
11
-12.000000
21
108.545000
0
LINE
8
Layer 1
10
-12.000000
20
108.545000
11
-12.000000
21
109.602000
0
LINE
8
Layer 1
10
-12.000000
20
109.602000
11
-12.000000
21
110.622000
0
LINE
8
Layer 1
10
-12.000000
20
110.622000
11
-12.000000
21
111.626000
0
LINE
8
Layer 1
10
-12.000000
20
111.626000
11
-12.000000
21
112.656000
0
LINE
8
Layer 1
10
-12.000000
20
112.656000
11
-12.000000
21
113.713000
0
LINE
8
Layer 1
10
-12.000000
20
113.713000
11
-12.000000
21
114.838000
0
LINE
8
Layer 1
10
-12.000000
20
114.838000
11
-12.000000
21
116.035000
0
LINE
8
Layer 1
10
-12.000000
20
116.035000
11
-12.000000
21
117.315000
0
LINE
8
Layer 1
10
-12.000000
20
117.315000
11
-12.000000
21
118.733000
0
LINE
8
Layer 1
10
-12.000000
20
118.733000
11
-12.000000
21
120.295000
0
LINE
8
Layer 1
10
-12.000000
20
120.295000
11
-12.000000
21
122.065000
0
LINE
8
Layer 1
10
-12.000000
20
122.065000
11
-12.000000
21
171.985000
0
LINE
8
Layer 1
10
-12.000000
20
171.985000
11
-12.000000
21
185.049000
0
LINE
8
Layer 1
10
-12.000000
20
185.049000
11
-12.000000
21
185.505000
0
LINE
8
Layer 1
10
-12.000000
20
185.505000
11
-11.984100
21
185.505000
0
LINE
8
Layer 1
10
-11.984100
20
185.505000
11
-11.934000
21
186.936000
0
LINE
8
Layer 1
10
-11.934000
20
186.936000
11
-11.760500
21
187.920000
0
LINE
8
Layer 1
10
-11.760500
20
187.920000
11
-11.606000
21
188.796000
0
LINE
8
Layer 1
10
-11.606000
20
188.796000
11
-11.023000
21
190.592000
0
LINE
8
Layer 1
10
-11.023000
20
190.592000
11
-10.196000
21
192.290000
0
LINE
8
Layer 1
10
-10.196000
20
192.290000
11
-9.140000
21
193.855000
0
LINE
8
Layer 1
10
-9.140000
20
193.855000
11
-7.878000
21
195.259000
0
LINE
8
Layer 1
10
-7.878000
20
195.259000
11
-6.432000
21
196.473000
0
LINE
8
Layer 1
10
-6.432000
20
196.473000
11
-4.831000
21
197.473000
0
LINE
8
Layer 1
10
-4.831000
20
197.473000
11
-3.107000
21
198.242000
0
LINE
8
Layer 1
10
-3.107000
20
198.242000
11
-1.293000
21
198.762000
0
LINE
8
Layer 1
10
-1.293000
20
198.762000
11
0.000000
21
198.944000
0
LINE
8
Layer 1
10
0.000000
20
198.944000
11
0.576000
21
199.025000
0
LINE
8
Layer 1
10
0.576000
20
199.025000
11
1.520000
21
199.025000
0
LINE
8
Layer 1
10
1.520000
20
199.025000
11
2.464000
21
199.025000
0
LINE
8
Layer 1
10
2.464000
20
199.025000
11
3.415530
21
199.025000
0
LINE
8
Layer 1
10
3.415530
20
199.025000
11
4.391610
21
199.025000
0
LINE
8
Layer 1
10
4.391610
20
199.025000
11
5.386250
21
199.025000
0
LINE
8
Layer 1
10
5.386250
20
199.025000
11
6.432300
21
199.025000
0
LINE
8
Layer 1
10
6.432300
20
199.025000
11
7.532890
21
199.025000
0
LINE
8
Layer 1
10
7.532890
20
199.025000
11
8.691490
21
199.025000
0
LINE
8
Layer 1
10
8.691490
20
199.025000
11
9.955760
21
199.025000
0
LINE
8
Layer 1
10
9.955760
20
199.025000
11
11.325600
21
199.025000
0
LINE
8
Layer 1
10
11.325600
20
199.025000
11
12.842200
21
199.025000
0
LINE
8
Layer 1
10
12.842200
20
199.025000
11
15.040000
21
199.025000
0
LINE
8
Layer 1
10
15.040000
20
199.025000
11
24.998000
21
199.025000
0
LINE
8
Layer 1
10
24.998000
20
199.025000
11
64.960000
21
199.025000
0
LINE
8
Layer 1
10
64.960000
20
199.025000
11
65.536000
21
199.025000
0
LINE
8
Layer 1
10
65.536000
20
199.025000
11
77.536000
21
199.025000
0
LINE
8
Layer 1
10
77.536000
20
199.025000
11
78.480000
21
199.025000
0
LINE
8
Layer 1
10
78.480000
20
199.025000
11
79.424000
21
199.025000
0
LINE
8
Layer 1
10
79.424000
20
199.025000
11
81.293000
21
198.762000
0
LINE
8
Layer 1
10
81.293000
20
198.762000
11
81.920000
21
198.582000
0
LINE
8
Layer 1
10
81.920000
20
198.582000
11
83.107000
21
198.242000
0
LINE
8
Layer 1
10
83.107000
20
198.242000
11
84.831000
21
197.473000
0
LINE
8
Layer 1
10
84.831000
20
197.473000
11
86.003000
21
196.741000
0
LINE
8
Layer 1
10
86.003000
20
196.741000
11
86.432000
21
196.473000
0
LINE
8
Layer 1
10
86.432000
20
196.473000
11
87.878000
21
195.259000
0
LINE
8
Layer 1
10
87.878000
20
195.259000
11
89.140000
21
193.855000
0
LINE
8
Layer 1
10
89.140000
20
193.855000
11
90.196000
21
192.290000
0
LINE
8
Layer 1
10
90.196000
20
192.290000
11
91.023000
21
190.592000
0
LINE
8
Layer 1
10
91.023000
20
190.592000
11
91.606000
21
188.796000
0
LINE
8
Layer 1
10
86.003000
20
119.873000
11
86.003000
21
120.385000
0
LINE
8
Layer 1
10
86.003000
20
120.385000
11
86.003000
21
121.544000
0
LINE
8
Layer 1
10
86.003000
20
121.544000
11
86.003000
21
122.065000
0
LINE
8
Layer 1
10
86.003000
20
122.065000
11
86.003000
21
171.985000
0
LINE
8
Layer 1
10
86.003000
20
171.985000
11
86.003000
21
173.315000
0
LINE
8
Layer 1
10
86.003000
20
173.315000
11
86.003000
21
173.891000
0
LINE
8
Layer 1
10
86.003000
20
173.891000
11
86.003000
21
174.230000
0
LINE
8
Layer 1
10
86.003000
20
174.230000
11
86.003000
21
174.299000
0
LINE
8
Layer 1
10
86.003000
20
174.299000
11
86.003000
21
187.920000
0
LINE
8
Layer 1
10
86.003000
20
187.920000
11
86.003000
21
190.027000
0
LINE
8
Layer 1
10
86.003000
20
190.027000
11
81.920000
21
190.027000
0
LINE
8
Layer 1
10
81.920000
20
190.027000
11
78.480000
21
190.027000
0
LINE
8
Layer 1
10
78.480000
20
190.027000
11
65.753600
21
190.027000
0
LINE
8
Layer 1
10
65.753600
20
190.027000
11
65.661800
21
190.027000
0
LINE
8
Layer 1
10
65.661800
20
190.027000
11
65.536000
21
190.027000
0
LINE
8
Layer 1
10
65.536000
20
190.027000
11
64.960000
21
190.027000
0
LINE
8
Layer 1
10
64.960000
20
190.027000
11
24.998000
21
190.027000
0
LINE
8
Layer 1
10
24.998000
20
190.027000
11
24.998000
21
185.505000
0
LINE
8
Layer 1
10
24.998000
20
185.505000
11
24.998000
21
110.022000
0
LINE
8
Layer 1
10
24.998000
20
110.022000
11
78.480000
21
110.022000
0
LINE
8
Layer 1
10
78.480000
20
110.022000
11
81.920000
21
110.022000
0
LINE
8
Layer 1
10
81.920000
20
110.022000
11
86.003000
21
110.022000
0
LINE
8
Layer 1
10
86.003000
20
110.022000
11
86.003000
21
119.781000
0
LINE
8
Layer 1
10
86.003000
20
119.781000
11
86.003000
21
119.873000
0
LINE
8
Layer 1
10
0.270422
20
122.022000
11
1.520000
21
122.022000
0
LINE
8
Layer 1
10
1.520000
20
122.022000
11
20.003000
21
122.022000
0
LINE
8
Layer 1
10
20.003000
20
122.022000
11
20.003000
21
139.027000
0
LINE
8
Layer 1
10
20.003000
20
139.027000
11
1.520000
21
139.027000
0
LINE
8
Layer 1
10
1.520000
20
139.027000
11
-6.003000
21
139.027000
0
LINE
8
Layer 1
10
-6.003000
20
139.027000
11
-6.003000
21
122.065000
0
LINE
8
Layer 1
10
-6.003000
20
122.065000
11
-6.003000
21
122.022000
0
LINE
8
Layer 1
10
-6.003000
20
122.022000
11
0.000000
21
122.022000
0
LINE
8
Layer 1
10
0.000000
20
122.022000
11
0.270422
21
122.022000
0
LINE
8
Layer 1
10
0.270422
20
122.022000
11
0.270422
21
122.022000
 0 
ENDSEC
 0 
EOF