%TF.GenerationSoftware,KiCad,Pcbnew,8.0.6*%
%TF.CreationDate,2024-10-22T23:25:21+01:00*%
%TF.ProjectId,hello22,68656c6c-6f32-4322-9e6b-696361645f70,rev?*%
%TF.SameCoordinates,Original*%
%TF.FileFunction,Drillmap*%
%TF.FilePolarity,Positive*%
%FSLAX45Y45*%
G04 Gerber Fmt 4.5, Leading zero omitted, Abs format (unit mm)*
G04 Created by KiCad (PCBNEW 8.0.6) date 2024-10-22 23:25:21*
%MOMM*%
%LPD*%
G01*
G04 APERTURE LIST*
%ADD10C,0.050000*%
%ADD11C,0.200000*%
%ADD12C,0.100000*%
%ADD13C,0.150000*%
%ADD14C,0.152400*%
G04 APERTURE END LIST*
D10*
X5794810Y-9630210D02*
X15396010Y-9630210D01*
X15904010Y-10138210D02*
X15900400Y-13462000D01*
X5283200Y-13462000D02*
X5286810Y-10138210D01*
X15900400Y-13462000D02*
G75*
G02*
X15392400Y-13970000I-508000J0D01*
G01*
X5791200Y-13970000D02*
G75*
G02*
X5283200Y-13462000I0J508000D01*
G01*
X15392400Y-13970000D02*
X5791200Y-13970000D01*
X5286810Y-10138210D02*
G75*
G02*
X5794810Y-9630210I508000J0D01*
G01*
X15396010Y-9630210D02*
G75*
G02*
X15904010Y-10138210I0J-508000D01*
G01*
D11*
D12*
X8062200Y-10449800D02*
X8092200Y-10479800D01*
X8092200Y-10449800D02*
X8062200Y-10479800D01*
X8062200Y-10729200D02*
X8092200Y-10759200D01*
X8092200Y-10729200D02*
X8062200Y-10759200D01*
X9205200Y-11465800D02*
X9235200Y-11495800D01*
X9235200Y-11465800D02*
X9205200Y-11495800D01*
X6796400Y-11442700D02*
G75*
G02*
X6716400Y-11442700I-40000J0D01*
G01*
X6716400Y-11442700D02*
G75*
G02*
X6796400Y-11442700I40000J0D01*
G01*
X7558400Y-11442700D02*
G75*
G02*
X7478400Y-11442700I-40000J0D01*
G01*
X7478400Y-11442700D02*
G75*
G02*
X7558400Y-11442700I40000J0D01*
G01*
X7611740Y-12598400D02*
G75*
G02*
X7531740Y-12598400I-40000J0D01*
G01*
X7531740Y-12598400D02*
G75*
G02*
X7611740Y-12598400I40000J0D01*
G01*
X7611740Y-13360400D02*
G75*
G02*
X7531740Y-13360400I-40000J0D01*
G01*
X7531740Y-13360400D02*
G75*
G02*
X7611740Y-13360400I40000J0D01*
G01*
X9544680Y-12603480D02*
G75*
G02*
X9464680Y-12603480I-40000J0D01*
G01*
X9464680Y-12603480D02*
G75*
G02*
X9544680Y-12603480I40000J0D01*
G01*
X9544680Y-13365480D02*
G75*
G02*
X9464680Y-13365480I-40000J0D01*
G01*
X9464680Y-13365480D02*
G75*
G02*
X9544680Y-13365480I40000J0D01*
G01*
X10024740Y-11427460D02*
G75*
G02*
X9944740Y-11427460I-40000J0D01*
G01*
X9944740Y-11427460D02*
G75*
G02*
X10024740Y-11427460I40000J0D01*
G01*
X10786740Y-11427460D02*
G75*
G02*
X10706740Y-11427460I-40000J0D01*
G01*
X10706740Y-11427460D02*
G75*
G02*
X10786740Y-11427460I40000J0D01*
G01*
X11462380Y-12603480D02*
G75*
G02*
X11382380Y-12603480I-40000J0D01*
G01*
X11382380Y-12603480D02*
G75*
G02*
X11462380Y-12603480I40000J0D01*
G01*
X11462380Y-13365480D02*
G75*
G02*
X11382380Y-13365480I-40000J0D01*
G01*
X11382380Y-13365480D02*
G75*
G02*
X11462380Y-13365480I40000J0D01*
G01*
X11467460Y-10680700D02*
G75*
G02*
X11387460Y-10680700I-40000J0D01*
G01*
X11387460Y-10680700D02*
G75*
G02*
X11467460Y-10680700I40000J0D01*
G01*
X11467460Y-11442700D02*
G75*
G02*
X11387460Y-11442700I-40000J0D01*
G01*
X11387460Y-11442700D02*
G75*
G02*
X11467460Y-11442700I40000J0D01*
G01*
X13375000Y-12598400D02*
G75*
G02*
X13295000Y-12598400I-40000J0D01*
G01*
X13295000Y-12598400D02*
G75*
G02*
X13375000Y-12598400I40000J0D01*
G01*
X13375000Y-13360400D02*
G75*
G02*
X13295000Y-13360400I-40000J0D01*
G01*
X13295000Y-13360400D02*
G75*
G02*
X13375000Y-13360400I40000J0D01*
G01*
X5987500Y-10305000D02*
X5987500Y-10405000D01*
X5937500Y-10355000D02*
X6037500Y-10355000D01*
X5987500Y-10555000D02*
X5987500Y-10655000D01*
X5937500Y-10605000D02*
X6037500Y-10605000D01*
X5987500Y-10805000D02*
X5987500Y-10905000D01*
X5937500Y-10855000D02*
X6037500Y-10855000D01*
X7437500Y-10305000D02*
X7437500Y-10405000D01*
X7387500Y-10355000D02*
X7487500Y-10355000D01*
X7437500Y-10805000D02*
X7437500Y-10905000D01*
X7387500Y-10855000D02*
X7487500Y-10855000D01*
X7898400Y-9876320D02*
X7898400Y-9976320D01*
X7848400Y-9926320D02*
X7948400Y-9926320D01*
X7898400Y-10130320D02*
X7898400Y-10230320D01*
X7848400Y-10180320D02*
X7948400Y-10180320D01*
X7898400Y-10384320D02*
X7898400Y-10484320D01*
X7848400Y-10434320D02*
X7948400Y-10434320D01*
X7898400Y-10638320D02*
X7898400Y-10738320D01*
X7848400Y-10688320D02*
X7948400Y-10688320D01*
X7898400Y-10892320D02*
X7898400Y-10992320D01*
X7848400Y-10942320D02*
X7948400Y-10942320D01*
X7898400Y-11146320D02*
X7898400Y-11246320D01*
X7848400Y-11196320D02*
X7948400Y-11196320D01*
X7898400Y-11400320D02*
X7898400Y-11500320D01*
X7848400Y-11450320D02*
X7948400Y-11450320D01*
X9423400Y-9876320D02*
X9423400Y-9976320D01*
X9373400Y-9926320D02*
X9473400Y-9926320D01*
X9423400Y-10130320D02*
X9423400Y-10230320D01*
X9373400Y-10180320D02*
X9473400Y-10180320D01*
X9423400Y-10384320D02*
X9423400Y-10484320D01*
X9373400Y-10434320D02*
X9473400Y-10434320D01*
X9423400Y-10638320D02*
X9423400Y-10738320D01*
X9373400Y-10688320D02*
X9473400Y-10688320D01*
X9423400Y-10892320D02*
X9423400Y-10992320D01*
X9373400Y-10942320D02*
X9473400Y-10942320D01*
X9423400Y-11146320D02*
X9423400Y-11246320D01*
X9373400Y-11196320D02*
X9473400Y-11196320D01*
X9423400Y-11400320D02*
X9423400Y-11500320D01*
X9373400Y-11450320D02*
X9473400Y-11450320D01*
X15236500Y-10168000D02*
X15236500Y-10268000D01*
X15186500Y-10218000D02*
X15286500Y-10218000D01*
X15236500Y-10422000D02*
X15236500Y-10522000D01*
X15186500Y-10472000D02*
X15286500Y-10472000D01*
X15236500Y-10676000D02*
X15236500Y-10776000D01*
X15186500Y-10726000D02*
X15286500Y-10726000D01*
X15236500Y-10930000D02*
X15236500Y-11030000D01*
X15186500Y-10980000D02*
X15286500Y-10980000D01*
D13*
X6790533Y-10098034D02*
X6790533Y-9991967D01*
X6684466Y-9991967D01*
X6684466Y-10098034D01*
X6790533Y-10098034D01*
D12*
X6672500Y-10120000D02*
X6802500Y-10120000D01*
X6802500Y-9970000D02*
G75*
G02*
X6802500Y-10120000I0J-75000D01*
G01*
X6802500Y-9970000D02*
X6672500Y-9970000D01*
X6672500Y-9970000D02*
G75*
G03*
X6672500Y-10120000I0J-75000D01*
G01*
D13*
X6790533Y-11218033D02*
X6790533Y-11111967D01*
X6684466Y-11111967D01*
X6684466Y-11218033D01*
X6790533Y-11218033D01*
D12*
X6672500Y-11240000D02*
X6802500Y-11240000D01*
X6802500Y-11090000D02*
G75*
G02*
X6802500Y-11240000I0J-75000D01*
G01*
X6802500Y-11090000D02*
X6672500Y-11090000D01*
X6672500Y-11090000D02*
G75*
G03*
X6672500Y-11240000I0J-75000D01*
G01*
D14*
X6356500Y-12334700D02*
X6432700Y-12258500D01*
X6356500Y-12182300D01*
X6280300Y-12258500D01*
X6356500Y-12334700D01*
X6991500Y-12080700D02*
X7067700Y-12004500D01*
X6991500Y-11928300D01*
X6915300Y-12004500D01*
X6991500Y-12080700D01*
X8281500Y-10409700D02*
X8357700Y-10333500D01*
X8281500Y-10257300D01*
X8205300Y-10333500D01*
X8281500Y-10409700D01*
X8281500Y-12334700D02*
X8357700Y-12258500D01*
X8281500Y-12182300D01*
X8205300Y-12258500D01*
X8281500Y-12334700D01*
X8916500Y-10155700D02*
X8992700Y-10079500D01*
X8916500Y-10003300D01*
X8840300Y-10079500D01*
X8916500Y-10155700D01*
X8916500Y-12080700D02*
X8992700Y-12004500D01*
X8916500Y-11928300D01*
X8840300Y-12004500D01*
X8916500Y-12080700D01*
X10206500Y-10409700D02*
X10282700Y-10333500D01*
X10206500Y-10257300D01*
X10130300Y-10333500D01*
X10206500Y-10409700D01*
X10206500Y-12334700D02*
X10282700Y-12258500D01*
X10206500Y-12182300D01*
X10130300Y-12258500D01*
X10206500Y-12334700D01*
X10841500Y-10155700D02*
X10917700Y-10079500D01*
X10841500Y-10003300D01*
X10765300Y-10079500D01*
X10841500Y-10155700D01*
X10841500Y-12080700D02*
X10917700Y-12004500D01*
X10841500Y-11928300D01*
X10765300Y-12004500D01*
X10841500Y-12080700D01*
X12131500Y-12334700D02*
X12207700Y-12258500D01*
X12131500Y-12182300D01*
X12055300Y-12258500D01*
X12131500Y-12334700D01*
X12766500Y-12080700D02*
X12842700Y-12004500D01*
X12766500Y-11928300D01*
X12690300Y-12004500D01*
X12766500Y-12080700D01*
D11*
X5541477Y-14283984D02*
X5541477Y-14083984D01*
X5541477Y-14083984D02*
X5589096Y-14083984D01*
X5589096Y-14083984D02*
X5617667Y-14093508D01*
X5617667Y-14093508D02*
X5636715Y-14112555D01*
X5636715Y-14112555D02*
X5646239Y-14131603D01*
X5646239Y-14131603D02*
X5655762Y-14169698D01*
X5655762Y-14169698D02*
X5655762Y-14198269D01*
X5655762Y-14198269D02*
X5646239Y-14236365D01*
X5646239Y-14236365D02*
X5636715Y-14255412D01*
X5636715Y-14255412D02*
X5617667Y-14274460D01*
X5617667Y-14274460D02*
X5589096Y-14283984D01*
X5589096Y-14283984D02*
X5541477Y-14283984D01*
X5741477Y-14283984D02*
X5741477Y-14150650D01*
X5741477Y-14188746D02*
X5751001Y-14169698D01*
X5751001Y-14169698D02*
X5760524Y-14160174D01*
X5760524Y-14160174D02*
X5779572Y-14150650D01*
X5779572Y-14150650D02*
X5798620Y-14150650D01*
X5865286Y-14283984D02*
X5865286Y-14150650D01*
X5865286Y-14083984D02*
X5855762Y-14093508D01*
X5855762Y-14093508D02*
X5865286Y-14103031D01*
X5865286Y-14103031D02*
X5874810Y-14093508D01*
X5874810Y-14093508D02*
X5865286Y-14083984D01*
X5865286Y-14083984D02*
X5865286Y-14103031D01*
X5989096Y-14283984D02*
X5970048Y-14274460D01*
X5970048Y-14274460D02*
X5960524Y-14255412D01*
X5960524Y-14255412D02*
X5960524Y-14083984D01*
X6093858Y-14283984D02*
X6074810Y-14274460D01*
X6074810Y-14274460D02*
X6065286Y-14255412D01*
X6065286Y-14255412D02*
X6065286Y-14083984D01*
X6322429Y-14283984D02*
X6322429Y-14083984D01*
X6322429Y-14083984D02*
X6389096Y-14226841D01*
X6389096Y-14226841D02*
X6455762Y-14083984D01*
X6455762Y-14083984D02*
X6455762Y-14283984D01*
X6636715Y-14283984D02*
X6636715Y-14179222D01*
X6636715Y-14179222D02*
X6627191Y-14160174D01*
X6627191Y-14160174D02*
X6608143Y-14150650D01*
X6608143Y-14150650D02*
X6570048Y-14150650D01*
X6570048Y-14150650D02*
X6551001Y-14160174D01*
X6636715Y-14274460D02*
X6617667Y-14283984D01*
X6617667Y-14283984D02*
X6570048Y-14283984D01*
X6570048Y-14283984D02*
X6551001Y-14274460D01*
X6551001Y-14274460D02*
X6541477Y-14255412D01*
X6541477Y-14255412D02*
X6541477Y-14236365D01*
X6541477Y-14236365D02*
X6551001Y-14217317D01*
X6551001Y-14217317D02*
X6570048Y-14207793D01*
X6570048Y-14207793D02*
X6617667Y-14207793D01*
X6617667Y-14207793D02*
X6636715Y-14198269D01*
X6731953Y-14150650D02*
X6731953Y-14350650D01*
X6731953Y-14160174D02*
X6751001Y-14150650D01*
X6751001Y-14150650D02*
X6789096Y-14150650D01*
X6789096Y-14150650D02*
X6808143Y-14160174D01*
X6808143Y-14160174D02*
X6817667Y-14169698D01*
X6817667Y-14169698D02*
X6827191Y-14188746D01*
X6827191Y-14188746D02*
X6827191Y-14245888D01*
X6827191Y-14245888D02*
X6817667Y-14264936D01*
X6817667Y-14264936D02*
X6808143Y-14274460D01*
X6808143Y-14274460D02*
X6789096Y-14283984D01*
X6789096Y-14283984D02*
X6751001Y-14283984D01*
X6751001Y-14283984D02*
X6731953Y-14274460D01*
X6912905Y-14264936D02*
X6922429Y-14274460D01*
X6922429Y-14274460D02*
X6912905Y-14283984D01*
X6912905Y-14283984D02*
X6903382Y-14274460D01*
X6903382Y-14274460D02*
X6912905Y-14264936D01*
X6912905Y-14264936D02*
X6912905Y-14283984D01*
X6912905Y-14160174D02*
X6922429Y-14169698D01*
X6922429Y-14169698D02*
X6912905Y-14179222D01*
X6912905Y-14179222D02*
X6903382Y-14169698D01*
X6903382Y-14169698D02*
X6912905Y-14160174D01*
X6912905Y-14160174D02*
X6912905Y-14179222D01*
D12*
X5250700Y-14597500D02*
X5280700Y-14627500D01*
X5280700Y-14597500D02*
X5250700Y-14627500D01*
D11*
X5579572Y-14503984D02*
X5598620Y-14503984D01*
X5598620Y-14503984D02*
X5617667Y-14513508D01*
X5617667Y-14513508D02*
X5627191Y-14523031D01*
X5627191Y-14523031D02*
X5636715Y-14542079D01*
X5636715Y-14542079D02*
X5646239Y-14580174D01*
X5646239Y-14580174D02*
X5646239Y-14627793D01*
X5646239Y-14627793D02*
X5636715Y-14665888D01*
X5636715Y-14665888D02*
X5627191Y-14684936D01*
X5627191Y-14684936D02*
X5617667Y-14694460D01*
X5617667Y-14694460D02*
X5598620Y-14703984D01*
X5598620Y-14703984D02*
X5579572Y-14703984D01*
X5579572Y-14703984D02*
X5560524Y-14694460D01*
X5560524Y-14694460D02*
X5551001Y-14684936D01*
X5551001Y-14684936D02*
X5541477Y-14665888D01*
X5541477Y-14665888D02*
X5531953Y-14627793D01*
X5531953Y-14627793D02*
X5531953Y-14580174D01*
X5531953Y-14580174D02*
X5541477Y-14542079D01*
X5541477Y-14542079D02*
X5551001Y-14523031D01*
X5551001Y-14523031D02*
X5560524Y-14513508D01*
X5560524Y-14513508D02*
X5579572Y-14503984D01*
X5731953Y-14684936D02*
X5741477Y-14694460D01*
X5741477Y-14694460D02*
X5731953Y-14703984D01*
X5731953Y-14703984D02*
X5722429Y-14694460D01*
X5722429Y-14694460D02*
X5731953Y-14684936D01*
X5731953Y-14684936D02*
X5731953Y-14703984D01*
X5808143Y-14503984D02*
X5931953Y-14503984D01*
X5931953Y-14503984D02*
X5865286Y-14580174D01*
X5865286Y-14580174D02*
X5893858Y-14580174D01*
X5893858Y-14580174D02*
X5912905Y-14589698D01*
X5912905Y-14589698D02*
X5922429Y-14599222D01*
X5922429Y-14599222D02*
X5931953Y-14618269D01*
X5931953Y-14618269D02*
X5931953Y-14665888D01*
X5931953Y-14665888D02*
X5922429Y-14684936D01*
X5922429Y-14684936D02*
X5912905Y-14694460D01*
X5912905Y-14694460D02*
X5893858Y-14703984D01*
X5893858Y-14703984D02*
X5836715Y-14703984D01*
X5836715Y-14703984D02*
X5817667Y-14694460D01*
X5817667Y-14694460D02*
X5808143Y-14684936D01*
X6055762Y-14503984D02*
X6074810Y-14503984D01*
X6074810Y-14503984D02*
X6093858Y-14513508D01*
X6093858Y-14513508D02*
X6103382Y-14523031D01*
X6103382Y-14523031D02*
X6112905Y-14542079D01*
X6112905Y-14542079D02*
X6122429Y-14580174D01*
X6122429Y-14580174D02*
X6122429Y-14627793D01*
X6122429Y-14627793D02*
X6112905Y-14665888D01*
X6112905Y-14665888D02*
X6103382Y-14684936D01*
X6103382Y-14684936D02*
X6093858Y-14694460D01*
X6093858Y-14694460D02*
X6074810Y-14703984D01*
X6074810Y-14703984D02*
X6055762Y-14703984D01*
X6055762Y-14703984D02*
X6036715Y-14694460D01*
X6036715Y-14694460D02*
X6027191Y-14684936D01*
X6027191Y-14684936D02*
X6017667Y-14665888D01*
X6017667Y-14665888D02*
X6008143Y-14627793D01*
X6008143Y-14627793D02*
X6008143Y-14580174D01*
X6008143Y-14580174D02*
X6017667Y-14542079D01*
X6017667Y-14542079D02*
X6027191Y-14523031D01*
X6027191Y-14523031D02*
X6036715Y-14513508D01*
X6036715Y-14513508D02*
X6055762Y-14503984D01*
X6246239Y-14503984D02*
X6265286Y-14503984D01*
X6265286Y-14503984D02*
X6284334Y-14513508D01*
X6284334Y-14513508D02*
X6293858Y-14523031D01*
X6293858Y-14523031D02*
X6303382Y-14542079D01*
X6303382Y-14542079D02*
X6312905Y-14580174D01*
X6312905Y-14580174D02*
X6312905Y-14627793D01*
X6312905Y-14627793D02*
X6303382Y-14665888D01*
X6303382Y-14665888D02*
X6293858Y-14684936D01*
X6293858Y-14684936D02*
X6284334Y-14694460D01*
X6284334Y-14694460D02*
X6265286Y-14703984D01*
X6265286Y-14703984D02*
X6246239Y-14703984D01*
X6246239Y-14703984D02*
X6227191Y-14694460D01*
X6227191Y-14694460D02*
X6217667Y-14684936D01*
X6217667Y-14684936D02*
X6208143Y-14665888D01*
X6208143Y-14665888D02*
X6198620Y-14627793D01*
X6198620Y-14627793D02*
X6198620Y-14580174D01*
X6198620Y-14580174D02*
X6208143Y-14542079D01*
X6208143Y-14542079D02*
X6217667Y-14523031D01*
X6217667Y-14523031D02*
X6227191Y-14513508D01*
X6227191Y-14513508D02*
X6246239Y-14503984D01*
X6398620Y-14703984D02*
X6398620Y-14570650D01*
X6398620Y-14589698D02*
X6408143Y-14580174D01*
X6408143Y-14580174D02*
X6427191Y-14570650D01*
X6427191Y-14570650D02*
X6455763Y-14570650D01*
X6455763Y-14570650D02*
X6474810Y-14580174D01*
X6474810Y-14580174D02*
X6484334Y-14599222D01*
X6484334Y-14599222D02*
X6484334Y-14703984D01*
X6484334Y-14599222D02*
X6493858Y-14580174D01*
X6493858Y-14580174D02*
X6512905Y-14570650D01*
X6512905Y-14570650D02*
X6541477Y-14570650D01*
X6541477Y-14570650D02*
X6560524Y-14580174D01*
X6560524Y-14580174D02*
X6570048Y-14599222D01*
X6570048Y-14599222D02*
X6570048Y-14703984D01*
X6665286Y-14703984D02*
X6665286Y-14570650D01*
X6665286Y-14589698D02*
X6674810Y-14580174D01*
X6674810Y-14580174D02*
X6693858Y-14570650D01*
X6693858Y-14570650D02*
X6722429Y-14570650D01*
X6722429Y-14570650D02*
X6741477Y-14580174D01*
X6741477Y-14580174D02*
X6751001Y-14599222D01*
X6751001Y-14599222D02*
X6751001Y-14703984D01*
X6751001Y-14599222D02*
X6760524Y-14580174D01*
X6760524Y-14580174D02*
X6779572Y-14570650D01*
X6779572Y-14570650D02*
X6808143Y-14570650D01*
X6808143Y-14570650D02*
X6827191Y-14580174D01*
X6827191Y-14580174D02*
X6836715Y-14599222D01*
X6836715Y-14599222D02*
X6836715Y-14703984D01*
X7227191Y-14494460D02*
X7055763Y-14751603D01*
X7484334Y-14503984D02*
X7503382Y-14503984D01*
X7503382Y-14503984D02*
X7522429Y-14513508D01*
X7522429Y-14513508D02*
X7531953Y-14523031D01*
X7531953Y-14523031D02*
X7541477Y-14542079D01*
X7541477Y-14542079D02*
X7551001Y-14580174D01*
X7551001Y-14580174D02*
X7551001Y-14627793D01*
X7551001Y-14627793D02*
X7541477Y-14665888D01*
X7541477Y-14665888D02*
X7531953Y-14684936D01*
X7531953Y-14684936D02*
X7522429Y-14694460D01*
X7522429Y-14694460D02*
X7503382Y-14703984D01*
X7503382Y-14703984D02*
X7484334Y-14703984D01*
X7484334Y-14703984D02*
X7465286Y-14694460D01*
X7465286Y-14694460D02*
X7455763Y-14684936D01*
X7455763Y-14684936D02*
X7446239Y-14665888D01*
X7446239Y-14665888D02*
X7436715Y-14627793D01*
X7436715Y-14627793D02*
X7436715Y-14580174D01*
X7436715Y-14580174D02*
X7446239Y-14542079D01*
X7446239Y-14542079D02*
X7455763Y-14523031D01*
X7455763Y-14523031D02*
X7465286Y-14513508D01*
X7465286Y-14513508D02*
X7484334Y-14503984D01*
X7636715Y-14684936D02*
X7646239Y-14694460D01*
X7646239Y-14694460D02*
X7636715Y-14703984D01*
X7636715Y-14703984D02*
X7627191Y-14694460D01*
X7627191Y-14694460D02*
X7636715Y-14684936D01*
X7636715Y-14684936D02*
X7636715Y-14703984D01*
X7770048Y-14503984D02*
X7789096Y-14503984D01*
X7789096Y-14503984D02*
X7808144Y-14513508D01*
X7808144Y-14513508D02*
X7817667Y-14523031D01*
X7817667Y-14523031D02*
X7827191Y-14542079D01*
X7827191Y-14542079D02*
X7836715Y-14580174D01*
X7836715Y-14580174D02*
X7836715Y-14627793D01*
X7836715Y-14627793D02*
X7827191Y-14665888D01*
X7827191Y-14665888D02*
X7817667Y-14684936D01*
X7817667Y-14684936D02*
X7808144Y-14694460D01*
X7808144Y-14694460D02*
X7789096Y-14703984D01*
X7789096Y-14703984D02*
X7770048Y-14703984D01*
X7770048Y-14703984D02*
X7751001Y-14694460D01*
X7751001Y-14694460D02*
X7741477Y-14684936D01*
X7741477Y-14684936D02*
X7731953Y-14665888D01*
X7731953Y-14665888D02*
X7722429Y-14627793D01*
X7722429Y-14627793D02*
X7722429Y-14580174D01*
X7722429Y-14580174D02*
X7731953Y-14542079D01*
X7731953Y-14542079D02*
X7741477Y-14523031D01*
X7741477Y-14523031D02*
X7751001Y-14513508D01*
X7751001Y-14513508D02*
X7770048Y-14503984D01*
X8027191Y-14703984D02*
X7912906Y-14703984D01*
X7970048Y-14703984D02*
X7970048Y-14503984D01*
X7970048Y-14503984D02*
X7951001Y-14532555D01*
X7951001Y-14532555D02*
X7931953Y-14551603D01*
X7931953Y-14551603D02*
X7912906Y-14561127D01*
X8217667Y-14703984D02*
X8103382Y-14703984D01*
X8160525Y-14703984D02*
X8160525Y-14503984D01*
X8160525Y-14503984D02*
X8141477Y-14532555D01*
X8141477Y-14532555D02*
X8122429Y-14551603D01*
X8122429Y-14551603D02*
X8103382Y-14561127D01*
X8331953Y-14589698D02*
X8312906Y-14580174D01*
X8312906Y-14580174D02*
X8303382Y-14570650D01*
X8303382Y-14570650D02*
X8293858Y-14551603D01*
X8293858Y-14551603D02*
X8293858Y-14542079D01*
X8293858Y-14542079D02*
X8303382Y-14523031D01*
X8303382Y-14523031D02*
X8312906Y-14513508D01*
X8312906Y-14513508D02*
X8331953Y-14503984D01*
X8331953Y-14503984D02*
X8370048Y-14503984D01*
X8370048Y-14503984D02*
X8389096Y-14513508D01*
X8389096Y-14513508D02*
X8398620Y-14523031D01*
X8398620Y-14523031D02*
X8408144Y-14542079D01*
X8408144Y-14542079D02*
X8408144Y-14551603D01*
X8408144Y-14551603D02*
X8398620Y-14570650D01*
X8398620Y-14570650D02*
X8389096Y-14580174D01*
X8389096Y-14580174D02*
X8370048Y-14589698D01*
X8370048Y-14589698D02*
X8331953Y-14589698D01*
X8331953Y-14589698D02*
X8312906Y-14599222D01*
X8312906Y-14599222D02*
X8303382Y-14608746D01*
X8303382Y-14608746D02*
X8293858Y-14627793D01*
X8293858Y-14627793D02*
X8293858Y-14665888D01*
X8293858Y-14665888D02*
X8303382Y-14684936D01*
X8303382Y-14684936D02*
X8312906Y-14694460D01*
X8312906Y-14694460D02*
X8331953Y-14703984D01*
X8331953Y-14703984D02*
X8370048Y-14703984D01*
X8370048Y-14703984D02*
X8389096Y-14694460D01*
X8389096Y-14694460D02*
X8398620Y-14684936D01*
X8398620Y-14684936D02*
X8408144Y-14665888D01*
X8408144Y-14665888D02*
X8408144Y-14627793D01*
X8408144Y-14627793D02*
X8398620Y-14608746D01*
X8398620Y-14608746D02*
X8389096Y-14599222D01*
X8389096Y-14599222D02*
X8370048Y-14589698D01*
X8484334Y-14503984D02*
X8484334Y-14542079D01*
X8560525Y-14503984D02*
X8560525Y-14542079D01*
X8855763Y-14780174D02*
X8846239Y-14770650D01*
X8846239Y-14770650D02*
X8827191Y-14742079D01*
X8827191Y-14742079D02*
X8817668Y-14723031D01*
X8817668Y-14723031D02*
X8808144Y-14694460D01*
X8808144Y-14694460D02*
X8798620Y-14646841D01*
X8798620Y-14646841D02*
X8798620Y-14608746D01*
X8798620Y-14608746D02*
X8808144Y-14561127D01*
X8808144Y-14561127D02*
X8817668Y-14532555D01*
X8817668Y-14532555D02*
X8827191Y-14513508D01*
X8827191Y-14513508D02*
X8846239Y-14484936D01*
X8846239Y-14484936D02*
X8855763Y-14475412D01*
X8912906Y-14503984D02*
X9036715Y-14503984D01*
X9036715Y-14503984D02*
X8970049Y-14580174D01*
X8970049Y-14580174D02*
X8998620Y-14580174D01*
X8998620Y-14580174D02*
X9017668Y-14589698D01*
X9017668Y-14589698D02*
X9027191Y-14599222D01*
X9027191Y-14599222D02*
X9036715Y-14618269D01*
X9036715Y-14618269D02*
X9036715Y-14665888D01*
X9036715Y-14665888D02*
X9027191Y-14684936D01*
X9027191Y-14684936D02*
X9017668Y-14694460D01*
X9017668Y-14694460D02*
X8998620Y-14703984D01*
X8998620Y-14703984D02*
X8941477Y-14703984D01*
X8941477Y-14703984D02*
X8922430Y-14694460D01*
X8922430Y-14694460D02*
X8912906Y-14684936D01*
X9274811Y-14703984D02*
X9274811Y-14503984D01*
X9360525Y-14703984D02*
X9360525Y-14599222D01*
X9360525Y-14599222D02*
X9351001Y-14580174D01*
X9351001Y-14580174D02*
X9331953Y-14570650D01*
X9331953Y-14570650D02*
X9303382Y-14570650D01*
X9303382Y-14570650D02*
X9284334Y-14580174D01*
X9284334Y-14580174D02*
X9274811Y-14589698D01*
X9484334Y-14703984D02*
X9465287Y-14694460D01*
X9465287Y-14694460D02*
X9455763Y-14684936D01*
X9455763Y-14684936D02*
X9446239Y-14665888D01*
X9446239Y-14665888D02*
X9446239Y-14608746D01*
X9446239Y-14608746D02*
X9455763Y-14589698D01*
X9455763Y-14589698D02*
X9465287Y-14580174D01*
X9465287Y-14580174D02*
X9484334Y-14570650D01*
X9484334Y-14570650D02*
X9512906Y-14570650D01*
X9512906Y-14570650D02*
X9531953Y-14580174D01*
X9531953Y-14580174D02*
X9541477Y-14589698D01*
X9541477Y-14589698D02*
X9551001Y-14608746D01*
X9551001Y-14608746D02*
X9551001Y-14665888D01*
X9551001Y-14665888D02*
X9541477Y-14684936D01*
X9541477Y-14684936D02*
X9531953Y-14694460D01*
X9531953Y-14694460D02*
X9512906Y-14703984D01*
X9512906Y-14703984D02*
X9484334Y-14703984D01*
X9665287Y-14703984D02*
X9646239Y-14694460D01*
X9646239Y-14694460D02*
X9636715Y-14675412D01*
X9636715Y-14675412D02*
X9636715Y-14503984D01*
X9817668Y-14694460D02*
X9798620Y-14703984D01*
X9798620Y-14703984D02*
X9760525Y-14703984D01*
X9760525Y-14703984D02*
X9741477Y-14694460D01*
X9741477Y-14694460D02*
X9731953Y-14675412D01*
X9731953Y-14675412D02*
X9731953Y-14599222D01*
X9731953Y-14599222D02*
X9741477Y-14580174D01*
X9741477Y-14580174D02*
X9760525Y-14570650D01*
X9760525Y-14570650D02*
X9798620Y-14570650D01*
X9798620Y-14570650D02*
X9817668Y-14580174D01*
X9817668Y-14580174D02*
X9827192Y-14599222D01*
X9827192Y-14599222D02*
X9827192Y-14618269D01*
X9827192Y-14618269D02*
X9731953Y-14637317D01*
X9903382Y-14694460D02*
X9922430Y-14703984D01*
X9922430Y-14703984D02*
X9960525Y-14703984D01*
X9960525Y-14703984D02*
X9979573Y-14694460D01*
X9979573Y-14694460D02*
X9989096Y-14675412D01*
X9989096Y-14675412D02*
X9989096Y-14665888D01*
X9989096Y-14665888D02*
X9979573Y-14646841D01*
X9979573Y-14646841D02*
X9960525Y-14637317D01*
X9960525Y-14637317D02*
X9931953Y-14637317D01*
X9931953Y-14637317D02*
X9912906Y-14627793D01*
X9912906Y-14627793D02*
X9903382Y-14608746D01*
X9903382Y-14608746D02*
X9903382Y-14599222D01*
X9903382Y-14599222D02*
X9912906Y-14580174D01*
X9912906Y-14580174D02*
X9931953Y-14570650D01*
X9931953Y-14570650D02*
X9960525Y-14570650D01*
X9960525Y-14570650D02*
X9979573Y-14580174D01*
X10055763Y-14780174D02*
X10065287Y-14770650D01*
X10065287Y-14770650D02*
X10084334Y-14742079D01*
X10084334Y-14742079D02*
X10093858Y-14723031D01*
X10093858Y-14723031D02*
X10103382Y-14694460D01*
X10103382Y-14694460D02*
X10112906Y-14646841D01*
X10112906Y-14646841D02*
X10112906Y-14608746D01*
X10112906Y-14608746D02*
X10103382Y-14561127D01*
X10103382Y-14561127D02*
X10093858Y-14532555D01*
X10093858Y-14532555D02*
X10084334Y-14513508D01*
X10084334Y-14513508D02*
X10065287Y-14484936D01*
X10065287Y-14484936D02*
X10055763Y-14475412D01*
D12*
X5280700Y-14876500D02*
G75*
G02*
X5200700Y-14876500I-40000J0D01*
G01*
X5200700Y-14876500D02*
G75*
G02*
X5280700Y-14876500I40000J0D01*
G01*
D11*
X5579572Y-14767984D02*
X5598620Y-14767984D01*
X5598620Y-14767984D02*
X5617667Y-14777508D01*
X5617667Y-14777508D02*
X5627191Y-14787031D01*
X5627191Y-14787031D02*
X5636715Y-14806079D01*
X5636715Y-14806079D02*
X5646239Y-14844174D01*
X5646239Y-14844174D02*
X5646239Y-14891793D01*
X5646239Y-14891793D02*
X5636715Y-14929888D01*
X5636715Y-14929888D02*
X5627191Y-14948936D01*
X5627191Y-14948936D02*
X5617667Y-14958460D01*
X5617667Y-14958460D02*
X5598620Y-14967984D01*
X5598620Y-14967984D02*
X5579572Y-14967984D01*
X5579572Y-14967984D02*
X5560524Y-14958460D01*
X5560524Y-14958460D02*
X5551001Y-14948936D01*
X5551001Y-14948936D02*
X5541477Y-14929888D01*
X5541477Y-14929888D02*
X5531953Y-14891793D01*
X5531953Y-14891793D02*
X5531953Y-14844174D01*
X5531953Y-14844174D02*
X5541477Y-14806079D01*
X5541477Y-14806079D02*
X5551001Y-14787031D01*
X5551001Y-14787031D02*
X5560524Y-14777508D01*
X5560524Y-14777508D02*
X5579572Y-14767984D01*
X5731953Y-14948936D02*
X5741477Y-14958460D01*
X5741477Y-14958460D02*
X5731953Y-14967984D01*
X5731953Y-14967984D02*
X5722429Y-14958460D01*
X5722429Y-14958460D02*
X5731953Y-14948936D01*
X5731953Y-14948936D02*
X5731953Y-14967984D01*
X5855762Y-14853698D02*
X5836715Y-14844174D01*
X5836715Y-14844174D02*
X5827191Y-14834650D01*
X5827191Y-14834650D02*
X5817667Y-14815603D01*
X5817667Y-14815603D02*
X5817667Y-14806079D01*
X5817667Y-14806079D02*
X5827191Y-14787031D01*
X5827191Y-14787031D02*
X5836715Y-14777508D01*
X5836715Y-14777508D02*
X5855762Y-14767984D01*
X5855762Y-14767984D02*
X5893858Y-14767984D01*
X5893858Y-14767984D02*
X5912905Y-14777508D01*
X5912905Y-14777508D02*
X5922429Y-14787031D01*
X5922429Y-14787031D02*
X5931953Y-14806079D01*
X5931953Y-14806079D02*
X5931953Y-14815603D01*
X5931953Y-14815603D02*
X5922429Y-14834650D01*
X5922429Y-14834650D02*
X5912905Y-14844174D01*
X5912905Y-14844174D02*
X5893858Y-14853698D01*
X5893858Y-14853698D02*
X5855762Y-14853698D01*
X5855762Y-14853698D02*
X5836715Y-14863222D01*
X5836715Y-14863222D02*
X5827191Y-14872746D01*
X5827191Y-14872746D02*
X5817667Y-14891793D01*
X5817667Y-14891793D02*
X5817667Y-14929888D01*
X5817667Y-14929888D02*
X5827191Y-14948936D01*
X5827191Y-14948936D02*
X5836715Y-14958460D01*
X5836715Y-14958460D02*
X5855762Y-14967984D01*
X5855762Y-14967984D02*
X5893858Y-14967984D01*
X5893858Y-14967984D02*
X5912905Y-14958460D01*
X5912905Y-14958460D02*
X5922429Y-14948936D01*
X5922429Y-14948936D02*
X5931953Y-14929888D01*
X5931953Y-14929888D02*
X5931953Y-14891793D01*
X5931953Y-14891793D02*
X5922429Y-14872746D01*
X5922429Y-14872746D02*
X5912905Y-14863222D01*
X5912905Y-14863222D02*
X5893858Y-14853698D01*
X6055762Y-14767984D02*
X6074810Y-14767984D01*
X6074810Y-14767984D02*
X6093858Y-14777508D01*
X6093858Y-14777508D02*
X6103382Y-14787031D01*
X6103382Y-14787031D02*
X6112905Y-14806079D01*
X6112905Y-14806079D02*
X6122429Y-14844174D01*
X6122429Y-14844174D02*
X6122429Y-14891793D01*
X6122429Y-14891793D02*
X6112905Y-14929888D01*
X6112905Y-14929888D02*
X6103382Y-14948936D01*
X6103382Y-14948936D02*
X6093858Y-14958460D01*
X6093858Y-14958460D02*
X6074810Y-14967984D01*
X6074810Y-14967984D02*
X6055762Y-14967984D01*
X6055762Y-14967984D02*
X6036715Y-14958460D01*
X6036715Y-14958460D02*
X6027191Y-14948936D01*
X6027191Y-14948936D02*
X6017667Y-14929888D01*
X6017667Y-14929888D02*
X6008143Y-14891793D01*
X6008143Y-14891793D02*
X6008143Y-14844174D01*
X6008143Y-14844174D02*
X6017667Y-14806079D01*
X6017667Y-14806079D02*
X6027191Y-14787031D01*
X6027191Y-14787031D02*
X6036715Y-14777508D01*
X6036715Y-14777508D02*
X6055762Y-14767984D01*
X6246239Y-14767984D02*
X6265286Y-14767984D01*
X6265286Y-14767984D02*
X6284334Y-14777508D01*
X6284334Y-14777508D02*
X6293858Y-14787031D01*
X6293858Y-14787031D02*
X6303382Y-14806079D01*
X6303382Y-14806079D02*
X6312905Y-14844174D01*
X6312905Y-14844174D02*
X6312905Y-14891793D01*
X6312905Y-14891793D02*
X6303382Y-14929888D01*
X6303382Y-14929888D02*
X6293858Y-14948936D01*
X6293858Y-14948936D02*
X6284334Y-14958460D01*
X6284334Y-14958460D02*
X6265286Y-14967984D01*
X6265286Y-14967984D02*
X6246239Y-14967984D01*
X6246239Y-14967984D02*
X6227191Y-14958460D01*
X6227191Y-14958460D02*
X6217667Y-14948936D01*
X6217667Y-14948936D02*
X6208143Y-14929888D01*
X6208143Y-14929888D02*
X6198620Y-14891793D01*
X6198620Y-14891793D02*
X6198620Y-14844174D01*
X6198620Y-14844174D02*
X6208143Y-14806079D01*
X6208143Y-14806079D02*
X6217667Y-14787031D01*
X6217667Y-14787031D02*
X6227191Y-14777508D01*
X6227191Y-14777508D02*
X6246239Y-14767984D01*
X6398620Y-14967984D02*
X6398620Y-14834650D01*
X6398620Y-14853698D02*
X6408143Y-14844174D01*
X6408143Y-14844174D02*
X6427191Y-14834650D01*
X6427191Y-14834650D02*
X6455763Y-14834650D01*
X6455763Y-14834650D02*
X6474810Y-14844174D01*
X6474810Y-14844174D02*
X6484334Y-14863222D01*
X6484334Y-14863222D02*
X6484334Y-14967984D01*
X6484334Y-14863222D02*
X6493858Y-14844174D01*
X6493858Y-14844174D02*
X6512905Y-14834650D01*
X6512905Y-14834650D02*
X6541477Y-14834650D01*
X6541477Y-14834650D02*
X6560524Y-14844174D01*
X6560524Y-14844174D02*
X6570048Y-14863222D01*
X6570048Y-14863222D02*
X6570048Y-14967984D01*
X6665286Y-14967984D02*
X6665286Y-14834650D01*
X6665286Y-14853698D02*
X6674810Y-14844174D01*
X6674810Y-14844174D02*
X6693858Y-14834650D01*
X6693858Y-14834650D02*
X6722429Y-14834650D01*
X6722429Y-14834650D02*
X6741477Y-14844174D01*
X6741477Y-14844174D02*
X6751001Y-14863222D01*
X6751001Y-14863222D02*
X6751001Y-14967984D01*
X6751001Y-14863222D02*
X6760524Y-14844174D01*
X6760524Y-14844174D02*
X6779572Y-14834650D01*
X6779572Y-14834650D02*
X6808143Y-14834650D01*
X6808143Y-14834650D02*
X6827191Y-14844174D01*
X6827191Y-14844174D02*
X6836715Y-14863222D01*
X6836715Y-14863222D02*
X6836715Y-14967984D01*
X7227191Y-14758460D02*
X7055763Y-15015603D01*
X7484334Y-14767984D02*
X7503382Y-14767984D01*
X7503382Y-14767984D02*
X7522429Y-14777508D01*
X7522429Y-14777508D02*
X7531953Y-14787031D01*
X7531953Y-14787031D02*
X7541477Y-14806079D01*
X7541477Y-14806079D02*
X7551001Y-14844174D01*
X7551001Y-14844174D02*
X7551001Y-14891793D01*
X7551001Y-14891793D02*
X7541477Y-14929888D01*
X7541477Y-14929888D02*
X7531953Y-14948936D01*
X7531953Y-14948936D02*
X7522429Y-14958460D01*
X7522429Y-14958460D02*
X7503382Y-14967984D01*
X7503382Y-14967984D02*
X7484334Y-14967984D01*
X7484334Y-14967984D02*
X7465286Y-14958460D01*
X7465286Y-14958460D02*
X7455763Y-14948936D01*
X7455763Y-14948936D02*
X7446239Y-14929888D01*
X7446239Y-14929888D02*
X7436715Y-14891793D01*
X7436715Y-14891793D02*
X7436715Y-14844174D01*
X7436715Y-14844174D02*
X7446239Y-14806079D01*
X7446239Y-14806079D02*
X7455763Y-14787031D01*
X7455763Y-14787031D02*
X7465286Y-14777508D01*
X7465286Y-14777508D02*
X7484334Y-14767984D01*
X7636715Y-14948936D02*
X7646239Y-14958460D01*
X7646239Y-14958460D02*
X7636715Y-14967984D01*
X7636715Y-14967984D02*
X7627191Y-14958460D01*
X7627191Y-14958460D02*
X7636715Y-14948936D01*
X7636715Y-14948936D02*
X7636715Y-14967984D01*
X7770048Y-14767984D02*
X7789096Y-14767984D01*
X7789096Y-14767984D02*
X7808144Y-14777508D01*
X7808144Y-14777508D02*
X7817667Y-14787031D01*
X7817667Y-14787031D02*
X7827191Y-14806079D01*
X7827191Y-14806079D02*
X7836715Y-14844174D01*
X7836715Y-14844174D02*
X7836715Y-14891793D01*
X7836715Y-14891793D02*
X7827191Y-14929888D01*
X7827191Y-14929888D02*
X7817667Y-14948936D01*
X7817667Y-14948936D02*
X7808144Y-14958460D01*
X7808144Y-14958460D02*
X7789096Y-14967984D01*
X7789096Y-14967984D02*
X7770048Y-14967984D01*
X7770048Y-14967984D02*
X7751001Y-14958460D01*
X7751001Y-14958460D02*
X7741477Y-14948936D01*
X7741477Y-14948936D02*
X7731953Y-14929888D01*
X7731953Y-14929888D02*
X7722429Y-14891793D01*
X7722429Y-14891793D02*
X7722429Y-14844174D01*
X7722429Y-14844174D02*
X7731953Y-14806079D01*
X7731953Y-14806079D02*
X7741477Y-14787031D01*
X7741477Y-14787031D02*
X7751001Y-14777508D01*
X7751001Y-14777508D02*
X7770048Y-14767984D01*
X7903382Y-14767984D02*
X8027191Y-14767984D01*
X8027191Y-14767984D02*
X7960525Y-14844174D01*
X7960525Y-14844174D02*
X7989096Y-14844174D01*
X7989096Y-14844174D02*
X8008144Y-14853698D01*
X8008144Y-14853698D02*
X8017667Y-14863222D01*
X8017667Y-14863222D02*
X8027191Y-14882269D01*
X8027191Y-14882269D02*
X8027191Y-14929888D01*
X8027191Y-14929888D02*
X8017667Y-14948936D01*
X8017667Y-14948936D02*
X8008144Y-14958460D01*
X8008144Y-14958460D02*
X7989096Y-14967984D01*
X7989096Y-14967984D02*
X7931953Y-14967984D01*
X7931953Y-14967984D02*
X7912906Y-14958460D01*
X7912906Y-14958460D02*
X7903382Y-14948936D01*
X8217667Y-14967984D02*
X8103382Y-14967984D01*
X8160525Y-14967984D02*
X8160525Y-14767984D01*
X8160525Y-14767984D02*
X8141477Y-14796555D01*
X8141477Y-14796555D02*
X8122429Y-14815603D01*
X8122429Y-14815603D02*
X8103382Y-14825127D01*
X8398620Y-14767984D02*
X8303382Y-14767984D01*
X8303382Y-14767984D02*
X8293858Y-14863222D01*
X8293858Y-14863222D02*
X8303382Y-14853698D01*
X8303382Y-14853698D02*
X8322429Y-14844174D01*
X8322429Y-14844174D02*
X8370048Y-14844174D01*
X8370048Y-14844174D02*
X8389096Y-14853698D01*
X8389096Y-14853698D02*
X8398620Y-14863222D01*
X8398620Y-14863222D02*
X8408144Y-14882269D01*
X8408144Y-14882269D02*
X8408144Y-14929888D01*
X8408144Y-14929888D02*
X8398620Y-14948936D01*
X8398620Y-14948936D02*
X8389096Y-14958460D01*
X8389096Y-14958460D02*
X8370048Y-14967984D01*
X8370048Y-14967984D02*
X8322429Y-14967984D01*
X8322429Y-14967984D02*
X8303382Y-14958460D01*
X8303382Y-14958460D02*
X8293858Y-14948936D01*
X8484334Y-14767984D02*
X8484334Y-14806079D01*
X8560525Y-14767984D02*
X8560525Y-14806079D01*
X8855763Y-15044174D02*
X8846239Y-15034650D01*
X8846239Y-15034650D02*
X8827191Y-15006079D01*
X8827191Y-15006079D02*
X8817668Y-14987031D01*
X8817668Y-14987031D02*
X8808144Y-14958460D01*
X8808144Y-14958460D02*
X8798620Y-14910841D01*
X8798620Y-14910841D02*
X8798620Y-14872746D01*
X8798620Y-14872746D02*
X8808144Y-14825127D01*
X8808144Y-14825127D02*
X8817668Y-14796555D01*
X8817668Y-14796555D02*
X8827191Y-14777508D01*
X8827191Y-14777508D02*
X8846239Y-14748936D01*
X8846239Y-14748936D02*
X8855763Y-14739412D01*
X9036715Y-14967984D02*
X8922430Y-14967984D01*
X8979572Y-14967984D02*
X8979572Y-14767984D01*
X8979572Y-14767984D02*
X8960525Y-14796555D01*
X8960525Y-14796555D02*
X8941477Y-14815603D01*
X8941477Y-14815603D02*
X8922430Y-14825127D01*
X9208144Y-14834650D02*
X9208144Y-14967984D01*
X9160525Y-14758460D02*
X9112906Y-14901317D01*
X9112906Y-14901317D02*
X9236715Y-14901317D01*
X9465287Y-14967984D02*
X9465287Y-14767984D01*
X9551001Y-14967984D02*
X9551001Y-14863222D01*
X9551001Y-14863222D02*
X9541477Y-14844174D01*
X9541477Y-14844174D02*
X9522430Y-14834650D01*
X9522430Y-14834650D02*
X9493858Y-14834650D01*
X9493858Y-14834650D02*
X9474811Y-14844174D01*
X9474811Y-14844174D02*
X9465287Y-14853698D01*
X9674811Y-14967984D02*
X9655763Y-14958460D01*
X9655763Y-14958460D02*
X9646239Y-14948936D01*
X9646239Y-14948936D02*
X9636715Y-14929888D01*
X9636715Y-14929888D02*
X9636715Y-14872746D01*
X9636715Y-14872746D02*
X9646239Y-14853698D01*
X9646239Y-14853698D02*
X9655763Y-14844174D01*
X9655763Y-14844174D02*
X9674811Y-14834650D01*
X9674811Y-14834650D02*
X9703382Y-14834650D01*
X9703382Y-14834650D02*
X9722430Y-14844174D01*
X9722430Y-14844174D02*
X9731953Y-14853698D01*
X9731953Y-14853698D02*
X9741477Y-14872746D01*
X9741477Y-14872746D02*
X9741477Y-14929888D01*
X9741477Y-14929888D02*
X9731953Y-14948936D01*
X9731953Y-14948936D02*
X9722430Y-14958460D01*
X9722430Y-14958460D02*
X9703382Y-14967984D01*
X9703382Y-14967984D02*
X9674811Y-14967984D01*
X9855763Y-14967984D02*
X9836715Y-14958460D01*
X9836715Y-14958460D02*
X9827192Y-14939412D01*
X9827192Y-14939412D02*
X9827192Y-14767984D01*
X10008144Y-14958460D02*
X9989096Y-14967984D01*
X9989096Y-14967984D02*
X9951001Y-14967984D01*
X9951001Y-14967984D02*
X9931953Y-14958460D01*
X9931953Y-14958460D02*
X9922430Y-14939412D01*
X9922430Y-14939412D02*
X9922430Y-14863222D01*
X9922430Y-14863222D02*
X9931953Y-14844174D01*
X9931953Y-14844174D02*
X9951001Y-14834650D01*
X9951001Y-14834650D02*
X9989096Y-14834650D01*
X9989096Y-14834650D02*
X10008144Y-14844174D01*
X10008144Y-14844174D02*
X10017668Y-14863222D01*
X10017668Y-14863222D02*
X10017668Y-14882269D01*
X10017668Y-14882269D02*
X9922430Y-14901317D01*
X10093858Y-14958460D02*
X10112906Y-14967984D01*
X10112906Y-14967984D02*
X10151001Y-14967984D01*
X10151001Y-14967984D02*
X10170049Y-14958460D01*
X10170049Y-14958460D02*
X10179573Y-14939412D01*
X10179573Y-14939412D02*
X10179573Y-14929888D01*
X10179573Y-14929888D02*
X10170049Y-14910841D01*
X10170049Y-14910841D02*
X10151001Y-14901317D01*
X10151001Y-14901317D02*
X10122430Y-14901317D01*
X10122430Y-14901317D02*
X10103382Y-14891793D01*
X10103382Y-14891793D02*
X10093858Y-14872746D01*
X10093858Y-14872746D02*
X10093858Y-14863222D01*
X10093858Y-14863222D02*
X10103382Y-14844174D01*
X10103382Y-14844174D02*
X10122430Y-14834650D01*
X10122430Y-14834650D02*
X10151001Y-14834650D01*
X10151001Y-14834650D02*
X10170049Y-14844174D01*
X10246239Y-15044174D02*
X10255763Y-15034650D01*
X10255763Y-15034650D02*
X10274811Y-15006079D01*
X10274811Y-15006079D02*
X10284334Y-14987031D01*
X10284334Y-14987031D02*
X10293858Y-14958460D01*
X10293858Y-14958460D02*
X10303382Y-14910841D01*
X10303382Y-14910841D02*
X10303382Y-14872746D01*
X10303382Y-14872746D02*
X10293858Y-14825127D01*
X10293858Y-14825127D02*
X10284334Y-14796555D01*
X10284334Y-14796555D02*
X10274811Y-14777508D01*
X10274811Y-14777508D02*
X10255763Y-14748936D01*
X10255763Y-14748936D02*
X10246239Y-14739412D01*
D12*
X5230700Y-15090500D02*
X5230700Y-15190500D01*
X5180700Y-15140500D02*
X5280700Y-15140500D01*
D11*
X5646239Y-15231984D02*
X5531953Y-15231984D01*
X5589096Y-15231984D02*
X5589096Y-15031984D01*
X5589096Y-15031984D02*
X5570048Y-15060555D01*
X5570048Y-15060555D02*
X5551001Y-15079603D01*
X5551001Y-15079603D02*
X5531953Y-15089127D01*
X5731953Y-15212936D02*
X5741477Y-15222460D01*
X5741477Y-15222460D02*
X5731953Y-15231984D01*
X5731953Y-15231984D02*
X5722429Y-15222460D01*
X5722429Y-15222460D02*
X5731953Y-15212936D01*
X5731953Y-15212936D02*
X5731953Y-15231984D01*
X5865286Y-15031984D02*
X5884334Y-15031984D01*
X5884334Y-15031984D02*
X5903382Y-15041508D01*
X5903382Y-15041508D02*
X5912905Y-15051031D01*
X5912905Y-15051031D02*
X5922429Y-15070079D01*
X5922429Y-15070079D02*
X5931953Y-15108174D01*
X5931953Y-15108174D02*
X5931953Y-15155793D01*
X5931953Y-15155793D02*
X5922429Y-15193888D01*
X5922429Y-15193888D02*
X5912905Y-15212936D01*
X5912905Y-15212936D02*
X5903382Y-15222460D01*
X5903382Y-15222460D02*
X5884334Y-15231984D01*
X5884334Y-15231984D02*
X5865286Y-15231984D01*
X5865286Y-15231984D02*
X5846239Y-15222460D01*
X5846239Y-15222460D02*
X5836715Y-15212936D01*
X5836715Y-15212936D02*
X5827191Y-15193888D01*
X5827191Y-15193888D02*
X5817667Y-15155793D01*
X5817667Y-15155793D02*
X5817667Y-15108174D01*
X5817667Y-15108174D02*
X5827191Y-15070079D01*
X5827191Y-15070079D02*
X5836715Y-15051031D01*
X5836715Y-15051031D02*
X5846239Y-15041508D01*
X5846239Y-15041508D02*
X5865286Y-15031984D01*
X6055762Y-15031984D02*
X6074810Y-15031984D01*
X6074810Y-15031984D02*
X6093858Y-15041508D01*
X6093858Y-15041508D02*
X6103382Y-15051031D01*
X6103382Y-15051031D02*
X6112905Y-15070079D01*
X6112905Y-15070079D02*
X6122429Y-15108174D01*
X6122429Y-15108174D02*
X6122429Y-15155793D01*
X6122429Y-15155793D02*
X6112905Y-15193888D01*
X6112905Y-15193888D02*
X6103382Y-15212936D01*
X6103382Y-15212936D02*
X6093858Y-15222460D01*
X6093858Y-15222460D02*
X6074810Y-15231984D01*
X6074810Y-15231984D02*
X6055762Y-15231984D01*
X6055762Y-15231984D02*
X6036715Y-15222460D01*
X6036715Y-15222460D02*
X6027191Y-15212936D01*
X6027191Y-15212936D02*
X6017667Y-15193888D01*
X6017667Y-15193888D02*
X6008143Y-15155793D01*
X6008143Y-15155793D02*
X6008143Y-15108174D01*
X6008143Y-15108174D02*
X6017667Y-15070079D01*
X6017667Y-15070079D02*
X6027191Y-15051031D01*
X6027191Y-15051031D02*
X6036715Y-15041508D01*
X6036715Y-15041508D02*
X6055762Y-15031984D01*
X6246239Y-15031984D02*
X6265286Y-15031984D01*
X6265286Y-15031984D02*
X6284334Y-15041508D01*
X6284334Y-15041508D02*
X6293858Y-15051031D01*
X6293858Y-15051031D02*
X6303382Y-15070079D01*
X6303382Y-15070079D02*
X6312905Y-15108174D01*
X6312905Y-15108174D02*
X6312905Y-15155793D01*
X6312905Y-15155793D02*
X6303382Y-15193888D01*
X6303382Y-15193888D02*
X6293858Y-15212936D01*
X6293858Y-15212936D02*
X6284334Y-15222460D01*
X6284334Y-15222460D02*
X6265286Y-15231984D01*
X6265286Y-15231984D02*
X6246239Y-15231984D01*
X6246239Y-15231984D02*
X6227191Y-15222460D01*
X6227191Y-15222460D02*
X6217667Y-15212936D01*
X6217667Y-15212936D02*
X6208143Y-15193888D01*
X6208143Y-15193888D02*
X6198620Y-15155793D01*
X6198620Y-15155793D02*
X6198620Y-15108174D01*
X6198620Y-15108174D02*
X6208143Y-15070079D01*
X6208143Y-15070079D02*
X6217667Y-15051031D01*
X6217667Y-15051031D02*
X6227191Y-15041508D01*
X6227191Y-15041508D02*
X6246239Y-15031984D01*
X6398620Y-15231984D02*
X6398620Y-15098650D01*
X6398620Y-15117698D02*
X6408143Y-15108174D01*
X6408143Y-15108174D02*
X6427191Y-15098650D01*
X6427191Y-15098650D02*
X6455763Y-15098650D01*
X6455763Y-15098650D02*
X6474810Y-15108174D01*
X6474810Y-15108174D02*
X6484334Y-15127222D01*
X6484334Y-15127222D02*
X6484334Y-15231984D01*
X6484334Y-15127222D02*
X6493858Y-15108174D01*
X6493858Y-15108174D02*
X6512905Y-15098650D01*
X6512905Y-15098650D02*
X6541477Y-15098650D01*
X6541477Y-15098650D02*
X6560524Y-15108174D01*
X6560524Y-15108174D02*
X6570048Y-15127222D01*
X6570048Y-15127222D02*
X6570048Y-15231984D01*
X6665286Y-15231984D02*
X6665286Y-15098650D01*
X6665286Y-15117698D02*
X6674810Y-15108174D01*
X6674810Y-15108174D02*
X6693858Y-15098650D01*
X6693858Y-15098650D02*
X6722429Y-15098650D01*
X6722429Y-15098650D02*
X6741477Y-15108174D01*
X6741477Y-15108174D02*
X6751001Y-15127222D01*
X6751001Y-15127222D02*
X6751001Y-15231984D01*
X6751001Y-15127222D02*
X6760524Y-15108174D01*
X6760524Y-15108174D02*
X6779572Y-15098650D01*
X6779572Y-15098650D02*
X6808143Y-15098650D01*
X6808143Y-15098650D02*
X6827191Y-15108174D01*
X6827191Y-15108174D02*
X6836715Y-15127222D01*
X6836715Y-15127222D02*
X6836715Y-15231984D01*
X7227191Y-15022460D02*
X7055763Y-15279603D01*
X7484334Y-15031984D02*
X7503382Y-15031984D01*
X7503382Y-15031984D02*
X7522429Y-15041508D01*
X7522429Y-15041508D02*
X7531953Y-15051031D01*
X7531953Y-15051031D02*
X7541477Y-15070079D01*
X7541477Y-15070079D02*
X7551001Y-15108174D01*
X7551001Y-15108174D02*
X7551001Y-15155793D01*
X7551001Y-15155793D02*
X7541477Y-15193888D01*
X7541477Y-15193888D02*
X7531953Y-15212936D01*
X7531953Y-15212936D02*
X7522429Y-15222460D01*
X7522429Y-15222460D02*
X7503382Y-15231984D01*
X7503382Y-15231984D02*
X7484334Y-15231984D01*
X7484334Y-15231984D02*
X7465286Y-15222460D01*
X7465286Y-15222460D02*
X7455763Y-15212936D01*
X7455763Y-15212936D02*
X7446239Y-15193888D01*
X7446239Y-15193888D02*
X7436715Y-15155793D01*
X7436715Y-15155793D02*
X7436715Y-15108174D01*
X7436715Y-15108174D02*
X7446239Y-15070079D01*
X7446239Y-15070079D02*
X7455763Y-15051031D01*
X7455763Y-15051031D02*
X7465286Y-15041508D01*
X7465286Y-15041508D02*
X7484334Y-15031984D01*
X7636715Y-15212936D02*
X7646239Y-15222460D01*
X7646239Y-15222460D02*
X7636715Y-15231984D01*
X7636715Y-15231984D02*
X7627191Y-15222460D01*
X7627191Y-15222460D02*
X7636715Y-15212936D01*
X7636715Y-15212936D02*
X7636715Y-15231984D01*
X7770048Y-15031984D02*
X7789096Y-15031984D01*
X7789096Y-15031984D02*
X7808144Y-15041508D01*
X7808144Y-15041508D02*
X7817667Y-15051031D01*
X7817667Y-15051031D02*
X7827191Y-15070079D01*
X7827191Y-15070079D02*
X7836715Y-15108174D01*
X7836715Y-15108174D02*
X7836715Y-15155793D01*
X7836715Y-15155793D02*
X7827191Y-15193888D01*
X7827191Y-15193888D02*
X7817667Y-15212936D01*
X7817667Y-15212936D02*
X7808144Y-15222460D01*
X7808144Y-15222460D02*
X7789096Y-15231984D01*
X7789096Y-15231984D02*
X7770048Y-15231984D01*
X7770048Y-15231984D02*
X7751001Y-15222460D01*
X7751001Y-15222460D02*
X7741477Y-15212936D01*
X7741477Y-15212936D02*
X7731953Y-15193888D01*
X7731953Y-15193888D02*
X7722429Y-15155793D01*
X7722429Y-15155793D02*
X7722429Y-15108174D01*
X7722429Y-15108174D02*
X7731953Y-15070079D01*
X7731953Y-15070079D02*
X7741477Y-15051031D01*
X7741477Y-15051031D02*
X7751001Y-15041508D01*
X7751001Y-15041508D02*
X7770048Y-15031984D01*
X7903382Y-15031984D02*
X8027191Y-15031984D01*
X8027191Y-15031984D02*
X7960525Y-15108174D01*
X7960525Y-15108174D02*
X7989096Y-15108174D01*
X7989096Y-15108174D02*
X8008144Y-15117698D01*
X8008144Y-15117698D02*
X8017667Y-15127222D01*
X8017667Y-15127222D02*
X8027191Y-15146269D01*
X8027191Y-15146269D02*
X8027191Y-15193888D01*
X8027191Y-15193888D02*
X8017667Y-15212936D01*
X8017667Y-15212936D02*
X8008144Y-15222460D01*
X8008144Y-15222460D02*
X7989096Y-15231984D01*
X7989096Y-15231984D02*
X7931953Y-15231984D01*
X7931953Y-15231984D02*
X7912906Y-15222460D01*
X7912906Y-15222460D02*
X7903382Y-15212936D01*
X8122429Y-15231984D02*
X8160525Y-15231984D01*
X8160525Y-15231984D02*
X8179572Y-15222460D01*
X8179572Y-15222460D02*
X8189096Y-15212936D01*
X8189096Y-15212936D02*
X8208144Y-15184365D01*
X8208144Y-15184365D02*
X8217667Y-15146269D01*
X8217667Y-15146269D02*
X8217667Y-15070079D01*
X8217667Y-15070079D02*
X8208144Y-15051031D01*
X8208144Y-15051031D02*
X8198620Y-15041508D01*
X8198620Y-15041508D02*
X8179572Y-15031984D01*
X8179572Y-15031984D02*
X8141477Y-15031984D01*
X8141477Y-15031984D02*
X8122429Y-15041508D01*
X8122429Y-15041508D02*
X8112906Y-15051031D01*
X8112906Y-15051031D02*
X8103382Y-15070079D01*
X8103382Y-15070079D02*
X8103382Y-15117698D01*
X8103382Y-15117698D02*
X8112906Y-15136746D01*
X8112906Y-15136746D02*
X8122429Y-15146269D01*
X8122429Y-15146269D02*
X8141477Y-15155793D01*
X8141477Y-15155793D02*
X8179572Y-15155793D01*
X8179572Y-15155793D02*
X8198620Y-15146269D01*
X8198620Y-15146269D02*
X8208144Y-15136746D01*
X8208144Y-15136746D02*
X8217667Y-15117698D01*
X8389096Y-15098650D02*
X8389096Y-15231984D01*
X8341477Y-15022460D02*
X8293858Y-15165317D01*
X8293858Y-15165317D02*
X8417668Y-15165317D01*
X8484334Y-15031984D02*
X8484334Y-15070079D01*
X8560525Y-15031984D02*
X8560525Y-15070079D01*
X8855763Y-15308174D02*
X8846239Y-15298650D01*
X8846239Y-15298650D02*
X8827191Y-15270079D01*
X8827191Y-15270079D02*
X8817668Y-15251031D01*
X8817668Y-15251031D02*
X8808144Y-15222460D01*
X8808144Y-15222460D02*
X8798620Y-15174841D01*
X8798620Y-15174841D02*
X8798620Y-15136746D01*
X8798620Y-15136746D02*
X8808144Y-15089127D01*
X8808144Y-15089127D02*
X8817668Y-15060555D01*
X8817668Y-15060555D02*
X8827191Y-15041508D01*
X8827191Y-15041508D02*
X8846239Y-15012936D01*
X8846239Y-15012936D02*
X8855763Y-15003412D01*
X8922430Y-15051031D02*
X8931953Y-15041508D01*
X8931953Y-15041508D02*
X8951001Y-15031984D01*
X8951001Y-15031984D02*
X8998620Y-15031984D01*
X8998620Y-15031984D02*
X9017668Y-15041508D01*
X9017668Y-15041508D02*
X9027191Y-15051031D01*
X9027191Y-15051031D02*
X9036715Y-15070079D01*
X9036715Y-15070079D02*
X9036715Y-15089127D01*
X9036715Y-15089127D02*
X9027191Y-15117698D01*
X9027191Y-15117698D02*
X8912906Y-15231984D01*
X8912906Y-15231984D02*
X9036715Y-15231984D01*
X9103382Y-15031984D02*
X9227191Y-15031984D01*
X9227191Y-15031984D02*
X9160525Y-15108174D01*
X9160525Y-15108174D02*
X9189096Y-15108174D01*
X9189096Y-15108174D02*
X9208144Y-15117698D01*
X9208144Y-15117698D02*
X9217668Y-15127222D01*
X9217668Y-15127222D02*
X9227191Y-15146269D01*
X9227191Y-15146269D02*
X9227191Y-15193888D01*
X9227191Y-15193888D02*
X9217668Y-15212936D01*
X9217668Y-15212936D02*
X9208144Y-15222460D01*
X9208144Y-15222460D02*
X9189096Y-15231984D01*
X9189096Y-15231984D02*
X9131953Y-15231984D01*
X9131953Y-15231984D02*
X9112906Y-15222460D01*
X9112906Y-15222460D02*
X9103382Y-15212936D01*
X9465287Y-15231984D02*
X9465287Y-15031984D01*
X9551001Y-15231984D02*
X9551001Y-15127222D01*
X9551001Y-15127222D02*
X9541477Y-15108174D01*
X9541477Y-15108174D02*
X9522430Y-15098650D01*
X9522430Y-15098650D02*
X9493858Y-15098650D01*
X9493858Y-15098650D02*
X9474811Y-15108174D01*
X9474811Y-15108174D02*
X9465287Y-15117698D01*
X9674811Y-15231984D02*
X9655763Y-15222460D01*
X9655763Y-15222460D02*
X9646239Y-15212936D01*
X9646239Y-15212936D02*
X9636715Y-15193888D01*
X9636715Y-15193888D02*
X9636715Y-15136746D01*
X9636715Y-15136746D02*
X9646239Y-15117698D01*
X9646239Y-15117698D02*
X9655763Y-15108174D01*
X9655763Y-15108174D02*
X9674811Y-15098650D01*
X9674811Y-15098650D02*
X9703382Y-15098650D01*
X9703382Y-15098650D02*
X9722430Y-15108174D01*
X9722430Y-15108174D02*
X9731953Y-15117698D01*
X9731953Y-15117698D02*
X9741477Y-15136746D01*
X9741477Y-15136746D02*
X9741477Y-15193888D01*
X9741477Y-15193888D02*
X9731953Y-15212936D01*
X9731953Y-15212936D02*
X9722430Y-15222460D01*
X9722430Y-15222460D02*
X9703382Y-15231984D01*
X9703382Y-15231984D02*
X9674811Y-15231984D01*
X9855763Y-15231984D02*
X9836715Y-15222460D01*
X9836715Y-15222460D02*
X9827192Y-15203412D01*
X9827192Y-15203412D02*
X9827192Y-15031984D01*
X10008144Y-15222460D02*
X9989096Y-15231984D01*
X9989096Y-15231984D02*
X9951001Y-15231984D01*
X9951001Y-15231984D02*
X9931953Y-15222460D01*
X9931953Y-15222460D02*
X9922430Y-15203412D01*
X9922430Y-15203412D02*
X9922430Y-15127222D01*
X9922430Y-15127222D02*
X9931953Y-15108174D01*
X9931953Y-15108174D02*
X9951001Y-15098650D01*
X9951001Y-15098650D02*
X9989096Y-15098650D01*
X9989096Y-15098650D02*
X10008144Y-15108174D01*
X10008144Y-15108174D02*
X10017668Y-15127222D01*
X10017668Y-15127222D02*
X10017668Y-15146269D01*
X10017668Y-15146269D02*
X9922430Y-15165317D01*
X10093858Y-15222460D02*
X10112906Y-15231984D01*
X10112906Y-15231984D02*
X10151001Y-15231984D01*
X10151001Y-15231984D02*
X10170049Y-15222460D01*
X10170049Y-15222460D02*
X10179573Y-15203412D01*
X10179573Y-15203412D02*
X10179573Y-15193888D01*
X10179573Y-15193888D02*
X10170049Y-15174841D01*
X10170049Y-15174841D02*
X10151001Y-15165317D01*
X10151001Y-15165317D02*
X10122430Y-15165317D01*
X10122430Y-15165317D02*
X10103382Y-15155793D01*
X10103382Y-15155793D02*
X10093858Y-15136746D01*
X10093858Y-15136746D02*
X10093858Y-15127222D01*
X10093858Y-15127222D02*
X10103382Y-15108174D01*
X10103382Y-15108174D02*
X10122430Y-15098650D01*
X10122430Y-15098650D02*
X10151001Y-15098650D01*
X10151001Y-15098650D02*
X10170049Y-15108174D01*
X10246239Y-15308174D02*
X10255763Y-15298650D01*
X10255763Y-15298650D02*
X10274811Y-15270079D01*
X10274811Y-15270079D02*
X10284334Y-15251031D01*
X10284334Y-15251031D02*
X10293858Y-15222460D01*
X10293858Y-15222460D02*
X10303382Y-15174841D01*
X10303382Y-15174841D02*
X10303382Y-15136746D01*
X10303382Y-15136746D02*
X10293858Y-15089127D01*
X10293858Y-15089127D02*
X10284334Y-15060555D01*
X10284334Y-15060555D02*
X10274811Y-15041508D01*
X10274811Y-15041508D02*
X10255763Y-15012936D01*
X10255763Y-15012936D02*
X10246239Y-15003412D01*
D13*
X5258734Y-15457533D02*
X5258734Y-15351466D01*
X5152667Y-15351466D01*
X5152667Y-15457533D01*
X5258734Y-15457533D01*
D11*
X5646239Y-15495984D02*
X5531953Y-15495984D01*
X5589096Y-15495984D02*
X5589096Y-15295984D01*
X5589096Y-15295984D02*
X5570048Y-15324555D01*
X5570048Y-15324555D02*
X5551001Y-15343603D01*
X5551001Y-15343603D02*
X5531953Y-15353127D01*
X5731953Y-15476936D02*
X5741477Y-15486460D01*
X5741477Y-15486460D02*
X5731953Y-15495984D01*
X5731953Y-15495984D02*
X5722429Y-15486460D01*
X5722429Y-15486460D02*
X5731953Y-15476936D01*
X5731953Y-15476936D02*
X5731953Y-15495984D01*
X5922429Y-15295984D02*
X5827191Y-15295984D01*
X5827191Y-15295984D02*
X5817667Y-15391222D01*
X5817667Y-15391222D02*
X5827191Y-15381698D01*
X5827191Y-15381698D02*
X5846239Y-15372174D01*
X5846239Y-15372174D02*
X5893858Y-15372174D01*
X5893858Y-15372174D02*
X5912905Y-15381698D01*
X5912905Y-15381698D02*
X5922429Y-15391222D01*
X5922429Y-15391222D02*
X5931953Y-15410269D01*
X5931953Y-15410269D02*
X5931953Y-15457888D01*
X5931953Y-15457888D02*
X5922429Y-15476936D01*
X5922429Y-15476936D02*
X5912905Y-15486460D01*
X5912905Y-15486460D02*
X5893858Y-15495984D01*
X5893858Y-15495984D02*
X5846239Y-15495984D01*
X5846239Y-15495984D02*
X5827191Y-15486460D01*
X5827191Y-15486460D02*
X5817667Y-15476936D01*
X6055762Y-15295984D02*
X6074810Y-15295984D01*
X6074810Y-15295984D02*
X6093858Y-15305508D01*
X6093858Y-15305508D02*
X6103382Y-15315031D01*
X6103382Y-15315031D02*
X6112905Y-15334079D01*
X6112905Y-15334079D02*
X6122429Y-15372174D01*
X6122429Y-15372174D02*
X6122429Y-15419793D01*
X6122429Y-15419793D02*
X6112905Y-15457888D01*
X6112905Y-15457888D02*
X6103382Y-15476936D01*
X6103382Y-15476936D02*
X6093858Y-15486460D01*
X6093858Y-15486460D02*
X6074810Y-15495984D01*
X6074810Y-15495984D02*
X6055762Y-15495984D01*
X6055762Y-15495984D02*
X6036715Y-15486460D01*
X6036715Y-15486460D02*
X6027191Y-15476936D01*
X6027191Y-15476936D02*
X6017667Y-15457888D01*
X6017667Y-15457888D02*
X6008143Y-15419793D01*
X6008143Y-15419793D02*
X6008143Y-15372174D01*
X6008143Y-15372174D02*
X6017667Y-15334079D01*
X6017667Y-15334079D02*
X6027191Y-15315031D01*
X6027191Y-15315031D02*
X6036715Y-15305508D01*
X6036715Y-15305508D02*
X6055762Y-15295984D01*
X6246239Y-15295984D02*
X6265286Y-15295984D01*
X6265286Y-15295984D02*
X6284334Y-15305508D01*
X6284334Y-15305508D02*
X6293858Y-15315031D01*
X6293858Y-15315031D02*
X6303382Y-15334079D01*
X6303382Y-15334079D02*
X6312905Y-15372174D01*
X6312905Y-15372174D02*
X6312905Y-15419793D01*
X6312905Y-15419793D02*
X6303382Y-15457888D01*
X6303382Y-15457888D02*
X6293858Y-15476936D01*
X6293858Y-15476936D02*
X6284334Y-15486460D01*
X6284334Y-15486460D02*
X6265286Y-15495984D01*
X6265286Y-15495984D02*
X6246239Y-15495984D01*
X6246239Y-15495984D02*
X6227191Y-15486460D01*
X6227191Y-15486460D02*
X6217667Y-15476936D01*
X6217667Y-15476936D02*
X6208143Y-15457888D01*
X6208143Y-15457888D02*
X6198620Y-15419793D01*
X6198620Y-15419793D02*
X6198620Y-15372174D01*
X6198620Y-15372174D02*
X6208143Y-15334079D01*
X6208143Y-15334079D02*
X6217667Y-15315031D01*
X6217667Y-15315031D02*
X6227191Y-15305508D01*
X6227191Y-15305508D02*
X6246239Y-15295984D01*
X6398620Y-15495984D02*
X6398620Y-15362650D01*
X6398620Y-15381698D02*
X6408143Y-15372174D01*
X6408143Y-15372174D02*
X6427191Y-15362650D01*
X6427191Y-15362650D02*
X6455763Y-15362650D01*
X6455763Y-15362650D02*
X6474810Y-15372174D01*
X6474810Y-15372174D02*
X6484334Y-15391222D01*
X6484334Y-15391222D02*
X6484334Y-15495984D01*
X6484334Y-15391222D02*
X6493858Y-15372174D01*
X6493858Y-15372174D02*
X6512905Y-15362650D01*
X6512905Y-15362650D02*
X6541477Y-15362650D01*
X6541477Y-15362650D02*
X6560524Y-15372174D01*
X6560524Y-15372174D02*
X6570048Y-15391222D01*
X6570048Y-15391222D02*
X6570048Y-15495984D01*
X6665286Y-15495984D02*
X6665286Y-15362650D01*
X6665286Y-15381698D02*
X6674810Y-15372174D01*
X6674810Y-15372174D02*
X6693858Y-15362650D01*
X6693858Y-15362650D02*
X6722429Y-15362650D01*
X6722429Y-15362650D02*
X6741477Y-15372174D01*
X6741477Y-15372174D02*
X6751001Y-15391222D01*
X6751001Y-15391222D02*
X6751001Y-15495984D01*
X6751001Y-15391222D02*
X6760524Y-15372174D01*
X6760524Y-15372174D02*
X6779572Y-15362650D01*
X6779572Y-15362650D02*
X6808143Y-15362650D01*
X6808143Y-15362650D02*
X6827191Y-15372174D01*
X6827191Y-15372174D02*
X6836715Y-15391222D01*
X6836715Y-15391222D02*
X6836715Y-15495984D01*
X7227191Y-15286460D02*
X7055763Y-15543603D01*
X7484334Y-15295984D02*
X7503382Y-15295984D01*
X7503382Y-15295984D02*
X7522429Y-15305508D01*
X7522429Y-15305508D02*
X7531953Y-15315031D01*
X7531953Y-15315031D02*
X7541477Y-15334079D01*
X7541477Y-15334079D02*
X7551001Y-15372174D01*
X7551001Y-15372174D02*
X7551001Y-15419793D01*
X7551001Y-15419793D02*
X7541477Y-15457888D01*
X7541477Y-15457888D02*
X7531953Y-15476936D01*
X7531953Y-15476936D02*
X7522429Y-15486460D01*
X7522429Y-15486460D02*
X7503382Y-15495984D01*
X7503382Y-15495984D02*
X7484334Y-15495984D01*
X7484334Y-15495984D02*
X7465286Y-15486460D01*
X7465286Y-15486460D02*
X7455763Y-15476936D01*
X7455763Y-15476936D02*
X7446239Y-15457888D01*
X7446239Y-15457888D02*
X7436715Y-15419793D01*
X7436715Y-15419793D02*
X7436715Y-15372174D01*
X7436715Y-15372174D02*
X7446239Y-15334079D01*
X7446239Y-15334079D02*
X7455763Y-15315031D01*
X7455763Y-15315031D02*
X7465286Y-15305508D01*
X7465286Y-15305508D02*
X7484334Y-15295984D01*
X7636715Y-15476936D02*
X7646239Y-15486460D01*
X7646239Y-15486460D02*
X7636715Y-15495984D01*
X7636715Y-15495984D02*
X7627191Y-15486460D01*
X7627191Y-15486460D02*
X7636715Y-15476936D01*
X7636715Y-15476936D02*
X7636715Y-15495984D01*
X7770048Y-15295984D02*
X7789096Y-15295984D01*
X7789096Y-15295984D02*
X7808144Y-15305508D01*
X7808144Y-15305508D02*
X7817667Y-15315031D01*
X7817667Y-15315031D02*
X7827191Y-15334079D01*
X7827191Y-15334079D02*
X7836715Y-15372174D01*
X7836715Y-15372174D02*
X7836715Y-15419793D01*
X7836715Y-15419793D02*
X7827191Y-15457888D01*
X7827191Y-15457888D02*
X7817667Y-15476936D01*
X7817667Y-15476936D02*
X7808144Y-15486460D01*
X7808144Y-15486460D02*
X7789096Y-15495984D01*
X7789096Y-15495984D02*
X7770048Y-15495984D01*
X7770048Y-15495984D02*
X7751001Y-15486460D01*
X7751001Y-15486460D02*
X7741477Y-15476936D01*
X7741477Y-15476936D02*
X7731953Y-15457888D01*
X7731953Y-15457888D02*
X7722429Y-15419793D01*
X7722429Y-15419793D02*
X7722429Y-15372174D01*
X7722429Y-15372174D02*
X7731953Y-15334079D01*
X7731953Y-15334079D02*
X7741477Y-15315031D01*
X7741477Y-15315031D02*
X7751001Y-15305508D01*
X7751001Y-15305508D02*
X7770048Y-15295984D01*
X8017667Y-15295984D02*
X7922429Y-15295984D01*
X7922429Y-15295984D02*
X7912906Y-15391222D01*
X7912906Y-15391222D02*
X7922429Y-15381698D01*
X7922429Y-15381698D02*
X7941477Y-15372174D01*
X7941477Y-15372174D02*
X7989096Y-15372174D01*
X7989096Y-15372174D02*
X8008144Y-15381698D01*
X8008144Y-15381698D02*
X8017667Y-15391222D01*
X8017667Y-15391222D02*
X8027191Y-15410269D01*
X8027191Y-15410269D02*
X8027191Y-15457888D01*
X8027191Y-15457888D02*
X8017667Y-15476936D01*
X8017667Y-15476936D02*
X8008144Y-15486460D01*
X8008144Y-15486460D02*
X7989096Y-15495984D01*
X7989096Y-15495984D02*
X7941477Y-15495984D01*
X7941477Y-15495984D02*
X7922429Y-15486460D01*
X7922429Y-15486460D02*
X7912906Y-15476936D01*
X8122429Y-15495984D02*
X8160525Y-15495984D01*
X8160525Y-15495984D02*
X8179572Y-15486460D01*
X8179572Y-15486460D02*
X8189096Y-15476936D01*
X8189096Y-15476936D02*
X8208144Y-15448365D01*
X8208144Y-15448365D02*
X8217667Y-15410269D01*
X8217667Y-15410269D02*
X8217667Y-15334079D01*
X8217667Y-15334079D02*
X8208144Y-15315031D01*
X8208144Y-15315031D02*
X8198620Y-15305508D01*
X8198620Y-15305508D02*
X8179572Y-15295984D01*
X8179572Y-15295984D02*
X8141477Y-15295984D01*
X8141477Y-15295984D02*
X8122429Y-15305508D01*
X8122429Y-15305508D02*
X8112906Y-15315031D01*
X8112906Y-15315031D02*
X8103382Y-15334079D01*
X8103382Y-15334079D02*
X8103382Y-15381698D01*
X8103382Y-15381698D02*
X8112906Y-15400746D01*
X8112906Y-15400746D02*
X8122429Y-15410269D01*
X8122429Y-15410269D02*
X8141477Y-15419793D01*
X8141477Y-15419793D02*
X8179572Y-15419793D01*
X8179572Y-15419793D02*
X8198620Y-15410269D01*
X8198620Y-15410269D02*
X8208144Y-15400746D01*
X8208144Y-15400746D02*
X8217667Y-15381698D01*
X8408144Y-15495984D02*
X8293858Y-15495984D01*
X8351001Y-15495984D02*
X8351001Y-15295984D01*
X8351001Y-15295984D02*
X8331953Y-15324555D01*
X8331953Y-15324555D02*
X8312906Y-15343603D01*
X8312906Y-15343603D02*
X8293858Y-15353127D01*
X8484334Y-15295984D02*
X8484334Y-15334079D01*
X8560525Y-15295984D02*
X8560525Y-15334079D01*
X8855763Y-15572174D02*
X8846239Y-15562650D01*
X8846239Y-15562650D02*
X8827191Y-15534079D01*
X8827191Y-15534079D02*
X8817668Y-15515031D01*
X8817668Y-15515031D02*
X8808144Y-15486460D01*
X8808144Y-15486460D02*
X8798620Y-15438841D01*
X8798620Y-15438841D02*
X8798620Y-15400746D01*
X8798620Y-15400746D02*
X8808144Y-15353127D01*
X8808144Y-15353127D02*
X8817668Y-15324555D01*
X8817668Y-15324555D02*
X8827191Y-15305508D01*
X8827191Y-15305508D02*
X8846239Y-15276936D01*
X8846239Y-15276936D02*
X8855763Y-15267412D01*
X8970049Y-15295984D02*
X8989096Y-15295984D01*
X8989096Y-15295984D02*
X9008144Y-15305508D01*
X9008144Y-15305508D02*
X9017668Y-15315031D01*
X9017668Y-15315031D02*
X9027191Y-15334079D01*
X9027191Y-15334079D02*
X9036715Y-15372174D01*
X9036715Y-15372174D02*
X9036715Y-15419793D01*
X9036715Y-15419793D02*
X9027191Y-15457888D01*
X9027191Y-15457888D02*
X9017668Y-15476936D01*
X9017668Y-15476936D02*
X9008144Y-15486460D01*
X9008144Y-15486460D02*
X8989096Y-15495984D01*
X8989096Y-15495984D02*
X8970049Y-15495984D01*
X8970049Y-15495984D02*
X8951001Y-15486460D01*
X8951001Y-15486460D02*
X8941477Y-15476936D01*
X8941477Y-15476936D02*
X8931953Y-15457888D01*
X8931953Y-15457888D02*
X8922430Y-15419793D01*
X8922430Y-15419793D02*
X8922430Y-15372174D01*
X8922430Y-15372174D02*
X8931953Y-15334079D01*
X8931953Y-15334079D02*
X8941477Y-15315031D01*
X8941477Y-15315031D02*
X8951001Y-15305508D01*
X8951001Y-15305508D02*
X8970049Y-15295984D01*
X9274811Y-15495984D02*
X9274811Y-15295984D01*
X9360525Y-15495984D02*
X9360525Y-15391222D01*
X9360525Y-15391222D02*
X9351001Y-15372174D01*
X9351001Y-15372174D02*
X9331953Y-15362650D01*
X9331953Y-15362650D02*
X9303382Y-15362650D01*
X9303382Y-15362650D02*
X9284334Y-15372174D01*
X9284334Y-15372174D02*
X9274811Y-15381698D01*
X9484334Y-15495984D02*
X9465287Y-15486460D01*
X9465287Y-15486460D02*
X9455763Y-15476936D01*
X9455763Y-15476936D02*
X9446239Y-15457888D01*
X9446239Y-15457888D02*
X9446239Y-15400746D01*
X9446239Y-15400746D02*
X9455763Y-15381698D01*
X9455763Y-15381698D02*
X9465287Y-15372174D01*
X9465287Y-15372174D02*
X9484334Y-15362650D01*
X9484334Y-15362650D02*
X9512906Y-15362650D01*
X9512906Y-15362650D02*
X9531953Y-15372174D01*
X9531953Y-15372174D02*
X9541477Y-15381698D01*
X9541477Y-15381698D02*
X9551001Y-15400746D01*
X9551001Y-15400746D02*
X9551001Y-15457888D01*
X9551001Y-15457888D02*
X9541477Y-15476936D01*
X9541477Y-15476936D02*
X9531953Y-15486460D01*
X9531953Y-15486460D02*
X9512906Y-15495984D01*
X9512906Y-15495984D02*
X9484334Y-15495984D01*
X9665287Y-15495984D02*
X9646239Y-15486460D01*
X9646239Y-15486460D02*
X9636715Y-15467412D01*
X9636715Y-15467412D02*
X9636715Y-15295984D01*
X9817668Y-15486460D02*
X9798620Y-15495984D01*
X9798620Y-15495984D02*
X9760525Y-15495984D01*
X9760525Y-15495984D02*
X9741477Y-15486460D01*
X9741477Y-15486460D02*
X9731953Y-15467412D01*
X9731953Y-15467412D02*
X9731953Y-15391222D01*
X9731953Y-15391222D02*
X9741477Y-15372174D01*
X9741477Y-15372174D02*
X9760525Y-15362650D01*
X9760525Y-15362650D02*
X9798620Y-15362650D01*
X9798620Y-15362650D02*
X9817668Y-15372174D01*
X9817668Y-15372174D02*
X9827192Y-15391222D01*
X9827192Y-15391222D02*
X9827192Y-15410269D01*
X9827192Y-15410269D02*
X9731953Y-15429317D01*
X9903382Y-15486460D02*
X9922430Y-15495984D01*
X9922430Y-15495984D02*
X9960525Y-15495984D01*
X9960525Y-15495984D02*
X9979573Y-15486460D01*
X9979573Y-15486460D02*
X9989096Y-15467412D01*
X9989096Y-15467412D02*
X9989096Y-15457888D01*
X9989096Y-15457888D02*
X9979573Y-15438841D01*
X9979573Y-15438841D02*
X9960525Y-15429317D01*
X9960525Y-15429317D02*
X9931953Y-15429317D01*
X9931953Y-15429317D02*
X9912906Y-15419793D01*
X9912906Y-15419793D02*
X9903382Y-15400746D01*
X9903382Y-15400746D02*
X9903382Y-15391222D01*
X9903382Y-15391222D02*
X9912906Y-15372174D01*
X9912906Y-15372174D02*
X9931953Y-15362650D01*
X9931953Y-15362650D02*
X9960525Y-15362650D01*
X9960525Y-15362650D02*
X9979573Y-15372174D01*
X10227192Y-15419793D02*
X10379573Y-15419793D01*
X10303382Y-15495984D02*
X10303382Y-15343603D01*
X10617668Y-15315031D02*
X10627192Y-15305508D01*
X10627192Y-15305508D02*
X10646239Y-15295984D01*
X10646239Y-15295984D02*
X10693858Y-15295984D01*
X10693858Y-15295984D02*
X10712906Y-15305508D01*
X10712906Y-15305508D02*
X10722430Y-15315031D01*
X10722430Y-15315031D02*
X10731954Y-15334079D01*
X10731954Y-15334079D02*
X10731954Y-15353127D01*
X10731954Y-15353127D02*
X10722430Y-15381698D01*
X10722430Y-15381698D02*
X10608144Y-15495984D01*
X10608144Y-15495984D02*
X10731954Y-15495984D01*
X10960525Y-15486460D02*
X10979573Y-15495984D01*
X10979573Y-15495984D02*
X11017668Y-15495984D01*
X11017668Y-15495984D02*
X11036716Y-15486460D01*
X11036716Y-15486460D02*
X11046239Y-15467412D01*
X11046239Y-15467412D02*
X11046239Y-15457888D01*
X11046239Y-15457888D02*
X11036716Y-15438841D01*
X11036716Y-15438841D02*
X11017668Y-15429317D01*
X11017668Y-15429317D02*
X10989096Y-15429317D01*
X10989096Y-15429317D02*
X10970049Y-15419793D01*
X10970049Y-15419793D02*
X10960525Y-15400746D01*
X10960525Y-15400746D02*
X10960525Y-15391222D01*
X10960525Y-15391222D02*
X10970049Y-15372174D01*
X10970049Y-15372174D02*
X10989096Y-15362650D01*
X10989096Y-15362650D02*
X11017668Y-15362650D01*
X11017668Y-15362650D02*
X11036716Y-15372174D01*
X11160525Y-15495984D02*
X11141477Y-15486460D01*
X11141477Y-15486460D02*
X11131954Y-15467412D01*
X11131954Y-15467412D02*
X11131954Y-15295984D01*
X11265287Y-15495984D02*
X11246239Y-15486460D01*
X11246239Y-15486460D02*
X11236715Y-15476936D01*
X11236715Y-15476936D02*
X11227192Y-15457888D01*
X11227192Y-15457888D02*
X11227192Y-15400746D01*
X11227192Y-15400746D02*
X11236715Y-15381698D01*
X11236715Y-15381698D02*
X11246239Y-15372174D01*
X11246239Y-15372174D02*
X11265287Y-15362650D01*
X11265287Y-15362650D02*
X11293858Y-15362650D01*
X11293858Y-15362650D02*
X11312906Y-15372174D01*
X11312906Y-15372174D02*
X11322430Y-15381698D01*
X11322430Y-15381698D02*
X11331954Y-15400746D01*
X11331954Y-15400746D02*
X11331954Y-15457888D01*
X11331954Y-15457888D02*
X11322430Y-15476936D01*
X11322430Y-15476936D02*
X11312906Y-15486460D01*
X11312906Y-15486460D02*
X11293858Y-15495984D01*
X11293858Y-15495984D02*
X11265287Y-15495984D01*
X11389096Y-15362650D02*
X11465287Y-15362650D01*
X11417668Y-15295984D02*
X11417668Y-15467412D01*
X11417668Y-15467412D02*
X11427192Y-15486460D01*
X11427192Y-15486460D02*
X11446239Y-15495984D01*
X11446239Y-15495984D02*
X11465287Y-15495984D01*
X11522430Y-15486460D02*
X11541477Y-15495984D01*
X11541477Y-15495984D02*
X11579573Y-15495984D01*
X11579573Y-15495984D02*
X11598620Y-15486460D01*
X11598620Y-15486460D02*
X11608144Y-15467412D01*
X11608144Y-15467412D02*
X11608144Y-15457888D01*
X11608144Y-15457888D02*
X11598620Y-15438841D01*
X11598620Y-15438841D02*
X11579573Y-15429317D01*
X11579573Y-15429317D02*
X11551001Y-15429317D01*
X11551001Y-15429317D02*
X11531954Y-15419793D01*
X11531954Y-15419793D02*
X11522430Y-15400746D01*
X11522430Y-15400746D02*
X11522430Y-15391222D01*
X11522430Y-15391222D02*
X11531954Y-15372174D01*
X11531954Y-15372174D02*
X11551001Y-15362650D01*
X11551001Y-15362650D02*
X11579573Y-15362650D01*
X11579573Y-15362650D02*
X11598620Y-15372174D01*
X11674811Y-15572174D02*
X11684335Y-15562650D01*
X11684335Y-15562650D02*
X11703382Y-15534079D01*
X11703382Y-15534079D02*
X11712906Y-15515031D01*
X11712906Y-15515031D02*
X11722430Y-15486460D01*
X11722430Y-15486460D02*
X11731954Y-15438841D01*
X11731954Y-15438841D02*
X11731954Y-15400746D01*
X11731954Y-15400746D02*
X11722430Y-15353127D01*
X11722430Y-15353127D02*
X11712906Y-15324555D01*
X11712906Y-15324555D02*
X11703382Y-15305508D01*
X11703382Y-15305508D02*
X11684335Y-15276936D01*
X11684335Y-15276936D02*
X11674811Y-15267412D01*
D14*
X5204500Y-15750700D02*
X5280700Y-15674500D01*
X5204500Y-15598300D01*
X5128300Y-15674500D01*
X5204500Y-15750700D01*
D11*
X5646239Y-15765984D02*
X5531953Y-15765984D01*
X5589096Y-15765984D02*
X5589096Y-15565984D01*
X5589096Y-15565984D02*
X5570048Y-15594555D01*
X5570048Y-15594555D02*
X5551001Y-15613603D01*
X5551001Y-15613603D02*
X5531953Y-15623127D01*
X5731953Y-15746936D02*
X5741477Y-15756460D01*
X5741477Y-15756460D02*
X5731953Y-15765984D01*
X5731953Y-15765984D02*
X5722429Y-15756460D01*
X5722429Y-15756460D02*
X5731953Y-15746936D01*
X5731953Y-15746936D02*
X5731953Y-15765984D01*
X5922429Y-15565984D02*
X5827191Y-15565984D01*
X5827191Y-15565984D02*
X5817667Y-15661222D01*
X5817667Y-15661222D02*
X5827191Y-15651698D01*
X5827191Y-15651698D02*
X5846239Y-15642174D01*
X5846239Y-15642174D02*
X5893858Y-15642174D01*
X5893858Y-15642174D02*
X5912905Y-15651698D01*
X5912905Y-15651698D02*
X5922429Y-15661222D01*
X5922429Y-15661222D02*
X5931953Y-15680269D01*
X5931953Y-15680269D02*
X5931953Y-15727888D01*
X5931953Y-15727888D02*
X5922429Y-15746936D01*
X5922429Y-15746936D02*
X5912905Y-15756460D01*
X5912905Y-15756460D02*
X5893858Y-15765984D01*
X5893858Y-15765984D02*
X5846239Y-15765984D01*
X5846239Y-15765984D02*
X5827191Y-15756460D01*
X5827191Y-15756460D02*
X5817667Y-15746936D01*
X6008143Y-15585031D02*
X6017667Y-15575508D01*
X6017667Y-15575508D02*
X6036715Y-15565984D01*
X6036715Y-15565984D02*
X6084334Y-15565984D01*
X6084334Y-15565984D02*
X6103382Y-15575508D01*
X6103382Y-15575508D02*
X6112905Y-15585031D01*
X6112905Y-15585031D02*
X6122429Y-15604079D01*
X6122429Y-15604079D02*
X6122429Y-15623127D01*
X6122429Y-15623127D02*
X6112905Y-15651698D01*
X6112905Y-15651698D02*
X5998620Y-15765984D01*
X5998620Y-15765984D02*
X6122429Y-15765984D01*
X6293858Y-15632650D02*
X6293858Y-15765984D01*
X6246239Y-15556460D02*
X6198620Y-15699317D01*
X6198620Y-15699317D02*
X6322429Y-15699317D01*
X6398620Y-15765984D02*
X6398620Y-15632650D01*
X6398620Y-15651698D02*
X6408143Y-15642174D01*
X6408143Y-15642174D02*
X6427191Y-15632650D01*
X6427191Y-15632650D02*
X6455763Y-15632650D01*
X6455763Y-15632650D02*
X6474810Y-15642174D01*
X6474810Y-15642174D02*
X6484334Y-15661222D01*
X6484334Y-15661222D02*
X6484334Y-15765984D01*
X6484334Y-15661222D02*
X6493858Y-15642174D01*
X6493858Y-15642174D02*
X6512905Y-15632650D01*
X6512905Y-15632650D02*
X6541477Y-15632650D01*
X6541477Y-15632650D02*
X6560524Y-15642174D01*
X6560524Y-15642174D02*
X6570048Y-15661222D01*
X6570048Y-15661222D02*
X6570048Y-15765984D01*
X6665286Y-15765984D02*
X6665286Y-15632650D01*
X6665286Y-15651698D02*
X6674810Y-15642174D01*
X6674810Y-15642174D02*
X6693858Y-15632650D01*
X6693858Y-15632650D02*
X6722429Y-15632650D01*
X6722429Y-15632650D02*
X6741477Y-15642174D01*
X6741477Y-15642174D02*
X6751001Y-15661222D01*
X6751001Y-15661222D02*
X6751001Y-15765984D01*
X6751001Y-15661222D02*
X6760524Y-15642174D01*
X6760524Y-15642174D02*
X6779572Y-15632650D01*
X6779572Y-15632650D02*
X6808143Y-15632650D01*
X6808143Y-15632650D02*
X6827191Y-15642174D01*
X6827191Y-15642174D02*
X6836715Y-15661222D01*
X6836715Y-15661222D02*
X6836715Y-15765984D01*
X7227191Y-15556460D02*
X7055763Y-15813603D01*
X7484334Y-15565984D02*
X7503382Y-15565984D01*
X7503382Y-15565984D02*
X7522429Y-15575508D01*
X7522429Y-15575508D02*
X7531953Y-15585031D01*
X7531953Y-15585031D02*
X7541477Y-15604079D01*
X7541477Y-15604079D02*
X7551001Y-15642174D01*
X7551001Y-15642174D02*
X7551001Y-15689793D01*
X7551001Y-15689793D02*
X7541477Y-15727888D01*
X7541477Y-15727888D02*
X7531953Y-15746936D01*
X7531953Y-15746936D02*
X7522429Y-15756460D01*
X7522429Y-15756460D02*
X7503382Y-15765984D01*
X7503382Y-15765984D02*
X7484334Y-15765984D01*
X7484334Y-15765984D02*
X7465286Y-15756460D01*
X7465286Y-15756460D02*
X7455763Y-15746936D01*
X7455763Y-15746936D02*
X7446239Y-15727888D01*
X7446239Y-15727888D02*
X7436715Y-15689793D01*
X7436715Y-15689793D02*
X7436715Y-15642174D01*
X7436715Y-15642174D02*
X7446239Y-15604079D01*
X7446239Y-15604079D02*
X7455763Y-15585031D01*
X7455763Y-15585031D02*
X7465286Y-15575508D01*
X7465286Y-15575508D02*
X7484334Y-15565984D01*
X7636715Y-15746936D02*
X7646239Y-15756460D01*
X7646239Y-15756460D02*
X7636715Y-15765984D01*
X7636715Y-15765984D02*
X7627191Y-15756460D01*
X7627191Y-15756460D02*
X7636715Y-15746936D01*
X7636715Y-15746936D02*
X7636715Y-15765984D01*
X7770048Y-15565984D02*
X7789096Y-15565984D01*
X7789096Y-15565984D02*
X7808144Y-15575508D01*
X7808144Y-15575508D02*
X7817667Y-15585031D01*
X7817667Y-15585031D02*
X7827191Y-15604079D01*
X7827191Y-15604079D02*
X7836715Y-15642174D01*
X7836715Y-15642174D02*
X7836715Y-15689793D01*
X7836715Y-15689793D02*
X7827191Y-15727888D01*
X7827191Y-15727888D02*
X7817667Y-15746936D01*
X7817667Y-15746936D02*
X7808144Y-15756460D01*
X7808144Y-15756460D02*
X7789096Y-15765984D01*
X7789096Y-15765984D02*
X7770048Y-15765984D01*
X7770048Y-15765984D02*
X7751001Y-15756460D01*
X7751001Y-15756460D02*
X7741477Y-15746936D01*
X7741477Y-15746936D02*
X7731953Y-15727888D01*
X7731953Y-15727888D02*
X7722429Y-15689793D01*
X7722429Y-15689793D02*
X7722429Y-15642174D01*
X7722429Y-15642174D02*
X7731953Y-15604079D01*
X7731953Y-15604079D02*
X7741477Y-15585031D01*
X7741477Y-15585031D02*
X7751001Y-15575508D01*
X7751001Y-15575508D02*
X7770048Y-15565984D01*
X8008144Y-15565984D02*
X7970048Y-15565984D01*
X7970048Y-15565984D02*
X7951001Y-15575508D01*
X7951001Y-15575508D02*
X7941477Y-15585031D01*
X7941477Y-15585031D02*
X7922429Y-15613603D01*
X7922429Y-15613603D02*
X7912906Y-15651698D01*
X7912906Y-15651698D02*
X7912906Y-15727888D01*
X7912906Y-15727888D02*
X7922429Y-15746936D01*
X7922429Y-15746936D02*
X7931953Y-15756460D01*
X7931953Y-15756460D02*
X7951001Y-15765984D01*
X7951001Y-15765984D02*
X7989096Y-15765984D01*
X7989096Y-15765984D02*
X8008144Y-15756460D01*
X8008144Y-15756460D02*
X8017667Y-15746936D01*
X8017667Y-15746936D02*
X8027191Y-15727888D01*
X8027191Y-15727888D02*
X8027191Y-15680269D01*
X8027191Y-15680269D02*
X8017667Y-15661222D01*
X8017667Y-15661222D02*
X8008144Y-15651698D01*
X8008144Y-15651698D02*
X7989096Y-15642174D01*
X7989096Y-15642174D02*
X7951001Y-15642174D01*
X7951001Y-15642174D02*
X7931953Y-15651698D01*
X7931953Y-15651698D02*
X7922429Y-15661222D01*
X7922429Y-15661222D02*
X7912906Y-15680269D01*
X8151001Y-15565984D02*
X8170048Y-15565984D01*
X8170048Y-15565984D02*
X8189096Y-15575508D01*
X8189096Y-15575508D02*
X8198620Y-15585031D01*
X8198620Y-15585031D02*
X8208144Y-15604079D01*
X8208144Y-15604079D02*
X8217667Y-15642174D01*
X8217667Y-15642174D02*
X8217667Y-15689793D01*
X8217667Y-15689793D02*
X8208144Y-15727888D01*
X8208144Y-15727888D02*
X8198620Y-15746936D01*
X8198620Y-15746936D02*
X8189096Y-15756460D01*
X8189096Y-15756460D02*
X8170048Y-15765984D01*
X8170048Y-15765984D02*
X8151001Y-15765984D01*
X8151001Y-15765984D02*
X8131953Y-15756460D01*
X8131953Y-15756460D02*
X8122429Y-15746936D01*
X8122429Y-15746936D02*
X8112906Y-15727888D01*
X8112906Y-15727888D02*
X8103382Y-15689793D01*
X8103382Y-15689793D02*
X8103382Y-15642174D01*
X8103382Y-15642174D02*
X8112906Y-15604079D01*
X8112906Y-15604079D02*
X8122429Y-15585031D01*
X8122429Y-15585031D02*
X8131953Y-15575508D01*
X8131953Y-15575508D02*
X8151001Y-15565984D01*
X8341477Y-15565984D02*
X8360525Y-15565984D01*
X8360525Y-15565984D02*
X8379572Y-15575508D01*
X8379572Y-15575508D02*
X8389096Y-15585031D01*
X8389096Y-15585031D02*
X8398620Y-15604079D01*
X8398620Y-15604079D02*
X8408144Y-15642174D01*
X8408144Y-15642174D02*
X8408144Y-15689793D01*
X8408144Y-15689793D02*
X8398620Y-15727888D01*
X8398620Y-15727888D02*
X8389096Y-15746936D01*
X8389096Y-15746936D02*
X8379572Y-15756460D01*
X8379572Y-15756460D02*
X8360525Y-15765984D01*
X8360525Y-15765984D02*
X8341477Y-15765984D01*
X8341477Y-15765984D02*
X8322429Y-15756460D01*
X8322429Y-15756460D02*
X8312906Y-15746936D01*
X8312906Y-15746936D02*
X8303382Y-15727888D01*
X8303382Y-15727888D02*
X8293858Y-15689793D01*
X8293858Y-15689793D02*
X8293858Y-15642174D01*
X8293858Y-15642174D02*
X8303382Y-15604079D01*
X8303382Y-15604079D02*
X8312906Y-15585031D01*
X8312906Y-15585031D02*
X8322429Y-15575508D01*
X8322429Y-15575508D02*
X8341477Y-15565984D01*
X8484334Y-15565984D02*
X8484334Y-15604079D01*
X8560525Y-15565984D02*
X8560525Y-15604079D01*
X8855763Y-15842174D02*
X8846239Y-15832650D01*
X8846239Y-15832650D02*
X8827191Y-15804079D01*
X8827191Y-15804079D02*
X8817668Y-15785031D01*
X8817668Y-15785031D02*
X8808144Y-15756460D01*
X8808144Y-15756460D02*
X8798620Y-15708841D01*
X8798620Y-15708841D02*
X8798620Y-15670746D01*
X8798620Y-15670746D02*
X8808144Y-15623127D01*
X8808144Y-15623127D02*
X8817668Y-15594555D01*
X8817668Y-15594555D02*
X8827191Y-15575508D01*
X8827191Y-15575508D02*
X8846239Y-15546936D01*
X8846239Y-15546936D02*
X8855763Y-15537412D01*
X9036715Y-15765984D02*
X8922430Y-15765984D01*
X8979572Y-15765984D02*
X8979572Y-15565984D01*
X8979572Y-15565984D02*
X8960525Y-15594555D01*
X8960525Y-15594555D02*
X8941477Y-15613603D01*
X8941477Y-15613603D02*
X8922430Y-15623127D01*
X9112906Y-15585031D02*
X9122430Y-15575508D01*
X9122430Y-15575508D02*
X9141477Y-15565984D01*
X9141477Y-15565984D02*
X9189096Y-15565984D01*
X9189096Y-15565984D02*
X9208144Y-15575508D01*
X9208144Y-15575508D02*
X9217668Y-15585031D01*
X9217668Y-15585031D02*
X9227191Y-15604079D01*
X9227191Y-15604079D02*
X9227191Y-15623127D01*
X9227191Y-15623127D02*
X9217668Y-15651698D01*
X9217668Y-15651698D02*
X9103382Y-15765984D01*
X9103382Y-15765984D02*
X9227191Y-15765984D01*
X9465287Y-15765984D02*
X9465287Y-15565984D01*
X9551001Y-15765984D02*
X9551001Y-15661222D01*
X9551001Y-15661222D02*
X9541477Y-15642174D01*
X9541477Y-15642174D02*
X9522430Y-15632650D01*
X9522430Y-15632650D02*
X9493858Y-15632650D01*
X9493858Y-15632650D02*
X9474811Y-15642174D01*
X9474811Y-15642174D02*
X9465287Y-15651698D01*
X9674811Y-15765984D02*
X9655763Y-15756460D01*
X9655763Y-15756460D02*
X9646239Y-15746936D01*
X9646239Y-15746936D02*
X9636715Y-15727888D01*
X9636715Y-15727888D02*
X9636715Y-15670746D01*
X9636715Y-15670746D02*
X9646239Y-15651698D01*
X9646239Y-15651698D02*
X9655763Y-15642174D01*
X9655763Y-15642174D02*
X9674811Y-15632650D01*
X9674811Y-15632650D02*
X9703382Y-15632650D01*
X9703382Y-15632650D02*
X9722430Y-15642174D01*
X9722430Y-15642174D02*
X9731953Y-15651698D01*
X9731953Y-15651698D02*
X9741477Y-15670746D01*
X9741477Y-15670746D02*
X9741477Y-15727888D01*
X9741477Y-15727888D02*
X9731953Y-15746936D01*
X9731953Y-15746936D02*
X9722430Y-15756460D01*
X9722430Y-15756460D02*
X9703382Y-15765984D01*
X9703382Y-15765984D02*
X9674811Y-15765984D01*
X9855763Y-15765984D02*
X9836715Y-15756460D01*
X9836715Y-15756460D02*
X9827192Y-15737412D01*
X9827192Y-15737412D02*
X9827192Y-15565984D01*
X10008144Y-15756460D02*
X9989096Y-15765984D01*
X9989096Y-15765984D02*
X9951001Y-15765984D01*
X9951001Y-15765984D02*
X9931953Y-15756460D01*
X9931953Y-15756460D02*
X9922430Y-15737412D01*
X9922430Y-15737412D02*
X9922430Y-15661222D01*
X9922430Y-15661222D02*
X9931953Y-15642174D01*
X9931953Y-15642174D02*
X9951001Y-15632650D01*
X9951001Y-15632650D02*
X9989096Y-15632650D01*
X9989096Y-15632650D02*
X10008144Y-15642174D01*
X10008144Y-15642174D02*
X10017668Y-15661222D01*
X10017668Y-15661222D02*
X10017668Y-15680269D01*
X10017668Y-15680269D02*
X9922430Y-15699317D01*
X10093858Y-15756460D02*
X10112906Y-15765984D01*
X10112906Y-15765984D02*
X10151001Y-15765984D01*
X10151001Y-15765984D02*
X10170049Y-15756460D01*
X10170049Y-15756460D02*
X10179573Y-15737412D01*
X10179573Y-15737412D02*
X10179573Y-15727888D01*
X10179573Y-15727888D02*
X10170049Y-15708841D01*
X10170049Y-15708841D02*
X10151001Y-15699317D01*
X10151001Y-15699317D02*
X10122430Y-15699317D01*
X10122430Y-15699317D02*
X10103382Y-15689793D01*
X10103382Y-15689793D02*
X10093858Y-15670746D01*
X10093858Y-15670746D02*
X10093858Y-15661222D01*
X10093858Y-15661222D02*
X10103382Y-15642174D01*
X10103382Y-15642174D02*
X10122430Y-15632650D01*
X10122430Y-15632650D02*
X10151001Y-15632650D01*
X10151001Y-15632650D02*
X10170049Y-15642174D01*
X10246239Y-15842174D02*
X10255763Y-15832650D01*
X10255763Y-15832650D02*
X10274811Y-15804079D01*
X10274811Y-15804079D02*
X10284334Y-15785031D01*
X10284334Y-15785031D02*
X10293858Y-15756460D01*
X10293858Y-15756460D02*
X10303382Y-15708841D01*
X10303382Y-15708841D02*
X10303382Y-15670746D01*
X10303382Y-15670746D02*
X10293858Y-15623127D01*
X10293858Y-15623127D02*
X10284334Y-15594555D01*
X10284334Y-15594555D02*
X10274811Y-15575508D01*
X10274811Y-15575508D02*
X10255763Y-15546936D01*
X10255763Y-15546936D02*
X10246239Y-15537412D01*
M02*
