%TF.GenerationSoftware,KiCad,Pcbnew,8.0.6*%
%TF.CreationDate,2024-10-22T23:25:17+01:00*%
%TF.ProjectId,hello22,68656c6c-6f32-4322-9e6b-696361645f70,rev?*%
%TF.SameCoordinates,Original*%
%TF.FileFunction,Plated,1,2,PTH,Mixed*%
%TF.FilePolarity,Positive*%
%FSLAX46Y46*%
G04 Gerber Fmt 4.6, Leading zero omitted, Abs format (unit mm)*
G04 Created by KiCad (PCBNEW 8.0.6) date 2024-10-22 23:25:17*
%MOMM*%
%LPD*%
G01*
G04 APERTURE LIST*
%TA.AperFunction,ViaDrill*%
%ADD10C,0.300000*%
%TD*%
%TA.AperFunction,ComponentDrill*%
%ADD11C,0.800000*%
%TD*%
%TA.AperFunction,ComponentDrill*%
%ADD12C,1.000000*%
%TD*%
G04 aperture for slot hole*
%TA.AperFunction,ComponentDrill*%
%ADD13C,1.500000*%
%TD*%
%TA.AperFunction,ComponentDrill*%
%ADD14C,1.524000*%
%TD*%
G04 APERTURE END LIST*
D10*
X80772000Y-104648000D03*
X80772000Y-107442000D03*
X92202000Y-114808000D03*
D11*
%TO.C,D2*%
X67564000Y-114427000D03*
X75184000Y-114427000D03*
%TO.C,D1*%
X75717400Y-125984000D03*
X75717400Y-133604000D03*
%TO.C,D6*%
X95046800Y-126034800D03*
X95046800Y-133654800D03*
%TO.C,D5*%
X99847400Y-114274600D03*
X107467400Y-114274600D03*
%TO.C,D8*%
X114223800Y-126034800D03*
X114223800Y-133654800D03*
%TO.C,D7*%
X114274600Y-106807000D03*
X114274600Y-114427000D03*
%TO.C,D9*%
X133350000Y-125984000D03*
X133350000Y-133604000D03*
D12*
%TO.C,SW5*%
X59875000Y-103550000D03*
X59875000Y-106050000D03*
X59875000Y-108550000D03*
X74375000Y-103550000D03*
X74375000Y-108550000D03*
%TO.C,U1*%
X78984000Y-99263200D03*
X78984000Y-101803200D03*
X78984000Y-104343200D03*
X78984000Y-106883200D03*
X78984000Y-109423200D03*
X78984000Y-111963200D03*
X78984000Y-114503200D03*
X94234000Y-99263200D03*
X94234000Y-101803200D03*
X94234000Y-104343200D03*
X94234000Y-106883200D03*
X94234000Y-109423200D03*
X94234000Y-111963200D03*
X94234000Y-114503200D03*
%TO.C,U2*%
X152365000Y-102180000D03*
X152365000Y-104720000D03*
X152365000Y-107260000D03*
X152365000Y-109800000D03*
D13*
%TO.C,SW5*%
X68025000Y-100450000D02*
X66725000Y-100450000D01*
X68025000Y-111650000D02*
X66725000Y-111650000D01*
D14*
%TO.C,SW1*%
X63565000Y-122585000D03*
X69915000Y-120045000D03*
%TO.C,SW2*%
X82815000Y-103335000D03*
%TO.C,SW3*%
X82815000Y-122585000D03*
%TO.C,SW2*%
X89165000Y-100795000D03*
%TO.C,SW3*%
X89165000Y-120045000D03*
%TO.C,SW4*%
X102065000Y-103335000D03*
%TO.C,SW6*%
X102065000Y-122585000D03*
%TO.C,SW4*%
X108415000Y-100795000D03*
%TO.C,SW6*%
X108415000Y-120045000D03*
%TO.C,SW7*%
X121315000Y-122585000D03*
X127665000Y-120045000D03*
M02*
