%TF.GenerationSoftware,KiCad,Pcbnew,8.99.0-3401-ge9e4e7a3ff*%
%TF.CreationDate,2025-02-25T13:13:07+01:00*%
%TF.ProjectId,hackpad,6861636b-7061-4642-9e6b-696361645f70,rev?*%
%TF.SameCoordinates,Original*%
%TF.FileFunction,Soldermask,Top*%
%TF.FilePolarity,Negative*%
%FSLAX46Y46*%
G04 Gerber Fmt 4.6, Leading zero omitted, Abs format (unit mm)*
G04 Created by KiCad (PCBNEW 8.99.0-3401-ge9e4e7a3ff) date 2025-02-25 13:13:07*
%MOMM*%
%LPD*%
G01*
G04 APERTURE LIST*
G04 Aperture macros list*
%AMRoundRect*
0 Rectangle with rounded corners*
0 $1 Rounding radius*
0 $2 $3 $4 $5 $6 $7 $8 $9 X,Y pos of 4 corners*
0 Add a 4 corners polygon primitive as box body*
4,1,4,$2,$3,$4,$5,$6,$7,$8,$9,$2,$3,0*
0 Add four circle primitives for the rounded corners*
1,1,$1+$1,$2,$3*
1,1,$1+$1,$4,$5*
1,1,$1+$1,$6,$7*
1,1,$1+$1,$8,$9*
0 Add four rect primitives between the rounded corners*
20,1,$1+$1,$2,$3,$4,$5,0*
20,1,$1+$1,$4,$5,$6,$7,0*
20,1,$1+$1,$6,$7,$8,$9,0*
20,1,$1+$1,$8,$9,$2,$3,0*%
G04 Aperture macros list end*
%ADD10C,1.700000*%
%ADD11C,4.000000*%
%ADD12C,2.200000*%
%ADD13R,0.850000X0.850000*%
%ADD14R,1.600000X1.600000*%
%ADD15O,1.600000X1.600000*%
%ADD16R,1.600000X0.850000*%
%ADD17RoundRect,0.152400X1.063600X0.609600X-1.063600X0.609600X-1.063600X-0.609600X1.063600X-0.609600X0*%
%ADD18C,1.524000*%
%ADD19RoundRect,0.152400X-1.063600X-0.609600X1.063600X-0.609600X1.063600X0.609600X-1.063600X0.609600X0*%
%ADD20R,2.000000X2.000000*%
%ADD21C,2.000000*%
%ADD22R,3.200000X2.000000*%
G04 APERTURE END LIST*
D10*
%TO.C,SW2*%
X113823750Y-64611250D03*
D11*
X118903750Y-64611250D03*
D10*
X123983750Y-64611250D03*
D12*
X121443750Y-59531250D03*
X115093750Y-62071250D03*
%TD*%
D13*
%TO.C,J3*%
X42303750Y-44111250D03*
%TD*%
D14*
%TO.C,D12*%
X52228726Y-95329404D03*
D15*
X52228726Y-102949404D03*
%TD*%
D10*
%TO.C,SW5*%
X75723750Y-45561250D03*
D11*
X80803750Y-45561250D03*
D10*
X85883750Y-45561250D03*
D12*
X83343750Y-40481250D03*
X76993750Y-43021250D03*
%TD*%
D16*
%TO.C,D20*%
X57622482Y-99455030D03*
X57622482Y-101205030D03*
X61122482Y-101205030D03*
X61122482Y-99455030D03*
%TD*%
D14*
%TO.C,D10*%
X71278742Y-87471266D03*
D15*
X71278742Y-79851266D03*
%TD*%
D13*
%TO.C,J2*%
X57586543Y-95567526D03*
%TD*%
%TO.C,J1*%
X42303750Y-42111250D03*
%TD*%
D16*
%TO.C,D15*%
X95127201Y-33375287D03*
X95127201Y-35125287D03*
X98627201Y-35125287D03*
X98627201Y-33375287D03*
%TD*%
%TO.C,D17*%
X81435002Y-85167518D03*
X81435002Y-86917518D03*
X84935002Y-86917518D03*
X84935002Y-85167518D03*
%TD*%
D10*
%TO.C,SW11*%
X37623750Y-83661250D03*
D11*
X42703750Y-83661250D03*
D10*
X47783750Y-83661250D03*
D12*
X45243750Y-78581250D03*
X38893750Y-81121250D03*
%TD*%
D16*
%TO.C,D19*%
X81435002Y-99455030D03*
X81435002Y-101205030D03*
X84935002Y-101205030D03*
X84935002Y-99455030D03*
%TD*%
D10*
%TO.C,SW7*%
X94773750Y-64611250D03*
D11*
X99853750Y-64611250D03*
D10*
X104933750Y-64611250D03*
D12*
X102393750Y-59531250D03*
X96043750Y-62071250D03*
%TD*%
D10*
%TO.C,SW10*%
X56673750Y-83661250D03*
D11*
X61753750Y-83661250D03*
D10*
X66833750Y-83661250D03*
D12*
X64293750Y-78581250D03*
X57943750Y-81121250D03*
%TD*%
D16*
%TO.C,D18*%
X95722514Y-99455030D03*
X95722514Y-101205030D03*
X99222514Y-101205030D03*
X99222514Y-99455030D03*
%TD*%
%TO.C,D16*%
X95722514Y-85167518D03*
X95722514Y-86917518D03*
X99222514Y-86917518D03*
X99222514Y-85167518D03*
%TD*%
D17*
%TO.C,U1*%
X51295000Y-33011250D03*
D18*
X52130000Y-33011250D03*
D17*
X51295000Y-35551250D03*
D18*
X52130000Y-35551250D03*
D17*
X51295000Y-38091250D03*
D18*
X52130000Y-38091250D03*
D17*
X51295000Y-40631250D03*
D18*
X52130000Y-40631250D03*
D17*
X51295000Y-43171250D03*
D18*
X52130000Y-43171250D03*
D17*
X51295000Y-45711250D03*
D18*
X52130000Y-45711250D03*
D17*
X51295000Y-48251250D03*
D18*
X52130000Y-48251250D03*
X67370000Y-48251250D03*
D19*
X68205000Y-48251250D03*
D18*
X67370000Y-45711250D03*
D19*
X68205000Y-45711250D03*
D18*
X67370000Y-43171250D03*
D19*
X68205000Y-43171250D03*
D18*
X67370000Y-40631250D03*
D19*
X68205000Y-40631250D03*
D18*
X67370000Y-38091250D03*
D19*
X68205000Y-38091250D03*
D18*
X67370000Y-35551250D03*
D19*
X68205000Y-35551250D03*
D18*
X67370000Y-33011250D03*
D19*
X68205000Y-33011250D03*
%TD*%
D10*
%TO.C,SW8*%
X75723750Y-64611250D03*
D11*
X80803750Y-64611250D03*
D10*
X85883750Y-64611250D03*
D12*
X83343750Y-59531250D03*
X76993750Y-62071250D03*
%TD*%
D16*
%TO.C,D13*%
X42303750Y-49111250D03*
X42303750Y-50861250D03*
X45803750Y-50861250D03*
X45803750Y-49111250D03*
%TD*%
D20*
%TO.C,SW3*%
X93153750Y-43061250D03*
D21*
X93153750Y-48061250D03*
X93153750Y-45561250D03*
D22*
X100653750Y-39961250D03*
X100653750Y-51161250D03*
D21*
X107653750Y-48061250D03*
X107653750Y-43061250D03*
%TD*%
D14*
%TO.C,D11*%
X52228726Y-87471266D03*
D15*
X52228726Y-79851266D03*
%TD*%
D10*
%TO.C,SW12*%
X37623750Y-102711250D03*
D11*
X42703750Y-102711250D03*
D10*
X47783750Y-102711250D03*
D12*
X45243750Y-97631250D03*
X38893750Y-100171250D03*
%TD*%
D10*
%TO.C,SW9*%
X56673750Y-64611250D03*
D11*
X61753750Y-64611250D03*
D10*
X66833750Y-64611250D03*
D12*
X64293750Y-59531250D03*
X57943750Y-62071250D03*
%TD*%
D10*
%TO.C,SW1*%
X113823750Y-45561250D03*
D11*
X118903750Y-45561250D03*
D10*
X123983750Y-45561250D03*
D12*
X121443750Y-40481250D03*
X115093750Y-43021250D03*
%TD*%
D16*
%TO.C,D14*%
X102902209Y-33375287D03*
X102902209Y-35125287D03*
X106402209Y-35125287D03*
X106402209Y-33375287D03*
%TD*%
D10*
%TO.C,SW6*%
X113820000Y-83642500D03*
D11*
X118900000Y-83642500D03*
D10*
X123980000Y-83642500D03*
D12*
X121440000Y-78562500D03*
X115090000Y-81102500D03*
%TD*%
D10*
%TO.C,SW4*%
X113820000Y-102692500D03*
D11*
X118900000Y-102692500D03*
D10*
X123980000Y-102692500D03*
D12*
X121440000Y-97612500D03*
X115090000Y-100152500D03*
%TD*%
D14*
%TO.C,D5*%
X90328758Y-49371234D03*
D15*
X90328758Y-41751234D03*
%TD*%
D14*
%TO.C,D6*%
X96043766Y-55086242D03*
D15*
X103663766Y-55086242D03*
%TD*%
D14*
%TO.C,D2*%
X128428790Y-68421250D03*
D15*
X128428790Y-60801250D03*
%TD*%
D14*
%TO.C,D7*%
X109378774Y-58658120D03*
D15*
X109378774Y-66278120D03*
%TD*%
D14*
%TO.C,D8*%
X90328758Y-68421250D03*
D15*
X90328758Y-60801250D03*
%TD*%
D14*
%TO.C,D4*%
X128428790Y-106521282D03*
D15*
X128428790Y-98901282D03*
%TD*%
D14*
%TO.C,D1*%
X128428790Y-49371234D03*
D15*
X128428790Y-41751234D03*
%TD*%
D14*
%TO.C,D9*%
X71278742Y-58658120D03*
D15*
X71278742Y-66278120D03*
%TD*%
D14*
%TO.C,D3*%
X128428790Y-87471266D03*
D15*
X128428790Y-79851266D03*
%TD*%
M02*
