M48
; DRILL file {KiCad 8.99.0-3401-ge9e4e7a3ff} date 2025-02-25T13:13:02+0100
; FORMAT={-:-/ absolute / metric / decimal}
; #@! TF.CreationDate,2025-02-25T13:13:02+01:00
; #@! TF.GenerationSoftware,Kicad,Pcbnew,8.99.0-3401-ge9e4e7a3ff
; #@! TF.FileFunction,NonPlated,1,2,NPTH
FMAT,2
METRIC
; #@! TA.AperFunction,NonPlated,NPTH,ComponentDrill
T1C1.700
; #@! TA.AperFunction,NonPlated,NPTH,ComponentDrill
T2C4.000
%
G90
G05
T1
X37.624Y-83.661
X37.624Y-102.711
X47.784Y-83.661
X47.784Y-102.711
X56.674Y-64.611
X56.674Y-83.661
X66.834Y-64.611
X66.834Y-83.661
X75.724Y-45.561
X75.724Y-64.611
X85.884Y-45.561
X85.884Y-64.611
X94.774Y-64.611
X104.934Y-64.611
X113.82Y-83.642
X113.82Y-102.692
X113.824Y-45.561
X113.824Y-64.611
X123.98Y-83.642
X123.98Y-102.692
X123.984Y-45.561
X123.984Y-64.611
T2
X42.704Y-83.661
X42.704Y-102.711
X61.754Y-64.611
X61.754Y-83.661
X80.804Y-45.561
X80.804Y-64.611
X99.854Y-64.611
X118.9Y-83.642
X118.9Y-102.692
X118.904Y-45.561
X118.904Y-64.611
M30
