M48
; DRILL file {KiCad 8.99.0-3401-ge9e4e7a3ff} date 2025-02-25T13:13:02+0100
; FORMAT={-:-/ absolute / metric / decimal}
; #@! TF.CreationDate,2025-02-25T13:13:02+01:00
; #@! TF.GenerationSoftware,Kicad,Pcbnew,8.99.0-3401-ge9e4e7a3ff
; #@! TF.FileFunction,Plated,1,2,PTH
FMAT,2
METRIC
; #@! TA.AperFunction,Plated,PTH,ViaDrill
T1C0.300
; #@! TA.AperFunction,Plated,PTH,ComponentDrill
T2C0.500
; #@! TA.AperFunction,Plated,PTH,ComponentDrill
T3C0.800
; #@! TA.AperFunction,Plated,PTH,ComponentDrill
T4C0.889
; #@! TA.AperFunction,Plated,PTH,ComponentDrill
T5C1.000
; #@! TA.AperFunction,Plated,PTH,ComponentDrill
T6C1.500
%
G90
G05
T1
X32.804Y-48.611
X34.604Y-36.111
X34.604Y-52.511
X38.004Y-37.211
X38.004Y-42.611
X40.504Y-50.811
X47.604Y-49.111
X49.004Y-40.611
X49.504Y-31.411
X49.704Y-75.611
X65.704Y-54.611
X69.404Y-51.711
X69.404Y-52.711
X69.804Y-54.611
X70.604Y-41.211
X70.904Y-31.811
X71.504Y-45.711
X73.065Y-45.561
X75.604Y-75.611
X76.204Y-50.411
X76.604Y-96.011
X76.604Y-102.611
X78.604Y-101.211
X83.804Y-44.211
X89.904Y-90.711
X90.004Y-33.411
X91.304Y-36.911
X91.804Y-86.511
X92.604Y-55.611
X92.704Y-31.811
X93.104Y-53.711
X93.604Y-101.211
X93.804Y-39.411
X99.504Y-69.211
X99.504Y-74.211
X101.204Y-97.811
X102.504Y-82.411
X106.204Y-53.211
X108.004Y-36.811
X109.304Y-50.611
X109.404Y-76.911
X110.004Y-41.111
X110.504Y-79.611
X111.004Y-50.611
X112.204Y-50.611
X126.643Y-57.467
T2
X42.304Y-42.111
X42.304Y-44.111
X57.587Y-95.568
T3
X52.229Y-79.851
X52.229Y-87.471
X52.229Y-95.329
X52.229Y-102.949
X71.279Y-58.658
X71.279Y-66.278
X71.279Y-79.851
X71.279Y-87.471
X90.329Y-41.751
X90.329Y-49.371
X90.329Y-60.801
X90.329Y-68.421
X96.044Y-55.086
X103.664Y-55.086
X109.379Y-58.658
X109.379Y-66.278
X128.429Y-41.751
X128.429Y-49.371
X128.429Y-60.801
X128.429Y-68.421
X128.429Y-79.851
X128.429Y-87.471
X128.429Y-98.901
X128.429Y-106.521
T4
X52.13Y-33.011
X52.13Y-35.551
X52.13Y-38.091
X52.13Y-40.631
X52.13Y-43.171
X52.13Y-45.711
X52.13Y-48.251
X67.37Y-33.011
X67.37Y-35.551
X67.37Y-38.091
X67.37Y-40.631
X67.37Y-43.171
X67.37Y-45.711
X67.37Y-48.251
T5
X93.154Y-43.061
X93.154Y-45.561
X93.154Y-48.061
X107.654Y-43.061
X107.654Y-48.061
T6
X38.894Y-81.121
X38.894Y-100.171
X45.244Y-78.581
X45.244Y-97.631
X57.944Y-62.071
X57.944Y-81.121
X64.294Y-59.531
X64.294Y-78.581
X76.994Y-43.021
X76.994Y-62.071
X83.344Y-40.481
X83.344Y-59.531
X96.044Y-62.071
X102.394Y-59.531
X115.09Y-81.102
X115.09Y-100.152
X115.094Y-43.021
X115.094Y-62.071
X121.44Y-78.562
X121.44Y-97.612
X121.444Y-40.481
X121.444Y-59.531
T6
G00X100.004Y-39.961
M15
G01X101.304Y-39.961
M16
G05
G00X100.004Y-51.161
M15
G01X101.304Y-51.161
M16
G05
M30
