%TF.GenerationSoftware,KiCad,Pcbnew,8.99.0-3401-ge9e4e7a3ff*%
%TF.CreationDate,2025-02-25T13:13:04+01:00*%
%TF.ProjectId,hackpad,6861636b-7061-4642-9e6b-696361645f70,rev?*%
%TF.SameCoordinates,Original*%
%TF.FileFunction,Drillmap*%
%TF.FilePolarity,Positive*%
%FSLAX45Y45*%
G04 Gerber Fmt 4.5, Leading zero omitted, Abs format (unit mm)*
G04 Created by KiCad (PCBNEW 8.99.0-3401-ge9e4e7a3ff) date 2025-02-25 13:13:04*
%MOMM*%
%LPD*%
G01*
G04 APERTURE LIST*
%ADD10C,0.050000*%
%ADD11C,0.200000*%
%ADD12C,0.170000*%
%ADD13C,0.400000*%
G04 APERTURE END LIST*
D10*
X13200000Y-11300000D02*
G75*
G02*
X13000000Y-11500000I-200000J0D01*
G01*
X13200000Y-11300000D02*
X13200000Y-3200000D01*
X13000000Y-3000000D02*
G75*
G02*
X13200000Y-3200000I0J-200000D01*
G01*
X3400000Y-3000000D02*
X13000000Y-3000000D01*
X3400000Y-11500000D02*
X13000000Y-11500000D01*
X3200000Y-3200000D02*
G75*
G02*
X3400000Y-3000000I200000J0D01*
G01*
X3400000Y-11500000D02*
G75*
G02*
X3200000Y-11300000I0J200000D01*
G01*
X3200000Y-3200000D02*
X3200000Y-11300000D01*
D11*
D12*
X3677375Y-8281125D02*
X3847375Y-8451125D01*
X3847375Y-8281125D02*
X3677375Y-8451125D01*
X3677375Y-10186125D02*
X3847375Y-10356125D01*
X3847375Y-10186125D02*
X3677375Y-10356125D01*
X4693375Y-8281125D02*
X4863375Y-8451125D01*
X4863375Y-8281125D02*
X4693375Y-8451125D01*
X4693375Y-10186125D02*
X4863375Y-10356125D01*
X4863375Y-10186125D02*
X4693375Y-10356125D01*
X5582375Y-6376125D02*
X5752375Y-6546125D01*
X5752375Y-6376125D02*
X5582375Y-6546125D01*
X5582375Y-8281125D02*
X5752375Y-8451125D01*
X5752375Y-8281125D02*
X5582375Y-8451125D01*
X6598375Y-6376125D02*
X6768375Y-6546125D01*
X6768375Y-6376125D02*
X6598375Y-6546125D01*
X6598375Y-8281125D02*
X6768375Y-8451125D01*
X6768375Y-8281125D02*
X6598375Y-8451125D01*
X7487375Y-4471125D02*
X7657375Y-4641125D01*
X7657375Y-4471125D02*
X7487375Y-4641125D01*
X7487375Y-6376125D02*
X7657375Y-6546125D01*
X7657375Y-6376125D02*
X7487375Y-6546125D01*
X8503375Y-4471125D02*
X8673375Y-4641125D01*
X8673375Y-4471125D02*
X8503375Y-4641125D01*
X8503375Y-6376125D02*
X8673375Y-6546125D01*
X8673375Y-6376125D02*
X8503375Y-6546125D01*
X9392375Y-6376125D02*
X9562375Y-6546125D01*
X9562375Y-6376125D02*
X9392375Y-6546125D01*
X10408375Y-6376125D02*
X10578375Y-6546125D01*
X10578375Y-6376125D02*
X10408375Y-6546125D01*
X11297000Y-8279250D02*
X11467000Y-8449250D01*
X11467000Y-8279250D02*
X11297000Y-8449250D01*
X11297000Y-10184250D02*
X11467000Y-10354250D01*
X11467000Y-10184250D02*
X11297000Y-10354250D01*
X11297375Y-4471125D02*
X11467375Y-4641125D01*
X11467375Y-4471125D02*
X11297375Y-4641125D01*
X11297375Y-6376125D02*
X11467375Y-6546125D01*
X11467375Y-6376125D02*
X11297375Y-6546125D01*
X12313000Y-8279250D02*
X12483000Y-8449250D01*
X12483000Y-8279250D02*
X12313000Y-8449250D01*
X12313000Y-10184250D02*
X12483000Y-10354250D01*
X12483000Y-10184250D02*
X12313000Y-10354250D01*
X12313375Y-4471125D02*
X12483375Y-4641125D01*
X12483375Y-4471125D02*
X12313375Y-4641125D01*
X12313375Y-6376125D02*
X12483375Y-6546125D01*
X12483375Y-6376125D02*
X12313375Y-6546125D01*
D13*
X4470375Y-8366125D02*
G75*
G02*
X4070375Y-8366125I-200000J0D01*
G01*
X4070375Y-8366125D02*
G75*
G02*
X4470375Y-8366125I200000J0D01*
G01*
X4470375Y-10271125D02*
G75*
G02*
X4070375Y-10271125I-200000J0D01*
G01*
X4070375Y-10271125D02*
G75*
G02*
X4470375Y-10271125I200000J0D01*
G01*
X6375375Y-6461125D02*
G75*
G02*
X5975375Y-6461125I-200000J0D01*
G01*
X5975375Y-6461125D02*
G75*
G02*
X6375375Y-6461125I200000J0D01*
G01*
X6375375Y-8366125D02*
G75*
G02*
X5975375Y-8366125I-200000J0D01*
G01*
X5975375Y-8366125D02*
G75*
G02*
X6375375Y-8366125I200000J0D01*
G01*
X8280375Y-4556125D02*
G75*
G02*
X7880375Y-4556125I-200000J0D01*
G01*
X7880375Y-4556125D02*
G75*
G02*
X8280375Y-4556125I200000J0D01*
G01*
X8280375Y-6461125D02*
G75*
G02*
X7880375Y-6461125I-200000J0D01*
G01*
X7880375Y-6461125D02*
G75*
G02*
X8280375Y-6461125I200000J0D01*
G01*
X10185375Y-6461125D02*
G75*
G02*
X9785375Y-6461125I-200000J0D01*
G01*
X9785375Y-6461125D02*
G75*
G02*
X10185375Y-6461125I200000J0D01*
G01*
X12090000Y-8364250D02*
G75*
G02*
X11690000Y-8364250I-200000J0D01*
G01*
X11690000Y-8364250D02*
G75*
G02*
X12090000Y-8364250I200000J0D01*
G01*
X12090000Y-10269250D02*
G75*
G02*
X11690000Y-10269250I-200000J0D01*
G01*
X11690000Y-10269250D02*
G75*
G02*
X12090000Y-10269250I200000J0D01*
G01*
X12090375Y-4556125D02*
G75*
G02*
X11690375Y-4556125I-200000J0D01*
G01*
X11690375Y-4556125D02*
G75*
G02*
X12090375Y-4556125I200000J0D01*
G01*
X12090375Y-6461125D02*
G75*
G02*
X11690375Y-6461125I-200000J0D01*
G01*
X11690375Y-6461125D02*
G75*
G02*
X12090375Y-6461125I200000J0D01*
G01*
D11*
X3458277Y-11813984D02*
X3458277Y-11613984D01*
X3458277Y-11613984D02*
X3505896Y-11613984D01*
X3505896Y-11613984D02*
X3534467Y-11623508D01*
X3534467Y-11623508D02*
X3553515Y-11642555D01*
X3553515Y-11642555D02*
X3563039Y-11661603D01*
X3563039Y-11661603D02*
X3572562Y-11699698D01*
X3572562Y-11699698D02*
X3572562Y-11728269D01*
X3572562Y-11728269D02*
X3563039Y-11766365D01*
X3563039Y-11766365D02*
X3553515Y-11785412D01*
X3553515Y-11785412D02*
X3534467Y-11804460D01*
X3534467Y-11804460D02*
X3505896Y-11813984D01*
X3505896Y-11813984D02*
X3458277Y-11813984D01*
X3658277Y-11813984D02*
X3658277Y-11680650D01*
X3658277Y-11718746D02*
X3667801Y-11699698D01*
X3667801Y-11699698D02*
X3677324Y-11690174D01*
X3677324Y-11690174D02*
X3696372Y-11680650D01*
X3696372Y-11680650D02*
X3715420Y-11680650D01*
X3782086Y-11813984D02*
X3782086Y-11680650D01*
X3782086Y-11613984D02*
X3772562Y-11623508D01*
X3772562Y-11623508D02*
X3782086Y-11633031D01*
X3782086Y-11633031D02*
X3791610Y-11623508D01*
X3791610Y-11623508D02*
X3782086Y-11613984D01*
X3782086Y-11613984D02*
X3782086Y-11633031D01*
X3905896Y-11813984D02*
X3886848Y-11804460D01*
X3886848Y-11804460D02*
X3877324Y-11785412D01*
X3877324Y-11785412D02*
X3877324Y-11613984D01*
X4010658Y-11813984D02*
X3991610Y-11804460D01*
X3991610Y-11804460D02*
X3982086Y-11785412D01*
X3982086Y-11785412D02*
X3982086Y-11613984D01*
X4239229Y-11813984D02*
X4239229Y-11613984D01*
X4239229Y-11613984D02*
X4305896Y-11756841D01*
X4305896Y-11756841D02*
X4372563Y-11613984D01*
X4372563Y-11613984D02*
X4372563Y-11813984D01*
X4553515Y-11813984D02*
X4553515Y-11709222D01*
X4553515Y-11709222D02*
X4543991Y-11690174D01*
X4543991Y-11690174D02*
X4524944Y-11680650D01*
X4524944Y-11680650D02*
X4486848Y-11680650D01*
X4486848Y-11680650D02*
X4467801Y-11690174D01*
X4553515Y-11804460D02*
X4534467Y-11813984D01*
X4534467Y-11813984D02*
X4486848Y-11813984D01*
X4486848Y-11813984D02*
X4467801Y-11804460D01*
X4467801Y-11804460D02*
X4458277Y-11785412D01*
X4458277Y-11785412D02*
X4458277Y-11766365D01*
X4458277Y-11766365D02*
X4467801Y-11747317D01*
X4467801Y-11747317D02*
X4486848Y-11737793D01*
X4486848Y-11737793D02*
X4534467Y-11737793D01*
X4534467Y-11737793D02*
X4553515Y-11728269D01*
X4648753Y-11680650D02*
X4648753Y-11880650D01*
X4648753Y-11690174D02*
X4667801Y-11680650D01*
X4667801Y-11680650D02*
X4705896Y-11680650D01*
X4705896Y-11680650D02*
X4724944Y-11690174D01*
X4724944Y-11690174D02*
X4734467Y-11699698D01*
X4734467Y-11699698D02*
X4743991Y-11718746D01*
X4743991Y-11718746D02*
X4743991Y-11775888D01*
X4743991Y-11775888D02*
X4734467Y-11794936D01*
X4734467Y-11794936D02*
X4724944Y-11804460D01*
X4724944Y-11804460D02*
X4705896Y-11813984D01*
X4705896Y-11813984D02*
X4667801Y-11813984D01*
X4667801Y-11813984D02*
X4648753Y-11804460D01*
X4829705Y-11794936D02*
X4839229Y-11804460D01*
X4839229Y-11804460D02*
X4829705Y-11813984D01*
X4829705Y-11813984D02*
X4820182Y-11804460D01*
X4820182Y-11804460D02*
X4829705Y-11794936D01*
X4829705Y-11794936D02*
X4829705Y-11813984D01*
X4829705Y-11690174D02*
X4839229Y-11699698D01*
X4839229Y-11699698D02*
X4829705Y-11709222D01*
X4829705Y-11709222D02*
X4820182Y-11699698D01*
X4820182Y-11699698D02*
X4829705Y-11690174D01*
X4829705Y-11690174D02*
X4829705Y-11709222D01*
D12*
X3027500Y-12057500D02*
X3197500Y-12227500D01*
X3197500Y-12057500D02*
X3027500Y-12227500D01*
D11*
X3563039Y-12233984D02*
X3448753Y-12233984D01*
X3505896Y-12233984D02*
X3505896Y-12033984D01*
X3505896Y-12033984D02*
X3486848Y-12062555D01*
X3486848Y-12062555D02*
X3467801Y-12081603D01*
X3467801Y-12081603D02*
X3448753Y-12091127D01*
X3648753Y-12214936D02*
X3658277Y-12224460D01*
X3658277Y-12224460D02*
X3648753Y-12233984D01*
X3648753Y-12233984D02*
X3639229Y-12224460D01*
X3639229Y-12224460D02*
X3648753Y-12214936D01*
X3648753Y-12214936D02*
X3648753Y-12233984D01*
X3724943Y-12033984D02*
X3858277Y-12033984D01*
X3858277Y-12033984D02*
X3772562Y-12233984D01*
X3972562Y-12033984D02*
X3991610Y-12033984D01*
X3991610Y-12033984D02*
X4010658Y-12043508D01*
X4010658Y-12043508D02*
X4020182Y-12053031D01*
X4020182Y-12053031D02*
X4029705Y-12072079D01*
X4029705Y-12072079D02*
X4039229Y-12110174D01*
X4039229Y-12110174D02*
X4039229Y-12157793D01*
X4039229Y-12157793D02*
X4029705Y-12195888D01*
X4029705Y-12195888D02*
X4020182Y-12214936D01*
X4020182Y-12214936D02*
X4010658Y-12224460D01*
X4010658Y-12224460D02*
X3991610Y-12233984D01*
X3991610Y-12233984D02*
X3972562Y-12233984D01*
X3972562Y-12233984D02*
X3953515Y-12224460D01*
X3953515Y-12224460D02*
X3943991Y-12214936D01*
X3943991Y-12214936D02*
X3934467Y-12195888D01*
X3934467Y-12195888D02*
X3924943Y-12157793D01*
X3924943Y-12157793D02*
X3924943Y-12110174D01*
X3924943Y-12110174D02*
X3934467Y-12072079D01*
X3934467Y-12072079D02*
X3943991Y-12053031D01*
X3943991Y-12053031D02*
X3953515Y-12043508D01*
X3953515Y-12043508D02*
X3972562Y-12033984D01*
X4163039Y-12033984D02*
X4182086Y-12033984D01*
X4182086Y-12033984D02*
X4201134Y-12043508D01*
X4201134Y-12043508D02*
X4210658Y-12053031D01*
X4210658Y-12053031D02*
X4220182Y-12072079D01*
X4220182Y-12072079D02*
X4229705Y-12110174D01*
X4229705Y-12110174D02*
X4229705Y-12157793D01*
X4229705Y-12157793D02*
X4220182Y-12195888D01*
X4220182Y-12195888D02*
X4210658Y-12214936D01*
X4210658Y-12214936D02*
X4201134Y-12224460D01*
X4201134Y-12224460D02*
X4182086Y-12233984D01*
X4182086Y-12233984D02*
X4163039Y-12233984D01*
X4163039Y-12233984D02*
X4143991Y-12224460D01*
X4143991Y-12224460D02*
X4134467Y-12214936D01*
X4134467Y-12214936D02*
X4124943Y-12195888D01*
X4124943Y-12195888D02*
X4115420Y-12157793D01*
X4115420Y-12157793D02*
X4115420Y-12110174D01*
X4115420Y-12110174D02*
X4124943Y-12072079D01*
X4124943Y-12072079D02*
X4134467Y-12053031D01*
X4134467Y-12053031D02*
X4143991Y-12043508D01*
X4143991Y-12043508D02*
X4163039Y-12033984D01*
X4315420Y-12233984D02*
X4315420Y-12100650D01*
X4315420Y-12119698D02*
X4324944Y-12110174D01*
X4324944Y-12110174D02*
X4343991Y-12100650D01*
X4343991Y-12100650D02*
X4372563Y-12100650D01*
X4372563Y-12100650D02*
X4391610Y-12110174D01*
X4391610Y-12110174D02*
X4401134Y-12129222D01*
X4401134Y-12129222D02*
X4401134Y-12233984D01*
X4401134Y-12129222D02*
X4410658Y-12110174D01*
X4410658Y-12110174D02*
X4429705Y-12100650D01*
X4429705Y-12100650D02*
X4458277Y-12100650D01*
X4458277Y-12100650D02*
X4477325Y-12110174D01*
X4477325Y-12110174D02*
X4486848Y-12129222D01*
X4486848Y-12129222D02*
X4486848Y-12233984D01*
X4582086Y-12233984D02*
X4582086Y-12100650D01*
X4582086Y-12119698D02*
X4591610Y-12110174D01*
X4591610Y-12110174D02*
X4610658Y-12100650D01*
X4610658Y-12100650D02*
X4639229Y-12100650D01*
X4639229Y-12100650D02*
X4658277Y-12110174D01*
X4658277Y-12110174D02*
X4667801Y-12129222D01*
X4667801Y-12129222D02*
X4667801Y-12233984D01*
X4667801Y-12129222D02*
X4677325Y-12110174D01*
X4677325Y-12110174D02*
X4696372Y-12100650D01*
X4696372Y-12100650D02*
X4724944Y-12100650D01*
X4724944Y-12100650D02*
X4743991Y-12110174D01*
X4743991Y-12110174D02*
X4753515Y-12129222D01*
X4753515Y-12129222D02*
X4753515Y-12233984D01*
X5143991Y-12024460D02*
X4972563Y-12281603D01*
X5401134Y-12033984D02*
X5420182Y-12033984D01*
X5420182Y-12033984D02*
X5439229Y-12043508D01*
X5439229Y-12043508D02*
X5448753Y-12053031D01*
X5448753Y-12053031D02*
X5458277Y-12072079D01*
X5458277Y-12072079D02*
X5467801Y-12110174D01*
X5467801Y-12110174D02*
X5467801Y-12157793D01*
X5467801Y-12157793D02*
X5458277Y-12195888D01*
X5458277Y-12195888D02*
X5448753Y-12214936D01*
X5448753Y-12214936D02*
X5439229Y-12224460D01*
X5439229Y-12224460D02*
X5420182Y-12233984D01*
X5420182Y-12233984D02*
X5401134Y-12233984D01*
X5401134Y-12233984D02*
X5382087Y-12224460D01*
X5382087Y-12224460D02*
X5372563Y-12214936D01*
X5372563Y-12214936D02*
X5363039Y-12195888D01*
X5363039Y-12195888D02*
X5353515Y-12157793D01*
X5353515Y-12157793D02*
X5353515Y-12110174D01*
X5353515Y-12110174D02*
X5363039Y-12072079D01*
X5363039Y-12072079D02*
X5372563Y-12053031D01*
X5372563Y-12053031D02*
X5382087Y-12043508D01*
X5382087Y-12043508D02*
X5401134Y-12033984D01*
X5553515Y-12214936D02*
X5563039Y-12224460D01*
X5563039Y-12224460D02*
X5553515Y-12233984D01*
X5553515Y-12233984D02*
X5543991Y-12224460D01*
X5543991Y-12224460D02*
X5553515Y-12214936D01*
X5553515Y-12214936D02*
X5553515Y-12233984D01*
X5686848Y-12033984D02*
X5705896Y-12033984D01*
X5705896Y-12033984D02*
X5724944Y-12043508D01*
X5724944Y-12043508D02*
X5734467Y-12053031D01*
X5734467Y-12053031D02*
X5743991Y-12072079D01*
X5743991Y-12072079D02*
X5753515Y-12110174D01*
X5753515Y-12110174D02*
X5753515Y-12157793D01*
X5753515Y-12157793D02*
X5743991Y-12195888D01*
X5743991Y-12195888D02*
X5734467Y-12214936D01*
X5734467Y-12214936D02*
X5724944Y-12224460D01*
X5724944Y-12224460D02*
X5705896Y-12233984D01*
X5705896Y-12233984D02*
X5686848Y-12233984D01*
X5686848Y-12233984D02*
X5667801Y-12224460D01*
X5667801Y-12224460D02*
X5658277Y-12214936D01*
X5658277Y-12214936D02*
X5648753Y-12195888D01*
X5648753Y-12195888D02*
X5639229Y-12157793D01*
X5639229Y-12157793D02*
X5639229Y-12110174D01*
X5639229Y-12110174D02*
X5648753Y-12072079D01*
X5648753Y-12072079D02*
X5658277Y-12053031D01*
X5658277Y-12053031D02*
X5667801Y-12043508D01*
X5667801Y-12043508D02*
X5686848Y-12033984D01*
X5924944Y-12033984D02*
X5886848Y-12033984D01*
X5886848Y-12033984D02*
X5867801Y-12043508D01*
X5867801Y-12043508D02*
X5858277Y-12053031D01*
X5858277Y-12053031D02*
X5839229Y-12081603D01*
X5839229Y-12081603D02*
X5829706Y-12119698D01*
X5829706Y-12119698D02*
X5829706Y-12195888D01*
X5829706Y-12195888D02*
X5839229Y-12214936D01*
X5839229Y-12214936D02*
X5848753Y-12224460D01*
X5848753Y-12224460D02*
X5867801Y-12233984D01*
X5867801Y-12233984D02*
X5905896Y-12233984D01*
X5905896Y-12233984D02*
X5924944Y-12224460D01*
X5924944Y-12224460D02*
X5934467Y-12214936D01*
X5934467Y-12214936D02*
X5943991Y-12195888D01*
X5943991Y-12195888D02*
X5943991Y-12148269D01*
X5943991Y-12148269D02*
X5934467Y-12129222D01*
X5934467Y-12129222D02*
X5924944Y-12119698D01*
X5924944Y-12119698D02*
X5905896Y-12110174D01*
X5905896Y-12110174D02*
X5867801Y-12110174D01*
X5867801Y-12110174D02*
X5848753Y-12119698D01*
X5848753Y-12119698D02*
X5839229Y-12129222D01*
X5839229Y-12129222D02*
X5829706Y-12148269D01*
X6115420Y-12033984D02*
X6077325Y-12033984D01*
X6077325Y-12033984D02*
X6058277Y-12043508D01*
X6058277Y-12043508D02*
X6048753Y-12053031D01*
X6048753Y-12053031D02*
X6029706Y-12081603D01*
X6029706Y-12081603D02*
X6020182Y-12119698D01*
X6020182Y-12119698D02*
X6020182Y-12195888D01*
X6020182Y-12195888D02*
X6029706Y-12214936D01*
X6029706Y-12214936D02*
X6039229Y-12224460D01*
X6039229Y-12224460D02*
X6058277Y-12233984D01*
X6058277Y-12233984D02*
X6096372Y-12233984D01*
X6096372Y-12233984D02*
X6115420Y-12224460D01*
X6115420Y-12224460D02*
X6124944Y-12214936D01*
X6124944Y-12214936D02*
X6134467Y-12195888D01*
X6134467Y-12195888D02*
X6134467Y-12148269D01*
X6134467Y-12148269D02*
X6124944Y-12129222D01*
X6124944Y-12129222D02*
X6115420Y-12119698D01*
X6115420Y-12119698D02*
X6096372Y-12110174D01*
X6096372Y-12110174D02*
X6058277Y-12110174D01*
X6058277Y-12110174D02*
X6039229Y-12119698D01*
X6039229Y-12119698D02*
X6029706Y-12129222D01*
X6029706Y-12129222D02*
X6020182Y-12148269D01*
X6229706Y-12233984D02*
X6267801Y-12233984D01*
X6267801Y-12233984D02*
X6286848Y-12224460D01*
X6286848Y-12224460D02*
X6296372Y-12214936D01*
X6296372Y-12214936D02*
X6315420Y-12186365D01*
X6315420Y-12186365D02*
X6324944Y-12148269D01*
X6324944Y-12148269D02*
X6324944Y-12072079D01*
X6324944Y-12072079D02*
X6315420Y-12053031D01*
X6315420Y-12053031D02*
X6305896Y-12043508D01*
X6305896Y-12043508D02*
X6286848Y-12033984D01*
X6286848Y-12033984D02*
X6248753Y-12033984D01*
X6248753Y-12033984D02*
X6229706Y-12043508D01*
X6229706Y-12043508D02*
X6220182Y-12053031D01*
X6220182Y-12053031D02*
X6210658Y-12072079D01*
X6210658Y-12072079D02*
X6210658Y-12119698D01*
X6210658Y-12119698D02*
X6220182Y-12138746D01*
X6220182Y-12138746D02*
X6229706Y-12148269D01*
X6229706Y-12148269D02*
X6248753Y-12157793D01*
X6248753Y-12157793D02*
X6286848Y-12157793D01*
X6286848Y-12157793D02*
X6305896Y-12148269D01*
X6305896Y-12148269D02*
X6315420Y-12138746D01*
X6315420Y-12138746D02*
X6324944Y-12119698D01*
X6401134Y-12033984D02*
X6401134Y-12072079D01*
X6477325Y-12033984D02*
X6477325Y-12072079D01*
X6772563Y-12310174D02*
X6763039Y-12300650D01*
X6763039Y-12300650D02*
X6743991Y-12272079D01*
X6743991Y-12272079D02*
X6734468Y-12253031D01*
X6734468Y-12253031D02*
X6724944Y-12224460D01*
X6724944Y-12224460D02*
X6715420Y-12176841D01*
X6715420Y-12176841D02*
X6715420Y-12138746D01*
X6715420Y-12138746D02*
X6724944Y-12091127D01*
X6724944Y-12091127D02*
X6734468Y-12062555D01*
X6734468Y-12062555D02*
X6743991Y-12043508D01*
X6743991Y-12043508D02*
X6763039Y-12014936D01*
X6763039Y-12014936D02*
X6772563Y-12005412D01*
X6839229Y-12053031D02*
X6848753Y-12043508D01*
X6848753Y-12043508D02*
X6867801Y-12033984D01*
X6867801Y-12033984D02*
X6915420Y-12033984D01*
X6915420Y-12033984D02*
X6934468Y-12043508D01*
X6934468Y-12043508D02*
X6943991Y-12053031D01*
X6943991Y-12053031D02*
X6953515Y-12072079D01*
X6953515Y-12072079D02*
X6953515Y-12091127D01*
X6953515Y-12091127D02*
X6943991Y-12119698D01*
X6943991Y-12119698D02*
X6829706Y-12233984D01*
X6829706Y-12233984D02*
X6953515Y-12233984D01*
X7029706Y-12053031D02*
X7039229Y-12043508D01*
X7039229Y-12043508D02*
X7058277Y-12033984D01*
X7058277Y-12033984D02*
X7105896Y-12033984D01*
X7105896Y-12033984D02*
X7124944Y-12043508D01*
X7124944Y-12043508D02*
X7134468Y-12053031D01*
X7134468Y-12053031D02*
X7143991Y-12072079D01*
X7143991Y-12072079D02*
X7143991Y-12091127D01*
X7143991Y-12091127D02*
X7134468Y-12119698D01*
X7134468Y-12119698D02*
X7020182Y-12233984D01*
X7020182Y-12233984D02*
X7143991Y-12233984D01*
X7382087Y-12233984D02*
X7382087Y-12033984D01*
X7467801Y-12233984D02*
X7467801Y-12129222D01*
X7467801Y-12129222D02*
X7458277Y-12110174D01*
X7458277Y-12110174D02*
X7439230Y-12100650D01*
X7439230Y-12100650D02*
X7410658Y-12100650D01*
X7410658Y-12100650D02*
X7391610Y-12110174D01*
X7391610Y-12110174D02*
X7382087Y-12119698D01*
X7591610Y-12233984D02*
X7572563Y-12224460D01*
X7572563Y-12224460D02*
X7563039Y-12214936D01*
X7563039Y-12214936D02*
X7553515Y-12195888D01*
X7553515Y-12195888D02*
X7553515Y-12138746D01*
X7553515Y-12138746D02*
X7563039Y-12119698D01*
X7563039Y-12119698D02*
X7572563Y-12110174D01*
X7572563Y-12110174D02*
X7591610Y-12100650D01*
X7591610Y-12100650D02*
X7620182Y-12100650D01*
X7620182Y-12100650D02*
X7639230Y-12110174D01*
X7639230Y-12110174D02*
X7648753Y-12119698D01*
X7648753Y-12119698D02*
X7658277Y-12138746D01*
X7658277Y-12138746D02*
X7658277Y-12195888D01*
X7658277Y-12195888D02*
X7648753Y-12214936D01*
X7648753Y-12214936D02*
X7639230Y-12224460D01*
X7639230Y-12224460D02*
X7620182Y-12233984D01*
X7620182Y-12233984D02*
X7591610Y-12233984D01*
X7772563Y-12233984D02*
X7753515Y-12224460D01*
X7753515Y-12224460D02*
X7743991Y-12205412D01*
X7743991Y-12205412D02*
X7743991Y-12033984D01*
X7924944Y-12224460D02*
X7905896Y-12233984D01*
X7905896Y-12233984D02*
X7867801Y-12233984D01*
X7867801Y-12233984D02*
X7848753Y-12224460D01*
X7848753Y-12224460D02*
X7839230Y-12205412D01*
X7839230Y-12205412D02*
X7839230Y-12129222D01*
X7839230Y-12129222D02*
X7848753Y-12110174D01*
X7848753Y-12110174D02*
X7867801Y-12100650D01*
X7867801Y-12100650D02*
X7905896Y-12100650D01*
X7905896Y-12100650D02*
X7924944Y-12110174D01*
X7924944Y-12110174D02*
X7934468Y-12129222D01*
X7934468Y-12129222D02*
X7934468Y-12148269D01*
X7934468Y-12148269D02*
X7839230Y-12167317D01*
X8010658Y-12224460D02*
X8029706Y-12233984D01*
X8029706Y-12233984D02*
X8067801Y-12233984D01*
X8067801Y-12233984D02*
X8086849Y-12224460D01*
X8086849Y-12224460D02*
X8096372Y-12205412D01*
X8096372Y-12205412D02*
X8096372Y-12195888D01*
X8096372Y-12195888D02*
X8086849Y-12176841D01*
X8086849Y-12176841D02*
X8067801Y-12167317D01*
X8067801Y-12167317D02*
X8039230Y-12167317D01*
X8039230Y-12167317D02*
X8020182Y-12157793D01*
X8020182Y-12157793D02*
X8010658Y-12138746D01*
X8010658Y-12138746D02*
X8010658Y-12129222D01*
X8010658Y-12129222D02*
X8020182Y-12110174D01*
X8020182Y-12110174D02*
X8039230Y-12100650D01*
X8039230Y-12100650D02*
X8067801Y-12100650D01*
X8067801Y-12100650D02*
X8086849Y-12110174D01*
X8163039Y-12310174D02*
X8172563Y-12300650D01*
X8172563Y-12300650D02*
X8191611Y-12272079D01*
X8191611Y-12272079D02*
X8201134Y-12253031D01*
X8201134Y-12253031D02*
X8210658Y-12224460D01*
X8210658Y-12224460D02*
X8220182Y-12176841D01*
X8220182Y-12176841D02*
X8220182Y-12138746D01*
X8220182Y-12138746D02*
X8210658Y-12091127D01*
X8210658Y-12091127D02*
X8201134Y-12062555D01*
X8201134Y-12062555D02*
X8191611Y-12043508D01*
X8191611Y-12043508D02*
X8172563Y-12014936D01*
X8172563Y-12014936D02*
X8163039Y-12005412D01*
X8524944Y-12310174D02*
X8515420Y-12300650D01*
X8515420Y-12300650D02*
X8496373Y-12272079D01*
X8496373Y-12272079D02*
X8486849Y-12253031D01*
X8486849Y-12253031D02*
X8477325Y-12224460D01*
X8477325Y-12224460D02*
X8467801Y-12176841D01*
X8467801Y-12176841D02*
X8467801Y-12138746D01*
X8467801Y-12138746D02*
X8477325Y-12091127D01*
X8477325Y-12091127D02*
X8486849Y-12062555D01*
X8486849Y-12062555D02*
X8496373Y-12043508D01*
X8496373Y-12043508D02*
X8515420Y-12014936D01*
X8515420Y-12014936D02*
X8524944Y-12005412D01*
X8601134Y-12100650D02*
X8601134Y-12233984D01*
X8601134Y-12119698D02*
X8610658Y-12110174D01*
X8610658Y-12110174D02*
X8629706Y-12100650D01*
X8629706Y-12100650D02*
X8658277Y-12100650D01*
X8658277Y-12100650D02*
X8677325Y-12110174D01*
X8677325Y-12110174D02*
X8686849Y-12129222D01*
X8686849Y-12129222D02*
X8686849Y-12233984D01*
X8810658Y-12233984D02*
X8791611Y-12224460D01*
X8791611Y-12224460D02*
X8782087Y-12214936D01*
X8782087Y-12214936D02*
X8772563Y-12195888D01*
X8772563Y-12195888D02*
X8772563Y-12138746D01*
X8772563Y-12138746D02*
X8782087Y-12119698D01*
X8782087Y-12119698D02*
X8791611Y-12110174D01*
X8791611Y-12110174D02*
X8810658Y-12100650D01*
X8810658Y-12100650D02*
X8839230Y-12100650D01*
X8839230Y-12100650D02*
X8858277Y-12110174D01*
X8858277Y-12110174D02*
X8867801Y-12119698D01*
X8867801Y-12119698D02*
X8877325Y-12138746D01*
X8877325Y-12138746D02*
X8877325Y-12195888D01*
X8877325Y-12195888D02*
X8867801Y-12214936D01*
X8867801Y-12214936D02*
X8858277Y-12224460D01*
X8858277Y-12224460D02*
X8839230Y-12233984D01*
X8839230Y-12233984D02*
X8810658Y-12233984D01*
X8934468Y-12100650D02*
X9010658Y-12100650D01*
X8963039Y-12033984D02*
X8963039Y-12205412D01*
X8963039Y-12205412D02*
X8972563Y-12224460D01*
X8972563Y-12224460D02*
X8991611Y-12233984D01*
X8991611Y-12233984D02*
X9010658Y-12233984D01*
X9229706Y-12100650D02*
X9229706Y-12300650D01*
X9229706Y-12110174D02*
X9248754Y-12100650D01*
X9248754Y-12100650D02*
X9286849Y-12100650D01*
X9286849Y-12100650D02*
X9305896Y-12110174D01*
X9305896Y-12110174D02*
X9315420Y-12119698D01*
X9315420Y-12119698D02*
X9324944Y-12138746D01*
X9324944Y-12138746D02*
X9324944Y-12195888D01*
X9324944Y-12195888D02*
X9315420Y-12214936D01*
X9315420Y-12214936D02*
X9305896Y-12224460D01*
X9305896Y-12224460D02*
X9286849Y-12233984D01*
X9286849Y-12233984D02*
X9248754Y-12233984D01*
X9248754Y-12233984D02*
X9229706Y-12224460D01*
X9439230Y-12233984D02*
X9420182Y-12224460D01*
X9420182Y-12224460D02*
X9410658Y-12205412D01*
X9410658Y-12205412D02*
X9410658Y-12033984D01*
X9601135Y-12233984D02*
X9601135Y-12129222D01*
X9601135Y-12129222D02*
X9591611Y-12110174D01*
X9591611Y-12110174D02*
X9572563Y-12100650D01*
X9572563Y-12100650D02*
X9534468Y-12100650D01*
X9534468Y-12100650D02*
X9515420Y-12110174D01*
X9601135Y-12224460D02*
X9582087Y-12233984D01*
X9582087Y-12233984D02*
X9534468Y-12233984D01*
X9534468Y-12233984D02*
X9515420Y-12224460D01*
X9515420Y-12224460D02*
X9505896Y-12205412D01*
X9505896Y-12205412D02*
X9505896Y-12186365D01*
X9505896Y-12186365D02*
X9515420Y-12167317D01*
X9515420Y-12167317D02*
X9534468Y-12157793D01*
X9534468Y-12157793D02*
X9582087Y-12157793D01*
X9582087Y-12157793D02*
X9601135Y-12148269D01*
X9667801Y-12100650D02*
X9743992Y-12100650D01*
X9696373Y-12033984D02*
X9696373Y-12205412D01*
X9696373Y-12205412D02*
X9705896Y-12224460D01*
X9705896Y-12224460D02*
X9724944Y-12233984D01*
X9724944Y-12233984D02*
X9743992Y-12233984D01*
X9886849Y-12224460D02*
X9867801Y-12233984D01*
X9867801Y-12233984D02*
X9829706Y-12233984D01*
X9829706Y-12233984D02*
X9810658Y-12224460D01*
X9810658Y-12224460D02*
X9801135Y-12205412D01*
X9801135Y-12205412D02*
X9801135Y-12129222D01*
X9801135Y-12129222D02*
X9810658Y-12110174D01*
X9810658Y-12110174D02*
X9829706Y-12100650D01*
X9829706Y-12100650D02*
X9867801Y-12100650D01*
X9867801Y-12100650D02*
X9886849Y-12110174D01*
X9886849Y-12110174D02*
X9896373Y-12129222D01*
X9896373Y-12129222D02*
X9896373Y-12148269D01*
X9896373Y-12148269D02*
X9801135Y-12167317D01*
X10067801Y-12233984D02*
X10067801Y-12033984D01*
X10067801Y-12224460D02*
X10048754Y-12233984D01*
X10048754Y-12233984D02*
X10010658Y-12233984D01*
X10010658Y-12233984D02*
X9991611Y-12224460D01*
X9991611Y-12224460D02*
X9982087Y-12214936D01*
X9982087Y-12214936D02*
X9972563Y-12195888D01*
X9972563Y-12195888D02*
X9972563Y-12138746D01*
X9972563Y-12138746D02*
X9982087Y-12119698D01*
X9982087Y-12119698D02*
X9991611Y-12110174D01*
X9991611Y-12110174D02*
X10010658Y-12100650D01*
X10010658Y-12100650D02*
X10048754Y-12100650D01*
X10048754Y-12100650D02*
X10067801Y-12110174D01*
X10143992Y-12310174D02*
X10153516Y-12300650D01*
X10153516Y-12300650D02*
X10172563Y-12272079D01*
X10172563Y-12272079D02*
X10182087Y-12253031D01*
X10182087Y-12253031D02*
X10191611Y-12224460D01*
X10191611Y-12224460D02*
X10201135Y-12176841D01*
X10201135Y-12176841D02*
X10201135Y-12138746D01*
X10201135Y-12138746D02*
X10191611Y-12091127D01*
X10191611Y-12091127D02*
X10182087Y-12062555D01*
X10182087Y-12062555D02*
X10172563Y-12043508D01*
X10172563Y-12043508D02*
X10153516Y-12014936D01*
X10153516Y-12014936D02*
X10143992Y-12005412D01*
X3197500Y-12432500D02*
G75*
G02*
X2997500Y-12432500I-100000J0D01*
G01*
X2997500Y-12432500D02*
G75*
G02*
X3197500Y-12432500I100000J0D01*
G01*
X3543991Y-12390650D02*
X3543991Y-12523984D01*
X3496372Y-12314460D02*
X3448753Y-12457317D01*
X3448753Y-12457317D02*
X3572562Y-12457317D01*
X3648753Y-12504936D02*
X3658277Y-12514460D01*
X3658277Y-12514460D02*
X3648753Y-12523984D01*
X3648753Y-12523984D02*
X3639229Y-12514460D01*
X3639229Y-12514460D02*
X3648753Y-12504936D01*
X3648753Y-12504936D02*
X3648753Y-12523984D01*
X3782086Y-12323984D02*
X3801134Y-12323984D01*
X3801134Y-12323984D02*
X3820182Y-12333508D01*
X3820182Y-12333508D02*
X3829705Y-12343031D01*
X3829705Y-12343031D02*
X3839229Y-12362079D01*
X3839229Y-12362079D02*
X3848753Y-12400174D01*
X3848753Y-12400174D02*
X3848753Y-12447793D01*
X3848753Y-12447793D02*
X3839229Y-12485888D01*
X3839229Y-12485888D02*
X3829705Y-12504936D01*
X3829705Y-12504936D02*
X3820182Y-12514460D01*
X3820182Y-12514460D02*
X3801134Y-12523984D01*
X3801134Y-12523984D02*
X3782086Y-12523984D01*
X3782086Y-12523984D02*
X3763039Y-12514460D01*
X3763039Y-12514460D02*
X3753515Y-12504936D01*
X3753515Y-12504936D02*
X3743991Y-12485888D01*
X3743991Y-12485888D02*
X3734467Y-12447793D01*
X3734467Y-12447793D02*
X3734467Y-12400174D01*
X3734467Y-12400174D02*
X3743991Y-12362079D01*
X3743991Y-12362079D02*
X3753515Y-12343031D01*
X3753515Y-12343031D02*
X3763039Y-12333508D01*
X3763039Y-12333508D02*
X3782086Y-12323984D01*
X3972562Y-12323984D02*
X3991610Y-12323984D01*
X3991610Y-12323984D02*
X4010658Y-12333508D01*
X4010658Y-12333508D02*
X4020182Y-12343031D01*
X4020182Y-12343031D02*
X4029705Y-12362079D01*
X4029705Y-12362079D02*
X4039229Y-12400174D01*
X4039229Y-12400174D02*
X4039229Y-12447793D01*
X4039229Y-12447793D02*
X4029705Y-12485888D01*
X4029705Y-12485888D02*
X4020182Y-12504936D01*
X4020182Y-12504936D02*
X4010658Y-12514460D01*
X4010658Y-12514460D02*
X3991610Y-12523984D01*
X3991610Y-12523984D02*
X3972562Y-12523984D01*
X3972562Y-12523984D02*
X3953515Y-12514460D01*
X3953515Y-12514460D02*
X3943991Y-12504936D01*
X3943991Y-12504936D02*
X3934467Y-12485888D01*
X3934467Y-12485888D02*
X3924943Y-12447793D01*
X3924943Y-12447793D02*
X3924943Y-12400174D01*
X3924943Y-12400174D02*
X3934467Y-12362079D01*
X3934467Y-12362079D02*
X3943991Y-12343031D01*
X3943991Y-12343031D02*
X3953515Y-12333508D01*
X3953515Y-12333508D02*
X3972562Y-12323984D01*
X4163039Y-12323984D02*
X4182086Y-12323984D01*
X4182086Y-12323984D02*
X4201134Y-12333508D01*
X4201134Y-12333508D02*
X4210658Y-12343031D01*
X4210658Y-12343031D02*
X4220182Y-12362079D01*
X4220182Y-12362079D02*
X4229705Y-12400174D01*
X4229705Y-12400174D02*
X4229705Y-12447793D01*
X4229705Y-12447793D02*
X4220182Y-12485888D01*
X4220182Y-12485888D02*
X4210658Y-12504936D01*
X4210658Y-12504936D02*
X4201134Y-12514460D01*
X4201134Y-12514460D02*
X4182086Y-12523984D01*
X4182086Y-12523984D02*
X4163039Y-12523984D01*
X4163039Y-12523984D02*
X4143991Y-12514460D01*
X4143991Y-12514460D02*
X4134467Y-12504936D01*
X4134467Y-12504936D02*
X4124943Y-12485888D01*
X4124943Y-12485888D02*
X4115420Y-12447793D01*
X4115420Y-12447793D02*
X4115420Y-12400174D01*
X4115420Y-12400174D02*
X4124943Y-12362079D01*
X4124943Y-12362079D02*
X4134467Y-12343031D01*
X4134467Y-12343031D02*
X4143991Y-12333508D01*
X4143991Y-12333508D02*
X4163039Y-12323984D01*
X4315420Y-12523984D02*
X4315420Y-12390650D01*
X4315420Y-12409698D02*
X4324944Y-12400174D01*
X4324944Y-12400174D02*
X4343991Y-12390650D01*
X4343991Y-12390650D02*
X4372563Y-12390650D01*
X4372563Y-12390650D02*
X4391610Y-12400174D01*
X4391610Y-12400174D02*
X4401134Y-12419222D01*
X4401134Y-12419222D02*
X4401134Y-12523984D01*
X4401134Y-12419222D02*
X4410658Y-12400174D01*
X4410658Y-12400174D02*
X4429705Y-12390650D01*
X4429705Y-12390650D02*
X4458277Y-12390650D01*
X4458277Y-12390650D02*
X4477325Y-12400174D01*
X4477325Y-12400174D02*
X4486848Y-12419222D01*
X4486848Y-12419222D02*
X4486848Y-12523984D01*
X4582086Y-12523984D02*
X4582086Y-12390650D01*
X4582086Y-12409698D02*
X4591610Y-12400174D01*
X4591610Y-12400174D02*
X4610658Y-12390650D01*
X4610658Y-12390650D02*
X4639229Y-12390650D01*
X4639229Y-12390650D02*
X4658277Y-12400174D01*
X4658277Y-12400174D02*
X4667801Y-12419222D01*
X4667801Y-12419222D02*
X4667801Y-12523984D01*
X4667801Y-12419222D02*
X4677325Y-12400174D01*
X4677325Y-12400174D02*
X4696372Y-12390650D01*
X4696372Y-12390650D02*
X4724944Y-12390650D01*
X4724944Y-12390650D02*
X4743991Y-12400174D01*
X4743991Y-12400174D02*
X4753515Y-12419222D01*
X4753515Y-12419222D02*
X4753515Y-12523984D01*
X5143991Y-12314460D02*
X4972563Y-12571603D01*
X5401134Y-12323984D02*
X5420182Y-12323984D01*
X5420182Y-12323984D02*
X5439229Y-12333508D01*
X5439229Y-12333508D02*
X5448753Y-12343031D01*
X5448753Y-12343031D02*
X5458277Y-12362079D01*
X5458277Y-12362079D02*
X5467801Y-12400174D01*
X5467801Y-12400174D02*
X5467801Y-12447793D01*
X5467801Y-12447793D02*
X5458277Y-12485888D01*
X5458277Y-12485888D02*
X5448753Y-12504936D01*
X5448753Y-12504936D02*
X5439229Y-12514460D01*
X5439229Y-12514460D02*
X5420182Y-12523984D01*
X5420182Y-12523984D02*
X5401134Y-12523984D01*
X5401134Y-12523984D02*
X5382087Y-12514460D01*
X5382087Y-12514460D02*
X5372563Y-12504936D01*
X5372563Y-12504936D02*
X5363039Y-12485888D01*
X5363039Y-12485888D02*
X5353515Y-12447793D01*
X5353515Y-12447793D02*
X5353515Y-12400174D01*
X5353515Y-12400174D02*
X5363039Y-12362079D01*
X5363039Y-12362079D02*
X5372563Y-12343031D01*
X5372563Y-12343031D02*
X5382087Y-12333508D01*
X5382087Y-12333508D02*
X5401134Y-12323984D01*
X5553515Y-12504936D02*
X5563039Y-12514460D01*
X5563039Y-12514460D02*
X5553515Y-12523984D01*
X5553515Y-12523984D02*
X5543991Y-12514460D01*
X5543991Y-12514460D02*
X5553515Y-12504936D01*
X5553515Y-12504936D02*
X5553515Y-12523984D01*
X5753515Y-12523984D02*
X5639229Y-12523984D01*
X5696372Y-12523984D02*
X5696372Y-12323984D01*
X5696372Y-12323984D02*
X5677325Y-12352555D01*
X5677325Y-12352555D02*
X5658277Y-12371603D01*
X5658277Y-12371603D02*
X5639229Y-12381127D01*
X5934467Y-12323984D02*
X5839229Y-12323984D01*
X5839229Y-12323984D02*
X5829706Y-12419222D01*
X5829706Y-12419222D02*
X5839229Y-12409698D01*
X5839229Y-12409698D02*
X5858277Y-12400174D01*
X5858277Y-12400174D02*
X5905896Y-12400174D01*
X5905896Y-12400174D02*
X5924944Y-12409698D01*
X5924944Y-12409698D02*
X5934467Y-12419222D01*
X5934467Y-12419222D02*
X5943991Y-12438269D01*
X5943991Y-12438269D02*
X5943991Y-12485888D01*
X5943991Y-12485888D02*
X5934467Y-12504936D01*
X5934467Y-12504936D02*
X5924944Y-12514460D01*
X5924944Y-12514460D02*
X5905896Y-12523984D01*
X5905896Y-12523984D02*
X5858277Y-12523984D01*
X5858277Y-12523984D02*
X5839229Y-12514460D01*
X5839229Y-12514460D02*
X5829706Y-12504936D01*
X6010658Y-12323984D02*
X6143991Y-12323984D01*
X6143991Y-12323984D02*
X6058277Y-12523984D01*
X6315420Y-12323984D02*
X6220182Y-12323984D01*
X6220182Y-12323984D02*
X6210658Y-12419222D01*
X6210658Y-12419222D02*
X6220182Y-12409698D01*
X6220182Y-12409698D02*
X6239229Y-12400174D01*
X6239229Y-12400174D02*
X6286848Y-12400174D01*
X6286848Y-12400174D02*
X6305896Y-12409698D01*
X6305896Y-12409698D02*
X6315420Y-12419222D01*
X6315420Y-12419222D02*
X6324944Y-12438269D01*
X6324944Y-12438269D02*
X6324944Y-12485888D01*
X6324944Y-12485888D02*
X6315420Y-12504936D01*
X6315420Y-12504936D02*
X6305896Y-12514460D01*
X6305896Y-12514460D02*
X6286848Y-12523984D01*
X6286848Y-12523984D02*
X6239229Y-12523984D01*
X6239229Y-12523984D02*
X6220182Y-12514460D01*
X6220182Y-12514460D02*
X6210658Y-12504936D01*
X6401134Y-12323984D02*
X6401134Y-12362079D01*
X6477325Y-12323984D02*
X6477325Y-12362079D01*
X6772563Y-12600174D02*
X6763039Y-12590650D01*
X6763039Y-12590650D02*
X6743991Y-12562079D01*
X6743991Y-12562079D02*
X6734468Y-12543031D01*
X6734468Y-12543031D02*
X6724944Y-12514460D01*
X6724944Y-12514460D02*
X6715420Y-12466841D01*
X6715420Y-12466841D02*
X6715420Y-12428746D01*
X6715420Y-12428746D02*
X6724944Y-12381127D01*
X6724944Y-12381127D02*
X6734468Y-12352555D01*
X6734468Y-12352555D02*
X6743991Y-12333508D01*
X6743991Y-12333508D02*
X6763039Y-12304936D01*
X6763039Y-12304936D02*
X6772563Y-12295412D01*
X6953515Y-12523984D02*
X6839229Y-12523984D01*
X6896372Y-12523984D02*
X6896372Y-12323984D01*
X6896372Y-12323984D02*
X6877325Y-12352555D01*
X6877325Y-12352555D02*
X6858277Y-12371603D01*
X6858277Y-12371603D02*
X6839229Y-12381127D01*
X7143991Y-12523984D02*
X7029706Y-12523984D01*
X7086848Y-12523984D02*
X7086848Y-12323984D01*
X7086848Y-12323984D02*
X7067801Y-12352555D01*
X7067801Y-12352555D02*
X7048753Y-12371603D01*
X7048753Y-12371603D02*
X7029706Y-12381127D01*
X7382087Y-12523984D02*
X7382087Y-12323984D01*
X7467801Y-12523984D02*
X7467801Y-12419222D01*
X7467801Y-12419222D02*
X7458277Y-12400174D01*
X7458277Y-12400174D02*
X7439230Y-12390650D01*
X7439230Y-12390650D02*
X7410658Y-12390650D01*
X7410658Y-12390650D02*
X7391610Y-12400174D01*
X7391610Y-12400174D02*
X7382087Y-12409698D01*
X7591610Y-12523984D02*
X7572563Y-12514460D01*
X7572563Y-12514460D02*
X7563039Y-12504936D01*
X7563039Y-12504936D02*
X7553515Y-12485888D01*
X7553515Y-12485888D02*
X7553515Y-12428746D01*
X7553515Y-12428746D02*
X7563039Y-12409698D01*
X7563039Y-12409698D02*
X7572563Y-12400174D01*
X7572563Y-12400174D02*
X7591610Y-12390650D01*
X7591610Y-12390650D02*
X7620182Y-12390650D01*
X7620182Y-12390650D02*
X7639230Y-12400174D01*
X7639230Y-12400174D02*
X7648753Y-12409698D01*
X7648753Y-12409698D02*
X7658277Y-12428746D01*
X7658277Y-12428746D02*
X7658277Y-12485888D01*
X7658277Y-12485888D02*
X7648753Y-12504936D01*
X7648753Y-12504936D02*
X7639230Y-12514460D01*
X7639230Y-12514460D02*
X7620182Y-12523984D01*
X7620182Y-12523984D02*
X7591610Y-12523984D01*
X7772563Y-12523984D02*
X7753515Y-12514460D01*
X7753515Y-12514460D02*
X7743991Y-12495412D01*
X7743991Y-12495412D02*
X7743991Y-12323984D01*
X7924944Y-12514460D02*
X7905896Y-12523984D01*
X7905896Y-12523984D02*
X7867801Y-12523984D01*
X7867801Y-12523984D02*
X7848753Y-12514460D01*
X7848753Y-12514460D02*
X7839230Y-12495412D01*
X7839230Y-12495412D02*
X7839230Y-12419222D01*
X7839230Y-12419222D02*
X7848753Y-12400174D01*
X7848753Y-12400174D02*
X7867801Y-12390650D01*
X7867801Y-12390650D02*
X7905896Y-12390650D01*
X7905896Y-12390650D02*
X7924944Y-12400174D01*
X7924944Y-12400174D02*
X7934468Y-12419222D01*
X7934468Y-12419222D02*
X7934468Y-12438269D01*
X7934468Y-12438269D02*
X7839230Y-12457317D01*
X8010658Y-12514460D02*
X8029706Y-12523984D01*
X8029706Y-12523984D02*
X8067801Y-12523984D01*
X8067801Y-12523984D02*
X8086849Y-12514460D01*
X8086849Y-12514460D02*
X8096372Y-12495412D01*
X8096372Y-12495412D02*
X8096372Y-12485888D01*
X8096372Y-12485888D02*
X8086849Y-12466841D01*
X8086849Y-12466841D02*
X8067801Y-12457317D01*
X8067801Y-12457317D02*
X8039230Y-12457317D01*
X8039230Y-12457317D02*
X8020182Y-12447793D01*
X8020182Y-12447793D02*
X8010658Y-12428746D01*
X8010658Y-12428746D02*
X8010658Y-12419222D01*
X8010658Y-12419222D02*
X8020182Y-12400174D01*
X8020182Y-12400174D02*
X8039230Y-12390650D01*
X8039230Y-12390650D02*
X8067801Y-12390650D01*
X8067801Y-12390650D02*
X8086849Y-12400174D01*
X8163039Y-12600174D02*
X8172563Y-12590650D01*
X8172563Y-12590650D02*
X8191611Y-12562079D01*
X8191611Y-12562079D02*
X8201134Y-12543031D01*
X8201134Y-12543031D02*
X8210658Y-12514460D01*
X8210658Y-12514460D02*
X8220182Y-12466841D01*
X8220182Y-12466841D02*
X8220182Y-12428746D01*
X8220182Y-12428746D02*
X8210658Y-12381127D01*
X8210658Y-12381127D02*
X8201134Y-12352555D01*
X8201134Y-12352555D02*
X8191611Y-12333508D01*
X8191611Y-12333508D02*
X8172563Y-12304936D01*
X8172563Y-12304936D02*
X8163039Y-12295412D01*
X8524944Y-12600174D02*
X8515420Y-12590650D01*
X8515420Y-12590650D02*
X8496373Y-12562079D01*
X8496373Y-12562079D02*
X8486849Y-12543031D01*
X8486849Y-12543031D02*
X8477325Y-12514460D01*
X8477325Y-12514460D02*
X8467801Y-12466841D01*
X8467801Y-12466841D02*
X8467801Y-12428746D01*
X8467801Y-12428746D02*
X8477325Y-12381127D01*
X8477325Y-12381127D02*
X8486849Y-12352555D01*
X8486849Y-12352555D02*
X8496373Y-12333508D01*
X8496373Y-12333508D02*
X8515420Y-12304936D01*
X8515420Y-12304936D02*
X8524944Y-12295412D01*
X8601134Y-12390650D02*
X8601134Y-12523984D01*
X8601134Y-12409698D02*
X8610658Y-12400174D01*
X8610658Y-12400174D02*
X8629706Y-12390650D01*
X8629706Y-12390650D02*
X8658277Y-12390650D01*
X8658277Y-12390650D02*
X8677325Y-12400174D01*
X8677325Y-12400174D02*
X8686849Y-12419222D01*
X8686849Y-12419222D02*
X8686849Y-12523984D01*
X8810658Y-12523984D02*
X8791611Y-12514460D01*
X8791611Y-12514460D02*
X8782087Y-12504936D01*
X8782087Y-12504936D02*
X8772563Y-12485888D01*
X8772563Y-12485888D02*
X8772563Y-12428746D01*
X8772563Y-12428746D02*
X8782087Y-12409698D01*
X8782087Y-12409698D02*
X8791611Y-12400174D01*
X8791611Y-12400174D02*
X8810658Y-12390650D01*
X8810658Y-12390650D02*
X8839230Y-12390650D01*
X8839230Y-12390650D02*
X8858277Y-12400174D01*
X8858277Y-12400174D02*
X8867801Y-12409698D01*
X8867801Y-12409698D02*
X8877325Y-12428746D01*
X8877325Y-12428746D02*
X8877325Y-12485888D01*
X8877325Y-12485888D02*
X8867801Y-12504936D01*
X8867801Y-12504936D02*
X8858277Y-12514460D01*
X8858277Y-12514460D02*
X8839230Y-12523984D01*
X8839230Y-12523984D02*
X8810658Y-12523984D01*
X8934468Y-12390650D02*
X9010658Y-12390650D01*
X8963039Y-12323984D02*
X8963039Y-12495412D01*
X8963039Y-12495412D02*
X8972563Y-12514460D01*
X8972563Y-12514460D02*
X8991611Y-12523984D01*
X8991611Y-12523984D02*
X9010658Y-12523984D01*
X9229706Y-12390650D02*
X9229706Y-12590650D01*
X9229706Y-12400174D02*
X9248754Y-12390650D01*
X9248754Y-12390650D02*
X9286849Y-12390650D01*
X9286849Y-12390650D02*
X9305896Y-12400174D01*
X9305896Y-12400174D02*
X9315420Y-12409698D01*
X9315420Y-12409698D02*
X9324944Y-12428746D01*
X9324944Y-12428746D02*
X9324944Y-12485888D01*
X9324944Y-12485888D02*
X9315420Y-12504936D01*
X9315420Y-12504936D02*
X9305896Y-12514460D01*
X9305896Y-12514460D02*
X9286849Y-12523984D01*
X9286849Y-12523984D02*
X9248754Y-12523984D01*
X9248754Y-12523984D02*
X9229706Y-12514460D01*
X9439230Y-12523984D02*
X9420182Y-12514460D01*
X9420182Y-12514460D02*
X9410658Y-12495412D01*
X9410658Y-12495412D02*
X9410658Y-12323984D01*
X9601135Y-12523984D02*
X9601135Y-12419222D01*
X9601135Y-12419222D02*
X9591611Y-12400174D01*
X9591611Y-12400174D02*
X9572563Y-12390650D01*
X9572563Y-12390650D02*
X9534468Y-12390650D01*
X9534468Y-12390650D02*
X9515420Y-12400174D01*
X9601135Y-12514460D02*
X9582087Y-12523984D01*
X9582087Y-12523984D02*
X9534468Y-12523984D01*
X9534468Y-12523984D02*
X9515420Y-12514460D01*
X9515420Y-12514460D02*
X9505896Y-12495412D01*
X9505896Y-12495412D02*
X9505896Y-12476365D01*
X9505896Y-12476365D02*
X9515420Y-12457317D01*
X9515420Y-12457317D02*
X9534468Y-12447793D01*
X9534468Y-12447793D02*
X9582087Y-12447793D01*
X9582087Y-12447793D02*
X9601135Y-12438269D01*
X9667801Y-12390650D02*
X9743992Y-12390650D01*
X9696373Y-12323984D02*
X9696373Y-12495412D01*
X9696373Y-12495412D02*
X9705896Y-12514460D01*
X9705896Y-12514460D02*
X9724944Y-12523984D01*
X9724944Y-12523984D02*
X9743992Y-12523984D01*
X9886849Y-12514460D02*
X9867801Y-12523984D01*
X9867801Y-12523984D02*
X9829706Y-12523984D01*
X9829706Y-12523984D02*
X9810658Y-12514460D01*
X9810658Y-12514460D02*
X9801135Y-12495412D01*
X9801135Y-12495412D02*
X9801135Y-12419222D01*
X9801135Y-12419222D02*
X9810658Y-12400174D01*
X9810658Y-12400174D02*
X9829706Y-12390650D01*
X9829706Y-12390650D02*
X9867801Y-12390650D01*
X9867801Y-12390650D02*
X9886849Y-12400174D01*
X9886849Y-12400174D02*
X9896373Y-12419222D01*
X9896373Y-12419222D02*
X9896373Y-12438269D01*
X9896373Y-12438269D02*
X9801135Y-12457317D01*
X10067801Y-12523984D02*
X10067801Y-12323984D01*
X10067801Y-12514460D02*
X10048754Y-12523984D01*
X10048754Y-12523984D02*
X10010658Y-12523984D01*
X10010658Y-12523984D02*
X9991611Y-12514460D01*
X9991611Y-12514460D02*
X9982087Y-12504936D01*
X9982087Y-12504936D02*
X9972563Y-12485888D01*
X9972563Y-12485888D02*
X9972563Y-12428746D01*
X9972563Y-12428746D02*
X9982087Y-12409698D01*
X9982087Y-12409698D02*
X9991611Y-12400174D01*
X9991611Y-12400174D02*
X10010658Y-12390650D01*
X10010658Y-12390650D02*
X10048754Y-12390650D01*
X10048754Y-12390650D02*
X10067801Y-12400174D01*
X10143992Y-12600174D02*
X10153516Y-12590650D01*
X10153516Y-12590650D02*
X10172563Y-12562079D01*
X10172563Y-12562079D02*
X10182087Y-12543031D01*
X10182087Y-12543031D02*
X10191611Y-12514460D01*
X10191611Y-12514460D02*
X10201135Y-12466841D01*
X10201135Y-12466841D02*
X10201135Y-12428746D01*
X10201135Y-12428746D02*
X10191611Y-12381127D01*
X10191611Y-12381127D02*
X10182087Y-12352555D01*
X10182087Y-12352555D02*
X10172563Y-12333508D01*
X10172563Y-12333508D02*
X10153516Y-12304936D01*
X10153516Y-12304936D02*
X10143992Y-12295412D01*
M02*
