<svg width="345" height="123" viewBox="0 0 345 123" fill="none" xmlns="http://www.w3.org/2000/svg">
<path d="M21 46.75C8.5625 46.75 0.6875 37.7188 0.6875 23.4375C0.6875 9.28125 8.65625 0.15625 21 0.15625C29.2188 0.15625 35.9062 4.375 38.5625 11.0938C38.875 11.875 39.0312 12.6562 39.0312 13.3125C39.0312 14.875 38.0312 15.875 36.5 15.875C35.125 15.875 34.1562 15.125 33.5312 13.5312C31.4062 8.21875 26.5625 5.34375 21 5.34375C12.1875 5.34375 6.46875 12.4688 6.46875 23.4375C6.46875 34.5 12.125 41.5625 21.0312 41.5625C26.9062 41.5625 31.5312 39.0938 33.6562 34.0312C34.25 32.6562 35.0312 32.0625 36.2812 32.0625C37.7812 32.0625 38.8438 33.125 38.8438 34.5938C38.8438 35.5625 38.5938 36.4062 38.0938 37.4062C35.125 43.375 29.25 46.75 21 46.75ZM47.2812 38.5V17.9688H44.5625C43 17.9688 42.125 17.1562 42.125 15.7188C42.125 14.3125 43 13.5 44.5625 13.5H47.2812V7.9375C47.2812 6.21875 48.4062 5.03125 50 5.03125C51.5938 5.03125 52.7188 6.21875 52.7188 7.9375V13.5H56.9062C58.4688 13.5 59.3438 14.3125 59.3438 15.7188C59.3438 17.1562 58.4688 17.9688 56.9062 17.9688H52.7188V37.3125C52.7188 40.0625 53.6875 41.375 56.4062 41.5625L56.875 41.5938C58.6562 41.7188 59.4688 42.4375 59.4688 43.7188C59.4688 45.375 58.5312 46.25 55.5 46.25H55.1562C49.9062 46.25 47.2812 43.6875 47.2812 38.5ZM67.5625 46.5625C65.9688 46.5625 64.8438 45.375 64.8438 43.6562V15.6875C64.8438 14.0625 65.9062 12.9375 67.4062 12.9375C68.9062 12.9375 69.9688 14.0625 69.9688 15.6875V18.8125H70.0938C71.0312 15.4375 74.2188 12.9375 77.4688 12.9375C78.6562 12.9375 79.5 13.2188 80.0312 13.7188C80.5 14.1562 80.7188 14.7812 80.7188 15.5312C80.7188 16.375 80.4375 17 79.875 17.4375C79.3125 17.9062 78.4688 18.125 77.2812 18.125C72.375 18.125 70.2812 21.6562 70.2812 25.8125V43.6562C70.2812 45.375 69.1562 46.5625 67.5625 46.5625ZM87.5938 46.5625C86 46.5625 84.875 45.375 84.875 43.6562V3.25C84.875 1.53125 86 0.34375 87.5938 0.34375C89.1875 0.34375 90.3125 1.53125 90.3125 3.25V43.6562C90.3125 45.375 89.1875 46.5625 87.5938 46.5625ZM123.906 56.0938C122.906 56.0938 122.219 55.6875 121.156 54.3125C115.781 46.5625 113.188 39.25 113.188 28.2188C113.188 17.125 116.312 8.59375 121.281 2C122.344 0.625 122.938 0.34375 123.875 0.34375C124.812 0.34375 125.562 0.90625 125.562 1.84375C125.562 2.28125 125.375 2.75 124.938 3.5C121.125 10.125 118.719 19 118.719 28.2188C118.719 37.4062 121.125 46.3125 124.938 52.9375C125.375 53.6875 125.562 54.1562 125.562 54.6875C125.562 55.4375 124.938 56.0938 123.906 56.0938ZM145.719 46.5625C144.125 46.5625 143 45.375 143 43.6562V7.0625H142.875L134.438 12.9688C133.812 13.4062 133.219 13.625 132.531 13.625C131.219 13.625 130.312 12.6875 130.312 11.3125C130.312 10.3125 130.688 9.65625 131.875 8.8125L141.531 1.90625C143.281 0.65625 144.031 0.34375 145.312 0.34375C147.25 0.34375 148.438 1.53125 148.438 3.5V43.6562C148.438 45.375 147.312 46.5625 145.719 46.5625ZM171.062 46.5625C165.281 46.5625 160.75 43.9688 159.188 39.9062C159 39.4375 158.938 39.0312 158.938 38.625C158.938 37.1875 160 36.375 161.406 36.375C162.375 36.375 163.156 36.875 163.781 38C165.406 40.8438 167.344 42.125 171.5 42.125C175.656 42.125 178.469 40.3125 178.469 37.2812C178.469 34.9375 177.125 33.6875 173.469 32.7812L168.5 31.5312C162.219 29.9688 159.188 27 159.188 22.4375C159.188 16.7812 164.156 12.9375 171.5 12.9375C176.844 12.9375 181.594 15.9375 182.438 19.8438C182.5 20.1562 182.531 20.4062 182.531 20.6562C182.531 21.9375 181.719 22.7812 180.406 22.7812C179.344 22.7812 178.594 22.4375 178 21.3125C176.594 18.5938 174.5 17.4062 171.188 17.4062C167.281 17.4062 164.562 19.375 164.562 22.1562C164.562 24.4062 166.312 25.9688 169.875 26.8438L174.719 28.0312C181.5 29.6875 184 32.0625 184 36.8438C184 42.6562 178.781 46.5625 171.062 46.5625ZM191.344 38.5V17.9688H188.625C187.062 17.9688 186.188 17.1562 186.188 15.7188C186.188 14.3125 187.062 13.5 188.625 13.5H191.344V7.9375C191.344 6.21875 192.469 5.03125 194.062 5.03125C195.656 5.03125 196.781 6.21875 196.781 7.9375V13.5H200.969C202.531 13.5 203.406 14.3125 203.406 15.7188C203.406 17.1562 202.531 17.9688 200.969 17.9688H196.781V37.3125C196.781 40.0625 197.75 41.375 200.469 41.5625L200.938 41.5938C202.719 41.7188 203.531 42.4375 203.531 43.7188C203.531 45.375 202.594 46.25 199.562 46.25H199.219C193.969 46.25 191.344 43.6875 191.344 38.5ZM241.781 46.75C229.188 46.75 221.125 37.5625 221.125 23.2188C221.125 9.125 229.156 0.15625 241.781 0.15625C250.031 0.15625 256.781 4.40625 259.219 10.7188C259.594 11.6875 259.656 12.4062 259.656 13.0938C259.656 14.625 258.656 15.6562 257.094 15.6562C255.719 15.6562 254.875 14.9688 254.156 13.3125C251.844 8.09375 247.469 5.34375 241.781 5.34375C232.5 5.34375 226.906 12.0312 226.906 23.1875C226.906 34.5312 232.594 41.5625 241.781 41.5625C249.781 41.5625 255.281 36.375 255.281 28.8125V28H244.781C243.219 28 242.094 27 242.094 25.5312C242.094 24.0625 243.219 23.0625 244.781 23.0625H258.094C259.812 23.0625 260.906 24.1875 260.906 25.9688V27.3438C260.906 39.5312 253.812 46.75 241.781 46.75ZM280.906 46.5625C271.312 46.5625 265.688 40.375 265.688 29.875C265.688 19.625 271.469 12.9375 280.438 12.9375C288.75 12.9375 294.594 19.1562 294.594 28.0625C294.594 30.0312 293.469 31.2188 291.594 31.2188H271.281C271.281 37.7812 274.875 41.8438 280.688 41.8438C284.562 41.8438 286.938 40.4688 289.469 36.7812C290.031 36 290.656 35.6875 291.5 35.6875C292.938 35.6875 293.906 36.625 293.906 38.0625C293.906 38.5 293.75 39.0625 293.5 39.6562C291.406 44.0625 286.844 46.5625 280.906 46.5625ZM271.312 26.9688H288.969C288.844 21.3438 285.375 17.6562 280.344 17.6562C275.281 17.6562 271.656 21.375 271.312 26.9688ZM302.812 46.5625C301.219 46.5625 300.094 45.375 300.094 43.6562V15.6875C300.094 14.0625 301.156 12.9375 302.656 12.9375C304.156 12.9375 305.219 14.0625 305.219 15.6875V18.6875H305.344C307.156 15.1875 310.625 12.9375 315.656 12.9375C322.781 12.9375 326.906 17.5312 326.906 24.9062V43.6562C326.906 45.375 325.781 46.5625 324.188 46.5625C322.594 46.5625 321.469 45.375 321.469 43.6562V25.875C321.469 20.625 319 17.75 314 17.75C308.875 17.75 305.531 21.375 305.531 26.875V43.6562C305.531 45.375 304.406 46.5625 302.812 46.5625ZM334.281 56.0938C333.25 56.0938 332.625 55.4375 332.625 54.6875C332.625 54.1562 332.812 53.6875 333.25 52.9375C337.062 46.3125 339.469 37.4062 339.469 28.2188C339.469 19 337.062 10.125 333.25 3.5C332.812 2.75 332.625 2.28125 332.625 1.84375C332.625 0.90625 333.375 0.34375 334.312 0.34375C335.25 0.34375 335.844 0.625 336.906 2C341.875 8.59375 345 17.125 345 28.2188C345 39.25 342.406 46.5625 337.031 54.3125C335.969 55.6875 335.281 56.0938 334.281 56.0938ZM92.8125 96.4062L112.031 77.0938C112.531 76.5938 113.156 76.3125 113.875 76.3125C114.562 76.3125 115.25 76.5938 115.719 77.0938L134.906 96.4062C135.375 96.9062 135.656 97.5312 135.656 98.25C135.656 99.7188 134.562 100.812 133.094 100.812C132.406 100.812 131.719 100.531 131.25 100.062L113.875 82.625L96.4688 100.062C96 100.531 95.375 100.812 94.6562 100.812C93.1875 100.812 92.0625 99.7188 92.0625 98.25C92.0625 97.5312 92.3438 96.9062 92.8125 96.4062ZM162.531 77.0312C164.75 77.0312 166.594 78.2188 167.469 80.25L183.094 115.625C183.469 116.438 184.062 116.781 185.031 116.781H195.438C196.906 116.781 198.094 117.938 198.094 119.344C198.094 120.75 196.906 121.875 195.438 121.875H183.688C181.312 121.875 179.75 120.906 178.781 118.656L163.094 83.2812C162.719 82.4688 162.125 82.125 161.281 82.125H150.844C149.344 82.125 148.188 81 148.188 79.5625C148.188 78.125 149.344 77.0312 150.844 77.0312H162.531ZM195.438 77.0312C196.938 77.0312 198.062 78.0938 198.062 79.5312C198.062 80.9688 196.938 82.0625 195.438 82.0625H180.281C178.781 82.0625 177.656 80.9688 177.656 79.5312C177.656 78.0938 178.781 77.0312 180.281 77.0312H195.438ZM224.156 94.0938H219.562C214.625 94.0938 210.625 90.2188 210.625 85.25C210.625 80.2812 214.625 76.2812 219.562 76.2812C224.5 76.2812 228.5 80.2812 228.5 85.25V89.8125H239.062V85.25C239.062 80.2812 243.062 76.2812 248 76.2812C252.938 76.2812 256.938 80.2812 256.938 85.25C256.938 90.2188 252.938 94.0938 248 94.0938H243.438V104.812H248C252.938 104.812 256.938 108.688 256.938 113.656C256.938 118.625 252.938 122.625 248 122.625C243.062 122.625 239.062 118.625 239.062 113.656V109.094H228.5V113.656C228.5 118.625 224.5 122.625 219.562 122.625C214.625 122.625 210.625 118.625 210.625 113.656C210.625 108.688 214.625 104.812 219.562 104.812H224.156V94.0938ZM219.562 89.875H224.156V85.25C224.156 82.7188 222.062 80.6562 219.562 80.6562C217.062 80.6562 214.969 82.7188 214.969 85.25C214.969 87.7812 217.062 89.875 219.562 89.875ZM248 89.875C250.5 89.875 252.594 87.7812 252.594 85.25C252.594 82.7188 250.5 80.6562 248 80.6562C245.5 80.6562 243.438 82.7188 243.438 85.25V89.875H248ZM228.5 104.812H239.062V94.0938H228.5V104.812ZM219.562 109C217.062 109 214.969 111.094 214.969 113.625C214.969 116.156 217.062 118.219 219.562 118.219C222.062 118.219 224.156 116.156 224.156 113.625V109H219.562ZM248 109H243.438V113.625C243.438 116.156 245.5 118.219 248 118.219C250.5 118.219 252.594 116.156 252.594 113.625C252.594 111.094 250.5 109 248 109Z" fill="black"/>
</svg>
