<svg width="166" height="47" viewBox="0 0 166 47" fill="none" xmlns="http://www.w3.org/2000/svg">
<path d="M1.3125 20.4062L20.5312 1.09375C21.0312 0.59375 21.6562 0.3125 22.375 0.3125C23.0625 0.3125 23.75 0.59375 24.2188 1.09375L43.4062 20.4062C43.875 20.9062 44.1562 21.5312 44.1562 22.25C44.1562 23.7188 43.0625 24.8125 41.5938 24.8125C40.9062 24.8125 40.2188 24.5312 39.75 24.0625L22.375 6.625L4.96875 24.0625C4.5 24.5312 3.875 24.8125 3.15625 24.8125C1.6875 24.8125 0.5625 23.7188 0.5625 22.25C0.5625 21.5312 0.84375 20.9062 1.3125 20.4062ZM71.0312 1.03125C73.25 1.03125 75.0938 2.21875 75.9688 4.25L91.5938 39.625C91.9688 40.4375 92.5625 40.7812 93.5312 40.7812H103.938C105.406 40.7812 106.594 41.9375 106.594 43.3438C106.594 44.75 105.406 45.875 103.938 45.875H92.1875C89.8125 45.875 88.25 44.9062 87.2812 42.6562L71.5938 7.28125C71.2188 6.46875 70.625 6.125 69.7812 6.125H59.3438C57.8438 6.125 56.6875 5 56.6875 3.5625C56.6875 2.125 57.8438 1.03125 59.3438 1.03125H71.0312ZM103.938 1.03125C105.438 1.03125 106.562 2.09375 106.562 3.53125C106.562 4.96875 105.438 6.0625 103.938 6.0625H88.7812C87.2812 6.0625 86.1562 4.96875 86.1562 3.53125C86.1562 2.09375 87.2812 1.03125 88.7812 1.03125H103.938ZM132.656 18.0938H128.062C123.125 18.0938 119.125 14.2188 119.125 9.25C119.125 4.28125 123.125 0.28125 128.062 0.28125C133 0.28125 137 4.28125 137 9.25V13.8125H147.562V9.25C147.562 4.28125 151.562 0.28125 156.5 0.28125C161.438 0.28125 165.438 4.28125 165.438 9.25C165.438 14.2188 161.438 18.0938 156.5 18.0938H151.938V28.8125H156.5C161.438 28.8125 165.438 32.6875 165.438 37.6562C165.438 42.625 161.438 46.625 156.5 46.625C151.562 46.625 147.562 42.625 147.562 37.6562V33.0938H137V37.6562C137 42.625 133 46.625 128.062 46.625C123.125 46.625 119.125 42.625 119.125 37.6562C119.125 32.6875 123.125 28.8125 128.062 28.8125H132.656V18.0938ZM128.062 13.875H132.656V9.25C132.656 6.71875 130.562 4.65625 128.062 4.65625C125.562 4.65625 123.469 6.71875 123.469 9.25C123.469 11.7812 125.562 13.875 128.062 13.875ZM156.5 13.875C159 13.875 161.094 11.7812 161.094 9.25C161.094 6.71875 159 4.65625 156.5 4.65625C154 4.65625 151.938 6.71875 151.938 9.25V13.875H156.5ZM137 28.8125H147.562V18.0938H137V28.8125ZM128.062 33C125.562 33 123.469 35.0938 123.469 37.625C123.469 40.1562 125.562 42.2188 128.062 42.2188C130.562 42.2188 132.656 40.1562 132.656 37.625V33H128.062ZM156.5 33H151.938V37.625C151.938 40.1562 154 42.2188 156.5 42.2188C159 42.2188 161.094 40.1562 161.094 37.625C161.094 35.0938 159 33 156.5 33Z" fill="black"/>
</svg>
