<?xml version="1.0" standalone="no"?>
 <!DOCTYPE svg PUBLIC "-//W3C//DTD SVG 1.1//EN" 
 "http://www.w3.org/Graphics/SVG/1.1/DTD/svg11.dtd"> 
<svg
  xmlns:svg="http://www.w3.org/2000/svg"
  xmlns="http://www.w3.org/2000/svg"
  xmlns:xlink="http://www.w3.org/1999/xlink"
  version="1.1"
  width="297.0022mm" height="210.0072mm" viewBox="0.0000 0.0000 297.0022 210.0072">
<title>SVG Image created as MyHackPad-F_Silkscreen.svg date 2024/10/12 11:32:44 </title>
  <desc>Image generated by PCBNEW </desc>
<g style="fill:#000000; fill-opacity:1.0000;stroke:#000000; stroke-opacity:1.0000;
stroke-linecap:round; stroke-linejoin:round;"
 transform="translate(0 0) scale(1 1)">
</g>
<g style="fill:none; 
stroke:#000000; stroke-width:0.1500; stroke-opacity:1; 
stroke-linecap:round; stroke-linejoin:round;">
<path d="M177.0022 166.0072
L285.0022 166.0072
L285.0022 198.0072
L177.0022 198.0072
L177.0022 166.0072
" />
</g>
<g style="fill:none; 
stroke:#000000; stroke-width:0.1500; stroke-opacity:1; 
stroke-linecap:round; stroke-linejoin:round;">
<path d="M10.0000 10.0000
L287.0022 10.0000
L287.0022 200.0072
L10.0000 200.0072
L10.0000 10.0000
" />
</g>
<g style="fill:none; 
stroke:#000000; stroke-width:0.1500; stroke-opacity:1; 
stroke-linecap:round; stroke-linejoin:round;">
<path d="M12.0000 12.0000
L285.0022 12.0000
L285.0022 198.0072
L12.0000 198.0072
L12.0000 12.0000
" />
</g>
<g style="fill:none; 
stroke:#000000; stroke-width:0.1500; stroke-opacity:1; 
stroke-linecap:round; stroke-linejoin:round;">
<path d="M60.0000 12.0000
L60.0000 10.0000
" />
</g>
<g style="fill:none; 
stroke:#000000; stroke-width:0.1500; stroke-opacity:1; 
stroke-linecap:round; stroke-linejoin:round;">
<path d="M110.0000 12.0000
L110.0000 10.0000
" />
</g>
<g style="fill:none; 
stroke:#000000; stroke-width:0.1500; stroke-opacity:1; 
stroke-linecap:round; stroke-linejoin:round;">
<path d="M160.0000 12.0000
L160.0000 10.0000
" />
</g>
<g style="fill:none; 
stroke:#000000; stroke-width:0.1500; stroke-opacity:1; 
stroke-linecap:round; stroke-linejoin:round;">
<path d="M210.0000 12.0000
L210.0000 10.0000
" />
</g>
<g style="fill:none; 
stroke:#000000; stroke-width:0.1500; stroke-opacity:1; 
stroke-linecap:round; stroke-linejoin:round;">
<path d="M260.0000 12.0000
L260.0000 10.0000
" />
</g>
<g style="fill:none; 
stroke:#000000; stroke-width:0.1500; stroke-opacity:1; 
stroke-linecap:round; stroke-linejoin:round;">
<text x="35.0000" y="11.6500"
textLength="1.4281" font-size="1.7333" lengthAdjust="spacingAndGlyphs"
text-anchor="start" opacity="0" stroke-opacity="0">1</text>
<g class="stroked-text"><desc>1</desc>
<path d="M36.0892 11.5936
L35.3463 11.5936
" />
<path d="M35.7177 11.5936
L35.7177 10.2936
" />
<path d="M35.7177 10.2936
L35.5939 10.4793
" />
<path d="M35.5939 10.4793
L35.4701 10.6031
" />
<path d="M35.4701 10.6031
L35.3463 10.6650
" />
</g></g>
<g style="fill:none; 
stroke:#000000; stroke-width:0.1500; stroke-opacity:1; 
stroke-linecap:round; stroke-linejoin:round;">
<text x="85.0000" y="11.6500"
textLength="1.4281" font-size="1.7333" lengthAdjust="spacingAndGlyphs"
text-anchor="start" opacity="0" stroke-opacity="0">2</text>
<g class="stroked-text"><desc>2</desc>
<path d="M85.3463 10.4174
L85.4082 10.3555
" />
<path d="M85.4082 10.3555
L85.5320 10.2936
" />
<path d="M85.5320 10.2936
L85.8415 10.2936
" />
<path d="M85.8415 10.2936
L85.9654 10.3555
" />
<path d="M85.9654 10.3555
L86.0273 10.4174
" />
<path d="M86.0273 10.4174
L86.0892 10.5412
" />
<path d="M86.0892 10.5412
L86.0892 10.6650
" />
<path d="M86.0892 10.6650
L86.0273 10.8507
" />
<path d="M86.0273 10.8507
L85.2844 11.5936
" />
<path d="M85.2844 11.5936
L86.0892 11.5936
" />
</g></g>
<g style="fill:none; 
stroke:#000000; stroke-width:0.1500; stroke-opacity:1; 
stroke-linecap:round; stroke-linejoin:round;">
<text x="135.0000" y="11.6500"
textLength="1.4281" font-size="1.7333" lengthAdjust="spacingAndGlyphs"
text-anchor="start" opacity="0" stroke-opacity="0">3</text>
<g class="stroked-text"><desc>3</desc>
<path d="M135.2844 10.2936
L136.0892 10.2936
" />
<path d="M136.0892 10.2936
L135.6558 10.7888
" />
<path d="M135.6558 10.7888
L135.8415 10.7888
" />
<path d="M135.8415 10.7888
L135.9654 10.8507
" />
<path d="M135.9654 10.8507
L136.0273 10.9127
" />
<path d="M136.0273 10.9127
L136.0892 11.0365
" />
<path d="M136.0892 11.0365
L136.0892 11.3460
" />
<path d="M136.0892 11.3460
L136.0273 11.4698
" />
<path d="M136.0273 11.4698
L135.9654 11.5317
" />
<path d="M135.9654 11.5317
L135.8415 11.5936
" />
<path d="M135.8415 11.5936
L135.4701 11.5936
" />
<path d="M135.4701 11.5936
L135.3463 11.5317
" />
<path d="M135.3463 11.5317
L135.2844 11.4698
" />
</g></g>
<g style="fill:none; 
stroke:#000000; stroke-width:0.1500; stroke-opacity:1; 
stroke-linecap:round; stroke-linejoin:round;">
<text x="185.0000" y="11.6500"
textLength="1.4281" font-size="1.7333" lengthAdjust="spacingAndGlyphs"
text-anchor="start" opacity="0" stroke-opacity="0">4</text>
<g class="stroked-text"><desc>4</desc>
<path d="M185.9654 10.7269
L185.9654 11.5936
" />
<path d="M185.6558 10.2317
L185.3463 11.1603
" />
<path d="M185.3463 11.1603
L186.1511 11.1603
" />
</g></g>
<g style="fill:none; 
stroke:#000000; stroke-width:0.1500; stroke-opacity:1; 
stroke-linecap:round; stroke-linejoin:round;">
<text x="235.0000" y="11.6500"
textLength="1.4281" font-size="1.7333" lengthAdjust="spacingAndGlyphs"
text-anchor="start" opacity="0" stroke-opacity="0">5</text>
<g class="stroked-text"><desc>5</desc>
<path d="M236.0273 10.2936
L235.4082 10.2936
" />
<path d="M235.4082 10.2936
L235.3463 10.9127
" />
<path d="M235.3463 10.9127
L235.4082 10.8507
" />
<path d="M235.4082 10.8507
L235.5320 10.7888
" />
<path d="M235.5320 10.7888
L235.8415 10.7888
" />
<path d="M235.8415 10.7888
L235.9654 10.8507
" />
<path d="M235.9654 10.8507
L236.0273 10.9127
" />
<path d="M236.0273 10.9127
L236.0892 11.0365
" />
<path d="M236.0892 11.0365
L236.0892 11.3460
" />
<path d="M236.0892 11.3460
L236.0273 11.4698
" />
<path d="M236.0273 11.4698
L235.9654 11.5317
" />
<path d="M235.9654 11.5317
L235.8415 11.5936
" />
<path d="M235.8415 11.5936
L235.5320 11.5936
" />
<path d="M235.5320 11.5936
L235.4082 11.5317
" />
<path d="M235.4082 11.5317
L235.3463 11.4698
" />
</g></g>
<g style="fill:none; 
stroke:#000000; stroke-width:0.1500; stroke-opacity:1; 
stroke-linecap:round; stroke-linejoin:round;">
<text x="285.0000" y="11.6500"
textLength="1.4281" font-size="1.7333" lengthAdjust="spacingAndGlyphs"
text-anchor="start" opacity="0" stroke-opacity="0">6</text>
<g class="stroked-text"><desc>6</desc>
<path d="M285.9654 10.2936
L285.7177 10.2936
" />
<path d="M285.7177 10.2936
L285.5939 10.3555
" />
<path d="M285.5939 10.3555
L285.5320 10.4174
" />
<path d="M285.5320 10.4174
L285.4082 10.6031
" />
<path d="M285.4082 10.6031
L285.3463 10.8507
" />
<path d="M285.3463 10.8507
L285.3463 11.3460
" />
<path d="M285.3463 11.3460
L285.4082 11.4698
" />
<path d="M285.4082 11.4698
L285.4701 11.5317
" />
<path d="M285.4701 11.5317
L285.5939 11.5936
" />
<path d="M285.5939 11.5936
L285.8415 11.5936
" />
<path d="M285.8415 11.5936
L285.9654 11.5317
" />
<path d="M285.9654 11.5317
L286.0273 11.4698
" />
<path d="M286.0273 11.4698
L286.0892 11.3460
" />
<path d="M286.0892 11.3460
L286.0892 11.0365
" />
<path d="M286.0892 11.0365
L286.0273 10.9127
" />
<path d="M286.0273 10.9127
L285.9654 10.8507
" />
<path d="M285.9654 10.8507
L285.8415 10.7888
" />
<path d="M285.8415 10.7888
L285.5939 10.7888
" />
<path d="M285.5939 10.7888
L285.4701 10.8507
" />
<path d="M285.4701 10.8507
L285.4082 10.9127
" />
<path d="M285.4082 10.9127
L285.3463 11.0365
" />
</g></g>
<g style="fill:none; 
stroke:#000000; stroke-width:0.1500; stroke-opacity:1; 
stroke-linecap:round; stroke-linejoin:round;">
<path d="M60.0000 198.0072
L60.0000 200.0072
" />
</g>
<g style="fill:none; 
stroke:#000000; stroke-width:0.1500; stroke-opacity:1; 
stroke-linecap:round; stroke-linejoin:round;">
<path d="M110.0000 198.0072
L110.0000 200.0072
" />
</g>
<g style="fill:none; 
stroke:#000000; stroke-width:0.1500; stroke-opacity:1; 
stroke-linecap:round; stroke-linejoin:round;">
<path d="M160.0000 198.0072
L160.0000 200.0072
" />
</g>
<g style="fill:none; 
stroke:#000000; stroke-width:0.1500; stroke-opacity:1; 
stroke-linecap:round; stroke-linejoin:round;">
<path d="M210.0000 198.0072
L210.0000 200.0072
" />
</g>
<g style="fill:none; 
stroke:#000000; stroke-width:0.1500; stroke-opacity:1; 
stroke-linecap:round; stroke-linejoin:round;">
<path d="M260.0000 198.0072
L260.0000 200.0072
" />
</g>
<g style="fill:none; 
stroke:#000000; stroke-width:0.1500; stroke-opacity:1; 
stroke-linecap:round; stroke-linejoin:round;">
<text x="35.0000" y="199.6572"
textLength="1.4281" font-size="1.7333" lengthAdjust="spacingAndGlyphs"
text-anchor="start" opacity="0" stroke-opacity="0">1</text>
<g class="stroked-text"><desc>1</desc>
<path d="M36.0892 199.6008
L35.3463 199.6008
" />
<path d="M35.7177 199.6008
L35.7177 198.3008
" />
<path d="M35.7177 198.3008
L35.5939 198.4865
" />
<path d="M35.5939 198.4865
L35.4701 198.6103
" />
<path d="M35.4701 198.6103
L35.3463 198.6722
" />
</g></g>
<g style="fill:none; 
stroke:#000000; stroke-width:0.1500; stroke-opacity:1; 
stroke-linecap:round; stroke-linejoin:round;">
<text x="85.0000" y="199.6572"
textLength="1.4281" font-size="1.7333" lengthAdjust="spacingAndGlyphs"
text-anchor="start" opacity="0" stroke-opacity="0">2</text>
<g class="stroked-text"><desc>2</desc>
<path d="M85.3463 198.4246
L85.4082 198.3627
" />
<path d="M85.4082 198.3627
L85.5320 198.3008
" />
<path d="M85.5320 198.3008
L85.8415 198.3008
" />
<path d="M85.8415 198.3008
L85.9654 198.3627
" />
<path d="M85.9654 198.3627
L86.0273 198.4246
" />
<path d="M86.0273 198.4246
L86.0892 198.5484
" />
<path d="M86.0892 198.5484
L86.0892 198.6722
" />
<path d="M86.0892 198.6722
L86.0273 198.8579
" />
<path d="M86.0273 198.8579
L85.2844 199.6008
" />
<path d="M85.2844 199.6008
L86.0892 199.6008
" />
</g></g>
<g style="fill:none; 
stroke:#000000; stroke-width:0.1500; stroke-opacity:1; 
stroke-linecap:round; stroke-linejoin:round;">
<text x="135.0000" y="199.6572"
textLength="1.4281" font-size="1.7333" lengthAdjust="spacingAndGlyphs"
text-anchor="start" opacity="0" stroke-opacity="0">3</text>
<g class="stroked-text"><desc>3</desc>
<path d="M135.2844 198.3008
L136.0892 198.3008
" />
<path d="M136.0892 198.3008
L135.6558 198.7960
" />
<path d="M135.6558 198.7960
L135.8415 198.7960
" />
<path d="M135.8415 198.7960
L135.9654 198.8579
" />
<path d="M135.9654 198.8579
L136.0273 198.9199
" />
<path d="M136.0273 198.9199
L136.0892 199.0437
" />
<path d="M136.0892 199.0437
L136.0892 199.3532
" />
<path d="M136.0892 199.3532
L136.0273 199.4770
" />
<path d="M136.0273 199.4770
L135.9654 199.5389
" />
<path d="M135.9654 199.5389
L135.8415 199.6008
" />
<path d="M135.8415 199.6008
L135.4701 199.6008
" />
<path d="M135.4701 199.6008
L135.3463 199.5389
" />
<path d="M135.3463 199.5389
L135.2844 199.4770
" />
</g></g>
<g style="fill:none; 
stroke:#000000; stroke-width:0.1500; stroke-opacity:1; 
stroke-linecap:round; stroke-linejoin:round;">
<text x="185.0000" y="199.6572"
textLength="1.4281" font-size="1.7333" lengthAdjust="spacingAndGlyphs"
text-anchor="start" opacity="0" stroke-opacity="0">4</text>
<g class="stroked-text"><desc>4</desc>
<path d="M185.9654 198.7341
L185.9654 199.6008
" />
<path d="M185.6558 198.2389
L185.3463 199.1675
" />
<path d="M185.3463 199.1675
L186.1511 199.1675
" />
</g></g>
<g style="fill:none; 
stroke:#000000; stroke-width:0.1500; stroke-opacity:1; 
stroke-linecap:round; stroke-linejoin:round;">
<text x="235.0000" y="199.6572"
textLength="1.4281" font-size="1.7333" lengthAdjust="spacingAndGlyphs"
text-anchor="start" opacity="0" stroke-opacity="0">5</text>
<g class="stroked-text"><desc>5</desc>
<path d="M236.0273 198.3008
L235.4082 198.3008
" />
<path d="M235.4082 198.3008
L235.3463 198.9199
" />
<path d="M235.3463 198.9199
L235.4082 198.8579
" />
<path d="M235.4082 198.8579
L235.5320 198.7960
" />
<path d="M235.5320 198.7960
L235.8415 198.7960
" />
<path d="M235.8415 198.7960
L235.9654 198.8579
" />
<path d="M235.9654 198.8579
L236.0273 198.9199
" />
<path d="M236.0273 198.9199
L236.0892 199.0437
" />
<path d="M236.0892 199.0437
L236.0892 199.3532
" />
<path d="M236.0892 199.3532
L236.0273 199.4770
" />
<path d="M236.0273 199.4770
L235.9654 199.5389
" />
<path d="M235.9654 199.5389
L235.8415 199.6008
" />
<path d="M235.8415 199.6008
L235.5320 199.6008
" />
<path d="M235.5320 199.6008
L235.4082 199.5389
" />
<path d="M235.4082 199.5389
L235.3463 199.4770
" />
</g></g>
<g style="fill:none; 
stroke:#000000; stroke-width:0.1500; stroke-opacity:1; 
stroke-linecap:round; stroke-linejoin:round;">
<text x="285.0000" y="199.6572"
textLength="1.4281" font-size="1.7333" lengthAdjust="spacingAndGlyphs"
text-anchor="start" opacity="0" stroke-opacity="0">6</text>
<g class="stroked-text"><desc>6</desc>
<path d="M285.9654 198.3008
L285.7177 198.3008
" />
<path d="M285.7177 198.3008
L285.5939 198.3627
" />
<path d="M285.5939 198.3627
L285.5320 198.4246
" />
<path d="M285.5320 198.4246
L285.4082 198.6103
" />
<path d="M285.4082 198.6103
L285.3463 198.8579
" />
<path d="M285.3463 198.8579
L285.3463 199.3532
" />
<path d="M285.3463 199.3532
L285.4082 199.4770
" />
<path d="M285.4082 199.4770
L285.4701 199.5389
" />
<path d="M285.4701 199.5389
L285.5939 199.6008
" />
<path d="M285.5939 199.6008
L285.8415 199.6008
" />
<path d="M285.8415 199.6008
L285.9654 199.5389
" />
<path d="M285.9654 199.5389
L286.0273 199.4770
" />
<path d="M286.0273 199.4770
L286.0892 199.3532
" />
<path d="M286.0892 199.3532
L286.0892 199.0437
" />
<path d="M286.0892 199.0437
L286.0273 198.9199
" />
<path d="M286.0273 198.9199
L285.9654 198.8579
" />
<path d="M285.9654 198.8579
L285.8415 198.7960
" />
<path d="M285.8415 198.7960
L285.5939 198.7960
" />
<path d="M285.5939 198.7960
L285.4701 198.8579
" />
<path d="M285.4701 198.8579
L285.4082 198.9199
" />
<path d="M285.4082 198.9199
L285.3463 199.0437
" />
</g></g>
<g style="fill:none; 
stroke:#000000; stroke-width:0.1500; stroke-opacity:1; 
stroke-linecap:round; stroke-linejoin:round;">
<path d="M10.0000 60.0000
L12.0000 60.0000
" />
</g>
<g style="fill:none; 
stroke:#000000; stroke-width:0.1500; stroke-opacity:1; 
stroke-linecap:round; stroke-linejoin:round;">
<path d="M10.0000 110.0000
L12.0000 110.0000
" />
</g>
<g style="fill:none; 
stroke:#000000; stroke-width:0.1500; stroke-opacity:1; 
stroke-linecap:round; stroke-linejoin:round;">
<path d="M10.0000 160.0000
L12.0000 160.0000
" />
</g>
<g style="fill:none; 
stroke:#000000; stroke-width:0.1500; stroke-opacity:1; 
stroke-linecap:round; stroke-linejoin:round;">
<text x="11.0000" y="35.6500"
textLength="1.3043" font-size="1.7333" lengthAdjust="spacingAndGlyphs"
text-anchor="middle" opacity="0" stroke-opacity="0">A</text>
<g class="stroked-text"><desc>A</desc>
<path d="M10.6905 35.2222
L11.3095 35.2222
" />
<path d="M10.5667 35.5936
L11.0000 34.2936
" />
<path d="M11.0000 34.2936
L11.4333 35.5936
" />
</g></g>
<g style="fill:none; 
stroke:#000000; stroke-width:0.1500; stroke-opacity:1; 
stroke-linecap:round; stroke-linejoin:round;">
<text x="11.0000" y="85.6500"
textLength="1.4900" font-size="1.7333" lengthAdjust="spacingAndGlyphs"
text-anchor="middle" opacity="0" stroke-opacity="0">B</text>
<g class="stroked-text"><desc>B</desc>
<path d="M11.0929 84.9127
L11.2786 84.9746
" />
<path d="M11.2786 84.9746
L11.3405 85.0365
" />
<path d="M11.3405 85.0365
L11.4024 85.1603
" />
<path d="M11.4024 85.1603
L11.4024 85.3460
" />
<path d="M11.4024 85.3460
L11.3405 85.4698
" />
<path d="M11.3405 85.4698
L11.2786 85.5317
" />
<path d="M11.2786 85.5317
L11.1548 85.5936
" />
<path d="M11.1548 85.5936
L10.6595 85.5936
" />
<path d="M10.6595 85.5936
L10.6595 84.2936
" />
<path d="M10.6595 84.2936
L11.0929 84.2936
" />
<path d="M11.0929 84.2936
L11.2167 84.3555
" />
<path d="M11.2167 84.3555
L11.2786 84.4174
" />
<path d="M11.2786 84.4174
L11.3405 84.5412
" />
<path d="M11.3405 84.5412
L11.3405 84.6650
" />
<path d="M11.3405 84.6650
L11.2786 84.7888
" />
<path d="M11.2786 84.7888
L11.2167 84.8507
" />
<path d="M11.2167 84.8507
L11.0929 84.9127
" />
<path d="M11.0929 84.9127
L10.6595 84.9127
" />
</g></g>
<g style="fill:none; 
stroke:#000000; stroke-width:0.1500; stroke-opacity:1; 
stroke-linecap:round; stroke-linejoin:round;">
<text x="11.0000" y="135.6500"
textLength="1.4900" font-size="1.7333" lengthAdjust="spacingAndGlyphs"
text-anchor="middle" opacity="0" stroke-opacity="0">C</text>
<g class="stroked-text"><desc>C</desc>
<path d="M11.4024 135.4698
L11.3405 135.5317
" />
<path d="M11.3405 135.5317
L11.1548 135.5936
" />
<path d="M11.1548 135.5936
L11.0310 135.5936
" />
<path d="M11.0310 135.5936
L10.8452 135.5317
" />
<path d="M10.8452 135.5317
L10.7214 135.4079
" />
<path d="M10.7214 135.4079
L10.6595 135.2841
" />
<path d="M10.6595 135.2841
L10.5976 135.0365
" />
<path d="M10.5976 135.0365
L10.5976 134.8507
" />
<path d="M10.5976 134.8507
L10.6595 134.6031
" />
<path d="M10.6595 134.6031
L10.7214 134.4793
" />
<path d="M10.7214 134.4793
L10.8452 134.3555
" />
<path d="M10.8452 134.3555
L11.0310 134.2936
" />
<path d="M11.0310 134.2936
L11.1548 134.2936
" />
<path d="M11.1548 134.2936
L11.3405 134.3555
" />
<path d="M11.3405 134.3555
L11.4024 134.4174
" />
</g></g>
<g style="fill:none; 
stroke:#000000; stroke-width:0.1500; stroke-opacity:1; 
stroke-linecap:round; stroke-linejoin:round;">
<text x="11.0000" y="185.6500"
textLength="1.4900" font-size="1.7333" lengthAdjust="spacingAndGlyphs"
text-anchor="middle" opacity="0" stroke-opacity="0">D</text>
<g class="stroked-text"><desc>D</desc>
<path d="M10.6595 185.5936
L10.6595 184.2936
" />
<path d="M10.6595 184.2936
L10.9690 184.2936
" />
<path d="M10.9690 184.2936
L11.1548 184.3555
" />
<path d="M11.1548 184.3555
L11.2786 184.4793
" />
<path d="M11.2786 184.4793
L11.3405 184.6031
" />
<path d="M11.3405 184.6031
L11.4024 184.8507
" />
<path d="M11.4024 184.8507
L11.4024 185.0365
" />
<path d="M11.4024 185.0365
L11.3405 185.2841
" />
<path d="M11.3405 185.2841
L11.2786 185.4079
" />
<path d="M11.2786 185.4079
L11.1548 185.5317
" />
<path d="M11.1548 185.5317
L10.9690 185.5936
" />
<path d="M10.9690 185.5936
L10.6595 185.5936
" />
</g></g>
<g style="fill:none; 
stroke:#000000; stroke-width:0.1500; stroke-opacity:1; 
stroke-linecap:round; stroke-linejoin:round;">
<path d="M287.0022 60.0000
L285.0022 60.0000
" />
</g>
<g style="fill:none; 
stroke:#000000; stroke-width:0.1500; stroke-opacity:1; 
stroke-linecap:round; stroke-linejoin:round;">
<path d="M287.0022 110.0000
L285.0022 110.0000
" />
</g>
<g style="fill:none; 
stroke:#000000; stroke-width:0.1500; stroke-opacity:1; 
stroke-linecap:round; stroke-linejoin:round;">
<path d="M287.0022 160.0000
L285.0022 160.0000
" />
</g>
<g style="fill:none; 
stroke:#000000; stroke-width:0.1500; stroke-opacity:1; 
stroke-linecap:round; stroke-linejoin:round;">
<text x="286.0022" y="35.6500"
textLength="1.3043" font-size="1.7333" lengthAdjust="spacingAndGlyphs"
text-anchor="middle" opacity="0" stroke-opacity="0">A</text>
<g class="stroked-text"><desc>A</desc>
<path d="M285.6927 35.2222
L286.3117 35.2222
" />
<path d="M285.5689 35.5936
L286.0022 34.2936
" />
<path d="M286.0022 34.2936
L286.4355 35.5936
" />
</g></g>
<g style="fill:none; 
stroke:#000000; stroke-width:0.1500; stroke-opacity:1; 
stroke-linecap:round; stroke-linejoin:round;">
<text x="286.0022" y="85.6500"
textLength="1.4900" font-size="1.7333" lengthAdjust="spacingAndGlyphs"
text-anchor="middle" opacity="0" stroke-opacity="0">B</text>
<g class="stroked-text"><desc>B</desc>
<path d="M286.0951 84.9127
L286.2808 84.9746
" />
<path d="M286.2808 84.9746
L286.3427 85.0365
" />
<path d="M286.3427 85.0365
L286.4046 85.1603
" />
<path d="M286.4046 85.1603
L286.4046 85.3460
" />
<path d="M286.4046 85.3460
L286.3427 85.4698
" />
<path d="M286.3427 85.4698
L286.2808 85.5317
" />
<path d="M286.2808 85.5317
L286.1570 85.5936
" />
<path d="M286.1570 85.5936
L285.6617 85.5936
" />
<path d="M285.6617 85.5936
L285.6617 84.2936
" />
<path d="M285.6617 84.2936
L286.0951 84.2936
" />
<path d="M286.0951 84.2936
L286.2189 84.3555
" />
<path d="M286.2189 84.3555
L286.2808 84.4174
" />
<path d="M286.2808 84.4174
L286.3427 84.5412
" />
<path d="M286.3427 84.5412
L286.3427 84.6650
" />
<path d="M286.3427 84.6650
L286.2808 84.7888
" />
<path d="M286.2808 84.7888
L286.2189 84.8507
" />
<path d="M286.2189 84.8507
L286.0951 84.9127
" />
<path d="M286.0951 84.9127
L285.6617 84.9127
" />
</g></g>
<g style="fill:none; 
stroke:#000000; stroke-width:0.1500; stroke-opacity:1; 
stroke-linecap:round; stroke-linejoin:round;">
<text x="286.0022" y="135.6500"
textLength="1.4900" font-size="1.7333" lengthAdjust="spacingAndGlyphs"
text-anchor="middle" opacity="0" stroke-opacity="0">C</text>
<g class="stroked-text"><desc>C</desc>
<path d="M286.4046 135.4698
L286.3427 135.5317
" />
<path d="M286.3427 135.5317
L286.1570 135.5936
" />
<path d="M286.1570 135.5936
L286.0332 135.5936
" />
<path d="M286.0332 135.5936
L285.8474 135.5317
" />
<path d="M285.8474 135.5317
L285.7236 135.4079
" />
<path d="M285.7236 135.4079
L285.6617 135.2841
" />
<path d="M285.6617 135.2841
L285.5998 135.0365
" />
<path d="M285.5998 135.0365
L285.5998 134.8507
" />
<path d="M285.5998 134.8507
L285.6617 134.6031
" />
<path d="M285.6617 134.6031
L285.7236 134.4793
" />
<path d="M285.7236 134.4793
L285.8474 134.3555
" />
<path d="M285.8474 134.3555
L286.0332 134.2936
" />
<path d="M286.0332 134.2936
L286.1570 134.2936
" />
<path d="M286.1570 134.2936
L286.3427 134.3555
" />
<path d="M286.3427 134.3555
L286.4046 134.4174
" />
</g></g>
<g style="fill:none; 
stroke:#000000; stroke-width:0.1500; stroke-opacity:1; 
stroke-linecap:round; stroke-linejoin:round;">
<text x="286.0022" y="185.6500"
textLength="1.4900" font-size="1.7333" lengthAdjust="spacingAndGlyphs"
text-anchor="middle" opacity="0" stroke-opacity="0">D</text>
<g class="stroked-text"><desc>D</desc>
<path d="M285.6617 185.5936
L285.6617 184.2936
" />
<path d="M285.6617 184.2936
L285.9712 184.2936
" />
<path d="M285.9712 184.2936
L286.1570 184.3555
" />
<path d="M286.1570 184.3555
L286.2808 184.4793
" />
<path d="M286.2808 184.4793
L286.3427 184.6031
" />
<path d="M286.3427 184.6031
L286.4046 184.8507
" />
<path d="M286.4046 184.8507
L286.4046 185.0365
" />
<path d="M286.4046 185.0365
L286.3427 185.2841
" />
<path d="M286.3427 185.2841
L286.2808 185.4079
" />
<path d="M286.2808 185.4079
L286.1570 185.5317
" />
<path d="M286.1570 185.5317
L285.9712 185.5936
" />
<path d="M285.9712 185.5936
L285.6617 185.5936
" />
</g></g>
<g style="fill:none; 
stroke:#000000; stroke-width:0.1500; stroke-opacity:1; 
stroke-linecap:round; stroke-linejoin:round;">
<text x="200.0022" y="193.8572"
textLength="7.0071" font-size="2.0000" lengthAdjust="spacingAndGlyphs"
text-anchor="start" opacity="0" stroke-opacity="0">Date: </text>
<g class="stroked-text"><desc>Date: </desc>
<path d="M200.4580 193.7933
L200.4580 192.2933
" />
<path d="M200.4580 192.2933
L200.8152 192.2933
" />
<path d="M200.8152 192.2933
L201.0295 192.3648
" />
<path d="M201.0295 192.3648
L201.1723 192.5076
" />
<path d="M201.1723 192.5076
L201.2437 192.6505
" />
<path d="M201.2437 192.6505
L201.3152 192.9362
" />
<path d="M201.3152 192.9362
L201.3152 193.1505
" />
<path d="M201.3152 193.1505
L201.2437 193.4362
" />
<path d="M201.2437 193.4362
L201.1723 193.5790
" />
<path d="M201.1723 193.5790
L201.0295 193.7219
" />
<path d="M201.0295 193.7219
L200.8152 193.7933
" />
<path d="M200.8152 193.7933
L200.4580 193.7933
" />
<path d="M202.6009 193.7933
L202.6009 193.0076
" />
<path d="M202.6009 193.0076
L202.5295 192.8648
" />
<path d="M202.5295 192.8648
L202.3866 192.7933
" />
<path d="M202.3866 192.7933
L202.1009 192.7933
" />
<path d="M202.1009 192.7933
L201.9580 192.8648
" />
<path d="M202.6009 193.7219
L202.4580 193.7933
" />
<path d="M202.4580 193.7933
L202.1009 193.7933
" />
<path d="M202.1009 193.7933
L201.9580 193.7219
" />
<path d="M201.9580 193.7219
L201.8866 193.5790
" />
<path d="M201.8866 193.5790
L201.8866 193.4362
" />
<path d="M201.8866 193.4362
L201.9580 193.2933
" />
<path d="M201.9580 193.2933
L202.1009 193.2219
" />
<path d="M202.1009 193.2219
L202.4580 193.2219
" />
<path d="M202.4580 193.2219
L202.6009 193.1505
" />
<path d="M203.1009 192.7933
L203.6723 192.7933
" />
<path d="M203.3152 192.2933
L203.3152 193.5790
" />
<path d="M203.3152 193.5790
L203.3866 193.7219
" />
<path d="M203.3866 193.7219
L203.5295 193.7933
" />
<path d="M203.5295 193.7933
L203.6723 193.7933
" />
<path d="M204.7437 193.7219
L204.6009 193.7933
" />
<path d="M204.6009 193.7933
L204.3152 193.7933
" />
<path d="M204.3152 193.7933
L204.1723 193.7219
" />
<path d="M204.1723 193.7219
L204.1009 193.5790
" />
<path d="M204.1009 193.5790
L204.1009 193.0076
" />
<path d="M204.1009 193.0076
L204.1723 192.8648
" />
<path d="M204.1723 192.8648
L204.3152 192.7933
" />
<path d="M204.3152 192.7933
L204.6009 192.7933
" />
<path d="M204.6009 192.7933
L204.7437 192.8648
" />
<path d="M204.7437 192.8648
L204.8152 193.0076
" />
<path d="M204.8152 193.0076
L204.8152 193.1505
" />
<path d="M204.8152 193.1505
L204.1009 193.2933
" />
<path d="M205.4580 193.6505
L205.5295 193.7219
" />
<path d="M205.5295 193.7219
L205.4580 193.7933
" />
<path d="M205.4580 193.7933
L205.3866 193.7219
" />
<path d="M205.3866 193.7219
L205.4580 193.6505
" />
<path d="M205.4580 193.6505
L205.4580 193.7933
" />
<path d="M205.4580 192.8648
L205.5295 192.9362
" />
<path d="M205.5295 192.9362
L205.4580 193.0076
" />
<path d="M205.4580 193.0076
L205.3866 192.9362
" />
<path d="M205.3866 192.9362
L205.4580 192.8648
" />
<path d="M205.4580 192.8648
L205.4580 193.0076
" />
</g></g>
<g style="fill:none; 
stroke:#000000; stroke-width:0.1500; stroke-opacity:1; 
stroke-linecap:round; stroke-linejoin:round;">
<path d="M177.0022 194.5072
L285.0022 194.5072
" />
</g>
<g style="fill:none; 
stroke:#000000; stroke-width:0.1500; stroke-opacity:1; 
stroke-linecap:round; stroke-linejoin:round;">
<text x="178.0022" y="196.6572"
textLength="20.8643" font-size="2.0000" lengthAdjust="spacingAndGlyphs"
text-anchor="start" opacity="0" stroke-opacity="0">KiCad E.D.A. 8.0.5</text>
<g class="stroked-text"><desc>KiCad E.D.A. 8.0.5</desc>
<path d="M178.4580 196.5933
L178.4580 195.0933
" />
<path d="M179.3152 196.5933
L178.6723 195.7362
" />
<path d="M179.3152 195.0933
L178.4580 195.9505
" />
<path d="M179.9580 196.5933
L179.9580 195.5933
" />
<path d="M179.9580 195.0933
L179.8866 195.1648
" />
<path d="M179.8866 195.1648
L179.9580 195.2362
" />
<path d="M179.9580 195.2362
L180.0295 195.1648
" />
<path d="M180.0295 195.1648
L179.9580 195.0933
" />
<path d="M179.9580 195.0933
L179.9580 195.2362
" />
<path d="M181.5295 196.4505
L181.4580 196.5219
" />
<path d="M181.4580 196.5219
L181.2437 196.5933
" />
<path d="M181.2437 196.5933
L181.1009 196.5933
" />
<path d="M181.1009 196.5933
L180.8866 196.5219
" />
<path d="M180.8866 196.5219
L180.7437 196.3790
" />
<path d="M180.7437 196.3790
L180.6723 196.2362
" />
<path d="M180.6723 196.2362
L180.6009 195.9505
" />
<path d="M180.6009 195.9505
L180.6009 195.7362
" />
<path d="M180.6009 195.7362
L180.6723 195.4505
" />
<path d="M180.6723 195.4505
L180.7437 195.3076
" />
<path d="M180.7437 195.3076
L180.8866 195.1648
" />
<path d="M180.8866 195.1648
L181.1009 195.0933
" />
<path d="M181.1009 195.0933
L181.2437 195.0933
" />
<path d="M181.2437 195.0933
L181.4580 195.1648
" />
<path d="M181.4580 195.1648
L181.5295 195.2362
" />
<path d="M182.8152 196.5933
L182.8152 195.8076
" />
<path d="M182.8152 195.8076
L182.7437 195.6648
" />
<path d="M182.7437 195.6648
L182.6009 195.5933
" />
<path d="M182.6009 195.5933
L182.3152 195.5933
" />
<path d="M182.3152 195.5933
L182.1723 195.6648
" />
<path d="M182.8152 196.5219
L182.6723 196.5933
" />
<path d="M182.6723 196.5933
L182.3152 196.5933
" />
<path d="M182.3152 196.5933
L182.1723 196.5219
" />
<path d="M182.1723 196.5219
L182.1009 196.3790
" />
<path d="M182.1009 196.3790
L182.1009 196.2362
" />
<path d="M182.1009 196.2362
L182.1723 196.0933
" />
<path d="M182.1723 196.0933
L182.3152 196.0219
" />
<path d="M182.3152 196.0219
L182.6723 196.0219
" />
<path d="M182.6723 196.0219
L182.8152 195.9505
" />
<path d="M184.1723 196.5933
L184.1723 195.0933
" />
<path d="M184.1723 196.5219
L184.0295 196.5933
" />
<path d="M184.0295 196.5933
L183.7437 196.5933
" />
<path d="M183.7437 196.5933
L183.6009 196.5219
" />
<path d="M183.6009 196.5219
L183.5295 196.4505
" />
<path d="M183.5295 196.4505
L183.4580 196.3076
" />
<path d="M183.4580 196.3076
L183.4580 195.8790
" />
<path d="M183.4580 195.8790
L183.5295 195.7362
" />
<path d="M183.5295 195.7362
L183.6009 195.6648
" />
<path d="M183.6009 195.6648
L183.7437 195.5933
" />
<path d="M183.7437 195.5933
L184.0295 195.5933
" />
<path d="M184.0295 195.5933
L184.1723 195.6648
" />
<path d="M186.0295 195.8076
L186.5295 195.8076
" />
<path d="M186.7437 196.5933
L186.0295 196.5933
" />
<path d="M186.0295 196.5933
L186.0295 195.0933
" />
<path d="M186.0295 195.0933
L186.7437 195.0933
" />
<path d="M187.3866 196.4505
L187.4580 196.5219
" />
<path d="M187.4580 196.5219
L187.3866 196.5933
" />
<path d="M187.3866 196.5933
L187.3152 196.5219
" />
<path d="M187.3152 196.5219
L187.3866 196.4505
" />
<path d="M187.3866 196.4505
L187.3866 196.5933
" />
<path d="M188.1009 196.5933
L188.1009 195.0933
" />
<path d="M188.1009 195.0933
L188.4580 195.0933
" />
<path d="M188.4580 195.0933
L188.6723 195.1648
" />
<path d="M188.6723 195.1648
L188.8152 195.3076
" />
<path d="M188.8152 195.3076
L188.8866 195.4505
" />
<path d="M188.8866 195.4505
L188.9580 195.7362
" />
<path d="M188.9580 195.7362
L188.9580 195.9505
" />
<path d="M188.9580 195.9505
L188.8866 196.2362
" />
<path d="M188.8866 196.2362
L188.8152 196.3790
" />
<path d="M188.8152 196.3790
L188.6723 196.5219
" />
<path d="M188.6723 196.5219
L188.4580 196.5933
" />
<path d="M188.4580 196.5933
L188.1009 196.5933
" />
<path d="M189.6009 196.4505
L189.6723 196.5219
" />
<path d="M189.6723 196.5219
L189.6009 196.5933
" />
<path d="M189.6009 196.5933
L189.5295 196.5219
" />
<path d="M189.5295 196.5219
L189.6009 196.4505
" />
<path d="M189.6009 196.4505
L189.6009 196.5933
" />
<path d="M190.2437 196.1648
L190.9580 196.1648
" />
<path d="M190.1009 196.5933
L190.6009 195.0933
" />
<path d="M190.6009 195.0933
L191.1009 196.5933
" />
<path d="M191.6009 196.4505
L191.6723 196.5219
" />
<path d="M191.6723 196.5219
L191.6009 196.5933
" />
<path d="M191.6009 196.5933
L191.5295 196.5219
" />
<path d="M191.5295 196.5219
L191.6009 196.4505
" />
<path d="M191.6009 196.4505
L191.6009 196.5933
" />
<path d="M193.6723 195.7362
L193.5295 195.6648
" />
<path d="M193.5295 195.6648
L193.4580 195.5933
" />
<path d="M193.4580 195.5933
L193.3866 195.4505
" />
<path d="M193.3866 195.4505
L193.3866 195.3790
" />
<path d="M193.3866 195.3790
L193.4580 195.2362
" />
<path d="M193.4580 195.2362
L193.5295 195.1648
" />
<path d="M193.5295 195.1648
L193.6723 195.0933
" />
<path d="M193.6723 195.0933
L193.9580 195.0933
" />
<path d="M193.9580 195.0933
L194.1009 195.1648
" />
<path d="M194.1009 195.1648
L194.1723 195.2362
" />
<path d="M194.1723 195.2362
L194.2437 195.3790
" />
<path d="M194.2437 195.3790
L194.2437 195.4505
" />
<path d="M194.2437 195.4505
L194.1723 195.5933
" />
<path d="M194.1723 195.5933
L194.1009 195.6648
" />
<path d="M194.1009 195.6648
L193.9580 195.7362
" />
<path d="M193.9580 195.7362
L193.6723 195.7362
" />
<path d="M193.6723 195.7362
L193.5295 195.8076
" />
<path d="M193.5295 195.8076
L193.4580 195.8790
" />
<path d="M193.4580 195.8790
L193.3866 196.0219
" />
<path d="M193.3866 196.0219
L193.3866 196.3076
" />
<path d="M193.3866 196.3076
L193.4580 196.4505
" />
<path d="M193.4580 196.4505
L193.5295 196.5219
" />
<path d="M193.5295 196.5219
L193.6723 196.5933
" />
<path d="M193.6723 196.5933
L193.9580 196.5933
" />
<path d="M193.9580 196.5933
L194.1009 196.5219
" />
<path d="M194.1009 196.5219
L194.1723 196.4505
" />
<path d="M194.1723 196.4505
L194.2437 196.3076
" />
<path d="M194.2437 196.3076
L194.2437 196.0219
" />
<path d="M194.2437 196.0219
L194.1723 195.8790
" />
<path d="M194.1723 195.8790
L194.1009 195.8076
" />
<path d="M194.1009 195.8076
L193.9580 195.7362
" />
<path d="M194.8866 196.4505
L194.9580 196.5219
" />
<path d="M194.9580 196.5219
L194.8866 196.5933
" />
<path d="M194.8866 196.5933
L194.8152 196.5219
" />
<path d="M194.8152 196.5219
L194.8866 196.4505
" />
<path d="M194.8866 196.4505
L194.8866 196.5933
" />
<path d="M195.8866 195.0933
L196.0295 195.0933
" />
<path d="M196.0295 195.0933
L196.1723 195.1648
" />
<path d="M196.1723 195.1648
L196.2437 195.2362
" />
<path d="M196.2437 195.2362
L196.3152 195.3790
" />
<path d="M196.3152 195.3790
L196.3866 195.6648
" />
<path d="M196.3866 195.6648
L196.3866 196.0219
" />
<path d="M196.3866 196.0219
L196.3152 196.3076
" />
<path d="M196.3152 196.3076
L196.2437 196.4505
" />
<path d="M196.2437 196.4505
L196.1723 196.5219
" />
<path d="M196.1723 196.5219
L196.0295 196.5933
" />
<path d="M196.0295 196.5933
L195.8866 196.5933
" />
<path d="M195.8866 196.5933
L195.7437 196.5219
" />
<path d="M195.7437 196.5219
L195.6723 196.4505
" />
<path d="M195.6723 196.4505
L195.6009 196.3076
" />
<path d="M195.6009 196.3076
L195.5295 196.0219
" />
<path d="M195.5295 196.0219
L195.5295 195.6648
" />
<path d="M195.5295 195.6648
L195.6009 195.3790
" />
<path d="M195.6009 195.3790
L195.6723 195.2362
" />
<path d="M195.6723 195.2362
L195.7437 195.1648
" />
<path d="M195.7437 195.1648
L195.8866 195.0933
" />
<path d="M197.0295 196.4505
L197.1009 196.5219
" />
<path d="M197.1009 196.5219
L197.0295 196.5933
" />
<path d="M197.0295 196.5933
L196.9580 196.5219
" />
<path d="M196.9580 196.5219
L197.0295 196.4505
" />
<path d="M197.0295 196.4505
L197.0295 196.5933
" />
<path d="M198.4580 195.0933
L197.7437 195.0933
" />
<path d="M197.7437 195.0933
L197.6723 195.8076
" />
<path d="M197.6723 195.8076
L197.7437 195.7362
" />
<path d="M197.7437 195.7362
L197.8866 195.6648
" />
<path d="M197.8866 195.6648
L198.2437 195.6648
" />
<path d="M198.2437 195.6648
L198.3866 195.7362
" />
<path d="M198.3866 195.7362
L198.4580 195.8076
" />
<path d="M198.4580 195.8076
L198.5295 195.9505
" />
<path d="M198.5295 195.9505
L198.5295 196.3076
" />
<path d="M198.5295 196.3076
L198.4580 196.4505
" />
<path d="M198.4580 196.4505
L198.3866 196.5219
" />
<path d="M198.3866 196.5219
L198.2437 196.5933
" />
<path d="M198.2437 196.5933
L197.8866 196.5933
" />
<path d="M197.8866 196.5933
L197.7437 196.5219
" />
<path d="M197.7437 196.5219
L197.6723 196.4505
" />
</g></g>
<g style="fill:none; 
stroke:#000000; stroke-width:0.1500; stroke-opacity:1; 
stroke-linecap:round; stroke-linejoin:round;">
<path d="M177.0022 191.5072
L285.0022 191.5072
" />
</g>
<g style="fill:none; 
stroke:#000000; stroke-width:0.3000; stroke-opacity:1; 
stroke-linecap:round; stroke-linejoin:round;">
<text x="263.0022" y="193.8572"
textLength="6.3857" font-size="2.0000" lengthAdjust="spacingAndGlyphs"
text-anchor="start" opacity="0" stroke-opacity="0">Rev: </text>
<g class="stroked-text"><desc>Rev: </desc>
<path d="M264.4139 193.7855
L263.9139 193.0712
" />
<path d="M263.5567 193.7855
L263.5567 192.2855
" />
<path d="M263.5567 192.2855
L264.1281 192.2855
" />
<path d="M264.1281 192.2855
L264.2710 192.3570
" />
<path d="M264.2710 192.3570
L264.3424 192.4284
" />
<path d="M264.3424 192.4284
L264.4139 192.5712
" />
<path d="M264.4139 192.5712
L264.4139 192.7855
" />
<path d="M264.4139 192.7855
L264.3424 192.9284
" />
<path d="M264.3424 192.9284
L264.2710 192.9998
" />
<path d="M264.2710 192.9998
L264.1281 193.0712
" />
<path d="M264.1281 193.0712
L263.5567 193.0712
" />
<path d="M265.6281 193.7141
L265.4853 193.7855
" />
<path d="M265.4853 193.7855
L265.1996 193.7855
" />
<path d="M265.1996 193.7855
L265.0567 193.7141
" />
<path d="M265.0567 193.7141
L264.9853 193.5712
" />
<path d="M264.9853 193.5712
L264.9853 192.9998
" />
<path d="M264.9853 192.9998
L265.0567 192.8570
" />
<path d="M265.0567 192.8570
L265.1996 192.7855
" />
<path d="M265.1996 192.7855
L265.4853 192.7855
" />
<path d="M265.4853 192.7855
L265.6281 192.8570
" />
<path d="M265.6281 192.8570
L265.6996 192.9998
" />
<path d="M265.6996 192.9998
L265.6996 193.1427
" />
<path d="M265.6996 193.1427
L264.9853 193.2855
" />
<path d="M266.1996 192.7855
L266.5567 193.7855
" />
<path d="M266.5567 193.7855
L266.9139 192.7855
" />
<path d="M267.4853 193.6427
L267.5567 193.7141
" />
<path d="M267.5567 193.7141
L267.4853 193.7855
" />
<path d="M267.4853 193.7855
L267.4139 193.7141
" />
<path d="M267.4139 193.7141
L267.4853 193.6427
" />
<path d="M267.4853 193.6427
L267.4853 193.7855
" />
<path d="M267.4853 192.8570
L267.5567 192.9284
" />
<path d="M267.5567 192.9284
L267.4853 192.9998
" />
<path d="M267.4853 192.9998
L267.4139 192.9284
" />
<path d="M267.4139 192.9284
L267.4853 192.8570
" />
<path d="M267.4853 192.8570
L267.4853 192.9998
" />
</g></g>
<g style="fill:none; 
stroke:#000000; stroke-width:0.1500; stroke-opacity:1; 
stroke-linecap:round; stroke-linejoin:round;">
<text x="178.0022" y="193.8572"
textLength="9.3643" font-size="2.0000" lengthAdjust="spacingAndGlyphs"
text-anchor="start" opacity="0" stroke-opacity="0">Size: A4</text>
<g class="stroked-text"><desc>Size: A4</desc>
<path d="M178.3866 193.7219
L178.6009 193.7933
" />
<path d="M178.6009 193.7933
L178.9580 193.7933
" />
<path d="M178.9580 193.7933
L179.1009 193.7219
" />
<path d="M179.1009 193.7219
L179.1723 193.6505
" />
<path d="M179.1723 193.6505
L179.2437 193.5076
" />
<path d="M179.2437 193.5076
L179.2437 193.3648
" />
<path d="M179.2437 193.3648
L179.1723 193.2219
" />
<path d="M179.1723 193.2219
L179.1009 193.1505
" />
<path d="M179.1009 193.1505
L178.9580 193.0790
" />
<path d="M178.9580 193.0790
L178.6723 193.0076
" />
<path d="M178.6723 193.0076
L178.5295 192.9362
" />
<path d="M178.5295 192.9362
L178.4580 192.8648
" />
<path d="M178.4580 192.8648
L178.3866 192.7219
" />
<path d="M178.3866 192.7219
L178.3866 192.5790
" />
<path d="M178.3866 192.5790
L178.4580 192.4362
" />
<path d="M178.4580 192.4362
L178.5295 192.3648
" />
<path d="M178.5295 192.3648
L178.6723 192.2933
" />
<path d="M178.6723 192.2933
L179.0295 192.2933
" />
<path d="M179.0295 192.2933
L179.2437 192.3648
" />
<path d="M179.8866 193.7933
L179.8866 192.7933
" />
<path d="M179.8866 192.2933
L179.8152 192.3648
" />
<path d="M179.8152 192.3648
L179.8866 192.4362
" />
<path d="M179.8866 192.4362
L179.9580 192.3648
" />
<path d="M179.9580 192.3648
L179.8866 192.2933
" />
<path d="M179.8866 192.2933
L179.8866 192.4362
" />
<path d="M180.4580 192.7933
L181.2437 192.7933
" />
<path d="M181.2437 192.7933
L180.4580 193.7933
" />
<path d="M180.4580 193.7933
L181.2437 193.7933
" />
<path d="M182.3866 193.7219
L182.2437 193.7933
" />
<path d="M182.2437 193.7933
L181.9580 193.7933
" />
<path d="M181.9580 193.7933
L181.8152 193.7219
" />
<path d="M181.8152 193.7219
L181.7437 193.5790
" />
<path d="M181.7437 193.5790
L181.7437 193.0076
" />
<path d="M181.7437 193.0076
L181.8152 192.8648
" />
<path d="M181.8152 192.8648
L181.9580 192.7933
" />
<path d="M181.9580 192.7933
L182.2437 192.7933
" />
<path d="M182.2437 192.7933
L182.3866 192.8648
" />
<path d="M182.3866 192.8648
L182.4580 193.0076
" />
<path d="M182.4580 193.0076
L182.4580 193.1505
" />
<path d="M182.4580 193.1505
L181.7437 193.2933
" />
<path d="M183.1009 193.6505
L183.1723 193.7219
" />
<path d="M183.1723 193.7219
L183.1009 193.7933
" />
<path d="M183.1009 193.7933
L183.0295 193.7219
" />
<path d="M183.0295 193.7219
L183.1009 193.6505
" />
<path d="M183.1009 193.6505
L183.1009 193.7933
" />
<path d="M183.1009 192.8648
L183.1723 192.9362
" />
<path d="M183.1723 192.9362
L183.1009 193.0076
" />
<path d="M183.1009 193.0076
L183.0295 192.9362
" />
<path d="M183.0295 192.9362
L183.1009 192.8648
" />
<path d="M183.1009 192.8648
L183.1009 193.0076
" />
<path d="M184.8866 193.3648
L185.6009 193.3648
" />
<path d="M184.7437 193.7933
L185.2437 192.2933
" />
<path d="M185.2437 192.2933
L185.7437 193.7933
" />
<path d="M186.8866 192.7933
L186.8866 193.7933
" />
<path d="M186.5295 192.2219
L186.1723 193.2933
" />
<path d="M186.1723 193.2933
L187.1009 193.2933
" />
</g></g>
<g style="fill:none; 
stroke:#000000; stroke-width:0.1500; stroke-opacity:1; 
stroke-linecap:round; stroke-linejoin:round;">
<text x="263.0022" y="196.6572"
textLength="8.5071" font-size="2.0000" lengthAdjust="spacingAndGlyphs"
text-anchor="start" opacity="0" stroke-opacity="0">Id: 1/1</text>
<g class="stroked-text"><desc>Id: 1/1</desc>
<path d="M263.4580 196.5933
L263.4580 195.0933
" />
<path d="M264.8152 196.5933
L264.8152 195.0933
" />
<path d="M264.8152 196.5219
L264.6723 196.5933
" />
<path d="M264.6723 196.5933
L264.3866 196.5933
" />
<path d="M264.3866 196.5933
L264.2437 196.5219
" />
<path d="M264.2437 196.5219
L264.1723 196.4505
" />
<path d="M264.1723 196.4505
L264.1009 196.3076
" />
<path d="M264.1009 196.3076
L264.1009 195.8790
" />
<path d="M264.1009 195.8790
L264.1723 195.7362
" />
<path d="M264.1723 195.7362
L264.2437 195.6648
" />
<path d="M264.2437 195.6648
L264.3866 195.5933
" />
<path d="M264.3866 195.5933
L264.6723 195.5933
" />
<path d="M264.6723 195.5933
L264.8152 195.6648
" />
<path d="M265.5295 196.4505
L265.6009 196.5219
" />
<path d="M265.6009 196.5219
L265.5295 196.5933
" />
<path d="M265.5295 196.5933
L265.4580 196.5219
" />
<path d="M265.4580 196.5219
L265.5295 196.4505
" />
<path d="M265.5295 196.4505
L265.5295 196.5933
" />
<path d="M265.5295 195.6648
L265.6009 195.7362
" />
<path d="M265.6009 195.7362
L265.5295 195.8076
" />
<path d="M265.5295 195.8076
L265.4580 195.7362
" />
<path d="M265.4580 195.7362
L265.5295 195.6648
" />
<path d="M265.5295 195.6648
L265.5295 195.8076
" />
<path d="M268.1723 196.5933
L267.3152 196.5933
" />
<path d="M267.7437 196.5933
L267.7437 195.0933
" />
<path d="M267.7437 195.0933
L267.6009 195.3076
" />
<path d="M267.6009 195.3076
L267.4580 195.4505
" />
<path d="M267.4580 195.4505
L267.3152 195.5219
" />
<path d="M269.8866 195.0219
L268.6009 196.9505
" />
<path d="M271.1723 196.5933
L270.3152 196.5933
" />
<path d="M270.7437 196.5933
L270.7437 195.0933
" />
<path d="M270.7437 195.0933
L270.6009 195.3076
" />
<path d="M270.6009 195.3076
L270.4580 195.4505
" />
<path d="M270.4580 195.4505
L270.3152 195.5219
" />
</g></g>
<g style="fill:none; 
stroke:#000000; stroke-width:0.1500; stroke-opacity:1; 
stroke-linecap:round; stroke-linejoin:round;">
<path d="M177.0022 187.5072
L285.0022 187.5072
" />
</g>
<g style="fill:none; 
stroke:#000000; stroke-width:0.4000; stroke-opacity:1; 
stroke-linecap:round; stroke-linejoin:round;">
<text x="178.0022" y="190.3072"
textLength="9.6571" font-size="2.6667" lengthAdjust="spacingAndGlyphs"
text-anchor="start" opacity="0" stroke-opacity="0">Title: </text>
<g class="stroked-text"><desc>Title: </desc>
<path d="M178.6939 188.2116
L179.8368 188.2116
" />
<path d="M179.0154 190.2116
L179.2654 188.2116
" />
<path d="M180.2535 190.2116
L180.4201 188.8783
" />
<path d="M180.5035 188.2116
L180.3963 188.3069
" />
<path d="M180.3963 188.3069
L180.4796 188.4021
" />
<path d="M180.4796 188.4021
L180.5868 188.3069
" />
<path d="M180.5868 188.3069
L180.5035 188.2116
" />
<path d="M180.5035 188.2116
L180.4796 188.4021
" />
<path d="M181.0868 188.8783
L181.8487 188.8783
" />
<path d="M181.4558 188.2116
L181.2415 189.9259
" />
<path d="M181.2415 189.9259
L181.3130 190.1164
" />
<path d="M181.3130 190.1164
L181.4915 190.2116
" />
<path d="M181.4915 190.2116
L181.6820 190.2116
" />
<path d="M182.6344 190.2116
L182.4558 190.1164
" />
<path d="M182.4558 190.1164
L182.3844 189.9259
" />
<path d="M182.3844 189.9259
L182.5987 188.2116
" />
<path d="M184.1701 190.1164
L183.9677 190.2116
" />
<path d="M183.9677 190.2116
L183.5868 190.2116
" />
<path d="M183.5868 190.2116
L183.4082 190.1164
" />
<path d="M183.4082 190.1164
L183.3368 189.9259
" />
<path d="M183.3368 189.9259
L183.4320 189.1640
" />
<path d="M183.4320 189.1640
L183.5511 188.9735
" />
<path d="M183.5511 188.9735
L183.7535 188.8783
" />
<path d="M183.7535 188.8783
L184.1344 188.8783
" />
<path d="M184.1344 188.8783
L184.3130 188.9735
" />
<path d="M184.3130 188.9735
L184.3844 189.1640
" />
<path d="M184.3844 189.1640
L184.3606 189.3545
" />
<path d="M184.3606 189.3545
L183.3844 189.5450
" />
<path d="M185.1344 190.0212
L185.2177 190.1164
" />
<path d="M185.2177 190.1164
L185.1106 190.2116
" />
<path d="M185.1106 190.2116
L185.0273 190.1164
" />
<path d="M185.0273 190.1164
L185.1344 190.0212
" />
<path d="M185.1344 190.0212
L185.1106 190.2116
" />
<path d="M185.2654 188.9735
L185.3487 189.0688
" />
<path d="M185.3487 189.0688
L185.2415 189.1640
" />
<path d="M185.2415 189.1640
L185.1582 189.0688
" />
<path d="M185.1582 189.0688
L185.2654 188.9735
" />
<path d="M185.2654 188.9735
L185.2415 189.1640
" />
</g></g>
<g style="fill:none; 
stroke:#000000; stroke-width:0.1500; stroke-opacity:1; 
stroke-linecap:round; stroke-linejoin:round;">
<text x="178.0022" y="186.4572"
textLength="30.3643" font-size="2.0000" lengthAdjust="spacingAndGlyphs"
text-anchor="start" opacity="0" stroke-opacity="0">File: MyHackPad.kicad_pcb</text>
<g class="stroked-text"><desc>File: MyHackPad.kicad_pcb</desc>
<path d="M178.9580 185.6076
L178.4580 185.6076
" />
<path d="M178.4580 186.3933
L178.4580 184.8933
" />
<path d="M178.4580 184.8933
L179.1723 184.8933
" />
<path d="M179.7437 186.3933
L179.7437 185.3933
" />
<path d="M179.7437 184.8933
L179.6723 184.9648
" />
<path d="M179.6723 184.9648
L179.7437 185.0362
" />
<path d="M179.7437 185.0362
L179.8152 184.9648
" />
<path d="M179.8152 184.9648
L179.7437 184.8933
" />
<path d="M179.7437 184.8933
L179.7437 185.0362
" />
<path d="M180.6723 186.3933
L180.5295 186.3219
" />
<path d="M180.5295 186.3219
L180.4580 186.1790
" />
<path d="M180.4580 186.1790
L180.4580 184.8933
" />
<path d="M181.8152 186.3219
L181.6723 186.3933
" />
<path d="M181.6723 186.3933
L181.3866 186.3933
" />
<path d="M181.3866 186.3933
L181.2437 186.3219
" />
<path d="M181.2437 186.3219
L181.1723 186.1790
" />
<path d="M181.1723 186.1790
L181.1723 185.6076
" />
<path d="M181.1723 185.6076
L181.2437 185.4648
" />
<path d="M181.2437 185.4648
L181.3866 185.3933
" />
<path d="M181.3866 185.3933
L181.6723 185.3933
" />
<path d="M181.6723 185.3933
L181.8152 185.4648
" />
<path d="M181.8152 185.4648
L181.8866 185.6076
" />
<path d="M181.8866 185.6076
L181.8866 185.7505
" />
<path d="M181.8866 185.7505
L181.1723 185.8933
" />
<path d="M182.5295 186.2505
L182.6009 186.3219
" />
<path d="M182.6009 186.3219
L182.5295 186.3933
" />
<path d="M182.5295 186.3933
L182.4580 186.3219
" />
<path d="M182.4580 186.3219
L182.5295 186.2505
" />
<path d="M182.5295 186.2505
L182.5295 186.3933
" />
<path d="M182.5295 185.4648
L182.6009 185.5362
" />
<path d="M182.6009 185.5362
L182.5295 185.6076
" />
<path d="M182.5295 185.6076
L182.4580 185.5362
" />
<path d="M182.4580 185.5362
L182.5295 185.4648
" />
<path d="M182.5295 185.4648
L182.5295 185.6076
" />
<path d="M184.3866 186.3933
L184.3866 184.8933
" />
<path d="M184.3866 184.8933
L184.8866 185.9648
" />
<path d="M184.8866 185.9648
L185.3866 184.8933
" />
<path d="M185.3866 184.8933
L185.3866 186.3933
" />
<path d="M185.9580 185.3933
L186.3152 186.3933
" />
<path d="M186.6723 185.3933
L186.3152 186.3933
" />
<path d="M186.3152 186.3933
L186.1723 186.7505
" />
<path d="M186.1723 186.7505
L186.1009 186.8219
" />
<path d="M186.1009 186.8219
L185.9580 186.8933
" />
<path d="M187.2437 186.3933
L187.2437 184.8933
" />
<path d="M187.2437 185.6076
L188.1009 185.6076
" />
<path d="M188.1009 186.3933
L188.1009 184.8933
" />
<path d="M189.4580 186.3933
L189.4580 185.6076
" />
<path d="M189.4580 185.6076
L189.3866 185.4648
" />
<path d="M189.3866 185.4648
L189.2437 185.3933
" />
<path d="M189.2437 185.3933
L188.9580 185.3933
" />
<path d="M188.9580 185.3933
L188.8152 185.4648
" />
<path d="M189.4580 186.3219
L189.3152 186.3933
" />
<path d="M189.3152 186.3933
L188.9580 186.3933
" />
<path d="M188.9580 186.3933
L188.8152 186.3219
" />
<path d="M188.8152 186.3219
L188.7437 186.1790
" />
<path d="M188.7437 186.1790
L188.7437 186.0362
" />
<path d="M188.7437 186.0362
L188.8152 185.8933
" />
<path d="M188.8152 185.8933
L188.9580 185.8219
" />
<path d="M188.9580 185.8219
L189.3152 185.8219
" />
<path d="M189.3152 185.8219
L189.4580 185.7505
" />
<path d="M190.8152 186.3219
L190.6723 186.3933
" />
<path d="M190.6723 186.3933
L190.3866 186.3933
" />
<path d="M190.3866 186.3933
L190.2437 186.3219
" />
<path d="M190.2437 186.3219
L190.1723 186.2505
" />
<path d="M190.1723 186.2505
L190.1009 186.1076
" />
<path d="M190.1009 186.1076
L190.1009 185.6790
" />
<path d="M190.1009 185.6790
L190.1723 185.5362
" />
<path d="M190.1723 185.5362
L190.2437 185.4648
" />
<path d="M190.2437 185.4648
L190.3866 185.3933
" />
<path d="M190.3866 185.3933
L190.6723 185.3933
" />
<path d="M190.6723 185.3933
L190.8152 185.4648
" />
<path d="M191.4580 186.3933
L191.4580 184.8933
" />
<path d="M191.6009 185.8219
L192.0295 186.3933
" />
<path d="M192.0295 185.3933
L191.4580 185.9648
" />
<path d="M192.6723 186.3933
L192.6723 184.8933
" />
<path d="M192.6723 184.8933
L193.2437 184.8933
" />
<path d="M193.2437 184.8933
L193.3866 184.9648
" />
<path d="M193.3866 184.9648
L193.4580 185.0362
" />
<path d="M193.4580 185.0362
L193.5295 185.1790
" />
<path d="M193.5295 185.1790
L193.5295 185.3933
" />
<path d="M193.5295 185.3933
L193.4580 185.5362
" />
<path d="M193.4580 185.5362
L193.3866 185.6076
" />
<path d="M193.3866 185.6076
L193.2437 185.6790
" />
<path d="M193.2437 185.6790
L192.6723 185.6790
" />
<path d="M194.8152 186.3933
L194.8152 185.6076
" />
<path d="M194.8152 185.6076
L194.7437 185.4648
" />
<path d="M194.7437 185.4648
L194.6009 185.3933
" />
<path d="M194.6009 185.3933
L194.3152 185.3933
" />
<path d="M194.3152 185.3933
L194.1723 185.4648
" />
<path d="M194.8152 186.3219
L194.6723 186.3933
" />
<path d="M194.6723 186.3933
L194.3152 186.3933
" />
<path d="M194.3152 186.3933
L194.1723 186.3219
" />
<path d="M194.1723 186.3219
L194.1009 186.1790
" />
<path d="M194.1009 186.1790
L194.1009 186.0362
" />
<path d="M194.1009 186.0362
L194.1723 185.8933
" />
<path d="M194.1723 185.8933
L194.3152 185.8219
" />
<path d="M194.3152 185.8219
L194.6723 185.8219
" />
<path d="M194.6723 185.8219
L194.8152 185.7505
" />
<path d="M196.1723 186.3933
L196.1723 184.8933
" />
<path d="M196.1723 186.3219
L196.0295 186.3933
" />
<path d="M196.0295 186.3933
L195.7437 186.3933
" />
<path d="M195.7437 186.3933
L195.6009 186.3219
" />
<path d="M195.6009 186.3219
L195.5295 186.2505
" />
<path d="M195.5295 186.2505
L195.4580 186.1076
" />
<path d="M195.4580 186.1076
L195.4580 185.6790
" />
<path d="M195.4580 185.6790
L195.5295 185.5362
" />
<path d="M195.5295 185.5362
L195.6009 185.4648
" />
<path d="M195.6009 185.4648
L195.7437 185.3933
" />
<path d="M195.7437 185.3933
L196.0295 185.3933
" />
<path d="M196.0295 185.3933
L196.1723 185.4648
" />
<path d="M196.8866 186.2505
L196.9580 186.3219
" />
<path d="M196.9580 186.3219
L196.8866 186.3933
" />
<path d="M196.8866 186.3933
L196.8152 186.3219
" />
<path d="M196.8152 186.3219
L196.8866 186.2505
" />
<path d="M196.8866 186.2505
L196.8866 186.3933
" />
<path d="M197.6009 186.3933
L197.6009 184.8933
" />
<path d="M197.7437 185.8219
L198.1723 186.3933
" />
<path d="M198.1723 185.3933
L197.6009 185.9648
" />
<path d="M198.8152 186.3933
L198.8152 185.3933
" />
<path d="M198.8152 184.8933
L198.7437 184.9648
" />
<path d="M198.7437 184.9648
L198.8152 185.0362
" />
<path d="M198.8152 185.0362
L198.8866 184.9648
" />
<path d="M198.8866 184.9648
L198.8152 184.8933
" />
<path d="M198.8152 184.8933
L198.8152 185.0362
" />
<path d="M200.1723 186.3219
L200.0295 186.3933
" />
<path d="M200.0295 186.3933
L199.7437 186.3933
" />
<path d="M199.7437 186.3933
L199.6009 186.3219
" />
<path d="M199.6009 186.3219
L199.5295 186.2505
" />
<path d="M199.5295 186.2505
L199.4580 186.1076
" />
<path d="M199.4580 186.1076
L199.4580 185.6790
" />
<path d="M199.4580 185.6790
L199.5295 185.5362
" />
<path d="M199.5295 185.5362
L199.6009 185.4648
" />
<path d="M199.6009 185.4648
L199.7437 185.3933
" />
<path d="M199.7437 185.3933
L200.0295 185.3933
" />
<path d="M200.0295 185.3933
L200.1723 185.4648
" />
<path d="M201.4580 186.3933
L201.4580 185.6076
" />
<path d="M201.4580 185.6076
L201.3866 185.4648
" />
<path d="M201.3866 185.4648
L201.2437 185.3933
" />
<path d="M201.2437 185.3933
L200.9580 185.3933
" />
<path d="M200.9580 185.3933
L200.8152 185.4648
" />
<path d="M201.4580 186.3219
L201.3152 186.3933
" />
<path d="M201.3152 186.3933
L200.9580 186.3933
" />
<path d="M200.9580 186.3933
L200.8152 186.3219
" />
<path d="M200.8152 186.3219
L200.7437 186.1790
" />
<path d="M200.7437 186.1790
L200.7437 186.0362
" />
<path d="M200.7437 186.0362
L200.8152 185.8933
" />
<path d="M200.8152 185.8933
L200.9580 185.8219
" />
<path d="M200.9580 185.8219
L201.3152 185.8219
" />
<path d="M201.3152 185.8219
L201.4580 185.7505
" />
<path d="M202.8152 186.3933
L202.8152 184.8933
" />
<path d="M202.8152 186.3219
L202.6723 186.3933
" />
<path d="M202.6723 186.3933
L202.3866 186.3933
" />
<path d="M202.3866 186.3933
L202.2437 186.3219
" />
<path d="M202.2437 186.3219
L202.1723 186.2505
" />
<path d="M202.1723 186.2505
L202.1009 186.1076
" />
<path d="M202.1009 186.1076
L202.1009 185.6790
" />
<path d="M202.1009 185.6790
L202.1723 185.5362
" />
<path d="M202.1723 185.5362
L202.2437 185.4648
" />
<path d="M202.2437 185.4648
L202.3866 185.3933
" />
<path d="M202.3866 185.3933
L202.6723 185.3933
" />
<path d="M202.6723 185.3933
L202.8152 185.4648
" />
<path d="M203.1723 186.5362
L204.3152 186.5362
" />
<path d="M204.6723 185.3933
L204.6723 186.8933
" />
<path d="M204.6723 185.4648
L204.8152 185.3933
" />
<path d="M204.8152 185.3933
L205.1009 185.3933
" />
<path d="M205.1009 185.3933
L205.2437 185.4648
" />
<path d="M205.2437 185.4648
L205.3152 185.5362
" />
<path d="M205.3152 185.5362
L205.3866 185.6790
" />
<path d="M205.3866 185.6790
L205.3866 186.1076
" />
<path d="M205.3866 186.1076
L205.3152 186.2505
" />
<path d="M205.3152 186.2505
L205.2437 186.3219
" />
<path d="M205.2437 186.3219
L205.1009 186.3933
" />
<path d="M205.1009 186.3933
L204.8152 186.3933
" />
<path d="M204.8152 186.3933
L204.6723 186.3219
" />
<path d="M206.6723 186.3219
L206.5295 186.3933
" />
<path d="M206.5295 186.3933
L206.2437 186.3933
" />
<path d="M206.2437 186.3933
L206.1009 186.3219
" />
<path d="M206.1009 186.3219
L206.0295 186.2505
" />
<path d="M206.0295 186.2505
L205.9580 186.1076
" />
<path d="M205.9580 186.1076
L205.9580 185.6790
" />
<path d="M205.9580 185.6790
L206.0295 185.5362
" />
<path d="M206.0295 185.5362
L206.1009 185.4648
" />
<path d="M206.1009 185.4648
L206.2437 185.3933
" />
<path d="M206.2437 185.3933
L206.5295 185.3933
" />
<path d="M206.5295 185.3933
L206.6723 185.4648
" />
<path d="M207.3152 186.3933
L207.3152 184.8933
" />
<path d="M207.3152 185.4648
L207.4580 185.3933
" />
<path d="M207.4580 185.3933
L207.7437 185.3933
" />
<path d="M207.7437 185.3933
L207.8866 185.4648
" />
<path d="M207.8866 185.4648
L207.9580 185.5362
" />
<path d="M207.9580 185.5362
L208.0295 185.6790
" />
<path d="M208.0295 185.6790
L208.0295 186.1076
" />
<path d="M208.0295 186.1076
L207.9580 186.2505
" />
<path d="M207.9580 186.2505
L207.8866 186.3219
" />
<path d="M207.8866 186.3219
L207.7437 186.3933
" />
<path d="M207.7437 186.3933
L207.4580 186.3933
" />
<path d="M207.4580 186.3933
L207.3152 186.3219
" />
</g></g>
<g style="fill:none; 
stroke:#000000; stroke-width:0.1500; stroke-opacity:1; 
stroke-linecap:round; stroke-linejoin:round;">
<path d="M177.0022 181.5072
L285.0022 181.5072
" />
</g>
<g style="fill:none; 
stroke:#000000; stroke-width:0.1500; stroke-opacity:1; 
stroke-linecap:round; stroke-linejoin:round;">
<text x="178.0022" y="183.7572"
textLength="8.2214" font-size="2.0000" lengthAdjust="spacingAndGlyphs"
text-anchor="start" opacity="0" stroke-opacity="0">Sheet: </text>
<g class="stroked-text"><desc>Sheet: </desc>
<path d="M178.3866 183.6219
L178.6009 183.6933
" />
<path d="M178.6009 183.6933
L178.9580 183.6933
" />
<path d="M178.9580 183.6933
L179.1009 183.6219
" />
<path d="M179.1009 183.6219
L179.1723 183.5505
" />
<path d="M179.1723 183.5505
L179.2437 183.4076
" />
<path d="M179.2437 183.4076
L179.2437 183.2648
" />
<path d="M179.2437 183.2648
L179.1723 183.1219
" />
<path d="M179.1723 183.1219
L179.1009 183.0505
" />
<path d="M179.1009 183.0505
L178.9580 182.9790
" />
<path d="M178.9580 182.9790
L178.6723 182.9076
" />
<path d="M178.6723 182.9076
L178.5295 182.8362
" />
<path d="M178.5295 182.8362
L178.4580 182.7648
" />
<path d="M178.4580 182.7648
L178.3866 182.6219
" />
<path d="M178.3866 182.6219
L178.3866 182.4790
" />
<path d="M178.3866 182.4790
L178.4580 182.3362
" />
<path d="M178.4580 182.3362
L178.5295 182.2648
" />
<path d="M178.5295 182.2648
L178.6723 182.1933
" />
<path d="M178.6723 182.1933
L179.0295 182.1933
" />
<path d="M179.0295 182.1933
L179.2437 182.2648
" />
<path d="M179.8866 183.6933
L179.8866 182.1933
" />
<path d="M180.5295 183.6933
L180.5295 182.9076
" />
<path d="M180.5295 182.9076
L180.4580 182.7648
" />
<path d="M180.4580 182.7648
L180.3152 182.6933
" />
<path d="M180.3152 182.6933
L180.1009 182.6933
" />
<path d="M180.1009 182.6933
L179.9580 182.7648
" />
<path d="M179.9580 182.7648
L179.8866 182.8362
" />
<path d="M181.8152 183.6219
L181.6723 183.6933
" />
<path d="M181.6723 183.6933
L181.3866 183.6933
" />
<path d="M181.3866 183.6933
L181.2437 183.6219
" />
<path d="M181.2437 183.6219
L181.1723 183.4790
" />
<path d="M181.1723 183.4790
L181.1723 182.9076
" />
<path d="M181.1723 182.9076
L181.2437 182.7648
" />
<path d="M181.2437 182.7648
L181.3866 182.6933
" />
<path d="M181.3866 182.6933
L181.6723 182.6933
" />
<path d="M181.6723 182.6933
L181.8152 182.7648
" />
<path d="M181.8152 182.7648
L181.8866 182.9076
" />
<path d="M181.8866 182.9076
L181.8866 183.0505
" />
<path d="M181.8866 183.0505
L181.1723 183.1933
" />
<path d="M183.1009 183.6219
L182.9580 183.6933
" />
<path d="M182.9580 183.6933
L182.6723 183.6933
" />
<path d="M182.6723 183.6933
L182.5295 183.6219
" />
<path d="M182.5295 183.6219
L182.4580 183.4790
" />
<path d="M182.4580 183.4790
L182.4580 182.9076
" />
<path d="M182.4580 182.9076
L182.5295 182.7648
" />
<path d="M182.5295 182.7648
L182.6723 182.6933
" />
<path d="M182.6723 182.6933
L182.9580 182.6933
" />
<path d="M182.9580 182.6933
L183.1009 182.7648
" />
<path d="M183.1009 182.7648
L183.1723 182.9076
" />
<path d="M183.1723 182.9076
L183.1723 183.0505
" />
<path d="M183.1723 183.0505
L182.4580 183.1933
" />
<path d="M183.6009 182.6933
L184.1723 182.6933
" />
<path d="M183.8152 182.1933
L183.8152 183.4790
" />
<path d="M183.8152 183.4790
L183.8866 183.6219
" />
<path d="M183.8866 183.6219
L184.0295 183.6933
" />
<path d="M184.0295 183.6933
L184.1723 183.6933
" />
<path d="M184.6723 183.5505
L184.7437 183.6219
" />
<path d="M184.7437 183.6219
L184.6723 183.6933
" />
<path d="M184.6723 183.6933
L184.6009 183.6219
" />
<path d="M184.6009 183.6219
L184.6723 183.5505
" />
<path d="M184.6723 183.5505
L184.6723 183.6933
" />
<path d="M184.6723 182.7648
L184.7437 182.8362
" />
<path d="M184.7437 182.8362
L184.6723 182.9076
" />
<path d="M184.6723 182.9076
L184.6009 182.8362
" />
<path d="M184.6009 182.8362
L184.6723 182.7648
" />
<path d="M184.6723 182.7648
L184.6723 182.9076
" />
</g></g>
<g style="fill:none; 
stroke:#000000; stroke-width:0.3000; stroke-opacity:1; 
stroke-linecap:round; stroke-linejoin:round;">
<text x="178.0022" y="180.7572"
textLength="0.9000" font-size="2.0000" lengthAdjust="spacingAndGlyphs"
text-anchor="start" opacity="0" stroke-opacity="0"></text>
<g class="stroked-text"><desc></desc>
</g></g>
<g style="fill:none; 
stroke:#000000; stroke-width:0.1500; stroke-opacity:1; 
stroke-linecap:round; stroke-linejoin:round;">
<text x="178.0022" y="177.7572"
textLength="0.4500" font-size="2.0000" lengthAdjust="spacingAndGlyphs"
text-anchor="start" opacity="0" stroke-opacity="0"></text>
<g class="stroked-text"><desc></desc>
</g></g>
<g style="fill:none; 
stroke:#000000; stroke-width:0.1500; stroke-opacity:1; 
stroke-linecap:round; stroke-linejoin:round;">
<text x="178.0022" y="174.7572"
textLength="0.4500" font-size="2.0000" lengthAdjust="spacingAndGlyphs"
text-anchor="start" opacity="0" stroke-opacity="0"></text>
<g class="stroked-text"><desc></desc>
</g></g>
<g style="fill:none; 
stroke:#000000; stroke-width:0.1500; stroke-opacity:1; 
stroke-linecap:round; stroke-linejoin:round;">
<text x="178.0022" y="171.7572"
textLength="0.4500" font-size="2.0000" lengthAdjust="spacingAndGlyphs"
text-anchor="start" opacity="0" stroke-opacity="0"></text>
<g class="stroked-text"><desc></desc>
</g></g>
<g style="fill:none; 
stroke:#000000; stroke-width:0.1500; stroke-opacity:1; 
stroke-linecap:round; stroke-linejoin:round;">
<text x="178.0022" y="168.7572"
textLength="0.4500" font-size="2.0000" lengthAdjust="spacingAndGlyphs"
text-anchor="start" opacity="0" stroke-opacity="0"></text>
<g class="stroked-text"><desc></desc>
</g></g>
<g style="fill:none; 
stroke:#000000; stroke-width:0.1500; stroke-opacity:1; 
stroke-linecap:round; stroke-linejoin:round;">
<path d="M197.0022 191.5072
L197.0022 194.5072
" />
</g>
<g style="fill:none; 
stroke:#000000; stroke-width:0.1500; stroke-opacity:1; 
stroke-linecap:round; stroke-linejoin:round;">
<path d="M261.0022 191.5072
L261.0022 198.0072
" />
</g>
<g style="fill:none; 
stroke:#008484; stroke-width:0.1500; stroke-opacity:1; 
stroke-linecap:round; stroke-linejoin:round;">
<text x="77.0550" y="23.3260"
textLength="3.2976" font-size="1.3333" lengthAdjust="spacingAndGlyphs"
text-anchor="middle" opacity="0" stroke-opacity="0">SW1</text>
<g class="stroked-text"><desc>SW1</desc>
<path d="M75.7217 23.2332
L75.8645 23.2808
" />
<path d="M75.8645 23.2808
L76.1026 23.2808
" />
<path d="M76.1026 23.2808
L76.1979 23.2332
" />
<path d="M76.1979 23.2332
L76.2455 23.1856
" />
<path d="M76.2455 23.1856
L76.2931 23.0903
" />
<path d="M76.2931 23.0903
L76.2931 22.9951
" />
<path d="M76.2931 22.9951
L76.2455 22.8999
" />
<path d="M76.2455 22.8999
L76.1979 22.8522
" />
<path d="M76.1979 22.8522
L76.1026 22.8046
" />
<path d="M76.1026 22.8046
L75.9121 22.7570
" />
<path d="M75.9121 22.7570
L75.8169 22.7094
" />
<path d="M75.8169 22.7094
L75.7693 22.6618
" />
<path d="M75.7693 22.6618
L75.7217 22.5665
" />
<path d="M75.7217 22.5665
L75.7217 22.4713
" />
<path d="M75.7217 22.4713
L75.7693 22.3761
" />
<path d="M75.7693 22.3761
L75.8169 22.3284
" />
<path d="M75.8169 22.3284
L75.9121 22.2808
" />
<path d="M75.9121 22.2808
L76.1502 22.2808
" />
<path d="M76.1502 22.2808
L76.2931 22.3284
" />
<path d="M76.6264 22.2808
L76.8645 23.2808
" />
<path d="M76.8645 23.2808
L77.0550 22.5665
" />
<path d="M77.0550 22.5665
L77.2455 23.2808
" />
<path d="M77.2455 23.2808
L77.4836 22.2808
" />
<path d="M78.3883 23.2808
L77.8169 23.2808
" />
<path d="M78.1026 23.2808
L78.1026 22.2808
" />
<path d="M78.1026 22.2808
L78.0074 22.4237
" />
<path d="M78.0074 22.4237
L77.9121 22.5189
" />
<path d="M77.9121 22.5189
L77.8169 22.5665
" />
</g><text x="34.4700" y="68.1260"
textLength="3.2976" font-size="1.3333" lengthAdjust="spacingAndGlyphs"
text-anchor="middle" opacity="0" stroke-opacity="0">SW7</text>
<g class="stroked-text"><desc>SW7</desc>
<path d="M33.1367 68.0332
L33.2795 68.0808
" />
<path d="M33.2795 68.0808
L33.5176 68.0808
" />
<path d="M33.5176 68.0808
L33.6129 68.0332
" />
<path d="M33.6129 68.0332
L33.6605 67.9856
" />
<path d="M33.6605 67.9856
L33.7081 67.8903
" />
<path d="M33.7081 67.8903
L33.7081 67.7951
" />
<path d="M33.7081 67.7951
L33.6605 67.6999
" />
<path d="M33.6605 67.6999
L33.6129 67.6522
" />
<path d="M33.6129 67.6522
L33.5176 67.6046
" />
<path d="M33.5176 67.6046
L33.3271 67.5570
" />
<path d="M33.3271 67.5570
L33.2319 67.5094
" />
<path d="M33.2319 67.5094
L33.1843 67.4618
" />
<path d="M33.1843 67.4618
L33.1367 67.3665
" />
<path d="M33.1367 67.3665
L33.1367 67.2713
" />
<path d="M33.1367 67.2713
L33.1843 67.1761
" />
<path d="M33.1843 67.1761
L33.2319 67.1284
" />
<path d="M33.2319 67.1284
L33.3271 67.0808
" />
<path d="M33.3271 67.0808
L33.5652 67.0808
" />
<path d="M33.5652 67.0808
L33.7081 67.1284
" />
<path d="M34.0414 67.0808
L34.2795 68.0808
" />
<path d="M34.2795 68.0808
L34.4700 67.3665
" />
<path d="M34.4700 67.3665
L34.6605 68.0808
" />
<path d="M34.6605 68.0808
L34.8986 67.0808
" />
<path d="M35.1843 67.0808
L35.8510 67.0808
" />
<path d="M35.8510 67.0808
L35.4224 68.0808
" />
</g><text x="25.3500" y="59.8000"
textLength="2.2024" font-size="1.3333" lengthAdjust="spacingAndGlyphs"
text-anchor="middle" opacity="0" stroke-opacity="0">D4</text>
<g class="stroked-text"><desc>D4</desc>
<path d="M24.6119 59.7548
L24.6119 58.7548
" />
<path d="M24.6119 58.7548
L24.8500 58.7548
" />
<path d="M24.8500 58.7548
L24.9929 58.8024
" />
<path d="M24.9929 58.8024
L25.0881 58.8977
" />
<path d="M25.0881 58.8977
L25.1357 58.9929
" />
<path d="M25.1357 58.9929
L25.1833 59.1834
" />
<path d="M25.1833 59.1834
L25.1833 59.3262
" />
<path d="M25.1833 59.3262
L25.1357 59.5167
" />
<path d="M25.1357 59.5167
L25.0881 59.6120
" />
<path d="M25.0881 59.6120
L24.9929 59.7072
" />
<path d="M24.9929 59.7072
L24.8500 59.7548
" />
<path d="M24.8500 59.7548
L24.6119 59.7548
" />
<path d="M26.0405 59.0882
L26.0405 59.7548
" />
<path d="M25.8024 58.7072
L25.5643 59.4215
" />
<path d="M25.5643 59.4215
L26.1833 59.4215
" />
</g><text x="21.2000" y="61.7000"
textLength="1.2024" font-size="1.3333" lengthAdjust="spacingAndGlyphs"
text-anchor="middle" opacity="0" stroke-opacity="0">1</text>
<g class="stroked-text"><desc>1</desc>
<path d="M21.4857 61.6548
L20.9143 61.6548
" />
<path d="M21.2000 61.6548
L21.2000 60.6548
" />
<path d="M21.2000 60.6548
L21.1048 60.7977
" />
<path d="M21.1048 60.7977
L21.0095 60.8929
" />
<path d="M21.0095 60.8929
L20.9143 60.9405
" />
</g><text x="82.7500" y="59.5750"
textLength="2.2024" font-size="1.3333" lengthAdjust="spacingAndGlyphs"
text-anchor="middle" opacity="0" stroke-opacity="0">D2</text>
<g class="stroked-text"><desc>D2</desc>
<path d="M82.0119 59.5298
L82.0119 58.5298
" />
<path d="M82.0119 58.5298
L82.2500 58.5298
" />
<path d="M82.2500 58.5298
L82.3929 58.5774
" />
<path d="M82.3929 58.5774
L82.4881 58.6727
" />
<path d="M82.4881 58.6727
L82.5357 58.7679
" />
<path d="M82.5357 58.7679
L82.5833 58.9584
" />
<path d="M82.5833 58.9584
L82.5833 59.1012
" />
<path d="M82.5833 59.1012
L82.5357 59.2917
" />
<path d="M82.5357 59.2917
L82.4881 59.3870
" />
<path d="M82.4881 59.3870
L82.3929 59.4822
" />
<path d="M82.3929 59.4822
L82.2500 59.5298
" />
<path d="M82.2500 59.5298
L82.0119 59.5298
" />
<path d="M82.9643 58.6251
L83.0119 58.5774
" />
<path d="M83.0119 58.5774
L83.1071 58.5298
" />
<path d="M83.1071 58.5298
L83.3452 58.5298
" />
<path d="M83.3452 58.5298
L83.4405 58.5774
" />
<path d="M83.4405 58.5774
L83.4881 58.6251
" />
<path d="M83.4881 58.6251
L83.5357 58.7203
" />
<path d="M83.5357 58.7203
L83.5357 58.8155
" />
<path d="M83.5357 58.8155
L83.4881 58.9584
" />
<path d="M83.4881 58.9584
L82.9167 59.5298
" />
<path d="M82.9167 59.5298
L83.5357 59.5298
" />
</g><text x="78.6000" y="61.4750"
textLength="1.2024" font-size="1.3333" lengthAdjust="spacingAndGlyphs"
text-anchor="middle" opacity="0" stroke-opacity="0">1</text>
<g class="stroked-text"><desc>1</desc>
<path d="M78.8857 61.4298
L78.3143 61.4298
" />
<path d="M78.6000 61.4298
L78.6000 60.4298
" />
<path d="M78.6000 60.4298
L78.5048 60.5727
" />
<path d="M78.5048 60.5727
L78.4095 60.6679
" />
<path d="M78.4095 60.6679
L78.3143 60.7155
" />
</g><text x="30.1000" y="23.1010"
textLength="3.2976" font-size="1.3333" lengthAdjust="spacingAndGlyphs"
text-anchor="middle" opacity="0" stroke-opacity="0">SW3</text>
<g class="stroked-text"><desc>SW3</desc>
<path d="M28.7667 23.0082
L28.9095 23.0558
" />
<path d="M28.9095 23.0558
L29.1476 23.0558
" />
<path d="M29.1476 23.0558
L29.2429 23.0082
" />
<path d="M29.2429 23.0082
L29.2905 22.9606
" />
<path d="M29.2905 22.9606
L29.3381 22.8653
" />
<path d="M29.3381 22.8653
L29.3381 22.7701
" />
<path d="M29.3381 22.7701
L29.2905 22.6749
" />
<path d="M29.2905 22.6749
L29.2429 22.6272
" />
<path d="M29.2429 22.6272
L29.1476 22.5796
" />
<path d="M29.1476 22.5796
L28.9571 22.5320
" />
<path d="M28.9571 22.5320
L28.8619 22.4844
" />
<path d="M28.8619 22.4844
L28.8143 22.4368
" />
<path d="M28.8143 22.4368
L28.7667 22.3415
" />
<path d="M28.7667 22.3415
L28.7667 22.2463
" />
<path d="M28.7667 22.2463
L28.8143 22.1511
" />
<path d="M28.8143 22.1511
L28.8619 22.1034
" />
<path d="M28.8619 22.1034
L28.9571 22.0558
" />
<path d="M28.9571 22.0558
L29.1952 22.0558
" />
<path d="M29.1952 22.0558
L29.3381 22.1034
" />
<path d="M29.6714 22.0558
L29.9095 23.0558
" />
<path d="M29.9095 23.0558
L30.1000 22.3415
" />
<path d="M30.1000 22.3415
L30.2905 23.0558
" />
<path d="M30.2905 23.0558
L30.5286 22.0558
" />
<path d="M30.8143 22.0558
L31.4333 22.0558
" />
<path d="M31.4333 22.0558
L31.1000 22.4368
" />
<path d="M31.1000 22.4368
L31.2429 22.4368
" />
<path d="M31.2429 22.4368
L31.3381 22.4844
" />
<path d="M31.3381 22.4844
L31.3857 22.5320
" />
<path d="M31.3857 22.5320
L31.4333 22.6272
" />
<path d="M31.4333 22.6272
L31.4333 22.8653
" />
<path d="M31.4333 22.8653
L31.3857 22.9606
" />
<path d="M31.3857 22.9606
L31.3381 23.0082
" />
<path d="M31.3381 23.0082
L31.2429 23.0558
" />
<path d="M31.2429 23.0558
L30.9571 23.0558
" />
<path d="M30.9571 23.0558
L30.8619 23.0082
" />
<path d="M30.8619 23.0082
L30.8143 22.9606
" />
</g><g transform="rotate(-90.000000 73.9250 50.8250)">
<text x="73.9250" y="51.3250"
textLength="3.2976" font-size="1.3333" lengthAdjust="spacingAndGlyphs"
text-anchor="middle" opacity="0" stroke-opacity="0">SW9</text>
</g>
<g class="stroked-text"><desc>SW9</desc>
<path d="M74.3322 52.1583
L74.3798 52.0155
" />
<path d="M74.3798 52.0155
L74.3798 51.7774
" />
<path d="M74.3798 51.7774
L74.3322 51.6821
" />
<path d="M74.3322 51.6821
L74.2846 51.6345
" />
<path d="M74.2846 51.6345
L74.1893 51.5869
" />
<path d="M74.1893 51.5869
L74.0941 51.5869
" />
<path d="M74.0941 51.5869
L73.9989 51.6345
" />
<path d="M73.9989 51.6345
L73.9512 51.6821
" />
<path d="M73.9512 51.6821
L73.9036 51.7774
" />
<path d="M73.9036 51.7774
L73.8560 51.9679
" />
<path d="M73.8560 51.9679
L73.8084 52.0631
" />
<path d="M73.8084 52.0631
L73.7608 52.1107
" />
<path d="M73.7608 52.1107
L73.6655 52.1583
" />
<path d="M73.6655 52.1583
L73.5703 52.1583
" />
<path d="M73.5703 52.1583
L73.4751 52.1107
" />
<path d="M73.4751 52.1107
L73.4274 52.0631
" />
<path d="M73.4274 52.0631
L73.3798 51.9679
" />
<path d="M73.3798 51.9679
L73.3798 51.7298
" />
<path d="M73.3798 51.7298
L73.4274 51.5869
" />
<path d="M73.3798 51.2536
L74.3798 51.0155
" />
<path d="M74.3798 51.0155
L73.6655 50.8250
" />
<path d="M73.6655 50.8250
L74.3798 50.6345
" />
<path d="M74.3798 50.6345
L73.3798 50.3964
" />
<path d="M74.3798 49.9679
L74.3798 49.7774
" />
<path d="M74.3798 49.7774
L74.3322 49.6821
" />
<path d="M74.3322 49.6821
L74.2846 49.6345
" />
<path d="M74.2846 49.6345
L74.1417 49.5393
" />
<path d="M74.1417 49.5393
L73.9512 49.4917
" />
<path d="M73.9512 49.4917
L73.5703 49.4917
" />
<path d="M73.5703 49.4917
L73.4751 49.5393
" />
<path d="M73.4751 49.5393
L73.4274 49.5869
" />
<path d="M73.4274 49.5869
L73.3798 49.6821
" />
<path d="M73.3798 49.6821
L73.3798 49.8726
" />
<path d="M73.3798 49.8726
L73.4274 49.9679
" />
<path d="M73.4274 49.9679
L73.4751 50.0155
" />
<path d="M73.4751 50.0155
L73.5703 50.0631
" />
<path d="M73.5703 50.0631
L73.8084 50.0631
" />
<path d="M73.8084 50.0631
L73.9036 50.0155
" />
<path d="M73.9036 50.0155
L73.9512 49.9679
" />
<path d="M73.9512 49.9679
L73.9989 49.8726
" />
<path d="M73.9989 49.8726
L73.9989 49.6821
" />
<path d="M73.9989 49.6821
L73.9512 49.5869
" />
<path d="M73.9512 49.5869
L73.9036 49.5393
" />
<path d="M73.9036 49.5393
L73.8084 49.4917
" />
</g><text x="24.6750" y="40.2250"
textLength="2.2024" font-size="1.3333" lengthAdjust="spacingAndGlyphs"
text-anchor="middle" opacity="0" stroke-opacity="0">D3</text>
<g class="stroked-text"><desc>D3</desc>
<path d="M23.9369 40.1798
L23.9369 39.1798
" />
<path d="M23.9369 39.1798
L24.1750 39.1798
" />
<path d="M24.1750 39.1798
L24.3179 39.2274
" />
<path d="M24.3179 39.2274
L24.4131 39.3227
" />
<path d="M24.4131 39.3227
L24.4607 39.4179
" />
<path d="M24.4607 39.4179
L24.5083 39.6084
" />
<path d="M24.5083 39.6084
L24.5083 39.7512
" />
<path d="M24.5083 39.7512
L24.4607 39.9417
" />
<path d="M24.4607 39.9417
L24.4131 40.0370
" />
<path d="M24.4131 40.0370
L24.3179 40.1322
" />
<path d="M24.3179 40.1322
L24.1750 40.1798
" />
<path d="M24.1750 40.1798
L23.9369 40.1798
" />
<path d="M24.8417 39.1798
L25.4607 39.1798
" />
<path d="M25.4607 39.1798
L25.1274 39.5608
" />
<path d="M25.1274 39.5608
L25.2702 39.5608
" />
<path d="M25.2702 39.5608
L25.3655 39.6084
" />
<path d="M25.3655 39.6084
L25.4131 39.6560
" />
<path d="M25.4131 39.6560
L25.4607 39.7512
" />
<path d="M25.4607 39.7512
L25.4607 39.9893
" />
<path d="M25.4607 39.9893
L25.4131 40.0846
" />
<path d="M25.4131 40.0846
L25.3655 40.1322
" />
<path d="M25.3655 40.1322
L25.2702 40.1798
" />
<path d="M25.2702 40.1798
L24.9845 40.1798
" />
<path d="M24.9845 40.1798
L24.8893 40.1322
" />
<path d="M24.8893 40.1322
L24.8417 40.0846
" />
</g><text x="20.5250" y="42.1250"
textLength="1.2024" font-size="1.3333" lengthAdjust="spacingAndGlyphs"
text-anchor="middle" opacity="0" stroke-opacity="0">1</text>
<g class="stroked-text"><desc>1</desc>
<path d="M20.8107 42.0798
L20.2393 42.0798
" />
<path d="M20.5250 42.0798
L20.5250 41.0798
" />
<path d="M20.5250 41.0798
L20.4298 41.2227
" />
<path d="M20.4298 41.2227
L20.3345 41.3179
" />
<path d="M20.3345 41.3179
L20.2393 41.3655
" />
</g><text x="73.7500" y="67.9010"
textLength="3.2976" font-size="1.3333" lengthAdjust="spacingAndGlyphs"
text-anchor="middle" opacity="0" stroke-opacity="0">SW8</text>
<g class="stroked-text"><desc>SW8</desc>
<path d="M72.4167 67.8082
L72.5595 67.8558
" />
<path d="M72.5595 67.8558
L72.7976 67.8558
" />
<path d="M72.7976 67.8558
L72.8929 67.8082
" />
<path d="M72.8929 67.8082
L72.9405 67.7606
" />
<path d="M72.9405 67.7606
L72.9881 67.6653
" />
<path d="M72.9881 67.6653
L72.9881 67.5701
" />
<path d="M72.9881 67.5701
L72.9405 67.4749
" />
<path d="M72.9405 67.4749
L72.8929 67.4272
" />
<path d="M72.8929 67.4272
L72.7976 67.3796
" />
<path d="M72.7976 67.3796
L72.6071 67.3320
" />
<path d="M72.6071 67.3320
L72.5119 67.2844
" />
<path d="M72.5119 67.2844
L72.4643 67.2368
" />
<path d="M72.4643 67.2368
L72.4167 67.1415
" />
<path d="M72.4167 67.1415
L72.4167 67.0463
" />
<path d="M72.4167 67.0463
L72.4643 66.9511
" />
<path d="M72.4643 66.9511
L72.5119 66.9034
" />
<path d="M72.5119 66.9034
L72.6071 66.8558
" />
<path d="M72.6071 66.8558
L72.8452 66.8558
" />
<path d="M72.8452 66.8558
L72.9881 66.9034
" />
<path d="M73.3214 66.8558
L73.5595 67.8558
" />
<path d="M73.5595 67.8558
L73.7500 67.1415
" />
<path d="M73.7500 67.1415
L73.9405 67.8558
" />
<path d="M73.9405 67.8558
L74.1786 66.8558
" />
<path d="M74.7024 67.2844
L74.6071 67.2368
" />
<path d="M74.6071 67.2368
L74.5595 67.1892
" />
<path d="M74.5595 67.1892
L74.5119 67.0939
" />
<path d="M74.5119 67.0939
L74.5119 67.0463
" />
<path d="M74.5119 67.0463
L74.5595 66.9511
" />
<path d="M74.5595 66.9511
L74.6071 66.9034
" />
<path d="M74.6071 66.9034
L74.7024 66.8558
" />
<path d="M74.7024 66.8558
L74.8929 66.8558
" />
<path d="M74.8929 66.8558
L74.9881 66.9034
" />
<path d="M74.9881 66.9034
L75.0357 66.9511
" />
<path d="M75.0357 66.9511
L75.0833 67.0463
" />
<path d="M75.0833 67.0463
L75.0833 67.0939
" />
<path d="M75.0833 67.0939
L75.0357 67.1892
" />
<path d="M75.0357 67.1892
L74.9881 67.2368
" />
<path d="M74.9881 67.2368
L74.8929 67.2844
" />
<path d="M74.8929 67.2844
L74.7024 67.2844
" />
<path d="M74.7024 67.2844
L74.6071 67.3320
" />
<path d="M74.6071 67.3320
L74.5595 67.3796
" />
<path d="M74.5595 67.3796
L74.5119 67.4749
" />
<path d="M74.5119 67.4749
L74.5119 67.6653
" />
<path d="M74.5119 67.6653
L74.5595 67.7606
" />
<path d="M74.5595 67.7606
L74.6071 67.8082
" />
<path d="M74.6071 67.8082
L74.7024 67.8558
" />
<path d="M74.7024 67.8558
L74.8929 67.8558
" />
<path d="M74.8929 67.8558
L74.9881 67.8082
" />
<path d="M74.9881 67.8082
L75.0357 67.7606
" />
<path d="M75.0357 67.7606
L75.0833 67.6653
" />
<path d="M75.0833 67.6653
L75.0833 67.4749
" />
<path d="M75.0833 67.4749
L75.0357 67.3796
" />
<path d="M75.0357 67.3796
L74.9881 67.3320
" />
<path d="M74.9881 67.3320
L74.8929 67.2844
" />
</g><text x="53.3000" y="31.5540"
textLength="1.9643" font-size="1.3333" lengthAdjust="spacingAndGlyphs"
text-anchor="middle" opacity="0" stroke-opacity="0">J1</text>
<g class="stroked-text"><desc>J1</desc>
<path d="M52.9667 30.5088
L52.9667 31.2231
" />
<path d="M52.9667 31.2231
L52.9190 31.3660
" />
<path d="M52.9190 31.3660
L52.8238 31.4612
" />
<path d="M52.8238 31.4612
L52.6810 31.5088
" />
<path d="M52.6810 31.5088
L52.5857 31.5088
" />
<path d="M53.9667 31.5088
L53.3952 31.5088
" />
<path d="M53.6810 31.5088
L53.6810 30.5088
" />
<path d="M53.6810 30.5088
L53.5857 30.6517
" />
<path d="M53.5857 30.6517
L53.4905 30.7469
" />
<path d="M53.4905 30.7469
L53.3952 30.7945
" />
</g><text x="83.2000" y="40.8250"
textLength="2.2024" font-size="1.3333" lengthAdjust="spacingAndGlyphs"
text-anchor="middle" opacity="0" stroke-opacity="0">D1</text>
<g class="stroked-text"><desc>D1</desc>
<path d="M82.4619 40.7798
L82.4619 39.7798
" />
<path d="M82.4619 39.7798
L82.7000 39.7798
" />
<path d="M82.7000 39.7798
L82.8429 39.8274
" />
<path d="M82.8429 39.8274
L82.9381 39.9227
" />
<path d="M82.9381 39.9227
L82.9857 40.0179
" />
<path d="M82.9857 40.0179
L83.0333 40.2084
" />
<path d="M83.0333 40.2084
L83.0333 40.3512
" />
<path d="M83.0333 40.3512
L82.9857 40.5417
" />
<path d="M82.9857 40.5417
L82.9381 40.6370
" />
<path d="M82.9381 40.6370
L82.8429 40.7322
" />
<path d="M82.8429 40.7322
L82.7000 40.7798
" />
<path d="M82.7000 40.7798
L82.4619 40.7798
" />
<path d="M83.9857 40.7798
L83.4143 40.7798
" />
<path d="M83.7000 40.7798
L83.7000 39.7798
" />
<path d="M83.7000 39.7798
L83.6048 39.9227
" />
<path d="M83.6048 39.9227
L83.5095 40.0179
" />
<path d="M83.5095 40.0179
L83.4143 40.0655
" />
</g><text x="79.0500" y="42.7250"
textLength="1.2024" font-size="1.3333" lengthAdjust="spacingAndGlyphs"
text-anchor="middle" opacity="0" stroke-opacity="0">1</text>
<g class="stroked-text"><desc>1</desc>
<path d="M79.3357 42.6798
L78.7643 42.6798
" />
<path d="M79.0500 42.6798
L79.0500 41.6798
" />
<path d="M79.0500 41.6798
L78.9548 41.8227
" />
<path d="M78.9548 41.8227
L78.8595 41.9179
" />
<path d="M78.8595 41.9179
L78.7643 41.9655
" />
</g><text x="49.4500" y="48.3010"
textLength="3.2976" font-size="1.3333" lengthAdjust="spacingAndGlyphs"
text-anchor="middle" opacity="0" stroke-opacity="0">SW2</text>
<g class="stroked-text"><desc>SW2</desc>
<path d="M48.1167 48.2082
L48.2595 48.2558
" />
<path d="M48.2595 48.2558
L48.4976 48.2558
" />
<path d="M48.4976 48.2558
L48.5929 48.2082
" />
<path d="M48.5929 48.2082
L48.6405 48.1606
" />
<path d="M48.6405 48.1606
L48.6881 48.0653
" />
<path d="M48.6881 48.0653
L48.6881 47.9701
" />
<path d="M48.6881 47.9701
L48.6405 47.8749
" />
<path d="M48.6405 47.8749
L48.5929 47.8272
" />
<path d="M48.5929 47.8272
L48.4976 47.7796
" />
<path d="M48.4976 47.7796
L48.3071 47.7320
" />
<path d="M48.3071 47.7320
L48.2119 47.6844
" />
<path d="M48.2119 47.6844
L48.1643 47.6368
" />
<path d="M48.1643 47.6368
L48.1167 47.5415
" />
<path d="M48.1167 47.5415
L48.1167 47.4463
" />
<path d="M48.1167 47.4463
L48.1643 47.3511
" />
<path d="M48.1643 47.3511
L48.2119 47.3034
" />
<path d="M48.2119 47.3034
L48.3071 47.2558
" />
<path d="M48.3071 47.2558
L48.5452 47.2558
" />
<path d="M48.5452 47.2558
L48.6881 47.3034
" />
<path d="M49.0214 47.2558
L49.2595 48.2558
" />
<path d="M49.2595 48.2558
L49.4500 47.5415
" />
<path d="M49.4500 47.5415
L49.6405 48.2558
" />
<path d="M49.6405 48.2558
L49.8786 47.2558
" />
<path d="M50.2119 47.3511
L50.2595 47.3034
" />
<path d="M50.2595 47.3034
L50.3548 47.2558
" />
<path d="M50.3548 47.2558
L50.5929 47.2558
" />
<path d="M50.5929 47.2558
L50.6881 47.3034
" />
<path d="M50.6881 47.3034
L50.7357 47.3511
" />
<path d="M50.7357 47.3511
L50.7833 47.4463
" />
<path d="M50.7833 47.4463
L50.7833 47.5415
" />
<path d="M50.7833 47.5415
L50.7357 47.6844
" />
<path d="M50.7357 47.6844
L50.1643 48.2558
" />
<path d="M50.1643 48.2558
L50.7833 48.2558
" />
</g><text x="54.1750" y="67.9010"
textLength="3.2976" font-size="1.3333" lengthAdjust="spacingAndGlyphs"
text-anchor="middle" opacity="0" stroke-opacity="0">SW6</text>
<g class="stroked-text"><desc>SW6</desc>
<path d="M52.8417 67.8082
L52.9845 67.8558
" />
<path d="M52.9845 67.8558
L53.2226 67.8558
" />
<path d="M53.2226 67.8558
L53.3179 67.8082
" />
<path d="M53.3179 67.8082
L53.3655 67.7606
" />
<path d="M53.3655 67.7606
L53.4131 67.6653
" />
<path d="M53.4131 67.6653
L53.4131 67.5701
" />
<path d="M53.4131 67.5701
L53.3655 67.4749
" />
<path d="M53.3655 67.4749
L53.3179 67.4272
" />
<path d="M53.3179 67.4272
L53.2226 67.3796
" />
<path d="M53.2226 67.3796
L53.0321 67.3320
" />
<path d="M53.0321 67.3320
L52.9369 67.2844
" />
<path d="M52.9369 67.2844
L52.8893 67.2368
" />
<path d="M52.8893 67.2368
L52.8417 67.1415
" />
<path d="M52.8417 67.1415
L52.8417 67.0463
" />
<path d="M52.8417 67.0463
L52.8893 66.9511
" />
<path d="M52.8893 66.9511
L52.9369 66.9034
" />
<path d="M52.9369 66.9034
L53.0321 66.8558
" />
<path d="M53.0321 66.8558
L53.2702 66.8558
" />
<path d="M53.2702 66.8558
L53.4131 66.9034
" />
<path d="M53.7464 66.8558
L53.9845 67.8558
" />
<path d="M53.9845 67.8558
L54.1750 67.1415
" />
<path d="M54.1750 67.1415
L54.3655 67.8558
" />
<path d="M54.3655 67.8558
L54.6036 66.8558
" />
<path d="M55.4131 66.8558
L55.2226 66.8558
" />
<path d="M55.2226 66.8558
L55.1274 66.9034
" />
<path d="M55.1274 66.9034
L55.0798 66.9511
" />
<path d="M55.0798 66.9511
L54.9845 67.0939
" />
<path d="M54.9845 67.0939
L54.9369 67.2844
" />
<path d="M54.9369 67.2844
L54.9369 67.6653
" />
<path d="M54.9369 67.6653
L54.9845 67.7606
" />
<path d="M54.9845 67.7606
L55.0321 67.8082
" />
<path d="M55.0321 67.8082
L55.1274 67.8558
" />
<path d="M55.1274 67.8558
L55.3179 67.8558
" />
<path d="M55.3179 67.8558
L55.4131 67.8082
" />
<path d="M55.4131 67.8082
L55.4607 67.7606
" />
<path d="M55.4607 67.7606
L55.5083 67.6653
" />
<path d="M55.5083 67.6653
L55.5083 67.4272
" />
<path d="M55.5083 67.4272
L55.4607 67.3320
" />
<path d="M55.4607 67.3320
L55.4131 67.2844
" />
<path d="M55.4131 67.2844
L55.3179 67.2368
" />
<path d="M55.3179 67.2368
L55.1274 67.2368
" />
<path d="M55.1274 67.2368
L55.0321 67.2844
" />
<path d="M55.0321 67.2844
L54.9845 67.3320
" />
<path d="M54.9845 67.3320
L54.9369 67.4272
" />
</g></g>
<g style="fill:none; 
stroke:#008484; stroke-width:0.1200; stroke-opacity:1; 
stroke-linecap:round; stroke-linejoin:round;">
<path d="M70.0700 23.7150
L84.0400 23.7150
" />
<path d="M70.0700 37.6850
L70.0700 23.7150
" />
<path d="M84.0400 23.7150
L84.0400 37.6850
" />
<path d="M84.0400 37.6850
L70.0700 37.6850
" />
<path d="M27.4850 68.5150
L41.4550 68.5150
" />
<path d="M27.4850 82.4850
L27.4850 68.5150
" />
<path d="M41.4550 68.5150
L41.4550 82.4850
" />
<path d="M41.4550 82.4850
L27.4850 82.4850
" />
<path d="M21.7000 60.0500
L29.0000 60.0500
" />
<path d="M21.7000 65.5500
L29.0000 65.5500
" />
<path d="M29.0000 65.5500
L29.0000 64.4000
" />
<path d="M79.1000 59.8250
L86.4000 59.8250
" />
<path d="M79.1000 65.3250
L86.4000 65.3250
" />
<path d="M86.4000 65.3250
L86.4000 64.1750
" />
<path d="M23.1150 23.4900
L37.0850 23.4900
" />
<path d="M23.1150 37.4600
L23.1150 23.4900
" />
<path d="M37.0850 23.4900
L37.0850 37.4600
" />
<path d="M37.0850 37.4600
L23.1150 37.4600
" />
<path d="M60.8250 53.5250
L60.8250 49.4250
" />
<path d="M60.8250 61.6250
L60.8250 57.5250
" />
<path d="M63.2250 61.6250
L60.8250 61.6250
" />
<path d="M66.7250 55.0250
L66.7250 56.0250
" />
<path d="M67.2250 55.5250
L66.2250 55.5250
" />
<path d="M68.0250 61.6250
L65.4250 61.6250
" />
<path d="M70.5250 48.0250
L70.8250 47.7250
" />
<path d="M70.8250 47.7250
L70.8250 48.3250
" />
<path d="M70.8250 48.3250
L70.5250 48.0250
" />
<path d="M72.6250 49.4250
L60.8250 49.4250
" />
<path d="M72.6250 53.5250
L72.6250 49.4250
" />
<path d="M72.6250 57.5250
L72.6250 61.6250
" />
<path d="M72.6250 61.6250
L70.2250 61.6250
" />
<circle cx="66.7250" cy="55.5250" r="3.0000" /> 
<path d="M21.0250 40.4750
L28.3250 40.4750
" />
<path d="M21.0250 45.9750
L28.3250 45.9750
" />
<path d="M28.3250 45.9750
L28.3250 44.8250
" />
<path d="M66.7650 68.2900
L80.7350 68.2900
" />
<path d="M66.7650 82.2600
L66.7650 68.2900
" />
<path d="M80.7350 68.2900
L80.7350 82.2600
" />
<path d="M80.7350 82.2600
L66.7650 82.2600
" />
<path d="M39.9000 18.5000
L67.3000 18.5000
" />
<path d="M39.9000 45.8000
L39.9000 18.5000
" />
<path d="M40.3220 21.7950
L63.4220 21.7950
" />
<path d="M40.3220 38.3950
L40.3220 21.7950
" />
<path d="M48.6010 18.9890
L48.6010 21.4020
" />
<path d="M48.6010 18.9890
L58.3800 18.9890
" />
<path d="M58.3800 18.9890
L58.3800 21.4020
" />
<path d="M58.3800 21.4020
L48.6010 21.4020
" />
<path d="M63.4220 21.7950
L66.5080 21.7950
" />
<path d="M63.4220 38.3950
L40.3220 38.3950
" />
<path d="M63.4220 38.3950
L66.7620 38.4200
" />
<path d="M66.7620 21.7830
L66.5080 21.7950
" />
<path d="M66.7620 38.4200
L66.7620 21.7830
" />
<path d="M67.3000 18.5000
L67.3000 45.8000
" />
<path d="M67.3000 45.8000
L39.9000 45.8000
" />
<path d="M79.5500 41.0750
L86.8500 41.0750
" />
<path d="M79.5500 46.5750
L86.8500 46.5750
" />
<path d="M86.8500 46.5750
L86.8500 45.4250
" />
<path d="M42.4650 48.6900
L56.4350 48.6900
" />
<path d="M42.4650 62.6600
L42.4650 48.6900
" />
<path d="M56.4350 48.6900
L56.4350 62.6600
" />
<path d="M56.4350 62.6600
L42.4650 62.6600
" />
<path d="M47.1900 68.2900
L61.1600 68.2900
" />
<path d="M47.1900 82.2600
L47.1900 68.2900
" />
<path d="M61.1600 68.2900
L61.1600 82.2600
" />
<path d="M61.1600 82.2600
L47.1900 82.2600
" />
</g> 
</svg>
