<?xml version="1.0" encoding="UTF-8" standalone="no"?>
<!-- Created with Inkscape (http://www.inkscape.org/) -->

<svg
   width="75.5mm"
   height="24mm"
   viewBox="0 0 75.5 24"
   version="1.1"
   id="svg1"
   xmlns="http://www.w3.org/2000/svg"
   xmlns:svg="http://www.w3.org/2000/svg">
  <defs
     id="defs1" />
  <path
     d="m 11.079975,15.990626 c 0.158045,-0.06773 0.2032,-0.180623 0.2032,-0.293512 0,-0.508 -1.9529796,-4.176893 -2.6528915,-4.176893 -0.112889,0 -0.2144891,0.05645 -0.3273781,0.1016 l -1.4336903,0.51929 c 1.3095124,-0.936979 3.2963589,-2.3480915 3.7704929,-2.6641807 0.124178,-0.079022 0.191911,-0.1806224 0.191911,-0.2935114 0,-0.079022 -0.03387,-0.1580446 -0.1016,-0.2370669 L 9.5108178,7.4336393 C 9.4092177,7.3094614 9.3189065,7.2643058 9.2285953,7.2643058 c -0.5080006,0 -3.296359,2.4496914 -3.4318258,2.5738693 V 7.6142617 c 0,-0.1354668 -0.112889,-0.2370669 -0.2370669,-0.2370669 h -2.370669 c -0.1354668,0 -0.237067,0.1016001 -0.237067,0.2370669 v 8.8617873 c 0,0.124177 0.1016002,0.237066 0.237067,0.237066 h 2.370669 c 0.1241779,0 0.2370669,-0.112889 0.2370669,-0.237066 v -3.578582 l 0.462845,-0.327378 c 0,0.01129 0.011289,0.03387 0.022578,0.04516 0.451556,0.575734 2.1787577,3.420536 2.6416026,4.064004 0.079022,0.1016 0.1580447,0.146755 0.2483559,0.146755 0.090311,0 0.1806224,-0.04516 0.2935114,-0.09031 z m 8.523116,-0.688623 c 0.02258,-0.04516 0.03387,-0.07902 0.03387,-0.1016 0,-0.112889 -0.124178,-0.180623 -0.237067,-0.237067 -0.361245,-0.191911 -0.485422,-0.677334 -0.485422,-1.354668 0,-0.745068 0.158044,-1.727202 0.316089,-2.754492 v -0.05644 c 0,-0.135467 -0.07902,-0.282223 -0.372534,-0.304801 l -1.95298,-0.169333 H 16.8486 c -0.135467,0 -0.237067,0.03387 -0.304801,0.112889 -0.440267,-0.191911 -0.993423,-0.316089 -1.557868,-0.316089 -2.235202,0 -3.194759,1.952979 -3.194759,3.307647 0,1.817513 1.625602,3.262493 3.510848,3.262493 0.575734,0 1.185335,-0.135467 1.772358,-0.440267 0.564445,0.530578 1.354668,0.7112 1.467557,0.7112 0.146756,0 0.259645,-0.1016 0.361245,-0.293511 z m -3.307647,-0.82409 c -0.259645,0.112889 -0.508001,0.158045 -0.72249,0.158045 -0.733778,0 -1.174046,-0.541867 -1.174046,-1.174046 0,-0.575734 0.395112,-1.264357 1.106313,-1.264357 0.327378,0 0.632178,0.158045 0.767645,0.383823 -0.02258,0.338667 -0.03387,0.643467 -0.03387,0.936979 0,0.349956 0.02258,0.666045 0.05645,0.959556 z m 10.747035,2.15618 c 0.688623,-0.03387 1.343379,-1.219201 2.15618,-5.655739 0.01129,-0.05644 0.02258,-0.124178 0.02258,-0.180622 0,-0.158045 -0.06773,-0.293512 -0.395111,-0.349956 l -1.365957,-0.270934 c -0.101601,-0.02258 -0.21449,-0.04516 -0.31609,-0.04516 -0.146755,0 -0.259644,0.05644 -0.3048,0.259644 -0.508,2.449692 -0.530578,2.528714 -0.564445,2.528714 -0.02258,0 -0.04516,-0.04516 -0.05644,-0.07902 L 25.924878,11.486355 C 25.857145,11.317021 25.755545,11.260577 25.5975,11.260577 h -0.05644 l -1.298224,0.05644 c -0.270934,0.02258 -0.395112,0.09031 -0.417689,0.338667 -0.01129,0.1016 -0.07902,0.914401 -0.124178,1.298224 -0.01129,0.06773 -0.04516,0.1016 -0.06773,0.1016 -0.02258,0 -0.04515,-0.01129 -0.06773,-0.05645 L 22.41403,10.571954 c -0.04516,-0.1016 -0.146756,-0.180623 -0.3048,-0.180623 -0.05645,0 -0.124178,0.01129 -0.2032,0.03387 l -1.64818,0.541867 c -0.225778,0.07902 -0.293511,0.180623 -0.293511,0.282223 0,0.09031 0.04516,0.180622 0.07902,0.248355 l 2.302936,5.057428 c 0.1016,0.225778 0.3048,0.293511 0.508,0.293511 h 0.05645 l 1.117601,-0.05644 c 0.191911,-0.01129 0.372534,-0.146756 0.4064,-0.282223 0.09031,-0.293511 0.338667,-1.399823 0.451556,-1.907824 0.01129,-0.04516 0.02258,-0.112889 0.04516,-0.112889 0.01129,0 0.03387,0.02258 0.06773,0.112889 0.180623,0.496712 0.654757,1.74978 0.72249,1.885246 0.09031,0.146756 0.2032,0.191912 0.383823,0.191912 h 0.07902 z m 10.577704,-1.33209 c 0.02258,-0.04516 0.03387,-0.07902 0.03387,-0.1016 0,-0.112889 -0.124178,-0.180623 -0.237067,-0.237067 -0.361245,-0.191911 -0.485423,-0.677334 -0.485423,-1.354668 0,-0.745068 0.158045,-1.727202 0.316089,-2.754492 v -0.05644 c 0,-0.135467 -0.07902,-0.282223 -0.372533,-0.304801 l -1.95298,-0.169333 h -0.05644 c -0.135467,0 -0.237067,0.03387 -0.304801,0.112889 -0.440267,-0.191911 -0.993423,-0.316089 -1.557868,-0.316089 -2.235202,0 -3.194759,1.952979 -3.194759,3.307647 0,1.817513 1.625602,3.262493 3.510848,3.262493 0.575734,0 1.185335,-0.135467 1.772358,-0.440267 0.564445,0.530578 1.354668,0.7112 1.467557,0.7112 0.146755,0 0.259644,-0.1016 0.361244,-0.293511 z m -3.307648,-0.82409 c -0.259644,0.112889 -0.508,0.158045 -0.722489,0.158045 -0.733779,0 -1.174046,-0.541867 -1.174046,-1.174046 0,-0.575734 0.395112,-1.264357 1.106312,-1.264357 0.327378,0 0.632179,0.158045 0.767646,0.383823 -0.02258,0.338667 -0.03387,0.643467 -0.03387,0.936979 0,0.349956 0.02258,0.666045 0.05644,0.959556 z m 7.157168,2.190047 c 0.112889,-0.01129 0.214489,-0.112889 0.214489,-0.225778 v -0.02258 l -0.282223,-5.508983 c 0,-0.112889 -0.1016,-0.214489 -0.214489,-0.214489 H 41.1649 l -2.25778,0.112889 c -0.135467,0.01129 -0.225778,0.112889 -0.225778,0.248355 l 0.282223,5.497695 c 0.01129,0.124178 0.1016,0.225778 0.225778,0.225778 h 0.02258 z m 0.112889,-7.8232081 c 0,-0.9256899 -0.745068,-1.6707573 -1.659469,-1.6707573 -0.92569,0 -1.670757,0.7450674 -1.670757,1.6707573 0,0.9144009 0.745067,1.6594681 1.670757,1.6594681 0.914401,0 1.659469,-0.7450672 1.659469,-1.6594681 z m 4.289775,7.8232081 c 0.112889,-0.01129 0.214489,-0.112889 0.214489,-0.225778 v -0.02258 l -0.282223,-5.508983 c 0,-0.112889 -0.1016,-0.214489 -0.214489,-0.214489 h -0.02258 l -2.25778,0.112889 c -0.135466,0.01129 -0.225778,0.112889 -0.225778,0.248355 l 0.282223,5.497695 c 0.01129,0.124178 0.1016,0.225778 0.225778,0.225778 h 0.02258 z m 0.112889,-7.8232081 c 0,-0.9256899 -0.745068,-1.6707573 -1.659469,-1.6707573 -0.925689,0 -1.670757,0.7450674 -1.670757,1.6707573 0,0.9144009 0.745068,1.6594681 1.670757,1.6594681 0.914401,0 1.659469,-0.7450672 1.659469,-1.6594681 z m 3.939819,7.9586751 c 0.112889,0 0.214489,-0.1016 0.225778,-0.225778 l 0.112889,-2.336803 c 0.428978,0.124178 0.891823,0.191912 1.365957,0.191912 2.348091,0 3.770493,-1.456269 3.770493,-3.544715 0,-2.1787579 -1.885247,-3.7253373 -3.973693,-3.7253373 -0.440267,0 -0.891823,0.079022 -1.343379,0.225778 L 48.017251,7.2868836 h -0.02258 c -0.124178,0 -0.225778,0.1016001 -0.225778,0.2144891 L 47.30605,16.430893 c 0,0.135467 0.09031,0.237067 0.225778,0.248356 l 2.370669,0.124178 z m 0.575734,-7.179741 c 0.180622,-0.045156 0.361245,-0.067733 0.519289,-0.067733 0.835379,0 1.467557,0.553156 1.467557,1.343379 0,0.07902 0,1.286934 -1.241779,1.286934 -0.3048,0 -0.620889,-0.07902 -0.869245,-0.191911 z m 13.399926,5.678317 c 0.02258,-0.04516 0.03387,-0.07902 0.03387,-0.1016 0,-0.112889 -0.124178,-0.180623 -0.237067,-0.237067 -0.361245,-0.191911 -0.485423,-0.677334 -0.485423,-1.354668 0,-0.745068 0.158045,-1.727202 0.316089,-2.754492 v -0.05644 c 0,-0.135467 -0.07902,-0.282223 -0.372533,-0.304801 l -1.95298,-0.169333 h -0.05645 c -0.135466,0 -0.237066,0.03387 -0.3048,0.112889 -0.440267,-0.191911 -0.993423,-0.316089 -1.557868,-0.316089 -2.235202,0 -3.194759,1.952979 -3.194759,3.307647 0,1.817513 1.625602,3.262493 3.510848,3.262493 0.575734,0 1.185335,-0.135467 1.772357,-0.440267 0.564445,0.530578 1.354668,0.7112 1.467557,0.7112 0.146756,0 0.259645,-0.1016 0.361245,-0.293511 z m -3.307648,-0.82409 c -0.259644,0.112889 -0.508,0.158045 -0.722489,0.158045 -0.733779,0 -1.174046,-0.541867 -1.174046,-1.174046 0,-0.575734 0.395112,-1.264357 1.106312,-1.264357 0.327378,0 0.632179,0.158045 0.767646,0.383823 -0.02258,0.338667 -0.03387,0.643467 -0.03387,0.936979 0,0.349956 0.02258,0.666045 0.05644,0.959556 z m 11.932369,0.699912 c 0.02258,-0.03387 0.02258,-0.06773 0.02258,-0.1016 0,-0.1016 -0.124178,-0.158045 -0.248355,-0.214489 -0.462845,-0.2032 -0.598312,-0.891823 -0.598312,-1.817513 0,-0.778934 0.361245,-5.4864058 0.383822,-5.6331615 v -0.033867 c 0,-0.1580446 -0.09031,-0.3048003 -0.4064,-0.3048003 l -1.95298,-0.033867 c -0.225778,0 -0.4064,0.112889 -0.417689,0.3048003 l -0.2032,3.0254245 c -0.406401,-0.146755 -0.891823,-0.248355 -1.377246,-0.248355 -2.235202,0 -3.194759,1.930402 -3.194759,3.307647 0,1.817513 1.614313,3.262493 3.499559,3.262493 0.62089,0 1.275646,-0.158045 1.907824,-0.508001 0.632179,0.632179 1.603024,0.733779 1.603024,0.733779 0.169334,0 0.282223,-0.112889 0.372534,-0.327378 z m -3.386671,-0.756356 c -0.316089,0.146755 -0.598311,0.214489 -0.846667,0.214489 -0.72249,0 -1.162757,-0.541867 -1.162757,-1.174046 0,-0.632178 0.428978,-1.253068 1.106312,-1.253068 0.338667,0 0.654757,0.158045 0.778935,0.383823 0,0.722489 0.04516,1.320801 0.124177,1.828802 z"
     id="text1"
     style="font-weight:900;font-size:11.2889px;font-family:'FOT-Yuruka Std';-inkscape-font-specification:'FOT-Yuruka Std Heavy';stroke-width:0.264583"
     aria-label="KawaiiPad" />
</svg>
